<?xml version="1.0" encoding="UTF-8" standalone="no"?>
<!-- Created with Inkscape (http://www.inkscape.org/) -->

<svg
   version="1.1"
   id="svg55"
   width="432"
   height="216"
   viewBox="0 0 432 216"
   xmlns="http://www.w3.org/2000/svg"
   xmlns:svg="http://www.w3.org/2000/svg">
  <defs
     id="defs59" />
  <g
     id="g61">
    <path
       style="fill:#000000;stroke-width:1.33333"
       d="m 226.99532,180.27767 c -0.94614,-1.14001 -1.71536,-14.23752 -2.16071,-36.78984 -0.38033,-19.26078 -1.02043,-35.55177 -1.42241,-36.2022 -0.40198,-0.65042 -1.27343,-5.54499 -1.93654,-10.876808 -3.29572,-26.499622 -6.19821,-37.828068 -13.3683,-52.176693 -2.18316,-4.368901 -3.96939,-9.066959 -3.96939,-10.440127 0,-3.86872 4.97587,-4.917598 13.17353,-2.77689 4.8881,1.276457 10.3785,1.63137 16.719,1.080756 5.19244,-0.450915 12.7408,-0.999326 16.77414,-1.21869 4.03333,-0.219364 8.39712,-0.865166 9.69729,-1.435116 1.33921,-0.587058 6.07615,-0.1038 10.92744,1.114804 6.92579,1.739702 10.42603,1.895499 18.30271,0.814658 5.35657,-0.735032 13.63922,-0.972246 18.40589,-0.527142 21.49943,2.007584 34.47119,2.036479 40.22636,0.0896 4.0178,-1.359146 6.52003,-1.554164 8.22795,-0.641265 1.67077,0.893047 3.6897,0.800125 6.32408,-0.291065 2.12837,-0.881603 5.22393,-1.197466 6.87902,-0.701918 8.88936,2.661555 19.29066,3.0436 27.92091,1.025554 7.34045,-1.716446 9.27985,-1.778274 11,-0.350678 3.17572,2.635611 2.50711,7.496423 -1.70019,12.360255 -4.07772,4.714047 -10.87813,18.625867 -10.87813,22.253736 0,1.220131 -1.13132,5.497625 -2.51404,9.505543 -1.38272,4.007916 -2.92589,10.737121 -3.42927,14.953788 l -0.91524,7.66667 h 4.00914 c 2.20504,0 5.62745,-0.61528 7.60538,-1.36729 4.46926,-1.69921 8.57736,-0.51704 8.57736,2.46826 0,1.240029 -2.36232,5.870028 -5.24961,10.288898 -7.72085,11.81643 -12.40881,29.98422 -14.17713,54.94228 -1.09504,15.45526 -2.00171,17.66784 -7.23992,17.66784 -5.48964,0 -6.665,-3.09457 -6.67674,-17.57901 -0.0175,-21.48948 -5.17869,-42.98747 -13.41358,-55.87105 -6.86116,-10.734348 -4.47462,-14.872178 6.4404,-11.166438 9.40188,3.192019 10.09388,2.419179 9.31698,-10.405368 -0.98145,-16.201416 -10.00204,-41.983938 -16.85852,-48.184776 -2.68114,-2.42477 -2.80854,-2.429531 -2.80854,-0.104987 0,1.339248 -0.84446,3.38224 -1.87655,4.539983 -1.03211,1.157744 -3.95223,7.504988 -6.48916,14.104988 -4.20112,10.9295 -5.97712,18.729681 -10.20499,44.820398 -0.78612,4.85121 -1.4293,23.90121 -1.4293,42.33333 0,31.86172 -0.13294,33.64583 -2.69723,36.21016 -2.10027,2.10027 -3.26067,2.39568 -5.24303,1.33475 -3.70717,-1.98402 -3.93606,-3.7004 -3.91609,-29.36531 0.0279,-35.8079 -4.20091,-73.48891 -10.33237,-92.068208 -3.65996,-11.090224 -8.51615,-20.598454 -10.52038,-20.598454 -2.29837,0 -13.6895,23.761616 -15.17841,31.66179 -0.79521,4.219349 -2.11591,11.215445 -2.93489,15.54688 -0.81899,4.331434 -1.08359,8.531434 -0.58798,9.333334 1.16102,1.87856 5.06986,1.85973 9.24932,-0.0446 1.81376,-0.82641 4.84199,-1.11497 6.7294,-0.64127 4.18876,1.05132 4.61391,5.594288 0.96366,10.297338 -9.47716,12.21054 -16.01132,34.41987 -18.19574,61.84648 -0.90528,11.36629 -1.92844,13.93221 -5.57436,13.97959 -3.95453,0.0513 -5.55172,-4.02178 -5.60853,-14.3029 -0.10733,-19.41716 -7.57887,-50.00471 -14.39516,-58.93173 -2.99663,-3.92458 -4.41429,-7.1162 -4.15375,-9.351489 0.42927,-3.682899 0.20728,-3.652849 14.0622,-1.903979 6.74244,0.85108 6.99914,0.76634 6.97631,-2.30295 -0.0611,-8.20987 -2.66944,-27.079671 -3.91553,-28.325759 -0.76676,-0.766759 -1.39411,-2.203092 -1.39411,-3.191849 0,-0.988759 -1.2,-4.281456 -2.66667,-7.317107 -1.46666,-3.035649 -2.66666,-6.048561 -2.66666,-6.695357 0,-2.362535 -8.20318,-13.021606 -9.43532,-12.260099 -4.39682,2.717383 -13.94215,30.848725 -17.17048,50.603637 -0.83888,5.133334 -2.09576,11.891943 -2.79306,15.019132 -0.69729,3.12719 -1.26781,21.85608 -1.26781,41.61976 0,34.16224 -0.1272,36.002 -2.57901,37.3142 -3.40726,1.8235 -4.79503,1.74104 -6.56364,-0.39002 z M 90.113709,173.71459 c -0.40796,-1.65 -0.86939,-8.7 -1.0254,-15.66666 -0.28213,-12.59779 -0.30179,-12.66572 -3.617,-12.49335 -14.69541,0.76411 -48.15311,9.40933 -50.29229,12.99517 -3.19004,5.34736 -13.4299,7.61995 -13.8553,3.07499 -0.33569,-3.58643 0.48938,-8.34463 1.70382,-9.82605 1.3242,-1.61531 0.7494,-21.67977 -0.91581,-31.96815 -0.75885,-4.68852 -0.49257,-5.76792 1.71432,-6.94901 2.08311,-1.11485 4.33899,-0.50038 11.12899,3.03135 11.92538,6.20284 26.70292,11.02299 38.94608,12.70347 5.7364,0.78737 10.6864,1.43158 11,1.43158 0.3136,0 0.56925,-1.35 0.56811,-3 -0.002,-3.4371 -2.75895,-8.83921 -9.07251,-17.77955 -2.42436,-3.43302 -4.11691,-7.00024 -3.76121,-7.92716 0.46772,-1.21888 5.37802,-1.751949 17.74126,-1.926029 9.40199,-0.13238 18.294531,-0.12356 19.761201,0.0196 1.46667,0.14317 4.46667,0.21428 6.66667,0.15804 2.2,-0.0562 5.5,-0.0111 7.33333,0.10024 7.47585,0.454169 19.60433,-0.0473 23.77515,-0.9831 2.85762,-0.64113 5.57573,-0.38968 7.62121,0.70502 2.52208,1.349779 3.58844,1.362089 5.15792,0.0595 1.55704,-1.29223 4.08139,-1.30279 11.85007,-0.0496 8.50546,1.372079 10.93504,1.283289 17.55654,-0.64164 4.22676,-1.228749 8.51468,-1.915719 9.52872,-1.526589 3.20071,1.228219 2.01636,6.004488 -3.2686,13.181728 -4.74769,6.44759 -8.22101,14.93865 -8.22101,20.09748 0,1.74588 1.42427,2.17864 7.17008,2.17864 7.91313,0 10.94491,2.1034 9.51689,6.60268 -0.47666,1.50187 -1.87624,2.79443 -3.11016,2.87239 -1.2339,0.078 -3.14348,0.27532 -4.24348,0.4386 -1.1,0.16328 -4.25,0.39949 -7,0.52493 l -5,0.22807 v 14.08765 c 0,7.74822 -0.6211,15.24822 -1.38024,16.66667 -1.57586,2.94452 -6.91632,3.43481 -9.07548,0.83319 -0.79689,-0.9602 -1.62036,-8.3102 -1.82992,-16.33334 l -0.38102,-14.5875 -14.33334,-0.16195 -14.33333,-0.16196 v 14.89529 c 0,16.17156 -0.73439,18.09528 -6.90793,18.09528 -4.54498,0 -4.9767,-1.48498 -5.42687,-18.66666 l -0.33187,-12.66667 -11.41992,-0.38164 c -6.28095,-0.20991 -12.88095,0.15881 -14.66666,0.81939 -3.12145,1.15469 -3.24979,1.69261 -3.3256,13.9384 -0.0877,14.16638 -1.30433,16.95718 -7.392341,16.95718 -2.84383,0 -3.99962,-0.76154 -4.55307,-3 z m 37.403411,-42.60137 c 1.94332,-1.94332 -2.66852,-16.22499 -6.85906,-21.24074 l -4.31078,-5.15966 -4.69895,5.48967 c -4.23853,4.95177 -8.84369,15.01148 -8.84369,19.31852 0,0.9156 1.05,1.94235 2.33333,2.28167 3.35,0.88576 21.35875,0.33094 22.37915,-0.68946 z m 41.23876,-5.73196 c -0.0388,-5.3078 -0.98567,-8.09348 -4.6453,-13.66667 -2.5281,-3.85 -5.31258,-7 -6.18774,-7 -1.48891,0 -5.3409,7.15732 -10.31324,19.16284 -3.66939,8.85958 -3.52763,8.98686 9.52837,8.55574 l 11.66667,-0.38524 -0.0488,-6.66667 z M 58.442829,96.538622 c -2.88658,-1.61541 -2.93568,-5.992541 -0.14203,-12.661192 2.67026,-6.37409 1.88216,-23.296553 -1.37862,-29.602192 -2.04379,-3.952266 -2.01882,-4.326025 0.45423,-6.799073 2.92412,-2.924127 6.07243,-2.481609 15.46619,2.173883 2.91246,1.443394 8.89537,3.666036 13.29537,4.939204 4.4,1.273169 10.1,3.16385 12.66667,4.201516 13.379261,5.409034 39.437381,8.478313 74.074891,8.724974 l 30.14135,0.214642 1.42124,3.119289 c 1.0514,2.307577 0.98868,3.640504 -0.24106,5.122244 -1.4014,1.688581 -5.56532,1.916185 -26.52937,1.450123 -28.03129,-0.623179 -58.28086,1.844777 -75.53372,6.16253 -5.866671,1.468211 -12.766661,2.9701 -15.333331,3.337532 -3.66871,0.525196 -13.70949,4.704828 -25.36181,10.55725 -0.38233,0.19202 -1.73233,-0.23131 -3,-0.94073 z"
       id="path199" />
  </g>
</svg>
