<?xml version="1.0" encoding="UTF-8" standalone="no"?>
<!-- Created with Inkscape (http://www.inkscape.org/) -->

<svg
   version="1.1"
   id="svg45"
   width="66.666664"
   height="229.33333"
   viewBox="0 0 66.666664 229.33333"
   xmlns="http://www.w3.org/2000/svg"
   xmlns:svg="http://www.w3.org/2000/svg">
  <defs
     id="defs49" />
  <g
     id="g51">
    <path
       style="fill:#000000;stroke-width:1.33333"
       d="m 44.00921,218.39461 c -0.985413,-0.98542 -1.227499,-7.57619 -0.748403,-20.37527 0.961518,-25.68703 -0.889541,-28.99645 -21.374597,-38.21472 -9.27192,-4.17237 -10.176509,-4.93191 -11.015846,-9.24955 -1.7851113,-9.18277 0.868234,-47.29192 6.68658,-96.037222 1.094154,-9.166666 2.00125,-20.443939 2.01577,-25.060606 0.02237,-7.114311 0.525316,-8.892855 3.299126,-11.666667 4.3604,-4.360399 8.376396,-4.124969 15.196902,0.890887 3.947841,2.903276 7.091848,7.003639 10.386442,13.545828 6.308662,12.527328 6.929648,20.139726 7.194836,88.19826 0.117347,30.11743 0.603906,63.65127 1.081229,74.51964 0.477326,10.86839 0.437198,20.91839 -0.08917,22.33334 -0.716952,1.92728 -2.238838,2.57265 -6.066666,2.57265 -2.810297,0 -5.765088,-0.65545 -6.566201,-1.45657 z m -0.884764,-67.54343 c 0.538725,-2.75 1.008903,-26.9 1.044839,-53.666666 0.06378,-47.507931 -0.0064,-48.844888 -2.947026,-56.15197 -1.656799,-4.116917 -4.253981,-8.608951 -5.771513,-9.982299 -2.66011,-2.407367 -2.822628,-2.410184 -4.527601,-0.07849 -0.972649,1.330178 -2.129341,7.622212 -2.570429,13.9823 -0.441087,6.360088 -1.435969,15.763797 -2.210849,20.89713 -0.774879,5.133334 -1.924799,17.733333 -2.555376,28 -0.630579,10.266665 -1.905393,25.100585 -2.832923,32.964275 -1.685096,14.2864 -1.683937,14.30024 1.47865,17.66667 1.740786,1.85297 3.763233,3.36905 4.494326,3.36905 0.731093,0 2.430637,0.99673 3.776763,2.21496 3.02359,2.73631 7.893053,5.47995 10.035388,5.65431 0.883438,0.0719 2.047024,-2.11927 2.585751,-4.86927 z"
       id="path153" />
  </g>
</svg>
