<?xml version="1.0" encoding="UTF-8" standalone="no"?>
<!-- Created with Inkscape (http://www.inkscape.org/) -->

<svg
   version="1.1"
   id="svg203"
   width="232"
   height="204"
   viewBox="0 0 232 204"
   xmlns="http://www.w3.org/2000/svg"
   xmlns:svg="http://www.w3.org/2000/svg">
  <defs
     id="defs207" />
  <g
     id="g209">
    <path
       style="fill:#000000;stroke-width:1.33333"
       d="m 108.41675,198.95245 c -3.20334,-2.03686 -3.9802,-8.09506 -3.71266,-28.95245 0.15051,-11.73333 0.35366,-21.68703 0.45145,-22.11931 0.28261,-1.24932 6.72307,-3.88069 9.49826,-3.88069 5.24099,0 6.01287,3.74937 6.01287,29.20743 0,20.07486 -0.34214,24.43446 -2,25.48473 -2.39636,1.51809 -8.04615,1.66157 -10.24992,0.26029 z M 7.8610047,196.49919 C 6.5068245,194.86751 6.0854672,189.04537 6.1564564,172.94652 6.2471139,152.38728 6.3674841,151.46683 9.2730899,149.114 12.570878,146.44361 16.865389,145.98796 20,147.97585 c 1.675761,1.06272 1.925315,4.77435 1.539315,22.89442 -0.547931,25.72162 -1.09603,27.7964 -7.343054,27.7964 -2.56155,0 -5.3195102,-0.94358 -6.3352563,-2.16748 z M 204.79444,193 c -2.84663,-4.41635 -2.37652,-47.18692 0.53889,-49.02889 3.08256,-1.94758 8.9113,-1.53602 11.24103,0.79372 3.63313,3.63314 2.36216,45.4415 -1.4988,49.30246 -2.90364,2.90364 -8.06709,2.36762 -10.28112,-1.06729 z M 94.117692,67.006581 C 93.907188,66.796076 81.534133,66.587615 66.622015,66.543332 40.933921,66.467049 39.189143,66.299388 33.421204,63.35296 23.099505,58.080344 16.297632,44.338319 17.782612,31.757856 c 1.038373,-8.796889 5.22928,-16.214561 12.144136,-21.494447 7.822905,-5.9732323 9.187057,-6.0533663 98.739922,-5.8002481 71.99929,0.2035038 72.00006,0.2035358 78.61794,3.2544324 8.83254,4.0718607 10.90799,6.1460187 15.60628,15.5965177 3.52564,7.091756 3.88172,8.865752 3.07874,15.338625 -1.51344,12.200013 -7.34314,21.208251 -16.93486,26.16832 -3.60384,1.86362 -11.47454,2.176411 -59.34461,2.35842 -30.35436,0.115413 -55.361964,0.03761 -55.572468,-0.172895 z m 95.107538,-9.578222 c 1.61438,-1.021819 1.54846,-2.096764 -0.44942,-7.328132 -2.71009,-7.096263 -4.98472,-8.655822 -12.98045,-8.89982 -15.51132,-0.473347 -102.829305,0.326909 -110.183852,1.009817 -8.104497,0.752545 -8.476904,0.952219 -11,5.897895 -5.036985,9.873309 -9.81862,9.162938 61.563512,9.146014 35.29626,-0.0084 64.49626,0.30603 64.88889,0.69866 1.11709,1.11709 6.07077,0.798774 8.16132,-0.524434 z M 43.213909,50.333333 C 46.405101,45.403709 46.843265,35.890913 44.217217,28.550935 42.029035,22.434817 41.570051,22 37.302176,22 c -3.935529,0 -4.730755,0.556309 -5.717869,4 -0.630619,2.2 -1.739402,5.965203 -2.463963,8.367117 -3.603425,11.94532 8.107849,25.212706 14.093565,15.966216 z M 209.91085,49.431837 c 1.40695,-1.55466 2.60562,-5.67208 3.03735,-10.433328 0.62536,-6.896534 0.28041,-8.550725 -2.80089,-13.431837 -4.567,-7.234583 -7.8318,-7.297728 -10.6692,-0.206357 -3.11507,7.78532 -2.82167,18.75286 0.61866,23.12654 3.27224,4.159982 6.6134,4.481697 9.81408,0.944982 z M 184.55717,29.308661 c 1.14124,-1.140464 4.71135,-10.266188 4.75608,-12.157269 0.0656,-2.773275 -54.27165,-4.241573 -86.21317,-2.329648 -9.661627,0.578316 -24.661627,0.553513 -33.333336,-0.05512 -8.671709,-0.608631 -16.316843,-0.600008 -16.989185,0.01916 -1.341508,1.235411 2.404221,10.979103 5.751122,14.960285 1.921748,2.285946 5.254422,2.369984 63.416499,1.599162 34.23191,-0.453676 61.92954,-1.354594 62.61199,-2.036574 z"
       id="path380" />
  </g>
</svg>
