<?xml version="1.0" encoding="UTF-8" standalone="no"?>
<!-- Created with Inkscape (http://www.inkscape.org/) -->

<svg
   version="1.1"
   id="svg193"
   width="220"
   height="70.666664"
   viewBox="0 0 220 70.666664"
   xmlns="http://www.w3.org/2000/svg"
   xmlns:svg="http://www.w3.org/2000/svg">
  <defs
     id="defs197" />
  <g
     id="g199">
    <path
       style="fill:#000000;stroke-width:1.33333"
       d="M 9,62.451868 C 2.7144935,60.153499 3.8064097,55.649915 15.868184,34.124196 22.557569,22.186167 31.949451,12.458609 38.391085,10.7963 41.109321,10.094841 63.433333,9.2028377 88,8.8140717 c 24.56667,-0.388766 61.88956,-1.1269348 82.93977,-1.640375 40.99302,-0.9998701 42.39356,-0.8184007 42.39356,5.4929693 0,6.812643 -0.79622,6.876792 -92.66666,7.465916 -66.70665,0.427759 -77.800955,1.229569 -84.163743,6.082704 -4.676346,3.566822 -13.83626,18.277475 -13.83626,22.220776 0,1.226977 1.4926,2.554416 3.414672,3.036825 1.87807,0.471366 29.92807,0.41732 62.333333,-0.120093 95.188608,-1.578643 124.125158,-1.644711 125.918658,-0.287499 2.23068,1.688043 2.11876,6.899652 -0.18932,8.815187 -1.342,1.113769 -25.06558,1.713648 -85.66666,2.166184 C 82.381473,62.390879 37.466667,62.924539 28.666667,63.232571 19.705097,63.546258 11.053693,63.202826 9,62.451868 Z"
       id="path519" />
  </g>
</svg>
