<?xml version="1.0" encoding="UTF-8" standalone="no"?>
<!-- Created with Inkscape (http://www.inkscape.org/) -->

<svg
   version="1.1"
   id="svg83"
   width="210.66667"
   height="217.33333"
   viewBox="0 0 210.66667 217.33333"
   xmlns="http://www.w3.org/2000/svg"
   xmlns:svg="http://www.w3.org/2000/svg">
  <defs
     id="defs87" />
  <g
     id="g89">
    <path
       style="fill:#000000;stroke-width:1.33333"
       d="m 100.06414,206.78652 c -0.831653,-1.55396 -1.499678,-20.39638 -1.713577,-48.33334 l -0.350561,-45.78652 5.333328,-0.34788 c 2.93334,-0.19133 6.05761,0.12818 6.94282,0.71002 1.62092,1.06541 2.22383,9.21084 3.67415,49.63786 0.38147,10.63334 1.05459,24.4846 1.49582,30.78058 0.67402,9.61749 0.44749,11.80201 -1.41717,13.66666 -3.18334,3.18335 -12.19904,2.97198 -13.96481,-0.32738 z M 30,69.840084 C 22.463047,68.071856 14.743779,64.484522 9.6666668,60.390683 4.9988065,56.626836 4.0000001,55.019132 4.0000001,51.269469 c 0,-3.781564 0.582447,-4.698183 3.441306,-5.415711 2.8099749,-0.705259 4.4610869,0.116133 9.0000009,4.47732 4.045643,3.887229 7.101133,5.57141 11.22536,6.187401 6.005946,0.897041 7.067432,0.133093 3.470055,-2.497368 -3.83057,-2.80098 -1.316088,-8.32412 4.540339,-9.973001 10.668681,-3.003776 14.641006,-3.044085 23.862995,-0.242156 8.640445,2.62524 11.470453,2.742572 53.126614,2.202647 24.2,-0.313667 47.43752,-0.593922 51.63895,-0.622787 l 7.63894,-0.05248 L 171.22055,29 C 170.22355,6.5083347 170.46531,6.1191592 185.74819,5.6140842 l 11.67728,-0.3859157 1.95393,4.6764241 c 2.78944,6.6760574 2.81223,45.0565634 0.0281,47.3671584 -2.1746,1.804759 -91.55438,2.778531 -117.407539,1.279128 -13.927443,-0.807748 -14.834672,-0.700073 -18,2.136335 -1.833333,1.642825 -4.833333,3.765317 -6.666667,4.71665 C 51.075067,68.651332 35.622825,71.159243 30,69.840084 Z m 13.246534,-12.47375 c 4.032571,-1.53318 4.538487,-4.033001 0.816204,-4.033001 -3.295265,0 -9.396071,2.736134 -9.396071,4.214019 0,1.507704 4.381319,1.415267 8.579867,-0.181018 z M 190.2252,45.634387 c 1.10622,-0.703702 1.34018,-4.954412 0.80612,-14.646249 -0.63857,-11.588718 -1.09066,-13.654805 -2.98786,-13.654805 -1.81532,0 -2.56764,2.41952 -4.00299,12.873936 -1.66229,12.107426 -1.62156,12.980674 0.68417,14.666666 2.80579,2.05164 3.35211,2.127168 5.50056,0.760452 z"
       id="path936" />
  </g>
</svg>
