<?xml version="1.0" encoding="UTF-8" standalone="no"?>
<!-- Created with Inkscape (http://www.inkscape.org/) -->

<svg
   version="1.1"
   id="svg263"
   width="148"
   height="150.66667"
   viewBox="0 0 148 150.66667"
   xmlns="http://www.w3.org/2000/svg"
   xmlns:svg="http://www.w3.org/2000/svg">
  <defs
     id="defs267" />
  <g
     id="g269">
    <path
       style="fill:#000000;stroke-width:1.33333"
       d="M 117.99801,141.24835 C 96.459417,130.2334 80.217308,110.64765 62.355723,74.151386 58.807475,66.901313 54.222724,58.501313 52.167389,55.484719 50.112053,52.468124 46.694379,47.300001 44.572557,44.000001 38.605196,34.719163 27.005433,23.202878 21.224719,20.820187 18.351123,19.635751 13.536336,17.646834 10.525192,16.400372 4.5846143,13.941271 2.2314855,10.096784 4.278594,6.1948252 6.5066019,1.9480574 21.915097,5.0846478 33.333333,12.109278 c 1.1,0.676733 3.5,1.828632 5.333334,2.559774 C 40.5,15.400195 42.9,16.592479 44,17.318572 c 1.1,0.726092 4.110877,2.467671 6.690839,3.870174 7.552714,4.105763 25.36829,23.948518 32.532389,36.23415 9.935477,17.038236 15.341055,24.738791 24.009302,34.202619 C 114.79602,99.883197 131.10711,112 134.65972,112 c 0.93071,0 3.71301,1.24894 6.18291,2.77541 5.71538,3.53232 5.70444,6.06528 -0.0777,17.9845 -7.1596,14.75848 -9.09522,15.48016 -22.76682,8.48844 z m 13.93826,-11.18051 c 1.68726,-1.79602 2.74584,-4.10442 2.35237,-5.12979 -0.39347,-1.02536 -4.21938,-3.27029 -8.50202,-4.98873 -4.28264,-1.71844 -9.28662,-4.11617 -11.11995,-5.32829 -1.83334,-1.21212 -5.82865,-3.84142 -8.87847,-5.84289 -3.04982,-2.00146 -6.254644,-5.35195 -7.121831,-7.44552 C 97.799183,99.239044 95.944492,96.489751 94.544833,95.223078 93.145175,93.956405 92,92.388733 92,91.739362 92,91.089991 90.883799,88.932985 89.519553,86.946011 88.155308,84.959039 84.527392,79.051063 81.457516,73.817175 78.38764,68.583287 74.703841,63.240293 73.271296,61.943857 c -1.432547,-1.296436 -2.607609,-3.014164 -2.611252,-3.817173 -0.0084,-1.853589 -6.554451,-9.923594 -6.592019,-8.126683 -0.05251,2.511668 3.317807,10.666388 6.888275,16.666667 1.963667,3.3 4.553116,8.4 5.754333,11.333334 1.201216,2.933333 6.728488,12.135709 12.282824,20.449724 7.852784,11.754444 12.023193,16.573194 18.751513,21.666664 4.75899,3.60266 9.69423,6.55028 10.96719,6.55028 1.27297,0 3.29732,1.5 4.49856,3.33333 2.74442,4.18851 4.83908,4.2048 8.72555,0.0678 z"
       id="path291" />
  </g>
</svg>
