<?xml version="1.0" encoding="UTF-8" standalone="no"?>
<!-- Created with Inkscape (http://www.inkscape.org/) -->

<svg
   version="1.1"
   id="svg253"
   width="217.33333"
   height="210.66667"
   viewBox="0 0 217.33333 210.66667"
   xmlns="http://www.w3.org/2000/svg"
   xmlns:svg="http://www.w3.org/2000/svg">
  <defs
     id="defs257" />
  <g
     id="g259">
    <path
       style="fill:#000000;stroke-width:1.33333"
       d="m 175.14576,204.71883 c -2.25632,-1.58039 -2.63779,-3.64219 -2.88679,-15.60325 -0.1578,-7.58023 -0.60992,-22.31346 -1.00473,-32.7405 l -0.71782,-18.95825 3.29299,-0.82649 c 1.81115,-0.45456 4.39045,-0.6156 5.7318,-0.35786 2.27388,0.43695 2.46408,2.73938 2.81284,34.04938 0.35296,31.6868 0.23299,33.65622 -2.12719,34.91936 -1.79002,0.95798 -3.24052,0.82082 -5.1011,-0.48239 z M 146.20229,203.615 c -1.84047,-1.37222 -2.27311,-5.9231 -2.87796,-30.27344 -0.7548,-30.38686 -0.0997,-35.15925 5.0508,-36.79396 5.18363,-1.64521 5.64477,1.39354 5.24465,34.55978 -0.34902,28.93114 -0.57993,31.62253 -2.81581,32.81913 -1.67325,0.89551 -3.11359,0.798 -4.60168,-0.31151 z m 59.46899,0.0516 c -0.72704,-0.91666 -1.69343,-10.06666 -2.14752,-20.33333 -0.4541,-10.26667 -1.21264,-24.68393 -1.68566,-32.03837 l -0.86004,-13.37172 3.57371,-1.62828 c 4.91908,-2.2413 5.46875,-2.10698 7.2342,1.76777 2.19957,4.82753 2.15257,63.46539 -0.0527,65.6706 -2.06162,2.06163 -4.39436,2.03597 -6.06205,-0.0667 z M 13.333333,196.34582 c -6.1840802,-2.01776 -6.6627739,-7.66938 -1.828519,-21.58812 2.805895,-8.07871 4.964291,-11.59275 10.82354,-17.62155 6.051024,-6.22615 8.868658,-8.01969 16.266813,-10.35459 8.539746,-2.69518 9.425506,-2.73272 19.409864,-0.8224 6.779811,1.2972 12.325852,3.29348 15.758273,5.67215 8.209436,5.68915 16.822587,16.31077 19.766472,24.37577 4.083391,11.18676 4.322662,13.74763 1.579981,16.91011 -2.356313,2.71697 -3.816536,2.83948 -41.109758,3.44911 -21.266666,0.34764 -39.566666,0.33842 -40.666666,-0.0205 z m 56.992693,-12.7042 c 1.402838,-1.26956 3.263077,-2.30828 4.133865,-2.30828 0.870788,0 2.585289,-2.1013 3.810002,-4.66955 2.156131,-4.52145 2.134304,-4.75568 -0.688237,-7.38528 -1.603245,-1.49364 -2.91499,-3.28371 -2.91499,-3.97792 0,-1.83967 -15.162386,-9.19956 -19.57247,-9.50057 -6.084933,-0.41532 -19.818614,4.91981 -23.222524,9.02128 -0.922599,1.11166 -3.258174,2.83862 -5.190167,3.83769 -2.659696,1.37539 -3.898509,3.48785 -5.101412,8.69912 -0.873784,3.78544 -1.344009,7.27845 -1.044945,7.76225 0.299064,0.4838 11.050466,0.86836 23.892007,0.85459 20.246217,-0.0217 23.687129,-0.33173 25.898871,-2.33333 z M 201.33333,102.21141 C 179.58705,90.650015 172.0112,85.665205 158.52648,74.04508 c -12.0702,-10.401179 -12.5079,-10.640474 -21.0929,-11.531719 -9.47872,-0.984027 -13.85589,0.309092 -13.16634,3.889651 0.27398,1.422613 2.27333,2.523014 5.55265,3.056053 4.84636,0.787752 7.50676,2.886852 7.44507,5.87427 -0.0984,4.762577 -11.66827,12.579817 -18.71761,12.646592 -2.25379,0.02135 -5.21402,-5.182747 -5.21402,-9.166284 0,-1.31682 -1.38076,-5.005279 -3.06836,-8.196577 -3.00208,-5.677028 -3.21088,-5.800594 -9.66666,-5.720768 -16.003065,0.19788 -16.263006,0.252894 -17.108281,3.620734 -0.79979,3.186622 -8.773014,7.482969 -13.887003,7.482969 -3.461411,0 -8.269694,3.800035 -8.269694,6.535622 0,5.955064 -10.559959,9.31314 -13.283498,4.224162 -0.757527,-1.415452 -2.728637,-2.765452 -4.380244,-3 -4.347999,-0.617466 -4.410903,-5.054877 -0.163619,-11.542064 3.717946,-5.678689 6.495208,-6.714613 11.220991,-4.185451 3.480324,1.862612 9.517858,0.223672 9.004066,-2.44423 -0.24865,-1.29114 -3.15256,-2.786163 -7.600878,-3.913166 -7.117563,-1.80327 -7.272193,-1.777965 -13.752919,2.250675 -7.121229,4.4268 -13.099775,5.220261 -15.702623,2.084021 C 25.766057,64.914833 22.683576,63.38928 19.82465,62.61945 12.286265,60.589574 5.3333333,56.123229 5.3333333,53.310684 c 0,-4.579473 1.6587653,-6.714067 11.2774757,-14.512503 14.413043,-11.685475 14.398227,-11.680863 20.354169,-6.336594 6.51304,5.844152 9.918507,6.827276 15.333889,4.426742 2.402289,-1.064888 5.417799,-2.281568 6.701132,-2.703732 1.283333,-0.422163 2.333333,-1.686402 2.333333,-2.809417 0,-2.670356 -5.793381,-2.70066 -7.999999,-0.04185 -2.183347,2.630772 -7.866699,2.565477 -8.890359,-0.102134 -0.443667,-1.156176 -2.224836,-2.641326 -3.958155,-3.300332 -2.460793,-0.935597 -3.151486,-2.192417 -3.151486,-5.734606 0,-2.495026 0.9,-5.283343 2,-6.196262 1.1,-0.912918 2,-2.722192 2,-4.020608 0,-5.1797922 8.439737,-5.2999995 15.466615,-0.220291 5.718258,4.13371 12.63958,6.907566 17.235756,6.907566 3.530241,0 6.786435,3.491021 6.243796,6.694081 -0.275745,1.627652 0.826353,2.52709 3.833411,3.128502 6.621376,1.324274 17.110399,0.990157 20.308079,-0.646894 5.82184,-2.980498 12.91234,-10.956425 12.91234,-14.52478 0,-6.2472159 2.50639,-7.9665032 12.33333,-8.4602125 4.95,-0.2486897 9,-0.3848629 9,-0.3026073 0,0.082256 1.10602,3.1754731 2.4578,6.8738168 1.73867,4.756797 2.10936,7.666195 1.26692,9.943537 -1.59956,4.324006 -3.36552,5.250026 -10.05805,5.27414 -8.49305,0.0306 -7.20429,2.777297 4.96623,10.584357 11.12788,7.138239 24.7373,19.955622 33.64228,31.684358 8.24241,10.856079 19.02293,17.886199 30.01478,19.573043 9.10667,1.397537 12.37671,3.418847 12.37671,7.650408 0,2.322706 -1.10828,4.486648 -2.96335,5.785988 -3.60469,2.52482 -4.75853,2.56147 -9.03665,0.28701 z M 37.090174,54.000001 c 2.178792,-1.833334 4.774828,-3.360446 5.768967,-3.393583 3.020734,-0.100693 -9.962767,-6.481492 -13.319981,-6.546168 -3.794074,-0.07309 -10.872494,4.721081 -10.872494,7.363876 0,1.050064 1.05,1.93047 2.333334,1.956455 1.283333,0.02599 3.833333,0.904725 5.666666,1.952753 4.622416,2.642412 5.891534,2.480072 10.423508,-1.333333 z M 99.36831,53.382134 c 5.84743,-0.706493 14.83169,-1.639111 19.96502,-2.072483 5.13333,-0.433373 9.85105,-1.303053 10.48383,-1.932624 1.49053,-1.482998 -0.10269,-4.043693 -2.51592,-4.043693 -1.03109,0 -4.63525,-0.937225 -8.00923,-2.082723 -8.88094,-3.015157 -42.596197,-2.933449 -52.625344,0.127538 -4.033334,1.231009 -9.283334,2.540165 -11.666667,2.909233 -5.1547,0.798227 -5.76325,3.969593 -0.991532,5.167219 1.837991,0.461306 10.387991,1.283125 19,1.826263 8.612009,0.543138 15.673938,1.077137 15.693177,1.186664 0.01924,0.10952 4.819239,-0.3789 10.666666,-1.085394 z"
       id="path430" />
  </g>
</svg>
