<?xml version="1.0" encoding="UTF-8" standalone="no"?>
<!-- Created with Inkscape (http://www.inkscape.org/) -->

<svg
   version="1.1"
   id="svg243"
   width="50.666668"
   height="213.33333"
   viewBox="0 0 50.666668 213.33333"
   xmlns="http://www.w3.org/2000/svg"
   xmlns:svg="http://www.w3.org/2000/svg">
  <defs
     id="defs247" />
  <g
     id="g249">
    <path
       style="fill:#000000;stroke-width:1.33333"
       d="m 23.311986,206.41166 c -4.246575,-3.34036 -7.776708,-10.27832 -10.046538,-19.745 -0.967073,-4.03333 -2.538937,-8.93713 -3.4930305,-10.89733 -2.5587745,-5.25704 -3.6579193,-20.84735 -1.921392,-27.25309 0.8176231,-3.01607 2.9856245,-7.69271 4.8177815,-10.39255 3.031216,-4.46675 3.324264,-6.13415 3.254244,-18.51624 -0.04232,-7.4841 -0.650596,-20.507452 -1.351719,-28.940785 C 13.145155,73.512143 12.701751,65.618726 11.274007,31.968169 L 10.282658,8.603006 13.870734,6.9681696 c 3.693288,-1.6827749 21.600164,-2.2658273 25.353551,-0.825518 2.505147,0.9613155 2.798575,10.0858694 0.854081,26.5589934 -1.048745,8.884645 -2.56528,40.930194 -3.437246,72.631685 -0.110934,4.03333 -0.676907,11.5776 -1.257708,16.76503 -1.048163,9.3617 -1.019842,9.48616 3.815769,16.76912 5.868832,8.8391 7.009614,16.06541 4.914735,31.13252 -1.535912,11.04682 -7.139639,29.86276 -10.382155,34.86073 -2.646874,4.07985 -6.479534,4.65032 -10.419775,1.55093 z M 21.333334,162 c 0,-2.56667 -0.6,-4.66667 -1.333333,-4.66667 -0.733334,0 -1.333334,2.1 -1.333334,4.66667 0,2.56666 0.6,4.66666 1.333334,4.66666 0.733333,0 1.333333,-2.1 1.333333,-4.66666 z m 5.74832,-109.666667 c 1.139905,-4.472571 0.992951,-12.333334 -0.230568,-12.333334 -1.796924,0 -2.851085,3.49123 -2.851085,9.442383 0,5.296148 1.992302,7.165161 3.081653,2.890951 z m -0.414987,-23 C 26.666667,24 26.095239,20 25.333334,20 c -0.761905,0 -1.333333,4 -1.333333,9.333333 0,5.333333 0.571428,9.333333 1.333333,9.333333 0.761905,0 1.333333,-4 1.333333,-9.333333 z"
       id="path569" />
  </g>
</svg>
