<?xml version="1.0" encoding="UTF-8" standalone="no"?>
<!-- Created with Inkscape (http://www.inkscape.org/) -->

<svg
   version="1.1"
   id="svg233"
   width="144"
   height="212"
   viewBox="0 0 144 212"
   xmlns="http://www.w3.org/2000/svg"
   xmlns:svg="http://www.w3.org/2000/svg">
  <defs
     id="defs237" />
  <g
     id="g239">
    <path
       style="fill:#000000;stroke-width:1.33333"
       d="m 23.171584,206.30711 c -3.022296,-0.90224 -6.472296,-2.46391 -7.666667,-3.47036 -4.666225,-3.9321 -1.241636,-16.07162 6.923863,-24.54379 l 4.857916,-5.04036 -4.26756,-12.36417 c -2.347157,-6.80031 -4.647547,-15.63214 -5.111976,-19.62631 -0.722321,-6.21208 -0.425284,-7.79229 2.054319,-10.92879 5.55514,-7.0268 18.313278,-3.89239 30.705188,7.54363 7.203933,6.64824 15.189818,12.78971 16.630725,12.78971 1.958973,0 -0.885836,-29.95626 -4.115169,-43.33334 C 61.411897,100 59.649544,92.607376 59.265883,90.905281 c -1.000232,-4.437474 -3.046958,-3.108596 -7.144666,4.638816 -1.972261,3.728899 -6.162241,9.856933 -9.311065,13.617863 -8.104788,9.68028 -10.219451,9.29695 -17.572367,-3.18535 C 21.990337,100.46374 17.120405,92.213744 14.415716,87.643276 3.7524757,69.624203 3.6556192,69.383693 5.3829549,65.213536 c 0.8721854,-2.105641 1.2033024,-5.352397 0.7358156,-7.215013 -1.2317726,-4.907774 1.2491912,-8.66519 5.7214915,-8.66519 6.608941,0 11.515222,8.284372 12.649773,21.359442 0.532458,6.136301 1.961704,10.898588 4.897728,16.319377 2.280224,4.209983 4.572722,7.654515 5.094442,7.654515 1.238527,0 10.851128,-12.880062 10.851128,-14.53958 0,-0.701532 1.347406,-3.304812 2.994234,-5.78507 3.290061,-4.955094 10.26007,-9.744642 20.000769,-13.743826 C 75.268208,57.748925 76.447968,56 71.430107,56 66.460047,56 63.000345,50.467205 61.973269,40.87652 61.304808,34.634519 61.613421,31.244005 63.194476,27.460009 66.145353,20.397567 79.672173,7.736164 86.477413,5.6666667 93.876196,3.4166705 103.2925,3.565656 108.01436,6.0074259 c 4.04963,2.0941477 10.65231,11.9058251 10.65231,15.8295021 0,6.894692 -12.68883,23.086305 -21.691007,27.678875 -7.605363,3.879966 -6.330814,6.929634 3.331017,7.970257 4.18428,0.450667 10.83893,2.4542 14.7881,4.452297 12.5455,6.347446 22.51179,23.263912 25.26493,42.883903 2.4133,17.19821 -0.8312,20.98916 -14.90658,17.4171 -4.48052,-1.13706 -10.24041,-1.72758 -12.79976,-1.31225 L 108,121.68225 l 0.0194,12.82554 c 0.0127,8.34145 0.76706,14.92328 2.15787,18.82554 1.40585,3.94446 2.26869,11.60994 2.51857,22.37499 0.40455,17.42817 0.93219,18.99661 7.54038,22.41384 4.32822,2.2382 4.86688,5.19365 1.29501,7.10527 -3.95555,2.11693 -91.660193,3.07966 -98.35965,1.07968 z m 57.495083,-10.83143 c 18.649045,-0.92276 21.462233,-3.81081 20.130063,-20.66579 -2.779442,-35.1663 -5.991322,-53.9069 -9.855959,-57.50736 C 89.323347,115.79567 88,113.38616 88,111.94806 c 0,-1.90608 -0.911149,-2.61473 -3.361919,-2.61473 -2.332388,0 -3.848869,-1.06874 -4.952052,-3.48996 -1.410984,-3.09677 -1.225733,-3.78504 1.644298,-6.109046 2.530625,-2.049177 4.420512,-2.44122 8.685224,-1.801687 5.277008,0.791336 5.528373,0.656655 7.884037,-4.224286 2.054643,-4.257222 8.767082,-22.588118 8.767082,-23.941887 0,-1.126949 -30.618586,-0.246499 -35.14607,1.010641 -5.757407,1.598651 -5.616113,-0.11655 -1.473693,17.889562 3.715717,16.151333 4.35378,18.516973 6.653114,24.666663 1.610682,4.30786 2.054548,8.44422 1.573856,14.66667 -0.368229,4.76667 -0.13052,13.16667 0.528235,18.66667 1.693232,14.13685 1.45332,19.07865 -1.016605,20.94034 -2.032574,1.53206 -4.722012,2.44935 -28.875054,9.84846 -12.580545,3.85396 -19.57712,9.06176 -19.57712,14.57192 0,3.66454 0.308083,3.8578 7,4.39085 6.29572,0.50151 21.81826,0.17148 44.333334,-0.94256 z M 51.192887,165.27976 C 56.036799,163.78363 60,161.80133 60,160.87465 c 0,-1.83852 -5.194151,-6.93574 -14.891063,-14.6132 -4.235465,-3.3534 -7.584772,-4.92812 -10.481721,-4.92812 -4.167083,0 -4.238209,0.10187 -3.355496,4.80716 0.496007,2.64395 2.086889,8.64395 3.535295,13.33334 3.034408,9.82426 3.193498,9.88064 16.385872,5.80593 z m 73.873783,-56.21309 c 2.91304,-2.91305 1.65516,-11.982083 -2.8179,-20.316439 -2.33682,-4.35404 -4.84877,-8.09071 -5.5821,-8.303711 -1.69937,-0.493589 -7.44673,11.893152 -8.76336,18.886813 -1.16879,6.208357 0.007,8.167407 5.93104,9.885077 5.96311,1.7289 9.39808,1.68249 11.23232,-0.15174 z M 89.944601,41.936923 c 2.419106,-1.14794 5.752727,-3.528808 7.40805,-5.290818 3.885819,-4.136261 7.211259,-16.360065 5.132209,-18.86517 -3.590372,-4.326132 -17.790971,-0.211094 -24.590623,7.125853 -4.382309,4.728591 -5.676024,14.317709 -2.417456,17.918387 2.731446,3.018213 6.756294,2.771108 14.46782,-0.888252 z"
       id="path708" />
  </g>
</svg>
