<?xml version="1.0" encoding="UTF-8" standalone="no"?>
<!-- Created with Inkscape (http://www.inkscape.org/) -->

<svg
   version="1.1"
   id="svg223"
   width="88"
   height="197.33333"
   viewBox="0 0 88 197.33333"
   xmlns="http://www.w3.org/2000/svg"
   xmlns:svg="http://www.w3.org/2000/svg">
  <defs
     id="defs227" />
  <g
     id="g229">
    <path
       style="fill:#000000;stroke-width:1.33333"
       d="m 39.970185,191.94429 c -0.801334,-1.49731 -1.748308,-10.64731 -2.104386,-20.33333 -0.356079,-9.68603 -1.221552,-24.61422 -1.923274,-33.17375 -1.626448,-19.83924 -1.650404,-19.20552 0.81938,-21.67531 3.052668,-3.05267 8.186123,-2.60651 10.410099,0.90476 1.836907,2.90016 2.090276,6.55686 4.156609,59.9893 0.398042,10.29278 0.08491,13.4067 -1.508384,15 -2.888608,2.88861 -8.125738,2.51022 -9.850044,-0.71167 z M 31.484752,94.536272 C 21.775039,92.958002 21.70838,87.625845 31.339865,82.946509 38.568389,79.43462 39.288599,75.746253 33.345891,72.673159 31.152796,71.539065 28.40486,69.155815 27.239365,67.377044 25.675989,64.991031 23.697152,64.036764 19.693436,63.738124 13.245919,63.2572 9.7215477,59.355854 7.7141889,50.477551 4.9808505,38.388327 6.9973699,30.408521 13.344855,28.195776 15.622336,27.401842 17.971771,25.057604 19.304295,22.249517 23.016972,14.42563 30.373747,6.873578 35.732472,5.3852714 48.289387,1.8977741 58.760631,5.1533083 67.718277,15.329733 c 3.088282,3.508472 5.615056,6.882372 5.615056,7.497555 0,0.615184 2.325999,2.30515 5.168887,3.755484 6.225659,3.176094 6.831113,4.544525 6.831113,15.439478 0,11.799692 -1.4361,14.876941 -7.734277,16.572864 -6.545557,1.762536 -16.150189,8.153604 -18.428888,12.262859 -3.073756,5.543015 -2.206383,7.576506 4.731256,11.092074 7.315683,3.707137 9.599251,7.787371 6.238964,11.147658 C 68.43174,94.806354 64.862433,95.242357 52.222564,95.28643 43.541288,95.3167 34.209273,94.979129 31.484752,94.536272 Z M 58.629437,58.401552 C 61.583247,53.855739 64,49.404811 64,48.510602 c 0,-0.894209 0.323643,-2.469236 0.719207,-3.500057 0.562848,-1.466759 -0.764612,-1.852806 -6.105982,-1.775716 -5.290876,0.07636 -7.250964,-0.48332 -8.719205,-2.48967 -3.985376,-5.446004 -0.522187,-10.078493 7.534552,-10.078493 4.11804,0 5.227841,-0.498933 5.190144,-2.333333 C 62.500441,22.577918 51.743671,14.666666 44.036423,14.666666 38.260228,14.666666 28,24.159162 28,29.503146 c 0,4.264384 0.338684,4.456331 4.208625,2.3852 4.747414,-2.540737 13.124708,2.580855 13.124708,8.023999 0,0.781542 -1.27082,2.691808 -2.824045,4.245033 -3.320917,3.320917 -2.118729,4.557015 5.720015,5.881361 5.548578,0.937427 8.458032,3.580249 7.290618,6.622483 -0.752708,1.961524 -1.900012,2.581786 -11.169642,6.0386 -5.699426,2.12542 -4.295435,3.966844 3.024514,3.966844 5.74615,0 6.009976,-0.193748 11.254644,-8.265114 z M 19.070428,48.684926 C 19.215027,47.961635 18.283333,47.167641 17,46.920494 c -1.459471,-0.281068 -2.333333,0.372895 -2.333333,1.746172 0,2.319718 3.940394,2.336057 4.403761,0.01825 z m 17.262905,0.125679 C 39.782915,46.191999 39.206728,45.333333 34,45.333333 c -3,0 -4.666667,0.63492 -4.666667,1.777777 0,3.80678 3.200414,4.583792 7,1.699495 z"
       id="path847" />
  </g>
</svg>
