<?xml version="1.0" encoding="UTF-8" standalone="no"?>
<!-- Created with Inkscape (http://www.inkscape.org/) -->

<svg
   version="1.1"
   id="svg45"
   width="209.33333"
   height="224"
   viewBox="0 0 209.33333 224"
   xmlns="http://www.w3.org/2000/svg"
   xmlns:svg="http://www.w3.org/2000/svg">
  <defs
     id="defs49" />
  <g
     id="g51">
    <path
       style="fill:#000000;stroke-width:1.33333"
       d="m 38.758606,211.02492 c -2.978227,-2.42604 -3.103632,-2.973 -1.544591,-6.73687 2.181127,-5.2657 3.269436,-5.638 20.700431,-7.08137 17.041995,-1.41117 18.864163,-2.5228 24.926479,-15.20668 4.486436,-9.38675 4.781767,-13.47469 1.246024,-17.2474 -2.729749,-2.91269 -7.129258,-8.81832 -12.749509,-17.11415 -1.87358,-2.7655 -7.10316,-7.8655 -11.62129,-11.33333 C 47.405449,126.85624 32.708311,111.22239 28.883405,103.50726 25.729252,97.1451 24.840566,92.889015 25.192049,85.828667 c 0.125329,-2.517514 9.583726,-16.210018 19.357582,-28.023116 3.365086,-4.067186 7.450368,-12.327999 7.450368,-15.065322 0,-4.862696 -22.186055,-8.244036 -36.520627,-5.566048 -7.7512405,1.448088 -10.9546402,-0.437608 -9.6402009,-5.674752 1.1523429,-4.5913 8.0773669,-8.82137 14.4519059,-8.827778 4.284476,-0.0043 5.547959,-0.78794 9.303904,-5.770436 2.390389,-3.171 6.406021,-7.3709998 8.923628,-9.3333342 C 42.538578,4.4345396 44.295913,4 52.947584,4 c 15.090599,0 19.490044,3.2552951 23.625693,17.481429 1.983084,6.821567 1.949367,7.55668 -0.661773,14.428644 -2.630747,6.923564 -12.209318,20.41455 -23.824495,33.555726 -2.981188,3.372857 -5.420343,7.122857 -5.420343,8.333333 0,1.210477 0.15,2.229067 0.333333,2.263532 0.183334,0.03447 7.833333,0.575848 17,1.203073 20.195914,1.381898 36.966231,5.615808 55.333331,13.969707 9.41598,4.282664 15.17043,8.016316 28.48207,18.480006 5.39846,4.24349 12.03681,8.84872 14.75186,10.23384 7.29383,3.72103 28.24836,10.69655 32.16607,10.7077 3.96597,0.0107 6.6,2.23136 6.6,5.56277 0,2.41335 -3.23067,4.68776 -9.25547,6.51593 -3.23913,0.98288 -3.18956,1.04088 0.98274,1.14971 5.05836,0.132 11.37216,5.53675 10.68389,9.14576 -0.36951,1.93751 -2.65443,2.44043 -14.42511,3.17501 -7.69233,0.48007 -15.35945,1.30616 -17.03804,1.83578 -2.5596,0.80757 -3.29512,0.3188 -4.559,-3.0296 -1.43965,-3.81408 -1.9588,-4.0349 -11.61468,-4.94031 -5.55921,-0.52127 -14.90766,-1.22587 -20.77433,-1.56579 -6.26046,-0.36272 -13.24726,-1.69649 -16.91384,-3.2288 -3.43595,-1.43593 -7.35827,-2.61078 -8.71627,-2.61078 -2.12549,0 -21.183919,-9.1164 -25.036555,-11.97599 -2.243446,-1.66517 -8.666666,-2.81584 -8.666666,-1.55256 0,1.99051 11.792934,12.19521 14.093237,12.19521 1.184049,0 3.678371,1.2 5.542934,2.66667 1.864566,1.46667 4.221126,2.66667 5.2368,2.66667 1.01568,0 4.11973,1.4349 6.8979,3.18869 5.19989,3.28255 19.59845,9.35528 25.64463,10.81589 2.74248,0.66251 3.70383,0.19231 4.87867,-2.38618 1.29335,-2.83858 2.59921,-3.30662 11.25116,-4.03256 7.54364,-0.63295 10.22439,-0.38519 11.69113,1.08053 2.89596,2.89393 -0.0581,8.35679 -4.81524,8.90477 -3.10246,0.35738 -3.85114,1.20666 -4.4919,5.09552 -0.42291,2.56667 -1.4835,5.98374 -2.35687,7.5935 -1.26063,2.3235 -1.13643,4.98173 0.60252,12.89558 2.78076,12.65519 2.20384,14.23839 -5.13896,14.10239 -3.13648,-0.0581 -13.64394,0.60231 -23.34992,1.46755 -9.70598,0.86524 -19.15598,1.19449 -21,0.73166 -4.981604,-1.25029 -4.488264,-6.46585 0.98058,-10.36656 3.74441,-2.67073 6.23599,-3.14942 18.33333,-3.52222 12.50074,-0.38523 14.2467,-0.7422 16.30368,-3.33334 2.68458,-3.3817 3.11492,-12.16106 0.69632,-14.20574 -7.22616,-6.10899 -26.09183,-16.02948 -30.48303,-16.02948 -1.64841,0 -2.51697,0.94306 -2.51697,2.73288 0,3.03448 -2.42741,8.16469 -7.16976,15.15293 -4.233417,6.23828 -7.813275,17.60215 -6.906868,21.92509 1.278771,6.09886 -1.843597,8.24372 -9.064069,6.22643 -2.678492,-0.74832 -5.248131,-0.37555 -8.666667,1.25728 -3.072112,1.46737 -9.517946,2.57533 -17.52597,3.01253 -11.254993,0.61447 -13.027913,0.39727 -15.90806,-1.94889 z M 167,143.30777 c 3.57046,-1.41758 2.7857,-4.51549 -1.78247,-7.03645 -2.26368,-1.24923 -7.81368,-4.6424 -12.33333,-7.54039 -4.51964,-2.89799 -10.89638,-6.69961 -14.1705,-8.44805 -3.27413,-1.74843 -8.07413,-4.84896 -10.66667,-6.89006 -6.02761,-4.74552 -17.68685,-10.6441 -25.38036,-12.84029 C 99.366665,99.610516 94.069277,97.887452 90.894692,96.723501 87.217759,95.375368 78.264555,94.308785 66.228026,93.784996 54.508666,93.275009 45.966046,92.273617 43.732879,91.148048 38.493678,88.507365 37.333333,88.877 37.333333,93.186655 c 0,5.065665 9.165288,17.395065 19.684414,26.480015 4.457771,3.85 8.695317,7 9.416769,7 0.750444,0 1.019339,-2.17996 0.628408,-5.09457 -0.893444,-6.66112 1.444947,-8.92827 10.5155,-10.19515 6.243497,-0.87202 6.734212,-1.15496 4.117577,-2.37414 -3.163704,-1.47408 -5.078285,-5.4329 -3.703377,-7.65754 1.3359,-2.161537 5.4142,-1.573973 13.308827,1.91741 5.186039,2.29351 7.781811,4.32612 8.738639,6.84277 2.95231,7.76515 -1.935561,12.02748 -12.227057,10.66227 -3.563836,-0.47276 -6.479701,-0.33189 -6.479701,0.31304 0,1.68626 3.940421,4.71938 9.333333,7.18429 2.566667,1.17312 10.185685,4.6454 16.931155,7.71616 6.74546,3.07076 16.64546,6.41695 22,7.43599 9.65124,1.83677 32.66994,1.76941 37.40218,-0.10947 z M 65.333332,25.435633 C 65.333332,18.170025 60.11045,12 53.960163,12 c -2.458198,0 -4.840272,0.6 -5.293497,1.333333 -0.462077,0.747658 0.583937,1.333334 2.381327,1.333334 1.762955,0 4.293563,1.202437 5.623574,2.672082 2.014835,2.226367 2.160508,3.237663 0.873317,6.062738 C 55.520267,27.84504 55.555416,28 58.587976,28 c 1.423388,0 2.958798,0.6 3.412023,1.333333 1.784701,2.887707 3.333333,1.076876 3.333333,-3.8977 z M 42.93125,21.198251 c -0.430491,-2.933127 -0.938779,-3.611363 -1.748659,-2.333334 -1.738262,2.743063 -1.400489,6.468416 0.586484,6.468416 1.220055,0 1.580728,-1.283296 1.162175,-4.135082 z"
       id="path153" />
  </g>
</svg>
