<?xml version="1.0" encoding="UTF-8" standalone="no"?>
<!-- Created with Inkscape (http://www.inkscape.org/) -->

<svg
   version="1.1"
   id="svg133"
   width="80"
   height="214.66667"
   viewBox="0 0 80 214.66667"
   xmlns="http://www.w3.org/2000/svg"
   xmlns:svg="http://www.w3.org/2000/svg">
  <defs
     id="defs137" />
  <g
     id="g139">
    <path
       style="fill:#000000;stroke-width:1.33333"
       d="m 30.746053,207 c -4.828109,-3.05765 -6.173258,-4.88469 -8.098692,-11 -2.263744,-7.1898 -2.41011,-7.33577 -7.478148,-7.45778 -10.5875563,-0.25492 -11.0891086,-0.42548 -12.0070889,-4.083 -1.1123205,-4.43184 2.1064071,-7.12588 8.5137039,-7.12588 8.766013,0 9.040319,-0.57926 9.387591,-19.82383 0.172449,-9.55659 0.903728,-20.48763 1.625064,-24.29121 0.721334,-3.80358 1.31644,-12.38371 1.322457,-19.06695 0.006,-6.68324 0.570121,-17.251348 1.253564,-23.484682 0.683444,-6.233333 1.631113,-21.833334 2.105932,-34.666667 0.474819,-12.833334 1.410715,-26.265227 2.079768,-29.848654 0.669055,-3.583425 1.216463,-8.740433 1.216463,-11.460016 0,-7.2480986 7.367229,-12.5509598 13.142725,-9.4600083 5.318057,2.8461382 6.903073,13.7370233 9.523204,65.4353453 0.799072,15.766667 1.993899,31.966662 2.655169,36.000002 0.66127,4.03333 1.567986,20.53333 2.014924,36.66667 0.446938,16.13333 1.123983,30.39713 1.504544,31.69733 0.566266,1.93465 2.028388,2.32032 8.05066,2.12352 7.939031,-0.25943 9.95693,1.12609 8.728971,5.99341 -0.983287,3.8975 -2.698997,4.80814 -9.103828,4.83199 -5.39704,0.0201 -5.548703,0.1526 -9.604565,8.39123 -3.461711,7.03173 -5.096394,8.84472 -10.218706,11.33333 -7.836368,3.8072 -9.60881,3.73208 -16.613712,-0.70415 z m 12.477428,-11.42146 c 4.053624,-2.96408 2.15501,-6.85102 -3.578618,-7.32632 -5.977211,-0.49551 -7.912064,2.4359 -4.266588,6.46412 2.777358,3.06893 4.559464,3.2648 7.845206,0.8622 z m 3.142867,-21.57487 c 0.738396,-0.58837 -2.479412,-62.97059 -3.736273,-72.43348 -0.713208,-5.369731 -1.296742,-14.819731 -1.296742,-21.000001 0,-6.180271 -0.506981,-11.236855 -1.126625,-11.236855 -1.144948,0 -2.833511,24.722987 -3.506031,51.333336 -0.33958,13.43655 -2.250845,35.04352 -4.229969,47.82008 -0.979273,6.32185 0.782509,7.74461 8.195959,6.61877 2.933333,-0.44546 5.498189,-0.9413 5.699681,-1.10185 z"
       id="path986" />
  </g>
</svg>
