<?xml version="1.0" encoding="UTF-8" standalone="no"?>
<!-- Created with Inkscape (http://www.inkscape.org/) -->

<svg
   version="1.1"
   id="svg215"
   width="217.33333"
   height="206.66667"
   viewBox="0 0 217.33333 206.66667"
   xmlns="http://www.w3.org/2000/svg"
   xmlns:svg="http://www.w3.org/2000/svg">
  <defs
     id="defs219" />
  <g
     id="g221">
    <path
       style="fill:#000000;stroke-width:1.33333"
       d="m 196.66666,201.0734 c -1.46666,-0.83169 -3.13196,-2.16344 -3.70064,-2.95945 -1.10913,-1.55248 -0.0172,-60.41321 1.15602,-62.3114 1.26969,-2.05441 10.7867,-1.25405 12.7147,1.06927 1.38026,1.66329 1.8775,7.97026 2.02351,25.66666 0.26435,32.03764 -0.27292,36.76587 -4.39088,38.64214 -3.96861,1.80822 -4.43623,1.8018 -7.80271,-0.1072 z M 21.333333,194.98684 C 3.2590373,193.64486 1.5625066,190.94183 6.2407728,170.94032 8.454622,161.4752 8.7505304,161.02234 17.257862,154.0793 c 11.298503,-9.22099 19.066729,-13.25311 23.771353,-12.33859 2.000598,0.38888 6.465792,0.17595 9.922654,-0.47319 5.031994,-0.9449 7.361099,-0.69854 11.681134,1.23559 7.525999,3.36949 17.594717,13.3016 23.481453,23.16287 2.736275,4.58372 5.72414,9.23402 6.639699,10.33402 3.016248,3.62388 2.914112,12.14126 -0.182728,15.2381 -2.714099,2.7141 -9.80366,2.68436 -13.718283,-0.0576 -3.42749,-2.40071 -9.250426,-1.93174 -19.58662,1.57749 -5.616735,1.90693 -26.077077,3.10909 -37.933191,2.2288 z m 43.904638,-15.60418 c 4.187953,-2.16568 5.428695,-4.45194 5.428695,-10.00323 0,-4.82565 -8.731302,-12.95907 -14.920447,-13.89873 -12.06392,-1.8316 -14.781784,-1.85527 -18.773442,-0.16351 -6.690825,2.83575 -16.627347,13.84187 -17.671153,19.57332 -1.103526,6.05939 -1.275223,6.01415 23.764589,6.26125 13.827643,0.13646 19.336862,-0.30313 22.171758,-1.7691 z M 87.999999,59.876856 C 40.005126,58.713393 34.907633,58.012588 24.660617,51.16893 20.403924,48.326019 15.36391,44.963021 13.460586,43.695601 6.3664878,38.97165 4.9118059,30.290135 10.167721,24.043834 c 7.288467,-8.661851 10.255603,-9.280418 39.237365,-8.179915 14.260536,0.541505 26.678246,0.729455 27.594913,0.417667 0.916666,-0.31179 1.666666,-1.388864 1.666666,-2.3935 0,-3.857659 7.055728,-6.3753112 24.456345,-8.726609 32.06409,-4.33273265 58.26141,-2.7389966 67.69717,4.1184142 9.2508,6.7229878 17.89914,8.0940748 30.27531,4.7997768 6.63496,-1.766098 7.26237,-1.721801 9.66667,0.682492 2.19044,2.190438 2.57117,4.511139 2.57117,15.672088 0,12.313205 -0.20409,13.292651 -3.3944,16.289789 -2.75336,2.586649 -5.4126,3.362312 -14.08105,4.107257 -8.15911,0.701171 -11.85007,1.7034 -15.6056,4.237482 -2.70543,1.825505 -7.61895,3.683209 -10.91895,4.128232 -10.46171,1.41082 -40.73929,1.663902 -81.333331,0.679848 z M 169.78972,44.563509 c 3.551,-1.776596 7.751,-3.269864 9.33333,-3.318374 1.58232,-0.04851 6.17695,-1.165238 10.21028,-2.481618 6.17433,-2.01515 7.33333,-2.896803 7.33333,-5.578468 0,-2.884067 -0.69298,-3.253427 -7.33333,-3.908642 -4.11703,-0.406235 -10.38603,-2.307807 -14.29361,-4.335671 -7.82427,-4.06044 -15.95738,-6.912422 -23.37306,-8.196073 -5.16072,-0.893317 -7.12929,1.054165 -2.33333,2.308336 3.03961,0.794877 3.7388,6.762389 1,8.534979 -0.91667,0.593278 -10.96667,1.245684 -22.33333,1.449788 -11.36667,0.204104 -21.86667,0.420362 -23.33333,0.480576 -3.84372,0.1578 -36.780982,-1.084044 -59.382612,-2.238922 -17.342369,-0.886144 -19.62303,-0.74997 -21.666666,1.293664 -1.256232,1.256232 -2.284059,3.110791 -2.284059,4.121241 0,2.125773 7.958783,9.957014 10.128483,9.966173 0.803998,0.0033 3.503998,1.056169 5.999999,2.339503 3.941496,2.026542 10.148074,2.431605 47.20485,3.08075 23.466665,0.41108 50.766665,0.514659 60.666665,0.230175 15.76587,-0.453043 18.80136,-0.918167 24.45639,-3.747417 z M 126,16 c 0.45322,-0.733333 -0.11137,-1.333333 -1.25465,-1.333333 -1.14327,0 -2.07869,0.6 -2.07869,1.333333 0,0.733334 0.56459,1.333334 1.25465,1.333334 0.69005,0 1.62546,-0.6 2.07869,-1.333334 z"
       id="path243" />
  </g>
</svg>
