<?xml version="1.0" encoding="UTF-8" standalone="no"?>
<!-- Created with Inkscape (http://www.inkscape.org/) -->

<svg
   version="1.1"
   id="svg205"
   width="33.333332"
   height="214.66667"
   viewBox="0 0 33.333332 214.66667"
   xmlns="http://www.w3.org/2000/svg"
   xmlns:svg="http://www.w3.org/2000/svg">
  <defs
     id="defs209" />
  <g
     id="g211">
    <path
       style="fill:#000000;stroke-width:1.33333"
       d="m 12.573549,207.04974 c -1.993966,-1.99396 -2.193745,-4.8138 -1.676024,-23.65678 C 11.220805,171.62684 11.116267,160.2 10.665218,158 c -0.8922012,-4.35172 0.736439,-9.48509 3.324361,-10.47817 0.895608,-0.34368 3.064339,0.0937 4.8194,0.97215 3.128359,1.56565 3.193257,1.96266 3.304951,20.21818 0.06267,10.24164 0.523181,21.6947 1.023376,25.4512 1.110953,8.34338 0.298468,10.70378 -4.546871,13.2094 -3.36325,1.7392 -3.98822,1.70566 -6.016886,-0.32302 z M 12.30497,136.2167 c -1.300197,-0.8252 -1.610777,-7.3827 -1.333333,-28.15155 0.346791,-25.959979 0.478937,-27.153545 3.206725,-28.963517 2.467383,-1.637184 3.108897,-1.623896 4.832905,0.100107 2.879139,2.87914 4.081553,49.12238 1.416194,54.46492 -1.818454,3.64498 -4.881936,4.60675 -8.122491,2.55003 z M 12.998971,65.666668 C 11.284703,63.74453 10.837091,58.321425 10.458988,34.893194 10.024835,7.9919397 10.140045,6.3506141 12.588172,4.5598605 15.916274,2.1254239 17.977463,2.16794 20.533267,4.7237437 c 1.769695,1.7696952 1.964881,6.0867213 1.397141,30.9012533 -0.412658,18.036337 -1.208927,29.505672 -2.125098,30.609589 -1.999545,2.409306 -4.324069,2.215348 -6.806339,-0.567918 z"
       id="path382" />
  </g>
</svg>
