<?xml version="1.0" encoding="UTF-8" standalone="no"?>
<!-- Created with Inkscape (http://www.inkscape.org/) -->

<svg
   version="1.1"
   id="svg195"
   width="221.33333"
   height="217.33333"
   viewBox="0 0 221.33333 217.33333"
   xmlns="http://www.w3.org/2000/svg"
   xmlns:svg="http://www.w3.org/2000/svg">
  <defs
     id="defs199" />
  <g
     id="g201">
    <path
       style="fill:#000000;stroke-width:1.33333"
       d="m 108.30435,211.61717 c -1.66594,-0.76113 -3.41741,-2.93637 -3.89215,-4.83385 -0.47474,-1.8975 -1.97998,-5.97783 -3.34496,-9.0674 -5.671184,-12.83647 -7.98778,-28.9581 -8.712027,-60.6286 l -0.69167,-30.24601 -12.165106,0.0112 C 63.532458,106.86728 48.156081,104.55873 43.999999,101.52295 42.166666,100.1838 39.434937,97.28008 37.92949,95.070229 35.441914,91.418708 35.312115,90.185561 36.506073,81.547185 37.228638,76.319361 37.443701,71.665923 36.983989,71.20621 36.524275,70.746498 31.464814,70.372356 25.740741,70.374786 14.710658,70.379467 9.0840447,68.516911 6.7061924,64.073854 1.8454934,54.991555 11.816367,45.976126 28.51853,44.351651 c 4.959603,-0.482377 8.071327,0.09329 13.01142,2.407106 5.572488,2.610013 6.70282,3.81132 7.973829,8.474507 0.868335,3.185822 1.177524,10.223554 0.747448,17.01333 -0.577482,9.116955 -0.325708,11.918357 1.183746,13.171091 2.288822,1.899555 24.516273,0.667578 34.728506,-1.92486 6.072941,-1.541652 6.57719,-1.998494 7.621769,-6.905182 0.615221,-2.889871 1.946881,-8.854311 2.959245,-13.254311 1.483428,-6.447366 1.512471,-8.258772 0.149642,-9.333333 -0.930063,-0.733333 -4.318823,-5.419753 -7.530579,-10.414266 -4.436717,-6.899418 -6.757223,-9.264467 -9.659496,-9.844922 -4.823278,-0.964656 -8.11052,-6.621506 -6.0718,-10.448662 2.699583,-5.067752 7.101787,-8.926927 14.407092,-12.62992 6.899512,-3.4973004 8.140313,-3.6911296 19.333338,-3.0201171 12.80227,0.7674864 19.6956,3.2372531 26.29397,9.4207011 3.56035,3.336463 4.64572,7.548987 2.64626,10.27052 -0.53878,0.733333 -2.77959,2.253091 -4.97959,3.377239 -2.51815,1.286712 -5.35249,4.711209 -7.6508,9.243818 -2.00795,3.959952 -5.21336,8.830868 -7.12315,10.824257 -3.42508,3.575008 -3.45196,3.757727 -1.97512,13.422848 2.23667,14.637821 2.13338,14.461869 8.50559,14.488322 9.5031,0.03945 24.87168,3.731156 36.24348,8.706087 5.48693,2.400423 15.95517,12.673546 18.46384,18.119706 3.39279,7.3655 6.18609,20.26046 7.58341,35.00795 2.27099,23.96801 8.65311,39.08745 22.08671,52.32412 8.92952,8.79861 9.68055,10.40621 6.74016,14.42742 -2.86857,3.92302 -8.1876,1.56554 -17.68395,-7.83782 -4.68792,-4.64203 -8.5235,-8.8737 -8.5235,-9.40372 0,-0.53002 -1.76564,-2.61302 -3.92363,-4.6289 -2.158,-2.01586 -4.33175,-5.4066 -4.83055,-7.53494 -0.4988,-2.12835 -3.76462,-9.56972 -7.2574,-16.53639 -6.39436,-12.75419 -8.65521,-19.24944 -9.81238,-28.19026 -1.39664,-10.79095 -12.3595,-21.9791 -25.30291,-25.82288 -8.68776,-2.57999 -12.75496,-2.51292 -13.80662,0.22768 -0.46739,1.21799 -0.0582,8.56799 0.90919,16.33333 2.85025,22.87802 0.78627,61.44304 -4.02032,75.1188 -4.66012,13.25902 -6.31757,15.05392 -11.65103,12.61717 z m 3.31975,-62.01649 c 0.26803,-27.90066 -1.06494,-45.90385 -4.56098,-61.600681 l -0.74241,-3.333334 -1.20942,4 c -0.66518,2.2 -1.547,15.700005 -1.9596,29.999995 -1.01608,35.21548 2.34157,67.0389 6.62179,62.76054 1.08119,-1.08072 1.64908,-10.84716 1.85062,-31.82652 z m 58.4415,-34.38658 c -1.32256,-7.04987 -13.1835,-18.716999 -20.21754,-19.887184 -2.84977,-0.474091 -6.85318,-1.498411 -8.89649,-2.276268 -2.04329,-0.777857 -6.11148,-1.414285 -9.0404,-1.414285 -9.90497,0 -8.3312,3.39534 2.24572,4.845069 3.2184,0.441131 8.39972,2.0868 11.51404,3.657048 8.05713,4.06241 23.6624,16.9058 23.6624,19.47454 0,1.19062 0.37203,1.79273 0.82672,1.33804 0.45469,-0.4547 0.41219,-3.03633 -0.0944,-5.73696 z M 35.999999,59.333332 c 0,-1.38771 -1.39529,-2 -4.557617,-2 -2.506688,0 -5.356688,-0.293697 -6.333333,-0.652661 -0.976644,-0.358963 -2.602585,-0.12604 -3.613203,0.517596 -3.43737,2.189188 -0.0259,4.135065 7.24951,4.135065 5.559683,0 7.254643,-0.467276 7.254643,-2 z M 108.76245,37.666666 c 0.37331,-1.283333 2.14677,-5.291038 3.94103,-8.906013 1.79425,-3.614973 2.98054,-6.854407 2.63621,-7.198741 -0.34434,-0.344335 -5.12546,-0.914816 -10.62472,-1.267738 -8.480226,-0.544228 -10.128219,-0.30402 -10.851851,1.581736 -0.481564,1.254936 0.0884,3.263864 1.308505,4.612071 1.188939,1.313763 2.161708,3.310501 2.161708,4.437195 0,3.216799 5.253678,9.074823 8.138618,9.074823 1.43646,0 2.91718,-1.05 3.2905,-2.333333 z"
       id="path1149" />
  </g>
</svg>
