<?xml version="1.0" encoding="UTF-8" standalone="no"?>
<!-- Created with Inkscape (http://www.inkscape.org/) -->

<svg
   version="1.1"
   id="svg165"
   width="178.66667"
   height="216"
   viewBox="0 0 178.66667 216"
   xmlns="http://www.w3.org/2000/svg"
   xmlns:svg="http://www.w3.org/2000/svg">
  <defs
     id="defs169" />
  <g
     id="g171">
    <path
       style="fill:#000000;stroke-width:1.33333"
       d="m 133.2324,210.63668 c -2.29077,-1.28197 -4.90351,-6.97433 -16.20399,-35.30335 -1.46263,-3.66666 -3.48661,-8.62492 -4.49772,-11.01834 -2.56107,-6.06239 -3.5352,-13.94819 -2.00601,-16.23918 1.75878,-2.63497 7.7623,0.0977 9.31031,4.23788 0.62097,1.6608 1.8649,5.11964 2.76428,7.68631 8.86204,25.29063 11.24289,31.74117 14.09947,38.20039 1.81569,4.10562 3.30126,8.26898 3.30126,9.25194 0,2.52132 -4.32008,4.55406 -6.7676,3.18435 z m 34.53428,-2.68751 c -1.22833,-0.71669 -2.96076,-3.54845 -3.84984,-6.29278 -1.61636,-4.98928 -3.43826,-9.39119 -10.61894,-25.65639 -8.7144,-19.73931 -10.95407,-26.89756 -9.44911,-30.20059 1.41793,-3.11201 5.92929,-4.18541 8.87777,-2.11233 1.53844,1.08169 7.43215,15.81936 13.72202,34.31292 2.24472,6.6 5.31209,14.37687 6.81637,17.28192 3.09847,5.98375 3.47476,10.11171 1.13505,12.45141 -1.9118,1.9118 -3.63077,1.96774 -6.63332,0.21584 z M 10.13329,203.36316 c -8.2951302,-2.95612 -9.22107048,-5.8004 -4.1332899,-12.69649 2.3510442,-3.18667 3.3333334,-6.22552 3.3333334,-10.31216 0,-7.89735 3.8437315,-14.7463 11.5443345,-20.57026 12.140401,-9.18177 23.269514,-11.51901 37.46392,-7.86786 14.827547,3.814 19.788295,7.19974 21.145,14.4316 0.603779,3.21842 2.056142,5.31565 4.720816,6.81694 3.07948,1.735 4.510284,4.25039 7.158534,12.58491 3.693993,11.62565 3.334954,15.86568 -1.53123,18.08287 -5.108961,2.3278 -72.973736,1.92798 -79.701418,-0.46955 z m 38.735534,-16.97832 c 5.022148,-2.48705 10.189332,-4.29552 11.482632,-4.0188 1.2933,0.27673 3.258708,2.25757 4.367573,4.40188 1.641582,3.17447 2.876692,3.89875 6.648546,3.89875 6.289745,0 6.153618,-3.38804 -0.497887,-12.39186 -6.424779,-8.69689 -7.513713,-9.58609 -14.880199,-12.15074 -9.915088,-3.45196 -16.715166,-2.78728 -24.518148,2.39654 -8.500374,5.64715 -10.713017,8.16794 -12.757655,14.53438 -2.585464,8.05042 -1.707,8.74922 10.397857,8.2713 8.892419,-0.35108 12.115883,-1.15729 19.757281,-4.94145 z m 14.555949,-80.1531 c -3.058319,-2.2363 -1.830553,-6.800904 2.612276,-9.711957 1.742472,-1.141712 5.91348,-4.821188 9.268904,-8.176612 l 6.100774,-6.100774 -2.091768,-6.29772 c -1.150471,-3.463746 -3.22112,-7.319772 -4.60144,-8.568945 -8.298208,-7.509773 -13.056723,-31.404432 -8.78156,-44.096184 1.225136,-3.637084 3.45464,-8.412881 4.954452,-10.612881 5.068721,-7.4350555 7.811,-8.5859115 21.330036,-8.9516078 11.722513,-0.3170996 12.775653,-0.1172537 18.017983,3.4191431 11.25261,7.5908367 15.35991,26.0206587 9.72795,43.6502167 -3.09171,9.677912 -4.89443,12.726658 -12.23244,20.687464 -7.30216,7.921904 -6.75909,11.876174 2.27006,16.529216 6.45588,3.326942 6.67965,3.637454 7.07729,9.820826 0.92053,14.314545 -6.84112,11.884285 -20.763338,-6.50123 l -3.019382,-3.987362 -5.647284,6.0794 C 80.148947,101.48483 71.550797,108 68.396301,108 c -1.404308,0 -3.641496,-0.79572 -4.971528,-1.76826 z M 95.595227,60.878416 c 1.350491,-1.716872 3.688463,-3.781479 5.195493,-4.588017 1.50703,-0.806538 3.44563,-3.821436 4.308,-6.699775 1.8852,-6.292247 2.07053,-22.160193 0.2975,-25.473119 C 103.67731,20.905684 92.731062,16.860761 88.57861,17.90296 84.081651,19.031624 80.001771,23.353927 79.991787,27 c -0.0045,1.65 -0.93556,4.778419 -2.068983,6.952041 -3.522013,6.754343 0.363467,21.435418 7.145796,27.000008 4.648216,3.813648 7.484496,3.793808 10.526627,-0.07364 z"
       id="path871" />
  </g>
</svg>
