<?xml version="1.0" encoding="UTF-8" standalone="no"?>
<!-- Created with Inkscape (http://www.inkscape.org/) -->

<svg
   version="1.1"
   id="svg75"
   width="84"
   height="216"
   viewBox="0 0 84 216"
   xmlns="http://www.w3.org/2000/svg"
   xmlns:svg="http://www.w3.org/2000/svg">
  <defs
     id="defs79" />
  <g
     id="g81">
    <path
       style="fill:#000000;stroke-width:1.33333"
       d="m 65.729705,210.95783 c -1.615328,-0.25306 -3.372385,-1.7721 -3.90457,-3.37564 -1.107034,-3.33562 -0.93536,-47.72267 0.26912,-69.58219 0.450922,-8.18357 0.251854,-16.1401 -0.450351,-18 -0.765871,-2.02853 -0.82092,-9.85735 -0.140633,-20 C 63.518132,69.959659 63.361717,59.53206 60.866667,57.559852 57.879837,55.198917 39.132237,52.998325 24.455371,53.285897 10.814176,53.553176 9.3399915,53.339992 6.7213403,50.72134 4.023808,48.023808 3.914336,47.036381 4.7491803,32.932636 5.4140188,21.700944 6.1547883,17.586929 7.7380507,16.333333 9.4227523,14.99942 27.186883,13.685852 32.347728,14.513571 c 0.815436,0.130782 20.843325,-3.828727 38.127429,-7.5377842 1.728003,-0.3708183 3.549535,-0.014525 4.047848,0.7917639 1.173578,1.898888 0.804646,196.0493993 -0.37963,199.7807193 -0.963619,3.03609 -3.705404,4.14717 -8.41367,3.40956 z M 63.75738,36.828476 c 0.233225,-2.844339 -0.315905,-6.957924 -1.220289,-9.141301 -1.643072,-3.966727 -1.651079,-3.969162 -10.424047,-3.170263 -4.828841,0.439732 -14.179711,1.139089 -20.779711,1.554127 -6.6,0.415038 -12.75,1.000012 -13.666666,1.299941 C 16.666209,27.698327 16,30.277389 16,33.823068 v 5.90676 l 13.666667,0.05876 c 7.516666,0.03232 15.466666,0.655313 17.666666,1.384439 2.2,0.729125 6.7,1.213474 10,1.07633 5.957116,-0.24757 6.003031,-0.286316 6.424047,-5.420877 z"
       id="path1010" />
  </g>
</svg>
