<?xml version="1.0" encoding="UTF-8" standalone="no"?>
<!-- Created with Inkscape (http://www.inkscape.org/) -->

<svg
   version="1.1"
   id="svg207"
   width="202.66667"
   height="218.66667"
   viewBox="0 0 202.66667 218.66667"
   xmlns="http://www.w3.org/2000/svg"
   xmlns:svg="http://www.w3.org/2000/svg">
  <defs
     id="defs211" />
  <g
     id="g213">
    <path
       style="fill:#000000;stroke-width:1.33333"
       d="m 113.33334,214.73252 c -7.52588,-1.18132 -6.87055,-5.19576 1.65147,-10.11668 7.90405,-4.56408 9.28369,-7.98622 5.52034,-13.69293 -1.30196,-1.97427 -4.11639,-6.88957 -6.2543,-10.92291 -2.1379,-4.03333 -4.64238,-8.23333 -5.5655,-9.33333 -4.52192,-5.38833 -11.859754,-27.04836 -10.760078,-31.76191 1.723702,-7.38829 3.674298,-10.64478 6.725468,-11.22805 4.51535,-0.86316 16.97107,4.63039 24.31997,10.72623 6.34276,5.26126 12.20051,8.87614 13.02587,8.03842 0.23917,-0.24274 1.16804,-3.74136 2.06416,-7.77469 2.40678,-10.83279 2.0657,-17.90445 -1.05494,-21.87171 -2.2933,-2.91546 -2.50506,-4.30328 -1.48978,-9.76342 0.65092,-3.50068 2.29042,-8.764872 3.64333,-11.698205 2.60831,-5.655282 4.84616,-23.333334 2.95375,-23.333334 -1.92227,0 -3.76931,3.145743 -4.69726,8 -1.89093,9.891882 -4.72006,14.364432 -9.67421,15.293835 -6.26448,1.175221 -11.07496,-1.967229 -11.07496,-7.234721 0,-2.859402 0.78879,-4.123271 3,-4.806876 1.65,-0.510106 4.62561,-2.800539 6.61248,-5.089851 4.81097,-5.54332 4.75125,-11.539104 -0.20445,-20.527972 C 125.53638,45.774925 125.56731,41.358106 132.31025,24 136.32363,13.66852 140.72174,8.2956832 146.47326,6.6981418 154.313,4.5205743 164.88719,5.0515282 170.4774,7.9034445 c 6.36102,3.2451435 14.54908,12.2217985 15.564,17.0629415 0.42666,2.035154 1.33826,6.100281 2.02579,9.033615 3.08728,13.171814 8.29735,61.31727 7.67251,70.900369 -0.34846,5.34412 -0.97634,6.54884 -4.40636,8.45461 -3.57375,1.98561 -3.97642,2.84881 -3.77864,8.1004 0.12173,3.23288 0.64956,21.77796 1.17294,41.21129 0.53352,19.81013 1.53312,36.06556 2.27524,37 0.728,0.91667 2.42907,1.66667 3.78014,1.66667 1.35108,0 3.08776,1.17952 3.85929,2.62114 2.35373,4.398 -3.54525,7.10052 -16.42105,7.52303 -15.56884,0.51088 -61.30502,3.1236 -62.88792,3.59253 -0.73334,0.21726 -3.43334,0.0653 -6,-0.33752 z m 49.17649,-14.89988 c 4.38341,0.23004 11.35301,-4.34745 13.39852,-8.79989 2.32515,-5.06111 3.54176,-23.81553 1.68971,-26.04712 -0.9244,-1.11383 -0.99688,-2.44661 -0.20106,-3.69701 1.7846,-2.80395 0.24939,-43.49594 -2.21166,-58.62195 -2.38715,-14.671758 -4.27747,-19.333335 -7.83987,-19.333335 -4.70275,0 -11.22357,22.163605 -11.37623,38.666665 -0.0475,5.13334 -0.59222,13.69896 -1.21053,19.03472 -0.70473,6.08154 -0.61545,11.7057 0.23928,15.07306 1.57092,6.18898 -0.24588,11.89222 -3.78835,11.89222 -1.19948,0 -5.64381,-3 -9.8763,-6.66666 -4.2325,-3.66667 -8.2422,-6.66667 -8.91046,-6.66667 -0.66826,0 -3.58679,-2.44945 -6.48561,-5.44323 -9.00705,-9.30205 -15.94022,-11.66548 -17.381,-5.92494 -0.58676,2.33785 0.30698,5.15314 3.06877,9.66666 2.14316,3.5025 5.88312,10.69655 8.31103,15.98678 2.42791,5.29022 5.59938,10.69022 7.04771,12 1.44832,1.30977 3.71108,4.4814 5.02834,7.04806 4.91832,9.58323 12.43335,13.83614 21.98788,12.44338 2.93334,-0.4276 6.76275,-0.70243 8.50983,-0.61074 z M 186.6086,97.000001 c -0.0319,-3.116666 -0.66474,-8.366666 -1.40624,-11.666666 -0.74149,-3.3 -1.83478,-8.4 -2.42954,-11.333334 -0.59476,-2.933333 -1.4093,-6.233333 -1.81008,-7.333333 -0.40078,-1.1 -1.51402,-8.594559 -2.47384,-16.654575 -1.61323,-13.546688 -2.15127,-15.260288 -7.11703,-22.666667 -5.32165,-7.937191 -5.43731,-8.01586 -12.37187,-8.415106 -5.38098,-0.3098 -7,0.03972 -7,1.511159 0,1.982697 3.84675,3.508704 8.9244,3.540315 3.44247,0.02143 7.0756,4.657108 7.0756,9.028091 0,1.69576 -1.4458,7.712256 -3.21289,13.36999 -3.63096,11.62529 -7.47172,28.096009 -7.41791,31.810901 0.0281,1.945397 0.8356,1.511703 3.76835,-2.024108 2.5918,-3.124768 4.85835,-4.5 7.41652,-4.5 5.96349,0 6.50295,0.983477 11.88473,21.666667 2.8167,10.825115 6.26415,12.873915 6.1698,3.666666 z M 150.44048,45.543093 c 0.52063,-3.659803 -3.16329,-8.209759 -6.64713,-8.209759 -3.11832,0 -3.29669,4.878795 -0.33305,9.109975 2.62366,3.745816 6.38832,3.2603 6.98018,-0.900216 z M 5.9068826,140.38307 C 3.9129171,138.38911 3.7131382,135.56927 4.2308585,116.7263 4.554139,104.96017 4.4496009,93.533335 3.9985515,91.333335 3.1063506,86.981612 4.734991,81.848244 7.3229131,80.855165 c 0.8956089,-0.343677 3.0643389,0.09379 4.8193999,0.972144 3.128359,1.565652 3.193258,1.962672 3.304951,20.218181 0.06267,10.24165 0.523182,21.69469 1.023376,25.45121 1.110954,8.34337 0.298468,10.70377 -4.54687,13.2094 -3.3632505,1.7392 -3.9882203,1.70565 -6.0168874,-0.32303 z"
       id="path384" />
  </g>
</svg>
