<?xml version="1.0" encoding="UTF-8" standalone="no"?>
<!-- Created with Inkscape (http://www.inkscape.org/) -->

<svg
   version="1.1"
   id="svg365"
   width="108"
   height="204"
   viewBox="0 0 108 204"
   xmlns="http://www.w3.org/2000/svg"
   xmlns:svg="http://www.w3.org/2000/svg">
  <defs
     id="defs369" />
  <g
     id="g371">
    <path
       style="fill:#000000;stroke-width:1.33333"
       d="m 58.608188,198.08616 c -0.942571,-0.37851 -3.825449,-4.68115 -6.406397,-9.5614 -2.580948,-4.88025 -6.376424,-11.87319 -8.434391,-15.53985 -6.196413,-11.04011 -14.393983,-26.10896 -19.580568,-35.99319 -2.691667,-5.12959 -6.265687,-11.12959 -7.942265,-13.33334 -4.730347,-6.21771 -5.372218,-10.64054 -1.897439,-13.07437 3.230816,-2.26295 8.436881,-1.1619 14.641492,3.09657 1.833333,1.25829 4.725539,2.72035 6.427123,3.24902 6.632257,2.06058 66.599987,32.66827 67.225677,34.31216 1.24157,3.26203 -1.32658,7.1116 -14.495347,21.72803 -24.085613,26.73338 -24.542932,27.12225 -29.537885,25.11637 z m 16.983181,-26.96677 c 7.214582,-7.1055 12.184674,-13.10203 12.389144,-14.94782 0.29453,-2.65878 -1.30736,-3.89522 -11.65856,-8.9989 -6.6,-3.25414 -13.5,-6.70767 -15.333333,-7.67451 -18.598889,-9.80849 -30.229095,-14.7286 -31.592572,-13.36513 -0.399443,0.39945 0.507491,2.70453 2.015408,5.1224 1.507917,2.41788 4.929455,8.59614 7.603416,13.72948 4.143844,7.95514 23.291651,38 24.217676,38 0.171115,0 5.732584,-5.33948 12.358821,-11.86552 z M 10.137438,54.961391 C 6.58207,52.885052 6.17815,47.782443 8.895759,39.275587 15.162143,19.660104 23.814921,10.852012 41.369869,6.2185837 53.413783,3.0397306 71.531828,7.8679848 80.776,16.719872 c 6.327283,6.058781 12.101663,18.14562 13.063013,27.343296 1.33094,12.733776 2.97668,12.262039 -42.612298,12.214527 C 28.952732,56.254483 11.38813,55.691796 10.137438,54.961391 Z M 72.135859,44.803675 c 7.031833,-0.96382 7.639386,-2.291822 2.792665,-6.104254 -3.027232,-2.381221 -3.298469,-3.302516 -2.513459,-8.537338 1.032474,-6.885027 -0.158214,-8.793099 -8.003914,-12.826231 -8.375459,-4.305457 -21.887067,-3.697011 -29.962206,1.34924 -5.905406,3.69036 -6.115469,4.042285 -5.808369,9.730989 0.175243,3.246188 -0.347775,7.552702 -1.16226,9.570031 -2.745239,6.799449 -0.468307,7.665461 20.154135,7.665461 10.074522,0 21.101056,-0.381554 24.503408,-0.847898 z"
       id="path671" />
  </g>
</svg>
