<?xml version="1.0" encoding="UTF-8" standalone="no"?>
<!-- Created with Inkscape (http://www.inkscape.org/) -->

<svg
   version="1.1"
   id="svg197"
   width="81.333336"
   height="217.33333"
   viewBox="0 0 81.333336 217.33333"
   xmlns="http://www.w3.org/2000/svg"
   xmlns:svg="http://www.w3.org/2000/svg">
  <defs
     id="defs201" />
  <g
     id="g203">
    <path
       style="fill:#000000;stroke-width:1.33333"
       d="M 8.5694116,210.97958 C 3.1766288,207.28692 8.3406307,200.57796 23.05631,192.15849 33.251882,186.32518 33.570954,185.64762 37.258573,162 c 0.686138,-4.4 1.923951,-10.29382 2.750696,-13.09736 1.935647,-6.56391 -0.595233,-10.79887 -8.558771,-14.32151 -3.111858,-1.37653 -7.328455,-3.81681 -9.370215,-5.42286 l -3.712289,-2.92009 0.889029,-18.11909 c 0.488966,-9.965501 1.476207,-25.619091 2.19387,-34.785758 0.717662,-9.166666 1.819372,-26.920039 2.448244,-39.451939 1.302296,-25.9516462 2.161069,-28.5529732 9.421593,-28.5391527 6.053159,0.01152 19.177998,9.7927557 26.598065,19.8220997 5.516972,7.457022 5.975655,9.215885 7.34603,28.168993 0.397668,5.499999 1.639357,19.899999 2.759309,31.999999 1.119952,12.1 2.304912,29.199998 2.633244,37.999998 3.142452,84.22429 3.137218,81.44351 0.158943,84.42177 -1.237953,1.23796 -5.671015,2.20471 -11.960602,2.60835 -10.843337,0.69589 -16.855718,-0.22227 -16.855718,-2.57403 0,-0.8212 4.406638,-6.10548 9.792527,-11.74282 7.802282,-8.16656 9.965674,-11.33252 10.644451,-15.57735 1.242806,-7.77209 -2.493373,-24.38121 -6.366078,-28.30029 -3.458798,-3.50023 -6.070899,-2.86268 -6.070899,1.48173 0,3.09529 -0.577942,5.13481 -6.59771,23.28279 -2.237927,6.74673 -4.068957,13.47962 -4.068957,14.96197 0,1.48235 -1.448183,5.96977 -3.218184,9.97207 -2.798851,6.32869 -3.884694,7.46196 -8.333334,8.69724 -5.834994,1.62025 -19.0739,1.87914 -21.2124054,0.41482 z m 55.4305904,-75.6215 c 0,-2.55306 -0.605188,-8.70306 -1.344863,-13.66667 C 61.211807,112.00588 57.457073,75.878675 55.966343,57.333332 55.46529,51.099999 54.347407,43.77797 53.482159,41.062155 51.562639,35.037219 41.744783,22.308394 39.572616,23.028468 c -0.882945,0.292696 -1.958679,4.566985 -2.452933,9.746426 -1.715702,17.979293 -3.812785,49.330723 -3.799659,56.804971 0.0073,4.168928 -0.614328,9.230684 -1.381444,11.248345 -0.767115,2.01767 -1.697927,7.46695 -2.068471,12.10952 -0.668897,8.38064 -0.643343,8.45757 3.571805,10.75165 2.335038,1.27084 6.902342,4.56062 10.149565,7.31062 3.247223,2.75 6.694083,5 7.659689,5 0.965606,0 2.502582,0.9 3.4155,2 0.912919,1.1 3.386386,2 5.496594,2 3.492061,0 3.83674,-0.41702 3.83674,-4.64192 z"
       id="path523" />
  </g>
</svg>
