<?xml version="1.0" encoding="UTF-8" standalone="no"?>
<!-- Created with Inkscape (http://www.inkscape.org/) -->

<svg
   version="1.1"
   id="svg2"
   width="154.66667"
   height="212"
   viewBox="0 0 154.66667 212"
   xmlns="http://www.w3.org/2000/svg"
   xmlns:svg="http://www.w3.org/2000/svg">
  <defs
     id="defs6" />
  <g
     id="g8">
    <path
       style="fill:#000000;stroke-width:1.33333"
       d="m 11.498944,204.94409 c -3.613854,-1.20461 -5.3835064,-4.62284 -4.1106062,-7.93997 0.8175844,-2.13059 6.2069282,-3.67079 12.8445422,-3.67079 2.144751,0 5.659411,-0.91006 7.810355,-2.02236 2.150946,-1.11229 6.77115,-2.38965 10.26712,-2.83856 8.186062,-1.05117 14.390901,-4.82534 16.602066,-10.09844 4.141051,-9.8754 18.24359,-38.38214 20.721278,-41.8858 1.486351,-2.10182 5.470556,-9.34704 8.853791,-16.10047 6.420324,-12.81592 8.699475,-15.05437 15.328083,-15.05437 4.517867,0 9.234057,4.9148 10.423607,10.86255 0.396,1.98 3.56802,6.79592 7.04894,10.70206 7.25564,8.14195 10.63016,14.47922 16.20647,30.43539 4.94691,14.15522 5.8032,16.21863 10.61224,25.57231 4.36044,8.48116 4.88831,13.74692 1.81757,18.13101 -2.29589,3.27784 -5.96236,3.79492 -9.82113,1.38508 -1.94907,-1.21721 -4.30888,-1.2095 -10.31524,0.0337 -4.28342,0.8866 -12.77725,2.31876 -18.8752,3.18258 -9.291599,1.31624 -11.273919,1.26843 -12.240299,-0.29521 -2.526801,-4.08844 3.807464,-9.4696 13.373549,-11.36123 8.32233,-1.64568 19.24582,-7.73886 19.71209,-10.9955 0.56388,-3.93844 -7.10324,-23.12771 -12.9133,-32.31944 -4.29523,-6.79522 -14.70033,-22.57469 -15.773444,-23.92064 -1.039891,-1.30428 -4.019896,3.66894 -6.344025,10.5873 -3.466971,10.32032 -6.915162,16.87072 -13.335715,25.33334 -7.422014,9.7826 -16.138993,26.12816 -17.282801,32.4077 -1.523256,8.36271 -4.692001,10.45978 -14.475899,9.5801 -4.564809,-0.41043 -13.802596,-0.2599 -20.528417,0.3345 -6.725822,0.59442 -13.748353,0.57422 -15.605625,-0.0449 z M 83.545299,91.769647 C 80.495386,88.586565 75.69154,81.486225 72.870088,75.991113 70.048636,70.496001 67.022759,65.1 66.145915,64 65.269072,62.9 63.743304,60.382063 62.75532,58.404584 61.767336,56.427105 58.640513,51.627105 55.806824,47.737917 50.835382,40.914703 43.064032,29.288831 37.51845,20.378675 33.378705,13.727292 33.302642,8.8238276 37.305975,6.6813089 c 4.818214,-2.5786297 9.19471,-0.1349418 14.757594,8.2401421 2.898371,4.363582 5.269766,8.205822 5.269766,8.53831 0,0.332488 1.95,3.488364 4.333333,7.013056 2.383333,3.524692 5.833333,8.947772 7.666667,12.05129 1.833333,3.103517 4.590725,7.595393 6.127539,9.981948 1.536812,2.386554 3.171581,5.842782 3.632821,7.680505 0.461239,1.837724 2.807963,5.997544 5.214943,9.244045 10.366043,13.981576 13.11826,23.665008 7.569995,26.63435 -2.43523,1.303296 -3.489755,0.759754 -8.333334,-4.295308 z M 118.48612,87.331661 C 115.178,83.976252 111.01531,78.815759 109.23568,75.863896 107.45606,72.912035 103.75,67.696076 101,64.272879 c -2.749998,-3.423199 -4.999998,-6.89926 -4.999998,-7.724583 0,-1.685013 -24.98136,-39.437681 -26.91495,-40.674772 -0.681831,-0.436228 -0.850515,-2.343747 -0.374855,-4.238929 1.380646,-5.500929 13.956471,-9.4343549 13.956471,-4.3652601 0,0.907884 1.273367,2.7936911 2.829705,4.1906821 1.556336,1.39699 4.595966,5.539983 6.754733,9.20665 2.158767,3.666666 5.776523,9.666666 8.039454,13.333333 2.26294,3.666667 6.23299,10.566667 8.82233,15.333333 C 111.70224,54.1 116.42064,61.6 119.59824,66 c 9.13634,12.651059 11.82459,18.646963 10.30175,22.977137 -1.93588,5.504636 -4.76692,5.0965 -11.41387,-1.645476 z"
       id="path30" />
  </g>
</svg>
