<?xml version="1.0" encoding="UTF-8" standalone="no"?>
<!-- Created with Inkscape (http://www.inkscape.org/) -->

<svg
   version="1.1"
   id="svg177"
   width="214.66667"
   height="64"
   viewBox="0 0 214.66667 64"
   xmlns="http://www.w3.org/2000/svg"
   xmlns:svg="http://www.w3.org/2000/svg">
  <defs
     id="defs181" />
  <g
     id="g183">
    <path
       style="fill:#000000;stroke-width:1.33333"
       d="M 91.333335,60.013735 C 83.266668,59.4721 74.266668,58.396472 71.333334,57.623451 c -2.933333,-0.77302 -9.833333,-2.086583 -15.333333,-2.919026 -5.5,-0.832444 -12.1,-2.333461 -14.666667,-3.335594 C 38.766667,50.366696 31.253316,47.398745 24.636998,44.773384 18.02068,42.148023 12.014549,40 11.29004,40 9.3453843,40 2.663374,33.485499 2.6870838,31.612708 2.7423155,27.25004 9.0846552,23.739541 28,17.601953 46.705851,11.532342 53.764513,9.7879028 70.000001,7.2223023 87.341895,4.4818628 125.64857,3.5316904 140,5.4859973 c 10.06124,1.3700903 38.55763,8.0132987 46,10.7237337 11.8209,4.305044 24.49424,11.017974 25.6691,13.59663 1.6695,3.664336 0.11093,7.840582 -3.87084,10.37232 -3.4707,2.206759 -28.63167,10.505771 -31.81843,10.494886 -1.11109,-0.0037 -9.81109,1.728746 -19.33333,3.850093 -9.52224,2.121347 -22.11316,4.236387 -27.97983,4.700089 C 122.8,59.687452 115.3,60.276472 112,60.532685 c -3.3,0.256212 -12.599998,0.02268 -20.666665,-0.51895 z M 130,46.596005 c 26.09874,-2.991009 58.85614,-9.71231 61.95767,-12.712738 4.34408,-4.202452 -6.45459,-8.714267 -30.54077,-12.76031 -26.67755,-4.481345 -51.98494,-5.59797 -70.757491,-3.122 C 82.323319,19.100431 73.283634,20 70.571221,20 c -2.712413,0 -7.850561,0.863388 -11.418107,1.918641 -3.567545,1.055252 -11.109768,2.635564 -16.760495,3.511803 -5.650725,0.876239 -12.216304,2.774319 -14.590173,4.217955 -3.957428,2.406656 -4.110238,2.740013 -1.838719,4.011218 5.962641,3.336863 32.200631,9.351407 50.702941,11.622656 7.333333,0.900203 14.233333,1.790143 15.333333,1.977644 C 96.989158,48.110351 120.34718,47.702253 130,46.596005 Z"
       id="path801" />
  </g>
</svg>
