<?xml version="1.0" encoding="UTF-8" standalone="no"?>
<!-- Created with Inkscape (http://www.inkscape.org/) -->

<svg
   version="1.1"
   id="svg87"
   width="208"
   height="222.66667"
   viewBox="0 0 208 222.66667"
   xmlns="http://www.w3.org/2000/svg"
   xmlns:svg="http://www.w3.org/2000/svg">
  <defs
     id="defs91" />
  <g
     id="g93">
    <path
       style="fill:#000000;stroke-width:1.33333"
       d="m 18.046117,213.65792 c -4.374634,-0.26114 -8.7246349,-1.11446 -9.6666662,-1.89629 -2.0692971,-1.71736 -2.2656463,-7.26256 -0.3001713,-8.47729 0.776937,-0.48018 10.0587295,-0.79083 20.6262045,-0.69034 l 19.213592,0.18272 4.726336,-4.38836 c 3.283531,-3.04873 5.347687,-6.627 6.761757,-11.72169 1.119483,-4.03333 2.574347,-9.13333 3.233032,-11.33333 5.21231,-17.40904 7.9765,-30.54223 7.997998,-38 0.02295,-7.96031 -0.409558,-9.29267 -5.306608,-16.34739 C 62.399216,116.76155 60,112.64003 60,111.82703 c 0,-0.81301 -2.038016,-4.85669 -4.528924,-8.98595 -4.392412,-7.281445 -8.804409,-21.094427 -8.804409,-27.56464 0,-1.746168 1.49234,-7.847708 3.316312,-13.558979 1.913597,-5.991909 3.323512,-13.604106 3.333333,-17.996835 0.01475,-6.596287 -0.47072,-8.064967 -3.636021,-11 -4.940588,-4.581172 -12.501026,-4.603266 -18.465474,-0.05396 -4.913062,3.747375 -12.195528,4.470354 -13.40046,1.330352 -1.366112,-3.560033 0.827028,-8.687507 4.731443,-11.061923 2.094163,-1.273537 7.62806,-3.094286 12.297551,-4.04611 8.788768,-1.791494 9.176974,-1.947618 14.882449,-5.985212 4.285628,-3.0328115 20.831761,-4.4778055 28.121531,-2.455888 4.064994,1.127483 6.181801,1.018626 9.829498,-0.5054787 6.895702,-2.8812083 10.799048,-2.4866177 12.508151,1.2644527 1.19628,2.62554 0.91777,4.173671 -1.536409,8.540284 -2.582702,4.595298 -2.788875,5.932038 -1.489728,9.658772 1.791466,5.139003 1.961225,12.54959 0.359232,15.681739 -0.631726,1.235124 -1.520051,5.094254 -1.974059,8.575846 l -0.825467,6.330165 8.137751,5.003168 c 10.92096,6.714307 18.07051,13.21305 24.47881,22.250555 2.93236,4.135446 7.54594,10.646558 10.25242,14.469142 2.70648,3.82257 6.47551,9.05014 8.3756,11.61681 1.9001,2.56666 6.70811,9.46666 10.68448,15.33333 3.97636,5.86667 10.08148,14.86667 13.56691,20 3.48544,5.13333 11.95697,14.88361 18.82563,21.66728 12.43224,12.27841 13.9841,15.22911 9.49577,18.0552 -1.51937,0.95668 -3.39536,0.71076 -6.53817,-0.85709 -5.3696,-2.67871 -5.33108,-2.6774 -5.33108,-0.18063 0,2.61579 2.42276,6.89427 7,12.36164 4.22609,5.04795 4.40901,6.02077 1.65073,8.77905 -4.68888,4.6889 -29.71016,4.40914 -39.21215,-0.43842 -6.25288,-3.18999 -11.7886,-9.67991 -18.20152,-21.33902 -15.11244,-27.47537 -15.72928,-28.06988 -14.52574,-14.00016 1.16881,13.66366 -0.13468,15.30794 -9.58311,12.08852 -3.44846,-1.175 -7.8797,-2.13637 -9.84721,-2.13637 -3.41804,0 -3.61089,0.3704 -4.331702,8.31967 -0.41492,4.57582 -0.448388,8.62582 -0.07437,9 0.374016,0.37418 8.280162,0.83765 17.569212,1.02994 15.37389,0.31824 17.10172,0.60459 19.25799,3.19151 2.07402,2.48827 2.1368,3.1914 0.5044,5.6504 -2.12998,3.20855 3.98693,2.86165 -65.539866,3.71689 -24.933334,0.30671 -48.91258,0.34399 -53.287216,0.0828 z m 68.936872,-13.32458 c 1.134627,-1.28334 2.474483,-5.41471 2.977459,-9.18083 0.858449,-6.42779 0.660611,-7.10723 -3.227685,-11.08489 -2.972583,-3.04091 -5.128808,-4.11931 -7.636327,-3.81918 -3.734319,0.44698 -4.248625,1.1371 -7.764157,10.41823 -1.249983,3.3 -2.811102,7.04185 -3.469154,8.31524 -2.60828,5.04723 -1.495342,6.1996 6.470208,6.69944 4.216667,0.2646 8.323675,0.59455 9.126683,0.73321 0.803009,0.13866 2.388348,-0.79789 3.522973,-2.08122 z M 180,199.79899 c 0,-3.62483 -12.36139,-26.54236 -15.69057,-29.08972 -10.77962,-8.24809 -16.14562,-11.7124 -19.41144,-12.53207 -1.99754,-0.50134 -5.86676,-2.9167 -8.59827,-5.36746 -4.6437,-4.1664 -10.96639,-7.3426 -10.96639,-5.50896 0,0.88666 8.10059,13.80273 14.65442,23.36589 2.26154,3.3 5.85241,8.7 7.97969,12 6.43888,9.98852 13.87699,16.35553 20.334,17.40591 C 177.20995,201.52172 180,201.45647 180,199.79899 Z M 113.88919,172.1793 c 1.26905,-2.05336 -2.94703,-18.9225 -6.59049,-26.36944 -3.90791,-7.9875 -3.07493,-11.48568 2.41699,-10.15042 1.95147,0.47446 0.83294,-0.92698 -3.30237,-4.13765 -3.43934,-2.67032 -6.934308,-4.85512 -7.766599,-4.85512 -3.031054,0 -24.138438,-20.89525 -29.59953,-29.302047 -5.217472,-8.031767 -5.592124,-9.224407 -5.359852,-17.062159 0.137349,-4.634731 0.713886,-9.251811 1.281194,-10.260179 1.246222,-2.215116 12.130695,-10.566539 15.294919,-11.735464 4.938061,-1.824213 7.182221,-19.86633 3.760625,-30.233867 -1.664997,-5.044988 -2.104121,-5.394152 -6.570824,-5.224711 -3.115578,0.118187 -3.73826,0.383429 -1.783662,0.759784 1.651606,0.318015 3.621094,1.733273 4.376638,3.14502 1.156475,2.160892 0.681588,2.988799 -3.002924,5.235232 -2.40715,1.467631 -5.644492,2.670663 -7.194092,2.673404 -2.49117,0.0044 -2.899198,0.970044 -3.523332,8.338318 -0.388233,4.583333 -2.27038,12.939124 -4.182546,18.568423 C 57.974557,73.841037 57.760196,80.919307 61.333333,88.314849 62.8,91.350499 64,94.427516 64,95.152664 c 0,0.725148 2.893245,6.162446 6.429435,12.082896 C 73.965624,113.156 78.568476,121.6 80.657995,126 c 2.089518,4.4 4.511656,8.9 5.382526,10 0.870871,1.1 1.931403,3.2 2.356739,4.66667 0.425336,1.46667 2.870092,8.66667 5.432791,16 3.941154,11.27787 5.238362,13.581 8.414699,14.93987 4.4383,1.89873 10.63652,2.20361 11.64444,0.57276 z m -27.222523,-6.56404 c 0,-1.31162 -1.2,-4.73847 -2.666667,-7.61526 -1.466667,-2.87678 -2.726475,-6.15364 -2.799573,-7.28192 -0.229091,-3.53601 -2.261255,4.37695 -2.400854,9.34859 -0.07309,2.60333 0.587094,5.45333 1.467094,6.33333 2.438365,2.43836 6.4,1.9526 6.4,-0.78474 z m 70.666663,-14.73948 c 0,-1.5761 -12.61284,-19.53971 -19.33844,-27.54244 -3.08152,-3.66667 -6.6359,-8.67373 -7.89863,-11.12681 -4.18537,-8.13077 -20.97001,-28.157363 -27.02299,-32.24247 -7.23951,-4.885886 -15.73015,-9.297392 -17.894298,-9.297392 -2.967555,0 -10.512305,6.785417 -10.512305,9.454305 0,10.3243 24.795077,35.455727 51.842443,52.545697 1.1606,0.73333 4.47885,3.28333 7.37388,5.66667 2.89501,2.38333 5.90568,4.34788 6.69034,4.36566 0.78467,0.0177 4.12667,2.07763 7.42667,4.57742 5.91511,4.48077 9.33333,5.799 9.33333,3.59936 z m -34.66666,-7.46375 c 0,-0.32339 -0.6,-0.9588 -1.33334,-1.41203 C 120.6,141.54678 120,141.81136 120,142.58798 c 0,0.77661 0.6,1.41202 1.33333,1.41202 0.73334,0 1.33334,-0.26458 1.33334,-0.58797 z"
       id="path940" />
  </g>
</svg>
