<?xml version="1.0" encoding="UTF-8" standalone="no"?>
<!-- Created with Inkscape (http://www.inkscape.org/) -->

<svg
   version="1.1"
   id="svg245"
   width="217.33333"
   height="140"
   viewBox="0 0 217.33333 140"
   xmlns="http://www.w3.org/2000/svg"
   xmlns:svg="http://www.w3.org/2000/svg">
  <defs
     id="defs249" />
  <g
     id="g251">
    <path
       style="fill:#000000;stroke-width:1.33333"
       d="m 71.096827,136.3384 c -3.542772,-0.60832 -4.663635,-1.90923 -9.580616,-11.1196 -5.342404,-10.00727 -7.212616,-9.90355 -12.436394,0.68972 -3.69723,7.4976 -4.827194,8.75815 -7.850842,8.75815 -4.171038,0 -9.720403,-5.12263 -13.433105,-12.40013 -3.241445,-6.35376 -6.112946,-6.03458 -8.506702,0.94555 -2.396966,6.98949 -6.175549,10.65439 -9.7991261,9.50431 -3.9498657,-1.25363 -3.5807844,-3.62351 2.5307401,-16.2499 7.389907,-15.26753 12.198756,-17.316279 18.312551,-7.80184 1.65,2.56777 4.35,6.76457 6,9.32623 1.65,2.56166 3.487629,4.66166 4.08362,4.66667 0.595992,0.005 2.915806,-4.04089 5.155144,-8.99089 4.360409,-9.63858 5.53883,-10.94778 9.882806,-10.97959 2.031892,-0.0149 4.246309,2.42095 8.163361,8.97959 5.517786,9.23887 9.814626,11.75512 10.854331,6.35637 0.780112,-4.05079 9.272466,-16.68971 11.214168,-16.68971 3.53976,0 7.827828,4.43512 11.695112,12.09617 5.340625,10.57972 7.393465,10.36653 13.764775,-1.4295 7.30694,-13.528292 10.34558,-12.590033 22.50041,6.94758 1.27256,2.0455 2.82142,3.71909 3.44192,3.71909 0.6205,0 3.44099,-4.21921 6.26775,-9.37603 5.91923,-10.79832 7.55336,-12.48293 11.03656,-11.37741 2.62389,0.8328 9.83313,11.00179 12.18492,17.18745 2.21468,5.82504 4.92571,4.18827 9.49985,-5.73548 6.08559,-13.20284 10.88043,-13.963073 16.62067,-2.63525 1.78293,3.51845 4.78088,8.66529 6.66211,11.43743 4.24633,6.25733 3.96588,10.49929 -0.69418,10.49929 -2.73048,0 -4.07344,-1.44684 -7.42562,-8 -2.25075,-4.4 -4.95075,-8 -6,-8 -1.04924,0 -3.69246,3.71508 -5.87382,8.25574 -5.19192,10.80739 -11.60048,13.62971 -15.17322,6.68227 -4.89528,-9.51922 -9.06151,-16.13478 -10.44624,-16.58764 -0.89267,-0.29193 -3.73858,3.89677 -6.51231,9.58506 -6.16432,12.64162 -9.66613,14.27905 -15.55234,7.27214 -2.09804,-2.4975 -5.13503,-6.89683 -6.74887,-9.77629 -1.61383,-2.87947 -3.575,-5.44306 -4.35815,-5.69686 -0.78315,-0.25381 -3.36818,3.40772 -5.74451,8.13673 -2.37634,4.72901 -5.22142,9.34582 -6.32242,10.25957 -3.7047,3.07462 -8.709951,-0.17188 -13.557395,-8.79358 -2.463394,-4.38141 -5.152428,-8.38247 -5.975629,-8.89124 -1.695663,-1.04797 -7.623168,6.2699 -7.678672,9.4798 -0.06323,3.65611 -7.010525,10.2938 -10.200637,9.74603 z M 91.333332,60.013735 c -8.066667,-0.541635 -17.066666,-1.617263 -20,-2.390284 -2.933333,-0.77302 -9.833333,-2.086583 -15.333333,-2.919026 -5.5,-0.832444 -12.1,-2.333461 -14.666666,-3.335594 C 38.766666,50.366696 31.253316,47.398745 24.636997,44.773384 18.02068,42.148023 12.014548,40 11.29004,40 9.345384,40 2.663374,33.485499 2.6870837,31.612708 2.7423154,27.25004 9.0846549,23.739541 28,17.601953 46.70585,11.532342 53.764511,9.7879028 69.999999,7.2223023 87.341892,4.4818628 125.64857,3.5316904 140,5.4859973 c 10.06124,1.3700903 38.55762,8.0132987 46,10.7237337 11.82089,4.305044 24.49424,11.017974 25.66909,13.59663 1.66951,3.664336 0.11093,7.840582 -3.87084,10.37232 -3.47069,2.206759 -28.63167,10.505771 -31.81843,10.494886 -1.11109,-0.0037 -9.81109,1.728746 -19.33333,3.850093 -9.52224,2.121347 -22.11316,4.236387 -27.97983,4.700089 C 122.8,59.687452 115.3,60.276472 112,60.532685 c -3.3,0.256212 -12.600002,0.02268 -20.666668,-0.51895 z M 130,46.596005 c 26.09873,-2.991009 58.85613,-9.71231 61.95766,-12.712738 4.34408,-4.202452 -6.45458,-8.714267 -30.54077,-12.76031 -26.67755,-4.481345 -51.98494,-5.59797 -70.757483,-3.122 C 82.323316,19.100431 73.283632,20 70.571219,20 c -2.712413,0 -7.850561,0.863388 -11.418107,1.918641 -3.567545,1.055252 -11.109767,2.635564 -16.760494,3.511803 -5.650725,0.876239 -12.216304,2.774319 -14.590173,4.217955 -3.957428,2.406656 -4.110237,2.740013 -1.838719,4.011218 5.962642,3.336863 32.20063,9.351407 50.702939,11.622656 7.333334,0.900203 14.233334,1.790143 15.333334,1.977644 C 96.989155,48.110351 120.34718,47.702253 130,46.596005 Z"
       id="path273" />
  </g>
</svg>
