<?xml version="1.0" encoding="UTF-8" standalone="no"?>
<!-- Created with Inkscape (http://www.inkscape.org/) -->

<svg
   version="1.1"
   id="svg235"
   width="220"
   height="69.333336"
   viewBox="0 0 220 69.333336"
   xmlns="http://www.w3.org/2000/svg"
   xmlns:svg="http://www.w3.org/2000/svg">
  <defs
     id="defs239" />
  <g
     id="g241">
    <path
       style="fill:#000000;stroke-width:1.33333"
       d="M 69.599997,60.783758 C 37.281063,51.680587 5.3333333,28.932649 5.3333333,15.023571 c 0,-9.1814537 -6.3628972,-8.6896038 102.5571067,-7.9276301 53.96025,0.3774909 98.25956,0.7353322 98.44289,0.7952031 0.90774,0.2964375 0.16736,7.260946 -1.00469,9.450954 -1.02343,1.912291 -0.78285,2.910539 1.02317,4.245679 3.44188,2.544465 6.28824,7.581428 8.1797,14.474896 1.429,5.20807 1.34394,6.899607 -0.60346,12.000001 -2.79674,7.324943 -6.35186,10.603995 -11.49676,10.603995 -6.91677,0 -13.87321,-5.640094 -17.26746,-14.000001 -0.89324,-2.2 -1.75987,-4.189354 -1.92584,-4.420789 -0.38346,-0.534661 -14.37028,7.11586 -20.73638,11.342379 -2.65744,1.764309 -11.05744,5.067802 -18.66666,7.341095 -12.94022,3.865953 -15.43019,4.160365 -38.50162,4.552389 C 82.780168,63.86496 79.718447,63.63379 69.599997,60.783758 Z M 135.60161,48.60845 c 7.84962,-2.598688 16.17128,-5.898688 18.49259,-7.333334 2.32131,-1.434646 5.14859,-2.608448 6.28284,-2.608448 2.18033,0 21.31371,-13.917247 22.06103,-16.046771 1.10614,-3.152044 -6.29599,-4.006595 -25.92936,-2.993447 -11.08687,0.57212 -22.18687,0.740137 -24.66667,0.373373 -2.47979,-0.366765 -15.60871,-0.366765 -29.17537,0 C 89.1,20.366587 75,20.260469 71.333333,19.764005 c -3.666666,-0.496464 -16.116666,-0.946464 -27.666666,-1 -19.478304,-0.09028 -21,0.07905 -21,2.33691 0,4.347387 8.337001,10.326284 28.724546,20.599863 12.11642,6.105639 16.523652,7.612441 25.832598,8.831989 6.173096,0.808727 11.523096,1.769698 11.888889,2.135491 0.365793,0.365792 7.764236,0.665077 16.44099,0.665077 14.49276,0 16.93673,-0.384302 30.04792,-4.724885 z m 66.84211,-6.451162 c 0.57659,-2.973608 -3.27403,-8.823953 -5.80779,-8.823953 -2.61968,0 -2.5059,4.608129 0.21635,8.762819 2.38448,3.639177 4.89235,3.666597 5.59144,0.06113 z"
       id="path412" />
  </g>
</svg>
