<?xml version="1.0" encoding="UTF-8" standalone="no"?>
<!-- Created with Inkscape (http://www.inkscape.org/) -->

<svg
   version="1.1"
   id="svg229"
   width="224"
   height="209.33333"
   viewBox="0 0 224 209.33333"
   xmlns="http://www.w3.org/2000/svg"
   xmlns:svg="http://www.w3.org/2000/svg">
  <defs
     id="defs233" />
  <g
     id="g235">
    <path
       style="fill:#000000;stroke-width:1.33333"
       d="m 95.333333,201.84129 c -22.966578,-1.75679 -35.350828,-4.11051 -56,-10.64323 -46.9585047,-14.85612 -45.2837747,-23.28312 7.022348,-35.33542 25.89458,-5.96659 32.417411,-6.65618 64.977649,-6.86931 30.08032,-0.19691 32.95984,0.001 48,3.30944 8.8,1.9354 21.1,5.32247 27.33334,7.52681 6.23333,2.20436 14.93333,5.27536 19.33333,6.82446 10.05377,3.5396 13.31524,6.93732 10.96495,11.42302 C 214.8446,182.12388 206.91993,188 203.58265,188 c -1.41126,0 -6.54469,1.25025 -11.40762,2.77834 -15.87475,4.98838 -17.20474,5.31315 -29.75951,7.26708 -10.82932,1.6854 -33.72353,4.34424 -43.74885,5.08083 -1.83334,0.13469 -12.33334,-0.44353 -23.333337,-1.28496 z m 51.333337,-13.2428 c 8.43333,-1.04404 17.43333,-2.48381 20,-3.19948 4.73661,-1.32072 18.43998,-4.47985 26.33333,-6.07081 2.38333,-0.48038 4.33333,-1.68263 4.33333,-2.67168 0,-1.96448 -11.1407,-6.5733 -19.4431,-8.04343 -2.87296,-0.50873 -10.02356,-2.11304 -15.89023,-3.56515 -25.97667,-6.42968 -73.560732,-6.99573 -99.333333,-1.18168 -7.261978,1.63824 -11.581071,2.48678 -21.815423,4.2859 -9.061317,1.59292 -14.188895,3.66521 -14.174308,5.72853 0.01293,1.83869 9.723,7.44861 12.920555,7.4648 1.32138,0.007 8.102509,1.46167 15.069176,3.23327 6.966666,1.77161 19.836236,3.8857 28.599042,4.698 8.762808,0.81228 16.262808,1.82217 16.666667,2.2442 1.020364,1.06626 28.288774,-0.63894 46.734294,-2.92247 z m -17.28378,-83.17256 c -2.01827,-3.77117 1.16661,-6.278784 10.28328,-8.09655 9.41115,-1.876482 24.13038,-8.581085 25.2512,-11.501911 1.45999,-3.804656 -4.35512,-17.683186 -15.47226,-36.926707 -7.68479,-13.302161 -12.81555,-20.85221 -13.9301,-20.498488 -0.63341,0.201024 -1.98741,3.042749 -3.00887,6.314945 -4.1316,13.23533 -4.95481,15.171116 -8.69721,20.451717 -2.14295,3.023751 -4.88468,6.99773 -6.09273,8.831063 -1.20805,1.833333 -3.83302,5.133333 -5.83326,7.333333 C 106.65229,77.086332 100,90.082908 100,94.549006 c 0,2.10223 -1.108089,5.190667 -2.46242,6.863194 -2.016041,2.48971 -3.526677,2.96335 -8.333333,2.61285 -3.229003,-0.23547 -8.570914,-0.19245 -11.870914,0.0956 -13.845905,1.20852 -29.348814,0.43532 -31.347588,-1.56346 -1.732102,-1.7321 -1.736893,-2.31911 -0.03872,-4.743593 1.470124,-2.098896 3.97277,-2.975348 10.366307,-3.630385 4.635569,-0.474928 11.702969,-2.060435 15.705331,-3.523349 4.002365,-1.462915 8.585078,-2.659844 10.183809,-2.659844 2.85102,0 11.130861,-8.780466 11.130861,-11.803867 0,-2.597495 16.031447,-34.411415 20.274177,-40.233487 1.35098,-1.853878 5.29196,-9.053877 8.75774,-16 5.51469,-11.0525511 6.84598,-12.7792616 10.66322,-13.8303584 6.42742,-1.769824 10.6106,0.7007746 13.89768,8.2080294 1.5235,3.479493 4.99006,8.756284 7.70345,11.726204 2.7134,2.969918 7.36737,10.469918 10.34219,16.666666 5.36661,11.179061 6.77854,15.045586 9.71356,26.600146 0.83825,3.3 3.64417,10.341349 6.2354,15.647443 3.29813,6.753629 4.46182,10.641521 3.87954,12.961514 -1.22937,4.898191 -5.05117,6.451971 -11.55932,4.699511 -3.8905,-1.04761 -6.6432,-1.0525 -9.77968,-0.0174 -2.40081,0.79234 -6.71176,1.51088 -9.57988,1.59675 -2.8681,0.0859 -6.83494,0.97123 -8.8152,1.96747 -5.50886,2.77144 -14.01324,2.35785 -15.68332,-0.76273 z"
       id="path257" />
  </g>
</svg>
