<?xml version="1.0" encoding="UTF-8" standalone="no"?>
<!-- Created with Inkscape (http://www.inkscape.org/) -->

<svg
   version="1.1"
   id="svg219"
   width="217.33333"
   height="310.66666"
   viewBox="0 0 217.33333 310.66666"
   xmlns="http://www.w3.org/2000/svg"
   xmlns:svg="http://www.w3.org/2000/svg">
  <defs
     id="defs223" />
  <g
     id="g225">
    <path
       style="fill:#000000;stroke-width:1.33333"
       d="m 130.35257,304.38958 c -4.26499,-4.71276 -5.2313,-10.12568 -4.82997,-27.05567 l 0.39507,-16.66609 -4.53592,-2.66724 c -4.58273,-2.69477 -12.27844,-10.14531 -22.048418,-21.34596 l -5.333333,-6.11433 -12,-0.27015 c -6.6,-0.14857 -20.25,-0.12014 -30.333333,0.0632 l -18.333333,0.33333 v 5.85735 C 33.333333,242.85374 32.104604,244 25.319521,244 20.48314,244 17.90764,241.37464 13.937657,232.39782 12.186262,228.4376 9.5338091,223.64708 8.0433176,221.75222 4.890887,217.74456 4.4743947,210.3727 7.2693495,208.0531 c 3.0650085,-2.54373 7.0159365,-0.37986 10.3782675,5.68404 2.868119,5.1726 3.503499,5.58482 8.394352,5.44595 2.910251,-0.0827 22.391364,-0.82564 43.291363,-1.65115 20.9,-0.82549 47.899998,-1.79349 59.999998,-2.1511 12.1,-0.35762 34.15761,-1.05071 49.01691,-1.54022 24.8726,-0.81934 27.22722,-0.69966 29.66666,1.50802 3.05819,2.76761 3.47184,7.64257 0.83424,9.83158 -1.18749,0.98554 -11.16938,1.61854 -28.856,1.82992 -32.17205,0.38452 -32.48304,0.52746 -26.10738,11.99887 2.13701,3.84504 4.9865,8.4219 6.3322,10.1708 3.18716,4.14212 3.09717,10.47816 -0.21996,15.48685 -1.54591,2.33424 -2.65276,6.25593 -2.65788,9.41721 -0.007,4.188 -0.85734,6.23018 -3.74842,9 -2.05678,1.97054 -4.3638,3.58279 -5.12668,3.58279 -2.48346,0 -5.53633,4.51779 -8.10892,12 -2.76698,8.04765 -6.15034,9.98285 -10.00553,5.72292 z m -0.72529,-59.91311 c -0.70754,-1.36206 -1.72195,-5.47648 -2.25425,-9.14314 -1.09919,-7.57168 -2.16319,-8.62583 -8.70637,-8.62583 -7.11702,0 -8.90006,1.71618 -4.9562,4.77035 1.79127,1.38719 5.8319,5.99945 8.97919,10.24948 3.56335,4.81188 6.19428,7.2554 6.9732,6.47648 0.77892,-0.77892 0.7655,-2.18522 -0.0356,-3.72734 z M 76.139996,199 C 73.921267,193.6367 73.47337,90.602075 75.611104,77.333332 78.358595,60.279885 82.977325,48.012543 92.017772,33.757238 c 2.190224,-3.453627 3.982227,-6.650725 3.982227,-7.104663 0,-0.453938 -2.25,-1.92336 -5,-3.26538 -4.662588,-2.275375 -8.853134,-3.476577 -20.239368,-5.801522 -5.917305,-1.208249 -8.020368,-6.992604 -4.002985,-11.0099859 1.416628,-1.416628 3.154718,-2.5756872 3.862424,-2.5756872 4.759969,0 26.807843,9.5674931 29.48695,12.7956181 2.29358,2.7636 5.00498,2.2962 9.7005,-1.672208 5.91716,-5.000862 16.9815,-9.6244557 25.39893,-10.613759 6.38653,-0.7506108 7.26688,-0.552625 8.01432,1.8023858 1.49769,4.7187912 -0.49735,6.8204512 -7.9414,8.3658312 -6.19201,1.285457 -21.95938,9.866983 -21.93902,11.940505 0.004,0.393228 1.05386,2.28427 2.33333,4.202316 1.27948,1.918045 4.08402,6.118045 6.23233,9.333333 6.35378,9.509452 13.87832,29.508406 15.37445,40.862736 0.74768,5.674116 2.24158,16.811385 3.31978,24.749492 1.54365,11.36483 3.14389,79.32765 2.17453,92.35305 -0.0595,0.79896 -1.53321,2.10198 -3.275,2.89559 -2.76555,1.26007 -3.35696,1.02577 -4.66667,-1.84872 -0.82488,-1.8104 -1.49977,-4.97968 -1.49977,-7.04281 0,-7.84606 -1.73162,-16.12336 -3.37301,-16.12336 -1.15231,0 -1.97326,3.74028 -2.62311,11.951 -0.52024,6.57304 -1.65406,12.53872 -2.5196,13.25706 -3.22199,2.674 -4.97767,-0.81206 -5.70905,-11.33589 -0.40283,-5.79636 -0.99968,-10.82147 -1.32632,-11.16689 -1.58843,-1.67976 -3.07683,4.20997 -3.09516,12.24781 -0.0164,7.19828 -0.4845,9.20145 -2.38818,10.22027 -4.66475,2.4965 -6.96557,-0.55547 -6.96557,-9.23962 0,-4.36356 -0.5358,-7.93374 -1.19068,-7.93374 -1.74742,0 -2.80932,3.5279 -2.80932,9.33333 0,7.08431 -1.11954,9.33333 -4.646057,9.33333 -4.588792,0 -5.686229,-2.39121 -6.231076,-13.57693 -0.274426,-5.63399 -0.899417,-10.64407 -1.388869,-11.13352 -2.251035,-2.25103 -3.735535,1.62189 -3.752203,9.78915 -0.02454,12.02289 -0.926269,14.9213 -4.642208,14.9213 -2.03364,0 -3.51015,-1.19434 -4.532921,-3.66666 z m 29.193334,-18.92131 c 0,-2.61591 -2.25443,-4.93537 -3.54378,-3.64603 -1.04701,1.04702 0.86695,6.234 2.3003,6.234 0.68391,0 1.24348,-1.16458 1.24348,-2.58797 z m 25.60441,-39.41203 C 130.38473,107.11667 124.81619,69.778144 118.46791,57.053116 117.11056,54.332331 116,51.493982 116,50.745672 c 0,-0.748308 -2.14147,-4.708218 -4.75883,-8.799801 -5.79373,-9.057061 -8.06073,-9.046253 -12.458274,0.0594 -1.769407,3.663769 -3.785131,7.808499 -4.479387,9.210509 -6.758809,13.649035 -8.99,30.235222 -9.880685,73.45089 -0.651815,31.62579 -0.04488,38.90087 3.312871,39.71011 1.245368,0.30013 11.564303,0.48814 22.930965,0.4178 l 20.66667,-0.12787 -0.39559,-24 z"
       id="path396" />
  </g>
</svg>
