<?xml version="1.0" encoding="UTF-8" standalone="no"?>
<!-- Created with Inkscape (http://www.inkscape.org/) -->

<svg
   version="1.1"
   id="svg209"
   width="225.33333"
   height="206.66667"
   viewBox="0 0 225.33333 206.66667"
   xmlns="http://www.w3.org/2000/svg"
   xmlns:svg="http://www.w3.org/2000/svg">
  <defs
     id="defs213" />
  <g
     id="g215">
    <path
       style="fill:#000000;stroke-width:1.33333"
       d="M 81.999999,197.40202 C 60.260054,192.82195 50.448485,188.93911 37.572217,179.82012 33.407497,176.87066 27.277422,172.6083 23.949828,170.3482 17.551466,166.00244 9.3333332,155.3971 9.3333332,151.48588 c 0,-4.34285 2.5791878,-7.17269 7.3537318,-8.0684 6.592111,-1.23669 178.116955,-1.02705 187.979595,0.22975 6.9765,0.88901 8.05575,1.41264 8.43568,4.09283 0.23963,1.69037 -0.27833,3.93374 -1.15104,4.98528 -1.27476,1.536 -0.77058,2.84144 2.56432,6.63968 2.28307,2.60028 4.15754,5.15689 4.16547,5.68138 0.008,0.52448 0.84253,3.68162 1.85464,7.01584 4.92303,16.21806 -10.25704,27.87307 -22.40793,17.20446 -2.54742,-2.23667 -5.31482,-6.13667 -6.1498,-8.66667 C 191.14302,178.07002 189.80892,176 189.01333,176 c -0.7956,0 -4.19907,1.7527 -7.56327,3.89487 -8.76281,5.57979 -34.51057,15.66548 -46.10776,18.06095 -12.98021,2.68113 -39.283467,2.40805 -53.342301,-0.5538 z m 51.333331,-11.47735 c 12.67023,-2.62673 19.3568,-4.88853 29.31908,-9.91747 C 170.76732,171.9108 188,159.00918 188,157.03016 c 0,-2.47785 -6.74842,-3.28154 -19.33334,-2.30245 -7.33333,0.57052 -40.93333,0.7984 -74.666661,0.50641 -36.928367,-0.31965 -62.119829,-0.0328 -63.309914,0.72106 -1.649289,1.04464 -1.318119,1.94445 2,5.43409 5.598052,5.88743 10.842504,8.39951 19.264278,9.22753 6.492981,0.6384 7.629717,1.22543 10.424085,5.3832 3.85111,5.73011 7.532719,7.88499 13.621551,7.97283 2.566667,0.0371 7.066666,0.93196 10,1.98872 7.366597,2.65392 34.455901,2.6328 47.333331,-0.0369 z m 76,-8.96132 c 0,-3.78523 -3.50988,-8.96335 -6.0756,-8.96335 -2.42391,0 -2.42231,1.56066 0.008,7.37616 2.1998,5.26486 6.06804,6.27664 6.06804,1.58719 z M 8.3333332,129.18043 C 5.8508283,126.62778 6.392958,122.43766 9.7146171,118.50448 13.684856,113.80331 16.267893,112.71059 28,110.76905 c 26.417717,-4.37184 45.273272,-8.54664 51.333332,-11.365671 10.706563,-4.980507 16.655289,-7.403378 18.177064,-7.403378 1.602123,0 6.255854,-1.98316 22.231394,-9.473765 6.09131,-2.856096 11.4047,-5.192901 11.80752,-5.192901 0.40282,0 2.42034,-1.35 4.48337,-3 2.06304,-1.65 6.26528,-4.500001 9.33832,-6.333334 6.7168,-4.007136 9.29804,-9.103783 5.69584,-11.246377 -4.32178,-2.570588 -18.33952,-7.414107 -21.46639,-7.417229 -3.91497,-0.0039 -10.38991,-3.32924 -11.34896,-5.828473 -0.79641,-2.07542 0.75366,-3.637489 9.19679,-9.267953 2.99656,-1.998312 9.13282,-8.311059 13.63616,-14.028329 4.50332,-5.717268 9.5516,-11.0590328 11.21837,-11.8705879 4.78043,-2.3275836 25.3642,-4.3906362 27.35147,-2.7413576 2.48648,2.0636008 2.06452,4.2305977 -1.6626,8.5382015 -1.83791,2.124158 -5.73791,6.629203 -8.66667,10.011212 -6.35777,7.341703 -6.64835,10.371019 -1.36916,14.274094 3.49679,2.58528 21.14463,6.387011 24.89395,5.362699 2.82842,-0.772724 6.96028,1.942545 7.75117,5.09373 1.05623,4.208339 -4.12928,12.330106 -11.21921,17.572039 -2.59331,1.917352 -7.70615,6.118581 -11.3619,9.336062 -3.65573,3.21748 -8.00573,6.366632 -9.66666,6.998116 -1.66092,0.631483 -3.01987,1.72264 -3.01987,2.424795 0,0.702153 -7.05,4.660134 -15.66667,8.795515 -8.61666,4.13538 -16.70905,8.076072 -17.98308,8.757092 -1.27403,0.68102 -4.87403,2.13765 -8,3.23696 -33.453088,11.76442 -38.332044,13.13625 -54.350248,15.28181 -4.766666,0.63847 -12.266666,2.10849 -16.666666,3.26671 -7.452048,1.96161 -20.133717,3.94693 -36,5.63582 -4.500081,0.47901 -7.2083125,0.15268 -8.3333328,-1.00412 z M 138.78877,89.135907 c 7.63284,-3.775252 17.77789,-9.970587 22.54456,-13.767412 4.76667,-3.796826 11.50563,-8.52681 14.97548,-10.511074 5.33916,-3.053249 10.32291,-8.365653 8.79921,-9.37948 -0.24274,-0.161519 -3.74136,-1.089528 -7.77469,-2.062244 -9.37583,-2.261158 -13.82415,-4.552856 -21.66667,-11.16227 -4.94725,-4.169388 -6.33333,-6.207981 -6.33333,-9.314872 V 28.961208 L 146,33.87315 c -1.83334,2.701568 -3.33334,5.378717 -3.33334,5.94922 0,1.229699 10.34232,8.177631 12.17278,8.177631 0.69673,0 3.64289,1.212194 6.54701,2.693765 4.47956,2.285303 5.28021,3.336632 5.28021,6.933408 0,3.565003 -1.6443,5.782911 -10.33333,13.93799 C 150.65,76.899253 144.5,82.045001 142.66666,83.000159 c -7.99312,4.164373 -18.7273,10.685941 -19.41198,11.793764 -1.43243,2.317727 1.75842,1.155513 15.53409,-5.658016 z M 12.359593,63.388869 C 5.9049463,60.534424 2.6776004,54.24635 2.6716508,44.513146 2.6659841,35.246703 4.4262287,32.172629 13.232384,26.069959 c 4.747022,-3.289689 6.22522,-3.657347 11.692029,-2.908036 9.607113,1.316801 17.843505,10.730151 17.979004,20.548155 0.08336,6.039783 -4.353651,15.431411 -8.607158,18.218415 -4.467707,2.927355 -16.767818,3.746203 -21.936666,1.460376 z m 17.169855,-11.9535 c 1.979969,-4.34556 0.331106,-12.392718 -2.8928,-14.1181 -5.811946,-3.110459 -14.563316,3.279005 -12.668408,9.249333 1.182332,3.725197 7.073137,8.100066 10.906822,8.100066 2.073559,0 3.695004,-1.125686 4.654386,-3.231299 z m 33.803884,10.921167 c -6.063553,-3.521834 -8.472814,-8.745379 -8.59141,-18.627131 -0.10024,-8.35225 1.720344,-11.891214 8.36918,-16.268537 17.268238,-11.368708 37.184568,8.331385 27.538413,27.239417 -3.403883,6.672163 -7.304203,9.209163 -15.480872,10.069683 -5.207816,0.548074 -7.563531,0.0677 -11.835311,-2.413432 z M 79.666665,51.682778 c 2.622707,-2.112795 2.016803,-9.999308 -0.999999,-13.016111 -5.619599,-5.619598 -16,-1.690245 -16,6.056574 0,8.186147 10.26222,12.387341 16.999999,6.959537 z"
       id="path540" />
  </g>
</svg>
