<?xml version="1.0" encoding="UTF-8" standalone="no"?>
<!-- Created with Inkscape (http://www.inkscape.org/) -->

<svg
   version="1.1"
   id="svg119"
   width="228"
   height="284"
   viewBox="0 0 228 284"
   xmlns="http://www.w3.org/2000/svg"
   xmlns:svg="http://www.w3.org/2000/svg">
  <defs
     id="defs123" />
  <g
     id="g125">
    <path
       style="fill:#000000;stroke-width:1.33333"
       d="m 24,277.45801 c -8.433333,-0.43524 -16.0833333,-1.27676 -17,-1.87004 -2.2296704,-1.44306 -2.1155148,-9.51246 0.2082371,-14.7198 1.0311972,-2.31082 2.2080333,-5.71366 2.6151914,-7.56186 2.1639025,-9.82252 16.2418785,-23.95036 26.7021205,-26.7967 13.432111,-3.655 24.848158,-1.60437 37.753935,6.78163 10.752988,6.98716 16.260404,15.01587 21.300131,31.05135 1.16312,3.70084 -2.13717,9.96704 -6.02733,11.44398 C 85.104903,277.47508 44.42732,278.51227 24,277.45801 Z M 71.561275,264 c 11.342329,0 11.486061,-5.21935 0.483676,-17.56375 -13.745671,-15.4223 -29.06602,-15.63349 -44.738388,-0.61672 -4.951516,4.74439 -5.97323,6.56068 -5.97323,10.61858 0,4.68769 1.588494,6.3851 3.333334,3.56189 1.449908,-2.346 9.735516,-1.50572 12.30048,1.24744 2.594009,2.78435 11.341645,4.10096 21.552281,3.24385 C 61.738447,264.22108 67.607279,264 71.561275,264 Z m 75.105395,10.79135 c -8.43334,-0.43524 -16.08334,-1.27676 -17,-1.87004 -2.22967,-1.44307 -2.11552,-9.51247 0.20823,-14.7198 1.0312,-2.31083 2.20804,-5.71367 2.61519,-7.56187 2.16391,-9.82252 16.24188,-23.95036 26.70212,-26.79669 13.43211,-3.655 24.84816,-1.60438 37.75394,6.78162 10.75298,6.98716 16.26041,15.01587 21.30013,31.05135 1.16312,3.70084 -2.13717,9.96704 -6.02733,11.44399 -4.44738,1.6885 -45.12496,2.72569 -65.55228,1.67144 z m 47.56128,-13.45802 c 11.34232,0 11.48605,-5.21934 0.48366,-17.56374 -13.74566,-15.42231 -29.06601,-15.6335 -44.73838,-0.61672 -4.95151,4.74438 -5.97323,6.56068 -5.97323,10.61857 0,4.68769 1.58849,6.38511 3.33333,3.56189 1.44991,-2.346 9.73552,-1.50572 12.30048,1.24744 2.59402,2.78435 11.34164,4.10096 21.55228,3.24386 3.21903,-0.27022 9.08786,-0.4913 13.04186,-0.4913 z m -69.9526,-47.31176 c -7.05149,-1.09336 -12.84856,-1.29864 -16,-0.56656 -6.6493,1.54464 -18.008702,1.4961 -29.845538,-0.1276 -5.369729,-0.73656 -18.283084,-1.53814 -28.696341,-1.7813 -19.112434,-0.4463 -23.727587,-1.60611 -22.202786,-5.57967 1.131926,-2.94976 11.614746,-3.92147 16.423756,-1.52241 3.623347,1.80756 4.67306,1.82432 8.706663,0.13897 2.886028,-1.2058 9.241179,-1.91633 17.140563,-1.91633 10.796924,0 12.653313,-0.32658 13.263684,-2.33334 0.390334,-1.28333 1.902724,-5.4673 3.360865,-9.29772 2.569488,-6.74981 5.81902,-21.37456 7.494888,-33.73125 0.449721,-3.31595 -0.120493,-12.75537 -1.267144,-20.97651 C 90.793743,122.99066 89.723473,119.61494 82.71944,104.99351 78.402105,95.980756 74.465181,86.994793 73.97072,85.024701 72.479223,79.082105 70.552228,78.383073 61.885133,80.640565 49.235231,83.935447 46.429084,83.467889 42.256048,77.369992 37.936344,71.057776 40.045116,63.496256 50.124275,49.156525 c 2.498316,-3.55438 4.542392,-7.373201 4.542392,-8.486268 0,-2.041617 -0.39814,-2.077089 -21.83807,-1.945652 -5.908949,0.03622 -10.16193,1.89822 -10.16193,4.44899 0,3.354012 -4.996319,6.533412 -8.776202,5.584721 -3.36634,-0.844897 -3.517388,-1.233805 -2.914818,-7.504869 0.674279,-7.01736 3.253449,-10.935863 9.233418,-14.028226 2.22488,-1.150529 4.419092,-4.114208 5.881938,-7.944613 2.935582,-7.686714 8.130744,-10.5541321 22.666081,-12.5103187 8.43924,-1.135765 12.005847,-1.0410013 17.651455,0.4689943 9.044588,2.4190992 10.570858,3.7696984 11.916345,10.5447924 1.727825,8.700316 -1.013699,16.758563 -8.295396,24.382924 -7.593216,7.95054 -14.784851,18.57302 -15.909751,23.499667 -0.685936,3.004144 -0.380874,3.666666 1.68833,3.666666 1.655052,0 4.954456,-3.561629 9.572542,-10.333333 C 77.623847,41.047199 90.442272,31.813056 101.22826,33.176052 106.26687,33.812768 120.06938,45.259233 152,75.28122 c 3.3,3.102745 7.8,6.986969 10,8.631611 13.32517,9.961425 25.60715,23.005349 34.88595,37.050209 5.43697,8.22967 10.61185,15.42967 11.49973,16 7.20467,4.62792 11.33889,16.71153 12.41524,36.28759 l 0.84761,15.41604 -3.9693,4.94641 c -2.18314,2.72053 -4.751,7.73831 -5.7064,11.15063 -2.89344,10.33434 -10.42723,12.97218 -28.55306,9.99738 -9.44598,-1.55026 -11.94408,-5.04397 -11.03124,-15.42776 1.058,-12.03514 -0.68878,-20.58237 -4.95662,-24.25342 -5.41839,-4.6607 -7.41687,-4.06975 -6.49332,1.92009 0.42401,2.75 1.51405,6.5 2.42232,8.33333 1.07637,2.17267 1.24422,4.4151 0.48206,6.44004 -1.00232,2.66302 -1.76722,2.97539 -5.35585,2.18719 -2.30259,-0.50573 -7.21319,-2.32177 -10.91243,-4.03567 -3.69924,-1.71388 -7.28572,-2.77016 -7.96994,-2.34728 -1.37847,0.85194 -0.55616,13.24907 0.98068,14.78504 0.53418,0.53387 3.90242,0.84498 7.485,0.69135 4.37709,-0.18771 7.18333,0.39024 8.555,1.76191 4.25008,4.25008 2.00489,7.90136 -5.99156,9.74392 -7.47464,1.72233 -12.43207,1.6211 -26.35852,-0.53826 z m -9.1877,-10.26078 c 1.6018,-0.8649 4.78065,-1.4516 7.06413,-1.30379 3.85085,0.24927 4.27305,-0.16436 5.8248,-5.70667 0.92015,-3.28648 1.26861,-7.64977 0.77434,-9.69621 -0.49426,-2.04643 -1.52593,-6.1096 -2.29258,-9.02925 l -1.39391,-5.30847 -1.90813,3.6418 c -2.11815,4.04263 -4.83021,4.49592 -9.82297,1.6418 -5.84034,-3.33864 -9.07632,-2.52947 -11.31544,2.82949 -1.10984,2.65623 -2.01789,6.14155 -2.01789,7.74516 0,1.60362 -0.880917,4.08035 -1.957596,5.50384 -1.076677,1.4235 -1.976677,3.82868 -2,5.34486 -0.04196,2.72754 0.544648,2.94992 15.045246,5.70345 0.59822,0.1136 2.39822,-0.50111 4,-1.36601 z m 83.02374,-1.44135 c 0.16821,-0.17569 0.72209,-3.11615 1.23085,-6.53435 1.06699,-7.16872 -0.28271,-8.51437 -9.34224,-9.31422 L 184.66667,186 l 0.20253,7.25559 c 0.23684,8.48422 2.80201,11.36548 9.03357,10.14665 2.14654,-0.41984 4.0404,-0.90711 4.20862,-1.0828 z m 10.74416,-25.93061 c 0.55,-2.1914 0.0357,-6.06232 -1.30794,-9.84563 -1.21785,-3.42893 -2.21428,-7.22781 -2.21428,-8.44193 0,-2.9572 -4.86638,-12.35482 -7.09245,-13.69643 -2.47653,-1.49259 -16.90755,-20.97195 -16.90755,-22.82228 0,-3.07935 -25.35916,-25.943532 -48.54959,-43.772991 C 129.78602,75.504832 122.23333,68.438941 116,62.107589 100.72483,46.592221 95.167149,45.115172 84.817511,53.820315 78.97202,58.736992 78.65854,66.873397 83.750036,81.526736 c 2.202815,6.339705 5.093389,13.239705 6.4235,15.333333 3.652791,5.749591 16.241124,21.692371 22.563384,28.575901 3.08277,3.35646 7.24303,8.69739 9.24501,11.86875 3.21378,5.09095 5.12794,9.54355 11.96148,27.82404 1.02476,2.74135 3.67112,5.68059 6.8623,7.62175 7.47666,4.54801 8.54626,5.00864 9.47462,4.08026 0.83706,-0.83705 -0.66985,-9.33648 -3.77028,-21.26557 -1.41245,-5.43452 -1.37482,-6.62311 0.2421,-7.64624 3.5041,-2.21731 5.41722,-1.31021 13.69658,6.49421 4.51987,4.26059 10.64239,9.61158 13.60562,11.89108 8.61524,6.62743 23.38724,13.59979 28.92025,13.65032 4.31281,0.0393 5.09517,-0.43497 5.88095,-3.56574 z m -93.59426,-14.57647 c 1.64189,-6.54183 -0.62815,-17.33261 -4.85551,-23.08092 -2.18339,-2.96896 -4.5179,-5.39811 -5.18779,-5.39811 -1.88381,0 -1.52577,28.49222 0.38201,30.4 0.88,0.88 3.21495,1.6 5.18879,1.6 2.76706,0 3.79113,-0.8062 4.4725,-3.52097 z M 45.333333,22.666667 c 0,-0.733334 -0.9,-1.333334 -2,-1.333334 -1.1,0 -2,0.6 -2,1.333334 0,0.733333 0.9,1.333333 2,1.333333 1.1,0 2,-0.6 2,-1.333333 z"
       id="path679" />
  </g>
</svg>
