<?xml version="1.0" encoding="UTF-8" standalone="no"?>
<!-- Created with Inkscape (http://www.inkscape.org/) -->

<svg
   version="1.1"
   id="svg355"
   width="184"
   height="204"
   viewBox="0 0 184 204"
   xmlns="http://www.w3.org/2000/svg"
   xmlns:svg="http://www.w3.org/2000/svg">
  <defs
     id="defs359" />
  <g
     id="g361">
    <path
       style="fill:#000000;stroke-width:1.33333"
       d="m 57.619568,197.76792 c -0.942571,-0.37851 -3.825449,-4.68115 -6.406397,-9.5614 -2.580948,-4.88025 -6.376424,-11.87319 -8.434391,-15.53985 -6.196413,-11.04011 -14.393983,-26.10896 -19.580568,-35.99319 -2.691667,-5.12959 -6.265687,-11.12959 -7.942265,-13.33334 -4.730347,-6.21771 -5.3722178,-10.64054 -1.897439,-13.07437 3.230816,-2.26295 8.436881,-1.1619 14.641492,3.09657 1.833333,1.25829 4.725539,2.72035 6.427123,3.24902 6.632257,2.06058 66.599987,32.66827 67.225677,34.31216 1.24157,3.26203 -1.32658,7.1116 -14.495344,21.72803 -24.085616,26.73338 -24.542935,27.12225 -29.537888,25.11637 z m 16.983181,-26.96677 c 7.214582,-7.1055 12.184676,-13.10203 12.389143,-14.94782 0.294528,-2.65878 -1.307355,-3.89522 -11.658559,-8.9989 -6.6,-3.25414 -13.5,-6.70767 -15.333333,-7.67451 -18.598889,-9.80849 -30.229095,-14.7286 -31.592572,-13.36513 -0.399443,0.39945 0.507491,2.70453 2.015408,5.1224 1.507917,2.41788 4.929455,8.59614 7.603416,13.72948 4.143844,7.95514 23.291651,38 24.217676,38 0.171115,0 5.732584,-5.33948 12.358821,-11.86552 z m 80.637461,-39.75141 c -1.99396,-1.99397 -2.19374,-4.81381 -1.67602,-23.65677 C 153.88747,95.626835 153.78293,84.2 153.33188,82 c -0.8922,-4.351723 0.73644,-9.485091 3.32436,-10.478169 0.89561,-0.343678 3.06435,0.09379 4.8194,0.972144 3.12836,1.565652 3.19327,1.962672 3.30496,20.218185 0.0627,10.24165 0.52317,21.69469 1.02337,25.45121 1.11095,8.34336 0.29847,10.70376 -4.54686,13.20938 -3.36326,1.73921 -3.98823,1.70566 -6.0169,-0.32301 z M 9.1488181,54.643151 C 5.5934495,52.566812 5.1895299,47.464203 7.9071392,38.957347 14.173523,19.341864 22.826301,10.533772 40.381249,5.9003443 52.425163,2.7214912 70.543208,7.5497452 79.78738,16.401632 86.114667,22.460413 91.889044,34.547252 92.850391,43.744928 94.181335,56.478704 95.827068,56.006967 50.238095,55.959455 27.964112,55.936243 10.39951,55.373556 9.1488181,54.643151 Z M 71.147239,44.485435 c 7.031833,-0.96382 7.639386,-2.291822 2.792665,-6.104254 -3.027232,-2.381221 -3.298469,-3.302516 -2.513459,-8.537338 1.032474,-6.885027 -0.158214,-8.793099 -8.003914,-12.826231 -8.375459,-4.305457 -21.887067,-3.697011 -29.962206,1.34924 -5.905406,3.69036 -6.115469,4.042285 -5.808369,9.730989 0.175243,3.246188 -0.347775,7.552702 -1.16226,9.570031 -2.745239,6.799449 -0.468307,7.665461 20.154135,7.665461 10.074522,0 21.101056,-0.381554 24.503408,-0.847898 z"
       id="path532" />
  </g>
</svg>
