<?xml version="1.0" encoding="UTF-8" standalone="no"?>
<!-- Created with Inkscape (http://www.inkscape.org/) -->

<svg
   version="1.1"
   id="svg185"
   width="209.33333"
   height="220"
   viewBox="0 0 209.33333 220"
   xmlns="http://www.w3.org/2000/svg"
   xmlns:svg="http://www.w3.org/2000/svg">
  <defs
     id="defs189" />
  <g
     id="g191">
    <path
       style="fill:#000000;stroke-width:1.33333"
       d="m 155.92802,209.56452 c -15.4605,-8.66533 -18.40273,-11.95549 -17.51224,-19.58315 0.75383,-6.45714 5.2756,-6.38577 10.26992,0.16211 2.01788,2.64559 6.4391,6.09559 9.82492,7.66667 13.53699,6.28142 18.26282,12.25494 12.2437,15.47628 -3.78612,2.02626 -5.20683,1.66962 -14.8263,-3.72191 z m 26.78555,-0.14353 c -1.99807,-3.73343 -1.7686,-4.75486 2.10152,-9.35423 1.91497,-2.27581 3.96228,-6.07185 4.54957,-8.43564 0.58731,-2.36377 1.82404,-6.17357 2.74831,-8.46621 2.24569,-5.57038 0.19637,-10.41019 -8.99605,-21.24571 -5.2098,-6.14103 -9.13043,-9.26371 -15.07866,-12.0098 C 163.61722,147.86835 160,145.69619 160,145.08239 c 0,-1.45763 -13.79963,-7.54082 -20.54359,-9.05608 -6.53463,-1.46823 -11.77298,0.90886 -15.51039,7.03842 -3.2781,5.37627 -3.30787,8.46939 -0.0981,10.18724 3.07232,1.64426 8.15203,9.9834 8.15203,13.38286 0,1.36532 1.04915,4.31044 2.33145,6.54472 2.17449,3.78884 2.18209,4.21166 0.1128,6.28092 -3.52954,3.52954 -8.34139,1.42032 -12.34498,-5.41128 -3.24704,-5.54066 -8.17043,-21.21578 -9.69272,-30.85972 -0.73437,-4.65236 2.90401,-12.9501 7.50149,-17.108 4.50177,-4.07135 16.33396,-4.35262 28.25273,-0.67162 9.14544,2.82447 21.75797,10.22451 24.24745,14.22648 0.59122,0.95042 3.89122,3.16859 7.33334,4.92927 12.48828,6.38789 22.94794,19.95521 23.72026,30.76773 0.20954,2.93334 0.79014,7.00352 1.29023,9.04486 1.7988,7.34252 -5.98317,21.43197 -14.17804,25.6697 -4.95939,2.5646 -6.20563,2.4652 -7.86048,-0.6269 z M 7.6400889,203.77735 c -8.58557208,-6.4774 -2.4878199,-26.5066 12.4904201,-41.02714 6.905439,-6.69441 9.0665,-7.97318 15.938909,-9.43161 4.372692,-0.92795 11.429367,-1.37171 15.681499,-0.98615 9.241253,0.83798 22.362214,7.04019 27.294639,12.90204 4.255972,5.05794 11.198005,19.60887 12.838551,26.9104 1.100226,4.89675 0.89343,5.86546 -1.834511,8.59339 -2.997431,2.99743 -3.721945,3.07496 -28.895392,3.09215 -14.201479,0.01 -31.520871,0.4023 -38.487538,0.87248 -9.578667,0.64646 -13.2419875,0.42082 -15.0265771,-0.92556 z M 72.999999,190.3668 c 6.853624,-1.95405 7.096621,-3.75077 1.624573,-12.01207 -4.246513,-6.41106 -9.576345,-11.05588 -17.182601,-14.97421 -13.68673,-7.05068 -40.108638,9.48827 -40.108638,25.10621 0,2.96907 0.09011,2.98075 25,3.23776 16.329673,0.1685 26.965274,-0.30237 30.666666,-1.35769 z M 69.987184,41.319665 c -1.473714,-0.548129 -5.002797,-4.969289 -7.842405,-9.824798 -2.839608,-4.855511 -5.846373,-8.8282 -6.6817,-8.8282 -0.835327,0 -3.000924,2.85 -4.812438,6.333333 -4.289322,8.247869 -7.876502,12.333333 -10.829102,12.333333 -3.245216,0 -8.216565,-5.636561 -11.891493,-13.482685 -1.6789,-3.584523 -3.854842,-6.517315 -4.835425,-6.517315 -0.980584,0 -2.734115,2.377371 -3.896736,5.283047 -2.0488,5.120455 -5.762769,7.761283 -8.519287,6.057661 -2.5320176,-1.564873 -1.1350767,-8.007972 3.759672,-17.340708 7.34081,-13.9965966 9.446619,-13.5860415 20.065393,3.912011 2.477016,4.081728 4.927208,7.421323 5.444871,7.421323 0.517664,0 2.691015,-3.346823 4.829669,-7.437383 4.510694,-8.627509 7.845444,-12.5626173 10.646009,-12.5626173 1.09285,0 4.819476,4.4969563 8.281392,9.9932363 3.461918,5.49628 7.036852,9.99628 7.944299,10 0.907448,0.0037 3.706844,-4.077772 6.220881,-9.069983 C 84.275953,4.8709509 85.656381,3.9698071 90.610628,9.2733449 92.792687,11.609247 96.44199,16.778341 98.72019,20.76022 100.99839,24.742099 103.42716,28 104.11745,28 c 1.62317,0 6.53774,-8.048257 6.54423,-10.717032 0.003,-1.127701 1.68069,-4.057585 3.72876,-6.510853 4.23531,-5.0732118 7.6258,-4.9317253 10.94289,0.456651 C 130.58266,19.755929 136.55069,28 137.47433,28 c 0.56388,0 2.92028,-3.849379 5.23644,-8.554176 5.22752,-10.6186097 9.79451,-15.2878407 12.98476,-13.2754781 1.23329,0.7779428 4.48031,5.5491871 7.21556,10.6027651 2.73527,5.053578 5.50681,9.36619 6.15899,9.583584 1.37633,0.458778 8.24894,-9.481708 8.2929,-11.994775 0.0471,-2.695669 4.36582,-7.2763024 7.58672,-8.0469088 2.32635,-0.5565824 3.57588,0.3217656 5.9127,4.1562998 6.72906,11.041841 13.9839,26.327514 13.38206,28.195497 -1.84886,5.73856 -6.98897,3.707705 -11.08089,-4.378056 -1.56483,-3.092147 -4.05017,-7.331827 -5.52301,-9.421509 l -2.67788,-3.799424 -3.89563,6.258894 c -2.1426,3.442391 -4.44436,7.702132 -5.11501,9.46609 C 175.05778,39.14488 173.71933,40 170.93208,40 c -4.59476,0 -8.06454,-3.521929 -12.80747,-13 -1.92657,-3.85 -4.09767,-7 -4.82465,-7 -0.72699,0 -3.56066,4.524653 -6.29703,10.054784 -3.43633,6.944696 -5.88403,10.282873 -7.91331,10.792191 -4.06312,1.019778 -4.8876,0.296174 -11.75062,-10.312986 -3.32198,-5.135258 -6.65656,-8.955758 -7.41018,-8.489998 -2.07739,1.283897 -7.71444,10.6376 -8.64484,14.344602 -0.45233,1.802252 -2.12628,3.870866 -3.71987,4.596918 -3.16844,1.443564 -8.897445,-0.02652 -8.897445,-2.28312 0,-2.495002 -9.952973,-17.369058 -11.622502,-17.369058 -0.896544,0 -3.664744,4.403763 -6.151555,9.78614 -4.72556,10.227855 -6.46266,11.85262 -10.905424,10.200192 z"
       id="path213" />
  </g>
</svg>
