<?xml version="1.0" encoding="UTF-8" standalone="no"?>
<!-- Created with Inkscape (http://www.inkscape.org/) -->

<svg
   version="1.1"
   id="svg175"
   width="106.66667"
   height="217.33333"
   viewBox="0 0 106.66667 217.33333"
   xmlns="http://www.w3.org/2000/svg"
   xmlns:svg="http://www.w3.org/2000/svg">
  <defs
     id="defs179" />
  <g
     id="g181">
    <path
       style="fill:#000000;stroke-width:1.33333"
       d="m 64.666669,211.84038 c -3.666667,-0.51705 -16.266667,-1.05248 -28.000001,-1.18981 -11.733334,-0.13735 -22.830184,-0.66621 -24.659666,-1.17528 -4.9243226,-1.37019 -4.7497123,-4.73477 0.49332,-9.50583 10.074581,-9.16766 11.347759,-20.72712 3.389617,-30.77509 -4.405682,-5.56263 -9.2232721,-17.17332 -9.2232721,-22.22867 0,-1.68957 1.2446197,-5.5116 2.7658218,-8.4934 l 2.7658213,-5.42145 7.456697,0.93165 c 8.615278,1.0764 15.924114,5.22886 21.06365,11.96714 1.978816,2.59437 4.282307,4.71702 5.118867,4.71702 2.645986,0 4.846204,-5.10537 5.693404,-13.21094 0.767067,-7.3389 0.556495,-8.17248 -3.279522,-12.98242 -2.254571,-2.82698 -5.078381,-8.05219 -6.27513,-11.61157 -2.875157,-8.55132 -0.90118,-17.125455 6.38813,-27.747381 4.414037,-6.432101 5.035044,-8.094785 3.647716,-9.766413 -0.919586,-1.108032 -3.155931,-2.014604 -4.969658,-2.014604 -5.223165,0 -10.701795,-3.963328 -11.585332,-8.381014 -1.471754,-7.358767 -0.80117,-14.370903 1.876202,-19.618985 1.466667,-2.874904 2.666667,-6.069572 2.666667,-7.099262 0,-1.029689 -2.941784,-7.803591 -6.537299,-15.053117 C 27.750482,11.663581 27.141382,9.6634372 28.636656,7.3333332 30.076576,5.0894854 31.905896,4.642557 40.173955,4.5146103 45.57828,4.4309794 56.49032,4.1608065 64.422933,3.9142262 83.685695,3.315455 84.704504,4.9371943 77.121242,24.127378 l -4.212093,10.659115 4.702088,4.940086 c 8.342467,8.764723 12.885451,25.068253 17.166745,61.606751 3.840062,32.77284 3.924069,31.47671 -2.361154,36.43011 -3.621505,2.85412 -3.763143,4.83042 -1.083492,15.1183 2.419111,9.28759 2.569147,22.2022 0.381012,32.7961 l -1.618989,7.83837 5.618989,5.18839 c 9.250402,8.54153 7.119222,11.88716 -7.716028,12.11298 -5.348733,0.0815 -11.286472,0.55638 -13.194976,1.05547 -1.908504,0.49909 -6.470009,0.4844 -10.136675,-0.0327 z M 76.1832,196 c 2.460089,-11.88056 3.454728,-33.23806 2.151214,-46.19222 -1.616454,-16.06413 -0.902744,-20.11368 3.750783,-21.28164 3.284119,-0.82426 3.358595,-1.09324 2.682118,-9.68697 C 84.384625,113.97762 83.733685,104.6 83.32078,97.999998 82.353137,82.532897 80.237247,71.258252 77.137701,65.053116 c -1.359068,-2.720785 -2.471032,-5.849908 -2.471032,-6.953605 0,-2.775368 -7.573794,-11.143964 -12.295244,-13.585521 -5.368767,-2.776297 -11.000451,-1.259457 -15.053646,4.054555 -5.754235,7.54419 -3.228536,16.764787 4.592197,16.764787 4.940326,0 9.059195,3.306658 10.116783,8.121824 0.718838,3.272844 -0.217706,6.373364 -4.561091,15.099945 -6.319342,12.696609 -7.328296,22.033649 -2.982264,27.598419 3.721258,4.76479 8.173691,14.03655 8.472117,17.64236 0.14503,1.75237 -0.737832,6.41517 -1.961916,10.36178 -4.893679,15.77788 -6.326937,21.12322 -6.326937,23.59627 0,4.00191 -3.544518,6.26151 -7.54328,4.80877 -2.335395,-0.84844 -4.956439,-4.26732 -8.458737,-11.03356 -6.380939,-12.3276 -12.71314,-19.12474 -17.315666,-18.58705 -5.177336,0.60484 -4.996304,5.41653 0.541332,14.38821 2.626993,4.25607 4.776351,8.42176 4.776351,9.25712 0,0.83535 1.272636,4.01339 2.82808,7.06231 2.28556,4.48007 2.695366,7.0916 2.13626,13.61355 -0.380502,4.43853 -1.09901,9.0723 -1.596687,10.29729 -1.258719,3.09821 1.636003,3.47373 25.240786,3.27445 l 19.941774,-0.16836 z M 66.216447,24.821217 c 5.282382,-10.770568 4.522187,-11.487884 -12.174599,-11.487884 -16.172003,0 -16.043144,-0.139643 -10.430756,11.303795 L 47.222183,32 h 7.736729 7.736731 z"
       id="path352" />
  </g>
</svg>
