<?xml version="1.0" encoding="UTF-8" standalone="no"?>
<!-- Created with Inkscape (http://www.inkscape.org/) -->

<svg
   version="1.1"
   id="svg165"
   width="72"
   height="205.33333"
   viewBox="0 0 72 205.33333"
   xmlns="http://www.w3.org/2000/svg"
   xmlns:svg="http://www.w3.org/2000/svg">
  <defs
     id="defs169" />
  <g
     id="g171">
    <path
       style="fill:#000000;stroke-width:1.33333"
       d="m 5.5,198.97808 c -0.8573759,-1.60202 -0.6742835,-3.41426 0.5725077,-5.66667 1.0081488,-1.82128 1.8542591,-4.24916 1.8802451,-5.39529 0.025985,-1.14614 1.8799525,-3.83972 4.1199262,-5.98575 C 16.921329,177.28506 24,164.68314 24,160.69656 c 0,-1.55644 -0.521107,-3.3999 -1.158013,-4.09656 -2.591923,-2.83512 -9.507004,-22.59163 -9.4845,-27.09739 0.01412,-2.82701 1.675788,-7.83236 4,-12.04897 2.186716,-3.96716 3.975846,-7.95687 3.975846,-8.86602 0,-0.90914 -2.105902,-4.78234 -4.679785,-8.607115 -5.750331,-8.544956 -6.436017,-11.139045 -5.758176,-21.784336 0.43786,-6.876458 1.312966,-9.459829 4.819812,-14.228398 4.363656,-5.933651 5.365697,-9.809039 2.926128,-11.316775 -0.747277,-0.461844 -2.958675,-3.947253 -4.914216,-7.745355 -3.9218913,-7.6172 -4.9403437,-19.303819 -2.181333,-25.030528 0.85017,-1.764645 1.880021,-4.255012 2.288558,-5.534149 C 15.880736,7.933612 33.059019,3.5116235 41.767824,7.1503951 56.485763,13.299942 59.097249,39.635406 46.306939,52.924983 l -5.381582,5.591651 4.131254,4.705237 c 4.727894,5.384775 6.925264,12.045569 6.935953,21.024661 0.0096,8.055904 -1.694052,12.361928 -7.381652,18.657418 C 42.074911,105.711 40,108.52222 40,109.15111 c 0,0.62889 1.398405,3.20409 3.107567,5.72268 4.571636,6.73669 6.225766,12.52314 6.225766,21.77887 0,6.5707 -0.846721,9.94918 -4.150413,16.56046 l -4.150413,8.3057 13.574666,13.15423 c 12.43536,12.0502 13.539059,13.52424 13.150414,17.563 -0.75778,7.87475 -4.12456,6.42865 -18.912188,-8.12316 -7.515274,-7.39543 -14.28364,-13.44623 -15.040815,-13.44623 -1.479679,0 -11.930347,12.86939 -18.406615,22.66667 C 9.7270416,201.91229 7.6915873,203.0731 5.5,198.97808 Z m 30.095915,-52.15984 c 2.851106,-4.56536 3.570329,-17.70823 1.270293,-23.213 -2.611595,-6.25042 -5.566832,-7.49721 -9.187796,-3.87625 -3.975056,3.97506 -3.931328,16.24059 0.08535,23.93767 3.220216,6.17086 5.399057,7.04759 7.832162,3.15158 z M 37.136981,96.218953 C 41.474992,88.354989 41.87402,75.147232 37.933087,69.868052 32.953348,63.197312 31.184016,62.867264 26.344875,67.706407 22.301296,71.749984 22,72.673609 22,81.02564 c 0,7.510783 0.624937,10.017976 3.831997,15.373617 4.634155,7.738823 6.956982,7.701773 11.304984,-0.180304 z m 0.91147,-50.364815 c 3.190889,-3.48364 4.652805,-6.591719 5.294281,-11.255811 1.125115,-8.180561 0.28172,-10.72205 -4.806501,-14.483935 -8.234004,-6.087662 -18.353551,-0.304087 -18.835294,10.764841 -0.220502,5.066466 0.526423,7.073221 4.799183,12.893885 2.783181,3.791451 5.978307,6.893548 7.100277,6.893548 1.121972,0 4.023596,-2.165637 6.448054,-4.812528 z"
       id="path491" />
  </g>
</svg>
