<?xml version="1.0" encoding="UTF-8" standalone="no"?>
<!-- Created with Inkscape (http://www.inkscape.org/) -->

<svg
   version="1.1"
   id="svg75"
   width="112"
   height="218.66667"
   viewBox="0 0 112 218.66667"
   xmlns="http://www.w3.org/2000/svg"
   xmlns:svg="http://www.w3.org/2000/svg">
  <defs
     id="defs79" />
  <g
     id="g81">
    <path
       style="fill:#000000;stroke-width:1.33333"
       d="m 10,212.30098 c -6.5703441,-0.7669 -7.7672709,-3.72618 -4.1060388,-10.15178 3.3163233,-5.82026 3.7436095,-8.64585 6.7137538,-44.3971 1.667454,-20.07094 2.047944,-21.91559 5.436922,-26.35877 5.085023,-6.66681 14.229271,-12.49299 24.53046,-15.62937 13.066566,-3.97835 13.092423,-4.02817 9.712166,-18.713737 -3.77321,-16.392751 -6.019954,-22.598969 -8.799104,-24.305921 -1.763058,-1.082868 -2.587678,-0.901382 -3.546212,0.780464 -0.68693,1.205288 -3.204886,4.592241 -5.595455,7.526561 -2.390571,2.934321 -6.067779,7.55546 -8.171575,10.2692 -3.291992,4.246424 -4.087156,4.671998 -5.705532,3.053622 C 18.947496,92.85226 18.863203,91.214844 20.027309,85.786797 21.286485,79.915464 22.993967,77.507609 33.732841,66.459546 40.479779,59.518354 47.95,52.978911 50.333333,51.92745 c 5.49098,-2.422468 5.49098,-4.605903 0,-7.387328 C 39.423857,39.013989 37.853377,33.509725 43.815972,21.697891 48.435573,12.546511 53.897641,7.3760264 61.041407,5.3920085 c 6.547044,-1.8182927 7.41665,-1.7662558 12.716228,0.7609367 5.475506,2.6110876 8.909032,8.0387208 8.909032,14.0831828 0,4.569963 -5.904507,15.001713 -11.864731,20.961937 -4.532416,4.532416 -1.835219,6.784712 7.029288,5.869814 11.489796,-1.185852 13.829183,0.814456 23.243796,19.874751 9.00341,18.227814 9.21287,18.870335 7.84272,24.057371 -0.70566,2.671455 -1.8103,3.666667 -4.06983,3.666667 -3.96989,0 -6.76811,-3.278479 -8.53513,-10 -1.581025,-6.014029 -4.05334,-13.212444 -6.062019,-17.650236 -1.040133,-2.297978 -1.760281,-2.643444 -3.133941,-1.503408 -0.980917,0.81409 -1.803075,2.456696 -1.827015,3.650237 -0.02394,1.19354 -1.204352,5.470073 -2.623138,9.503407 C 79.536272,87.565773 79.354233,94.723964 82,104.88175 c 6.093516,23.39458 -0.492357,32.82943 -24.517649,35.12365 -12.237979,1.16864 -18.815684,3.03824 -18.815684,5.34806 0,0.78069 1.115713,3.64554 2.479362,6.36633 1.906542,3.80397 2.669531,9.30641 3.302471,23.8164 0.452708,10.37824 1.468269,20.28551 2.256803,22.01615 1.061204,2.32909 0.974596,4.52809 -0.333354,8.46381 -1.894825,5.70168 -1.562318,5.59987 -13.038616,3.99223 -13.864288,-1.94218 -14.176802,-2.42574 -5.221253,-8.07912 5.162888,-3.2592 5.221233,-3.389 5.219431,-11.61264 -10e-4,-4.57415 -0.866211,-13.11662 -1.922684,-18.98328 -3.91907,-21.76284 -3.526412,-21.41839 -6.766986,-5.93624 -1.604349,7.66493 -3.963896,17.44208 -5.243438,21.727 -1.702224,5.70038 -2.013559,9.09904 -1.160336,12.66666 C 20.541268,209.42128 18.027928,213.238 10,212.30098 Z m 47.898881,-82.11241 c 7.750271,-1.50151 11.462196,-2.94358 13.930614,-5.412 l 3.365065,-3.36507 -1.654391,-15.08226 c -1.818836,-16.581429 -0.757236,-28.085249 3.952179,-42.826998 1.392132,-4.357753 2.196177,-8.258161 1.786765,-8.667572 -1.490336,-1.490336 -17.552884,-0.196095 -22.328016,1.799084 -7.123018,2.976187 -7.255893,5.88634 -1.038584,22.746481 2.965135,8.040872 5.42396,16.719766 5.464055,19.286433 0.04009,2.566662 0.558437,7.174182 1.151871,10.238922 0.593433,3.06475 0.717302,6.12492 0.275265,6.8004 -1.351303,2.06492 -5.849996,3.88455 -11.882465,4.80623 -6.627382,1.01257 -17.481558,6.34654 -21.102354,10.37014 l -2.485552,2.76206 10,-0.70446 c 5.5,-0.38745 14.754496,-1.62558 20.565548,-2.75139 z m 5.689167,-95.527467 c 6.915512,-5.085725 10.619549,-12.348413 8.580364,-16.823939 -1.165625,-2.558268 -2.45994,-3.170497 -6.702752,-3.170497 -4.622135,0 -5.914819,0.766096 -10.686644,6.333333 -5.835877,6.808656 -6.947389,11.974485 -3.350444,15.571429 3.059792,3.059793 6.037237,2.592018 12.159476,-1.910326 z M 17.666667,69.783626 c -6.961358,-2.808968 8.912797,-33.783625 17.313718,-33.783625 2.154695,0 2.482695,0.573509 1.715748,3 -0.52152,1.65 -1.136676,4.721428 -1.367013,6.825396 -0.25204,2.302209 -2.590919,6.038629 -5.873957,9.383803 C 26.454823,58.266322 24,61.83434 24,63.138125 c 0,2.831837 -2.371093,7.571549 -3.713579,7.42328 -0.524198,-0.05789 -1.703088,-0.407895 -2.619754,-0.777779 z"
       id="path630" />
  </g>
</svg>
