<?xml version="1.0" encoding="UTF-8" standalone="no"?>
<!-- Created with Inkscape (http://www.inkscape.org/) -->

<svg
   version="1.1"
   id="svg83"
   width="124"
   height="217.33333"
   viewBox="0 0 124 217.33333"
   xmlns="http://www.w3.org/2000/svg"
   xmlns:svg="http://www.w3.org/2000/svg">
  <defs
     id="defs87" />
  <g
     id="g89">
    <path
       style="fill:#000000;stroke-width:1.33333"
       d="m 6.0897793,210.76586 c -3.2831308,-3.62781 -2.1709834,-6.92413 3.5950586,-10.65546 3.3599021,-2.17427 4.9818291,-4.21592 4.9818291,-6.27106 0,-1.67596 0.597756,-4.42544 1.328348,-6.10994 0.730592,-1.68451 2.491229,-14.27863 3.912529,-27.98695 1.4213,-13.70832 3.207717,-26.08931 3.969816,-27.5133 2.148732,-4.01494 7.566229,-4.78556 10.813592,-1.5382 2.401115,2.40111 3.788101,2.63039 11.46508,1.89527 4.803433,-0.45996 10.629405,-1.38003 12.946605,-2.04459 2.3172,-0.66456 6.617052,-1.22148 9.555227,-1.23758 2.938175,-0.0161 7.966357,-1.22 11.173739,-2.67532 5.517514,-2.50353 5.785264,-2.87773 4.971241,-6.94784 -0.473199,-2.366 -1.496933,-10.01064 -2.274967,-16.98811 -0.778034,-6.977468 -1.475728,-12.987761 -1.55043,-13.356209 -0.413763,-2.040767 3.685461,-17.433824 5.837462,-21.920344 1.385134,-2.887743 2.518424,-6.637743 2.518424,-8.333333 0,-2.93921 -0.452221,-3.082895 -9.702852,-3.082895 -8.877557,0 -10.068353,0.333835 -14,3.924839 -4.463181,4.076486 -5.2347,6.00501 -2.963814,7.408494 C 63.4,67.786558 64,69.439718 64,71.00702 c 0,1.567304 1.444083,4.981895 3.209072,7.587977 3.040292,4.489123 3.891324,8.460595 7.058567,32.939903 0.836402,6.46447 -0.478068,7.5741 -10.736508,9.06336 -3.557878,0.51651 -8.338334,2.076 -10.623235,3.46554 -4.469244,2.71791 -14.336657,4.69653 -17.454689,3.50003 -3.166168,-1.21497 -0.93339,-5.65786 4.320494,-8.59711 2.691131,-1.50554 8.999476,-4.05924 14.018543,-5.6749 8.726945,-2.80922 9.086948,-3.09089 8.24126,-6.44802 -0.486375,-1.93076 -1.056477,-6.21047 -1.266895,-9.510468 -0.210417,-3.3 -1.218985,-9 -2.24126,-12.666667 -1.666433,-5.977113 -2.280861,-6.707941 -5.940342,-7.065708 -3.560279,-0.348068 -4.837652,0.558663 -10,7.098406 -8.695296,11.015337 -16.819047,14.42505 -20.038,8.410381 -1.635518,-3.055991 -0.891046,-15.581463 1.368978,-23.032596 0.680159,-2.242432 1.984838,-6.777149 2.899287,-10.077149 3.946125,-14.240501 11.811849,-24 19.342937,-24 3.538286,0 4.508458,-0.544393 4.508458,-2.529834 0,-5.742344 8.06244,-18.790845 14.997834,-24.2729597 6.610295,-5.2251368 7.275666,-5.449709 14.580967,-4.9212911 12.024093,0.8697444 16.225793,6.5626538 14.107325,19.1141038 -0.76736,4.546436 -2.786224,8.905278 -6.235216,13.462183 l -5.10043,6.73883 4.252757,1.537818 c 2.339016,0.8458 6.067165,1.537817 8.284776,1.537817 3.88824,0 8.44532,3.386012 8.44532,6.275061 0,0.769131 0.94983,2.186708 2.11073,3.150172 2.66292,2.210021 8.96724,15.820772 11.38271,24.574766 2.45424,8.894479 2.12422,22.448725 -0.75786,31.125855 -1.7436,5.24948 -2.04436,8.32114 -1.17184,11.96806 1.71791,7.18049 0.74392,10.67851 -3.59861,12.92411 -3.52951,1.82519 -6.08723,7.70244 -5.23552,12.03045 0.61052,3.1024 -0.24048,4.61819 -2.59274,4.61819 -2.06316,0 -2.80112,-1.55808 -4.00077,-8.44697 -1.586696,-9.1115 -0.671453,-17.09762 2.85208,-24.88636 1.16113,-2.56667 2.82138,-8.86667 3.68945,-14 0.86807,-5.13333 2.44111,-11.346463 3.49566,-13.806953 1.8815,-4.38995 1.43136,-9.526382 -0.83487,-9.526382 -0.6317,0 -3.3752,-2.1 -6.09666,-4.666666 C 97.639749,72.716619 96,72.229038 96,75.846652 c 0,1.382327 -1.35,3.397849 -3,4.478941 -2.669733,1.749228 -2.984639,3.005268 -2.860468,11.409326 0.07675,5.194037 0.89506,11.267711 1.818485,13.497061 1.018487,2.45884 1.472236,7.71173 1.153463,13.35322 -0.434544,7.69036 -1.220603,10.29054 -4.541897,15.024 l -4.016407,5.72413 -15.842509,1.58049 c -23.936668,2.388 -24.633983,2.79936 -19.92286,11.75284 1.15759,2.2 2.44099,8.35652 2.851998,13.68115 0.617539,8.00025 0.348268,10.12205 -1.550872,12.22059 -2.04965,2.26484 -2.087865,2.87602 -0.353405,5.65218 1.630283,2.60942 2.174064,15.07028 1.050212,24.06584 -0.226193,1.8105 -5.078032,3.59698 -11.881553,4.37487 -6.148554,0.70299 -7.1203,0.44377 -9.772919,-2.60701 -3.633229,-4.17858 -3.984115,-4.18072 -8.888109,-0.0543 -4.759178,4.00459 -10.9206519,4.338 -14.1533797,0.76587 z M 36.333333,194.4155 c 3.342847,-1.28154 3.665774,-2.00961 3.656548,-8.24393 -0.01427,-9.63817 -2.305941,-28.44852 -3.788702,-31.09807 -0.952764,-1.70249 -1.60002,-0.36857 -2.758183,5.68432 -0.832304,4.34987 -2.997467,12.60035 -4.811472,18.3344 -5.753568,18.18699 -4.786537,20.11096 7.701809,15.32328 z M 44.734429,63.333332 c 3.073104,-3.3 6.297094,-6 7.164422,-6 2.301794,0 10.76773,-7.051893 10.767777,-8.969262 2.1e-5,-0.899761 -1.349961,-2.505847 -2.999961,-3.569079 -4.164018,-2.683224 -10.220142,-1.26631 -11.746474,2.74825 -0.66798,1.756918 -3.572373,5.428429 -6.454208,8.158911 -5.96379,5.650576 -8.695057,13.63118 -4.665108,13.63118 1.29035,0 4.860448,-2.7 7.933552,-6 z M 78.514833,33.441447 c 6.000636,-4.272829 6.945296,-6.725855 5.055242,-13.127077 -0.888422,-3.008894 -1.990282,-5.845688 -2.448579,-6.303985 -1.606817,-1.606818 -9.871687,2.973412 -14.142327,7.837403 -4.4987,5.123736 -5.269649,8.539077 -2.919,12.931306 1.818224,3.397383 8.699191,2.760612 14.454664,-1.337647 z"
       id="path1085" />
  </g>
</svg>
