<?xml version="1.0" encoding="UTF-8" standalone="no"?>
<!-- Created with Inkscape (http://www.inkscape.org/) -->

<svg
   version="1.1"
   id="svg223"
   width="69.333336"
   height="221.33333"
   viewBox="0 0 69.333336 221.33333"
   xmlns="http://www.w3.org/2000/svg"
   xmlns:svg="http://www.w3.org/2000/svg">
  <defs
     id="defs227" />
  <g
     id="g229">
    <path
       style="fill:#000000;stroke-width:1.33333"
       d="m 31.896064,213.42717 c -6.585151,-1.28763 -15.209521,-8.59137 -18.559027,-15.71715 -1.538773,-3.2736 -3.449712,-11.0024 -4.2465305,-17.17513 -1.2387894,-9.59655 -1.1221687,-12.26145 0.8046573,-18.38733 2.8426692,-9.03759 7.3183052,-15.1415 13.7447042,-18.74514 l 5.0268,-2.8188 V 94.649245 48.714865 L 23.4159,47.859895 c -3.082977,-0.501993 -6.262822,-2.104801 -7.702137,-3.88228 -2.142689,-2.64611 -2.219073,-3.380957 -0.606602,-5.835797 1.014621,-1.544667 3.880581,-3.495076 6.368802,-4.334243 L 26.000001,32.281818 20.261514,29.9674 c -4.891431,-1.972788 -5.678683,-2.815159 -5.333333,-5.706743 0.33229,-2.782248 1.604085,-3.770137 7.07182,-5.493157 5.120096,-1.613471 6.765956,-2.800203 7.094663,-5.115546 0.238289,-1.678463 2.080685,-3.8693497 4.156632,-4.9428633 4.832383,-2.4989227 7.457618,-0.5768964 8.671427,6.3486573 0.881172,5.027646 0.921829,5.055916 6.831852,4.749989 6.766932,-0.350284 8.999918,1.17258 8.358314,5.700251 -0.364717,2.57373 -1.615347,3.396085 -6.84705,4.502297 -8.10928,1.714657 -8.154213,3.794665 -0.100586,4.656381 7.048536,0.754173 9.333695,3.169097 8.005687,8.460297 -0.785158,3.128319 -1.544036,3.542076 -6.529673,3.56012 -9.907289,0.03585 -9.395407,-2.830318 -8.549291,47.86985 l 0.75977,45.526187 8.121588,7.99646 c 4.466875,4.39806 8.71619,9.56039 9.442924,11.47184 0.726734,1.91147 1.346274,8.73808 1.376755,15.17028 0.05733,12.09882 -2.83438,21.31891 -7.213295,22.99926 -1.026965,0.39408 -2.234752,2.41808 -2.683969,4.49777 -0.554415,2.56671 -2.893652,5.17315 -7.282725,8.1146 -3.556278,2.38333 -7.024051,4.26433 -7.706159,4.18 -0.682108,-0.0843 -3.386968,-0.57311 -6.010801,-1.08616 z m 14.009002,-16.58461 c 4.328073,-4.0819 4.782851,-5.20482 4.994979,-12.33334 0.12836,-4.3134 0.07269,-10.2281 -0.123694,-13.14377 -0.364114,-5.40595 -4.439011,-12.69879 -7.095488,-12.69879 -0.808987,0 -2.508632,-0.93914 -3.776989,-2.087 -1.905153,-1.72413 -3.243945,-1.83445 -7.700163,-0.63452 -8.447999,2.27482 -10.844985,6.40999 -10.72075,18.49496 0.06573,6.39444 0.795896,11.1257 1.977297,12.81239 1.030192,1.4708 1.873076,4.14344 1.873076,5.9392 0,5.21232 3.638134,8.14164 10.111714,8.14164 4.638574,0 6.584019,-0.83523 10.460018,-4.49077 z"
       id="path251" />
  </g>
</svg>
