<?xml version="1.0" encoding="UTF-8" standalone="no"?>
<!-- Created with Inkscape (http://www.inkscape.org/) -->

<svg
   version="1.1"
   id="svg213"
   width="80"
   height="216"
   viewBox="0 0 80 216"
   xmlns="http://www.w3.org/2000/svg"
   xmlns:svg="http://www.w3.org/2000/svg">
  <defs
     id="defs217" />
  <g
     id="g219">
    <path
       style="fill:#000000;stroke-width:1.33333"
       d="m 39.729317,209.66821 c -1.248876,-0.27845 -2.61129,-1.57944 -3.027586,-2.89106 -1.305024,-4.11178 -1.995834,-25.94823 -2.212366,-69.93278 -0.11504,-23.36893 -0.687034,-41.635066 -1.271092,-40.591414 -0.584057,1.043652 -2.974469,7.563684 -5.312028,14.488964 -4.914224,14.55893 -7.449373,17.99648 -12.362738,16.76331 -1.851175,-0.46462 -3.711288,-1.93338 -4.133583,-3.26391 -0.682184,-2.14938 2.502695,-13.62929 5.800515,-20.90799 C 20.95048,95.078597 22.691388,88.824721 21.563275,87.696608 20.881064,87.014397 17.859132,86.125765 14.847871,85.721871 9.0409439,84.942999 7.2041731,83.570969 6.4600296,79.456329 6.1244565,77.600824 7.0821608,76.586579 10,75.707367 c 4.210145,-1.268614 59.511568,-1.40026 62.771181,-0.14943 2.348568,0.901231 2.488187,6.290311 0.211912,8.179452 -0.925965,0.768483 -4.075965,1.59195 -7,1.829927 -5.03158,0.409501 -5.337752,0.686369 -5.714437,5.167501 -0.288151,3.427886 0.355911,5.417107 2.333333,7.206651 1.502239,1.359508 2.731344,3.260592 2.731344,4.224622 0,0.96404 1.096348,3.72105 2.43633,6.12669 1.339981,2.40564 3.080422,6.94059 3.867646,10.07767 1.163678,4.63723 1.06428,6.07082 -0.531566,7.66666 -4.148159,4.14816 -6.063891,2.21473 -13.908614,-14.03711 -4.274801,-8.85607 -6.530462,-14.324877 -6.530462,-15.832988 0,-0.911748 -0.630115,-1.268292 -1.400256,-0.792319 -0.77014,0.475974 -1.395214,4.861387 -1.389052,9.745357 0.03107,24.62613 -1.27566,97.32575 -1.804239,100.37826 -0.641379,3.7039 -2.615109,5.00129 -6.343803,4.1699 z M 40.666667,71.796031 C 26.465188,69.684339 22.993949,58.473775 30.61492,39.333333 c 1.552311,-3.898704 4.476125,-22.027865 4.285475,-26.572146 -0.212016,-5.0535027 1.850892,-7.4278537 6.453546,-7.4278537 4.025948,0 5.312726,1.9684478 5.312726,8.1271417 0,2.149973 0.529997,4.950901 1.177772,6.224284 7.009378,13.778909 10.951358,34.510558 8.166442,42.948936 -2.525273,7.651654 -7.106566,10.387236 -15.344214,9.162336 z M 43.733333,58.4 c 1.992643,-1.992643 2.092914,-14.27702 0.157643,-19.3132 l -1.442357,-3.753467 -1.870902,5.333334 C 39.548723,43.6 38.697783,48.75 38.686741,52.111111 38.661275,59.863651 40.267749,61.865584 43.733333,58.4 Z M 8.2731733,68.711111 C 3.0110036,62.021347 8.5025941,54.229359 16.371127,57.220969 19.353828,58.354991 20,59.420549 20,63.205095 20,71.577775 13.0828,74.82556 8.2731733,68.711111 Z M 61.79612,67.796772 c -2.818673,-6.225712 2.992979,-12.275684 8.80444,-9.165484 3.085756,1.651445 5.036015,7.598804 3.120076,9.514743 -0.706267,0.706266 -3.359352,1.620884 -5.895745,2.032484 -3.923879,0.636758 -4.822967,0.281562 -6.028771,-2.381743 z"
       id="path390" />
  </g>
</svg>
