<?xml version="1.0" encoding="UTF-8" standalone="no"?>
<!-- Created with Inkscape (http://www.inkscape.org/) -->

<svg
   version="1.1"
   id="svg203"
   width="108"
   height="214.66667"
   viewBox="0 0 108 214.66667"
   xmlns="http://www.w3.org/2000/svg"
   xmlns:svg="http://www.w3.org/2000/svg">
  <defs
     id="defs207" />
  <g
     id="g209">
    <path
       style="fill:#000000;stroke-width:1.33333"
       d="m 65.383009,207.22624 c -5.680097,-2.46385 -21.919052,-2.80288 -28.60252,-0.59713 -2.71214,0.89508 -7.447262,1.28879 -10.522493,0.87488 -15.3675,-2.06833 -17.7641405,-2.61224 -19.9246627,-4.52173 -2.5961634,-2.29451 -3.0691168,-8.4494 -0.9530882,-12.40324 1.0639406,-1.98799 2.8208749,-2.58072 7.6666669,-2.58646 8.54082,-0.0107 15.838796,-2.19874 22.686597,-6.80364 3.328334,-2.23818 7.52328,-3.86105 10,-3.86861 2.34657,-0.007 7.359567,-1.45319 11.139992,-3.21339 5.221247,-2.43105 7.738935,-4.6771 10.473771,-9.34376 3.592595,-6.13029 3.599864,-6.19753 3.409296,-31.53777 C 70.651532,119.25848 69.998796,104.84231 69.306044,101.18944 68.613293,97.536578 67.4303,86.624599 66.677172,76.940601 65.924044,67.256605 65.032561,56.633334 64.6961,53.333334 62.665753,33.419805 61.733103,8.4246315 62.936285,6.1700196 64.163929,3.8695677 65.593993,3.730787 81.134315,4.4039915 90.410441,4.8058321 99.03368,5.537254 100.29707,6.0293737 c 3.39878,1.3239101 4.07499,7.8056463 2.40121,23.0166763 -1.09218,9.925493 -1.10178,16.471255 -0.0356,24.258341 0.96014,7.012474 1.03614,13.295695 0.22191,18.346891 -0.68106,4.225129 -1.2921,13.373429 -1.35785,20.329555 -0.0658,6.956126 -0.4216,14.156123 -0.79075,16.000003 -1.43162,7.15067 -4.859525,45.4073 -4.168777,46.52496 0.587473,0.95055 1.96455,19.21664 2.474861,32.82754 0.322244,8.59481 -0.610769,11.58613 -5.197252,16.66282 -4.780884,5.29187 -4.902561,5.33674 -14.333333,5.28499 -5.407123,-0.0296 -11.503835,-0.9164 -14.128508,-2.05491 z m 22.066592,-13.21656 c 1.39468,-2.12854 1.930232,-4.88529 1.489404,-7.66666 -0.378584,-2.38866 -1.756348,-10.84767 -3.061696,-18.79779 -2.093272,-12.74892 -2.164865,-15.65991 -0.606661,-24.66667 0.971684,-5.61654 1.898195,-15.08149 2.058913,-21.03322 0.160719,-5.95174 0.73577,-11.53902 1.277891,-12.41619 0.542121,-0.87717 0.950277,-11.607575 0.907013,-23.845338 -0.04327,-12.237763 0.487408,-24.050478 1.179274,-26.250478 1.793781,-5.703885 2.510386,-36.612376 0.952781,-41.095211 -1.548929,-4.457865 -5.183985,-6.067006 -11.847665,-5.244641 -4.2714,0.527133 -4.944678,1.115682 -5.495167,4.803628 -0.345045,2.311589 -0.11948,5.552633 0.50126,7.202318 0.620737,1.649684 0.800316,4.649684 0.399064,6.666667 -0.401253,2.016982 0.469896,15.367239 1.935885,29.667239 4.907646,47.871656 5.792312,61.867376 5.324822,84.240576 -0.562567,26.92337 -0.624444,27.04713 -17.891406,35.78412 C 58.024657,184.67162 50.566667,188.77123 48,190.4683 l -4.666667,3.08556 6,-0.77347 c 4.11888,-0.53097 8.50816,0.0391 14,1.81804 4.4,1.42532 11.136168,2.62377 14.969263,2.6632 5.998537,0.0617 7.272593,-0.39124 9.147005,-3.25195 z"
       id="path529" />
  </g>
</svg>
