<?xml version="1.0" encoding="UTF-8" standalone="no"?>
<!-- Created with Inkscape (http://www.inkscape.org/) -->

<svg
   version="1.1"
   id="svg193"
   width="220"
   height="216"
   viewBox="0 0 220 216"
   xmlns="http://www.w3.org/2000/svg"
   xmlns:svg="http://www.w3.org/2000/svg">
  <defs
     id="defs197" />
  <g
     id="g199">
    <path
       style="fill:#000000;stroke-width:1.33333"
       d="m 87.155448,209.79279 c -4.302163,-0.92415 -12.322115,-2.34855 -17.822115,-3.16531 -5.5,-0.81676 -11.5,-2.2516 -13.333333,-3.18852 -4.930909,-2.51995 -12.385743,-6.40281 -14.666667,-7.63917 -1.1,-0.59626 -5,-2.58191 -8.666666,-4.41256 C 19.260911,184.69416 4,168.10012 4,160.21637 c 0,-5.78722 -0.8337017,-5.74228 100.91101,-5.44142 87.30218,0.25814 99.75412,0.65828 102.87806,3.30584 0.25065,0.21242 -0.31546,2.5189 -1.258,5.12549 -1.56042,4.31523 -1.45776,5.01173 1.14729,7.78468 8.85911,9.43009 9.0166,27.84604 0.2768,32.36556 -6.34096,3.27904 -11.70083,2.53109 -16.17352,-2.25695 -2.1752,-2.32856 -4.83133,-5.92856 -5.90252,-8 -1.07117,-2.07142 -2.62824,-3.76624 -3.46015,-3.76624 -0.8319,0 -8.27744,3.2895 -16.54562,7.30999 -17.88888,8.69867 -25.02082,11.31119 -30.94959,11.33728 -2.42527,0.0107 -6.92527,0.59416 -10,1.29664 -9.00206,2.05671 -29.303775,2.33383 -37.768312,0.51555 z M 136,196.68755 c 21.95715,-7.18508 50.22016,-24.01658 47.5588,-28.32274 -1.38117,-2.23477 -156.280403,-3.05764 -159.853765,-0.84918 -1.662294,1.02736 3.857969,7.38041 10.041626,11.55652 3.044884,2.05636 6.447519,4.52833 7.561412,5.49329 1.113894,0.96496 6.983756,3.96996 13.04414,6.67777 23.208795,10.36983 59.251327,12.77318 81.647787,5.44434 z m 68,-7.27987 c 0,-4.52485 -5.43715,-11.65828 -7.78161,-10.20932 -2.52532,1.56075 -1.77336,7.72717 1.34736,11.04904 3.9968,4.2544 6.43425,3.93629 6.43425,-0.83972 z M 42.165611,104.94409 c -3.613855,-1.20462 -5.383507,-4.62284 -4.110607,-7.939967 0.817584,-2.130591 6.206928,-3.67079 12.844543,-3.67079 2.14475,0 5.65941,-0.910061 7.810354,-2.022357 2.150946,-1.112297 6.77115,-2.389652 10.26712,-2.838567 8.186062,-1.051165 14.3909,-4.825342 16.602066,-10.09843 4.14105,-9.8754 18.243593,-38.382147 20.721273,-41.88581 1.48635,-2.101826 5.47056,-9.34704 8.85379,-16.100473 6.42033,-12.8159117 8.69948,-15.0543627 15.32809,-15.0543627 4.51787,0 9.23405,4.9147917 10.4236,10.8625467 0.396,1.979996 3.56803,6.795923 7.04895,10.702057 7.25564,8.141951 10.63014,14.479227 16.20646,30.435396 4.94691,14.155214 5.8032,16.218627 10.61224,25.572311 4.36044,8.481156 4.88831,13.746912 1.81758,18.131016 -2.2959,3.27783 -5.96236,3.79491 -9.82114,1.38507 -1.94906,-1.21722 -4.30888,-1.2095 -10.31524,0.0337 -4.28341,0.88659 -12.77725,2.31875 -18.8752,3.18258 -9.29159,1.31624 -11.27391,1.26843 -12.24029,-0.29521 -2.52681,-4.08845 3.80746,-9.469596 13.37355,-11.361227 8.32232,-1.645686 19.24581,-7.738868 19.71208,-10.99551 0.56389,-3.938412 -7.10323,-23.127687 -12.9133,-32.319416 -4.29522,-6.795214 -14.70033,-22.574688 -15.77344,-23.920635 -1.03989,-1.304283 -4.0199,3.668935 -6.34402,10.587301 -3.46698,10.320324 -6.91517,16.870716 -13.33572,25.333334 -7.42201,9.782593 -16.138991,26.128165 -17.282799,32.407702 -1.523256,8.362711 -4.692002,10.459781 -14.475899,9.580101 -4.564809,-0.41042 -13.802596,-0.2599 -20.528417,0.33451 -6.725822,0.5944 -13.748352,0.5742 -15.605624,-0.0449 z"
       id="path668" />
  </g>
</svg>
