<?xml version="1.0" encoding="UTF-8" standalone="no"?>
<!-- Created with Inkscape (http://www.inkscape.org/) -->

<svg
   version="1.1"
   id="svg183"
   width="220"
   height="140"
   viewBox="0 0 220 140"
   xmlns="http://www.w3.org/2000/svg"
   xmlns:svg="http://www.w3.org/2000/svg">
  <defs
     id="defs187" />
  <g
     id="g189">
    <path
       style="fill:#000000;stroke-width:1.33333"
       d="m 103.1615,134.39768 c -0.6995,-0.95205 -2.06299,-3.31488 -3.02998,-5.25072 -2.386463,-4.77751 -4.993695,-5.02432 -46.391696,-4.3916 -30.293711,0.463 -35.201852,0.2588 -37,-1.53935 -2.507921,-2.50792 -2.622823,-4.64804 -0.406491,-7.57119 1.465776,-1.93323 6.32733,-2.25471 40.333334,-2.66708 40.311533,-0.48884 44.666663,-1.09948 44.666663,-6.26275 0,-7.050478 8.87693,-7.997031 10.25758,-1.09377 1.4078,7.039 7.00422,6.0887 7.05534,-1.19804 0.0215,-3.05809 4.18104,-5.305336 6.8112,-3.67981 0.81472,0.50353 2.33704,2.96355 3.38293,5.46672 1.94649,4.65862 7.30461,7.86456 10.86238,6.49931 1.05025,-0.40302 17.51729,-0.78557 36.59341,-0.85012 29.74963,-0.10065 34.97972,0.17852 36.76363,1.96243 1.65916,1.65916 1.78027,2.73716 0.59881,5.33017 -2.00734,4.40565 -4.98541,4.70226 -46.7123,4.65251 C 131.29217,123.76188 128,124.18822 128,128.84802 c 0,1.02016 -0.7061,2.98548 -1.56912,4.36739 -2.21345,3.5443 -7.35014,1.0385 -8.48764,-4.14048 -1.14849,-5.22904 -4.50562,-4.39902 -6.43798,1.59174 -1.60136,4.96458 -5.99419,6.92889 -8.34376,3.73101 z M 84.666667,59.403919 C 66.926128,57.728763 49.143495,54.60844 43.333333,52.151149 34.8925,48.581271 25.688977,45.330783 23.974232,45.313929 19.785083,45.272755 10.235857,41.100917 7.8858391,38.285281 5.3208693,35.212104 4.6717485,31.069713 6.3537504,28.508193 8.0324636,25.951683 21.239399,19.903635 31.169448,17.143971 45.607979,13.131353 49.157477,12.333709 60,10.665162 65.5,9.8187709 72.4,8.6027153 75.333333,7.9628159 86.877259,5.4445371 127.61752,3.6983631 137.66388,5.2912577 161.35275,9.0472321 188.37313,15.343419 192.95309,18.174536 194.57729,19.178541 196.70043,20 197.67116,20 c 0.97075,0 4.11872,1.2 6.99551,2.666667 2.87678,1.466666 5.98253,2.666666 6.90168,2.666666 2.41388,0 4.6637,4.878991 4.18052,9.065938 -0.30988,2.685262 -1.78155,4.278716 -5.78835,6.267396 -7.65608,3.799921 -15.42299,6.9335 -19.29385,7.784165 -1.83334,0.402896 -7.53334,1.700341 -12.66667,2.883213 -18.0428,4.157598 -20.90291,4.703462 -35.05735,6.69086 -21.12327,2.965882 -37.39315,3.350883 -58.275983,1.379014 z M 130.66667,47.880491 c 3.3,-0.763208 12,-2.206468 19.33333,-3.207243 7.33333,-1.000775 15.73333,-2.434233 18.66667,-3.185465 12.43016,-3.183383 17.57806,-4.38771 21.61994,-5.057878 5.18834,-0.860256 7.8565,-3.49646 5.3965,-5.33186 C 193.16447,29.218888 174.35004,24.225032 160,21.626785 136.52439,17.376243 70.583608,19.110619 54.666667,24.397265 c -3.3,1.09606 -10.2,2.761095 -15.333334,3.700076 -5.133333,0.938982 -10.113446,2.299667 -11.066917,3.023746 -2.923613,2.220229 0.817451,4.484965 11.066917,6.699601 5.133334,1.109177 12.633334,3.007959 16.666667,4.219516 9.616933,2.888791 19.74708,4.545725 31.771899,5.196759 5.374545,0.290981 10.124545,0.881704 10.555556,1.312714 1.316988,1.316988 25.955785,0.807144 32.339215,-0.669186 z"
       id="path807" />
  </g>
</svg>
