<?xml version="1.0" encoding="UTF-8" standalone="no"?>
<!-- Created with Inkscape (http://www.inkscape.org/) -->

<svg
   version="1.1"
   id="svg345"
   width="214.66667"
   height="209.33333"
   viewBox="0 0 214.66667 209.33333"
   xmlns="http://www.w3.org/2000/svg"
   xmlns:svg="http://www.w3.org/2000/svg">
  <defs
     id="defs349" />
  <g
     id="g351">
    <path
       style="fill:#000000;stroke-width:1.33333"
       d="m 170.00433,199.39777 c -2.7183,-3.51306 -3.21374,-7.842 -4.35822,-38.08019 -0.80674,-21.31499 -0.73788,-32.12762 0.21802,-34.22558 1.94656,-4.27221 6.83281,-6.34013 9.81993,-4.1559 2.70221,1.97591 4.44809,23.07395 4.55403,55.03309 0.0512,15.46724 -0.31832,19.28575 -2.03258,21 -2.5177,2.51771 -6.42662,2.72198 -8.20118,0.42858 z M 134.84794,67.868186 c -2.61893,-2.148615 -2.94127,-3.084083 -1.74133,-5.053561 1.1376,-1.867136 3.48797,-2.506542 10.33333,-2.81112 7.43268,-0.33071 8.86081,-0.773867 8.86081,-2.749562 0,-2.768637 -4.75594,-13.00863 -6.55956,-14.123319 -0.68524,-0.423504 -1.96552,-3.011651 -2.84506,-5.751436 -2.09558,-6.527684 -4.52771,-9.167897 -9.3302,-10.128393 -3.05272,-0.610544 -3.93184,-1.507231 -3.93184,-4.010384 0,-4.39991 2.06059,-4.940034 21.33333,-5.59192 9.16667,-0.310056 23.88003,-0.870512 32.69635,-1.245459 18.31056,-0.778725 22.46978,0.585836 21.7131,7.123651 -0.393,3.395605 -0.77369,3.553642 -9.47525,3.933496 -10.15235,0.443184 -11.06863,1.331017 -8.53592,8.270913 3.65935,10.027045 10.15815,19.453533 15.00516,21.764913 3.95187,1.884508 4.69785,2.884917 4.34988,5.833421 -0.60941,5.163903 -4.19919,5.771144 -38.53947,6.519277 -28.56217,0.622252 -30.28564,0.519852 -33.33333,-1.980517 z m 43.95281,-8.970428 c 4.6881,-0.93762 5.37203,-3.730408 2.3577,-9.62761 -0.99494,-1.946482 -3.69948,-7.609631 -6.0101,-12.584778 -2.31062,-4.975146 -5.00537,-9.354339 -5.98834,-9.731542 -0.98298,-0.377201 -4.72843,-0.194891 -8.32324,0.405136 -5.42195,0.905004 -6.6111,1.616603 -6.9765,4.174829 -0.24225,1.696131 0.43935,4.084393 1.51467,5.307252 2.70237,3.073125 8.92581,15.702107 8.92581,18.112801 0,3.988168 6.05039,5.633836 14.5,3.943912 z M 11.130453,56.733595 C 6.3053672,55.48329 4.5679574,50.983972 6.7431302,45.371877 7.5192462,43.369445 9.1703202,37.96669 10.412184,33.365756 13.092038,23.437263 21.224599,14.014759 31.259823,9.2113784 36.631991,6.639979 39.166902,6.2795 48.593156,6.746481 54.665671,7.047317 62.004169,8.225852 64.90093,9.3654494 70.848809,11.705368 84.300758,22.986549 84.300758,25.634689 c 0,0.955228 1.179456,3.236215 2.621012,5.068858 3.002162,3.816627 7.044923,14.923915 7.04536,19.356773 6.24e-4,6.338874 -2.340604,7.231909 -16.898973,6.445913 C 59.725318,55.569906 39.525684,55.718206 25.992439,56.881217 20.089384,57.38851 13.40149,57.322081 11.130453,56.733595 Z M 68.056114,45.633314 c 11.032375,-0.91946 12.708748,-2.529873 8.372254,-8.042833 -1.536853,-1.953791 -2.794277,-4.705253 -2.794277,-6.114362 0,-3.181055 -7.111958,-9.90955 -13.333333,-12.614424 -5.90446,-2.567088 -21.557754,-1.815602 -27.608943,1.325456 -6.644487,3.449028 -13.724391,13.582093 -13.724391,19.642942 0,4.220727 0.492073,5.118748 3,5.474931 6.266515,0.889986 36.744189,1.10708 46.08869,0.32829 z"
       id="path393" />
  </g>
</svg>
