<?xml version="1.0" encoding="UTF-8" standalone="no"?>
<!-- Created with Inkscape (http://www.inkscape.org/) -->

<svg
   version="1.1"
   id="svg83"
   width="213.33333"
   height="149.33333"
   viewBox="0 0 213.33333 149.33333"
   xmlns="http://www.w3.org/2000/svg"
   xmlns:svg="http://www.w3.org/2000/svg">
  <defs
     id="defs87" />
  <g
     id="g89">
    <path
       style="fill:#000000;stroke-width:1.33333"
       d="m 65.83212,143.66666 c -3.977226,-4.53208 -9.832121,-13.6206 -9.832121,-15.26235 0,-2.18744 -3.62734,-3.13545 -5.070029,-1.32506 -0.695748,0.87308 -2.931448,5.02613 -4.968221,9.229 -5.868043,12.10868 -10.508634,11.68817 -18.772969,-1.70111 -2.952222,-4.78297 -5.754682,-7.89249 -6.90531,-7.6619 -1.065112,0.21345 -3.111608,3.38323 -4.547769,7.04396 C 12.559808,142.08444 11.065539,144 7.9265905,144 c -3.4376708,0 -4.417249,-4.51694 -1.9952907,-9.20048 1.137785,-2.20024 2.0687001,-4.60329 2.0687001,-5.34011 0,-3.54701 8.4608941,-18.60226 10.7977041,-19.21334 3.207042,-0.83867 4.715922,0.65808 12.56333,12.46226 3.443479,5.17974 6.864189,9.21659 7.601577,8.9708 0.737388,-0.2458 2.198095,-2.98331 3.246016,-6.08336 2.37628,-7.02972 6.967722,-14.92911 8.677395,-14.92911 3.162398,0 6.45923,3.16572 11.743728,11.27668 3.125909,4.79783 6.392464,8.72332 7.259009,8.72332 0.866545,0 2.285688,-1.96388 3.153651,-4.36419 2.514591,-6.95398 8.686538,-15.63581 11.115562,-15.63581 3.003499,0 7.770392,5.14519 11.9724,12.92251 3.733904,6.91092 6.066058,7.95352 8.375178,3.74416 4.95147,-9.02613 10.57786,-16.66667 12.27312,-16.66667 3.03588,0 12.48258,11.62025 16.01356,19.69806 0.0877,0.20059 1.11773,-0.003 2.28899,-0.45248 1.17127,-0.44946 3.44772,-3.61358 5.05878,-7.03138 5.1962,-11.02352 9.81073,-14.35574 14.52666,-10.48991 2.52615,2.07077 6.91,8.30014 9.87164,14.02742 1.25664,2.4301 2.91939,4.20684 3.695,3.9483 0.77563,-0.25854 2.69043,-3.51549 4.25512,-7.23767 1.56471,-3.72218 4.12943,-8.47506 5.6994,-10.56195 2.53884,-3.37479 3.22208,-3.62687 6.17883,-2.27969 5.51056,2.51078 17.75445,25.05902 16.44352,30.28222 -1.76792,7.04398 -8.41776,2.8202 -14.02291,-8.9069 -1.66596,-3.48553 -3.58318,-5.99482 -4.26052,-5.5762 -0.67733,0.41861 -2.37849,3.00936 -3.78034,5.75722 -3.84712,7.54098 -9.88036,13.46646 -12.9058,12.67528 -2.75678,-0.72092 -8.73464,-8.54362 -9.87092,-12.9172 -0.8764,-3.37329 -4.30167,-5.60467 -7.00878,-4.56586 -1.13752,0.43651 -3.67633,4.37699 -5.64178,8.75662 -3.26007,7.26438 -5.6194,9.43812 -10.33568,9.52259 -0.55911,0.0107 -3.03723,-3.1318 -5.50694,-6.9818 -5.33104,-8.31051 -9.42874,-12.26559 -11.42782,-11.03008 -0.79898,0.49379 -3.3322,4.75257 -5.62938,9.46395 -3.40149,6.97625 -4.76781,8.56613 -7.36166,8.56613 -3.608856,0 -8.492869,-4.71191 -11.540079,-11.13343 -1.132873,-2.38735 -3.21569,-5.38673 -4.628481,-6.66529 -2.491375,-2.25466 -2.717345,-2.03208 -7.505504,7.39296 -6.484233,12.7636 -8.74195,14.21956 -13.551456,8.73909 z M 94.549752,75.43864 C 94.127129,75.016017 75.830544,74.429446 53.890674,74.135149 31.950802,73.840852 12.97284,73.18462 11.717422,72.676856 10.462005,72.169092 9.0225461,70.459077 8.5186248,68.876824 7.4858092,65.633904 6.750024,29.55631 7.6653067,27.036266 c 0.3256897,-0.89672 2.6379303,-2.014188 5.1383123,-2.483263 4.052959,-0.76034 4.636909,-1.420441 5.382754,-6.084701 0.912059,-5.703702 4.238668,-8.4812084 8.527559,-7.119968 2.430164,0.771305 3.221517,2.505399 4.252414,9.318332 0.247586,1.63622 1.426897,2.666667 3.051913,2.666667 2.247122,0 2.708692,-1.038175 3.046279,-6.851756 0.465153,-8.0104293 4.134948,-12.72156 8.013509,-10.2874133 2.42351,1.5209704 3.7201,4.8822303 4.939795,12.8058363 0.567256,3.68511 1.414149,4.999999 3.2204,4.999999 2.630468,0 4.033814,-3.425051 4.097301,-9.999999 0.04451,-4.6095615 1.096753,-6.5294903 4.205848,-7.6740033 3.272132,-1.2045303 6.138297,2.7986796 7.402463,10.3391133 0.743941,4.437422 1.825229,6.779815 3.256957,7.05554 2.80704,0.540587 4.722586,-6.313476 2.209841,-7.90709 -1.332181,-0.844887 -1.350438,-1.11088 -0.07732,-1.126476 0.916667,-0.01123 1.666667,-1.206586 1.666667,-2.656347 0,-3.1402789 5.80724,-7.3125002 8.656373,-6.2191854 1.408367,0.5404409 2.010293,2.7037973 2.010293,7.2250954 0,3.549521 0.813236,7.565839 1.80719,8.925153 2.578588,3.526429 6.19281,1.725027 6.19281,-3.08662 0,-8.395865 1.494772,-12.2085135 4.786421,-12.2085135 3.898584,0 5.880244,3.5651585 5.880244,10.5790115 0,4.893499 0.32435,5.420988 3.33333,5.420988 3.10372,0 3.33334,-0.451714 3.33334,-6.557617 0,-8.8285718 0.94131,-10.7757158 5.20932,-10.7757158 5.01006,0 6.79068,2.2996417 6.79068,8.7700728 0,5.633955 2.61976,9.573675 5.27492,7.932691 0.76546,-0.473079 1.39174,-3.481875 1.39174,-6.686215 0,-5.6499509 2.44776,-10.0165488 5.61492,-10.0165488 2.2359,0 4.96094,4.3361626 5.02755,7.9999998 0.10667,5.862964 1.59685,9.333333 4.00793,9.333333 1.79778,0 2.54239,-1.530293 3.21622,-6.609809 1.9229,-14.4955838 9.10358,-13.20311 12.13572,2.184345 0.97364,4.940987 4.2877,8.492687 5.2026,5.575629 0.3134,-0.999257 0.89392,-4.981125 1.29005,-8.848595 0.88207,-8.6118239 1.46999,-9.6349028 5.53679,-9.6349028 3.6992,0 5.96822,3.4305869 5.96822,9.0234558 0,2.125988 0.3948,4.260227 0.87732,4.742753 1.63092,1.63092 4.45602,-2.067958 4.45602,-5.83423 0,-4.5833146 3.11633,-7.9319788 7.38165,-7.9319788 3.98028,0 5.95168,3.5151735 5.95168,10.6123448 0,4.945836 0.35875,5.52607 3.84808,6.223936 5.74123,1.148248 6.80001,5.107229 6.90216,25.808569 0.0971,19.659783 -0.81868,23.556018 -5.78872,24.630705 -1.62884,0.352206 -24.56152,0.939144 -50.96152,1.304304 -26.4,0.365161 -49.80341,1.030661 -52.007586,1.47889 -2.204174,0.44823 -4.353369,0.46918 -4.775992,0.04656 z M 130.66666,64.025121 c 52.96127,-1.667089 61.31612,-2.328269 65.05464,-5.14824 2.8537,-2.152545 2.96188,-2.864437 2.11315,-13.906117 l -0.89452,-11.637431 -5.46997,-0.243851 c -3.00848,-0.134119 -7.20434,-0.1204 -9.32411,0.03049 -2.11979,0.150894 -5.24868,-0.639373 -6.95309,-1.756148 -3.38188,-2.215892 -10.5992,-2.736253 -11.76602,-0.848318 -0.40184,0.6502 -2.77618,1.565933 -5.27632,2.034961 -3.74616,0.702788 -71.168113,2.609264 -87.483754,2.473764 -2.566667,-0.02132 -15.031194,-0.13692 -27.698948,-0.2569 -12.667754,-0.11997 -23.617754,0.1437 -24.333333,0.585952 -1.995989,1.23359 -1.663352,26.921518 0.365615,28.234693 1.754478,1.135523 58.318171,3.003425 66.333332,2.190525 2.566667,-0.26031 22.966668,-1.049332 45.333328,-1.75338 z"
       id="path1085" />
  </g>
</svg>
