<?xml version="1.0" encoding="UTF-8" standalone="no"?>
<!-- Created with Inkscape (http://www.inkscape.org/) -->

<svg
   version="1.1"
   id="svg205"
   width="220"
   height="230.66667"
   viewBox="0 0 220 230.66667"
   xmlns="http://www.w3.org/2000/svg"
   xmlns:svg="http://www.w3.org/2000/svg">
  <defs
     id="defs209" />
  <g
     id="g211">
    <path
       style="fill:#000000;stroke-width:1.33333"
       d="M 158.82616,225.1435 C 150.64999,222.76742 148,220.20878 148,214.69051 c 0,-4.31895 -0.69524,-5.46291 -5.08603,-8.36859 -7.80646,-5.16606 -13.3272,-11.26008 -17.65681,-19.49028 -2.16953,-4.12406 -4.50656,-8.3983 -5.19341,-9.4983 -2.4461,-3.91744 -8.56608,-27.43316 -8.64755,-33.22772 -0.0765,-5.44323 0.22329,-5.97876 3.91713,-6.99678 4.73674,-1.30541 89.06275,-2.8456 94.22195,-1.72092 1.9554,0.42627 3.81137,1.48838 4.12439,2.36023 0.71384,1.98836 -2.41972,20.51037 -4.09184,24.18624 -0.68359,1.50275 -2.61222,6.93228 -4.28584,12.06561 -1.67362,5.13334 -3.4685,9.93334 -3.98862,10.66667 -0.52012,0.73333 -1.31254,2.87459 -1.76093,4.75833 -0.77456,3.25395 -11.52215,14.95971 -16.07408,17.5071 -1.17353,0.65673 -2.51801,3.59752 -2.98775,6.53508 -1.44344,9.02673 -11.72105,14.56598 -21.66445,11.67632 z m 14.22152,-28.33208 c 9.44011,-4.78366 19.13508,-19.3046 23.04973,-34.52344 4.0899,-15.90015 5.78062,-14.97795 -27.1582,-14.81344 C 134.01161,147.64899 124,148.64899 124,151.96328 c 0,3.74427 4.31528,15.14838 10.86128,28.70339 2.12535,4.40103 4.10637,6.52627 12.1906,13.07797 6.63692,5.37878 8.55831,6.25536 13.711,6.25536 3.67636,0 8.42443,-1.23238 12.2848,-3.18858 z M 45.510283,222.18836 c -1.625006,-1.72974 -3.561226,-5.34216 -4.302712,-8.0276 -0.926398,-3.35514 -2.921299,-5.92368 -6.376732,-8.21038 -2.765718,-1.83026 -6.240164,-4.96784 -7.720991,-6.9724 C 22.785216,193.12384 13.584197,174.46696 12.161212,168.66667 11.441579,165.73334 9.9180313,160.03334 8.775552,156 5.8645733,145.72327 6.0661341,141.74855 9.5939975,139.8605 c 2.3845785,-1.27619 54.2180595,-3.09724 75.7393355,-2.66094 1.833334,0.0372 6.726882,0.0689 10.874551,0.0705 10.194656,0.004 12.283186,2.11594 11.131666,11.25701 -0.8736,6.93489 -2.62618,14.01611 -4.65449,18.80629 -0.62103,1.46667 -1.42677,3.86667 -1.79052,5.33334 -3.645987,14.70061 -12.189799,29.62934 -19.080989,33.34049 -3.341838,1.79971 -4.89168,3.82999 -6.01186,7.87549 -2.49356,9.00539 -6.26126,11.45062 -17.643624,11.45062 -8.46068,0 -10.068918,-0.39991 -12.647784,-3.14498 z M 61.000623,215 c 0.325494,-0.97757 -0.593548,-1.66666 -2.222846,-1.66666 -1.637782,0 -2.777777,0.86092 -2.777777,2.09776 0,2.4505 4.160592,2.09182 5.000623,-0.4311 z m 9.821524,-17.21192 C 77.31922,193.42596 80.325173,189.9109 84.323544,182 c 3.26744,-6.46473 7.683289,-19.41113 7.669833,-22.48644 -0.0036,-0.83246 -1.397572,-3.25186 -3.097621,-5.37645 -3.018267,-3.772 -3.496547,-3.88956 -20.326709,-4.99644 -24.808914,-1.63161 -30.982896,-1.4134 -43.24591,1.52844 -6.249596,1.49927 -6.592708,1.80184 -5.815669,5.12875 0.454165,1.9445 1.585121,5.33548 2.513233,7.53548 0.928114,2.2 2.647959,6.5492 3.82188,9.66488 2.667576,7.07998 12.498899,21.62797 15.354811,22.72144 1.174768,0.44978 4.121761,2.16436 6.548875,3.81016 3.665742,2.48569 5.584684,2.86566 11.333333,2.2441 4.079997,-0.44114 8.899597,-2.07709 11.742547,-3.98584 z M 63.333333,59.3777 c -4.61078,-1.075266 -8.013225,-1.146908 -11.033182,-0.232314 -5.448419,1.650054 -23.81355,-0.958384 -26.99054,-3.833521 -1.202439,-1.088192 -2.896859,-1.978531 -3.765378,-1.978531 -0.868518,0 -4.571274,-2.824039 -8.228345,-6.275641 -6.022158,-5.683808 -6.6492213,-6.82996 -6.6492213,-12.153506 0,-5.061575 0.6765428,-6.497555 4.8715783,-10.340057 6.971619,-6.385755 17.693204,-7.608243 51.722474,-5.897463 L 76.521439,19.333334 77.315671,16 c 0.636844,-2.672789 2.104429,-3.660978 7.405946,-4.986741 9.093787,-2.274105 24.552593,-4.138494 46.346613,-5.5895731 17.90929,-1.1924276 18.56917,-1.1409333 24.66668,1.9248869 3.4458,1.73255 10.36501,4.7490402 15.37604,6.7033112 8.5125,3.319838 9.97802,3.49116 22.31222,2.608354 l 13.20128,-0.944868 1.30284,3.426729 c 1.95906,5.152708 3.11751,26.52529 1.56144,28.807596 -0.89114,1.307059 -5.99624,2.471179 -15.48836,3.53183 -10.22249,1.14226 -14.91105,2.262669 -16.8638,4.029872 -4.108,3.717687 -15.98653,4.659545 -63.80324,5.059008 C 83.812168,60.817025 67.875051,60.43686 63.333333,59.3777 Z M 169.85436,45.666667 c 4.31989,-2.383333 9.41989,-4.342366 11.33333,-4.353408 1.91344,-0.01107 5.87898,-0.855257 8.81231,-1.876036 4.53636,-1.57862 5.33333,-2.422404 5.33333,-5.646592 0,-3.659651 -0.25338,-3.803791 -7.33333,-4.171483 -7.05683,-0.366493 -15.07821,-3.048966 -16.63117,-5.561728 -0.40946,-0.662504 -5.50754,-2.746448 -11.32906,-4.630986 C 151.73571,16.738252 146.74883,16 136.89425,16 122.8578,16 116,16.994503 116,19.030036 c 0,0.88716 3.84456,1.067855 11.00681,0.51732 C 138.11159,18.693776 148,20.233872 148,22.816994 c 0,0.747074 -0.58457,2.450612 -1.29907,3.785637 -1.11825,2.089491 -3.94821,2.575455 -20.33333,3.491671 -10.46885,0.585393 -19.33427,1.010233 -19.70093,0.94409 C 106.3,30.97225 96.4,30.536544 84.666667,30.07016 72.933333,29.603776 58.233333,28.873731 52,28.447839 32.947677,27.14609 22.029972,28.406974 17.641051,32.415946 c -1.66409,1.520029 -2.86409,3.179707 -2.666667,3.688171 0.776728,2.000477 13.184672,10.565317 15.370487,10.609797 1.276988,0.02599 3.681232,0.802147 5.342766,1.724801 2.309655,1.282559 17.535999,1.663867 64.666663,1.61942 L 162,50.000001 Z m -55.18769,-27 c 0,-1.706531 -10.69267,-1.706531 -13.33334,0 -1.419613,0.917427 0.22481,1.298424 5.66667,1.312916 4.23583,0.01128 7.66667,-0.576249 7.66667,-1.312916 z"
       id="path233" />
  </g>
</svg>
