<?xml version="1.0" encoding="UTF-8" standalone="no"?>
<!-- Created with Inkscape (http://www.inkscape.org/) -->

<svg
   version="1.1"
   id="svg195"
   width="225.33333"
   height="141.33333"
   viewBox="0 0 225.33333 141.33333"
   xmlns="http://www.w3.org/2000/svg"
   xmlns:svg="http://www.w3.org/2000/svg">
  <defs
     id="defs199" />
  <g
     id="g201">
    <path
       style="fill:#000000;stroke-width:1.33333"
       d="m 102.80906,134.80905 c -1.50768,-1.50767 -3.136213,-4.31495 -3.618967,-6.2384 l -0.877736,-3.49718 -28.822845,0.69897 c -42.867127,1.03955 -53.868054,0.90658 -55.772702,-0.67414 -2.847375,-2.36311 -2.082819,-7.69467 1.28319,-8.9482 1.65,-0.61448 19.976645,-1.43075 40.725877,-1.81393 33.616055,-0.62081 38.009931,-0.95378 40.333332,-3.05642 1.434102,-1.29785 2.607456,-3.42318 2.607456,-4.72296 0,-1.29979 1.564125,-3.59359 3.475835,-5.09734 4.28882,-3.373586 7.60186,-2.023518 9.68276,3.94574 1.36433,3.91372 4.17474,4.40028 4.17474,0.72277 0,-2.62101 4.83831,-6.418826 7.51958,-5.90246 1.50688,0.2902 2.8271,2.33009 3.58665,5.5418 1.75583,7.42439 4.62822,8.10956 26.2271,6.25616 9.9,-0.84953 19.5,-1.45402 21.33333,-1.34332 1.83334,0.11069 10.83811,0.32778 20.01062,0.48242 9.17249,0.15463 17.35008,0.69697 18.17238,1.20518 2.30304,1.42335 3.04035,5.94315 1.34264,8.23046 -1.72425,2.32306 -23.30968,3.68732 -62.1923,3.93074 l -22,0.13772 -2.29095,4.58994 c -3.84029,7.69409 -6.39119,7.95994 -10.7425,1.11959 -2.49436,-3.92118 -6.29988,-3.78438 -6.29988,0.22647 0,1.27456 -1.15119,3.35918 -2.55819,4.6325 -2.43632,2.20484 -2.68878,2.18454 -5.29942,-0.42611 z M 10.011883,62.173565 C 7.7828067,60.543625 7.4501795,57.890827 6.920063,37.515399 6.2843696,13.082045 6.8013483,10.666666 12.666666,10.666666 c 1.653748,0 3.626911,0.75 4.384806,1.666667 0.757896,0.916667 1.809408,11.895764 2.336693,24.397994 0.861097,20.417092 0.727732,22.962298 -1.309969,25 -2.745883,2.745882 -4.764537,2.856555 -8.066313,0.442238 z m 97.786557,-1.733956 c -4.55543,-1.209205 -5.42347,-7.195498 -4.40741,-30.395036 1.06438,-24.3028918 1.22565,-24.7112398 9.75941,-24.7112398 7.29234,0 7.67934,1.3906836 7.59401,27.2895698 -0.0763,23.159724 -0.13784,23.658842 -3.2255,26.160309 -3.06746,2.485103 -5.21798,2.851557 -9.72051,1.656397 z m 98.87102,-3.06235 c -3.68646,-0.918147 -4.91278,-4.45521 -5.17838,-14.935873 -0.17302,-6.827824 -3.68176,-14.329581 -6.82442,-14.590709 -1.1,-0.0914 -0.2,-0.548644 2,-1.016096 3.78807,-0.804882 4.0407,-1.273374 4.76811,-8.842247 0.42245,-4.395784 1.22788,-9.0194939 1.78984,-10.2749115 2.33009,-5.2054595 11.35208,-4.5684579 13.88013,0.9800126 1.96895,4.3213529 2.09388,37.3786439 0.16222,42.9198179 -1.6218,4.652311 -5.83987,6.944936 -10.5975,5.760006 z"
       id="path372" />
  </g>
</svg>
