<?xml version="1.0" encoding="UTF-8" standalone="no"?>
<!-- Created with Inkscape (http://www.inkscape.org/) -->

<svg
   version="1.1"
   id="svg185"
   width="212"
   height="77.333336"
   viewBox="0 0 212 77.333336"
   xmlns="http://www.w3.org/2000/svg"
   xmlns:svg="http://www.w3.org/2000/svg">
  <defs
     id="defs189" />
  <g
     id="g191">
    <path
       style="fill:#000000;stroke-width:1.33333"
       d="M 35.333333,71.133056 C 25.738325,69.126702 18.668583,65.999014 13.863571,61.63473 7.2265819,55.606505 6.4907992,53.739651 8.8838475,49.000002 11.198437,44.415747 14.781561,44.31838 18.860053,48.728911 24.599579,54.935703 31.807349,57.792646 42,57.900886 c 7.451459,0.07913 9.333333,-0.304143 9.333333,-1.900884 0,-2.133357 -2.715621,-2.380047 -9.359276,-0.850205 -5.276737,1.215078 -9.327336,-1.552659 -8.070004,-5.514162 0.598739,-1.886457 3.427298,-3.779548 8.496735,-5.686675 8.495396,-3.195975 15.963709,-2.90022 23.288857,0.92227 3.793195,1.979406 10.581886,2.291614 56.581415,2.602148 59.95547,0.404748 54.25985,1.81254 53.6605,-13.263323 -0.98608,-24.8036573 0.35571,-27.5433881 13.48943,-27.5433881 7.77677,0 12.91958,1.5402186 14.80197,4.4330341 0.48929,0.751935 0.78929,11.070208 0.66667,22.929494 -0.1683,16.274984 -0.68132,22.114451 -2.09218,23.81391 -1.71326,2.06373 -7.3594,2.231217 -67.67772,2.007582 -57.343977,-0.212606 -66.107193,0.01787 -68.130778,1.791878 -3.58376,3.141757 -10.979531,6.592677 -18.322285,8.549311 -6.777496,1.806009 -8.586703,1.933718 -13.333334,0.94118 z M 193.82628,45.000002 c 0.44219,-1.650001 0.81217,-7.968831 0.82219,-14.041848 0.0147,-8.905624 -0.39476,-11.200316 -2.11636,-11.860956 -3.49092,-1.339589 -4.49015,2.182473 -4.5117,15.902803 -0.0187,11.849989 0.20174,13.000001 2.49075,13.000001 1.47707,0 2.84223,-1.235402 3.31512,-3 z"
       id="path511" />
  </g>
</svg>
