<?xml version="1.0" encoding="UTF-8" standalone="no"?>
<!-- Created with Inkscape (http://www.inkscape.org/) -->

<svg
   version="1.1"
   id="svg175"
   width="208"
   height="217.33333"
   viewBox="0 0 208 217.33333"
   xmlns="http://www.w3.org/2000/svg"
   xmlns:svg="http://www.w3.org/2000/svg">
  <defs
     id="defs179" />
  <g
     id="g181">
    <path
       style="fill:#000000;stroke-width:1.33333"
       d="m 39.333333,212.23073 c -2.2,-0.23976 -4.407317,-0.83976 -4.905148,-1.33333 -0.497832,-0.49358 -1.563964,-5.7563 -2.369181,-11.69494 -2.397483,-17.68193 0.357559,-19.51168 11.388923,-7.56388 3.878976,4.20122 7.285852,7.35122 7.570836,7 2.698373,-3.32553 6.31457,-10.85621 6.31457,-13.15 0,-1.57482 2.486151,-7.74266 5.524779,-13.70632 l 5.524779,-10.84298 -0.742759,-17.71524 c -0.408519,-9.74338 -1.344975,-18.79134 -2.081016,-20.10657 -1.209941,-2.16204 -1.796293,-1.90567 -6.115352,2.67387 -2.627404,2.78586 -4.777097,5.52617 -4.777097,6.08957 0,0.56341 -1.515506,1.71489 -3.36779,2.55885 -3.009353,1.37116 -3.527565,1.1838 -4.869009,-1.76035 -0.825671,-1.81215 -2.610803,-3.64699 -3.966959,-4.07742 -3.784285,-1.20108 -5.216662,-4.91668 -3.343673,-8.67352 3.129464,-6.27708 22.515608,-16.07503 31.547431,-15.94438 5.969705,0.0864 21.801829,2.43874 30.666663,4.55654 4.76667,1.13875 10.75017,2.08297 13.29668,2.09825 4.29577,0.0258 4.44015,-0.10238 2,-1.77534 -1.44651,-0.99172 -5.14119,-2.1926 -8.2104,-2.66863 -3.06922,-0.47602 -10.569218,-2.41363 -16.666669,-4.30578 C 85.655491,99.996968 78.266667,97.790321 75.333333,96.985467 64.992115,94.148016 59.198547,90.177324 45.897664,76.811372 c -9.9505,-9.999178 -13.6702,-14.674054 -14.339812,-18.02211 -1.325683,-6.628416 2.32318,-11.960548 11.564863,-16.899888 4.23012,-2.260843 8.991346,-5.410843 10.580502,-7 L 56.592592,32 H 49.674865 C 45.870116,32 40.786783,32.859398 38.378569,33.909774 31.863576,36.751378 9.8528847,41.44901 7.4228153,40.516505 6.2609403,40.070653 4.9296932,38.189345 4.4644887,36.335822 3.4585159,32.327708 7.52623,28.586442 13.951697,27.609998 16.178264,27.271638 21.3,26.095726 25.333333,24.99686 c 4.033334,-1.098866 8.903946,-2.364202 10.823583,-2.811858 1.919637,-0.447656 7.143825,-4.422413 11.609307,-8.832794 L 55.88528,5.3333333 h 9.607297 c 10.268807,0 9.675103,-0.2545335 30.066714,12.8902347 3.790942,2.443704 7.632839,4.443098 8.537539,4.443098 0.90471,0 5.60303,1.873751 10.44071,4.163892 8.69575,4.116534 20.02061,6.373135 32.41555,6.459149 6.48682,0.04501 9.04691,2.156218 9.04691,7.460618 0,1.98628 -1.28761,2.18443 -10.66667,1.641485 -5.86666,-0.339616 -10.66666,-0.116707 -10.66666,0.495353 0,0.61206 0.87964,1.112836 1.95476,1.112836 3.26784,0 11.37857,4.384991 11.37857,6.151712 0,2.898844 -4.28433,6.111584 -7.21044,5.406968 C 139.25529,55.189226 134.85,53.937383 131,52.776806 127.15,51.616229 120.95433,49.808927 117.23186,48.760581 111.05327,47.020529 89.311461,33.867345 87.339399,30.676481 85.726407,28.066604 81.095735,29.39532 73.260175,34.716347 c -4.359763,2.960659 -7.926842,5.905128 -7.926842,6.543267 0,0.638139 3.15,1.4281 7,1.755468 8.073723,0.686515 26.740964,7.611009 35.510157,13.172269 3.30656,2.096956 6.54348,3.812648 7.19316,3.812648 0.64967,0 3.6822,2.009579 6.73895,4.465731 4.89974,3.937026 8.3371,6.012932 17.20631,10.391322 1.27338,0.628622 3.5049,1.142947 4.95894,1.142947 1.45403,0 4.94058,1.197201 7.74788,2.660448 4.7608,2.481468 28.27814,5.451134 44.695,5.64389 6.40288,0.07517 7.65651,2.32648 6.50632,11.684219 -0.772,6.280934 -1.48652,7.643154 -5.38714,10.270564 -2.4734,1.66604 -5.01332,2.71013 -5.64426,2.32019 -0.63094,-0.38995 -5.0991,1.12019 -9.92926,3.35585 -10.6445,4.92686 -13.01298,5.00052 -23.5191,0.7315 -4.51185,-1.83333 -10.04993,-3.30835 -12.30684,-3.27783 l -4.10345,0.0555 5,4.41914 c 5.51849,4.87739 6.96623,11.76338 2.8086,13.35881 -2.4558,0.94237 -24.65071,-2.61519 -29.8086,-4.77794 -1.83333,-0.76873 -6.33333,-1.91359 -10,-2.54414 -3.66667,-0.63055 -8.76667,-1.54263 -11.333333,-2.02686 L 94,116.99295 l 3,3.25612 c 3.81949,4.14558 3.98269,9.926 0.313133,11.09067 -2.742442,0.87042 -10.130144,-2.83781 -13.326502,-6.68918 -0.905566,-1.09114 -2.697012,-1.9839 -3.980991,-1.9839 -2.139959,0 -2.284041,1.52782 -1.728948,18.33334 0.624493,18.90653 2.374425,27.34625 7.51442,36.24116 C 89.0667,182.90966 98.509868,196 99.323452,196 c 1.110198,0 6.335128,-6.05983 9.555118,-11.08196 2.64506,-4.12542 3.93562,-5.00379 6.85656,-4.66667 3.58624,0.41391 3.59948,0.45613 3.98092,12.69924 0.33338,10.70053 0.0483,12.61841 -2.21193,14.8786 -1.88262,1.88261 -3.97474,2.46636 -7.62386,2.12721 -2.76608,-0.25708 -9.87071,0.0716 -15.788077,0.73028 -11.298831,1.25782 -47.9122,2.2902 -54.75885,1.54403 z m 29.388832,-15.4694 c 1.317308,-8.78444 -0.557712,-10.25653 -4.198589,-3.29636 -3.942401,7.5366 -3.931292,9.20169 0.06139,9.20169 2.823882,0 3.368132,-0.77685 4.137196,-5.90533 z m 17.941032,4.60236 c 1.720896,-1.08789 1.535892,-2.12848 -1.340045,-7.53737 -1.835116,-3.45139 -3.933555,-6.47399 -4.663197,-6.71691 -1.377452,-0.45857 -2.451628,12.40363 -1.204414,14.42165 0.926934,1.49982 4.709343,1.41198 7.207656,-0.16737 z M 175.2706,103.78598 c 5.00172,-2.27894 4.17111,-3.52617 -2.93727,-4.410495 -3.48333,-0.433351 -8.5522,-1.970113 -11.26416,-3.41503 -2.71194,-1.444918 -5.91445,-2.627123 -7.11668,-2.627123 -1.20222,0 -5.88336,-2.028828 -10.40252,-4.508507 -4.51914,-2.47968 -9.82048,-4.879525 -11.78073,-5.332992 -1.96025,-0.453465 -6.31544,-2.924637 -9.6782,-5.491492 -3.36276,-2.566854 -6.98805,-4.667009 -8.05618,-4.667009 -1.06814,0 -3.91295,-1.72076 -6.3218,-3.823912 -4.69289,-4.097334 -17.159247,-10.842754 -20.038727,-10.842754 -0.961208,0 -3.201176,-1.01809 -4.977709,-2.262422 -4.001807,-2.802974 -19.686089,-3.703981 -27.62988,-1.58724 -3.079957,0.8207 -6.63488,2.635799 -7.899828,4.033551 -2.19898,2.429845 -2.102665,2.744868 2.194811,7.178739 2.472094,2.550554 4.953988,4.637372 5.515317,4.637372 0.561331,0 3.670076,2.574996 6.908324,5.722213 3.99542,3.883102 9.047109,6.926217 15.717845,9.46836 5.406566,2.060381 11.93012,4.682756 14.496787,5.827501 2.566667,1.144745 7.666667,2.607329 11.33333,3.250185 13.27002,2.326559 24.20599,3.893487 34.66667,4.967111 5.86667,0.602124 13.66667,1.996014 17.33333,3.097554 8.34407,2.5067 15.53875,2.79048 19.93727,0.78639 z M 130.30556,40.527777 C 129.8625,40.084722 128.7125,40.037353 127.75,40.42251 c -1.06364,0.425635 -0.7477,0.741577 0.80556,0.805556 1.40555,0.05789 2.19305,-0.257237 1.75,-0.700293 z M 57.94306,20.09213 C 58.364968,19.409469 58.100377,18.47406 57.355083,18.013441 56.609787,17.552824 56,18.111365 56,19.254644 c 0,2.342034 0.800073,2.686878 1.94306,0.837486 z M 70.054825,18.577958 C 71.618329,16.048153 69.338001,15.423904 67.015873,17.746032 64.937284,19.82462 64.933632,20 66.968929,20 c 1.213864,0 2.602518,-0.639919 3.085896,-1.422042 z"
       id="path650" />
  </g>
</svg>
