<?xml version="1.0" encoding="UTF-8" standalone="no"?>
<!-- Created with Inkscape (http://www.inkscape.org/) -->

<svg
   version="1.1"
   id="svg165"
   width="208"
   height="218.66667"
   viewBox="0 0 208 218.66667"
   xmlns="http://www.w3.org/2000/svg"
   xmlns:svg="http://www.w3.org/2000/svg">
  <defs
     id="defs169" />
  <g
     id="g171">
    <path
       style="fill:#000000;stroke-width:1.33333"
       d="m 65.792952,211.74308 c -1.976364,-3.0607 -4.202745,-6.95669 -6.485112,-11.34841 -3.686672,-7.09389 -5.805496,-8.14368 -8.737263,-4.32895 -1.381205,1.79719 -2.524622,3.73048 -2.540929,4.2962 -0.01631,0.56572 -1.60938,3.41572 -3.540163,6.33334 -5.887093,8.896 -9.701145,7.10485 -19.225457,-9.02859 -1.406991,-2.38333 -3.107719,-4.33333 -3.779396,-4.33333 -1.531371,0 -6.518717,8.34345 -7.627084,12.75954 -0.928069,3.69772 -5.0657492,6.49627 -7.9617356,5.38498 -2.147172,-0.82395 -2.5172201,-6.35174 -0.6580041,-9.82928 0.6807945,-1.27339 2.518037,-5.31524 4.0827613,-8.98191 5.5505994,-13.00689 6.8990864,-15.06445 10.2989184,-15.71437 4.010275,-0.76662 7.132863,2.43288 13.008213,13.32856 2.221431,4.11957 4.638966,7.48712 5.372299,7.48341 1.262152,-0.007 3.597913,-4.09096 7.489847,-13.0976 0.95066,-2.2 2.561952,-5.01089 3.580648,-6.24643 2.80983,-3.40793 7.843272,-0.4533 11.660536,6.84472 4.157129,7.9478 8.173489,12.94163 9.412221,11.7029 0.545765,-0.54576 3.177129,-5.0368 5.847477,-9.98008 7.454164,-13.79895 11.560068,-12.99759 21.686646,4.23268 2.101842,3.57626 4.291735,5.87733 5.111325,5.37078 0.78867,-0.48742 3.15842,-4.61196 5.26611,-9.16562 2.5469,-5.5026 5.00635,-8.8144 7.33314,-9.87456 3.18421,-1.45083 3.8625,-1.20812 7.49692,2.68253 2.19778,2.35273 5.45788,7.16265 7.24467,10.68872 1.78679,3.52607 3.7861,6.41103 4.44289,6.41103 0.6568,0 3.96282,-4.8 7.3467,-10.66667 8.39236,-14.54987 10.25034,-14.45423 19.4266,1 3.15687,5.31667 6.12554,9.66667 6.59702,9.66667 1.5709,0 4.05725,-3.1738 4.05725,-5.17904 0,-3.87944 5.72688,-13.72411 8.79753,-15.12319 4.27716,-1.94881 5.90298,-0.35223 13.1159,12.88005 8.38988,15.39146 9.1018,17.5498 6.6105,20.04111 -3.21261,3.21261 -6.73749,0.35041 -11.52512,-9.35839 C 186.66801,195.86726 183.96844,192 182.99977,192 c -0.96866,0 -2.9481,2.76892 -4.39876,6.15316 C 174.88424,206.82403 170.9078,212 167.96316,212 c -3.37637,0 -8.30435,-5.52161 -12.03311,-13.48268 C 154.25115,194.93279 152.22024,192 151.41692,192 c -1.57664,0 -9.17048,12.09182 -10.67625,17 -0.62962,2.05228 -1.96007,3 -4.2115,3 -3.93293,0 -7.37749,-3.50246 -13.00982,-13.2285 -2.30231,-3.9757 -4.72007,-7.2757 -5.3728,-7.33334 -0.65273,-0.0576 -3.6641,4.69518 -6.69193,10.56184 -4.94407,9.57955 -5.89543,10.66667 -9.3346,10.66667 -3.407815,0 -4.502531,-1.20247 -9.942503,-10.92112 -3.362177,-6.00663 -6.427553,-10.61044 -6.811949,-10.23071 -0.384396,0.37974 -3.101533,5.29423 -6.038084,10.92112 -4.393088,8.41784 -5.965563,10.30331 -8.874085,10.64046 -1.944196,0.22536 -4.041398,-0.37464 -4.660447,-1.33334 z M 5.178912,124.86021 c -1.1432161,-2.50909 -0.8696408,-4.23933 1.3619184,-8.61355 1.5358765,-3.01057 2.7925029,-6.15722 2.7925029,-6.99257 0,-3.28607 9.7772987,-17.254089 12.0774757,-17.254089 2.959328,0 9.769791,8.475299 13.393776,16.667919 2.508468,5.67081 2.942935,6.03722 4.976451,4.19691 1.225417,-1.10899 3.391829,-5.01538 4.814247,-8.68088 6.467392,-16.666111 10.084649,-16.077078 22.128926,3.60347 3.236423,5.28836 4.667435,4.8164 8.375334,-2.76227 3.896836,-7.964847 8.108341,-13.025149 10.840358,-13.025149 1.843618,0 6.665659,5.669591 12.777654,15.023529 L 102,112.04706 l 2.99338,-3.6902 c 1.64635,-2.0296 2.99635,-4.08635 3,-4.57053 0.004,-0.48419 1.6132,-3.33419 3.5768,-6.333338 4.92792,-7.526784 7.82347,-7.135275 14.42982,1.951062 2.93333,4.034486 6.28616,8.614516 7.45073,10.177836 2.86222,3.84225 4.57322,2.4522 9.30266,-7.55766 4.51092,-9.547382 6.74616,-11.917107 10.18262,-10.795281 2.41447,0.788196 7.35859,7.377805 11.06828,14.752011 3.30566,6.57104 6.03548,5.82304 10.56624,-2.89522 4.69394,-9.032285 7.17892,-12.419072 9.11222,-12.419072 1.83352,0 13.65058,15.951282 13.65058,18.426272 0,1.0591 1.26039,3.965 2.80087,6.45754 1.85293,2.99811 2.52123,5.64612 1.9746,7.82405 -1.65072,6.57702 -7.1884,2.54031 -13.31752,-9.70786 -1.92657,-3.85 -4.31888,-7 -5.31621,-7 -0.99735,0 -3.16323,3.13788 -4.81308,6.97307 -7.55799,17.56902 -13.05606,17.22909 -22.54122,-1.39365 -1.61185,-3.16465 -3.64842,-5.53767 -4.5257,-5.27338 -0.8773,0.26428 -3.73876,4.65354 -6.35883,9.75391 -4.49236,8.74507 -5.02408,9.27338 -9.33333,9.27338 -4.20552,0 -4.89613,-0.61488 -8.66834,-7.71781 -4.66297,-8.78019 -7.71551,-12.29971 -9.6375,-11.11185 -0.72902,0.45056 -2.3957,3.79534 -3.70373,7.43286 -2.30105,6.39899 -7.44005,13.3968 -9.83825,13.3968 -3.39694,0 -6.074305,-2.52595 -11.520471,-10.86895 -3.326778,-5.0963 -6.627262,-8.81915 -7.396903,-8.34348 -0.764359,0.4724 -3.082621,4.63201 -5.151697,9.24359 -5.980568,13.32956 -10.299334,13.11997 -19.480963,-0.9454 -6.936733,-10.6264 -7.360285,-10.57803 -13.133089,1.50008 -2.116794,4.42884 -4.970826,8.40859 -6.342292,8.84387 -3.099787,0.98384 -8.275159,-2.29585 -11.227435,-7.11494 -5.970299,-9.74551 -7.933815,-12.29727 -9.468907,-12.30566 -0.916666,-0.005 -1.666666,0.91084 -1.666666,2.03522 0,1.12438 -1.578687,5.17438 -3.508194,9 -4.882347,9.6802 -7.5187982,11.21667 -9.979561,5.81588 z m 0,-88 c -1.1432161,-2.509087 -0.8696408,-4.239332 1.3619184,-8.61355 1.5358765,-3.010568 2.7925029,-6.157225 2.7925029,-6.992573 0,-3.286072 9.7772987,-17.2540869 12.0774757,-17.2540869 2.959328,0 9.769791,8.4752969 13.393776,16.6679159 2.508468,5.670808 2.942935,6.037218 4.976451,4.196911 1.225417,-1.108988 3.391829,-5.015381 4.814247,-8.680873 6.467392,-16.66611607 10.084649,-16.077084 22.128926,3.603461 3.236423,5.288367 4.667435,4.816405 8.375334,-2.762265 3.896836,-7.964848 8.108341,-13.0251499 10.840358,-13.0251499 1.843618,0 6.665659,5.6695902 12.777654,15.0235299 L 102,24.047058 l 2.99338,-3.690195 c 1.64635,-2.029608 2.99635,-4.086351 3,-4.570539 0.004,-0.484188 1.6132,-3.334188 3.5768,-6.3333332 4.92792,-7.5267836 7.82347,-7.1352753 14.42982,1.9510612 2.93333,4.034491 6.28616,8.614519 7.45073,10.177839 2.86222,3.842252 4.57322,2.452201 9.30266,-7.557657 4.51092,-9.5473875 6.74616,-11.9171121 10.18262,-10.7952861 2.41447,0.7881958 7.35859,7.3778041 11.06828,14.7520121 3.30566,6.571036 6.03548,5.823042 10.56624,-2.895225 4.69394,-9.0322813 7.17892,-12.4190683 9.11222,-12.4190683 1.83352,0 13.65058,15.9512853 13.65058,18.4262763 0,1.059099 1.26039,3.964991 2.80087,6.457539 1.85293,2.998108 2.52123,5.646112 1.9746,7.824045 -1.65072,6.577024 -7.1884,2.540315 -13.31752,-9.70786 -1.92657,-3.85 -4.31888,-7 -5.31621,-7 -0.99735,0 -3.16323,3.137884 -4.81308,6.973075 -7.55799,17.569012 -13.05606,17.229085 -22.54122,-1.393651 -1.61185,-3.164649 -3.64842,-5.537673 -4.5257,-5.273387 -0.8773,0.264287 -3.73876,4.653547 -6.35883,9.75391 -4.49236,8.745079 -5.02408,9.273387 -9.33333,9.273387 -4.20552,0 -4.89613,-0.614883 -8.66834,-7.717814 -4.66297,-8.780188 -7.71551,-12.299707 -9.6375,-11.111852 -0.72902,0.45056 -2.3957,3.795348 -3.70373,7.432863 -2.30105,6.398995 -7.44005,13.396803 -9.83825,13.396803 -3.39694,0 -6.074305,-2.52595 -11.520471,-10.868953 -3.326778,-5.096301 -6.627262,-8.819148 -7.396903,-8.343482 -0.764359,0.472398 -3.082621,4.632017 -5.151697,9.243596 -5.980568,13.329559 -10.299334,13.119971 -19.480963,-0.9454 -6.936733,-10.626407 -7.360285,-10.578028 -13.133089,1.500076 -2.116794,4.428844 -4.970826,8.408587 -6.342292,8.843873 -3.099787,0.983835 -8.275159,-2.295854 -11.227435,-7.114947 -5.970299,-9.745505 -7.933815,-12.297261 -9.468907,-12.305653 -0.916666,-0.005 -1.666666,0.910836 -1.666666,2.035215 0,1.124378 -1.578687,5.174378 -3.508194,9 -4.882347,9.6802 -7.5187982,11.216669 -9.979561,5.815884 z"
       id="path789" />
  </g>
</svg>
