<?xml version="1.0" encoding="UTF-8" standalone="no"?>
<!-- Created with Inkscape (http://www.inkscape.org/) -->

<svg
   version="1.1"
   id="svg75"
   width="213.33333"
   height="68"
   viewBox="0 0 213.33333 68"
   xmlns="http://www.w3.org/2000/svg"
   xmlns:svg="http://www.w3.org/2000/svg">
  <defs
     id="defs79" />
  <g
     id="g81">
    <path
       style="fill:#000000;stroke-width:1.33333"
       d="M 149.19705,62.085936 C 148.87764,61.766535 127.1722,61.366687 100.96272,61.197387 46.608435,60.846284 47.467794,61.011495 43.305574,50.112877 40.756145,43.437292 42.076149,43.93678 25.333333,43.3122 c -3.3,-0.123104 -8.55,-0.941836 -11.666667,-1.819405 -5.2412716,-1.475799 -5.6666661,-1.935555 -5.6666661,-6.124382 0,-3.761782 0.8984568,-5.16445 5.3048651,-8.281941 C 19.92958,22.399552 20.13695,19.316777 14,16.752596 10.129281,15.135307 9.3333332,14.116893 9.3333332,10.781614 c 0,-10.78952096 18.3479748,-7.6214617 21.9709828,3.793627 0.627814,1.978068 1.676367,1.426531 6.546181,-3.443283 6.570566,-6.5705655 9.766857,-7.1467379 14.943712,-2.6937949 5.043742,4.3384439 3.739109,8.9817619 -3.432211,12.2155769 -6.271297,2.827961 -6.608673,4.381987 -1.906236,8.780508 4.770113,4.461823 6.302845,7.584373 7.149732,14.565752 0.642082,5.293069 1.147914,6.048557 4.293188,6.41212 4.340457,0.501715 12.582288,-3.546007 17.101317,-8.398787 C 81.960508,35.612615 87.202364,34.13294 104,34.109473 c 12.19708,-0.01704 16.24165,0.465204 19.77417,2.357719 2.44246,1.308527 7.97456,3.508028 12.29357,4.887783 4.319,1.379753 9.22063,3.243085 10.8925,4.140736 5.76721,3.096504 19.10234,5.14791 39.03976,6.005669 11,0.473248 20.75,1.452505 21.66666,2.176128 2.49711,1.971229 2.00856,6.045696 -0.91234,7.608913 -2.46927,1.321511 -56.2877,2.06909 -57.55727,0.799515 z M 114.66666,49.235165 c 0,-2.35655 -13.36991,-4.328852 -17.835468,-2.631052 -6.052223,2.301052 -3.844077,3.391026 7.174008,3.541202 5.86381,0.07992 10.66146,-0.329644 10.66146,-0.91015 z M 31.333333,33.333333 C 30.880108,32.6 29.680108,32 28.666666,32 27.653225,32 26.453225,32.6 26,33.333333 c -0.469212,0.759202 0.67905,1.333334 2.666666,1.333334 1.987616,0 3.135879,-0.574132 2.666667,-1.333334 z"
       id="path928" />
  </g>
</svg>
