<?xml version="1.0" encoding="UTF-8" standalone="no"?>
<!-- Created with Inkscape (http://www.inkscape.org/) -->

<svg
   version="1.1"
   id="svg205"
   width="73.333336"
   height="212"
   viewBox="0 0 73.333336 212"
   xmlns="http://www.w3.org/2000/svg"
   xmlns:svg="http://www.w3.org/2000/svg">
  <defs
     id="defs209" />
  <g
     id="g211">
    <path
       style="fill:#000000;stroke-width:1.33333"
       d="m 42.484436,206.03999 c -1.341861,-1.34186 -12.217782,-2.41483 -21.611934,-2.13214 -10.396621,0.31287 -14.2058351,-1.81353 -14.2058351,-7.93008 0,-5.28077 7.1224031,-20.03733 11.8319121,-24.51397 l 4.070826,-3.86952 -4.095196,-5.17061 c -2.252358,-2.84383 -5.820318,-6.0627 -7.9288,-7.15304 -2.108482,-1.09034 -4.6715271,-3.62228 -5.6956556,-5.62654 -4.26023333,-8.33741 4.2465247,-13.68277 9.3526456,-5.87689 2.662932,4.07092 12.80193,13.56613 14.485919,13.56613 1.040646,0 0.365231,-9.60485 -1.968965,-28 -0.697905,-5.5 -1.295267,-14.5398 -1.327469,-20.08845 -0.0322,-5.54865 -0.651844,-13.348651 -1.376982,-17.333335 -0.725137,-3.984682 -1.901429,-15.344878 -2.613981,-25.244878 -0.712552,-9.9 -1.991335,-26.903186 -2.841739,-37.784855 C 16.411386,1.3988405 15.699517,2.4791464 35.641988,2.957606 50.876995,3.3231243 51.344997,3.4239047 52.866027,6.6666667 54.017681,9.1219348 54.074243,12.809809 53.080751,20.666667 52.338917,26.533333 51.523727,39.733333 51.269219,50 50.751774,70.873348 48.565986,100.19413 46.547884,113.33333 45.815754,118.1 45.006342,124.7 44.749191,128 c -0.257151,3.3 -0.89716,10.99935 -1.422245,17.10965 l -0.954699,11.10966 5.813877,-3.60075 c 3.197633,-1.9804 7.694833,-5.38053 9.993777,-7.55583 5.251287,-4.96884 10.289252,-4.76629 10.892647,0.43794 0.315772,2.72352 -0.847532,4.57354 -5.239999,8.33333 -3.105232,2.65797 -6.356962,4.83267 -7.226067,4.83267 -1.969641,0 -8.60648,5.12801 -8.60648,6.64988 0,0.61765 2.925819,3.27074 6.50182,5.89577 6.249719,4.58772 7.44896,6.50163 10.519039,16.78768 2.649841,8.87808 3.108065,14.23567 1.338251,15.64693 -1.885344,1.5034 -22.680002,3.58774 -23.874676,2.39306 z m 2.514362,-10.18491 c 6.049337,-0.0583 11.323857,-0.63179 11.721155,-1.27463 1.000632,-1.61905 -2.496374,-8.00114 -6.259932,-11.42449 -7.497879,-6.82007 -16.354957,-8.4702 -23.871589,-4.44743 -5.081777,2.7197 -8.786785,16.11416 -4.921765,17.79334 0.916667,0.39825 4.066667,0.43945 7.000001,0.0916 2.933333,-0.3479 10.282791,-0.68015 16.33213,-0.73836 z M 38.700236,83.131619 c 0.04748,-7.222391 0.06003,-14.570951 0.02788,-16.330135 -0.03215,-1.759184 0.519828,-3.895303 1.226615,-4.746929 0.706788,-0.851626 1.599021,-5.856672 1.982741,-11.122323 C 42.749772,39.785331 45.01022,20.876773 46.1324,15.841819 46.775559,12.95609 46.36891,12.231792 43.788622,11.66724 38.548556,10.520745 26.933106,10.48 26.345676,11.606053 25.693197,12.856798 27.230081,30.895427 29.276026,46 c 0.794652,5.866667 2.08757,17.866667 2.873151,26.666667 3.007622,33.691073 2.55697,31.054803 4.631715,27.09501 1.172447,-2.237696 1.864128,-8.230724 1.919344,-16.630058 z"
       id="path233" />
  </g>
</svg>
