<?xml version="1.0" encoding="UTF-8" standalone="no"?>
<!-- Created with Inkscape (http://www.inkscape.org/) -->

<svg
   version="1.1"
   id="svg195"
   width="225.33333"
   height="205.33333"
   viewBox="0 0 225.33333 205.33333"
   xmlns="http://www.w3.org/2000/svg"
   xmlns:svg="http://www.w3.org/2000/svg">
  <defs
     id="defs199" />
  <g
     id="g201">
    <path
       style="fill:#000000;stroke-width:1.33333"
       d="m 110.18312,199.22096 c -14.207417,-3.15182 -25.485317,-12.2707 -31.645912,-25.58768 -3.225488,-6.97235 -3.870542,-10.09926 -3.870542,-18.76248 0,-15.01518 2.584141,-21.32912 13.168825,-32.17599 7.762776,-7.95506 9.947162,-9.39138 18.055719,-11.87237 12.47094,-3.81575 20.41304,-3.6115 31.74987,0.8165 7.25714,2.83455 10.75284,5.21039 15.81372,10.74779 8.04536,8.80292 10.1573,13.20529 11.72916,24.44967 1.55086,11.0942 -1.01072,26.09572 -5.46095,31.98106 -14.38479,19.02362 -28.86915,24.98915 -49.53989,20.4035 z m 17.56891,-10.21326 c 0.24229,-1.27909 -0.86487,-4.15888 -2.46035,-6.39953 -2.72065,-3.8208 -3.01394,-3.92483 -4.72054,-1.67437 -1.00082,1.31974 -1.83875,4.38754 -1.86207,6.81734 -0.0402,4.18608 0.18432,4.3959 4.28001,4 2.84065,-0.27458 4.47343,-1.21505 4.76295,-2.74344 z m -18.94619,-4.67437 c 0.39719,-1.28333 1.27835,-3.37519 1.95816,-4.64857 0.6798,-1.27339 1.236,-3.2473 1.236,-4.38646 0,-1.13916 1.231,-4.48417 2.73555,-7.43333 2.28223,-4.47353 3.31623,-5.29332 6.23954,-4.94689 2.74544,0.32536 4.67885,2.407 8.93111,9.6158 7.36934,12.49314 8.81393,13.22973 14.71986,7.50546 2.589,-2.50934 4.70727,-5.56316 4.70727,-6.78624 0,-2.22908 -8.83291,-9.2531 -11.63604,-9.2531 -0.82097,0 -3.37001,-1.57967 -5.66453,-3.51038 -4.92547,-4.1445 -4.96365,-8.50574 -0.0918,-10.48962 1.80085,-0.73334 6.30085,-2.90624 10,-4.82868 8.39296,-4.36179 9.56994,-9.04552 3.9511,-15.72313 -5.15835,-6.13035 -9.5689,-5.30627 -13.65756,2.55181 -4.42975,8.51364 -9.36138,14.66666 -11.75528,14.66666 -2.14149,0 -7.01512,-5.02352 -7.11454,-7.33333 C 113.22198,136.01798 106.59573,124 104.91046,124 c -2.13987,0 -14.243795,12.46284 -14.243795,14.66616 0,0.79589 3.69131,3.19278 8.20291,5.32644 9.323615,4.40937 14.463755,8.42022 14.463755,11.28609 0,1.07964 -5.1,5.28715 -11.33333,9.35 -6.233335,4.06285 -11.333335,8.20923 -11.333335,9.21415 0,2.04297 13.041915,12.62562 15.708515,12.74642 0.93968,0.0425 2.03348,-0.9726 2.43066,-2.25593 z M 91.999999,160 c 1.833333,-1.43406 4.083333,-2.62071 5,-2.63702 3.405761,-0.0605 1.515385,-3.54865 -2.761331,-5.09513 -8.680639,-3.13896 -11.0554,-1.70612 -9.643743,5.81867 0.977251,5.20918 2.641848,5.63933 7.405074,1.91348 z m 63.117781,-3.59666 c 0.97302,-5.99597 0.69083,-6.33954 -3.9392,-4.79621 -5.37566,1.79189 -7.18204,5.38476 -3.92374,7.80429 4.50521,3.34546 6.9859,2.39643 7.86294,-3.00808 z M 125.97202,123 c 0.89373,-4.27219 0.83683,-4.33334 -4.03275,-4.33334 -4.83079,0 -4.9208,0.0924 -4.09802,4.20626 0.46269,2.31344 1.53615,5.04356 2.38546,6.06692 2.06941,2.49348 4.50863,-0.0283 5.74531,-5.93984 z M 11.693104,67.08599 C 8.2716957,66.189187 6.492421,57.608323 5.9152495,39.221275 5.4394266,24.062905 5.6107007,22.650264 8.4302931,18.477593 c 2.4747849,-3.662395 3.7427249,-4.397196 6.9643389,-4.036 5.937198,0.665659 8.108676,3.328291 6.175162,7.571891 C 20.598104,24.146113 20,32.764766 20,44.634165 c 0,15.654366 -0.38473,19.560087 -2.095239,21.270595 -2.162143,2.162144 -2.340184,2.196002 -6.211657,1.18123 z m 95.858246,-3.97708 c -3.54628,-1.858088 -3.5518,-1.885896 -3.86611,-19.484827 -0.61077,-34.1986849 -0.17929,-36.0612181 8.19117,-35.3581682 7.1986,0.6046243 8.14378,3.8489612 8.4228,28.9114682 0.20872,18.74832 -0.0495,21.670047 -2.1171,23.954721 -3.23756,3.577462 -6.43944,4.172856 -10.63076,1.976806 z m 97.21506,-3.866302 c -1.18517,-1.185176 -2.03941,-7.90568 -2.64764,-20.829491 -0.49387,-10.493881 -1.21663,-20.713057 -1.60613,-22.70928 -1.02071,-5.231138 4.63042,-10.6885836 10.47917,-10.1199915 6.66073,0.6475315 7.63264,4.1054438 7.6552,27.2363415 0.0176,18.07568 -0.25219,20.499113 -2.61701,23.505495 -3.09686,3.937016 -8.77343,5.407077 -11.26359,2.916926 z"
       id="path372" />
  </g>
</svg>
