<?xml version="1.0" encoding="UTF-8" standalone="no"?>
<!-- Created with Inkscape (http://www.inkscape.org/) -->

<svg
   version="1.1"
   id="svg185"
   width="117.33333"
   height="220"
   viewBox="0 0 117.33333 220"
   xmlns="http://www.w3.org/2000/svg"
   xmlns:svg="http://www.w3.org/2000/svg">
  <defs
     id="defs189" />
  <g
     id="g191">
    <path
       style="fill:#000000;stroke-width:1.33333"
       d="M 11.286,213.76219 C 9.0867203,211.56291 8.9921343,208.37199 9.8712919,166.036 10.389474,141.08287 11.125523,113.16667 11.506958,104 12.167842,88.117569 11.285175,80.921953 7.8700471,74.351425 5.8764244,70.515799 6.4872694,67.805381 10.099872,64.457335 12.729886,62.01992 13.479489,60.112567 13.304016,56.30444 12.707442,43.357581 12.938122,42.666667 17.857347,42.666667 c 2.811439,0 4.817475,0.764741 5.29923,2.020174 0.426366,1.111096 0.753598,8.1185 0.72718,15.572008 -0.05223,14.734891 1.927,19.943515 7.916677,20.833886 3.143458,0.467277 3.026833,0.93136 3.338612,-13.28511 0.219316,-10.000352 2.397409,-13.648249 8.929107,-14.954589 4.491179,-0.898236 5.1561,-2.951439 1.347296,-4.160307 -3.060137,-0.971249 -10.748783,-9.398426 -10.748783,-11.781254 0,-0.914322 2.802586,-6.371716 6.227969,-12.127544 8.160756,-13.712894 14.469022,-18.0629218 24.355058,-16.7946607 7.17064,0.9199077 9.413066,2.7216017 12.821139,10.3012377 2.851983,6.342876 2.3769,12.431567 -1.404168,17.995908 C 72.713481,42.104048 72.484018,44 75.733107,44 c 4.873877,0 12.951598,6.882461 18.26689,15.56394 2.933334,4.79102 6.517963,10.585052 7.965853,12.875627 2.17022,3.433328 2.63851,6.557753 2.66667,17.79199 0.023,9.162824 -0.51188,14.174613 -1.63252,15.297873 -1.98821,1.99286 -2.22687,9.96697 -0.33334,11.13724 2.10155,1.29882 1.56391,4.34782 -1.22515,6.94806 -1.40717,1.3119 -2.972219,4.03527 -3.477882,6.05194 -0.597693,2.3837 -1.801872,3.66666 -3.441508,3.66666 -2.903483,0 -3.082415,1.0377 -1.077109,6.24654 0.794758,2.06441 2.01953,7.27592 2.721716,11.58116 0.702185,4.30522 2.498301,10.22221 3.991363,13.14886 3.55858,6.97539 7.11675,18.25464 10.01857,31.75839 2.28021,10.61111 2.27542,10.97025 -0.17004,12.75843 -1.38397,1.01197 -4.75585,1.83996 -7.49308,1.83996 -2.737222,0 -7.943665,0.68484 -11.569872,1.52186 -9.214854,2.12706 -13.610337,0.82468 -13.610337,-4.0327 0,-3.48726 0.486024,-3.85998 6.022979,-4.61891 3.312637,-0.45404 7.812637,-1.75101 9.999999,-2.88213 3.562756,-1.84238 3.976883,-2.71275 3.975695,-8.3557 -0.001,-4.90697 -1.474391,-9.21782 -6.666667,-19.50582 -3.665937,-7.26371 -6.665339,-14.63254 -6.665339,-16.37519 0,-1.74264 -0.902994,-3.51495 -2.006652,-3.93847 -2.850338,-1.09377 -14.049447,2.45691 -15.296147,4.84966 -0.574301,1.10224 -1.473872,8.45434 -1.999044,16.33804 -0.525171,7.88368 -1.497099,14.66909 -2.159841,15.07868 -0.66274,0.4096 -1.204982,5.46645 -1.204982,11.23746 0,7.54723 -0.561214,11.05395 -1.999196,12.49194 -2.335919,2.33592 -13.161067,3.90734 -22.66747,3.29052 -5.597006,-0.36318 -6.731038,-0.88346 -7.067854,-3.24271 -0.291689,-2.04315 0.6181,-3.19128 3.333334,-4.2066 2.053985,-0.76805 6.13452,-2.29139 9.067853,-3.38519 l 5.333333,-1.98873 0.257779,-15.138 c 0.141778,-8.32591 0.935446,-19.03801 1.763708,-23.80468 4.67155,-26.88492 7.173093,-50.75793 6.055442,-57.78902 -0.447832,-2.8173 -1.998345,-7.443393 -3.445585,-10.280217 -1.447239,-2.836824 -2.631344,-6.317571 -2.631344,-7.734994 0,-1.417422 -0.9,-2.922494 -2,-3.344604 -1.103529,-0.423464 -1.999925,-0.03917 -1.999835,0.857348 9.1e-5,0.893651 -1.633424,5.37482 -3.630032,9.958154 -4.240759,9.734923 -6.65609,10.517763 -13.120248,4.25245 l -4.210403,-4.080882 -1.013676,5.747545 c -0.963244,5.4616 -1.311847,17.57987 -2.274896,79.08089 -0.319967,20.43326 -0.885081,27.57866 -2.417576,30.56821 -2.505514,4.88768 -4.378826,5.52915 -7.380666,2.52731 z m 63.342742,-72.00194 6.93497,-2.23974 -0.837986,-6.09359 c -0.460892,-3.35147 -1.262728,-10.83166 -1.781858,-16.62265 -1.061316,-11.83919 -2.954418,-14.44252 -8.623919,-11.85932 -2.693828,1.22739 -3.473903,3.00192 -4.770212,10.85137 -1.693883,10.25685 -2.072429,25.90321 -0.66085,27.31479 1.257651,1.25765 1.968234,1.1591 9.739855,-1.35086 z M 93.709849,97.705255 c 1.229839,-5.295444 1.883319,-10.695444 1.452179,-12 -0.741355,-2.243214 -4.912868,-11.094612 -7.828697,-16.61146 -2.126267,-4.022968 -6.329981,-2.454948 -7.703912,2.873622 -1.500629,5.819942 -0.05805,18.016995 2.369157,20.031403 1.006507,0.835327 2.217883,3.427316 2.691948,5.759977 0.474064,2.332663 1.455303,6.563783 2.180528,9.402493 1.197485,4.68725 1.469412,4.93218 2.96066,2.66667 0.903137,-1.37204 2.648299,-6.82726 3.878137,-12.122705 z M 69.328457,90.012823 c 0.701961,-1.8463 0.80839,-5.842042 0.23972,-9 C 69.005673,77.889103 69.05733,72.933333 69.682973,70 c 2.973481,-13.941216 2.95247,-14.490419 -0.51378,-13.429615 -1.743058,0.533442 -5.269195,1.41828 -7.835861,1.966307 -12.390333,2.645551 -13.862035,7.768419 -5.315416,18.50252 2.943188,3.696489 6.25124,8.874865 7.351226,11.507505 2.346641,5.616303 4.207367,6.074076 5.959315,1.466106 z M 63.390193,36.233932 c 5.507112,-4.154023 7.556494,-8.058767 6.269541,-11.945525 -0.96224,-2.906086 -2.136056,-3.701676 -5.940373,-4.026275 -4.092184,-0.34916 -5.310028,0.285587 -8.896935,4.637125 -3.963061,4.807882 -5.567258,11.911468 -3.220029,14.258698 1.327493,1.327493 8.515109,-0.455432 11.787796,-2.924023 z"
       id="path511" />
  </g>
</svg>
