<?xml version="1.0" encoding="UTF-8" standalone="no"?>
<!-- Created with Inkscape (http://www.inkscape.org/) -->

<svg
   version="1.1"
   id="svg335"
   width="213.33333"
   height="148"
   viewBox="0 0 213.33333 148"
   xmlns="http://www.w3.org/2000/svg"
   xmlns:svg="http://www.w3.org/2000/svg">
  <defs
     id="defs339" />
  <g
     id="g341">
    <path
       style="fill:#000000;stroke-width:1.33333"
       d="m 81.617569,140.00007 c -9.064339,-0.7226 -10.896135,-2.12806 -10.930486,-8.38652 -0.04424,-8.06114 7.23816,-17.04753 18.559272,-22.90191 5.460857,-2.82391 23.837585,-3.60413 29.214535,-1.24035 1.94651,0.85571 5.63911,2.48305 8.20577,3.6163 6.17031,2.72437 12.05299,9.02742 14.21239,15.228 2.33636,6.70873 2.22955,8.87117 -0.56304,11.39842 -1.92871,1.74546 -6.65567,2.20155 -26.33334,2.54082 -13.19047,0.22741 -27.754765,0.1128 -32.365101,-0.25476 z m 48.715761,-8.32134 c 4.79255,-3.84914 -1.64715,-11.38018 -12.83661,-15.01205 -9.20245,-2.98693 -19.559864,-1.91416 -27.726412,2.87175 -6.468892,3.79102 -10.897888,9.24863 -8.968513,11.05141 0.659012,0.61577 9.230037,1.4668 19.046723,1.89117 9.816682,0.42437 18.048342,0.97142 18.292582,1.21564 0.88769,0.8877 10.56968,-0.71476 12.19223,-2.01792 z M 114.35977,40.335655 c -1.36385,-0.308022 -2.88377,-2.663346 -3.71806,-5.761663 -1.44271,-5.357828 -5.30838,-7.382745 -5.30838,-2.780643 0,3.224535 -4.50274,7.228807 -7.483232,6.654816 -1.34381,-0.258794 -2.824989,-2.291808 -3.462685,-4.75276 C 93.774507,31.33012 92.009749,28.718797 90.465731,27.892463 87.962463,26.552755 66.940887,26.359881 15.488436,27.204548 6.6474012,27.349687 4.3303453,25.511071 5.8290632,19.539703 L 6.717472,16 h 38.659962 c 37.482691,0 38.795033,-0.08853 43.095478,-2.907551 2.439533,-1.599153 4.981119,-4.094653 5.647968,-5.5455557 0.666848,-1.4509026 2.55791,-3.1214904 4.20236,-3.7124172 2.47993,-0.8911533 3.33276,-0.4114046 5,2.812676 1.10555,2.1378984 2.01009,4.8168839 2.01009,5.9533009 0,1.136418 0.78,2.066214 1.73333,2.066214 2.48702,0 4.93334,-2.79765 4.93334,-5.6418467 0,-3.030846 3.63722,-4.5724271 6.51456,-2.7610959 1.18366,0.7451312 2.45573,3.0906195 2.82682,5.2121966 0.63619,3.637083 1.13121,3.902243 8.66667,4.642276 4.39557,0.431676 22.61569,0.56465 40.48916,0.295496 17.87347,-0.269152 33.62347,-0.131906 35,0.304987 1.8078,0.573775 2.50279,2.06526 2.50279,5.371171 v 4.576816 l -15.66667,0.05484 c -8.61667,0.03016 -27.61364,0.246632 -42.21549,0.481044 -23.89948,0.383673 -26.7269,0.669741 -28.33333,2.866666 C 120.80303,31.411471 120,33.821535 120,35.424913 c 0,3.485572 -2.46144,5.628659 -5.64023,4.910742 z"
       id="path890" />
  </g>
</svg>
