<?xml version="1.0" encoding="UTF-8" standalone="no"?>
<!-- Created with Inkscape (http://www.inkscape.org/) -->

<svg
   version="1.1"
   id="svg175"
   width="222.66667"
   height="218.66667"
   viewBox="0 0 222.66667 218.66667"
   xmlns="http://www.w3.org/2000/svg"
   xmlns:svg="http://www.w3.org/2000/svg">
  <defs
     id="defs179" />
  <g
     id="g181">
    <path
       style="fill:#000000;stroke-width:1.33333"
       d="M 72.266665,208.78376 C 39.94773,199.68059 8.0000001,176.93266 8.0000001,163.02358 c 0,-9.18146 -6.3628973,-8.6896 102.5571099,-7.92763 53.96025,0.37748 98.25956,0.73532 98.44289,0.7952 0.90774,0.29644 0.16736,7.26095 -1.00469,9.45095 -1.02343,1.91229 -0.78285,2.91054 1.02317,4.24568 3.44188,2.54446 6.28824,7.58142 8.1797,14.47489 1.429,5.20808 1.34394,6.89961 -0.60346,12 -2.79674,7.32495 -6.35186,10.604 -11.49676,10.604 -6.91677,0 -13.87321,-5.64009 -17.26746,-14 -0.89324,-2.2 -1.75987,-4.18936 -1.92584,-4.42079 -0.38346,-0.53466 -14.37028,7.11586 -20.73638,11.34238 -2.65744,1.7643 -11.05744,5.0678 -18.66666,7.34109 -12.94022,3.86596 -15.43019,4.16037 -38.50162,4.55239 -22.553164,0.38322 -25.614885,0.15205 -35.733335,-2.69798 z m 66.001615,-12.1753 c 7.84962,-2.5987 16.17128,-5.8987 18.49259,-7.33334 2.32131,-1.43465 5.14859,-2.60845 6.28284,-2.60845 2.18033,0 21.31371,-13.91724 22.06103,-16.04677 1.10614,-3.15204 -6.29599,-4.00659 -25.92936,-2.99344 -11.08687,0.57212 -22.18687,0.74013 -24.66667,0.37337 -2.47979,-0.36677 -15.60871,-0.36677 -29.17538,0 -13.566662,0.36676 -27.666662,0.26064 -31.333329,-0.23583 -3.666667,-0.49646 -16.116667,-0.94646 -27.666667,-1 -19.478304,-0.0903 -21,0.0791 -21,2.33692 0,4.34739 8.337001,10.32628 28.724547,20.59986 12.11642,6.10564 16.523652,7.61244 25.832598,8.83198 6.173096,0.80874 11.523096,1.76971 11.888889,2.1355 0.365793,0.3658 7.764236,0.66508 16.440982,0.66508 14.49277,0 16.93674,-0.38431 30.04793,-4.72488 z m 66.84211,-6.45118 c 0.57659,-2.9736 -3.27403,-8.82394 -5.80779,-8.82394 -2.61968,0 -2.5059,4.60813 0.21635,8.76281 2.38448,3.63919 4.89235,3.6666 5.59144,0.0612 z M 194.66667,105.33333 C 193.2,103.86667 192,101.96099 192,101.0985 c 0,-0.86249 -0.15,-21.712492 -0.33333,-46.333334 L 191.33334,10 198.25067,9.5998544 c 5.56697,-0.3220317 7.16192,0.068397 8.17029,1.9999996 0.68914,1.320081 1.53094,22.445541 1.87068,46.945468 0.58174,41.950788 0.47475,44.688298 -1.83696,46.999998 -3.21629,3.21629 -8.45393,3.1221 -11.78801,-0.21199 z M 18.786659,103.88202 C 8.9624427,102.57104 8.5586985,101.39822 7.5485692,71.237016 6.0297358,25.886548 6.2895193,16.761182 9.2017881,13.164682 11.639828,10.153831 12.546137,10.017918 32.868455,9.61557 70.207406,8.8763207 85.441719,8.4591432 112.66667,7.4303702 c 30.64141,-1.157874 30.60299,-1.1688345 32.56419,9.2882358 1.94912,10.392698 2.3281,81.589101 0.44433,83.472874 -1.6566,1.65661 -16.74219,2.79821 -35.00852,2.64926 -15.532742,-0.12665 -17.333335,-0.68658 -17.333335,-5.390156 0,-5.063701 1.926414,-5.730577 18.181955,-6.294131 7.43341,-0.257705 15.83341,-0.949714 18.66667,-1.5378 l 5.15138,-1.069246 0.42588,-32.189431 c 0.45896,-34.68943 -0.1355,-38.671541 -5.54004,-37.111738 -4.1195,1.188924 -74.589797,3.813145 -93.064901,3.465614 -10.330433,-0.194322 -15.821548,0.208435 -16.437873,1.20567 -1.145388,1.853277 -1.69309,66.214659 -0.573006,67.334887 0.445538,0.445594 9.145538,0.852835 19.333334,0.904982 14.796407,0.07573 18.992731,0.513213 20.8566,2.17436 3.162694,2.818706 2.95992,7.903759 -0.38659,9.694749 -2.767711,1.48124 -29.680042,1.38546 -41.160085,-0.14648 z"
       id="path650" />
  </g>
</svg>
