<?xml version="1.0" encoding="UTF-8" standalone="no"?>
<!-- Created with Inkscape (http://www.inkscape.org/) -->

<svg
   version="1.1"
   id="svg165"
   width="209.33333"
   height="209.33333"
   viewBox="0 0 209.33333 209.33333"
   xmlns="http://www.w3.org/2000/svg"
   xmlns:svg="http://www.w3.org/2000/svg">
  <defs
     id="defs169" />
  <g
     id="g171">
    <path
       style="fill:#000000;stroke-width:1.33333"
       d="m 73.608905,204.26821 c -7.724178,-0.36679 -8.501349,-0.68471 -9.778303,-4 -3.170506,-8.23143 1.735772,-22.31308 12.535581,-35.97875 7.817752,-9.89229 14.237216,-12.66956 29.633817,-12.8206 11.31009,-0.11093 12.49266,0.1513 20.56921,4.56128 12.79833,6.98818 22.85917,22.26139 24.77737,37.61419 1.46988,11.76449 1.17555,11.85393 -37.51011,11.39775 -17.510057,-0.20648 -35.612463,-0.55472 -40.227565,-0.77387 z m 33.184155,-12.32084 c 14.36951,0.0703 27.11524,-0.25171 28.32384,-0.71548 2.98796,-1.1466 1.60458,-6.47031 -3.31498,-12.75709 C 129.71086,175.8026 128,173.09277 128,172.45297 c 0,-0.63981 -3.24376,-3.10347 -7.20836,-5.4748 -6.00738,-3.59317 -8.55531,-4.31151 -15.29278,-4.31151 -9.845404,0 -15.899189,2.94274 -23.681944,11.51176 -7.387508,8.13386 -9.707109,20.94084 -3.348716,18.48895 1.209156,-0.46628 13.955341,-0.79028 28.32486,-0.72 z M 85.999999,72.027948 C 67.852471,67.343978 54.800015,63.451456 51.389451,61.706342 45.600857,58.744439 34.936638,49.617753 34.068577,46.882734 33.664058,45.608209 29.466789,42.02347 24.741313,38.916647 15.42399,32.790861 4.3915054,21.20858 3.1144517,16.212026 2.5597697,14.041798 3.1874402,12.219967 5.1743797,10.233027 L 8.0320727,7.3753344 98.394802,7.116967 C 148.0943,6.974865 189.33709,6.7011154 190.04544,6.5086346 c 1.9625,-0.5332815 10.40553,1.6255339 12.28789,3.1419218 4.58789,3.6959006 -0.67445,12.5101616 -16.53812,27.7008126 -13.14599,12.588274 -17.21191,15.618142 -30.46017,22.698527 -11.43388,6.110707 -18.22891,8.378575 -34.00171,11.348212 -10.66896,2.008708 -28.742811,2.330887 -35.333331,0.62984 z M 123.25044,59.818863 c 2.88774,-1.367043 7.31524,-2.485531 9.8389,-2.485531 8.32726,0 26.96954,-11.131799 39.66456,-23.684771 C 178.93925,27.532426 184,21.761126 184,20.82345 184,19.462152 169.69197,19.092468 113,18.988984 73.949999,18.917704 38.699999,18.505886 34.666666,18.073833 25.525712,17.09465 20,18.197273 20,21.000493 c 0,1.167071 5.55,7.442217 12.333333,13.944772 9.436262,9.045672 15.152105,13.264809 24.333333,17.961599 12.642202,6.467304 19.115077,8.083539 38.666666,9.654823 14.527098,1.167485 21.000448,0.531485 27.917108,-2.742824 z"
       id="path789" />
  </g>
</svg>
