<?xml version="1.0" encoding="UTF-8" standalone="no"?>
<!-- Created with Inkscape (http://www.inkscape.org/) -->

<svg
   version="1.1"
   id="svg75"
   width="105.33333"
   height="206.66667"
   viewBox="0 0 105.33333 206.66667"
   xmlns="http://www.w3.org/2000/svg"
   xmlns:svg="http://www.w3.org/2000/svg">
  <defs
     id="defs79" />
  <g
     id="g81">
    <path
       style="fill:#000000;stroke-width:1.33333"
       d="m 44.941107,201.21134 c -4.249056,-0.62158 -9.649056,-2.18606 -12,-3.4766 -7.519741,-4.12795 -17.042788,-14.163 -21.219348,-22.36022 -4.7729982,-9.36781 -5.3634869,-19.46885 -1.8409658,-31.492 2.6951958,-9.19929 6.5513928,-14.5357 16.4448958,-22.75731 19.519128,-16.22062 44.088554,-15.17418 61.215368,2.60721 11.374567,11.8093 13.989813,21.22924 11.196873,40.33029 -2.077401,14.20744 -5.156474,19.09032 -19.567966,31.03139 -4.139717,3.43008 -16.410527,7.59762 -21.81781,7.40998 -2.577018,-0.0895 -8.16199,-0.67116 -12.411047,-1.29274 z m 15.761796,-10.60331 c 1.130504,-1.82919 -3.109446,-8.25029 -5.025961,-7.61145 -2.411106,0.8037 -4.166245,4.47181 -3.26432,6.8222 0.926259,2.41378 6.932845,2.98564 8.290281,0.78925 z M 43.982727,179.62246 c 4.542086,-12.15351 5.877462,-14.37055 9.150494,-15.19203 2.732688,-0.68587 4.090948,0.012 7.191065,3.69533 2.102116,2.4975 4.784119,6.54707 5.960007,8.99903 1.175888,2.45196 3.612037,5.12975 5.413666,5.95063 2.914911,1.32812 3.707827,1.00885 7.199293,-2.89879 2.157984,-2.4152 3.738912,-5.30529 3.513176,-6.42243 -0.388367,-1.92197 -5.718782,-5.60949 -15.396913,-10.65142 -4.707678,-2.45251 -6.489064,-5.89416 -4.702853,-9.08595 0.626975,-1.12033 5.463564,-4.10901 10.747977,-6.64151 8.903373,-4.26682 9.608025,-4.91148 9.608025,-8.78992 0,-4.60124 -7.317596,-13.25206 -11.209718,-13.25206 -1.359666,0 -4.198661,4.1448 -7.766435,11.33862 -8.304239,16.74414 -11.324182,16.60914 -18.828927,-0.84169 -3.563781,-8.28689 -4.774569,-9.89399 -7.711888,-10.23615 -2.704932,-0.31508 -4.565426,0.85709 -8.317037,5.24 -6.61336,7.72623 -6.364974,10.8186 1.152809,14.35238 3.292007,1.54742 6.523423,2.8135 7.180924,2.8135 1.915836,0 8.481835,3.68547 9.499448,5.332 1.886036,3.05167 -0.339937,8.10898 -4.497732,10.21863 -9.136397,4.63579 -16.914271,10.38303 -16.549914,12.22909 0.209993,1.06395 1.575216,2.59878 3.033829,3.41071 1.458613,0.81193 4.437752,2.79253 6.620308,4.40133 4.554992,3.35756 6.263045,2.57922 8.710396,-3.9693 z M 25.399546,160.63243 c 2.163582,-1.11883 3.933786,-2.89772 3.933786,-3.95309 0,-2.28076 -4.055777,-4.67934 -7.912345,-4.67934 -2.232676,0 -2.754321,0.84175 -2.754321,4.44444 0,3.97979 0.824735,6.22223 2.288436,6.22223 0.280861,0 2.280861,-0.91541 4.444444,-2.03424 z m 63.196381,-2.82528 c 1.219162,-4.85753 -0.401522,-5.90895 -6.262596,-4.06285 -5.682764,1.78993 -6.37452,3.85196 -2,5.96172 4.992904,2.40798 7.315618,1.87418 8.262596,-1.89887 z M 59.193201,123.66667 C 60.019783,120.13263 59.856977,120 54.692068,120 c -2.947306,0 -5.356494,0.45 -5.353752,1 0.0028,0.55 1.245878,3.03544 2.762526,5.52319 2.324456,3.8128 3.030599,4.23161 4.496148,2.66667 0.956234,-1.02109 2.124528,-3.50652 2.596211,-5.52319 z M 10.31054,98.120066 C 8.4716896,96.281215 8.0088163,88.651305 6.1223769,29.083242 5.6320109,13.598966 6.86026,8.9364295 11.609827,8.2524209 c 2.679402,-0.3858738 6.566427,3.7935461 4.992222,5.3677531 -0.350604,0.350604 0.04696,18.473079 0.883466,40.272167 C 19.046921,94.58184 18.651885,100 14.123822,100 c -1.06334,0 -2.779318,-0.84597 -3.813282,-1.879934 z m 35.958103,-1.234118 c -0.37583,-0.979396 -0.457351,-5.629396 -0.181159,-10.333333 0.276192,-4.703938 0.519496,-24.538421 0.540675,-44.076629 0.03473,-32.044355 0.258348,-35.6083767 2.282875,-36.3852611 1.337526,-0.5132568 3.196087,0.1025253 4.599796,1.524015 2.146162,2.173344 2.368934,6.1759421 2.507444,45.0519281 0.08361,23.466667 0.113707,43.416667 0.06687,44.333334 -0.1162,2.274537 -8.939252,2.172026 -9.816502,-0.114054 z m 41.935922,-2.639457 c -0.94034,-1.13304 -1.776448,-16.88369 -2.362924,-44.5129 C 84.944797,7.482738 84.96662,6.9567481 87.67652,5.5064534 c 2.171616,-1.1622137 3.349422,-0.9763079 5.657997,0.8930626 2.880307,2.3323312 2.91548,2.8398729 2.91548,42.069397 0,28.123208 -0.472679,40.849731 -1.620093,43.619836 -1.737508,4.194714 -4.081518,4.981874 -6.425339,2.157742 z"
       id="path928" />
  </g>
</svg>
