<?xml version="1.0" encoding="UTF-8" standalone="no"?>
<!-- Created with Inkscape (http://www.inkscape.org/) -->

<svg
   version="1.1"
   id="svg39"
   width="240"
   height="212"
   viewBox="0 0 240 212"
   xmlns="http://www.w3.org/2000/svg"
   xmlns:svg="http://www.w3.org/2000/svg">
  <defs
     id="defs43" />
  <g
     id="g45">
    <path
       style="fill:#000000;stroke-width:1.33333"
       d="m 12.537458,203.61452 c -5.2247396,-2.85511 -5.1431216,-7.63635 0.171694,-10.05793 4.605521,-2.09843 7.734451,-7.53675 6.839392,-11.88742 -2.878488,-13.9916 -5.179837,-21.62418 -8.30377,-27.54 -4.6816075,-8.86561 -5.9910848,-23.5292 -2.6740108,-29.94371 2.2704748,-4.39062 6.5647858,-6.85213 11.9541098,-6.85213 4.920968,0 14.739454,7.47061 22.853904,17.38888 C 47.553524,139.825 51.732143,144 52.664599,144 c 3.835693,0 5.697752,-6.13076 6.495614,-21.38656 1.177411,-22.5131 2.648047,-34.288367 4.515579,-36.155899 0.911648,-0.911648 1.657541,-2.840297 1.657541,-4.285886 0,-1.445591 0.97277,-3.703244 2.161708,-5.017007 2.832964,-3.130389 1.635419,-5.915165 -3.049348,-7.090968 -3.040841,-0.763203 -4.157262,-0.36552 -5.77435,2.056891 -3.859904,5.782161 -15.618411,17.212762 -17.70654,17.212762 -3.061203,0 -6.298136,-3.716286 -6.298136,-7.23082 0,-2.959865 3.559001,-7.708472 12.235222,-16.324874 L 51.153563,61.555279 48.74834,51.024264 C 46.43108,40.878385 46.430985,40.325753 48.74584,35.913292 50.067297,33.394315 51.595558,28.130149 52.141978,24.215148 53.554048,14.097895 58.47763,7.1812625 65.648376,5.2414027 79.355809,1.5332109 91.685786,5.9662768 100.77564,17.870908 c 8.62287,11.293024 11.14975,23.753253 11.54676,56.937941 0.30924,25.848191 -0.35879,29.509991 -5.69236,31.202801 -2.5373,0.8053 -2.68301,1.78872 -2.33475,15.75696 0.2043,8.19393 -0.0778,21.19806 -0.62678,28.89806 -2.74554,38.50601 -2.73662,41.06894 0.15574,44.74598 1.94293,2.47003 2.39253,4.23662 1.61335,6.33916 -1.07965,2.91335 -1.1032,2.91494 -45.721408,3.0821 -28.707403,0.1076 -45.546898,-0.3277 -47.178661,-1.21939 z m 76.795875,-11.60729 c 0,-2.1081 0.892847,-8.07734 1.984104,-13.265 1.091258,-5.18766 1.95415,-10.77688 1.917539,-12.4205 -0.03661,-1.64362 -0.01433,-17.60397 0.04951,-35.46746 C 93.401781,98.029824 92.684963,91.772756 88.184092,86.333333 87.122193,85.05 85.493113,84 84.563915,84 81.619691,84 73.410061,94.876884 72.575301,99.883633 c -0.438604,2.630667 -1.645578,8.274087 -2.682165,12.540937 -1.036588,4.26684 -2.189052,10.26684 -2.561032,13.33333 -0.961328,7.9249 -4.655215,35.42269 -5.450657,40.57543 -1.183379,7.66572 -7.341712,4.65358 -10.611279,-5.19017 -1.744101,-5.251 -4.810815,-9.4978 -12.938599,-17.91744 -10.788209,-11.1756 -16.484206,-14.88659 -20.49001,-13.34942 -3.120883,1.1976 -1.61406,12.65867 2.619857,19.92697 1.771752,3.04153 3.646377,8.23006 4.165837,11.53006 1.118683,7.10674 3.922822,15.95111 6.855284,21.62187 1.645571,3.18217 1.788143,4.78843 0.647275,7.29235 -0.804729,1.7662 -1.463145,3.45966 -1.463145,3.76328 0,0.67501 17.336781,1.36452 41,1.63061 l 17.666666,0.19867 z M 100.13209,59.232312 C 98.216064,35.943385 96.624644,29.951411 90.627289,23.445049 83.0308,15.203832 69.733987,12.62495 65.998904,18.66844 c -1.564501,2.531416 3.151853,6.289287 8.853191,7.053997 9.84504,1.320496 15.058242,9.382472 11.063,17.108418 -1.634927,3.1616 -1.925107,6.005512 -1.226739,12.022684 0.633601,5.459153 0.413316,8.485693 -0.716732,9.847318 -2.171115,2.616035 0.107973,5.38173 5.288695,6.417874 2.12695,0.425389 4.963494,2.255494 6.303432,4.0669 1.964544,2.655784 2.769288,2.969362 4.156318,1.619561 1.362451,-1.325884 1.448121,-4.979428 0.412021,-17.57288 z M 70.187668,47.898092 c 0.111265,-4.24332 -0.697768,-6.355239 -3.689241,-9.630483 l -3.83176,-4.19524 v 4.234412 c 0,2.328926 0.551186,5.612643 1.22486,7.297148 0.673673,1.684506 1.554842,4.112738 1.958153,5.396071 1.417199,4.509511 4.190405,2.526509 4.337988,-3.101908 z M 177.76157,134.41881 c -1.5978,-0.77456 -3.55364,-2.98565 -4.3463,-4.91355 -1.71035,-4.15983 -2.58359,-56.795101 -1.01374,-61.103724 0.58752,-1.612488 2.3263,-3.331097 3.86395,-3.819132 1.53767,-0.488033 13.28931,-0.869728 26.11476,-0.848209 21.48919,0.03605 23.52764,0.247762 25.97785,2.697978 2.4911,2.491084 2.66688,4.55905 2.78602,32.774008 0.16389,38.817069 2.51312,35.782249 -28.07344,36.266339 -13.75831,0.21775 -23.52508,-0.18888 -25.3091,-1.05371 z M 218,125.12461 c 1.92388,-1.81967 0.96191,-40.826567 -1.11185,-45.084147 -1.61644,-3.318695 -1.86976,-3.369031 -15.50991,-3.081982 -10.51663,0.221316 -14.37135,0.796346 -15.95577,2.380208 -1.72487,1.724258 -2.08914,5.858074 -2.08914,23.708191 v 21.61979 L 196,126.17291 c 12.89555,1.53347 19.60857,1.21359 22,-1.0483 z"
       id="path147" />
  </g>
</svg>
