<?xml version="1.0" encoding="UTF-8" standalone="no"?>
<!-- Created with Inkscape (http://www.inkscape.org/) -->

<svg
   version="1.1"
   id="svg39"
   width="222.66667"
   height="208"
   viewBox="0 0 222.66667 208"
   xmlns="http://www.w3.org/2000/svg"
   xmlns:svg="http://www.w3.org/2000/svg">
  <defs
     id="defs43" />
  <g
     id="g45">
    <path
       style="fill:#000000;stroke-width:1.33333"
       d="m 92.666668,203.77325 c -5.866667,-0.52282 -11.620031,-0.67593 -12.785252,-0.34024 -1.165223,0.33571 -4.295951,-0.29938 -6.957175,-1.41132 -2.661225,-1.11193 -6.207861,-2.013 -7.881415,-2.00237 -2.921277,0.0185 -10.070869,-1.98864 -31.709492,-8.90215 -5.5,-1.75724 -13.6,-5.12746 -18,-7.48941 -6.9266533,-3.71825 -8.0552363,-4.86481 -8.4116903,-8.54568 -0.4845457,-5.0036 1.5493996,-6.66559 14.5389383,-11.88012 13.764613,-5.52568 43.474582,-11.92915 65.206086,-14.05403 22.494272,-2.19946 58.989812,-0.55738 77.808522,3.50092 8.69468,1.87504 16.96257,4.02679 18.37309,4.78168 1.41052,0.75488 5.99668,2.48256 10.19148,3.83928 4.1948,1.35672 11.37691,4.34274 15.96024,6.63558 7.3522,3.678 8.33334,4.6247 8.33334,8.04092 0,4.71213 -4.2034,8.02242 -15.45336,12.16994 -4.33399,1.5978 -8.47998,3.31722 -9.21331,3.82092 -3.70043,2.5417 -31.59847,8.70554 -45.33333,10.016 -28.08539,2.6797 -40.41477,3.09019 -54.666672,1.82008 z m 42.000002,-14.45824 c 16.78301,-1.93145 26.39435,-3.51264 35.33333,-5.81278 4.4,-1.1322 11.56756,-2.88607 15.92792,-3.8975 4.36036,-1.01141 8.13379,-2.4565 8.38539,-3.2113 0.2516,-0.7548 -3.01597,-2.2965 -7.26127,-3.42598 -4.24529,-1.12949 -11.0187,-2.94166 -15.05204,-4.02705 -29.20434,-7.85897 -67.43046,-9.87408 -95.999999,-5.06067 -28.166272,4.74546 -47.159514,8.93215 -47.685943,10.51143 -1.217696,3.65309 28.256262,12.12887 51.019277,14.67153 14.976673,1.67292 41.921575,1.79579 55.333335,0.25232 z M 145.19706,62.085936 C 144.87764,61.766535 123.1722,61.366687 96.962725,61.197387 42.608437,60.846284 43.467795,61.011495 39.305575,50.112877 36.756146,43.437292 38.07615,43.93678 21.333334,43.3122 c -3.3,-0.123104 -8.55,-0.941836 -11.6666672,-1.819405 -5.2412722,-1.475799 -5.6666667,-1.935555 -5.6666667,-6.124382 0,-3.761782 0.8984568,-5.16445 5.3048648,-8.281941 C 15.92958,22.399552 16.136951,19.316777 10,16.752596 6.1292816,15.135307 5.3333334,14.116893 5.3333334,10.781614 c 0,-10.78952096 18.3479746,-7.6214617 21.9709826,3.793627 0.627815,1.978068 1.676368,1.426531 6.546182,-3.443283 6.570567,-6.5705655 9.766857,-7.1467379 14.943712,-2.6937949 5.043743,4.3384439 3.739109,8.9817619 -3.432211,12.2155769 -6.271297,2.827961 -6.608673,4.381987 -1.906236,8.780508 4.770114,4.461823 6.302846,7.584373 7.149732,14.565752 0.642083,5.293069 1.147915,6.048557 4.293188,6.41212 4.340458,0.501715 12.582289,-3.546007 17.101318,-8.398787 5.96051,-6.400718 11.202366,-7.880393 27.999999,-7.90386 12.19708,-0.01704 16.24166,0.465204 19.77417,2.357719 2.44246,1.308527 7.97457,3.508028 12.29357,4.887783 4.31901,1.379753 9.22064,3.243085 10.8925,4.140736 5.76722,3.096504 19.10235,5.14791 39.03976,6.005669 11,0.473248 20.75,1.452505 21.66667,2.176128 2.49711,1.971229 2.00856,6.045696 -0.91235,7.608913 -2.46926,1.321511 -56.28769,2.06909 -57.55726,0.799515 z M 110.66667,49.235165 c 0,-2.35655 -13.369921,-4.328852 -17.835475,-2.631052 -6.052223,2.301052 -3.844078,3.391026 7.174015,3.541202 5.8638,0.07992 10.66146,-0.329644 10.66146,-0.91015 z M 27.333334,33.333333 C 26.880108,32.6 25.680108,32 24.666667,32 23.653226,32 22.453226,32.6 22,33.333333 c -0.469212,0.759202 0.679051,1.333334 2.666667,1.333334 1.987616,0 3.135879,-0.574132 2.666667,-1.333334 z"
       id="path147" />
  </g>
</svg>
