<?xml version="1.0" encoding="UTF-8" standalone="no"?>
<!-- Created with Inkscape (http://www.inkscape.org/) -->

<svg
   version="1.1"
   id="svg217"
   width="280"
   height="314.66666"
   viewBox="0 0 280 314.66666"
   xmlns="http://www.w3.org/2000/svg"
   xmlns:svg="http://www.w3.org/2000/svg">
  <defs
     id="defs221" />
  <g
     id="g223">
    <path
       style="fill:#000000;stroke-width:1.33333"
       d="m 12,304.85542 c -4.0622241,-1.32495 -4.7189855,-2.14823 -5.0706003,-6.35625 -0.7645849,-9.15034 -0.6950722,-9.16584 41.0871493,-9.16584 28.263335,0 37.417647,-0.399 38.238095,-1.66667 1.491059,-2.30381 0.916767,-46.36192 -0.624412,-47.90311 -0.763932,-0.76393 -12.302576,-0.83064 -29.772135,-0.17213 l -28.524764,1.07524 -0.666666,19.46804 c -0.686939,20.06003 -1.460516,22.87959 -6.73671,24.55419 -7.443394,2.36244 -9.493728,-4.95586 -9.214714,-32.8903 0.08313,-8.32256 0.293608,-27.73193 0.467736,-43.13193 0.174129,-15.4 -0.06466,-29.5 -0.530641,-31.33333 -0.465981,-1.83333 -0.397196,-5.74583 0.152855,-8.69444 1.265559,-6.78416 1.788901,-144.795776 0.57628,-151.972224 -0.607078,-3.59277 -0.326846,-6.095789 0.858671,-7.6696078 1.655117,-2.1972307 9.346641,-2.3379622 129.235936,-2.3646242 70.11184,-0.015592 128.3996,0.3260411 129.52835,0.7591845 2.59037,0.9940164 3.57178,5.8769585 2.02256,10.0629455 -0.65384,1.766656 -1.11114,28.412102 -1.01622,59.212101 0.49712,161.298665 0.2364,206.286155 -1.20385,207.726405 -0.81047,0.81047 -1.47359,4.91818 -1.47359,9.12823 0,4.21005 -0.5073,7.96819 -1.12736,8.35139 -0.62004,0.38321 -31.37004,1.01996 -68.33333,1.41498 -124.763939,1.33338 -181.630144,2.15051 -182.419923,2.62128 -0.432328,0.25771 -2.88605,-0.21638 -5.452717,-1.05353 z m 246.49719,-17.66911 c 2.8108,-0.57986 2.92138,-0.83128 0.99108,-2.25285 -1.98215,-1.45973 -2.17404,-12.98525 -2.18702,-131.35666 -0.008,-71.366094 0.30012,-130.265142 0.68431,-130.886776 0.3842,-0.621634 -16.44836,-1.031195 -37.40567,-0.910134 L 182.47571,22 l -2.41267,5.999999 c -1.32696,3.3 -3.98572,9.9 -5.90835,14.666667 -1.92262,4.766666 -3.49098,10.166666 -3.48524,12 l 0.0107,3.333333 3.24481,-4 c 1.78466,-2.2 4.03072,-5.5 4.99126,-7.333333 2.43226,-4.642331 3.6057,-5.238915 10.05017,-5.10956 3.15631,0.06336 7.11593,-0.844491 8.96361,-2.055144 1.82015,-1.192747 4.49524,-2.168629 5.94443,-2.168629 1.44919,0 2.95597,-0.519535 3.34843,-1.154522 0.39244,-0.634985 2.15752,-0.878484 3.9224,-0.541106 1.76486,0.337377 3.6156,-0.04471 4.11273,-0.849086 0.65237,-1.055556 1.65703,-1.059425 3.6106,-0.01391 1.98249,1.061004 3.74904,1.016848 6.60233,-0.165028 3.06686,-1.270332 5.16858,-1.257222 9.87904,0.06163 5.46671,1.530586 5.9802,2.034487 5.94636,5.835301 -0.0251,2.820351 -1.31326,5.412428 -4,8.048942 -2.17962,2.138889 -3.96296,4.965517 -3.96296,6.281394 0,1.315877 -1.08621,3.465877 -2.41381,4.777777 -3.09197,3.055423 -12.25285,17.101084 -12.25285,18.786353 0,0.705375 -1.71979,3.003695 -3.82175,5.107378 -2.10196,2.103681 -6.35433,8.596829 -9.44973,14.429217 -3.0954,5.832387 -6.77562,12.063307 -8.17826,13.846477 -1.40265,1.78318 -2.56641,3.91122 -2.58613,4.72899 -0.0197,0.81777 -1.73299,3.5333 -3.80723,6.0345 -3.9939,4.81599 -5.6471,5.30431 -27.49024,8.12012 -5.13333,0.66175 -10.84576,1.57586 -12.69428,2.03136 -3.54618,0.87384 -10.38705,5.46813 -9.2858,6.23629 0.35571,0.24811 3.50871,1.78716 7.00666,3.42009 4.07742,1.90347 6.92141,4.2865 7.92448,6.64008 2.44066,5.72672 5.17562,8.33775 8.73348,8.33775 2.89822,0 3.16845,-0.41809 2.36988,-3.66667 -0.49574,-2.01666 -2.66078,-5.06016 -4.81122,-6.7633 -6.83617,-5.41428 -3.87006,-11.05663 5.8402,-11.10968 2.33747,-0.0133 6.34994,-0.6697 8.9166,-1.45983 7.29494,-2.24571 25.9276,-1.17882 37.11814,2.12535 10.86025,3.20665 25.0976,18.52944 28.45658,30.62608 1.6911,6.09012 1.91199,29.06653 0.36124,37.57604 -1.00837,5.53333 -3.27325,9.94137 -7.66385,14.91592 -2.11903,2.40084 -3.16727,2.68308 -5.98548,1.6116 -1.87911,-0.71443 -5.139,-0.92066 -7.24423,-0.45828 -5.46841,1.20106 -14.41804,-3.3989 -22.89893,-11.7697 -3.87883,-3.82848 -7.89789,-8.16086 -8.93127,-9.62753 -2.27648,-3.23099 -14.98224,-7.79761 -18.54724,-6.66612 -3.36664,1.06852 -8.00953,-1.48801 -7.95589,-4.38079 0.0233,-1.25753 0.92333,-3.4511 2,-4.8746 4.83129,-6.38753 -0.49868,-13.09549 -6.26145,-7.88025 -5.55884,5.03068 -5.71544,7.05456 -0.9281,11.99387 3.51886,3.63053 4.39792,5.59405 4.26383,9.52398 -0.17207,5.0433 -3.95713,14.24555 -9.60095,23.3419 l -3.13822,5.05797 -24.18876,-0.60547 L 102,224.23836 l 0.20148,31.12813 c 0.11082,17.12048 0.56827,31.72161 1.01657,32.44697 0.81958,1.32611 148.70638,0.72881 155.27914,-0.62715 z M 50.333333,223.22268 c 1.65,-0.33375 3,-1.4312 3,-2.43876 0,-3.07975 3.901467,-3.74412 24.080087,-4.10055 10.677381,-0.18861 20.662855,-0.73947 22.189939,-1.22415 2.830281,-0.89829 3.640191,-2.51828 7.749101,-15.49962 2.27939,-7.20134 2.26974,-7.49962 -0.41269,-12.75762 C 103.43649,180.335 94.259889,172 90.202809,172 c -3.350952,0 -6.684844,3.02217 -8.089705,7.33333 -0.477939,1.46667 -3.524625,5.66667 -6.770415,9.33333 -5.029556,5.68174 -6.254136,6.44326 -8.288729,5.1545 -1.982368,-1.2557 -2.315799,-3.01955 -1.965785,-10.39907 0.364198,-7.6786 -0.06511,-9.71724 -3.157534,-14.99407 -3.007701,-5.13225 -3.445426,-7.08198 -2.742042,-12.21373 0.460348,-3.3586 1.380308,-6.64987 2.044356,-7.31392 0.720922,-0.72092 0.178576,-3.6074 -1.346132,-7.1644 -1.404419,-3.27639 -2.544798,-7.55731 -2.534174,-9.51318 C 57.363273,130.26692 56.203675,124.76666 54.775763,120 48.274776,98.298359 43.879241,75.431481 43.575648,61.733675 43.310589,49.774492 44.826984,46.192722 49.036699,48.834516 c 1.779274,1.11658 2.616058,4.714124 3.714606,15.970032 0.779884,7.99083 2.416468,18.128784 3.636855,22.528783 1.220385,4.4 2.855425,10.55 3.63342,13.666669 0.777996,3.11666 2.013527,5.66666 2.745625,5.66666 1.549872,0 0.534419,-28.202938 -1.464213,-40.666661 -2.677219,-16.695475 -0.254528,-27.942621 5.832095,-27.075032 3.21715,0.458573 2.603598,-6.121249 6.235166,66.866793 1.694766,34.06176 1.91414,35.84794 4.538628,36.95441 4.404062,1.85672 6.805067,4.27928 8.841104,8.92049 1.061023,2.41863 2.892206,4.33334 4.14431,4.33334 4.002397,0 9.826105,-12.90358 13.539755,-30 1.91152,-8.8 4.62762,-19.3 6.03577,-23.33334 1.40815,-4.033329 3.19435,-9.133329 3.96933,-11.333329 2.87975,-8.174993 5.71437,-18.83745 6.4787,-24.369734 0.43336,-3.136688 1.30413,-6.022098 1.93504,-6.412022 C 123.4838,60.161649 124,57.861759 124,55.440705 c 0,-2.50103 1.44485,-6.531015 3.34586,-9.332313 1.84022,-2.71172 4.51733,-7.22667 5.94913,-10.033223 1.4318,-2.806554 5.13281,-7.204003 8.22446,-9.772111 l 5.62122,-4.669284 -55.914159,0.426702 C 56.450723,22.325862 33.919464,23.016754 31.62794,23.88799 l -3.684421,1.400815 0.01391,24.355597 c 0.0076,13.395578 -0.296433,57.573888 -0.675736,98.174018 -0.496616,53.15722 -0.274416,74.31875 0.793879,75.60596 1.412252,1.70166 13.384156,1.59316 22.257765,-0.2017 z m 68.846657,-11.84244 c 1.18434,-1.80754 2.15334,-4.47212 2.15334,-5.92131 0,-1.44919 0.6,-3.00571 1.33334,-3.45893 C 123.4,201.54677 124,199.41136 124,197.25464 c 0,-2.15672 -0.6,-3.92131 -1.33333,-3.92131 -0.73334,0 -1.34426,1.05 -1.3576,2.33333 -0.0134,1.28334 -1.81334,4.97363 -4,8.20064 -4.2476,6.26852 -5.14086,10.79936 -2.12908,10.79936 1.01566,0 2.81566,-1.47889 4,-3.28642 z m 16.26721,-2.04691 c 0.92579,-2.56667 1.68153,-7.36667 1.67943,-10.66667 -0.003,-3.3 -0.31092,-5.1 -0.68627,-4 -0.37533,1.1 -1.74168,4.4 -3.03632,7.33334 -1.29464,2.93333 -2.76379,7.03188 -3.26478,9.10786 -1.37273,5.68836 3.16303,4.17198 5.30794,-1.77453 z m 13.67508,-1.15469 c 1.87028,-6.24246 1.91727,-7.23314 0.29548,-6.23083 C 148.03051,202.8052 144,210.43582 144,212.20485 c 0,0.62067 0.80503,1.12848 1.78895,1.12848 0.98392,0 2.48392,-2.31961 3.33333,-5.15469 z M 228,207.6 c 0,-2.95067 -2.18868,-6.26667 -4.13623,-6.26667 -0.51493,0 -1.55117,1.764 -2.30276,3.92001 -1.42392,4.08466 -1.55086,3.96256 5.43899,5.23175 0.55,0.0999 1,-1.19843 1,-2.88509 z m -14.10905,-7.07599 c 3.69322,-1.41723 2.27164,-3.19068 -2.55762,-3.19068 -4.41228,0 -5.77041,1.11847 -3.77777,3.11111 1.10669,1.1067 3.57785,1.13773 6.33539,0.0796 z m 20.33461,-21.37711 c -1.1196,-11.98958 -6.1406,-20.53473 -15.55965,-26.48072 -6.83164,-4.31262 -26.79184,-9.18946 -32.91196,-8.04133 -4.09496,0.76823 -4.56394,1.24741 -3.71287,3.79388 0.53576,1.60303 1.34568,6.7792 1.79984,11.5026 0.79689,8.28789 0.97444,8.62631 5.08103,9.68456 4.31825,1.1128 8.59208,5.85551 11.01184,12.21996 1.28193,3.37173 1.73474,3.50775 11.69988,3.51431 8.6035,0.005 11.27328,0.55594 15.69966,3.23585 4.69199,2.84073 5.4746,2.97693 6.50804,1.13271 0.6461,-1.15298 0.81898,-5.90579 0.38419,-10.56182 z m -87.37327,-5.6988 c 3.95183,-3.2038 2.71296,-4.47844 -5.24166,-5.39304 -5.56232,-0.63953 -6.32351,-1.12026 -6.68302,-4.22077 -0.5288,-4.56051 2.85339,-7.82303 8.16763,-7.87865 l 4.23809,-0.0444 -2.9528,-2.46448 c -1.75305,-1.46314 -5.14736,-2.49476 -8.35401,-2.53902 -2.97066,-0.0409 -6.62679,-0.46353 -8.12472,-0.93896 -1.49793,-0.47541 -5.78553,-0.44326 -9.528,0.0715 -8.4634,1.16404 -13.04047,5.25105 -13.04047,11.64431 0,5.5267 1.82614,7.94068 8.66667,11.45645 7.55533,3.88315 28.20321,4.07616 32.85229,0.30709 z M 77.521385,157.88026 C 75.312712,153.03276 72,153.74457 72,159.06666 c 0,6.04132 2.511791,8.41447 5.058181,4.77899 1.492551,-2.13092 1.59706,-3.47684 0.463204,-5.96539 z m 43.626065,-28.2136 c 7.56967,-14.92521 8.27142,-16.08085 10.21865,-16.82807 1.08198,-0.4152 1.96723,-1.86914 1.96723,-3.23099 0,-1.36186 1.5,-3.88528 3.33334,-5.6076 1.83333,-1.72233 3.33412,-4.076918 3.33508,-5.232421 9.6e-4,-1.155502 2.40096,-5.55724 5.33333,-9.781637 2.93237,-4.224398 5.33159,-8.1617 5.33159,-8.749561 0,-0.587861 1.2,-3.552552 2.66666,-6.588201 C 154.8,70.612529 156,66.441361 156,64.378917 c 0,-2.062442 1.26808,-7.041426 2.81797,-11.064407 8.2602,-21.44076 8.27606,-23.518173 0.16795,-22.014973 -10.75712,1.994314 -16.44733,8.660942 -21.65179,25.367128 -0.91381,2.933334 -2.18782,6.375192 -2.83114,7.648575 -0.64331,1.273383 -1.18244,3.673383 -1.19805,5.333333 -0.0156,1.659951 -1.82575,8.118092 -4.0225,14.351425 -2.19676,6.233333 -5.20838,14.933333 -6.6925,19.333332 -1.48411,4.4 -3.21818,9.2 -3.85349,10.66667 -3.57224,8.24689 -5.40312,14.58134 -5.40312,18.69365 0,7.09468 3.33612,5.80236 7.81412,-3.02699 z m 17.52438,-1.00363 c 3.65446,-2.56866 9.19832,-5.62751 12.31966,-6.79744 4.9494,-1.85512 22.5875,-5.59341 27.34184,-5.79494 C 179.25,116.03179 180,115.16488 180,114.14418 c 0,-1.0207 1.82361,-4.1707 4.05248,-7 3.93413,-4.99396 13.87857,-19.57071 16.64995,-24.405796 0.753,-1.313728 5.253,-7.316278 10,-13.339 16.2467,-20.612901 18.09753,-26.732718 8.08477,-26.732718 -2.91307,0 -5.62639,0.533782 -6.02959,1.186184 -0.40321,0.6524 -4.7126,1.977181 -9.57644,2.943957 -7.53996,1.498705 -9.35952,2.437031 -12.34558,6.366485 -1.92624,2.534791 -6.56115,7.719488 -10.2998,11.521549 -3.73864,3.80206 -8.68142,9.650948 -10.98392,12.997527 -2.30251,3.346578 -4.64807,6.2871 -5.21238,6.534493 -2.71868,1.191887 -20.33112,26.085209 -20.33632,28.743219 -0.001,0.89471 -1.80317,2.95755 -4.00317,4.58408 -2.2,1.62653 -4,3.66358 -4,4.52677 0,0.86319 -1.2,3.095 -2.66667,4.95956 -2.51518,3.19754 -3.49381,6.30284 -1.98632,6.30284 0.37418,0 3.67036,-2.10163 7.32482,-4.6703 z"
       id="path245" />
  </g>
</svg>
