<?xml version="1.0" encoding="UTF-8" standalone="no"?>
<!-- Created with Inkscape (http://www.inkscape.org/) -->

<svg
   version="1.1"
   id="svg207"
   width="402.66666"
   height="218.66667"
   viewBox="0 0 402.66666 218.66667"
   xmlns="http://www.w3.org/2000/svg"
   xmlns:svg="http://www.w3.org/2000/svg">
  <defs
     id="defs211" />
  <g
     id="g213">
    <path
       style="fill:#000000;stroke-width:1.33333"
       d="m 30.666666,212.02946 c -1.833333,-0.60334 -6.409866,-1.15679 -10.170073,-1.22988 -4.248071,-0.0825 -7.452345,-0.87467 -8.462567,-2.09191 -1.104774,-1.33117 -1.576248,-7.20672 -1.47113,-18.33333 C 10.647979,181.36846 10.38277,160.5 9.9735421,144 9.5643141,127.5 9.3309486,112.5 9.4549522,110.66667 c 0.1240035,-1.83334 0.147368,-4.68334 0.051921,-6.33334 C 9.1090746,97.456559 9.1386068,93.807864 9.8592165,60.801246 10.273869,41.808598 10.961361,25.17198 11.386976,23.830986 c 1.129903,-3.560008 8.067541,-4.884054 30.54461,-5.829423 10.962372,-0.461071 20.38237,-1.116909 20.933329,-1.457421 0.550959,-0.340511 6.227816,-0.926208 12.61524,-1.30155 6.387424,-0.375341 12.114284,-0.991942 12.726356,-1.370224 0.612072,-0.37828 11.165999,-0.963086 23.453169,-1.299567 12.28718,-0.336481 23.54032,-0.667498 25.00698,-0.735594 1.46667,-0.0681 16.16667,-0.113856 32.66667,-0.101691 16.5,0.01216 31.5,0.0058 33.33333,-0.01419 1.83334,-0.01997 5.2287,0.283952 7.54526,0.675389 2.31656,0.391437 13.41656,0.120763 24.66666,-0.601499 24.85151,-1.595476 33.31656,-1.9515664 71.78808,-3.0198346 16.5,-0.4581683 34.2,-1.3227063 39.33333,-1.9211956 9.56726,-1.1154352 29.4355,0.2231572 38.31207,2.5812172 2.73832,0.727431 6.46211,2.652051 8.27511,4.276933 2.97824,2.669204 3.31552,4.048137 3.49476,14.287667 0.10906,6.233333 -0.50783,15.233333 -1.37096,20 -0.87599,4.837647 -1.23114,13.084767 -0.80384,18.666667 0.78536,10.259508 -0.61443,18.377015 -3.47363,20.144104 -1.19047,0.735742 -1.24435,1.812299 -0.20489,4.093746 0.82398,1.808557 0.95544,4.325073 0.31618,6.053051 -0.63452,1.715176 -0.55869,3.288489 0.18054,3.745349 1.69102,1.04511 1.64264,5.96375 -0.0587,5.96375 -2.28755,0 -1.45924,5.20743 1.261,7.92767 2.15255,2.15254 2.37927,3.34425 1.33137,6.99805 -0.69464,2.42204 -0.89938,7.1445 -0.45501,10.49436 0.73788,5.5624 0.49695,6.29443 -2.77784,8.44016 -3.3334,2.18412 -3.54556,2.88177 -3.01412,9.91129 0.31443,4.15899 1.21169,9.47079 1.99393,11.80398 1.18086,3.52221 0.9606,5.10348 -1.29774,9.31706 -1.87262,3.49391 -2.67728,7.36452 -2.58291,12.4245 0.18092,9.70018 -3.12249,16.95838 -8.45868,18.58532 -2.2,0.67076 -7.29153,2.46712 -11.31451,3.99192 -8.92905,3.3843 -8.88134,3.38344 -9.71965,0.17773 -0.76824,-2.93776 -6.0932,-3.26645 -8.29917,-0.51229 -1.45246,1.8134 -15.26471,2.79742 -17.74544,1.26424 -0.84303,-0.52102 -2.89519,-0.21032 -4.56034,0.69042 -1.81438,0.98148 -9.51228,1.7566 -19.21069,1.93436 -8.90072,0.16315 -17.30072,0.88967 -18.66666,1.6145 -1.58878,0.84306 -7.02598,0.89553 -15.09167,0.14561 -7.53503,-0.70057 -15.85063,-0.67435 -20.66667,0.0652 -4.43218,0.6806 -20.35853,0.95873 -35.39186,0.61805 -15.03334,-0.34066 -37.23334,-0.57329 -49.33334,-0.51694 -21.81254,0.1016 -25.20381,0.0824 -31,-0.17519 -5.25137,-0.2334 -45.266117,-0.17984 -56.064631,0.0751 -8.216101,0.19392 -11.320681,-0.29899 -14.795271,-2.34906 -2.89732,-1.70945 -5.099728,-2.20137 -6.45651,-1.44208 -1.132562,0.63382 -5.874689,1.73348 -10.538059,2.44371 -4.663371,0.71023 -9.678856,1.57051 -11.145523,1.91173 -1.466667,0.34123 -4.166667,0.1268 -6,-0.47656 z M 202.0718,198.5505 c 1.37402,-2.22323 -1.71628,-4.77268 -3.55563,-2.93334 C 196.97761,197.15572 197.94054,200 200,200 c 0.64677,0 1.57908,-0.65228 2.0718,-1.4495 z m -100.18082,-8.88383 c 0.55116,-0.55 37.70115,-1.10496 82.55556,-1.23325 44.8544,-0.12827 85.75346,-0.49662 90.88679,-0.81851 5.13333,-0.32188 21.03333,-1.02269 35.33333,-1.55735 14.3,-0.53465 29,-1.21601 32.66667,-1.51416 11.44276,-0.9304 15.65384,-0.75622 17.11809,0.70803 2.32051,2.32051 8.61811,1.7042 9.38127,-0.91809 1.09402,-3.75919 0.68797,-12.87119 -0.64594,-14.49484 -0.76294,-0.92868 -0.4367,-4.90718 0.86136,-10.50434 1.29127,-5.56784 1.76999,-11.3635 1.25319,-15.17182 -1.37297,-10.11747 -1.70079,-31.93321 -0.69367,-46.162339 0.81048,-11.450681 0.60156,-14.026554 -1.47957,-18.242868 -1.33281,-2.700245 -2.95219,-5.236407 -3.5986,-5.635917 -0.64643,-0.39951 -3.61993,1.959781 -6.60781,5.242869 -2.98787,3.283087 -6.2941,5.96925 -7.34715,5.96925 -1.05307,0 -2.62957,0.861433 -3.50337,1.914294 -0.8738,1.052863 -3.3577,2.302827 -5.51978,2.777698 -2.40384,0.527972 -4.66488,2.282492 -5.81996,4.516149 -1.03889,2.009011 -2.89097,4.484388 -4.11572,5.500834 -1.22474,1.01646 -2.75354,3.23352 -3.39733,4.92681 -0.64379,1.69328 -2.68128,3.65309 -4.52777,4.35512 -2.52307,0.95928 -3.35724,2.23794 -3.35724,5.14617 0,2.12836 0.87676,4.59739 1.94836,5.48674 1.0716,0.88935 2.35172,2.91282 2.84469,4.49659 0.49297,1.58378 2.70161,5.17376 4.90807,7.97773 9.1064,11.57244 9.10464,21.66057 -0.005,30.53772 -7.90296,7.70099 -13.04604,9.25095 -27.94034,8.42031 -16.23256,-0.90528 -21.08785,-3.44716 -22.46944,-11.76338 -0.51407,-3.09436 -1.78748,-7.29225 -2.82979,-9.32862 -1.51852,-2.96675 -1.59045,-4.68899 -0.362,-8.66667 0.84322,-2.73029 1.99515,-7.96416 2.55986,-11.63083 0.56472,-3.66666 1.74205,-10.18741 2.6163,-14.49055 1.11664,-5.49614 1.18256,-8.86801 0.2216,-11.33333 -0.75237,-1.9302 -1.54585,-5.009452 -1.76329,-6.842785 -0.29721,-2.505884 -1.99179,-4.09575 -6.82653,-6.404683 -4.53922,-2.167799 -6.95818,-4.332649 -8.22258,-7.358765 -1.23581,-2.957724 -3.27218,-4.822879 -6.56601,-6.013943 -5.78133,-2.090558 -11.82307,-9.532892 -11.21591,-13.815972 0.64587,-4.555955 9.61968,-4.949176 17.478,-0.765866 7.81415,4.159786 28.56268,23.270559 29.55428,27.221449 0.43315,1.725778 1.37611,3.13778 2.09547,3.13778 0.71936,0 1.30793,1.252738 1.30793,2.783864 0,2.532907 0.51083,2.699579 5.66667,1.848892 4.00153,-0.660234 6.89489,-2.261854 9.84649,-5.450531 2.53203,-2.735405 5.45132,-4.515559 7.40511,-4.515559 1.93561,0 5.03392,-1.866038 7.7484,-4.666666 2.4877,-2.566667 5.12258,-4.666667 5.85526,-4.666667 0.73268,0 2.89771,-1.499903 4.81118,-3.333116 2.7272,-2.612819 6.20061,-3.781767 16.07296,-5.409212 17.84341,-2.941466 19.92726,-3.425983 19.92726,-4.633288 0,-0.590123 0.34158,-1.963082 0.75906,-3.051018 0.65796,-1.714614 -2.22776,-1.89765 -21.66667,-1.374274 -12.33415,0.332086 -23.1166,0.831626 -23.961,1.110089 -2.03763,0.671953 -3.09096,-3.657511 -3.11319,-12.796036 -0.0212,-8.714986 -3.51081,-14.513146 -8.73473,-14.513146 -1.82504,0 -3.80021,-1.140864 -4.6168,-2.666667 -1.60401,-2.997134 -7.9998,-3.552898 -16,-1.390326 -4.79908,1.29726 -67.57617,3.265637 -91.33333,2.863759 -7.33333,-0.124054 -24.75431,-0.42494 -38.71328,-0.668642 -13.95899,-0.2437 -26.73836,-0.874231 -28.39863,-1.401179 -1.9496,-0.618777 -4.20422,-0.181272 -6.36628,1.235359 -2.29843,1.505991 -5.93445,2.136666 -11.60138,2.012279 -4.53957,-0.09964 -25.944276,0.175009 -47.566017,0.610335 -28.534246,0.574498 -39.725376,1.241162 -40.819092,2.431624 -3.090434,3.363801 -5.871651,56.384056 -5.879794,112.090571 -0.0032,22.23376 0.278393,25.52457 2.453434,28.66666 1.35141,1.95226 2.812367,4.5382 3.246572,5.74655 0.54917,1.52827 3.703303,2.68845 10.362624,3.81169 8.179809,1.37971 10.343836,1.312 14.868151,-0.4652 4.143156,-1.62748 6.79437,-1.80642 12.187674,-0.82262 4.146475,0.75636 9.814463,0.78612 14.22602,0.0747 7.227484,-1.16553 12,-0.13757 12,2.5847 0,1.52173 3.123068,1.718 4.557648,0.28642 z M 132,159.89124 c -3.3,-0.62064 -11.1,-2.38397 -17.33334,-3.9185 -6.23333,-1.53454 -15.533328,-3.57903 -20.666662,-4.54332 -11.828645,-2.22202 -13.238687,-2.84887 -15.371179,-6.83347 -0.960355,-1.79444 -2.444292,-3.26261 -3.29764,-3.26261 -2.118412,0 -9.463777,-9.34021 -11.959204,-15.20707 -1.121253,-2.63611 -2.938643,-6.91329 -4.038643,-9.50484 -1.146104,-2.70016 -2,-8.74441 -2,-14.15686 0,-9.229234 0.1172,-9.555581 5.1312,-14.288098 2.82216,-2.663725 6.57216,-5.825291 8.333333,-7.0257 l 3.202134,-2.182563 -3,-6.18644 c -3.830635,-7.899327 -3.777479,-10.792168 0.272726,-14.842375 5.766367,-5.766365 15.39394,-3.054782 15.39394,4.335668 0,1.502464 0.9,3.478687 2,4.391606 1.51044,1.253553 2,1.270476 2,0.06913 0,-0.874895 2.326552,-4.398361 5.170116,-7.829927 2.843564,-3.431564 5.438559,-7.124193 5.766659,-8.205843 0.43566,-1.43628 2.18763,-1.853026 6.49655,-1.545358 6.50994,0.464826 9.24209,2.048398 9.21645,5.34192 -0.0175,2.249731 -6.91785,16.613281 -9.44257,19.655384 -1.97495,2.379661 -0.19152,4.795208 2.83187,3.83562 2.11099,-0.670001 9.91005,1.952987 17.29426,5.81642 3.35288,1.754238 6.97182,10.454228 6.04145,14.523767 -2.16832,9.484449 -9.65291,13.123779 -29.64786,14.416059 -7.916474,0.51164 -15.143591,1.52706 -16.060258,2.25647 -0.916667,0.72942 -1.666667,3.26746 -1.666667,5.6401 0,3.82485 0.869126,4.83989 7.666667,8.95375 6.550818,3.96455 10.010458,4.97586 23.770248,6.94839 10.60337,1.52004 18.89962,1.99219 24.2898,1.38236 6.93375,-0.78447 9.1589,-0.46896 14.5436,2.06216 5.16672,2.42864 7.1102,2.73733 10.37687,1.6482 4.35577,-1.45223 59.85064,-1.17 64.57168,0.3284 1.84856,0.58672 3.98007,-0.0465 6.30055,-1.87183 5.82054,-4.57844 16.55062,-2.94561 20.7935,3.16422 2.67571,3.85306 -0.1758,14.7772 -4.18193,16.02094 -1.17204,0.36387 -13.39604,0.46951 -27.16443,0.23474 -22.45016,-0.3828 -25.218,-0.67926 -26.82194,-2.87279 -1.72274,-2.35597 -1.92108,-2.34167 -5.39284,0.38923 -2.81986,2.21809 -4.30967,2.56698 -6.84514,1.603 -2.12258,-0.80702 -8.38712,-0.5534 -18.15562,0.735 C 154.2708,161.49584 141.46252,161.6709 132,159.89124 Z M 107.37068,92.340793 c -1.88964,-7.528926 -6.71551,-8.995794 -15.370682,-4.672053 -7.572039,3.782659 -6.136979,6.322223 3.606414,6.382119 4.550198,0.02797 8.700198,0.477972 9.222218,1 2.12151,2.121509 3.40995,0.747912 2.54205,-2.710066 z m 204.16345,54.029717 c -0.84378,-0.52955 -1.53414,-3.21492 -1.53414,-5.96751 0,-3.70086 -0.60788,-5.12545 -2.33333,-5.46826 -1.79981,-0.3576 -2.33333,0.43604 -2.33333,3.4709 0,2.16398 -0.9,4.68144 -2,5.59436 -1.97268,1.63718 -2.8188,10.73675 -1.15324,12.40232 0.46572,0.46572 3.10608,-1.38428 5.86746,-4.1111 3.31944,-3.27791 4.50087,-5.28414 3.48658,-5.92071 z M 364.66666,45.093625 c 0.73333,-0.04285 2.38333,0.357742 3.66667,0.890214 3.43053,1.423374 2.9909,-2.328501 -1.01672,-8.677001 C 364.37291,32.643727 363.35398,32 358.91661,32 c -2.77748,0 -5.71128,-0.661334 -6.51959,-1.469633 -1.07061,-1.070623 -2.59104,-0.64054 -5.6,1.584077 -4.92187,3.638901 -5.1006,5.338255 -1.13036,10.747707 2.89453,3.943812 3.2578,4.056251 10.33333,3.198447 4.03334,-0.488981 7.93334,-0.92412 8.66667,-0.966973 z"
       id="path384" />
  </g>
</svg>
