<?xml version="1.0" encoding="UTF-8" standalone="no"?>
<!-- Created with Inkscape (http://www.inkscape.org/) -->

<svg
   version="1.1"
   id="svg39"
   width="210.66667"
   height="120"
   viewBox="0 0 210.66667 120"
   xmlns="http://www.w3.org/2000/svg"
   xmlns:svg="http://www.w3.org/2000/svg">
  <defs
     id="defs43" />
  <g
     id="g45">
    <path
       style="fill:#000000;stroke-width:1.33333"
       d="m 80.000001,113.22457 c -3.3,-0.62064 -11.1,-2.38397 -17.333333,-3.9185 -6.233334,-1.53454 -15.533334,-3.57903 -20.666667,-4.54333 -11.828646,-2.22201 -13.238689,-2.84886 -15.371181,-6.833456 -0.960354,-1.79444 -2.444292,-3.262617 -3.29764,-3.262617 -2.118412,0 -9.463777,-9.340206 -11.959204,-15.207064 -1.121253,-2.636115 -2.9386425,-6.913292 -4.0386426,-9.504839 -1.1461037,-2.700164 -2,-8.744411 -2,-14.156863 0,-9.229233 0.1171988,-9.55558 5.1311996,-14.288097 2.82216,-2.663725 6.572161,-5.825291 8.333334,-7.0257 L 22,32.301541 19,26.115101 c -3.830634,-7.899326 -3.777478,-10.792168 0.272727,-14.842374 5.766367,-5.7663661 15.39394,-3.0547823 15.39394,4.335668 0,1.502464 0.9,3.478686 2,4.391605 1.51044,1.253553 2,1.270476 2,0.06913 0,-0.874894 2.326552,-4.398361 5.170116,-7.829926 2.843564,-3.4315646 5.438559,-7.1241941 5.766656,-8.2058433 0.435668,-1.4362798 2.187634,-1.8530265 6.496551,-1.5453582 6.509939,0.4648269 9.242088,2.0483989 9.216455,5.3419194 -0.01751,2.2497311 -6.917852,16.6132821 -9.442575,19.6553841 -1.974942,2.379662 -0.19152,4.795208 2.831876,3.83562 2.110986,-0.670001 9.910047,1.952987 17.294255,5.81642 3.352886,1.754238 6.97182,10.454228 6.04145,14.523767 -2.168316,9.484444 -9.65291,13.123773 -29.647857,14.416053 -7.916476,0.511646 -15.143593,1.527058 -16.06026,2.256474 -0.916667,0.729416 -1.666667,3.267461 -1.666667,5.640101 0,3.824852 0.869126,4.839885 7.666667,8.953748 6.550821,3.964548 10.010463,4.975851 23.770254,6.948384 10.603367,1.520044 18.899609,1.992193 24.289804,1.382361 6.93374,-0.784462 9.158887,-0.468956 14.543598,2.062159 5.16672,2.428644 7.11019,2.737336 10.37687,1.648211 4.35577,-1.452236 59.85064,-1.170003 64.57168,0.328394 1.84856,0.586712 3.98006,-0.04653 6.30054,-1.871828 5.82055,-4.57844 16.55063,-2.945613 20.79351,3.164208 2.67571,3.853082 -0.1758,14.777212 -4.18193,16.020952 -1.17204,0.36388 -13.39604,0.46951 -27.16443,0.23474 -22.45016,-0.3828 -25.218,-0.67926 -26.82195,-2.87279 -1.72273,-2.35598 -1.92108,-2.34166 -5.39284,0.38922 -2.81985,2.21811 -4.30966,2.56699 -6.84513,1.603 -2.12259,-0.807 -8.38712,-0.55339 -18.15563,0.73501 -16.14688,2.12966 -28.955159,2.30472 -38.417679,0.52506 z M 55.370686,45.674125 c -1.88964,-7.528926 -6.715517,-8.995794 -15.370685,-4.672053 -7.57204,3.782659 -6.13698,6.322223 3.606413,6.382119 4.550195,0.02797 8.700195,0.477972 9.222223,1 2.121508,2.121509 3.409947,0.747912 2.542049,-2.710066 z"
       id="path183" />
  </g>
</svg>
