<?xml version="1.0" encoding="UTF-8" standalone="no"?>
<!-- Created with Inkscape (http://www.inkscape.org/) -->

<svg
   version="1.1"
   id="svg195"
   width="73.333336"
   height="113.33333"
   viewBox="0 0 73.333336 113.33333"
   xmlns="http://www.w3.org/2000/svg"
   xmlns:svg="http://www.w3.org/2000/svg">
  <defs
     id="defs199" />
  <g
     id="g201">
    <path
       style="fill:#000000;stroke-width:1.33333"
       d="M 25.873505,107.5381 C 20.734993,106.37464 18.026017,104.78668 14.751817,101.01872 9.5964435,95.085895 5.8261101,82.728615 7.956675,78.747619 8.7138373,77.332848 9.3333337,73.20475 9.3333337,69.574066 9.3333337,65.943383 10.083334,61.214633 11,59.065733 13.837949,52.412858 24.542461,37.363888 27.000001,36.572084 28.283334,36.158602 29.304946,35.110731 29.270249,34.243482 29.187094,32.165 16.67337,22.232806 10.346851,19.223905 7.6042855,17.919535 5.0045286,15.731174 4.5696135,14.360878 3.6730363,11.536014 7.2176136,5.3172673 9.6974044,5.3644788 13.617136,5.4391041 24.915352,13.132956 28.622178,18.251861 c 2.22447,3.071857 4.839727,5.621857 5.811685,5.666666 0.971957,0.04481 5.793737,-4.074916 10.715065,-9.154943 C 54.189555,5.4314189 59.884896,2.4427998 63.873038,4.9381431 67.987241,7.512362 67.18791,12.640835 62.023056,16.80754 52.303634,24.648603 45.333335,31.036591 45.333335,32.10297 c 0,0.603172 1.8,3.76377 4,7.023553 2.2,3.259781 4,6.486993 4,7.171582 0,0.68459 1.741358,3.897575 3.869683,7.139967 2.482808,3.782428 4.667492,9.851569 6.095743,16.934222 2.171115,10.766504 2.156795,11.24368 -0.580192,19.333333 -3.340955,9.874787 -4.50184,11.537093 -11.259731,16.123113 -5.793804,3.93179 -13.496807,4.44642 -25.585333,1.70936 z M 43.964364,95.370099 c 2.468111,-2.546444 5.276778,-6.896444 6.241482,-9.666667 1.991763,-5.719506 2.400548,-19.837951 0.606491,-20.946739 -0.653217,-0.40371 -2.816334,-3.848787 -4.806929,-7.655727 -4.100769,-7.842574 -8.718448,-14.434301 -10.111607,-14.434301 -0.515925,0 -1.314521,1.5 -1.774658,3.333334 -0.460138,1.833333 -1.396358,3.333333 -2.08049,3.333333 -1.986788,0 -9.883634,12.164508 -11.685078,17.999999 -0.905534,2.933334 -1.655534,8.975335 -1.666666,13.426668 -0.01843,7.369513 0.40641,8.591782 4.750323,13.666666 4.203118,4.910399 5.440778,5.573332 10.405111,5.573332 4.680525,0 6.39435,-0.783919 10.122021,-4.629898 z"
       id="path372" />
  </g>
</svg>
