<?xml version="1.0" encoding="UTF-8" standalone="no"?>
<!-- Created with Inkscape (http://www.inkscape.org/) -->

<svg
   version="1.1"
   id="svg187"
   width="128"
   height="205.33333"
   viewBox="0 0 128 205.33333"
   xmlns="http://www.w3.org/2000/svg"
   xmlns:svg="http://www.w3.org/2000/svg">
  <defs
     id="defs191" />
  <g
     id="g193">
    <path
       style="fill:#000000;stroke-width:1.33333"
       d="M 9.913,197.66666 C 9.3415664,196.38333 7.885584,179.43333 6.6774835,160 4.3103953,121.92335 4.5333393,119.71328 10.819113,118.94348 c 7.20042,-0.88181 7.440223,0.14537 9.168551,39.27269 0.879855,19.91891 1.202139,37.46891 0.716187,39 -1.154192,3.63655 -9.222214,3.97336 -10.790851,0.45049 z m 34.666667,-1.33333 C 44.008233,195.05 42.552251,178.1 41.344151,158.66666 c -2.367088,-38.07664 -2.144146,-40.28671 4.141629,-41.05651 7.20042,-0.88181 7.440223,0.14537 9.168551,39.27269 0.879854,19.9189 1.202138,37.4689 0.716186,39 -1.154192,3.63654 -9.222213,3.97336 -10.79085,0.45049 z m 34.313428,1.20184 c -1.342899,-0.87683 -2.129771,-10.08495 -3.240447,-37.92027 -1.581428,-39.63316 -1.418216,-40.94824 5.08204,-40.94824 3.361183,0 7.710352,3.53456 6.586567,5.35288 -0.386791,0.62584 -0.100614,16.90578 0.635944,36.17764 0.73656,19.27187 0.897509,35.46899 0.357666,35.9936 -1.748512,1.69919 -7.599682,2.5341 -9.42177,1.34439 z m 32.353235,-1.20184 C 110.6749,195.05 109.21892,178.1 108.01082,158.66666 c -2.36709,-38.07664 -2.14415,-40.28671 4.14163,-41.05651 7.20042,-0.88181 7.44022,0.14537 9.16855,39.27269 0.87985,19.9189 1.20214,37.4689 0.71618,39 -1.15419,3.63654 -9.22221,3.97336 -10.79085,0.45049 z M 103.39783,57.622939 C 103.19204,57.415556 87.660037,57.240828 68.882277,57.234654 35.312715,57.223618 34.70678,57.174718 32.703783,54.315039 30.289296,50.867878 30.087932,45.555269 32.176209,40.39607 37.911448,26.226869 41.715147,20.095481 48.120751,14.694196 56.254535,7.8356884 62.899583,5.2556596 74.772787,4.3461861 c 9.572977,-0.7332788 16.613934,1.5231942 27.197163,8.7160969 9.64309,6.553935 13.71139,12.266869 18.12553,25.452864 4.86972,14.546943 3.14103,18.402255 -8.54281,19.052099 -4.27936,0.238014 -7.94904,0.263076 -8.15484,0.05569 z m -3.0738,-15.12158 c 2.75512,-1.405556 5.0093,-3.05118 5.0093,-3.656941 0,-3.138461 -4.69678,-9.68119 -10.405037,-14.494464 -10.05673,-8.47996 -22.439192,-10.69432 -32.136704,-5.747018 -11.152344,5.689501 -17.458256,13.900203 -17.458256,22.73177 v 3.675709 l 24.990696,0.02325 c 22.025944,0.02049 25.58497,-0.279926 30.000001,-2.532306 z"
       id="path678" />
  </g>
</svg>
