<?xml version="1.0" encoding="UTF-8" standalone="no"?>
<!-- Created with Inkscape (http://www.inkscape.org/) -->

<svg
   version="1.1"
   id="svg325"
   width="78.666664"
   height="124"
   viewBox="0 0 78.666664 124"
   xmlns="http://www.w3.org/2000/svg"
   xmlns:svg="http://www.w3.org/2000/svg">
  <defs
     id="defs329" />
  <g
     id="g331">
    <path
       style="fill:#000000;stroke-width:1.33333"
       d="m 55.686252,112.38374 c -7.237454,-5.50413 -11.080195,-9.59749 -11.147377,-11.87439 -0.0244,-0.826883 -1.009286,-2.304233 -2.188642,-3.283009 -1.824652,-1.514328 -2.421236,-1.389601 -4.00226,0.836736 -3.903956,5.497423 -12.052028,12.970833 -16.800338,15.409273 -8.905787,4.57346 -14.38645,3.05501 -14.38645,-3.98585 0,-2.70563 5.395052,-7.8081 11.999999,-11.349233 6.089561,-3.264806 12,-8.787308 12,-11.212368 0,-1.057254 -2.124626,-4.273984 -4.72139,-7.148292 -2.596765,-2.874308 -6.886765,-9.787963 -9.533333,-15.363678 -4.298909,-9.056817 -4.811943,-11.291276 -4.811943,-20.957836 0,-7.891284 0.715772,-12.438276 2.644274,-16.797924 6.776795,-15.319888 25.271575,-21.7849394 40.133383,-14.029061 7.942708,4.145032 10.212645,7.403757 13.552478,19.455947 2.477896,8.941788 2.540277,10.373873 0.812789,18.658952 -2.239038,10.738488 -5.148121,16.667426 -13.295286,27.096838 -3.362868,4.304902 -6.114306,8.622828 -6.114306,9.595394 0,0.972566 3.296554,3.956429 7.325677,6.630809 15.195247,10.086042 18.98422,16.577012 12.377647,21.204442 -4.381012,3.06858 -6.631069,2.59943 -13.844922,-2.88675 z M 44.656082,73.679419 C 47.18844,70.582868 54.550675,55.237673 56.376015,49.251421 60.960193,34.217481 53.697132,22.679419 39.649281,22.679419 c -3.600043,0 -5.821877,1.067113 -9.148789,4.394025 -3.941576,3.941576 -4.492516,5.445068 -5.350535,14.601404 -1.044102,11.142127 -0.0588,14.346829 8.617151,28.027387 4.27181,6.735946 7.629821,7.962456 10.888974,3.977184 z"
       id="path1029" />
  </g>
</svg>
