<?xml version="1.0" encoding="UTF-8" standalone="no"?>
<!-- Created with Inkscape (http://www.inkscape.org/) -->

<svg
   version="1.1"
   id="svg97"
   width="212"
   height="220"
   viewBox="0 0 212 220"
   xmlns="http://www.w3.org/2000/svg"
   xmlns:svg="http://www.w3.org/2000/svg">
  <defs
     id="defs101" />
  <g
     id="g103">
    <path
       style="fill:#000000;stroke-width:1.33333"
       d="m 165.99625,213.64625 c -2.83465,-2.07674 -8.66292,-11.92577 -8.66292,-14.63922 0,-1.56731 -0.6,-3.22047 -1.33333,-3.6737 -0.73333,-0.45322 -1.33333,-1.69517 -1.33333,-2.75989 0,-1.06471 -1.11502,-4.47929 -2.47782,-7.58797 -4.63168,-10.56531 -5.52218,-13.10806 -5.52218,-15.76799 0,-1.46137 -1.2,-5.00924 -2.66667,-7.88415 -3.16831,-6.2104 -3.44989,-11.78314 -0.64969,-12.85768 3.2336,-1.24085 5.58233,1.74112 9.41637,11.9551 1.97563,5.26309 4.11133,10.13925 4.74601,10.83592 0.6347,0.69666 1.15458,2.79666 1.15531,4.66666 7.2e-4,1.87 3.00072,9.34303 6.66667,16.60674 3.66593,7.2637 6.66533,14.26464 6.66533,15.55761 0,5.53919 -2.66047,7.99795 -6.00375,5.54857 z m 33.26698,-5.31292 c -2.16239,-5.9787 -4.15943,-10.79761 -8.97902,-21.66666 -1.13812,-2.56667 -3.94196,-9.39344 -6.23074,-15.17062 -2.2888,-5.77717 -5.08598,-12.29178 -6.21596,-14.47693 -4.80831,-9.29824 3.41182,-14.87235 8.8764,-6.01912 1.47109,2.38333 2.98308,5.83333 3.35998,7.66667 1.54839,7.53181 7.0944,22.62326 16.06382,43.7119 3.26841,7.68459 1.9685,12.2881 -3.46982,12.2881 -0.6127,0 -2.1448,-2.85 -3.40466,-6.33334 z M 17.779556,205.63764 c -4.794057,-0.24825 -8.8423489,-1.17504 -9.7124911,-2.22349 -2.9102941,-3.5067 -1.8460068,-13.04512 2.4637531,-22.08082 2.27356,-4.76666 4.134218,-9.38942 4.134797,-10.2728 0.0017,-2.7134 16.347241,-15.03158 22.001052,-16.5803 7.574658,-2.07491 24.698021,-0.53198 31.262461,2.81694 7.636375,3.89579 14.311208,10.14711 15.358368,14.38388 0.496484,2.00875 2.336597,5.16079 4.08914,7.00451 6.917951,7.27789 9.473656,21.97595 4.374867,25.1602 -3.402859,2.12512 -16.600334,2.14916 -28.257935,0.0515 -5.226368,-0.94044 -9.004352,-0.97232 -11.333333,-0.0956 -3.977627,1.49728 -22.165736,2.46858 -34.380679,1.83602 z M 79,192.69275 c 3.154744,-1.32236 2.936097,-3.7909 -0.869769,-9.81979 C 70.081232,170.12253 60.337155,164 48.093672,164 c -9.263751,0 -15.136819,2.73037 -22.606539,10.50975 -4.134157,4.30552 -8.1538,13.56356 -8.1538,18.77982 0,1.46456 58.090088,0.90236 61.666667,-0.59682 z M 7.4408264,144.58368 c -2.644386,-2.64439 -2.6392699,-2.73453 0.4403393,-7.75964 1.4013078,-2.28655 3.5297543,-7.1832 4.7298813,-10.88143 1.200128,-3.69823 3.57736,-8.47394 5.282738,-10.61268 2.548036,-3.19555 3.594084,-3.66061 5.868914,-2.60928 2.785964,1.28755 6.868236,6.37647 12.516074,15.60241 3.229488,5.27549 6.361022,6.57965 6.427847,2.67694 0.07092,-4.14156 8.820112,-18.30873 11.565956,-18.72821 1.817547,-0.27767 4.238521,1.81644 8.156107,7.05494 C 65.492907,123.42414 68,127.33072 68,128.00803 68,129.15396 72.215159,132 73.912345,132 c 0.414876,0 0.754322,-0.78771 0.754322,-1.75046 0,-0.96276 1.477354,-4.81287 3.283009,-8.55582 3.350705,-6.94567 7.822788,-11.29136 10.536727,-10.23893 1.485566,0.57609 2.360001,1.79824 9.928812,13.87704 2.067325,3.29917 4.619625,6.15867 5.671775,6.35445 1.20369,0.22397 3.68718,-3.23616 6.69786,-9.33183 3.56214,-7.21217 5.55462,-9.80103 7.79716,-10.13095 3.81761,-0.56164 8.55468,3.81787 12.13957,11.22328 3.60869,7.45453 5.9569,9.42322 8.61175,7.21989 1.1,-0.91292 2,-2.71292 2,-4 0,-1.28708 0.90544,-3.0916 2.01208,-4.01003 1.10664,-0.91843 3.31712,-3.9919 4.91219,-6.82992 4.13827,-7.36306 6.19489,-6.92081 12.54308,2.69726 2.12629,3.22153 4.54649,7.02204 5.37823,8.44558 3.90205,6.67849 5.16313,5.69503 13.16329,-10.2654 1.47153,-2.93575 3.66696,-5.52865 4.87873,-5.76202 2.6439,-0.50917 6.82679,3.73315 10.13114,10.27506 1.32869,2.63054 4.08825,7.3925 6.13234,10.58214 2.04411,3.18965 3.82134,7.38965 3.9494,9.33334 0.19231,2.91864 -0.39368,3.60629 -3.36534,3.94928 -3.80412,0.43905 -6.95191,-3.32144 -12.34562,-14.74863 -1.29801,-2.75 -2.86129,-5 -3.47394,-5 -0.61266,0 -3.61115,4.8 -6.66332,10.66667 -3.05218,5.86667 -6.4112,10.66667 -7.4645,10.66667 -2.88572,0 -8.26874,-6.40974 -12.6401,-15.05094 -2.14727,-4.24468 -4.48276,-7.35999 -5.18998,-6.92291 -0.7072,0.43708 -2.79133,3.97707 -4.6314,7.86664 -7.29953,15.42995 -14.10517,17.56377 -20.00785,6.27318 -4.43011,-8.47389 -8.00352,-12.72399 -9.77669,-11.6281 -0.81997,0.50676 -3.42768,4.81309 -5.79492,9.56962 -2.90832,5.84371 -5.27011,8.89069 -7.283,9.39589 -4.07591,1.02299 -5.28378,0.0325 -9.869613,-8.09312 -2.184094,-3.87001 -5.100594,-8.05857 -6.481113,-9.30792 -2.379048,-2.15301 -2.621439,-2.11249 -4.644895,0.7764 -1.174174,1.67637 -2.134862,3.48436 -2.134862,4.01775 0,0.5334 -1.842508,3.69991 -4.094463,7.03667 -5.078615,7.52508 -9.010745,8.07561 -12.381243,1.7335 -5.457492,-10.26911 -9.173326,-15.66666 -10.785393,-15.66666 -0.950383,0 -3.739696,3.92226 -6.198475,8.71614 -5.85911,11.42352 -9.186664,12.53543 -15.430013,5.15599 -2.422241,-2.863 -4.413001,-5.71284 -4.423911,-6.33297 -0.03108,-1.7664 -5.401413,-8.8725 -6.705272,-8.8725 -0.643785,0 -3.244345,4.42839 -5.779022,9.84086 -5.221312,11.14942 -6.455932,12.38161 -9.4280486,9.40949 z M 198.13317,102.01769 c -1.74525,-1.88315 -3.89784,-5.357509 -4.78354,-7.720799 -0.88571,-2.36329 -2.75171,-7.226903 -4.14667,-10.808028 -1.39496,-3.581126 -2.53629,-7.329396 -2.53629,-8.329492 0,-1.000095 -1.96827,-4.070084 -4.37394,-6.822196 -6.28044,-7.18493 -11.62606,-15.46226 -11.62606,-18.002178 0,-1.203584 -2.85,-4.907426 -6.33334,-8.23076 -7.3635,-7.025276 -11.20977,-7.63415 -21.19289,-3.354888 -4.48669,1.923224 -11.92793,3.205476 -24.76445,4.267344 -15.85562,1.311614 -20.259194,1.210967 -32.389682,-0.74029 -8.496869,-1.366768 -16.6431,-3.577779 -20.635097,-5.600676 -3.627742,-1.838316 -7.500815,-3.342394 -8.60683,-3.342394 -1.106014,0 -6.068104,1.858222 -11.026865,4.12938 C 29.844703,44.732611 13.979788,42.830977 7.9460207,32.935268 3.1812833,25.120839 5.2733384,16.803169 13.536709,10.707605 17.293033,7.936712 19.498303,7.4145925 27.459235,7.4113089 c 8.258578,-0.00341 10.717118,0.6260455 19.369316,4.9590611 5.450544,2.72963 10.559428,4.962963 11.353073,4.962963 0.793647,0 4.707051,-1.741798 8.696455,-3.870664 C 79.008868,6.9893156 89.769,4.9911169 109.08178,5.6252763 128.16959,6.252048 137.909,9.0646357 145.47921,16.136276 c 3.66526,3.423853 5.146,3.936004 10.39362,3.594868 5.63909,-0.366585 6.33601,-0.816332 8.8787,-5.729823 3.33352,-6.4416919 8.06947,-9.4203091 13.00752,-8.1809349 3.02047,0.7580878 3.57428,1.616223 3.57428,5.5383499 C 181.33333,14.272655 180.68969,16 179.60393,16 177.44293,16 168,25.539729 168,27.722884 c 0,0.885747 0.50961,1.610449 1.13247,1.610449 1.66498,0 16.20086,15.057154 16.20086,16.781848 0,0.809335 1.26306,2.614511 2.80678,4.011502 4.36794,3.952761 11.97464,21.254293 14.86824,33.818058 4.25736,18.485039 4.24777,18.312639 1.11208,19.990809 -2.38027,1.27388 -3.30326,0.97823 -5.98726,-1.91786 z M 129.80064,31.829193 c 3.67267,-1.342405 7.28772,-3.05089 8.03347,-3.796636 2.32382,-2.32383 -2.81627,-4.783445 -13.65589,-6.534556 C 118.5802,20.593656 111.781,19.200843 109.0689,18.40286 106.12853,17.537716 101.55315,17.355169 97.735563,17.950687 94.214336,18.499973 88.933333,19.148737 86,19.392384 c -5.625919,0.467296 -14.639235,3.739185 -15.894144,5.769672 -1.424069,2.304191 3.678272,4.494249 18.560811,7.966784 9.435998,2.201696 33.647593,1.43672 41.133973,-1.299647 z M 35.607229,31.304821 c 8.541875,-3.569022 8.921226,-4.517752 3.368248,-8.423744 -8.737322,-6.145873 -24.30881,-3.693145 -24.30881,3.82898 0,5.893746 11.691785,8.45915 20.940562,4.594764 z"
       id="path817" />
  </g>
</svg>
