<?xml version="1.0" encoding="UTF-8" standalone="no"?>
<!-- Created with Inkscape (http://www.inkscape.org/) -->

<svg
   version="1.1"
   id="svg205"
   width="206.66667"
   height="216"
   viewBox="0 0 206.66667 216"
   xmlns="http://www.w3.org/2000/svg"
   xmlns:svg="http://www.w3.org/2000/svg">
  <defs
     id="defs209" />
  <g
     id="g211">
    <path
       style="fill:#000000;stroke-width:1.33333"
       d="m 10.222222,209.77777 c -2.3861301,-2.38612 -0.154177,-4.9628 7.444445,-8.59422 4.583333,-2.19042 12.678009,-6.34363 17.98817,-9.22938 15.955054,-8.67058 31.143613,-10.2408 60.345165,-6.23858 8.433338,1.15582 18.033338,2.46813 21.333338,2.91624 16.28513,2.21134 21.66208,2.35441 21.06409,0.56045 -0.94179,-2.82537 -12.09861,-10.34004 -15.49567,-10.43709 -3.79734,-0.1085 -23.085045,-6.45994 -24.835092,-8.17819 -0.696666,-0.68401 -2.32819,-1.24367 -3.625608,-1.24367 -4.550441,0 -15.113767,-6.357 -25.441059,-15.31041 C 67.716668,152.91032 66.116668,152 65.444445,152 c -0.672221,0 -1.422221,-0.52349 -1.666667,-1.16332 -0.748468,-1.95911 -14.150969,-8.17001 -17.630049,-8.17001 -3.773175,0 -5.444574,3.91828 -6.862331,16.08745 -1.037716,8.90712 -9.123335,22.63321 -15.691774,26.63825 -4.907085,2.99204 -13.246266,3.43602 -15.4167121,0.82079 C 7.3612944,185.23041 6.437164,177.88041 6.1232886,169.87983 5.8094133,161.87925 5.1171535,148.65067 4.5849337,140.48295 3.7020769,126.93419 3.8647189,125.12277 6.4405306,119.81628 10.904804,110.61933 16.99964,104.20683 25.221514,100.05645 32.992195,96.133819 35.343877,93.238833 51.070575,68.235531 58.385756,56.605395 53.568862,49.232547 38.008034,48.241708 l -8.62991,-0.549511 -6.242074,6.153902 C 19.702908,57.230744 16.09283,60 15.113654,60 12.62002,60 12.823244,51.988272 15.410578,48.294336 18.236698,44.259483 17.18026,43.166783 9.4634955,42.143117 5.8354986,41.661847 2.6196854,40.532761 2.3172438,39.63404 1.2587276,36.488601 3.002397,33.332965 5.8221753,33.290929 7.3866456,33.267607 9.7304458,32.441385 11.03062,31.454883 13.233013,29.783824 13.073084,29.339751 8.6905525,24.957219 1.9667826,18.233449 5.2049008,12.656109 13.910691,15.966044 20.47351,18.461224 25.033271,17.595395 30.329492,12.848366 37.656625,6.2810217 42.973571,4 50.95459,4 c 8.847743,0 13.902195,2.7052501 20.79493,11.129889 8.88404,10.85851 10.466761,28.785264 3.302168,37.40213 -4.10626,4.938604 -10.443095,17.518732 -11.663083,23.153998 -0.756824,3.495862 -0.198848,5.529498 2.834539,10.330948 3.686761,5.835658 7.110191,7.830416 7.110191,4.142956 0,-2.839614 10.561432,-22.99031 13.987056,-26.68662 3.930525,-4.241106 9.587149,-5.65196 30.012949,-7.48571 C 126.5,55.164641 136.7,53.685764 140,52.701197 c 13.24955,-3.953052 18.66667,-3.778613 18.66667,0.601092 0,2.780146 -4.57129,17.449147 -6.64539,21.324616 -0.79664,1.488536 -2.13865,2.706428 -2.98225,2.706428 -0.8436,0 -2.77249,1.098355 -4.28643,2.440788 C 141.64128,82.532989 128.7967,88 125.42613,88 c -2.79811,0 -12.09279,9.398448 -12.09279,12.22779 0,1.17089 1.93474,2.8266 4.33333,3.70837 2.38333,0.87616 10.24271,4.39895 17.46528,7.82843 11.97457,5.68586 13.94375,6.219 22.34289,6.04916 10.76352,-0.21764 15.8585,-2.75134 15.8585,-7.88633 0,-1.83945 -0.9,-3.68981 -2,-4.11192 -2.64522,-1.01506 -2.55422,-6.40414 0.15386,-9.11222 1.6692,-1.669203 3.52726,-1.947909 8.25731,-1.238593 7.85275,1.177592 18.58691,4.961963 21.04412,7.419183 2.94429,2.94429 1.05592,9.44067 -3.50513,12.05836 -2.1092,1.21051 -4.69963,4.27048 -5.7565,6.79992 -1.05686,2.52944 -2.55986,4.99346 -3.34001,5.47562 -0.87391,0.5401 -0.99832,2.01018 -0.32409,3.82943 1.33046,3.58995 -3.41858,23.14044 -7.5188,30.9528 -1.53952,2.93333 -6.14675,8.61284 -10.23828,12.62112 -4.09154,4.00828 -7.4258,8.20828 -7.4095,9.33333 0.0163,1.12506 1.20296,3.54555 2.63702,5.37888 2.75013,3.51584 3.40454,8.77084 1.47209,11.82112 -0.91307,1.44127 -3.89857,1.63454 -14.31291,0.92656 -7.23756,-0.492 -16.75918,-1.4378 -21.15918,-2.10176 -19.80068,-2.98792 -43.067693,-6.57128 -47.333339,-7.28984 -2.566666,-0.43234 -5.550944,-0.19594 -6.631726,0.52535 -1.673614,1.11695 -1.5253,1.77956 1,4.46761 6.14571,6.54182 0.906893,13.85932 -5.567643,7.77682 -1.634875,-1.53588 -3.477195,-2.79252 -4.094044,-2.79252 -0.61685,0 -3.100574,-1.50948 -5.519387,-3.3544 -7.833627,-5.975 -10.3001,-5.6969 -28.736407,3.24006 -15.510114,7.51851 -22.000074,9.45395 -24.228572,7.22544 z M 148,180.15241 c 0,-0.6495 -0.8963,-2.8995 -1.99178,-5 -2.54268,-4.87537 -2.60071,-11.97308 -0.10574,-12.9305 1.9641,-0.7537 4.30206,1.37898 6.7121,6.12276 2.65977,5.23536 5.29478,5.70197 10.36424,1.83532 7.77166,-5.92775 11.87088,-17.13655 14.6944,-40.17999 0.22016,-1.79682 -0.32564,-2.50186 -1.67326,-2.16142 -7.37438,1.86293 -23.6444,2.35893 -26.66666,0.81295 -1.83334,-0.9378 -9.03334,-3.87954 -16,-6.53718 -6.96663,-2.65765 -16.86663,-6.58868 -21.99996,-8.73564 -12.130448,-5.07341 -17.960816,-6.50498 -29.333339,-7.20238 -5.174556,-0.31732 -12.006833,-1.74641 -15.333333,-3.20724 -5.56148,-2.44232 -12,-9.014138 -12,-12.248433 0,-2.539936 -2.914363,-1.432052 -5.764547,2.19137 -1.548251,1.968281 -3.945792,6.918281 -5.32787,11.000003 -2.41661,7.13703 -2.423268,7.67667 -0.173793,14.08797 3.045531,8.68016 11.589132,16.9546 24.470304,23.69939 5.50867,2.88442 13.041295,7.90296 16.739169,11.1523 8.202138,7.20728 17.578369,11.96276 27.823629,14.11172 8.69475,1.82375 9.17385,1.52819 11.57636,-7.14142 1.61287,-5.82014 3.63262,-7.66538 10.28562,-9.39696 10.36342,-2.6973 12.3117,-2.79798 13.1251,-0.6783 1.34111,3.49487 -1.82985,7.5866 -5.87937,7.5866 -6.30844,0 -8.90588,2.96048 -8.64463,9.85288 0.28988,7.64796 0.8708,8.53372 7.60119,11.59 6.22292,2.82586 7.50217,3.06051 7.50217,1.3762 z M 22.872663,175.66667 c 3.121801,-2.53928 4.834553,-8.58947 5.756183,-20.33334 0.51892,-6.61236 1.909232,-12.90016 3.657839,-16.54288 2.551366,-5.31504 2.665185,-6.52469 1.191825,-12.66666 -0.895907,-3.73475 -1.960721,-8.74046 -2.366256,-11.12379 -0.405535,-2.38333 -1.068978,-4.33333 -1.474318,-4.33333 -0.405341,0 -3.199012,1.44284 -6.208158,3.20632 -9.595603,5.6234 -12.401913,16.58018 -9.380422,36.62433 1.064208,7.05981 1.938462,15.98601 1.942784,19.83601 0.0065,5.86167 0.400068,7 2.419687,7 1.326505,0 3.333881,-0.75 4.460836,-1.66666 z M 105.2859,91.666667 c 4.62028,-8.417758 6.69318,-10.328872 11.25409,-10.375738 2.26967,-0.02332 5.29136,-0.923322 6.71485,-2 1.4235,-1.076678 3.38908,-1.957596 4.36797,-1.957596 2.13128,0 15.04386,-9.43571 15.04386,-10.99312 0,-3.278868 -9.64388,-2.519448 -32.66667,2.572379 -16.414198,3.630241 -23.333332,9.085289 -23.333332,18.396011 0,3.227044 0.590784,6.232476 1.312852,6.678738 1.086943,0.671768 4.146305,1.400078 13.44163,3.199904 0.41496,0.08035 2.1541,-2.403912 3.86475,-5.520578 z M 66.576516,42.108625 c 2.730716,-3.29031 2.203666,-14.601308 -0.882307,-18.935157 -2.509749,-3.524619 -12.235475,-9.840135 -15.153543,-9.840135 -2.037461,0 -1.345639,2.52836 1.459335,5.333334 4.100663,4.100662 3.435932,8.900125 -1.666667,12.033614 -5.181439,3.181906 -7.355543,2.96083 -9.991633,-1.016008 -1.85326,-2.79585 -1.67558,-3.283726 2.840693,-7.8 2.649684,-2.649684 4.817607,-5.357606 4.817607,-6.017606 0,-2.467167 -2.827187,-1.041258 -8.120276,4.09551 -3.991,3.873134 -5.642896,6.683986 -6.15001,10.464804 l -0.693348,5.169295 7.166264,0.739624 c 6.318694,0.652147 13.529819,2.988475 19.79737,6.414137 2.996316,1.6377 4.833748,1.458495 6.576515,-0.641412 z"
       id="path233" />
  </g>
</svg>
