<?xml version="1.0" encoding="UTF-8" standalone="no"?>
<!-- Created with Inkscape (http://www.inkscape.org/) -->

<svg
   version="1.1"
   id="svg185"
   width="221.33333"
   height="226.66667"
   viewBox="0 0 221.33333 226.66667"
   xmlns="http://www.w3.org/2000/svg"
   xmlns:svg="http://www.w3.org/2000/svg">
  <defs
     id="defs189" />
  <g
     id="g191">
    <path
       style="fill:#000000;stroke-width:1.33333"
       d="m 90.666665,218.60575 c -16.54089,-1.36371 -35.465186,-6.63517 -41.43832,-11.54289 -1.157743,-0.95124 -2.579256,-1.72952 -3.158919,-1.72952 -1.791163,0 -17.084506,-9.5711 -23.297721,-14.58051 -9.006732,-7.26169 -17.3730368,-16.47693 -17.4074653,-19.17381 -0.016999,-1.33155 0.5812713,-3.56486 1.3294886,-4.96291 1.3018636,-2.43256 3.7543107,-2.55123 56.9999987,-2.75809 49.373863,-0.19183 101.816403,0.0476 135.085563,0.6167 11.20141,0.19162 11.22143,0.19827 11.64333,3.8662 0.27562,2.39608 -0.30417,3.95315 -1.66666,4.47598 -2.16138,0.8294 -2.95151,4.51644 -0.96787,4.51644 2.56115,0 8.50627,13.79081 9.18848,21.3144 0.64224,7.08269 0.39319,8.1037 -2.74113,11.23804 -2.71099,2.71098 -4.76114,3.44756 -9.59583,3.44756 -8.25172,0 -10.70555,-1.56984 -14.66387,-9.38122 -3.7307,-7.36218 -5.7986,-8.04706 -11.97574,-3.96636 -6.62647,4.37754 -7.80791,5.04298 -12.66667,7.13438 -26.51837,11.41457 -43.61999,14.04524 -74.666665,11.48561 z m 30.666665,-9.91371 c 3.3,-0.42198 8.7,-1.57672 12,-2.56605 3.3,-0.98935 8.7,-2.58216 12,-3.5396 10.47191,-3.03823 28.50015,-12.76325 35.75897,-19.28956 3.85638,-3.46721 6.75611,-6.55952 6.44384,-6.87179 -1.091,-1.091 -163.692634,-1.25052 -164.36584,-0.16125 -1.75456,2.83895 14.538647,14.67827 31.496366,22.88659 12.878577,6.23381 17.850917,7.35517 44.666666,10.07321 9.321288,0.9448 10.719038,0.91104 21.999998,-0.53155 z m 85.33333,-11.84556 c 0,-3.72437 -4.71173,-10.17981 -7.4301,-10.17981 -2.68398,0 -2.46578,7.83508 0.30342,10.89501 3.22031,3.55842 7.12668,3.16639 7.12668,-0.7152 z M 185.21485,80.687976 c -8.27519,-1.812111 -22.90695,-8.745138 -27.57215,-13.064634 -1.66318,-1.539932 -4.81318,-6.586756 -7,-11.215167 -3.28828,-6.959636 -3.97604,-10.11003 -3.97604,-18.212768 0,-17.107855 6.00014,-27.243846 18.26547,-30.855737 3.81268,-1.1227554 7.29809,-2.6334901 7.74536,-3.3571883 1.22645,-1.9844487 9.34269,-1.581435 16.71523,0.8299986 12.24165,4.0040405 20.53846,18.4753827 18.08634,31.5462907 -0.99001,5.277238 -8.18537,13.628571 -13.4748,15.639607 -6.887,2.618431 -14.94942,1.647311 -19.35832,-2.331711 -5.78485,-5.220821 -6.89372,-15.04362 -2.43646,-21.583396 5.39077,-7.909471 17.12385,-8.417297 17.12385,-0.741148 0,2.528203 -0.93629,3.490916 -4.22353,4.342727 -5.93082,1.536826 -7.36251,4.339175 -4.47123,8.751821 1.85484,2.830828 3.37972,3.56333 7.418,3.56333 7.06647,0 11.19553,-5.136899 10.02301,-12.469439 -1.3187,-8.246715 -4.3656,-12.71362 -10.8065,-15.84285 -5.16326,-2.508505 -6.52668,-2.677841 -10.3703,-1.287973 C 174.46878,15.279883 171.10085,16 169.41849,16 c -1.80908,0 -4.85569,1.961702 -7.45672,4.801364 -3.53823,3.862846 -4.57644,6.339924 -5.31141,12.672487 -1.6444,14.168282 1.62158,22.096444 12.94269,31.418254 6.41069,5.278581 9.26865,6.035057 25.568,6.767608 9.52841,0.428241 16.57471,1.332136 17.15187,2.200231 1.53753,2.312617 1.19688,4.43978 -1.07483,6.711485 -2.52655,2.526544 -14.7674,2.581366 -26.02324,0.116547 z M 16.446222,72.30431 C 11.652165,72.05605 7.6038736,71.129266 6.7337315,70.080809 3.8234374,66.57412 4.8877247,57.035697 9.1974849,48.000001 c 2.2735591,-4.766667 4.1342181,-9.389427 4.1347961,-10.2728 0.0018,-2.713403 16.347241,-15.031582 22.001052,-16.580311 7.574658,-2.074902 24.698021,-0.531972 31.262461,2.816954 7.636374,3.895787 14.311207,10.147099 15.358367,14.38387 0.496484,2.008757 2.336598,5.160791 4.08914,7.004516 6.917951,7.277888 9.473656,21.97595 4.374867,25.160196 -3.402859,2.12512 -16.600333,2.149164 -28.257934,0.05148 -5.226368,-0.940437 -9.004352,-0.972314 -11.333333,-0.09563 -3.977627,1.497282 -22.165736,2.46858 -34.380679,1.836028 z M 77.666665,59.35942 C 80.821409,58.037056 80.602763,55.568517 76.796896,49.539633 68.747898,36.789195 59.00382,30.666667 46.760338,30.666667 37.496587,30.666667 31.62352,33.397046 24.1538,41.176409 20.019642,45.481937 16,54.739979 16,59.95624 c 0,1.464568 58.090087,0.902362 61.666665,-0.59682 z"
       id="path511" />
  </g>
</svg>
