<?xml version="1.0" encoding="UTF-8" standalone="no"?>
<!-- Created with Inkscape (http://www.inkscape.org/) -->

<svg
   version="1.1"
   id="svg195"
   width="213.33333"
   height="212"
   viewBox="0 0 213.33333 212"
   xmlns="http://www.w3.org/2000/svg"
   xmlns:svg="http://www.w3.org/2000/svg">
  <defs
     id="defs199" />
  <g
     id="g201">
    <path
       style="fill:#000000;stroke-width:1.33333"
       d="m 7.4034854,204.13565 c -2.8379088,-5.4879 -2.6043055,-9.18262 1.0676445,-16.88612 1.7257881,-3.62057 3.5037341,-8.08286 3.9509901,-9.9162 1.394284,-5.71525 15.778797,-18.78344 22.518809,-20.45812 1.984177,-0.493 8.284177,-0.92056 14,-0.95012 23.950117,-0.12386 37.474131,11.96914 44.474198,39.76836 2.80957,11.15759 4.391026,10.72923 -43.011642,11.65022 L 9.4736373,208.13889 Z M 78.999999,195.1048 C 83.535691,192.40375 73.045188,175.76201 63.152076,169.96427 53.200055,164.132 39.210621,165.85473 29.57953,174.09859 25.081818,177.94847 24,179.74388 24,183.35855 c 0,2.46624 -0.6,4.85489 -1.333334,5.30812 -2.108301,1.303 -1.554654,4.2859 1,5.38774 5.510286,2.37664 51.635926,3.25223 55.333333,1.05039 z m 44.685801,10.75599 c -0.39134,-0.65676 -1.12428,-3.68971 -1.62877,-6.73987 -0.99434,-6.01195 0.9452,-11.2118 6.79723,-18.22323 1.73015,-2.07292 3.14574,-4.50472 3.14574,-5.40398 0,-3.05775 7.76134,-12.15207 12.22254,-14.32172 5.73254,-2.78794 18.63356,-5.1761 27.85772,-5.15686 5.23344,0.0107 9.26719,1.03191 14.48639,3.66667 6.00168,3.02977 7.83649,4.84724 10.77573,10.67389 1.94832,3.8623 4.46115,7.7623 5.58406,8.66667 2.30662,1.85773 6.40689,13.81773 6.40689,18.68819 0,5.1199 -4.05323,7.7636 -11.49764,7.49924 -3.57629,-0.12694 -21.56296,0.2362 -39.97036,0.8071 -19.52872,0.60568 -33.76436,0.54067 -34.17953,-0.1561 z m 71.75104,-11.77159 c 2.33044,-1.70407 2.29565,-2.03531 -0.83347,-7.93376 -1.796,-3.38549 -3.71649,-6.15544 -4.26775,-6.15544 -0.55126,0 -1.00229,-0.79541 -1.00229,-1.76759 0,-4.38516 -13.19451,-12.11502 -23.25496,-13.62369 -7.00385,-1.05029 -15.61373,2.95863 -24.96801,11.62556 -4.98523,4.61892 -6.38178,6.89979 -7.02136,11.46745 -0.70803,5.05635 -0.4564,5.83951 2.22297,6.91903 5.04208,2.03144 56.24935,1.57107 59.12487,-0.53156 z M 99.491584,143.42229 c -1.920372,-2.51773 -3.491585,-4.9306 -3.491585,-5.36192 0,-1.56737 -7.052283,-11.3937 -8.177182,-11.3937 -0.635884,0 -1.156152,1.08 -1.156152,2.4 0,1.32 -0.707129,3.10713 -1.5714,3.9714 -0.864269,0.86426 -2.858418,4.13426 -4.431442,7.26666 -4.823358,9.60486 -10.723151,7.969 -19.057816,-5.28425 -1.983305,-3.15371 -4.459807,-5.57348 -5.50334,-5.37726 -1.043532,0.19623 -3.532925,3.35678 -5.531985,7.02345 -1.99906,3.66666 -5.245211,7.56666 -7.213669,8.66666 -3.490678,1.95064 -3.695474,1.86043 -8.297375,-3.65461 -2.595097,-3.11004 -5.695148,-7.57431 -6.888998,-9.9206 -1.193852,-2.34629 -2.788306,-4.4576 -3.54323,-4.6918 -0.754925,-0.23421 -2.952058,3.63006 -4.88252,8.58727 -2.564981,6.58656 -4.169742,9.01308 -5.960744,9.01308 -2.100929,0 -2.428276,-1.04692 -2.292948,-7.33334 0.127798,-5.93662 1.109779,-8.9205 5.155834,-15.66666 3.370249,-5.61937 5.836422,-8.33334 7.572468,-8.33334 2.918649,0 7.626398,4.61102 10.433134,10.21876 3.314837,6.6229 6.883704,9.93928 8.897476,8.268 0.980772,-0.81397 1.783223,-2.21429 1.783223,-3.11183 0,-2.46452 3.530148,-9.03444 6.658833,-12.39269 4.911465,-5.27184 6.76024,-4.09635 14.707205,9.3511 2.4919,4.21666 5.235591,7.66666 6.097089,7.66666 0.861499,0 2.492491,-1.95167 3.624425,-4.33705 3.161698,-6.66278 10.059774,-15.66295 12.004688,-15.66295 2.651923,0 14.241097,13.9288 14.241097,17.11609 0,0.67323 0.84763,1.92753 1.88362,2.78733 1.54643,1.28342 2.64677,0.0131 6.14663,-7.09612 8.64559,-17.56168 10.62195,-17.20815 23.98974,4.29127 3.32515,5.34782 4.27842,4.61063 11.82159,-9.14192 1.42087,-2.59052 4.17045,-5.55939 6.11019,-6.5975 3.31942,-1.77651 3.71842,-1.65637 6.78641,2.04335 1.7928,2.16196 4.88876,6.84196 6.87989,10.40001 l 3.62026,6.46916 3.38084,-4.01037 c 1.85945,-2.2057 5.0992,-6.7996 7.19942,-10.20866 2.84795,-4.62275 4.52331,-6.09505 6.59096,-5.79213 3.49518,0.51205 11.56162,13.56173 10.61664,17.17532 -0.85441,3.26727 -6.4047,3.42309 -8.22206,0.23084 -1.80272,-3.16653 -4.79195,-1.19271 -8.55075,5.64616 -3.14804,5.72765 -7.27931,9.905 -9.86609,9.97615 -1.8938,0.0521 -8.3873,-6.63568 -8.3873,-8.63823 0,-0.75707 -1.86189,-3.63529 -4.13754,-6.39606 -3.30364,-4.00788 -4.51292,-4.70803 -6,-3.47387 -1.02435,0.85014 -1.86246,2.58595 -1.86246,3.85737 0,3.40688 -9.07325,14.69515 -11.81162,14.69515 -2.65252,0 -7.17614,-4.60464 -12.77797,-13.00687 l -3.78259,-5.67354 -4.42507,5.00687 c -2.43379,2.75378 -4.45005,5.78414 -4.48058,6.73414 -0.0757,2.35726 -6.15608,8.27273 -8.50331,8.27273 -1.04629,0 -3.47356,-2.05997 -5.393936,-4.57771 z M 201.55041,102.88375 c -1.38088,-1.38089 -3.81435,-6.944639 -5.40769,-12.363894 -3.0956,-10.528719 -3.27875,-10.95954 -9.85654,-23.186523 C 177.92165,51.785101 169.15656,40 165.9572,40 c -0.84915,0 -2.67339,-1.248067 -4.05387,-2.773481 -2.84152,-3.139842 -4.99836,-2.966939 -16.90228,1.354966 -8.95731,3.252088 -37.70194,5.994043 -48.959644,4.670266 -7.580981,-0.891438 -14.997897,-2.832724 -28.363299,-7.42375 L 60.022882,33.198427 53.678107,36.15006 C 35.818983,44.458252 21.250598,45.114541 16.933746,37.805353 16.347306,36.812409 15.020433,36 13.985138,36 10.966101,36 8.7893416,25.740171 10.556785,19.840968 12.636192,12.900526 21.955312,7.7478297 32.666666,7.6160456 c 4.396371,-0.054089 14.634848,4.0889204 20.597809,8.3349234 4.956812,3.529562 8.802681,3.407615 15.628411,-0.495549 9.527175,-5.447937 20.826063,-7.4650396 42.635764,-7.6114316 l 19.93646,-0.1338181 10.46171,4.9645147 c 5.75395,2.730483 12.76688,5.2737 15.5843,5.651596 4.63126,0.621183 5.65072,0.158936 10.62925,-4.8196 C 172.37885,9.2682059 174.66498,8 178.06701,8 c 3.39008,0 4.63805,0.6871764 5.35599,2.949191 0.76745,2.418034 -0.37786,4.172156 -6.35919,9.739564 l -7.29521,6.790373 11.0093,11.541641 c 6.05512,6.347903 11.43972,12.915099 11.96578,14.59377 0.52606,1.67867 2.03246,4.430304 3.34754,6.114741 1.31508,1.684437 2.80183,4.984437 3.30388,7.333333 0.50206,2.348896 1.44518,4.934175 2.09584,5.745066 1.1387,1.419106 1.89904,4.871289 3.40831,15.474581 0.38744,2.721911 1.5436,5.645377 2.56925,6.496593 2.73016,2.265826 2.28583,7.568677 -0.77128,9.204797 -2.07421,1.11008 -3.17128,0.87563 -5.14681,-1.0999 z m -62.5524,-72.153699 c 4.88579,-2.923943 5.55583,-5.396718 1.46236,-5.396718 -1.12691,0 -3.64151,-0.838512 -5.58799,-1.86336 -8.18589,-4.309984 -14.61423,-5.185569 -33.17153,-4.518198 -14.799085,0.532214 -19.690705,1.21385 -24.740226,3.447493 C 70.9569,25.055001 68.604484,28 72.486854,28 c 1.001104,0 3.271018,1.141223 5.044253,2.536049 4.691232,3.690124 7.376381,3.9788 33.135553,3.562347 21.42915,-0.346448 23.74122,-0.621332 28.33135,-3.368345 z M 44.151793,30.421145 c 2.849846,-1.601704 5.18154,-3.373553 5.18154,-3.937444 0,-2.848592 -19.20348,-8.495074 -23.588531,-6.935838 -3.857594,1.371682 -7.078136,4.670353 -7.078136,7.249849 0,6.694175 15.979188,8.966069 25.485127,3.623433 z"
       id="path223" />
  </g>
</svg>
