<?xml version="1.0" encoding="UTF-8" standalone="no"?>
<!-- Created with Inkscape (http://www.inkscape.org/) -->

<svg
   version="1.1"
   id="svg185"
   width="217.33333"
   height="218.66667"
   viewBox="0 0 217.33333 218.66667"
   xmlns="http://www.w3.org/2000/svg"
   xmlns:svg="http://www.w3.org/2000/svg">
  <defs
     id="defs189" />
  <g
     id="g191">
    <path
       style="fill:#000000;stroke-width:1.33333"
       d="m 45.034954,213.22306 c -8.877503,-1.30099 -12.932518,-3.3082 -20.62398,-10.20875 -11.286792,-10.12617 -15.3073501,-28.83839 -9.738577,-45.32464 4.063491,-12.02989 9.033652,-17.85581 19.721906,-23.11763 8.243292,-4.05816 9.637879,-4.32345 21.706281,-4.1291 8.509628,0.13704 14.201467,0.88799 16.731547,2.20749 2.108993,1.09989 4.566304,2.00351 5.460689,2.00803 3.313927,0.0167 15.936,13.30816 17.692663,18.63089 1.929149,5.84539 1.184857,24.99875 -1.306219,33.61373 -2.20414,7.62267 -9.475359,17.50912 -14.679265,19.95894 -17.768645,8.36486 -19.340489,8.65082 -34.965045,6.36104 z M 61.455823,203 C 59.408424,199.33832 25.6714,165.33334 24.085978,165.33334 c -2.54268,0 -1.498996,4.31029 2.229478,9.20748 7.286537,9.57054 30.255186,30.72409 33.398122,30.75884 2.513201,0.0277 2.81838,-0.37504 1.742245,-2.29966 z m -28.751626,-9.62884 c -9.847584,-9.92362 -12.851595,-11.3261 -6.584529,-3.07412 5.174996,6.81404 11.376773,12.36963 13.808387,12.36963 1.100234,0 -2.150502,-4.18299 -7.223858,-9.29551 z m 42.651121,5.25994 c 0.842599,-1.36336 -2.445575,-5.27951 -17.021986,-20.27288 -4.216666,-4.33728 -7.666666,-8.44222 -7.666666,-9.1221 0,-0.67986 -0.531601,-1.23612 -1.181336,-1.23612 -0.649735,0 -4.698975,-3.3 -8.998312,-7.33333 -4.766369,-4.47147 -9.006705,-7.33333 -10.865576,-7.33333 -2.738349,0 -2.888637,0.3053 -1.47677,3 2.487398,4.74745 41.60745,43.3349 44.109971,43.50942 1.240055,0.0865 2.635357,-0.45877 3.100675,-1.21166 z m 9.978014,-9.32426 c 0,-2.56238 -6.517805,-11.68592 -10.259602,-14.36124 -2.057219,-1.47088 -10.451464,-9.33536 -18.65388,-17.47662 -14.054976,-13.9502 -19.086517,-17.34435 -19.086517,-12.87528 0,2.34705 39.587807,43.29026 43.333332,44.81698 3.679995,1.5 4.666667,1.47804 4.666667,-0.10386 z m 4,-15.3039 c 0,-2.55619 -32.847544,-35.33627 -35.408994,-35.33627 -3.769151,0 -1.832565,3.98292 4.031316,8.29108 3.275609,2.40657 6.33312,5.4794 6.794468,6.82849 C 65.845926,156.99066 85.428879,176 87.63418,176 c 0.934533,0 1.699152,-0.89868 1.699152,-1.99706 z m -2.666667,-19.17302 c 0,-0.64353 -0.9,-1.917 -2,-2.82992 -1.1,-0.91292 -2,-2.24021 -2,-2.94953 0,-1.70015 -5.542198,-6.28289 -7.666666,-6.33944 -2.789023,-0.0743 -1.917177,1.59945 3.944277,7.57184 5.48314,5.58691 7.722389,6.90541 7.722389,4.54705 z m 41.785715,50.09664 c -3.92485,-3.08728 -3.90036,-4.98226 0.23348,-18.06821 5.46487,-17.29939 16.13848,-27.32313 32.74264,-30.74911 12.79092,-2.63918 28.39799,2.86316 38.73266,13.65539 6.48346,6.77052 7.10952,7.82255 11.6605,19.59448 3.35174,8.66987 3.48198,10.59403 0.95118,14.05272 -1.7289,2.36277 -3.84807,2.61333 -24.33334,2.87705 -12.34173,0.1589 -30.18593,0.46939 -39.65378,0.69002 -15.07535,0.35128 -17.60184,0.0963 -20.33334,-2.05234 z M 194,194.83964 c 7.10349,-1.2035 7.47649,-4.49138 1.55394,-13.69782 -5.80896,-9.0299 -9.92832,-12.85248 -15.67377,-14.54462 -6.27795,-1.84894 -20.67905,-0.13552 -26.44204,3.14606 -7.19061,4.0945 -14.77147,12.32564 -14.77147,16.03856 0,1.77 -0.34536,4.94318 -0.76748,7.05152 l -0.76746,3.83333 25.76746,-0.46171 C 177.0713,195.95102 191.06666,195.33663 194,194.83964 Z M 70.181818,111.15152 c -1.933334,-1.93334 -3.515152,-4.00326 -3.515152,-4.59983 0,-2.13047 -8.229498,-13.233897 -9.312463,-12.564587 -0.607307,0.375336 -2.918667,4.559868 -5.136354,9.298957 -6.457135,13.79858 -12.025671,13.35887 -20.508164,-1.61939 -2.180333,-3.850002 -4.4335,-7.000002 -5.007037,-7.000002 -1.834878,0 -3.576198,3.163388 -5.350792,9.720572 -2.454026,9.06769 -9.763097,12.19332 -10.977296,4.69429 -0.6173207,-3.81264 9.999058,-25.807415 13.312616,-27.580777 3.527977,-1.888117 5.877537,0.0095 12.954419,10.462218 3.489226,5.1537 6.723235,9.370359 7.186688,9.370359 0.463454,0 2.57978,-3.749995 4.702948,-8.333329 2.123168,-4.583333 5.076798,-9.683333 6.563623,-11.333333 l 2.703316,-3 H 33.669154 9.5401388 L 8.1522455,74.333334 C 7.3889042,71.950001 6.4336202,61.958042 6.0293922,52.128983 5.2084425,32.167072 6.2440728,28.53106 12.970866,27.758042 16.39041,27.36508 16.720284,26.799292 17.383969,20.188826 18.326154,10.804437 22.96587,6.9207064 28.361442,11 c 1.525507,1.153351 2.322636,4.126591 2.588174,9.65371 0.316404,6.585932 0.823484,8.070802 2.890614,8.464524 3.382139,0.644186 4.364417,-1.347358 4.650445,-9.42864 0.27391,-7.738949 1.834754,-10.3562605 6.175991,-10.3562605 4.82618,0 6.454896,3.1606165 5.466865,10.6087615 -0.772606,5.824193 -0.547632,6.765919 1.933587,8.093827 3.846817,2.058753 6.599548,0.703684 6.599548,-3.248719 0,-1.813071 0.597676,-3.665875 1.328169,-4.117344 0.730493,-0.451469 1.180493,-2.652732 1,-4.891693 -0.214871,-2.665408 0.468763,-4.587922 1.980145,-5.568569 3.355806,-2.1773826 6.185902,1.225211 6.479643,7.790403 0.423088,9.456118 1.215131,11.333334 4.781809,11.333334 3.182749,0 3.271255,-0.259983 2.964935,-8.709478 -0.342446,-9.445956 0.96116,-12.053414 5.332496,-10.6660057 3.581,1.1365657 5.507754,4.7876897 6.616348,12.5377197 0.711405,4.973346 1.397113,6.171097 3.532929,6.171097 2.328809,0 2.731037,-1.131832 3.316859,-9.333333 C 96.660681,10.083774 96.701264,10 100.52135,10 c 4.54803,0 5.7263,1.79418 6.83844,10.413063 0.65081,5.043627 1.30577,6.321999 3.06719,5.986609 1.75859,-0.33485 2.3249,-2.211565 2.6364,-8.7369 0.35634,-7.464939 0.71676,-8.390774 3.54247,-9.099984 5.79575,-1.4546408 8.28559,1.2425352 9.28268,10.055703 0.6105,5.396067 1.50079,8.048176 2.70169,8.048176 2.32642,0 3.40978,-2.976037 3.40978,-9.366777 0,-5.660068 3.85858,-9.753941 7.81973,-8.2965604 3.39556,1.2492874 4.16065,3.2549244 3.30208,8.6561124 -0.80061,5.036505 0.98789,9.017952 4.04144,8.996822 2.017,-0.01396 4.83675,-6.31779 4.83675,-10.813033 0,-6.2110979 1.12128,-7.6685574 5.08924,-6.6151278 3.26373,0.8664658 3.63588,1.6434378 4.24409,8.8608208 0.58065,6.890344 1.04525,7.964938 3.60087,8.32852 2.72346,0.387466 2.96285,-0.18707 3.33333,-8 L 168.66666,10 173.62173,9.5888584 c 5.51117,-0.4572832 6.31527,0.9758126 6.00371,10.7000316 -0.18036,5.629257 0.69672,7.051102 3.65038,5.917674 1.45306,-0.557589 2.06351,-2.662422 2.07792,-7.164717 0.0251,-7.825359 1.13974,-9.7314766 5.90267,-10.0936827 4.35911,-0.3314975 5.4398,1.2805077 6.96219,10.3851697 0.99576,5.955145 1.50612,6.7117 4.7819,7.088612 2.01696,0.23207 4.25302,1.516573 4.96903,2.85445 0.716,1.337878 1.36311,11.921442 1.438,23.519031 0.11813,18.285879 -0.16051,21.303461 -2.09755,22.719857 -2.7228,1.990961 -16.01705,3.517691 -25.97665,2.983192 C 177.3,78.28202 170.21612,78.231313 165.59138,78.385796 l -8.40862,0.280872 4.23172,5.040456 c 2.32744,2.772251 5.54305,7.382828 7.1458,10.245727 1.60274,2.862898 3.60012,5.433952 4.43862,5.713453 0.83851,0.2795 2.82448,-2.081077 4.4133,-5.245727 8.48932,-16.909372 15.26022,-15.533786 25.90425,5.262733 5.40733,10.56498 5.38381,14.0755 -0.0899,13.40599 -2.72692,-0.33355 -4.50894,-2.34516 -8.45429,-9.54345 -2.74949,-5.01645 -5.54805,-9.21645 -6.21903,-9.333334 -0.67096,-0.116883 -3.34789,3.987485 -5.94874,9.120814 -6.95328,13.72383 -12.24476,13.56522 -19.79112,-0.5932 -2.36671,-4.440403 -5.13275,-8.073462 -6.14674,-8.073462 -1.01398,0 -3.79593,3.662913 -6.18209,8.139802 -4.87209,9.14099 -9.52345,13.11949 -12.8702,11.00841 -1.16397,-0.73421 -3.87212,-4.59292 -6.01811,-8.57491 -6.5031,-12.066794 -8.47232,-12.133622 -14.2083,-0.48218 -2.3713,4.81678 -5.155,9.08149 -6.18602,9.47713 -4.53913,1.74183 -8.34683,-1.08458 -14.648712,-10.87352 l -6.439691,-10.003023 -4.477526,8.987483 c -6.550248,13.14793 -9.456159,14.80369 -15.454193,8.80566 z m 7.151514,-13.563289 c 0,-0.593142 2.1,-4.565834 4.666667,-8.828207 2.566666,-4.262372 4.666666,-8.277075 4.666666,-8.921561 0,-1.312864 -19.93673,-1.62403 -23.224283,-0.362476 -3.051391,1.170928 -2.750232,2.02634 3.888193,11.044002 5.211376,7.079154 10.002757,10.464881 10.002757,7.068242 z m 32.126678,-1.254896 c 1.03033,-1.283334 2.71503,-3.833334 3.74378,-5.666667 1.02875,-1.833333 2.74179,-4.674219 3.80674,-6.313079 1.78946,-2.753802 1.69819,-3.065777 -1.20379,-4.11435 -3.88931,-1.405326 -22.473408,-0.376155 -22.473408,1.244558 0,0.650579 0.574708,1.182871 1.277128,1.182871 0.702421,0 2.905739,2.85 4.896261,6.333333 6.150509,10.763138 6.809729,11.248839 9.953289,7.333334 z m 34.12072,-0.565752 c 1.69727,-1.594498 3.08593,-3.42633 3.08593,-4.070739 0,-0.644409 1.5,-3.379101 3.33334,-6.077093 1.83333,-2.697994 3.33333,-5.36616 3.33333,-5.929263 0,-0.563101 -6.35,-1.02382 -14.11111,-1.02382 -7.76111,0 -13.91111,0.480473 -13.66667,1.067719 0.75155,1.805502 13.74073,18.932241 14.35851,18.932261 0.3194,1.1e-5 1.9694,-1.304568 3.66667,-2.899065 z M 85.333332,68.516016 C 98.899998,68.024905 123.8,67.490208 140.66666,67.327802 c 34.79406,-0.335026 54.37496,-1.644946 57.27226,-3.831393 1.62282,-1.224656 1.80842,-3.554573 1.022,-12.829742 L 198,39.333334 186.06418,37.763797 c -6.56469,-0.863246 -12.86469,-1.111622 -14,-0.551946 C 170.92888,37.771527 161.9,38.084066 152,37.906381 132.74649,37.560819 65.662228,37.507367 35.999999,37.813954 L 18,38.000001 17.651117,51.490503 c -0.265636,10.271565 0.09675,13.860339 1.518723,15.040477 2.243502,1.861942 23.907895,3.977744 34.163493,3.336496 4.033333,-0.252192 18.433333,-0.860348 31.999999,-1.35146 z"
       id="path362" />
  </g>
</svg>
