<?xml version="1.0" encoding="UTF-8" standalone="no"?>
<!-- Created with Inkscape (http://www.inkscape.org/) -->

<svg
   version="1.1"
   id="svg175"
   width="102.66667"
   height="216"
   viewBox="0 0 102.66667 216"
   xmlns="http://www.w3.org/2000/svg"
   xmlns:svg="http://www.w3.org/2000/svg">
  <defs
     id="defs179" />
  <g
     id="g181">
    <path
       style="fill:#000000;stroke-width:1.33333"
       d="m 6.3647978,208.84099 c -1.3980391,-1.39804 -1.619102,-4.28695 -0.9437619,-12.33334 0.4850542,-5.77921 0.7495554,-25.9554 0.5877806,-44.83597 -0.3215434,-37.52701 -0.052035,-38.97151 6.6973355,-35.89629 l 3.293849,1.50077 v 44.60001 c 0,38.7677 -0.273994,44.87402 -2.095239,46.69526 -2.578842,2.57884 -5.1391482,2.67037 -7.5399642,0.26956 z m 40.4594962,-1.31772 c -2.155563,-2.59731 -1.899498,-90.29284 0.273918,-93.8095 0.455404,-0.73686 -2.343136,-2.01561 -6.396204,-2.92264 C 31.58607,108.75107 27.475101,105.50167 23.087807,96.868464 20.118078,91.024709 19.623041,88.408636 19.769643,79.333333 20.028663,63.299121 21.602879,59.469336 35.064686,42.123245 l 5.078163,-6.543422 -5.494313,-5.598298 C 31.626664,26.902461 26.494524,23.054909 23.243778,21.431409 19.212694,19.418188 17.333334,17.633535 17.333334,15.818807 17.333334,11.578928 19.860802,8 22.855039,8 c 3.082271,0 11.700681,6.249724 17.8455,12.940837 2.218629,2.415874 4.61948,4.392496 5.335224,4.392496 0.715744,0 5.775795,-4.258054 11.244558,-9.462344 10.239353,-9.7441693 16.596036,-12.6266437 20.570751,-9.3279241 2.111153,1.7521015 1.431737,6.3062011 -1.437196,9.6334761 -1.143371,1.326036 -1.552148,3.469727 -1.046107,5.485954 0.960999,3.828926 -1.674144,5.480049 -6.723439,4.212757 -2.247949,-0.5642 -4.497355,0.290992 -7.894009,3.001189 -5.277837,4.211195 -6.095367,8.308771 -2.149399,10.77307 1.430507,0.893365 5.368443,5.863878 8.750971,11.045584 C 77.784787,66.67728 80.064556,87.726857 72.586469,99.027009 68.973586,104.48644 58.416633,112 54.358716,112 c -2.139426,0 -2.243585,0.38301 -0.815856,3 1.730308,3.17161 3.391255,85.09668 1.849766,91.23847 -0.883955,3.52194 -6.06669,4.29909 -8.568332,1.2848 z M 58.333335,95.226492 c 2.891823,-3.016837 4.333334,-5.831627 4.333334,-8.461556 0,-2.167489 0.668568,-4.354088 1.485706,-4.859108 3.881342,-2.3988 -3.772801,-23.578265 -11.615335,-32.140315 -4.896865,-5.346132 -7.099379,-5.244714 -10.775395,0.496162 -1.316556,2.056078 -3.151516,4.531182 -4.07769,5.50023 -0.926175,0.969047 -1.683954,2.550463 -1.683954,3.514258 0,0.963793 -0.870477,3.4302 -1.934395,5.480902 -2.561817,4.937907 -3.90371,16.309246 -2.738482,23.206171 0.74788,4.426663 2.022042,6.330701 6.319836,9.444007 7.177777,5.199557 14.335162,4.445027 20.686375,-2.180751 z M 85.8162,206.36927 c -0.554316,-0.89691 -0.790436,-17.54691 -0.524709,-37 0.265726,-19.4531 0.350646,-38.79668 0.188713,-42.98573 -0.161935,-4.18906 0.359885,-8.83906 1.159597,-10.33334 1.610099,-3.00849 5.972049,-3.62961 7.55077,-1.07519 1.386772,2.24385 1.529828,87.7756 0.151685,90.69166 -1.260902,2.66798 -7.018164,3.14242 -8.526056,0.7026 z"
       id="path501" />
  </g>
</svg>
