<?xml version="1.0" encoding="UTF-8" standalone="no"?>
<!-- Created with Inkscape (http://www.inkscape.org/) -->

<svg
   version="1.1"
   id="svg165"
   width="216"
   height="198.66667"
   viewBox="0 0 216 198.66667"
   xmlns="http://www.w3.org/2000/svg"
   xmlns:svg="http://www.w3.org/2000/svg">
  <defs
     id="defs169" />
  <g
     id="g171">
    <path
       style="fill:#000000;stroke-width:1.33333"
       d="m 107.08493,193.81194 c -1.6929,-0.68948 -7.267354,-14.60802 -9.803823,-24.4786 -0.84801,-3.3 -2.006167,-6.6 -2.573682,-7.33334 -0.567516,-0.73333 -2.979977,-6.73333 -5.361026,-13.33333 -2.381048,-6.6 -4.811167,-12.52311 -5.400263,-13.16248 -1.237673,-1.34327 -0.121627,-5.07283 1.926156,-6.43673 C 87.297425,128.11826 92,131.52028 92,133.50047 c 0,0.59795 1.441191,4.25496 3.202645,8.12668 1.761455,3.87173 5.966605,13.63952 9.344765,21.70619 3.37817,8.06666 6.69594,15.6428 7.37281,16.83585 2.47272,4.35836 3.20016,12.05813 1.25556,13.28973 -1.99631,1.26436 -3.62187,1.35858 -6.09085,0.35302 z m 36.45079,-2.92163 c -1.21131,-1.33849 -2.20239,-2.88404 -2.20239,-3.43456 0,-0.55051 -1.43542,-4.70327 -3.18982,-9.22833 C 136.38911,173.70234 133.35307,165.5 131.39675,160 c -1.95632,-5.5 -5.43814,-14.05274 -7.73739,-19.00612 -3.18842,-6.86893 -3.81081,-9.37576 -2.62274,-10.56383 2.62458,-2.62458 7.43798,0.64629 9.4029,6.38962 0.97478,2.84919 2.91735,7.58033 4.31681,10.51367 4.27924,8.96941 13.34346,33.58178 14.11231,38.31962 0.95509,5.88559 -2.06347,8.85006 -5.33292,5.23735 z M 82,118.45611 c -7.333333,-0.53441 -15.433333,-1.57933 -18,-2.32203 -2.566667,-0.7427 -7.966667,-2.07132 -12,-2.9525 -4.033333,-0.88118 -9.228649,-2.39272 -11.545148,-3.35898 -2.316499,-0.96626 -6.981831,-2.37761 -10.367405,-3.13633 C 24.486528,105.43107 19.393069,103.23729 7,96.742359 -1.0583446,92.519162 3.2360056,83.931368 14.459007,81.82592 c 2.670332,-0.500956 8.991985,-2.616725 14.048121,-4.701708 5.056135,-2.084983 10.760449,-3.799609 12.676256,-3.810281 1.915805,-0.01067 6.028175,-0.90596 9.1386,-1.989528 6.495272,-2.262735 40.541471,-6.943203 52.344686,-7.196034 4.64077,-0.09941 31.94504,1.16872 39.10205,1.816069 11.27224,1.019568 24.49803,4.283334 44.70689,11.032445 22.14527,7.395808 26.85772,10.014089 26.85772,14.922401 0,6.375034 -3.91044,8.778596 -24,14.751676 -5.5,1.63528 -11.28548,3.46552 -12.85661,4.06722 -1.57113,0.60169 -7.87113,1.78439 -14,2.62822 -6.12887,0.84383 -13.84339,2.35853 -17.14339,3.366 -7.97212,2.43383 -34.08658,3.48619 -39.60079,1.59583 -2.84181,-0.97422 -5.2917,-1.03158 -7.333337,-0.17171 C 96.567428,118.908 89.966307,119.03665 82,118.45611 Z m 21.33333,-11.91092 c 2.2,0.0565 8.09644,0.46019 13.10319,0.8971 6.10341,0.53261 12.03497,0.11492 18,-1.26752 4.89325,-1.13404 12.79681,-2.45569 17.56348,-2.93699 4.76667,-0.48129 11.66667,-2.00639 15.33333,-3.389092 3.66667,-1.382704 8.69706,-2.51431 11.17864,-2.514681 2.48159,-3.69e-4 6.8559,-0.702925 9.72067,-1.561236 9.36024,-2.804392 4.22373,-8.176795 -10.02228,-10.482571 -3.78237,-0.612191 -10.77703,-2.033252 -15.54369,-3.157913 -18.11943,-4.275152 -59.23291,-6.853082 -71.333337,-4.472798 -3.666666,0.721272 -12.066666,1.807124 -18.666666,2.413003 -6.6,0.605879 -14.4,1.708969 -17.333334,2.451312 C 52.4,83.266148 44.9,84.869267 38.666667,86.086291 c -6.233334,1.217024 -12.168768,3.002345 -13.189855,3.967381 -1.567971,1.481899 -1.153501,2.183203 2.666667,4.512152 2.487753,1.516648 5.764286,2.759786 7.281186,2.762527 1.516899,0.0028 5.716899,0.834891 9.333334,1.84922 13.292332,3.728209 25.488974,6.122149 35.242001,6.917249 5.5,0.44838 10.296585,1.10706 10.659079,1.46373 0.362493,0.35667 2.462493,0.25147 4.666666,-0.23379 2.204174,-0.48526 5.807585,-0.83607 8.007585,-0.77957 z M 67.333333,56.52648 C 62.2,55.642216 53.2,53.636446 47.333333,52.069214 41.466667,50.501984 34.494879,48.659819 31.840471,47.975519 29.186063,47.291218 22.114965,46.866786 16.12692,47.032335 4.5100868,47.353502 2.7296085,46.47865 2.6870837,40.428573 2.654892,35.848611 6.2054477,33.333334 12.702693,33.333334 c 5.96603,0 11.473988,-2.809937 17.641547,-9 1.644001,-1.65 3.784505,-3 4.756675,-3 0.972169,0 3.222169,-1.558391 5,-3.463091 C 44.650852,12.995612 51.218419,9.9182467 62.728307,7.2677216 74.483479,4.5607121 99.511621,3.5751721 108,5.4850457 c 15.63277,3.5173521 34.70901,9.1229813 36.6,10.7550523 0.69667,0.60128 2.72408,1.093236 4.50535,1.093236 1.78128,0 7.51128,1.557462 12.73333,3.461028 10.86804,3.96166 20.1638,5.842442 33.49465,6.77687 10.60278,0.743203 13.9457,2.778438 12.96762,7.894941 -0.91932,4.80907 -5.76222,6.235413 -17.63428,5.193688 -7.7672,-0.68154 -11.33968,-0.375651 -16,1.36998 -3.3,1.236092 -8.7,3.261378 -12,4.50064 -3.3,1.23926 -7.2,2.893872 -8.66667,3.676917 -7.64867,4.083572 -29.59825,6.839067 -51.10625,6.415747 -10.508445,-0.206827 -20.708445,0.04856 -22.666671,0.56752 -1.958227,0.518961 -7.760412,0.220079 -12.893746,-0.664185 z M 83,48.147899 c 1.703869,-0.252 1.098305,-2.814201 -0.666667,-2.820734 C 80.785061,45.321431 75.144085,40.384353 70.808228,35.240193 69.786087,34.027502 68.586087,29.652356 68.141561,25.51765 67.344072,18.09988 67.280324,18.006259 63.343497,18.471103 55.342867,19.415784 36,31.054766 36,34.924221 c 0,2.723261 1.393225,3.427261 19.333333,9.769186 C 66.180136,48.52781 73.907533,49.492662 83,48.147899 Z m 5.972223,0.379879 c -0.443056,-0.443055 -1.593056,-0.490424 -2.555556,-0.105267 -1.063644,0.425635 -0.747702,0.741578 0.805556,0.805556 1.405554,0.05789 2.193054,-0.257237 1.75,-0.700293 z m 27.308817,-1.890697 c 15.09586,-1.49971 26.37307,-4.10505 36.05229,-8.329052 7.4275,-3.241354 7.98622,-5.366098 2,-7.605778 C 142.80867,26.390418 139.62916,25.190296 135,23.404784 c -12.0629,-4.652777 -19,-3.663932 -19,2.708342 0,7.2276 -7.25579,17.218689 -13.50078,18.590317 -3.952784,0.868179 -5.34124,3.296558 -1.88485,3.296558 1.07124,0 8.12124,-0.613315 15.66667,-1.36292 z M 100.05399,31.749257 c 4.61436,-3.411542 5.41629,-10.057494 1.61268,-13.364874 -2.392645,-2.080487 -14.545993,-3.131364 -19.185274,-1.658913 -3.394868,1.077489 -3.501317,11.306066 -0.148063,14.227231 5.177815,4.510616 12.266158,4.829241 17.720657,0.796556 z"
       id="path640" />
  </g>
</svg>
