<?xml version="1.0" encoding="UTF-8" standalone="no"?>
<!-- Created with Inkscape (http://www.inkscape.org/) -->

<svg
   version="1.1"
   id="svg75"
   width="209.33333"
   height="220"
   viewBox="0 0 209.33333 220"
   xmlns="http://www.w3.org/2000/svg"
   xmlns:svg="http://www.w3.org/2000/svg">
  <defs
     id="defs79" />
  <g
     id="g81">
    <path
       style="fill:#000000;stroke-width:1.33333"
       d="m 38.999999,211.98992 c -3.692349,-1.52288 -3.949606,-6.17549 -0.403689,-7.30092 1.427971,-0.45323 8.027971,-0.86616 14.666666,-0.91764 6.638696,-0.0515 12.053879,-0.47109 12.03374,-0.93248 -0.05597,-1.28249 -11.619953,-6.8362 -14.281779,-6.85896 -2.580768,-0.022 -10.698603,-2.70544 -13.381576,-4.42332 -0.934986,-0.59867 -7.234985,-2.442 -14,-4.09629 -10.923999,-2.67132 -12.635644,-3.50267 -15.3000278,-7.43124 -6.4983415,-9.58164 -1.3661466,-14.59423 14.9999998,-14.65043 2.933333,-0.0107 9.084321,-1.33569 13.668864,-2.94583 l 8.335529,-2.92752 4.082775,3.91403 c 3.654574,3.50351 5.227538,3.98884 14.997803,4.62747 12.659936,0.82752 23.210832,-0.67138 26.683829,-3.79078 2.22347,-1.99709 2.752456,-2.00558 6.077052,-0.0975 2.593088,1.48824 4.572795,1.7455 6.875825,0.89357 2.03686,-0.75349 4.38133,-0.67377 6.33268,0.21532 1.70415,0.77647 4.55848,1.04531 6.34295,0.59743 2.29834,-0.57684 3.48796,-0.17991 4.07931,1.36113 0.64343,1.67676 1.25423,1.82736 2.66448,0.65697 2.28559,-1.89688 10.32725,-0.53172 12.53451,2.12788 1.3726,1.65388 1.99542,1.67043 4.22024,0.11214 2.59098,-1.81479 7.06222,-1.47304 9.93515,0.75937 0.82372,0.64007 2.51703,0.77259 3.76292,0.29449 1.35667,-0.5206 3.80936,0.27236 6.115,1.977 2.11737,1.56544 5.52407,2.84811 7.57043,2.85036 4.10033,0.004 20.59702,7.83906 24.9571,11.85251 1.51995,1.39911 3.91024,2.75373 5.31176,3.01028 1.40152,0.25655 3.89864,2.86644 5.54915,5.79977 2.71159,4.81914 2.80408,5.55324 0.95928,7.6142 -1.81077,2.02295 -5.29193,2.273 -30.78473,2.21135 -27.86402,-0.0673 -28.809,0.0179 -30.89844,2.78792 -1.93943,2.57116 -3.84818,2.9374 -19.05286,3.65583 -12.58684,0.59472 -17.41202,0.37138 -18.91437,-0.87546 -3.02681,-2.51202 -0.29295,-6.44798 4.92887,-7.0961 2.38236,-0.29571 0.35656,-0.63366 -4.50178,-0.75102 -12.271567,-0.29654 -17.166661,0.84267 -17.166661,3.99502 0,1.39802 -0.75,2.7753 -1.666667,3.06065 -3.955059,1.23112 -44.595469,1.84997 -47.333333,0.72076 z M 155.08782,196.73507 c 3.60368,-1.28524 7.2986,-1.50796 12.66667,-0.76354 4.16836,0.57807 7.78892,0.86087 8.04569,0.62846 1.20827,-1.09367 -1.60622,-3.26666 -4.23102,-3.26666 -1.61708,0 -6.2232,-1.2 -10.23583,-2.66666 C 157.3207,189.2 151.31072,188 147.9778,188 c -5.50875,0 -6.19714,0.36376 -7.56967,4 -1.04479,2.76796 -2.46953,4.05407 -4.62565,4.17552 -2.2208,0.12507 -1.77532,0.45768 1.55085,1.15781 7.29279,1.53507 12.24029,1.36835 17.75449,-0.59826 z M 116.66666,192 c 2.86433,-2.93333 6.4361,-5.3546 7.93727,-5.38059 2.4816,-0.0429 2.42677,-0.22024 -0.60393,-1.95274 -2.38066,-1.36091 -8.04588,-1.91902 -19.8221,-1.95275 l -16.488773,-0.0472 0.643289,3.36516 c 0.777469,4.06705 -0.819261,5.23688 -6.615219,4.84654 -3.029596,-0.20404 -4.383865,0.28748 -4.383865,1.5911 0,2.59809 5.285887,3.37301 17.361973,2.54529 6.331535,-0.43397 11.208835,-0.14083 12.773535,0.76773 3.56208,2.06836 3.43264,2.1216 9.19782,-3.78249 z m -49.698888,-5.32835 c 2.401059,-1.46393 6.050971,-2.66393 8.110916,-2.66666 2.156389,-0.003 3.395755,-0.57066 2.921311,-1.33832 -0.453226,-0.73334 -3.70772,-1.33334 -7.232211,-1.33334 -4.389238,0 -7.476241,-0.84014 -9.798284,-2.66666 -4.41248,-3.47086 -5.114858,-3.38591 -9.454354,1.14356 l -3.650425,3.81021 4.40097,1.63323 c 2.420533,0.89828 5.300971,2.14838 6.400971,2.77804 2.912562,1.66716 3.491621,1.57229 8.301106,-1.36006 z m -29.350029,-9.33832 c -0.322892,-2.2 -0.789444,-4 -1.036781,-4 -0.247339,0 -3.479239,0.64972 -7.182001,1.44382 -6.865192,1.47232 -9.156817,3.87301 -3.732295,3.90993 1.65,0.0107 3.9,0.60204 5,1.31292 1.1,0.71088 3.246084,1.30169 4.769076,1.31292 2.321377,0.0171 2.674159,-0.62629 2.182001,-3.97959 z M 76.999999,74.592104 C 73.306975,72.390095 74.23782,68.899279 80.209711,62.555187 83.258385,59.3165 88.740355,53.366667 92.391864,49.333333 99.53965,41.438129 123.15318,17.15572 128.23256,12.477399 c 1.70542,-1.570764 3.87443,-3.8207643 4.82001,-5.0000002 2.17515,-2.7126399 4.83775,-2.7299308 7.51885,-0.048827 1.77934,1.7793374 2.09524,6.5728442 2.09524,31.7933492 0,27.711802 -0.17322,29.854882 -2.59001,32.04204 -2.24783,2.034255 -5.99115,2.395455 -28.33333,2.733939 -14.158827,0.214507 -27.243321,0.748992 -29.076655,1.187747 -1.833333,0.438753 -4.383333,0.171658 -5.666666,-0.593543 z m 26.333331,-8.05566 c 5.13333,-0.775903 13.16112,-1.355108 17.83953,-1.287121 4.6784,0.06799 9.3284,-0.558767 10.33333,-1.392783 2.6077,-2.164197 2.66741,-38.523207 0.0633,-38.523207 -0.97013,0 -4.71268,3.45 -8.31677,7.666667 -3.60408,4.216667 -12.11692,13.066667 -18.91741,19.666667 -10.970149,10.646736 -14.482727,15.39005 -11.335271,15.306921 0.55,-0.01452 5.199999,-0.66124 10.333331,-1.437144 z"
       id="path779" />
  </g>
</svg>
