<?xml version="1.0" encoding="UTF-8" standalone="no"?>
<!-- Created with Inkscape (http://www.inkscape.org/) -->

<svg
   version="1.1"
   id="svg315"
   width="77.333336"
   height="220"
   viewBox="0 0 77.333336 220"
   xmlns="http://www.w3.org/2000/svg"
   xmlns:svg="http://www.w3.org/2000/svg">
  <defs
     id="defs319" />
  <g
     id="g321">
    <path
       style="fill:#000000;stroke-width:1.33333"
       d="m 14.466966,210.72539 c -3.811349,-1.04149 -2.743377,-6.25505 2.172919,-10.60761 5.100448,-4.5156 6.993168,-11.62615 5.479514,-20.58537 -0.751088,-4.44567 -1.728925,-5.80558 -5.45053,-7.5803 -2.494381,-1.18948 -4.640386,-2.80157 -4.768902,-3.58241 -1.026056,-6.23416 -1.305029,-115.999786 -0.301465,-118.615032 0.479523,-1.249616 2.617405,-2.621138 4.750849,-3.047827 2.133444,-0.426688 4.480132,-1.899043 5.214862,-3.271896 C 23.337671,40.121208 21.13833,32.062284 16.847397,26.15137 15.036847,23.657274 12.550461,20.242073 11.322093,18.562033 6.6649018,12.192387 13.634235,6.5396254 22.126722,9.7984985 25.255526,10.999133 30.8003,27.079249 30.8003,34.952301 c 0,5.364193 2.804264,9.997684 6.05076,9.997684 4.349776,0 5.502447,-2.184527 7.387139,-14 2.077603,-13.02486 4.082435,-17.340028 9.626834,-20.720646 5.173026,-3.154179 6.782369,-3.2417756 9.506696,-0.5174485 3.309808,3.3098075 2.508139,5.9332015 -3.511254,11.4902735 -5.245065,4.842217 -5.640593,5.711449 -6.135489,13.483626 l -0.528996,8.307742 4.736527,2.258693 c 3.609097,1.721057 5.060359,3.461421 6.096996,7.31156 1.828844,6.792456 3.645987,59.228715 2.600903,75.052865 -0.542123,8.20857 -0.165112,17.51576 1.071186,26.44428 2.158786,15.59065 1.547119,17.55572 -5.464561,17.55572 -7.67287,0 -9.134501,4.30833 -5.368147,15.82329 1.137725,3.4784 4.137725,8.65013 6.666667,11.49273 5.056205,5.68334 5.427249,7.04034 2.878228,10.52632 -1.256424,1.71827 -3.141504,2.23603 -6.995902,1.92151 -4.535377,-0.37008 -5.589886,-1.08565 -7.511559,-5.09719 -1.229525,-2.56666 -3.565221,-10.06666 -5.190433,-16.66666 -3.576432,-14.52392 -4.594096,-16.66667 -7.915595,-16.66667 -3.575572,0 -4.794464,2.96003 -6.496979,15.77764 -2.275468,17.13117 -8.32816,24.59603 -17.836355,21.99777 z m 37.889436,-79.10874 c -0.244144,-15.03334 -0.48544,-30.03334 -0.536212,-33.333332 -0.05077,-3.3 0.277392,-12.6 0.729254,-20.666666 0.640476,-11.433823 0.414168,-15.205882 -1.02671,-17.11296 -2.298576,-3.042288 -9.80373,-4.06029 -19.351146,-2.624795 l -7.295379,1.096892 -0.414376,48.579881 c -0.227907,26.71895 -0.124747,49.33467 0.229252,50.25716 0.469068,1.22238 4.368121,1.60403 14.376422,1.4072 L 52.8003,158.94998 Z"
       id="path1168" />
  </g>
</svg>
