<?xml version="1.0" encoding="UTF-8" standalone="no"?>
<!-- Created with Inkscape (http://www.inkscape.org/) -->

<svg
   version="1.1"
   id="svg195"
   width="217.33333"
   height="214.66667"
   viewBox="0 0 217.33333 214.66667"
   xmlns="http://www.w3.org/2000/svg"
   xmlns:svg="http://www.w3.org/2000/svg">
  <defs
     id="defs199" />
  <g
     id="g201">
    <path
       style="fill:#000000;stroke-width:1.33333"
       d="M 46.399731,204.34883 C 24.994116,187.21767 10.411221,155.76091 14.71421,136 c 0.718583,-3.3 1.67271,-7.90287 2.120282,-10.22861 0.982725,-5.10658 9.867669,-14.69852 15.981285,-17.25295 9.912413,-4.14167 24.175094,-0.4857 30.002913,7.69068 4.653949,6.52946 4.47389,18.2395 -0.408326,26.55531 -2.897337,4.935 -4.676169,6.41889 -9.328515,7.78184 -9.753274,2.85733 -11.318503,4.47127 -12.351043,12.73544 -1.526243,12.21563 4.530716,26.73544 14.62295,35.05431 3.572192,2.9445 4.753644,4.8593 4.426219,7.17364 -0.728011,5.14581 -6.080224,4.68146 -13.380244,-1.16083 z M 29.089265,158.33334 c -0.117813,-1.65 1.716575,-5.828 4.076405,-9.28446 3.421696,-5.01176 5.290725,-6.46489 9.229133,-7.17549 7.013386,-1.26541 9.116816,-2.61925 11.503898,-7.40427 2.775774,-5.56417 2.661733,-7.111 -0.898702,-12.18978 -3.936896,-5.61577 -4.902021,-6.23469 -9.760001,-6.25892 -6.670504,-0.0333 -14.692297,7.78942 -16.465296,16.05663 -1.950236,9.09365 -1.855316,25.64234 0.158631,27.65629 2.189137,2.18913 2.402309,2.0507 2.155932,-1.4 z m 87.762165,47.95202 c -9.53373,-7.37669 -26.184765,-27.22664 -26.184765,-31.21522 0,-0.67976 -1.27648,-3.87794 -2.836622,-7.10706 -4.480127,-9.2728 -5.969496,-22.25033 -3.94428,-34.36826 C 85.665521,122.94559 88.700428,116 91.573897,116 c 0.916087,0 2.269218,-1.12785 3.006959,-2.50633 1.873627,-3.5009 10.926874,-6.827 18.582284,-6.827 16.43436,0 26.76732,19.12166 18.7865,34.76537 -2.65714,5.20843 -3.36083,5.68154 -16.82844,11.31422 -4.05882,1.69756 -4.2467,2.13044 -5.16148,11.89254 -1.24406,13.27591 1.18253,19.73988 11.62368,30.96334 6.72818,7.23229 7.63195,8.79361 6.41089,11.0752 -1.85215,3.46076 -6.36889,3.30188 -11.14286,-0.39198 z m -6.30268,-63.94033 c 10.24025,-5.18719 12.11791,-7.22792 12.11791,-13.17028 0,-4.37139 -0.69295,-5.54949 -4.97618,-8.46001 -5.68666,-3.86419 -8.32336,-4.15685 -13.47051,-1.49516 -3.76404,1.94647 -4.74428,3.46464 -9.531818,14.76278 -2.586375,6.1036 -2.685396,7.38822 -1.207113,15.66018 l 1.610382,9.01116 4.120955,-6.32684 c 2.941714,-4.51639 6.185694,-7.37275 11.336374,-9.98183 z m 74.30267,63.94033 c -9.53373,-7.37669 -26.18476,-27.22664 -26.18476,-31.21522 0,-0.67976 -1.27648,-3.87794 -2.83662,-7.10706 -4.48012,-9.2728 -5.9695,-22.25033 -3.94428,-34.36826 C 153.66552,122.94559 156.70042,116 159.57389,116 c 0.91609,0 2.26923,-1.12785 3.00696,-2.50633 1.87363,-3.5009 10.92688,-6.827 18.58228,-6.827 16.43437,0 26.76733,19.12166 18.78651,34.76537 -2.65714,5.20843 -3.36083,5.68154 -16.82844,11.31422 -4.05882,1.69756 -4.2467,2.13044 -5.16148,11.89254 -1.24406,13.27591 1.18253,19.73988 11.62368,30.96334 6.72818,7.23229 7.63196,8.79361 6.41089,11.0752 -1.85215,3.46076 -6.36889,3.30188 -11.14287,-0.39198 z m -6.30266,-63.94033 c 10.24024,-5.18719 12.1179,-7.22792 12.1179,-13.17028 0,-4.37139 -0.69296,-5.54949 -4.97617,-8.46001 -5.68667,-3.86419 -8.32337,-4.15685 -13.47052,-1.49516 -3.76404,1.94647 -4.74428,3.46464 -9.53181,14.76278 -2.58639,6.1036 -2.6854,7.38822 -1.20712,15.66018 l 1.61038,9.01116 4.12095,-6.32684 c 2.94172,-4.51639 6.18569,-7.37275 11.33639,-9.98183 z M 12.666666,58.968168 C 8.3701615,58.038833 5.3333333,54.534925 5.3333333,50.506929 c 0,-5.05165 3.3856259,-6.645998 11.4830987,-5.40758 8.742841,1.337118 34.671433,1.183194 36.068774,-0.214122 C 54.92986,42.840611 47.906698,38.671535 42.185621,38.533761 32.592302,38.302735 30,37.041814 30,32.606554 c 0,-3.343104 0.576898,-4.005867 3.808615,-4.37548 2.094739,-0.239578 8.120142,0.523628 13.389782,1.696012 7.839314,1.744082 10.799961,3.19778 16.28523,7.99616 l 6.704064,5.864553 49.394309,0.1445 49.39432,0.144502 2.15224,-3.28474 c 1.18373,-1.806607 2.73406,-5.573887 3.4452,-8.371734 0.71112,-2.797847 2.88537,-9.683341 4.83166,-15.3011 2.65576,-7.665533 4.25266,-10.405657 6.39999,-10.9817944 4.55655,-1.2225409 18.66875,-0.8847869 20.86125,0.4992823 1.61738,1.0210024 2.07198,5.4173551 2.37619,22.9795831 0.20689,11.944371 -0.17005,22.534241 -0.83767,23.533048 C 205.89169,56.610549 195.00841,57.291829 128,58.170094 24.66087,59.52454 15.530965,59.587716 12.666666,58.968168 Z M 196,41.724906 c 0.36666,-0.335769 0.87636,-5.961232 1.13266,-12.501031 0.40235,-10.266425 0.17079,-11.890541 -1.69525,-11.890541 -1.18869,0 -2.83271,1.65 -3.65337,3.666666 -0.82067,2.016667 -2.35051,5.647322 -3.39963,8.068122 -1.04913,2.4208 -2.23401,6.413477 -2.63308,8.872617 -0.58531,3.606836 -0.24479,4.591808 1.76155,5.095251 2.44872,0.614452 7.18305,-0.116907 8.48712,-1.311084 z"
       id="path521" />
  </g>
</svg>
