<?xml version="1.0" encoding="UTF-8" standalone="no"?>
<!-- Created with Inkscape (http://www.inkscape.org/) -->

<svg
   version="1.1"
   id="svg185"
   width="224"
   height="197.33333"
   viewBox="0 0 224 197.33333"
   xmlns="http://www.w3.org/2000/svg"
   xmlns:svg="http://www.w3.org/2000/svg">
  <defs
     id="defs189" />
  <g
     id="g191">
    <path
       style="fill:#000000;stroke-width:1.33333"
       d="M 19.481589,193.26894 C 2.6994015,192.23221 1.4616849,191.05649 6.1033747,180.56081 c 3.054846,-6.90756 4.8082913,-9.91892 14.6893443,-25.22748 6.031664,-9.34476 12.31146,-14.89361 18.540614,-16.38256 2.933334,-0.70115 30.533334,-1.34524 61.333337,-1.43131 30.8,-0.0861 67.62529,-0.47414 81.83398,-0.86237 18.33068,-0.50087 26.36628,-0.26412 27.66667,0.81511 2.03599,1.6897 2.51043,9.95154 0.63795,11.10881 -0.65711,0.40611 -28.70711,1.05556 -62.33334,1.44323 -33.62623,0.38766 -71.565691,0.8408 -84.309918,1.00697 l -23.17132,0.30212 -7.151071,7.99529 c -7.880961,8.81136 -13.68773,18.60183 -12.020408,20.26694 1.643232,1.64105 179.551637,0.69601 182.244177,-0.96807 0.793,-0.49009 3.50313,0.0432 6.02254,1.18517 4.90652,2.22392 5.96106,5.81582 2.91407,9.92574 -1.52367,2.05517 -9.27271,2.31565 -90.31215,3.03573 -48.755011,0.43321 -88.955011,0.90504 -89.33333,1.04849 -0.37832,0.14347 -6.621139,-0.10573 -13.872931,-0.55368 z M 90.555625,62.641658 C 84.261219,62.159759 78.459839,61.362884 77.663671,60.870826 76.867503,60.378767 70.920584,58.441595 64.448296,56.565999 57.976007,54.690403 51.777387,52.426736 50.673583,51.535628 49.569779,50.64452 45.966667,48.484559 42.666667,46.735714 24.954909,37.349311 6.6891095,19.601728 6.6716508,11.761905 6.6582129,5.7276454 4.4813513,5.8467006 110.16483,6.1017327 c 54.90934,0.1325053 100.2152,0.3138225 100.67966,0.4029265 2.24794,0.4312441 1.97095,5.7941128 -0.4588,8.8830388 -1.47933,1.880671 -2.4713,3.537804 -2.20436,3.682518 4.71158,2.554288 6.11098,3.856628 8.28372,7.709208 1.49332,2.647861 2.83776,8.211663 3.21211,13.292979 0.57357,7.785668 0.29879,9.140188 -2.51876,12.415779 -2.20529,2.563814 -4.89764,3.90943 -8.89481,4.445562 -5.03647,0.675534 -6.22812,0.30139 -9.8177,-3.082445 -2.24701,-2.118215 -5.19524,-6.4013 -6.55162,-9.517966 -1.35639,-3.116667 -3.00376,-5.666667 -3.66083,-5.666667 -0.65705,0 -3.43272,1.518792 -6.16813,3.375095 C 158.7568,57.859348 125.59563,65.324312 90.555625,62.641658 Z M 129.42219,50.649815 c 20.99948,-3.98247 60.54044,-24.945431 58.26037,-30.887209 -0.96712,-2.520256 -11.22515,-4.101233 -14.66513,-2.260205 -1.96024,1.049088 -90.408777,1.727564 -107.684097,0.826029 -1.833333,-0.09567 -10.383333,-0.05871 -19,0.08214 -13.04523,0.213244 -15.666666,0.596617 -15.666666,2.291182 0,2.542108 11.270612,13.964912 13.778849,13.964912 1.016964,0 3.882753,1.377908 6.368421,3.062017 9.94754,6.739739 24.146635,10.891779 45.85273,13.408063 8.938833,1.036237 26.066453,0.781624 32.755523,-0.486931 z m 79.91114,-12.043756 c 0,-2.83769 -5.50973,-9.272726 -7.9394,-9.272726 -2.10693,0 -1.67076,5.004657 0.75942,8.713577 2.66673,4.069956 7.17998,4.421429 7.17998,0.559149 z"
       id="path660" />
  </g>
</svg>
