<?xml version="1.0" encoding="UTF-8" standalone="no"?>
<!-- Created with Inkscape (http://www.inkscape.org/) -->

<svg
   version="1.1"
   id="svg175"
   width="208"
   height="217.33333"
   viewBox="0 0 208 217.33333"
   xmlns="http://www.w3.org/2000/svg"
   xmlns:svg="http://www.w3.org/2000/svg">
  <defs
     id="defs179" />
  <g
     id="g181">
    <path
       style="fill:#000000;stroke-width:1.33333"
       d="m 85.333333,209.06228 c -2.62029,-0.7658 -10.50056,-1.05326 -17.970596,-0.65551 -21.818285,1.16172 -25.719529,-2.52996 -23.840056,-22.5594 1.115886,-11.89193 1.210424,-21.94828 0.439634,-46.76508 -0.480107,-15.45782 -0.221026,-20.6627 1.0946,-21.99025 1.69857,-1.71397 8.394813,-2.20019 60.276415,-4.37675 10.63334,-0.4461 25.47756,-1.41421 32.98716,-2.15137 8.84484,-0.86823 15.4194,-0.88743 18.66667,-0.0545 2.75707,0.70717 7.41284,1.20998 10.34617,1.11734 8.34011,-0.26337 13.13124,2.74161 14.1257,8.85958 0.45929,2.82565 1.0689,22.59506 1.35469,43.93202 l 0.51961,38.79448 L 172,205.49625 c -15.47249,3.11737 -41.03687,3.79089 -42.7226,1.12556 -1.76476,-2.7903 -1.56711,-10.28539 0.30169,-11.44036 0.8685,-0.53678 10.31084,-1.19452 20.98299,-1.4617 10.67216,-0.26716 19.78659,-0.9134 20.25429,-1.43609 0.46771,-0.52268 0.54407,-15.23425 0.1697,-32.69237 -0.58202,-27.1408 -1.00724,-32.14532 -2.93346,-34.52409 l -2.25276,-2.78205 -45.89993,2.21011 c -25.244955,1.21556 -50.308425,2.2014 -55.6966,2.19076 l -9.79668,-0.0194 0.823637,15 c 0.452999,8.25 1.0493,17.1 1.325114,19.66667 0.275812,2.56667 -0.09796,10.57503 -0.830599,17.79636 -0.925149,9.11879 -0.902685,13.55908 0.07353,14.53531 0.877678,0.87768 8.315744,1.3021 19.803642,1.13005 13.917632,-0.20845 19.006844,0.17356 20.898029,1.56868 3.480796,2.56776 3.225071,8.888 -0.481045,11.88903 -3.327564,2.6945 -4.048958,2.74916 -10.685618,0.80952 z M 175.66667,106.55987 c -1.28334,-0.74748 -2.33334,-1.90798 -2.33334,-2.5789 0,-0.67092 -1.81582,-3.79111 -4.03517,-6.933747 -2.21935,-3.14264 -6.99304,-10.213891 -10.60821,-15.713891 -3.61518,-5.5 -8.54935,-12.689774 -10.96483,-15.977277 -8.1722,-11.122465 -12.0102,-18.809236 -11.41528,-22.862621 0.434,-2.957101 0.0366,-3.826768 -1.74845,-3.826768 -2.16889,0 -6.69762,-5.937172 -12.35652,-16.199384 l -2.46179,-4.464378 -3.53821,6.859925 c -1.94601,3.772959 -4.7382,8.389166 -6.20487,10.25824 -2.80064,3.569049 -8.40225,5.613042 -10.666667,3.8922 C 97.152373,37.355843 88,23.268581 88,21.569086 c 0,-2.430992 -2.660031,-1.850184 -3.50016,0.764247 -3.209725,9.988467 -7.483895,15.726437 -12.668972,17.00779 -3.068501,0.758298 -4.018595,0.100787 -7.66806,-5.306697 -2.291076,-3.39473 -5.118947,-8.015821 -6.284157,-10.269089 -1.924214,-3.72102 -2.3104,-3.905016 -4.209722,-2.005695 -1.150137,1.150136 -3.646156,4.923971 -5.54671,8.386298 -4.057998,7.392642 -6.520104,9.211919 -10.959103,8.097802 C 33.577015,37.343687 26.255905,27.857333 24.862355,22.304986 23.8817,18.397748 20,18.563524 20,22.512644 c 0,1.225036 -1.012712,3.673188 -2.250472,5.440337 -1.237759,1.767149 -2.611243,5.350653 -3.052185,7.963342 -0.635267,3.764096 -1.344523,4.66546 -3.416196,4.341498 C 3.9168164,39.106207 2.196436,29.483688 7.9182284,21.44817 c 1.5116411,-2.122904 2.7484386,-4.529126 2.7484386,-5.34716 0,-0.818034 1.507526,-3.875412 3.35006,-6.7941727 2.687633,-4.2574884 4.138684,-5.3068374 7.338342,-5.3068374 3.51797,0 4.813164,1.2639602 10.983275,10.7184041 l 6.994989,10.718404 2.093214,-4.68142 c 1.151268,-2.574783 2.985252,-5.748064 4.075518,-7.051739 1.090267,-1.303673 2.685458,-4.0203158 3.544868,-6.0369825 1.104298,-2.591313 2.530286,-3.6666666 4.862235,-3.6666666 3.584608,0 5.462981,2.1125723 11.558824,13.0000001 2.155605,3.85 4.459451,7 5.119655,7 0.660204,0 3.454494,-4.5 6.209534,-10 4.155872,-8.2965398 5.55707,-10.0000001 8.2256,-10.0000001 3.590423,0 5.967331,2.4596768 13.247782,13.7090921 l 4.989207,7.709092 5.00218,-9.941595 C 111.22994,9.5778689 114.34216,5.1928442 115.91504,4.6936321 119.17089,3.6602646 124,6.0613592 124,8.7135783 c 0,1.0741985 0.55176,1.9530887 1.22613,1.9530887 0.67436,0 3.31403,3.413713 5.86592,7.586027 l 4.6398,7.58603 2.68358,-4.58603 c 9.38192,-16.0329697 11.41329,-18.1215307 16.16005,-16.614969 1.36112,0.4320007 4.67116,4.9652401 7.35567,10.073865 2.6845,5.108626 5.74066,9.28841 6.79146,9.28841 1.05079,0 3.98735,-4.124019 6.5257,-9.164484 4.16508,-8.2707433 6.57406,-10.8355161 10.17734,-10.8355161 2.58302,0 15.91687,23.6730501 15.88727,28.2064101 -0.0567,8.682611 -6.65668,6.770732 -12.08663,-3.501246 -1.90845,-3.610283 -4.1033,-6.77528 -4.87745,-7.03333 -1.45068,-0.483561 -7.01551,6.407526 -7.01551,8.687515 0,3.163514 -5.69998,8.307317 -9.20556,8.307317 -2.94232,0 -4.4736,-1.267729 -7.65002,-6.333333 -2.18424,-3.483333 -4.67243,-7.983333 -5.5293,-10 -2.51956,-5.929823 -5.29814,-4.380159 -8.17622,4.560011 -0.86642,2.691338 -2.44462,5.614805 -3.5071,6.496593 -3.51373,2.916134 -2.09584,5.913477 4.40154,9.304577 3.48333,1.818017 8.73333,4.8665 11.66666,6.774408 2.93334,1.907908 5.93334,3.707908 6.66667,4 0.73333,0.292092 8.34544,5.181077 16.9158,10.86441 8.57036,5.683334 16.49925,10.333334 17.61976,10.333334 2.20661,0 4.79777,3.901609 4.79777,7.224211 0,1.136406 -4.95,7.4626 -11,14.058214 -10.98644,11.977229 -13.68598,13.511749 -18.66666,10.610779 z m 11.13562,-16.162519 c 7.1615,-5.755134 6.5269,-8.436086 -3.46896,-14.655103 -8.15133,-5.071429 -22.88334,-13.075582 -24.0662,-13.075582 -0.35921,0 4.17058,7.2 10.0662,15.999999 5.89563,8.8 11.04266,16 11.43784,16 0.39519,0 3.1092,-1.921192 6.03112,-4.269314 z M 9.1099164,99.960006 C -0.68245317,97.605869 6.9122403,72.031672 21.610416,57.86611 30.740781,49.066598 40.017409,45.947835 53.074077,47.288157 c 18.964959,1.946834 31.492346,11.672489 38.676714,30.026723 4.980234,12.723237 5.158489,14.782264 1.561541,18.037457 -2.357625,2.133623 -6.491841,2.564796 -33.666667,3.511233 -17.038449,0.59341 -34.71789,1.24186 -39.287649,1.44101 -4.569757,0.19915 -9.631402,0.0441 -11.2480996,-0.344574 z M 75.666667,86.127883 c 5.528553,-1.284026 5.651385,-4.414287 0.466472,-11.887651 -7.43204,-10.712298 -17.028007,-16.9069 -26.190234,-16.9069 -8.562753,0 -27.276238,13.057291 -27.276238,19.031932 0,1.362192 -0.675967,3.739768 -1.50215,5.283503 -1.18424,2.212772 -1.085704,3.111313 0.465587,4.245678 2.257505,1.650779 47.099912,1.844498 54.036563,0.233438 z"
       id="path799" />
  </g>
</svg>
