<?xml version="1.0" encoding="UTF-8" standalone="no"?>
<!-- Created with Inkscape (http://www.inkscape.org/) -->

<svg
   version="1.1"
   id="svg165"
   width="216"
   height="221.33333"
   viewBox="0 0 216 221.33333"
   xmlns="http://www.w3.org/2000/svg"
   xmlns:svg="http://www.w3.org/2000/svg">
  <defs
     id="defs169" />
  <g
     id="g171">
    <path
       style="fill:#000000;stroke-width:1.33333"
       d="m 182.66667,216.38741 c -3.87402,-1.42444 -7.00755,-5.14197 -11.56532,-13.72075 -6.99006,-13.15689 -11.35406,-20.3394 -15.85871,-26.1011 -5.76389,-7.37238 -12.57597,-18.89964 -12.57597,-21.28084 0,-1.10471 1.41482,-2.6532 3.14405,-3.44108 2.70867,-1.23415 4.65229,-0.53779 14.03541,5.02858 5.99026,3.5536 11.94931,7.06111 13.24235,7.79444 1.29304,0.73334 8.12956,5.08334 15.19228,9.66667 7.06271,4.58333 13.24621,8.33333 13.74111,8.33333 0.49489,0 2.64244,1.24086 4.7723,2.75746 6.98504,4.97378 4.55952,12.02498 -7.98377,23.20954 -8.90509,7.94047 -11.82364,9.34223 -16.14373,7.75375 z m 16.64837,-21.71325 c 0.84279,-1.9725 -5.14184,-7.97759 -7.98171,-8.009 -0.73333,-0.008 -5.23333,-2.70743 -10,-5.9985 -4.76666,-3.29106 -9.32905,-5.98741 -10.13864,-5.99188 -0.80957,-0.004 -3.05957,-1.47946 -5,-3.27778 -2.18506,-2.02506 -3.52802,-2.59474 -3.52802,-1.4966 0,0.9752 0.9,2.52001 2,3.43293 1.1,0.91292 2,2.26367 2,3.00165 0,0.738 1.95,3.59042 4.33333,6.3387 5.71215,6.58684 8.42188,10.19361 12.62625,16.80608 l 3.48416,5.47976 5.67664,-4.14643 c 3.12215,-2.28053 6.05975,-5.04305 6.52799,-6.13893 z M 9.0436536,208.37189 c -6.4044971,-1.54011 -3.7347697,-20.50377 4.7915384,-34.03535 6.195728,-9.83286 12.566713,-14.89334 21.620365,-17.17308 6.697868,-1.68654 21.271774,-0.96264 25.283091,1.25584 1.427077,0.78926 4.828373,1.79191 7.558437,2.22814 2.730064,0.43622 5.430064,1.60212 6,2.59088 0.569936,0.98877 2.20933,2.01768 3.643098,2.28646 3.12229,0.58532 8.447108,8.02991 14.070078,19.67126 3.145392,6.51197 4.025608,9.981 3.721454,14.66666 L 95.333333,206 84,207.76541 c -7.284992,1.1348 -12.76216,1.34232 -15.333333,0.58096 -3.690775,-1.09289 -13.961476,-1.06525 -45.333334,0.122 -6.6,0.24977 -13.030356,0.20636 -14.2896794,-0.0965 z M 80.495491,193.37117 c 2.08808,-2.08808 -0.378403,-5.49189 -6.307488,-8.70451 -3.569835,-1.93428 -5.33779,-4.04424 -6.437215,-7.6825 -0.83364,-2.75871 -2.216104,-5.59711 -3.07214,-6.30755 -0.856037,-0.71045 -6.180365,-1.97945 -11.831841,-2.82 l -10.27541,-1.52828 -7.619032,4.72375 c -6.826585,4.23242 -7.69703,5.28512 -8.368961,10.12118 -0.412461,2.96859 -1.762461,6.51628 -3,7.88375 -5.434651,6.00521 -3.242855,6.41387 32.275388,6.01753 14.532108,-0.16216 23.731533,-0.7982 24.636699,-1.70337 z m -10.70416,-47.03784 c -1.47043,-1.65 -4.425018,-5.84893 -6.565752,-9.33095 -4.448954,-7.23646 -6.649239,-7.88752 -9.020283,-2.66905 -7.216463,15.88283 -12.374372,17.45895 -20.580885,6.28899 -5.000014,-6.80556 -6.561152,-7.33338 -7.744539,-2.61839 -1.078201,4.29589 -7.961799,10.13676 -10.705568,9.08388 -1.694139,-0.65011 -1.893576,-1.95684 -1.05986,-6.94431 0.564828,-3.37893 0.945832,-7.77397 0.846673,-9.76676 -0.09916,-1.99279 0.394026,-3.9782 1.095964,-4.41202 0.701939,-0.43382 1.276252,-2.41985 1.276252,-4.4134 0,-4.96596 3.499959,-9.55132 7.290414,-9.55132 3.14147,0 10.013744,6.66513 10.072568,9.76896 0.01631,0.86041 1.202964,3.06437 2.637018,4.8977 1.434055,1.83334 2.620712,4.43334 2.637019,5.77778 0.0164,1.35256 0.774117,2.19817 1.696315,1.8931 1.73898,-0.57526 2.761912,-2.39383 7.883936,-14.01605 4.812377,-10.9196 9.305285,-10.87784 15.76198,0.14651 4.99974,8.5367 7.309705,11.54244 8.834408,11.49538 1.042944,-0.0322 4.604813,-6.17442 9.08579,-15.66791 0.788638,-1.67082 2.862738,-3.40565 4.609114,-3.85519 2.553568,-0.65731 4.037056,0.1985 7.577161,4.37119 2.421064,2.85369 4.788954,6.68853 5.261984,8.52186 C 102.01331,130.49686 108,136.0645 108,132.14 c 0,-2.76082 10.19787,-18.86929 12.39732,-19.58272 3.19765,-1.0372 4.84198,0.51077 12.21331,11.49755 3.43764,5.12372 6.81513,8.96674 7.50553,8.54004 0.6904,-0.42669 2.53328,-3.28509 4.09528,-6.352 C 148.46327,117.89458 153.35584,112 156.03317,112 c 2.40576,0 9.95707,9.51627 12.96075,16.33333 2.37248,5.38451 5.13927,4.48607 7.82261,-2.5402 C 179.69052,118.26771 184.73233,112 187.91188,112 c 2.42176,0 4.78713,2.35611 7.88017,7.84934 0.98562,1.75047 2.94687,5.23875 4.35834,7.75173 1.41145,2.51299 3.49862,5.99201 4.63816,7.73115 1.13953,1.73915 1.87828,4.85087 1.64166,6.91492 -0.33838,2.9518 -1.19825,3.8415 -4.02841,4.16815 -2.93857,0.33916 -4.16939,-0.51636 -6.71389,-4.66667 -1.71364,-2.79508 -3.85306,-6.77909 -4.75427,-8.85336 -2.02443,-4.65949 -3.98803,-4.12363 -7.5298,2.05487 -5.38572,9.39521 -9.32404,13.46917 -12.12248,12.54003 -1.43808,-0.47748 -5.29336,-4.8022 -8.56727,-9.6105 -3.27392,-4.8083 -6.38957,-9.01243 -6.92366,-9.34252 -0.53411,-0.33009 -2.13298,1.96401 -3.55304,5.09802 -3.36918,7.43552 -11.32626,15.9641 -13.95368,14.95588 -1.10011,-0.42216 -4.84998,-4.64918 -8.33305,-9.39338 -3.48307,-4.7442 -6.97277,-8.41251 -7.7549,-8.15181 -0.78212,0.26071 -3.59118,4.03205 -6.24235,8.38075 -3.96498,6.50374 -5.53349,7.97804 -8.83962,8.30858 -3.66239,0.36618 -4.65487,-0.51749 -11.176067,-9.95073 l -7.156748,-10.35261 -4.230432,9.18493 c -5.89096,12.7902 -9.753795,15.33325 -14.759212,9.71656 z M 201.43884,102.12712 c -0.85489,-1.03008 -2.69375,-5.857129 -4.08635,-10.726772 -5.8487,-20.451861 -16.33126,-38.66197 -31.62522,-54.938733 -3.56178,-3.790657 -8.61163,-4.012145 -14.23656,-0.624417 -4.86322,2.928972 -12.78739,4.780193 -29.76772,6.954249 -18.97754,2.429766 -32.261347,0.226024 -57.945953,-9.613043 -2.960216,-1.133979 -4.412858,-0.79802 -8.666666,2.004373 -5.416404,3.568308 -18.42354,7.483889 -24.860663,7.483889 -5.156112,0 -16.131677,-6.3116 -18.784257,-10.802057 C 8.7364131,27.244716 8.7276457,18.791424 11.447864,14.907768 12.610856,13.247364 16.060856,10.303313 19.114531,8.3654332 23.70154,5.4544894 26.289077,4.8272475 34,4.757063 c 9.249628,-0.084189 13.136025,1.1196672 22.245255,6.890725 3.418478,2.165742 3.955365,2.129036 12,-0.820416 C 83.739061,5.1467846 91.244468,4.1120745 113.94525,4.5270815 l 21.38808,0.3910088 10.97958,5.6906267 c 12.31246,6.381461 15.1218,6.418116 21.26249,0.277419 4.99649,-4.9964848 8.72315,-6.8861361 13.58043,-6.8861361 2.72581,0 4.24813,0.7886951 4.78456,2.4788301 1.19025,3.750153 -0.26978,6.2569 -6.72523,11.546658 -3.235,2.650841 -5.88183,5.583161 -5.88183,6.516268 0,0.933105 2.25,3.858288 5,6.500404 11.37042,10.924349 22.18752,26.795763 27.285,40.033967 4.13887,10.748686 7.02252,28.54513 5.01688,30.961763 -2.0641,2.4871 -7.16525,2.53659 -9.19637,0.0892 z M 120.77039,30.697797 C 144.75637,28.533584 148.43893,23.24872 129.07624,18.778041 121.11519,16.939905 93.004277,16.913102 86,18.736969 c -6.010999,1.565224 -11.333333,3.989793 -11.333333,5.162855 0,1.110942 6.816882,3.986194 14.291057,6.02774 7.900505,2.157996 14.627096,2.320857 31.812666,0.770233 z M 44.099619,27.74218 C 49.400051,25.39598 49.000075,23.077046 43,21.366938 32.424999,18.352912 26.779072,18.151641 23.975608,20.688741 c -4.190661,3.792496 -3.334701,6.854249 2.357725,8.433533 5.753411,1.596203 12.168091,1.097907 17.766286,-1.380094 z"
       id="path938" />
  </g>
</svg>
