<?xml version="1.0" encoding="UTF-8" standalone="no"?>
<!-- Created with Inkscape (http://www.inkscape.org/) -->

<svg
   version="1.1"
   id="svg75"
   width="149.33333"
   height="106.66667"
   viewBox="0 0 149.33333 106.66667"
   xmlns="http://www.w3.org/2000/svg"
   xmlns:svg="http://www.w3.org/2000/svg">
  <defs
     id="defs79" />
  <g
     id="g81">
    <path
       style="fill:#000000;stroke-width:1.33333"
       d="m 32.700249,100.57159 c -2.537975,-1.316719 -4.334412,-1.480955 -6.065456,-0.55453 -3.70717,1.98402 -14.160216,1.60038 -16.361063,-0.60047 C 7.7180862,96.860947 6.435656,79.442174 6.6677651,50.438114 6.7694596,37.730485 6.452018,25.204783 5.9623391,22.603222 5.3898208,19.561553 5.7804557,16.177569 7.0566893,13.123112 L 9.041365,8.3731145 28.187349,7.4666305 C 38.717639,6.9680642 61.278131,6.2858471 78.321774,5.9505926 95.365417,5.6153379 109.76542,5.2331838 110.32177,5.1013611 c 0.55636,-0.1318227 6.30858,0.2413269 12.78273,0.8292214 7.91968,0.7191593 12.8246,0.588921 14.99075,-0.3980434 5.29935,-2.414547 7.49123,2.5857196 7.95707,18.1522899 0.97284,32.508063 0.59233,69.864939 -0.73691,72.34867 -1.28043,2.392488 -2.89788,2.642068 -17.69566,2.730508 -8.95753,0.05353 -19.37783,0.538452 -23.15623,1.077592 -8.127693,1.159741 -11.824923,0.07775 -12.826894,-3.753796 -1.669305,-6.383434 2.371695,-7.219106 35.696704,-7.382024 l 8,-0.03911 -0.26045,-7.333333 c -0.14326,-4.033334 -0.26683,-19.38793 -0.2746,-34.121327 -0.0107,-20.295747 -0.43231,-27.125891 -1.73954,-28.182211 -1.19616,-0.966555 -12.97261,-0.987327 -38.392075,-0.06772 -46.744797,1.6911 -51.883222,1.771748 -63.999999,1.004481 l -10,-0.633225 -0.10992,30.666668 c -0.06045,16.866667 -0.534865,31.966173 -1.054236,33.554458 -0.525373,1.606637 -0.335542,3.264031 0.427888,3.735857 0.75471,0.466436 9.329116,1.054108 19.054236,1.305939 21.157001,0.547856 22.632907,0.983661 22.087154,6.521884 -0.347344,3.524743 -1.070695,4.238795 -5.071789,5.00658 -11.092275,2.12855 -19.738666,2.29438 -23.29975,0.44687 z"
       id="path1077" />
  </g>
</svg>
