<?xml version="1.0" encoding="UTF-8" standalone="no"?>
<!-- Created with Inkscape (http://www.inkscape.org/) -->

<svg
   version="1.1"
   id="svg215"
   width="238.66667"
   height="289.33334"
   viewBox="0 0 238.66667 289.33334"
   xmlns="http://www.w3.org/2000/svg"
   xmlns:svg="http://www.w3.org/2000/svg">
  <defs
     id="defs219" />
  <g
     id="g221">
    <path
       style="fill:#000000;stroke-width:1.33333"
       d="m 21.992064,283.49242 c -2.301293,-1.68275 -2.523677,-3.89903 -2.588172,-25.79373 -0.07709,-26.16943 0.485163,-28.36535 7.262775,-28.36535 6.733316,0 7.333333,2.26289 7.333333,27.65677 0,22.82111 -0.05748,23.29215 -3.147712,25.79442 -3.742646,3.03056 -5.492586,3.17036 -8.860224,0.70789 z m 99.602766,-1.77613 c -1.68951,-0.32299 -3.58957,-1.94898 -4.22235,-3.61332 -1.23142,-3.23887 0.31151,-47.43427 1.7365,-49.73995 1.05061,-1.69992 7.39474,-3.00852 9.90865,-2.04384 3.41794,1.31159 4.25364,6.89824 4.38679,29.32568 0.12706,21.40671 0.0157,22.39367 -2.78373,24.66048 -2.94618,2.38568 -3.48577,2.47003 -9.02586,1.41095 z m 95.02667,-4.71628 c -1.31612,-3.49203 0.22453,-43.04314 1.78834,-45.90971 2.38999,-4.38103 6.95783,-5.33887 9.64352,-2.02216 4.53228,5.59712 4.79743,43.22393 0.33603,47.68533 -2.35268,2.3527 -10.90657,2.53188 -11.76789,0.24654 z M 25.333334,218.87225 c -4.741051,-0.65582 -6.666667,-2.64677 -6.666667,-6.89286 0,-4.90633 2.50114,-5.65179 12.891807,-3.84233 6.386903,1.11222 10.040384,1.10888 14.188365,-0.0133 3.475334,-0.93997 15.663946,-1.40568 32.253162,-1.23236 14.666667,0.15326 42.266669,0.2063 61.333339,0.11787 40.30564,-0.18689 35.70078,-0.14016 61.8247,-0.62737 19.20904,-0.35826 20.60923,-0.2153 22.37442,2.28449 1.67822,2.37663 1.57246,2.92044 -0.97243,5 -1.57049,1.28333 -4.32329,2.33333 -6.11731,2.33333 -1.79402,0 -5.92381,0.6703 -9.1773,1.48953 -4.83487,1.21744 -7.13899,1.08933 -12.61343,-0.70127 -5.55303,-1.81631 -7.20687,-1.89999 -9.67499,-0.48952 -3.13462,1.79135 -10.75158,1.98201 -106.976999,2.67785 -27.133334,0.19622 -50.833334,0.14926 -52.666667,-0.1044 z M 7.0000001,198.97591 c -5.5269415,-0.9114 -3.9250679,-7.71581 4.3103069,-18.30924 3.990675,-5.13333 9.824815,-14.13333 12.964756,-20 L 29.984047,150 30.321572,132 c 0.185639,-9.9 0.446242,-41.099998 0.579116,-69.333332 0.21133,-44.903444 0.504072,-51.536786 2.337119,-52.9575966 2.32266,-1.8003152 10.247068,-2.287918 11.23387,-0.6912399 0.754422,1.2206825 0.922529,13.5316305 0.986578,72.2499145 0.02676,24.530594 0.342444,45.076444 0.701526,45.657454 0.359081,0.58101 0.644364,6.41055 0.633961,12.95452 -0.01553,9.77422 0.442701,12.48502 2.567012,15.18564 1.42226,1.80811 3.171456,4.82752 3.887104,6.70983 1.636072,4.30319 14.818264,24.89148 15.937424,24.89148 0.456732,0 1.667735,1.89163 2.691118,4.2036 1.682842,3.80181 1.625873,4.37531 -0.596024,6 -4.352774,3.18283 -8.028164,2.06319 -13.806913,-4.20601 -3.043057,-3.30134 -6.247692,-7.65134 -7.121409,-9.66667 -0.873719,-2.01533 -3.976107,-5.92895 -6.894199,-8.69689 l -5.30562,-5.03266 -2.742784,3.33588 c -1.508531,1.83474 -4.416003,5.29943 -6.461048,7.69931 -2.045045,2.39989 -5.483216,6.89192 -7.64038,9.98227 -4.319335,6.18789 -9.692587,9.4515 -14.3080229,8.69041 z M 167.51722,196.66506 c -0.48352,-1.26004 2.30406,-5.4212 7.52401,-11.23144 8.24909,-9.18194 10.07447,-12.04435 15.79395,-24.76695 3.34597,-7.44288 3.6147,-9.97235 5.17041,-48.66667 0.60443,-15.033331 1.14364,-27.933331 1.19827,-28.666665 0.0547,-0.733333 -0.45818,-9.96984 -1.13958,-20.52557 -0.68138,-10.555729 -1.08034,-27.35573 -0.88658,-37.333334 L 195.53,7.3333335 199.30892,6.8911171 c 2.0784,-0.2432191 5.78415,-0.066031 8.23499,0.3937508 C 211.1238,7.9564591 212,8.7489143 212,11.315062 c 0,1.756824 -0.57437,3.549213 -1.2764,3.983085 -0.79221,0.489619 -1.05253,18.687864 -0.68625,47.974402 0.48139,38.489761 0.98112,48.337121 2.71165,53.434301 1.67534,4.93459 1.80376,7.01587 0.61063,9.89636 -1.49695,3.61392 -1.91504,14.42599 -1.06405,27.51647 0.32654,5.02319 1.3847,7.9077 4.0728,11.10231 1.99738,2.37377 3.63162,5.06377 3.63162,5.97777 0,0.914 2.95811,4.61796 6.57356,8.23103 7.98343,7.97816 9.8665,13.33245 5.28496,15.02728 -1.70081,0.62917 -4.28493,0.83209 -5.74246,0.45095 -2.51907,-0.65875 -13.79739,-11.33492 -20.62259,-19.52154 l -3.1732,-3.80614 -4.8268,5.81654 c -6.39644,7.70804 -14.69391,16.05151 -18.82233,18.92667 -4.10267,2.85723 -10.11771,3.04085 -11.15392,0.34051 z m 35.81612,-43.33172 C 203.78656,152.6 203.52198,152 202.74536,152 c -0.77661,0 -1.41202,0.6 -1.41202,1.33334 0,0.73333 0.26458,1.33333 0.58797,1.33333 0.32339,0 0.9588,-0.6 1.41203,-1.33333 z m -95.38538,10.96108 c -4.90535,-2.29746 -12.344188,-9.35467 -14.757835,-14.00074 -2.83466,-5.45648 -5.709636,-28.64357 -3.838786,-30.96034 0.592185,-0.73334 1.512725,-3.73334 2.045644,-6.66667 1.27519,-7.019 7.450694,-19.174844 11.802707,-23.23242 1.90684,-1.777831 3.46698,-3.923241 3.46698,-4.767581 0,-2.156266 -5.32703,-6.90077 -9.539819,-8.496622 -4.597502,-1.741583 -12.131344,-15.897868 -10.249899,-19.259824 2.292363,-4.096224 8.075396,-2.598791 17.569318,4.549324 4.96216,3.736083 9.73605,7.936083 10.60865,9.333333 1.65001,2.642095 6.27842,3.534422 6.27842,1.21044 0,-2.069828 21.63336,-18.669985 24.33076,-18.669985 1.37908,0 2.98128,1.523874 3.76245,3.578497 2.05613,5.40806 -0.68917,10.381888 -9.97601,18.074071 -4.46446,3.697865 -8.30251,7.194722 -8.529,7.770792 -0.22648,0.576072 1.78267,4.169488 4.4648,7.985371 5.04765,7.181355 8.165,15.018774 11.271,28.336764 2.69136,11.5401 -0.67972,24.52715 -9.45488,36.42477 -5.35984,7.26704 -7.4306,8.19755 -20.53579,9.2278 -3.66667,0.28827 -7.59009,0.0916 -8.71871,-0.43698 z m 15.66493,-13.58043 c 6.71432,-4.09393 9.60315,-11.22081 9.82727,-24.24441 0.19268,-11.1961 -1.56422,-17.36621 -5.99104,-21.04015 -1.00589,-0.83481 -2.55797,-3.278 -3.44906,-5.4293 -1.88536,-4.551645 -6.17291,-6.42344 -8.71311,-3.803833 -2.7849,2.871957 -9.55689,16.012003 -11.01849,21.379733 -0.90169,3.31145 -0.88371,8.45844 0.0552,15.81343 1.24199,9.72876 1.87921,11.39122 5.91194,15.42396 5.20415,5.20416 7.43851,5.5216 13.37724,1.90057 z"
       id="path243" />
  </g>
</svg>
