<?xml version="1.0" encoding="UTF-8" standalone="no"?>
<!-- Created with Inkscape (http://www.inkscape.org/) -->

<svg
   version="1.1"
   id="svg205"
   width="217.33333"
   height="202.66667"
   viewBox="0 0 217.33333 202.66667"
   xmlns="http://www.w3.org/2000/svg"
   xmlns:svg="http://www.w3.org/2000/svg">
  <defs
     id="defs209" />
  <g
     id="g211">
    <path
       style="fill:#000000;stroke-width:1.33333"
       d="m 184.2234,198.32363 c -2.94919,-1.41859 -3.0633,-1.96036 -2.20751,-10.48188 0.49633,-4.94229 1.30317,-25.28229 1.79299,-45.2 0.82772,-33.65901 1.072,-36.34668 3.46234,-38.09454 3.86315,-2.82481 8.39776,-2.2919 10.72535,1.26043 1.73339,2.64548 1.85717,5.11695 0.78476,15.66667 -0.70031,6.88913 -1.65495,26.61523 -2.1214,43.83577 -0.50523,18.65162 -1.41513,31.99332 -2.25061,33 -1.6934,2.04043 -5.9603,2.0461 -10.18592,0.0136 z M 37.591855,193.17666 c -4.04128,-1.50631 -2.457402,-4.42088 4.52681,-8.33003 7.722286,-4.32225 7.561418,-7.63487 -0.75813,-15.61157 -5.848513,-5.60751 -7.622293,-6.56839 -12.125211,-6.56839 -4.490652,0 -5.655374,-0.62627 -7.83722,-4.21403 -1.409484,-2.3177 -3.262544,-8.36317 -4.117911,-13.43436 -1.483141,-8.79305 -1.417585,-9.36682 1.414663,-12.38162 1.63343,-1.7387 4.225285,-3.34324 5.759677,-3.56564 1.854604,-0.2688 3.211057,-1.87949 4.046449,-4.80486 1.876552,-6.5713 12.755872,-15.75975 20.527013,-17.33669 6.760643,-1.37189 15.864067,-0.72215 17.063051,1.21785 0.403149,0.65231 1.868764,1.18602 3.256921,1.18602 2.408256,0 7.714586,6.66916 11.883865,14.93602 1.052532,2.08696 3.33908,3.937 5.434833,4.39731 4.47972,0.98391 6.233646,4.46029 7.243975,14.35795 0.626857,6.141 0.248513,8.74309 -1.877048,12.90953 -3.181013,6.23531 -4.481635,7.16351 -9.824859,7.01159 -2.240498,-0.0637 -5.763682,0.8825 -7.829295,2.10269 -4.44795,2.62747 -10.379439,11.12863 -10.379439,14.87608 0,2.68127 3.986389,5.69637 7.015085,5.30584 4.724346,-0.60919 6.318248,0.24587 6.318248,3.38941 0,1.80754 -1.050905,3.84884 -2.335344,4.53626 -2.914097,1.55957 -33.232435,1.5763 -37.406133,0.0207 z m 25.321369,-26.46152 c 4.813703,-2.12934 6.448443,-3.8098 8.755044,-9 3.555628,-8.00068 5.374035,-17.8651 2.835486,-15.3818 C 73.566688,143.25 70.205148,144 67.033664,144 c -5.023137,0 -5.940942,-0.45925 -7.121085,-3.56326 -2.276393,-5.98738 -0.746268,-7.52279 6.776511,-6.79995 5.915688,0.56843 6.644242,0.35349 6.644242,-1.96012 0,-7.77547 -10.028094,-16.12111 -19.371065,-16.12111 -8.643274,0 -16.926854,7.56932 -18.715076,17.10136 l -0.954856,5.08982 3.150507,-2.2067 c 4.855296,-3.40078 11.196335,-2.84313 14.431033,1.26912 2.098179,2.66742 2.419891,4.06292 1.383195,6 -1.093684,2.04358 -2.865161,2.52418 -9.303983,2.52418 -6.710904,0 -7.953088,0.36752 -7.953088,2.35308 0,3.45561 4.994507,12.34433 9.728374,17.31358 4.852318,5.09359 8.682987,5.47591 17.184851,1.71514 z m -14.493305,-7.39735 c -3.522456,-2.57568 -1.575833,-6.57003 3.595218,-7.37716 6.838494,-1.0674 12.226667,1.02299 11.723866,4.54836 -0.332105,2.32855 -1.572627,2.9784 -6.840763,3.5836 -3.832683,0.44028 -7.261391,0.13504 -8.478321,-0.7548 z M 30.666666,152.8295 c 0,-2.65488 -3.722254,-11.16712 -5.313132,-12.15035 -1.508398,-0.93224 -1.953306,11.60997 -0.464645,13.09863 1.61008,1.61008 5.777777,0.92606 5.777777,-0.94828 z m 55.671598,-6.26646 c 0.330283,-5.7572 0.292059,-5.81769 -1.619419,-2.56304 -2.442505,4.15883 -2.682349,9.76279 -0.385513,9.00748 0.923972,-0.30384 1.817404,-3.17558 2.004932,-6.44444 z M 85.333332,60.031836 C 67.227664,57.179597 56.191708,53.960158 45.690315,48.46707 32.205258,41.413281 29.09173,39.423055 23.781456,34.462517 c -2.23491,-2.087718 -4.492351,-3.79585 -5.016539,-3.79585 -1.603512,0 -14.7649171,-17.105281 -14.7649171,-19.189293 0,-1.07446 0.9816164,-2.9351808 2.1813699,-4.1349343 C 8.1738236,5.349986 15.766138,5.2357789 93.848035,6.0237178 c 47.016905,0.4744564 87.285295,0.8926714 89.485295,0.9293666 2.2,0.036695 8.13195,-0.065544 13.18212,-0.2271994 10.71036,-0.3428365 12.22576,0.9191399 9.35477,7.790373 -1.85849,4.447978 -1.80022,4.779848 1.29976,7.403564 4.32875,3.663693 5.83332,6.951333 6.91586,15.111903 1.1074,8.347988 0.116,12.721976 -3.68674,16.264707 -6.10706,5.6896 -17.46334,1.71178 -22.32626,-7.820329 -1.48578,-2.912345 -3.21051,-5.609818 -3.83275,-5.994385 -1.28175,-0.79216 -10.68045,3.591325 -17.3742,8.103189 -2.45709,1.656183 -6.65709,3.405343 -9.33333,3.887022 -2.67624,0.481679 -5.4659,1.3267 -6.19923,1.877827 -1.38208,1.038677 -15.53375,4.672392 -26,6.676004 -7.06957,1.353365 -31.424086,1.357065 -39.999998,0.0061 z M 135.33333,48.166834 c 4.4,-1.522361 8.77899,-2.782684 9.73108,-2.800716 3.27188,-0.06196 17.20419,-7.613416 29.68941,-16.091971 8.57502,-5.823183 11.91284,-8.845231 11.91284,-10.785815 0,-0.84394 -14.32874,-1.307564 -39.66666,-1.283466 -21.81667,0.02075 -52.866668,0.03028 -69.000001,0.02119 C 24.045449,17.195612 24,17.197159 24,19.05573 c 0,2.421052 10.29431,12.123111 16.666666,15.707801 13.715998,7.715767 25.966985,12.91291 32.666666,13.857932 4.033333,0.56892 10.633333,1.511264 14.666667,2.094097 13.146861,1.899772 38.407361,0.53959 47.333331,-2.548719 z m 68.4,-4.4335 c 2.72613,-2.726128 1.78063,-6.753353 -2.66156,-11.336524 C 198.72792,29.978564 196.32792,28 195.73844,28 c -2.2912,0 -1.02179,10.370594 1.69166,13.820189 3.09855,3.939165 4.00276,4.21361 6.30323,1.913145 z"
       id="path382" />
  </g>
</svg>
