<?xml version="1.0" encoding="UTF-8" standalone="no"?>
<!-- Created with Inkscape (http://www.inkscape.org/) -->

<svg
   version="1.1"
   id="svg195"
   width="222.66667"
   height="208"
   viewBox="0 0 222.66667 208"
   xmlns="http://www.w3.org/2000/svg"
   xmlns:svg="http://www.w3.org/2000/svg">
  <defs
     id="defs199" />
  <g
     id="g201">
    <path
       style="fill:#000000;stroke-width:1.33333"
       d="m 5.9815722,202.63685 c -1.3817876,-2.23578 -2.1819663,-45.68496 -0.8782551,-47.68869 0.6149739,-0.94517 2.8324568,-1.84517 4.9277399,-2 6.41881,-0.47429 7.343565,3.29372 6.96635,28.38517 l -0.33074,22 -4.876131,0.40644 C 9.1086639,203.96331 6.4946302,203.467 5.9815722,202.63685 Z m 98.6771578,-0.47777 c -2.30129,-1.68275 -2.52368,-3.89903 -2.58817,-25.79373 C 101.99347,150.19592 102.55572,148 109.33333,148 c 6.73332,0 7.33334,2.26289 7.33334,27.65677 0,22.82111 -0.0575,23.29215 -3.14771,25.79442 -3.74265,3.03056 -5.49259,3.17036 -8.86023,0.70789 z m 96.03733,-3.97272 c -2.20032,-1.60891 -2.31135,-2.47435 -0.98358,-7.66667 0.8232,-3.21916 1.40894,-12.75302 1.30162,-21.18636 C 200.76936,150.10001 201.39723,148 207.39244,148 c 7.72828,0 8.65255,2.96664 8.27064,26.54641 -0.31738,19.59556 -0.44774,20.45428 -3.47745,22.90619 -3.69845,2.99311 -8.02212,3.26923 -11.48957,0.73376 z M 38.000001,135.14416 c -12.872063,-3.39552 -21.766198,-8.39125 -24.700447,-13.87394 -1.138693,-2.12767 -0.768652,-3.25567 1.964716,-5.98903 3.137009,-3.13701 3.620154,-3.23706 7.054832,-1.46092 2.027956,1.04869 4.873596,3.21768 6.323642,4.81996 3.766971,4.16246 10.711035,6.71404 17.853422,6.5602 7.902667,-0.17022 12.481235,-1.46596 13.241726,-3.74744 0.480132,-1.44039 -0.716543,-1.60903 -5.901149,-0.83162 -3.576874,0.53633 -7.477889,1.49663 -8.66892,2.13399 -1.524457,0.81578 -2.892834,0.35515 -4.622444,-1.55605 -3.862912,-4.26847 -0.413582,-9.09669 8.121288,-11.36783 6.436358,-1.71272 15.915789,-1.29022 18.666667,0.83198 0.733334,0.56573 3.133334,1.39428 5.333334,1.84121 6.820192,1.38552 104.653672,2.26278 107.087492,0.96023 1.90743,-1.02082 2.32194,-3.78011 2.62922,-17.502173 0.20062,-8.959662 0.96756,-17.416591 1.70428,-18.793176 1.14765,-2.144411 2.94928,-2.502884 12.57901,-2.502884 9.35432,0 11.44252,0.391368 12.44988,2.333333 0.66569,1.283333 1.50868,12.104032 1.87329,24.046 0.59696,19.55193 0.43271,21.87394 -1.65056,23.33333 -1.74893,1.22518 -18.37748,1.57518 -68.14184,1.43425 l -65.828348,-0.18642 -3.725951,3.13518 c -2.049273,1.72435 -5.95732,3.80186 -8.684547,4.61669 -5.733568,1.71304 -21.049751,2.79624 -24.958593,1.76513 z M 201.03074,99.855436 c 0.38,-14.763292 -0.80659,-18.464063 -5.07546,-15.829523 -1.42077,0.876838 -2.16918,4.956426 -2.73777,14.92373 -0.43036,7.544367 -0.52371,14.201407 -0.20741,14.793437 0.31629,0.59203 2.16841,0.89203 4.11582,0.66667 L 200.66667,114 Z M 32.761166,63.922071 C 28.41314,61.764932 24.21314,59.981145 23.427832,59.9581 21.090955,59.889524 17,53.317677 17,49.632216 c 0,-3.474073 3.342323,-6.965549 6.667987,-6.965549 1.003736,0 4.997032,3 8.873992,6.666666 C 37.934814,54.433652 40.578854,56 43.795498,56 h 4.204503 l -2.666667,-2.666667 c -1.466667,-1.466666 -2.666667,-3.523809 -2.666667,-4.571428 0,-2.088568 3.511384,-6.095238 5.341772,-6.095238 0.633212,0 2.840356,-0.674295 4.904762,-1.498432 5.582481,-2.228599 17.705444,-1.40145 22.766875,1.553385 3.652777,2.132469 5.389324,2.33988 10.877087,1.299147 3.943812,-0.747928 8.20273,-0.75882 10.752698,-0.02749 5.164119,1.481051 85.765719,2.068767 88.073959,0.642202 1.25048,-0.772839 1.42906,-5.01705 0.73601,-17.490924 -0.90848,-16.351042 -0.89092,-16.49468 2.42192,-19.8075179 C 191.41078,4.4680133 193.08206,4 200.45835,4 c 14.24955,0 14.49229,0.4366261 15.03003,27.033231 0.56358,27.875785 1.40412,26.654262 -18.0328,26.206449 -7.76723,-0.178953 -37.48615,-0.164225 -66.04202,0.03272 l -51.919783,0.358095 -4.746888,3.132894 c -12.720432,8.395347 -28.966828,9.617598 -41.985723,3.158676 z m 27.047852,-7.775822 c 2.706344,-1.714824 0.177759,-2.522905 -5.623715,-1.797218 -3.55381,0.444533 -4.586062,1.000001 -3.333333,1.793709 2.324377,1.472684 6.635724,1.474373 8.957048,0.0035 z M 205.04182,32.422657 c 0.30788,-12.058733 -0.001,-15.005654 -1.72318,-16.43485 -3.41482,-2.834051 -4.49465,-0.126774 -5.46704,13.706518 -0.80788,11.492976 -0.63241,13.3029 1.52023,15.68155 4.28085,4.730286 5.27657,2.455542 5.66999,-12.953218 z"
       id="path521" />
  </g>
</svg>
