<?xml version="1.0" encoding="UTF-8" standalone="no"?>
<!-- Created with Inkscape (http://www.inkscape.org/) -->

<svg
   version="1.1"
   id="svg185"
   width="208"
   height="202.66667"
   viewBox="0 0 208 202.66667"
   xmlns="http://www.w3.org/2000/svg"
   xmlns:svg="http://www.w3.org/2000/svg">
  <defs
     id="defs189" />
  <g
     id="g191">
    <path
       style="fill:#000000;stroke-width:1.33333"
       d="m 55.728263,196.07007 c -19.756044,-0.74241 -23.56714,-1.75883 -21.991415,-5.86509 0.508376,-1.32482 3.719053,-2.29143 9.759943,-2.93835 16.317285,-1.74744 16.683084,-2.08856 7.492457,-6.98712 C 46.573195,177.92579 41.605649,176 39.950257,176 38.294867,176 33.578853,174.87463 29.470228,173.49919 25.361603,172.12374 19.6,170.25352 16.666667,169.34314 9.1461279,167.0091 4,161.84159 4,156.62387 c 0,-6.43683 3.3441464,-8.51393 14.758507,-9.16673 5.449488,-0.31166 12.30816,-1.27836 15.241493,-2.14823 11.017003,-3.26703 15.088451,-3.17285 20.385704,0.47153 7.966013,5.48044 11.267581,6.26422 19.884241,4.72038 4.251531,-0.76174 9.572654,-1.93604 11.824719,-2.60956 5.90954,-1.76736 8.173308,-1.52008 9.139728,0.99837 0.650156,1.69428 1.223153,1.85283 2.409319,0.66667 1.904972,-1.90498 8.556729,-2.05603 9.691409,-0.22007 0.47445,0.76767 3.05143,0.98033 6.0565,0.4998 4.01923,-0.64271 5.41278,-0.36187 6.01693,1.21253 0.70284,1.83158 1.18264,1.82146 4.5226,-0.0955 3.45132,-1.98079 3.99972,-1.97179 7.18902,0.11786 2.39735,1.5708 6.24191,2.26228 12.57808,2.26228 5.95951,0 10.02332,0.67915 11.71358,1.9576 1.42349,1.07667 4.21969,1.97667 6.21378,2 4.50434,0.0527 13.81731,4.79628 16.25824,8.2812 1.00375,1.43304 6.04879,4.65458 11.2112,7.15895 12.94796,6.28131 17.28082,13.16669 10.57162,16.79949 -2.8918,1.5658 -21.13667,2.11736 -38.74286,1.17123 -4.58072,-0.24616 -8.36517,0.20623 -9.26666,1.10772 -0.8381,0.83809 -3.4684,1.52381 -5.84512,1.52381 -2.37672,0 -4.69214,0.6 -5.14536,1.33334 -0.49476,0.80054 -9.49806,1.33333 -22.53134,1.33333 H 96.42804 l -1.518768,-3.33333 c -1.985627,-4.35798 -8.944052,-4.75804 -10.266847,-0.5903 -0.786913,2.47935 -6.118246,5.65031 -8.395892,4.9937 -0.50226,-0.14479 -9.735481,-0.59479 -20.51827,-1 z M 170.44901,179.25439 c 0.24696,-0.20605 -1.167,-1.43351 -3.14213,-2.72767 -5.25093,-3.44054 -24.71649,-4.32373 -29.28731,-1.32882 -4.15137,2.72009 -4.26934,4.44794 -0.3529,5.16884 3.03804,0.55921 31.95493,-0.42198 32.78234,-1.11235 z m -67.73198,-1.90637 c 4.73449,-0.012 7.05435,-0.86298 10.66667,-3.91514 4.52929,-3.82694 4.56604,-3.93977 1.94963,-5.98624 -2.06676,-1.61654 -4.61636,-1.91206 -11.33333,-1.31362 -6.510016,0.58 -9.662044,0.24682 -12.666667,-1.3389 -4.273744,-2.25549 -7.171941,-2.61734 -10.557617,-1.31813 -2.897829,1.112 -2.644081,2.73975 0.557617,3.57701 2.794583,0.7308 3.618844,4.20115 1.333334,5.61367 -2.383176,1.47288 -1.408428,4.46529 1.666666,5.11656 1.65,0.34944 5.1,0.39777 7.666667,0.10733 2.566667,-0.29037 7.389331,-0.53454 10.71703,-0.54261 z m -38.050363,-8.01468 c 2.611277,-1.46667 6.529526,-2.66667 8.707221,-2.66667 2.177695,0 3.959445,-0.55665 3.959445,-1.237 0,-0.70005 -3.137408,-0.91319 -7.227905,-0.49101 -6.827567,0.70468 -7.555217,0.47778 -13.137323,-4.09634 C 50.023412,155.15167 48,154.80063 48,159.28643 c 0,2.04079 -1.137068,3.89847 -3,4.90121 -2.88328,1.55198 -2.740623,1.73218 3.666667,4.63175 8.332749,3.77093 10.100138,3.82771 16,0.51395 z M 33.690156,161.2205 c -0.96762,-3.70019 -3.821239,-4.62442 -7.763673,-2.51448 -4.28102,2.29113 -1.94864,5.29398 4.11195,5.29398 3.781396,0 4.279447,-0.37909 3.651723,-2.7795 z M 58,57.201669 C 55.8,56.50686 52.072893,56.275137 49.71754,56.68673 46.4439,57.258792 44.752567,56.75257 42.537799,54.5378 39.889379,51.88938 39.834068,51.5322 41.893872,50.379475 43.133217,49.685903 46.3641,49.250654 49.073613,49.412254 51.783125,49.573855 55.8,49.597231 58,49.464201 l 4,-0.241872 -5.092572,-4.499156 C 51.659677,40.086921 34.231744,33.333334 27.515436,33.333334 c -1.938805,0 -5.764041,-1.2 -8.500523,-2.666667 C 16.278431,29.2 13.271786,28 12.333481,28 10.583961,28 5.3472615,20.455067 5.3383175,17.921507 5.3204224,12.852431 13.254975,9.8126256 35.333333,6.4301185 49.685215,4.2313435 51.279316,4.4924953 60.241932,10.510742 c 8.066839,5.416748 8.494587,5.539614 16.354116,4.697538 5.84794,-0.626553 9.008724,-1.738217 11.476911,-4.036486 4.357454,-4.0574759 6.332584,-4.0097688 7.383734,0.178346 l 0.840831,3.350139 4.717616,-2.91565 4.71762,-2.9156495 2.2132,2.7331765 c 1.93798,2.393312 2.52513,2.505082 4.72179,0.898843 3.54003,-2.5885366 6.13258,-2.27787 6.94592,0.832335 0.8232,3.147946 1.52196,3.235634 4.9745,0.624262 3.31151,-2.5047 8.61172,-2.523451 9.56707,-0.03384 0.56251,1.465867 2.2792,1.741243 7.21252,1.156964 4.43368,-0.525104 8.18871,-0.08081 11.91359,1.409583 2.99161,1.196997 7.24597,2.176364 9.45414,2.176364 2.33879,0 4.33527,0.834939 4.78234,2 0.42212,1.1 2.20725,2 3.96697,2 1.75973,0 4.50373,1.5 6.0978,3.333333 1.71939,1.977472 4.32605,3.333334 6.40839,3.333334 2.1053,0 4.94398,1.496657 7.09289,3.739625 6.18729,6.458139 3.95599,15.821007 -3.31709,13.919052 -1.38663,-0.36261 -3.58775,0.305978 -4.89139,1.485751 -1.73151,1.566995 -6.1212,2.332487 -16.28948,2.840627 -16.81052,0.840069 -22.60896,1.778884 -25.261,4.08996 -1.30009,1.132933 -6.23767,1.812083 -14.00001,1.925664 C 104.43229,57.668982 104.43584,57.669501 100,53.333334 94.510401,47.967082 89.667208,47.977653 87.790917,53.359988 86.413375,57.311609 86.234549,57.379929 78.193609,57.026654 73.687124,56.82866 68.2,57.071284 66,57.565813 c -2.2,0.494531 -5.8,0.330665 -8,-0.364144 z m 55.33333,-7.868335 c 1.5585,-1.00718 1.19059,-1.297007 -1.66666,-1.312916 C 109.65,48.009189 108,48.600001 108,49.333334 c 0,1.685879 2.72462,1.685879 5.33333,0 z m 52,-8.383227 11.33334,0.07288 L 170,37.988801 c -8.35365,-3.801986 -17.61113,-5.9888 -25.35247,-5.9888 -5.13896,0 -5.98086,0.384437 -5.98086,2.731032 0,1.813526 -1.45582,3.351338 -4.33334,4.57743 -4.31589,1.838966 -4.29576,1.848308 5,2.321035 5.13334,0.261051 10.53334,0.198584 12,-0.138815 1.46667,-0.337398 7.76667,-0.580657 14,-0.540576 z M 104,39.580031 c 8.5428,-0.287384 9.81256,-0.926105 12.48311,-6.279345 1.84599,-3.700379 1.79961,-4.079011 -0.66092,-5.395844 -1.45541,-0.778916 -8.61081,-1.67919 -15.900867,-2.000607 L 86.666667,25.319838 v 3.843488 c 0,4.662463 -2.538031,6.967689 -9.069872,8.237924 l -4.930128,0.958753 4.254644,0.153332 c 2.340054,0.08433 4.658404,0.806631 5.151889,1.605107 0.577167,0.933875 3.340205,1.140792 7.745356,0.580029 C 93.585017,40.219013 99.966667,39.715714 104,39.580031 Z M 68.666667,30.666667 C 71.543448,29.2 74.770313,28 75.837479,28 c 1.067164,0 1.537902,-0.402396 1.046085,-0.894213 -0.491817,-0.491817 -4.240083,-0.941817 -8.329479,-1 -6.514012,-0.09268 -7.766164,-0.560099 -10.105884,-3.772453 -2.848442,-3.910812 -8.671472,-5.242316 -7.300384,-1.669319 0.469063,1.222357 -0.513332,2.835897 -2.531882,4.158501 -2.788536,1.82712 -3.923247,1.902308 -7.341426,0.486452 C 39.050812,24.387882 36.633241,22.516556 35.902132,21.150467 34.495616,18.522366 28.725369,17.747639 27.333333,20 c -0.453225,0.733334 -2.138634,1.356819 -3.745356,1.385523 -4.529566,0.08092 5.126252,3.947811 9.85788,3.947811 2.093502,0 5.942866,1.2 8.554143,2.666666 2.611277,1.466667 6.079527,2.675855 7.707221,2.687085 1.627695,0.01123 3.859446,0.602041 4.959446,1.312916 3.166593,2.046409 8.33661,1.554026 14,-1.333334 z"
       id="path740" />
  </g>
</svg>
