<?xml version="1.0" encoding="UTF-8" standalone="no"?>
<!-- Created with Inkscape (http://www.inkscape.org/) -->

<svg
   version="1.1"
   id="svg175"
   width="950.66669"
   height="302.66666"
   viewBox="0 0 950.66669 302.66666"
   xmlns="http://www.w3.org/2000/svg"
   xmlns:svg="http://www.w3.org/2000/svg">
  <defs
     id="defs179" />
  <g
     id="g181">
    <path
       style="fill:#000000;stroke-width:1.33333"
       d="M 142.07979,291.22263 C 140.93591,290.07875 140,287.97187 140,286.54069 c 0,-2.44968 -0.19,-2.47768 -3.2422,-0.4778 -2.57948,1.69013 -5.78182,1.99849 -15.66666,1.50853 -13.22005,-0.65527 -29.353739,-2.9968 -33.757805,-4.89937 -1.466666,-0.6336 -6.566666,-2.81447 -11.333333,-4.84636 -11.658708,-4.96979 -25.453787,-14.10028 -30.885645,-20.44218 -2.446229,-2.85605 -6.388725,-7.48573 -8.761103,-10.28817 -5.688329,-6.71951 -14.381156,-21.42162 -15.578227,-26.34736 -0.523783,-2.15526 -2.027129,-5.45526 -3.340772,-7.33333 -3.292699,-4.70744 -4.407216,-10.16427 -9.5479337,-46.74799 -1.9471393,-13.85674 -0.3951794,-40.45819 3.3837887,-58 1.59739,-7.41502 3.853004,-14.658343 4.96173,-15.933329 0.605822,-0.696666 1.101494,-2.36463 1.101494,-3.706586 0,-3.253743 10.663548,-23.494909 16.926476,-32.129233 6.628578,-9.138424 19.062799,-22.230846 21.113226,-22.230846 0.898579,0 2.358748,-0.873535 3.244821,-1.941187 2.363566,-2.847922 22.636497,-12.372023 31.620823,-14.855273 21.80035,-6.025572 42.4582,-7.649515 46.45576,-3.651953 2.44658,2.446573 1.83152,9.553948 -0.97697,11.289696 -0.86664,0.535613 -5.80761,0.940284 -10.97992,0.899265 -6.20571,-0.04921 -12.29757,0.889196 -17.91124,2.759104 -4.67887,1.558524 -10.80722,2.833681 -13.618558,2.833681 -10.943197,0 -36.368527,16.79496 -47.307448,31.249414 -4.31118,5.696701 -13.900303,23.111613 -13.900303,25.244494 0,0.686314 -1.8,5.05755 -4,9.713858 -2.339699,4.951985 -4,10.651275 -4,13.730735 0,2.8956 -0.874027,8.62034 -1.942283,12.72165 -2.29216,8.80019 -1.870852,48.66099 0.641285,60.67318 3.793563,18.13952 10.214954,34.80931 16.786626,43.5777 1.749572,2.3344 3.181039,4.59728 3.181039,5.02862 0,1.69006 13.668319,18.06356 15.121708,18.11453 0.849728,0.0299 3.622295,1.8298 6.16126,4 2.538966,2.1702 5.688966,3.94581 7,3.94581 1.311035,0 3.453596,1.0699 4.761249,2.37755 6.76318,6.76319 24.575485,11.18636 53.371195,13.25323 7.00754,0.50297 8.63516,1.08628 9.72898,3.48662 l 1.31356,2.8826 108.93769,0.32094 c 273.27233,0.80506 523.37958,0.0107 537.15048,-1.70476 6.00596,-0.74843 7.26055,-0.47619 9.88091,2.14417 l 3.00147,3.00147 -2.77038,2.24332 c -2.10908,1.70782 -6.8547,2.4644 -19.8809,3.16956 -9.4108,0.50944 -155.52463,1.19658 -324.69743,1.52698 -277.39282,0.54178 -307.79106,0.39658 -309.66667,-1.47904 z m 665.5417,-2.45832 c -4.25422,-4.2542 -1.62888,-10.09765 4.53662,-10.09765 2.23535,0 8.66424,-1.12115 14.28643,-2.49143 5.62217,-1.37028 13.80391,-3.29772 18.18161,-4.28318 20.8614,-4.69616 32.96086,-11.18771 46.2021,-24.78816 10.59115,-10.87847 15.0488,-18.20571 22.58499,-37.12392 1.8027,-4.52537 4.65118,-21.10277 6.591,-38.35789 1.41001,-12.54234 -0.21567,-50.3886 -2.47514,-57.62208 -0.6872,-2.2 -2.55065,-8.33826 -4.14102,-13.64057 -1.59036,-5.302311 -3.45328,-9.987721 -4.13982,-10.412021 -0.68653,-0.424302 -1.24824,-2.445758 -1.24824,-4.492126 0,-2.046369 -1.78908,-6.360958 -3.97573,-9.587977 -2.18665,-3.22702 -3.98665,-6.617308 -4,-7.533974 -0.0133,-0.916667 -0.65548,-1.666667 -1.42696,-1.666667 -0.77148,0 -2.04021,-1.828784 -2.8194,-4.063965 -1.42736,-4.094548 -18.7993,-19.936034 -21.86206,-19.936034 -0.87413,0 -2.2995,-0.855702 -3.16748,-1.901558 -3.929,-4.734145 -42.73901,-12.765109 -61.68798,-12.765109 -5.76782,0 -6.42426,-0.324076 -7.24,-3.574274 -0.55554,-2.213431 -0.15768,-4.878561 1.04496,-7 1.91133,-3.371532 2.17817,-3.423848 16.86788,-3.307059 8.20921,0.06527 17.17754,0.767146 19.92964,1.559731 2.75209,0.792585 8.6924,2.374632 13.20068,3.515659 19.19638,4.858523 30.95575,11.216531 43.17384,23.34307 7.12917,7.075749 17.29595,19.347075 17.29595,20.876259 0,0.573818 0.8391,1.99055 1.86469,3.148292 3.13915,3.543668 6.91459,11.113512 8.86357,17.771654 1.01966,3.483334 2.26906,6.333334 2.77647,6.333334 1.62343,0 2.86884,-22.582416 1.90208,-34.489357 -0.51403,-6.330853 -1.12276,-14.272889 -1.35276,-17.648968 -0.22999,-3.376078 -1.08624,-7.386633 -1.90277,-8.912343 -3.79576,-7.092444 0.91034,-12.801304 9.9218,-12.035895 L 940.35004,18 l -0.007,133.33333 -0.007,133.33333 -3.57137,1.28213 c -2.39256,0.85894 -4.31833,0.8091 -5.83436,-0.15098 -2.04916,-1.29772 -2.23668,-4.85174 -1.98464,-37.61547 C 929.18306,217.23673 928.94184,212 927.27836,212 c -1.06975,0 -1.945,0.79808 -1.945,1.7735 0,6.56791 -12.55383,28.39888 -23.70372,41.22051 -6.65027,7.64736 -20.71223,19.67265 -23.00454,19.67265 -0.57973,0 -5.45753,2.03359 -10.83957,4.51909 -22.02607,10.17196 -21.91682,10.14212 -40.37979,11.02759 -15.45699,0.74131 -17.76281,0.57243 -19.78425,-1.44903 z M 671.71731,251.79957 c -1.67784,-0.47691 -7.55629,-0.92691 -13.06323,-1 -8.84597,-0.11747 -10.23708,-0.48246 -11.93909,-3.13291 -2.57707,-4.01312 -3.16771,-27.98397 -1.14755,-46.57301 1.29199,-11.88857 1.22855,-15.23901 -0.3842,-20.29219 -1.2009,-3.76276 -1.664,-8.71624 -1.22412,-13.09364 0.63792,-6.34812 1.04448,-7.08037 4.13058,-7.43954 2.56058,-0.29802 3.80133,0.43197 4.92465,2.8974 0.83245,1.82701 2.87219,3.49005 4.577,3.7317 2.87483,0.40752 3.04912,0.95752 2.6732,8.43595 -0.22117,4.4 -0.91712,9.9294 -1.54655,12.28755 -0.62942,2.35816 -0.65042,10.05329 -0.0467,17.10029 0.6148,7.17561 0.57374,16.43499 -0.0933,21.04579 -1.97432,13.64703 -2.07449,13.36535 4.42198,12.43494 3.11666,-0.44635 8.93816,-1.40743 12.93664,-2.13572 5.89362,-1.07348 7.68048,-0.95267 9.43832,0.63815 2.82648,2.55793 5.86041,2.49021 8.0767,-0.18026 1.4091,-1.69785 3.17268,-1.95517 8.49659,-1.23968 19.59979,2.63402 21.23869,2.3086 20.86833,-4.14362 -0.3589,-6.25275 -0.22765,-14.58268 0.61364,-38.94605 l 0.799,-23.13862 4.71358,-6.19472 c 5.76664,-7.57869 6.92573,-8.3589 9.98536,-6.72144 3.53672,1.8928 3.31368,16.81083 -0.39662,26.52672 -2.66464,6.97774 -2.71997,8.10918 -1.14097,23.33334 1.87947,18.1211 1.26936,38.1283 -1.25547,41.17053 -2.25164,2.71305 -10.72806,3.86038 -30.80177,4.16917 -9.16667,0.14101 -19.79388,0.49725 -23.61604,0.79167 -3.82215,0.29441 -8.32215,0.1451 -10,-0.3318 z M 170.30358,196.763 c -6.76979,-3.60624 -17.1192,-14.67287 -20.66432,-22.09634 -2.95483,-6.18741 -3.51174,-9.20848 -3.56392,-19.33333 -0.0763,-14.79036 2.29753,-20.45435 13.47225,-32.1457 7.58759,-7.93838 8.72931,-8.57982 24.14848,-13.56708 6.19671,-2.0043 20.57592,0.30203 28.38628,4.55296 20.51504,11.16568 29.48823,32.28999 22.75064,53.55862 -3.80722,12.01828 -6.42492,15.94741 -14.94414,22.43093 -8.9109,6.7816 -11.38095,7.43352 -30.55551,8.06447 -11.73108,0.38601 -16.20174,0.042 -19.02976,-1.46453 z m 38.77825,-10.6076 c 1.84774,-1.55214 5.24282,-4.43115 7.54463,-6.3978 2.30183,-1.96667 5.85369,-6.98339 7.89304,-11.1483 3.28829,-6.71554 3.60849,-8.49885 2.82936,-15.75758 -2.25159,-20.97676 -15.53004,-32.82309 -36.81488,-32.84429 -6.09211,-0.006 -8.54575,0.72419 -13.33334,3.9683 -3.22701,2.18666 -6.56397,3.98666 -7.41545,4 -0.85147,0.0134 -3.13015,1.90439 -5.06372,4.20231 -8.72205,10.36556 -11.80489,23.27768 -7.93527,33.23584 2.98936,7.69282 17.89646,22.26404 23.7365,23.20164 2.27918,0.3659 5.64397,0.907 7.4773,1.2024 6.77252,1.09125 17.67821,-0.80338 21.08183,-3.66252 z m -24.01557,-26.87579 c -3.27088,-7.1788 3.01005,-14.14171 9.74097,-10.79863 3.38895,1.6832 4.59691,5.73251 3.27788,10.98796 -0.67977,2.70842 -1.61915,3.19772 -6.13909,3.19772 -4.42096,0 -5.60128,-0.58109 -6.87976,-3.38705 z m 160.63198,25.02504 c -22.71238,-0.32073 -25.77313,-0.62477 -26.84565,-2.66667 -1.83594,-3.4953 -3.13886,-39.37806 -1.57882,-43.48129 1.0276,-2.70281 2.2366,-3.49003 5.3599,-3.49003 4.5988,0 5.42107,-2.92289 1.91283,-6.79946 -2.87325,-3.17491 -1.33401,-7.39148 3.63653,-9.96185 8.91191,-4.60852 12.72858,-1.3284 13.01741,11.18738 0.11946,5.17888 0.43529,5.71645 3.1329,5.33333 2.69722,-0.38306 3.04022,-1.27303 3.39847,-8.81766 0.34615,-7.28972 0.80547,-8.57703 3.49801,-9.80384 2.22158,-1.01222 3.90266,-0.98243 5.93487,0.10517 2.44745,1.30984 2.83532,2.70928 2.83532,10.22991 0,8.27253 0.15149,8.69098 3,8.28642 2.62451,-0.37273 3.13303,-1.50582 4.06287,-9.0529 1.35836,-11.02513 4.71092,-13.59938 10.35741,-7.95289 2.21364,2.21364 2.67119,4.1009 2.33333,9.62424 -0.35761,5.84605 -0.0464,6.94623 2.08662,7.37758 3.64177,0.73645 4.91681,-2.1328 4.59808,-10.34712 -0.25991,-6.69854 -0.0277,-7.32626 3.0108,-8.13888 1.81084,-0.4843 4.57224,-0.40711 6.13644,0.17153 2.59558,0.96017 2.77994,1.75839 2.1107,9.13888 -0.72866,8.03581 -0.71109,8.08683 2.78523,8.08683 3.37037,0 3.51852,-0.30476 3.51852,-7.23809 0,-7.72342 2.16671,-11.42858 6.68321,-11.42858 3.44259,0 4.51242,2.152 5.30276,10.66667 0.57712,6.21755 1.08644,7.33333 3.34736,7.33333 2.29128,0 2.72483,-1.02661 3.07984,-7.29291 0.44112,-7.78618 1.92792,-10.71949 5.41675,-10.68667 4.4228,0.0416 5.88816,2.41521 6.69373,10.84256 0.71475,7.47722 1.16143,8.52032 3.80968,8.89642 2.82503,0.40122 3,-0.0404 3,-7.57142 0,-8.05174 2.01314,-12.18798 5.93198,-12.18798 2.87509,0 4.32429,2.94339 5.1767,10.51415 0.9363,8.31576 1.5254,9.24569 4.62194,7.29596 1.3992,-0.88101 2.37802,-3.41924 2.5527,-6.61951 0.5377,-9.85066 1.41526,-11.55364 5.44138,-10.55956 5.2619,1.2992 5.98965,2.48849 6.26217,10.23377 0.1514,4.30282 0.90131,7.20903 1.95043,7.55873 2.34721,0.78241 4.22919,-2.49303 3.41897,-5.95049 -0.36865,-1.57316 0.25727,-5.08021 1.39092,-7.79343 1.83984,-4.40336 2.44736,-4.8378 5.657,-4.04536 5.19356,1.28225 5.77362,2.25287 6.0309,10.09163 0.33192,10.11271 2.98402,9.88539 4.04109,-0.34636 1.11325,-10.7756 4.9188,-14.21998 10.88831,-9.85496 1.98657,1.45262 2.55116,3.56133 2.58817,9.66667 l 0.0473,7.80876 4.93445,0.40992 c 3.21616,0.26716 5.1828,1.19576 5.64763,2.66666 1.24617,3.94338 -0.1829,44.3909 -1.61914,45.82714 -0.75113,0.75114 -9.97506,1.62176 -20.49765,1.93475 -25.52251,0.75915 -118.05674,1.25204 -150.1004,0.79952 z m 132.30177,-10.86232 c 6.6,-0.78125 15.0165,-1.42537 18.70332,-1.4314 4.01375,-0.007 7.94447,-0.88025 9.79666,-2.17757 2.8876,-2.02256 3.0625,-2.9049 2.63,-13.26728 -0.28164,-6.74798 -1.1421,-11.78006 -2.19442,-12.83336 -1.25337,-1.25454 -6.58884,-1.7126 -19.33333,-1.65983 -18.42075,0.0763 -147.26828,1.55664 -155.93557,1.79157 l -5,0.13554 0.0204,13.66666 c 0.0107,7.51667 0.47434,14.38056 1.02911,15.25311 0.55477,0.87253 4.29559,1.77253 8.31292,2 17.52654,0.99235 131.09007,-0.18947 141.9709,-1.47744 z m 141.7173,-25.64276 c -1.67784,-0.47691 -7.55629,-0.92691 -13.06323,-1 -8.84597,-0.11747 -10.23708,-0.48245 -11.93909,-3.13291 -2.57707,-4.01312 -3.16771,-27.98397 -1.14755,-46.573013 1.29199,-11.888564 1.22855,-15.239014 -0.3842,-20.292179 -1.20091,-3.762766 -1.664,-8.716247 -1.22412,-13.093649 0.63792,-6.348118 1.04448,-7.080366 4.13057,-7.439538 2.56059,-0.298013 3.80134,0.431971 4.92466,2.897394 0.83245,1.827018 2.87218,3.490053 4.577,3.731717 2.87482,0.407517 3.04912,0.957519 2.6732,8.43594 -0.22118,4.4 -0.91712,9.929398 -1.54655,12.287551 -0.62943,2.358154 -0.65043,10.053287 -0.0467,17.100297 0.6148,7.1756 0.57375,16.43498 -0.0933,21.04578 -1.97432,13.64704 -2.07449,13.36536 4.42197,12.43494 3.11667,-0.44634 8.93817,-1.40743 12.93665,-2.13572 5.89362,-1.07348 7.68048,-0.95267 9.43832,0.63816 2.82648,2.55792 5.86041,2.4902 8.0767,-0.18026 1.4091,-1.69786 3.17268,-1.95517 8.49659,-1.23969 19.59979,2.63402 21.23869,2.30861 20.86833,-4.14361 -0.3589,-6.25276 -0.22765,-14.58269 0.61364,-38.946065 l 0.799,-23.138615 4.71358,-6.194717 c 5.76664,-7.578689 6.92573,-8.358903 9.98536,-6.721439 3.53672,1.892795 3.31368,16.810832 -0.39662,26.526721 -2.66464,6.977738 -2.71997,8.109174 -1.14097,23.333335 1.87947,18.1211 1.26936,38.1283 -1.25547,41.17053 -2.25164,2.71305 -10.72806,3.86039 -30.80177,4.16917 -9.16667,0.14102 -19.79388,0.49726 -23.61604,0.79167 -3.82215,0.29441 -8.32215,0.14511 -10,-0.3318 z m 102.66667,0 c -1.67784,-0.47691 -7.5563,-0.92691 -13.06323,-1 -8.84597,-0.11747 -10.23708,-0.48245 -11.93909,-3.13291 -2.57707,-4.01312 -3.16771,-27.98397 -1.14755,-46.573013 1.29199,-11.888564 1.22855,-15.239014 -0.3842,-20.292179 -1.20091,-3.762766 -1.664,-8.716247 -1.22412,-13.093649 0.63792,-6.348118 1.04448,-7.080366 4.13057,-7.439538 2.56059,-0.298013 3.80134,0.431971 4.92466,2.897394 0.83245,1.827018 2.87218,3.490053 4.577,3.731717 2.87482,0.407517 3.04912,0.957519 2.6732,8.43594 -0.22118,4.4 -0.91712,9.929398 -1.54655,12.287551 -0.62943,2.358154 -0.65043,10.053287 -0.0467,17.100297 0.6148,7.1756 0.57375,16.43498 -0.0933,21.04578 -1.97432,13.64704 -2.07449,13.36536 4.42197,12.43494 3.11667,-0.44634 8.93816,-1.40743 12.93664,-2.13572 5.89363,-1.07348 7.68048,-0.95267 9.43832,0.63816 2.82648,2.55792 5.86042,2.4902 8.07671,-0.18026 1.40909,-1.69786 3.17268,-1.95517 8.49659,-1.23969 19.59979,2.63402 21.23869,2.30861 20.86833,-4.14361 -0.3589,-6.25276 -0.22765,-14.58269 0.61364,-38.946065 l 0.799,-23.138615 4.71358,-6.194717 c 5.76664,-7.578689 6.92573,-8.358903 9.98536,-6.721439 3.53672,1.892795 3.31368,16.810832 -0.39662,26.526721 -2.66464,6.977738 -2.71997,8.109174 -1.14097,23.333335 1.87947,18.1211 1.26936,38.1283 -1.25547,41.17053 -2.25164,2.71305 -10.72806,3.86039 -30.80177,4.16917 -9.16667,0.14102 -19.79388,0.49726 -23.61604,0.79167 -3.82215,0.29441 -8.32215,0.14511 -10,-0.3318 z M 234.39483,21.950388 C 234.01862,21.574168 219.67587,21.254249 202.52207,21.239457 160.99934,21.203649 152,19.413501 152,11.189605 c 0,-3.7820905 1.83919,-4.3492526 9.3099,-2.8709596 5.58793,1.1057311 67.13237,1.230246 346.69011,0.7014133 59.03334,-0.111672 138.53334,-0.17438 176.66667,-0.1393512 38.13334,0.035029 77.52127,0.0012 87.52874,-0.075176 16.13956,-0.1231746 18.51229,0.1481212 21,2.4011185 3.53395,3.200511 3.52475,4.850863 -0.0484,8.686158 -2.38024,2.554896 -3.65057,2.906062 -7.66667,2.119349 -4.05262,-0.793868 -63.21237,-1.260643 -258.6966,-2.041131 -14.96894,-0.05976 -28.16894,-0.611877 -29.33334,-1.226916 -1.17422,-0.620229 -12.50878,-0.349937 -25.45043,0.60691 -14.54368,1.075293 -52.46477,1.80527 -100.66666,1.937824 -42.53334,0.11696 -90.59059,0.467568 -106.7939,0.77912 -16.20332,0.311552 -29.76839,0.258642 -30.14461,-0.117574 z"
       id="path879" />
  </g>
</svg>
