<?xml version="1.0" encoding="UTF-8" standalone="no"?>
<!-- Created with Inkscape (http://www.inkscape.org/) -->

<svg
   version="1.1"
   id="svg305"
   width="265.33334"
   height="218.66667"
   viewBox="0 0 265.33334 218.66667"
   xmlns="http://www.w3.org/2000/svg"
   xmlns:svg="http://www.w3.org/2000/svg">
  <defs
     id="defs309" />
  <g
     id="g311">
    <path
       style="fill:#000000;stroke-width:1.33333"
       d="m 209.69381,208.04966 c -1.54498,-1.43936 -3.75535,-6.08936 -4.91194,-10.33334 -3.51792,-12.9086 -13.078,-42.14198 -15.11987,-46.23446 -2.33825,-4.68654 -0.36081,-10.60702 3.30684,-9.9007 2.81068,0.5413 3.71094,2.36687 13.02809,26.41884 4.11909,10.63334 9.29801,23.37479 11.5087,28.31435 4.65531,10.40176 4.28535,14.35232 -1.34406,14.35232 -2.0123,0 -4.9228,-1.17765 -6.46776,-2.61701 z M 135.2653,204.7095 c -1.06258,-2.54312 -1.93196,-5.57291 -1.93196,-6.73288 0,-1.15998 -0.87292,-3.79707 -1.93981,-5.86022 -3.98718,-7.71034 -7.18183,-55.63616 -4.67384,-70.1164 0.63507,-3.66666 1.42963,-11.46666 1.76571,-17.33333 0.33606,-5.866668 1.26434,-12.355729 2.06282,-14.420135 1.6414,-4.243712 1.98012,-14.726178 0.45178,-13.981529 -0.55,0.267975 -2.63223,1.306189 -4.62718,2.307141 -5.13708,2.577493 -7.70615,0.131672 -7.70615,-7.336445 0,-3.17411 -0.63211,-8.718526 -1.40468,-12.320922 l -1.40469,-6.54981 -7.59531,-0.75306 c -9.706592,-0.962385 -33.595321,-0.999025 -33.595321,-0.05153 0,0.396735 1.474934,2.474195 3.277632,4.616581 3.562348,4.233609 3.232509,7.823037 -0.718872,7.823037 -1.369099,0 -7.248945,-2.4 -13.066323,-5.333333 -5.817381,-2.933334 -11.856918,-5.333334 -13.421197,-5.333334 -4.0878,0 -13.404575,-5.049632 -13.404575,-7.265193 0,-2.743231 3.659996,-5.954475 7.759903,-6.80846 5.060003,-1.053968 17.195599,-7.264991 22.651363,-11.593014 4.935783,-3.915525 5.542683,-4.112293 8.813019,-2.857348 2.812242,1.079159 2.660232,2.553147 -0.737202,7.148424 -4.467271,6.042307 -2.688703,8.0439 7.137738,8.032779 4.60635,-0.0052 12.425181,-0.391976 17.375185,-0.859473 10.27787,-0.970682 10.93512,-2.110792 6.37254,-11.054198 l -2.62746,-5.150247 2.76818,-3.519176 c 1.5225,-1.935546 7.49154,-5.894032 13.26453,-8.796635 9.37313,-4.7127149 11.53395,-5.2753831 20.19261,-5.2580552 5.33294,0.01067 12.39626,0.9511794 15.69626,2.0900121 8.05206,2.7787701 24.00124,13.6686161 23.99502,16.3834071 -0.003,1.195616 -1.21586,4.159917 -2.69582,6.587337 -1.47996,2.427422 -2.3423,4.977422 -1.91632,5.666667 0.42598,0.689247 5.14252,1.253176 10.48123,1.253176 h 9.70673 l 6.04774,-6.666667 c 6.13923,-6.767523 11.06117,-8.587972 12.57231,-4.650029 0.65989,1.719634 1.45408,1.596236 5.39256,-0.83788 3.84741,-2.37783 5.11136,-2.590862 7.56878,-1.275686 1.93492,1.035543 4.0795,1.169739 6.23226,0.389982 1.8052,-0.653868 4.78218,-0.809614 6.61552,-0.346102 2.91953,0.738131 3.38096,1.662711 3.71698,7.447899 0.981,16.888896 0.3027,26.580327 -1.97872,28.271817 -2.9061,2.154637 -19.62114,2.178749 -23.05661,0.03327 -2.20105,-1.374576 -2.91761,-1.220244 -4.52205,0.973954 -1.83611,2.511024 -2.08364,2.522908 -6.69974,0.321645 -3.01974,-1.440019 -4.7932,-3.22362 -4.7932,-4.820613 0,-4.689383 -5.94079,-7.116366 -15.77996,-6.446567 -4.88769,0.332729 -10.97385,1.151933 -13.5248,1.820456 -4.15953,1.090074 -4.75119,1.829561 -5.73407,7.166676 -0.60278,3.273151 -0.79545,8.788139 -0.42816,12.255531 0.65512,6.184523 -1.23529,10.362319 -4.68885,10.362319 -1.34873,0 -5.45007,-4.086066 -9.55516,-9.519582 -2.35128,-3.112155 -2.36793,-3.065691 -1.50099,4.186248 0.48216,4.033334 1.47128,8.833334 2.19804,10.666667 0.72675,1.833333 1.82398,6.933333 2.43828,11.333333 0.61432,4.399995 1.79251,11.899995 2.6182,16.666665 2.7653,15.96359 -1.10973,68.13644 -5.86436,78.95717 -1.19798,2.72646 -2.17817,6.07186 -2.17817,7.43426 0,3.58074 -5.57119,8.27524 -9.82064,8.27524 -2.90329,0 -4.04348,-0.9447 -5.58073,-4.62384 z M 144,171.91235 c 0,-2.24821 0.69554,-5.38728 1.54564,-6.97571 1.89636,-3.5434 1.70598,-46.248 -0.23638,-53.02061 C 144.58916,109.40523 144,104.16157 144,100.26345 c 0,-10.676906 -2.17893,-7.160873 -3.33029,5.37392 -0.5572,6.06612 -1.34815,14.6293 -1.75768,19.0293 -1.37728,14.79763 -0.89596,34.60379 1.04497,43 2.05444,8.88723 4.043,10.97547 4.043,4.24568 z M 133.06667,54.400001 c 2.17761,-2.177608 2.01092,-3.733334 -0.4,-3.733334 -1.1,0 -2,0.250928 -2,0.557618 0,0.306688 -0.36419,1.506688 -0.80932,2.666666 -0.95488,2.488385 0.93087,2.787495 3.20932,0.50905 z m 24.9774,-8.066667 c 1.28221,-5.316667 3.46955,-11.937244 4.86072,-14.712395 1.39117,-2.775152 2.20104,-5.57702 1.79972,-6.226375 -0.40132,-0.649356 -3.49959,-2.728777 -6.88503,-4.620938 -8.71301,-4.869796 -23.01384,-4.906942 -32.53047,-0.08449 -3.64229,1.845683 -6.62234,3.682944 -6.62234,4.082799 0,0.399856 0.96906,3.689748 2.15347,7.310873 l 2.15348,6.583863 h 8.91319 c 8.59821,0 12.11319,1.366326 12.11319,4.708575 0,1.571903 9.35886,12.377746 10.85638,12.534892 0.47101,0.04943 1.90546,-4.260133 3.18769,-9.5768 z m 88.7421,160.556626 c -1.81571,-3.39268 -8.17467,-20.0438 -9.50534,-24.88996 -1.31985,-4.80681 -4.88901,-14.97061 -6.55505,-18.66666 -3.73761,-8.29179 -5.50931,-16.62363 -4.09628,-19.26388 2.86551,-5.35424 7.98043,-2.3878 10.77957,6.25169 1.59091,4.91027 4.22703,11.30837 9.35874,22.71452 1.41104,3.13628 2.56553,6.39685 2.56553,7.24571 0,0.84885 1.15392,3.9828 2.56425,6.96433 2.29171,4.84475 5.40867,14.60188 5.42831,16.99239 0.0152,1.844 -4.26489,5.09524 -6.70755,5.09524 -1.38849,0 -3.11297,-1.09952 -3.83218,-2.44338 z M 41.044873,192.60043 C 40.723644,192.2792 34.00026,191.91296 26.104018,191.78656 6.3324618,191.47007 4.5378376,189.23326 11.833591,174 c 4.222283,-8.81596 8.33984,-13.09769 17.746228,-18.4538 5.249369,-2.98905 8.016265,-3.59182 17.333334,-3.77616 10.249086,-0.20277 11.661762,0.10707 18.695187,4.09967 5.893288,3.34544 8.934974,6.33272 13.493573,13.25223 7.361804,11.17452 8.586604,15.98738 5.148921,20.23273 -2.426235,2.99628 -3.364727,3.14085 -22.576687,3.47803 -11.024872,0.19348 -20.308046,0.0889 -20.629274,-0.23227 z m 30.770199,-13.30439 c 1.575322,-1.57532 -4.704248,-10.49326 -9.559716,-13.57625 -10.911717,-6.9284 -30.318538,-3.70129 -38.872011,6.46393 -1.921515,2.2836 -3.272255,4.82646 -3.001644,5.6508 0.27061,0.82435 3.745433,1.80736 7.721826,2.18448 7.784367,0.73826 42.82996,0.15863 43.711545,-0.72296 z"
       id="path1307" />
  </g>
</svg>
