<?xml version="1.0" encoding="UTF-8" standalone="no"?>
<!-- Created with Inkscape (http://www.inkscape.org/) -->

<svg
   version="1.1"
   id="svg165"
   width="202.66667"
   height="77.333336"
   viewBox="0 0 202.66667 77.333336"
   xmlns="http://www.w3.org/2000/svg"
   xmlns:svg="http://www.w3.org/2000/svg">
  <defs
     id="defs169" />
  <g
     id="g171">
    <path
       style="fill:#000000;stroke-width:1.33333"
       d="M 13.407847,72.978889 C 8.3380196,71.66604 7.2804009,69.835942 9.3532368,65.962813 11.473561,62.00095 10.336228,58.996109 6.5046238,58.436754 4.5328421,58.148905 3.1735105,56.723297 2.5175207,54.255253 1.3162597,49.735724 3.2160311,48.639351 10.03272,49.91817 c 6.902026,1.294828 7.95262,-0.144967 3.942306,-5.402762 -4.4140342,-5.787096 -3.927847,-9.282676 1.239105,-8.908891 2.076963,0.150251 4.881103,1.273019 6.231423,2.495042 C 24.124831,40.526272 28,39.832971 28,36.928912 c 0,-1.001797 -1.8,-3.425258 -4,-5.385466 -4.212589,-3.753434 -5.120868,-7.620109 -2.333333,-9.933339 2.091708,-1.7358 10.0142,1.340146 11.163098,4.334126 1.025756,2.673076 5.836902,2.674541 5.836902,0.0018 0,-1.129693 -1.30261,-3.815864 -2.894689,-5.969267 -2.446901,-3.30961 -2.65758,-4.435674 -1.361919,-7.279343 0.843024,-1.850237 2.472907,-3.3640663 3.621963,-3.3640663 2.194037,0 6.971087,4.4062643 9.398889,8.6693653 1.386716,2.435004 1.633492,2.417386 7.989778,-0.570421 C 74.094641,8.6544839 88.11242,7.0877101 155.84906,6.2073519 c 36.3431,-0.4723433 39.35622,-0.3354006 41.58145,1.8898229 2.19491,2.1949062 2.3534,4.8043462 1.86243,30.6631122 -0.57084,30.065158 -0.98074,31.902966 -7.5826,33.99832 -3.82048,1.212573 -173.660274,1.422401 -178.302493,0.220282 z m 65.258821,-8.806955 c 5.5,0.0016 11.8,-0.07696 14,-0.174454 2.2,-0.09749 23.200002,-0.329047 46.666672,-0.514562 C 162.8,63.297404 183.35,62.697423 185,62.149627 c 2.84835,-0.945642 3.01455,-1.749736 3.28784,-15.906143 0.31444,-16.287674 -0.007,-26.407095 -0.86613,-27.266215 C 185.62302,17.178567 96.31039,16.82389 83.438583,18.564333 63.770334,21.223747 42.118421,34.452405 28.82577,51.931092 18.916528,64.96089 18.672695,64.812424 49.333334,64.417897 59.966668,64.281073 73.166668,64.170389 78.666668,64.171934 Z"
       id="path1018" />
  </g>
</svg>
