<?xml version="1.0" encoding="UTF-8" standalone="no"?>
<!-- Created with Inkscape (http://www.inkscape.org/) -->

<svg
   version="1.1"
   id="svg75"
   width="288"
   height="213.33333"
   viewBox="0 0 288 213.33333"
   xmlns="http://www.w3.org/2000/svg"
   xmlns:svg="http://www.w3.org/2000/svg">
  <defs
     id="defs79" />
  <g
     id="g81">
    <path
       style="fill:#000000;stroke-width:1.33333"
       d="m 11.03989,206.70846 c -3.2484575,-1.3824 -5.4572497,-7.4911 -3.4385604,-9.5098 0.7000145,-0.70001 9.0260854,-1.61182 18.5023784,-2.02626 9.476295,-0.41443 17.976865,-1.36894 18.890159,-2.12112 0.913293,-0.75219 2.347469,-3.84644 3.187057,-6.87612 0.839588,-3.02967 2.316955,-8.00467 3.283037,-11.05555 2.198288,-6.94217 1.409384,-18.91516 -1.628242,-24.7114 C 47.460337,145.87564 47.164965,144.67568 42.842979,122 40.104221,107.63087 36.430745,95.999999 34.631181,95.999999 c -0.614981,0 -1.525318,-1.35 -2.022973,-3 -1.043281,-3.459052 -4.270167,-11.267472 -6.053631,-14.648575 -0.671684,-1.273383 -1.221244,-4.003382 -1.221244,-6.066666 0,-2.063284 -0.50872,-4.321426 -1.130489,-5.018092 C 21.457021,64.190084 19.457683,45.025569 20.036797,27.333333 20.084805,25.866666 19.748561,21.666666 19.289589,18 18.013391,7.8046432 19.260884,6.9003094 36.666667,5.4029944 c 8.066666,-0.6939267 16.466666,-1.7986949 18.666666,-2.45504 5.686734,-1.6965732 9.709758,0.5147778 11.396215,6.2642005 2.335939,7.9636211 3.744131,26.9435201 2.305279,31.0710161 -1.703535,4.886762 -0.528819,7.698039 3.25666,7.79369 1.673016,0.04228 5.141846,1.54444 7.708513,3.338148 2.566667,1.793708 6.798416,4.691998 9.403887,6.440645 5.885849,3.950256 30.265893,29.546111 35.403863,37.169422 2.09127,3.102874 5.69253,8.041594 8.00279,10.974924 2.31026,2.93333 6.07291,8.6817 8.36146,12.77416 7.65035,13.68065 36.2796,43.3797 48.62724,50.4443 3.78933,2.16804 9.18588,5.9308 11.99232,8.36171 4.36355,3.77964 4.96867,4.95092 4.17767,8.08649 -1.22303,4.84812 -5.07552,4.78142 -9.71106,-0.16813 -3.11676,-3.32788 -13.81322,-10.83187 -15.44018,-10.83187 -2.04239,0 1.64374,5.91572 5.97877,9.5951 2.85441,2.42269 5.19287,5.18552 5.19655,6.13961 0.004,0.95408 2.10669,2.61213 4.67336,3.68456 3.83277,1.60143 4.66666,2.65023 4.66666,5.86929 0,3.39307 -0.67148,4.10615 -5,5.30976 -6.31924,1.75716 -32.75813,0.29478 -38.59672,-2.13485 -8.45944,-3.52025 -19.23352,-16.12085 -27.06994,-31.65911 -6.90328,-13.68797 -10.68531,-18.56349 -12.77726,-16.47154 -0.49784,0.49784 0.004,2.87662 1.1158,5.28617 1.11153,2.40956 2.43156,9.33392 2.93341,15.38748 1.17856,14.21656 -0.50231,15.28245 -10.03643,6.3644 -4.24063,-3.96661 -7.45427,-5.98307 -8.74554,-5.48756 -1.12278,0.43084 -2.29234,0.78336 -2.59903,0.78336 -0.30669,0 -0.55762,5.62653 -0.55762,12.50341 0,9.20558 -0.502036,12.92006 -1.903423,14.08311 -1.982428,1.64527 -44.684588,2.44352 -47.210333,0.88252 -0.699928,-0.43257 -4.185667,-0.2454 -7.746087,0.41595 -10.702042,1.9879 -28.940997,2.83458 -32.100267,1.49014 z M 76,195.3091 c 16.411468,-1.5112 15.181559,-0.21146 14.242036,-15.05058 -1.186999,-18.74787 -6.13718,-30.10016 -6.072097,-13.92519 0.02965,7.37076 -1.822723,15 -3.642003,15 -0.479271,0 -3.195849,-2.1 -6.036843,-4.66667 C 71.6501,174.1 68.444965,172 67.368572,172 c -1.704881,0 -6.313493,8.34748 -10.211312,18.49552 -1.733108,4.51217 0.889833,7.23677 6.090565,6.32661 2.24703,-0.39324 7.985508,-1.07411 12.752175,-1.51303 z m 106.66667,-1.9806 c 0,-2.74385 -5.13804,-10.7911 -8.65754,-13.55954 -2.00378,-1.57618 -4.67301,-4.55908 -5.93162,-6.6287 -4.34223,-7.14022 -31.3535,-25.12957 -37.74418,-25.13741 C 129.05,148.00152 128,148.23226 128,148.51614 c 0,0.2839 2.73616,5.65962 6.08036,11.94606 3.3442,6.28645 7.09536,14.30417 8.33589,17.81718 1.24054,3.513 3.97559,8.63728 6.0779,11.38728 l 3.82236,5 h 15.17508 c 9.26436,0 15.17508,-0.52121 15.17508,-1.33816 z m -75,-24.83556 c 3.34387,-0.89612 3.89703,-4.33229 1.43498,-8.91393 -0.86076,-1.60179 -1.61076,-7.08541 -1.66667,-12.18583 -0.0887,-8.09257 -0.44123,-9.36717 -2.76831,-10.00916 -3.82393,-1.05492 -15.116511,-7.47587 -21.984694,-12.50048 -6.610148,-4.83584 -25.596493,-22.93763 -26.798735,-25.550208 -0.674921,-1.466667 -3.309858,-5.366667 -5.855416,-8.666667 -2.545557,-3.3 -5.913505,-8.671449 -7.484329,-11.936554 -3.789648,-7.877143 -2.460421,-9.864564 7.182924,-10.739704 5.811292,-0.52738 8.317841,-1.505944 11.385477,-4.444925 4.742376,-4.543486 9.993956,-4.480779 10.648286,0.127146 0.277733,1.955858 -0.420947,3.316056 -2,3.893623 -1.334767,0.488213 -3.857764,1.985531 -5.606662,3.327372 -1.748896,1.34184 -5.198896,2.439709 -7.666666,2.439709 -3.768407,0 -4.484552,0.480368 -4.472475,3 0.04221,8.8072 32.176792,43.106648 47.025029,50.193058 4.771341,2.27715 9.819391,4.14027 11.217881,4.14027 1.39849,0 3.11271,0.49218 3.80938,1.09373 2.17097,1.87457 26.32777,10.90627 29.17065,10.90627 1.66375,0 -0.038,-3.34656 -6.86852,-13.50668 -3.50284,-5.2104 -7.18609,-11.05292 -8.18501,-12.98338 C 123.16148,106.47068 117.26407,98.84135 99.654685,79.269179 89.084269,67.520559 83.019112,62.592851 72.253609,57.006855 63.560597,52.49623 59.937461,52.432117 48.492579,56.586384 c -5.763132,2.091906 -10.36037,2.97339 -12.879546,2.469555 l -3.917488,-0.783497 0.956958,7.197112 c 1.077901,8.106705 7.295422,24.116807 12.135664,31.249302 C 46.554675,99.32195 48,101.97047 48,102.60445 c 0,0.63398 6.280223,7.10412 13.956052,14.37808 16.322477,15.46793 23.312295,23.88903 28.070823,33.81879 1.897358,3.95928 4.017502,8.24053 4.711433,9.51392 C 95.432239,161.58862 96,163.50881 96,164.58232 c 0,3.68726 5.55369,5.54885 11.66667,3.91062 z M 75.560283,155.50246 C 74.635577,144.5632 73.601441,141.56185 68.304779,134.44497 64.318015,129.08813 53.882563,120 51.71834,120 c -0.793951,0 -0.982817,1.25209 -0.452521,3 0.500592,1.65 1.802802,6.3 2.893801,10.33333 1.090997,4.03333 2.794231,9.13333 3.784963,11.33333 0.990732,2.2 2.7701,6.4 3.954153,9.33334 2.391985,5.92582 8.085816,11.31656 11.963579,11.3267 2.329926,0.007 2.463573,-0.76714 1.697968,-9.82424 z M 51.195616,49.418447 c 4.768277,-2.946958 10.137717,-9.664268 10.137717,-12.68255 0,-3.20783 -4.296834,-7.402564 -7.582742,-7.402564 -3.754462,0 -5.928476,3.932352 -5.520787,9.985981 0.172969,2.568349 -0.326548,5.310763 -1.110039,6.094253 -2.290756,2.290756 -5.786432,-2.298385 -5.786432,-7.596461 C 41.333333,32.607358 39.340813,28 37.08778,28 c -0.816784,0 -3.495675,2.07026 -5.953088,4.600578 -7.346433,7.564381 -5.524672,13.186633 5.567004,17.180691 7.379255,2.657232 9.701425,2.599102 14.49392,-0.362822 z M 36.180213,21.746488 c 1.932451,-0.36898 4.820804,0.02875 6.418563,0.883845 2.224884,1.190721 3.355539,1.180817 4.829309,-0.04231 1.05836,-0.878361 4.320007,-1.659838 7.248103,-1.736616 5.516113,-0.144637 6.392049,-1.348594 3.614741,-4.968388 -1.208496,-1.575085 -5.07167,-2.325625 -15.092152,-2.932108 -15.125869,-0.915484 -16.53211,-0.336678 -16.53211,6.804594 0,4.115884 0.289512,4.464136 3,3.608681 1.65,-0.520756 4.581096,-1.248721 6.513546,-1.617701 z M 225.33333,53.333332 C 218.36667,52.966666 211.91667,52.181255 211,51.587977 c -3.80147,-2.460362 -0.32055,-15.186772 6.51425,-23.816408 13.48639,-17.027942 38.56623,-18.8505837 54.41455,-3.954499 7.39505,6.950722 11.99829,15.778483 12.04192,23.093079 0.0227,3.789324 -0.59289,5.107621 -2.69636,5.775236 -3.47868,1.104089 -39.37467,1.519861 -55.94103,0.647947 z m 31.7407,-9.910209 c 7.55738,-0.253036 14.09712,-0.816493 14.53274,-1.252125 2.05051,-2.050503 -2.01892,-9.655443 -6.96357,-13.013516 -6.36677,-4.323884 -12.34117,-5.426886 -23.23009,-4.288769 -7.42818,0.776399 -8.82355,1.44748 -14.92964,7.180181 -10.38564,9.750557 -7.54715,13.747493 8.84986,12.461649 4.4,-0.345045 14.18331,-0.834384 21.7407,-1.08742 z"
       id="path1157" />
  </g>
</svg>
