<?xml version="1.0" encoding="UTF-8" standalone="no"?>
<!-- Created with Inkscape (http://www.inkscape.org/) -->

<svg
   version="1.1"
   id="svg223"
   width="49.333332"
   height="212"
   viewBox="0 0 49.333332 212"
   xmlns="http://www.w3.org/2000/svg"
   xmlns:svg="http://www.w3.org/2000/svg">
  <defs
     id="defs227" />
  <g
     id="g229">
    <path
       style="fill:#000000;stroke-width:1.33333"
       d="M 23.388007,206.42685 C 9.1864678,164.76957 7.4806618,133.11583 16.898258,86 20.16473,69.657987 20.620877,58.175136 18.087114,56.072299 16.939201,55.119615 16,53.550105 16,52.5845 16,51.618893 13.6,48.055868 10.666666,44.666667 7.7333331,41.277465 5.3333332,37.697741 5.3333332,36.711725 c 0,-0.986016 1.9499999,-4.134804 4.3333332,-6.997306 2.4816986,-2.980644 5.4638266,-8.986111 6.9789986,-14.054439 3.008328,-10.0630131 6.77264,-13.3193709 10.559666,-9.1347529 1.170402,1.2932781 2.128002,3.0691488 2.128002,3.9463789 0,3.002121 9.193861,19.856237 11.265065,20.651033 3.101154,1.190024 2.490461,7.275636 -1.064487,10.607693 -7.806379,7.316928 -9.303776,16.514468 -5.687781,34.936335 1.295502,6.6 3.208622,16.5 4.251378,22 3.405703,17.963333 4.53468,49.358903 2.445263,68.000003 -2.404104,21.44862 -3.397184,26.07377 -7.317344,34.07961 -3.236741,6.61016 -8.486958,9.64187 -9.83742,5.68057 z m 8.430953,-45.76018 c 1.542398,-17.07954 1.435584,-22.5816 -0.9437,-48.61096 -1.505786,-16.473299 -3.430415,-25.389043 -5.480699,-25.389043 -2.84849,0 -5.894767,60.286443 -3.570791,70.666663 0.410456,1.83334 1.044177,6.71639 1.408271,10.85123 0.364092,4.13484 1.4152,9.93127 2.335792,12.88096 l 1.673806,5.36307 1.566207,-4.88096 c 0.861413,-2.68454 2.216414,-12.08096 3.011114,-20.88096 z M 28.810605,40.333333 c 2.547241,-3.35557 2.253895,-7.467944 -0.810606,-11.363828 -1.466666,-1.864564 -2.666666,-4.095478 -2.666666,-4.957589 0,-3.6905 -3.296739,0.0036 -5.738734,6.430376 -2.598518,6.838743 -2.600753,7.014481 -0.121,9.516647 3.197763,3.226668 7.054432,3.381313 9.337008,0.374394 z"
       id="path251" />
  </g>
</svg>
