<?xml version="1.0" encoding="UTF-8" standalone="no"?>
<!-- Created with Inkscape (http://www.inkscape.org/) -->

<svg
   version="1.1"
   id="svg213"
   width="217.33333"
   height="210.66667"
   viewBox="0 0 217.33333 210.66667"
   xmlns="http://www.w3.org/2000/svg"
   xmlns:svg="http://www.w3.org/2000/svg">
  <defs
     id="defs217" />
  <g
     id="g219">
    <path
       style="fill:#000000;stroke-width:1.33333"
       d="m 22.666666,204.02639 c -1.704673,-1.07915 -2,-7.13032 -2,-40.97959 v -39.71346 l -5.466553,-0.1139 c -7.4207359,-0.1546 -9.8667797,-1.29103 -9.8667797,-4.58408 0,-3.55178 9.7437447,-17.96916 14.0519027,-20.791976 C 23.765158,94.973548 23.5322,92.8697 18,85.333335 c -2.566667,-3.4965 -4.666667,-7.366331 -4.666667,-8.599626 0,-1.233293 -0.60202,-3.367237 -1.337823,-4.742097 -0.735803,-1.37486 -1.417279,-5.946307 -1.514391,-10.158772 -0.156152,-6.773427 0.238392,-8.015959 3.412174,-10.745933 7.532545,-6.479222 16.759281,-1.431232 16.789879,9.185821 0.01476,5.123578 0.5418,6.078629 4.999999,9.060606 2.740922,1.833334 6.046795,3.768919 7.346383,4.3013 4.226925,1.731579 4.174299,4.998195 -0.180045,11.175751 -2.300564,3.263836 -4.182843,6.159691 -4.182843,6.435235 0,0.275545 2.643295,2.050064 5.873987,3.943376 6.527762,3.825523 13.137835,11.453634 16.129467,18.613614 1.752014,4.19316 1.739608,4.93052 -0.114133,6.78427 -1.143891,1.14388 -4.13694,2.07979 -6.651226,2.07979 -5.164196,0 -4.827212,-1.1255 -5.189735,17.33333 -0.266363,13.56267 -1.932645,27.74988 -3.650443,31.08091 -0.756732,1.46741 -2.3862,2.25179 -4.154798,2 -2.399199,-0.34155 -2.982574,-1.42588 -3.324598,-6.17944 -0.228146,-3.17087 0.110867,-6.47087 0.753366,-7.33333 0.642498,-0.86248 1.129164,-9.36814 1.081478,-18.90147 l -0.0867,-17.33333 -3.672803,-0.42249 -3.672802,-0.42249 0.339469,40.13703 c 0.291614,34.47895 0.05753,40.31536 -1.660531,41.40207 -2.546792,1.6109 -5.454282,1.61052 -8,-0.001 z m 23.666667,-90.2001 c 4.141825,-1.10997 3.773832,-2.7816 -1.761603,-8.00219 -5.316935,-5.01451 -10.247412,-5.7612 -16.543452,-2.50539 -3.309806,1.71157 -6.528002,6.69265 -5.15002,7.97114 0.36959,0.3429 13.813781,2.58484 19.121741,3.18871 0.733334,0.0834 2.683334,-0.21009 4.333334,-0.65227 z M 33.723489,81.200988 c 1.055362,-1.676092 0.230068,-3.166151 -3.857088,-6.963923 -2.859855,-2.657368 -5.649735,-4.847812 -6.199735,-4.867653 -2.023629,-0.07301 -0.914621,5.46718 2,9.991244 3.128776,4.856475 5.776832,5.461341 8.056823,1.840332 z M 76.275572,201.69444 c -10.044605,-0.58817 -10.479381,-1.26392 -10.96927,-17.04897 -0.685992,-22.10379 -0.350843,-24.47272 4.090694,-28.91425 3.58577,-3.58578 4.743174,-3.98708 9.841741,-3.4124 7.092135,0.79938 11.572164,4.02776 15.284911,11.01452 3.734302,7.02732 10.355592,14 13.294482,14 3.18258,0 9.10656,-6.45026 10.27975,-11.19298 0.52511,-2.12281 3.21856,-6.12346 5.98546,-8.89036 4.1467,-4.1467 6.29709,-5.18894 12.23738,-5.93113 8.92581,-1.11521 14.02324,1.54775 19.50316,10.18869 4.02374,6.34478 11.32458,13.15911 14.09861,13.15911 2.1698,0 8.74417,-5.10505 8.74417,-6.78993 0,-3.13434 7.19682,-12.17795 12.20902,-15.34202 4.28138,-2.70272 6.57969,-3.31412 10.23074,-2.72164 6.41547,1.04108 8.3908,3.41942 9.75966,11.75075 1.90937,11.62108 1.5314,35.94345 -0.59156,38.06643 -1.47236,1.47234 -13.59503,1.88845 -63.7131,2.18692 -34.04211,0.20273 -65.670747,0.1475 -70.285848,-0.1228 z m 99.900548,-9.85569 c 2.39161,-0.93047 5.85536,-0.93169 10.87453,-0.004 7.53183,1.39235 14.91803,-0.0397 16.06051,-3.11376 0.28368,-0.76329 0.22041,-6.37592 -0.14058,-12.47252 -0.55921,-9.44411 -1.07872,-11.36148 -3.51002,-12.95453 -4.24386,-2.78068 -8.7939,-1.1124 -8.7939,3.2243 0,4.80678 -6.76444,12.67747 -14.00229,16.29223 -5.29587,2.64488 -6.51405,2.79012 -11.32149,1.34977 -6.8261,-2.04514 -14.22263,-8.49378 -16.78996,-14.63826 C 145.55281,162.34184 142.84578,160 137.54594,160 c -6.22391,0 -10.87928,4.33063 -10.87928,10.12038 0,3.41453 -1.06791,5.16802 -5.08524,8.3498 -7.64128,6.052 -11.2569,7.31458 -18.03565,6.29804 -6.749015,-1.01207 -7.910535,-2.08963 -13.545771,-12.56656 -2.4491,-4.55332 -5.720035,-8.43136 -8.436223,-10.00202 -4.148707,-2.39904 -4.580777,-2.42058 -6.666666,-0.3326 -1.828611,1.83046 -2.15592,4.42844 -1.81679,14.42056 0.22751,6.70334 0.968972,13.2255 1.647695,14.4937 1.120832,2.09429 4.42701,2.30774 36.039635,2.32666 19.14307,0.012 35.0008,0.21686 35.23939,0.45644 1.00481,1.00899 26.95541,-0.47536 30.16908,-1.72565 z m -15.24538,-80.68578 c -0.20502,-0.20503 -13.44508,-0.47245 -29.42233,-0.59428 -33.934169,-0.25875 -33.085784,0.15468 -28.33886,-13.809683 3.18086,-9.357386 12.0216,-19.159046 19.49711,-21.616314 2.56667,-0.843685 7.24787,-2.50148 10.40266,-3.683988 5.4332,-2.036519 6.22512,-2.001445 15.00194,0.664432 5.09627,1.547944 9.60048,3.355739 10.00936,4.017322 0.40888,0.661581 2.11502,1.202876 3.79142,1.202876 3.43201,0 6.00965,2.509964 9.58497,9.333333 5.70592,10.889507 7.47179,20.189902 4.21557,22.202352 -1.69218,1.04583 -14.0633,2.96248 -14.74184,2.28395 z M 127.90907,97.306518 c 1.04999,-0.559446 4.20298,-0.207836 7.00665,0.781353 2.80365,0.989189 7.34457,1.486185 10.09092,1.104435 2.74634,-0.381751 8.14336,-1.011719 11.99336,-1.399931 4.26996,-0.430557 7,-1.345773 7,-2.346672 0,-0.902458 -3.08078,-4.146928 -6.84616,-7.209934 -7.15924,-5.823776 -9.83492,-6.462922 -23.82051,-5.690082 -8.88903,0.491205 -20,8.780288 -20,14.92054 0,1.837728 1.05779,2.093575 6.33333,1.531835 3.48334,-0.370906 7.19242,-1.1321 8.24241,-1.691544 z M 63.318847,35.400629 c -2.556415,-3.996321 -5.345272,-8.796321 -6.197459,-10.666667 -0.852185,-1.870346 -2.209492,-3.400628 -3.016235,-3.400628 -0.806743,0 -3.560434,4.35 -6.119314,9.666666 C 41.344483,44.798966 37.221218,44.789777 27.884377,30.955204 25.74797,27.789648 24,24.629727 24,23.933158 c 0,-0.69657 -0.9,-1.266491 -2,-1.266491 -1.1,0 -2,0.906721 -2,2.014937 0,3.478392 -5.892551,13.895623 -8.321402,14.711111 -6.1639505,2.06955 -6.6456854,-4.96418 -1.162013,-16.966355 2.117455,-4.634498 4.237327,-9.711578 4.710825,-11.282399 0.722662,-2.397413 4.117616,-4.3838898 7.62073,-4.459088 0.718932,-0.015433 5.513144,6.247941 13.763913,17.981794 2.493029,3.545468 4.141849,1.83714 8.628272,-8.939676 2.92794,-7.0331918 4.072114,-8.4609796 7.05921,-8.8090136 2.886116,-0.3362688 4.365781,0.6792419 7.771009,5.3333336 C 62.383902,15.41309 64.603811,18.9 65.003674,20 c 0.399864,1.1 1.930546,3.33759 3.401517,4.972422 2.501424,2.78007 2.787809,2.823212 4.42558,0.666666 0.963097,-1.268165 1.770168,-3.45304 1.793491,-4.855277 0.02332,-1.402239 1.567695,-5.152239 3.431942,-8.333334 2.540289,-4.3346771 4.210623,-5.7838102 6.666667,-5.7838102 1.80242,0 3.277128,0.4860972 3.277128,1.080216 0,0.5941188 1.671484,2.8441192 3.714409,5.0000002 2.042924,2.155881 4.756756,5.569784 6.030737,7.586451 C 99.019125,22.35 100.84305,24 101.79832,24 c 2.22101,0 7.53501,-5.613778 7.53501,-7.96008 0,-2.595925 6.49264,-10.7065866 8.5707,-10.7065866 0.97257,0 4.83274,4.2000001 8.57814,9.3333336 C 130.22758,19.8 133.84796,24 134.52748,24 c 1.67941,0 7.3245,-6.854052 10.93289,-13.274323 3.71288,-6.6061645 5.95181,-7.4961616 9.32991,-3.708709 1.46333,1.6406676 5.2775,5.953511 8.47594,9.584096 5.03486,5.715122 6.10067,6.364271 7.94123,4.836742 1.16924,-0.970379 2.12588,-2.684223 2.12588,-3.808544 0,-4.058794 6.60227,-10.9625952 10.48377,-10.9625952 3.72579,0 9.51623,5.8636272 9.51623,9.6364972 0,0.959463 1.44456,3.870332 3.21012,6.468599 4.35991,6.416175 7.50125,14.226976 6.6324,16.491152 -2.36691,6.168062 -8.87447,1.809935 -13.84729,-9.273559 -2.05876,-4.588585 -4.30251,-8.688553 -4.98611,-9.11104 -0.6836,-0.422486 -3.25715,3.119811 -5.719,7.87177 -8.16309,15.756671 -11.40011,16.032988 -20.63245,1.761228 -3.31392,-5.122788 -6.62668,-8.94249 -7.36168,-8.488228 -0.73502,0.454262 -2.24587,3.002606 -3.35744,5.662986 -3.18668,7.626803 -8.37324,13.647262 -11.75695,13.647262 -3.67289,0 -9.13011,-5.681767 -11.52576,-12 -4.06313,-10.715999 -6.13834,-10.467968 -11.58979,1.385214 -6.76325,14.705461 -11.73255,15.429718 -18.515287,2.698538 -1.782669,-3.346064 -3.792573,-6.983752 -4.466453,-8.083752 -0.673881,-1.1 -1.549697,-3.05 -1.94626,-4.333334 -0.952368,-3.082002 -3.471381,-3.000041 -3.471381,0.11295 0,1.345456 -2.092282,6.745456 -4.649514,12 -3.941933,8.099797 -5.161923,9.553717 -8.016561,9.553717 -2.619986,0 -4.398326,-1.612148 -8.015077,-7.266038 z"
       id="path390" />
  </g>
</svg>
