<?xml version="1.0" encoding="UTF-8" standalone="no"?>
<!-- Created with Inkscape (http://www.inkscape.org/) -->

<svg
   version="1.1"
   id="svg203"
   width="280"
   height="213.33333"
   viewBox="0 0 280 213.33333"
   xmlns="http://www.w3.org/2000/svg"
   xmlns:svg="http://www.w3.org/2000/svg">
  <defs
     id="defs207" />
  <g
     id="g209">
    <path
       style="fill:#000000;stroke-width:1.33333"
       d="m 157.64309,206.37628 c -5.50153,-1.4292 -8.78804,-7.87268 -7.70366,-15.10374 0.84749,-5.65156 3.57188,-9.32734 10.72689,-14.4729 2.44179,-1.75603 2.51291,-2.29148 0.84459,-6.35858 -5.90638,-14.39877 -8.06867,-22.40709 -8.12096,-30.077 -0.0507,-7.43453 0.29484,-8.53287 3.30485,-10.50511 4.91428,-3.21995 12.27391,-1.7299 21.36053,4.32471 4.25068,2.83232 8.67458,5.74967 9.83087,6.483 1.15629,0.73334 3.60493,2.30462 5.44141,3.49174 1.83648,1.18713 4.68906,2.57756 6.33906,3.08985 2.93212,0.91037 3,0.69903 3,-9.34149 0,-9.25087 -2.94743,-24.45959 -9.52847,-49.166819 l -1.40108,-5.260056 -2.62851,3.260056 c -1.44569,1.793032 -3.86876,5.960058 -5.3846,9.260058 C 174.84745,115.3244 167.20857,120.89135 163.14128,111 c -1.1308,-2.75 -3.43875,-6.5 -5.12877,-8.33333 -3.3657,-3.651077 -8.67918,-13.097409 -8.67918,-15.42987 0,-0.808147 -2.4,-4.820917 -5.33333,-8.917271 -5.9898,-8.364661 -6.32069,-9.632735 -3,-11.496919 2.17284,-1.219796 2.185,-1.568274 0.17675,-5.066254 -2.12484,-3.701045 -2.01115,-6.243206 0.41704,-9.324421 2.08105,-2.640721 8.84562,1.183547 11.78094,6.660208 C 155.18417,62.468167 156,66.58152 156,72.328532 c 0,7.612949 0.47305,9.005037 5.43877,16.004833 2.99132,4.216648 6.21159,7.666634 7.15615,7.666634 1.91225,0 7.93007,-8.362152 12.18313,-16.929288 4.73543,-9.538769 9.61043,-13.544075 22.22195,-18.257553 7.09701,-2.652466 8.54088,-6.146492 2.53999,-6.146492 -4.55696,0 -7.58819,-3.131825 -8.71091,-9 -0.456,-2.383333 -1.19379,-6.110228 -1.63955,-8.281989 -1.7248,-8.403376 10.81244,-25.766471 22.64787,-31.3655212 5.96169,-2.8203332 7.89619,-3.1285196 13.7898,-2.1968656 3.77041,0.5960225 8.44685,2.1265032 10.39208,3.4010682 4.03957,2.646829 7.31405,9.5074596 7.31405,15.3242696 0,7.341666 -10.54393,21.257381 -19.66666,25.955767 -2.67207,1.376166 -4.33334,3.240944 -4.33334,4.864177 0,2.184671 0.91214,2.632427 5.36262,2.632427 7.01634,0 20.90218,6.353688 26.82077,12.272272 C 266.19299,76.948547 274,97.469936 274,111.6 c 0,11.41684 -0.7232,11.87155 -14.52535,9.13275 -18.18136,-3.60777 -17.54034,-4.10458 -17.11848,13.26725 0.19731,8.12446 1.18444,17.04565 2.213,20 1.02126,2.93333 2.22836,12.23333 2.68247,20.66666 0.7998,14.85318 0.95036,15.44816 4.80804,19 2.19032,2.01667 4.85181,3.66667 5.91444,3.66667 2.90449,0 5.04265,4.71625 2.93223,6.46776 -2.65144,2.20048 -95.76687,4.52261 -103.26326,2.57519 z M 208.66667,196 c 0.45322,-0.73334 4.71842,-1.33334 9.47824,-1.33334 10.31224,0 15.50673,-2.33056 17.86062,-8.01337 1.42551,-3.44145 1.35138,-6.54221 -0.43976,-18.39621 C 234.38093,160.41569 233.05513,149.5 232.61955,144 c -1.57155,-19.84334 -3.02708,-25.17335 -8.37006,-30.65035 -2.70388,-2.77172 -6.26616,-5.44971 -7.91616,-5.95109 -1.6705,-0.50761 -3,-1.98119 -3,-3.32515 0,-4.06457 3.48647,-5.811434 10.10894,-5.064986 5.32114,0.59977 6.225,0.327733 7.1805,-2.161144 0.60122,-1.566004 2.65083,-6.747281 4.5547,-11.513948 1.90386,-4.766667 3.8428,-10.616667 4.30872,-13 l 0.84714,-4.333333 -17.16666,0.0067 c -16.01771,0.0061 -17.42898,0.216498 -21.08572,3.142402 l -3.91906,3.13578 3.03588,11.857597 c 1.66975,6.521679 3.97038,13.931722 5.11251,16.466752 3.50351,7.77624 5.6574,17.67142 5.67197,26.05751 0.008,4.4 0.71476,14.47001 1.57136,22.3778 1.74876,16.1438 1.56504,16.66656 -6.44637,18.34328 -4.79324,1.00318 -13.73123,3.9295 -19.77391,6.47401 -1.46666,0.6176 -5.96666,2.51816 -10,4.22345 -7.72442,3.2659 -16,9.9086 -16,12.84302 0,0.95614 0.15,1.81737 0.33334,1.91385 0.51436,0.27068 30.05993,2.00164 38.58797,2.26072 4.17339,0.1268 7.9588,-0.36947 8.41203,-1.1028 z m -29.85814,-29.22468 c 2.31348,-1.40691 4.95794,-2.26959 5.87659,-1.91708 1.98844,0.76304 11.32652,-2.9239 11.28815,-4.45687 -0.0575,-2.29436 -18.98624,-17.425 -24.93044,-19.92803 -5.8971,-2.48318 -6.86779,-2.30168 -7.8121,1.46075 -0.53648,2.13753 0.37688,5.79761 2.64127,10.58411 1.90373,4.02416 3.46133,7.92558 3.46133,8.66982 0,2.25903 3.02202,8.14531 4.1818,8.14531 0.5979,0 2.97992,-1.15111 5.2934,-2.55801 z m 82.87339,-61.58896 C 260.48187,93.165108 252.154,77.105775 248.63477,80.026465 c -1.81066,1.502722 -7.30144,16.884351 -7.30144,20.453965 0,2.50664 9.13788,7.8817 12.08784,7.11027 1.256,-0.32846 3.10006,-0.0805 4.0979,0.55105 2.80005,1.77213 4.51336,0.55578 4.16285,-2.95539 z M 224.30744,40.813645 C 232.53972,35.517897 236,30.264194 236,23.060944 c 0,-6.592828 -1.85457,-8.398976 -8.6,-8.375418 -4.57964,0.016 -6.56471,1.045567 -13.06667,6.777119 -7.49006,6.602584 -7.66666,6.918493 -7.66666,13.714473 0,3.825919 0.72,7.676215 1.6,8.556215 2.81748,2.81748 8.82097,1.724744 16.04077,-2.919688 z M 5.6666667,139.16042 C 2.8660657,137.95732 3.7955735,134.0426 8,129.33333 c 2.2,-2.46416 4,-4.98559 4,-5.60319 0,-0.61759 3.15,-4.3893 7,-8.38158 8.935712,-9.26594 17.152209,-18.525964 22.661016,-25.539052 2.386441,-3.038103 5.988984,-6.522024 8.005651,-7.742048 2.016666,-1.220023 3.666666,-3.070471 3.666666,-4.112105 0,-1.041635 1.65,-2.94331 3.666667,-4.225943 2.016667,-1.282634 4.146481,-3.096465 4.73292,-4.030737 1.635063,-2.604861 4.662868,-2.025136 6.796585,1.301324 1.448107,2.257593 2.115047,9.929126 2.695046,31.000001 0.861457,31.29602 0.352825,33.96204 -6.756822,35.41612 -5.568636,1.1389 -56.6808437,2.65512 -58.8010623,1.7443 z m 30.4902423,-9.98696 c 7.248463,-2.50849 8.756675,-2.63211 13.403151,-1.09864 3.613096,1.19243 6.351937,1.33564 8.837781,0.4621 L 62,127.27111 62.300867,108.63555 c 0.165477,-10.249552 -0.0037,-19.484646 -0.37599,-20.522429 -0.884041,-2.464448 -8.810406,5.084224 -13.195381,12.566619 -1.73108,2.95386 -6.953385,8.58847 -11.605124,12.52135 -20.453567,17.29276 -20.789088,22.83205 -0.967463,15.97237 z"
       id="path529" />
  </g>
</svg>
