<?xml version="1.0" encoding="UTF-8" standalone="no"?>
<!-- Created with Inkscape (http://www.inkscape.org/) -->

<svg
   version="1.1"
   id="svg193"
   width="172"
   height="210.66667"
   viewBox="0 0 172 210.66667"
   xmlns="http://www.w3.org/2000/svg"
   xmlns:svg="http://www.w3.org/2000/svg">
  <defs
     id="defs197" />
  <g
     id="g199">
    <path
       style="fill:#000000;stroke-width:1.33333"
       d="M 11.768849,205.8533 C 10.541715,205.48143 8.5556359,203.67835 7.3553385,201.84646 2.5689769,194.54155 2.6059257,14.906335 7.3951371,8.3566404 9.0043663,6.1558688 14.282431,5.9800968 87.196269,5.6990746 164.25383,5.402082 165.29299,5.4332537 166.71179,8.0843091 c 0.98801,1.8461181 1.44888,32.1707569 1.4737,96.9675909 0.0199,51.8548 -0.0137,94.94032 -0.0747,95.74561 -0.0609,0.80528 -2.4546,2.52107 -5.31926,3.81285 -4.72128,2.129 -8.61856,2.27136 -41.66666,1.5221 C 101.07286,205.67783 83.466667,205.28906 82,205.26852 80.533333,205.24799 64.633333,205.5233 46.666667,205.88031 28.7,206.23734 12.995982,206.22518 11.768849,205.8533 Z M 26,177.30716 c 0,-12.0856 0.481053,-22.71677 1.069008,-23.62482 0.738472,-1.14052 4.516851,-1.55279 12.21988,-1.33334 6.13298,0.17472 11.622745,-0.15314 12.199479,-0.7286 0.576733,-0.57544 1.025361,-31.16778 0.99695,-67.982984 L 52.433661,16.700691 47.216831,15.82035 C 44.347573,15.336162 36.742905,14.585602 30.317567,14.152438 14.701408,13.099676 14.051349,13.743483 12.839937,31.461963 12.343394,38.72455 11.921617,53.966668 11.902653,65.333334 11.791145,132.17253 12.12935,174.09687 12.86377,184.47466 c 0.822945,11.62872 0.898647,11.83568 4.985931,13.63129 C 25.945745,201.6627 26,201.52424 26,177.30716 Z m 26.027192,20.02618 c 0.695919,-1.1 1.274495,-9.59131 1.285724,-18.86956 l 0.02042,-16.86958 -4.19543,-1.46253 c -2.95842,-1.03131 -5.710327,-1.05461 -9.333334,-0.0791 l -5.137902,1.38352 0.0182,16.28194 c 0.02469,22.07278 -0.160827,21.61528 8.764682,21.61528 5.048606,0 7.704044,-0.61916 8.577643,-2 z m 49.311858,0.66485 c 2.12449,-0.67429 2.30672,-2.45716 1.87782,-18.37247 L 102.74188,162 93.47864,161.61043 c -7.950029,-0.33435 -9.364888,-0.0508 -9.980255,2 -0.557701,1.85864 -0.249076,30.13111 0.369515,33.85052 0.174937,1.05185 14.465229,1.49128 17.47115,0.53724 z M 74.977484,185.66667 c 0.170949,-6.41667 0.149423,-15.62533 -0.04784,-20.46371 -0.461601,-11.32214 0.453755,-12.08137 14.680629,-12.17641 6.081015,-0.0407 11.817247,-0.67069 12.747177,-1.40015 1.33378,-1.04624 1.51453,-10.22636 0.85605,-43.47634 -0.4591,-23.182535 -0.91996,-53.550059 -1.02412,-67.483393 L 102,15.333334 88,14.522306 C 80.3,14.07624 71.552819,13.290872 68.56182,12.777044 c -3.985048,-0.684597 -5.859976,-0.425999 -7.016707,0.967778 -1.190933,1.434986 -1.470758,23.814543 -1.139621,91.143688 0.241399,49.08293 0.884327,89.9624 1.428729,90.84325 0.544404,0.88087 3.654414,1.60158 6.911135,1.60158 h 5.921311 z m 51.328146,-9.76409 c -0.16901,-24.51974 -0.27423,-24.29095 10.59028,-23.02811 4.93777,0.57395 8.77877,0.12453 13.52678,-1.58288 5.7008,-2.04999 6.71868,-2.96237 7.25675,-6.50468 1.10032,-7.24371 0.36487,-127.18655 -0.78696,-128.342291 -0.60913,-0.611207 -10.95913,-1.301664 -23,-1.534351 -17.40867,-0.336416 -21.90719,-0.06333 -21.96429,1.333334 -0.13286,3.249306 -0.1897,179.078588 -0.0582,180.089738 0.0715,0.55 3.38204,1 7.35671,1 h 7.22668 z M 157.12868,195 c 0.67237,-1.28333 1.44348,-9.23333 1.71357,-17.66666 L 159.33333,162 148.79315,161.60686 c -5.79711,-0.21623 -11.09318,0.15984 -11.76903,0.83569 -1.27424,1.27424 -2.64523,32.01315 -1.50976,33.85037 0.35367,0.57223 5.08649,1.04042 10.51741,1.04042 8.04959,0 10.10032,-0.4312 11.09691,-2.33334 z"
       id="path668" />
  </g>
</svg>
