<?xml version="1.0" encoding="UTF-8" standalone="no"?>
<!-- Created with Inkscape (http://www.inkscape.org/) -->

<svg
   version="1.1"
   id="svg183"
   width="213.33333"
   height="220"
   viewBox="0 0 213.33333 220"
   xmlns="http://www.w3.org/2000/svg"
   xmlns:svg="http://www.w3.org/2000/svg">
  <defs
     id="defs187" />
  <g
     id="g189">
    <path
       style="fill:#000000;stroke-width:1.33333"
       d="m 44.666666,212.86909 c -8.572663,-2.46854 -11.185057,-4.5748 -14.692922,-11.84626 -4.146622,-8.59554 -4.136746,-11.31911 0.07263,-20.02936 3.2978,-6.82398 3.325207,-7.11464 1.130835,-11.99347 -2.879708,-6.40256 -5.843872,-6.59168 -5.843872,-0.37285 0,3.98001 -2.922011,12.1176 -8.215049,22.87833 -1.453543,2.95505 -6.322674,2.95925 -6.586707,0.005 -0.6524034,-7.29802 2.958761,-20.17249 8.651585,-30.84449 1.173558,-2.2 2.137439,-4.61649 2.141956,-5.36999 0.0045,-0.7535 0.962272,-2.7321 2.128342,-4.3969 2.515361,-3.59118 4.906006,-2.27934 7.886072,4.32741 2.487415,5.51456 5.755706,9.45535 6.896043,8.31501 C 39.117111,162.66067 37.743657,153.73899 34.919245,142 34.213481,139.06667 31.16336,130.06667 28.141194,122 22.427649,106.74958 17.711184,100.32991 13.50057,102.07236 8.5741009,104.11104 6.9566782,104.09954 4.8680777,102.01093 2.3763521,99.519209 3.2561226,96.987241 9.0414583,90 13.778765,84.278516 18.138828,81.728803 25.175134,80.565215 c 7.15776,-1.183672 9.778436,-0.893148 11.137781,1.234718 1.82442,2.855875 1.033018,4.927946 -2.377408,6.224587 -1.985749,0.75498 -4.22023,3.260144 -5.376749,6.028084 -1.908257,4.567101 -1.810726,5.095396 2.731159,14.793996 2.590545,5.53177 4.710082,10.71484 4.710082,11.51795 0,0.8031 1.103039,3.89962 2.451196,6.88115 3.109806,6.87751 5.515864,16.69426 5.663408,23.10677 l 0.1146,4.98086 1.424459,-4 c 0.861667,-2.41964 1.474873,-18.09839 1.552063,-39.68384 l 0.127608,-35.683851 -4,-3.268202 c -2.2,-1.797512 -5.32889,-3.28978 -6.953088,-3.316153 -1.624199,-0.02637 -3.545664,-1.155187 -4.269922,-2.508476 -2.121173,-3.963447 1.734332,-7.892683 10.143242,-10.33722 7.647416,-2.223164 9.968913,-1.968921 21.983375,2.407547 4.585172,1.670225 8.288308,5.764909 7.37235,8.151858 -0.392768,1.023539 -3.299862,2.274456 -6.460208,2.779815 -10.88147,1.740017 -10.499346,0.09125 -10.35179,44.665172 0.118627,35.83334 0.290462,38.72475 1.869722,31.46002 2.794378,-12.8544 8.270157,-29.78324 10.135034,-31.33333 0.441128,-0.36667 2.129384,-4.68463 3.751682,-9.59547 3.325764,-10.067391 2.665384,-13.035668 -3.564456,-16.021552 -5.579888,-2.674371 -4.732408,-6.409325 2.012308,-8.868515 10.662941,-3.887812 21.05051,1.196311 27.798694,13.605876 3.394834,6.242921 1.691125,7.998281 -6.740487,6.944821 l -7.240892,-0.904694 -3.363749,5.086434 c -1.850061,2.79754 -5.260666,11.08643 -7.579122,18.41976 -2.318456,7.33334 -4.652316,13.63334 -5.186354,14 C 66.155634,137.7 65.348895,140.7 64.896918,144 c -0.451976,3.3 -1.232926,9 -1.735442,12.66667 l -0.913666,6.66666 5.286938,-5.66666 C 70.442564,154.55 73.738712,152 74.859521,152 c 2.424718,0 14.473811,18.02161 14.473811,21.64823 0,1.38825 1.250368,5.43065 2.778596,8.9831 2.208313,5.13338 2.472341,7.03127 1.286421,9.24718 -2.147852,4.0133 -6.495689,3.54773 -8.204049,-0.87851 -0.778357,-2.01667 -2.468596,-5.76667 -3.756084,-8.33333 -1.287489,-2.56667 -3.115765,-7.51667 -4.062835,-11 -2.025208,-7.44874 -4.720506,-8.19699 -7.313406,-2.0303 -1.647453,3.91814 -1.529373,4.80443 1.320073,9.90827 3.657263,6.55079 5.252303,13.74639 4.081339,18.41188 -0.456554,1.81905 -4.453739,6.323 -8.882632,10.00876 -8.699612,7.23989 -11.570493,7.88232 -21.914089,4.90381 z M 46.089365,198 c 2.749942,-5.79508 6.27964,-6.04392 9.456062,-0.66667 2.460725,4.16568 7.121239,5.47459 7.121239,2 0,-1.1 -0.856452,-2 -1.903227,-2 -1.835401,0 -6.612621,-5.10745 -7.857108,-8.40024 -0.37348,-0.9882 -2.085328,-0.0279 -4.477941,2.512 -2.130328,2.26148 -4.990909,4.7372 -6.356847,5.50162 -1.551288,0.86814 -2.171662,2.20254 -1.652712,3.5549 1.311376,3.41739 3.272288,2.55232 5.670534,-2.50161 z M 61.082454,182.31803 C 61.353754,180.90928 60.705987,180 59.431098,180 c -1.153771,0 -2.097766,0.25093 -2.097766,0.55761 0,0.3067 -0.387545,1.56755 -0.861212,2.80191 -0.64815,1.68905 -0.239613,2.12457 1.651356,1.7604 1.381912,-0.26613 2.713451,-1.52699 2.958978,-2.80189 z m -17.082455,-0.9847 c 0,-1.46666 -0.864589,-2.66666 -1.92131,-2.66666 -2.355454,0 -3.86141,2.19418 -2.745356,4 1.449986,2.34613 4.666666,1.42708 4.666666,-1.33334 z M 22.054825,91.911292 c 0.483377,-0.782123 0.604665,-1.696247 0.269527,-2.031385 -0.929971,-0.92997 -4.991019,0.911161 -4.991019,2.262745 0,1.669051 3.657747,1.489816 4.721492,-0.23136 z M 53.97584,65.372423 c 0.439939,-0.711835 -0.752593,-1.683892 -2.65007,-2.16013 -3.805084,-0.955014 -5.398908,-0.154677 -4.047263,2.032332 1.098391,1.777232 5.624548,1.8636 6.697333,0.1278 z M 156.58217,206.34867 c -2.15353,-2.57743 -6.61551,-6.02226 -9.91551,-7.65515 -9.43317,-4.66772 -10.60277,-6.89777 -10.63701,-20.28149 -0.0164,-6.42966 0.57236,-11.96004 1.32273,-12.4238 0.74382,-0.45971 2.54344,-3.1705 3.99919,-6.02398 3.72763,-7.30676 8.57869,-11.36372 17.64007,-14.75245 7.14672,-2.67269 8.51249,-2.78601 15.42468,-1.27975 9.73938,2.12236 17.46261,6.61158 23.49104,13.65444 6.54069,7.64132 8.09942,14.03531 6.21026,25.47466 -1.69628,10.27133 -5.63358,17.39434 -12.51696,22.64454 -4.13089,3.15079 -6.36694,3.70816 -17.91157,4.46472 l -13.19141,0.8645 z m 5.72807,-15.78479 c 6.09169,-9.33915 7.46072,-9.43165 14.79365,-0.99955 5.3082,6.10386 10.89611,7.08367 10.89611,1.91058 0,-2.44958 -1.46064,-3.95675 -6.28159,-6.48167 -8.92539,-4.67457 -10.05981,-7.08259 -5.05175,-10.72309 9.50051,-6.90618 12.45196,-12.0796 7.89012,-13.83015 -1.43609,-0.55108 -3.9774,1.32521 -7.95768,5.87527 -6.29346,7.19438 -9.03053,8.57046 -13.64884,6.86204 C 160.9426,172.43463 160,170.97921 160,168.62197 c 0,-7.82372 -6.25688,-11.7037 -9.40066,-5.8295 -1.2333,2.30444 -0.9802,3.3399 1.44827,5.92488 1.61851,1.72282 4.96992,4.09436 7.44756,5.27009 6.28883,2.98424 5.84829,6.4938 -1.64281,13.08773 -5.71804,5.03323 -5.97803,5.53538 -3.72058,7.18607 3.23207,2.36335 4.64054,1.72659 8.17846,-3.69736 z m 31.02309,-13.97591 c 0,-1.14328 -0.60979,-1.70181 -1.35508,-1.2412 -0.74529,0.46062 -1.00989,1.39603 -0.58797,2.0787 1.14297,1.84938 1.94305,1.50454 1.94305,-0.8375 z m -21.69444,-21.39353 c -0.44307,-0.44305 -1.59307,-0.49041 -2.55556,-0.1052 -1.06364,0.42563 -0.74771,0.74157 0.80556,0.80555 1.40555,0.0579 2.19305,-0.25723 1.75,-0.7003 z M 155.18418,94.410173 c -2.8513,-0.507738 -8.61308,-0.957738 -12.80394,-1 -6.21358,-0.06267 -7.88367,-0.569981 -9.04989,-2.749076 -2.94192,-5.497036 4.77042,-21.894978 13.08093,-27.812578 C 158.3376,54.356228 173.73581,52.096935 184,57.333333 186.8749,58.8 190.13012,60 191.23382,60 c 5.77607,0 18.15258,16.926665 18.38627,25.145895 0.23467,8.2536 -1.09171,9.516908 -10.04328,9.565756 -4.53391,0.02475 -15.2106,0.174741 -23.72596,0.333333 -8.51536,0.158592 -17.81536,-0.127067 -20.66667,-0.634811 z M 197.05237,81.475665 C 198.69445,77.196476 179.42714,64 171.5373,64 c -3.59182,0 -16.28954,4.557189 -19.28976,6.923057 -5.8503,4.613358 -8.39701,9.816371 -5.98525,12.228122 0.51092,0.510925 11.97887,0.782948 25.48431,0.604493 20.13752,-0.266087 24.69037,-0.676291 25.30577,-2.280007 z M 11,21.797853 C 8.5394224,20.783984 8.9759093,12.725257 11.666666,9.4893888 13.985206,6.7011444 14.553705,6.6794227 101.33333,6.0633228 149.36666,5.7223057 189.79454,5.3871284 191.17306,5.3184843 195.26924,5.1145133 200,10.570983 200,15.499499 c 0,5.966798 -2.98827,7.433528 -9.90908,4.863677 C 185.59217,18.692689 176.1355,18.36336 134.66666,18.433017 38.475934,18.594593 23.456642,18.790791 22.066877,19.903915 20.164962,21.427243 13.05398,22.644187 11,21.797853 Z"
       id="path807" />
  </g>
</svg>
