<?xml version="1.0" encoding="UTF-8" standalone="no"?>
<!-- Created with Inkscape (http://www.inkscape.org/) -->

<svg
   version="1.1"
   id="svg173"
   width="62.666668"
   height="214.66667"
   viewBox="0 0 62.666668 214.66667"
   xmlns="http://www.w3.org/2000/svg"
   xmlns:svg="http://www.w3.org/2000/svg">
  <defs
     id="defs177" />
  <g
     id="g179">
    <path
       style="fill:#000000;stroke-width:1.33333"
       d="m 6.7894309,207.58943 c -2.0066416,-2.00664 -1.8223937,-4.97469 0.4657682,-7.50309 1.0570261,-1.168 4.9478209,-8.11524 8.6462089,-15.43832 6.52421,-12.9184 6.723226,-13.65199 6.686734,-24.64802 -0.02068,-6.23333 -0.603076,-14.03333 -1.2942,-17.33333 -0.691124,-3.3 -2.162784,-12 -3.270356,-19.33333 C 16.916015,116 15.42051,107 14.700243,103.33333 13.979975,99.666668 13.026459,93.666668 12.581318,90.000001 12.136176,86.333335 10.673749,77.633335 9.331479,70.666668 6.8169211,57.615577 6.0874523,33.848687 8.1620838,32.566494 c 0.6441873,-0.39813 1.1712497,-2.370655 1.1712497,-4.383391 0,-5.189479 6.1230645,-16.821975 11.0264815,-20.9479288 3.528214,-2.9687955 4.96063,-3.3648485 9.528164,-2.6344703 6.736938,1.0772797 9.226024,3.3225933 13.604711,12.2723041 7.310103,14.941312 8.655739,39.232042 3.755574,67.79366 -2.804115,16.344362 -5.615058,31.301012 -7.266986,38.666672 -0.82234,3.66666 -2.413956,13.22301 -3.536925,21.23633 -1.691203,12.06813 -1.757463,15.90935 -0.385916,22.37236 0.910714,4.29148 2.170132,8.12055 2.798704,8.50903 0.628573,0.38848 1.14286,1.84084 1.14286,3.22745 0,2.81059 6.285935,12.69032 10.501384,16.50525 1.502947,1.36015 3.60532,2.13811 4.671944,1.7288 1.745895,-0.66996 3.493339,1.53008 3.493339,4.39812 0,0.60092 -2.203076,2.39243 -4.895724,3.98114 -4.332488,2.55622 -7.232871,2.93832 -25.21057,3.32113 -13.461492,0.28664 -20.8060701,-0.0587 -21.7709431,-1.02352 z M 37.333334,198.0824 c 0,-2.7081 -7.04054,-13.98948 -8.762324,-14.04025 -1.443401,-0.0426 -7.237676,11.473 -7.237676,14.38419 0,1.03448 2.741057,1.57366 8,1.57366 6.069436,0 8,-0.46276 8,-1.9176 z m -6.851129,-91.16959 c -6.34e-4,-1.96871 0.993749,-8.379475 2.209737,-14.246142 6.191916,-29.87356 4.34372,-69.87784 -3.420323,-74.03303 -2.949281,-1.578407 -3.993334,-0.17583 -7.198728,9.670746 -2.157789,6.628463 -2.368215,10.112139 -1.592439,26.363333 0.491644,10.299088 1.49776,21.562115 2.235814,25.02895 0.738053,3.466833 1.590468,10.203334 1.894255,14.970001 0.898692,14.101212 2.062118,18.988232 4.114856,17.284612 0.966888,-0.80245 1.75746,-3.06976 1.756828,-5.03847 z"
       id="path946" />
  </g>
</svg>
