<?xml version="1.0" encoding="UTF-8" standalone="no"?>
<!-- Created with Inkscape (http://www.inkscape.org/) -->

<svg
   version="1.1"
   id="svg83"
   width="214.66667"
   height="217.33333"
   viewBox="0 0 214.66667 217.33333"
   xmlns="http://www.w3.org/2000/svg"
   xmlns:svg="http://www.w3.org/2000/svg">
  <defs
     id="defs87" />
  <g
     id="g89">
    <path
       style="fill:#000000;stroke-width:1.33333"
       d="m 51.613939,212.16218 c -13.637829,-0.86601 -15.934593,-1.98133 -14.59883,-7.08929 0.883206,-3.37739 1.209364,-3.45804 16.661001,-4.11964 13.676223,-0.5856 16.34254,-1.70069 20.036986,-8.37977 0.891132,-1.61104 4.170239,-6.27352 7.286905,-10.36107 3.796727,-4.97944 5.666667,-8.77063 5.666667,-11.48881 0,-2.23132 -0.45,-4.13351 -1,-4.2271 -0.55,-0.0936 -2.2,-0.336 -3.666667,-0.53866 -4.40715,-0.60902 -18.683593,-5.57039 -24.184459,-8.40462 -10.294189,-5.30392 -20.931228,-19.98785 -20.919768,-28.87875 0.01029,-7.98546 8.399028,-22.0078 13.165961,-22.0078 2.439471,0 13.801062,-10.533775 16.047854,-14.87859 1.656473,-3.203268 1.733128,-4.70038 0.425783,-8.315781 C 63.891381,76.160473 61.656997,75.528346 36.883991,75.08364 24.536852,74.861995 13.886852,74.342092 13.217324,73.928302 11.469941,72.848359 11.716448,67.483551 13.6,65.599999 c 0.989175,-0.989175 5.853979,-1.6 12.742907,-1.6 13.824762,0 21.944472,-1.965479 26.858443,-6.501424 8.685834,-8.017644 11.733604,-9.498576 19.548155,-9.498576 13.503035,0 25.012779,9.197792 24.990263,19.970492 -0.01307,6.252144 -3.939689,17.128398 -7.850753,21.745616 -2.138958,2.52515 -6.785195,6.525861 -10.324972,8.890467 -3.539778,2.364606 -6.225499,4.509746 -5.968271,4.766976 0.257228,0.25722 5.543611,1.10415 11.747519,1.88206 6.203906,0.7779 14.289629,2.57023 17.968269,3.98296 3.67864,1.41273 10.28844,3.58295 14.68844,4.82272 4.4,1.23977 9.2,2.9954 10.66667,3.90141 1.46667,0.906 4.46667,2.00289 6.66667,2.43754 2.2,0.43464 9.1,2.0204 15.33333,3.52392 12.08139,2.9141 14.31357,2.87182 40.41924,-0.76564 10.47721,-1.45984 14.8986,-1.61128 16.17265,-0.55392 2.58352,2.14413 3.58476,9.00446 2.59323,17.76838 -0.83987,7.4235 -1.09453,7.84311 -6.28068,10.34879 -2.97292,1.43636 -7.24263,2.6076 -9.48821,2.60275 -5.13376,-0.0107 -23.89294,2.49433 -30.0829,4.01777 -2.56666,0.63168 -9.91666,1.85024 -16.33333,2.70788 C 141.25,160.90782 136,161.87718 136,162.20432 c 0,0.32712 0.8178,2.21497 1.81735,4.19522 0.99955,1.98026 2.22207,10.10594 2.71672,18.05708 0.58545,9.41082 1.61229,15.54471 2.94196,17.57403 1.89101,2.88604 1.82455,3.33544 -0.89564,6.05563 -2.65783,2.65782 -3.87273,2.86754 -12.73062,2.19762 -5.64163,-0.42666 -11.38968,-0.13768 -13.56069,0.68179 -4.70177,1.77472 -13.43955,-0.0796 -15.45873,-3.28072 -2.022463,-3.20627 0.0324,-4.78644 7.1799,-5.52123 3.29436,-0.33868 9.43975,-1.04666 13.65642,-1.57333 l 7.66667,-0.95756 v -12.73392 c 0,-11.01096 -0.40592,-13.33017 -3,-17.14065 -3.27573,-4.81175 -4.3047,-5.01418 -18.13775,-3.56834 L 100,167.04654 v 4.37443 c 0,2.53833 -1.263132,5.95639 -3.009362,8.14339 -1.655151,2.07293 -5.872967,8.05164 -9.372927,13.286 -5.811342,8.69116 -6.22442,9.82242 -4.760138,13.03617 1.228666,2.69663 1.237052,3.88551 0.03588,5.08668 -1.877725,1.87772 -13.484967,2.31893 -31.279514,1.18897 z m 70.235591,-57.5374 c 12.54942,-1.4897 27.91714,-3.8923 34.15047,-5.33912 6.23334,-1.44681 13.43334,-2.86778 16,-3.15773 2.56667,-0.28995 8.56667,-0.96768 13.33334,-1.50608 11.67954,-1.31923 13.33333,-2.3346 13.33333,-8.18623 v -4.80388 l -8.78547,0.9001 c -4.83201,0.49506 -13.1878,2.37792 -18.56842,4.18413 C 165.93215,138.52218 159.67459,140 157.40707,140 c -2.26752,0 -8.46172,1.15713 -13.76491,2.57141 -8.83274,2.35555 -40.84104,6.45661 -53.642159,6.87291 -2.933333,0.0953 -9.493713,-0.46094 -14.578624,-1.2363 -7.855329,-1.19777 -9.952965,-2.1174 -13.95238,-6.11681 -4.258559,-4.25856 -4.707091,-5.41357 -4.707091,-12.12124 0,-6.61889 0.423944,-7.75294 3.95238,-10.57255 5.142563,-4.10948 3.571743,-5.49568 -3.641401,-3.21343 -4.557204,1.44191 -6.26137,2.88479 -8.27265,7.0043 -2.209494,4.52548 -2.316758,5.78656 -0.839636,9.87147 3.264391,9.02752 13.944954,17.26036 26.043837,20.07522 20.7494,4.82746 19.940425,4.80227 47.845094,1.4898 z m 11.03929,-18.49922 c 5.98885,-1.53572 12.28885,-2.8438 14,-2.90683 3.10632,-0.11443 3.10597,-0.11636 -0.22215,-1.23459 -1.83333,-0.61598 -8.88584,-2.6535 -15.67223,-4.5278 -6.78639,-1.8743 -14.71249,-4.61874 -17.61355,-6.09875 -5.35281,-2.7308 -14.39988,-3.41121 -19.380889,-1.4576 -1.466666,0.57525 -4.222586,0.60194 -6.124266,0.0593 -8.11722,-2.31614 -22.542401,4.76727 -22.542401,11.06932 0,7.27614 5.753362,8.60991 35.333336,8.19117 16.54477,-0.23422 23.77748,-0.92876 32.22215,-3.09424 z M 85.366949,79.666665 c 2.965488,-4.829023 2.942668,-8.292623 -0.05543,-8.412293 -6.87416,-0.274381 -12.915997,-7.336338 -11.410041,-13.336544 0.448795,-1.788138 0.272368,-3.251162 -0.392058,-3.251162 -1.820946,0 -13.947523,8.458728 -14.455355,10.083133 -0.243553,0.779057 2.596688,2.790155 6.311648,4.469107 4.449803,2.01106 8.212528,5.035809 11.027711,8.864866 2.350283,3.196724 4.732059,5.835627 5.292837,5.864227 0.56078,0.0286 2.217087,-1.898 3.680684,-4.281334 z M 113.01948,41.184191 c -1.18404,-0.66262 -2.85458,-3.331206 -3.71233,-5.930192 -1.83867,-5.571233 -4.08884,-5.395361 -5.60034,0.437719 -1.30658,5.042243 -2.84015,6.148221 -7.05752,5.089728 -2.362089,-0.592847 -3.429467,-2.03062 -4.079386,-5.494989 C 92.085775,32.705829 90.562332,29.991073 89.184476,29.253666 86.4538,27.792253 30.505519,28.398149 16.591527,30.039817 9.922529,30.82667 8.1231628,30.599353 6.2581936,28.734384 3.8122557,26.288446 3.4624785,24.24323 5.0602182,21.729589 6.264947,19.834252 25.121227,18.809646 62.154438,18.627225 90.572103,18.487244 92.853124,17.884041 93.583483,10.315993 93.909059,6.9423543 94.688599,5.9025722 97.153782,5.55378 c 3.966128,-0.5611567 5.557408,1.0171651 6.710678,6.65602 1.25063,6.114892 4.37525,5.674113 6.21315,-0.876467 1.30675,-4.6574352 1.98806,-5.3333331 5.37605,-5.3333331 3.5955,0 3.90922,0.405016 4.28297,5.5294531 0.49271,6.755496 0.90194,6.889348 18.02733,5.896519 7.20352,-0.417619 14.03519,-0.233792 15.18148,0.408502 1.14628,0.642295 5.45251,0.714747 9.56936,0.161006 6.61012,-0.8891 25.62367,-1.917671 38.7018,-2.093642 2.68238,-0.03609 5.53859,0.92923 6.95856,2.351804 2.05692,2.060682 2.1659,2.899747 0.74635,5.746358 l -1.66227,3.333333 -41.29629,0.985904 c -22.71295,0.542248 -41.9326,1.229792 -42.71031,1.527876 -0.77772,0.298085 -2.13321,2.942338 -3.01219,5.87612 -1.72713,5.764641 -3.83279,7.357078 -7.22097,5.460958 z"
       id="path1085" />
  </g>
</svg>
