<?xml version="1.0" encoding="UTF-8" standalone="no"?>
<!-- Created with Inkscape (http://www.inkscape.org/) -->

<svg
   version="1.1"
   id="svg195"
   width="100"
   height="190.66667"
   viewBox="0 0 100 190.66667"
   xmlns="http://www.w3.org/2000/svg"
   xmlns:svg="http://www.w3.org/2000/svg">
  <defs
     id="defs199" />
  <g
     id="g201">
    <path
       style="fill:#000000;stroke-width:1.33333"
       d="M 16.789192,183.76622 C 13.337361,183.27098 9.64768,182.14751 8.5899011,181.26963 5.9218836,179.05536 6.1880576,173.1243 9.2586089,166.369 c 1.4255681,-3.13628 2.9420561,-7.37248 3.3699741,-9.41377 1.044622,-4.98316 14.998156,-18.52603 22.92858,-22.25377 12.8977,-6.06263 36.585208,-1.79891 42.119792,7.5815 1.444905,2.44894 3.685425,5.01902 4.978932,5.71127 C 85.478775,149.505 96,172.91287 96,177.68254 c 0,1.95693 -0.976569,3.76036 -2.333333,4.30894 -4.53556,1.83388 -66.495734,3.26424 -76.877475,1.77474 z M 72.333333,171.12659 C 79.804856,170.35656 83.178481,168 76.809319,168 c -4.389062,0 -5.80345,-4.12134 -2.229324,-6.49596 3.624177,-2.40788 3.428722,-4.11862 -0.950366,-8.31824 -6.067473,-5.81878 -14.00506,-10.35637 -19.685645,-11.25348 -14.594284,-2.30481 -31.508272,9.65276 -33.424004,23.62955 -0.732649,5.34527 -0.509892,6.25285 1.649837,6.72197 3.273996,0.71116 40.328924,-0.14368 50.163516,-1.15725 z M 28.437179,86.928412 C 25.377627,86.705704 22.277636,85.804483 21.548309,84.925699 20.764289,83.981012 20.077965,69.017711 19.869248,48.318634 19.523381,14.018126 19.575879,13.228687 22.462395,9.3244654 25.304797,5.47991 25.747673,5.3498865 35.037612,5.6325201 c 5.29598,0.1611229 16.566492,0.078368 25.045584,-0.1838993 9.650793,-0.2985096 16.449373,0.075912 18.178167,1.001134 3.971381,2.1254185 4.6134,7.4836762 5.166565,43.1198532 0.439591,28.319443 0.254041,31.860737 -1.802277,34.397427 -2.155866,2.659493 -3.641562,2.843847 -24.958984,3.09706 C 44.2,87.212178 31.496731,87.15112 28.437179,86.928412 Z M 73.447873,75.085461 c 0.622059,-0.622058 0.700766,-14.020765 0.174904,-29.774904 l -0.95611,-28.64389 -20.936106,0.04722 c -11.514858,0.02597 -21.411213,0.522324 -21.9919,1.103011 -1.183717,1.183717 -0.95397,44.233238 0.275183,51.563218 0.520015,3.101075 1.793097,5.154352 3.721607,6.002348 3.545178,1.558871 38.115092,1.300331 39.712422,-0.297 z"
       id="path223" />
  </g>
</svg>
