<?xml version="1.0" encoding="UTF-8" standalone="no"?>
<!-- Created with Inkscape (http://www.inkscape.org/) -->

<svg
   version="1.1"
   id="svg295"
   width="216"
   height="156"
   viewBox="0 0 216 156"
   xmlns="http://www.w3.org/2000/svg"
   xmlns:svg="http://www.w3.org/2000/svg">
  <defs
     id="defs299" />
  <g
     id="g301">
    <path
       style="fill:#000000;stroke-width:1.33333"
       d="m 75.973877,147.03163 c -1.98665,-1.3915 -2.640544,-3.3814 -2.640544,-8.03556 0,-7.64705 4.449114,-14.60926 12.922467,-20.22178 5.657023,-3.74705 7.460969,-4.15242 25.7442,-5.78508 17.66534,-1.57749 40.614,22.39679 30.81676,32.19403 -2.57121,2.57121 -4.35684,2.82577 -20.48343,2.92016 -9.71666,0.0568 -23.528418,0.25513 -30.692786,0.44057 -9.406032,0.24347 -13.759957,-0.17682 -15.666667,-1.51234 z m 58.692793,-10.18515 c 0,-5.28132 -9.75487,-12.5613 -18.56544,-13.85523 -12.98337,-1.90677 -20.19337,0.13757 -29.10123,8.25144 -7.833539,7.13531 -6.991064,7.42398 21.66667,7.42398 21.08068,0 26,-0.34439 26,-1.82019 z M 9.178912,43.526876 c -1.1432161,-2.509087 -0.8696408,-4.239332 1.361918,-8.613549 1.535877,-3.010568 2.792503,-6.157226 2.792503,-6.992574 0,-3.286072 9.777299,-17.254086 12.077476,-17.254086 2.959328,0 9.769791,8.475296 13.393776,16.667916 2.508468,5.670808 2.942935,6.037217 4.976451,4.19691 1.225417,-1.108988 3.391829,-5.015381 4.814247,-8.680873 6.467392,-16.6661155 10.084649,-16.0770833 22.128926,3.603461 3.236423,5.288367 4.667435,4.816406 8.375334,-2.762265 3.896836,-7.964848 8.108341,-13.025149 10.840358,-13.025149 1.843618,0 6.665659,5.66959 12.777649,15.023529 L 106,30.713724 l 2.99338,-3.690195 c 1.64635,-2.029608 2.99635,-4.08635 3,-4.570538 0.004,-0.484188 1.6132,-3.334188 3.5768,-6.333334 4.92792,-7.5267831 7.82347,-7.1352749 14.42982,1.951062 2.93333,4.03449 6.28616,8.614518 7.45073,10.177838 2.86222,3.842252 4.57322,2.452202 9.30266,-7.557657 4.51092,-9.547387 6.74616,-11.9171115 10.18262,-10.7952855 2.41447,0.7881955 7.35859,7.3778045 11.06828,14.7520125 3.30566,6.571036 6.03548,5.823041 10.56624,-2.895226 4.69394,-9.032281 7.17892,-12.4190677 9.11222,-12.4190677 1.83352,0 13.65058,15.9512857 13.65058,18.4262757 0,1.059099 1.26039,3.964991 2.80087,6.457539 1.85293,2.998108 2.52123,5.646112 1.9746,7.824045 -1.65072,6.577024 -7.1884,2.540315 -13.31752,-9.70786 -1.92657,-3.85 -4.31888,-7 -5.31621,-7 -0.99735,0 -3.16323,3.137884 -4.81308,6.973075 -7.55799,17.569012 -13.05606,17.229085 -22.54122,-1.393651 -1.61185,-3.164649 -3.64842,-5.537673 -4.5257,-5.273386 -0.8773,0.264286 -3.73876,4.653546 -6.35883,9.753909 -4.49236,8.745079 -5.02408,9.273387 -9.33333,9.273387 -4.20551,0 -4.89612,-0.614883 -8.66834,-7.717814 -4.66297,-8.780188 -7.71551,-12.299706 -9.6375,-11.111852 -0.72902,0.45056 -2.3957,3.795348 -3.70373,7.432863 -2.30105,6.398995 -7.44005,13.396803 -9.83825,13.396803 -3.39694,0 -6.0743,-2.52595 -11.520471,-10.868952 -3.326778,-5.096302 -6.627262,-8.819148 -7.396903,-8.343483 -0.764359,0.472399 -3.082621,4.632017 -5.151697,9.243596 -5.980568,13.329559 -10.299334,13.119971 -19.480963,-0.9454 -6.936733,-10.626407 -7.360285,-10.578028 -13.133089,1.500076 -2.116794,4.428844 -4.970826,8.408587 -6.342292,8.843873 -3.099787,0.983835 -8.275159,-2.295854 -11.227435,-7.114946 -5.970299,-9.745506 -7.933815,-12.297262 -9.468907,-12.305654 -0.916666,-0.005 -1.666666,0.910836 -1.666666,2.035215 0,1.124379 -1.578687,5.174379 -3.508194,9 -4.882348,9.6802 -7.518798,11.216669 -9.979561,5.815884 z"
       id="path1446" />
  </g>
</svg>
