<?xml version="1.0" encoding="UTF-8" standalone="no"?>
<!-- Created with Inkscape (http://www.inkscape.org/) -->

<svg
   version="1.1"
   id="svg185"
   width="218.66667"
   height="208"
   viewBox="0 0 218.66667 208"
   xmlns="http://www.w3.org/2000/svg"
   xmlns:svg="http://www.w3.org/2000/svg">
  <defs
     id="defs189" />
  <g
     id="g191">
    <path
       style="fill:#000000;stroke-width:1.33333"
       d="m 26.020834,199.66667 c -5.31217,-9.01266 -9.737182,-13.3852 -12.748805,-12.59764 -6.7118392,1.75518 -9.7525411,-9.3107 -3.8131274,-13.87692 1.7642714,-1.35639 2.5289944,-2.47948 1.6993854,-2.49579 -0.829609,-0.0163 -2.1904649,-2.73845 -3.0241238,-6.04921 -1.2500112,-4.96426 -1.1548819,-6.7174 0.5426203,-10 1.9320695,-3.73622 2.5411775,-3.98044 9.9273505,-3.98044 6.948781,0 8.198076,0.41837 10.683145,3.57762 4.296227,5.46176 3.10698,7.68623 -4.365081,8.16479 -5.877806,0.37645 -6.317416,0.64227 -5.512675,3.33333 1.106716,3.70087 5.054732,7.0628 12.197791,10.38702 3.084023,1.43524 7.462321,4.1704 9.729551,6.07814 l 4.122237,3.46864 22.27045,-0.96577 c 12.248747,-0.53117 42.963148,-1.35832 68.254228,-1.83811 L 181.96756,182 l 1.68947,-3.5286 c 0.92921,-1.94073 2.05331,-6.44073 2.49799,-10 1.41333,-11.3124 3.82252,-16.9402 7.69528,-17.97593 4.85821,-1.2993 18.14177,0.70344 19.6682,2.96532 1.50528,2.23053 0.93568,41.10862 -0.63848,43.57978 -0.8713,1.36776 -17.53075,1.59099 -83.78105,1.1226 -68.646872,-0.48532 -83.448537,-0.26916 -87.138399,1.27256 -2.444688,1.02146 -4.821326,2.4663 -5.281418,3.21074 C 36.219061,203.39091 34.207397,204 32.208788,204 c -2.6869,0 -4.299409,-1.12921 -6.187954,-4.33333 z m 177.848726,-18.5323 c 0.80508,-2.30944 1.46378,-7.369 1.46378,-11.24349 0,-5.99751 -0.41844,-7.17732 -2.81535,-7.93807 -4.54016,-1.44098 -6.42765,1.90954 -7.37249,13.087 l -0.87012,10.29352 h 4.06521 c 3.36095,0 4.3188,-0.72742 5.52897,-4.19896 z M 147.5312,59.088701 C 146.77219,58.323616 89.899691,56.817524 75.07241,57.169853 64.170684,57.428904 55.696922,57.000075 52.795406,56.042488 48.098759,54.492455 42.666667,47.81304 42.666667,43.587977 c 0,-3.20019 -1.78298,-3.672949 -8.852196,-2.347172 -4.103177,0.76952 -8.927168,0.719611 -13.147804,-0.136029 C 17,40.361443 12.68999,39.507381 11.088867,39.206864 4.8710319,38.039829 6.1358986,30.182897 13.498875,24.236696 18.771992,19.978225 18.478887,16.342572 12.666667,13.914071 9.1991388,12.465245 8.0000001,11.154234 8.0000001,8.8120329 c 0,-4.8307506 3.0244369,-6.5445808 9.5914379,-5.435093 7.539265,1.2737505 11.387377,3.9736309 12.430096,8.7211011 1.09872,5.002442 2.224709,4.912251 6.360025,-0.509429 3.953988,-5.1839447 13.229915,-8.9009273 16.736155,-6.7063912 3.610802,2.2599808 3.459388,8.1416872 -0.351144,13.6402872 -3.836112,5.535511 -4.431628,10.989048 -1.468519,13.448209 1.080594,0.896814 2.323774,3.820282 2.762622,6.496594 0.438848,2.676312 1.488771,6.277045 2.333163,8.001628 2.913062,5.949626 12.32303,2.514498 29.008735,-10.589698 4.796044,-3.766594 19.924119,-5.751962 28.587389,-3.75173 7.44462,1.718864 7.27801,1.666002 19.34338,6.137186 4.76666,1.766432 11.66666,4.012471 15.33333,4.991198 3.66667,0.978725 9.4204,2.737649 12.78608,3.908717 4.00725,1.394299 12.97527,2.383043 25.98231,2.864607 10.92458,0.404465 20.40052,1.273024 21.05762,1.930129 2.40231,2.402301 -0.42918,5.200452 -6.08168,6.010077 -5.10438,0.731119 -54.27008,1.733855 -54.8798,1.119276 z M 122.48137,46.809407 c 1.2704,-0.804904 0.2706,-1.42243 -3.33334,-2.058847 -12.16661,-2.148488 -19.247276,-2.328104 -21.414709,-0.543229 -1.910553,1.573337 -1.456448,1.890517 3.711559,2.59241 9.28069,1.260459 19.05524,1.26495 21.03649,0.0096 z"
       id="path362" />
  </g>
</svg>
