<?xml version="1.0" encoding="UTF-8" standalone="no"?>
<!-- Created with Inkscape (http://www.inkscape.org/) -->

<svg
   version="1.1"
   id="svg175"
   width="214.66667"
   height="208"
   viewBox="0 0 214.66667 208"
   xmlns="http://www.w3.org/2000/svg"
   xmlns:svg="http://www.w3.org/2000/svg">
  <defs
     id="defs179" />
  <g
     id="g181">
    <path
       style="fill:#000000;stroke-width:1.33333"
       d="m 101.88879,201.64625 c -0.7945,-0.53877 -4.026368,-5.35229 -7.181935,-10.69672 -3.155566,-5.34442 -6.386023,-9.50092 -7.178795,-9.23666 -0.792772,0.26426 -2.749628,3.73697 -4.348569,7.71713 -3.282804,8.17172 -8.103837,12.63603 -12.231111,11.32608 -1.487979,-0.47227 -5.207243,-5.06987 -8.265031,-10.21688 -3.057788,-5.14703 -6.262455,-9.13019 -7.121481,-8.85147 -1.704836,0.55314 -7.525879,11.3099 -7.548093,13.9482 -0.01915,2.27427 -6.26004,6.14403 -8.513873,5.27915 -2.317684,-0.88937 -14.166568,-16.16053 -14.166568,-18.25825 0,-2.9207 -3.334267,-0.4538 -4.666667,3.45269 -0.733333,2.15008 -2.713481,6.12461 -4.400328,8.83229 -3.82874,6.14582 -6.9510686,5.50336 -6.8904925,-1.4178 0.053011,-6.05674 6.6818955,-22.05072 9.3281965,-22.50681 1.079444,-0.18604 6.340359,2.95899 11.690924,6.98895 5.350566,4.02994 10.210798,7.32718 10.800516,7.32718 0.589718,0 3.085335,-3.96616 5.545815,-8.8137 2.46048,-4.84754 5.196093,-9.09095 6.079141,-9.4298 3.137229,-1.20387 9.823886,3.60901 11.892505,8.55992 2.439925,5.83956 5.67929,9.68358 8.160374,9.68358 0.986342,0 1.79335,-0.95742 1.79335,-2.12761 0,-5.11191 9.531859,-17.87239 13.350369,-17.87239 2.897035,0 6.774063,4.44514 11.338557,13 2.054186,3.85 4.414186,7 5.244436,7 0.83025,0 3.10929,-3.15937 5.06453,-7.02084 3.73287,-7.37217 8.22171,-12.97916 10.39085,-12.97916 2.119,0 11.145,10.70038 13.0872,15.51495 2.75018,6.81751 5.56819,5.66663 10.85739,-4.43415 5.94524,-11.35364 8.17828,-12.8342 12.66822,-8.39942 1.84793,1.82524 4.62409,4.51862 6.16924,5.98529 1.54514,1.46667 3.65698,4.64085 4.69297,7.05375 2.25791,5.25886 3.33524,4.79808 7.13531,-3.05183 3.0874,-6.37772 8.76576,-11.33525 12.98337,-11.33525 3.00565,0 7.55328,6.11352 14.50253,19.49624 5.22078,10.05404 5.30047,13.83709 0.2915,13.83709 -2.85484,0 -15.77647,-12.13679 -15.77647,-14.81821 0,-3.07032 -3.05017,-0.47072 -8,6.81821 -4.0048,5.89732 -6.24144,8 -8.50969,8 -2.76648,0 -7.49031,-3.59784 -7.49031,-5.70488 0,-0.45553 -1.99623,-4.14207 -4.43605,-8.19229 -3.39346,-5.6333 -4.80363,-6.99648 -6,-5.80011 -0.86018,0.86017 -1.56395,2.15451 -1.56395,2.87632 0,2.25216 -5.36768,12.52295 -7.44624,14.24799 -1.08871,0.90356 -3.90401,1.5881 -6.25623,1.52122 -4.30387,-0.1224 -4.8323,-0.58458 -11.63086,-10.17342 -1.83334,-2.58579 -3.86296,-4.71794 -4.51028,-4.73812 -1.83799,-0.0573 -6.15639,5.4632 -6.15639,7.87016 0,2.68386 -7.21934,10.76718 -9.59151,10.73938 -0.958,-0.0107 -2.39187,-0.46122 -3.18637,-1 z m 53.6488,-39.88644 c -0.36216,-0.36217 -9.12729,-0.67014 -19.47805,-0.6844 -20.20999,-0.0279 -23.30945,-0.981 -22.46383,-6.90828 0.37428,-2.62345 1.23365,-2.84045 11.5773,-2.92341 12.77137,-0.1024 12.62939,-0.001 19.06275,-13.48879 l 3.93298,-8.24506 -2.05087,-8.4216 c -1.12799,-4.63188 -2.2908,-11.45791 -2.58403,-15.16895 -0.3019,-3.82073 -2.0514,-9.599368 -4.03349,-13.322721 C 137.57516,88.980139 136,85.572491 136,85.024048 c 0,-0.548444 -4.10398,-7.153217 -9.11995,-14.677276 -11.88283,-17.824461 -12.66778,-20.236984 -10.78156,-33.136865 1.97364,-13.497834 1.6333,-14.67354 -4.76515,-16.461318 -10.27596,-2.87118 -6.74538,-10.023602 7.0785,-14.3399806 9.33932,-2.9161175 18.32531,-3.0507183 23.5005,-0.3520127 2.15177,1.1220919 4.70177,1.7372264 5.66666,1.3669655 1.1221,-0.4305897 1.76258,0.3928732 1.77719,2.2849519 0.0126,1.6269849 1.20228,7.4581539 2.64381,12.9581539 1.44154,5.5 2.63126,11.657453 2.64382,13.683228 0.0184,2.970024 1.3783,4.558014 7.02285,8.200913 3.85,2.484727 9.1,6.737152 11.66667,9.449833 2.56666,2.71268 8.11666,7.607338 12.33333,10.877016 4.21667,3.269678 7.66667,6.549834 7.66667,7.289235 0,1.474043 4.53409,7.827853 12.31124,17.252251 7.37586,8.938128 6.85796,10.774357 -4.996,17.713397 -5.50995,3.2254 -12.67752,6.60896 -15.92795,7.51902 l -5.90984,1.65465 2.13736,5.34181 c 1.73323,4.33175 1.84565,6.14852 0.59461,9.60822 -0.84852,2.34653 -1.54276,7.90384 -1.54276,12.34959 0,6.96181 0.36994,8.17989 2.66667,8.7805 3.03901,0.79472 3.74012,6.76972 1,8.52226 -1.81452,1.16053 -27.05592,1.92437 -28.12908,0.85122 z m 6.83616,-10.56789 c 3.98995,-0.79799 4.05217,-0.94099 4.98251,-11.45087 0.84324,-9.52591 0.62461,-11.26008 -2.08336,-16.52524 -3.75095,-7.29304 -5.79782,-7.60208 -4.6316,-0.69931 1.08028,6.39407 -1.0946,14.87754 -5.53384,21.58567 -4.79388,7.24404 -2.87355,9.11771 7.26629,7.08975 z m 14.42729,-48.40755 c 2.1261,-0.6686 6.791,-2.0186 10.36647,-3.000005 3.57547,-0.981401 6.78545,-2.523386 7.13329,-3.426634 0.34784,-0.903248 -1.22753,-4.17145 -3.50084,-7.26267 -2.2733,-3.091221 -4.13329,-6.34288 -4.13329,-7.225909 C 186.66667,79.338491 174.49659,68 171.78032,68 c -1.64222,0 -2.4542,0.986632 -2.46892,3 -0.012,1.65 -1.37712,5.4 -3.03345,8.333333 -3.95121,6.997499 -9.12333,8.006424 -11.50972,2.245199 -0.88737,-2.142307 -3.67324,-5.891575 -6.19081,-8.331707 C 146.05984,70.806693 144,68.274097 144,67.618835 c 0,-0.655264 -1.17441,-2.187563 -2.60981,-3.405111 -1.4354,-1.217548 -2.99665,-3.848623 -3.46945,-5.846833 -0.69224,-2.925627 -0.0524,-4.440378 3.28589,-7.778648 3.99051,-3.990506 4.07409,-4.30341 2.23504,-8.366891 -1.05079,-2.321744 -2.60923,-8.571352 -3.46323,-13.888019 -1.5577,-9.697764 -3.06698,-11.9722 -4.6451,-7 C 134.81155,22.977352 133.31596,24 131.43343,24 c -2.75841,0 -3.13634,0.792129 -3.91015,8.195588 -1.43309,13.710995 -1.06286,18.006492 1.84079,21.357811 4.46076,5.148494 11.98087,17.276432 15.98521,25.779934 2.07199,4.4 7.30482,11.75 11.62851,16.333334 8.33107,8.831353 11.15251,9.844413 19.82325,7.117703 z M 157.33334,63.333333 C 157.33334,60.477841 156.7266,60 153.10092,60 H 148.8685 L 152,63.333333 c 1.72234,1.833334 3.62692,3.333334 4.23242,3.333334 0.6055,0 1.10092,-1.5 1.10092,-3.333334 z M 7.6666668,120.56145 C 5.5583297,118.44069 6.8265249,103.18877 9.8136432,94.740887 12.160643,88.103329 13.754194,85.687903 16.817876,84.124209 c 2.181299,-1.113328 5.56058,-4.26394 7.509516,-7.00136 2.525252,-3.5469 5.190442,-5.445804 9.27473,-6.608093 3.152167,-0.897031 6.301212,-2.129817 6.997879,-2.739527 0.696666,-0.609709 4.445065,-1.108562 8.329776,-1.108562 16.747307,0 35.427872,14.972436 42.325028,33.923423 3.448803,9.47612 4.199071,14.94121 2.391446,17.41973 -0.594823,0.81559 -12.501096,1.4584 -30.312917,1.63656 -16.133333,0.16137 -35.033334,0.65961 -42,1.10719 -6.966667,0.44757 -13.1166672,0.36112 -13.6666672,-0.19212 z M 77.666668,107.38937 c 3.38266,-1.46132 2.862429,-5.87213 -0.894476,-7.583895 -1.823403,-0.830798 -2.933118,-2.238644 -2.550507,-3.235715 1.126474,-2.935541 -3.862463,-9.89186 -10.147167,-14.148695 -5.264224,-3.565629 -7.008105,-4.009276 -15.626759,-3.975472 -9.933614,0.03896 -11.951137,0.89828 -23.395339,9.964719 -5.112608,4.05036 -6.927542,17.044308 -2.719086,19.467188 2.670141,1.53724 51.645096,1.10521 55.333334,-0.48813 z"
       id="path501" />
  </g>
</svg>
