<?xml version="1.0" encoding="UTF-8" standalone="no"?>
<!-- Created with Inkscape (http://www.inkscape.org/) -->

<svg
   version="1.1"
   id="svg165"
   width="216"
   height="216"
   viewBox="0 0 216 216"
   xmlns="http://www.w3.org/2000/svg"
   xmlns:svg="http://www.w3.org/2000/svg">
  <defs
     id="defs169" />
  <g
     id="g171">
    <path
       style="fill:#000000;stroke-width:1.33333"
       d="m 67.349917,210.90597 c -0.234777,-0.23505 -13.981333,-0.41776 -30.547901,-0.40602 l -30.1210332,0.0213 -0.921848,-3.59397 C 4.4938883,201.99453 4.5594276,182.33089 5.8480647,180.24584 6.655276,178.93975 14.759829,178.57761 41.114732,178.67007 89.820863,178.84093 88,178.90905 88,176.91612 c 0,-0.9628 -1.827665,-3.50156 -4.06148,-5.64169 -5.243199,-5.0233 -5.201575,-11.71566 0.07671,-12.3323 2.667204,-0.3116 4.392021,0.97708 8.47675,6.33334 5.388538,7.06592 7.440684,8.01881 10.17469,4.72453 2.35529,-2.83795 8.48818,-2.47719 11.33333,0.66667 3.66187,4.04632 5.41775,3.32344 11.50218,-4.73534 4.91701,-6.51252 6.0838,-7.35369 9.70986,-7 6.05308,0.59043 6.1291,4.90984 0.20184,11.4706 -2.61097,2.89003 -4.74721,5.71718 -4.74721,6.28255 0,0.56537 10.95,0.62163 24.33333,0.12507 13.38333,-0.49662 30.231,-0.93178 37.43925,-0.96702 17.74856,-0.0868 18.2413,0.38374 18.18502,17.36418 -0.0281,8.5014 -0.635,13.5739 -1.80879,15.12001 -1.63469,2.15321 -6.95735,2.352 -71.40253,2.66667 -38.29989,0.187 -69.828252,0.14768 -70.06303,-0.0873 z m 57.983413,-9.0763 c 12.1,-0.50487 32.92842,-0.97308 46.28538,-1.04047 20.77321,-0.1048 24.60654,-0.44367 26.5062,-2.34301 1.46064,-1.46043 1.9408,-3.33619 1.40276,-5.47992 -1.504,-5.99243 -8.46555,-6.41383 -99.00443,-5.99295 -92.4769776,0.42988 -87.632202,-0.104 -86.922583,9.57805 L 14,202 l 6.666667,0.75767 c 8.11833,0.92265 74.396316,0.33501 104.666663,-0.928 z M 20.472572,141.74393 c -5.877009,-1.14957 -7.831615,-5.22326 -7.415269,-15.45456 0.649124,-15.9516 9.381377,-35.81611 21.276192,-48.400005 6.288988,-6.653316 10.462346,-9.485206 23.226625,-15.760756 14.996947,-7.373238 17.091287,-9.074238 17.119572,-13.904325 0.0072,-1.223356 1.565028,-5.524284 3.46192,-9.557617 1.896892,-4.033334 4.252427,-10.3644 5.234523,-14.069038 0.982096,-3.704637 3.182753,-9.404637 4.890348,-12.666667 L 91.3712,6 126.96298,5.6497796 c 34.91938,-0.3436039 35.61997,-0.2975569 37.08365,2.4373332 1.14381,2.1372452 1.04053,3.7742152 -0.4427,7.0168872 -5.92814,12.960212 -15.71165,40.118607 -15.35386,42.621344 0.24144,1.688799 1.53785,3.098199 3.08326,3.351968 4.56784,0.750073 17.06574,6.06028 23.14378,9.833508 6.62702,4.114041 16.70398,14.505651 19.80413,20.422513 1.15269,2.2 3.21097,5.430915 4.57396,7.179812 1.36297,1.748895 2.47813,4.778895 2.47813,6.733335 0,1.95443 0.75,4.30325 1.66667,5.21958 1.05115,1.05076 1.66667,5.54312 1.66667,12.16412 0,12.60961 -2.77622,17.75853 -9.9566,18.46609 -12.99503,1.28056 -17.87154,-7.57715 -19.49758,-35.41551 -0.43616,-7.467167 -1.61204,-14.588276 -2.79832,-16.946581 -5.61956,-11.171587 -20.37936,-20.272443 -30.46369,-18.783834 -4.79148,0.707298 -5.37741,1.193131 -5.33333,4.422126 0.0485,3.551169 -0.11894,3.627353 -7.95048,3.619188 -7.32845,-0.0076 -8.03658,-0.265635 -8.43569,-3.07339 -0.23963,-1.685776 0.23905,-3.878052 1.06372,-4.871722 1.98208,-2.388254 -2.59849,-3.289427 -16.12239,-3.171892 -11.246637,0.09775 -14.872902,1.29142 -12.161165,4.003157 0.910538,0.910537 1.655522,2.735521 1.655522,4.055521 0,1.948974 -1.107072,2.4 -5.890951,2.4 -3.240021,0 -6.762659,0.334507 -7.828081,0.743347 -1.065422,0.408841 -2.94295,-0.262471 -4.172284,-1.491805 -2.075415,-2.075415 -2.078367,-2.4084 -0.04131,-4.65933 1.206616,-1.333297 1.788284,-3.080394 1.292593,-3.88244 -1.484728,-2.40234 -9.935058,-0.09 -20.277448,5.548703 C 44.94628,80.571997 42.462775,85.426993 41.171236,106 c -1.294112,20.61399 -4.291097,29.74784 -11.152157,33.98821 -2.38361,1.47315 -4.863016,2.59675 -5.509791,2.49688 -0.646775,-0.0999 -2.463297,-0.43338 -4.036716,-0.74116 z m 7.189557,-11.4106 C 30.599404,126.63021 34.568687,96 32.111289,96 30.226387,96 20,117.40493 20,121.35024 c 0,8.34565 4.232128,13.30741 7.662129,8.98309 z M 195.24703,119.30055 c -0.0773,-9.5205 -0.59731,-11.63561 -4.9668,-20.201343 -4.49512,-8.811987 -7.02572,-12.131486 -8.28692,-10.870292 -0.63434,0.634336 4.22486,32.996435 5.47774,36.481555 1.50395,4.1835 3.45478,6.10293 5.73967,5.64727 1.73743,-0.34649 2.10695,-2.35299 2.03631,-11.05719 z M 101.49072,52.666667 c 0.50754,-2.2 2.22471,-7.3 3.81593,-11.333334 1.59121,-4.033333 3.37332,-8.868385 3.96023,-10.74456 0.58692,-1.876174 2.04197,-5.296378 3.23345,-7.600453 C 115.17302,17.819923 115.23602,16 112.74227,16 c -2.79158,0 -5.64184,4.670393 -8.91188,14.602863 -1.58088,4.801758 -3.968455,10.293634 -5.305738,12.204168 -1.337284,1.910534 -2.837543,6.013421 -3.333909,9.117529 -0.859042,5.372144 -0.751338,5.622127 2.237348,5.192968 2.229736,-0.320176 3.407309,-1.610283 4.062629,-4.450861 z m 12.09182,1.666666 c 1.03908,-1.65 2.67647,-5.7 3.63866,-9 0.96218,-3.3 2.23859,-7.2 2.83647,-8.666666 3.61512,-8.868335 6.42161,-18.720718 5.5741,-19.56823 -1.79307,-1.793068 -3.75771,0.77746 -8.84156,11.56823 -2.76395,5.866666 -5.57246,11.708525 -6.24112,12.981908 -0.66867,1.273382 -1.21576,3.562828 -1.21576,5.087656 0,1.524826 -0.62774,3.945368 -1.39499,5.37898 -2.82161,5.272234 2.42295,7.333302 5.6442,2.218122 z m 13.43477,-4.344341 c 1.33428,-3.660612 3.4043,-8.755659 4.60007,-11.322325 3.49614,-7.504388 7.04929,-17.767408 7.04929,-20.361423 0,-3.512316 -4.72563,-0.681319 -7.35715,4.407467 -2.64799,5.120658 -10.06721,26.160741 -10.96113,31.084557 -0.57343,3.158556 -0.27457,3.71738 1.77679,3.322324 1.56134,-0.300685 3.35626,-2.916908 4.89213,-7.1306 z m -37.636495,1.944327 c 1.592652,-2.236675 3.774241,-7.186675 4.847974,-11 5.27499,-18.733944 5.878241,-21.270732 5.215747,-21.933228 -1.423732,-1.423732 -4.378529,2.422161 -6.131661,7.980825 -0.986267,3.127163 -2.162352,6.285751 -2.613522,7.019084 -1.050868,1.708088 -6.220302,15.071589 -7.349814,19 -1.297523,4.512745 2.541886,3.833713 6.031276,-1.066681 z m 48.353935,-0.266652 c 5.43317,-11.548996 8.93192,-20.194579 8.93192,-22.071243 0,-1.14002 0.71508,-4.050281 1.58906,-6.467249 1.7762,-4.911996 0.62324,-7.320615 -2.09764,-4.382143 C 144.143,20.922263 135.35187,45.071679 134.17396,51.666667 133.74828,54.05 133.91664,56 134.54808,56 c 0.63144,0 2.06544,-1.95 3.18667,-4.333333 z"
       id="path656" />
  </g>
</svg>
