<?xml version="1.0" encoding="UTF-8" standalone="no"?>
<!-- Created with Inkscape (http://www.inkscape.org/) -->

<svg
   version="1.1"
   id="svg75"
   width="148"
   height="208"
   viewBox="0 0 148 208"
   xmlns="http://www.w3.org/2000/svg"
   xmlns:svg="http://www.w3.org/2000/svg">
  <defs
     id="defs79" />
  <g
     id="g81">
    <path
       style="fill:#000000;stroke-width:1.33333"
       d="m 96.190651,204.14604 c -3.029555,-1.91961 -0.374744,-6.79017 4.923289,-9.03235 18.98648,-8.03526 21.55273,-9.64722 21.55273,-13.53804 0,-4.02574 -5.32442,-18.26148 -9.31641,-24.90898 -1.32116,-2.2 -3.52897,-6.1 -4.90625,-8.66667 -5.86042,-10.92131 -14.167971,-24 -15.244738,-24 -1.450939,0 -4.244063,6.6447 -6.357337,15.12377 -1.759172,7.05832 -1.853527,7.22834 -15.285487,27.5429 -9.592388,14.50757 -14.223115,23.675 -14.223115,28.15745 0,1.43167 -0.871664,3.93192 -1.937032,5.55612 -1.878732,2.86421 -2.646686,2.95309 -25.51516,2.95309 -21.3308138,0 -23.7196537,-0.23036 -25.0629681,-2.41686 -2.0844357,-3.39283 3.2022044,-7.56747 9.6628721,-7.63039 2.668759,-0.026 6.352288,-0.90472 8.185622,-1.95275 1.833333,-1.04802 5.002604,-1.92677 7.042825,-1.95274 4.868872,-0.062 12.797243,-3.43386 16.720188,-7.1109 1.723008,-1.615 4.603667,-6.23636 6.401464,-10.26969 1.797799,-4.03333 4.428827,-9.43333 5.846729,-12 1.417903,-2.56667 4.336679,-8.26667 6.486168,-12.66667 2.14949,-4.4 5.046347,-9.5 6.43746,-11.33333 4.812891,-6.34286 13.731832,-22.16915 13.731832,-24.36657 0,-4.82901 11.366199,-6.84452 14.850857,-2.63343 1.06195,1.28333 2.77521,4.13333 3.80723,6.33333 1.03202,2.2 3.59688,5.8706 5.69968,8.15688 4.39424,4.77764 16.97557,25.67158 16.97557,28.19148 0,0.92831 0.52634,2.72968 1.16966,4.00307 0.64331,1.27339 1.91311,4.71524 2.82177,7.64857 0.90867,2.93334 4.32415,10.8789 7.58999,17.6568 6.14995,12.76364 6.43991,15.68212 2.05422,20.67654 -2.52158,2.87157 -7.40015,3.02694 -9.65704,0.30756 -1.8879,-2.27479 -7.82515,-1.74238 -16.33892,1.46518 -5.57473,2.10028 -15.316511,2.48028 -18.115699,0.70663 z M 131.69507,100.99284 C 130.02945,99.240984 122.96667,91.626297 116,84.071309 98.619493,65.223055 87.985087,54.841633 85.129663,53.935357 82.130896,52.983585 80.505768,54.331137 62.698172,72.535487 58.682167,76.640969 54.932167,80 54.364839,80 c -0.567328,0 -1.031506,0.660697 -1.031506,1.468217 0,1.279451 -3.677881,5.545994 -15.60606,18.10388 -3.230658,3.401213 -6.42446,4.016703 -7.40942,1.427903 -1.128248,-2.965405 1.337952,-6.806772 10.914186,-17 5.167085,-5.5 9.403685,-10.875708 9.414664,-11.946019 0.01093,-1.07031 -2.594184,-4.37031 -5.789255,-7.333333 C 39.073637,59.356897 36,54.923113 36,51.9436 36,49.423303 81.690943,4.5046308 85.138988,3.6351624 c 2.692176,-0.6788665 6.517285,2.5646368 26.872622,22.7866506 22.28683,22.140859 23.69304,23.832075 23.06774,27.743016 -0.48024,3.003726 -2.65699,5.791608 -7.80788,10 -3.99427,3.263411 -7.17052,6.964222 -7.20673,8.396919 -0.0374,1.477651 4.47385,7.112541 10.66006,13.315373 8.49739,8.520222 10.64349,11.449648 10.33333,14.104918 -0.54142,4.635101 -5.41674,5.161421 -9.36306,1.010801 z M 66.775041,56.333333 c 4.481755,-4.216666 9.140816,-8.205456 10.35347,-8.863977 1.212652,-0.65852 3.278196,-2.30852 4.590096,-3.666667 1.3119,-1.358145 3.329556,-2.469356 4.483678,-2.469356 1.154124,0 6.727379,4.8 12.385014,10.666667 12.329391,12.784929 15.434771,13.598343 20.824061,5.454584 3.21879,-4.863921 3.31808,-5.465111 1.48641,-9 -2.26969,-4.380201 -32.212451,-33.787917 -34.402662,-33.787917 -2.794659,0 -17.318215,13.746216 -19.927587,18.861008 -1.441945,2.826445 -3.359524,5.14561 -4.261286,5.153701 -0.901763,0.0081 -4.884832,2.887687 -8.851267,6.399104 -6.360273,5.630643 -7.1036,6.815089 -6.296093,10.032449 0.538926,2.147256 2.271608,4.163608 4.211697,4.90123 1.812852,0.689244 3.296095,1.868022 3.296095,2.619506 0,3.200748 4.497025,0.860818 12.108374,-6.300332 z"
       id="path795" />
  </g>
</svg>
