<?xml version="1.0" encoding="UTF-8" standalone="no"?>
<!-- Created with Inkscape (http://www.inkscape.org/) -->

<svg
   version="1.1"
   id="svg45"
   width="110.66667"
   height="218.66667"
   viewBox="0 0 110.66667 218.66667"
   xmlns="http://www.w3.org/2000/svg"
   xmlns:svg="http://www.w3.org/2000/svg">
  <defs
     id="defs49" />
  <g
     id="g51">
    <path
       style="fill:#000000;stroke-width:1.33333"
       d="M 8.7486263,212.09056 C 6.6614169,209.78423 6.4335599,201.79111 5.9661879,114.48388 5.485783,24.742022 5.8951906,10.90481 9.1264315,7.6735689 9.9534535,6.8465469 22.842794,6.3757793 42.898623,6.4400805 60.737715,6.4972745 81.521589,6.1192108 89.085011,5.5999386 c 7.563423,-0.519272 14.649499,-0.4416824 15.746849,0.1724215 1.7401,0.9738123 1.95626,10.6903629 1.69086,76.0054309 -0.43093,106.050119 -0.95446,123.320629 -3.82535,126.191509 -4.136742,4.13674 -46.660236,7.5345 -50.184815,4.00992 -0.900619,-0.90062 -4.673854,-0.93423 -11.266667,-0.1004 -5.451904,0.68957 -14.482603,1.5845 -20.068218,1.98876 -8.823076,0.63856 -10.453969,0.40538 -12.4290437,-1.77706 z M 41.37086,182.66667 c 0.387307,-10.63333 0.464841,-20.10489 0.1723,-21.04791 -0.394245,-1.27085 -3.681942,-1.6159 -12.704194,-1.33333 L 16.666667,160.66667 17.158318,180 c 0.270407,10.63334 1.068311,20.05254 1.773119,20.93155 0.831885,1.03751 4.86942,1.50529 11.508351,1.33333 L 40.666668,202 Z M 92.049201,201.307 c 2.461417,-1.3173 2.535709,-4.08965 2.385009,-89 C 94.34866,64.10482 93.79642,23.357711 93.207012,21.757875 92.166317,18.933114 91.430447,18.838187 67.734347,18.471935 37.026105,17.997303 23.542302,18.399754 19.571499,19.90945 l -3.119325,1.185965 -0.147202,59.118961 c -0.09523,38.242344 0.344429,60.393304 1.24501,62.727694 1.994091,5.16885 8.381093,6.91608 21.195617,5.79825 14.443576,-1.25993 14.472277,-1.20484 13.902611,26.6847 -0.240692,11.78376 0.09253,22.28376 0.740504,23.33333 0.859001,1.3914 5.254776,2.11675 16.22804,2.67779 8.277454,0.42321 16.139361,0.87321 17.470903,1 1.331544,0.1268 3.564239,-0.38132 4.961544,-1.12914 z"
       id="path153" />
  </g>
</svg>
