<?xml version="1.0" encoding="UTF-8" standalone="no"?>
<!-- Created with Inkscape (http://www.inkscape.org/) -->

<svg
   version="1.1"
   id="svg203"
   width="309.33334"
   height="281.33334"
   viewBox="0 0 309.33334 281.33334"
   xmlns="http://www.w3.org/2000/svg"
   xmlns:svg="http://www.w3.org/2000/svg">
  <defs
     id="defs207" />
  <g
     id="g209">
    <path
       style="fill:#000000;stroke-width:1.33333"
       d="m 27.666667,274.59211 c -1.656768,-0.98786 -2.333333,-3.08898 -2.333333,-7.24633 0,-3.22028 0.497895,-6.16277 1.106433,-6.53888 0.608539,-0.37609 14.120831,-0.98369 30.027317,-1.35021 15.906487,-0.36652 29.508591,-1.02963 30.226901,-1.47356 0.775562,-0.47932 1.306017,-10.72756 1.306017,-25.23188 0,-20.33174 -0.342969,-24.70937 -2.046659,-26.1233 -1.478493,-1.22704 -10.757924,-1.87265 -33.426567,-2.32564 l -31.379908,-0.62705 0.192794,26.49571 c 0.271256,37.27866 0.266448,37.36578 -2.198003,39.83024 -2.355305,2.3553 -7.831801,1.79908 -10.7215099,-1.08894 C 7.2465684,267.73937 6.5947928,240.76041 5.8856091,164 4.5762628,22.279369 4.637895,9.777854 6.6579201,7.3438726 8.6649397,4.9255621 16.152347,4.68568 18.433279,6.9666127 c 1.266619,1.2666187 2.201927,1.2781534 4.166303,0.05138 C 25.252553,5.3611849 130.36918,5.62361 232.66667,7.5424284 c 26.4,0.4951911 51.69708,0.7723966 56.21575,0.6160123 5.14755,-0.1781497 8.57792,0.3016998 9.18557,1.2849022 0.53342,0.8630801 1.16683,37.9414071 1.40758,82.3962821 0.24074,44.454875 0.74849,102.242925 1.12832,128.417905 0.59018,40.67093 0.40649,47.87496 -1.2633,49.54476 -3.08624,3.08624 -15.6666,3.45913 -144.00725,4.26856 -66.000005,0.41626 -121.200006,1.01686 -122.666673,1.33469 -1.466666,0.31781 -3.716666,-0.0483 -5,-0.81343 z M 284.61086,257.16694 c 1.55167,-1.55168 0.25472,-221.729638 -1.35103,-229.355917 -0.65694,-3.1201 -1.53248,-3.613114 -7.6674,-4.317512 C 268.98713,22.735103 133.18164,21.288537 61.432324,21.21233 42.005713,21.191697 26.492806,20.620531 25.09899,19.874583 23.754746,19.155166 22.666667,17.102691 22.666667,15.286422 22.666667,13.47889 22.119486,12 21.450707,12 c -0.724287,0 -0.990895,29.247893 -0.659349,72.333335 0.306134,39.783335 0.553316,79.563335 0.549292,88.400015 l -0.0073,16.06668 9.666667,0.42491 c 5.316666,0.2337 19.95284,0.52726 32.524831,0.65234 14.784162,0.14711 23.502939,0.76256 24.683574,1.7424 1.003975,0.83323 4.210824,1.70966 7.126332,1.94764 5.037806,0.4112 5.347516,0.69742 6.239586,5.76602 0.51627,2.93333 0.98144,16.13333 1.03372,29.33333 0.0523,13.2 0.46362,25.37596 0.9141,27.0577 l 0.81906,3.05769 89.79992,-0.47265 c 49.38995,-0.25996 90.10134,-0.77408 90.46974,-1.14247 z M 142.66667,239.14911 c 0,-2.25713 1.9326,-5.61418 5.39344,-9.36876 5.31517,-5.76626 5.38775,-5.98122 5,-14.81054 -0.39107,-8.90523 -0.42349,-8.97347 -5.36761,-11.29625 -3.04659,-1.4313 -5.21454,-3.5001 -5.59439,-5.33856 -1.75717,-8.50433 -2.30845,-12.73476 -2.17211,-16.66833 0.47786,-13.787 0.49484,-22.06424 0.11974,-58.3701 -0.22752,-22.02023 0.007,-41.362951 0.52169,-42.983833 0.58017,-1.827999 2.54865,-3.362091 5.18397,-4.040046 3.44476,-0.886188 4.32411,-1.850648 4.64763,-5.097475 0.41815,-4.196528 -4.87188,-17.837099 -6.91869,-17.840127 -1.88364,-0.0028 -4.72884,-4.416089 -4.72884,-7.335088 0,-7.898803 9.42508,-10.010936 15.01704,-3.365273 1.8364,2.182433 3.71317,5.932433 4.17061,8.333333 1.83197,9.615164 5.27644,23.096883 6.17381,24.16439 0.52358,0.622847 2.0727,0.776741 3.44248,0.341987 1.98406,-0.629715 2.98715,-3.571458 4.93263,-14.465783 2.20444,-12.344478 2.90976,-14.161906 7.24761,-18.675321 4.95128,-5.151656 7.88383,-6.01104 12.35199,-3.619754 3.80224,2.034893 3.14055,6.920312 -1.54003,11.3703 -5.58924,5.313891 -7.88097,10.09818 -7.88097,16.45252 0,4.823087 0.57623,5.731946 6,9.463602 l 6,4.128108 0.0851,10.26928 c 0.0468,5.648103 0.29576,12.36928 0.55321,14.93595 0.61187,6.09987 1.71556,31.42964 2.82188,64.76209 1.01908,30.70203 0.61561,32.57124 -7.03035,32.57124 h -4.80969 l 0.84259,8.06147 c 0.96661,9.24801 2.18416,11.99484 8.39638,18.94237 5.14932,5.75883 5.4817,7.67114 1.89712,10.91512 -1.88397,1.70498 -3.69285,2.0872 -6.72545,1.42114 -7.64165,-1.67839 -11.02091,-8.00911 -14.80652,-27.7387 -1.72436,-8.98683 -1.77468,-9.06181 -5.81516,-8.66667 -3.83055,0.37463 -4.17596,0.87988 -5.74148,8.39861 -0.91616,4.4 -1.34148,9.93662 -0.94516,12.30362 0.61699,3.68488 -0.0785,5.17054 -4.83741,10.33334 -4.75256,5.15592 -6.30626,6.0297 -10.72151,6.0297 -4.69099,0 -5.16352,-0.3219 -5.16352,-3.51756 z m 40.503,-98.37627 c -0.15459,-46.492232 -0.30273,-49.331531 -2.66667,-51.105745 -2.46321,-1.848721 -7.45174,-1.735561 -20.89905,0.474072 l -5.06272,0.831895 0.42592,48.580558 c 0.3558,40.58365 0.74291,48.77648 2.3516,49.7707 1.05913,0.65459 7.34569,1.07439 13.97015,0.93291 L 183.33334,190 Z"
       id="path386" />
  </g>
</svg>
