<?xml version="1.0" encoding="UTF-8" standalone="no"?>
<!-- Created with Inkscape (http://www.inkscape.org/) -->

<svg
   version="1.1"
   id="svg193"
   width="102.66667"
   height="198.66667"
   viewBox="0 0 102.66667 198.66667"
   xmlns="http://www.w3.org/2000/svg"
   xmlns:svg="http://www.w3.org/2000/svg">
  <defs
     id="defs197" />
  <g
     id="g199">
    <path
       style="fill:#000000;stroke-width:1.33333"
       d="m 7.75274,191.53799 c -2.2428576,-4.19081 -0.5140283,-14.32852 4.13961,-24.27432 4.480645,-9.57608 15.066304,-21.93033 18.790862,-21.93033 1.164234,0 2.866521,-0.75 3.78286,-1.66667 C 35.591564,142.54078 40.765819,142 50.413228,142 h 14.281086 l 10.652844,8 c 9.710302,7.29218 11.154221,8.99999 16.319512,19.30207 6.315512,12.59619 7.413536,20.33588 3.2046,22.58844 -1.413931,0.75671 -20.186334,1.51419 -44.096303,1.77931 -40.127538,0.44494 -41.6844671,0.3678 -43.022227,-2.13183 z m 57.247375,-9.67037 c 7.346058,-0.51668 11.892741,-1.50902 13.687265,-2.98732 l 2.687149,-2.21363 -2.86261,-5.73945 C 67.874986,149.60048 43.04114,146.08055 26.490213,163.5537 c -3.034618,3.20369 -5.179842,7.01541 -5.744847,10.20765 -0.495949,2.80208 -1.178633,5.81629 -1.517076,6.69827 -0.710705,1.85206 27.235616,2.71173 45.771825,1.408 z M 16.816037,55.990876 C 7.5536657,54.824142 5.2734047,51.682562 6.9486374,42.396278 9.4920778,28.297279 19.522813,13.527268 30.677484,7.4561355 48.828568,-2.4229223 72.61269,4.1925573 85.192067,22.619196 89.65616,29.158332 94.47889,40.356101 95.451966,46.441383 96.91295,55.57787 96.6194,55.652109 58.811085,55.708018 40.474235,55.735138 24.990303,55.994582 24.402346,56.284573 23.81439,56.574562 20.40055,56.4424 16.816037,55.990876 Z M 70.351528,43.860882 c 6.136137,0.0836 10.982805,-2.048231 10.9761,-4.82788 -0.01456,-6.033157 -14.928439,-22.045394 -22.243146,-23.881268 -5.479311,-1.375219 -20.666063,0.778934 -25.034088,3.550942 -3.803546,2.413783 -7.020925,5.553426 -11.196717,10.926192 -2.486796,3.199629 -4.298464,11.963602 -2.837087,13.724454 0.804764,0.969683 8.559954,1.280801 23.591143,0.946417 12.315747,-0.273977 24.350456,-0.471462 26.743795,-0.438857 z"
       id="path525" />
  </g>
</svg>
