<?xml version="1.0" encoding="UTF-8" standalone="no"?>
<!-- Created with Inkscape (http://www.inkscape.org/) -->

<svg
   version="1.1"
   id="svg183"
   width="153.33333"
   height="206.66667"
   viewBox="0 0 153.33333 206.66667"
   xmlns="http://www.w3.org/2000/svg"
   xmlns:svg="http://www.w3.org/2000/svg">
  <defs
     id="defs187" />
  <g
     id="g189">
    <path
       style="fill:#000000;stroke-width:1.33333"
       d="m 75.852441,203.11668 c -3.879883,-1.037 -4.979113,-6.53706 -5.32104,-26.62417 C 70.345788,165.5883 69.680076,150.9089 69.052041,143.87162 67.664615,128.32518 68.824021,124 74.378825,124 c 8.022733,0 8.234949,0.72422 8.986204,30.66667 0.377185,15.03333 0.977001,30.94605 1.332925,35.3616 0.891872,11.06448 -1.756462,14.98313 -8.845513,13.08841 z M 22.947369,102.66667 C 14.337396,102.20324 10.210391,101.43008 9.4100135,100.13054 7.825349,97.557598 6.2034816,73.276597 7.2502549,67.796765 7.7191944,65.341878 8.7524211,60.802197 9.5463143,57.708585 10.715759,53.15154 10.579447,51.058371 8.8282117,46.681603 5.9365513,39.454633 5.7458357,13.111307 8.5647677,10.292375 10.518365,8.3387775 15.390689,8.1228272 108.7574,5.8516561 c 30.21094,-0.7348898 33.63965,-0.5974644 35.66666,1.429552 1.92158,1.9215755 2.24324,5.4259619 2.24704,24.4806979 0.003,12.230952 0.33644,31.538095 0.7422,42.904762 0.58372,16.351451 0.35698,21.13516 -1.0859,22.9104 -1.50683,1.853894 -5.33342,2.378967 -22.02401,3.022072 -11.11019,0.42809 -21.12486,1.13312 -22.25484,1.56673 -6.177169,2.3704 -12.400809,-3.803636 -9.734171,-9.656583 1.53202,-3.362596 9.516761,-4.509286 31.399481,-4.509286 h 13.98935 l -0.81259,-11.666666 c -0.44693,-6.416667 -1.41552,-16.445925 -2.15241,-22.287238 -0.92952,-7.368251 -0.90401,-12.07514 0.0833,-15.370518 1.28603,-4.292365 -0.14825,-19.113423 -2.03195,-20.997124 -0.30472,-0.304724 -19.05704,0.0091 -41.671804,0.697249 -22.614795,0.688211 -48.017787,1.206848 -56.45112,1.152528 l -15.333333,-0.09877 -0.297076,13.285267 c -0.163392,7.306896 -0.380639,15.385267 -0.482772,17.951933 -0.102133,2.566667 0.472348,7.564414 1.276627,11.106103 1.000582,4.406136 1.058173,9.247748 0.182388,15.333334 -1.108866,7.705187 -0.98297,9.116655 0.941954,10.560564 2.314931,1.736457 12.691612,2.461401 26.382165,1.843132 10.23768,-0.462336 15.330046,1.376523 15.330046,5.535695 0,6.34117 -2.419046,7.59613 -15.333333,7.95467 -6.6,0.18324 -17.573683,0.0332 -24.385963,-0.3335 z"
       id="path664" />
  </g>
</svg>
