<?xml version="1.0" encoding="UTF-8" standalone="no"?>
<!-- Created with Inkscape (http://www.inkscape.org/) -->

<svg
   version="1.1"
   id="svg173"
   width="216"
   height="214.66667"
   viewBox="0 0 216 214.66667"
   xmlns="http://www.w3.org/2000/svg"
   xmlns:svg="http://www.w3.org/2000/svg">
  <defs
     id="defs177" />
  <g
     id="g179">
    <path
       style="fill:#000000;stroke-width:1.33333"
       d="m 60.010149,208.81015 c -2.292769,-2.29276 -1.499228,-6.26209 2.575975,-12.88515 7.120136,-11.57169 7.511832,-23.9988 1.615637,-51.25833 -2.518705,-11.64459 -3.276834,-14.39941 -5.504021,-20 -4.636835,-11.66001 -6.395983,-34.203431 -3.122459,-40.014193 0.830652,-1.474472 1.181888,-4.398709 0.780526,-6.498304 l -0.729752,-3.817447 -8.813027,0.894151 C 31.003648,76.834863 22.884509,85.569303 20.070557,104 c -0.839726,5.5 -2.182961,13.98425 -2.984965,18.85388 -0.929869,5.64601 -1.224672,22.20259 -0.813669,45.6969 0.702888,40.17942 0.520916,41.34412 -6.3376746,40.56361 C 6.0394453,208.67116 5.9900699,208.55972 5.0095809,198 3.7132447,184.03866 4.699898,119.15644 6.3800709,107.87672 7.9957443,97.030024 11.788365,88.248891 18.760845,79.211261 25.821039,70.059938 32.271492,65.961688 41.333333,64.869985 c 4.033334,-0.485905 11.076543,-1.589156 15.651576,-2.451669 7.773536,-1.465514 8.367931,-1.836144 9.077039,-5.659927 0.417337,-2.250447 0.574128,-8.291722 0.348424,-13.425055 L 66,34.000001 H 55.606064 c -9.555425,0 -10.452355,-0.233512 -11.118076,-2.894541 -1.443645,-5.770564 -0.117853,-7.746133 5.506195,-8.20481 6.575728,-0.536294 7.851517,-1.569354 9.74567,-7.891471 1.073599,-3.583356 3.098387,-6.0558065 7.066395,-8.6287101 5.054343,-3.2772973 5.879283,-3.4402803 9.044353,-1.7868919 2.279026,1.1905306 4.427178,4.2825333 6.215331,8.94621 3.549273,9.256849 6.731512,9.576316 10.764964,1.080701 3.761175,-7.9221226 6.018035,-9.6173975 12.680884,-9.5254433 6.47215,0.089323 7.68661,1.0727581 10.63398,8.6111013 1.7129,4.38099 2.89016,5.627188 5.31591,5.627188 2.58189,0 3.42565,-1.097192 4.92431,-6.403315 1.32812,-4.7023213 2.69124,-6.7389145 5.13142,-7.6666667 8.04108,-3.0572139 13.25351,-0.030801 15.85177,9.2037657 1.34746,4.789032 1.4955,4.87679 9.33334,5.532882 7.59593,0.635843 7.98438,0.843708 8.40173,4.495763 0.62091,5.433428 -1.23129,6.623793 -11.81624,7.594013 -5.14003,0.471137 -9.61331,1.124417 -9.94063,1.451734 -0.3273,0.327317 -0.96962,3.86438 -1.42734,7.86014 -0.7179,6.266815 -0.39588,7.906211 2.34358,11.931684 3.1709,4.659424 3.1923,4.666811 13.78944,4.759635 10.46527,0.09167 16.30455,1.721731 29.80135,8.319188 5.21195,2.547684 12.70343,12.152966 18.62031,23.87424 l 4.11076,8.143378 0.17726,52.248455 c 0.11,32.42141 -0.31622,52.74193 -1.12318,53.54889 -0.71526,0.71526 -3.30558,1.10676 -5.75626,0.87 -3.885,-0.3753 -4.58578,-1.02826 -5.47049,-5.09712 -1.70653,-7.84861 -1.4626,-43.84404 0.39757,-58.66666 3.15255,-25.12075 1.93151,-39.63137 -4.4084,-52.388229 C 188.92316,77.920899 176.82132,70.955828 162,70.296546 c -6.6532,-0.295946 -6.66596,-0.288465 -6.31815,3.703455 2.09311,24.02325 -0.35108,46.140409 -7.24828,65.588719 -3.02666,8.53438 -3.34426,11.17332 -2.88846,24 0.49269,13.86496 0.73054,14.84838 6.27426,25.94123 3.16919,6.34147 5.54947,12.64147 5.28952,14 -0.35528,1.85673 -2.12422,2.68936 -7.1241,3.35324 -10.32127,1.37048 -20.56828,1.25515 -23.40578,-0.26343 -2.68693,-1.43801 -3.47443,-6.49485 -1.35273,-8.68642 4.98455,-5.1487 8.98583,-42.5151 5.03972,-47.06404 -1.13534,-1.30878 -2.2287,-6.56646 -2.69428,-12.95604 -0.43095,-5.91438 -1.53313,-12.51438 -2.44928,-14.66667 L 123.45671,119.33334 123.0209,124 c -0.23969,2.56667 -0.94275,5.86667 -1.56234,7.33334 C 120.83897,132.8 119.55864,135.8 118.61338,138 c -1.78198,4.14742 -3.41289,13.10706 -4.80015,26.37031 -0.88504,8.46168 0.71824,16.13113 5.71448,27.33588 3.7562,8.42376 3.9883,13.07877 0.73883,14.81783 -3.48141,1.8632 -17.29935,2.09526 -24.241597,0.40713 -4.707778,-1.14477 -6.404536,-1.07575 -8,0.32544 -2.512496,2.20657 -26.056172,3.51219 -28.014794,1.55356 z m 15.599532,-15.7946 c -0.318924,-1.65855 -0.59197,-0.61555 -0.60677,2.31779 -0.0148,2.93333 0.24614,4.29033 0.579862,3.01554 0.333724,-1.27478 0.345832,-3.67478 0.02691,-5.33333 z m 32.376229,5.00143 c 0.90517,-1.09066 1.26212,-2.98275 0.79323,-4.20466 -0.77262,-2.01344 -1.03254,-1.98378 -2.77343,0.31635 -3.52715,4.66025 -1.67645,8.29431 1.9802,3.88831 z m -14.827253,-2.23275 c 3.840887,-6.15024 6.840731,-17.73873 6.814931,-26.32629 -0.03675,-12.23227 -2.336085,-26.91186 -4.608673,-29.42304 -1.047532,-1.15751 -2.315086,-4.78888 -2.816786,-8.06973 -0.5017,-3.28084 -1.58027,-6.81201 -2.396822,-7.84705 -1.171283,-1.48467 -1.673415,-0.64041 -2.379026,4 -0.491912,3.23504 -1.904818,9.18188 -3.139792,13.21522 -2.922397,9.54433 -3.433497,38.31326 -0.817222,46 2.066993,6.07292 5.1125,11.33333 6.561408,11.33333 0.540026,0 1.791918,-1.29709 2.781982,-2.88244 z m 49.508013,-3.03887 c 0,-2.52338 -0.63992,-4.98346 -1.42204,-5.46685 -1.9119,-1.18161 -2.18912,-0.75361 -3.27411,5.05483 -0.83943,4.49388 -0.64901,5 1.88109,5 2.31912,0 2.81506,-0.80828 2.81506,-4.58798 z M 109.1118,138.27972 c -0.0772,-3.8205 0.94447,-11.74638 2.27039,-17.61305 2.8315,-12.52819 2.99594,-20.997108 0.62136,-32.000002 -0.94958,-4.4 -1.66518,-9.1955 -1.59021,-10.656667 0.36359,-7.086508 -8.00868,-11.714612 -10.26913,-5.676667 -2.036561,5.439907 -4.546939,29.869696 -3.681263,35.824266 1.743808,11.99483 2.348758,15.30894 3.743683,20.50907 2.90112,10.81507 6.24335,18.29129 7.75847,17.35491 0.70789,-0.43751 1.22391,-3.92134 1.1467,-7.74186 z m -32.103105,-0.92538 c 0.911885,-2.92179 1.662525,-9.07179 1.66809,-13.66667 0.0056,-4.59489 0.591944,-13.41527 1.303062,-19.60085 C 81.124995,94.125893 80.953972,91.839703 78.483719,84.086823 73.666337,68.96749 72.357277,67.93972 68.164037,75.984628 65.014596,82.026961 64.467085,91.9268 66.609752,104.08846 c 0.702031,3.98468 1.527313,9.94488 1.833961,13.24488 0.306648,3.3 1.236831,9 2.067075,12.66666 0.830243,3.66667 1.816391,8.01667 2.191441,9.66667 1.007896,4.43415 2.441071,3.66461 4.306466,-2.31233 z m 65.925225,-6.78736 c 0.55136,-2.51184 1.35317,-12.83054 1.78181,-22.93045 0.62511,-14.729347 0.33186,-20.204581 -1.4818,-27.66667 -1.24362,-5.116756 -2.93002,-9.294004 -3.74754,-9.282775 -5.50335,0.07559 -7.49171,6.399776 -7.46182,23.73305 0.0249,14.430755 2.73455,34.103235 5.37756,39.041745 2.00599,3.74824 4.34194,2.52579 5.53179,-2.8949 z M 95.692576,61.669918 c 3.073445,-4.05044 3.237688,-5.075461 2.543203,-15.871863 -0.473262,-7.357297 -1.37569,-11.943386 -2.489106,-12.649501 -2.422292,-1.536188 -9.524522,-1.420479 -13.85434,0.225715 l -3.6146,1.374268 0.832683,10.797997 c 0.685991,8.895748 1.542361,11.903938 4.861132,17.075796 2.215649,3.452788 4.052475,7.425268 4.081836,8.827734 0.04075,1.946096 0.562537,1.60271 2.203471,-1.450063 1.182548,-2.2 3.628622,-5.948537 5.435721,-8.330083 z M 124,71.071669 c 0,-1.243917 1.62857,-4.611696 3.61905,-7.483953 3.88235,-5.60224 4.56322,-12.363135 2.54327,-25.254382 C 129.17908,32.058364 129.12308,32 124.08497,32 c -10.16895,0 -13.1008,1.235723 -13.77798,5.807193 -1.06006,7.156121 1.24306,20.862829 4.03032,23.985983 1.41045,1.58042 3.33435,4.823492 4.27533,7.206825 C 120.41118,73.555366 124,74.935418 124,71.071669 Z M 73.733988,19.545755 c 0.93648,-2.440427 -1.09234,-5.433027 -2.918251,-4.304552 -2.126218,1.314076 -1.83215,6.092131 0.374944,6.092131 1.021542,0 2.16603,-0.804411 2.543307,-1.787579 z M 107.7594,18.333334 c -0.27965,-1.969088 -1.34243,-3 -3.09273,-3 -1.7503,0 -2.81308,1.030912 -3.09274,3 -0.3495,2.460906 0.20625,3 3.09274,3 2.88648,0 3.44224,-0.539094 3.09273,-3 z m 30.00681,0.789345 c 1.00938,-1.009375 -1.51434,-4.456012 -3.2628,-4.456012 -0.64354,0 -1.17008,1.2 -1.17008,2.666667 0,2.562213 2.6075,3.614734 4.43288,1.789345 z"
       id="path819" />
  </g>
</svg>
