<?xml version="1.0" encoding="UTF-8" standalone="no"?>
<!-- Created with Inkscape (http://www.inkscape.org/) -->

<svg
   version="1.1"
   id="svg725"
   width="737.33331"
   height="368"
   viewBox="0 0 737.33331 368"
   xmlns="http://www.w3.org/2000/svg"
   xmlns:svg="http://www.w3.org/2000/svg">
  <defs
     id="defs729" />
  <g
     id="g731">
    <path
       style="fill:#000000;stroke-width:1.33333"
       d="m 14.091761,347.38831 c -1.1606,-2.75 -2.1929,-8.18896 -2.29402,-12.08658 l -0.18384,-7.08658 13.27612,-12.9115 c 7.30187,-7.10134 15.67612,-14.8988 18.60946,-17.32771 6.13502,-5.08 49.53178,-47.84796 51.81333,-51.06257 0.836,-1.1779 4.979059,-3.77575 9.206789,-5.77302 5.10741,-2.41285 9.18605,-5.59492 12.15469,-9.48282 4.60906,-6.03631 29.17916,-28.69263 42.57721,-39.26086 4.1778,-3.2954 9.4344,-8.55156 11.68133,-11.68034 4.199,-5.847 9.84224,-9.66135 14.29377,-9.66135 2.64124,0 6.93954,3.87777 6.93954,6.26061 0,0.76119 3.05928,7.61395 6.79838,15.22835 7.3292,14.92533 17.68254,30.51063 20.26899,30.51172 1.14533,4.8e-4 1.59929,-4.10808 1.59929,-14.47455 0,-12.87242 0.39686,-15.34538 3.58415,-22.334 1.97128,-4.32234 3.92268,-9.46881 4.33643,-11.4366 0.86464,-4.11212 4.40769,-5.66792 10.07366,-4.42346 3.1322,0.68794 4.75711,2.48326 7.97004,8.8059 2.27526,4.47742 4.03572,10.03682 4.03572,12.74447 0,3.76157 1.01164,5.75679 4.66667,9.20392 2.56667,2.42068 4.66666,5.04152 4.66666,5.82411 0,2.82464 6.24678,1.34038 9.75055,-2.31676 4.67564,-4.88032 4.68421,-10.29815 0.024,-15.16235 -3.11248,-3.24872 -3.36688,-4.13573 -2.02859,-7.07296 1.26163,-2.76896 2.46026,-3.3584 6.82938,-3.3584 5.27397,0 6.46798,0.32763 16.89973,4.63708 6.7074,2.77088 9.42457,7.85485 10.66407,19.95297 0.73436,7.16775 1.44952,9.04071 4.12024,10.79063 1.7774,1.1646 4.54616,1.93037 6.1528,1.70172 4.02676,-0.57308 3.82205,-5.33701 -1.42182,-33.08809 -0.62416,-3.30314 -2.0637,-7.80314 -3.199,-10 -6.10786,-11.8191 -14.01897,-24.58126 -17.97561,-28.99815 -4.69831,-5.24483 -4.8896,-5.77321 -4.52864,-12.50875 0.17479,-3.26141 -0.65617,-4.80597 -3.78369,-7.03296 -2.20423,-1.56954 -4.94422,-4.63888 -6.08888,-6.82075 -1.14466,-2.18187 -3.02515,-5.76703 -4.17886,-7.96703 -1.1537,-2.2 -2.5537,-4 -3.11112,-4 -2.09612,0 -10.90502,-9.995228 -11.68861,-13.262768 -0.44897,-1.87215 -2.23072,-5.97519 -3.95945,-9.11788 -4.43032,-8.05393 -4.20223,-15.394435 0.65009,-20.920919 3.22246,-3.67018 3.90708,-5.825421 4.54975,-14.322953 0.8025,-10.611009 5.79481,-23.077921 9.86722,-24.640649 3.72274,-1.42855 9.04762,1.433202 10.4704,5.62711 0.74102,2.184264 2.31963,5.471391 3.50804,7.304724 4.10947,6.339568 4.11498,10.135506 0.0265,18.325118 -5.6342,11.28609 -6.14016,14.50221 -2.92459,18.590146 1.49013,1.894403 2.70933,4.217483 2.70933,5.162423 0,0.94493 2.1,4.46921 4.66667,7.83172 2.56667,3.36252 4.66667,6.78321 4.66667,7.60155 0,0.81833 2.85,4.34425 6.33333,7.835378 5.92471,5.93796 11.47979,13.57354 16.4512,22.61253 1.16483,2.11787 3.865,5.32081 6.0004,7.11762 3.47223,2.92169 6.54704,7.09533 17.49969,23.75345 4.69906,7.14688 8.44678,17.93382 9.8974,28.48734 2.52702,18.38427 4.13312,39.24556 3.28247,42.63484 -0.85217,3.39534 -15.64684,18.4893 -21.25633,21.68636 -1.58116,0.90116 -5.08387,2.26326 -7.78382,3.02688 -4.8457,1.37052 -8.16701,0.45959 -20.07292,-5.5054 -3.34108,-1.67392 -7.85469,-1.34942 -11.68476,0.84004 -5.17553,2.9586 -8.63437,2.37762 -15.06417,-2.53036 -3.26431,-2.4917 -7.36027,-5.25222 -9.10213,-6.13449 -1.74187,-0.88227 -4.66703,-3.28149 -6.50036,-5.3316 -2.50761,-2.80411 -4.9022,-3.88623 -9.66667,-4.36839 l -6.33333,-0.64093 v 5.52171 c 0,6.02601 -4.2122,18.93436 -7.13104,21.8532 -1.00697,1.00697 -4.29629,2.38481 -7.30959,3.06186 -5.30481,1.19191 -7.83313,0.60948 -17.55937,-4.04498 -1.1,-0.5264 -4.1,-4.63159 -6.66667,-9.12262 -5.80925,-10.16477 -13.85644,-21.93112 -16.49885,-24.12412 -2.89335,-2.40126 -5.77719,-0.44072 -15.52545,10.55482 -4.61374,5.20404 -10.93522,11.214 -14.04772,13.35546 -3.11251,2.14146 -7.92067,7.05636 -10.68479,10.922 -8.01033,11.20256 -14.04569,16.99071 -21.9098,21.01239 -4.03333,2.06264 -10.81825,6.81005 -15.07758,10.54981 -4.25935,3.73976 -8.90182,6.79958 -10.31661,6.79958 -1.514909,0 -3.887369,2.0554 -5.771279,5 -3.41965,5.34501 -7.998,9.75954 -15.50119,14.94656 -2.56667,1.77434 -10.36667,8.10012 -17.33333,14.05728 -7.07711,6.05157 -16.19692,12.4445 -20.66667,14.4872 -4.4,2.0108 -11.16329,5.12292 -15.02954,6.91581 -3.86625,1.79289 -7.60819,3.25981 -8.31544,3.25981 -0.70724,0 -2.23548,-2.25 -3.39607,-5 z M 471.96707,284.10495 c -2.15274,-0.72076 -4.18751,-2.84922 -5.20977,-5.44965 -2.71753,-6.91299 -15.77925,-23.60456 -20.78045,-26.55533 -2.54104,-1.49926 -5.63796,-4.68335 -6.88205,-7.07579 -1.24411,-2.39243 -6.012,-9.9196 -10.59534,-16.72704 -4.58333,-6.80744 -8.33333,-12.79241 -8.33333,-13.29995 0,-0.87974 -6.00439,-10.38106 -20.66667,-32.7029 -3.66666,-5.58212 -7.26384,-11.14456 -7.9937,-12.36098 -0.72987,-1.21641 -3.50947,-5.24266 -6.17687,-8.94721 -2.6674,-3.70456 -6.48864,-10.00456 -8.49163,-14 -2.00298,-3.99545 -4.52161,-8.26497 -5.59694,-9.48783 -1.07532,-1.22286 -1.75692,-3.62286 -1.51467,-5.33334 0.42663,-3.01212 0.89577,-3.1219 14.91445,-3.48982 15.17907,-0.39837 18.1927,0.4756 18.1927,5.27601 0,3.20174 3.35292,9.84611 7.62178,15.10386 1.78623,2.2 6.25844,9.1 9.93827,15.33333 6.84937,11.60231 10.10212,16 11.83435,16 0.53961,0 2.68013,-3.9 4.75672,-8.66666 2.57284,-5.90579 4.51565,-8.66667 6.09866,-8.66667 3.08988,0 4.58711,-3.15472 5.6952,-12 1.01387,-8.09301 4.29031,-18.38355 6.70351,-21.0541 2.27435,-2.51688 33.05005,-3.91463 37.20709,-1.68985 2.54525,1.36217 3.81808,1.31161 6.96284,-0.27658 2.11653,-1.06891 9.09421,-2.29708 15.50595,-2.72927 11.56108,-0.77928 11.66456,-0.75853 12.48329,2.50356 0.49588,1.97572 -0.56788,7.67373 -2.66364,14.2678 -1.91908,6.03815 -3.48656,13.70844 -3.48329,17.04511 0.003,3.33666 -0.5507,6.63666 -1.231,7.33333 -2.23487,2.28857 -10.76307,18.14857 -10.76307,20.01619 0,3.1379 -4.33873,11.09516 -6.50241,11.92544 -3.23723,1.24224 -22.53079,-0.82819 -25.07867,-2.69124 -3.65627,-2.67352 -2.29456,-11.64752 3.82944,-25.23702 2.99408,-6.64402 6.48075,-14.48004 7.74815,-17.41337 2.52572,-5.84568 4.58824,-15.33333 3.33329,-15.33333 -1.88255,0 -7.24924,7.59577 -7.28767,10.31462 -0.0232,1.63971 -2.44086,7.63971 -5.37264,13.33334 -2.93178,5.69361 -5.33178,11.15941 -5.33333,12.14621 -0.001,0.9868 -1.2284,3.51533 -2.72632,5.61897 -1.85791,2.60919 -2.62279,5.5315 -2.40664,9.19479 0.24953,4.22905 -0.42444,6.15139 -3.17216,9.04769 -1.91894,2.02275 -3.90365,5.93262 -4.41045,8.68862 -1.80653,9.82402 7.81664,26.28962 21.61797,36.98909 5.73655,4.44725 13.69396,15.11564 15.20537,20.38564 2.2585,7.87489 -3.32709,16.94769 -10.43368,16.94769 -1.32929,0 -3.60041,0.80674 -5.0469,1.79274 -3.87982,2.64465 -7.52231,3.25425 -11.49574,1.9239 z m 117.35715,-49.64874 c -1.92971,-1.09307 -3.87918,-2.95318 -4.33214,-4.13359 -1.03936,-2.70852 0.31067,-8.31304 3.00352,-12.46892 1.14087,-1.76071 2.47786,-6.26071 2.97108,-10 1.2807,-9.70929 4.01943,-20.10413 13.97692,-53.04925 1.03906,-3.43779 1.89738,-10.33779 1.90739,-15.33334 0.0337,-16.82345 1.63736,-18.17073 20.07079,-16.86228 10.07338,0.71502 12.26374,1.28055 13.43481,3.4687 1.66551,3.11203 0.93205,8.77721 -2.19803,16.97745 -2.66693,6.98685 -5.99244,21.82228 -5.99244,26.73284 0,1.87027 -0.58033,3.98083 -1.28962,4.69012 -1.21792,1.21792 -2.9897,14.51348 -3.25576,24.43148 l -0.12134,4.52111 14.66667,-0.004 c 8.06667,-0.003 24.29772,-0.4367 36.069,-0.96487 l 21.40233,-0.96032 1.46768,3.22123 c 1.57984,3.46736 -0.55947,23.74198 -2.73207,25.89237 -0.61529,0.609 -6.61356,1.201 -13.32949,1.31556 -20.80341,0.35487 -78.52361,2.85547 -85.54412,3.706 -4.70505,0.57001 -7.69902,0.22289 -10.17524,-1.17973 z m -22.2858,-29.15347 c -0.79984,-0.96373 -4.46459,-3.16221 -8.14391,-4.88552 -5.5186,-2.58477 -6.82978,-3.88016 -7.49008,-7.39988 -0.45721,-2.43716 0.0567,-6.79115 1.19847,-10.15424 1.0994,-3.23819 2.41316,-8.26973 2.91948,-11.1812 1.27261,-7.31793 4.06268,-15.55521 7.79037,-22.99997 1.73322,-3.46148 4.22468,-9.57066 5.53659,-13.57592 3.00101,-9.1621 6.02057,-11.61686 15.6843,-12.75064 10.21963,-1.199 12.18602,0.34929 10.95179,8.6232 -0.49853,3.34203 -1.83217,8.17641 -2.96365,10.74308 -1.13147,2.56666 -2.52227,7.36666 -3.09066,10.66666 -0.56838,3.3 -1.90693,10.2 -2.97453,15.33334 -1.06761,5.13333 -2.66753,13.20097 -3.55539,17.92808 -2.99912,15.96796 -10.84933,25.69386 -15.86278,19.65301 z m -53.53896,-93.64919 c -1.1,-0.28988 -9.70124,-1.11219 -19.11385,-1.82737 -9.41263,-0.71519 -17.9804,-2.01949 -19.0395,-2.89846 -1.40088,-1.16263 -2.76584,-1.21531 -5.00892,-0.19329 -1.83523,0.8362 -3.84315,0.93013 -4.96051,0.23206 -3.10882,-1.94224 -30.87483,-1.12312 -33.34238,0.98363 -1.68989,1.44279 -7.49442,1.7133 -28,1.30486 -14.22749,-0.28339 -26.9706,-0.97863 -28.31801,-1.54498 -2.17617,-0.91471 -2.35167,-2.08865 -1.57101,-10.509038 0.48336,-5.21362 1.14732,-10.43826 1.47546,-11.6103 1.06556,-3.80578 6.48612,-5.246 14.30462,-3.80068 10.21668,1.88866 27.18812,1.96636 44.90744,0.20559 8.43333,-0.83801 27.03333,-1.43772 41.33333,-1.33267 28.97394,0.21283 34.90021,0.0895 62.66666,-1.30419 l 19.33334,-0.9704 0.004,-15.050701 c 0.003,-11.903793 0.42082,-15.319269 2,-16.335172 1.09816,-0.706457 9.1767,-1.133641 17.95231,-0.949296 l 15.95502,0.335172 0.14968,13.705343 c 0.0823,7.537939 0.7633,14.318977 1.5133,15.068974 0.9293,0.92929 3.32699,0.86926 7.52764,-0.18848 3.4474,-0.868065 8.38247,-1.140562 11.1977,-0.618297 2.76852,0.513597 9.79056,0.834767 15.60452,0.713707 5.81396,-0.12107 15.55777,0.52182 21.65292,1.42863 8.66661,1.28938 14.93573,1.30734 28.76249,0.0824 38.62064,-3.421435 35.13462,-3.404747 38.35576,-0.18362 2.49048,2.49048 2.79298,3.83587 2.05129,9.12298 -1.35476,9.65722 -3.14259,14.12923 -7.20431,18.020608 l -3.74936,3.59211 -29.21981,0.15124 c -16.0709,0.0832 -32.21982,0.64045 -35.88649,1.23836 -3.66667,0.59791 -19.30889,1.39435 -34.76049,1.76986 -22.18194,0.53908 -28.63524,0.3069 -30.66667,-1.10331 -4.20939,-2.92215 -12.69946,-3.28884 -17.22137,-0.7438 -2.95163,1.66125 -7.38017,2.28653 -16.6848,2.3558 -6.96667,0.0519 -16.56667,0.38352 -21.33333,0.73702 -4.76667,0.35351 -9.56667,0.40557 -10.66667,0.1157 z"
       id="path833" />
  </g>
</svg>
