<?xml version="1.0" encoding="UTF-8" standalone="no"?>
<!-- Created with Inkscape (http://www.inkscape.org/) -->

<svg
   version="1.1"
   id="svg285"
   width="266.66666"
   height="293.33334"
   viewBox="0 0 266.66666 293.33334"
   xmlns="http://www.w3.org/2000/svg"
   xmlns:svg="http://www.w3.org/2000/svg">
  <defs
     id="defs289" />
  <g
     id="g291">
    <path
       style="fill:#000000;stroke-width:1.33333"
       d="m 226.59777,279.3981 c -3.82432,-3.26437 -9.42331,-6.81873 -12.44222,-7.89857 -3.01889,-1.07984 -8.78042,-3.20898 -12.8034,-4.73143 -4.02298,-1.52245 -9.55262,-2.76809 -12.2881,-2.76809 -6.46853,0 -14.29151,-3.78055 -15.18437,-7.33803 -0.38714,-1.54247 -0.51844,-6.0708 -0.29179,-10.06296 L 174,239.34057 l 6.2307,-1.33695 c 3.4269,-0.73532 6.58127,-1.69132 7.00974,-2.12445 1.12273,-1.13498 -10.5192,-18.48163 -15.60287,-23.2485 -2.36733,-2.21981 -7.00424,-7.27631 -10.30424,-11.23668 -13.85844,-16.63167 -23.35736,-26.05832 -26,-25.80221 -11.72197,1.13605 -18.45824,3.93926 -25.81259,10.74156 -1.78391,1.65 -3.71182,3 -4.28425,3 -0.57243,0 -2.93409,3.30914 -5.248128,7.35366 -2.31404,4.04452 -7.162646,9.89452 -10.774678,13 -3.612033,3.10548 -6.947199,6.83498 -7.411481,8.28778 -0.464281,1.45278 -5.18932,6.85279 -10.500085,12 -9.658173,9.36073 -13.392118,15.35856 -9.561461,15.35856 1.056197,0 4.740351,-1.24741 8.187007,-2.77204 7.294379,-3.22665 9.388937,-2.79901 10.636478,2.17159 1.292621,5.15021 -2.945131,9.18829 -16.078036,15.32045 -5.965973,2.78571 -13.765973,7.15329 -17.333333,9.70575 -9.618789,6.88228 -22.779968,13.20561 -25.613734,12.30621 -4.438289,-1.40867 -7.80247,-6.61572 -9.304562,-14.40155 -1.320938,-6.84685 -1.126817,-8.88721 1.809595,-19.02016 1.809093,-6.2428 3.289261,-12.24962 3.289261,-13.34849 0,-1.09887 0.575995,-3.0398 1.279988,-4.31319 0.703993,-1.27338 2.844992,-7.5258 4.757776,-13.89427 1.912784,-6.36845 4.290992,-12.25392 5.284906,-13.07878 2.444134,-2.02846 11.446963,0.42162 14.681207,3.99542 1.980381,2.18831 9.233099,6.66239 10.800058,6.66239 1.181804,0 8.518009,-8.93024 8.523228,-10.37517 0.0033,-0.9397 1.056169,-2.07842 2.339502,-2.53052 4.543067,-1.60046 11,-7.26319 11,-9.64702 0,-2.4468 6.062773,-9.44729 8.181819,-9.44729 0.633333,0 2.201514,-0.92191 3.484847,-2.04869 1.283334,-1.12678 4.261364,-3.56163 6.617844,-5.41078 3.661892,-2.8735 4.165619,-3.95656 3.466355,-7.45288 -0.591896,-2.95948 -0.238477,-4.41518 1.27796,-5.26382 1.152867,-0.64518 2.515367,-3.0819 3.027787,-5.41494 0.51242,-2.33302 2.20931,-5.28246 3.77087,-6.55429 l 2.83918,-2.31241 -3.47583,-3.7711 c -1.9117,-2.0741 -5.94741,-7.17612 -8.968231,-11.33782 -3.020823,-4.16171 -6.678095,-7.94306 -8.127272,-8.40301 -1.553296,-0.493 -4.310636,-4.38305 -6.717286,-9.47673 C 77.425162,106.85391 65.704305,93.111053 58.361009,88.232422 56.512884,87.004591 53.552295,84.964006 51.781923,83.69779 47.666461,80.754302 32.332651,75.178446 24.991677,73.956011 17.940789,72.781883 9.9303724,68.812372 8.8311127,65.947747 8.3740006,64.756532 7.9999998,61.471407 7.9999998,58.647468 c 0,-5.97036 2.3318442,-7.331384 10.0727942,-5.879173 4.228029,0.793182 4.795705,0.597764 4.389577,-1.511087 -0.272513,-1.415052 -2.232052,-2.879596 -4.713026,-3.522482 -6.070481,-1.57302 -6.967503,-5.65066 -2.312031,-10.509924 4.897383,-5.111768 11.22584,-6.232633 17.983822,-3.185208 4.99357,2.251787 5.377776,2.254025 7.818122,0.04555 1.411558,-1.277443 2.95212,-4.81919 3.42347,-7.870547 2.110041,-13.659669 4.8126,-16.9487314 11.756999,-14.308475 2.889432,1.098559 3.570349,0.892296 4.263454,-1.291485 1.513963,-4.7700752 4.614184,-6.6153711 11.078723,-6.5942128 9.452015,0.030936 10.586721,1.3938179 14.078439,16.9094568 2.472677,10.987475 2.812239,21.176095 0.74826,22.451704 -4.282857,2.646952 9.102083,38.700079 18.030287,48.565629 1.12627,1.244519 2.04777,2.995318 2.04777,3.890659 0,4.239237 4.06991,9.176117 8.25467,10.013067 2.4038,0.48076 6.77987,3.18809 9.7246,6.01628 3.92319,3.76793 6.82747,5.32423 10.86725,5.82335 5.38924,0.66586 5.73392,0.45814 15.33334,-9.24085 5.40108,-5.45712 12.39817,-11.641192 15.5491,-13.74239 8.62275,-5.750078 14.50075,-14.201056 15.37243,-22.101393 2.75132,-24.936361 6.22077,-37.745063 13.52687,-49.939267 2.41656,-4.033333 4.78374,-8.618805 5.26041,-10.189939 1.24012,-4.0875131 7.62314,-6.5061521 11.65702,-4.4170488 8.68426,4.4974818 9.68739,8.4429198 4.50622,17.7232858 -5.74415,10.288749 -9.47542,23.666209 -6.00231,21.519719 2.06396,-1.275606 7.9504,-14.05151 7.9504,-17.255546 0,-1.532916 0.87861,-4.041511 1.95247,-5.574653 3.12642,-4.463603 8.27796,-2.58423 12.91269,4.710784 5.64803,8.889924 6.02027,11.64764 2.45355,18.176845 -4.41679,8.085319 -3.07664,10.552865 5.19905,9.572731 7.60241,-0.900394 11.16876,1.003822 13.29311,7.097744 1.20021,3.442907 1.01542,4.476457 -1.19563,6.68751 -3.37065,3.370656 -3.34081,3.470121 1.32096,4.402475 3.24599,0.6492 4.19493,1.748112 5.41176,6.267075 2.33119,8.65735 1.68451,9.540041 -9.35676,12.771718 -5.49516,1.608385 -12.6912,3.843257 -15.9912,4.966383 -7.55261,2.570467 -14.32509,4.215997 -25.33333,6.155327 -4.76667,0.83975 -10.16667,2.60126 -12,3.91447 C 195.5,110.50877 191.3,112.80311 188,114.2941 c -3.3,1.49099 -9.64732,6.23477 -14.10516,10.54173 -4.45786,4.30696 -10.15786,9.03877 -12.66667,10.51515 -5.82291,3.4266 -6.97816,10.67033 -2.5912,16.24745 1.94961,2.47853 2.5628,4.64103 2.01857,7.11887 -0.6821,3.10564 0.75943,5.15226 11.31791,16.0685 6.65476,6.88027 13.70937,14.91812 15.67689,17.8619 1.96752,2.94376 6.3011,8.05836 9.63015,11.36576 3.32906,3.30741 8.67117,9.75741 11.87137,14.33333 3.20019,4.57594 5.98273,8.31988 6.18345,8.31988 0.20071,0 0.28236,-3.11625 0.18147,-6.92501 -0.17881,-6.7497 -0.0484,-7.00231 5.14988,-9.97807 2.93333,-1.67917 6.66792,-3.06292 8.29909,-3.07499 4.26487,-0.0316 6.8464,5.85614 5.54426,12.64474 -2.5,13.03351 -0.60379,43.83032 3.44801,56 1.89444,5.68997 0.78989,10 -2.56273,10 -1.01432,0 -4.9732,-2.67085 -8.79752,-5.93524 z"
       id="path1585" />
  </g>
</svg>
