<?xml version="1.0" encoding="UTF-8" standalone="no"?>
<!-- Created with Inkscape (http://www.inkscape.org/) -->

<svg
   version="1.1"
   id="svg83"
   width="222.66667"
   height="356"
   viewBox="0 0 222.66667 356"
   xmlns="http://www.w3.org/2000/svg"
   xmlns:svg="http://www.w3.org/2000/svg">
  <defs
     id="defs87" />
  <g
     id="g89">
    <path
       style="fill:#000000;stroke-width:1.33333"
       d="m 65.60458,349.98607 c -9.433854,-4.09846 -15.918947,-10.07802 -20.307803,-18.72476 -3.678516,-7.24726 -4.216762,-9.5219 -3.70719,-15.66667 0.764706,-9.22133 5.007047,-17.48839 12.561256,-24.47812 8.105033,-7.4994 13.133593,-9.63899 23.275101,-9.90328 12.038915,-0.31373 17.081981,1.98565 28.044136,12.78676 9.4185,9.28012 11.77046,22.32916 6.58276,36.52212 -3.47441,9.50557 -5.62284,11.63041 -17.150212,16.96192 -10.921541,5.05132 -21.375188,5.94404 -29.298048,2.50203 z m 6.74313,-25.64795 c -1.978194,-0.65939 -10.976954,5.24611 -10.99787,7.21744 -0.03688,3.47599 3.581994,2.59332 7.897902,-1.92636 2.519592,-2.63856 3.914578,-5.01953 3.099968,-5.29108 z m 23.385625,7.39521 c 2.522257,-2.52225 1.960342,-3.4953 -3.680216,-6.3729 -5.088328,-2.59587 -9.386451,-3.49147 -9.386451,-1.95586 0,0.40584 1.65,2.80583 3.666667,5.3333 3.824433,4.79312 6.689386,5.70608 9.4,2.99546 z m -14.4,-13.32704 c 0,-1.60988 1.606258,-4.60361 3.569464,-6.65276 1.963204,-2.04914 3.147109,-4.14806 2.6309,-4.66428 -0.516211,-0.51621 -2.688647,0.97754 -4.827636,3.31943 -2.13899,2.34189 -4.729903,4.25799 -5.757585,4.25799 -2.299297,0 -5.673697,-3.7037 -6.824809,-7.49083 -0.472127,-1.55328 -2.031841,-3.88609 -3.466031,-5.18401 -2.132849,-1.9302 -2.976309,-2.05387 -4.632626,-0.67926 -1.113756,0.92434 -2.025011,2.48378 -2.025011,3.46542 0,2.32544 4.828653,6.77914 9.636036,8.88778 2.090987,0.91716 4.143327,3.01756 4.560756,4.66756 1.060983,4.19382 7.136542,4.25594 7.136542,0.073 z m 11.49333,-15.0091 c 1.088135,-2.83564 -0.841369,-5.51808 -2.306246,-3.2062 -1.572282,2.48137 -1.474948,5.14234 0.188096,5.14234 0.756348,0 1.709516,-0.87126 2.11815,-1.93614 z M 137.6251,313 c -1.73423,-2.11271 -3.05218,-12.88885 -3.49716,-28.59452 l -0.3474,-12.26119 -6.47125,-7.73881 C 123.7501,260.14913 116.05828,251.9344 110.21636,246.15051 L 99.594687,235.63436 67.61796,236.44101 c -17.587201,0.44366 -32.29837,1.12828 -32.69149,1.5214 -0.393119,0.39312 0.644237,2.16136 2.305237,3.92942 4.481818,4.77066 2.781252,8.77484 -3.726668,8.77484 -5.871067,0 -11.41902,-5.02802 -16.183323,-14.66667 -1.631161,-3.3 -3.711222,-6.9 -4.62236,-8 -4.4342784,-5.35343 -2.37749,-12.53787 3.173794,-11.08617 1.422698,0.37204 4.727334,3.06094 7.343634,5.97533 3.567067,3.97348 5.421167,5.08807 7.412558,4.45603 2.619541,-0.83142 13.031649,-1.21866 72.037328,-2.67911 30.61375,-0.75772 43.92176,-1.29879 64,-2.60205 6.23333,-0.40462 16.13333,-0.97788 22,-1.27395 5.86667,-0.29607 12.16667,-1.1088 14,-1.80608 3.89813,-1.4826 6.67809,-0.83676 9,2.09088 1.81847,2.29287 2.21035,9.39307 0.64625,11.70875 -1.56844,2.32208 -6.33198,2.98746 -8.74673,1.22176 -1.60808,-1.17586 -8.20472,-1.47798 -23.84057,-1.0919 -11.88954,0.29359 -21.85932,0.77576 -22.15507,1.07151 -1.37084,1.37085 3.25831,15.1536 7.96623,23.71844 2.8721,5.22508 5.04397,10.42471 4.82634,11.55475 -0.21762,1.13002 -2.18836,2.36308 -4.3794,2.74012 -4.8105,0.82778 -5.95345,5.1477 -2.68266,10.13956 3.42409,5.22581 1.57333,8.24044 -5.70151,9.28693 -9.56328,1.37569 -11.31125,3.57107 -10.23393,12.85336 0.86438,7.44755 0.78072,7.73221 -2.6567,9.03911 -4.57288,1.73861 -5.42768,1.70032 -7.08382,-0.31727 z M 148,274 c 0,-2.56667 -0.6,-4.66667 -1.33333,-4.66667 -1.47851,0 -1.84901,7.03987 -0.44444,8.44444 C 147.75682,279.31237 148,278.79561 148,274 Z m -13.84928,-29.51383 c -0.4857,-4.1326 -1.20373,-8.0326 -1.5956,-8.66666 C 131.86638,234.70509 116,234.11619 116,235.20504 c 0,1.06288 16.69265,16.74512 17.85024,16.76976 0.65434,0.0139 0.7887,-3.33464 0.30048,-7.48863 z M 11.428572,209.90476 c -2.8274715,-2.82747 -2.6398591,-7.1452 0.455612,-10.48549 1.402967,-1.51394 4.241938,-5.7526 6.308822,-9.41927 3.295618,-5.84645 3.760988,-8.06104 3.782482,-18 l 0.02451,-11.33333 4.244747,-0.4112 c 5.159972,-0.49987 7.388916,2.7576 6.810921,9.95373 -0.501549,6.2444 1.865436,7.07304 6.34877,2.22261 1.914106,-2.07082 6.157056,-6.52981 9.428776,-9.90884 l 5.948582,-6.14369 -0.119773,-29.85631 C 54.596153,110.10201 54.332577,89.791829 54.076303,81.389252 L 53.61035,66.111837 48.157734,61.025691 c -3.918868,-3.65548 -6.301885,-4.912784 -8.471843,-4.469827 -1.660573,0.338975 -6.12413,0.967261 -9.919017,1.396192 -6.327043,0.715135 -6.984567,0.528135 -7.92104,-2.252759 -0.561687,-1.667946 -1.05678,-3.93263 -1.100207,-5.03263 -0.04773,-1.209002 -1.660956,-2.178495 -4.07896,-2.451314 -5.405108,-0.60985 -7.3333335,-2.471012 -7.3333335,-7.078281 0,-2.90088 -0.8345615,-4.18704 -3.3333334,-5.137072 -4.7840908,-1.818908 -4.7840908,-8.918411 0,-10.119141 2.6024004,-0.653162 3.3333334,-1.689347 3.3333334,-4.725403 0,-3.276171 0.6465686,-4.018103 4.1042985,-4.709649 2.654572,-0.530915 4.531352,-1.944095 5.313323,-4.000834 1.855337,-4.879909 5.214704,-5.4522678 8.172151,-1.392347 2.51139,3.447585 2.566901,3.457367 5.121597,0.902671 3.9657,-3.9657002 9.06764,-1.140221 10.148708,5.620404 0.626798,3.919782 1.215466,4.801506 2.496074,3.738696 1.234624,-1.024646 2.593088,-0.300717 5.15984,2.749694 3.012584,3.580253 3.500141,5.434674 3.603232,13.704876 l 0.119224,9.564366 1.729852,-6 C 60.505697,23.283012 68.505538,15.056319 87.470229,8.2525316 96.642835,4.9617605 116.88791,4.2252021 129.60104,6.719724 c 8.01639,1.5729445 21.05395,7.845397 21.06096,10.132564 0.003,0.835425 1.22107,2.935425 2.70779,4.666667 l 2.70313,3.147712 2.12618,-3 c 1.18641,-1.674018 3.5276,-3 5.29686,-3 2.60414,0 3.17071,-0.685584 3.17071,-3.83674 0,-5.4990654 2.88444,-7.3452946 9.96057,-6.3754033 3.34954,0.4591038 6.2725,0.2470626 6.72678,-0.4879821 1.55008,-2.5080749 13.26808,-1.4940375 16.39457,1.4187319 1.60495,1.4952335 2.91808,3.2798255 2.91808,3.9657595 0,0.685935 1.72373,2.138532 3.83053,3.227996 5.64595,2.919635 6.24906,7.12139 1.4168,9.870516 -2.96637,1.687599 -3.89914,3.188378 -3.90557,6.283788 C 203.99643,38.330741 201.84068,40 194.62223,40 c -7.28667,0 -8.36451,0.744523 -6.39783,4.419305 1.21022,2.261298 0.94542,3.155216 -1.52794,5.158023 -1.65156,1.337345 -5.16564,2.430828 -7.84416,2.440879 -11.50838,0.04317 -14.31979,4.276696 -12.21355,18.391504 C 167.26171,74.584369 168.15166,94.2 168.61642,114 l 0.84501,36 4.93596,3.99365 c 2.71477,2.19651 8.07281,7.29651 11.90676,11.33334 l 6.97081,7.33968 0.0292,-6.2706 c 0.0535,-11.48851 3.84096,-15.65279 11.02919,-12.12639 4.09952,2.01115 4.20189,2.54412 2.35717,12.27127 -0.75336,3.97248 -0.81942,7.87197 -0.15556,9.18198 0.63467,1.25239 1.95559,4.07707 2.93539,6.27707 0.97981,2.2 3.44981,6.50811 5.48891,9.57357 3.93866,5.92119 4.56729,9.66172 2.32718,13.84742 -2.0347,3.80186 -6.81181,3.14973 -13.42802,-1.83307 -8.6936,-6.54733 -12.75727,-7.75665 -24.58079,-7.31508 l -10.54471,0.39383 -1.00398,5.9033 c -0.5522,3.24682 -1.71626,6.34351 -2.58679,6.88154 -0.87055,0.53802 -23.23365,1.04421 -49.6958,1.12485 -26.462153,0.0807 -49.99429,0.48785 -52.293641,0.90488 -4.762744,0.86383 -5.936613,-0.36163 -7.122984,-7.43595 l -0.790212,-4.71196 -10.385178,0.25019 c -11.226649,0.27045 -18.805748,3.10589 -24.57496,9.19381 -3.551108,3.74728 -5.928159,4.05007 -8.850803,1.12743 z M 115.03123,198.13652 c 20.36717,-0.23165 37.23724,-0.65715 37.48901,-0.94552 C 153.52987,196.03463 156,175.40461 156,168.12888 c 0,-6.49121 -0.60184,-8.50176 -3.67556,-12.27888 -7.5587,-9.28844 -25.75745,-26.48755 -39.29259,-37.13429 -3.42098,-2.69094 -3.78111,-2.72307 -6.98605,-0.62311 -1.85852,1.21775 -3.38592,2.59509 -3.39422,3.06075 -0.008,0.46566 -6.648181,7.74665 -14.7553,16.17998 -8.107119,8.43334 -15.526774,16.83334 -16.488123,18.66667 -0.961351,1.83333 -2.143095,9.33333 -2.6261,16.66667 C 68.299052,180 67.550361,189.19803 67.1183,193.10673 l -0.785566,7.10674 5.833634,-0.82787 c 3.208498,-0.45533 22.497687,-1.01741 42.864862,-1.24908 z M 55.000001,187.12481 c 0.55,-0.33853 1,-3.28012 1,-6.53684 0,-3.25672 -0.45,-5.9168 -1,-5.91128 -1.142562,0.012 -11.360355,10.38172 -12.97621,13.16984 -0.880081,1.51855 0.08845,1.67311 5.453027,0.87016 3.587751,-0.53698 6.973183,-1.25333 7.523183,-1.59188 z m 126.100819,-2.92961 3.10082,-0.87232 -3.10082,-2.82925 c -1.70544,-1.55611 -4.8254,-4.7289 -6.93323,-7.05064 -2.10783,-2.32176 -4.50783,-3.98171 -5.33333,-3.68876 -1.47014,0.52168 -1.65822,10.1754 -0.26879,13.79618 0.71376,1.86002 7.05599,2.18624 12.53535,0.64479 z M 84.666972,124.40889 C 95.284513,113.61264 100,107.87193 100,105.74222 c 0,-1.69155 -0.587655,-3.07555 -1.305901,-3.07555 -0.718247,0 -4.532983,-3.150003 -8.477191,-7.000003 -8.518145,-8.31469 -19.23411,-17 -20.974651,-17 -0.716099,0 -1.246271,9.176909 -1.251735,21.666663 C 67.985322,112.25 67.598546,126.05 67.131049,131 c -0.601148,6.36515 -0.403109,9 0.676449,9 0.839544,0 8.426307,-7.016 16.859474,-15.59111 z m 69.285858,0.81392 c -0.026,-5.43921 -0.17595,-20.59013 -0.33333,-33.668715 L 153.33334,67.774856 139.8297,81.918391 c -19.87215,20.813829 -21.61633,23.207999 -19.39752,26.626319 0.99554,1.53374 5.26878,5.48862 9.49608,8.78862 4.2273,3.3 10.7728,8.83745 14.54554,12.30545 3.77275,3.46799 7.45954,6.11826 8.19287,5.88947 0.73744,-0.23006 1.31225,-4.83574 1.28616,-10.30544 z M 117.80095,86.368337 C 127.25422,78.146139 132,73.498165 132,72.461929 c 0,-0.412605 3.11211,-3.835333 6.91579,-7.606061 C 147.53887,56.307496 152,49.858057 152,45.940089 c 0,-1.661616 -1.95,-5.473285 -4.33333,-8.470376 -2.38333,-2.99709 -5.72516,-7.249256 -7.42628,-9.449256 -2.18572,-2.826724 -5.31445,-4.617058 -10.66666,-6.103702 -4.16555,-1.157036 -9.91521,-2.993383 -12.77701,-4.080771 -5.92965,-2.253061 -16.022,-1.579404 -26.796719,1.78866 -9.271177,2.898073 -13.452656,6.182756 -18.029425,14.162677 -3.3662,5.869207 -3.947388,8.291954 -3.958063,16.499618 -0.0116,8.932638 0.292876,9.968089 4.259992,14.486385 2.349877,2.676363 6.162146,6.14724 8.471706,7.713061 2.30956,1.565822 9.220922,6.896948 15.358584,11.846948 6.137665,4.95 11.728845,9 12.424855,9 0.69601,0 4.869,-3.134248 9.2733,-6.964996 z M 30.257322,17.692043 c -0.338059,-1.297291 -0.636884,-0.55871 -0.664056,1.64129 -0.02717,2.2 0.24942,3.261419 0.61465,2.35871 0.365231,-0.902711 0.387463,-2.702711 0.0494,-4 z"
       id="path958" />
  </g>
</svg>
