<?xml version="1.0" encoding="UTF-8" standalone="no"?>
<!-- Created with Inkscape (http://www.inkscape.org/) -->

<svg
   version="1.1"
   id="svg223"
   width="217.33333"
   height="240"
   viewBox="0 0 217.33333 240"
   xmlns="http://www.w3.org/2000/svg"
   xmlns:svg="http://www.w3.org/2000/svg">
  <defs
     id="defs227" />
  <g
     id="g229">
    <path
       style="fill:#000000;stroke-width:1.33333"
       d="m 137.87398,234.96639 c -20.02467,-0.3651 -20.13514,-0.384 -21.93842,-3.75347 -1.33044,-2.48593 -1.43168,-3.98395 -0.3807,-5.63305 1.17216,-1.83927 3.64982,-2.24654 13.66703,-2.24654 13.89992,0 12.93992,0.74032 18.82412,-14.51657 l 3.02751,-7.84991 -2.8701,-8.91136 c -1.57854,-4.90124 -2.87009,-11.2801 -2.87009,-14.17526 0,-5.131 -7.79429,-23.01103 -12.73483,-29.21356 C 131.43025,147.2 127.96767,142.1 124.90387,137.33333 l -5.57054,-8.66666 -0.11224,-14.76959 c -0.0617,-8.12327 -0.55276,-15.482359 -1.09117,-16.353532 -0.53842,-0.871173 -3.08128,-2.462365 -5.6508,-3.535981 -3.67334,-1.534819 -4.58003,-2.599162 -4.24216,-4.979799 0.50126,-3.531948 6.43727,-6.800468 17.65852,-9.723232 9.61002,-2.503093 11.92184,-2.474168 17.17073,0.21484 5.27789,2.703864 5.56315,3.137556 9.08573,13.813957 C 153.72466,98.1 155.68802,102.9 156.51498,104 c 0.82695,1.1 2.9609,4.8025 4.74211,8.22779 2.24223,4.31182 8.08469,10.42673 18.99073,19.87634 8.6637,7.5067 15.75218,14.18147 15.75218,14.83282 0,0.65134 1.35,2.56426 3,4.25094 7.57924,7.74771 13.50238,18.4621 12.3002,22.24984 C 210.45005,176.11632 188.70308,188 184.65146,188 c -3.07234,0 -3.66933,3.01824 -1.445,7.30565 1.72068,3.3166 1.7268,4.2671 0.0484,7.51279 -1.1317,2.18847 -1.92152,7.51995 -1.92152,12.9708 0,8.76001 0.17828,9.29975 3.33334,10.09161 3.60362,0.90446 4.52362,4.83902 1.66666,7.12788 -2.05464,1.64608 -21.79938,2.44374 -48.45934,1.95766 z m 30.3151,-11.97919 c 1.333,-1.36581 1.90161,-22.01641 0.66148,-24.023 -2.03819,-3.29784 -4.76747,-1.54219 -6.27391,4.0358 -0.84172,3.11667 -2.9658,8.67528 -4.72019,12.35247 -4.63896,9.72325 -4.38361,10.50696 3.08967,9.48264 3.45371,-0.47339 6.71303,-1.30495 7.24295,-1.84791 z m 19.14425,-49.86032 c 4.4,-1.52392 8.54124,-3.27215 9.20276,-3.88492 1.68451,-1.5604 -10.45297,-19.09071 -16.57496,-23.93941 -6.86816,-5.43968 -9.29447,-5.22432 -9.29447,0.82496 0,5.54682 -4.3965,12.53916 -7.88414,12.53916 -2.3785,0 -5.99455,-3.26982 -6.94187,-6.27719 -0.27903,-0.88579 -4.15127,-5.68579 -8.60499,-10.66667 -7.56857,-8.46442 -8.02345,-9.33928 -6.96188,-13.38948 C 140.89846,125.95 141.87774,124 142.44994,124 c 0.57222,0 2.12631,-0.79405 3.45355,-1.76456 1.89276,-1.38401 2.11205,-2.31853 1.01689,-4.33333 -0.76796,-1.41283 -1.99281,-5.86878 -2.7219,-9.90211 -0.7291,-4.03333 -2.01422,-9.133333 -2.85582,-11.333333 -1.3438,-3.512775 -1.68924,-3.715786 -2.83601,-1.666667 -0.7182,1.283333 -2.49087,2.333333 -3.93924,2.333333 -3.72027,0 -5.23408,5.016467 -5.23408,17.344757 v 10.5045 l 6.64255,8.4087 c 3.6534,4.62479 7.91672,11.10871 9.47405,14.40871 1.55733,3.3 3.71391,7.90228 4.79239,10.22728 1.07848,2.325 5.54585,7.64677 9.9275,11.82616 7.72183,7.36537 8.1387,7.57193 13.56508,6.72156 3.07914,-0.48253 9.19843,-2.12419 13.59843,-3.64812 z m -26,-36.46021 c 0,-2.92064 -0.57777,-3.33334 -4.66667,-3.33334 -5.2349,0 -5.64645,0.70738 -2.46001,4.22835 3.29709,3.64325 7.12668,3.16231 7.12668,-0.89501 z M 15.899082,199.69561 C 12.75976,199.16153 9.6305081,198.16384 8.9451881,197.47852 6.3012199,194.83455 5.208435,182.24877 5.2025213,154.37363 c -0.00625,-29.44335 0.5948793,-33.53265 5.1293967,-34.89393 1.284112,-0.3855 13.892799,-1.01808 28.019304,-1.40575 32.00834,-0.87838 30.229456,-1.96774 31.73951,19.43681 1.209887,17.14975 1.139634,53.27936 -0.111266,57.22059 -1.553064,4.89328 -5.75505,5.78893 -27.509332,5.86365 -11.474757,0.0395 -23.431732,-0.36531 -26.571054,-0.89939 z m 41.30651,-11.58845 c 1.503715,-0.952 1.897406,-6.71008 2,-29.25181 0.122934,-27.01164 0.02752,-28.09132 -2.538926,-28.72732 -4.668455,-1.1569 -35.09388,0.31666 -37.935164,1.83727 -2.433132,1.30217 -2.73084,2.73111 -2.725438,13.08161 0.0033,6.39086 0.39812,18.42416 0.877301,26.74064 0.787368,13.66529 1.139753,15.22946 3.660603,16.24882 3.736934,1.5111 34.293432,1.57011 36.661624,0.0708 z M 16.755937,60.89682 c -1.838661,-1.34446 -2.658537,-4.469028 -3.411163,-13 C 11.924466,31.797671 12.464514,12.653432 14.404925,10.315379 15.298166,9.2390896 18.872474,7.9391017 22.347833,7.4265171 25.823192,6.9139324 69.299558,6.2282712 118.96198,5.9028255 l 90.29531,-0.5917195 1.96785,3.0111137 c 1.58442,2.4243783 1.90763,7.7485843 1.65876,27.3237173 -0.20421,16.061815 -0.826,24.82949 -1.83222,25.835712 -2.43412,2.434128 -7.44395,0.244815 -11.05168,-4.829632 -1.83334,-2.57867 -5.43334,-7.053186 -8,-9.943368 l -4.66667,-5.254873 -46.66667,-0.393555 C 83.723864,40.580005 38.424743,41.166143 36.426035,42.40902 c -0.817529,0.508372 -3.07474,3.914287 -5.016023,7.568697 -3.915004,7.36988 -8.409099,12.68895 -10.720924,12.68895 -0.832008,0 -2.601927,-0.796431 -3.933151,-1.769847 z M 29.211208,34.546953 31.649657,30 h 80.937303 80.93732 l 3.77844,4.629347 3.77844,4.629345 0.94281,-6.287113 c 0.51855,-3.457914 0.54809,-8.391119 0.0657,-10.96268 l -0.87721,-4.675566 -7.60624,-0.10696 C 178.88134,17.019309 104.21554,17.41148 64.827862,17.90276 33.248929,18.296643 24.752538,18.7729 23.84828,20.199835 c -1.356232,2.140153 -1.580683,18.956652 -0.270503,20.266832 1.187364,1.187364 2.641477,-0.340646 5.633431,-5.919714 z"
       id="path251" />
  </g>
</svg>
