<?xml version="1.0" encoding="UTF-8" standalone="no"?>
<!-- Created with Inkscape (http://www.inkscape.org/) -->

<svg
   version="1.1"
   id="svg213"
   width="222.66667"
   height="236"
   viewBox="0 0 222.66667 236"
   xmlns="http://www.w3.org/2000/svg"
   xmlns:svg="http://www.w3.org/2000/svg">
  <defs
     id="defs217" />
  <g
     id="g219">
    <path
       style="fill:#000000;stroke-width:1.33333"
       d="M 107.33333,230.66667 C 54.533334,230.3 10.278154,229.48381 8.9884911,228.85293 5.7486894,227.26807 4.969247,223.13297 5.5402451,210.55936 c 0.4017438,-8.84656 0.9639582,-11.143 3.1126761,-12.71419 2.1616688,-1.58065 8.3664258,-1.82385 35.3180598,-1.38434 33.329432,0.54352 45.362354,0.0306 45.362354,-1.93348 0,-0.60568 -1.8,-3.15131 -4,-5.65698 -5.007714,-5.70346 -5.169958,-9.72781 -0.478366,-11.86544 3.255858,-1.48346 3.784148,-1.26004 7,2.96052 8.617101,11.30931 8.719461,11.38399 12.231321,8.92418 3.94565,-2.76364 9.71552,-2.87162 11.91371,-0.22296 3.0417,3.66502 7.39098,2.35549 11.40256,-3.43323 4.4758,-6.45857 8.12343,-9.23344 12.1376,-9.23344 5.99244,0 4.764,9.02483 -2.07032,15.2098 -1.54174,1.39525 -2.80317,3.04068 -2.80317,3.65649 0,0.61582 15.45,0.89471 34.33333,0.61976 34.90595,-0.50824 40.95998,0.13444 43.74706,4.64402 1.82616,2.95478 1.98344,24.60845 0.19634,27.03069 -0.88553,1.20027 -3.41006,2.63012 -5.61006,3.17744 -2.2,0.54732 -47.2,0.69513 -100.00001,0.32847 z m 91.04385,-10.81007 c 2.53885,-0.96527 3.04684,-2.00145 2.70737,-5.52241 -0.72151,-7.48344 -1.00331,-7.5064 -91.75122,-7.47275 -45.099996,0.0167 -84.388468,0.43804 -87.307711,0.93627 -4.197323,0.71636 -5.577665,1.67346 -6.598092,4.57504 -2.288475,6.50724 0.900179,8.02205 18.189548,8.64116 8.275707,0.29633 15.169355,0.66141 15.319219,0.81128 0.920056,0.92005 146.901066,-1.00295 149.440886,-1.96859 z M 93.333335,151.84567 c -13.842023,-0.81175 -43.420452,-5.83351 -46.000001,-7.80979 -0.733333,-0.56183 -3.672379,-1.44363 -6.531212,-1.95956 -2.858833,-0.51593 -12.023748,-3.99915 -20.366479,-7.74047 -11.9939071,-5.37869 -15.3342656,-7.46246 -15.9601495,-9.95618 -1.050651,-4.18613 2.4003307,-7.872 8.4293075,-9.00304 2.601766,-0.4881 7.812545,-2.27819 11.579509,-3.97798 8.958549,-4.04244 13.301035,-5.4655 22.182357,-7.26929 32.832482,-6.668287 67.088893,-9.326143 89.225433,-6.922748 28.26917,3.069228 62.54488,12.895978 75.51641,21.650368 6.46168,4.36093 7.35488,5.94006 5.77068,10.20226 -1.22761,3.30279 -4.70695,5.03953 -19.17919,9.57347 -17.93588,5.61905 -16.89926,5.37718 -48,11.19913 -12.40473,2.32212 -36.69156,3.18523 -56.666665,2.01383 z m 36.000005,-13.17155 c 1.83333,-0.61827 8.43333,-1.47079 14.66666,-1.89447 12.9069,-0.87728 48.95022,-7.8632 50.96507,-9.87805 1.67451,-1.67451 0.19731,-4.23493 -2.44331,-4.23493 -1.09313,0 -3.90772,-1.01176 -6.25464,-2.24834 C 183.9202,119.18174 179.3,117.72122 176,117.17272 c -3.3,-0.54849 -9,-1.70264 -12.66666,-2.56476 -8.93831,-2.10161 -41.4997,-2.30827 -43.53168,-0.27629 -1.15334,1.15335 -2.46025,1.05149 -5.29104,-0.41236 -5.85921,-3.02992 -32.11924,-3.04681 -47.937924,-0.0308 -21.429853,4.0858 -34.021369,6.97491 -36.496202,8.37401 -2.421396,1.3689 -2.291075,1.64665 2,4.26259 2.524596,1.53905 5.790173,2.80083 7.25684,2.80394 1.466667,0.003 5.667464,1.14621 9.335105,2.54023 3.66764,1.39402 9.667641,2.91037 13.333334,3.36968 3.665692,0.45929 9.664895,1.43169 13.331561,2.16088 8.515275,1.6934 39.881086,3.71818 46.000006,2.96946 2.56666,-0.31405 6.16666,-1.07688 8,-1.69516 z M 111.40394,84.966329 C 87.772292,80.967273 72.869726,49.896973 84.0343,27.903477 c 4.503163,-8.870944 8.503272,-13.012482 16.89143,-17.488655 7.06757,-3.7714663 8.35838,-4.0151612 18.45941,-3.4849923 8.79802,0.4617776 12.04996,1.2671087 17.124,4.2406893 15.62533,9.157058 21.02804,17.633893 21.25953,33.356176 0.37827,25.689554 -21.38039,44.667598 -46.36473,40.439634 z m 13.9294,-12.343988 c 0,-1.507673 -6.89684,-13.569434 -11.02934,-19.289008 -2.38431,-3.3 -7.3237,-10.180222 -10.97642,-15.289384 -4.42742,-6.192744 -6.784752,-8.544601 -7.071591,-7.055162 -0.236649,1.228821 2.158942,5.930033 5.323541,10.44714 6.50986,9.2921 6.98431,10.032353 12.32568,19.23074 4.24499,7.310329 8.61205,12.666666 10.32721,12.666666 0.6055,0 1.10092,-0.319946 1.10092,-0.710992 z m -16.53067,-4.832793 c -1.46626,-2.09338 -2.136,-2.41306 -2.136,-1.019556 0,2.139563 2.76116,5.579956 3.71377,4.627343 0.30703,-0.307022 -0.40297,-1.930526 -1.57777,-3.607787 z m 28.53067,0.737152 c 0,-2.035103 -24.03879,-35.599027 -24.88808,-34.749737 -0.66827,0.668268 7.31562,14.373824 12.12559,20.81541 1.88603,2.525804 3.42915,5.288191 3.42915,6.138636 0,1.986708 6.10344,8.602324 7.93634,8.602324 0.76834,0 1.397,-0.362985 1.397,-0.806633 z m 0.75346,-18.301071 c -2.59737,-4.060341 -5.32946,-7.757566 -6.07131,-8.216056 -2.72755,-1.685718 -1.23012,2.979644 2.98451,9.298492 6.89483,10.337162 6.93864,10.385678 7.40464,8.198863 0.22256,-1.044373 -1.72046,-5.220957 -4.31784,-9.281299 z m -41.17598,0.191038 c -0.425635,-1.063644 -0.741577,-0.747702 -0.805556,0.805556 -0.05789,1.405554 0.257237,2.193054 0.700293,1.75 0.443055,-0.443056 0.490424,-1.593056 0.105267,-2.555556 z m 29.66631,-16.511976 c -3.16892,-3.373163 -5.24379,-4.148164 -5.24379,-1.95865 0,2.040768 7.27625,8.225198 7.80633,6.634967 0.26368,-0.79106 -0.88946,-2.895404 -2.56254,-4.676317 z m -16.33298,-4.821358 c -0.42563,-1.063644 -0.74157,-0.747701 -0.80555,0.805556 -0.0579,1.405555 0.25723,2.193055 0.70029,1.75 0.44306,-0.443056 0.49042,-1.593056 0.10527,-2.555556 z m -2.77193,-6.055556 c -1.35535,-1.355353 -2.47366,0.68519 -1.36162,2.48451 0.84005,1.359222 1.1541,1.360274 1.60574,0.0053 0.30879,-0.92638 0.19894,-2.046828 -0.24412,-2.489884 z m 12.50736,2.63889 c -0.0373,-1.824894 -2.4884,-4.935624 -3.2718,-4.152224 -1.05033,1.050334 0.62278,5.152224 2.10154,5.152224 0.65488,0 1.18149,-0.45 1.17026,-1 z"
       id="path390" />
  </g>
</svg>
