<?xml version="1.0" encoding="UTF-8" standalone="no"?>
<!-- Created with Inkscape (http://www.inkscape.org/) -->

<svg
   version="1.1"
   id="svg203"
   width="210.66667"
   height="220"
   viewBox="0 0 210.66667 220"
   xmlns="http://www.w3.org/2000/svg"
   xmlns:svg="http://www.w3.org/2000/svg">
  <defs
     id="defs207" />
  <g
     id="g209">
    <path
       style="fill:#000000;stroke-width:1.33333"
       d="m 85.333335,214.67987 c -2.566667,-0.66331 -7.966667,-1.92266 -12.000001,-2.79855 -4.033333,-0.87588 -8.280577,-2.40751 -9.438321,-3.40359 -1.157743,-0.99609 -2.662517,-1.81106 -3.343941,-1.81106 -2.703019,0 -15.030378,-7.4683 -23.559255,-14.27294 C 32.037314,188.44087 22.587795,178.89484 15.992884,171.18036 5.8122193,159.27139 4.2090622,156.76739 5.3728888,154.59276 c 0.7539126,-1.40871 2.7034315,-2.84549 4.3322642,-3.19287 2.335459,-0.49808 44.199587,-0.0689 60.961515,0.625 6.251276,0.25878 115.310552,0.36231 121.820392,0.1156 6.54076,-0.24782 12.84628,2.41199 12.84628,5.41886 0,4.97793 -22.39939,29.9489 -34.10167,38.01676 -8.44691,5.8235 -26.90353,14.22034 -36.565,16.63526 -11.34586,2.83592 -41.980093,4.36874 -49.333335,2.46844 z m 45.333335,-11.15088 c 19.25251,-4.46211 34.08647,-13.49254 49.93429,-30.39835 l 7.93428,-8.46397 -10.60094,-0.97124 c -14.85534,-1.36103 -60.18393,-2.48692 -111.914602,-2.77978 -40.24059,-0.22781 -44.017094,-0.0585 -44.412986,1.9903 -0.461328,2.38752 15.000121,18.8827 24.499354,26.13734 9.896035,7.5577 32.68249,17.94594 34.774762,15.85366 0.341665,-0.34167 2.233252,-0.11827 4.203525,0.49654 5.889698,1.8377 34.691797,0.65958 45.582317,-1.8645 z M 95.428574,43.238095 c -1.152382,-1.15238 -2.095239,-3.567231 -2.095239,-5.366334 0,-2.214756 -1.020772,-3.659193 -3.160952,-4.472888 C 86.881645,32.147736 67.809669,31.596223 31.156763,31.692289 9.9639196,31.747836 9.626208,31.703344 8.2459108,28.673921 7.2126348,26.406128 7.294397,24.98454 8.5574517,23.257209 10.1135,21.129187 13.8886,20.882261 49.881973,20.554208 c 40.478594,-0.368932 43.451362,-0.752915 43.451362,-5.61248 0,-1.135797 0.9576,-3.123223 2.128001,-4.416501 3.177874,-3.5115109 8.242894,-0.791063 9.331554,5.012029 1.15146,6.137777 3.92898,5.593084 6.08059,-1.192451 2.9175,-9.2009553 8.76416,-8.4923753 10.34759,1.254066 l 0.82332,5.067796 41.68173,0.352381 41.68175,0.352381 1.43324,3.145628 c 1.02557,2.250883 1.02009,3.917615 -0.0193,5.859682 -1.41022,2.635021 -2.6219,2.716204 -41.61003,2.787856 -27.24629,0.05007 -40.72812,0.54737 -41.93228,1.546734 -0.97613,0.810112 -2.16114,3.232039 -2.63337,5.382058 -1.68576,7.675473 -11.31276,6.32243 -11.31276,-1.58998 0,-2.521547 -0.68558,-3.83674 -2,-3.83674 -1.1,0 -2,1.066496 -2,2.369992 0,3.167274 -3.69735,8.296674 -5.980372,8.296674 -1.006037,0 -2.772014,-0.942857 -3.924394,-2.095238 z"
       id="path529" />
  </g>
</svg>
