<?xml version="1.0" encoding="UTF-8" standalone="no"?>
<!-- Created with Inkscape (http://www.inkscape.org/) -->

<svg
   version="1.1"
   id="svg193"
   width="210.66667"
   height="148"
   viewBox="0 0 210.66667 148"
   xmlns="http://www.w3.org/2000/svg"
   xmlns:svg="http://www.w3.org/2000/svg">
  <defs
     id="defs197" />
  <g
     id="g199">
    <path
       style="fill:#000000;stroke-width:1.33333"
       d="m 18.213963,139.76529 c -9.9887247,-0.98732 -14.2139629,-3.54128 -14.2139629,-8.5917 0,-4.27364 4.3164478,-6.35594 9.7319589,-4.69479 4.104689,1.25907 17.960355,2.15674 30.039207,1.94615 11.071827,-0.19303 10.203694,-5.44684 -1.396635,-8.45222 -2.772658,-0.71834 -7.441197,-1.92919 -10.37453,-2.69079 -5.470923,-1.42045 -6.744681,-3.78411 -3.493354,-6.48247 2.771953,-2.30052 16.355518,-0.3161 24.160021,3.52953 3.666666,1.80673 8.648117,5.17001 11.06989,7.47395 l 4.403226,4.18898 46.263446,0.004 c 25.44489,0.002 47.90849,-0.45616 49.91912,-1.01861 2.57952,-0.7216 4.64019,-2.96547 7,-7.62234 1.83937,-3.6298 3.34432,-7.60801 3.34432,-8.84043 0,-2.73254 5.29176,-17.869657 7.05512,-20.181217 0.81024,-1.06214 4.76439,-1.666666 10.90149,-1.666666 14.06199,0 14.04339,-0.0348 14.04339,26.275063 0,15.51087 -0.45856,21.76932 -1.66667,22.7465 -4.04557,3.27224 -21.77117,4.10937 -83.66666,3.95136 -59.039459,-0.15074 -59.090602,-0.15042 -78.000006,0.4874 -8.8,0.29682 -20.103718,0.13405 -25.119371,-0.3617 z M 193.36634,121.9132 c 0.71518,-1.88107 1.30033,-7.88107 1.30033,-13.33333 0,-7.98493 -0.39459,-9.913203 -2.02859,-9.913203 -2.17598,0 -3.23217,2.089003 -6.53084,12.917193 -3.3882,11.12208 -2.81521,12.95105 4.2591,13.59481 0.93481,0.0851 2.28481,-1.3844 3,-3.26547 z M 34.55481,39.666667 c -1.585321,-1.65 -4.950255,-6.186147 -7.477628,-10.080326 -2.527375,-3.89418 -5.303666,-6.867252 -6.169538,-6.606826 -0.86587,0.260424 -3.343212,4.22272 -5.505201,8.805101 -3.135765,6.646315 -4.48152,8.252424 -6.6530466,7.94016 C 4.2201793,39.07348 4.8097082,35.144163 11.528471,21.201741 19.750134,4.1405808 21.420802,3.9470292 31.261863,18.915573 c 3.705975,5.636899 7.158123,10.136899 7.671438,10 0.513314,-0.136898 3.213314,-4.748906 6,-10.248906 4.062484,-8.018007 5.727364,-10.0753718 8.400033,-10.3802815 2.773671,-0.3164323 3.892996,0.6832064 6.666667,5.9538105 1.833333,3.483751 4.650857,7.757448 6.261164,9.497105 1.610307,1.739659 3.145717,3.816675 3.412023,4.615592 0.902662,2.70799 3.447368,-0.357616 5.563137,-6.701909 C 81.255029,3.6034489 89.06564,4.1593072 98.74321,23.3239 c 3.33589,6.606105 5.67264,5.697653 10.67014,-4.148203 7.81681,-15.4003623 9.14697,-15.436445 19.24451,-0.52204 3.51549,5.192496 7.05562,9.231238 7.86697,8.974984 0.81135,-0.256254 3.63443,-4.593273 6.27352,-9.637818 2.73811,-5.233815 6.10619,-9.7554723 7.84432,-10.5310511 2.66405,-1.1887332 3.60633,-0.696742 7.51515,3.9238731 2.45805,2.905662 4.48109,6.183022 4.49564,7.283022 0.0145,1.1 1.5209,3.8 3.34744,6 3.25678,3.92267 3.36052,3.948941 5.3654,1.358933 1.12441,-1.452588 2.70241,-4.837319 3.50664,-7.521624 0.80424,-2.684307 2.77173,-6.522794 4.3722,-8.5299709 4.52417,-5.6738642 7.69781,-3.6570056 14.8278,9.4231469 3.36785,6.178401 6.6792,11.57698 7.35854,11.996841 1.66618,1.029747 1.57759,9.570347 -0.11013,10.613382 -3.15843,1.952016 -6.52045,-1.239175 -10.57667,-10.039239 -5.47489,-11.877947 -7.59801,-12.069649 -12.81378,-1.156992 -4.4862,9.386221 -7.78754,12.382887 -11.47043,10.411865 C 165.10724,40.498752 164,39.077287 164,38.0642 c 0,-1.013088 -0.55902,-2.041977 -1.24229,-2.286423 -0.68325,-0.244444 -3.25051,-3.788693 -5.705,-7.87611 -4.33403,-7.217386 -7.71937,-8.914247 -7.71937,-3.869246 0,1.362278 -0.53034,2.804628 -1.17851,3.205224 -0.64817,0.400598 -2.43903,3.409999 -3.97967,6.687562 -2.97814,6.335741 -6.57004,9.22419 -9.341,7.511642 -0.92885,-0.574062 -4.53686,-5.145645 -8.01781,-10.159072 -3.48094,-5.013426 -6.98398,-9.333656 -7.78454,-9.600508 -0.80055,-0.266852 -3.36736,3.296596 -5.70401,7.918774 -8.64947,17.109677 -11.79816,17.479905 -19.867165,2.336014 -3.145803,-5.904036 -6.411364,-10.508825 -7.256804,-10.232866 -0.845439,0.275958 -3.42683,4.356533 -5.736422,9.067942 -4.96642,10.131158 -6.411442,11.899534 -9.72366,11.899534 -2.293181,0 -11.197571,-11.463979 -13.700783,-17.63911 -1.837709,-4.533413 -5.120153,-2.517302 -8.638372,5.305776 -5.764943,12.818872 -8.639591,14.756091 -13.849784,9.333334 z"
       id="path668" />
  </g>
</svg>
