<?xml version="1.0" encoding="UTF-8" standalone="no"?>
<!-- Created with Inkscape (http://www.inkscape.org/) -->

<svg
   version="1.1"
   id="svg183"
   width="208"
   height="217.33333"
   viewBox="0 0 208 217.33333"
   xmlns="http://www.w3.org/2000/svg"
   xmlns:svg="http://www.w3.org/2000/svg">
  <defs
     id="defs187" />
  <g
     id="g189">
    <path
       style="fill:#000000;stroke-width:1.33333"
       d="m 102.40004,209.48214 c -1.24665,-0.4485 -4.200752,-3.81548 -6.564676,-7.48214 -2.363923,-3.66667 -5.514009,-8.03315 -7.000192,-9.7033 l -2.702151,-3.03661 -1.68593,3.03661 c -0.927262,1.67015 -1.707191,3.73279 -1.733178,4.58364 -0.02599,0.85086 -1.653825,4.00086 -3.617422,7 -5.713831,8.72715 -10.139792,6.96407 -19.524424,-7.77756 -1.597971,-2.51013 -3.627382,-4.80078 -4.509802,-5.09034 -0.904962,-0.29696 -3.673289,3.58177 -6.350096,8.8972 -3.972585,7.8885 -5.287424,9.42369 -8.071082,9.42369 -3.623214,0 -7.673414,-3.93288 -12.093979,-11.74364 -2.898331,-5.12111 -6.817427,-6.45327 -8.599305,-2.92303 -0.555223,1.1 -2.074423,4.57814 -3.376002,7.72918 -1.844682,4.46586 -2.977148,5.64188 -5.135819,5.33333 -4.3830753,-0.62651 -4.2414145,-7.38399 0.361852,-17.26099 2.17067,-4.6575 5.444793,-10.26506 7.275827,-12.46124 l 3.329154,-3.99305 4.845065,5.13727 c 2.664787,2.82549 5.9803,7.3625 7.367809,10.08225 4.936648,9.67663 6.099824,9.50328 11.418374,-1.70169 4.547504,-9.58055 8.001312,-12.90331 11.295801,-10.8672 0.744549,0.46016 4.093844,5.03424 7.442876,10.16464 3.349031,5.1304 6.757724,9.10513 7.574871,8.83274 0.817148,-0.27238 2.06754,-2.25774 2.778649,-4.4119 1.835571,-5.56051 7.287387,-13.90327 9.687288,-14.8242 3.673147,-1.40952 8.784759,2.7276 12.148915,9.83281 4.104427,8.66869 6.282207,10.69477 9.037537,8.40805 1.1,-0.91292 2.03983,-2.63638 2.08852,-3.82992 0.12517,-3.06873 8.37724,-14.0878 10.91978,-14.5813 2.42739,-0.47115 9.69764,6.98714 13.72888,14.08398 1.50545,2.65028 3.40713,5.04202 4.22595,5.31495 0.81883,0.27295 3.63636,-3.34397 6.26119,-8.03759 2.62481,-4.69361 5.89771,-9.55224 7.27309,-10.79694 2.36582,-2.14104 2.7075,-2.0875 6.33498,0.99265 3.54314,3.00855 7.1681,8.85919 8.99689,14.52084 1.48988,4.61247 5.77083,2.59011 9.87843,-4.66667 2.17925,-3.85 5.10482,-8.40282 6.50128,-10.11738 2.48542,-3.0516 2.60192,-3.06567 5.52052,-0.66667 4.00317,3.29048 16.27049,24.38004 16.27049,27.97167 0,7.31052 -8.72868,2.7763 -12.62996,-6.56078 -0.99911,-2.39121 -2.98007,-5.4006 -4.40212,-6.68754 -2.94209,-2.66256 -4.67936,-1.40323 -6.06172,4.39404 -0.43715,1.83333 -2.62877,5.82484 -4.87027,8.87001 -5.22062,7.09247 -8.53325,6.53257 -12.54194,-2.1198 -3.48359,-7.51896 -9.32238,-14.09235 -11.38512,-12.81751 -0.82972,0.51282 -3.57872,5.0431 -6.10887,10.0673 -2.53015,5.0242 -5.22059,9.51829 -5.97873,9.98685 -3.77636,2.33392 -8.65119,-2.64945 -16.47913,-16.84605 l -2.45786,-4.45752 -2.20881,2.88882 c -1.21484,1.58887 -4.20687,6.18938 -6.64896,10.22338 -4.72693,7.80825 -6.22702,8.98168 -9.82647,7.68666 z M 63.60448,153.53781 c -4.042471,-1.76757 -4.727359,-2.54827 -3.4,-3.87563 C 61.118683,148.74798 62.710324,148 63.741461,148 67.215603,148 76,139.9369 76,136.74804 c 0,-4.58065 -12.889416,-16.15527 -20.133679,-18.07993 -7.297817,-1.9389 -13.039166,-4.56257 -22.848662,-10.44134 -5.790678,-3.47032 -8.220182,-5.90774 -10,-10.03258 C 17.156101,84.609648 15.388573,82.049528 11.0315,80.833207 8.6654911,80.172711 6.3822516,78.5377 5.9576341,77.199849 5.1307676,74.594623 7.3355085,69.333332 9.2540935,69.333332 c 0.6381486,0 3.7487335,-2.1626 6.9124115,-4.805778 5.576358,-4.658914 5.991684,-4.778676 13.590576,-3.91896 5.501802,0.622458 11.744671,2.849989 20.942244,7.472445 7.207095,3.622095 13.974638,6.585627 15.038983,6.585627 1.064345,0 2.682107,0.9 3.595025,1.999999 0.912919,1.1 2.368124,2 3.23379,2 0.865665,0 6.642198,2.452884 12.83674,5.450852 11.100684,5.372391 13.41247,6.334539 27.929467,11.624034 31.0786,11.323969 53.19024,12.504499 74.26736,3.965087 5.82344,-2.359366 7.27443,-2.526823 9.05928,-1.045526 1.4556,1.208033 1.86955,2.928018 1.31372,5.458628 -0.63604,2.8959 -0.19889,4.0227 2.02164,5.2111 3.84251,2.05644 2.98884,6.84064 -1.61292,9.03923 -2.39026,1.14201 -4.0728,3.37705 -4.95936,6.58789 -1.18809,4.30289 -0.8851,5.65766 2.64518,11.82794 3.64646,6.37338 3.80565,7.14974 1.86412,9.09127 -1.16756,1.16756 -2.3232,2.12283 -2.5681,2.12283 -0.2449,0 -2.88589,-2.03908 -5.86886,-4.53128 -2.98298,-2.4922 -8.88975,-5.59066 -13.12616,-6.88546 -4.23642,-1.29478 -8.35559,-2.84869 -9.15374,-3.45312 -0.79813,-0.60443 -11.29813,-2.2575 -23.33333,-3.67349 C 131.84697,128.04066 121.1,126.53995 120,126.12174 c -3.12315,-1.18741 -4.55388,0.61063 -7.13064,8.96132 -3.41712,11.0741 -2.48149,11.84447 13.05845,10.75212 C 138.63437,144.942 144,146.17853 144,150 c 0,1.0484 -1.05,2.45314 -2.33333,3.12166 -1.28334,0.66851 -18.23334,1.53366 -37.66667,1.92254 -31.020223,0.62073 -35.951271,0.43685 -40.39552,-1.50639 z m 36.90884,-10.15757 c 3.57967,-5.46327 2.73561,-9.28072 -2.918321,-13.19891 -6.464246,-4.47972 -9.935483,-4.66884 -8.885171,-0.48406 0.519736,2.07079 -0.520217,4.92114 -3.283668,8.99999 -2.224365,3.28318 -4.055219,6.4194 -4.068564,6.9694 -0.01335,0.55 3.806732,1 8.489057,1 7.577159,0 8.750112,-0.36138 10.666667,-3.28642 z m 84.55741,-20.8944 0.40407,-4.82532 -11.7374,-0.98696 c -14.02872,-1.17963 -48.32572,-1.19635 -49.49794,-0.0241 -1.74759,1.74759 3.01939,2.89156 21.40499,5.13672 10.46222,1.2776 22.62222,3.12643 27.02222,4.10851 11.08726,2.47469 11.9308,2.24287 12.40406,-3.40882 z M 100,118.66666 c 0,-2.12875 -0.874103,-2.65771 -4.333333,-2.6223 l -4.333334,0.0444 3.147712,2.6223 C 98.478084,122.04089 100,122.02866 100,118.66666 Z m 20,-1.33333 C 120,116.6 119.1,116 118,116 c -1.1,0 -2,0.6 -2,1.33333 0,0.73333 0.9,1.33333 2,1.33333 1.1,0 2,-0.6 2,-1.33333 z m -1.66667,-9.31512 C 119.25,108.00819 120,107.46906 120,106.82014 c 0,-1.24881 -11.74699,-5.48681 -15.20845,-5.48681 -1.65341,0 -12.75405,-5.330613 -24.79155,-11.905093 -1.1,-0.600782 -6.5,-3.0422 -12,-5.42537 -5.5,-2.383171 -13.9,-6.293382 -18.666667,-8.689355 -13.142526,-6.606116 -14.178182,-6.755933 -15.09271,-2.18329 -1.43203,7.160145 -9.388115,7.009862 -11.379102,-0.214942 l -1.17082,-4.248614 -1.006997,3.73481 c -0.741368,2.749627 -0.439705,4.156476 1.143597,5.333333 1.182827,0.879188 3.557803,5.798523 5.277723,10.931856 2.585016,7.71533 4.031577,9.961299 8.344384,12.955705 2.869492,1.9923 5.667259,3.6423 6.217259,3.66667 2.120685,0.0939 0.844174,-2.89412 -2.6,-6.086072 C 33.9418,94.453401 34.084388,87.655191 39.4,83.310668 c 3.84236,-3.140415 8.948443,-4.116563 13.133199,-2.510721 2.88664,1.107708 0.423828,5.538988 -3.394106,6.106934 -1.576714,0.234548 -3.528029,1.516803 -4.336256,2.849455 -3.221788,5.312275 13.856459,14.577144 29.86383,16.200984 17.373526,1.76243 36.567643,2.99684 39.333333,2.5296 1.46667,-0.24778 3.41667,-0.4587 4.33333,-0.46871 z M 69.753829,39.900007 C 68.151768,39.304399 66.122757,37.433241 65.244917,35.741875 62.155861,29.790092 55.540161,20 54.607271,20 c -0.518992,0 -3.13171,4.163936 -5.806038,9.253192 -4.935582,9.39243 -8.658872,12.298043 -12.099664,9.442441 C 35.691148,37.857058 32.305912,33.307486 29.178824,28.585476 26.051736,23.863464 22.994373,20 22.384685,20 c -0.609686,0 -1.630093,1.35 -2.26757,3 -6.323343,16.366905 -7.199209,17.585071 -11.1308498,15.480921 -2.7056407,-1.448015 -2.3865455,-5.86471 0.9980456,-13.814255 0.9366702,-2.2 2.3972402,-5.83186 3.2457112,-8.070798 1.836438,-4.845979 7.505562,-11.2625347 9.950619,-11.2625347 2.280531,0 4.776102,2.997937 10.26663,12.3333327 2.479993,4.216667 5.166486,7.666667 5.969985,7.666667 0.803499,0 3.435285,-3.929108 5.848415,-8.731352 7.852274,-15.62639772 9.667896,-15.62088639 19.440748,0.05901 3.429944,5.50312 6.624158,9.969344 7.098254,9.92494 0.474096,-0.0444 3.146291,-4.844402 5.93821,-10.666666 4.153558,-8.6618294 5.630669,-10.5859347 8.126682,-10.5859347 3.620626,0 5.412359,1.938531 12.015555,12.9999997 5.32687,8.923415 6.76736,9.91234 8.13979,5.588173 0.47921,-1.509838 3.26272,-6.345537 6.18558,-10.745996 5.96368,-8.9784834 8.12239,-9.4917218 12.51388,-2.975194 1.54998,2.300022 4.95592,6.75545 7.56875,9.900952 l 4.7506,5.719096 6.47815,-10.178956 c 3.56297,-5.598426 7.15925,-10.4627446 7.99173,-10.8095973 2.89119,-1.2046181 7.24492,3.4171568 11.86943,12.6001903 2.55777,5.079065 5.24786,9.234665 5.97798,9.234665 0.73012,0 3.55415,-4.5 6.27562,-10 4.04016,-8.1650157 5.51788,-9.9999994 8.05304,-9.9999994 3.62928,0 8.93484,5.3718124 11.852,11.9999994 1.12962,2.566667 3.49486,6.576634 5.2561,8.911038 3.97423,5.267618 4.12264,9.283798 0.38688,10.469483 -3.55905,1.1296 -5.79308,-1.063245 -11.08589,-10.881541 -2.25432,-4.181822 -4.69876,-7.600676 -5.43209,-7.597452 -0.73334,0.0032 -3.73334,4.445359 -6.66667,9.871408 -2.93333,5.426051 -6.23333,10.011397 -7.33333,10.189661 C 167.28419,40.177419 162.02219,34.35669 156.839,24.33333 155.60655,21.95 153.75919,20 152.73376,20 c -1.02544,0 -3.46099,3.15 -5.41233,7 -8.07364,15.929313 -10.90642,16.245586 -20.04997,2.238545 C 123.95454,24.157345 120.47178,20 119.53199,20 c -0.93978,0 -3.75634,3.952424 -6.25901,8.783164 -2.50267,4.830739 -5.63557,9.363978 -6.96201,10.073865 -3.64532,1.950914 -7.362042,0.140804 -9.661735,-4.705442 -1.135384,-2.392643 -3.769348,-6.392593 -5.853251,-8.888773 -4.635796,-5.552936 -5.953735,-4.788798 -11.402369,6.611064 -4.175211,8.735549 -5.273018,9.649588 -9.639786,8.026129 z"
       id="path807" />
  </g>
</svg>
