<?xml version="1.0" encoding="UTF-8" standalone="no"?>
<!-- Created with Inkscape (http://www.inkscape.org/) -->

<svg
   version="1.1"
   id="svg173"
   width="93.333336"
   height="202.66667"
   viewBox="0 0 93.333336 202.66667"
   xmlns="http://www.w3.org/2000/svg"
   xmlns:svg="http://www.w3.org/2000/svg">
  <defs
     id="defs177" />
  <g
     id="g179">
    <path
       style="fill:#000000;stroke-width:1.33333"
       d="m 14.836774,195.26796 c -2.830286,-2.07088 -3.079387,-3.02238 -2.366676,-9.04012 0.660728,-5.57881 1.758554,-7.70582 6.438357,-12.4742 3.102994,-3.16172 6.867998,-6.11868 8.366676,-6.57102 1.498678,-0.45235 4.074657,-2.05787 5.724397,-3.56784 l 2.999528,-2.74539 -8.770027,-2.95139 C 10.582145,152.31582 5.6982787,143.32687 7.1624499,120.98466 7.6386921,113.71755 8.7069629,106.50372 9.5363851,104.95393 10.599591,102.96731 10.774424,95.036648 10.129091,78.068065 9.1150553,51.404741 10.10152,43.407514 15.68783,33.003627 18.944341,26.938732 18.988497,26.565592 16.743266,24.08464 13.829384,20.864839 13.697631,13.010863 16.486106,8.755112 19.189589,4.6290761 26.884375,1.9757791 30.513721,3.9181454 c 1.454367,0.7783535 3.720932,1.415188 5.036813,1.415188 5.315791,0 19.91865,8.4130616 23.676122,13.6403866 6.902501,9.602634 7.557917,34.036029 1.251328,46.648622 -1.729557,3.458955 -3.144649,7.13405 -3.144649,8.166877 0,3.282729 -9.324304,22.482304 -13.445818,27.686141 -7.003272,8.84235 -12.95376,36.88296 -9.282599,43.74259 0.991028,1.85176 2.799338,2.78205 5.407755,2.78205 6.172119,0 8.239204,-5.54373 8.931791,-23.95425 0.318201,-8.4585 1.147201,-17.58528 1.842224,-20.28175 1.669159,-6.475796 7.997643,-11.763998 14.078187,-11.763998 6.266796,0 15.757494,5.73129 17.847958,10.778118 2.270359,5.48113 1.99514,16.65143 -0.584495,23.72285 -3.754177,10.29114 -2.381605,18.92662 4.086056,25.70723 3.899703,4.0884 3.363874,8.44451 -1.217589,9.89862 -2.262801,0.71818 -3.792873,-0.18042 -7.262369,-4.26514 -6.188374,-7.2857 -6.820686,-10.86473 -5.317705,-30.09934 1.183198,-15.14211 1.081606,-17.29192 -0.964733,-20.41503 -2.839744,-4.33399 -7.366063,-4.02114 -9.732298,0.67269 -1.051858,2.08654 -1.687738,8.97376 -1.700042,18.41315 l -0.01966,15.07981 -6.98385,7.38439 c -3.841116,4.06143 -9.091116,8.49899 -11.666667,9.86127 l -4.682817,2.47686 4,0.2488 c 15.435971,0.96012 20.711611,2.51003 30.752991,9.03479 12.642047,8.21464 16.565741,20.86408 7.543105,24.31792 -1.996186,0.76413 -16.529429,1.69897 -32.296096,2.07741 -25.781354,0.61882 -28.985047,0.45511 -31.829894,-1.62644 z m 59.421269,-8.12628 c 1.334779,-3.47837 -4.016578,-9.52073 -11.456823,-12.93621 -12.022443,-5.51895 -16.852927,-5.6878 -27.095171,-0.94712 -7.848716,3.63281 -15.706048,10.33624 -15.706048,13.39951 0,2.19957 3.660864,2.49881 28.475215,2.3276 18.78117,-0.1296 25.304035,-0.59606 25.782827,-1.84378 z M 24.237709,141 c 0.130746,-3.11666 0.19601,-6.86666 0.145046,-8.33333 -0.29673,-8.53936 6.721482,-29.60437 13.232126,-39.715931 5.533214,-8.593528 8.24765,-14.445039 13.429856,-28.950738 4.958507,-13.879534 5.796459,-29.143302 1.924527,-35.056357 -2.536137,-3.873084 -6.302596,-4.863446 -6.302596,-1.657222 0,2.599318 -4.804468,5.061135 -7.936974,4.066916 -4.606745,-1.462124 -9.48056,0.916912 -13.997471,6.832532 -4.216348,5.521983 -4.535765,6.696708 -5.443976,20.021364 -0.631097,9.259042 -0.436897,16.514193 0.561447,20.975266 1.32308,5.912145 1.081747,9.038668 -1.812821,23.48546 -3.889578,19.41287 -4.199087,28.33926 -1.230999,35.50255 4.1918,10.11661 7.080023,11.21624 7.431835,2.82949 z M 32.35871,13.792084 c -0.90271,-0.36523 -2.70271,-0.387462 -4,-0.0494 -1.297291,0.338054 -0.558709,0.636879 1.641291,0.664051 2.2,0.02717 3.261419,-0.24942 2.358709,-0.614651 z"
       id="path946" />
  </g>
</svg>
