<?xml version="1.0" encoding="UTF-8" standalone="no"?>
<!-- Created with Inkscape (http://www.inkscape.org/) -->

<svg
   version="1.1"
   id="svg83"
   width="148"
   height="221.33333"
   viewBox="0 0 148 221.33333"
   xmlns="http://www.w3.org/2000/svg"
   xmlns:svg="http://www.w3.org/2000/svg">
  <defs
     id="defs87" />
  <g
     id="g89">
    <path
       style="fill:#000000;stroke-width:1.33333"
       d="m 56,215.67584 c -2.372495,-1.28834 -3.232029,-2.75159 -2.981891,-5.0763 0.193294,-1.79642 0.231695,-9.56621 0.08533,-17.26621 -0.14636,-7.7 -0.19626,-15.8 -0.110894,-18 1.163776,-29.99023 0.824184,-52.4766 -0.822476,-54.46119 -1.56115,-1.88154 -4.925353,-2.20548 -22.904761,-2.20548 -16.589117,0 -21.4845093,-0.40967 -22.9995667,-1.92473 -2.6062914,-2.60629 -1.354646,-8.13389 2.1930383,-9.68505 1.5810024,-0.69126 12.0069914,-1.11347 23.1688634,-0.93825 l 20.294312,0.31859 0.372354,-38.885274 C 52.499108,46.165042 52.358088,26.266666 51.980936,23.333333 50.220581,9.6420253 53.315047,7.4157832 73.726717,7.6888294 95.779507,7.9838285 94,3.4177126 94,59.708964 V 106 l 23.23587,0.36583 c 14.37706,0.22636 23.90846,0.92403 25,1.82993 0.97028,0.80525 1.76413,2.81716 1.76413,4.4709 0,5.81584 -2.72369,6.49406 -26.43763,6.58315 l -22.229037,0.0835 -0.352394,3.33333 c -0.193816,1.83334 -1.32479,8.617 -2.513272,15.0748 -1.67146,9.08214 -1.818136,12.49371 -0.647606,15.06274 0.978323,2.14718 1.513272,13.4163 1.513272,31.87829 0,27.95575 -0.06104,28.58968 -2.89915,30.1086 C 85.916947,217.20864 60.046779,217.87334 56,215.67584 Z m 27.09902,-51.00918 c 0.60446,-22 0.995849,-49.3 0.869752,-60.66666 C 83.842676,92.633332 83.648117,68.633332 83.53642,50.666666 L 83.333333,18 74.802093,17.597906 c -4.692181,-0.221152 -9.044648,0.11132 -9.672148,0.738815 -0.6275,0.6275 -1.233578,42.467218 -1.346841,92.977149 -0.234015,104.35865 -1.493215,94.1519 11.550229,93.62307 L 82,204.66666 Z"
       id="path1085" />
  </g>
</svg>
