<?xml version="1.0" encoding="UTF-8" standalone="no"?>
<!-- Created with Inkscape (http://www.inkscape.org/) -->

<svg
   version="1.1"
   id="svg205"
   width="217.33333"
   height="153.33333"
   viewBox="0 0 217.33333 153.33333"
   xmlns="http://www.w3.org/2000/svg"
   xmlns:svg="http://www.w3.org/2000/svg">
  <defs
     id="defs209" />
  <g
     id="g211">
    <path
       style="fill:#000000;stroke-width:1.33333"
       d="m 69.746827,146.95044 c -1.853181,-1.1783 -7.471447,-9.26115 -10.476497,-15.07228 -3.075962,-5.94825 -4.425879,-4.96635 -12.082492,8.7885 -2.393215,4.29934 -4.259037,5.94719 -6.770535,5.97959 -2.256392,0.0291 -10.67895,-9.17151 -13.174446,-14.39146 -2.780432,-5.81597 -5.660467,-5.06336 -8.505281,2.22259 -3.445138,8.82348 -13.4042427,13.05943 -13.4042427,5.7013 0,-2.5806 6.9435527,-17.57688 9.8053517,-21.17702 3.871385,-4.8702 7.526295,-8.335 8.792345,-8.335 0.762067,0 3.170606,2.55 5.35231,5.66667 9.069433,12.95612 10.109055,14.26155 11.385615,14.29663 0.734594,0.0202 2.808838,-2.74033 4.609432,-6.13449 6.728752,-12.68382 11.411267,-15.61498 15.168956,-9.49547 7.410143,12.06764 10.812477,17 11.726572,17 0.58198,0 3.063384,-4.00508 5.514232,-8.90018 2.450848,-4.89509 5.452013,-9.52839 6.669256,-10.2962 3.02318,-1.90698 8.294952,2.13656 14.309262,10.97545 2.566665,3.77208 5.200525,6.86491 5.853005,6.87296 1.63998,0.0202 4.28559,-3.52336 8.20158,-10.98537 3.21158,-6.11973 4.36557,-6.97545 8.58138,-6.36336 2.16179,0.31387 10.53529,9.23023 10.67151,11.36336 0.0468,0.73334 1.25816,2.83334 2.69184,4.66667 l 2.60668,3.33333 3.31572,-4 c 1.82364,-2.2 3.3373,-4.79003 3.36367,-5.75563 C 144.04596,119.47249 150.92736,112 154,112 c 3.3192,0 7.8426,5.18627 12.50138,14.33333 1.58738,3.11667 3.4664,5.66667 4.17562,5.66667 0.70921,0 3.39278,-4.17663 5.9635,-9.2814 4.59576,-9.12595 7.72819,-12.27644 11.02935,-11.09293 2.14372,0.76856 10.05617,12.97444 12.34329,19.04099 0.96766,2.56667 2.56056,5.61391 3.53978,6.77166 2.34081,2.76756 2.26622,7.1653 -0.1556,9.17524 -3.59398,2.98273 -7.29147,0.16832 -11.44212,-8.70938 -2.33824,-5.0012 -4.84807,-8.57085 -6.02616,-8.57085 -1.90115,0 -5.35716,4.87435 -9.92628,14 -4.02224,8.03339 -9.78822,4.78027 -17.39534,-9.81431 -4.65533,-8.93147 -5.69829,-8.62727 -11.76264,3.43078 -2.2912,4.55572 -5.30446,8.8925 -6.69614,9.63732 -3.51279,1.87998 -8.2189,-2.05488 -13.50258,-11.28979 -2.2963,-4.01354 -4.88107,-7.29332 -5.74392,-7.28841 -0.86284,0.005 -3.83461,4.16948 -6.60391,9.25462 -2.76931,5.08514 -6.19665,9.61436 -7.61631,10.06495 -2.62872,0.83432 -8.015255,-1.25591 -8.015255,-3.11029 0,-1.1376 -10.475109,-17.55154 -11.20111,-17.55154 -0.252992,0 -2.619927,4.42955 -5.259855,9.84344 -5.186955,10.63727 -8.190541,13.15422 -12.458873,10.44034 z M 95.428571,40.571427 c -1.152382,-1.15238 -2.095239,-3.83127 -2.095239,-5.953088 0,-2.38127 -0.938904,-4.360336 -2.453069,-5.170693 C 89.374043,28.641542 73.135403,28.30211 48.809689,28.568255 15.601666,28.931581 8.8800329,28.689557 7.2627583,27.072282 4.8924663,24.70199 4.7462619,19.463569 6.9999999,17.657792 8.0188353,16.841464 24.95715,16.231796 50.576978,16.089308 c 23.050672,-0.1282 42.400671,-0.536151 42.999999,-0.906556 0.599328,-0.370406 1.089688,-2.064587 1.089688,-3.764849 0,-7.3203523 8.739295,-8.1312331 12.000005,-1.113426 2.24877,4.839896 3.74132,5.470145 4.80471,2.028856 1.34575,-4.3550374 2.65031,-6.0728755 5.37824,-7.0819994 3.94926,-1.4609265 6.07838,0.4407319 7.02721,6.2764574 l 0.83552,5.138875 29.31049,0.294359 c 16.12077,0.161897 35.47336,0.311897 43.00574,0.333333 13.29158,0.03783 13.73995,0.137067 15.21155,3.366892 1.25288,2.749775 1.0962,3.792123 -0.90189,6 -2.31812,2.561483 -4.08434,2.672083 -42.67158,2.672083 -44.1794,0 -43.1585,-0.185131 -45.14274,8.186265 -1.67906,7.083842 -8.44513,6.413496 -12.1099,-1.199783 -2.39682,-4.979202 -2.40214,-4.981656 -3.64404,-1.680566 -2.82381,7.505951 -8.188822,10.084767 -12.341409,5.932178 z"
       id="path233" />
  </g>
</svg>
