<?xml version="1.0" encoding="UTF-8" standalone="no"?>
<!-- Created with Inkscape (http://www.inkscape.org/) -->

<svg
   version="1.1"
   id="svg195"
   width="81.333336"
   height="220"
   viewBox="0 0 81.333336 220"
   xmlns="http://www.w3.org/2000/svg"
   xmlns:svg="http://www.w3.org/2000/svg">
  <defs
     id="defs199" />
  <g
     id="g201">
    <path
       style="fill:#000000;stroke-width:1.33333"
       d="M 16.666667,212.45631 C 15.2,212.14823 12.725954,211.62717 11.168786,211.29839 7.6020474,210.54528 5.6970927,205.70956 4.6103722,194.64988 3.5082797,183.43375 5.3249536,181.50869 18.213963,180.23471 l 9.119371,-0.90138 -0.211068,-6.66666 c -0.358138,-11.312 -0.288082,-67.31207 0.1004,-80.254883 0.261927,-8.726451 1.011476,-13.237204 2.603322,-15.666667 2.089941,-3.189653 2.930116,-3.411787 12.904419,-3.411787 10.225553,0 10.722969,-0.142133 11.969263,-3.420133 0.715182,-1.881072 1.300332,-14.691539 1.300332,-28.467701 C 56.000002,13.723859 57.035697,8 62.051746,8 c 1.718316,0 3.561921,0.7082304 4.0969,1.5738453 0.53498,0.8656147 1.150564,15.7156147 1.367966,32.9999997 0.217402,17.284386 0.70002,38.326155 1.072485,46.759488 1.178761,26.689437 2.230544,113.417547 1.406927,116.012537 -1.16054,3.65654 -7.344067,5.07594 -25.996023,5.9673 -9.166667,0.43807 -18.466667,1.00051 -20.666667,1.24987 -2.2,0.24936 -5.2,0.20133 -6.666667,-0.10667 z m 32.44058,-13.44526 c 8.682567,-2.04342 8.90171,-2.54096 7.292956,-16.55762 -0.881529,-7.68055 -0.950279,-13.80176 -0.18377,-16.36236 0.702041,-2.34523 0.85465,-16.89336 0.357612,-34.09107 -0.476874,-16.5 -0.795958,-33 -0.709074,-36.666667 0.194403,-8.204197 -0.564393,-9.37625 -6.814096,-10.525217 -4.002678,-0.735865 -5.479064,-0.379925 -7.720255,1.861265 -2.465111,2.465111 -2.768035,4.348056 -2.743113,17.050869 0.01541,7.85386 0.0053,16.67975 -0.02243,19.61308 -0.232708,24.60692 0.34358,50.53103 1.250691,56.2618 0.60318,3.81066 0.634738,7.67592 0.07013,8.58948 -1.296812,2.09828 -11.186304,5.10186 -16.885907,5.12848 -3.881515,0.0181 -4.333334,0.42078 -4.333334,3.86176 v 3.84151 l 12.333334,-0.32321 c 6.783334,-0.17778 14.931594,-0.93471 18.107246,-1.6821 z"
       id="path372" />
  </g>
</svg>
