<?xml version="1.0" encoding="UTF-8" standalone="no"?>
<!-- Created with Inkscape (http://www.inkscape.org/) -->

<svg
   version="1.1"
   id="svg275"
   width="152"
   height="176"
   viewBox="0 0 152 176"
   xmlns="http://www.w3.org/2000/svg"
   xmlns:svg="http://www.w3.org/2000/svg">
  <defs
     id="defs279" />
  <g
     id="g281">
    <path
       style="fill:#000000;stroke-width:1.33333"
       d="m 97.113163,167.77983 c -2.530851,-2.53086 -2.662214,-4.0732 -2.234383,-26.23439 0.442711,-22.932 0.367328,-23.71884 -2.893396,-30.20115 -4.475299,-8.89686 -8.494249,-10.81244 -18.478187,-8.80738 -11.182806,2.24582 -14.310493,6.05659 -16.138106,19.66262 -0.802774,5.97641 -1.289226,18.44604 -1.081006,27.71028 0.405778,18.05408 -0.036,19.3579 -6.574506,19.40311 -5.420992,0.0375 -6.0777,-3.83169 -5.063224,-29.83129 0.76407,-19.58208 1.435486,-25.28284 3.550761,-30.1483 5.360369,-12.329665 13.09468,-17.338022 26.756059,-17.325894 11.871004,0.01053 18.26458,2.138436 23.772346,7.911869 4.331859,4.540805 4.868939,6.004785 6.387659,17.411645 2.56288,19.24937 3.52617,45.64225 1.78462,48.89637 -2.1702,4.05505 -6.58577,4.75537 -9.788637,1.55251 z M 62.446496,85.113163 C 59.915645,82.582312 59.784283,81.039956 60.212113,58.87878 60.654824,35.946775 60.579441,35.159929 57.318717,28.677628 52.843419,19.780759 48.824468,17.865179 38.840531,19.87024 27.657724,22.116068 24.530037,25.926835 22.702424,39.532868 c -0.802773,5.976409 -1.289225,18.446036 -1.081005,27.710281 0.405777,18.054079 -0.036,19.357895 -6.574507,19.4031 C 9.6259204,86.683729 8.9692117,82.814561 9.9836875,56.814959 10.747758,37.232888 11.419175,31.532121 13.534449,26.666667 18.894819,14.336999 26.629129,9.3286413 40.290508,9.3407692 c 11.871004,0.010533 18.26458,2.1384368 23.772347,7.9118698 4.331862,4.540808 4.868938,6.004785 6.387658,17.411646 2.562879,19.249371 3.526167,45.642254 1.784622,48.896363 -2.170202,4.055057 -6.585771,4.755383 -9.788639,1.552515 z m 18.757703,0.09104 C 78.59948,82.59948 78.489556,81.216308 78.901895,56.234441 c 0.384628,-23.30294 0.730906,-26.75653 3.098893,-30.906696 4.89916,-8.586332 8.843313,-13.35102 12.704783,-15.3478633 4.377485,-2.2636853 18.346059,-2.6393137 25.187179,-0.6773073 6.31681,1.8116386 14.08453,7.4571606 15.97788,11.6126136 2.32961,5.112948 5.44578,27.536016 5.45484,39.251479 0.009,12.614974 1.12564,18.5 3.50786,18.5 3.47691,0 1.75559,3.339372 -2.92093,5.666666 -5.97603,2.973992 -8.9434,2.947378 -11.70575,-0.104986 C 128.32204,82.145877 128,78.218237 128,57.315979 128,35.287523 127.72408,32.271952 125.23873,27.137911 118.28532,12.774084 100.10658,12.556477 93.059487,26.752712 c -3.683735,7.420809 -5.458455,26.982668 -3.798515,41.869132 1.478557,13.259819 0.828981,16.957529 -3.254173,18.524383 -1.172415,0.449897 -3.251323,-0.390751 -4.8026,-1.942028 z"
       id="path1724" />
  </g>
</svg>
