<?xml version="1.0" encoding="UTF-8" standalone="no"?>
<!-- Created with Inkscape (http://www.inkscape.org/) -->

<svg
   version="1.1"
   id="svg185"
   width="284"
   height="220"
   viewBox="0 0 284 220"
   xmlns="http://www.w3.org/2000/svg"
   xmlns:svg="http://www.w3.org/2000/svg">
  <defs
     id="defs189" />
  <g
     id="g191">
    <path
       style="fill:#000000;stroke-width:1.33333"
       d="m 195.66765,211.22321 c -0.54017,-0.54017 -11.75158,-0.84665 -24.91425,-0.68105 -25.68669,0.32315 -29.42007,-0.40768 -29.42007,-5.75915 0,-5.15538 3.45244,-6.75845 15.20478,-7.06 5.93737,-0.15233 15.28513,-0.75233 20.77278,-1.33333 l 9.97756,-1.05635 3.16218,-5.73888 c 1.73918,-3.15637 3.94862,-8.55637 4.90985,-12 0.96124,-3.44361 2.53084,-8.2136 3.48801,-10.59997 1.63492,-4.07611 1.39919,-5.02669 -3.89277,-15.69704 -4.05364,-8.17352 -6.22147,-14.80775 -7.73159,-23.66114 -1.8875,-11.06585 -2.71318,-13.1074 -8.2112,-20.30297 -3.36196,-4.4 -8.03574,-10.099997 -10.38617,-12.666663 -4.53843,-4.95597 -12.74559,-21.188412 -15.11512,-29.89532 -0.78263,-2.87576 -1.07116,-8.594456 -0.64119,-12.708212 0.70223,-6.718512 0.42818,-7.899784 -2.69338,-11.60955 -3.15428,-3.748646 -4.02462,-4.06806 -9.42576,-3.459273 -5.51151,0.621227 -6.0136,0.41962 -6.80467,-2.732235 -1.26803,-5.052224 0.31989,-8.439485 4.83268,-10.308741 2.21319,-0.916732 6.72524,-5.177277 10.02679,-9.467879 C 155.9564,5.1931041 157.9104,4 165.97856,4 c 6.14608,0 12.47468,2.3921724 17.18048,6.494119 3.23487,2.819766 12.63655,17.223453 19.15103,29.339996 3.74864,6.972256 6.961,10.900894 11.87916,14.52788 19.65496,14.49491 25.28057,19.896952 40.58938,38.976253 17.14594,21.368882 22.55472,29.919872 22.55472,35.657722 0,2.42822 -1.37053,3.68424 -6.33333,5.80419 -3.48333,1.48796 -9.26123,4.57917 -12.83976,6.86935 -3.57853,2.29018 -9.27853,4.87792 -12.66667,5.75052 -5.40025,1.39082 -6.09921,1.97681 -5.66558,4.74993 1.27478,8.15243 0.25,26.30027 -1.88296,33.34492 -2.78342,9.19299 -2.0106,12.15009 3.05181,11.67751 7.51203,-0.70126 12.01883,2.84036 10.34109,8.12644 -1.30858,4.12301 -6.73989,5.24644 -25.00514,5.17213 -9.7728,-0.0397 -20.44943,0.32972 -23.72587,0.82105 -3.27643,0.49134 -6.39909,0.45138 -6.93927,-0.0888 z m 25.369,-14.63214 c 2.1439,-1.50164 2.9689,-3.43736 2.98343,-7 0.0107,-2.70843 0.88471,-7.3244 1.94147,-10.25774 3.30193,-9.16533 2.6374,-13.40125 -3.08998,-19.69645 -2.82064,-3.10028 -5.7964,-6.83688 -6.61281,-8.30355 -1.19865,-2.15338 -1.44252,-0.9985 -1.26697,6 0.16058,6.40208 -0.52204,10.23446 -2.61247,14.66667 -4.25135,9.01392 -11.04599,24.23809 -11.04599,24.74983 0,0.24773 3.45,0.66692 7.66667,0.93152 4.21667,0.2646 7.98316,0.59454 8.36999,0.73321 0.38684,0.13865 2.03684,-0.68192 3.66666,-1.82349 z m 3.63002,-57.9244 c 0.45322,-0.73334 3.33864,-1.34238 6.41202,-1.35342 7.64588,-0.0275 14.83287,-2.75025 19.95808,-7.56113 2.36311,-2.21818 5.34656,-4.40101 6.6299,-4.85074 C 261.70948,123.48463 261.48541,123.0449 246,102.00532 235.72533,88.045436 210.59387,64 206.27812,64 c -0.87089,0 -4.15668,1.05 -7.30175,2.333333 -7.52721,3.071452 -7.00505,5.927443 2.02363,11.068243 l 7,3.985699 v -3.313392 c 0,-4.165148 4.06001,-6.64808 7.12207,-4.355554 5.8228,4.359474 8.87793,10.718232 8.87793,18.477974 0,10.225787 -2.0808,14.725727 -6.56715,14.202077 -2.28272,-0.26644 -4.02438,-1.72318 -5.25865,-4.39838 -3.76408,-8.158392 -7.92003,-11.238609 -22.57041,-16.728295 -6.82971,-2.559178 -10.82955,-13.682017 -8.20764,-22.824036 1.4305,-4.987913 3.24664,-6.399277 8.27052,-6.427252 4.4858,-0.02497 4.50077,-0.469209 0.33333,-9.892528 -1.83333,-4.145492 -3.33333,-8.208046 -3.33333,-9.0279 0,-0.819853 -2.13207,-4.702745 -4.73794,-8.628649 -4.7361,-7.135231 -8.16693,-9.408871 -6.9027,-4.574483 0.84881,3.245868 -3.34894,10.26941 -6.79054,11.361734 -2.2325,0.708572 -2.69454,2.335533 -3.15762,11.119049 -0.29835,5.658964 -0.08,11.789027 0.48521,13.62236 0.56521,1.833333 1.33231,4.833333 1.70464,6.666667 0.73323,3.610194 3.43491,7.980534 10.7152,17.333333 4.38053,5.627544 10.22645,13.893953 13.32317,18.83958 4.0876,6.52813 13.80955,18.39169 18.20878,22.21991 2.77642,2.41606 6.38188,6.76606 8.0121,9.66667 2.90368,5.1664 5.49735,6.59788 7.1397,3.94051 z M 20.168149,142.79656 C 10.726226,142.02397 8.6168796,141.40619 6.5014823,138.79377 3.7124116,135.34941 3.6942677,135.07501 3.9922228,100.84372 4.2112269,75.682889 5.1129701,71.107425 10.099371,69.855919 c 1.636543,-0.410747 13.513457,-0.546362 26.393141,-0.301366 20.195459,0.384156 23.740035,0.768242 25.760899,2.791416 2.070438,2.072807 2.400332,5.958248 2.833178,33.368821 0.612443,38.78385 1.78543,36.48706 -19.086589,37.37288 -8.066667,0.34236 -19.691,0.21136 -25.831851,-0.29111 z m 30.823504,-13.12989 c 1.739806,-4.00629 1.697612,-32.33313 -0.06,-40.283731 -1.249494,-5.652112 -3.426041,-6.402254 -19.101722,-6.583366 -8.669403,-0.10016 -11.908147,0.354775 -13.146271,1.846623 -2.155105,2.596737 -3.095923,21.238164 -1.750636,34.687134 L 18,130 l 8.666667,1.52275 c 4.766666,0.83752 11.831517,1.58752 15.699668,1.66667 6.458288,0.13216 7.16312,-0.15571 8.625318,-3.52275 z"
       id="path511" />
  </g>
</svg>
