<?xml version="1.0" encoding="UTF-8" standalone="no"?>
<!-- Created with Inkscape (http://www.inkscape.org/) -->

<svg
   version="1.1"
   id="svg175"
   width="214.66667"
   height="146.66667"
   viewBox="0 0 214.66667 146.66667"
   xmlns="http://www.w3.org/2000/svg"
   xmlns:svg="http://www.w3.org/2000/svg">
  <defs
     id="defs179" />
  <g
     id="g181">
    <path
       style="fill:#000000;stroke-width:1.33333"
       d="M 10.786397,134.63567 C 2.7850907,128.311 2.0266951,124.43485 7.6837036,118.77784 c 2.6878514,-2.68785 5.6039694,-3.93844 10.7868584,-4.62597 6.4356,-0.85372 7.687065,-0.57021 13.316296,3.0167 6.135551,3.90952 6.454585,3.95996 25.546476,4.03868 10.633334,0.0438 36.733334,0.24015 58.000006,0.43623 C 136.6,121.83957 161.33944,122 170.30986,122 h 16.30985 l 4.16581,-4.16797 c 3.10959,-3.1112 3.9378,-4.88638 3.26652,-7.00142 -2.07742,-6.54537 -2.6093,-6.57773 -91.38537,-5.56055 -16.500002,0.18906 -33.600002,-0.076 -38.000002,-0.5891 -10.096243,-1.17727 -27.137839,1.15156 -33.983748,4.64408 -6.371869,3.25069 -13.367646,3.42302 -19.082466,0.47006 -5.7716695,-2.98233 -7.5078343,-5.57391 -7.5580494,-11.281952 -0.055207,-6.275459 3.9424095,-11.296719 9.8806634,-12.410743 4.840872,-0.908154 19.997411,2.301517 23.142014,4.900738 1.216283,1.005338 23.423639,1.165722 74.607468,0.538823 l 72.87572,-0.892581 5.08765,-3.525746 c 4.42826,-3.068778 5.53436,-3.322217 8.53418,-1.955406 3.01582,1.3741 3.34118,2.131876 2.60354,6.063818 -0.71293,3.800283 -0.23569,5.10077 3.09364,8.430098 9.23262,9.232611 5.3377,24.267851 -8.05686,31.101241 -5.05352,2.57811 -8.41067,2.71684 -81.41723,3.36449 -72.905837,0.64675 -76.286945,0.78607 -79.449592,3.2738 C 32.617475,139.23142 29.559771,140 24.606586,140 c -6.199448,0 -7.83879,-0.63632 -13.820189,-5.36433 z M 24.666667,128 c -0.453225,-0.73333 -1.988635,-1.33333 -3.412023,-1.33333 -1.423388,0 -2.587977,0.6 -2.587977,1.33333 0,0.73334 1.535411,1.33334 3.412023,1.33334 1.935156,0 3.055341,-0.57713 2.587977,-1.33334 z M 21.333334,98.666669 c 0,-0.733333 -0.9,-1.333333 -2,-1.333333 -1.1,0 -2,0.6 -2,1.333333 0,0.733333 0.9,1.333331 2,1.333331 1.1,0 2,-0.599998 2,-1.333331 z m 9.86536,-58.933128 C 27.857411,36.653654 24.072278,32.084442 22.787287,29.579735 l -2.336349,-4.554013 -1.680387,4.48714 C 15.210939,39.018097 14.629115,40.098104 12.661222,40.853256 9.8443214,41.934201 6.6666668,38.956088 6.6666668,35.235127 6.6666668,24.359897 15.35595,6.6666668 20.696859,6.6666668 23.40465,6.6666668 28,10.348738 28,12.518383 c 0,1.919724 8.651943,14.148284 10.010186,14.148284 0.762437,0 3.369571,-3.90432 5.793628,-8.676268 7.093809,-13.9647222 9.939214,-13.963415 18.763352,0.0087 3.010763,4.767207 6.214827,8.657777 7.120142,8.645712 0.905314,-0.01211 3.446026,-3.676173 5.646027,-8.142406 5.213494,-10.583944 7.806636,-12.4945007 12.885992,-9.494051 2.07937,1.228315 3.780674,3.022766 3.780674,3.987669 0,0.964904 0.824812,2.07088 1.832916,2.457725 1.008103,0.386847 2.906922,3.085076 4.219595,5.996067 1.312675,2.910991 3.037858,5.084797 3.833748,4.830681 0.79589,-0.254116 2.94707,-3.145197 4.78041,-6.424623 5.2443,-9.380891 7.16205,-11.5521711 10.6466,-12.0541345 2.73873,-0.3945235 4.23963,1.0032198 9.51923,8.8649615 3.44732,5.133333 7.07028,9.333334 8.05101,9.333334 0.98073,0 3.64827,-3.512127 5.92785,-7.804726 4.62456,-8.7083337 6.24168,-10.1452775 11.45071,-10.1748578 2.91484,-0.016552 4.54657,1.4307569 8.62056,7.6462498 7.93752,12.109899 8.59845,12.214334 13.47368,2.128964 2.00403,-4.145737 4.60083,-8.1340898 5.77065,-8.8630065 3.77571,-2.352629 8.72098,0.015227 11.24919,5.3862615 1.2982,2.757946 4.66965,8.583749 7.49211,12.946228 5.38318,8.320419 6.49622,13.628312 3.12876,14.92053 -4.59731,1.764156 -8.27847,-0.826646 -12.54304,-8.827811 -2.35236,-4.413475 -4.75071,-8.024499 -5.32967,-8.024499 -0.57895,0 -2.19376,2.531747 -3.58848,5.626104 -5.34708,11.86328 -11.89287,15.989595 -16.9854,10.70723 -1.23721,-1.283334 -4.21053,-5.274067 -6.60737,-8.868297 -4.68219,-7.021265 -6.12475,-7.934273 -7.58151,-4.79837 -6.02,12.959023 -7.59313,15.366283 -10.29277,15.750388 -4.60884,0.655749 -7.92805,-1.865293 -13.75712,-10.448982 C 120.19197,25.762334 116,23.033977 116,27.240881 c 0,2.312456 -4.93477,10.57646 -8.85301,14.825676 -3.66576,3.975415 -7.90069,2.995209 -11.193843,-2.5909 -4.146576,-7.033751 -9.40933,-14.142323 -10.470116,-14.142323 -0.555882,0 -2.983771,4.205335 -5.395311,9.345189 -6.89432,14.694267 -12.879696,14.291855 -20.780542,-1.397128 -2.57072,-5.104766 -5.294094,-9.281394 -6.051947,-9.281394 -1.412449,0 -7.88544,12.744383 -7.908872,15.571428 -0.01821,2.196799 -3.816053,5.761905 -6.138054,5.761905 -1.064004,0 -4.668328,-2.519906 -8.009611,-5.599793 z"
       id="path650" />
  </g>
</svg>
