<?xml version="1.0" encoding="UTF-8" standalone="no"?>
<!-- Created with Inkscape (http://www.inkscape.org/) -->

<svg
   version="1.1"
   id="svg165"
   width="117.33333"
   height="214.66667"
   viewBox="0 0 117.33333 214.66667"
   xmlns="http://www.w3.org/2000/svg"
   xmlns:svg="http://www.w3.org/2000/svg">
  <defs
     id="defs169" />
  <g
     id="g171">
    <path
       style="fill:#000000;stroke-width:1.33333"
       d="m 38.804744,208.0925 c -2.490722,-0.41755 -5.155929,-1.75887 -5.922681,-2.98074 -2.288309,-3.64654 1.120425,-6.10617 9.869718,-7.12164 8.908743,-1.03397 9.616472,-1.76133 11.695412,-12.01984 0.739756,-3.65032 2.342129,-10.20817 3.560829,-14.573 2.099468,-7.51933 2.091543,-8.02692 -0.150942,-9.66666 C 56.555361,160.77878 54.116428,160 52.437228,160 c -2.129749,0 -3.30156,-0.98998 -3.874673,-3.27345 -1.07119,-4.26795 3.795388,-19.79316 8.467482,-27.01271 11.037446,-17.05561 11.541389,-18.15185 11.541389,-25.10625 0,-8.038915 -2.950341,-17.940922 -5.345566,-17.940922 -0.924356,0 -2.105171,1.95 -2.624034,4.333333 -1.920997,8.823875 -6.05438,20.255099 -8.168794,22.591499 -3.952936,4.36794 -9.262448,3.03606 -16.975012,-4.25816 -3.876958,-3.66667 -7.371063,-6.66667 -7.764677,-6.66667 -1.495017,0 -2.551464,6.97324 -5.858006,38.66667 -5.105049,48.93224 -5.360896,52.85913 -3.830287,58.78956 1.136579,4.40373 -2.354046,8.18101 -7.038194,7.61616 -5.3427138,-0.64426 -6.3138509,-3.58922 -4.5952336,-13.93494 0.8348463,-5.0256 2.4798832,-20.83745 3.6556376,-35.13745 1.175754,-14.3 3.01659,-34.19792 4.090746,-44.21761 1.789779,-16.694966 1.767674,-18.680809 -0.264482,-23.759665 -2.13881,-5.345412 -2.118479,-5.67599 0.572952,-9.316346 2.646117,-3.579065 3.914542,-10.03752 6.500573,-33.099055 0.548264,-4.889276 1.599178,-7.624985 3.418682,-8.899415 5.5542,-3.890314 9.015691,1.572015 7.515381,11.859486 -4.67991,32.089679 -4.424189,34.654995 4.409918,44.238868 9.190667,9.970697 9.966099,9.040337 17.897204,-21.472932 1.143663,-4.4 2.211542,-10.7 2.373066,-14 0.161524,-3.3 0.736724,-7.320014 1.278222,-8.933362 0.611514,-1.821953 0.200742,-4.449068 -1.084157,-6.933786 C 53.777588,38.413141 54.030526,31.100942 57.245677,29.380246 58.664133,28.621111 61.064133,28 62.57901,28 c 3.455307,0 3.481704,-2.20849 0.08766,-7.333333 -4.859548,-7.337672 -2.417457,-15.3333336 4.683216,-15.3333336 3.719874,0 4.892056,1.5725523 5.929446,7.9547126 1.071655,6.592954 3.805833,5.928556 8.044168,-1.954712 3.910143,-7.2728327 8.237986,-9.0890004 14.136364,-5.9322848 1.664801,0.8909742 3.950024,1.2657216 5.078266,0.8327717 3.20664,-1.2304982 6.46193,2.9004794 5.48294,6.9578541 -2.08051,8.622605 -11.511482,36.555799 -13.967757,41.370494 -3.887528,7.620185 -3.525932,8.888928 2.920975,10.248929 10.197972,2.151303 13.760832,13.244055 15.370702,47.855572 1.35007,29.02615 1.24386,32.60075 -1.01165,34.04731 -3.28411,2.10624 -5.91799,0.83958 -7.33524,-3.52759 -0.73439,-2.26296 -2.164643,-5.11383 -3.178343,-6.33527 -1.490411,-1.79582 -1.562268,-3.68436 -0.375527,-9.86928 2.76083,-14.38856 3.00021,-22.04221 0.90267,-28.860413 -1.10746,-3.599883 -2.065136,-9.299883 -2.128168,-12.666667 -0.108694,-5.806135 -0.178199,-5.915401 -1.349312,-2.121425 -1.102699,3.572336 -1.481978,12.52535 -1.412106,33.333335 0.01227,3.66667 0.648954,13.26667 1.414758,21.33333 0.765804,8.06667 2.040166,23.66667 2.831918,34.66667 0.791751,11 1.75632,22.22821 2.14347,24.95159 0.57832,4.06808 0.10052,5.55498 -2.677834,8.33333 -2.91937,2.91937 -4.5548,3.38175 -11.961305,3.38175 -14.874038,0 -19.541043,-8.00358 -6.589078,-11.29979 8.961235,-2.2806 9.245347,-2.8844 9.407975,-19.99417 0.161339,-16.97392 -0.789632,-19.37271 -7.68007,-19.37271 -5.64937,0 -8.06606,1.30745 -9.578056,5.18184 -1.479741,3.79175 -7.240571,25.18896 -9.374183,34.81816 -0.731206,3.3 -2.085172,6.79456 -3.008815,7.76568 -1.836429,1.93083 -13.401681,2.86371 -20.581345,1.66015 z M 84.741688,134.66667 C 84.920264,119.21074 84.059466,114 81.327616,114 c -1.765164,0 -9.743553,10.50337 -13.473777,17.73792 -1.019613,1.97748 -3.203841,5.62915 -4.853841,8.11482 -1.65,2.48566 -3,5.65817 -3,7.05002 0,2.33 0.974436,2.50024 12.289968,2.14728 l 12.289968,-0.38337 z M 83.989615,89.082841 c 1.943659,-11.770942 1.371564,-14.416173 -3.117844,-14.416173 -6.41962,0 -7.134373,3.355567 -3.855977,18.102751 2.640122,11.876051 4.572766,10.854401 6.973821,-3.686578 z M 73.900491,55.890048 c -2.841217,-3.139511 -4.390092,-3.236247 -5.500136,-0.343516 -0.570988,1.48797 0.425775,3.235197 3.041846,5.33206 3.859808,3.093753 3.894676,3.096518 4.331608,0.343514 0.242261,-1.52644 -0.600731,-3.925866 -1.873318,-5.332058 z M 84.9028,47.198767 c 0.450511,-1.17401 -0.01832,-2.664824 -1.041846,-3.312916 -2.092594,-1.325021 -7.860956,-1.642689 -7.860956,-0.432908 0,1.043678 5.714329,5.77951 7.041846,5.836032 0.573015,0.0244 1.410446,-0.916196 1.860956,-2.090208 z m 1.523266,-17.545721 c 0.506024,-3.546806 -0.738692,-3.752664 -4.931854,-0.81566 -2.434558,1.705232 -2.712617,2.41967 -1.296674,3.331662 2.897708,1.866381 5.768754,0.706626 6.228528,-2.516002 z"
       id="path789" />
  </g>
</svg>
