<?xml version="1.0" encoding="UTF-8" standalone="no"?>
<!-- Created with Inkscape (http://www.inkscape.org/) -->

<svg
   version="1.1"
   id="svg75"
   width="220"
   height="220"
   viewBox="0 0 220 220"
   xmlns="http://www.w3.org/2000/svg"
   xmlns:svg="http://www.w3.org/2000/svg">
  <defs
     id="defs79" />
  <g
     id="g81">
    <path
       style="fill:#000000;stroke-width:1.33333"
       d="m 12,210.66667 c -3.8737871,-3.87379 -3.3654316,-8.19482 1.333333,-11.33334 4.560575,-3.04622 5.240064,-6 1.380246,-6 -3.985402,0 -5.5375781,-4.38814 -6.3461646,-17.9412 -0.6834823,-11.45613 -0.5247289,-12.56814 2.1804326,-15.27332 2.426987,-2.42698 4.307746,-2.88616 11.184869,-2.73074 4.547007,0.1028 40.367284,-0.0327 79.600614,-0.30104 78.48272,-0.53678 105.71519,0.0804 108.07515,2.44909 1.61027,1.61627 2.00025,47.64532 0.43816,51.71605 -1.57916,4.11524 -6.681,2.30172 -11.96235,-4.25217 -11.76556,-14.60048 -11.79194,-14.61416 -30.16712,-15.64299 -28.0178,-1.5687 -130.580305,-0.29249 -134.00867,1.66751 -1.626991,0.93016 -4.576689,4.53016 -6.554884,8 -4.425641,7.76279 -8.38464,12.30881 -10.719368,12.30881 -0.972169,0 -2.967581,-1.2 -4.434248,-2.66666 z m 17.782013,-30.79396 c 2.127546,-0.17458 24.621787,-0.94716 29.55132,-1.01498 2.2,-0.0303 23.2,0.2471 46.666667,0.61634 23.46667,0.36925 50.16667,0.64528 59.33333,0.6134 23.80983,-0.0828 27.44183,0.55616 30.25772,5.3231 1.27448,2.15752 2.86678,3.92276 3.53843,3.92276 1.30467,0 0.53903,-18.63362 -0.85855,-20.89494 -0.53364,-0.86346 -21.4172,-1.23936 -59.21433,-1.06584 -32.11446,0.14742 -71.651004,0.33028 -87.858979,0.40634 -23.639944,0.11094 -29.778428,0.51108 -31.033126,2.02291 -1.595394,1.92233 -1.773391,6.87117 -0.57364,15.94888 l 0.671925,5.084 3.983957,-5.41733 c 2.191176,-2.97955 4.682051,-5.47463 5.535276,-5.54464 z M 22.375124,145.33547 C 6.4844303,144.42124 6.4247493,144.34384 5.6261008,123.6121 5.275306,114.50599 5.4278879,100.60607 5.9651715,92.723407 7.2774281,73.470849 6.9749713,73.733345 28.084319,73.526653 c 21.276546,-0.208328 33.101246,1.575199 36.380982,5.487367 2.248391,2.681947 2.43604,5.347619 2.132722,30.29667 -0.18292,15.04578 -0.584827,28.41256 -0.893127,29.70394 -1.384897,5.8009 -15.804643,7.90442 -43.329772,6.32084 z m 30.373487,-10.80139 c 0.498293,-0.80625 1.205813,-9.05626 1.572266,-18.33333 C 55.121773,95.925357 53.634244,88.606416 48.26618,86.410439 44.450056,84.849332 21.911076,84.311147 20.475372,85.746851 c -2.221,2.221 -4.286317,21.222429 -3.099393,28.515179 0.680514,4.18124 0.891982,9.76174 0.469929,12.40112 -0.5156,3.22438 -0.170164,5.29451 1.052852,6.30952 3.233351,2.68344 32.326984,4.02546 33.849851,1.56141 z m 76.067429,5.4568 c -9.26237,-1.16673 -11.54264,-4.30832 -9.8674,-13.5946 1.40157,-7.76934 7.09201,-19.41166 12.97811,-26.55252 13.04517,-15.826063 41.9813,-17.271532 57.8975,-2.892201 9.20746,8.318381 17.19071,22.418761 18.96104,33.489821 1.46318,9.15019 1.23956,9.20575 -37.3169,9.2717 -18.71078,0.032 -34.49558,0.29231 -35.07732,0.57847 -0.58176,0.28614 -3.99052,0.15085 -7.57503,-0.30067 z m 54.86881,-12.13082 c 6.1353,0.0847 10.98282,-2.0471 10.97611,-4.82706 -0.0145,-6.01817 -14.92471,-22.04445 -22.21051,-23.873075 -1.8017,-0.4522 -7.59012,-0.400161 -12.86314,0.11564 -11.90014,1.164055 -16.60463,3.894155 -24.73363,14.353305 -2.47904,3.18965 -4.29871,11.96331 -2.84459,13.71542 0.79641,0.95961 8.83844,1.27309 24.2578,0.94559 12.68655,-0.26946 25.02463,-0.46288 27.41796,-0.42982 z M 92,73.928553 c -4.766667,-0.974846 -10.466667,-2.152766 -12.666667,-2.6176 -3.951473,-0.8349 -8.476662,-2.508014 -12.981908,-4.799848 -1.273382,-0.647774 -3.085928,-1.177772 -4.027878,-1.177772 -3.795115,0 -22.944999,-12.6334 -31.772035,-20.960378 C 17.491083,32.052407 5.0898759,16.379207 5.5958359,12.832852 5.9786603,10.149573 6.774394,9.9934892 20.666667,9.8766875 40.187425,9.7125633 156.46112,7.8819833 183.10349,7.3193283 c 19.6838,-0.4156984 21.2837,-0.2654756 23.78222,2.2330398 1.96344,1.9634389 2.44261,3.6269529 1.79454,6.2298429 -2.44712,9.828357 -25.97121,33.555328 -42.20508,42.569057 -15.48964,8.600495 -48.37892,17.899728 -61.8085,17.475953 -2.2,-0.06942 -7.900003,-0.923822 -12.66667,-1.898668 z m 33.33333,-11.212536 c 13.38504,-3.36029 17.12388,-4.631106 25.94852,-8.819812 5.28711,-2.50958 10.1616,-4.568928 10.8322,-4.57633 0.6706,-0.0075 6.40288,-4.957402 12.73838,-11 C 185.46747,28.195597 190.41115,21.9667 188.97291,20.528461 188.3994,19.95496 58.492003,19.672321 56.419647,20.240065 55.822175,20.403748 50.143156,20.090249 43.799607,19.5434 20.934889,17.572336 19.935016,20.684669 37.810316,38.186419 c 16.98446,16.629526 24.857324,20.284604 55.523017,25.777269 6.805117,1.218895 25.000877,0.509447 31.999997,-1.247671 z"
       id="path928" />
  </g>
</svg>
