<?xml version="1.0" encoding="UTF-8" standalone="no"?>
<!-- Created with Inkscape (http://www.inkscape.org/) -->

<svg
   version="1.1"
   id="svg195"
   width="212"
   height="224"
   viewBox="0 0 212 224"
   xmlns="http://www.w3.org/2000/svg"
   xmlns:svg="http://www.w3.org/2000/svg">
  <defs
     id="defs199" />
  <g
     id="g201">
    <path
       style="fill:#000000;stroke-width:1.33333"
       d="m 55.008424,217.61675 c -12.206091,-0.37956 -12.344945,-0.422 -14.403281,-4.40239 -3.062168,-5.92159 -2.574903,-53.50139 0.586781,-57.29723 2.014717,-2.41881 5.060117,-2.63045 51.474743,-3.57736 C 119.8,151.78623 148.9,151.63333 157.33333,152 l 15.33334,0.66667 1.1408,13.33333 c 1.53182,17.90344 1.10013,45.2732 -0.7591,48.12775 -1.0243,1.57265 -25.03873,3.83558 -37.04837,3.49114 -10.69841,-0.30684 -13.17673,-1.19736 -14.15256,-5.08538 -1.52909,-6.09239 1.46042,-7.37039 19.79359,-8.46168 9.13336,-0.54368 17.3005,-1.41766 18.14921,-1.94219 2.36216,-1.45989 1.83803,-4.54464 -1.03328,-6.08131 -4.49281,-2.40449 -4.75885,-6.53792 -0.69387,-10.78085 3.36379,-3.51104 3.5931,-4.42076 2.87296,-11.39813 -0.43042,-4.1704 -1.3563,-8.15627 -2.05752,-8.85748 -1.2539,-1.25391 -48.58079,-1.51227 -85.367858,-0.46603 -15.816085,0.44983 -18.131284,0.81551 -20.563892,3.24812 -1.788703,1.78871 -2.668872,4.26983 -2.532995,7.14031 0.114534,2.41948 0.450627,9.70141 0.74688,16.18205 0.296254,6.48064 1.210075,12.45443 2.030715,13.27505 0.932415,0.93243 8.445376,1.58154 20.029933,1.73058 10.195824,0.1312 19.119623,0.59805 19.830666,1.03749 2.176949,1.34544 2.756673,5.92589 1.046086,8.26527 -1.733164,2.37024 -13.014556,3.00286 -39.089641,2.19204 z M 76.666667,114.88442 c -5.487886,-0.62248 -7.334204,-2.48207 -7.32835,-7.38101 0.008,-6.71074 6.648754,-15.795374 15.58215,-21.316655 4.961313,-3.066339 7.132173,-3.483491 19.380773,-3.724211 12.98284,-0.255149 14.21625,-0.04159 20.98315,3.633187 12.3877,6.727158 20.17838,22.151099 13.8437,27.407679 -1.71522,1.42331 -8.4553,1.83046 -30.33332,1.83232 -15.470458,0.001 -29.928103,-0.20177 -32.128103,-0.45131 z M 132,106.60045 c 0,-3.55221 -4.23475,-8.908011 -9.28987,-11.749145 -14.6091,-8.210773 -40.624766,-2.535469 -43.465741,9.482025 L 78.377579,108 H 105.18879 C 123.01967,108 132,107.53123 132,106.60045 Z m 65.4064,-60.939842 c -1.58897,-1.286667 -4.50781,-5.336667 -6.48632,-9 C 188.94156,32.997273 186.47896,30 185.44761,30 c -1.03133,0 -3.12896,2.219441 -4.66138,4.932092 -1.53243,2.712651 -4.01102,6.559121 -5.50798,8.547713 -4.1471,5.509084 -8.04845,3.62334 -15.69793,-7.587693 -7.37301,-10.805859 -7.74532,-10.767013 -13.56809,1.415639 -5.01739,10.497592 -8.75882,11.864004 -14.32912,5.233156 -2.09804,-2.497499 -5.14674,-6.940907 -6.77488,-9.87424 -1.62814,-2.933334 -3.8398,-5.333334 -4.9148,-5.333334 -1.075,0 -4.0633,3.846506 -6.64066,8.547791 -2.57736,4.701284 -5.68951,9.168824 -6.91589,9.927865 -3.82626,2.368175 -8.395497,-0.982041 -12.759477,-9.355393 -2.232092,-4.282811 -5.015176,-7.979487 -6.184632,-8.214836 -1.481852,-0.298217 -3.41354,2.266949 -6.373563,8.463709 -2.336004,4.890388 -5.044805,9.197655 -6.019559,9.571702 C 70.162235,48.168835 65.335315,43.647919 58.791628,31 56.301164,26.186324 54.010852,27.442495 48.690247,36.540317 42.36294,47.359519 38.967464,48.464351 33.486143,41.487483 c -2.08309,-2.65145 -4.765379,-6.73277 -5.96064,-9.0696 -4.152578,-8.118611 -6.222162,-7.386332 -10.988104,3.88791 -3.445018,8.149484 -6.009302,10.345626 -9.0923023,7.786963 C 4.5713235,41.707736 4.7660419,39.627233 8.8088139,29.521895 14.351452,15.667481 21.524196,8.2854129 25.908028,11.92367 c 0.979033,0.812526 4.051964,5.362097 6.828733,10.110158 2.776771,4.748061 5.802967,8.632839 6.72488,8.632839 0.921914,0 3.248219,-3.433726 5.169566,-7.630502 C 51.236381,8.6085629 55.232995,7.160618 61.292212,17 c 9.119656,14.809137 10.471911,15.341371 15.211989,5.987276 1.768686,-3.490331 4.367187,-7.767971 5.774447,-9.505864 2.353867,-2.906901 2.841737,-3.011486 6.095464,-1.306686 3.735348,1.957146 10.292555,9.948921 10.292555,12.54433 0,0.843871 1.249193,2.664815 2.775983,4.046543 2.72204,2.463406 2.80592,2.460944 4.31624,-0.12668 0.84715,-1.451407 2.27334,-3.838919 3.16933,-5.305586 0.89599,-1.466666 2.66191,-4.610584 3.92426,-6.986482 3.47195,-6.5346033 6.8595,-6.9258279 11.73308,-1.355039 2.24461,2.565723 5.79921,7.182789 7.89911,10.260145 l 3.81801,5.595195 3.18199,-2.989328 c 1.7501,-1.644131 3.182,-3.730893 3.182,-4.637252 0,-0.906359 1.60657,-4.101769 3.57017,-7.100915 2.42859,-3.70935 4.52985,-5.45299 6.57143,-5.45299 3.63336,0 5.19912,1.593703 11.02873,11.22557 2.47701,4.092603 4.95355,7.441096 5.5034,7.441096 1.47065,0 4.22684,-3.588449 7.99293,-10.406497 6.52807,-11.8182444 9.78738,-11.1310685 18.26012,3.849865 11.3342,20.04039 11.6881,20.875839 9.8045,23.145452 -2.23858,2.697304 -4.42594,2.625716 -7.99155,-0.261545 z"
       id="path223" />
  </g>
</svg>
