<?xml version="1.0" encoding="UTF-8" standalone="no"?>
<!-- Created with Inkscape (http://www.inkscape.org/) -->

<svg
   version="1.1"
   id="svg185"
   width="220"
   height="222.66667"
   viewBox="0 0 220 222.66667"
   xmlns="http://www.w3.org/2000/svg"
   xmlns:svg="http://www.w3.org/2000/svg">
  <defs
     id="defs189" />
  <g
     id="g191">
    <path
       style="fill:#000000;stroke-width:1.33333"
       d="M 111.98539,214.33334 C 110.53224,211.95 109.30835,208.2 109.26563,206 c -0.0427,-2.2 -0.37884,-14.8798 -0.74694,-28.17733 l -0.66927,-24.17733 3.62246,-2.84944 c 3.54888,-2.79155 4.54585,-2.84612 49.07529,-2.68692 24.99906,0.0893 46.44876,0.6936 47.66603,1.34272 3.31299,1.76668 4.17821,9.91449 4.01349,37.79525 -0.12373,20.95527 -0.50277,25.6016 -2.22942,27.33333 -1.52983,1.53434 -5.8619,2.26279 -16.3721,2.75306 -17.2636,0.80529 -20.29184,-0.10624 -20.29184,-6.10808 0,-5.04384 1.85019,-5.72072 15.67219,-5.7336 4.58636,-0.004 8.93636,-0.37706 9.66667,-0.8284 3.20852,-1.98298 0.82113,-15.6211 -3.20512,-18.30951 -0.92967,-0.62075 -0.68214,-0.98705 0.67574,-1 1.73098,-0.0165 2.2871,-2.12555 2.89356,-10.97363 0.41291,-6.02426 0.23914,-11.90916 -0.38617,-13.07756 -0.97957,-1.83033 -5.16292,-2.1627 -30.22689,-2.40156 -15.99948,-0.15246 -32.08998,-0.61409 -35.75664,-1.02584 -3.66667,-0.41174 -8.3258,-0.11346 -10.35363,0.66282 l -3.68697,1.41145 0.35363,23.02529 0.35363,23.02528 15.47116,0.37396 c 14.69932,0.3553 15.54122,0.52772 16.87548,3.45612 0.77238,1.69519 0.92194,3.86268 0.33235,4.81666 -1.42959,2.31312 -11.4088,3.84326 -25.69858,3.94045 l -11.68627,0.0795 z m -98.453871,-7.24359 c -8.0128845,-2.7528 -8.5376542,-3.97607 -7.4839602,-17.44549 l 0.9413537,-12.03338 7.3487885,-8.4721 c 4.041834,-4.65966 8.71515,-9.21288 10.385147,-10.11828 5.539799,-3.0034 20.802773,-3.6138 28.278125,-1.13088 7.393104,2.45558 18.95983,9.4993 20.897564,12.72585 0.677528,1.12816 3.22814,4.06181 5.668026,6.51923 6.291632,6.33682 11.564504,18.55074 10.2572,23.75946 -0.785838,3.13102 -1.301095,3.34819 -6.33956,2.67192 -4.440971,-0.59606 -6.075387,-0.18094 -8.59202,2.18226 -2.984552,2.80258 -4.172015,2.91833 -29.93918,2.91833 -17.174384,0 -28.483412,-0.56756 -31.421484,-1.57692 z m 59.870509,-13.28887 c 2.151613,-2.1557 0.589213,-6.06244 -5.510768,-13.77949 -7.015141,-8.87481 -16.816833,-13.95583 -24.808805,-12.8604 -6.487687,0.88923 -15.530315,5.06012 -20.212212,9.32281 -5.786344,5.26827 -9.942515,15.99948 -7.242326,18.69967 1.643267,1.64327 56.053623,0.34119 57.774111,-1.38259 z m -8.965435,-62.44515 c -1.552882,-1.08768 -4.663576,-5.23817 -6.91265,-9.22331 -2.249075,-3.98514 -4.690676,-7.61743 -5.425782,-8.07175 -0.735105,-0.45432 -2.804706,2.04617 -4.599114,5.55665 C 43.769148,126.91428 39.372672,132 36.794539,132 c -2.9877,0 -8.447928,-5.09257 -13.011538,-12.13541 l -4.349948,-6.71311 -2.494402,3.42426 c -2.727251,3.74391 -5.207895,4.34246 -7.2842658,1.7576 -1.7671199,-2.19988 1.0996378,-13.41324 4.3463538,-17.00082 4.661657,-5.151075 7.949178,-3.511887 14.709214,7.33415 5.840639,9.37092 9.956714,12.65614 9.956714,7.94688 0,-2.50767 4.88238,-12.41384 7.695332,-15.61355 1.128216,-1.283332 3.414761,-2.333332 5.08121,-2.333332 3.080636,0 8.556791,5.596082 8.556791,8.744182 0,2.0663 6.410103,9.92249 8.096064,9.92249 0.655791,0 2.770855,-3.15 4.700141,-7.00001 4.53572,-9.05128 6.92252,-11.666662 10.647004,-11.666662 3.235022,0 5.729158,2.708952 11.523966,12.516492 1.998613,3.3826 4.147564,6.15018 4.775448,6.15018 1.087907,0 7.485507,-9.28445 10.795377,-15.66667 3.30123,-6.365566 9.38298,-2.995585 18.04683,10 2.07781,3.11667 4.27236,5.66667 4.87678,5.66667 0.60442,0 3.37282,-3.8654 6.152,-8.58976 2.77918,-4.72437 6.4436,-9.229981 8.14315,-10.012471 2.64617,-1.218316 3.60392,-0.874122 6.66667,2.395831 1.96712,2.10019 5.27654,6.61033 7.35428,10.02253 2.07773,3.4122 4.31065,5.87461 4.96204,5.47204 0.65137,-0.40258 2.32697,-3.25711 3.72356,-6.3434 4.84177,-10.699846 11.83637,-14.638587 16.47649,-9.27811 4.63549,5.35514 10.55085,18.19168 9.78651,21.23708 -1.4382,5.73024 -9.8376,3.40353 -12.7052,-3.51946 -0.92288,-2.22802 -2.16308,-4.05095 -2.756,-4.05095 -0.59292,0 -2.42758,2.7022 -4.07702,6.00488 -7.5605,15.13845 -12.39358,15.03677 -22.94122,-0.48265 -2.06423,-3.03723 -4.20407,-5.52223 -4.75519,-5.52223 -0.55111,0 -3.48839,3.9 -6.52728,8.66667 -6.33419,9.93552 -9.67495,11.04356 -15.07517,5 -4.60329,-5.15169 -9.22256,-11.96983 -9.22256,-13.61268 0,-2.46202 -2.5275,-1.47477 -4.12867,1.61268 -4.01669,7.74514 -9.85233,15.69252 -12.03037,16.3838 -2.508122,0.79605 -7.840963,-1.37349 -7.840963,-3.18991 0,-1.50881 -9.773428,-14.38905 -11.203783,-14.76527 -0.66208,-0.17415 -3.266369,3.48131 -5.787311,8.12324 -6.001892,11.05159 -7.858272,12.23932 -13.23898,8.47053 z M 195.97872,105.29357 c -0.79664,-1.48853 -2.56457,-6.138531 -3.92873,-10.33333 -4.8495,-14.912196 -15.6152,-35.51747 -24.60572,-47.094686 -7.09826,-9.140521 -13.06923,-12.833259 -17.29251,-10.694513 -12.1196,6.137597 -25.67247,8.50172 -47.48509,8.283156 -15.619849,-0.156514 -20.163493,-0.827535 -26.000003,-3.839778 -2.2,-1.135426 -6.1,-2.504324 -8.666667,-3.041993 -2.566667,-0.537669 -6.517261,-1.730441 -8.779099,-2.650605 -3.756706,-1.52831 -5.000936,-1.251287 -14.384209,3.202577 C 33.962471,44.285957 27.482436,45.137426 18.358736,42.603574 8.6374251,39.903751 1.8139343,24.77073 7.4870947,18.492632 10.529326,15.126003 20.399193,10.007977 26.316253,8.7287592 c 4.76473,-1.0300938 16.661514,2.7456778 23.102879,7.3323348 5.184696,3.691829 8.020233,3.311945 21.051065,-2.820263 L 82,7.8149947 101.33333,7.6888189 c 21.98432,-0.1434769 31.31397,1.8019068 46.98191,9.7964931 4.82519,2.46206 9.1678,1.239875 14.63436,-4.118696 6.34175,-6.2164719 8.33112,-7.0273212 13.71707,-5.5909375 3.21722,0.8580062 4.08046,1.8802334 4.4112,5.2236225 0.3197,3.231839 -0.27371,4.50953 -2.66667,5.741694 C 174.82908,20.585479 168,26.73194 168,28.111524 c 0,0.520271 4.11575,5.061691 9.14609,10.092046 5.06687,5.066857 10.78411,12.413187 12.81867,16.471264 2.01992,4.028842 4.52795,8.298682 5.5734,9.488534 2.36577,2.692512 7.13443,15.534597 7.11141,19.151144 -0.009,1.477019 1.00994,7.076327 2.26519,12.442907 1.98084,8.468681 2.02712,9.918831 0.35043,10.979581 -3.29492,2.08449 -7.7707,1.38881 -9.28647,-1.44343 z m -69.0523,-72.14285 c 9.17299,-1.404592 13.41546,-3.924222 10.13833,-6.021221 -8.09224,-5.178121 -21.71443,-7.47406 -40.398083,-6.808856 C 78.522059,20.966656 70,23.207751 70,27.333334 c 0,7.112527 29.068432,10.083068 56.92642,5.817386 z M 37.954764,31.086384 c 5.609185,-2.674834 5.97178,-4.750972 1.208769,-6.921145 C 29.267381,19.656251 16,21.896908 16,28.077206 c 0,5.210554 13.467544,7.056452 21.954764,3.009178 z"
       id="path362" />
  </g>
</svg>
