<?xml version="1.0" encoding="UTF-8" standalone="no"?>
<!-- Created with Inkscape (http://www.inkscape.org/) -->

<svg
   version="1.1"
   id="svg175"
   width="100"
   height="214.66667"
   viewBox="0 0 100 214.66667"
   xmlns="http://www.w3.org/2000/svg"
   xmlns:svg="http://www.w3.org/2000/svg">
  <defs
     id="defs179" />
  <g
     id="g181">
    <path
       style="fill:#000000;stroke-width:1.33333"
       d="M 18.666667,206.7484 10,206 v -4.66666 -4.66667 L 17.321775,196 c 5.432628,-0.49465 7.43039,-1.23964 7.742734,-2.88733 0.554118,-2.92311 -6.63066,-17.05027 -10.398404,-20.446 -3.840344,-3.46116 -7.6609379,-11.6896 -9.1527265,-19.71228 -1.0303382,-5.54105 -0.8023456,-6.94216 1.7357247,-10.66667 2.6592444,-3.90233 3.4499348,-4.24672 8.7970288,-3.8315 7.81272,0.60666 13.804021,3.8511 22.449456,12.15696 3.93924,3.78452 7.931739,6.58565 8.872217,6.22476 1.187952,-0.45586 1.87126,-4.85603 2.238327,-14.41372 0.4541,-11.82387 0.190952,-14.14444 -1.872217,-16.51015 -2.851144,-3.26924 -3.31199,-17.76219 -0.89742,-28.22268 1.428792,-6.189861 1.313346,-6.780587 -2.333334,-11.939603 -2.148689,-3.039786 -5.742481,-6.123275 -8.16893,-7.00898 -2.382842,-0.869788 -4.947362,-2.73043 -5.698938,-4.134759 -2.547196,-4.75948 1.740826,-14.433007 9.261511,-20.89343 l 3.436529,-2.952049 -6,-0.0776 c -6.334038,-0.08192 -10.588206,-2.534644 -13.17728,-7.597315 -2.107442,-4.120889 -1.846658,-10.464626 0.510614,-12.420988 3.391478,-2.814677 2.448349,-6.643664 -1.848074,-7.502948 -4.687988,-0.937597 -6.999962,-5.249627 -5.092021,-9.497052 2.307943,-5.1378989 10.539571,-4.4252086 16.705095,1.446319 l 4.431666,4.220348 2.314858,-2.834683 c 5.649404,-6.9180358 18.359653,-9.2830089 27.109906,-5.044291 6.72081,3.255632 11.891292,11.571699 12.181158,19.591848 0.253097,7.002823 0.771513,7.625183 8.184458,9.825474 4.71341,1.399023 5.72379,4.560339 2.490804,7.793324 -1.842872,1.842872 -3.777261,2.171819 -9.37444,1.594139 -5.707114,-0.589027 -7.629566,-0.241538 -10.077918,1.821612 l -3.025492,2.549488 2.76069,2.351544 c 10.83296,9.227472 16.070068,23.2385 17.36071,46.445742 0.925428,16.64026 -0.07652,21.90581 -4.168312,21.90581 -2.273772,0 -2.643716,5.55152 -0.621714,9.32968 1.497099,2.79734 2.061414,52.6977 0.636978,56.32574 -0.93928,2.39235 -0.3528,2.79104 6.205658,4.21863 4.162132,0.90597 5.762068,5.33272 2.945392,8.1494 -1.0871,1.08711 -2.083688,2.00823 -2.214641,2.04695 -0.130947,0.0387 -12.538095,0.34246 -27.571428,0.67498 -15.033333,0.33252 -29.433333,0.78763 -32,1.01134 -2.566667,0.22372 -8.566667,0.07 -13.333333,-0.34166 z m 53.32208,-15.41506 c 1.630002,-3.24176 2.009608,-10.19226 2.00257,-36.66667 -0.0076,-28.62975 -0.30369,-33.28456 -2.395889,-37.66667 -1.312964,-2.75 -2.866064,-5 -3.451335,-5 -4.720826,0 -8.771006,18.0197 -10.418914,46.35491 -0.437842,7.52852 -1.538507,14.70357 -2.445923,15.94453 -1.478295,2.0217 -2.3931,1.48708 -8.797884,-5.14144 C 40.12128,162.57574 34.738567,158.19163 27.870684,154 c -1.201549,-0.73333 -3.679453,-2.39694 -5.506453,-3.69692 -3.97818,-2.8306 -7.701004,-1.77848 -7.68858,2.17291 0.0085,2.70577 9.227985,18.26092 13.850673,23.36893 1.181051,1.30506 3.522568,6.22383 5.203371,10.93062 L 36.7857,195.33334 44.059516,196 c 4.0006,0.36667 11.468753,0.36667 16.595897,0 8.741264,-0.62513 9.447394,-0.91589 11.333334,-4.66666 z m -4.275824,-89.40339 c 1.991225,0.47437 5.365941,2.12278 7.499366,3.66314 l 3.878956,2.80065 -0.860273,-10.177024 C 76.932415,82.854803 70.504272,66.943021 66.179244,68.384697 65.437439,68.631966 64.125449,71.796565 63.263712,75.417139 62.401975,79.037713 60.415111,86.638972 58.848459,92.308824 57.281807,97.978676 56,104.26239 56,106.27264 v 3.65499 l 4.046256,-4.43008 c 3.325939,-3.64144 4.690764,-4.27654 7.666667,-3.5676 z M 54.666667,72.000001 c 0,-1.466667 -0.826818,-2.666667 -1.837371,-2.666667 -1.010553,0 -2.753341,-1.35 -3.872861,-3 -1.515752,-2.233985 -2.431922,-2.61901 -3.58806,-1.507902 -1.171191,1.125573 -0.629254,2.478685 2.206194,5.508437 4.439987,4.744245 7.092098,5.3673 7.092098,1.666132 z M 64.743223,42.970353 c 3.431764,-2.881906 5.923444,-8.594811 5.923444,-13.581231 0,-4.858339 -6.60725,-10.722455 -12.081266,-10.722455 -5.364522,0 -11.774324,6.059273 -13.219188,12.49628 -1.092552,4.867424 -0.878624,5.42037 3.737451,9.660296 5.541493,5.089938 11.208757,5.867979 15.639559,2.14711 z"
       id="path501" />
  </g>
</svg>
