<?xml version="1.0" encoding="UTF-8" standalone="no"?>
<!-- Created with Inkscape (http://www.inkscape.org/) -->

<svg
   version="1.1"
   id="svg165"
   width="218.66667"
   height="174.66667"
   viewBox="0 0 218.66667 174.66667"
   xmlns="http://www.w3.org/2000/svg"
   xmlns:svg="http://www.w3.org/2000/svg">
  <defs
     id="defs169" />
  <g
     id="g171">
    <path
       style="fill:#000000;stroke-width:1.33333"
       d="m 37.893601,166.47394 c -6.866137,-3.33168 -8.921439,-13.45967 -5.212502,-25.68584 1.092063,-3.59988 1.985568,-7.32754 1.985568,-8.28366 0,-0.95612 -3.45,-4.10379 -7.666667,-6.99481 C 15.997208,117.96593 7.9579908,109.27985 7.6160148,104.56594 7.1970677,98.791047 12.024841,98.541983 16.916802,104.08612 22.93578,110.90752 34.689755,120 37.488891,120 c 1.793215,0 2.819442,-1.20832 3.371796,-3.9701 0.436711,-2.18355 1.621711,-4.65702 2.633334,-5.49659 1.011622,-0.83957 1.839313,-3.21583 1.839313,-5.28057 0,-3.17256 -2.530096,-5.859493 -16.333334,-17.345833 -8.983333,-7.475464 -16.524303,-14.706859 -16.757711,-16.069766 -0.274229,-1.60127 0.767871,-3.021236 2.945382,-4.013376 4.102801,-1.869362 8.099028,0.337552 13.548468,7.482136 1.969201,2.581755 4.079072,4.694101 4.688604,4.694101 1.758854,0 12.256771,7.562356 15.824884,11.399729 2.791966,3.002653 4.012539,3.388584 8.666667,2.740296 2.979372,-0.415005 16.21704,-0.830957 29.417041,-0.924336 C 100.53333,93.122318 116.13334,92.534212 122,91.908802 c 10.83541,-1.155099 60.69048,-3.273544 68,-2.889462 2.2,0.1156 6.56267,-0.447984 9.69483,-1.25241 4.9084,-1.260618 6.05919,-1.13285 8.33333,0.925222 3.53043,3.194988 3.56596,10.717669 0.0595,12.594268 -1.41843,0.75914 -4.95424,1.38025 -7.85732,1.38025 -6.53821,0 -7.35345,1.71938 -6.14881,12.96814 L 194.97732,124 h 7.02251 c 6.15548,0 7.12175,0.37039 7.82645,3 1.30251,4.86029 0.97266,7.34392 -1.2737,9.59028 -1.82183,1.82183 -6.66044,2.09912 -35,2.00576 -18.08726,-0.0596 -42.18591,0.15144 -53.55258,0.46892 -11.36667,0.31748 -28.624559,0.116 -38.350872,-0.44777 -9.726315,-0.56377 -18.876315,-0.71328 -20.333334,-0.33227 -2.344193,0.61303 -2.649126,1.83603 -2.649126,10.62491 0,5.46268 -0.617787,11.08649 -1.372859,12.49736 -2.941816,5.49684 -13.065135,8.14073 -19.400208,5.06675 z m 9.583672,-16.80727 c 3.815066,-5.02572 1.040545,-13.47164 -3.813586,-11.60893 -2.149089,0.82468 -4.004252,8.83666 -2.783017,12.01914 1.009948,2.6319 4.449693,2.41799 6.596603,-0.41021 z m 22.413679,-22.47599 c 1.688334,-0.64787 2.109049,-3.01281 2.109049,-11.85545 0,-10.64967 -0.1188,-11.07596 -3.309857,-11.87686 -3.571462,-0.89638 -13.737704,0.33389 -14.625189,1.76987 -1.036037,1.67634 1.697518,18.87899 3.308353,20.81993 1.642968,1.97965 8.665717,2.62064 12.517644,1.14251 z m 19.340025,-1.06734 c 0.965667,-1.16356 1.407691,-5.59675 1.16326,-11.66667 -0.380641,-9.45242 -0.514661,-9.80397 -3.886632,-10.19508 -4.07454,-0.4726 -5.127286,2.01006 -5.156064,12.1594 -0.02808,9.90403 3.80001,14.61775 7.879436,9.70235 z m 51.435693,0.57696 c 15.79583,-1.15885 21.68808,-1.94393 22.77921,-3.03506 0.38054,-0.38053 0.21088,-5.11089 -0.377,-10.51189 L 162,103.33334 141.33334,102.35948 c -13.07486,-0.61612 -23.96556,-0.45063 -29.64701,0.45048 l -8.98035,1.42435 0.11686,6.21618 c 0.0643,3.4189 -0.32243,8.23265 -0.85934,10.69723 -0.69946,3.21076 -0.45468,4.81136 0.86348,5.64625 2.22097,1.4067 17.91852,1.36784 37.83968,-0.0937 z M 182.4,123.73334 c 2.4878,-2.4878 2.0884,-19.00149 -0.51176,-21.15943 -2.93869,-2.43889 -6.43173,-0.0183 -7.00516,4.85442 -0.24764,2.10431 -0.0544,6.9938 0.42928,10.86552 0.90915,7.27653 3.36547,9.16166 7.08764,5.43949 z M 81.35626,43.463077 C 72.518628,41.694349 70.811718,38.697902 73.324986,29.364335 75.210805,22.36094 81.291536,16.084072 90.91396,11.208021 c 13.02084,-6.5981586 33.24183,-3.8682494 44.1426,5.959417 9.2862,8.37204 12.2196,19.652057 5.97911,22.991871 -1.45375,0.77802 -12.68012,1.597508 -25.00717,1.825442 -12.30304,0.22749 -23.492508,0.98237 -24.865495,1.67751 -1.606218,0.813225 -5.103009,0.742203 -9.806745,-0.199184 z m 50.31041,-9.694663 c 1.65451,-0.39938 3,-1.743452 3,-2.996836 0,-2.704783 -5.74497,-8.343576 -11.33333,-11.123878 -6.02276,-2.996421 -17.68526,-5.159552 -20.36358,-3.776986 -1.2667,0.653878 -4.886932,2.256848 -8.04496,3.562154 -5.349257,2.211008 -13.591465,10.508435 -13.591465,13.682522 0,1.466299 44.568755,2.044533 50.333335,0.653024 z"
       id="path640" />
  </g>
</svg>
