<?xml version="1.0" encoding="UTF-8" standalone="no"?>
<!-- Created with Inkscape (http://www.inkscape.org/) -->

<svg
   version="1.1"
   id="svg75"
   width="218.66667"
   height="209.33333"
   viewBox="0 0 218.66667 209.33333"
   xmlns="http://www.w3.org/2000/svg"
   xmlns:svg="http://www.w3.org/2000/svg">
  <defs
     id="defs79" />
  <g
     id="g81">
    <path
       style="fill:#000000;stroke-width:1.33333"
       d="m 103.47599,201.89094 c -2.75051,-7.16769 1.99229,-13.65397 7.98674,-10.92272 4.20506,1.91595 5.23689,5.76544 2.61711,9.76372 -2.5013,3.81746 -9.29861,4.5604 -10.60385,1.159 z m -27.809322,-0.66441 c -3.217467,-1.874 -2.923032,-5.99561 0.604828,-8.46663 2.503651,-1.75362 3.341668,-1.79054 5.666667,-0.24962 3.555772,2.35661 4.059213,5.30186 1.366532,7.99454 -2.47544,2.47544 -4.326719,2.65038 -7.638027,0.72171 z M 133.10782,201 c -3.74543,-3.0178 -3.92336,-6.17431 -0.47538,-8.43352 4.71104,-3.08679 9.27534,-2.02859 9.77328,2.26589 0.41518,3.58057 -2.61425,7.83429 -5.57945,7.83429 -0.90745,0 -2.58076,-0.75 -3.71845,-1.66666 z M 11.666667,185.69025 c -4.8029501,-5.02499 -5.0393632,-12.43877 -0.540124,-16.93801 2.832208,-2.8322 4.68364,-3.2046 19.666667,-3.95583 14.624305,-0.73323 136.76631,-2.69967 155.87346,-2.50949 11.36589,0.11306 18.30176,2.47318 20.65776,7.0292 4.27131,8.2598 1.3354,14.95112 -7.70657,17.5643 -3.80259,1.09898 -13.37283,1.46895 -29.61786,1.14498 -43.12214,-0.85996 -87.381356,-0.71242 -121.333333,0.40448 l -33.333333,1.09654 z m 173.939573,-7.81981 c 4.23804,-0.43734 8.33307,-1.66068 9.2476,-2.76263 2.86708,-3.45463 -1.23841,-4.56193 -12.85384,-3.46684 -5.86666,0.55309 -13.06666,0.85429 -16,0.66932 -20.52284,-1.29419 -104.371075,-0.45481 -138.931101,1.39077 -7.188711,0.3839 -10.215385,2.99814 -5.628253,4.86131 3.401258,1.38149 150.063034,0.76333 164.165594,-0.69193 z M 7.7455099,126.42912 C 4.6907031,124.04101 3.215215,110.29333 3.7354613,89.065968 4.0918113,74.525985 4.4697229,72.037731 6.4085761,71.465584 9.5530288,70.53767 49.299247,69.422887 106,68.672295 c 26.4,-0.349479 58.8679,-1.025823 72.15087,-1.502988 28.84259,-1.036116 29.01669,-0.961693 30.5164,13.045172 1.25229,11.69605 0.30033,40.692781 -1.39133,42.379961 -2.114,2.10837 -14.97699,2.71703 -75.27594,3.56198 -30.43333,0.42645 -70.333332,1.05882 -88.666666,1.40527 -26.361786,0.49815 -33.8048525,0.26128 -35.5878241,-1.13257 z M 91.446205,115.51999 c 0.600487,-1.56484 -4.979764,-17.62015 -10.795397,-31.060143 -1.78438,-4.123726 -2.046019,-4.225619 -13.246091,-5.158579 -10.538825,-0.87788 -24.440319,-0.395193 -43.757793,1.519355 -10.19174,1.0101 -10.650323,2.032548 -9.504869,21.191907 l 0.915961,15.3208 h 37.846173 c 30.679632,0 37.977936,-0.34337 38.542016,-1.81334 z m 25.887135,-4.58079 c 0,-4.50263 -9.17962,-25.176441 -13.5465,-30.508641 -1.31548,-1.606278 -10.133799,-0.970876 -12.188668,0.878252 -1.316831,1.184984 1.630636,9.245425 8.663168,23.691189 l 5.35506,11 h 5.85847 5.85847 z m 70.58986,2.22405 9.10355,-1.50342 0.52361,-6.16325 c 0.288,-3.38979 0.20699,-10.963248 -0.18002,-16.829915 l -0.70367,-10.666666 h -37.33333 c -20.53334,0 -39.05069,0.478334 -41.14967,1.062966 -3.43612,0.957067 -3.62405,1.289156 -1.88626,3.333334 1.06154,1.248701 2.70276,4.370366 3.64716,6.937033 3.53926,9.61893 9.72904,22.057628 11.77707,23.666668 2.75094,2.16128 43.38826,2.27932 56.20156,0.16325 z M 93.91804,38.998329 C 93.139628,38.449247 91.928716,35.940249 91.227123,33.422775 90.267268,29.978604 88.967339,28.566985 85.975751,27.72021 83.789088,27.101272 65.265788,26.712001 44.812861,26.855162 9.9331292,27.099306 7.513236,26.961624 5.8128608,24.636222 3.6894533,21.732289 3.4800923,19.145365 5.2785294,18.03387 5.9817205,17.599274 24.831447,17.030345 47.166811,16.769582 c 22.335365,-0.260761 41.213865,-0.847473 41.952224,-1.303804 0.738357,-0.45633 1.727198,-2.581352 2.197422,-4.722271 1.836094,-8.3596765 9.087993,-8.7795885 10.619693,-0.61492 1.14365,6.096175 4.80461,5.665961 6.90549,-0.8114947 1.15954,-3.5750849 2.23725,-4.6504257 4.6607,-4.6504257 2.64659,0 3.34991,0.9362858 4.38337,5.8352524 l 1.23097,5.835251 43.1889,-0.721164 43.18889,-0.721164 1.40047,3.0737 c 0.92797,2.036666 0.95918,3.862251 0.0925,5.410915 -1.15328,2.060796 -3.96977,2.377936 -23.81437,2.681533 -30.49351,0.466511 -59.43256,1.990099 -61.72058,3.249478 -1.03447,0.569392 -2.53447,3.057469 -3.33334,5.529061 -1.00699,3.115513 -2.38987,4.626744 -4.50875,4.927245 -2.47769,0.351388 -3.48733,-0.592573 -5.33333,-4.986439 -1.25239,-2.980934 -2.67766,-5.425982 -3.16726,-5.433441 -0.48961,-0.0075 -1.98961,2.236439 -3.33333,4.986439 -2.426208,4.965332 -5.144797,6.579164 -7.858443,4.664996 z"
       id="path779" />
  </g>
</svg>
