<?xml version="1.0" encoding="UTF-8" standalone="no"?>
<!-- Created with Inkscape (http://www.inkscape.org/) -->

<svg
   version="1.1"
   id="svg223"
   width="102.66667"
   height="201.33333"
   viewBox="0 0 102.66667 201.33333"
   xmlns="http://www.w3.org/2000/svg"
   xmlns:svg="http://www.w3.org/2000/svg">
  <defs
     id="defs227" />
  <g
     id="g229">
    <path
       style="fill:#000000;stroke-width:1.33333"
       d="m 54.000002,195.5954 c -4.712306,-1.7132 -21.994669,-12.7296 -22.011849,-14.03114 -0.0065,-0.49368 -2.935199,-4.3126 -6.508183,-8.48649 C 19.192099,165.7324 9.7630475,148.32785 6.7861862,138.572 5.9871173,135.95326 5.3333335,130.23998 5.3333335,125.87579 c 0,-6.90062 0.5370123,-8.58636 4.1199979,-12.93315 8.0948396,-9.82044 15.3025556,-10.89084 32.5398966,-4.8324 19.633974,6.90079 35.715244,18.42981 47.271159,33.88976 6.234316,8.3405 8.29491,14.5038 8.246311,24.66494 -0.04625,9.66975 -2.450536,15.10179 -9.881812,22.32615 -4.599961,4.47188 -7.075062,5.73447 -13.540429,6.9072 -9.493152,1.72192 -14.736538,1.64287 -20.088455,-0.30289 z M 73.502166,183 c 1.757318,-1.28334 4.352531,-2.9762 5.767142,-3.76194 3.050504,-1.69437 6.203383,-13.93252 5.128001,-19.90473 -1.029228,-5.71589 -6.059001,-13.86549 -12.139795,-19.66976 -4.725074,-4.5102 -27.332305,-16.99691 -30.772958,-16.99691 -0.766745,0 -3.48464,-0.99691 -6.039766,-2.21537 -4.231898,-2.01805 -5.215678,-2.03423 -11.045236,-0.18163 -8.271847,2.62874 -8.710949,5.60453 -2.634531,17.85415 2.512608,5.06524 4.983405,11.52803 5.490658,14.36177 0.61086,3.41252 2.857471,7.23936 6.653436,11.33334 3.152136,3.39958 7.532695,8.17786 9.734574,10.61837 2.487846,2.75748 7.22496,5.63355 12.513197,7.5972 C 66.480745,185.868 69.355762,186.02804 73.502166,183 Z M 15.482703,55.990874 C 6.2203323,54.82414 3.9400713,51.68256 5.615304,42.396277 8.1587444,28.297278 18.189479,13.527268 29.34415,7.4561352 47.495235,-2.4229222 71.279357,4.1925571 83.858733,22.619196 c 4.464094,6.539136 9.286823,17.736903 10.259899,23.822186 1.460984,9.136486 1.167435,9.210725 -36.640881,9.266634 -18.33685,0.02712 -33.820781,0.286564 -34.408738,0.576555 -0.587956,0.289989 -4.001796,0.157827 -7.58631,-0.293697 z M 69.018194,43.860881 c 6.136138,0.0836 10.982806,-2.048231 10.976101,-4.82788 -0.01455,-6.033158 -14.92844,-22.045393 -22.243146,-23.881268 -5.479311,-1.375219 -20.666064,0.778935 -25.034088,3.550943 -3.803547,2.413782 -7.020925,5.553425 -11.196718,10.926192 -2.486796,3.199627 -4.298464,11.963601 -2.837086,13.724453 0.804764,0.969682 8.559953,1.280801 23.591143,0.946417 12.315747,-0.273977 24.350455,-0.471463 26.743794,-0.438857 z"
       id="path251" />
  </g>
</svg>
