<?xml version="1.0" encoding="UTF-8" standalone="no"?>
<!-- Created with Inkscape (http://www.inkscape.org/) -->

<svg
   version="1.1"
   id="svg265"
   width="210.66667"
   height="101.33333"
   viewBox="0 0 210.66667 101.33333"
   xmlns="http://www.w3.org/2000/svg"
   xmlns:svg="http://www.w3.org/2000/svg">
  <defs
     id="defs269" />
  <g
     id="g271">
    <path
       style="fill:#000000;stroke-width:1.33333"
       d="M 7.4027567,87.626409 C 4.9267979,83.847619 4.4812614,65.171617 6.393809,45.333332 7.9785884,28.894887 8.3260493,27.82299 14.564294,20.127827 c 6.144961,-7.580094 10.917672,-9.461161 24.005204,-9.461161 9.190757,0 11.466648,0.490164 16.55976,3.566516 7.330518,4.427795 9.490746,8.078469 11.302208,19.10015 2.356207,14.336118 4.722858,44.542177 3.783218,48.285997 -1.311084,5.223776 -8.43949,6.538349 -11.981646,2.209578 C 55.854193,80.921785 55.703585,79.106901 56.366248,61.333331 56.956704,45.49646 56.687346,40.791791 54.876866,35.319336 51.225769,24.283334 49.148007,22.253889 41.042717,21.806885 29.718814,21.182377 27.048479,22.206966 23.291394,28.617948 c -3.15868,5.389879 -3.360854,6.853452 -3.346502,24.22591 0.0084,10.169211 0.171312,21.579712 0.362026,25.356671 0.263436,5.217204 -0.261974,7.539831 -2.186734,9.666667 C 14.78489,91.552654 9.9034732,91.442985 7.4027567,87.626409 Z M 126.94344,88.19927 c -3.01359,-1.911846 -3.63372,-7.672723 -2.70829,-25.159153 0.98708,-18.651025 -0.47197,-31.574457 -4.00905,-35.509957 -5.12876,-5.706457 -14.51324,-7.795918 -22.08484,-4.917201 -1.85112,0.703795 -5.04018,3.810136 -7.0868,6.90298 l -3.721125,5.623355 -0.08319,24.819597 c -0.04575,13.65078 -0.531164,25.544438 -1.078689,26.430353 -1.489663,2.410325 -7.173773,1.941768 -9.934467,-0.818925 -2.043794,-2.043795 -2.285389,-3.684939 -1.521182,-10.333333 0.499672,-4.34701 1.021513,-14.503655 1.159649,-22.570321 0.287309,-16.777962 0.690747,-19.034014 4.916405,-27.492984 3.813415,-7.633734 9.61577,-12.641316 16.935433,-14.615715 12.403846,-3.3458016 29.009376,2.429162 33.469976,11.639971 3.91624,8.086762 5.67216,16.467351 5.26641,25.135395 -0.20596,4.4 0.2794,13.214527 1.07859,19.58784 0.79917,6.373312 1.07821,13.081356 0.62005,14.906764 -1.559,6.211558 -6.78895,9.181712 -11.21888,6.371334 z m 68,0 c -3.01358,-1.911846 -3.63373,-7.672723 -2.70829,-25.159153 0.98708,-18.651025 -0.47197,-31.574457 -4.00905,-35.509957 -5.12875,-5.706457 -14.51324,-7.795918 -22.08484,-4.917201 -1.85112,0.703795 -5.04018,3.810136 -7.0868,6.90298 l -3.72112,5.623355 -0.0832,24.819597 c -0.0457,13.65078 -0.53116,25.544438 -1.07869,26.430353 -1.48967,2.410325 -7.17378,1.941768 -9.93447,-0.818925 -2.0438,-2.043795 -2.28539,-3.684939 -1.52119,-10.333333 0.49968,-4.34701 1.02152,-14.503655 1.15966,-22.570321 0.2873,-16.777962 0.69074,-19.034014 4.91641,-27.492984 3.81341,-7.633734 9.61576,-12.641316 16.93543,-14.615715 12.40384,-3.3458016 29.00937,2.429162 33.46997,11.639971 3.91624,8.086762 5.67216,16.467351 5.26641,25.135395 -0.20596,4.4 0.2794,13.214527 1.07859,19.58784 0.79917,6.373312 1.07821,13.081356 0.62005,14.906764 -1.559,6.211558 -6.78894,9.181712 -11.21888,6.371334 z"
       id="path1863" />
  </g>
</svg>
