<?xml version="1.0" encoding="UTF-8" standalone="no"?>
<!-- Created with Inkscape (http://www.inkscape.org/) -->

<svg
   version="1.1"
   id="svg213"
   width="164"
   height="213.33333"
   viewBox="0 0 164 213.33333"
   xmlns="http://www.w3.org/2000/svg"
   xmlns:svg="http://www.w3.org/2000/svg">
  <defs
     id="defs217" />
  <g
     id="g219">
    <path
       style="fill:#000000;stroke-width:1.33333"
       d="M 16.278725,207.9937 C 4.4914225,205.27362 0.41191261,191.33088 8.5871779,181.70592 12.411872,177.203 17.206412,174.7207 32,169.58432 c 6.233333,-2.16424 13.433333,-4.66292 16,-5.55262 2.566667,-0.8897 7.366667,-2.20309 10.666667,-2.91862 8.106333,-1.75771 19.085981,-5.21563 20.421086,-6.4314 0.598264,-0.54479 -6.301736,-4.59035 -15.333333,-8.99015 C 34.78126,131.57711 12.044473,109.27263 9.2553089,92.228667 8.0515465,84.87274 8.6797021,76.7018 10.65667,73.999999 c 0.536597,-0.733333 1.341514,-2.870657 1.788705,-4.749608 0.467385,-1.963797 5.630628,-7.801739 12.144122,-13.731033 8.000512,-7.282943 12.61642,-12.745257 15.704108,-18.583725 3.855696,-7.290688 4.840242,-8.268967 8.321935,-8.268967 4.117847,0 5.323588,1.519439 8.863219,11.169163 0.908361,2.476372 4.198773,8.301044 7.312024,12.943716 6.490405,9.678891 7.729504,12.814027 6.54255,16.553787 -0.61642,1.942168 -2.017378,2.666667 -5.156517,2.666667 -2.370581,0 -4.880149,-0.526027 -5.576816,-1.168949 -0.696667,-0.642923 -4.866667,-2.36382 -9.266667,-3.824218 -8.210386,-2.725094 -17.00324,-2.696089 -20.437344,0.06742 -3.311548,2.664886 -8.229322,14.152043 -8.229322,19.222419 0,10.924339 17.13742,31.470049 34.874696,41.810569 5.385584,3.1397 10.69197,6.43506 11.79197,7.32302 2.603676,2.10178 18.92972,8.56974 21.631234,8.56974 1.410436,0 2.29736,-1.62362 2.731341,-5 0.353467,-2.75 1.915813,-14.3 3.47188,-25.66667 1.556065,-11.36666 2.829887,-22.599557 2.830712,-24.961981 0.0024,-6.739632 5.62675,-17.927186 11.1185,-22.11595 6.42311,-4.899144 6.59168,-8.20606 0.3587,-7.036744 -3.67532,0.689492 -5.30163,0.194693 -8.66667,-2.636804 -2.2783,-1.917063 -4.142363,-4.095618 -4.142363,-4.841236 0,-0.745616 -1.5,-3.138316 -3.333334,-5.317108 C 93.5,44.244714 92,41.096181 92,39.426765 c 0,-4.650182 6.130569,-20.509841 10.19549,-26.375518 4.69549,-6.7756002 8.9725,-8.8794372 18.62292,-9.1605036 12.71572,-0.3703424 16.06222,0.9574004 21.89943,8.6887376 8.04731,10.658571 9.57959,15.54376 9.88081,31.501857 0.1462,7.744736 0.68072,14.752666 1.18783,15.57318 0.50711,0.820513 0.94492,9.48391 0.97293,19.251994 l 0.0509,17.760153 -3.63096,2.8968 c -4.2809,3.415305 -5.11332,7.665775 -7.13592,36.436535 -1.36396,19.402 -3.32779,38.95346 -4.86076,48.39281 -0.6181,3.80595 -0.23708,5.70544 1.5378,7.66667 2.8939,3.19772 4.60028,3.2556 9.69961,0.32897 3.33517,-1.91412 4.31131,-1.99457 6.10805,-0.5034 2.81846,2.33911 2.72206,7.18081 -0.19482,9.78427 -3.72272,3.3227 -11.61644,4.67218 -33,5.64154 -30.279926,1.37267 -102.080707,1.83064 -107.054611,0.68284 z m 25.054608,-10.72716 c 9.371875,-2.00554 58.426308,-3.78462 63.758427,-2.31236 5.55591,1.53407 11.85535,0.48059 15.84518,-2.64985 3.91661,-3.07299 7.70975,-24.92925 9.65588,-55.63767 0.79006,-12.46666 1.7592,-25.16693 2.15362,-28.22281 0.6152,-4.7663 0.32992,-5.67904 -2.00676,-6.42068 C 124.90562,100.17151 124,97.795278 124,84.339008 V 71.535162 l -3.13054,2.940986 c -4.80459,4.513677 -10.14649,33.087762 -10.2555,54.857182 -0.0349,6.96667 -0.59741,15.06667 -1.25004,18 -1.96974,8.85313 -3.76589,15.51308 -4.33813,16.08532 -0.29739,0.29739 -5.299858,1.18431 -11.116586,1.97092 -5.816729,0.78661 -13.875871,2.55791 -17.909204,3.93623 -4.033333,1.3783 -14.414711,4.34768 -23.069727,6.59858 -8.655016,2.25091 -18.081113,5.28875 -20.946882,6.75076 -2.86577,1.462 -6.3414,2.65819 -7.723623,2.65819 -3.29296,0 -7.28446,4.48957 -6.698161,7.53397 1.009146,5.24008 11.108616,7.10911 23.771726,4.39924 z M 141.40744,86.333332 c 1.25623,-28.251864 1.24819,-33.422734 -0.0596,-38.279265 -0.87567,-3.251993 -2.15797,-5.34024 -3.08917,-5.030748 -1.11984,0.372191 -1.70167,6.609819 -1.96162,21.030257 -0.20325,11.275617 -0.0721,21.276316 0.2915,22.223773 0.84738,2.208272 4.72113,2.253275 4.81884,0.05599 z M 50.666667,52.745355 c 0,-2.606852 -2.584494,-4.027529 -4.266667,-2.345356 -0.752205,0.752206 -0.964516,2.019927 -0.471801,2.817158 1.306953,2.114694 4.738468,1.773025 4.738468,-0.471802 z M 125.51885,41.298786 c 0.5064,-2.476012 1.97802,-5.274953 3.27027,-6.219869 3.44686,-2.520408 1.25891,-3.698477 -3.33493,-1.795646 -2.18056,0.903218 -7.07606,1.433978 -10.87889,1.17947 -5.55204,-0.371575 -7.2092,0.01227 -8.41143,1.948329 -1.25031,2.013475 -0.84792,2.892964 2.44011,5.333333 3.54407,2.630394 11.31359,4.898594 14.69508,4.290018 0.71448,-0.128587 1.71339,-2.259623 2.21979,-4.735635 z M 124,20.666666 c 0.91292,-1.1 2.93639,-2.021261 4.49659,-2.047246 2.67209,-0.04451 2.64326,-0.15785 -0.49659,-1.952754 -6.47856,-3.703477 -16,-1.200141 -16,4.206651 0,2.533837 9.86661,2.363925 12,-0.206651 z"
       id="path390" />
  </g>
</svg>
