<?xml version="1.0" encoding="UTF-8" standalone="no"?>
<!-- Created with Inkscape (http://www.inkscape.org/) -->

<svg
   version="1.1"
   id="svg203"
   width="104"
   height="206.66667"
   viewBox="0 0 104 206.66667"
   xmlns="http://www.w3.org/2000/svg"
   xmlns:svg="http://www.w3.org/2000/svg">
  <defs
     id="defs207" />
  <g
     id="g209">
    <path
       style="fill:#000000;stroke-width:1.33333"
       d="M 6.4093084,200.35658 C 4.7653711,198.37575 5.6279876,185.2152 8.5301407,168 c 1.0508206,-6.23333 3.1576103,-19.03446 4.6817553,-28.44696 1.524145,-9.41249 3.03526,-17.54092 3.358033,-18.06318 0.322774,-0.52226 2.103842,-8.42113 3.957928,-17.55304 1.854087,-9.131918 4.625136,-21.403485 6.157887,-27.270152 1.532752,-5.866667 4.257316,-17.266667 6.054588,-25.333334 1.797272,-8.066667 3.865944,-16.509265 4.597051,-18.761331 0.731106,-2.252065 1.329284,-8.052992 1.329284,-12.890949 0,-11.1831772 0.630505,-12.6849402 6.324545,-15.0640622 6.135164,-2.563435 6.571847,-2.5084786 10.3876,1.3072754 2.771928,2.7719269 3.144215,4.1137308 2.497071,8.9999998 -0.418292,3.15832 -0.07135,8.4424 0.770974,11.7424 0.842327,3.3 2.126495,9 2.853704,12.666667 0.727211,3.666667 2.431158,10.266667 3.786551,14.666667 1.355392,4.4 3.504661,11.9 4.776155,16.666667 1.271493,4.766667 3.403008,12.266667 4.7367,16.666667 2.690037,8.874737 7.105701,26.065375 10.103333,39.333335 1.862221,8.24245 3.916012,16.96004 7.853056,33.33333 7.828464,32.55686 8.310574,36.12134 5.231213,38.67699 -1.807829,1.50036 -8.711674,1.98805 -32.475076,2.29408 -16.598538,0.21376 -36.366457,0.54925 -43.928709,0.74555 -9.953006,0.25834 -14.1430019,-0.1172 -15.1744756,-1.36004 z m 32.4857036,-13.2299 c 1.341077,-1.21365 2.438321,-3.12532 2.438321,-4.24814 0,-1.12283 0.83966,-5.67983 1.86591,-10.12668 1.02625,-4.44686 2.93111,-13.06459 4.233022,-19.15052 2.493239,-11.65491 3.03148,-12.70818 5.663035,-11.08178 1.619611,1.00098 2.667777,5.78038 6.276433,28.61915 1.025924,6.49296 2.506314,12.57773 3.289754,13.52172 1.824352,2.19821 12.280592,3.78381 17.456112,2.64708 3.849392,-0.84547 3.965532,-1.08921 3.378944,-7.09153 -0.943007,-9.6494 -5.898111,-33.00048 -8.14262,-38.37235 -1.111324,-2.65977 -2.02059,-6.42115 -2.02059,-8.35861 0,-1.93747 -1.2,-6.80572 -2.666666,-10.81835 C 69.2,118.65404 67.973664,113.56251 67.941476,111.35216 67.909288,109.14181 66.951869,104.93334 65.81388,102 64.675889,99.066668 62.674509,92.166668 61.366367,86.666668 c -1.308142,-5.5 -3.341992,-12.7 -4.519666,-16 -1.177674,-3.3 -2.149957,-7.150852 -2.16063,-8.55745 -0.05396,-7.111242 -3.09338,-19.442551 -4.792207,-19.442551 -3.008215,0 -5.771969,5.608319 -7.263845,14.740082 -2.660995,16.287912 -3.54894,20.603666 -4.922782,23.926586 -1.969313,4.763193 -4.373904,15.449019 -4.373904,19.437305 0,1.86947 -1.536956,10.71086 -3.415457,19.64753 -1.878501,8.93668 -4.226335,21.0485 -5.217408,26.91517 -0.991073,5.86666 -2.833007,16.77837 -4.093184,24.24822 -1.260179,7.46987 -1.931176,14.51987 -1.491105,15.66667 1.159446,3.02148 16.409393,2.92776 19.778833,-0.1216 z"
       id="path529" />
  </g>
</svg>
