<?xml version="1.0" encoding="UTF-8" standalone="no"?>
<!-- Created with Inkscape (http://www.inkscape.org/) -->

<svg
   version="1.1"
   id="svg225"
   width="126.66667"
   height="202.66667"
   viewBox="0 0 126.66667 202.66667"
   xmlns="http://www.w3.org/2000/svg"
   xmlns:svg="http://www.w3.org/2000/svg">
  <defs
     id="defs229" />
  <g
     id="g231">
    <path
       style="fill:#000000;stroke-width:1.33333"
       d="m 63.638088,195 c -3.818089,-5.64314 -9.852319,-11.97766 -14.381356,-15.09705 -2.682129,-1.84732 -3.009321,-3.07789 -2.747499,-10.33333 0.322687,-8.94208 -1.654481,-11.08615 -4.005093,-4.34318 -1.928535,5.5322 -4.558474,5.94892 -9.159422,1.45136 -2.196237,-2.14689 -6.301977,-4.52514 -9.123865,-5.285 -7.781639,-2.09537 -9.414143,-4.75645 -10.315483,-16.81489 -1.410106,-18.86486 -1.587321,-20.15894 -3.16409,-23.10516 -3.5287841,-6.59359 2.782327,-11.37431 10.690927,-8.09846 2.723248,1.12801 7.423266,1.41602 14.368195,0.88046 15.272545,-1.17773 15.654018,-1.46144 10.499293,-7.80843 -2.364831,-2.91181 -8.349694,-9.457758 -13.299694,-14.546554 -4.95,-5.088798 -9,-10.058002 -9,-11.042677 0,-0.984674 -1.762858,-4.223872 -3.91746,-7.198216 C 14.8119,66.382966 8.902685,54.343716 5.9970031,44.961438 2.5633111,33.874249 3.8765618,17.494968 8.7069606,11.16199 12.986973,5.550604 18.427656,2.6666667 24.733787,2.6666667 c 3.756347,0 5.900158,1.0339443 9.399547,4.5333334 3.949346,3.9493459 4.533334,5.3940459 4.533334,11.2148079 0,5.824048 -0.526444,7.12445 -4.1023,10.133334 -5.141713,4.326465 -10.989137,4.533132 -13.822095,0.488517 -2.860781,-4.084336 -2.597462,-8.514803 0.702172,-11.814436 3.20122,-3.20122 2.649217,-4.521501 -1.358587,-3.249473 -8.163617,2.591032 -9.028846,20.514753 -1.712042,35.465952 2.361069,4.82462 4.292851,9.277376 4.292851,9.895014 0,0.617637 0.846003,2.070221 1.880006,3.227964 1.034002,1.157744 3.841608,5.704988 6.239122,10.104988 5.099742,9.35922 13.278063,20.666667 14.947552,20.666667 0.640272,0 4.913157,3.6 9.495301,8.000005 6.969754,6.6927 9.100094,8 13.036594,8 6.532443,0 9.546843,-4.82874 20.392602,-32.666672 8.689413,-22.30322 12.506166,-31.414087 15.919066,-38.000001 0.95006,-1.833333 2.14857,-5.095764 2.66335,-7.249846 C 108.50872,26.108995 117.26704,7.5472973 119.01767,6.4566937 121.28031,5.0471185 124,6.7351808 124,9.5491372 c 0,1.4284418 -1.12601,5.1142488 -2.50225,8.1906818 -6.27258,14.021638 -7.95687,18.27994 -8.86414,22.410707 -0.53498,2.435737 -1.48733,5.348307 -2.11633,6.472377 -0.629,1.124071 -2.40728,5.943765 -3.95172,10.710431 -1.54445,4.766667 -3.36376,9.340491 -4.04292,10.164054 -0.67917,0.823562 -3.34924,7.423563 -5.933503,14.666667 -9.496892,26.617645 -11.000128,30.581925 -13.069816,34.467175 -1.161564,2.18051 -2.516644,6.68051 -3.01129,10 -0.494644,3.31949 -1.777446,7.38107 -2.850673,9.02572 -1.184987,1.81593 -1.617217,4.32147 -1.100592,6.37987 0.468349,1.86605 -0.06488,6.08641 -1.186352,9.38964 -2.361907,6.95682 -2.611475,20.22444 -0.524939,27.90688 2.728612,10.0465 2.895043,16.06901 0.509972,18.45408 -3.739181,3.73917 -7.984896,2.72917 -11.717359,-2.78742 z m 0.106227,-29.1299 c 0.09317,-5.62939 0.724055,-12.10308 1.401972,-14.386 1.744121,-5.87343 5.989384,-30.13761 5.369459,-30.68966 -0.283659,-0.25261 -3.815744,0.0922 -7.849078,0.76623 -4.033333,0.67403 -13.450839,1.56547 -20.927788,1.98097 -17.35653,0.96453 -18.003765,1.55437 -17.464569,15.91576 l 0.392356,10.45032 5.09082,1.20007 c 4.374585,1.03124 5.46053,0.80324 7.718607,-1.62052 2.591522,-2.78168 8.441807,-3.70971 11.348226,-1.80019 2.658921,1.74692 6.897849,12.11227 7.883193,19.27658 0.862459,6.27082 3.844846,11.00973 6.065242,9.63745 0.441189,-0.27268 0.878391,-5.10163 0.971556,-10.73101 z"
       id="path402" />
  </g>
</svg>
