<?xml version="1.0" encoding="UTF-8" standalone="no"?>
<!-- Created with Inkscape (http://www.inkscape.org/) -->

<svg
   version="1.1"
   id="svg193"
   width="133.33333"
   height="210.66667"
   viewBox="0 0 133.33333 210.66667"
   xmlns="http://www.w3.org/2000/svg"
   xmlns:svg="http://www.w3.org/2000/svg">
  <defs
     id="defs197" />
  <g
     id="g199">
    <path
       style="fill:#000000;stroke-width:1.33333"
       d="m 69.244182,203.66667 c -1.46329,-1.65 -4.850922,-5.59345 -7.52807,-8.76323 -2.677149,-3.16977 -7.158472,-6.93196 -9.958495,-8.36042 -4.189842,-2.1375 -5.090952,-3.30492 -5.090952,-6.59552 0,-3.54386 -0.360215,-3.9079 -3.169223,-3.20288 -2.32555,0.58368 -4.36648,-0.24787 -7.666667,-3.1237 -2.949269,-2.57001 -6.667048,-4.23856 -10.800145,-4.84712 -5.98197,-0.88078 -6.376257,-1.20116 -7.748102,-6.29581 -0.79497,-2.95228 -1.057382,-7.13443 -0.583139,-9.29364 0.948667,-4.31925 -1.28372,-20.14975 -4.021509,-28.51768 -1.089123,-3.32886 -1.300728,-6.16451 -0.563019,-7.54486 1.068799,-1.99987 1.86202,-2.03393 8.287788,-0.35593 5.0623,1.32195 8.390253,1.48724 11.571917,0.57475 2.456326,-0.70447 5.878556,-0.92633 7.604956,-0.49303 3.56323,0.89431 11.087143,-1.7739 11.087143,-3.93185 0,-1.96457 -10.104522,-11.2243 -13.384243,-12.26524 -1.468906,-0.46621 -4.146957,-3.760839 -5.951225,-7.321391 -1.80427,-3.560554 -3.87737,-6.842626 -4.606891,-7.293494 C 24.847206,84.875513 16,71.347432 16,69.637309 16,68.856302 13.953296,63.946542 11.451768,58.72673 4.7591943,44.761673 4.4539976,39.961023 8.88418,18.339362 9.754242,14.092994 17.174916,7.091878 22.121647,5.8503269 23.99499,5.380148 28.001486,5.5214786 31.024971,6.1643948 37.630476,7.568994 40.737792,12.05591 42.057987,22.0959 c 0.777384,5.911952 0.494241,7.217368 -2.251044,10.378347 -4.356188,5.015807 -11.860752,6.138612 -15.656845,2.342519 -3.815492,-3.815492 -3.765075,-11.162734 0.10132,-14.764826 2.419264,-2.253889 2.539076,-2.718606 0.700904,-2.718606 -3.730631,0 -6.832593,7.806498 -6.895282,17.352888 -0.05901,8.986417 0.240484,9.810751 12.587906,34.647112 7.493205,15.072291 14.421185,24.289509 21.720045,28.897077 2.932244,1.851039 7.663657,5.744949 10.514251,8.653129 7.186258,7.33142 10.704663,6.74842 17.36488,-2.87739 2.788375,-4.029944 6.313389,-11.529945 7.833366,-16.666662 3.196438,-10.802271 5.442983,-16.73012 10.76283,-28.399354 2.104492,-4.61626 3.826342,-8.892436 3.826342,-9.502612 0,-1.442705 7.3992,-20.137212 11.49348,-29.038947 1.75427,-3.814116 3.78551,-8.502161 4.51386,-10.4178751 1.10954,-2.918295 2.02711,-3.4153545 5.65847,-3.0652418 3.94038,0.3799063 4.37129,0.8636731 4.74243,5.3241749 0.24627,2.959807 -0.62524,6.932075 -2.19673,10.012441 -3.24428,6.359314 -12.21151,29.194561 -12.21151,31.096879 0,0.7735 -1.57928,4.522933 -3.50952,8.332072 -4.04678,7.985949 -8.13976,19.295542 -9.76618,26.985643 -0.62038,2.933333 -3.96857,11.933332 -7.440413,20.000002 -5.985288,13.90654 -9.116696,26.09107 -12.565577,48.89357 -0.739835,4.89146 -2.063928,10.4711 -2.942428,12.3992 -1.192001,2.61616 -1.224668,4.58842 -0.128747,7.7731 0.807691,2.3471 2.17781,8.65358 3.044707,14.0144 1.419159,8.77594 1.343001,10.0046 -0.76448,12.33333 -3.124239,3.45225 -8.081654,3.2716 -11.34984,-0.4136 z m -0.55494,-48.33333 c 3.731512,-18.39422 3.852624,-21.04083 1.115023,-24.36592 -2.460715,-2.98879 -2.548128,-2.99507 -21.1376,-1.52048 -10.266666,0.8144 -19.458131,2.12988 -20.425478,2.92329 -1.687356,1.38396 -1.489414,7.68076 0.582903,18.54291 0.963841,5.05202 7.520502,6.48057 11.704296,2.5501 4.65578,-4.37388 10.648514,-3.69778 14.737091,1.66262 1.870654,2.45256 3.401188,5.16069 3.401188,6.01809 0,0.8574 0.599742,2.60076 1.332758,3.87415 0.733017,1.27338 2.01957,4.11524 2.859007,6.31524 l 1.52625,4 1.070344,-4.66667 C 66.043713,168.1 67.499112,161.2 68.689242,155.33334 Z"
       id="path668" />
  </g>
</svg>
