<?xml version="1.0" encoding="UTF-8" standalone="no"?>
<!-- Created with Inkscape (http://www.inkscape.org/) -->

<svg
   version="1.1"
   id="svg45"
   width="214.66667"
   height="148"
   viewBox="0 0 214.66667 148"
   xmlns="http://www.w3.org/2000/svg"
   xmlns:svg="http://www.w3.org/2000/svg">
  <defs
     id="defs49" />
  <g
     id="g51">
    <path
       style="fill:#000000;stroke-width:1.33333"
       d="M 93.84544,139.66667 92.645328,134 H 50.219926 c -39.715015,0 -42.5407589,-0.15735 -44.2310854,-2.46293 -2.1059549,-2.8725 -1.326838,-5.75063 2.0452427,-7.55531 1.3463628,-0.72055 19.0907867,-1.33185 40.7015077,-1.40218 21.072969,-0.0686 39.728221,-0.66219 41.456117,-1.31913 1.78962,-0.68042 3.141627,-2.29269 3.141627,-3.7464 0,-1.40358 1.087244,-3.89465 2.416098,-5.53572 3.461501,-4.27477 7.889797,-2.59063 9.019307,3.43015 1.15587,6.16135 4.08755,5.83773 6.72016,-0.74181 3.19804,-7.99269 9.84444,-7.1584 9.84444,1.23573 0,1.29303 1.11107,3.35647 2.46904,4.58542 2.20015,1.99111 6.84888,2.2241 42.68517,2.13939 22.11885,-0.0523 40.73536,0.22586 41.37,0.61809 2.06063,1.27353 2.56803,5.90806 0.89704,8.19329 -1.44373,1.97441 -6.18979,2.2939 -41.52564,2.79537 -21.94259,0.3114 -41.20562,0.83753 -42.80675,1.1692 -1.60112,0.33168 -3.29155,1.80164 -3.75652,3.2666 -1.12554,3.54629 -6.85763,3.59307 -7.97736,0.0651 -0.88616,-2.79203 -5.14338,-4.76838 -7.34305,-3.40891 -0.7399,0.45732 -1.34527,1.94697 -1.34527,3.31039 0,4.69326 -1.58174,6.69702 -5.286541,6.69702 -3.238042,0 -3.808555,-0.6641 -4.868019,-5.66666 z m 38.05944,-98.142255 c -1.52338,-1.233555 -4.67518,-5.831184 -7.004,-10.216955 -5.99899,-11.297661 -7.45553,-10.8302 -13.67192,4.387872 -2.49146,6.099223 -6.40647,8.23152 -10.77144,5.866623 C 99.105886,40.829649 95.600001,36.280053 92.666668,31.451741 89.733335,26.623428 86.636859,22.671568 85.785609,22.669829 84.934361,22.668089 82.930327,25.516667 81.3322,29 76.065773,40.478887 75.392651,41.650088 73.6853,42.30526 68.83244,44.167477 63.965086,39.576604 57.458296,27 54.966578,22.183903 52.523153,23.451529 47.177981,32.333333 38.614519,46.562805 37.817867,46.507665 27.914154,31 24.987084,26.416667 22.13774,22.666667 21.58228,22.666667 c -0.555461,0 -2.943252,3.920574 -5.306201,8.712388 -4.580554,9.28888 -7.0436046,11.303661 -10.4065997,8.512622 -2.7433291,-2.276761 -1.9770176,-6.024 3.9315198,-19.22501 C 15.509348,7.9129219 19.006651,4.3669059 23.191515,7.0896337 24.736182,8.0946147 27.5,11.584595 29.333334,14.845147 c 5.510179,9.799754 7.648079,12.241868 9.945213,11.360374 1.163399,-0.446437 2.429871,-1.875313 2.814382,-3.17528 0.384512,-1.299965 2.244458,-5.513574 4.133216,-9.363574 4.066684,-8.2894339 8.261849,-9.4410234 12.143117,-3.333334 4.42177,6.958242 11.479771,16.333334 12.296484,16.333334 0.450492,0 2.831111,-4.15908 5.290265,-9.242399 6.930772,-14.3266165 11.654665,-14.0662735 20.535232,1.131737 2.326832,3.982091 4.874577,7.454823 5.661647,7.717182 0.78708,0.262358 3.29689,-3.023648 5.57735,-7.302236 4.46643,-8.379882 8.54723,-12.8784601 10.95454,-12.0760235 0.82817,0.2760546 4.63601,4.3876275 8.46188,9.1368285 8.67542,10.769141 13.15866,12.087635 16.2165,4.769177 1.0836,-2.593406 1.97018,-5.821417 1.97018,-7.17336 0,-2.993889 4.7098,-8.2942397 7.37012,-8.2942397 1.06309,0 5.01957,4.7999997 8.79216,10.6666667 3.77258,5.866667 7.32588,10.666667 7.89621,10.666667 1.12717,0 6.60817,-10.662471 6.60817,-12.855214 0,-0.740639 1.44128,-2.700629 3.20286,-4.3555349 5.0651,-4.7584216 8.46942,-3.2729497 13.46954,5.8774149 9.9384,18.18759 11.64018,21.928946 10.87795,23.91528 -1.84499,4.80794 -12.88368,0.23472 -12.88368,-5.337576 0,-2.857817 -6.67247,-11.398168 -8.17819,-10.467582 -0.66814,0.412942 -2.98737,4.262214 -5.15382,8.553937 -6.34703,12.573375 -12.13238,11.950067 -19.49067,-2.099903 -3.93597,-7.515389 -7.14729,-10.63867 -7.20615,-7.0086 -0.0159,0.977778 -1.97645,5.637446 -4.35689,10.354819 -4.92099,9.751996 -9.38423,12.322856 -14.37607,8.280707 z"
       id="path153" />
  </g>
</svg>
