<?xml version="1.0" encoding="UTF-8" standalone="no"?>
<!-- Created with Inkscape (http://www.inkscape.org/) -->

<svg
   version="1.1"
   id="svg173"
   width="238.66667"
   height="170.66667"
   viewBox="0 0 238.66667 170.66667"
   xmlns="http://www.w3.org/2000/svg"
   xmlns:svg="http://www.w3.org/2000/svg">
  <defs
     id="defs177" />
  <g
     id="g179">
    <path
       style="fill:#000000;stroke-width:1.33333"
       d="m 182.66667,165.4498 c -9.69555,-2.2246 -16.24201,-5.32256 -21.77428,-10.30414 -7.6536,-6.89176 -10.62492,-11.52552 -14.22519,-22.18406 -5.9602,-17.64504 -1.43618,-34.875638 12.20526,-46.486124 6.53969,-5.566062 9.45437,-7.24374 20.19028,-11.621432 5.28552,-2.155231 21.87905,-1.850469 28.70577,0.527217 7.21837,2.514095 20.7514,15.979662 24.62743,24.504661 5.54425,12.194138 3.10118,36.564518 -4.84568,48.336938 -1.58598,2.34944 -7.17419,7.15073 -12.41826,10.66952 -8.572,5.75185 -10.45669,6.45992 -18.66666,7.013 -5.0226,0.33834 -11.232,0.13334 -13.79867,-0.45558 z m 12.55761,-8.92578 c 2.68184,-1.02912 2.69566,-4.42651 0.0335,-8.22734 -2.84195,-4.05744 -5.28933,-3.71546 -7.24781,1.01271 -2.73859,6.61152 0.45733,9.80755 7.21436,7.21463 z M 179.60952,147 c 1.52198,-2.75 3.16234,-6.86892 3.64523,-9.15316 1.00017,-4.73113 5.23281,-9.84684 8.14709,-9.84684 1.66934,0 8.08056,8.38495 13.39955,17.52464 2.22285,3.81956 2.61089,4.007 6.35164,3.06814 1.95319,-0.49022 4.74023,-2.92934 6.38135,-5.58474 l 2.91366,-4.71441 -3.85301,-2.81348 c -2.11917,-1.54741 -6.86997,-4.61558 -10.55736,-6.81815 -4.99051,-2.98097 -6.80935,-4.91143 -7.11515,-7.55182 -0.37262,-3.21742 0.55694,-4.02906 10,-8.73145 12.66034,-6.3045 13.48434,-8.50017 6.42364,-17.116813 -2.67192,-3.260721 -5.41581,-5.928582 -6.09756,-5.928582 -0.68176,0 -3.49158,3.685945 -6.24406,8.19099 -10.69436,17.503625 -13.65714,18.304335 -19.5059,5.271565 C 181.57439,98.508085 180,94.398374 180,93.6632 c 0,-2.598484 -3.74745,-4.444056 -7.24252,-3.566848 -1.92369,0.482814 -5.6632,3.520662 -8.31004,6.750775 -4.66678,5.695203 -4.74012,5.952823 -2.42328,8.512903 1.31403,1.45199 3.1779,2.63997 4.14194,2.63997 2.09458,0 10.88714,4.76349 14.16724,7.67529 5.0943,4.52231 1.52502,9.15141 -12.64706,16.40234 -6.29605,3.22128 -8.39974,5.68927 -6.90756,8.10369 1.10355,1.78555 13.91842,11.81868 15.0955,11.81868 0.53244,0 2.21333,-2.25 3.7353,-5 z m -15.18946,-23.54329 5.08672,-3.12673 -3.59987,-2.83166 c -1.97992,-1.55741 -5.29176,-2.83165 -7.35964,-2.83165 -3.22771,0 -3.88136,0.64816 -4.61901,4.58015 -1.52807,8.14536 1.87072,9.50915 10.4918,4.20989 z m 60.94628,-0.21017 c 2.457,-6.46239 0.85449,-7.37101 -7.605,-4.31202 -5.38735,1.94809 -5.65603,4.06545 -0.76134,5.99959 5.6931,2.24962 6.96712,1.99263 8.36634,-1.68757 z M 196.94115,86.131494 c -0.26392,-0.805654 -2.38364,-1.65284 -4.71049,-1.882636 -4.858,-0.479767 -5.45727,1.406564 -2.0103,6.32781 l 2.22038,3.170016 2.49013,-3.075181 c 1.36957,-1.691351 2.2742,-3.734355 2.01028,-4.540009 z M 48.666667,85.870062 C 43.056259,84.598955 35.277731,82.147163 34,81.24713 33.266667,80.73057 30.725654,79.892946 28.353303,79.385744 22.529722,78.14068 9.8323869,64.133343 7.8412024,56.757381 3.491252,40.643822 3.8691515,33.700851 9.7330148,22 13.540636,14.40221 14.41881,13.503855 21.591155,9.8693525 30.569039,5.3199138 37.86487,4.6433802 46.050713,7.6012468 58.382066,12.057049 64.652348,19.7374 66.114358,32.176834 c 1.626575,13.839615 -7.312937,23.823167 -21.331836,23.823167 -8.737381,0 -12.195463,-2.078113 -14.798004,-8.892771 -3.964079,-10.379792 0.40053,-20.581701 9.595287,-22.428183 7.626106,-1.531465 13.633882,7.753226 6.086862,9.406915 -6.579698,1.441731 -7,1.784512 -7,5.708932 0,4.473642 1.981488,6.543016 6.682506,6.978902 6.228318,0.577501 7.916108,-0.107947 9.949921,-4.040915 4.407232,-8.522648 1.014749,-19.072633 -7.566213,-23.529505 -6.023752,-3.128681 -16.994186,-2.404372 -22.742234,1.501528 -7.37276,5.009921 -9.623776,10.162058 -9.605773,21.985752 0.0166,10.900366 2.123516,15.942908 9.521729,22.788593 7.199019,6.661368 11.999838,8.105808 29.41241,8.849423 18.081032,0.772163 20.577273,1.847136 17.905603,7.710815 -1.207634,2.650467 -2.483003,3.296715 -6.529363,3.308523 -2.765723,0.0081 -7.128586,0.264772 -9.695252,0.570446 -2.566667,0.305675 -5.866667,0.283898 -7.333334,-0.0484 z"
       id="path946" />
  </g>
</svg>
