<?xml version="1.0" encoding="UTF-8" standalone="no"?>
<!-- Created with Inkscape (http://www.inkscape.org/) -->

<svg
   version="1.1"
   id="svg83"
   width="86.666664"
   height="150.66667"
   viewBox="0 0 86.666664 150.66667"
   xmlns="http://www.w3.org/2000/svg"
   xmlns:svg="http://www.w3.org/2000/svg">
  <defs
     id="defs87" />
  <g
     id="g89">
    <path
       style="fill:#000000;stroke-width:1.33333"
       d="m 27.999999,144.9895 -4.666666,-1.65616 -0.19841,-26 C 22.896215,86.052607 20.965326,73.571555 15.974024,71.046084 14.154977,70.125694 13.483441,69.363802 14.481721,69.352991 17.928582,69.315664 13.457956,54.257343 4.7775609,36.666667 0.4704366,27.938351 2.0531453,24.858735 11.153582,24.260279 18.416139,23.782685 18.888209,22.158938 13.155814,17.373323 9.8957088,14.651666 9.1834159,13.239495 9.9123306,10.942888 10.634263,8.6682793 11.875576,8.0000002 15.378677,8.0000002 c 3.481896,0 6.098014,1.3905671 11.287989,5.9999998 4.737882,4.207911 7.922173,6 10.661156,6 5.212097,0 17.066392,-4.53085 22.669095,-8.664393 8.439808,-6.2266934 13.376447,-3.4399848 10.663505,6.019495 -0.7299,2.545012 -1.327091,4.74838 -1.327091,4.896374 0,0.147995 2.85,0.451957 6.333333,0.67547 5.455446,0.350057 6.393792,0.832915 6.769503,3.483476 0.239893,1.692399 -0.400731,4.392399 -1.423609,6 -1.02288,1.607601 -3.235395,6.654419 -4.916702,11.21515 -1.681306,4.56073 -3.847825,8.948629 -4.814485,9.750885 -1.055182,0.875724 -1.757564,4.319554 -1.757564,8.617464 0,3.93735 -0.7665,8.549451 -1.703333,10.249115 -1.233501,2.237896 -1.780812,12.436822 -1.98422,36.975164 -0.220824,26.63942 -0.661,34.09187 -2.058571,34.85296 -3.569068,1.94364 -30.911077,2.64544 -35.777684,0.91834 z M 52.124781,133 c 0.06863,-0.91666 0.280647,-15.04207 0.471147,-31.38979 l 0.346364,-29.723134 -8.80448,0.389796 -8.80448,0.389796 0.192899,9.333334 C 35.743803,92.527083 38.630303,130.44514 39.408589,133 c 0.308723,1.01344 2.875756,1.66667 6.549563,1.66667 3.878037,0 6.086536,-0.59689 6.166629,-1.66667 z M 59.37378,52.333334 c 0.455371,-2.75 1.440351,-6.613785 2.188843,-8.58619 2.323799,-6.123613 -1.477597,-8.217903 -8.833221,-4.866456 -2.89109,1.317269 -3.39607,2.420736 -3.39607,7.420988 0,7.524948 1.902969,11.031659 5.986494,11.031659 2.691747,0 3.36312,-0.828048 4.053954,-5.000001 z m -22.973893,0 c 0.403271,-2.016666 0.311591,-5.72796 -0.203736,-8.247317 -0.737311,-3.604616 -1.781369,-4.807557 -4.899887,-5.645544 -8.274375,-2.223434 -10.728501,1.558244 -6.462955,9.959075 3.219171,6.340036 4.517646,7.600453 7.82995,7.600453 2.209804,0 3.197148,-0.968858 3.736628,-3.666667 z"
       id="path1085" />
  </g>
</svg>
