<?xml version="1.0" encoding="UTF-8" standalone="no"?>
<!-- Created with Inkscape (http://www.inkscape.org/) -->

<svg
   version="1.1"
   id="svg225"
   width="209.33333"
   height="209.33333"
   viewBox="0 0 209.33333 209.33333"
   xmlns="http://www.w3.org/2000/svg"
   xmlns:svg="http://www.w3.org/2000/svg">
  <defs
     id="defs229" />
  <g
     id="g231">
    <path
       style="fill:#000000;stroke-width:1.33333"
       d="m 31.999999,203.33333 c -0.912918,-1.1 -2.226418,-2 -2.918889,-2 -0.692469,0 -3.169002,-1.44619 -5.503406,-3.21373 -2.334404,-1.76756 -7.394371,-4.23663 -11.244371,-5.48682 -5.9018639,-1.91648 -6.9999998,-2.78164 -6.9999998,-5.51493 0,-2.24775 1.267251,-3.93839 4.132498,-5.5132 5.0706588,-2.78696 15.2800368,-9.09532 20.1468448,-12.44872 5.076595,-3.49796 7.15637,-3.14244 12.422259,2.12345 7.057079,7.05707 12.899419,8.07618 31.260293,5.45286 8.454291,-1.20791 18.971437,-3.1884 23.371437,-4.40108 6.513175,-1.7951 14.319015,-2.19116 41.999995,-2.1311 l 34,0.0737 16,5.42614 16,5.42615 v 4.43693 c 0,4.09659 -0.35756,4.47086 -4.66132,4.8792 -2.56372,0.24326 -5.28733,0.96184 -6.05248,1.59686 -0.76516,0.63501 -4.06756,1.82952 -7.33869,2.65444 -23.08885,5.82261 -62.62136,6.99978 -86.614172,2.57914 -7.699999,-1.41872 -20.163239,-3.52094 -27.696088,-4.67161 -13.54063,-2.06836 -13.763146,-2.05863 -19.603703,0.85829 -3.249186,1.62272 -7.853646,4.9582 -10.232133,7.41218 -4.693408,4.84241 -7.871983,5.5899 -10.468075,2.46181 z M 40.390443,189 c 4.665691,-2.16682 4.559878,-4.4401 -0.32423,-6.96576 -5.225354,-2.70214 -7.553758,-2.56846 -12.908835,0.74117 -5.448534,3.36737 -5.607966,4.59431 -0.824045,6.34155 5.12643,1.87233 9.858446,1.83296 14.05711,-0.11694 z m 133.942887,-1.98307 c 3.85,-1.19383 7,-2.60232 7,-3.13 0,-5.96501 -66.97401,-6.47943 -88.666665,-0.68101 l -6.666666,1.78198 4,1.61798 c 10.301551,4.16689 71.262811,4.46402 84.333331,0.41105 z M 70.149368,129.32421 c -9.26237,-1.16674 -11.542632,-4.30832 -9.867398,-13.5946 2.54344,-14.099 12.574174,-28.86901 23.728845,-34.940143 18.151085,-9.879057 41.935205,-3.263578 54.514585,15.163061 4.46409,6.539132 9.28682,17.736902 10.25989,23.822182 1.46099,9.13649 1.16744,9.21073 -36.64088,9.26664 -18.336845,0.0271 -33.820775,0.28656 -34.408733,0.57655 -0.587956,0.28999 -4.001796,0.15783 -7.586309,-0.29369 z m 53.535492,-12.13 c 6.13613,0.0836 10.9828,-2.04823 10.9761,-4.82788 C 134.6464,106.33318 119.73252,90.32094 112.41781,88.485065 106.9385,87.109847 91.751749,89.264 87.383725,92.036008 83.580179,94.44979 80.3628,97.589433 76.187008,102.9622 c -2.486796,3.19963 -4.298464,11.9636 -2.837087,13.72445 0.804764,0.96969 8.559954,1.2808 23.591143,0.94642 12.315746,-0.27398 24.350456,-0.47146 26.743796,-0.43886 z M 76.063764,57.518468 C 74.998836,56.780156 71.301295,55.787376 67.847008,55.312291 62.576811,54.587454 61.31309,53.836747 59.991292,50.645647 57.979442,45.78861 59.195106,40.070415 64.29666,30.394213 75.033391,10.029679 89.348081,2.602912 111.33333,5.990585 c 10.22776,1.5759793 17.12171,5.78121 24.42789,14.900735 7.53286,9.402458 14.31039,25.318951 13.00166,30.533363 -0.46723,1.861555 -2.31056,3.896409 -4.17015,4.603428 -4.81533,1.830785 -66.115043,3.163923 -68.528966,1.490357 z M 130.33333,45.166017 c 4.47397,-1.640482 3.69231,-5.551308 -2.66667,-13.341715 -12.34332,-15.121866 -25.65023,-18.742534 -39.600895,-10.774981 -9.864181,5.633668 -17.830891,17.76099 -15.558215,23.68349 0.687716,1.79216 4.444986,2.035704 27.81046,1.802664 14.85843,-0.148194 28.36532,-0.76445 30.01532,-1.369458 z"
       id="path253" />
  </g>
</svg>
