<?xml version="1.0" encoding="UTF-8" standalone="no"?>
<!-- Created with Inkscape (http://www.inkscape.org/) -->

<svg
   version="1.1"
   id="svg215"
   width="108"
   height="205.33333"
   viewBox="0 0 108 205.33333"
   xmlns="http://www.w3.org/2000/svg"
   xmlns:svg="http://www.w3.org/2000/svg">
  <defs
     id="defs219" />
  <g
     id="g221">
    <path
       style="fill:#000000;stroke-width:1.33333"
       d="M 40.240917,197.66666 C 31.456605,185.31337 25.333333,175.34844 25.333333,173.40622 25.333333,170.52713 19.395744,165.17854 13,162.29636 8.5192483,160.27713 7.9963531,159.52165 7.964882,155.02157 7.9455673,152.2597 7.5868803,145.40252 7.1678,139.78337 6.2396087,127.33792 7.7308921,125.71431 17.160353,128.9041 c 7.094364,2.39988 11.415951,1.49078 14.37397,-3.02372 2.121772,-3.23824 2.086529,-3.71565 -0.6973,-9.4456 C 25.326989,105.09347 27.590603,104 56.578493,104 c 24.136386,0 26.726291,1.56679 21.553771,13.03916 l -2.534403,5.62116 4.319304,4.12776 c 3.261582,3.11695 5.025,3.89693 7.20107,3.18515 1.58497,-0.51844 5.07959,-1.23255 7.76582,-1.58691 6.893355,-0.90937 8.046915,1.84323 7.151755,17.06541 -0.39261,6.67627 -1.18036,12.97229 -1.75055,13.99117 -0.570188,1.01888 -3.885817,3.65935 -7.368063,5.86774 -3.482245,2.20837 -6.700898,5.0669 -7.152561,6.35229 -0.451664,1.28539 -3.055376,5.35788 -5.786029,9.04999 -2.730652,3.69209 -6.244883,9.22204 -7.809403,12.28874 -1.564519,3.06671 -4.003176,6.1959 -5.419237,6.95375 -1.416062,0.75785 -7.373244,1.37792 -13.238186,1.37792 -10.111972,0 -10.79839,-0.18965 -13.270864,-3.66667 z m 27.317834,-18.32514 c 3.057313,-5.86216 5.87884,-12.46216 6.27006,-14.66667 0.391218,-2.20451 1.092016,-5.85009 1.557325,-8.10131 1.534068,-7.42197 -1.498173,-14.69457 -8.288529,-19.8794 -5.375058,-4.10415 -7.087244,-4.6882 -13.622676,-4.6469 -4.111212,0.026 -8.774535,0.77599 -10.362942,1.66668 -3.970514,2.22641 -8.39089,8.11389 -9.811784,13.06825 -2.523258,8.79809 4.721215,28.95863 14.075878,39.17153 3.873445,4.22882 5.152566,4.82691 9.548265,4.46463 4.875553,-0.40184 5.294796,-0.83852 10.634403,-11.07681 z M 21.104237,148.59858 c -0.240664,-2.04945 -1.187254,-3.97244 -2.103536,-4.2733 -2.52108,-0.82782 -3.552578,3.40293 -1.778814,7.29592 1.970025,4.32373 4.51257,2.34422 3.88235,-3.02262 z m 41.19448,-30.45286 c 2.702196,-2.70219 -7.95538,-4.80623 -13.523001,-2.66974 -5.452476,2.09232 0.250533,4.6689 8.389488,3.79033 2.474195,-0.26709 4.784276,-0.77135 5.133513,-1.12059 z M 58.631868,95.696794 c -3.28086,-0.567485 -10.581676,-0.881417 -16.224035,-0.697626 -6.938028,0.225994 -10.812752,-0.217219 -11.970032,-1.369202 -2.458812,-2.447555 0.09619,-5.94813 5.69006,-7.795874 2.952439,-0.975237 4.980992,-2.730513 5.803959,-5.022077 1.077427,-3.000112 0.780661,-3.85832 -2,-5.783758 -1.795835,-1.243505 -4.748764,-3.933569 -6.562065,-5.977921 -1.813303,-2.044352 -4.513303,-3.750869 -6,-3.79226 -1.486699,-0.04139 -4.718058,-0.79139 -7.180799,-1.666666 -4.895928,-1.740048 -6.962506,-5.962492 -9.470534,-19.350249 -1.1939151,-6.373071 -1.0356848,-7.488403 1.560552,-11 1.73691,-2.349296 4.110934,-3.907828 5.952577,-3.907828 2.385557,0 3.93156,-1.696404 6.986946,-7.666667 11.338655,-22.15587037 41.303348,-21.86499216 52.58274,0.51044 1.207448,2.395268 3.540236,4.53716 5.468682,5.02117 5.535114,1.389225 7.842065,6.465899 7.834308,17.240174 -0.01024,14.226781 -3.387394,19.561549 -12.383351,19.561549 -4.222151,0 -5.960877,1.692197 -7.240932,7.04716 -0.534799,2.237269 -2.198228,4.212066 -4.183849,4.966998 -4.418395,1.679871 -4.23939,5.990771 0.370572,8.924307 2.016666,1.2833 4.107478,2.947132 4.646249,3.697404 1.286433,1.791439 1.301576,7.333674 0.02041,7.472453 -5.254913,0.569223 -8.614785,0.468308 -13.701465,-0.411527 z m -2.48874,-28.437476 c 3.979415,-2.057835 14.523539,-16.682043 14.523539,-20.143468 0,-1.291756 -1.762418,-1.737391 -6.20635,-1.569301 -5.019169,0.189848 -6.67697,-0.34644 -8.666666,-2.803611 -3.637396,-4.491993 -3.214882,-9.169416 0.92207,-10.207725 1.860312,-0.46691 5.160312,-0.49334 7.333334,-0.05873 5.561642,1.11233 5.254526,-2.473539 -0.819619,-9.569811 -4.530129,-5.292442 -5.141352,-5.573335 -12.127507,-5.573335 -8.33322,0 -13.831946,3.009883 -17.122048,9.372237 -2.506162,4.846385 -2.709034,10.208339 -0.313214,8.278319 0.916666,-0.738446 3.59994,-1.755912 5.962829,-2.261036 3.529637,-0.754543 4.897532,-0.317038 7.666667,2.452097 3.936734,3.936733 4.23306,6.438684 1.130096,9.541648 -1.715923,1.715923 -3.900882,2.102709 -9.333334,1.652208 -6.486926,-0.537947 -7.0925,-0.350996 -7.087941,2.188163 0.01078,6.003425 12.254031,20.776363 17.218665,20.776363 1.599828,0 4.713594,-0.933306 6.919479,-2.074014 z M 45.668867,61.72176 c -4.19321,-0.80194 -5.603088,-6.812189 -2.198812,-9.373444 2.459928,-1.850761 13.380858,-1.627893 16.561709,0.337982 1.883497,1.164064 1.600399,7.303992 -0.365097,7.91833 -3.38667,1.058543 -11.08968,1.673303 -13.9978,1.117132 z"
       id="path392" />
  </g>
</svg>
