<?xml version="1.0" encoding="UTF-8" standalone="no"?>
<!-- Created with Inkscape (http://www.inkscape.org/) -->

<svg
   version="1.1"
   id="svg205"
   width="348"
   height="253.33333"
   viewBox="0 0 348 253.33333"
   xmlns="http://www.w3.org/2000/svg"
   xmlns:svg="http://www.w3.org/2000/svg">
  <defs
     id="defs209" />
  <g
     id="g211">
    <path
       style="fill:#000000;stroke-width:1.33333"
       d="m 35.647108,245.37669 c -2.105544,-3.00608 -1.709408,-7.43545 0.8039,-8.98876 0.804352,-0.49712 6.581928,-1.04392 12.839059,-1.21512 6.257129,-0.17119 14.6766,-1.16757 18.709933,-2.21419 7.288471,-1.89128 7.367767,-1.96732 12.961917,-12.43077 3.095723,-5.79032 5.645723,-11.53181 5.666667,-12.75888 C 86.649531,206.54189 85.016667,203.57965 83,201.1862 80.983333,198.79274 76.828096,193.1967 73.766139,188.75056 70.704183,184.30442 62.904183,176.1234 56.432805,170.57053 36.396227,153.3778 24.896256,136.92629 25.120077,125.77549 c 0.11576,-5.76714 5.835171,-19.10882 8.191711,-19.10882 C 35.248428,106.66667 52,80.693868 52,77.691166 52,75.406119 50.793216,74.938306 43,74.202284 27.292539,72.718811 16.404193,73.18373 11.442612,75.549743 5.1792845,78.536515 2.0571139,76.2728 3.1501316,69.537322 4.2363365,62.843826 8.4636299,59.036515 15.952947,58.006471 c 5.216437,-0.717444 7.403656,-1.951804 12.20141,-6.885888 8.063346,-8.292465 16.616355,-12.453917 25.596467,-12.453917 9.368827,0 14.454131,2.693009 19.611424,10.385567 3.898629,5.815148 4.164604,6.92402 3.585381,14.947766 -0.48771,6.756079 -1.61642,10.329069 -5.119965,16.207533 -4.670017,7.835644 -18.098629,24.938138 -23.626372,30.090218 -1.860808,1.73435 -2.856445,3.80908 -2.399444,5 0.635237,1.6554 3.53478,2.03558 15.524967,2.03558 14.358236,0 25.895706,2.02518 42.310955,7.42688 10.23419,3.36772 35.20816,16.64563 44.86623,23.85401 11.87348,8.86191 23.63212,15.4743 29.96499,16.85063 6.44085,1.39979 27.19121,7.75091 28.01489,8.57457 0.35643,0.35644 0.81757,5.6891 1.02476,11.85034 0.42992,12.78497 -0.37869,13.8217 -8.81005,11.29561 -6.22607,-1.86539 -28.24426,1.50832 -36.14296,5.53795 -2.81383,1.4355 -6.25639,2.61001 -7.65012,2.61001 -2.06131,0 -2.69092,1.30592 -3.37487,7 -1.26679,10.54661 -1.03159,22.07236 0.46936,23 0.73333,0.45323 1.33333,2.2772 1.33333,4.05328 0,2.27632 -0.88528,3.41215 -3,3.84904 -8.06718,1.66664 -13.7366,2.15308 -30.33333,2.6026 -13.8208,0.37433 -18.70177,0.0521 -21.022553,-1.38755 -2.458268,-1.52501 -2.763716,-2.3587 -1.636108,-4.46566 2.247168,-4.19887 6.010161,-5.41739 20.390091,-6.60266 7.48105,-0.61662 15.28336,-1.77702 17.33848,-2.57866 3.51825,-1.37239 3.713,-1.8669 3.33333,-8.46396 L 138,215.33333 128,209.72861 c -19.86597,-11.13433 -24.87831,-12.67581 -23.6426,-7.27096 0.64488,2.82067 -1.95139,8.15828 -5.554228,11.41881 C 97.261428,215.27172 96,216.89337 96,217.48012 c 0,0.58674 -1.886293,5.01573 -4.191761,9.8422 -3.39858,7.11486 -3.929964,9.34996 -2.808231,11.8119 0.884664,1.94163 0.929919,3.84708 0.125507,5.28448 -1.378143,2.4626 -5.816699,3.03234 -7.125515,0.91463 -1.156528,-1.87131 -6.471545,-1.66203 -8.465489,0.33333 -1.105094,1.10588 -7.419704,1.82244 -18.766942,2.12962 -16.283232,0.4408 -17.19805,0.32504 -19.120461,-2.41959 z M 136,197.94672 c 0,-1.98856 1.92584,-2.60623 12.33333,-3.95563 10.74242,-1.39283 7.05664,-2.96017 -9.33333,-3.96895 -8.61667,-0.53033 -17.91667,-1.80228 -20.66667,-2.82653 -2.75,-1.02425 -7.55,-2.80363 -10.66666,-3.95416 -3.11667,-1.15052 -11.224843,-4.84235 -18.018167,-8.20405 -6.793324,-3.36171 -12.792692,-5.67099 -13.33193,-5.13175 -1.223877,1.22387 10.28964,11.32285 13.01676,11.41753 1.1,0.0381 3.5,1.24276 5.333334,2.67682 1.833333,1.43405 4.071973,2.6207 4.974754,2.63701 0.902779,0.0163 5.402779,1.77837 9.999999,3.91569 15.25267,7.09122 24.2131,10.6159 25.29221,9.94896 0.5865,-0.36246 1.06637,-1.5122 1.06637,-2.55494 z m 61.685,-14.8853 c -1.63992,-0.31648 -4.63992,-0.32468 -6.66667,-0.0181 -2.02674,0.30647 -0.685,0.56541 2.98167,0.57543 3.66667,0.009 5.32492,-0.24075 3.685,-0.55723 z m -40.54725,-3.91804 c 5.69362,-0.59509 8.19558,-1.42196 8.19558,-2.7085 0,-1.01855 -1.05,-2.23354 -2.33333,-2.69996 -1.28333,-0.46644 -5.74096,-3.4103 -9.90584,-6.5419 -4.16488,-3.13161 -9.56488,-6.7035 -12,-7.93754 -2.43512,-1.23404 -5.32749,-3.01682 -6.42749,-3.9617 -1.1,-0.94489 -4.7,-3.16374 -8,-4.93078 -3.3,-1.76704 -9.3,-5.28296 -13.33334,-7.81319 C 97.61276,132.6879 83.908561,129.46614 58.489355,129.65638 l -19.822688,0.14836 v 4.23742 c 0,3.50641 1.776829,6.01424 10.299782,14.53718 9.819819,9.81983 10.361675,10.16108 11.627967,7.32322 1.280248,-2.86915 13.304972,-9.2359 17.443601,-9.2359 1.492194,0 1.323459,-0.63852 -0.704684,-2.66666 -1.466666,-1.46667 -2.666666,-3.52624 -2.666666,-4.57682 0,-2.60556 4.646821,-3.88442 7.861981,-2.16372 1.446156,0.77396 3.926197,1.4072 5.511203,1.4072 3.90944,0 10.229153,4.69676 12.669499,9.41588 1.8533,3.5839 1.80215,4.07263 -0.68678,6.56155 -2.099151,2.09916 -4.444634,2.68924 -10.689237,2.68924 -4.4,0 -7.9959,0.45 -7.990889,1 0.01899,2.08424 9.625753,7.41663 20.269246,11.25077 6.08024,2.19031 13.45498,4.9346 16.38831,6.09843 8.8718,3.51997 24.96057,4.94267 39.13775,3.46085 z M 64,61.420133 C 64,54.24569 56.387753,45.745579 52.998204,49.135129 c -1.121527,1.121526 -1.128695,1.531537 -0.02678,1.531537 3.425903,0 5.777104,4.207727 4.916013,8.797733 -0.791276,4.217864 -0.606976,4.5356 2.630838,4.5356 C 63.072064,63.999999 64,63.312422 64,61.420133 Z M 42.666667,58.555555 c 0,-3.249393 -3.115698,-2.790093 -3.764432,0.554932 -0.255164,1.315686 0.425014,2.222846 1.666666,2.222846 1.236847,0 2.097766,-1.139995 2.097766,-2.777778 z M 284.35199,172.57666 c -4.57307,-1.00222 -9.97307,-2.6949 -12,-3.7615 -6.29704,-3.31362 -16.05786,-14.45978 -19.74935,-22.55236 -3.12896,-6.8594 -3.4768,-9.0566 -3.066,-19.36696 0.39816,-9.99324 1.08171,-12.8446 4.85752,-20.26281 5.43963,-10.687037 15.06732,-18.697255 26.44668,-22.003594 4.3042,-1.250612 8.96227,-2.686185 10.35125,-3.190165 4.67683,-1.696944 19.0902,0.994973 27.17243,5.074868 9.23753,4.663092 15.41917,11.234949 20.01935,21.283051 4.3011,9.39485 5.06681,16.90386 2.92357,28.67041 -2.72243,14.94633 -7.30107,22.47848 -17.97411,29.56848 -12.88082,8.55661 -22.45354,10.1628 -38.98134,6.54058 z m 15.31468,-8.08372 c 3.78268,-1.01372 3.72626,-2.8209 -0.23946,-7.6703 -3.0791,-3.76522 -3.1738,-3.78751 -4.61872,-1.08766 -1.98901,3.71652 -1.87136,9.60268 0.19151,9.58015 0.91667,-0.0107 3.01667,-0.38 4.66667,-0.82219 z M 286.5862,148.68757 c 2.6192,-7.99435 4.30885,-11.06739 6.78417,-12.33868 2.98632,-1.53372 3.57132,-1.34761 6.22088,1.97909 1.60851,2.01962 5.86206,6.89475 9.4523,10.83366 5.86298,6.43234 6.82109,7.00462 9.40874,5.61974 1.58458,-0.84802 3.85202,-3.02377 5.03876,-4.83497 1.73788,-2.65233 1.83583,-3.68095 0.50342,-5.28643 -0.90988,-1.09632 -2.15078,-1.99332 -2.75755,-1.99332 -0.60679,0 -3.77033,-1.8 -7.03011,-4 -3.25978,-2.2 -6.90869,-4 -8.10869,-4 -1.2,0 -2.52769,-0.90134 -2.95043,-2.00298 -1.09377,-2.8503 0.59632,-8.65082 2.54438,-8.7325 2.98958,-0.12536 18.73565,-8.559 20.08356,-10.7568 2.55246,-4.16188 -8.52932,-17.592731 -12.494,-15.142421 -0.82628,0.510664 -2.63135,3.562381 -4.01126,6.781591 -1.37992,3.21921 -3.00089,5.85312 -3.60218,5.85312 -0.60128,0 -2.18062,1.84079 -3.50966,4.09066 -3.1111,5.26668 -7.36696,6.97914 -10.49186,4.22167 -1.28334,-1.13243 -2.33334,-2.75965 -2.33334,-3.61603 0,-3.39421 -8.09008,-18.029638 -9.96629,-18.029638 -2.70405,0 -14.03371,11.025728 -14.03371,13.657238 0,1.33534 4.20552,4.14993 11.41443,7.63924 10.44613,5.05622 11.37928,5.8248 11,9.06006 -0.42516,3.62676 -5.85093,8.24061 -16.14605,13.72997 -7.64252,4.07498 -7.66566,6.07942 -0.14706,12.74014 9.16996,8.12367 10.87962,7.50536 15.13155,-5.47241 z m -20.32908,-15.59513 c 2.79192,-1.59916 5.32253,-3.09548 5.6236,-3.32516 0.30105,-0.22968 -0.54193,-1.62128 -1.87332,-3.09244 C 268.50329,125.01282 265.89792,124 263.12668,124 c -4.28215,0 -4.46001,0.20384 -4.46001,5.11111 0,4.40201 0.7747,6.88889 2.14601,6.88889 0.20252,0 2.65252,-1.3084 5.44444,-2.90756 z m 64.40955,-3.23699 c 0,-4.58042 -0.17554,-4.76715 -3.65922,-3.8928 -7.29038,1.82977 -8.38724,5.01944 -2.53768,7.3796 5.19702,2.09688 6.1969,1.53427 6.1969,-3.4868 z M 299.9576,95.573931 c 0.0355,-3.141098 -0.44876,-3.689327 -2.94397,-3.333334 -3.57899,0.510615 -4.57344,4.265856 -2.26964,8.570553 1.55381,2.90333 1.79894,2.9624 3.42245,0.82475 0.96181,-1.26641 1.76783,-3.994299 1.79116,-6.061969 z M 161.40344,37.666666 c -0.76371,-2.75 -1.39192,-5.680866 -1.396,-6.513036 -0.0111,-2.24909 -10.2044,-2.89739 -48.67411,-3.095688 C 92.266667,27.959661 75.681449,27.586546 74.477295,27.228798 71.557197,26.361254 70.466163,21.724313 72.664811,19.525665 74.426316,17.76416 110.8322,16 145.42179,16 h 14.32516 l 1.7932,-5.666667 c 1.48013,-4.6773711 2.37512,-5.6666664 5.12652,-5.6666664 2.63392,0 3.64917,0.9791809 4.8386,4.6666666 2.07597,6.4360148 5.4242,6.8420008 6.55858,0.7952538 1.59412,-8.4973926 8.70182,-7.893221 11.50976,0.978359 l 1.75972,5.55972 L 228,16.896538 c 20.16667,0.126427 39.22953,0.27643 42.36192,0.333334 4.64665,0.08441 5.96073,0.686137 7.13717,3.268137 1.04668,2.297209 1.02599,3.941864 -0.0755,6 -1.28718,2.405052 -2.72436,2.835324 -9.47054,2.835324 C 263.53992,29.333333 260,29.9268 260,30.666666 260,31.4 259.1,32 258,32 c -1.1,0 -2,-0.6 -2,-1.333334 0,-2.109393 -51.59695,-1.781484 -52.45029,0.333334 -0.53802,1.333333 -0.69356,1.333333 -0.77778,0 -0.0672,-1.064432 -2.22176,-1.666667 -5.96261,-1.666667 -6.21089,0 -7.47599,1.264244 -7.47599,7.470968 0,2.165434 -1.10113,3.754578 -3.29385,4.753646 -4.10528,1.870491 -6.82699,-0.03751 -8.05972,-5.650078 -1.11491,-5.076148 -4.40013,-5.012307 -6.18936,0.12028 -1.32337,3.796225 -4.59448,6.638517 -7.64007,6.638517 -0.74708,0 -1.98317,-2.25 -2.74689,-5 z"
       id="path531" />
  </g>
</svg>
