<?xml version="1.0" encoding="UTF-8" standalone="no"?>
<!-- Created with Inkscape (http://www.inkscape.org/) -->

<svg
   version="1.1"
   id="svg195"
   width="81.333336"
   height="221.33333"
   viewBox="0 0 81.333336 221.33333"
   xmlns="http://www.w3.org/2000/svg"
   xmlns:svg="http://www.w3.org/2000/svg">
  <defs
     id="defs199" />
  <g
     id="g201">
    <path
       style="fill:#000000;stroke-width:1.33333"
       d="m 33.757248,214.53176 c -2.451726,-0.70946 -6.711215,-4.04955 -10.090279,-7.91234 -4.313471,-4.93094 -6.998242,-6.83022 -10.233841,-7.23972 -5.2342609,-0.66242 -4.9024696,-0.35582 -6.01625,-5.55946 -0.7448278,-3.47987 -0.3243834,-4.62832 2.5109125,-6.85856 4.1732525,-3.28268 4.3439645,-5.3055 0.4953015,-5.86895 -3.1838926,-0.46613 -5.521191,-6.23728 -3.7117828,-9.16496 0.5847532,-0.94616 2.9593395,-2.36696 5.2768588,-3.15736 2.637722,-0.8996 5.261266,-3.28956 7.014663,-6.39013 2.784599,-4.92407 2.785959,-4.98119 0.232414,-9.76092 -2.538131,-4.7509 -2.537899,-4.83047 0.0196,-6.71363 1.42349,-1.04815 3.97349,-1.90573 5.666662,-1.90573 4.410201,0 4.081554,-5.86991 -0.921506,-16.4589 -2.2,-4.65631 -4,-9.63791 -4,-11.07023 0,-1.43231 -0.54259,-3.17421 -1.205755,-3.87087 -1.995968,-2.0968 -9.4609124,-47.71667 -9.4609124,-57.817659 0,-9.533711 4.3000544,-27.671579 8.4736934,-35.742507 C 21.794301,11.3293 33.354001,5.3788295 40.742956,7.2333388 46.171252,8.5957545 52.042864,14.818352 56.784295,24.233574 67.61994,45.75029 66.106628,81.581955 52.235888,131.92914 c -1.504522,5.46103 -2.437673,10.41103 -2.073668,11 0.364004,0.58898 2.05295,1.07086 3.753211,1.07086 4.825028,0 6.747212,3.18129 4.784786,7.91901 -1.45808,3.52011 -1.265239,4.39217 1.884401,8.52156 1.929789,2.53009 5.88771,6.17451 8.795379,8.09871 2.907669,1.92421 5.286672,4.57536 5.286672,5.89146 0,2.86603 -2.568711,6.35111 -5.333333,7.23596 -1.417255,0.45362 -0.739842,1.37243 2.324902,3.15338 3.378252,1.96314 4.32675,3.40338 4.333334,6.57992 0.0104,5.03217 -2.092734,7.26666 -6.83959,7.26666 -2.841737,0 -4.283544,1.13076 -6.523439,5.11612 -2.044589,3.63786 -4.967192,6.14202 -10.114852,8.66667 -7.540366,3.69813 -11.610867,4.15004 -18.756443,2.08231 z m 14.729608,-11.96187 c 1.932231,-1.51989 3.513146,-3.31989 3.513146,-4 0,-0.68011 -4.843995,-1.23656 -10.764433,-1.23656 -9.463079,0 -10.711033,0.27728 -10.322727,2.29359 0.259058,1.34518 2.642682,2.95682 5.764433,3.89753 7.344273,2.21311 7.832732,2.17363 11.809581,-0.95456 z m 1.846479,-18.37235 c 2.637288,-0.12026 4.333333,-0.89764 4.333333,-1.98625 0,-1.37513 -3.236985,-1.81547 -14,-1.90445 -10.44135,-0.0863 -14,0.31186 -14,1.56648 0,3.36942 0.234346,3.39244 23.666667,2.32422 z m -2.333333,-19.38822 c 0,-4.15723 -10.184195,-4.74259 -14.852289,-0.85368 l -3.147712,2.6223 9,0.0444 c 6.825125,0.0336 9.000001,-0.40448 9.000001,-1.81298 z M 41.785241,124 C 49.044582,98.983869 51.341552,52.423609 46.230344,33.896454 41.343725,16.18339 32.864777,14.09125 27.047918,29.163285 c -1.990792,5.158332 -2.359975,10.10538 -2.251499,30.170047 0.13208,24.431813 2.198127,38.67178 7.737999,53.333328 1.108362,2.93334 2.041538,6.46373 2.073726,7.84531 0.09912,4.25461 3.118268,12.96772 4.110999,11.86416 0.515936,-0.57354 1.89568,-4.3428 3.066098,-8.37613 z"
       id="path670" />
  </g>
</svg>
