<?xml version="1.0" encoding="UTF-8" standalone="no"?>
<!-- Created with Inkscape (http://www.inkscape.org/) -->

<svg
   version="1.1"
   id="svg255"
   width="148"
   height="205.33333"
   viewBox="0 0 148 205.33333"
   xmlns="http://www.w3.org/2000/svg"
   xmlns:svg="http://www.w3.org/2000/svg">
  <defs
     id="defs259" />
  <g
     id="g261">
    <path
       style="fill:#000000;stroke-width:1.33333"
       d="m 34,200.38321 c -10.266667,-0.20085 -19.913803,-0.65487 -21.438081,-1.00891 -5.1939645,-1.20637 -6.1701494,-6.44093 -6.0828471,-32.61778 0.074227,-22.25612 0.3198613,-24.81471 2.6013449,-27.0962 2.3042592,-2.30426 5.2972802,-2.5599 35.0528142,-2.99392 17.89339,-0.26102 44.262581,-0.89563 58.598199,-1.41027 22.82419,-0.81937 26.59391,-0.66208 30.32078,1.26516 7.88699,4.07852 8.33582,5.868 8.09336,32.26872 -0.21405,23.30836 -1.07276,29.05176 -4.54269,30.38329 -2.76485,1.06099 -41.062649,1.23502 -43.552124,0.19792 -3.868736,-1.61169 -4.442593,-6.22613 -1.109896,-8.92478 2.504119,-2.02771 5.331555,-2.3509 18.84014,-2.15352 10.33005,0.15093 16.42112,-0.29504 17.40007,-1.27399 1.91516,-1.91516 0.90482,-37.13304 -1.12347,-39.16133 -1.86597,-1.86598 -105.047185,-1.08499 -106.892325,0.80906 -1.90541,1.95592 -2.526714,37.49096 -0.687792,39.33779 0.893778,0.89763 8.765542,1.66651 19.925145,1.9462 15.839937,0.39699 18.693839,0.79901 20.189184,2.84401 0.957836,1.30992 1.741521,3.0707 1.741521,3.91282 0,1.53522 -5.970184,4.88233 -7.729404,4.33338 C 53.088435,200.88001 44.266667,200.58406 34,200.38321 Z M 41.751312,55.71743 c -4.255457,-0.895164 -5.695963,-1.872495 -6.061473,-4.112491 -0.624442,-3.826813 2.692068,-15.659225 5.170581,-18.44724 1.063763,-1.196598 2.517379,-4.288045 3.230257,-6.869881 C 45.637928,20.68414 54.424895,11.525446 61.931579,7.6921695 68.569335,4.3026103 83.063841,3.0441945 89.812716,5.2715239 95.116723,7.022004 106.53978,14.367116 112.32415,19.746538 c 4.67506,4.347786 8.80876,12.286673 11.23087,21.569207 2.28004,8.738101 1.53086,12.798682 -2.54341,13.785266 -1.65639,0.401093 -18.52793,0.773027 -37.492319,0.826519 C 64.5549,55.981023 48.6549,56.219831 48.185957,56.458216 47.717013,56.696602 44.821424,56.363243 41.751312,55.71743 Z M 100.68858,43.392073 c 6.32445,-1.605842 6.62821,-1.894283 6.99236,-6.639658 0.43028,-5.60711 -2.68091,-10.133039 -12.130579,-17.646662 -5.088244,-4.045765 -6.327444,-4.413376 -14.883694,-4.415264 -7.780003,-0.0017 -10.36583,0.606365 -15.537186,3.653725 -7.717398,4.547683 -12.38781,10.09892 -14.304208,17.001937 -2.28125,8.217246 -2.124078,8.47324 5.50806,8.971262 16.578802,1.081817 38.229104,0.630148 44.355247,-0.92534 z"
       id="path2002" />
  </g>
</svg>
