<?xml version="1.0" encoding="UTF-8" standalone="no"?>
<!-- Created with Inkscape (http://www.inkscape.org/) -->

<svg
   version="1.1"
   id="svg185"
   width="165.33333"
   height="216"
   viewBox="0 0 165.33333 216"
   xmlns="http://www.w3.org/2000/svg"
   xmlns:svg="http://www.w3.org/2000/svg">
  <defs
     id="defs189" />
  <g
     id="g191">
    <path
       style="fill:#000000;stroke-width:1.33333"
       d="m 124.7434,207.12827 c -2.89113,-1.04183 -7.89283,-4.1219 -11.11488,-6.84459 -3.22205,-2.72269 -6.96553,-5.58521 -8.31884,-6.36115 -3.20485,-1.83756 -16.094106,-18.58988 -18.91896,-24.5892 -1.208547,-2.56666 -3.771054,-10.66666 -5.694459,-18 C 78.772854,144 76.244894,135.08272 75.078572,131.51715 c -1.594932,-4.87587 -1.930275,-9.42038 -1.352829,-18.33334 0.478781,-7.39006 0.274792,-11.85048 -0.541962,-11.85048 -0.720346,0 -4.108952,2.75963 -7.530233,6.13252 -6.699939,6.60515 -34.004898,21.22206 -46.669083,24.98292 -6.203954,1.84238 -7.164641,1.84724 -8.966445,0.0454 -2.7394625,-2.73946 -2.5282115,-6.97444 0.604163,-12.11176 3.483522,-5.71322 8.633791,-21.295002 11.28907,-34.154298 C 24.500914,73.686643 25.181439,42.688397 23.013945,36 19.678633,25.707979 17.333333,16.903859 17.333333,14.675315 c 0,-5.2110147 5.605463,-5.7240835 64.126803,-5.8695365 C 143.458,8.6516848 140.75434,8.2539513 139.42741,17.333333 139.0523,19.9 137.83948,26.8 136.73226,32.666667 c -2.58984,13.722348 -2.60585,32.066585 -0.0388,44.371565 2.17436,10.422439 11.60394,29.812378 18.15966,37.341498 5.15353,5.91875 4.91706,8.92232 -0.94516,12.00508 -3.23514,1.70125 -14.42634,0.27711 -22.57468,-2.87275 -2.93334,-1.13392 -6.89961,-2.08801 -8.81394,-2.1202 -1.91433,-0.0322 -5.51433,-1.41127 -8,-3.06463 -8.7215,-5.80119 -27.526319,-16.9939 -28.551316,-16.9939 -1.298108,0 0.308965,27.66304 1.907901,32.84127 0.649663,2.10397 2.227397,7.4254 3.506076,11.8254 3.11211,10.70893 5.113484,14.4256 13.278439,24.65887 5.59971,7.0182 8.81117,9.62016 16.7981,13.60998 5.43113,2.71311 13.26208,5.88687 17.40211,7.0528 6.06468,1.70798 7.83388,2.86 9.10504,5.92886 1.29064,3.11589 1.18847,4.56174 -0.56156,7.9459 -2.03272,3.93086 -2.51945,4.12918 -9.77171,3.98151 -4.19784,-0.0855 -9.99789,-1.00783 -12.88902,-2.04965 z M 38.951785,109.30403 c 10.495921,-3.96149 26.005187,-14.664443 33.145242,-22.873541 3.714021,-4.270102 7.507605,-7.763822 8.430186,-7.763822 0.92258,0 6.450169,4.65 12.283529,10.333333 8.420868,8.204297 13.265808,11.63823 23.515018,16.66667 C 130.1806,112.46409 136,113.62752 136,109.6 c 0,-1.32 -0.5264,-2.97 -1.16978,-3.66667 -1.83921,-1.99157 -6.87952,-16.441185 -8.92191,-25.577465 C 123.30438,68.707653 123.0027,49.551579 125.19188,34.863948 127.2465,21.079105 126.64403,19.422824 120,20.590617 c -7.99889,1.40593 -71.586134,2.133803 -75.78939,0.86755 -2.450831,-0.738327 -6.200831,-0.993456 -8.333333,-0.566956 -3.29421,0.658842 -3.874314,1.402042 -3.85757,4.942122 0.0108,2.291667 0.934751,8.049018 2.053136,12.794112 2.415603,10.248947 3.005122,41.219136 0.914427,48.039222 -0.786811,2.566666 -2.680823,8.645429 -4.208917,13.508363 -3.484627,11.0893 -3.580543,13.7775 -0.44502,12.47241 1.283333,-0.53416 5.161636,-2.03869 8.618452,-3.34341 z"
       id="path809" />
  </g>
</svg>
