<?xml version="1.0" encoding="UTF-8" standalone="no"?>
<!-- Created with Inkscape (http://www.inkscape.org/) -->

<svg
   version="1.1"
   id="svg175"
   width="152"
   height="208"
   viewBox="0 0 152 208"
   xmlns="http://www.w3.org/2000/svg"
   xmlns:svg="http://www.w3.org/2000/svg">
  <defs
     id="defs179" />
  <g
     id="g181">
    <path
       style="fill:#000000;stroke-width:1.33333"
       d="M 102.28331,200.12355 C 96.380059,199.60809 92.794176,198.63792 91.970399,197.33333 89.949171,194.1324 90.46988,189.52817 93,188.22937 c 2.197335,-1.12796 23.10299,-3.09369 36.33333,-3.41637 l 6,-0.14633 v -33.46222 c 0,-25.35779 -0.41644,-33.96388 -1.71944,-35.53353 -1.89705,-2.28529 -7.09701,-2.27255 -68.592495,0.16804 -17.404899,0.69075 -32.847764,0.94145 -34.317479,0.55711 -4.651145,-1.2163 -11.911244,0.87713 -13.529708,3.90126 -2.019041,3.77261 -1.650389,63.91766 0.39954,65.18459 0.77724,0.48036 8.691108,0.94123 17.586373,1.02413 20.354178,0.18974 24.028207,1.09706 24.610783,6.0778 0.240663,2.05755 -0.206796,4.38538 -0.994355,5.17294 -0.899005,0.899 -10.175616,1.49169 -24.925785,1.59254 -20.402627,0.13948 -23.8671571,-0.14166 -26.3309567,-2.13672 -2.7841856,-2.2545 -2.8372437,-3.0754 -2.8451173,-44.01865 -0.00687,-35.73874 0.2888783,-42.088 2.0625141,-44.27857 1.9191442,-2.37029 4.3564089,-2.58229 33.3333329,-2.89938 17.194538,-0.18816 46.937944,-0.81186 66.096453,-1.38601 l 34.83366,-1.04391 2.23652,3.41336 c 1.93332,2.95061 2.31868,8.95318 2.84258,44.27674 0.3997,26.95017 0.1328,41.74756 -0.78376,43.46025 -1.10168,2.05851 -2.83132,2.60169 -8.3429,2.62004 -3.8242,0.0133 -11.15287,0.91273 -16.28592,2 -5.13306,1.08727 -9.33306,1.88245 -9.33334,1.76707 -2.7e-4,-0.11534 -4.073,-0.56539 -9.05052,-1 z M 62.123212,95.365131 C 57.790977,93.584099 52.255599,90.710397 49.822368,88.979128 45.693861,86.041653 37.412021,75.361527 37.357596,72.904761 c -0.01334,-0.60238 -0.924263,-1.995237 -2.024263,-3.095237 -2.555937,-2.555937 -2.813638,-20.760125 -0.330985,-23.380952 0.917957,-0.969048 3.324024,-4.308208 5.346813,-7.420356 2.022791,-3.112148 6.071735,-7.169675 8.997654,-9.016727 2.925918,-1.84705 5.319852,-3.83607 5.319852,-4.420042 0,-1.717367 -2.949072,-4.814664 -9,-9.452351 C 39.573964,11.449389 38.629156,8.8229305 42.333333,6.8527991 43.616667,6.1702359 57.716928,5.5621077 73.667247,5.5014035 111.75072,5.3564639 115.05579,6.7429527 103.12216,17.857843 c -6.574608,6.123542 -7.122621,9.69434 -1.70521,11.111024 4.22714,1.105424 12.87317,15.446034 13.92549,23.097337 1.71084,12.439316 -1.48691,22.293072 -10.70263,32.979784 -5.95439,6.904807 -12.134183,10.232431 -22.593655,12.165969 -10.44902,1.931607 -10.814612,1.897716 -19.922943,-1.846826 z M 88.204364,85.184549 C 95.011773,81.773893 100.83154,74.1879 104.04205,64.540319 l 2.73424,-8.216406 -3.20808,-7.161957 C 99.770852,40.684439 95.790384,36.710509 88.607457,34.225781 c -6.485261,-2.243389 -7.140728,-4.830506 -2.699193,-10.65366 6.192612,-8.118933 4.43872,-9.232254 -12.634983,-8.020329 -12.167053,0.863643 -14.32239,2.144437 -9.852032,5.854505 1.148354,0.953048 2.971363,3.441215 4.051132,5.52926 1.910151,3.693824 1.847759,3.858632 -2.308184,6.097111 -11.107336,5.982641 -19.731913,17.280959 -19.801581,25.940351 -0.07557,9.393325 8.196315,21.850053 17.304051,26.058362 10.132166,4.681656 16.423865,4.719392 25.537697,0.153168 z"
       id="path948" />
  </g>
</svg>
