<?xml version="1.0" encoding="UTF-8" standalone="no"?>
<!-- Created with Inkscape (http://www.inkscape.org/) -->

<svg
   version="1.1"
   id="svg165"
   width="226.66667"
   height="200"
   viewBox="0 0 226.66667 200"
   xmlns="http://www.w3.org/2000/svg"
   xmlns:svg="http://www.w3.org/2000/svg">
  <defs
     id="defs169" />
  <g
     id="g171">
    <path
       style="fill:#000000;stroke-width:1.33333"
       d="m 131.49725,193.16273 c -3.40765,-4.8651 -2.68407,-6.1951 5.66271,-10.40854 5.18696,-2.61838 8.1038,-4.98571 8.64846,-7.0192 1.51181,-5.64434 0.88174,-16.68071 -1.97615,-34.61492 -4.82445,-30.27502 -4.88424,-28.43154 1.04116,-32.10532 4.96855,-3.08054 7.90333,-4.31051 17.8632,-7.48648 16.23584,-5.177238 30.655,-4.103098 46.97085,3.49904 11.06271,5.15451 12.84603,7.53908 10.9666,14.66399 -0.52838,2.00312 -1.45302,11.14203 -2.05474,20.3087 -1.29538,19.7336 -2.39692,25.00812 -7.16776,34.32117 -4.17148,8.14306 -13.44428,15.86492 -20.60087,17.15526 -2.66789,0.48101 -5.75224,1.33725 -6.85412,1.90274 -1.10188,0.56551 -12.87812,1.44327 -26.16943,1.95058 l -24.166,0.9224 z m 48.46166,-11.13254 c 8.01991,-1.02967 9.09659,-1.58454 15.33333,-7.90214 6.79102,-6.87905 7.53671,-8.6249 11.44456,-26.79472 0.63088,-2.93333 1.1732,-9.73964 1.20514,-15.12511 l 0.0581,-9.79179 -7,0.93913 c -3.85,0.51651 -9.4,1.81689 -12.33333,2.88971 -2.93333,1.07283 -5.93333,1.98137 -6.66667,2.01898 -1.13148,0.058 -16.35642,-2.77956 -27.16837,-5.06359 -2.88984,-0.61048 -3.08773,-0.34104 -2.25104,3.06501 0.50452,2.05388 1.42399,6.43433 2.04324,9.73433 0.61927,3.3 2.14555,9.6 3.39173,14 2.21943,7.83621 2.2162,23.67479 -0.007,30.77291 -0.80946,2.58529 -0.38807,2.7591 6.22792,2.56881 3.90286,-0.11227 10.97762,-0.70244 15.72169,-1.31153 z m 10.42092,-67.56863 7.04648,-1.57338 -4.56261,-1.56856 c -3.60167,-1.23819 -23.69363,-0.8417 -31.19703,0.61564 -0.18333,0.0356 -0.33333,0.62301 -0.33333,1.30534 0,2.66218 19.01266,3.46138 29.04649,1.22096 z M 5.0860731,186.20465 C 2.8432156,182.01384 4.5720449,171.87613 9.2256827,161.93033 13.706328,152.35425 24.291987,140 28.016544,140 c 1.164235,0 2.866522,-0.75 3.78286,-1.66667 1.125492,-1.12589 6.299747,-1.66666 15.947157,-1.66666 h 14.281085 l 10.652844,8 c 9.710302,7.29217 11.154221,8.99998 16.319511,19.30206 6.315512,12.59619 7.413536,20.33588 3.2046,22.58844 -1.41393,0.75671 -20.186333,1.51419 -44.096302,1.77931 -40.127537,0.44495 -41.684466,0.3678 -43.0222259,-2.13183 z m 57.2473749,-9.67037 c 7.346057,-0.51668 11.89274,-1.50901 13.687264,-2.98732 l 2.687149,-2.21363 -2.862611,-5.73945 c -10.636932,-21.32673 -35.470777,-24.84667 -52.021704,-7.37352 -3.034618,3.20369 -5.179842,7.01541 -5.744847,10.20765 -0.495949,2.80208 -1.178633,5.8163 -1.517076,6.69827 -0.710705,1.85207 27.235615,2.71173 45.771825,1.408 z M 207.86946,62.091669 C 207.5532,61.77542 171.0032,61.439085 126.64723,61.344259 82.291252,61.249432 38.664914,60.827776 29.699807,60.407244 15.185598,59.726417 13.310821,59.362884 12.589236,57.089369 c -1.117362,-3.520493 2.818494,-9.085361 6.441502,-9.107576 6.578174,-0.04033 8.497568,-1.468326 10.880426,-8.094836 3.842287,-10.685038 0.453572,-18.790444 -8.907598,-21.305926 -3.118628,-0.83802 -6.078367,-2.17925 -6.577199,-2.98051 -1.20128,-1.929585 0.906135,-5.7072227 3.869927,-6.9370234 C 19.599999,8.122536 56.299658,7.4004695 99.851093,7.0589053 178.51406,6.4419692 179.0603,6.4561937 182.79711,9.2189397 c 4.91995,3.6374793 7.55592,3.5088733 11.31967,-0.552273 3.03469,-3.274488 7.94012,-4.1918695 17.88322,-3.3444044 6.10363,0.5202209 7.77876,8.6798367 2.07579,10.1111927 -1.79167,0.449677 -3.77787,0.496024 -4.41381,0.102986 -0.63594,-0.39303 -3.67739,-0.07467 -6.75879,0.707475 -5.96657,1.514479 -7.93797,4.794256 -6.48001,10.780712 2.67321,10.976425 3.68222,13.582353 6.36456,16.437572 1.65574,1.762453 3.54588,3.20446 4.20032,3.20446 0.65442,0 3.24984,1.571213 5.76757,3.491585 4.73196,3.60924 5.921,7.965123 2.97771,10.908415 -1.54074,1.540728 -6.6785,2.210399 -7.86388,1.025003 z M 184.71974,39.53486 C 184.22352,34.290687 183.38608,27.9 182.85875,25.333333 l -0.9588,-4.666666 -9.94997,-0.883564 C 162.07599,18.906287 125.42703,18.477459 71.000001,18.601891 l -28.333334,0.06478 v 3.066666 c 0,1.686667 0.66,3.726667 1.466667,4.533334 0.808704,0.808704 1.466667,6.00109 1.466667,11.574368 V 47.94874 l 28.866667,0.412507 c 15.876667,0.226878 47.381602,0.4791 70.010962,0.560492 l 41.14431,0.147985 z m -20.92238,1.764812 C 162.51087,40.548616 140.75084,39.909375 111.48108,39.762783 83.918585,39.624741 60.821612,39.171644 60.154473,38.755899 58.936072,37.996621 58.227186,34.465697 58.513129,30.580449 58.649384,28.729072 63.431989,28.522475 101,28.745125 c 71.40352,0.42318 68.02028,0.275154 70.84478,3.099652 3.24188,3.24187 2.30396,8.956983 -1.64376,10.016112 -3.66122,0.98226 -3.77723,0.972092 -6.40366,-0.561217 z"
       id="path1087" />
  </g>
</svg>
