<?xml version="1.0" encoding="UTF-8" standalone="no"?>
<!-- Created with Inkscape (http://www.inkscape.org/) -->

<svg
   version="1.1"
   id="svg75"
   width="104"
   height="220"
   viewBox="0 0 104 220"
   xmlns="http://www.w3.org/2000/svg"
   xmlns:svg="http://www.w3.org/2000/svg">
  <defs
     id="defs79" />
  <g
     id="g81">
    <path
       style="fill:#000000;stroke-width:1.33333"
       d="m 6.5401725,212.2912 c -1.9535617,-1.36556 -2.1716612,-2.30785 -1.0857836,-4.69109 1.4382643,-3.15666 8.9575661,-8.93344 11.6281181,-8.93344 2.738977,0 1.731876,-5.9169 -2.285871,-13.4299 -4.661693,-8.71714 -7.1781596,-19.58808 -6.5748245,-28.40269 0.4284105,-6.25901 0.6807477,-6.62252 6.8261415,-9.83336 l 6.381287,-3.33411 7.344455,2.81056 c 4.03945,1.54582 9.324506,4.32083 11.744568,6.1667 2.420062,1.84588 4.711924,3.35613 5.093026,3.35613 0.381103,0 1.07969,-2.82184 1.552418,-6.27076 0.874314,-6.37883 1.348816,-8.11389 6.178156,-22.59122 1.940054,-5.81586 2.479769,-9.78388 1.858886,-13.66667 -1.04801,-6.5539 -3.320366,-7.00501 -7.411577,-1.47135 -3.088465,4.17737 -7.380635,5.28273 -8.561713,2.20489 -0.378867,-0.98731 0.231233,-4.43731 1.355776,-7.66667 1.124542,-3.22935 2.072437,-7.671553 2.106432,-9.871553 0.034,-2.2 0.942726,-5.164678 2.019404,-6.588174 1.076678,-1.423494 1.957596,-4.593729 1.957596,-7.044966 0,-3.689004 0.812436,-4.936143 4.715952,-7.239274 5.924636,-3.495621 8.916688,-10.292477 8.420174,-19.127586 -0.765814,-13.627143 1.665416,-30.261378 5.554015,-38 5.406948,-10.7602623 7.845815,-12.5155685 16.881528,-12.1500097 9.216505,0.3728731 14.209717,2.7938032 16.332535,7.9187357 2.672519,6.452027 0.545528,13.178555 -6.21571,19.656958 l -5.939429,5.690974 -0.46952,11.108338 C 85.687977,57.001248 85.444437,62.338872 85.405013,62.753051 85.300449,63.851567 76.247457,68 73.954764,68 c -3.743711,0 -1.91888,3.9892 3.34484,7.312041 6.602853,4.168198 8.480548,7.016335 12.825057,19.453383 2.627091,7.520586 3.741838,14.205226 4.636276,27.801666 C 96.029893,141.85665 95.537461,144 89.83674,144 c -2.818073,0 -3.170073,0.60193 -3.170073,5.42099 0,2.98154 0.590117,6.52364 1.31137,7.8713 1.736423,3.24454 1.977827,11.17043 0.83376,27.37438 -1.127869,15.97454 -2.81033,22.24081 -7.037889,26.2124 -3.103504,2.91558 -3.85084,2.97556 -37.977465,3.04752 -26.245648,0.0553 -35.4132029,-0.34707 -37.2562705,-1.63539 z M 73.72378,201.56421 c 5.046173,-4.19182 5.472283,-31.15066 0.844072,-53.40222 -1.726343,-8.29992 -1.694739,-8.56476 1.312653,-11 1.694872,-1.37243 3.874683,-2.49532 4.844023,-2.49532 2.884601,0 3.580715,-4.95374 1.355167,-9.64374 -1.573688,-3.3163 -1.767576,-5.46216 -0.798756,-8.84024 0.936657,-3.26594 0.72224,-6.47737 -0.800434,-11.98847 -1.143892,-4.14015 -2.38003,-8.825883 -2.746974,-10.412731 -1.00146,-4.330812 -9.238743,-12.738974 -11.965607,-12.213828 -2.684429,0.516974 -8.114111,8.024536 -9.342095,12.917214 -0.647253,2.578861 -0.02467,3.95269 2.818707,6.219915 2.007197,1.60049 4.793716,4.64665 6.192264,6.76926 3.371904,5.11761 3.217744,5.99422 -6.775167,38.52595 -0.675782,2.2 -1.636413,10.40261 -2.134733,18.22804 -0.498321,7.82543 -1.356332,14.95663 -1.906691,15.84713 -1.94633,3.14923 -7.641533,0.2436 -9.285376,-4.73729 -1.813252,-5.49421 -9.418036,-15.00924 -14.700598,-18.39324 -5.122564,-3.28151 -10.257811,-1.82448 -12.869054,3.65135 -1.991341,4.17589 -1.887608,4.53765 5.558464,19.38469 5.621651,11.20925 7.400034,16.06759 6.863496,18.75028 -0.398298,1.99149 -0.378536,3.96653 0.04392,4.38899 0.422452,0.42245 9.901954,0.64328 21.065559,0.49074 14.560961,-0.19897 20.899363,-0.77734 22.427163,-2.04648 z M 74.676785,55.666667 c 0.0056,-0.916667 0.589766,-6.766667 1.298223,-13 1.256701,-11.057054 1.42436,-11.450242 6.877584,-16.129067 6.077545,-5.214488 6.412761,-9.204267 0.773332,-9.204267 -6.911041,0 -10.840664,9.759174 -12.48244,31 -0.588337,7.611723 -0.370259,9 1.413771,9 1.160176,0 2.113965,-0.75 2.11953,-1.666666 z"
       id="path1226" />
  </g>
</svg>
