<?xml version="1.0" encoding="UTF-8" standalone="no"?>
<!-- Created with Inkscape (http://www.inkscape.org/) -->

<svg
   version="1.1"
   id="svg223"
   width="214.66667"
   height="217.33333"
   viewBox="0 0 214.66667 217.33333"
   xmlns="http://www.w3.org/2000/svg"
   xmlns:svg="http://www.w3.org/2000/svg">
  <defs
     id="defs227" />
  <g
     id="g229">
    <path
       style="fill:#000000;stroke-width:1.33333"
       d="m 194.0591,213.50605 c -3.27755,-0.70285 -4.13915,-1.74239 -5.1185,-6.17557 -1.63924,-7.42022 -0.32909,-55.49038 1.61119,-59.11582 1.09413,-2.04441 2.78708,-2.8754 5.82845,-2.86092 8.06782,0.0384 7.9309,-0.50325 8.61527,34.08388 0.5822,29.42335 0.45392,31.8466 -1.77211,33.47431 -2.55936,1.87144 -3.05733,1.90373 -9.1643,0.59412 z M 27.614571,205.33333 c -15.553369,-0.52584 -19.9850983,-1.08915 -20.979583,-2.66667 -3.6656004,-5.81462 1.9621104,-24.40394 10.388491,-34.31501 7.674712,-9.02696 13.156657,-12.38088 19.775335,-12.09879 2.860652,0.12187 9.190712,-0.26174 14.066799,-0.85261 8.213827,-0.99532 9.194071,-0.83239 13.333333,2.21629 2.457247,1.80983 6.327602,4.02195 8.600787,4.91583 7.052418,2.77321 14.766242,11.92365 18.659198,22.13429 3.218466,8.44155 5.553824,18.95686 4.347784,19.57658 -1.635468,0.84038 -51.840078,1.64293 -68.192144,1.09009 z m 50.766017,-12.48985 c 4.282677,-2.64684 -0.901349,-14.56771 -8.612736,-19.80532 -13.428375,-9.1206 -17.384789,-10.17035 -28.177425,-7.47623 -6.742048,1.68297 -19.773948,10.61505 -20.756036,14.2262 -1.909203,7.02015 -2.238295,12.67755 -0.789537,13.57292 2.052621,1.26859 56.223319,0.78796 58.335734,-0.51757 z m 18.28608,-46.23015 c -4.4,-0.562 -11,-1.73421 -14.666667,-2.60493 -3.666666,-0.87071 -10.566667,-2.04515 -15.333333,-2.60986 C 55.985001,140.13309 46.257975,136.423 36.284071,129.81 19.823195,118.89594 12.900217,109.93124 9.3742685,94.963975 5.2055095,77.268049 17.324855,57.331082 33.559833,55.177436 41.543618,54.11835 46.127402,50.611205 53.265011,40.100609 c 2.816687,-4.147755 6.084341,-8.340668 7.261453,-9.317584 1.177112,-0.976916 2.140204,-3.202744 2.140204,-4.946285 0,-3.794591 -1.878276,-3.941535 -20.745055,-1.622944 -9.599578,1.179717 -13.40329,1.176233 -16.017045,-0.01467 -7.601208,-3.463341 -0.47331,-8.677738 14.296101,-10.45828 5.44036,-0.655867 6.290165,-1.195011 6.930556,-4.3969623 0.850837,-4.2541842 4.418418,-5.3438798 17.495459,-5.3438798 9.20347,0 13.037464,2.4559272 12.394007,7.9391851 -0.8704,7.417164 9.921897,6.917225 13.064974,-0.605218 2.573676,-6.1596729 5.313778,-7.3339671 17.113105,-7.3339671 10.7002,0 12.80123,1.2986334 12.80123,7.9123441 0,1.885836 0.85996,2.754322 2.72728,2.754322 2.46065,0 5.36245,-2.39999 10.32529,-8.5397285 2.34011,-2.8950459 18.48215,-2.9711345 22.57214,-0.1063973 3.14907,2.2056886 5.26527,11.5853438 3.86899,17.1485428 -0.44218,1.761782 -4.25915,7.097292 -8.48216,11.856688 -13.24799,14.930676 -16.34487,18.691655 -16.34487,19.849872 0,1.081564 12.55996,1.902925 20.49964,1.340579 2.10813,-0.149314 5.40813,-1.373496 7.33333,-2.720405 5.99787,-4.196231 10.7526,-5.143071 16.7276,-3.331068 2.9917,0.907268 6.99546,1.9792 8.89727,2.382072 5.22601,1.107054 10.18612,6.887814 15.48708,18.04943 4.23877,8.925077 4.77272,11.229176 4.69473,20.25885 -0.0909,10.522555 -1.19026,13.814665 -8.10604,24.273185 -6.17745,9.34201 -30.34806,23.53837 -40.07621,23.53837 -3.32657,0 -8.27791,1.38434 -12.37244,3.45919 -4.47028,2.26527 -8.05797,3.21288 -10.39471,2.74553 -1.96257,-0.39252 -5.92075,0.12454 -8.79595,1.14895 -5.60859,1.99836 -18.94941,2.2464 -31.894302,0.593 z m 16.666672,-12.03432 c 0,-0.78155 -0.64185,-2.62028 -1.42632,-4.08609 -1.13901,-2.12825 -1.81047,-2.34629 -3.33334,-1.08242 C 105.35645,132.08057 106.20482,136 110,136 c 1.83334,0 3.33334,-0.63944 3.33334,-1.42099 z m -17.353756,-7.72672 c -0.05617,-2.34491 -2.621812,-4.48031 -4.511683,-3.75509 -2.182384,0.83745 -3.007564,7.58536 -1.154229,9.43869 0.928017,0.92801 5.709399,-3.86829 5.665912,-5.6836 z m -29.568472,2.38104 C 66.148334,128.445 65.363334,127.8 64.666668,127.8 c -0.696667,0 -1.481667,0.645 -1.744444,1.43333 -0.262779,0.78833 0.522221,1.43333 1.744444,1.43333 1.222222,0 2.007222,-0.645 1.744444,-1.43333 z m 74.655558,-1.5 c 2.11687,-2.11686 1.96187,-6.47725 -0.33813,-9.51223 -1.76419,-2.32796 -1.96158,-2.28034 -4.10458,0.99028 -3.89836,5.94966 -0.15858,13.12325 4.44271,8.52195 z m -62.445326,-1.67872 c 2.247672,-2.70828 0.481813,-10.33725 -2.267341,-9.7955 -3.140057,0.61878 -4.849406,4.25219 -3.858271,8.20119 0.980377,3.90613 3.633813,4.59674 6.125612,1.59431 z m 80.045326,-1.38795 c 0,-2.07407 -0.75556,-3.33333 -2,-3.33333 -1.24444,0 -2,1.25926 -2,3.33333 0,2.07408 0.75556,3.33334 2,3.33334 1.24444,0 2,-1.25926 2,-3.33334 z M 49.333334,124 c 0,-2.56222 -2.607488,-3.61474 -4.432876,-1.78935 -1.009376,1.00938 1.514337,4.45601 3.262803,4.45601 0.64354,0 1.170073,-1.2 1.170073,-2.66666 z m 74.345406,-1.34474 c 0.18996,-1.82706 -0.21431,-4.18335 -0.89838,-5.23619 -1.03073,-1.58637 -1.60378,-1.6155 -3.3454,-0.17008 -2.14989,1.78425 -2.84538,6.89614 -1.16664,8.57488 1.90535,1.90535 5.07591,0.0485 5.41042,-3.16861 z m -62.696283,-2.9886 c 0.719937,-0.91666 1.678404,-3.61666 2.129927,-6 0.676277,-3.56968 0.403881,-4.33333 -1.545716,-4.33333 -3.376298,0 -5.566667,2.64069 -5.566667,6.71111 0,5.17532 2.395129,6.91656 4.982456,3.62222 z m 44.350873,-0.89095 c 0,-1.40668 0.3642,-3.50668 0.80932,-4.66666 0.58019,-1.51193 0.0139,-2.10905 -2,-2.10905 -2.32176,0 -2.80932,0.8099 -2.80932,4.66666 0,3.25926 0.60318,4.66667 2,4.66667 1.1,0 2,-1.15093 2,-2.55762 z m 63.75941,-6.54682 c 0.28294,-1.92294 -0.27688,-2.89556 -1.66667,-2.89556 -1.36136,0 -2.09273,1.20377 -2.09273,3.44445 0,4.17695 3.13129,3.71978 3.7594,-0.54889 z M 89.333335,112 c 0,-1.77778 -0.88889,-2.66667 -2.666667,-2.66667 -2.936169,0 -3.031271,0.16509 -1.857348,3.22429 1.159411,3.02137 4.524015,2.60666 4.524015,-0.55762 z m 64.000005,-2.14265 c 0,-2.31823 -0.74062,-3.19068 -2.70851,-3.19068 -3.31435,0 -4.82431,3.34979 -2.67651,5.93772 2.21922,2.67399 5.38502,1.05902 5.38502,-2.74704 z M 47.174969,109.14306 c 0.67654,-1.92373 0.849745,-4.48881 0.3849,-5.70018 -0.7855,-2.04698 -1.082222,-2.04717 -4.202522,-0.003 -3.19262,2.09189 -4.499205,6.97349 -2.422365,9.05033 1.821823,1.82182 5.026673,0.10256 6.239987,-3.34748 z M 133.33334,110 c 0,-1.1 -0.6,-2 -1.33334,-2 -0.73333,0 -1.33333,0.9 -1.33333,2 0,1.1 0.6,2 1.33333,2 0.73334,0 1.33334,-0.9 1.33334,-2 z m -60.430536,-2.80123 c 0.45051,-1.17402 -0.01832,-2.66483 -1.041847,-3.31292 -2.828195,-1.7908 -3.860956,-1.46306 -3.860956,1.22526 0,4.3698 3.461464,5.84372 4.902803,2.08766 z M 30.666667,99.836738 c 0,-1.376873 -0.859568,-2.503406 -1.910149,-2.503406 -2.174187,0 -4.03687,4.595018 -2.723878,6.719478 1.245836,2.01581 4.634027,-1.0668 4.634027,-4.216072 z m 148.000003,0.08457 c 0,-1.423391 -0.6,-2.58798 -1.33333,-2.58798 -0.73334,0 -1.33334,1.53541 -1.33334,3.412022 0,1.93516 0.57712,3.05535 1.33334,2.58798 0.73333,-0.45322 1.33333,-1.98863 1.33333,-3.412025 z M 58.000001,98.666665 c 0,-1.079913 -1.05,-2.165692 -2.333333,-2.412838 -1.637132,-0.315283 -2.333334,0.40464 -2.333334,2.412838 0,2.008195 0.696202,2.728125 2.333334,2.412835 1.283333,-0.24714 2.333333,-1.332922 2.333333,-2.412835 z M 112,100.54528 c 0,-1.765594 -9.28803,-11.468637 -14.785792,-15.446447 -3.23448,-2.340254 -6.525281,-4.894868 -7.312892,-5.676921 -0.787609,-0.782052 -4.687609,-2.843331 -8.666667,-4.58062 -3.979056,-1.737288 -8.734648,-3.910701 -10.567981,-4.829805 -5.698115,-2.856632 -16.742214,-5.115604 -20.454707,-4.183828 -5.353754,1.343707 -4.76235,7.060361 1.557236,15.052609 4.931448,6.236701 6.545344,7.219404 24.117855,14.685384 2.504545,1.064099 9.337763,2.480357 15.184927,3.14724 5.847165,0.666882 10.947991,1.529298 11.335171,1.916478 0.96832,0.96832 9.59285,0.89272 9.59285,-0.0841 z m 52,-0.545282 c 0,-0.733333 -0.6,-1.333333 -1.33333,-1.333333 -0.73333,0 -1.33333,0.6 -1.33333,1.333333 0,0.733332 0.6,1.333332 1.33333,1.333332 0.73333,0 1.33333,-0.6 1.33333,-1.333332 z m -19.00416,-4.461789 c 2.93539,-2.86939 -11.73598,-16.389908 -24.35588,-22.445358 -11.92701,-5.722983 -28.659796,-8.618423 -28.619541,-4.952325 0.03175,2.89183 1.607802,4.741766 7.342063,8.617966 2.917298,1.972015 8.462448,6.658087 12.322558,10.413495 10.45882,10.175158 14.0545,11.820807 23.6483,10.823218 4.4,-0.457524 8.74813,-1.563172 9.6625,-2.456996 z m -101.243507,-5.291745 0.419,-5.086867 -3.419,2.240214 c -4.534424,2.971069 -4.835948,8.986896 -0.418999,8.359589 2.420743,-0.3438 3.080903,-1.408271 3.418999,-5.512936 z M 189.33334,89.999999 c 0,-1.013442 -0.6,-2.213442 -1.33334,-2.666667 -0.7592,-0.469212 -1.33333,0.679051 -1.33333,2.666667 0,1.987616 0.57413,3.135878 1.33333,2.666666 0.73334,-0.453225 1.33334,-1.653225 1.33334,-2.666666 z M 27.190918,86.317925 c 1.658686,-2.629565 0.380124,-4.283604 -2.466747,-3.191157 -2.380299,0.913405 -2.856239,6.695031 -0.486095,5.904983 0.864276,-0.288092 2.193054,-1.509314 2.952842,-2.713826 z m 134.855992,0.86206 c 6.79619,-4.453025 2.65321,-12.684299 -9.33681,-18.550477 -8.68294,-4.248162 -23.37676,-6.163473 -23.37676,-3.047113 0,2.247824 4.21665,6.332072 10,9.686001 2.2,1.275844 6.4,4.923819 9.33333,8.106613 5.83752,6.333964 8.40585,7.064327 13.38024,3.804976 z M 38.666667,76.555555 c 0,-3.229297 -0.540168,-4.597924 -1.666666,-4.222845 -3.132834,1.043108 -2.875128,9.000622 0.291486,9.000622 0.75635,0 1.37518,-2.15 1.37518,-4.777777 z M 182.66667,73.333332 c 0,-4.19651 -2.19995,-5.434341 -3.52435,-1.98302 -0.66102,1.722607 1.49014,5.98302 3.02094,5.98302 0.27688,0 0.50341,-1.8 0.50341,-4 z M 82.301481,58.119415 c 1.300854,-2.500988 5.027706,-7.625068 8.281895,-11.386845 8.23728,-9.522127 13.880584,-19.611142 11.736674,-20.982664 -1.71446,-1.096794 -22.531202,-0.75876 -26.675742,0.433176 -1.295632,0.372614 -3.52787,2.883852 -4.960528,5.580531 -1.432659,2.69668 -5.922598,8.422104 -9.97764,12.723165 -4.055043,4.301061 -7.370557,8.501061 -7.367809,9.333333 0.0072,2.191245 16.588947,8.113796 24.296484,8.678064 1.365317,0.09996 3.263557,-1.681176 4.666666,-4.37876 z m 38.224539,-1.896621 c 1.77438,-2.810795 4.94881,-6.560795 7.05429,-8.333333 4.04035,-3.401451 17.75303,-20.89586 17.75303,-22.649029 0,-3.365191 -23.45815,-2.775795 -28.79888,0.723584 -1.69242,1.108917 -4.7367,4.870661 -6.76507,8.359431 -2.02836,3.488771 -6.25626,9.516567 -9.39533,13.395104 -3.139065,3.878536 -5.707392,7.558589 -5.707392,8.177896 0,1.365091 11.413202,4.225417 20.983272,5.258735 0.90747,0.09799 3.10171,-2.121592 4.87608,-4.932388 z"
       id="path251" />
  </g>
</svg>
