<?xml version="1.0" encoding="UTF-8" standalone="no"?>
<!-- Created with Inkscape (http://www.inkscape.org/) -->

<svg
   version="1.1"
   id="svg213"
   width="209.33333"
   height="144"
   viewBox="0 0 209.33333 144"
   xmlns="http://www.w3.org/2000/svg"
   xmlns:svg="http://www.w3.org/2000/svg">
  <defs
     id="defs217" />
  <g
     id="g219">
    <path
       style="fill:#000000;stroke-width:1.33333"
       d="m 86.666665,136.6558 c -5.5,-1.04793 -12.4,-2.87445 -15.333333,-4.05895 C 56.182686,126.47897 38.589035,117.02332 32.666666,111.81558 29,108.59136 23.096016,103.62945 19.546702,100.78911 7.812272,91.39864 4.0928231,85.748101 8.0401551,83.308516 9.541679,82.380523 199.62429,81.485091 202.33333,82.393248 203.25,82.700545 204,84.273099 204,85.887812 c 0,1.614713 -0.75,3.90594 -1.66667,5.091616 -4.02231,5.202717 -27.54655,25.522672 -33,28.505012 -3.3,1.80468 -7.92192,4.49779 -10.27095,5.98469 -2.34902,1.48691 -10.20846,4.74264 -17.46545,7.23495 -11.23139,3.85728 -15.55535,4.63009 -29.06238,5.19427 -10.78353,0.45041 -19.072063,0.0523 -25.867885,-1.24255 z m 44.042765,-12.05751 c 4.00981,-1.13761 9.39057,-2.54029 11.95723,-3.11707 7.22248,-1.62303 21.41508,-9.27975 27.44832,-14.808 2.99659,-2.74575 7.04659,-6.0395 9,-7.319433 1.95343,-1.279931 3.55168,-3.431166 3.55168,-4.780523 0,-2.351788 -2.96754,-2.453583 -71.66666,-2.45838 -39.416668,-0.0028 -72.866667,-0.136696 -74.333334,-0.297652 -6.431556,-0.70582 -12.871021,0.236369 -12.3476,1.806636 0.761307,2.283917 14.602407,12.004782 25.680933,18.036202 8.801779,4.7919 13.652817,6.95787 24.666666,11.01353 10.972646,4.0405 44.523605,5.19274 56.042765,1.92469 z M 33.179289,39 C 31.353497,36.983333 28.159641,32.783333 26.081832,29.666667 24.004022,26.55 21.635598,24.032276 20.818665,24.071725 c -0.816932,0.03945 -3.230315,3.63945 -5.363072,8 C 12.363955,38.392767 10.944903,40 8.4555929,40 5.8956435,40 5.3333332,39.300127 5.3333332,36.113917 c 0,-5.096249 7.6846558,-25.131906 10.8554848,-28.302735 4.876011,-4.8760108 7.223615,-3.3250415 15.986847,10.561878 2.906064,4.605183 5.792914,8.058381 6.415221,7.673775 0.622308,-0.384608 3.05782,-4.452484 5.412251,-9.039727 7.260068,-14.1451193 9.476962,-14.7382727 15.673355,-4.193572 2.011262,3.422661 5.092367,7.978052 6.8469,10.123091 l 3.19006,3.900069 3.096171,-5.085015 c 1.702893,-2.796758 4.13741,-7.053712 5.410037,-9.459898 4.840953,-9.1529086 12.078443,-6.2670269 18.90629,7.538708 1.948642,3.940102 4.14247,7.240102 4.87518,7.333333 0.73271,0.09323 3.1322,-3.511488 5.3322,-8.010485 5.05334,-10.334069 6.90476,-12.4866723 10.73959,-12.4866723 2.36529,0 4.56994,2.299714 9.50341,9.9131823 3.53302,5.45225 7.07111,9.95225 7.86241,10 0.79132,0.04775 2.77816,-2.763182 4.4152,-6.246516 1.63706,-3.483333 4.6344,-8.357156 6.6608,-10.8307181 4.80398,-5.8640846 8.3926,-4.8536122 12.77084,3.5959601 1.77684,3.429117 4.62392,7.929833 6.32687,10.00159 l 3.09627,3.766834 5.18293,-10.075052 c 8.28748,-16.10993024 11.64356,-15.3362251 21.77501,5.019976 8.78864,17.658218 9.08036,22.096978 1.32432,20.150334 -2.22305,-0.557949 -4.46521,-3.464866 -7.72798,-10.019177 -2.52799,-5.078251 -5.26398,-9.242911 -6.07996,-9.254799 -0.816,-0.01187 -3.40294,3.877043 -5.74875,8.64207 -5.98421,12.15565 -8.19705,13.010577 -14.89983,5.756505 C 159.61053,33.922419 156.27574,29.383333 155.12385,27 c -1.85344,-3.834845 -5.79052,-6.070671 -5.79052,-3.288371 0,1.108976 -8.24892,14.499112 -10.62771,17.251519 -2.4735,2.861996 -7.28765,-0.680648 -13.25133,-9.751415 -3.08993,-4.699786 -6.03121,-8.540966 -6.53618,-8.535956 C 117.73852,22.687483 112,31.085057 112,32.799539 c 0,0.715656 -1.71989,3.361338 -3.82197,5.879296 -3.42158,4.098497 -4.16435,4.422105 -7.09018,3.089008 -1.797514,-0.819002 -5.906365,-5.40766 -9.130778,-10.197016 -3.224413,-4.789358 -6.345243,-8.409615 -6.935176,-8.045016 -0.589933,0.3646 -2.629596,3.770445 -4.532585,7.568548 C 73.545565,44.953117 69.69799,46.08036 62.607314,36.333333 60.073291,32.85 57.33569,28.8 56.523755,27.333333 53.558331,21.976636 50.989037,23.426429 46.043398,33.247153 40.716053,43.825849 38.461278,44.834188 33.179289,39 Z"
       id="path390" />
  </g>
</svg>
