<?xml version="1.0" encoding="UTF-8" standalone="no"?>
<!-- Created with Inkscape (http://www.inkscape.org/) -->

<svg
   version="1.1"
   id="svg203"
   width="237.33333"
   height="254.66667"
   viewBox="0 0 237.33333 254.66667"
   xmlns="http://www.w3.org/2000/svg"
   xmlns:svg="http://www.w3.org/2000/svg">
  <defs
     id="defs207" />
  <g
     id="g209">
    <path
       style="fill:#000000;stroke-width:1.33333"
       d="m 32.204214,248.20422 c -2.371542,-2.37155 -2.592681,-3.35599 -1.36107,-6.05908 2.564558,-5.62859 8.866651,-7.97388 19.198334,-7.14456 11.861228,0.9521 22.866705,-1.80282 26.905413,-6.73504 5.205729,-6.35746 9.731509,-17.20686 8.903908,-21.34487 C 84.816565,201.7495 67.471528,181.32608 56.193653,172 44.333789,162.19266 29.348981,144.72715 26.450828,137.33334 c -1.72685,-4.40557 -1.671804,-16.47291 0.09016,-19.76517 0.768972,-1.43684 4.146798,-5.82747 7.506279,-9.75697 5.866718,-6.86214 19.286068,-27.824424 19.286068,-30.126648 0,-1.433659 -22.232491,-4.391598 -32.83674,-4.36879 -5.648185,0.01215 -8.686639,0.639995 -9.843572,2.034014 -1.2728897,1.533738 -2.1099167,1.654246 -3.4965927,0.503406 -2.5684426,-2.131617 -2.2570945,-6.458354 0.8289577,-11.519848 2.314,-3.795236 3.348184,-4.334424 8.32835,-4.342119 6.653458,-0.01027 12.163349,-3.21105 15.788142,-9.171545 1.397228,-2.297557 4.495899,-5.414248 6.885935,-6.92598 3.747893,-2.370596 5.768188,-2.649595 14.690153,-2.028677 11.935321,0.830629 14.37884,1.841737 16.993428,7.031749 1.044546,2.073448 2.970797,5.362528 4.280557,7.309065 1.30976,1.946539 2.381381,5.31355 2.381381,7.482247 0,5.863563 -7.157741,20.55874 -13.923146,28.584869 -3.273251,3.883216 -7.989935,9.460387 -10.481521,12.393727 -2.491587,2.93333 -5.582856,6.97422 -6.869487,8.97974 -2.315127,3.60869 -2.303127,3.66018 1.159988,4.97685 1.924624,0.73174 6.937657,0.97866 11.140075,0.5487 7.632517,-0.7809 13.318557,0.004 29.640758,4.08923 24.071249,6.02538 34.306869,10.72795 55.527849,25.51127 4.50699,3.13973 11.10699,7.25572 14.66667,9.14664 3.55968,1.89092 7.37214,3.96026 8.47214,4.59856 5.7799,3.35386 18.73216,8.13957 24,8.8677 3.3,0.45615 8.25,1.40416 11,2.10672 4.53727,1.15916 5,1.69366 5,5.77546 0,4.24054 -0.3189,4.55194 -5.57002,5.43912 l -5.57003,0.94105 5.21905,1.79423 c 12.54263,4.31194 11.2678,13.6804 -1.55169,11.40306 -8.72661,-1.55025 -25.76829,0.86988 -39.19397,5.56603 -1.1,0.38477 -3.55875,1.03823 -5.4639,1.45212 -3.3508,0.72797 -3.49048,1.15727 -4.27813,13.14823 -0.58173,8.856 -0.29513,13.90569 1.00365,17.6836 2.56242,7.45358 0.75727,10.54004 -5.56448,9.51416 -2.78618,-0.45214 -6.13865,-0.0385 -8.20426,1.01225 -2.26568,1.15253 -7.87237,1.71252 -15.95793,1.59387 -11.45033,-0.16806 -12.67681,-0.44446 -15.0664,-3.39547 -1.46682,-1.81147 -2.42701,-4.71149 -2.20162,-6.64949 0.37682,-3.2399 0.9349,-3.48226 9.73307,-4.2268 8.33005,-0.70494 14.57845,-2.27422 20.66666,-5.19043 3.01255,-1.44299 3.38779,-11.6796 0.54334,-14.82268 C 133.95052,213.13868 132.15785,212 131.22629,212 c -0.93156,0 -7.16153,-2.72121 -13.84439,-6.04714 -6.68285,-3.32594 -12.72768,-5.69052 -13.43294,-5.25464 -0.70526,0.43586 -1.28229,2.17336 -1.28229,3.86108 0,1.68772 -1.59573,5.4023 -3.546061,8.25464 -1.95033,2.85233 -5.26767,8.96113 -7.371866,13.5751 -3.248062,7.12219 -3.691635,9.40052 -2.937303,15.08695 l 0.888508,6.69791 -7.990024,-0.90396 c -4.851117,-0.54886 -9.022296,-0.35152 -10.617652,0.50229 -1.445196,0.77344 -10.149113,1.82416 -19.342041,2.33492 -15.907102,0.88381 -16.851179,0.79191 -19.546017,-1.90293 z M 134.66666,200.71358 c 0,-2.94035 3.91142,-4.44042 11.33334,-4.34646 8.67106,0.10974 19.56296,-1.58356 18.74094,-2.9136 -0.3542,-0.57312 -9.27154,-1.39158 -19.81633,-1.81884 -11.74711,-0.47596 -21.96447,-1.62097 -26.3818,-2.95648 -6.1291,-1.85302 -24.409967,-9.69206 -37.542811,-16.09877 -3.072557,-1.49891 -3.666667,-1.49711 -3.666667,0.0107 0,2.94357 8.158343,9.14593 17.377945,13.21156 4.74213,2.09162 14.622053,6.70662 21.955393,10.25601 14.1013,6.82513 17.99999,7.83359 17.99999,4.65591 z m 27.09991,-19.81604 c 2.80496,-0.86031 5.20496,-2.1642 5.33333,-2.89754 0.1284,-0.73333 -3.7646,-3.43496 -8.65106,-6.0036 -4.88647,-2.56865 -12.01724,-7.21865 -15.84616,-10.33333 C 138.77376,158.54838 134.61477,156 133.36048,156 c -1.25428,0 -3.34124,-1.17208 -4.63767,-2.60462 -3.46458,-3.82832 -19.32288,-13.11202 -27.56354,-16.13614 -8.027422,-2.94585 -25.069856,-6.4748 -31.159271,-6.45208 -10.925874,0.0408 -28.297212,-2.028 -30.630008,-3.64773 -3.915445,-2.71861 -4.703325,-2.27913 -4.703325,2.62352 0,6.41935 8.367351,17.38261 21.379872,28.01281 5.97242,4.879 11.405212,8.87091 12.07287,8.87091 1.769511,0 1.488319,-1.7942 -0.743672,-4.74516 -2.608941,-3.44933 -2.521132,-5.03488 0.484396,-8.74655 1.950815,-2.40916 4.306304,-3.28981 10.333334,-3.86336 l 7.806533,-0.74289 -5,-2.21632 c -5.041253,-2.2346 -5.626172,-3.16917 -4.24164,-6.77721 0.956249,-2.49195 6.99504,-1.01571 15.663165,3.829 6.504876,3.63565 8.654386,8.0941 6.154419,12.76534 -1.354555,2.531 -2.24573,2.70039 -9.896948,1.881 -4.959079,-0.53106 -8.732015,-0.37676 -9.197349,0.37618 -0.765288,1.23825 7.237363,8.23534 9.42939,8.24454 1.313315,0.005 19.988704,7.5544 22.195404,8.97174 9.01304,5.78893 38.83336,8.88196 50.66013,5.25456 z M 62.980968,61.189675 C 62.570363,54.365354 58.035138,49.333334 52.295166,49.333334 h -3.556131 l 4.29715,3.924839 c 4.341925,3.965737 5.431306,7.216834 2.935154,8.759541 -1.608048,0.993828 4.033179,6.101056 6.02866,5.457986 0.733333,-0.236326 1.174769,-3.065036 0.980969,-6.286025 z m -20.334719,1.810326 c -0.04607,-2.256418 -2.447911,-4.613292 -3.830512,-3.758798 -2.466987,1.524682 -1.662154,4.758798 1.184262,4.758798 1.466667,0 2.657479,-0.45 2.64625,-1 z M 220.7208,142.20446 c -2.23774,-1.63627 -2.46732,-4.20026 -2.58818,-28.9049 -0.13972,-28.56015 0.0336,-29.447987 6.12584,-31.381591 3.82586,-1.214281 8.21608,3.834089 6.90012,7.934532 -0.49673,1.547792 -1.01958,13.674149 -1.16189,26.947469 -0.14229,13.27331 -0.68517,24.82331 -1.2064,25.66666 -1.27357,2.06071 -5.06107,1.93765 -8.06949,-0.26217 z M 93.229043,36.80487 C 91.758537,30.964966 91.727341,30.940507 84.876512,30.256522 81.09443,29.878918 62.399999,29.489558 43.333333,29.391276 24.266666,29.292995 7.6814488,28.91988 6.4772939,28.562132 3.5571968,27.694588 2.4661632,23.057647 4.664811,20.858999 6.4263163,19.097494 42.832195,17.333334 77.421791,17.333334 h 14.32516 l 1.79319,-5.666667 c 1.480134,-4.6773716 2.37513,-5.6666669 5.126524,-5.6666669 2.633915,0 3.649175,0.9791809 4.838595,4.6666669 2.07598,6.436015 5.42421,6.842001 6.55859,0.795254 1.59412,-8.4973932 8.70181,-7.8932216 11.50977,0.978359 L 123.33333,18 l 41.90151,0.174166 c 38.78473,0.161209 42.0328,0.353725 43.66666,2.588172 2.20879,3.020697 2.22331,4.768105 0.0641,7.720928 -1.54943,2.11897 -5.50022,2.349617 -44.33334,2.588173 L 122,31.333334 l -0.42299,4.402769 c -0.29948,3.117212 -1.35858,4.82905 -3.62718,5.862696 -4.00765,1.826004 -6.74899,-0.131426 -7.97007,-5.690929 -1.11491,-5.076148 -4.40014,-5.012307 -6.18937,0.12028 -1.33053,3.816772 -4.59647,6.638517 -7.683538,6.638517 -0.770985,0 -2.066,-2.637809 -2.877809,-5.861797 z"
       id="path529" />
  </g>
</svg>
