<?xml version="1.0" encoding="UTF-8" standalone="no"?>
<!-- Created with Inkscape (http://www.inkscape.org/) -->

<svg
   version="1.1"
   id="svg193"
   width="209.33333"
   height="153.33333"
   viewBox="0 0 209.33333 153.33333"
   xmlns="http://www.w3.org/2000/svg"
   xmlns:svg="http://www.w3.org/2000/svg">
  <defs
     id="defs197" />
  <g
     id="g199">
    <path
       style="fill:#000000;stroke-width:1.33333"
       d="M 81.333332,146.2991 C 65.203351,145.21114 55.874402,142.46332 35.999999,132.9462 25.629741,127.98027 14.292785,117.05842 8.7388063,106.68318 5.5828027,100.78754 4.7123635,97.276861 4.2573999,88.608673 3.7551578,79.039712 4.0740049,77.09864 7.1428763,71.042513 c 1.8975612,-3.744656 5.1166887,-7.930854 7.1536167,-9.302662 5.740488,-3.866042 13.463465,-7.073186 17.032612,-7.073186 2.165366,0 5.463866,-2.319763 9.953382,-6.999999 3.693114,-3.85 6.715372,-7.448272 6.716132,-7.996159 7.59e-4,-0.547888 2.16725,-3.393518 4.814424,-6.323624 2.647175,-2.930105 4.500084,-6.143028 4.117576,-7.139826 -1.069897,-2.78811 -12.46481,-3.749409 -23.826822,-2.010083 -9.076131,1.389397 -10.639776,1.310273 -13.697329,-0.693112 -6.884898,-4.511158 0.0027,-9.239494 16.124803,-11.069706 5.521428,-0.626803 7.146394,-1.397741 8.304748,-3.9400526 1.655778,-3.6340358 3.892304,-3.9892364 7.575807,-1.2031748 3.126828,2.3650133 10.126237,2.6376735 12.285338,0.4785722 2.311894,-2.3118927 7.993176,0.6763582 8.533562,4.4884962 0.717617,5.062423 5.723007,4.687804 10.914593,-0.816882 l 4.474958,-4.7448373 11.133651,0.4788048 c 9.580532,0.4120127 11.396672,0.8749395 13.019152,3.3185275 2.36519,3.562152 4.99432,3.569599 13.11638,0.03715 3.54413,-1.5414161 10.8679,-3.3674166 16.27504,-4.0577796 C 153.58712,4.8869084 156,6.4632081 156,16.164792 c 0,5.339616 -0.9274,7.769554 -5.51874,14.460015 -3.0353,4.423023 -6.1853,8.044145 -7,8.046939 -1.73189,0.0059 -12.8146,13.981394 -12.8146,16.159386 0,0.896452 1.44534,1.201563 3.66667,0.774033 2.01667,-0.388137 6.77068,-0.08448 10.56449,0.67478 6.0839,1.217592 7.34254,1.06717 10.66667,-1.274802 5.40901,-3.810847 9.38515,-4.778619 18.33145,-4.461784 13.78907,0.488343 21.89439,7.34562 27.31898,23.112447 3.98209,11.574156 4.53813,18.067281 2.28278,26.656684 -3.11725,11.87194 -15.63278,27.42707 -23.69585,29.45078 -1.83157,0.45969 -5.56291,2.35101 -8.29187,4.20293 -2.72896,1.85192 -5.79969,3.36713 -6.82384,3.36713 -1.02416,0 -2.19566,0.53971 -2.60334,1.19936 -0.40768,0.65965 -3.8931,1.93893 -7.74536,2.84287 -3.85226,0.90392 -8.19582,2.26116 -9.65234,3.01606 -3.69348,1.91434 -44.869354,3.15411 -63.351768,1.90748 z m 25.084478,-14.63244 c -0.4358,-4.51988 -2.19514,-5.28247 -4.34049,-1.88139 -0.83864,1.32951 -0.67361,2.69295 0.49659,4.10297 2.77985,3.3495 4.29654,2.47294 3.8439,-2.22158 z M 124,133.33333 C 124,132.6 123.4,132 122.66666,132 c -0.73333,0 -1.33333,0.6 -1.33333,1.33333 0,0.73333 0.6,1.33333 1.33333,1.33333 0.73334,0 1.33334,-0.6 1.33334,-1.33333 z M 89.333332,126.5034 c 0,-2.49961 -0.688161,-3.83674 -1.974597,-3.83674 -2.258586,0 -4.051727,5.60426 -2.820088,8.81385 1.283862,3.3457 4.794685,-0.29871 4.794685,-4.97711 z m -26.666666,2.82993 C 62.666666,128.6 61.802076,128 60.745355,128 c -1.056721,0 -2.292131,0.6 -2.745356,1.33333 -0.453225,0.73333 0.411365,1.33333 1.921311,1.33333 1.509945,0 2.745356,-0.6 2.745356,-1.33333 z m 73.066664,-0.26667 c 2.16256,-2.16255 2.02715,-8.38564 -0.22309,-10.25318 -1.37091,-1.13775 -2.14992,-1.09556 -3.14076,0.17008 -2.21678,2.83159 -3.00478,8.11433 -1.48375,9.94706 1.7862,2.15224 2.80287,2.18078 4.8476,0.13604 z m 18.69776,-4.17715 c 0.25517,-1.31569 -0.42501,-2.22285 -1.66667,-2.22285 -1.23684,0 -2.09776,1.14 -2.09776,2.77778 0,3.24939 3.1157,2.79009 3.76443,-0.55493 z M 73.227486,124.7942 C 75.076476,122.5663 73.753367,116 71.455455,116 c -2.255388,0 -4.788789,2.82148 -4.788789,5.33333 0,2.15816 2.442941,5.33333 4.103406,5.33333 0.496875,0 1.60271,-0.8426 2.457414,-1.87246 z M 118.41,120.32183 c 0.44759,-6.17382 -0.2709,-6.79768 -3.97168,-3.44852 -4.03878,3.65505 -2.98455,10.34295 1.49666,9.49461 1.39536,-0.26415 2.19798,-2.22483 2.47502,-6.04609 z m -74.410001,3.0115 c 0,-1.1 -0.6,-2 -1.333333,-2 -0.733333,0 -1.333333,0.9 -1.333333,2 0,1.1 0.6,2 1.333333,2 0.733333,0 1.333333,-0.9 1.333333,-2 z m 12,-4.66667 C 58.792036,115.87463 59.711654,108 57.245678,108 c -4.186152,0 -6.579012,2.92675 -6.579012,8.04691 0,5.89521 1.380012,6.57308 5.333333,2.61975 z m 45.366101,0.62719 c 1.31429,-1.58362 1.3465,-2.79915 0.14413,-5.43807 -2.11677,-4.6458 -4.756194,-3.35022 -5.257385,2.58062 -0.44988,5.32363 1.952368,6.66608 5.113255,2.85745 z m 63.96723,-6.7383 c 0,-4.17695 -3.13129,-3.71978 -3.7594,0.54888 -0.28295,1.92295 0.27688,2.89557 1.66667,2.89557 1.36136,0 2.09273,-1.20377 2.09273,-3.44445 z M 83.7594,111.7711 c -0.628113,-4.26866 -3.759401,-4.72584 -3.759401,-0.54888 0,2.24068 0.73137,3.44444 2.092734,3.44444 1.389786,0 1.949619,-0.97261 1.666667,-2.89556 z M 148.66666,110 c 0,-4.40573 -1.68965,-5.31594 -5.09009,-2.742 -2.3326,1.76565 -2.33367,1.93923 -0.0288,4.63113 3.09537,3.61512 5.11889,2.86834 5.11889,-1.88913 z m -107.333327,0.66666 c 3.201864,-3.20186 3.388952,-5.7407 0.593966,-8.06033 -3.144309,-2.609547 -7.928768,2.55009 -6.743553,7.27236 1.041213,4.14853 2.590516,4.34704 6.149587,0.78797 z m 87.694447,0.25 c 0.29027,-0.87083 -0.42223,-1.58333 -1.58334,-1.58333 -1.16111,0 -2.11111,0.95 -2.11111,2.11111 0,2.35457 2.87035,1.94452 3.69445,-0.52778 z M 68.41982,107.4958 c 0.808018,-2.10566 -1.459033,-4.82914 -4.019821,-4.82914 -0.96,0 -1.733333,1.48718 -1.733333,3.33334 0,2.38164 0.720621,3.33333 2.524014,3.33333 1.388208,0 2.841322,-0.82689 3.22914,-1.83753 z m -43.605866,-4.0655 c 0.401644,-1.04667 0.525722,-3.29667 0.275727,-5.000001 l -0.454535,-3.096968 -2.4325,3.608032 c -2.352262,3.489017 -2.086782,6.391967 0.584556,6.391967 0.71307,0 1.625108,-0.85636 2.026752,-1.90303 z M 176,101.33333 c 0,-1.48148 -0.8889,-2.666665 -2,-2.666665 -2.02988,0 -2.73502,2.820535 -1.11111,4.444445 C 174.57928,104.8015 176,103.98966 176,101.33333 Z M 51.951526,100.72507 c 1.853617,-2.233471 0.783053,-4.725072 -2.030216,-4.725072 -1.160509,0 -1.921311,1.319935 -1.921311,3.333333 0,3.745209 1.546326,4.289829 3.951527,1.391739 z m 49.939424,-0.20106 c 3.08306,-1.18308 2.59749,-3.422919 -1.71123,-7.893531 C 89.130667,81.166278 79.625987,74.65486 68.986688,71.260912 65.877342,70.269028 60.933332,68.555887 57.999999,67.453932 55.066666,66.351979 50.037665,65.424044 46.824441,65.391856 l -5.842226,-0.05852 0.706976,5.270898 c 2.058283,15.345649 18.988161,24.39778 57.201758,30.584846 0.490021,0.0793 1.840021,-0.21994 3.000001,-0.66507 z m 59.44238,-0.524012 c 0,-0.733333 -0.86459,-1.333333 -1.92131,-1.333333 -1.05672,0 -2.29213,0.6 -2.74536,1.333333 -0.45322,0.733332 0.41136,1.333332 1.92131,1.333332 1.50995,0 2.74536,-0.6 2.74536,-1.333332 z m -24.53484,-3.485255 c 2.49416,-1.183557 4.53484,-2.43057 4.53484,-2.77114 0,-1.332902 -12.88978,-12.694926 -16.66667,-14.69125 -2.2,-1.162841 -5.87795,-3.541593 -8.17324,-5.286115 -6.15202,-4.675828 -28.49076,-9.006614 -30.413127,-5.896159 -0.409062,0.661877 1.37426,2.911877 3.96294,4.999999 2.58868,2.088123 10.148177,8.746587 16.798877,14.796587 11.76009,10.697904 12.27521,11 18.75686,11 3.66558,0 8.70536,-0.968366 11.19952,-2.151922 z M 37.066666,94.399998 c 0.88,-0.88 1.6,-3.301111 1.6,-5.380245 0,-3.32291 -0.311689,-3.613434 -2.576367,-2.401415 -2.843342,1.521711 -4.728429,5.937121 -3.431008,8.036395 1.098234,1.776977 2.454024,1.698616 4.407375,-0.254735 z M 159.89344,86.113433 c 4.08113,-4.344172 2.97037,-6.953245 -5.91442,-13.892343 -6.8245,-5.330014 -8.13429,-5.822227 -17.34712,-6.518991 -8.6753,-0.656111 -9.96524,-0.468966 -9.96524,1.445769 0,1.209691 3.39098,4.746293 7.5355,7.859117 4.14452,3.112824 9.69452,7.593445 12.33333,9.956936 5.75657,5.155957 9.30704,5.461492 13.35795,1.149512 z M 22.666666,85.333331 c 0,-1.481481 -0.888889,-2.666666 -2,-2.666666 -1.11111,0 -2,1.185185 -2,2.666666 0,1.481482 0.88889,2.666667 2,2.666667 1.111111,0 2,-1.185185 2,-2.666667 z m 10.666667,-9.444443 c 0,-3.249394 -3.115697,-2.790094 -3.764432,0.554932 -0.255164,1.315685 0.425015,2.222845 1.666667,2.222845 1.236846,0 2.097765,-1.139995 2.097765,-2.777777 z m 145.333327,-1.88889 c 0,-1.833333 -0.6,-3.333333 -1.33333,-3.333333 -1.48956,0 -1.8276,4.394617 -0.44444,5.777777 1.46979,1.469788 1.77777,1.046303 1.77777,-2.444444 z M 76.120457,59.016504 c 0.763284,-2.007589 4.851148,-7.557589 9.084142,-12.333333 7.691212,-8.67737 14.657487,-19.283382 13.440306,-20.462589 -0.354699,-0.343632 -6.936269,-0.83384 -14.625712,-1.089351 l -13.980805,-0.464565 -4.2554,6.50298 c -2.340469,3.576639 -6.008433,8.376638 -8.151029,10.666666 -4.827331,5.1595 -8.298626,10.282115 -8.298626,12.246341 0,2.111072 6.010366,4.584012 11.14123,4.584012 2.392,0 5.513768,0.880918 6.937263,1.957596 4.008802,3.032106 7.166178,2.449202 8.708631,-1.607757 z M 119.45688,50.999999 C 134.75936,33.996031 140,27.294246 140,24.72925 c 0,-2.221033 -1.02115,-2.374242 -11.74803,-1.762624 -13.42684,0.765564 -16.25665,1.904556 -19.87321,7.998923 -1.42558,2.402281 -5.72695,7.787973 -9.558606,11.968203 -4.488053,4.896344 -7.059179,8.922975 -7.226734,11.317757 -0.250661,3.582615 0.01963,3.747958 7.458102,4.562215 4.245008,0.464683 8.095008,1.221692 8.555558,1.682243 1.59261,1.592617 2.59026,0.793142 11.8498,-9.495968 z"
       id="path668" />
  </g>
</svg>
