<?xml version="1.0" encoding="UTF-8" standalone="no"?>
<!-- Created with Inkscape (http://www.inkscape.org/) -->

<svg
   version="1.1"
   id="svg285"
   width="176"
   height="210.66667"
   viewBox="0 0 176 210.66667"
   xmlns="http://www.w3.org/2000/svg"
   xmlns:svg="http://www.w3.org/2000/svg">
  <defs
     id="defs289" />
  <g
     id="g291">
    <path
       style="fill:#000000;stroke-width:1.33333"
       d="m 3.9344612,201.17511 c -2.4919264,-6.01604 0.098829,-12.66152 7.9514518,-20.39607 8.065312,-7.94404 13.700207,-10.06605 26.799576,-10.09229 10.179608,-0.0204 20.509987,2.73072 26.801839,7.13771 8.218031,5.75613 13.519593,20.68684 8.750759,24.64461 -1.128427,0.93652 -13.787471,1.68224 -35.208511,2.07409 l -33.4465961,0.61183 z m 24.7322058,-5.14873 c 2.933333,0.24633 7.433333,0.38297 10,0.30366 11.545489,-0.3568 19.590264,-0.22894 22.666666,0.3602 1.833334,0.3511 4.233334,0.0545 5.333334,-0.65913 4.728149,-3.06739 -5.657023,-13.24603 -16.491368,-16.16341 -7.019432,-1.89015 -23.32804,-0.38791 -27.774058,2.55836 C 18.419255,185.06482 12,192.46375 12,194.4147 c 0,2.0615 2.876328,2.82641 7.333333,1.95018 2.2,-0.43252 6.4,-0.58484 9.333334,-0.3385 z m 74.431843,5.54832 c -2.59726,-2.59726 -2.15908,-12.28394 0.75566,-16.70488 2.69256,-4.08396 8.85009,-9.93495 13.02983,-12.38115 8.28147,-4.84675 32.79645,-5.55679 36.53008,-1.05804 0.86851,1.04648 2.40391,1.90271 3.412,1.90271 3.05877,0 11.90864,8.90397 14.44887,14.5372 2.78332,6.17229 1.99118,11.35802 -2.06668,13.52973 -4.29851,2.30049 -63.82664,2.45755 -66.10976,0.17443 z m 59.06816,-6.90803 c 6.51776,0 -4.98728,-13.47449 -13.53007,-15.84616 -6.5738,-1.82503 -17.10773,-1.89703 -23.36155,-0.15968 -5.89405,1.63741 -14.60838,9.45111 -14.60838,13.09859 0,2.63718 0.70416,2.7307 20.06706,2.66501 11.03688,-0.0375 20.48271,0.34757 20.99074,0.8556 0.50802,0.50803 2.65285,0.57784 4.76628,0.15516 2.11342,-0.42269 4.66758,-0.76852 5.67592,-0.76852 z M 22.215667,164.69186 c -5.934722,-5.93472 1.173852,-10.1672 18.90906,-11.25856 l 12.45806,-0.76663 3.231602,-7.67625 c 3.600514,-8.55256 3.24154,-13.19946 -1.263416,-16.35486 -4.450772,-3.11744 -5.755181,-2.43512 -10.20152,5.33627 -4.878713,8.52711 -5.739761,9.22061 -10.0919,8.12829 C 32.129991,141.31516 30.375093,136 33.243483,136 c 2.303594,0 3.20181,-5.70942 1.137709,-7.23174 -4.060784,-2.99491 -5.231584,-7.13433 -3.664225,-12.95506 0.835196,-3.10168 1.101582,-8.48864 0.60961,-12.32776 C 30.205956,94.740639 23.377039,75.861229 18.421271,67.807081 16.304987,64.36768 13.722544,57.75406 12.68251,53.110146 11.642476,48.466233 9.5634429,40.207245 8.0624363,34.756839 4.5255575,21.913842 4.4937783,16.446166 7.9496364,15.349319 c 3.5436576,-1.124713 7.8867326,1.406691 8.6169946,5.022501 0.328964,1.628832 0.956194,6.561514 1.393846,10.961514 0.437651,4.4 1.517727,10.4 2.400168,13.333333 1.495016,4.969602 1.651095,4.170478 2.288563,-11.71739 0.739824,-18.438913 1.565251,-20.380682 8.014725,-18.854167 1.831831,0.433572 3.631831,1.094176 4,1.468009 0.368171,0.373832 0.688907,6.475061 0.712748,13.558288 0.05113,15.192142 2.587911,30.912279 6.103022,37.819782 2.924924,5.747733 5.122893,19.314127 5.160552,31.852162 0.02043,6.802529 0.57845,9.292939 2.464733,10.999999 1.341076,1.21366 2.776883,2.20665 3.190681,2.20665 1.110191,0 2.395964,-3.82161 3.813075,-11.33333 1.491287,-7.904907 11.065561,-37.445584 13.89388,-42.868482 1.089521,-2.089003 1.984644,-5.412777 1.989161,-7.386165 0.0045,-1.973388 0.562054,-3.930268 1.238966,-4.348624 0.676913,-0.418354 1.641968,-2.703765 2.144565,-5.078689 C 76.809185,34.209253 85.522553,18.485883 90.733727,13.270289 96.755296,7.2436122 108.45339,3.2245163 113.9218,5.3036008 c 3.28623,1.2494229 3.61479,1.8991586 2.89229,5.7196382 -0.44829,2.370552 -1.197,8.060095 -1.6638,12.643428 -0.75759,7.438575 -0.5921,8.333334 1.54131,8.333334 1.31451,0 4.24666,-1.411073 6.51588,-3.135717 8.82208,-6.70492 12.27048,-7.743862 22.39249,-6.746465 14.5704,1.435729 17.17116,5.624223 9.03382,14.548848 -2.00592,2.2 -4.41732,5.5 -5.35867,7.333334 -0.94135,1.833333 -5.06333,7.428532 -9.15999,12.433775 -4.09665,5.005244 -8.9842,11.753145 -10.86121,14.995336 -1.87701,3.242192 -4.93151,7.546993 -6.78779,9.566225 -4.03275,4.386783 -9.1328,12.697762 -9.1328,14.882723 0,0.93142 2.02098,1.531862 5,1.485518 13.75878,-0.214042 26.31328,4.430102 35.44323,13.111122 8.84528,8.41035 12.84252,18.89621 12.87071,33.7634 0.0259,13.67905 -3.46224,17.56445 -10.80079,12.03085 -1.74889,-1.31876 -6.818,-3.11919 -11.26468,-4.00096 -7.95075,-1.57663 -13.35152,-3.90716 -23.91513,-10.31984 -6.41111,-3.89188 -13.75091,-4.36203 -14.80232,-0.94815 -2.00867,6.52207 -9.441358,20.72671 -11.391537,21.77042 -2.186106,1.16997 -13.849017,1.94454 -51.257146,3.40417 -16.364803,0.63853 -19.069724,0.44755 -21,-1.48273 z M 72,140.49802 c 0,-1.72359 -0.988671,-0.99542 -3.333333,2.45506 -1.833334,2.698 -3.333334,5.58331 -3.333334,6.41182 0,0.8285 1.5,-0.27628 3.333334,-2.45507 C 70.5,144.73103 72,141.84572 72,140.49802 Z m 7.979583,5.83532 c -0.01651,-2.42592 -0.267751,-2.61728 -1.312916,-1 -1.670563,2.58501 -1.670563,4 0,4 0.733333,0 1.324145,-1.35 1.312916,-3 z m 13.333333,-2.66667 c -0.01651,-2.42592 -0.267751,-2.61728 -1.312916,-1 -1.670563,2.58501 -1.670563,4 0,4 0.733333,0 1.324145,-1.35 1.312916,-3 z m 61.353754,-6.41727 c 0,-1.51282 -1.6168,-6.05254 -3.5929,-10.08825 -2.93773,-5.99961 -4.9683,-8.14376 -11.13538,-11.75818 -10.98245,-6.43664 -16.06252,-8.02703 -20.71284,-6.48446 -3.52796,1.17027 -3.9293,1.91818 -4.28848,7.99171 -0.35989,6.08548 -0.0539,6.91794 3.33333,9.0678 2.05128,1.30196 5.36787,3.89054 7.37021,5.75241 3.59202,3.34004 17.80967,7.91055 25.35939,8.1522 2.853,0.0913 3.66667,-0.49301 3.66667,-2.63323 z M 104,127.25465 c 0,-1.14328 -0.60979,-1.70182 -1.35508,-1.24121 -0.7453,0.46062 -1.00989,1.39603 -0.58798,2.07869 1.14299,1.84939 1.94306,1.50455 1.94306,-0.83748 z m -13.319825,-3.93354 c 3.206452,-2.9018 3.441484,-7.67367 0.498268,-10.11632 -2.982799,-2.47551 -11.084418,-5.16062 -15.643496,-5.18471 C 71.284595,107.99761 64,114.67974 64,118.60103 c 0,2.96476 3.722097,6.29793 8,7.16406 6.309152,1.2774 15.963869,0.0142 18.680175,-2.44398 z m 11.043605,-20.98778 c 1.97381,-0.91666 3.59343,-2.416662 3.59915,-3.333328 0.0132,-2.10706 -6.734253,-2.18147 -11.249771,-0.124067 -2.629426,1.198045 -3.053696,1.942585 -1.899479,3.333335 1.855799,2.2361 4.916729,2.27586 9.5501,0.12406 z M 98.115948,87.359497 c 5.138602,-2.282632 7.724052,-4.531604 10.666662,-9.278489 2.13623,-3.446063 6.17554,-9.008466 8.97624,-12.360895 2.80071,-3.352429 6.08104,-7.660904 7.28963,-9.574387 1.20859,-1.913481 4.76711,-6.468753 7.90781,-10.122824 8.74206,-10.170995 7.47054,-13.6394 -3.40496,-9.287891 -5.64672,2.25937 -20.32343,18.494045 -30.675401,33.931657 -3.196374,4.766667 -7.851066,11.167645 -10.34376,14.224396 C 86.039476,87.947815 84,90.809247 84,91.2498 c 0,1.254161 6.677979,-0.586265 14.115948,-3.890303 z M 77.333333,78.946383 c 0,-0.657302 1.795703,-3.239135 3.990452,-5.737405 2.194748,-2.49827 7.530959,-9.34231 11.858247,-15.208977 7.600758,-10.304639 7.892738,-11.006068 8.602718,-20.666667 0.4042,-5.5 1.13609,-11.95 1.62641,-14.333334 0.70833,-3.442982 0.45676,-4.333333 -1.2244,-4.333333 -2.17821,0 -11.520093,12.666051 -11.520093,15.619331 0,0.910209 -1.438339,4.818217 -3.196307,8.684464 -1.757969,3.866247 -4.526359,10.329539 -6.151979,14.362872 -1.62562,4.033334 -3.413098,8.256407 -3.972176,9.384607 -0.559077,1.1282 -1.437589,4.54366 -1.95225,7.58991 -0.51466,3.04625 -1.788843,6.246644 -2.831518,7.111986 -1.042673,0.865343 -1.89577,3.139164 -1.89577,5.052936 0,3.370332 0.104666,3.325563 3.333333,-1.425854 1.833333,-2.697992 3.333333,-5.443234 3.333333,-6.100536 z"
       id="path313" />
  </g>
</svg>
