<?xml version="1.0" encoding="UTF-8" standalone="no"?>
<!-- Created with Inkscape (http://www.inkscape.org/) -->

<svg
   version="1.1"
   id="svg83"
   width="262.66666"
   height="162.66667"
   viewBox="0 0 262.66666 162.66667"
   xmlns="http://www.w3.org/2000/svg"
   xmlns:svg="http://www.w3.org/2000/svg">
  <defs
     id="defs87" />
  <g
     id="g89">
    <path
       style="fill:#000000;stroke-width:1.33333"
       d="m 71.333332,153.87336 c -1.466667,-0.37261 -3.866667,-1.21441 -5.333334,-1.87065 -1.466666,-0.65624 -5.966666,-2.49773 -9.999999,-4.09221 -13.813756,-5.46091 -18.010281,-7.62926 -26,-13.43423 -4.4,-3.19684 -10.585861,-7.56825 -13.746358,-9.71425 -7.243667,-4.91849 -8.2536412,-6.86408 -8.2536412,-15.89964 0,-15.12911 3.8175942,-17.997889 57.7571802,-43.402365 7.933115,-3.736342 15.693681,-6.793347 17.245701,-6.793347 1.552018,0 5.261286,-1.157456 8.242818,-2.572126 7.563914,-3.588905 21.895871,-8.094541 25.747891,-8.094541 4.5631,0 24.01503,-7.0682 38.63303,-14.03799 6.8337,-3.258277 14.06332,-6.28143 16.06582,-6.71812 4.98734,-1.087605 10.52821,-3.056931 17.64089,-6.269905 12.22974,-5.524482 25.84254,-10.33206 35.65481,-12.5920788 10.05596,-2.3161467 23.01185,4.6118118 23.01185,12.3052238 0,1.957408 1.13082,4.996528 2.51294,6.753599 3.16832,4.027876 4.79712,14.199058 2.85496,17.828032 -2.07762,3.882056 -7.53268,6.312242 -16.70262,7.440874 -4.39924,0.541456 -8.43942,1.653293 -8.9782,2.470749 -0.53877,0.817455 -0.98877,4.055554 -1,7.195775 -0.0283,7.895835 -2.43154,12.932559 -10.97757,23.006138 -4.04264,4.765221 -8.9896,11.953615 -10.99325,15.974202 -4.06899,8.16491 -20.05699,25.31017 -23.6018,25.31017 -1.25972,0 -2.64831,0.57909 -3.08573,1.28686 -0.43743,0.70778 -7.82284,4.80162 -16.41203,9.09742 -14.51796,7.26104 -21.60636,9.56187 -46.14111,14.97699 -7.11315,1.56996 -39.840986,2.93818 -44.142248,1.84542 z m 53.247398,-24.27769 c 1.51393,-1.32239 5.7526,-3.1489 9.41927,-4.05891 3.66666,-0.91001 10.48402,-3.42806 15.14969,-5.59566 4.66567,-2.1676 9.32245,-3.9411 10.34841,-3.9411 3.78154,0 18.85656,-11.57882 31.1748,-23.944725 14.26925,-14.324461 18.72077,-21.911848 16.42467,-27.99496 -0.77288,-2.047562 -1.119,-6.701586 -0.76918,-10.342275 0.57582,-5.992664 0.23059,-7.081231 -3.64609,-11.49652 -3.96548,-4.516427 -4.69133,-4.818979 -9.81556,-4.091342 -7.69208,1.092272 -13.65153,3.908242 -22.20008,10.490014 -10.9803,8.454047 -29.53922,16.713143 -37.55592,16.713143 -4.59481,0 -8.85996,1.181149 -14.44408,4 -4.35817,2.2 -9.17086,4 -10.69485,4 -1.524,0 -4.58949,0.940424 -6.8122,2.089832 -2.222705,1.149408 -7.542574,3.208357 -11.821926,4.575444 -7.21751,2.305713 -21.082528,9.151829 -28.874546,14.257356 -3.21515,2.106647 -4.762583,2.999954 -16.348658,9.437803 -9.339502,5.18953 -6.209357,11.19158 7.435997,14.25852 4.280571,0.9621 11.382855,3.03324 15.782855,4.60254 4.4,1.56929 10.999999,3.87924 14.666666,5.13322 3.762273,1.28667 13.056332,2.62215 21.333332,3.06542 8.06667,0.43202 15.528,0.88922 16.58073,1.01601 1.05274,0.12678 3.15274,-0.85143 4.66667,-2.17381 z m 106.6832,-94.319269 c 4.5911,-1.918284 4.8612,-2.345188 4.00708,-6.333334 -1.18462,-5.531285 -1.38431,-5.685356 -4.9397,-3.81116 -2.14129,1.128771 -4.30628,1.199363 -7.57634,0.247034 -2.5181,-0.733335 -4.82288,-1.088814 -5.12174,-0.789952 -1.56453,1.564528 5.13234,12.744345 7.63404,12.744345 0.59055,0 3.28904,-0.92562 5.99666,-2.056933 z"
       id="path1085" />
  </g>
</svg>
