<?xml version="1.0" encoding="UTF-8" standalone="no"?>
<!-- Created with Inkscape (http://www.inkscape.org/) -->

<svg
   version="1.1"
   id="svg275"
   width="160"
   height="240"
   viewBox="0 0 160 240"
   xmlns="http://www.w3.org/2000/svg"
   xmlns:svg="http://www.w3.org/2000/svg">
  <defs
     id="defs279" />
  <g
     id="g281">
    <path
       style="fill:#000000;stroke-width:1.33333"
       d="m 57.999484,231.48545 c -5.050663,-2.20118 -7.856755,-5.53025 -6.857164,-8.13514 0.90688,-2.3633 5.222281,-2.62924 9.088481,-0.56012 5.605815,3.00014 5.538806,6.52262 1.538234,-80.86108 -0.56829,-12.41303 -0.339704,-15.0156 1.44923,-16.50028 1.168168,-0.96949 7.23431,-2.3824 13.480314,-3.13979 13.577882,-1.64645 13.227382,-1.00808 11.50578,-20.95571 -1.308878,-15.165507 -0.554435,-19.286003 3.783246,-20.662729 6.865196,-2.178929 7.759591,2.335454 8.584475,43.329399 0.73145,36.35089 1.60092,63.3112 2.77609,86.08023 1.26624,24.53364 2.48887,23.26974 -22.443409,23.20092 -12.532816,-0.0345 -20.253156,-0.63986 -22.905277,-1.7957 z m 30.495973,-8.36756 5.162124,-0.85276 -0.906904,-24.13256 c -2.367581,-63.00096 -2.496709,-64.32734 -6.382574,-65.56066 -1.447308,-0.45936 -5.188338,-0.45177 -8.313399,0.0169 l -5.681932,0.85206 0.448331,33.61292 c 0.450042,33.74128 1.319677,51.35772 2.714736,54.99317 0.806234,2.10103 4.750944,2.42702 12.959618,1.07098 z M 48.666667,45.968852 C 44.604068,44.840772 35.15494,44.094703 24.475985,44.058844 9.7623116,44.009437 6.8221791,43.661769 6.1426517,41.890951 4.5602797,37.767355 5.411334,35.932197 11.809685,29.670929 15.371677,26.185252 18.821677,22.35942 19.476351,21.169083 21.23168,17.977515 33.073752,12.420595 42.812303,10.218634 56.817435,7.0519661 79.638189,6.1336537 86.682923,8.4532701 c 3.291058,1.0836458 8.083744,2.3734329 10.65041,2.8661929 6.690457,1.284465 21.686677,6.215617 23.767317,7.815322 0.97203,0.747343 8.5115,1.444027 16.75439,1.548188 8.24288,0.10416 15.69759,0.628515 16.56601,1.165228 2.38855,1.476204 1.97956,9.712764 -0.5301,10.675814 -1.15998,0.445125 -6.64362,0.809318 -12.18587,0.809318 -8.71984,0 -10.90466,0.50746 -16.22428,3.768348 -6.42224,3.936782 -7.02496,4.162643 -22.14747,8.299454 -11.591426,3.170874 -44.076861,3.508237 -54.666663,0.567717 z m 8.666666,-10.386064 c 0,-0.9628 -1.8,-3.475055 -4,-5.582788 -2.2,-2.107733 -4,-4.93882 -4,-6.291301 0,-2.704162 -3.053277,-4.436474 -5.666666,-3.21505 -5.130616,2.397906 -14.957091,8.710958 -15.338112,9.854022 -0.244327,0.732977 1.231797,1.667538 3.280274,2.076802 2.048478,0.409263 7.324504,1.6197 11.724504,2.68986 10.336312,2.513979 14,2.63657 14,0.468455 z M 100,35.470428 c 3.3,-1.008723 8.26449,-2.920267 11.03221,-4.247875 4.35483,-2.088916 4.71836,-2.589469 2.70066,-3.71863 -1.28235,-0.717638 -4.44684,-1.753036 -7.0322,-2.300887 -2.58537,-0.547849 -5.978,-1.393628 -7.539171,-1.879505 C 96.7492,22.57276 95.7174,23.558229 92.289741,29.886724 88.356708,37.148293 88.327847,37.332975 91.128243,37.318901 92.707709,37.310963 96.7,36.479151 100,35.470428 Z M 80.621725,26.716327 C 84.931231,21.954376 82.434583,20 72.041847,20 c -7.871584,0 -9.37518,0.357383 -9.37518,2.228345 0,6.762134 12.964346,10.002655 17.955058,4.487982 z"
       id="path452" />
  </g>
</svg>
