<?xml version="1.0" encoding="UTF-8" standalone="no"?>
<!-- Created with Inkscape (http://www.inkscape.org/) -->

<svg
   version="1.1"
   id="svg265"
   width="201.33333"
   height="237.33333"
   viewBox="0 0 201.33333 237.33333"
   xmlns="http://www.w3.org/2000/svg"
   xmlns:svg="http://www.w3.org/2000/svg">
  <defs
     id="defs269" />
  <g
     id="g271">
    <path
       style="fill:#000000;stroke-width:1.33333"
       d="M 91.652909,233.1432 C 85.228677,232.54428 78.208473,231.14204 76.052456,230.02713 73.896439,228.91221 70.683544,228 68.912691,228 c -2.918427,0 -9.624203,-4.06424 -11.768407,-7.1326 -0.966305,-1.38279 -0.63864,-2.50651 6.667896,-22.8674 7.430457,-20.70623 7.679039,-21.43564 11.457643,-33.62012 1.868264,-6.02442 3.396842,-11.83764 3.396842,-12.91831 0,-1.33821 -2.019846,-2.23055 -6.333333,-2.79795 -3.483333,-0.4582 -7.233333,-0.95318 -8.333333,-1.09996 -1.165777,-0.15554 -2,-1.64017 -2,-3.5593 0,-4.31296 3.679687,-4.95928 33.999999,-5.9719 12.833332,-0.42858 28.486222,-1.43432 34.784192,-2.23494 8.55357,-1.08736 12.18018,-1.06535 14.33333,0.0869 6.40708,3.42896 1.49792,10.77 -7.22251,10.80036 -7.23996,0.0253 -11.22835,1.28081 -11.22835,3.53475 0,1.04969 2.10198,5.19445 4.67107,9.21058 2.65413,4.14908 7.47652,15.7798 11.16832,26.93595 3.57349,10.79865 7.55245,21.8206 8.84213,24.49321 3.44716,7.14363 1.96492,11.13986 -5.01233,13.51363 -3.11805,1.06081 -7.76919,2.68257 -10.33585,3.60393 -13.47495,4.83707 -28.76832,6.61871 -44.347091,5.16634 z m 17.660351,-10.80987 c -0.0183,-2.73948 -1.40796,-7.18289 -4.81636,-15.40059 -1.24695,-3.00642 -1.3157,-2.97602 -3.4656,1.53238 -2.691663,5.64446 -4.267271,13.53504 -3.08477,15.44836 0.482632,0.78092 3.2421,1.41985 6.13216,1.41985 4.56632,0 5.25201,-0.39299 5.23457,-3 z M 86.952588,219 c 1.117907,-1.28334 2.366459,-3.83334 2.774561,-5.66667 3.770875,-16.94005 7.815039,-28.93165 10.489651,-31.10351 2.86517,-2.32658 3.07895,-2.33014 4.7254,-0.0785 0.94846,1.29709 1.73093,3.29367 1.73883,4.43684 0.008,1.14321 2.40144,7.17853 5.31897,13.41187 2.91753,6.23333 5.31106,11.97874 5.31896,12.76758 0.008,0.78883 1.46383,2.79595 3.2354,4.46024 2.98728,2.80642 3.59202,2.89986 8.33333,1.28766 7.56536,-2.57246 8.76137,-3.82852 8.03776,-8.44136 -0.61235,-3.90354 -13.01306,-41.21082 -15.53635,-46.74079 -0.66923,-1.46667 -2.42182,-5.51667 -3.89464,-9 L 114.81661,148 h -10.57838 c -8.037982,0 -11.000477,0.5086 -12.336022,2.11782 -1.83638,2.21271 -4.525243,9.07094 -10.147465,25.88218 -1.839379,5.5 -4.432396,12.7 -5.762262,16 -1.329866,3.3 -3.708092,9.19464 -5.284946,13.09918 -3.798939,9.40682 -3.239961,12.49191 2.625797,14.49223 6.701364,2.28527 11.286843,2.08615 13.619256,-0.59141 z M 9.3097785,133.33549 c -2.5765719,-0.60224 -3.4047457,-1.75429 -3.738471,-5.20045 -0.5504037,-5.68366 3.7506315,-10.48475 10.3086005,-11.50713 2.632717,-0.41043 6.886758,-1.28173 9.453425,-1.93622 5.418738,-1.38176 13.389538,-3.13983 24.666666,-5.44056 22.261586,-4.54176 71.736611,-24.619866 82.929801,-33.654826 2.05528,-1.658982 6.28686,-4.655338 9.40353,-6.65857 6.72839,-4.324652 7.48347,-8.277379 2,-10.469676 -2.01667,-0.806268 -6.66667,-2.65974 -10.33333,-4.118829 -3.66667,-1.45909 -9.46807,-3.070764 -12.892,-3.581498 -7.91726,-1.180986 -10.88383,-3.44957 -9.03307,-6.907738 0.74372,-1.389663 1.98622,-2.52666 2.7611,-2.52666 3.79563,0 19.27823,-13.999536 25.31679,-22.891719 5.13703,-7.564606 9.93803,-10.4106404 17.6015,-10.4341782 1.33154,-0.00409 3.63598,-0.6576798 5.12097,-1.4524222 5.62944,-3.0127883 14.61801,4.4414194 11.68196,9.6878424 -0.63779,1.139661 -4.16357,5.301244 -7.83508,9.247961 -3.67152,3.946717 -6.68599,8.132857 -6.69883,9.302532 -0.0671,6.102941 14.98743,11.364861 26.46135,9.248938 4.84059,-0.892661 6.24059,-0.650337 8.33333,1.4424 5.26587,5.265876 2.06523,13.611572 -9.22982,24.066805 -18.74735,17.353439 -37.13098,28.850376 -58.92154,36.848948 -41.648199,15.28763 -58.533445,19.47922 -108.023548,26.81572 -3.312955,0.49112 -7.512955,0.54481 -9.3333335,0.11933 z M 80.972221,112.52778 c -0.443056,-0.44306 -1.593056,-0.49043 -2.555556,-0.10527 -1.063644,0.42563 -0.747701,0.74158 0.805556,0.80556 1.405555,0.0579 2.193055,-0.25724 1.75,-0.7003 z m 16,-5.33334 c -0.443056,-0.44305 -1.593056,-0.49042 -2.555556,-0.10526 -1.063644,0.42563 -0.747701,0.74157 0.805556,0.80555 1.405555,0.0579 2.193055,-0.25724 1.75,-0.70029 z m 24.361109,-9.194441 c 2.94653,-1.68439 3.02389,-1.906068 0.66667,-1.910348 -1.46667,-0.0027 -3.83135,0.876074 -5.25484,1.952752 -3.43586,2.598757 0.0239,2.566777 4.58817,-0.0424 z m 10.80104,-4.855472 c 2.49276,-0.837176 5.54087,-2.392678 6.77356,-3.456668 1.23271,-1.063992 4.04535,-2.92903 6.25032,-4.144528 2.20497,-1.2155 8.4758,-5.659999 13.93517,-9.876665 5.45936,-4.216667 10.47903,-7.666667 11.15479,-7.666667 0.67577,0 3.24547,-2.080804 5.71044,-4.624011 3.21512,-3.31716 3.94849,-4.781443 2.59489,-5.181058 -5.10848,-1.508139 -12.9572,-3.528264 -13.70824,-3.528264 -0.46492,0 -0.8453,1.529796 -0.8453,3.399547 0,8.033641 -6.1796,14.636153 -25.98983,27.768458 -13.31579,8.827113 -14.39637,10.171425 -5.8758,7.309856 z m 18.53229,-46.27121 c 0,-0.619676 -1.254,-2.261539 -2.78666,-3.648583 -2.27042,-2.054693 -2.63976,-3.513303 -1.9937,-7.873317 L 146.67929,30 l -3.97045,4.666666 c -5.11024,6.00634 -5.04828,8.348808 0.29116,11.006159 4.8859,2.431638 7.66666,2.867065 7.66666,1.200492 z"
       id="path591" />
  </g>
</svg>
