<?xml version="1.0" encoding="UTF-8" standalone="no"?>
<!-- Created with Inkscape (http://www.inkscape.org/) -->

<svg
   version="1.1"
   id="svg255"
   width="214.66667"
   height="220"
   viewBox="0 0 214.66667 220"
   xmlns="http://www.w3.org/2000/svg"
   xmlns:svg="http://www.w3.org/2000/svg">
  <defs
     id="defs259" />
  <g
     id="g261">
    <path
       style="fill:#000000;stroke-width:1.33333"
       d="m 9.4234244,213.58055 c -0.7004037,-0.2307 -1.9613979,-2.50392 -2.8022094,-5.0516 -1.2076534,-3.65923 -1.1568446,-5.08027 0.2419034,-6.76566 1.5136493,-1.82384 3.9502206,-2.00902 16.7871006,-1.27585 l 15.016448,0.85765 0.237708,-17.00588 c 0.130747,-9.35324 0.182774,-18.20588 0.115627,-19.67254 -0.851415,-18.59803 -0.282228,-55.93778 0.870252,-57.09026 0.790328,-0.79033 6.907507,-1.45661 13.766068,-1.4994 L 66.000001,106 66.193725,87.333333 C 66.300272,77.066667 66.450273,67.657099 66.527058,66.423184 66.835817,61.461515 77.858901,62.064308 79.499052,67.132552 80.009421,68.709648 80.519017,90.7 80.631487,116 c 0.112466,25.3 0.680257,56.5 1.26175,69.33333 0.905788,19.9904 0.765627,23.71539 -0.978313,26 C 78.97294,213.8774 77.311937,214 44.788118,214 26.03794,214 10.123828,213.81125 9.4234244,213.58055 Z M 64.579868,201.36633 68.000001,200.066 67.867668,171.69967 c -0.07278,-15.60148 -0.522784,-33.46634 -1,-39.69967 l -0.867667,-11.33333 -5.670951,0.1154 c -3.119022,0.0635 -5.94304,0.38748 -6.275593,0.72003 -2.352754,2.35276 -1.22201,72.25109 1.286036,79.49791 0.691025,1.99666 4.549895,2.14965 9.240375,0.36633 z m 48.250492,10.74527 c -5.01433,-5.72872 -3.0128,-13.88401 4.49615,-18.31967 2.20375,-1.30178 3.99441,-3.28752 3.97924,-4.41274 -0.0262,-1.9439 -6.22371,-20.22114 -11.38696,-33.58166 -2.25042,-5.82322 -2.2604,-6.4109 -0.16327,-9.61152 1.27734,-1.94948 4.54005,-4.10006 7.62046,-5.02298 4.74855,-1.4227 6.21346,-1.27127 12.36449,1.2782 3.83776,1.59065 8.36229,2.8921 10.05453,2.8921 1.69224,0 4.8768,1.8 7.0768,4 2.2,2.2 4.45802,4 5.01782,4 0.5598,0 1.7584,-3.45 2.66356,-7.66666 2.39382,-11.15159 4.4233,-18.1564 5.67866,-19.6 0.60583,-0.69667 1.1015,-2.74954 1.1015,-4.56193 0,-2.88008 -0.51452,-2.51847 -4.08374,2.87006 -4.58952,6.92891 -7.73393,8.51826 -12.19924,6.16613 -6.94913,-3.66052 -6.70698,-8.35985 0.81095,-15.73814 3.22372,-3.16384 6.88712,-8.0273 8.14091,-10.80769 2.22074,-4.924733 2.20301,-5.158825 -0.68656,-9.067183 -2.79275,-3.7774 -2.87803,-4.54536 -1.45863,-13.136593 2.0774,-12.573908 8.63349,-24.824664 15.28691,-28.56518 8.55576,-4.810007 20.261,-3.180273 26.47502,3.686148 5.50799,6.086248 9.29775,23.966448 11.676,55.087708 1.91958,25.11892 1.78491,29.00777 -1.14717,33.12751 -2.17936,3.06213 -2.5616,6.41457 -2.83585,24.87249 -0.40818,27.4708 -0.45311,27.00303 2.68948,28.00045 1.46745,0.46575 3.29729,2.0225 4.06632,3.45943 1.146,2.14133 0.7094,3.30145 -2.42034,6.43117 -3.57218,3.5722 -4.71626,3.87167 -17.73297,4.64163 -7.65293,0.45269 -27.26173,1.01825 -43.57512,1.2568 -25.75392,0.37659 -29.90413,0.15559 -31.50895,-1.67788 z m 65.865,-10.77827 c 5.37516,0 6.4194,-4.42909 7.37694,-31.28874 0.57966,-16.26012 1.4174,-24.13451 2.97886,-28 4.08408,-10.11038 2.1934,-47.56217 -3.33412,-66.04459 -2.9372,-9.821148 -5.85717,-12.939661 -10.55014,-11.267512 -3.85444,1.373372 -4.27439,1.977311 -8.27231,11.896615 -3.32036,8.238189 -2.17409,11.047548 4.74281,11.62398 4.21734,0.351457 5.41515,1.214725 7.97411,5.746917 3.76403,6.66651 3.86713,12.60812 0.29755,17.14612 -2.73298,3.47441 -4.44798,7.84654 -6.61107,16.85388 -0.61637,2.56667 -1.80583,7.06667 -2.64323,10 -1.68848,5.91455 -3.74742,15.05876 -4.87042,21.63053 -0.40387,2.36346 -0.0191,7.27863 0.85509,10.92259 2.179,9.08312 1.05504,11.74095 -5.71984,13.52567 -3.07244,0.80938 -6.78625,2.20036 -8.25292,3.09105 -1.46667,0.89071 -6.86667,3.33165 -12,5.42436 C 132.07454,196.09693 128,198.96695 128,201.51631 c 0,0.55364 10.55944,0.73896 23.46543,0.41182 12.90599,-0.32714 25.15945,-0.5948 27.22993,-0.5948 z M 142.71979,177.30624 C 145.62391,175.82467 148,173.74555 148,172.68596 148,167.88648 132.97793,156 126.91237,156 c -2.45207,0 -1.84626,5.56997 1.08763,10 1.457,2.2 2.65305,5.08944 2.65788,6.42099 0.0132,3.6251 2.50449,7.57901 4.77548,7.57901 1.10342,0 4.38231,-1.2122 7.28643,-2.69376 z M 78.666668,55.969385 C 76.100001,55.302003 67.345344,53.313867 59.211873,51.551307 51.078401,49.788748 42.176945,47.605143 39.430857,46.698852 36.580346,45.758099 28.53786,45.128776 20.687558,45.232193 9.6837048,45.377153 6.5106446,44.986835 4.8019061,43.278096 -0.00369761,38.472493 3.5021718,34.179341 14.014226,31.997047 18.0544,31.158309 23.003998,29.09564 25.013332,27.413335 29.758414,23.440541 45.222141,14.00934 52.386453,10.718691 61.345873,6.6035301 73.233504,4.3745963 83.333335,4.9161424 88.466668,5.1913883 99.266668,5.6766365 107.33334,5.9944716 115.4,6.3123068 126.8,7.7495533 132.66667,9.1883528 c 25.94951,6.3641142 30.25579,7.0419362 48.66667,7.6603042 24.08698,0.809011 24.64084,0.927236 26.60953,5.68008 3.09112,7.462634 -3.40301,13.301783 -11.24228,10.108412 -2.43425,-0.991602 -9.33211,-1.550332 -17.39447,-1.408956 -11.88138,0.208343 -14.02181,0.629706 -19.33333,3.805954 -6.26987,3.749329 -14.84497,7.944534 -29.30612,14.33747 -12.21932,5.401875 -42.045266,9.186196 -52.000002,6.597768 z M 73.344733,36.892191 c -2.456468,-4.352623 -4.011399,-9.02038 -4.011399,-12.041847 0,-6.220425 -2.02049,-7.055476 -10.365154,-4.283824 -7.052365,2.34242 -20.243683,10.3283 -21.874649,13.242672 -1.121564,2.004124 9.966922,5.440321 24.809033,7.688041 4.346409,0.65823 8.196409,1.490627 8.555554,1.849774 C 70.817265,43.706153 72.516242,44 74.233622,44 h 3.122511 z m 42.070817,4.357678 c 15.17389,-3.942594 21.24927,-6.129874 26.92089,-9.692177 2.7483,-1.726177 5.83668,-3.412752 6.8631,-3.747944 3.19658,-1.043895 -29.11306,-10.476415 -35.88534,-10.476415 -2.14094,0 -2.64753,0.900223 -2.64753,4.70469 0,5.049654 -6.79718,19.929325 -9.62231,21.064149 -4.513639,1.813081 4.96733,0.591079 14.37119,-1.852303 z M 95.257729,31.703325 c 5.198241,-7.421534 0.752363,-17.036658 -7.877482,-17.036658 -5.006518,0 -7.645368,2.92358 -6.725432,7.451102 0.284848,1.401894 0.871993,4.224872 1.304769,6.273286 1.300812,6.157009 9.819445,8.27881 13.298145,3.31227 z"
       id="path730" />
  </g>
</svg>
