<?xml version="1.0" encoding="UTF-8" standalone="no"?>
<!-- Created with Inkscape (http://www.inkscape.org/) -->

<svg
   version="1.1"
   id="svg165"
   width="98.666664"
   height="102.66667"
   viewBox="0 0 98.666664 102.66667"
   xmlns="http://www.w3.org/2000/svg"
   xmlns:svg="http://www.w3.org/2000/svg">
  <defs
     id="defs169" />
  <g
     id="g171">
    <path
       style="fill:#000000;stroke-width:1.33333"
       d="M 52.666665,95.595408 C 47.95436,93.882196 30.671998,82.865804 30.654818,81.564276 30.648302,81.070592 27.719619,77.251665 24.146635,73.07777 17.858765,65.732398 8.4297136,48.327859 5.4528525,38.572004 4.6537836,35.953272 3.9999999,30.239978 3.9999999,25.875796 c 0,-6.900623 0.5370122,-8.586367 4.1199976,-12.93315 C 16.214837,3.1222017 23.422553,2.0518051 40.659892,8.1102424 60.293865,15.011028 76.375134,26.540053 87.931048,42.000001 c 6.234316,8.340507 8.294909,14.5038 8.246311,24.664946 -0.04625,9.669742 -2.450536,15.101792 -9.881812,22.326151 -4.59996,4.47188 -7.075061,5.73447 -13.540428,6.907196 -9.493151,1.721924 -14.736537,1.642865 -20.088454,-0.302886 z M 72.168829,83.000003 c 1.757317,-1.283334 4.35253,-2.976206 5.767141,-3.761938 3.050504,-1.694373 6.203382,-13.932516 5.128001,-19.90473 C 82.034743,53.617438 77.00497,45.467841 70.924177,39.663577 66.199102,35.153377 43.591873,22.666667 40.15122,22.666667 c -0.766745,0 -3.48464,-0.996917 -6.039765,-2.215372 -4.231898,-2.018052 -5.215678,-2.034229 -11.045236,-0.181634 -8.271846,2.62874 -8.710949,5.604531 -2.63453,17.854151 2.512608,5.065237 4.983404,11.528034 5.490657,14.36177 0.61086,3.412532 2.857471,7.239364 6.653436,11.333333 3.152136,3.399598 7.532694,8.177871 9.734573,10.618385 2.487846,2.757473 7.22496,5.633537 12.513197,7.597195 10.323856,3.833509 13.198873,3.993545 17.345277,0.965508 z"
       id="path869" />
  </g>
</svg>
