<?xml version="1.0" encoding="UTF-8" standalone="no"?>
<!-- Created with Inkscape (http://www.inkscape.org/) -->

<svg
   version="1.1"
   id="svg185"
   width="82.666664"
   height="218.66667"
   viewBox="0 0 82.666664 218.66667"
   xmlns="http://www.w3.org/2000/svg"
   xmlns:svg="http://www.w3.org/2000/svg">
  <defs
     id="defs189" />
  <g
     id="g191">
    <path
       style="fill:#000000;stroke-width:1.33333"
       d="m 53.074629,213.96352 c -0.427313,-0.42732 -9.55512,-0.80429 -20.284015,-0.83774 -18.166324,-0.0567 -19.606043,-0.24572 -20.946867,-2.75107 -1.081713,-2.0212 -0.94088,-3.89451 0.566278,-7.53248 6.886844,-16.62343 9.733752,-40.54 9.187036,-77.17932 C 21.157806,96.225308 20.507323,93.0411 13.242709,84.767161 7.736265,78.495668 8.1675443,73.206141 14.333333,71.390938 c 2.383333,-0.70165 4.333333,-1.655244 4.333333,-2.119096 0,-0.463852 -2.10896,-2.762477 -4.686577,-5.108056 -3.925668,-3.572278 -4.4592486,-4.689456 -3.286421,-6.880904 0.809774,-1.513077 2.785889,-2.616215 4.686577,-2.616215 4.561273,0 4.139304,-1.500058 -2.20727,-7.846633 -4.5690694,-4.569069 -5.2148169,-5.829716 -3.8367408,-7.490196 0.9113228,-1.098077 3.0480748,-1.996504 4.7483358,-1.996504 5.086156,0 5.050885,-2.480008 -0.07831,-5.506308 -3.862271,-2.278798 -4.7362071,-3.533708 -4.4113602,-6.334404 0.3562337,-3.0713 1.1288932,-3.573043 6.4051012,-4.159288 5.293711,-0.588191 6.04809,-1.081972 6.408522,-4.194728 0.792736,-6.846203 6.523642,-8.8304773 27.546352,-9.5376735 l 7.954876,-0.2675991 2.214369,6.0000006 c 1.833688,4.968514 2.872931,6.077586 6.045124,6.451313 8.064069,0.950055 10.143441,7.991077 3.208297,10.863709 -2.175687,0.901198 -4.649153,2.473991 -5.496593,3.495094 -1.247927,1.50366 -0.8969,1.856551 1.846743,1.856551 9.497581,0 10.639611,6.111304 2.036921,10.900101 -7.836893,4.362504 -8.057393,6.433232 -0.685041,6.433232 4.212466,0 6.20657,0.620508 6.777777,2.10905 1.777522,4.63215 0.7203,6.750364 -4.524015,9.06415 -6.046448,2.667687 -6.941084,4.8268 -2,4.8268 3.605299,0 8.666667,4.193242 8.666667,7.180159 0,1.015755 -2.85,5.310896 -6.333334,9.544759 l -6.333333,7.697932 0.09475,34.788576 c 0.109827,40.32531 1.633508,55.8968 6.628333,67.73943 3.899672,9.24604 4.27972,12.67187 1.676591,15.11315 -1.850479,1.73542 -17.356509,3.86805 -18.658376,2.56618 z M 60.49655,202 c -0.09356,-1.46666 -1.127209,-6.26666 -2.296991,-10.66666 -3.269391,-12.29746 -5.523542,-40.02354 -5.52845,-68 l -0.0044,-25.333339 3.886103,-7.669453 c 2.137355,-4.218199 3.637355,-7.908259 3.333333,-8.200132 -0.582982,-0.559683 -22.377865,-1.237068 -30.886102,-0.95994 -5.749733,0.187279 -6.362468,2.071137 -2.337819,7.187651 4.338134,5.515042 5.760227,20.861523 4.787974,51.669313 -0.537834,17.04236 -1.596668,30.116 -2.807654,34.66667 -1.069301,4.01824 -1.951305,8.88699 -1.960009,10.81945 -0.0087,1.93246 -1.009132,6.58915 -2.223172,10.3482 -2.470582,7.64972 -1.898532,9.22203 2.608152,7.16864 2.291292,-1.04397 3.912608,-0.93438 6.338968,0.42851 2.231957,1.25368 7.045002,1.73293 15.260226,1.51951 C 59.738731,204.69078 60.65351,204.46046 60.49655,202 Z M 49.561677,68.460017 c 4.791853,-4.336567 3.077836,-5.793349 -6.816322,-5.793349 -10.359871,0 -12.841719,1.71561 -7.937116,5.486638 3.987078,3.065567 11.531626,3.222412 14.753438,0.306711 z M 48.142376,52.152822 c 2.66148,-2.155136 2.84952,-2.821041 1.317785,-4.666667 -1.349085,-1.625549 -4.19591,-2.152821 -11.623422,-2.152821 -5.410207,0 -9.842149,0.45 -9.84876,1 -0.0067,0.55 1.943389,2.63386 4.333333,4.630799 5.168429,4.318528 11.379572,4.785191 15.821064,1.188689 z M 49.38023,33.943491 c 1.007148,-1.21354 1.210703,-2.509711 0.496592,-3.162143 -1.495937,-1.36673 -21.876823,-3.090486 -21.876823,-1.850277 0,0.493383 1.304588,2.285731 2.899085,3.982995 2.309978,2.458859 4.30885,3.085935 9.83674,3.085935 4.624929,0 7.506614,-0.685555 8.644406,-2.05651 z M 47.333332,18.666667 c -0.453226,-0.733333 -3.453225,-1.333333 -6.666667,-1.333333 -3.213441,0 -6.213441,0.6 -6.666666,1.333333 C 33.487986,19.49512 36.012383,20 40.666665,20 c 4.654283,0 7.17868,-0.50488 6.666667,-1.333333 z"
       id="path213" />
  </g>
</svg>
