<?xml version="1.0" encoding="UTF-8" standalone="no"?>
<!-- Created with Inkscape (http://www.inkscape.org/) -->

<svg
   version="1.1"
   id="svg175"
   width="216"
   height="204"
   viewBox="0 0 216 204"
   xmlns="http://www.w3.org/2000/svg"
   xmlns:svg="http://www.w3.org/2000/svg">
  <defs
     id="defs179" />
  <g
     id="g181">
    <path
       style="fill:#000000;stroke-width:1.33333"
       d="m 96.351988,196.57667 c -4.573073,-1.00223 -9.973073,-2.69491 -12,-3.76151 -6.297041,-3.31361 -16.05786,-14.45977 -19.749344,-22.55236 -3.128961,-6.8594 -3.476804,-9.0566 -3.066009,-19.36696 0.398161,-9.99324 1.081705,-12.8446 4.857524,-20.2628 5.439633,-10.68705 15.067317,-18.69726 26.446677,-22.0036 4.304207,-1.25061 8.973484,-2.69119 10.376174,-3.20129 4.41708,-1.60629 17.81198,1.0465 25.90016,5.1294 9.15556,4.62171 15.34448,11.21621 19.93336,21.23964 4.30111,9.39485 5.06682,16.90386 2.92358,28.67041 -2.72243,14.94633 -7.30107,22.47848 -17.97411,29.56848 -12.83745,8.5278 -21.61917,10.05345 -37.648012,6.54059 z m 15.314682,-8.08372 c 3.78268,-1.01372 3.72626,-2.82091 -0.23946,-7.67031 -3.07911,-3.76521 -3.17379,-3.78751 -4.61871,-1.08765 -1.98903,3.71652 -1.87136,9.60268 0.1915,9.58014 0.91667,-0.0107 3.01667,-0.38 4.66667,-0.82218 z M 98.5862,172.68757 c 2.62363,-8.00785 4.30468,-11.06209 6.78418,-12.32598 3.70946,-1.89083 2.70979,-2.72912 13.62823,11.42816 3.48257,4.51564 6.97872,8.21025 7.76923,8.21025 2.28813,0 9.50617,-7.84283 8.90251,-9.67308 -0.30118,-0.91313 -1.70022,-2.27251 -3.10898,-3.02083 -1.40875,-0.74832 -4.96137,-2.89216 -7.8947,-4.76408 -2.93334,-1.87192 -6.38334,-3.79084 -7.66667,-4.26424 -2.37791,-0.87718 -3.10852,-5.66158 -1.29898,-8.50633 0.54643,-0.85904 4.95098,-3.39361 9.78789,-5.6324 11.87221,-5.49511 13.04018,-7.04468 9.8187,-13.02661 -2.80217,-5.20331 -8.31319,-10.1083 -10.53312,-9.3748 -0.79263,0.26189 -2.33028,2.22807 -3.41698,4.36927 -4.84573,9.5479 -10.01365,16.89102 -12.57592,17.86918 -2.94366,1.12376 -7.44826,-1.66617 -7.44826,-4.61311 0,-3.39421 -8.09007,-18.02964 -9.966295,-18.02964 -2.70405,0 -14.033702,11.02573 -14.033702,13.65724 0,1.33534 4.205516,4.14994 11.414432,7.63924 10.446127,5.05622 11.379275,5.8248 11,9.06006 -0.425172,3.62676 -5.850932,8.24061 -16.146061,13.72997 -7.642513,4.07499 -7.665648,6.07943 -0.147045,12.74015 9.169954,8.12366 10.879606,7.50536 15.131541,-5.47242 z M 78.25712,157.09244 c 2.791917,-1.59916 5.322535,-3.09548 5.623595,-3.32516 0.30106,-0.22968 -0.541934,-1.62128 -1.873318,-3.09244 C 80.503293,149.01283 77.897921,148 75.126683,148 c -4.282144,0 -4.460016,0.20384 -4.460016,5.11111 0,4.40201 0.774708,6.88889 2.146008,6.88889 0.202528,0 2.652528,-1.3084 5.444445,-2.90756 z m 63.07621,-3.23699 c 0,-4.58042 -0.17553,-4.76716 -3.65921,-3.8928 -7.29038,1.82976 -8.38724,5.01944 -2.53768,7.3796 5.19701,2.09688 6.19689,1.53427 6.19689,-3.4868 z M 111.9576,119.57393 c 0.0354,-3.1411 -0.44877,-3.68932 -2.94398,-3.33333 -3.57898,0.51061 -4.57343,4.26585 -2.26963,8.57055 1.55382,2.90333 1.79894,2.9624 3.42245,0.82475 0.96181,-1.26641 1.76783,-3.9943 1.79116,-6.06197 z M 123.85552,62.07774 C 123.42616,61.648384 107.23303,61.010787 87.870769,60.660855 35.361632,59.711863 25.734884,57.891217 12.738825,46.451629 5.0245183,39.661225 2.3756839,34.907143 4.2924091,31.292149 6.4131229,27.292427 13.596651,19.983999 17.333333,18.024481 c 3.54591,-1.859476 18.305604,-1.857461 43.538428,0.006 l 13.538428,0.999791 2.078926,-4.020199 C 78.987045,10.17955 80.596984,9.4813364 92.666667,7.9939859 97.8,7.3614036 107.37443,6.1431675 113.94318,5.2867943 c 6.56875,-0.8563734 18.56875,-1.3372482 26.66666,-1.068611 14.63801,0.4855955 14.79247,0.5252788 26.60325,6.8350787 l 11.87975,6.346647 13.95743,-1.502748 c 10.60424,-1.141721 14.18894,-1.128148 14.92109,0.05649 1.63756,2.64962 2.75784,32.364421 1.287,34.136682 -0.82861,0.998412 -6.53728,1.802616 -15.02665,2.116868 -11.67907,0.432327 -14.24546,0.943388 -17.46846,3.478596 -2.07792,1.634499 -5.94972,3.519959 -8.60398,4.189911 -5.77395,1.457379 -43.18877,3.317001 -44.30375,2.202021 z m 38.81115,-14.547665 c 3.3,-1.312856 11.33794,-3.803582 17.86212,-5.534946 6.52416,-1.731362 12.7562,-4.042026 13.84898,-5.134809 3.53975,-3.539748 0.99632,-5.921611 -7.29514,-6.831737 C 178.28697,29.063112 174.64644,27.7976 168,23.395137 c -8.59692,-5.694428 -32.252,-9.558329 -24.26409,-3.963381 2.98478,2.090633 4.39606,6.197335 2.93957,8.55398 -0.54872,0.887845 -3.17517,1.509264 -5.83657,1.380931 -2.6614,-0.128334 -6.48891,-0.161176 -8.50558,-0.07299 -17.50155,0.765367 -72.12747,-0.05185 -78.999997,-1.181861 -13.357318,-2.196265 -32.141169,-1.864579 -35.703325,0.630452 -4.756861,3.331835 -3.635291,6.556233 4.036659,11.604972 10.409448,6.850225 12.825941,7.914419 20.238814,8.912919 3.718652,0.500896 31.061186,0.853616 60.761189,0.783822 48.5824,-0.114173 54.60196,-0.366377 60,-2.51391 z m -28.87674,-30.27347 c -0.96846,-0.96847 -5.54077,-1.026176 -14.59999,-0.18426 L 106,18.298147 l 14.6,0.18426 c 10.26297,0.12952 14.18113,-0.234608 13.18993,-1.225802 z"
       id="path352" />
  </g>
</svg>
