<?xml version="1.0" encoding="UTF-8" standalone="no"?>
<!-- Created with Inkscape (http://www.inkscape.org/) -->

<svg
   version="1.1"
   id="svg165"
   width="209.33333"
   height="220"
   viewBox="0 0 209.33333 220"
   xmlns="http://www.w3.org/2000/svg"
   xmlns:svg="http://www.w3.org/2000/svg">
  <defs
     id="defs169" />
  <g
     id="g171">
    <path
       style="fill:#000000;stroke-width:1.33333"
       d="m 53.697443,213.09259 c -2.366405,-0.63408 -4.934961,-2.33455 -5.707901,-3.7788 -1.568837,-2.93139 -2.264548,-90.91303 -0.756464,-95.66458 1.744747,-5.49721 8.968962,-6.20099 80.256892,-7.81858 35.84535,-0.81337 37.6026,-0.73806 40.05756,1.7169 2.42168,2.42168 2.58872,5.21953 2.93953,49.23622 0.27755,34.82508 -0.0452,47.58405 -1.27158,50.27577 -1.58428,3.47713 -2.0323,3.60995 -12.42951,3.68497 -5.93228,0.0428 -19.4062,0.37607 -29.94202,0.74058 -18.97096,0.65636 -19.20732,0.62882 -24.46168,-2.84835 -4.428077,-2.93036 -5.133473,-3.99012 -4.264748,-6.40724 0.57249,-1.59288 1.236684,-18.46472 1.47599,-37.49296 0.454988,-36.1785 0.545288,-36.69569 6.406488,-36.69569 6.70963,0 7.17662,2.59009 9.22669,51.17426 0.36858,8.73496 1.14336,16.25804 1.72173,16.71795 0.57837,0.45991 9.15158,0.51312 19.05158,0.11827 l 18,-0.71795 0.35394,-36.72469 0.35394,-36.7247 -4.4486,-1.60864 c -4.77354,-1.72616 -52.3001,-1.99656 -78.259281,-0.44528 l -14,0.83662 0.401829,36 c 0.280484,25.12858 0.97674,38.50541 2.305611,44.29653 2.708159,11.80195 1.241147,14.34032 -7.009996,12.12939 z M 34.050454,72.628784 C 31.579039,69.930628 28.157685,65.08536 26.447442,61.861523 23.671093,56.628053 20,53.983731 20,57.217369 c 0,3.29894 -7.50113,17.534446 -9.588546,18.196966 -8.1003591,2.570954 -6.6074595,-6.006228 5.172851,-29.719672 4.112057,-8.277459 9.646468,-6.759006 14.944927,4.10038 1.486219,3.04606 3.932643,7.03829 5.436498,8.871624 2.67572,3.26194 2.776761,3.2779 4.717609,0.74516 1.09083,-1.423495 1.983327,-3.385418 1.983327,-4.35983 0,-2.081001 6.402376,-12.609432 8.532653,-14.03158 0.807042,-0.53877 2.067347,-0.988124 2.80068,-0.998562 1.499283,-0.02135 10.259835,11.367986 13.369289,17.381009 1.117888,2.161759 2.609574,3.930469 3.314855,3.930469 0.705283,0 3.397417,-4.2 5.982522,-9.333333 2.585106,-5.133333 5.442648,-9.399073 6.350096,-9.479421 0.907447,-0.08035 -1.050096,-0.673262 -4.350096,-1.317586 C 68.72096,39.261099 66.583644,32.500175 72.645504,22.156392 79.427756,10.583354 87.518353,6.5118135 105.33333,5.7064543 c 11.05915,-0.4999491 11.52688,-0.3955934 19.33333,4.3134477 4.4,2.654185 9.59122,6.341446 11.53603,8.193911 4.48229,4.269443 6.72533,12.414422 4.59763,16.694999 -1.62587,3.270963 -8.354,6.223799 -14.46699,6.349265 -4.62584,0.09495 -4.61383,1.53556 0.0586,7.028862 2.04889,2.40885 4.76272,6.029728 6.03074,8.046394 C 133.69068,58.35 135.48273,60 136.40502,60 c 0.92228,0 3.8789,-4.450185 6.57024,-9.8893 7.48564,-15.128209 11.52563,-14.848779 20.24744,1.400443 2.26084,4.212073 4.77464,7.866526 5.58621,8.121005 0.81158,0.25448 3.39944,-3.608649 5.75083,-8.584729 4.92061,-10.413211 6.79372,-12.261995 11.50989,-11.360442 2.61483,0.499858 4.45395,2.743114 7.96523,9.715598 2.51097,4.986124 5.18035,9.445732 5.93193,9.910241 0.7516,0.464509 1.36654,1.935685 1.36654,3.26928 0,1.333595 0.9,3.171652 2,4.084571 4.61137,3.827094 1.08892,11.288449 -4.92662,10.435685 -2.32124,-0.32906 -4.3087,-2.882993 -8.12105,-10.435685 -2.77623,-5.5 -5.48307,-10.152282 -6.01521,-10.338404 -0.53215,-0.186122 -3.23826,4.132193 -6.01358,9.596254 -7.65373,15.068699 -12.12673,14.956075 -19.63754,-0.494448 C 156.09805,60.243532 153.38758,56 152.59608,56 c -0.79151,0 -3.19942,3.684151 -5.35092,8.187001 -7.18503,15.037432 -13.51031,15.555702 -21.23646,1.740038 -3.17117,-5.670575 -5.60758,-8.60323 -6.9265,-8.337287 -1.11902,0.225636 -3.85401,3.901264 -6.07775,8.168063 -4.59981,8.825897 -9.38502,12.829534 -12.77686,10.690017 -1.193372,-0.75276 -4.582777,-5.462784 -7.532011,-10.466721 -5.391195,-9.147183 -8.69558,-12.157295 -8.69558,-7.921191 0,3.190317 -7.734931,16.376552 -10.435688,17.790392 -2.853795,1.493955 -7.599875,-0.282503 -8.747957,-3.27436 -2.170815,-5.657051 -9.479734,-15.310395 -11.32328,-14.95536 -1.097251,0.211311 -3.872509,4.19796 -6.167239,8.859219 -5.644376,11.465356 -7.583197,12.36339 -13.275381,6.148973 z M 109.01546,51.683293 c 2.6678,-4.91062 4.50716,-9.271777 4.08748,-9.691462 -0.41969,-0.419686 -6.37588,-0.589536 -13.235979,-0.377447 L 87.394045,42 l 4.787944,5.333333 c 2.633369,2.933334 5.804907,7.321602 7.047859,9.751706 1.242952,2.430105 2.861822,4.217736 3.597492,3.972513 0.73567,-0.245223 3.52032,-4.463639 6.18812,-9.374259 z M 126.85276,32 c 5.34602,0 4.98649,-3.673708 -0.91976,-9.398268 -4.46365,-4.326339 -5.34126,-4.615639 -15.3856,-5.071776 -16.375581,-0.743655 -22.362248,0.56738 -27.508683,6.024191 -7.281745,7.7209 -6.497765,8.300802 11.961281,8.847646 8.983332,0.266128 18.967072,0.284595 22.186092,0.04104 C 120.40511,32.199275 124.75511,32 126.85276,32 Z"
       id="path491" />
  </g>
</svg>
