<?xml version="1.0" encoding="UTF-8" standalone="no"?>
<!-- Created with Inkscape (http://www.inkscape.org/) -->

<svg
   version="1.1"
   id="svg223"
   width="193.33333"
   height="217.33333"
   viewBox="0 0 193.33333 217.33333"
   xmlns="http://www.w3.org/2000/svg"
   xmlns:svg="http://www.w3.org/2000/svg">
  <defs
     id="defs227" />
  <g
     id="g229">
    <path
       style="fill:#000000;stroke-width:1.33333"
       d="m 10.46511,209.85734 c -1.2108566,-0.36784 -2.9338733,-2.43676 -3.8289265,-4.5976 -2.834668,-6.84349 -0.5659991,-7.92641 16.6055695,-7.92641 9.86335,0 15.690726,-0.56705 17.204806,-1.67417 3.387946,-2.47734 6.318758,-14.8741 6.381494,-26.9925 0.04461,-8.61788 -0.733879,-12.88702 -4.053084,-22.22661 -2.259567,-6.35797 -4.108303,-12.42796 -4.108303,-13.48886 0,-1.06091 -1.154652,-4.85893 -2.565895,-8.44005 -1.411241,-3.58113 -3.600089,-9.38034 -4.864106,-12.88715 -1.264018,-3.5068 -4.684489,-8.8349 -7.601048,-11.840214 C 17.358316,93.315447 9.3333332,76.744225 9.3333332,70.250218 c 0,-5.542987 3.0654358,-13.331462 7.6238848,-19.370308 2.731222,-3.618211 3.226484,-5.461411 2.640787,-9.828112 -0.990109,-7.38182 -2.70864,-8.81878 -7.301865,-6.105495 -5.2668812,3.111223 -8.2961401,1.060415 -8.2961401,-5.616486 0,-7.64332 2.3232032,-11.530952 9.7728931,-16.353887 11.650785,-7.5427291 13.372092,-8.1983626 22.897228,-8.7213925 7.781353,-0.427278 10.594929,0.043723 16.889031,2.8272735 8.583722,3.796129 10.416584,6.10181 14.508747,18.251522 4.573729,13.579498 6.649872,17.520026 12.996106,24.666666 9.460227,10.653377 20.748775,22 21.887395,22 0.57673,0 1.0486,0.812387 1.0486,1.805303 0,0.992917 1.57275,3.502326 3.49499,5.576465 1.92225,2.074138 7.7676,9.211753 12.98968,15.861364 5.22207,6.649609 12.04932,14.779719 15.17166,18.066899 3.12235,3.28719 5.677,6.48486 5.677,7.10594 0,0.62108 3.45,4.53156 7.66667,8.68996 4.21666,4.15841 8.94978,9.06073 10.51805,10.89407 1.56825,1.83333 8.91964,8.73333 16.3364,15.33333 15.89732,14.14665 16.66128,16.49867 7.00955,21.58044 -0.25814,0.13592 0.49186,1.61941 1.66666,3.29668 1.1748,1.67725 2.136,4.12488 2.136,5.43915 0,2.41032 -7.15256,7.66952 -10.44318,7.67874 -2.09703,0.005 -18.76668,6.90938 -25.82098,10.69338 -7.31553,3.92413 -9.94382,3.44162 -12.82834,-2.35506 -11.6299,-23.3713 -20.66014,-37.51629 -24.01344,-37.61466 -1.29212,-0.0379 -1.52704,1.06605 -0.86666,4.07272 3.23072,14.70937 -3.28442,24.68632 -8.85096,13.5539 -5.109932,-10.21925 -8.596182,-11.18234 -7.282959,-2.01196 0.94692,6.61246 1.017043,8.63004 0.448639,12.90844 -0.415907,3.13055 5.28001,4.63363 16.32455,4.30787 4.7846,-0.14113 8.1443,0.46593 9.66667,1.74668 2.46913,2.07723 3.15922,7.36921 1.12491,8.62648 -0.66463,0.41076 -21.51463,1.02144 -46.333329,1.35705 -24.818703,0.33562 -49.624915,0.90332 -55.124915,1.26158 -5.5,0.35825 -10.9907,0.35041 -12.201556,-0.0175 z m 72.372846,-13.94901 c 2.442655,-1.30728 2.593033,-2.32627 1.820097,-12.33333 -0.893761,-11.57139 -2.645572,-16.90834 -5.550028,-16.90834 -1.160981,0 -1.776417,1.72907 -1.779677,5 -0.0068,6.78086 -4.317507,13.66667 -8.555781,13.66667 -2.522972,0 -3.650787,-1.06237 -4.954115,-4.66667 C 62.890332,178.1 61.46549,176 60.652135,176 c -1.341971,0 -7.318803,15.05208 -7.318803,18.43169 0,2.48724 25.254628,3.75116 29.504624,1.47664 z m 72.495374,-6.575 c 4.4,-2.16713 8.97653,-3.95369 10.17008,-3.97012 1.19353,-0.0164 2.95063,-0.9704 3.90465,-2.11993 1.49874,-1.80586 -0.33741,-4.06318 -13.5034,-16.60082 C 142.1934,153.58556 139.59794,151.71492 130,147.97196 c -5.86667,-2.28784 -11.86667,-4.67976 -13.33334,-5.31538 -4.7884,-2.07514 -8.66707,-2.85853 -8.64686,-1.74644 0.0109,0.59943 5.38608,7.58904 11.94485,15.5325 6.55877,7.94345 12.31624,15.67524 12.79439,17.18174 0.47815,1.5065 2.85872,5.34531 5.29017,8.53068 2.43145,3.18538 4.80549,7.00359 5.27565,8.48494 1.1213,3.53286 2.4836,3.38462 12.00847,-1.30667 z m 20.63992,-19.36556 c -0.92763,-1.11772 -1.96117,-1.75764 -2.29677,-1.42204 -0.92466,0.92467 0.95406,3.45427 2.56546,3.45427 0.88414,0 0.78298,-0.76504 -0.26869,-2.03223 z M 70.666665,162.57901 c 0,-6.01263 -0.995789,-8.31756 -7.136302,-16.51819 -2.308367,-3.08282 -6.897031,-11.38817 -10.197031,-18.45635 -6.513794,-13.9517 -9.907915,-16.83001 -8.574191,-7.27114 0.434861,3.11667 1.313449,7.16667 1.952418,9 0.63897,1.83333 2.76826,8.72 4.731757,15.30371 3.134376,10.50972 4.321651,12.6637 9.730006,17.65245 7.797865,7.19284 9.493343,7.24455 9.493343,0.28952 z m 29.846305,-10.13239 c -3.014004,-6.01837 -6.161406,-10.47269 -7.854929,-11.11657 -1.554188,-0.59091 -5.707452,-3.75803 -9.229474,-7.03807 -6.046411,-5.63098 -19.563976,-11.93435 -21.481363,-10.01696 -1.220246,1.22024 4.607727,11.89535 8.905067,16.31143 2.097917,2.15588 3.816796,4.55588 3.819732,5.33333 0.0029,0.77746 2.860417,4.56355 6.349958,8.41355 4.980039,5.49447 7.209445,7 10.365621,7 2.211551,0 6.10407,1.43547 8.650038,3.18993 4.45014,3.06666 4.64596,3.08898 5.06676,0.57776 0.24075,-1.4367 -1.82539,-7.13117 -4.59141,-12.6544 z m 43.48245,-12.77996 c -0.003,-0.18333 -4.50978,-5.13333 -10.01614,-11 C 128.47292,122.8 120.52498,113.55755 116.31719,108.12789 104.1793,92.465361 75.988968,61.509532 72.999524,60.560719 71.197489,59.988775 69.868508,60.42438 69.071728,61.848147 67.36378,64.900082 63.777355,64.517863 58.53051,60.724731 47.465377,52.72535 38.527377,50.781997 30.21577,54.568371 20.127578,59.164074 17.22534,71.732163 24.030482,81.353644 c 9.008507,12.736719 27.33352,25.712386 43.969517,31.134146 3.3,1.07549 10.302428,4.09042 15.56095,6.69985 5.258524,2.60943 13.696825,5.89052 18.751781,7.29132 5.05496,1.4008 11.55253,3.7349 14.43905,5.18687 2.88652,1.45198 7.64822,3.39365 10.58155,4.31481 2.93333,0.92116 5.90333,2.20234 6.6,2.84709 1.09272,1.01129 10.07473,1.76017 10.06209,0.83893 z M 60.774611,46.333333 c -0.478357,-1.65 -1.65572,-6.92976 -2.616363,-11.7328 C 55.706852,22.343992 51.078396,16 44.587654,16 c -1.806997,0 -2.091245,0.815377 -1.432492,4.109149 1.397688,6.988436 -0.844072,9.224184 -9.248987,9.224184 -6.837081,0 -7.23993,0.174524 -5.953087,2.579012 0.759134,1.418456 1.380245,4.482649 1.380245,6.809317 0,3.163819 0.491492,4.041704 1.949538,3.482199 2.661586,-1.021346 20.752829,2.841166 24.050461,5.134816 4.179543,2.907056 6.453718,2.486874 5.441279,-1.005344 z M 24.762308,18.984529 c -0.443714,-0.443713 -1.541738,-0.07177 -2.440051,0.826547 -1.288844,1.288844 -1.213859,1.89538 0.355555,2.876002 1.416829,0.885282 2.118625,0.647554 2.44005,-0.826546 0.248159,-1.138088 0.08816,-2.432288 -0.355554,-2.876003 z"
       id="path251" />
  </g>
</svg>
