<?xml version="1.0" encoding="UTF-8" standalone="no"?>
<!-- Created with Inkscape (http://www.inkscape.org/) -->

<svg
   version="1.1"
   id="svg235"
   width="108"
   height="104"
   viewBox="0 0 108 104"
   xmlns="http://www.w3.org/2000/svg"
   xmlns:svg="http://www.w3.org/2000/svg">
  <defs
     id="defs239" />
  <g
     id="g241">
    <path
       style="fill:#000000;stroke-width:1.33333"
       d="m 44.941108,97.211337 c -4.249056,-0.621582 -9.649056,-2.186052 -12,-3.476597 C 25.421367,89.606792 15.89832,79.571736 11.721759,71.374524 6.9487611,62.006703 6.3582723,51.90566 9.8807935,39.882521 12.575989,30.683227 16.432187,25.346816 26.325689,17.125204 45.844819,0.90458925 70.414245,1.9510235 87.54106,19.732423 98.915627,31.541724 101.53088,40.961656 98.737933,60.062711 96.660532,74.270149 93.581459,79.15302 79.169967,91.094091 75.030249,94.524176 62.759439,98.691713 57.352156,98.504077 54.775137,98.414653 49.190165,97.83292 44.941108,97.211337 Z M 60.702905,86.608032 c 1.130504,-1.829195 -3.109446,-8.250296 -5.025961,-7.611457 -2.411107,0.803701 -4.166245,4.471816 -3.26432,6.822194 0.926259,2.413792 6.932845,2.985639 8.290281,0.789263 z M 43.982728,75.622459 c 4.542087,-12.153506 5.877463,-14.370552 9.150495,-15.192032 2.732688,-0.68586 4.090948,0.01213 7.191065,3.695333 2.102116,2.497499 4.784119,6.54706 5.960007,8.999025 1.175888,2.451966 3.612037,5.129746 5.413666,5.950622 2.914911,1.328122 3.707827,1.008857 7.199294,-2.898774 2.157984,-2.415202 3.738912,-5.3053 3.513176,-6.422437 -0.388367,-1.921968 -5.718783,-5.609492 -15.396914,-10.651416 -4.707678,-2.452516 -6.489064,-5.894168 -4.702853,-9.085951 0.626975,-1.12034 5.463564,-4.109017 10.747977,-6.641504 8.903374,-4.266826 9.608026,-4.91148 9.608026,-8.789924 0,-4.601245 -7.317596,-13.252068 -11.209719,-13.252068 -1.359665,0 -4.198661,4.1448 -7.766435,11.338626 C 55.386273,49.416095 52.366331,49.281096 44.861585,31.830264 41.297804,23.543377 40.087016,21.936276 37.149697,21.594121 34.444765,21.279036 32.584271,22.451208 28.83266,26.83412 22.2193,34.560344 22.467685,37.652723 29.985469,41.186497 33.277476,42.733924 36.508892,44 37.166393,44 c 1.915836,0 8.481835,3.685465 9.499448,5.331999 1.886036,3.051669 -0.339937,8.108969 -4.497732,10.218625 -9.136397,4.635789 -16.914272,10.383031 -16.549914,12.229093 0.209993,1.063954 1.575216,2.598771 3.033829,3.410706 1.458613,0.811934 4.437752,2.792534 6.620308,4.401336 4.554992,3.357564 6.263045,2.579209 8.710396,-3.9693 z M 25.399547,56.632427 c 2.163582,-1.118832 3.933786,-2.897723 3.933786,-3.953088 C 29.333333,50.398575 25.277556,48 21.420988,48 c -2.232676,0 -2.754321,0.841741 -2.754321,4.444444 0,3.979783 0.824734,6.222223 2.288436,6.222223 0.280861,0 2.280861,-0.915408 4.444444,-2.03424 z M 88.595929,53.80714 c 1.219163,-4.857527 -0.401521,-5.908941 -6.262596,-4.062845 -5.682764,1.789934 -6.37452,3.851961 -2,5.961712 4.992904,2.407986 7.315619,1.874193 8.262596,-1.898867 z M 59.193203,19.666667 C 60.019785,16.132624 59.856979,16 54.692069,16 c -2.947305,0 -5.356493,0.45 -5.353752,1 0.0028,0.55 1.245879,3.035435 2.762527,5.523188 2.324456,3.812799 3.030599,4.231612 4.496148,2.666667 0.956233,-1.021087 2.124528,-3.506522 2.596211,-5.523188 z"
       id="path2280" />
  </g>
</svg>
