<?xml version="1.0" encoding="UTF-8" standalone="no"?>
<!-- Created with Inkscape (http://www.inkscape.org/) -->

<svg
   version="1.1"
   id="svg213"
   width="225.33333"
   height="208"
   viewBox="0 0 225.33333 208"
   xmlns="http://www.w3.org/2000/svg"
   xmlns:svg="http://www.w3.org/2000/svg">
  <defs
     id="defs217" />
  <g
     id="g219">
    <path
       style="fill:#000000;stroke-width:1.33333"
       d="m 88.666665,201.13729 c -6.6,-0.70617 -14.099999,-1.81909 -16.666666,-2.47313 -2.566667,-0.65404 -10.085031,-2.42712 -16.707476,-3.94019 -17.576297,-4.01573 -42.043305,-13.70578 -45.190762,-17.89761 -4.2901638,-5.71371 -1.5743274,-9.13064 10.099391,-12.70657 5.389366,-1.6509 11.663248,-3.84075 13.941959,-4.86634 4.126247,-1.8571 21.629351,-5.69433 43.190221,-9.46862 14.888877,-2.60635 60.637908,-1.75554 77.999998,1.4506 12.49444,2.30726 27.79228,6.49269 34.66667,9.48466 2.2,0.95751 5.8,2.17468 8,2.7048 3.84836,0.92734 13.9447,5.76095 15.3296,7.33903 0.36872,0.42016 1.7204,1.15133 3.00373,1.62483 2.7592,1.01802 3.20581,7.89397 0.65048,10.01472 -2.91771,2.42148 -15.74961,6.67398 -32.31715,10.70994 -28.36806,6.91064 -28.28557,6.90052 -71.33333,8.76055 -6.96666,0.30101 -18.066665,-0.0305 -24.666665,-0.73667 z m 62.666665,-12.61361 c 8.8,-1.09741 19.38661,-2.86419 23.52579,-3.92616 4.13918,-1.06197 8.93918,-1.93989 10.66666,-1.95093 3.86568,-0.0247 12.71699,-3.0227 14.65959,-4.9653 2.56765,-2.56765 -6.55349,-7.09394 -19.51871,-9.68601 -2.93333,-0.58644 -9.53333,-1.98959 -14.66666,-3.11809 -23.03988,-5.06507 -35.0189,-5.98631 -62,-4.76812 -26.753558,1.20793 -30.847988,1.73326 -51.333334,6.58638 -6.6,1.56359 -13.928976,3.15995 -16.286612,3.54747 -2.357637,0.38752 -4.946377,1.49956 -5.752756,2.47119 -2.295497,2.7659 -0.1036,3.62582 29.372701,11.5234 28.323128,7.58861 54.863881,8.83414 91.333331,4.28617 z M 33,102.60317 c -3.28997,-1.97729 -2.911374,-6.221222 0.666666,-7.473126 1.65,-0.577311 8.1,-1.118852 14.333333,-1.203425 C 67.977095,93.655571 68.926708,93.503324 73.231032,89.881475 79.078037,84.961544 78.555402,81.4176 70.999999,74.753061 61.807448,66.644411 62.10431,66.822565 53.014695,63.959581 37.914973,59.203575 27.803978,53.0656 23.480662,46.030665 21.35052,42.564481 19.223478,37.849992 18.753901,35.554021 17.945004,31.598951 16.933812,30.761559 7.9999999,26.648455 c -1.1,-0.506438 -2.1819777,-2.135095 -2.404395,-3.619239 -0.2976766,-1.986333 2.2606657,-4.842375 9.6944801,-10.822572 8.48392,-6.8249624 10.574172,-7.9353408 13.071063,-6.9435765 1.634701,0.6493034 5.972185,1.9281789 9.638851,2.8419457 3.666667,0.9137667 8.25929,2.7639528 10.205827,4.1115238 1.946539,1.347571 4.196172,2.45013 4.999187,2.45013 1.207036,0 28.359479,12.961314 36.44356,17.396462 1.273383,0.698612 2.944494,1.270204 3.713578,1.270204 0.769085,0 2.975536,1.03342 4.903224,2.29649 3.679735,2.41106 9.288215,4.589044 29.067955,11.288184 15.048,5.09656 33.25336,6.19541 49.40253,2.98187 18.68502,-3.718148 25.35019,-2.843076 19.89508,2.612028 -1.98412,1.984127 -1.83045,2.154762 1.94048,2.154762 3.39752,0 4.09524,0.528317 4.09524,3.100914 0,1.705503 -1.5,4.510092 -3.33333,6.232419 C 197.5,65.722327 196,68.491505 196,70.153729 c 0,1.662224 -0.6,3.393046 -1.33334,3.846271 -2.35128,1.453171 -1.4303,5.444063 2,8.666667 4.13568,3.885269 4.5181,9.333333 0.65512,9.333333 -1.47301,0 -5.17193,-1.806445 -8.21982,-4.014323 -6.96435,-5.044946 -18.9819,-8.796718 -34.06239,-10.633972 -6.43843,-0.784393 -15.30624,-1.986418 -19.70624,-2.671168 -4.4,-0.68475 -10.76921,-1.244474 -14.1538,-1.243834 l -6.1538,0.0012 -0.81205,6.281066 c -0.44663,3.454585 -1.19243,7.612076 -1.65734,9.238866 -0.83656,2.927251 -0.67509,2.961682 15.63252,3.333334 16.45412,0.374992 16.4778,0.380184 16.4778,3.612936 0,2.359258 -0.93969,3.488718 -3.46432,4.163905 -1.90537,0.50957 -18.40537,1.3224 -36.66666,1.80628 -18.261291,0.48388 -41.302348,1.16136 -51.202347,1.50552 C 41.982398,103.77437 34.471417,103.4875 33,102.60317 Z m 70.06316,-13.552399 c 3.60711,-4.26792 2.29157,-7.666503 -4.875416,-12.595227 C 90.42932,71.120088 87.559525,70.655532 89.196133,75 c 1.310104,3.477748 -0.03315,7.774083 -4.000608,12.795803 l -2.794862,3.53753 5.799668,0.823232 c 7.892448,1.120291 12.020049,0.257772 14.862829,-3.105794 z m 84.05022,-18.825982 c 0.78154,-3.319194 0.72348,-5.587917 -0.16573,-6.477141 -0.84017,-0.840169 -12.61319,-1.441775 -30.49147,-1.558123 C 124.24645,61.979911 112,62.492965 112,64.051977 c 0,1.140631 5.78215,1.869792 30.66666,3.867234 18.43734,1.479936 26.34626,2.897246 33.33334,5.973466 7.11486,3.132482 9.71416,2.274607 11.11338,-3.667888 z m -85.82696,-4.803801 c 2.09085,-3.90678 1.86458,-4.091321 -4.953088,-4.039704 l -6.333333,0.04795 4,3.27876 c 4.829157,3.958412 5.513678,4.025393 7.286421,0.712994 z M 44.42551,49.939892 c -6.651908,-5.578072 -9.264768,-11.972449 -6.959536,-17.03188 1.720789,-3.776723 3.440152,-4.762785 10.85936,-6.227893 3.265251,-0.644806 5.757037,-0.42639 7.203701,0.631437 2.753464,2.013383 1.286711,4.674319 -2.607725,4.730848 -3.254043,0.04724 -7.587977,2.860059 -7.587977,4.924775 0,3.44281 5.94711,8.175961 14.233646,11.32819 11.008724,4.18776 27.85429,6.371298 49.153331,6.371298 13.75705,0 15.52244,-0.24075 13.24303,-1.80598 -2.4925,-1.711559 -4.10067,-2.203 -15.34429,-4.689083 C 104.0262,47.598296 91.1262,41.860908 77.952387,35.421853 32.611145,13.260101 35.057022,14.286131 36.493773,18.030241 c 0.428492,1.116634 -0.337464,3.146783 -1.702126,4.511444 -3.162006,3.162007 -9.233607,2.197654 -10.815242,-1.717788 -0.989809,-2.450336 -1.151889,-2.498956 -1.225224,-0.367536 -0.04648,1.350999 1.115485,3.981914 2.582152,5.846478 C 26.8,28.167404 28,31.072981 28,32.759679 c 0,7.754461 4.283804,13.471777 14.058061,18.762385 7.813762,4.229432 8.63965,3.677489 2.367449,-1.582172 z"
       id="path390" />
  </g>
</svg>
