<?xml version="1.0" encoding="UTF-8" standalone="no"?>
<!-- Created with Inkscape (http://www.inkscape.org/) -->

<svg
   version="1.1"
   id="svg203"
   width="70.666664"
   height="213.33333"
   viewBox="0 0 70.666664 213.33333"
   xmlns="http://www.w3.org/2000/svg"
   xmlns:svg="http://www.w3.org/2000/svg">
  <defs
     id="defs207" />
  <g
     id="g209">
    <path
       style="fill:#000000;stroke-width:1.33333"
       d="M 24.737156,202.74456 C 20.031986,197.5454 18.470315,176.34868 20.851197,150 22.478655,131.98928 21.93765,129.44014 16.074082,127.49094 9.4979902,125.30487 7.8423844,121.8427 11.814378,118.58313 13.545619,117.16241 16.465566,116 18.303147,116 c 2.989874,0 3.239611,-0.38541 2.375922,-3.66667 -2.152308,-8.17687 -2.204974,-18.988479 -0.127311,-26.13539 2.847801,-9.796095 2.889009,-24.864608 0.068,-24.864608 -2.197114,0 -8.697716,-3.765409 -10.200184,-5.908356 -1.5196895,-2.167507 0.99965,-5.101683 5.700507,-6.639154 3.626888,-1.186217 4.738073,-2.482185 6.061416,-7.069392 0.891216,-3.089296 2.234853,-6.389296 2.98586,-7.333333 0.751006,-0.944038 3.386906,-4.116431 5.857557,-7.049764 C 33.495561,24.4 36.873675,19.3 38.531828,16 42.26964,8.5611381 46.109949,5.4014182 51.460014,5.362981 c 4.369947,-0.031396 8.539984,3.3735097 8.539984,6.973039 0,1.169325 -1.561719,3.982044 -3.470487,6.250485 -3.59484,4.272225 -7.19618,14.130397 -7.19618,19.698554 0,1.757018 -1.217807,5.867831 -2.706238,9.13514 -2.040667,4.47954 -2.368587,6.571471 -1.333333,8.505859 2.118888,3.959178 1.553597,13.312788 -1.293762,21.407274 -3.530217,10.035724 -3.45169,10.899131 0.842776,9.266377 9.079272,-3.451933 12.655642,2.808892 12.17202,21.308451 l -0.348129,13.31668 4.510851,3.77803 c 3.470866,2.90699 4.304523,4.42811 3.615911,6.59773 -1.608108,5.0667 -4.625107,4.6637 -11.212105,-1.49766 -5.707169,-5.33839 -6.506948,-5.69862 -8.849278,-3.98587 C 43.315762,127.15268 41.14067,128 39.898505,128 c -1.242164,0 -3.28286,1.5634 -4.53488,3.47422 -2.583956,3.94362 -2.254226,10.06262 1.175599,21.81635 1.48524,5.0898 2.125937,12.73707 2.122457,25.33333 -0.0043,15.63454 -0.35763,18.62115 -2.647069,22.3761 -3.070649,5.03622 -7.656526,5.74564 -11.277456,1.74456 z M 47.894736,109 c -0.0579,-6.05 -0.292882,-10.400002 -0.522192,-9.666668 -5.001495,15.994728 -5.102834,16.746478 -2.52109,18.701988 1.365032,1.03393 2.631878,1.89895 2.815211,1.92227 C 47.849998,119.98092 47.95263,115.05 47.894736,109 Z M 37.542015,99.939361 c 0.25189,-3.634228 0.128517,-6.607314 -0.274166,-6.606858 -1.236144,0.0014 -3.934517,8.637307 -3.934517,12.592087 0,6.63983 3.698148,1.38064 4.208683,-5.985229 z m -2.87535,-22.52734 c 0,-1.423388 0.6,-2.958797 1.333334,-3.412022 1.6931,-1.046393 1.761725,-11.333333 0.0756,-11.333333 -2.569248,0 -5.408938,6.105749 -5.408938,11.630008 0,4.180733 0.53393,5.703325 1.999999,5.703325 1.1,0 2,-1.16459 2,-2.587978 z m 3.179987,-34.031778 c 1.184341,-1.807532 2.153346,-5.180998 2.153346,-7.496592 0,-3.765808 -0.232889,-4.01703 -2.206538,-2.380245 -2.190004,1.816213 -5.793461,9.147639 -5.793461,11.787101 0,2.58672 3.690093,1.381064 5.846653,-1.910264 z"
       id="path529" />
  </g>
</svg>
