<?xml version="1.0" encoding="UTF-8" standalone="no"?>
<!-- Created with Inkscape (http://www.inkscape.org/) -->

<svg
   version="1.1"
   id="svg193"
   width="68"
   height="216"
   viewBox="0 0 68 216"
   xmlns="http://www.w3.org/2000/svg"
   xmlns:svg="http://www.w3.org/2000/svg">
  <defs
     id="defs197" />
  <g
     id="g199">
    <path
       style="fill:#000000;stroke-width:1.33333"
       d="m 28.247528,208.96492 c -5.282544,-6.36508 -7.808348,-50.87003 -3.410451,-60.09252 1.651536,-3.46329 1.886404,-5.78511 0.982434,-9.71189 -1.012611,-4.39874 -2.120294,-5.60716 -7.503744,-8.18623 C 13.720555,128.77284 12,127.17835 12,125.12127 c 0,-3.17148 3.467708,-6.348 7,-6.4122 2.716512,-0.0494 3.067163,-2.77362 0.666667,-5.17942 -1.187807,-1.19044 -1.676662,-7.6589 -1.701452,-22.513378 L 17.930429,70.173252 14.213304,69.17914 C 8.8140324,67.735152 6.6666667,65.496795 6.6666667,61.312725 6.6666667,57.289915 8.6355207,56 14.775716,56 c 2.140023,0 3.890951,-0.639445 3.890951,-1.420988 0,-2.150172 -2.662444,-6.875579 -5.833285,-10.353135 -2.792356,-3.06246 -2.795907,-3.134857 -0.245209,-5 1.423495,-1.040898 3.973495,-1.892544 5.666667,-1.892544 3.819583,0 3.871547,-1.298838 0.236836,-5.919625 -1.562912,-1.986921 -3.131081,-6.180344 -3.484823,-9.318719 -0.562016,-4.986193 -0.163146,-6.151232 3.161367,-9.233896 4.895704,-4.5395525 10.370349,-4.6469011 13.244947,-0.259711 2.650853,4.045714 1.57782,7.852387 -2.77213,9.834357 -4.023888,1.833406 -4.099864,2.864236 -0.544264,7.384449 3.4905,4.437451 8.701076,4.706131 9.95155,0.513145 0.786133,-2.635997 2.715096,-7.151613 7.679725,-17.977906 1.453059,-3.1686622 5.365451,-5.0730547 7.593353,-3.6961343 2.343792,1.4485423 1.458212,9.2734823 -1.821101,16.0911703 -4.866893,10.11826 -9.81368,23.385665 -10.743992,28.815649 -0.626787,3.658395 -0.154673,6.022568 1.863821,9.333333 3.385627,5.553156 3.402564,9.346095 0.0848,18.989359 l -2.628409,7.639605 3.984203,-0.875078 c 3.377642,-0.741855 4.707422,-0.151858 8.734693,3.875413 l 4.750492,4.750492 -0.790116,10.360384 c -1.081855,14.18578 -1.090841,20.05725 -0.04084,26.68223 1.071847,6.76284 -1.224388,8.48643 -6.607227,4.95946 -2.557522,-1.67575 -3.441058,-3.39332 -3.441058,-6.6893 0,-5.85627 -1.367988,-6.43943 -5.36736,-2.28806 -4.325039,4.48942 -4.407099,6.37988 -1.018871,23.47242 2.633332,13.28432 2.743429,15.84408 1.372348,31.90679 -1.149025,13.46124 -2.074685,18.24908 -4.038831,20.89029 -2.942108,3.9563 -7.171521,5.03616 -9.366425,2.39147 z m 3.329957,-46.54825 c -0.425634,-1.06364 -0.741577,-0.74771 -0.805556,0.80556 -0.05789,1.40554 0.257238,2.19305 0.700294,1.75 0.443054,-0.44307 0.490424,-1.59307 0.105266,-2.55556 z m 15.231148,-47.757 c 0.509055,-1.82949 0.985362,-5.91175 1.05846,-9.07169 0.16412,-7.094676 -2.179794,-6.271152 -3.372041,1.18475 -0.464928,2.9075 -1.366513,5.60848 -2.003521,6.00218 -0.63701,0.39369 -1.158198,1.92439 -1.158198,3.40154 0,3.84898 4.314872,2.65366 5.4753,-1.51678 z M 36,102.66667 c 0,-0.73334 -0.6,-1.33334 -1.333333,-1.33334 -0.733334,0 -1.333334,0.6 -1.333334,1.33334 0,0.73333 0.6,1.33333 1.333334,1.33333 C 35.4,104 36,103.4 36,102.66667 Z M 31.666667,86.936619 c 1.65,-3.492282 3,-8.602791 3,-11.356688 0,-4.53542 -0.242694,-4.877202 -2.576367,-3.628258 -1.417003,0.758356 -2.867855,2.429467 -3.224116,3.713579 -1.403644,5.059313 -2.329281,17.666747 -1.295459,17.644524 0.602768,-0.01293 2.445942,-2.880877 4.095942,-6.373157 z m 0.08856,-38.039444 c 0.3391,-2.864415 -0.127046,-3.563842 -2.375176,-3.563842 -3.455588,0 -4.922087,3.338676 -2.662438,6.061387 2.340551,2.820191 4.537003,1.731235 5.037616,-2.497545 z"
       id="path668" />
  </g>
</svg>
