<?xml version="1.0" encoding="UTF-8" standalone="no"?>
<!-- Created with Inkscape (http://www.inkscape.org/) -->

<svg
   version="1.1"
   id="svg183"
   width="213.33333"
   height="217.33333"
   viewBox="0 0 213.33333 217.33333"
   xmlns="http://www.w3.org/2000/svg"
   xmlns:svg="http://www.w3.org/2000/svg">
  <defs
     id="defs187" />
  <g
     id="g189">
    <path
       style="fill:#000000;stroke-width:1.33333"
       d="m 34.746554,210.33333 c -0.657951,-1.65 -1.526257,-4.05 -1.929568,-5.33333 -1.0298,-3.27682 -4.422464,-2.90235 -9.060145,1 -4.605228,3.87504 -6.449784,4.07772 -11.823054,1.29909 C 7.9576071,205.24293 6.4333562,199.79228 9.3333332,198 c 2.1457048,-1.32612 1.5610398,-3.15299 -2,-6.24927 -4.6849291,-4.07349 -4.1674854,-7.46652 2.1148609,-13.86777 4.9542079,-5.04796 5.2875459,-5.80854 3.6763929,-8.3884 -4.1316082,-6.61576 4.926701,-10.90224 10.450365,-4.94522 1.759797,1.89786 3.805146,3.45066 4.54522,3.45066 2.73655,0 9.213161,-4.12715 9.213161,-5.87099 0,-0.99137 0.917768,-2.56417 2.039485,-3.49512 2.511481,-2.08435 8.627181,0.22799 8.627181,3.26192 0,2.35159 5.037552,6.10419 8.194375,6.10419 1.24723,0 4.124444,-1.56236 6.393809,-3.4719 6.607832,-5.56013 12.651789,-2.48094 10.740503,5.4719 -0.17624,0.73333 -0.605387,2.33788 -0.953659,3.56566 -0.421593,1.48627 0.685593,2.91432 3.312861,4.27294 5.829047,3.01432 33.488722,1.96098 48.312112,-1.83982 23.83306,-6.11093 29.65092,-6.97445 41.71662,-6.19186 24.54074,1.59173 43.61671,7.62768 43.61671,13.80104 0,2.08308 -9.2288,11.04241 -11.38475,11.05233 -0.76161,0.004 -3.76161,1.28047 -6.66666,2.83768 -4.68486,2.51125 -7.54272,2.84129 -25.28192,2.91965 -13.64167,0.0603 -20.97464,-0.44206 -23.06571,-1.58005 -1.68615,-0.91761 -5.58615,-1.95813 -8.66667,-2.31225 -3.08053,-0.35411 -9.20096,-1.19435 -13.60096,-1.8672 -4.4,-0.67284 -15.22363,-1.35596 -24.052508,-1.51804 -13.553697,-0.24882 -16.874553,0.10653 -21.333333,2.28261 -4.999585,2.44005 -5.267465,2.8782 -5.030044,8.22724 0.235404,5.30359 -0.0099,5.71979 -4,6.78941 -5.487547,1.471 -7.241631,0.75718 -9.667663,-3.93425 -1.09171,-2.11113 -2.569518,-3.83843 -3.284019,-3.83843 -1.954362,0 -6.632427,5.07183 -6.632427,7.19068 0,4.39642 -10.194484,4.8035 -11.920112,0.47599 z m 17.253445,-19 4.666667,-1.79712 -5.511159,-0.10147 c -4.353757,-0.0801 -5.658566,-0.66513 -6.21307,-2.78556 -0.46411,-1.77476 0.160789,-3.14581 1.844492,-4.0469 1.400522,-0.74951 2.546404,-1.91447 2.546404,-2.58878 0,-1.88597 -8.187696,-2.88502 -12.666667,-1.54558 l -4,1.19621 3.666667,1.46827 c 6.614534,2.64869 3.178225,8.20093 -5.075604,8.20093 -3.034823,0 -3.329811,0.30657 -1.924396,2 2.112953,2.54595 16.055489,2.54595 22.666666,0 z m 134.585961,-5.11 c 3.55605,-1.49521 3.91804,-2.03181 2.28493,-3.38717 -1.31541,-1.0917 -7.21792,-1.54716 -18.32297,-1.4139 C 154.0727,181.61997 148,182.9105 148,186.21402 c 0,2.51876 32.59901,2.52663 38.58596,0.009 z M 79.52476,75.76926 C 76.2158,70.647583 73.963242,42.092521 75.914169,29.998794 76.805515,24.473377 77.15038,18.202338 76.680536,16.063153 75.230672,9.4619641 78.896351,7.2347296 92.785087,6.2781674 109.92538,5.0976599 125.51028,6.0001971 130.24259,8.4473684 c 5.12145,2.6484026 5.72993,6.9962216 5.74582,41.0560376 0.0107,21.468921 -0.28693,25.084876 -2.18992,26.666666 -1.64815,1.369975 -8.49377,1.939497 -27.23537,2.265855 -24.962723,0.434688 -25.039565,0.427109 -27.03836,-2.666667 z m 43.28945,-8.613713 c 2.10426,-2.535477 2.83616,-35.301087 0.96759,-43.317245 -1.10152,-4.725549 -1.28863,-4.84516 -8.78698,-5.617178 -7.51012,-0.77323 -25.574211,-0.08617 -26.674947,1.014557 -0.306897,0.306896 -0.608156,10.467941 -0.669464,22.5801 -0.08017,15.839867 0.358026,22.587815 1.560948,24.037247 1.656715,1.99622 7.039336,2.732952 23.625383,3.233662 6.15159,0.185708 8.6166,-0.291396 9.97747,-1.931143 z"
       id="path807" />
  </g>
</svg>
