<?xml version="1.0" encoding="UTF-8" standalone="no"?>
<!-- Created with Inkscape (http://www.inkscape.org/) -->

<svg
   version="1.1"
   id="svg173"
   width="220"
   height="208"
   viewBox="0 0 220 208"
   xmlns="http://www.w3.org/2000/svg"
   xmlns:svg="http://www.w3.org/2000/svg">
  <defs
     id="defs177" />
  <g
     id="g179">
    <path
       style="fill:#000000;stroke-width:1.33333"
       d="m 56,201.25644 c -20.580059,-1.59104 -26.962465,-4.19269 -39.807752,-16.22676 -5.1607,-4.83477 -5.726723,-5.94029 -5.080462,-9.92273 0.848243,-5.22711 4.651186,-10.46344 10.637213,-14.64656 5.050854,-3.52962 13.951168,-4.02787 43.248105,-2.42107 l 18.997104,1.04189 1.402579,-4.02344 c 1.354522,-3.88558 1.80003,-4.07277 13.002896,-5.46336 16.569027,-2.05668 43.716347,-4.28508 52.044867,-4.27213 7.2294,0.0107 22.39429,5.14293 32.19909,10.89595 4.19543,2.46168 5.96352,2.6347 18.31795,1.79262 l 13.67432,-0.93204 1.3487,3.5474 c 1.57387,4.13959 1.78972,27.28216 0.27667,29.66334 -0.67999,1.07014 -5.4676,1.68925 -14.0568,1.81773 -11.88261,0.17773 -13.38163,0.49441 -17.083,3.60892 -2.23159,1.87775 -6.84683,3.95652 -10.25612,4.61947 -8.16728,1.5882 -100.936961,2.30681 -118.86536,0.92077 z m 118,-12.05537 c 2.2,-1.17276 5.8,-3.0863 8,-4.25231 2.2,-1.166 8.35,-2.81097 13.66667,-3.65548 l 9.66666,-1.53545 v -4.36643 -4.36643 l -9.23036,-0.66042 c -7.15726,-0.5121 -10.95129,-1.63167 -16.8928,-4.98484 -13.46006,-7.59639 -19.62173,-8.68378 -46.87684,-8.27264 -10.04341,0.15149 -15,0.71948 -15,1.71886 0,1.0602 3.95924,1.24306 13.66667,0.63118 14.83315,-0.93495 23.92904,0.95393 24.77677,5.14524 1.18354,5.85161 -0.0679,5.98741 -48.893,5.30569 -80.263259,-1.12068 -77.831143,-1.18568 -80.534103,2.15233 -3.278642,4.04895 -3.075254,4.59492 3.317,8.90394 14.408104,9.71249 20.634284,10.36902 98.333333,10.36902 35.93491,0 42.57763,-0.30792 46,-2.13226 z M 98.666667,62.619196 C 93.9,62.083403 86.1,61.559132 81.333333,61.454152 65.910701,61.114488 26.252136,49.995883 9.7113367,41.374336 -0.25957628,36.177205 1.1744648,28.820565 12.816914,25.442703 16.400945,24.402856 23.551324,21.859396 28.706647,19.790569 37.585927,16.227321 42.449519,14.908032 58,11.84451 65.738576,10.319972 69.429525,9.8833732 92.012937,7.821152 c 21.241323,-1.9396676 50.860653,0.1901013 68.548573,4.928963 6.65784,1.783737 13.30516,3.265032 14.77182,3.291764 1.46667,0.02673 5.06667,1.207888 8,2.624788 2.93334,1.4169 5.82178,2.596541 6.41878,2.621425 0.59698,0.02488 4.19698,1.448415 8,3.163405 3.803,1.71499 8.82873,3.9456 11.16828,4.956911 4.05085,1.751051 5.68782,4.48098 5.72808,9.552532 0.0216,2.724509 -10.3739,7.969967 -21.55363,10.875716 -4.16451,1.082405 -8.66451,2.540041 -10,3.239191 -6.5538,3.431002 -64.87227,11.866277 -74.12003,10.720837 C 108.072,63.68486 103.43333,63.154991 98.666667,62.619196 Z M 142.33333,49.406069 c 17.11964,-3.438772 21.24436,-4.205074 25,-4.644584 2.2,-0.257458 8.38923,-1.434116 13.75384,-2.614796 C 186.45177,40.966011 191.10177,40 191.42051,40 191.73923,40 192,38.914677 192,37.588173 c 0,-5.067434 -3.27235,-6.940653 -18,-10.303889 -8.06667,-1.842121 -16.50927,-3.93468 -18.76133,-4.650131 -2.25207,-0.71545 -9.45207,-1.351449 -16,-1.41333 -6.54794,-0.06188 -15.50534,-0.58172 -19.90534,-1.155198 -8.53799,-1.112808 -48.512691,1.608706 -56.666663,3.857918 C 60.1,24.631539 53.5,26.331249 48,27.700677 36.629159,30.531869 32,32.676588 32,35.113579 32,38.418379 35.300244,40 42.196113,40 c 4.901863,0 8.87275,0.997816 13.265254,3.333333 4.608393,2.450307 8.314949,3.333334 13.991862,3.333334 4.247499,0 8.093546,0.6 8.546771,1.333333 0.453225,0.733333 3.638635,1.367911 7.078689,1.410173 3.440055,0.04227 8.654644,0.589171 11.587978,1.215355 6.726463,1.435908 36.390733,0.643769 45.666663,-1.219459 z"
       id="path946" />
  </g>
</svg>
