<?xml version="1.0" encoding="UTF-8" standalone="no"?>
<!-- Created with Inkscape (http://www.inkscape.org/) -->

<svg
   version="1.1"
   id="svg233"
   width="218.66667"
   height="90.666664"
   viewBox="0 0 218.66667 90.666664"
   xmlns="http://www.w3.org/2000/svg"
   xmlns:svg="http://www.w3.org/2000/svg">
  <defs
     id="defs237" />
  <g
     id="g239">
    <path
       style="fill:#000000;stroke-width:1.33333"
       d="M 90.000001,83.932987 C 77.657763,82.712147 60.54443,78.377214 53.527651,74.69427 42.102311,68.697377 20,51.353538 20,48.384889 20,47.922019 19.003268,46.441931 17.785042,45.095805 16.566814,43.749679 14.916814,41.538227 14.118375,40.181467 13.319935,38.824706 10.968496,35.164454 8.8929549,32.047572 3.6999422,24.249125 2.898117,18.435215 6.516568,14.816765 9.5380556,11.795278 12.666195,11.17519 14,13.333333 c 1.420086,2.297745 5.782067,1.453795 6.651966,-1.287014 1.015156,-3.198471 8.563405,-4.9168528 12.453316,-2.8350353 3.548425,1.8990593 11.282707,1.8673953 13.204159,-0.054057 1.487854,-1.4878541 46.955988,-2.3440806 124.141549,-2.3377533 25.81623,0.00212 31.88268,0.3673626 35.60805,2.1438708 5.67191,2.7047428 6.2255,4.2453198 4.46884,12.4363248 -1.78378,8.317518 -9.27689,19.631912 -21.85956,33.007369 -8.07992,8.589003 -11.7645,11.341829 -21.54108,16.093752 -6.48665,3.152852 -13.2939,6.512016 -15.12724,7.46481 -1.83333,0.952795 -6.03333,2.169992 -9.33333,2.704882 -3.3,0.53489 -6.9,1.421582 -8,1.970428 -3.18145,1.587381 -32.96986,2.449074 -44.666669,1.292077 z m 8.30921,-12.464421 c 0.443481,-0.443481 -1.094667,-3.45342 -3.418107,-6.688752 -2.32344,-3.235333 -4.224436,-6.441344 -4.224436,-7.124469 0,-0.683125 -1.2,-2.328032 -2.666667,-3.655347 -3.399682,-3.07667 -3.478233,-9.94197 -0.161989,-14.15789 1.377572,-1.7513 3.721151,-5.350012 5.207953,-7.997138 1.486802,-2.647126 3.486984,-6.067872 4.44485,-7.601659 0.957865,-1.533786 1.464287,-3.061928 1.12538,-3.39587 -1.051507,-1.036107 -23.785678,-1.455735 -24.78395,-0.457464 -1.50168,1.501681 -7.815988,1.092945 -9.525537,-0.616604 -1.191059,-1.191059 -2.773614,-1.15942 -6.692079,0.13379 -4.095116,1.351511 -8.180034,1.371658 -20.216244,0.09971 -16.093039,-1.70066 -17.330565,-1.377137 -17.377967,4.543063 -0.04279,5.343634 15.295675,24.348739 23.608801,29.252463 1.427438,0.842012 5.909963,3.745089 9.961166,6.451281 6.689433,4.468522 16.425235,8.676469 27.076283,11.702741 4.2387,1.204337 16.283413,0.871275 17.642543,-0.487855 z m 31.769289,-0.09283 c 1.42349,-1.076677 4.7647,-1.976677 7.42492,-2 2.6602,-0.02332 5.53237,-0.880592 6.38258,-1.905044 0.85023,-1.024452 4.59052,-2.858501 8.31179,-4.075665 19.4758,-6.370212 45.13555,-30.511396 45.13555,-42.464384 v -3.175587 l -35.66667,0.442376 C 142.05,18.440742 123.45,18.64019 120.33334,18.640654 c -7.67544,0.0011 -7.42716,2.116263 1.66666,14.198502 4.03334,5.358768 7.33334,10.43954 7.33334,11.290604 0,1.802016 -13.24973,21.656145 -14.89178,22.314682 -0.60953,0.244445 -1.10822,1.558225 -1.10822,2.919513 0,1.87821 1.20574,2.601194 5,2.998086 2.75,0.287658 5.93532,0.623877 7.07849,0.747153 1.14317,0.12328 3.24317,-0.65678 4.66667,-1.733458 z M 110.21224,52.999998 c 5.80433,-6.181867 6.0476,-7.958043 2.13102,-15.55913 -4.99619,-9.696326 -7.41471,-9.024897 -11.73308,3.257332 -2.251549,6.403824 -2.251433,6.916557 0.003,11.666666 1.2967,2.732656 3.0716,4.968466 3.94418,4.968466 0.87259,0 3.41744,-1.95 5.65521,-4.333334 z"
       id="path261" />
  </g>
</svg>
