<?xml version="1.0" encoding="UTF-8" standalone="no"?>
<!-- Created with Inkscape (http://www.inkscape.org/) -->

<svg
   version="1.1"
   id="svg223"
   width="212"
   height="145.33333"
   viewBox="0 0 212 145.33333"
   xmlns="http://www.w3.org/2000/svg"
   xmlns:svg="http://www.w3.org/2000/svg">
  <defs
     id="defs227" />
  <g
     id="g229">
    <path
       style="fill:#000000;stroke-width:1.33333"
       d="m 85.614973,140.28261 c -11.581166,-0.35912 -12.479088,-0.59049 -13.834197,-3.56463 -2.727175,-5.9855 -0.204252,-12.51137 7.984892,-20.65399 6.976916,-6.93728 8.275688,-7.65339 16.637629,-9.17365 22.489623,-4.08876 46.330783,8.65086 46.242953,24.71011 -0.0405,7.40761 -0.79864,7.67747 -23.59718,8.39955 -11.57699,0.36666 -26.622333,0.49384 -33.434097,0.28261 z m 40.718357,-7.81326 c 6.03961,-0.72544 7,-1.23842 7,-3.73895 0,-3.36417 -5.32135,-8.74243 -11.97936,-12.10746 -6.71332,-3.39299 -21.746254,-3.03902 -29.699197,0.6993 -7.112848,3.34343 -9.776958,5.99513 -11.017496,10.96618 l -0.90382,3.62175 15.133272,0.42657 c 8.323301,0.23462 17.233271,0.54961 19.799941,0.69999 2.56666,0.15038 7.81666,-0.10494 11.66666,-0.56738 z M 30.98784,43.51488 C 29.331151,42.694814 27.679621,41.118484 27.317775,40.011926 26.592349,37.793518 19.676769,34.424002 11.137977,32.128554 8.0971971,31.311114 5.2608057,29.734173 4.8348848,28.624241 3.8822732,26.141775 8.4511741,21.333333 11.762584,21.333333 c 1.336087,0 6.716257,-2.953273 11.955933,-6.562831 13.156262,-9.0632072 14.062592,-9.2326727 19.356675,-3.619309 2.420628,2.566613 6.168967,5.028383 8.329641,5.470599 2.160675,0.442217 5.885663,1.424646 8.277751,2.183178 4.502044,1.4276 16.974163,-0.275568 22.129408,-3.021946 1.363261,-0.726258 10.063261,-2.501513 19.333338,-3.945012 17.03172,-2.6521139 58.29548,-3.7878109 70.188,-1.9317752 19.81427,3.0923632 25.76151,4.6980412 32.33334,8.7295832 4.55541,2.794552 5.45936,5.43647 2.65616,7.762929 -2.34834,1.948937 -13.06844,5.558538 -16.57747,5.581846 -1.60672,0.01067 -3.24652,0.545607 -3.644,1.188744 -1.47377,2.384602 -13.96888,4.390688 -34.08045,5.471609 -23.28297,1.251371 -49.4583,-0.788197 -68.401955,-5.329843 C 77.595196,31.866939 69.966667,30.677087 66.666667,30.666989 58.7765,30.642842 46.599199,36.374196 43.660143,41.495206 41.273029,45.654512 36.762549,46.373379 30.98784,43.51488 Z m 9.50662,-12.213581 c 0.428871,-1.117617 2.092892,-2.517789 3.697825,-3.111493 l 2.918062,-1.07946 -2.854592,-2.854592 c -4.302131,-4.30213 -9.011454,-4.983193 -14.436187,-2.087761 -7.665457,4.09141 -8.017755,5.381472 -2.264027,8.290544 6.32733,3.199082 11.895542,3.561762 12.938919,0.842762 z m 126.17221,-3.203696 c 16.10368,-2.426014 19.52924,-3.3721 17.33333,-4.78718 -7.6516,-4.930818 -32.10429,-6.06611 -69.92458,-3.246463 -29.925875,2.231086 -34.015301,5.815607 -9.80121,8.591085 15.28466,1.751962 49.06628,1.450142 62.39246,-0.557442 z"
       id="path400" />
  </g>
</svg>
