<?xml version="1.0" encoding="UTF-8" standalone="no"?>
<!-- Created with Inkscape (http://www.inkscape.org/) -->

<svg
   version="1.1"
   id="svg213"
   width="153.33333"
   height="206.66667"
   viewBox="0 0 153.33333 206.66667"
   xmlns="http://www.w3.org/2000/svg"
   xmlns:svg="http://www.w3.org/2000/svg">
  <defs
     id="defs217" />
  <g
     id="g219">
    <path
       style="fill:#000000;stroke-width:1.33333"
       d="m 136.72346,195.66667 c -1.2915,-3.11667 -2.89314,-7.06796 -3.55917,-8.78064 -3.68983,-9.4882 -4.85274,-57.85625 -1.6883,-70.21936 2.00679,-7.84028 2.84113,-13.93446 5.72977,-41.851826 1.57773,-15.24803 0.0157,-26.185058 -5.02017,-35.151071 -1.41816,-2.52492 -2.79008,-5.466612 -3.0487,-6.537094 -0.91456,-3.785492 -15.52221,-15.619729 -20.41278,-16.537205 -13.440151,-2.521388 -29.969204,4.459238 -41.970027,17.724977 -6.815124,7.533452 -8.701686,10.731035 -11.454376,19.414323 -1.812503,5.717492 -4.126781,12.017492 -5.14284,14 -2.278739,4.446214 -4.092964,26.090877 -2.818957,33.631646 l 0.938804,5.55674 2.320969,-3.81653 C 59.739424,88.068243 80.01357,82.856856 85.186302,94.209768 90.45347,105.76994 82.283266,118.8391 68.681068,120.61175 c -3.674588,0.47887 -8.031069,1.20218 -9.681069,1.60734 -3.40451,0.836 -3.986382,4.63577 -1.079344,7.0484 3.118828,2.58839 9.30345,20.19278 9.605476,27.34177 0.307352,7.27506 -3.6048,20.39792 -7.912515,26.5416 -3.325539,4.74289 -9.734784,7.51581 -17.371828,7.51581 -9.027897,0 -13.148033,-2.12483 -17.575122,-9.06379 -3.678705,-5.76594 -3.977842,-7.12633 -3.72415,-16.93621 0.322842,-12.48388 3.949142,-25.03295 9.775659,-33.82939 2.217471,-3.34777 3.857948,-7.0057 3.645507,-8.12873 -0.212443,-1.12303 -6.327553,-5.08272 -13.589136,-8.79929 C 6.6966897,106.70401 3.9085091,103.52104 6.565894,97.688714 c 1.8698822,-4.103946 6.018674,-3.830459 11.9089,0.785029 5.793405,4.539617 8.898283,6.180867 14.008192,7.404777 l 3.816321,0.91408 -0.646177,-15.062968 c -0.567811,-13.236169 -0.248091,-16.43744 2.636267,-26.396298 7.206506,-24.882 21.50517,-44.500944 39.445955,-54.1231 8.461795,-4.538303 9.795697,-4.8505832 19.932317,-4.6663639 16.954691,0.3081288 29.755711,5.5694159 36.541811,15.0188739 11.67988,16.263961 17.24556,34.516104 15.88376,52.089381 -0.91827,11.849723 -2.72727,24.466761 -4.99066,34.807835 -2.09246,9.56012 -3.55109,45.5093 -2.27014,55.94963 0.61248,4.99193 2.08906,11.89193 3.2813,15.33333 3.33567,9.62835 3.12959,16.02574 -0.61388,19.057 -4.5989,3.72398 -6.1668,3.16422 -8.7764,-3.13325 z M 49.79315,174.66943 c 4.051837,-3.55756 4.627637,-4.91419 5.234709,-12.33333 0.779448,-9.52578 -1.591213,-19.82271 -6.09344,-26.46678 -5.2357,-7.72647 -5.853985,-7.14768 -14.78722,13.84259 -1.18096,2.77488 -2.1472,8.56272 -2.1472,12.86187 0,7.27862 0.324403,8.10148 4.713062,11.95477 5.848215,5.1348 7.373615,5.15123 13.080089,0.14088 z m 22.206848,-67.8826 c 4.335663,-3.13202 4.247084,-6.01439 -0.200652,-6.52926 -2.449785,-0.283582 -5.00639,0.8837 -8.333333,3.80479 -2.639641,2.31764 -4.799348,4.81851 -4.799348,5.55749 0,1.99932 9.412382,-5.9e-4 13.333333,-2.83302 z"
       id="path581" />
  </g>
</svg>
