<?xml version="1.0" encoding="UTF-8" standalone="no"?>
<!-- Created with Inkscape (http://www.inkscape.org/) -->

<svg
   version="1.1"
   id="svg193"
   width="213.33333"
   height="218.66667"
   viewBox="0 0 213.33333 218.66667"
   xmlns="http://www.w3.org/2000/svg"
   xmlns:svg="http://www.w3.org/2000/svg">
  <defs
     id="defs197" />
  <g
     id="g199">
    <path
       style="fill:#000000;stroke-width:1.33333"
       d="M 30,210.76036 C 11.43003,209.8604 6.584989,208.66648 4.198667,204.40236 2.551239,201.45856 5.0357739,196 8.0231055,196 c 1.2439528,0 10.1624985,0.66132 19.8189885,1.46959 18.501905,1.54867 24.157905,1.05355 24.157905,-2.11475 0,-2.61165 -3.376412,-4.17384 -11.333333,-5.24369 -10.262941,-1.37991 -14,-3.24348 -14,-6.98143 0,-4.39172 2.704051,-5.0818 12.39968,-3.16441 13.661576,2.70169 17.328664,4.19772 23.454706,9.56863 l 5.854387,5.13273 39.478941,0.20653 c 21.71342,0.1136 43.20004,0.37268 47.74804,0.57576 11.87046,0.53003 13.9342,-1.47234 19.0755,-18.50822 6.41034,-21.24086 5.58166,-20.32146 18.03692,-20.01158 7.99645,0.19896 10.93546,0.78874 12.14013,2.43622 1.9768,2.70344 3.47776,20.51113 2.90759,34.4965 -0.65835,16.14854 0.72748,15.62702 -43.26615,16.28226 -30.42857,0.45321 -67.954297,0.481 -97.829744,0.0724 -4.033334,-0.0552 -9.733334,0.24818 -12.666667,0.67408 C 51.066666,211.31652 40.266666,211.2579 30,210.76035 Z m 163.79749,-18.04677 c 0.41221,-1.07419 1.14717,-6.34197 1.63327,-11.7062 0.73785,-8.14247 0.52222,-10.05321 -1.3057,-11.57025 -2.74181,-2.27551 -3.52861,-1.49079 -4.85609,4.84334 -0.58243,2.77907 -2.03503,7.69506 -3.228,10.92442 -1.19296,3.22936 -1.85905,6.67936 -1.48019,7.66666 0.93156,2.4276 8.29284,2.30171 9.23671,-0.15797 z M 9.3331311,109.62433 C 8.2332423,109.29557 6.5833332,108.08092 5.6666666,106.92512 0.71469368,100.68129 8.7272891,89.521199 20.036352,86.910755 c 9.507354,-2.194562 12.438193,-1.994183 17.891253,1.223201 5.009057,2.955416 4.301478,2.956736 26.072394,-0.04863 C 78.652964,86.062567 98.330884,84.098961 118,82.696823 c 17.02866,-1.213912 17.39192,-1.306411 20.66666,-5.262551 4.62982,-5.593159 10.95338,-17.434271 9.31051,-17.434271 -0.74545,0 -3.94243,2.7 -7.10439,6 -3.16194,3.3 -6.81185,6 -8.11089,6 -3.34512,0 -11.42856,-8.493375 -11.42856,-12.008128 0,-1.617803 -1.71318,-5.127803 -3.80707,-7.8 -6.40245,-8.170718 -7.29475,-10.58904 -5.50308,-14.914511 0.86891,-2.097719 3.00317,-4.746642 4.74281,-5.886498 1.73964,-1.139854 4.48454,-4.368737 6.09979,-7.175293 1.61525,-2.806556 4.68432,-6.105756 6.82015,-7.331556 2.13583,-1.2258 4.57079,-4.05001 5.41101,-6.276022 1.71183,-4.5351482 5.36172,-5.9932485 11.92012,-4.7619884 2.37395,0.4456796 7.91627,1.3765231 12.31627,2.0685413 13.49953,2.1231651 18.04108,3.9379931 20.44977,8.1718451 1.39946,2.459892 3.30599,3.899857 5.1705,3.905179 4.69013,0.01339 12.01749,7.534848 16.50934,16.946673 3.4665,7.26338 4.25332,10.777019 4.85384,21.674949 l 0.71668,13.006333 -5.85006,4.062947 c -9.06907,6.298583 -14.03059,12.199265 -18.44096,21.931633 -2.23006,4.921095 -5.10942,9.499765 -6.39855,10.174835 -2.33237,1.22136 -163.152287,2.98872 -167.0107589,1.83539 z M 33.006885,99.666668 C 32.700235,98.735175 29.710533,97.820741 26.229108,97.593613 21.309197,97.272637 20,97.622928 20,99.26028 c 0,1.60331 1.53582,2.07305 6.777777,2.07305 4.825957,0 6.619776,-0.47995 6.229108,-1.666662 z m 22.632003,0.861112 c -0.443056,-0.44306 -1.593056,-0.49043 -2.555555,-0.10527 -1.063644,0.42564 -0.747702,0.74158 0.805555,0.80556 1.405555,0.0579 2.193055,-0.25724 1.75,-0.7003 z m 73.966712,-0.810833 36.93893,0.308823 4.70913,-4.134682 c 2.72327,-2.391061 5.27174,-6.223961 6.04322,-9.089045 0.75053,-2.787259 3.96636,-7.70158 7.35193,-11.23495 3.30981,-3.454321 6.01785,-6.801041 6.01785,-7.437157 0,-1.549903 -6.08401,-5.463268 -8.4936,-5.463268 -1.05642,0 -4.3455,1.95 -7.30909,4.333333 -2.96357,2.383333 -6.95413,5.436832 -8.86791,6.785552 -1.91376,1.348721 -4.74396,5.054699 -6.28932,8.235506 -4.13793,8.517125 -10.05278,10.431026 -33.70674,10.906677 -10.26667,0.206451 -23.16667,1.031224 -28.666668,1.832829 -5.5,0.801606 -14.35,1.755811 -19.666667,2.120456 -7.490683,0.513751 -9.666666,1.121346 -9.666666,2.699202 0,1.758887 1.679773,1.885827 12.333333,0.932057 6.783333,-0.607282 28.955848,-0.965184 49.272268,-0.795333 z m 43.56874,-41.005423 c 10.2902,-5.997203 13.46968,-6.347003 18.58296,-2.04446 L 196,60.23705 V 52.971254 C 196,45.512331 193.45349,40.157485 186.02709,32 c -1.66903,-1.833333 -3.69127,-4.61279 -4.49387,-6.176573 -1.36928,-2.667912 -3.40154,-3.424672 -14.3539,-5.344975 -3.69567,-0.647968 -4.22994,-0.331174 -4.84208,2.871082 -0.37844,1.979677 0.0292,6.3859 0.90601,9.791607 1.2718,4.940249 1.24385,6.86613 -0.13825,9.525526 -0.9528,1.833334 -1.7412,6.068631 -1.75202,9.411771 -0.0147,4.558968 -1.18621,8.015704 -4.68632,13.828207 C 154.1,70.169017 152,74.313224 152,75.115993 c 0,0.802769 3.15,-1.619047 7,-5.381813 3.85,-3.762767 10.22845,-8.722962 14.17434,-11.022656 z m -32.4161,-6.044857 c 2.72145,-2.566666 5.72062,-4.666666 6.66482,-4.666666 2.07854,0 7.2436,-6.308004 7.2436,-8.846479 0,-1.001103 -1.252,-3.072183 -2.78221,-4.602399 -1.84336,-1.843368 -2.5312,-3.782332 -2.03835,-5.746015 0.61796,-2.462129 -0.062,-3.2552 -4.01692,-4.685325 -5.52874,-1.999223 -8.76797,-0.327467 -5.94837,3.069943 0.89896,1.083176 1.44353,3.958605 1.21016,6.389843 -0.45044,4.692648 -0.90223,4.826977 -11.75764,3.495845 -2.62534,-0.321931 -3.42689,0.251797 -3.77381,2.701207 -0.24226,1.710474 0.45697,4.110474 1.55385,5.333333 1.09688,1.222859 2.41187,4.47338 2.9222,7.22338 1.19642,6.447126 4.14303,6.538726 10.72267,0.333333 z"
       id="path859" />
  </g>
</svg>
