<?xml version="1.0" encoding="UTF-8" standalone="no"?>
<!-- Created with Inkscape (http://www.inkscape.org/) -->

<svg
   version="1.1"
   id="svg224"
   width="80"
   height="234.66667"
   viewBox="0 0 80 234.66667"
   xmlns="http://www.w3.org/2000/svg"
   xmlns:svg="http://www.w3.org/2000/svg">
  <defs
     id="defs228" />
  <g
     id="g230">
    <path
       style="fill:#000000;stroke-width:1.33333"
       d="m 40,221.36364 c -1.515628,-0.9565 -2.183004,-5.06872 -2.755635,-16.97957 -1.009452,-20.99687 -3.085586,-25.20783 -15.26554,-30.96257 -9.216667,-4.35467 -11.340394,-6.841 -8.6314,-10.10514 2.371654,-2.85768 6.079742,-2.45941 14.230499,1.52838 3.947377,1.93128 7.60718,3.07145 8.132896,2.53373 C 36.912617,166.14924 25.660275,156 23.095641,156 c -3.27042,0 -9.762308,-3.98154 -9.762308,-5.98733 0,-5.11264 10.095242,-5.33911 18.309018,-0.41071 2.369958,1.42202 4.882458,2.23107 5.583333,1.79791 1.665853,-1.02956 1.733737,-76.948965 0.09007,-100.733203 -1.10055,-15.925228 -1.572471,-18.268952 -4.094222,-20.333333 -4.410712,-3.610742 -8.65161,-2.920594 -12.289834,2 -1.762207,2.383333 -3.579443,5.397748 -4.038302,6.6987 -0.924662,2.621593 -5.968568,4.969431 -8.5587781,3.98394 C 5.9209495,42.097651 4.2130804,34.542258 5.5765385,30.814582 6.2173536,29.0626 8.0747841,25.992979 9.7041617,23.9932 c 1.6293773,-1.999778 3.5647273,-4.666196 4.3007773,-5.92537 2.01477,-3.44671 13.35564,-5.187102 20.385193,-3.128351 6.488599,1.900321 10.674492,5.766223 13.069968,12.070829 0.903409,2.377664 2.585821,6.856516 3.738695,9.953005 2.857296,7.674378 3.245161,23.173681 1.78955,71.511407 -0.81206,26.96678 -0.785472,41.59483 0.07717,42.45747 0.86588,0.86588 2.449122,0.57368 4.628353,-0.85421 4.889755,-3.2039 10.857,-4.62187 13.418231,-3.18854 4.023062,2.25143 2.330753,5.01688 -5.484136,8.96183 -7.01158,3.53944 -12.600963,9.62019 -10.642771,11.57837 0.421845,0.42184 2.592953,-0.17725 4.824685,-1.33132 C 62.041611,164.94424 66.337223,164 69.355683,164 c 5.200418,0 5.465994,0.19222 5.066213,3.66667 -0.332435,2.88917 -1.827639,4.37348 -7.051375,7 -11.239616,5.65133 -14.481222,13.80603 -13.899034,34.96488 0.154501,5.61513 -0.384428,9.72529 -1.442335,11 -1.875476,2.2598 -8.928276,2.68904 -12.029152,0.73209 z"
       id="path252" />
  </g>
</svg>
