<?xml version="1.0" encoding="UTF-8" standalone="no"?>
<!-- Created with Inkscape (http://www.inkscape.org/) -->

<svg
   version="1.1"
   id="svg183"
   width="213.33333"
   height="146.66667"
   viewBox="0 0 213.33333 146.66667"
   xmlns="http://www.w3.org/2000/svg"
   xmlns:svg="http://www.w3.org/2000/svg">
  <defs
     id="defs187" />
  <g
     id="g189">
    <path
       style="fill:#000000;stroke-width:1.33333"
       d="m 68.326587,140.851 c -1.388727,-1.56805 -4.280325,-6.29957 -6.425773,-10.5145 -2.145448,-4.21492 -4.500815,-7.65519 -5.234148,-7.64505 -0.733334,0.0101 -3.421149,4.21203 -5.972924,9.33752 -6.856444,13.77183 -9.834055,13.86401 -18.633323,0.57681 C 28.925936,127.8726 25.517189,124 24.485428,124 c -1.815111,0 -2.359814,0.96226 -5.884982,10.39622 -1.923505,5.14762 -7.999941,9.00429 -10.4021053,6.60213 C 5.952175,138.75218 6.1563812,137.86751 12.122041,124 21.285852,102.69821 23.405986,102.03697 33.497255,117.33334 37.367594,123.2 41.018943,128 41.611366,128 c 0.592421,0 3.304568,-4.50157 6.026992,-10.00349 5.834257,-11.79083 8.722038,-13.4858 13.347461,-7.83421 1.727491,2.11074 3.929572,5.6377 4.893515,7.8377 2.187858,4.99334 6.808188,9.22318 8.758201,8.01801 0.809732,-0.50044 3.276142,-4.72787 5.480914,-9.39428 2.421848,-5.12585 5.084015,-8.82567 6.725215,-9.34657 3.512175,-1.11472 7.917751,2.97924 13.113925,12.18636 2.167561,3.84071 4.547121,7.3577 5.287911,7.81553 1.5204,0.93966 9.35682,-10.79716 9.39583,-14.0724 0.0278,-2.33285 4.08077,-6.53998 6.30035,-6.53998 1.20728,0 7.18695,6.85609 15.371,17.62386 l 2.31269,3.04281 2.35397,-2.91425 c 1.2947,-1.60284 3.85399,-5.43795 5.68732,-8.52247 4.09724,-6.89347 6.3021,-9.22995 8.70996,-9.22995 2.66758,0 7.20502,5.15772 9.97036,11.33333 1.31351,2.93334 3.31068,6.53334 4.43816,8 l 2.04998,2.66667 L 173.88136,126 c 1.12544,-1.46666 3.06421,-5.36666 4.3084,-8.66666 5.95108,-15.78428 11.82988,-14.33588 21.79832,5.37063 5.96714,11.79635 6.8374,15.78293 3.85981,17.68151 -3.62991,2.31454 -6.31188,0.076 -10.79064,-9.00642 -2.36295,-4.79182 -4.94096,-8.71239 -5.72891,-8.71239 -0.78794,0 -3.6878,4.5 -6.44412,10 -4.11442,8.20997 -5.57557,10 -8.16266,10 -3.61844,0 -7.67096,-4.50633 -13.05451,-14.51635 -2.01645,-3.74934 -4.26048,-6.81698 -4.98672,-6.81698 -0.72625,0 -3.03579,3.75 -5.13231,8.33333 -4.92168,10.75956 -8.36662,13.96632 -12.82264,11.93603 -1.79508,-0.8179 -4.28157,-3.4631 -5.52553,-5.87823 -1.24397,-2.41512 -3.75075,-6.34993 -5.57063,-8.74402 -3.99888,-5.26059 -5.0764,-4.63072 -10.25076,5.9921 -2.06129,4.23177 -4.41469,8.13493 -5.22979,8.67371 -5.24145,3.46452 -11.636132,-1.2551 -16.885291,-12.46228 -2.835943,-6.05485 -6.596714,-8.77941 -6.596714,-4.7791 0,2.37557 -6.417177,15.08027 -8.397974,16.62627 -3.520755,2.74792 -7.411323,2.67743 -9.942104,-0.18015 z M 193.38024,69.42099 C 191.78974,66.449106 191.43293,7.1577999 193,6.2354856 c 0.55,-0.323708 2.9109,-0.9982061 5.24646,-1.498885 3.30571,-0.7086513 4.85276,-0.3040364 6.98318,1.8263718 2.57976,2.5797626 2.73333,4.2477296 2.67801,29.0868626 -0.0323,14.492591 -0.64783,28.600166 -1.36789,31.350167 -1.23236,4.706496 -1.61651,5 -6.54424,5 -3.81111,0 -5.61046,-0.701486 -6.61528,-2.579012 z M 61.333332,56.372497 C 52.899999,55.430383 43.899999,53.833036 41.333333,52.822837 38.766666,51.81264 33.966666,50.560622 30.666666,50.040576 27.366666,49.520529 20.766666,47.848096 16,46.324058 0.65067663,41.416445 -2.3631968,33.872927 9.6884225,30.526614 12.793123,29.664547 18.033333,28.098422 21.333333,27.046335 c 3.3,-1.052086 9,-2.251836 12.666666,-2.66611 3.666667,-0.414275 8.166667,-1.485855 10,-2.38129 5.157298,-2.51892 12.611992,-3.282441 32.763646,-3.355703 20.31678,-0.07387 27.457745,1.021908 61.236355,9.39661 13.93072,3.453832 16.67122,5.64434 14.72666,11.771122 -0.89417,2.817272 -8.20262,6.261776 -16.01392,7.547429 -2.908,0.478623 -6.88266,1.695236 -8.83259,2.703585 -1.94993,1.00835 -7.67067,2.470853 -12.71274,3.250007 -5.04208,0.779156 -10.66741,1.962838 -12.50074,2.630404 -5.587501,2.03456 -25.149001,2.238115 -41.333338,0.430108 z M 99.969428,44.020589 c 2.549852,-0.737789 5.634302,-1.024616 6.854342,-0.637391 1.22004,0.387224 4.83379,-0.206853 8.03057,-1.320172 3.19678,-1.11332 7.16232,-2.032948 8.81232,-2.043621 1.76916,-0.01144 3,-0.839968 3,-2.019404 0,-1.137795 -1.19753,-2 -2.77784,-2 -1.52782,0 -7.37782,-1.136483 -13,-2.525519 -13.654087,-3.373423 -35.894412,-4.461125 -56.689593,-2.772507 -18.240952,1.48121 -28.629739,4.369438 -26.208854,7.286426 5.459545,6.578351 55.575995,10.778348 71.979055,6.032188 z"
       id="path998" />
  </g>
</svg>
