<?xml version="1.0" encoding="UTF-8" standalone="no"?>
<!-- Created with Inkscape (http://www.inkscape.org/) -->

<svg
   version="1.1"
   id="svg173"
   width="104"
   height="212"
   viewBox="0 0 104 212"
   xmlns="http://www.w3.org/2000/svg"
   xmlns:svg="http://www.w3.org/2000/svg">
  <defs
     id="defs177" />
  <g
     id="g179">
    <path
       style="fill:#000000;stroke-width:1.33333"
       d="m 79.06042,207.89188 c -1.616768,-0.60201 -4.187085,-3.37397 -5.711813,-6.15989 -7.282064,-13.3055 -19.859182,-31.06532 -21.999778,-31.06532 -1.013077,0 -7.426314,8.4 -14.251638,18.66666 C 25.534708,206.72564 24.402112,208 20.507015,208 c -4.648503,0 -7.884457,-2.89124 -6.697604,-5.98412 0.425926,-1.10996 2.618062,-4.5676 4.871414,-7.68365 6.341031,-8.76874 15.985842,-23.76388 15.985842,-24.85379 0,-0.53875 1.829724,-2.73252 4.066052,-4.87505 4.638801,-4.44426 4.489586,-7.8399 -0.641715,-14.60339 -3.912865,-5.15748 -5.150653,-10.82832 -5.238545,-24 -0.06317,-9.46791 0.409378,-11.59892 4.204849,-18.96198 2.351813,-4.56242 4.276025,-9.10442 4.276025,-10.093333 0,-0.988914 -2.1,-4.251402 -4.666666,-7.249975 C 34.1,86.69614 31.991268,83.13814 31.980596,81.788048 31.969929,80.437955 31.055824,76.733837 29.949263,73.556675 28.612115,69.717448 28.220729,65.64368 28.782307,61.410307 29.79258,53.794493 27.858121,49.333333 23.545461,49.333333 21.880401,49.333333 18.484944,47.833333 16,46 13.515056,44.166667 10.412321,42.666667 9.1050311,42.666667 c -3.1830498,0 -6.8799806,-5.841444 -5.8168474,-9.19108 C 4.4572279,29.792255 24.511201,11.165969 28.264816,10.277097 29.952501,9.8774456 33.733333,8.6279411 36.666667,7.5004197 39.6,6.3728983 45.9,5.4327771 50.666667,5.4112615 66.664664,5.33905 79.959523,12.026315 96.398296,28.414103 c 7.652964,7.629229 6.686694,11.027357 -4.259353,14.979016 -4.690248,1.693238 -10.990248,4.862377 -14,7.042532 l -5.472276,3.963917 -0.07664,12.090849 c -0.07149,11.278027 -0.34978,12.47467 -4.139599,17.800216 -7.69302,10.81042 -7.753267,11.133776 -3.376216,18.120947 8.667819,13.83659 8.222337,30.15592 -1.308977,47.95181 C 61.694355,154.22992 60,158.23296 60,159.25904 c 0,1.79316 5.561312,10.51368 16.628291,26.07429 10.148538,14.26926 11.482194,16.56806 11.095665,19.12536 -0.483671,3.19999 -4.749708,4.89055 -8.663536,3.43319 z M 55.997824,138.67093 c 5.267732,-10.32561 4.729519,-22.47 -1.34216,-30.28489 l -2.289863,-2.94729 -3.041109,3.23712 c -5.394624,5.74231 -5.290416,24.9513 0.17304,31.89696 1.482699,1.88494 2.940072,3.42717 3.238609,3.42717 0.298538,0 1.766204,-2.39808 3.261483,-5.32907 z m 0.620775,-59.64711 c 3.946228,-5.807396 4.507237,-14.312455 1.347161,-20.423367 -1.688288,-3.264788 -2.860887,-3.933786 -6.895012,-3.933786 -8.858393,0 -11.867604,6.590069 -8.450237,18.505729 3.331928,11.617757 8.58705,13.814483 13.998088,5.851424 z M 43.333333,42.164496 C 46.164715,40.950381 48.696721,40.813012 52,41.6943 c 11.519849,3.073407 13.970345,2.814356 21.156256,-2.236503 3.749017,-2.635121 7.422549,-4.79113 8.163403,-4.79113 2.523305,0 1.356004,-3.492651 -2.319659,-6.940594 -6.788535,-6.367961 -17.513116,-10.755354 -27.965893,-11.440758 -8.538563,-0.559888 -10.48605,-0.21405 -17.14747,3.04508 -8.484476,4.151066 -16.553304,10.702405 -16.553304,13.440154 0,1.0052 1.95,2.815399 4.333334,4.022663 C 24.05,38.000476 26.9,39.753941 28,40.689801 c 3.905,3.322306 9.720309,3.881598 15.333333,1.474695 z"
       id="path1137" />
  </g>
</svg>
