<?xml version="1.0" encoding="UTF-8" standalone="no"?>
<!-- Created with Inkscape (http://www.inkscape.org/) -->

<svg
   version="1.1"
   id="svg83"
   width="66.666664"
   height="218.66667"
   viewBox="0 0 66.666664 218.66667"
   xmlns="http://www.w3.org/2000/svg"
   xmlns:svg="http://www.w3.org/2000/svg">
  <defs
     id="defs87" />
  <g
     id="g89">
    <path
       style="fill:#000000;stroke-width:1.33333"
       d="m 27.130307,214.00674 c -1.458024,-1.0739 -1.784528,-7.69623 -1.643784,-33.34007 0.191156,-34.82909 -0.04471,-47.6693 -0.891207,-48.5158 -0.300858,-0.30085 -2.840133,1.04212 -5.642833,2.9844 -2.963285,2.05356 -6.912952,3.5314 -9.4379711,3.5314 -4.202278,0 -4.3288224,-0.16107 -3.9283325,-5 0.3739848,-4.51869 1.0876626,-5.36111 7.4138196,-8.75129 3.85,-2.06321 7,-4.36858 7,-5.12303 0,-0.75446 -1.2,-2.89729 -2.666666,-4.76185 -3.39684,-4.31839 -3.365958,-7.11521 0.127609,-11.55655 3.516573,-4.470603 2.830385,-6.207265 -4.359007,-11.03213 C 6.7245172,88.161879 3.3869731,82.698625 4.6734771,78.645209 5.9588172,74.595461 11.037129,75.40634 17.333333,80.666668 c 3.0721,2.566667 5.987095,4.666667 6.477767,4.666667 0.490674,0 0.667144,-16.714702 0.392158,-37.143781 C 23.618664,4.7593309 23.626151,4.7237031 33.111747,5.7912198 c 12.083205,1.3598538 20.02864,3.0554647 22.005521,4.6961312 4.40285,3.65404 5.376636,18.791047 3.871431,60.179317 C 58.201939,92.300001 57.832254,125.3 58.167175,144 c 0.334923,18.7 0.222361,41.37676 -0.250136,50.39282 -0.775579,14.79937 -1.137311,16.57212 -3.721396,18.23753 -3.461342,2.2308 -24.455758,3.29845 -27.065336,1.37639 z m 20.70043,-10.46946 c 3.392984,-4.08829 4.177028,-181.398861 0.81697,-184.757006 -0.74376,-0.743338 -3.383843,-1.522991 -5.866854,-1.732564 -4.413675,-0.372528 -4.547335,-0.23206 -5.981042,6.285624 -1.76451,8.021525 -2.030583,174.372626 -0.286304,179.000006 0.854388,2.2666 2.193762,3 5.478741,3 2.391344,0 5.018663,-0.80823 5.838489,-1.79606 z"
       id="path1276" />
  </g>
</svg>
