<?xml version="1.0" encoding="UTF-8" standalone="no"?>
<!-- Created with Inkscape (http://www.inkscape.org/) -->

<svg
   version="1.1"
   id="svg225"
   width="217.33333"
   height="196"
   viewBox="0 0 217.33333 196"
   xmlns="http://www.w3.org/2000/svg"
   xmlns:svg="http://www.w3.org/2000/svg">
  <defs
     id="defs229" />
  <g
     id="g231">
    <path
       style="fill:#000000;stroke-width:1.33333"
       d="m 82.717796,192.40965 c -10.118508,-0.64777 -12.05113,-1.88957 -12.05113,-7.74341 0,-15.64661 19.480534,-32.90035 37.243224,-32.98597 11.03199,-0.0532 17.17906,2.18886 26.31853,9.59929 6.65131,5.39299 8.75964,8.09155 11,14.07944 5.81611,15.54493 4.4389,16.63753 -20.99033,16.65259 -10.76428,0.007 -22.57142,0.22265 -26.238092,0.48061 -3.666666,0.25796 -10.543658,0.22081 -15.282202,-0.0825 z m 48.506484,-11.88564 c 3.34381,-1.28313 2.47076,-4.99097 -2.22428,-9.44652 -8.96379,-8.50653 -15.60007,-9.98092 -29.000002,-6.44297 -5.432758,1.4344 -8.629179,3.31749 -12.333333,7.26588 -8.6403,9.21 -8.209588,9.43293 18.224285,9.43293 12.77335,0 24.17335,-0.36418 25.33333,-0.80932 z M 89.333332,130.64703 C 71.491632,129.65258 52.893719,126.2952 41.333333,121.98187 22.699542,115.02935 18.713724,113.4788 12.465268,110.75168 4.7882098,107.40104 2.5808393,103.03096 6.6880046,99.314023 10.430995,95.926663 37.253701,86.053144 50.288419,83.264577 75.020696,77.973508 97.83823,75.742764 120,76.449261 c 29.84685,0.951492 50.21901,4.974267 76.71396,15.148271 C 211.44888,97.255713 215,99.767035 215,104.52926 c 0,6.09696 -7.22459,10.31465 -27,15.76251 -24.41208,6.72519 -28.20876,7.4028 -50,8.92372 -11.73334,0.81893 -23.43334,1.70178 -26,1.96189 -2.56667,0.26011 -12.766668,0.0214 -22.666668,-0.53035 z M 142,117.39629 c 6.6,-0.81078 14.1,-2.01366 16.66666,-2.67308 2.56667,-0.6594 10.36667,-2.52132 17.33334,-4.13758 6.96666,-1.61626 14.12548,-3.68301 15.90848,-4.59277 l 3.24181,-1.65411 -5.24181,-3.28096 c -7.77976,-4.869519 -29.7066,-9.560243 -55.24182,-11.817673 -24.01554,-2.123082 -60.532526,0.807112 -83.999994,6.740326 -3.3,0.83433 -7.8,1.808821 -10,2.165537 -24.162937,3.91786 -20.417178,7.2242 17.356061,15.31998 10.9875,2.3549 23.877272,4.71941 28.643938,5.25447 11.165449,1.25331 39.961625,0.56421 55.333335,-1.32414 z M 15.667816,61.644831 C 13.651781,61.376209 9.9017814,59.175387 7.3344827,56.754112 1.8079894,51.541957 1.2702959,46.630877 5.3504837,38.633049 9.3109221,30.869948 12.619067,29.290223 26.192764,28.680312 c 32.032099,-1.439304 52.684873,-2.062519 91.869866,-2.772245 40.52915,-0.734072 42.88926,-0.644388 45.83603,1.741772 3.59259,2.909096 2.95724,7.441484 -1.3676,9.756068 -2.90596,1.55522 -94.640618,2.033317 -121.785158,0.634713 -11.327644,-0.583649 -17.097618,-0.3411 -20,0.840727 -4.344661,1.769113 -7.300717,4.744253 -7.370165,7.417746 -0.05524,2.126416 7.654252,6.102614 10.049949,5.183299 1.018418,-0.390803 9.214263,-0.760779 18.212991,-0.822167 8.998728,-0.06139 27.761322,-0.683101 41.694655,-1.381582 13.933333,-0.698483 42.060618,-1.50921 62.505088,-1.801616 l 37.17175,-0.53165 4.63999,-4.639978 c 3.50992,-3.509926 4.80336,-6.089535 5.31084,-10.591839 0.59184,-5.250875 0.25669,-6.277641 -2.84568,-8.717967 -2.00928,-1.580506 -7.39682,-3.4206 -12.56959,-4.2931 C 168.62224,17.197351 79.087179,16.198364 31.958906,17.078108 9.6801756,17.493987 2.6666666,16.479801 2.6666666,12.84232 c 0,-1.039693 1.05,-2.374777 2.3333333,-2.9668548 C 13.004934,6.1823147 170.46448,4.6398548 185.93944,8.1029984 201.605,11.608798 208.8874,25.591413 203.29822,41.432836 c -4.11609,11.666233 -11.72544,16.051025 -29.00157,16.711801 -6.47255,0.24756 -12.253,0.749695 -12.84545,1.115852 -2.0336,1.256831 -137.60431,3.474139 -145.783384,2.384342 z"
       id="path253" />
  </g>
</svg>
