<?xml version="1.0" encoding="UTF-8" standalone="no"?>
<!-- Created with Inkscape (http://www.inkscape.org/) -->

<svg
   version="1.1"
   id="svg215"
   width="102.66667"
   height="210.66667"
   viewBox="0 0 102.66667 210.66667"
   xmlns="http://www.w3.org/2000/svg"
   xmlns:svg="http://www.w3.org/2000/svg">
  <defs
     id="defs219" />
  <g
     id="g221">
    <path
       style="fill:#000000;stroke-width:1.33333"
       d="m 48.077958,204.7606 c -2.128297,-2.56444 -2.219342,-87.42605 -0.09805,-91.38972 1.873424,-3.50052 4.86069,-3.44959 6.76862,0.11541 2.115554,3.95295 1.907707,88.7831 -0.223824,91.35143 -1.956409,2.35734 -4.451097,2.3275 -6.446746,-0.0771 z m 39.321376,-1.07025 c -2.148635,-1.20243 -2.255537,-4.47323 -1.506403,-46.09037 0.601438,-33.41216 1.225757,-45.06247 2.456715,-45.84428 2.66043,-1.68973 4.80204,-1.25476 6.12644,1.2443 1.477258,2.7875 2.621304,87.00436 1.211362,89.17239 -1.447186,2.22531 -5.64903,2.99487 -8.288114,1.51796 z M 8.1260331,200.41082 C 6.204749,196.19406 6.3390047,116.8925 8.2740308,112.99218 c 1.0548707,-2.12623 1.5094417,-2.16122 4.9518422,-0.38108 l 3.790349,1.96006 0.08,42.3811 c 0.044,23.30958 -0.225083,43.43108 -0.59796,44.71441 -1.081044,3.72063 -6.473332,2.91177 -8.3722276,-1.25585 z M 42.666668,94.747371 C 31.783458,92.541265 16.597886,81.807785 11.427213,72.666668 9.7679721,69.733334 7.64636,63.25019 6.712519,58.259682 5.2327334,50.35161 5.3007107,48.210649 7.2417005,41.593015 11.589032,26.771171 15.280976,20.709135 24.087694,13.932522 32.420592,7.5205045 36.943921,5.8888242 50.450311,4.4228546 62.630722,3.1008052 79.255553,9.947581 87.351043,19.620064 c 8.007035,9.566798 10.352786,16.601534 10.352566,31.046603 -2.12e-4,14.020294 -1.225035,17.102259 -11.37765,28.629076 -7.53427,8.554065 -14.348143,12.664049 -24.525929,14.793518 -9.799922,2.050411 -11.907247,2.122895 -19.133362,0.65811 z m 23.833334,-13.32901 c 5.780652,-2.949068 18.296267,-15.832169 20.171109,-20.763375 0.730891,-1.922388 1.328892,-7.396224 1.328892,-12.164081 0,-7.271748 -0.556283,-9.398154 -3.451711,-13.194255 -1.89844,-2.488984 -4.493177,-4.855974 -5.766083,-5.259979 -1.272905,-0.404004 -3.169636,-2.657917 -4.214957,-5.008696 -3.01734,-6.785573 -9.143829,-9.48766 -21.764394,-9.599181 -9.605483,-0.08488 -11.604213,0.347894 -18.032798,3.90454 -4.059514,2.245945 -9.467849,6.829756 -12.333334,10.453064 -5.021555,6.349583 -5.103655,6.638227 -5.119764,18 -0.01381,9.73966 0.560081,12.845623 3.666667,19.844424 2.395593,5.397012 4.471173,8.310019 5.937683,8.333334 1.240054,0.01972 2.663576,0.697512 3.163382,1.506215 0.499806,0.808702 3.985216,2.939648 7.745357,4.735434 5.848309,2.793064 8.064066,3.15105 15.327493,2.476358 4.669982,-0.43379 10.674087,-1.9025 13.342458,-3.263802 z"
       id="path392" />
  </g>
</svg>
