<?xml version="1.0" encoding="UTF-8" standalone="no"?>
<!-- Created with Inkscape (http://www.inkscape.org/) -->

<svg
   version="1.1"
   id="svg205"
   width="210.66667"
   height="217.33333"
   viewBox="0 0 210.66667 217.33333"
   xmlns="http://www.w3.org/2000/svg"
   xmlns:svg="http://www.w3.org/2000/svg">
  <defs
     id="defs209" />
  <g
     id="g211">
    <path
       style="fill:#000000;stroke-width:1.33333"
       d="m 187.85147,209.95981 c -3.38169,-1.70048 -7.43979,-4.78708 -9.01799,-6.85912 -1.5782,-2.07205 -5.61478,-7.27448 -8.97018,-11.56095 -3.3554,-4.28648 -8.19534,-12.98648 -10.7554,-19.33333 -4.07023,-10.09084 -4.68311,-13.13016 -4.88127,-24.20641 -0.20337,-11.367 0.13509,-13.35175 3.29879,-19.3436 6.6609,-12.61536 14.49337,-18.00772 26.09842,-17.9678 10.95995,0.0377 19.76451,6.73977 23.63164,17.98849 1.60092,4.65679 1.50752,5.8124 -0.90978,11.25624 -5.22608,11.76931 -5.9921,12.68579 -13.00072,15.55471 -10.19534,4.17337 -11.05092,5.45605 -11.17586,16.75441 -0.1324,11.96947 2.66668,17.99888 12.43116,26.77799 3.70318,3.32946 6.73306,6.96285 6.73306,8.07418 0,6.92244 -3.80511,7.73111 -13.48187,2.86519 z m -15.18872,-55.28445 c 1.97884,-4.38827 3.8678,-6.0297 10.59892,-9.21 11.43741,-5.40392 14.23553,-11.89007 8.27228,-19.17552 -6.59501,-8.05731 -18.67696,-4.93582 -23.52939,6.07905 -3.43484,7.79701 -4.79324,21.17477 -2.6705,26.29952 2.00576,4.84231 3.78056,3.87531 7.32869,-3.99305 z M 7.4470197,206.24801 C 4.3988882,204.01916 4.325175,198.65348 7.247291,191.70949 c 1.1473234,-2.72645 2.1073037,-6.62645 2.1332897,-8.66667 0.025985,-2.04022 0.8255373,-5.11264 1.7767803,-6.82758 3.060307,-5.51728 14.497286,-16.21383 17.383023,-16.25764 1.536123,-0.0233 3.957627,-0.92334 5.381123,-2 5.723438,-4.329 23.579347,-2.00763 36.924034,4.80032 14.811668,7.55634 28.865653,34.7913 21.915992,42.47058 -2.125072,2.34818 -4.915374,2.52478 -42.529,2.69156 -32.447206,0.14388 -40.745569,-0.18041 -42.7855133,-1.67205 z M 63.246534,196.033 c 1.881074,-0.71519 3.420134,-2.16544 3.420134,-3.22279 0,-1.05736 1.21542,-4.75792 2.700933,-8.22349 2.49204,-5.8137 2.534572,-6.48484 0.549931,-8.67786 -1.183052,-1.30725 -5.466074,-3.99873 -9.517826,-5.98108 -6.229596,-3.04785 -8.547271,-3.49721 -15.013652,-2.91085 -8.437413,0.76508 -16.07588,4.78983 -21.639728,11.40208 -3.973492,4.72223 -6.091872,14.78213 -3.464388,16.45192 0.944934,0.60052 9.123853,1.05601 18.175376,1.01221 9.051521,-0.0437 16.801522,0.26458 17.222222,0.68528 1.119784,1.11979 3.692222,0.93776 7.566998,-0.53542 z M 9.3533749,60.165912 C 7.5310643,59.647072 5.1509646,57.638492 4.0642643,55.702402 2.2594642,52.486926 2.3154332,51.930494 4.7108895,49.273811 7.2606357,46.446013 7.9062416,46.389317 28,47.228598 c 21.876854,0.91376 26.921545,0.04617 21.175854,-3.641843 -1.74672,-1.121174 -6.648209,-2.458784 -10.8922,-2.972465 -9.309423,-1.126789 -14.378672,-4.557829 -12.111427,-8.197424 1.266572,-2.033221 2.959765,-2.345297 10.666667,-1.965996 10.788108,0.530946 18.78303,3.692673 26.13656,10.336145 l 5.294355,4.783132 35.531761,-0.813909 c 19.54247,-0.447651 41.61462,-1.154095 49.04921,-1.569876 l 13.51744,-0.755967 2.02108,-4.881865 c 1.1116,-2.685025 3.90934,-9.981864 6.21721,-16.215197 5.82473,-15.7320932 5.36233,-15.19443 14.13237,-16.4324793 10.19318,-1.4389515 15.84187,-0.3220472 17.47168,3.4546408 1.40632,3.2587725 1.63952,44.2388745 0.2596,45.6187885 -1.67956,1.67956 -19.38446,3.91142 -33.13682,4.177189 -7.7,0.148806 -28.4,0.631379 -46,1.072387 -17.6,0.441008 -34.700005,0.739739 -38.000005,0.663845 C 78.381557,59.635836 58.274193,59.859391 35.333334,60.488082 22.866667,60.829727 11.175686,60.684751 9.3533749,60.165912 Z M 192.55676,39.666666 c 0.33418,-1.65 0.94979,-7.35 1.36806,-12.666666 0.61957,-7.875602 0.40482,-9.666667 -1.15899,-9.666667 -1.05571,0 -2.28807,1.35 -2.7386,3 -0.45052,1.65 -2.37569,6.396468 -4.27815,10.547707 -4.03905,8.813365 -3.48834,11.785626 2.18367,11.785626 3.09629,0 4.15564,-0.687289 4.62401,-3 z"
       id="path531" />
  </g>
</svg>
