<?xml version="1.0" encoding="UTF-8" standalone="no"?>
<!-- Created with Inkscape (http://www.inkscape.org/) -->

<svg
   version="1.1"
   id="svg195"
   width="212"
   height="217.33333"
   viewBox="0 0 212 217.33333"
   xmlns="http://www.w3.org/2000/svg"
   xmlns:svg="http://www.w3.org/2000/svg">
  <defs
     id="defs199" />
  <g
     id="g201">
    <path
       style="fill:#000000;stroke-width:1.33333"
       d="m 34.113644,211.86722 c -4.412715,-1.23473 -6.063745,-3.24801 -6.093227,-7.43014 -0.02443,-3.46556 9.98766,-12.50072 18.420364,-16.62302 3.175764,-1.55245 6.083942,-3.63004 6.462618,-4.61685 0.378676,-0.98681 -0.921847,-6.96117 -2.89005,-13.27637 -3.8175,-12.24886 -3.659638,-17.21863 0.589778,-18.56734 3.972498,-1.26082 19.975022,8.05656 25.161578,14.6502 l 2.527164,3.21278 1.562367,-3.42903 c 3.165501,-6.94752 -1.215437,-32.45412 -5.574224,-32.45412 -0.926311,0 -6.425241,3.3 -12.219847,7.33333 C 56.265559,144.7 50.854793,148 50.03624,148 c -1.456143,0 -7.140785,-7.12383 -14.539341,-18.22028 -2.761123,-4.14116 -5.553435,-6.30469 -10.979163,-8.50684 -8.104332,-3.2893 -10.427477,-6.27987 -9.204357,-11.84869 0.594956,-2.70882 0.248745,-3.97358 -1.24457,-4.54662 -2.744281,-1.05308 -2.656384,-7.033461 0.119027,-8.098486 5.294304,-2.031615 17.865623,6.106986 20.860845,13.505186 1.124283,2.77699 3.9604,7.14906 6.302484,9.71573 2.342084,2.56666 5.76741,6.61666 7.611836,9 1.844427,2.38333 4.099787,4.33333 5.011911,4.33333 0.912125,0 3.923415,-1.8 6.691755,-4 2.76834,-2.2 6.174076,-4 7.568302,-4 1.394227,0 5.009819,-2.30852 8.034648,-5.13005 5.367143,-5.00642 5.446235,-5.20638 3.281703,-8.29668 -3.139625,-4.48244 -2.750169,-12.281883 0.979581,-19.617593 3.944174,-7.757439 9.62331,-12.08703 17.220479,-13.128338 16.2475,-2.226968 24.34363,15.962531 12.65779,28.438151 -3.44,3.67248 -2.30186,7.06784 2.36916,7.06784 4.87121,0 11.60537,7.68336 14.99521,17.10884 4.07988,11.34412 7.09291,24.07778 6.63423,28.03755 -0.40476,3.49424 -0.50037,3.52313 -12.92692,3.90611 l -12.51914,0.38582 0.95127,16.26326 c 0.94169,16.0995 1.95824,19.63176 5.64983,19.63176 2.98548,0 9.36703,3.69198 10.21896,5.9121 0.42438,1.1059 -0.10626,2.88858 -1.17919,3.96151 -1.62423,1.62423 -8.89169,1.96669 -43.415759,2.04585 -22.80574,0.0523 -41.852396,0.3066 -42.325901,0.56514 -0.473507,0.25854 -2.60978,-0.0193 -4.747276,-0.61738 z m 40.095921,-10.46444 c 11.115262,-0.64706 21.497875,-1.86597 23.072476,-2.70866 2.350042,-1.25771 2.790209,-2.53198 2.457102,-7.11315 L 99.333333,186 l -8.920128,0.35632 -8.920126,0.35633 -3.916211,-5.68967 c -4.960835,-7.20733 -16.816444,-18.35632 -19.519747,-18.35632 -2.783217,0 -2.542058,2.63758 0.609546,6.66667 1.434054,1.83333 2.620712,3.84071 2.637018,4.46084 0.01631,0.62013 1.189755,2.75672 2.607663,4.74799 1.417908,1.99128 2.954585,5.12088 3.41484,6.95468 0.680577,2.71162 0.187501,3.63002 -2.640751,4.91866 -1.912668,0.87147 -4.973249,1.5845 -6.801292,1.5845 -4.122448,0 -12.370824,4.1134 -15.757462,7.85812 l -2.539983,2.80854 7.206649,-0.0437 c 3.963659,-0.024 16.300955,-0.57312 27.416216,-1.22019 z m 22.19917,-38.06945 c 0.59147,-5.86667 2.850334,-16.36667 5.019695,-23.33333 2.16937,-6.96667 3.93544,-13.35162 3.9246,-14.18879 -0.0338,-2.61247 -5.822711,-3.13101 -13.207169,-1.18302 -3.898604,1.02843 -7.346338,2.12784 -7.66163,2.44313 -0.315292,0.3153 0.312617,3.20323 1.395353,6.41764 1.686416,5.0066 4.267048,19.13889 3.867163,21.1777 -0.07192,0.36667 -0.559887,5.06284 -1.084379,10.43595 l -0.953623,9.76928 3.812295,-0.43595 c 3.734991,-0.4271 3.8341,-0.65224 4.887695,-11.10261 z M 121.79248,150 c -0.11414,-1.46667 -1.06389,-6.56667 -2.11056,-11.33334 -1.52385,-6.93977 -2.44653,-8.74733 -4.63065,-9.07152 -2.06442,-0.30643 -2.90952,0.50404 -3.47578,3.33333 -0.41149,2.05601 -1.42747,6.97611 -2.25773,10.93357 -1.78389,8.50294 -0.83378,9.68625 7.34891,9.1525 4.41136,-0.28774 5.29746,-0.80886 5.12581,-3.01454 z m -23.2576,-45.26519 c 3.83917,-1.98531 8.13179,-7.39587 8.13179,-10.249579 0,-2.840063 -4.31296,-6.485232 -7.673321,-6.485232 -4.702561,0 -12.326682,8.026826 -12.326682,12.977781 0,2.15111 0.4,4.31111 0.888889,4.8 1.510892,1.51089 7.060081,0.98375 10.979324,-1.04297 z M 187.67333,175 c -1.66937,-1.87876 -2.39298,-9.3255 -3.71429,-38.22376 -1.56544,-34.23757 -1.52915,-35.97222 0.78815,-37.666664 3.02585,-2.212563 4.80821,-2.238329 7.57961,-0.109574 1.64751,1.265478 2.34531,4.876198 2.89889,14.999998 0.401,7.33334 1.33571,23.53334 2.07714,36 1.32249,22.23697 1.29485,22.71091 -1.45843,25 -1.54357,1.28333 -3.54703,2.33333 -4.45213,2.33333 -0.9051,0 -2.57862,-1.05 -3.71894,-2.33333 z M 94.933333,41.066666 c -0.88,-0.88 -1.6,-2.865323 -1.6,-4.411827 0,-1.546505 -0.851718,-3.976505 -1.892706,-5.399999 -1.803172,-2.465739 -3.849888,-2.588174 -43.266051,-2.588174 -29.387939,0 -41.817456,-0.443933 -42.9064091,-1.532449 -1.8579977,-1.857251 -0.5636645,-6.607609 2.0764184,-7.620704 1.050357,-0.40306 16.1775177,-0.793788 33.6159107,-0.868285 17.438393,-0.0745 35.762671,-0.478318 40.720616,-0.897376 l 9.014444,-0.761927 2.577248,-5.826296 c 3.390471,-7.6647199 7.726446,-7.7188617 10.610776,-0.132493 1.87745,4.938046 5.30814,4.680953 6.33934,-0.475067 0.45261,-2.2630286 1.59072,-4.4092306 2.52915,-4.7693379 2.95476,-1.1338486 6.99644,2.0369121 7.91244,6.2074349 0.57142,2.601672 1.89866,4.255064 3.77504,4.702706 4.22969,1.009061 27.33505,1.368429 56.05866,0.871905 13.8407,-0.239253 25.64824,0.0608 26.23899,0.666775 2.24299,2.300794 2.7756,7.959646 0.896,9.519581 -1.70617,1.415993 -33.99537,2.651926 -74.6332,2.856734 -11.28104,0.05685 -11.66667,0.160555 -11.66667,3.137292 0,1.693172 -0.79571,4.166703 -1.76826,5.496735 -2.51542,3.440044 -6.6168,1.710931 -9.303,-3.922079 -2.79058,-5.851922 -5.76471,-5.988257 -6.97676,-0.319816 -1.53681,7.187246 -4.835389,9.583255 -8.351977,6.066667 z"
       id="path670" />
  </g>
</svg>
