<?xml version="1.0" encoding="UTF-8" standalone="no"?>
<!-- Created with Inkscape (http://www.inkscape.org/) -->

<svg
   version="1.1"
   id="svg185"
   width="210.66667"
   height="217.33333"
   viewBox="0 0 210.66667 217.33333"
   xmlns="http://www.w3.org/2000/svg"
   xmlns:svg="http://www.w3.org/2000/svg">
  <defs
     id="defs189" />
  <g
     id="g191">
    <path
       style="fill:#000000;stroke-width:1.33333"
       d="m 66.113645,211.86722 c -4.412715,-1.23473 -6.063745,-3.24801 -6.093227,-7.43014 -0.02443,-3.46556 9.98766,-12.50072 18.420365,-16.62302 3.175764,-1.55245 6.083941,-3.63004 6.462617,-4.61685 0.378676,-0.98681 -0.921847,-6.96117 -2.890049,-13.27637 -3.8175,-12.24886 -3.659639,-17.21863 0.589777,-18.56734 3.972499,-1.26082 19.975022,8.05656 25.161582,14.6502 l 2.52716,3.21278 1.56237,-3.42903 c 3.1655,-6.94752 -1.21544,-32.45412 -5.57423,-32.45412 -0.92631,0 -6.425238,3.3 -12.219843,7.33333 C 88.26556,144.7 82.854795,148 82.036241,148 c -1.456142,0 -7.140785,-7.12383 -14.539341,-18.22028 -2.761123,-4.14116 -5.553435,-6.30469 -10.979163,-8.50684 -8.104332,-3.2893 -10.427478,-6.27987 -9.204358,-11.84869 0.594956,-2.70882 0.248746,-3.97358 -1.244569,-4.54662 -2.744281,-1.05308 -2.656384,-7.033461 0.119027,-8.098486 5.294304,-2.031615 17.865623,6.106986 20.860845,13.505186 1.124283,2.77699 3.9604,7.14906 6.302484,9.71573 2.342085,2.56666 5.76741,6.61666 7.611837,9 1.844426,2.38333 4.099786,4.33333 5.01191,4.33333 0.912126,0 3.923415,-1.8 6.691755,-4 2.76834,-2.2 6.174076,-4 7.568302,-4 1.39423,0 5.00982,-2.30852 8.03465,-5.13005 5.36714,-5.00642 5.44623,-5.20638 3.2817,-8.29668 -3.13962,-4.48244 -2.75017,-12.281883 0.97958,-19.617593 3.94418,-7.757439 9.62331,-12.08703 17.22048,-13.128338 16.2475,-2.226968 24.34362,15.962531 12.65778,28.438151 -3.43998,3.67248 -2.30185,7.06784 2.36916,7.06784 4.87123,0 11.60538,7.68336 14.99523,17.10884 4.07987,11.34412 7.09291,24.07778 6.63423,28.03755 -0.40476,3.49424 -0.50038,3.52313 -12.92692,3.90611 l -12.51915,0.38582 0.95127,16.26326 C 142.85467,196.46774 143.87122,200 147.5628,200 c 2.9855,0 9.36704,3.69198 10.21898,5.9121 0.42437,1.1059 -0.10627,2.88858 -1.17919,3.96151 -1.62424,1.62423 -8.89171,1.96669 -43.41577,2.04585 -22.805737,0.0523 -41.852394,0.3066 -42.325899,0.56514 -0.473507,0.25854 -2.60978,-0.0193 -4.747276,-0.61738 z m 40.095925,-10.46444 c 11.11526,-0.64706 21.49787,-1.86597 23.07247,-2.70866 2.35004,-1.25771 2.79022,-2.53198 2.4571,-7.11315 L 131.33334,186 l -8.92013,0.35632 -8.92013,0.35633 -3.91621,-5.68967 c -4.96084,-7.20733 -16.816445,-18.35632 -19.519747,-18.35632 -2.783218,0 -2.542059,2.63758 0.609545,6.66667 1.434055,1.83333 2.620712,3.84071 2.637019,4.46084 0.01631,0.62013 1.189754,2.75672 2.607663,4.74799 1.417908,1.99128 2.954585,5.12088 3.41484,6.95468 0.68058,2.71162 0.187501,3.63002 -2.640751,4.91866 -1.912668,0.87147 -4.97325,1.5845 -6.801292,1.5845 -4.122448,0 -12.370824,4.1134 -15.757463,7.85812 l -2.539983,2.80854 7.20665,-0.0437 c 3.963658,-0.024 16.300955,-0.57312 27.416219,-1.22019 z m 22.19917,-38.06945 c 0.59147,-5.86667 2.85033,-16.36667 5.01969,-23.33333 2.16937,-6.96667 3.93544,-13.35162 3.9246,-14.18879 -0.0339,-2.61247 -5.82271,-3.13101 -13.20717,-1.18302 -3.8986,1.02843 -7.34634,2.12784 -7.66163,2.44313 -0.31529,0.3153 0.31262,3.20323 1.39536,6.41764 1.68641,5.0066 4.26704,19.13889 3.86716,21.1777 -0.0719,0.36667 -0.55989,5.06284 -1.08438,10.43595 l -0.95362,9.76928 3.81229,-0.43595 c 3.73499,-0.4271 3.8341,-0.65224 4.8877,-11.10261 z M 153.79248,150 c -0.11413,-1.46667 -1.06389,-6.56667 -2.11056,-11.33334 -1.52384,-6.93977 -2.44653,-8.74733 -4.63065,-9.07152 -2.06441,-0.30643 -2.90952,0.50404 -3.47577,3.33333 -0.4115,2.05601 -1.42747,6.97611 -2.25774,10.93357 -1.78389,8.50294 -0.83377,9.68625 7.34891,9.1525 4.41136,-0.28774 5.29745,-0.80886 5.12581,-3.01454 z m -23.2576,-45.26519 c 3.83918,-1.98531 8.13179,-7.39587 8.13179,-10.249579 0,-2.840063 -4.31296,-6.485232 -7.67332,-6.485232 -4.70256,0 -12.32668,8.026826 -12.32668,12.977781 0,2.15111 0.4,4.31111 0.88889,4.8 1.51089,1.51089 7.06008,0.98375 10.97932,-1.04297 z m -1.79772,-69.955721 c -5.3539,-8.539103 -10.16913,-13.572893 -10.94881,-11.445756 -0.2688,0.733333 -2.48674,4.933333 -4.92876,9.333333 -4.04192,7.282676 -4.87866,8.037187 -9.33178,8.414732 -4.282066,0.363044 -5.180639,-0.10172 -7.209772,-3.729063 -1.27492,-2.279088 -4.214282,-6.845723 -6.531914,-10.148078 l -4.213879,-6.004284 -4.253318,8.400013 c -5.65283,11.163948 -6.406246,11.936852 -11.178954,11.4681 -3.469229,-0.340729 -4.951936,-1.812511 -9.807021,-9.734753 -3.145924,-5.133333 -6.233815,-9.508669 -6.86198,-9.722969 -0.628166,-0.2143 -3.089865,3.3857 -5.470441,8 -2.380576,4.614299 -4.928034,9.139635 -5.661018,10.056302 -2.80612,3.509321 -6.207386,1.5044 -13.006179,-7.666666 -3.805498,-5.133334 -7.709804,-9.333334 -8.676238,-9.333334 -0.966432,0 -3.189094,3.75 -4.939249,8.333334 -2.909965,7.620662 -3.518584,8.333333 -7.1166401,8.333333 C 2.6422278,39.333333 3.0661203,34.711029 10.374187,20 15.701183,9.2768371 17.203292,7.2711056 20.164086,6.9277684 c 2.728302,-0.3163772 4.418434,0.7573105 7.685568,4.8824026 2.30348,2.908382 5.087693,7.440886 6.18714,10.072231 1.099447,2.631346 2.857296,4.784264 3.906332,4.784264 1.049036,0 3.508685,-3.568276 5.465888,-7.929502 1.957201,-4.361227 4.666671,-8.9323403 6.021041,-10.1580292 2.917991,-2.6407452 8.513605,-1.7197737 9.79199,1.6116452 1.796259,4.680974 9.304585,15.142553 10.867885,15.142553 1.45584,0 4.754706,-5.193248 9.128899,-14.37119 0.796312,-1.6708211 2.920171,-3.4165694 4.71969,-3.8794406 2.726192,-0.7012302 4.216601,0.2320538 8.936741,5.5961256 3.115691,3.540741 5.843358,7.686489 6.061483,9.212774 0.52042,3.641519 5.317637,4.321515 7.063257,1.001202 6.41024,-12.192816 8.82485,-16.0015345 10.56871,-16.6707162 2.98414,-1.1451229 9.74029,5.1607342 13.5193,12.6182602 1.80964,3.571141 4.06413,6.492985 5.00997,6.492985 0.94585,0 4.68574,-4.490841 8.31088,-9.979648 3.62513,-5.4888057 7.19114,-9.9865628 7.92448,-9.9950153 3.04334,-0.035079 10,5.4278193 10,7.8527653 0,2.971637 6.14477,10.799318 8.45185,10.766629 0.85148,-0.012 3.30331,-3.563671 5.44851,-7.892459 4.25125,-8.5785883 8.00477,-11.3603484 12.18501,-9.030405 3.66505,2.042798 5.9008,4.470696 6.00051,6.516228 0.0751,1.539486 2.20657,5.607804 11.20642,21.388855 1.97183,3.45755 1.91515,3.727384 -1.21332,5.777238 -4.43094,2.903266 -7.61978,1.596537 -10.72884,-4.396488 -1.42884,-2.754235 -3.88204,-6.971729 -5.45154,-9.372211 -3.08924,-4.7248 -4.77954,-4.093645 -6.33242,2.364511 -1.21397,5.048745 -8.20649,12 -12.07121,12 -3.33364,0 -6.55756,-3.605764 -13.07231,-14.620605 l -2.73286,-4.620606 -2.51158,3.101651 C 149.1302,26.899681 148,29.169306 148,30.237386 c 0,3.266324 -8.44214,12.379301 -11.49205,12.405245 -2.01464,0.01713 -4.24451,-2.239352 -7.77079,-7.863542 z"
       id="path809" />
  </g>
</svg>
