<?xml version="1.0" encoding="UTF-8" standalone="no"?>
<!-- Created with Inkscape (http://www.inkscape.org/) -->

<svg
   version="1.1"
   id="svg175"
   width="104"
   height="205.33333"
   viewBox="0 0 104 205.33333"
   xmlns="http://www.w3.org/2000/svg"
   xmlns:svg="http://www.w3.org/2000/svg">
  <defs
     id="defs179" />
  <g
     id="g181">
    <path
       style="fill:#000000;stroke-width:1.33333"
       d="m 52.805907,198.89196 c -0.376643,-0.60942 -5.062054,-1.9068 -10.412023,-2.88307 C 29.492665,193.65465 24.773059,191.1254 15.893633,181.80726 5.9157617,171.33642 3.3824233,163.52692 4.2962592,146.05612 c 0.749482,-14.32867 1.0644363,-14.983 13.0782718,-27.17048 6.756361,-6.85401 9.864666,-8.94418 16.476398,-11.07948 13.124628,-4.2387 24.409642,-4.70038 32.069618,-1.31201 3.53014,1.56155 6.98452,2.83918 7.676402,2.83918 2.163474,0 14.543552,11.05921 19.245046,17.19174 2.71322,3.53906 4.491338,7.38466 4.491338,9.71358 0,2.12035 0.985111,5.35864 2.189135,7.19621 1.864442,2.8455 1.932772,3.87678 0.460683,6.95308 -0.95065,1.98663 -1.915542,6.31206 -2.144207,9.61206 -0.475219,6.85814 -2.213969,10.82533 -7.471143,17.0464 -2.687328,3.18004 -3.701134,5.8279 -3.701134,9.66666 0,3.23331 -0.64739,5.36512 -1.666667,5.48822 -0.916667,0.11066 -3.466667,0.3373 -5.666667,0.50354 -4.084784,0.30868 -14.14951,3.59027 -18.315241,5.97164 -2.817935,1.61091 -7.277453,1.72792 -8.212185,0.2155 z M 55.333333,182 c 0,-1.44659 -1.05,-2.83236 -2.333333,-3.07951 -1.747667,-0.33657 -2.333333,0.43639 -2.333333,3.07951 0,2.64312 0.585666,3.41608 2.333333,3.0795 1.283333,-0.24714 2.333333,-1.63292 2.333333,-3.0795 z M 38.4,179.73333 c 0.88,-0.88 1.603696,-2.83 1.608215,-4.33333 0.0045,-1.50334 0.904517,-4.45192 2,-6.55242 C 43.103696,166.74709 44,164.23996 44,163.27616 c 0,-2.32672 3.706512,-5.94283 6.091397,-5.94283 3.135542,0 11.957712,8.86196 14.554119,14.61976 2.753468,6.10611 5.274076,6.73381 10.508005,2.6168 5.892167,-4.63477 4.602814,-7.07228 -6.820188,-12.89348 -9.010006,-4.59153 -10.377817,-5.76176 -10.680692,-9.13783 -0.479409,-5.34386 0.344304,-6.19453 11.347359,-11.7188 5.771525,-2.89769 9.666667,-5.68829 9.666667,-6.9255 0,-1.13972 -1.59368,-4.16163 -3.54151,-6.71537 -4.12228,-5.40458 -8.851753,-5.77528 -9.563801,-0.74961 -0.241255,1.70279 -1.86522,5.19815 -3.608812,7.76748 -1.743592,2.56932 -3.526893,5.79544 -3.962892,7.16915 -0.435999,1.37372 -2.034137,2.89167 -3.551419,3.37324 -5.056774,1.60495 -10.403893,-4.44375 -17.154965,-19.40584 -1.440631,-3.1928 -5.376083,-3.26641 -6.199944,-0.11596 C 30.60438,127.04885 29.278103,128 27.203228,128 c -2.231043,0 -3.391387,0.95211 -3.970016,3.25755 -1.109668,4.42127 -0.345636,5.31295 8.271087,9.65295 4.101644,2.0659 8.948202,5.13042 10.77013,6.81006 3.023328,2.78721 3.14496,3.31116 1.392884,6 -1.055842,1.62036 -3.78981,4.1461 -6.075486,5.61277 -2.285675,1.46667 -4.178886,3.44457 -4.207134,4.39535 -0.02825,0.95077 -1.847566,2.75077 -4.042929,4 -5.2056,2.96213 -5.044253,4.55669 0.962028,9.50758 5.611091,4.62514 5.883979,4.7093 8.096208,2.49707 z m -16.159031,-25.4 c 5.071995,-3.45348 5.063887,-5.00949 -0.03496,-6.70911 -5.412917,-1.8043 -7.539342,-0.39392 -7.539342,5.0006 0,5.5265 1.47751,5.85978 7.574302,1.70851 z m 61.518432,-2.10444 c 0.439426,-2.98633 -1.488176,-3.68341 -5.707913,-2.06415 -1.979559,0.75963 -1.968599,1.0502 0.12696,3.36578 2.79754,3.09124 5.010511,2.57512 5.580953,-1.30163 z M 54.666667,119.17007 c 0,-1.01021 -1.2,-1.83674 -2.666667,-1.83674 -2.594136,0 -3.769125,3.78643 -1.789345,5.76621 1.201682,1.20168 4.456012,-1.6681 4.456012,-3.92947 z m -20,-24.333149 C 29.075211,92.974108 17.755671,86.682043 15.662313,84.273185 14.575812,83.022933 11.418921,78.730396 8.6470011,74.734215 3.91895,67.917947 3.6132865,66.875756 3.7063915,57.888708 3.8338408,45.586539 9.0031873,34.439461 17.222065,28.743776 c 2.994531,-2.075212 5.444602,-4.544983 5.444602,-5.488382 0,-0.943397 -3.062003,-4.393834 -6.804451,-7.667637 C 10.41435,10.822097 9.2360587,9.0736327 9.9520656,6.8176946 10.828194,4.0572591 11.469508,3.9999999 41.510839,3.9999999 c 38.378898,0 41.929813,1.3409457 29.822494,11.2619841 -3.3,2.704101 -6,5.796613 -6,6.872249 0,1.075636 2.031436,3.154277 4.514303,4.619204 8.583367,5.06431 14.039148,16.643133 14.119769,29.96643 0.05633,9.308701 -3.610476,20.93688 -7.761556,24.613465 -2.069941,1.833333 -4.14422,4.383333 -4.609509,5.666667 -0.465289,1.283333 -1.789107,2.333333 -2.941817,2.333333 -1.15271,0 -3.729512,1.207828 -5.726227,2.684064 -4.055827,2.998602 -22.269805,4.815722 -28.261629,2.819525 z M 60.4602,80.9072 c 7.388964,-6.054701 12.873133,-16.880897 12.873133,-25.412612 0,-3.302132 -0.6,-6.374697 -1.333333,-6.827922 -0.733333,-0.453225 -1.333333,-1.967757 -1.333333,-3.365628 0,-4.399715 -7.842175,-11.935729 -14.186386,-13.632547 -3.256993,-0.871113 -5.813614,-2.353763 -5.813614,-3.371465 0,-0.999108 1.787862,-4.415129 3.973028,-7.591157 3.330393,-4.840561 3.636253,-5.903832 1.89095,-6.573568 -3.699266,-1.419541 -25.654397,-0.883433 -26.601848,0.649573 -0.492386,0.796698 0.972204,3.375263 3.254644,5.730143 5.520028,5.695224 5.317111,8.469692 -0.80658,11.028333 -11.04537,4.615051 -15.930276,12.661593 -16.252193,26.771033 -0.219164,9.605824 -0.197241,9.669464 5.436128,15.780949 8.307619,9.012703 15.97848,12.701777 25.321899,12.177824 6.40707,-0.359291 8.461478,-1.170757 13.577505,-5.362956 z"
       id="path948" />
  </g>
</svg>
