<?xml version="1.0" encoding="UTF-8" standalone="no"?>
<!-- Created with Inkscape (http://www.inkscape.org/) -->

<svg
   version="1.1"
   id="svg165"
   width="93.333336"
   height="204"
   viewBox="0 0 93.333336 204"
   xmlns="http://www.w3.org/2000/svg"
   xmlns:svg="http://www.w3.org/2000/svg">
  <defs
     id="defs169" />
  <g
     id="g171">
    <path
       style="fill:#000000;stroke-width:1.33333"
       d="m 47.505624,197.66667 c -0.804012,-2.78311 -3.061179,-26.54382 -4.233591,-44.56611 -0.461534,-7.09469 -0.411613,-16.89176 0.110934,-21.77124 0.787414,-7.35276 1.435237,-9.05127 3.783561,-9.92002 4.350217,-1.60935 8.692351,1.05487 9.444056,5.79462 1.221655,7.70295 2.728595,67.63456 1.765715,70.22317 -1.292487,3.47475 -9.881386,3.66403 -10.870675,0.23958 z M 37.258073,99.435408 C 23.638809,94.694599 9.8377501,81.023444 7.5072965,69.964664 6.0703996,63.146111 6.258151,52.911329 7.934685,46.666667 9.1481847,42.146689 11.528844,38.763271 17.585854,32.950316 l 8.040321,-7.716351 -6.805106,-7.195396 C 12.023088,10.850706 11.140515,7.4951477 15.7589,6.3961484 c 3.676475,-0.8748607 59.953663,-0.064507 61.490685,0.8854243 2.743973,1.6958684 1.36682,6.0328313 -3.249583,10.2336633 -5.669959,5.159547 -5.900069,8.272079 -0.832851,11.265359 2.1086,1.24558 5.955665,5.558752 8.549033,9.584826 9.50734,14.759674 7.546744,35.58492 -4.690435,49.821315 C 69.428487,97.02518 47.860221,103.12597 37.258073,99.435408 Z M 60.709904,86.182719 C 66.435558,83.516484 68.065301,81.847084 71.820319,74.801948 78.69667,61.900592 79.151301,59.19796 75.911804,50.479359 72.374971,40.960529 67.516317,36.238908 59.895191,34.91448 c -5.535587,-0.961996 -5.872227,-1.265132 -5.518749,-4.969484 1.129402,-11.835857 1.17078,-11.660745 -3.043107,-12.878537 -4.629012,-1.33776 -18.000001,-0.11227 -18.000001,1.649754 0,0.655048 1.8,3.241084 4,5.746746 2.2,2.505661 4.000001,5.260277 4.000001,6.121368 0,0.861092 -2.673079,2.74805 -5.940175,4.193242 -7.371257,3.260658 -14.772567,12.075647 -16.742779,19.940714 -1.233651,4.924724 -1.07308,7.429136 0.933056,14.552886 2.062044,7.322276 3.21741,9.153567 7.753182,12.289039 3.308494,2.287081 7.125285,3.701335 10.063382,3.728831 2.603333,0.02436 5.303334,0.593489 6,1.264726 1.093927,1.053996 4.357518,1.964386 9.266667,2.584967 0.733334,0.09271 4.35279,-1.237503 8.043236,-2.956013 z"
       id="path1087" />
  </g>
</svg>
