<?xml version="1.0" encoding="UTF-8" standalone="no"?>
<!-- Created with Inkscape (http://www.inkscape.org/) -->

<svg
   version="1.1"
   id="svg214"
   width="82.666664"
   height="232"
   viewBox="0 0 82.666664 232"
   xmlns="http://www.w3.org/2000/svg"
   xmlns:svg="http://www.w3.org/2000/svg">
  <defs
     id="defs218" />
  <g
     id="g220">
    <path
       style="fill:#000000;stroke-width:1.33333"
       d="m 31.573688,215 c -5.15924,-10.41308 -9.543093,-41.11019 -7.71423,-54.01747 0.791372,-5.58514 0.807533,-10.65686 0.04245,-13.32453 -1.839873,-6.41527 -1.501428,-12.60903 0.947799,-17.34531 1.200676,-2.32185 2.168434,-6.64205 2.150573,-9.60045 -0.01787,-2.9584 -0.08731,-10.2359 -0.154313,-16.17223 -0.06701,-5.936322 1.063509,-17.936322 2.51227,-26.666662 1.448762,-8.730341 2.635832,-17.115349 2.637934,-18.633349 0.0053,-3.819158 -8.55179,-13.455708 -14.76152,-16.623675 C 8.6533852,38.238488 7.0682382,32.229847 12.722003,25.510728 c 8.147274,-9.682484 33.70725,-13.054212 47.185222,-6.224407 8.600691,4.3583 12.337991,9.197098 11.824291,15.30927 -0.31353,3.730489 -1.248593,5.165374 -4.398185,6.749165 -6.66892,3.353503 -10.151689,6.221025 -15.677445,12.907953 -5.02345,6.07907 -5.239275,6.715904 -4.42908,13.068882 1.63085,12.787969 3.146108,22.725624 4.576082,30.011742 2.195246,11.185407 3.97887,57.873177 2.674225,69.999997 C 53.845957,173.2 53.036689,181 52.67874,184.66667 c -0.35795,3.66666 -1.523767,10.26666 -2.590706,14.66666 -1.066937,4.4 -2.260184,9.55251 -2.651657,11.45003 -1.085313,5.26063 -5.853604,10.54997 -9.51069,10.54997 -2.505068,0 -3.90632,-1.39713 -6.351999,-6.33333 z m 8.937697,-61.88429 c 0.142287,-20.35851 -0.453045,-25.6185 -2.650789,-23.42075 -1.504175,1.50417 -2.221093,28.36116 -1.148767,43.03476 1.010728,13.83071 1.135408,14.28605 2.355744,8.60361 0.708692,-3.3 1.358408,-15.99793 1.443812,-28.21762 z m 4.02264,-110.302478 c 1.254364,-1.386056 4.952824,-4.20916 8.2188,-6.273564 7.918513,-5.005245 5.906744,-6.989417 -8.155128,-8.043259 -10.888569,-0.816024 -19.931031,0.585004 -19.931031,3.08809 0,1.712557 14.06617,13.679684 16.126682,13.720157 0.803009,0.01577 2.486315,-1.105368 3.740677,-2.491424 z"
       id="path391" />
  </g>
</svg>
