<?xml version="1.0" encoding="UTF-8" standalone="no"?>
<!-- Created with Inkscape (http://www.inkscape.org/) -->

<svg
   version="1.1"
   id="svg75"
   width="210.66667"
   height="209.33333"
   viewBox="0 0 210.66667 209.33333"
   xmlns="http://www.w3.org/2000/svg"
   xmlns:svg="http://www.w3.org/2000/svg">
  <defs
     id="defs79" />
  <g
     id="g81">
    <path
       style="fill:#000000;stroke-width:1.33333"
       d="m 90.666668,204.12533 c -1.1,-0.6198 -5,-1.52808 -8.666667,-2.01839 -16.742773,-2.23889 -35.306826,-8.89881 -44.391526,-15.92564 -9.541891,-7.38045 -11.965307,-10.12128 -18.220991,-20.60753 -4.710373,-7.89588 -5.038789,-9.15467 -5.217988,-20 -0.352272,-21.31983 6.938714,-34.32684 23.588145,-42.0809 16.936711,-7.887845 40.719208,-1.00576 48.313448,13.98075 2.399856,4.73588 3.262246,8.58617 3.262246,14.56486 0,12.15574 -3.069738,19.59445 -10.851118,26.29485 -7.733045,6.65877 -11.377644,7.09263 -24.9419,2.96905 -6.943415,-2.11082 -9.507534,-3.63349 -11.787736,-7 -6.477003,-9.5627 -8.158296,-21.31263 -3.591894,-25.10241 1.011623,-0.83957 1.839314,-2.24019 1.839314,-3.11249 0,-0.87229 1.92808,-3.01148 4.284621,-4.75375 3.194544,-2.36183 5.929885,-3.14294 10.751428,-3.0702 7.785878,0.11745 11.819278,3.31669 15.13834,12.00754 2.159834,5.65543 2.14367,6.0003 -0.443673,9.46577 -1.835476,2.45842 -3.905396,3.59649 -6.541277,3.59649 -3.174454,0 -4.103762,-0.76619 -5.257098,-4.33432 -2.953749,-9.13818 -8.599008,-9.44736 -8.599008,-0.47096 0,8.90015 9.643767,14.39195 18.149823,10.33569 12.838219,-6.12212 13.007222,-23.83703 0.317065,-33.2351 -6.455346,-4.7807 -21.304873,-3.0845 -29.517328,3.37165 C 30.99201,124.73195 28,131.4216 28,141.99121 c 0,16.06384 10.393857,29.79853 27.410004,36.22025 18.260834,6.89144 22.75128,8.28226 33.923331,10.50702 15.334855,3.05372 18.899515,6.54853 13.924395,13.6515 -2.16616,3.09264 -8.620689,3.99247 -12.591062,1.75535 z m 23.579562,-5.51175 c -1.58314,-2.26025 -1.81515,-9.95972 -1.37326,-45.57304 0.52929,-42.6563 0.94732,-46.37388 5.21469,-46.37388 4.79069,0 5.2723,4.08601 5.62476,47.7213 0.30358,37.58321 0.0905,42.95198 -1.779,44.82148 -2.86793,2.86793 -5.39845,2.67178 -7.68719,-0.59586 z m 39.81977,-0.25657 c -2.14864,-1.20243 -2.25553,-4.47323 -1.5064,-46.09037 0.60143,-33.41216 1.22575,-45.06246 2.45671,-45.84428 2.66043,-1.68972 4.80204,-1.25475 6.12644,1.2443 1.47727,2.7875 2.62131,87.00436 1.21136,89.17239 -1.44719,2.22531 -5.64903,2.99487 -8.28811,1.51796 z m 40,0 c -2.14864,-1.20243 -2.25553,-4.47323 -1.5064,-46.09037 0.60143,-33.41216 1.22575,-45.06246 2.45671,-45.84428 2.66043,-1.68972 4.80204,-1.25475 6.12644,1.2443 1.47727,2.7875 2.62131,87.00436 1.21136,89.17239 -1.44719,2.22531 -5.64903,2.99487 -8.28811,1.51796 z M 91.333335,59.851458 C 78.372523,57.9723 69.466778,55.911798 65.610566,53.900036 63.624756,52.864052 61.098621,52.012731 59.996934,52.008214 55.411814,51.98941 27.860464,34.130911 15,22.841666 8.5529651,17.182294 6.6666668,14.692437 6.6666668,11.841916 6.6666668,9.8154204 7.137768,7.866222 7.7135584,7.510364 9.1302025,6.6348298 149.77094,4.7446521 177.33334,5.230715 199.27579,5.6176703 204,6.4510638 204,9.9349522 c 0,2.6262498 -23.39377,25.1735728 -31.33333,30.1996108 -3.66667,2.321138 -8.16667,5.244199 -10,6.495692 -1.83333,1.251495 -7.19059,3.607954 -11.90501,5.236575 -4.71443,1.628622 -9.76127,3.597778 -11.2152,4.375902 -8.32092,4.453218 -30.7893,6.134964 -48.213125,3.608726 z M 133.95687,48.010522 c 9.03595,-2.204056 22.23145,-8.178148 30.7098,-13.903455 5.34711,-3.610827 18,-15.709677 18,-17.211823 0,-0.701523 -19.42833,-0.790144 -47,-0.21439 -59.076158,1.233636 -84.467777,1.269171 -96.333336,0.134812 -11.277928,-1.07818 -14.509239,0.271674 -10.707224,4.472852 2.151693,2.377595 14.646881,11.016239 27.659975,19.122936 5.433719,3.385015 13.90152,5.913996 25.04725,7.480575 5.5,0.773048 11.8,1.984952 14,2.693118 5.342545,1.719735 26.912765,0.281875 38.623535,-2.574625 z"
       id="path1226" />
  </g>
</svg>
