<?xml version="1.0" encoding="UTF-8" standalone="no"?>
<!-- Created with Inkscape (http://www.inkscape.org/) -->

<svg
   version="1.1"
   id="svg215"
   width="225.33333"
   height="218.66667"
   viewBox="0 0 225.33333 218.66667"
   xmlns="http://www.w3.org/2000/svg"
   xmlns:svg="http://www.w3.org/2000/svg">
  <defs
     id="defs219" />
  <g
     id="g221">
    <path
       style="fill:#000000;stroke-width:1.33333"
       d="m 87.999999,209.32355 c -4.033334,-0.52308 -12.733333,-2.44048 -19.333333,-4.26088 -11.345322,-3.12925 -16.263429,-5.34384 -31.968712,-14.39528 -7.448373,-4.29272 -31.3646207,-27.08455 -31.3646207,-29.89 0,-0.99841 1.0499999,-3.08765 2.3333333,-4.64275 2.3223934,-2.81418 2.6333974,-2.82657 66.3333324,-2.64326 35.200001,0.10133 78.768561,0.0425 96.819011,-0.13067 38.35317,-0.36799 42.69339,0.63256 39.52693,9.11212 -1.12793,3.02053 -0.6249,4.55199 3.5018,10.6612 3.99215,5.91003 4.81807,8.31197 4.81394,14 -0.009,12.79331 -7.2615,19.07507 -17.94959,15.54767 -4.39743,-1.45128 -11.28551,-8.63676 -13.11539,-13.68166 -1.11781,-3.08173 -2.31628,-2.94973 -7.95397,0.87612 -8.68728,5.89535 -26.87367,13.99476 -36.3094,16.17059 -17.1872,3.96329 -39.74145,5.29896 -55.333331,3.27684 z m 53.724441,-15.09452 c 17.63037,-6.07801 41.09493,-19.23068 44.75046,-25.08412 1.30536,-2.09021 0.81026,-2.56795 -4.00509,-3.86459 -3.02201,-0.81373 -7.06401,-1.07857 -8.9822,-0.5885 -1.91819,0.49006 -35.73761,0.8219 -75.154278,0.73741 -58.26997,-0.12493 -71.666666,0.17287 -71.666666,1.59289 0,3.17983 11.343461,11.29746 26.729507,19.12822 19.546583,9.94828 32.244063,12.52173 59.270487,12.01262 16.22938,-0.30572 20.02343,-0.81937 29.05778,-3.93393 z m 64.42214,-9.16275 c -0.9848,-4.92404 -3.30852,-6.86838 -5.76853,-4.82674 -2.29147,1.90174 -2.15571,3.7262 0.49527,6.65548 3.66244,4.04694 6.2677,3.14346 5.27326,-1.82874 z M 33.999999,61.42703 C 15.430029,60.527065 10.584989,59.333142 8.1986669,55.069021 6.551239,52.12523 9.0357739,46.666667 12.023105,46.666667 c 1.243953,0 10.162499,0.661316 19.818989,1.469592 18.501905,1.548663 24.157905,1.053544 24.157905,-2.114749 0,-2.611649 -3.376412,-4.173844 -11.333333,-5.243693 -10.262941,-1.379906 -14,-3.243476 -14,-6.981423 0,-4.391731 2.704051,-5.08181 12.39968,-3.164418 13.661576,2.701693 17.328664,4.197723 23.454706,9.568626 l 5.854387,5.132732 39.478951,0.206535 c 21.71342,0.113586 43.20003,0.372684 47.74803,0.575756 11.87046,0.530025 13.9342,-1.47235 19.0755,-18.508229 6.41034,-21.240852 5.58166,-20.3214479 18.03692,-20.0115636 7.99645,0.1989501 10.93546,0.7887341 12.14013,2.4362026 1.9768,2.703445 3.47776,20.51114 2.90759,34.496508 -0.65835,16.148538 0.72748,15.627014 -43.26615,16.282263 -30.42857,0.453208 -67.9543,0.48099 -97.829744,0.07243 -4.033334,-0.05516 -9.733334,0.248179 -12.666667,0.674081 -2.933333,0.425903 -13.733333,0.367275 -24,-0.13028 z M 197.79749,43.380258 c 0.41221,-1.074191 1.14717,-6.341983 1.63327,-11.706204 0.73785,-8.142463 0.52222,-10.053218 -1.3057,-11.570259 -2.74181,-2.275507 -3.52861,-1.490783 -4.85609,4.843351 -0.58243,2.779069 -2.03503,7.695056 -3.228,10.924412 -1.19296,3.229356 -1.85905,6.679356 -1.48019,7.666667 0.93156,2.427596 8.29284,2.301704 9.23671,-0.157967 z"
       id="path243" />
  </g>
</svg>
