<?xml version="1.0" encoding="UTF-8" standalone="no"?>
<!-- Created with Inkscape (http://www.inkscape.org/) -->

<svg
   version="1.1"
   id="svg205"
   width="218.66667"
   height="206.66667"
   viewBox="0 0 218.66667 206.66667"
   xmlns="http://www.w3.org/2000/svg"
   xmlns:svg="http://www.w3.org/2000/svg">
  <defs
     id="defs209" />
  <g
     id="g211">
    <path
       style="fill:#000000;stroke-width:1.33333"
       d="m 156,201.28868 c -8.43333,-0.53261 -43.72635,-1.03162 -78.428927,-1.10893 -34.702578,-0.0773 -63.656845,-0.4874 -64.342816,-0.91136 -2.492109,-1.5402 -5.7323854,-9.42867 -6.6899385,-16.28668 -0.9369939,-6.71076 0.5482189,-16.3116 2.5243536,-16.31815 41.0155259,-0.13584 77.6111189,-0.89205 78.3374749,-1.61877 0.525105,-0.52537 -0.925112,-3.09625 -3.222704,-5.71307 -4.874636,-5.5519 -5.158846,-7.68365 -1.510775,-11.33172 5.240217,-5.24021 9.207753,-3.35397 14.723796,7 3.051386,5.72764 4.211186,6.0313 8.912376,2.33334 1.86457,-1.46667 4.42829,-2.66667 5.69716,-2.66667 1.26888,0 3.8326,1.2 5.69716,2.66667 1.86457,1.46666 4.07027,2.66666 4.90155,2.66666 0.83129,0 3.34501,-2.9496 5.58605,-6.55466 4.45847,-7.1722 8.3423,-9.02971 13.73884,-6.57087 4.50462,2.05243 4.31535,3.55601 -1.38777,11.02517 -2.63864,3.45571 -4.58083,6.4998 -4.316,6.76464 0.26484,0.26484 17.57372,0.7953 38.46419,1.17879 20.89045,0.38349 38.50604,0.72569 39.14574,0.76044 0.6397,0.0347 0.90043,5.55707 0.57939,12.27184 l -0.58371,12.20869 -5.13634,4.31223 c -4.41478,3.70641 -6.75659,4.52 -16.66968,5.79131 -12.3127,1.57904 -12.60524,1.57986 -36.01942,0.10106 z m 46.33334,-11.03481 c 2.52161,-1.63085 2.05678,-8.62527 -0.66667,-10.03157 -1.28333,-0.66268 -6.23333,-1.65544 -11,-2.20612 -10.33569,-1.19408 -158.610926,-1.89199 -166.901355,-0.78559 -5.393983,0.71985 -5.79304,1.05944 -6.195771,5.27229 -0.236752,2.47658 0.242502,5.17658 1.065006,6 0.966916,0.96799 11.486426,1.73275 29.763789,2.16379 44.909762,1.05913 152.103571,0.77168 153.935001,-0.4128 z M 81.384465,45.742993 c -10.118508,-0.647774 -12.051131,-1.889575 -12.051131,-7.74342 0,-15.646615 19.480535,-32.9003409 37.243226,-32.9859712 11.03199,-0.053183 17.17906,2.18887 26.31853,9.5992942 6.65131,5.392979 8.75965,8.091544 11.00001,14.079435 5.8161,15.544934 4.43889,16.637534 -20.99034,16.652592 -10.76428,0.0064 -22.57143,0.222648 -26.238092,0.480608 -3.666667,0.25796 -10.543659,0.220818 -15.282203,-0.08253 z M 129.89095,33.857349 c 3.34381,-1.28314 2.47076,-4.990977 -2.22428,-9.446522 -8.96379,-8.506535 -15.60007,-9.980927 -29.000002,-6.442975 -5.432759,1.434398 -8.62918,3.31749 -12.333333,7.265878 -8.6403,9.21 -8.209588,9.432937 18.224285,9.432937 12.77335,0 24.17335,-0.364193 25.33333,-0.809318 z"
       id="path382" />
  </g>
</svg>
