<?xml version="1.0" encoding="UTF-8" standalone="no"?>
<!-- Created with Inkscape (http://www.inkscape.org/) -->

<svg
   version="1.1"
   id="svg195"
   width="80"
   height="77.333336"
   viewBox="0 0 80 77.333336"
   xmlns="http://www.w3.org/2000/svg"
   xmlns:svg="http://www.w3.org/2000/svg">
  <defs
     id="defs199" />
  <g
     id="g201">
    <path
       style="fill:#000000;stroke-width:1.33333"
       d="M 7.4285715,71.238097 C 4.1367135,67.94624 4.8486067,66.184698 12.333333,59.101534 c 3.85,-3.643445 12.626514,-12.88179 19.503363,-20.529655 6.876851,-7.647867 17.218441,-18.295877 22.981313,-23.662245 8.46879,-7.8861096 11.169847,-9.6757882 14.086251,-9.3333335 4.853019,0.5698589 6.258577,6.2096905 5.422285,21.7570335 -0.355014,6.600001 -0.269772,15.600001 0.189427,20.000001 0.773879,7.415227 -1.111471,21.036429 -3.201881,23.132834 -1.205794,1.209251 -23.288802,2.574392 -44.218852,2.73355 C 12.773056,73.308628 9.1363655,72.945892 7.4285715,71.238097 Z M 63.608676,61.057949 C 65.380935,59.638743 65.846659,29.252628 64.163049,24.887861 63.3371,22.746582 62.563411,23.136643 57.943216,28.023642 55.041113,31.093333 46.216667,40.047168 38.333333,47.921055 30.45,55.794942 24,62.689719 24,63.242784 24,64.68274 61.677477,62.60443 63.608676,61.057949 Z"
       id="path521" />
  </g>
</svg>
