<?xml version="1.0" encoding="UTF-8" standalone="no"?>
<!-- Created with Inkscape (http://www.inkscape.org/) -->

<svg
   version="1.1"
   id="svg185"
   width="193.33333"
   height="146.66667"
   viewBox="0 0 193.33333 146.66667"
   xmlns="http://www.w3.org/2000/svg"
   xmlns:svg="http://www.w3.org/2000/svg">
  <defs
     id="defs189" />
  <g
     id="g191">
    <path
       style="fill:#000000;stroke-width:1.33333"
       d="M 92.666665,139.67707 C 79.622349,132.24635 76.929283,129.91002 70.942144,120.83025 63.998191,110.29943 57.524726,92.940638 57.408726,84.539986 c -0.07832,-5.671567 2.825301,-9.873318 6.822944,-9.873318 2.200521,0 5.582909,3.3982 6.787959,6.819693 0.9068,2.574674 10.119371,3.719354 20.930431,2.600646 6.981034,-0.722384 7.321038,-0.938692 8.1902,-5.210537 1.20928,-5.94351 2.6696,-7.152071 8.02353,-6.640258 3.96399,0.378942 4.55163,0.932339 4.91027,4.624167 0.64002,6.58829 3.57465,8.254458 14.92594,8.474351 15.04776,0.291501 14.66666,0.378151 14.66666,-3.334728 0,-3.365818 4.13119,-8.666667 6.75432,-8.666667 0.78155,0 2.65866,0.662376 4.17135,1.471948 2.54223,1.360557 2.682,2.243437 1.84697,11.666667 -1.31656,14.85749 -8.42434,32.72272 -16.69265,41.95651 -11.05441,12.34522 -34.22551,18.00154 -46.079985,11.24861 z M 116.56224,128.79623 C 123.29056,125.98496 132,117.57609 132,113.89125 c 0,-1.72249 1.8,-5.18188 4,-7.68754 4.81078,-5.47918 5.18824,-8.848322 1,-8.926049 -1.65,-0.03062 -14.61769,-0.384697 -28.81708,-0.786836 -31.097963,-0.880721 -34.849588,-0.403652 -34.849588,4.431585 0,3.9709 7.250025,15.4804 12.857181,20.41093 9.561844,8.40799 21.241257,11.27784 30.371727,7.46289 z M 65.5681,40.547701 c -1.432425,-1.003311 -4.803313,-5.136988 -7.490861,-9.185951 -2.687548,-4.048961 -5.777544,-7.361749 -6.866656,-7.361749 -1.138077,0 -3.499422,3.422386 -5.552538,8.047502 -5.629396,12.681507 -9.591672,12.332309 -19.934028,-1.756798 -5.284819,-7.199366 -8.18126,-7.664142 -10.120847,-1.624038 -1.516948,4.723959 -4.692978,8.666667 -6.9813931,8.666667 -0.8973742,0 -2.3234918,-1.6704 -3.1691502,-3.712 C 4.2445838,30.704861 4.324715,28.748265 5.8265264,24.491677 8.4241269,17.129292 13.364092,7.5489758 15.179112,6.3537505 c 2.997838,-1.974134 7.405958,-0.9964712 8.925613,1.979583 3.996052,7.8257725 11.239093,17.0651245 13.09738,16.7072515 1.11386,-0.214511 2.420202,-2.321367 2.902984,-4.681903 0.915081,-4.474247 3.537917,-9.144545 7.18219,-12.7888193 3.123908,-3.1239082 7.478468,-0.6484029 11.200217,6.3671643 1.683647,3.173704 4.711612,7.351589 6.728811,9.28419 l 3.667636,3.513818 1.492121,-5.034184 c 0.820665,-2.768801 1.808879,-6.587243 2.196028,-8.485425 0.498585,-2.444548 2.314316,-4.1774339 6.224861,-5.940844 l 5.520952,-2.4896026 5.253851,5.9408436 c 2.889617,3.267464 6.108997,7.849816 7.154177,10.183003 1.045181,2.333187 2.486413,4.604379 3.20274,5.047093 1.409307,0.870998 6.737987,-8.542241 6.737987,-11.902801 0,-3.132914 4.93936,-7.3864512 8.5774,-7.3864512 3.17431,0 8.82752,5.8343062 14.53441,15.0000002 1.25565,2.016667 3.07805,3.666667 4.04977,3.666667 1.93894,0 5.84873,-8.068318 6.45506,-13.320845 0.45203,-3.9156561 6.45722,-7.3169841 10.815,-6.125591 2.75186,0.7523407 7.24603,6.857401 12.10687,16.446436 3.3804,6.668544 3.96391,6.204516 9.91659,-7.885968 1.44508,-3.420616 3.73384,-6.7997162 5.08616,-7.5091121 5.12492,-2.6884301 11.12541,2.4343763 11.12541,9.4981061 0,3.267004 -2.16445,4.896974 -6.50272,4.896974 -1.46872,0 -3.88352,3.117376 -6.76172,8.728984 -7.32553,14.282598 -11.39344,14.52338 -20.2188,1.196772 -3.14552,-4.749843 -6.3486,-8.429717 -7.11795,-8.177499 -0.76934,0.252219 -3.02129,3.826203 -5.00432,7.942188 -3.64817,7.572141 -6.71237,10.309555 -11.54027,10.309555 -2.57149,0 -7.22901,-6.275945 -11.13185,-15 -2.68716,-6.006656 -5.73673,-4.554243 -10.61941,5.057696 -5.98945,11.790712 -11.960677,13.375651 -16.818354,4.464085 -3.327794,-6.104942 -8.269891,-11.855114 -10.189109,-11.855114 -1.723718,0 -4.762162,5.454972 -4.762162,8.549592 0,2.656014 -4.924032,8.365689 -7.881577,9.139105 -1.436917,0.375763 -3.784561,-0.137686 -5.216988,-1.140997 z"
       id="path660" />
  </g>
</svg>
