<?xml version="1.0" encoding="UTF-8" standalone="no"?>
<!-- Created with Inkscape (http://www.inkscape.org/) -->

<svg
   version="1.1"
   id="svg175"
   width="216"
   height="109.33333"
   viewBox="0 0 216 109.33333"
   xmlns="http://www.w3.org/2000/svg"
   xmlns:svg="http://www.w3.org/2000/svg">
  <defs
     id="defs179" />
  <g
     id="g181">
    <path
       style="fill:#000000;stroke-width:1.33333"
       d="M 34.985843,97.516152 C 26.784639,90.457592 23.573829,85.826109 20.894304,77.189584 20.528493,76.010523 18.425883,74.685174 16.221835,74.244364 8.6381245,72.727623 9.138628,63.999998 16.809319,63.999998 c 5.508101,0 5.856657,-2.327847 1.749069,-11.681197 C 12.579262,38.703791 11.72447,36.607728 10.025263,31.394447 9.0582227,28.4275 7.6006957,22.099999 6.7863147,17.333333 5.3742616,9.068424 5.4444739,8.5522296 8.3009247,6.1980493 12.989049,2.3342719 26.022967,3.6005792 33.271909,8.6240995 c 6.384668,4.4245775 8.548982,7.7392645 7.405584,11.3417895 -1.165314,3.671581 -6.001129,3.833761 -11.196889,0.375512 -8.798859,-5.856439 -12.328313,-3.115811 -9.606032,7.459102 0.877759,3.409723 2.213092,9.164221 2.967407,12.787774 2.50243,12.021107 7.012172,18.96412 14.839594,22.846438 3.841802,1.905492 9.521734,6.168504 12.622071,9.473361 l 5.636979,6.00883 7.696354,-0.784148 c 4.232996,-0.431283 17.677432,-1.30958 29.876527,-1.951772 12.199096,-0.642192 22.759896,-1.525911 23.468446,-1.963819 0.70855,-0.437909 9.62747,-1.412211 19.81982,-2.165115 37.05768,-2.737433 35.18572,-2.363138 37.31587,-7.461286 C 175.15293,62.112951 176,58.496905 176,56.555108 c 0,-1.941796 0.90024,-6.311068 2.00052,-9.709491 1.10029,-3.398424 2.66549,-10.594161 3.47824,-15.990529 C 183.47969,17.569591 185.19841,16 197.74516,16 c 5.70821,0 10.67647,0.690419 11.99333,1.666666 2.95151,2.188068 3.64139,19.783049 1.0235,26.103211 -1.39156,3.359511 -1.45578,5.110047 -0.28196,7.686271 C 211.36645,53.401662 212,61.951013 212,71.967496 212,92.170268 211.47185,93.199334 200.90476,93.58596 186.38335,94.117264 162.98624,94.401221 116,94.616401 59.500541,94.875148 51.590817,95.44802 50.872633,99.33333 c -0.643025,3.47871 -2.744794,6 -5.001657,6 -0.991377,0 -5.889688,-3.51773 -10.885133,-7.817178 z m 10.154793,-9.368845 c 1.485553,-0.941315 1.382388,-1.827816 -0.579491,-4.979583 -6.028585,-9.684948 -11.501532,-12.606751 -13.256549,-7.077182 -1.202137,3.787597 5.388955,13.25005 9.210072,13.222371 1.550265,-0.0112 3.631952,-0.535752 4.625968,-1.165606 z M 193,83.182504 l 7,-0.707724 0.11707,-4.904057 c 0.96738,-40.541407 0.81188,-48.246531 -1.00419,-49.753729 -1.21095,-1.005 -2.35413,-1.109021 -3.17431,-0.288843 -1.05981,1.059801 -8.33109,28.367357 -11.22942,42.172428 -1.651,7.863944 -3.17531,8.397155 -36.04243,12.60785 -16.01394,2.05159 24.73944,2.855082 44.33333,0.874075 z"
       id="path799" />
  </g>
</svg>
