<?xml version="1.0" encoding="UTF-8" standalone="no"?>
<!-- Created with Inkscape (http://www.inkscape.org/) -->

<svg
   version="1.1"
   id="svg165"
   width="217.33333"
   height="148"
   viewBox="0 0 217.33333 148"
   xmlns="http://www.w3.org/2000/svg"
   xmlns:svg="http://www.w3.org/2000/svg">
  <defs
     id="defs169" />
  <g
     id="g171">
    <path
       style="fill:#000000;stroke-width:1.33333"
       d="m 12.020041,140.16591 c -1.82231,-0.51883 -4.2024099,-2.52742 -5.2891102,-4.46351 -1.8048001,-3.21547 -1.748831,-3.77191 0.6466252,-6.42859 2.5497461,-2.8278 3.195352,-2.88449 23.28911,-2.04521 21.876853,0.91376 26.921544,0.0462 21.175853,-3.64184 -1.74672,-1.12118 -6.648209,-2.45879 -10.8922,-2.97247 -9.309422,-1.12679 -14.378671,-4.55783 -12.111426,-8.19742 1.266572,-2.03322 2.959765,-2.3453 10.666666,-1.966 10.788108,0.53095 18.783029,3.69267 26.13656,10.33615 l 5.294355,4.78313 35.531766,-0.81391 c 19.54246,-0.44765 41.61461,-1.1541 49.0492,-1.56988 l 13.51744,-0.75596 2.02108,-4.88187 c 1.1116,-2.68502 3.90934,-9.98186 6.21721,-16.2152 5.82473,-15.73209 5.36233,-15.194427 14.13237,-16.432477 10.19318,-1.43895 15.84187,-0.322046 17.47168,3.454642 1.40632,3.258772 1.63952,44.238875 0.2596,45.618785 -1.67956,1.67956 -19.38446,3.91143 -33.13682,4.17719 -7.7,0.14881 -28.4,0.63138 -46,1.0724 -17.6,0.441 -34.700001,0.73973 -38.000001,0.66384 -10.951778,-0.25187 -31.059141,-0.0283 -54,0.60037 -12.466666,0.34165 -24.157647,0.19667 -25.979958,-0.32217 z M 195.22342,119.66667 c 0.33418,-1.65 0.94979,-7.35 1.36806,-12.66667 0.61957,-7.875601 0.40482,-9.666667 -1.15899,-9.666667 -1.05571,0 -2.28807,1.35 -2.7386,2.999997 -0.45052,1.65 -2.37569,6.39647 -4.27815,10.54771 -4.03905,8.81337 -3.48834,11.78563 2.18367,11.78563 3.09629,0 4.15564,-0.68729 4.62401,-3 z M 66.993254,39.517667 c -1.388727,-1.56805 -4.280326,-6.299575 -6.425774,-10.514499 -2.145448,-4.214924 -4.500814,-7.655197 -5.234148,-7.645052 -0.733333,0.01013 -3.421149,4.212029 -5.972923,9.337517 -6.856444,13.771836 -9.834055,13.864011 -18.633323,0.576812 -3.134484,-4.733178 -6.54323,-8.605778 -7.574992,-8.605778 -1.81511,0 -2.359813,0.962253 -5.884981,10.39621 C 15.343608,38.210508 9.2671716,42.067172 6.8650074,39.665008 4.6188417,37.418841 4.8230479,36.534175 10.788708,22.666667 19.952518,1.3648792 22.072653,0.70363523 32.163922,16 c 3.870339,5.866667 7.521688,10.666667 8.114111,10.666667 0.592421,0 3.304568,-4.501574 6.026992,-10.003498 5.834257,-11.7908263 8.722038,-13.4857909 13.347461,-7.8342065 1.72749,2.1107375 3.929572,5.6377045 4.893514,7.8377045 2.187859,4.993336 6.808188,9.223178 8.758202,8.018004 0.809732,-0.500442 3.276142,-4.727864 5.480914,-9.394274 2.421848,-5.12585 5.084015,-8.8256775 6.725215,-9.3465741 3.512174,-1.114721 7.91775,2.9792422 13.113925,12.1863581 2.167564,3.840714 4.547124,7.357706 5.287914,7.815536 1.5204,0.939659 9.35681,-10.797162 9.39583,-14.0724 0.0278,-2.3328506 4.08077,-6.5399837 6.30035,-6.5399837 1.20727,0 7.18695,6.8560887 15.37099,17.6238617 L 137.29204,26 l 2.35397,-2.914249 c 1.29469,-1.602838 3.85399,-5.437946 5.68732,-8.522463 4.09724,-6.8934697 6.30209,-9.2299547 8.70996,-9.2299547 2.66757,0 7.20501,5.1577237 9.97036,11.3333337 1.31351,2.933333 3.31068,6.533333 4.43816,8 l 2.04997,2.666666 2.04624,-2.666666 C 173.67346,23.2 175.61224,19.3 176.85642,16 182.8075,0.21572293 188.6863,1.6641284 198.65474,21.370631 c 5.96715,11.796362 6.8374,15.782933 3.85982,17.681521 -3.62991,2.314533 -6.31188,0.07603 -10.79064,-9.006431 -2.36295,-4.791813 -4.94096,-8.712388 -5.72891,-8.712388 -0.78795,0 -3.6878,4.5 -6.44412,10 -4.11443,8.209971 -5.57557,10 -8.16267,10 -3.61844,0 -7.67096,-4.506334 -13.0545,-14.516352 C 156.31726,23.067641 154.07324,20 153.347,20 c -0.72626,0 -3.03579,3.75 -5.13231,8.333333 -4.92168,10.759563 -8.36663,13.966319 -12.82264,11.936024 -1.79508,-0.817893 -4.28157,-3.463092 -5.52554,-5.878218 -1.24396,-2.415127 -3.75074,-6.349935 -5.57063,-8.74402 -3.99888,-5.260592 -5.0764,-4.630726 -10.25076,5.992097 -2.06128,4.231764 -4.41469,8.134929 -5.22979,8.6737 -5.24145,3.464529 -11.636125,-1.255093 -16.885285,-12.462268 -2.835942,-6.054856 -6.596713,-8.779413 -6.596713,-4.779107 0,2.375576 -6.417177,15.080272 -8.397975,16.626271 -3.520754,2.747924 -7.411322,2.677428 -9.942103,-0.180145 z"
       id="path938" />
  </g>
</svg>
