<?xml version="1.0" encoding="UTF-8" standalone="no"?>
<!-- Created with Inkscape (http://www.inkscape.org/) -->

<svg
   version="1.1"
   id="svg75"
   width="217.33333"
   height="218.66667"
   viewBox="0 0 217.33333 218.66667"
   xmlns="http://www.w3.org/2000/svg"
   xmlns:svg="http://www.w3.org/2000/svg">
  <defs
     id="defs79" />
  <g
     id="g81">
    <path
       style="fill:#000000;stroke-width:1.33333"
       d="m 141.00694,211.22916 c -0.42396,-0.42396 -26.28721,-0.73006 -57.473896,-0.68024 -49.693617,0.0793 -56.960387,-0.16673 -58.784719,-1.99106 -2.674716,-2.67472 -2.638105,-5.14427 0.117107,-7.89948 1.470756,-1.47076 3.126254,-1.87378 5,-1.2172 3.297914,1.15558 8.357566,1.25342 28.072475,0.54277 11.375197,-0.41003 15.097953,-1.01981 16.835829,-2.75769 2.898615,-2.89862 9.513684,-22.80322 10.150075,-30.54136 1.954996,-23.77156 1.952814,-35.98887 -0.0071,-39.91766 -1.117736,-2.24055 -2.438141,-5.92176 -2.934236,-8.18046 -0.496093,-2.2587 -3.80684,-10.21474 -7.357213,-17.68009 C 71.074866,93.441345 67.38176,84.728947 66.41834,81.545804 64.422075,74.950149 61.58811,72.805608 57.087299,74.484749 47.416087,78.092836 37.773746,77.321705 34.35375,72.666668 32.487446,70.126398 33.340935,61.683094 35.784455,58.513146 38.758182,54.655366 49.436465,34.325354 48.815294,33.704183 48.57167,33.460561 41.118787,33.127455 32.253333,32.96395 L 16.134324,32.666667 11.273333,37.973086 C 6.5819778,43.094325 6.3456439,43.18829 4.5010782,40.665695 1.6366909,36.748413 3.4527722,30.67373 9.0848261,25.333334 11.791668,22.766667 15.698625,18.171358 17.766954,15.121536 c 2.06833,-3.049821 5.516899,-6.1998215 7.663488,-6.9999996 2.146591,-0.8001783 5.70592,-2.1289166 7.909621,-2.9527517 5.641231,-2.1089252 16.743104,-0.8848909 25.719761,2.8357257 6.823008,2.8279786 7.788575,3.7187756 9.030598,8.3312966 1.158661,4.30294 0.989042,5.790185 -1.016518,8.912988 -7.273565,11.325468 -10.362964,15.747966 -13.098921,18.751206 -6.120174,6.718068 -9.974984,13.746029 -9.974984,18.186063 0,3.423045 0.565546,4.480604 2.39607,4.480604 3.207368,0 11.654639,-8.833844 14.130103,-14.776739 2.126062,-5.104078 10.24637,-13.18372 16.394177,-16.312079 2.060474,-1.048488 7.440015,-1.947721 11.954535,-1.998297 8.673809,-0.09717 8.736151,-0.06267 21.265436,11.769613 1.54384,1.457959 3.43808,2.650835 4.20942,2.650835 0.77133,0 6.70819,5.150896 13.19301,11.446436 6.48482,6.295541 16.59058,15.098764 22.45725,19.562719 9.4661,7.202771 15.00262,11.825139 26.1593,21.840044 1.74572,1.56706 5.27403,5.31161 7.8407,8.32123 2.56666,3.00962 6.80626,7.72748 9.42133,10.48414 9.91753,10.45451 17.92904,32.62762 18.99603,52.57446 0.59528,11.12851 0.37116,13.18405 -1.63543,15 -1.27888,1.15737 -3.328,2.10431 -4.55359,2.10431 -2.49833,0 -2.77638,1.45716 -2.3131,12.12205 0.30681,7.06328 0.12466,7.53727 -3.46236,9.01211 -3.93708,1.61876 -29.57836,1.30906 -32.32824,-0.39046 -0.91379,-0.56476 -1.46075,-6.47045 -1.46542,-15.8224 -0.0107,-20.4225 -1.04766,-23.61101 -8.70294,-26.74642 -3.34611,-1.37048 -6.44028,-2.13532 -6.87596,-1.69966 -0.43567,0.43568 -0.0864,4.55698 0.77602,9.15846 0.86248,4.60148 1.69764,9.56632 1.85591,11.03298 0.47561,4.40766 -4.63844,3.88723 -12.46735,-1.2687 -3.95125,-2.60222 -7.94777,-4.7313 -8.88116,-4.7313 -1.22156,0 -1.69708,2.77507 -1.69708,9.90406 v 9.90406 l 7.39431,0.92386 c 4.06687,0.50812 7.74576,0.5724 8.17531,0.14285 0.42956,-0.42955 1.90212,-0.181 3.27236,0.55233 5.02444,2.689 1.50861,10.57284 -4.71499,10.57284 -1.65873,0 -3.36275,-0.34688 -3.78671,-0.77084 z m -20.57256,-12.56242 c 1.83738,-1.67236 1.63715,-18.91895 -0.29799,-25.66674 -1.80942,-6.30938 -5.46973,-8.79449 -5.46973,-3.71357 0,4.19933 -3.89736,5.3742 -10.46157,3.15367 -3.18719,-1.07818 -6.56695,-1.66406 -7.510563,-1.30195 -0.943615,0.36209 -2.784359,4.15415 -4.090543,8.42677 -1.306184,4.27263 -2.82076,8.36842 -3.365724,9.10175 -0.544964,0.73333 -1.196513,3.43333 -1.447887,6 l -0.457041,4.66667 8,0.69681 c 9.450378,0.82313 23.539518,0.0579 25.101048,-1.36341 z m 70.39927,-1.42278 c 4.41335,-2.36194 3.06428,-7.17437 -3.16699,-11.29741 -3.11666,-2.0622 -6.99898,-5.28148 -8.62737,-7.15396 -2.01347,-2.31525 -3.39605,-2.96916 -4.32139,-2.04383 -1.2797,1.27971 -1.11737,2.81486 2.15828,20.41118 0.5385,2.89276 1.04774,3.08645 6.02302,2.29086 2.98913,-0.47797 6.55964,-1.47105 7.93445,-2.20684 z m 10.13207,-31.194 c -0.61476,-8.12854 -1.83632,-12.16702 -6.75147,-22.32038 -3.30049,-6.81794 -7.84889,-14.1585 -10.10757,-16.31237 C 181.848,125.26335 180,122.50845 180,121.29522 c 0,-2.58675 -27.13496,-27.961885 -29.90111,-27.961885 -1.64113,0 -24.73838,-20.125107 -39.78634,-34.666667 L 95.824997,44.666667 86.268809,44.86337 c -9.106562,0.187447 -9.732236,0.407017 -13.297847,4.666667 -5.65202,6.752172 -5.782012,9.371143 -1.058444,21.324596 8.963401,22.682763 9.446498,23.449623 31.923522,50.674747 9.01589,10.92043 12.165,15.97577 16.33333,26.22022 2.84018,6.98028 5.16396,13.46164 5.16396,14.40306 0,2.71357 8.62235,8.56629 13.87605,9.41885 4.43214,0.71923 4.79062,0.52709 4.79062,-2.56755 0,-1.83973 -0.82396,-5.36824 -1.83103,-7.84113 -3.07536,-7.55168 -3.70764,-13.70568 -1.69145,-16.46297 1.71942,-2.35146 2.43908,-1.92832 11.8175,6.94838 5.49262,5.19879 13.52322,11.24456 17.84578,13.43507 4.32256,2.19051 9.25274,5.47791 10.95597,7.30532 2.66057,2.85459 4.33085,3.34111 11.85813,3.45403 l 8.76138,0.13146 -0.75056,-9.92413 z m -93.74689,-13.38329 c -0.063,-4.4 -0.83418,-10.1 -1.71379,-12.66667 -2.12263,-6.19373 -7.726976,-13.00912 -9.296983,-11.30595 -0.662117,0.71827 -0.903937,8.02657 -0.537377,16.24065 0.715152,16.0255 0.909899,16.39816 8.32932,15.93849 3.17609,-0.19677 3.32793,-0.58391 3.21883,-8.20652 z M 53.92799,23.176468 c 3.379024,-1.296653 5.215212,-5.662374 3.334608,-7.928364 -2.355694,-2.838437 -3.5125,-2.36198 -5.062805,2.08523 -0.766924,2.2 -2.02562,4 -2.7971,4 -0.771482,0 -1.402694,0.6 -1.402694,1.333333 0,1.505444 2.723111,1.739629 5.927991,0.509801 z M 41.333333,21.912346 C 41.333333,19.455862 38.188493,16 35.953087,16 c -2.55768,0 -3.698958,3.809686 -1.730865,5.777778 1.079295,1.079294 7.111111,1.193438 7.111111,0.134568 z"
       id="path1077" />
  </g>
</svg>
