<?xml version="1.0" encoding="UTF-8" standalone="no"?>
<!-- Created with Inkscape (http://www.inkscape.org/) -->

<svg
   version="1.1"
   id="svg289"
   width="96"
   height="170.66667"
   viewBox="0 0 96 170.66667"
   xmlns="http://www.w3.org/2000/svg"
   xmlns:svg="http://www.w3.org/2000/svg">
  <defs
     id="defs293" />
  <g
     id="g295">
    <path
       style="fill:#000000;stroke-width:1.33333"
       d="m 43.490711,163 c -0.378944,-1.28333 -1.063086,-11.63333 -1.520314,-23 -0.457229,-11.36666 -1.372625,-25.72194 -2.034214,-31.90061 -1.686104,-15.746775 -0.02535,-21.432722 6.260078,-21.432722 4.663748,0 5.803739,4.431283 5.803739,22.559842 0,8.64577 0.610648,23.23964 1.356995,32.43084 1.608432,19.80768 0.753252,23.67599 -5.234143,23.67599 -2.604021,0 -4.177139,-0.79243 -4.632141,-2.33334 z M 8,57.344158 C 4.8329621,56.552685 4.6711052,56.04938 4.7556364,47.255564 4.8083488,41.771863 5.7160333,36.098222 6.9829525,33.333334 8.1590431,30.766667 9.4996983,27.347359 9.9621861,25.73487 10.424674,24.122382 11.942591,22.441404 13.335336,21.999364 14.72808,21.557326 17.095499,19.20887 18.596268,16.780575 21.673868,11.800913 27.957287,8.9680716 41.004732,6.6778541 51.787367,4.7851789 57.422439,5.8667081 67.774619,11.81575 77.667511,17.500855 84.776872,26.974498 89.259992,40.446277 92.493091,50.16174 91.54486,55.473401 86.380493,56.576233 81.62088,57.59263 11.734076,58.277341 8,57.344158 Z M 77.086183,44.819416 c 0.869266,-0.537236 1.580484,-1.722082 1.580484,-2.632991 0,-2.133864 -9.57426,-16.845271 -12.836008,-19.723271 C 62.610808,19.62212 50.280251,16 43.828551,16 c -6.146126,0 -22.456062,8.197179 -22.524866,11.32073 -0.01631,0.740265 -1.202964,2.845937 -2.637018,4.679271 -1.630507,2.084484 -2.618479,5.43813 -2.637019,8.951296 L 16,46.56926 45.752849,46.182734 c 16.364067,-0.212589 30.464067,-0.826082 31.333334,-1.363318 z"
       id="path317" />
  </g>
</svg>
