<?xml version="1.0" encoding="UTF-8" standalone="no"?>
<!-- Created with Inkscape (http://www.inkscape.org/) -->

<svg
   version="1.1"
   id="svg279"
   width="224"
   height="210.66667"
   viewBox="0 0 224 210.66667"
   xmlns="http://www.w3.org/2000/svg"
   xmlns:svg="http://www.w3.org/2000/svg">
  <defs
     id="defs283" />
  <g
     id="g285">
    <path
       style="fill:#000000;stroke-width:1.33333"
       d="m 14.252801,203.7949 c -2.664992,-1.49142 -2.806048,-4.1173 -0.561965,-10.46156 2.784171,-7.87116 11.599613,-22.5499 14.46278,-24.08222 2.324328,-1.24394 3.310201,-0.74981 6.944313,3.48059 2.329472,2.71168 5.851203,6.80639 7.826068,9.09932 2.975256,3.45445 4.003603,3.91711 6,2.69947 1.325135,-0.80823 2.589355,-2.60823 2.809378,-4 0.220024,-1.39178 2.09077,-4.58612 4.157214,-7.09854 3.577487,-4.34958 3.952314,-4.48721 7.837486,-2.87793 2.24417,0.92957 4.455812,2.66867 4.914756,3.86465 1.351124,3.52098 9.240561,13.49718 10.690502,13.51816 0.733334,0.0107 3.133334,-3.61928 5.333334,-8.06641 5.073744,-10.25619 6.293962,-11.29221 10.998794,-9.33853 3.377322,1.40242 5.299949,3.71338 11.482279,13.80144 1.23589,2.01666 3.00857,3.66666 3.93929,3.66666 0.93073,0 3.94164,-3.8453 6.69091,-8.5451 4.54163,-7.7638 6.93498,-10.12156 10.27432,-10.12156 0.64212,0 4.59409,4.29461 8.78215,9.54357 l 7.61467,9.54357 3.10217,-3.8769 c 1.70619,-2.1323 3.10515,-4.42027 3.10879,-5.08439 0.004,-0.66411 1.53716,-3.21411 3.40781,-5.66667 5.86155,-7.68488 10.84978,-5.65749 18.03482,7.32999 1.8898,3.41596 4.31952,6.38165 5.39938,6.59045 1.2564,0.24292 3.35966,-2.54172 5.841,-7.7333 2.1327,-4.46211 4.65243,-8.75596 5.59942,-9.54188 2.66492,-2.2117 8.92481,1.0116 11.5936,5.96966 1.26093,2.34258 4.33929,7.85923 6.84078,12.25923 4.88179,8.58683 5.67395,12.80139 2.8471,15.14748 -2.6393,2.19041 -5.60366,-0.53255 -11.31159,-10.39044 -2.7018,-4.66615 -5.51236,-8.54536 -6.24569,-8.62047 -0.73334,-0.0751 -2.68872,2.56343 -4.34531,5.86343 -7.78,15.49817 -12.81913,17.43379 -18.22367,7 -1.8043,-3.48333 -4.70273,-8.06461 -6.44096,-10.18061 l -3.1604,-3.84727 -4.24816,5.77661 C 153.91168,192.59254 152,196.18082 152,197.38935 c 0,3.24701 -4.66531,6.88936 -8.17756,6.38447 -2.93677,-0.42218 -4.46872,-2.29408 -11.76851,-14.38015 -1.80366,-2.98629 -3.90366,-5.23759 -4.66666,-5.00288 -0.763,0.23471 -3.55888,4.52508 -6.21306,9.53415 -2.65418,5.00908 -5.81629,9.66172 -7.02691,10.33921 -2.85505,1.59777 -7.40318,0.12453 -8.56697,-2.77499 -1.8728,-4.66597 -8.966754,-14.72684 -10.41707,-14.77381 -1.979459,-0.0641 -3.454797,1.87444 -7.785716,10.23011 -6.022723,11.61966 -10.552464,10.91877 -18.623225,-2.8816 -5.24765,-8.97308 -6.783331,-9.8616 -9.325728,-5.39574 -7.999575,14.05168 -10.127406,16.5675 -13.106163,15.49588 -1.644003,-0.59144 -5.896803,-5.39585 -9.450667,-10.67649 -5.256229,-7.81016 -6.81073,-9.31139 -8.333333,-8.04775 -1.029469,0.85439 -1.871761,2.39991 -1.871761,3.4345 0,2.95372 -6.343458,14.71641 -8.352011,15.48717 -0.994979,0.3818 -2.822813,0.1268 -4.061855,-0.56653 z m 9.080532,-70.02682 c -4.946001,-0.81343 -8.165396,-3.58934 -9.27083,-7.99374 -1.569355,-6.25281 1.07369,-7.443 14.427737,-6.49694 6.581839,0.46629 12.513396,1.1855 13.181239,1.59825 2.147548,1.32726 21.171377,-1.01375 20.661772,-2.54256 C 61.380296,115.47422 52.614425,112 46.354136,112 c -7.826276,0 -12.636009,-3.73628 -10.337783,-8.03056 1.575192,-2.94327 8.137403,-3.54383 15.222316,-1.39312 2.252066,0.68364 6.737766,2.0104 9.968222,2.94836 3.693801,1.07249 7.632966,3.60696 10.614449,6.82936 l 4.740891,5.12399 48.559949,-0.24675 c 45.13789,-0.22935 48.73237,-0.41916 51.00669,-2.69347 3.14214,-3.14215 9.19862,-15.066263 9.22386,-18.16015 0.0211,-2.579837 3.31011,-12.633485 5.4272,-16.589292 1.09218,-2.040757 2.95856,-2.455033 11.06034,-2.455033 13.54974,0 13.68437,0.212413 14.8611,23.446935 0.52312,10.32915 0.5368,20.08573 0.0304,21.68129 -2.15524,6.79059 -10.95332,7.84782 -74.06509,8.90012 -50.457148,0.84129 -95.982455,1.93285 -106.666667,2.55754 -4.766666,0.27869 -10.466666,0.21068 -12.666666,-0.15114 z M 203.12689,115 c 0.33968,-0.55 0.8105,-6.09459 1.04627,-12.32131 0.35952,-9.494883 0.0877,-11.386989 -1.68493,-11.728363 -2.17668,-0.419191 -3.22916,1.5768 -7.08139,13.429603 -2.50923,7.72057 -2.59013,9.85605 -0.40684,10.73703 2.61475,1.05507 7.44599,0.98554 8.12689,-0.11696 z M 93.699,59.973972 C 74.497317,58.616448 58.137825,55.265037 37.566375,48.474625 10.797927,39.638653 2.2522068,34.477854 4.5356729,28.527236 5.5847016,25.793512 20.494975,19.49173 37.333333,14.665404 42.1,13.299149 47.2,11.832602 48.666667,11.406409 59.792197,8.1734876 105.15222,3.7608647 116.54361,4.8033398 c 5.06565,0.4635796 13.76565,1.0298771 19.33334,1.258439 C 141.44463,6.2903405 148.7,7.1473724 152,7.9662939 c 3.3,0.8189214 8.1,2.0194943 10.66667,2.6679391 2.56666,0.648445 9.13893,2.171195 14.60502,3.383889 5.4661,1.212693 12.0661,3.269577 14.66667,4.570854 2.60057,1.301276 6.27208,2.735868 8.15891,3.187979 C 205.00961,22.954023 216,31.699285 216,34.431067 c 0,6.234564 -8.62828,10.792986 -28,14.792736 -3.3,0.681363 -8.64617,2.214928 -11.88039,3.407924 -6.68614,2.466297 -24.62348,5.316071 -46.11961,7.327199 -15.71771,1.470514 -15.71398,1.470511 -36.301,0.01505 z m 47.63433,-13.056574 c 14.27823,-1.802 52.34732,-9.721137 54.37867,-11.31186 2.22955,-1.745915 -7.46728,-7.565095 -15.04533,-9.028884 -2.93334,-0.566608 -11.03334,-2.566123 -18,-4.443367 -6.96667,-1.877243 -15.42127,-3.425196 -18.788,-3.439895 -3.36672,-0.0147 -11.16673,-0.711009 -17.33333,-1.547357 C 112.55609,15.248738 85.666741,17.354339 61.333333,22.252536 52.166667,24.097742 40.766667,26.219687 36,26.967971 c -13.071659,2.052024 -15.134484,4.897986 -5.618489,7.751506 23.029784,6.905841 29.63032,8.410792 46.817104,10.6745 5.425904,0.714657 11.725904,1.861309 14,2.548114 4.792326,1.447343 35.524415,0.819216 50.134715,-1.024693 z"
       id="path456" />
  </g>
</svg>
