<?xml version="1.0" encoding="UTF-8" standalone="no"?>
<!-- Created with Inkscape (http://www.inkscape.org/) -->

<svg
   version="1.1"
   id="svg204"
   width="228"
   height="232"
   viewBox="0 0 228 232"
   xmlns="http://www.w3.org/2000/svg"
   xmlns:svg="http://www.w3.org/2000/svg">
  <defs
     id="defs208" />
  <g
     id="g210">
    <path
       style="fill:#000000;stroke-width:1.33333"
       d="m 188.66667,220 c -7.20855,-0.60071 -8.89039,-1.37123 -17,-7.78837 -4.95,-3.91695 -9,-7.73626 -9,-8.48736 0,-0.75111 -2.77198,-5.53528 -6.15994,-10.63151 -3.38797,-5.09623 -6.67365,-11.47692 -7.30153,-14.17932 -3.26107,-14.03576 1.00055,-28.79983 8.07491,-27.97497 3.71421,0.43306 3.83294,1.34945 1.98201,15.2973 -0.74459,5.61088 -0.44029,7.60678 1.62623,10.66667 2.81978,4.17523 5.10444,10.62083 6.33869,17.88305 0.59123,3.47875 1.80904,5.25251 4.4598,6.49576 2.00557,0.94066 5.17071,2.49679 7.03363,3.4581 5.01092,2.58573 14.92337,5.8857 17.7462,5.90792 1.35666,0.0107 4.58689,-2.10083 7.17829,-4.69223 4.5934,-4.5934 4.68923,-4.9022 3.81895,-12.30685 -1.05376,-8.9659 -1.71406,-10.0474 -13.82726,-22.64819 -6.62446,-6.89109 -10.23977,-9.66667 -12.59132,-9.66667 -4.21844,0 -8.05378,-4.21324 -7.48581,-8.22337 0.38733,-2.73472 1.10841,-3.08107 5.97623,-2.87052 7.90792,0.34205 14.92682,4.41021 23.40078,13.56309 7.96623,8.60448 12.27971,16.31142 15.08838,26.95854 2.40578,9.11993 1.2157,15.5952 -3.86232,21.01504 -7.13392,7.61409 -12.40619,9.3147 -25.49592,8.22389 z M 76.007555,211.78329 c -3.295844,-0.59884 -14.695844,-0.87768 -25.333334,-0.61964 -10.637488,0.25804 -23.386614,0.16512 -28.331392,-0.20649 -8.987734,-0.67545 -8.990909,-0.67713 -10.306287,-5.44104 -3.3761519,-12.22741 9.822582,-36.0892 24.153219,-43.66623 3.388291,-1.79148 7.719071,-2.38524 17.810239,-2.44181 12.457327,-0.0699 13.858937,0.20187 21.333333,4.13548 16.591723,8.73188 31.978877,38.83649 24.51163,47.95644 -1.414031,1.72699 -15.002902,1.88849 -23.837408,0.28329 z m 4.910984,-14.92405 c 0.232926,-0.23293 0.03677,-3.37155 -0.435899,-6.97471 -1.474575,-11.24062 -13.884829,-20.5759 -27.304,-20.53869 -5.239716,0.0145 -16.284769,5.99352 -21.281433,11.52021 -3.803319,4.20676 -7.405986,14.02603 -5.987944,16.32047 0.637037,1.03075 8.937874,1.26513 27.747365,0.78348 14.761123,-0.37799 27.028983,-0.87783 27.261911,-1.11076 z M 80,74.334128 c -6.966667,-0.569815 -14.27322,-1.178099 -16.236784,-1.351744 -2.466241,-0.218097 -4.829792,-2.054647 -7.644109,-5.9397 l -4.073992,-5.623983 -10.137375,0.206767 -10.137373,0.206767 -5.775299,6.602033 c -6.231464,7.1235 -8.860808,7.513971 -11.505873,1.708683 -1.240399,-2.722379 -0.999339,-3.951112 1.449986,-7.390872 3.64848,-5.123819 8.033631,-7.443895 17.421052,-9.217056 16.01544,-3.025108 21.357102,-6.654267 17.188047,-11.67767 -1.220683,-1.470833 -3.039045,-1.783568 -6.737367,-1.158741 -5.99504,1.012856 -17.570001,-2.853675 -24.604041,-8.218799 -3.91646,-2.987229 -4.540205,-4.245941 -4.540205,-9.16208 0,-3.966842 0.64105,-5.94509 2.109049,-6.508414 3.519315,-1.350488 4.189476,-0.986838 7.018892,3.808664 3.434747,5.821464 10.177849,8.71535 20.307807,8.71535 h 7.77675 l 0.88225,-4.702797 c 0.485238,-2.586539 1.862425,-5.225151 3.060418,-5.863584 3.539152,-1.88608 115.178847,-3.395599 118.528957,-1.602669 1.54582,0.827297 3.59221,3.665736 4.54754,6.307641 1.71847,4.752356 1.80096,4.794721 7.75264,3.981667 3.50747,-0.479152 8.3303,-2.48232 11.567,-4.804362 9.63503,-6.91227 18.87919,-4.457178 16.35514,4.34365 -0.68188,2.377568 -1.23978,4.385686 -1.23978,4.462486 0,1.061144 -12.20862,4.750332 -19.54956,5.907464 -5.25226,0.827899 -10.59976,2.273184 -11.8833,3.211744 -3.16162,2.311827 -1.58774,5.823706 3.04244,6.788766 2.04806,0.426876 6.64266,1.644754 10.2102,2.706398 C 198.72065,51.131383 202.98304,52 204.62508,52 c 1.64204,0 4.60595,1.501752 6.58645,3.337225 3.07947,2.85395 3.5421,4.23404 3.1947,9.53009 -0.54364,8.2876 -3.26056,10.044829 -9.96738,6.446625 -2.71389,-1.456 -5.87285,-4.29348 -7.01993,-6.305509 -2.46005,-4.31506 -7.97096,-4.95709 -11.51716,-1.341764 -3.53164,3.600482 -12.29452,8.179792 -20.85784,10.899896 -3.68799,1.171477 -5.67109,1.19161 -7.7506,0.07869 -2.87259,-1.537361 -54.54609,-1.56443 -61.29332,-0.03211 -1.833333,0.416356 -9.033333,0.2908 -16,-0.279013 z m 70.8538,-15.097563 c 2.75983,-1.427162 5.67616,-1.822824 9.13207,-1.238953 l 5.07737,0.857816 0.67436,-6.427715 c 0.37089,-3.535242 1.10563,-8.098738 1.63275,-10.141101 1.28705,-4.986817 -2.54132,-9.45044 -7.11987,-8.301297 -1.98417,0.497994 -4.53869,-0.08184 -6.725,-1.526455 -3.12177,-2.062729 -7.75363,-2.352451 -40.44889,-2.530063 C 71.032777,29.700401 66,30.138056 66,34.022617 c 0,1.463112 1.33992,3.231904 3,3.96022 3.14556,1.380034 4.278521,7.736282 1.666667,9.350496 C 68.763824,48.509355 69.015044,56.762815 71,58.28448 c 0.936415,0.717855 15.943229,1.385907 34.25034,1.524707 17.92101,0.135872 32.87102,0.534389 33.22222,0.885593 1.37511,1.375111 8.53225,0.532168 12.38124,-1.458215 z"
       id="path530" />
  </g>
</svg>
