<?xml version="1.0" encoding="UTF-8" standalone="no"?>
<!-- Created with Inkscape (http://www.inkscape.org/) -->

<svg
   version="1.1"
   id="svg213"
   width="217.33333"
   height="209.33333"
   viewBox="0 0 217.33333 209.33333"
   xmlns="http://www.w3.org/2000/svg"
   xmlns:svg="http://www.w3.org/2000/svg">
  <defs
     id="defs217" />
  <g
     id="g219">
    <path
       style="fill:#000000;stroke-width:1.33333"
       d="m 168.66666,203.5954 c -4.7123,-1.7132 -21.99466,-12.7296 -22.01185,-14.03114 -0.007,-0.49368 -2.93519,-4.3126 -6.50817,-8.48649 C 133.85876,173.7324 124.42971,156.32785 121.45285,146.572 120.65378,143.95326 120,138.23997 120,133.8758 c 0,-6.90063 0.53701,-8.58637 4.12,-12.93316 8.09484,-9.82044 15.30256,-10.89084 32.53989,-4.8324 19.63397,6.90079 35.71524,18.42981 47.27116,33.88976 6.23432,8.3405 8.29491,14.5038 8.24631,24.66494 -0.0463,9.66975 -2.45054,15.10179 -9.88182,22.32615 -4.59996,4.47188 -7.07505,5.73447 -13.54042,6.9072 -9.49315,1.72192 -14.73654,1.64287 -20.08846,-0.30289 z M 188.16882,191 c 1.75732,-1.28334 4.35254,-2.9762 5.76715,-3.76194 3.05051,-1.69437 6.20339,-13.93252 5.128,-19.90473 -1.02923,-5.71589 -6.059,-13.86549 -12.1398,-19.66976 -4.72507,-4.5102 -27.33229,-16.99691 -30.77295,-16.99691 -0.76674,0 -3.48464,-0.99691 -6.03977,-2.21537 -4.23189,-2.01805 -5.21568,-2.03423 -11.04523,-0.18163 -8.27185,2.62874 -8.71095,5.60452 -2.63453,17.85415 2.5126,5.06524 4.9834,11.52803 5.49065,14.36177 0.61087,3.41252 2.85747,7.23936 6.65344,11.33334 3.15214,3.39958 7.5327,8.17786 9.73458,10.61837 2.48784,2.75748 7.22496,5.63355 12.5132,7.5972 10.32385,3.83351 13.19886,3.99355 17.34526,0.96551 z M 75.762295,203.31785 C 75.40587,202.96142 59.680463,202.62473 40.816949,202.56964 L 6.5196482,202.46946 5.0816998,199.31352 c -1.8785489,-4.12298 0.2009228,-12.4728 6.3149922,-25.35698 3.700532,-7.79812 5.950561,-10.6743 11.430158,-14.611 20.692572,-14.86613 46.844336,-10.15489 60.903502,10.97176 5.089699,7.64828 11.121672,23.64823 10.008751,26.54846 -1.03208,2.68956 -6.046847,5.32718 -11.867267,6.24186 -3.003823,0.47206 -5.753116,0.56666 -6.109541,0.21023 z m 3.304556,-13.85137 c 1.001966,-1.00196 1.042214,-2.59264 0.129706,-5.12628 -1.048052,-2.90999 -2.051196,-3.59703 -4.826295,-3.30544 -4.296652,0.45146 -5.370334,-1.13476 -5.557999,-8.2112 -0.122656,-4.62515 -0.6183,-5.55736 -3.145597,-5.9163 -1.65,-0.23433 -3,-0.97628 -3,-1.64877 0,-2.05872 -9.330289,-5.25849 -15.333333,-5.25849 -7.842943,0 -13.500516,2.68625 -21.532212,10.22365 -6.785476,6.36787 -11.006531,15.37859 -9.294295,19.8406 0.551567,1.43736 6.565306,1.69427 30.896072,1.31987 19.413084,-0.29872 30.730443,-0.98414 31.663953,-1.91764 z M 9.6666665,68.450291 C 7.6783583,67.647991 7.486146,61.525136 9.2995384,56.755552 11.030573,52.202587 21.834609,47.349945 34.500045,45.436725 c 11.69732,-1.766979 12.166621,-2.00363 12.166621,-6.13517 0,-4.344065 -3.002561,-5.65325 -15.436076,-6.730478 C 19.661853,31.568771 10.80275,27.367984 8.1018128,21.603929 3.2831533,11.320456 12.850802,4.7092167 18.037192,14.738589 c 2.946464,5.697833 8.356028,7.928077 19.229927,7.928077 8.610371,0 9.399547,-0.23125 9.399547,-2.754321 0,-6.693549 1.67104,-7.504185 17.620161,-8.547705 24.135578,-1.5791424 72.622543,-2.5652439 102.760553,-2.0898872 3.1108,0.049065 4.13179,1.0331252 6.28595,6.0585802 2.25167,5.252932 3.08245,6 6.6724,6 5.03132,0 12.89647,-3.897672 17.22668,-8.536909 5.81328,-6.2281204 13.43425,-3.7160824 13.43425,4.428218 0,4.677455 -6.69816,10.786446 -12.66666,11.552507 -2.93334,0.376495 -9.41247,1.966711 -14.39808,3.533813 -8.34127,2.621868 -9.03298,3.122227 -8.66667,6.269157 0.36879,3.168256 1.13385,3.534228 10.39808,4.974022 15.61719,2.42713 20.28461,4.411058 23.20813,9.864797 3.00671,5.60894 2.14299,11.25005 -1.88373,12.303064 -1.86856,0.48864 -4.38016,-0.796708 -8.12391,-4.157543 -5.053,-4.536168 -13.4033,-8.163865 -18.89998,-8.210885 -1.38043,-0.01187 -3.83258,2.407512 -5.88614,5.807332 l -3.51998,5.827573 -12.11387,0.830287 c -6.66261,0.456657 -33.54752,1.225877 -59.74423,1.709376 -52.651721,0.971766 -49.237939,1.477701 -49.570489,-7.34652 -0.12744,-3.381524 -0.416052,-3.509574 -7.602878,-3.373175 -8.191932,0.155475 -17.765001,4.119884 -22.742435,9.418119 -2.82148,3.003326 -5.300406,3.630658 -8.7871515,2.223725 z M 160.37217,51.067294 c 0.76011,-1.703464 0.8024,-7.191113 0.10747,-13.938463 L 159.33333,26 150.66666,25.790717 C 94.711824,24.43952 67.932167,24.106808 64.333332,24.718106 l -4.333333,0.736062 0.0182,11.606249 c 0.02985,19.032447 -6.175716,16.949195 50.276161,16.878045 48.33782,-0.06092 48.8366,-0.08952 50.0778,-2.871168 z"
       id="path241" />
  </g>
</svg>
