<?xml version="1.0" encoding="UTF-8" standalone="no"?>
<!-- Created with Inkscape (http://www.inkscape.org/) -->

<svg
   version="1.1"
   id="svg269"
   width="221.33333"
   height="146.66667"
   viewBox="0 0 221.33333 146.66667"
   xmlns="http://www.w3.org/2000/svg"
   xmlns:svg="http://www.w3.org/2000/svg">
  <defs
     id="defs273" />
  <g
     id="g275">
    <path
       style="fill:#000000;stroke-width:1.33333"
       d="M 7.8581807,137.48872 C 4.7140531,134.94486 4.6666666,134.56379 4.6666666,111.8234 V 88.740281 l 3.7370249,-1.318939 c 2.5435945,-0.897732 4.4597135,-0.863079 6.0000005,0.108507 1.989952,1.255229 2.262974,4.28584 2.262974,25.119501 0,22.61176 -0.128066,23.77709 -2.808485,25.55682 -2.47456,1.64304 -3.187954,1.55775 -6.0000003,-0.71745 z m 96.0185493,-1.61198 c -1.53447,-1.53447 -2.52395,-3.8071 -2.19885,-5.05029 0.3251,-1.24319 0.13253,-8.23772 -0.42792,-15.5434 -0.61252,-7.98445 -0.48399,-15.942376 0.32222,-19.949714 0.73767,-3.666667 1.60593,-8.051681 1.92945,-9.744475 0.50657,-2.650515 1.27189,-3.02073 5.51264,-2.666667 7.38624,0.61668 8.27949,3.537441 8.2812,27.077806 0.002,23.08845 -0.3623,25.14678 -4.80455,27.1708 -4.50017,2.05042 -5.40575,1.91438 -8.61419,-1.29406 z m 98.01307,-0.84408 c -1.39718,-1.39718 -1.67238,-5.90283 -1.22666,-20.08364 0.31606,-10.05529 0.59614,-20.547202 0.62242,-23.315353 0.0397,-4.187834 0.63709,-5.257061 3.55721,-6.367288 4.36811,-1.660752 8.05521,-0.571196 9.93157,2.934834 1.88802,3.527786 1.64684,40.082227 -0.29252,44.338687 -1.7397,3.81824 -9.69224,5.39254 -12.59202,2.49276 z M 105.74445,40.974802 c -1.60722,-0.722089 -3.28634,-2.28682 -3.73138,-3.477178 -0.44505,-1.190361 -2.706821,-5.31429 -5.026171,-9.16429 -4.101902,-6.808943 -7.653567,-9.104562 -7.653567,-4.946883 0,2.507675 -4.88238,12.413844 -7.695332,15.61355 -1.128216,1.283333 -3.389303,2.333333 -5.024638,2.333333 -3.045084,0 -5.422406,-2.796358 -10.768552,-12.666667 -4.481272,-8.273533 -7.381019,-7.717709 -11.833704,2.268286 -4.065508,9.117677 -5.197156,10.347033 -9.553125,10.377964 -2.108083,0.01497 -4.65771,-2.655931 -9.55476,-10.009235 l -6.679408,-10.029654 -2.517332,3.696321 c -1.384532,2.032974 -3.626015,6.246318 -4.981072,9.362985 C 18.238074,40.054268 16.843681,40.915858 13.5,38.797889 10.363049,36.810868 11.452342,31.19515 17.404009,18.671243 25.923256,0.74446122 29.10545,0.83782399 38.87939,19.301312 c 4.116541,7.776363 7.483527,8.716181 9.668316,2.698689 2.191541,-6.036085 8.590209,-15.3333342 10.552897,-15.3333342 2.234315,0 7.627741,5.8000462 12.088617,13.0000002 1.930994,3.116667 4.11219,5.666667 4.847103,5.666667 0.734913,0 2.48738,-1.95 3.89437,-4.333334 5.285551,-8.953313 9.640699,-14.3333332 11.602891,-14.3333332 2.669504,0 9.058366,7.3154802 12.805766,14.6630652 3.32734,6.523985 5.9228,8.147462 7.11073,4.447813 1.23761,-3.854398 6.08182,-12.881316 8.28799,-15.444211 4.00248,-4.6496575 7.95298,-2.0083465 19.83675,13.262873 2.86647,3.683547 2.93752,3.698895 4.95576,1.07046 C 145.65677,23.200001 147.47686,20.2 148.57524,18 c 3.804,-7.619297 8.01494,-11.7488981 11.01076,-10.7980641 2.65344,0.8421688 13.74733,15.5077171 13.74733,18.1732571 0,2.922016 3.47743,1.00143 5.18935,-2.866087 C 183.80665,10.571786 189.43502,5.6665877 194,9.0204173 c 1.62796,1.1960387 4.88156,6.8841767 8.73496,15.2709367 1.58985,3.460244 3.72488,6.983711 4.7445,7.829925 2.43154,2.01799 2.3473,4.528151 -0.23873,7.114174 -3.21912,3.219131 -6.36904,0.658784 -11.32627,-9.206343 -2.4033,-4.782677 -4.79821,-8.695776 -5.32204,-8.695776 -1.22078,0 -5.25909,6.128901 -5.25909,7.981676 0,0.774857 -1.59973,3.826196 -3.55497,6.780753 -2.82247,4.265039 -4.25366,5.289399 -6.94584,4.971414 -3.61366,-0.426823 -9.0901,-7.103974 -13.18239,-16.072652 -2.39124,-5.240639 -4.63989,-5.880001 -5.47747,-1.557415 -0.60784,3.137001 -6.83921,12.308553 -10.76218,15.840174 -2.21508,1.994105 -3.43251,2.280604 -5.1552,1.213181 -2.70884,-1.678468 -12.08117,-15.133634 -12.18316,-17.490464 -0.16166,-3.735811 -3.75769,-1.253335 -7.72569,5.333333 -2.31935,3.85 -4.57913,7.968731 -5.02173,9.152734 -1.21568,3.252054 -6.12657,5.040401 -9.58025,3.488734 z"
       id="path595" />
  </g>
</svg>
