<?xml version="1.0" encoding="UTF-8" standalone="no"?>
<!-- Created with Inkscape (http://www.inkscape.org/) -->

<svg
   version="1.1"
   id="svg259"
   width="222.66667"
   height="201.33333"
   viewBox="0 0 222.66667 201.33333"
   xmlns="http://www.w3.org/2000/svg"
   xmlns:svg="http://www.w3.org/2000/svg">
  <defs
     id="defs263" />
  <g
     id="g265">
    <path
       style="fill:#000000;stroke-width:1.33333"
       d="m 101.66667,194.2975 c -2.041487,-0.93341 -3.000002,-2.53244 -3.000002,-5.00466 0,-1.99815 -0.826924,-4.31927 -1.837608,-5.15807 -1.316911,-1.09293 -13.210704,-1.39651 -41.974741,-1.07133 -26.084799,0.29488 -40.612787,-0.0219 -41.495725,-0.90486 -1.925996,-1.92598 -1.684069,-6.89528 0.420737,-8.64212 1.193703,-0.99068 15.126789,-1.59296 42.333334,-1.82992 l 40.554003,-0.35321 2.262352,-4.66667 c 1.24429,-2.56666 2.92321,-5.4223 3.73093,-6.34585 2.23204,-2.55213 6.2944,0.25169 7.35392,5.07565 1.16958,5.32506 4.76355,4.76139 6.25141,-0.98045 1.63454,-6.30793 9.06806,-7.79853 9.06806,-1.81837 0,1.34214 1.14628,3.85673 2.54729,5.58798 l 2.5473,3.14771 42.4527,0.66667 42.45271,0.66666 0.3454,3.33334 c 0.75766,7.31197 1.26494,7.2223 -45.10702,7.97264 l -42.89269,0.69402 -1.50618,4.66667 c -2.17715,6.74557 -6.7079,7.09781 -9.73181,0.75661 -2.85398,-5.98485 -5.37288,-6.04317 -7.82221,-0.18112 -2.3477,5.61886 -3.15166,6.12638 -6.95216,4.38868 z M 10.892561,45.155958 C 7.5025609,43.901915 7.6302294,44.734933 7.9567096,26 8.2897944,6.886062 8.4901021,6.6758656 22.192996,11.060914 c 16.289526,5.212794 24.674683,6.49897 43.124748,6.614787 16.651421,0.104533 17.206236,0.01475 21.324872,-3.450857 4.81416,-4.050849 10.2118,-4.5638096 16.081784,-1.528321 3.53674,1.828918 4.58457,1.814225 10.58501,-0.148421 7.80236,-2.5520224 12.08628,-1.802408 16.42212,2.873595 l 3.14411,3.390783 13.89551,-1.488256 c 7.64253,-0.81854 18.69552,-1.975096 24.56219,-2.570124 C 177.2,14.159072 187.4,11.873449 194,9.6749382 211.57432,3.8207967 211.4008,3.6605887 211.03582,25.40424 c -0.16363,9.748269 -0.8585,18.28511 -1.54415,18.970755 -0.77328,0.773283 -4.96359,0.226736 -11.03581,-1.439414 -14.41904,-3.956426 -24.519,-5.569499 -42.77692,-6.83194 -19.26462,-1.332047 -23.85027,-0.811835 -30.07399,3.411697 -5.29912,3.596084 -9.13423,3.926792 -12.85979,1.108924 -3.26465,-2.469259 -7.33265,-2.436915 -10.66667,0.08481 -3.739047,2.828072 -7.69379,2.418536 -13.284971,-1.375742 -3.950518,-2.680894 -6.531451,-3.328166 -13.186063,-3.306934 -12.360567,0.03944 -39.443011,3.626528 -46.274122,6.129042 -8.662078,3.173269 -15.129211,4.225544 -18.440773,3.000517 z M 35.666667,31.017155 c 5.316667,-1.194273 9.666667,-2.542311 9.666667,-2.995641 0,-0.762318 -22.036546,-6.688181 -24.871388,-6.688181 -1.850346,0 -4.652132,8.619615 -3.650354,11.230208 0.9359,2.438916 1.215335,2.415998 18.855075,-1.546386 z m 165.418953,-5.533619 0.41894,-5.849799 -7.04472,0.934516 c -8.3477,1.107363 -17.1265,3.691488 -17.1265,5.041357 0,1.464284 16.2142,6.337575 20,6.011141 2.93237,-0.252846 3.38373,-0.99107 3.75228,-6.137215 z m -99.99706,1.650946 c -0.87602,-7.334182 -9.088559,-7.79472 -9.088559,-0.509662 0,3.744702 0.34959,4.041846 4.75523,4.041846 4.360919,0 4.720249,-0.292896 4.333329,-3.532184 z m 22.49882,1.350954 c 2.10366,-5.482052 -6.17439,-9.61698 -8.93317,-4.462162 -0.83942,1.568472 -1.19885,3.704883 -0.79873,4.74758 1.02821,2.679468 8.68028,2.455048 9.7319,-0.285418 z"
       id="path734" />
  </g>
</svg>
