<?xml version="1.0" encoding="UTF-8" standalone="no"?>
<!-- Created with Inkscape (http://www.inkscape.org/) -->

<svg
   version="1.1"
   id="svg427"
   width="224"
   height="141.33333"
   viewBox="0 0 224 141.33333"
   xmlns="http://www.w3.org/2000/svg"
   xmlns:svg="http://www.w3.org/2000/svg">
  <defs
     id="defs431" />
  <g
     id="g433">
    <path
       style="fill:#000000;stroke-width:1.33333"
       d="m 109.74445,136.9748 c -1.60722,-0.7221 -3.28634,-2.28682 -3.73138,-3.47718 -0.44504,-1.19036 -2.70682,-5.31429 -5.02617,-9.16429 -4.101901,-6.80894 -7.653567,-9.10456 -7.653567,-4.94688 0,2.50767 -4.88238,12.41384 -7.695332,15.61355 -1.128216,1.28333 -3.389302,2.33333 -5.024638,2.33333 -3.045084,0 -5.422406,-2.79636 -10.768552,-12.66667 -4.481272,-8.27353 -7.381019,-7.71771 -11.833704,2.26829 -4.065508,9.11767 -5.197156,10.34703 -9.553126,10.37797 -2.108082,0.0149 -4.657709,-2.65594 -9.55476,-10.00924 l -6.679408,-10.02965 -2.517332,3.69632 c -1.384532,2.03297 -3.626014,6.24631 -4.981072,9.36298 -2.487334,5.72093 -3.881728,6.58252 -7.225409,4.46456 -3.136951,-1.98703 -2.047659,-7.60274 3.904009,-20.12665 8.519247,-17.926781 11.701442,-17.833418 21.475382,0.63007 4.116541,7.77636 7.483526,8.71618 9.668316,2.69869 2.191541,-6.03609 8.590209,-15.33334 10.552897,-15.33334 2.234315,0 7.627741,5.80005 12.088617,13 1.930994,3.11667 4.11219,5.66667 4.847103,5.66667 0.734913,0 2.48738,-1.95 3.894371,-4.33333 5.28555,-8.95332 9.640698,-14.33334 11.60289,-14.33334 2.669504,0 9.058365,7.31548 12.805765,14.66307 3.32735,6.52398 5.9228,8.14746 7.11073,4.44781 1.23761,-3.8544 6.08182,-12.88131 8.28799,-15.44421 4.00248,-4.64966 7.95299,-2.00835 19.83676,13.26287 2.86646,3.68355 2.93752,3.6989 4.95576,1.07046 C 149.65677,119.2 151.47687,116.2 152.57524,114 c 3.804,-7.6193 8.01495,-11.7489 11.01076,-10.79807 2.65344,0.84217 13.74733,15.50772 13.74733,18.17326 0,2.92202 3.47743,1.00143 5.18935,-2.86609 5.28397,-11.93732 10.91235,-16.84251 15.47732,-13.48869 1.62796,1.19604 4.88156,6.88418 8.73496,15.27094 1.58985,3.46024 3.72488,6.98371 4.74451,7.82993 2.43153,2.01798 2.34729,4.52815 -0.23874,7.11417 -3.21912,3.21913 -6.36904,0.65879 -11.32626,-9.20634 -2.40331,-4.78268 -4.79822,-8.69578 -5.32204,-8.69578 -1.22079,0 -5.2591,6.1289 -5.2591,7.98168 0,0.77485 -1.59973,3.82619 -3.55497,6.78075 -2.82247,4.26504 -4.25365,5.2894 -6.94584,4.97141 -3.61365,-0.42681 -9.09009,-7.10397 -13.18239,-16.07265 -2.39124,-5.24064 -4.63989,-5.88 -5.47746,-1.55741 -0.60784,3.137 -6.83922,12.30855 -10.76219,15.84017 -2.21508,1.9941 -3.43251,2.28061 -5.1552,1.21318 C 141.54644,134.812 132.17411,121.35683 132.07212,119 c -0.16166,-3.73581 -3.75769,-1.25334 -7.72569,5.33333 -2.31935,3.85 -4.57913,7.96873 -5.02173,9.15273 -1.21568,3.25206 -6.12657,5.0404 -9.58025,3.48874 z M 87.333333,60.291436 C 78.120353,59.427191 59.988409,55.476017 50.666667,52.30132 42.983688,49.684735 37.268368,48.77975 26,48.39551 17.933333,48.120444 9.9833333,47.607496 8.3333333,47.255626 1.9645929,45.897459 6.7155816,34.676459 13.666667,34.65923 20.265505,34.64287 26.453099,31.691554 35.714721,24.142883 41.729579,19.240485 49.848309,14.29796 57.046088,11.156766 l 11.620579,-5.071356 24,-0.042705 C 107.95029,6.0155087 118.60364,6.593792 122,7.6349704 c 2.93333,0.8992339 12.53333,3.8071856 21.33333,6.4621146 8.8,2.654928 23.352,7.169192 32.33778,10.031695 11.15733,3.554276 18.77012,5.204552 24.0088,5.204552 8.7309,0 16.29513,1.82369 17.8726,4.308972 2.02152,3.184911 1.19408,7.48596 -1.61146,8.376405 -1.49909,0.475792 -9.18714,0.446288 -17.08457,-0.06556 -14.05371,-0.910858 -14.56919,-0.842308 -24.24913,3.224772 -5.4396,2.285475 -10.81804,4.155411 -11.9521,4.155411 -1.13404,0 -3.255,0.835676 -4.71322,1.857059 -7.19862,5.042102 -52.13444,10.834066 -70.608697,9.101045 z M 86.666667,47.878074 c 1.437572,-1.016668 1.550126,-1.598328 0.400245,-2.06839 C 79.80692,42.841863 73.333333,32.586486 73.333333,24.053117 c 0,-4.855124 -0.328453,-5.386451 -3.329776,-5.386451 -7.940568,0 -29.884194,13.579932 -28.360366,17.550965 0.676685,1.763413 13.884409,6.866093 29.023476,11.212948 7.436414,2.135205 13.378574,2.301398 16,0.447495 z m 11.638889,0.649702 C 97.8625,48.084722 96.7125,48.037352 95.75,48.42251 c -1.063644,0.425634 -0.747701,0.741577 0.805556,0.805556 1.405555,0.05789 2.193055,-0.257238 1.75,-0.700294 z M 114,47.999999 c 0.45323,-0.733333 5.13863,-1.347647 10.41202,-1.365143 5.27339,-0.01749 11.68798,-0.553 14.25465,-1.190013 19.02544,-4.721864 30.97834,-9.176487 30.27606,-11.283328 -0.22086,-0.662569 -6.07332,-2.96168 -13.00548,-5.109134 -6.93216,-2.147455 -14.57428,-4.762746 -16.98249,-5.811756 -2.40821,-1.049011 -6.75821,-1.907292 -9.66666,-1.907292 -4.44192,0 -5.2881,0.437305 -5.2881,2.73288 0,6.823082 -8.93844,18.952741 -16.06884,21.805759 -2.89547,1.158539 -5.26449,2.411294 -5.26449,2.783898 0,1.283511 10.51065,0.67525 11.33333,-0.655871 z m -8.24862,-15.219692 c 3.63707,-3.370729 5.47482,-8.21182 4.68502,-12.341514 -0.37386,-1.954807 -2.18337,-2.604219 -9.11808,-3.272368 -11.911565,-1.147664 -14.651653,0.07649 -14.651653,6.545734 0,10.770442 11.402081,16.188169 19.084713,9.068148 z"
       id="path455" />
  </g>
</svg>
