<?xml version="1.0" encoding="UTF-8" standalone="no"?>
<!-- Created with Inkscape (http://www.inkscape.org/) -->

<svg
   version="1.1"
   id="svg239"
   width="218.66667"
   height="204"
   viewBox="0 0 218.66667 204"
   xmlns="http://www.w3.org/2000/svg"
   xmlns:svg="http://www.w3.org/2000/svg">
  <defs
     id="defs243" />
  <g
     id="g245">
    <path
       style="fill:#000000;stroke-width:1.33333"
       d="M 89.333335,198.64703 C 71.491634,197.65257 52.893721,194.2952 41.333334,189.98187 22.699543,183.02936 18.713724,181.4788 12.465269,178.75168 4.7882099,175.40104 2.5808394,171.03096 6.6880048,167.31403 10.430995,163.92667 37.253702,154.05315 50.288421,151.26457 75.020698,145.97351 97.838233,143.74276 120,144.44927 c 29.84686,0.95148 50.21902,4.97426 76.71396,15.14826 14.73492,5.65818 18.28604,8.16951 18.28604,12.93172 0,6.09698 -7.22458,10.31466 -27,15.76251 -24.41208,6.7252 -28.20876,7.40281 -50,8.92373 -11.73333,0.81892 -23.43333,1.70178 -26,1.96188 -2.56666,0.26012 -12.766665,0.0215 -22.666665,-0.53034 z M 142,185.39629 c 6.6,-0.81078 14.1,-2.01366 16.66667,-2.67308 2.56667,-0.65941 10.36667,-2.52132 17.33333,-4.13758 6.96667,-1.61627 14.12548,-3.683 15.90848,-4.59278 l 3.24182,-1.6541 -5.24182,-3.28096 c -7.77976,-4.86952 -29.7066,-9.56024 -55.24181,-11.81767 -24.01554,-2.12308 -60.532534,0.80711 -84.000003,6.74032 -3.3,0.83433 -7.8,1.80883 -10,2.16555 -24.162937,3.91785 -20.417179,7.22418 17.356062,15.31997 10.9875,2.35491 23.877272,4.71941 28.643939,5.25447 11.165449,1.2533 39.961632,0.56421 55.333332,-1.32414 z M 89.333335,60.605112 C 72.160753,57.623137 50.964279,49.144439 37.131561,39.724137 27.389103,33.089368 9.2193696,18.278413 7.9788397,15.960461 6.1409652,12.526361 6.3433316,7.0614927 8.3333335,6.3874245 9.2500001,6.0769244 51.754727,5.9406324 102.78828,6.0845532 c 67.1777,0.1894493 93.58275,0.6868596 95.66667,1.8021389 5.06751,2.7120499 3.31516,6.3001399 -8.78828,17.9947089 -11.14623,10.769696 -29.90801,24.785266 -33.17852,24.785266 -0.84985,0 -5.95735,1.81889 -11.35,4.041978 -18.98343,7.82581 -34.96783,9.514758 -55.804815,5.896467 z M 124.06168,50.140028 c 21.7474,-3.530391 35.84128,-10.237444 49.9372,-23.764328 l 9.33446,-8.957633 -24.66667,-0.108399 C 145.1,17.250041 109.54997,17.080983 79.666603,16.933967 c -29.88337,-0.147015 -54.333371,-0.141344 -54.333335,0.01267 4.4e-4,1.875118 16.217423,14.471055 25.549035,19.844263 12.068118,6.948905 28.117709,13.317907 30.245952,12.002581 0.62302,-0.385048 5.274034,0.122534 10.335589,1.127963 12.111736,2.405875 18.846166,2.451047 32.597836,0.218652 z"
       id="path1012" />
  </g>
</svg>
