<?xml version="1.0" encoding="UTF-8" standalone="no"?>
<!-- Created with Inkscape (http://www.inkscape.org/) -->

<svg
   version="1.1"
   id="svg149"
   width="118.66667"
   height="118.66667"
   viewBox="0 0 118.66667 118.66667"
   xmlns="http://www.w3.org/2000/svg"
   xmlns:svg="http://www.w3.org/2000/svg">
  <defs
     id="defs153" />
  <g
     id="g155">
    <path
       style="fill:#000000;stroke-width:1.33333"
       d="m 16.948302,113.42252 c -10.6080616,-0.77208 -12.8836316,-2.02147 -12.9278848,-7.098 -0.011227,-1.28819 1.5788826,-3.68819 3.5335821,-5.33333 1.9546995,-1.645155 5.5071797,-4.661619 7.8943997,-6.703258 l 4.3404,-3.712072 -0.50996,-28.954596 C 18.998362,45.696236 18.172013,29.966668 17.442508,26.666667 15.061746,15.897007 15.613867,8.4216694 18.963342,6.0756055 22.501571,3.597333 26.859259,3.3925916 29.067537,5.6008702 c 1.245605,1.2456044 2.652821,1.2204797 6.341089,-0.1132147 3.960656,-1.4321919 5.210375,-1.4019133 7.599057,0.1841125 2.482161,1.6480927 3.314534,1.6366645 6.317386,-0.086736 2.411046,-1.38375 4.995542,-1.6965926 8.53325,-1.0329145 4.45532,0.8358229 4.962807,1.3077543 4.157936,3.8666183 -1.709589,5.4351582 -1.399871,8.1545222 0.983747,8.6374192 1.80758,0.366197 2.333333,-0.426039 2.333333,-3.516005 0,-8.1624282 2.686806,-9.9629926 9.937263,-6.6594631 2.492772,1.1357829 3.396071,2.5668392 3.396071,5.3802441 0,2.108091 0.952373,5.286397 2.116385,7.062903 1.390462,2.122112 2.094284,6.109552 2.051952,11.625128 -0.08951,11.662451 0.581476,12.325449 8.444977,8.344439 8.284589,-4.194193 10.488687,-4.138256 14.707727,0.373267 6.30897,6.746335 5.96549,12.757451 -1.09761,19.208594 l -4.12299,3.765769 4.92546,5.044132 c 9.01574,9.232959 13.02224,29.37033 6.10838,30.701818 -2.75514,0.530591 -6.27594,-2.997418 -7.13228,-7.146881 -0.36777,-1.782053 -0.9801,-4.740098 -1.36074,-6.573431 -1.44143,-6.942641 -3.09654,-2.981384 -2.47743,5.929375 0.63869,9.192609 0.6134,9.278301 -3.341457,11.323436 -3.586642,1.85473 -4.190095,1.85566 -6.03645,0.009 -1.51515,-1.51515 -1.840756,-3.588487 -1.245533,-7.931104 0.443244,-3.233819 0.11536,-8.622068 -0.728644,-11.973891 -1.123636,-4.46236 -1.141072,-6.829428 -0.06512,-8.839867 1.865373,-3.485512 1.114652,-4.201257 -3.255962,-3.104303 -3.028094,0.760004 -3.490665,1.573804 -3.490665,6.141131 0,27.295294 -22.993381,40.311344 -65.718367,37.201734 z M 41.937104,99.000003 c 5.716392,-8.651007 9.261481,-12.013858 13.642702,-12.941389 3.296917,-0.697977 4.858036,-0.287438 6.98143,1.835956 l 2.734959,2.734959 1.891682,-2.981429 c 1.040425,-1.639787 2.295812,-6.064011 2.789748,-9.83161 l 0.898066,-6.850179 -12.006355,-0.950269 c -12.875927,-1.019092 -21.969104,-0.09907 -23.933471,2.421523 -1.627184,2.087932 -4.269197,13.138323 -4.269197,17.85619 0,2.07876 -0.953515,5.140897 -2.118922,6.804748 C 25.386638,101.61162 27.022506,104 33.274762,104 c 4.715744,0 5.754732,-0.59971 8.662342,-4.999997 z M 57.166668,59.166668 c 7.471787,-1.494357 4.391216,-3.166666 -5.833333,-3.166666 -5.5,0 -10.000001,0.558269 -10.000001,1.240598 0,2.157202 9.126587,3.267418 15.833334,1.926068 z m 14.833334,-1.166666 c 0,-1.244444 -1.259259,-2 -3.333333,-2 -2.074075,0 -3.333334,0.755556 -3.333334,2 0,1.244444 1.259259,2 3.333334,2 2.074074,0 3.333333,-0.755556 3.333333,-2 z m -2.93298,-12.064338 c 1.221156,-0.401541 1.615329,-2.84134 1.333333,-8.252868 L 70.000002,30.000001 59.333335,29.623838 c -5.866667,-0.206889 -13.943066,0.09797 -17.947553,0.677483 -6.953076,1.006207 -7.325601,1.263267 -8.274089,5.709496 -1.247213,5.846571 -0.27108,9.226179 3.016011,10.442154 2.592198,0.958916 29.746807,0.532458 32.939318,-0.517307 z"
       id="path1151" />
  </g>
</svg>
