<?xml version="1.0" encoding="UTF-8" standalone="no"?>
<!-- Created with Inkscape (http://www.inkscape.org/) -->

<svg
   version="1.1"
   id="svg417"
   width="218.66667"
   height="208"
   viewBox="0 0 218.66667 208"
   xmlns="http://www.w3.org/2000/svg"
   xmlns:svg="http://www.w3.org/2000/svg">
  <defs
     id="defs421" />
  <g
     id="g423">
    <path
       style="fill:#000000;stroke-width:1.33333"
       d="m 24.030736,201.36407 c -1.449762,-1.44976 -3.519146,-4.74976 -4.598632,-7.33334 -1.433529,-3.43092 -2.789882,-4.7029 -5.030734,-4.71781 -6.4447979,-0.0429 -6.9953144,-1.44944 -7.2662727,-18.56499 -0.2121285,-13.39948 0.12172,-16.51465 2.0212532,-18.86046 2.0736605,-2.56087 2.7795275,-2.67419 7.9631635,-1.27838 7.569784,2.03834 11.43648,5.86067 9.5308,9.42147 -0.988622,1.84725 -2.793262,2.63611 -6.030559,2.63611 -5.352427,0 -5.516604,0.51277 -2.007067,6.2686 2.498862,4.09826 8.769888,8.39806 12.24814,8.39806 0.912958,0 3.339667,1.6093 5.39269,3.57622 l 3.732768,3.57622 51.673525,-1.66429 c 28.420439,-0.91536 59.107819,-1.87561 68.194189,-2.13392 19.59291,-0.55696 20.76422,-1.24624 22.71303,-13.36585 3.02839,-18.83344 4.41299,-21.01067 12.62596,-19.85387 8.4932,1.19625 14.00559,3.1948 15.3276,5.55711 1.96733,3.51542 0.16116,39.23442 -2.11612,41.84876 -1.70343,1.95552 -6.43247,2.22136 -41.49683,2.33273 -21.76586,0.0692 -59.07431,0.31932 -82.907639,0.55599 -41.459864,0.41168 -43.57603,0.55582 -48.946883,3.33393 -6.883432,3.56049 -7.709531,3.58056 -11.022382,0.26771 z M 198.66667,182.69629 c 1.49845,-0.94618 2,-3.86676 2,-11.64625 0,-9.61475 -0.21256,-10.41367 -2.87155,-10.79261 -2.23482,-0.3185 -3.17978,0.56845 -4.26165,4 -2.0178,6.40021 -3.28277,16.65749 -2.25864,18.31457 1.08568,1.75668 4.71015,1.81761 7.39184,0.12427 z M 80.000001,129.77713 C 78.166668,129.42581 72.0667,127.98223 66.444517,126.56918 60.822334,125.15613 53.845801,124 50.94111,124 c -3.067849,0 -5.976911,-0.83821 -6.941109,-2 -0.912919,-1.1 -2.46603,-2 -3.451358,-2 -1.826148,0 -6.39152,-1.80585 -18.911515,-7.48053 -3.866246,-1.75238 -7.943518,-3.18614 -9.060606,-3.18614 -2.9919849,0 -8.6753351,-6.19106 -7.7933291,-8.48953 C 5.6359997,98.62142 5.953135,98.467276 20.666667,93.123653 55.358782,80.52426 94.483797,75.264747 132,78.157289 c 29.97955,2.311458 53.03095,7.581667 69.36523,15.858875 3.60037,1.824443 7.44496,3.317169 8.54353,3.317169 2.3101,0 4.75791,3.987467 4.75791,7.750587 0,1.64225 -1.51541,3.22027 -4.13424,4.30502 -2.27384,0.94185 -6.12192,3.06133 -8.55129,4.70994 -2.42936,1.64862 -7.91896,3.70838 -12.19908,4.57725 -4.28014,0.86888 -11.38206,2.63798 -15.78206,3.93133 -18.85405,5.54207 -37.7063,7.82013 -64.66667,7.81418 -14.299995,-0.003 -27.499995,-0.29318 -29.333329,-0.64451 z m 61.333339,-13.02614 c 4.03333,-1.12897 10.03333,-2.06883 13.33333,-2.08857 3.3,-0.0198 8.4,-0.90053 11.33333,-1.95731 2.93334,-1.05676 7.7938,-1.94773 10.80104,-1.97992 6.23486,-0.0667 13.6452,-2.24835 16.41776,-4.8334 4.61578,-4.30362 -5.17834,-8.204977 -29.88546,-11.904477 -8.06667,-1.207856 -18.26667,-3.114978 -22.66667,-4.238052 -14.67774,-3.746404 -64.631632,0.0049 -92.666669,6.958808 C 39.615122,98.787887 30.432882,101.15223 27,102.11537 c -2.870756,0.80543 -1.780258,2.45918 3.366139,5.10477 4.698424,2.41531 8.198694,3.24847 25.633862,6.10156 4.033333,0.66001 10.933333,1.81661 15.333333,2.57021 4.4,0.7536 11.600001,1.95049 16.000001,2.65976 11.349371,1.82948 45.045185,0.70586 54.000005,-1.80068 z M 49.333334,61.678112 C 36.022999,60.760017 27.316311,57.454573 19.322427,50.284644 17.861759,48.974532 14.755714,46.404052 12.420104,44.572465 7.2640161,40.529059 6.4758862,36.829148 9.4579851,30.666667 12.029564,25.35252 14.882895,22.557479 20.784971,19.571075 c 3.537943,-1.790172 7.295869,-1.921578 26.666667,-0.932474 24.492066,1.250606 29.16047,0.878004 33.21503,-2.651013 4.904791,-4.269043 7.889029,-5.032215 28.666662,-7.3310529 37.45959,-4.1445284 52.72243,-2.592097 69.15357,7.0338239 5.67889,3.326889 6.11601,3.375522 18,2.002682 6.8356,-0.789648 13.11758,-0.910169 14.3171,-0.274677 3.72026,1.970941 5.46384,30.259589 2.04022,33.100957 -1.00236,0.831879 -7.57907,1.7479 -14.61491,2.035604 -10.03492,0.410339 -13.59397,1.092819 -16.51087,3.166104 -8.0833,5.74549 -11.69888,6.059551 -71.05177,6.1718 -31.166669,0.05895 -58.766669,-0.03768 -61.333336,-0.214717 z M 171.54268,48.339244 c 6.59458,-3.490343 16.22475,-6.959417 19.39459,-6.986507 5.13227,-0.04385 9.06273,-3.036401 9.06273,-6.90009 0,-4.152675 -1.64389,-4.589931 -14.69702,-3.909251 -5.38406,0.280761 -6.59112,-0.231667 -11.2624,-4.781132 C 168.33784,20.208237 160.20743,17.489796 149,17.389827 c -7.25218,-0.06469 -8.16826,1.526597 -2.28237,3.964613 4.89132,2.026053 7.29301,5.775837 4.92103,7.683245 -2.6393,2.122354 -76.156142,2.933366 -105.638659,1.165368 -18.767791,-1.12546 -23.621059,-0.08526 -24.390777,5.227675 -0.388913,2.684452 5.590714,8.487047 13.057443,12.670867 4.369682,2.448456 34.684155,3.58571 89.333333,3.351361 40.52563,-0.173784 42.19458,-0.283088 47.54268,-3.113712 z M 138.66667,18.666667 c 0,-1.554708 -9.81209,-1.554708 -14.66667,0 -2.42001,0.775024 -0.86737,1.103936 5.66667,1.200426 5.19972,0.07679 9,-0.430098 9,-1.200426 z"
       id="path594" />
  </g>
</svg>
