<?xml version="1.0" encoding="UTF-8" standalone="no"?>
<!-- Created with Inkscape (http://www.inkscape.org/) -->

<svg
   version="1.1"
   id="svg407"
   width="212"
   height="146.66667"
   viewBox="0 0 212 146.66667"
   xmlns="http://www.w3.org/2000/svg"
   xmlns:svg="http://www.w3.org/2000/svg">
  <defs
     id="defs411" />
  <g
     id="g413">
    <path
       style="fill:#000000;stroke-width:1.33333"
       d="M 9.3533748,140.16591 C 7.5310641,139.64708 5.1509645,137.6385 4.0642643,135.7024 2.2594641,132.48693 2.3154332,131.9305 4.7108895,129.27381 7.2606356,126.44602 7.9062415,126.38932 28,127.2286 c 21.876853,0.91376 26.921544,0.0462 21.175853,-3.64184 -1.74672,-1.12118 -6.648209,-2.45879 -10.8922,-2.97247 -9.309422,-1.12679 -14.378672,-4.55783 -12.111426,-8.19742 1.266572,-2.03322 2.959765,-2.3453 10.666666,-1.966 10.788108,0.53095 18.78303,3.69268 26.13656,10.33615 l 5.294355,4.78313 35.531762,-0.81391 c 19.54247,-0.44765 41.61462,-1.15409 49.0492,-1.56987 l 13.51744,-0.75597 2.02108,-4.88187 c 1.1116,-2.68502 3.90935,-9.98186 6.21722,-16.21519 5.82473,-15.732098 5.36233,-15.194435 14.13237,-16.432485 10.19317,-1.43895 15.84187,-0.322046 17.47168,3.454642 1.40632,3.258772 1.63952,44.238873 0.2596,45.618783 -1.67956,1.67956 -19.38447,3.91143 -33.13683,4.17719 -7.7,0.14881 -28.4,0.63139 -46,1.0724 -17.6,0.441 -34.699997,0.73973 -37.999997,0.66384 -10.951777,-0.25187 -31.059141,-0.0283 -54,0.60037 -12.466666,0.34166 -24.157648,0.19667 -25.9799582,-0.32217 z M 192.55676,119.66667 c 0.33417,-1.65 0.94979,-7.35 1.36805,-12.66667 0.61958,-7.875599 0.40483,-9.666664 -1.15898,-9.666664 -1.05571,0 -2.28807,1.35 -2.7386,3.000004 -0.45052,1.65 -2.3757,6.39646 -4.27815,10.5477 -4.03905,8.81337 -3.48835,11.78563 2.18367,11.78563 3.09629,0 4.15564,-0.68729 4.62401,-3 z M 81.528851,38.548365 C 73.417003,37.460398 72.605681,36.879912 71.440399,31.330253 70.788256,28.224421 71.578616,25.699541 74.966595,20.065478 82.992672,6.718465 101.6119,0.67307312 118.70881,5.8630223 c 6.26457,1.9016787 16.38404,8.0942397 20.1892,12.3546887 2.68468,3.005904 5.41179,12.756851 4.34518,15.536415 -1.26526,3.29719 -3.99104,3.708611 -29.14012,4.398322 -13.15626,0.360809 -24.261562,0.812893 -24.678441,1.004632 -0.41688,0.191738 -3.96998,-0.08219 -7.895778,-0.608715 z M 134.66667,28.038298 c 0,-1.487731 -2.33671,-5.041672 -5.19269,-7.897648 C 117.42685,8.0935165 90.779979,9.8817242 82.882292,23.267306 c -1.602231,2.715579 -2.644099,5.372743 -2.315264,5.904809 0.328835,0.532067 12.635777,1.103239 27.348762,1.269271 26.08744,0.294389 26.75088,0.234792 26.75088,-2.403088 z"
       id="path733" />
  </g>
</svg>
