<?xml version="1.0" encoding="UTF-8" standalone="no"?>
<!-- Created with Inkscape (http://www.inkscape.org/) -->

<svg
   version="1.1"
   id="svg397"
   width="221.33333"
   height="209.33333"
   viewBox="0 0 221.33333 209.33333"
   xmlns="http://www.w3.org/2000/svg"
   xmlns:svg="http://www.w3.org/2000/svg">
  <defs
     id="defs401" />
  <g
     id="g403">
    <path
       style="fill:#000000;stroke-width:1.33333"
       d="M 7.8581807,202.82205 C 4.7140531,200.27818 4.6666666,199.89712 4.6666666,177.15673 v -23.08312 l 3.7370249,-1.31895 c 2.5435945,-0.89772 4.4597135,-0.86306 6.0000005,0.10854 1.989952,1.25522 2.262974,4.28584 2.262974,25.11949 0,22.61176 -0.128066,23.77709 -2.808485,25.55683 -2.47456,1.64304 -3.187954,1.55774 -6.0000003,-0.71746 z m 95.9717493,-2.36317 c -1.41004,-1.70119 -1.80363,-7.65179 -1.71532,-25.93318 0.12164,-25.17828 0.7433,-27.85904 6.46048,-27.85904 6.77562,0 7.2026,1.54738 7.66276,27.76964 0.40221,22.92042 0.26826,24.554 -2.15936,26.33334 -3.46075,2.53658 -8.00269,2.39886 -10.24856,-0.31076 z m 98.05987,-2.75956 c -1.39718,-1.39718 -1.67238,-5.90283 -1.22666,-20.08363 0.31606,-10.05531 0.59614,-20.54721 0.62242,-23.31536 0.0397,-4.18784 0.63709,-5.25707 3.55721,-6.36729 4.36811,-1.66075 8.05521,-0.57119 9.93157,2.93484 1.88802,3.52778 1.64684,40.08222 -0.29252,44.33868 -1.7397,3.81824 -9.69224,5.39254 -12.59202,2.49276 z M 47.216378,103.09668 c -2.461915,-1.86166 -3.077609,-6.885331 -1.050084,-8.568027 1.164961,-0.966832 5.950497,-1.47155 12.464125,-1.314557 11.970868,0.288523 17.247725,-1.626419 19.776666,-7.176841 0.876103,-1.922835 1.592914,-4.032764 1.592914,-4.688731 0,-2.300193 -16.188408,-13.62068 -23.722679,-16.589169 C 34.600733,56.218815 22.726716,47.468766 22.678304,39.999999 22.648468,35.396893 17.886488,28 14.95293,28 11.970561,28 9.3333332,25.507025 9.3333332,22.687786 c 0,-3.41899 13.4751998,-15.6487985 18.3673208,-16.6697945 5.196123,-1.0844416 17.491812,2.4250082 24.06682,6.8691795 2.438779,1.648415 5.738778,3.361805 7.333333,3.80753 1.594556,0.445727 10.399192,4.304444 19.565858,8.574929 9.166667,4.270484 19.966667,9.091937 24.000005,10.71434 4.03333,1.622403 10.96904,4.62776 15.41269,6.678569 4.44364,2.050811 14.82685,5.036948 23.0738,6.635862 17.10913,3.31711 29.9789,3.138146 41.5135,-0.577276 4.03334,-1.299182 9.52468,-2.650346 12.20298,-3.002586 4.10624,-0.540037 5.01186,-0.19235 5.77682,2.217828 0.50642,1.59554 0.21243,3.695391 -0.66544,4.753153 -1.2401,1.494251 -0.98149,2.64637 1.22319,5.449162 3.60109,4.578061 3.52095,6.048566 -0.53755,9.861317 -3.95568,3.716169 -4.28014,8.590706 -1.02605,15.414625 2.21011,4.634635 2.20329,4.91448 -0.16192,6.64396 -2.16759,1.584979 -3.87455,1.103636 -13.97395,-3.940473 -9.9803,-4.984626 -13.62484,-6.027444 -27.50474,-7.86999 -8.8,-1.168192 -21.16695,-2.49886 -27.48211,-2.95704 l -11.48212,-0.833053 -1.51788,6.028079 c -3.06298,12.164182 -3.22329,11.997564 10.81544,11.241253 16.12191,-0.868539 19,-0.111227 19,4.999418 v 3.939892 L 136,101.51296 c -20.28447,1.51471 -87.294163,2.71002 -88.783622,1.58372 z M 104.21692,89.028003 c 2.5511,-4.019492 1.17398,-9.032102 -3.21692,-11.709284 -5.037127,-3.071196 -8.253425,-3.437631 -7.251305,-0.826146 0.655394,1.707931 -1.067618,4.984151 -6.694454,12.729167 l -2.340629,3.221741 9.213863,-0.860402 c 5.123489,-0.47844 9.691355,-1.612732 10.289445,-2.555076 z M 188.0177,70.623912 c 0.92102,-2.223513 1.35719,-4.360125 0.9693,-4.748025 -1.75996,-1.75996 -19.52594,-3.151345 -39.65367,-3.105572 -22.84763,0.05196 -34.66375,1.285912 -30.33333,3.167701 1.28333,0.557674 3.08333,0.731583 4,0.386464 1.73418,-0.652905 30.89838,2.02668 43.66666,4.012062 4.03334,0.627156 8.53334,1.839752 10,2.694658 5.06496,2.952319 9.5226,2.006959 11.35104,-2.407288 z m -83.35103,-5.40169 c 0,-1.03889 -1.35,-2.08062 -3,-2.314958 -3.302709,-0.469058 -3.884879,1.00786 -1.38334,3.509402 1.99491,1.99491 4.38334,1.344073 4.38334,-1.194444 z m 15.28571,-12.351424 c -1.07381,-0.987727 -6.00816,-2.855919 -10.96522,-4.151537 -4.95706,-1.29562 -10.35706,-3.363318 -12,-4.594886 C 93.224883,41.304126 71.111627,30.004578 66.689506,28.642721 64.868734,28.081988 59.016198,25.607984 53.68387,23.144936 c -5.332328,-2.463048 -10.373804,-4.47827 -11.203279,-4.47827 -0.829474,0 -2.898289,1.5 -4.597365,3.333334 -1.800435,1.9427 -4.565936,3.333333 -6.62888,3.333333 -2.849058,0 -3.351769,0.455237 -2.576662,2.333333 0.529644,1.283334 1.400004,4.147448 1.934133,6.364701 1.231025,5.11017 3.327845,9.038754 6.014276,11.268292 2.907682,2.413163 3.776674,1.043128 1.921273,-3.029036 -2.225808,-4.885113 -0.474313,-9.947765 4.488416,-12.973665 4.804633,-2.929505 11.615016,-3.44616 13.999158,-1.062017 2.005788,2.005788 -0.310125,5.098392 -3.817955,5.098392 -4.277483,0 -5.551799,4.548064 -2.397783,8.557745 3.686564,4.686707 9.981866,7.214424 25.180797,10.110701 15.978418,3.044815 46.984271,3.657857 43.952381,0.869019 z"
       id="path872" />
  </g>
</svg>
