<?xml version="1.0" encoding="UTF-8" standalone="no"?>
<!-- Created with Inkscape (http://www.inkscape.org/) -->

<svg
   version="1.1"
   id="svg387"
   width="224"
   height="210.66667"
   viewBox="0 0 224 210.66667"
   xmlns="http://www.w3.org/2000/svg"
   xmlns:svg="http://www.w3.org/2000/svg">
  <defs
     id="defs391" />
  <g
     id="g393">
    <path
       style="fill:#000000;stroke-width:1.33333"
       d="m 201.38024,202.75432 c -1.59049,-2.97188 -1.94731,-62.26318 -0.38024,-63.1855 0.55,-0.32371 2.91091,-0.9982 5.24647,-1.49888 3.3057,-0.70866 4.85276,-0.30404 6.98317,1.82637 2.57976,2.57976 2.73333,4.24773 2.67801,29.08687 -0.0323,14.49258 -0.64782,28.60016 -1.36789,31.35016 -1.23236,4.70649 -1.61651,5 -6.54424,5 -3.81111,0 -5.61045,-0.70148 -6.61528,-2.57902 z M 9.3333333,196.01083 C 6.1662955,195.21935 6.0044385,194.71604 6.0889697,185.92223 6.1416821,180.43854 7.0493667,174.7649 8.3162859,172 c 1.1760905,-2.56666 2.5167461,-5.98597 2.9792331,-7.59846 0.462488,-1.61248 1.980406,-3.29347 3.37315,-3.73551 1.392744,-0.44204 3.760163,-2.79049 5.260932,-5.21879 3.0776,-4.97966 9.361019,-7.8125 22.408464,-10.10272 10.782635,-1.89268 16.417707,-0.81114 26.769887,5.1379 9.892892,5.6851 17.002253,15.15874 21.485373,28.63053 3.233099,9.71545 2.284868,15.02712 -2.879498,16.12995 -4.759614,1.0164 -74.646418,1.7011 -78.3804937,0.76793 z M 78.419516,183.48608 C 79.288783,182.94884 80,181.764 80,180.8531 c 0,-2.13387 -9.57426,-16.84527 -12.836008,-19.72327 -3.219851,-2.84104 -15.550408,-6.46316 -22.002108,-6.46316 -6.146125,0 -22.456061,8.19717 -22.524865,11.32073 -0.01631,0.74027 -1.202964,2.84594 -2.637019,4.67927 -1.630507,2.08448 -2.618479,5.43813 -2.637019,8.95129 l -0.02965,5.61796 29.75285,-0.38652 c 16.364066,-0.21258 30.464066,-0.82608 31.333333,-1.36332 z M 94.128717,61.059105 c -7.26254,-0.517493 -15.002073,-1.567493 -17.198965,-2.333333 -2.196891,-0.76584 -6.044259,-1.392438 -8.549705,-1.392438 -2.505447,0 -5.638122,-0.579477 -6.9615,-1.287729 -1.32338,-0.708251 -5.633935,-1.857407 -9.579012,-2.55368 -6.923463,-1.221934 -14.810059,-3.763702 -23.172868,-7.468376 -2.2,-0.974587 -6.890274,-2.825475 -10.422831,-4.113086 C 14.71128,40.622854 10.026056,37.892621 7.8322287,35.843279 0.95378937,29.417854 5.4732552,25.601406 27.333333,19.375631 c 6.6,-1.879687 13.83098,-4.003965 16.068846,-4.720619 2.237865,-0.716653 13.037865,-2.921777 24,-4.9002754 C 85.274557,6.5290449 90.432164,6.16243 117.33333,6.2055106 144.27667,6.2486586 148.42015,6.5584717 158,9.2462027 c 5.86667,1.6459573 13.36667,3.4619293 16.66667,4.0354933 14.04889,2.441802 41.6693,14.363376 44.19002,19.073374 0.71007,1.326779 0.95127,3.482847 0.53599,4.791264 -1.75032,5.514769 -21.55997,12.924657 -46.72601,17.478071 -8.8,1.592227 -20.18139,3.849931 -25.29198,5.01712 -10.18344,2.325765 -32.25411,2.913357 -53.245973,1.41758 z M 148.66667,46.515758 c 40.046,-7.123321 49.18994,-9.473079 48.30124,-12.412176 -0.7511,-2.483983 -11.99002,-7.436151 -16.9171,-7.454116 -2.59461,-0.0095 -8.48821,-1.199278 -13.09689,-2.644036 C 145.41535,17.253375 90.276215,16.934016 60,23.385968 c -18.719136,3.989104 -32,7.600927 -32,8.702621 0,1.661794 10.293823,5.254953 26,9.075552 20.357527,4.95206 29.783011,6.508669 48,7.927156 17.74647,1.381849 27.42051,0.847937 46.66667,-2.575539 z"
       id="path1049" />
  </g>
</svg>
