<?xml version="1.0" encoding="UTF-8" standalone="no"?>
<!-- Created with Inkscape (http://www.inkscape.org/) -->

<svg
   version="1.1"
   id="svg377"
   width="134.66667"
   height="214.66667"
   viewBox="0 0 134.66667 214.66667"
   xmlns="http://www.w3.org/2000/svg"
   xmlns:svg="http://www.w3.org/2000/svg">
  <defs
     id="defs381" />
  <g
     id="g383">
    <path
       style="fill:#000000;stroke-width:1.33333"
       d="m 46.000001,208.24364 c -5.435915,-0.34492 -8.005792,-1.45541 -13.920366,-6.01525 -8.265401,-6.37221 -16.799383,-17.83375 -18.836463,-25.29824 -2.169993,-7.95153 -1.106359,-16.93952 2.268524,-19.16963 4.265939,-2.81892 6.697566,0.46315 7.803331,10.53246 C 24.974939,183.40844 33.077299,196 41.143814,196 c 2.529664,0 2.598247,-0.27176 0.925344,-3.66666 -5.27106,-10.69684 -5.921668,-13.55278 -5.292054,-23.23023 0.767172,-11.79177 7.102685,-28.98152 20.65724,-56.04798 5.034427,-10.05302 10.155379,-22.053018 11.379895,-26.66667 4.474255,-16.857824 3.45736,-45.153521 -1.475604,-41.059525 -1.169885,0.970919 -4.012821,1.20008 -7.81484,0.629932 -13.704197,-2.05507 -24.742395,3.711807 -27.629896,14.435166 -0.840694,3.122099 -1.427374,15.575207 -1.362262,28.91592 0.07735,15.847337 -0.553224,27.088457 -1.948051,34.727767 -1.134328,6.21259 -2.597492,14.84031 -3.251475,19.17272 -1.393316,9.23022 -3.575792,11.42003 -7.123221,7.14716 C 15.560451,147.16756 15.553064,148.4725 18.437359,110 19.166207,100.27817 19.150522,91.122508 18.397382,86.666668 15.786055,71.217134 15.721123,68.406862 17.879075,64.233846 19.045583,61.978066 20,58.367524 20,56.210418 c 0,-2.782483 1.779178,-5.900881 6.123559,-10.732879 3.367958,-3.74598 6.967958,-6.810872 8.000001,-6.810872 1.032042,0 1.876441,-0.9 1.876441,-2 0,-1.550926 -1.759637,-2 -7.83674,-2 -5.078286,0 -8.380249,-0.654886 -9.380839,-1.860524 -0.849254,-1.023288 -3.61543,-2.249108 -6.147056,-2.724044 C 6.9177306,29.009464 4.8540011,25.449778 6.0038963,18.643606 6.9941148,12.782553 7.4710126,12.288086 16.79254,7.4574976 23.220405,4.1264594 24.152717,4.0009849 34.158048,5.1203761 c 9.182104,1.0272889 11.861486,1.984766 20.367928,7.2784779 9.072759,5.646141 20.472526,16.635678 23.790603,22.93448 3.124519,5.931363 5.94859,21.464439 6.013866,33.077732 0.07544,13.421767 -1.396462,19.10489 -8.787194,33.928014 -2.466469,4.94684 -4.863232,10.97186 -5.326139,13.38894 -0.462906,2.41707 -2.247654,6.31707 -3.966106,8.66666 -1.718452,2.34959 -4.808134,8.17199 -6.865959,12.93866 -2.057826,4.76666 -4.222487,9.28137 -4.810356,10.03269 -2.97873,3.80689 -5.723579,15.55735 -5.811448,24.87828 -0.09031,9.57887 0.157806,10.50992 3.819546,14.33333 5.180179,5.4089 9.198423,5.24115 15.068615,-0.62904 l 4.71807,-4.71806 -0.745359,-11.61527 c -0.893617,-13.92565 2.002515,-35.68285 5.719674,-42.96909 3.730826,-7.31303 10.624916,-11.19568 18.067775,-10.17553 8.147816,1.11678 15.943936,6.39616 19.485896,13.19546 2.71026,5.20273 2.95839,7.58901 3.02739,29.11449 l 0.0752,23.44726 3.92763,5.88608 c 2.1602,3.23733 5.3102,7.26034 7,8.94002 3.47941,3.45856 4.07742,9.31072 1.06939,10.46502 -4.08552,1.56776 -8.60343,-1.0487 -14.37631,-8.32572 -8.6998,-10.96659 -12.14222,-22.30379 -11.34902,-37.3766 0.49519,-9.40999 0.0985,-13.31022 -1.94761,-19.14999 -1.41319,-4.03333 -3.187708,-8.08333 -3.94336,-9 -2.079129,-2.52215 -7.000482,-1.99847 -9.747776,1.03725 -2.097081,2.31726 -2.503063,5.51102 -2.838943,22.33334 -0.741724,37.14866 -4.648382,43.86242 -29.460676,50.62941 -2.016667,0.55 -6.666667,0.80964 -10.333334,0.57697 z m -8,-185.360448 L 44.666668,22 40.2709,18.864751 c -7.720311,-5.506456 -21.604233,-5.589818 -21.604233,-0.129716 0,4.633397 5.982094,5.916915 19.333334,4.148157 z"
       id="path1188" />
  </g>
</svg>
