<?xml version="1.0" encoding="UTF-8" standalone="no"?>
<!-- Created with Inkscape (http://www.inkscape.org/) -->

<svg
   version="1.1"
   id="svg194"
   width="201.33333"
   height="154.66667"
   viewBox="0 0 201.33333 154.66667"
   xmlns="http://www.w3.org/2000/svg"
   xmlns:svg="http://www.w3.org/2000/svg">
  <defs
     id="defs198" />
  <g
     id="g200">
    <path
       style="fill:#000000;stroke-width:1.33333"
       d="m 50.666666,143.07187 c -2.695436,-1.08499 -3.955052,-3.16665 -3.979583,-6.57677 -0.02751,-3.82357 6.102889,-6.30133 12.582837,-5.08569 4.49135,0.84258 5.41493,0.46305 10.168396,-4.17859 2.875592,-2.80794 5.228349,-5.46028 5.228349,-5.8941 0,-2.59712 -23.249494,-17.28866 -27.416227,-17.32453 -0.778924,-0.007 -3.908059,-1.21611 -6.953631,-2.68757 C 27.138681,94.967305 21.27236,88.96587 17.497308,78.000002 15.124541,71.107528 13.823262,69.573827 8.4394749,67.324337 4.8870069,65.840021 3.9999999,64.713025 3.9999999,61.68372 c 0,-4.587413 9.5348141,-13.218002 16.8273921,-15.231579 7.714178,-2.129988 8.340625,-1.900037 53.839273,19.762814 8.433334,4.015285 16.533333,7.797448 18,8.404805 1.466667,0.607359 5.966667,2.571648 9.999995,4.365088 4.03334,1.79344 13.33334,5.00553 20.66667,7.137977 11.98745,3.485812 15.15027,3.862206 31.33333,3.728869 13.1153,-0.108067 19.58327,-0.741265 23.83431,-2.333333 3.20887,-1.201764 8.45887,-2.185026 11.66667,-2.185026 5.53636,0 5.83236,0.194719 5.83236,3.83674 0,2.110208 -0.85986,4.550355 -1.91079,5.422551 -1.63745,1.358965 -1.54209,1.954503 0.66667,4.163259 3.37928,3.379275 3.25321,5.143435 -0.75588,10.577455 -4.15034,5.62546 -4.15034,6.82445 0,11.75684 2.19962,2.6141 3.33333,5.5879 3.33333,8.74356 0,4.02461 -0.54321,4.91846 -3.42923,5.64281 -2.66964,0.67004 -4.36782,-0.0191 -7.66666,-3.11087 -6.34458,-5.94645 -16.50359,-9.57186 -34.90411,-12.4561 -15.91064,-2.49396 -26.78491,-4.07418 -32.80677,-4.76739 l -6.14011,-0.70683 -0.84522,5.11566 c -0.46487,2.81361 -0.85182,6.82413 -0.85989,8.91227 l -0.0147,3.79661 14.1449,-0.46328 c 13.16785,-0.43128 14.27548,-0.26929 16.03546,2.3452 1.66966,2.4803 1.60062,3.16658 -0.59088,5.87296 l -2.48146,3.06448 -42.554006,0.39882 c -23.404705,0.21936 -43.454008,0.0366 -44.554008,-0.40621 z m 46.92704,-14.65466 c 2.056795,-1.97053 3.739624,-4.31219 3.739624,-5.20368 C 101.33333,121.82971 88.09758,112 86.234251,112 c -0.355943,0 -0.322064,2.42384 0.07528,5.3863 0.561641,4.18735 0.132373,6.04228 -1.92852,8.33333 -5.206295,5.78775 -5.012759,6.28037 2.46734,6.28037 5.786165,0 7.656729,-0.62369 10.745355,-3.58279 z m 82.139624,-15.35054 c 0.88,-0.88 1.6,-2.98 1.6,-4.66667 0,-2.2851 -0.76457,-3.07204 -3,-3.08777 -1.65,-0.0116 -10.2,-0.68539 -19,-1.4973 -8.8,-0.81191 -19.9,-1.55241 -24.66667,-1.64556 -7.62687,-0.14905 -8.82469,-0.52956 -9.9838,-3.171603 -1.64967,-3.760214 -9.81159,-7.665164 -19.9315,-9.53593 -4.81891,-0.890824 -10.415983,-3.192464 -14.735361,-6.059505 -3.830716,-2.542684 -9.926983,-5.79059 -13.547262,-7.21757 -3.620278,-1.426982 -9.73317,-4.452316 -13.584206,-6.722969 -8.205851,-4.838344 -9.551199,-5.046766 -9.551199,-1.479685 0,1.768898 -1.55641,3.299083 -4.68541,4.606463 -5.284548,2.208025 -7.038219,5.197968 -4.700695,8.014511 2.824599,3.403433 18.96748,10.104171 27.95072,11.602047 4.822794,0.804158 16.773564,1.836978 26.557262,2.295156 16.434601,0.769645 17.977151,1.066349 20.266481,3.898206 1.36287,1.685839 2.14383,3.935839 1.73547,4.999999 -0.58669,1.52891 0.63021,1.93485 5.80019,1.93485 3.59845,0 7.11265,0.5472 7.80931,1.21601 1.18786,1.14035 7.07498,1.96917 24.6,3.46329 4.03334,0.34387 9.73334,1.50536 12.66667,2.5811 6.60565,2.42248 6.45872,2.4142 8.4,0.47293 z m -83.066665,-7.82619 c 0,-1.02884 -1.05,-2.07284 -2.333333,-2.31998 -2.298318,-0.44262 -3.248456,2.3866 -1.416667,4.21839 1.397609,1.39761 3.75,0.20673 3.75,-1.89841 z M 33.243373,82.253283 c -2.45793,-6.797284 1.268741,-12.666843 9.945945,-15.665 4.544512,-1.570224 5.925469,-2.565972 4.651004,-3.353635 -1.77018,-1.094031 -13.654677,-7.217999 -14.029112,-7.229067 -0.10384,-0.0031 -0.601404,1.63841 -1.105712,3.647731 -1.540719,6.138713 -5.673066,7.379121 -10.038832,3.013356 -3.242944,-3.242944 -3.628797,-0.800419 -0.772796,4.891947 1.04163,2.076096 2.939399,6.47472 4.217266,9.77472 2.190461,5.656712 6.880714,11.452594 8.200147,10.133162 0.3301,-0.330102 -0.150458,-2.676049 -1.06791,-5.213214 z M 69.666666,41.828016 c -2.98468,-1.283838 -2.0711,-14.16337 1.368822,-19.297505 C 75.925504,15.232094 85.251001,9.8130535 96.057344,7.9903276 107.54643,6.0524416 114.34427,6.9857172 124,11.826579 c 12.58498,6.309433 19.95064,21.515003 13.32797,27.514127 -2.73916,2.481266 -5.04646,2.677535 -34.46517,2.931755 -17.341205,0.149852 -32.279468,-0.05015 -33.196134,-0.444445 z M 130.66666,30.763739 c 0,-3.512232 -8.5583,-10.293119 -14.48107,-11.473599 -9.5689,-1.907196 -23.264125,-1.293084 -28.185591,1.263876 -6.43438,3.343001 -10.666667,7.447683 -10.666667,10.34507 0,2.275633 1.737588,2.434248 26.666668,2.434248 25.44198,0 26.66666,-0.118013 26.66666,-2.569595 z"
       id="path669" />
  </g>
</svg>
