<?xml version="1.0" encoding="UTF-8" standalone="no"?>
<!-- Created with Inkscape (http://www.inkscape.org/) -->

<svg
   version="1.1"
   id="svg367"
   width="217.33333"
   height="189.33333"
   viewBox="0 0 217.33333 189.33333"
   xmlns="http://www.w3.org/2000/svg"
   xmlns:svg="http://www.w3.org/2000/svg">
  <defs
     id="defs371" />
  <g
     id="g373">
    <path
       style="fill:#000000;stroke-width:1.33333"
       d="m 17.429736,183.01284 c -2.199,-1.78064 -2.849627,-3.30631 -2.235351,-5.24172 1.341633,-4.22711 21.61155,-20.45574 29.277981,-23.4407 13.324062,-5.18781 29.210781,-5.0795 42.860966,0.29219 2.2,0.86576 6.4,2.09095 9.333333,2.72264 2.933333,0.63169 9.533335,2.66196 14.666665,4.51169 5.13333,1.84974 11.28333,3.38864 13.66667,3.41978 3.62545,0.0473 4.3312,-0.43346 4.32031,-2.94339 -0.007,-1.65 -1.46756,-6.12408 -3.24532,-9.94241 -3.02451,-6.49616 -3.98788,-7.32544 -14.98697,-12.90114 C 104.59814,136.1999 93.062873,128.4895 85.333332,122.27481 69.89274,109.86029 51.999999,92.021076 51.999999,89.04119 c 0,-1.050328 -1.55939,-3.364276 -3.465313,-5.142106 -4.088452,-3.813677 -9.86802,-14.661431 -9.86802,-18.521426 0,-5.62111 -4.529539,-8.044326 -15.036658,-8.044326 -11.450567,0 -14.9069439,-1.848266 -16.9040878,-9.03931 C 4.9277554,41.819434 4.9797574,39.658391 6.9999999,36.904105 8.4765904,34.891003 10.026322,34.769962 20.58869,35.842762 c 6.557112,0.665995 12.782019,0.880888 13.833124,0.47754 1.969964,-0.755945 1.795576,-5.314368 -0.865849,-22.632728 -0.589887,-3.8384995 -0.646187,-7.6689149 -0.125111,-8.5120334 1.425884,-2.3071293 16.024871,-1.6234785 18.521803,0.8673509 1.539876,1.5361125 2.212586,6.1751755 2.714009,18.7159925 0.708624,17.72301 1.007252,18.469182 8,19.989306 7.584085,1.648671 27.814151,8.478737 35.999999,12.154304 16.089365,7.224364 25.241895,12.008943 29.303795,15.318854 2.55042,2.078257 5.14758,3.778651 5.77148,3.778651 2.08474,0 20.14016,15.577323 30.34858,26.183241 13.75305,14.28859 42.40784,53.03824 46.43433,62.79281 3.01852,7.31267 1.41188,8.84541 -8.13919,7.76484 -4.529,-0.5124 -10.66854,-1.84741 -13.64344,-2.96669 -2.97489,-1.11928 -10.20889,-3.45207 -16.07556,-5.18399 -5.86666,-1.73192 -12.4271,-3.7628 -14.57874,-4.51305 -2.15164,-0.75027 -4.21944,-1.05676 -4.59511,-0.6811 -0.37567,0.37568 -0.73212,5.79756 -0.79212,12.04864 -0.11973,12.48003 -1.23408,14.40662 -7.21259,12.47039 -1.91846,-0.62132 -6.4881,-2.09785 -10.15477,-3.28119 -3.66667,-1.18333 -9.36667,-3.3985 -12.66667,-4.9226 -5.60152,-2.58705 -7.94465,-3.27265 -20.99999,-6.14452 -2.750005,-0.60494 -6.310559,-1.80494 -7.91235,-2.66666 -3.839577,-2.06562 -9.758053,-2.00492 -9.740124,0.0999 0.0079,0.91667 2.109759,3.70284 4.671,6.1915 3.627149,3.52436 4.324936,4.9247 3.155876,6.33333 -3.253769,3.92056 -9.74266,1.62459 -16.20271,-5.733 -4.967452,-5.65761 -12.389984,-9.58036 -20.13696,-10.6422 -5.028696,-0.68925 -7.160468,-0.10693 -15.337599,4.19008 -5.223425,2.74485 -9.497137,5.41449 -9.497137,5.93255 0,0.51806 -2.280398,3.48676 -5.067553,6.59712 l -5.067553,5.65518 z M 196,158.61061 c 0,-1.49749 -1.95,-5.40045 -4.33334,-8.67323 C 165.57021,114.10195 157.38037,105.26775 130.78124,84.261591 125.23062,79.878095 116.64252,74.775425 106,69.537681 88.304955,60.829019 77.077503,57.045198 61.783767,54.636139 56.531506,53.808807 51.329031,52.427222 50.222711,51.565948 48.805595,50.462719 47.705121,44.978803 46.498458,33.007153 45.556438,23.661086 44.338103,16.461896 43.791049,17.00895 c -1.431271,1.431271 -1.76842,13.390071 -0.557143,19.762023 1.22258,6.431409 -1.673399,10.636123 -6.432675,9.339696 -1.540677,-0.41968 -6.932467,-1.159979 -11.981757,-1.645107 -7.378354,-0.708901 -9.063202,-0.53008 -8.582862,0.91094 0.641789,1.925369 12.452822,5.140984 19.223403,5.23367 5.095451,0.06976 7.237135,2.49207 11.249156,12.72316 3.916508,9.987523 13.442515,22.015278 29.040075,36.666666 16.367575,15.374692 21.669458,19.614642 27.654224,22.115232 2.80156,1.17057 6.98851,3.57351 9.30433,5.33987 2.31581,1.76636 4.59493,3.21156 5.06469,3.21156 0.46976,0 3.76559,1.79146 7.32407,3.981 5.2657,3.24003 6.76992,5.03928 8.08156,9.66667 2.24449,7.91845 4.30142,11.68567 6.38052,11.68567 1.14233,0 1.77469,-1.67774 1.77469,-4.70851 0,-5.72301 2.23429,-6.86763 8.24001,-4.22133 5.41112,2.3843 10.92423,4.36082 17.09332,6.12818 2.56667,0.73532 8.86667,2.84103 14,4.67935 11.75432,4.2094 15.33334,4.38048 15.33334,0.73292 z"
       id="path1327" />
  </g>
</svg>
