<?xml version="1.0" encoding="UTF-8" standalone="no"?>
<!-- Created with Inkscape (http://www.inkscape.org/) -->

<svg
   version="1.1"
   id="svg277"
   width="174.66667"
   height="224"
   viewBox="0 0 174.66667 224"
   xmlns="http://www.w3.org/2000/svg"
   xmlns:svg="http://www.w3.org/2000/svg">
  <defs
     id="defs281" />
  <g
     id="g283">
    <path
       style="fill:#000000;stroke-width:1.33333"
       d="M 14.07389,215.52844 C 9.8793929,211.33393 10.814501,208 16.185476,208 c 2.145096,0 6.054178,-0.9 8.686848,-2 2.632671,-1.1 5.708878,-2 6.836017,-2 1.127138,0 5.257488,-2.42217 9.178552,-5.3826 5.402923,-4.07925 8.253499,-7.61515 11.772296,-14.60255 5.689228,-11.2973 8.629095,-19.53412 8.654742,-24.24857 0.01067,-1.96189 2.729189,-9.01189 6.041149,-15.66667 7.160341,-14.38741 6.578812,-14.22338 26.350802,-7.43294 7.473468,2.56666 14.104878,4.66666 14.736478,4.66666 1.67199,0 0.27806,-11.33505 -2.60994,-21.22328 -1.89562,-6.49044 -3.89317,-9.95187 -8.272371,-14.3347 -9.055045,-9.062539 -10.930383,-8.969379 -21.131318,1.04974 -4.764451,4.67953 -11.346355,11.9599 -14.626451,16.1786 -6.815142,8.76529 -7.919196,8.74572 -14.468946,-0.25644 -2.2,-3.02375 -6.4,-8.7079 -9.333333,-12.63145 -2.933334,-3.92356 -6.007075,-8.2547 -6.830536,-9.62477 -1.410648,-2.347018 -1.643148,-2.360495 -4.021664,-0.2331 -1.388454,1.24186 -4.532463,6.17293 -6.986689,10.95793 -4.562032,8.89459 -8.12155,11.58339 -11.5584289,8.73104 -2.7590622,-2.28982 -2.4497596,-3.94806 2.0639839,-11.0655 2.2,-3.46904 4,-7.11304 4,-8.09778 0,-0.984737 0.887729,-2.527184 1.972732,-3.427656 1.085001,-0.900472 2.378203,-4.69382 2.87378,-8.429661 0.767143,-5.783004 1.761941,-7.575923 6.693935,-12.064435 4.839659,-4.404479 5.792887,-6.083117 5.792887,-10.2013 0,-7.853363 2.433065,-13.327235 5.923784,-13.327235 4.394436,0 5.426281,-1.480105 18.312397,-26.267781 4.2701,-8.213945 7.763819,-15.848537 7.763819,-16.965759 C 64.000001,8.2318973 70.282303,4 73.055216,4 c 0.653203,0 2.743144,2.8579692 4.644312,6.351043 1.90117,3.493073 4.877079,7.685446 6.613134,9.316385 2.724821,2.559837 3.784136,2.785329 7.746432,1.648957 C 94.583578,20.592373 99.511835,20 103.01078,20 c 5.31873,0 7.13708,0.710572 11.09108,4.334135 6.54191,5.995218 7.4134,12.76429 2.81234,21.844058 -1.85506,3.660788 -4.31965,7.441756 -5.47685,8.402152 -1.15721,0.960396 -2.10401,3.203323 -2.10401,4.984283 0,2.485861 1.16155,3.717773 5,5.302855 2.75,1.13561 6.133,3.054994 7.51778,4.265298 3.27072,2.85861 12.81555,22.509528 12.81555,26.384667 0,1.645512 0.6,3.36266 1.33333,3.815885 0.73334,0.453226 1.33334,2.215167 1.33334,3.915427 0,4.34988 3.09833,6.66095 6.49378,4.84377 3.79786,-2.03256 5.05178,-1.80215 8.12094,1.49222 1.65137,1.77253 2.71861,4.73166 2.71861,7.53783 0,3.71495 1.30571,6.00035 6.66667,11.66877 6.94949,7.34806 8.40856,12.10316 4.66666,15.20865 -1.1,0.91292 -2,2.49925 -2,3.52517 0,1.02594 -1.55108,2.57206 -3.44685,3.43583 -2.89628,1.31963 -3.32223,2.19359 -2.66667,5.47141 0.42911,2.14551 0.78019,5.32592 0.78019,7.06759 0,2.20893 0.75713,3.16667 2.50341,3.16667 4.5084,0 5.34055,3.06218 5.65736,20.81818 0.35358,19.81648 -0.352,21.7715 -9.65288,26.74626 -4.37614,2.34065 -6.07142,2.63641 -8.57454,1.49592 -5.08462,-2.31671 -5.04098,-4.96347 0.16042,-9.72776 4.58523,-4.19992 4.73772,-4.626 3.64079,-10.17283 -0.91512,-4.62747 -1.88333,-6.049 -4.82452,-7.08336 -4.08065,-1.43509 -8.49476,0.38376 -19.76462,8.14411 -3.40336,2.34352 -10.00336,6.16998 -14.66667,8.50326 -4.66331,2.33328 -9.37875,4.97194 -10.47875,5.8637 -3.460797,2.80561 -15.874638,6.03758 -20.01187,5.21014 -4.472116,-0.89442 -10.654799,-6.05158 -10.654799,-8.88748 0,-1.03612 1.2,-3.40941 2.666667,-5.27397 1.466667,-1.86456 2.666667,-4.00899 2.666667,-4.76539 0,-0.7564 2.25,-4.07022 5,-7.36408 2.75,-3.29384 6.8,-8.78854 9,-12.21044 2.2,-3.4219 4.6,-7.10102 5.333334,-8.17582 1.89121,-2.77182 -3.762802,-7.12044 -9.257893,-7.12044 -4.817008,0 -7.676889,3.04246 -18.110048,19.26629 -7.029711,10.93136 -9.251318,16.73823 -9.278652,24.25267 -0.03584,9.85381 -1.894046,10.78344 -23.626286,11.81989 l -18.939546,0.90327 z m 79.621676,-10.59132 3.333716,-1.72956 -4.054662,-2.32705 -4.054661,-2.32706 4.350585,-4.48866 c 2.61731,-2.70039 6.269071,-4.84858 9.166056,-5.39206 2.64851,-0.49686 7.27152,-2.34273 10.27335,-4.10192 3.00184,-1.7592 9.55877,-4.68598 14.57096,-6.50398 15.06229,-5.46331 22.5942,-15.53862 18.25416,-24.41826 -6.46577,-13.22885 -7.38856,-13.77644 -16.23402,-9.63345 -5.6474,2.64511 -7.48229,4.41347 -10.25308,9.88136 -3.82935,7.55685 -11.90187,18.80243 -16.34534,22.77019 -1.64251,1.46666 -4.064151,4.76666 -5.381417,7.33333 -1.317267,2.56667 -3.992179,6.15767 -5.944251,7.98 -4.219202,3.93879 -7.968696,11.3172 -6.751719,13.28631 1.17538,1.9018 5.040457,1.76153 9.070323,-0.32919 z m 12.732554,-49.34981 c 0.89184,-4.63095 -7.30531,-10.27307 -18.618056,-12.81487 -7.012393,-1.57559 -9.77512,0.33703 -11.903319,8.24056 -1.724236,6.40332 -1.007885,7.42148 2.648812,3.76477 2.905482,-2.90548 8.696821,-3.73281 10.111111,-1.44444 0.453226,0.73334 2.138635,1.34218 3.745356,1.35299 1.606722,0.0107 4.421311,0.85904 6.254645,1.88496 4.280111,2.39511 7.181541,2.02728 7.761451,-0.98397 z m 18.95211,-28.27823 c 5.62754,-2.91011 6.15282,-7.18021 2.69181,-21.882 -3.20206,-13.601807 -9.14055,-25.406569 -14.57094,-28.964696 -4.56782,-2.992949 -13.29081,-1.675351 -20.365734,3.076224 -6.451946,4.333177 -7.162199,6.430923 -2.99268,8.838923 16.162774,9.334398 18.969674,13.091319 24.622224,32.955799 0.93903,3.3 1.93649,6.45 2.21657,7 0.80511,1.58103 4.14938,1.17319 8.39875,-1.02425 z M 46.227608,99 C 41.454938,84.153213 38.977685,80.488983 35.83657,83.630097 c -1.97436,1.97436 -0.133593,7.401978 4.358699,12.851907 4.236156,5.139186 7.283909,6.411376 6.032339,2.517996 z m 28.327384,-12.333333 11.958855,-14 -3.640339,-0.964726 c -2.002186,-0.530598 -5.417801,-2.820354 -7.590256,-5.088348 -3.5797,-3.737124 -3.917943,-4.860377 -3.608775,-11.984184 0.390024,-8.986857 -1.646725,-11.23496 -8.869901,-9.790324 -6.889054,1.377811 -17.471242,16.732335 -17.471242,25.35039 0,1.758429 2.76844,8.735154 6.15209,15.503834 6.701461,13.405659 8.344689,15.924981 10.012759,15.351101 0.603874,-0.20776 6.479438,-6.677743 13.056809,-14.377743 z M 95.711934,59.1189 c 3.409516,-0.587552 4.803316,-1.771052 6.297616,-5.347401 1.05545,-2.526067 3.13509,-6.300668 4.6214,-8.388002 3.75671,-5.275808 3.45045,-9.934854 -0.87679,-13.338666 -3.82593,-3.009474 -9.095158,-2.793988 -14.461018,0.591382 -4.77104,3.010092 -10.246046,12.330467 -10.959038,18.656112 -0.870754,7.725308 1.241371,10.600483 6.923388,9.424608 2.241714,-0.463914 6.046212,-1.183029 8.454442,-1.598033 z M 78.396432,30.625029 c 0.306262,-3.637384 -0.378311,-5.436137 -3.009719,-7.908216 -3.338764,-3.136605 -3.446058,-3.14897 -5.423469,-0.625029 -3.781471,4.826621 -6.15758,10.145271 -5.406648,12.102169 0.546056,1.422998 2.472595,1.842791 7.096472,1.546324 6.211619,-0.398268 6.355385,-0.507324 6.743364,-5.115248 z"
       id="path1466" />
  </g>
</svg>
