<?xml version="1.0" encoding="UTF-8" standalone="no"?>
<!-- Created with Inkscape (http://www.inkscape.org/) -->

<svg
   version="1.1"
   id="svg159"
   width="204"
   height="146.66667"
   viewBox="0 0 204 146.66667"
   xmlns="http://www.w3.org/2000/svg"
   xmlns:svg="http://www.w3.org/2000/svg">
  <defs
     id="defs163" />
  <g
     id="g165">
    <path
       style="fill:#000000;stroke-width:1.33333"
       d="m 12.74802,137.04695 c -0.295707,-0.94249 -0.922387,-7.11361 -1.392621,-13.71361 -0.470235,-6.6 -1.4228305,-14.56214 -2.116879,-17.69365 C 8.5444713,102.50819 7.6429137,90.808186 7.2350585,79.639691 6.8272033,68.471195 5.9894388,50.452156 5.3733595,39.597381 4.1964447,18.861178 5.0636081,11.696291 9.0180585,9.4832689 13.471808,6.9908255 16,10.091759 16,18.046912 c 0,6.783227 0.218923,7.286422 3.170073,7.286422 1.743542,0 3.87419,0.848407 4.734774,1.885347 2.353858,2.836226 0.701558,19.714108 -3.092671,31.590951 -3.123695,9.777912 -3.173096,10.521718 -1.372615,20.666667 1.027235,5.788036 2.26925,18.529251 2.760031,28.313811 0.603293,12.02764 1.417767,17.99173 2.514475,18.41258 0.892177,0.34236 8.128489,-0.34363 16.080692,-1.52441 14.264392,-2.11806 21.086876,-1.88319 29.498297,1.01551 3.409815,1.17507 6.396057,0.98367 14.514833,-0.93034 7.698007,-1.8148 14.045086,-2.28884 25.706941,-1.91995 L 126,123.33334 126.91182,112 c 0.5015,-6.23333 1.54084,-16.733331 2.30965,-23.333331 1.94151,-16.667489 1.7824,-28.897434 -0.46343,-35.620072 -2.55729,-7.654935 -5.37544,-26.847839 -4.33881,-29.549259 0.89345,-2.328271 6.24744,-3.040148 6.24744,-0.830671 0,0.733334 0.6,1.333334 1.33333,1.333334 0.73333,0 1.35241,-3.450001 1.37573,-7.666667 0.0492,-8.8824893 2.34742,-13.0240891 6.49662,-11.7071843 1.73342,0.5501696 3.24308,2.7554685 4.12284,6.0226333 1.44608,5.370328 2.1797,41.577529 0.88489,43.672585 -0.40759,0.659483 -0.81592,11.056963 -0.90741,23.105514 -0.0915,12.048549 -0.72299,25.206458 -1.40334,29.239788 -0.68034,4.03333 -1.57833,11.3255 -1.99552,16.2048 -1.19804,14.01175 0.27091,13.37569 -32.00346,13.85725 -15.347027,0.22899 -43.064407,0.77983 -61.594182,1.22408 -26.831927,0.64332 -33.799951,0.45891 -34.228148,-0.90585 z M 190.23717,98.137286 c -0.56673,-1.476888 -1.42068,-48.313122 -1.00529,-55.137285 0.15388,-2.528052 6.50271,-1.992496 7.90311,0.666667 1.52474,2.895272 3.49298,49.587631 2.25473,53.488994 -1.04968,3.307268 -7.97508,4.050028 -9.15255,0.981624 z"
       id="path187" />
  </g>
</svg>
