<?xml version="1.0" encoding="UTF-8" standalone="no"?>
<!-- Created with Inkscape (http://www.inkscape.org/) -->

<svg
   version="1.1"
   id="svg69"
   width="152"
   height="213.33333"
   viewBox="0 0 152 213.33333"
   xmlns="http://www.w3.org/2000/svg"
   xmlns:svg="http://www.w3.org/2000/svg">
  <defs
     id="defs73" />
  <g
     id="g75">
    <path
       style="fill:#000000;stroke-width:1.33333"
       d="m 66.356569,206.33333 c -1.83348,-1.41925 -2.290838,-6.63195 -3.080901,-35.11421 -0.510285,-18.39616 -0.50478,-34.78035 0.01227,-36.40932 0.753129,-2.3729 1.77893,-2.88038 5.159396,-2.55245 l 4.219336,0.40931 0.803329,24 c 0.441831,13.2 1.27222,28.83924 1.845309,34.75386 0.725798,7.49068 0.568946,11.63773 -0.516908,13.66666 -1.741038,3.25318 -5.191104,3.76246 -8.441828,1.24615 z M 144.415,154.91202 c -0.80172,-0.50161 -3.71193,-5.71202 -6.46713,-11.57869 -4.3569,-9.27715 -5.14644,-12.4904 -6.061,-24.66667 -0.57834,-7.7 -1.10266,-20.599995 -1.16515,-28.666661 C 130.59146,73.184832 128.85185,67.905892 119.9288,57.24829 114.08011,50.262673 107.94183,45.916842 101.04731,43.880415 93.238841,41.574035 61.315748,38.687238 34,37.817345 7.5422833,36.974777 2.6666667,36.196947 2.6666667,32.818597 2.6666667,30.858854 14.170315,15.022652 20.453117,8.3333332 25.463471,2.9987973 30.884272,2.490689 33.01008,7.1563308 c 1.284248,2.8186161 0.736501,3.8919372 -5.119313,10.0314062 -3.606588,3.781292 -6.557434,7.382203 -6.557434,8.002023 0,0.619821 11.25,1.182474 25,1.250342 32.696814,0.161387 42.764299,1.085551 55.742417,5.116984 l 10.74242,3.336949 10.55392,-3.447018 c 9.18287,-2.999216 15.29458,-4.239925 15.29458,-3.104881 0,0.188174 0.56745,2.320722 1.261,4.738997 1.04565,3.645962 0.81794,4.839921 -1.33334,6.991197 -1.42688,1.426884 -4.24433,2.603524 -6.261,2.614753 -7.39996,0.0412 -7.91359,2.021224 -1.92005,7.401732 3.48573,3.129203 6.48827,7.502705 8.08575,11.777703 3.4372,9.198265 5.02006,30.860763 2.75208,37.66396 -3.83295,11.497552 -1.21915,39.690322 4.26612,46.014882 3.84865,4.43753 2.96888,11.91382 -1.10223,9.36666 z"
       id="path326" />
  </g>
</svg>
