<?xml version="1.0" encoding="UTF-8" standalone="no"?>
<!-- Created with Inkscape (http://www.inkscape.org/) -->

<svg
   version="1.1"
   id="svg213"
   width="212"
   height="214.66667"
   viewBox="0 0 212 214.66667"
   xmlns="http://www.w3.org/2000/svg"
   xmlns:svg="http://www.w3.org/2000/svg">
  <defs
     id="defs217" />
  <g
     id="g219">
    <path
       style="fill:#000000;stroke-width:1.33333"
       d="m 102.39438,209.17291 c -5.831512,-2.19057 -6.204607,-6.4004 -0.9556,-10.78247 2.45327,-2.04806 5.5726,-3.72377 6.93184,-3.72377 4.06897,0 7.62938,-2.57981 7.62938,-5.52811 0,-2.30785 -3.3146,-11.60089 -10.77206,-30.20129 -3.39286,-8.46248 -0.50421,-11.79563 11.43873,-13.19893 5.14434,-0.60447 5.80581,-0.2008 18.66666,11.39157 10.14178,9.14148 13.69738,11.64147 14.85418,10.44417 0.83646,-0.86574 1.90714,-8.31273 2.37928,-16.54886 0.81998,-14.30424 0.7071,-15.25903 -2.52086,-21.32272 -1.8586,-3.49137 -3.37926,-7.0209 -3.37926,-7.8434 0,-0.82251 -1.58182,-3.07728 -3.51515,-5.01061 -3.23647,-3.23646 -4.39751,-3.51515 -14.64412,-3.51515 H 117.37843 L 105.02255,101.86473 C 98.226813,95.557 90.229365,89.278776 87.250443,87.913121 77.624839,83.500372 73.984977,75.910047 81.013621,74.907266 c 4.010038,-0.572113 3.787227,-1.69641 -1.61844,-8.16657 -4.97829,-5.958627 -4.98617,-9.407362 -0.0215,-9.407362 4.834498,0 11.395088,6.52529 15.38821,15.30541 2.008065,4.415359 5.058121,9.279579 6.777899,10.809377 4.01679,3.573059 17.2473,11.542568 17.96719,10.822682 0.30244,-0.302448 -0.95704,-3.787107 -2.79885,-7.743687 -1.84181,-3.95658 -3.35461,-7.964016 -3.36177,-8.905415 -0.007,-0.941398 -2.11303,-2.950664 -4.67969,-4.465035 C 105.46605,71.268258 104,69.431717 104,67.310684 c 0,-4.478179 1.34676,-7.310683 3.47599,-7.310683 2.40398,0 2.40497,-4.552323 0.001,-6.547086 -3.02778,-2.512808 -3.4728,-6.476446 -0.8055,-7.173962 5.54395,-1.449775 14.66138,11.295077 14.66138,20.494483 0,6.050352 2.20443,10.905439 9.33584,20.56148 7.63391,10.336444 8.3051,10.696502 14.98247,8.037361 C 151.237,93.148012 156,89.772692 156,88.038872 c 0,-0.484639 -2.37765,-2.21748 -5.28368,-3.850759 -6.77415,-3.80728 -8.13013,-9.274093 -4.39483,-17.718267 4.50884,-10.192848 12.61175,-15.551095 27.15092,-17.95422 6.7695,-1.118901 15.21258,4.256873 17.03136,10.843996 2.20879,7.999548 0.48946,13.136563 -7.14086,21.335393 l -6.97672,7.49655 3.21705,2.107891 c 6.29976,4.127769 8.40247,10.847234 8.33869,26.647424 -0.0319,7.91255 -0.7473,17.08646 -1.58969,20.38646 -2.27295,8.90401 -2.08252,31.11186 0.29129,33.97213 1.17126,1.41127 1.93226,5.39001 1.9668,10.28288 0.0476,6.74065 0.5455,8.377 3.20404,10.52963 1.73126,1.40177 4.61104,2.54869 6.39955,2.54869 1.78852,0 4.96901,0.88799 7.06779,1.97331 2.98317,1.54265 3.65414,2.63381 3.07453,5 -1.45985,5.95976 -2.62537,6.36002 -18.51949,6.36002 -16.08847,0 -17.1964,-0.51368 -13.25256,-6.14429 1.71249,-2.44492 1.63725,-2.97761 -0.70363,-4.98193 -2.05923,-1.76318 -2.32585,-2.79607 -1.24368,-4.81811 0.7576,-1.4156 1.97424,-2.94264 2.70363,-3.39343 2.15809,-1.33378 1.52357,-9.59833 -1.5016,-19.55805 -2.80216,-9.22551 -2.80643,-9.44464 -0.47087,-24.20699 1.29628,-8.19345 2.62395,-18.38461 2.95037,-22.64701 0.63488,-8.29029 -1.9041,-19.58352 -4.40285,-19.58352 -0.82624,0 -2.58824,-1.2 -3.91556,-2.66667 -2.88779,-3.190972 -7.67665,-3.46612 -10.07296,-0.578749 -0.95305,1.148349 -3.49547,2.999409 -5.6498,4.113459 -2.88044,1.48954 -3.5236,2.41893 -2.43044,3.51209 0.81759,0.81759 1.48653,2.3599 1.48653,3.42735 0,1.06744 1.49927,3.90644 3.3317,6.30889 5.73042,7.51297 6.04692,9.76376 4.5323,32.23184 -0.77805,11.54182 -1.51574,24.38034 -1.63932,28.53003 -0.1236,4.14969 -0.71886,8.04969 -1.32286,8.66667 -0.604,0.61697 -4.804,1.80436 -9.33334,2.63864 -7.98976,1.47168 -15.13024,3.62462 -19.88372,5.99517 -1.27338,0.63504 -3.37338,1.15769 -4.66666,1.16144 -1.29329,0.004 -4.75143,1.51539 -7.68476,3.35917 l -5.33334,3.35234 L 122,201.96971 c 5.86667,-0.41175 19.21667,-1.0542 29.66667,-1.42767 18.27561,-0.65316 19,-0.5784 19,1.96088 0,3.88392 -3.60652,6.82462 -8.42858,6.87251 -2.33094,0.0232 -15.93809,0.29181 -30.23809,0.597 -15.78506,0.33689 -27.41659,0.0228 -29.60562,-0.79952 z m 31.4247,-25.84779 c 2.10049,-1.09548 5.55049,-1.99178 7.66667,-1.99178 2.11617,0 3.84758,-0.36104 3.84758,-0.80231 0,-0.44127 -4.05,-4.98185 -9,-10.0902 -8.47108,-8.74208 -14.34496,-13.10749 -17.63673,-13.10749 -2.38253,0 -0.49315,11.97522 3.20807,20.33333 3.67259,8.29343 5.34192,9.08624 11.91441,5.65845 z M 174.55925,73.187089 c 8.43551,-8.303496 8.6456,-11.688981 0.8828,-14.225164 -4.51577,-1.475345 -5.98554,-1.392209 -10.8331,0.61276 -5.99728,2.480499 -11.27562,8.775493 -11.27562,13.447405 0,2.211297 1.05814,3.055582 4.6814,3.735311 2.57476,0.48303 5.01018,1.410218 5.41202,2.060418 1.51293,2.447981 4.41814,0.978546 11.1325,-5.63073 z M 9.1910203,207.51583 C 6.0717857,205.96432 5.9793741,205.41951 5.0831375,183.29764 4.150796,160.2846 4.7126291,155.31691 9.1097844,147.69428 c 1.9746506,-3.42312 1.9197986,-3.8817 -0.9244324,-7.72873 -3.6067776,-4.87843 -3.2781516,-8.47242 0.8282689,-9.05828 3.4812151,-0.49667 3.8126641,-3.07335 0.9561318,-7.43297 -2.5059246,-3.82453 -1.3554619,-7.24302 2.7875113,-8.28284 l 3.129795,-0.78553 -2.668324,-3.6091 c -2.688813,-3.63682 -2.364619,-8.11099 0.590584,-8.15058 0.838208,-0.0112 2.400157,-0.5746 3.470997,-1.25193 1.665979,-1.05378 1.587337,-1.628922 -0.544885,-3.985002 -2.068774,-2.285969 -2.234416,-3.31853 -0.975568,-6.081399 0.888808,-1.95072 2.631681,-3.327918 4.211552,-3.327918 2.835773,0 3.625984,-1.934064 1.361918,-3.333333 C 20.6,84.213443 20,82.450825 20,80.749739 c 0,-2.185536 1.183933,-3.583284 4.035684,-4.764519 3.565777,-1.476994 3.992717,-2.233268 3.666667,-6.495094 -0.335852,-4.389946 0.01093,-4.935452 3.858992,-6.069553 3.9096,-1.152251 4.210838,-1.654316 4,-6.666667 -0.21856,-5.195933 -0.04843,-5.437887 4.105324,-5.838383 C 43.750953,50.521723 44,50.196047 44,45.248857 v -5.248856 h 6.666667 c 5.683028,0 6.666666,-0.377366 6.666666,-2.557618 0,-5.276004 1.487547,-6.775716 6.720755,-6.775716 4.574781,0 5.145725,-0.378975 5.524016,-3.666667 0.400396,-3.479816 0.744637,-3.650192 6.755229,-3.343377 5.900607,0.3012 6.333334,0.102733 6.333334,-2.904763 0,-4.60268 3.497532,-7.781263 6.685002,-6.07538 1.374899,0.735823 2.868642,1.934634 3.319428,2.664023 1.410204,2.281757 3.093478,1.469485 5.540998,-2.673836 2.818275,-4.7709562 7.399145,-5.2909435 10.287165,-1.167724 1.65216,2.358785 2.79549,2.680005 6.83902,1.921433 3.79251,-0.711478 5.15443,-1.769168 6.22223,-4.832277 1.60751,-4.6112792 4.96178,-5.0975913 8.46444,-1.2271969 2.43597,2.6917169 2.44187,2.6907829 6.30865,-1 l 3.8704,-3.6942354 20.23133,0.431049 c 17.34588,0.3695715 20.83955,0.8068819 24.49583,3.0662012 8.65025,5.3452371 8.07749,19.0810231 -1.13781,27.2869661 -5.5637,4.954295 -11.72967,6.565654 -24.056,6.286572 -12.42279,-0.281264 -17.52276,-2.011985 -24.11834,-8.18478 l -3.71432,-3.476227 -0.76297,2.917618 c -0.90579,3.463735 -5.20239,5.168723 -7.73289,3.068588 -0.9881,-0.820048 -2.18678,-3.571139 -2.66374,-6.113535 l -0.86719,-4.622537 -2.93895,3.335698 c -3.31116,3.758153 -4.98745,3.18534 -7.74327,-2.645974 -2.60467,-5.511486 -5.88909,-5.78803 -8.51159,-0.716667 -1.938501,3.748648 -2.564361,4.051924 -6.743782,3.267859 -2.854259,-0.535462 -4.606975,-0.336788 -4.606975,0.52221 0,3.279971 -4.272986,5.646582 -8.696681,4.816691 -4.098232,-0.768833 -4.467491,-0.550021 -4.868933,2.885183 -0.392287,3.356865 -0.949415,3.724764 -5.748635,3.796097 -4.838821,0.07192 -5.376121,0.43684 -6.005833,4.078988 -0.582815,3.370904 -1.378224,4.066162 -5.057475,4.420675 -2.401241,0.231371 -4.277527,1.131371 -4.169524,2 0.452861,3.64221 -0.327535,4.951714 -4.119585,6.912659 -3.288319,1.700456 -4,2.898613 -4,6.73424 0,4.117511 -0.470019,4.759764 -4,5.46576 -4.288959,0.857792 -4.848598,1.751403 -2.541627,4.058373 2.563347,2.563347 0.68418,6.018033 -4.12504,7.583531 -4.275597,1.391794 -4.666667,1.954718 -4.666667,6.71742 0,2.85908 -0.68893,5.432499 -1.530956,5.718708 -0.984412,0.33461 -1.270624,2.461303 -0.801724,5.957217 0.566454,4.22322 0.22884,5.71686 -1.512473,6.69134 -1.694771,0.94845 -2.040765,2.32562 -1.418123,5.64459 0.680944,3.62975 0.253866,4.83821 -2.465924,6.9776 -2.918281,2.29552 -3.081556,2.87191 -1.446818,5.10754 2.684861,3.67177 2.27279,6.47478 -1.468571,9.9896 -3.310443,3.11 -3.310641,3.11178 -0.809651,7.23243 2.897854,4.77452 1.870943,9.38651 -2.391216,10.73927 -1.476642,0.46866 -2.983898,1.87144 -3.34946,3.11725 -1.16263,3.96221 0.220166,28.55173 2.203655,39.18641 1.051932,5.64006 1.555301,10.78382 1.118599,11.4306 -1.512416,2.23998 -5.093103,2.74396 -8.2696507,1.16395 z M 171.60393,30.40989 c 7.31995,-3.121016 10.26339,-9.762752 7.01583,-15.830878 C 177.38955,12.280354 175.71613,12 163.22581,12 c -13.10096,0 -14.22685,0.213158 -17.28641,3.272727 -4.28687,4.286867 -4.19107,9.336852 0.25529,13.457605 C 149.22124,31.535238 151.01281,32 158.79863,32 c 4.99174,0 10.75413,-0.715549 12.8053,-1.59011 z"
       id="path241" />
  </g>
</svg>
