<?xml version="1.0" encoding="UTF-8" standalone="no"?>
<!-- Created with Inkscape (http://www.inkscape.org/) -->

<svg
   version="1.1"
   id="svg75"
   width="208"
   height="48"
   viewBox="0 0 208 48"
   xmlns="http://www.w3.org/2000/svg"
   xmlns:svg="http://www.w3.org/2000/svg">
  <defs
     id="defs79" />
  <g
     id="g81">
    <path
       style="fill:#000000;stroke-width:1.33333"
       d="m 128.8097,43.799595 c -3.80651,-5.43456 1.30747,-10.947991 7.21985,-7.783783 4.16794,2.230615 3.09797,8.175551 -1.70056,9.448623 -2.8539,0.75715 -4.08242,0.38658 -5.51929,-1.66484 z M 99.748063,41.979519 c -1.481698,-3.251974 -1.327816,-3.888755 1.491397,-6.171618 2.76509,-2.239032 3.4817,-2.321392 5.95205,-0.684064 5.11187,3.388104 4.06391,8.008299 -2.17142,9.573267 -3.06893,0.770252 -3.87131,0.356645 -5.272027,-2.717585 z m -29.019846,0.09465 c -3.600924,-4.338848 2.358295,-9.559081 6.352571,-5.564807 1.698063,1.698063 1.871957,2.739923 0.7537,4.51566 -1.946879,3.091548 -5.033081,3.547186 -7.106271,1.049147 z M 152.02164,31.881404 C 139.09425,30.637361 87.651443,29.851681 49.333333,30.313059 21.385824,30.649567 13.703783,29.785921 8.1891149,25.687464 1.1078426,20.424719 4.3578303,11.246131 14.364079,8.2481859 21.440808,6.1279463 185.86931,6.0917583 194.27601,8.2085903 c 8.3554,2.1039127 11.03844,6.0495907 9.546,14.0382777 -0.64836,3.470471 -1.75928,6.890401 -2.46873,7.599847 -3.15141,3.151418 -27.35409,4.149661 -49.33164,2.034689 z M 101.33333,22.70156 c 93.87767,0.259001 88.1636,0.37294 90.33788,-1.801343 3.90383,-3.903828 0.53422,-4.78734 -18.71558,-4.907212 C 31.30798,15.110931 17.499371,15.264416 15.049023,17.748157 c -2.288313,2.319499 -2.27709,2.49529 0.28431,4.453196 2.18932,1.673495 5.292072,1.88737 17.333334,1.194799 8.066666,-0.463965 38.966666,-0.776532 68.666663,-0.694592 z"
       id="path460" />
  </g>
</svg>
