<?xml version="1.0" encoding="UTF-8" standalone="no"?>
<!-- Created with Inkscape (http://www.inkscape.org/) -->

<svg
   version="1.1"
   id="svg203"
   width="210.66667"
   height="49.333332"
   viewBox="0 0 210.66667 49.333332"
   xmlns="http://www.w3.org/2000/svg"
   xmlns:svg="http://www.w3.org/2000/svg">
  <defs
     id="defs207" />
  <g
     id="g209">
    <path
       style="fill:#000000;stroke-width:1.33333"
       d="m 71.415696,42.757674 c -3.884752,-4.292603 -1.658175,-9.424342 4.089067,-9.424342 4.342174,0 7.284593,3.436047 5.9747,6.97703 -1.482951,4.008794 -7.357747,5.43743 -10.063767,2.447312 z m 29.627854,-0.86122 c -1.999306,-4.388003 -0.0867,-7.739639 4.74633,-8.317264 4.52517,-0.540834 7.33221,4.499481 4.96705,8.918818 -2.19191,4.095617 -7.72946,3.752675 -9.71338,-0.601554 z m 26.97281,-1.865898 c -1.11195,-2.07769 -0.87232,-3.17459 1.13119,-5.178109 4.91593,-4.915925 12.578,-0.271008 9.27852,5.624841 -1.75465,3.135383 -8.65102,2.839427 -10.40971,-0.446732 z m 32.86407,-9.406833 c -2.08243,-0.618048 -7.48243,-1.161374 -12,-1.207393 C 144.36287,29.370313 133.16667,29.113631 124,28.845927 114.83334,28.578222 86.686437,28.813383 61.451341,29.368506 33.399171,29.985599 14.170034,29.890018 11.968455,29.122543 5.635004,26.91469 3.2059865,16.699454 7.6963145,11.156053 12.225585,5.5645772 14.135924,5.3461447 57.563193,5.4541605 c 22.973578,0.057141 63.788427,0.033448 90.699647,-0.052653 l 48.92952,-0.1565472 4.04499,3.7108531 c 3.17459,2.9123416 4.10872,4.9664966 4.34112,9.5461016 0.39453,7.774777 -2.8054,10.380115 -13.93099,11.342368 -18.88077,1.632997 -27.18248,1.843309 -30.76705,0.77944 z M 70.794797,20.931779 c 12.849794,-0.187921 18.754314,-0.784733 20.278722,-2.049714 1.347738,-1.11838 3.599566,-1.466355 6.031943,-0.932115 3.216768,0.70652 4.008308,0.366983 4.622848,-1.982996 l 0.74149,-2.835484 -40.901564,0.555012 c -22.495863,0.305258 -42.251569,1.020655 -43.901569,1.589774 -1.65,0.569118 -3,2.128562 -3,3.465431 0,3.025467 4.602248,3.587279 24,2.929759 7.7,-0.261004 22.157659,-0.593855 32.12813,-0.739667 z M 190.33334,20.450978 c 3.43233,-0.59228 4.33333,-1.392487 4.33333,-3.848586 V 13.501561 L 172,13.620681 c -20.52792,0.10788 -22.66666,0.336151 -22.66666,2.419293 0,1.265099 0.77842,2.946219 1.72984,3.735824 2.99278,2.483787 26.45169,2.887125 39.27016,0.675187 z m -48.60439,-2.197846 c 2.77503,-1.439704 3.24309,-2.21004 1.95872,-3.223666 -1.93691,-1.5286 -26.64317,-3.346583 -29.67404,-2.183531 -1.91792,0.735974 -2.81751,5.905738 -1.29295,7.430296 1.49432,1.494326 25.44855,-0.176296 29.00827,-2.023099 z"
       id="path380" />
  </g>
</svg>
