<?xml version="1.0" encoding="UTF-8" standalone="no"?>
<!-- Created with Inkscape (http://www.inkscape.org/) -->

<svg
   version="1.1"
   id="svg193"
   width="222.66667"
   height="202.66667"
   viewBox="0 0 222.66667 202.66667"
   xmlns="http://www.w3.org/2000/svg"
   xmlns:svg="http://www.w3.org/2000/svg">
  <defs
     id="defs197" />
  <g
     id="g199">
    <path
       style="fill:#000000;stroke-width:1.33333"
       d="m 5.3050038,195.94707 c -2.7861562,-5.20599 -1.7983056,-9.87139 5.6351852,-26.61373 3.076535,-6.92924 10.07625,-14.75083 17.726478,-19.80786 4.825944,-3.19008 6.538383,-3.52548 18,-3.52548 10.434281,0 13.736954,0.52747 18.739526,2.99286 5.771252,2.8442 18.593808,15.89042 18.593808,18.91814 0,0.78228 0.453511,1.42234 1.007803,1.42234 1.287409,0 7.122407,12.6655 8.357113,18.14002 1.79789,7.97162 1.399603,8.09644 -29.002208,9.09015 -61.9095159,2.02355 -57.6208689,2.06831 -59.0577052,-0.61644 z m 63.5710842,-9.56385 c 5.087376,-1.18276 7.334874,-2.45234 8.372374,-4.7294 1.988434,-4.36414 1.792094,-6.36051 -1.202918,-12.23122 C 71.86389,161.2259 53.735533,151.59711 48.131582,154.59624 46.688966,155.36831 44.350115,156 42.934134,156 c -1.41598,0 -4.100063,1.2 -5.964628,2.66667 -1.864564,1.46667 -4.092395,2.66667 -4.950734,2.66667 -2.933762,0 -11.771976,10.94464 -13.305494,16.47662 -0.842124,3.03786 -1.839962,6.25191 -2.217419,7.14235 -0.679713,1.60347 0.384933,1.68499 36.131767,2.76649 5.111862,0.15467 12.42367,-0.44634 16.248462,-1.33558 z M 164,197.49211 c -11.64545,-2.55544 -21.42964,-10.68467 -29.87942,-24.82544 -4.23874,-7.09355 -4.78078,-9.03427 -4.78382,-17.12812 -0.004,-11.46872 2.88499,-21.58243 7.90582,-27.67356 5.7742,-7.00509 17.27966,-15.1754 24.09076,-17.10742 3.3,-0.93606 7.37822,-2.23945 9.06273,-2.89642 5.70071,-2.2233 12.17624,-1.21127 22.16095,3.4634 7.90845,3.70261 11.23536,6.23202 16.22193,12.33334 8.56843,10.4839 10.24464,15.00489 10.26803,27.69435 0.0376,20.42951 -8.16914,33.70363 -26.81016,43.36423 -6.26155,3.245 -19.96104,4.59165 -28.23682,2.77564 z m 19.56519,-8.61285 c 1.17528,-1.17528 -0.95429,-6.07427 -4.44251,-10.21979 -3.88917,-4.62201 -5.78934,-5.07787 -5.78934,-1.38887 0,1.43216 -0.67888,4.0939 -1.50862,5.91498 -2.53193,5.55697 -0.63672,7.94112 5.643,7.09884 2.98055,-0.39978 5.72442,-1.0321 6.09747,-1.40516 z M 162.34228,185 c 0.7345,-0.91666 2.70023,-5.56666 4.36828,-10.33333 1.66807,-4.76667 4.1194,-9.82883 5.44742,-11.24924 2.38746,-2.55357 2.44657,-2.55361 5.26504,-0.003 1.56776,1.41882 5.25732,6.63096 8.19901,11.58258 3.25768,5.48349 6.23409,9.00293 7.6138,9.00293 2.49596,0 8.19461,-5.56672 10.72477,-10.47648 2.01003,-3.90043 1.62095,-4.30879 -10.85273,-11.39024 -7.75539,-4.40281 -9.77453,-6.19028 -9.77453,-8.65296 0,-2.60532 1.82028,-3.92461 11.33333,-8.21412 14.23971,-6.42077 14.6764,-7.92927 5.19703,-17.95231 -3.84135,-4.06165 -7.42947,-7.21886 -7.97362,-7.01602 -0.54414,0.20284 -3.59201,5.4181 -6.77305,11.58948 -9.02617,17.51126 -11.24173,17.49916 -19.46377,-0.10627 -3.03415,-6.49687 -5.65588,-10.43181 -6.93294,-10.40561 -4.39126,0.0901 -15.58117,13.12466 -14.24854,16.59744 0.39641,1.03302 5.31158,4.11684 10.92262,6.85289 5.61103,2.73607 10.5382,5.85111 10.94927,6.92232 1.07695,2.80648 -1.22383,5.91856 -6.28657,8.50336 C 150.57075,165.09479 144,169.96891 144,172.1625 c 0,2.43165 12.88516,14.50417 15.48051,14.50417 0.83947,0 2.12727,-0.75 2.86177,-1.66667 z m -14.49916,-26.77382 c 5.14695,-3.38967 6.37351,-4.80955 5.18306,-6 -0.85774,-0.85774 -2.48951,-1.57859 -3.62618,-1.60191 -1.13666,-0.0233 -3.23134,-0.92333 -4.65484,-2 -3.56592,-2.69713 -5.74224,-2.45087 -6.76301,0.76529 -1.04351,3.28783 0.47527,13.27711 2.01867,13.27711 0.60486,0 4.1339,-1.99823 7.8423,-4.44049 z m 62.83676,-2.26622 c 2.36591,-7.16874 0.74747,-8.85433 -6.21408,-6.47188 -2.82285,0.96607 -6.24124,2.47412 -7.59641,3.35123 -2.34384,1.51699 -2.31133,1.68995 0.66667,3.54813 10.09901,6.30151 10.932,6.27442 13.14382,-0.42748 z m -31.01321,-31.2911 C 184.23564,117.61518 183.69135,116 176.74536,116 c -3.25672,0 -6.24484,0.52348 -6.64026,1.1633 -0.98067,1.58675 3.5658,12.14364 5.22824,12.13997 0.73333,-0.002 2.68333,-2.0871 4.33333,-4.63441 z M 70.71928,100 47.438558,99.333335 47.073105,52.96208 46.707651,6.590823 49.981007,5.0993822 c 5.359378,-2.4418958 7.425966,0.4281551 7.260834,10.0837518 -0.425969,24.907275 0.480261,69.955197 1.438481,71.505629 0.836882,1.354101 6.20153,1.915414 21.550303,2.254848 11.239824,0.248565 22.686045,0.803582 25.436045,1.233372 l 5,0.781434 0.10842,-23.812541 c 0.0596,-13.096898 0.0459,-30.712542 -0.0306,-39.145876 -0.0926,-10.215824 0.438,-16.440657 1.58989,-18.6511504 1.70951,-3.2805995 1.90055,-3.3133196 17.0306,-2.9168656 38.6243,1.012076 52.23114,1.5730523 53.23722,2.1948363 2.02496,1.2514944 2.86387,14.8051627 2.85562,46.1363497 -0.008,31.659139 -0.78818,38.970668 -4.22038,39.568494 -5.00537,0.871847 -5.23869,-0.828241 -5.328,-38.820707 -0.064,-27.204483 -0.50458,-37.149043 -1.66486,-37.573954 -0.86786,-0.317817 -13.27791,-0.733659 -27.57791,-0.924092 l -26,-0.346244 0.19521,8 c 1.3705,56.162933 1.36698,71.407349 -0.0169,73.136932 -1.9103,2.387551 -18.32823,3.106951 -50.1257,2.196401 z"
       id="path519" />
  </g>
</svg>
