<?xml version="1.0" encoding="UTF-8" standalone="no"?>
<!-- Created with Inkscape (http://www.inkscape.org/) -->

<svg
   version="1.1"
   id="svg183"
   width="216"
   height="194.66667"
   viewBox="0 0 216 194.66667"
   xmlns="http://www.w3.org/2000/svg"
   xmlns:svg="http://www.w3.org/2000/svg">
  <defs
     id="defs187" />
  <g
     id="g189">
    <path
       style="fill:#000000;stroke-width:1.33333"
       d="m 71.318667,186.72955 c -7.341399,-1.27956 -15.441399,-2.95555 -18,-3.72441 C 18.734963,172.61264 4.8772261,166.473 4.2712884,161.27482 c -0.3456512,-2.96526 0.5766679,-3.83667 7.3333336,-6.92856 4.250791,-1.94519 9.970354,-4.21263 12.710141,-5.03876 2.739785,-0.82612 5.325196,-2.05827 5.745356,-2.73811 0.42016,-0.67983 2.75308,-1.23605 5.184268,-1.23605 2.431189,0 7.045778,-0.95618 10.254644,-2.12482 3.208866,-1.16865 9.134302,-2.62313 13.167636,-3.23217 41.714833,-6.29904 69.686453,-7.09572 91.519893,-2.60663 7.23072,1.4867 14.94677,3.2592 17.14677,3.93891 38.08859,11.76783 46,15.5558 46,22.02471 0,1.60601 -1.05,3.83965 -2.33333,4.96362 -2.87087,2.51438 -15.90033,7.15154 -27.21544,9.6859 -4.64817,1.0411 -12.05123,2.77556 -16.45123,3.85434 -7.51397,1.84227 -12.5526,2.69168 -36.25684,6.11226 -14.36883,2.07345 -44.377077,1.46085 -59.757823,-1.21991 z m 62.768123,-10.0446 c 8.80394,-1.08995 23.18602,-3.52891 31.96018,-5.41989 8.77416,-1.89099 17.75303,-3.7401 19.95303,-4.10914 5.32329,-0.89293 10,-3.26248 10,-5.06669 0,-3.20213 -17.40477,-8.38367 -38.66667,-11.51136 -4.76666,-0.70119 -9.40289,-1.54395 -10.30273,-1.87279 -0.89983,-0.32884 -8.99983,-1.2296 -17.99999,-2.00166 -17.39905,-1.49258 -45.065623,0.37024 -66.363943,4.46833 -5.5,1.05828 -15.4,2.94383 -22,4.19011 -6.6,1.24628 -13.35,2.78684 -15,3.42346 -3.568336,1.3768 -3.951682,4.61022 -0.666667,5.62316 11.44564,3.52932 28.086203,7.5898 36.196121,8.83224 5.424534,0.83104 10.459472,1.87976 11.188751,2.33048 1.781904,1.10128 20.29396,2.66754 34.321608,2.90386 6.25523,0.10533 18.57637,-0.70016 27.38031,-1.79011 z M 95.333333,88.664488 C 93.133333,87.65709 89.833333,86.519271 88,86.136001 80.102921,84.485069 72.67262,77.984741 67.558887,68.253291 59.657221,53.216393 59.38416,39.454257 66.707292,25.333334 72.268632,14.60961 96.355984,2.8248078 109.33333,4.4784282 c 21.73985,2.7701691 35.41819,14.9290868 38.70303,34.4037898 1.41896,8.412589 1.33205,10.560834 -0.68929,17.038695 -1.27214,4.076832 -2.76291,8.012421 -3.31284,8.745755 -0.54992,0.733333 -1.3742,2.904353 -1.83174,4.824489 -1.16965,4.908791 -10.86453,14.17384 -16.66594,15.927063 -7.8704,2.378482 -20.65625,5.15785 -23.53655,5.116336 -1.46667,-0.02113 -4.466667,-0.862668 -6.666667,-1.870068 z m 16.332787,-9.66284 c 0.56921,-1.707635 -5.99188,-6.453664 -7.22168,-5.223869 -0.44311,0.443117 0.21385,2.361645 1.45993,4.263396 2.24423,3.425134 4.79828,3.850889 5.76175,0.960473 z m 13.39771,-6.552196 c 0.28406,-1.913225 -2.56371,-5.297302 -10,-11.883227 C 109.34539,55.501705 104.13001,50.452454 103.4741,49.34567 101.66622,46.295053 86.538181,32.122567 82,29.227967 c -4.999853,-3.189071 -6,-3.201088 -6,-0.07209 0,2.854301 45.09731,47.141247 47.27522,46.425723 0.7653,-0.251428 1.57017,-1.660894 1.78861,-3.132149 z M 84.539984,70.456837 c -4.447969,-5.037264 -8.638833,-9.123503 -9.357107,-9.123503 -1.800061,0 1.435406,6.327391 4.5987,8.993378 4.74957,4.00288 8.262936,4.098959 4.758407,0.13012 z m 18.126686,0.519342 c 0,-2.634262 -26.443611,-29.642845 -29.02277,-29.642845 -4.067952,0 -0.664915,5.173105 11.895877,18.083439 13.295959,13.665958 17.126893,16.251556 17.126893,11.559406 z m 32,-8.210631 c 0,-2.602644 -36.875191,-38.940834 -42.920594,-42.295557 -6.233169,-3.458919 -6.873557,-1.324131 -1.412743,4.709496 6.707484,7.411067 7.628636,8.333798 13.666667,13.690094 3.3,2.927406 10.87669,10.079328 16.83709,15.893156 11.16554,10.89098 13.82958,12.432587 13.82958,8.002811 z m 4,-13.91942 c 0,-2.317669 -33.27527,-35.512794 -35.59854,-35.512794 -4.684531,0 -0.37176,6.216377 11.61891,16.747337 2.55546,2.24437 8.07216,7.79437 12.25934,12.333334 7.28619,7.898357 11.72029,10.331797 11.72029,6.432123 z M 136,29.389477 c 0,-0.702457 -2.48151,-3.852457 -5.51445,-7.000001 -3.69289,-3.832421 -5.72495,-5.132045 -6.1517,-3.93438 -0.35049,0.983636 1.65279,4.133636 4.45172,7 C 133.85532,30.646998 136,31.816595 136,29.389477 Z"
       id="path658" />
  </g>
</svg>
