<?xml version="1.0" encoding="UTF-8" standalone="no"?>
<!-- Created with Inkscape (http://www.inkscape.org/) -->

<svg
   version="1.1"
   id="svg173"
   width="88"
   height="202.66667"
   viewBox="0 0 88 202.66667"
   xmlns="http://www.w3.org/2000/svg"
   xmlns:svg="http://www.w3.org/2000/svg">
  <defs
     id="defs177" />
  <g
     id="g179">
    <path
       style="fill:#000000;stroke-width:1.33333"
       d="m 15.757185,197.10703 c -1.922321,-1.52024 -3.038938,-7.05877 -2.558941,-12.6926 0.389507,-4.57173 19.487576,-21.74776 24.181393,-21.74776 0.707867,0 1.28703,-3.6 1.28703,-8 0,-7.65393 -1.81937,-11.63687 -6.166667,-13.5 -0.641667,-0.275 -2.886707,-2.8018 -4.988979,-5.61509 -2.544642,-3.4053 -6.667257,-6.43191 -12.333333,-9.05448 -8.4043864,-3.89001 -9.6026828,-5.37507 -7.2875937,-9.03159 0.8870433,-1.40102 2.9314207,-1.6607 8.1802227,-1.03905 5.586504,0.66163 8.538302,2.03918 14.637664,6.83111 l 7.640035,6.00235 0.809241,-4.0462 c 1.034035,-5.17018 -1.98949,-12.49907 -6.04438,-14.65133 -1.712082,-0.90874 -3.8993,-2.76046 -4.860482,-4.11494 -2.244566,-3.16298 -7.591815,-5.85075 -13.919062,-6.996335 -4.150644,-0.7515 -4.9999997,-1.453287 -4.9999997,-4.131285 0,-3.111116 3.2459977,-5.976818 5.9999997,-5.297049 0.733334,0.181008 5.064327,1.389173 9.62443,2.684811 9.147761,2.599104 12.250861,1.635964 12.400145,-3.848759 0.0428,-1.572357 0.204776,-5.258832 0.359952,-8.192165 C 37.873037,77.733335 37.488415,63.185956 36.863143,48.339161 35.860789,24.538719 35.415529,20.949923 33.099703,18.005827 31.378459,15.817619 29.143912,14.666667 26.616805,14.666667 22.210687,14.666667 20,17.71651 20,23.795148 20,27.375662 19.486009,27.852444 14.766485,28.649803 8.6522699,29.682792 4,27.700648 4,24.062638 4,20.051207 10.53746,8.1461341 13.978299,5.8916104 c 1.731666,-1.1346317 6.409866,-2.3995707 10.396,-2.8109761 6.273665,-0.6474995 8.08538,-0.256988 13.483014,2.9062367 10.006907,5.864437 10.2815,7.225527 10.358935,51.346463 0.04737,26.994815 0.508404,38.283698 1.591889,38.979584 2.726074,1.750866 6.761906,1.08243 12.869139,-2.131456 3.294164,-1.733531 8.193087,-3.552033 10.886492,-4.041114 4.172787,-0.757716 5.023653,-0.490505 5.752729,1.806608 1.181075,3.721236 0.252503,4.792831 -7.548352,8.710974 -9.28648,4.66434 -21.592496,17.02786 -20.469728,20.56539 1.172027,3.69274 5.203696,4.60834 9.807915,2.2274 10.080844,-5.213 20.570471,-7.46437 22.234376,-4.77212 1.863661,3.01547 -1.230767,6.67205 -9.063631,10.7102 -10.990594,5.66608 -20.910726,13.27142 -21.643002,16.59275 -0.325604,1.47681 -0.751472,5.04599 -0.946374,7.93148 -0.384148,5.68725 -1.363029,4.79388 12.978966,11.84513 7.642629,3.75751 12.260248,8.4787 16.231408,16.59546 2.814009,5.75162 3.205598,7.69162 2.060045,10.20584 -1.855591,4.07257 -4.577199,4.46918 -37.624787,5.48286 -21.72452,0.66636 -27.79356,0.47444 -29.576148,-0.93529 z m 53.818676,-10.14956 c 2.764638,-2.76463 -0.96602,-7.93685 -8.466048,-11.7374 -6.075285,-3.07857 -8.023374,-3.43479 -14.870764,-2.71909 -11.978921,1.25205 -23.706937,9.88841 -20.491808,15.0899 1.084963,1.75528 42.031698,1.16352 43.82862,-0.63341 z"
       id="path797" />
  </g>
</svg>
