<?xml version="1.0" encoding="UTF-8" standalone="no"?>
<!-- Created with Inkscape (http://www.inkscape.org/) -->

<svg
   version="1.1"
   id="svg39"
   width="229.33333"
   height="234.66667"
   viewBox="0 0 229.33333 234.66667"
   xmlns="http://www.w3.org/2000/svg"
   xmlns:svg="http://www.w3.org/2000/svg">
  <defs
     id="defs43" />
  <g
     id="g45">
    <path
       style="fill:#000000;stroke-width:1.33333"
       d="m 114.56491,223.22291 c -3.66667,-0.49586 -16.631784,-0.96578 -28.811364,-1.04426 -12.17958,-0.0784 -23.12958,-0.52062 -24.33333,-0.98254 -1.58335,-0.60758 -2.18865,-2.50933 -2.18865,-6.87637 v -6.03649 l -9,0.64604 c -9.7611,0.70066 -18.01613,4.13489 -25.37973,10.55837 -10.05286,8.7694 -19.1382204,0.22553 -9.49594,-8.92999 6.54583,-6.21537 10.31438,-14.96312 11.06139,-25.67625 0.70987,-10.18048 2.44758,-14.90653 5.48095,-14.90653 2.84105,0 4.66666,4.39934 4.66666,11.24568 0,3.34821 0.62069,6.08765 1.37932,6.08765 0.75862,0 5.51176,-4.13245 10.56255,-9.18324 6.2835,-6.28351 9.63479,-10.80947 10.61325,-14.33333 0.87603,-3.15496 1.4309,-21.1625 1.43231,-46.48343 l 0.002,-41.33333 -6.2476,-5.055833 c -6.20749,-5.023378 -6.30489,-5.050185 -15.17403,-4.176244 -7.78711,0.767323 -9.0993,0.57068 -10.28087,-1.540665 -0.83977,-1.500588 -0.90209,-3.610032 -0.16401,-5.551349 1.14899,-3.022054 0.98125,-3.120267 -4.81637,-2.820159 -3.30375,0.171016 -6.65933,-0.341568 -7.45683,-1.139074 -1.71018,-1.710205 -1.98638,-24.143315 -0.31665,-25.720591 0.62334,-0.58882 2.32877,-1.286157 3.78985,-1.549638 1.46108,-0.263483 3.46226,-2.160191 4.44706,-4.214908 0.9848,-2.054718 2.64701,-4.064506 3.6938,-4.466196 2.90583,-1.115071 5.86929,2.115298 5.86929,6.397916 0,4.887157 2.35138,5.033722 2.91144,0.181474 0.44438,-3.850102 3.13008,-5.171564 6.33051,-3.114844 1.35985,0.873898 1.9813,4.338066 2.16145,12.048666 0.13906,5.952165 0.6223,11.191591 1.07388,11.643168 0.45158,0.451577 1.70657,-1.298303 2.78888,-3.888623 4.19489,-10.039783 9.35987,-6.161428 7.9354,5.958642 -0.631,5.368794 -0.36145,7.492349 1.10558,8.709874 1.63601,1.357767 2.20075,0.445039 3.60379,-5.824406 1.9323,-8.634415 6.84138,-16.459783 14.81458,-23.615289 9.1543,-8.215486 20.25471,-11.446158 39.641144,-11.537188 19.93432,-0.0936 32.32299,5.676151 43.04544,20.047487 4.74037,6.353579 5.25455,6.70366 5.25455,3.577636 0,-5.778748 1.35733,-7.683191 5.47598,-7.683191 3.20588,0 3.85735,-0.552368 3.85735,-3.270596 0,-4.28927 2.67748,-10.062737 4.66667,-10.062737 1.69306,0 4.66666,5.562377 4.66666,8.729404 0,3.993361 2.147,1.725544 3.86051,-4.077741 0.97681,-3.308252 2.28324,-6.328476 2.90316,-6.71161 0.61992,-0.383133 4.09972,0.27568 7.73289,1.46403 4.9002,1.602773 6.80982,2.973628 7.39606,5.309413 0.43465,1.731828 2.43664,3.937851 4.44884,4.902273 4.74565,2.274535 5.18612,8.167281 0.65854,8.810299 -2.3488,0.333582 -3,1.293239 -3,4.420988 0,7.193971 -2.00762,9.152944 -9.38024,9.152944 -6.17218,0 -6.61976,0.225372 -6.61976,3.333334 0,1.833333 -1.27392,4.607254 -2.83093,6.164268 -2.44007,2.440067 -3.81387,2.715411 -9.95,1.994229 -9.81145,-1.153142 -10.70304,0.630848 -8.61316,17.234197 0.91764,7.29033 1.44432,27.01412 1.28259,48.03204 -0.25884,33.63825 -0.13107,35.7669 2.25188,37.50742 1.38946,1.01488 4.92629,4.07855 7.85962,6.80815 2.93334,2.7296 7.50882,6.57837 10.16772,8.55284 l 4.8344,3.58993 0.8765,-7.74717 c 1.06781,-9.43825 3.18552,-12.82423 7.21988,-11.54377 3.36178,1.06698 3.81093,2.72797 4.94576,18.29004 0.73758,10.11472 1.40802,12.42714 5.39896,18.6217 4.74028,7.35767 5.91284,14.05944 2.67713,15.30111 -1.78964,0.68675 -4.22535,-0.39535 -13.58236,-6.03411 -5.70665,-3.43896 -17.12317,-5.74045 -25.85883,-5.21294 -6.11922,0.3695 -7.38613,0.87976 -7.71858,3.10873 -1.82248,12.21915 -1.87843,12.24709 -24.84903,12.41769 -10.68349,0.0793 -20.47912,0.6515 -21.76804,1.27143 -1.28893,0.61995 -5.34351,0.72145 -9.01017,0.22557 z m 43.47402,-17.24802 c 0.50976,-1.83334 0.98378,-10.83334 1.05336,-20 l 0.12654,-16.66667 -4.98022,-5.33333 c -2.7391,-2.93334 -7.08624,-7.78779 -9.66029,-10.78767 -2.57404,-2.99989 -9.48008,-9.57011 -15.34675,-14.60048 -5.86666,-5.03038 -11.14648,-9.92593 -11.73292,-10.879 -0.58644,-0.95307 -2.17962,-1.73285 -3.5404,-1.73285 -3.14085,0 -41.025354,39.91392 -41.958934,44.2066 -0.37401,1.7197 -0.84975,11.06429 -1.05721,20.76577 l -0.37721,17.63903 24.66667,0.36097 c 13.566674,0.19852 33.039794,0.36096 43.273604,0.36096 h 18.60694 z M 59.755586,195.86583 c 1.65788,-4.32037 0.88822,-9.89094 -1.36658,-9.89094 -2.25766,0 -11.15744,8.58404 -11.15744,10.7616 0,0.68112 2.63581,1.2384 5.85735,1.2384 4.11115,0 6.09862,-0.62875 6.66667,-2.10906 z m 127.475984,-0.48892 c 0,-1.32136 -3.07321,-4.67422 -10.42958,-11.37861 -5.29115,-4.8222 -6.85206,-3.39132 -6.88334,6.30992 l -0.0204,6.33333 h 8.66667 c 4.76666,0 8.66666,-0.56909 8.66666,-1.26464 z M 89.564896,134.68405 c 9.55198,-9.31266 15.000014,-15.62469 15.000014,-17.37889 0,-2.97489 -8.677254,-11.92661 -22.525014,-23.23749 -6.53104,-5.33458 -8.80339,-6.54959 -9.71523,-5.19468 -0.65463,0.97271 -1.11798,10.16857 -1.02966,20.43523 0.0883,10.26667 -0.15301,24.25958 -0.53629,31.09537 -0.82297,14.6774 -2.7007,15.24848 18.80618,-5.71954 z m 69.181854,-22.0425 c -0.0147,-19.06666 -0.42711,-34.66666 -0.91664,-34.66666 -0.81403,0 -19.32938,19.56398 -31.0688,32.82839 l -4.8633,5.49506 5.00012,5.47237 c 8.50304,9.30616 27.3668,25.53751 29.67919,25.53751 1.98348,0 2.19343,-3.35487 2.16943,-34.66667 z M 128.2658,92.97489 c 27.95148,-28.352085 29.63244,-30.400918 29.63244,-36.117298 0,-3.015932 -0.84511,-5.924222 -2,-6.882703 -1.1,-0.912919 -2,-2.664617 -2,-3.892663 0,-3.495478 -9.2144,-11.523528 -17.91084,-15.604809 -7.19008,-3.374347 -9.31597,-3.718215 -23.33333,-3.774231 -13.699824,-0.05475 -16.092704,0.290275 -21.422504,3.088837 -12.79568,6.718734 -19.14435,16.878545 -19.0556,30.494789 0.0647,9.921604 1.35635,12.188181 12.45832,21.861348 4.51971,3.93803 12.20049,10.91006 17.068414,15.4934 4.86791,4.58332 9.95235,8.33332 11.29876,8.33332 1.34642,0 8.21537,-5.84999 15.26434,-12.99999 z"
       id="path147" />
  </g>
</svg>
