<?xml version="1.0" encoding="UTF-8" standalone="no"?>
<!-- Created with Inkscape (http://www.inkscape.org/) -->

<svg
   version="1.1"
   id="svg184"
   width="230.66667"
   height="225.33333"
   viewBox="0 0 230.66667 225.33333"
   xmlns="http://www.w3.org/2000/svg"
   xmlns:svg="http://www.w3.org/2000/svg">
  <defs
     id="defs188" />
  <g
     id="g190">
    <path
       style="fill:#000000;stroke-width:1.33333"
       d="m 182.93722,212.57064 c -14.28007,-3.32612 -29.54167,-20.46632 -31.65704,-35.55383 -0.33547,-2.39259 -0.96676,-6.82687 -1.40291,-9.85399 -0.73827,-5.12413 -0.46867,-5.7512 3.90789,-9.08936 4.40188,-3.35748 5.40624,-3.55229 15.79119,-3.0629 6.8172,0.32125 13.14527,1.45126 16.42365,2.93278 2.93334,1.3256 7.80971,3.54851 10.83638,4.93982 7.02621,3.22981 14.9271,10.89178 17.44465,16.91712 2.62325,6.27832 2.45215,23.54884 -0.27453,27.71028 -1.11739,1.70533 -3.94559,4.09037 -6.28491,5.30008 -3.52709,1.82393 -4.99717,1.93046 -8.61017,0.62398 -2.69866,-0.97584 -5.26168,-1.12701 -6.73416,-0.39718 -1.45832,0.72281 -5.10736,0.54237 -9.44004,-0.4668 z m 17.41074,-8.05596 c 1.29138,-0.38702 3.24138,-2.43135 4.33334,-4.54296 5.71013,-11.04219 -1.89182,-24.39959 -18.79356,-33.02223 -6.6367,-3.38577 -22.9578,-5.23112 -27.02324,-3.05537 -9.22798,4.93866 3.79588,30.51614 19.74029,38.76788 4.58224,2.37145 16.59636,3.39514 21.74317,1.85268 z m -81.09785,-0.64935 c -0.499,-0.8074 -1.12587,-8.99885 -1.39304,-18.20323 -0.26716,-9.20438 -0.74911,-16.99858 -1.07098,-17.32046 -0.32188,-0.32188 0.26308,-3.38042 1.29991,-6.79676 2.47655,-8.16024 2.66766,-38.70482 0.24734,-39.53044 -0.91667,-0.3127 -13.06667,-0.81279 -27.000005,-1.11133 C 71.823469,120.4851 64.813201,119.85916 60.837169,118.18016 57.543367,116.78925 51.906251,116 45.265741,116 34.99651,116 31.829499,114.82183 30.3758,110.46073 c -0.351328,-1.05398 -1.948125,-0.53765 -4.754981,1.53755 -3.604423,2.66486 -4.720833,2.89898 -7.590085,1.59166 -4.191572,-1.90981 -4.518315,-7.2985 -0.642911,-10.60299 1.496636,-1.27616 3.639473,-5.471187 4.761861,-9.322291 1.952047,-6.697806 1.920716,-7.154548 -0.721156,-10.513146 -1.519024,-1.931125 -2.761861,-5.272729 -2.761861,-7.425785 V 71.811082 L 29,71.909588 c 5.683334,0.05417 13.933334,0.117107 18.333334,0.139832 13.671767,0.07063 15.421475,1.805408 9.235629,9.156867 -3.763366,4.472509 -3.549072,7.556766 0.79841,11.491184 1.829485,1.65566 2.632628,4.100082 2.632628,8.012589 0,7.10069 2.267521,9.20358 8.242389,7.64398 2.934256,-0.76592 5.995931,-0.5963 9.090944,0.50363 4.912091,1.7457 32.240076,2.17292 39.333336,0.6149 3.29387,-0.7235 3.92828,-1.46062 3.59375,-4.17559 -0.22344,-1.81334 -0.58287,-15.584537 -0.79873,-30.602662 l -0.39246,-27.30568 -4.53462,-0.982141 c -2.49403,-0.540179 -5.2619,-0.730167 -6.15081,-0.422196 -0.88892,0.307969 -5.98892,-0.36854 -11.333337,-1.503354 -6.38446,-1.355653 -12.78689,-1.790333 -18.667694,-1.267409 -11.049039,0.982488 -11.716101,0.126404 -11.716101,-15.036033 0,-9.803952 0.235766,-10.739301 2.921873,-11.591839 2.208995,-0.701106 3.675233,-0.05153 6.009659,2.662398 2.751292,3.198568 2.868781,3.808765 1.078126,5.599421 -2.208968,2.208967 -2.638078,5.273419 -0.889734,6.353955 1.102941,0.681654 18.513667,2.892878 31.546738,4.006549 3.66667,0.313314 7.62054,0.946997 8.78639,1.408182 3.40142,1.345538 5.40498,-2.498889 4.95757,-9.512579 L 120.66667,20.666666 114,20.792013 c -3.66667,0.06895 -10.22236,0.804687 -14.568212,1.634992 -8.236496,1.573641 -11.431787,0.654075 -11.431787,-3.289933 0,-2.26394 4.048775,-3.916351 12.788499,-5.21932 3.59966,-0.536659 7.78623,-1.785543 9.3035,-2.775299 1.51727,-0.989756 6.41072,-2.1812717 10.87433,-2.6478118 8.05054,-0.841448 8.13272,-0.8152697 10.24133,3.2623388 1.5333,2.965061 2.11262,7.75186 2.07884,17.176806 -0.0427,11.910371 -2.4799,28.70406 -4.4519,30.676057 -0.43959,0.439591 0.3924,2.727391 1.84887,5.084001 2.30848,3.73521 2.47722,5.185863 1.31566,11.310771 -0.73285,3.864312 -1.33246,12.944129 -1.33246,20.17737 V 109.33333 H 150.5 c 22.73399,0 27.73554,-0.70306 29.58495,-4.15873 2.34003,-4.37238 7.08935,-30.876666 7.25864,-40.507934 0.26573,-15.117411 0.10427,-14.941365 13.43188,-14.647232 8.52931,0.188237 11.94991,0.801172 13.58259,2.433857 2.30165,2.301654 2.32653,2.509908 4.2543,35.609549 0.66403,11.401231 1.34315,21.30123 1.50916,22 0.61291,2.57982 -1.8885,6.09293 -5.766,8.09806 -3.8406,1.98605 -18.63425,2.23895 -75.68885,1.2939 l -7.33333,-0.12147 -8.2e-4,41.33333 c -4.5e-4,22.73334 -0.48586,42.08334 -1.07869,43 -1.33035,2.05707 -9.7611,2.20928 -11.00372,0.19867 z m 85.6174,-94.21908 c 2.15949,-1.37886 3.04401,-46.26513 0.95295,-48.357907 -0.8321,-0.832764 -2.91526,-1.313319 -4.62926,-1.067897 -2.91656,0.417613 -3.2203,1.343761 -4.73784,14.44622 -0.89181,7.699999 -2.25865,16.096038 -3.03742,18.657863 C 192.63718,95.886355 192,100.4965 192,103.5693 c 0,5.07126 0.33842,5.63817 3.66667,6.14236 6.29251,0.95323 7.62027,0.94379 9.20084,-0.0654 z M 44.272674,105.11538 c 3.163899,-1.2184 3.503684,-1.90318 2.771424,-5.585349 -0.45902,-2.308184 -1.900628,-5.954307 -3.203573,-8.102495 -1.302944,-2.148187 -2.048431,-4.424471 -1.656638,-5.058407 0.963912,-1.55964 -2.059657,-5.035797 -4.380148,-5.035797 -1.028357,0 -2.485961,1.65 -3.239119,3.666667 -0.753157,2.016666 -2.484849,6.066666 -3.848204,9 -1.585256,3.410768 -2.222045,6.927651 -1.766498,9.756081 0.700882,4.35169 0.800725,4.40929 6.214539,3.58534 3.026216,-0.46057 7.124913,-1.46229 9.108217,-2.22604 z M 32,199.00358 c -20.135076,-0.47425 -20.493706,-0.60717 -19.600722,-7.26486 1.237804,-9.22852 7.673766,-19.86112 14.936392,-24.67584 12.282679,-8.14275 29.186813,-8.70635 41.320039,-1.37766 7.046319,4.25611 8.168348,5.37064 13.422334,13.33255 4.040838,6.12349 5.688224,15.74935 3.064589,17.90672 C 83.215357,198.50925 56.081855,199.5708 32,199.00358 Z m 43.951528,-10.27852 c 1.822442,-2.1959 1.395494,-3.13753 -5.009316,-11.04794 -10.724782,-13.24592 -33.801574,-10.86992 -42.81598,4.40836 -1.536094,2.60349 -2.792898,5.26796 -2.792898,5.92105 0,1.44341 8.415936,2.08816 31.503407,2.41349 13.921012,0.19616 17.833205,-0.15074 19.114787,-1.69496 z m 67.708992,-30.41017 c -0.88357,-2.65071 0.57243,-7.64823 2.22826,-7.64823 2.0073,0 4.77789,2.73662 4.77789,4.71931 0,2.25513 -6.34637,4.90823 -7.00615,2.92892 z"
       id="path808" />
  </g>
</svg>
