<?xml version="1.0" encoding="UTF-8" standalone="no"?>
<!-- Created with Inkscape (http://www.inkscape.org/) -->

<svg
   version="1.1"
   id="svg83"
   width="166.66667"
   height="196"
   viewBox="0 0 166.66667 196"
   xmlns="http://www.w3.org/2000/svg"
   xmlns:svg="http://www.w3.org/2000/svg">
  <defs
     id="defs87" />
  <g
     id="g89">
    <path
       style="fill:#000000;stroke-width:1.33333"
       d="m 49.333334,189.38073 c -9.860748,-2.59557 -19.360501,-7.11018 -20.321061,-9.65726 -0.617051,-1.63622 3.160126,-16.02092 5.70421,-21.72347 2.063523,-4.62537 6.844282,-18.55395 7.322321,-21.33333 0.252257,-1.46667 1.70853,-5.96667 3.236162,-10 1.527632,-4.03334 2.915704,-10.03334 3.084607,-13.33334 l 0.307095,-6 h -8.000001 c -7.644444,0 -8,-0.14814 -8,-3.33333 0,-3.25855 0.284168,-3.3535 12.666667,-4.232296 6.966667,-0.494429 21.666667,-1.206209 32.666668,-1.581735 11,-0.375525 23.445328,-0.990272 27.656288,-1.366105 6.54523,-0.584169 7.8509,-0.319695 8.99736,1.822473 1.68108,3.141123 -1.44025,6.690993 -5.88325,6.690993 -9.129626,0 -13.456813,4.41491 -10.14575,10.35143 0.710223,1.27338 2.18021,5.01524 3.26663,8.31524 1.08642,3.3 3.88327,11.1 6.21522,17.33333 10.03073,26.8123 13.0155,36.57019 11.85147,38.7452 -1.50392,2.81011 -18.11043,8.78632 -29.291302,10.54112 -12.503665,1.9624 -31.313187,1.39862 -41.333334,-1.23892 z M 80.823727,181 c -1.219507,-6.26916 -6.59078,-18.28393 -8.185848,-18.31057 -1.50179,-0.0251 -8.684216,20.81978 -7.560855,21.94314 0.385416,0.38543 4.275755,0.70076 8.6452,0.70076 h 7.944444 z m -21.950651,-3.6824 c 2.77852,-5.85689 5.991823,-16.37699 7.122231,-23.3176 0.477748,-2.93333 1.744728,-6.69348 2.81551,-8.35588 2.63782,-4.09525 6.428282,-2.03047 8.589501,4.67897 0.887633,2.75564 2.048513,5.61024 2.579733,6.34358 C 80.511271,157.4 82.645063,162.5 84.721812,168 c 4.530038,11.99723 5.440166,13.33333 9.082349,13.33333 4.371701,0 16.862509,-5.6187 16.862509,-7.58522 0,-0.96866 -1.5,-4.87054 -3.33333,-8.67086 C 105.5,161.27695 104,157.39439 104,156.44936 c 0,-0.94504 -1.19776,-3.68275 -2.66168,-6.0838 -1.463926,-2.40105 -2.663926,-5.78387 -2.666667,-7.51736 -0.0028,-1.73348 -1.137976,-5.33348 -2.522743,-8 -2.360293,-4.54498 -4.458855,-11.10988 -6.025095,-18.8482 -1.431116,-7.07071 -3.422613,-8.1866 -15.006279,-8.40839 -7.042627,-0.13484 -11.478988,0.38185 -12.817653,1.49284 -1.125984,0.93449 -3.964871,6.62277 -6.308639,12.64064 -2.343767,6.01787 -5.062743,12.74158 -6.04217,14.94158 -0.979426,2.2 -2.752874,7.3 -3.940996,11.33333 -1.188121,4.03333 -3.340925,9.90857 -4.784009,13.05609 -1.443086,3.14751 -2.971887,8.26239 -3.397338,11.36639 -0.68302,4.98317 -0.406065,5.83005 2.366528,7.23647 3.019255,1.53152 10.29769,2.76756 14.473409,2.45789 1.1,-0.0816 2.992884,-2.24123 4.206408,-4.79924 z M 68.000001,43.722733 c -3.3,-0.662525 -9,-1.724282 -12.666667,-2.359461 -3.666666,-0.635179 -9.066666,-1.847013 -12,-2.692967 -2.933333,-0.845952 -7.733333,-2.028522 -10.666667,-2.627934 -2.933333,-0.599411 -7.133333,-1.737074 -9.333333,-2.528139 -2.2,-0.791064 -5.608044,-1.756285 -7.573431,-2.144935 C 11.028106,30.4336 7.7622543,27.006013 8.2623776,23.500472 8.5768306,21.29636 10.44433,20.146823 16.666667,18.327217 c 4.4,-1.286697 11.9,-3.512342 16.666667,-4.945877 C 56.5738,6.3919633 78.016722,4.1004065 97.333335,6.5418035 115.17253,8.7964721 131.7183,11.668274 133.60538,12.83744 c 0.95037,0.588821 7.42172,2.301575 14.38077,3.80612 9.75724,2.109515 12.75753,3.27928 13.11039,5.111547 0.69922,3.630769 -3.39255,8.91156 -6.90506,8.91156 -1.6942,0 -3.49157,0.411202 -3.99414,0.913784 -1.34474,1.344724 -10.4841,4.376221 -13.26355,4.399474 -1.31975,0.01107 -4.24565,0.974732 -6.502,2.141535 -2.25635,1.166803 -6.20899,2.382736 -8.78364,2.702073 -2.57466,0.319338 -7.44876,1.254166 -10.83134,2.077396 -7.77289,1.891716 -34.894739,2.412279 -42.816809,0.821804 z M 100,33.308512 c 20.34309,-2.107023 36,-6.072715 36,-9.118325 0,-0.559919 -7.05,-2.475631 -15.66666,-4.257139 -13.29565,-2.748891 -19.39977,-3.238987 -40.333338,-3.238335 -21.623218,6.74e-4 -26.26536,0.398483 -37.623812,3.224178 -14.618279,3.636657 -14.664476,4.666356 -0.376189,8.384752 C 64.816927,34.241541 79.09568,35.473667 100,33.308512 Z"
       id="path936" />
  </g>
</svg>
