<?xml version="1.0" encoding="UTF-8" standalone="no"?>
<!-- Created with Inkscape (http://www.inkscape.org/) -->

<svg
   version="1.1"
   id="svg185"
   width="72"
   height="213.33333"
   viewBox="0 0 72 213.33333"
   xmlns="http://www.w3.org/2000/svg"
   xmlns:svg="http://www.w3.org/2000/svg">
  <defs
     id="defs189" />
  <g
     id="g191">
    <path
       style="fill:#000000;stroke-width:1.33333"
       d="M 24.521044,206.43104 C 23.477976,204.74332 22.711812,183.43568 22.274059,143.94046 21.973604,116.83275 21.125128,113.54861 13.596147,110.35149 1.319044,105.13812 0.79305325,95.999999 12.770074,95.999999 c 3.063541,0 6.204718,-0.7647 6.980395,-1.699334 0.85089,-1.02526 1.680579,-13.586478 2.091635,-31.666666 0.645116,-28.375249 0.864964,-30.415433 4.138129,-38.401797 1.90125,-4.638954 4.18348,-9.648557 5.071626,-11.132451 2.130488,-3.5595775 14.284146,-9.1080999 19.862705,-9.0679423 6.482537,0.046665 14.652011,2.1882057 15.870884,4.1603832 1.94152,3.1414451 -1.358264,4.7491411 -11.289149,5.5002121 -11.420434,0.863725 -14.824864,2.552364 -18.092834,8.974262 -6.27438,12.329808 -7.047157,32.072773 -4.99886,127.711144 C 33.476644,200.43308 32.901817,208 28.027297,208 c -1.395121,0 -2.972936,-0.70603 -3.506253,-1.56896 z"
       id="path213" />
  </g>
</svg>
