<?xml version="1.0" encoding="UTF-8" standalone="no"?>
<!-- Created with Inkscape (http://www.inkscape.org/) -->

<svg
   version="1.1"
   id="svg175"
   width="149.33333"
   height="204"
   viewBox="0 0 149.33333 204"
   xmlns="http://www.w3.org/2000/svg"
   xmlns:svg="http://www.w3.org/2000/svg">
  <defs
     id="defs179" />
  <g
     id="g181">
    <path
       style="fill:#000000;stroke-width:1.33333"
       d="m 26.167325,198.37403 c -3.639175,-1.30424 -3.795681,-1.68494 -3.099942,-7.54048 2.211184,-18.60995 12.161562,-33.20891 26.932616,-39.5149 8.112429,-3.46332 25.335709,-2.97918 32.861739,0.92372 11.478023,5.95236 19.765672,15.84456 23.982002,28.62512 3.14386,9.52966 3.14471,13.35475 0.003,15.03595 -1.36743,0.73183 -17.117431,1.67671 -35.000003,2.09973 -17.88255,0.42303 -34.613744,0.98859 -37.180411,1.2568 -2.566667,0.2682 -6.391371,-0.1304 -8.499341,-0.88594 z m 68.166006,-10.65572 c 3.143468,-0.75899 5.666667,-2.15851 5.666667,-3.14308 0,-6.03164 -17.8249,-24.57674 -26.100793,-27.15538 -14.259012,-4.44288 -36.484365,8.82836 -38.812648,23.1759 -1.44542,8.90708 -2.014634,8.72705 27.200596,8.60288 14.508731,-0.0617 28.929512,-0.72782 32.046178,-1.48032 z M 12.337613,98.915841 C 6.8292508,98.384617 6.8372114,98.424183 6.2515084,68.666667 5.9916991,55.466667 5.4965051,37.30316 5.1510772,28.303317 4.5979982,13.893288 4.8026168,11.686942 6.8652074,9.8203229 9.5594939,7.3820271 11.610771,7.2834647 86.696355,5.9844916 l 50.029695,-0.8655085 2.60279,2.8760493 c 1.46098,1.6143759 2.68997,5.0246266 2.80152,7.7738426 1.60581,39.57413 1.91364,78.713218 0.62533,79.509433 -0.82484,0.509784 -8.83231,1.230128 -17.79437,1.600767 -8.96206,0.370638 -19.77451,1.129249 -24.02766,1.685801 -6.676971,0.873724 -7.906023,0.688616 -8.999998,-1.355493 -1.561844,-2.918332 -1.562805,-4.010611 -0.0057,-6.47182 0.954773,-1.50914 5.522022,-2.018431 20.979578,-2.339422 10.86752,-0.225673 20.46825,-0.673064 21.33497,-0.994201 1.18031,-0.437327 1.39537,-8.718993 0.85684,-32.993912 -0.68957,-31.082793 -0.836,-32.504367 -3.57585,-34.713713 -1.57126,-1.267027 -3.7096,-2.317027 -4.75186,-2.333334 -1.04222,-0.01631 -2.95096,-0.985304 -4.24161,-2.153329 -2.10118,-1.901539 -5.18049,-1.967648 -29.438319,-0.632 -14.900424,0.820424 -34.891679,1.752173 -44.425012,2.070555 -16.860799,0.563093 -17.41102,0.675738 -20.182981,4.132 -1.689487,2.106561 -4.179742,3.553126 -6.116689,3.553126 -6.341871,0 -6.942026,3.163299 -6.513871,34.333334 C 16.069731,74.433333 16.543101,87.633333 16.90509,88 c 0.361989,0.366667 9.626957,0.666667 20.588818,0.666667 15.36955,0 20.187952,0.415192 21.054965,1.814264 1.366249,2.204672 0.305807,6.870617 -1.733859,7.628977 -1.875888,0.697465 -38.685847,1.364465 -44.477368,0.805933 z"
       id="path352" />
  </g>
</svg>
