<?xml version="1.0" encoding="UTF-8" standalone="no"?>
<!-- Created with Inkscape (http://www.inkscape.org/) -->

<svg
   version="1.1"
   id="svg45"
   width="158.66667"
   height="196"
   viewBox="0 0 158.66667 196"
   xmlns="http://www.w3.org/2000/svg"
   xmlns:svg="http://www.w3.org/2000/svg">
  <defs
     id="defs49" />
  <g
     id="g51">
    <path
       style="fill:#000000;stroke-width:1.33333"
       d="m 61.333335,190.50509 c -16.288303,-1.38078 -20.788781,-2.09925 -32.000001,-5.10854 -5.5,-1.4763 -11.321768,-2.69447 -12.937263,-2.70703 -4.546228,-0.0353 -9.2623718,-2.65884 -11.1626165,-6.20948 -2.8721125,-5.36659 -0.5027781,-6.54385 28.7665465,-14.29335 21.177659,-5.6071 30.451027,-7.51612 36.298006,-7.47229 9.178075,0.0688 37.441733,3.47648 43.701993,5.26907 2.93334,0.83994 7.43334,2.01693 10,2.61552 7.07946,1.65106 18.70706,5.05152 24.62,7.20004 9.23238,3.35466 7.65426,7.32081 -4.36822,10.97829 -4.17182,1.26916 -8.15511,2.81345 -8.85178,3.43179 -0.69666,0.61832 -3.28611,1.12422 -5.75432,1.12422 -2.46821,0 -5.51401,0.5493 -6.76845,1.22064 -4.10746,2.19826 -27.300411,5.21923 -38.877228,5.06392 -6.233334,-0.0836 -16.433334,-0.58437 -22.666667,-1.1128 z m 42.000005,-8.42944 c 17.42756,-1.96657 31.31562,-6.04942 28.38095,-8.34352 -1.74116,-1.3611 -12.0314,-4.29162 -27.71429,-7.89265 -9.361262,-2.14948 -39.194536,-1.82672 -53.333332,0.57701 -9.851484,1.67486 -21.579597,5.40702 -23.84145,7.58692 -1.549665,1.49351 -1.021487,2.0024 3.333333,3.21155 2.846131,0.79027 6.864228,1.44019 8.929104,1.44427 2.064878,0.004 4.888889,0.61464 6.275581,1.35677 2.124584,1.13704 23.868735,3.27591 37.970099,3.73493 2.2,0.0716 11.2,-0.68226 20.000005,-1.67528 z M 70.666668,97.34358 c -2.566667,-0.657956 -7.066667,-1.742536 -10,-2.410179 -2.933333,-0.667642 -7.433334,-2.156982 -10,-3.309645 -2.566667,-1.152663 -5.716667,-2.420721 -7,-2.817907 -1.283334,-0.397186 -2.331499,-1.790988 -2.329256,-3.097336 0.0048,-2.811332 8.095521,-29.508088 11.179776,-36.889746 1.182213,-2.829438 2.14948,-6.253375 2.14948,-7.608752 0,-1.355376 1.518061,-5.783142 3.373471,-9.83948 1.855408,-4.056338 3.505408,-9.624119 3.666666,-12.372847 L 62.000001,14 55.333334,13.860237 C 45.13487,13.646432 44.341234,13.479085 43.532638,11.371919 41.747118,6.7189264 45.91169,5.629916 66.283616,5.4226759 77.127628,5.3123616 94.550849,5.07719 105.00188,4.9000721 122.1918,4.6087479 124.07536,4.8036273 124.75461,6.9437552 125.97271,10.781627 124.22689,12 117.50949,12 c -11.26904,0 -11.63574,1.18653 -5.35684,17.333333 2.99424,7.7 6.6538,17.3 8.13235,21.333334 1.47855,4.033333 3.81929,9.876794 5.20164,12.985469 1.38235,3.108673 2.51706,6.408673 2.52158,7.333333 0.005,0.924659 0.79958,3.197514 1.7668,5.050788 5.08638,9.745902 3.74721,11.854743 -10.08555,15.88196 -5.32921,1.551526 -11.49812,3.392367 -13.7087,4.090759 -5.79972,1.832319 -29.829843,2.740475 -35.314102,1.334604 z m 23.281239,-6.592621 c 0.424572,-0.686974 -0.50154,-4.436974 -2.058028,-8.333334 -1.556486,-3.89636 -3.571028,-9.063161 -4.476756,-11.48178 C 85.338948,65.397063 84.069962,66.768488 79.999136,78.94832 76.08344,90.664008 76.68536,92 85.879466,92 c 4.013071,0 7.643868,-0.562068 8.068441,-1.249041 z M 71.132765,84.666667 c 0.649502,-2.2 1.764738,-5.128972 2.478303,-6.508826 0.713564,-1.379854 2.094512,-5.279854 3.068771,-8.666666 3.889892,-13.522411 6.332895,-18.953459 8.346211,-18.554488 2.06597,0.409404 11.357837,20.371856 13.033416,28.00072 2.143814,9.76071 6.939934,11.419549 18.382484,6.357964 6.87895,-3.042888 8.38763,-4.679975 6.46976,-7.020444 C 122.18688,77.390384 120.33601,72.766667 118.79867,68 117.26133,63.233333 115.46416,58.133333 114.80496,56.666667 113.16796,53.024468 106.33205,34.562763 102.70929,24 101.07445,19.233333 98.802649,14.598881 97.660842,13.701219 95.131843,11.712977 76.163196,12.87421 73.753188,15.164811 c -1.497918,1.423702 -2.645741,4.141065 -7.67444,18.168522 -1.183015,3.3 -2.674143,7.2 -3.313615,8.666667 -0.639472,1.466667 -1.883781,4.766667 -2.765132,7.333333 C 59.118651,51.9 57.86864,55.2 57.222199,56.666667 c -3.017095,6.845281 -7.923361,24.865494 -7.122707,26.16098 1.58183,2.559454 11.771149,6.522773 15.876436,6.175424 3.13758,-0.265471 4.224928,-1.179827 5.156837,-4.336404 z"
       id="path153" />
  </g>
</svg>
