<?xml version="1.0" encoding="UTF-8" standalone="no"?>
<!-- Created with Inkscape (http://www.inkscape.org/) -->

<svg
   version="1.1"
   id="svg75"
   width="204"
   height="217.33333"
   viewBox="0 0 204 217.33333"
   xmlns="http://www.w3.org/2000/svg"
   xmlns:svg="http://www.w3.org/2000/svg">
  <defs
     id="defs79" />
  <g
     id="g81">
    <path
       style="fill:#000000;stroke-width:1.33333"
       d="M 164.88889,211.1111 C 164.4,210.62222 164,208.79242 164,207.04489 c 0,-4.24711 -3.213,-10.23229 -7.15937,-13.33651 -1.76696,-1.38989 -3.43182,-3.66512 -3.6997,-5.05605 -0.26786,-1.39093 -2.72585,-3.70796 -5.46218,-5.14893 -2.73635,-1.44098 -5.29379,-3.62383 -5.68322,-4.85079 -0.38941,-1.22696 -2.13488,-3.57129 -3.8788,-5.20961 -2.7791,-2.61084 -3.77505,-2.81195 -8.0627,-1.62807 -2.78167,0.76805 -7.87464,0.92649 -11.80632,0.36728 -3.8029,-0.54091 -17.41438,-0.86797 -30.24771,-0.72683 -12.833333,0.14115 -35.999753,0.4085 -51.480932,0.5941 -15.48118,0.18561 -28.83118,-0.085 -29.6666672,-0.60136 -0.899894,-0.55616 -1.5190675,-4.70204 -1.5190675,-10.17142 0,-7.74382 0.7374952,-10.7949 4.5735972,-18.92132 C 19.137503,122.80131 19.311511,122.2567 19.179705,113.33333 19.046813,104.33648 18.136692,99.520297 13.384575,82.666665 9.6397665,69.385511 6.6666667,46.465431 6.6666667,30.877294 c 0,-11.639893 0.2807577,-12.999742 3.5961823,-17.418106 4.931096,-6.5715182 5.313383,-6.7489676 14.589439,-6.7721044 5.900399,-0.014717 8.939559,0.6309919 10.886207,2.3129163 3.972768,3.4325121 7.190696,16.5687781 7.059572,28.8186811 -0.156832,14.651561 -4.815214,45.825887 -8.970516,60.031529 -3.877567,13.25615 -3.78243,18.99932 0.502973,30.36281 1.476867,3.91617 3.412399,9.22031 4.301184,11.78698 0.888784,2.56666 2.777579,7.66666 4.197319,11.33333 1.41974,3.66667 2.320184,7.71667 2.000986,9 -0.53691,2.15864 1.082356,2.31655 21.628147,2.10919 13.815184,-0.13943 19.189473,-0.51736 14.220224,-1 -6.366617,-0.61835 -8.083715,-1.27828 -8.458373,-3.25082 -0.652962,-3.43774 1.610917,-5.28794 6.306878,-5.15442 4.327467,0.12306 7.471687,-3.87116 11.740132,-14.91386 3.634678,-9.4031 1.457958,-24.24907 -6.407878,-43.703929 -1.389195,-3.435947 -2.52581,-6.939136 -2.52581,-7.784866 0,-0.845729 -2.681413,-4.602946 -5.958694,-8.349372 -6.842266,-7.821737 -10.834515,-18.419466 -9.499688,-25.217647 0.475269,-2.420517 1.217298,-7.492653 1.648953,-11.271415 0.686517,-6.009864 0.442393,-7.053738 -1.948905,-8.333522 -1.691196,-0.905101 -3.911106,-1.027505 -5.821032,-0.320968 -7.478747,2.766606 -8.58223,-3.138472 -2.320336,-12.416837 5.550489,-8.224265 11.590918,-12.5508012 18.926328,-13.5562309 9.263125,-1.2696525 12.547692,0.1816865 22.415845,9.9048009 4.982846,4.909611 13.363846,13.110316 18.624456,18.223789 8.96326,8.712575 13.24415,14.223096 23.41521,30.14094 2.28184,3.571112 5.61612,8.458433 7.40949,10.860716 1.79339,2.402282 4.32184,7.206773 5.6188,10.676646 4.23484,11.329893 12.76956,16.974835 33.76291,22.331115 13.41572,3.42291 13.21669,12.29336 -0.27584,12.29336 h -4.39518 l 7.17395,6.738 c 3.94568,3.7059 7.53472,7.87469 7.97567,9.26398 0.99709,3.14158 -1.55804,6.39802 -5.02014,6.39802 -4.75277,0 -18.36966,7.1598 -18.38458,9.66666 -0.008,1.28334 -0.91388,2.33334 -2.01388,2.33334 -1.1,0 -2,-0.6 -2,-1.33334 0,-0.73333 -1.69542,-1.33333 -3.76759,-1.33333 -4.73089,0 -7.85637,-3.37412 -14.20341,-15.33333 -2.72439,-5.13334 -6.00828,-10.53334 -7.29752,-12 -1.28926,-1.46667 -3.74174,-5.21667 -5.44998,-8.33334 -5.41853,-9.88607 -6.84144,-6.73453 -3.05394,6.76402 2.13566,7.61145 2.12514,8.01385 -0.25484,9.75414 -1.36532,0.99835 -3.18378,1.81518 -4.04103,1.81518 -2.14556,0 -3.57959,14.68108 -1.65995,16.99409 0.8084,0.97407 2.71212,1.59888 4.2305,1.38847 1.90444,-0.26391 3.31109,0.75468 4.5353,3.2841 l 1.77463,3.66667 24.26059,0.13293 c 26.40366,0.14466 30.67434,0.74356 31.37861,4.40052 0.66723,3.46464 -1.05871,4.64479 -7.12067,4.86895 -2.93189,0.1084 -7.80898,0.4946 -10.838,0.8582 l -5.5073,0.66108 -0.15182,18.65428 c -0.0835,10.25985 -0.49062,19.20248 -0.90472,19.87251 -0.87022,1.40804 -6.39196,1.64401 -7.70664,0.32933 z M 163.15961,181 c 2.24996,-8.39568 0.29782,-10.81526 -7.75192,-9.60812 l -6.29932,0.94464 5.72343,5.83173 c 3.14788,3.20747 6.12852,5.83175 6.62364,5.83175 0.49511,0 1.262,-1.35 1.70417,-3 z M 116.50027,152.95321 C 119.18138,150.99273 121.21296,140 118.89417,140 c -0.80133,0 -2.5963,-1.22294 -3.98882,-2.71764 l -2.53186,-2.71763 -2.07675,3.16952 c -1.61974,2.47201 -2.95821,3.04015 -6.08219,2.58165 -3.39337,-0.49805 -4.327019,0.034 -6.109989,3.4819 -3.791053,7.33109 -2.938981,9.32362 4.228769,9.88881 3.48334,0.27467 7.56866,0.60755 9.0785,0.73972 1.50984,0.13213 3.79963,-0.53072 5.08844,-1.47312 z m -83.166937,-3.00633 c 0,-1.12922 -1.126777,-4.27922 -2.50395,-7 -1.377172,-2.72079 -2.924846,-6.89688 -3.439274,-9.28022 -1.599804,-7.41185 -4.59216,-4.79878 -7.436529,6.49395 C 16.634415,153.33838 16.043833,152 25.177897,152 c 6.454163,0 8.155436,-0.4283 8.155436,-2.05312 z M 177.15112,137.5634 c 4.16213,-1.86346 5.07457,-2.80438 3.87895,-4 C 180.1702,132.70353 178.72055,132 177.80861,132 c -0.91192,0 -3.64192,-2.47294 -6.06666,-5.49542 -9.76928,-12.17759 -12.22762,-14.2259 -18.07528,-15.06058 -4.10296,-0.58565 -5.66331,-0.34459 -5.65451,0.87357 0.007,0.92534 3.89461,7.08243 8.63983,13.68243 4.7452,6.6 8.63973,12.45 8.6545,13 0.0484,1.805 6.29706,1.04712 11.84463,-1.4366 z m -71.99549,-14.96011 c 1.19919,-3.43998 0.87144,-5.22987 -2.13631,-11.66667 -1.95404,-4.18181 -3.942808,-7.90329 -4.419473,-8.26995 C 98.123183,102.3 97.336565,101.1 96.851808,99.999998 c -0.484757,-1.1 -0.550384,-0.5 -0.145839,1.333332 0.404547,1.83334 1.761199,8.28259 3.014784,14.33168 1.253587,6.0491 2.670557,10.9991 3.148817,11 0.47826,9.1e-4 1.50699,-1.82687 2.28606,-4.06172 z m 21.28347,-0.4063 c 0.25834,-1.34148 -0.75331,-4.93459 -2.24812,-7.98469 -1.4948,-3.0501 -3.02982,-6.59397 -3.41114,-7.87528 -0.73221,-2.46034 -12.16989,-8.724748 -13.50045,-7.394184 -1.0954,1.095394 10.91164,24.647604 13.00299,25.505814 3.0121,1.23605 5.67242,0.26311 6.15672,-2.25166 z m 19.17625,-27.546645 c -0.32422,-2.208976 -1.1203,-4.344385 -1.76908,-4.745356 -0.64878,-0.400969 -1.1796,-1.63552 -1.1796,-2.743446 0,-2.350383 -7.6673,-13.999936 -10.24176,-15.561147 -0.96707,-0.586449 -2.72903,-2.986449 -3.91548,-5.333333 -3.60264,-7.126313 -12.6531,-18.426142 -22.64016,-28.267064 -5.20956,-5.133333 -10.622726,-10.888046 -12.029262,-12.78825 -1.406536,-1.900205 -3.895939,-4.171315 -5.532007,-5.046912 -2.587076,-1.384561 -2.974668,-1.265348 -2.974668,0.914935 0,6.506984 -10.885778,9.413488 -11.77381,3.143608 -0.492834,-3.479619 3.061074,-8.167646 6.313794,-8.328643 1.360482,-0.06735 1.530403,-0.346161 0.471636,-0.773905 -2.919982,-1.179678 -10.334088,2.11252 -11.736201,5.211401 C 67.42422,22.950229 68.01244,24.05671 73.216655,29 c 3.348884,3.18098 7.266989,5.666666 8.932177,5.666666 9.051741,0 9.278285,3.633164 0.564311,9.050068 -4.043216,2.513401 -6.938886,5.385123 -7.438914,7.377389 -0.87657,3.492536 1.675499,12.364845 5.446843,18.936033 4.141179,7.215585 22.894668,17.733652 41.278928,23.151663 23.29716,6.865891 24.41775,6.935571 23.61535,1.468526 z M 29.757673,74.941835 C 34.663993,51.612481 35.856223,34.337759 33.216204,24.8297 30.551891,15.234144 21.446672,9.9089748 17.770112,15.796084 c -2.468941,3.953402 -3.532607,25.107301 -1.753371,34.870582 0.868666,4.766666 2.029052,11.366666 2.578638,14.666666 2.006497,12.048068 5.900188,24.037767 7.339058,22.598896 0.76004,-0.76004 2.480496,-6.605717 3.823236,-12.990393 z"
       id="path630" />
  </g>
</svg>
