<?xml version="1.0" encoding="UTF-8" standalone="no"?>
<!-- Created with Inkscape (http://www.inkscape.org/) -->

<svg
   version="1.1"
   id="svg223"
   width="218.66667"
   height="209.33333"
   viewBox="0 0 218.66667 209.33333"
   xmlns="http://www.w3.org/2000/svg"
   xmlns:svg="http://www.w3.org/2000/svg">
  <defs
     id="defs227" />
  <g
     id="g229">
    <path
       style="fill:#000000;stroke-width:1.33333"
       d="m 185.1845,203.79208 c -8.1216,-0.77354 -11.34702,-1.77526 -16.14711,-5.01479 C 162.4765,194.3494 153.39027,183.3451 150.2302,176 c -1.10425,-2.56667 -2.95778,-6.85735 -4.11897,-9.53484 -3.21959,-7.42388 -2.79301,-19.88444 0.84281,-24.61868 4.40394,-5.73442 4.6339,-5.80402 19.24719,-5.82607 L 179.73578,136 l 8.05242,6.05312 c 15.3676,11.55202 25.55123,27.02712 25.5377,38.80718 -0.0153,13.35147 -4.5735,21.08759 -13.53036,22.96374 -2.45422,0.51406 -9.02919,0.49968 -14.61104,-0.032 z m 14.32473,-11.22035 C 203.38611,188.46104 204,186.89005 204,181.07948 c 0,-5.36712 -0.96581,-8.32056 -4.76748,-14.57878 -2.62212,-4.31646 -5.9752,-8.49448 -7.4513,-9.28446 -1.4761,-0.78998 -4.88072,-3.38854 -7.56584,-5.77458 -4.64788,-4.13016 -15.95375,-8.8089 -21.13258,-8.74534 -1.32886,0.0163 -3.8596,1.13938 -5.62384,2.49574 -3.01488,2.31784 -3.15966,3.03919 -2.40852,11.99892 0.6387,7.61826 1.61766,10.74555 4.87438,15.5711 2.24136,3.32105 4.07518,6.5682 4.07518,7.21589 0,2.5664 12.94471,14.22377 17.33334,15.60956 9.08046,2.86729 13.28544,2.16959 18.17589,-3.0158 z M 8.9929283,198.84662 c -5.6703101,-1.66294 -4.9565514,-12.28508 1.7622847,-26.22629 7.565785,-15.69857 18.227273,-22.91719 35.654174,-24.14049 11.081227,-0.77787 11.984625,-0.62698 20.555955,3.43337 14.027507,6.64501 23.072863,18.73244 26.369691,35.23815 1.381908,6.91857 -1.452622,9.71108 -10.892058,10.73053 -8.125486,0.87756 -70.934327,1.70252 -73.4500467,0.96473 z M 71.666668,186.43236 c 8.602652,-1.583 8.915433,-3.38628 2.363813,-13.62811 -8.152072,-12.74375 -24.566606,-17.60644 -37.942848,-11.24032 -7.703653,3.66639 -12.065794,7.00948 -15.049714,11.53391 -2.308697,3.50061 -3.235143,12.26049 -1.482076,14.01356 1.348055,1.34805 44.123902,0.79065 52.110825,-0.67904 z M 8.8093185,67.224283 C 7.0476077,62.633338 8.1586851,57.748404 12.033924,53.047067 c 3.287918,-3.988814 5.198891,-5.045418 10.333334,-5.713446 9.7728,-1.271512 19.463467,-3.548575 21.299409,-5.004826 2.435604,-1.931894 2.035111,-6.040197 -0.666666,-6.838742 -1.283334,-0.379307 -6.833334,-1.091555 -12.333334,-1.582775 -15.814,-1.412388 -22.6666669,-7.44342 -22.6666669,-19.948932 0,-4.6045843 0.1710324,-4.7774632 4.3294179,-4.3761575 3.421641,0.3302063 4.773324,1.3617605 6.446522,4.9197485 2.78935,5.931436 6.522787,7.74034 16.544499,8.016048 8.895282,0.24472 10.760392,-0.805633 11.551804,-6.505496 0.881892,-6.3515194 3.489578,-6.6546334 63.105987,-7.3353595 62.23663,-0.710645 62.80445,-0.6423806 63.60323,7.6463795 0.31612,3.280229 1.1277,4.444149 3.31618,4.755811 4.05383,0.577309 13.62808,-4.478374 18.70106,-9.875092 5.23442,-5.5684849 10.05778,-5.9854802 13.23017,-1.143795 1.88517,2.877124 1.98419,4.193163 0.65041,8.644911 -1.69094,5.643853 -3.57501,7.131601 -11.63989,9.191412 -22.3888,5.718205 -23.16391,6.021041 -23.16837,9.051851 -0.005,3.247872 3.93065,4.726571 17.06932,6.413612 4.9481,0.635351 8.71406,2.16976 12.53274,5.106363 6.96314,5.354725 8.56718,9.357826 5.12784,12.797164 -3.26152,3.261526 -7.39834,2.302941 -13.05276,-3.024592 -3.57864,-3.371758 -5.67364,-4.166872 -12.22834,-4.640996 l -7.90986,-0.572147 -2.71485,5.321548 c -1.49316,2.926851 -3.68948,5.695548 -4.88069,6.15266 -1.19122,0.457112 -10.66678,0.826375 -21.0568,0.820583 -10.39002,-0.0057 -35.15114,0.681793 -55.024712,1.527966 -19.873567,0.846175 -37.68749,1.148538 -39.586494,0.671918 C 50.11067,66.810959 49.419786,65.763564 49.080173,61.661384 48.671462,56.724583 48.594034,56.661986 42.402899,56.263119 35.373425,55.81024 30.388222,57.897584 21.862678,64.863474 16.032826,69.626818 10.140216,70.692546 8.8093185,67.224283 Z M 152.07875,51.978795 c 4.29888,-1.157569 5.00952,-1.940588 5.73287,-6.316746 0.45414,-2.74746 0.8323,-8.745383 0.84037,-13.328716 L 158.66667,24 148.33334,23.818882 c -26.81611,-0.47002 -83.896808,0.594191 -85.79924,1.599639 -3.113847,1.645688 -4.583227,20.24994 -1.920239,24.312684 1.908329,2.911409 2.270815,2.938055 44.240909,3.252207 24.85623,0.186052 44.34158,-0.228469 47.22398,-1.004617 z"
       id="path251" />
  </g>
</svg>
