<?xml version="1.0" encoding="UTF-8" standalone="no"?>
<!-- Created with Inkscape (http://www.inkscape.org/) -->

<svg
   version="1.1"
   id="svg213"
   width="212"
   height="72"
   viewBox="0 0 212 72"
   xmlns="http://www.w3.org/2000/svg"
   xmlns:svg="http://www.w3.org/2000/svg">
  <defs
     id="defs217" />
  <g
     id="g219">
    <path
       style="fill:#000000;stroke-width:1.33333"
       d="M 5.6,65.066667 C 2.4682337,61.9349 3.7399063,54.907535 8.3333333,49.962044 12.317693,45.672303 13.658185,45.151567 24.978732,43.495868 c 12.927236,-1.890685 16.354601,-3.502693 16.354601,-7.692129 0,-3.118994 -3.465276,-4.48463 -14.457677,-5.697648 C 13.515583,28.631797 6.6723049,24.870351 3.7983244,17.421503 0.54230344,8.9824733 9.2701789,2.9033383 14.271087,10.12702 c 4.845968,6.999876 6.615173,8.119952 14.241582,9.016287 8.732359,1.026317 11.921015,-0.20267 14.75755,-5.687924 1.080468,-2.089395 2.986612,-4.1911254 4.235876,-4.6705129 4.135356,-1.5868849 115.988785,-2.4823609 118.849255,-0.9514832 1.44414,0.7728808 2.9928,3.2407091 3.44148,5.4840631 0.44866,2.243353 1.77389,4.446493 2.94493,4.895866 3.2004,1.228109 16.62037,-3.712869 21.40248,-7.879983 4.3386,-3.7806413 10.30756,-4.8383698 11.98524,-2.1238385 1.58676,2.5674325 0.73305,10.6974335 -1.36697,13.0179365 -2.13144,2.355222 -11.38087,5.590186 -24.09584,8.427466 -7.12224,1.58929 -8.0455,2.17331 -8.4146,5.322802 -0.3715,3.169952 0.11346,3.621004 4.66666,4.339673 20.62252,3.255075 27.19667,5.884079 29.97787,11.988159 1.43353,3.146244 0.86731,7.712958 -1.38501,11.170485 -1.76111,2.70346 -6.47092,0.679935 -12.32995,-5.297435 C 188.74809,52.655475 187.33271,52 181.99939,52 c -5.34858,0 -6.71995,0.640184 -11.0528,5.15966 L 166,62.31932 144,63.165761 c -12.1,0.465543 -36.7,1.170399 -54.666667,1.566347 -17.966666,0.395948 -34.166666,0.992139 -36,1.324867 -4.754454,0.862877 -6.9174,-1.032638 -7.894142,-6.918099 L 44.586349,54 37.959841,54.071087 C 28.066835,54.177213 24.605324,55.492679 18.80632,61.349928 13.427439,66.782835 8.6583603,68.125027 5.6,65.066667 Z M 157.11152,43.333333 c 0.53505,-8.018358 -2.01871,-20.625986 -4.20715,-20.770182 -9.93373,-0.654535 -87.999543,-1.121758 -91.237703,-0.546058 l -4.333334,0.770408 v 13.050694 c 0,7.177882 0.250254,13.300694 0.556119,13.606249 C 58.195317,49.75 80.545317,50 107.55612,50 h 49.11055 z"
       id="path390" />
  </g>
</svg>
