<?xml version="1.0" encoding="UTF-8" standalone="no"?>
<!-- Created with Inkscape (http://www.inkscape.org/) -->

<svg
   version="1.1"
   id="svg203"
   width="102.66667"
   height="202.66667"
   viewBox="0 0 102.66667 202.66667"
   xmlns="http://www.w3.org/2000/svg"
   xmlns:svg="http://www.w3.org/2000/svg">
  <defs
     id="defs207" />
  <g
     id="g209">
    <path
       style="fill:#000000;stroke-width:1.33333"
       d="m 11,194.53928 c -2.3833331,-1.54062 -4.4024258,-3.49222 -4.4868725,-4.33688 -0.3578544,-3.57933 0.6072102,-7.19154 3.4333128,-12.85077 1.6529737,-3.31007 3.3895137,-7.61587 3.8589757,-9.56844 1.039931,-4.32527 16.240736,-19.50091 20.861252,-20.82672 1.833333,-0.52605 9.033333,-0.90935 16,-0.85176 19.997034,0.16529 27.816179,4.75617 39.253404,23.04696 3.517311,5.625 7.413264,17.63511 7.413264,22.85297 0,3.4908 -2.3785,3.73202 -45.333334,4.59724 C 16.363189,197.3197 15.211623,197.26178 11,194.53928 Z M 75.000002,183.7241 c 4.439215,-0.93079 7.666667,-2.31659 7.666667,-3.29191 0,-5.3444 -11.120853,-20.02907 -17.041743,-22.50297 -5.998732,-2.50643 -21.405911,-2.50124 -26.420074,0.009 -5.692566,2.84976 -16.086931,14.14109 -17.087363,18.56188 -0.477119,2.10833 -1.190802,5.10833 -1.585962,6.66667 -0.714801,2.81885 -0.597038,2.83162 23.041668,2.49913 13.068078,-0.18424 27.210141,-1.05801 31.426807,-1.94213 z M 11.666667,67.893202 c -1.309816,-0.762897 -2.3333334,-2.936956 -2.3333334,-4.956245 0,-2.796675 2.8277714,-6.330108 12.7066764,-15.877591 L 34.746685,34.778979 32.125677,31.722823 C 13.145328,9.591299 10.185001,3.7763582 17.467862,2.9306208 19.899351,2.648259 21.536986,3.445193 22.947645,5.5972876 24.054201,7.2854461 28.9087,12.855352 33.735418,17.974856 l 8.775854,9.30819 4.023708,-2.974856 c 2.21304,-1.636171 4.409846,-2.974856 4.881792,-2.974856 0.471947,0 3.908648,-2.74272 7.637117,-6.094932 3.728468,-3.352214 8.573135,-7.0227 10.765925,-8.1566367 3.668755,-1.8971864 4.123478,-1.8749136 5.698546,0.2791198 2.093143,2.8625439 0.406242,6.6324809 -4.730107,10.5709819 -1.900204,1.457059 -7.164691,6.174935 -11.698859,10.484169 -6.275123,5.963825 -8.02647,8.421485 -7.333334,10.290847 0.500835,1.350731 5.146606,7.144254 10.323937,12.874497 5.177331,5.730241 9.829277,11.114476 10.337659,11.964965 1.606062,2.686833 -0.57379,5.786989 -4.069078,5.786989 -3.371303,0 -7.311667,-3.473884 -20.110182,-17.729437 -4.632003,-5.159331 -6.305961,-6.220123 -8.657048,-5.486 -4.808374,1.501408 -18.22927,13.922893 -20.238329,18.731245 -1.944928,4.65487 -3.709428,5.354582 -7.676352,3.04406 z"
       id="path529" />
  </g>
</svg>
