<?xml version="1.0" encoding="UTF-8" standalone="no"?>
<!-- Created with Inkscape (http://www.inkscape.org/) -->

<svg
   version="1.1"
   id="svg193"
   width="172"
   height="201.33333"
   viewBox="0 0 172 201.33333"
   xmlns="http://www.w3.org/2000/svg"
   xmlns:svg="http://www.w3.org/2000/svg">
  <defs
     id="defs197" />
  <g
     id="g199">
    <path
       style="fill:#000000;stroke-width:1.33333"
       d="M 48.192879,194.85954 C 45.228125,191.89478 44.289055,184.80277 46.666667,183.33333 47.4,182.8801 48,181.33656 48,179.90321 c 0,-1.43333 0.524569,-3.64792 1.165709,-4.92131 0.641139,-1.27338 2.503563,-5.01524 4.13872,-8.31524 3.089015,-6.23412 9.999327,-13.33333 12.978539,-13.33333 0.944368,0 1.717032,-0.50369 1.717032,-1.11931 0,-1.61838 4.973195,-3.6438 13.793947,-5.6178 6.320653,-1.41449 8.948757,-1.41094 14.622482,0.0197 10.411681,2.62548 18.397751,7.13266 24.643141,13.90809 5.19634,5.63737 6.73488,8.34865 12.83378,22.61619 2.41205,5.64266 1.83246,9.53238 -1.70222,11.42409 -1.26222,0.67552 -20.03479,1.66168 -41.716822,2.19147 -39.157424,0.95678 -39.441067,0.94406 -42.281429,-1.8963 z M 120.08813,184.4452 c 4.42638,-4.42638 -3.63868,-15.74127 -16.46221,-23.09566 -5.661092,-3.24668 -8.499053,-3.99352 -15.213897,-4.0037 -4.540055,-0.007 -8.625464,0.58749 -9.07869,1.32082 C 78.880108,159.4 77.169623,160 75.532255,160 c -3.505276,0 -13.428226,9.74745 -14.930739,14.66666 -1.700019,5.56586 -1.844059,9.89874 -0.359567,10.8162 2.552282,1.5774 58.195921,0.6126 59.846181,-1.03766 z M 11.425808,100.14963 C 10.977132,99.423653 10.290722,91.742998 9.9004523,83.081504 9.5101821,74.420009 8.7531295,61.633332 8.2181131,54.666666 7.6830965,47.699999 7.2651508,34.226489 7.2893445,24.72553 L 7.3333333,7.4510617 11.69514,6.1911508 c 2.903783,-0.8387596 5.416337,-0.7794349 7.516525,0.1774752 3.120776,1.4219207 3.16543,1.7361033 4.150179,29.201047 0.547503,15.270013 1.065067,36.163659 1.150141,46.430326 l 0.154682,18.666661 -6.212543,0.40146 c -3.416899,0.2208 -6.57964,-0.19252 -7.028316,-0.91849 z M 111.4959,97.209606 C 97.759591,95.182889 84.499128,85.387609 77.923669,72.410369 74.349689,65.35681 74.002609,63.478356 74.029273,51.333332 74.063633,35.684919 75.957376,30.942359 86.252551,20.722238 96.547985,10.50186 97.087556,10.255225 117.54266,6.4197362 c 6.8832,-1.2906522 8.36486,-1.1001272 16.94661,2.1791407 5.17216,1.9763961 12.44092,6.0115291 16.15278,8.9669611 6.33575,5.044598 8.36651,8.217194 13.33863,20.838649 2.34293,5.947394 0.86259,24.740488 -2.58177,32.775862 -5.10664,11.913323 -18.78372,23.376864 -30.25206,25.355979 -10.1599,1.753314 -11.92176,1.813678 -19.65095,0.673278 z M 126.37231,85.24854 c 0.21679,-1.146636 -1.25883,-3.846636 -3.27915,-6 -3.39594,-3.619584 -3.71257,-3.713857 -4.19338,-1.248541 -0.28604,1.466666 -1.12263,3.409025 -1.85909,4.316353 -0.73646,0.907328 -0.97602,2.595651 -0.53236,3.751828 1.07445,2.799957 9.30902,2.115711 9.86398,-0.81964 z m -18.54079,-5.581875 c 0.96222,-2.383333 2.89287,-7.333333 4.29033,-10.999999 4.85112,-12.728443 8.33791,-12.341294 17.76811,1.972855 6.74727,10.241695 9.15493,11.301614 13.98745,6.15763 5.54036,-5.897439 2.19404,-10.482467 -12.7157,-17.42266 -8.39823,-3.909217 -7.39611,-9.454909 2.4892,-13.775024 3.85866,-1.68633 8.96576,-3.926366 11.34909,-4.977857 4.6944,-2.071097 5.12779,-3.247543 2.84001,-7.709265 -1.78189,-3.475124 -9.27466,-11.579012 -10.70584,-11.579012 -0.55516,0 -2.23944,2.55 -3.74282,5.666667 -5.64134,11.694957 -12.43989,19.948083 -15.47343,18.784006 -1.81957,-0.698237 -9.13189,-14.509239 -11.71016,-22.11734 -1.35274,-3.991744 -4.81837,-2.600812 -11.627388,4.666667 -7.328243,7.821657 -8.131877,10.333333 -3.306251,10.333333 2.939232,0 7.374463,2.34956 16.392549,8.683935 2.95879,2.078281 3.89014,6.545483 1.97958,9.495014 -0.53877,0.831756 -3.67958,2.782576 -6.97958,4.335155 -3.300003,1.552578 -7.783121,4.251716 -9.962487,5.99808 l -3.962483,3.17521 4.629149,5.376775 c 2.546034,2.957226 5.64374,5.427562 6.883791,5.489636 1.24006,0.06207 2.62547,0.712861 3.07869,1.446194 1.42936,2.31274 2.69374,1.46948 4.49819,-3 z M 91.25712,57.201631 C 93.865704,55.662528 96,53.890679 96,53.264187 c 0,-1.759265 -9.070764,-5.650249 -11.235495,-4.819564 -1.168365,0.448344 -1.888572,2.469319 -1.834144,5.146796 0.151172,7.436601 1.12552,7.859047 8.326759,3.610212 z m 61.80955,-0.134965 c 1.73998,-1.739983 2.22548,-9.07094 0.6,-9.059836 -0.55,0.0037 -3.35256,1.430856 -6.22792,3.171332 l -5.22792,3.1645 3.89458,2.108618 c 4.77456,2.585058 4.97396,2.602684 6.96126,0.615386 z M 123.47727,23 c 2.8815,-3.795904 2.13962,-5.223927 -2.8106,-5.410026 -4.99503,-0.187781 -5.63535,0.895107 -3.01261,5.094784 2.03704,3.261822 3.52528,3.342388 5.82321,0.315242 z"
       id="path668" />
  </g>
</svg>
