<?xml version="1.0" encoding="UTF-8" standalone="no"?>
<!-- Created with Inkscape (http://www.inkscape.org/) -->

<svg
   version="1.1"
   id="svg183"
   width="134.66667"
   height="117.33333"
   viewBox="0 0 134.66667 117.33333"
   xmlns="http://www.w3.org/2000/svg"
   xmlns:svg="http://www.w3.org/2000/svg">
  <defs
     id="defs187" />
  <g
     id="g189">
    <path
       style="fill:#000000;stroke-width:1.33333"
       d="M 8.7828844,108.89488 C 6.516517,105.2651 5.2794653,81.51631 5.2636688,41.333332 5.2526156,13.216728 5.4148035,11.200058 7.8471066,9.2104349 10.021702,7.4316171 16.889708,6.9173727 50.221171,6.0376624 72.099527,5.4602313 97.4587,4.9843044 106.57489,4.9800468 c 15.3243,-0.00716 16.74893,0.2071968 18.88165,2.8409934 2.07953,2.5681148 2.32316,7.3811218 2.47319,48.8597048 l 0.16643,46.010975 -3.10162,3.10162 c -2.3173,2.3173 -5.25885,3.32709 -11.63247,3.99327 -4.69197,0.49041 -8.86788,0.36425 -9.27979,-0.28035 -0.43033,-0.67341 -9.499528,-0.66316 -21.318451,0.0241 -16.235485,0.94407 -20.796378,0.83862 -21.64625,-0.50047 -0.911647,-1.43642 -1.979247,-35.691581 -1.507294,-48.363215 0.08193,-2.2 -0.457014,-8.085264 -1.197672,-13.078365 -1.867846,-12.591966 -0.747112,-17.51675 4.478913,-19.681439 3.8108,-1.578486 4.367162,-1.466712 6.634061,1.33279 2.131739,2.632585 2.474415,5.499371 2.474415,20.700642 0,9.70468 0.394281,24.088905 0.876181,31.964946 1.037916,16.963402 1.187912,17.10423 16.435049,15.430518 6.185276,-0.678972 10.599372,-0.581506 11.953128,0.26393 1.36449,0.852134 4.31801,0.909353 8.10768,0.15707 l 5.9613,-1.183368 V 59.019177 c 0,-28.636533 -0.40323,-37.957239 -1.69808,-39.25144 -1.26332,-1.262683 -7.92013,-1.655102 -26.000002,-1.532698 -34.283494,0.232107 -68.42958,1.273504 -69.803502,2.128888 -0.973574,0.606134 -1.13957,12.765147 -0.704942,51.636071 0.02869,2.566667 0.110133,9.766666 0.180981,16 0.07084,6.233333 0.255567,13.684342 0.410503,16.557792 0.252542,4.68366 -0.1018,5.32836 -3.423099,6.22822 -2.995393,0.81156 -4.050911,0.44944 -5.5123146,-1.89113 z"
       id="path807" />
  </g>
</svg>
