<?xml version="1.0" encoding="UTF-8" standalone="no"?>
<!-- Created with Inkscape (http://www.inkscape.org/) -->

<svg
   version="1.1"
   id="svg174"
   width="212"
   height="77.333336"
   viewBox="0 0 212 77.333336"
   xmlns="http://www.w3.org/2000/svg"
   xmlns:svg="http://www.w3.org/2000/svg">
  <defs
     id="defs178" />
  <g
     id="g180">
    <path
       style="fill:#000000;stroke-width:1.33333"
       d="M 102,68.515604 C 82.763235,65.661105 73.209557,63.49002 63.727995,59.818242 57.644264,57.46229 51.766667,54.840907 50.666667,53.992945 c -1.1,-0.847962 -4.767124,-3.119991 -8.149164,-5.048954 C 39.135461,47.015027 30.285461,39.977039 22.850836,33.304016 12.900734,24.373202 9.3333333,20.333702 9.3333333,17.997646 c 0,-1.74548 0.7272437,-3.623062 1.6160967,-4.172403 0.888853,-0.549341 43.175301,-1.198304 93.96988,-1.442139 91.46938,-0.43909 92.37984,-0.417295 95.07314,2.276017 2.48966,2.489646 2.55528,3.027169 0.777,6.363449 -3.3252,6.238512 -23.93577,26.050964 -32.89488,31.621072 -4.69768,2.920668 -11.6281,6.322611 -15.40093,7.559872 -3.77284,1.237261 -8.82188,3.26425 -11.22009,4.504418 -2.39823,1.240166 -6.21136,2.459972 -8.47365,2.710677 -9.18176,1.017521 -27.02892,1.653593 -30.7799,1.096995 z m 20.66667,-11.226926 c 10.34986,-1.340984 30.06612,-7.238275 31.39654,-9.39096 0.4167,-0.674226 4.04427,-2.780695 8.06127,-4.681042 4.01701,-1.900348 8.18679,-4.803007 9.26616,-6.450352 1.07939,-1.647345 4.65805,-4.930964 7.9526,-7.29693 3.29456,-2.365965 5.99009,-4.758149 5.99009,-5.315963 0,-0.557814 -12.15,-0.87717 -27,-0.70968 C 91.132113,24.201702 56.743083,24.143814 41,23.246239 31.65,22.713159 24,22.591981 24,22.976954 c 0,0.745089 18.846616,15.257171 23.333333,17.966899 7.167504,4.328774 23.909338,11.887131 29.149487,13.159984 3.65234,0.887166 27.9537,4.029848 33.51718,4.334481 1.46667,0.08031 7.16667,-0.437029 12.66667,-1.14964 z"
       id="path947" />
  </g>
</svg>
