<?xml version="1.0" encoding="UTF-8" standalone="no"?>
<!-- Created with Inkscape (http://www.inkscape.org/) -->

<svg
   version="1.1"
   id="svg173"
   width="330.66666"
   height="174.66667"
   viewBox="0 0 330.66666 174.66667"
   xmlns="http://www.w3.org/2000/svg"
   xmlns:svg="http://www.w3.org/2000/svg">
  <defs
     id="defs177" />
  <g
     id="g179">
    <path
       style="fill:#000000;stroke-width:1.33333"
       d="m 196.46966,168.60087 -3.66772,-3.39913 -36.7343,1.0658 c -47.50918,1.37841 -48.97373,1.3597 -50.98478,-0.65135 -1.3782,-1.3782 -1.11087,-2.81143 1.41112,-7.56544 1.7113,-3.22583 2.80105,-6.36736 2.42168,-6.9812 -0.94746,-1.53301 -24.491595,-2.16772 -25.407996,-0.68496 -0.405479,0.65608 1.339418,3.20564 3.87755,5.66569 4.139683,4.01235 6.311632,10.4501 3.614784,10.71439 -0.55,0.0539 -17.199999,0.42328 -36.999999,0.82085 -19.8,0.39756 -38.258087,0.77395 -41.017972,0.8364 -2.830338,0.064 -5.8938571,-0.76232 -7.027065,-1.89553 -2.4500153,-2.45001 -2.9818974,-17.68244 -0.7128954,-20.41641 0.8411527,-1.01354 4.9557954,-3.12908 9.1436504,-4.70124 4.187856,-1.57215 10.314283,-4.24492 13.614282,-5.9395 5.809084,-2.98299 6.01278,-3.29806 6.401627,-9.90185 0.617151,-10.48103 -0.544864,-11.65209 -13.16011,-13.26257 -5.970755,-0.76224 -11.4951329,-2.0251 -12.276397,-2.80637 -1.3091268,-1.30912 3.048435,-15.254616 7.293455,-23.341223 4.566984,-8.699934 4.931236,-12.274063 2.172124,-21.31337 -2.0578,-6.741692 -4.201122,-10.376863 -9.2224326,-15.641655 -3.5978794,-3.77234 -6.5324112,-7.536064 -6.5211817,-8.363833 0.041712,-3.074802 2.447845,-5.171702 5.9343788,-5.171702 5.2717545,0 13.3196695,8.576689 18.7161705,19.945881 7.173813,15.113583 13.335966,14.736121 18.695527,-1.14519 5.769951,-17.097364 18.393569,-26.302095 23.355721,-17.030229 1.128502,2.108624 0.720428,3.206742 -2.196112,5.909701 -1.97019,1.825911 -3.965186,3.319838 -4.433324,3.319838 -1.48128,0 -5.526145,7.797426 -6.038555,11.640733 -0.270775,2.030931 -0.90794,4.7426 -1.415923,6.025934 -1.55914,3.938906 1.35034,2.603178 6.534596,-3 7.826308,-8.458727 11.616274,-6.589729 13.992498,6.900312 1.398907,7.941718 1.305677,8.597396 -1.914294,13.4631 -3.999559,6.043743 -3.527635,8.372869 2.701066,13.330805 6.245153,4.971034 14.090449,6.256108 42.955627,7.036188 19.03351,0.51438 25.33507,0.24514 29.33334,-1.25333 8.59485,-3.221167 13.49181,-3.535668 20.12466,-1.292476 8.97238,3.034406 13.25408,6.487926 16.86026,13.599096 1.73381,3.41897 4.41724,7.3593 5.96316,8.75629 1.54593,1.39699 2.81078,3.53042 2.81078,4.74096 0,1.21054 1.53234,4.26755 3.40519,6.79335 6.21963,8.38801 8.63436,15.65793 8.74403,26.32509 0.10133,9.85458 -0.8688,12.19306 -5.08052,12.24687 -0.87888,0.0107 -3.24844,-1.5092 -5.2657,-3.37872 z M 74.666665,158.73292 c 0,-2.00544 -4.125026,-3.7839 -7.020365,-3.02676 -2.500355,0.65386 -2.472403,0.7846 0.522711,2.44507 3.767696,2.08879 6.497654,2.33317 6.497654,0.58169 z m -54.417809,-4.39958 c 0.417357,-4.32863 0.427934,-4.3344 9.751143,-5.31118 5.133334,-0.53781 14.653755,-1.27278 21.156493,-1.63328 13.060375,-0.72404 15.510173,-1.90697 15.510173,-7.4894 0,-4.91134 2.612051,-10.56614 4.880687,-10.56614 2.660337,0 7.119313,4.96128 7.119313,7.9213 0,1.42339 0.45,2.8425 1,3.15356 1.693384,0.95776 45.800965,-1.52478 55.177835,-3.10561 l 8.84451,-1.49107 -0.0992,-6.57945 c -0.0851,-5.64166 0.49843,-7.1961 4.09397,-10.90576 L 151.87694,114 l -25.60513,-1.9e-4 c -20.04116,-1.5e-4 -27.738795,-0.51818 -35.424078,-2.38392 -11.825836,-2.87093 -19.428769,-6.56156 -22.185944,-10.76954 -1.124132,-1.715641 -4.282907,-4.257924 -7.019499,-5.649515 -6.234159,-3.170148 -7.127039,-4.371419 -6.340306,-8.530167 0.509477,-2.693152 -0.276951,-3.909496 -4.09482,-6.333333 -5.017777,-3.185618 -7.032493,-3.501602 -13.754428,-2.157214 -3.729228,0.745846 -4.001758,1.090917 -2.369333,3.000001 3.711449,4.34045 3.578788,6.590596 -0.595645,10.10315 -2.225786,1.872875 -4.640496,3.038355 -5.366024,2.589954 -1.590927,-0.983247 -7.7884,4.562559 -7.7884,6.969444 0,0.93894 2.132312,2.10719 4.738472,2.59611 3.8353,0.7195 5.655981,0.23612 9.552161,-2.53605 3.818753,-2.717084 5.348996,-3.138504 7.403605,-2.038911 2.11578,1.132331 2.402171,2.156871 1.564377,5.596461 -1.217745,4.9995 -0.969934,14.62495 0.520323,20.21039 0.71032,2.66226 2.040533,4.14249 3.977487,4.42607 2.013958,0.29485 2.910241,1.36045 2.910241,3.46001 0,4.91295 -4.962223,8.19407 -15.333333,10.13872 -8.329516,1.56184 -22.258921,7.12287 -23.74577,9.48001 -1.99316,3.15982 -0.134522,6.49519 3.619446,6.49519 2.737992,0 3.360878,-0.72783 3.708514,-4.33333 z m 104.723364,2.19444 c -0.44306,-0.44306 -1.59306,-0.49042 -2.55556,-0.1052 -1.06364,0.42562 -0.7477,0.74157 0.80556,0.80554 1.40555,0.0579 2.19305,-0.25722 1.75,-0.70029 z m 60.82054,-5.8973 c -0.5761,-2.88045 -0.1124,-4.80398 1.61944,-6.71762 2.35626,-2.60364 2.32261,-2.89358 -1.1597,-9.9939 -4.02538,-8.2076 -12.90825,-18.48867 -18.45046,-21.35466 -4.79308,-2.4786 -9.13538,-2.42994 -9.13538,0.10237 0,1.1 0.5789,2 1.28643,2 0.70753,0 1.90328,1.15261 2.65721,2.56137 1.17436,2.1943 0.66603,2.91084 -3.54713,5 -2.70487,1.34125 -5.14644,3.1761 -5.42572,4.07744 -0.81207,2.6209 13.16303,16.48152 19.27663,19.11874 3.06942,1.32405 6.58842,3.94526 7.82001,5.8249 3.19056,4.8694 6.08547,4.51536 5.05867,-0.61864 z m 76.8739,-94.630479 c -11.36667,-0.366667 -21.48454,-1.194031 -22.48418,-1.838587 -2.76842,-1.785056 -1.2481,-13.490813 2.9267,-22.53426 1.95662,-4.2384 3.55748,-8.052058 3.55748,-8.474795 0,-2.589067 9.31983,-11.776242 14.72465,-14.5150743 10.74022,-5.4424809 17.65414,-6.3997859 28.49952,-3.9460578 10.82667,2.4494951 13.41439,3.9190887 23.22378,13.1890201 8.7522,8.270896 9.65306,9.898932 11.55426,20.880719 1.88156,10.86829 0.6693,14.131163 -5.8744,15.811223 -6.36233,1.633497 -30.62114,2.250608 -56.12781,1.427812 z m 41,-14.197311 c 8.67411,-1.041881 8.79853,-2.382669 1.20277,-12.959875 -9.53652,-13.279731 -21.44534,-17.332349 -33.25589,-11.317101 -12.37275,6.301589 -18.28021,13.199733 -18.28021,21.345804 v 3.795149 l 21.66666,-0.0116 c 11.91667,-0.0064 24.81667,-0.389949 28.66667,-0.852388 z"
       id="path946" />
  </g>
</svg>
