<?xml version="1.0" encoding="UTF-8" standalone="no"?>
<!-- Created with Inkscape (http://www.inkscape.org/) -->

<svg
   version="1.1"
   id="svg83"
   width="229.33333"
   height="210.66667"
   viewBox="0 0 229.33333 210.66667"
   xmlns="http://www.w3.org/2000/svg"
   xmlns:svg="http://www.w3.org/2000/svg">
  <defs
     id="defs87" />
  <g
     id="g89">
    <path
       style="fill:#000000;stroke-width:1.33333"
       d="M 95.333332,203.37258 C 72.840499,201.29607 56.935421,197.91791 39.999999,191.62006 33.033333,189.02932 24.106973,185.80498 20.163645,184.45482 7.3341227,180.06214 6.180934,172.02132 17.62633,166.76294 c 12.555294,-5.76832 38.590608,-12.52678 63.040335,-16.36451 6.181134,-0.97023 22.441195,-1.64991 38.666665,-1.61629 32.79156,0.068 50.20439,2.76576 72,11.15525 1.46667,0.56455 5.06667,1.77385 8,2.68736 10.6538,3.31783 20.36656,8.32316 21.972,11.32295 2.39743,4.47961 0.48831,8.58121 -5.08595,10.92676 -2.68733,1.13078 -7.28605,3.1634 -10.21938,4.51692 -2.93334,1.35352 -11.63334,3.75496 -19.33334,5.3365 -7.7,1.58156 -14.6,3.25107 -15.33333,3.71003 -1.59268,0.99676 -12.26312,2.39041 -31.33333,4.09239 -7.7,0.6872 -16.7,1.54557 -20,1.9075 -3.3,0.36192 -14.4,-0.11746 -24.666668,-1.06522 z m 45.999998,-14.10095 c 4.03333,-0.70205 13.63333,-2.16592 21.33333,-3.25304 19.23015,-2.71496 37.7707,-6.664 38.26619,-8.15047 0.42648,-1.27946 -6.37527,-4.57876 -16.58661,-8.0456 -11.10852,-3.77144 -35.68056,-7.31382 -56.05656,-8.0813 -21.00655,-0.79122 -55.42689,1.4144 -61.623014,3.94873 -3.266579,1.33609 -7.776439,2.28163 -22.829537,4.78643 -7.596834,1.26409 -13.170463,3.4871 -13.170463,5.25297 0,1.23272 16.931384,6.32992 27.077153,8.15159 4.259101,0.7647 8.217828,1.68334 8.797169,2.0414 0.879194,0.54336 25.28824,3.4857 42.792342,5.1583 6.65005,0.63544 23.39492,-0.31117 32,-1.80901 z M 57.666666,140.70911 C 49.114646,136.93232 54.498426,132 67.172916,132 c 6.596718,0 7.3165,-0.3348 11.254343,-5.23492 6.69716,-8.33372 7.687097,-11.37449 5.025476,-15.43664 -2.536772,-3.8716 -5.620069,-5.29069 -18.119403,-8.33948 C 60.566666,101.8263 54.766279,99.328147 52.443583,97.437515 50.120887,95.546883 46.713137,92.953859 44.870802,91.67524 43.028469,90.39662 39.828855,86.983837 37.760551,84.091277 35.692247,81.198716 31.522953,75.344859 28.495452,71.082705 21.389628,61.07904 19.09854,59.195362 12.881027,58.244904 5.6995685,57.147088 3.7717481,55.293101 5.6119734,51.254246 6.6086203,49.066843 8.6023023,47.764333 11.870589,47.16537 c 2.637843,-0.483424 6.812732,-2.633588 9.277532,-4.778144 5.681627,-4.943429 9.520199,-6.387225 16.981502,-6.387225 8.398108,0 13.775291,2.64435 22.738485,11.18216 4.289207,4.085644 8.858196,7.441059 10.15331,7.456476 3.96329,0.04717 30.882552,9.629237 32.458902,11.553924 0.81418,0.994092 1.80389,1.80744 2.19935,1.80744 0.39546,0 3.77083,2.053716 7.50082,4.563815 11.43391,7.694448 20.65297,10.507871 31.29035,9.549005 8.8949,-0.801796 20.71566,-4.748705 24.96748,-8.336549 1.15774,-0.97695 4.2673,-1.776271 6.91014,-1.776271 9.92931,0 6.6667,8.223551 -5.6818,14.3212 -6.63318,3.275447 -1.94317,3.87153 7.3824,0.938275 12.52259,-3.938836 24.6176,-0.379061 24.6176,7.245391 0,2.90234 -6.04596,11.735793 -9.18069,13.413443 -4.27776,2.28939 -23.0044,5.62927 -31.40749,5.60151 -4.44318,-0.0147 -12.97852,-0.42945 -18.96747,-0.92171 l -10.88899,-0.89502 -2.11101,4.08224 c -1.16106,2.24524 -2.11101,5.57663 -2.11101,7.4031 0,1.82647 -0.6,3.69168 -1.33334,4.14491 -0.73333,0.45322 -1.33333,1.68863 -1.33333,2.74535 0,1.45643 1.9093,1.92131 7.89095,1.92131 8.77908,0 12.1191,0.8683 12.08864,3.14266 -0.0537,4.01397 -2.59044,4.93665 -15.72075,5.71826 -11.30275,0.67282 -14.10882,0.44059 -16.91811,-1.40013 -2.56746,-1.68227 -3.99565,-1.87077 -6.00918,-0.79316 -1.4527,0.77745 -10.686252,1.66872 -20.519003,1.98059 -9.83275,0.31185 -19.288062,0.88372 -21.011803,1.2708 -1.723742,0.38709 -5.084075,-0.15738 -7.467408,-1.20991 z M 112.72727,128.72728 C 115.11718,126.33736 116,124.00783 116,120.09135 c 0,-6.31794 -3.35492,-9.23423 -11.9492,-10.38697 -4.80122,-0.64398 -5.384135,-0.4208 -5.384135,2.06139 0,1.53095 -1.834716,5.89524 -4.077148,9.69841 -2.242432,3.80317 -3.592432,7.38948 -3,7.96957 0.961194,0.94118 5.517563,1.66201 14.804423,2.34211 1.70651,0.12498 4.50855,-1.2238 6.33333,-3.04858 z m 62.53215,-26.14559 c 4.99554,-0.86993 10.07915,-2.663386 11.76774,-4.151543 L 190,95.810164 l -7.33334,0.810718 c -6.05018,0.668861 -55.77504,3.166685 -66.33333,3.332114 -1.65,0.02585 -3,0.647004 -3,1.380334 0,0.73334 3.15,1.36792 7,1.41018 3.85,0.0423 9.4,0.58889 12.33333,1.21474 6.7036,1.43025 30.98038,0.64565 42.59276,-1.37656 z M 112,100 c 0,-0.733332 -0.9,-1.333332 -2,-1.333332 -1.1,0 -2,0.6 -2,1.333332 0,0.73333 0.9,1.33333 2,1.33333 1.1,0 2,-0.6 2,-1.33333 z M 93.333332,98.000002 c -1.833333,-1.048028 -6.033333,-1.917922 -9.333333,-1.933098 -5.824795,-0.02679 -5.902664,0.02641 -2.666667,1.822023 1.833333,1.017287 6.033333,1.88718 9.333333,1.933096 5.853859,0.08145 5.918811,0.03707 2.666667,-1.822021 z m 31.999998,-7.318453 c 0,-0.725149 -4.75463,-3.709034 -10.56584,-6.630856 -5.81122,-2.921821 -10.92288,-5.890094 -11.35926,-6.596162 -1.26649,-2.049226 -14.122587,-7.740547 -21.561761,-9.54527 -6.255782,-1.517636 -7.33161,-1.406988 -12.999999,1.337032 -3.398892,1.645375 -6.179804,3.404564 -6.179804,3.909308 0,4.809547 15.67732,13.73282 29.333333,16.696052 10.163121,2.205306 33.333331,2.782171 33.333331,0.829896 z M 58.185115,83.573485 c -6.928501,-6.452122 -7.886336,-10.918751 -4.06729,-18.966793 1.965836,-4.142691 1.945204,-4.755211 -0.287476,-8.534839 -2.875299,-4.867492 -7.28951,-5.382846 -9.180846,-1.071852 -1.99818,4.554531 -7.686236,4.645209 -11.199715,0.178543 -2.050616,-2.606937 -3.267674,-3.227325 -4.302054,-2.192944 -1.034378,1.034378 -0.419777,2.324908 2.172496,4.56176 1.988222,1.715618 5.318036,6.4799 7.399589,10.587289 5.153444,10.168947 10.1034,15.737054 16.536203,18.601244 8.707502,3.876995 9.532157,2.986654 2.929093,-3.162408 z M 80.450585,37.416891 C 74.196859,34.717747 74.885891,24.253339 81.783327,17.176399 84.200767,14.696047 88.765119,10.881949 91.926331,8.7006273 104.40616,0.08920835 128.04694,4.0667375 141,16.957207 c 5.14928,5.1244 5.66666,6.243991 5.66666,12.262349 0,3.815278 -0.69769,7.054265 -1.64573,7.640187 -2.435,1.504907 -61.199646,2.011962 -64.570345,0.557148 z m 58.216075,-7.903745 c 0,-7.410998 -14.79761,-16.179812 -27.30388,-16.179812 -11.05588,0 -26.029448,8.557653 -26.029448,14.876285 0,2.134849 1.734249,2.419888 16.999998,2.794103 9.35,0.2292 21.35,0.547125 26.66667,0.706503 8.64837,0.25925 9.66666,0.02781 9.66666,-2.197079 z"
       id="path1085" />
  </g>
</svg>
