<?xml version="1.0" encoding="UTF-8" standalone="no"?>
<!-- Created with Inkscape (http://www.inkscape.org/) -->

<svg
   version="1.1"
   id="svg193"
   width="218.66667"
   height="65.333336"
   viewBox="0 0 218.66667 65.333336"
   xmlns="http://www.w3.org/2000/svg"
   xmlns:svg="http://www.w3.org/2000/svg">
  <defs
     id="defs197" />
  <g
     id="g199">
    <path
       style="fill:#000000;stroke-width:1.33333"
       d="M 16.380074,59.455344 C 3.9853793,54.945084 1.9121531,45.326021 11.757833,38.009724 c 4.639539,-3.447628 14.753557,-3.151427 21.14436,0.619239 4.273609,2.521492 6.824142,2.721831 34.854419,2.737731 16.633864,0.0095 50.343388,0.302737 74.910058,0.651778 42.77507,0.607747 44.85019,0.52281 49,-2.005658 C 195.18806,37.867246 196,36.523188 196,32.839612 c 0,-3.462807 -0.85712,-5.094526 -3.6307,-6.911848 -3.3389,-2.187731 -7.00926,-2.33401 -45.66667,-1.820014 -23.11978,0.307404 -56.194531,0.352479 -73.49945,0.10016 -31.206899,-0.455012 -31.516793,-0.431988 -38.000001,2.823263 -3.595081,1.805108 -9.349088,3.692699 -12.78668,4.194646 C 17.075328,32.00572 15.378578,31.641163 10.749832,28.719164 4.8426822,24.990148 3.7765451,20.875588 6.9262472,13.962745 10.411155,6.3142047 22.769174,4.2742868 31.152962,9.9636797 c 4.809356,3.2637173 5.171421,3.2981783 35.85273,3.4123933 17.046871,0.06346 39.394308,-0.242588 49.660978,-0.680105 10.26667,-0.437516 30.80469,-0.860128 45.64005,-0.939136 26.78452,-0.142647 26.98778,-0.165636 29.03074,-3.2835754 2.20404,-3.3637983 5.89893,-3.9992084 10.11976,-1.7402939 2.52204,1.349756 2.53233,1.5399616 0.28884,5.3378903 -2.26835,3.840012 -2.25244,3.990062 0.63805,6.014644 7.80083,5.463911 9.17567,17.107564 3.02288,25.601225 -2.15948,2.981085 -5.00948,5.720673 -6.33333,6.087972 -8.49774,2.357687 -45.79139,3.557431 -117.073659,3.766286 -38.469352,0.11272 -42.994582,0.356096 -46,2.474034 -2.941198,2.072683 -12.870377,5.560402 -14.666667,5.151806 -0.366667,-0.0834 -2.595634,-0.853568 -4.95326,-1.711476 z M 27.425464,49.184265 C 28.560122,47.34835 25.642807,45.380991 21.745356,45.353753 18.529131,45.331274 16.716752,47.256995 18,49.333335 c 1.11795,1.80888 8.285444,1.69552 9.425464,-0.14907 z M 23.333334,18.666667 C 22.880108,17.933334 21.380108,17.333334 20,17.333334 c -1.380108,0 -2.880108,0.6 -3.333333,1.333333 -0.482065,0.779999 0.901273,1.333334 3.333333,1.333334 2.43206,0 3.815399,-0.553335 3.333334,-1.333334 z"
       id="path221" />
  </g>
</svg>
