<?xml version="1.0" encoding="UTF-8" standalone="no"?>
<!-- Created with Inkscape (http://www.inkscape.org/) -->

<svg
   version="1.1"
   id="svg183"
   width="210.66667"
   height="109.33333"
   viewBox="0 0 210.66667 109.33333"
   xmlns="http://www.w3.org/2000/svg"
   xmlns:svg="http://www.w3.org/2000/svg">
  <defs
     id="defs187" />
  <g
     id="g189">
    <path
       style="fill:#000000;stroke-width:1.33333"
       d="M 196.76279,101.08929 C 187.87082,72.975378 182.7161,60.765825 176.74052,53.664265 c -1.87394,-2.227069 -3.40718,-4.671604 -3.40718,-5.432301 0,-1.406915 -11.05868,-12.387669 -15.86822,-15.7564 -2.26592,-1.587105 -3.4575,-1.556608 -8.38649,0.214643 C 135.22467,37.66869 131.97511,38.476044 120,39.914824 108.14587,41.339069 90.922449,41.005691 82.176021,39.182701 80.072832,38.74434 74.140309,36.648903 68.992637,34.526174 57.856942,29.934182 53.574192,29.711287 48.789762,33.474719 42.817807,38.172259 32.497546,40.156773 21.33161,38.754728 7.181725,36.978006 3.6194806,32.772748 5.8501389,20.478727 7.5188545,11.28179 14.599919,6.6666665 27.042223,6.6666665 c 7.375634,0 16.992784,3.0044201 22.13759,6.9158345 4.133193,3.142322 10.623927,3.033194 14.820188,-0.249168 1.833333,-1.434054 4.347923,-2.620713 5.587977,-2.637019 1.240055,-0.01631 2.625464,-0.629648 3.07869,-1.362981 0.453225,-0.7333333 2.253225,-1.3333332 4,-1.3333332 1.746775,0 3.546775,-0.6 4,-1.3333333 0.490116,-0.7930251 8.930336,-1.3333333 20.828162,-1.3333333 21.79183,0 27.78036,1.1520083 41.89121,8.0585888 4.429,2.167776 9.15818,3.941411 10.5093,3.941411 3.455,0 10.75472,-4.758581 13.33077,-8.6901481 3.04943,-4.654007 9.57845,-4.5958572 11.72003,0.1043827 1.44004,3.1605574 1.11596,3.8002654 -4.36192,8.6098174 -3.25466,2.857569 -6.36755,5.221164 -6.91755,5.252432 -2.18652,0.124306 -0.81993,3.868137 2.11357,5.790243 8.43316,5.525619 17.2135,17.358304 24.78884,33.406273 5.92591,12.553731 7.21454,16.136915 9.42342,26.202906 2.27842,10.382971 1.54842,13.890201 -3.00008,14.413381 -2.1818,0.25097 -3.89983,-0.29062 -4.22963,-1.33333 z M 116.92382,31.351503 c 12.41385,-0.834717 24.40952,-4.219409 24.40952,-6.88738 0,-0.988601 -0.1526,-1.797457 -0.33911,-1.797457 -0.18652,0 -4.23652,-1.409237 -9,-3.13164 -11.68877,-4.22647 -28.1151,-5.384356 -43.327562,-3.054141 -13.049739,1.998933 -22.670784,5.355073 -21.372654,7.455493 2.422124,3.91908 23.913993,9.475217 33.372656,8.627592 2.93333,-0.262867 10.24905,-0.808478 16.25715,-1.212467 z M 39.333334,27.602311 c 5.400249,-3.058384 6.319977,-4.953904 3.102961,-6.395077 -0.973296,-0.436021 -3.180112,-1.528879 -4.904036,-2.428572 -4.864878,-2.538914 -17.274272,-2.092104 -20.397559,0.734431 -2.783552,2.51908 -2.427469,8.170029 0.637679,10.119799 3.479396,2.213279 16.179412,1.017208 21.560955,-2.030581 z"
       id="path360" />
  </g>
</svg>
