<?xml version="1.0" encoding="UTF-8" standalone="no"?>
<!-- Created with Inkscape (http://www.inkscape.org/) -->

<svg
   version="1.1"
   id="svg173"
   width="153.33333"
   height="153.33333"
   viewBox="0 0 153.33333 153.33333"
   xmlns="http://www.w3.org/2000/svg"
   xmlns:svg="http://www.w3.org/2000/svg">
  <defs
     id="defs177" />
  <g
     id="g179">
    <path
       style="fill:#000000;stroke-width:1.33333"
       d="m 131.27365,148.16254 c -0.35901,-0.35901 -27.89289,-0.55614 -61.186401,-0.43808 -55.571543,0.19708 -60.7623367,0.0259 -63.3233941,-2.08822 C 4.1412011,143.47126 3.9723908,142.01568 3.9453323,121.33333 3.9055956,90.960479 5.3859284,86.646129 15.829926,86.696313 c 8.816073,0.04236 14.83674,6.201794 14.83674,15.178707 0,1.71842 2.458344,5.8757 5.554431,9.39304 4.892917,5.55864 6.02905,6.21524 9.53959,5.51313 5.625708,-1.12514 7.007972,-2.64014 8.947338,-9.80653 2.363239,-8.732693 4.888388,-13.568079 9.774578,-18.717251 l 4.184062,-4.409257 -0.04898,-27.07408 C 68.578304,35.002779 68.177187,29.110325 66.569727,26.689362 64.477288,23.537982 57.969353,19.301936 48.236392,14.756106 37.423081,9.7056949 43.566935,2.8662069 57.14696,4.8366455 62.503143,5.6138184 71.645381,10.510622 80.106638,17.134405 l 3.439975,2.692937 -0.408624,27.752994 c -0.224744,15.264148 -0.77256,29.025937 -1.217369,30.581756 -0.616948,2.15791 0.595218,4.213236 5.111327,8.666666 4.342171,4.281904 6.503959,7.847187 8.11073,13.376452 1.20486,4.1462 2.190654,7.92128 2.190654,8.38908 0,0.4678 1.187762,2.12546 2.639469,3.68368 5.59063,6.00083 14.75138,2.3211 16.87867,-6.7799 1.4221,-6.084045 7.65422,-14.758559 12.13352,-16.888691 3.42417,-1.628366 5.39566,-1.763484 9.52135,-0.65255 9.08631,2.446688 10.01583,5.279245 10.51523,32.043171 0.25539,13.68712 -0.10053,24.12661 -0.86099,25.2522 -1.23854,1.83328 -15.50523,4.29204 -16.88693,2.91034 z M 37.333333,137.19261 c 9.363447,0.45423 75.526967,-0.30759 85.999997,-0.99021 l 13.33333,-0.86907 0.38523,-10.87472 c 0.43735,-12.34583 -1.03428,-23.34163 -3.22152,-24.07071 -0.81234,-0.27078 -2.51444,1.78117 -3.78246,4.55989 -4.49087,9.84125 -10.5479,17.53934 -15.58893,19.81253 C 104.05913,129.45 94.451327,123.95534 87.718509,109.46757 78.480676,89.589483 71.056728,89.454035 64.516845,109.04427 60.870857,119.96583 55.648584,124.88425 46.344195,126.15956 35.07171,127.70463 29.868511,123.34191 21.108241,105 c -2.01392,-4.21667 -4.167151,-7.666669 -4.784957,-7.666669 -4.306335,0 -5.107994,6.382029 -3.460233,27.546979 1.016646,13.05849 2.268079,14.18226 14.470282,12.99419 4.4,-0.42841 8.9,-0.73526 10,-0.68189 z"
       id="path499" />
  </g>
</svg>
