<?xml version="1.0" encoding="UTF-8" standalone="no"?>
<!-- Created with Inkscape (http://www.inkscape.org/) -->

<svg
   version="1.1"
   id="svg83"
   width="56"
   height="210.66667"
   viewBox="0 0 56 210.66667"
   xmlns="http://www.w3.org/2000/svg"
   xmlns:svg="http://www.w3.org/2000/svg">
  <defs
     id="defs87" />
  <g
     id="g89">
    <path
       style="fill:#000000;stroke-width:1.33333"
       d="m 36.776363,201 c -1.699112,-8.38685 -2.113151,-22.28517 -1.906566,-63.9989 0.328027,-66.234716 -0.104381,-80.905132 -2.525041,-85.667766 -1.118173,-2.2 -5.103179,-8.501615 -8.855567,-14.003588 C 19.736803,31.827773 15.942377,26.127772 15.057135,24.663079 14.171892,23.198386 11.838017,19.350036 9.8707453,16.111191 7.2287135,11.761445 6.6391028,9.6706134 7.6147597,8.1111907 9.5449415,5.0261215 15.443008,4.7274119 17.986753,7.5858976 22.465925,12.619282 32.48464,27.412467 35.556876,33.529151 c 1.759265,3.502619 3.713117,6.686347 4.341893,7.074952 0.628775,0.388604 2.711251,3.70534 4.627722,7.370523 l 3.484494,6.663968 -0.650418,72.061066 c -0.420575,46.59646 -1.145844,72.98678 -2.052404,74.6807 -2.002762,3.7422 -7.748498,3.48604 -8.5318,-0.38036 z"
       id="path638" />
  </g>
</svg>
