<?xml version="1.0" encoding="UTF-8" standalone="no"?>
<!-- Created with Inkscape (http://www.inkscape.org/) -->

<svg
   version="1.1"
   id="svg2"
   width="198.66667"
   height="213.33333"
   viewBox="0 0 198.66667 213.33333"
   xmlns="http://www.w3.org/2000/svg"
   xmlns:svg="http://www.w3.org/2000/svg">
  <defs
     id="defs6" />
  <g
     id="g8">
    <path
       style="fill:#000000;stroke-width:1.33333"
       d="m 7.5744371,206.93308 c -1.7028605,-1.88164 -2.4083113,-6.44399 -3.0953348,-20.0184 -0.5178148,-10.23115 -0.385898,-17.61027 0.3155387,-17.65051 0.6629475,-0.038 17.927643,-0.38039 38.365989,-0.76075 20.438347,-0.38036 38.675459,-1.2675 40.526917,-1.97142 3.327872,-1.26526 3.356393,-1.40492 2.499358,-12.23927 -0.476809,-6.02767 -1.811604,-14.2594 -2.96621,-18.29273 -1.154606,-4.03334 -2.556084,-9.43334 -3.114398,-12 -1.512502,-6.95325 -6.670601,-18.16073 -9.562922,-20.77825 -1.398857,-1.26594 -2.543374,-3.04527 -2.543374,-3.954061 0,-0.908789 -1.840295,-3.622385 -4.089543,-6.030213 -6.292522,-6.736167 -9.24379,-10.766787 -9.24379,-12.624471 0,-0.93172 1.95,-4.072726 4.333333,-6.980014 2.383333,-2.907287 5.233333,-6.617075 6.333333,-8.243972 1.1,-1.626897 3.35,-4.435889 5.000001,-6.242203 1.65,-1.806314 3,-4.107261 3,-5.113213 0,-1.005952 1.390341,-3.525038 3.089648,-5.59797 4.538032,-5.535807 13.169039,-21.222849 16.902355,-30.720401 5.52319,-14.0509842 5.328076,-13.9261613 21.612902,-13.8267203 7.76106,0.047392 15.08011,0.4580449 16.26456,0.9125624 4.86735,1.8677773 3.92676,11.8698839 -2.24428,23.8655919 -3.8216,7.428681 -23.01282,33.133189 -32.804249,43.93764 -4.484848,4.948851 -8.15427,9.463946 -8.15427,10.033543 0,0.569596 0.9,1.782564 2.000001,2.695483 1.1,0.912919 2,2.736643 2,4.052719 0,1.316077 1.266908,5.29261 2.81535,8.836741 2.468894,5.650888 2.927775,10.088648 3.728914,36.061668 0.50246,16.2898 1.216812,29.92106 1.587454,30.2917 0.37063,0.37064 20.58037,0.84704 44.91051,1.05866 53.97165,0.46946 49.84711,-1.2309 49.94512,20.59014 0.0851,18.93778 -0.68799,20.41961 -10.70092,20.51206 -35.24105,0.32538 -102.661382,1.26478 -135.06312,1.8819 -37.053173,0.7057 -39.5770084,0.60354 -41.6488729,-1.68584 z M 134.43786,195.33982 c 23.70749,-0.25744 43.95749,-0.79538 45,-1.19544 1.2853,-0.49321 1.89548,-2.85278 1.89548,-7.32993 0,-6.14367 -0.25486,-6.65139 -3.66667,-7.30487 -11.28388,-2.16122 -156.830708,-1.00766 -160.519676,1.27224 -1.743987,1.07786 -1.369132,13.12938 0.465444,14.96395 1.220612,1.22061 10.373697,1.42407 37.666667,0.83728 19.829827,-0.42633 55.451265,-0.98579 79.158755,-1.24323 z M 77.504276,87.399144 c -1.560684,-3.320212 -2.837608,-6.556245 -2.837608,-7.191184 0,-0.634939 4.488371,-5.836162 9.974156,-11.558274 5.485787,-5.722114 12.462578,-14.522316 15.503976,-19.556008 3.04141,-5.033692 6.24947,-9.589007 7.12903,-10.122923 0.87956,-0.533916 3.03374,-3.670756 4.78707,-6.970755 1.75333,-3.3 3.91015,-6.9 4.79294,-8 0.88278,-1.1 2.01686,-3.65 2.52016,-5.666667 0.87141,-3.491636 0.68542,-3.666667 -3.89612,-3.666667 -4.97079,0 -10.14454,3.656766 -10.14454,7.170074 0,1.010208 -0.86931,2.558202 -1.9318,3.439989 -1.06249,0.881788 -2.6236,3.699431 -3.469137,6.261429 -0.845536,2.562 -4.176227,8.593455 -7.401536,13.403235 -3.22531,4.809778 -5.864199,9.328587 -5.864199,10.041797 0,0.713209 -1.8,3.963837 -4,7.223618 -2.2,3.259783 -4.024384,6.346798 -4.054188,6.860034 -0.0298,0.513236 -1.829803,3.010493 -4,5.549458 -2.170196,2.538965 -3.945812,5.358887 -3.945812,6.266491 0,2.191753 8.097756,14.130564 8.983551,13.244768 0.380414,-0.380415 -0.585259,-3.408202 -2.145943,-6.728415 z"
       id="path30" />
  </g>
</svg>
