<?xml version="1.0" encoding="UTF-8" standalone="no"?>
<!-- Created with Inkscape (http://www.inkscape.org/) -->

<svg
   version="1.1"
   id="svg223"
   width="209.33333"
   height="218.66667"
   viewBox="0 0 209.33333 218.66667"
   xmlns="http://www.w3.org/2000/svg"
   xmlns:svg="http://www.w3.org/2000/svg">
  <defs
     id="defs227" />
  <g
     id="g229">
    <path
       style="fill:#000000;stroke-width:1.33333"
       d="m 53.630007,212.59107 c -1.85506,-1.29935 -2.963341,-3.46328 -2.963341,-5.78599 0,-5.82713 4.636981,-7.24776 17.512153,-5.36516 11.305802,1.65312 14.487846,0.7326 14.487846,-4.19116 0,-1.33358 0.56065,-2.77121 1.245887,-3.19472 2.003201,-1.23804 5.42078,-14.6001 5.42078,-21.1942 0,-9.60252 -4.98528,-25.29518 -12.133293,-38.19317 -0.609616,-1.1 -2.987104,-5.9 -5.283307,-10.66667 -2.296202,-4.76666 -4.709192,-9.56666 -5.362197,-10.66666 -5.061285,-8.52583 -5.25264,-9.25336 -3.935517,-14.962903 1.501432,-6.508492 1.760936,-14.495524 0.571662,-17.59472 -1.023932,-2.668325 -5.413872,-2.680652 -13.200375,-0.03707 -7.237826,2.457305 -11.022512,1.592044 -12.117391,-2.7703 -2.115304,-8.428045 5.999052,-16.635017 16.44729,-16.635017 3.750383,0 7.079024,-0.907086 9.067032,-2.470854 2.614823,-2.05682 4.790611,-2.365 12.984573,-1.839143 7.188175,0.461308 10.877092,0.09009 13.67552,-1.376145 2.785304,-1.459369 4.623072,-1.647478 6.727549,-0.688614 2.91414,1.327771 4.013932,5.775264 6.605092,26.710653 0.74596,6.026974 1.28402,6.720529 11.03544,14.224634 10.25327,7.890299 32.25125,29.659789 32.25125,31.916269 0,0.65818 0.95036,1.98541 2.11191,2.94941 2.73039,2.26602 12.99324,19.4536 19.35796,32.41949 1.75824,3.5818 8.37884,12.04508 14.71245,18.80728 12.54796,13.39708 13.91007,15.84364 11.84492,21.27539 -1.19912,3.1539 -1.88242,3.50224 -5.36838,2.73658 -2.89007,-0.63476 -4.20271,-0.33445 -4.74787,1.08623 -1.01152,2.63599 -13.60481,4.13191 -20.1444,2.39291 -2.80496,-0.7459 -6.73596,-1.69138 -8.73556,-2.10108 -2.85803,-0.58558 -4.38212,-2.38094 -7.12563,-8.39395 -5.12258,-11.22724 -5.83693,-11.80049 -8.74532,-7.01804 -2.7933,4.59324 -4.56481,4.98767 -8.08659,1.80049 -2.88996,-2.61537 -5.61872,-0.86849 -4.83233,3.09354 0.42197,2.12601 1.79537,2.47496 9.74118,2.47496 8.78502,0 9.31292,0.17645 10.50298,3.51065 2.56107,7.17527 1.99971,7.34743 -27.36766,8.39333 -14.91471,0.53119 -31.917655,1.51554 -37.784321,2.18744 -15.888663,1.81975 -24.962357,1.55311 -28.369992,-0.83369 z M 114.24932,198.45975 C 115.23042,197.64551 116,194.31043 116,190.87292 v -6.13388 l -3.92484,4.29715 c -4.12152,4.51249 -6.56273,5.27624 -9.0177,2.82128 -1.07893,-1.07893 -2.10844,-0.51044 -3.827903,2.11379 -1.849149,2.82216 -1.987641,3.81486 -0.647733,4.64297 2.590066,1.60076 13.684376,1.49136 15.667496,-0.15448 z M 172,197.51315 c 0,-0.63444 -1.21596,-2.69937 -2.70215,-4.58873 -1.48617,-1.88938 -3.57927,-5.5345 -4.65131,-8.10026 -1.07205,-2.56577 -3.90609,-6.0809 -6.29786,-7.81142 -4.39635,-3.1809 -14.08376,-7.05543 -15.0999,-6.0393 -0.30336,0.30336 1.15804,2.30844 3.24758,4.45574 2.08953,2.14729 4.269,5.40416 4.84324,7.23749 1.63856,5.23121 7.54925,12.21623 11.96564,14.14052 4.67445,2.03673 8.69476,2.36316 8.69476,0.70596 z M 125.99342,173 c -0.54135,-1.65 -1.26842,-5.7 -1.61571,-9 -0.69417,-6.596 -6.91551,-14.66666 -11.30593,-14.66666 -3.15881,0 -3.03622,1.11476 0.73578,6.69049 1.72749,2.55356 4.82485,8.09284 6.88302,12.30951 3.6574,7.49309 7.27452,10.67628 5.30284,4.66666 z M 103.40547,161.94228 101.34976,158 l -0.008,4.2706 c -0.005,2.34883 0.74179,5.93547 1.65846,7.97031 l 1.66666,3.69971 0.39726,-4.02802 c 0.21849,-2.21541 -0.52782,-5.80205 -1.65846,-7.97032 z M 152,157.53972 C 152,155.9521 130.8228,128 129.61998,128 c -0.54364,0 -3.50169,-3.21794 -6.57344,-7.15099 -3.07174,-3.93304 -7.57284,-8.09428 -10.00243,-9.2472 -2.42959,-1.15292 -5.773,-3.53914 -7.4298,-5.30272 l -3.01235,-3.2065 -5.906746,2.78704 c -3.248707,1.53287 -5.934147,3.69955 -5.967645,4.81484 -0.06529,2.17405 21.027271,23.47524 26.666671,26.9304 1.86683,1.14379 7.26683,5.18973 12,8.991 4.73317,3.80125 10.2423,7.24007 12.24252,7.64177 2.00022,0.40172 4.32369,1.5581 5.16326,2.56971 1.67622,2.01973 5.19998,2.50247 5.19998,0.71237 z M 84.266852,98.762766 c 3.886564,-2.147146 7.04444,-4.397146 7.017504,-5.000001 -0.0419,-0.937821 -1.578564,-8.602636 -4.028912,-20.096097 -0.519153,-2.435115 -1.540728,-3 -5.425392,-3 -4.313787,0 -4.710669,0.299376 -4.023981,3.035358 0.751597,2.994603 -0.772175,18.165107 -2.541006,25.297976 -1.162817,4.689098 0.147088,4.654578 9.001787,-0.237236 z M 6.8709276,41.004262 C 6.0252507,40.158585 5.3333332,38.57467 5.3333332,37.484453 5.3333332,34.485425 17.413296,8.8988212 19.701281,7.0516624 22.710465,4.6222579 25.88687,6.979121 30.52205,15.080571 37.981254,28.117899 41.618466,29.228032 45.402981,19.622459 47.646905,13.927099 53.070418,6.6636506 55.067854,6.6787638 55.9472,6.6854172 59.83426,11.485417 63.705766,17.345431 67.577271,23.205444 71.253384,28 71.874907,28 72.49643,28 74.354829,24.862116 76.004684,21.026926 79.92928,11.903955 82.784063,8.0933913 85.732753,8.0419 c 3.282663,-0.057324 10.632617,7.404088 14.163889,14.378676 1.602278,3.16465 3.631008,5.515556 4.508298,5.224236 0.87728,-0.291321 3.58273,-4.08058 6.01211,-8.420576 7.93329,-14.1725485 9.64769,-14.2796839 19.30585,-1.206454 3.51426,4.756886 7.19819,8.648885 8.1865,8.648885 0.9883,0 3.1202,-2.85 4.73753,-6.333333 3.20803,-6.909303 8.89313,-13.6666672 11.49804,-13.6666672 0.90533,0 3.34308,2.7219035 5.41721,6.0486742 8.3037,13.318583 9.27439,14.617993 10.92002,14.617993 0.94013,0 3.91622,-4.2 6.61356,-9.333334 6.85645,-13.0486237 9.17048,-12.8747259 17.74246,1.333334 8.9351,14.809931 10.03522,17.697991 7.65007,20.083133 -2.81005,2.810059 -6.37673,-0.169262 -11.16953,-9.330156 -2.49955,-4.777595 -4.65582,-7.357683 -5.94206,-7.109976 -1.11034,0.213835 -3.43062,3.381639 -5.15616,7.039561 -7.01437,14.869621 -11.01505,15.214817 -19.13174,1.650771 C 157.90732,26.35 154.42208,22 153.34382,22 c -1.08322,0 -3.81553,3.784024 -6.1062,8.456575 -6.75714,13.783415 -10.09546,14.257539 -17.90832,2.543426 -3.05691,-4.583334 -6.36352,-8.789066 -7.34803,-9.346071 -1.78449,-1.009614 -5.44563,3.29042 -11.43587,13.431511 -4.11788,6.971298 -8.33925,5.596117 -15.610724,-5.085441 -3.244908,-4.766666 -6.611679,-8.83736 -7.481711,-9.045984 -0.870032,-0.208625 -2.648137,1.891375 -3.951344,4.666667 -8.400096,17.888736 -12.934462,18.026416 -23.470575,0.712651 -2.342879,-3.85 -4.661847,-7 -5.153264,-7 -0.491418,0 -1.654294,1.718784 -2.584169,3.819521 -0.929878,2.100736 -3.532886,6.600736 -5.784464,10 -6.265212,9.458743 -9.873942,8.238019 -18.185192,-6.151499 -2.011509,-3.482588 -4.350737,-6.332588 -5.198283,-6.333333 -0.847545,-7.45e-4 -3.342309,3.847972 -5.54392,8.552708 -4.224842,9.028279 -8.0092798,12.485078 -10.7108264,9.783531 z"
       id="path282" />
  </g>
</svg>
