<?xml version="1.0" encoding="UTF-8" standalone="no"?>
<!-- Created with Inkscape (http://www.inkscape.org/) -->

<svg
   version="1.1"
   id="svg213"
   width="213.33333"
   height="116"
   viewBox="0 0 213.33333 116"
   xmlns="http://www.w3.org/2000/svg"
   xmlns:svg="http://www.w3.org/2000/svg">
  <defs
     id="defs217" />
  <g
     id="g219">
    <path
       style="fill:#000000;stroke-width:1.33333"
       d="M 7.3788728,107.71072 C 3.9246745,104.73954 3.8172002,104.29715 5.2536117,98.962731 8.5068785,86.881019 22.474354,80.124472 34.70881,84.714243 c 9.279212,3.481108 14.214827,3.804509 20.63619,1.352168 6.15369,-2.350115 11.848075,-2.953124 35.988332,-3.810996 8.066666,-0.286666 21.991678,-1.002268 30.944468,-1.590228 l 16.2778,-1.069019 5.38886,-9.307884 c 7.9219,-13.683036 7.27766,-15.000447 -2.74906,-5.621617 -3.52798,3.3 -7.38635,6 -8.57418,6 -3.77299,0 -9.95456,-7.385663 -9.95456,-11.893595 0,-2.811255 -1.46545,-5.720811 -4.66536,-9.262725 -2.56595,-2.840202 -5.05058,-7.090096 -5.52141,-9.444211 -0.78126,-3.906305 -0.26413,-4.797995 5.91975,-10.207501 3.72668,-3.260011 7.13792,-7.068276 7.58052,-8.462812 0.44261,-1.394535 2.89056,-3.766179 5.43989,-5.270319 3.13503,-1.849715 4.89703,-4.044235 5.44433,-6.780782 1.47548,-7.3773963 8.36639,-7.065958 36.46895,1.648233 10.84581,3.363126 15.76515,6.785978 18.22949,12.683978 1.06028,2.537618 3.0924,4.918403 4.51582,5.290634 1.42341,0.37223 2.58802,1.760769 2.58802,3.085641 0,1.324872 1.37336,4.104893 3.05191,6.177825 4.56859,5.642 6.18364,10.25053 7.11891,20.313596 0.93722,10.084152 1.51112,9.047806 -10.15834,18.344152 -6.8882,5.487403 -11.50772,11.760924 -12.71909,17.273106 -1.65607,7.535653 -3.673,11.213973 -6.46217,11.785183 -1.55718,0.3189 -26.53122,0.94967 -55.49788,1.40171 -28.966668,0.45204 -55.966668,1.00081 -60.000001,1.21948 -4.033333,0.21867 -17.604496,0.8193 -30.15814,1.33474 -22.6646,0.93057 -22.850341,0.91518 -26.4629862,-2.19228 z M 31.333333,97.333333 C 31.800697,96.577123 30.680512,96 28.745356,96 c -1.876612,0 -3.412023,0.6 -3.412023,1.333333 0,0.733334 1.164589,1.333334 2.587977,1.333334 1.423388,0 2.958798,-0.6 3.412023,-1.333334 z M 173.0434,96.845857 c 0.85104,-0.52597 2.67848,-3.481458 4.06097,-6.56775 1.38251,-3.086292 4.99959,-8.895294 8.03797,-12.908891 5.8074,-7.671384 6.83938,-11.951297 3.54164,-14.68818 -2.68624,-2.22938 -7.69864,-0.778704 -12.99286,3.760361 -2.39679,2.054911 -6.63607,5.112658 -9.42064,6.794992 -3.44079,2.078804 -5.31383,4.31371 -5.84624,6.975712 -1.33692,6.684618 -7.45284,8.694111 -29.76107,9.778519 -14.92961,0.725731 -48.304506,4.547496 -54.488721,6.239512 -0.462614,0.126573 3.058883,0.576572 7.82555,1 12.278147,1.090679 87.179891,0.767435 89.043401,-0.384275 z m -11.52978,-29.96542 c 6.74675,-7.004217 10.35428,-9.633062 15.55256,-11.333333 9.92723,-3.247032 13.13807,-2.865261 17.82638,2.119563 L 198.96812,62 198.27665,53.66106 c -0.55048,-6.638736 -1.65864,-9.796052 -5.43515,-15.485595 -7.90402,-11.907936 -18.89317,-20.068398 -25.93004,-19.255485 -3.25346,0.375847 -3.61501,0.988023 -3.98452,6.746687 -0.24444,3.809509 0.15406,6.333333 1,6.333333 1.96387,0 1.72927,4.840525 -0.60804,12.545241 -1.09206,3.599883 -1.98557,8.31354 -1.98557,10.474795 0,2.346153 -1.59568,5.944263 -3.96003,8.929499 C 153.21506,69.199732 150.03101,76 151.73097,76 c 0.54907,0 4.95127,-4.103804 9.78265,-9.119563 z m -23.38694,-12.35565 c 1.397,-1.5447 4.81488,-3.969595 7.5953,-5.388655 10.0406,-5.124469 13.56868,-12.614532 7.47742,-15.874475 -2.11802,-1.13353 -2.66175,-2.444826 -2.23092,-5.380245 C 151.41428,24.844004 151.02561,24 149.18109,24 147.88472,24 146.45322,23.4 146,22.666667 c -1.05498,-1.706992 -5.59578,-1.732734 -6.64339,-0.03767 -0.44043,0.71262 0.20927,2.837199 1.44377,4.721285 4.3853,6.692798 -1.8357,12.689798 -8.71021,8.396595 -1.99219,-1.244145 -2.9952,-1.208919 -4.64857,0.16326 -2.90443,2.410465 -2.65377,4.500923 1.22506,10.216705 C 130.5,48.828413 132,52.055059 132,53.297168 c 0,4.672177 2.5495,5.183025 6.12668,1.227613 z"
       id="path439" />
  </g>
</svg>
