<?xml version="1.0" encoding="UTF-8" standalone="no"?>
<!-- Created with Inkscape (http://www.inkscape.org/) -->

<svg
   version="1.1"
   id="svg203"
   width="186.66667"
   height="204"
   viewBox="0 0 186.66667 204"
   xmlns="http://www.w3.org/2000/svg"
   xmlns:svg="http://www.w3.org/2000/svg">
  <defs
     id="defs207" />
  <g
     id="g209">
    <path
       style="fill:#000000;stroke-width:1.33333"
       d="m 93.872018,198.52524 c -1.799415,-1.98832 -2.729642,-2.16008 -5.030364,-0.92877 -1.842123,0.98588 -16.812765,1.72876 -43.094595,2.13845 l -40.2718906,0.62777 -0.8946147,-3.56442 c -0.585103,-2.33124 0.4209089,-7.81422 2.9077839,-15.84802 3.5068044,-11.32868 4.4777914,-12.97628 12.4903644,-21.19408 5.508612,-5.6497 10.151761,-9.21133 12.687965,-9.73257 2.2,-0.45215 6.22409,-1.47991 8.942422,-2.28392 6.720333,-1.98769 19.036299,0.70205 28.01904,6.11923 6.545139,3.94714 18.141431,17.77452 18.304189,21.82585 0.03723,0.92661 0.623885,2.72661 1.303686,4 0.679802,1.27339 1.560971,3.36524 1.958154,4.64857 0.975521,3.152 3.47251,2.96888 3.47251,-0.25464 0,-1.42338 0.6,-2.9588 1.333334,-3.41202 0.733333,-0.45323 1.333333,-1.97039 1.333333,-3.37147 0,-3.49188 4.711635,-11.71176 9.789515,-17.07871 7.00849,-7.40745 18.93121,-12.40185 30.21049,-12.6551 6.00926,-0.13492 17.78032,3.74018 23.81273,7.83932 6.47236,4.39808 17.24156,18.64133 19.05317,25.19958 3.2672,11.82756 3.50783,13.95731 1.83538,16.24452 -1.92399,2.6312 -2.39104,2.66304 -51.66145,3.52202 -31.970235,0.55736 -34.443052,0.4326 -36.501152,-1.84159 z M 70.264136,187.73289 c 7.903759,-1.14276 11.069199,-2.14022 11.069199,-3.48802 0,-1.03818 -2.131254,-4.79095 -4.736119,-8.33948 -14.766042,-20.11538 -31.204802,-22.61358 -50.239848,-7.63495 -3.621172,2.84948 -5.52858,5.77643 -7.005646,10.75025 -1.116326,3.75907 -1.56552,7.29884 -0.998211,7.86615 0.567309,0.56732 9.119852,1.21883 19.005648,1.44783 9.885797,0.22898 18.843035,0.54736 19.904977,0.7075 1.06194,0.16014 6.91194,-0.42904 13,-1.30928 z m 93.581294,-0.30402 c 1.08527,-0.67074 0.52356,-1.80364 -1.80075,-3.63194 -2.79006,-2.19466 -3.37801,-3.78884 -3.37801,-9.15918 0,-5.8392 -0.46639,-6.85778 -4.57496,-9.99154 -3.04496,-2.3225 -7.28748,-3.8729 -12.68581,-4.63596 -8.97057,-1.26797 -13.74869,-0.33065 -20.9258,4.10506 -4.46359,2.75865 -4.70723,3.26234 -3.92977,8.12433 0.45587,2.85083 0.2007,6.35705 -0.56704,7.7916 -1.05811,1.97708 -0.85346,3.43612 0.84571,6.02939 l 2.24162,3.42113 21.59877,-0.53904 c 11.87933,-0.29648 22.30855,-0.97771 23.17604,-1.51385 z M 110,102.58797 c -5.86666,-1.33804 -12.972028,-2.46772 -15.789693,-2.51039 -3.004577,-0.0455 -6.524892,-1.180287 -8.513144,-2.744247 -1.864566,-1.466666 -4.22624,-2.666666 -5.248166,-2.666666 -1.021926,0 -7.391012,-3.603298 -14.153522,-8.00733 C 57.47565,80.915497 52.748821,76.799396 49.573821,72.098197 41.602442,60.295033 39.378289,45.140632 43.52319,30.871876 46.373822,21.058623 48.247454,18.363608 56.182497,12.662848 69.981363,2.7493493 84.433182,1.4372352 99.310008,8.7472009 110.3189,14.156595 114.42342,20.961492 114.54179,34 c 0.13727,15.120903 -2.85311,21.088925 -14.39893,28.736559 -6.045242,4.004204 -11.89718,4.430665 -15.409525,1.12297 -0.696667,-0.656074 -3.184512,-1.192862 -5.528544,-1.192862 -4.974415,0 -10.37991,-5.364736 -14.369075,-14.26073 -3.19967,-7.135385 -2.111315,-13.526986 3.365524,-19.76476 4.794745,-5.460913 10.553643,-7.313872 17.387698,-5.59459 6.698841,1.685264 9.350638,5.053084 10.097297,12.823714 0.591984,6.160895 0.395816,6.682704 -3.194425,8.497235 -5.00338,2.528739 -7.158475,1.614656 -7.158475,-3.036264 0,-2.078911 -0.364193,-4.728911 -0.809319,-5.888889 -1.270501,-3.310875 -6.837059,-2.554924 -9.342405,1.268718 -2.067582,3.155528 -2.060827,3.715671 0.102666,8.513427 3.551096,7.874927 11.385926,10.199669 20.932195,6.210983 C 101.91669,49.053808 107.39186,39.108647 106.03628,33.598696 104.50811,27.387253 98.722524,18.764032 94.681028,16.674092 88.82344,13.645016 72.752491,13.984111 67.471052,17.248219 49.89749,28.109277 48.654768,54.410325 64.9342,70.938284 c 3.464389,3.517277 6.717964,6.395049 7.230167,6.395049 0.512201,0 5.61153,2.191779 11.331841,4.870619 12.324272,5.771497 20.503402,8.104476 36.911492,10.528473 4.82699,0.7131 10.25897,4.510752 10.25897,7.172336 0,2.320719 -4.18296,5.428979 -7.09524,5.272299 -1.59762,-0.0859 -7.70476,-1.25104 -13.57143,-2.58909 z"
       id="path578" />
  </g>
</svg>
