<?xml version="1.0" encoding="UTF-8" standalone="no"?>
<!-- Created with Inkscape (http://www.inkscape.org/) -->

<svg
   version="1.1"
   id="svg164"
   width="230.66667"
   height="334.66666"
   viewBox="0 0 230.66667 334.66666"
   xmlns="http://www.w3.org/2000/svg"
   xmlns:svg="http://www.w3.org/2000/svg">
  <defs
     id="defs168" />
  <g
     id="g170">
    <path
       style="fill:#000000;stroke-width:1.33333"
       d="m 9.4873024,323.51885 c -1.9967015,-2.40588 -1.3260439,-12.17079 1.1541826,-16.80514 2.339897,-4.37213 16.649371,-12.0709 24.965286,-13.4318 19.091059,-3.12424 39.113337,7.09412 41.708489,21.28591 1.730298,9.46227 2.014996,9.37575 -33.98273,10.32757 -28.884146,0.76375 -32.180202,0.6297 -33.8452276,-1.37654 z m 59.8460316,-8.61688 c 0,-4.58687 -5.720706,-9.2432 -15.333333,-12.48044 -13.74627,-4.62934 -26.046313,-2.00331 -35.290687,7.53446 -7.8528,8.10203 -6.439024,8.6137 23.897703,8.64884 l 26.726317,0.031 z m 80.517526,0.48622 c -2.24115,-1.63961 -2.52575,-3.7805 -2.59247,-19.50213 -0.0701,-16.53072 -0.25771,-17.78168 -2.93215,-19.55744 -1.57145,-1.04341 -8.38805,-7.9942 -15.148,-15.4462 -6.75994,-7.452 -13.80088,-14.3761 -15.64653,-15.38689 -2.43061,-1.33115 -8.1585,-1.78108 -20.777053,-1.63208 -25.900168,0.30583 -46.08799,1.49977 -46.08799,2.72573 0,0.59636 0.928955,1.85526 2.064343,2.79755 2.691335,2.23361 1.950263,7.12278 -1.169807,7.71772 -5.20384,0.99226 -10.053405,-2.6554 -15.487525,-11.64917 -5.980356,-9.89784 -6.387827,-11.46027 -3.297962,-12.64596 3.314208,-1.27179 4.091288,-1.02955 8.442409,2.63168 3.626469,3.05146 4.58139,3.27925 8.435634,2.01226 4.93467,-1.62214 71.989661,-2.44226 76.614021,-0.93701 1.61395,0.52535 5.41637,0.28685 8.44984,-0.52997 3.03346,-0.81683 14.31296,-1.67318 25.06556,-1.90299 10.75258,-0.22981 22.61486,-0.85856 26.36061,-1.3972 5.31008,-0.7636 7.2194,-0.53389 8.66667,1.04265 1.51861,1.65426 2.21997,1.71236 3.85621,0.31948 1.16453,-0.99133 7.38856,-2.00608 14.89951,-2.42918 14.42422,-0.81255 18.11618,0.41365 16.50737,5.48256 -0.8734,2.75184 -1.68676,2.8984 -16.08471,2.8984 -9.64685,0 -15.49665,-0.53695 -16.07681,-1.47568 -0.6354,-1.02811 -1.25143,-0.927 -2.031,0.33333 -0.71843,1.16145 -3.88043,1.84937 -8.83333,1.92176 -14.881,0.21751 -15.0477,0.25969 -15.0477,3.80856 0,1.79005 0.52251,3.57757 1.16112,3.97225 0.63862,0.3947 1.50878,2.45588 1.93368,4.58044 0.42491,2.12455 2.87531,8.28703 5.44531,13.69441 l 4.67276,9.83159 -2.75415,2.33333 c -1.51477,1.28334 -3.59313,2.33334 -4.61857,2.33334 -1.41635,0 -1.78139,1.79609 -1.51895,7.47341 l 0.34547,7.47341 -7.33333,2.27574 c -6.86616,2.13076 -7.31139,2.5253 -6.98894,6.19325 0.78995,8.98551 -3.46633,14.31693 -8.49354,10.63905 z m 10.44698,-34.19002 c -0.85934,-13.66514 -3.95761,-15.92554 -4.112,-3 -0.0977,8.17881 0.54528,10.23797 2.93635,9.4037 0.93523,-0.3263 1.39899,-2.8524 1.17565,-6.4037 z m -13.04929,-21.06098 c 0.95907,-1.55181 -0.62241,-16.71206 -1.97099,-18.8941 -0.80232,-1.29817 -1.52197,-1.18916 -3.19514,0.48401 -1.18778,1.18778 -3.04356,1.82038 -4.12398,1.40578 -2.56913,-0.98587 -8.6251,0.55662 -8.6251,2.19686 0,1.6355 14.32025,16.00359 15.95029,16.00359 0.67412,0 1.55832,-0.53827 1.96492,-1.19614 z M 20.88889,219.1111 c -1.804635,-1.80462 -0.798302,-6.07446 2.428833,-10.30545 7.247504,-9.50197 10.015611,-16.53135 10.015611,-25.43383 0,-9.63717 0.828036,-12.70516 3.429073,-12.70516 2.829204,0 4.570927,4.53912 4.570927,11.91235 0,3.71488 0.515896,6.75432 1.146436,6.75432 0.630539,0 6.018864,-5.33111 11.974056,-11.84689 l 10.827622,-11.84691 0.800881,-22.48643 c 0.440485,-12.36754 0.381257,-33.18206 -0.131619,-46.25449 l -0.9325,-23.768054 -6.17577,-4.547355 c -6.02445,-4.435932 -6.408169,-4.527357 -15.66029,-3.731209 -10.684436,0.919399 -12.949992,-0.417484 -8.406737,-4.960739 3.522466,-3.522466 1.720568,-5.173363 -5.680174,-5.20417 -2.709885,-0.01133 -5.866967,-0.982621 -7.054944,-2.170599 -1.956257,-1.956257 -1.962075,-2.43727 -0.06451,-5.333333 2.077556,-3.170743 2.065082,-3.183152 -3.199694,-3.183152 -5.835398,0 -7.374504,-1.347431 -6.10564,-5.345265 0.594277,-1.872401 2.019574,-2.654735 4.836541,-2.654735 3.005303,0 3.935208,-0.577589 3.756611,-2.333333 -0.474043,-4.660192 0.130386,-5.666667 3.403061,-5.666667 C 27.481482,27.999999 28,27.377777 28,24 c 0,-3.369587 0.521342,-4 3.307931,-4 2.36638,0 3.476214,0.853902 3.899155,3 0.325173,1.65 1.086604,5.651685 1.692069,8.892633 1.700071,9.100184 4.053422,8.290046 3.899019,-1.342232 -0.104253,-6.504124 0.359812,-8.516091 2.239783,-9.710503 3.48231,-2.212438 4.91728,0.906276 4.941626,10.739968 0.0112,4.535595 0.698656,9.935595 1.527615,12 l 1.507197,3.753466 1.154142,-4.165652 c 2.538832,-9.163425 8.107171,-8.477878 7.804983,0.960912 -0.103387,3.229274 -0.22263,7.584758 -0.264984,9.678854 -0.06739,3.332016 1.929606,6.109171 4.438261,6.172135 0.447405,0.0112 1.146745,-3.208775 1.554091,-7.155569 0.970178,-9.400124 3.923412,-14.810373 13.632446,-24.974295 7.095779,-7.428231 8.753518,-8.487343 14.666667,-9.370373 3.666667,-0.547556 11.166669,-1.803179 16.666669,-2.790272 7.71421,-1.384482 12.43817,-1.471283 20.66667,-0.379746 14.49718,1.9231 20.70392,5.626754 29.92221,17.855055 l 7.41112,9.831047 0.66667,-6.444643 c 0.57186,-5.52819 1.14068,-6.554483 4,-7.21704 2.70928,-0.62779 3.41076,-1.697872 3.74692,-5.715773 0.78488,-9.381292 9.58641,-8.870855 9.58641,0.555956 0,2.316107 0.55809,3.638531 1.33333,3.159405 0.73334,-0.453226 1.33334,-1.960403 1.33334,-3.349285 0,-1.388882 0.66597,-3.986879 1.47993,-5.773327 1.33527,-2.930595 2.14772,-3.202661 8.31176,-2.783363 6.6608,0.45309 10.20831,2.767802 10.20831,6.660815 0,0.868171 1.8,1.938493 4,2.378493 3.32732,0.665463 4,1.442299 4,4.619313 0,2.788895 -0.90719,4.232658 -3.36258,5.351402 -2.59036,1.180246 -3.18909,2.224538 -2.6072,4.547353 1.51948,6.065569 -1.84416,8.034693 -13.46964,7.885302 -10.10814,-0.129893 -10.40349,-0.04964 -6.89392,1.873044 4.26926,2.33887 4.8058,6.553447 1.08766,8.54334 -1.41846,0.759135 -5.93331,1.380245 -10.033,1.380245 -6.89792,0 -7.5576,0.2725 -8.84278,3.652792 -0.76384,2.009036 -1.01008,5.671495 -0.54721,8.138799 0.46287,2.467303 0.86963,23.349433 0.90391,46.404734 l 0.0623,41.91873 7.27324,5.60913 c 4.00028,3.08504 9.9456,7.94688 13.21183,10.80409 3.26621,2.85723 6.327,4.80654 6.80175,4.3318 0.47473,-0.47474 1.14278,-4.31246 1.48456,-8.52829 0.80837,-9.97131 4.1721,-12.42408 9.59773,-6.99845 1.8678,1.8678 2.66667,4.44444 2.66667,8.60104 0,9.64268 2.74564,19.73386 6.75244,24.81753 2.05993,2.61355 4.49122,6.38899 5.40288,8.38985 1.46293,3.21079 1.31825,3.97726 -1.23212,6.52763 l -2.88968,2.88968 -11.14103,-5.62407 c -8.70177,-4.3927 -13.58655,-5.9307 -22.31064,-7.02461 -12.85257,-1.61159 -14.5818,-0.6414 -14.5818,8.18119 0,2.70338 -0.78439,5.56622 -1.74309,6.36188 -0.9806,0.81382 -6.37562,1.3603 -12.33334,1.24928 -5.82462,-0.10854 -13.29024,-0.0695 -16.59024,0.0868 -3.3,0.1563 -21.35337,0.29549 -40.1186,0.30933 -37.441948,0.0276 -36.281967,0.28255 -37.890827,-8.32751 -0.885576,-4.73929 -1.069944,-4.8748 -5.785981,-4.25266 -5.208715,0.68713 -17.267107,3.83774 -23.072889,6.02849 -1.94423,0.73363 -4.898819,2.78563 -6.565752,4.56 -2.884713,3.07063 -7.764967,4.24932 -9.677061,2.33723 z m 103.54357,-11.34553 c 34.87414,-0.28249 38.54673,-0.52483 39.66666,-2.61745 0.67882,-1.26838 1.23422,-10.91396 1.23422,-21.43463 V 164.585 l -13,-12.87779 c -7.15,-7.08279 -16,-15.22739 -19.66667,-18.09911 -3.66667,-2.87171 -7.80966,-6.50833 -9.20665,-8.08137 -1.39699,-1.57304 -3.52301,-2.86007 -4.72449,-2.86007 -1.20147,0 -6.95848,5.19503 -12.79335,11.54451 -32.466252,35.32964 -29.50363,30.54919 -29.609459,47.77756 -0.04743,7.72119 -0.508749,17.11057 -1.025156,20.86531 l -0.938921,6.82677 5.815678,-0.80196 c 3.198623,-0.44108 23.110288,-0.94205 44.248138,-1.11328 z M 66.02037,184.27312 c -0.87575,-3.48927 -0.94195,-3.45406 -8.118326,4.3185 -3.979458,4.31006 -7.235377,8.38546 -7.235377,9.05646 0,0.671 2.807556,1.04734 6.239012,0.83633 4.524426,-0.27824 6.431701,0.15212 6.940158,1.56596 1.103813,3.06929 3.160136,-11.85029 2.174533,-15.77725 z m 126.57942,7.56532 C 194.13771,190.41601 179.6613,176 176.69499,176 c -1.62372,0 -2.02832,1.87494 -2.02832,9.39954 v 9.39954 L 183,193.90444 c 4.58334,-0.49207 8.90324,-1.42176 9.59979,-2.066 z M 94.435828,134.3295 c 8.926962,-9.3521 16.220472,-18.0521 16.207802,-19.33333 -0.0127,-1.28123 -1.36267,-3.5607 -3,-5.0655 -5.15828,-4.74075 -31.530441,-25.930672 -32.272312,-25.930672 -0.389876,0 -0.557917,15.315059 -0.373425,34.033462 0.231564,23.49419 0.780079,33.91987 1.771268,33.66667 0.789704,-0.20175 8.739704,-8.01852 17.666667,-17.37063 z m 69.774212,10.00383 c 0.1156,-1.28333 0.122,-3.23333 0.0144,-4.33333 -0.1076,-1.1 -0.24118,-16.55 -0.29688,-34.33334 -0.0557,-17.783328 -0.44993,-32.333328 -0.87612,-32.333328 -2.39476,0 -37.7181,38.725848 -37.7181,41.351288 0,1.66879 2.24683,3.81257 16.05156,15.31538 6.1606,5.13333 12.70286,10.98333 14.53834,13 3.77611,4.14884 7.97258,4.82405 8.2868,1.33333 z M 140.6723,83.999998 c 15.49586,-16.476039 23.30761,-26.209387 23.3173,-29.053116 0.0295,-8.62644 -10.44582,-21.478241 -22.07984,-27.089221 -7.4304,-3.583616 -9.91346,-4.079111 -21.48879,-4.288069 -17.81357,-0.321572 -26.081602,2.416889 -35.610242,11.794499 -7.874722,7.749905 -10.14406,13.70236 -10.14406,26.607778 0,7.186214 0.226444,7.662208 6.220751,13.07624 3.421413,3.090205 8.071413,7.452564 10.333333,9.694131 5.347845,5.299721 19.186748,16.83309 23.445918,19.53988 3.27355,2.0804 3.48605,1.97132 11.84795,-6.081862 4.68304,-4.510143 11.054,-10.90026 14.15768,-14.20026 z M 29.333334,43.999999 c 0,-0.733333 -0.56459,-1.333333 -1.254644,-1.333333 -0.690055,0 -1.625464,0.6 -2.07869,1.333333 -0.453225,0.733333 0.11136,1.333333 1.254644,1.333333 1.143279,0 2.07869,-0.6 2.07869,-1.333333 z"
       id="path1086" />
  </g>
</svg>
