<?xml version="1.0" encoding="UTF-8" standalone="no"?>
<!-- Created with Inkscape (http://www.inkscape.org/) -->

<svg
   version="1.1"
   id="svg193"
   width="149.33333"
   height="209.33333"
   viewBox="0 0 149.33333 209.33333"
   xmlns="http://www.w3.org/2000/svg"
   xmlns:svg="http://www.w3.org/2000/svg">
  <defs
     id="defs197" />
  <g
     id="g199">
    <path
       style="fill:#000000;stroke-width:1.33333"
       d="m 90.999998,205.67758 c -0.916667,-0.31156 -1.666667,-1.92833 -1.666667,-3.59281 0,-2.63076 1.524974,-3.51511 11.666669,-6.76555 15.27284,-4.895 24.33333,-9.45146 24.33333,-12.23708 0,-4.78241 -7.40751,-20.26638 -18.10435,-37.84366 -6.17594,-10.14844 -11.228982,-19.07874 -11.228982,-19.8451 0,-3.57535 -3.827219,-0.84155 -5.049131,3.60662 -3.508581,12.7724 -10.471898,27.82097 -15.578333,33.66666 -7.98414,9.13999 -17.981923,28.49751 -18.059619,34.9667 -0.06037,5.02698 -1.969562,5.48565 -24.86771,5.97426 -26.1650873,0.55831 -28.4452051,0.2251 -28.4452051,-4.15704 0,-3.7496 2.1774382,-4.78392 10.0710321,-4.78392 3.242741,0 9.008906,-1.39572 12.929694,-3.12968 3.89222,-1.72132 9.266515,-3.54048 11.942876,-4.04257 2.676362,-0.50208 6.069792,-1.94373 7.540954,-3.20365 1.471163,-1.25992 8.109561,-13.20263 14.751995,-26.53934 6.642434,-13.33672 12.713531,-24.64188 13.491327,-25.12259 1.605319,-0.99214 7.938787,-14.76731 7.938787,-17.26671 0,-3.42893 6.474941,-8.69546 10.690657,-8.69546 6.114801,0 8.725028,1.92418 11.251728,8.29444 1.24468,3.13806 3.64136,7.20556 5.32596,9.0389 6.34016,6.89995 16.73165,23.59801 16.73165,26.88605 0,0.62865 1.13594,3.68647 2.52431,6.79515 1.38837,3.10866 3.53591,8.95213 4.77231,12.98546 1.2364,4.03334 3.76045,9.94256 5.60902,13.13162 3.27498,5.64981 4.35962,13.0758 2.37814,16.2819 -0.66806,1.08094 -3.51368,1.36087 -8.88378,0.87392 -5.22759,-0.47401 -11.36887,0.0927 -18.15044,1.67483 -11.32257,2.6416 -21.352262,3.92009 -23.916222,3.04865 z M 95.823358,67.666666 C 91.760265,64.313703 77.333332,47.058437 77.333332,45.551757 c 0,-3.676402 -5.447935,-0.972422 -13.421413,6.661468 -16.2111,15.520671 -22.578587,18.506277 -22.578587,10.586713 0,-2.785283 2.666318,-6.08803 11.994385,-14.857348 6.596911,-6.201759 11.996911,-12.198101 12,-13.325207 0.0031,-1.127106 -4.494385,-7.104929 -9.994385,-13.28405 C 44.237032,8.8668988 42.50688,3.9999999 49.171442,3.9999999 c 3.051792,0 5.518618,1.8633063 12.040878,9.0950211 4.511524,5.002263 9.118397,10.402263 10.237496,12 2.561897,3.657621 4.77998,3.676184 8.010198,0.06704 1.396992,-1.560868 7.261897,-6.643492 13.033124,-11.294719 C 101.16568,6.8778472 103.42123,5.6433436 105.49314,6.7521966 106.87191,7.4900895 108,8.7775677 108,9.6132554 c 0,0.8356876 -5.4,6.9040406 -12.000002,13.4852266 -6.6,6.581187 -12,12.937331 -12,14.124764 0,2.268119 7.187833,11.508739 16.071802,20.661776 5.90122,6.079956 6.42951,8.062736 2.68252,10.068065 -3.338238,1.786571 -4.475898,1.739557 -6.930962,-0.286421 z"
       id="path717" />
  </g>
</svg>
