<?xml version="1.0" encoding="UTF-8" standalone="no"?>
<!-- Created with Inkscape (http://www.inkscape.org/) -->

<svg
   version="1.1"
   id="svg183"
   width="212"
   height="216"
   viewBox="0 0 212 216"
   xmlns="http://www.w3.org/2000/svg"
   xmlns:svg="http://www.w3.org/2000/svg">
  <defs
     id="defs187" />
  <g
     id="g189">
    <path
       style="fill:#000000;stroke-width:1.33333"
       d="m 50.200649,209.28213 c -8.387174,-1.42557 -19.561033,-6.93634 -24.679317,-12.17145 -5.677524,-5.80711 -10.854665,-19.39213 -10.854665,-28.48308 0,-8.069 5.167841,-24.74036 8.997669,-29.02632 5.235528,-5.85907 16.329315,-11.63462 28.099103,-14.6287 7.04395,-1.79189 19.01084,0.33863 28.152177,5.01205 15.924321,8.14117 24.895404,26.51646 21.241634,43.50884 -2.255505,10.48956 -6.928623,19.8288 -12.744638,25.47021 -8.281416,8.03277 -25.038116,12.55763 -38.211963,10.31845 z M 64,198.45765 c 0,-1.94402 -35.278049,-37.12432 -37.227489,-37.12432 -3.559432,0 -0.430154,4.38116 13.301138,18.62234 C 57.151523,197.66768 64,202.96353 64,198.45765 Z M 42.666667,196.04951 C 42.666667,194.44371 31.900149,184 30.244727,184 c -1.75467,0 2.842626,6.81548 6.937872,10.28539 3.795841,3.21621 5.484068,3.75928 5.484068,1.76412 z m 35.298441,-2.65972 c 0.845348,-1.3678 -43.799352,-46.72312 -45.991073,-46.72312 -0.719052,0 -1.307368,1.12309 -1.307368,2.49577 0,2.71789 42.227536,45.50423 44.909925,45.50423 0.879649,0 1.954481,-0.5746 2.388516,-1.27688 z M 88,184.13779 c 0,-0.65755 -4.286969,-5.90755 -9.526597,-11.66667 -5.23963,-5.75912 -10.78963,-12.1796 -12.333334,-14.26775 -1.543705,-2.08814 -4.306736,-4.57785 -6.140069,-5.53268 -1.833333,-0.95482 -6.209399,-4.27028 -9.724588,-7.36768 -3.515191,-3.09738 -6.774179,-5.24869 -7.242196,-4.78066 -1.020883,1.02088 2.987408,5.48961 24.928007,27.79156 C 83.108688,183.71084 88,187.57333 88,184.13779 Z m 4,-14.7264 c 0,-1.76259 -32.810061,-34.74472 -34.563456,-34.74472 -2.75706,0 -1.391339,2.31244 4.896789,8.29126 3.483334,3.31199 11.071416,10.90136 16.862404,16.86527 C 89.220585,170.14739 92,172.22869 92,169.41139 Z m -6.709071,-23.74472 c -0.08201,-1.93415 -3.94048,-6.12823 -4.824533,-5.24418 -0.491971,0.49198 0.194823,2.09818 1.526207,3.56934 2.596,2.86854 3.365514,3.25929 3.298326,1.67484 z m 50.042401,57.32346 c -14.68553,-0.63001 -14.49529,-0.4823 -13.55738,-10.52612 1.4783,-15.83074 11.09294,-30.81446 23.95502,-37.33217 6.11674,-3.09959 7.92591,-3.37745 18.87307,-2.89867 11.11224,0.48602 12.76404,0.92819 20.08844,5.37752 4.38933,2.66639 9.26145,6.24478 10.82693,7.95198 5.10858,5.57106 11.95712,21.48273 12.52667,29.104 0.39996,5.3521 0.0881,6.32257 -2.37941,7.4038 -2.2229,0.97405 -53.45138,1.6439 -70.33334,0.91966 z M 189,191.08732 c 5.06751,-0.64695 5.66667,-1.099 5.66667,-4.27537 0,-4.06294 -2.35894,-7.97484 -9.19907,-15.25518 -6.28375,-6.68813 -9.75623,-8.34698 -19.76193,-9.44053 -7.67404,-0.83871 -8.87062,-0.58996 -16,3.32621 -4.23812,2.32799 -8.81951,5.2058 -10.18088,6.39514 C 135.88311,175.01907 132,183.31032 132,187.90461 v 4.01084 l 25.66667,-0.0524 c 14.11666,-0.0288 28.21666,-0.37789 31.33333,-0.77578 z M 46.666667,109.33333 C 40.089525,108.8274 36.071207,107.5777 30,104.14999 4.9155204,89.987697 0.45194629,83.660864 7.5374712,72.31078 c 1.5434563,-2.472415 2.36397,-2.767228 4.5080438,-1.619755 1.441633,0.771539 2.621152,2.640962 2.621152,4.154274 0,9.01751 27.93129,22.256716 43.90085,20.808646 7.195594,-0.652473 20.212816,-5.935126 22.08348,-8.961924 0.548847,-0.888053 -3.77307,-1.358688 -12.477069,-1.358688 -15.511161,0 -17.904131,-1.271914 -17.244528,-9.165838 0.401357,-4.803335 0.442195,-4.833315 6.403933,-4.701491 3.3,0.07297 21.3,0.591059 40,1.151311 18.699997,0.560252 35.199997,0.988812 36.666667,0.952353 1.46667,-0.03645 11.21667,-0.08529 21.66667,-0.108533 10.45,-0.02324 19,-0.333424 19,-0.689299 0,-0.355875 -2.55,-1.791577 -5.66667,-3.190452 -7.08371,-3.179429 -13.32204,-8.942097 -12.76003,-11.787096 0.83011,-4.202116 5.88344,-4.578843 11.34726,-0.84594 11.244,7.681955 26.16402,13.718319 33.90744,13.718319 2.55126,0 5.35866,0.72 6.23866,1.6 2.41382,2.413808 1.95608,8.78456 -0.73333,10.206644 -1.28333,0.67859 -12.23333,1.988397 -24.33333,2.910681 -24.29295,1.851653 -27.09551,2.734496 -40,12.600531 -8.81006,6.735657 -12.11827,8.518447 -14.33334,7.724197 C 125.03361,104.52556 126.71308,99.162539 132,94 c 2.93333,-2.864324 5.33333,-5.986092 5.33333,-6.937264 0,-2.198512 -13.17698,-2.336137 -24.5864,-0.256788 -4.44415,0.809939 -9.40091,1.714003 -11.01503,2.009031 -1.61412,0.295029 -6.819833,3.832352 -11.568245,7.860718 -4.748411,4.028363 -9.427766,7.350643 -10.398566,7.382823 -0.970798,0.0322 -4.165089,0.98951 -7.098422,2.12737 -7.488318,2.90478 -15.90659,3.92386 -26,3.14744 z M 6.8709277,41.004261 C 6.0252508,40.158584 5.3333333,38.574669 5.3333333,37.484452 c 0,-2.999028 12.0799627,-28.5856309 14.3679477,-30.4327897 3.009184,-2.4294044 6.18559,-0.072541 10.82077,8.0289087 7.459204,13.037328 11.096416,14.147461 14.88093,4.541888 2.243924,-5.69536 7.667438,-12.9588085 9.664874,-12.9436953 0.879346,0.00665 4.766406,4.8066533 8.637912,10.6666673 C 67.577272,23.205444 71.253385,28 71.874908,28 c 0.621523,0 2.479923,-3.137884 4.129777,-6.973075 3.924596,-9.12297 6.779379,-12.9335338 9.72807,-12.9850251 3.282662,-0.057324 10.632617,7.4040881 14.163889,14.3786761 1.602276,3.164649 3.631016,5.515556 4.508296,5.224236 0.87728,-0.291321 3.58273,-4.08058 6.01211,-8.420576 7.9333,-14.1725485 9.64769,-14.279684 19.30585,-1.206455 3.51426,4.756887 7.19819,8.648886 8.1865,8.648886 0.98831,0 3.1202,-2.85 4.73753,-6.333334 3.20803,-6.909302 8.89314,-13.6666663 11.49804,-13.6666663 0.90534,0 3.34308,2.7219034 5.41722,6.0486743 8.30369,13.318583 9.27438,14.617992 10.92001,14.617992 0.94013,0 3.91623,-4.2 6.61356,-9.333333 6.85645,-13.0486237 9.17048,-12.874726 17.74247,1.333333 8.93509,14.809931 10.03521,17.697991 7.65006,20.083134 -2.81005,2.810058 -6.37673,-0.169263 -11.16953,-9.330156 -2.49955,-4.777595 -4.65581,-7.357683 -5.94205,-7.109976 -1.11035,0.213834 -3.43063,3.381638 -5.15616,7.039561 -7.01438,14.86962 -11.01506,15.214816 -19.13175,1.650771 C 157.90732,26.35 154.42208,22 153.34383,22 c -1.08323,0 -3.81554,3.784024 -6.1062,8.456575 C 140.48048,44.239989 137.14216,44.714113 129.3293,33 c -3.05691,-4.583333 -6.36352,-8.789065 -7.34803,-9.346071 -1.78449,-1.009613 -5.44563,3.29042 -11.43587,13.431511 -4.11787,6.971299 -8.33925,5.596117 -15.610723,-5.08544 -3.244908,-4.766667 -6.611678,-8.83736 -7.48171,-9.045984 -0.870032,-0.208625 -2.648138,1.891375 -3.951344,4.666667 -8.400096,17.888736 -12.934463,18.026416 -23.470576,0.71265 -2.342879,-3.85 -4.661847,-7 -5.153264,-7 -0.491418,0 -1.654294,1.718784 -2.58417,3.819522 -0.929877,2.100736 -3.532885,6.600736 -5.784464,10 -6.265212,9.458742 -9.873941,8.238018 -18.185192,-6.151499 -2.011509,-3.482588 -4.350737,-6.332588 -5.198282,-6.333333 -0.847546,-7.46e-4 -3.34231,3.847972 -5.54392,8.552708 -4.224843,9.028278 -8.0092806,12.485077 -10.7108273,9.78353 z"
       id="path856" />
  </g>
</svg>
