<?xml version="1.0" encoding="UTF-8" standalone="no"?>
<!-- Created with Inkscape (http://www.inkscape.org/) -->

<svg
   version="1.1"
   id="svg173"
   width="221.33333"
   height="206.66667"
   viewBox="0 0 221.33333 206.66667"
   xmlns="http://www.w3.org/2000/svg"
   xmlns:svg="http://www.w3.org/2000/svg">
  <defs
     id="defs177" />
  <g
     id="g179">
    <path
       style="fill:#000000;stroke-width:1.33333"
       d="m 195.11273,204.28071 c -1.588,-0.24015 -3.21783,-1.29808 -3.62185,-2.35096 -0.40403,-1.05288 -1.38586,-21.47565 -2.18183,-45.38396 -1.32061,-39.66628 -1.25473,-43.76343 0.75296,-46.82756 1.89107,-2.88614 2.88365,-3.24701 7.06472,-2.56852 2.67548,0.43417 5.53789,1.7103 6.36091,2.83584 1.8527,2.53373 3.38196,89.92807 1.61334,92.20013 -1.38017,1.77306 -5.87838,2.71655 -9.98825,2.09503 z M 6.894098,200.34166 c -1.7167031,-3.32602 -2.9084154,-27.10088 -2.9890855,-59.6328 -0.060347,-24.33618 0.2117317,-28.16333 2.1003579,-29.54433 2.6697388,-1.95216 16.0678866,-2.70584 76.7198776,-4.31571 26.065552,-0.69185 50.029992,-0.7755 53.254312,-0.18589 7.86069,1.43743 9.94376,4.3286 7.092,9.84328 -1.89303,3.66071 -1.94242,5.33823 -0.41682,14.15663 0.97659,5.64494 1.62011,18.13731 1.47691,28.6705 -0.13957,10.26666 0.37715,21.91672 1.14827,25.88901 1.89104,9.74127 -0.0813,12.84979 -8.88622,14.00521 -11.14483,1.4625 -40.974301,3.30452 -43.191359,2.66715 -2.77696,-0.79833 -5.501533,-6.85156 -4.501749,-10.0016 1.047584,-3.30064 7.704771,-4.41487 20.385928,-3.412 5.63575,0.44569 13.54681,0.36693 17.58014,-0.175 L 134,187.32078 133.55914,173.99372 c -0.24246,-7.32988 -1.10894,-15.26584 -1.9255,-17.63545 -1.20656,-3.50139 -1.06154,-5.19568 0.77419,-9.04524 4.23683,-8.88476 2.17385,-27.66022 -3.19345,-29.0638 -3.83376,-1.00255 -67.728208,0.28349 -79.881047,1.60781 -5.5,0.59935 -14.869814,0.80426 -20.821808,0.45535 -7.6746,-0.44989 -11.114495,-0.16081 -11.828221,0.99403 -1.522667,2.46372 -0.787804,65.78738 0.781708,67.36025 0.731766,0.73333 9.533524,1.4698 19.559461,1.6366 10.025936,0.1668 18.996949,0.59796 19.935583,0.95815 1.83546,0.70433 2.294667,7.10942 0.686192,9.57113 -0.658757,1.00821 -8.932206,1.55679 -25.26155,1.675 -21.916675,0.15864 -24.3996989,-0.0524 -25.4906,-2.16589 z M 29.747593,64.402962 c -1.850267,-0.359534 -4.417461,-3.222218 -7.011399,-7.818424 -3.195786,-5.662623 -4.801073,-7.251204 -7.327461,-7.251204 -1.779324,0 -4.774194,-0.585149 -6.6552669,-1.300332 -2.9212957,-1.110675 -3.4201328,-2.116335 -3.4201328,-6.895012 0,-3.227408 0.8912255,-6.579475 2.1062722,-7.922085 1.6280713,-1.798999 1.779429,-2.938118 0.6666666,-5.017333 -0.791783,-1.479461 -1.4396055,-5.086516 -1.4396055,-8.015678 0,-9.334061 6.0213424,-12.4231363 17.1319374,-8.789045 5.792908,1.894764 7.049886,2.903693 8.006968,6.426879 1.413245,5.202411 -0.217219,7.512606 -5.302166,7.512606 -2.5717,0 -3.83674,0.679417 -3.83674,2.060606 0,3.220143 6.18785,8.606061 9.887454,8.606061 1.838099,0 4.557493,1.30468 6.043097,2.899288 2.240764,2.405177 4.80599,3.057037 15.05194,3.824906 6.792963,0.509091 12.827645,0.652435 13.410405,0.318544 1.51975,-0.870737 34.598238,-1.808116 75.928808,-2.15167 29.48097,-0.245056 35.99808,-0.63942 37.63609,-2.277436 1.08958,-1.089583 2.6467,-6.76683 3.46026,-12.616106 0.81356,-5.849276 2.2967,-12.591605 3.29586,-14.982954 1.69395,-4.0541897 2.24911,-4.347404 8.21804,-4.3404704 8.9879,0.01044 16.0809,2.2639431 18.43516,5.8569944 1.73246,2.644066 1.80915,5.796651 0.55796,22.933848 -0.9012,12.343469 -2.08678,20.522935 -3.13034,21.596615 -1.33048,1.368866 -12.33107,1.65363 -52.90391,1.369481 -56.19628,-0.393568 -72.158025,-0.368911 -99.418098,0.153576 -17.194677,0.329565 -18.369691,0.524471 -21.393938,3.548717 -1.76,1.76 -3.622728,3.118291 -4.139395,3.018424 -0.516666,-0.09987 -2.252975,-0.436825 -3.858466,-0.748796 z m 171.606167,-23.1078 c 2.58945,-4.838439 3.18217,-15.190527 0.97464,-17.022614 -1.56466,-1.298545 -2.24796,-1.289338 -3.29138,0.04435 -2.16517,2.767517 -4.37036,10.444879 -4.37036,15.215403 0,3.552147 0.53687,4.467703 2.61976,4.467703 1.44087,0 3.27116,-1.217178 4.06734,-2.704839 z"
       id="path995" />
  </g>
</svg>
