<?xml version="1.0" encoding="UTF-8" standalone="no"?>
<!-- Created with Inkscape (http://www.inkscape.org/) -->

<svg
   version="1.1"
   id="svg83"
   width="213.33333"
   height="198.66667"
   viewBox="0 0 213.33333 198.66667"
   xmlns="http://www.w3.org/2000/svg"
   xmlns:svg="http://www.w3.org/2000/svg">
  <defs
     id="defs87" />
  <g
     id="g89">
    <path
       style="fill:#000000;stroke-width:1.33333"
       d="M 145.33333,191.94475 C 143.5,191.33704 137.8,190.24224 132.66666,189.51186 115.94284,187.13234 106.7025,184.32139 96.596612,178.53924 82.804139,170.6478 73.386384,161.87606 68.632151,152.49302 65.030447,145.38463 64.675148,143.50467 64.759139,132 c 0.110333,-15.11257 3.050907,-25.28884 8.78354,-30.39664 6.475952,-5.770098 14.945846,-10.924917 17.960726,-10.930984 1.560208,-0.0032 3.658912,-0.996364 4.663788,-2.207165 1.691521,-2.038159 -0.15082,-2.143203 -24.836739,-1.41612 C 56.66537,87.481027 42.267401,88.541099 39.334966,89.404807 35.205825,90.620988 31.897773,90.603218 24.6683,89.32602 12.984782,87.261947 8.6156179,85.058049 5.9365732,79.877348 3.9782678,76.090403 4.0150489,75.308133 6.4527148,68.899917 10.01829,59.526616 12.936076,48.930407 14.594208,39.333334 c 0.760209,-4.4 2.287506,-11.280758 3.393994,-15.290571 1.10649,-4.009815 2.01404,-8.209815 2.016782,-9.333333 0.0091,-3.696085 5.122053,-10.7049006 7.221625,-9.8992187 1.081479,0.4150019 3.276812,4.7524778 4.87852,9.6388357 1.601706,4.886357 3.654337,10.384287 4.561398,12.21762 0.907062,1.833333 3.462783,7.533334 5.679382,12.666667 2.216597,5.133333 5.435181,12.56246 7.152408,16.50917 3.492893,8.027733 11.980565,15.569605 18.984305,16.868841 2.301224,0.426891 14.084043,0.08787 26.184043,-0.753385 23.714935,-1.648781 58.345515,-3.89387 67.918615,-4.403138 l 5.91861,-0.314858 1.78445,-9.953315 c 0.98144,-5.474323 2.57263,-16.427872 3.53596,-24.34122 0.96332,-7.913347 2.29695,-14.922274 2.9636,-15.575391 0.66666,-0.653118 7.33524,-1.52369 14.81908,-1.934604 l 13.60698,-0.747119 1.62329,4.989176 c 0.97472,2.995831 1.83584,16.009514 2.15529,32.572158 l 0.53202,27.582983 -3.76228,1.906119 c -2.80822,1.422754 -12.72231,2.158534 -39.09562,2.901504 -30.73569,0.865862 -59.48356,2.57309 -53.28192,3.164212 2.66866,0.254368 10.2612,4.145757 15.84113,8.119013 14.88022,10.59565 14.12826,40.47644 -1.30421,51.82562 -6.8108,5.00872 -9.83658,5.2091 -21.32943,1.41254 C 92.317116,144.446 85.791897,135.5956 86.566515,122 c 0.595586,-10.45337 15.705305,-20.55276 24.651015,-16.47682 5.0309,2.29223 10.38247,10.81811 10.38247,16.54089 0,6.04559 -0.84957,6.90637 -7.93334,8.03809 -5.48821,0.87682 -5.66666,0.79223 -5.66666,-2.68607 0,-7.95467 -5.39759,-11.66022 -8.158399,-5.6009 -3.121611,6.85119 7.220619,17.04653 15.248269,15.03172 8.48982,-2.1308 15.53994,-13.21708 13.52091,-21.26154 -0.43914,-1.74967 -3.36079,-5.97215 -6.49256,-9.38329 -5.65773,-6.16244 -5.74873,-6.2017 -14.2395,-6.14355 -20.126769,0.13784 -29.35042,9.03335 -29.459889,28.41183 -0.05832,10.32451 0.71145,12.3801 8.711486,23.26295 5.71366,7.77257 7.007002,8.65717 17.909443,12.24936 4.1948,1.38213 10.9269,3.80741 14.96024,5.38952 4.03333,1.58211 10.03333,3.46287 13.33333,4.17948 8.32856,1.80856 19.03335,5.23129 20.85592,6.66844 2.81757,2.22172 2.9244,6.36621 0.25167,9.76404 -2.77758,3.53112 -3.74275,3.73889 -9.10759,1.9606 z M 24.645946,71.934717 c -1.446852,-4.558624 2.64438,-9.268049 8.051457,-9.268049 4.321763,0 4.63593,-0.287723 4.63593,-4.245702 0,-4.577826 -4.289898,-14.561804 -7.347087,-17.099047 -1.514626,-1.257028 -2.4083,-0.694542 -4.594972,2.892107 -1.493052,2.448952 -2.716882,6.261112 -2.719624,8.471464 -0.0028,2.210352 -1.191533,7.265082 -2.64176,11.232732 -2.846878,7.78873 -2.051113,10.748446 2.889886,10.748446 2.007148,0 2.397285,-0.617456 1.72617,-2.731951 z M 195.33333,49.333334 V 28.666667 l -3.57699,-0.413243 c -4.94018,-0.57073 -6.46274,2.863359 -7.15774,16.144017 -0.31476,6.014741 -0.94464,13.859435 -1.39971,17.432652 -0.96327,7.563417 0.33956,9.049443 7.46777,8.517898 l 4.66667,-0.34799 z"
       id="path1134" />
  </g>
</svg>
