<?xml version="1.0" encoding="UTF-8" standalone="no"?>
<!-- Created with Inkscape (http://www.inkscape.org/) -->

<svg
   version="1.1"
   id="svg215"
   width="208"
   height="213.33333"
   viewBox="0 0 208 213.33333"
   xmlns="http://www.w3.org/2000/svg"
   xmlns:svg="http://www.w3.org/2000/svg">
  <defs
     id="defs219" />
  <g
     id="g221">
    <path
       style="fill:#000000;stroke-width:1.33333"
       d="m 90.666667,206.69486 c -1.833334,-0.60264 -5.870702,-1.15553 -8.971928,-1.22862 -3.101228,-0.0731 -10.107018,-1.63291 -15.568423,-3.46624 -5.461405,-1.83334 -11.080268,-3.33334 -12.48636,-3.33334 -1.406093,0 -6.368157,-2.55 -11.026809,-5.66666 -20.64951,-13.81466 -30.714729,-28.92063 -30.769274,-46.17882 -0.03386,-10.71294 0.85106,-14.78039 5.038679,-23.15981 5.924477,-11.85486 23.900393,-21.70887 37.784115,-20.71243 7.86298,0.56433 21.855872,6.22338 24.895732,10.06841 5.366497,6.78794 7.104268,12.32022 7.104268,22.61682 0,12.62373 -3.113971,19.48333 -12.057355,26.56049 -6.351576,5.02618 -8.397575,5.21708 -22.366824,2.08695 -10.805675,-2.42127 -20.275791,-16.17364 -19.056743,-27.67393 0.20987,-1.97988 9.671058,-11.90204 13.097827,-13.73599 4.104713,-2.19678 9.677229,-1.89865 14.898417,0.79705 3.336791,1.72278 5.01706,3.85215 6.437632,8.15828 2.318155,7.02694 1.484107,11.24534 -2.587652,13.08768 -4.713056,2.13251 -8.268192,0.15328 -9.031969,-5.02832 -1.145997,-7.77464 -9.333333,-5.95766 -9.333333,2.07131 0,3.65957 6.819976,11.02867 11.231597,12.13592 C 66.896689,156.35206 76,146.62568 76,134.75289 c 0,-6.60981 -0.405013,-7.50878 -5.824561,-12.92833 -5.564696,-5.5647 -6.17444,-5.82367 -13.666667,-5.80449 -10.649177,0.0273 -16.863239,2.46402 -23.903349,9.37337 -6.619778,6.49682 -7.750183,11.9358 -3.749622,18.04142 1.765703,2.6948 1.894652,3.98736 0.666667,6.6825 -2.439072,5.35317 -1.858427,7.67749 4.144199,16.58922 5.245758,7.78806 6.458964,8.75156 16.333333,12.97156 14.274065,6.10032 36.529495,13.65519 40.225963,13.65519 7.405801,0 12.123427,5.01267 10.880707,11.56121 -0.51899,2.73488 -5.161485,3.53546 -10.440003,1.80032 z m 23.667573,0.41147 c -2.65006,-0.72131 -4.38473,-5.98093 -3.08749,-9.36148 0.47722,-1.24361 0.83383,-20.694 0.79247,-43.22309 -0.0655,-35.67474 0.19756,-41.23473 2.03803,-43.0752 2.54669,-2.54669 4.68628,-2.67278 7.57789,-0.44656 1.91003,1.4705 2.21087,7.11064 2.55608,47.92098 0.21519,25.43987 0.10448,46.5411 -0.24605,46.89162 -1.12877,1.12877 -7.2272,1.94797 -9.63093,1.29373 z m 38.66667,-1.33333 c -2.65006,-0.72131 -4.38474,-5.98094 -3.0875,-9.36148 0.47722,-1.24362 0.83383,-20.694 0.79247,-43.2231 -0.0655,-35.67474 0.19757,-41.23473 2.03803,-43.07519 2.54669,-2.54669 4.68629,-2.67278 7.57789,-0.44657 1.91003,1.47051 2.21088,7.11065 2.55608,47.92099 0.2152,25.43987 0.10453,46.54109 -0.24604,46.89161 -1.12877,1.12878 -7.2272,1.94798 -9.63093,1.29374 z m 40,-1.33334 c -2.65006,-0.7213 -4.38474,-5.98093 -3.0875,-9.36148 0.47722,-1.24361 0.83383,-20.694 0.79247,-43.22309 -0.0655,-35.67474 0.19757,-41.23473 2.03803,-43.07519 2.54669,-2.54669 4.68629,-2.67278 7.57789,-0.44657 1.91003,1.47051 2.21088,7.11064 2.55608,47.92099 0.2152,25.43986 0.10453,46.54109 -0.24604,46.89161 -1.12877,1.12877 -7.2272,1.94797 -9.63093,1.29373 z M 63.665243,32.996831 c -2.01745,-3.848257 -5.096092,-8.77867 -6.84143,-10.956471 l -3.17334,-3.95964 -2.491904,4.186808 c -1.370546,2.302744 -4.127132,6.934582 -6.125744,10.292973 -2.676102,4.496817 -4.461846,6.106165 -6.775448,6.106165 -3.03605,0 -4.381812,-1.657417 -13.837872,-17.042486 -2.369977,-3.85597 -4.054764,-2.787719 -7.349142,4.65977 C 12.718199,36.122737 6.5051953,40.459357 4.7381061,34.891751 3.9326815,32.354083 15.952897,5.0105353 18.590477,3.3804209 c 3.011002,-1.8609011 6.37355,0.9506241 12.696166,10.6156371 3.599385,5.502168 7.182366,9.970271 7.96218,9.929118 0.779814,-0.04115 3.517844,-4.391155 6.08451,-9.666667 C 52.22834,0.08654764 55.030421,0.6142041 65.911803,18.133614 70.372184,25.314989 69.870744,25.574754 77.751836,12 80.908109,6.5634876 82.881915,4.5647418 85.382796,4.2726134 88.270181,3.9353374 89.704537,5.3281587 95.337723,13.93928 98.957536,19.472676 102.37519,24 102.9325,24 c 0.55732,0 2.29403,-2.55 3.85936,-5.666667 4.06097,-8.085607 9.01356,-14.3333331 11.36207,-14.3333331 2.22503,0 6.98088,5.230139 12.94901,14.2403691 4.34574,6.560876 5.97979,6.728241 8.89706,0.911268 C 142.86459,13.4397 149.71104,4.1998171 151.65549,3.4215498 153.28779,2.7682208 160,8.928154 160,11.079475 160,12.925155 168.03853,24 169.3782,24 c 0.68755,0 3.01019,-3.45 5.16144,-7.666667 5.69308,-11.1590245 7.17249,-12.8159907 10.49979,-11.7599487 2.59433,0.8234113 4.41153,3.5915336 14.48128,22.0591927 3.81276,6.9925 3.67806,11.196509 -0.37727,11.774693 -3.43379,0.489569 -7.78589,-5.078903 -11.00781,-14.084372 -2.10628,-5.887208 -5.46896,-9.186449 -5.46896,-5.36579 0,2.766116 -10.1918,17.908698 -12.70183,18.871886 C 166.05797,39.328198 165.48145,38.799219 159.25247,28 152.9902,17.143066 151.14716,15.507524 149.86195,19.666666 149.46539,20.95 148.58957,22.9 147.91569,24 c -0.67388,1.1 -2.74069,4.85 -4.59293,8.333333 -2.65757,4.997885 -4.07859,6.333333 -6.73916,6.333333 -3.67402,0 -9.91693,-5.359495 -9.91693,-8.513606 0,-2.723023 -5.66664,-11.360967 -7.49824,-11.429959 -0.82404,-0.03104 -3.29457,3.704149 -5.49008,8.300419 -4.37694,9.163035 -6.04062,11.014446 -11.01914,12.262551 -2.848861,0.714202 -3.708345,0.108064 -5.992543,-4.226141 C 95.2,32.276967 92.290972,27.425522 90.20216,24.278938 87.140983,19.667585 86.041825,18.85872 84.535493,20.108864 c -1.027854,0.853044 -1.868826,2.388565 -1.868826,3.412269 0,3.044585 -6.665171,14.859656 -8.857219,15.700824 -4.620693,1.773125 -6.582145,0.569454 -10.144205,-6.225126 z"
       id="path243" />
  </g>
</svg>
