<?xml version="1.0" encoding="UTF-8" standalone="no"?>
<!-- Created with Inkscape (http://www.inkscape.org/) -->

<svg
   version="1.1"
   id="svg205"
   width="208"
   height="204"
   viewBox="0 0 208 204"
   xmlns="http://www.w3.org/2000/svg"
   xmlns:svg="http://www.w3.org/2000/svg">
  <defs
     id="defs209" />
  <g
     id="g211">
    <path
       style="fill:#000000;stroke-width:1.33333"
       d="M 85.280441,199.17036 C 50.110051,191.0258 43.151156,188.30363 30.035097,177.55945 16.684228,166.62295 12.506381,159.13488 11.311138,144 9.4414515,120.32493 18.384217,104.59994 37.0498,98.741056 c 12.709549,-3.98936 19.241696,-3.595888 30.589969,1.842624 8.557268,4.10096 9.929832,5.30455 13.033184,11.42873 4.874383,9.61913 5.278086,23.5435 0.92287,31.83123 -3.460626,6.58537 -6.635554,9.66275 -14.029122,13.59805 l -5.099965,2.71451 -9.954677,-2.95523 c -8.147724,-2.41878 -10.663576,-3.85026 -13.860066,-7.88617 -7.958146,-10.04797 -8.40087,-19.63463 -1.304341,-28.24395 4.580569,-5.55702 10.6425,-7.22768 18.524431,-5.10529 4.2892,1.15496 5.750552,2.45679 8.019754,7.14434 1.526156,3.15262 2.77483,6.99974 2.77483,8.54916 0,3.93078 -3.496212,7.00761 -7.962786,7.00761 -3.260006,0 -3.932896,-0.67903 -4.954781,-5 -1.037383,-4.3865 -1.667137,-5 -5.132453,-5 -3.511295,0 -3.997706,0.499 -4.379707,4.49309 -0.327409,3.42331 0.42418,5.38439 3.15664,8.23645 5.548124,5.791 9.80456,7.08131 15.504,4.69994 15.299992,-6.39275 15.944973,-25.1324 1.206847,-35.06442 -8.825736,-5.94766 -23.779595,-3.42674 -32.722743,5.51641 -7.648428,7.64843 -9.776048,18.94158 -6.123865,32.50475 1.969912,7.3157 13.627965,21.16535 19.157448,22.75887 2.338269,0.67385 10.541946,3.70141 18.230393,6.72789 7.688445,3.0265 17.288445,6.04292 21.333333,6.70319 13.479074,2.20023 17.502987,5.32071 15.401056,11.94331 -1.079148,3.40009 -5.374916,4.00462 -14.099608,1.98421 z m 28.552249,-2.07963 c -2.81355,-1.34034 -2.83277,-1.68048 -2.66666,-47.20258 0.11728,-32.14295 0.60851,-46.02274 1.64295,-46.42185 0.81161,-0.31314 2.91161,0.14623 4.66667,1.02081 l 3.19102,1.59016 0.42833,43.363 c 0.39887,40.38038 0.26131,43.55688 -2,46.18177 -1.94823,2.26148 -2.98863,2.55185 -5.26231,1.46869 z m 38.48286,-0.8675 c -1.31492,-0.8347 -1.60743,-11.10924 -1.33334,-46.83475 0.32008,-41.71924 0.5552,-45.89418 2.65944,-47.22105 1.75859,-1.10892 2.792,-0.97187 4.33934,0.57546 3.04576,3.04577 3.69505,91.37814 0.68568,93.28339 -2.44319,1.5468 -4.14168,1.59948 -6.35112,0.19695 z m 39.9491,-1.90434 c -0.90729,-1.09322 -1.41193,-17.13777 -1.44306,-45.88116 -0.0509,-46.95607 0.0863,-47.96905 6.17841,-45.66048 2.96937,1.12521 3.00049,1.40615 3.04808,27.51312 0.0264,14.50696 0.21948,34.66243 0.42899,44.78992 0.33989,16.43067 0.1288,18.54856 -1.96043,19.66667 -3.13599,1.67832 -4.58624,1.57903 -6.25199,-0.42807 z M 6.6666667,60 C 4.2046063,57.53794 4,55.555556 4,34.16326 4,14.241452 4.3089821,10.736644 6.2039876,9.1632596 9.2271927,6.6531536 44.4154,5.854466 131.3015,6.3238473 c 59.52066,0.321546 69.58414,0.6570292 71.30415,2.3770451 1.61668,1.6166786 2.02484,6.4319966 2.11775,24.9842166 0.0633,12.639858 -0.46989,24.331558 -1.18485,25.981558 -1.87047,4.316725 -6.69072,3.839033 -10.43714,-1.034335 -1.70577,-2.218883 -6.01428,-7.053179 -9.57445,-10.742877 l -6.47304,-6.708546 -16.19363,0.609375 c -18.9594,0.713453 -14.98704,0.705549 -34.86029,0.06936 -10.01049,-0.320459 -17.06064,0.03524 -18.83333,0.950188 -1.91699,0.989424 -3.64188,1.034297 -5.33334,0.138748 C 98.740109,41.310857 88.0003,40.897247 54.936335,41.142487 L 29.206003,41.333333 25.759547,45 c -1.895552,2.016667 -4.280734,5.630497 -5.300404,8.030736 -2.230208,5.249763 -6.384175,9.635931 -9.12581,9.635931 -1.1,0 -3.1999997,-1.2 -4.6666663,-2.666667 z M 45.613167,29.22314 c 31.466572,-0.170081 127.717383,0.806039 137.228623,1.391693 0.46298,0.02851 2.66514,1.916808 4.8937,4.196222 2.22855,2.279413 4.69974,3.744004 5.49154,3.254644 C 195.29264,36.789079 195.09452,19.090737 193,17.785172 191.22811,16.680712 140.60273,16.860425 83.333333,18.174475 64.266667,18.611961 46.566667,18.80534 44,18.604205 36.418172,18.010065 22.871471,18.326176 19.484409,19.176275 15.970508,20.058207 14.655673,24.254764 14.683288,34.5 l 0.01663,6.166667 L 19.963125,35 25.226336,29.333333 45.613171,29.223147 Z"
       id="path382" />
  </g>
</svg>
