<?xml version="1.0" encoding="UTF-8" standalone="no"?>
<!-- Created with Inkscape (http://www.inkscape.org/) -->

<svg
   version="1.1"
   id="svg195"
   width="217.33333"
   height="194.66667"
   viewBox="0 0 217.33333 194.66667"
   xmlns="http://www.w3.org/2000/svg"
   xmlns:svg="http://www.w3.org/2000/svg">
  <defs
     id="defs199" />
  <g
     id="g201">
    <path
       style="fill:#000000;stroke-width:1.33333"
       d="m 198.96962,189.55404 c -5.00752,-2.37152 -4.77166,-0.44942 -4.49494,-36.632 0.1032,-13.49922 0.7794,-24.8616 1.56704,-26.33333 0.95368,-1.78196 2.79546,-2.58871 5.90996,-2.58871 7.11716,0 8.71382,2.64112 8.72265,14.42858 0.004,5.63094 0.17243,19.124 0.37381,29.98454 0.23018,12.41308 -0.14404,20.14047 -1.00765,20.80742 -2.82995,2.18552 -6.90133,2.30817 -11.07087,0.3335 z M 6.798516,178.91303 C 4.4081455,174.44659 5.1134771,168.81608 8.6666665,164 10.598654,161.38134 12,157.67479 12,155.18335 c 0,-6.46361 0.936421,-7.95424 9.483293,-15.09583 9.750329,-8.14718 19.444672,-11.34037 31.529466,-10.3854 17.48242,1.3815 30.533733,12.46459 39.078078,33.18483 4.25623,10.32147 4.102983,13.93176 -0.66836,15.74583 -1.658802,0.63068 -21.048129,1.56772 -43.087391,2.08233 -39.5308949,0.92303 -40.09115,0.89872 -41.53657,-1.80208 z m 66.167243,-9.33597 c 1.825728,-0.15004 3.788096,-1.83395 5.105045,-4.38064 2.841703,-5.49526 1.031609,-9.8434 -7.368729,-17.70094 -9.593807,-8.97388 -21.017397,-11.17078 -32.49775,-6.24973 -3.309215,1.41849 -6.735079,3.92128 -7.613029,5.56175 -0.877951,1.64046 -3.349831,4.45818 -5.493067,6.2616 -3.418104,2.87614 -3.847744,4.02897 -3.497511,9.3846 0.338574,5.17733 0.88019,6.21517 3.562243,6.82598 2.861889,0.65176 40.631134,0.88671 47.802798,0.29738 z M 64.902787,53.960512 C 54.327409,51.654973 32.043933,39.942478 32.000573,36.666667 31.967341,34.156017 20.66945,21.339694 18.48668,21.336511 c -1.198994,-0.0017 -3.162824,1.496823 -4.364071,3.330156 -2.699836,4.120471 -5.3351949,4.241641 -8.0470038,0.369992 C 1.5816566,18.620648 4.3765833,9.8243894 11.899231,6.7084065 15.353362,5.2776586 16.691184,5.4218197 21.619,7.7557897 c 7.113257,3.3690643 18.354014,3.6396073 105.47406,2.5385603 44.22356,-0.5589098 62.96791,-1.2383824 64.28352,-2.3302431 1.02142,-0.8477044 5.35059,-1.8580571 9.62038,-2.245228 7.4135,-0.6722332 7.83624,-0.5437765 9.38314,2.8513244 0.89095,1.9553997 1.6199,5.9156087 1.6199,8.8004647 0,4.490115 -0.48235,5.366255 -3.35066,6.086152 -3.61556,0.907448 -7.31601,-1.260796 -7.31601,-4.286746 0,-2.956346 -3.86736,-2.117256 -7.29679,1.583164 -1.7432,1.880946 -5.59956,7.130946 -8.56966,11.666667 -7.34919,11.223096 -20.17436,19.954883 -30.7386,20.927808 -9.11036,0.839029 -18.99078,-0.747215 -25.5741,-4.105772 -2.73881,-1.397239 -9.14766,-2.92781 -14.24188,-3.401267 -8.55268,-0.794888 -10.48501,-0.438729 -25.2244,4.649247 -8.7792,3.030544 -16.200468,5.432031 -16.491708,5.336637 -0.29124,-0.0954 -4.023272,-0.935113 -8.293405,-1.866046 z M 127.63889,35.194445 c -0.44306,-0.443055 -1.59306,-0.490424 -2.55556,-0.105267 -1.06364,0.425635 -0.7477,0.741577 0.80556,0.805556 1.40555,0.05789 2.19305,-0.257237 1.75,-0.700293 z M 84.666665,29.989977 C 90.976583,26.213514 92.932212,25.533095 105,22.915435 109.6435,21.9082 109.28699,21.766755 99.999998,20.931636 88.197096,19.870279 50.800905,19.80071 43.739698,20.82697 l -4.926968,0.716077 4.789509,4.228475 c 7.484767,6.608013 14.310168,8.935247 25.064427,8.546131 7.624435,-0.275872 10.553973,-1.068254 15.999999,-4.32768 z m 30.351665,2.404782 c -1.63992,-0.316482 -4.63992,-0.324673 -6.66666,-0.0182 -2.02676,0.306472 -0.685,0.565412 2.98166,0.575423 3.66667,0.01 5.32492,-0.24074 3.685,-0.557223 z m 49.64833,-0.865501 c 4.56335,-1.368267 5.39171,-2.193595 5.73766,-5.716667 0.52814,-5.37852 -0.7164,-5.607744 -30.48195,-5.614256 -22.76039,-0.0049 -31.55596,1.141613 -22.55964,2.940877 2.33446,0.466894 4.78636,0.514002 5.44865,0.10468 1.4163,-0.875324 10.3072,1.955015 13.18862,4.198484 7.52136,5.856121 17.8534,7.329113 28.66666,4.086879 z"
       id="path521" />
  </g>
</svg>
