<?xml version="1.0" encoding="UTF-8" standalone="no"?>
<!-- Created with Inkscape (http://www.inkscape.org/) -->

<svg
   version="1.1"
   id="svg185"
   width="224"
   height="206.66667"
   viewBox="0 0 224 206.66667"
   xmlns="http://www.w3.org/2000/svg"
   xmlns:svg="http://www.w3.org/2000/svg">
  <defs
     id="defs189" />
  <g
     id="g191">
    <path
       style="fill:#000000;stroke-width:1.33333"
       d="M 7.4584535,197.84527 C 7.003686,196.66016 6.2534191,187.80498 5.7911937,178.16708 c -0.7798658,-16.26105 -0.6325686,-17.93085 2.04463,-23.1786 1.8628131,-3.65141 3.7816523,-5.65514 5.4155583,-5.65514 6.155521,0 6.205221,0.1994 5.741139,23.0337 C 18.429656,200.06182 18.443544,200 12.783916,200 9.8715567,200 7.9937484,199.24022 7.4584535,197.84527 Z m 97.9853065,0.28779 c -1.03349,-1.24528 -1.5787,-9.34784 -1.63734,-24.33334 -0.0484,-12.3565 -0.0246,-23.1436 0.0528,-23.97129 0.0774,-0.82769 2.02727,-2.28632 4.33301,-3.2414 3.79968,-1.57388 4.404,-1.47499 6.45349,1.05603 1.79621,2.21824 2.43592,6.86073 3.11067,22.57473 0.90493,21.0744 0.45954,25.47104 -2.84814,28.11555 -2.77286,2.21692 -7.54218,2.116 -9.46451,-0.20028 z m 98.29851,-3.27963 c -1.33152,-1.89527 -1.5851,-7.57952 -1.0756,-24.11132 0.59896,-19.43468 0.9295,-21.82323 3.25484,-23.52011 3.25896,-2.37816 4.90629,-2.3755 8.15698,0.0133 2.38095,1.74957 2.56783,3.47853 2.3341,21.59349 -0.29962,23.21979 -0.6175,24.89581 -5.11003,26.94275 -4.60223,2.09692 -5.52048,1.98542 -7.56029,-0.91799 z M 59.403201,133.87939 c -1.558693,-1.55869 -1.991581,-3.34312 -1.39126,-5.735 0.479315,-1.90974 0.972712,-3.48793 1.096438,-3.50709 0.12372,-0.0192 3.020573,-2.53261 6.437441,-5.58546 3.442677,-3.07591 8.674819,-6.21368 11.735328,-7.03779 3.037564,-0.81793 5.878356,-2.41359 6.312872,-3.54592 0.434516,-1.13233 -0.460923,-5.15089 -1.989861,-8.930124 -6.188823,-15.297545 -6.672058,-22.596183 -1.602594,-24.205169 3.270606,-1.038049 8.021327,1.526362 18.338483,9.899 4.587022,3.72249 8.925592,6.768164 9.641262,6.768164 2.98864,0 3.28499,-12.079741 0.6215,-25.333333 -1.87346,-9.32236 -4.46346,-9.991523 -13.658115,-3.528755 -10.438487,7.337039 -13.704083,8.697256 -17.537856,7.305033 -3.304315,-1.19995 -8.963691,-8.553421 -13.738507,-17.851034 -1.438909,-2.801873 -3.608587,-4.805413 -5.666667,-5.232758 -1.834249,-0.380868 -4.818392,-0.999749 -6.631429,-1.375295 -6.444693,-1.334922 -11.815593,-11.287228 -7.036903,-13.039414 1.333334,-0.488888 1.333334,-0.964444 0,-2.377778 -2.198592,-2.330508 -2.13305,-7.435728 0.106494,-8.295123 0.975238,-0.374234 4.725238,0.911574 8.333333,2.857348 5.146651,2.77549 7.422053,5.150822 10.560172,11.023946 4.710499,8.8159 14.645635,20.782528 18.187808,21.906771 1.492901,0.473828 3.896879,-0.314809 5.998275,-1.967768 1.928781,-1.517179 4.572081,-2.758507 5.874,-2.758507 1.301918,0 5.403353,-2.4 9.114295,-5.333333 3.71095,-2.933334 7.36483,-5.333334 8.11973,-5.333334 2.32953,0 1.51841,-3.454913 -1.43839,-6.126682 -2.34973,-2.12323 -2.69021,-3.56209 -2.07513,-8.769382 1.11511,-9.440435 6.35088,-18.703575 12.12925,-21.4590874 7.91932,-3.776457 14.63992,-3.0654994 20.33196,2.1508729 4.25018,3.8949885 4.86931,5.2417135 4.86931,10.5914855 0,5.084086 -0.83355,7.146338 -4.88888,12.09534 -2.68889,3.281435 -4.88889,6.537968 -4.88889,7.236741 0,0.698774 3.02326,1.671547 6.71836,2.161719 5.6708,0.752257 7.13041,1.558675 9.36097,5.171775 1.45344,2.354304 3.01076,5.780552 3.46072,7.613885 0.44996,1.833334 1.55816,4.233334 2.46267,5.333334 2.31194,2.811612 7.54416,18.687208 7.42596,22.531849 -0.1951,6.345534 -2.30204,7.21882 -15.08786,6.253618 -9.13618,-0.68969 -11.8693,-0.495026 -12.39812,0.883046 -0.37309,0.972274 -0.009,5.944607 0.80984,11.049629 0.81851,5.10502 1.80392,13.03186 2.18982,17.61519 l 0.70162,8.33334 h 5.08278 c 2.84292,0 6.00608,0.92331 7.178,2.09523 2.22174,2.22175 2.75898,5.34115 1.09524,6.35943 -0.55,0.33662 -21.47517,1.00402 -46.50036,1.48308 -41.720046,0.79868 -45.688362,0.68306 -47.763109,-1.39169 z m 60.930129,-8.79802 9,-1.50911 v -7.04077 c 0,-3.87243 -0.58615,-7.40304 -1.30257,-7.84581 -0.71641,-0.44277 -3.79698,-0.13335 -6.84571,0.68758 -7.77369,2.09324 -11.30173,0.78038 -15.40297,-5.73179 -4.43571,-7.043258 -15.008071,-16.941645 -18.115413,-16.960582 -3.700795,-0.02255 -2.789466,4.064532 3.074057,13.786382 6.356587,10.53937 6.133591,13.49455 -1.119517,14.83605 -5.128216,0.94849 -18.95454,9.2508 -18.95454,11.38165 0,1.58695 37.945443,0.3618 49.666663,-1.6036 z m 4.73334,-26.681368 c 0.94689,-0.946898 1.6,-5.502142 1.6,-11.159638 0,-9.036032 1.22337,-14.228259 7.31817,-31.059708 1.97131,-5.443973 1.95376,-5.939242 -0.27213,-7.678079 -1.4012,-1.094594 -3.74974,-1.531452 -5.71271,-1.062639 -1.83333,0.437853 -5.92667,1.106852 -9.09631,1.486664 -3.16963,0.379812 -6.0615,1.468533 -6.42638,2.419381 -0.36487,0.950847 0.55536,4.117787 2.04496,7.037645 1.4896,2.919857 3.07791,8.528028 3.52958,12.462601 1.04468,9.100296 1.05018,8.139935 -0.11166,19.487106 C 116.95387,99.966092 116.96183,100 120.20853,100 c 1.79198,0 3.97814,-0.719998 4.85814,-1.599998 z m 26.86605,-21.963981 c 0.89335,-0.780508 -2.19972,-14.572404 -4.20764,-18.761796 -3.23337,-6.746191 -5.45368,-5.178463 -9.33112,6.58858 -4.37603,13.280091 -3.79096,14.585274 6.04055,13.475578 3.79436,-0.428275 7.16854,-1.014338 7.49821,-1.302362 z M 131.86188,27.286939 c 4.62332,-5.265679 5.21741,-9.217693 1.93147,-12.848617 -6.11293,-6.7547119 -19.12668,1.822776 -19.12668,12.606576 0,4.349281 0.90687,4.955103 7.41743,4.955103 4.78655,0 6.26562,-0.71294 9.77778,-4.713062 z"
       id="path660" />
  </g>
</svg>
