<?xml version="1.0" encoding="UTF-8" standalone="no"?>
<!-- Created with Inkscape (http://www.inkscape.org/) -->

<svg
   version="1.1"
   id="svg175"
   width="214.66667"
   height="138.66667"
   viewBox="0 0 214.66667 138.66667"
   xmlns="http://www.w3.org/2000/svg"
   xmlns:svg="http://www.w3.org/2000/svg">
  <defs
     id="defs179" />
  <g
     id="g181">
    <path
       style="fill:#000000;stroke-width:1.33333"
       d="m 25.731415,129.88007 c -9.764613,-4.72497 -15.064748,-9.99945 -15.064748,-14.99183 0,-6.69469 4.136123,-6.72314 12.011399,-0.0826 5.446213,4.59231 8.123393,5.8462 14.342365,6.71743 8.623947,1.20813 15.533067,0.35649 17.632763,-2.17349 2.260148,-2.72331 -1.845197,-3.48912 -9.380351,-1.7498 -7.680921,1.77297 -10.091906,0.51183 -8.80719,-4.6069 1.029218,-4.10073 5.880941,-6.27214 16.158681,-7.23189 6.368644,-0.59471 9.210778,-0.23463 12.782603,1.61948 4.125087,2.1413 9.823303,2.43486 55.926403,2.88121 28.23333,0.27333 52.69673,0.16149 54.36309,-0.24855 2.96839,-0.73043 3.0248,-1.08685 2.78451,-17.592542 -0.2338,-16.058985 -0.1036,-16.96177 2.78461,-19.30046 2.32824,-1.885296 5.30055,-2.45345 12.83525,-2.45345 8.47375,0 10.00118,0.365842 11.24708,2.693843 1.86738,3.489236 1.96879,42.933599 0.1192,46.389469 -0.75484,1.41043 -3.04374,2.88328 -5.08645,3.27301 -2.04272,0.38972 -31.88932,0.53401 -66.32577,0.32064 l -62.611698,-0.38795 -4.579932,3.49329 c -6.669746,5.08726 -12.920213,6.84787 -24.196563,6.8156 -7.919117,-0.0227 -11.443145,-0.72694 -16.935252,-3.3845 z M 197.10623,104 c 0.74223,-10.131135 -1.05259,-22.666665 -3.24535,-22.666665 -2.98396,0 -4.52754,5.863327 -4.52754,17.197911 0,11.215004 0.4802,12.449754 4.6118,11.858334 2.1988,-0.31475 2.80596,-1.54201 3.16109,-6.38958 z M 31.349268,42.6833 C 28.923443,40.151284 23.67515,37.357909 16.94486,35.016633 4.9769473,30.853335 1.7761056,27.334018 5.8566026,22.825119 7.1104414,21.439643 9.7556399,19.982195 11.734822,19.586344 13.714003,19.190495 17.609979,17.321628 20.392546,15.43331 23.175112,13.54499 25.998467,12 26.666667,12 c 0.6682,0 3.451036,-1.517477 6.18408,-3.3721703 l 4.969172,-3.3721708 5.815734,5.7055041 5.815733,5.705504 14.940975,-0.128627 C 73.797213,16.457067 82.416152,15.580254 87.653293,14.171668 102.49391,10.180124 120.91425,8.6768218 150,9.0834932 c 29.07666,0.4065442 37.29578,1.5645728 50.66667,7.1386588 7.83057,3.264428 8.87925,4.519131 7.07913,8.469954 -3.06224,6.720883 -17.1938,10.746956 -48.47844,13.811479 -23.0042,2.253401 -24.97485,2.253584 -44.66666,0.0041 C 103.27031,37.213404 88.600001,34.929464 82.000001,33.432286 64.447718,29.450639 58.979273,30.465543 49.113026,39.53587 40.131426,47.792914 36.808639,48.381654 31.349268,42.6833 Z M 41.420989,29.286422 c 3.50782,-1.877328 3.240854,-4.791291 -0.673959,-7.356375 -2.991248,-1.959941 -3.634901,-1.950191 -8,0.121187 -5.287815,2.509233 -5.868896,4.136505 -2.413696,6.759375 2.82416,2.143842 7.588859,2.348316 11.087655,0.475816 z m 122.534671,-2.01032 c 7.56728,-1.131477 15.31177,-2.870973 17.20998,-3.865547 l 3.4513,-1.808316 -5.30847,-1.334276 C 172.96951,18.674675 173.93292,18.72245 148,18.715387 c -22.9732,-0.0063 -45.87331,1.734521 -53.999999,4.10487 -6.123758,1.786146 -5.73979,2.012225 7.532959,4.435366 13.71146,2.503236 45.74783,2.513746 62.4227,0.02048 z"
       id="path799" />
  </g>
</svg>
