<?xml version="1.0" encoding="UTF-8" standalone="no"?>
<!-- Created with Inkscape (http://www.inkscape.org/) -->

<svg
   version="1.1"
   id="svg165"
   width="225.33333"
   height="201.33333"
   viewBox="0 0 225.33333 201.33333"
   xmlns="http://www.w3.org/2000/svg"
   xmlns:svg="http://www.w3.org/2000/svg">
  <defs
     id="defs169" />
  <g
     id="g171">
    <path
       style="fill:#000000;stroke-width:1.33333"
       d="m 67.046164,193 c -1.513602,-1.65 -4.34771,-6.18831 -6.298018,-10.08514 -4.372428,-8.73634 -6.568485,-8.62884 -11.267593,0.55162 -4.484959,8.76208 -6.572524,11.20018 -9.589855,11.20018 -2.594079,0 -9.224032,-6.29946 -9.224032,-8.76422 0,-0.80199 -2.029961,-3.80647 -4.511026,-6.67664 l -4.511027,-5.21848 -2.033921,4.86785 c -2.404902,5.75575 -6.869945,7.77033 -10.0884483,4.55183 -2.0183163,-2.01831 -1.7506486,-3.01968 3.6006713,-13.47036 4.573447,-8.93158 6.382967,-11.28495 8.662413,-11.26594 3.241149,0.0271 10.176877,7.67687 13.745901,15.16119 1.262801,2.64812 3.002937,4.81477 3.866969,4.81477 0.864031,0 3.139285,-3.49468 5.056123,-7.76596 5.928089,-13.20954 11.760058,-15.51048 16.428946,-6.48184 3.109284,6.01268 8.83462,12.91439 10.713232,12.91443 0.878076,3e-5 3.151868,-3.14996 5.052871,-6.99996 3.79463,-7.68507 7.871858,-11.89461 10.532013,-10.87381 0.944754,0.36253 5.172472,4.85858 9.394928,9.99121 8.110659,9.85897 10.173499,10.3786 12.018509,3.02749 0.86691,-3.45402 5.62439,-10.99302 8.07184,-12.79114 3.58757,-2.63574 6.90484,0.0673 14.96608,12.1953 l 4.79618,7.21572 3.4522,-4.0742 c 1.89872,-2.2408 5.10489,-6.87925 7.12482,-10.30766 5.04002,-8.55434 7.91778,-7.94026 15.38856,3.28376 6.29347,9.45521 8.24882,10.75216 10.27466,6.81505 5.55514,-10.79607 9.36306,-16.14839 11.48878,-16.14839 3.41392,0 7.55436,4.95956 14.95394,17.91232 6.81474,11.92904 7.24732,15.82587 1.94361,17.5092 -3.38719,1.07506 -6.3216,-2.19173 -11.15773,-12.42152 -1.8201,-3.85 -3.81588,-7 -4.43508,-7 -0.6192,0 -2.99303,3.90895 -5.27516,8.68655 -7.02544,14.70768 -12.92886,14.68667 -20.72178,-0.0737 -2.3074,-4.37039 -5.0323,-7.94616 -6.05534,-7.94616 -2.1079,0 -6.4988,6.81288 -6.64628,10.31229 -0.0536,1.27177 -1.82839,4.24955 -3.94396,6.61729 -3.52594,3.9462 -4.14251,4.17012 -7.39808,2.68679 -1.95338,-0.89001 -4.27948,-3.2678 -5.16912,-5.28396 -2.83858,-6.43295 -8.97523,-15.12209 -10.1619,-14.38869 -0.63072,0.3898 -3.08297,4.46193 -5.44947,9.04917 C 109.12896,195.01198 108.2884,196 104.71006,196 c -2.9518,0 -7.376728,-3.70447 -7.376728,-6.17566 0,-2.14349 -8.109861,-12.49172 -9.782013,-12.4819 -1.970782,0.0116 -7.55132,8.12346 -7.55132,10.97662 0,2.32116 -6.010909,7.68094 -8.61406,7.68094 -0.873273,0 -2.826172,-1.35 -4.339775,-3 z M 11.182674,134.95653 C 6.4302986,134.23548 5.3333333,129.157 5.3333333,107.87665 c 0,-19.454522 0.08892,-20.086783 3.2727272,-23.270591 4.0612755,-4.061275 10.6841875,-4.4236 12.6803605,-0.693715 1.891391,3.534096 1.799424,43.042186 -0.109947,47.232796 -1.508662,3.31115 -4.861981,4.59003 -9.993797,3.81139 z m 96.853566,-1.57259 c -2.61984,-1.65679 -3.53829,-13.67093 -2.70291,-35.35632 L 106,80.721909 l 3.75743,-1.31693 c 2.8219,-0.989042 4.64776,-0.817544 7.33333,0.6888 l 3.5759,2.005732 0.36403,24.443309 c 0.25167,16.89849 -0.1074,25.01133 -1.16326,26.28357 -1.73297,2.08811 -8.87849,2.42485 -11.83119,0.55755 z m 98.8633,-5.2118 c -1.26382,-0.80127 -1.95922,-6.20683 -2.44164,-18.97958 -0.37098,-9.822576 -1.28065,-20.227149 -2.02149,-23.121275 -1.14847,-4.486497 -0.99668,-5.518194 1.0298,-7 2.54632,-1.861912 13.29677,-2.40615 14.33533,-0.725722 0.34408,0.556726 0.96398,11.072236 1.37756,23.367797 0.70736,21.02942 0.59582,22.51171 -1.88024,24.98777 -2.74161,2.74162 -7.36392,3.39546 -10.39932,1.47101 z M 71.545726,59.10201 C 71.418899,58.974783 60.219227,58.732867 46.657566,58.564418 33.095905,58.39597 20.605002,57.633254 18.900005,56.869494 14.142036,54.738142 12,49.171967 12,38.939529 12,24.52085 9.8147049,25.193794 55.917087,25.415633 c 21.408433,0.103013 39.291342,-0.179619 39.739798,-0.628075 0.448456,-0.448456 -0.710577,-2.459116 -2.575628,-4.468133 -4.728533,-5.093537 -6.093468,-8.064837 -5.39154,-11.7367371 0.71611,-3.7460829 4.498576,-5.2893176 8.16056,-3.3294832 1.43972,0.7705147 4.563433,4.4037541 6.941583,8.0738653 2.37815,3.670111 4.67286,6.662564 5.09936,6.649894 0.42649,-0.01267 2.18842,-1.51267 3.91539,-3.333334 3.92435,-4.137255 5.2772,-4.131922 11.43233,0.04507 5.64606,3.831513 6.36161,3.613817 10.69739,-3.254517 5.01817,-7.9492826 7.32124,-9.742283 11.24788,-8.7567582 6.08601,1.5274902 7.00555,3.0751361 4.62845,7.7900282 -1.1644,2.30957 -3.65485,5.842958 -5.53434,7.851975 -1.87948,2.009017 -3.08135,3.988661 -2.6708,4.399211 0.41054,0.410548 17.46681,0.14548 37.9028,-0.589042 33.87342,-1.217494 37.3036,-1.141896 38.82301,0.85563 1.0584,1.391444 1.66667,6.743094 1.66667,14.663554 0,11.464558 -0.26447,12.736896 -3.27274,15.745161 -2.45666,2.456671 -4.70081,3.273852 -9,3.277239 -3.15,0.0025 -35.0276,0.152482 -70.8391,0.333333 -35.81151,0.180852 -65.215608,0.224727 -65.342434,0.09749 z M 156,49.315246 c 30.76316,-0.159103 49.2798,-0.75264 50.33333,-1.613399 2.90884,-2.376577 1.91928,-7.474876 -1.94181,-10.004444 -3.34522,-2.19159 -9.20624,-2.369822 -80.33334,-2.442902 -42.198667,-0.04336 -81.161949,0.256642 -86.585071,0.666666 -11.546903,0.873023 -13.597113,2.624764 -10.708833,9.149842 2.278589,5.14769 0.719444,4.985265 45.235723,4.712462 C 91.433332,49.664378 129.23333,49.453679 156,49.315246 Z"
       id="path956" />
  </g>
</svg>
