<?xml version="1.0" encoding="UTF-8" standalone="no"?>
<!-- Created with Inkscape (http://www.inkscape.org/) -->

<svg
   version="1.1"
   id="svg74"
   width="116"
   height="212"
   viewBox="0 0 116 212"
   xmlns="http://www.w3.org/2000/svg"
   xmlns:svg="http://www.w3.org/2000/svg">
  <defs
     id="defs78" />
  <g
     id="g80">
    <path
       style="fill:#000000;stroke-width:1.33333"
       d="m 46.666667,205.71632 c -5.231043,-1.93503 -13.424527,-10.31844 -16.557795,-16.94163 -3.183615,-6.72961 -3.303175,-7.6947 -1.85626,-14.9838 0.850588,-4.28498 2.641719,-9.75914 3.980289,-12.16478 3.343774,-6.00932 3.063559,-8.87918 -1.349192,-13.81791 -5.044028,-5.64524 -7.205678,-4.20961 -6.109042,4.05724 0.689269,5.19596 0.239694,7.5142 -2.501891,12.90104 -3.964759,7.7902 -9.361022,13.20203 -12.111591,12.14653 -2.4747206,-0.94964 -4.0640077,-10.9296 -2.8679211,-18.00917 0.4934722,-2.92084 2.2551834,-7.15123 3.9149141,-9.40087 1.65973,-2.24964 4.016871,-6.50812 5.23809,-9.46328 1.221219,-2.95516 3.211523,-7.77302 4.422897,-10.70636 2.550707,-6.17651 4.719023,-6.76089 6.946492,-1.87213 C 30.04354,132.35087 36.059032,140 37.676525,140 42.180347,140 33.391344,93.624772 26.550008,81.290864 23.841708,76.408203 22.383872,75.250725 17.325745,73.967084 8.9011408,71.829104 5.3333333,69.657037 5.3333333,66.666149 c 0,-3.829629 7.5722897,-11.737822 14.6955747,-15.347464 6.2626,-3.173501 16.717093,-4.6631 19.716599,-2.809304 2.532285,1.565038 1.840533,7.716422 -1.236019,10.99126 -1.553113,1.653215 -3.315992,5.640187 -3.917507,8.859939 -1.050048,5.620628 0.430626,13.243087 6.923008,35.63942 0.74404,2.56667 1.87474,7.06667 2.512666,10 6.022761,27.69408 6.396466,26.74831 5.795282,-14.666667 C 49.514229,78.066667 48.640784,54.066667 47.881951,46 46.622208,32.608509 46.196211,31.078489 42.982271,28.402203 c -1.93599,-1.612122 -5.588827,-3.4204 -8.117416,-4.018398 -2.528588,-0.597997 -5.257434,-2.133584 -6.0641,-3.412416 -1.226096,-1.943766 -0.482578,-3.191488 4.532956,-7.60689 9.329641,-8.2133094 19.349498,-10.0424227 32.123794,-5.8641622 7.336086,2.399512 11.08472,6.3284842 9.271152,9.7171662 -0.629485,1.176204 -4.879969,4.833441 -9.445518,8.127192 l -8.301,5.988638 0.904516,38.287871 c 0.604316,25.580456 1.56779,41.468946 2.902982,47.872566 1.099156,5.27158 1.62347,11.29204 1.16514,13.37879 -0.514246,2.34136 -0.28223,3.79411 0.60595,3.79411 0.7916,0 1.439273,-1.67715 1.439273,-3.727 0,-2.04985 1.203635,-9.69985 2.674744,-17 1.471108,-7.30015 3.294152,-16.573003 4.051207,-20.606337 0.757056,-4.033333 2.227734,-10.921882 3.268176,-15.307888 1.761994,-7.427728 1.716305,-8.250585 -0.666291,-12 -6.427569,-10.114856 -7.682924,-13.321736 -6.474521,-16.539544 1.127229,-3.001652 1.624202,-3.130262 8.825389,-2.283904 17.414861,2.046775 35.201276,15.924692 27.987966,21.837712 C 102.75,69.791135 99.381029,71.1063 96.180064,71.962299 89.462421,73.758724 84,78.598988 84,82.755081 84,86.042812 77.875484,111.98523 75.679339,118 c -0.803276,2.2 -1.677458,7.9 -1.942624,12.66667 l -0.482124,8.66666 3.336761,-4 c 6.6517,-7.97384 7.449875,-8.66666 9.984523,-8.66666 1.41673,0 3.857586,1.8 5.424125,4 1.566539,2.2 3.450252,4 4.186031,4 5.515479,0 12.343779,17.26096 14.066099,35.5571 0.55903,5.93858 0.27434,7.09078 -2.06081,8.34051 -2.29163,1.22644 -3.35013,0.78072 -6.86425,-2.89045 C 95.566977,169.65629 91.169359,160.65488 89.452619,151.36817 88.653679,147.04631 88,143.32044 88,143.08845 c 0,-1.68261 -4.192069,0.1124 -5.360287,2.29524 -1.602225,2.99379 -1.237109,4.76047 3.481054,16.84372 2.060936,5.27807 3.212566,10.96084 3.212566,15.85255 0,7.22607 -0.37272,8.08644 -7.121617,16.43943 -5.991097,7.41506 -8.110732,9.07882 -13.352468,10.48078 -6.296103,1.68395 -18.510715,2.07811 -22.192581,0.71615 z m 4,-18.38299 C 52.479829,185.40331 55.286449,184 57.333333,184 c 2.046884,0 4.853504,1.40331 6.666667,3.33333 3.545507,3.77402 6.387647,4.27855 7.517397,1.33447 0.4624,-1.205 -0.878089,-3.53565 -3.37518,-5.86828 C 65.863997,180.67135 64,177.94356 64,176.73779 c 0,-2.29476 4.334995,-7.03076 8.735833,-9.54396 2.222364,-1.26914 2.327254,-1.77627 0.758363,-3.66667 -2.391095,-2.88109 -3.244764,-2.78025 -7.725229,0.91259 -6.19712,5.1077 -8.098847,5.24848 -11.984763,0.8872 -4.220023,-4.73626 -7.8961,-6.11388 -10.514855,-3.94051 -3.041978,2.52461 -2.265553,5.74983 1.963351,8.15561 5.45396,3.10272 5.798447,7.49571 0.996164,12.7034 -2.379819,2.58072 -3.600784,5.06415 -3.113753,6.33334 1.162284,3.02885 3.971274,2.56558 7.551556,-1.24546 z m 8.666666,-32.66666 c 0.453226,-0.73334 0.188635,-1.33334 -0.587977,-1.33334 -0.776612,0 -1.412023,0.6 -1.412023,1.33334 0,0.73333 0.26459,1.33333 0.587978,1.33333 0.323388,0 0.958797,-0.6 1.412022,-1.33333 z M 28.485025,62.397285 c 0.78136,-1.24816 0.957859,-2.73218 0.392216,-3.297821 -1.277162,-1.277164 -7.786296,2.264571 -8.582312,4.669787 -0.875809,2.646316 6.442002,1.420472 8.190096,-1.371966 z m 58.848308,-1.082212 c 0,-1.089957 -1.35,-2.17347 -3,-2.407808 -2.918408,-0.41448 -4.16463,2.150326 -2.065018,4.249939 1.553376,1.553376 5.065018,0.276203 5.065018,-1.842131 z M 53.066667,19.733333 c 4.227412,-4.227412 -0.653754,-6.808631 -6.72795,-3.55782 -2.730189,1.461154 -2.740436,1.566519 -0.324172,3.333334 3.071183,2.245704 4.970446,2.306162 7.052122,0.224486 z"
       id="path1225" />
  </g>
</svg>
