<?xml version="1.0" encoding="UTF-8" standalone="no"?>
<!-- Created with Inkscape (http://www.inkscape.org/) -->

<svg
   version="1.1"
   id="svg75"
   width="97.333336"
   height="220"
   viewBox="0 0 97.333336 220"
   xmlns="http://www.w3.org/2000/svg"
   xmlns:svg="http://www.w3.org/2000/svg">
  <defs
     id="defs79" />
  <g
     id="g81">
    <path
       style="fill:#000000;stroke-width:1.33333"
       d="M 8.2828446,211.67415 C 5.2764977,208.05172 5.1653189,202.86373 7.9040193,193.99685 11.929252,180.96467 15.387624,175.62913 24.714554,168.06177 l 8.292954,-6.72844 13.82958,0.001 c 12.455488,9.4e-4 14.632648,0.38097 21.912079,3.82476 11.468181,5.42541 19.136794,15.86345 23.864272,32.48256 2.657032,9.34061 1.453558,12.38093 -5.636111,14.23848 -7.84768,2.05614 -76.967226,1.87517 -78.6944834,-0.20604 z M 79.728201,197.28012 c 0.54172,-4.64601 -11.28738,-20.21007 -17.281587,-22.73811 -11.272954,-4.75434 -29.491481,-0.54538 -37.344605,8.62758 -3.64933,4.26265 -7.140925,14.61006 -5.710795,16.92406 0.486023,0.7864 12.34479,1.15018 30.369753,0.9316 l 29.572369,-0.35858 z M 49.333335,86.696015 C 26.886909,82.78142 14.9241,74.426245 8.0198381,57.841464 3.5114704,47.011879 2.9863155,39.878921 5.963322,29.908668 8.2910148,22.113024 17.386616,10.474858 22.426693,8.8431627 24.392013,8.206902 27.041859,7.156902 28.315242,6.5098293 34.12435,3.5579164 50.286333,7.0826052 58.282135,13.045164 c 4.930865,3.677003 9.748796,14.982119 9.661979,22.67152 -0.110453,9.782521 -6.84256,17.595761 -17.652071,20.486864 -9.11459,2.437781 -16.129699,-0.01812 -19.625619,-6.870692 -6.647891,-13.030944 1.095925,-27.354028 13.335605,-24.665744 2.297987,0.504723 4.483818,1.714216 4.857403,2.687761 1.047611,2.73003 -1.861396,7.077135 -5.053671,7.55201 -4.254369,0.632869 -5.991191,4.162412 -4.095544,8.322905 1.251389,2.746499 2.509103,3.436879 6.261199,3.436879 6.931175,0 10.028586,-3.737976 10.028586,-12.102564 0,-5.652552 -0.6222,-7.391431 -3.771738,-10.540968 -6.820871,-6.820871 -18.4991,-8.505723 -25.575155,-3.689802 -7.403036,5.038462 -9.802675,9.432124 -10.416515,19.0723 -0.735462,11.550188 2.03024,18.608282 10.335867,26.377222 8.233037,7.701042 14.60258,9.61003 30.58607,9.166818 13.401414,-0.371612 16.174804,0.608646 16.174804,5.716994 0,6.986784 -7.584457,8.892173 -24,6.029348 z"
       id="path1095" />
  </g>
</svg>
