<?xml version="1.0" encoding="UTF-8" standalone="no"?>
<!-- Created with Inkscape (http://www.inkscape.org/) -->

<svg
   version="1.1"
   id="svg225"
   width="114.66667"
   height="212"
   viewBox="0 0 114.66667 212"
   xmlns="http://www.w3.org/2000/svg"
   xmlns:svg="http://www.w3.org/2000/svg">
  <defs
     id="defs229" />
  <g
     id="g231">
    <path
       style="fill:#000000;stroke-width:1.33333"
       d="m 51.765611,206.92409 c -3.60767,-0.66949 -3.779547,-3.72045 -0.462851,-8.21598 3.57064,-4.83974 7.839532,-16.85984 6.663495,-18.76271 -1.352801,-2.18888 -8.264698,-1.40605 -13.177252,1.49243 -5.653247,3.33549 -9.766302,2.44496 -10.976423,-2.37655 -1.324504,-5.27724 0.494438,-31.34829 2.263405,-32.44157 0.843893,-0.52156 5.335936,0.43061 9.982319,2.11592 6.320706,2.29261 8.753366,2.66973 9.660783,1.49762 0.667048,-0.86162 1.906193,-8.16658 2.753657,-16.23325 0.847464,-8.06667 2.10856,-18.26667 2.802438,-22.66667 0.693876,-4.4 1.59911,-14.498335 2.011633,-22.44075 0.412522,-7.942415 1.315906,-16.965767 2.007522,-20.051895 0.691616,-3.086126 1.021801,-7.987788 0.733746,-10.892578 C 63.284163,30.277965 60.734046,23.122443 52.035175,18.684611 41.761493,13.443369 30.221414,16.727164 23.173453,26.897375 c -5.225856,7.540913 -5.821622,13.271485 -5.035534,48.435958 0.57766,25.840797 0.206518,37.376377 -1.928265,59.932817 -2.187506,23.11349 -3.047389,28.22805 -4.983907,29.64406 -1.7246747,1.26112 -2.8074898,1.32352 -4.1163536,0.23727 C 5.0804209,163.46359 4.8031992,134.70571 6.6163393,114 7.2005013,107.32899 7.0402018,88.531809 6.2553711,71.671847 4.8563243,41.617108 4.8716611,41.258089 7.956598,31.848159 11.53656,20.928261 16.437399,15.241328 27.044567,9.6984789 c 5.973795,-3.121647 8.567926,-3.6391161 18.380804,-3.666544 10.138517,-0.028339 12.015704,0.361988 16.666667,3.4655238 5.433985,3.6260373 12.889647,14.6415283 15.978998,23.6084373 4.907506,14.244145 6.275008,29.548049 6.226477,69.681424 -0.02624,21.69969 0.381045,41.49969 0.905079,44 1.129073,5.38711 2.541691,5.50499 14.018528,1.16971 7.64852,-2.88918 7.94273,-2.90442 9.69904,-0.50252 1.31563,1.79924 1.56599,4.64486 0.91493,10.39945 -0.49298,4.35733 -0.95754,12.77273 -1.03237,18.70089 -0.13283,10.52292 -0.21675,10.78788 -3.53985,11.17502 -2.21809,0.2584 -5.19808,-1.02939 -8.554587,-3.6968 -11.841354,-9.41032 -17.69713,-5.75891 -11.197162,6.98209 1.56445,3.06657 3.334888,7.28563 3.93431,9.37569 0.995393,3.47074 0.693668,3.96566 -3.481029,5.70995 -4.105133,1.71524 -26.488731,2.25409 -34.198791,0.82329 z m 22.900058,-11.58956 c 1.322424,-1.59341 1.322728,-2.81026 0.0015,-6 -1.760762,-4.25093 -3.789602,-5.01206 -6.400467,-2.4012 -1.711196,1.7112 -2.184228,8.038 -0.711111,9.51111 1.556704,1.55671 5.394179,0.95767 7.110111,-1.10991 z m 2.326875,-24.93832 c 2.565196,-2.12892 1.990826,-8.36297 -1.021706,-11.08926 -2.545593,-2.30374 -2.954275,-2.31646 -7.333333,-0.22823 -3.977271,1.89663 -4.637503,2.86949 -4.637503,6.83345 0,2.98299 0.827419,5.11535 2.333333,6.01327 2.514358,1.49921 7.949752,0.71943 10.659209,-1.52923 z m -26.339968,-3.0459 c 2.371452,-2.85742 0.650471,-6.01698 -3.277395,-6.01698 -2.86131,0 -3.37518,0.609 -3.37518,4 0,3.02416 0.610732,4 2.503407,4 1.376875,0 3.244,-0.89236 4.149168,-1.98302 z m 46.68076,-2.01698 c 0,-4.26094 -1.139715,-4.99361 -3.733333,-2.4 -2.577195,2.5772 -1.940062,6.4 1.066666,6.4 2.074075,0 2.666667,-0.88889 2.666667,-4 z M 72.753041,143.58904 c 0.368141,-0.95936 0.499309,-8.90936 0.291488,-17.66666 L 72.666669,110 69.661635,125.33333 c -1.652769,8.43334 -3.002769,16.38334 -3,17.66667 0.006,2.75631 5.071768,3.24617 6.091406,0.58904 z"
       id="path253" />
  </g>
</svg>
