<?xml version="1.0" encoding="UTF-8" standalone="no"?>
<!-- Created with Inkscape (http://www.inkscape.org/) -->

<svg
   version="1.1"
   id="svg215"
   width="221.33333"
   height="66.666664"
   viewBox="0 0 221.33333 66.666664"
   xmlns="http://www.w3.org/2000/svg"
   xmlns:svg="http://www.w3.org/2000/svg">
  <defs
     id="defs219" />
  <g
     id="g221">
    <path
       style="fill:#000000;stroke-width:1.33333"
       d="M 75.333332,60.014635 C 63.204623,57.90603 51.135987,55.01166 48.426837,53.561767 38.757834,48.387074 27.114077,46.86847 15.032568,49.206411 7.6799666,50.629243 3.9999999,48.271678 3.9999999,42.138413 c 0,-5.214829 2.6161125,-6.773781 13.6888211,-8.157225 C 23.603076,33.242251 26.160034,32.098767 30.22584,28.37457 49.858159,10.391759 64.048531,5.3798786 95.333332,5.3793349 c 17.349138,-3.016e-4 22.387808,0.8428578 43.333328,7.2513001 4.03334,1.234028 9.73334,2.833916 12.66667,3.555307 2.93333,0.721389 7.13333,1.946143 9.33333,2.721673 2.2,0.775531 7.31806,2.154939 11.37344,3.065349 4.0554,0.910411 9.38951,2.697834 11.85356,3.972051 3.21955,1.664892 8.2077,2.397785 17.72806,2.604732 14.50134,0.315219 15.65514,0.924576 15.6912,8.286992 0.0375,7.655362 -5.11588,9.020407 -24.67202,6.535239 -8.30097,-1.054876 -9.90714,-0.70369 -27.30757,5.970724 -12.74892,4.890196 -24.30501,8.235282 -32.61805,9.441784 -12.03074,1.746062 -49.761761,2.554937 -57.381948,1.230149 z M 84.155929,45.293008 C 76.931566,40.059705 73.821911,34.784544 72.70861,25.873979 c -0.637442,-5.101913 -1.482235,-7.207313 -2.89194,-7.207313 -2.848692,0 -20.587964,8.661225 -24.150004,11.791274 -1.65,1.449895 -3,3.17686 -3,3.8377 0,3.155584 6.068819,6.950364 16.197364,10.128073 13.954778,4.378144 14.891868,4.566396 23.669353,4.75495 l 7.200052,0.154668 z m 29.928651,2.755743 c 0.70652,-0.706518 6.97652,-1.928206 13.93333,-2.714863 12.65122,-1.430563 20.30487,-3.190927 32.45299,-7.464291 7.29604,-2.566541 6.71823,-3.456713 -4.32156,-6.657712 -3.38214,-0.980656 -10.34934,-3.289017 -15.48268,-5.129693 -15.1036,-5.415745 -19.33333,-4.528236 -19.33333,4.056648 0,3.483709 -9.76757,15.194492 -12.67322,15.194492 -0.91681,0 -2.41386,0.899999 -3.32678,1.999999 -1.42043,1.71152 -1.00164,2 2.90341,2 2.50979,0 5.14132,-0.578061 5.84784,-1.28458 z m -8.15244,-16.50794 c 4.07945,-5.348431 4.43489,-10.893772 0.82218,-12.827233 -3.54975,-1.899769 -17.860123,-1.741111 -19.820988,0.219755 -2.093185,2.093185 -2.052953,9.322569 0.06667,11.979395 2.557494,3.205677 6.567462,5.002069 11.265478,5.046725 3.29557,0.03133 5.03885,-0.973405 7.66666,-4.418642 z"
       id="path392" />
  </g>
</svg>
