<?xml version="1.0" encoding="UTF-8" standalone="no"?>
<!-- Created with Inkscape (http://www.inkscape.org/) -->

<svg
   version="1.1"
   id="svg205"
   width="53.333332"
   height="212"
   viewBox="0 0 53.333332 212"
   xmlns="http://www.w3.org/2000/svg"
   xmlns:svg="http://www.w3.org/2000/svg">
  <defs
     id="defs209" />
  <g
     id="g211">
    <path
       style="fill:#000000;stroke-width:1.33333"
       d="m 36.306334,206.33333 c -0.744435,-0.91666 -1.672614,-4.36666 -2.062622,-7.66666 -0.90035,-7.61822 -8.250349,-41.41518 -10.728773,-49.33334 -1.032916,-3.3 -2.277172,-9.3 -2.76501,-13.33333 -0.994951,-8.226 -3.96746,-22.63231 -6.740241,-32.66667 C 12.11324,96.470316 9.0845535,82.672256 4.7123357,60.976545 3.7530378,56.21634 7.5116739,54.666667 20.016549,54.666667 c 6.50434,0 12.185608,-0.581742 12.62504,-1.292758 0.439433,-0.711017 0.850275,-11.243593 0.912983,-23.405724 C 33.674554,6.6983664 34.342866,4 39.986187,4 c 6.299297,0 6.020975,-4.76065771 5.897403,100.87401 -0.111467,95.28294 -0.221435,99.58799 -2.588172,101.31859 -3.078732,2.25123 -5.239792,2.29475 -6.989084,0.14073 z m -1.431355,-86.66666 c 0.252095,-10.45 0.259953,-26.624933 0.01746,-35.94429 C 34.391876,64.484637 34.264546,64.291069 23.20165,65.950052 c -5.215974,0.782184 -5.868317,1.267792 -5.868317,4.368409 0,4.30469 7.819177,42.820769 9.264808,45.637039 0.90537,1.76378 2.422446,7.94601 4.836981,19.71117 0.338625,1.65 1.147993,3 1.798595,3 0.650599,0 1.389169,-8.55 1.641262,-19 z"
       id="path531" />
  </g>
</svg>
