<?xml version="1.0" encoding="UTF-8" standalone="no"?>
<!-- Created with Inkscape (http://www.inkscape.org/) -->

<svg
   version="1.1"
   id="svg195"
   width="216"
   height="220"
   viewBox="0 0 216 220"
   xmlns="http://www.w3.org/2000/svg"
   xmlns:svg="http://www.w3.org/2000/svg">
  <defs
     id="defs199" />
  <g
     id="g201">
    <path
       style="fill:#000000;stroke-width:1.33333"
       d="M 18.6201,213.65247 C 8.4026097,213.15069 7.3893035,212.12557 5.497166,200.37647 3.6499303,188.90619 5.0876435,161.27173 7.6845071,158.33333 9.6131284,156.15107 16.07792,156 107.53998,156 c 96.01558,0 97.84183,0.0485 100.46002,2.66667 2.31691,2.3169 2.69784,4.63409 2.90437,17.66666 0.25975,16.39047 0.2328,17.08259 -1.0663,27.38935 -0.64336,5.10424 -1.6269,7.45072 -3.55564,8.48296 -2.48795,1.33151 -164.565674,2.58108 -187.66233,1.44683 z m 74.271523,-14.52451 c -0.434844,-2.67963 -2.91335,-9.34191 -5.507791,-14.80507 -2.594441,-5.46314 -4.717165,-10.67773 -4.717165,-11.58796 0,-0.91024 -1.05,-2.58136 -2.333334,-3.71361 -3.413921,-3.01204 -61.107609,-2.72643 -63.028262,0.31201 -1.383335,2.18842 -1.749807,25.53854 -0.475427,30.29227 0.881915,3.28976 2.753111,3.43051 54.344812,4.08769 L 93.682247,204 Z m 106.177497,2.6076 c 1.17857,-0.71108 0.39008,-33.38747 -0.83521,-34.61277 -0.99906,-0.99904 -61.95972,-1.67924 -71.90058,-0.80226 -5.6573,0.49908 -7.66666,1.2051 -7.66666,2.69375 0,1.69871 6.10562,15.60219 12.43612,28.31905 1.52096,3.05534 2.65616,3.41464 13.61161,4.3083 6.57375,0.53622 13.15227,1.23678 14.61893,1.55681 3.2854,0.71685 38.2569,-0.57063 39.73579,-1.46288 z m -80.71823,-4.94736 c -0.88444,-7.84671 -11.89584,-29.32341 -15.30384,-29.84871 -1.40534,-0.21661 -4.206126,0.23386 -6.223963,1.00104 -2.975002,1.1311 -3.502959,1.962 -2.791842,4.39384 1.497036,5.11948 7.496765,20.0849 10.155875,25.3323 2.37576,4.68824 2.91698,5 8.68005,5 h 6.1463 z M 69.111129,127 c -1.082861,-1.28333 -4.190382,-5.7569 -6.905602,-9.94126 -2.715222,-4.18437 -5.502884,-7.95782 -6.194808,-8.38545 -0.691923,-0.42763 -3.362138,3.40066 -5.93381,8.50732 -7.046465,13.99241 -11.32483,14.03741 -20.232108,0.21281 -4.664017,-7.23882 -8.511468,-10.27953 -8.511468,-6.72675 0,0.73333 -1.21375,2.54708 -2.697224,4.03055 -2.142294,2.1423 -3.23958,2.40697 -5.333333,1.28643 -3.4121328,-1.82612 -3.3348997,-3.02204 0.828649,-12.83126 5.53873,-13.049107 10.79163,-13.683202 17.401647,-2.10061 C 36.082855,109.02427 38.61698,112 40.856555,112 c 0.977122,0 3.853409,-4.12402 6.391748,-9.16448 2.538337,-5.040471 5.477,-9.495208 6.530358,-9.89942 3.091334,-1.186256 6.765199,2.314961 12.224611,11.65013 2.813523,4.81091 5.763773,8.72404 6.556112,8.69584 C 73.351723,113.25388 75.8,109.56834 78,105.09198 c 2.2,-4.47636 5.364271,-9.035955 7.031712,-10.132428 2.872019,-1.888579 3.307199,-1.703993 8.261671,3.504237 2.876476,3.023801 6.23057,7.606461 7.453547,10.183681 1.22297,2.57723 2.90522,4.66831 3.73832,4.64687 0.83312,-0.0215 3.92379,-4.01176 6.86817,-8.86736 6.53876,-10.783109 9.31596,-12.868687 12.10929,-9.093647 1.08526,1.466667 4.73521,6.227047 8.11101,10.578627 7.02044,9.04972 6.1564,9.3453 14.90205,-5.09779 7.32223,-12.09235 8.96479,-11.715901 18.39455,4.21576 2.72256,4.59979 5.58872,8.15039 6.36924,7.89022 0.78052,-0.26018 3.54068,-4.22691 6.13371,-8.81496 2.59301,-4.588061 5.64694,-8.863702 6.78649,-9.50143 3.36031,-1.88052 7.50275,2.125971 12.53983,12.12829 4.97696,9.8829 5.75366,14.25522 2.73793,15.41247 C 197.13549,123.02789 192,120.4726 192,118.4438 c 0,-0.80431 -1.30415,-3.57252 -2.89809,-6.15159 l -2.8981,-4.68921 -3.1019,3.60619 c -1.70606,1.9834 -3.1195,4.62272 -3.14099,5.86516 -0.0215,1.24244 -1.84305,4.24257 -4.04791,6.66696 -6.08524,6.69116 -7.20069,5.88335 -19.4935,-14.11713 -1.0285,-1.67337 -2.45858,-2.67873 -3.17795,-2.23413 -0.71937,0.4446 -3.37808,4.91908 -5.90823,9.94328 -2.53014,5.02421 -5.22058,9.5183 -5.97873,9.98686 -2.88601,1.78365 -6.76087,-1.08375 -12.68689,-9.38833 -3.37468,-4.72919 -6.86697,-8.59853 -7.76064,-8.59853 -0.89368,0 -3.60124,3.59502 -6.01681,7.98894 -2.41557,4.39392 -5.24351,8.8405 -6.28431,9.88131 -2.57758,2.57758 -6.99292,1.17425 -9.590715,-3.04821 -1.180498,-1.91879 -4.233714,-6.72877 -6.784923,-10.68885 l -4.638563,-7.20016 -3.068958,5.86682 c -1.687927,3.22675 -3.09607,6.77295 -3.129208,7.88044 -0.07694,2.57145 -6.285408,9.31971 -8.574224,9.31971 -0.956666,0 -2.62537,-1.05 -3.70823,-2.33333 z M 30.281237,76.052535 C 14.758099,75.48636 10.29814,74.907787 9.3201443,73.333333 7.5814591,70.534264 6.7371364,63.066881 6.1938168,45.683383 5.6702103,28.930604 6.5960675,26.21412 13.2855,24.876233 c 3.792583,-0.758516 4.047833,-1.19002 4.047833,-6.8429 0,-6.929127 3.348383,-11.3666663 8.576816,-11.3666663 3.537586,0 4.106674,1.1396465 5.501087,11.0163963 0.493056,3.49235 1.453515,6.694004 2.134355,7.114785 2.55088,1.576532 5.001996,-2.563968 5.388494,-9.102412 0.472586,-7.9947837 2.888788,-10.3057836 8.662223,-8.2850655 3.399224,1.1897376 3.77406,1.9685172 4.146737,8.6154655 0.464479,8.284323 1.832795,10.539323 4.867112,8.021063 1.341011,-1.11294 2.05651,-3.979358 2.05651,-8.238744 0,-5.580734 0.460873,-6.7419799 3.164676,-7.9739146 2.284765,-1.0410087 3.935417,-1.0294344 5.936714,0.041628 2.27387,1.2169374 2.843318,2.9788136 3.168659,9.8038406 C 71.284659,24.978905 71.660596,26 74,26 c 2.323787,0 2.752387,-1.111111 3.333333,-8.641411 0.61821,-8.0133003 0.938296,-8.7364395 4.403692,-9.9487991 6.296054,-2.2026582 8.34718,0.2179677 7.790755,9.1942211 -0.455357,7.345856 -0.360141,7.601996 2.666667,7.17359 2.777973,-0.393185 3.185186,-1.24801 3.54156,-7.434465 0.314574,-5.460868 1.00782,-7.3140633 3.168657,-8.4705081 3.852486,-2.0617878 9.058936,0.4436525 9.210196,4.4321201 0.43138,11.374488 0.63521,12.361919 2.55181,12.361919 1.48365,0 2.10667,-1.882844 2.41317,-7.292915 0.46911,-8.2803613 1.90631,-10.7070853 6.34115,-10.7070853 4.07038,0 7.24568,4.7329523 7.24568,10.8000823 0,5.453516 3.10896,9.445086 4.51095,5.791566 C 131.62993,22.07962 132,18.584305 132,15.490951 c 0,-6.2215975 1.76968,-8.8242843 6,-8.8242843 3.91929,0 5.99691,2.5086033 6.0182,7.2666663 C 144.04473,19.871248 145.40445,24 147.33333,24 c 1.92888,0 3.28855,-4.128752 3.31514,-10.066667 0.0213,-4.758063 2.0989,-7.2666663 6.0182,-7.2666663 4.31,0 6,2.6288904 6,9.3333333 0,5.536056 1.67069,9.333333 4.10641,9.333333 0.49852,0 1.17027,-3.647678 1.49275,-8.105952 0.60662,-8.3865026 2.03865,-10.5022355 7.13417,-10.5402973 4.36299,-0.03259 5.93333,2.679246 5.93333,10.2462493 0,5.392592 0.4738,7.066667 2,7.066667 1.52122,0 2.0049,-1.675741 2.02042,-7 0.0268,-9.2002584 1.07064,-10.6145237 7.44864,-10.0922684 L 198,7.3333333 l 1.24529,8.4157257 c 1.14088,7.710122 1.55296,8.477257 4.91476,9.149618 2.01822,0.403643 3.9859,1.558486 4.37264,2.56632 0.38675,1.007835 0.77971,10.868474 0.87327,21.912532 0.13227,15.614652 -0.26365,20.733372 -1.78039,23.017684 -1.90764,2.873059 -2.62044,2.942823 -32.45469,3.176392 -16.77732,0.13135 -51.80421,0.455112 -77.837547,0.719474 C 71.3,76.55544 41.126557,76.448095 30.281237,76.052535 Z M 118.66667,65.030724 c 15.92856,0.168297 76.9487,-2.777969 78.87392,-3.808309 C 199.63232,60.102956 200,58.225855 200,48.666667 200,39.02192 199.64353,37.236379 197.48767,36.082599 194.77721,34.632008 38.588801,34.43836 25.577463,35.869459 l -7.248104,0.797208 -0.375056,12.997302 c -0.252671,8.75612 0.12868,13.324495 1.168653,14 2.831844,1.83939 21.197453,2.4244 58.877044,1.875446 20.533333,-0.299151 38.83333,-0.528062 40.66667,-0.508691 z"
       id="path670" />
  </g>
</svg>
