<?xml version="1.0" encoding="UTF-8" standalone="no"?>
<!-- Created with Inkscape (http://www.inkscape.org/) -->

<svg
   version="1.1"
   id="svg185"
   width="226.66667"
   height="217.33333"
   viewBox="0 0 226.66667 217.33333"
   xmlns="http://www.w3.org/2000/svg"
   xmlns:svg="http://www.w3.org/2000/svg">
  <defs
     id="defs189" />
  <g
     id="g191">
    <path
       style="fill:#000000;stroke-width:1.33333"
       d="m 10.963342,209.9244 c -2.8579376,-2.00179 -2.9633419,-2.85546 -2.9633419,-24 0,-20.14663 0.2162314,-22.14063 2.6666669,-24.59107 3.937761,-3.93776 8.719169,-3.47483 10.328473,1 0.725263,2.01667 1.453003,13.04416 1.617198,24.50553 0.29268,20.42999 0.237997,20.88128 -2.786908,23 -3.835256,2.68632 -5.131083,2.69883 -8.862088,0.0855 z m 98.406238,-0.54046 c -2.61984,-1.65678 -3.5383,-13.67093 -2.70291,-35.35632 l 0.66666,-17.30572 3.75744,-1.31693 c 2.8219,-0.98904 4.64776,-0.81753 7.33333,0.68881 l 3.5759,2.00572 0.36403,24.44331 c 0.25167,16.89849 -0.1074,25.01135 -1.16326,26.28359 -1.73297,2.0881 -8.87849,2.42484 -11.83119,0.55754 z m 100.47977,-1.09408 C 205.09696,207.56881 204,202.49033 204,181.20998 c 0,-19.45452 0.0889,-20.08678 3.27274,-23.27058 4.06126,-4.06128 10.68418,-4.42362 12.68036,-0.69372 1.89138,3.53409 1.79941,43.04218 -0.11,47.2328 -1.50866,3.31114 -4.86198,4.59002 -9.99379,3.81138 z M 39.333334,79.993811 C 34.200001,79.462375 26.96393,79.31558 23.253178,79.6676 17.510108,80.212416 15.986764,79.838429 13.013878,77.153817 10.101696,74.524024 9.3767657,72.436091 8.6509235,64.587699 7.9836132,57.372202 8.2108801,54.81817 9.6246584,53.644838 10.699294,52.75297 19.67302,51.726633 31.129287,51.185323 41.942515,50.674398 50.312019,49.801298 49.728185,49.245102 49.14435,48.688906 43.996998,46.678861 38.289625,44.778335 25.147395,40.402041 9.3333335,32.483937 9.3333335,30.279913 c 0,-0.927611 0.9799255,-3.085603 2.1776115,-4.795539 2.756954,-3.936104 7.541921,-3.345301 19.629777,2.4237 C 35.856343,30.158633 41.008595,32 42.59017,32 c 1.581575,0 4.795795,0.993463 7.142711,2.207698 5.533806,2.863051 16.461313,5.756375 21.816589,5.776476 3.912571,0.01468 4.283827,-0.384828 5.156262,-5.548729 2.09974,-12.428248 9.071572,-18.939476 21.869712,-20.424857 4.345956,-0.504403 9.147326,-0.52176 10.669716,-0.03857 1.98126,0.628827 3.02269,0.189207 3.66415,-1.546746 1.37011,-3.7078408 3.1132,-4.382708 11.37711,-4.4048511 9.3224,-0.024979 10.38025,1.4032823 10.38025,14.0149551 0,6.858421 -0.60647,9.648346 -2.66667,12.267466 -3.02144,3.841143 -3.47421,7.027299 -1,7.037089 0.91667,0.0036 4.44164,-0.987918 7.83327,-2.203434 l 6.16659,-2.21003 0.7308,-8.059365 c 0.64722,-7.13765 0.36768,-8.490902 -2.44423,-11.832669 -3.5528,-4.222268 -3.08969,-7.4388702 1.19397,-8.2928991 7.94095,-1.5831769 13.35511,-1.8179373 16.27996,-0.705908 C 163.41682,9.0456061 164,10.191508 164,14.401246 c 0,5.569478 4.18108,10.932087 8.52344,10.932087 1.29338,0 6.6547,-2.052023 11.91407,-4.560049 10.28939,-4.906682 14.51681,-5.844422 19.22916,-4.265459 5.29243,1.773332 3.36983,6.574223 -4.16444,10.398901 -3.02623,1.536226 -6.93315,3.910667 -8.68204,5.276538 -1.74889,1.365871 -4.18421,2.483402 -5.41183,2.483402 -3.55417,0 -6.9826,3.154124 -6.05524,5.57078 0.45739,1.191904 2.83211,2.542395 5.27718,3.001092 2.44506,0.458697 4.75525,1.641015 5.13376,2.627373 0.51926,1.353202 2.93304,1.632759 9.83426,1.138979 11.8884,-0.850612 12.7456,0.144949 13.48762,15.664676 l 0.56252,11.765665 -3.82423,1.947125 c -7.09916,3.614576 -77.49039,5.679791 -101.08251,2.965668 -10.805695,-1.243125 -16.72184,-1.405576 -18.403931,-0.505348 -1.363444,0.729693 -9.797218,1.206389 -18.741721,1.059325 -8.944504,-0.147062 -17.762734,0.03084 -19.596067,0.395335 -1.833334,0.364497 -7.533334,0.227911 -12.666667,-0.303525 z M 70.666668,68.106004 c 2.566666,0.05001 12.916667,-0.320841 23,-0.82412 C 107.97417,66.56777 112,65.960571 112,64.51675 c 0,-1.522175 -4.78548,-1.822124 -26.999999,-1.692331 -28.085117,0.164093 -34.4253,0.775856 -35.300179,3.406109 -0.661899,1.989947 4.112803,2.99811 10.966846,2.315615 2.933333,-0.292088 7.433333,-0.490151 10,-0.440139 z M 26,66.666666 c 0.453226,-0.733334 -0.111365,-1.333334 -1.254644,-1.333334 -1.143278,0 -2.078689,0.6 -2.078689,1.333334 0,0.733333 0.564589,1.333333 1.254644,1.333333 0.690055,0 1.625464,-0.6 2.078689,-1.333333 z m 21.671953,-0.333334 c -0.659339,-1.997017 -17.005286,-3.126204 -17.005286,-1.174734 0,1.938668 2.600925,2.620033 10.444444,2.736138 5.128343,0.07591 6.957682,-0.359449 6.560842,-1.561404 z M 195.66667,65.741854 c 1.77596,-0.412975 3,-1.702023 3,-3.159315 0,-3.469011 -6.93044,-4.494077 -18.37693,-2.718093 -5.12064,0.794493 -22.13063,1.804045 -37.79999,2.243449 -15.66936,0.439404 -28.77237,1.077507 -29.1178,1.418007 -0.34543,0.340501 0.25457,1.185721 1.33333,1.878269 2.02547,1.300317 75.50372,1.606788 80.96139,0.337683 z M 55.63889,49.86111 c -0.443056,-0.443055 -1.593056,-0.490424 -2.555556,-0.105267 -1.063644,0.425635 -0.747701,0.741578 0.805556,0.805556 1.405555,0.05789 2.193055,-0.257237 1.75,-0.700293 z m 111.57395,-1.66614 c 0.75931,-1.2286 -4.81249,-4.194971 -7.8795,-4.194971 -2.70586,0 -8.66667,2.898346 -8.66667,4.21402 0,1.47337 15.63493,1.45537 16.54617,-0.01905 z m -58.59706,-1.405208 c 1.86416,-0.728915 2.66312,-2.386001 2.78053,-5.766952 0.26826,-7.724976 3.12691,-13.060788 7.46178,-13.927762 2.09472,-0.418943 3.80858,-1.586715 3.80858,-2.595048 0,-2.103635 -1.55277,-2.388118 -3.4,-0.622914 -0.69667,0.665731 -4.26667,1.533762 -7.93334,1.928959 -13.333111,1.437055 -16.681417,2.458768 -19.405061,5.92132 -3.013724,3.831329 -2.544317,9.815377 1.09344,13.939301 2.165426,2.454821 10.629311,3.064396 15.594071,1.123096 z"
       id="path809" />
  </g>
</svg>
