<?xml version="1.0" encoding="UTF-8" standalone="no"?>
<!-- Created with Inkscape (http://www.inkscape.org/) -->

<svg
   version="1.1"
   id="svg175"
   width="112"
   height="212"
   viewBox="0 0 112 212"
   xmlns="http://www.w3.org/2000/svg"
   xmlns:svg="http://www.w3.org/2000/svg">
  <defs
     id="defs179" />
  <g
     id="g181">
    <path
       style="fill:#000000;stroke-width:1.33333"
       d="M 19.333333,205.6568 C 4.6477973,205.02679 4.8380443,205.17449 5.7759501,195.13068 7.2542481,179.29993 16.868885,164.31621 29.730973,157.79851 c 6.116728,-3.09959 7.925903,-3.37746 18.873067,-2.89867 11.112245,0.48601 12.764036,0.92819 20.088436,5.37752 4.389337,2.66639 9.261457,6.24477 10.826935,7.95197 5.10858,5.57107 11.957128,21.48274 12.526665,29.104 0.399963,5.35211 0.08808,6.32258 -2.379409,7.4038 -2.222892,0.97406 -53.451367,1.64391 -70.333334,0.91967 z M 73,193.75399 c 5.067511,-0.64695 5.666667,-1.099 5.666667,-4.27538 0,-4.06293 -2.358938,-7.97484 -9.19907,-15.25517 -6.28374,-6.68813 -9.756225,-8.34699 -19.761932,-9.44053 -7.674037,-0.83871 -8.870606,-0.58996 -16,3.32621 -4.238116,2.32799 -8.81951,5.2058 -10.180878,6.39513 C 19.8831,177.68573 16,185.97699 16,190.57128 v 4.01084 l 25.666667,-0.0524 C 55.783333,194.50092 69.883333,194.15183 73,193.75393 Z M 45.096773,76.872461 C 42.561996,75.152316 38.986512,73.368052 37.151252,72.907431 32.926143,71.846996 24.796704,64.006721 21.27056,57.591616 19.781677,54.882893 17.340836,50.732683 15.846468,48.368925 8.6679497,37.014103 4.5768752,16.946935 8.6168672,12.906942 12.269608,9.2542017 15.799219,10.155151 18.28874,15.375732 l 2.245596,4.709065 14.026001,-0.375732 14.026,-0.375732 1.436512,-5.129052 c 1.747795,-6.2404863 4.9787,-8.4205789 9.45603,-6.380571 2.294402,1.0453997 3.187788,2.53572 3.187788,5.317779 0,2.125928 0.75,4.462204 1.666666,5.191723 2.436142,1.938775 25.820423,2.979699 27.572754,1.227368 0.784985,-0.784985 1.427246,-2.764389 1.427246,-4.398675 0,-6.0140121 8.981277,-9.9367513 11.685817,-5.103999 2.20702,3.943707 -1.47796,25.846211 -6.720033,39.942094 -2.04552,5.500384 -17.839904,21.699255 -23.591352,24.195513 -2.58927,1.123803 -6.30034,2.88955 -8.246821,3.923883 -5.657405,3.006265 -15.984971,2.403489 -21.364171,-1.246935 z M 70.793181,61.219719 C 79.214212,55.347583 82.187145,51.977416 86.019809,43.958553 89.053741,37.610835 89.498839,35.6317 88.187744,34.31878 86.400972,32.529523 40.679403,30.523252 29,31.721613 c -7.135763,0.732163 -7.780056,2.234874 -4.41316,10.292992 2.443529,5.84819 13.246444,17.445622 19.373339,20.798182 6.673988,3.651922 20.487416,2.831824 26.833002,-1.593068 z"
       id="path948" />
  </g>
</svg>
