<?xml version="1.0" encoding="UTF-8" standalone="no"?>
<!-- Created with Inkscape (http://www.inkscape.org/) -->

<svg
   version="1.1"
   id="svg165"
   width="220"
   height="209.33333"
   viewBox="0 0 220 209.33333"
   xmlns="http://www.w3.org/2000/svg"
   xmlns:svg="http://www.w3.org/2000/svg">
  <defs
     id="defs169" />
  <g
     id="g171">
    <path
       style="fill:#000000;stroke-width:1.33333"
       d="M 135.39751,202.95309 C 134.41243,201.96802 103.09458,200.94756 82,201.21316 c -6.6,0.0831 -20.221455,-0.4313 -30.269899,-1.1431 C 30.571365,198.57124 23.750716,196.01985 13,185.58238 7.3415485,180.0888 6.6666667,178.81036 6.6666667,173.58506 c 0,-4.79416 0.7295552,-6.53001 4.0468743,-9.62885 6.567368,-6.13484 11.63611,-7.10817 31.881311,-6.12203 9.939497,0.48416 21.794796,1.24962 26.345107,1.70103 l 8.273293,0.82073 2.800452,-4.74641 c 2.659935,-4.50825 3.248345,-4.78745 11.726708,-5.56443 4.90944,-0.4499 12.526258,-1.39814 16.926258,-2.10721 11.00266,-1.77307 34.75034,-2.35503 41.90145,-1.02681 5.29175,0.98285 17.28883,5.74237 28.99792,11.50413 3.60495,1.77391 5.50633,1.84813 12.82039,0.50047 11.33853,-2.08922 16.50102,-2.0008 17.38302,0.29766 0.63628,1.65811 1.25016,17.6042 0.9914,25.75242 -0.13602,4.28328 -5.6396,6.53614 -18.66361,7.63984 -8.57864,0.72698 -12.20515,1.66846 -15.33333,3.98072 -4.52352,3.34362 -21.73218,6.2598 -30.27878,5.13102 -2.6665,-0.35217 -6.03761,-0.004 -7.49136,0.77426 -1.45373,0.77801 -3.07205,0.98569 -3.59626,0.46149 z M 170.9798,187 c 4.20556,-2.38334 9.53595,-4.33334 11.84531,-4.33334 2.30936,0 6.51845,-0.69497 9.35353,-1.54438 4.85933,-1.4559 5.15469,-1.84775 5.15469,-6.83888 v -5.29451 l -7.66666,0.82349 c -6.88928,0.73999 -8.34266,0.4243 -14.33334,-3.11345 -11.37281,-6.71612 -15.23644,-8.1258 -24.43281,-8.9146 L 142,157.02092 l 4.39187,4.1345 c 3.5024,3.29716 4.12906,4.62552 3.09428,6.55904 -1.20607,2.25356 -4.19584,2.44462 -42.39187,2.70895 -25.501437,0.17648 -45.394608,-0.30412 -52.427613,-1.26663 -31.123743,-4.25942 -44.573329,1.50818 -29.807784,12.78251 7.681504,5.86527 13.671653,7.52821 29.748709,8.25864 6.934176,0.31504 12.734211,0.69939 12.888964,0.85411 0.154755,0.1547 21.781337,0.28129 48.059074,0.28129 h 47.7777 z m -46.46235,-27.73062 c 9.10618,-0.55476 13.82758,-1.31801 12.66666,-2.04766 -1.73935,-1.0932 -24.96287,-0.43859 -31.51744,0.8884 -1.65,0.33404 -3,1.2436 -3,2.02122 0,0.82216 1.53449,1.12272 3.66666,0.71818 2.01667,-0.38264 10.19952,-1.0937 18.18412,-1.58014 z M 80.666667,117.93837 c -8.8,-0.92124 -18.7,-2.31656 -22,-3.10072 C 40.314293,110.4767 36.067428,109.31075 30,106.96741 17.702047,102.21773 5.3377756,95.447809 4.5756565,93.046584 2.8494203,87.607696 5.0477721,86.019575 22.329028,80.221295 31.681396,77.083349 42.633333,73.991163 46.666667,73.349768 50.7,72.708375 60,70.906179 67.333333,69.344888 c 7.333334,-1.56129 18.133334,-3.252601 24,-3.758466 C 106.8585,64.247731 144.76431,66.046567 152,68.465383 c 3.3,1.103156 9.9,2.718519 14.66667,3.589695 10.9463,2.000595 18.31765,4.380821 26.66205,8.60925 3.62045,1.834619 7.28967,3.335671 8.15381,3.335671 0.86415,0 4.18303,1.65 7.37527,3.666666 5.63836,3.561966 7.15225,6.881365 4.78845,10.499317 -1.85486,2.838998 -25.47733,10.951808 -45.64625,15.676568 -26.14044,6.12365 -55.02341,7.47823 -87.333333,4.09582 z m 54.666663,-10.67069 c 7.33334,-1.12747 18.43334,-2.64361 24.66667,-3.3692 6.23333,-0.72559 13.13333,-1.87573 15.33333,-2.55587 2.2,-0.68014 6.89668,-2.00524 10.43708,-2.944666 12.6332,-3.352162 11.20214,-7.655371 -3.94548,-11.864116 -10.32874,-2.869829 -34.13198,-7.171604 -47.15826,-8.522544 -13.23073,-1.372145 -47.398509,-0.942701 -53.391565,0.67106 -2.929522,0.788839 -7.264862,1.616079 -9.634089,1.838309 -10.085776,0.946038 -36.724631,6.513282 -41.584576,8.690744 l -5.276892,2.364272 3.650349,2.391802 c 2.007692,1.31549 6.482294,2.905429 9.943559,3.533197 3.461267,0.627768 8.393211,1.988946 10.959877,3.024842 9.11998,3.68078 40.477686,7.69032 67.333337,8.60955 2.93333,0.1004 11.33333,-0.73992 18.66666,-1.86738 z M 43.070348,56.994828 c -1.611309,-0.736754 -3.522737,-3.040878 -4.24762,-5.120275 -1.958528,-5.61824 -7.470147,-6.587032 -11.675112,-2.052167 -3.852964,4.155249 -7.045375,4.434185 -11.301856,0.987495 -2.824469,-2.287115 -2.948157,-2.83769 -1.320663,-5.87869 1.629884,-3.045466 1.455279,-3.801513 -1.891212,-8.188988 -3.1419643,-4.119328 -3.4698098,-5.310168 -2.218189,-8.057177 0.807781,-1.772885 3.294705,-4.167696 5.526499,-5.321801 4.392081,-2.271233 4.812646,-3.461436 2.650606,-7.501244 -3.70828,-6.9289835 4.162598,-10.7486625 10.28902,-4.993187 2.56878,2.413243 3.746926,2.670836 7.41927,1.622169 3.001454,-0.85709 4.49883,-2.171051 4.792026,-4.205051 0.502439,-3.4855775 4.680104,-6.0825142 8.059455,-5.0099501 1.369305,0.4346004 2.909528,2.8795567 3.616304,5.7405321 1.095849,4.435922 1.743875,5.032144 5.897609,5.426164 3.897435,0.369707 5.255046,-0.262342 8.237791,-3.83519 2.829843,-3.3896956 4.25036,-4.107417 6.842013,-3.4569536 3.676406,0.9227191 5.124926,5.3201476 3.340987,10.1425916 -0.711392,1.923078 -0.574724,3.717914 0.36976,4.855946 2.490159,3.000458 9.896352,4.402376 15.477304,2.929697 2.786113,-0.735187 13.25414,-2.105231 23.26227,-3.04454 10.00814,-0.939309 19.00814,-2.213005 20,-2.830436 3.01046,-1.873993 18.36647,-3.621344 32.47006,-3.694745 13.74058,-0.07151 31.16833,2.714938 39.96276,6.389481 4.48796,1.875192 4.90721,2.461529 4.11953,5.761241 -0.94997,3.979589 -7.40504,10.138167 -12.74896,12.163397 -13.41967,5.085762 -16.89103,5.520222 -33.35753,4.174875 -8.92132,-0.728889 -16.81246,-1.691061 -17.53588,-2.13816 -2.5671,-1.586548 -31.38626,-3.777515 -50.225635,-3.818385 -18.508652,-0.04015 -19.20038,0.05901 -21.666667,3.106234 -1.401192,1.731242 -2.547621,4.894106 -2.547621,7.028586 0,2.784956 -0.889108,4.285977 -3.148518,5.315433 -3.134572,1.428206 -6.311974,0.348777 -13.106768,-4.452639 -1.823397,-1.28847 -2.7809,-1.117981 -5,0.890276 -1.509593,1.366163 -2.744714,3.269829 -2.744714,4.230371 0,2.755613 -4.278138,4.352296 -7.596319,2.83509 z M 56,36.578473 c 2.986599,-1.617279 3.052133,-1.810592 0.630008,-1.858423 -1.486828,-0.02936 -4.120081,-1.04572 -5.851675,-2.258573 -2.6865,-1.881699 -3.561296,-1.943537 -5.963341,-0.42154 -1.548245,0.981006 -4.914992,2.182708 -7.481659,2.670446 -4.473069,0.85001 -4.53645,0.939991 -1.527833,2.168995 4.706392,1.922536 16.410567,1.748139 20.1945,-0.300905 z m 130.33333,-5.432716 c 4.58334,-0.388647 8.33334,-1.215001 8.33334,-1.836343 0,-2.290614 -6.43418,-3.124446 -24,-3.110268 -13.77066,0.01107 -18.93628,0.507271 -21.98478,2.111624 l -3.98477,2.097096 5.98477,0.795647 c 11.1769,1.485916 16.64043,1.788649 21.98478,1.218173 C 175.6,32.108571 181.75,31.534402 186.33333,31.145757 Z M 51.333333,26.666666 c 2.38746,-2.638114 2.328999,-2.666592 -5.460016,-2.659646 L 38,24.014086 l 4,2.562183 c 5.164956,3.308389 6.410213,3.320456 9.333333,0.09044 z"
       id="path1087" />
  </g>
</svg>
