<?xml version="1.0" encoding="UTF-8" standalone="no"?>
<!-- Created with Inkscape (http://www.inkscape.org/) -->

<svg
   version="1.1"
   id="svg75"
   width="217.33333"
   height="212"
   viewBox="0 0 217.33333 212"
   xmlns="http://www.w3.org/2000/svg"
   xmlns:svg="http://www.w3.org/2000/svg">
  <defs
     id="defs79" />
  <g
     id="g81">
    <path
       style="fill:#000000;stroke-width:1.33333"
       d="m 114.42012,207.30901 c -0.24616,-0.24616 -18.741391,-0.58209 -41.100509,-0.74653 -48.788409,-0.35877 -61.67357,-1.26285 -65.344313,-4.58484 -2.1999094,-1.99088 -2.6419647,-4.1164 -2.6419647,-12.70324 0,-16.57227 -1.3360339,-15.96673 34.6666657,-15.71187 39.881684,0.28232 45.350832,0.19775 46.263993,-0.71541 0.425995,-0.426 -0.846481,-2.8998 -2.827725,-5.49735 -2.567272,-3.36586 -3.482644,-5.96214 -3.185932,-9.03629 C 80.6182,154.50213 81.132304,154 84.666665,154 c 3.319123,0 4.75576,1.1348 8.439915,6.66667 2.441952,3.66666 4.962085,6.8567 5.600294,7.08898 0.63821,0.23228 3.018706,-0.9516 5.289986,-2.63082 l 4.12961,-3.05316 5.60343,2.96786 c 3.08189,1.63234 5.98134,2.96622 6.44324,2.96418 0.46189,-0.003 3.33133,-3.30371 6.37652,-7.33704 4.50209,-5.96298 6.26736,-7.33334 9.44662,-7.33334 5.3987,0 7.08966,3.5208 4.379,9.11771 -1.15239,2.37941 -3.63515,5.53749 -5.51724,7.01795 -5.13078,4.03586 -1.70224,5.51653 9.80862,4.23598 8.5442,-0.95052 25.37806,-1.13208 51.33334,-0.55365 5.5,0.12253 10.88026,0.77957 11.95614,1.46003 1.49332,0.94446 1.96654,4.28218 2,14.10692 0.0477,13.99296 -0.005,14.20724 -4.02316,16.31984 -2.46564,1.29638 -90.30756,3.4762 -91.51286,2.2709 z m 28.24654,-8.13198 c 15.76667,-0.37518 35.26667,-1.09347 43.33334,-1.59624 l 14.66666,-0.91412 0.40143,-4.11356 c 0.52275,-5.35688 -1.63328,-6.97387 -10.48736,-7.86542 -14.29755,-1.43965 -172.289557,-1.91389 -174.884836,-0.52494 -1.898946,1.01629 -2.413273,2.53814 -2.104516,6.22713 0.669364,7.99744 1.940431,8.22292 47.075288,8.35084 21.999999,0.0624 41.200004,0.65269 42.666664,1.31185 1.46667,0.65916 4.46667,0.8853 6.66667,0.50252 2.2,-0.38277 16.9,-1.0029 32.66666,-1.37806 z m -2,-141.725153 c -13.28492,-0.918144 -14.92619,-1.540752 -16.75724,-6.35678 -1.33449,-3.509978 1.16724,-16.032604 4.74704,-23.761764 2.8677,-6.191646 13.93468,-16.093571 21.61879,-19.3429154 9.15297,-3.8704783 25.69271,-3.3648885 35.72879,1.0921645 10.24912,4.5516689 21.10133,18.9310549 25.52202,33.8171689 2.24192,7.549341 1.51395,11.257126 -2.45765,12.517662 -1.53733,0.487935 -13.35665,1.021998 -26.26512,1.186806 -12.90848,0.164809 -24.96996,0.609554 -26.80329,0.988325 -1.83334,0.378771 -8.73334,0.315471 -15.33334,-0.140667 z M 192.7932,43.171943 c 6.70742,-3.612187 5.92258,-6.722534 -4.4604,-17.676472 L 179.33226,16 h -10.09602 c -8.70252,0 -11.12212,0.555757 -17.53015,4.026491 -4.08876,2.214569 -8.53368,5.664569 -9.8776,7.666666 -3.00412,4.475374 -5.78152,12.02007 -5.80841,15.778363 -0.0199,2.767299 0.32972,2.800437 26.10645,2.475148 22.38603,-0.282501 26.77656,-0.679757 30.66667,-2.774725 z M 9.6161776,54.340807 C 6.6098308,50.71838 6.498652,45.530399 9.2373523,36.663519 13.262585,23.631332 16.720957,18.2958 26.047886,10.728444 L 34.340839,4 48.170419,4.00105 C 60.625907,4.0019973 62.803067,4.382021 70.082498,7.8258065 81.550677,13.251224 89.219291,23.689266 93.946768,40.308377 96.6038,49.648981 95.400327,52.68931 88.310657,54.546853 80.462977,56.603001 11.343435,56.422022 9.6161776,54.340805 Z M 81.061531,39.946791 C 81.603251,35.300768 69.774151,19.736725 63.779944,17.208683 52.506991,12.454339 34.288465,16.663288 26.435341,25.836247 c -3.649329,4.262656 -7.140924,14.610073 -5.710795,16.92407 0.486023,0.786402 12.344789,1.150175 30.369752,0.931607 l 29.572367,-0.358591 z"
       id="path1226" />
  </g>
</svg>
