<?xml version="1.0" encoding="UTF-8" standalone="no"?>
<!-- Created with Inkscape (http://www.inkscape.org/) -->

<svg
   version="1.1"
   id="svg223"
   width="224"
   height="200"
   viewBox="0 0 224 200"
   xmlns="http://www.w3.org/2000/svg"
   xmlns:svg="http://www.w3.org/2000/svg">
  <defs
     id="defs227" />
  <g
     id="g229">
    <path
       style="fill:#000000;stroke-width:1.33333"
       d="M 6.0686179,193.07725 C 5.75311,192.11811 5.2212323,183.23333 4.8866673,173.33333 c -0.3345649,-9.9 -1.0320585,-19.31614 -1.5499857,-20.92477 -1.3526441,-4.20116 4.3137881,-9.6938 9.0637714,-8.78579 4.335695,0.82883 4.891698,4.08311 5.303935,31.0439 L 18,194 l -5.678866,0.41059 c -3.7950939,0.2744 -5.8691545,-0.1679 -6.2525161,-1.33334 z M 107.18267,192.28987 c -4.75237,-0.72106 -5.84934,-5.79954 -5.84934,-27.07988 0,-19.45452 0.0889,-20.08679 3.27273,-23.27059 4.06128,-4.06128 10.68419,-4.42361 12.68036,-0.69372 1.89139,3.53409 1.79943,43.04219 -0.10995,47.2328 -1.50866,3.31115 -4.86198,4.59003 -9.99379,3.81139 z m 93.20626,-4.02128 c -2.38116,-1.51334 -2.36025,-48.25211 0.0232,-51.93526 0.5932,-0.91666 3.44315,-1.66666 6.3332,-1.66666 10.16631,0 11.77903,4.984 11.37152,35.14284 -0.18728,13.86137 -0.52658,16.03837 -2.75341,17.66666 -2.71253,1.98346 -12.30205,2.49091 -14.97453,0.79242 z M 108.3235,121.19206 c -1.60071,-0.59214 -3.31919,-2.70542 -3.81884,-4.69617 -0.72924,-2.90555 -0.21107,-4.21942 2.62678,-6.66044 1.94437,-1.67248 3.53523,-3.30873 3.53523,-3.6361 0,-0.32738 -10.950003,-0.33044 -24.333337,-0.007 C 17.248,107.863 16.351948,107.81137 12.503337,101.93764 9.8097684,97.826738 10.792616,89.947915 14.455989,86.284541 c 3.928428,-3.928427 15.387214,-4.603436 94.210681,-5.54972 39.6,-0.475402 76.29878,-1.509323 81.55285,-2.297603 9.40417,-1.410932 9.64251,-1.373015 15.31476,2.436516 3.16907,2.128364 6.30412,5.411465 6.9668,7.295781 1.61941,4.604791 -0.0649,12.836355 -2.94157,14.375895 -4.48726,2.40151 -27.74336,4.04515 -46.55951,3.29063 -10.45,-0.41904 -19,-0.39548 -19,0.0524 0,0.44784 0.74896,2.01352 1.66435,3.47929 2.48345,3.97665 -1.12791,9.83783 -6.3828,10.35915 -3.18238,0.31571 -4.42282,-0.37521 -6.26132,-3.48755 -2.1794,-3.68944 -2.17371,-3.98896 0.11518,-6.06038 C 134.45976,108.9806 136.54607,108 137.77165,108 138.99724,108 140,107.02149 140,105.82554 c 0,-1.77074 -0.92832,-2.02101 -5,-1.348 -2.75,0.45454 -9.05,0.83305 -14,0.84112 -9.29622,0.0152 -11.20089,1.08341 -6,3.36517 1.87864,0.8242 3.16061,2.71686 3.42968,5.06347 0.70501,6.14859 -4.08046,9.67383 -10.10618,7.44476 z M 83.333333,96.614395 C 102.4,96.151239 134.8,95.673527 155.33333,95.552812 c 32.27508,-0.189741 37.75307,-0.516759 40.43126,-2.413601 2.12649,-1.506103 2.60582,-2.498258 1.52861,-3.164016 -1.89959,-1.174011 -129.894259,-1.200278 -153.31848,-0.03146 -16.611061,0.828852 -22.641387,2.309969 -22.641387,5.560985 0,1.228407 3.147435,1.855373 11,2.191195 6.05,0.258733 12.2,0.31071 13.666667,0.115506 1.466667,-0.195205 18.266667,-0.733865 37.333333,-1.197022 z M 76.266667,118.4 c -4.321675,-4.32167 0.772602,-10.84796 7.931028,-10.16045 5.274844,0.50661 6.326262,3.37048 3.064832,8.34806 -2.424054,3.69957 -8.162792,4.64546 -10.99586,1.81239 z M 10.868974,61.711348 C 8.9394308,58.105964 8.0213557,51.332281 7.7455996,38.666667 7.3400793,20.040919 7.8643465,13.659463 9.9733239,11.550486 12.72308,8.8007296 25.439271,8.0996087 83.333333,7.5057025 110.46667,7.2273553 146.16667,6.5160384 162.66667,5.9249985 c 36.30405,-1.300433 41.97158,-1.203096 46.8173,0.8040638 3.44355,1.4263645 3.70615,2.0207902 3.12808,7.0806767 -0.34706,3.037977 -0.8416,14.40843 -1.09896,25.267674 -0.3055,12.891119 -1.01806,20.295692 -2.05294,21.333334 -2.4246,2.431054 -23.61131,3.062762 -114.376189,3.41026 -79.004354,0.302473 -82.977318,0.202946 -84.214987,-2.109659 z m 83.236791,-7.506173 c 0.719514,-1.875022 -2.299726,-12.199551 -5.518761,-18.871842 -1.061387,-2.2 -2.980725,-6.95765 -4.265197,-10.572556 C 82.436481,19.454883 81.216835,17.975351 77.993201,17.083656 75.796941,16.476145 61.4,16.283713 46,16.656031 c -24.601876,0.594784 -28.217453,0.960137 -29.791779,3.010454 -1.392122,1.813026 -1.593549,5.891342 -0.903057,18.28436 0.488797,8.772966 1.109577,16.308198 1.379512,16.744962 0.269935,0.436764 17.647548,0.902612 38.616919,1.035217 30.595378,0.193479 38.260056,-0.107907 38.80417,-1.525849 z m 25.649465,-3.871842 c 0.2816,-2.447362 -0.19584,-3.666666 -1.43574,-3.666666 -1.289,0 -1.68489,-1.177054 -1.29329,-3.845178 0.41508,-2.828117 -0.70401,-5.689054 -4.23092,-10.816282 C 110.15787,28.171099 108,23.601428 108,21.850384 c 0,-3.4169 -0.64869,-3.598112 -8.333333,-2.32792 -6.169408,1.01974 -6.208671,1.868695 -0.725983,15.697399 7.010446,17.682078 8.190536,19.197474 14.774386,18.972293 5.08178,-0.173807 5.65855,-0.542281 6.04016,-3.858823 z M 193.85555,52.006064 200.37777,52 199.42343,35.684251 C 198.89855,26.710588 197.80576,18.569233 196.99501,17.592353 195.82459,16.182076 188.3606,15.876089 160.76047,16.106917 141.64221,16.266809 124.65,16.893313 123,17.499148 c -1.65,0.605833 -2.98682,2.166367 -2.97072,3.467851 0.039,3.15197 4.87911,13.692714 7.7107,16.792304 1.24301,1.360657 2.88662,4.971446 3.65246,8.023976 l 1.39245,5.550054 12.60755,0.836562 c 6.93416,0.460109 19.20756,0.612838 27.27423,0.339397 8.06666,-0.273441 17.60166,-0.499893 21.18888,-0.503228 z"
       id="path251" />
  </g>
</svg>
