<?xml version="1.0" encoding="UTF-8" standalone="no"?>
<!-- Created with Inkscape (http://www.inkscape.org/) -->

<svg
   version="1.1"
   id="svg333"
   width="209.33333"
   height="216"
   viewBox="0 0 209.33333 216"
   xmlns="http://www.w3.org/2000/svg"
   xmlns:svg="http://www.w3.org/2000/svg">
  <defs
     id="defs337" />
  <g
     id="g339">
    <path
       style="fill:#000000;stroke-width:1.33333"
       d="m 167.90357,204.82607 c -0.41971,-0.43819 -4.91971,-1.086 -10,-1.43959 -5.08031,-0.35357 -11.33691,-1.32613 -13.90357,-2.16121 -4.79931,-1.56151 -11.51676,-2.96712 -23.55866,-4.92962 -8.35521,-1.36165 -10.6526,-3.10908 -12.41108,-9.43997 -1.78255,-6.41756 -1.77951,-6.43976 1.30307,-9.52235 3.63678,-3.63678 5.34044,-3.3848 12.1416,1.79587 5.89774,4.49249 9.22536,5.37275 26.8584,7.10487 4.21667,0.41421 7.66667,0.35709 7.66667,-0.12694 0,-1.53862 -5.24587,-11.22902 -6.49759,-12.00264 -0.66129,-0.40869 -7.00239,-9.44913 -14.09132,-20.08985 -10.93112,-16.40797 -14.08207,-20.15699 -20.74353,-24.6807 C 110.34754,126.40027 105.85785,124 104.69046,124 c -1.16739,0 -8.526412,6.3498 -16.353389,14.11068 -7.826979,7.76087 -15.754765,14.90227 -17.617304,15.86977 -3.448981,1.79162 -23.378288,22.06787 -38.31507,38.98211 -4.544083,5.14567 -9.36646,9.6446 -10.716393,9.99761 -6.91022,1.80707 -13.2021676,-5.32245 -11.7266036,-13.28762 1.0213236,-5.51316 10.4325046,-15.30684 22.7049656,-23.62779 7.763307,-5.26365 37.199852,-34.91479 42.402317,-42.71143 1.957326,-2.93333 5.667529,-7.61672 8.244896,-10.40753 2.577365,-2.79081 4.68612,-6.30754 4.68612,-7.81496 0,-1.50742 -2.528302,-5.824027 -5.618448,-9.592467 C 73.564411,84.765857 58.500058,67.600368 55.306238,64.666667 53.709527,63.2 48.325187,57.2 43.341038,51.333333 38.356889,45.466667 29.932928,36.166667 24.621126,30.666667 11.819183,17.411151 10.113281,14.077195 14.095238,10.095238 c 5.11475,-5.1147504 17.988231,-0.8975005 24.949143,8.173141 1.575028,2.052392 3.218141,4.031621 3.651362,4.398288 0.43322,0.366666 3.039871,3.666666 5.792556,7.333333 5.096697,6.788965 26.090329,30.022348 33.7163,37.313395 2.312529,2.210966 4.85933,6.472172 5.659556,9.469345 1.585185,5.937164 4.436481,7.927528 13.412835,9.362904 4.4545,0.712304 6.05155,0.211399 11.26649,-3.533692 3.34195,-2.400004 6.43508,-5.494164 6.87363,-6.875912 0.44097,-1.389388 2.5068,-2.854156 4.62197,-3.277189 4.46222,-0.892444 7.27745,-3.750499 8.41013,-8.538055 1.16824,-4.937859 6.45357,-12.294057 10.16123,-14.142524 1.75838,-0.876651 3.88801,-2.88496 4.7325,-4.462909 0.8445,-1.57795 3.88782,-4.18852 6.76292,-5.801268 8.12746,-4.558975 6.95342,-6.865507 -3.4392,-6.756651 -7.14758,0.07487 -9.64428,0.738265 -14.24414,3.784824 -5.73453,3.798067 -9.18492,3.838191 -12.87341,0.1497 -2.39736,-2.397355 -0.63018,-15.954089 2.53568,-19.452333 2.07225,-2.289803 3.70862,-2.451796 17.76551,-1.758695 8.51567,0.41988 19.08303,0.714364 23.48303,0.654407 8.80188,-0.119934 24.3852,2.042604 27.18409,3.772414 3.15064,1.947204 3.85631,11.64134 2.07136,28.455439 -1.79442,16.903375 -6.00142,33.258493 -9.5955,37.303467 -2.46071,2.769394 -7.40136,3.054756 -9.48207,0.547661 -0.81509,-0.98212 -1.50372,-4.13212 -1.53031,-7 C 175.77609,57.113687 173.98626,53.690301 166.37393,60.839137 163.96826,63.098325 159.3,66.761248 156,68.978965 c -3.3,2.217718 -9.41976,7.554699 -13.59946,11.859958 -8.71694,8.978809 -10.41326,10.692632 -17.73388,17.916905 l -5.33333,5.263142 4,3.2759 c 2.2,1.80174 4.42471,3.29747 4.9438,3.32385 0.51908,0.0264 2.58513,2.89795 4.59122,6.38128 2.00609,3.48333 5.33138,8.42004 7.38954,10.97046 2.05816,2.55042 3.74211,5.68435 3.74211,6.9643 0,3.52455 10.66558,14.39857 14.12256,14.39857 2.10946,0 4.41488,2.18718 8.08112,7.66667 4.97478,7.43521 5.14286,7.55107 5.56722,3.83757 0.24067,-2.106 -0.20933,-4.476 -1,-5.26666 -0.79066,-0.79067 -1.43757,-3.79796 -1.43757,-6.68288 0,-2.88492 -0.68683,-7.53772 -1.52628,-10.33958 -1.27829,-4.26656 -1.16724,-5.64222 0.68353,-8.46685 2.96696,-4.52814 8.02783,-5.63077 13.61511,-2.96639 4.99519,2.38204 5.51483,3.82052 6.34039,17.55146 0.30864,5.13333 1.56002,15.56734 2.78086,23.1867 1.22084,7.61935 2.04422,17.75767 1.82972,22.52959 -0.33582,7.47117 -0.85458,9.02215 -3.73493,11.16676 -3.28235,2.44393 -19.79595,4.97003 -21.41816,3.27635 z"
       id="path361" />
  </g>
</svg>
