<?xml version="1.0" encoding="UTF-8" standalone="no"?>
<!-- Created with Inkscape (http://www.inkscape.org/) -->

<svg
   version="1.1"
   id="svg213"
   width="220"
   height="209.33333"
   viewBox="0 0 220 209.33333"
   xmlns="http://www.w3.org/2000/svg"
   xmlns:svg="http://www.w3.org/2000/svg">
  <defs
     id="defs217" />
  <g
     id="g219">
    <path
       style="fill:#000000;stroke-width:1.33333"
       d="M 76,200.07194 C 55.680096,197.00778 43.018837,194.15762 33.333333,190.46733 29.3,188.93058 21.626891,186.09677 16.28198,184.16996 9.0047669,181.54656 6.3791787,179.93734 5.8282549,177.76289 4.2002475,171.33728 5.7459589,169.9364 21.333333,163.71054 c 9.802448,-3.91525 34.41521,-9.97172 52,-12.79564 10.457004,-1.67928 21.085994,-2.18101 41.999997,-1.98257 35.13034,0.33331 50.4131,2.65621 72.66667,11.04497 6.23333,2.34974 13.23612,4.83126 15.56173,5.5145 4.92816,1.44784 12.43827,8.023 12.43827,10.8898 0,4.60737 -10.89313,9.24966 -38.66667,16.47845 C 142.64357,201.88897 105.55425,204.52861 76,200.07194 Z m 48.89828,-9.3537 c 3.53928,-0.70498 11.83505,-1.91738 18.43505,-2.69423 11.01288,-1.29629 27.15532,-4.45196 44,-8.60152 13.64203,-3.36061 6.95183,-7.72191 -22.66666,-14.77627 -13.72386,-3.26865 -55.45624,-6.15276 -66.079973,-4.56673 -4.722684,0.70504 -15.098652,1.88367 -23.057708,2.61916 -7.959056,0.73548 -17.259056,2.17103 -20.666666,3.19011 -3.407611,1.01906 -11.155512,2.91138 -17.217558,4.20514 -11.407434,2.43459 -15.021088,4.5033 -11.99454,6.86651 2.137123,1.66872 16.67234,5.54505 26.754199,7.13496 4.255767,0.67112 8.755767,1.74196 10,2.37963 3.297193,1.68981 11.223048,2.71536 28.393611,3.67392 8.361081,0.46677 15.451965,1.07421 15.757525,1.34988 1.06093,0.95713 11.94365,0.49404 18.34272,-0.78056 z M 48.804719,137.94757 c -2.340638,-2.34064 -2.544267,-3.33756 -1.328734,-6.50519 0.565487,-1.47363 2.54787,-2.10905 6.579867,-2.10905 9.690739,0 19.277481,-5.37575 19.277481,-10.80982 0,-3.99381 -20.485397,-18.523512 -26.116266,-18.523512 -2.116024,0 -18.189235,-8.081838 -22.217067,-11.171054 -1.283333,-0.984276 -2.333333,-2.443632 -2.333333,-3.243015 0,-0.799382 -0.750979,-1.933237 -1.668842,-2.519677 C 19.050833,81.822283 16.783824,77.294473 14.720993,70.529779 13.821512,67.580088 11.977048,65.143407 9.9417928,64.216083 8.1188721,63.385504 5.9099716,61.131375 5.0331251,59.206907 3.6526048,56.176995 3.7893093,55.466863 6.0527627,53.910252 7.4904099,52.921562 10.166667,50.662198 12,48.889443 c 1.833333,-1.772753 6.051161,-3.873453 9.372951,-4.668221 7.000896,-1.675028 11.139818,-0.569368 26.243373,7.01058 5.225525,2.622508 10.133932,4.768197 10.907571,4.768197 0.773638,0 6.166289,2.4 11.983668,5.333333 5.81738,2.933334 11.383014,5.335576 12.368078,5.338318 0.985064,0.0028 3.891026,1.287308 6.457692,2.854592 5.755636,3.514566 18.014937,8.224239 34.666667,13.317946 19.42759,5.942828 45.347,5.649181 60.49616,-0.685375 2.83956,-1.187348 6.21959,-2.158814 7.51116,-2.158814 3.16541,0 4.11015,4.36839 1.87603,8.674656 -1.55435,2.99601 -1.53822,3.945913 0.10973,6.461023 1.71559,2.61833 1.66368,3.39196 -0.46347,6.906472 -4.24276,7.00998 -4.34573,9.96567 -0.58058,16.6637 3.56293,6.33826 3.48681,10.62748 -0.18858,10.62748 -1.09445,0 -3.06328,-1.13539 -4.37517,-2.52309 C 185.61212,123.87686 168.75039,116 165.24415,116 c -3.29338,0 -6.63315,-3.63684 -5.66254,-6.16621 0.65328,-1.70243 2.67854,-2.00373 10.94335,-1.62808 l 10.14171,0.46095 0.39792,-4.06658 0.39792,-4.06659 -15.06459,-1.589026 C 158.1124,98.070501 147.13333,97.424473 142,97.508846 c -14.54136,0.239006 -15.29812,0.09071 -16.56692,-3.246486 -1.46989,-3.866123 -8.93485,-7.169977 -20.0719,-8.88346 -4.75135,-0.731016 -10.151347,-2.419989 -11.999997,-3.753273 -5.72029,-4.125588 -37.007872,-18.958961 -39.98956,-18.958961 -1.55202,0 -2.724463,0.75 -2.605428,1.666666 0.477846,3.679838 -0.269848,4.798507 -4.099528,6.13354 -2.915431,1.016326 -4,2.244718 -4,4.530433 0,4.338171 2.413433,6.336027 7.65399,6.336027 2.449694,0 6.079694,1.154601 8.066667,2.565783 1.986972,1.41118 8.712676,3.477277 14.946009,4.591328 12.37083,2.210973 11.879122,2.165037 27.461487,2.56548 11.93695,0.30676 15.1705,1.857712 14.22165,6.821319 -0.66029,3.454068 0.96585,4.345038 8.31686,4.556878 22.11258,0.63722 33.09323,3.47474 30.29126,7.82756 -1.4067,2.18528 -11,2.12494 -32.42511,-0.20395 -9.04115,-0.98277 -9.93228,-0.16698 -11.22461,10.2756 l -0.9488,7.66667 13.8203,0.0204 c 15.19743,0.0224 17.90167,0.85558 16.5545,5.10014 -1.13776,3.58478 -3.74496,3.96554 -33.40087,4.87783 -13.2,0.40607 -30.987877,1.04181 -39.528615,1.41277 -13.082541,0.56823 -15.865402,0.33768 -17.666666,-1.46358 z m 47.408698,-12.22102 c 1.21738,-1.05755 2.590268,-3.42429 3.050862,-5.25945 0.656833,-2.61703 0.04484,-3.96176 -2.837676,-6.2352 -8.647451,-6.82025 -13.338954,-7.38184 -11.842011,-1.41755 0.497853,1.98361 -0.262835,5.27473 -2.011335,8.70208 -2.112306,4.14046 -2.408265,5.76149 -1.189426,6.51478 2.372593,1.46634 12.256924,-0.0698 14.829586,-2.30466 z m 1.119916,-24.99592 c 0,-1.680761 -2.74985,-3.397298 -5.442382,-3.397298 -2.04706,0 -1.369042,2.933508 1.094345,4.734778 2.587351,1.89192 4.348037,1.35032 4.348037,-1.33748 z m -24.36111,-2.869521 c -0.443056,-0.443055 -1.593056,-0.490424 -2.555556,-0.105267 -1.063644,0.425635 -0.747702,0.741578 0.805556,0.805556 1.405554,0.05789 2.193054,-0.257237 1.75,-0.700293 z M 36.261556,83.603189 C 28.389265,75.481047 32.388907,65.295014 44.236388,63.293395 50.469035,62.240396 50.655712,61.174783 45,58.934443 42.616667,57.990356 38.968043,56.34389 36.891947,55.275627 c -5.216068,-2.683947 -5.986442,-2.478629 -6.470051,1.724372 -0.351548,3.055273 -1.144452,3.736335 -4.755229,4.084477 -4.745679,0.45757 -5.220523,1.864912 -2.333334,6.915523 1.048028,1.833333 1.926767,4.476699 1.952754,5.874145 0.062,3.334496 6.221328,11.336932 9.854092,12.802827 5.178568,2.08966 5.437653,1.379485 1.121377,-3.073782 z M 71.47794,36.620797 C 69.974141,35.116998 69.882827,33.599767 71.021516,29.037114 73.760287,18.063033 83.249855,9.685219 96.981341,6.1186183 108.85586,3.0343441 126.81463,8.1441539 134.79552,16.877889 c 8.64743,9.463157 9.93225,14.640634 4.66191,18.786289 -2.92879,2.303777 -5.95735,2.538032 -34.65442,2.680456 -25.436275,0.12624 -31.804402,-0.203169 -33.32507,-1.723837 z M 133,31.3097 c 2.64531,-0.887778 1.93967,-5.261095 -1.33333,-8.263535 -1.65,-1.513603 -6.13006,-4.318191 -9.95568,-6.232419 C 112.85787,12.383909 99.87488,11.982536 92.193645,15.901209 81.591397,21.310073 74.840608,31.060889 80.884867,32.235567 83.959737,32.833157 130.94796,31.998373 133,31.3097 Z"
       id="path390" />
  </g>
</svg>
