<?xml version="1.0" encoding="UTF-8" standalone="no"?>
<!-- Created with Inkscape (http://www.inkscape.org/) -->

<svg
   version="1.1"
   id="svg203"
   width="136"
   height="178.66667"
   viewBox="0 0 136 178.66667"
   xmlns="http://www.w3.org/2000/svg"
   xmlns:svg="http://www.w3.org/2000/svg">
  <defs
     id="defs207" />
  <g
     id="g209">
    <path
       style="fill:#000000;stroke-width:1.33333"
       d="m 31.327668,171.13719 c -1.096884,-1.09688 -1.994335,-3.23987 -1.994335,-4.7622 0,-3.11904 5.16617,-18.36315 6.882412,-20.30832 0.614674,-0.69667 1.117588,-2.21923 1.117588,-3.38345 0,-2.24446 9.783334,-12.08869 16.94601,-17.05151 3.644733,-2.52534 6.050513,-2.96504 16.222793,-2.96504 17.040096,0 28.546301,5.29 37.715464,17.33976 7.46712,9.81297 11.92307,28.0586 7.53247,30.84292 -0.96254,0.6104 -7.45007,1.14683 -14.41674,1.19207 -6.966663,0.0452 -25.119213,0.30901 -40.338995,0.58617 -23.257884,0.42355 -27.990482,0.18579 -29.666667,-1.4904 z m 41.709767,-8.3834 c 30.343885,0.68293 34.320375,-0.94652 28.887345,-11.83729 -1.14137,-2.28794 -4.659324,-6.81874 -7.817672,-10.06843 -6.953607,-7.15473 -17.773375,-10.46873 -25.296884,-7.74819 -2.383087,0.86174 -5.575395,1.56679 -7.094016,1.56679 -3.112184,0 -15.898165,10.90148 -16.881288,14.39319 -0.352065,1.25041 -1.029216,4.77925 -1.50478,7.84188 -0.828255,5.33392 -0.706035,5.59421 2.902599,6.18169 2.071993,0.33732 6.334106,0.34225 9.471362,0.0107 3.137256,-0.3313 10.937256,-0.48456 17.333334,-0.3406 z M 9.5486421,111.59277 C 7.5333069,109.16444 6.5031059,90.53446 6.1169972,49.535498 5.84688,20.853096 6.1291959,14.06128 7.6549791,12.535497 c 1.0278568,-1.027856 2.2759733,-1.87056 2.7735919,-1.872673 0.49762,-0.0021 7.204762,-0.282094 14.904762,-0.622177 23.675774,-1.0456806 84.248987,-2.497905 91.999997,-2.2056722 4.52474,0.170594 7.89152,1.0091276 8.79076,2.1894392 2.97391,3.903429 4.10081,96.310316 1.20924,99.159016 -0.73333,0.72246 -11.53333,1.6189 -24,1.99209 -12.466663,0.37318 -26.004393,1.08077 -30.083839,1.57242 -12.326902,1.48561 -11.44715,5.56646 -14.014995,-65.010487 -0.553155,-15.203411 0.518728,-18.404119 6.163339,-18.404119 5.136774,0 7.260118,6.12486 7.378961,21.284871 0.147201,18.777295 2.037395,46.129783 3.332624,48.225509 0.580911,0.939933 3.296273,1.611776 6.133172,1.517476 C 85.0425,100.26813 93.933333,99.998787 102,99.762659 l 14.66667,-0.429324 -0.0763,-9.333333 c -0.21651,-26.487911 -0.99649,-56.640607 -1.59343,-61.59848 -0.58302,-4.842294 -1.18677,-5.711087 -4.46989,-6.432182 -4.34362,-0.95402 -31.249929,-0.973221 -65.102951,-0.04646 -20.8496,0.57078 -23.512835,0.906576 -25.867831,3.261574 -2.310155,2.310153 -2.425673,3.107191 -0.96236,6.63994 0.914608,2.20806 1.222864,4.726687 0.685012,5.596949 -1.224913,1.981952 -1.185207,48.901929 0.05181,61.219594 1.181516,11.765033 0.266854,14.692403 -4.590673,14.692403 -2.060789,0 -4.396935,-0.78326 -5.1914339,-1.74057 z"
       id="path529" />
  </g>
</svg>
