<?xml version="1.0" encoding="UTF-8" standalone="no"?>
<!-- Created with Inkscape (http://www.inkscape.org/) -->

<svg
   version="1.1"
   id="svg193"
   width="220"
   height="178.66667"
   viewBox="0 0 220 178.66667"
   xmlns="http://www.w3.org/2000/svg"
   xmlns:svg="http://www.w3.org/2000/svg">
  <defs
     id="defs197" />
  <g
     id="g199">
    <path
       style="fill:#000000;stroke-width:1.33333"
       d="m 41.333333,172.66667 c -0.912918,-1.1 -2.716406,-2 -4.00775,-2 -1.291346,0 -2.665946,-1.21621 -3.054668,-2.70268 -0.568936,-2.17563 0.538388,-3.33367 5.678105,-5.93815 C 46.720313,158.59456 48,156.7766 48,150.58836 c 0,-2.76997 1.035583,-4.50365 3.666667,-6.1384 5.631146,-3.49874 8.271141,-7.35785 8.303685,-12.1382 0.02477,-3.63919 -0.703693,-4.70461 -4.432559,-6.48278 C 50.664468,123.50505 44,112.02223 44,105.94946 44,100.54732 40.830776,91.907547 39.093688,92.574131 38.224527,92.907659 33.969568,93.581484 29.638223,94.07152 22.105372,94.923766 21.550859,94.776188 16.881525,90.676459 13.054016,87.31586 12,85.408716 12,81.843787 c 0,-2.50065 0.555426,-5.588495 1.234281,-6.861878 1.218083,-2.284857 4.236272,-10.998056 7.118539,-20.550483 1.342472,-4.449225 1.07004,-5.707744 -2.950044,-13.627947 C 14.966768,36.004159 11.232768,30.127505 9.1049965,27.744247 5.0038367,23.150651 3.1799201,18.405607 4.6198317,16.07578 5.9782457,13.87782 11.315,14.417022 14.820188,17.106378 c 1.748897,1.341841 4.218711,2.81875 5.488477,3.282021 1.269766,0.463271 4.269766,4.885549 6.666667,9.827286 5.119256,10.55447 7.726379,12.705885 11.384941,9.394932 1.384003,-1.252506 3.84974,-2.277283 5.479416,-2.277283 2.13306,0 3.516098,-1.323633 4.93743,-4.725357 1.085909,-2.598948 1.598806,-5.33305 1.139773,-6.075782 -0.459035,-0.742732 -0.4746,-2.784807 -0.03459,-4.537943 1.001812,-3.99155 18.799495,-18.1605761 21.506604,-17.1217604 1.069434,0.41038 1.944424,0.8359132 1.944424,0.9456294 0,0.109716 0.584902,2.2389165 1.299782,4.731556 1.199994,4.184139 0.951942,4.860126 -3.231055,8.805201 -7.862071,7.414886 -13.540785,21.073256 -7.735393,18.605065 1.283333,-0.545616 5.818085,-2.238988 10.077228,-3.76305 6.5209,-2.333395 7.926894,-2.474922 8.902638,-0.896135 0.716578,1.159445 0.432712,3.278877 -0.743894,5.554185 -2.832202,5.476875 -2.353622,7.510031 2.338968,9.936665 5.603926,2.897902 22.963306,5.06107 26.297056,3.2769 1.92417,-1.029782 3.33935,-0.690522 6.06587,1.454165 2.42159,1.90482 6.18932,3.00386 11.80917,3.444712 8.73269,0.685041 36.18238,-1.291503 52.91963,-3.810531 8.95059,-1.347102 10.55364,-1.24191 15.27566,1.002384 2.90161,1.379087 7.25161,5.104074 9.66666,8.277748 l 4.39102,5.770321 0.0159,20.896347 c 0.0107,14.178886 0.64855,23.253766 1.98414,28.229686 2.26904,8.45358 2.65217,28.29005 0.61976,32.08765 -0.88815,1.65952 -2.78964,2.57901 -5.33334,2.57901 -2.78908,0 -4.02025,0.68707 -4.18116,2.33334 -0.12546,1.28333 -0.3084,3.23333 -0.40658,4.33333 -0.0981,1.1 -1.74999,4.46588 -3.67067,7.47975 -2.51236,3.9423 -4.68957,5.71922 -7.76008,6.33333 -7.88004,1.57601 -10.57644,1.03355 -12.16219,-2.44677 -1.29493,-2.84208 -0.96694,-4.07003 2.36192,-8.84296 8.47895,-12.15712 8.59342,-12.4147 8.22627,-18.51136 -0.27513,-4.56867 -0.93753,-6.09763 -2.79461,-6.45048 -1.33871,-0.25436 -3.13871,0.43634 -4,1.5349 -0.8613,1.09858 -4.71335,2.40723 -8.56014,2.90814 -5.71248,0.74385 -7.14246,0.52421 -7.80357,-1.1986 -0.56659,-1.47652 -2.74633,1.11338 -7.26563,8.63278 -3.5509,5.90816 -7.11454,12.65143 -7.91918,14.98503 -2.72134,7.89236 -17.01488,13.46737 -21.2977,8.30689 -2.4086,-2.90218 -0.72286,-6.30406 7.05108,-14.22933 7.39064,-7.53451 11.6895,-15.09343 14.386,-25.29572 2.78947,-10.55405 3.30443,-10.34718 -24.27573,-9.75219 -13.3668,0.28836 -24.56949,0.79051 -24.89486,1.11588 -0.72207,0.72208 1.6154,18.97934 3.58171,27.97551 1.25689,5.75049 1.10898,7.04504 -1.21868,10.66667 -1.45705,2.26702 -3.29,5.69898 -4.07321,7.62657 -1.1861,2.91913 -2.545918,3.65353 -8.13862,4.39543 -6.677831,0.88584 -10.470796,-0.44498 -10.470796,-3.67384 0,-0.79596 2.25,-3.75376 5,-6.57291 4.844157,-4.96596 4.989656,-5.39565 4.668145,-13.78624 -0.34954,-9.12204 -2.457904,-14.68133 -7.267136,-19.16181 -5.089721,-4.7418 -7.836009,-3.13847 -14.98392,8.74788 -4.140963,6.88605 -10.222228,22.91857 -9.764083,25.74182 0.227291,1.40064 -0.802908,2.28583 -2.98634,2.56595 -1.833333,0.23521 -3.933333,1.1872 -4.666666,2.11555 -1.525672,1.93137 -6.54821,4.79013 -8.415752,4.79013 -0.691751,0 -2.004663,-0.9 -2.917582,-2 z M 202.41,122.33334 c -0.44536,-6.1553 -2.81017,-7.23042 -3.50943,-1.59549 -0.52486,4.22953 0.50559,7.26215 2.46758,7.26215 0.88348,0 1.29134,-2.21839 1.04185,-5.66666 z m -29.77152,1.71227 c 0.90407,-1.46282 -2.9786,-16.04804 -4.78609,-17.97894 -0.65215,-0.69667 -1.18572,-2.64681 -1.18572,-4.33365 0,-1.946851 -2.6783,-5.723961 -7.33334,-10.341945 C 155.3,87.389846 152,83.254182 152,82.20071 c 0,-1.988405 2.73487,-3.534042 6.25319,-3.534042 2.85264,0 15.07601,12.593614 15.09954,15.55692 0.0503,6.326632 10.05223,28.443082 12.86314,28.443082 1.67313,0 3.03773,-3.87365 5.95189,-16.89548 1.24583,-5.56698 1.23411,-8.193066 -0.054,-12.10676 -1.3618,-4.137462 -1.30899,-5.643655 0.3068,-8.74997 2.59992,-4.998288 1.57224,-8.124435 -3.89056,-11.834887 -2.49368,-1.693765 -4.89236,-4.188984 -5.33039,-5.544932 -0.74928,-2.319462 -1.95246,-2.398368 -20.33133,-1.333333 -33.50468,1.941557 -49.27882,1.002325 -71.753793,-4.272399 -10.53361,-2.472168 -21.684272,-2.421617 -25.035994,0.113496 -6.13861,4.643014 -12.74516,1.29538 -12.74516,-6.458156 0,-4.823616 -2.413782,-5.858313 -11.693881,-5.01272 -7.504661,0.683817 -8.562508,1.152772 -10.333333,4.580881 -2.728295,5.281652 -2.483626,6.359943 1.231525,5.427499 2.264209,-0.56828 3.591815,-0.1118 4.525103,1.555892 1.891809,3.380475 -0.759176,8.413684 -4.957999,9.413352 -4.820691,1.147724 -6.771415,2.976308 -6.771415,6.347442 0,6.552823 6.7216,8.107812 11.818951,2.73422 3.666076,-3.864754 9.087928,-5.590602 11.134325,-3.544204 0.783586,0.783585 1.895315,5.509656 2.47051,10.502379 1.31967,11.454804 2.323846,15.97136 4.760356,21.41101 1.66496,3.71712 2.617801,4.33334 6.70059,4.33334 4.332371,0 4.673167,-0.2693 3.796532,-3 -2.190569,-6.8236 -2.316878,-20.62525 -0.23033,-25.167802 1.136565,-2.474379 2.465229,-7.329119 2.952585,-10.788314 0.650048,-4.613967 1.58468,-6.511164 3.508439,-7.121741 1.442285,-0.457764 2.954616,-0.500019 3.360736,-0.09391 0.406118,0.40612 1.185457,5.304357 1.731865,10.884973 0.837415,8.55277 0.600927,10.959041 -1.505545,15.318935 -4.237236,8.770069 -3.465186,11.433039 5.83432,20.123839 4.583333,4.28333 8.850108,7.8005 9.481721,7.81594 0.631613,0.0154 0.684361,-2.22193 0.117213,-4.97193 -2.071697,-10.04537 -1.687753,-11.69737 2.645343,-11.3822 2.244299,0.16324 5.085296,1.67141 6.666666,3.53906 2.57689,3.04339 3.88062,3.31065 20.09037,4.1184 13.99808,0.69754 18.87423,0.43987 25.33334,-1.33871 4.39926,-1.21138 9.3697,-2.51664 11.0454,-2.90057 4.50923,-1.03312 8.28661,3.0257 8.28661,8.90401 0,4.94739 1.87478,8.06002 4.85464,8.06002 0.91006,0 2.01279,-0.57948 2.45051,-1.28773 z"
       id="path668" />
  </g>
</svg>
