<?xml version="1.0" encoding="UTF-8" standalone="no"?>
<!-- Created with Inkscape (http://www.inkscape.org/) -->

<svg
   version="1.1"
   id="svg183"
   width="88"
   height="212"
   viewBox="0 0 88 212"
   xmlns="http://www.w3.org/2000/svg"
   xmlns:svg="http://www.w3.org/2000/svg">
  <defs
     id="defs187" />
  <g
     id="g189">
    <path
       style="fill:#000000;stroke-width:1.33333"
       d="M 12.146874,202.94111 C 9.7194251,198.40537 8.2642377,165.89429 8.7626896,127.33333 9.2272415,91.39492 10.397443,76.374385 13.561964,65.730531 14.868232,61.336904 24.300605,50.772345 31.275308,45.891023 l 3.941976,-2.758834 -7.624452,-3.730297 C 19.182921,35.287307 17.062597,31.488588 20.054979,25.897271 22.515113,21.300467 25.853408,21.880389 32.159249,28 38.770485,34.415987 42.0668,35.055892 40.744664,29.666667 38.214087,19.351656 37.292131,9.2350116 38.65124,6.6954908 40.372397,3.4794808 46.270312,1.7615683 49.206369,3.6210505 51.003159,4.7590049 51.257436,7.3766963 50.844404,20.484056 50.557128,29.600596 50.871187,36 51.605869,36 c 0.687718,0 3.942207,-2.579208 7.232198,-5.731575 5.34298,-5.119474 6.418489,-5.618417 10.070853,-4.671994 2.248977,0.582769 4.825587,1.947052 5.725797,3.03174 1.341912,1.616904 0.941727,2.638629 -2.221588,5.671994 -2.122085,2.03491 -5.783164,4.721928 -8.135732,5.971155 -4.233469,2.247993 -5.88583,6.395347 -2.547994,6.395347 2.567,0 10.722517,9.244694 13.405013,15.195266 4.939333,10.95691 5.674096,20.497522 6.787877,88.138067 0.338106,20.53333 0.193906,40.56939 -0.320444,44.52456 -1.069013,8.22033 -4.152124,11.49659 -7.586718,8.062 -1.719371,-1.71937 -2.047626,-7.60817 -2.116939,-37.9774 C 71.776931,111.47922 70.102459,76.858607 67.238237,68.26206 64.593116,60.323115 58.969477,54.666667 53.721701,54.666667 h -3.407032 l 0.45444,43 c 0.710894,67.266143 0.435504,99.569013 -0.886042,103.931803 -0.890394,2.93941 -5.884682,4.55629 -7.250008,2.34716 -1.80391,-2.91879 -2.421958,-28.21492 -2.190922,-89.67249 l 0.22453,-59.726865 -3.333334,0.817158 c -5.934833,1.454912 -9.02078,4.391576 -12.87866,12.255655 l -3.784376,7.714245 -0.383985,62.512237 c -0.235207,38.29126 -0.899853,63.47615 -1.715393,65 -1.687126,3.15243 -4.763562,3.19818 -6.424045,0.0956 z"
       id="path807" />
  </g>
</svg>
