<?xml version="1.0" encoding="UTF-8" standalone="no"?>
<!-- Created with Inkscape (http://www.inkscape.org/) -->

<svg
   version="1.1"
   id="svg173"
   width="101.33333"
   height="104"
   viewBox="0 0 101.33333 104"
   xmlns="http://www.w3.org/2000/svg"
   xmlns:svg="http://www.w3.org/2000/svg">
  <defs
     id="defs177" />
  <g
     id="g179">
    <path
       style="fill:#000000;stroke-width:1.33333"
       d="M 35.594809,95.271471 C 19.689673,88.429845 11.374899,80.759137 7.2480234,69.120433 5.0088828,62.805563 4.3334969,47.40442 5.9710058,40 7.986234,30.887624 23.955291,12 29.64437,12 c 1.002262,0 2.392296,-0.505053 3.088962,-1.122341 2.562059,-2.2701326 16.580137,-4.3774661 22.896077,-3.4419598 10.750985,1.5924177 16.421893,4.2836868 25.122764,11.9226278 10.043145,8.817393 13.543176,15.513474 14.718409,28.15851 0.719308,7.739476 0.341903,11.288966 -2.030953,19.101076 -3.670084,12.082952 -9.986017,19.236948 -23.039074,26.096136 -12.718846,6.683564 -23.390551,7.467691 -34.805746,2.557422 z M 68.145,82.593469 c 4.187804,-2.113996 8.860148,-5.593418 10.382988,-7.73205 3.810515,-5.351375 8.138676,-15.760632 8.138676,-19.573572 0,-4.403723 -3.362963,-16.855047 -5.852771,-21.669804 C 77.621451,27.444541 68.933126,20.781136 60.686573,18.181639 46.213092,13.619275 30.282299,20.018896 20.489046,34.329545 8.0283284,52.538096 12.917737,70.699084 33.999999,84.513993 c 4.967836,3.255352 6.059672,3.441002 15.932073,2.708982 C 57.871577,86.634277 62.441221,85.472729 68.145,82.593469 Z M 44.692445,58.146993 c -4.5831,-4.583101 -2.287993,-10.658529 5.004461,-13.247418 5.469623,-1.941767 10.485661,10.384522 6.036425,14.833758 -2.573222,2.573223 -7.604161,1.850384 -11.040886,-1.58634 z"
       id="path946" />
  </g>
</svg>
