<?xml version="1.0" encoding="UTF-8" standalone="no"?>
<!-- Created with Inkscape (http://www.inkscape.org/) -->

<svg
   version="1.1"
   id="svg83"
   width="162.66667"
   height="233.33333"
   viewBox="0 0 162.66667 233.33333"
   xmlns="http://www.w3.org/2000/svg"
   xmlns:svg="http://www.w3.org/2000/svg">
  <defs
     id="defs87" />
  <g
     id="g89">
    <path
       style="fill:#000000;stroke-width:1.33333"
       d="m 56.709652,224.13542 c -1.00514,-3.1669 4.580139,-15.34192 12.213645,-26.62378 3.158854,-4.6686 5.743371,-9.47931 5.743371,-10.69048 0,-1.21118 -1.5,-4.40959 -3.333333,-7.10758 -1.833334,-2.698 -3.342522,-6.28728 -3.353751,-7.97618 -0.0112,-1.68891 -0.521893,-3.8616 -1.134809,-4.8282 -1.632999,-2.57535 0.961076,-14.90843 3.929513,-18.68219 3.353191,-4.26289 3.237782,-8.86216 -0.348767,-13.899 -1.782458,-2.50324 -3.106944,-6.71101 -3.422348,-10.8725 -0.455865,-6.01478 0.03257,-7.60765 4.283828,-13.97003 4.064275,-6.08256 4.535097,-7.51043 3.077529,-9.33333 -6.253723,-7.821182 -9.143147,-19.106732 -6.879489,-26.869992 3.97794,-13.642411 16.814041,-17.931596 26.660004,-8.908444 8.419065,7.715498 8.193675,19.156309 -0.635104,32.238082 -2.297134,3.403704 -4.176606,6.662614 -4.176606,7.242024 0,0.5794 1.789131,4.29932 3.975847,8.26649 5.028103,9.12204 5.012959,12.66359 -0.09744,22.78723 -3.586044,7.10391 -3.916139,8.61491 -2.540413,11.62864 6.538857,14.32435 6.498741,20.28412 -0.221815,32.95356 l -4.326604,8.15642 5.467789,8.51025 c 8.607931,13.39768 12.878301,23.12679 11.886111,27.07997 -1.214,4.83698 -4.074197,4.261 -7.701396,-1.55088 -5.122965,-8.20856 -5.653536,-9.10216 -8.756359,-14.74757 -1.639521,-2.98301 -3.668756,-5.84876 -4.509411,-6.36831 -1.871962,-1.15694 -9.061316,7.13922 -13.371792,15.43038 -4.210069,8.09802 -6.438679,10.66666 -9.254651,10.66666 -1.303592,0 -2.731688,-1.13905 -3.173549,-2.53124 z m 27.897307,-63.39377 c -1.193101,-8.88245 -2.960791,-11.11497 -5.701985,-7.20136 -2.654951,3.79047 -2.83571,14.65861 -0.294768,17.72295 1.836306,2.21456 2.080336,2.17494 4.42292,-0.71803 2.019162,-2.49356 2.311294,-4.31328 1.573833,-9.80356 z m 0.595943,-31.60728 c 1.968728,-5.6475 1.844288,-10.77097 -0.333962,-13.7499 -2.626222,-3.59157 -4.38452,-1.67172 -5.263124,5.74672 -1.356672,11.45497 2.480906,16.94226 5.597086,8.00318 z m 2.763776,-41.727886 c 3.243111,-7.119069 3.367352,-9.860344 0.624385,-13.776477 -2.048303,-2.924361 -6.527871,-3.850385 -9.398737,-1.942924 -2.808435,1.86598 -3.383607,10.447554 -1.085238,16.191748 2.974906,7.435018 6.330604,7.274256 9.85959,-0.472347 z m 62.425702,-3.739819 c -2.02311,-1.59251 -9.05904,-13.955597 -9.05904,-15.917955 0,-1.381391 -9.42961,-17.415323 -11.61429,-19.748711 -1.02989,-1.1 -4.48186,-4.946046 -7.67103,-8.54677 -5.42592,-6.126115 -6.04211,-6.456756 -9.58992,-5.145845 -2.08529,0.770509 -8.69659,2.130673 -14.691783,3.022585 C 81.576635,39.738529 62.7255,37.26495 50.509217,31.129061 42.969817,27.342236 42.547208,27.32653 36.140315,30.595082 30.002951,33.726133 19.445234,35.187686 14.090304,33.647568 9.2417569,32.253089 5.5029401,27.411633 4.4995241,21.228304 3.8860982,17.448204 4.4034877,15.725082 7.1220285,12.494281 13.664838,4.7185938 24.387306,4.3303439 39.147805,11.334659 c 4.927109,2.338067 5.1401,2.327906 10.142991,-0.483876 C 55.212861,7.5223963 72.635976,4.8236763 82.962048,5.635339 95.257667,6.6018142 104.35905,9.4524255 114,15.356622 c 2.93334,1.796396 6.09674,3.276047 7.02979,3.288111 0.93306,0.012 4.23306,-2.292897 7.33334,-5.122136 7.09641,-6.4760012 11.04499,-8.5568204 14.2857,-7.5282592 6.04984,1.9201442 4.28627,9.7882742 -3.02168,13.4811592 -8.63759,4.364779 -13.17004,11.131972 -8.62715,12.880797 2.683,1.032848 19.39156,26.591465 24.3587,37.260821 3.78796,8.136512 4.23866,13.740438 1.19892,14.906898 -2.9734,1.141002 -3.76672,1.030682 -6.16524,-0.857348 z M 103.95886,25.784286 c 1.19622,-1.254761 -5.47393,-5.030488 -11.881078,-6.725442 -7.851635,-2.07708 -26.963598,-2.175996 -31.382903,-0.162426 -6.280707,2.861682 -2.666631,5.207248 11.971789,7.769799 6.680115,1.169396 29.962122,0.513223 31.292192,-0.881931 z M 28.60393,22.452646 C 33.152379,20.380234 32.898246,17.742501 28.047482,16.677094 23.317779,15.638278 16.890108,18.36273 16.251874,21.676818 15.894814,23.530876 16.753891,24 20.506164,24 c 2.585932,0 6.229927,-0.69631 8.097766,-1.547354 z"
       id="path1085" />
  </g>
</svg>
