<?xml version="1.0" encoding="UTF-8" standalone="no"?>
<!-- Created with Inkscape (http://www.inkscape.org/) -->

<svg
   version="1.1"
   id="svg235"
   width="85.333336"
   height="198.66667"
   viewBox="0 0 85.333336 198.66667"
   xmlns="http://www.w3.org/2000/svg"
   xmlns:svg="http://www.w3.org/2000/svg">
  <defs
     id="defs239" />
  <g
     id="g241">
    <path
       style="fill:#000000;stroke-width:1.33333"
       d="m 19.333334,192.14534 -10.6666671,-0.812 -1.4922528,-4.61695 C 4.0720384,177.1178 12.019468,164.6768 26.087183,157.11011 c 11.938556,-6.42147 22.800243,-6.99273 30.542827,-1.60641 1.446505,1.0063 3.924156,1.82964 5.505891,1.82964 6.724682,0 19.101816,16.83924 19.168152,26.07849 0.06113,8.51461 -0.938158,8.85077 -27.395022,9.21571 -13.149966,0.18138 -28.70903,-0.0356 -34.575697,-0.4822 z m 43.333335,-10.6047 c 5.001908,-0.77393 5.92728,-1.36744 5.562842,-3.56784 -0.671314,-4.05325 -10.315944,-11.93622 -16.602101,-13.5696 -6.625895,-1.72164 -18.566206,-0.37661 -24.668046,2.77878 -5.240122,2.70977 -8.292697,7.04654 -8.292697,11.78137 v 3.70332 l 19.000001,-0.0988 c 10.45,-0.0544 21.700001,-0.5166 25.000001,-1.0272 z M 64.557446,69.301649 C 61.397353,68.106425 51.551292,57.444712 47.710524,51.059122 c -1.413955,-2.350817 -3.756636,-4.650573 -5.205959,-5.110571 -3.231569,-1.02566 -5.806768,0.65833 -18.215384,11.911519 -5.340951,4.843628 -10.855542,8.806598 -12.254644,8.806598 -6.8490452,0 -3.4718103,-6.450292 10.240852,-19.559343 l 11.477473,-10.972252 -3.42771,-4.40087 C 28.43991,29.313724 25.045517,25.346303 22.782054,22.91771 20.518591,20.489116 18.64509,18.089116 18.618717,17.584376 18.592343,17.079636 17.146469,14.924694 15.405659,12.795615 12.347178,9.0549696 12.254951,5.702052 15.157234,3.7640279 17.522951,2.1843004 23.147133,6.2708549 29.333334,14.064443 41.704489,29.650044 40.706353,28.786507 44.190652,26.918255 45.919128,25.99146 52.302315,20.75571 58.375512,15.283254 69.776956,5.0096052 71.877701,3.9728323 74.613568,7.2693497 77.23102,10.423188 75.083705,13.981159 65.613753,22.18149 51.206512,34.657178 50.713836,35.190375 50.689704,38.333015 c -0.01416,1.843075 2.676002,5.752239 6.976964,10.138486 10.544437,10.753519 12.611386,13.257349 13.577498,16.447296 1.080456,3.567496 -2.550347,5.94733 -6.68672,4.382852 z"
       id="path263" />
  </g>
</svg>
