<?xml version="1.0" encoding="UTF-8" standalone="no"?>
<!-- Created with Inkscape (http://www.inkscape.org/) -->

<svg
   version="1.1"
   id="svg215"
   width="84"
   height="217.33333"
   viewBox="0 0 84 217.33333"
   xmlns="http://www.w3.org/2000/svg"
   xmlns:svg="http://www.w3.org/2000/svg">
  <defs
     id="defs219" />
  <g
     id="g221">
    <path
       style="fill:#000000;stroke-width:1.33333"
       d="m 15.431167,209.73066 c -6.2268423,-1.65697 -9.4206278,-10.2174 -5.335929,-14.30209 2.291976,-2.29197 3.14084,-2.48041 9.582682,-2.1272 4.975052,0.27279 14.981379,-6.67411 14.999528,-10.41341 0.0059,-1.22171 -1.736137,-6.7213 -3.87126,-12.2213 -4.910236,-12.6486 -8.139521,-23.90488 -8.139521,-28.37184 0,-1.90893 -0.60295,-3.84342 -1.339888,-4.29888 -0.736939,-0.45545 -1.316168,-3.34086 -1.287176,-6.41202 0.02899,-3.07116 -0.335834,-14.47468 -0.810724,-25.34115 -0.526,-12.035967 -0.259808,-25.583949 0.68113,-34.66667 C 21.45652,56.647916 25.61158,39.476123 28.040476,37.974985 30.364308,36.538777 29.399929,31.127918 26.20586,27.68146 23.984663,25.28475 21.044831,24.027174 16.060791,23.341694 5.6954081,21.916089 1.5366736,16.427457 5.3802451,9.2456779 8.2839092,3.8201317 26.643647,7.9888405 31.327409,15.137166 34.920428,20.620805 37.014568,20.430341 43.209232,14.0565 48.885544,8.2160053 50.457669,7.4944168 60.422736,6.1556916 70.011213,4.8675581 75.084204,9.8879294 72.106947,17.71871 c -1.083111,2.848796 -2.242774,3.614623 -5.473492,3.614623 -2.254568,0 -6.019419,1.007263 -8.366335,2.238361 -2.346916,1.231099 -6.360661,2.590227 -8.919433,3.020286 -6.383839,1.072944 -6.622556,4.340357 -0.788868,10.79755 2.625982,2.906651 4.774514,6.104927 4.774514,7.107281 0,1.002355 1.223027,5.650627 2.717836,10.329492 6.172835,19.321432 9.937606,53.955717 7.954032,73.173697 -3.136804,30.39112 -4.792649,38.50606 -10.149128,49.73872 -2.295138,4.81296 -2.285381,5.0509 0.352862,8.60556 1.662281,2.23966 4.600529,4.04306 7.5855,4.65572 2.679728,0.55 7.110145,1.45 9.845373,2 6.3396,1.27477 8.749411,6.51804 5.556921,12.09076 -1.677137,2.92757 -2.87787,3.51548 -6.622642,3.2426 -5.248104,-0.38242 -21.240754,-6.73443 -21.240754,-8.43647 0,-0.62503 -1.244514,-1.80245 -2.765589,-2.61651 -2.411728,-1.2907 -3.681028,-0.6143 -9.920185,5.28643 -4.313054,4.07911 -8.377787,6.77375 -10.234411,6.78472 -1.693899,0.0107 -4.279815,0.25323 -5.746481,0.54045 -1.466667,0.28724 -3.822642,0.21464 -5.2355,-0.16132 z M 45.217093,160 c 5.895922,-25.76428 5.827435,-24.99587 4.872274,-54.66667 C 49.17464,76.918592 49.123321,76.538649 44.249932,62.09984 41.545803,54.088086 38.667457,47.316129 37.853611,47.051043 c -1.607491,-0.523586 -3.717148,6.365506 -5.80277,18.948956 -1.248457,7.53248 -1.002713,56.102701 0.320439,63.333331 0.335487,1.83333 1.041196,6.33333 1.568243,10 1.403854,9.76661 7.521896,29.07376 8.802817,27.77968 C 43.348279,166.50085 44.461919,163.3 45.217093,160 Z"
       id="path547" />
  </g>
</svg>
