<?xml version="1.0" encoding="UTF-8" standalone="no"?>
<!-- Created with Inkscape (http://www.inkscape.org/) -->

<svg
   version="1.1"
   id="svg205"
   width="224"
   height="201.33333"
   viewBox="0 0 224 201.33333"
   xmlns="http://www.w3.org/2000/svg"
   xmlns:svg="http://www.w3.org/2000/svg">
  <defs
     id="defs209" />
  <g
     id="g211">
    <path
       style="fill:#000000;stroke-width:1.33333"
       d="m 162.17465,193.73388 c -0.14434,-0.14636 -18.84269,-0.36698 -41.55188,-0.49023 -48.114626,-0.26115 -67.743113,-1.33175 -73.247595,-3.99513 -2.791343,-1.35062 -4.573015,-3.68391 -6.043922,-7.91519 l -2.085764,-6 L 27.289411,175.32 C 7.5370093,175.29834 1.08566,169.17644 11.333333,160.17885 c 5.527808,-4.85348 5.849904,-7.531 1.333334,-11.08373 -5.5577517,-4.37174 -3.7541249,-11.76179 2.870596,-11.76179 3.218901,0 9.767156,2.58237 9.840429,3.88069 0.0244,0.43228 1.249404,2.23332 2.722236,4.00231 l 2.677876,3.21633 5.000648,-4.883 c 3.605768,-3.52093 6.167141,-4.883 9.182527,-4.883 9.388754,0 11.368622,9.60954 2.807529,13.6267 -6.467864,3.03494 -7.484821,4.96546 -4.071637,7.72929 4.214548,3.41273 9.636462,11.98187 9.636462,15.23008 0,3.76007 2.424998,6.0806 6.354322,6.0806 3.819025,0 6.918726,-1.58632 15.645678,-8.00693 C 79,170.62876 83.8,167.78186 86,166.99997 c 7.0653,-2.51103 20.36436,-4.67752 22.10592,-3.60117 0.92872,0.57397 3.83482,1.4889 6.458,2.03317 2.62318,0.54428 8.96941,2.75829 14.10275,4.92004 5.13333,2.16176 14.13333,4.98127 20,6.26559 5.86666,1.28432 12.04489,2.87076 13.7294,3.52542 1.6845,0.65467 12.29165,1.19031 23.57142,1.19031 16.8665,0 20.8808,0.37211 22.60394,2.09524 2.72921,2.7292 2.64933,4.99001 -0.2696,7.63161 -1.92447,1.74162 -6.41516,2.21462 -24.11479,2.53999 -11.96247,0.21991 -21.86804,0.28007 -22.01239,0.13371 z M 110.66667,180 c -2.62785,-1.69826 -8,-1.69826 -8,0 0,0.73333 2.25,1.32414 5,1.31292 3.71917,-0.0152 4.48767,-0.35152 3,-1.31292 z M 28.666667,165.33333 C 29.134031,164.57712 28.013845,164 26.078689,164 c -1.876612,0 -3.412022,0.6 -3.412022,1.33333 0,0.73333 1.164589,1.33333 2.587977,1.33333 1.423388,0 2.958797,-0.6 3.412023,-1.33333 z M 94,59.844283 C 91.066667,59.281116 85.580845,58.785767 81.809285,58.743506 73.335024,58.648548 55.317103,55.03504 50.182449,52.400719 c -7.503322,-3.84956 -17.974701,-5.742104 -27.4294,-4.957449 -8.549264,0.709512 -9.237065,0.566023 -10.084437,-2.103808 -0.500168,-1.575889 -0.54876,-4.302143 -0.107983,-6.058339 0.661699,-2.63642 1.90628,-3.33965 7.13904,-4.033801 5.252839,-0.696813 8.443239,-2.511496 18.639168,-10.601858 6.765847,-5.368628 14.100575,-10.156278 16.299395,-10.639219 2.19882,-0.482941 4.340145,-1.431914 4.7585,-2.108827 0.418356,-0.676914 1.95422,-1.230752 3.413032,-1.230752 1.458812,0 5.1361,-1.1999995 8.171751,-2.6666661 9.828201,-4.7484706 41.065295,-3.0254496 62.602355,3.4531111 3.43778,1.034122 7.16742,1.880222 8.28809,1.880222 1.12067,0 4.00792,0.864348 6.41613,1.920775 2.40822,1.056426 7.67858,2.809245 11.71191,3.895153 4.03333,1.085909 10.63333,2.905631 14.66667,4.043827 11.74352,3.313989 26.87956,6.137974 32.90476,6.139154 8.93652,0.0017 12.41994,5.343055 7.01166,10.751336 -2.55373,2.553724 -3.72478,2.684964 -16.38866,1.836664 -13.15072,-0.880912 -13.89868,-0.781359 -20.91643,2.783972 -9.14327,4.645193 -31.22128,11.283894 -42.61133,12.812924 -4.76667,0.639889 -14.30963,1.48235 -21.20659,1.872134 -6.89695,0.389784 -12.89695,0.882006 -13.33333,1.093824 C 99.690371,60.694915 96.933333,60.407448 94,59.844283 Z M 90.666667,48.666666 c 0,-1.1 -1.087746,-2 -2.417212,-2 -5.185554,0 -13.567102,-12.487487 -13.603206,-20.26712 -0.03645,-7.853828 -1.503016,-8.759541 -9.596045,-5.926258 -7.58748,2.656296 -18.856285,9.543262 -22.847485,13.963313 -2.517388,2.787877 -2.03902,5.563398 0.958865,5.563398 0.918979,0 4.068547,1.158431 6.999039,2.574291 2.930492,1.41586 10.093189,3.4913 15.917105,4.612089 5.823916,1.120791 11.788939,2.292759 13.255605,2.604375 6.371268,1.353676 11.333334,0.861517 11.333334,-1.124088 z m 38.000003,-2.473653 c 21.19102,-2.973819 39.89248,-9.96155 35.0315,-13.089399 -3.22568,-2.075609 -27.05104,-9.258012 -33.22182,-10.015065 -6.1565,-0.7553 -6.19563,-0.734851 -7.16059,3.742667 -1.98208,9.197062 -10.2899,19.706597 -15.64909,19.796366 -1.28334,0.0215 -2.33334,0.702105 -2.33334,1.512464 0,0.9514 1.77138,1.198943 5,0.698733 2.75,-0.426056 11,-1.61665 18.33334,-2.645766 z m -21.4462,-13.009118 c 3.10753,-2.444382 3.52726,-3.63237 3.17982,-8.999999 L 110,18 H 98 86 l -0.398185,4.737742 c -0.490787,5.839547 3.55083,11.518519 8.760854,12.310083 7.531921,1.14433 9.372651,0.877489 12.857801,-1.86393 z"
       id="path686" />
  </g>
</svg>
