<?xml version="1.0" encoding="UTF-8" standalone="no"?>
<!-- Created with Inkscape (http://www.inkscape.org/) -->

<svg
   version="1.1"
   id="svg195"
   width="234.66667"
   height="185.33333"
   viewBox="0 0 234.66667 185.33333"
   xmlns="http://www.w3.org/2000/svg"
   xmlns:svg="http://www.w3.org/2000/svg">
  <defs
     id="defs199" />
  <g
     id="g201">
    <path
       style="fill:#000000;stroke-width:1.33333"
       d="m 19.829927,177.79412 c -2.631408,-3.17203 -2.631408,-44.41964 0,-47.58965 2.160517,-2.60273 7.277709,-2.90201 9.195551,-0.53781 1.581638,1.94976 3.33775,43.63663 1.9294,45.8004 -1.09,1.67466 -6.157974,4.53294 -8.037296,4.53294 -0.691751,0 -2.081196,-0.99266 -3.087655,-2.20588 z m 99.346973,-0.67584 c -3.39977,-1.64734 -4.51023,-9.66194 -4.51023,-32.55196 0,-11.89723 0.4381,-15.48061 2.09524,-17.13775 2.89691,-2.89691 10.82245,-2.74353 12.30257,0.23809 0.63707,1.28334 1.10818,12.43079 1.04692,24.77214 -0.10227,20.60028 -0.32346,22.59401 -2.69957,24.33333 -2.98305,2.18359 -4.32629,2.24004 -8.23493,0.34615 z m 96.56537,-3.59819 c -1.33152,-1.89527 -1.58509,-7.57952 -1.0756,-24.11132 0.59896,-19.43468 0.92951,-21.82323 3.25484,-23.5201 3.25896,-2.37817 4.90629,-2.37551 8.15699,0.0132 2.38094,1.74957 2.56782,3.47853 2.33409,21.59349 -0.29961,23.21978 -0.61749,24.89581 -5.11003,26.94274 -4.60222,2.09692 -5.52048,1.98543 -7.56029,-0.91798 z M 85.548327,82.565441 C 74.659957,81.152924 65.766893,78.198709 53.333334,71.86384 42.352615,66.269188 38.121587,63.151702 36.950065,59.792394 36.526631,58.578211 34.339644,57.180538 32.090094,56.686454 29.840542,56.19237 27.985172,55.385791 27.967048,54.894059 27.948924,54.402326 24.929302,50.699999 21.256778,46.666666 15.539182,40.387343 5.3333334,22.452124 5.3333334,18.683645 c 0,-0.668031 2.1547902,-2.85814 4.7884226,-4.866909 l 4.788423,-3.652309 43.106075,0.294505 c 28.935066,0.197687 43.390106,-0.165065 43.970056,-1.1034374 0.53773,-0.8700682 6.49342,-1.2859663 15.77217,-1.1014019 8.1995,0.1630973 22.58454,-0.1892879 31.96675,-0.783078 22.75761,-1.4403057 57.73144,0.1761246 60.34432,2.7890113 5.38369,5.383695 -0.35107,21.529752 -12.60331,35.484228 -3.73976,4.259341 -6.79957,8.252798 -6.79957,8.874352 0,1.127033 -5.06384,4.601732 -19.40417,13.314741 -8.1021,4.92273 -19.67156,10.130013 -27.2625,12.270534 -2.56666,0.723759 -6.50926,1.873968 -8.76133,2.556022 -4.8918,1.481513 -37.762718,1.352874 -49.690343,-0.194462 z m 14.40927,-11.565442 c -0.02332,-1.283334 -0.923322,-3.498011 -2,-4.921507 -1.076678,-1.423494 -1.957596,-3.673494 -1.957596,-5 0,-1.326504 -0.75,-2.437222 -1.666666,-2.468261 -2.524552,-0.08548 -7.860274,-9.233085 -6.988224,-11.980667 0.418174,-1.31755 2.536596,-4.630705 4.707604,-7.362562 2.171008,-2.731859 3.947286,-5.715928 3.947286,-6.631267 0,-0.915337 0.896304,-3.382834 1.991786,-5.483326 3.000193,-5.752603 2.520483,-6.729949 -3.658452,-7.45362 -8.176547,-0.957629 -71.120471,-0.193736 -72.86476,0.884293 -2.486263,1.536595 -1.659301,4.678566 3.120909,11.857627 8.240926,12.376465 25.098078,26.291821 34.171401,28.208039 2.514847,0.531118 6.091176,2.388911 7.947397,4.12843 4.431644,4.153022 17.508645,8.366954 26.291719,8.472242 5.825135,0.06983 6.992883,-0.307709 6.957596,-2.249421 z m 37.006743,-0.513558 c 13.86041,-6.195487 17.16674,-7.536266 20.44236,-8.289766 1.87369,-0.431009 6.07369,-2.645061 9.33333,-4.920119 3.25965,-2.275056 7.85949,-5.342138 10.22188,-6.815737 2.36239,-1.4736 8.54069,-7.560237 13.72959,-13.525861 7.85216,-9.027572 9.36788,-11.524816 9.03808,-14.890774 L 199.33334,18 159.04262,18.02405 c -28.23124,0.01685 -40.74335,0.476685 -41.80297,1.536301 -1.12744,1.127443 -0.85208,2.478439 1.08213,5.309282 12.57037,18.397469 13.08153,20.685303 6.74576,30.192203 -10.10342,15.160317 -10.56556,16.351156 -6.7342,17.352394 5.57121,1.455912 12.71466,0.716764 18.631,-1.927789 z M 113.62237,52.559784 c 4.81922,-6.953294 4.69286,-11.348678 -0.49616,-17.258646 -4.86359,-5.539325 -5.5334,-5.186573 -10.30312,5.426169 l -3.023478,6.727308 3.687658,5.632427 c 2.02821,3.097834 4.3233,5.42245 5.10019,5.16581 0.7769,-0.256638 3.04261,-2.818518 5.03491,-5.693068 z"
       id="path825" />
  </g>
</svg>
