<?xml version="1.0" encoding="UTF-8" standalone="no"?>
<!-- Created with Inkscape (http://www.inkscape.org/) -->

<svg
   version="1.1"
   id="svg323"
   width="217.33333"
   height="217.33333"
   viewBox="0 0 217.33333 217.33333"
   xmlns="http://www.w3.org/2000/svg"
   xmlns:svg="http://www.w3.org/2000/svg">
  <defs
     id="defs327" />
  <g
     id="g329">
    <path
       style="fill:#000000;stroke-width:1.33333"
       d="m 27.096549,201.57142 c -3.773532,-3.77072 -1.445012,-7.28562 5.861165,-8.84745 3.549493,-0.75876 4.436889,-1.69468 5.134964,-5.41573 1.282085,-6.83411 -0.904031,-11.63346 -6.522217,-14.31874 C 26.208702,170.42678 25.00781,166.31216 29,164.18232 c 2.195114,-1.17111 24.225985,-1.51435 94.98512,-1.47986 28.90217,0.0141 30.20236,0.12827 36,3.1597 l 6.01488,3.14506 0.86221,13.82972 c 0.47421,7.60635 0.40603,14.65895 -0.15153,15.67244 -2.84263,5.16719 -9.00171,5.59668 -74.614132,5.20319 -50.238174,-0.30128 -63.599219,-0.74141 -64.999999,-2.14115 z M 151,192.43716 c 0.55,-0.327 1,-4.43802 1,-9.1356 0,-10.89236 -1.36676,-11.78619 -16.42974,-10.7446 -5.99698,0.41469 -13.0036,0.7217 -15.57026,0.68226 -2.56667,-0.0395 -19.66667,-0.1844 -38.000001,-0.32213 l -33.333333,-0.25043 v 8 c 0,13.61996 -3.208891,12.56463 39.702498,13.05735 36.564356,0.41983 60.590536,-0.0739 62.630836,-1.28685 z m 24.61138,-56.10383 c -6.81782,-10.29031 -8.87758,-12.31319 -21.23633,-20.85619 -9.14217,-6.31954 -33.07784,-18.143808 -36.7282,-18.143808 -1.63406,0 -1.89024,1.337221 -1.34104,6.999998 0.80265,8.27609 0.25122,10.33333 -2.76979,10.33333 -3.62639,0 -15.980116,-9.29935 -25.427703,-19.140875 C 79.84844,86.921491 74.183964,82.970771 66.85325,80.70132 c -3.134222,-0.970296 -3.142995,-0.941812 -2.203351,7.154219 0.785685,6.769509 0.589803,8.264082 -1.1717,8.940034 -5.347432,2.052001 -26.131281,-23.178278 -26.14084,-31.733327 -0.0027,-2.433507 -1.174089,-4.382636 -3.605825,-6 C 26.180877,54.040254 17.805878,44.304022 12.985047,34.943722 7.5143752,24.321666 7.3616483,19.180145 12.48079,17.96802 c 5.288456,-1.252215 22.779364,-0.977776 33.144839,0.520056 9.831239,1.420633 10.497167,1.348226 14.865754,-1.616376 8.943215,-6.069029 11.69922,-6.617144 18.260481,-3.631648 8.710048,3.963233 15.890275,8.189089 24.018316,14.135757 3.9764,2.909229 9.12485,6.489812 11.441,7.956849 2.31615,1.467037 11.18842,9.417341 19.71616,17.667341 8.52774,8.25 16.2327,15.059808 17.12215,15.132907 3.80153,0.312428 -5.62985,2.28369 -11.71616,2.448804 l -6.66667,0.180857 4,3.358532 c 4.76835,4.003662 13.14843,8.545566 15.76707,8.545566 1.03032,0 3.31535,1.134306 5.07784,2.52068 1.76248,1.386374 5.5934,3.145878 8.51315,3.910007 18.36061,4.805184 24.60618,5.958612 32.97278,6.089388 7.26183,0.113507 9.70056,0.657311 10.80591,2.409567 2.35528,3.733703 -0.49705,9.510263 -5.49968,11.138013 -2.36815,0.77055 -5.02527,2.12055 -5.90472,3 -0.87945,0.87946 -2.6436,1.59901 -3.92032,1.59901 -3.60428,0 -4.37207,2.43185 -4.75096,15.04787 -0.59845,19.92668 -4.66491,22.21742 -14.11635,7.95213 z M 180,117.92131 c 0,-4.53125 2.1795,-7.67816 7.42086,-10.71471 2.09019,-1.21093 1.05756,-1.62555 -6.05169,-2.42987 -4.71455,-0.53339 -9.68964,-1.56799 -11.05576,-2.29912 -2.79653,-1.49666 -6.31341,0.56345 -6.31341,3.69825 0,2.27906 13.61473,17.57744 15,16.85497 0.55,-0.28685 1,-2.58613 1,-5.10952 z M 156,99.496592 c 0,-2.331436 -1.68896,-3.666793 -10.2498,-8.103893 -3.80406,-1.97165 -7.62752,-4.441591 -8.49659,-5.488759 -0.86908,-1.047168 -2.13096,-1.903941 -2.8042,-1.903941 -1.63121,0 -8.15092,-4.630234 -17.11608,-12.155669 -4.03333,-3.385618 -9.80722,-7.885618 -12.83087,-10 -3.02365,-2.114382 -9.145295,-6.667671 -13.603657,-10.118419 -4.458363,-3.450749 -10.68447,-7.583218 -13.835792,-9.183265 -3.151323,-1.600047 -7.160593,-4.026707 -8.909491,-5.392577 -4.78819,-3.739532 -8.152477,-3.251595 -8.158505,1.183264 -0.0052,3.847682 -3.708685,10.934276 -8.354302,15.986029 -2.565288,2.789554 -2.600811,3.146424 -0.539876,5.423733 1.21335,1.340736 5.062033,3.835971 8.552627,5.544964 3.490594,1.708993 7.159062,3.743673 8.152148,4.521509 0.993088,0.777836 5.493088,2.73841 10,4.35683 4.506913,1.61842 12.394387,4.467583 17.52772,6.331477 5.133338,1.863893 11.386088,3.414373 13.895008,3.44551 2.50893,0.03113 5.60877,1.004218 6.88855,2.162399 1.27978,1.158183 8.03141,4.092211 15.00362,6.520064 6.97222,2.427852 14.05587,5.380249 15.74146,6.560881 C 150.62006,101.819 156,102.00143 156,99.496592 Z m -53.16111,-5.191037 c -2.21982,-2.219818 -3.47705,-0.01439 -1.41096,2.475093 1.24957,1.50564 1.97226,1.685453 2.34,0.582221 0.29264,-0.877912 -0.12543,-2.253704 -0.92904,-3.057314 z M 124,58.697403 c 0,-0.716428 -1.35,-2.189068 -3,-3.272535 -1.65,-1.083466 -6.2891,-5.012089 -10.3091,-8.730273 -7.64069,-7.067033 -11.324006,-9.700869 -24.891871,-17.79947 -8.047325,-4.803415 -13.79903,-6.262191 -13.79903,-3.499779 0,0.767442 1.859624,2.417442 4.132497,3.666667 8.987825,4.939924 16.846533,10.381285 23.37883,16.187481 C 110.04032,54.608136 117.70047,59.838968 121,59.923312 c 1.65,0.04218 3,-0.509481 3,-1.225909 z M 43.726163,48.873998 c 7.070042,-3.924224 9.193027,-15.091395 3.569508,-18.776065 -4.19538,-2.748919 -5.428472,-2.028401 -6.524174,3.81219 -0.971895,5.180647 -4.432438,7.078738 -8.721133,4.783496 -3.21551,-1.720888 -3.437747,-3.897736 -0.759435,-7.438779 2.92182,-3.862994 2.581181,-4.239164 -3.957596,-4.370412 -6.391191,-0.12828 -6.746812,0.31104 -4.671108,5.770557 1.557523,4.096594 14.382364,18.033346 16.531184,17.964434 0.810292,-0.02599 2.85003,-0.811425 4.532754,-1.745421 z"
       id="path518" />
  </g>
</svg>
