<?xml version="1.0" encoding="UTF-8" standalone="no"?>
<!-- Created with Inkscape (http://www.inkscape.org/) -->

<svg
   version="1.1"
   id="svg185"
   width="224"
   height="210.66667"
   viewBox="0 0 224 210.66667"
   xmlns="http://www.w3.org/2000/svg"
   xmlns:svg="http://www.w3.org/2000/svg">
  <defs
     id="defs189" />
  <g
     id="g191">
    <path
       style="fill:#000000;stroke-width:1.33333"
       d="M 8.0994635,201.4328 C 5.7778457,199.11118 5.5274231,196.76504 5.4816952,176.90764 l -0.050565,-21.95796 4.1433537,-1.71624 c 3.7911541,-1.57034 4.3536881,-1.45648 6.6177681,1.33955 2.184895,2.69823 2.474415,5.60712 2.474415,24.86115 0,20.19373 -0.190616,21.90738 -2.579012,23.18562 -3.642272,1.94928 -5.063062,1.73816 -7.9881915,-1.18696 z M 105.36958,201.384 c -2.61984,-1.65684 -3.5383,-13.67098 -2.70291,-35.35637 l 0.66666,-17.30572 3.75743,-1.31693 c 2.82191,-0.98904 4.64776,-0.81754 7.33334,0.68881 l 3.5759,2.00572 0.36403,24.44331 c 0.25166,16.89849 -0.1074,25.01134 -1.16326,26.28358 -1.73298,2.08811 -8.87849,2.42484 -11.83119,0.55755 z m 100.26043,-3.45954 c -2.85794,-2.00179 -2.96334,-2.85546 -2.96334,-24 0,-20.14663 0.21622,-22.14063 2.66666,-24.59107 3.93776,-3.93776 8.71918,-3.47483 10.32847,1 0.72527,2.01667 1.45301,13.04416 1.6172,24.50553 0.29268,20.42999 0.238,20.88128 -2.78691,23 -3.83525,2.68632 -5.13108,2.69883 -8.86208,0.0855 z M 76,129.40528 C 55.680096,126.34112 43.018837,123.49097 33.333333,119.80067 29.3,118.26393 21.626891,115.4301 16.28198,113.50329 9.0047669,110.8799 6.3791787,109.27068 5.8282549,107.09623 4.2002475,100.67062 5.7459589,99.26973 21.333333,93.04388 c 9.802448,-3.915256 34.41521,-9.971716 52,-12.795636 10.457004,-1.679277 21.085994,-2.181011 41.999997,-1.982581 35.13034,0.333314 50.4131,2.656217 72.66667,11.044976 6.23333,2.349732 13.23612,4.831256 15.56173,5.5145 C 208.48989,96.272982 216,102.84813 216,105.71494 c 0,4.60736 -10.89313,9.24966 -38.66667,16.47844 C 142.64357,131.2223 105.55425,133.86195 76,129.40528 Z m 48.89828,-9.3537 c 3.53928,-0.70497 11.83505,-1.91738 18.43505,-2.69424 11.01288,-1.29628 27.15532,-4.45195 44,-8.60152 13.64203,-3.36061 6.95183,-7.7219 -22.66666,-14.776253 -13.72386,-3.268663 -55.45624,-6.152759 -66.079973,-4.566743 -4.722684,0.705051 -15.098652,1.883671 -23.057708,2.619159 -7.959056,0.735486 -17.259056,2.171034 -20.666666,3.190107 -3.407611,1.01907 -11.155512,2.911392 -17.217558,4.205156 -11.407434,2.434584 -15.021088,4.503284 -11.99454,6.866494 2.137123,1.66873 16.67234,5.54506 26.754199,7.13496 4.255767,0.67113 8.755767,1.74197 10,2.37964 3.297193,1.6898 11.223048,2.71535 28.393611,3.67392 8.361081,0.46677 15.451965,1.07421 15.757525,1.34987 1.06093,0.95714 11.94365,0.49404 18.34272,-0.78055 z m 1.61342,-55.718246 c -2.58289,-2.75 -7.26053,-8.15 -10.39476,-12 -3.13422,-3.85 -6.8,-7 -8.14616,-7 -1.34617,0 -4.5181,1.95 -7.04874,4.333333 C 82.126352,67.368281 75.810597,71.03802 73.993637,65.313286 73.309768,63.158605 75.800275,60.079848 86.570453,49.765865 93.956704,42.692477 100,36.339655 100,35.648486 100,34.957315 97.3515,31.446043 94.114445,27.845659 87.319924,20.288516 80,9.6126331 80,7.2601769 c 0,-0.8887841 1.465852,-1.8961863 3.257448,-2.2386716 3.487584,-0.666694 7.285,2.6847758 17.349222,15.3118287 3.25464,4.083432 6.08297,6.333333 7.96157,6.333333 2.93454,0 9.78407,-4.395247 14.14614,-9.077379 5.67373,-6.090038 14.71514,-12.5043491 16.60402,-11.7795156 4.42147,1.6966769 1.81015,6.4350836 -9.98507,18.1184976 -6.6,6.537444 -12,12.728813 -12,13.758599 0,1.029785 4.23389,6.321516 9.40864,11.759401 11.47959,12.063342 13.77728,15.27741 12.77982,17.876771 -1.47592,3.846176 -7.99711,2.347615 -13.01009,-2.989707 z"
       id="path964" />
  </g>
</svg>
