<?xml version="1.0" encoding="UTF-8" standalone="no"?>
<!-- Created with Inkscape (http://www.inkscape.org/) -->

<svg
   version="1.1"
   id="svg175"
   width="212"
   height="158.66667"
   viewBox="0 0 212 158.66667"
   xmlns="http://www.w3.org/2000/svg"
   xmlns:svg="http://www.w3.org/2000/svg">
  <defs
     id="defs179" />
  <g
     id="g181">
    <path
       style="fill:#000000;stroke-width:1.33333"
       d="M 96,149.21694 C 83.501132,146.3345 72.02058,138.24916 63.999167,126.67995 c -1.88405,-2.71736 -2.389898,-2.79039 -8.666667,-1.25121 -3.666208,0.89902 -9.495887,3.04534 -12.954841,4.76959 -3.458955,1.72425 -6.942608,3.13501 -7.741451,3.13501 -1.316301,0 -10.325163,4.28441 -20.565963,9.7807 -4.9255906,2.6436 -7.4035783,0.95356 -7.4035783,-5.04938 0,-3.86378 0.6740836,-4.58267 7.0000003,-7.46546 3.85,-1.75448 9.18519,-4.52365 11.855978,-6.15372 2.670788,-1.63007 8.070788,-3.94048 12,-5.13425 3.929212,-1.19376 9.114378,-3.02715 11.522591,-4.07419 2.408213,-1.04704 6.797657,-1.9037 9.754321,-1.9037 2.956664,0 6.626339,-0.6693 8.154834,-1.48732 4.597866,-2.46071 40.404589,-5.37519 54.378939,-4.42616 27.2252,1.84891 77.09855,18.35152 84.34736,27.90973 0.55771,0.73539 0.85771,3.13708 0.66667,5.33708 -0.3184,3.66655 -0.72164,3.97003 -4.83715,3.64037 -2.46938,-0.19778 -6.00029,-1.54778 -7.84648,-3 -1.84617,-1.4522 -4.14148,-2.64037 -5.10066,-2.64037 -0.95919,0 -3.72827,-1.13639 -6.15352,-2.52531 -2.42526,-1.3889 -8.30955,-3.82829 -13.07622,-5.42084 -4.76666,-1.59255 -10.04737,-3.57398 -11.73492,-4.40319 -2.79244,-1.37213 -3.8112,-0.74841 -11.33333,6.93867 -8.77611,8.96856 -18.0784,14.2602 -26.92261,15.31502 -12.38911,1.47758 -18.94906,1.65912 -23.34247,0.64592 z m 26.45628,-14.0541 c 6.60871,-2.14751 14.87705,-7.98973 14.87705,-10.51177 0,-2.92802 -4.11147,-3.68092 -23.09798,-4.22977 -16.845394,-0.48696 -36.044799,0.94371 -37.927289,2.8262 -1.255912,1.25591 5.312894,7.48175 11.025272,10.44962 9.594871,4.98504 22.619987,5.52859 35.122947,1.46572 z M 94,96.080747 C 91.8,95.541955 85.623723,92.797961 80.274939,89.982983 73.162388,86.239764 69.28142,83.136858 65.828048,78.432422 62.221483,73.519298 60.266996,72.003739 57.553108,72.015827 51.475348,72.042896 41.198825,75.434462 27.333333,81.989271 8.5571953,90.865553 8.4287665,90.904959 6.0450928,88.521285 3.8192924,86.295484 3.4931716,84.168751 5.0204171,81.839059 6.4103305,79.718855 35.232545,67.166204 44,64.862671 c 4.033333,-1.059706 10.033333,-2.876047 13.333333,-4.036314 3.3,-1.160266 14.4,-3.093013 24.666667,-4.29499 24.02025,-2.81219 45.6271,-1.861882 63.33333,2.785516 6.96667,1.828557 13.69631,3.330305 14.95476,3.337217 1.25846,0.0069 4.25846,0.862513 6.66667,1.901335 2.40821,1.038822 6.47857,2.775497 9.04524,3.859277 2.56667,1.083781 7.48375,3.233836 10.92685,4.7779 3.4431,1.544064 6.85267,2.80739 7.57682,2.80739 0.72414,0 1.67532,1.130108 2.1137,2.511352 0.43839,1.381242 2.53584,4.330805 4.661,6.554582 2.65054,2.773534 3.63574,4.915845 3.13727,6.821982 -1.08283,4.140744 -5.49365,3.452175 -13.08657,-2.042925 -8.96992,-6.491666 -32.06196,-16.511658 -38.0527,-16.511658 -1.13768,0 -4.44028,2.446099 -7.3391,5.435776 -8.58907,8.85824 -17.02851,14.361411 -25.34674,16.528034 C 112.44357,97.419161 100.85897,97.76055 94,96.080747 Z m 26,-12.371332 c 8.71491,-2.688047 19.27571,-11.684917 16.05363,-13.676272 -6.33257,-3.91374 -62.720297,-3.980575 -62.720297,-0.07434 0,2.995339 5.130047,8.305339 9.621475,9.958979 2.408189,0.886638 6.178525,2.439572 8.378525,3.450961 C 98.755767,86.781006 109.62291,86.91015 120,83.709415 Z M 94.666667,47.883602 C 82.167799,45.001158 70.687247,36.915834 62.665833,25.34661 c -1.884049,-2.717352 -2.389897,-2.790382 -8.666666,-1.251204 -3.666208,0.89902 -9.495887,3.045335 -12.954842,4.769588 -3.458954,1.724253 -6.942608,3.135007 -7.74145,3.135007 -1.316302,0 -10.325163,4.284412 -20.565962,9.780711 -4.9255919,2.643593 -7.4035797,0.953557 -7.4035797,-5.049387 0,-3.863771 0.6740836,-4.582678 6.9999997,-7.465456 3.85,-1.754482 9.185191,-4.523658 11.855979,-6.153726 2.670788,-1.630069 8.070788,-3.940479 12,-5.134245 3.929212,-1.193766 9.114377,-3.027152 11.522591,-4.074191 C 50.120116,12.856668 54.50956,12 57.466224,12 60.422888,12 64.092563,11.330707 65.621057,10.512682 70.218924,8.0519778 106.02565,5.1374989 120,6.0865223 c 27.2252,1.8489123 77.09855,18.3515267 84.34736,27.9097287 0.55771,0.735395 0.85771,3.137083 0.66667,5.337083 -0.3184,3.666546 -0.72164,3.97002 -4.83715,3.640375 -2.46939,-0.197795 -6.00029,-1.547795 -7.84648,-3 -1.84617,-1.452207 -4.14148,-2.640375 -5.10067,-2.640375 -0.95918,0 -3.72826,-1.136385 -6.15352,-2.525301 -2.42525,-1.388916 -8.30954,-3.828296 -13.07621,-5.420844 -4.76667,-1.59255 -10.04737,-3.573988 -11.73492,-4.403198 -2.79244,-1.372131 -3.8112,-0.748408 -11.33333,6.938675 -8.77611,8.968567 -18.0784,14.260203 -26.92261,15.315011 -12.38912,1.477593 -18.94906,1.659119 -23.342473,0.645925 z M 121.12295,33.829507 C 127.73165,31.681991 136,25.839773 136,23.317734 c 0,-2.928015 -4.11147,-3.68092 -23.09798,-4.229772 -16.845397,-0.486959 -36.044803,0.943709 -37.927292,2.8262 -1.255912,1.255912 5.312893,7.481752 11.025272,10.449631 9.594871,4.985033 22.61999,5.528585 35.12295,1.465714 z"
       id="path1103" />
  </g>
</svg>
