<?xml version="1.0" encoding="UTF-8" standalone="no"?>
<!-- Created with Inkscape (http://www.inkscape.org/) -->

<svg
   version="1.1"
   id="svg75"
   width="212"
   height="209.33333"
   viewBox="0 0 212 209.33333"
   xmlns="http://www.w3.org/2000/svg"
   xmlns:svg="http://www.w3.org/2000/svg">
  <defs
     id="defs79" />
  <g
     id="g81">
    <path
       style="fill:#000000;stroke-width:1.33333"
       d="m 95.040671,199.38064 c -9.452892,-2.12392 -18.011202,-7.50724 -27.123944,-17.0614 l -6.22022,-6.52154 -7.697834,1.42303 c -4.233808,0.78267 -8.365522,1.95889 -9.181586,2.61385 -0.816064,0.65495 -3.583754,1.62774 -6.15042,2.16175 -2.566667,0.53401 -9.691403,3.58441 -15.832747,6.77867 -12.088931,6.28772 -16.1672533,6.2777 -16.1672533,-0.0397 0,-2.60851 1.7165044,-4.01902 9.6784773,-7.9531 C 21.668307,178.152 26.552588,176 27.199103,176 c 0.646514,0 3.6412,-1.1189 6.654856,-2.48644 15.874572,-7.2036 18.56244,-8.18035 22.515042,-8.1818 2.363716,-8.7e-4 8.797666,-0.95884 14.297666,-2.12883 8.622428,-1.83421 16.429725,-2.70212 41.333333,-4.59485 15.36099,-1.16747 45.45581,5.17598 68.66667,14.47372 3.66666,1.46878 8.76666,3.47378 11.33333,4.45554 14.54239,5.56255 18.7604,9.92858 16.86972,17.46168 -1.26,5.02023 -3.75883,5.18963 -10.30756,0.69876 -10.91529,-7.4853 -36.02264,-18.30325 -42.58845,-18.35002 -1.11447,-0.008 -4.38663,2.96537 -7.27148,6.60734 -7.82031,9.87275 -21.08326,16.26698 -34.95133,16.85047 -5.79933,0.244 -14.093807,-0.38769 -18.710229,-1.42493 z m 23.197199,-11.90155 c 8.8339,-1.58193 11.74646,-2.85575 18.09546,-7.91408 3.68248,-2.93387 2.83456,-5.90539 -2,-7.00896 -2.38333,-0.54403 -15.37066,-0.93295 -28.86072,-0.86425 -20.17307,0.10266 -24.891353,0.48885 -26.577545,2.17504 -1.844648,1.84465 -1.791784,2.3361 0.527391,4.9029 1.417649,1.56902 5.877544,4.55883 9.910877,6.64404 8.320431,4.3016 14.107377,4.7151 28.904537,2.06531 z M 97.333333,149.21693 c -11.821725,-2.72628 -27.001677,-12.93847 -33.334166,-22.42529 -1.900603,-2.84733 -2.334751,-2.9156 -8.666667,-1.3629 -3.666208,0.89902 -9.495887,3.04533 -12.954841,4.76958 -3.458955,1.72426 -6.942608,3.13501 -7.741451,3.13501 -1.316301,0 -10.325163,4.28441 -20.565963,9.78071 -4.9255906,2.6436 -7.4035783,0.95356 -7.4035783,-5.04939 0,-3.86377 0.6740836,-4.58267 7.0000003,-7.46545 3.85,-1.75448 9.18519,-4.52366 11.855978,-6.15373 2.670788,-1.63007 8.070788,-3.94047 12,-5.13424 3.929212,-1.19377 9.114378,-3.02715 11.522591,-4.07419 2.408213,-1.04704 6.797657,-1.90371 9.754321,-1.90371 2.956664,0 6.553264,-0.63018 7.992444,-1.40041 4.50649,-2.4118 42.120759,-5.4513 55.874669,-4.51507 27.23425,1.85384 77.09968,18.35501 84.34736,27.91173 0.5577,0.73539 0.8577,3.13708 0.66666,5.33708 -0.3184,3.66655 -0.72164,3.97003 -4.83714,3.64038 -2.46939,-0.19779 -6.0003,-1.54779 -7.84648,-3 -1.84618,-1.4522 -4.14148,-2.64038 -5.10067,-2.64038 -0.95919,0 -3.72827,-1.13638 -6.15352,-2.5253 -2.42525,-1.38891 -8.30955,-3.82829 -13.07621,-5.42084 -4.76667,-1.59255 -10.04738,-3.57399 -11.73492,-4.4032 -2.79244,-1.37213 -3.8112,-0.74841 -11.33334,6.93868 -8.7761,8.96856 -18.0784,14.2602 -26.9226,15.31501 -12.38912,1.47759 -18.94906,1.65912 -23.342477,0.64592 z m 26.456277,-14.05409 c 6.60871,-2.14752 14.87706,-7.98974 14.87706,-10.51178 0,-2.92801 -4.11147,-3.68092 -23.09799,-4.22977 -16.845391,-0.48696 -36.044796,0.94371 -37.927285,2.8262 -1.255912,1.25591 5.312893,7.48175 11.025272,10.44963 9.59487,4.98504 22.619993,5.52858 35.122943,1.46572 z M 89.196147,96.136505 C 78.817388,91.803401 73.197169,87.999472 66.938495,81.071867 61.821729,75.408219 56.713029,74.556988 48,77.91626 45.433333,78.905828 41.233333,80.472787 38.666667,81.398392 36.1,82.323996 28.733705,85.688013 22.297121,88.873987 15.860539,92.05996 10.031649,94.666665 9.3440336,94.666665 7.3670017,94.666665 5.1093635,89.472812 5.9437161,86.844 6.7282008,84.372308 24.607601,74.666665 28.376384,74.666665 c 1.173097,0 2.449885,-0.512886 2.837307,-1.139746 1.965706,-3.180581 27.825154,-9.989475 51.452976,-13.547771 18.356563,-2.764456 70.202343,0.280327 77.072453,4.526286 0.85921,0.531018 5.0194,1.862626 9.24487,2.959126 4.22548,1.096502 14.18157,5.089884 22.12466,8.874185 15.04879,7.169652 19.34863,11.352864 17.53687,17.061226 -1.28103,4.036139 -4.80424,3.186363 -20.28667,-4.893012 -15.78961,-8.239672 -26.84058,-12.50696 -32.38922,-12.50696 -2.71787,0 -4.80968,1.536126 -8.44387,6.200764 -5.95683,7.645852 -11.16067,11.242516 -21.61453,14.939027 -11.78249,4.16631 -25.21171,3.79934 -36.715083,-1.003285 z M 126.79187,83.555367 c 9.17193,-4.368099 13.0727,-8.223756 10.71078,-10.586873 -0.89889,-0.899339 -6.11095,-1.935162 -11.58236,-2.301828 -11.10768,-0.744383 -48.554563,0.845377 -49.791938,2.113853 -1.672819,1.714864 12.034292,12.430229 17.592473,13.752697 9.878745,2.350468 24.681695,1.017551 33.071045,-2.977849 z M 95.333333,45.393743 c -2.2,-0.549978 -8.860624,-3.505737 -14.801385,-6.568356 C 72.430615,34.648939 68.660313,31.766697 65.4491,27.295162 62.192781,22.760818 60.309537,21.337122 57.583819,21.349158 51.476156,21.376128 41.221732,24.756964 27.333333,31.322602 8.5571953,40.198883 8.4287665,40.23829 6.0450928,37.854615 3.8192924,35.628815 3.4931716,33.502082 5.0204171,31.17239 6.4077767,29.056082 35.219461,16.504037 44,14.190616 48.033333,13.127949 54.116711,11.299158 57.518617,10.126638 60.920524,8.9541172 72.320524,7.029007 82.851951,5.848615 107.5016,3.085813 129.07519,4.032939 146.66667,8.6502147 c 6.96666,1.8285573 13.6963,3.3303053 14.95476,3.3372173 1.25845,0.0069 4.25845,0.862513 6.66666,1.901334 2.40822,1.038823 6.47858,2.775498 9.04524,3.859278 2.56667,1.083781 7.48375,3.233836 10.92686,4.7779 3.44309,1.544064 6.85266,2.807389 7.57681,2.807389 0.72415,0 1.67532,1.130108 2.11371,2.511352 0.43838,1.381243 2.53584,4.330805 4.661,6.554582 2.65053,2.773534 3.63573,4.915844 3.13726,6.821982 -1.08282,4.140744 -5.49365,3.452174 -13.08657,-2.042926 -8.96992,-6.491665 -32.06196,-16.511657 -38.05269,-16.511657 -1.13768,0 -4.44028,2.446099 -7.33911,5.435776 -8.58907,8.85824 -17.02851,14.361411 -25.34673,16.528033 -8.18015,2.130658 -19.78792,2.463854 -26.590537,0.763268 z M 121.33333,33.042746 c 8.71491,-2.688046 19.27571,-11.684917 16.05363,-13.676272 -6.33257,-3.91374 -62.720293,-3.980574 -62.720293,-0.07434 0,2.995339 5.130046,8.305339 9.621474,9.958979 2.40819,0.886639 6.178526,2.439572 8.378526,3.450961 7.422433,3.412263 18.289583,3.541407 28.666663,0.340672 z"
       id="path1381" />
  </g>
</svg>
