<?xml version="1.0" encoding="UTF-8" standalone="no"?>
<!-- Created with Inkscape (http://www.inkscape.org/) -->

<svg
   version="1.1"
   id="svg233"
   width="161.33333"
   height="161.33333"
   viewBox="0 0 161.33333 161.33333"
   xmlns="http://www.w3.org/2000/svg"
   xmlns:svg="http://www.w3.org/2000/svg">
  <defs
     id="defs237" />
  <g
     id="g239">
    <path
       style="fill:#000000;stroke-width:1.33333"
       d="m 81.750697,156.28616 c -3.89194,-2.47474 -13.750698,-32.57633 -13.750698,-41.9848 0,-2.97017 1.007278,-8.59577 2.238397,-12.50133 1.231119,-3.905559 1.89388,-7.445533 1.472801,-7.866611 -0.421077,-0.421077 -5.178356,0.118654 -10.57173,1.1994 C 53.592922,96.64503 47.492896,96.853107 34.666666,96.035831 9.2941039,94.419117 1.9201218,91.625387 5.0270282,84.806472 6.7814816,80.955865 21.545098,75.869298 39.686589,72.865077 c 10.483034,-1.735985 13.006283,-1.773673 16.666666,-0.248941 4.762618,1.983868 16.980077,4.11032 16.980077,2.955386 0,-0.402192 -0.644263,-2.420318 -1.431693,-4.484723 -4.146284,-10.8703 -3.740731,-36.893042 0.800069,-51.337329 1.080726,-3.437792 1.964957,-7.472383 1.964957,-8.96576 0,-1.6368155 1.509735,-3.4959439 3.801208,-4.6809105 3.324067,-1.7189423 4.147636,-1.7230323 6.561089,-0.032583 1.517936,1.0632035 3.176676,3.8823515 3.68609,6.2647745 0.509414,2.382422 1.358471,4.931676 1.886795,5.66501 2.95008,4.094821 8.611723,32.080544 8.208536,40.575114 -0.08463,1.78298 -1.051585,4.611869 -2.148793,6.286421 -1.097209,1.674553 -1.994925,3.950751 -1.994925,5.058219 0,2.152986 0.09907,2.14565 17.048735,-1.262484 11.91364,-2.395522 32.42161,-0.084 40.85052,4.604394 2.92856,1.628944 4.21521,3.423175 4.5012,6.276876 0.35065,3.499103 -0.22956,4.27198 -4.66667,6.216205 -12.67063,5.551935 -34.24436,10.084163 -41.03564,8.620803 -2.95065,-0.635795 -8.21509,-1.506755 -11.698752,-1.935468 l -6.333939,-0.779478 0.855075,4.503031 c 0.470292,2.476668 1.370564,5.513586 2.000607,6.748706 0.630041,1.23513 1.14553,7.78169 1.14553,14.54792 0,10.32525 -0.672294,14.24974 -4.183502,24.42099 -4.726024,13.69032 -7.335995,16.98851 -11.399132,14.40491 z m 4.669689,-41.93247 C 85.93824,102.15487 84.222812,96.661857 81.688888,99.20285 c -1.7721,1.77704 -1.054091,29.12073 0.878716,33.46381 l 1.780122,4 L 85.640561,132 c 0.711059,-2.56667 1.061981,-10.50751 0.779825,-17.64631 z M 59.322581,87.762292 c 5.307915,-2.418448 3.679246,-5.622252 -3.340069,-6.570354 -7.703744,-1.040546 -24.990818,0.878459 -27.62773,3.066902 -1.737911,1.442337 -1.178756,1.920334 3.803909,3.25179 7.758259,2.073144 22.859119,2.213047 27.16389,0.251662 z m 68.923099,-5.278428 c 1.23512,-0.632792 3.93512,-1.176868 6,-1.209056 3.42758,-0.05343 3.29017,-0.225738 -1.57902,-1.979924 -7.3826,-2.659676 -25.13213,-2.61383 -27.36007,0.07067 -2.15334,2.594618 -1.19141,3.4905 5.01202,4.66787 5.47435,1.038996 14.37647,0.269524 17.92707,-1.54956 z M 85.912433,48.714871 c -0.06508,-12.275181 -0.578627,-17.111252 -2,-18.834094 -1.722227,-2.087504 -2.018591,-1.533791 -2.979772,5.56725 -2.23034,16.477357 -2.50164,26.097458 -0.848535,30.088406 1.509622,3.64455 1.821464,3.795772 3.780604,1.833338 1.738702,-1.741626 2.119006,-5.206254 2.047703,-18.6549 z"
       id="path261" />
  </g>
</svg>
