<?xml version="1.0" encoding="UTF-8" standalone="no"?>
<!-- Created with Inkscape (http://www.inkscape.org/) -->

<svg
   version="1.1"
   id="svg2"
   width="210.66667"
   height="201.33333"
   viewBox="0 0 210.66667 201.33333"
   xmlns="http://www.w3.org/2000/svg"
   xmlns:svg="http://www.w3.org/2000/svg">
  <defs
     id="defs6" />
  <g
     id="g8">
    <path
       style="fill:#000000;stroke-width:1.33333"
       d="m 35.442249,195.98925 c -2.87343,-0.53667 -5.95733,-1.97808 -6.853111,-3.20313 -2.206964,-3.0182 -3.57782,-15.02222 -3.036743,-26.59151 L 25.998002,156.66666 16.222479,156 c -7.6410998,-0.52111 -10.1882248,-1.23178 -11.665668,-3.25484 -2.7136219,-3.71576 -2.3510418,-5.71503 1.4932744,-8.23392 3.0295989,-1.98507 4.6179336,-2.03995 15.1885226,-0.52482 6.492807,0.93064 13.820269,1.2484 16.283249,0.70614 2.462978,-0.54227 7.178144,-0.84098 10.478144,-0.66379 3.3,0.17719 9.9,0.23469 14.666667,0.12773 7.349417,-0.16482 21.145327,-0.15622 67.333332,0.042 3.66667,0.0157 10.56667,-0.52792 15.33334,-1.20812 5.91464,-0.84401 13.32394,-0.71314 23.33333,0.41212 8.8698,0.99715 15.55425,1.17758 16.91235,0.4565 4.10318,-2.17862 15.21525,-1.38964 18.55866,1.31768 2.73582,2.21533 2.91306,2.91978 1.50963,6 -1.52137,3.33905 -2.0492,3.48996 -12.20669,3.48996 -6.48491,0 -10.98078,0.58928 -11.5524,1.51421 -0.51471,0.83281 -0.93583,8.88609 -0.93583,17.89617 0,9.01008 -0.44124,17.0959 -0.98052,17.96847 -0.53928,0.87257 -3.60357,2.13885 -6.80952,2.81396 -7.08201,1.49129 -130.369299,2.50268 -137.720101,1.12977 z m 11.224418,-24.57723 c 0,-14.30928 -1.138812,-17.5113 -4.892818,-13.7573 -1.380143,1.38014 -2.04068,5.32104 -2.205386,13.15777 -0.253809,12.07631 0.505474,14.52084 4.510227,14.52084 2.396503,0 2.587977,-1.02999 2.587977,-13.92131 z M 81.333335,170 c 0,-13.81452 -0.0416,-14 -3.139951,-14 -2.923332,0 -3.193785,0.64213 -3.920295,9.30793 C 73.140106,178.82214 74.220816,184 78.174457,184 c 3.122384,0 3.158878,-0.16174 3.158878,-14 z m 17.062005,2.67114 C 98.853455,160.3159 98.060747,156 95.333335,156 c -2.244766,0 -2.890432,2.50796 -3.866206,15.01744 -0.837596,10.73805 -0.102706,13.26266 3.702577,12.71972 2.57592,-0.36754 2.865828,-1.36211 3.225634,-11.06602 z m 52.07045,-4.17902 c 0.46496,-12.68943 0.46016,-12.71151 -2.66667,-12.26888 -3.01106,0.42624 -3.13086,0.88262 -3.0915,11.77676 0.0467,12.93556 1.13972,17.35142 3.66942,14.82517 0.97207,-0.97073 1.80978,-6.71908 2.08875,-14.33305 z m -86.465789,2.42938 c 0,-8.10161 -0.592588,-12.54805 -1.910239,-14.33333 -3.542365,-4.79953 -5.161644,-0.60399 -4.515824,11.70049 0.620754,11.8269 1.420036,14.378 4.504752,14.378 1.527452,0 1.921311,-2.4077 1.921311,-11.74516 z m 51.666669,8.1356 c 3.68641,-7.93774 1.14568,-23.14564 -4.03349,-24.14306 -1.99724,-0.38463 -2.29791,0.75413 -2.28517,8.65486 0.0281,17.39842 2.55498,23.59236 6.31866,15.4882 z m 17.92291,-0.72377 c 0.33284,-2.38333 0.26134,-8.52765 -0.15888,-13.65405 -1.41973,-17.31984 -8.09736,-9.87948 -8.09736,9.02225 0,8.02131 0.49632,8.96513 4.71443,8.96513 2.30012,0 3.06782,-0.93926 3.54181,-4.33333 z m 34.0392,-8.45601 c -0.41967,-7.03415 -1.08194,-13.10827 -1.47174,-13.49806 -0.38978,-0.38978 -1.63457,-0.35341 -2.7662,0.0808 -1.64034,0.62946 -2.0575,3.186 -2.0575,12.60916 0,6.50079 0.4,12.21963 0.88889,12.70851 0.48888,0.48889 2.07704,0.88889 3.52923,0.88889 2.50109,0 2.6001,-0.67452 1.87732,-12.78934 z M 46.747826,58.953972 c -8.440993,-0.209949 -16.032703,-1.027141 -17,-1.829926 C 28.491752,56.081598 27.994878,51.31159 27.981794,40.170073 27.956134,18.319061 28.285339,18.987638 17.004271,17.87603 7.5672912,16.946134 2.6666667,14.309892 2.6666667,10.163259 c 0,-5.5027612 -0.027656,-5.5012772 100.5386333,-5.3951245 52.87042,0.055808 97.7689,0.5149451 99.7744,1.0203062 2.44426,0.6159236 3.93765,2.0794401 4.52994,4.4393203 1.37787,5.489841 -2.1616,7.240973 -12.74704,6.306549 -13.5281,-1.194188 -13.87121,-0.692676 -14.1906,20.742087 -0.14434,9.687726 -0.85189,18.203498 -1.57233,18.923934 -1.90671,1.906711 -91.392603,3.769913 -132.251844,2.753641 z m 0.613233,-22.125471 c 1.213568,-12.950573 0.04013,-18.454779 -3.817166,-17.905147 -2.70919,0.386035 -2.882542,1.14974 -2.968247,13.076645 -0.05007,6.966667 0.135348,13.116667 0.412023,13.666667 0.276674,0.55 1.616441,1 2.977261,1 2.103224,0 2.612453,-1.475172 3.396129,-9.838165 z M 151.71523,32.961342 c 0.32812,-11.175988 0.0663,-13.128885 -1.85948,-13.86786 -3.27473,-1.256637 -6.19988,3.33346 -5.25101,8.239851 0.42545,2.2 0.73338,6.858662 0.68429,10.352584 -0.1032,7.346885 0.75501,9.295077 3.83529,8.705794 1.84435,-0.352841 2.27206,-2.569916 2.59091,-13.430369 z m 14.78804,11.902203 c 2.20583,-2.657847 3.32009,-16.920107 1.65605,-21.196879 -1.5699,-4.034838 -4.75013,-4.858148 -6.01666,-1.557617 -1.03952,2.708947 -1.018,17.643048 0.0311,21.557617 0.91958,3.431376 2.1848,3.781143 4.32955,1.196879 z m -101.8,-2.534686 c 0.414742,-1.652461 0.576172,-7.795954 0.358736,-13.652207 -0.341106,-9.18709 -0.739232,-10.71344 -2.902236,-11.126718 -1.378793,-0.26344 -3.019605,0.330054 -3.646249,1.318875 -1.583821,2.499213 -1.4492,15.442304 0.223255,21.464524 1.546628,5.569142 4.796749,6.656162 5.966494,1.995526 z m 17.303846,-2.662193 c 1.450661,-9.819224 0.298357,-21.582674 -2.159943,-22.050045 -1.75362,-0.333397 -2.412005,1.620901 -3.550513,10.539083 -1.469796,11.513239 -0.506264,17.177629 2.921976,17.177629 1.275441,0 2.241272,-1.962734 2.78848,-5.666667 z M 99.17651,32.333333 c -0.482526,-7.15 -1.068759,-13.224123 -1.302742,-13.498052 -0.233984,-0.273928 -1.351301,-0.142759 -2.482929,0.291488 -1.655315,0.635204 -2.057504,3.273723 -2.057504,13.49805 0,12.694 0.0038,12.708514 3.360245,12.708514 h 3.36025 z m 16.86703,7.50497 C 118.00285,32.562006 116.19565,18 113.33334,18 c -1.57809,0 -2.0834,2.249282 -2.39534,10.662193 -0.42145,11.36629 0.33249,16.67114 2.36935,16.67114 0.69109,0 1.92238,-2.472763 2.73619,-5.49503 z m 17.18257,-8.525682 c -0.22094,-13.071656 -1.56979,-16.755861 -3.89527,-10.639388 -2.58267,6.792928 -1.00166,23.326766 2.23056,23.326766 1.50003,0 1.8359,-2.559777 1.66471,-12.687378 z"
       id="path30" />
  </g>
</svg>
