<?xml version="1.0" encoding="UTF-8" standalone="no"?>
<!-- Created with Inkscape (http://www.inkscape.org/) -->

<svg
   version="1.1"
   id="svg223"
   width="102.66667"
   height="186.66667"
   viewBox="0 0 102.66667 186.66667"
   xmlns="http://www.w3.org/2000/svg"
   xmlns:svg="http://www.w3.org/2000/svg">
  <defs
     id="defs227" />
  <g
     id="g229">
    <path
       style="fill:#000000;stroke-width:1.33333"
       d="m 48.943455,182.47499 c -2.158825,-1.20815 -2.311516,-5.79972 -2.185048,-65.70659 l 0.135971,-64.407686 -3.460969,-6.513689 c -4.062817,-7.646395 -12.468588,-19.656163 -14.199,-20.286861 -0.663716,-0.241909 -3.664507,4.708091 -6.668426,11.000001 -5.22358,10.941143 -5.652993,11.439836 -9.850566,11.439836 -8.6439761,0 -8.6622769,-2.531635 -0.142787,-19.752442 13.344728,-26.9742702 18.913699,-29.5326925 26.101721,-11.991307 1.109509,2.707606 4.926152,8.292243 8.481429,12.410306 6.100502,7.066185 6.60062,7.363873 8.890251,5.291787 1.334362,-1.20758 5.57922,-7.692218 9.43302,-14.410306 C 73.08283,6.2928478 73.898425,5.3843118 78.221297,5.3537505 c 5.57692,-0.039427 18.957866,22.2217875 19.348421,32.1890065 0.242037,6.17696 -2.893323,10.557871 -5.423323,7.577786 -2.637313,-3.10649 -8.146392,-11.862254 -8.146392,-12.947336 0,-0.572936 -1.57025,-2.49629 -3.489443,-4.274121 -3.302603,-3.059342 -3.570324,-3.102588 -5,-0.807684 -0.830807,1.333604 -4.28353,6.136248 -7.672718,10.672543 -5.517183,7.384533 -6.310383,9.357049 -7.578288,18.845587 -0.778872,5.828777 -1.018057,11.226133 -0.531525,11.994123 0.486532,0.76799 0.72607,24.449271 0.532309,52.625065 -0.300091,43.63763 -0.667595,51.89318 -2.480113,55.71278 -2.55875,5.39216 -5.640746,7.32206 -8.83677,5.53349 z"
       id="path400" />
  </g>
</svg>
