<?xml version="1.0" encoding="UTF-8" standalone="no"?>
<!-- Created with Inkscape (http://www.inkscape.org/) -->

<svg
   version="1.1"
   id="svg213"
   width="104"
   height="204"
   viewBox="0 0 104 204"
   xmlns="http://www.w3.org/2000/svg"
   xmlns:svg="http://www.w3.org/2000/svg">
  <defs
     id="defs217" />
  <g
     id="g219">
    <path
       style="fill:#000000;stroke-width:1.33333"
       d="m 11.687648,198.28167 c -3.0151172,-2.41771 -5.0184076,-12.69706 -5.0420852,-25.8721 -0.011607,-6.4586 -0.6197077,-18.9429 -1.3513345,-27.7429 -1.7830475,-21.44648 0.5000588,-26.90132 9.4331847,-22.53794 l 3.39408,1.65783 0.369414,26.37529 c 0.203178,14.50643 0.901809,27.3701 1.552512,28.58595 1.073588,2.00601 0.779288,7.63947 -0.812202,15.54705 -0.797272,3.96138 -4.882645,6.12052 -7.543569,3.98682 z m 67.186812,-3.02474 c -0.854469,-1.87536 -1.194165,-4.84176 -0.754881,-6.59201 0.439285,-1.75024 0.156044,-9.36587 -0.629423,-16.9236 -0.785468,-7.55772 -1.59208,-21.43948 -1.792473,-30.84835 -0.323224,-15.17609 -0.09399,-17.30477 2.030952,-18.85896 2.868688,-2.09819 7.25788,-1.20174 8.809372,1.79921 0.616124,1.19173 1.551641,14.46678 2.078926,29.50011 1.151562,32.83194 1.085378,37.52259 -0.591676,41.93358 -1.76386,4.63929 -7.035062,4.63356 -9.150797,-0.009 z m -32,-14.66666 c -0.854469,-1.87536 -1.194165,-4.84176 -0.754881,-6.59202 0.439285,-1.75024 0.156044,-9.36586 -0.629423,-16.9236 -0.785468,-7.55772 -1.59208,-21.43948 -1.792473,-30.84834 -0.323224,-15.1761 -0.09399,-17.30478 2.030952,-18.85897 2.868688,-2.09818 7.25788,-1.20174 8.809372,1.79921 0.616124,1.19173 1.551641,14.46678 2.078926,29.50012 1.151562,32.83193 1.085378,37.52258 -0.591676,41.93357 -1.76386,4.63929 -7.035062,4.63356 -9.150797,-0.009 z M 12.509363,55.369992 c -1.013483,-1.446505 -1.842696,-3.983872 -1.842696,-5.638595 0,-5.521077 6.895154,-23.636141 10.941044,-28.744493 13.210338,-16.6794116 37.732401,-20.54088019 55.271894,-8.703619 11.42168,7.708399 21.321074,22.721339 22.708879,34.439188 1.195536,10.094427 0.04692,10.582455 -25.350389,10.771015 -11.864286,0.08808 -30.192215,0.238084 -40.728732,0.333333 -17.665042,0.15969 -19.300842,-0.03169 -21,-2.456829 z M 84.16194,44.566583 c 2.878481,-1.779 0.742073,-7.51386 -5.648092,-15.161442 C 70.431389,19.732269 67.368443,17.984671 56.39608,16.7856 c -6.948317,-0.75932 -9.154481,-0.452889 -13.799217,1.916677 -8.736107,4.45683 -17.049231,12.883591 -18.67835,18.933675 -2.511716,9.327803 -3.420234,9.071672 29.527962,8.324536 16.249238,-0.368469 30.071198,-0.995727 30.715465,-1.393905 z"
       id="path539" />
  </g>
</svg>
