<?xml version="1.0" encoding="UTF-8" standalone="no"?>
<!-- Created with Inkscape (http://www.inkscape.org/) -->

<svg
   version="1.1"
   id="svg203"
   width="220"
   height="209.33333"
   viewBox="0 0 220 209.33333"
   xmlns="http://www.w3.org/2000/svg"
   xmlns:svg="http://www.w3.org/2000/svg">
  <defs
     id="defs207" />
  <g
     id="g209">
    <path
       style="fill:#000000;stroke-width:1.33333"
       d="m 78.666667,201.9541 c -4.033334,-1.047 -11.233334,-2.4651 -16,-3.15134 C 50.624739,197.06912 39.383687,193.71652 26,187.86704 23.066667,186.585 17.966667,184.78692 14.666667,183.87133 7.3763768,181.84861 3.9932585,179.1757 4.0204171,175.46001 c 0.032943,-4.507 1.4670904,-5.66589 11.3129159,-9.14161 5.133334,-1.81215 12.633334,-4.64564 16.666667,-6.29666 9.526637,-3.89968 41.373597,-10.67046 50.236855,-10.68054 3.796936,-0.004 11.296936,-0.614 16.666666,-1.35483 7.304479,-1.00775 14.799779,-0.85128 29.763149,0.62128 36.39686,3.58187 38.10881,3.94225 63.03638,13.2702 6.23814,2.33432 19.67022,9.27549 22.50992,11.63223 3.29407,2.73384 2.09674,7.67357 -2.5463,10.50506 -4.6499,2.83567 -21.35372,8.58744 -29,9.98583 C 180.1,194.47037 175.3,195.693 172,196.71792 c -19.28232,5.98876 -77.789576,9.27113 -93.333333,5.23618 z m 60.782843,-12.02045 c 38.88569,-6.07932 51.69245,-8.57479 55.79852,-10.87267 2.29562,-1.28469 2.06166,-1.70337 -2.70067,-4.8329 -7.48388,-4.91799 -46.63951,-12.43916 -72.0979,-13.84887 -14.50486,-0.80317 -48.162381,1.53301 -55.396021,3.84508 -2.412724,0.77116 -7.086772,1.91616 -10.386772,2.54443 C 36.54282,170.21918 28,172.54704 28,174.03517 c 0,2.51321 2.805807,4.19399 8.666667,5.19163 C 39.6,179.72612 46.5,181.52404 52,183.22218 c 16.364087,5.05247 21.397953,6.13379 34,7.30355 19.65104,1.82407 39.39378,1.60537 53.44951,-0.59208 z M 127.11321,69.82136 c -0.85441,-0.349128 -6.15591,-6.04619 -11.78112,-12.660137 -6.41971,-7.548094 -10.91546,-11.761421 -12.07502,-11.316458 -3.19541,1.226196 -23.460746,17.134571 -24.164894,18.969551 -1.452585,3.785379 -9.758843,3.607311 -9.758843,-0.209209 0,-2.484772 9.293095,-12.950138 18.725536,-21.087656 4.367524,-3.767932 7.940992,-7.483085 7.941042,-8.255896 4.9e-5,-0.77281 -2.152488,-3.47281 -4.783416,-5.999999 -2.630928,-2.52719 -6.013398,-6.99489 -7.516598,-9.928223 C 82.196696,16.4 79.882799,12.611706 78.557904,10.914902 75.657337,7.2001228 76.55724,3.9804991 80.475985,4.0524973 c 1.872034,0.034395 6.29598,3.9337138 12.82916,11.3077767 5.484498,6.190403 10.754285,11.555542 11.710635,11.922528 1.66239,0.637919 18.20463,-11.872285 23.5242,-17.790375 2.85765,-3.1791606 8.14813,-3.763721 9.20222,-1.0167807 1.25667,3.2748127 -2.27776,7.9369707 -13.08297,17.2573677 -5.86258,5.056963 -10.86099,10.412317 -11.10758,11.900789 -0.31573,1.90579 2.24785,5.34355 8.66666,11.621972 5.01326,4.903612 10.17043,10.77882 11.46038,13.056015 2.13782,3.773981 2.15888,4.326825 0.2381,6.247616 -2.11296,2.112958 -3.90673,2.445673 -6.80358,1.261954 z"
       id="path678" />
  </g>
</svg>
