<?xml version="1.0" encoding="UTF-8" standalone="no"?>
<!-- Created with Inkscape (http://www.inkscape.org/) -->

<svg
   version="1.1"
   id="svg193"
   width="122.66667"
   height="188"
   viewBox="0 0 122.66667 188"
   xmlns="http://www.w3.org/2000/svg"
   xmlns:svg="http://www.w3.org/2000/svg">
  <defs
     id="defs197" />
  <g
     id="g199">
    <path
       style="fill:#000000;stroke-width:1.33333"
       d="m 37.333334,180.1528 c -4.766666,-2.88332 -10.034736,-6.70513 -11.706819,-8.49293 -8.646297,-9.24467 -11.539248,-32.53267 -5.373965,-43.25995 3.224927,-5.61121 7.712468,-9.86981 12.080784,-11.46445 4.05667,-1.48088 2.591676,-5.87858 -3.666667,-11.00682 -5.867741,-4.80817 -7.868869,-9.949581 -4.647464,-11.940518 2.258514,-1.395837 58.749094,-0.694232 61.472865,0.763485 3.843474,2.056966 3.023212,5.085435 -2.825399,10.431593 -2.933333,2.68133 -5.333334,5.59661 -5.333334,6.47839 0,0.88179 1.8,2.53407 4.000001,3.67173 2.2,1.13767 4,2.59631 4,3.24143 0,0.64511 2.044073,3.61953 4.542385,6.60982 3.526571,4.22103 4.88129,7.45461 6.057851,14.45949 1.351799,8.04818 1.215923,9.95793 -1.258156,17.68333 -3.089994,9.64863 -8.503159,16.13361 -19.205818,23.00861 -5.807217,3.73035 -7.800564,4.24275 -18,4.62703 -11.310931,0.42616 -11.589487,0.35963 -20.136264,-4.81024 z m 26.559417,-5.45537 c 8.085532,-2.31891 14.74502,-8.04956 18.885186,-16.25119 4.563473,-9.04019 4.900767,-15.23539 1.222065,-22.44624 -1.466666,-2.8749 -2.666666,-6.07753 -2.666666,-7.11696 0,-2.78213 -3.633205,-5.36902 -9.714094,-6.91658 -7.83733,-1.99457 -8.923622,-4.60757 -4.543243,-10.92846 1.974868,-2.84973 3.59067,-5.59908 3.59067,-6.10967 0,-0.51058 -6.600001,-0.92833 -14.666667,-0.92833 -8.066667,0 -14.666668,0.37079 -14.666668,0.82398 0,0.45319 1.800001,2.87407 4.000001,5.37973 5.063013,5.76645 5.03579,8.01753 -0.131307,10.8583 -7.617382,4.1879 -10.602664,7.15947 -14.073536,14.00891 -2.968322,5.85769 -3.354535,7.9946 -2.767245,15.31101 0.547903,6.82571 1.460319,9.46799 4.625119,13.39395 2.168411,2.68993 5.683558,5.73828 7.811436,6.77412 2.12788,1.03583 5.368873,2.66987 7.202206,3.63119 4.002021,2.09848 9.727326,2.28445 15.89275,0.51624 z M 11.284136,80.666667 c -3.1776422,-2.577091 -2.8658207,-5.414844 1.571336,-14.300048 2.462824,-4.931694 4.477862,-9.777104 4.477862,-10.767582 0,-0.990476 -1.559391,-3.255454 -3.465314,-5.033285 C 9.8157971,46.785868 4.0000001,35.916045 4.0000001,32.122255 c 0,-4.778666 16.8730969,-15.935172 35.5501249,-23.5057754 10.951551,-4.4391349 39.750198,-2.5300627 53.435347,3.5422474 3.108673,1.379366 6.300569,2.50794 7.093098,2.50794 2.21613,0 12.73789,7.588948 15.64393,11.28338 3.77935,4.804665 2.34316,9.106954 -6.07556,18.200181 -6.74722,7.287796 -7.1658,8.101769 -5.25437,10.217533 2.7885,3.086591 10.27173,19.052871 10.27305,21.91866 5.8e-4,1.257532 -1.16762,2.911874 -2.59599,3.676314 -3.50364,1.875092 -98.523098,2.538752 -100.785494,0.703932 z M 87.666669,69.407053 c 7.322814,-0.06478 8.333334,-0.386261 8.333334,-2.65112 0,-3.634876 -9.962882,-11.36451 -19.011717,-14.750113 -6.276169,-2.348216 -9.743628,-2.765296 -19.318684,-2.323731 -15.828025,0.729927 -26.345398,5.267088 -30.404417,13.116364 -4.258626,8.235272 -4.677276,8.112312 25.06815,7.362724 14.85,-0.374221 30.750001,-0.713577 35.333334,-0.754124 z M 42.619849,40.7597 c 6.244123,-2.149529 12.849719,-3.426367 17.725981,-3.426367 7.902987,0 24.616078,3.425072 26.920839,5.516982 C 87.963336,43.482641 89.011608,44 89.596161,44 c 1.85706,0 11.737179,-9.571 11.737179,-11.369959 0,-2.820768 -7.705756,-8.450962 -13.727296,-10.02982 -3.083323,-0.808453 -8.006042,-2.256788 -10.939375,-3.218522 -2.933334,-0.961735 -9.706451,-2.179271 -15.051374,-2.705635 -9.66066,-0.951376 -11.738366,-0.568156 -22.483466,4.146929 -2.310828,1.01402 -5.010828,1.858548 -6,1.876728 -3.053064,0.05611 -14.465162,9.194439 -14.465162,11.583091 0,1.241296 1.95,4.274083 4.333334,6.739524 4.812653,4.978456 4.378218,4.984272 19.619848,-0.262636 z"
       id="path817" />
  </g>
</svg>
