<?xml version="1.0" encoding="UTF-8" standalone="no"?>
<!-- Created with Inkscape (http://www.inkscape.org/) -->

<svg
   version="1.1"
   id="svg183"
   width="101.33333"
   height="104"
   viewBox="0 0 101.33333 104"
   xmlns="http://www.w3.org/2000/svg"
   xmlns:svg="http://www.w3.org/2000/svg">
  <defs
     id="defs187" />
  <g
     id="g189">
    <path
       style="fill:#000000;stroke-width:1.33333"
       d="m 15,97.783625 c -4.557629,-1.839042 -1.248424,-8.58489 12.492204,-25.465486 2.268158,-2.786471 3.593803,-6.095679 3.690392,-9.212323 0.135962,-4.387069 -0.437354,-5.228463 -5.849264,-8.584317 C 22.033333,52.475212 17.488631,49.85236 15.233995,48.692937 12.979359,47.533516 9.0965484,44.883411 6.605526,42.803813 2.4412339,39.327308 2.2052717,38.739872 3.6762789,35.511363 4.643336,33.388904 6.3519649,32 7.9959556,32 10.90146,32 21.700941,37.254128 29.277156,42.35366 c 2.591211,1.744139 6.095011,2.930244 8,2.708159 3.340211,-0.389404 3.404904,-0.618171 4.447925,-15.728486 1.309324,-18.968273 2.772504,-24.8883769 6.438875,-26.0520377 1.524129,-0.4837398 3.40524,-0.2454318 4.180245,0.5295735 0.775005,0.7750053 1.863196,9.9031962 2.418203,20.2848702 0.555006,10.381673 1.579273,19.44594 2.276147,20.142814 0.800507,0.800507 3.910998,0.480255 8.44758,-0.86975 25.455193,-7.575004 28.263857,-8.079898 30.429758,-5.470147 1.396928,1.683196 0.93536,2.694623 -2.787544,6.108287 -2.453925,2.250092 -5.961681,4.456518 -7.795014,4.90317 -1.833334,0.446651 -4.833334,1.846247 -6.666667,3.110211 -1.833333,1.263964 -6.033333,3.65022 -9.333333,5.302789 -3.3,1.65257 -6.266585,3.247507 -6.592412,3.544303 -0.325826,0.296796 1.504463,2.268051 4.067308,4.380565 2.562847,2.112515 6.429432,6.44593 8.592412,9.629811 2.162981,3.183881 5.891168,7.667715 8.28486,9.964075 2.706537,2.596482 4.053987,4.952246 3.563575,6.230241 -1.245971,3.246948 -4.149262,3.650425 -7.497311,1.041917 -1.696804,-1.322001 -5.086364,-3.430393 -7.532355,-4.685317 -2.44599,-1.254923 -8.44599,-5.527957 -13.333333,-9.495632 -4.887342,-3.967675 -9.486077,-7.217131 -10.21941,-7.221015 -0.733333,-0.0039 -7.545401,6.284312 -15.137927,13.973771 C 20.230591,98.153753 18.663171,99.261748 15,97.783625 Z"
       id="path956" />
  </g>
</svg>
