<?xml version="1.0" encoding="UTF-8" standalone="no"?>
<!-- Created with Inkscape (http://www.inkscape.org/) -->

<svg
   version="1.1"
   id="svg173"
   width="97.333336"
   height="205.33333"
   viewBox="0 0 97.333336 205.33333"
   xmlns="http://www.w3.org/2000/svg"
   xmlns:svg="http://www.w3.org/2000/svg">
  <defs
     id="defs177" />
  <g
     id="g179">
    <path
       style="fill:#000000;stroke-width:1.33333"
       d="m 44.666668,201.29766 c -18.306622,-3.5534 -29.045065,-13.0416 -33.386565,-29.49945 -2.0705217,-7.84899 -0.712809,-18.295 3.515304,-27.04619 1.39586,-2.88909 2.537927,-6.59734 2.537927,-8.24056 0,-3.66793 3.306663,-7.17813 6.761905,-7.17813 4.055178,0 3.087655,-4.30987 -2.095238,-9.33333 -9.696892,-9.3986 -6.492338,-10.55891 28.536642,-10.33258 18.710574,0.12089 29.028471,0.69556 30.392186,1.69273 2.846555,2.08145 1.208587,6.55237 -3.674348,10.02933 -4.967264,3.537 -4.982148,7.00677 -0.04513,10.52223 8.983233,6.39662 17.11192,24.68691 15.319401,34.47006 -2.379394,12.98617 -9.200186,22.78335 -21.983871,31.57697 -5.803289,3.99196 -7.885875,4.68255 -13.694489,4.54103 -3.767713,-0.0918 -9.250387,-0.63273 -12.18372,-1.20211 z m 25.202834,-14.50292 c 9.898931,-9.71506 13.80478,-24.87322 9.033436,-35.05774 -1.478249,-3.15535 -2.970257,-6.637 -3.315575,-7.737 -0.701662,-2.23514 -7.627904,-6.01366 -13.311121,-7.26171 -5.222523,-1.14689 -5.738212,-3.87352 -1.72719,-9.13224 5.567447,-7.2993 4.774128,-8.95955 -4.215717,-8.82258 -4.216667,0.0642 -10.574168,0.51425 -14.127781,1 l -6.461112,0.88319 4.178054,5.24661 c 2.297929,2.88563 3.997939,6.18563 3.777797,7.33333 -0.220141,1.1477 -3.383933,3.69984 -7.030651,5.67142 -4.984326,2.69475 -6.896303,4.61087 -7.701475,7.71812 -0.589093,2.27339 -2.247924,5.31028 -3.686289,6.74864 -2.132953,2.13296 -2.615211,4.45855 -2.615211,12.61138 0,9.57226 0.200086,10.21762 4.718378,15.21884 2.595106,2.87246 7.545107,6.77537 11,8.67312 5.386607,2.95882 7.654382,3.39912 15.916266,3.0902 9.394439,-0.35126 9.782573,-0.50543 15.568191,-6.18358 z M 5.8426963,54.036658 C 4.8292135,52.590152 4.0000001,50.052786 4.0000001,48.398063 4.0000001,42.876986 10.895154,24.761922 14.941044,19.65357 28.151383,2.974159 52.673447,-0.88730951 70.212941,10.949951 81.634621,18.65835 91.534015,33.67129 92.92182,45.389139 94.117356,55.483566 92.96874,55.971594 67.57143,56.160154 55.707144,56.248234 37.379214,56.398238 26.842697,56.493487 9.1776549,56.653176 7.5418554,56.4618 5.8426963,54.036658 Z M 77.495275,43.233249 c 2.878482,-1.779 0.742074,-7.51386 -5.648092,-15.161441 -8.082459,-9.672872 -11.145405,-11.420471 -22.117768,-12.619542 -6.948318,-0.75932 -9.154482,-0.452889 -13.799218,1.916678 -8.736107,4.456829 -17.049231,12.88359 -18.67835,18.933674 -2.511716,9.327803 -3.420235,9.071672 29.527962,8.324536 16.249239,-0.368469 30.0712,-0.995727 30.715466,-1.393905 z"
       id="path1095" />
  </g>
</svg>
