<?xml version="1.0" encoding="UTF-8" standalone="no"?>
<!-- Created with Inkscape (http://www.inkscape.org/) -->

<svg
   version="1.1"
   id="svg83"
   width="204"
   height="205.33333"
   viewBox="0 0 204 205.33333"
   xmlns="http://www.w3.org/2000/svg"
   xmlns:svg="http://www.w3.org/2000/svg">
  <defs
     id="defs87" />
  <g
     id="g89">
    <path
       style="fill:#000000;stroke-width:1.33333"
       d="m 122,201.0734 c -3.63271,-2.05998 -4.62226,-3.77184 -4.64625,-8.03774 -0.0112,-1.99705 -1.30498,-6.49705 -2.87501,-10 -10.57671,-23.59814 -12.23778,-25.27752 -16.571695,-16.75428 -9.610376,18.90012 -18.282289,32.21719 -21.975664,33.74704 -2.987926,1.23764 -4.381297,1.25803 -5.79494,0.0848 -2.498622,-2.07368 -1.365196,-5.91854 4.356959,-14.7799 7.608716,-11.78291 11.840319,-20.28536 15.455048,-31.05344 3.909532,-11.64631 4.075803,-13.37996 1.489115,-15.52672 -1.042675,-0.86535 -2.286064,-3.88348 -2.763087,-6.70696 -1.642396,-9.72124 -3.980143,-10.84425 -32.007809,-15.37589 -6.6,-1.06712 -15,-2.80037 -18.666667,-3.85167 -3.666667,-1.0513 -10.322583,-2.62759 -14.790925,-3.50287 -4.468343,-0.87528 -10.955838,-3.35384 -14.4166561,-5.5079 -5.2883113,-3.29153 -6.2259109,-4.486209 -5.8757413,-7.486792 0.2831948,-2.42668 1.6979147,-4.186899 4.4166557,-5.495285 2.2,-1.058742 4.9905837,-2.395646 6.2012957,-2.970897 1.210714,-0.575251 16.210714,-3.846352 33.333334,-7.269115 17.12262,-3.422762 32.182037,-6.775894 33.46537,-7.451405 1.593708,-0.838883 2.333334,-2.82483 2.333334,-6.265168 0,-3.85613 0.937736,-5.935373 4,-8.869209 4.845177,-4.641975 4.925278,-5.979285 0.740454,-12.36192 -5.887701,-8.979836 -7.588296,-16.282157 -6.152677,-26.419455 0.924188,-6.525947 2.126903,-9.8537124 4.345068,-12.0222744 3.602029,-3.5214782 3.805545,-3.5593759 18.013198,-3.3543265 10.1198,0.1460523 11.20172,0.4337196 14.33333,3.811019 1.86301,2.0091732 3.39099,4.5591729 3.39551,5.6666669 0.005,1.107493 0.90452,3.732208 2,5.8327 3.74209,7.175131 1.70059,18.197738 -5.27044,28.45653 -3.69144,5.432444 -4.13313,9.0473 -2.03046,16.617696 2.331,8.392484 4.87828,10.290952 16.62602,12.391265 25.26109,4.516291 48.83724,10.430139 59.47508,14.918748 6.18416,2.609385 9.70888,9.248462 7.38488,13.909942 -1.20519,2.41737 -3.15083,3.41412 -8.21946,4.21078 -3.65228,0.57406 -11.4405,2.00688 -17.30717,3.18406 -5.86667,1.17718 -19.87872,2.88443 -31.13791,3.7939 -22.01147,1.77799 -22.01803,1.78074 -23.54062,9.89686 -0.48548,2.58782 -2.67687,6.97046 -4.86976,9.73921 l -3.98706,5.03408 2.68465,7.01393 c 2.50988,6.55732 9.13312,22.34344 13.85136,33.01392 6.14745,13.90269 6.62278,15.63324 5.08378,18.50889 -1.65868,3.09927 -5.88106,3.61476 -10.08444,1.23118 z m -18,-76.40674 c 0,-2.07407 -0.75556,-3.33333 -2,-3.33333 -1.24444,0 -2,1.25926 -2,3.33333 0,2.07408 0.75556,3.33334 2,3.33334 1.24444,0 2,-1.25926 2,-3.33334 z M 88.636747,101.07557 91.273493,96.151138 87.97008,92.622145 c -3.148328,-3.363317 -3.772884,-3.495244 -13.303413,-2.810117 -12.967314,0.932188 -42.279895,4.419592 -47.029568,5.595244 -2.953826,0.73114 -3.389698,1.284258 -2.170074,2.753814 0.839388,1.011402 3.102694,1.828426 5.029568,1.81561 4.493044,-0.02988 35.180907,3.830354 42.170074,5.304594 9.860218,2.07984 13.055021,1.23849 15.97008,-4.20572 z m 64.029923,1.68062 C 157.8,101.98893 163.8,100.83275 166,100.1869 l 4,-1.174279 -4,-0.915063 c -2.2,-0.503285 -6.4,-1.541624 -9.33333,-2.307421 C 153.73333,95.02434 148.03333,93.957369 144,93.41909 c -4.03333,-0.538277 -10.98871,-1.778279 -15.4564,-2.755561 -9.25234,-2.023897 -11.95371,-1.417009 -14.0361,3.153352 -1.22143,2.680729 -0.96882,3.902181 1.49668,7.236939 l 2.96611,4.01189 12.18152,-0.45726 c 6.69984,-0.25149 16.38152,-1.08501 21.51486,-1.85226 z M 102.4219,69.678067 c -0.25446,-2.2046 -1.34793,-3.830881 -2.755233,-4.097767 -1.812062,-0.343644 -2.333334,0.472951 -2.333334,3.655267 0,3.252782 0.568144,4.097765 2.755227,4.097765 2.21733,0 2.67287,-0.713612 2.33334,-3.655265 z m 1.3323,-28.164604 c 5.4071,-3.428742 8.57139,-18.11637 5.05814,-23.478267 -2.79486,-4.265491 -8.985956,-4.528247 -12.963996,-0.550207 -2.427221,2.427221 -2.694163,3.768675 -1.923609,9.666667 0.492093,3.766589 2.210338,8.794243 3.818324,11.172566 3.182661,4.707385 3.419161,4.832861 6.011141,3.189241 z"
       id="path1234" />
  </g>
</svg>
