<?xml version="1.0" encoding="UTF-8" standalone="no"?>
<!-- Created with Inkscape (http://www.inkscape.org/) -->

<svg
   version="1.1"
   id="svg235"
   width="113.33333"
   height="206.66667"
   viewBox="0 0 113.33333 206.66667"
   xmlns="http://www.w3.org/2000/svg"
   xmlns:svg="http://www.w3.org/2000/svg">
  <defs
     id="defs239" />
  <g
     id="g241">
    <path
       style="fill:#000000;stroke-width:1.33333"
       d="m 9.642305,201.55815 c -0.9300653,-0.59343 -2.2087303,-2.88409 -2.8414776,-5.09036 -1.4742452,-5.14039 3.6367566,-21.00069 9.2762606,-28.7858 9.064713,-12.51348 18.240879,-17.01532 34.682527,-17.01532 7.139074,0 9.559558,0.72541 18.039378,5.40639 13.974535,7.7141 21.628368,18.15662 25.755719,35.13985 2.558366,10.52717 3.912629,10.18297 -42.676658,10.84665 -22.299596,0.31767 -41.305684,0.092 -42.235749,-0.50141 z m 62.732873,-10.77272 c 9.066245,-0.13968 10.68105,-2.148 6.915465,-8.60072 -5.206537,-8.92193 -10.809325,-14.29919 -18.960869,-18.19763 -9.906769,-4.73786 -10.177027,-4.75509 -19.55387,-1.24677 -11.529756,4.31384 -22.109238,16.91841 -22.109238,26.34133 0,1.83587 8.386581,2.43447 29.333333,2.09368 9.166666,-0.14912 20.135496,-0.32458 24.375179,-0.38989 z M 47.652909,107.84693 C 36.945842,106.81476 30.854219,104.88507 25.590654,100.85811 21.683941,97.869239 13.333333,88.868371 13.333333,87.64632 c 0,-0.683819 -0.801275,-3.133985 -1.780611,-5.444813 C 7.4704944,72.569135 6.2504561,68.14307 4.9671983,58.310489 3.5266652,47.272835 3.3800586,47.948481 11.039116,30.327743 14.779672,21.72207 30.326424,8.0207605 36.427816,7.9527529 c 2.331367,-0.025986 5.738849,-0.9047248 7.572183,-1.9527528 7.368843,-4.2124119 26.179023,-1.6629722 40.231204,5.4527409 8.029742,4.066083 18.150657,15.824975 21.287697,24.732909 3.31657,9.417728 4.61109,25.930374 2.55577,32.600774 -4.89562,15.888363 -13.735658,27.788542 -24.393731,32.838066 -17.781045,8.42421 -16.135872,8.14007 -36.02803,6.22244 z M 70.666665,95.369902 c 1.1,-0.894172 4.801822,-2.948401 8.226271,-4.564949 8.940425,-4.220426 17.107061,-15.754938 17.107061,-24.161923 0,-4.846561 -1.083005,-4.737177 -13.333333,1.346668 -6.073085,3.016059 -9.704066,3.767744 -21.128534,4.374023 -16.256094,0.862687 -28.96405,-0.669767 -36.210492,-4.366625 -6.862033,-3.500748 -9.338576,-3.411052 -9.283732,0.336238 0.06247,4.268197 6.944543,16.061813 10.378327,17.785042 1.591005,0.798439 3.994113,2.448439 5.340239,3.666667 1.346126,1.218226 3.369343,2.214958 4.496036,2.214958 1.126694,0 3.508596,1.148486 5.293116,2.552189 1.78452,1.403704 5.015435,2.81963 7.179812,3.146505 6.108566,0.922543 19.712177,-0.521709 21.935229,-2.328793 z M 73.526218,61.354465 C 84.579627,57.903561 94.666664,49.548138 94.666664,43.843142 94.666664,34.923727 86.90772,25.311395 74.837228,19.277026 68.26903,15.993402 66.664203,15.74384 55.503896,16.27056 42.357113,16.891035 32.866072,20.45293 27.265859,26.86802 c -3.487396,3.99484 -9.932526,16.208418 -9.932526,18.822222 0,3.592255 10.52199,12.717902 17.074427,14.808531 9.231257,2.945335 10.695244,3.177328 21.118458,3.34656 6.15713,0.09996 12.523099,-0.780965 18,-2.490868 z"
       id="path263" />
  </g>
</svg>
