<?xml version="1.0" encoding="UTF-8" standalone="no"?>
<!-- Created with Inkscape (http://www.inkscape.org/) -->

<svg
   version="1.1"
   id="svg215"
   width="218.66667"
   height="256"
   viewBox="0 0 218.66667 256"
   xmlns="http://www.w3.org/2000/svg"
   xmlns:svg="http://www.w3.org/2000/svg">
  <defs
     id="defs219" />
  <g
     id="g221">
    <path
       style="fill:#000000;stroke-width:1.33333"
       d="m 175.86327,248.8602 c -10.856,-3.45081 -21.61431,-13.76481 -26.00935,-24.93519 -1.28217,-3.25876 -3.78741,-7.30529 -5.56721,-8.9923 -2.86377,-2.71448 -3.13023,-3.788 -2.31661,-9.33334 1.39652,-9.51806 3.42297,-12.63184 10.50582,-16.14288 l 6.47592,-3.21018 10.19075,2.36924 c 14.67479,3.41172 25.89577,9.17253 32.20987,16.5364 16.83228,19.63081 9.21156,45.79469 -13.2163,45.37492 -4.10822,-0.0769 -9.63102,-0.8269 -12.27289,-1.66667 z m 21.8034,-12.90283 c 4.97008,-5.42114 5.02843,-13.18236 0.152,-20.21904 -1.93307,-2.78941 -4.03307,-5.07166 -4.66667,-5.07166 -0.6336,0 -2.33313,-1.18114 -3.77674,-2.62475 -3.59843,-3.59843 -22.29407,-10.69493 -28.19544,-10.70245 -9.39888,-0.012 -15.17555,8.5678 -9.33027,13.85772 1.38392,1.25242 4.11135,5.83154 6.06093,10.17581 2.88256,6.42317 4.89648,8.79592 10.78095,12.70181 8.97267,5.95572 13.16084,7.3215 19.97524,6.514 3.71224,-0.43989 6.44784,-1.84764 9,-4.63144 z M 5.5660524,242.36605 c -3.2428182,-3.24281 -1.8012147,-13.96096 3.2369097,-24.066 8.5913779,-17.23188 16.8997059,-23.36276 33.3458439,-24.60657 7.291599,-0.55147 11.700239,-0.14359 17.22252,1.59337 8.354152,2.62771 19.279394,9.6038 21.303814,13.60311 0.737993,1.45793 2.387993,3.69699 3.666667,4.97565 1.278673,1.27868 2.324861,3.20591 2.324861,4.28275 0,1.07683 1.126777,4.18397 2.503951,6.90476 4.19145,8.28076 4.713864,13.0624 1.75084,16.02543 -2.439107,2.4391 -4.886018,2.59318 -43.187478,2.71957 -29.469935,0.0972 -41.0312456,-0.29539 -42.1679286,-1.43207 z M 75.000001,231.50107 c 2.19134,-0.67144 3.666667,-2.07072 3.666667,-3.47768 0,-4.31258 -6.679526,-14.37936 -12.950691,-19.51811 -5.4462,-4.46275 -7.219843,-5.14132 -14.679915,-5.61635 -11.702931,-0.74518 -18.567138,2.09855 -26.794444,11.10054 -6.356776,6.95533 -9.934622,16.14821 -6.988315,17.95572 1.918489,1.17696 53.757247,0.77828 57.746698,-0.44412 z M 10.46886,159.43165 c -3.8414722,-8.4311 2.066129,-13.23268 22.294096,-18.12016 6.547042,-1.58189 12.653711,-3.49758 13.570378,-4.25709 1.892081,-1.56769 2.25064,-7.20277 0.526128,-8.26858 -0.627297,-0.38769 -6.934072,-1.11214 -14.015057,-1.60988 -11.617027,-0.8166 -13.394059,-1.30429 -18.193734,-4.99319 -6.416419,-4.93147 -7.5690614,-7.91585 -4.7305042,-12.24803 2.7516782,-4.1996 5.7299072,-4.16153 7.6706922,0.098 2.454933,5.38799 9.018083,8.63392 17.457471,8.63392 9.612255,0 11.347173,-0.77 13.535479,-6.00735 l 1.817792,-4.35059 33.7992,-0.95609 C 102.79036,106.82679 129.7,106.33633 144,106.26272 c 28.29722,-0.14565 32,0.60079 32,6.45086 0,2.98492 0.52747,3.28642 5.74956,3.28642 6.36374,0 14.92128,-3.58466 18.80659,-7.87788 3.655,-4.03873 8.22796,-3.62808 9.77611,0.87788 0.69289,2.01667 0.99493,4.43663 0.6712,5.37769 -0.87858,2.55402 -15.30216,9.43087 -21.90212,10.44245 C 180.5449,126.13159 176,128.82205 176,132.57579 c 0,2.8222 0.77582,3.27682 7,4.10192 11.3311,1.50208 22.69283,5.7514 25.99338,9.7216 4.00022,4.81181 3.85449,8.78634 -0.39315,10.72169 -3.07044,1.39899 -3.81308,1.11097 -7.66667,-2.97336 -5.61884,-5.95529 -8.87902,-7.48097 -15.98589,-7.48097 -5.53509,0 -6.12544,0.36565 -9.68687,6 -2.86682,4.53544 -4.62268,6.00434 -7.19334,6.0178 -1.87044,0.009 -14.50079,0.34874 -28.06746,0.75325 -28.17004,0.83992 -67.231558,1.97508 -79.999999,2.32487 L 51.333334,162 l -0.406388,-6.33333 -0.406388,-6.33334 -6.926945,0.0193 c -9.466162,0.0265 -18.108063,3.30046 -23.106773,8.75388 -4.928265,5.37657 -7.987609,5.78122 -10.01798,1.32504 z m 151.86448,-11.87977 c 2.2785,-1.42533 2.34306,-28.3098 0.0713,-29.71379 -1.90777,-1.17908 -100.869005,-1.15154 -102.048938,0.0284 -1.103803,1.10381 -1.40532,20.45806 -0.396746,25.46686 0.79101,3.92832 0.983764,4.01322 10.756555,4.73774 14.902492,1.10484 89.699239,0.68096 91.617779,-0.5192 z M 92.000001,82.966069 c -8.724145,-0.961218 -28.956724,-6.218373 -31.333333,-8.14153 -4.181992,-3.384076 -8.415291,-5.491206 -11.032031,-5.491206 -1.320851,0 -5.356438,-3 -8.96797,-6.666666 C 37.055135,59 33.073726,56 31.81909,56 26.883371,56 17.426694,45.138037 7.6978124,28.294245 3.1322556,20.389812 2.8705372,14.099592 7.0000001,11.522811 12.120752,8.3274657 31.611974,6.6786131 61.333334,6.9265023 85.70928,7.1298083 78.675391,7.1953484 136.66667,6.2245644 c 52.32197,-0.8758788 71.87339,-0.1607023 74.76909,2.7350004 2.28011,2.2801142 2.43994,8.2541392 0.40274,15.0537112 -3.29431,10.995416 -22.63956,32.56402 -38.29322,42.694257 -9.09914,5.888496 -14.49186,8.267118 -30.17834,13.311064 -4.87968,1.569047 -43.673881,3.795087 -51.366939,2.947472 z M 100,71.455557 c 0,-1.032776 -2.844988,-5.370298 -6.322199,-9.638938 -5.627537,-6.908394 -6.29716,-8.423468 -6.09431,-13.788891 0.157273,-4.159955 2.037262,-9.585188 6.067148,-17.50846 L 99.4899,19.038537 82.744951,18.304647 C 62.369936,17.41166 23.464847,18.015985 21.457416,19.256645 20.655838,19.752049 20,21.887768 20,24.002689 c 0,2.794082 1.949938,5.961999 7.13271,11.587978 3.92299,4.258466 7.853163,9.109597 8.733715,10.780289 0.880552,1.670693 3.970832,3.98584 6.867289,5.144773 2.896457,1.158932 5.266287,2.633951 5.266287,3.277818 0,0.643866 1.95,2.079257 4.333333,3.189757 2.383334,1.110499 7.033334,3.668551 10.333334,5.68456 8.031644,4.906625 13.992723,7.161848 22,8.323143 C 96.07474,73.645517 100,73.508445 100,71.455557 Z m 44.2446,-3.783694 c 3.92343,-2.604226 9.55894,-5.388054 12.52335,-6.186287 2.96441,-0.798232 8.35433,-3.374408 11.97761,-5.724835 8.34746,-5.415009 25.39904,-22.843634 28.72191,-29.356997 4.48371,-8.788795 4.18115,-9.041736 -11.13413,-9.308119 -7.51667,-0.130746 -14.86667,-0.140794 -16.33334,-0.02235 -1.46666,0.118453 -12.26166,0.225434 -23.9889,0.237742 -11.72723,0.01227 -23.18712,0.372235 -25.46643,0.799836 l -4.1442,0.777456 2.15661,4.230074 c 1.18614,2.326541 4.39604,7.162952 7.1331,10.74758 7.15878,9.375561 6.86998,11.001238 -4.57389,25.74703 -3.54729,4.570804 -6.44962,8.811928 -6.44962,9.424722 0,2.113025 7.35397,3.911152 14.88888,3.640496 6.16512,-0.221452 8.86829,-1.142756 14.68905,-5.006352 z m -33.4699,-15.33853 c 1.04058,-2.016666 2.64197,-4.459524 3.55864,-5.428572 2.1566,-2.279841 2.11735,-4.930266 -0.10595,-7.153569 -0.97494,-0.974939 -2.62937,-3.567796 -3.67652,-5.761904 -3.181,-6.66522 -13.997038,-5.811088 -11.015891,0.869913 0.907711,2.034252 0.930621,4.775666 0.06831,8.172907 -1.184723,4.667441 -0.970332,5.453449 2.465701,9.039904 4.66988,4.874299 6.30019,4.923236 8.70571,0.261321 z"
       id="path541" />
  </g>
</svg>
