<?xml version="1.0" encoding="UTF-8" standalone="no"?>
<!-- Created with Inkscape (http://www.inkscape.org/) -->

<svg
   version="1.1"
   id="svg205"
   width="241.33333"
   height="272"
   viewBox="0 0 241.33333 272"
   xmlns="http://www.w3.org/2000/svg"
   xmlns:svg="http://www.w3.org/2000/svg">
  <defs
     id="defs209" />
  <g
     id="g211">
    <path
       style="fill:#000000;stroke-width:1.33333"
       d="m 91.022553,267.88305 c -6.037594,-1.51121 -13.537594,-4.1851 -16.666666,-5.942 -3.129072,-1.75688 -8.070099,-4.4913 -10.98006,-6.07649 -24.798122,-13.50872 -46.706358,-41.5564 -43.813957,-56.09215 1.171618,-5.88794 6.218232,-7.01573 29.001104,-6.48094 27.437461,0.64404 21.913584,0.7599 98.467926,-2.06556 19.05624,-0.70334 22.83798,-0.51503 25.56696,1.27306 2.56551,1.68099 4.03071,1.80986 7.3644,0.64772 4.1933,-1.46178 36.13842,-0.73256 38.75518,0.88468 0.70541,0.43598 1.28256,1.59307 1.28256,2.57134 0,0.97826 0.86689,2.11132 1.92644,2.51789 3.95512,1.51773 3.7808,9.05815 -0.40828,17.65976 -7.38412,15.16212 -35.63524,40.55297 -45.12126,40.55297 -2.61913,0 -5.4751,1.0782 -7.06357,2.66667 -1.46667,1.46667 -4.22599,2.66667 -6.13183,2.66667 -1.90584,0 -5.35584,0.86044 -7.66666,1.91209 -5.84858,2.66165 -22.32622,4.97759 -24.22184,3.40437 -0.95744,-0.79461 -2.05231,-0.71049 -2.99272,0.22992 -2.85609,2.85608 -25.36436,2.65694 -37.297727,-0.33 z m 17.747987,-11.30118 c 0.98694,-5.26083 -1.80405,-11.8957 -7.10387,-16.88764 C 97.416271,235.69073 97.90946,231.95076 104,222 c 2.93333,-4.79249 5.33333,-9.10583 5.33333,-9.58516 0,-0.47935 0.99632,-1.97245 2.21405,-3.31803 1.21773,-1.34557 1.77475,-2.8858 1.23783,-3.4227 -1.72352,-1.72352 -27.833653,-1.06614 -33.285211,0.83804 -3.894256,1.36022 -6.356987,1.45985 -10,0.40454 -8.828417,-2.55741 -23.43766,-4.22596 -28.039413,-3.20242 -6.661557,1.48168 -8.011802,4.46865 -4.774527,10.56208 4.727652,8.8987 18.422936,22.15408 27.711964,26.82182 4.730152,2.37691 9.668651,5.50219 10.974443,6.94507 1.305792,1.44288 3.747152,2.62343 5.425245,2.62343 1.678092,0 3.909746,1.22592 4.95923,2.72426 1.63043,2.32778 15.167469,7.50115 20.515969,7.8405 0.88344,0.056 2.00737,-2.03626 2.49763,-4.64956 z M 138,257.76416 c 3.66666,-0.30769 7.86666,-1.06996 9.33333,-1.69391 1.46667,-0.62396 4.61667,-1.86781 7,-2.76412 2.38333,-0.8963 4.33333,-2.02586 4.33333,-2.51014 0,-0.48427 2.85,-1.64147 6.33334,-2.57158 14.27402,-3.81138 30.07445,-15.37425 43.8807,-32.11221 7.20738,-8.73784 7.46831,-9.54199 3.41404,-10.52168 -7.26361,-1.7552 -80.92061,-2.74243 -82.55654,-1.10651 -1.23629,1.2363 1.74928,7.09778 6.79962,13.34946 7.13443,8.8315 7.70892,10.53906 5.86514,17.43277 -0.89183,3.3344 -2.57039,6.36372 -3.73015,6.73181 -2.89277,0.91814 -11.36212,11.29527 -12.35154,15.13383 -0.70901,2.75068 -0.45311,3.01381 2.1024,2.16181 1.60031,-0.53354 5.90966,-1.22184 9.57633,-1.52953 z m -12.75746,-20.30332 c 1.55123,-2.17851 2.71483,-5.82385 2.66001,-8.33333 -0.11259,-5.15383 -3.87164,-12.28379 -6.77273,-12.84616 -4.60449,-0.89258 -8.22876,16.15874 -4.60883,21.68345 2.8814,4.39756 5.3322,4.25595 8.72155,-0.50396 z m -2.81749,-71.12751 c -3.52441,-2.81778 -4.10249,-7.2573 -5.16505,-39.66666 -0.565,-17.23334 -1.71094,-35.233337 -2.54653,-40.000003 -2.6315,-15.011586 0.43784,-27.562631 6.44837,-26.368415 1.84357,0.366293 2.09896,2.08784 1.69119,11.399932 -0.47701,10.893276 0.64117,13.712021 3.16413,7.976272 1.53864,-3.497984 5.82939,-4.726721 7.46932,-2.13898 2.04569,3.228031 1.24781,8.600441 -2.69862,18.170631 l -3.87881,9.406203 1.19268,19.11051 c 1.21887,19.53015 2.80325,26.44385 6.06003,26.44385 1.01102,0 1.83824,0.57342 1.83824,1.27429 0,1.55135 30.88208,2.05607 62,1.01329 16.22602,-0.54374 16.66666,-0.60569 16.66666,-2.34333 0,-0.764 1.12718,-2.59896 2.50482,-4.07769 3.264,-3.5035 4.1293,-9.25812 4.14717,-27.58014 0.0107,-10.84707 -0.52033,-15.87117 -1.90212,-18 -3.04216,-4.686857 -6.28281,-15.451909 -5.83053,-19.368281 0.31576,-2.734093 1.43592,-3.885744 4.72021,-4.852909 4.07644,-1.200431 4.26381,-1.533339 3.5114,-6.238667 -0.66541,-4.161224 -0.23665,-5.528736 2.63317,-8.398566 3.6203,-3.620298 6.80155,-4.383115 8.28296,-1.986138 2.09092,3.38319 3.42322,32.587507 1.85024,40.558141 -0.94034,4.76497 -1.48092,18.07531 -1.33678,32.91553 0.1933,19.90559 -0.16051,25.69384 -1.75962,28.78617 l -2.00157,3.87062 -26.29075,0.8805 c -43.56893,1.45918 -78.38567,1.1203 -80.77021,-0.78616 z M 3.3542772,157.36723 c -1.2112676,-1.95988 0.5051845,-6.70056 2.4260603,-6.70056 3.069727,0 11.7016745,-6.88358 13.0771145,-10.42839 0.762212,-1.96439 1.610917,-8.1978 1.88601,-13.85202 0.628152,-12.91091 4.924764,-29.980412 8.428355,-33.484003 2.109789,-2.109789 4.983169,-2.79592 13.747725,-3.282797 15.753116,-0.8751 15.747124,-0.869743 15.747124,-14.078199 0,-7.112522 -0.634336,-11.899089 -1.785564,-13.473486 -1.583068,-2.164974 -1.878265,-2.200331 -2.602973,-0.311775 -0.449575,1.171572 -3.206124,3.638061 -6.125667,5.481088 -2.919544,1.843027 -8.375535,6.075132 -12.124425,9.404677 -5.602941,4.976206 -7.263929,5.814086 -9.331801,4.707394 C 22.096632,78.887525 22.306468,74.363797 27.779296,58 28.51508,55.8 29.801868,51.006315 30.638825,47.347367 32.881316,37.543799 34.683045,34.589183 41.333333,29.809676 47.443979,25.418005 48.152214,24.748241 58.669003,13.415652 62.953083,8.7992508 66.361119,6.4926965 70.5742,5.3582317 78.40013,3.2509276 86.580328,4.6098416 91.057048,8.7608912 96.826911,14.111009 95.864172,18.227643 86.13918,29.789523 80.917672,35.997284 80.807495,36.317941 83.275863,38.122856 84.687795,39.155285 86.800997,40 87.971871,40 c 1.170872,0 4.206194,1.732016 6.74516,3.848925 l 4.616301,3.848924 0.666667,14.48441 c 0.671821,14.596338 -0.860102,27.011409 -4.501884,36.484408 -0.986724,2.566663 -1.90897,8.866663 -2.049434,14.000003 -0.284025,10.37986 -2.44387,14.37403 -6.417396,11.8676 C 81.604055,121.11086 82.16921,111.97003 89.39292,86.337145 92.489029,75.350793 92.19428,64 88.812884,64 c -3.010361,0 -7.93444,12.525275 -6.896376,17.542169 2.244994,10.849902 2.29048,15.523316 0.190616,19.584011 C 79.106428,106.92888 76.321552,108 64.235366,108 c -8.378596,0 -11.254161,0.52436 -13.689327,2.49623 -2.932113,2.37428 -3.004468,2.83523 -1.481045,9.43506 2.260553,9.79325 2.129261,33.971 -0.194947,35.89992 -2.433274,2.01943 -44.3429008,3.43375 -45.5157698,1.53602 z m 33.1051438,-10.14676 3.792753,-0.90619 -0.45942,-11.75867 c -0.425749,-10.89685 -2.275363,-16.51745 -4.653076,-14.13973 -1.059308,1.05931 -5.760265,18.22996 -6.769316,24.72551 -0.60596,3.90074 -0.374994,4.3792 1.80059,3.72998 1.372642,-0.40961 4.202454,-1.15252 6.288469,-1.6509 z M 72.087654,98.619755 c 2.832574,-1.515947 3.611741,-8.490782 1.120513,-10.030446 -2.715047,-1.677989 2.456845,-24.930258 6.997899,-31.461802 3.346784,-4.813788 3.090828,-7.564192 -0.87196,-9.36976 -2.562064,-1.167354 -4.59275,-1.102516 -8.78314,0.280437 -5.29285,1.746799 -5.426368,1.936256 -4.613952,6.547001 2.016862,11.446399 3.286178,35.129256 2.01055,37.51279 -0.729437,1.362965 -3.734149,3.1265 -6.677138,3.918964 -2.942989,0.792465 -4.997376,2.012844 -4.565303,2.711953 1.05221,1.702508 12.144488,1.623808 15.382531,-0.109133 z M 45.333333,51.937395 c 0,-1.245439 2.743917,-4.79369 6.097593,-7.885 3.638269,-3.35364 5.806225,-6.379863 5.37518,-7.503147 -1.181753,-3.079603 -2.653888,-2.242475 -8.999263,5.117419 -7.115964,8.253688 -9.140177,11.755337 -9.140177,15.81143 v 2.98674 l 3.333333,-3.131504 c 1.833334,-1.722326 3.333334,-4.1505 3.333334,-5.395938 z M 78.92704,23.083879 C 83.963094,18.259033 84.000079,13.32612 79,13.353169 c -4.89143,0.02647 -14.450308,8.014848 -13.270261,11.090003 1.381803,3.60092 8.819563,2.834848 13.197303,-1.359293 z"
       id="path680" />
  </g>
</svg>
