<?xml version="1.0" encoding="UTF-8" standalone="no"?>
<!-- Created with Inkscape (http://www.inkscape.org/) -->

<svg
   version="1.1"
   id="svg195"
   width="213.33333"
   height="213.33333"
   viewBox="0 0 213.33333 213.33333"
   xmlns="http://www.w3.org/2000/svg"
   xmlns:svg="http://www.w3.org/2000/svg">
  <defs
     id="defs199" />
  <g
     id="g201">
    <path
       style="fill:#000000;stroke-width:1.33333"
       d="M 162.29829,204.32961 C 160.17712,201.98574 152,182.78705 152,180.15073 c 0,-0.77277 -1.56476,-4.87283 -3.47723,-9.11121 -3.35985,-7.44603 -5.12044,-11.55118 -8.3354,-19.43559 -1.88189,-4.61519 -1.97549,-11.16548 -0.17544,-12.27797 3.17317,-1.96114 6.41055,1.29306 10.95647,11.01342 7.18889,15.37175 10.36493,22.81079 10.36493,24.27708 0,0.72171 1.2,4.02826 2.66667,7.34787 9.45853,21.40823 8.97084,19.54101 5.90476,22.60709 -2.72231,2.72232 -4.98919,2.65026 -7.60647,-0.24181 z m 37.48545,-0.68555 C 198.68514,202.73982 196.9816,199.3 195.99809,196 c -0.98349,-3.3 -3.1798,-9 -4.88067,-12.66667 C 182.72173,165.23418 174.97226,143.26834 176.18237,141 c 1.58621,-2.97334 4.16429,-2.97334 6.82804,0 2.73485,3.05272 9.35236,17.41116 13.05824,28.33333 1.61732,4.76667 4.36351,12.48811 6.10263,17.15875 1.73913,4.67064 3.16205,10.14717 3.16205,12.17006 0,4.74742 -2.79073,7.25268 -5.54959,4.98192 z M 7.7205203,195.92565 c -3.7340284,-3.73403 -4.0101428,-4.61649 -3.3056464,-10.56487 0.4227876,-3.56977 1.3523507,-7.58632 2.0656956,-8.92565 0.7133451,-1.33932 1.9782466,-4.28473 2.8108926,-6.54536 2.2985819,-6.24064 15.3235799,-18.89643 21.1139309,-20.51543 2.710366,-0.75782 9.747925,-1.7556 15.639018,-2.21726 9.323344,-0.73066 11.432621,-0.47131 16.280216,2.00176 C 65.387652,150.72148 68.7583,152 69.814956,152 c 2.567387,0 14.404303,13.848 18.152672,21.23681 3.668683,7.23172 5.216477,20.54065 2.578437,22.17105 -1.399188,0.86475 -55.360003,4.11404 -74.981963,4.5151 -2.494092,0.0509 -5.147592,-1.30132 -7.8435817,-3.99731 z M 74.08647,184.54461 c 2.519107,-1.05256 4.580195,-2.17393 4.580195,-2.49196 0,-2.9132 -8.011173,-14.34087 -12.865589,-18.35232 -5.899382,-4.87496 -6.42042,-5.03367 -16.526122,-5.03367 -12.345328,0 -14.771455,0.78584 -22.588157,7.31652 -7.994928,6.67958 -12.21578,18.5115 -7.020131,19.67888 1.283334,0.28835 13.022245,0.58547 26.086471,0.66027 17.873919,0.1024 24.886795,-0.33767 28.333333,-1.77772 z M 37.081426,59.666666 C 35.929219,58.749999 34.613147,56.38999 34.156821,54.422199 33.045146,49.628397 28.29747,48.12641 25.45703,51.669914 c -3.664994,4.57215 -6.957096,5.645678 -10.96205,3.574636 -4.384211,-2.267164 -5.0994933,-4.128869 -3.358487,-8.741321 1.137091,-3.012499 0.798501,-4.195535 -2.2313278,-7.796283 -1.9645076,-2.334684 -3.571832,-4.990847 -3.571832,-5.902583 0,-0.911735 2.0803618,-4.088135 4.6230261,-7.058667 4.0862667,-4.773884 4.4843807,-5.884394 3.4288947,-9.564659 -1.011378,-3.52647 -0.755238,-4.471107 1.673648,-6.172366 3.870934,-2.7113066 4.887154,-2.5592622 8.957282,1.340167 4.746336,4.547278 11.618821,3.429448 13.584594,-2.2095739 1.092164,-3.1329841 2.093069,-3.8059309 5.660735,-3.8059309 3.818256,0 4.583274,0.6346431 6.428973,5.3333338 C 51.496001,15.263061 52.346651,16 55.846768,16 c 2.714334,0 5.41841,-1.326628 8.153231,-4 6.777651,-6.6253633 11.179096,-4.2957887 10.432016,5.521404 -0.375144,4.92968 0.0068,5.90161 2.901317,7.383042 3.977104,2.035506 22.717798,1.300214 43.999998,-1.726341 15.93895,-2.266688 22.33644,-3.978253 25.63549,-6.858444 1.96623,-1.716596 4.00904,-1.79282 14,-0.522391 6.43382,0.818111 12.97463,1.147572 14.53515,0.732138 3.37573,-0.898674 27.7912,5.368744 32.22056,8.270974 2.3684,1.551835 3.0018,3.032528 2.68716,6.281696 -0.3668,3.787685 -1.46141,4.8013 -10.03829,9.295547 -16.6003,8.69848 -40.05726,9.74561 -65.70674,2.933182 -6.47255,-1.719093 -14.58043,-2.34517 -32.02585,-2.472992 -22.560278,-0.165296 -23.495114,-0.06497 -27.333335,2.933432 -2.730343,2.132932 -4.182792,4.636716 -4.640809,8 -0.61765,4.535475 -1.027888,4.925463 -5.579462,5.30404 -3.884608,0.323103 -5.228637,-0.181533 -6.421921,-2.411204 -2.178516,-4.070594 -9.816205,-3.284125 -10.434098,1.07442 -0.256016,1.805905 -1.802855,3.591712 -3.753467,4.333333 -4.279947,1.627234 -4.883196,1.594187 -7.396292,-0.40517 z M 46.09739,31.999069 c 0.08933,-6.113776 -0.159091,-6.665736 -3,-6.665736 -3.136016,0 -4.306173,3.095552 -1.764057,4.666667 2.24632,1.388302 1.483576,4.439281 -1.333334,5.333333 -4.148241,1.3166 -3.139542,3.333434 1.666667,3.332402 4.297915,-9.22e-4 4.334129,-0.05541 4.430724,-6.666666 z m 128.35565,-1.853101 c 0.44489,-2.329906 -0.14115,-2.450274 -7.74256,-1.590272 -9.37656,1.060838 -12.04382,1.868149 -12.04382,3.645367 0,0.697619 4.2616,1.076139 9.65254,0.85735 8.2335,-0.334156 9.72328,-0.762314 10.13384,-2.912445 z"
       id="path819" />
  </g>
</svg>
