<?xml version="1.0" encoding="UTF-8" standalone="no"?>
<!-- Created with Inkscape (http://www.inkscape.org/) -->

<svg
   version="1.1"
   id="svg185"
   width="216"
   height="214.66667"
   viewBox="0 0 216 214.66667"
   xmlns="http://www.w3.org/2000/svg"
   xmlns:svg="http://www.w3.org/2000/svg">
  <defs
     id="defs189" />
  <g
     id="g191">
    <path
       style="fill:#000000;stroke-width:1.33333"
       d="m 48.201488,208.99566 c -4.269831,-2.07343 -3.244216,-7.89588 3.032651,-17.2165 C 53.855363,187.88687 56,184.09027 56,183.34226 c 0,-0.748 -3.6,-5.2024 -8,-9.89867 -4.402667,-4.69911 -8,-9.76851 -8,-11.27368 0,-4.31256 16.799805,-19.71432 24.682711,-22.62868 3.657842,-1.35232 9.461852,-3.60232 12.897797,-5 11.075052,-4.50511 40.007922,-2.55841 52.116502,3.50657 8.63839,4.32683 19.08516,11.20515 24.0965,15.8655 3.59692,3.34498 3.68233,3.6805 1.64817,6.47393 -1.17995,1.62036 -3.48703,4.88868 -5.12685,7.26293 -1.63983,2.37426 -3.63851,4.32426 -4.44151,4.33334 -1.72045,0.0195 -5.87332,4.34997 -5.87332,6.12456 0,0.67728 3,6.32865 6.66667,12.55861 3.66666,6.22996 6.65748,11.92859 6.64625,12.6636 -0.0668,4.37084 -2.0674,4.58861 -48.69997,5.30128 -25.637122,0.3918 -48.11295,0.9762 -49.946283,1.29864 -1.833334,0.32245 -4.742664,-0.0981 -6.465179,-0.93453 z M 134.66667,195.0458 c 0,-3.73952 -12.03576,-15.0458 -16.01655,-15.0458 -1.89757,0 -4.04799,-0.59788 -4.77873,-1.32861 -0.73073,-0.73073 -6.73764,-1.71255 -13.34868,-2.18181 -12.428118,-0.88218 -13.682354,-0.60895 -26.953706,5.87177 -3.724379,1.81871 -10.902337,11.0948 -10.902337,14.08913 0,0.48558 16.2,0.88286 36,0.88286 33.122253,0 36.000003,-0.18286 36.000003,-2.28754 z M 73.023903,169.33334 c 0.915948,-1.46667 3.026932,-2.66667 4.691074,-2.66667 1.664143,0 4.097171,-1.25137 5.40673,-2.78083 2.037965,-2.38017 3.473412,-2.69105 9.962988,-2.15778 13.588885,1.11664 32.248635,6.41254 32.248635,9.15264 0,0.61561 1.2,1.1193 2.66667,1.1193 1.46667,0 2.66667,-0.46749 2.66667,-1.03888 0,-0.57137 2.10588,-3.20698 4.67973,-5.85689 2.77083,-2.85271 4.3718,-5.62049 3.92483,-6.78528 -1.17388,-3.05908 -12.97364,-10.14897 -21.53259,-12.93788 -9.78565,-3.18863 -26.249388,-4.8638 -30.155647,-3.06832 -1.60398,0.73725 -7.116326,2.97271 -12.24966,4.96768 -5.133333,1.99496 -11.9066,5.73223 -15.051702,8.30503 l -5.71837,4.67781 5.051703,5.74277 c 5.678665,6.45551 10.68026,7.6966 13.408939,3.3273 z M 112.82428,39.613459 c -1.21592,-0.889104 -2.69198,-3.415856 -3.28012,-5.615005 -1.47762,-5.52502 -4.71516,-5.134814 -5.54416,0.668213 -0.58893,4.122492 -1.12322,4.666667 -4.581909,4.666667 -3.265647,0 -4.094338,-0.691144 -4.994672,-4.165652 -2.043546,-7.886299 -1.738924,-7.834348 -45.937634,-7.834348 H 8.0476261 L 6.492414,23.579019 C 5.2148025,20.494836 5.3084711,19.453434 7.0171768,17.744728 8.819654,15.942251 14.447749,15.694294 49.202392,15.886166 c 24.758568,0.136688 41.063183,-0.291263 42.60862,-1.118355 1.376859,-0.736873 2.867641,-3.161078 3.312851,-5.3871233 0.685398,-3.4269952 1.421837,-4.0473543 4.804681,-4.0473543 3.370676,0 4.167066,0.6632138 5.094586,4.242641 1.50399,5.8040886 3.44257,6.0086246 5.40896,0.5706866 1.77885,-4.9193333 4.49452,-6.6670431 8.42241,-5.4203773 1.59651,0.5067114 2.4861,2.0598953 2.49925,4.3635667 0.0436,7.6421856 -0.18839,7.5909726 33.59793,7.4162856 17.07657,-0.08829 35.95343,-0.540333 41.94855,-1.004536 8.93249,-0.691644 11.27928,-0.46495 13,1.255768 2.82261,2.822612 2.66056,8.182022 -0.29524,9.763915 -1.35583,0.725619 -12.49244,1.111713 -25.66667,0.889837 -12.79941,-0.215564 -31.82364,-0.07797 -42.27608,0.30575 l -19.00442,0.697684 -1.37419,5.103381 c -1.60539,5.96196 -5.14952,8.515736 -8.45935,6.095524 z"
       id="path958" />
  </g>
</svg>
