<?xml version="1.0" encoding="UTF-8" standalone="no"?>
<!-- Created with Inkscape (http://www.inkscape.org/) -->

<svg
   version="1.1"
   id="svg175"
   width="152"
   height="150.66667"
   viewBox="0 0 152 150.66667"
   xmlns="http://www.w3.org/2000/svg"
   xmlns:svg="http://www.w3.org/2000/svg">
  <defs
     id="defs179" />
  <g
     id="g181">
    <path
       style="fill:#000000;stroke-width:1.33333"
       d="m 124,145.45519 c -1.83333,-0.52011 -26.91334,-0.71175 -55.733349,-0.42584 -36.59283,0.36301 -52.928599,0.0812 -54.152243,-0.9344 -1.108912,-0.92031 -2.093217,-6.46707 -2.680993,-15.10792 C 10.922595,121.4775 9.5818544,111.43334 8.4539916,106.66667 6.2704291,97.438317 3.8246823,56.557613 4.0667195,33.333334 4.221626,18.469542 5.5659332,14.280874 10.604252,12.963323 15.478243,11.688746 17.6014,15.39025 16.598861,23.414297 l -0.883888,7.074404 5.142514,0.422317 L 26,31.333334 25.718393,43.13439 c -0.154884,6.49058 -0.806785,12.490581 -1.44867,13.333334 -2.622886,3.443677 -7.175618,16.98568 -6.394668,19.020802 2.942564,7.668203 6.626057,33.149564 6.723528,46.511474 0.07984,10.94564 -0.831635,10.61995 18.546204,6.62693 10.045101,-2.0699 12.637225,-2.18251 17.333333,-0.75298 10.267357,3.12546 13.79334,3.14165 22.917755,0.10524 9.314754,-3.09975 12.941178,-3.08025 27.380705,0.14722 10.04526,2.24529 11.89323,1.35046 11.87722,-5.75123 -0.0176,-7.82017 2.49454,-30.147771 4.83086,-42.935893 1.70948,-9.356984 1.69361,-11.712607 -0.13926,-20.666667 -1.13777,-5.558273 -2.65593,-13.001727 -3.3737,-16.541006 -0.71777,-3.53928 -1.30503,-7.846423 -1.30503,-9.571429 0,-4.042519 3.25219,-7.272755 6.47395,-6.430246 2.03273,0.531572 2.69874,-0.28895 3.43949,-4.237456 1.47902,-7.883857 3.54677,-11.325816 6.80398,-11.325816 5.12439,0 6.31867,3.133056 6.23463,16.355695 -0.20351,32.018281 -2.68539,67.49896 -6.17736,88.310978 -1.1074,6.6 -2.03473,15.01649 -2.06073,18.70332 -0.0769,10.90236 -3.85018,14.12232 -13.38063,11.41853 z M 65.190593,56.283284 C 62.927696,54.698289 62.523372,53.399593 63.129653,49.663517 64.005899,44.26385 59.309707,33.721885 54.822143,31.014895 53.316101,30.106422 51.220513,27.693547 50.165281,25.652953 47.875612,21.22522 49.563232,16.936003 54.762912,13.967718 72.968807,3.5747163 81.628368,2.8728131 89.877084,11.121529 92.560244,13.804688 95.571363,16 96.56846,16 98.561369,16 100,18.827079 100,22.743383 c 0,1.388906 -2.1,4.436239 -4.666667,6.771854 -2.566666,2.335614 -4.666666,5.07446 -4.666666,6.086324 0,1.011864 -1.287171,3.580745 -2.86038,5.708624 -2.559607,3.462055 -2.678982,4.306801 -1.135267,8.033659 1.456133,3.515419 1.418801,4.471097 -0.239435,6.129333 -2.804058,2.80406 -17.589165,3.367947 -21.240992,0.810107 z M 76,50.666668 c 0,-0.733334 -0.6,-1.333334 -1.333333,-1.333334 -0.733334,0 -1.333334,0.6 -1.333334,1.333334 0,0.733333 0.6,1.333333 1.333334,1.333333 C 75.4,52.000001 76,51.400001 76,50.666668 Z m 2.775716,-12 C 79.449072,38.666668 80,37.883236 80,36.925707 c 0,-0.957529 1.5,-3.774096 3.333333,-6.25904 4.175326,-5.659334 4.166559,-7.322542 -0.06785,-12.874145 -2.835722,-3.717822 -4.268807,-4.459188 -8.619756,-4.459188 -4.064628,0 -5.560611,0.663365 -6.765428,3 -0.850775,1.65 -2.67525,4.242252 -4.054388,5.760558 -2.465442,2.71423 -2.451458,2.813231 0.833285,5.899086 C 66.496636,29.719167 68,31.738246 68,32.479818 c 0,2.413604 5.822469,7.617787 7.71172,6.892814 1.011843,-0.38828 2.390641,-0.705964 3.063996,-0.705964 z"
       id="path1097" />
  </g>
</svg>
