<?xml version="1.0" encoding="UTF-8" standalone="no"?>
<!-- Created with Inkscape (http://www.inkscape.org/) -->

<svg
   version="1.1"
   id="svg303"
   width="218.66667"
   height="212"
   viewBox="0 0 218.66667 212"
   xmlns="http://www.w3.org/2000/svg"
   xmlns:svg="http://www.w3.org/2000/svg">
  <defs
     id="defs307" />
  <g
     id="g309">
    <path
       style="fill:#000000;stroke-width:1.33333"
       d="m 167.55556,204.44444 c -0.48889,-0.48888 -0.88889,-3.64736 -0.88889,-7.01881 0,-8.91002 -7.38865,-27.6129 -13.76611,-34.84612 -1.6587,-1.88127 -7.18988,-6.30511 -12.29152,-9.83076 -5.10164,-3.52566 -10.88989,-7.91438 -12.86277,-9.75271 -5.0581,-4.71313 -7.74627,-3.25555 -7.74627,4.20021 0,3.70888 -0.81448,6.76108 -2.16443,8.11104 -1.99702,1.99702 -2.84783,1.51452 -11,-6.23809 -4.85956,-4.6214 -13.332679,-13.77091 -18.829149,-20.33225 l -9.99358,-11.92971 -0.8863,6.19601 c -1.717869,12.00939 -4.244176,11.95347 -16.791152,-0.37169 -10.011839,-9.83484 -12.952107,-14.28812 -24.82819,-37.604296 -4.007733,-7.868339 -8.422312,-15.968339 -9.810173,-18 C 22.838864,62.843265 16.268836,49.274863 12.287199,39.333333 6.178537,24.080951 5.3803053,21.783561 4.5987237,17.205141 2.8895766,7.1931439 11.234187,5.5527392 34.293518,11.367663 c 11.821828,2.981138 38.747326,13.926178 43.341486,17.618034 0.934081,0.750627 4.787715,2.91531 8.563629,4.810408 3.775915,1.895099 9.683295,5.416243 13.12751,7.824764 3.444217,2.408523 8.556217,5.879131 11.360017,7.712464 8.54151,5.585092 45.53934,42.511116 45.06444,44.976996 -0.5141,2.669536 -7.73768,7.084461 -13.52953,8.269021 -5.99925,1.22698 -5.94083,4.45019 0.22883,12.62184 17.30678,22.92268 38.26757,35.77338 58.90745,36.11517 4.77988,0.0792 9.42988,0.60077 10.33333,1.15913 3.39003,2.09516 1.65076,9.1408 -4.93862,20.006 -11.33118,18.68392 -33.99458,37.16488 -39.1965,31.96295 z m 16.06574,-17.78405 c 5.12182,-3.99766 13.35716,-15.34267 14.32025,-19.7276 1.02517,-4.66755 -0.12707,-5.47822 -14.60821,-10.27776 -11.95372,-3.96187 -14.11862,-4.02635 -16.82919,-0.50123 -3.32379,4.32259 -3.18603,5.37024 2.08801,15.87909 2.52568,5.0326 4.99587,11.30215 5.48928,13.93234 0.77347,4.12292 1.2892,4.6594 3.74119,3.8917 1.56423,-0.48973 4.17363,-1.92818 5.79867,-3.19654 z M 159.70575,150 c 0.25412,-1.81972 -3.34539,-6.53544 -11.33333,-14.84776 -6.43816,-6.69961 -13.20575,-14.67549 -15.03908,-17.72419 C 129.35841,110.81804 110.67994,82.611619 105.89943,76 100.207,68.127181 76.262517,44.204233 71.728074,41.859381 c -4.870181,-2.518469 -4.17823,-3.05579 -12.158446,9.441424 -2.329962,3.648776 -7.386294,8.983087 -11.236294,11.854026 -3.85,2.870937 -6.99252,5.885574 -6.983379,6.699194 0.03154,2.806676 21.36187,23.479308 24.226303,23.479308 0.77277,0 3.384002,1.65 5.802736,3.666667 4.962382,4.13748 12.625945,8.99792 27.263062,17.29097 16.963654,9.6112 24.088694,14.1738 30.257454,19.3757 3.26114,2.75 6.39285,5 6.95936,5 0.56652,0 3.22548,2.19545 5.90881,4.87878 9.49014,9.49014 17.13022,12.23923 17.93807,6.45455 z m -49.03908,-14.41592 c 0,-2.98977 -4.5985,-7.41334 -9.66667,-9.29894 -3.534643,-1.31506 -2.829188,0.65557 2.43723,6.80819 5.40486,6.31436 7.22944,6.94299 7.22944,2.49075 z M 66.666668,112.02899 c 0,-3.13911 -14.937421,-18.550062 -15.716027,-16.214242 -0.803748,2.411241 11.956885,18.851922 14.632148,18.851922 0.596133,0 1.083879,-1.18696 1.083879,-2.63768 z M 139.73116,92.162305 c 0.35246,-1.070452 -6.42321,-8.724681 -16.22901,-18.333333 -15.06043,-14.757644 -20.83548,-18.993639 -20.83548,-15.282812 0,1.378228 15.25137,22.413175 21.32255,29.408413 2.20593,2.541682 4.01078,5.12618 4.01078,5.743331 0,1.902927 11.07638,0.453037 11.73116,-1.535599 z M 43.412902,55 c 7.186608,-6.639859 13.920432,-16.689585 13.920432,-20.775199 0,-2.327153 -1.318161,-4.072466 -4.488511,-5.943018 -7.665008,-4.522466 -20.403068,-8.409144 -28.462877,-8.684686 -7.260599,-0.24822 -7.742459,-0.07116 -8.176484,3.004374 -0.253664,1.797474 1.326378,7.197474 3.511204,12 2.184824,4.802524 4.989154,11.131862 6.231842,14.065196 C 31.455364,61.665449 34.861625,62.900705 43.412902,55 Z"
       id="path812" />
  </g>
</svg>
