<?xml version="1.0" encoding="UTF-8" standalone="no"?>
<!-- Created with Inkscape (http://www.inkscape.org/) -->

<svg
   version="1.1"
   id="svg165"
   width="69.333336"
   height="214.66667"
   viewBox="0 0 69.333336 214.66667"
   xmlns="http://www.w3.org/2000/svg"
   xmlns:svg="http://www.w3.org/2000/svg">
  <defs
     id="defs169" />
  <g
     id="g171">
    <path
       style="fill:#000000;stroke-width:1.33333"
       d="m 54.034598,208.34539 c -1.885953,-2.02329 -4.6597,-6.07872 -6.163881,-9.01205 C 44.319467,192.40798 40.45799,185.95511 34.585601,177.13275 31.974348,173.20974 29.437054,169.1 28.94717,168 27.813232,165.45382 23.133216,158.06036 18.000001,150.70572 6.6108648,134.38791 6.5203635,133.43132 16.333334,133.08948 c 3.85,-0.13411 8.65,-0.13184 10.666667,0.005 5.209142,0.35364 4.575788,-1.36833 -2.666667,-7.25017 C 12.144602,115.94551 7.9725572,108.41811 7.7091576,95.850267 7.470012,84.439677 9.6758246,79.226355 16.137753,75.929725 c 10.455739,-5.33412 19.857692,-2.389741 21.888095,6.854624 1.276043,5.809783 -2.765131,13.226486 -7.177768,13.173248 -5.1413,-0.06203 -8.181412,-2.94973 -8.181412,-7.771253 0,-4.435268 -1.11321,-5.206467 -3.733334,-2.586343 -1.857032,1.857032 -2.042473,10.221194 -0.384836,17.357599 2.235831,9.62562 21.38827,27.70907 29.347068,27.70907 2.043547,0 2.267585,-1.34675 1.940807,-11.66667 C 49.63319,112.58334 49.413909,93.773607 49.349081,77.200607 L 49.231214,47.067878 29.169242,47.525109 C 18.135154,47.776586 8.6065034,48.291827 7.9944596,48.670091 6.3158074,49.707555 2.6666668,45.501765 2.6666668,42.529583 c 0,-1.437301 0.9840908,-2.990906 2.1868685,-3.452456 C 6.0563129,38.615578 16.106314,38.18441 27.186869,38.118974 L 47.333335,38.000001 47.73489,31.785032 48.136443,25.570064 26.684585,25.118366 C 9.4250378,24.754942 4.9834843,24.27581 3.9573698,22.666667 3.0309445,21.213856 3.4499136,20.028279 5.488719,18.333334 7.8749104,16.349591 11.165845,16 27.453948,16 h 19.158523 l 2.720864,-5.333333 c 2.857698,-5.6015496 3.962122,-6.1610073 7.949621,-4.0269632 3.520426,1.8840759 4.296673,21.3609442 4.545096,114.0414562 0.113986,42.52536 0.64663,78.00722 1.183653,78.84856 1.565807,2.45314 -0.47794,9.78092 -3.122705,11.19636 -1.906284,1.0202 -3.159311,0.51067 -5.854402,-2.38069 z M 49.567506,161 c 0.315437,-11.10177 -0.0064,-18.05842 -0.866101,-18.72092 -1.553877,-1.19745 -20.079719,-0.67854 -21.356447,0.59819 -1.127182,1.12719 2.857774,10.43725 5.894439,13.7712 1.345,1.47668 3.866404,5.38487 5.603119,8.68487 3.622568,6.88338 8.09059,13.23017 9.356921,13.29144 0.476356,0.0231 1.091988,-7.90811 1.368069,-17.62478 z"
       id="path1236" />
  </g>
</svg>
