<?xml version="1.0" encoding="UTF-8" standalone="no"?>
<!-- Created with Inkscape (http://www.inkscape.org/) -->

<svg
   version="1.1"
   id="svg75"
   width="204"
   height="212"
   viewBox="0 0 204 212"
   xmlns="http://www.w3.org/2000/svg"
   xmlns:svg="http://www.w3.org/2000/svg">
  <defs
     id="defs79" />
  <g
     id="g81">
    <path
       style="fill:#000000;stroke-width:1.33333"
       d="m 32.207663,202.86983 c -1.719119,-1.32232 -4.719119,-5.31812 -6.666667,-8.87958 -1.947548,-3.56144 -4.140996,-6.66392 -4.874329,-6.8944 -0.733334,-0.23046 -3.133334,3.02868 -5.333334,7.24256 -4.380914,8.39119 -6.0344953,10.16043 -7.8238547,8.37107 C 4.7460016,199.946 6.2058087,191.12748 11.103237,181 c 6.683403,-13.82072 9.075032,-13.98028 17.369207,-1.1588 3.264236,5.04599 6.610068,9.59176 7.435181,10.10171 1.924042,1.18912 5.67051,-3.3983 10.09284,-12.35832 2.802612,-5.67834 4.064886,-6.99975 6.368342,-6.66667 2.754936,0.39836 4.320005,2.33843 11.565897,14.33711 1.797421,2.9764 3.897421,5.40942 4.666667,5.4067 0.769246,-0.003 3.443085,-3.95861 5.941864,-8.79089 5.824585,-11.26389 9.303001,-13.12781 14.75365,-7.90576 2.152382,2.06211 4.917663,5.91356 6.14507,8.55877 1.227406,2.64522 3.159822,5.87246 4.294258,7.17166 1.922187,2.20134 2.458337,1.6794 7.875267,-7.66667 7.09419,-12.23992 9.73835,-12.93437 16.60942,-4.36217 2.49817,3.11666 5.58428,7.31666 6.85802,9.33333 1.27374,2.01667 2.82271,3.66667 3.44215,3.66667 0.61944,0 3.7556,-4.49699 6.96925,-9.99331 4.47292,-7.65005 6.53413,-9.99488 8.79044,-10 1.62109,-0.004 3.57955,0.74331 4.35212,1.65997 1.98953,2.3606 7.02487,10.33671 9.25909,14.66667 2.56247,4.96608 4.50399,4.61123 7.295,-1.33333 4.57859,-9.7519 7.92888,-13.6479 11.74454,-13.65756 3.07285,-0.008 4.58152,1.58877 10.33333,10.93514 3.70435,6.01935 6.73516,11.97028 6.73516,13.2243 0,4.22392 -1.60121,6.49812 -4.57519,6.49812 -2.31429,0 -3.75884,-1.73784 -6.64988,-8 -2.03133,-4.4 -4.38669,-7.98774 -5.23413,-7.97274 -0.84744,0.0149 -3.62371,3.40504 -6.16948,7.53343 -5.45929,8.85317 -7.53003,11.10597 -10.20839,11.10597 -2.82613,0 -9.52118,-7.6857 -12.48582,-14.33333 -1.38994,-3.11667 -3.01658,-5.66667 -3.61474,-5.66667 -1.33085,0 -3.92552,3.9992 -7.93376,12.22843 -4.66376,9.57505 -10.4975,9.86389 -16.27921,0.80603 -1.5334,-2.40228 -3.55181,-5.56779 -4.48536,-7.03446 -3.24079,-5.09146 -5.97375,-5.96508 -7.29951,-2.33333 -0.46848,1.28333 -1.94964,3.76425 -3.29149,5.51315 -1.34184,1.74889 -2.43971,4.27778 -2.43971,5.61974 0,2.86655 -3.79883,5.20044 -8.46464,5.20044 -2.557401,0 -4.274906,-1.58608 -7.580033,-7 -4.008065,-6.56536 -9.081109,-12.51828 -9.77246,-11.4674 -0.169121,0.25707 -2.190254,4.0674 -4.491408,8.4674 -4.787122,9.15339 -6.630396,10.72272 -11.23658,9.56664 -2.989606,-0.75034 -10.256913,-10.02472 -12.561748,-16.03101 -0.957142,-2.49428 -4.559794,-3.01691 -4.559794,-0.66148 0,0.84744 -1.499263,3.50644 -3.331694,5.90888 -1.832432,2.40245 -3.917581,5.90908 -4.633665,7.79253 -1.560887,4.10544 -5.890131,4.50188 -10.493645,0.96094 z M 140,95.421791 c -4.03333,-0.914591 -9.13333,-2.610058 -11.33333,-3.767702 -6.12204,-3.221428 -14.8976,-12.322141 -19.32371,-20.039693 -3.56887,-6.222836 -3.98388,-8.130197 -3.97771,-18.281063 0.007,-10.900385 1.6638,-18.3431 5.9144,-26.562856 2.97216,-5.747525 13.39248,-14.507243 21.69815,-18.2402839 7.01121,-3.1512451 8.74647,-3.3897662 19.68887,-2.7063579 14.47373,0.9039585 19.4732,2.585032 27.66464,9.3022638 9.87273,8.095941 13.60045,14.820217 15.57558,28.096196 1.4979,10.068161 1.44494,12.121784 -0.43365,16.816842 -1.17695,2.941488 -2.13991,6.353768 -2.13991,7.582844 0,2.798332 -6.28082,12.167392 -10.53257,15.711352 C 168.59068,95.177865 155.37941,98.9092 140,95.421791 Z m 26.38865,-13.922887 c 18.0119,-9.263709 24.60675,-29.120257 15.90915,-47.901051 -2.35545,-5.086152 -9.50387,-12.26452 -12.21335,-12.26452 -0.54845,0 -2.52273,-1.2 -4.38729,-2.666666 C 163.05359,16.587236 160.28812,16 153.13899,16 c -12.06575,0 -19.1459,3.378137 -28.31428,13.509535 -5.58979,6.176909 -7.58403,9.628236 -9.36491,16.207354 l -2.26273,8.359194 4.17924,8.930824 c 4.17166,8.914646 12.71223,17.816614 20.11662,20.967873 5.40878,2.30194 22.44402,0.842308 28.89572,-2.475876 z M 13.733217,89.683948 C 9.4052403,89.299509 7.9065316,88.521696 7.1357168,86.259921 6.5871557,84.650297 6.2768555,82.824392 6.4461604,82.202352 c 0.1693051,-0.62204 1.5650412,-6.02204 3.101636,-12 C 11.937883,60.903972 13.219018,58.424085 18.413408,53.041225 28.865192,42.210216 44.669525,37.280431 58,40.693131 c 5.207885,1.333257 19.867907,8.62528 20.456092,10.175038 0.250851,0.660944 3.019195,4.204468 6.151876,7.874499 4.268616,5.000812 6.237024,8.866039 7.855856,15.426003 2.292355,9.289258 1.639679,12.709037 -2.760117,14.462001 -2.521968,1.004801 -66.526258,1.892175 -75.97049,1.053276 z M 56,79.423079 c 24.570791,-0.0894 24.668331,-0.101467 25.094701,-3.104754 0.468276,-3.29846 -5.156917,-13.365946 -10.428034,-18.663204 -11.31058,-11.366668 -30.90523,-10.790729 -44.341931,1.303326 -5.784683,5.206654 -6.414539,6.37043 -7.168276,13.244714 -0.923388,8.421554 0.266399,9.596927 8.176873,8.077815 2.2,-0.422483 15.1,-0.808537 28.666667,-0.857897 z"
       id="path1375" />
  </g>
</svg>
