<?xml version="1.0" encoding="UTF-8" standalone="no"?>
<!-- Created with Inkscape (http://www.inkscape.org/) -->

<svg
   version="1.1"
   id="svg225"
   width="278.66666"
   height="221.33333"
   viewBox="0 0 278.66666 221.33333"
   xmlns="http://www.w3.org/2000/svg"
   xmlns:svg="http://www.w3.org/2000/svg">
  <defs
     id="defs229" />
  <g
     id="g231">
    <path
       style="fill:#000000;stroke-width:1.33333"
       d="m 8.2900274,214.70406 c -3.7353992,-2.31938 -4.169303,-3.10494 -2.9615138,-5.36173 2.015778,-3.76651 6.6126014,-4.51593 19.7883554,-3.22608 19.163673,1.87604 24.395212,1.30743 27.852703,-3.02735 1.633264,-2.04766 3.653612,-5.53036 4.48966,-7.7393 0.836047,-2.20895 2.453769,-6.11627 3.594937,-8.68294 1.141168,-2.56666 2.591667,-7.06666 3.223332,-10 C 68.563632,156.76268 69.682412,150.26609 70.247466,142 70.86549,132.95903 70.723792,132.41606 65.723984,124.66666 47.305706,96.119457 44.122724,82.253319 51.999999,64.880363 c 2.607724,-5.751213 4,-10.981638 4,-15.026985 0,-5.387973 -0.627087,-6.796592 -4.761603,-10.695943 -6.126693,-5.778214 -13.728869,-6.205939 -20.57173,-1.157436 -8.317092,6.136156 -14.993737,2.475199 -9.837541,-5.39415 2.544041,-3.882699 5.762169,-5.406271 15.788246,-7.474697 3.693779,-0.762043 8.815961,-2.759682 11.382628,-4.439196 6.480444,-4.24052 13.878673,-5.002748 26.748918,-2.755902 7.245008,1.26481 11.829968,1.49117 13.381792,0.660658 4.594389,-2.458843 13.202621,-1.143147 13.202621,2.017909 0,0.914459 -1.553086,3.33846 -3.451303,5.386671 -2.653163,2.862809 -3.242559,4.526638 -2.548649,7.194696 2.01999,7.766802 2.226084,15.872505 0.619989,24.384475 -1.937433,10.268011 -1.375772,11.602753 6.624103,15.741641 7.13914,3.693576 19.49703,15.319788 26.80358,25.216623 11.31631,15.328113 13.2794,17.918903 20.80792,27.461273 4.04997,5.13333 7.78648,10.40761 8.30336,11.72061 2.18591,5.5528 32.2592,41.31769 38.6678,45.98597 8.1702,5.95148 3.59463,14.75591 -4.96369,9.55128 -2.3435,-1.42516 -4.58683,-2.5912 -4.98519,-2.5912 -1.39525,0 1.18824,6.0499 4.89463,11.46198 2.05732,3.00409 4.13789,7.04506 4.62352,8.97996 0.72577,2.8917 0.32406,3.72753 -2.25655,4.69512 -4.39148,1.64654 -34.01356,-0.83107 -38.65936,-3.2335 -2.06777,-1.06929 -5.72172,-4.64737 -8.11988,-7.95128 -2.39815,-3.30392 -6.01028,-8.17728 -8.02695,-10.8297 C 137.65,191.13681 136,188.47924 136,187.8835 c 0,-1.84037 -8.11504,-13.21684 -9.4278,-13.21684 -0.68138,0 -1.23887,2.73944 -1.23887,6.08766 0,7.14837 -1.84567,11.24568 -5.06573,11.24568 -1.26789,0 -5.59678,-1.20486 -9.61976,-2.67746 -10.11337,-3.70196 -10.849272,-3.15874 -10.37585,7.65915 l 0.39467,9.01831 8,-0.1268 c 4.4,-0.0697 9.5,-0.21258 11.33334,-0.31735 8.85292,-0.50597 15.00933,0.61884 16.80145,3.06971 2.30748,3.15566 2.36969,5.33696 0.19855,6.96234 -0.96476,0.72224 -27.49704,1.37112 -63.000002,1.54074 -59.661602,0.28501 -61.452623,0.21893 -65.7099706,-2.42454 z M 87.841711,200.7429 c 2.144254,-8.5156 1.861728,-11.91277 -1.32796,-15.9678 -2.268412,-2.88381 -3.737968,-3.5054 -7.517721,-3.17981 -4.421228,0.38085 -4.836577,0.83693 -7.046884,7.73804 -1.291809,4.03333 -3.305138,9.13333 -4.474065,11.33333 -1.168927,2.2 -2.129017,4.45 -2.133535,5 -0.0045,0.55 4.720556,1 10.500166,1 H 86.350091 Z M 179.60132,203 c -6.3813,-20.98024 -12.16734,-28.1528 -30.19222,-37.42727 -4.7324,-2.435 -10.4968,-6.035 -12.80976,-8 -3.53406,-3.0024 -10.33049,-7.44163 -14.26601,-9.31813 -2.91982,-1.39223 -0.35628,3.35808 3.74383,6.93742 5.00002,4.36496 7.50712,8.16414 16.81085,25.47464 5.62541,10.46662 14.98056,21.20356 20.38093,23.39127 1.50208,0.60851 5.95103,1.1444 9.88656,1.19088 6.2165,0.0735 7.06238,-0.22168 6.44582,-2.24881 z M 113.8218,173 c -1.07373,-6.94274 -4.94576,-19.43834 -7.63461,-24.63802 -2.7858,-5.38713 -0.98302,-8.12305 3.88962,-5.90292 1.98062,0.90243 3.92359,1.31831 4.31771,0.92419 0.89221,-0.8922 1.72394,-0.24403 -11.72786,-9.13975 C 79.150674,118.69227 64.014033,101.06506 63.590281,88.737505 63.299456,80.27696 67.515473,73.20958 74.943062,69.70665 c 3.452019,-1.62801 7.223736,-4.405836 8.381592,-6.172948 3.560223,-5.433588 4.956256,-18.222484 2.876333,-26.349768 -1.611749,-6.297897 -2.29676,-7.211988 -6.153529,-8.211377 -3.930064,-1.018383 -7.906637,0.02057 -4.714126,1.231657 6.981553,2.64846 5.589869,7.869156 -2.68786,10.083112 l -5.821274,1.556952 -0.936109,8.744528 c -0.51486,4.809489 -2.050305,11.344269 -3.4121,14.521733 -1.800194,4.200377 -2.47599,9.047725 -2.47599,17.759766 0,11.133111 0.283561,12.394703 3.999999,17.796365 2.2,3.19759 4.002243,6.30569 4.004984,6.9069 0.0027,0.6012 1.34518,3.19309 2.983196,5.75976 12.304779,19.2808 23.678486,42.64124 23.678486,48.63321 0,1.76518 0.553839,3.5517 1.230751,3.97006 0.676913,0.41836 1.624423,2.55302 2.105577,4.7437 1.126994,5.13116 5.289388,7.98636 11.642768,7.98636 h 5.05242 z m -27.905962,-0.86383 c 0.642989,-1.04037 -2.860148,-14.37903 -4.227713,-16.09756 -1.201924,-1.51039 -2.982347,3.76681 -3.001043,8.89513 -0.01437,3.94238 0.670383,6.00278 2.312916,6.95946 2.925821,1.70413 3.980572,1.75626 4.91584,0.24297 z M 160,158.30378 c 0,-0.9329 -1.6862,-3.7829 -3.74712,-6.33333 -2.06091,-2.55041 -5.19767,-7.02921 -6.97056,-9.95288 -7.01094,-11.56168 -32.3623,-44.367095 -41.94899,-54.283241 -4.5981,-4.756116 -15.774532,-10.371186 -20.666665,-10.382987 -5.11626,-0.0124 -12.001295,4.750306 -11.992564,8.295726 0.02061,8.369059 2.703773,12.640636 14.998894,23.878132 6.779852,6.19664 14.427005,12.72073 16.993665,14.49798 2.56667,1.77724 7.74339,5.64908 11.50383,8.60408 3.76044,2.955 9.96861,7.17274 13.79593,9.37274 3.82732,2.2 8.7436,5.43952 10.92506,7.19892 5.58108,4.5013 14.91816,10.74793 16.10852,10.77681 0.55,0.0133 1,-0.73903 1,-1.67195 z M 64.999998,30.741917 c 4.07126,-3.396377 3.793619,-4.075251 -1.666666,-4.075251 -3.636364,0 -4.666667,0.539683 -4.666667,2.444444 0,4.726437 2.004018,5.242464 6.333333,1.630807 z M 245.99999,82.872836 c -13.71494,-3.006279 -20.19357,-6.471844 -27.69405,-14.814181 -7.31756,-8.138896 -10.3103,-16.269284 -10.29292,-27.962841 0.0224,-15.076824 7.22721,-26.715164 20.30836,-32.80526 12.48008,-5.8102672 24.90144,-3.5376166 33.18007,6.070731 9.01117,10.458557 10.45036,23.561677 3.70622,33.743454 -2.43625,3.678071 -5.13393,6.228594 -6.58797,6.228594 -1.35428,0 -2.83315,0.6 -3.28637,1.333333 -1.10062,1.780828 -9.89628,1.695573 -15.18235,-0.147159 -4.77953,-1.666154 -9.48753,-9.34768 -9.47933,-15.46639 0.012,-8.831097 9.66408,-16.856551 17.11986,-14.234487 2.76106,0.971008 3.54182,2.120274 3.54182,5.213479 0,3.518858 -0.52811,4.043334 -4.66667,4.634557 -3.99091,0.570131 -4.73149,1.236365 -5.11439,4.600915 -0.54218,4.764397 2.48307,7.399085 8.49591,7.399085 6.32345,0 8.61848,-3.437903 8.61848,-12.910291 0,-9.513162 -3.15836,-13.990746 -11.50305,-16.307758 -9.7311,-2.701967 -15.8441,-1.896344 -20.43331,2.692875 -11.76185,11.761854 -12.05719,29.148217 -0.71536,42.113628 7.87896,9.006834 15.38424,11.620592 32.5416,11.332806 7.52627,-0.12624 13.26835,0.380125 14.33333,1.263989 2.27199,1.885588 2.28328,5.73455 0.0223,7.610988 -3.19361,2.65046 -15.81369,2.842693 -26.91219,0.409933 z"
       id="path253" />
  </g>
</svg>
