<?xml version="1.0" encoding="UTF-8" standalone="no"?>
<!-- Created with Inkscape (http://www.inkscape.org/) -->

<svg
   version="1.1"
   id="svg215"
   width="212"
   height="148"
   viewBox="0 0 212 148"
   xmlns="http://www.w3.org/2000/svg"
   xmlns:svg="http://www.w3.org/2000/svg">
  <defs
     id="defs219" />
  <g
     id="g221">
    <path
       style="fill:#000000;stroke-width:1.33333"
       d="m 71.423731,139.33333 c -2.308695,-3.02685 -4.673427,-4.66666 -6.729682,-4.66666 -3.544964,0 -6.75952,-2.67199 -8.029888,-6.67456 -0.588654,-1.85469 -2.018717,-2.65878 -4.728609,-2.65878 -3.030816,0 -4.068483,-0.73206 -4.720612,-3.33035 -1.268387,-5.05366 0.207439,-7.33631 4.743213,-7.33631 4.643066,0 5.356284,-2.53767 1.40649,-5.00435 -1.449446,-0.9052 -3.86164,-4.04953 -5.360432,-6.9874 -2.398558,-4.70156 -3.285999,-5.341587 -7.40649,-5.341587 -2.816925,0 -4.971156,-0.755054 -5.408905,-1.895812 C 34.103668,92.609671 37.065877,88 39.968223,88 41.365808,88 42.823828,87.491063 43.208267,86.869028 44.510629,84.761761 34.878411,68.708841 27.657588,60.952485 23.707729,56.709687 19.018921,50.822141 17.238013,47.869053 15.457107,44.915965 12.625354,40.374383 10.945232,37.776649 3.0108188,25.5088 3.6052527,16.312555 12.631986,11.681563 22.657821,6.5380017 31.184787,11.800477 35.880588,26.029597 37.327276,30.413319 39.688997,37.3 41.12886,41.333333 c 1.439861,4.033334 3.627605,10.933334 4.861652,15.333334 5.294973,18.87925 10.753785,26.945342 20.387169,30.124646 6.478335,2.138043 13.410876,0.222084 34.288989,-9.476513 4.4,-2.043949 10.7,-4.619363 14,-5.723139 3.3,-1.103776 8.4,-2.937108 11.33333,-4.074073 2.93333,-1.136964 7.13333,-2.102275 9.33333,-2.145135 4.4372,-0.08644 15.04867,-3.476346 17.65616,-5.64037 0.92244,-0.765564 1.67718,-4.018468 1.67718,-7.228676 0,-3.958227 0.56888,-5.83674 1.76758,-5.83674 2.82154,0 6.88958,-5.291882 11.73299,-15.262734 5.83455,-12.011261 17.42167,-24.1641079 24.26293,-25.4475382 6.03056,-1.1313387 10.41564,1.3715423 12.89655,7.3609792 3.85936,9.317305 -3.85124,32.566289 -15.56484,46.931063 -2.80236,3.43664 -6.59443,8.731902 -8.42681,11.767246 -5.88422,9.747246 -27.28606,26.877518 -37.46544,29.987757 -1.76163,0.53825 -4.10296,1.76026 -5.20296,2.71557 -1.1,0.95532 -5.3,3.02529 -9.33334,4.59994 -4.03333,1.57466 -8.83333,3.86334 -10.66666,5.08596 -1.83334,1.22262 -6.33334,2.90797 -10,3.74522 -3.66667,0.83725 -9.96667,2.8559 -14.000003,4.48589 -4.033334,1.62999 -8.73262,3.28307 -10.44286,3.67351 -4.144915,0.94626 -4.98598,3.66199 -2.370408,7.65386 3.045464,4.64796 2.667938,7.23773 -1.273532,8.73628 -4.940678,1.87844 -5.239568,1.76856 -9.156136,-3.36634 z m 19.531033,-26.53207 c 2.408213,-1.02598 6.865315,-2.88858 9.904666,-4.13912 6.74138,-2.77372 19.38333,-11.390415 20.16885,-13.746987 0.89724,-2.691725 -26.118835,-0.212365 -46.361613,4.254767 -6.841338,1.50973 -7.333334,1.87903 -7.333334,5.50441 0,8.00366 13.228167,12.55479 23.621431,8.12693 z M 185.188,42.695943 C 192.63947,28.212193 194.92935,20 191.51649,20 c -1.3809,0 -5.3016,6.355444 -11.30989,18.333333 -5.05795,10.083334 -10.4736,20.601583 -12.03477,23.373888 -4.21552,7.485862 -3.5339,7.544142 3.79592,0.324554 4.26286,-4.198778 8.98857,-11.110551 13.22025,-19.335832 z M 26.666667,37.201505 c 0,-2.432284 -4.218819,-10.534838 -5.485255,-10.534838 -1.744637,0 -1.450487,2.011941 1.065537,7.288097 2.182394,4.576527 4.419718,6.220073 4.419718,3.246741 z"
       id="path392" />
  </g>
</svg>
