<?xml version="1.0" encoding="UTF-8" standalone="no"?>
<!-- Created with Inkscape (http://www.inkscape.org/) -->

<svg
   version="1.1"
   id="svg205"
   width="210.66667"
   height="141.33333"
   viewBox="0 0 210.66667 141.33333"
   xmlns="http://www.w3.org/2000/svg"
   xmlns:svg="http://www.w3.org/2000/svg">
  <defs
     id="defs209" />
  <g
     id="g211">
    <path
       style="fill:#000000;stroke-width:1.33333"
       d="m 66.413293,131.50285 c -2.218027,-3.02657 -4.979519,-7.45285 -6.136649,-9.83619 -3.229164,-6.65108 -6.036298,-5.52695 -10.728605,4.29632 -3.198444,6.69589 -4.935814,8.83387 -7.753248,9.54099 -2.863205,0.71863 -4.071365,0.28347 -5.712946,-2.05771 -1.145015,-1.63298 -3.630615,-4.87643 -5.523558,-7.20766 -1.892943,-2.33123 -3.824112,-5.2886 -4.291488,-6.57194 -1.611067,-4.42372 -4.279596,-2.25328 -8.63888,7.02641 C 15.223274,131.81188 12.44674,136 11.457845,136 c -2.836399,0 -5.1707492,-3.69888 -4.4128418,-6.99234 1.0529364,-4.5755 10.3926998,-25.43113 12.3054728,-27.47803 2.958054,-3.165498 6.65606,-0.44468 13.393307,9.85415 6.378394,9.75028 9.199712,11.57387 11.267523,7.28288 0.530087,-1.1 2.537877,-5.45 4.461757,-9.66666 2.816908,-6.17397 4.10955,-7.66667 6.639134,-7.66667 3.407269,0 5.538659,2.10894 9.432688,9.33333 5.398435,10.01544 8.622373,11.62517 11.349123,5.66667 4.654395,-10.1708 6.354045,-12.91307 9.11984,-14.71425 2.827728,-1.841522 3.293113,-1.666621 7.536043,2.83219 2.487208,2.63721 5.630976,7.06453 6.986153,9.8385 1.355176,2.77396 3.200926,5.04356 4.101656,5.04356 1.53667,0 11.02897,-13.40475 11.02897,-15.57479 0,-0.54893 1.17209,-1.62534 2.60465,-2.39202 2.13319,-1.14165 3.47476,-0.62998 7.41188,2.82685 2.64398,2.32145 6.05249,6.67762 7.57447,9.68039 1.52197,3.00276 3.41651,5.87525 4.21007,6.3833 1.72194,1.10242 4.8656,-1.22434 4.8656,-3.60125 0,-0.92638 0.75,-3.11136 1.66666,-4.8555 7.84204,-14.921098 12.4436,-15.410606 20.057,-2.13365 2.83848,4.95 5.94915,9 6.9126,9 0.96346,0 3.58575,-3.80273 5.82734,-8.45051 5.05825,-10.487964 7.18501,-12.425342 11.83254,-10.778859 2.50954,0.889059 5.19507,4.472129 9.70136,12.943739 3.42718,6.4429 6.92976,12.4129 7.78354,13.26667 2.69353,2.69354 1.8169,7.62223 -1.6355,9.19526 -4.8416,2.20597 -7.55318,-0.0967 -12.94552,-10.99339 -5.43196,-10.97677 -4.2176,-11.28345 -12.37766,3.1259 -6.44635,11.38322 -11.50202,10.70207 -17.6982,-2.38447 -4.98266,-10.52351 -6.43142,-11.25012 -10.08692,-5.05898 -1.66746,2.82405 -3.93296,6.92249 -5.03448,9.10762 -1.10152,2.18514 -3.61176,4.86525 -5.57831,5.95578 -3.24155,1.79758 -3.82335,1.75854 -6.22831,-0.41792 -1.45902,-1.32039 -4.35002,-5.64906 -6.42445,-9.61927 -5.30566,-10.15439 -7.47001,-9.60345 -14.44299,3.67652 -3.33648,6.35427 -7.07838,8.78574 -10.53654,6.84655 -2.09291,-1.1736 -7.53696,-8.78643 -10.811192,-15.1181 C 90.187108,117.78344 88.739121,116 88.096559,116 c -0.642563,0 -3.462074,4.45584 -6.265579,9.90187 -6.469028,12.56661 -9.504724,13.66942 -15.417687,5.60098 z M 71.175409,55.369991 C 68.590078,51.678803 68.884282,43.457075 71.810801,37.613548 73.173408,34.892763 74.668857,31.166666 75.134023,29.333333 76.23446,24.99623 87.335736,13.728732 95.401888,8.7619918 100.99488,5.3181017 103.01712,4.8472047 112.53827,4.7716239 c 12.26889,-0.097393 16.77525,1.7616469 34.87321,14.3864921 4.19354,2.925343 11.278,17.307028 12.14926,24.66336 0.7245,6.117384 0.52169,6.730073 -2.99152,9.037073 -4.41423,2.898667 -19.28778,4.104892 -58.39381,4.73566 -23.777054,0.383516 -25.259036,0.261434 -27.000001,-2.224218 z M 141.58636,43.864586 c 3.17951,-1.70162 3.06603,-5.527547 -0.25302,-8.531254 -1.46667,-1.327314 -2.66667,-3.108053 -2.66667,-3.957194 0,-2.351413 -6.62874,-8.05676 -13.33333,-11.47598 -16.70308,-8.518263 -37.113965,1.95926 -41.753192,21.433174 l -0.794092,3.333334 28.193324,0.244832 c 16.15689,0.140306 29.22378,-0.306647 30.60698,-1.046912 z"
       id="path531" />
  </g>
</svg>
