<?xml version="1.0" encoding="UTF-8" standalone="no"?>
<!-- Created with Inkscape (http://www.inkscape.org/) -->

<svg
   version="1.1"
   id="svg195"
   width="213.33333"
   height="144"
   viewBox="0 0 213.33333 144"
   xmlns="http://www.w3.org/2000/svg"
   xmlns:svg="http://www.w3.org/2000/svg">
  <defs
     id="defs199" />
  <g
     id="g201">
    <path
       style="fill:#000000;stroke-width:1.33333"
       d="m 84.892699,139.11492 c -0.44692,-0.44692 -9.563118,-1.00352 -20.258216,-1.23691 -10.6951,-0.23337 -21.363126,-1.01353 -23.706726,-1.73368 -2.3436,-0.72016 -7.561091,-2.2731 -11.594424,-3.451 C 19.20501,129.73544 14.27366,125.99217 9.4564948,117.60531 4.4986642,108.97354 4.1981002,102.74853 8.3824433,95.360509 17.076832,80.009404 37.618919,80.5918 48.496573,96.4978 c 1.633104,2.388028 2.201737,2.407861 12.939133,0.4513 6.177028,-1.125573 16.630959,-3.025739 23.230959,-4.222589 6.6,-1.196852 16.309965,-3.110622 21.577695,-4.252822 5.26773,-1.142201 13.36773,-2.644338 18,-3.338084 4.63227,-0.693745 10.63001,-1.592049 13.32833,-1.996232 4.66184,-0.698301 5.04432,-0.463808 7.68444,4.711262 4.24933,8.329396 9.35769,15.942835 17.39309,25.922495 l 7.3169,9.0873 14.6831,-0.33568 c 16.73538,-0.38259 19.70099,0.25917 21.72495,4.70129 2.32696,5.1071 -0.41355,7.38184 -9.70851,8.05851 -9.9476,0.72416 -43.06278,1.8809 -80.57695,2.81461 -15.71732,0.39119 -28.983633,0.9626 -29.48069,1.2698 -0.497057,0.3072 -1.269403,0.19288 -1.716321,-0.25404 z m 57.457031,-14.57801 c 3.12568,-0.46453 6.00343,-1.36298 6.39499,-1.99654 0.90772,-1.46872 -1.32394,-5.66059 -6.95575,-13.06544 -2.4506,-3.22212 -4.45564,-6.89865 -4.45564,-8.17007 0,-4.880304 -3.06648,-5.606653 -16.93004,-4.010185 -7.18848,0.827792 -16.36996,2.349736 -20.403292,3.382095 -12.022937,3.07736 -26.770767,6.10339 -35.999999,7.38665 -23.283254,3.23737 -20.573109,3.4453 -23.677708,-1.81661 -7.58943,-12.863123 -22.988958,-12.400803 -22.988958,0.69017 0,3.87907 0.877227,6.00334 3.472255,8.40833 6.075568,5.63064 14.023186,8.64157 23.282043,8.8203 4.71847,0.0911 12.779035,0.59581 17.912368,1.12161 10.668247,1.09271 71.789101,0.52197 80.349731,-0.75031 z M 111.49094,38.280125 c -1.21592,-0.889104 -2.69197,-3.415856 -3.28012,-5.615005 -1.47761,-5.52502 -4.71515,-5.134813 -5.54415,0.668213 C 102.07774,37.455825 101.54345,38 98.084756,38 94.819109,38 93.990419,37.308856 93.090084,33.834348 91.046539,25.948049 91.35116,26 47.152451,26 H 6.7142927 L 5.1590806,22.245685 C 3.8814691,19.161503 3.9751377,18.1201 5.6838434,16.411395 7.4863205,14.608917 13.114416,14.36096 47.869058,14.552832 72.627626,14.68952 88.93224,14.261569 90.477677,13.434477 91.854536,12.697604 93.345319,10.273399 93.790528,8.0473543 94.475927,4.6203591 95.212365,4 98.595209,4 c 3.370681,0 4.167071,0.6632137 5.094591,4.2426409 1.50399,5.8040881 3.44257,6.0086241 5.40895,0.5706868 1.77885,-4.9193334 4.49452,-6.6670432 8.42242,-5.4203774 1.5965,0.5067114 2.48609,2.0598953 2.49925,4.3635666 0.0436,7.6304111 -0.12811,7.5918031 32.93144,7.4067981 16.7098,-0.09351 35.28658,-0.545552 41.2817,-1.004536 8.92424,-0.683238 11.28086,-0.453871 13,1.265256 2.82316,2.82316 2.66034,8.18213 -0.29666,9.764672 -1.35401,0.724645 -12.22872,1.109054 -25,0.883722 -12.43197,-0.219345 -31.15556,-0.08209 -41.608,0.304991 l -19.00441,0.7038 -1.3742,5.103381 c -1.60539,5.96196 -5.14951,8.515736 -8.45935,6.095524 z"
       id="path670" />
  </g>
</svg>
