<?xml version="1.0" encoding="UTF-8" standalone="no"?>
<!-- Created with Inkscape (http://www.inkscape.org/) -->

<svg
   version="1.1"
   id="svg185"
   width="110.66667"
   height="214.66667"
   viewBox="0 0 110.66667 214.66667"
   xmlns="http://www.w3.org/2000/svg"
   xmlns:svg="http://www.w3.org/2000/svg">
  <defs
     id="defs189" />
  <g
     id="g191">
    <path
       style="fill:#000000;stroke-width:1.33333"
       d="m 60.074498,208.07426 c -2.187647,-1.3841 -3.567028,-15.53548 -4.916892,-50.44351 -0.760702,-19.67204 -0.616468,-21.94873 1.54157,-24.33334 2.819664,-3.11569 4.566281,-3.28265 8.008641,-0.76553 2.844825,2.08019 2.671494,0.37707 3.881054,38.13479 0.458096,14.3 1.113984,27.30836 1.45753,28.90747 1.018201,4.73945 -1.567327,9.76198 -5.013398,9.73878 -1.66815,-0.0107 -3.899478,-0.56862 -4.958505,-1.23866 z M 17.713489,77.376421 C 10.9614,73.259477 6.2996511,62.696761 6.1353958,51.142467 6.0311282,43.807921 6.5364431,41.024934 8.3333336,39.037479 11.53704,35.494014 11.296934,34.16873 6.6003541,29.47215 3.2852262,26.157022 2.7874037,24.932424 3.9055421,22.843163 5.3129968,20.213311 11.766964,17.333334 16.252955,17.333334 c 3.608503,0 10.001415,5.094377 13.308641,10.605377 l 2.83731,4.727956 0.950247,-3.411199 C 35.656792,20.971503 40.948151,15.153623 51.130996,9.7042264 58.311108,5.8617568 70.05581,5.7062018 80.791269,9.3113853 87.079193,11.422998 90.084565,13.505928 95.700795,19.644719 99.569564,23.873458 102.98305,28.533334 103.28631,30 c 6.83753,33.068132 5.01387,58.187736 -3.427271,47.208123 -1.356524,-1.764467 -2.479748,-4.438122 -2.496055,-5.941455 -0.0551,-5.079456 -2.85284,-6.266514 -6.626569,-2.811594 -4.830503,4.422418 -18.627821,8.964723 -28.021316,9.225083 -7.401176,0.205138 -8.345755,-0.111889 -12.589965,-4.22554 l -4.588466,-4.447316 -5.228552,5.496351 c -4.741378,4.984223 -5.837902,5.495885 -11.768334,5.491365 -4.14138,-0.0032 -8.111817,-0.9635 -10.826293,-2.618596 z m 15.215484,-19.391424 0.262305,-11.984996 -3.924814,8 c -5.584923,11.38382 -5.094522,17.067592 1.400204,16.228411 1.587773,-0.205155 2.054065,-2.728691 2.262305,-12.243415 z m 42.070336,6.025393 c 3.302724,-1.460952 8.178996,-5.06268 10.836158,-8.003841 4.428664,-4.902002 4.831202,-6.018234 4.831202,-13.39684 0,-10.572317 -3.277509,-17.017643 -10.656487,-20.956322 -11.000401,-5.871688 -24.314278,-3.066744 -33.136421,6.981123 -3.610888,4.112575 -4.207093,5.813125 -4.207093,11.999863 0,3.964537 0.608573,7.584369 1.352387,8.04407 0.743812,0.459702 2.552354,3.187952 4.018982,6.062781 1.844661,3.615832 4.612897,6.240176 8.980947,8.51412 7.749543,4.0343 10.322749,4.142357 17.980325,0.755046 z M 64.252079,47.855353 c -2.584877,-0.975538 -3.014468,-1.966522 -2.666666,-6.151492 0.340098,-4.0923 1.086032,-5.22335 4.151614,-6.29504 4.539408,-1.586923 8.06953,0.226056 8.698661,4.467406 0.788276,5.314252 -5.074001,9.9075 -10.183609,7.979126 z M 21.351043,46.623914 c 1.913663,-4.619992 0.997032,-6.45926 -1.985488,-3.983988 -2.162313,1.794561 -2.830544,8.026741 -0.860648,8.026741 0.644364,0 1.925126,-1.819238 2.846136,-4.042753 z"
       id="path809" />
  </g>
</svg>
