<?xml version="1.0" encoding="UTF-8" standalone="no"?>
<!-- Created with Inkscape (http://www.inkscape.org/) -->

<svg
   version="1.1"
   id="svg95"
   width="104"
   height="201.33333"
   viewBox="0 0 104 201.33333"
   xmlns="http://www.w3.org/2000/svg"
   xmlns:svg="http://www.w3.org/2000/svg">
  <defs
     id="defs99" />
  <g
     id="g101">
    <path
       style="fill:#000000;stroke-width:1.33333"
       d="m 49.16326,193.80165 c -1.204689,-1.44723 -2.118967,-7.71124 -2.675877,-18.33333 -0.465274,-8.87424 -1.307503,-24.68583 -1.871622,-35.13687 -0.934734,-17.31717 -0.811858,-19.23813 1.385935,-21.66666 2.974716,-3.28702 7.571429,-3.43476 10.313091,-0.33146 2.811293,3.18212 4.955608,72.52936 2.340156,75.6808 -2.189078,2.63767 -7.212796,2.52521 -9.491683,-0.21248 z M 47.114476,95.145973 C 33.496299,91.924018 26.571216,88.746653 20.979111,83.154548 -1.7989627,60.376475 1.1736454,29.604865 28,10.476261 33.876413,6.2860686 49.137077,3.3314461 59.420965,4.3928369 c 8.199732,0.846287 19.952386,6.9787861 28.364758,14.8006451 6.517489,6.059988 10.880944,15.422204 10.880944,23.346121 0,8.249744 -3.326342,22.912817 -6.696326,29.51853 -3.403145,6.670716 -14.943688,16.573132 -22.51173,19.316293 -5.600667,2.030054 -19.668419,4.4046 -22.344135,3.771547 z M 62,81.702497 C 64.933333,81.01362 69.218611,79.466805 71.52284,78.265131 76.130707,75.862092 84,66.702072 84,63.74146 84,62.710323 84.706164,61.160502 85.569255,60.297411 88.505565,57.3611 87.648688,42.458209 84.108969,34.900009 79.856317,25.819513 67.28424,17.001592 55.029973,14.504309 47.155784,12.899638 46.569311,12.959957 43.683189,15.671326 42.009305,17.243858 37.203836,20.050006 33.004368,21.907212 22.644457,26.488856 17.87858,33.94271 16.602563,47.559714 c -0.777894,8.301272 -0.50841,10.440684 1.936664,15.375022 1.562162,3.152562 4.193425,7.23193 5.847248,9.065263 3.054058,3.385552 11.970777,9.743557 15.613525,11.133116 2.594081,0.989537 15.179561,0.171126 22,-1.430618 z M 46.153347,55.380243 C 44.969005,53.572711 44,50.288119 44,48.08115 c 0,-5.572167 6.392461,-9.070536 12.187879,-6.669996 7.405858,3.067608 8.08364,9.417454 1.553498,14.554065 -4.633633,3.644816 -8.959653,3.426435 -11.58803,-0.584976 z"
       id="path948" />
  </g>
</svg>
