<?xml version="1.0" encoding="UTF-8" standalone="no"?>
<!-- Created with Inkscape (http://www.inkscape.org/) -->

<svg
   version="1.1"
   id="svg205"
   width="212"
   height="149.33333"
   viewBox="0 0 212 149.33333"
   xmlns="http://www.w3.org/2000/svg"
   xmlns:svg="http://www.w3.org/2000/svg">
  <defs
     id="defs209" />
  <g
     id="g211">
    <path
       style="fill:#000000;stroke-width:1.33333"
       d="m 65.079959,139.50285 c -2.218027,-3.02657 -4.979519,-7.45285 -6.13665,-9.83619 -3.229164,-6.65108 -6.036297,-5.52695 -10.728604,4.29632 -3.198444,6.69588 -4.935814,8.83387 -7.753248,9.54099 -2.863205,0.71863 -4.071365,0.28347 -5.712946,-2.05771 -1.145015,-1.63298 -3.630615,-4.87644 -5.523558,-7.20766 -1.892942,-2.33123 -3.824112,-5.2886 -4.291488,-6.57194 -1.611066,-4.42372 -4.279596,-2.25328 -8.63888,7.0264 C 13.88994,139.81188 11.113407,144 10.124511,144 c -2.8363985,0 -5.1707486,-3.69888 -4.4128413,-6.99234 1.0529364,-4.5755 10.3926993,-25.43113 12.3054733,-27.47803 2.958053,-3.1655 6.65606,-0.44468 13.393306,9.85415 6.378394,9.75028 9.199712,11.57387 11.267523,7.28288 0.530087,-1.1 2.537877,-5.45 4.461757,-9.66666 2.816908,-6.17397 4.10955,-7.66667 6.639134,-7.66667 3.407269,0 5.538658,2.10894 9.432688,9.33333 5.398434,10.01544 8.622373,11.62517 11.349122,5.66667 4.654395,-10.1708 6.354046,-12.91307 9.11984,-14.71425 2.827728,-1.84152 3.293114,-1.66662 7.536043,2.83219 2.487208,2.63721 5.630976,7.06453 6.986153,9.8385 1.355176,2.77396 3.200921,5.04356 4.101661,5.04356 1.53666,0 11.02896,-13.40475 11.02896,-15.57479 0,-0.54893 1.17209,-1.62534 2.60465,-2.39202 2.1332,-1.14165 3.47477,-0.62998 7.41189,2.82685 2.64398,2.32145 6.05249,6.67762 7.57446,9.68039 1.52198,3.00276 3.41651,5.87525 4.21007,6.3833 1.72195,1.10242 4.8656,-1.22434 4.8656,-3.60125 0,-0.92638 0.75,-3.11136 1.66667,-4.8555 7.84204,-14.9211 12.4436,-15.41061 20.057,-2.13365 2.83848,4.95 5.94914,9 6.9126,9 0.96345,0 3.58574,-3.80273 5.82733,-8.45051 5.05825,-10.48796 7.18501,-12.42534 11.83255,-10.77886 2.50953,0.88906 5.19506,4.47213 9.70136,12.94374 3.42717,6.4429 6.92976,12.4129 7.78353,13.26667 2.69353,2.69354 1.81691,7.62223 -1.63549,9.19526 -4.8416,2.20597 -7.55319,-0.0967 -12.94552,-10.99339 -5.43196,-10.97677 -4.2176,-11.28345 -12.37767,3.12591 -6.44635,11.38321 -11.50201,10.70206 -17.6982,-2.38448 -4.98265,-10.52351 -6.43141,-11.25012 -10.08692,-5.05898 -1.66745,2.82405 -3.93296,6.92248 -5.03448,9.10763 -1.10152,2.18513 -3.61176,4.86524 -5.57831,5.95577 -3.24154,1.79758 -3.82334,1.75854 -6.22831,-0.41792 -1.45901,-1.32038 -4.35002,-5.64906 -6.42445,-9.61927 -5.30566,-10.15439 -7.47,-9.60345 -14.44299,3.67653 -3.33647,6.35426 -7.07838,8.78573 -10.53654,6.84654 -2.0929,-1.1736 -7.536955,-8.78642 -10.811187,-15.1181 C 88.853773,125.78344 87.405787,124 86.763224,124 c -0.642563,0 -3.462073,4.45584 -6.265579,9.90188 -6.469028,12.5666 -9.504724,13.66941 -15.417686,5.60097 z M 80.31394,74.673812 C 78.653273,73.975918 76.703273,71.849749 75.980607,69.94899 74.565149,66.226057 74.143785,17.614405 75.469515,10.985757 c 0.44599,-2.2299529 2.075786,-4.6352707 3.666666,-5.4114134 1.5751,-0.768444 13.32635,-1.6517765 26.113889,-1.9629611 31.79188,-0.7736555 29.4166,-3.64125371 29.4166,35.5136315 0,39.250564 2.4273,36.109204 -28.21338,36.513007 C 93.737315,75.8056 81.974607,75.371706 80.31394,74.673812 Z m 40.7656,-12.649263 C 123.33287,57.079029 123.26478,19.199376 121,17.778165 118.28133,16.072124 92.665596,15.54996 89.694544,17.140018 c -2.478309,1.326352 -4.303821,7.896573 -4.684483,16.859981 -0.315821,7.436631 1.751022,29.23385 2.83524,29.900854 0.684658,0.421198 8.085346,0.955092 16.445969,1.186434 l 15.20115,0.420621 z"
       id="path233" />
  </g>
</svg>
