<?xml version="1.0" encoding="UTF-8" standalone="no"?>
<!-- Created with Inkscape (http://www.inkscape.org/) -->

<svg
   version="1.1"
   id="svg195"
   width="214.66667"
   height="218.66667"
   viewBox="0 0 214.66667 218.66667"
   xmlns="http://www.w3.org/2000/svg"
   xmlns:svg="http://www.w3.org/2000/svg">
  <defs
     id="defs199" />
  <g
     id="g201">
    <path
       style="fill:#000000;stroke-width:1.33333"
       d="m 92.290345,207.32244 c -8.235921,-4.53812 -18.513549,-13.49168 -20.84002,-18.1552 -2.717776,-5.4479 -3.94436,-17.96112 -2.413937,-24.62617 1.772728,-7.72032 9.221416,-18.51887 14.515464,-21.04341 2.446483,-1.16666 4.443636,-2.88088 4.43812,-3.80942 -0.0055,-0.92853 -2.705516,-4.33553 -6,-7.57111 -5.850408,-5.74581 -8.006454,-11.88453 -4.323304,-12.30938 0.916667,-0.10573 10.966667,-0.33529 22.333332,-0.51013 23.02541,-0.35418 40.79091,1.36566 41.82043,4.04855 0.36555,0.95261 -1.99451,4.42925 -5.24456,7.72588 -3.25006,3.29662 -5.9092,6.70615 -5.9092,7.57673 0,0.87057 1.65,2.22449 3.66667,3.0087 2.01666,0.78422 5.63269,4.06434 8.0356,7.28916 6.24029,8.37474 10.54365,26.73004 7.13972,30.45336 -0.6369,0.69667 -2.16952,3.96667 -3.40583,7.26667 -3.05571,8.15645 -9.86184,15.16689 -19.3988,19.98113 -6.90716,3.48674 -9.33459,4.00575 -18.33267,3.9198 -8.27181,-0.0791 -11.527208,-0.73594 -16.081015,-3.24516 z m 29.042995,-9.38181 c 8.25692,-4.24349 17.33333,-18.06303 17.33333,-26.39135 0,-10.53609 -8.72246,-22.76114 -17.27024,-24.20529 -2.85314,-0.48203 -5.49996,-1.69061 -5.88183,-2.68573 -0.38186,-0.99514 1.37114,-4.51434 3.89555,-7.82047 2.52442,-3.30613 4.58985,-6.34714 4.58985,-6.7578 0,-1.01108 -23.2394,-0.95483 -25.890949,0.0627 -3.03351,1.16406 -2.604154,3.59405 1.279735,7.24277 4.806884,4.51584 3.847604,8.20843 -2.687088,10.34345 -6.80267,2.22259 -9.578778,4.80304 -13.512478,12.56014 -3.608655,7.11611 -4.095288,14.96144 -1.337449,21.56188 2.148749,5.14268 12.391544,15.46047 15.416824,15.52969 1.135607,0.026 3.564735,0.9124 5.398075,1.96983 3.7457,2.16043 13.09348,1.45444 18.66667,-1.40979 z M 86.226035,61.781589 C 85.779115,61.33467 76.662917,60.778064 65.967818,60.544685 55.272718,60.311308 44.604691,59.531148 42.261091,58.810997 39.917491,58.090845 34.700001,56.537894 30.666667,55.359994 20.538344,52.402106 15.606994,48.658839 10.789828,40.271977 5.8319977,31.64021 5.5314337,25.415194 9.715777,18.027176 18.410166,2.6760704 38.952254,3.2584664 49.829907,19.164467 c 1.633104,2.388028 2.201738,2.407861 12.939134,0.4513 6.177028,-1.125573 16.63096,-3.025739 23.23096,-4.222589 6.6,-1.196852 16.309959,-3.110621 21.577699,-4.252822 5.26773,-1.1422009 13.36773,-2.6443385 18,-3.3380836 4.63226,-0.6937451 10.63001,-1.5920498 13.32833,-1.9962324 4.66184,-0.6983006 5.04432,-0.4638078 7.68444,4.711262 4.24933,8.329396 9.35769,15.942834 17.39309,25.922491 l 7.3169,9.0873 14.6831,-0.335674 c 16.73538,-0.38259 19.70099,0.259168 21.72495,4.701288 2.32696,5.107103 -0.41355,7.381842 -9.70851,8.058502 -9.9476,0.724171 -43.06278,1.880909 -80.57695,2.814613 -15.71732,0.391195 -28.983637,0.962607 -29.480694,1.269806 -0.497057,0.307198 -1.269403,0.192881 -1.716321,-0.254039 z M 143.68307,47.203582 c 3.12568,-0.464539 6.00343,-1.362983 6.39499,-1.996543 0.90772,-1.46872 -1.32394,-5.660592 -6.95575,-13.065441 -2.4506,-3.222123 -4.45564,-6.898655 -4.45564,-8.170075 0,-4.8803 -3.06648,-5.606649 -16.93005,-4.010181 -7.18847,0.827792 -16.36995,2.349736 -20.40329,3.382097 -12.022933,3.077357 -26.770764,6.103385 -35.999996,7.386644 -23.283255,3.237372 -20.573109,3.4453 -23.677708,-1.816603 -7.589431,-12.863126 -22.988959,-12.400806 -22.988959,0.690168 0,3.879066 0.877227,6.003335 3.472255,8.408327 6.075568,5.630646 14.023187,8.641568 23.282044,8.820306 4.718469,0.09109 12.779035,0.595809 17.912368,1.121602 10.668247,1.092719 71.789106,0.521975 80.349736,-0.750301 z"
       id="path372" />
  </g>
</svg>
