<?xml version="1.0" encoding="UTF-8" standalone="no"?>
<!-- Created with Inkscape (http://www.inkscape.org/) -->

<svg
   version="1.1"
   id="svg293"
   width="196"
   height="206.66667"
   viewBox="0 0 196 206.66667"
   xmlns="http://www.w3.org/2000/svg"
   xmlns:svg="http://www.w3.org/2000/svg">
  <defs
     id="defs297" />
  <g
     id="g299">
    <path
       style="fill:#000000;stroke-width:1.33333"
       d="m 178.9604,197.25798 c -1.67177,-0.66074 -4.40708,-2.79114 -6.07845,-4.73423 -4.71434,-5.48073 -14.62556,-5.98331 -24.04188,-1.21909 -11.27484,5.70454 -17.38999,1.54797 -11.57202,-7.86571 3.11039,-5.03269 5.94752,-13.44643 11.41778,-33.86012 l 3.68578,-13.75449 -2.71012,-3.66563 C 146.76812,128.2452 147.65927,124 151.37419,124 c 2.09746,0 2.61592,-1.82335 4.1703,-14.66666 2.09284,-17.292337 1.3295,-28.022667 -2.5221,-35.453365 -4.23018,-8.161057 -11.86026,-15.213307 -16.45983,-15.213307 -3.02579,0 -3.30737,0.459377 -2.9536,4.8186 0.59231,7.298706 -2.33448,8.377777 -9.65767,3.560661 -6.41557,-4.220091 -16.80565,-7.058215 -25.719677,-7.025511 -7.588397,0.02784 -9.636572,1.442048 -7.599936,5.247539 2.881504,5.384137 0.83062,7.20718 -6.993612,6.216663 C 67.314612,69.418133 62.959293,68.389954 59.204868,65.716568 54.44996,62.330774 42.382941,57.941172 34.422539,56.701536 25.543381,55.318825 24.201155,54.734265 23.286199,51.851492 22.725568,50.085103 21.453481,49.287658 19.551328,49.510179 11.957163,50.39857 4.0415884,41.436262 8.1006916,36.545342 10.059039,34.185677 21.269369,28.261091 27.321053,26.387508 c 5.616418,-1.738826 25.368419,-5.889452 33.345614,-7.007146 3.666666,-0.513742 9.366666,-2.157536 12.666666,-3.652879 12.599439,-5.709232 25.903755,-7.5466403 31.961467,-4.414077 4.25452,2.200098 4.47551,3.13594 2.09841,8.886361 -1.04003,2.515931 3.49829,4.364559 14.52924,5.918301 20.35343,2.866842 46.32092,24.598453 52.43531,43.881933 3.33019,10.502719 5.64323,23.656989 5.70079,32.420499 0.0321,4.90206 0.65705,13.41284 1.38854,18.91284 2.93828,22.09236 2.95291,22.52426 0.87024,25.70281 -1.74844,2.66845 -1.76566,3.42432 -0.12906,5.66241 2.03372,2.78128 1.2461,9.93391 -1.26998,11.53315 -0.97984,0.6228 -0.937,1.47244 0.13967,2.76975 0.8542,1.02924 2.16191,6.02497 2.90601,11.10161 0.74411,5.07665 1.69639,10.46469 2.11619,11.97345 1.17305,4.21592 -3.27388,8.70143 -7.11969,7.18146 z M 172,178.66667 c 1.46667,-1.46667 2.66667,-4.12381 2.66667,-5.90476 0,-1.78096 0.98098,-4.21908 2.17996,-5.41807 1.87757,-1.87756 1.93334,-2.64076 0.40206,-5.50198 -1.37168,-2.56302 -1.43792,-4.22275 -0.2899,-7.26416 1.13169,-2.9982 1.08308,-4.81636 -0.20302,-7.59324 -5.73353,-12.37955 -5.84682,-12.78142 -4.55856,-16.16984 0.71055,-1.86888 0.92374,-7.31672 0.47374,-12.1063 -0.45,-4.78957 -1.3008,-15.33154 -1.89066,-23.426597 -0.58986,-8.095054 -1.7205,-15.895054 -2.51252,-17.333334 -0.79201,-1.43828 -1.78038,-4.235888 -2.19637,-6.216907 -1.25483,-5.975742 -12.83407,-20.109051 -18.75405,-22.8907 -2.92455,-1.374163 -7.25947,-4.200248 -9.63318,-6.280189 -2.3737,-2.079943 -6.5737,-4.358763 -9.33333,-5.064044 -22.52885,-5.757728 -27.74231,-6.895385 -31.4507,-6.863026 -2.328411,0.02032 -12.703555,-0.260173 -23.055875,-0.623313 -13.905233,-0.48777 -20.175,-0.185723 -24,1.156201 -5.064557,1.776796 -5.168105,1.944 -4.742782,7.658356 0.61004,8.196068 2.993828,11.258791 9.806102,12.59901 8.577492,1.6875 33.452547,1.414513 47.092415,-0.516807 6.6,-0.934519 15.85874,-2.246464 20.57498,-2.915433 8.29733,-1.176924 8.86247,-1.065242 17.45323,3.449077 18.71883,9.836463 26.23867,22.374451 25.66614,42.793673 -0.20583,7.340703 0.31194,12.091373 1.58534,14.545853 1.69346,3.26411 1.61367,4.18851 -0.76364,8.84842 -2.01641,3.95251 -2.44741,6.58544 -1.79268,10.95149 0.73612,4.90881 0.4164,6.16307 -2.19001,8.59131 -2.36593,2.2042 -2.69397,3.20136 -1.45933,4.436 2.4426,2.4426 1.94192,5.2741 -2.3263,13.15587 -2.15541,3.98023 -4.48601,9.63677 -5.17912,12.57011 -0.69309,2.93333 -1.69376,6.38333 -2.2237,7.66666 -0.75672,1.83248 -0.28896,2.33764 2.1791,2.35342 1.72847,0.0107 5.54266,0.8847 8.47599,1.94146 6.91597,2.49158 6.87781,2.49398 10,-0.62821 z M 35.725556,40.68889 C 35.2524,32.619778 33.145844,31.796827 23.681045,35.983558 c -7.693217,3.403075 -8.43211,4.519111 -5.534909,8.360017 1.925976,2.553324 3.531467,3.034203 10.130173,3.034203 h 7.841471 z"
       id="path951" />
  </g>
</svg>
