<?xml version="1.0" encoding="UTF-8" standalone="no"?>
<!-- Created with Inkscape (http://www.inkscape.org/) -->

<svg
   version="1.1"
   id="svg185"
   width="193.33333"
   height="213.33333"
   viewBox="0 0 193.33333 213.33333"
   xmlns="http://www.w3.org/2000/svg"
   xmlns:svg="http://www.w3.org/2000/svg">
  <defs
     id="defs189" />
  <g
     id="g191">
    <path
       style="fill:#000000;stroke-width:1.33333"
       d="M 24.55515,206.77777 C 24.249817,206.47222 24,204.91521 24,203.31776 24,198.91336 28.13704,196 34.391409,196 c 6.73528,0 7.83818,-1.66951 8.87462,-13.43392 0.415068,-4.71135 1.468093,-11.43423 2.340056,-14.93975 1.331257,-5.352 1.230616,-7.48928 -0.627847,-13.33333 -1.21728,-3.82782 -3.285363,-11.39538 -4.595737,-16.81682 -1.757832,-7.27268 -3.539358,-11.11814 -6.794776,-14.66666 -3.720879,-4.05588 -4.28498,-5.49384 -3.599916,-9.17662 C 30.869947,108.89069 28.0652,103.6605 21.246985,97.333332 19.271369,95.499999 15.93259,89.799999 13.827477,84.666665 8.5613428,71.825156 8.7545133,62.281474 14.49816,51.531271 18.672584,43.718137 19.843156,35.923669 17.417718,32.090883 16.400117,30.482826 15.322554,30.447533 10.58452,31.867084 5.9619011,33.252053 4.7587733,33.235857 3.8334682,31.7762 0.4499123,26.438682 5.8389543,15.599729 13.732288,11.866754 c 3.080574,-1.456889 7.401045,-3.6691076 9.601045,-4.916041 2.851756,-1.6163407 7.061985,-2.2629517 14.666666,-2.2525208 17.479968,0.023977 24.563669,5.3930108 30.121377,22.8302558 4.516795,14.171389 7.594409,19.118223 17.597433,28.285403 1.312012,1.202381 3.712012,3.599139 5.333333,5.326127 1.62132,1.726988 3.847856,3.966342 4.947856,4.976345 2.229083,2.046708 6.599602,6.463671 12.783442,12.9193 2.26423,2.36374 5.46156,7.134932 7.1052,10.602649 3.34368,7.054466 9.57694,14.343028 12.31297,14.397588 0.98911,0.0197 3.29839,2.5181 5.13172,5.55195 3.56208,5.89463 39.29476,42.41219 41.50061,42.41219 2.57424,0 14.49939,13.74454 14.49939,16.71153 0,4.17943 -3.01392,6.24429 -7.53913,5.16511 L 178,172.97177 l 3.66666,3.92041 c 4.01598,4.29387 4.61939,7.32394 1.90684,9.57515 -0.96789,0.80329 -7.53413,3.49785 -14.59161,5.98791 -7.05748,2.49005 -15.67637,6.41154 -19.15309,8.71442 -4.29111,2.84232 -7.20571,3.91599 -9.07506,3.34306 -1.51456,-0.4642 -2.82301,-0.91946 -2.90768,-1.0117 -1.84966,-2.01502 -7.88954,-13.1785 -9.31314,-17.21344 -2.59003,-7.34092 -10.89576,-19.62092 -13.27086,-19.62092 -1.41976,0 -1.92873,1.72028 -1.92873,6.51896 0,11.625 -7.51466,16.24627 -11.07595,6.81134 C 101.34585,177.58202 99.792349,176 98.332502,176 c -3.138064,0 -4.508404,3.67797 -2.542932,6.8252 0.84907,1.35957 1.543762,4.24468 1.543762,6.41134 0,5.30067 1.671541,6.07704 13.106738,6.0877 8.03467,0.008 10.10104,0.45697 11.61501,2.52661 1.31547,1.79829 1.46203,3.22673 0.51301,5 -1.12518,2.10241 -3.10755,2.51392 -12.94834,2.68783 -6.39086,0.11294 -15.219752,0.38112 -19.619752,0.59596 -14.618231,0.71374 -64.880712,1.20768 -65.444848,0.64313 z m 55.843235,-13.1496 c 3.20331,-3.54208 6.590144,-14.83092 5.615076,-18.71589 -0.475398,-1.89415 -2.389317,-4.85719 -4.25315,-6.58452 -3.271678,-3.0321 -3.479992,-3.0581 -6.027884,-0.75228 -2.073359,1.87637 -2.470363,3.44356 -1.851974,7.31074 1.423403,8.90147 -5.909112,12.56196 -9.232147,4.60883 -1.577884,-3.77641 -4.193775,-6.16172 -6.757356,-6.16172 -0.30669,0 -0.557618,1.67313 -0.557618,3.71808 0,2.04495 -1.2,6.0718 -2.666666,8.94859 -4.727783,9.27326 -4.381131,9.59596 10.494848,9.76949 10.887661,0.12693 13.520065,-0.24293 15.236871,-2.14132 z m 68.346775,-6.25244 c 1.42349,-1.07667 3.54518,-1.97667 4.71485,-2 1.16968,-0.0233 3.21267,-1.2424 4.53999,-2.70907 C 159.32732,181.2 161.2203,180 162.20665,180 c 2.1352,0 2.39111,-5.72506 0.42049,-9.40719 -0.75508,-1.41087 -3.30508,-3.56267 -5.66666,-4.78179 -2.3616,-1.21912 -6.99382,-4.88116 -10.29382,-8.13788 -7.02294,-6.93084 -24.9644,-16.33981 -31.15748,-16.33981 -2.37005,0 -5.01918,-0.71 -5.88696,-1.57777 -0.86778,-0.86779 -1.95956,-1.196 -2.42619,-0.72938 -0.807,0.807 18.10297,24.07736 28.10119,34.58096 2.58652,2.71727 4.70278,5.82822 4.70278,6.9132 0,3.62202 2.57918,8.81299 4.37882,8.81299 0.97799,0 2.94284,-0.88092 4.36634,-1.9576 z m -47.75072,-24.90351 c 3.71993,-3.71993 -5.227239,-22.06745 -13.991096,-28.69086 -7.960203,-6.01605 -10.583048,-7.1147 -16.985253,-7.1147 -4.844527,0 -6.01712,0.45502 -6.013108,2.33334 0.0071,3.28915 4.673913,10.55593 7.881834,12.27276 1.482899,0.79362 4.310211,4.28192 6.282915,7.75176 4.243893,7.4647 6.638557,9.64214 10.604061,9.64214 1.611929,0 4.347252,1.18004 6.078493,2.62231 3.721976,3.10072 4.143486,3.18192 6.142154,1.18325 z m -34.327774,-6.2878 c 0,-2.54794 -8.426351,-19.59182 -10.187164,-20.60545 -3.734791,-2.14999 -12.479503,-14.55192 -12.479503,-17.6987 0,-4.04735 -3.48219,-4.27889 -4.740217,-0.3152 -0.596364,1.87897 -0.236839,3.4031 1.022184,4.33333 1.068157,0.78921 2.298991,3.65428 2.735187,6.36681 0.787036,4.89428 2.593516,9.52989 8.210163,21.06812 2.414088,4.95924 3.717355,6.14301 7.513366,6.82448 7.036114,1.26313 7.925984,1.26612 7.925984,0.0266 z M 147.1414,141 c -0.55878,-0.91667 -2.31996,-2.70183 -3.91374,-3.96703 C 138.83941,133.54941 114.59724,105.8706 106.9646,95.629169 97.936157,83.514835 71.007031,55.632263 69.334017,56.666243 c -0.73371,0.453457 -1.334018,1.707888 -1.334018,2.787625 0,3.405276 -3.402356,3.455542 -9.633663,0.142324 C 55.051335,57.833588 47.732582,55.30665 42.102439,53.980772 32.582965,51.738973 31.547805,51.721737 27.326496,53.734739 17.359854,58.487498 16.07236,70.662702 24.544721,80.040592 c 2.633736,2.915232 4.790924,6.348693 4.793749,7.629915 0.0099,4.486026 21.86727,19.046393 34.661529,23.089883 1.833333,0.57941 7.745501,2.89535 13.13815,5.14654 C 82.5308,118.15812 88.864232,120 91.212444,120 c 2.460397,0 6.183893,1.41241 8.787554,3.33333 2.484942,1.83333 5.325412,3.33333 6.312162,3.33333 0.98674,0 4.06262,1.15733 6.83528,2.57184 2.77266,1.4145 8.89876,3.84678 13.61355,5.40506 4.71479,1.55826 10.67234,3.936 13.23901,5.28385 5.62764,2.95527 8.55728,3.39528 7.1414,1.07259 z M 56.160274,35.300921 c 1.323472,-8.142175 -2.130743,-16.479435 -7.810895,-18.852755 -5.134929,-2.14551 -6.928664,-1.556014 -4.429222,1.455628 3.801674,4.580739 -3.380762,10.429539 -12.807667,10.429539 -2.915872,0 -3.100772,0.388583 -2.299856,4.833333 0.479015,2.658333 1.085444,5.215216 1.347621,5.681963 0.607191,1.080965 16.93073,0.537218 18.813999,-0.626707 0.777142,-0.4803 1.776172,0.07317 2.220066,1.229947 1.362435,3.550445 4.083888,1.275633 4.965954,-4.150948 z M 25.394449,19.885805 C 27.128256,16.646154 26.0107,14.7893 23.71111,17.088889 22.843333,17.956666 20.903333,18.685749 19.4,18.70907 c -2.689966,0.04173 -2.692268,0.07347 -0.14516,2 3.439381,2.601418 4.373833,2.476116 6.139609,-0.823265 z"
       id="path511" />
  </g>
</svg>
