<?xml version="1.0" encoding="UTF-8" standalone="no"?>
<!-- Created with Inkscape (http://www.inkscape.org/) -->

<svg
   version="1.1"
   id="svg165"
   width="216"
   height="192"
   viewBox="0 0 216 192"
   xmlns="http://www.w3.org/2000/svg"
   xmlns:svg="http://www.w3.org/2000/svg">
  <defs
     id="defs169" />
  <g
     id="g171">
    <path
       style="fill:#000000;stroke-width:1.33333"
       d="M 67.780189,184.33333 C 66.698644,183.05 63.843104,178.85 61.434544,175 c -2.408559,-3.85 -5.222253,-7 -6.252653,-7 -1.0304,0 -3.796632,3.9 -6.147182,8.66667 -3.621756,7.34453 -4.801929,8.66666 -7.736136,8.66666 -4.201569,0 -7.446517,-2.96328 -12.327114,-11.25709 -2.032366,-3.45369 -4.432366,-6.04323 -5.333334,-5.75452 -0.900969,0.28869 -3.093693,4.23441 -4.87272,8.76825 -2.89358,7.37428 -3.628893,8.24336 -6.974597,8.24336 -5.6912313,0 -6.2748963,-4.8739 -1.8027216,-15.05365 C 16.9698,154.38763 22.861115,148.28839 27.506119,152.1434 c 1.124649,0.93337 3.78243,5.13924 5.906178,9.34636 2.12375,4.20712 4.571959,8.08849 5.440468,8.62525 2.155847,1.33239 6.127276,-3.85136 7.848848,-10.2448 2.808468,-10.42985 12.010346,-11.69388 16.571519,-2.27638 1.17372,2.4234 3.790443,6.40332 5.81494,8.84426 l 3.680904,4.4381 5.260308,-9.59628 c 6.733975,-12.28466 9.177049,-13.39574 15.09646,-6.86567 2.452492,2.70551 5.457213,7.01909 6.677159,9.58576 2.771107,5.83019 5.372907,5.91579 8.836207,0.29073 7.03888,-11.43249 8.30591,-12.98448 10.90858,-13.36186 3.1069,-0.45052 11.22134,7.97042 14.83244,15.3927 2.0235,4.15908 2.19923,4.23428 4.67367,2 1.41412,-1.27686 4.29149,-5.72669 6.39417,-9.8885 6.18228,-12.23652 10.81567,-11.61547 18.42266,2.46932 4.79158,8.87189 7.65489,8.61173 12.76824,-1.16011 2.18472,-4.17508 4.97169,-7.85244 6.19328,-8.17189 4.8871,-1.278 9.95712,3.02825 14.30694,12.15172 2.3455,4.9195 5.58202,10.61618 7.19227,12.65926 3.48423,4.42082 2.09356,8.04143 -3.33972,8.69502 -4.04985,0.48717 -9.70372,-6.04791 -11.79964,-13.63871 -1.69395,-6.13493 -4.252,-6.05668 -7.48525,0.22899 -7.16306,13.92549 -10.40195,16.96269 -14.47998,13.57822 -1.08822,-0.90314 -4.44297,-5.45272 -7.45501,-10.11016 C 154.83121,167.49525 152,164.79953 152,167.73488 c 0,0.58753 -2.41675,4.78753 -5.37056,9.33333 -6.32155,9.72866 -9.71181,10.65851 -15.17758,4.16282 C 129.55334,178.97477 128,176.6208 128,176 c 0,-0.6208 -1.5678,-2.99196 -3.48401,-5.26924 -4.27321,-5.07843 -6.04147,-4.05389 -10.53332,6.10297 -2.99155,6.76444 -6.29586,9.83294 -10.58858,9.83294 -1.163,0 -4.831514,-4.2 -8.152251,-9.33334 C 91.921103,172.2 88.654316,168 87.982313,168 c -0.672002,0 -1.921944,1.35 -2.777646,3 -7.603844,14.66203 -12.893486,18.70969 -17.424478,13.33333 z M 95.266493,81.423485 C 94.496397,80.640377 90.296397,79.95564 85.93316,79.901848 81.569921,79.848055 75.3,78.998025 72,78.012892 68.7,77.02776 63.810289,75.855973 61.133977,75.408921 c -2.676312,-0.447052 -5.59978,-1.696944 -6.496593,-2.777537 -0.896813,-1.080595 -2.545,-1.964717 -3.662636,-1.964717 -2.868417,0 -15.893533,-8.69026 -22.766568,-15.189684 C 20.471037,48.160424 11.801486,36.842292 7.6532024,28.642383 4.5613993,22.530817 4.4327792,21.637496 6.1678516,18.325992 c 1.0447577,-1.993991 3.494212,-4.025671 5.4432314,-4.514844 1.94902,-0.489173 5.659972,-2.325565 8.24656,-4.0808705 C 24.379829,6.6614384 25.157285,6.5737173 40.091657,7.4472579 51.110681,8.091782 55.89412,7.9166741 56.556748,6.8445185 57.746183,4.9199724 68.652335,4.8750507 72.211833,6.7800363 78.368475,10.074971 142.22732,10.467763 189.81679,7.5034184 l 10.48345,-0.6530136 5.20784,4.9081312 c 7.05281,6.646912 8.45571,11.935039 4.69325,17.69096 -1.5774,2.413168 -4.068,6.333712 -5.53466,8.712319 -1.46667,2.378608 -5.24971,7.065265 -8.40675,10.414796 -4.4814,4.754638 -6.67419,6.091904 -10,6.098486 -3.33203,0.0065 -4.75465,0.877866 -6.53124,4 -1.24923,2.195363 -3.22313,3.99157 -4.38645,3.99157 -1.16332,0 -4.56131,1.247946 -7.55108,2.773214 -2.98978,1.52527 -6.59839,2.997082 -8.01915,3.270695 -4.40525,0.848375 -17.61375,7.446451 -20.85552,10.418019 -3.18423,2.918809 -3.46879,2.94028 -28.24981,2.131453 -3.3,-0.107707 -7.8,0.205364 -10,0.695717 -2.295575,0.511656 -4.596627,0.284847 -5.400177,-0.53228 z m 0.400174,-11.489397 c 2.690012,-0.834543 2.034092,-2.417389 -5,-12.065848 C 87,52.838781 84.010919,47.810921 84.024263,46.695217 84.054768,44.144743 90.836877,34.050401 95.2974,29.916528 98.887861,26.589 99.697332,21.563999 97.066667,18.933333 94.989683,16.856349 79.689383,16.843951 77.615763,18.917571 c -1.114388,1.114388 -7.428304,1.479272 -21.289224,1.230316 -18.227662,-0.327386 -19.96897,-0.146271 -23.226068,2.415762 -3.983424,3.133363 -5.972207,3.48781 -6.734716,1.200283 -0.287723,-0.863171 -1.199564,-1.151344 -2.026315,-0.640384 -1.036964,0.640879 -0.392251,3.034903 2.078689,7.718839 4.913527,9.31412 20.953154,23.895296 32.054567,29.139908 4.873351,2.302305 9.460637,4.952629 10.193971,5.889609 3.134533,4.004992 9.187224,5.8276 17.275997,5.202208 4.431535,-0.342629 8.807336,-0.855639 9.724003,-1.140024 z M 135.61367,66.666667 C 136.17841,64.507069 137.43236,64 142.20811,64 c 4.53072,0 7.5027,-1.081279 12.82669,-4.666667 3.81128,-2.566666 7.9522,-4.666666 9.20204,-4.666666 1.24985,0 2.65829,-0.624312 3.12988,-1.38736 0.47159,-0.763048 3.357,-2.940507 6.41203,-4.838799 5.87049,-3.647728 16.72718,-14.766153 16.82817,-17.233857 0.0328,-0.80301 1.25975,-2.546003 2.72641,-3.873318 4.4126,-3.993342 3.36715,-6.790648 -3.228,-8.637174 -3.24206,-0.907723 -6.54429,-1.248911 -7.33829,-0.758196 -3.06495,1.894246 -21.28501,2.923478 -32.10037,1.813314 -13.63358,-1.399444 -29.33334,0.642486 -29.33334,3.815131 0,1.095675 2.7,5.428805 6,9.629177 3.3,4.200374 6,8.219934 6,8.932358 0,1.483716 -6.91483,12.343362 -12.33333,19.369336 -5.4252,7.03465 -4.90107,7.836054 5.12483,7.836054 7.67016,0 8.88044,-0.340128 9.48884,-2.666666 z M 106.77193,46.333333 C 106.85614,45 107.0117,45 107.54971,46.333333 107.91959,47.25 109.07222,48 110.11111,48 c 2.21206,0 2.64543,-10.082517 0.5731,-13.333333 -2.83028,-4.439782 -9.59486,5.966405 -7.47298,11.495933 0.88021,2.293785 3.41892,2.415516 3.5607,0.170733 z"
       id="path789" />
  </g>
</svg>
