<?xml version="1.0" encoding="UTF-8" standalone="no"?>
<!-- Created with Inkscape (http://www.inkscape.org/) -->

<svg
   version="1.1"
   id="svg75"
   width="96"
   height="224"
   viewBox="0 0 96 224"
   xmlns="http://www.w3.org/2000/svg"
   xmlns:svg="http://www.w3.org/2000/svg">
  <defs
     id="defs79" />
  <g
     id="g81">
    <path
       style="fill:#000000;stroke-width:1.33333"
       d="M 32.290344,213.98911 C 24.054423,209.45099 13.776795,200.49743 11.450324,195.83391 8.7325483,190.386 7.5059639,177.87279 9.0363867,171.20773 c 1.7727283,-7.72032 9.2214163,-18.51886 14.5154643,-21.04341 2.446482,-1.16665 4.443636,-2.88088 4.43812,-3.80941 -0.0055,-0.92854 -2.705516,-4.33554 -6,-7.57111 -5.850408,-5.74581 -8.006454,-11.88453 -4.323304,-12.30938 0.916666,-0.10573 10.966666,-0.3353 22.333333,-0.51014 23.025409,-0.35417 40.790907,1.36567 41.820425,4.04855 0.365551,0.95261 -1.994501,4.42925 -5.244561,7.72588 -3.250059,3.29662 -5.909197,6.70616 -5.909197,7.57673 0,0.87057 1.65,2.22449 3.666666,3.00871 2.016667,0.78421 5.632688,4.06433 8.035603,7.28916 6.240291,8.37473 10.543648,26.73004 7.139723,30.45336 -0.636906,0.69666 -2.16953,3.96666 -3.405832,7.26666 -3.055711,8.15646 -9.86184,15.1669 -19.398798,19.98114 -6.907161,3.48673 -9.334586,4.00574 -18.332673,3.9198 -8.271804,-0.0791 -11.527205,-0.73595 -16.081012,-3.24516 z m 29.042989,-9.38182 c 8.256924,-4.24349 17.333334,-18.06302 17.333334,-26.39134 0,-10.5361 -8.72246,-22.76115 -17.27024,-24.2053 -2.853139,-0.48202 -5.49996,-1.69061 -5.881826,-2.68573 -0.381865,-0.99513 1.371132,-4.51433 3.89555,-7.82047 C 61.934568,140.19832 64,137.15732 64,136.74665 c 0,-1.01108 -23.239404,-0.95482 -25.890951,0.0627 -3.033509,1.16407 -2.604153,3.59405 1.279735,7.24277 4.806887,4.51584 3.847601,8.20843 -2.687088,10.34346 -6.802669,2.22258 -9.578777,4.80304 -13.512477,12.56013 -3.608655,7.11611 -4.095288,14.96144 -1.33745,21.56188 2.14875,5.14268 12.391544,15.46047 15.416824,15.52969 1.135607,0.026 3.56474,0.9124 5.398074,1.96983 3.745706,2.16043 13.093484,1.45444 18.666666,-1.40979 z M 30.980607,78.673813 C 29.31994,77.97592 27.36994,75.849751 26.647273,73.948992 25.231816,70.226059 24.810452,21.614405 26.136181,14.985757 c 0.445991,-2.229953 2.075787,-4.635271 3.666667,-5.4114133 1.5751,-0.768444 13.326349,-1.6517765 26.113888,-1.9629612 31.791881,-0.7736554 29.416597,-3.6412537 29.416597,35.5136325 0,39.250565 2.42731,36.109205 -28.213374,36.513008 -12.715978,0.167578 -24.478686,-0.266315 -26.139352,-0.96421 z M 71.746209,66.024551 c 2.25333,-4.94552 2.185234,-42.825175 -0.07954,-44.246386 C 68.948,20.072124 43.332263,19.54996 40.361211,21.140019 37.882901,22.466371 36.057389,29.036592 35.676728,38 c -0.315821,7.436631 1.751021,29.233851 2.83524,29.900855 0.684657,0.421197 8.085345,0.955092 16.445973,1.186433 l 15.201144,0.420621 z"
       id="path928" />
  </g>
</svg>
