<?xml version="1.0" encoding="UTF-8" standalone="no"?>
<!-- Created with Inkscape (http://www.inkscape.org/) -->

<svg
   version="1.1"
   id="svg263"
   width="66.666664"
   height="217.33333"
   viewBox="0 0 66.666664 217.33333"
   xmlns="http://www.w3.org/2000/svg"
   xmlns:svg="http://www.w3.org/2000/svg">
  <defs
     id="defs267" />
  <g
     id="g269">
    <path
       style="fill:#000000;stroke-width:1.33333"
       d="m 22.10156,208.90581 c -1.992378,-1.45687 -2.258763,-2.89553 -1.543003,-8.33333 0.475813,-3.61487 1.400731,-12.57248 2.055375,-19.90582 0.654644,-7.33333 1.83738,-18.13333 2.628303,-24 4.206398,-31.20097 4.12333,-34.29703 -0.963515,-35.91153 -3.263424,-1.03577 -5.612054,-6.23053 -5.612054,-12.41287 0,-6.11255 -5.479652,-14.334265 -10.7865791,-16.184271 -2.8852592,-1.005806 -3.8800871,-2.204857 -3.8800871,-4.676608 0,-4.295078 1.2122083,-4.941181 10.2085472,-5.441118 4.403474,-0.244706 7.941761,-1.156038 8.647288,-2.227222 1.293247,-1.963506 0.159567,-14.305173 -1.513792,-16.479709 -0.564317,-0.733333 -1.353781,-3.433333 -1.754364,-6 -0.400582,-2.566666 -1.406145,-7.366666 -2.234584,-10.666666 -0.828438,-3.3 -2.007893,-9 -2.62101,-12.666667 C 14.118969,30.333333 12.635474,23.577437 11.435431,18.986897 9.8326711,12.85584 9.6261397,9.9442416 10.657325,8.0174549 12.622324,4.3458197 16.459338,2.5815797 20.89085,3.3121311 22.967548,3.6544829 31.022136,4.1776055 38.789934,4.4746262 56.71319,5.1599654 59.13879,6.3185851 58.272194,13.780582 57.917518,16.834596 57.002348,21.433333 56.238484,24 c -0.763862,2.566666 -3.008658,11.566666 -4.988433,19.999999 -1.979776,8.433334 -4.375598,17.133333 -5.32405,19.333333 -1.151871,2.671843 -1.42588,6.434955 -0.825231,11.333334 l 0.899228,7.333333 8,0.666666 c 7.426902,0.618908 8.028904,0.915667 8.403484,4.142516 0.32627,2.810703 -0.395155,3.806656 -3.769951,5.204542 -5.330336,2.207897 -7.482544,5.566176 -9.4017,14.670297 -1.258381,5.96952 -2.647598,8.35481 -7.548305,12.96045 -7.453387,7.00463 -7.969102,10.26909 -5.666605,35.86947 0.91445,10.16734 1.620997,19.38606 1.570107,20.48606 -0.05089,1.1 0.501502,8.58589 1.227541,16.63533 1.198596,13.28859 1.106384,14.79157 -1.002091,16.33333 -3.034603,2.21895 -12.642924,2.18051 -15.710918,-0.0628 z m 14.835376,-97.23915 c 2.064969,-2.72396 7.063062,-15.823151 7.063062,-18.511132 0,-1.931805 -0.994721,-2.488863 -4.444292,-2.488863 -5.754562,0 -19.772529,2.813256 -19.234221,3.860102 2.799818,5.444809 4.988419,10.804513 5.597969,13.708973 0.963333,4.59022 8.386311,6.90179 11.017482,3.43092 z m 3.753506,-64.29041 c 1.777674,-5.156937 3.835076,-13.639453 4.572008,-18.850033 0.736931,-5.210581 1.708904,-10.435459 2.15994,-11.610839 0.588847,-1.534509 -0.181507,-2.388432 -2.732221,-3.028621 -4.009988,-1.006442 -22.961118,-0.06025 -24.231183,1.209811 -0.455061,0.455062 -0.217288,3.694496 0.528385,7.198742 0.745673,3.504246 2.360743,11.171356 3.589043,17.038023 5.26567,25.150165 6.422437,29.463719 8.531146,31.812442 2.113391,2.353937 2.279417,2.05316 3.28826,-5.957083 0.584369,-4.639905 2.516949,-12.655503 4.294622,-17.812442 z"
       id="path291" />
  </g>
</svg>
