<?xml version="1.0" encoding="UTF-8" standalone="no"?>
<!-- Created with Inkscape (http://www.inkscape.org/) -->

<svg
   version="1.1"
   id="svg253"
   width="213.33333"
   height="200"
   viewBox="0 0 213.33333 200"
   xmlns="http://www.w3.org/2000/svg"
   xmlns:svg="http://www.w3.org/2000/svg">
  <defs
     id="defs257" />
  <g
     id="g259">
    <path
       style="fill:#000000;stroke-width:1.33333"
       d="m 46.666666,193.10229 c -2.566667,-0.71068 -7.066667,-1.9571 -10,-2.76985 -6.585045,-1.82453 -15.804717,-9.02001 -19.929316,-15.5538 -1.704162,-2.69957 -4.140731,-8.21472 -5.414599,-12.25589 -2.0169039,-6.39836 -2.1094122,-8.57311 -0.716066,-16.8338 2.304419,-13.66215 7.82796,-22.2807 18.358057,-28.64466 9.602385,-5.80328 16.903151,-7.923 26.602234,-7.72375 9.06374,0.18621 14.031678,1.70668 22.657573,6.93452 7.990824,4.84295 14.956712,12.73374 17.422042,19.73529 1.702977,4.83645 2.323545,21.59506 0.854075,23.06454 -0.457966,0.45796 -2.125307,4.67375 -3.705203,9.3684 -4.92663,14.63947 -9.789959,18.65034 -29.462131,24.29784 -7.531542,2.16218 -10.028185,2.21927 -16.666666,0.38116 z M 60.007758,183 c 0.0073,-2.21088 -35.459022,-37.55059 -37.764276,-37.6294 -3.021325,-0.10333 1.909079,7.19971 12.126997,17.96273 6.265734,6.6 13.501083,14.25 16.078555,17 4.980869,5.31428 9.545686,6.58776 9.558724,2.66667 z m -26.007759,-8.33333 c -2.864323,-2.93334 -5.686091,-5.33334 -6.270597,-5.33334 -2.401782,0 -0.792024,3.37088 3.270598,6.84871 6.674242,5.71353 8.940854,4.56861 2.999999,-1.51537 z m 40.666666,3.54448 c 0,-2.05399 -37.51979,-40.52458 -43.069368,-44.1608 -4.107853,-2.69157 -5.569101,-2.16247 -4.379463,1.58574 C 28.315914,139.09584 70.23852,180 72.686326,180 c 1.089186,0 1.980339,-0.80499 1.980339,-1.78885 z m 8.643391,-10.17348 c 0.440424,-0.71263 -0.190137,-2.808 -1.401245,-4.65638 C 79.120807,159.12625 80.27114,156 84.624819,156 c 3.814985,0 3.964973,-0.35045 1.892104,-4.42099 C 84.856063,148.31755 60.300262,124 58.667704,124 c -0.574906,0 -1.42176,-1.5 -1.881897,-3.33333 -0.540169,-2.15221 -1.772515,-3.33334 -3.477877,-3.33334 -4.773672,0 -2.784891,3.6684 7.408628,13.66557 6.485229,6.3603 9.781373,10.55605 9.292853,11.82911 -0.509081,1.32664 0.784729,2.70803 3.950108,4.2175 6.864406,3.27341 5.91709,8.88321 -1.198508,7.09732 -2.051423,-0.51488 -3.344915,-2.06235 -3.854775,-4.61164 -0.592521,-2.9626 -1.699517,-4.02318 -4.858793,-4.65503 -2.687923,-0.53759 -4.519389,-1.94387 -5.338955,-4.09949 -0.686129,-1.80466 -2.589058,-3.99918 -4.228729,-4.8767 -1.63967,-0.87753 -5.887972,-4.31443 -9.440668,-7.63756 -4.681064,-4.37858 -6.861526,-5.63998 -7.919878,-4.58162 -1.058352,1.05835 2.223876,5.13958 11.921713,14.82386 7.360178,7.3499 14.190064,14.44312 15.177521,15.76274 2.853515,3.81333 15.535018,15.06594 16.979074,15.06594 0.721471,0 1.672112,-0.58305 2.112535,-1.29566 z m -0.643391,-35.93511 c 0,-1.74987 -7.906441,-9.43589 -9.706494,-9.43589 -0.825751,0 0.842171,2.4 3.706494,5.33333 5.576419,5.71077 6,6.0004 6,4.10256 z m 41.078465,53.59035 c -2.76456,-3.3311 -1.97067,-12.2285 2.00809,-22.50538 4.50791,-11.6436 11.05162,-19.5183 20.06298,-24.14381 5.86184,-3.00888 8.58224,-3.52581 18.85046,-3.58199 10.59615,-0.058 12.81007,0.36339 18.92442,3.60184 12.14766,6.43399 23.90146,23.42824 26.38961,38.15552 1.48189,8.77118 0.53489,9.20579 -20.38484,9.35542 -10.04439,0.0719 -28.57721,0.37598 -41.18405,0.67588 -19.69107,0.46842 -23.16748,0.24893 -24.66667,-1.55748 z M 192.26166,175.152 c 5.93604,-4.11368 6.15358,-5.50959 1.89787,-12.17849 -6.81631,-10.68148 -16.77111,-16.23035 -29.20236,-16.27756 -16.36392,-0.0621 -27.26403,9.33176 -29.36124,25.30405 -0.22019,1.67697 3.34364,2.15032 22.06535,2.93073 12.28036,0.5119 23.38036,1.54366 24.66666,2.29279 3.4236,1.99388 4.34444,1.80185 9.93372,-2.07152 z M 72.666666,58.618413 C 56.282463,57.701371 51.838122,56.829393 34.971927,51.222728 24.301668,47.675717 19.865545,47.264556 15.791374,49.444987 12.074838,51.434016 5.5395166,48.619075 4.5293147,44.594111 3.1558304,39.121712 5.0996543,36.161344 11.080411,34.617045 c 3.072441,-0.793338 6.754658,-1.784733 8.182706,-2.2031 1.428048,-0.418366 5.628048,-3.620448 9.333333,-7.115736 C 36.13963,18.182539 48.045039,11.663179 59.615771,8.3121407 74.366974,4.0399953 109.51506,5.9158521 126,11.855073 c 7.78337,2.80421 26.4593,8.145195 28.54836,8.164331 2.31142,0.02117 12.52173,3.389104 16.13189,5.321197 3.44971,1.846232 21.31503,5.323747 27.3564,5.324975 2.95351,6e-4 6.70351,0.935113 8.33333,2.076696 3.67151,2.571617 3.88292,8.005099 0.38434,9.877483 -3.31603,1.774684 -15.50314,1.786897 -18.80676,0.01884 -3.10166,-1.659956 -13.66462,0.64975 -18.61423,4.070208 -1.83333,1.266933 -6.81072,3.077349 -11.06085,4.023146 -4.25015,0.945796 -8.03556,2.218023 -8.41203,2.82717 -0.37648,0.609154 -2.37365,1.107548 -4.43817,1.107548 -2.06452,0 -6.14028,0.842045 -9.05726,1.87121 -6.40568,2.260058 -40.559995,3.375616 -63.698354,2.080536 z M 108.66666,48.074621 c 1.46667,-0.606873 10.78121,-2.013917 20.69898,-3.126762 C 147.19452,42.947331 160,38.950863 160,35.387175 c 0,-1.535268 -32.86318,-12.450898 -39.23371,-13.031624 -3.64218,-0.332014 -3.99524,0.06187 -5.33333,5.949957 -1.49296,6.569509 -10.05746,18.361159 -13.33606,18.361159 -0.97371,0 -2.582078,0.978033 -3.57415,2.173406 -1.626696,1.960048 -1.348218,2.083316 2.83674,1.255682 2.55228,-0.504748 5.84051,-1.414259 7.30717,-2.021134 z m -28.666661,0.505966 c 0,-0.414011 -1.82631,-2.289486 -4.058467,-4.167722 -5.670493,-4.771406 -9.274866,-12.482142 -9.274866,-19.841469 v -6.201505 l -4.705062,0.882674 C 57.042412,20.175412 52.002837,22.744 40.392069,30.2462 c -8.669361,5.601633 -9.208841,6.491152 -5.434556,8.960739 7.577208,4.957912 45.042486,12.754692 45.042486,9.373648 z M 99.339714,34.114829 c 4.044536,-4.04454 5.431806,-9.360962 3.531156,-13.532437 -1.42212,-3.121221 -1.78864,-3.194473 -11.835886,-2.365533 -5.702575,0.470486 -10.809131,1.514165 -11.347901,2.319285 -0.538771,0.805121 -0.988771,3.36052 -1,5.678664 -0.04552,9.396387 13.843469,14.709185 20.652631,7.900021 z"
       id="path430" />
  </g>
</svg>
