<?xml version="1.0" encoding="UTF-8" standalone="no"?>
<!-- Created with Inkscape (http://www.inkscape.org/) -->

<svg
   version="1.1"
   id="svg243"
   width="214.66667"
   height="132"
   viewBox="0 0 214.66667 132"
   xmlns="http://www.w3.org/2000/svg"
   xmlns:svg="http://www.w3.org/2000/svg">
  <defs
     id="defs247" />
  <g
     id="g249">
    <path
       style="fill:#000000;stroke-width:1.33333"
       d="m 64.316773,120.50618 c -2.740892,-4.1216 -5.575716,-8.6216 -6.299609,-10 -2.173958,-4.13953 -4.449391,-2.88437 -8.146702,4.49382 -4.076051,8.13399 -6.911496,11.66667 -9.364049,11.66667 -2.828472,0 -11.174791,-8.05429 -13.599401,-13.12356 -1.232189,-2.57622 -2.923937,-4.90519 -3.75944,-5.17549 -0.835502,-0.2703 -3.535502,3.5864 -6,8.57046 C 13.928066,123.44902 11.942991,126 10.095929,126 c -3.364389,0 -5.3261903,-6.53907 -2.632498,-8.77464 1.0284463,-0.85353 1.8699025,-2.41557 1.8699025,-3.47119 0,-2.92472 6.2226465,-15.441407 9.3403535,-18.787873 4.126243,-4.429001 6.221716,-3.68129 11.304524,4.033703 9.250458,14.0409 10.566255,14.44386 15.450232,4.73163 5.865854,-11.664786 11.39099,-13.83937 15.409725,-6.064963 2.450108,4.739833 9.996754,14.270913 11.330009,14.309303 0.459164,0.0132 3.016974,-4.12857 5.684024,-9.20398 2.66705,-5.075402 5.59137,-9.494326 6.498491,-9.819827 3.730211,-1.338512 9.072149,3.384912 15.133383,13.381167 3.607985,5.95033 6.756925,7.26042 8.012005,3.33334 3.00148,-9.39146 9.11488,-17.605923 12.45308,-16.732963 2.96271,0.774765 11.31349,9.772843 14.13687,15.232663 1.9068,3.68734 5.91397,5.33192 5.91397,2.42714 0,-0.77357 2.3694,-4.89559 5.26534,-9.16005 7.58424,-11.168276 11.37137,-11.395451 16.66538,-0.99969 6.40551,12.57838 10.16956,13.03391 16.04503,1.94176 2.21333,-4.178509 4.71385,-8.281995 5.55671,-9.118859 2.3007,-2.284376 6.65204,-0.306348 8.35146,3.796405 0.82722,1.997085 4.19175,7.808984 7.47672,12.915334 6.41268,9.96821 7.3916,14.51173 3.56752,16.55831 -3.57121,1.91126 -5.77768,-0.10407 -10.2586,-9.36989 -2.20158,-4.55253 -4.70629,-8.50969 -5.56601,-8.79368 -0.85972,-0.28399 -4.01321,3.67881 -7.00777,8.80621 -3.18554,5.45436 -6.65188,9.7057 -8.35412,10.24597 -3.18663,1.01139 -3.54399,0.65957 -12.15496,-11.96662 -2.79399,-4.09679 -5.49399,-7.44661 -6,-7.44405 -0.50602,0.003 -2.7172,3.33623 -4.91374,7.40815 -2.19653,4.07192 -5.34437,8.67238 -6.99517,10.22323 -2.59729,2.44003 -3.40611,2.59192 -6.00629,1.12797 C 131.98795,124.69013 124,114.05101 124,111.21881 c 0,-1.52601 -0.78323,-1.82442 -3,-1.14302 -1.65,0.50718 -3.02385,0.99761 -3.053,1.08985 -0.0292,0.0922 -1.22283,2.56769 -2.6526,5.50103 -6.46403,13.26162 -11.52192,14.62261 -18.581722,5 -2.555613,-3.48334 -4.661442,-6.99034 -4.679622,-7.79335 -0.03504,-1.54785 -5.144329,-6.68446 -5.723429,-5.75403 -0.18738,0.30106 -2.133702,4.24539 -4.325159,8.76519 C 78.420311,124.23543 74.560374,128 70.587369,128 c -0.707937,0 -3.529705,-3.37222 -6.270596,-7.49382 z M 135.66386,59.219412 C 135.18262,58.738175 108.05548,58.438475 75.381323,58.553411 36.656622,58.689631 14.12619,58.264887 10.666959,57.333412 4.3519177,55.632948 3.5762874,53.581511 3.4405089,38.220425 c -0.071544,-8.09397 0.3859573,-10.796113 2.0317259,-12 2.108104,-1.542085 18.4132472,-1.534834 62.1944332,0.02766 15.926797,0.568407 17.666667,0.409227 17.666667,-1.616317 0,-1.23575 -1.5,-4.029467 -3.333334,-6.208259 -3.836066,-4.558907 -4.224513,-8.008519 -1.238094,-10.9949365 3.784684,-3.7846846 12.571428,-1.3657462 12.571428,3.4608395 0,0.75108 1.265113,3.142289 2.811362,5.313797 2.652285,3.724789 2.950301,3.822459 5.266753,1.726097 2.44041,-2.208541 5.747,-2.188232 16.61909,0.10208 3.63978,0.766754 4.45001,0.264984 8.35707,-5.175502 4.65684,-6.4845378 7.93622,-8.2323239 13.04195,-6.9508671 4.62496,1.1607916 4.30492,6.9464541 -0.7087,12.8120211 -2.1702,2.538966 -3.9702,5.006084 -4,5.482486 -0.0299,0.476401 14.73002,0.575425 32.79962,0.220054 18.0696,-0.355372 34.77783,-0.285181 37.12942,0.155978 5.71081,1.07135 7.3501,5.080085 7.3501,17.974037 0,8.249792 -0.53241,11.100979 -2.5525,13.669111 l -2.55252,3.244992 -35.17807,0.315346 c -19.34795,0.17344 -35.57181,-0.07839 -36.05305,-0.55963 z m 9.39837,-10.219308 c 11.95089,-0.41426 25.14609,-0.289475 29.32268,0.2773 4.47991,0.607937 10.65664,0.448425 15.06316,-0.389001 6.29537,-1.196388 7.73453,-2.018506 9.15631,-5.230523 0.92781,-2.096063 1.47138,-3.988047 1.20794,-4.204409 -3.1509,-2.587812 -20.67618,-3.315 -87.14565,-3.61599 -41.066669,-0.18596 -78.954791,-0.375466 -84.19583,-0.421128 -7.652624,-0.06667 -10.094113,0.428698 -12.39803,2.515515 -4.044809,3.66366 -3.314982,10.312144 1.260524,11.482965 3.87171,0.990728 95.793536,0.692263 127.728896,-0.414729 z"
       id="path569" />
  </g>
</svg>
