<?xml version="1.0" encoding="UTF-8" standalone="no"?>
<!-- Created with Inkscape (http://www.inkscape.org/) -->

<svg
   version="1.1"
   id="svg233"
   width="108"
   height="208"
   viewBox="0 0 108 208"
   xmlns="http://www.w3.org/2000/svg"
   xmlns:svg="http://www.w3.org/2000/svg">
  <defs
     id="defs237" />
  <g
     id="g239">
    <path
       style="fill:#000000;stroke-width:1.33333"
       d="m 50.354315,202.28167 c -3.015118,-2.41771 -5.018408,-12.69706 -5.042086,-25.8721 -0.01161,-6.4586 -0.619708,-18.9429 -1.351334,-27.7429 -1.783047,-21.44648 0.500058,-26.90132 9.433185,-22.53794 l 3.39408,1.65783 0.369413,26.37529 c 0.203179,14.50643 0.90181,27.3701 1.552512,28.58595 1.073588,2.00601 0.779288,7.63947 -0.812201,15.54705 -0.797272,3.96138 -4.882645,6.12052 -7.543569,3.98682 z M 36,100 C 13.889241,99.286749 10.13548,98.283404 7.9361765,92.498799 6.1605341,87.828505 6.3442335,55.081001 8.1744665,50.019581 9.3517145,46.76396 9.2055627,43.053203 7.5077999,33.093097 4.4539303,15.177247 4.6042797,10.864526 8.3333333,9.4129595 10.80873,8.4493897 12.079206,9.0397952 15.598689,12.789258 c 2.345947,2.499242 4.965844,4.544075 5.821995,4.544075 1.133659,0 1.279391,2.445538 0.536323,9 -0.561175,4.95 -1.176783,17.4 -1.368019,27.666667 -0.357083,19.170249 -1.271996,26.763853 -3.572335,29.649687 -0.723244,0.907328 -0.937408,2.633645 -0.475921,3.83626 0.704629,1.836233 2.114985,2.04222 8.802453,1.285618 4.379863,-0.495525 9.743034,-1.521342 11.918159,-2.279596 3.169111,-1.104757 4.763829,-0.900718 8.027309,1.027066 3.927804,2.320212 4.232668,2.31947 8.578383,-0.02085 4.126405,-2.222216 5.510727,-2.284332 16.438813,-0.737629 6.563132,0.928912 12.929235,1.306627 14.146894,0.839368 1.672149,-0.641664 2.265325,-2.735933 2.423969,-8.558076 0.115525,-4.23968 0.07731,-8.608511 -0.08493,-9.708511 -0.162236,-1.1 -0.262081,-3.2 -0.221878,-4.666666 C 86.610107,63.2 85.946939,60.65 85.096195,59 c -1.213387,-2.353339 -1.138986,-3.767559 0.345165,-6.560868 1.387725,-2.611827 1.797516,-7.650389 1.537563,-18.905041 -0.336898,-14.585964 -0.196707,-15.513579 2.837085,-18.772466 1.755323,-1.885561 3.885917,-4.7782917 4.734655,-6.4282917 1.943632,-3.7785421 6.220227,-3.8756336 8.194827,-0.1860473 1.77013,3.307508 0.40277,23.397697 -1.68008,24.684969 -0.76194,0.470902 -1.130181,5.41226 -0.86887,11.65918 0.29119,6.961216 -0.17766,12.343936 -1.309888,15.038309 -1.490517,3.547008 -1.460411,4.785025 0.194555,8 1.408783,2.736736 1.784653,6.608449 1.340053,13.803589 C 99.523587,95.860848 98.266984,98.391956 91.530275,99.241967 82.512356,100.37981 58.103432,100.71301 36,100 Z"
       id="path708" />
  </g>
</svg>
