<?xml version="1.0" encoding="UTF-8" standalone="no"?>
<!-- Created with Inkscape (http://www.inkscape.org/) -->

<svg
   version="1.1"
   id="svg223"
   width="78.666664"
   height="217.33333"
   viewBox="0 0 78.666664 217.33333"
   xmlns="http://www.w3.org/2000/svg"
   xmlns:svg="http://www.w3.org/2000/svg">
  <defs
     id="defs227" />
  <g
     id="g229">
    <path
       style="fill:#000000;stroke-width:1.33333"
       d="m 21.599873,210.85961 c -0.953403,-0.60476 -1.755616,-2.24556 -1.782698,-3.64625 -0.05795,-2.99722 2.976664,-11.4528 5.045423,-14.05847 2.938661,-3.70135 6.243384,-24.61735 5.206672,-32.95368 -0.453826,-3.64927 -2.22321,-7.69531 -4.77329,-10.91504 -3.820758,-4.82411 -4.288367,-5.03391 -8.188886,-3.67417 -3.68421,1.28432 -4.405356,1.0927 -6.592269,-1.75163 -2.1763682,-2.83063 -3.3767995,-10.82872 -2.5805969,-17.19371 0.3703716,-2.96081 4.0717699,-5.33333 8.3206109,-5.33333 2.856271,0 3.74516,-0.63291 3.74516,-2.66667 0,-2.64249 -1.552614,-4.5422 -8.43813,-10.32451 -4.4543256,-3.74065 -4.501636,-6.08637 -0.179867,-8.918098 2.954288,-1.935724 3.270176,-2.840389 2.497784,-7.153347 -0.48632,-2.715554 -1.638402,-5.837373 -2.560184,-6.937373 -0.921781,-1.1 -2.3624732,-7.4 -3.201538,-14 -0.8390646,-6.6 -1.9876857,-15.3 -2.5524911,-19.333333 C 4.0268411,41.011757 4.5268456,19.832652 6.433673,15.229162 8.8558036,9.3816219 15.149291,6.1522551 24.666666,5.8732991 57.878783,4.8998458 66.110216,5.7573704 64.474362,10.020339 63.953214,11.378428 64.582032,12 66.4771,12 c 4.982923,0 6.201103,4.710297 6.03448,23.333333 -0.08529,9.533333 -0.90245,21.233333 -1.815901,25.999999 -0.913451,4.766667 -2.119507,11.966667 -2.680124,16 -0.560617,4.033333 -1.684663,9.398693 -2.497879,11.923023 -1.254586,3.894404 -1.077566,5.269344 1.16854,9.076213 4.049919,6.864102 3.44109,8.660932 -4.156909,12.268222 -3.742212,1.77668 -7.109337,4.02597 -7.4825,4.99842 -1.110509,2.89394 2.312,5.73412 6.9098,5.73412 5.451489,0 8.332537,3.16953 9.496275,10.44714 1.361408,8.51378 -1.004902,11.97982 -8.893193,13.02623 -4.813902,0.63859 -7.389212,1.92219 -10.690816,5.32858 l -4.349308,4.48736 1.682021,9.68868 c 0.925112,5.32877 2.27413,14.18868 2.997818,19.68868 1.04098,7.91141 2.150727,11.05097 5.313403,15.032 5.531519,6.9628 4.827882,10.73916 -2.179476,11.69706 -2.933333,0.40098 -6.332782,0.25692 -7.55433,-0.32013 -1.221548,-0.57705 -5.353441,-0.45512 -9.181986,0.27095 -8.414188,1.59572 -14.660694,1.66177 -16.997142,0.17973 z m 20.032444,-12.60013 c 4.54806,-2.07596 4.856413,-2.55388 3.666667,-5.68316 -0.714442,-1.87912 -1.338675,-5.32752 -1.387184,-7.66312 -0.04851,-2.33559 -1.151828,-7.50371 -2.451816,-11.48471 l -2.363617,-7.23817 -0.811767,11.50284 c -0.456271,6.4654 -1.76042,13.33732 -2.977989,15.69185 -2.044395,3.95341 -1.817096,8.77689 0.360756,7.65556 0.549614,-0.28299 3.233842,-1.53448 5.96495,-2.78109 z m 5.030151,-57.89032 c 5.3843,-6.84503 0.821732,-17.7025 -7.439012,-17.7025 -8.593341,0 -13.095052,11.74998 -6.991038,18.2474 4.146889,4.41416 10.724631,4.16578 14.43005,-0.5449 z m -1.662804,-29.3475 c 0.385769,-1.17203 -1.405265,-1.60115 -6.229107,-1.49247 -4.897699,0.11034 -6.770558,0.67779 -6.770558,2.05139 0,2.42755 12.189174,1.90347 12.999665,-0.55892 z m 5.667001,-12.354995 c 0,-0.733333 -0.6,-1.333333 -1.333333,-1.333333 -0.733334,0 -1.333334,0.6 -1.333334,1.333333 0,0.733333 0.6,1.333333 1.333334,1.333333 0.733333,0 1.333333,-0.6 1.333333,-1.333333 z m -12,-15.333333 c 0,-1.1 -0.6,-2 -1.333333,-2 -0.733333,0 -1.333333,0.9 -1.333333,2 0,1.1 0.6,2 1.333333,2 0.733333,0 1.333333,-0.9 1.333333,-2 z m 21.76976,-15 c 4.524639,-25.03465 5.490386,-34.636899 3.846477,-38.244886 -2.049703,-4.498606 -5.533259,-4.222114 -9.466616,0.75137 -2.964412,3.748313 -3.124965,4.776462 -2.330836,14.926227 0.469083,5.995343 1.240567,16.150623 1.714408,22.567289 0.579551,7.848172 1.396085,11.666667 2.49476,11.666667 1.003661,0 2.446033,-4.497203 3.741807,-11.666667 z m -39.822003,3.333334 c 2.326945,-10.493895 3.326035,-29.984744 1.906783,-37.198664 -0.844151,-4.290734 -1.963764,-7.801336 -2.48803,-7.801336 -0.524265,0 -2.096201,1.267859 -3.493192,2.817466 -2.140566,2.374412 -2.528034,4.838027 -2.463997,15.666666 0.112494,19.021502 4.370885,36.290937 6.538436,26.515868 z M 44.503709,49.680571 c 2.024836,-14.772792 0.434392,-20.347238 -5.805266,-20.347238 -2.130919,0 -4.309433,0.703901 -4.841143,1.564225 -1.474769,2.386227 -1.546821,22.983009 -0.08385,23.969108 0.707181,0.476666 3.224125,0.866666 5.593209,0.866666 4.099935,0 4.347389,-0.291564 5.137049,-6.052761 z M 46.399998,18.4 c 2.971234,-2.971234 1.628276,-3.866236 -5.399999,-3.598788 -8.406396,0.31989 -9.615919,0.850084 -7.568152,3.317492 1.904902,2.295266 10.762057,2.48739 12.968151,0.281296 z"
       id="path847" />
  </g>
</svg>
