<?xml version="1.0" encoding="UTF-8" standalone="no"?>
<!-- Created with Inkscape (http://www.inkscape.org/) -->

<svg
   version="1.1"
   id="svg213"
   width="218.66667"
   height="209.33333"
   viewBox="0 0 218.66667 209.33333"
   xmlns="http://www.w3.org/2000/svg"
   xmlns:svg="http://www.w3.org/2000/svg">
  <defs
     id="defs217" />
  <g
     id="g219">
    <path
       style="fill:#000000;stroke-width:1.33333"
       d="m 98.755884,201.42254 c -1.515735,-1.51573 -2.755883,-3.97073 -2.755883,-5.45554 0,-1.66606 -1.300156,-3.19399 -3.395837,-3.99076 -1.993151,-0.7578 -20.191398,-1.15528 -44.057079,-0.96231 l -40.6612425,0.3288 -0.7584776,-3.02201 c -1.5919439,-6.34282 0.709231,-6.97478 26.0358961,-7.15007 12.926873,-0.0895 31.876533,-0.53948 42.110353,-1 l 18.606947,-0.83732 1.393054,-5.33605 c 2.006041,-7.68408 2.852486,-8.57719 7.066095,-7.45567 2.88419,0.76768 3.80165,1.94439 4.32696,5.54965 0.88007,6.04 4.21193,5.99068 6.16609,-0.0913 1.11378,-3.46641 2.3534,-4.77071 4.81972,-5.07116 2.78732,-0.33957 3.77836,0.57001 6.17406,5.66667 1.72662,3.67322 3.77269,6.10918 5.18029,6.16745 17.15797,0.71012 59.27472,0.59768 66.89165,-0.17857 10.98623,-1.11964 15.39667,-0.0904 16.42251,3.83238 1.85825,7.106 -4.46883,8.22266 -50.73961,8.95492 -20.03026,0.317 -36.98026,0.92347 -37.66668,1.3477 -0.68642,0.42429 -1.24803,2.51486 -1.24803,4.64578 0,8.16311 -8.72767,7.52706 -9.58371,-0.69844 -0.58984,-5.66762 -5.17756,-5.5535 -6.65954,0.16566 -1.64704,6.35612 -4.3084,7.94936 -7.667536,4.59022 z M 38.792674,94.151828 c -2.86962,-3.457681 -1.046212,-6.697369 5.54066,-9.844212 3.972529,-1.897855 6.327061,-3.8859 6.316508,-5.333333 -0.02216,-3.039466 -13.698377,-14.974284 -17.159167,-14.974284 -7.955984,0 -13.174689,-7.071571 -14.468267,-19.605124 -0.80298,-7.780124 1.443342,-12.782574 6.845138,-15.243797 1.682912,-0.766785 4.04903,-3.63621 5.258044,-6.376498 3.528253,-7.996968 18.767169,-17.4657941 28.037243,-17.4211717 10.200219,0.0491 18.736059,5.5519547 22.885482,14.7537317 1.796326,3.983542 3.820034,5.927868 8.174902,7.854233 6.744887,2.983583 8.443451,6.349018 8.443451,16.729356 0,12.072297 -4.349917,19.30927 -11.606196,19.30927 -5.962543,0 -10.88236,2.735451 -15.474262,8.603789 -5.081089,6.493511 -3.990342,10.062877 3.07507,10.062877 7.685855,0 11.491663,4.762999 7.672055,9.601638 -2.499318,3.166109 -41.09071,4.835534 -43.540661,1.883525 z M 64.728237,66.060203 c 2.553421,-1.066888 5.023559,-3.016888 5.489191,-4.333333 0.465633,-1.316446 1.908612,-3.593538 3.206617,-5.060204 1.298007,-1.466667 2.79266,-5.008813 3.321454,-7.871437 l 0.961442,-5.204771 -4.947163,0.802815 c -6.763182,1.097513 -11.426444,-0.850035 -11.426444,-4.7721 0,-5.146195 2.956488,-7.88784 8.505952,-7.88784 6.239194,0 7.297911,-2.303173 3.450706,-7.506797 -3.267488,-4.419515 -15.313528,-9.011686 -20.333895,-7.751654 -4.122076,1.034576 -12.435007,10.06354 -13.52144,14.686108 -0.877859,3.735123 -0.793256,3.80664 3.499534,2.958267 8.324172,-1.645086 9.37664,-1.456179 12.120821,2.175552 2.353761,3.11504 2.513797,4.127824 1.131617,7.16138 -1.513183,3.321074 -2.047499,3.496944 -8.898239,2.928826 -6.84188,-0.567381 -7.288389,-0.421234 -7.288389,2.385558 0,2.691502 9.034558,15.772779 12.576016,18.209009 2.256031,1.551962 7.117775,1.184146 12.15222,-0.919379 z M 51.825075,60.271344 c -1.166104,-0.217426 -2.785713,-1.85599 -3.599133,-3.64125 -1.245443,-2.733451 -1.078103,-3.460454 1.059903,-4.604679 3.225145,-1.726046 7.386868,-1.712484 13.714156,0.04469 4.041515,1.122383 5,2.015545 5,4.65923 0,1.798864 -0.75,3.354175 -1.666667,3.456247 -3.647534,0.406156 -12.50898,0.458536 -14.508259,0.08576 z M 31.906287,51.666666 c -0.05154,-0.916667 -0.562764,-2.866667 -1.136048,-4.333333 -1.010219,-2.584503 -1.071605,-2.5746 -1.992349,0.321401 -1.003239,3.155468 -0.129048,5.678598 1.967466,5.678598 0.690055,0 1.212474,-0.75 1.160931,-1.666666 z M 187.70944,89.666665 c -1.58774,-1.818546 -2.24208,-7.775366 -2.96588,-26.999999 -1.86845,-49.627644 -1.91393,-49.267185 6.2222,-49.312916 2.72163,-0.01529 4.16668,1.012724 5.76314,4.099926 1.17189,2.266189 1.78337,5.025521 1.35882,6.13185 -0.42453,1.10633 -0.10853,16.430009 0.70236,34.052621 1.60059,34.786972 1.67999,34.298574 -5.58342,34.341434 -1.90302,0.0112 -4.37676,-1.029582 -5.49722,-2.312916 z"
       id="path986" />
  </g>
</svg>
