<?xml version="1.0" encoding="UTF-8" standalone="no"?>
<!-- Created with Inkscape (http://www.inkscape.org/) -->

<svg
   version="1.1"
   id="svg283"
   width="205.33333"
   height="144"
   viewBox="0 0 205.33333 144"
   xmlns="http://www.w3.org/2000/svg"
   xmlns:svg="http://www.w3.org/2000/svg">
  <defs
     id="defs287" />
  <g
     id="g289">
    <path
       style="fill:#000000;stroke-width:1.33333"
       d="m 82.222221,136.44444 c -1.87701,-1.877 -0.743958,-5.1265 2.762424,-7.92239 3.436416,-2.7401 3.554126,-3.18023 2,-7.47808 -0.908222,-2.51165 -1.651313,-6.36944 -1.651313,-8.57288 0,-2.54938 -1.212167,-5.14502 -3.333333,-7.13776 -1.833334,-1.72232 -3.333334,-4.22691 -3.333334,-5.565749 0,-1.338836 -0.9,-2.434248 -2,-2.434248 -1.1,0 -2,0.770234 -2,1.71163 0,5.222907 -18.365214,28.316947 -23.666666,29.760547 -1.65,0.4493 -3,1.30901 -3,1.91046 0,2.20781 -4.278909,5.28403 -7.349882,5.28403 -3.801052,0 -5.115738,-1.76581 -3.979664,-5.34527 C 37.313557,128.6285 38.691502,128 42.490829,128 c 4.49968,0 5.264153,-0.54428 7.959138,-5.66667 1.639739,-3.11666 5.362181,-9.41646 8.272095,-13.99954 2.909913,-4.58309 6.143226,-10.807215 7.185141,-13.831395 1.892837,-5.494 1.890184,-5.503832 -3.233465,-11.985736 C 59.853416,78.948685 55.606876,72.572811 53.236982,68.348051 44.354427,52.513308 41.094587,50.666667 22.024366,50.666667 c -15.2173646,0 -16.49521,-0.619616 -14.844188,-7.197812 0.6885587,-2.743435 2.0396877,-3.407539 9.617474,-4.727154 12.932893,-2.252165 20.812651,-5.150768 24.202347,-8.902937 3.111338,-3.444043 3.924196,-8.374031 1.743132,-10.572097 C 41.020607,17.530715 38.713973,6.7614891 39.580829,4.5024985 40.309105,2.6046395 46.146081,2.038944 49.947745,3.4977796 c 4.231551,1.6237988 7.038274,10.0233044 8.029353,24.0289524 0.944788,13.351492 1.02023,13.586116 5.823378,18.110545 7.466092,7.03285 17.558589,13.02939 21.929159,13.02939 5.193037,0 33.583865,-6.399042 39.883355,-8.989356 5.68133,-2.336128 19.08609,-1.429939 25.13745,1.699344 4.92361,2.546102 19.137,18.291829 25.0469,27.74722 2.67812,4.284797 6.58579,9.684797 8.68368,12 2.0979,2.315202 4.93254,6.661246 6.29919,9.657875 1.36665,2.99663 4.62191,8.99663 7.23391,13.33333 5.10132,8.46973 5.61505,13.21825 1.43002,13.21825 -3.35812,0 -28.70604,-31.75853 -34.2715,-42.938966 -4.29356,-8.625284 -12.32734,-18.957224 -13.70159,-17.621115 -0.72184,0.701795 0.76265,7.03309 4.68204,19.968771 0.79023,2.608112 3.09941,5.859463 5.13151,7.225223 4.39721,2.955349 6.7154,11.253267 6.7154,24.037707 0,7.58243 -0.37131,8.76024 -3.54998,11.26058 -4.34396,3.41696 -8.66713,4.60178 -12.43152,3.40701 -4.02929,-1.27885 -2.96149,-5.95218 1.9815,-8.67222 3.40348,-1.87287 4.05944,-3.1022 4.3986,-8.24331 0.29721,-4.50544 -0.38102,-7.26324 -2.66667,-10.84316 -1.68589,-2.64054 -3.6968,-4.82638 -4.46868,-4.85742 -0.77188,-0.031 -4.46025,-3.049734 -8.1964,-6.708215 -7.44229,-7.287608 -8.40019,-6.975662 -8.40019,2.73559 0,2.937684 -1.6879,8.834655 -3.88063,13.557615 -2.13435,4.59722 -4.94555,10.95312 -6.24713,14.12423 -1.73889,4.23655 -3.74968,6.47129 -7.58197,8.42638 -6.18509,3.1554 -8.95693,2.47977 -8.95693,-2.18318 0,-2.41049 0.97787,-3.77997 3.34046,-4.67823 3.6607,-1.39179 5.57897,-5.17873 9.83982,-19.42522 3.11941,-10.429972 3.45315,-15.034243 1.53263,-21.144069 -0.7079,-2.252066 -1.61933,-5.744664 -2.0254,-7.761331 -0.40608,-2.016667 -1.45076,-3.666667 -2.32153,-3.666667 -1.59108,0 -23.44324,12.858675 -28.297779,16.651532 -2.380769,1.8601 -2.446854,2.448443 -0.788805,7.02266 0.995312,2.745862 1.966019,7.392475 2.157125,10.325805 0.191108,2.93334 1.363744,8.17286 2.60586,11.64339 2.841137,7.93827 1.790249,12.35144 -3.744832,15.72632 -4.525952,2.75959 -6.608134,3.2086 -8.075328,1.7414 z M 94.17595,77.837627 c 2.83656,-2.182996 8.60738,-6.016278 12.82405,-8.518404 7.12091,-4.225475 10.52837,-8.036 5.4399,-6.08337 -4.29604,1.648544 -13.202174,3.22385 -23.443768,4.146704 -9.624168,0.867218 -10.842957,0.675578 -17.669453,-2.778313 -4.032739,-2.04038 -7.6726,-3.369436 -8.088579,-2.953457 -1.218696,1.218696 4.729508,13.345586 8.569203,17.470446 3.170924,3.406422 4.215148,3.732387 10.368648,3.236688 4.991174,-0.402068 8.238077,-1.625148 11.999999,-4.520294 z m 49.16085,-2.17096 C 141.99132,69.003909 134.96986,60.585684 132.67347,62.882084 130.78284,64.772716 139.97329,80 143.00502,80 c 0.66378,0 0.81307,-1.95 0.33178,-4.333333 z m -21.6083,-14.4715 c -1.0546,-1.054594 -2.16899,-1.06608 -3.93334,-0.04055 -2.15816,1.254444 -1.97665,1.435956 1.4715,1.471499 2.86844,0.02957 3.53495,-0.357844 2.46184,-1.430955 z"
       id="path1090" />
  </g>
</svg>
