<?xml version="1.0" encoding="UTF-8" standalone="no"?>
<!-- Created with Inkscape (http://www.inkscape.org/) -->

<svg
   version="1.1"
   id="svg203"
   width="206.66667"
   height="109.33333"
   viewBox="0 0 206.66667 109.33333"
   xmlns="http://www.w3.org/2000/svg"
   xmlns:svg="http://www.w3.org/2000/svg">
  <defs
     id="defs207" />
  <g
     id="g209">
    <path
       style="fill:#000000;stroke-width:1.33333"
       d="m 29.627958,100.57382 c -0.911835,-1.629362 -0.892207,-3.396478 0.06096,-5.488451 1.313991,-2.883897 2.197183,-3.091728 13.525103,-3.182709 16.986304,-0.136428 26.131588,-1.625469 28.314008,-4.610107 2.42496,-3.31633 2.206834,-7.380019 -0.572387,-10.663533 C 66.78153,71.697511 55.915008,64.193019 51.592279,63.256555 46.226875,62.094207 31.145423,54.367008 26.4295,50.364041 22.625628,47.135241 16,35.086575 16,31.398056 c 0,-1.342709 -2.362325,-3.25964 -6,-4.868757 -8.741191,-3.866644 -8.2599398,-7.271102 2.132112,-15.082947 12.005392,-9.0246154 15.651592,-8.7871423 41.201222,2.68339 10.633334,4.773845 22.050931,10.107775 25.372439,11.853176 11.254979,5.914317 33.828267,14.533734 54.627567,20.85907 3.75765,1.142749 12.4779,1.824677 23.33333,1.824677 15.42315,0 17.95196,-0.330609 22.94688,-3 3.43927,-1.838012 7.94297,-3 11.62761,-3 5.95943,0 6.04468,0.06475 9.38644,7.128655 1.85483,3.920761 3.3724,8.050173 3.3724,9.17647 0,1.126299 -2.4,4.447816 -5.33333,7.381149 -4.12772,4.127726 -5.33333,6.356635 -5.33333,9.860188 0,4.22764 -2.78144,9.947501 -5.84755,12.025114 -0.73449,0.497702 -3.76928,-0.48173 -6.74395,-2.176513 C 171.93487,81.04407 154.14815,76.730112 136.66667,75.371818 131.53334,74.972962 124.48334,74.273103 121,73.816575 c -5.87237,-0.769636 -6.33333,-0.618521 -6.33333,2.076232 0,1.598456 -0.92452,4.694108 -2.05449,6.879228 -3.21289,6.213041 -1.81047,6.859968 12.64885,5.834852 C 141.78792,87.435188 144,88.087375 144,94.131693 c 0,2.540265 -0.75,4.857891 -1.66666,5.150279 -2.21527,0.7066 -32.25522,1.840238 -75.846946,2.862278 -33.320879,0.78123 -35.596642,0.68427 -36.858436,-1.57043 z M 99.25773,87.703323 c 3.28195,-4.685644 2.48164,-7.392468 -3.457779,-11.694963 -6.853962,-4.964982 -7.79995,-4.988562 -7.79995,-0.194425 0,2.097665 -1.5,6.024311 -3.333333,8.725878 -1.833333,2.701568 -3.333333,5.185296 -3.333333,5.519396 0,0.3341 3.565977,0.607455 7.924394,0.607455 6.677355,0 8.251027,-0.466333 10.000001,-2.963341 z m 81.81179,-19.946696 c 0.23359,-1.233854 -0.6615,-2.820714 -1.98908,-3.526354 -2.58664,-1.374866 -20.10757,-2.120198 -36.41377,-1.549024 l -10,0.35028 8,1.068317 c 10.78384,1.440071 21.67321,3.448272 27.33333,5.040769 6.79098,1.910668 12.5615,1.299604 13.06952,-1.383988 z M 110.66667,51.333332 c 0,-1.234214 -1.25229,-2 -3.2706,-2 -3.94441,0 -9.325047,-2.234269 -14.729402,-6.116279 C 87.999911,39.864869 72.281054,31.675335 64.837169,28.717867 58.36867,26.147922 55.163246,26.116093 54.205364,28.612292 c -0.410634,1.070096 -2.724827,2.45477 -5.142653,3.077054 -6.411301,1.650098 -6.675561,6.643675 -0.559193,10.566765 9.207334,5.905661 31.830787,10.202803 46.310248,8.796257 4.386346,-0.426094 8.522584,-0.121414 10.000004,0.736609 3.55167,2.062671 5.8529,1.883521 5.8529,-0.455645 z M 33.854699,38.725159 c -0.746277,-4.666968 -0.373933,-5.744387 3.231039,-9.349359 2.240985,-2.240985 5.901955,-4.440006 8.135488,-4.886713 l 4.060969,-0.812193 -2.97443,-2.316587 c -2.966839,-2.310674 -10.927236,-6.693641 -12.157074,-6.693641 -0.35662,0 -0.836416,1.95 -1.066213,4.333333 -0.404269,4.19289 -0.602129,4.325087 -6.104836,4.078876 -5.579512,-0.249648 -5.648831,-0.199928 -3.666667,2.630008 1.111197,1.586456 2.020359,3.761528 2.020359,4.833492 0,3.502372 5.524462,13.457624 7.468032,13.457624 1.462695,0 1.703769,-1.20724 1.053333,-5.27484 z"
       id="path1125" />
  </g>
</svg>
