<?xml version="1.0" encoding="UTF-8" standalone="no"?>
<!-- Created with Inkscape (http://www.inkscape.org/) -->

<svg
   version="1.1"
   id="svg113"
   width="214.66667"
   height="60"
   viewBox="0 0 214.66667 60"
   xmlns="http://www.w3.org/2000/svg"
   xmlns:svg="http://www.w3.org/2000/svg">
  <defs
     id="defs117" />
  <g
     id="g119">
    <path
       style="fill:#000000;stroke-width:1.33333"
       d="M 40.666667,51.522248 C 37.000001,49.885853 31.9,47.567775 29.333334,46.370963 26.766667,45.174149 20.616667,42.382601 15.666667,40.167521 8.8697427,37.125961 6.6666668,35.483061 6.6666668,33.455955 c 0,-1.476283 0.75,-3.316258 1.6666667,-4.088832 3.9943295,-3.366458 11.9418895,-8.03379 13.6799815,-8.03379 1.042191,0 5.671036,-2.075629 10.286324,-4.61251 9.753364,-5.361122 18.324846,-8.5674714 20.700362,-7.7434221 3.383237,1.1736201 1.501756,5.5021201 -4.288862,9.8668751 -6.366837,4.799088 -7.102688,7.403503 -1.909526,6.75844 1.759113,-0.218507 18.198388,-0.659449 36.531722,-0.979873 39.318205,-0.68719 53.821705,-1.356011 56.979205,-2.627564 1.27188,-0.512206 4.13125,-4.11008 6.35413,-7.995279 5.41708,-9.4680728 10.74373,-11.5493523 13.58708,-5.3088761 1.31097,2.8772701 1.11608,3.7433401 -1.36192,6.0519401 -2.79339,2.602437 -3.94143,6.597493 -1.89183,6.583387 0.55,-0.0037 3.1,-3.320552 5.66667,-7.370591 6.85184,-10.8117639 14.29441,-11.8368063 12.94592,-1.782999 -0.38069,2.83826 -0.14927,5.160472 0.51429,5.160472 0.66355,0 1.20646,-0.857278 1.20646,-1.905064 0,-1.047785 2.06062,-4.089966 4.57917,-6.7604025 4.02141,-4.2639434 4.92995,-4.6676124 7.45899,-3.3141093 1.99385,1.0670732 2.63606,2.3265037 2.08749,4.0937363 -2.73015,8.7953105 -2.72299,8.8466745 0.72787,5.2191735 1.74405,-1.833334 4.22932,-4.9833337 5.52281,-7.0000003 C 200.56851,3.2094935 208,2.3163165 208,6.4298909 c 0,2.1717111 -5.63457,13.3600731 -9.6062,19.0746881 -1.19193,1.715012 -0.90154,2.943506 1.38194,5.846478 1.59001,2.021378 2.89093,5.382887 2.89093,7.470019 0,2.957428 0.75161,3.983427 3.40619,4.649683 2.72752,0.684565 3.32525,1.553017 3,4.358736 -0.56846,4.903576 -6.072,5.450697 -10.23664,1.017648 -2.95798,-3.148615 -3.16758,-3.182448 -5.4675,-0.882528 -2.7067,2.70671 -9.13256,2.20223 -10.28756,-0.807655 -1.07318,-2.796664 -2.84669,-2.168588 -3.32176,1.176373 -0.74646,5.256 -6.64101,4.654768 -12.34912,-1.259586 L 162.51347,42 l 0.40993,4.666667 c 0.3819,4.347485 0.1272,4.694226 -3.72414,5.069617 -3.3915,0.330571 -4.90502,-0.507687 -8.42591,-4.666667 C 140.57359,35.021371 141.60983,35.6163 132.72432,36.707184 128.29261,37.251269 123.46667,37.623592 122,37.534568 c -1.46666,-0.08902 -10.76666,0.365468 -20.66667,1.009985 -9.899995,0.644516 -23.469347,0.746723 -30.154112,0.227126 -14.19141,-1.103078 -21.845884,-0.469427 -21.845884,1.808444 0,0.891938 1.524953,3.054325 3.388784,4.805304 8.0807,7.591424 0.196641,11.6048 -12.055451,6.136821 z M 178.66667,40.666667 c -0.94233,-1.135444 -2.01333,-1.764443 -2.38,-1.397776 -0.36667,0.366666 0.10427,1.595665 1.04667,2.731109 0.94233,1.135444 2.01333,1.764443 2.38,1.397776 0.36666,-0.366667 -0.10427,-1.595665 -1.04667,-2.731109 z"
       id="path1264" />
  </g>
</svg>
