<?xml version="1.0" encoding="UTF-8" standalone="no"?>
<!-- Created with Inkscape (http://www.inkscape.org/) -->

<svg
   version="1.1"
   id="svg245"
   width="221.33333"
   height="206.66667"
   viewBox="0 0 221.33333 206.66667"
   xmlns="http://www.w3.org/2000/svg"
   xmlns:svg="http://www.w3.org/2000/svg">
  <defs
     id="defs249" />
  <g
     id="g251">
    <path
       style="fill:#000000;stroke-width:1.33333"
       d="m 118.85224,197.22536 c -1.37435,-1.47518 -3.62834,-4.90438 -5.00886,-7.62042 -1.38053,-2.71606 -3.7939,-6.73827 -5.36305,-8.93827 -1.56915,-2.2 -4.70572,-7.70629 -6.97016,-12.2362 -2.264441,-4.52992 -4.702082,-8.59771 -5.416983,-9.03953 -0.7149,-0.44184 -3.480179,-5.27584 -6.145064,-10.74224 -2.664884,-5.46639 -6.443392,-11.33415 -8.396684,-13.03946 -3.709103,-3.2382 -5.767519,-6.29197 -9.804065,-14.54483 -2.946003,-6.02321 -3.05832,-8.90087 -0.387411,-9.92579 2.749119,-1.05494 15.891809,12.90306 20.270558,21.52805 1.8615,3.66667 5.106156,8.85301 7.210346,11.5252 2.104193,2.6722 3.850183,5.3722 3.879983,6 0.0298,0.62781 1.82981,3.2188 4,5.75777 2.1702,2.53896 3.94582,6.05262 3.94582,7.80811 0,1.79807 1.42468,4.31245 3.26268,5.75823 4.3689,3.43658 14.36547,21.75104 13.83018,25.33793 -0.64293,4.30812 -5.81912,5.68621 -8.90729,2.37145 z m 29.80192,-9.55869 c -2.68783,-3.11667 -6.05134,-7.92561 -7.47447,-10.68655 -1.42313,-2.76093 -6.77075,-11.41186 -11.8836,-19.22428 C 121.4569,145.77758 120,142.65859 120,137.85442 c 0,-10.81135 4.96068,-9.4277 13.70638,3.82302 8.55744,12.9655 13.62147,20.44282 21.96028,32.42564 7.28136,10.46326 7.91951,12.35411 5.61976,16.65124 -2.33182,4.35706 -7.24826,3.15535 -12.63226,-3.08765 z M 89.002893,60.55845 C 88.671324,60.226882 85.460031,59.668917 81.866687,59.31853 61.674486,57.349588 46.87363,53.765734 29.086158,46.538346 c -3.435946,-1.396089 -6.89881,-2.538345 -7.695254,-2.538345 -2.539807,0 -11.9444136,-6.876326 -12.7119181,-9.294519 C 8.2722871,33.424087 8.2625337,31.541147 8.6573119,30.52117 10.265186,26.366954 25.779724,18.735604 32.718077,18.686071 34.213019,18.675399 37.789885,17.466667 40.666666,16 c 2.876781,-1.466666 6.333443,-2.666666 7.681469,-2.666666 1.348027,0 4.142959,-0.874969 6.210962,-1.944374 C 56.855356,10.201518 60.11141,9.735438 62.92311,10.191714 65.455315,10.602635 73.43962,9.931679 80.666008,8.7007019 90.1776,7.0804521 100.97416,6.5039013 119.7736,6.6123034 c 14.28278,0.082359 26.56425,0.5178104 27.29214,0.9676722 1.42727,0.8820996 13.30423,3.4973184 28.26759,6.2243154 5.13333,0.935523 11.85943,3.012272 14.94688,4.614997 3.08745,1.602726 6.61243,2.914046 7.83328,2.914046 1.22084,0 5.69463,1.559442 9.94172,3.465429 8.15957,3.661797 10.12663,6.689611 8.51573,13.107942 -0.61952,2.468344 -2.85186,4.05617 -9.37277,6.666666 -4.70776,1.884647 -9.23753,3.42663 -10.06616,3.42663 -0.82863,0 -3.97232,1.145364 -6.98597,2.545252 -3.01366,1.399888 -12.97938,3.561713 -22.14604,4.804055 -9.16667,1.242341 -18.16667,2.786129 -20,3.43064 -3.44078,1.209608 -57.923584,2.852025 -58.997107,1.778502 z M 142.26526,47.58141 c 0.81674,-0.504768 4.99118,-1.493147 9.27652,-2.196397 4.28535,-0.70325 10.79155,-1.92943 14.45822,-2.724846 3.66666,-0.795414 8.3637,-1.794352 10.43786,-2.219861 2.19366,-0.450025 4.37474,-2.098303 5.21402,-3.940312 1.49229,-3.275228 4.24194,-4.162501 5.68145,-1.833327 0.45323,0.733334 2.28864,1.333334 4.07869,1.333334 8.45591,0 -1.1255,-6.145714 -12.28692,-7.881079 -4.28548,-0.666302 -11.09177,-2.186927 -15.1251,-3.37917 -21.21028,-6.2697 -46.48437,-7.902256 -77.333335,-4.995276 -13.934749,1.31311 -18.253395,2.107334 -23.333333,4.291138 -1.466666,0.630502 -5.066666,1.445708 -7.999999,1.811568 -13.501303,1.683948 -21.051774,3.468113 -24.847576,5.871445 -2.264281,1.433642 -3.599873,2.900672 -2.967983,3.260068 5.632728,3.203688 49.389409,12.448927 61.114701,12.912771 3.647861,0.144307 6.76982,0.39972 6.937685,0.567585 0.771963,0.771963 45.38265,-0.06651 46.6951,-0.877641 z"
       id="path273" />
  </g>
</svg>
