<?xml version="1.0" encoding="UTF-8" standalone="no"?>
<!-- Created with Inkscape (http://www.inkscape.org/) -->

<svg
   version="1.1"
   id="svg235"
   width="128"
   height="214.66667"
   viewBox="0 0 128 214.66667"
   xmlns="http://www.w3.org/2000/svg"
   xmlns:svg="http://www.w3.org/2000/svg">
  <defs
     id="defs239" />
  <g
     id="g241">
    <path
       style="fill:#000000;stroke-width:1.33333"
       d="m 41.333333,208.03368 c -1.1,-0.7294 -7.503965,-1.33537 -14.231033,-1.3466 -11.197759,-0.0187 -12.577593,-0.31202 -16.333333,-3.47226 C 4.8916405,198.26936 5.0888575,192.15911 11.333333,185.72938 13.9,183.08656 16,180.44838 16,179.86674 c 0,-1.63479 13.987772,-10.5334 16.557499,-10.5334 1.254816,0 5.092713,-1.14226 8.52866,-2.53835 10.623982,-4.31672 19.324324,-7.011 25.580508,-7.92164 5.297301,-0.77107 6.04941,-1.30277 6.421896,-4.54001 0.414618,-3.60342 0.296444,-3.66667 -6.850844,-3.66667 -4.000007,0 -12.507819,1.51707 -18.906248,3.37125 -8.36937,2.42535 -12.110486,2.97542 -13.333472,1.96042 -0.982844,-0.81568 -3.926167,-1.05486 -6.977284,-0.56696 -4.666928,0.74626 -5.609474,0.42161 -8.149019,-2.8069 -3.86412,-4.91242 -3.634021,-6.72502 1.461637,-11.514 6.151743,-5.78149 14.825548,-9.35004 24.641712,-10.13798 l 8.471594,-0.68002 -3.030939,-3.22629 c -1.667016,-1.77445 -3.942509,-5.67762 -5.056652,-8.6737 -2.130189,-5.72836 -3.698091,-7.07725 -9.692381,-8.33848 -4.357316,-0.9168 -4.694096,-3.37756 -0.928628,-6.78527 2.257466,-2.04297 2.579565,-3.415873 1.835148,-7.822039 -0.496588,-2.939284 -1.378656,-6.267226 -1.960151,-7.395426 -0.581495,-1.1282 -1.780104,-4.001274 -2.663577,-6.384607 -0.883472,-2.383333 -2.023178,-4.333333 -2.532679,-4.333333 -0.909697,0 -4.660315,23.274605 -5.956264,36.961825 -0.832069,8.78794 -2.606577,12.10638 -7.073277,13.22745 -7.8458267,1.96918 -15.1196869,-7.37614 -7.882757,-10.12761 5.031597,-1.91301 7.662497,-7.01896 8.423157,-16.34733 0.62188,-7.626449 0.50589,-8.140918 -1.288323,-5.714335 -1.084451,1.466667 -2.390326,5.161325 -2.901943,8.210355 -0.511618,3.04903 -1.677429,6.56557 -2.590692,7.81453 -1.4972107,2.04756 -1.8629554,2.06836 -3.7197161,0.2116 -1.8567605,-1.85676 -1.8195068,-3.18742 0.3788802,-13.533157 1.3409644,-6.310658 3.2845579,-13.100539 4.3190959,-15.088626 1.034539,-1.988086 2.556184,-6.479061 3.381435,-9.979943 2.373907,-10.0706 9.88286,-20.968093 14.448131,-20.968093 1.86343,0 2.641874,1.617721 7.887185,16.390749 2.782952,7.837979 9.094572,22.626691 12.352299,28.942585 0.567377,1.1 3.980838,3.672745 7.585469,5.717205 5.489836,3.1137 7.625103,3.60587 13.152049,3.03145 8.51608,-0.88508 11.173368,-3.65847 13.653208,-14.249753 3.305214,-14.11642 3.499695,-17.823499 1.171283,-22.326152 -2.600188,-5.028208 -5.696943,-5.378415 -7.422667,-0.839417 -0.89443,2.352532 -2.267552,3.333333 -4.666666,3.333333 -4.151934,0 -6.197164,-4.418551 -5.1194,-11.060035 0.671608,-4.138632 0.214569,-5.005697 -4.73529,-8.983512 -3.015757,-2.423529 -5.478644,-5.564024 -5.478644,-6.985971 0,-3.54824 6.154348,-15.563644 10.095612,-19.710108 1.780747,-1.87346 3.237722,-4.980603 3.237722,-6.904761 0,-4.16385 3.287686,-7.878595 6.038585,-6.822976 1.117615,0.428869 1.961415,2.45767 1.961415,4.715954 0,3.770971 0.210273,3.918708 4.333333,3.044559 2.383333,-0.5053 4.633333,-0.971849 5,-1.036773 0.366667,-0.06492 2.015272,0.340821 3.663568,0.901656 3.052979,1.03878 3.72976,2.735852 4.85544,12.1753 0.349808,2.933333 1.133111,7.733333 1.740675,10.666667 1.010297,4.877752 1.501969,5.366876 5.755817,5.726009 2.55814,0.215971 5.78198,-0.435069 7.16408,-1.446756 2.32558,-1.702307 2.38164,-2.377656 0.75208,-9.059343 C 110.96321,33.248961 109.4523,29.1 108.5741,28 107.6959,26.9 105.73908,23.535892 104.22563,20.524203 101.61679,15.332768 99.180276,13.639484 91,11.332881 87.537759,10.356628 87.018004,7.3287974 90.109049,6.1426518 c 3.82744,-1.468726 10.870201,-0.8425289 12.491181,1.1106356 0.87639,1.0559747 2.8798,2.1059747 4.45204,2.3333334 1.57224,0.2273587 3.58967,1.9133792 4.48318,3.7467132 3.96071,8.12674 5.79788,13.303086 5.79788,16.335874 0,3.514821 1.86123,9.979011 4.66761,16.210977 1.89739,4.213448 0.33616,10.119816 -2.67498,10.119816 -0.86863,0 -2.69518,1.233003 -4.059,2.740007 -2.44033,2.696538 -2.40131,2.811794 2.46002,7.265356 3.15254,2.888105 4.93969,5.721466 4.93969,7.831422 0,4.509166 -3.64378,7.948261 -7.19877,6.794389 C 104.1461,76.956361 98.134881,79.309717 96.66816,87.991164 96.163773,90.9766 94.007097,98.546732 91.875547,104.81368 89.743996,111.08062 88,117.86357 88,119.8869 c 0,2.02333 -0.896463,9.6265 -1.99214,16.89594 -1.095677,7.26944 -1.995677,16.35334 -2,20.18643 -0.0096,8.50481 -1.408228,9.59591 -16.674527,13.00797 -5.866666,1.31122 -13.666666,3.31356 -17.333333,4.44964 -3.666667,1.1361 -7.698513,2.15319 -8.95966,2.26024 -1.261145,0.10707 -6.811491,2.24623 -12.3341,4.75375 -7.492837,3.40211 -10.259929,5.37285 -10.903347,7.76551 -1.433317,5.33001 1.03052,7.43345 9.017828,7.69876 29.265974,0.97212 57.648388,-0.0739 67.179279,-2.4758 10.06424,-2.53634 13.70954,-8.3112 16.26229,-25.76267 2.57077,-17.57455 3.51017,-40.37362 1.83397,-44.50964 -1.89072,-4.66533 1.34459,-31.908721 3.98299,-33.539343 6.85918,-4.239203 10.09744,19.246213 4.51097,32.715653 -1.26118,3.04079 -1.3639,8.31641 -0.42836,22 0.67685,9.9 1.38565,24.46712 1.57509,32.37137 l 0.34445,14.37136 -6.0407,5.09077 c -9.75577,8.22164 -14.28347,10.08903 -23.374033,9.64031 -16.621762,-0.82047 -39.4846,0.0227 -46,1.69643 -1.833334,0.47096 -4.233334,0.25952 -5.333334,-0.4699 z m 32.087655,-76.08059 c 2.997325,-1.60412 3.465949,-7.32743 0.687276,-8.39371 -3.404941,-1.3066 -10.464785,0.31072 -13.402189,3.07027 -1.58287,1.48703 -3.662742,2.70369 -4.621936,2.70369 -1.399038,0 -1.41568,0.39559 -0.08414,2 1.941708,2.33961 13.442884,2.74877 17.420989,0.61975 z M 98.426068,63.666668 C 98.152256,61.738725 96.927943,60.514412 95,60.2406 c -3.297061,-0.468258 -4.060973,2.165094 -1.4,4.826068 2.660973,2.660973 5.294325,1.897061 4.826068,-1.4 z M 87.025029,46.753171 c 0.648526,-2.519089 0.806011,-6.569089 0.34997,-9 -1.114606,-5.941357 -6.096918,-6.256989 -8.261126,-0.523346 -1.067317,2.827645 -2.500193,4.016321 -5.223569,4.333333 l -3.752807,0.436843 4.463606,5.069358 c 5.83051,6.621766 10.669498,6.498614 12.423926,-0.316188 z"
       id="path412" />
  </g>
</svg>
