<?xml version="1.0" encoding="UTF-8" standalone="no"?>
<!-- Created with Inkscape (http://www.inkscape.org/) -->

<svg
   version="1.1"
   id="svg215"
   width="217.33333"
   height="197.33333"
   viewBox="0 0 217.33333 197.33333"
   xmlns="http://www.w3.org/2000/svg"
   xmlns:svg="http://www.w3.org/2000/svg">
  <defs
     id="defs219" />
  <g
     id="g221">
    <path
       style="fill:#000000;stroke-width:1.33333"
       d="m 85.002893,191.22512 c -0.331569,-0.33158 -3.542862,-0.88954 -7.136206,-1.23992 -20.192201,-1.96895 -34.993057,-5.5528 -52.780529,-12.78019 -3.435946,-1.39609 -6.89881,-2.53835 -7.695254,-2.53835 -2.539807,0 -11.9444136,-6.87632 -12.7119181,-9.29452 -0.4066988,-1.28138 -0.4164521,-3.16433 -0.021674,-4.1843 1.607874,-4.15423 17.1224121,-11.78558 24.0607651,-11.83511 1.494943,-0.0107 5.071808,-1.2194 7.948589,-2.68607 C 39.543447,145.2 43.000109,144 44.348135,144 c 1.348027,0 4.142959,-0.87498 6.210962,-1.94438 2.29626,-1.18744 5.552313,-1.65352 8.364013,-1.19724 2.532205,0.41092 10.51651,-0.26004 17.742898,-1.49101 9.511592,-1.62025 20.308152,-2.1968 39.107592,-2.0884 14.28278,0.0824 26.56425,0.51781 27.29214,0.96767 1.42727,0.8821 13.30423,3.49732 28.26759,6.22432 5.13333,0.93552 11.85943,3.01226 14.94688,4.615 3.08745,1.60272 6.61243,2.91404 7.83328,2.91404 1.22084,0 5.69463,1.55944 9.94172,3.46542 8.15957,3.6618 10.12663,6.68962 8.51573,13.10795 -0.61952,2.46835 -2.85186,4.05617 -9.37277,6.66667 -4.70776,1.88464 -9.23753,3.42662 -10.06616,3.42662 -0.82863,0 -3.97232,1.14536 -6.98597,2.54526 -3.01366,1.39989 -12.97938,3.5617 -22.14604,4.80405 -9.16667,1.24235 -18.16667,2.78613 -20,3.43064 -3.44078,1.20961 -57.923584,2.85203 -58.997107,1.77851 z m 53.262367,-12.97704 c 0.81674,-0.50478 4.99118,-1.49315 9.27652,-2.1964 4.28535,-0.70326 10.79155,-1.92943 14.45822,-2.72484 3.66666,-0.79543 8.3637,-1.79436 10.43786,-2.21987 2.19366,-0.45003 4.37474,-2.09831 5.21402,-3.94032 1.49229,-3.27523 4.24194,-4.16249 5.68145,-1.83332 0.45323,0.73333 2.28864,1.33333 4.07869,1.33333 8.45591,0 -1.1255,-6.14572 -12.28692,-7.88108 -4.28548,-0.66629 -11.09177,-2.18692 -15.1251,-3.37917 -21.21028,-6.26969 -46.48437,-7.90225 -77.333335,-4.99527 -13.934749,1.31311 -18.253395,2.10734 -23.333333,4.29114 -1.466666,0.6305 -5.066666,1.4457 -7.999999,1.81157 -13.501303,1.68395 -21.051773,3.46811 -24.847576,5.87144 -2.264281,1.43364 -3.599873,2.90067 -2.967983,3.26007 5.632728,3.20369 49.389409,12.44893 61.114701,12.91277 3.647861,0.14431 6.76982,0.39972 6.937685,0.56759 0.771963,0.77196 45.38265,-0.0665 46.6951,-0.87764 z M 106.66667,93.236058 c -4.03334,-0.617225 -11.43661,-1.081113 -16.451721,-1.03086 -5.16532,0.05176 -9.776613,-0.566862 -10.636698,-1.426948 -2.257128,-2.257127 0.474749,-5.822567 5.823813,-7.600799 2.463823,-0.819068 5.358932,-2.813442 6.433576,-4.431943 1.853765,-2.79192 1.565312,-3.301499 -5.628603,-9.943436 -6.16095,-5.688232 -8.283422,-6.897836 -11.321191,-6.451985 -2.604091,0.382199 -4.940643,-0.462652 -7.699315,-2.783921 -3.331185,-2.803008 -4.232933,-4.953255 -5.674088,-13.530044 -1.519613,-9.043721 -1.467936,-10.572124 0.456777,-13.509608 1.193634,-1.821713 3.663656,-3.880002 5.48894,-4.573974 1.825283,-0.693971 4.343904,-3.155828 5.596935,-5.470794 6.530882,-12.065758 16.402408,-18.4817461 28.435685,-18.4817461 8.75473,0 17.83018,6.1077731 24.25911,16.3263781 1.26636,2.012843 4.34239,4.512047 6.83563,5.55379 6.58856,2.752872 7.68305,5.807658 7.01872,19.589514 -0.69536,14.42553 -1.97328,16.06724 -12.78544,16.425042 -3.21044,0.10624 -3.96791,0.998834 -6.70849,7.905167 -0.82933,2.08994 -2.69343,4.109918 -4.14243,4.488841 -4.0685,1.063937 -3.18301,5.961231 1.63537,9.0446 11.57774,7.408802 5.96667,12.48945 -10.93658,9.902726 z m -0.58191,-29.070279 c 4.10127,-2.500987 11.51606,-12.895836 13.19567,-18.499113 0.85244,-2.843773 0.53553,-3 -6.08559,-3 -4.57012,0 -7.81072,-0.747385 -9.37372,-2.16188 -2.19768,-1.988875 -2.22479,-2.479135 -0.33874,-6.126339 1.87703,-3.629785 2.5482,-3.924842 7.95052,-3.495178 5.3169,0.422869 5.90043,0.181917 5.90043,-2.436431 0,-3.622045 -9.32535,-11.845241 -14.63773,-12.907718 -5.253659,-1.050732 -15.451913,2.640038 -18.698083,6.766873 -1.472724,1.872265 -2.664185,5.407293 -2.664185,7.904556 0,4.483778 0.02437,4.501622 3.256245,2.384018 4.398074,-2.881729 8.578199,-2.020341 11.906194,2.453479 4.142939,5.569355 1.846914,8.181607 -7.633786,8.685159 -6.866317,0.364693 -7.528653,0.67145 -7.528653,3.486854 0,3.209512 2.932571,7.723495 9.818541,15.113273 4.66216,5.003263 8.883687,5.521296 14.932887,1.832447 z M 91.714276,57.03024 c -4.980668,-4.943385 0.109093,-8.180783 11.707414,-7.446634 6.02119,0.381129 6.61331,0.719329 6.99155,3.993382 0.28571,2.473106 -0.39515,4.009626 -2.20624,4.978894 -3.8714,2.071908 -13.792725,1.154146 -16.492724,-1.525642 z M 71.577484,47.749999 c -0.425634,-1.063644 -0.741577,-0.747701 -0.805556,0.805556 -0.05789,1.405555 0.257238,2.193055 0.700294,1.75 0.443054,-0.443056 0.490424,-1.593056 0.105266,-2.555556 z"
       id="path717" />
  </g>
</svg>
