<?xml version="1.0" encoding="UTF-8" standalone="no"?>
<!-- Created with Inkscape (http://www.inkscape.org/) -->

<svg
   version="1.1"
   id="svg205"
   width="213.33333"
   height="70.666664"
   viewBox="0 0 213.33333 70.666664"
   xmlns="http://www.w3.org/2000/svg"
   xmlns:svg="http://www.w3.org/2000/svg">
  <defs
     id="defs209" />
  <g
     id="g211">
    <path
       style="fill:#000000;stroke-width:1.33333"
       d="M 7.8082864,61.666664 C 6.5417878,58.483878 4.2475143,33.154328 4.0626638,20.313735 3.9674062,13.696683 9.8975833,10.532248 22,10.74209 27.133333,10.831096 45.433333,10.580615 62.666666,10.185465 117.695,8.9236997 173.57082,7.8658556 187.97961,7.8130341 c 18.79804,-0.068912 18.08407,-1.2905993 17.55108,30.0318769 -0.22543,13.247804 -0.69747,24.552255 -1.04897,25.121001 -2.01354,3.257958 -7.05892,0.433176 -15.24194,-8.533543 l -8.7602,-9.599205 -13.70837,-0.826859 c -7.5396,-0.454773 -16.79751,-0.335629 -20.57312,0.264764 -3.77563,0.600393 -7.46476,1.153021 -8.19809,1.228064 -0.73334,0.07504 -6.73334,-0.578683 -13.33334,-1.45272 -7.55079,-0.999952 -18.17945,-1.261784 -28.666662,-0.706191 -9.166666,0.485634 -26.566666,0.886854 -38.666666,0.891602 -12.099999,0.0048 -23.694151,0.311898 -25.764782,0.68256 -2.764977,0.494954 -5.008241,2.617768 -8.447045,7.993483 C 14.783029,65.943003 10.487583,68.399896 7.8082864,61.666664 Z M 59.784648,33.751641 C 78.603091,33.583249 104.2,32.917183 116.66666,32.271495 c 12.46667,-0.64569 32.97959,-0.820922 45.58426,-0.389406 22.71554,0.777659 22.95128,0.816902 26.73962,4.451243 2.10212,2.016667 4.2392,3.666666 4.74908,3.666666 1.685,0 0.9628,-10.255418 -1.06376,-15.105659 l -1.9908,-4.764656 -57.0092,0.519387 c -31.35505,0.285663 -66.309194,0.956903 -77.675861,1.491644 -23.747757,1.117204 -23.544774,1.11823 -33.460595,-0.169236 -8.909318,-1.156784 -8.797726,-1.340611 -8.111302,13.361854 l 0.498002,10.666666 5.321597,-5.971094 5.321597,-5.971095 z"
       id="path856" />
  </g>
</svg>
