<?xml version="1.0" encoding="UTF-8" standalone="no"?>
<!-- Created with Inkscape (http://www.inkscape.org/) -->

<svg
   version="1.1"
   id="svg217"
   width="104"
   height="201.33333"
   viewBox="0 0 104 201.33333"
   xmlns="http://www.w3.org/2000/svg"
   xmlns:svg="http://www.w3.org/2000/svg">
  <defs
     id="defs221" />
  <g
     id="g223">
    <path
       style="fill:#000000;stroke-width:1.33333"
       d="M 8.5093628,191.36998 C 7.49588,189.92349 6.6666667,187.38612 6.6666667,185.7314 c 0,-5.52108 6.8951543,-23.63615 10.9410443,-28.7445 13.210338,-16.67941 37.732401,-20.54088 55.271894,-8.70362 11.42168,7.7084 21.321074,22.72134 22.708879,34.43918 1.195536,10.09443 0.04692,10.58247 -25.350389,10.77103 -11.864286,0.0881 -30.192215,0.23808 -40.728732,0.33333 -17.665042,0.15968 -19.300841,-0.0317 -21.0000002,-2.45684 z M 80.16194,180.56658 c 2.878481,-1.779 0.742073,-7.51386 -5.648092,-15.16144 -8.082459,-9.67288 -11.145405,-11.42048 -22.117768,-12.61954 -6.948317,-0.75932 -9.154481,-0.4529 -13.799217,1.91668 -8.736107,4.45682 -17.049231,12.88358 -18.67835,18.93366 -2.511716,9.32782 -3.420234,9.07168 29.527962,8.32455 16.249238,-0.36848 30.071198,-0.99573 30.715465,-1.39391 z M 20.673152,94.687098 c -0.626617,-1.974297 1.88978,-6.204437 9.910149,-16.659257 5.912518,-7.707162 10.750032,-14.846378 10.750032,-15.864923 0,-1.018547 -1.05,-2.233472 -2.333333,-2.699835 C 36.766304,58.651359 25.792887,52.137863 15.593784,45.569847 10.46132,42.264643 8.1983943,37.934938 10.434623,35.69871 c 2.136718,-2.136719 9.792568,-0.0978 21.346113,5.684932 5.805337,2.905664 11.447235,5.283024 12.537551,5.283024 1.565844,0 2.323185,-3.572113 3.604253,-17 1.824583,-19.124881 3.126089,-23.7735268 6.934861,-24.7695429 3.3455,-0.874868 3.296636,-1.078743 4.999415,20.8591949 0.786475,10.132643 1.815788,19.047277 2.287363,19.8103 1.41337,2.286883 18.865178,-1.749 30.238408,-6.992896 3.166628,-1.460048 4.031233,-1.397999 5.848992,0.419761 3.344221,3.344219 1.536606,5.369658 -10.308944,11.551225 -16.507736,8.614516 -19.03291,10.119448 -19.541898,11.646411 -0.255812,0.767437 4.346212,6.438387 10.226719,12.60211 11.057349,11.589891 13.296859,15.169122 10.955948,17.510032 -2.256365,2.256365 -8.034256,-0.06784 -14.124652,-5.681778 -3.155332,-2.908483 -6.202771,-5.288151 -6.772085,-5.288151 -0.569315,0 -3.638811,-2.4 -6.821102,-5.333333 -3.18229,-2.933334 -6.469741,-5.333334 -7.305446,-5.333334 -0.835704,0 -7.349903,6 -14.475998,13.333334 C 26.856499,97.591722 22.378376,100.05979 20.673152,94.687098 Z"
       id="path245" />
  </g>
</svg>
