<?xml version="1.0" encoding="UTF-8" standalone="no"?>
<!-- Created with Inkscape (http://www.inkscape.org/) -->

<svg
   version="1.1"
   id="svg175"
   width="218.66667"
   height="210.66667"
   viewBox="0 0 218.66667 210.66667"
   xmlns="http://www.w3.org/2000/svg"
   xmlns:svg="http://www.w3.org/2000/svg">
  <defs
     id="defs179" />
  <g
     id="g181">
    <path
       style="fill:#000000;stroke-width:1.33333"
       d="m 183.76651,192.8973 c -11.76113,-11.92324 -14.43317,-15.79144 -14.43317,-20.89424 0,-5.1038 4.74689,-4.06306 22.74728,4.9873 16.22193,8.15619 17.9609,9.37304 18.35765,12.84596 0.33769,2.95596 -0.69331,4.99516 -4.4928,8.8862 -7.91991,8.11072 -8.61171,7.92902 -22.17896,-5.82522 z M 15.699002,199.21826 C 8.4001841,191.22383 7.6337169,187.24556 13,185.2094 c 2.016667,-0.7652 10.266667,-4.61156 18.333334,-8.54746 16.448073,-8.02539 22,-9.85896 22,-7.26567 0,4.1664 -27.110254,34.60373 -30.821231,34.60373 -1.346088,0 -4.411984,-2.15178 -6.813101,-4.78174 z m 11.634332,-9.10536 c 2.2,-1.76396 3.624892,-3.58608 3.166426,-4.04918 -1.36891,-1.3827 -11.833093,3.40531 -11.833093,5.41439 0,2.85749 4.23146,2.19093 8.666667,-1.36521 z m 117.333336,-0.31726 c -9.04531,-4.74332 -10.82925,-11.13826 -5.17508,-18.55126 3.02155,-3.96146 4.26204,-4.57771 9.21481,-4.57771 4.75402,0 6.30778,0.69471 9.17508,4.10231 4.16676,4.9519 4.73686,13.1194 1.11852,16.02437 -3.08745,2.47876 -8.04261,5.22 -9.31524,5.15327 -0.55994,-0.0293 -2.81809,-0.9973 -5.01809,-2.15098 z m -75.333336,-1.40822 c -7.217501,-2.65383 -9.229493,-12.82087 -3.701606,-18.70504 2.034814,-2.16596 2.486561,-3.4519 1.439894,-4.09876 -0.838841,-0.51844 -12.18071,-0.82954 -25.204155,-0.69132 -21.002921,0.22288 -24.244496,-0.0372 -28.68283,-2.30148 -3.6590659,-1.86672 -5.1268987,-3.5433 -5.4617354,-6.23847 -0.6787927,-5.46372 1.3900772,-10.6244 4.6943004,-11.70964 1.603873,-0.52679 39.216132,-1.14115 83.582799,-1.36525 44.366669,-0.22411 86.821459,-0.51908 94.343989,-0.6555 14.90551,-0.2703 19.59081,1.30359 21.02163,7.06158 1.21692,4.8973 -2.43858,13.40134 -6.14355,14.29214 -2.72653,0.65556 -46.37643,0.60479 -87.88873,-0.10226 -15.63177,-0.26623 -34.863997,0.24385 -37.644681,0.99842 -2.01065,0.54562 -1.870175,1.00671 1.079797,3.54434 6.053229,5.20712 4.436364,15.99269 -2.854112,19.03885 -4.796746,2.00424 -5.467703,2.07713 -8.58101,0.93239 z M 74.666668,176 c 0,-0.73333 -0.56459,-1.33333 -1.254644,-1.33333 -0.690055,0 -1.625464,0.6 -2.07869,1.33333 -0.453225,0.73334 0.11136,1.33334 1.254644,1.33334 1.143279,0 2.07869,-0.6 2.07869,-1.33334 z m -12,-19.35885 c 16.490313,-1.42735 27.509687,-1.60609 44.000002,-0.71376 12.1,0.65476 37.50757,1.00995 56.46128,0.78931 29.24036,-0.34039 34.77989,-0.71976 36.56425,-2.50414 1.91508,-1.91506 1.77402,-2.22804 -1.57869,-3.50273 -3.38207,-1.28587 -39.89816,-1.10872 -105.446842,0.51155 -10.266667,0.25377 -24.21436,0.0381 -30.994874,-0.47906 -15.751703,-1.20164 -43.786066,0.17195 -45.861158,2.24704 -1.19559,1.1956 -1.196153,2.00786 -0.0024,3.44626 2.120024,2.55448 18.871873,2.62796 46.858421,0.20553 z m 41.155702,30.6778 c -6.454953,-3.50719 -5.828677,-17.24045 0.90403,-19.82404 12.38523,-4.75265 22.25982,9.25704 12.86731,18.25564 -4.13824,3.96468 -8.45595,4.45643 -13.77134,1.5684 z m 8.78736,-9.89348 c 0.98605,-1.59547 -1.52217,-3.17631 -3.29814,-2.07869 -1.49115,0.92157 -0.51223,3.31989 1.35508,3.31989 0.64677,0 1.52115,-0.55855 1.94306,-1.2412 z M 14.366855,132.52062 c -6.5119026,-3.41264 -7.9980514,-8.87729 -3.818152,-14.03957 l 2.548703,-3.14771 71.117965,-0.19346 c 39.114879,-0.1064 82.350329,-0.57404 96.078769,-1.0392 23.89926,-0.80977 25.07588,-0.73067 27.66666,1.86012 4.89338,4.89337 2.78672,16.97083 -3.05604,17.52032 -0.86428,0.0813 -43.27142,0.32683 -94.23809,0.54564 -78.26531,0.33602 -93.231298,0.102 -96.299815,-1.50614 z m 112.682155,-4.93755 c 61.9465,-0.21572 71.88306,-0.52066 72.94449,-2.23859 2.15689,-3.491 -0.81508,-4.7011 -7.29156,-2.9689 -4.4657,1.19439 -6.87422,1.21555 -9.65888,0.0849 -2.5486,-1.03485 -16.22942,-1.38729 -43.70972,-1.12606 -22,0.20913 -58.000005,0.44445 -80.000006,0.52293 -22,0.0785 -40.75,0.62809 -41.666667,1.22137 C 16.75,123.67197 16,124.7413 16,125.45499 c 0,2.77749 6.664014,3.67045 22.666667,3.03727 9.166667,-0.3627 48.938721,-0.77184 88.382343,-0.90919 z M 46.666667,106.29824 C 28.7,105.72894 12.711074,104.71963 11.135721,104.05533 6.6091656,102.14656 4.8489786,88.514635 6.6583502,69.379929 7.509593,60.377754 8.7629767,53.685834 9.7071141,53.102325 13.297177,50.883543 27.584948,50.321717 56.666668,51.25577 c 42.882187,1.377299 52.762932,1.277091 88.666672,-0.89924 11.6425,-0.705719 62.35546,0.576108 64,1.617672 1.68149,1.064974 1.93978,5.123411 1.62192,25.484175 -0.20794,13.319611 -0.97906,25.340413 -1.71358,26.712883 -1.50574,2.81351 5.99715,2.53817 -79.90834,2.93254 -27.50001,0.12624 -64.700006,-0.23626 -82.666673,-0.80556 z m 42.178466,-8.298956 5.511799,-0.782896 -1.254148,-5.608193 c -0.689781,-3.084507 -2.120091,-7.350376 -3.178465,-9.479711 -1.058375,-2.129335 -1.924318,-4.716489 -1.924318,-5.749233 0,-1.032746 -1.51315,-5.076255 -3.362556,-8.985578 -2.82533,-5.972259 -4.050212,-7.230339 -7.666666,-7.874465 -7.428835,-1.323148 -57.158513,-0.845891 -59.811631,0.574014 -2.266513,1.213002 -2.479602,2.975451 -2.291809,18.955397 0.113873,9.689926 0.360431,17.918049 0.547903,18.284716 0.501412,0.980685 66.970071,1.583503 73.429891,0.665949 z m 28.821537,-0.647742 c 4.19893,-0.03276 2.69494,-7.811738 -4.28839,-22.180523 -3.64194,-7.493611 -7.11896,-13.932061 -7.7267,-14.307665 -0.60774,-0.375604 -3.59797,-0.348537 -6.644956,0.06015 -5.354743,0.718223 -5.516301,0.882384 -4.831912,4.909783 0.389433,2.291696 1.224173,5.366717 1.854975,6.833384 7.088493,16.481328 9.303643,21.98746 9.303643,23.125719 0,1.690328 3.82754,2.786187 7.33334,2.099604 1.46667,-0.287233 3.71667,-0.530436 5,-0.540449 z m 76.10572,-0.694304 c 2.80815,-0.23333 5.43407,-0.752578 5.83537,-1.153887 1.0861,-1.086096 0.48858,-33.274358 -0.63852,-34.396661 -1.20072,-1.195618 -70.00343,-2.566517 -75.33113,-1.500978 -2.12702,0.425404 -4.16828,1.557798 -4.53614,2.516433 -0.36787,0.958635 2.0837,7.553656 5.44793,14.655604 3.36422,7.101947 6.11677,13.95883 6.11677,15.237516 0,4.011659 2.97488,5.009294 15.13219,5.074615 6.48937,0.03487 12.18078,0.445315 12.64757,0.912107 0.72965,0.729649 18.50292,0.05308 35.32596,-1.344749 z M 99.977095,38.65251 c -1.033572,-0.638783 -2.522086,-3.446917 -3.30781,-6.240299 l -1.428586,-5.078877 -41.953684,0.06357 C 25.487002,27.439024 11.002857,26.989206 10.353751,26.06357 8.6989851,23.703848 9.2216549,20.302157 11.605228,17.918584 c 1.947924,-1.947924 3.801708,-2.12894 13,-1.269402 13.083407,1.222584 10.602099,1.207891 41.485268,0.245646 13.983104,-0.43568 26.357916,-1.15059 27.499581,-1.588688 1.141666,-0.438098 3.154751,-3.189328 4.473524,-6.1138447 2.981259,-6.6112539 7.515349,-6.8882757 8.603069,-0.5256265 0.48995,2.8659882 1.53189,4.1207912 3.67524,4.4260682 2.43961,0.347472 2.99143,-0.211201 2.99143,-3.028585 0,-2.3800263 1.0246,-3.9214951 3.29384,-4.955431 4.12233,-1.8782579 6.82776,0.040977 8.07729,5.730035 1.12888,5.139758 5.80559,6.968181 14.93448,5.838837 3.83475,-0.474401 21.14427,-0.894756 38.46557,-0.934121 29.79587,-0.06772 31.63743,0.07255 34.16731,2.602436 2.92463,2.924624 2.40468,7.520034 -0.99861,8.826002 -1.07724,0.413375 -20.6006,0.840106 -43.38523,0.948292 -37.04917,0.175918 -41.49395,0.426516 -42.06378,2.371584 -2.87117,9.800519 -8.18049,11.880242 -10.65805,4.174883 -2.06845,-6.433035 -6.84839,-7.255529 -8.02337,-1.380601 -0.92596,4.629795 -4.28603,7.146176 -7.165695,5.366444 z"
       id="path203" />
  </g>
</svg>
