<?xml version="1.0" encoding="UTF-8" standalone="no"?>
<!-- Created with Inkscape (http://www.inkscape.org/) -->

<svg
   version="1.1"
   id="svg39"
   width="218.66667"
   height="217.33333"
   viewBox="0 0 218.66667 217.33333"
   xmlns="http://www.w3.org/2000/svg"
   xmlns:svg="http://www.w3.org/2000/svg">
  <defs
     id="defs43" />
  <g
     id="g45">
    <path
       style="fill:#000000;stroke-width:1.33333"
       d="m 164.31508,210.79862 c -1.61028,-1.08009 -5.64841,-9.43365 -5.64841,-11.68468 0,-0.99532 -1.14756,-4.35313 -2.55015,-7.46181 -1.40257,-3.10867 -3.27505,-8.05213 -4.16106,-10.98547 -0.88602,-2.93333 -2.13844,-5.90333 -2.78319,-6.6 C 148.52752,173.37 148,171.70005 148,170.35568 c 0,-1.34439 -1.5,-5.40444 -3.33333,-9.02235 -3.78949,-7.47821 -4.27987,-13.5546 -1.29385,-16.03277 3.57698,-2.96863 7.76476,0.20948 9.67189,7.34002 0.93056,3.47931 2.81175,8.80852 4.18039,11.84271 1.36865,3.03419 3.41117,8.26476 4.53894,11.62351 1.12778,3.35873 3.39452,9.05873 5.03722,12.66666 1.64269,3.60792 4.05545,8.90346 5.36168,11.76783 1.62562,3.56479 1.98733,5.93224 1.14642,7.50351 -1.28376,2.39873 -6.94124,4.1309 -8.99428,2.75382 z m 39.33347,0.13858 C 200.41108,210.28592 198.5889,206.31738 191.28011,184 187.79778,173.36666 183.53516,161.97144 181.80763,158.67728 176.99372,149.49781 177.82472,144 184.02608,144 c 3.39946,0 4.0456,0.82124 7.08122,9 1.83722,4.95 4.05725,11.4 4.93338,14.33333 1.78892,5.98939 5.1648,13.74687 10.80796,24.83583 2.09992,4.12636 3.81803,8.83173 3.81803,10.45636 0,4.00437 -4.12788,8.89309 -7.01812,8.31168 z M 12,205.6571 c -5.9873584,-0.60689 -8.0002562,-3.35282 -7.9989481,-10.91194 0.00131,-7.56479 5.8122606,-20.31708 12.7647991,-28.01271 7.734547,-8.56121 15.1967,-12.32376 25.970171,-13.0946 24.390611,-1.74513 43.669523,13.58551 49.441113,39.31573 C 94.015329,201.1484 92.7681,203.571 86.199357,204.5647 80.884343,205.36874 18.252295,206.29085 12,205.6571 Z m 61.666668,-14.22404 c 3.430364,-1.54617 2.868307,-4.99788 -2,-12.28238 -3.1607,-4.72939 -6.31779,-7.45524 -11.666667,-10.07308 -8.870874,-4.34156 -13.764152,-4.59671 -20.666667,-1.0776 -2.876781,1.46666 -5.973568,2.66666 -6.881747,2.66666 -3.685793,0 -13.491192,8.0399 -14.218207,11.65815 -0.406149,2.02136 -1.124401,5.21871 -1.596118,7.10523 l -0.857667,3.43005 27.77687,-0.18767 c 15.277279,-0.1032 28.826869,-0.66092 30.110203,-1.23936 z M 7.5555557,81.777776 C 4.5239877,78.746208 8.290282,63.973406 14.73305,53.624982 L 19.117094,46.583298 13.476895,41.16369 C 7.1575729,35.091517 4.877975,30.566448 5.166175,24.666666 5.6090001,15.601534 11.274316,9.3288728 16.418706,12.207817 c 3.276844,1.833815 2.751441,6.119571 -1.199054,9.780764 -2.256216,2.090992 -3.174787,4.026592 -2.658996,5.603003 0.994294,3.038857 10.874739,13.741749 12.685788,13.741749 0.744394,0 5.11847,-1.713615 9.720167,-3.808032 4.601698,-2.094418 11.666723,-4.567679 15.700056,-5.496135 4.033334,-0.928457 9.204154,-2.814842 11.490713,-4.191968 2.853122,-1.71835 6.69766,-2.503865 12.254644,-2.503865 4.453496,0 8.432177,-0.541899 8.841513,-1.204219 0.409336,-0.66232 6.447698,-1.239118 13.418582,-1.281776 6.970881,-0.04265 15.073981,-0.796509 18.006881,-1.675229 4.05565,-1.215101 7.48625,-1.237927 14.32678,-0.09532 4.94682,0.826291 13.79422,2.154601 19.66089,2.9518 5.86667,0.797199 15.87561,2.747156 22.24209,4.33324 14.72386,3.668153 18.55222,2.712569 20.25328,-5.055353 2.9065,-13.272485 4.22819,-15.9416548 8.2813,-16.7240908 5.29198,-1.0215968 6.98246,-0.2490829 9.31176,4.2552828 1.76129,3.40596 1.76274,4.717361 0.012,11.419301 -1.53796,5.889459 -3.23383,8.720128 -7.6339,12.742194 l -5.65672,5.170746 6.16511,5.269768 c 7.10647,6.074424 9.64012,12.175034 8.66167,20.85585 -0.9486,8.415875 -3.33342,10.427968 -10.55771,8.907641 -5.57763,-1.173786 -5.76792,-1.385165 -6.48749,-7.206213 -0.58422,-4.725931 -4.95632,-13.472367 -8.51174,-17.027784 -0.23852,-0.238522 -4.21049,1.395838 -8.8266,3.631909 -4.61548,2.236072 -9.26474,4.065586 -10.33109,4.065586 -1.06633,0 -7.27215,1.83122 -13.79068,4.069377 -11.32995,3.890165 -12.83425,4.071637 -34.15826,4.120691 -31.814118,0.07318 -61.617908,-1.096647 -66.470493,-2.609043 -2.290275,-0.713804 -5.707227,-2.308899 -7.593226,-3.544653 -7.07227,-4.63393 -22.242637,-0.536903 -22.242637,6.007018 0,1.263216 -0.9,3.043691 -2,3.95661 -1.1,0.912918 -2,2.82583 -2,4.250914 0,4.313249 -2.582586,7.749085 -5.82469,7.749085 -1.6853097,0 -3.4641995,-0.4 -3.9530883,-0.888889 z M 123.33334,52.62293 c 7.33333,-0.42738 14.53333,-1.295013 16,-1.928072 1.46666,-0.633059 5.82864,-1.471529 9.69326,-1.863268 3.86463,-0.391739 8.66463,-1.592039 10.66667,-2.667335 2.00204,-1.075297 4.73996,-2.302464 6.08428,-2.727038 4.15743,-1.313038 1.61381,-4.095864 -3.88819,-4.253852 -2.87248,-0.08248 -9.72269,-0.922562 -15.22269,-1.866842 -5.5,-0.94428 -11.5,-1.605914 -13.33333,-1.4703 -1.83334,0.135615 -6.33334,0.489247 -10,0.785847 -3.66667,0.296601 -15.36667,0.593661 -26.000005,0.660132 -10.633334,0.06647 -21.733334,0.712331 -24.666667,1.435241 -8.583048,2.115268 -15.728455,4.148987 -19.732721,5.616312 l -3.73272,1.367819 5.732721,3.25778 c 9.379049,5.329908 25.166048,6.173176 68.399392,3.653576 z"
       id="path147" />
  </g>
</svg>
