<?xml version="1.0" encoding="UTF-8" standalone="no"?>
<!-- Created with Inkscape (http://www.inkscape.org/) -->

<svg
   version="1.1"
   id="svg39"
   width="225.33333"
   height="314.66666"
   viewBox="0 0 225.33333 314.66666"
   xmlns="http://www.w3.org/2000/svg"
   xmlns:svg="http://www.w3.org/2000/svg">
  <defs
     id="defs43" />
  <g
     id="g45">
    <path
       style="fill:#000000;stroke-width:1.33333"
       d="m 137.09042,307.52528 c -0.99425,-1.198 -1.93575,-7.99576 -2.35451,-17 l -0.69777,-15.00376 -15.19452,-16.91061 -15.19453,-16.9106 -7.421722,-0.92729 c -4.08196,-0.51 -15.90836,-0.52711 -26.2809,-0.038 -10.37254,0.48908 -21.55916,1.01613 -24.85916,1.17121 l -6,0.28196 0.41808,5.61999 c 0.38021,5.11086 0.0995,5.69994 -3.09832,6.50256 -6.64165,1.66694 -8.54033,-0.0601 -20.320582,-18.48465 -4.38095,-6.85187 -4.413224,-10.7873 -0.10736,-13.09172 2.082487,-1.11452 3.230252,-0.65162 6.166782,2.48713 5.40339,5.77547 9.15336,7.33503 15.42723,6.41596 3.03279,-0.44428 20.81417,-1.14701 39.51417,-1.56161 60.284862,-1.3366 68.453432,-1.63522 81.333332,-2.97326 17.02565,-1.76874 44.21816,-1.93905 48.51898,-0.30388 7.19398,2.73515 2.20582,7.05008 -12.51898,10.82937 -5.79934,1.48846 -24.13184,0.9151 -31.73211,-0.99245 -3.31531,-0.83209 -3.34156,-0.7724 -2.46704,5.60797 0.48617,3.54696 2.97987,10.69084 5.54155,15.87528 5.63125,11.39678 5.92928,15.84127 1.26706,18.89607 -2.96832,1.94492 -3.35277,3.04932 -3.08724,8.86867 0.34428,7.54516 -1.93661,10.30457 -8.51762,10.30457 -3.32456,0 -4.17778,0.86319 -6.58959,6.66667 -2.37188,5.70738 -3.29705,6.66666 -6.42952,6.66666 -2.01244,0 -4.40451,-0.8983 -5.31571,-1.99624 z m -1.33645,-58.51708 c 0,-4.82173 -0.60636,-6.24394 -3.45892,-8.11302 -4.27772,-2.80287 -9.87442,-1.75016 -9.87442,1.85733 0,1.89536 10.64953,11.77636 13,12.06185 0.18334,0.0223 0.33334,-2.5905 0.33334,-5.80616 z M 13.163661,212.33086 c -1.049575,-1.96115 -0.6074,-3.61945 1.982873,-7.43643 7.147914,-10.53304 10.324504,-18.55793 10.987444,-27.75716 0.47649,-6.61185 1.25115,-9.37144 2.87464,-10.24029 3.67667,-1.96771 5.51995,0.47012 6.33633,8.38009 0.55252,5.35338 1.23468,7.22926 2.37888,6.54174 0.88233,-0.53018 5.90006,-5.969 11.15052,-12.08628 l 9.54629,-11.12235 0.11207,-10.87765 c 0.10226,-9.92568 -0.21581,-39.77646 -0.71383,-66.991098 -0.19185,-10.483753 -0.32374,-10.895983 -4.79776,-14.995978 -5.89859,-5.405477 -9.41099,-6.289816 -17.53432,-4.414727 -9.09461,2.099287 -12.32585,0.361746 -11.2826,-6.067011 0.72472,-4.465974 0.61074,-4.629579 -2.654346,-3.810094 -4.32277,1.084947 -9.79588,-2.325277 -9.79588,-6.103685 0,-1.527233 -1.524732,-4.588829 -3.3882925,-6.803545 -3.206282,-3.810449 -3.266804,-4.161 -1.126683,-6.525808 1.243885,-1.374477 3.0287625,-2.499051 3.9663955,-2.499051 0.937633,0 1.89464,-1.626272 2.126684,-3.613938 0.299824,-2.568273 1.372298,-3.836161 3.706596,-4.381965 2.053402,-0.480127 3.574752,-1.996702 4.058461,-4.045727 1.783145,-7.553502 9.323505,-3.129487 9.323505,5.470203 0,2.880951 0.6,5.238094 1.33333,5.238094 0.73334,0 1.33334,-2.326533 1.33334,-5.170073 0,-6.083932 2.97877,-9.45242 6.44509,-7.288308 1.47981,0.923881 2.70901,4.68216 3.68143,11.256014 1.09219,7.383487 1.7393,9.197426 2.56941,7.202367 1.45952,-3.507768 3.06013,-4.480807 6.07417,-3.692616 3.34752,0.875396 4.30212,4.563289 3.21923,12.436805 -0.75913,5.519604 -0.56129,6.589144 1.21888,6.589144 1.53288,0 2.12512,-1.278611 2.12512,-4.587977 0,-2.523388 0.6,-4.958797 1.33333,-5.412023 0.73334,-0.453225 1.34182,-1.838634 1.3522,-3.078689 0.0277,-3.314357 12.85513,-17.302845 18.47136,-20.143308 11.38915,-5.76017 34.804202,-7.988674 50.150012,-4.772975 13.36455,2.800528 14.57932,3.455038 22.58185,12.166907 l 6.55543,7.136499 2.50384,-4.117222 c 2.03875,-3.352465 3.11197,-3.964585 5.77789,-3.295479 2.91995,0.732858 3.27408,0.398136 3.27408,-3.094614 0,-7.856625 3.31659,-10.249208 9.154,-6.603687 2.00095,1.249611 2.98612,0.995788 5.36387,-1.381966 1.63896,-1.638958 3.60052,-2.487658 4.48548,-1.940719 0.86501,0.534606 3.68965,1.316103 6.27697,1.736661 3.43072,0.557648 5.18746,1.772865 6.48923,4.488937 0.98176,2.048358 3.23523,4.385054 5.00773,5.192658 1.7725,0.807604 3.22272,2.011507 3.22272,2.675339 0,2.857578 -2.96477,6.364992 -5.38024,6.364992 -3.07033,0 -3.10357,0.146018 -1.05593,4.640097 2.15721,4.734544 0.32736,6.176094 -9.12931,7.192049 -7.72324,0.829728 -7.76785,0.859685 -7.76785,5.216487 0,5.420941 -2.20208,6.904693 -10.28643,6.930949 -9.06902,0.02945 -9.57005,1.526855 -8.44278,25.232643 0.5088,10.69994 1.11505,31.728738 1.34722,46.730658 l 0.42214,27.27623 4.47993,3.88497 c 2.46396,2.13675 7.55089,6.81244 11.30431,10.39044 7.20177,6.86522 8.50894,7.59454 8.50894,4.74747 0,-0.96689 0.93411,-4.90347 2.07579,-8.74792 1.89761,-6.38996 2.38399,-6.95433 5.66667,-6.57533 2.71953,0.31398 3.6707,1.22344 3.91986,3.74792 2.19438,22.23324 3.39094,26.84432 8.5913,33.10742 3.89664,4.69296 5.07634,7.21079 4.79125,10.22591 -0.30815,3.25903 -1.05793,4.0782 -4.04763,4.42216 -2.16892,0.24953 -5.28426,-0.72771 -7.61845,-2.3898 -6.68035,-4.75683 -19.30731,-8.19887 -28.46837,-7.76032 -7.67495,0.3674 -8.27103,0.62461 -8.6391,3.72796 -0.71514,6.02976 -3.22882,10.69032 -6.10677,11.32243 -1.55717,0.34201 -25.33121,0.48438 -52.83121,0.31637 l -50.000002,-0.30547 -1.84959,-5.84685 -1.84959,-5.84685 -9.48374,0.84324 c -11.40559,1.0141 -17.51147,3.02964 -23.86976,7.87934 -5.581304,4.25707 -9.645428,4.6494 -11.537627,1.11379 z M 154.63291,199.05754 c 1.54339,-1.52652 3.75554,-32.11643 2.54832,-35.23852 -2.72541,-7.04844 -41.22604,-44.9825 -45.62277,-44.95139 -1.58331,0.0112 -19.446422,18.74282 -35.137822,36.84622 -5.0856,5.86732 -5.37443,6.68704 -6.21811,17.64708 -0.48663,6.32166 -0.54703,15.30978 -0.13422,19.97361 l 0.75057,8.47967 41.467542,-0.94367 c 22.80715,-0.51901 41.86307,-1.33487 42.34649,-1.813 z M 58.420638,184.74375 c 0,-5.25369 -0.47733,-7.28533 -1.62202,-6.90377 -1.65902,0.553 -10.12953,11.54156 -10.28946,13.34821 -0.0487,0.55 2.61148,1 5.91148,1 h 6 z m 126.364712,2.81786 c 1.16003,-1.03392 -2.04022,-5.21219 -7.28197,-9.5074 -4.79885,-3.9323 -6.2528,-4.55144 -7.19475,-3.06379 -1.42669,2.25327 -1.61036,12.36429 -0.24932,13.72533 0.82198,0.82199 13.63563,-0.18229 14.72604,-1.15414 z m -83.51034,-75.2755 c 1.45067,-4.39559 1.30514,-4.75622 -3.767112,-9.33507 -11.29895,-10.199838 -24.59606,-20.762838 -26.13706,-20.762838 -1.75954,0 -2.76836,39.031618 -1.42387,55.090248 l 0.70525,8.42358 14.55691,-14.42185 c 9.28187,-9.19575 15.103722,-16.0787 16.065882,-18.99407 z m 54.43028,-6.0027 c 0.0563,-17.961888 -0.43548,-32.903728 -1.09651,-33.312258 -1.69867,-1.049842 -33.52148,33.747888 -33.52148,36.655198 0,2.54438 30.02791,29.22851 32.89112,29.22851 1.23023,0 1.64949,-7.90794 1.72687,-32.57145 z M 120.51597,90.504282 c 20.94145,-21.51248 33.90466,-36.818844 33.90466,-40.033069 0,-5.802895 -3.7084,-12.424857 -10.94598,-19.545842 -9.93722,-9.77714 -13.48724,-11.031003 -31.72068,-11.203687 -13.881402,-0.131468 -16.037112,0.182623 -22.765702,3.316994 -8.67815,4.042529 -16.90951,13.205831 -18.66856,20.782172 -0.64283,2.76871 -1.1831,8.19676 -1.20059,12.062336 -0.0304,6.710813 0.28441,7.346748 6.96819,14.076999 3.85,3.876767 10.2984,9.714027 14.32978,12.971677 4.03138,3.25765 9.702252,8.173 12.601932,10.923 2.89967,2.75 6.20127,4.99224 7.33688,4.98275 1.1356,-0.01 5.70764,-3.75948 10.16007,-8.33333 z"
       id="path165" />
  </g>
</svg>
