<?xml version="1.0" encoding="UTF-8" standalone="no"?>
<!-- Created with Inkscape (http://www.inkscape.org/) -->

<svg
   version="1.1"
   id="svg273"
   width="222.66667"
   height="206.66667"
   viewBox="0 0 222.66667 206.66667"
   xmlns="http://www.w3.org/2000/svg"
   xmlns:svg="http://www.w3.org/2000/svg">
  <defs
     id="defs277" />
  <g
     id="g279">
    <path
       style="fill:#000000;stroke-width:1.33333"
       d="m 17.189927,196.0604 c -9.141631,-1.22462 -10.5232602,-2.01508 -10.5232602,-6.02056 0,-3.64882 6.4638802,-9.6275 11.7694292,-10.88597 C 20.396243,178.68892 22.9,177.57296 24,176.67396 c 2.574159,-2.10378 21.247238,-9.14597 23.943166,-9.02969 1.131259,0.0488 4.156835,-0.43107 6.723501,-1.06636 6.571837,-1.62663 28.0299,-4.07303 40.666668,-4.63633 C 101.2,161.68006 111.4,161.23038 118,160.94227 c 7.65133,-0.33399 13.54636,-1.32441 16.26712,-2.73304 2.34692,-1.21508 6.20748,-2.20923 8.57904,-2.20923 7.56724,0 14.68419,-4.60221 21.83296,-14.11841 3.65982,-4.87183 9.05422,-11.20214 11.98755,-14.06737 C 183.69982,120.94438 201.05146,112 207.34547,112 c 10.468,0 13.27251,6.02617 5.65449,12.15009 -2.73886,2.20171 -5.74638,6.86237 -8.17376,12.66667 -2.11225,5.05078 -5.30348,12.48324 -7.0916,16.51658 -1.78812,4.03333 -3.59237,10.33333 -4.00945,14 -0.41707,3.66666 -1.19855,7.26666 -1.7366,8 -0.53807,0.73333 -1.7808,4.52922 -2.76163,8.4353 -1.94266,7.73656 -4.04824,9.59387 -10.81585,9.5406 -2.42609,-0.0191 -12.21107,0.51423 -21.7444,1.18516 -23.16419,1.63024 -130.039703,2.8302 -139.476743,1.566 z M 128.66667,186.553 c 0.73333,-0.21285 3.73333,0.0403 6.66667,0.56244 2.93333,0.5222 7.2131,0.39688 9.5106,-0.27849 2.5594,-0.75236 8.60881,-0.741 15.61928,0.0293 14.40181,1.58252 16.71614,0.36966 20.08368,-10.52514 1.30469,-4.22096 3.14213,-8.8916 4.08321,-10.37919 0.94108,-1.48759 2.03548,-6.34281 2.432,-10.78939 0.42097,-4.72088 1.87352,-9.97529 3.49109,-12.62862 2.8633,-4.69671 3.79572,-13.2106 1.4468,-13.2106 -0.73333,0 -1.33333,0.7873 -1.33333,1.74956 0,3.87285 -5.46047,12.9171 -7.79869,12.9171 -4.02856,0 -12.34678,10.97906 -13.53464,17.86411 -1.05486,6.11411 -6.59952,9.29745 -17.02747,9.77595 -4.93489,0.22642 -15.27253,0.99934 -22.97253,1.71758 -10.10103,0.94219 -15.0345,0.88442 -17.71456,-0.20748 -3.71431,-1.51325 -9.10589,-1.21564 -26.285445,1.45098 -4.766667,0.73989 -11.675138,1.3573 -15.352157,1.37205 -3.677018,0.0148 -9.968549,1.22681 -13.981177,2.69348 -4.012628,1.46667 -8.954159,2.66667 -10.981178,2.66667 -2.864264,0 -3.685489,0.62884 -3.685489,2.8221 0,2.41578 0.527933,2.68787 3.666667,1.88984 4.144426,-1.05373 4.043982,-1.0521 22.646048,-0.36692 7.505327,0.27644 13.969826,0.8264 14.365552,1.22214 0.715202,0.7152 44.107379,0.39201 46.655069,-0.3475 z m -27.77778,-80.77522 c -1.448729,-1.44873 -1.013566,-6.453101 0.71111,-8.177778 0.88,-0.88 2.59909,-1.6 3.82019,-1.6 3.31985,0 9.24648,-5.16777 9.24648,-8.062534 0,-1.41484 -1.62075,-3.378833 -3.66667,-4.443208 -2.01667,-1.049155 -5.12125,-3.464563 -6.89908,-5.367573 -2.38996,-2.55824 -4.561864,-3.460019 -8.333337,-3.460019 -6.967744,0 -9.592787,-3.071834 -12.394367,-14.503926 -2.813108,-11.479141 -1.595436,-15.942472 5.238448,-19.201324 2.957961,-1.410553 5.743729,-4.476808 8.259224,-9.090812 5.133122,-9.41534 14.648112,-14.960591 25.251162,-14.716152 9.9654,0.229737 16.64438,3.902621 21.92995,12.059662 2.35635,3.636458 6.86226,8.241274 10.01314,10.232922 6.20992,3.92526 7.22612,6.060703 7.24256,15.21963 0.0233,13.012294 -4.29506,20 -12.36004,20 -4.08211,0 -18.28099,11.040336 -18.28099,14.214384 0,0.93818 1.8,3.03658 4,4.663111 2.99724,2.215956 4,4.028593 4,7.230597 0,2.66668 -0.79292,4.57755 -2.10905,5.08259 -2.8723,1.1022 -34.55764,1.03152 -35.66873,-0.0796 z m 26.23862,-27.325984 c 7.21293,-4.9418 14.20583,-15.311323 14.20583,-21.065344 0,-2.276694 -0.85474,-2.719784 -5.24654,-2.719784 -6.83919,0 -12.0868,-2.056283 -12.0868,-4.73623 0,-3.395411 7.39075,-9.930437 11.23078,-9.930437 3.89573,0 4.36714,-2.077099 1.42481,-6.27786 -2.98375,-4.259906 -9.59202,-7.055474 -16.67798,-7.055474 -5.80766,0 -6.74379,0.496508 -12.46182,6.609546 -4.55174,4.86618 -6.18246,7.679672 -6.18246,10.666666 0,4.536011 0.96143,4.961399 4.74516,2.099526 4.10519,-3.105003 9.36832,-2.499619 12.46205,1.433426 2.05874,2.617256 2.41022,4.080992 1.42294,5.925743 -1.96581,3.673147 -2.94656,3.931815 -10.42523,2.749598 -6.86438,-1.085114 -6.87158,-1.082428 -6.87158,2.563936 0,4.722145 7.39493,15.695172 13.19718,19.582737 5.56742,3.73023 6.03449,3.736614 11.26366,0.153951 z m -14.23862,-7.340684 c -1.58509,-1.58509 -0.94066,-6.741623 1.04887,-8.392791 2.81278,-2.334399 15.88581,-0.111467 16.44583,2.796439 0.73763,3.830237 -3.46134,6.485241 -10.2566,6.485241 -3.49207,0 -6.74921,-0.4 -7.2381,-0.888889 z M 94.646251,61.000001 c -0.02292,-3.367936 -2.103334,-7.320693 -3.249678,-6.174349 -1.106553,1.106552 0.743174,9.174349 2.103428,9.174349 0.641667,0 1.157479,-1.35 1.14625,-3 z"
       id="path1229" />
  </g>
</svg>
