<?xml version="1.0" encoding="UTF-8" standalone="no"?>
<!-- Created with Inkscape (http://www.inkscape.org/) -->

<svg
   version="1.1"
   id="svg39"
   width="213.33333"
   height="213.33333"
   viewBox="0 0 213.33333 213.33333"
   xmlns="http://www.w3.org/2000/svg"
   xmlns:svg="http://www.w3.org/2000/svg">
  <defs
     id="defs43" />
  <g
     id="g45">
    <path
       style="fill:#000000;stroke-width:1.33333"
       d="m 9.4460331,203.62976 c -1.472981,-3.87424 -2.3784965,-26.48743 -1.1384492,-28.43018 0.5150381,-0.8069 0.880646,-4.24641 0.8124618,-7.64334 -0.1551934,-7.73175 2.6788363,-12.24935 8.4025193,-13.39408 2.403408,-0.4807 21.794044,-1.37715 43.090301,-1.99215 34.491059,-0.99603 55.185094,-1.05605 124.356394,-0.36071 l 18.96926,0.1907 2.35181,3.5893 c 2.05497,3.1363 2.29985,6.37582 1.94021,25.66667 -0.34433,18.46936 -0.7653,22.34973 -2.5759,23.74403 -3.81502,2.93781 -7.94932,1.94497 -11.10434,-2.66667 -1.63053,-2.38333 -5.34937,-6.83551 -8.26409,-9.89372 l -5.29948,-5.56037 -66.8267,-0.32915 c -36.754683,-0.18104 -70.726697,-0.37887 -75.493364,-0.43963 -8.58388,-0.10946 -8.688537,-0.0667 -10.956208,4.47663 -4.7318,9.48015 -10.406434,16.07957 -13.826308,16.07957 -2.190077,0 -3.667981,-1.01129 -4.4381169,-3.0369 z M 24,180.29842 c 3.329342,-4.17276 3.352488,-4.17864 19.333333,-4.90765 26.024746,-1.1872 117.572747,-1.26015 131.902827,-0.10507 12.48188,1.00607 13.45062,1.3017 17,5.18775 l 3.76384,4.12088 -0.0183,-7.96381 c -0.0331,-14.46776 1.08973,-13.7013 -19.09161,-13.03254 -9.65627,0.31998 -18.15686,0.5336 -18.89019,0.47471 -10.61895,-0.85275 -139.579906,-0.75237 -140.112302,0.10907 -0.401156,0.64908 -1.031315,6.72372 -1.400354,13.49921 C 15.74058,191.39136 15.27786,191.23014 24,180.29842 Z M 22.666666,76.03138 C 10.177821,74.956971 8.8525612,74.33375 6.1300432,68.254796 4.3778374,64.342399 3.8857819,58.494642 3.7301673,39.733842 3.5620391,19.464436 3.8780569,15.372296 5.9697076,10.733843 L 8.4049981,5.3333332 22.535832,5.0750261 c 22.669549,-0.4143924 36.570087,0.1642278 37.9871,1.581241 3.326802,3.3268011 3.85722,61.5763439 0.58964,64.7531709 C 59.1664,73.301558 40.623786,77.466623 35.722877,77.112503 34.041961,76.991047 28.166666,76.504541 22.666666,76.03138 Z M 52.263221,49.999999 c 1.144517,-21.334087 -0.247583,-30.290659 -5.04796,-32.477858 -4.665794,-2.125877 -29.157316,-2.011369 -30.9116,0.144525 -2.848756,3.500926 -2.659541,41.758572 0.226047,45.704848 1.491054,2.039138 4.219832,2.719373 13.666666,3.406853 6.491993,0.472445 13.903625,0.790585 16.470292,0.706979 l 4.666667,-0.152014 z m 69.296139,13.605687 c -0.95833,-1.154718 -1.06019,-4.370907 -0.30717,-9.69829 2.03375,-14.388113 3.90561,-18.403854 12.93477,-27.749172 l 8.52633,-8.824891 8.97669,-0.0075 c 4.93718,-0.0041 11.25688,-0.640629 14.04379,-1.414533 4.62259,-1.28366 5.60763,-1.049072 11.22859,2.674103 3.38882,2.24466 7.21,4.0812 8.49152,4.0812 2.52974,0 10.52398,4.157769 10.53769,5.480604 0.004,0.447665 1.53699,3.066401 3.40523,5.81941 4.41969,6.512767 8.60168,17.609616 8.60253,22.826668 0.001,8.438025 -0.53535,8.540014 -44.94107,8.540014 -31.17968,0 -40.38306,-0.383146 -41.4989,-1.727646 z m 63.77397,-8.873651 c 3.3,-0.05841 6.81413,-0.622064 7.80919,-1.25256 2.7619,-1.750025 0.7691,-8.157813 -4.17986,-13.440184 -2.3628,-2.521978 -4.896,-5.729005 -5.62933,-7.126725 -1.82256,-3.473765 -10.34936,-6.523398 -20.17701,-7.216358 -9.2939,-0.655327 -16.56487,2.162216 -24.13046,9.350679 -4.02961,3.828746 -9.35994,16.921442 -7.87052,19.332049 0.48701,0.788207 21.76268,0.926868 54.17799,0.353099 z"
       id="path147" />
  </g>
</svg>
