<?xml version="1.0" encoding="UTF-8" standalone="no"?>
<!-- Created with Inkscape (http://www.inkscape.org/) -->

<svg
   version="1.1"
   id="svg243"
   width="145.33333"
   height="213.33333"
   viewBox="0 0 145.33333 213.33333"
   xmlns="http://www.w3.org/2000/svg"
   xmlns:svg="http://www.w3.org/2000/svg">
  <defs
     id="defs247" />
  <g
     id="g249">
    <path
       style="fill:#000000;stroke-width:1.33333"
       d="m 92.666665,207.11996 -4,-1.95728 -0.51849,-38.91467 c -0.944668,-70.901143 -0.917668,-73.382909 0.847387,-77.891317 1.689384,-4.315122 3.499217,-5.244158 11.671098,-5.991086 3.8194,-0.3491 4.04923,-0.72682 5.09015,-8.365608 1.27728,-9.373384 0.0724,-39.915489 -1.7058,-43.238005 -1.82495,-3.409964 -11.095081,-9.428661 -14.522227,-9.428661 -1.647,0 -4.826364,-0.947271 -7.065254,-2.105045 -3.362581,-1.738859 -4.75158,-1.823019 -7.984743,-0.4838 -8.303033,3.439229 -9.527462,10.184226 -10.091123,55.588844 L 63.920063,112 h 3.076626 c 1.692144,0 4.392049,0.92136 5.999788,2.04746 2.432585,1.70385 2.886956,3.21427 2.707423,9 -0.118654,3.8239 0.268468,9.71127 0.86028,13.08306 0.992194,5.65294 0.726486,6.62449 -3.410748,12.47124 -9.344667,13.20592 -27.684794,12.73121 -34.637153,-0.89655 -2.5852,-5.0674 -2.688104,-6.12364 -1.133964,-11.63919 0.940089,-3.33631 1.634216,-9.64332 1.542504,-14.01558 -0.17578,-8.38009 0.801849,-9.99414 6.07518,-10.03002 4.175392,-0.0284 4.016199,-5.90593 -0.333333,-12.306838 -1.833334,-2.697992 -3.333334,-5.496839 -3.333334,-6.219662 0,-0.722821 -1.144572,-1.677493 -2.543492,-2.121493 -1.39892,-0.444 -2.880089,-1.684434 -3.291486,-2.756518 -0.411397,-1.072084 -1.607637,-1.949244 -2.658309,-1.949244 -2.817995,0 -3.779611,21.720485 -3.269299,73.845235 0.381659,38.98375 0.193419,43.99504 -1.697711,45.19634 -3.603349,2.28894 -8.704747,0.0505 -10.691594,-4.69128 C 15.083609,196.01026 14.668792,151.66761 16.311285,108 l 0.977952,-26.000001 -4.497608,-4 C 6.9206928,72.778614 5.3241269,69.424611 5.3757377,62.420987 c 0.048591,-6.593868 1.644358,-9.192852 7.2909283,-11.874542 3.403448,-1.616378 4.061879,-2.758319 4.41491,-7.656931 C 17.402241,38.439989 16.765197,36.170829 14.27697,32.899471 12.506237,30.571429 9.1339479,24.783381 6.7829945,20.037142 3.3029093,13.011348 2.765705,10.843188 3.8923484,8.3704756 5.5455471,4.7420999 10.050835,4.3836834 14.534088,7.5238759 c 2.907332,2.0363749 3.398525,2.0304073 6.979274,-0.084793 4.139008,-2.444972 8.444956,-1.8748536 9.654949,1.2783398 1.014442,2.6435913 3.506344,2.4051733 7.498355,-0.7174226 3.79977,-2.9722236 8.057729,-3.4089373 10.4,-1.0666667 2.418939,2.4189407 1.947851,4.9376476 -1.786255,9.5503386 -16.333629,20.176706 -16.885196,21.131266 -16.314362,28.234207 0.472013,5.87332 1.306302,7.484298 6.636183,12.814177 3.352963,3.352964 7.159007,8.335792 8.457875,11.072954 1.623999,3.422324 2.657252,4.417334 3.308264,3.185822 0.520676,-0.984958 1.288243,-11.486669 1.705702,-23.337135 0.685094,-19.447844 1.080194,-22.174848 4.056748,-28 1.813752,-3.549533 5.456243,-8.526182 8.094426,-11.0592195 4.648174,-4.462923 5.180866,-4.622325 17.204279,-5.1481877 11.237445,-0.4914872 13.028273,-0.225192 18.989029,2.8236584 12.203595,6.2419828 18.662715,15.5215318 21.065115,30.2633848 0.41828,2.566666 1.15403,13.366666 1.63501,23.999999 0.48097,10.633334 1.17731,19.84946 1.54742,20.480283 0.3701,0.630821 2.78099,0.804856 5.35752,0.386741 10.87974,-1.765537 12.06443,2.362667 11.23024,39.132974 -0.34105,15.03333 -0.48918,39.46701 -0.32916,54.29708 l 0.29094,26.96373 -3.53387,3.27508 c -3.39904,3.15012 -4.22982,3.2738 -21.77449,3.24155 -13.27473,-0.0244 -19.329589,-0.56639 -22.240615,-1.99081 z M 126.42189,193 c 0.4754,-4.13162 -0.32054,-4.39231 -5.08856,-1.66667 -5.23369,2.99185 -11.27202,2.4404 -15.8977,-1.45185 l -4.1023,-3.45187 v 3.01355 c 0,6.17545 3.55468,8.02957 14.58662,7.60836 9.89638,-0.37784 10.08773,-0.45167 10.50194,-4.05152 z M 116,178.66666 C 116,177.18518 115.11111,176 114,176 c -1.11111,0 -2,1.18518 -2,2.66666 0,1.48148 0.88889,2.66667 2,2.66667 1.11111,0 2,-1.18519 2,-2.66667 z m -3.41494,-15.406 c 4.82254,-0.9047 12.71781,2.24808 12.78882,5.10691 0.0239,0.96263 0.54831,0.76412 1.27808,-0.48379 1.03254,-1.76566 1.07547,-11.93909 0.15263,-36.17215 l -0.13793,-3.6217 -4.72723,2.78914 c -4.65085,2.74406 -9.2823,2.85357 -17.43778,0.41226 -2.62434,-0.78558 -2.87357,-0.26852 -3.40379,7.06176 -0.31467,4.35017 -0.32047,13.66325 -0.0129,20.69573 l 0.55923,12.78634 3.25828,-3.87224 c 1.85819,-2.20835 5.15939,-4.2289 7.68258,-4.70226 z M 62.934275,141.94512 c 1.285718,-2.82184 1.060958,-4.38199 -1.344588,-9.33334 -1.5886,-3.26981 -3.40317,-5.94512 -4.032376,-5.94512 -2.024942,0 -5.602352,4.84132 -6.886796,9.31992 -1.783785,6.21968 0.247553,9.34675 6.071648,9.34675 3.684412,0 4.968472,-0.70261 6.192112,-3.38821 z M 116,117.33333 c 0,-1.46667 -0.6,-2.66667 -1.33334,-2.66667 -0.73333,0 -1.33333,1.2 -1.33333,2.66667 0,1.46667 0.6,2.66667 1.33333,2.66667 C 115.4,120 116,118.8 116,117.33333 Z M 109.66666,101.8227 C 110.95,101.38249 112,100.15607 112,99.097336 c 0,-1.409099 -1.33997,-1.814078 -5,-1.511158 -4.33702,0.35895 -5.05581,0.898606 -5.42088,4.069902 -0.38747,3.36594 -0.17585,3.54939 2.66667,2.31154 1.69815,-0.7395 4.13754,-1.70471 5.42087,-2.14492 z m 17,1.11063 c 0,-3.463298 -2.64543,-5.599998 -6.93333,-5.599998 -5.01406,0 -4.69738,2.800058 0.63028,5.572948 5.5852,2.90694 6.30305,2.91002 6.30305,0.0271 z M 34.666666,72.933332 c 0,-1.921261 -2.605036,-4.933333 -4.266667,-4.933333 -1.618085,0 -1.275114,3.258219 0.533334,5.066667 2.093748,2.093747 3.733333,2.035191 3.733333,-0.133334 z"
       id="path271" />
  </g>
</svg>
