<?xml version="1.0" encoding="UTF-8" standalone="no"?>
<!-- Created with Inkscape (http://www.inkscape.org/) -->

<svg
   version="1.1"
   id="svg233"
   width="109.33333"
   height="217.33333"
   viewBox="0 0 109.33333 217.33333"
   xmlns="http://www.w3.org/2000/svg"
   xmlns:svg="http://www.w3.org/2000/svg">
  <defs
     id="defs237" />
  <g
     id="g239">
    <path
       style="fill:#000000;stroke-width:1.33333"
       d="m 25.712547,210.23326 c -4.975234,-1.33838 -11.633474,-3.09806 -14.796088,-3.91042 -11.13182054,-2.85935 -10.62150688,-9.74748 1.162868,-15.69622 10.251216,-5.1748 17.503472,-7.49422 26.827361,-8.57996 4.165345,-0.48505 8.262837,-1.71268 9.105537,-2.72806 1.071756,-1.29139 1.242081,-5.55455 0.5668,-14.1867 -0.955362,-12.21246 -1.019861,-12.38961 -6.214953,-17.06954 -3.375847,-3.04111 -7.233117,-5.07158 -10.806822,-5.68875 -3.056488,-0.52784 -7.786227,-1.34104 -10.510529,-1.80708 -2.724304,-0.46605 -5.623875,-1.65539 -6.443492,-2.64297 -2.377631,-2.86487 -0.06381,-7.3398 4.858586,-9.39651 5.621066,-2.34863 5.85356,-5.26398 0.505102,-6.33367 -4.089579,-0.81791 -6.933823,-5.15037 -5.63014,-8.57603 2.106494,-5.53519 22.438083,-8.03724 29.217027,-3.5955 1.660472,1.08798 3.563273,1.97815 4.228448,1.97815 0.696597,0 1.238324,-17.795743 1.277604,-41.969254 l 0.06819,-41.969254 -5.089232,-4.030746 C 41.239741,21.813836 38.609056,20 38.192852,20 c -0.416205,0 -1.395717,2.372998 -2.176696,5.27333 -0.780978,2.900331 -2.342509,6.195879 -3.47007,7.32344 -1.810459,1.810459 -2.488831,1.823237 -5.803189,0.10932 -4.093206,-2.116682 -5.409564,-4.456056 -5.409564,-9.613634 0,-15.6884726 21.675079,-23.82814488 33.687931,-12.650875 6.299377,5.861209 6.887301,10.656716 6.929361,56.520594 l 0.03879,42.295505 11.500784,-0.81635 c 13.057548,-0.92685 17.43817,-0.17963 21.240941,3.62314 2.230854,2.23085 2.409437,3.14547 1.099813,5.63275 -2.169337,4.12008 -3.699882,4.90842 -9.830952,5.06363 -4.660127,0.11797 -4.902751,0.26568 -1.922134,1.17012 8.507448,2.5815 11.867906,5.49325 11.901717,10.31251 0.02213,3.15501 -0.577236,3.43146 -12.62866,5.82477 -7.423838,1.47431 -10.258237,2.98467 -18.638283,9.93175 -2.89269,2.39804 -3.242348,3.8083 -3.471138,14 -0.139929,6.23333 -0.17651,12.31524 -0.08129,13.51533 0.181796,2.29129 1.585479,2.71352 18.83979,5.66688 11.407168,1.95253 23.403867,7.50572 24.641957,11.4066 1.78286,5.61729 -1.09694,7.92472 -15.906421,12.74497 -20.297819,6.60663 -45.014908,7.74378 -63.022986,2.89948 z m 51.954117,-10.39294 c 6.482375,-1.65487 6.358831,-4.1003 -0.312334,-6.18235 -6.156452,-1.92143 -34.444657,-2.22179 -41.354331,-0.43911 -2.566667,0.66219 -6.955195,1.59326 -9.752284,2.06904 -8.811682,1.49886 -4.942869,3.94891 8.520405,5.39584 14.0684,1.51198 35.307826,1.09438 42.898544,-0.84342 z"
       id="path410" />
  </g>
</svg>
