<?xml version="1.0" encoding="UTF-8" standalone="no"?>
<!-- Created with Inkscape (http://www.inkscape.org/) -->

<svg
   version="1.1"
   id="svg223"
   width="212"
   height="218.66667"
   viewBox="0 0 212 218.66667"
   xmlns="http://www.w3.org/2000/svg"
   xmlns:svg="http://www.w3.org/2000/svg">
  <defs
     id="defs227" />
  <g
     id="g229">
    <path
       style="fill:#000000;stroke-width:1.33333"
       d="m 193.63629,213.55404 c -5.00752,-2.37152 -4.77166,-0.44942 -4.49494,-36.632 0.1032,-13.49922 0.7794,-24.86161 1.56704,-26.33333 0.95368,-1.78196 2.79546,-2.58871 5.90996,-2.58871 7.11716,0 8.71382,2.64112 8.72265,14.42858 0.004,5.63094 0.17243,19.124 0.37381,29.98454 0.23018,12.41308 -0.14404,20.14047 -1.00765,20.80742 -2.82995,2.18552 -6.90133,2.30817 -11.07087,0.3335 z M 7.1760295,203.36999 c -1.0134828,-1.44649 -1.8426962,-3.98387 -1.8426962,-5.63859 0,-5.52108 6.8951537,-23.63614 10.9410437,-28.74449 13.210339,-16.67941 37.732402,-20.54088 55.271895,-8.70363 11.42168,7.7084 21.321073,22.72135 22.708879,34.43919 1.195536,10.09443 0.04692,10.58247 -25.35039,10.77103 -11.864285,0.0881 -30.192214,0.23808 -40.728732,0.33333 -17.665041,0.15968 -19.3008405,-0.0317 -20.9999995,-2.45684 z m 71.6525775,-10.8034 c 2.878481,-1.779 0.742073,-7.51387 -5.648092,-15.16144 -8.082459,-9.67288 -11.145406,-11.42048 -22.117768,-12.61955 -6.948318,-0.75932 -9.154482,-0.45289 -13.799218,1.91668 -8.736106,4.45683 -17.04923,12.88359 -18.678349,18.93367 -2.511716,9.32781 -3.420235,9.07168 29.527961,8.32455 16.249239,-0.36848 30.071199,-0.99574 30.715466,-1.39391 z M 197.63101,104.43841 c -2.19726,-0.88339 -6.89941,-10.101531 -9.06533,-17.771742 -2.75575,-9.759063 -7.64177,-20.390719 -12.25216,-26.65986 -2.37244,-3.226015 -4.32833,-6.497279 -4.34644,-7.269478 -0.0181,-0.772197 -3.57439,-5.153996 -7.90285,-9.737329 -8.74744,-9.262496 -10.76463,-9.8458 -19.47195,-5.630654 C 134.38663,42.309815 120.91565,44.284725 102,43.613575 86.337068,43.057837 83.249863,42.51509 69.964848,37.981623 L 55.263029,32.964675 45.964848,37.453783 C 25.561683,47.30431 5.6152436,42.552679 3.3349095,27.2985 1.8345797,17.262122 10.541555,9.1696817 24.888079,7.2665481 31.939971,6.3310814 38.290753,7.9275587 49.841768,13.539475 l 6.294843,3.058271 6.265028,-3.435924 C 73.351352,7.1566809 80.194915,6.0000001 104.77493,6.0000001 c 23.95456,0 25.78799,0.3669499 40.76412,8.1587069 C 147.48553,15.171418 150.41472,16 152.04835,16 155.23183,16 164,11.147986 164,9.386348 c 0,-1.7963692 7.49601,-4.2826565 11.52335,-3.8220746 5.82293,0.6659354 5.78208,5.9391726 -0.11094,14.3232866 -2.61013,3.713467 -4.7416,7.507912 -4.73658,8.432099 0.005,0.924188 2.06881,3.082877 4.58622,4.79709 9.85371,6.709802 25.78031,35.573208 29.25398,53.016295 2.76184,13.868616 2.7072,16.141966 -0.42832,17.820046 -2.76528,1.47993 -3.79095,1.55703 -6.45664,0.48532 z M 116,31.434792 c 20.11516,-2.500824 22.35704,-3.818349 13.66667,-8.03172 -7.19571,-3.488709 -36.221766,-5.195536 -47.416255,-2.78823 -10.501906,2.25837 -12.917082,3.262872 -12.917082,5.372374 0,1.780482 1.773652,2.365196 16,5.274671 C 96.409071,33.527021 99.051513,33.541919 116,31.434792 Z M 29.166667,31.166667 c 2.601441,-0.520288 4.174336,-1.647251 4.187084,-3 0.01625,-1.724447 0.25441,-1.797375 1.166872,-0.357317 1.424748,2.248554 6.81271,0.796101 6.81271,-1.836528 0,-2.205932 -7.94205,-4.62169 -15.228345,-4.632052 C 17.662291,21.328762 12.536331,28.02704 19,30.625118 c 3.759651,1.511194 4.990595,1.576764 10.166667,0.541549 z"
       id="path549" />
  </g>
</svg>
