<?xml version="1.0" encoding="UTF-8" standalone="no"?>
<!-- Created with Inkscape (http://www.inkscape.org/) -->

<svg
   version="1.1"
   id="svg213"
   width="152"
   height="213.33333"
   viewBox="0 0 152 213.33333"
   xmlns="http://www.w3.org/2000/svg"
   xmlns:svg="http://www.w3.org/2000/svg">
  <defs
     id="defs217" />
  <g
     id="g219">
    <path
       style="fill:#000000;stroke-width:1.33333"
       d="M 22.666667,206.65534 C 10.667306,205.84181 6.6961859,203.93945 6.5884785,198.95309 6.5454751,196.96222 6.2357432,178.97236 5.9001855,158.97561 5.0818819,110.2108 4.3115815,111.60593 31.748788,112.15978 c 9.304833,0.18783 36.610793,-0.0389 60.679912,-0.50377 46.12662,-0.89094 49.79669,-0.53669 50.82607,4.90591 1.02608,5.42518 3.4397,55.03196 3.42591,70.41268 -0.0165,18.51618 2.21072,16.84021 -23.34735,17.5681 -9.53333,0.27151 -20.07392,0.92704 -23.423519,1.45672 -4.830903,0.76392 -6.554012,0.49923 -8.333334,-1.28009 -2.856168,-2.85616 -2.833353,-5.03491 0.09019,-8.61292 2.081083,-2.54697 4.063053,-2.93091 18.333333,-3.55148 8.8,-0.38268 17.95,-0.99128 20.33333,-1.35244 l 4.33333,-0.65667 -0.012,-27.60624 c -0.007,-15.18344 -0.39972,-30.83874 -0.8741,-34.78956 l -0.86251,-7.1833 -16.79256,0.98527 c -31.626714,1.85564 -51.476068,2.42122 -74.195887,2.11413 -18.855075,-0.25486 -23.020195,0.0343 -24.397531,1.69392 -1.217001,1.46639 -1.454702,6.04197 -0.889417,17.1206 0.424307,8.31565 0.713025,21.71936 0.641599,29.78602 -0.09139,10.32062 0.39739,15.37482 1.649473,17.05647 1.525712,2.04917 4.246696,2.43852 19.089267,2.73155 19.407702,0.38314 23.321412,1.60297 23.289509,7.25889 -0.03888,6.89431 -1.405705,7.56027 -15.579981,7.59123 -7.186032,0.0157 -17.565852,-0.27656 -23.065852,-0.64946 z M 11.170773,101.67061 C 9.4037713,101.37208 7.4572117,99.231517 5.9861297,95.96924 3.8400832,91.210159 3.7057857,87.275681 4.4752801,51.706263 5.2656205,15.173242 5.48702,12.528156 7.9235493,10.509389 11.281427,7.7272448 24.740364,6.9574058 89.333333,5.8528226 138.58903,5.010517 139.36976,5.0384509 141.7802,7.7293383 c 2.12815,2.3757407 2.52131,5.8277477 3.01827,26.5011047 0.31425,13.073256 0.80574,32.334125 1.09217,42.801932 0.42431,15.506069 0.15624,19.396935 -1.44683,20.999999 -1.08218,1.082194 -2.67476,2.051136 -3.53905,2.153206 -5.63119,0.66504 -14.29968,1.16613 -28.43988,1.64397 -17.974189,0.60742 -22.248671,-0.49079 -22.81028,-5.860446 -0.657631,-6.287737 0.590716,-6.696413 22.28884,-7.296775 11.21611,-0.310336 20.57427,-0.745592 20.79591,-0.967233 1.26081,-1.260819 0.84896,-49.008047 -0.48626,-56.371763 -0.92632,-5.108663 -1.18538,-5.339081 -6.1497,-5.469779 -3.97824,-0.104733 -5.78024,-0.956834 -7.75422,-3.666666 -3.20426,-4.398748 -5.48765,-4.481615 -7.40713,-0.268816 -1.76925,3.883081 -9.16619,5.782824 -13.495277,3.465966 -1.932696,-1.034346 -7.384016,-1.231808 -17.140396,-0.620869 -18.015398,1.128113 -25.183696,0.898033 -28.575455,-0.917181 -1.507217,-0.806638 -4.75484,-1.043872 -7.427152,-0.542544 -3.243848,0.60855 -6.342284,0.172308 -9.777037,-1.376551 -5.730122,-2.583924 -10.577863,-1.885753 -14.560638,2.097021 -2.414222,2.414223 -2.619005,4.375836 -2.467138,23.632752 0.09109,11.55 0.541088,25.2 1,30.333333 l 0.834386,9.333333 18.56396,1.028144 c 10.210179,0.565479 19.360179,1.688947 20.333334,2.496593 C 59.203783,91.665716 60,93.679584 60,95.333332 c 0,5.713408 -2.801533,6.455098 -25.084331,6.640878 -11.503617,0.0959 -22.188821,-0.0407 -23.744896,-0.3036 z"
       id="path688" />
  </g>
</svg>
