<?xml version="1.0" encoding="UTF-8" standalone="no"?>
<!-- Created with Inkscape (http://www.inkscape.org/) -->

<svg
   version="1.1"
   id="svg203"
   width="218.66667"
   height="206.66667"
   viewBox="0 0 218.66667 206.66667"
   xmlns="http://www.w3.org/2000/svg"
   xmlns:svg="http://www.w3.org/2000/svg">
  <defs
     id="defs207" />
  <g
     id="g209">
    <path
       style="fill:#000000;stroke-width:1.33333"
       d="m 151.79906,202.0811 c -0.47719,-0.5101 -31.04989,-0.95855 -67.939327,-0.99658 -36.889439,-0.038 -67.999013,-0.56136 -69.132386,-1.16296 -1.133375,-0.6016 -3.607816,-1.41568 -5.4987609,-1.80905 C 4.2418661,197.07511 3.0129499,192.90307 3.8933619,180 l 0.7733048,-11.33333 12.6666673,-0.83641 c 6.966666,-0.46003 24.366667,-0.5668 38.666667,-0.23727 14.446811,0.33291 26.762735,0.0635 27.716506,-0.60641 1.346881,-0.94596 0.991448,-2.47399 -1.650606,-7.09607 -4.207204,-7.36019 -4.224482,-8.905 -0.12052,-10.77489 4.258244,-1.94019 9.270659,1.14993 12.354262,7.61632 2.295386,4.81346 5.61306,5.91972 8.244487,2.74905 2.86495,-3.45205 8.03881,-3.37928 12.2598,0.17245 l 3.94588,3.32024 7.7218,-8.31846 c 6.33563,-6.82516 8.24243,-8.15322 10.622,-7.39796 4.91687,1.56054 5.07044,6.63713 0.37319,12.33572 -2.27341,2.75804 -4.13347,5.56777 -4.13347,6.24385 0,0.72715 7.40946,0.91859 18.1397,0.46869 9.97684,-0.4183 27.12388,-0.41526 38.10453,0.007 24.57003,0.94428 24.00638,0.48015 22.82008,18.79079 -0.7012,10.82325 -1.18333,12.68361 -3.71736,14.34397 -2.155,1.41201 -9.81146,2.12267 -29.46264,2.73464 -14.60303,0.45477 -26.9414,0.40952 -27.41859,-0.10053 z m 46.77074,-13.41648 c 3.1863,-3.18012 -0.0413,-8.12352 -6.13128,-9.39044 -6.13378,-1.27606 -134.830082,-2.10075 -160.693232,-1.02974 -19.500858,0.80755 -20.591339,1.25372 -18.959108,7.75704 0.549042,2.18756 2.245938,3.51996 5.665478,4.44856 3.111458,0.84494 36.309176,1.10596 91.548342,0.71983 72.63414,-0.50773 86.97482,-0.91336 88.5698,-2.50525 z M 120,129.72111 c -1.83333,-0.32032 -8.67548,-2.3973 -15.20478,-4.61551 l -11.871448,-4.03312 -4.976759,2.79709 c -8.933708,5.02103 -20.845487,2.74159 -28.936149,-5.53723 -4.564447,-4.6706 -4.88891,-5.55149 -4.911107,-13.33334 -0.01307,-4.58278 0.772212,-10.132332 1.745077,-12.332332 C 57.521116,88.875989 57.28648,88.1339 51.361097,78.485803 44.821907,67.838266 39.601494,52.162622 39.876391,44.000001 40.431459,27.518151 49.787453,13.221319 64.836612,5.8584518 71.688378,2.5061948 72.84717,2.3480075 84.247701,3.2086335 c 6.668376,0.5033959 13.690616,1.707199 15.604977,2.6751181 1.914362,0.9679192 5.766452,2.1739457 8.560212,2.6800591 2.97733,0.53937 7.18281,2.8203703 10.1616,5.5115313 5.64983,5.104285 8.88921,5.626633 15.07057,2.430126 6.48558,-3.353824 17.03245,-1.776984 23.76152,3.552536 10.5427,8.349984 13.28193,19.849591 7.24402,30.411429 -3.81965,6.681557 -4.06593,8.582712 -1.39861,10.796391 1.05527,0.875788 3.21961,5.795798 4.80965,10.933356 4.04732,13.077129 3.78618,28.22525 -0.63705,36.95409 -8.15276,16.08869 -26.79253,24.17269 -47.42459,20.56784 z m 25.7145,-14.38777 c 2.7763,-2.2 6.43809,-6.46775 8.1373,-9.48389 3.7298,-6.620452 5.51908,-18.042261 3.43611,-21.934334 -0.80905,-1.511725 -1.51356,-4.66106 -1.56557,-6.99852 -0.052,-2.33746 -1.08596,-5.749928 -2.29768,-7.583262 -1.21171,-1.833333 -3.37796,-5.621444 -4.81388,-8.418024 -2.78062,-5.415474 -19.98353,-24.026064 -25.79572,-27.906524 -1.91495,-1.278501 -5.11265,-2.328502 -7.106,-2.333334 -2.52348,-0.0061 -5.6618,-1.982994 -10.33258,-6.508633 -3.89334,-3.772365 -8.457037,-6.849597 -10.875717,-7.333333 -6.060794,-1.212159 -11.560714,-1.021182 -12.459218,0.432629 -0.430376,0.696363 -3.615786,0.969159 -7.078689,0.606212 -7.081426,-0.7422 -14.707538,2.755949 -19.187648,8.801507 -5.904883,7.968175 -5.67411,26.094754 0.475205,37.326167 8.003444,14.617884 12.169872,19.763587 26.277314,32.453518 C 102.65921,114.5622 113.84266,120.01616 130,119.60486 c 9.63348,-0.24522 11.1556,-0.65897 15.7145,-4.27152 z m -67.214499,-0.16667 c 2.291667,-0.45833 4.166667,-1.36621 4.166667,-2.0175 0,-0.65129 -3.043685,-4.21187 -6.763744,-7.9124 -7.705615,-7.665168 -11.021628,-8.103976 -11.655323,-1.54235 -0.325139,3.36667 0.473703,5.23201 3.564103,8.32241 4.3218,4.3218 4.526642,4.38217 10.688297,3.14984 z M 152,40.000001 c 0,-0.733334 -0.93541,-1.333334 -2.07869,-1.333334 -1.14328,0 -1.70787,0.6 -1.25464,1.333334 0.45323,0.733333 1.38864,1.333333 2.07869,1.333333 0.69006,0 1.25464,-0.6 1.25464,-1.333333 z"
       id="path827" />
  </g>
</svg>
