<?xml version="1.0" encoding="UTF-8" standalone="no"?>
<!-- Created with Inkscape (http://www.inkscape.org/) -->

<svg
   version="1.1"
   id="svg193"
   width="220"
   height="209.33333"
   viewBox="0 0 220 209.33333"
   xmlns="http://www.w3.org/2000/svg"
   xmlns:svg="http://www.w3.org/2000/svg">
  <defs
     id="defs197" />
  <g
     id="g199">
    <path
       style="fill:#000000;stroke-width:1.33333"
       d="m 126,200.73316 c -8.06667,-1.6839 -17.45886,-4.01098 -20.87153,-5.1713 -10.313582,-3.50662 -25.554235,-14.94217 -36.181303,-27.14796 -7.554706,-8.677 -9.866986,-29.80965 -4.881111,-44.60999 3.923912,-11.64795 8.110911,-16.17408 20.21804,-21.8556 11.928844,-5.597865 20.216944,-6.249708 31.701604,-2.493268 9.9743,3.262428 14.88837,7.100948 19.10159,14.920798 4.68358,8.69285 5.30775,20.28254 1.63135,30.29082 -2.93159,7.98064 -6.07593,11.77162 -13.97968,16.85454 -6.70786,4.31385 -8.82657,4.58833 -15.02706,1.94672 -2.40821,-1.02598 -6.98797,-2.94388 -10.177232,-4.26202 -7.220731,-2.98436 -11.420329,-8.40098 -13.856901,-17.87257 -1.728267,-6.71823 -1.677039,-7.8104 0.610749,-13.02087 1.610877,-3.66879 4.369136,-6.8692 7.771036,-9.01672 8.741868,-5.5185 6.605501,-8.05643 -2.759836,-3.27859 -6.050928,3.08695 -8.252791,6.03942 -11.349295,15.2182 -3.713028,11.00631 -0.708902,20.92127 10.02951,33.10187 3.072793,3.48548 7.184361,6.72132 9.136817,7.19075 1.952455,0.46944 6.355812,2.25544 9.785242,3.96889 7.44476,3.71967 16.92938,7.12348 19.92431,7.1504 2.73079,0.0245 17.43819,4.69526 21.46727,6.81748 3.96835,2.09024 4.99454,3.75751 5.01935,8.15502 0.0403,7.1405 -5.17379,7.73486 -27.31292,3.1134 z m -10.7294,-54.28052 c 5.11978,-2.33272 4.07848,-3.92662 -1.93689,-2.96471 -5.31803,0.85039 -5.34068,0.83529 -8.09721,-5.39629 -3.05534,-6.90711 -5.686115,-7.39399 -6.307672,-1.16738 -0.317063,3.17627 0.497676,4.81138 3.768972,7.56399 4.58589,3.85877 7.43729,4.30428 12.5728,1.96439 z m 9.25341,-9.89503 c 2.39672,-6.24574 -0.45829,-14.02141 -7.24509,-19.73212 -3.85119,-3.24057 -7.94559,-4.60806 -7.94559,-2.65376 0,0.46112 2.06008,3.11865 4.57794,5.90563 4.0551,4.48851 7.39314,12.10702 7.41463,16.92264 0.0105,2.37293 2.2359,2.06512 3.19811,-0.44239 z M 81.333333,61.96587 C 56.32146,56.958312 48.707761,54.534474 40,48.807302 37.433333,47.119182 31.985663,43.582794 27.894064,40.948662 23.802467,38.31453 16.752467,32.201529 12.227398,27.364217 5.4450137,20.113826 4,17.763442 4,13.981954 4,5.776738 6.7963543,5.0130235 36.329819,5.152333 127.48576,5.5823155 202.79168,6.5266454 205.13091,7.269084 c 3.59833,1.1420685 4.90185,5.599324 2.791,9.543508 -1.41328,2.640742 -1.35218,3.547977 0.37104,5.507786 3.28008,3.730456 7.70773,13.291509 7.69961,16.626504 -0.0267,10.929681 -6.44892,18.371126 -15.86404,18.381466 -3.61425,0.004 -5.5762,-1.119424 -9.63705,-5.518118 -2.80439,-3.037705 -5.45266,-6.637705 -5.88503,-8 -0.43237,-1.362293 -1.31255,-2.476897 -1.95592,-2.476897 -0.64339,0 -7.35295,3.251137 -14.91015,7.224748 -10.28309,5.406897 -17.09524,7.953705 -27.0737,10.121865 -24.31618,5.28351 -43.930174,6.369748 -59.333337,3.285924 z M 125.67421,50.026734 c 13.18252,-2.737321 23.66626,-6.040884 27.65912,-8.715753 1.83334,-1.228172 7.23334,-4.177172 12,-6.553332 10.0852,-5.027424 17.87776,-11.828424 16.06107,-14.017397 -0.84109,-1.013462 -13.39345,-1.358846 -40.97017,-1.127314 -21.86666,0.183591 -57.057563,0.345786 -78.202007,0.360432 -28.987499,0.02008 -38.315135,0.41456 -37.918774,1.603646 1.609582,4.828744 30.782927,21.077513 46.276678,25.774866 13.898208,4.21362 41.281133,5.543078 55.094083,2.674852 z m 77.84758,-8.037028 c 0.977,-2.546025 -2.94242,-8.656373 -5.55252,-8.656373 -2.42011,0 -2.69466,6.741277 -0.36927,9.066666 2.19971,2.199703 4.99453,2.006062 5.92179,-0.410293 z"
       id="path966" />
  </g>
</svg>
