<?xml version="1.0" encoding="UTF-8" standalone="no"?>
<!-- Created with Inkscape (http://www.inkscape.org/) -->

<svg
   version="1.1"
   id="svg183"
   width="226.66667"
   height="197.33333"
   viewBox="0 0 226.66667 197.33333"
   xmlns="http://www.w3.org/2000/svg"
   xmlns:svg="http://www.w3.org/2000/svg">
  <defs
     id="defs187" />
  <g
     id="g189">
    <path
       style="fill:#000000;stroke-width:1.33333"
       d="m 9.8435624,190.45161 c -3.3997692,-1.64733 -4.510229,-9.66193 -4.510229,-32.55196 0,-11.89723 0.438099,-15.48061 2.0952382,-17.13775 2.8969114,-2.8969 10.8224514,-2.74353 12.3025764,0.2381 0.637068,1.28333 1.108179,12.43078 1.046912,24.77213 -0.102266,20.60028 -0.323454,22.59401 -2.699566,24.33333 -2.983047,2.18359 -4.326287,2.24004 -8.2349316,0.34615 z m 95.7264076,-2.83315 c -0.84664,-1.02014 -1.58797,-10.87792 -1.82992,-24.33333 -0.48031,-26.71151 0.60846,-31.29806 7.42171,-31.26471 2.29437,0.0112 4.91455,0.49229 5.82263,1.06904 2.62041,1.66428 4.05887,12.78766 4.21246,32.5743 0.12937,16.66701 -0.1,18.57269 -2.52728,21 -3.04542,3.04542 -10.88997,3.61714 -13.0996,0.9547 z m 101.13294,-0.90118 C 204.08307,185.06049 203.16462,173.04634 204,151.36096 l 0.66667,-17.30572 3.75743,-1.31693 c 2.8219,-0.98904 4.64776,-0.81754 7.33333,0.68881 l 3.57591,2.00572 0.36402,24.4433 c 0.25167,16.8985 -0.10733,25.01135 -1.16325,26.28359 -1.73297,2.08811 -8.87849,2.42484 -11.8312,0.55755 z M 126.2658,60.502466 C 126.11961,60.364223 101.96797,59.935503 72.595493,59.549754 35.831323,59.066928 18.116476,58.358812 15.742522,57.277166 10.846823,55.046536 9.3333335,50.697148 9.3333335,38.858769 c 0,-15.595301 -0.2491166,-15.430825 22.8359655,-15.077155 10.540219,0.161482 27.695243,0.623702 38.122275,1.027158 10.427034,0.403457 19.585242,0.346049 20.351575,-0.127574 0.855992,-0.52903 -0.22776,-3.11846 -2.810176,-6.71441 C 83.971481,12.589759 83.764692,11.787039 85.291461,8.1010924 88.522468,0.30074951 96.069684,1.836559 102.205,11.542887 c 2.60748,4.12515 4.30636,5.600662 5.74822,4.992458 9.04598,-3.815773 9.32273,-3.839324 14.20693,-1.209009 l 4.80305,2.586609 3.91031,-4.623139 c 2.15067,-2.542727 4.50091,-5.3659629 5.22273,-6.2738583 2.0352,-2.5597814 7.76004,-3.50947 11.33542,-1.8804209 4.41965,2.0137296 4.15616,6.5542002 -0.7108,12.2481712 -2.1702,2.538966 -3.9702,5.157702 -4,5.819412 -0.0319,0.707811 14.23102,0.832986 34.64542,0.304055 43.36892,-1.123672 42.60088,-1.385081 42.5815,14.492834 -0.012,10.290196 -1.59383,18.846277 -3.9112,21.163019 -1.05367,1.05339 -14.67968,1.516696 -45.50452,1.547222 C 146.3318,60.7342 126.41199,60.64071 126.2658,60.502466 Z M 178,49.006727 l 28,-0.340061 0.41239,-4.260653 c 0.38604,-3.98843 0.0453,-4.366071 -5.33333,-5.910574 -4.05428,-1.164213 -21.0536,-1.719284 -57.74572,-1.885546 -28.6,-0.129587 -65.800006,-0.370367 -82.666672,-0.535051 -16.866667,-0.164684 -32.273253,0.105253 -34.236857,0.599863 -6.969276,1.755476 -6.369235,9.382221 0.844629,10.735549 13.688349,2.56795 44.160508,2.890709 150.72556,1.596473 z"
       id="path1105" />
  </g>
</svg>
