<?xml version="1.0" encoding="UTF-8" standalone="no"?>
<!-- Created with Inkscape (http://www.inkscape.org/) -->

<svg
   version="1.1"
   id="svg173"
   width="152"
   height="212"
   viewBox="0 0 152 212"
   xmlns="http://www.w3.org/2000/svg"
   xmlns:svg="http://www.w3.org/2000/svg">
  <defs
     id="defs177" />
  <g
     id="g179">
    <path
       style="fill:#000000;stroke-width:1.33333"
       d="m 19.333333,207.01291 c -7.928495,-0.81424 -9.9839734,-1.78102 -11.9757482,-5.63268 -2.7502504,-5.3184 -2.7212545,-27.23887 0.048635,-36.76695 1.8847026,-6.48316 1.880047,-7.50339 -0.051283,-11.23817 -1.5754548,-3.04659 -2.124168,-7.99738 -2.124168,-19.16538 0,-8.28173 0.3694683,-16.0205 0.8210405,-17.19728 1.8347762,-4.78135 -0.603153,-4.60637 79.4819347,-5.70476 36.306346,-0.49796 59.833406,-0.33167 60.301786,0.4262 1.14686,1.85564 3.89828,82.48898 2.94443,86.28942 -1.51585,6.03962 -5.05673,6.93674 -30.94334,7.83989 l -24.163383,0.84301 -1.744679,-4.21202 c -1.604646,-3.87396 -1.499414,-4.41063 1.311094,-6.68644 3.195224,-2.58734 4.957973,-2.75036 26.870688,-2.48514 9.08585,0.11 13.19711,-0.35153 14.23118,-1.5975 0.981,-1.18203 1.19795,-7.60483 0.66672,-19.73864 -0.43311,-9.89256 -0.65765,-23.04103 -0.499,-29.21882 0.36175,-14.08566 -1.25359,-18.41125 -7.29895,-19.54537 -2.47126,-0.46361 -13.35455,-0.26354 -24.18508,0.4446 -10.830531,0.70815 -22.691877,1.23859 -26.358543,1.17877 C 73,124.78582 58.4322,124.87108 44.293777,125.03511 l -25.706222,0.29822 0.372889,33.3477 c 0.337749,30.20516 0.589564,33.41661 2.672187,34.07904 1.264613,0.40225 9.778001,0.78774 18.918638,0.85668 9.140639,0.0689 17.180576,0.48334 17.866528,0.92094 0.685951,0.4376 1.661583,2.70624 2.168071,5.04143 1.474336,6.79747 -2.085444,8.13345 -21.252535,7.976 -8.8,-0.0723 -17.8,-0.31628 -20,-0.54221 z M 102.66667,103.94532 C 90.198504,102.25198 72.12834,97.443291 65.376831,94.022041 48.456649,85.447937 39.763117,77.525327 33.650756,65.109359 c -3.949763,-8.023108 -4.317423,-9.849176 -4.317423,-21.44348 0,-13.303087 1.270948,-18.062439 7.428004,-27.815847 2.360158,-3.738732 5.814382,-6.4469517 12.547719,-9.8378061 8.525903,-4.293576 10.254555,-4.6778199 20.990992,-4.6658674 17.902549,0.01993 28.86496,6.1768007 35.568862,19.9767095 2.70499,5.568173 2.81063,6.745828 1.43627,16.010265 -1.75714,11.84468 -3.43166,15.193932 -10.950111,21.901544 -6.869086,6.128284 -12.064864,7.447404 -21.713557,5.51271 -13.963135,-2.799799 -21.14766,-9.479012 -23.874901,-22.1957 -1.1385,-5.308646 -1.047975,-7.424852 0.439948,-10.284595 2.919842,-5.611848 7.52532,-9.174488 14.985538,-11.592296 6.154772,-1.994723 7.249611,-2.017367 10.666667,-0.220616 C 83.506759,23.95002 88,30.709525 88,37.214941 88,41.753033 84.774296,44.493345 77.695708,45.96868 73.619951,46.818159 73.275997,46.577332 71.217601,41.432895 68.84424,35.50128 66.024584,34.388247 64.615812,38.826897 62.67372,44.945887 74.184931,53.175649 81.957281,51.224913 86.550699,50.072039 91.999999,43.699812 92.844899,38.4933 94.176893,30.285184 91.249104,23.067796 84.982729,19.112007 80.411065,16.226043 77.730565,15.571728 70.03922,15.464275 57.865455,15.294199 52.784851,18.115312 47.364101,28.055116 39.734667,42.044895 42.993277,57.54698 56.221085,70.19018 c 3.178403,3.037932 7.278915,5.961755 9.112248,6.497384 1.833334,0.535628 6.933334,2.745161 11.333334,4.910073 8.355061,4.110903 15.022141,5.95938 27.333333,7.57829 10.24407,1.347084 18.66667,5.921273 18.66667,10.137593 0,5.75002 -4.34954,6.75733 -20,4.6318 z"
       id="path1244" />
  </g>
</svg>
