<?xml version="1.0" encoding="UTF-8" standalone="no"?>
<!-- Created with Inkscape (http://www.inkscape.org/) -->

<svg
   version="1.1"
   id="svg83"
   width="154.66667"
   height="210.66667"
   viewBox="0 0 154.66667 210.66667"
   xmlns="http://www.w3.org/2000/svg"
   xmlns:svg="http://www.w3.org/2000/svg">
  <defs
     id="defs87" />
  <g
     id="g89">
    <path
       style="fill:#000000;stroke-width:1.33333"
       d="M 50.801586,204.1116 C 49.77579,203.46211 41.14213,203.13379 31.615673,203.382 l -17.320831,0.45131 -3.617914,-3.61792 -3.6179146,-3.61791 0.2499676,-23.96541 C 7.4464631,159.4511 7.6581852,143.33772 7.7794743,136.82456 l 0.2205259,-11.8421 6.0456148,-6.04562 c 7.757497,-7.75749 9.471902,-6.56484 7.598399,5.28595 -1.350888,8.54501 -1.01076,61.56577 0.409688,63.86411 0.423689,0.68554 7.964729,1.24644 16.757868,1.24644 18.932325,0 23.855098,1.65089 23.855098,8 0,3.00509 -0.926956,4.41086 -3.933787,5.96576 -4.529317,2.3422 -5.378019,2.42914 -7.931295,0.8125 z m 44.198416,-1.66154 c -3.320095,-1.68686 -3.945337,-6.08254 -1.333333,-9.3738 1.329818,-1.67564 5.669936,-2.24966 21.474151,-2.8401 10.89411,-0.40701 20.19412,-1.12942 20.66666,-1.60537 1.19111,-1.19968 1.02316,-64.72311 -0.17913,-67.75676 -0.92715,-2.33939 -2.98697,-2.42235 -42.242135,-1.70141 -38.219808,0.70193 -41.706533,0.96429 -47.212781,3.55253 -5.534422,2.60149 -6.223118,2.65097 -9.964884,0.71603 -3.4432,-1.78055 -6.753612,-6.77876 -5.330291,-8.04792 0.250291,-0.22319 3.578775,-1.97475 7.39663,-3.89237 l 6.941556,-3.48658 49.148653,-0.66525 c 37.996712,-0.51431 49.625732,-0.28903 51.251202,0.99284 1.8067,1.42479 2.206,7.62823 2.83777,44.08677 0.48988,28.27072 0.26921,43.45145 -0.66133,45.49377 -1.28926,2.82962 -2.48736,3.1315 -15.59465,3.92927 -7.80895,0.47531 -18.69809,1.14732 -24.19809,1.49337 -6.12303,0.38527 -11.163089,0.0383 -12.999998,-0.89502 z M 122.40004,96.165827 c -1.24665,-0.457871 -4.17648,-3.832492 -6.51074,-7.499159 -2.33426,-3.666667 -5.29301,-8.195984 -6.57501,-10.065151 -1.282,-1.869165 -3.94956,-6.592747 -5.92791,-10.496848 -1.97836,-3.9041 -5.649625,-10.018629 -8.158365,-13.587841 -2.508741,-3.569214 -4.561346,-6.843951 -4.561346,-7.277197 0,-0.747508 -2.086,-4.064038 -15.568445,-24.752275 -6.156383,-9.446708 -6.982944,-13.0788253 -3.7191,-16.3426695 3.818975,-3.8189747 8.102335,-0.073205 15.08619,13.1927725 3.541353,6.726875 8.726443,15.777851 11.52242,20.113279 11.633216,18.038398 14.517896,22.867991 21.432396,35.882597 2.72727,5.133333 6.07345,10.764248 7.43594,12.513145 1.3625,1.748896 2.47727,3.977785 2.47727,4.953088 0,2.389836 -4.13097,4.395504 -6.9333,3.366259 z M 81.763442,92.850515 C 80.426883,91.118296 77.833335,87.189591 76.000002,84.120056 70.918631,75.612361 66.360068,68.25881 59.807835,58.000001 42.958641,31.619277 33.333334,14.610459 33.333334,11.217087 c 0,-3.9062052 5.489258,-6.2928449 8.930207,-3.8827096 2.62284,1.8371079 10.863545,15.2126246 19.71468,31.9989566 9.431097,17.886239 16.051074,29.530106 20.383801,35.853027 2.399112,3.50112 5.542709,8.680011 6.985772,11.508647 2.377616,4.660513 2.428531,5.338195 0.542741,7.223984 -2.911026,2.911027 -5.298772,2.597107 -8.127093,-1.068477 z"
       id="path1383" />
  </g>
</svg>
