<?xml version="1.0" encoding="UTF-8" standalone="no"?>
<!-- Created with Inkscape (http://www.inkscape.org/) -->

<svg
   version="1.1"
   id="svg263"
   width="74.666664"
   height="217.33333"
   viewBox="0 0 74.666664 217.33333"
   xmlns="http://www.w3.org/2000/svg"
   xmlns:svg="http://www.w3.org/2000/svg">
  <defs
     id="defs267" />
  <g
     id="g269">
    <path
       style="fill:#000000;stroke-width:1.33333"
       d="M 34.194857,210.88198 C 32.229804,208.71062 31.968363,204.98405 32.112452,181.19944 32.203079,166.23974 32.268111,152.2 32.256968,150 c -0.0112,-2.2 -0.647428,-9.4 -1.413966,-16 -0.766538,-6.6 -2.028668,-25.10294 -2.804734,-41.117649 -1.489665,-30.74038 -0.733029,-39.00533 3.698279,-40.397386 13.684799,-4.29896 19.141662,-9.642387 19.963124,-19.548136 0.554656,-6.688425 0.33195,-7.339837 -3.656823,-10.696169 -2.336098,-1.965696 -4.824598,-3.573994 -5.53,-3.573994 -1.973197,0 -11.428018,9.66381 -12.392738,12.666667 -1.230832,3.831173 -6.494936,9.445581 -10.951868,11.680666 C 11.234327,46.992739 0.64180794,40.202407 6.7145402,35.030557 12.494701,30.107874 19.490025,22.931204 23.75856,17.544685 29.221408,10.651049 36.754716,6.662581 44.280214,6.679608 c 4.492218,0.010164 6.949959,0.9909301 11.451717,4.569829 9.615128,7.644025 10.934733,10.060899 10.934733,20.027081 0,5.499032 -0.815808,10.473381 -2.152216,13.123028 -2.63186,5.218096 -8.452117,11.600453 -10.57879,11.600453 -0.860985,0 -4.379169,2.620277 -7.818185,5.822839 l -6.252756,5.82284 0.857722,37.177162 c 0.471746,20.44744 0.952184,52.39916 1.06764,71.00384 0.204277,32.9175 0.135229,33.87654 -2.56906,35.68253 -2.443898,1.63209 -3.049942,1.55647 -5.026162,-0.62723 z"
       id="path1368" />
  </g>
</svg>
