<?xml version="1.0" encoding="UTF-8" standalone="no"?>
<!-- Created with Inkscape (http://www.inkscape.org/) -->

<svg
   version="1.1"
   id="svg255"
   width="154.66667"
   height="210.66667"
   viewBox="0 0 154.66667 210.66667"
   xmlns="http://www.w3.org/2000/svg"
   xmlns:svg="http://www.w3.org/2000/svg">
  <defs
     id="defs259" />
  <g
     id="g261">
    <path
       style="fill:#000000;stroke-width:1.33333"
       d="M 50.801586,204.1116 C 49.77579,203.46211 41.14213,203.13379 31.615673,203.382 l -17.320831,0.45131 -3.754909,-3.75491 -3.7549078,-3.75492 0.5256342,-32.27449 c 0.5613133,-34.46525 1.5133495,-46.42363 3.8785056,-48.71731 3.709262,-3.59717 11.367654,-5.71483 21.361254,-5.90672 5.802731,-0.11141 10.989415,-0.47389 11.525966,-0.8055 0.536552,-0.33161 23.129456,-0.90279 50.206457,-1.26929 38.063628,-0.51521 49.707838,-0.29026 51.333458,0.99173 1.8067,1.42479 2.206,7.62823 2.83777,44.08677 0.81429,46.99165 0.56772,48.89576 -6.33476,48.91785 -2.26561,0.007 -12.78035,0.63404 -23.36608,1.39288 -21.440004,1.53691 -26.753228,0.61415 -26.753228,-4.64632 0,-6.37672 2.037464,-7.06849 23.140818,-7.85692 10.89411,-0.40701 20.19412,-1.12942 20.66666,-1.60537 1.19111,-1.19968 1.02316,-64.72311 -0.17913,-67.75676 -0.9272,-2.33954 -2.98858,-2.42232 -42.327171,-1.69985 -27.421671,0.50362 -42.325598,1.28025 -44.241059,2.30538 -1.954476,1.046 -6.845343,1.26777 -15.124517,0.6858 l -12.235957,-0.8601 -0.670171,5.6807 c -0.863487,7.31935 0.01053,59.46078 1.024227,61.10094 0.423689,0.68554 7.964729,1.24644 16.757868,1.24644 18.932325,0 23.855098,1.65089 23.855098,8 0,3.00509 -0.926956,4.41086 -3.933787,5.96576 -4.529317,2.3422 -5.378019,2.42914 -7.931295,0.8125 z M 122.40004,96.165827 c -1.24665,-0.457871 -4.17648,-3.832492 -6.51074,-7.499159 -2.33426,-3.666667 -5.29301,-8.195984 -6.57501,-10.065151 -1.282,-1.869165 -3.94956,-6.592747 -5.92791,-10.496848 -1.97836,-3.9041 -5.649625,-10.018629 -8.158365,-13.587841 -2.508741,-3.569214 -4.561346,-6.843951 -4.561346,-7.277197 0,-0.747508 -2.086,-4.064038 -15.568445,-24.752275 -6.156383,-9.446708 -6.982944,-13.0788253 -3.7191,-16.3426695 3.818975,-3.8189747 8.102335,-0.073205 15.08619,13.1927725 3.541353,6.726875 8.726443,15.777851 11.52242,20.113279 11.633216,18.038398 14.517896,22.867991 21.432396,35.882597 2.72727,5.133333 6.07345,10.764248 7.43594,12.513145 1.3625,1.748896 2.47727,3.977785 2.47727,4.953088 0,2.389836 -4.13097,4.395504 -6.9333,3.366259 z M 81.763442,92.850515 C 80.426883,91.118296 77.833335,87.189591 76.000002,84.120056 70.918631,75.612361 66.360068,68.25881 59.807835,58.000001 42.958641,31.619277 33.333334,14.610459 33.333334,11.217087 c 0,-3.9062052 5.489258,-6.2928449 8.930207,-3.8827096 2.62284,1.8371079 10.863545,15.2126246 19.71468,31.9989566 9.431097,17.886239 16.051074,29.530106 20.383801,35.853027 2.399112,3.50112 5.542709,8.680011 6.985772,11.508647 2.377616,4.660513 2.428531,5.338195 0.542741,7.223984 -2.911026,2.911027 -5.298772,2.597107 -8.127093,-1.068477 z"
       id="path283" />
  </g>
</svg>
