<?xml version="1.0" encoding="UTF-8" standalone="no"?>
<!-- Created with Inkscape (http://www.inkscape.org/) -->

<svg
   version="1.1"
   id="svg245"
   width="213.33333"
   height="206.66667"
   viewBox="0 0 213.33333 206.66667"
   xmlns="http://www.w3.org/2000/svg"
   xmlns:svg="http://www.w3.org/2000/svg">
  <defs
     id="defs249" />
  <g
     id="g251">
    <path
       style="fill:#000000;stroke-width:1.33333"
       d="M 43.369093,199.12018 C 27.283246,196.21108 17.113894,188.61931 9.6370301,173.93799 8.1257784,170.97054 6.4929618,166.42998 6.0085487,163.84783 4.8189291,157.50662 7.5055335,143.52974 11.34525,136.084 c 4.265384,-8.27115 16.723406,-18.03168 27.346707,-21.42541 13.470569,-4.30332 21.60397,-3.28311 37.321123,4.68137 10.504723,5.32315 19.918637,22.36484 19.971093,36.15302 0.01637,4.30209 -3.976181,18.13032 -6.775576,23.46726 -3.509742,6.6912 -9.624114,13.05108 -14.938058,15.53788 -5.137161,2.40408 -18.873332,7.03247 -19.854403,6.68992 -0.228876,-0.0799 -5.200045,-1.01045 -11.047043,-2.06786 z m 23.885531,-19.45351 c -1.370604,-1.65 -6.413596,-6.9 -11.206649,-11.66667 -4.793053,-4.76666 -12.314642,-12.70846 -16.714642,-17.64842 -7.581076,-8.51144 -10.943811,-11.18555 -12.326836,-9.80252 -1.190335,1.19033 3.859897,6.98429 21.312378,24.45094 9.708783,9.71667 18.501803,17.66667 19.540045,17.66667 1.449011,0 1.308574,-0.6972 -0.604296,-3 z m -19.254625,0.8288 c 0,-1.08831 -16.146902,-18.20191 -22.131258,-23.45624 -6.546928,-5.74828 -7.101837,-3.66855 -1.017888,3.81491 11.015652,13.54961 23.149146,23.8445 23.149146,19.64133 z m 27.116032,-12.16213 c -1.253328,-2.01667 -4.71716,-6.11202 -7.697404,-9.10078 C 64.438382,156.2438 56.631946,148.2938 50.070993,141.5659 38.553051,129.75486 35.324394,127.32178 36.235567,131.13968 36.882983,133.85242 73.715599,172 75.687407,172 c 1.249128,0 1.095769,-0.98414 -0.571376,-3.66666 z m 0.883968,-17.70851 c 0,-1.59623 -3.760832,-3.30844 -4.857685,-2.21159 -1.167615,1.16762 0.812868,3.58676 2.936374,3.58676 1.056721,0 1.921311,-0.61882 1.921311,-1.37517 z M 64.564031,137.2262 c -2.051285,-2.14108 -4.639123,-3.89286 -5.750751,-3.89286 -1.271849,0 -0.07311,1.99497 3.23349,5.38122 2.890046,2.95968 5.477885,4.71148 5.75075,3.89288 0.272866,-0.8186 -1.182204,-3.24016 -3.233489,-5.38124 z m -11.230699,-8.48084 c 0,-0.32339 -0.599999,-0.9588 -1.333333,-1.41202 -0.733333,-0.45323 -1.333333,-0.18864 -1.333333,0.58797 0,0.77661 0.6,1.41203 1.333333,1.41203 0.733334,0 1.333333,-0.26459 1.333333,-0.58798 z m 79.020278,66.20488 c -10.95523,-0.34085 -12.47929,-0.69372 -13.82051,-3.19981 -1.95597,-3.65476 -0.70419,-12.32081 2.74915,-19.03235 1.49476,-2.90505 2.71775,-6.30118 2.71775,-7.54693 0,-3.82712 10.10433,-15.29553 16.74761,-19.00853 11.15112,-6.23248 16.5644,-7.48667 26.33893,-6.10243 10.66434,1.51025 17.93418,5.08616 27.51422,13.53373 6.4504,5.6879 7.67857,7.64486 10.9246,17.40722 2.01145,6.04937 3.6911,12.8754 3.73257,15.16894 0.14267,7.89038 -0.18613,7.95347 -45.9246,8.81262 -10.26667,0.19285 -24.20755,0.17824 -30.97972,-0.0324 z m 59.43993,-15.69261 c 0.25312,-0.22015 0.0505,-2.26585 -0.45033,-4.546 -1.38524,-6.30693 -14.29475,-19.56943 -20.01948,-20.56687 -2.56139,-0.44629 -6.66347,-1.16614 -9.11573,-1.59968 -8.73864,-1.54493 -27.54134,12.12043 -27.54134,20.01638 0,1.77125 -0.35754,4.15221 -0.79456,5.29104 -0.68995,1.798 1.63582,2.12886 17.66667,2.5133 17.20471,0.41259 39.20256,-0.193 40.25477,-1.10817 z m 3.97383,-116.924296 c -1.1416,-0.916666 -4.62569,-4.966666 -7.74241,-9 -3.11672,-4.033333 -6.94736,-7.847944 -8.51254,-8.476913 -3.88668,-1.561876 -22.17252,-2.089714 -90.838056,-2.622124 l -58.658966,-0.454823 -3.341033,3.558109 c -1.837568,1.95696 -4.809949,6.05389 -6.605293,9.104287 -3.3621,5.712412 -6.204067,7.523442 -9.700636,6.181682 -4.0334013,-1.547762 -5.0351028,-7.2486 -5.0351028,-28.655551 0,-20.935539 0.045748,-21.269835 3.1929639,-23.3319699 C 11.942798,6.3974534 21.83489,6.2853949 150.28501,7.0301745 209.97062,7.3762436 206.6336,6.6853689 206.81762,18.73428 c 0.205,13.421806 -1.1637,42.334973 -2.07377,43.807493 -1.21612,1.96772 -6.41672,1.846959 -8.97648,-0.208439 z M 40.845969,30.627167 C 172.26337,30.268851 180.92312,30.386059 185.16676,32.58053 c 2.308,1.193512 4.93398,3.351149 5.83553,4.794747 0.90153,1.443598 2.09484,2.624724 2.65177,2.624724 1.57762,0 1.19122,-18.398903 -0.40716,-19.386749 -0.78086,-0.482604 -40.63309,-1.087056 -88.5605,-1.343229 -68.756379,-0.367504 -87.433896,-0.112533 -88.530306,1.208561 -1.163985,1.402518 -1.247505,6.765691 -0.303993,19.520825 0.09157,1.237878 2.120577,-0.158672 5.327201,-3.666667 l 5.179303,-5.666075 z"
       id="path422" />
  </g>
</svg>
