<?xml version="1.0" encoding="UTF-8" standalone="no"?>
<!-- Created with Inkscape (http://www.inkscape.org/) -->

<svg
   version="1.1"
   id="svg235"
   width="229.33333"
   height="197.33333"
   viewBox="0 0 229.33333 197.33333"
   xmlns="http://www.w3.org/2000/svg"
   xmlns:svg="http://www.w3.org/2000/svg">
  <defs
     id="defs239" />
  <g
     id="g241">
    <path
       style="fill:#000000;stroke-width:1.33333"
       d="m 8.1104273,188.79972 c -1.0334951,-1.24528 -1.5787005,-9.34784 -1.6373441,-24.33334 -0.048355,-12.3565 -0.024581,-23.1436 0.052832,-23.97129 0.077413,-0.82769 2.0272645,-2.28632 4.3330028,-3.2414 3.799683,-1.57388 4.403999,-1.47499 6.453491,1.05603 1.796213,2.21824 2.435925,6.86073 3.110676,22.57473 0.904924,21.0744 0.459538,25.47104 -2.848139,28.11555 -2.772865,2.21692 -7.542184,2.116 -9.4645187,-0.20028 z M 106.70291,186.71728 C 104.08307,185.06049 103.16461,173.04634 104,151.36096 l 0.66667,-17.30572 3.75743,-1.31693 c 2.8219,-0.98904 4.64776,-0.81754 7.33333,0.68881 l 3.5759,2.00572 0.36403,24.4433 c 0.25167,16.8985 -0.1074,25.01135 -1.16326,26.28359 -1.73297,2.08811 -8.87849,2.42484 -11.83119,0.55755 z m 101.8131,0.23925 c -4.75239,-0.72105 -5.84935,-5.79953 -5.84935,-27.07988 0,-19.45452 0.0889,-20.08679 3.27274,-23.27059 4.06126,-4.06128 10.68418,-4.4236 12.68036,-0.69372 1.89138,3.5341 1.79941,43.04219 -0.11,47.2328 -1.50866,3.31115 -4.86198,4.59003 -9.99379,3.81139 z M 187.95562,62.177852 C 187.57384,61.796067 149.47764,61.120431 103.2974,60.676438 30.452869,59.976086 18.671173,59.58616 14.333333,57.73209 10.392519,56.047715 9.3313252,54.861162 9.3238545,52.130834 9.3186412,50.225542 8.9429487,44.735215 8.4889821,39.93011 7.1670547,25.937884 5.6351809,26.453726 47.850691,26.675472 c 45.156561,0.237193 41.482641,0.459688 41.482641,-2.512212 0,-1.376875 -0.835448,-3.196768 -1.856551,-4.044208 -1.021102,-0.84744 -2.600238,-3.33622 -3.509189,-5.53062 -1.424056,-3.437976 -1.323105,-4.35395 0.729868,-6.62246 4.878919,-5.3911443 10.896453,-1.8360986 17.92147,10.587664 0.87883,1.554226 1.71418,1.377889 4.73717,-1 4.39625,-3.458088 7.63387,-3.63437 12.62289,-0.687286 4.5139,2.666431 7.41051,1.746814 10.28752,-3.266088 3.45271,-6.0160088 9.44411,-9.6749402 13.1085,-8.0053325 4.76616,2.1716058 4.95784,7.2665145 0.46587,12.3825905 C 141.7284,20.383506 140,22.957786 140,23.698142 c 0,2.152606 5.5065,2.888948 12,1.60467 3.3,-0.652672 18.40714,-1.212807 33.57142,-1.244744 23.32892,-0.04913 27.89352,0.264025 29.66467,2.035168 3.08499,3.084993 3.84332,7.60645 3.13273,18.678769 -0.78433,12.221755 -2.59649,14.583274 -12.09368,15.759966 -3.818,0.473047 -9.34561,1.193073 -12.28358,1.60006 -2.93798,0.406988 -5.65415,0.427607 -6.03594,0.04583 z M 150.19705,50.157404 c 28.70837,-0.27403 52.85837,-0.906959 53.66667,-1.40651 2.35394,-1.454817 1.7021,-5.46046 -1.33616,-8.210911 -2.68956,-2.434781 -6.40912,-2.5555 -89.8046,-2.914608 -56.057797,-0.241388 -88.253815,0.10252 -90.527559,0.967 -3.899199,1.482472 -4.74592,5.936184 -1.862068,9.794384 1.866765,2.497476 18.186609,3.244103 56.999999,2.607728 11.366667,-0.186365 44.155338,-0.563052 72.863718,-0.837083 z"
       id="path561" />
  </g>
</svg>
