<?xml version="1.0" encoding="UTF-8" standalone="no"?>
<!-- Created with Inkscape (http://www.inkscape.org/) -->

<svg
   version="1.1"
   id="svg225"
   width="222.66667"
   height="196"
   viewBox="0 0 222.66667 196"
   xmlns="http://www.w3.org/2000/svg"
   xmlns:svg="http://www.w3.org/2000/svg">
  <defs
     id="defs229" />
  <g
     id="g231">
    <path
       style="fill:#000000;stroke-width:1.33333"
       d="m 88.000001,188.4294 c -24.729719,-2.52859 -61.266726,-12.74339 -75.117492,-21.00089 -5.7389236,-3.42142 -6.9517077,-4.81955 -7.2989725,-8.41446 -0.3649187,-3.77765 0.1301533,-4.54436 4,-6.19472 13.3649295,-5.69972 20.8237905,-7.79733 43.7497975,-12.30354 29.17891,-5.73524 32.866682,-6.13776 57.672296,-6.29494 26.81273,-0.1699 47.14048,2.34123 64.68911,7.99118 5.3321,1.71672 10.95789,3.1213 12.50173,3.1213 3.36501,0 17.07007,6.79636 23.32381,11.56632 8.51895,6.49772 4.41707,14.06468 -10.18694,18.7924 -15.21698,4.92615 -36.2644,9.868 -50,11.7398 -11.9846,1.63319 -51.09248,2.24918 -63.333339,0.99755 z m 55.333339,-13.49813 c 7.33333,-0.84876 16.03333,-2.16644 19.33333,-2.9282 3.3,-0.76175 10.51263,-2.23668 16.02805,-3.27764 12.22879,-2.30799 17.72855,-4.29522 16.66222,-6.02059 -1.03379,-1.67269 -8.21711,-4.88672 -13.35694,-5.97627 -2.2,-0.46636 -6.25,-1.42106 -9,-2.12158 -13.0859,-3.33339 -17.2166,-4.10488 -29,-5.41632 -30.73266,-3.42044 -42.70259,-3.11018 -80.666666,2.09089 -10.950171,1.50016 -34.007236,6.85901 -35.368434,8.22021 -2.29233,2.29232 1.649811,4.50644 9.560599,5.36974 3.927643,0.42861 8.341168,1.51521 9.807835,2.41464 1.466667,0.89944 4.166667,1.96816 6,2.37494 1.833333,0.40679 6.933334,1.7413 11.333334,2.96556 15.347816,4.27044 52.322592,5.35366 78.666672,2.30462 z M 80.666668,57.28508 C 64.282465,56.368037 59.838124,55.49606 42.971929,49.889395 32.301668,46.342384 27.865546,45.931223 23.791375,48.111653 c -3.716536,1.98903 -10.251857,-0.825912 -11.26206,-4.850876 -1.373484,-5.472398 0.57034,-8.432766 6.551096,-9.977065 3.072441,-0.793339 6.754659,-1.784733 8.182707,-2.2031 1.428048,-0.418367 5.628048,-3.620448 9.333333,-7.115736 7.54318,-7.115671 19.44859,-13.63503 31.019322,-16.9860687 C 82.366976,2.706662 117.51506,4.5825188 134,10.52174 c 7.78338,2.804209 26.45931,8.145195 28.54836,8.164331 2.31143,0.02117 12.52174,3.389104 16.1319,5.321197 3.4497,1.846232 21.31502,5.323747 27.3564,5.324975 2.9535,6e-4 6.7035,0.935113 8.33333,2.076696 3.67151,2.571617 3.88292,8.005098 0.38433,9.877482 -3.31602,1.774684 -15.50313,1.786898 -18.80676,0.01884 -3.10165,-1.659956 -13.66461,0.649751 -18.61422,4.070208 -1.83334,1.266934 -6.81072,3.07735 -11.06086,4.023147 -4.25014,0.945796 -8.03556,2.218023 -8.41202,2.827169 -0.37648,0.609155 -2.37366,1.107548 -4.43818,1.107548 -2.06452,0 -6.14028,0.842046 -9.05725,1.871211 -6.40568,2.260057 -40.56,3.375616 -63.698362,2.080536 z M 116.66667,46.741288 c 1.46667,-0.606873 10.78121,-2.013917 20.69897,-3.126763 C 155.19452,41.613997 168,37.617529 168,34.053841 c 0,-1.535268 -32.86318,-12.450897 -39.23371,-13.031624 -3.64217,-0.332013 -3.99523,0.06187 -5.33333,5.949958 -1.49295,6.569509 -10.05745,18.361158 -13.33606,18.361158 -0.97371,0 -2.58207,0.978034 -3.57415,2.173407 -1.62669,1.960048 -1.34822,2.083316 2.83674,1.255681 2.55228,-0.504748 5.84051,-1.414258 7.30718,-2.021133 z m -28.666669,0.505965 c 0,-0.41401 -1.826309,-2.289485 -4.058466,-4.167721 -5.670494,-4.771407 -9.274867,-12.482143 -9.274867,-19.841469 v -6.201506 l -4.705062,0.882675 c -4.919192,0.922847 -9.958768,3.491435 -21.569536,10.993635 -8.669361,5.601633 -9.208841,6.491152 -5.434556,8.960738 7.577208,4.957912 45.042487,12.754692 45.042487,9.373648 z M 107.33972,32.781496 c 4.04454,-4.04454 5.43181,-9.360963 3.53115,-13.532437 -1.42212,-3.121222 -1.78863,-3.194474 -11.835883,-2.365534 -5.702575,0.470487 -10.809131,1.514166 -11.347902,2.319286 -0.53877,0.805121 -0.98877,3.36052 -1,5.678664 -0.04552,9.396386 13.843465,14.709185 20.652635,7.900021 z"
       id="path700" />
  </g>
</svg>
