<?xml version="1.0" encoding="UTF-8" standalone="no"?>
<!-- Created with Inkscape (http://www.inkscape.org/) -->

<svg
   version="1.1"
   id="svg215"
   width="226.66667"
   height="204"
   viewBox="0 0 226.66667 204"
   xmlns="http://www.w3.org/2000/svg"
   xmlns:svg="http://www.w3.org/2000/svg">
  <defs
     id="defs219" />
  <g
     id="g221">
    <path
       style="fill:#000000;stroke-width:1.33333"
       d="m 7.8299264,196.46079 c -2.6314082,-3.17203 -2.6314082,-44.41964 0,-47.58964 2.160518,-2.60274 7.2777096,-2.90203 9.1955516,-0.53782 1.581638,1.94976 3.33775,43.63663 1.9294,45.8004 -1.09,1.67466 -6.157974,4.53294 -8.037296,4.53294 -0.691751,0 -2.0811961,-0.99266 -3.0876556,-2.20588 z M 106.70291,196.05061 C 104.08307,194.39383 103.16462,182.37968 104,160.69429 l 0.66667,-17.30572 3.75743,-1.31693 c 2.8219,-0.98904 4.64776,-0.81753 7.33333,0.68881 l 3.57591,2.00572 0.36402,24.44331 c 0.25167,16.89849 -0.1074,25.01135 -1.16326,26.28359 -1.73297,2.0881 -8.87849,2.42484 -11.83119,0.55754 z m 100.47977,-2.42741 c -4.75238,-0.72105 -5.84934,-5.79953 -5.84934,-27.07988 0,-19.45452 0.0889,-20.08679 3.27273,-23.27059 4.06127,-4.06128 10.68419,-4.42361 12.68036,-0.69372 1.89139,3.5341 1.79941,43.04219 -0.11,47.2328 -1.50865,3.31115 -4.86197,4.59003 -9.99379,3.81139 z M 67.17603,54.036659 c -1.013482,-1.446506 -1.842696,-3.983872 -1.842696,-5.638595 0,-5.521077 6.895155,-23.636141 10.941044,-28.744493 13.210339,-16.6794119 37.732402,-20.54088052 55.271892,-8.70362 11.42168,7.7084 21.32108,22.72134 22.70888,34.439189 1.19553,10.094427 0.0469,10.582455 -25.35039,10.771015 -11.86428,0.08808 -30.192212,0.238084 -40.728729,0.333333 -17.665042,0.159689 -19.300842,-0.03169 -21.000001,-2.456829 z m 71.65257,-10.80341 c 2.8785,-1.779 0.74208,-7.51386 -5.64808,-15.161441 -8.08246,-9.672872 -11.14541,-11.420471 -22.11777,-12.619541 -6.94832,-0.75932 -9.15448,-0.45289 -13.799219,1.916677 -8.736107,4.456829 -17.049231,12.883591 -18.67835,18.933675 -2.511716,9.327802 -3.420235,9.071672 29.527959,8.324536 16.24924,-0.36847 30.0712,-0.995727 30.71546,-1.393906 z"
       id="path839" />
  </g>
</svg>
