<?xml version="1.0" encoding="UTF-8" standalone="no"?>
<!-- Created with Inkscape (http://www.inkscape.org/) -->

<svg
   version="1.1"
   id="svg205"
   width="209.33333"
   height="212"
   viewBox="0 0 209.33333 212"
   xmlns="http://www.w3.org/2000/svg"
   xmlns:svg="http://www.w3.org/2000/svg">
  <defs
     id="defs209" />
  <g
     id="g211">
    <path
       style="fill:#000000;stroke-width:1.33333"
       d="m 85.333332,206.5472 c -2.566667,-0.61371 -11.239604,-2.38841 -19.273193,-3.94379 -8.033589,-1.55538 -16.920194,-4.0083 -19.748013,-5.45094 -16.261712,-8.29611 -25.392489,-16.67396 -31.60211,-28.99619 -4.578403,-9.08528 -5.2527564,-27.47657 -1.423521,-38.82295 4.243717,-12.57451 9.24865,-17.27091 23.596943,-22.14229 8.68582,-2.94891 21.89272,-1.70062 31.840664,3.00951 6.555339,3.1038 7.909766,4.46452 11.476079,11.52934 3.47636,6.88663 4.029158,9.40919 3.941008,17.98388 -0.123893,12.05228 -2.038206,15.86788 -12.059517,24.03703 -8.128338,6.62604 -10.9545,6.83513 -24.081673,1.78169 C 38.885611,162.0238 35.330441,158.06472 33.459273,149.33977 31.12474,138.45421 31.546942,136.43193 37.503146,129.97021 42.443419,124.61065 43.615658,124 48.963986,124 c 9.842738,0 17.355617,7.34665 16.937397,16.56264 -0.10328,2.27599 -1.428395,4.90947 -3.186803,6.33333 -5.457305,4.41907 -7.951992,2.94338 -9.327244,-5.51734 -0.63532,-3.90858 -1.324905,-4.71196 -4.044513,-4.71196 -4.2613,0 -6.537189,5.65142 -4.275177,10.61601 1.758483,3.85944 8.958701,8.70735 12.932353,8.70735 7.820959,0 17.63369,-12.17824 15.836762,-19.65447 -1.471485,-6.12219 -5.43701,-12.89364 -8.725879,-14.90013 -8.331022,-5.08263 -24.812879,-3.91468 -32.615571,2.31123 -9.070869,7.23782 -12.370123,23.19105 -7.167043,34.65555 1.431669,3.15456 5.397249,9.29215 8.812401,13.6391 5.020916,6.39081 7.132849,8.05013 11.034348,8.66949 2.65374,0.42129 5.724982,1.31711 6.824982,1.99072 8.781148,5.37737 18.773721,8.61031 39.114829,12.655 2.079823,0.41356 5.253081,2.22351 7.051685,4.02212 2.675747,2.67575 3.009897,3.75655 1.838257,5.94577 -1.547889,2.89227 -6.101869,3.27182 -14.671438,1.22279 z m 68.991078,-4.24617 c -1.64509,-1.72463 -4.03277,-4.89788 -5.30595,-7.05168 -1.27317,-2.15382 -4.72217,-7.21602 -7.66446,-11.24935 -2.94228,-4.03333 -5.3506,-7.83165 -5.3518,-8.44071 -10e-4,-0.60906 -2.1022,-4.35906 -4.66887,-8.33333 -4.2966,-6.65295 -7.46251,-11.43928 -18.78181,-28.39501 -2.26333,-3.39036 -5.11333,-6.98775 -6.33333,-7.99421 -2.99064,-2.46717 -3.07174,-12.89057 -0.10914,-14.02742 C 107.26903,116.36419 108.64095,116 109.15778,116 110.14,116 120,128.72431 120,129.99186 c 0,0.40029 1.60678,3.26587 3.57063,6.36797 1.96385,3.10209 5.30901,8.94017 7.4337,12.9735 2.12469,4.03334 4.64555,8.23334 5.60191,9.33334 0.95637,1.1 2.79801,4.1 4.09253,6.66666 1.29452,2.56667 3.51195,6.16667 4.92761,8 5.45648,7.06634 17.04028,25.71602 17.04028,27.43451 0,0.99275 -1.20401,2.44937 -2.67558,3.23693 -2.18426,1.16898 -3.22487,0.85611 -5.66667,-1.70374 z m 37.1748,0.2579 c -1.83569,-1.44396 -4.42399,-5.5126 -5.75176,-9.04141 -1.32776,-3.52881 -4.76227,-9.21832 -7.63223,-12.64335 -2.86996,-3.42504 -6.31646,-8.47286 -7.65889,-11.21742 -1.34241,-2.74455 -5.11787,-8.59008 -8.38987,-12.99008 -3.272,-4.4 -7.41493,-10.7 -9.20652,-14 -1.79158,-3.3 -5.11798,-8.33251 -7.39201,-11.18334 -4.75097,-5.95606 -5.52077,-12.19701 -1.65577,-13.42371 4.07688,-1.29395 6.9761,0.67668 9.51317,6.46621 1.31937,3.01079 4.86092,8.73253 7.87011,12.71498 3.00917,3.98244 5.47122,8.01156 5.47122,8.9536 0,0.94204 1.83695,3.80496 4.0821,6.36204 4.12474,4.69783 10.5687,16.21252 10.57898,18.90356 0.003,0.80302 1.27144,2.60302 2.8186,4 1.54718,1.397 4.04286,5.23999 5.54599,8.53999 1.50312,3.3 4.08691,7.5 5.74172,9.33333 6.53897,7.24436 3.27507,14.89691 -3.93484,9.2256 z M 24,66 C 22.166666,64.951972 19.828461,64.073233 18.803989,64.047247 16.105033,63.978788 5.6443504,55.080409 4.6759425,52.029225 c -0.4530204,-1.42734 -0.1693238,-3.817828 0.630437,-5.312194 2.4718185,-4.618636 5.3285955,-3.699432 18.5574645,5.97109 6.362776,4.651295 8.117498,4.31285 7.762953,-1.497293 -0.467075,-7.654223 4.133937,-10.299952 18.128892,-10.424691 7.181943,-0.06401 11.887022,0.502798 13.199722,1.590143 1.393828,1.154547 6.843531,1.669755 17.208854,1.626905 8.342987,-0.03449 31.969065,0.166883 52.502395,0.447495 20.53334,0.280612 38.08334,0.234312 39,-0.102893 1.20624,-0.443724 1.66667,-5.017967 1.66667,-16.558098 0,-15.266873 1.02407,-20.4063435 4.53293,-22.7492759 0.8069,-0.5387707 5.72408,-0.9887707 10.92708,-1 13.88499,-0.029967 13.89964,-0.00277 14.83136,27.5378179 0.6559,19.38746 0.47388,22.70009 -1.3295,24.196772 -1.65748,1.375582 -15.91531,1.712286 -68.96566,1.628652 L 66.453323,57.278227 61.264199,61.388088 C 58.41018,63.648512 54.112144,66.060912 51.713006,66.748975 45.023409,68.667527 27.854658,68.203521 24,66 Z M 49.333333,54.666667 c 1.487669,-0.961407 0.719174,-1.29773 -3,-1.312916 -2.75,-0.01123 -5,0.579582 -5,1.312916 0,1.698246 5.372149,1.698246 8,0 z M 192,30 c 0,-13.111111 -0.16931,-14 -2.66667,-14 -2.49736,0 -2.66667,0.888889 -2.66667,14 0,13.111111 0.16931,14 2.66667,14 C 191.83069,44 192,43.111111 192,30 Z"
       id="path978" />
  </g>
</svg>
