<?xml version="1.0" encoding="UTF-8" standalone="no"?>
<!-- Created with Inkscape (http://www.inkscape.org/) -->

<svg
   version="1.1"
   id="svg2"
   width="213.33333"
   height="193.33333"
   viewBox="0 0 213.33333 193.33333"
   xmlns="http://www.w3.org/2000/svg"
   xmlns:svg="http://www.w3.org/2000/svg">
  <defs
     id="defs6" />
  <g
     id="g8">
    <path
       style="fill:#000000;stroke-width:1.33333"
       d="M 67.333332,186.49906 C 30.195889,185.18428 22.852302,183.30081 10.6212,171.9537 3.6805021,165.51464 2.6666666,163.94837 2.6666666,159.66481 c 0,-3.86997 1.0288233,-5.93808 4.8598737,-9.76913 7.5285127,-7.52851 11.4835477,-8.66496 25.3124347,-7.27332 6.50523,0.65464 18.512268,1.51461 26.682307,1.91108 l 14.854616,0.72081 1.600793,-3.86465 c 2.033713,-4.90982 2.522989,-5.0726 20.279666,-6.74711 8.143213,-0.76793 15.402553,-1.76502 16.131843,-2.21575 0.7293,-0.45073 9.65356,-0.75043 19.83169,-0.666 19.93497,0.16537 24.32407,1.11014 38.57312,8.30304 7.83104,3.9531 8.47155,4.05323 20.34947,3.18134 10.27178,-0.754 12.54624,-0.5601 14.00177,1.1937 2.14112,2.5799 4.28325,24.4732 2.78113,28.42408 -1.67028,4.39318 -3.70452,5.09079 -15.25872,5.23268 -8.2332,0.10107 -11.98602,0.80932 -16.44984,3.10424 -13.30604,6.8409 -35.21706,7.90727 -108.883488,5.29924 z m 99.906408,-13.28718 c 5.9495,-3.51028 17.91351,-7.87855 21.57818,-7.87855 3.50221,0 6.22724,-3.04536 5.60981,-6.26928 -0.37749,-1.97111 -1.97389,-2.44924 -8.97825,-2.68901 -6.58136,-0.2253 -9.61059,-1.04515 -13.31763,-3.60439 -8.07248,-5.573 -16.96307,-8.82591 -26.43016,-9.67032 -8.93804,-0.79723 -9.92919,-0.11453 -4.05864,2.79584 2.89639,1.43588 5.17729,8.68981 2.77884,8.83753 -31.14255,1.91802 -83.392915,1.55636 -96.046855,-0.6648 -5.957797,-1.04577 -14.348762,-1.51826 -19.708369,-1.10976 C 13.870748,154.08686 10.68565,159.0154 20.23892,166 c 12.900982,9.43218 10.914385,8.96053 40.074586,9.5143 14.75169,0.28014 27.044946,0.73304 27.318346,1.00644 0.2734,0.2734 17.259528,0.25288 37.746948,-0.0456 34.55005,-0.50333 37.58405,-0.73985 41.86094,-3.26328 z M 99.264458,123.61487 c -3.024118,-1.69238 -7.139209,-6.38505 -7.262235,-8.28154 -0.115223,-1.77618 -6.231674,-8.66667 -7.693111,-8.66667 -0.633672,0 -2.881603,3.61848 -4.995401,8.04106 -5.996483,12.54609 -12.474959,12.614 -19.724811,0.20676 -4.49309,-7.68938 -8.843982,-10.59242 -9.010755,-6.01225 -0.04869,1.33711 -2.044258,5.1311 -4.434603,8.4311 -7.185364,9.91978 -12.454384,8.61298 -20.079122,-4.97994 -3.845528,-6.85557 -6.411616,-6.97546 -9.35991,-0.43732 -2.763653,6.12869 -6.9658808,8.26552 -9.4835658,4.82238 -1.9923277,-2.72467 -1.123595,-6.12496 4.7022928,-18.405118 3.707363,-7.814606 4.739961,-8.9988 7.839913,-8.99089 2.655916,0.0068 4.39621,1.287199 6.795791,5 8.49441,13.143158 9.93098,14.990888 11.655073,14.990888 1.01824,0 3.78664,-4.05 6.151999,-9 3.242218,-6.785006 5.057045,-9.107225 7.374042,-9.435684 3.979333,-0.564112 6.160833,1.345202 9.560209,8.367376 3.174339,6.557308 7.235258,10.718758 9.246704,9.475618 0.759919,-0.46965 2.29792,-2.78477 3.417782,-5.1447 2.659398,-5.604267 8.270002,-11.595942 10.858438,-11.595942 2.407939,0 7.660224,5.331195 12.942514,13.136962 2.071138,3.06056 4.329708,5.21609 5.019058,4.79005 0.68934,-0.42603 2.51248,-3.2839 4.05143,-6.35081 3.82397,-7.620678 7.70741,-11.576202 11.36522,-11.576202 2.8917,0 6.78892,4.171352 15.65299,16.754032 l 2.52108,3.5787 3.26028,-6.85969 c 1.79314,-3.77284 5.30313,-9.025762 7.79996,-11.673171 3.96789,-4.207189 4.81598,-4.584161 6.73332,-2.992909 2.61014,2.166221 8.46197,11.00331 10.79986,16.30931 0.91675,2.08061 2.42378,3.54374 3.34895,3.25139 0.92519,-0.29234 3.52659,-3.96768 5.78091,-8.16741 5.91066,-11.01138 6.9887,-11.86564 11.90124,-9.430718 2.98502,1.479546 5.47056,4.975738 9.7955,13.778538 6.15503,12.52769 6.61402,16.53191 1.97115,17.19644 -2.35299,0.33679 -3.76756,-1.29161 -7.8182,-9 -2.71999,-5.17615 -5.41744,-9.41118 -5.99435,-9.41118 -0.5769,0 -3.64062,4.2 -6.80825,9.33333 -4.34703,7.04459 -6.48865,9.33334 -8.73336,9.33334 -3.53859,0 -4.56657,-1.07052 -10.24035,-10.66414 -2.38454,-4.03194 -5.19877,-7.47865 -6.25384,-7.65935 -1.10741,-0.18966 -2.94136,1.90253 -4.33852,4.94947 C 144.41838,117.52038 138.2887,124 134.92804,124 c -1.74538,0 -4.29966,-2.45708 -7.38247,-7.10153 -5.30555,-7.99316 -8.19697,-10.81064 -9.96987,-9.71493 -0.66427,0.41054 -3.18505,4.00894 -5.60173,7.99644 -4.92232,8.12179 -8.74072,10.65594 -12.709512,8.43489 z M 95.999999,85.419829 C 84.160207,81.805276 72.945683,71.958187 70.846419,63.333332 70.132455,60.399999 68.52647,54.585658 67.277563,50.412572 63.429584,37.554966 66.7743,29.695946 82.916233,13.666666 l 8.3919,-8.3333328 8.679265,0.015825 c 9.781082,0.017835 20.600562,2.5246732 26.982032,6.2516528 7.61826,4.449303 15.03343,14.988277 16.97157,24.121196 1.51754,7.150999 1.45018,9.339759 -0.53042,17.234632 -4.171,16.625952 -15.00865,26.971949 -33.41058,31.894889 -7.39959,1.97956 -9.14519,2.05042 -14.000001,0.568301 z M 106.15476,65.583332 C 104.29013,63.718702 104,63.700428 104,65.447618 c 0,2.739343 3.11992,5.85927 3.80476,3.804762 0.27762,-0.832857 -0.46488,-2.483929 -1.65,-3.669048 z m 9.56536,-7.353934 c -3.05123,-4.779714 -5.05346,-6.156051 -5.05346,-3.47377 0,2.149259 7.16107,11.094498 7.66688,9.577071 0.24202,-0.726059 -0.93402,-3.472544 -2.61342,-6.103301 z m 12.25946,-5.682046 c 0.0171,-1.216621 -5.38523,-4.547353 -7.37565,-4.547353 -1.58599,0 -0.30187,3.482992 2.30856,6.261668 2.85697,3.041105 5.01049,2.312519 5.06709,-1.714315 z M 96.910817,51.749999 c -0.425635,-1.063644 -0.741577,-0.747701 -0.805556,0.805556 -0.05789,1.405555 0.257237,2.193055 0.700293,1.75 0.443055,-0.443056 0.490424,-1.593056 0.105267,-2.555556 z m -6.244152,-9.67131 c 0,-0.323388 -0.6,-0.958798 -1.333333,-1.412023 -0.733333,-0.453225 -1.333333,-0.188635 -1.333333,0.587977 0,0.776612 0.6,1.412023 1.333333,1.412023 0.733333,0 1.333333,-0.264589 1.333333,-0.587977 z M 112.96822,19.063456 c -1.41442,-1.414415 -3.05716,-1.61057 -6.34756,-0.757943 -2.4416,0.632683 -4.63685,1.743057 -4.87833,2.467499 -0.24148,0.724441 2.10542,5.196876 5.21533,9.938743 l 5.6544,8.621578 1.13221,-9.180802 c 0.90286,-7.320967 0.74565,-9.567377 -0.77605,-11.089075 z M 85.333332,34.745355 c 0,-0.690054 -0.6,-1.625464 -1.333333,-2.078689 -0.733334,-0.453225 -1.333334,0.111365 -1.333334,1.254644 0,1.143279 0.6,2.078689 1.333334,2.078689 0.733333,0 1.333333,-0.564589 1.333333,-1.254644 z"
       id="path30" />
  </g>
</svg>
