<?xml version="1.0" encoding="UTF-8" standalone="no"?>
<!-- Created with Inkscape (http://www.inkscape.org/) -->

<svg
   version="1.1"
   id="svg105"
   width="88"
   height="158.66667"
   viewBox="0 0 88 158.66667"
   xmlns="http://www.w3.org/2000/svg"
   xmlns:svg="http://www.w3.org/2000/svg">
  <defs
     id="defs109" />
  <g
     id="g111">
    <path
       style="fill:#000000;stroke-width:1.33333"
       d="m 7.3619728,151.1715 c -1.1890103,-1.18902 -1.9745589,-3.13902 -1.7456637,-4.33334 0.4962097,-2.5891 7.8205349,-5.3247 14.5372119,-5.42957 2.702247,-0.0421 6.309772,-1.24696 8.210307,-2.74192 C 30.228392,137.2 32.982661,136 34.484427,136 c 3.360145,0 11.42186,-5.34037 15.077701,-9.98802 2.138224,-2.71831 2.519467,-4.50189 1.795153,-8.39829 C 49.831237,109.40442 38.482171,80.953524 25.715836,53.333334 18.494767,37.710422 18.880176,34.395155 28.815916,26.666667 40.922215,17.249815 50.156897,10.633153 56.56648,6.7833531 c 5.955355,-3.5769762 6.886028,-3.7770081 10,-2.1493242 3.963927,2.0719587 12.596019,12.9895751 14.750287,18.6557311 1.550966,4.079353 -0.312378,11.376907 -2.90496,11.376907 -0.69557,0 -3.772778,1.717802 -6.83824,3.817338 -3.065462,2.099535 -6.844436,4.214852 -8.397722,4.700705 -1.553285,0.485854 -3.845956,2.012447 -5.094825,3.392431 -2.104485,2.325431 -2.115936,2.964819 -0.156453,8.736339 1.162818,3.425003 3.005489,7.950812 4.094824,10.057353 1.089336,2.106542 1.977641,5.209871 1.974014,6.896289 -0.0036,1.686417 0.870915,5.766213 1.943426,9.066213 1.072512,3.3 2.840373,13.2 3.928581,22.000005 2.421311,19.58038 3.0361,22.49359 6.25764,29.65213 3.130575,6.95641 3.257563,12.76395 0.332028,15.18461 -1.517911,1.25596 -6.431847,1.88096 -15.666667,1.99266 -7.400294,0.0895 -14.50508,0.1995 -15.788413,0.24444 -1.283333,0.0449 -4.283333,0.0496 -6.666667,0.0107 -7.414908,-0.12213 -13.065574,0.60988 -13.792905,1.78672 -1.29732,2.09911 -14.8620941,1.2836 -17.1784552,-1.03276 z M 48.666667,141.33334 C 49.119892,140.6 48.555307,140 47.412023,140 c -1.143279,0 -2.07869,0.6 -2.07869,1.33334 0,0.73333 0.56459,1.33333 1.254644,1.33333 0.690055,0 1.625464,-0.6 2.07869,-1.33333 z m 18.69574,-5 c -0.513903,-2.75 -1.402474,-5.6 -1.9746,-6.33334 -0.572127,-0.73333 -1.718435,-5.38333 -2.547352,-10.33333 -0.828918,-4.95 -2.178564,-13.05 -2.999218,-18 -2.342321,-14.128372 -9.03957,-36.131831 -13.988972,-45.96003 -2.485412,-4.935371 -4.518932,-9.46339 -4.518932,-10.062263 0,-0.598873 3.45,-2.768951 7.666667,-4.822392 9.876681,-4.80977 21.666667,-12.587244 21.666667,-14.292803 0,-2.141045 -3.644498,-8.574288 -5.933734,-10.474184 -1.800534,-1.494312 -3.522453,-0.81262 -11.754581,4.653534 -15.295952,10.156553 -20.980409,15.373694 -20.96392,19.240485 0.02344,5.494933 3.459504,15.26862 10.467451,29.774008 3.61653,7.485671 7.307942,15.71031 8.20314,18.276977 0.895197,2.566667 2.529302,6.709112 3.631345,9.205435 C 56.976476,103.23105 60,117.96225 60,124.8972 c 0,4.08205 -0.946543,6.68977 -3.552271,9.7865 -4.277664,5.08372 -2.899478,6.59785 6.033992,6.62922 l 5.815055,0.0204 z"
       id="path1256" />
  </g>
</svg>
