<?xml version="1.0" encoding="UTF-8" standalone="no"?>
<!-- Created with Inkscape (http://www.inkscape.org/) -->

<svg
   version="1.1"
   id="svg235"
   width="136"
   height="97.333336"
   viewBox="0 0 136 97.333336"
   xmlns="http://www.w3.org/2000/svg"
   xmlns:svg="http://www.w3.org/2000/svg">
  <defs
     id="defs239" />
  <g
     id="g241">
    <path
       style="fill:#000000;stroke-width:1.33333"
       d="M 8.9170511,91.125869 C 5.3031756,89.232369 4.819908,88.197912 5.2766099,83.333336 5.6958176,78.86813 8.8442463,77.541861 17.221677,78.301499 30.330691,79.490184 37.709749,75.906362 50.030236,62.367216 51.181099,61.102518 56.296891,51.802517 61.398664,41.700549 73.915431,16.916226 79.795405,6.8699858 82.692015,5.319768 c 1.334226,-0.7140565 5.186089,-0.9199539 8.559696,-0.4575497 5.712052,0.782924 6.54784,1.4329815 12.154699,9.4536697 11.79272,16.869646 19.20802,34.958939 25.15596,61.366882 3.02937,13.449902 2.00443,15.138838 -8.95941,14.763739 -4.54829,-0.155608 -13.28315,0.497637 -19.41078,1.451656 -12.411824,1.932411 -17.525513,0.817012 -17.525513,-3.822665 0,-3.394964 3.805793,-5.406855 10.245678,-5.416267 5.213927,-0.0076 12.877875,-1.678299 19.471945,-4.244724 6.64464,-2.586111 6.81322,-5.075308 1.26572,-18.69021 -4.9007,-12.027503 -6.29982,-14.678064 -13.48173,-25.540349 -1.872564,-2.832161 -4.026476,-6.373267 -4.786471,-7.869125 -0.759994,-1.495858 -2.49372,-3.378635 -3.852721,-4.18395 -1.979829,-1.173202 -2.774812,-0.96819 -4,1.031527 C 86.688089,24.535057 83,30.122411 79.333333,35.578748 c -3.666666,5.456334 -7.494312,11.533253 -8.505877,13.504264 -1.011567,1.971011 -2.877271,4.783656 -4.146012,6.250323 -4.101481,4.741323 -11.924788,20.64048 -13.924659,28.298821 -1.07076,4.100385 -2.729074,7.951395 -3.685144,8.557797 C 46.634417,93.7358 38.991745,93.60468 38,92.000003 36.98406,90.356177 22.130268,90.241865 16.574915,91.835119 c -2.872414,0.823797 -5.131219,0.614593 -7.6578639,-0.70925 z"
       id="path263" />
  </g>
</svg>
