<?xml version="1.0" encoding="UTF-8" standalone="no"?>
<!-- Created with Inkscape (http://www.inkscape.org/) -->

<svg
   version="1.1"
   id="svg225"
   width="185.33333"
   height="229.33333"
   viewBox="0 0 185.33333 229.33333"
   xmlns="http://www.w3.org/2000/svg"
   xmlns:svg="http://www.w3.org/2000/svg">
  <defs
     id="defs229" />
  <g
     id="g231">
    <path
       style="fill:#000000;stroke-width:1.33333"
       d="M 5.8837552,220.67638 C 3.4810771,217.00942 4.0515202,212.52913 7.6131836,207.09334 8.905571,205.12092 17.044961,200.08148 27.886258,194.54142 64.70694,175.72556 81.528727,162.66006 107.54984,132.66666 119.63265,118.73934 132,98.213563 132,92.087356 c 0,-4.807932 -13.99619,-9.420691 -28.58458,-9.420691 -8.968775,0 -12.788483,-2.758999 -12.921568,-9.333333 -0.104547,-5.164192 3.747565,-35.146975 5.048401,-39.294135 0.453285,-1.445107 1.191713,-7.123444 1.640951,-12.618527 0.781225,-9.555974 1.020014,-10.12995 5.483456,-13.1805219 4.35321,-2.9752274 5.54627,-3.1432926 17.76175,-2.5020775 18.8532,0.9896421 21.81873,4.6181764 14.91267,18.2466504 -4.84513,9.561397 -11.41295,28.153634 -10.47918,29.664517 0.48543,0.78544 4.56328,0.947291 10.3068,0.409079 7.97796,-0.747596 10.46634,-0.453883 15.50078,1.829612 3.68414,1.671033 8.85325,2.731465 13.40229,2.749454 6.61288,0.02615 7.8404,0.492881 11.4738,4.362616 5.27276,5.615725 5.95205,7.809951 4.54139,14.669427 -2.34688,11.411907 -4.42575,15.387375 -22.13564,42.330574 -17.36266,26.41493 -45.79247,54.15592 -68.881172,67.21224 -2.711419,1.53326 -10.211419,5.72162 -16.666667,9.30746 -6.455249,3.58584 -12.636815,7.23255 -13.736815,8.10379 -1.1,0.87123 -5.3,2.95465 -9.333334,4.62981 C 24.894353,219.40356 12.81898,224 10.592145,224 9.2002764,224 7.0815008,222.50437 5.8837552,220.67638 Z M 96.72149,166.57796 c 1.413246,-2.28668 0.147658,-2.51106 -2.645094,-0.46895 C 91.913616,167.69048 91.846517,168 93.666469,168 c 1.196883,0 2.571643,-0.63992 3.055021,-1.42204 z M 125.02177,138.9516 C 128.8598,135.44164 132,131.93463 132,131.15824 c 0,-0.77638 1.2,-2.49759 2.66666,-3.82491 1.46667,-1.32731 2.66667,-3.23914 2.66667,-4.24849 0,-1.00936 0.88208,-2.17369 1.96017,-2.58739 2.36782,-0.90861 15.37316,-20.13638 15.37316,-22.72845 0,-1.009592 1.2,-5.249836 2.66667,-9.422767 C 158.8,84.173304 160,80.279475 160,79.693279 c 0,-2.126545 -8.77724,-6.3501 -13.20666,-6.354963 -4.45753,-0.0049 -4.49609,0.04351 -2.1236,2.665092 4.00219,4.422368 3.50334,17.536813 -1.03574,27.229082 -3.9502,8.43481 -12.48855,21.8984 -21.04277,33.18103 -4.57229,6.03065 -6.16032,8.91981 -4.90279,8.91981 0.1953,0 3.4953,-2.87179 7.33333,-6.38173 z M 108.9998,56.999999 c 1.72439,-6.176834 4.33353,-20.305921 4.33353,-23.467101 0,-6.647124 -6.34972,11.502791 -7.4612,21.326929 -1.03386,9.138159 0.8199,10.406639 3.12767,2.140172 z M 116,27.254644 c 0,-1.935156 -0.57712,-3.055342 -1.33334,-2.587978 -0.73333,0.453226 -1.33333,1.988635 -1.33333,3.412023 0,1.423388 0.6,2.587977 1.33333,2.587977 0.73334,0 1.33334,-1.53541 1.33334,-3.412022 z"
       id="path402" />
  </g>
</svg>
