<?xml version="1.0" encoding="UTF-8" standalone="no"?>
<!-- Created with Inkscape (http://www.inkscape.org/) -->

<svg
   version="1.1"
   id="svg253"
   width="162.66667"
   height="218.66667"
   viewBox="0 0 162.66667 218.66667"
   xmlns="http://www.w3.org/2000/svg"
   xmlns:svg="http://www.w3.org/2000/svg">
  <defs
     id="defs257" />
  <g
     id="g259">
    <path
       style="fill:#000000;stroke-width:1.33333"
       d="M 56.188826,210.82211 C 47.609198,209.71326 45.063701,207.01824 46.067738,200.10655 47.122646,192.84466 47.73365,142.45428 46.954184,127 46.161121,111.27612 45.79771,110.96097 36.576077,118 c -3.362516,2.56667 -7.450008,4.66667 -9.083316,4.66667 -1.643451,0 -4.989599,-2.08406 -7.492761,-4.66667 -2.48771,-2.56666 -5.332684,-4.66666 -6.322161,-4.66666 -2.381178,0 -8.3445056,-6.03465 -8.3445056,-8.44431 0,-1.04436 1.7771178,-2.63495 3.9491508,-3.53463 2.1720328,-0.89969 6.6960758,-4.57248 10.0534308,-8.161763 3.357353,-3.589284 7.278507,-6.525969 8.713675,-6.525969 1.435167,0 4.933844,2.1 7.774837,4.666667 5.296382,4.784962 8.641823,5.814993 10.27961,3.165 0.510444,-0.825918 0.751385,-12.075918 0.535424,-25.000001 C 46.041316,33.702698 46.30307,10.585219 47.317942,9.5764799 48.700208,8.202568 116.04814,8.1834483 120.81239,9.5556145 c 3.98797,1.1485875 4.18906,1.5602905 5.28463,10.8192035 0.62639,5.29385 1.16082,22.880882 1.18761,39.082293 0.0523,31.634304 0.50517,33.876224 6.84296,33.876224 1.72393,0 5.70047,1.142582 8.83675,2.539072 3.13628,1.39649 8.28209,3.601037 11.43514,4.898993 4.89527,2.01514 5.67446,2.86167 5.33334,5.79426 -0.31028,2.66754 -2.18568,4.3935 -8.39948,7.73019 -4.4,2.36271 -9.90094,4.31271 -12.22428,4.33333 -12.18191,0.10811 -12.44888,1.21415 -11.90532,49.3229 l 0.45469,40.24379 -3.49588,1.34571 c -4.15051,1.59769 -57.712411,2.60672 -67.973724,1.28053 z m 31.434986,-11.38775 c 0.26137,-0.21373 1.762239,-32.61733 2.289701,-49.43436 0.404586,-12.89944 1.683149,-13.95052 17.007797,-13.9818 5.29807,-0.0107 9.30857,-0.6448 9.87483,-1.56102 1.39469,-2.25666 0.83305,-10.69331 -0.82274,-12.35874 -0.78291,-0.78747 -9.94721,-2.72292 -20.365105,-4.30098 -10.417895,-1.57807 -22.456086,-3.86361 -26.751535,-5.07898 -4.295449,-1.21538 -8.084959,-1.93472 -8.421131,-1.59855 -0.336173,0.33617 -1.329485,5.02171 -2.20736,10.41231 -1.087681,6.67892 -1.378267,20.62846 -0.912202,43.79024 l 0.683934,33.98914 4,0.73137 c 3.381798,0.61833 24.743879,0.11093 25.623811,-0.60863 z m 27.992188,0.23231 c 0.70172,-0.91667 1.34343,-13.17597 1.42603,-27.24289 l 0.15017,-25.57623 -4.26276,-0.99643 c -5.12506,-1.198 -10.33196,-0.74892 -12.56668,1.08382 -1.448687,1.1881 -1.642791,20.20782 -0.503381,49.32534 0.12928,3.30382 0.651361,3.63388 6.473961,4.093 3.48333,0.27467 6.70986,0.60755 7.17007,0.73972 0.46021,0.13214 1.41087,-0.50966 2.11259,-1.42633 z m 0.55159,-91.10358 c 0.64116,-0.39626 1.16575,-1.80703 1.16575,-3.13504 0,-3.1272 -7.95906,-4.10837 -25.330223,-3.12264 -20.37932,1.15642 -23.19384,5.01303 -5.14547,7.05061 9.64778,1.08919 27.025273,0.61908 29.309943,-0.79293 z m 24.8472,-0.85793 c 2.57037,-2.12416 -1.97843,-4.94497 -8.05663,-4.99609 -5.60277,-0.0471 -7.73199,2.61533 -4.8595,6.07647 1.86864,2.25158 9.67429,1.59867 12.91613,-1.08038 z m -106.614789,0.0282 c 2.610513,-2.61051 1.855116,-4.38573 -2.578307,-6.05916 -6.644215,-2.507914 -11.903851,1.71034 -7.555027,6.05916 2.062558,2.06256 8.070776,2.06256 10.133334,0 z M 74.000002,96.864291 c 1.466666,-0.820984 11.666666,-2.101307 22.666667,-2.845162 l 20.000001,-1.352461 -0.26798,-25.333334 c -0.35818,-33.860708 -1.62283,-44.274024 -5.78632,-47.645412 -2.91007,-2.356435 -4.52994,-2.499479 -18.566964,-1.639582 -8.547643,0.523622 -16.978026,1.758566 -18.979191,2.780208 -1.98025,1.010966 -4.32673,1.838119 -5.214402,1.838119 -3.720137,0 -8.892477,8.108549 -9.61879,15.079143 -1.079158,10.356919 -1.147842,22.908859 -0.154335,28.204707 l 0.88208,4.701887 2.852949,-3.64642 c 3.62918,-4.638536 10.761652,-10.945927 16.064962,-14.206573 3.638672,-2.237172 5.08572,-2.370265 12.356258,-1.136468 10.700793,1.815906 13.841343,4.353393 19.490953,15.748219 6.91884,13.954769 6.58172,14.234979 -16.867937,14.020869 -10.371874,-0.09471 -20.852957,-0.116134 -23.291298,-0.04763 -2.43834,0.06851 -5.832803,-0.792399 -7.543251,-1.913127 -2.793777,-1.830554 -3.190217,-1.828396 -3.899987,0.02123 -1.447543,3.772235 -0.827308,17.270264 0.871635,18.969207 1.849045,1.849049 10.491636,0.928955 15.00495,-1.597428 z M 99.636983,67.618257 c -3.002544,-3.9025 -4.037702,-4.320656 -11.598596,-4.685299 -8.712644,-0.420188 -14.705052,1.899092 -14.705052,5.691392 0,1.967886 3.873177,2.523227 21.133547,3.03016 l 8.466878,0.24867 z"
       id="path1507" />
  </g>
</svg>
