<?xml version="1.0" encoding="UTF-8" standalone="no"?>
<!-- Created with Inkscape (http://www.inkscape.org/) -->

<svg
   version="1.1"
   id="svg215"
   width="149.33333"
   height="218.66667"
   viewBox="0 0 149.33333 218.66667"
   xmlns="http://www.w3.org/2000/svg"
   xmlns:svg="http://www.w3.org/2000/svg">
  <defs
     id="defs219" />
  <g
     id="g221">
    <path
       style="fill:#000000;stroke-width:1.33333"
       d="M 35.999999,210.05459 C 22.841963,203.13658 18.04491,194.92698 18.048856,179.33334 c 0.0041,-16.09534 5.792419,-25.93579 19.224719,-32.68287 8.479101,-4.25908 19.964697,-4.09487 28.859788,0.41263 11.918086,6.03934 17.578286,14.3044 20.049782,29.27676 1.805046,10.93501 -5.940431,26.36156 -16.643981,33.14954 -5.419592,3.43702 -7.198095,3.83736 -16.800207,3.78186 -8.633061,-0.0499 -11.915551,-0.6807 -16.738958,-3.21667 z m 24,-10.05459 c 0,-0.73333 -0.935411,-1.33333 -2.07869,-1.33333 -1.143278,0 -1.707869,0.6 -1.254644,1.33333 0.453226,0.73334 1.388635,1.33334 2.07869,1.33334 0.690054,0 1.254644,-0.6 1.254644,-1.33334 z m -24,-3.25464 c 0,-0.32338 -0.6,-0.9588 -1.333333,-1.41202 -0.733333,-0.45323 -1.333333,-0.18864 -1.333333,0.58797 0,0.77661 0.6,1.41203 1.333333,1.41203 0.733333,0 1.333333,-0.26459 1.333333,-0.58798 z m 34.666666,-4.59349 c 0,-0.64981 -3.682149,-3.79981 -8.182553,-7 C 57.983708,181.95167 52.060987,177.38334 49.322511,175 c -5.202667,-4.52794 -6.655845,-5.19428 -6.655845,-3.05194 0,1.6199 4.630044,6.05952 10.666666,10.22793 2.566667,1.77235 7.066667,4.98787 10,7.1456 5.599918,4.11925 7.333333,4.78825 7.333333,2.83028 z m 2.339153,-13.81853 c -0.302356,-0.91667 -1.848224,-2.31994 -3.435264,-3.11838 -1.58704,-0.79844 -3.986902,-2.44844 -5.333029,-3.66666 -3.997466,-3.61766 -6.4619,-2.66863 -2.904193,1.11837 C 63.055659,174.5 65.186781,176 66.069157,176 c 0.882378,0 2.351256,0.9 3.264175,2 2.01204,2.42436 4.434724,2.64426 3.672486,0.33334 z M 57.333332,167.41203 c 0,-0.32339 -0.6,-0.9588 -1.333333,-1.41203 -0.733334,-0.45322 -1.333334,-0.18864 -1.333334,0.58798 0,0.77661 0.6,1.41202 1.333334,1.41202 0.733333,0 1.333333,-0.26458 1.333333,-0.58797 z m 12.617505,-6.13001 c -3.832485,-4.00024 -10.34905,-7.94868 -13.118652,-7.94868 -3.250616,0 11.56738,11.67626 15.083935,11.88581 1.181382,0.0704 0.427792,-1.43929 -1.965283,-3.93713 z m 58.327883,-17.26127 c -5.28785,-1.25283 -8.89067,-4.30936 -10.74663,-9.11713 C 114.79025,127.80101 112,110.15692 112,99.921566 112,89.737551 111.87803,89.343245 107.375,84.969959 101.38906,79.156488 89.820183,73.333334 84.256485,73.333334 c -4.232609,0 -4.359447,0.159308 -3.980863,5.000001 0.349522,4.46909 0.03711,5.039308 -2.94229,5.370198 -1.833334,0.20361 -6.633334,-0.69639 -10.666667,-2 -6.092894,-1.969278 -7.399986,-2.941593 -7.727376,-5.748219 -0.385546,-3.305174 -0.62123,-3.376188 -10.929191,-3.29303 -5.794332,0.04675 -10.915624,0.465465 -11.380651,0.930492 -0.465026,0.465025 -0.238754,1.979218 0.502824,3.364873 2.517264,4.70355 0.03321,5.738364 -14.558088,6.064671 L 8.6666665,83.333335 8.6049591,79.738465 C 8.5710201,77.761288 7.5005258,74.991397 6.2260829,73.583153 4.2231806,71.369972 4.1067362,70.139606 5.3675083,64.511356 6.1697351,60.93011 9.4235173,52.600001 12.598135,46.000001 c 3.174618,-6.6 7.410125,-16.399526 9.412237,-21.776723 C 27.380515,9.8003433 29.42317,7.9374827 39.999999,7.8170887 44.766666,7.76283 49.566666,7.2810234 50.666666,6.746406 c 2.912077,-1.4153157 51.458904,0.8701838 54.639384,2.5723267 4.65655,2.4921113 2.51052,11.3340613 -4.12049,16.9769813 -2.892753,2.461708 -3.597241,4.409304 -4.168301,11.523524 -0.410462,5.113484 -1.950853,11.091351 -3.825064,14.844092 l -3.137856,6.282948 3.120542,2.526862 c 1.716297,1.389773 4.161078,2.526861 5.432845,2.526861 1.271768,0 3.398294,1.2 4.725604,2.666667 1.32732,1.466666 3.77124,2.666666 5.43093,2.666666 5.20066,0 7.15843,1.431612 12.06347,8.821375 2.84947,4.292906 5.7371,7.178626 7.18339,7.178626 2.76611,0 9.32221,7.194389 9.32221,10.229806 0,1.113863 1.11469,3.617829 2.47709,5.564369 3.2752,4.67946 4.39974,9.45358 5.11967,21.73505 0.49284,8.40762 0.12293,11.12659 -2.10941,15.50223 -3.57974,7.01684 -5.55518,7.78517 -14.54196,5.65596 z m 5.92157,-23.09484 c -0.43785,-3.69694 -1.41204,-7.33765 -2.16486,-8.09047 -0.75282,-0.75283 -1.36877,-3.15153 -1.36877,-5.33045 0,-2.17892 -0.99299,-5.05892 -2.20665,-6.4 -4.76399,-5.264154 -5.02073,-3.242198 -2.34495,18.46784 0.37777,3.06505 1.94823,7.17641 3.48992,9.13635 2.53626,3.22433 2.92625,3.3434 4.09723,1.25098 0.71179,-1.2719 0.93592,-5.33731 0.49808,-9.03425 z M 29.238838,45.333334 v -3.333333 l -1.905505,3.333333 c -1.048028,1.833333 -1.905506,4.833333 -1.905506,6.666667 v 3.333333 l 1.905506,-3.333333 c 1.048028,-1.833334 1.905505,-4.833334 1.905505,-6.666667 z m 36.794098,1.359492 c 0.885104,-4.188833 0.769,-4.464943 -1.192864,-2.83674 -1.195373,0.992072 -2.173407,3.6503 -2.173407,5.907175 0,5.130525 2.023364,3.28498 3.366271,-3.070435 z m -26.455452,2.390508 c -0.425634,-1.063644 -0.741577,-0.747701 -0.805556,0.805556 -0.05789,1.405555 0.257238,2.193055 0.700294,1.75 0.443054,-0.443056 0.490424,-1.593056 0.105266,-2.555556 z m 13.662135,-0.75 c -0.08304,-3.249125 -0.224204,-3.363 -1.23962,-1 -1.564952,3.64184 -1.564952,4.666667 0,4.666667 0.733333,0 1.291162,-1.65 1.23962,-3.666667 z m 4,-10 c 0.05154,-0.55 -0.506287,-1 -1.23962,-1 -0.733334,0 -1.291163,1.65 -1.23962,3.666667 0.08304,3.249125 0.224204,3.363 1.23962,1 0.630248,-1.466667 1.188077,-3.116667 1.23962,-3.666667 z m 12.649113,0.809163 c 0.462386,-1.204962 0.566498,-2.465042 0.23136,-2.800182 -1.059647,-1.059645 -3.453427,1.068156 -3.453427,3.069708 0,2.615367 2.185172,2.432578 3.222067,-0.269526 z m 13.304469,-4.809163 c 0.651234,-2.784343 0.363344,-3.666667 -1.196385,-3.666667 -2.604759,0 -5.297244,5.758603 -4.123104,8.818363 0.768332,2.002243 1.136644,2.059815 2.676412,0.418359 0.98201,-1.046863 2.171394,-3.553388 2.643077,-5.570055 z"
       id="path541" />
  </g>
</svg>
