<?xml version="1.0" encoding="UTF-8" standalone="no"?>
<!-- Created with Inkscape (http://www.inkscape.org/) -->

<svg
   version="1.1"
   id="svg205"
   width="168"
   height="204"
   viewBox="0 0 168 204"
   xmlns="http://www.w3.org/2000/svg"
   xmlns:svg="http://www.w3.org/2000/svg">
  <defs
     id="defs209" />
  <g
     id="g211">
    <path
       style="fill:#000000;stroke-width:1.33333"
       d="m 66.666667,196.78796 c -12.258186,-3.63999 -24.789663,-9.38681 -38,-17.42649 -2.933334,-1.78519 -6.271079,-3.27183 -7.417212,-3.30364 C 20.103321,176.02603 17.441067,174.2 15.333333,172 c -2.107733,-2.2 -4.47566,-4 -5.262059,-4 -0.7863987,0 -2.2135853,-1.25501 -3.1715256,-2.78892 -1.4976389,-2.39811 -1.4024507,-3.03751 0.6792709,-4.56283 4.0048597,-2.93446 10.2805917,-3.17921 82.3288327,-3.21077 70.131508,-0.0307 72.758818,0.14313 72.758818,4.81475 0,2.03928 -5.326,9.57034 -10.32544,14.60037 -5.00366,5.03425 -22.62224,14.59075 -34.34123,18.627 -8.8564,3.05032 -42.573023,3.90968 -51.333333,1.30836 z m 34.719863,-9.28784 c 4.00408,-1.00827 10.05866,-2.18699 13.45462,-2.61939 6.53168,-0.83165 22.67489,-7.88773 25.30996,-11.0628 0.85922,-1.0353 1.1519,-2.29269 0.65041,-2.79418 -0.50149,-0.50151 -22.82662,-1.12759 -49.611383,-1.39131 -48.233577,-0.47489 -54.163002,-0.0307 -51.747764,3.87732 1.090984,1.76525 13.438186,7.82357 15.944879,7.82357 1.178413,0 6.44836,1.43595 11.710992,3.19098 16.242296,5.41665 22.454144,5.95577 34.288286,2.97581 z M 70.508181,153.32439 c -1.187166,-0.69366 -2.931705,-3.22542 -3.876753,-5.62612 -4.257808,-10.81615 -15.221789,-17.0316 -30.043504,-17.0316 -3.95246,0 -7.492683,-0.71584 -8.242648,-1.66667 C 27.622259,128.08333 26.664399,120.61058 26.2167,112.39389 25.545955,100.08361 25.756491,97.100652 27.413005,95.444139 30.451439,92.405704 38.250452,90.682372 49,90.674103 c 5.316667,-0.0041 9.666667,-0.502848 9.666667,-1.108351 0,-0.605503 -1.559771,-2.555503 -3.466158,-4.333333 C 50.262873,80.627749 43.711892,70.429379 36.361811,55.904896 30.020719,43.374275 30,43.289572 30,29.895756 30,14.589249 32.358451,8.1176441 39.132161,4.837038 c 11.381938,-5.51243661 24.133736,10.458103 15.115238,18.930543 -2.95004,2.771419 -8.791672,4.00062 -9.025176,1.899086 -0.06111,-0.55 -0.260819,-2.349707 -0.443794,-3.99935 -0.182976,-1.649641 -0.707098,-3.373765 -1.164718,-3.831384 -1.281812,-1.281812 -4.912039,0.521411 -5.82162,2.891742 -1.141968,2.975921 3.338122,21.918233 6.134893,25.938992 1.275233,1.833333 3.032693,5.433333 3.905465,8 2.082602,6.124562 22.76562,29.874152 26.488638,30.41598 3.213104,0.467618 5.561181,-3.151644 8.487657,-13.082647 0.972447,-3.3 4.638217,-10.5 8.146157,-16 3.50794,-5.5 6.378154,-11.014589 6.378252,-12.254644 9.9e-5,-1.240055 0.61801,-2.636483 1.373132,-3.103176 0.755124,-0.466692 4.420385,-6.952101 8.145015,-14.412023 C 114.68106,10.548257 116.62585,8 120.76427,8 c 7.86481,0 9.6048,4.979921 4.04757,11.584315 -4.1719,4.958018 -10.18094,14.968646 -15.45627,25.749018 C 107.02302,50.1 102.75337,58.8 99.867455,64.666667 93.00316,78.620831 86.733887,96.135841 85.267881,105.45475 c -0.645009,4.10012 -1.745298,8.96069 -2.445086,10.80127 -0.699788,1.84058 -1.705296,10.37719 -2.23446,18.97023 -1.128643,18.32788 -3.229974,22.10066 -10.080154,18.09814 z m 0.750852,-41.61348 c 0.825136,-5.8236 0.663487,-6.33783 -2.18397,-6.94752 -13.435124,-2.87669 -19.47544,-3.53354 -25.223847,-2.74293 l -6.638204,0.91299 0.393493,8.18655 c 0.312622,6.50399 0.866654,8.27667 2.69567,8.62504 2.280541,0.43437 7.109281,-3.68529 9.716984,-8.29008 0.940213,-1.66027 2.94814,-2.38829 6.587058,-2.38829 5.763427,0 8.362063,2.33942 9.663082,8.6992 1.102425,5.38899 3.838729,2.06853 4.989734,-6.05496 z"
       id="path680" />
  </g>
</svg>
