<?xml version="1.0" encoding="UTF-8" standalone="no"?>
<!-- Created with Inkscape (http://www.inkscape.org/) -->

<svg
   version="1.1"
   id="svg195"
   width="194.66667"
   height="141.33333"
   viewBox="0 0 194.66667 141.33333"
   xmlns="http://www.w3.org/2000/svg"
   xmlns:svg="http://www.w3.org/2000/svg">
  <defs
     id="defs199" />
  <g
     id="g201">
    <path
       style="fill:#000000;stroke-width:1.33333"
       d="M 83.333335,136.46008 C 81.866668,136.14993 79.281204,135.5992 77.58786,135.23624 73.063841,134.26652 62.634914,124.14506 59.828018,118 c -3.68607,-8.06983 -3.194245,-16.06995 1.490055,-24.237481 2.177843,-3.79728 4.572212,-7.28269 5.320821,-7.745356 2.621745,-1.620326 1.320462,-4.44441 -3.30556,-7.17383 -3.21367,-1.896112 -4.666666,-3.722228 -4.666666,-5.865035 0,-5.948526 1.664525,-6.311633 28.933334,-6.311633 23.891918,0 25.922748,0.189415 28.380358,2.647029 2.22535,2.22535 2.40552,3.177084 1.131,5.974371 -0.83383,1.830037 -2.62499,3.679308 -3.98037,4.109488 -2.63092,0.835022 -3.36389,5.222436 -1.10563,6.618114 0.74727,0.461844 2.89013,3.861883 4.7619,7.555641 8.5005,16.774922 0.71335,34.695312 -17.792568,40.945662 -8.227933,2.77897 -10.421624,3.05115 -15.661357,1.94311 z m 17.889605,-13.51009 c 5.83139,-4.35376 8.52861,-11.39527 7.50453,-19.59172 -0.92528,-7.405715 -1.24773,-7.843255 -12.53715,-17.011889 -1.571341,-1.276155 -2.856985,-3.826155 -2.856985,-5.666667 0,-3.015224 -0.527787,-3.346382 -5.333333,-3.346382 -5.378475,0 -6.484925,0.981742 -3.95629,3.510377 1.947501,1.947501 0.390235,5.140102 -3.53078,7.238566 -1.8401,0.984792 -5.108277,4.187349 -7.262617,7.116796 -5.428797,7.382019 -5.562203,17.307759 -0.316416,23.542019 1.98031,2.35347 5.43031,5.11119 7.666666,6.12827 5.21222,2.3705 16.252899,1.34291 20.622375,-1.91937 z M 40.666667,40.374347 C 39.200001,40.01704 37.100001,38.933094 36.000001,37.965576 33.824606,36.052184 25.114747,32.637982 16.666667,30.387049 10.647564,28.783299 3.8715899,23.219398 4.8457922,20.680668 5.535652,18.882922 12.004439,15.839028 20.666667,13.236141 23.6,12.354712 29.43289,9.9159959 33.628645,7.8167715 c 4.195754,-2.0992244 8.802206,-3.8167716 10.23656,-3.8167716 3.28574,0 8.075376,5.9390932 7.270916,9.0158511 -0.561689,2.148246 2.05232,2.363177 35.795638,2.943222 47.791861,0.821539 82.432111,0.57598 92.681341,-0.657004 8.01584,-0.964307 8.32936,-0.887193 9.83588,2.419281 2.02962,4.454541 0.61849,9.784549 -3.13139,11.827573 -3.46831,1.889616 -93.107163,2.310956 -120.823184,0.567919 l -16.505594,-1.038023 0.885834,4.721908 c 0.727091,3.875721 0.41526,4.973752 -1.740083,6.127256 -2.751674,1.472652 -3.156004,1.496819 -7.467896,0.446364 z"
       id="path819" />
  </g>
</svg>
