<?xml version="1.0" encoding="UTF-8" standalone="no"?>
<!-- Created with Inkscape (http://www.inkscape.org/) -->

<svg
   version="1.1"
   id="svg185"
   width="208"
   height="226.66667"
   viewBox="0 0 208 226.66667"
   xmlns="http://www.w3.org/2000/svg"
   xmlns:svg="http://www.w3.org/2000/svg">
  <defs
     id="defs189" />
  <g
     id="g191">
    <path
       style="fill:#000000;stroke-width:1.33333"
       d="M 92.666667,220.3806 C 80.716613,218.72799 68.976985,214.93356 53.83638,207.8301 49.346389,205.72355 45.266452,204 44.769853,204 c -0.4966,0 -6.723964,-3.85056 -13.838586,-8.5568 -14.66218,-9.69885 -25.2137819,-19.44837 -26.4714209,-24.45921 -1.439274,-5.73452 2.0261519,-6.96412 20.1283269,-7.14188 8.843171,-0.0868 16.62188,-0.0557 17.286019,0.0692 5.384992,1.01263 37.976095,0.28899 40.160239,-0.89169 1.774573,-0.9593 3.48502,-1.02144 4.986465,-0.18119 1.334391,0.74676 25.508794,1.39371 58.095314,1.55472 60.10342,0.29699 61.91555,0.50536 58.67723,6.74689 -0.81613,1.57299 -7.55352,8.68918 -14.97199,15.81375 -13.62862,13.08869 -23.53212,19.19559 -45.4071,27.99988 -13.30716,5.35589 -34.71068,7.64479 -50.747683,5.42696 z m 39.519373,-14.43204 c 13.00569,-2.39345 23.9754,-6.44366 27.24883,-10.06076 1.27146,-1.40496 3.31652,-2.55446 4.54456,-2.55446 2.38462,0 18.68724,-14.05943 18.68724,-16.11594 0,-0.73086 -27.3123,-1.1695 -67.66667,-1.08673 -37.216667,0.0763 -72.537635,-0.29243 -78.49104,-0.81945 -6.844089,-0.60588 -11.127945,-0.46706 -11.649937,0.37754 -0.969462,1.56863 8.657164,10.53114 15.23492,14.18391 13.606901,7.55621 28.599242,14.13435 32.330493,14.18551 2.333227,0.032 7.842231,0.87052 12.242231,1.86337 11.001365,2.48245 34.105453,2.49559 47.519373,0.0271 z M 111.74809,157 c -1.1522,-0.91666 -2.46609,-3.26796 -2.91974,-5.2251 -0.45366,-1.95715 -3.51571,-6.15715 -6.80457,-9.33334 -7.968757,-7.69577 -8.155679,-11.96641 -0.69045,-15.77489 5.47428,-2.79277 6.36471,-4.91484 3.95309,-9.42099 -1.79288,-3.35003 -4.29028,-3.25651 -9.819044,0.36768 -4.118811,2.69995 -4.342317,3.18006 -2.669172,5.7336 2.55046,3.8925 -1.030316,9.31643 -5.287499,8.00917 -1.564221,-0.48033 -6.144038,-1.58196 -10.177372,-2.44806 L 70,127.33334 68.908965,118.26889 c -0.91319,-7.58689 -0.626646,-10.56491 1.757887,-18.269486 1.566907,-5.062776 4.007872,-10.678415 5.424368,-12.479197 1.416496,-1.800783 2.575447,-4.047263 2.575447,-4.992178 0,-1.712365 6.064884,-11.328052 8.74275,-13.861361 0.775179,-0.733334 2.953594,-3.449447 4.840922,-6.035808 5.72773,-7.849185 16.009541,-17.681331 24.079531,-23.026439 8.7953,-5.825511 9.72188,-7.190505 11.04501,-16.271087 0.53427,-3.666667 1.78443,-8.269364 2.77814,-10.228216 2.39963,-4.7302719 8.73258,-9.1051179 13.18042,-9.1051179 4.95708,0 11.28523,4.0111982 12.22305,7.7477769 1.28439,5.117385 -0.69529,15.08135 -4.40664,22.179159 -3.15814,6.039842 -3.59337,8.744353 -4.61925,28.703925 -0.62293,12.119693 -1.73596,24.922946 -2.47341,28.45167 -1.83972,8.803178 -5.23272,18.511349 -7.31063,20.917469 -0.94996,1.1 -2.94455,5.6 -4.43244,10 -12.30462,36.38739 -14.38084,39.92079 -20.56603,35 z m 8.83414,-37.23136 c 1.14644,-2.29808 2.08444,-4.74152 2.08444,-5.42985 0,-0.68833 1.2,-2.77706 2.66666,-4.64163 1.46667,-1.86456 2.6754,-5.2592 2.68607,-7.54364 0.0218,-4.669011 3.07743,-14.213128 6.29347,-19.657445 1.8515,-3.13434 1.92929,-5.054621 0.58878,-14.533647 -0.84952,-6.007171 -1.18522,-11.503598 -0.746,-12.214279 1.17184,-1.896079 -2.24618,-13.082336 -3.9956,-13.076498 -3.12056,0.0104 -10.28132,5.47371 -11.55078,8.812658 -0.72835,1.915696 -5.70019,8.193337 -11.04854,13.950316 -9.981981,10.744645 -12.119982,13.942806 -13.456613,20.12928 -0.423502,1.960147 -2.162518,5.260147 -3.864477,7.333334 -1.70196,2.073186 -3.815307,7.069429 -4.696325,11.102761 -0.88102,4.03333 -1.958662,8.68333 -2.394759,10.33334 -1.074615,4.06585 1.385152,3.81554 3.275505,-0.33334 0.835323,-1.83333 2.25734,-3.33333 3.160039,-3.33333 0.902699,0 4.12014,-2.7 7.149868,-6 6.303012,-6.865281 9.661042,-7.483782 14.478152,-2.66667 1.83333,1.83333 4.23079,3.33333 5.32769,3.33333 2.89302,0 4.83475,4.09829 3.30022,6.96557 -0.69695,1.30228 -2.14608,2.36777 -3.22028,2.36777 -2.01843,0 -2.64239,4.65227 -1.1467,8.54996 1.04592,2.72563 2.52852,1.72509 5.10918,-3.44799 z M 136,37.872494 c 0,-1.170128 1.11251,-3.720128 2.47223,-5.666667 1.35973,-1.946537 2.87116,-5.18916 3.35873,-7.205827 1.1514,-4.76228 -1.47457,-4.871768 -6.44151,-0.268573 -2.65413,2.459772 -3.44927,4.208607 -2.87956,6.333333 0.43287,1.614383 0.79522,4.285241 0.80524,5.935241 0.01,1.65 0.6182,3 1.35154,3 0.73333,0 1.33333,-0.957378 1.33333,-2.127507 z"
       id="path958" />
  </g>
</svg>
