<?xml version="1.0" encoding="UTF-8" standalone="no"?>
<!-- Created with Inkscape (http://www.inkscape.org/) -->

<svg
   version="1.1"
   id="svg175"
   width="214.66667"
   height="176"
   viewBox="0 0 214.66667 176"
   xmlns="http://www.w3.org/2000/svg"
   xmlns:svg="http://www.w3.org/2000/svg">
  <defs
     id="defs179" />
  <g
     id="g181">
    <path
       style="fill:#000000;stroke-width:1.33333"
       d="m 132.07931,169.41056 c -2.47392,-1.56531 -4.16249,-16.60256 -3.16363,-28.17313 l 0.75645,-8.76257 -9.86104,-10.57077 c -5.42357,-5.81391 -11.22367,-12.49689 -12.8891,-14.85106 -5.9796,-8.452461 -10.191603,-10.301721 -25.588655,-11.234574 -7.700001,-0.466516 -22.294463,-0.218943 -32.432141,0.550161 -20.212026,1.533406 -18.739896,0.704358 -16.058415,9.043503 0.839191,2.6098 -4.379399,5.08811 -8.474608,4.02459 -1.81544,-0.47146 -5.852304,-5.13825 -10.411183,-12.035774 C 5.6828634,84.882297 5.3045626,81.440008 11.902564,78.707025 c 4.445567,-1.841413 6.764103,-0.993886 6.764103,2.472579 0,3.334284 6.025964,8.707084 8.234624,7.342057 1.934645,-1.195676 30.866811,-2.434374 92.432049,-3.957376 54.76142,-1.354688 58.53102,-1.491104 70.46449,-2.549981 5.75548,-0.510693 12.50548,-0.545644 15,-0.07767 4.11901,0.772732 4.53551,1.27385 4.53551,5.457115 0,2.533437 -0.15,4.725448 -0.33334,4.871135 -0.18333,0.145688 -12.93333,0.595688 -28.33333,1 l -28,0.735114 -0.39409,4.015351 c -0.25024,2.549651 1.60764,8.348091 5.08973,15.885071 5.80776,12.57087 6.13111,17.2343 1.30127,18.76723 -2.91927,0.92654 -3.1848,2.81443 -1.44772,10.29299 1.3877,5.97444 0.38597,7.03847 -7.88252,8.37269 -8.40318,1.35596 -9.59882,2.65256 -8.59832,9.32435 1.16272,7.7536 -3.22406,12.18963 -8.65571,8.75288 z M 144,138.10905 C 144,135.21776 142.52027,132 141.19068,132 140.53582,132 140,133.8 140,136 c 0,2.66667 0.66667,4 2,4 1.1,0 2,-0.85093 2,-1.89095 z m -14.93638,-34.44238 -0.39695,-8.333337 -5.27466,-0.430194 c -2.90107,-0.236607 -7.24936,-0.05973 -9.66287,0.393038 l -4.38821,0.823234 8.9962,7.885549 c 4.94791,4.33705 9.47484,7.91019 10.05983,7.9403 0.58499,0.0301 0.88499,-3.69526 0.66666,-8.27859 z M 48.000001,70.676547 c -7.7,-0.559048 -16.184486,-1.089971 -18.854413,-1.179832 C 22.709314,69.280093 11.795627,61.827233 9.9980903,56.421057 9.2637065,54.212364 7.9199809,51.510151 7.0120334,50.416141 6.0917921,49.307319 5.245297,44.054529 5.0992787,38.546849 4.8097471,27.625981 6.475108,23.059539 12.880965,17.209353 17.760291,12.753281 35.128702,6.7297165 42.749642,6.850552 c 3.254364,0.0516 18.817026,0.1112745 34.583693,0.1326095 52.942605,0.07164 100.611185,0.7778532 107.564985,1.593582 17.86788,2.0960275 26.01447,13.4039365 23.74484,32.9591445 -1.86252,16.047595 -6.53008,21.680917 -21.80926,26.321828 -8.58472,2.607529 -12.0749,2.814829 -43.74811,2.598443 -18.93051,-0.129331 -44.919122,0.09605 -57.752455,0.500845 -12.833334,0.404795 -29.633334,0.278589 -37.333334,-0.280457 z m 13.333333,-13.84812 c 0,-2.235315 1.082411,-3.580351 3.666667,-4.556311 5.19608,-1.962329 16.085436,-3.085245 16.914243,-1.744207 0.383313,0.620212 2.620048,1.512283 4.970521,1.982378 2.350475,0.470094 5.21296,1.678877 6.36108,2.686182 1.711987,1.502018 4.686275,1.579474 16.534645,0.430591 13.09595,-1.269853 14.83083,-1.174232 18.54942,1.022393 3.54586,2.094592 7.19552,2.415791 26.90833,2.368151 24.81738,-0.05997 29.95026,-1.160895 37.03031,-7.942391 4.70437,-4.505982 5.64339,-9.344314 3.59231,-18.509516 -1.2605,-5.632494 -2.40644,-7.759264 -4.63798,-8.607693 -1.63012,-0.619767 -3.3837,-1.806195 -3.89686,-2.636505 -0.57703,-0.933658 -2.78852,-1.204188 -5.79619,-0.709044 -5.05116,0.831562 -38.06181,1.93839 -50.86316,1.705413 -11.0494,-0.201095 -14.53663,-0.182619 -24,0.127155 -13.130087,0.429801 -36.050718,-1.04501 -38.757893,-2.493844 -1.320073,-0.706482 -8.598047,-1.284512 -16.173276,-1.284512 -10.45236,0 -15.532178,0.642949 -21.068834,2.666666 C 26.654039,22.8 23.29411,24 23.200158,24 c -0.09395,0 -1.752423,2.282251 -3.68549,5.071668 -3.960894,5.715572 -4.705288,13.968467 -1.652988,18.326236 3.919387,5.595708 13.010194,8.653587 26.671887,8.971633 8.745872,0.203606 12.965594,0.821724 13.406287,1.963796 1.09878,2.847524 3.39348,1.829894 3.39348,-1.504906 z"
       id="path1097" />
  </g>
</svg>
