<?xml version="1.0" encoding="UTF-8" standalone="no"?>
<!-- Created with Inkscape (http://www.inkscape.org/) -->

<svg
   version="1.1"
   id="svg75"
   width="218.66667"
   height="206.66667"
   viewBox="0 0 218.66667 206.66667"
   xmlns="http://www.w3.org/2000/svg"
   xmlns:svg="http://www.w3.org/2000/svg">
  <defs
     id="defs79" />
  <g
     id="g81">
    <path
       style="fill:#000000;stroke-width:1.33333"
       d="m 124.17409,199.91095 c -6.41375,-3.90044 -4.84321,-9.29991 3.48234,-11.97221 10.83848,-3.4789 12.88143,-10.53544 9.05364,-31.27207 -3.20851,-17.38173 -5.88659,-37.17504 -5.18373,-38.31229 1.00837,-1.63158 9.92566,-5.92549 19.31972,-9.30294 10.86408,-3.90597 32.84782,-4.24287 42.8867,-0.65724 10.4398,3.72882 16.68359,7.38332 17.61194,10.30827 1.0809,3.40561 -0.1427,18.85088 -2.95475,37.29753 -1.52743,10.01967 -3.36075,16.46402 -6.44832,22.66667 -5.17135,10.38877 -6.90247,12.05532 -17.2626,16.61876 -7.01869,3.09159 -10.73879,3.67648 -30.66667,4.82156 -12.47346,0.71675 -23.35068,1.53699 -24.1716,1.82277 -0.82092,0.28579 -3.37092,-0.62268 -5.66667,-2.01881 z m 45.73125,-11.86471 c 2.25206,-0.70789 5.69842,-1.60772 7.65857,-1.9996 8.10331,-1.62008 16.38788,-12.55734 18.71943,-24.7133 1.8709,-9.75434 3.46856,-29.91647 2.45877,-31.02928 -0.51369,-0.5661 -7.46648,-0.0588 -15.45065,1.12738 -11.95211,1.77565 -15.46842,1.86512 -19.90406,0.50645 -2.96306,-0.90761 -8.59321,-1.80713 -12.51144,-1.99893 l -7.12404,-0.34872 0.70152,5.53822 c 0.38586,3.04601 1.49167,9.43821 2.45739,14.20488 0.96571,4.76666 1.70089,15.71666 1.63372,24.33333 l -0.12213,15.66667 h 8.69412 c 4.78177,0 10.53672,-0.57919 12.78878,-1.2871 z m 11.75045,-66.90183 c 4.15131,-1.30141 4.71855,-1.89008 3.37785,-3.50552 -1.31425,-1.58358 -4.05412,-1.76827 -14.8636,-1.00191 -16.34441,1.15876 -17.66898,1.56672 -14.92633,4.59732 1.61304,1.78238 4.00045,2.16036 11.72423,1.85615 5.3343,-0.21009 11.94384,-1.08581 14.68785,-1.94604 z M 9.3482059,191.74188 c -3.971771,-1.465 -5.6552654,-5.80132 -4.1778778,-10.7613 5.3423309,-17.93566 11.8950599,-27.9358 22.9885879,-35.08296 11.080918,-7.13903 21.148593,-7.6339 37.085822,-1.8229 14.471303,5.27651 26.115349,19.67135 28.709717,35.49214 1.059362,6.46012 -0.614258,10.48157 -4.953039,11.90138 -3.83738,1.25575 -76.315586,1.50472 -79.6532101,0.27364 z M 65.279901,179.7608 c 11.618463,-2.82132 13.117522,-7.89181 5.606357,-18.96321 -4.337365,-6.39324 -9.786712,-8.80369 -19.843432,-8.77751 -9.25936,0.0241 -16.518661,2.36284 -22.738315,7.32563 -4.212815,3.36148 -4.553175,4.15297 -3.941892,9.16672 0.367977,3.01817 1.3133,7.11449 2.100717,9.10296 l 1.431667,3.61539 h 15.665732 c 8.616152,0 18.389777,-0.6615 21.719166,-1.46998 z M 149.14151,66.097169 C 148.88035,65.872736 118.5278,65.336125 81.6914,64.904702 38.000539,64.393001 13.78592,63.622464 12.040475,62.688329 10.568865,61.900748 9.0956851,59.923681 8.7667421,58.294848 7.655684,52.7932 6.922266,18.026071 7.8473687,14.71263 8.3521717,12.904577 10.635011,10.333227 12.920345,8.9985204 16.829587,6.7154 22.729594,6.566384 112.61291,6.4805929 c 89.37697,-0.085308 95.70452,0.06004 98.12892,2.2540931 2.38615,2.159427 2.58989,4.257222 2.57109,26.471965 -0.0107,13.269675 -0.53581,24.940055 -1.16573,25.934178 -1.87249,2.955127 -12.71076,4.329564 -38.33901,4.861901 -13.30551,0.276375 -24.40551,0.318874 -24.66667,0.09444 z M 94.333335,53.448436 C 95.182967,53.155053 94.538897,48.394979 93.4969,47.266667 92.174741,45.834987 87.154069,32.577497 85.046932,24.953843 84.279829,22.178458 82.580449,19.334103 81.270531,18.633055 79.960612,17.932008 65.67016,17.202779 49.513971,17.012546 13.643034,16.590179 15.4938,15.597127 16.611675,34.666667 c 1.117465,19.06259 0.766657,18.466251 11.195407,19.031021 7.158493,0.387669 65.312729,0.169784 66.526253,-0.249252 z m 26.456785,-1.956022 c 0.38854,-1.012505 -0.44161,-4.462505 -1.84478,-7.666667 -1.40316,-3.20416 -3.90782,-9.125746 -5.56589,-13.15908 -4.69713,-11.425907 -4.58781,-11.303959 -10.52744,-11.743927 -3.923486,-0.290625 -5.762059,0.160076 -6.292558,1.542534 -0.857144,2.23368 2.143638,11.781504 6.768138,21.534727 1.73856,3.666666 3.48224,7.716666 3.87486,9 0.9097,2.973453 12.47478,3.392569 13.58767,0.492413 z m 75.69508,-0.456431 3.81854,-1.130777 0.4852,-14.921529 c 0.45473,-13.984261 0.31185,-15.014313 -2.27479,-16.398639 -3.51428,-1.880784 -68.80404,-1.835884 -73.76621,0.05073 -4.40755,1.675748 -3.8743,4.324111 4.08298,20.278052 l 5.77595,11.580486 6.36323,0.837584 c 3.49978,0.460672 7.26324,1.070687 8.36324,1.355589 3.51946,0.91155 43.18862,-0.477862 47.15186,-1.651495 z"
       id="path1375" />
  </g>
</svg>
