<?xml version="1.0" encoding="UTF-8" standalone="no"?>
<!-- Created with Inkscape (http://www.inkscape.org/) -->

<svg
   version="1.1"
   id="svg193"
   width="216"
   height="214.66667"
   viewBox="0 0 216 214.66667"
   xmlns="http://www.w3.org/2000/svg"
   xmlns:svg="http://www.w3.org/2000/svg">
  <defs
     id="defs197" />
  <g
     id="g199">
    <path
       style="fill:#000000;stroke-width:1.33333"
       d="m 103.43057,208.57343 c -2.85804,-2.85804 -3.1469,-4.88976 -4.05795,-28.54196 -0.628017,-16.30421 -1.272603,-21.34141 -3.071155,-24 -1.251972,-1.85064 -3.798849,-6.35549 -5.659726,-10.01079 -1.860879,-3.65529 -4.754803,-7.32969 -6.430943,-8.16534 -1.676141,-0.83564 -4.692095,-3.09495 -6.702121,-5.02068 -2.010026,-1.92573 -4.290846,-3.50132 -5.068488,-3.50132 -0.777644,0 -2.97665,-1.22927 -4.88668,-2.7317 -2.830895,-2.22678 -5.390196,-2.72808 -13.846479,-2.71217 -5.705532,0.0107 -12.473695,0.008 -15.040361,-0.006 -2.566667,-0.0141 -10.8021,0.29411 -18.300964,0.68501 C 7.8937416,125.2184 6.6149775,125.06144 5.3657024,122.72715 1.8673923,116.1905 5.2112873,110.7869 12.802822,110.70907 c 2.274886,-0.0233 6.174886,-1.53816 8.666667,-3.36631 2.491782,-1.82816 6.553972,-4.63077 9.027091,-6.22802 L 34.993159,98.210631 34.092083,88.105316 C 32.799381,73.608049 27.419308,66.423552 14.021557,61.303333 8.1611168,59.063648 4.816968,53.316366 7.6978969,50.435437 9.4597117,48.673622 58.49798,46.272699 67.528117,47.506138 c 5.478355,0.748296 5.579272,0.684905 11.211059,-7.042189 3.125619,-4.288504 5.938277,-8.097282 6.250353,-8.463949 0.312076,-0.366666 2.767099,-0.666666 5.455607,-0.666666 4.625895,0 4.908404,-0.250416 5.264768,-4.666667 0.776581,-9.623796 3.1659,-18.4426329 5.591456,-20.6377276 2.68694,-2.4316487 7.94585,-1.7464359 8.14234,1.060911 0.0607,0.8672491 0.21069,4.3843386 0.33333,7.8157556 0.13239,3.704377 1.12834,7.225201 2.45157,8.666666 3.93613,4.287834 9.58721,9.651467 17.10473,16.234714 l 7.33334,6.421944 20.66666,-0.282923 c 11.36667,-0.155608 27.22106,-0.430508 35.23196,-0.61089 12.75727,-0.287255 14.78478,-0.02783 16.33334,2.089965 2.20121,3.010337 2.27998,7.529644 0.16804,9.641586 -0.88,0.88 -4.18,1.6 -7.33334,1.6 -3.15333,0 -5.73333,0.523729 -5.73333,1.163842 0,0.640114 1.12819,3.790114 2.50708,7 5.0104,11.663515 4.53352,34.75306 -0.75971,36.78427 -0.96105,0.36879 -1.74737,1.72965 -1.74737,3.02413 0,1.70168 1.42932,2.58216 5.16017,3.17875 5.99228,0.9582 8.55624,3.45762 7.94218,7.74224 -0.81138,5.66148 -5.0229,6.39941 -36.64287,6.42045 L 142.91897,124 l -5.4481,4.55176 c -2.99646,2.50347 -5.90323,4.75347 -6.45949,5 -0.55626,0.24654 -3.33684,3.863 -6.17908,8.0366 -2.84223,4.17362 -5.99223,7.90478 -7,8.2915 -1.00776,0.38672 -1.8323,1.50194 -1.8323,2.4783 0,0.97635 -0.72344,2.49862 -1.60764,3.38282 -1.01116,1.01116 -1.72322,6.9228 -1.91918,15.93333 -0.17136,7.87913 -0.41864,16.12569 -0.54952,18.32569 -0.13088,2.2 0.46848,6.69555 1.33191,9.99011 1.45183,5.53968 1.35228,6.16629 -1.32389,8.33333 -3.57418,2.89419 -5.7917,2.9594 -8.50111,0.24999 z M 112,146 c -0.91292,-1.1 -2.18639,-2 -2.82993,-2 -0.64354,0 -1.17007,0.9 -1.17007,2 0,1.14958 1.20333,2 2.82993,2 2.36431,0 2.55682,-0.32906 1.17007,-2 z m 5.61944,-14.76215 c 1.26479,-2.77591 1.19588,-3.66064 -0.36191,-4.64625 -3.22797,-2.04233 -4.92829,-1.41823 -5.82044,2.13639 -1.61437,6.43212 3.45716,8.49103 6.18235,2.50986 z m -20.286107,-0.65884 c 0,-4.59262 -2.537056,-7.91234 -6.046912,-7.91234 -4.178708,0 -4.142293,1.44492 0.165438,6.56437 4.022973,4.78103 5.881474,5.20698 5.881474,1.34797 z m 2,-20.52739 c 9.723847,0.0627 43.790477,0.50576 49.333337,0.64156 5.30182,0.12989 20.9102,-2.84553 22.93601,-4.37229 0.88148,-0.66433 2.74883,-0.8441 4.14968,-0.39949 1.85169,0.58771 3.83832,-0.62097 7.27739,-4.4276 4.02165,-4.451489 4.86832,-6.523971 5.651,-13.832441 1.05736,-9.873514 -1.10918,-15.629547 -8.01408,-21.291743 -5.80083,-4.75682 -13.56676,-6.147596 -35.33334,-6.327728 -10.63333,-0.088 -20.53333,-0.42883 -22,-0.757406 -5.44755,-1.220413 -26.082726,-1.562645 -26.774058,-0.444046 -1.051389,1.701184 -37.165605,1.433638 -40.978385,-0.30358 -2.507495,-1.142491 -4.113864,-0.996388 -7.329858,0.666666 -2.265232,1.171396 -5.348398,2.129812 -6.851482,2.129812 -3.820868,0 -3.403702,2.81277 0.994146,6.703088 4.863562,4.302284 7.726791,16.104815 5.710807,23.540542 -1.286667,4.745728 -6.284583,11.551946 -9.268228,12.621586 -0.718173,0.25746 -1.730391,2.17873 -2.249372,4.26948 l -0.943603,3.80137 27.845019,-1.1347 c 15.314759,-0.62408 31.445017,-1.11147 35.845017,-1.08308 z M 115.2,46.981741 c -0.0733,-0.906624 -0.22333,-3.148407 -0.33333,-4.98174 -0.23517,-3.919434 -3.4457,-4.429264 -7.09502,-1.126683 -3.37614,3.055365 -3.09604,6.811617 0.56168,7.532327 4.57895,0.902226 7.01398,0.397286 6.86667,-1.423904 z M 93.333333,45.333334 c 0,-0.733333 -0.6,-1.333333 -1.333333,-1.333333 -0.733333,0 -1.333333,0.6 -1.333333,1.333333 0,0.733333 0.6,1.333333 1.333333,1.333333 0.733333,0 1.333333,-0.6 1.333333,-1.333333 z"
       id="path221" />
  </g>
</svg>
