<?xml version="1.0" encoding="UTF-8" standalone="no"?>
<!-- Created with Inkscape (http://www.inkscape.org/) -->

<svg
   version="1.1"
   id="svg183"
   width="61.333332"
   height="317.33334"
   viewBox="0 0 61.333332 317.33334"
   xmlns="http://www.w3.org/2000/svg"
   xmlns:svg="http://www.w3.org/2000/svg">
  <defs
     id="defs187" />
  <g
     id="g189">
    <path
       style="fill:#000000;stroke-width:1.33333"
       d="M 34.848982,306.33334 C 31.137034,303.21667 26.232515,298.05978 23.950051,294.87358 18.817116,287.70829 9.8140833,270.74542 7.2706541,263.44747 4.7643539,256.25606 4.7647122,237.64492 7.2712626,231.8295 10.582651,224.14679 19.11888,214.11924 23.376477,212.91063 c 2.17627,-0.61777 5.703409,-1.65972 7.838085,-2.31543 2.447336,-0.75176 6.024772,-0.65245 9.683313,0.26878 7.648304,1.92586 12.910029,8.52502 15.053544,18.87988 1.445606,6.98341 1.33942,8.30464 -1.081343,13.45459 -2.126297,4.5235 -4.158937,6.43478 -9.777221,9.19346 -3.901071,1.9155 -8.105496,3.77776 -9.343166,4.13838 -2.512648,0.73208 -5.064242,8.43124 -5.075587,15.31502 -0.01753,10.64115 4.42748,19.6165 14.373844,29.02358 5.127246,4.84925 5.667248,5.88242 4.355558,8.33333 -2.320494,4.33589 -7.09437,3.39489 -14.554522,-2.86888 z m -16.60483,-42.58333 c -0.425635,-1.06364 -0.741578,-0.74771 -0.805556,0.80556 -0.05789,1.40554 0.257237,2.19305 0.700293,1.75 0.443055,-0.44307 0.490424,-1.59307 0.105267,-2.55556 z m 3.930648,-8.08803 c 2.75691,-5.33128 6.562153,-8.3886 12.753669,-10.24692 10.022314,-3.00811 13.273418,-12.73582 7.003675,-20.95587 C 39.08704,220.72907 37.669822,220 33.263997,220 c -4.41895,0 -6.12542,0.88459 -10.598812,5.49411 -2.932519,3.02176 -5.331852,6.58635 -5.331852,7.92132 0,1.33496 -0.534293,2.7574 -1.187319,3.161 -1.640738,1.01403 -1.740506,17.22975 -0.13204,21.46035 1.534631,4.03639 3.171814,3.40531 6.16082,-2.3748 z M 42.212248,205.73816 C 38.728902,204.81994 32.887621,199.62154 27.215222,192.3917 24.249622,188.61184 16.77931,175.93567 10.980581,164.84356 8.1432938,159.41626 6.4170492,152.51052 5.7151299,143.77944 4.3457132,126.74545 16.136868,109.33169 30.365357,107.37478 c 3.747112,-0.51536 8.197815,-0.49918 9.890453,0.036 7.851886,2.4824 17.085141,12.98311 17.070086,19.41331 -0.02627,11.21745 -7.224078,20.80699 -18.007348,23.99091 -3.405986,1.00566 -6.856543,2.62837 -7.667906,3.606 -0.811363,0.97764 -1.475204,6.4151 -1.475204,12.08328 0,12.84378 3.123757,19.94404 12.624826,28.69601 8.482532,7.81375 8.20124,12.85483 -0.588016,10.53792 z M 22.80427,154.60612 c 2.499332,-7.66673 5.954583,-11.44605 11.697661,-12.79478 1.923938,-0.45183 5.148068,-2.35647 7.164735,-4.23255 2.882942,-2.68195 3.666666,-4.61484 3.666666,-9.04305 0,-4.65217 -0.71371,-6.23257 -4.1023,-9.08388 -5.922221,-4.98322 -11.424594,-4.58724 -18.324367,1.31871 -3.065333,2.62381 -5.573332,5.8884 -5.573332,7.25464 0,1.36624 -0.6,2.8549 -1.333333,3.30813 -3.387517,2.0936 -0.271276,32.09042 3.213077,30.92897 0.675857,-0.22528 2.291893,-3.67057 3.591193,-7.65619 z M 39.08125,102.81371 C 25.147094,92.719862 10.710381,69.202045 7.2064798,50.888806 3.6150083,32.117878 9.6642989,14.553598 22.081832,7.6978124 c 3.621659,-1.9995365 7.618783,-3.6495366 8.882499,-3.6666667 2.135992,-0.028954 10.566831,3.3514309 18.369001,7.3651383 4.626201,2.379879 6.972241,10.061468 6.221743,20.371719 -0.735495,10.10413 -3.552624,13.797814 -12.888409,16.898665 -9.686665,3.217393 -12.169112,6.670653 -12.328013,17.149141 -0.159602,10.524787 2.760564,17.063941 12.499982,27.991325 7.17702,8.052436 7.670039,9.470026 3.980325,11.444696 -1.977682,1.05842 -3.629282,0.53801 -7.73771,-2.43812 z M 27.625842,43.000001 c 1.219444,-0.916667 3.326788,-1.666667 4.682987,-1.666667 3.436122,0 10.014033,-5.128957 13.210021,-10.300175 2.669789,-4.319808 2.670056,-4.356192 0.05879,-8.01966 -5.17982,-7.267013 -7.753178,-8.763824 -13.696493,-7.966657 -7.074286,0.94886 -12.371362,5.980572 -15.109795,14.352849 -2.48483,7.59693 -2.641783,13.297983 -0.624996,22.701931 l 1.479686,6.899546 3.891316,-7.167251 c 2.140227,-3.941987 4.889045,-7.917249 6.108488,-8.833916 z"
       id="path360" />
  </g>
</svg>
