<?xml version="1.0" encoding="UTF-8" standalone="no"?>
<!-- Created with Inkscape (http://www.inkscape.org/) -->

<svg
   version="1.1"
   id="svg243"
   width="217.33333"
   height="237.33333"
   viewBox="0 0 217.33333 237.33333"
   xmlns="http://www.w3.org/2000/svg"
   xmlns:svg="http://www.w3.org/2000/svg">
  <defs
     id="defs247" />
  <g
     id="g249">
    <path
       style="fill:#000000;stroke-width:1.33333"
       d="m 170.14265,227.22428 c -0.44513,-1.15998 -0.80932,-6.88726 -0.80932,-12.72727 0,-9.38969 -0.35945,-10.95832 -3.10675,-13.55761 -42.82913,-40.52214 -40.45539,-38.92856 -55.55992,-37.29924 -10.15196,1.09508 -15.011488,3.41221 -18.776359,8.95296 -4.048745,5.95853 -5.660902,6.45469 -17.259517,5.3118 -8.483876,-0.83599 -9.599889,-1.28887 -11.305933,-4.58799 -1.041091,-2.01325 -2.783712,-4.00229 -3.872492,-4.42009 -1.08878,-0.4178 -2.969387,-2.67368 -4.179125,-5.01306 -1.721199,-3.32844 -1.882909,-4.94832 -0.743604,-7.44881 1.36485,-2.99552 1.894237,-3.13141 8.463145,-2.17243 8.790792,1.28335 35.212427,1.31003 36.485618,0.0368 0.522237,-0.52224 1.549847,-6.87584 2.283577,-14.1191 1.16231,-11.47403 1.0295,-14.00707 -1.03156,-19.67489 C 99.429326,116.92741 98.245798,111.6 98.10035,108.66667 97.745052,101.5011 94.094125,90.716079 87.838088,78.351424 85.98752,74.693896 86.537063,67.949248 89.333332,59.999999 c 1.418787,-4.033333 2.599199,-8.383333 2.623139,-9.666666 0.05316,-2.849646 -3.374271,-3.107039 -4.43864,-0.333334 -1.858932,4.844299 -10.184499,-0.60239 -10.184499,-6.662825 0,-3.808931 7.855061,-13.170917 13.500252,-16.090158 4.686489,-2.423478 18.568606,-2.477803 24.271496,-0.09499 5.60715,2.342817 11.12467,8.94043 12.85702,15.373872 1.42722,5.300317 2.61545,7.147342 14.84427,23.074394 4.11016,5.353168 8.58097,11.533032 9.93512,13.733032 1.35416,2.2 5.21177,7.6 8.57248,12 8.16803,10.693956 13.45976,18.348586 16.68603,24.136756 1.79817,3.22608 6.99709,7.67395 15.96309,13.65706 12.81921,8.55441 17.2242,13.29803 15.79859,17.01312 -0.97596,2.54331 -5.5834,3.66755 -7.72988,1.88612 -1.40128,-1.16296 -2.80143,-1.03021 -5.86982,0.55651 -2.21625,1.14608 -6.06636,2.08377 -8.55578,2.08377 -4.0534,0 -8.93954,3.15466 -8.93954,5.77166 0,0.49225 2.97178,0.89501 6.60394,0.89501 7.17358,0 13.39606,2.16767 13.39606,4.66667 0,2.30108 -6.03198,4.66666 -11.89948,4.66666 -2.80902,0 -5.79922,0.83368 -6.64488,1.85263 -1.06794,1.2868 -1.47845,10.41276 -1.34408,29.88055 0.1064,15.41536 -0.21057,28.68168 -0.7044,29.4807 -1.3621,2.20394 -7.01304,1.73635 -7.93117,-0.65626 z M 170.38524,177.66666 170,166 l -14,-0.3659 -14,-0.36588 12.66666,12.03216 c 6.96667,6.61768 13.44003,12.03234 14.38524,12.03255 1.30099,3.1e-4 1.62498,-2.83447 1.33334,-11.66627 z M 81.220392,167.44188 c 2.504549,-0.0597 4.780695,-0.78699 5.058101,-1.61619 0.32963,-0.98531 -2.633905,-1.72343 -8.553725,-2.13048 -4.981957,-0.34256 -9.304424,-0.4178 -9.605484,-0.1672 -1.443241,1.20135 4.567203,5.81468 6.463254,4.96089 1.14627,-0.51616 4.133305,-0.98732 6.637854,-1.04702 z M 163.24653,156.033 c 1.88108,-0.71519 3.42013,-2.07407 3.42013,-3.01975 0,-2.90392 -5.37512,-12.11023 -9.75405,-16.70643 l -4.15376,-4.35982 -2.04609,4.31496 c -1.62575,3.42849 -2.86786,4.32418 -6.0461,4.35984 -3.95674,0.0444 -3.99588,0.11693 -3.61945,6.71153 0.20931,3.66667 0.64047,7.41667 0.95816,8.33333 0.70344,2.02979 16.1646,2.29644 21.24116,0.36634 z m -31.37871,-1.25643 c 2.14684,-1.35925 1.49038,-10.46673 -1.42856,-19.81937 -2.02962,-6.50313 -3.30532,-7.0265 -5.17032,-2.12117 -1.1819,3.10862 -1.86106,3.41679 -6.03667,2.73918 -3.68454,-0.59792 -4.86203,-0.27317 -5.42919,1.49731 -0.39833,1.24345 -1.91474,5.18305 -3.36979,8.75469 -1.45505,3.57163 -2.14779,6.98375 -1.53942,7.58248 1.0135,0.99745 6.81666,1.79025 17.10613,2.33695 2.2,0.11693 4.84052,-0.31964 5.86782,-0.97007 z m 48.61032,-15.39669 c -1.74657,-5.55648 -6.73741,-10.24468 -15.69977,-14.74775 -5.07188,-2.54833 -9.49787,-4.35708 -9.83551,-4.01944 -0.33764,0.33764 2.0121,3.78791 5.22163,7.66727 3.20952,3.87935 6.32108,7.65337 6.91457,8.3867 0.59348,0.73334 2.25218,3.31212 3.68598,5.73064 l 2.6069,4.39731 3.97952,-2.35076 c 3.04288,-1.79747 3.77879,-2.98936 3.12668,-5.06397 z M 141.3265,126.33333 c -0.004,-1.65 -1.48504,-5.4 -3.29172,-8.33333 -1.80669,-2.93333 -3.30362,-6.33635 -3.3265,-7.56227 -0.0483,-2.58523 -16.47288,-13.810597 -17.16578,-11.731906 -0.25381,0.761436 2.36509,4.814126 5.81978,9.005966 3.45469,4.19185 6.82641,9.04991 7.4927,10.79568 3.39731,8.90145 10.48603,14.19919 10.47152,7.82586 z m -23.99317,-7.51895 c 0,-1.38543 -1.18004,-3.93543 -2.62231,-5.66667 -2.46538,-2.95934 -2.62387,-2.98813 -2.64846,-0.48104 -0.046,4.6905 1.52594,8.66666 3.42628,8.66666 1.01447,0 1.84449,-1.13353 1.84449,-2.51895 z m 42.41211,-9.14771 c -1.88108,-2.01667 -4.84334,-5.81593 -6.5828,-8.4428 -11.34875,-17.138535 -14.06407,-20.94545 -18.402,-25.799804 -4.43708,-4.965307 -7.5742,-9.42323 -14.0132,-19.913101 l -2.34629,-3.822367 -1.59568,3.1557 c -1.3906,2.750123 -2.39058,3.099831 -7.78058,2.720991 -5.72301,-0.402246 -6.34073,-0.133367 -8.27156,3.600454 -1.147666,2.219339 -2.086665,5.023625 -2.086665,6.231745 0,2.665606 12.207705,14.40204 18.666665,17.946049 2.56667,1.408322 9.46667,6.171032 15.33333,10.5838 5.86667,4.412773 13.06667,9.185343 16,10.605713 2.93334,1.42038 6.53334,3.51242 8,4.64899 4.65743,3.60919 6.85148,2.52927 3.07878,-1.51537 z M 114.0721,41.922911 c -2.64708,-4.039958 -3.92732,-4.097738 -5.67762,-0.256245 -2.20052,4.829624 -1.92173,5.587121 2.6255,7.133701 3.82755,1.301806 4.36248,1.180495 4.74952,-1.077088 0.23989,-1.399268 -0.52394,-4.009433 -1.6974,-5.800368 z M 12.672549,147.66666 C 12.355149,146.75 11.487219,137 10.743815,126 10.000411,115 8.4786901,93.699999 7.3622123,78.666666 3.7464282,29.980269 4.3637507,16.969582 10.584745,10.748588 12.334221,8.9991123 16.054512,8.0366696 23.675146,7.3620894 36.74803,6.2048747 41.621399,8.1261035 44.015715,15.380953 c 1.899708,5.756172 0.930754,10.327156 -3.584273,16.908588 -2.759492,4.022436 -3.239385,5.906484 -2.547144,10 0.469117,2.774085 1.378152,8.643792 2.020077,13.043792 0.641926,4.399999 1.806882,9.799999 2.58879,11.999999 0.781909,2.2 2.689441,11.998302 4.238958,21.774003 2.725651,17.195755 2.73788,17.832975 0.375924,19.586715 -1.34276,0.99699 -3.941381,2.18993 -5.774714,2.65098 -1.833334,0.46105 -7.076715,3.30668 -11.65196,6.32361 -9.2751,6.11604 -10.727744,9.37276 -9.080451,20.3577 1.206898,8.04816 0.03504,11.30699 -4.065952,11.30699 -1.806932,0 -3.545021,-0.75 -3.862421,-1.66667 z m 18.334545,-41.86111 c 4.273235,-2.71199 7.628563,-5.806723 7.589431,-6.999997 C 38.504298,95.993237 35.689953,82.201556 30.677818,59.999999 24.371962,32.067818 24.476512,34.401989 29.285916,28.92438 34.941429,22.483105 34.506585,17.572184 28,14.401889 c -2.566667,-1.250593 -4.975835,-2.302624 -5.353708,-2.337847 -0.377872,-0.03522 -1.798167,3.064404 -3.15621,6.88806 -2.089954,5.884402 -2.416522,10.33821 -2.126378,29 0.188534,12.126344 0.408829,30.447897 0.489544,40.714563 0.08071,10.266667 0.632162,19.416665 1.225441,20.333335 1.671675,2.58288 3.667239,2.04846 11.928405,-3.19445 z"
       id="path1646" />
  </g>
</svg>
