<?xml version="1.0" encoding="UTF-8" standalone="no"?>
<!-- Created with Inkscape (http://www.inkscape.org/) -->

<svg
   version="1.1"
   id="svg173"
   width="218.66667"
   height="312"
   viewBox="0 0 218.66667 312"
   xmlns="http://www.w3.org/2000/svg"
   xmlns:svg="http://www.w3.org/2000/svg">
  <defs
     id="defs177" />
  <g
     id="g179">
    <path
       style="fill:#000000;stroke-width:1.33333"
       d="m 137.95291,307.09653 c -4.59732,-0.91533 -6.0554,-5.28921 -6.72853,-20.18397 C 130.47427,270.31435 129.62815,264 128.15409,264 c -0.58212,0 -2.20493,-2.39312 -3.60625,-5.31804 -1.40131,-2.92492 -3.05618,-5.32492 -3.67748,-5.33333 -0.6213,-0.008 -5.1213,-3.84454 -10,-8.52472 L 102,236.31447 90.000001,235.3618 c -7.316102,-0.58083 -12.839414,-1.69916 -14.150556,-2.86515 -1.770769,-1.57472 -4.485427,-1.69277 -15.371839,-0.66844 -7.271705,0.68422 -16.141048,0.91492 -19.709651,0.51268 l -6.488369,-0.73133 1.048291,3.86189 c 1.748674,6.44208 1.461032,8.72978 -1.327876,10.56092 -2.226517,1.46188 -3.49195,1.41512 -7.666667,-0.28336 -2.75,-1.11882 -5,-2.77705 -5,-3.68497 0,-0.90791 -1.227744,-2.76183 -2.728319,-4.11984 -1.500576,-1.358 -4.101111,-5.20099 -5.778965,-8.53997 -1.677855,-3.339 -3.8313048,-7.3198 -4.7854437,-8.84624 -2.2597979,-3.61524 0.6841994,-10.3715 4.7749917,-10.95826 C 16.209686,209.11291 24,217.42348 24,221.53107 c 0,2.4048 0.573479,2.66401 4.333334,1.95865 2.383333,-0.44712 14.233333,-1.14068 26.333333,-1.54125 12.100001,-0.40058 24.700001,-0.92312 28.000001,-1.16122 22.871132,-1.65012 70.950282,-3.52761 97.275752,-3.79861 l 31.27574,-0.32197 2.01338,3.57554 c 1.84185,3.27099 1.80077,3.81046 -0.4824,6.33334 -1.98412,2.19242 -4.16179,2.77353 -10.62246,2.83462 -4.46966,0.0423 -10.52668,0.50314 -13.46001,1.02418 -2.93333,0.52102 -10.69453,0.47766 -17.24712,-0.0964 -7.15821,-0.6271 -12.4138,-0.54371 -13.16643,0.20892 -2.3015,2.3015 0.43635,12.88189 5.20848,20.12798 6.63002,10.06718 7.14987,13.78788 2.34699,16.79786 -2.09472,1.31277 -4.07605,2.5859 -4.40295,2.8292 -0.3269,0.24329 -0.6269,3.84342 -0.66666,8.00028 l -0.0723,7.55793 -5.87753,1.43723 c -6.2643,1.53178 -7.86571,3.68288 -8.02875,10.78456 -0.0736,3.20758 -4.48316,10.59418 -5.81233,9.7365 -0.15476,-0.0999 -1.50258,-0.42472 -2.99515,-0.72189 z m -5.04146,-65.79496 c -0.43633,-3.68414 -1.15532,-7.28414 -1.59775,-8 C 130.87128,232.58571 127.8447,232 124.58798,232 c -7.68479,0 -7.74313,2.26893 -0.25464,9.90301 7.82503,7.97716 9.57954,7.85415 8.57811,-0.60144 z m -20.15968,-36.13952 c -1.88014,-1.4789 -3.41844,-3.83785 -3.41844,-5.2421 0,-1.49423 -2.07376,-3.87644 -5,-5.7437 -6.683433,-4.26473 -10.432427,-8.49221 -13.017302,-14.67868 -1.17952,-2.82298 -3.692097,-7.47116 -5.583505,-10.32928 -2.902142,-4.38542 -3.540882,-7.1458 -4.092122,-17.68445 -0.602777,-11.52397 -0.316322,-13.47955 3.711115,-25.33512 3.861765,-11.36788 4.279525,-13.96831 3.627988,-22.58313 C 88.574527,98.210847 87.226401,91.468012 85.983673,88.581513 82.125531,79.620171 80.3975,70.384576 81.664251,65.496027 c 0.639612,-2.468342 0.732182,-5.464723 0.205714,-6.658627 -1.361501,-3.087556 -0.69,-5.755936 2.245571,-8.923335 1.403123,-1.51393 2.551132,-4.093726 2.551132,-5.73288 0,-4.874128 3.478757,-10.163126 10.613824,-16.136942 C 100.97622,24.950003 104,21.900868 104,21.268388 c 0,-1.079759 3.83229,-7.368432 8.74198,-14.3453433 1.5205,-2.1607027 3.22131,-2.9547799 5.71165,-2.6666667 L 122,4.6666667 121.94466,102 c -0.0304,53.53333 -0.47527,98.91715 -0.9885,100.85293 -1.25955,4.75072 -4.08827,5.54687 -8.20439,2.30912 z m -0.38034,-55.5083 c 0.36601,-17.79044 0.16793,-32.65374 -0.44016,-33.02956 -1.45207,-0.89743 -6.59794,4.66542 -6.59794,7.13258 0,1.05633 -1.54925,6.19319 -3.44278,11.41524 -3.029579,8.35508 -3.332266,10.69458 -2.521912,19.49212 0.594584,6.45506 1.814472,11.2524 3.442792,13.53916 1.38705,1.94794 2.5219,4.41816 2.5219,5.48939 0,1.88773 5.26421,9.52401 6.00499,8.71087 0.20221,-0.22195 0.6671,-14.95936 1.03311,-32.7498 z m -0.084,-63.320417 c 0.29966,-3.85 0.41262,-12.7 0.25103,-19.666666 C 112.3769,59.7 112.18963,50.529123 112.12234,46.286939 L 112,38.573877 l -3.8151,4.379728 c -6.76652,7.767936 -8.777118,12.966554 -8.739413,22.596659 0.01913,4.885977 0.682443,9.685977 1.474023,10.666667 0.79158,0.980688 1.88496,3.883069 2.42973,6.449736 1.70079,8.013146 3.14922,10.666666 5.82241,10.666666 2.14343,0 2.66159,-1.164098 3.11582,-7 z"
       id="path499" />
  </g>
</svg>
