<?xml version="1.0" encoding="UTF-8" standalone="no"?>
<!-- Created with Inkscape (http://www.inkscape.org/) -->

<svg
   version="1.1"
   id="svg83"
   width="213.33333"
   height="309.33334"
   viewBox="0 0 213.33333 309.33334"
   xmlns="http://www.w3.org/2000/svg"
   xmlns:svg="http://www.w3.org/2000/svg">
  <defs
     id="defs87" />
  <g
     id="g89">
    <path
       style="fill:#000000;stroke-width:1.33333"
       d="m 131.80193,302.33334 c -0.89387,-1.65 -1.88607,-9.9 -2.2049,-18.33333 l -0.57968,-15.33334 -6.86953,-7.33333 c -3.77824,-4.03333 -10.0747,-11.05755 -13.99214,-15.60937 -9.655143,-11.21871 -15.1274,-13.09776 -32.501773,-11.1604 -6.874481,0.76654 -19.206889,1.45737 -27.405352,1.53518 -8.198461,0.0777 -15.233238,0.67046 -15.632838,1.31703 -0.3996,0.64656 0.140156,2.54252 1.199456,4.21323 2.330241,3.67522 0.894297,8.4212 -2.913591,9.62977 -2.478237,0.78656 -12.23158,-3.77531 -12.237597,-5.72381 -0.0015,-0.47756 -2.609681,-4.83432 -5.796013,-9.6817 -6.3852978,-9.71396 -8.1231974,-15.46497 -6.2010877,-20.52051 2.2011812,-5.78954 6.7241007,-4.32714 11.4143017,3.69059 3.572916,6.10779 4.569234,6.94079 8,6.68863 2.155347,-0.15842 7.518813,-0.55676 11.918813,-0.88523 4.4,-0.32845 23.3,-1.26263 42,-2.07592 18.699999,-0.81329 45.100001,-2.06343 58.666661,-2.77808 49.77276,-2.62188 68.79414,-2.90297 70.25647,-1.03825 2.6728,3.40829 2.83853,7.53456 0.39157,9.74902 -2.02953,1.83671 -6.49424,2.1966 -29.1887,2.35288 -24.59986,0.1694 -26.79267,0.37626 -26.79267,2.52746 0,3.89384 4.05176,14.57153 7.51533,19.80536 1.79208,2.70801 3.6162,7.12895 4.0536,9.82431 0.7426,4.5761 0.51216,5.0075 -3.47976,6.51429 l -4.27501,1.61363 0.88708,7.6431 c 0.97331,8.3861 1.22781,8.08103 -9.36791,11.22898 -3.45468,1.02637 -4.05898,1.90986 -4.43268,6.48052 -0.54106,6.61776 -2.19541,8.65929 -7.017,8.65929 -2.55976,0 -4.31733,-0.97372 -5.41505,-3 z m 10.47237,-33.33333 c -0.3178,-1.65 -0.57782,-0.3 -0.57782,3 0,3.3 0.26002,4.65 0.57782,3 0.31782,-1.65 0.31782,-4.35 0,-6 z m -0.0301,-6.58334 c -0.42563,-1.06364 -0.74157,-0.7477 -0.80555,0.80556 -0.0579,1.40555 0.25723,2.19306 0.7003,1.75 0.44305,-0.44306 0.49041,-1.59306 0.1052,-2.55556 z m -13.12935,-27.24761 c -1.69918,-3.50515 -2.45442,-3.83108 -8.76318,-3.78188 -3.79706,0.0296 -7.33796,0.48806 -7.86867,1.01876 -0.5307,0.53071 2.89353,4.68319 7.6094,9.22773 l 8.57432,8.26282 1.15378,-5.44586 c 0.83449,-3.93881 0.63922,-6.50732 -0.70565,-9.28157 z M 75.836879,209.09514 c -1.189715,-0.96899 -2.49324,-3.14888 -2.896723,-4.8442 -0.568386,-2.38822 0.134902,-3.61058 3.122767,-5.42762 3.630772,-2.208 3.736758,-2.51596 1.811736,-5.26432 -1.743828,-2.48966 -15.429811,-12.22566 -17.185723,-12.22566 -2.110789,0 -12.080022,-12.75426 -15.548043,-19.89156 -3.831716,-7.88582 -4.100431,-9.32531 -3.420079,-18.32114 0.406103,-5.3696 1.685051,-11.66057 2.842109,-13.97995 1.157059,-2.31938 2.103743,-5.31979 2.103743,-6.66757 0,-1.34779 1.2,-3.19993 2.666667,-4.11588 2.792724,-1.74409 3.622121,-6.94269 1.333333,-8.35724 -0.733333,-0.45322 -1.333333,-2.64606 -1.333333,-4.87296 0,-2.22691 -0.867346,-5.641501 -1.927436,-7.587982 -2.82033,-5.178543 -5.686256,-12.306255 -6.784088,-16.87239 -1.538636,-6.39954 -0.847678,-21.687195 1.16037,-25.673512 1.01397,-2.012902 2.247516,-5.342896 2.741216,-7.399986 0.548902,-2.287096 5.931155,-8.629173 13.853787,-16.324349 12.772798,-12.406098 12.95615,-12.673105 12.95615,-18.867438 0,-5.3574564 0.504759,-6.5677362 3.425725,-8.2140012 4.410306,-2.4856604 9.698803,-1.1693875 11.540324,2.8723124 1.478075,3.2440178 0.86511,9.8510978 -1.152149,12.4189008 -0.638869,0.813227 -2.010232,4.298448 -3.047472,7.744936 -1.587996,5.276511 -1.602764,6.833167 -0.09349,9.85474 3.320744,6.64813 5.033708,14.593526 3.981954,18.469865 -1.974914,7.278747 -1.863872,51.267664 0.147323,58.360534 2.504672,8.83321 2.364015,13.67925 -0.442631,15.24993 -2.042508,1.14305 -2.110674,1.83425 -0.594421,6.02738 1.187712,3.28456 1.637219,11.7979 1.466535,27.77514 -0.229934,21.52335 -0.04704,23.44468 2.78023,29.2078 3.106219,6.33172 3.027868,10.32304 -0.291733,14.86152 -2.272437,3.10683 -10.381725,4.37366 -13.216652,2.0647 z m -2.503547,-45.82802 c 0,-1.13641 -0.856188,-3.72189 -1.902638,-5.7455 -1.228516,-2.3757 -1.471956,-4.35999 -0.687084,-5.60046 2.87559,-4.5448 1.009818,-13.25449 -2.839351,-13.25449 -3.761385,0 -5.607651,4.85288 -4.934495,12.97024 0.498338,6.00929 1.26774,7.79909 4.482583,10.42749 4.57656,3.74172 5.880985,4.0085 5.880985,1.20272 z m 2.64846,-52.93378 c -0.03454,-3.16225 -1.629176,-7.66667 -2.714118,-7.66667 -1.966147,0 -2.855986,5.41953 -1.214574,7.39732 1.972575,2.3768 3.953197,2.51259 3.928692,0.26935 z m -2.64846,-23.905341 c 0,-1.597935 0.686844,-4.804768 1.526319,-7.126296 1.331661,-3.682644 1.147116,-4.73386 -1.447029,-8.242629 -2.597999,-3.513983 -2.888899,-5.181213 -2.304374,-13.207038 0.367938,-5.051952 1.083294,-10.235368 1.589682,-11.518702 1.262692,-3.200024 -1.585304,-2.991306 -3.316271,0.243034 -0.758356,1.417002 -2.55122,2.948469 -3.98414,3.403261 -2.807557,0.891084 -6.730853,7.591795 -6.730853,11.495819 0,2.899961 2.737942,9.19122 4,9.19122 1.291324,0 4,6.320243 4,9.333334 0,3.850766 2.867002,9.333333 4.880686,9.333333 0.98229,0 1.78598,-1.307401 1.78598,-2.905336 z M 157.6,207.73334 c -2.39327,-2.39327 -1.93443,-6.13976 1.06666,-8.70938 4.3039,-3.6851 3.20643,-6.5922 -4.33333,-11.4787 -7.34893,-4.76284 -19.66667,-15.61074 -19.66667,-17.3199 0,-0.55 -1.15677,-2.6257 -2.57061,-4.61268 -1.41384,-1.98697 -3.26579,-7.10802 -4.11545,-11.38012 -1.34135,-6.74432 -1.25744,-8.08501 0.63708,-10.17844 1.70515,-1.88416 1.9878,-3.87438 1.29353,-9.10809 -0.73808,-5.56389 -0.37128,-7.6172 2.16771,-12.13473 2.86038,-5.08936 2.95572,-5.98249 1.4886,-13.94486 C 132.70538,104.18746 132,98.757278 132,96.799361 c 0,-1.957916 -0.86643,-4.888738 -1.9254,-6.512936 -2.17642,-3.338095 -5.05489,-13.595755 -4.9444,-17.619757 0.35364,-12.878656 1.79802,-19.83493 5.46073,-26.299336 3.29539,-5.816114 10.92157,-15.203129 17.63004,-21.700665 7.59303,-7.354285 9.11236,-9.3786 9.11236,-12.141007 0,-3.1616013 4.15497,-8.5256599 6.60393,-8.5256599 0.69883,0 2.79883,0.6963091 4.66667,1.5473534 4.09787,1.8671173 4.53904,7.0876125 1.14241,13.5188605 -2.50945,4.751481 -3.62153,25.30107 -1.58005,29.19715 0.65228,1.244849 1.43581,24.04485 1.74117,50.666667 0.30536,26.621819 0.64726,54.661609 0.75976,62.310639 0.11574,7.8678 1.31808,19.11799 2.76867,25.90595 3.1748,14.8563 3.1896,17.20736 0.12573,19.98006 -2.87446,2.60136 -13.56081,3.00752 -15.96168,0.60666 z M 160,169.2128 c 0,-1.4464 -0.9,-2.97518 -2,-3.39729 -2.63122,-1.00969 -2.56334,-6.3548 0.1088,-8.57252 1.79693,-1.49132 2.02825,-4.66972 1.5639,-21.48824 -0.29973,-10.85593 -0.93193,-20.12502 -1.40489,-20.59798 -1.29944,-1.29944 -3.18195,4.81105 -3.38629,10.9917 -0.0997,3.01498 -1.08512,7.21499 -2.18987,9.33333 -1.10475,2.11835 -2.01232,4.82062 -2.01684,6.00506 -0.004,1.18444 -1.25933,3.74405 -2.78847,5.68804 -4.1219,5.24016 -2.46489,12.8672 4.41764,20.33386 5.44148,5.90331 7.69595,6.4025 7.69595,1.70404 z M 156.53549,68.653596 c -2.06493,-3.151477 -2.05632,-3.777951 0.13053,-9.504264 2.25699,-5.909822 2.24447,-19.349914 -0.0201,-21.614513 -0.46811,-0.468105 -2.54788,1.227877 -4.62172,3.768849 -3.37321,4.133037 -3.69453,5.357117 -3.04873,11.61438 0.52858,5.121439 0.15229,7.863745 -1.40519,10.240769 -2.03965,3.112896 -1.99232,3.280163 1.15131,4.069164 4.04856,1.016122 4.19596,3.813301 0.38792,7.36103 -2.83878,2.644717 -2.84758,2.772559 -0.492,7.146576 3.12894,5.810126 1.01618,10.88759 -4.12172,9.905416 -2.04455,-0.39084 -3.0795,-0.06619 -2.76426,0.867126 0.27716,0.82053 2.39047,1.527445 4.69624,1.570922 4.80666,0.09063 10.7557,4.954608 11.19532,9.153369 0.15938,1.52217 0.47726,-4.876239 0.7064,-14.218689 0.3449,-14.061701 0.036,-17.567157 -1.79401,-20.360135 z"
       id="path638" />
  </g>
</svg>
