<?xml version="1.0" encoding="UTF-8" standalone="no"?>
<!-- Created with Inkscape (http://www.inkscape.org/) -->

<svg
   version="1.1"
   id="svg233"
   width="224"
   height="216"
   viewBox="0 0 224 216"
   xmlns="http://www.w3.org/2000/svg"
   xmlns:svg="http://www.w3.org/2000/svg">
  <defs
     id="defs237" />
  <g
     id="g239">
    <path
       style="fill:#000000;stroke-width:1.33333"
       d="m 209.14675,211.36896 c -0.34708,-0.34707 -45.31502,-0.91523 -99.92877,-1.26256 C 54.604228,209.75905 8.9110345,209.08759 7.6775481,208.61425 6.4440616,208.14092 5.0791436,206.63293 4.6443969,205.26317 3.5841961,201.92277 3.474258,179.26269 4.5101208,177.58663 5.0247799,176.75389 14.776232,176.43027 30.665363,176.71861 45.949555,176.99597 56,176.68016 56,175.92252 c 0,-0.69072 -1.08,-1.25585 -2.4,-1.25585 -1.32,0 -2.97,-0.50384 -3.666667,-1.11963 C 49.236667,172.93124 46.566667,171.64589 44,170.69073 31.861563,166.17349 17.351209,158.22549 11.063186,152.64972 3.3898789,145.84557 1.8104749,142.75783 3.9543621,138.75195 5.3499,136.14436 24.766167,123.87275 30.250437,122.13211 c 1.502164,-0.47677 3.744402,-1.98642 4.982752,-3.35479 2.135244,-2.35941 2.047604,-2.63315 -1.696648,-5.29929 -2.171508,-1.54625 -4.398938,-2.81136 -4.949848,-2.81136 -0.550908,0 -2.968252,-1.5 -5.371876,-3.33334 C 20.811193,105.5 18.343839,104 17.731808,104 c -0.612031,0 -3.352064,-1.52163 -6.088962,-3.3814 -3.5131611,-2.387256 -4.9761793,-4.359588 -4.9761793,-6.708515 0,-6.92352 5.5572593,-5.47505 16.4775383,4.294783 C 26.706851,101.39219 30.250216,104 31.018351,104 c 0.768133,0 3.363208,1.5 5.766832,3.33333 2.403624,1.83334 5.569826,3.33334 7.036004,3.33334 2.958248,0 4.789122,3.9766 3.581984,7.77996 -0.715915,2.25565 -10.793519,9.18885 -26.403171,18.16489 -3.483333,2.00303 -6.333333,4.48109 -6.333333,5.50681 0,2.47495 8.425277,8.4563 17.41859,12.36596 3.986443,1.73303 8.148076,3.67674 9.248076,4.31936 4.968803,2.90282 11.955899,6.52968 12.57931,6.52968 1.986745,0 4.874001,-9.48652 8.521901,-28 6.240953,-31.67349 8.196189,-46.732681 9.125924,-70.287655 l 0.853397,-21.620992 -3.8736,-1.467826 C 66.409787,43.149555 63.311199,41.219276 61.654516,39.667349 58.928019,37.113256 58.7242,36.046895 59.505308,28.422832 60.096657,22.650935 59.905424,20 58.897705,20 58.088904,20 56.814755,18.855716 56.066263,17.457147 53.970633,13.541425 58.27376,8.8492693 62.896435,10.009487 67.847104,11.252026 72,15.529104 72,19.385273 c 0,1.804767 0.370212,3.281394 0.822695,3.281394 0.452481,0 3.165162,-2.413754 6.028178,-5.363896 C 86.429699,9.4933088 94.858839,6.6197801 111.1838,6.2803429 c 12.26894,-0.2551022 14.17669,0.049786 21.18905,3.3863238 4.23839,2.0166663 8.05206,3.6666663 8.47479,3.6666663 2.26231,0 11.59864,8.981014 13.77872,13.254332 l 2.52548,4.950355 -3.22865,5.414231 c -3.77327,6.327498 -4.03292,10.377893 -2.82206,44.021881 0.46724,12.982392 2.00227,29.863438 3.52952,38.814788 1.48648,8.71237 2.72474,18.174 2.75168,21.02587 0.0269,2.85186 1.08939,9.08521 2.36095,13.85188 l 2.31195,8.66666 6.32384,0.40714 c 5.09284,0.32786 8.33177,-0.56306 16.63905,-4.57687 17.48507,-8.44825 23.67385,-15.03024 15.95413,-16.96776 -1.66526,-0.41796 -4.81526,-2.45448 -7,-4.52563 -3.92184,-3.7179 -7.6685,-6.45863 -15.95357,-11.67021 -12.19313,-7.66989 -12.56423,-10.0612 -2.52564,-16.27542 3.30921,-2.04852 9.72705,-6.25527 14.26187,-9.34834 16.24841,-11.082609 23.7047,-13.136043 25.31661,-6.972095 0.74489,2.848512 -0.24715,3.761214 -11.95989,11.003355 -11.64908,7.20276 -17.7783,11.57746 -17.7783,12.68916 0,1.00215 8.88762,7.07456 22.86179,15.62019 6.16425,3.76963 10.47155,9.15514 10.47155,13.0928 0,3.55714 -2.84235,8.49886 -5.8137,10.10774 -1.56913,0.84962 -5.25297,3.00381 -8.1863,4.78706 -2.93334,1.78326 -6.23334,3.62878 -7.33334,4.10115 -1.1,0.47237 -5,2.17793 -8.66666,3.79015 -3.66667,1.6122 -9.51667,3.76868 -13,4.79218 -3.48334,1.0235 -6.33334,2.35214 -6.33334,2.95252 0,0.60039 8.55,0.64067 19,0.0895 22.30463,-1.17641 27.57863,-1.05132 29.32551,0.69556 1.35081,1.35081 1.48403,29.41545 0.15605,32.87608 -0.70181,1.82891 -7.18406,2.85147 -8.66814,1.36737 z M 192,199.25085 c 2.56667,-0.29974 6.76667,-0.70382 9.33333,-0.89793 4.04771,-0.30611 4.72471,-0.86079 5.10424,-4.18201 0.24067,-2.106 -0.0732,-4.33983 -0.69737,-4.96404 -1.62021,-1.62022 -189.120397,-3.60446 -190.70668,-2.01816 -0.273624,0.27361 -0.618103,3.11809 -0.765509,6.32106 L 14,199.33333 33.333333,200.03216 C 54.220707,200.78717 184.3312,200.14643 192,199.25085 Z m -75.13253,-26.24242 c 0.56367,-0.91204 1.2032,-14.68872 1.42118,-30.61486 0.38365,-28.0302 0.30892,-29.00339 -2.33594,-30.41888 -1.50275,-0.80425 -4.94989,-1.27756 -7.66032,-1.05181 -4.60686,0.3837 -4.98923,0.75806 -5.86671,5.74379 -1.20407,6.84128 -1.37896,55.9356 -0.20346,57.1111 1.58691,1.58692 13.57833,0.95698 14.64525,-0.76934 z m -24.673477,-6.6751 c 0.106694,-3.85 0.366692,-16.6 0.57777,-28.33333 0.581921,-32.34779 1.265929,-36.18143 6.56157,-36.77538 5.828457,-0.65371 25.233657,-0.36512 26.460857,0.39352 1.11389,0.68859 1.42733,10.00656 1.13444,33.7249 -0.22258,18.02539 -0.0321,33.94723 0.42319,35.38187 1.65845,5.22532 22.62186,2.50526 24.03067,-3.11804 0.40514,-1.61711 -0.77492,-11.9402 -2.62233,-22.9402 -1.84741,-11 -3.99232,-26.82329 -4.76647,-35.16286 -0.77413,-8.33957 -2.03561,-16.336458 -2.80328,-17.770855 -0.76766,-1.434399 -1.0733,-3.448282 -0.6792,-4.475298 1.01067,-2.633776 -1.97509,-40.999593 -3.30514,-42.46956 -0.6031,-0.666545 -4.95274,-1.087064 -9.66587,-0.934482 -4.71312,0.15258 -12.38777,-0.319439 -17.05476,-1.04893 -17.916175,-2.800453 -23.709461,-2.833626 -25.148901,-0.144008 -0.726727,1.357902 -1.918888,10.464755 -2.649247,20.237451 -0.73036,9.772696 -2.195984,21.787653 -3.256944,26.699904 -1.06096,4.912251 -2.606203,15.112248 -3.433873,22.666668 -0.827672,7.55441 -2.095468,15.5353 -2.817327,17.7353 -1.164668,3.54955 -5.743072,24.51897 -7.491165,34.31009 -0.54278,3.04012 -0.01885,3.9025 3.164096,5.20799 3.948756,1.61959 13.092494,3.32669 19.481254,3.63711 3.534204,0.1717 3.673675,-0.0747 3.86066,-6.82186 z M 139.99951,30.539984 c 8.8e-4,-1.414295 -4.53902,-4.833141 -9.99951,-7.530317 -6.58636,-3.253288 -25.35975,-4.878348 -33.28954,-2.881604 -6.924457,1.743597 -13.55772,6.755685 -12.088027,9.1337 0.717366,1.16072 3.015198,1.48348 7.215079,1.013448 3.389368,-0.379323 12.762488,-0.257315 20.829158,0.271128 17.07536,1.118597 27.33214,1.116212 27.33284,-0.0064 z"
       id="path261" />
  </g>
</svg>
