<?xml version="1.0" encoding="UTF-8" standalone="no"?>
<!-- Created with Inkscape (http://www.inkscape.org/) -->

<svg
   version="1.1"
   id="svg223"
   width="216"
   height="136"
   viewBox="0 0 216 136"
   xmlns="http://www.w3.org/2000/svg"
   xmlns:svg="http://www.w3.org/2000/svg">
  <defs
     id="defs227" />
  <g
     id="g229">
    <path
       style="fill:#000000;stroke-width:1.33333"
       d="m 163.53999,130.89501 c -1.21367,-1.34107 -2.20666,-2.96191 -2.20666,-3.60186 0,-2.16133 -8.5519,-15.29329 -9.94838,-15.27634 -0.76172,0.009 -3.19664,3.74281 -5.41094,8.29679 -2.37904,4.89284 -5.47802,9.09499 -7.57554,10.2723 -3.24079,1.81901 -3.79316,1.77187 -6.34988,-0.54193 -1.54017,-1.39384 -3.45861,-5.14857 -4.26319,-8.34385 -1.0626,-4.21995 -2.49217,-6.34187 -5.22459,-7.75486 C 120.49187,112.87537 118.30545,112 117.7021,112 c -0.60334,0 -3.18314,4.19027 -5.73288,9.31172 -4.25122,8.53906 -4.9819,9.31351 -8.80596,9.33333 -2.29354,0.0119 -4.890387,-0.84631 -5.770769,-1.9071 -1.795215,-2.1631 -7.03651,-11.47257 -9.633015,-17.10994 -2.552801,-5.54249 -5.47136,-3.97791 -7.213435,3.86696 -2.191169,9.86724 -5.673542,15.1717 -9.960201,15.1717 -3.942571,0 -6.126445,-2.12228 -10.633272,-10.33334 -1.710652,-3.11666 -3.854157,-5.66666 -4.763345,-5.66666 -0.909187,0 -3.048702,1.81589 -4.754479,4.03532 -6.883713,8.95656 -8.583379,10.5658 -12.007691,11.36883 -3.254885,0.7633 -4.075201,0.0556 -9.215054,-7.9498 -7.068538,-11.00938 -9.295948,-11.26353 -13.875456,-1.58325 -3.348779,7.07874 -6.2294327,9.63717 -8.9545694,7.95295 -2.49483,-1.54189 -0.023087,-13.0641 4.9119814,-22.89756 C 17.61158,93.004873 20.394981,92.680468 30,103.41298 c 7.813715,8.73093 10.019869,8.68557 14.240205,-0.29281 4.869547,-10.359519 10.117646,-10.80159 16.0737,-1.35396 7.018759,11.1333 11.442183,12.72793 14.622112,5.27121 2.63538,-6.17979 5.209528,-8.370753 9.834735,-8.370753 4.655909,0 11.631105,5.631363 13.23516,10.685293 0.462251,1.45642 1.907029,2.64804 3.210618,2.64804 2.3667,0 6.78347,-3.89306 6.78347,-5.97913 0,-0.60637 1.53053,-3.10913 3.40119,-5.56168 4.22945,-5.545101 8.50125,-5.836034 11.63664,-0.792523 1.25369,2.016663 4.33096,6.033373 6.83837,8.926003 4.08697,4.71489 4.79672,5.06199 6.85604,3.35291 1.26341,-1.04854 3.66255,-4.06942 5.33141,-6.71308 6.75499,-10.700581 11.14024,-11.901228 16.93635,-4.63703 2.01667,2.52746 3.66667,5.24855 3.66667,6.04687 0,2.71196 4.29708,8.02435 6.48668,8.01933 1.99461,-0.005 6.84665,-9.07727 6.84665,-12.80236 0,-1.75151 3.78731,-5.141801 7.02981,-6.292905 3.03683,-1.078085 12.66214,7.408625 13.87263,12.231605 0.47708,1.90084 1.99464,5.36658 3.37236,7.70164 5.92488,10.04192 5.18519,17.26532 -1.66851,16.29364 -2.37905,-0.33728 -4.06722,-2.19634 -6.32985,-6.97056 -1.69704,-3.58084 -4.40348,-7.61079 -6.01432,-8.95545 -2.85233,-2.38102 -2.98969,-2.37254 -5.26212,0.32498 -1.28333,1.52341 -2.33333,3.94281 -2.33333,5.37644 0,4.05111 -2.38186,7.54887 -6.63998,9.75083 -4.97934,2.57492 -5.80985,2.53338 -8.4867,-0.42452 z M 39.55626,61.828768 C 39.433651,61.734591 32.519547,61.340804 24.191587,60.953688 15.863573,60.566569 8.384892,59.584892 7.5721667,58.772167 4.0105093,55.210509 3.8862817,11.820193 7.4239005,6.9856332 9.0111519,4.8164732 15.331671,4.6794601 105.26391,4.8647057 c 52.87872,0.1089214 97.58656,0.5603158 99.35074,1.0030986 1.76419,0.4427826 3.62599,2.1232393 4.13734,3.734348 0.51134,1.6111087 1.06554,13.3074507 1.23154,25.9918687 0.25143,19.21126 -0.0348,23.341746 -1.71369,24.73428 C 206.70165,61.628968 187.77983,62 123.01675,62 77.236088,62 39.678869,61.922945 39.55626,61.828768 Z M 89.420988,50.619755 C 92.822844,48.799137 92.743495,43.40798 89.204587,35.917105 80.245136,16.952461 79.628455,15.957553 76.317859,15.126647 72.627347,14.200387 19.517288,15.757279 16.598604,16.877283 14.40356,17.7196 13.969292,44.205588 16.085687,48.160105 c 1.176946,2.199147 3.607888,2.483734 24.277777,2.842167 12.633428,0.219075 28.259315,0.533184 34.724191,0.698023 6.464877,0.164837 12.914877,-0.321406 14.333333,-1.08054 z m 107.570822,-0.49684 c 0.55451,-0.552508 1.20702,-7.742199 1.45003,-15.97709 0.37641,-12.755124 0.1096,-15.24823 -1.80125,-16.834134 -1.79863,-1.492734 -9.67506,-1.873171 -39.7504,-1.91998 -34.60254,-0.05385 -37.54243,0.12128 -37.96059,2.261445 -0.24929,1.275904 1.98956,7.413881 4.97524,13.639952 2.98567,6.226071 5.42849,12.139157 5.42849,13.140193 0,4.436632 4.57536,6.122588 18.04783,6.650366 19.44225,0.76164 48.44576,0.199962 49.61065,-0.960752 z M 117.74752,45.666667 C 116.89617,40.0023 110.3845,23.427433 107.25547,18.960113 c -2.1974,-3.137228 -8.832418,-4.030228 -12.536561,-1.687282 -1.678032,1.061389 -1.547372,2.397201 0.943534,9.646249 1.59021,4.627839 4.761767,11.864253 7.047907,16.08092 4.08052,7.526331 4.26307,7.666667 9.97263,7.666667 h 5.81603 z"
       id="path400" />
  </g>
</svg>
