<?xml version="1.0" encoding="UTF-8" standalone="no"?>
<!-- Created with Inkscape (http://www.inkscape.org/) -->

<svg
   version="1.1"
   id="svg213"
   width="76"
   height="205.33333"
   viewBox="0 0 76 205.33333"
   xmlns="http://www.w3.org/2000/svg"
   xmlns:svg="http://www.w3.org/2000/svg">
  <defs
     id="defs217" />
  <g
     id="g219">
    <path
       style="fill:#000000;stroke-width:1.33333"
       d="m 24.26654,200.25434 c -2.237536,-1.49854 -2.324185,-4.68386 -0.351487,-12.92101 6.14367,-25.65335 6.056974,-26.44481 -4.123014,-37.64009 C 8.8318812,137.63998 5.6177775,130.31236 4.0434181,113.78902 2.7204683,99.904288 4.2374389,85.260028 8.6440671,69.376095 9.7564968,65.36628 10.666667,61.008139 10.666667,59.691336 c 0,-1.316802 0.530858,-3.436046 1.179686,-4.709429 0.648827,-1.273383 2.50808,-6.515241 4.131674,-11.648574 3.244392,-10.257831 8.99489,-23.011477 14.478609,-32.111138 5.665652,-9.4015609 7.389971,-8.1406707 18.385853,13.444471 5.230036,10.266667 9.933727,20.766667 10.452648,23.333333 0.51892,2.566667 1.433095,5.266667 2.031499,6 0.598403,0.733333 2.994428,8.533333 5.324501,17.333333 5.96824,22.540284 6.147156,39.426468 0.579216,54.666668 -3.298828,9.02933 -5.219872,11.997 -12.514957,19.33333 L 46.097459,154 l 0.334077,8.66666 c 0.183743,4.76667 1.716325,14.23258 3.405741,21.03536 3.975996,16.01018 3.769304,16.30747 -11.892046,17.10499 -6.569878,0.33456 -12.725288,0.0859 -13.678691,-0.55267 z m 16.381113,-10.89025 c 1.031995,-1.6698 -1.723041,-12.03076 -3.199045,-12.03076 -1.144644,0 -2.781941,6.37591 -2.781941,10.83333 0,2.6588 4.518697,3.56347 5.980986,1.19743 z M 43.011544,143.0106 C 54.032643,133.68718 59.997,126.18851 60.205819,121.39314 60.942431,104.47741 58.659427,83.705889 54.483909,69.333332 51.998137,60.77705 39.467289,30.0143 38.056979,29.005849 c -0.771095,-0.551375 -2.776947,0.636307 -4.503683,2.666666 -5.423147,6.376738 -6.144983,8.689431 -13.62736,43.660817 -2.248749,10.510273 -2.920152,36.455078 -1.18344,45.731288 1.550885,8.28367 2.265552,9.53266 9.798536,17.12458 4.469099,4.50406 8.580829,8.25406 9.137179,8.33333 0.556349,0.0793 2.956349,-1.50109 5.333333,-3.51193 z"
       id="path539" />
  </g>
</svg>
