<?xml version="1.0" encoding="UTF-8" standalone="no"?>
<!-- Created with Inkscape (http://www.inkscape.org/) -->

<svg
   version="1.1"
   id="svg203"
   width="100"
   height="200"
   viewBox="0 0 100 200"
   xmlns="http://www.w3.org/2000/svg"
   xmlns:svg="http://www.w3.org/2000/svg">
  <defs
     id="defs207" />
  <g
     id="g209">
    <path
       style="fill:#000000;stroke-width:1.33333"
       d="m 10.301094,191.99863 c -4.8276249,-3.79742 -4.7340192,-8.65862 0.410762,-21.33196 4.427251,-10.90583 9.038847,-16.82828 16.877419,-21.67484 14.372386,-8.8864 34.569468,-8.181 48.434241,1.69158 5.166713,3.67903 13.697127,14.33591 15.586196,19.47152 3.962503,10.77248 4.687988,14.79746 3.176299,17.62207 -2.93728,5.48836 -5.893543,5.92507 -44.095936,6.51392 -35.990394,0.55477 -36.830116,0.50711 -40.388981,-2.29229 z m 69.936017,-11.7024 c 2.032946,-2.03295 -0.213175,-9.20766 -5.19139,-16.58267 -6.707113,-9.93631 -26.363153,-14.87119 -37.115776,-9.31833 -8.135518,4.20132 -16.590398,13.64886 -18.057236,20.17728 -0.69182,3.07906 -0.938241,6.11545 -0.547602,6.74752 1.160366,1.8775 58.982558,0.90564 60.912004,-1.0238 z m -53.903778,-47.882 C 25.05,132.07886 24,130.94846 24,129.90223 24,128.85601 23.469979,128 22.822175,128 c -1.305795,0 -3.22585,-5.06139 -2.908375,-7.66667 0.111704,-0.91666 -0.423204,-1.66666 -1.188684,-1.66666 -0.76548,0 -1.391783,-0.9 -1.391783,-2 0,-1.1 -0.6,-2 -1.333333,-2 -0.733333,0 -1.333333,-1.06655 -1.333333,-2.3701 0,-1.30356 -1.8,-5.83943 -4,-10.07972 C 5.8480083,92.929332 5.5794475,88.692668 9.6666667,86.441409 14.375383,83.847828 74.580525,84.675763 77.275928,87.371165 c 1.767128,1.76713 1.303136,3.382678 -4.110019,14.310425 -3.356117,6.77512 -7.807678,16.32884 -9.892358,21.23047 -2.534866,5.96014 -4.698424,9.15598 -6.531939,9.64846 -3.205041,0.86088 -26.992141,0.74644 -30.408279,-0.14629 z m 25.895012,-10.62088 c 1.341078,-1.21366 2.438322,-3.03077 2.438322,-4.03802 0,-1.00726 1.8,-5.39715 4,-9.75533 C 64.544019,96.357031 64.392373,96.031221 53,95.825112 47.683333,95.728923 39.433333,95.435167 34.666667,95.17232 24.31134,94.601299 20,95.401529 20,97.894608 c 0,1.014091 2.426933,6.974732 5.393185,13.245862 l 5.393186,11.40206 8.273481,0.47183 c 4.550415,0.2595 8.826237,0.58744 9.501827,0.72873 0.67559,0.1413 2.32559,-0.73608 3.666666,-1.94974 z M 6.2066501,50.895012 C 3.2012841,47.57412 3.3447879,46.461027 8.5964905,32.358104 12.285752,22.450963 14.401901,18.861992 19.442891,13.962712 29.400928,4.2846068 31.979747,3.3280431 48,3.3699941 60.6321,3.4030728 62.684837,3.7639763 69.009073,7.0637195 79.701592,12.642665 87.907569,22.161711 91.943144,33.667553 c 4.188565,11.942032 3.879524,14.813378 -1.888971,17.550708 -3.750709,1.779828 -10.574086,2.115072 -43.049029,2.115072 -35.693829,0 -38.75755,-0.183102 -40.7984939,-2.438321 z M 80.716404,39.919524 C 82.000164,37.842356 78.843579,30.778349 73.827864,24.503912 68.615193,17.983089 60.739916,14.029176 50.666667,12.875449 44.215253,12.136544 42.344735,12.526313 35.112949,16.116447 25.636769,20.820785 20.162807,27.561003 19.043969,35.902555 l -0.72842,5.430778 h 30.763536 c 20.238174,0 31.06249,-0.483717 31.637319,-1.413809 z"
       id="path678" />
  </g>
</svg>
