<?xml version="1.0" encoding="UTF-8" standalone="no"?>
<!-- Created with Inkscape (http://www.inkscape.org/) -->

<svg
   version="1.1"
   id="svg193"
   width="210.66667"
   height="216"
   viewBox="0 0 210.66667 216"
   xmlns="http://www.w3.org/2000/svg"
   xmlns:svg="http://www.w3.org/2000/svg">
  <defs
     id="defs197" />
  <g
     id="g199">
    <path
       style="fill:#000000;stroke-width:1.33333"
       d="m 168,210.69251 c -1.73444,-1.09848 -1.97838,-9.42592 -1.8372,-62.71715 0.14515,-54.786237 0.40896,-61.996367 2.43266,-66.484112 C 171.76375,74.465247 176.56783,72 187.09126,72 c 8.1072,0 8.99522,0.306311 13.46094,4.643112 l 4.78114,4.643111 -0.0204,37.690227 c -0.0107,20.72962 -0.46123,38.37838 -1,39.21947 -0.53878,0.84109 -2.47298,1.74109 -4.29823,2 -5.21035,0.73908 -6.51851,-5.44401 -5.68328,-26.86259 0.38605,-9.9 0.25892,-24.49042 -0.28252,-32.42317 -0.92341,-13.529275 -1.18507,-14.514583 -4.22185,-15.898235 -2.6659,-1.214665 -3.87792,-0.99702 -6.86556,1.23286 -5.69151,4.247955 -6.10242,10.135574 -5.892,84.421885 0.0459,16.18926 -0.37368,32.43714 -0.9357,36.23809 -0.18752,1.2682 -4.13525,5.09951 -5.22902,5.07483 -0.49762,-0.0107 -1.80476,-0.59042 -2.90476,-1.28708 z m -99.22245,-1.02584 c -0.550126,-0.55 -13.400126,-1.03548 -28.555556,-1.07886 -29.024464,-0.0831 -33.9642902,-0.90822 -35.5614125,-5.94032 -1.3482848,-4.24806 2.3043643,-7.3231 11.0238785,-9.2806 4.20688,-0.94444 12.748874,-4.57236 18.982207,-8.06206 6.233334,-3.4897 14.333334,-7.8515 18.000001,-9.69288 11.555114,-5.80295 12.993684,-8.24578 14.103264,-23.94863 0.633877,-8.97069 0.295241,-20.9902 -0.98599,-34.99665 C 63.514734,91.859628 61.97433,50.940005 63.135521,46.313452 64.31175,41.626985 68.552692,40.471823 82.390931,41.0686 100.54714,41.851589 100.52376,41.790627 97.578419,80.666667 96.689474,92.4 95.383414,105.9 94.676061,110.66667 c -0.70735,4.76666 -1.949136,20.31551 -2.759522,34.553 -1.139915,20.02689 -1.106043,27.1985 0.149644,31.68337 1.86564,6.66341 1.089518,22.00367 -1.380364,27.28327 -0.905599,1.9358 -3.108611,4.1858 -4.895584,5 -3.668943,1.67168 -15.487318,2.00537 -17.012685,0.48036 z M 78.802824,199.6044 c 4.45232,-3.0094 4.524085,-3.21076 4.158237,-11.66667 C 81.658132,157.82301 82.169169,128.67162 84.292283,112 87.554031,86.387328 89.405069,57.29206 87.94622,54.566175 86.713781,52.263344 78.704471,50.582567 74.333335,51.709471 c -1.975266,0.509234 -2.333334,2.222629 -2.333334,11.165256 0,5.81004 0.622737,16.148472 1.383863,22.974292 1.686048,15.120621 2.219661,23.184301 3.392364,51.263611 1.237871,29.63972 -0.787108,35.3949 -15.401604,43.77286 -3.32271,1.90479 -9.14297,5.48478 -12.933914,7.95555 -3.790943,2.47076 -7.421324,4.49229 -8.067513,4.49229 -1.675111,0 -8.350362,3.20124 -8.362794,4.01054 -0.0057,0.37246 5.948644,0.56662 13.231924,0.43148 10.067711,-0.18683 14.782451,0.3396 19.666667,2.19588 8.432903,3.20498 8.616642,3.20013 13.89383,-0.36683 z M 70.000001,37.069508 c -1.466667,-0.676272 -4.166667,-3.319525 -6,-5.873896 C 57.082253,21.55716 55.773776,20 54.592356,20 c -0.667755,0 -2.71315,2.958232 -4.545322,6.573851 -6.699697,13.221216 -13.188475,13.137622 -22.305202,-0.287354 l -5.489586,-8.083774 -2.79279,3.391162 c -3.120206,3.788731 -6.126122,3.564091 -6.126122,-0.457821 0,-4.049871 5.324589,-15.514072 7.613516,-16.3924155 C 23.326634,3.8304399 32.797797,13.057944 36.271321,19.673876 37.520546,22.053244 39.203741,24 40.011751,24 c 0.808012,0 2.989704,-3.321411 4.848206,-7.380912 3.84534,-8.3993284 8.492555,-12.2927147 12.496085,-10.4690868 1.428818,0.6508327 4.564327,4.4833318 6.967802,8.5166658 4.549328,7.634348 8.351634,9.439666 10.530843,5 0.629922,-1.283334 1.749014,-3.383334 2.486869,-4.666667 0.737855,-1.283333 2.364805,-4.316515 3.615447,-6.7404048 1.92343,-3.727838 2.79553,-4.2777243 5.658445,-3.5678272 4.757224,1.1796161 9.108034,5.579701 12.917251,13.063548 1.797801,3.532092 3.976531,6.186053 4.841611,5.897693 0.86508,-0.28836 3.42191,-3.943982 5.68185,-8.123605 C 115.25424,5.9158785 117.66943,3.4745484 120.85133,4.6173736 123.55811,5.5895535 136,20.370977 136,22.614551 c 0,2.752628 2.64228,1.300188 4.63104,-2.545646 2.59016,-5.008826 9.85936,-15.8025841 11.20079,-16.631631 2.46463,-1.5232289 9.43071,4.8231427 12.97299,11.818905 2.44332,4.825392 4.5169,7.355197 5.82742,7.109545 1.11894,-0.20974 3.89954,-3.889959 6.17912,-8.178261 5.9928,-11.2735341 9.03852,-12.6448723 14.64595,-6.5943565 4.33147,4.6737265 9.87603,15.7672705 9.87603,19.7599255 0,6.733169 -9.09412,4.995724 -12.12276,-2.316073 -0.84375,-2.036994 -2.24131,-3.703626 -3.10567,-3.703626 -2.20867,0 -4.76785,2.813036 -4.79141,5.266667 -0.0107,1.136667 -2.04171,4.456827 -4.5129,7.378133 -4.12629,4.877887 -4.80461,5.201899 -8.30966,3.96924 -2.49328,-0.876838 -4.89463,-3.411932 -6.92574,-7.311466 -3.47432,-6.670335 -8.13333,-12.187519 -9.55161,-11.310971 -0.51267,0.316844 -2.86304,4.498352 -5.22307,9.292239 -3.78498,7.688394 -4.73878,8.716158 -8.08888,8.716158 -3.92889,0 -6.12339,-2.105354 -13.80068,-13.240061 -2.07113,-3.003861 -4.24312,-5.166507 -4.82663,-4.805876 -0.58351,0.360629 -2.77524,4.043969 -4.87051,8.1852 -7.33121,14.489869 -13.17446,14.656949 -21.203819,0.606293 -2.933333,-5.13307 -5.74931,-9.350713 -6.257728,-9.372538 -1.347526,-0.05785 -5.075605,5.582657 -5.075605,7.679286 0,2.168679 -6.170996,10.477768 -8.40324,11.314751 -0.878219,0.329288 -2.79676,0.04539 -4.263427,-0.63088 z"
       id="path817" />
  </g>
</svg>
