<?xml version="1.0" encoding="UTF-8" standalone="no"?>
<!-- Created with Inkscape (http://www.inkscape.org/) -->

<svg
   version="1.1"
   id="svg183"
   width="145.33333"
   height="252"
   viewBox="0 0 145.33333 252"
   xmlns="http://www.w3.org/2000/svg"
   xmlns:svg="http://www.w3.org/2000/svg">
  <defs
     id="defs187" />
  <g
     id="g189">
    <path
       style="fill:#000000;stroke-width:1.33333"
       d="m 87.199857,246.97959 c -0.806744,-0.53878 -1.802622,-3.55175 -2.213062,-6.6955 -0.956116,-7.32332 -8.875953,-17.39525 -14.574565,-18.53498 -4.477357,-0.89547 -7.852829,-6.17518 -5.470843,-8.55716 0.771313,-0.77132 3.92685,-1.74099 7.012306,-2.15484 3.085456,-0.41384 5.941475,-1.61647 6.346707,-2.67248 1.044984,-2.72319 -4.114211,-7.40507 -9.970684,-9.04823 -5.642485,-1.58312 -7.332201,-5.465 -3.574764,-8.21251 1.656797,-1.21148 4.595301,-1.47845 9.686597,-0.88006 l 7.308337,0.85894 -0.944953,-4.54138 C 80.285209,184.04363 79.603288,178.1 79.28955,173.33333 c -2.607517,-39.61661 -3.651748,-51.69372 -4.669033,-54 -0.64694,-1.46666 -1.351213,-4.16666 -1.565053,-6 -0.325862,-2.79374 -1.185884,-3.39958 -5.31284,-3.74262 -3.611743,-0.30021 -5.6765,0.34316 -7.747436,2.4141 -3.981864,3.98186 -9.516144,3.13688 -10.785164,-1.64669 -1.353798,-5.10314 2.537832,-9.58032 11.105339,-12.776285 8.005366,-2.98627 12.567511,-2.115031 18.84885,3.599585 6.046857,5.50129 7.504494,10.79896 8.960452,32.5661 1.229357,18.37937 3.658601,52.84512 3.812669,54.0936 0.03447,0.27929 2.247016,0.15332 4.91678,-0.27992 5.279656,-0.85677 9.812546,0.82559 9.812546,3.64187 0,0.97674 -2.4,3.36414 -5.33333,5.30533 -2.933332,1.94119 -5.333332,4.07185 -5.333332,4.7348 0,0.66295 -0.34917,2.11529 -0.775934,3.22741 -0.593506,1.54666 0.393534,2.12088 4.198299,2.44239 3.034627,0.25643 5.546787,1.36275 6.442597,2.8372 1.51769,2.49804 1.16235,2.93409 -7.287337,8.94287 -2.414347,1.71689 -2.953596,3.75334 -3.530653,13.33333 -0.875916,14.54147 -2.845028,18.29375 -7.847113,14.95319 z M 21.829991,75.008737 C 4.7237856,74.39334 5.1819135,75.155273 5.0687103,47.132284 4.9350051,14.034133 4.917127,14.234716 8.1826458,12.195366 9.7823832,11.196314 16.360681,10.164005 23.182646,9.8414705 29.865523,9.5255119 38.333332,8.9505227 41.999999,8.5637169 c 3.666667,-0.3868058 7.566667,-0.6114417 8.666667,-0.499191 6.433353,0.6564992 58.554744,0.5715808 61.303074,-0.099878 3.26373,-0.7973768 12.4571,0.8759258 21.85742,3.9783091 3.51852,1.161217 4.86932,2.387834 4.9487,4.493779 0.3268,8.66844 -0.48701,19.11118 -1.66016,21.303233 -0.90936,1.699156 -0.87589,3.639691 0.10427,6.047668 0.79381,1.950132 1.49465,6.545696 1.55741,10.212363 0.0628,3.666667 0.75494,8.361619 1.53816,10.433227 1.24322,3.288276 0.99167,4.198926 -1.98093,7.171532 -3.30637,3.306373 -3.95897,3.412358 -22.53648,3.660038 -10.52232,0.140286 -20.42504,-0.307492 -22.006041,-0.99506 -3.189771,-1.387213 -4.53216,-5.761656 -3.021367,-9.845721 0.890753,-2.407936 2.625165,-2.749905 17.864388,-3.522267 9.28283,-0.470476 17.43744,-1.201248 18.12136,-1.623936 1.47474,-0.911437 1.65486,-33.900025 0.19761,-36.191705 C 125.80953,21.28618 81.566694,20.207667 78.808294,21.912452 77.917809,22.462801 72.571648,22.823705 66.927934,22.71446 61.284248,22.605213 47.966666,22.430676 37.333332,22.326599 L 18,22.137368 17.812116,40.068684 C 17.70878,49.930908 18.17989,59.05 18.859028,60.333333 c 1.091769,2.063063 3.543019,2.333334 21.16248,2.333334 h 19.927685 l 0.810144,3.227873 c 2.469828,9.840577 -0.354932,10.501915 -38.929346,9.114197 z"
       id="path956" />
  </g>
</svg>
