<?xml version="1.0" encoding="UTF-8" standalone="no"?>
<!-- Created with Inkscape (http://www.inkscape.org/) -->

<svg
   version="1.1"
   id="svg173"
   width="210.66667"
   height="214.66667"
   viewBox="0 0 210.66667 214.66667"
   xmlns="http://www.w3.org/2000/svg"
   xmlns:svg="http://www.w3.org/2000/svg">
  <defs
     id="defs177" />
  <g
     id="g179">
    <path
       style="fill:#000000;stroke-width:1.33333"
       d="m 105.33334,207.47979 c -12.287828,-1.93272 -14.661735,-3.16192 -24.35446,-12.61057 -9.740727,-9.49546 -12.979306,-17.4608 -12.977827,-31.91923 0.0013,-13.00851 4.674991,-23.82297 14.034834,-32.47545 15.337088,-14.178 34.979923,-17.16581 53.688953,-8.16644 C 149.20675,128.79312 160,145.06035 160,158.89482 c 0,15.84746 -6.7503,32.76781 -15.2246,38.16204 -2.99313,1.90525 -6.71765,4.58156 -8.27669,5.94734 -2.76687,2.42388 -15.17754,6.42124 -19.16537,6.17298 -1.1,-0.0685 -6.5,-0.83231 -12,-1.69739 z m 14.12605,-10.66083 c 0.38997,-1.01624 -0.48051,-4.06714 -1.93439,-6.77978 -2.47976,-4.62668 -2.73265,-4.76538 -4.08422,-2.23995 -0.79243,1.48068 -1.44078,4.53157 -1.44078,6.77979 0,3.48478 0.49779,4.08765 3.37518,4.08765 1.85635,0 3.69425,-0.83147 4.08421,-1.84771 z m -16.79272,-4.87208 c 0,-1.49588 1.2,-5.07197 2.66667,-7.94688 C 106.8,181.1251 108,177.89186 108,176.81503 c 0,-2.45819 3.60113,-6.14836 6,-6.14836 2.25809,0 3.85909,1.70573 11.15186,11.88137 3.20019,4.46524 6.5572,8.11863 7.46002,8.11863 0.90282,0 2.72747,-1.2 4.05479,-2.66667 1.32732,-1.46666 3.22031,-2.66666 4.20665,-2.66666 0.98634,0 1.79335,-1.08983 1.79335,-2.42184 0,-2.23751 -15.62077,-13.57816 -18.70274,-13.57816 -1.95109,0 -3.70037,-4.47032 -2.76016,-7.05364 0.47782,-1.31283 5.35244,-4.61283 10.83249,-7.33334 11.84442,-5.88 12.86236,-8.31152 6.50892,-15.54769 -5.72238,-6.51743 -8.52727,-5.85744 -13.2638,3.12096 C 120.68239,151.23731 116.69973,156 114.00882,156 c -2.64981,0 -7.34215,-4.76826 -7.34215,-7.46094 0,-1.17019 -0.83237,-3.72019 -1.84972,-5.66667 -1.01735,-1.94648 -2.50448,-5.18905 -3.30475,-7.20572 -2.291309,-5.77409 -6.024904,-4.66365 -12.136807,3.60973 -2.956465,4.00203 -5.375392,7.8789 -5.375392,8.61528 0,0.73638 2.285502,1.9543 5.078891,2.70647 8.044528,2.16617 17.587778,9.09528 17.587778,12.77004 0,3.28641 -4.24638,6.93909 -11.349602,9.76277 -2.208947,0.87811 -5.808947,3.08783 -8,4.9105 l -3.983733,3.31392 7.333333,6.64094 c 7.844715,7.10403 12.000002,8.472 12.000002,3.95056 z M 84.914067,167.76759 c 4.128994,-3.879 3.888293,-5.77839 -0.988246,-7.79831 -5.361434,-2.22078 -7.21913,-0.39429 -6.032474,5.93112 1.030933,5.49536 2.689249,5.93639 7.02072,1.86719 z M 148,164.57682 c 0,-4.32116 -0.27458,-4.67083 -3,-3.8204 -1.65,0.51486 -4.09246,1.69153 -5.42769,2.61481 -2.30745,1.59555 -2.27625,1.78479 0.63,3.8204 5.23245,3.66496 7.79769,2.80476 7.79769,-2.61481 z m -30.99311,-30.24348 c 0.73337,-0.91667 1.74727,-3.01667 2.25311,-4.66667 0.81244,-2.65011 0.45188,-3 -3.09146,-3 -4.9122,0 -5.91606,1.40365 -4.21108,5.88811 1.43818,3.7827 3.00461,4.33444 5.04943,1.77856 z M 80.666668,96.281421 c -6.68156,-0.965266 -8.686384,-1.826906 -10.011407,-4.302733 -2.048308,-3.827299 0.555536,-12.320376 5.505751,-17.958359 4.725183,-5.381687 16.868427,-12.686995 21.088947,-12.686995 1.608944,0 4.183891,-0.673549 5.722111,-1.496777 6.49844,-3.47786 26.45023,4.177861 34.70747,13.317633 8.2025,9.079187 9.39137,21.268258 2.29413,23.520836 -2.61227,0.8291 -53.165867,0.493589 -59.307002,-0.393605 z M 124.33334,85.384324 c 4.74561,-0.03821 6.33333,-0.557288 6.33333,-2.070587 0,-5.054468 -19.05792,-12.018296 -28.86551,-10.547556 -6.564413,0.984393 -18.205832,7.991154 -18.842441,11.340923 -0.35168,1.850503 1.757565,2.059676 17.320421,1.717655 9.74647,-0.214195 20.57086,-0.412391 24.0542,-0.440435 z m 73.63001,-44.577805 c -1.44651,-1.023081 -4.43001,-5.220982 -6.63001,-9.328671 -2.2,-4.107688 -4.6537,-7.470621 -5.45264,-7.473185 -1.51482,-0.0049 -4.54736,5.600301 -4.54736,8.405032 0,2.877935 -6.68496,8.923639 -9.8672,8.923639 -3.24338,0 -4.64308,-1.523455 -12.00835,-13.070038 l -4.50979,-7.070038 -2.52205,3.736705 c -1.38712,2.055187 -3.34176,5.36792 -4.34363,7.36163 -1.00188,1.993709 -3.23896,4.956473 -4.97129,6.583921 -2.57204,2.416305 -3.80268,2.729355 -6.71004,1.706891 -3.27469,-1.151643 -9.91893,-9.876283 -11.91595,-15.64697 -1.34175,-3.87718 -4.91906,-2.000841 -8.00434,4.198361 -7.43556,14.940157 -12.58025,15.792931 -21.313398,3.532871 -3.13423,-4.4 -5.729058,-8.785411 -5.766283,-9.745356 -0.121,-3.120067 -2.261815,-0.504728 -6.750364,8.246596 -3.633608,7.084447 -5.109938,8.723951 -8.458804,9.393724 C 69.275406,41.544919 67.863501,40.293882 62.058969,29.81113 59.680112,25.515008 56.893674,22 55.866888,22 54.8401,22 53.09876,23.8 51.997241,26 43.849262,42.273506 40.858737,43.54195 32.949017,34.079391 30.227058,30.823055 28,27.616048 28,26.952707 c 0,-0.66334 -1.236629,-2.325208 -2.748066,-3.693039 -3.19108,-2.887888 -3.594238,-2.504749 -8.098784,7.696627 -2.82887,6.406498 -6.892352,9.17117 -9.5595143,6.504008 -2.3771502,-2.37715 -1.0788888,-10.772384 2.3638818,-15.286089 1.7523455,-2.297443 4.4129135,-7.03925 5.9123735,-10.537348 2.910011,-6.7887797 5.833156,-8.8948037 9.31134,-6.7084941 2.805045,1.7631901 12.147063,15.2209721 12.149906,17.5027271 0.0045,3.603005 4.74022,0.690157 7.32667,-4.50648 C 49.762254,7.6688801 51.837371,5.3333334 55.84508,5.3333334 c 3.191076,0 4.657021,1.3505484 9.360846,8.6239786 3.067484,4.743188 6.093751,8.943198 6.725036,9.333354 0.631287,0.390156 2.930818,-2.440635 5.110071,-6.290646 9.236407,-16.31764643 11.602311,-16.48039138 21.413058,-1.472953 4.701059,7.191184 6.899049,9.55468 7.724929,8.306628 0.63487,-0.959411 2.98232,-5.306107 5.21655,-9.659324 5.77944,-11.2607631 8.59743,-11.9352351 16.08093,-3.848886 3.22763,3.48765 6.61582,8.005254 7.5293,10.039121 2.44875,5.452158 5.05794,3.975546 10.06447,-5.69578 4.86408,-9.3961595 6.07764,-10.6175977 10.57968,-10.6484089 2.82879,-0.01936 5.37573,2.9434909 12.4076,14.4336649 2.63981,4.313509 5.03775,5.088377 6.15872,1.990129 0.48639,-1.344316 1.98669,-4.036833 3.33404,-5.983371 C 178.89764,12.514301 180,9.9514379 180,8.7655877 c 0,-1.1858501 1.47543,-2.8283381 3.27872,-3.6499735 4.61936,-2.1047238 8.76804,0.9390604 13.34631,9.7918638 2.01737,3.900888 5.22203,9.159817 7.12145,11.686512 6.98456,9.291095 2.57623,20.124925 -5.78313,14.212529 z"
       id="path1095" />
  </g>
</svg>
