<?xml version="1.0" encoding="UTF-8" standalone="no"?>
<!-- Created with Inkscape (http://www.inkscape.org/) -->

<svg
   version="1.1"
   id="svg83"
   width="189.33333"
   height="196"
   viewBox="0 0 189.33333 196"
   xmlns="http://www.w3.org/2000/svg"
   xmlns:svg="http://www.w3.org/2000/svg">
  <defs
     id="defs87" />
  <g
     id="g89">
    <path
       style="fill:#000000;stroke-width:1.33333"
       d="m 174.58709,189 c -1.56757,-1.65 -5.4602,-6.36448 -8.65029,-10.47661 -7.50806,-9.67812 -12.3004,-11.82316 -19.0324,-8.51884 -6.32006,3.10212 -28.91409,7.30016 -40.9044,7.60014 -12.202642,0.30532 -25.555504,-1.83732 -38.235091,-6.13532 -12.171519,-4.12576 -14.985901,-4.2589 -21.117988,-0.99902 -7.102302,3.77565 -19.139187,6.11838 -29.137117,5.67093 -1.755199,-0.0785 -5.455243,-2.43967 -8.3333336,-5.31775 -4.6031101,-4.60312 -5.1764705,-5.89941 -5.1764705,-11.70333 0,-7.81676 2.3110487,-11.53769 9.4178121,-15.16329 4.377828,-2.2334 6.910548,-2.55408 15.369299,-1.94595 9.568967,0.68793 19.15302,3.98944 21.201112,7.30332 1.077575,1.74355 6.937364,1.75749 8.011776,0.0191 0.453225,-0.73334 2.253225,-1.33334 4,-1.33334 1.746775,0 3.491211,-0.51009 3.876525,-1.13354 0.385314,-0.62346 5.070724,-2.56931 10.412023,-4.32412 8.501654,-2.79312 12.21939,-3.19174 29.843533,-3.19979 12.30844,-0.005 21.37614,0.58064 23.33334,1.5086 22.11379,10.48487 26.37963,10.79148 34.53458,2.48219 5.99474,-6.1082 8.82161,-7.08127 13.42098,-4.61976 4.4299,2.37081 3.15767,7.36478 -3.42098,13.42877 -3.3,3.04184 -6,6.09449 -6,6.78367 0,1.45842 9.21902,10.40732 10.72146,10.40732 1.72252,0 6.56095,9.22104 6.85359,13.06146 0.28927,3.79634 -3.63328,9.6052 -6.48611,9.6052 -0.90845,0 -2.93429,-1.35 -4.50185,-3 z M 34.906993,163.76232 c 3.534486,-1.59739 6.42634,-3.60108 6.42634,-4.45264 0,-3.88496 -16.485815,-7.32375 -23,-4.79759 -2.672847,1.03651 -3.666667,2.34567 -3.666667,4.83008 0,1.87451 0.75,3.60748 1.666667,3.85106 C 17.25,163.4368 19.8,164.25413 22,165.00953 c 5.718873,1.96366 5.825164,1.95338 12.906993,-1.24721 z m 80.165427,1.55807 c 8.6565,-0.71726 16.9065,-1.92887 18.33334,-2.69248 5.4622,-2.92328 2.69321,-5.43543 -10.07243,-9.13811 -12.61217,-3.65816 -43.877065,-2.05553 -52.999998,2.71676 -6.107956,3.19515 -0.98164,6.55168 13.666667,8.94847 10.059535,1.64597 13.013017,1.66168 31.072421,0.16536 z M 40.014171,102.15155 C 34.541659,100.34873 32.918987,95.937832 33.827126,85.333333 34.17253,81.3 34.013393,64.80634 33.473489,48.680757 32.933585,32.555173 32.758119,17.968592 33.083565,16.266133 34.067433,11.119361 39.272549,8.8098968 50.519626,8.5299049 56.100498,8.3909711 68.766665,7.9339711 78.666665,7.5143491 c 9.9,-0.4196219 33.141615,-1.0703512 51.648035,-1.4460651 32.91916,-0.6683189 39.6055,-0.1001441 41.8661,3.5576007 0.89734,1.4519303 2,19.4536863 3.37138,55.0407823 1.17743,30.553717 1.14007,31.233677 -1.88258,34.25633 -2.49522,2.495213 -4.7437,2.762033 -27.4766,3.260543 l -24.759,0.54295 -2.11117,-3.222061 c -1.31475,-2.006557 -1.79261,-4.49132 -1.26672,-6.586626 0.79473,-3.166464 1.51381,-3.420326 12.21273,-4.31154 6.25254,-0.520835 15.11076,-0.646562 19.6849,-0.279394 4.57415,0.36717 9.16095,0.195079 10.19288,-0.382422 1.50954,-0.84478 1.95376,-7.058419 2.27282,-31.791382 l 0.39657,-30.741378 -7.07468,-3.428968 c -7.06859,-3.42602 -7.09703,-3.428267 -33.07467,-2.613371 -14.3,0.44858 -29.197207,1.362343 -33.104911,2.030585 -3.907703,0.668243 -11.520222,0.841756 -16.91671,0.385586 C 63.390414,21.003216 62.59556,21.156115 58.647654,24.478059 56.34558,26.415127 53.401092,28 52.104348,28 c -1.296744,0 -3.368493,1.116896 -4.603886,2.481991 -1.964131,2.17034 -2.221528,5.849409 -2.049912,29.300154 0.153396,20.960976 0.597211,27.150926 2.032086,28.341767 1.184772,0.983272 6.685198,1.390475 15.509928,1.148217 19.414533,-0.53297 23.209377,-0.213044 25.578862,2.156443 2.740028,2.740027 2.644664,4.930825 -0.37707,8.662508 -2.365974,2.92186 -3.358344,3.06376 -23.07254,3.29926 -12.247233,0.14631 -22.427901,-0.356 -25.107645,-1.23879 z"
       id="path1234" />
  </g>
</svg>
