<?xml version="1.0" encoding="UTF-8" standalone="no"?>
<!-- Created with Inkscape (http://www.inkscape.org/) -->

<svg
   version="1.1"
   id="svg233"
   width="208"
   height="400"
   viewBox="0 0 208 400"
   xmlns="http://www.w3.org/2000/svg"
   xmlns:svg="http://www.w3.org/2000/svg">
  <defs
     id="defs237" />
  <g
     id="g239">
    <path
       style="fill:#000000;stroke-width:1.33333"
       d="m 88.640631,388.45016 c -1.84404,-1.84404 -2.186623,-4.92485 -2.03865,-18.33333 0.09783,-8.86426 -0.220321,-18.76852 -0.70699,-22.00948 -0.486671,-3.24096 -0.225842,-8.94096 0.57962,-12.66667 0.805461,-3.72571 1.773104,-21.14153 2.150317,-38.70183 0.377213,-17.56029 1.073591,-34.8508 1.547503,-38.42333 0.818213,-6.16799 -1.391292,-16.98219 -3.469722,-16.98219 -0.478756,0 -2.632721,1.87307 -4.786588,4.16238 -2.153866,2.2893 -5.416121,4.84196 -7.249454,5.67256 -1.833334,0.8306 -6.191763,3.21948 -9.685399,5.30862 -6.852137,4.0975 -16.855923,5.02556 -24.175185,2.24278 -2.005492,-0.76248 -6.514296,-1.38634 -10.019566,-1.38634 -4.636893,0 -7.017653,-0.71209 -8.738637,-2.61376 -4.388165,-4.84886 -8.644808,-16.12244 -10.744469,-28.45636 -1.148193,-6.74477 -2.3639893,-13.19469 -2.7017702,-14.33316 -1.2063675,-4.06597 2.5372252,-6.67664 11.4225722,-7.96572 4.75335,-0.68961 29.342454,-1.33922 54.642454,-1.44358 C 131.04173,202.28821 172,201.29692 172,200.16504 c 0,-0.46608 -1.82128,-1.65359 -4.04729,-2.63892 -4.61774,-2.044 -30.7945,-26.25871 -32.23996,-29.82343 -0.8958,-2.20918 -8.51885,-7.68677 -10.71275,-7.6977 -0.55,-0.003 -1,1.82932 -1,4.07125 0,9.09487 -2.91836,16.49237 -8.99047,22.78921 -8.40467,8.71571 -14.54745,11.29367 -21.952327,9.21282 C 89.909075,195.1936 84.033333,193.64235 80,192.63104 68.945344,189.85923 60.41654,178.88409 61.726671,169.11633 62.104105,166.30235 62.076644,164 61.665645,164 c -0.410998,0 -2.71387,1.5 -5.117494,3.33333 -2.403624,1.83334 -5.002732,3.33334 -5.775796,3.33334 -0.773063,0 -2.836191,2.25 -4.584728,5 -3.414403,5.36997 -16.546807,18.35202 -22.477099,22.21976 -4.849603,3.1629 -13.641089,1.80985 -16.4898187,-2.53786 -3.094023,-4.72208 -1.2495286,-8.70384 9.0299437,-19.4932 5.164292,-5.42045 9.77056,-10.32294 10.236151,-10.89441 0.465592,-0.57148 6.063255,-6.08016 12.439252,-12.24151 6.375997,-6.16136 12.805303,-13.57932 14.287345,-16.48437 1.482043,-2.90504 5.115318,-7.35391 8.073944,-9.88639 2.958627,-2.53247 5.379322,-4.9703 5.379322,-5.41738 0,-0.44709 1.5,-3.02326 3.333333,-5.72483 5.016051,-7.39156 4.431976,-12.0387 -2.333333,-18.56494 C 64.55,93.635007 60.788273,89.110716 59.307273,86.587559 56.847048,82.396108 55.926047,81.923325 48.640607,81.111987 35.318643,79.628395 26.815748,75.653351 20,67.722705 11.870209,58.263071 10.099365,53.415572 10.045336,40.472872 10.007682,31.452755 10.450665,29.114508 12.65952,26.67412 l 2.65952,-2.938293 -3.693472,-2.945072 C 7.2828339,17.32798 8.0462236,16 14.379536,16 c 3.211787,0 5.977831,-1.208209 9.157505,-4 2.505662,-2.2 5.162355,-4 5.903762,-4 0.741408,0 4.165756,1.5 7.609662,3.333333 3.443908,1.833334 7.273907,3.333334 8.511108,3.333334 3.253944,0 20.56094,15.467346 22.4735,20.084676 C 69.895265,39.242243 72,39.913957 72,36.016727 c 0,-5.61068 21.01044,-14.511408 29.73256,-12.59571 5.01801,1.10214 13.14699,6.626028 15.22019,10.342576 0.89068,1.596691 1.64068,5.153074 1.66667,7.903074 0.0317,3.354785 0.65651,5 1.89886,5 1.08436,0 2.23945,-2.071854 2.78757,-5 0.51478,-2.75 2.08156,-7.517082 3.48173,-10.593515 1.40016,-3.076433 2.54575,-6.153549 2.54575,-6.838035 0,-1.409748 12.60031,-12.417513 16.66667,-14.5601893 1.46667,-0.7728256 6.10299,-1.8332648 10.30293,-2.3565314 7.26702,-0.9053898 7.98714,-0.7184947 14.89262,3.8651047 3.991,2.649075 7.76081,4.816499 8.37737,4.816499 2.11284,0 7.97408,6.354081 9.69609,10.511381 1.29024,3.114922 1.37083,5.409398 0.32159,9.15592 -2.97612,10.626784 -5.39944,14.650334 -14.33999,23.80937 -7.78209,7.972258 -10.45521,9.826614 -16.83866,11.681058 -13.36687,3.88318 -25.78848,10.691092 -32.98208,18.076496 -3.71976,3.818936 -6.78446,7.953528 -6.81045,9.187982 -0.026,1.234453 -0.90473,3.744463 -1.95275,5.577793 -2.76605,4.8387 -2.44676,10.28919 0.76155,13 7.77219,6.56701 19.51394,19.43743 25.89698,28.38632 6.20991,8.70617 18.97133,21.53304 40.34147,40.5484 4.3809,3.89816 5.66857,5.99028 5.67509,9.22043 0.007,3.21745 0.90336,4.6873 3.90044,6.39236 5.18703,2.95092 5.71259,7.1202 5.18331,41.11916 -0.47043,30.21856 -0.0615,28.66822 -10.89422,41.29737 -11.65589,13.5888 -32.01728,19.31152 -49.85872,14.01319 -7.95587,-2.36264 -18.8586,-12.23474 -24.63974,-22.31056 -1.99862,-3.48334 -4.18041,-6.33334 -4.84844,-6.33334 -0.66803,0 -1.26842,7.35 -1.3342,16.33334 -0.7302,99.72016 -0.71417,99.23697 -3.39017,102.19362 -3.1546,3.48544 -11.588124,3.82112 -14.819389,0.58987 z M 167.91021,277 c 4.37031,-3.11667 7.97836,-6.14096 8.01791,-6.72065 0.0396,-0.5797 1.35703,-2.79226 2.92777,-4.9168 3.04896,-4.12394 3.04767,-2.70648 0.0275,-30.01775 -1.22869,-11.11105 -2.99695,-11.86264 -29.31088,-12.45848 -23.63673,-0.53521 -24.49945,-0.19285 -26.82375,10.64499 -1.88774,8.8022 -1.71798,25.10173 0.29848,28.65841 2.48327,4.38007 12.92968,13.40124 19.61942,16.94265 9.64026,5.10338 15.83054,4.58048 25.24354,-2.13237 z M 49.095351,241.98985 c 0.837864,-1.8389 3.608476,-4.33778 6.156916,-5.55305 2.679105,-1.27757 4.253164,-2.81989 3.731768,-3.65652 -0.495967,-0.79583 -0.719291,-2.85829 -0.496276,-4.58328 0.381669,-2.95216 0.09829,-3.08444 -4.825403,-2.25259 -4.032551,0.6813 -7.289287,0.0597 -14.216068,-2.71326 -8.254321,-3.30443 -9.159544,-3.42266 -11.128768,-1.45343 -1.872081,1.87208 -1.910468,2.61297 -0.303073,5.8496 2.627306,5.29029 14.823297,17.70601 17.392653,17.70601 1.190673,0 2.850385,-1.50456 3.688251,-3.34348 z M 176.66667,201.33333 C 176.21344,200.6 175.27803,200 174.58797,200 c -0.69005,0 -1.25464,0.6 -1.25464,1.33333 0,0.73334 0.93542,1.33334 2.0787,1.33334 1.14328,0 1.70786,-0.6 1.25464,-1.33334 z m -76.49263,-27.87281 c 2.86772,-2.32215 2.96083,-2.75007 1.08795,-5 -1.12649,-1.35329 -3.821279,-6.20915 -5.988414,-10.79079 -2.167133,-4.58165 -4.240243,-8.30626 -4.606909,-8.2769 C 90.3,149.42216 88.65,151.56241 87,154.14889 c -8.170159,12.80723 2.283131,28.13055 13.17404,19.31163 z M 93.312916,145 C 93.296407,142.57408 93.045165,142.38272 92,144 c -1.670563,2.58501 -1.670563,4 0,4 0.733333,0 1.324145,-1.35 1.312916,-3 z M 100,57.378569 c 0,-1.441786 -1.004717,-4.728345 -2.232707,-7.303464 -1.737064,-3.642661 -2.625029,-4.356433 -4,-3.215309 C 91.562891,48.689288 91.453239,56.253239 93.6,58.4 c 2.555557,2.555557 6.4,1.941989 6.4,-1.021431 z M 46.435727,54.190008 c 0.64307,-5.623008 -2.156823,-11.133477 -7.25927,-14.286963 -2.480385,-1.532962 -4.528036,-3.488268 -4.550336,-4.345124 -0.02229,-0.856857 -0.690498,-0.43933 -1.484888,0.927836 -0.877778,1.510686 -1.094141,5.171814 -0.551573,9.333334 1.686472,12.935304 1.747713,13.032781 7.905475,12.583 4.9512,-0.36165 5.548689,-0.78529 5.940592,-4.212083 z M 157.43677,45.140049 c 0.84183,-1.572972 3.06342,-4.178422 4.93686,-5.789889 2.35042,-2.021741 3.1232,-3.66758 2.49308,-5.309643 -0.79791,-2.079312 -1.9605,-2.261212 -9.21007,-1.441016 -11.89795,1.346099 -13.72815,3.527083 -9.6224,11.466712 2.55979,4.95008 9.00328,5.556896 11.40253,1.073836 z"
       id="path1785" />
  </g>
</svg>
