<?xml version="1.0" encoding="UTF-8" standalone="no"?>
<!-- Created with Inkscape (http://www.inkscape.org/) -->

<svg
   version="1.1"
   id="svg215"
   width="216"
   height="208"
   viewBox="0 0 216 208"
   xmlns="http://www.w3.org/2000/svg"
   xmlns:svg="http://www.w3.org/2000/svg">
  <defs
     id="defs219" />
  <g
     id="g221">
    <path
       style="fill:#000000;stroke-width:1.33333"
       d="m 150.92987,203.25496 c -3.88858,-1.04657 -8.38858,-2.59391 -10,-3.43851 C 120.64069,189.18224 110.8873,163.56133 119,142.20949 c 2.39505,-6.30354 4.78867,-9.50469 11.87021,-15.87483 12.18506,-10.96096 17.58422,-13.18581 32.6456,-13.45238 11.82698,-0.20932 12.48818,-0.0574 22.65824,5.20764 8.75372,4.53175 11.32831,6.66766 15.66202,12.99337 8.01549,11.69983 9.8596,24.22371 5.92672,40.25004 -2.59223,10.56322 -6.46022,16.16342 -16.29562,23.5933 -13.36601,10.097 -25.04825,12.4971 -40.5373,8.32833 z m 16.43962,-13.58556 c -1.11804,-4.45464 -1.46382,-4.84716 -3.28078,-3.72423 -0.78212,0.48339 -1.42204,2.34347 -1.42204,4.13352 0,2.42154 0.7196,3.25464 2.81121,3.25464 2.40047,0 2.67685,-0.53532 1.89161,-3.66393 z m -15.3772,-6.00273 c 0.90703,-2.38334 3.07206,-7.48334 4.81118,-11.33334 2.80954,-6.2197 3.61461,-7 7.22224,-7 2.6529,0 4.39194,0.82583 5.01725,2.38258 0.52637,1.31041 3.00032,5.49844 5.49767,9.3067 3.98857,6.08228 4.96124,6.82664 8,6.12223 5.30204,-1.22904 9.06758,-5.35412 7.35942,-8.06211 -1.17437,-1.86176 -8.18637,-6.01048 -16.56672,-9.80186 -1.19985,-0.54283 -2,-2.69228 -2,-5.37262 0,-4.24641 0.50518,-4.71342 10.19522,-9.42518 5.60736,-2.72658 10.5851,-5.58828 11.06165,-6.35935 1.80523,-2.92091 -7.17888,-14.80282 -11.17299,-14.77683 -1.14613,0.007 -3.13108,2.25746 -4.41098,5 -4.37986,9.38499 -10.2592,16.31978 -13.836,16.31978 -2.60764,0 -3.8805,-1.21611 -5.9311,-5.66667 -4.34808,-9.43695 -8.72334,-16.33333 -10.36232,-16.33333 -2.47174,0 -12.21014,10.10998 -12.21014,12.67605 0,3.01975 1.69438,4.23807 11.05801,7.95103 5.39931,2.14098 8.31079,4.19645 9.67165,6.82808 1.80271,3.48605 1.7316,3.96565 -0.95973,6.47301 -1.59868,1.4894 -3.94549,3.03769 -5.21513,3.44067 -1.26966,0.40297 -2.64384,1.60666 -3.05375,2.67489 -0.40992,1.06821 -3.16535,2.91052 -6.12317,4.09401 -2.95784,1.1835 -5.37788,2.77882 -5.37788,3.54518 0,2.20084 10.86332,11.65041 13.39342,11.65041 1.34858,0 2.95807,-1.77368 3.9322,-4.33333 z M 137.9256,160.88595 c 2.29208,-1.67602 2.19696,-1.95043 -1.61765,-4.66667 -2.22912,-1.58727 -4.64034,-2.88595 -5.35827,-2.88595 -1.2639,0 -2.8943,4.26398 -2.93147,7.66667 -0.0243,2.22169 6.82083,2.14289 9.90739,-0.114 z M 196.66667,160 c 0,-1.42901 -1.13912,-1.87596 -3.99006,-1.56551 -4.71729,0.5137 -5.24826,0.89519 -4.01754,2.88655 1.347,2.17948 8.0076,1.08067 8.0076,-1.32104 z m -29.55316,-30.89805 c 0.96226,-3.67969 0.0724,-5.10195 -3.1922,-5.10195 -2.80302,0 -2.96406,0.46077 -1.74759,5 1.02428,3.82212 3.95115,3.88252 4.93979,0.10195 z M 10.666667,203.0146 C 5.6142763,202.09995 4,200.14267 4,194.9314 c 0,-10.39851 6.334751,-23.65189 15.660411,-32.76427 10.436012,-10.19734 13.571528,-11.50046 27.671865,-11.50046 14.879039,0 19.382313,2.04733 30.724867,13.96856 12.93055,13.59021 19.796708,30.96633 14.534144,36.7814 -2.540556,2.80728 -9.206747,3.49026 -10.687134,1.09496 -0.625992,-1.01288 -3.899374,-1.19483 -10.245561,-0.5695 -11.353817,1.11878 -56.364293,1.91026 -60.991925,1.07251 z m 61.934838,-15.18895 c 1.812919,-1.66113 0.848424,-13.44602 -1.296206,-15.83798 -0.99234,-1.10678 -5.207267,-3.73543 -9.366506,-5.84144 -6.645617,-3.36499 -8.503612,-3.73074 -15.328501,-3.01739 C 32.886128,164.56329 20.509093,174.16691 19.711745,184 l -0.378412,4.66667 20,0.6832 c 21.650127,0.73957 31.279018,0.29841 33.268172,-1.52422 z M 75.067527,39.887349 C 73.509365,39.310948 71.799545,37.450495 71.267924,35.753007 69.916441,31.437668 62.826251,21.333333 61.149669,21.333333 c -1.972097,0 -6.385824,5.589287 -6.438644,8.153522 -0.06217,3.018684 -4.905668,8.850297 -8.225925,9.904105 -3.114895,0.988629 -7.403576,-3.144849 -13.086471,-12.612884 -1.797421,-2.994609 -3.897421,-5.419347 -4.666666,-5.388308 -1.554071,0.06271 -6.694088,7.623271 -8.017584,11.793239 -1.075991,3.390144 -5.962738,5.095222 -7.52709,2.626342 -2.145209,-3.385594 -1.195954,-9.54628 2.146044,-13.927865 1.833334,-2.403624 3.333334,-4.743177 3.333334,-5.199007 0,-2.274076 5.484544,-12.4551986 7.02881,-13.047789 3.699896,-1.4197836 11.464643,5.3907316 13.477358,11.821089 0.480149,1.534011 2.255773,4.08816 3.945832,5.675887 l 3.072834,2.886779 5.237583,-9.321802 C 58.553167,2.0172644 63.029876,0.92441853 67.993065,10.653073 c 1.400376,2.744966 4.14849,6.895131 6.106918,9.22259 l 3.560777,4.231744 2.040457,-3.72037 c 1.122252,-2.046204 3.11362,-5.72866 4.425262,-8.183237 C 86.657004,7.4682329 90.283448,4.1124147 92.946041,4.0424045 95.39458,3.9780232 101.13065,10.580975 104.78162,17.666667 106.57643,21.15 108.85546,24 109.84612,24 c 0.99066,0 4.43055,-4.496989 7.64421,-9.993311 7.60867,-13.01313101 9.29433,-13.07197351 17.877,-0.624044 3.84462,5.576054 7.26924,9.227403 8.44116,9 1.08458,-0.210454 4.13727,-3.927288 6.78375,-8.259628 2.64649,-4.3323407 5.82427,-8.5156337 7.06173,-9.2962066 3.17415,-2.0021993 8.33027,2.1482104 12.98651,10.4534646 2.03931,3.637485 4.37281,6.835266 5.18556,7.106182 0.81275,0.270915 3.99455,-3.455208 7.07067,-8.280274 6.98608,-10.9580547 9.2602,-11.2542306 16.89457,-2.200308 3.04813,3.614898 5.54205,7.294077 5.54205,8.175954 0,0.881878 1.26039,3.642771 2.80087,6.135319 1.88545,3.050712 2.52444,5.633329 1.95508,7.901855 -0.73331,2.921701 -1.47315,3.31526 -5.56213,2.958805 -4.64264,-0.404719 -5.66527,-1.483319 -9.87084,-10.411141 -1.8148,-3.852555 -4.91247,-2.89285 -7.32874,2.270561 -3.78782,8.094292 -7.30972,12.396105 -10.14869,12.396105 -3.012,0 -7.97907,-4.893414 -12.85731,-12.666666 -1.84088,-2.933334 -3.56262,-5.579655 -3.82613,-5.880715 -0.78959,-0.902132 -5.82877,4.168561 -5.82877,5.865219 0,0.864161 -1.98327,3.86551 -4.40727,6.669664 -3.60065,4.165329 -5.0166,4.945532 -7.73649,4.262881 C 139.60661,38.851775 132,29.577403 132,26.75366 c 0,-0.553865 -1.18761,-2.081795 -2.63912,-3.395401 -2.54986,-2.307584 -2.72939,-2.280747 -5.30733,0.793349 -1.46751,1.749949 -3.93835,5.741895 -5.49075,8.870991 -4.49818,9.066702 -11.10157,10.708184 -14.35471,3.568317 C 103.36663,34.744112 102.04,32.505644 101.26002,31.616545 100.48004,30.727445 98.686272,28.05 97.273869,25.666667 94.139123,20.377 92.761079,20.245485 90.288353,25 82.150156,40.647984 80.770793,41.997125 75.067527,39.887349 Z"
       id="path243" />
  </g>
</svg>
