<?xml version="1.0" encoding="UTF-8" standalone="no"?>
<!-- Created with Inkscape (http://www.inkscape.org/) -->

<svg
   version="1.1"
   id="svg195"
   width="469.33334"
   height="212"
   viewBox="0 0 469.33334 212"
   xmlns="http://www.w3.org/2000/svg"
   xmlns:svg="http://www.w3.org/2000/svg">
  <defs
     id="defs199" />
  <g
     id="g201">
    <path
       style="fill:#000000;stroke-width:1.33333"
       d="m 440.00001,206.93523 c -4.0562,-0.6137 -21.7873,-13.68696 -24.80038,-18.28551 -1.25524,-1.91573 -3.44726,-3.31639 -5.19014,-3.31639 -1.65943,0 -5.34043,-0.97738 -8.17999,-2.17198 -7.11576,-2.99358 -59.03784,-4.48698 -73.16283,-2.10432 C 325,181.67552 310.3,181.9196 296,181.59941 c -27.92802,-0.62532 -33.12445,-0.65941 -39.33333,-0.25797 -2.2,0.14224 -12.7,-0.114 -23.33333,-0.56941 C 222.7,180.3166 182.28347,179.72772 143.51882,179.4634 l -70.481186,-0.4806 -8.75801,7.93687 c -4.816906,4.36526 -10.932998,9.04645 -13.591314,10.40262 -6.184241,3.15496 -20.098251,5.69374 -24.944688,4.55146 -4.859186,-1.1453 -16.4777819,-13.15603 -18.5459292,-19.17187 -1.9029221,-5.53523 -1.4210455,-6.70361 7.4615182,-18.09168 3.456176,-4.43107 7.010035,-9.41317 7.897464,-11.07135 0.887431,-1.65817 5.558317,-7.90101 10.379749,-13.87298 4.821433,-5.97196 10.767766,-13.88986 13.214074,-17.59532 2.446308,-3.70547 6.252775,-9.13722 8.458813,-12.07055 2.206039,-2.93333 4.443073,-6.23333 4.971183,-7.33333 1.924958,-4.009482 8.260867,-12.776469 11.072415,-15.320885 1.586283,-1.435566 4.958008,-6.318525 7.492723,-10.851018 2.534714,-4.532492 5.526041,-9.002328 6.647393,-9.932968 1.121352,-0.930639 4.205323,-5.03776 6.853268,-9.126935 2.647946,-4.089175 6.286376,-9.046599 8.085399,-11.016497 1.799028,-1.969899 3.945358,-4.714872 4.769628,-6.09994 5.59055,-9.394078 15.20151,-23.403212 19.95381,-29.085073 4.9338,-5.8988593 12.5633,-8.1541692 18.02693,-5.3288224 3.67322,1.8995 12.50804,13.6119654 15.65634,20.7558974 0.80947,1.836764 3.24286,5.228198 5.40755,7.536519 l 3.93581,4.196948 24.34524,-0.6272 c 21.98016,-0.566271 24.69308,-0.391216 27.92579,1.801952 3.28283,2.227168 7.46503,2.442969 50.29673,2.595309 25.6939,0.09139 48.69787,0.601407 51.11992,1.13338 4.21222,0.925156 4.86183,0.483048 14.9362,-10.165057 5.79286,-6.122753 12.39464,-13.08228 14.67064,-15.465613 3.37986,-3.539248 5.16061,-4.333334 9.71761,-4.333334 6.98474,0 10.49826,2.42756 15.04486,10.394803 1.96852,3.449525 4.4331,7.280436 5.47686,8.513136 1.99434,2.355368 3.32062,4.669536 11.10614,19.378672 2.63364,4.975697 6.16494,11.446723 7.84734,14.380056 1.6824,2.933333 4.83853,8.633333 7.01364,12.666667 C 409.15782,82.7 411.69134,86.9 412.61277,88 c 0.92142,1.1 3.6782,5.813999 6.12618,10.475553 2.44798,4.661557 5.20414,8.764617 6.1248,9.117907 0.92067,0.35329 2.38779,2.83929 3.26027,5.52444 0.87249,2.68516 3.41221,7.20822 5.64384,10.05126 3.89497,4.96209 9.88077,15.14772 13.02523,22.16417 2.1783,4.8606 2.96094,6.39776 8.28264,16.26766 5.02566,9.32089 8.92428,21.91212 8.92428,28.8225 0,8.81166 -13.50102,18.1002 -24,16.51174 z m 7.99306,-23.58894 c 1.50404,-2.81033 1.47584,-3.6808 -0.18354,-5.66666 -1.07831,-1.29047 -2.71667,-3.8463 -3.6408,-5.67963 -6.87324,-13.63543 -17.85236,-30.81755 -36.20827,-56.66526 -3.64492,-5.13257 -6.62712,-10.02227 -6.62712,-10.86602 0,-0.84375 -1.98312,-4.480991 -4.40693,-8.082768 -2.42383,-3.601776 -7.93939,-13.595809 -12.2568,-22.208963 -4.31743,-8.613152 -9.12326,-16.976537 -10.67963,-18.5853 -1.55637,-1.608762 -4.51203,-5.175022 -6.56812,-7.925022 -2.37613,-3.178047 -4.82708,-5 -6.72613,-5 -3.22723,0 -11.51638,8.698206 -24.03083,25.216697 -3.91554,5.16832 -11.92428,14.756195 -17.79724,21.306388 -5.87295,6.550195 -11.59008,13.673028 -12.70472,15.828518 -1.11466,2.15548 -3.54959,4.91694 -5.41098,6.13656 -1.86137,1.21963 -4.5568,4.45873 -5.98981,7.198 -1.43301,2.73928 -4.50436,6.96605 -6.82523,9.39283 C 280.54159,135.47852 260,160.13395 260,161.27749 c 0,2.1042 44.97898,3.74474 71.33334,2.60176 5.86666,-0.25442 22.66667,0.11454 37.33333,0.82006 14.66667,0.70546 31.62391,1.15376 37.68276,0.9962 l 11.01611,-0.28646 5.65056,5.8073 c 3.10781,3.194 7.35967,7.97697 9.44856,10.6288 3.15108,4.00028 4.64567,4.82152 8.77469,4.82152 3.93871,0 5.34735,-0.69255 6.75372,-3.32038 z M 46.018698,179.39287 c 3.310257,-1.93995 6.523031,-3.21544 7.139496,-2.83444 0.616467,0.381 2.523455,-0.8003 4.237752,-2.62508 1.714298,-1.82478 5.9161,-5.11403 9.337339,-7.30943 l 6.220436,-3.99164 65.189799,0.58289 c 72.68091,0.64987 80.52315,0.32591 80.52315,-3.32642 0,-1.31892 -0.54099,-2.73239 -1.20219,-3.14103 -1.1034,-0.68193 -12.35692,-18.65491 -19.9712,-31.89595 -1.74536,-3.03514 -5.19536,-8.36983 -7.66666,-11.85486 -2.47131,-3.48503 -4.49328,-6.91415 -4.49328,-7.62027 0,-0.70612 -1.6876,-3.25473 -3.75022,-5.663579 -2.06261,-2.40885 -5.37666,-7.079728 -7.36456,-10.379728 -5.22172,-8.668282 -18.53858,-25.652134 -26.60374,-33.929456 -2.10582,-2.161201 -5.00772,-6.240434 -6.4487,-9.064962 -1.44096,-2.82453 -3.52864,-5.484212 -4.63929,-5.910407 -2.1534,-0.826339 -9.86016,5.625968 -9.86016,8.255195 0,0.834969 -1.56462,2.972714 -3.47693,4.750545 -4.43466,4.122785 -23.792559,29.153179 -24.910396,32.20994 -0.464787,1.270971 -1.655163,1.999992 -2.645281,1.620048 -2.122411,-0.814445 -5.702864,5.133727 -4.379303,7.275293 C 91.751201,95.342788 91.521969,96 90.745357,96 c -0.776612,0 -1.412022,1.2 -1.412022,2.666667 0,1.777773 -0.88889,2.666663 -2.666667,2.666663 -1.763607,0 -2.666667,0.88889 -2.666667,2.62482 0,1.7143 -0.653932,2.37389 -1.885124,1.90143 -1.202539,-0.46145 -3.900724,2.00503 -7.451691,6.8118 -3.06161,4.14435 -9.263305,11.82705 -13.781542,17.07268 -9.745667,11.31461 -11.107187,13.14443 -24.162153,32.47305 -5.529053,8.18606 -10.052824,15.71606 -10.052824,16.73333 0,5.84608 9.75099,6.06901 19.352031,0.44243 z m 187.481492,-39.7262 c 0.29113,-3.11667 0.52268,-19.76667 0.51457,-37 C 233.99692,64.790911 233.44714,62.588613 224,62.550092 c -3.3,-0.01345 -8.4,-0.12192 -11.33333,-0.241031 -2.93333,-0.119106 -9.68333,-0.08737 -15,0.07052 L 188,62.666667 v 5.286938 c 0,3.895399 0.99852,6.439696 3.79371,9.666667 2.08653,2.408851 4.78891,7.343588 6.00528,10.966083 1.21636,3.622494 3.34601,7.822494 4.73253,9.333333 1.38654,1.510839 3.64215,4.873142 5.0125,7.471792 1.37033,2.59864 4.79372,7.86103 7.60752,11.69419 2.92045,3.97845 5.96465,10.24774 7.09352,14.60852 1.94982,7.53217 6.04205,13.63914 9.13946,13.63914 0.89438,0 1.81724,-2.47184 2.11567,-5.66666 z M 257.27775,139 c 1.54764,-2.01667 5.34327,-6.86514 8.43473,-10.77438 11.79628,-14.91671 18.41159,-23.69414 20.64208,-27.38867 1.27166,-2.106339 5.33327,-7.506339 9.0258,-11.999997 3.69254,-4.493657 8.96856,-11.470286 11.72451,-15.50362 4.65781,-6.816706 4.81888,-7.363349 2.28631,-7.759401 -1.49848,-0.234337 -2.72583,-0.834337 -2.72746,-1.333333 -0.001,-0.498996 -10.97796,-1.103568 -24.39188,-1.343494 -32.49508,-0.581217 -30.92182,-1.765493 -30.98482,23.323898 -0.0255,10.145114 -0.56767,26.995667 -1.20487,37.445667 -1.14145,18.71941 -1.11765,19 1.61157,19 1.52356,0 4.03638,-1.65 5.58403,-3.66667 z"
       id="path521" />
  </g>
</svg>
