<?xml version="1.0" encoding="UTF-8" standalone="no"?>
<!-- Created with Inkscape (http://www.inkscape.org/) -->

<svg
   version="1.1"
   id="svg185"
   width="209.33333"
   height="221.33333"
   viewBox="0 0 209.33333 221.33333"
   xmlns="http://www.w3.org/2000/svg"
   xmlns:svg="http://www.w3.org/2000/svg">
  <defs
     id="defs189" />
  <g
     id="g191">
    <path
       style="fill:#000000;stroke-width:1.33333"
       d="m 192.25577,211.42094 c -2.21125,-2.51849 -4.45973,-5.96849 -4.99663,-7.66666 -0.53689,-1.69819 -2.32273,-4.88762 -3.96852,-7.08762 -11.98577,-16.02193 -17.50441,-42.58624 -13.96993,-67.24512 2.02303,-14.11404 0.10373,-31.698563 -4.11491,-37.700884 -1.39652,-1.986973 -2.55885,-4.086973 -2.58297,-4.666667 -0.0241,-0.579694 -2.27856,-3.289674 -5.00984,-6.022177 -3.32399,-3.325463 -8.26921,-6.172308 -14.95615,-8.609884 -8.7966,-3.206612 -12.14067,-3.67623 -27.99016,-3.93075 -15.491687,-0.248774 -49.55504,-4.673999 -58.666661,-7.62148 -1.1,-0.355834 -3.649631,-1.008424 -5.665846,-1.450199 -2.375126,-0.520416 -4.900578,-2.759168 -7.172672,-6.358398 -3.149767,-4.989552 -3.431622,-6.452211 -2.768212,-14.365355 l 0.738614,-8.810184 -12.327738,0.539174 C 18.186145,30.88913 15.703689,30.569697 10.90487,28.121522 5.8603594,25.548005 5.3352646,24.808737 5.3537503,20.306234 c 0.02501,-6.091476 0.6263003,-7.053993 7.1656457,-11.4704256 4.605577,-3.110437 6.471106,-3.5016429 16.666666,-3.4950393 14.063456,0.00911 20.781899,1.7553968 25.708866,6.6823649 4.477691,4.477691 4.847976,9.515107 1.63976,22.307525 -2.02408,8.070808 -2.00721,8.640454 0.333334,11.255935 2.294869,2.564441 3.43321,2.697497 16.46531,1.924563 7.7,-0.456687 16.7,-1.799799 20,-2.984694 4.242597,-1.523344 11.272208,-2.219664 23.999998,-2.377329 23.56277,-0.291885 29.22728,0.578225 42,6.451508 8.6568,3.980659 12.35775,6.709391 19.64145,14.481776 4.93615,5.267304 9.6467,11.378566 10.4679,13.580582 0.82121,2.202016 2.01758,5.203665 2.6586,6.670332 0.64102,1.466667 1.4593,9.566667 1.81841,17.999998 0.53211,12.49636 0.19547,16.81349 -1.81945,23.33333 -6.46266,20.91171 -8.41184,32.46388 -7.83012,46.40644 0.51898,12.43907 0.93262,14.201 4.87034,20.7458 2.36676,3.93374 6.37838,9.87002 8.91471,13.19174 5.09577,6.67373 5.65985,8.96842 2.50244,10.18004 -3.43921,1.31974 -4.09444,1.02222 -8.30184,-3.76974 z m -10.92244,-81.49963 c 0,-1.93516 -0.57712,-3.05534 -1.33333,-2.58798 -0.73334,0.45323 -1.33334,1.98864 -1.33334,3.41202 0,1.42339 0.6,2.58798 1.33334,2.58798 0.73333,0 1.33333,-1.53541 1.33333,-3.41202 z m -0.42252,-15.50465 c -0.42563,-1.06364 -0.74157,-0.7477 -0.80555,0.80556 -0.0579,1.40556 0.25723,2.19306 0.7003,1.75 0.44305,-0.44306 0.49041,-1.59306 0.1052,-2.55556 z m -1.62929,-25.416661 c -1.19411,-5.56181 -3.00932,-9 -4.75162,-9 -0.79777,0 -1.00825,1.261002 -0.50072,3 2.81087,9.631242 7.07868,14.506562 5.25234,6 z M 32.390443,18.333333 c 4.036492,-1.874604 4.83642,-5.00391 1.276223,-4.992564 -4.924436,0.01569 -12.333333,2.852241 -12.333333,4.721903 0,2.428094 6.090593,2.577184 11.05711,0.270661 z M 123.16368,199.76389 c -5.22664,-0.54637 -13.62664,-1.84065 -18.66666,-2.8762 -6.516112,-1.33881 -11.282439,-1.54324 -16.497021,-0.70756 -4.033334,0.64639 -14.823513,1.7132 -23.978179,2.37071 -19.349593,1.38972 -20.838791,0.9416 -28.682795,-8.63098 l -5.121043,-6.24954 -7.539009,0.68361 c -11.401709,1.03387 -15.2280381,-2.47153 -9.237161,-8.46241 2.544269,-2.54427 2.599732,-2.96898 0.666666,-5.10499 -2.441345,-2.69765 -2.684648,-5.88527 -0.728233,-9.54085 1.908487,-3.56604 3.173805,-3.27611 9.110848,2.08765 C 25.332086,165.9 27.958814,168 28.328268,168 c 0.369452,0 1.028532,-1.784 1.464621,-3.96444 0.574317,-2.87159 1.779812,-4.21216 4.373036,-4.86302 7.22261,-1.81276 11.040418,4.95444 5.769036,10.22583 -3.419719,3.41972 -2.614812,6.12332 4.0998,13.77084 3.881822,4.42116 4.846094,4.83079 11.371641,4.83079 3.921586,0 10.60943,-0.96188 14.861877,-2.13751 4.252445,-1.17563 11.93172,-2.92785 17.065053,-3.89385 l 9.333333,-1.75635 15.999995,5.5188 c 15.44917,5.32881 16.52798,5.51051 31.33623,5.27761 17.57552,-0.27642 19.93717,0.46928 17.61655,5.56248 -1.28931,2.82974 -2.55734,3.47266 -7.25752,3.67976 -13.30359,0.58622 -22.27035,0.44622 -31.19824,-0.48705 z"
       id="path660" />
  </g>
</svg>
