<?xml version="1.0" encoding="UTF-8" standalone="no"?>
<!-- Created with Inkscape (http://www.inkscape.org/) -->

<svg
   version="1.1"
   id="svg173"
   width="205.33333"
   height="226.66667"
   viewBox="0 0 205.33333 226.66667"
   xmlns="http://www.w3.org/2000/svg"
   xmlns:svg="http://www.w3.org/2000/svg">
  <defs
     id="defs177" />
  <g
     id="g179">
    <path
       style="fill:#000000;stroke-width:1.33333"
       d="m 193.65953,219.0955 c -2.32791,-1.12744 -5.56689,-4.23515 -7.19776,-6.90603 -16.17944,-26.49723 -20.79453,-49.52397 -16.38193,-81.73675 2.76966,-20.21911 2.02318,-26.5451 -4.73974,-40.165936 C 160.82089,81.184843 152.61241,74.399378 144,72.646166 c -2.56667,-0.52249 -6.76667,-1.891513 -9.33334,-3.04227 -3.19737,-1.433534 -11.17355,-2.385879 -25.33333,-3.024767 C 85.810005,65.517757 62.84018,62.448157 55.026607,59.321785 47.611029,56.354658 45.946251,52.494979 46.262754,39.003355 l 0.262755,-11.200488 -8.929422,0.918177 C 32.684906,29.226043 28.366666,29.66882 28,29.704995 26.482274,29.854732 19.080288,27.498287 15.666666,25.77864 12.521516,24.194239 12,23.116058 12,18.198179 12,12.01141 14.977424,7.9890341 21.340906,5.579005 26.139941,3.7614758 46.953138,5.9357672 52.98967,8.8852551 c 7.015978,3.4280509 9.690017,10.9991429 7.095289,20.0891209 -3.236532,11.338381 -3.245403,14.165598 -0.05351,17.052655 2.50969,2.270002 4.723603,2.621664 15.809985,2.511291 7.090399,-0.07059 15.876692,-0.822485 19.525096,-1.670879 10.20036,-2.37197 35.8675,-2.763872 47.78189,-0.729561 12.76074,2.178815 26.88306,8.487707 31.90974,14.255092 7.83636,8.991084 14.37385,19.020481 15.78049,24.209377 3.88061,14.315048 4.08324,29.298429 0.57716,42.677779 -1.14536,4.37074 -2.10284,10.07074 -2.12772,12.66667 -0.0249,2.59592 -1.20452,7.11987 -2.62143,10.0532 -2.04494,4.23355 -2.5855,8.29684 -2.62142,19.7047 -0.0421,13.36461 0.23497,14.92644 3.95476,22.2953 2.2,4.35818 4,8.7843 4,9.83583 0,1.05153 2.0459,4.36067 4.54646,7.35364 3.06238,3.66541 4.31556,6.32483 3.83907,8.14693 -1.00223,3.83254 -1.93897,4.07752 -6.726,1.7591 z m -11.50199,-96.04907 c -1.86934,-1.86934 -3.44882,3.02299 -3.32112,10.28691 l 0.12894,7.33333 2.08069,-8.32552 c 1.14437,-4.57903 1.64455,-8.76165 1.11149,-9.29472 z m 0.50912,-15.78934 c 0,-6.27526 -0.68857,-14.225261 -1.53016,-17.666662 -2.59198,-10.5991 -14.59344,-24.893619 -24.29934,-28.942115 -10.0351,-4.185807 -27.58065,-7.116406 -37.50383,-6.264186 -9.13408,0.784451 -9.21947,0.825824 -4,1.937972 2.93333,0.625026 7.13333,1.419874 9.33333,1.76633 18.56535,2.923671 23.48347,4.085555 29.12028,6.879548 3.5495,1.759368 9.12952,5.665411 12.40007,8.680095 9.56795,8.819425 16.24159,26.804428 14.42969,38.887038 -0.62474,4.16611 -0.44357,6.13156 0.56524,6.13156 0.97507,0 1.48472,-3.91649 1.48472,-11.40958 z M 44.020255,16.654148 c 1.020364,-0.63062 0.985603,-1.442162 -0.118773,-2.772852 -1.805637,-2.175662 -13.958688,-2.612781 -15.234816,-0.547962 -0.453225,0.733333 -2.288634,1.333333 -4.078689,1.333333 -3.248599,0 -4.146076,1.297496 -2.254644,3.259571 1.131255,1.173506 19.470418,0.09779 21.686922,-1.27209 z M 120.94396,199.81572 c -2.55076,-1.34764 -31.921233,-5.16616 -35.610628,-4.62981 -21.551181,3.13299 -27.099774,3.60191 -33.79101,2.85571 -11.501053,-1.28258 -13.766843,-2.5621 -17.852759,-10.08172 L 30,181.16971 l -9.644371,0.86015 c -9.526363,0.84962 -9.664392,0.81621 -11.280571,-2.73091 -1.3952639,-3.06228 -1.300378,-3.83663 0.6443712,-5.25867 2.4288758,-1.77604 2.9907708,-6.8549 1.0902438,-9.85454 -1.6561013,-2.61386 -0.261934,-6.63496 2.617257,-7.54878 3.545858,-1.12541 7.278802,1.29559 9.21863,5.97875 2.166268,5.22984 4.651092,5.15832 6.181502,-0.17791 1.594547,-5.55985 7.429668,-7.82541 11.250089,-4.36797 3.287299,2.97496 3.268548,4.90236 -0.07715,7.93017 -1.466667,1.32732 -2.664424,3.67031 -2.661683,5.20666 0.0057,3.19594 4.61814,11.28188 7.830457,13.72736 3.386074,2.57776 19.721253,2.03604 28.164553,-0.93402 4.471567,-1.57294 10.958187,-2.5966 16.622089,-2.62313 9.082339,-0.0425 11.875963,0.66192 29.605323,7.46577 6.67541,2.56176 10.74198,3.15736 21.55762,3.15736 7.33161,0 14.27928,0.36419 15.43925,0.80932 2.83817,1.08911 2.65812,3.61382 -0.45888,6.43467 -2.19943,1.99045 -4.79059,2.25928 -18.05604,1.87332 -8.51845,-0.24785 -16.21288,-0.83356 -17.09873,-1.30159 z"
       id="path958" />
  </g>
</svg>
