<?xml version="1.0" encoding="UTF-8" standalone="no"?>
<!-- Created with Inkscape (http://www.inkscape.org/) -->

<svg
   version="1.1"
   id="svg175"
   width="217.33333"
   height="170.66667"
   viewBox="0 0 217.33333 170.66667"
   xmlns="http://www.w3.org/2000/svg"
   xmlns:svg="http://www.w3.org/2000/svg">
  <defs
     id="defs179" />
  <g
     id="g181">
    <path
       style="fill:#000000;stroke-width:1.33333"
       d="m 52.333333,164.36908 c -2.26754,-0.41916 -3,-1.46902 -3,-4.30005 0,-4.84775 4.036701,-6.55131 17.333333,-7.31495 16.972821,-0.97477 19.783423,-2.55626 24.85027,-13.98298 2.812361,-6.34241 3.013731,-7.81398 1.642088,-12 -2.661539,-8.12255 -5.03364,-10.48912 -16.95418,-16.91461 -6.345998,-3.42066 -13.448145,-7.63773 -15.782549,-9.37127 -2.334404,-1.733537 -4.863527,-3.151885 -5.620272,-3.151885 -2.468274,0 -10.07306,-7.628056 -12.802024,-12.841197 -1.466666,-2.801775 -3.769256,-6.211275 -5.116865,-7.576667 -3.318045,-3.361834 -6.216468,-10.61615 -6.216468,-15.558892 0,-5.921247 7.209051,-13.247653 13.333333,-13.550383 6.400819,-0.3164 15.888383,1.44397 20.495309,3.802804 7.14438,3.658057 16.838024,-0.799247 16.838024,-7.742415 0,-3.984738 -3.116805,-4.928515 -21.333333,-6.459791 C 9.6491668,33.174315 3.9999999,31.964707 3.9999999,25.415988 c 0,-8.110565 9.1972261,-12.876804 13.0239021,-6.749321 2.713503,4.345008 10.369675,3.597859 15.107818,-1.47434 2.127554,-2.277555 3.868279,-4.652262 3.868279,-5.277129 0,-0.624866 2.626416,-2.675303 5.836479,-4.5565256 5.145672,-3.0155642 6.763264,-3.3166203 13.666666,-2.543555 4.306604,0.4822672 9.330188,1.7566753 11.163522,2.8320178 3.992621,2.3418742 9.333333,10.2028368 9.333333,13.7376808 0,1.613743 2.667462,4.239597 7.348925,7.234293 7.802045,4.990908 11.827441,10.252278 14.046259,18.359081 2.005715,7.328203 -0.815362,11.976174 -8.982562,14.799554 l -6.412622,2.216827 15.333333,-0.781819 c 10.414178,-0.531 16.616588,-0.274892 19.333328,0.798308 2.2,0.869071 7,2.062615 10.66667,2.652321 8.22004,1.322023 25.88457,7.583102 28.87732,10.235381 5.14672,4.561205 31.80036,13.775782 45.39855,15.69498 8.06552,1.138338 13.0031,4.903415 10.91456,8.322728 -0.81194,1.32928 -2.61194,2.6251 -4,2.87962 -4.71179,0.86395 -5.03202,2.6605 -1.4067,7.89184 4.0434,5.83463 4.42524,8.59216 1.5233,11.00058 -1.64256,1.3632 -3.72582,1.24289 -11,-0.63526 -21.35594,-5.51397 -26.35436,-6.2732 -36.30703,-5.51483 -13.70897,1.04458 -16,1.82551 -16,5.45383 0,1.65801 0.93956,3.79433 2.08792,4.74738 3.06035,2.53987 6.21627,9.21117 5.38373,11.38072 -0.87284,2.27457 -6.33545,2.48252 -8.49461,0.32336 -1.18616,-1.18616 -1.75103,-0.94833 -2.37513,1 -0.45038,1.40596 -1.37004,3.93452 -2.04371,5.61903 -1.83643,4.59192 -1.50391,6.72445 1.4418,9.24664 C 142.8,155.56518 144,158.2289 144,160.22876 v 3.63611 l -17,-0.64005 c -9.35,-0.35203 -18.98277,-1.35402 -21.40616,-2.22662 -3.65286,-1.31532 -4.61371,-1.25133 -5.620138,0.37428 -0.680785,1.09963 -3.430459,2.04184 -6.260505,2.14524 -2.775593,0.10147 -12.546532,0.45923 -21.713198,0.79515 -9.166667,0.33592 -18.016666,0.36121 -19.666666,0.0563 z M 113.7491,150.50271 c 11.61905,0.37271 13.70764,-0.35929 15.47279,-5.42281 2.35215,-6.7474 1.73039,-9.93584 -2.65753,-13.62804 -5.47209,-4.60446 -8.69216,-4.47955 -9.66304,0.37485 -0.83188,4.15941 -4.47068,5.93313 -8.05584,3.92679 -3.08099,-1.72422 -4.68053,-0.3594 -7.62249,6.50393 -3.483538,8.12676 -3.374481,10.33989 0.44368,9.00376 1.65,-0.5774 7.08709,-0.91872 12.08243,-0.75848 z m 18.20399,-33.92368 c -0.90379,-1.68876 -1.3246,-4.28903 -0.93513,-5.77837 0.50014,-1.91254 -0.0736,-2.956 -1.95327,-3.55259 -3.25291,-1.03243 -15.35294,0.63179 -13.57725,1.8674 0.69913,0.48649 2.64257,2.68453 4.31874,4.88453 1.67617,2.2 5.25549,5.26293 7.95404,6.80652 4.09156,2.3404 4.98365,2.47737 5.37129,0.82475 0.25567,-1.08997 -0.27462,-3.36348 -1.17842,-5.05224 z m 53.01913,-10.71792 c -0.44306,-0.44305 -1.59306,-0.49042 -2.55556,-0.10526 -1.06364,0.42563 -0.7477,0.74157 0.80556,0.80555 1.40555,0.0579 2.19306,-0.25724 1.75,-0.70029 z M 73.959816,93.000002 c -1.516792,-7.154194 -1.337372,-7.950556 2.935255,-13.028286 l 3.561738,-4.232885 -9.228405,0.900306 c -11.431325,1.115221 -17.895071,3.030426 -17.895071,5.302302 0,0.954048 3.163409,4.437217 7.029797,7.740376 6.165492,5.267346 9.067122,6.889563 13.409476,7.496852 0.608268,0.08507 0.692512,-1.795332 0.18721,-4.178665 z m 76.023884,2.938691 c 6.59103,-0.755019 12.48726,-1.876323 13.10272,-2.491787 1.36064,-1.360638 -5.14504,-6.120258 -9.75309,-7.135458 -1.83333,-0.403901 -7.10424,-2.321501 -11.71312,-4.261334 -9.25487,-3.895286 -26.92137,-7.50005 -40.28688,-8.220346 l -8.666665,-0.467067 4.333334,2.227219 c 3.002511,1.543212 4.333331,3.176636 4.333331,5.318651 0,3.236429 -0.65357,3.506561 -7.577751,3.132023 -4.405955,-0.238323 -9.75558,1.877604 -9.75558,3.858608 0,0.62629 1.13706,2.542918 2.5268,4.259174 1.927682,2.380589 4.37777,3.317554 10.333333,3.951685 12.936388,1.37743 40.375838,1.288916 53.123568,-0.171368 z M 62.333332,67.15962 c 3.999032,-1.071699 3.774434,-2.04258 -1.116482,-4.826285 -5.158343,-2.935914 -10.378117,-2.999833 -11.475337,-0.140523 -1.623527,4.230843 5.238306,6.937473 12.591819,4.966808 z M 61.925635,24.120323 c 1.150625,-1.861751 -0.65068,-5.453656 -2.734955,-5.453656 -1.092282,0 -1.857348,1.373043 -1.857348,3.333333 0,3.275224 3.017484,4.668434 4.592303,2.120323 z"
       id="path799" />
  </g>
</svg>
