<?xml version="1.0" encoding="UTF-8" standalone="no"?>
<!-- Created with Inkscape (http://www.inkscape.org/) -->

<svg
   version="1.1"
   id="svg165"
   width="228"
   height="210.66667"
   viewBox="0 0 228 210.66667"
   xmlns="http://www.w3.org/2000/svg"
   xmlns:svg="http://www.w3.org/2000/svg">
  <defs
     id="defs169" />
  <g
     id="g171">
    <path
       style="fill:#000000;stroke-width:1.33333"
       d="m 107.81438,202.78663 c -3.05924,-2.47512 -3.16023,-3.20955 -3.59314,-26.12808 -0.42831,-22.67489 -0.33422,-23.69975 2.44777,-26.66104 4.27788,-4.5536 7.78395,-4.99909 11.34191,-1.44113 2.50378,2.50377 3.22242,5.11694 4.01116,14.58569 1.41342,16.96796 -0.30291,36.47209 -3.48993,39.65912 -3.2202,3.2202 -6.72552,3.21544 -10.71777,-0.0145 z M 9.7402511,202.65234 c -3.8920576,-1.56755 -4.5426234,-6.0299 -4.0908226,-28.05964 0.408869,-19.93642 1.885412,-24.42252 8.5923955,-26.10587 2.751552,-0.69059 4.10018,-0.1988 6.046629,2.20496 2.226708,2.74987 2.482654,5.32905 2.302344,23.201 -0.25147,24.92536 -0.542182,26.6866 -4.719021,28.58969 -3.836561,1.74806 -4.194461,1.75554 -8.1315249,0.16986 z M 207.77087,198.61818 c -3.18146,-1.85642 -4.10378,-7.60506 -4.35534,-27.14572 -0.19862,-15.42836 0.0641,-17.6193 2.55796,-21.33334 3.2848,-4.89193 8.52243,-6.03469 11.62131,-2.53556 1.67321,1.88932 2.32404,7.22602 3.07553,25.2192 l 0.95323,22.82275 -3.10845,2.17725 c -3.48826,2.44326 -7.42126,2.73443 -10.74424,0.79542 z M 53.210549,137.2435 c -1.032469,-0.64578 -6.120001,-1.13507 -11.305628,-1.08732 -8.030609,0.074 -10.18317,-0.42536 -14.519394,-3.36801 -2.800042,-1.90016 -5.457258,-3.45893 -5.904923,-3.46395 -0.447665,-0.005 -2.305609,-2.19889 -4.128765,-4.8753 -2.493898,-3.66105 -3.529898,-7.37361 -4.183254,-14.99089 C 12.380963,100.27541 12.611311,98.752778 15.64418,93.093957 19.657865,85.605104 27.256823,79.175935 33.466595,78.015137 35.959968,77.549049 45.5,76.692939 54.666667,76.112671 L 71.333333,75.057637 50,74.67228 C 21.592803,74.159143 20.056463,73.982389 16.943251,70.869177 14.763663,68.68959 14.302581,66.610749 14.479389,59.760569 c 0.12672,-4.909448 1.148807,-10.191863 2.448527,-12.654588 2.19792,-4.164648 2.410308,-4.238979 14.318216,-5.011 6.64796,-0.431006 24.304416,-1.04591 39.236567,-1.366456 14.93215,-0.320546 27.479614,-0.91306 27.883254,-1.316699 0.403639,-0.403639 0.03643,-2.264656 -0.816032,-4.135595 -3.18647,-6.993539 -1.990562,-11.297415 6.097219,-21.942897 5.1867,-6.826959 8.78073,-9.218229 13.95679,-9.2860867 6.14569,-0.080569 10.06166,2.6880624 14.79996,10.4637117 5.96659,9.791313 6.85519,13.809191 4.19275,18.957788 -1.16963,2.26182 -1.82043,4.418583 -1.4462,4.792806 1.76051,1.760506 23.91592,3.09324 46.84956,2.818181 13.93333,-0.167112 26.62791,0.144425 28.21016,0.692303 3.61281,1.250988 4.25897,2.969572 5.29083,14.071865 0.76213,8.200363 0.5585,9.271558 -2.42091,12.735344 -3.1794,3.69626 -3.62845,3.796602 -19.83323,4.431655 -18.73478,0.734202 -26.35741,2.872988 -10.58018,2.968631 23.4226,0.141988 37.95333,12.283612 37.66237,31.470018 -0.132,8.70843 -4.07253,20.14296 -8.119,23.55981 -1.21552,1.02638 -5.51004,3.01916 -9.54337,4.4284 -6.49246,2.26844 -11.30843,2.56726 -42,2.60595 -19.06667,0.024 -37.66667,-0.41315 -41.33334,-0.97152 -3.66666,-0.55837 -12.96666,-0.49528 -20.666663,0.14021 -8.913415,0.73564 -18.238395,0.64734 -25.665492,-0.24304 -8.229619,-0.98657 -12.5856,-0.97924 -14.789451,0.0249 -1.865633,0.85002 -3.880099,0.95042 -5.001175,0.24922 z m 63.456121,-10.04865 c 6.6,-0.15048 24.79042,-0.33088 40.42318,-0.40089 l 28.42319,-0.12729 -0.93145,-3 c -0.5123,-1.65 -2.04144,-4.57678 -3.39811,-6.50395 l -2.46667,-3.50394 -48.43112,-2.4e-4 c -26.63711,-1.4e-4 -54.476522,-0.43294 -61.865347,-0.96179 -14.259335,-1.02059 -19.050012,0.0688 -19.129414,4.35016 -0.02332,1.25754 -0.923322,3.4511 -2,4.8746 -1.076678,1.42349 -1.957596,3.76831 -1.957596,5.2107 0,2.56349 0.667864,2.59679 29.666667,1.47938 16.316667,-0.62873 35.06667,-1.26626 41.66667,-1.41674 z m -79.508903,-4.35261 c 1.503513,-1.50352 2.862353,-5.46252 3.427554,-9.98623 0.97454,-7.79996 0.546782,-10.5484 -2.791341,-17.934922 -2.66686,-5.901164 -7.753864,-5.5043 -12.084245,0.942758 -8.569528,12.758284 1.630585,36.795834 11.448032,26.978394 z m 167.326263,-3.39377 c 3.53428,-2.89076 3.81348,-3.79589 3.76497,-12.2055 -0.0456,-7.898552 -0.45649,-9.394075 -3.15071,-11.466772 -8.92994,-6.86995 -14.81877,0.846992 -11.78778,15.447182 1.40304,6.75839 4.0988,11.52002 6.4514,11.39534 0.49761,-0.0264 2.62257,-1.45299 4.72212,-3.17025 z m -28.80494,-17.64699 c 4.48358,-0.79399 5.21962,-2.085657 5.96515,-10.468145 l 0.35576,-4 -22.66667,-0.321356 C 117.57713,86.419983 83.533355,86.277035 74,86.653669 c -2.2,0.08692 -9.25,0.12392 -15.666667,0.08224 -11.155576,-0.07247 -13.014893,0.513695 -10.565173,3.330762 0.605821,0.696666 1.898773,3.807325 2.873228,6.912573 l 1.771735,5.645906 59.460107,-0.027 c 32.70305,-0.0149 61.41569,-0.37335 63.80586,-0.79662 z M 80.972223,75.194445 c -0.443056,-0.443054 -1.593056,-0.490424 -2.555556,-0.105266 -1.063644,0.425634 -0.747702,0.741577 0.805556,0.805556 1.405554,0.05789 2.193054,-0.257238 1.75,-0.700294 z m 24.361107,-0.527777 c 0,-1.568691 -15.101758,-1.568691 -19.999997,0 -2.254225,0.721929 0.443544,1.110547 8.333334,1.200427 6.977493,0.07949 11.666663,-0.402999 11.666663,-1.200427 z M 116,75.412024 c 0,-1.4073 -2.55882,-1.998548 -3.31989,-0.767105 -0.46062,0.745296 0.0979,1.355082 1.2412,1.355082 1.14328,0 2.07869,-0.264589 2.07869,-0.587977 z m 40,-0.745356 c 0,-0.739269 -3.52932,-1.333334 -7.92131,-1.333334 -4.35672,0 -8.29213,0.600001 -8.74536,1.333334 -0.51737,0.837124 2.4306,1.333333 7.92131,1.333333 4.94135,0 8.74536,-0.579966 8.74536,-1.333333 z m 13.33333,0 c 0,-0.733333 -0.9,-1.333334 -2,-1.333334 -1.1,0 -2,0.600001 -2,1.333334 0,0.733333 0.9,1.333333 2,1.333333 1.1,0 2,-0.6 2,-1.333333 z M 98.666667,60.716594 c 9.900003,-0.111466 36.450003,-0.40361 59.000003,-0.649201 22.55,-0.245591 41,-0.897031 41,-1.447643 0,-0.550612 -0.9786,-1.376637 -2.17467,-1.83561 -6.61973,-2.540232 -134.056304,-3.516183 -162.158667,-1.241863 -7.366209,0.596145 -9,1.147548 -9,3.037491 0,1.270017 0.45,2.767666 1,3.328109 0.55,0.560443 13,0.567277 27.666667,0.01519 14.666667,-0.552091 34.766667,-1.095003 44.666667,-1.206471 z m 20.927663,-22.38326 c 2.0965,-2.786009 4.1994,-11.500763 3.45868,-14.33329 -0.98477,-3.765784 -4.95827,-3.309434 -9.93981,1.141572 -4.06313,3.630404 -4.1805,4.005546 -2.51286,8.031597 2.44421,5.900841 6.6296,8.302126 8.99399,5.160121 z"
       id="path938" />
  </g>
</svg>
