<?xml version="1.0" encoding="UTF-8" standalone="no"?>
<!-- Created with Inkscape (http://www.inkscape.org/) -->

<svg
   version="1.1"
   id="svg75"
   width="220"
   height="220"
   viewBox="0 0 220 220"
   xmlns="http://www.w3.org/2000/svg"
   xmlns:svg="http://www.w3.org/2000/svg">
  <defs
     id="defs79" />
  <g
     id="g81">
    <path
       style="fill:#000000;stroke-width:1.33333"
       d="m 44,213.75557 c -8.708984,-1.4316 -26.442067,-13.06042 -31.623362,-20.73764 -5.2217587,-7.73718 -7.3296613,-16.0436 -6.5179259,-25.6846 0.3704634,-4.4 0.7038063,-8.42912 0.7407622,-8.9536 0.1654918,-2.34869 8.9876047,-10.79782 13.9409527,-13.35157 6.35196,-3.27481 19.301672,-3.85499 25.816101,-1.15663 2.263755,0.93768 5.789772,4.12024 7.835593,7.07236 2.973204,4.29034 3.728526,6.87482 3.763778,12.87847 0.07721,13.15015 -3.843858,17.95135 -16.967404,20.77591 -6.989078,1.50425 -19.655162,-7.52931 -19.655162,-14.01823 0,-9.04757 7.098739,-17.93627 13.589579,-17.01621 4.180721,0.59261 4.657527,5.30821 1.032491,10.21133 -3.629514,4.90919 -2.994439,8.46188 1.814981,10.15327 2.808369,0.98764 4.638443,0.81709 7.32038,-0.68223 5.083989,-2.84217 5.785649,-12.63689 1.280465,-17.87448 -2.754292,-3.20205 -4.100678,-3.62331 -12.205337,-3.81873 -8.867952,-0.21383 -9.211953,-0.0972 -12.971051,4.39665 -2.123829,2.53896 -3.861508,5.39711 -3.861508,6.35141 0,0.95432 -0.698516,2.85363 -1.552256,4.2207 -3.033645,4.85762 1.102828,14.41154 10.161844,23.47056 6.849328,6.84932 9.56079,8.56722 17.454022,11.05837 C 48.536672,202.67281 53.453865,204 54.32404,204 c 2.329548,0 4.61768,5.03291 3.659975,8.05036 -0.837387,2.63837 -5.125943,3.16132 -13.984015,1.70521 z m 82.79511,-7.00952 c -4.40341,-2.72146 -3.91087,-16.0975 0.83005,-22.54158 1.43151,-1.94579 3.04731,-5.3378 3.59066,-7.5378 1.05648,-4.27764 12.0895,-15.44074 18.78418,-19.00563 2.33863,-1.24531 8.43035,-2.35239 14.66667,-2.66544 9.85314,-0.49463 11.46336,-0.18483 21.11269,4.06195 7.97383,3.50937 11.65375,6.05893 15.54917,10.77293 7.65883,9.26823 11.26512,17.60503 11.30447,26.13289 0.0497,10.78383 0.2916,10.72416 -45.74708,11.28599 -21.18376,0.25851 -39.22463,0.032 -40.09081,-0.50331 z m 28.53822,-12.14825 c 6.68736,-0.96684 12.09534,-0.90401 19.07594,0.22159 7.56552,1.21993 11.36432,1.20805 17,-0.0532 8.3511,-1.8689 8.99746,-3.57794 4.43462,-11.72567 -7.65145,-13.66295 -13.59976,-17.70719 -26.04396,-17.70719 -6.59536,0 -8.88786,0.7542 -16.77145,5.51752 -9.75028,5.89122 -11.44231,7.95111 -13.77308,16.76752 -2.32448,8.79264 -0.86021,9.42828 16.07793,6.97943 z M 58.311047,143.19993 c -1.664762,-1.66476 -1.077791,-6.79036 0.972476,-8.49193 1.072604,-0.89017 5.60165,-1.94961 10.064549,-2.35429 7.198967,-0.65278 8.332701,-1.15801 10.049811,-4.47854 2.866326,-5.54286 2.530936,-6.52998 -4.495855,-13.23212 -5.073785,-4.83936 -8.789715,-6.91363 -17.604365,-9.8269 -6.145183,-2.031 -14.519071,-6.039827 -18.608639,-8.908497 -7.156589,-5.020061 -9.425899,-8.242024 -16.109591,-22.872377 -0.993392,-2.1745 -3.401072,-4.206343 -6.001289,-5.064491 -4.384822,-1.447122 -5.911477,-3.502894 -5.911477,-7.960313 0,-3.034345 15.753434,-13.255077 21.99032,-14.267185 5.136276,-0.833503 12.093986,1.216942 18.277426,5.386378 2.419407,1.631382 8.29802,4.381187 13.063587,6.110678 4.765567,1.72949 10.765567,4.464165 13.333333,6.077056 C 83.848432,67.410981 101.18115,76 102.92494,76 c 0.79471,0 6.61171,2.48546 12.92666,5.523245 7.40557,3.562422 15.74189,6.324368 23.48173,7.779844 12.67286,2.383128 42.717,3.446926 45.20068,1.600458 2.71939,-2.0217 12.25143,-4.494394 15.53759,-4.03058 2.83193,0.399704 3.24169,1.119221 3.10965,5.460366 -0.122,4.010606 0.33044,5 2.28642,5 1.34118,0 3.08181,1.202012 3.86805,2.671137 1.21621,2.27251 0.62627,3.45853 -3.95308,7.9472 -6.20099,6.07821 -6.73596,9.6022 -2.53783,16.71751 2.3386,3.96361 2.58095,5.40075 1.36192,8.07621 C 203.39115,134.53543 202.1534,136 201.4562,136 c -0.6972,0 -4.76005,-2.26616 -9.02859,-5.03591 -4.26852,-2.76974 -9.26094,-5.72629 -11.09428,-6.5701 -4.2154,-1.94018 -19.80336,-4.45487 -35.33333,-5.70008 -6.6,-0.52919 -14.30454,-1.69507 -17.12121,-2.59084 -2.81666,-0.89578 -5.88259,-1.33651 -6.81316,-0.97942 -1.3639,0.52338 -3.532,9.35641 -3.97872,16.20968 -0.0505,0.77483 5.99799,1.61259 14.43966,2 11.91836,0.54698 14.78991,1.08562 15.99319,3 1.01953,1.62206 1.04677,2.99891 0.0893,4.51671 -1.21784,1.93067 -6.46625,2.24957 -45.3488,2.75548 -24.184363,0.31468 -44.411541,0.13213 -44.949283,-0.40559 z M 104.7947,132.31292 c 3.05339,-2.04675 3.26988,-7.8712 0.4269,-11.48545 C 102.21186,117.0012 100,116.30025 100,119.17272 c 0,1.01166 -2.837649,4.16166 -6.305887,7 l -6.305885,5.16061 4.639219,0.82448 c 6.810236,1.21031 11.115053,1.2626 12.767253,0.15511 z M 190.41383,111 190,106 178,104.97848 c -11.37933,-0.96868 -31.84061,-0.29282 -37.09203,1.22521 -2.26973,0.65611 -2.27949,0.80774 -0.15216,2.36328 1.5608,1.14129 6.47415,1.52886 15.67848,1.23671 10.64072,-0.33774 13.87351,-0.002 15.67558,1.62908 2.80214,2.53591 8.47321,4.30124 14.30396,4.45264 4.30205,0.1117 4.40333,-0.012 4,-4.8854 z M 132,105.47788 c 0,-1.7516 -5.58458,-2.84685 -9.37353,-1.83834 l -3.29314,0.87654 3.33334,0.94239 c 4.86577,1.37563 9.33333,1.38492 9.33333,0.0194 z m -15,-8.984928 c 6.35807,-1.703896 2.10309,-5.759836 -6.0931,-5.808079 -1.7012,-0.01 -5.6012,-1.677274 -8.66667,-3.705024 -4.83519,-3.198397 -10.524107,-6.144537 -28.01495,-14.508209 -5.345203,-2.555939 -8.315968,-2.271112 -16.450711,1.577239 -5.954078,2.816729 -6.943662,3.766649 -5.918821,5.681584 4.057544,7.581589 18.619172,12.400721 44.602196,14.760977 7.951866,0.722336 14.801866,1.657263 15.222226,2.077615 0.94409,0.944098 1.54504,0.935501 5.31983,-0.07611 z M 40.326741,80.264733 c -0.57843,-6.019842 -0.325245,-6.656466 4.242119,-10.666666 3.220407,-2.827554 6.301925,-4.292074 9.144201,-4.345862 4.164627,-0.07881 4.08409,-0.183318 -2.822765,-3.66281 l -7.109704,-3.581683 -2.668171,3.662811 c -1.682444,2.309624 -3.901849,3.66281 -6.007493,3.66281 -3.184983,0 -3.296523,0.261907 -2.413305,5.666667 0.917192,5.612667 5.639261,15.666667 7.358174,15.666667 0.49065,0 0.615275,-2.88087 0.276944,-6.401934 z M 97.380245,38.754321 C 96.621111,37.335865 96,34.921015 96,33.387988 96,31.663348 94.765133,30.131169 92.761057,29.369221 90.882192,28.654877 73.064829,28.447764 50.330067,28.875992 14.825231,29.544756 10.927684,29.403875 8.902342,27.378532 6.2138445,24.690035 6.0462868,22.174723 8.4242243,20.201209 9.5648189,19.2546 24.63296,18.466801 51.349211,17.956989 c 22.642085,-0.432068 41.634878,-1.074478 42.206209,-1.42758 0.571329,-0.3531 1.668468,-2.980482 2.438087,-5.838627 2.405208,-8.9322597 9.198553,-8.3578913 11.542273,0.975885 1.10107,4.384941 3.8434,3.667976 6.37485,-1.666667 1.21797,-2.5666667 2.96633,-4.6666667 3.88526,-4.6666667 2.3863,0 4.87078,2.8078598 4.87078,5.5047617 0,1.267619 0.94285,3.24762 2.09524,4.4 1.81273,1.812736 7.55266,2.095238 42.57142,2.095238 35.01876,0 40.7587,0.282503 42.57143,2.095239 2.71607,2.716069 2.66935,6.43514 -0.10987,8.741501 -1.77786,1.475402 -10.08856,1.781764 -42.89673,1.581328 -34.24455,-0.209212 -41.31609,0.07429 -44.63272,1.789392 -3.74222,1.935179 -6.98805,1.909843 -11.70468,-0.09136 -1.55736,-0.660769 -2.73879,0.510076 -4.53583,4.495206 -2.66866,5.918029 -6.342201,7.111994 -8.644725,2.809686 z"
       id="path1077" />
  </g>
</svg>
