<?xml version="1.0" encoding="UTF-8" standalone="no"?>
<!-- Created with Inkscape (http://www.inkscape.org/) -->

<svg
   version="1.1"
   id="svg205"
   width="216"
   height="68"
   viewBox="0 0 216 68"
   xmlns="http://www.w3.org/2000/svg"
   xmlns:svg="http://www.w3.org/2000/svg">
  <defs
     id="defs209" />
  <g
     id="g211">
    <path
       style="fill:#000000;stroke-width:1.33333"
       d="M 6.6542536,58.643473 C 4.1409213,53.947268 7.2751948,49.516953 14.472819,47.591883 21.217803,45.787875 24,41.314997 24,32.275244 24,26.155155 20.91344,22.759092 11.813554,18.866812 3.8363147,15.45472 3.1262269,14.085895 7.2132485,9.9988727 L 10.570061,6.6420599 45.618364,6.7869491 c 19.276567,0.079689 63.795266,-0.4902594 98.930436,-1.2665519 35.13517,-0.7762925 64.38517,-1.100546 65,-0.7205631 1.96013,1.2114248 1.20116,6.7145299 -1.21547,8.8131339 -1.28333,1.114448 -4.63686,2.378407 -7.4523,2.808796 -7.2756,1.112207 -8.8822,2.936291 -8.87359,10.074829 0.0159,13.213982 3.43192,18.787208 11.57157,18.879144 7.31451,0.08261 10.60087,5.63804 6.51912,11.020232 -1.63465,2.155459 -5.07682,2.463923 -34.29092,3.072916 C 147.82079,60.052287 99.15514,60.17544 42.666667,59.805812 34.233333,59.750629 23.038996,60.136309 17.790363,60.662879 8.7945311,61.565387 8.1560505,61.449605 6.6542536,58.643473 Z M 155.33333,47.472099 c 5.86667,-0.313448 13.88231,-0.622898 17.81255,-0.687668 l 7.14587,-0.117764 -0.91347,-5 c -0.5024,-2.75 -1.01805,-9.191246 -1.14587,-14.31388 L 178,18.038908 115.33333,18.322955 c -34.466663,0.156225 -66.479685,0.29747 -71.140043,0.313878 l -8.473382,0.02983 0.799483,5.666666 c 2.218263,15.722858 2.391556,19.358316 0.964795,20.240103 -3.599323,2.224508 -0.720699,3.3456 9.515817,3.705979 14.588815,0.513601 94.79771,-0.08412 108.33333,-0.807312 z M 53.361711,37.736472 c -1.944043,-1.361661 -2.717398,-3.116597 -2.437834,-5.532063 l 0.409456,-3.537742 55.012677,-0.373463 c 37.06674,-0.251633 55.87844,0.08988 57.66667,1.046912 2.78303,1.489436 3.65776,7.215473 1.32271,8.658612 -0.7322,0.452524 -25.58518,1.027363 -55.22883,1.277417 -46.194527,0.389668 -54.304493,0.169618 -56.744849,-1.539673 z"
       id="path233" />
  </g>
</svg>
