<?xml version="1.0" encoding="UTF-8" standalone="no"?>
<!-- Created with Inkscape (http://www.inkscape.org/) -->

<svg
   version="1.1"
   id="svg195"
   width="216"
   height="213.33333"
   viewBox="0 0 216 213.33333"
   xmlns="http://www.w3.org/2000/svg"
   xmlns:svg="http://www.w3.org/2000/svg">
  <defs
     id="defs199" />
  <g
     id="g201">
    <path
       style="fill:#000000;stroke-width:1.33333"
       d="M 37.333333,205.85402 C 33.3,204.75993 28.5,203.49885 26.666667,203.05162 21.185345,201.7145 16.285545,197.29085 10.571392,188.52042 6.0075179,181.51553 5.2333627,179.3309 5.5844253,174.44748 c 0.4128774,-5.7433 0.451313,-5.78343 5.9216377,-6.18296 4.820476,-0.35208 6.314656,0.29314 12,5.18193 3.571665,3.07124 7.012189,6.47089 7.645609,7.55477 1.005812,1.72112 11.22236,1.84791 80.666668,1.0011 43.73325,-0.5333 79.94535,-1.22526 80.47134,-1.53768 0.526,-0.31244 4.06512,-0.15568 7.86472,0.34836 9.86661,1.30885 12.31451,4.18121 11.53847,13.53928 -0.39298,4.73874 -1.39363,7.95216 -2.7955,8.97722 -2.69726,1.9723 -40.52454,3.32528 -112.230703,4.0142 -43.084798,0.41395 -53.257272,0.15855 -59.333334,-1.48968 z m 61.333334,-11.18736 c 0,-1.51754 -21.875692,-1.5507 -48.666667,-0.0737 -15.787887,0.87036 -14.391041,0.97569 15.666667,1.18133 21.261626,0.14543 33,-0.24854 33,-1.1076 z m 8.557613,0.52402 C 110.91751,193.77345 109.49592,192 104.66667,192 101.40741,192 100,192.60317 100,194 c 0,2.0531 3.4815,2.62692 7.22428,1.19068 z M 117.33333,194 c 0,-1.24444 -1.25926,-2 -3.33333,-2 -2.07407,0 -3.33333,0.75556 -3.33333,2 0,1.24444 1.25926,2 3.33333,2 2.07407,0 3.33333,-0.75556 3.33333,-2 z m 74.33334,0.68941 c 3.11909,0.0551 5.66666,-0.52692 5.66666,-1.29464 0,-1.50996 -70.03566,-2.06487 -73.89095,-0.58545 -5.89822,2.26336 0.69541,2.76385 30.22429,2.29421 17.78333,-0.28284 34.88333,-0.46919 38,-0.41412 z m -38.33334,-62.35655 c -10.60989,-0.97457 -12.41304,-2.98766 -19.30134,-21.54867 -1.20071,-3.23537 -3.0491,-7.11887 -4.10754,-8.63001 C 128.866,100.64304 128,98.474826 128,97.335934 c 0,-1.138893 -2.94309,-7.868545 -6.54019,-14.954783 -8.896,-17.524967 -8.71802,-17.752457 13.77196,-17.603203 19.08186,0.126636 17.84258,1.198898 14.76823,-12.777949 -1.04848,-4.766666 -1.9274,-10.724068 -1.95316,-13.238669 -0.0881,-8.607 5.86952,-22.547374 12.97272,-30.3547841 4.02507,-4.424112 4.52715,-4.6247904 6.66667,-2.6646152 3.14616,2.8824384 7.52921,11.9659333 10.34217,21.4332623 2.31264,7.783413 2.26143,16.491385 -0.19159,32.574917 l -0.87698,5.75011 14.67494,-0.928586 c 13.85551,-0.876735 14.83382,-0.769716 17.52008,1.916556 3.77939,3.779388 3.64,4.945462 -1.82152,15.237105 -2.56666,4.83661 -4.66666,10.138361 -4.66666,11.781669 0,1.643307 -1.13208,4.226502 -2.51575,5.740433 -2.51889,2.756053 -6.81235,13.799573 -9.4848,24.396593 -0.78285,3.10419 -2.45299,6.17461 -3.7114,6.82313 -2.46032,1.26792 -25.94305,2.57104 -33.62139,1.86574 z m 23.23056,-10.47792 c 1.16344,-0.44645 3.0873,-2.99645 4.27526,-5.66667 1.18794,-2.67022 3.88513,-8.56713 5.99372,-13.10426 2.10858,-4.537125 3.8338,-8.774833 3.8338,-9.417127 0,-0.642295 1.51632,-4.31099 3.3696,-8.152654 1.85328,-3.841665 3.00246,-7.578876 2.55376,-8.304913 -0.44872,-0.726037 -3.31504,-1.061033 -6.3696,-0.744436 -3.05458,0.316599 -17.50544,0.0432 -32.11306,-0.607556 -14.6076,-0.650755 -26.8431,-0.899369 -27.18999,-0.552479 -0.34689,0.346891 -0.0186,1.395211 0.72943,2.329599 0.74809,0.934388 1.80112,3.198888 2.34008,5.032221 0.53896,1.833334 2.7124,7.125195 4.82986,11.759694 2.11745,4.634497 3.84992,8.717411 3.84992,9.073151 0,0.35574 1.13614,3.16387 2.52477,6.24031 1.38863,3.07643 2.74444,6.79351 3.01291,8.26018 0.3587,1.95961 1.89882,2.88164 5.80856,3.47746 7.45008,1.13533 20.02741,1.34586 22.55098,0.37748 z m -8.54744,-61.208096 c 2.28664,-2.755241 2.11126,-28.952747 -0.24021,-35.878144 -2.74531,-8.085326 -4.53843,-7.260479 -7.12039,3.275405 -2.93833,11.990141 -2.26289,27.970165 1.35104,31.963507 2.88687,3.189956 3.81106,3.288262 6.00956,0.639232 z M 29.333333,116.13636 C 17.966667,115.69469 7.8427,114.80221 6.8356297,114.15306 4.3666792,112.56158 5.6597552,101.85406 9.1376029,95.091188 12.574899,88.407175 17.684952,83.787179 26.666667,79.243173 c 14.543289,-7.357703 37.078401,-3.488144 45.728002,7.852068 4.938138,6.474232 10.24281,18.060969 10.258972,22.408159 0.02015,5.41932 -2.745166,6.7304 -13.580021,6.43854 -5.357157,-0.14431 -11.840287,0.0211 -14.406953,0.36753 C 52.1,116.65592 40.7,116.57802 29.333333,116.13636 Z m 27,-12.07637 c 12.775946,0.0822 13.46713,-0.45315 8.887714,-6.88435 C 56.981205,85.603851 34.478795,84.735448 23.01536,95.546857 c -7.675873,7.239283 -3.749395,10.126793 12.317973,9.058563 5.133334,-0.34128 14.583334,-0.58672 21,-0.54543 z"
       id="path372" />
  </g>
</svg>
