<?xml version="1.0" encoding="UTF-8" standalone="no"?>
<!-- Created with Inkscape (http://www.inkscape.org/) -->

<svg
   version="1.1"
   id="svg185"
   width="353.33334"
   height="217.33333"
   viewBox="0 0 353.33334 217.33333"
   xmlns="http://www.w3.org/2000/svg"
   xmlns:svg="http://www.w3.org/2000/svg">
  <defs
     id="defs189" />
  <g
     id="g191">
    <path
       style="fill:#000000;stroke-width:1.33333"
       d="m 277.55782,212.93714 c -0.87305,-1.05196 -1.804,-14.18702 -2.37635,-33.52873 -0.88814,-30.01369 -0.80241,-31.90055 1.52695,-33.60381 1.35736,-0.99254 3.84183,-1.8046 5.52103,-1.8046 3.61816,0 5.11008,4.26724 4.10709,11.7472 -0.36281,2.7057 -0.22052,15.71946 0.3162,28.91946 0.53672,13.2 0.47427,25.35 -0.13877,27 -1.25315,3.37283 -6.58378,4.12902 -8.95615,1.27048 z m -196.224485,-0.96846 -56.666668,-0.69799 -6.431565,-4.46277 c -6.472373,-4.49108 -8.020046,-6.99896 -12.1942078,-19.75964 -3.2792084,-10.02475 -0.3710648,-20.32824 8.1583978,-28.90503 8.368191,-8.41461 6.354664,-8.09864 55.075089,-8.6428 24.599091,-0.27475 53.125619,-0.72183 63.392289,-0.99351 21.54815,-0.5702 57.11887,1.60939 61.20825,3.75052 10.81384,5.66198 17.05659,14.15231 18.70219,25.4356 0.77047,5.28275 0.33632,7.65358 -2.56364,14 -3.83591,8.39471 -10.17648,15.8071 -15.3468,17.94107 -6.42584,2.65216 -36.78191,3.27747 -113.333335,2.33455 z m 39.333335,-11.63334 c 17.16776,-0.90748 24.77837,-0.84217 42.33333,0.3633 13.79166,0.94705 14.33334,0.88302 14.33334,-1.69394 0,-1.473 -0.86398,-3.39522 -1.91996,-4.27161 -1.05598,-0.87637 -2.10598,-2.89984 -2.33334,-4.49659 l -0.41337,-2.90317 -45.33333,-0.21425 C 102.4,187.00121 76.900001,186.75961 70.666668,186.58214 49.255949,185.97257 43.984514,186.437 43.223334,189 c -0.381135,1.28333 -1.562304,4.03196 -2.62482,6.10805 -2.547152,4.97699 -2.437859,6.54491 0.401487,5.75973 1.283333,-0.35488 5.033333,-0.1256 8.333333,0.50955 5.610935,1.07992 40.95934,0.56356 71.333336,-1.04199 z m -90.48232,-6.66868 c 1.177664,-2.75 2.667957,-6.04185 3.311763,-7.31524 1.9098,-3.7774 1.347909,-9.6115 -1.558504,-16.18193 -3.03612,-6.86365 -6.784183,-8.10068 -11.623174,-3.83616 -6.086211,5.36367 -6.572217,26.3066 -0.711659,30.66667 4.386434,3.26337 8.282129,2.03617 10.581574,-3.33334 z m 170.30199,-8.14705 c 1.38289,-8.52177 -0.25816,-14.10099 -4.72984,-16.08035 -3.26986,-1.44737 -4.56858,-1.45526 -7.20595,-0.0437 -5.53599,2.96277 -3.90432,13.62719 4.05553,26.50649 1.66563,2.69503 6.87103,-4.16317 7.88026,-10.38236 z m -99.24859,-10.14369 c 71.49816,-0.56175 67.55767,-0.35214 69.73132,-3.70926 1.06833,-1.65 2.34877,-4.65 2.84541,-6.66666 0.83799,-3.40274 0.60692,-3.66667 -3.21006,-3.66667 -2.26219,0 -5.12747,0.54289 -6.3673,1.20643 -1.44032,0.77084 -4.10816,0.56908 -7.38894,-0.5588 -5.58888,-1.92138 -20.23711,-2.30774 -79.848179,-2.10611 l -37,0.12515 0.07525,3 c 0.04139,1.65 0.791391,5.1 1.666667,7.66666 1.375621,4.03388 2.314589,4.78008 6.924744,5.50308 2.933333,0.46003 8.590319,0.52752 12.571079,0.15 3.980761,-0.37753 21.980762,-0.80225 39.999999,-0.94382 z m 205.94732,36.937 c -2.24922,-1.48711 -3.03928,-10.44192 -3.46421,-39.26488 -0.34024,-23.0784 -0.11667,-26.55626 1.83296,-28.5062 2.71392,-2.71443 8.59025,-1.62424 9.67333,1.79458 1.53484,4.84479 2.2137,61.638 0.76904,64.33736 -1.41814,2.64983 -5.99476,3.50122 -8.81112,1.63914 z m 30.91018,-1.07483 c -2.50126,-2.50124 -2.40896,-1.85743 -2.66198,-18.57143 -0.11106,-7.33333 -0.71708,-20.61504 -1.34681,-29.5149 -1.12077,-15.83959 -1.0834,-16.21451 1.76799,-17.74052 3.50988,-1.87844 7.5617,-0.81831 8.81425,2.30618 0.50327,1.25542 1.45268,15.48258 2.10979,31.61591 1.17705,28.89855 1.15324,29.36792 -1.60624,31.66667 -3.44379,2.8688 -4.41367,2.90142 -7.077,0.23809 z M 93.557867,76.081797 C 81.315542,75.475332 78.127613,74.893378 76.754732,73.014387 74.521319,69.957636 72.897071,50.798899 74.688355,48.640535 77.143973,45.681695 89.913975,44.424097 122,43.981253 c 28.48276,-0.393114 35.83924,-1.284258 36.43632,-4.413792 0.25524,-1.337896 -0.51764,-3.51734 -1.71753,-4.843208 -3.33725,-3.687616 -1.54696,-7.750847 8.73504,-19.825003 10.93919,-12.8459063 14.55963,-13.96872225 21.288,-6.6021017 2.15867,2.3634317 3.92484,4.7425947 3.92484,5.2870287 0,0.544435 1.8,3.828185 4,7.297225 4.59772,7.249863 4.81844,9.068282 1.82827,15.062251 -1.8249,3.658073 -1.87814,4.546536 -0.33334,5.562928 1.05459,0.693866 12.63938,0.845978 27.17174,0.356773 13.93333,-0.46904 25.63333,-0.851228 26,-0.849305 21.40752,0.112226 21.22468,0.0768 24.01461,4.652617 3.61204,5.924168 3.73307,20.702914 0.20523,25.059614 -2.35735,2.911199 -3.34476,3.037159 -27,3.4443 C 233.04894,74.403007 207,74.895379 188.66667,75.26474 170.33334,75.634102 144.83334,76.137445 132,76.383284 119.16667,76.629123 101.86771,76.493453 93.557867,76.081797 Z M 106,64.636114 c 6.6,-0.187156 13.5,-0.707274 15.33334,-1.155816 1.83333,-0.448544 29.73333,-1.167346 62,-1.597336 67.2343,-0.895975 78.37464,-1.421466 77.63245,-3.66193 -0.35064,-1.058472 -7.28653,-1.767056 -21.74035,-2.221033 -24.65892,-0.774508 -97.82253,-0.405276 -108.55877,0.547861 -6.60335,0.586228 -27.27193,1.598135 -40.333335,1.974667 -4.019377,0.115867 -5,0.654144 -5,2.744552 0,3.072839 3.827815,5.667287 6.666667,4.518588 1.1,-0.445099 7.4,-0.962397 13.999998,-1.149553 z m 75.11291,-27.302781 c 0.24543,-1.833334 0.99543,-3.903334 1.66667,-4.6 2.00029,-2.07608 1.3915,-6.893305 -1.28962,-10.20434 -2.13624,-2.638152 -2.98528,-2.883227 -5.70136,-1.645696 -1.75524,0.799737 -4.33266,3.573384 -5.72762,6.163659 l -2.53628,4.70959 3.90432,4.725043 c 4.60173,5.569058 9.00058,5.955958 9.68389,0.851744 z"
       id="path511" />
  </g>
</svg>
