<?xml version="1.0" encoding="UTF-8" standalone="no"?>
<!-- Created with Inkscape (http://www.inkscape.org/) -->

<svg
   version="1.1"
   id="svg175"
   width="78.666664"
   height="229.33333"
   viewBox="0 0 78.666664 229.33333"
   xmlns="http://www.w3.org/2000/svg"
   xmlns:svg="http://www.w3.org/2000/svg">
  <defs
     id="defs179" />
  <g
     id="g181">
    <path
       style="fill:#000000;stroke-width:1.33333"
       d="m 43.170669,221.91909 c -2.62093,-2.77899 -6.14922,-7.24495 -7.840642,-9.92433 -1.691424,-2.67939 -5.382625,-7.57362 -8.202672,-10.87607 C 24.30731,197.81624 20.499999,192.5832 18.666666,189.4897 16.833333,186.3962 13.383333,181.23149 11,178.01257 c -2.9544063,-3.99021 -4.3333336,-7.34196 -4.3333336,-10.533 0,-9.19279 5.3754516,-8.44683 22.6666656,3.14549 4.033334,2.70402 8.233333,5.32472 9.333333,5.82379 1.1,0.49908 3.8,1.99837 6,3.33179 2.2,1.3334 8.5,4.7342 14,7.5573 19.735076,10.1299 20.307851,12.7868 5.957979,27.63703 -12.461642,12.89616 -15.050264,13.73404 -21.453975,6.94412 z M 55.54081,209.93214 c 6.673293,-5.08997 6.082545,-9.06461 -1.95243,-13.13624 -3.52639,-1.78696 -10.157097,-5.73682 -14.734905,-8.77749 -4.577809,-3.04065 -8.899585,-5.33637 -9.603948,-5.10159 -0.704363,0.23479 1.711109,4.02455 5.367716,8.4217 3.656605,4.39714 6.663609,8.48797 6.682232,9.09072 0.06848,2.21668 6.999047,12.90409 8.368031,12.90409 0.777764,0 3.420751,-1.53053 5.873304,-3.40119 z M 47.999998,87.664323 c -3.3,-0.625356 -10.362301,-2.415151 -15.694002,-3.97732 C 24.445735,81.383975 21.923569,79.950863 18.972663,76.110912 3.6299079,56.145713 0.90268564,37.802629 11.026652,22.666666 18.408307,11.630631 26.506783,7.5007966 39.928197,7.9282638 44.655374,8.0788225 50.236729,9.088178 52.331209,10.171276 67.069815,17.792905 73.800711,37.494297 65.528528,48.799949 59.614137,56.883189 57.111355,58.512752 49.179186,59.445023 39.617487,60.568814 34.35934,57.994774 30.686096,50.392034 24.130729,36.823987 30.509072,25.91698 44.408288,26.926998 c 5.230321,0.380074 5.59171,0.664175 5.59171,4.395842 0,3.302662 -0.860813,4.394833 -5,6.343826 -7.786467,3.666365 -6.171409,10.333333 2.503227,10.333333 3.060752,0 5.101116,-1.014353 7.066666,-3.513145 4.228294,-5.375404 3.588568,-11.056494 -1.900309,-16.875737 -2.565062,-2.719448 -5.372464,-4.944451 -6.238669,-4.944451 -0.866207,0 -3.426284,-0.669461 -5.689062,-1.487693 -3.471155,-1.255185 -5.10415,-1.022335 -10.448685,1.489895 -10.899287,5.123269 -14.992135,13.803594 -12.732147,27.003005 1.284072,7.499592 2.111378,8.991367 8.315781,14.994793 8.327808,8.058046 23.062358,13.764393 29.359469,11.370236 4.642345,-1.765016 13.544599,-1.75973 16.851383,0.01 3.122513,1.671117 3.479328,8.212706 0.579251,10.619557 -2.414173,2.003594 -16.378662,2.568502 -24.666905,0.997864 z"
       id="path650" />
  </g>
</svg>
