<?xml version="1.0" encoding="UTF-8" standalone="no"?>
<!-- Created with Inkscape (http://www.inkscape.org/) -->

<svg
   version="1.1"
   id="svg2"
   width="229.33333"
   height="213.33333"
   viewBox="0 0 229.33333 213.33333"
   xmlns="http://www.w3.org/2000/svg"
   xmlns:svg="http://www.w3.org/2000/svg">
  <defs
     id="defs6" />
  <g
     id="g8">
    <path
       style="fill:#000000;stroke-width:1.33333"
       d="m 13.029336,207.08538 c -5.1074154,-0.82872 -9.0293361,-6.32969 -9.0293361,-12.66474 0,-6.91288 2.4589028,-11.31154 9.9246921,-17.75398 3.39928,-2.93333 7.614409,-7.73333 9.366953,-10.66666 1.752544,-2.93334 5.028875,-7.32036 7.280733,-9.74896 2.251859,-2.42859 4.094288,-5.09635 4.094288,-5.92834 0,-0.83198 1.539053,-3.73356 3.420119,-6.44793 C 42.001254,138.22618 48.369106,136 60.611998,136 c 7.095148,0 7.526076,0.19906 9.53071,4.40284 l 2.099566,4.40282 6.426428,-3.1804 c 11.688785,-5.7847 21.331297,-5.30937 21.331297,1.05155 0,1.29267 -0.976896,5.5692 -2.170879,9.50341 -2.455368,8.09051 -9.276301,15.4191 -14.963856,16.07755 -3.516197,0.40707 -3.532666,0.46268 -3.696881,12.48283 -0.194804,14.25918 -2.134077,18.98806 -9.892297,24.12221 -5.197954,3.43984 -5.634628,3.49673 -19.629485,2.55732 C 41.774303,206.8917 34.133333,206.39218 32.666666,206.3101 31.2,206.22797 27,206.50166 23.333333,206.91821 c -3.666667,0.41656 -8.303465,0.49179 -10.303997,0.16717 z m 50.63733,-13.73744 c 2.383333,-1.45314 4.333333,-3.6583 4.333333,-4.90034 0,-2.52278 -2.369507,-10.54478 -4.163675,-14.09618 -1.901486,-3.76384 -1.340416,-8.79002 1.135923,-10.17585 2.120872,-1.18691 2.134401,-1.48596 0.168883,-3.73292 -1.175184,-1.34347 -2.529016,-4.63472 -3.008515,-7.31392 -0.479499,-2.6792 -1.847069,-5.24551 -3.039047,-5.70291 -3.568818,-1.36948 -10.855673,1.82843 -13.896238,6.09851 l -2.847541,3.999 3.310909,3.57167 c 4.943533,5.33286 5.386572,9.01558 1.39892,11.6284 -3.336932,2.18644 -3.433189,3.1722 -1.053141,10.785 0.622953,1.99257 0.02749,3.64384 -1.992724,5.52594 -3.341178,3.11279 -2.491154,3.95071 5.632432,5.55227 8.556693,1.68693 9.334902,1.61819 14.020481,-1.23867 z M 34,193.33333 C 34.453225,192.6 36.06955,192 37.591834,192 c 2.592227,0 2.552325,-0.16948 -0.629053,-2.67196 -2.16316,-1.70154 -3.723768,-4.60702 -4.297008,-8 C 32.170681,178.39761 31.555376,176 31.298426,176 c -1.102078,0 -8.470681,7.63902 -10.600658,10.9897 -3.534591,5.56028 -1.922087,7.67696 5.848362,7.67696 3.646404,0 7.000644,-0.6 7.45387,-1.33333 z m 49.380243,-35.48668 c 3.615273,-2.36881 4.46416,-7.17999 1.266842,-7.17999 -1.110769,0 -4.260769,2.08376 -6.999999,4.63059 l -4.98042,4.63059 3.713577,0.0361 c 2.042468,0.0199 5.192468,-0.93292 7,-2.11727 z m 65.670297,40.85543 c -6.38885,-0.52708 -12.53885,-1.72414 -13.66666,-2.66012 -2.62517,-2.17871 -2.65749,-9.87839 -0.0506,-12.04196 1.1,-0.91292 2,-3.59686 2,-5.9643 0,-9.04685 3.12303,-14.64745 13.86307,-24.86098 8.55653,-8.13708 17.57012,-9.8759 37.22217,-7.18058 6.96052,0.95466 8.45784,1.76871 14.66667,7.97386 8.22249,8.21762 12.30812,13.5442 17.24809,22.48698 4.14312,7.50026 4.59417,12.55052 1.63243,18.2779 l -2.03424,3.93378 -26.96576,0.0183 c -14.83118,0.0107 -28.16576,0.23361 -29.63243,0.49688 -1.46667,0.26325 -7.89392,0.0475 -14.28279,-0.47967 z m 20.87847,-14.58723 c 0.42815,-0.69275 8.51608,-0.93017 18.74536,-0.55027 l 17.99229,0.66822 v -3.19832 c 0,-1.75907 -1.11884,-4.39926 -2.48632,-5.86707 -1.36746,-1.4678 -3.16322,-3.93359 -3.99058,-5.47949 -0.82735,-1.54592 -4.91506,-4.65812 -9.08379,-6.91602 -6.19717,-3.35653 -9.1218,-4.10524 -16.03591,-4.10524 -12.4001,0 -21.11578,6.06484 -26.82556,18.66667 l -2.71854,6 5.57036,0.79975 c 9.04674,1.29885 18.02406,1.29016 18.83269,-0.0183 z M 11.948441,58.570327 C 9.6318388,54.241716 13.787113,44.193606 24.420882,28.409997 30.777394,18.975082 35.670278,13.220018 39.282059,10.930115 45.677155,6.8755666 39.037379,7.2026098 137.93149,6.0711224 177.49381,5.618474 210.11988,4.9912267 210.43386,4.6772393 c 1.2677,-1.2676942 8.1063,3.4903576 8.98196,6.2493227 0.71148,2.241674 0.18902,3.453227 -2.16246,5.014623 -2.64578,1.75682 -10.34819,2.078809 -52.51031,2.195129 -51.83782,0.143014 -107.181416,1.44107 -115.856097,2.717346 -4.573136,0.67283 -6.015118,1.96981 -13.655815,12.282635 -4.698524,6.341704 -8.547652,12.644676 -8.55362,14.006606 -0.01053,2.396428 2.664134,2.445781 82.989152,1.531313 117.00183,-1.332017 110.40275,-1.378637 111.77554,0.789643 1.75209,2.767357 1.49059,4.578721 -1.12785,7.812355 l -2.3523,2.90497 -102.28184,0.549196 C 13.947428,61.276624 13.390601,61.26503 11.948441,58.570327 Z"
       id="path30" />
  </g>
</svg>
