<?xml version="1.0" encoding="UTF-8" standalone="no"?>
<!-- Created with Inkscape (http://www.inkscape.org/) -->

<svg
   version="1.1"
   id="svg75"
   width="233.33333"
   height="309.33334"
   viewBox="0 0 233.33333 309.33334"
   xmlns="http://www.w3.org/2000/svg"
   xmlns:svg="http://www.w3.org/2000/svg">
  <defs
     id="defs79" />
  <g
     id="g81">
    <path
       style="fill:#000000;stroke-width:1.33333"
       d="m 208.66666,295.34786 c -5.86666,-5.4498 -11.3846,-9.93253 -12.26206,-9.96163 -0.87747,-0.0291 -3.74444,-3.20289 -6.37107,-7.05289 -2.62661,-3.85 -6.56661,-9.13016 -8.75555,-11.73368 -4.76465,-5.66708 -9.29948,-17.42653 -9.22209,-23.91416 0.11093,-9.30321 8.60389,-19.02123 18.196,-20.82072 3.81555,-0.7158 5.45529,-0.0529 11.60372,4.6905 10.21611,7.88167 11.40317,15.03358 4.81105,28.98583 -4.15702,8.79836 -4.94169,13.05286 -2.66666,14.4589 0.73333,0.45322 1.33333,1.92401 1.33333,3.2684 0,2.72557 14.71477,16.97562 19.34835,18.7373 3.31248,1.2594 4.75597,6.06924 3.13584,10.44886 -2.10334,5.68588 -7.55924,3.66124 -19.15086,-7.10671 z M 194.01688,253.2565 c 0.47022,-2.14092 1.40878,-4.23487 2.0857,-4.65323 2.00707,-1.24044 1.40259,-7.53674 -0.9759,-10.16494 -2.84571,-3.14447 -5.14938,-3.0823 -8.46002,0.22834 -3.41146,3.41147 -3.38537,8.67823 0.0785,15.84766 2.20092,4.55538 3.10913,5.37981 4.58096,4.15832 1.00968,-0.83796 2.2205,-3.27523 2.69073,-5.41615 z M 31.116208,276.58165 c -0.440055,-1.14676 -0.06441,-3.69676 0.834766,-5.66667 5.780253,-12.66329 6.722929,-22.33679 2.382359,-24.44717 -1.283333,-0.62396 -3.383333,-1.642 -4.666667,-2.26231 -1.283333,-0.62032 -3.681392,-3.47032 -5.32902,-6.33333 -3.478736,-6.04487 -3.080385,-10.29843 1.751824,-18.70587 3.479336,-6.0536 5.889754,-7.12103 16.141563,-7.1481 8.085604,-0.0213 13.939246,3.95054 17.151078,11.63754 3.173785,7.59593 1.703871,28.34427 -2.008048,28.34427 -0.641992,0 -1.902698,2.25 -2.801569,5 -1.752293,5.36096 -17.361465,21.66666 -20.741118,21.66666 -1.053288,0 -2.275114,-0.93826 -2.715168,-2.08502 z m 20.621054,-42.07351 c 0.486933,-4.18194 -5.437072,-11.84147 -9.158384,-11.84147 -3.010427,0 -7.179288,5.84552 -6.126137,8.58999 0.921654,2.40179 10.15497,7.43657 12.880592,7.02359 1.1,-0.16667 2.181768,-1.86412 2.403929,-3.77211 z m 87.899108,-5.72891 c -1.23657,-1.23657 -2.19199,-6.53469 -2.77061,-15.36403 -0.48575,-7.41213 -1.62926,-15.16824 -2.54114,-17.2358 -0.91188,-2.06756 -5.25796,-6.96688 -9.65796,-10.88738 -4.4,-3.92052 -8.39204,-8.11067 -8.87121,-9.31147 -0.47918,-1.20079 -3.97748,-4.78396 -7.77401,-7.9626 -6.40452,-5.36216 -7.44843,-5.77392 -14.462112,-5.70443 -14.283534,0.14155 -52.865315,1.88136 -53.391613,2.40766 -0.28966,0.28965 0.260224,2.42634 1.221966,4.7482 1.56167,3.7702 1.482338,4.41624 -0.742038,6.04274 -5.898119,4.31282 -12.250625,0.47591 -19.980977,-12.06846 -9.5426,-15.48519 -10.173244,-16.79734 -9.337986,-19.42899 1.182664,-3.72625 6.597518,-4.80653 10.681033,-2.13091 1.827991,1.19775 3.32362,2.9593 3.32362,3.91456 0,3.1115 6.302953,7.96659 8.932159,6.88035 1.320646,-0.54563 6.117393,-1.15197 10.659438,-1.34745 12.915687,-0.55586 58.86041,-3.14186 99.07507,-5.57646 20.16666,-1.22089 39.96666,-2.36944 44,-2.55233 28.11437,-1.2748 26.7669,-1.33971 28.76716,1.38575 2.57862,3.51349 2.38682,6.9245 -0.55475,9.86608 -3.65792,3.65792 -38.68993,7.46812 -43.17547,4.6959 -0.62414,-0.38574 -3.54758,-0.29372 -6.49654,0.20451 -5.12084,0.86516 -5.32274,1.08341 -4.49374,4.85779 0.47739,2.17357 2.30496,6.46494 4.06127,9.53641 1.75631,3.07145 3.20051,6.39379 3.20933,7.38296 0.009,0.98917 0.9671,3.80264 2.12947,6.25216 2.72459,5.74164 2.04025,8.962 -2.1204,9.97813 -3.11753,0.76138 -3.30137,1.28056 -2.92872,8.27116 0.34596,6.48948 0.004,7.73438 -2.63,9.57942 -1.6652,1.16636 -4.57412,2.12064 -6.46429,2.12064 -4.01554,0 -6.63666,2.21169 -6.63666,5.6 0,2.8658 -4.55582,7.73333 -7.23809,7.73333 -1.04763,0 -2.75411,-0.84935 -3.7922,-1.88744 z M 136,168.87332 c 0,-5.04374 -3.77924,-9.36814 -7.55215,-8.64154 -4.06133,0.78214 -3.57727,4.82922 1.08718,9.08954 5.58166,5.09806 6.46497,5.03684 6.46497,-0.448 z M 36.65729,134.2218 c -3.671822,-0.85532 -9.671822,-3.09483 -13.333333,-4.97668 -5.842755,-3.00291 -7.272005,-4.63428 -11.681421,-13.33333 C 7.4136594,107.56891 6.4329528,103.99504 5.4467803,93.333335 4.1080263,78.85981 5.938304,37.834791 8.2425721,30.666667 13.807074,13.356595 27.882698,3.981643 48.247174,4.021934 c 13.130402,0.025979 18.543784,2.4797948 26.644845,12.077764 7.634581,9.045295 10.049446,19.569209 10.365333,45.171827 0.139823,11.332673 0.555265,21.091954 0.923205,21.687293 1.758636,2.845535 0.462631,20.868352 -1.992449,27.707852 -6.139732,17.1044 -28.229057,28.05133 -47.530818,23.55513 z m 19.190724,-12.1432 c 7.861274,-4.06523 14.168798,-15.28907 15.478877,-27.543703 L 72.267487,85.736458 65.80041,84.991995 C 62.243518,84.58254 54.233333,84.464232 47.999999,84.72909 41.766666,84.993947 32.24379,85.271586 26.838052,85.346066 l -9.828615,0.135417 0.91084,6.925927 c 0.500963,3.809259 1.473839,7.495925 2.161948,8.19259 0.688109,0.69667 1.251108,2.51332 1.251108,4.03701 0,1.52369 1.2,3.79782 2.666667,5.05362 1.466666,1.2558 2.666666,3.12699 2.666666,4.1582 0,1.03121 2.120878,3.73708 4.713062,6.01305 C 35.534085,123.50945 37.04349,124 44.112607,124 c 4.4109,0 9.691834,-0.86463 11.735407,-1.9214 z M 45.532629,73.236944 c 23.628785,0.242878 27.800703,-0.368088 27.800703,-4.071327 0,-2.42308 -1.27405,-2.540264 -26.533866,-2.440518 -24.177582,0.09547 -26.734862,0.326874 -28.797281,2.605821 -3.025643,3.343298 -1.349116,5.808362 3.143273,4.621683 1.936666,-0.511575 12.910891,-0.833621 24.387171,-0.715659 z M 68.666666,54.835919 c 3.063528,-0.649911 4.09576,-1.674293 4.409021,-4.375493 C 73.694644,45.123278 68.431874,30.599238 64.313272,26.278174 56.623613,18.2105 41.923331,14.891272 33.400945,19.29837 c -2.089979,1.08077 -5.869825,4.383208 -8.399659,7.338749 -7.687868,8.981544 -11.928071,27.069169 -6.667953,28.443781 3.548613,0.927351 45.776043,0.721821 50.333333,-0.244981 z M 115.78143,102.65405 C 108.85367,101.42935 105.06981,98.554426 99.661377,90.406273 93.27512,80.78497 92.152745,71.807212 95.8905,60.243413 99.657029,48.590593 102.72252,44.8045 110.97261,41.615992 127.81457,35.106875 178.81013,32.027957 206,35.878597 c 8.4225,1.1928 9.76172,1.816217 13.72301,6.388264 6.50052,7.502745 8.07164,11.12038 9.07261,20.8905 1.12124,10.943851 -1.7136,21.062782 -7.88086,28.130713 -3.70358,4.244447 -5.87171,5.277731 -16.91476,8.061212 -6.96667,1.755994 -15.66667,3.219004 -19.33334,3.251134 -3.66666,0.0321 -9.06666,0.0992 -12,0.14903 -38.34168,0.6515 -52.79738,0.62725 -56.88523,-0.0954 z M 164.66666,90.213051 174,88.589975 l -7.50598,-1.68798 c -5.89933,-1.326669 -8.89601,-1.347706 -14,-0.09828 -7.7544,1.898236 -8.34556,2.29805 -5.78874,3.915032 2.5327,1.601738 6.48222,1.49054 17.96138,-0.505696 z m -48.01789,-7.042548 c 3.84347,-9.198711 1.37706,-28.60059 -3.76292,-29.600853 -2.86372,-0.557292 -4.77997,4.380426 -6.4668,16.66345 -1.22923,8.950852 -1.1187,9.830274 1.71767,13.666667 3.95813,5.353656 6.04515,5.174852 8.51205,-0.729264 z m 93.86143,-2.315311 c 0.82686,-0.99631 2.12528,-5.04631 2.88537,-9 1.15553,-6.010631 0.98619,-8.26416 -1.03349,-13.752979 -1.32851,-3.610449 -3.11827,-6.798717 -3.97723,-7.085039 -0.85896,-0.286321 -2.55563,1.40136 -3.77037,3.750403 -2.17007,4.196447 -2.10643,9.728626 0.27108,23.565758 0.78116,4.546373 3.08658,5.580033 5.62464,2.521857 z M 140.2437,78.70104 c 7.08996,-3.425497 26.34908,-4.985838 33.7563,-2.734878 2.93333,0.891404 7.9303,2.075689 11.10437,2.631746 5.42919,0.951124 5.72644,0.844887 5.0182,-1.793446 -0.41405,-1.542454 -0.76103,-6.25446 -0.77104,-10.471127 -0.0208,-8.731007 -1.38212,-9.496911 -9.48001,-5.333334 -3.31007,1.701886 -8.55315,2.4535 -19.3743,2.777375 -12.94517,0.387445 -15.53,0.09005 -20.28022,-2.333333 -2.99426,-1.527556 -6.73799,-2.777375 -8.31939,-2.777375 -2.33111,0 -2.72313,0.567785 -2.07133,3 0.44219,1.65 0.81216,6.75 0.82218,11.333334 0.0208,9.534681 0.7562,9.971601 9.59524,5.701038 z m 31.11002,-26.823178 c 4.17789,-1.56315 7.2256,-3.467609 6.93462,-4.333333 -0.64648,-1.923513 -19.58204,-1.941861 -30.95501,-0.02999 l -8,1.344849 6,1.618841 c 3.3,0.890363 7.2,2.156394 8.66667,2.813402 4.36526,1.955464 9.45741,1.540619 17.35372,-1.413766 z"
       id="path928" />
  </g>
</svg>
