<?xml version="1.0" encoding="UTF-8" standalone="no"?>
<!-- Created with Inkscape (http://www.inkscape.org/) -->

<svg
   version="1.1"
   id="svg83"
   width="213.33333"
   height="202.66667"
   viewBox="0 0 213.33333 202.66667"
   xmlns="http://www.w3.org/2000/svg"
   xmlns:svg="http://www.w3.org/2000/svg">
  <defs
     id="defs87" />
  <g
     id="g89">
    <path
       style="fill:#000000;stroke-width:1.33333"
       d="m 14.524358,196.67079 c -3.900323,-2.11993 -7.8576914,-7.49719 -7.8576914,-10.67699 0,-3.3298 5.0045734,-12.249 7.3855874,-13.16269 5.842463,-2.24196 15.243535,0.78269 17.90822,5.76171 1.601857,2.99309 1.793959,12.01364 0.305715,14.35546 -1.143247,1.79896 -9.896608,5.74807 -12.556697,5.665 -0.940222,-0.0293 -3.273531,-0.90348 -5.185134,-1.94249 z m 7.90674,-11.78128 c 0.249426,-1.28609 -0.419777,-2.22284 -1.587977,-2.22284 -2.476981,0 -3.971943,2.17353 -2.799623,4.07039 1.206042,1.95141 3.868238,0.83041 4.3876,-1.84755 z M 9.8666665,159.46667 c -7.5967179,-7.59672 -5.1883018,-16.38889 5.4954745,-20.0618 4.701807,-1.6164 5.775596,-1.54531 10.11784,0.66995 C 30.903386,142.84163 32,144.76831 32,151.53004 c 0,6.3136 -1.825284,9.24912 -6.837486,10.99639 -7.048338,2.45705 -10.461865,1.77423 -15.2958475,-3.05976 z M 20,150.66667 c 0,-0.73333 -0.6,-1.33333 -1.333334,-1.33333 -0.733333,0 -1.333333,0.6 -1.333333,1.33333 0,0.73333 0.6,1.33333 1.333333,1.33333 C 19.4,152 20,151.4 20,150.66667 Z m -1.709267,-21.12611 c -3.207667,-1.26727 -7.604453,-8.16106 -7.615281,-11.9401 -0.0133,-4.64281 3.374282,-10.22466 7.287292,-12.00754 6.308452,-2.87433 11.255384,-1.97479 16.170589,2.94042 5.772782,5.77278 6.146945,12.01106 1.081474,18.03103 -2.873352,3.41478 -4.381685,4.08659 -8.999999,4.00859 -3.051478,-0.0515 -6.617312,-0.51612 -7.924075,-1.0324 z m 8.375933,-12.87389 c 0,-1.1 -0.9,-2 -2,-2 -1.1,0 -2,0.9 -2,2 0,1.1 0.9,2 2,2 1.1,0 2,-0.9 2,-2 z m 5.8936,-18.192734 c -10.282774,-4.989548 -8.32823,-23.812623 2.687228,-25.879135 6.023384,-1.129993 13.41716,2.244544 16.042801,7.321974 5.872381,11.355936 -7.09448,24.203125 -18.730029,18.557161 z m 8.537499,-12.251089 c 0.255164,-1.315686 -0.425015,-2.222846 -1.666667,-2.222846 -1.236847,0 -2.097765,1.139995 -2.097765,2.777778 0,3.249393 3.115697,2.790093 3.764432,-0.554932 z M 145.72616,72.293545 c -3.08395,-2.728116 -6.57056,-7.438876 -7.74802,-10.468355 -2.04949,-5.273117 -2.01358,-5.778864 0.8415,-11.852768 1.64028,-3.489541 4.07688,-6.630856 5.41466,-6.980697 3.10724,-0.812559 3.10482,-3.3032 -0.005,-6.118407 C 141.07082,34.015803 140,34.086765 140,37.153522 c 0,1.367771 -1.2,4.012408 -2.66667,5.876973 -1.46667,1.864564 -2.66667,3.972012 -2.66667,4.683219 0,4.657782 -12.94156,6.199092 -17.53053,2.087847 -2.35107,-2.106312 -3.98188,-8.886823 -3.95994,-16.464459 0.0246,-8.485391 8.66817,-11.493492 21.14094,-7.357359 2.04461,0.678024 3.14497,0.417255 3.49588,-0.828471 4.09617,-14.54184 5.31309,-17.3908335 8.25035,-19.3153988 4.21464,-2.7615386 6.94529,-1.6052577 9.25314,3.9181912 2.84643,6.8124676 4.6884,7.7586946 13.16424,6.7625256 7.84956,-0.922562 14.9759,0.406401 27.0454,5.043598 9.86732,3.791095 12.85559,7.502347 13.52035,16.791407 0.62811,8.777095 -1.13567,11.908867 -10.27328,18.241233 -5.02556,3.48272 -6.53703,3.796721 -20.36635,4.231013 -16.76032,0.526337 -18.64977,1.426067 -19.25973,9.171209 -0.20595,2.615102 -0.73372,5.33603 -1.17281,6.046507 -1.63507,2.645595 -6.81114,1.061691 -12.24816,-3.748012 z M 159.33333,52.3132 c 10.48184,-2.948946 18.15704,-4.373525 19.40564,-3.601842 2.33792,1.444913 13.58896,-1.039291 16.10579,-3.556124 1.36872,-1.368712 2.48857,-3.883979 2.48857,-5.589481 0,-7.263542 -10.04473,-11.28823 -28.4746,-11.409099 -6.66837,-0.04373 -10.36548,-0.782254 -13.66667,-2.730002 l -4.5254,-2.67005 v 2.869097 c 0,1.578004 1.30459,4.257769 2.89908,5.955034 2.47542,2.63495 4.2152,3.085934 11.90478,3.085934 10.20788,0 14.22266,2.25724 11.86158,6.668962 -1.55474,2.905066 -3.24608,3.470202 -13.99877,4.677488 -4.4,0.49402 -9.05,1.836161 -10.33333,2.982534 -2.72423,2.433497 -3.34546,8.093859 -0.66667,6.074446 0.91667,-0.691033 4.06667,-1.931637 7,-2.756897 z M 129.00039,37.667369 c 0.72901,-2.189502 -3.44864,-3.752454 -5.24051,-1.960588 -0.76681,0.76681 -0.97053,2.079701 -0.45272,2.917534 1.17807,1.906158 4.95109,1.271968 5.69323,-0.956946 z M 57.567167,71.661611 c -3.299019,-1.587238 -8.233834,-9.955513 -8.233834,-13.962629 0,-4.653772 4.798639,-11.542127 8.791377,-12.619852 8.505306,-2.295763 19.21365,5.523845 19.203638,14.023171 -0.01253,10.679373 -10.204824,17.157102 -19.761181,12.55931 z m 8.432832,-12.994943 c 0,-3.800836 -4.208368,-5.412408 -5.480017,-2.098543 -1.213062,3.161188 0.503337,6.353777 3.142652,5.845492 1.47603,-0.284259 2.337365,-1.665033 2.337365,-3.746949 z m 21.226933,1.140601 C 76.944157,54.817721 78.898701,35.994646 89.91416,33.928134 c 6.023384,-1.129993 13.41716,2.244544 16.0428,7.321973 5.87238,11.355937 -7.094479,24.203121 -18.730028,18.557162 z m 8.537499,-12.25109 c 0.255163,-1.315685 -0.425015,-2.222845 -1.666667,-2.222845 -1.236847,0 -2.097765,1.139995 -2.097765,2.777777 0,3.249394 3.115697,2.790094 3.764432,-0.554932 z"
       id="path1085" />
  </g>
</svg>
