<?xml version="1.0" encoding="UTF-8" standalone="no"?>
<!-- Created with Inkscape (http://www.inkscape.org/) -->

<svg
   version="1.1"
   id="svg185"
   width="213.33333"
   height="206.66667"
   viewBox="0 0 213.33333 206.66667"
   xmlns="http://www.w3.org/2000/svg"
   xmlns:svg="http://www.w3.org/2000/svg">
  <defs
     id="defs189" />
  <g
     id="g191">
    <path
       style="fill:#000000;stroke-width:1.33333"
       d="m 15.078048,201.19519 c -2.340408,-0.67704 -5.5537903,-3.05456 -7.1408504,-5.28339 -5.5329516,-7.7703 0.022056,-22.57846 8.4698984,-22.57846 8.725241,0 16.926237,7.1062 16.926237,14.66666 0,4.30534 -5.095584,11.97562 -8.922273,13.43052 -3.713336,1.4118 -3.632056,1.41386 -9.333012,-0.23533 z M 13.744714,167.86186 C 11.404307,167.18482 8.1909244,164.8073 6.6038643,162.57847 1.0709127,154.80816 6.6259203,140 15.073762,140 23.799004,140 32,147.1062 32,154.66667 c 0,4.30533 -5.095584,11.97561 -8.922274,13.43052 -3.713336,1.4118 -3.632056,1.41385 -9.333012,-0.23533 z m -1.847278,-37.09263 c -5.5760992,-5.5761 -5.5760992,-14.62903 0,-20.20513 9.686196,-9.68619 27.420685,0.43802 24.842314,14.18192 -1.65222,8.80709 -3.054893,9.92065 -12.496377,9.92065 -7.56004,0 -8.858364,-0.40987 -12.345937,-3.89744 z M 26.564102,98.769232 C 18.30527,90.5104 23.650698,74.666668 34.69593,74.666668 c 10.481468,0 18.478953,8.652611 16.710487,18.079349 -1.65222,8.807093 -3.054894,9.920653 -12.496378,9.920653 -7.560039,0 -8.858363,-0.40986 -12.345937,-3.897438 z M 144.1271,77.308159 c -7.01748,-5.547002 -10.79377,-12.114299 -10.79377,-18.771322 0,-3.532589 -0.24416,-3.711337 -3.42013,-2.503835 -7.11212,2.704023 -11.35269,1.629055 -16.78468,-4.254854 C 109.75526,48.124254 108,46.969522 108,48.404259 c 0,2.424594 -4.50481,11.023445 -7.6069,14.520167 -3.642646,4.106054 -9.162317,4.285518 -15.904715,0.51712 -7.528353,-4.207677 -8.482928,-4.257214 -8.508461,-0.441545 -0.01107,1.65 -0.852084,5.4 -1.868982,8.333333 -1.558494,4.495614 -2.550134,5.44915 -6.313258,6.070678 -5.525761,0.912651 -9.242329,-0.322748 -15.220601,-5.059376 -8.921506,-7.068574 -9.13511,-18.372755 -0.44112,-23.344635 8.219148,-4.70033 16.71734,-2.196342 22.957821,6.764511 l 2.485385,3.568822 -0.702834,-6.797949 c -1.163226,-11.250916 3.656594,-17.751607 13.216998,-17.826314 4.309343,-0.03368 6.549201,0.918442 10.878617,4.624263 2.99858,2.566667 5.81142,4.666667 6.25077,4.666667 0.43935,0 0.70195,-2.560802 0.58357,-5.69067 -0.11839,-3.129866 0.62677,-7.045238 1.6559,-8.700825 2.36366,-3.802491 10.64721,-6.09483 18.02577,-4.988346 4.80724,0.72089 5.89482,0.445464 7.0948,-1.796722 C 135.36224,21.366968 136,19.181731 136,17.967356 c 0,-2.69092 6.61985,-12.2655548 9.18784,-13.2888421 3.11208,-1.240097 6.76277,0.660447 7.58853,3.9505802 0.43043,1.7149149 2.19356,4.4435759 3.91809,6.0636899 2.70216,2.538554 3.8383,2.778558 8.22052,1.736562 7.46127,-1.774119 30.95898,4.340246 36.28336,9.441333 8.03866,7.70152 8.32234,23.471552 0.53718,29.862561 -7.95004,6.526358 -13.51771,8.266761 -26.44598,8.266761 -10.30664,0 -12.56728,0.395259 -14.50468,2.536051 -1.26229,1.394826 -2.1842,3.344826 -2.04866,4.333333 0.86229,6.289183 -1.96011,11.797283 -6.04504,11.797283 -0.98178,0 -4.83559,-2.411329 -8.56406,-5.358509 z m 45.76304,-31.062954 c 5.65702,-4.136508 -1.02725,-10.84703 -12.22348,-12.271507 -7.49524,-0.953608 -9.27678,0.560887 -3.66666,3.117031 1.83333,0.835322 3.33333,2.092572 3.33333,2.793888 0,0.701314 0.58515,2.814178 1.30033,4.69525 1.4746,3.878504 7.09304,4.709722 11.25648,1.665338 z M 140,42.666667 c 0,-0.733333 -0.6,-1.333333 -1.33334,-1.333333 -0.73333,0 -1.33333,0.6 -1.33333,1.333333 0,0.733334 0.6,1.333334 1.33333,1.333334 0.73334,0 1.33334,-0.6 1.33334,-1.333334 z m 18.66666,-9.333333 c 0,-0.733333 -0.93541,-1.333333 -2.07869,-1.333333 -1.14328,0 -1.70787,0.6 -1.25464,1.333333 0.45323,0.733333 1.38864,1.333333 2.07869,1.333333 0.69006,0 1.25464,-0.6 1.25464,-1.333333 z"
       id="path379" />
  </g>
</svg>
