<?xml version="1.0" encoding="UTF-8" standalone="no"?>
<!-- Created with Inkscape (http://www.inkscape.org/) -->

<svg
   version="1.1"
   id="svg175"
   width="213.33333"
   height="213.33333"
   viewBox="0 0 213.33333 213.33333"
   xmlns="http://www.w3.org/2000/svg"
   xmlns:svg="http://www.w3.org/2000/svg">
  <defs
     id="defs179" />
  <g
     id="g181">
    <path
       style="fill:#000000;stroke-width:1.33333"
       d="m 7.6344275,203.99862 c -4.8276251,-3.79741 -4.7340194,-8.65861 0.4107614,-21.33196 4.4272511,-10.90582 9.0388471,-16.82828 16.8774191,-21.67484 14.372386,-8.8864 34.569467,-8.181 48.43424,1.69159 5.166713,3.67903 13.697127,14.33591 15.586196,19.47152 3.962503,10.77248 4.687988,14.79745 3.176299,17.62207 -2.93728,5.48836 -5.893543,5.92506 -44.095936,6.51392 -35.990393,0.55477 -36.830115,0.5071 -40.3889795,-2.2923 z m 69.9360155,-11.7024 c 2.032946,-2.03294 -0.213175,-9.20765 -5.191389,-16.58266 -6.707114,-9.93631 -26.363153,-14.87119 -37.115776,-9.31834 -8.135518,4.20132 -16.590398,13.64887 -18.057236,20.17728 -0.69182,3.07907 -0.938241,6.11546 -0.547602,6.74752 1.160366,1.87751 58.982557,0.90564 60.912003,-1.0238 z m 44.524797,12.2752 c -3.7411,-3.74109 -1.98624,-17.84096 2.92838,-23.52888 1.08864,-1.25994 3.85368,-6.03141 6.14453,-10.60326 4.88201,-9.74306 8.62897,-12.35551 21.69018,-15.12279 10.88413,-2.30604 20.57472,-2.49595 27.6146,-0.54117 5.44044,1.51065 16.8604,11.00318 16.8604,14.01476 0,0.98109 1.72728,3.75468 3.8384,6.16352 6.67897,7.6209 10.13237,21.8675 6.49493,26.79404 -2.53368,3.43161 -17.61893,4.83129 -52.57142,4.87785 -26.35471,0.0351 -31.21324,-0.26731 -33,-2.05407 z m 71.98344,-12.69873 c 0.61484,-0.99484 -0.89414,-4.27504 -5.41202,-11.7646 -2.716,-4.50248 -7.09026,-9.44143 -8.36197,-9.44143 -0.72132,0 -1.98656,-0.81338 -2.81161,-1.80752 -1.92438,-2.31872 -17.83979,-3.83492 -22.33096,-2.12738 -1.88763,0.71768 -6.62412,3.42364 -10.52554,6.01325 -5.72338,3.79897 -7.50005,5.90156 -9.19837,10.88587 -2.7774,8.15122 -2.78162,8.13492 2.22845,8.61797 10.00647,0.9648 55.77186,0.65964 56.41202,-0.37616 z m 1.67837,-91.53936 c -1.09427,-1.283332 -3.36936,-6.810366 -5.05575,-12.282298 -7.35765,-23.873868 -21.52384,-45.910741 -32.68784,-50.84911 -5.32652,-2.356172 -6.29636,-2.409928 -11.58009,-0.641851 -18.38933,6.153556 -45.41882,8.571074 -60.433371,5.40516 -5.866667,-1.237025 -12.315701,-2.425422 -14.331188,-2.640884 -2.015487,-0.215461 -5.799783,-1.651582 -8.409547,-3.191381 -5.935968,-3.502307 -9.392157,-3.521544 -15.031038,-0.08366 -9.384339,5.721392 -28.211758,8.40123 -34.44957,4.903448 C 8.9329888,38.235598 5.0167247,32.097213 4.348925,26.172512 3.8177785,21.460194 4.3062334,19.840662 7.3494038,16.22406 9.3486016,13.848149 12.778317,10.976503 14.970993,9.8426262 19.99333,7.2454748 36.526062,6.6624547 38.865393,8.9999999 c 0.917366,0.9166666 2.89794,1.6689091 4.401273,1.6716511 1.503333,0.0027 4.769309,1.246207 7.257725,2.763258 4.985,3.039081 7.527536,2.79326 17.339059,-1.676406 11.30117,-5.1482778 19.191099,-6.7886647 32.80322,-6.8200816 25.04693,-0.057809 33.96182,1.9396848 44.51314,9.9737226 4.41364,3.360662 17.20181,3.421622 18.43055,0.08785 1.73172,-4.698468 7.44256,-10.9999997 9.96888,-10.9999997 4.27589,0 7.7554,2.5706402 7.73368,5.7135783 -0.0277,4.0027384 -1.21262,5.5213084 -6.37072,8.1645104 -2.41514,1.237598 -5.04215,3.678958 -5.8378,5.425246 -1.3148,2.88567 -0.70623,3.90183 6.67684,11.148603 7.8625,7.717378 12.63894,14.490782 17.0756,24.214728 1.17108,2.566667 3.7942,8.266667 5.82916,12.666667 3.80922,8.236279 8.55252,27.996028 7.23294,30.131163 -1.27869,2.06895 -8.07865,1.31202 -10.16189,-1.13116 z M 121.09589,31.228318 c 14.60685,-1.833621 19.68665,-3.938205 15.35569,-6.361936 -1.31097,-0.733657 -4.49888,-1.788353 -7.08425,-2.343769 -2.58537,-0.555416 -8.48909,-2.03374 -13.11939,-3.285165 -7.20468,-1.947198 -10.39347,-2.075595 -22.112383,-0.890364 -21.475481,2.171996 -32.093154,8.423545 -19.761506,11.635322 12.215793,3.181601 27.957819,3.601388 46.721839,1.245912 z M 38.719783,29.306234 c 2.904119,-1.48157 5.280216,-2.96046 5.280216,-3.286421 0,-1.438913 -6.10672,-3.625872 -13.407954,-4.801701 C 23.996609,20.155948 22.10228,20.308325 19.331348,22.12391 15.739818,24.47717 15.036956,27.836956 17.6,30.4 c 2.591074,2.591074 15.174274,1.939406 21.119783,-1.093766 z"
       id="path518" />
  </g>
</svg>
