<?xml version="1.0" encoding="UTF-8" standalone="no"?>
<!-- Created with Inkscape (http://www.inkscape.org/) -->

<svg
   version="1.1"
   id="svg165"
   width="90.666664"
   height="101.33333"
   viewBox="0 0 90.666664 101.33333"
   xmlns="http://www.w3.org/2000/svg"
   xmlns:svg="http://www.w3.org/2000/svg">
  <defs
     id="defs169" />
  <g
     id="g171">
    <path
       style="fill:#000000;stroke-width:1.33333"
       d="M 16.529973,92.999997 C 9.1528879,88.034628 6.226472,81.765185 5.0066605,68.31289 4.3602357,61.184003 4.6717756,59.630417 7.6168628,55.296332 11.244572,49.957677 10.968496,48.406496 4.8562709,39.785491 2.8322149,36.930655 2.4495343,34.53125 2.8971394,27.501746 3.3593808,20.242383 4.1323771,17.926943 7.4705459,13.802526 9.6799764,11.072701 13.081229,7.649462 15.028884,6.1953271 c 3.453303,-2.5782632 3.673569,-2.5841879 8.874898,-0.2387152 2.933539,1.3228415 6.698498,4.3969501 8.366578,6.8313531 1.867508,2.725449 5.314422,5.297518 8.970628,6.693837 5.214575,1.991464 6.677933,2.049805 12.01505,0.47902 21.574524,-6.349673 36.482425,6.708104 33.959027,29.744588 -1.35299,12.351653 -4.499343,17.562492 -13.045627,21.60553 -3.929743,1.859067 -10.675489,4.00615 -14.990546,4.771295 -4.315059,0.765145 -9.94556,2.029072 -12.512227,2.808726 -4.944192,1.501852 -15.999999,11.180109 -15.999999,14.006401 0,1.668518 -4.010416,4.435968 -6.428325,4.435968 -0.698667,0 -4.167432,-1.95 -7.708368,-4.333333 z m 9.470026,-18.333333 c 1.327315,-1.466666 3.127315,-2.666666 4,-2.666666 0.872685,0 2.615596,-1.136918 3.873135,-2.526483 1.25754,-1.389565 3.900532,-2.926593 5.873317,-3.415617 4.362722,-1.081456 15.23827,-3.228569 21.586881,-4.261807 7.804373,-1.270164 10.364959,-4.725574 10.497855,-14.166442 0.07216,-5.126676 -0.496054,-8.560362 -1.524742,-9.213828 -0.901879,-0.57291 -4.60111,-1.050842 -8.220512,-1.062072 -4.816176,-0.01495 -7.374461,-0.766088 -9.540868,-2.801321 -2.387233,-2.242689 -3.483624,-2.500741 -5.664946,-1.333333 -4.397422,2.353429 -9.831404,1.666069 -13.473828,-1.704343 -1.873461,-1.733553 -5.206292,-3.772182 -7.406292,-4.530289 -2.2,-0.758108 -4.995794,-1.783138 -6.212877,-2.277849 -3.368524,-1.369209 -4.637417,4.143845 -1.700649,7.388937 1.279754,1.414113 2.983834,2.58128 3.786844,2.593705 2.623696,0.0406 14.126682,11.83839 14.126682,14.488732 0,1.743145 -1.95096,3.52857 -5.994809,5.486165 -8.056559,3.900113 -11.338524,8.326836 -11.338524,15.293434 0,8.014568 2.746069,9.777948 7.333333,4.709077 z"
       id="path657" />
  </g>
</svg>
