<?xml version="1.0" encoding="UTF-8" standalone="no"?>
<!-- Created with Inkscape (http://www.inkscape.org/) -->

<svg
   version="1.1"
   id="svg75"
   width="226.66667"
   height="202.66667"
   viewBox="0 0 226.66667 202.66667"
   xmlns="http://www.w3.org/2000/svg"
   xmlns:svg="http://www.w3.org/2000/svg">
  <defs
     id="defs79" />
  <g
     id="g81">
    <path
       style="fill:#000000;stroke-width:1.33333"
       d="m 74.333056,197.09894 c -0.916514,-0.58196 -3.646184,-1.0673 -6.065935,-1.07852 -6.443051,-0.0299 -11.115843,-2.9912 -15.362579,-9.73576 l -3.762124,-5.97492 -12.237876,-0.55939 c -20.775256,-0.94963 -26.086427,-6.34264 -15.695456,-15.93732 6.501101,-6.00291 6.811641,-8.37767 1.457581,-11.14636 -3.067967,-1.58651 -4,-2.9816 -4,-5.98733 0,-4.52007 3.022063,-6.67934 9.348243,-6.67934 4.144896,0 10.525928,4.82799 12.352597,9.34616 0.632934,1.56552 1.474171,1.2012 3.964628,-1.71702 6.292992,-7.37388 18.396891,-7.54128 20.219446,-0.27964 1.331359,5.30454 -0.206624,8.36286 -4.702112,9.35024 -5.79735,1.2733 -6.204974,4.11869 -1.31308,9.16585 2.322361,2.39607 4.864111,6.70652 5.648333,9.57879 3.14053,11.50237 5.512319,11.44434 24.435919,-0.59791 3.641352,-2.31721 8.741352,-4.80227 11.333334,-5.52236 11.154535,-3.09885 32.326025,-0.0348 44.712695,6.47104 2.93333,1.54068 13.00387,4.61704 22.37897,6.83637 13.85135,3.27898 19.97295,4.03898 32.66667,4.05556 8.59156,0.0107 16.27365,0.46123 17.07132,1 2.86405,1.93451 3.117,6.93895 0.42357,8.38043 -1.70638,0.91323 -21.22037,1.05755 -58.87973,0.43544 -66.60449,-1.10027 -60.627446,-1.13416 -72.661081,0.41201 -5.31682,0.68314 -10.41682,0.76594 -11.333333,0.18398 z m 40.692324,-13.97352 c -0.90271,-0.36523 -2.70271,-0.38746 -4,-0.0495 -1.29729,0.33805 -0.55871,0.63688 1.64129,0.66405 2.2,0.0272 3.26142,-0.24941 2.35871,-0.61465 z M 11.061968,63.30277 C 8.9979033,61.796062 8.5537127,58.634988 7.8498513,40.443801 7.2143952,24.020538 7.4285404,18.68969 8.8143293,16.434458 11.307222,12.377526 15.778995,11.208429 18.48201,13.906946 c 1.801048,1.79805 2.259101,5.904936 2.608616,23.388692 0.25848,12.929919 -0.11536,22.215394 -0.957778,23.789467 -1.805949,3.374447 -6.061064,4.414745 -9.07088,2.217665 z m 97.574362,-3.826745 c -2.28602,-1.671575 -2.57363,-3.971617 -2.87604,-23 -0.36524,-22.981811 0.62126,-28.0190142 5.73885,-29.303447 4.40041,-1.1044322 6.98493,0.17356 8.52087,4.213388 1.70215,4.476989 1.70545,37.264369 0.004,43.195759 -1.942,6.771357 -6.27454,8.633379 -11.38804,4.8943 z m 99.77059,-0.823687 c -3.89205,-1.567549 -4.54262,-6.02989 -4.09082,-28.059649 0.40886,-19.936403 1.88541,-24.4225118 8.5924,-26.1058576 2.75154,-0.6905955 4.10017,-0.1988063 6.04662,2.2049562 2.22671,2.7498687 2.48266,5.3290554 2.30235,23.2010044 -0.25148,24.925352 -0.54219,26.686598 -4.71903,28.589693 -3.83656,1.748055 -4.19445,1.755531 -8.13152,0.169853 z"
       id="path796" />
  </g>
</svg>
