<?xml version="1.0" encoding="UTF-8" standalone="no"?>
<!-- Created with Inkscape (http://www.inkscape.org/) -->

<svg
   version="1.1"
   id="svg159"
   width="214.66667"
   height="217.33333"
   viewBox="0 0 214.66667 217.33333"
   xmlns="http://www.w3.org/2000/svg"
   xmlns:svg="http://www.w3.org/2000/svg">
  <defs
     id="defs163" />
  <g
     id="g165">
    <path
       style="fill:#000000;stroke-width:1.33333"
       d="m 188,212.04894 c -3.3,-0.5339 -44.59788,-0.91334 -91.77308,-0.84317 -78.008744,0.116 -85.987048,-0.0717 -88.1367776,-2.07459 C 4.6989042,205.9717 3.9372597,186.51109 4.6278415,120.66666 5.4264486,44.522442 6.6688888,9.6580084 8.6421413,8.0203541 9.6492699,7.1845118 44.207591,6.4392839 102.11999,6.004565 152.654,5.6252318 196.80051,4.9695275 200.22335,4.5474445 c 5.16031,-0.6363372 6.69763,-0.293132 9,2.0092323 2.41427,2.4142663 2.80768,4.5603362 3.01436,16.4433232 0.1308,7.516666 0.16124,14.866666 0.0677,16.333333 -0.54957,8.624485 -0.61373,16.42027 -0.48828,59.333332 0.23044,78.826475 -0.4896,106.125995 -2.89596,109.798575 -2.97748,4.5442 -8.80969,5.54322 -20.92125,3.5837 z m -61.11308,-12.23198 c 11.02848,-1.43619 11.45267,-1.61362 9.33334,-3.90416 -2.30427,-2.4904 -4.28485,-6.15087 -10.05286,-18.57947 -1.87184,-4.03333 -3.42526,-6.28333 -3.45204,-5 -0.0656,3.14571 -4.19779,2.98197 -8.41252,-0.33333 -5.89079,-4.63371 -7.63617,-3.60939 -7.63617,4.48148 v 7.14814 l 8.0985,0.73435 c 10.95831,0.99367 17.18395,6.77207 10.9015,10.11837 -2.54764,1.35698 -33.393207,2.83698 -61.333336,2.94283 -14.299833,0.0541 -17.666667,0.42597 -17.666667,1.95093 0,1.51768 3.69443,1.95595 19.000001,2.25395 27.221912,0.53003 47.938712,-0.0835 61.220252,-1.81309 z m -81.553586,-0.48363 c 0,-1.50923 -1.624417,-2 -6.619755,-2 -8.249159,0 -10.887511,-3.18471 -6.801139,-8.20952 2.362685,-2.90528 3.431515,-3.11248 15.278485,-2.96173 10.675133,0.13584 12.846236,-0.18807 13.405909,-2 1.845603,-5.97511 4.734195,-22.25339 4.717096,-26.58259 -0.01067,-2.70205 -0.917544,-7.49135 -2.015269,-10.64287 -3.310269,-9.50362 -8.631993,-30.44888 -8.631993,-33.97383 0,-1.81661 -0.931906,-4.07635 -2.070902,-5.02163 -2.794395,-2.31915 -12.224241,-18.610755 -12.699896,-21.941161 -0.751492,-5.26175 1.722339,-13.993156 5.404968,-19.076877 4.015628,-5.543414 4.009239,-9.25183 -0.03473,-20.164548 -1.581571,-4.267887 -1.767452,-4.379685 -2.771063,-1.666667 -0.591679,1.599451 -1.995111,2.908092 -3.118743,2.908092 C 37.069723,47.999999 32,43.388573 32,41.290507 c 0,-3.181914 3.969418,-10.51365 6.394894,-11.811726 7.450529,-3.987401 16.3474,-5.990603 26.93844,-6.065404 9.918621,-0.07005 11.858497,0.314089 15.540442,3.077379 5.512877,4.137397 10.930557,14.265031 11.965291,22.367523 0.660304,5.170524 1.927005,7.619953 6.287297,12.157788 5.125316,5.334009 11.075606,14.320353 14.200006,21.445365 0.75444,1.720456 3.38435,5.620456 5.84425,8.666667 2.4599,3.046212 4.24406,6.164878 3.96481,6.930369 -0.59704,1.636596 9.61671,25.690292 12.14769,28.608192 0.95415,1.1 2.12272,3.27602 2.59684,4.8356 0.47414,1.55958 3.6951,6.1676 7.15771,10.24007 3.46261,4.07245 8.38741,10.2398 10.94399,13.70519 2.55657,3.4654 9.05128,10.70369 14.43268,16.08509 6.08656,6.08656 9.61737,10.65141 9.34252,12.07859 -0.59719,3.10092 -8.57016,5.35502 -11.80207,3.33666 -1.54227,-0.96316 -2.59303,-1.03316 -2.8736,-0.19144 -0.24327,0.7298 -5.15233,3.37446 -10.90905,5.877 -11.01628,4.78896 -12.37964,5.60351 -11.25738,6.72578 1.11674,1.11673 31.3989,1.13608 43.97804,0.0281 13.84568,-1.21955 13.01788,0.35572 13.01938,-24.77567 5.8e-4,-9.86973 0.34568,-26.94496 0.76689,-37.94496 1.24052,-32.3973 1.61161,-77.270825 0.66139,-79.979682 -0.78791,-2.246172 -2.5918,-2.544379 -17.20111,-2.84356 C 173.96731,53.635106 167.09916,52.912221 165.90923,51.924666 164.44956,50.713246 164,46.629675 164,34.582095 164,25.915168 163.5498,18.54581 162.99958,18.205745 162.44934,17.865681 142.19934,17.154753 117.99957,16.625908 93.799808,16.097062 72.200001,15.61868 70.000001,15.562837 c -2.2,-0.05584 -14.664851,0.01967 -27.699668,0.167815 L 18.600664,16 17.201906,19.666666 c -2.514534,6.591523 -3.860734,51.565766 -1.660615,55.478273 0.923453,1.642192 0.975945,4.566014 0.155593,8.666666 -0.680906,3.403616 -1.308998,30.486755 -1.39576,60.184755 l -0.157746,53.99636 3.261644,1.65065 c 1.882294,0.95259 8.477418,1.65896 15.594979,1.67031 10.082809,0.016 12.333333,-0.3453 12.333333,-1.98035 z M 148.91238,185.21438 c 6.28897,-3.04444 6.88769,-4.41869 3.53774,-8.12033 -1.21909,-1.34708 -4.99973,-7.09433 -8.40142,-12.77165 -4.97771,-8.30766 -7.34268,-10.90526 -12.11679,-13.30863 -6.64187,-3.34363 -9.90615,-3.84139 -8.83442,-1.34711 0.39386,0.91667 3.35961,7.96667 6.59053,15.66667 C 137.21383,183.26894 139.7029,188 141.61328,188 c 0.84963,0 4.13423,-1.25352 7.2991,-2.78562 z m -58.982791,0.14572 c 4.884907,-1.85724 6.357448,-6.05436 5.116439,-14.58316 -1.059159,-7.27902 -4.37936,-11.20982 -4.37936,-5.18473 0,4.32161 -3.587109,9.1492 -6.085801,8.19036 -1.107055,-0.42481 -2.906043,-2.49968 -3.997752,-4.61081 -2.188011,-4.23115 -4.583114,-5.07894 -4.583114,-1.62228 0,1.21888 -1.021939,5.4581 -2.270975,9.4205 -1.971396,6.25399 -2.015369,7.36606 -0.333333,8.43011 2.565884,1.62316 12.220888,1.59981 16.533896,-0.04 z m 18.074121,-27.69344 c 0.002,-0.55 -1.14017,-3.4 -2.53822,-6.33333 -1.39806,-2.93333 -3.64973,-7.65267 -5.00371,-10.4874 -2.385154,-4.99365 -11.312523,-11.77297 -13.121333,-9.96415 -1.472568,1.47256 6.47902,18.58923 10.816991,23.28476 3.688772,3.99283 9.836352,6.17815 9.846272,3.50012 z m -24.691377,-5.60049 c 0.774407,-2.43995 -3.214404,-14.63673 -8.306591,-25.39951 -2.058481,-4.35077 -6.545398,-9.23576 -8.545532,-9.30368 -1.10357,-0.0375 0.229686,10.84599 1.548071,12.63702 0.539811,0.73333 1.791609,4.63333 2.781773,8.66666 2.303955,9.38492 6.129038,16 9.251798,16 1.344813,0 2.816531,-1.17022 3.270481,-2.60049 z m 46.021007,-15.20092 c 0,-0.99077 -1.38804,-4.44078 -3.08452,-7.66667 -1.69648,-3.22588 -6.55752,-13.66525 -10.8023,-23.19858 -4.24479,-9.533335 -8.30218,-18.533335 -9.01644,-20.000001 -0.71425,-1.466667 -4.90123,-6.566667 -9.304398,-11.333333 -7.998933,-8.65928 -8.00751,-8.66411 -10.061682,-5.666667 -2.949441,4.303819 -6.711807,3.749349 -9.773831,-1.440396 -8.450792,-14.323025 -25.121342,-5.362651 -26.365164,14.171204 -0.521963,8.197269 -0.430118,8.463606 5.271889,15.287694 3.191708,3.819799 10.644026,10.136999 16.560704,14.038239 11.712401,7.72271 32.373012,18.27659 35.778842,18.27659 1.17162,0 2.13023,0.48887 2.13023,1.08639 0,0.59751 2.25,2.23026 5,3.62834 9.25933,4.70738 13.66667,5.61588 13.66667,2.81719 z M 83.967217,57.666666 C 83.822628,53.256385 77.813619,39.913495 74.373658,36.364358 69.516756,31.353305 68.000001,30.93131 68.000001,34.591061 c 0,3.18275 -4.814213,6.742272 -9.118851,6.742272 -2.659718,0 -3.058065,0.500394 -2.388197,3 0.442183,1.65 0.812161,4.05 0.822175,5.333333 0.01437,1.841163 1.213477,2.349544 5.684873,2.410189 3.116667,0.04227 8.666667,1.520884 12.333334,3.285808 7.183685,3.457815 8.684842,3.858408 8.633882,2.304003 z M 200.51978,29.527252 c -0.10454,-7.929212 -0.68092,-11.477599 -2,-12.312916 -2.8116,-1.780482 -20.39164,-1.475806 -22.25311,0.385664 -1.93253,1.932536 -2.11935,15.527071 -0.27985,20.365303 1.30048,3.42054 1.49402,3.466498 13,3.086799 l 11.67985,-0.385436 z"
       id="path187" />
  </g>
</svg>
