<?xml version="1.0" encoding="UTF-8" standalone="no"?>
<!-- Created with Inkscape (http://www.inkscape.org/) -->

<svg
   version="1.1"
   id="svg2"
   width="206.66667"
   height="276"
   viewBox="0 0 206.66667 276"
   xmlns="http://www.w3.org/2000/svg"
   xmlns:svg="http://www.w3.org/2000/svg">
  <defs
     id="defs6" />
  <g
     id="g8">
    <path
       style="fill:#000000;stroke-width:1.33333"
       d="m 94.666668,270.75977 c -1.833333,-0.63834 -5.537861,-1.22044 -8.232283,-1.29353 -6.140746,-0.1666 -28.648693,-7.83467 -38.626984,-13.15955 -24.864495,-13.26885 -49.0065635,-36.26938 -42.3728245,-40.36926 0.8740697,-0.5402 3.458864,-0.44258 5.7439875,0.21696 2.285123,0.65952 11.95477,0.84017 21.488103,0.40142 l 17.333334,-0.7977 7.288371,4.78761 c 4.008604,2.63319 8.001834,4.78761 8.873848,4.78761 0.872013,0 4.124449,-2.12125 7.227636,-4.71389 l 5.642157,-4.71388 60.404737,0.14844 c 63.92329,0.15708 64.62545,0.22672 62.66575,6.21535 -1.24439,3.80266 -13.05458,15.51521 -26.27063,26.05344 -6.23063,4.96817 -21.69017,13.26529 -27.83187,14.93733 -1.83333,0.49912 -4.53333,1.41604 -6,2.03763 -12.0684,5.11461 -39.30463,8.25754 -47.333332,5.46202 z M 128.61347,258.08271 C 132.98421,256.93721 137.4261,256 138.48435,256 c 1.05824,0 5.73377,-1.8 10.39009,-4 4.65631,-2.2 9.06442,-4 9.79579,-4 0.73137,0 1.32977,-0.61485 1.32977,-1.36633 0,-0.75148 1.38647,-1.89347 3.08106,-2.53775 3.73537,-1.42019 13.40809,-9.94227 16.30793,-14.36799 l 2.10437,-3.21168 -51.69834,0.246 c -48.406053,0.23032 -51.915641,0.40666 -55.110676,2.76884 -1.876789,1.38758 -6.398543,2.86171 -10.048343,3.27586 -5.496852,0.62374 -7.735303,0.16134 -13.039887,-2.69364 -5.411276,-2.91242 -8.097963,-3.44372 -17.333333,-3.42782 l -10.929447,0.0188 6,5.42958 c 9.991675,9.04178 15.165035,12.13394 36.666667,21.91594 14.033823,6.38458 45.826809,8.43234 62.613469,4.03288 z M 62.000001,203.97759 c -7.66336,-3.10483 -14.369035,-9.8681 -19.949006,-20.12034 -5.679528,-10.43517 -6.081576,-22.99884 -1.488804,-46.52392 3.111431,-15.93736 3.498574,-20.99525 3.378472,-44.138714 -0.161774,-31.174009 1.900647,-40.968367 10.614311,-50.406964 2.76947,-2.999875 4.977566,-5.541681 4.90688,-5.648459 C 59.391161,37.03242 56.279026,36.8223 52.545984,36.672268 44.828985,36.362117 33.962823,31.533567 31.079718,27.133391 29.439702,24.630411 29.485382,23.369535 31.431646,17.419172 34.022957,9.4966976 36.277198,7.8683721 47.333334,5.9327705 56.11487,4.395384 59.52336,4.9488123 74.000001,10.262573 81.490736,13.012104 84.923847,15.298568 91.389771,21.844221 102.7112,33.305257 107.26243,42.047864 109.17061,56 c 3.34618,24.46658 1.14503,32.630687 -18.693153,69.33333 -0.594562,1.1 -4.511842,9.8 -8.705066,19.33334 -6.443544,14.64945 -7.709616,18.82828 -8.176688,26.9882 -0.546976,9.55586 -0.504674,9.70282 4.125828,14.33333 6.037702,6.03769 10.432938,6.1314 16.189739,0.34513 L 98.222536,182 97.898962,164 c -0.324663,-18.06047 1.761569,-31.89163 6.006888,-39.82408 1.90813,-3.56536 11.09017,-8.1042 16.4806,-8.14664 8.60924,-0.0678 18.78622,8.53423 22.04978,18.63739 0.82909,2.56666 1.64905,13.63172 1.82213,24.58901 0.30036,19.01491 0.48843,20.2572 4.12882,27.27372 2.09777,4.04325 5.2932,8.72212 7.10094,10.39749 6.5288,6.0507 -1.65521,11.41615 -9.53648,6.25215 -1.80833,-1.18487 -6.01017,-6.52205 -9.33744,-11.86043 l -6.04956,-9.70613 -0.43167,-15.80624 c -0.28093,-10.28689 -1.24695,-18.36695 -2.76648,-23.13957 -1.28415,-4.03334 -2.54811,-8.08334 -2.8088,-9 C 124.29699,132.75 122.67954,132 120.96335,132 c -4.80241,0 -7.05437,2.68684 -8.7461,10.43505 -2.10533,9.6425 -1.94894,18.26038 0.4143,22.83038 1.63624,3.16414 1.66622,4.04754 0.17925,5.28162 -0.9821,0.81507 -2.16228,4.22979 -2.62261,7.58827 -1.31557,9.59816 -5.254,16.92065 -12.132308,22.55691 -6.103245,5.00114 -6.669365,5.17802 -17.846205,5.57568 -9.188861,0.32693 -12.902648,-0.14018 -18.209676,-2.29032 z m 8.666667,-7.05762 c 0,-0.22734 -2.226463,-4.87734 -4.947696,-10.33333 -3.920396,-7.86027 -4.898139,-11.28155 -4.70902,-16.47761 0.131266,-3.60671 0.857734,-7.17671 1.614362,-7.93334 0.756628,-0.75664 1.375687,-2.43533 1.375687,-3.73045 0,-1.29512 0.852508,-4.32512 1.894463,-6.73333 1.041954,-2.40822 3.52863,-8.57858 5.525945,-13.71191 1.997315,-5.13333 7.630768,-17.43333 12.518784,-27.33333 4.888016,-9.9 9.641998,-20.700003 10.564403,-24.000003 0.922407,-3.3 2.236446,-7.842599 2.920087,-10.094664 1.920135,-6.325342 1.525176,-12.22422 -1.667535,-24.905336 -3.005853,-11.938942 -4.969812,-15.056732 -4.619411,-7.333334 0.176432,3.888867 -0.1453,4.289444 -3.136736,3.905428 -6.792393,-0.871949 -18.793575,-0.264665 -21.302251,1.077938 -4.604172,2.464077 -9.318693,10.078236 -10.677892,17.245261 -0.749798,3.953671 -0.996218,15.841063 -0.566889,27.346937 0.679736,18.216713 0.397149,22.298813 -2.692113,38.888793 -1.898363,10.1946 -3.951153,20.742 -4.561754,23.43867 -1.110532,4.90456 0.0057,14.32771 2.884013,24.34596 1.86503,6.49148 6.817581,12.53804 12.184117,14.87555 3.8397,1.67248 7.399436,2.37586 7.399436,1.4621 z M 78.000001,26.666667 c -0.453225,-0.733334 -1.388634,-1.333334 -2.078689,-1.333334 -0.690055,0 -1.254644,0.6 -1.254644,1.333334 C 74.666668,27.4 75.602079,28 76.745357,28 c 1.143279,0 1.70787,-0.6 1.254644,-1.333333 z m -4.968248,-1.57141 c -0.532929,-1.598788 -1.766495,-2.373852 -7.698419,-4.837009 -8.386482,-3.482381 -20,-3.204749 -20,0.478117 0,2.839008 2.1386,3.469924 13.576404,4.005224 5.929468,0.277504 11.100468,0.824172 11.491112,1.214816 1.321656,1.321655 3.158133,0.720539 2.630903,-0.861148 z"
       id="path30" />
  </g>
</svg>
