<?xml version="1.0" encoding="UTF-8" standalone="no"?>
<!-- Created with Inkscape (http://www.inkscape.org/) -->

<svg
   version="1.1"
   id="svg203"
   width="216"
   height="194.66667"
   viewBox="0 0 216 194.66667"
   xmlns="http://www.w3.org/2000/svg"
   xmlns:svg="http://www.w3.org/2000/svg">
  <defs
     id="defs207" />
  <g
     id="g209">
    <path
       style="fill:#000000;stroke-width:1.33333"
       d="M 98.367935,188.69442 C 79.959229,183.6272 70.168732,171.99428 67.28184,151.75843 66.450777,145.93304 69.017809,134.07616 71.992573,130 c 0.535183,-0.73333 1.347402,-2.90435 1.80493,-4.82449 0.457528,-1.92013 3.242528,-5.90181 6.188888,-8.84817 5.63191,-5.63191 11.895361,-8.25868 26.391759,-11.06818 7.14506,-1.38476 9.10745,-1.31678 13.33333,0.46186 2.72535,1.14708 6.45519,2.4053 8.28852,2.79605 7.92624,1.68936 15.33151,8.17272 20.44112,17.89631 7.90165,15.0369 8.17472,28.79904 0.85159,42.91996 -3.31139,6.38524 -16.11911,15.25314 -26.83303,18.57885 -10.02949,3.11327 -15.03312,3.27573 -24.091745,0.78223 z m 16.298735,-9.26615 c 0,-1.94264 -5.02368,-7.52631 -13.35371,-14.84227 -2.55546,-2.24437 -8.072163,-7.79437 -12.259337,-12.33333 -7.286199,-7.89836 -11.72029,-10.3318 -11.72029,-6.43213 0,2.31768 33.275267,35.5128 35.598537,35.5128 0.95414,0 1.7348,-0.85728 1.7348,-1.90507 z M 87.214435,169.21158 C 84.415505,166.34522 81.647241,164 81.062736,164 c -2.321933,0 -0.803319,2.8236 4.451715,8.27719 3.692886,3.83243 5.724949,5.13205 6.151698,3.93439 0.350487,-0.98364 -1.652785,-4.13364 -4.451714,-7 z m 42.118895,5.55765 c 0,-1.08637 -2.19387,-3.78753 -9.33333,-11.49145 -1.1,-1.18698 -4.7,-4.55328 -8,-7.48068 -3.3,-2.92742 -10.87669,-10.07934 -16.837087,-15.89316 -11.165545,-10.89099 -13.82958,-12.43259 -13.82958,-8.00282 0,1.57202 7.725083,9.93955 19.920587,21.57726 21.34366,20.36745 28.07941,25.47474 28.07941,21.29085 z M 140,165.50332 c 0,-2.78801 -44.092381,-46.16998 -46.926057,-46.16998 -0.957335,0 -1.919334,1.25075 -2.137775,2.77944 -0.291117,2.0373 2.379011,5.23816 10.000002,11.98766 5.71844,5.06452 10.93382,10.11378 11.58973,11.22056 1.80788,3.05062 16.93592,17.2231 21.4741,20.11771 5.00217,3.19055 6,3.20129 6,0.0647 z m 4,-14.25342 c 0,-2.57123 -26.39157,-29.91656 -28.87311,-29.91656 -4.43215,0 -0.79011,5.62801 11.84929,18.31057 C 140.26113,152.97422 144,155.5232 144,151.2499 Z m -3.35839,-20.91656 c -0.9992,-3.43986 -7.06986,-8.98356 -9.84826,-8.99338 -1.90379,-0.007 -1.7475,0.22569 5.87332,8.73443 3.4872,3.89351 5.06046,3.996 3.97494,0.25895 z M 112,120.14771 c 0,-0.65209 -1.15741,-2.60209 -2.57202,-4.33333 -2.13133,-2.60838 -2.87381,-2.84593 -4.33334,-1.3864 -1.45952,1.45952 -1.22197,2.202 1.38641,4.33333 3.37812,2.7603 5.51895,3.29809 5.51895,1.3864 z M 63.333333,56.71629 C 46.178792,52.795609 36.186585,49.992226 24.964345,45.951605 8.5045176,40.025162 2.6666667,36.19789 2.6666667,31.333334 c 0,-1.606019 1.05,-3.839651 2.3333333,-4.96363 2.8708616,-2.514376 15.90034,-7.151528 27.215436,-9.685892 4.648177,-1.041101 12.051231,-2.775554 16.451231,-3.854339 7.513978,-1.842266 12.552597,-2.691688 36.256838,-6.1122582 21.359215,-3.0821781 55.765125,-0.9642832 76.409825,4.7034942 15.68854,4.307115 33.82743,10.612153 41.73027,14.50535 6.54141,3.222512 8.35236,4.782819 8.66511,7.465795 0.34565,2.965259 -0.57667,3.836669 -7.33334,6.928563 -4.25078,1.945189 -9.97034,4.212628 -12.71013,5.038753 -2.73979,0.826125 -5.3252,2.058272 -5.74536,2.738104 -0.42016,0.679834 -2.75308,1.23606 -5.18427,1.23606 -2.43118,0 -7.04577,0.956168 -10.25464,2.124818 -3.20886,1.168649 -9.1343,2.623125 -13.16764,3.232168 -42.77701,6.459434 -71.859291,7.086242 -93.999997,2.02597 z M 124,47.34943 c 10.63333,-1.061056 23.83333,-2.795321 29.33333,-3.853925 5.5,-1.058603 15.4,-2.944415 22,-4.190694 6.6,-1.246278 13.35,-2.786838 15,-3.423466 3.56834,-1.376792 3.95168,-4.610204 0.66667,-5.623156 -10.64073,-3.281127 -27.52668,-7.508711 -33,-8.261917 -3.66667,-0.504584 -9.96667,-1.731853 -14,-2.727265 C 139.96667,18.273595 128.26667,17.071471 118,16.59762 96.893271,15.623456 76.672083,17.64431 49.987424,23.394622 41.194341,25.289455 32.2,27.141708 30,27.510742 c -5.323297,0.892942 -10,3.262487 -10,5.066699 0,1.904338 9.303597,5.899752 17.244887,7.405786 3.44427,0.653192 8.92319,1.790628 12.175378,2.527636 3.252187,0.737008 12.213068,2.27115 19.913068,3.409204 12.607404,1.863367 18.656027,2.470592 31.333337,3.145581 2.2,0.117133 12.7,-0.655162 23.33333,-1.716218 z"
       id="path231" />
  </g>
</svg>
