<?xml version="1.0" encoding="UTF-8" standalone="no"?>
<!-- Created with Inkscape (http://www.inkscape.org/) -->

<svg
   version="1.1"
   id="svg213"
   width="212"
   height="221.33333"
   viewBox="0 0 212 221.33333"
   xmlns="http://www.w3.org/2000/svg"
   xmlns:svg="http://www.w3.org/2000/svg">
  <defs
     id="defs217" />
  <g
     id="g219">
    <path
       style="fill:#000000;stroke-width:1.33333"
       d="m 11.162779,212.78682 c -3.8003171,-2.73696 -4.7386969,-8.15398 -1.8632729,-10.75621 1.2376269,-1.12004 2.6201489,-1.66652 3.0722699,-1.21439 1.603611,1.6036 31.396771,1.03572 33.412121,-0.63688 1.065434,-0.88422 2.331668,-3.71064 2.813855,-6.28092 0.482188,-2.57028 2.044952,-7.39865 3.472809,-10.7297 4.176882,-9.74427 3.263044,-17.2547 -4.651593,-38.22938 C 45.538536,139.95598 44,133.34752 44,130.25386 44,127.1602 42.850732,121.63749 41.446071,117.98118 35.532363,102.58787 30.463949,89.825419 29.274744,87.333332 25.703575,79.849624 22.680645,68.118666 21.957091,58.93602 21.512041,53.287875 20.218745,46.461553 19.083101,43.766413 17.896504,40.950349 17.312587,36.98067 17.710221,34.433079 19.568877,22.52492 22.906199,11.167875 25.229536,8.8445379 27.621925,6.452148 28.400412,6.3872576 35.819909,7.961782 c 8.425444,1.7880009 12.748036,1.4790059 19.793655,-1.4149245 3.666263,-1.5058877 4.925233,-1.4504892 8.776825,0.3862069 6.456456,3.0788696 10.736695,15.8521486 9.873851,29.4659786 -0.33468,5.280527 -1.029575,11.138906 -1.544211,13.018622 -0.855344,3.124154 -0.439786,3.579217 4.838802,5.298806 8.516693,2.77446 13.839097,6.784601 26.441169,19.921988 16.9422,17.661878 26.43182,30.090741 35.00199,45.843281 2.01776,3.70878 5.67457,8.86761 8.12624,11.46408 2.45168,2.59646 5.71865,6.82084 7.25996,9.38751 4.10274,6.83216 18.68942,20.32313 37.27848,34.47825 C 204.4674,185.55904 208,188.93289 208,191.41093 c 0,1.73905 -1.12043,3.76155 -2.48983,4.49443 -1.99509,1.06773 -3.89753,0.28224 -9.57414,-3.9531 -7.06058,-5.26789 -9.26936,-6.26686 -9.26936,-4.19226 0,2.41246 9.58113,12.08913 12.36094,12.48421 3.99304,0.56752 4.61691,6.25343 1.15494,10.52608 -2.55858,3.15771 -2.99847,3.22049 -19.73307,2.81624 -21.27184,-0.51385 -25.56863,-2.24003 -34.90591,-14.02293 -3.5871,-4.52666 -6.95866,-9.63182 -7.49233,-11.34482 -3.2,-10.27144 -15.1191,-29.03858 -17.07507,-26.88545 -0.33309,0.36667 0.1783,5.76667 1.13642,12 2.16067,14.0568 2.31976,21.33333 0.46642,21.33333 -2.58346,0 -6.98805,-2.94817 -10.31931,-6.90716 -2.37181,-2.81873 -4.25194,-3.78981 -6.77158,-3.4975 -3.46897,0.40244 -3.48937,0.47388 -3.71541,13.01168 -0.18666,10.35317 -0.64937,12.91564 -2.588175,14.33333 -1.795774,1.31311 -11.156312,1.72983 -39.106042,1.741 -20.209837,0.008 -38.84516,0.34485 -41.411826,0.74841 -3.07525,0.48352 -5.63421,0.0369 -7.503888,-1.3096 z M 90.333333,199.6546 c 2.12507,-1.67599 2.138072,-11.90632 0.02927,-23.02298 -1.711252,-9.02092 -3.965816,-11.77216 -3.522331,-4.29829 0.386202,6.50847 -1.431764,12.86595 -4.085182,14.28601 -1.841416,0.9855 -3.469512,0.24894 -7.392548,-3.34442 -5.54837,-5.08211 -6.409238,-5.38422 -8.382264,-2.94159 -2.438102,3.01839 -8.5039,19.6134 -7.665139,20.97055 1.035697,1.6758 28.664875,0.2067 31.018203,-1.64928 z m 93.439867,0.94221 c 1.48491,-1.23364 -14.58072,-21.06673 -23.7732,-29.34815 -8.52031,-7.67585 -17.89344,-13.47349 -23.47595,-14.52078 -2.6381,-0.49491 -5.05551,-0.64087 -5.37203,-0.32435 -1.35493,1.35493 15.37267,31.23524 20.84798,37.24048 5.34347,5.86063 6.80244,6.69384 13.33333,7.61455 6.28667,0.88629 17.04108,0.50034 18.43987,-0.66175 z m -71.00786,-28.26348 c -2.9804,-12.4344 -3.4924,-16.19268 -2.81727,-20.67973 0.70304,-4.67247 0.45867,-5.1405 -3.59689,-6.88876 -2.39315,-1.03164 -6.541857,-2.82576 -9.219352,-3.98695 -2.677495,-1.16117 -5.827495,-2.11123 -7,-2.11123 -1.172505,0 -2.13874,-0.75 -2.147188,-1.66666 -0.0084,-0.91667 -5.933212,-7.06667 -13.166144,-13.66667 -7.232931,-6.6 -14.791973,-14.51669 -16.797872,-17.59265 -2.005899,-3.07597 -4.781133,-6.618957 -6.167189,-7.873321 -1.386056,-1.254363 -2.520102,-3.198998 -2.520102,-4.321408 0,-1.122412 -1.085493,-3.27942 -2.412209,-4.793351 -7.324961,-8.358605 -5.522101,-15.98156 3.490124,-14.757137 4.883484,0.663481 6.781775,-0.06697 17.31352,-6.662131 5.180421,-3.24407 5.335649,-4.349713 0.771508,-5.49524 -2.19728,-0.551482 -6.956627,0.252615 -12.763985,2.156491 -7.910374,2.593324 -9.997484,2.814991 -14.317635,1.520643 -2.781556,-0.833375 -5.437763,-1.515227 -5.902683,-1.515227 -1.719284,0 -0.765789,6.631092 1.82136,12.666667 C 38.8,80.08826 40,83.977076 40,85.308479 c 0,1.331402 1.8,5.842586 4,10.024853 2.2,4.182267 4,8.383608 4,9.336318 0,0.95271 6.626845,8.24178 14.726321,16.19794 8.099478,7.95616 17.714244,18.52686 21.36615,23.49043 7.154132,9.72374 14.574196,23.33803 14.574196,26.74066 0,2.9465 3.771983,4.8132 9.822103,4.86077 4.95449,0.0389 5.12118,-0.1024 4.27657,-3.62612 z m -36.146724,-9.79116 c -0.03732,-6.63532 -0.885337,-10.21523 -3.798879,-16.037 -3.537325,-7.06823 -13.449398,-17.17184 -16.846288,-17.17184 -1.554716,0 -0.710956,6.43652 1.39255,10.62291 2.07212,4.1239 5.202437,12.90548 7.25401,20.34988 1.591655,5.77552 2.992794,8.12026 5.74266,9.61012 2.000532,1.08385 4.237331,1.79008 4.970664,1.56938 0.733334,-0.2207 1.311711,-4.24525 1.285283,-8.94345 z m 69.381664,-14.54128 c -0.81051,-2.55369 -7.72885,-13.73697 -11.96077,-19.33423 -2.60638,-3.44725 -7.77741,-10.74883 -11.83758,-16.71483 C 111.98587,96.940369 83.399881,66.595032 79.590667,66.718026 c -0.874867,0.02825 -2.79408,1.964534 -4.264919,4.302857 -1.586425,2.522081 -5.885156,5.905889 -10.567751,8.318558 -4.341424,2.236884 -8.112832,4.725063 -8.380908,5.529288 -0.268074,0.804226 0.952998,3.187763 2.713492,5.296748 1.760496,2.108987 4.160135,5.706026 5.33253,7.993418 C 69.795135,108.63995 90.478913,128.0222 102,133.37125 c 14.83206,6.88629 21.57543,9.69671 28.81843,12.01056 4.36584,1.39472 8.9677,3.13613 10.2264,3.8698 3.81996,2.22664 5.89305,1.7034 4.95545,-1.25072 z M 54.267181,54.444926 C 55.220231,53.653963 56,50.980281 56,48.503406 c 0,-3.667607 0.513059,-4.503407 2.764432,-4.503407 4.287093,0 2.691195,-4.572972 -1.775833,-5.088562 -3.340171,-0.385528 -3.655266,-0.03756 -3.655266,4.036657 0,4.844453 -3.127302,10.385239 -5.861585,10.385239 -2.218751,0 -4.805081,-5.732738 -4.805081,-10.650715 0,-5.1952 -1.981899,-6.081471 -6.192687,-2.769265 -1.925148,1.514322 -4.319355,2.753313 -5.320459,2.753313 -1.001102,0 -1.820188,0.511271 -1.820188,1.136156 0,2.351841 6.207656,10.225383 9.373354,11.888782 3.591316,1.88704 12.660058,1.160468 15.560494,-1.246678 z M 34.101587,27.835629 c 0.58388,-0.944737 3.226826,-1.225161 7.158401,-0.759524 8.045195,0.952835 17.657756,-0.322872 17.012779,-2.257807 -0.27202,-0.81606 -3.444674,-1.9006 -7.050342,-2.410086 -3.605666,-0.509487 -8.482865,-1.282655 -10.838218,-1.71815 -3.245979,-0.600168 -4.940184,-0.134085 -7,1.925731 -2.812116,2.812116 -3.66261,6.71754 -1.462896,6.71754 0.690054,0 1.671178,-0.673967 2.180276,-1.497704 z"
       id="path2063" />
  </g>
</svg>
