<?xml version="1.0" encoding="UTF-8" standalone="no"?>
<!-- Created with Inkscape (http://www.inkscape.org/) -->

<svg
   version="1.1"
   id="svg193"
   width="210.66667"
   height="209.33333"
   viewBox="0 0 210.66667 209.33333"
   xmlns="http://www.w3.org/2000/svg"
   xmlns:svg="http://www.w3.org/2000/svg">
  <defs
     id="defs197" />
  <g
     id="g199">
    <path
       style="fill:#000000;stroke-width:1.33333"
       d="m 72.606061,199.39393 c -4.019809,-4.0198 -4.110543,-7.18851 -0.41368,-14.44705 4.87689,-9.57544 9.208567,-14.18752 17.87897,-19.03628 11.204219,-6.26576 18.954039,-7.11791 30.323729,-3.33431 4.80504,1.59901 9.45531,3.77348 10.33394,4.83216 0.87862,1.05869 2.37362,1.92488 3.32221,1.92488 2.04391,0 8.60503,8.12945 11.73345,14.53819 2.97251,6.0893 2.86898,13.79029 -0.223,16.58849 -2.13318,1.93051 -6.64581,2.20665 -36.0606,2.20665 H 75.878789 Z M 132.8772,188.59882 c 1.09334,-2.84918 -4.17888,-8.16808 -12.08485,-12.19182 -5.63275,-2.86679 -7.57338,-3.20006 -13.97609,-2.40008 -13.535293,1.69112 -22.816259,7.45622 -22.816259,14.17289 0,2.33497 1.468336,2.48685 24.041849,2.48685 20.4911,0 24.15904,-0.3054 24.83535,-2.06784 z M 76.606061,130.0606 c -4.019809,-4.01981 -4.110543,-7.18851 -0.41368,-14.44705 4.87689,-9.57545 9.208567,-14.18752 17.87897,-19.036285 11.204219,-6.265754 18.954039,-7.117902 30.323729,-3.334313 4.80504,1.599014 9.45531,3.773493 10.33394,4.832173 0.87862,1.05868 2.37362,1.924873 3.32221,1.924873 2.04391,0 8.60503,8.129462 11.73345,14.538182 2.97251,6.08931 2.86898,13.7903 -0.223,16.5885 -2.13318,1.93051 -6.64581,2.20665 -36.0606,2.20665 H 79.878789 Z M 136.8772,119.26549 c 1.09334,-2.84919 -4.17888,-8.16807 -12.08485,-12.19183 -5.63275,-2.86678 -7.57338,-3.20005 -13.97609,-2.40008 -13.535293,1.69112 -22.816259,7.45623 -22.816259,14.1729 0,2.33497 1.468336,2.48685 24.041849,2.48685 20.4911,0 24.15903,-0.3054 24.83535,-2.06784 z m 62.3224,-13.61924 c -2.06486,-1.37875 -3.91169,-5.17442 -7.6749,-15.773761 C 182.37262,64.095032 181.15342,61.854378 169.70554,49.773207 158.75827,38.220325 156.04591,37.293678 144.1276,41.034777 131.14551,45.10979 103.73362,47.027475 87.080524,45.025685 79.004215,44.05487 74.568495,42.575234 62.882732,36.953961 57.99369,34.602157 56.676088,34.435665 54.366725,35.877886 c -10.046194,6.273952 -19.34573,9.455447 -27.638349,9.455447 -5.423028,0 -15.466479,-4.822676 -18.75809,-9.007282 -1.8545807,-2.357717 -2.6369526,-5.397157 -2.6369526,-10.244307 0,-6.070192 0.5337079,-7.409256 4.476045,-11.23032 C 15.147867,9.6771572 27.775736,5.7392422 31.919046,7.9566745 c 1.414771,0.7571623 4.676345,1.3766587 7.247944,1.3766587 2.571597,0 5.051752,0.608574 5.511453,1.3523868 1.272354,2.058712 10.865627,6.647613 13.89709,6.647613 1.474971,0 6.148873,-1.565283 10.386451,-3.478405 16.486468,-7.4430848 26.559675,-8.5343821 52.613776,-5.7 10.8442,1.1797227 15.09279,2.285402 20.49343,5.333333 9.86813,5.569225 17.306,5.340052 23.7438,-0.731585 6.22643,-5.8722662 9.46864,-6.8674009 13.58563,-4.1698428 4.77366,3.1278258 4.06404,5.7638648 -3.39862,12.6246358 -3.66666,3.370944 -6.66666,6.481385 -6.66666,6.912093 0,0.430707 3.45,4.41378 7.66666,8.851272 4.21667,4.437492 9.23879,10.083492 11.16026,12.546667 4.55374,5.837529 14.50641,25.698343 14.50641,28.947932 0,1.390746 0.92483,5.149863 2.05517,8.353594 4.55768,12.917873 1.45788,23.483963 -5.52224,18.823223 z M 133.66667,31.856091 c 4.90799,-1.26843 7.13457,-5.189425 2.94688,-5.189425 -1.12921,0 -4.31528,-1.154072 -7.08015,-2.564604 -10.63772,-5.426956 -33.781202,-5.97017 -50.200065,-1.178274 -7.598369,2.217608 -9.470751,3.847328 -6.417585,5.585861 9.071759,5.165634 15.539745,6.139942 35.75092,5.385354 11,-0.410686 22.25,-1.328197 25,-2.038912 z M 31.518955,32.018206 c 1.568759,-0.01001 4.268759,-1.218206 6,-2.684873 L 40.666667,26.666666 37.518955,24 C 33.928139,20.957946 22.922506,20.277494 20.266667,22.933333 16.101306,27.098694 20.20748,34.079525 26,32.680481 c 1.466667,-0.354238 3.950196,-0.652262 5.518955,-0.662275 z"
       id="path370" />
  </g>
</svg>
