<?xml version="1.0" encoding="UTF-8" standalone="no"?>
<!-- Created with Inkscape (http://www.inkscape.org/) -->

<svg
   version="1.1"
   id="svg183"
   width="445.33334"
   height="148"
   viewBox="0 0 445.33334 148"
   xmlns="http://www.w3.org/2000/svg"
   xmlns:svg="http://www.w3.org/2000/svg">
  <defs
     id="defs187" />
  <g
     id="g189">
    <path
       style="fill:#000000;stroke-width:1.33333"
       d="m 392.66667,141.12451 c -7.86149,-2.50982 -15.4667,-3.92479 -35.33333,-6.57387 -14.72769,-1.96384 -15.6124,-2.24901 -19.29371,-6.21914 -3.93642,-4.24526 -4.71904,-13.5545 -1.37296,-16.3315 3.65,-3.02923 2.08815,-4.67473 -6.87301,-7.24109 -7.9045,-2.26374 -9.25071,-2.32959 -12.33334,-0.60326 -2.76069,1.54605 -3.61168,3.2465 -4.2089,8.41034 -1.39176,12.03353 -11.19091,16.67363 -29.69932,14.06325 -5.98699,-0.84439 -15.38543,-2.04849 -20.88543,-2.67578 -20.78379,-2.37045 -21.95961,-3.42286 -21.98328,-19.67598 -0.0196,-13.4437 0.2162,-13.253635 -16.72004,-13.477907 -7.33839,-0.09717 -10.88137,0.458751 -13.17868,2.06785 -2.95509,2.069829 -3.09364,2.773161 -2.32871,11.822327 0.68704,8.12763 0.456,9.91968 -1.48798,11.54143 -4.3883,3.66092 -9.84262,5.16566 -16.09463,4.4402 -3.41368,-0.3961 -10.40668,-0.24673 -15.54001,0.33193 -5.13334,0.57867 -12.03334,0.6106 -15.33334,0.071 -3.3,-0.53964 -8.8539,-1.33946 -12.34201,-1.77738 -5.25169,-0.65934 -6.68436,-1.45826 -8.33333,-4.64701 -1.09523,-2.11793 -1.99132,-5.10449 -1.99132,-6.63678 0,-4.52792 -5.17684,-13.332299 -8.81344,-14.989245 -2.53152,-1.153435 -6.7418,-1.162122 -16.8991,-0.03487 -15.255809,1.693088 -17.837695,3.3456 -16.162004,10.344345 2.140412,8.93972 0.543983,17.19112 -3.773029,19.50151 -1.622179,0.86816 -7.465094,1.7445 -12.984258,1.94742 -5.519163,0.20292 -13.247912,1.00635 -17.174999,1.78541 -3.927086,0.77906 -7.609301,1.12652 -8.182699,0.77214 -0.573398,-0.35438 -4.37096,0.0241 -8.439026,0.8411 -11.034622,2.21607 -12.947998,1.27465 -17.925817,-8.81984 -2.371765,-4.80969 -4.312301,-10.1779 -4.312301,-11.92936 C 22.666667,103.90066 15.58969,67.498648 12.667739,56 9.5937851,43.903179 6.6689201,28.892065 6.667758,25.206651 c -0.00191,-6.048474 4.319712,-8.436716 17.133837,-9.468616 6.342456,-0.510747 19.053327,-1.958022 28.246379,-3.216165 9.193052,-1.258143 18.361663,-1.874157 20.374692,-1.368919 4.234995,1.062916 8.551958,7.390613 9.674322,14.180382 0.424276,2.566667 1.436377,6.407354 2.249115,8.53486 l 1.477702,3.868194 24.023425,-0.870183 c 13.87023,-0.502411 24.61427,-1.464541 25.42143,-2.276495 0.79318,-0.797894 1.24964,-5.73036 1.05505,-11.401017 -0.37056,-10.799121 0.81575,-14.5242715 5.05371,-15.8693476 1.49245,-0.4736899 13.70144,-0.9643247 27.13105,-1.0902993 18.67907,-0.1752167 24.94465,-0.6668018 26.66065,-2.0917411 5.39059,-4.47624251 12.36999,3.7946201 13.7276,16.267715 0.816,7.497076 3.59526,13.216996 6.16328,12.684508 0.88367,-0.18323 5.27522,0.46137 9.759,1.432444 6.07126,1.31488 8.8569,1.38852 10.91235,0.288476 1.518,-0.812412 4.63889,-1.477114 6.93532,-1.477114 6.82796,0 9.33333,-2.088469 9.33333,-7.780245 0,-2.760865 -0.61288,-5.632635 -1.36196,-6.381711 -0.8487,-0.848706 -0.95368,-3.335894 -0.27857,-6.599999 l 1.08337,-5.2380447 8.40015,-0.4001118 c 4.84928,-0.2309788 11.02595,0.4321285 14.61191,1.5686878 7.31686,2.3190567 18.56693,2.6605317 28.09862,0.8528815 5.20699,-0.9874832 7.8383,-0.8537951 11.13256,0.5656084 2.37266,1.0223058 6.21246,2.5599038 8.53287,3.4168848 7.21575,2.664923 8.34468,10.135247 3.76023,24.881889 -1.62262,5.219419 6.67109,6.928102 29.02083,5.978908 l 3.66666,-0.155722 V 33.401424 c 0,-9.455764 0.31284,-10.808359 2.80876,-12.144136 3.08222,-1.649549 11.59959,-1.113228 17.85791,1.124476 2.2,0.786624 7,1.983451 10.66667,2.659615 6.19773,1.142914 26.87702,5.73435 38.27333,8.497853 6.57396,1.594128 8.72911,4.010459 9.77044,10.954565 0.91483,6.10053 0.62095,7.17067 -13.41211,48.839536 -3.33408,9.899997 -7.25758,22.499997 -8.7189,27.999997 -3.97976,14.9787 -5.16488,17.23942 -10.43696,19.90955 -4.67262,2.36653 -5.03623,2.36317 -12.80914,-0.1184 z m 0.33334,-26.77507 c 0.91666,-0.73844 1.66666,-2.39569 1.66666,-3.68277 0,-1.28708 0.9,-3.08708 2,-4 1.1,-0.91292 2.0037,-2.33639 2.00822,-3.16326 0.004,-0.82688 0.96702,-3.30341 2.1389,-5.50341 3.37127,-6.328995 7.27486,-18.01878 8.68222,-26 0.71121,-4.033333 1.86556,-8.375192 2.56522,-9.648575 3.96788,-7.221534 -0.75686,-13.018092 -10.61097,-13.018092 -3.27603,0 -9.39757,-0.710764 -13.60345,-1.579474 -8.84951,-1.827834 -11.8468,-0.454886 -11.8468,5.426562 0,2.357635 -0.98108,3.955335 -2.97003,4.836742 -1.98735,0.88069 -3.56881,3.453341 -4.77975,7.775444 -1.58408,5.653966 -2.16962,6.359426 -4.69662,5.658413 -1.58782,-0.440472 -6.9851,-1.401809 -11.99396,-2.136304 -5.00886,-0.734495 -10.10886,-1.865272 -11.33334,-2.512839 -1.22446,-0.647568 -8.22631,-1.5037 -15.55964,-1.902517 -7.33333,-0.398816 -15.26164,-1.487677 -17.61845,-2.419691 -7.06332,-2.793222 -9.60864,-13.488724 -4.94192,-20.766092 2.33878,-3.647157 2.43612,-7.642152 0.22704,-9.318342 C 297.35674,28.619132 272.68748,26.512523 269.6,29.6 c -2.21668,2.216685 -2.00244,7.072815 0.4,9.066667 2.45566,2.038012 2.70556,12.721444 0.33334,14.249585 -4.82568,3.108605 -16.9724,4.035453 -36.33334,2.772397 -16.6208,-1.084298 -31.98842,-1.958154 -40.28194,-2.290573 -2.09726,-0.08407 -4.60695,-9.499625 -4.60695,-17.283785 0,-3.35985 -0.61501,-6.849863 -1.36669,-7.755584 -0.86712,-1.044816 -4.85188,-1.61094 -10.90115,-1.548754 -5.24395,0.05391 -11.72728,-0.313361 -14.4074,-0.816153 -4.13856,-0.776399 -5.10351,-0.483331 -6.40292,1.94464 -1.07799,2.014233 -1.13528,4.119715 -0.19396,7.126852 0.73481,2.347423 1.52165,7.800808 1.74852,12.118633 L 158,55.034516 l -5.33333,1.533312 c -2.93333,0.843323 -15.15764,1.671072 -27.16514,1.839445 -12.00749,0.168374 -22.50749,0.734494 -23.33333,1.258044 -0.82584,0.523551 -6.901532,0.786672 -13.501532,0.584714 -8.657168,-0.264908 -13.021422,0.184233 -15.666667,1.612314 l -3.666667,1.979514 -0.128568,-8.92093 C 69.134054,50.014419 68.384054,42.7 67.5381,38.666667 l -1.538099,-7.333334 -6,0.148842 c -3.3,0.08187 -11.305246,0.624881 -17.789434,1.206706 -14.163339,1.270876 -15.326367,2.540696 -12.886796,14.070091 0.842693,3.982565 1.855876,9.196589 2.251517,11.586719 0.39564,2.39013 1.253054,4.675541 1.905363,5.078689 0.65231,0.403149 1.186016,2.677588 1.186016,5.054309 0,2.376722 0.61254,4.933851 1.361202,5.682512 0.74866,0.74866 1.7437,5.51866 2.211198,10.6 1.167022,12.684608 4.434558,18.689059 10.823319,19.889019 12.144782,2.28107 25.796899,-0.37761 26.72645,-5.20484 0.270561,-1.405041 -0.143832,-4.705041 -0.920872,-7.333333 -0.77704,-2.628292 -1.652844,-7.507476 -1.946232,-10.842631 l -0.533431,-6.063919 6.352546,-1.509002 c 3.65313,-0.867775 10.675728,-1.18204 16.526306,-0.739563 6.468257,0.489193 11.246837,0.218112 13.119967,-0.744275 1.75838,-0.903426 11.92662,-1.65461 25.22056,-1.863185 C 159.26215,69.946968 156.566,68.225744 158.1228,86 c 0.51386,5.866667 1.59643,11.107479 2.40574,11.646249 2.55902,1.703596 16.28906,1.099836 21.14692,-0.929908 5.50794,-2.301366 6.3434,-3.973208 5.43965,-10.885482 -1.05068,-8.036106 1.26737,-12.226498 8.54616,-15.449087 6.03719,-2.672889 7.1316,-2.732552 23.0054,-1.254148 9.16667,0.853737 22.85049,1.549277 30.40849,1.545645 l 13.74183,-0.0066 3.92484,4.297148 c 4.63372,5.073276 4.78985,6.838656 1.28745,14.557246 -3.52848,7.776082 -3.40554,8.559044 1.63739,10.428398 2.38333,0.883469 5.37519,2.156259 6.64857,2.828429 4.32496,2.28295 8.4571,1.2612 12.73054,-3.147868 2.32956,-2.403489 4.62474,-6.315975 5.10044,-8.694413 0.47568,-2.378438 1.38738,-4.647356 2.026,-5.042042 0.63861,-0.394686 1.16112,-2.103694 1.16112,-3.797798 0,-4.191115 7.83553,-5.605942 13.84045,-2.499108 9.06519,4.690158 25.02944,7.310582 26.82622,4.403341 1.33072,-2.153156 5.96894,-1.537035 9.99141,1.327219 2.67679,1.906037 4.89545,2.42874 7.82344,1.843144 5.74184,-1.148368 10.40768,0.320602 11.25008,3.541918 0.39429,1.507799 0.14792,6.759198 -0.54751,11.669777 -1.116,7.88036 -0.98886,9.1298 1.08314,10.64489 1.29116,0.94411 3.85922,1.40035 5.70682,1.01386 1.8476,-0.3865 4.85928,0.14385 6.69262,1.17854 3.45534,1.95011 10.04692,1.50903 13,-0.86991 z"
       id="path509" />
  </g>
</svg>
