<?xml version="1.0" encoding="UTF-8" standalone="no"?>
<!-- Created with Inkscape (http://www.inkscape.org/) -->

<svg
   version="1.1"
   id="svg173"
   width="218.66667"
   height="220"
   viewBox="0 0 218.66667 220"
   xmlns="http://www.w3.org/2000/svg"
   xmlns:svg="http://www.w3.org/2000/svg">
  <defs
     id="defs177" />
  <g
     id="g179">
    <path
       style="fill:#000000;stroke-width:1.33333"
       d="m 42.649823,213.46235 c -6.833066,-0.96306 -20.335296,-9.67675 -25.208845,-16.26858 -4.094131,-5.53761 -9.39676,-21.08101 -8.2496588,-24.18192 0.5065192,-1.36925 2.3697668,-3.21186 4.1405498,-4.09469 1.770783,-0.88284 3.579415,-3.10036 4.019182,-4.92783 0.866387,-3.6003 1.579151,-3.71561 15.880504,-2.56908 L 40.463111,162 l 1.934391,-6.66667 c 2.741359,-9.4478 2.652408,-43.2524 -0.152616,-57.999997 C 36.31501,66.156644 34.811602,62.174744 28.085046,59.829855 26.04043,59.117097 23.684862,57.035565 22.850448,55.204229 20.387454,49.798544 20.972324,40.212893 24,36.363828 29.549014,29.309401 25.054895,26.960217 15.651754,32 1.0913444,39.803912 -1.6941572,30.638032 11.169585,17.251124 c 3.90375,-4.062515 7.365099,-8.1885096 7.691889,-9.1688781 0.869413,-2.6082376 16.247259,-4.4250238 22.71454,-2.6835656 7.932701,2.1360546 10.899255,5.7605367 9.888481,12.0815707 -0.795282,4.973424 -0.678114,5.186721 2.853082,5.193852 7.283801,0.01471 13.427153,2.72014 18.217815,8.022829 2.638868,2.920913 4.797943,6.090809 4.797943,7.044216 0,0.953405 3.346762,7.063905 7.43725,13.578889 4.09049,6.514983 8.921844,14.583195 10.736347,17.92936 3.989367,7.356882 13.626788,21.483143 16.774028,24.586888 1.25452,1.237191 2.62511,4.480151 3.04574,7.206575 0.42062,2.72643 1.71098,6.75714 2.86745,8.95714 3.70142,7.04135 5.77659,15.77147 5.79142,24.36407 l 0.0144,8.36408 3.66667,-2.29387 c 2.01667,-1.26161 3.91354,-2.47233 4.21528,-2.69047 0.30174,-0.21813 0.76574,-7.35105 1.0311,-15.85094 0.36385,-11.65452 1.08858,-16.65567 2.94757,-20.34027 3.6939,-7.321517 7.10552,-24.574995 7.79112,-39.401875 0.45298,-9.796461 1.25969,-14.248781 3.1406,-17.333333 1.39206,-2.282899 2.53328,-4.994091 2.53601,-6.024871 0.003,-1.03078 1.53552,-3.88078 3.40617,-6.333333 L 156.13571,28 152.40119,27.90255 c -4.89573,-0.12776 -11.25521,-3.927315 -13.63148,-8.144318 -1.713,-3.039944 -1.62024,-3.755036 0.95651,-7.37374 2.51649,-3.5340834 3.88662,-4.1131767 11.60198,-4.903639 20.28998,-2.078768 40.38744,9.682467 46.7951,27.384942 2.95864,8.173845 2.55246,23.234675 -0.81456,30.203609 -1.45314,3.007648 -2.64207,6.074739 -2.64207,6.815759 0,1.839173 -13.00063,26.865311 -15.27611,29.406417 -4.00344,4.47078 -17.3101,25.05276 -19.73822,30.52992 -2.32462,5.2437 -2.37682,6.02545 -0.52594,7.87633 1.85087,1.85086 2.95802,1.76976 11.15478,-0.81718 7.22914,-2.28156 10.05444,-2.60289 13.74272,-1.56305 7.40089,2.08655 10.72258,4.30105 12.9526,8.63525 1.14526,2.22594 4.6624,7.07475 7.81582,10.77515 3.15344,3.7004 6.3652,8.38945 7.13727,10.42013 1.50245,3.95176 1.93903,24.57218 0.59443,28.07615 -1.17054,3.05036 -5.2136,2.58872 -7.50112,-0.85647 l -1.96904,-2.96553 -6.41603,6.41603 c -7.26345,7.26346 -21.55428,14.58344 -28.63783,14.66872 -2.56666,0.0309 -12.16666,-0.43878 -21.33333,-1.04372 -18.28359,-1.20663 -22.4795,-2.76684 -29.76929,-11.06946 C 114.78522,197.96823 112.35569,196 111.49842,196 c -0.85727,0 -2.6896,-2.1 -4.07184,-4.66667 -2.39705,-4.45105 -4.75991,-6.12996 -4.75991,-3.38212 0,2.57219 -16.57623,18.92238 -21.22349,20.93408 -12.437731,5.38404 -23.66717,6.70895 -38.793357,4.57706 z M 76.02286,199.19448 c 6.130849,-3.20573 13.310475,-9.93449 13.310475,-12.4746 0,-2.38167 -6.83222,-2.54707 -23.142771,-0.56027 -12.400183,1.51048 -17.545918,1.68503 -18.600001,0.63095 -0.801476,-0.80148 -5.518398,-1.45723 -10.482049,-1.45723 -10.108383,0 -10.389798,0.59522 -4.225184,8.93659 4.953287,6.70232 8.919881,8.09725 23.474546,8.25531 11.598869,0.126 13.751406,-0.23863 19.664984,-3.33075 z m 79.31048,1.80544 c 2.93333,0 6.92661,0.43412 8.87394,0.96471 5.34767,1.45709 18.64303,-4.94912 23.01963,-11.09174 L 190.69883,186 169.01608,184.95053 c -23.69529,-1.14688 -46.9791,-0.76529 -48.53989,0.79551 -1.4527,1.45269 11.71447,12.79077 14.93564,12.86088 1.50984,0.0328 3.90984,0.96488 5.33333,2.07116 1.61684,1.25653 3.83918,1.69436 5.92151,1.16663 1.83333,-0.46464 5.73333,-0.84479 8.66667,-0.84479 z M 93.333335,170.66667 C 93.333335,169.2 92.826327,168 92.206652,168 c -0.619676,0 -2.212669,1.2 -3.539984,2.66667 -2.355724,2.60304 -2.328844,2.66666 1.126683,2.66666 2.651094,0 3.539984,-0.6696 3.539984,-2.66666 z m 51.333335,1.73308 c -5.13333,-0.22622 -10.66551,-0.71566 -12.29371,-1.08766 -3.34366,-0.7639 -9.70629,-7.07772 -9.70629,-9.6318 0,-0.92416 -0.64692,-1.68029 -1.43759,-1.68029 -1.60644,0 -11.89575,10.61679 -11.89575,12.27435 0,0.58244 10.05001,0.94146 22.33334,0.79784 12.28333,-0.14363 18.13333,-0.44623 13,-0.67244 z M 168,171.33333 c -2.10062,-2.5311 -7.88116,-2.50932 -11.25484,0.0424 -2.37128,1.79356 -1.9386,1.9576 5.16327,1.9576 6.73897,0 7.53463,-0.26122 6.09157,-2 z m 31.7594,-1.66666 c 0.57568,-4.05344 -2.45337,-3.7937 -5.56525,0.47722 l -2.47251,3.39343 3.80584,-0.43532 c 2.76518,-0.31629 3.92236,-1.25565 4.23192,-3.43533 z M 95.741233,158.35752 c 1.271567,-6.83749 1.217836,-8.63655 -0.303377,-10.15776 -2.179309,-2.17931 -4.762637,-0.9866 -4.791605,2.21227 -0.03457,3.81726 -2.208756,5.97569 -6.162939,6.11825 -5.093424,0.18365 -6.293459,4.80305 -1.247743,4.80305 1.887104,0 4.481099,1.15 5.764432,2.55556 3.854108,4.22116 5.120856,3.18176 6.741232,-5.53137 z m -26.974932,-0.41969 c 1.072507,-5.71695 0.365709,-6.66738 -3.269849,-4.39694 -2.180455,1.36172 -3.107688,1.3812 -4.396506,0.0924 -2.994034,-2.99405 -5.099945,-1.83324 -5.099945,2.81115 0,5.6288 0.651244,6.22223 6.828472,6.22223 4.729224,0 5.107159,-0.30099 5.937828,-4.72884 z M 140,160 c 0,-0.73333 -0.93541,-1.33333 -2.07869,-1.33333 -1.14328,0 -1.70787,0.6 -1.25464,1.33333 0.45323,0.73333 1.38864,1.33333 2.07869,1.33333 0.69006,0 1.25464,-0.6 1.25464,-1.33333 z m -29.56875,-20.10363 c 0.23718,-3.243 -0.29932,-8.29637 -1.19224,-11.2297 -5.35366,-17.58742 -4.85244,-16.55 -20.325285,-42.069566 -3.802548,-6.271592 -8.515033,-13.471592 -10.47219,-16 -4.817381,-6.223468 -13.108201,-22.067688 -13.108201,-25.050503 0,-1.328304 -1.44339,-3.771092 -3.207534,-5.42842 -4.712547,-4.427206 -7.914398,-2.145626 -9.987217,7.116708 -0.909141,4.062468 -2.212242,7.731946 -2.895782,8.154398 -1.87057,1.156074 -1.492576,5.665156 0.57656,6.877793 3.109145,1.822144 6.18064,9.345979 6.18064,15.139896 0,3.912477 1.925925,9.512237 6.557443,19.066213 3.606594,7.439751 8.551412,18.326811 10.988484,24.193481 7.673352,18.47174 7.589357,18.38236 8.05102,8.56821 0.362903,-7.71467 0.668701,-8.52582 3.06972,-8.14267 1.466667,0.23404 3.410387,1.43404 4.319379,2.66666 0.908992,1.23262 3.908992,4.86221 6.666666,8.06575 2.757675,3.20354 5.547947,6.80354 6.200597,7.99999 2.14267,3.92799 5.25939,6.91547 6.71603,6.43754 0.78687,-0.25818 1.62472,-3.12278 1.86191,-6.36578 z m 43.93335,-20.24151 c 1.6328,-1.73803 2.96874,-3.57411 2.96874,-4.08017 0,-0.50606 2.5855,-4.66738 5.74557,-9.2474 C 166.23896,101.74728 170.4485,95.3 172.43343,92 c 1.98492,-3.3 4.16916,-6.9 4.85387,-8 0.6847,-1.1 3.37517,-6.875517 5.97881,-12.834481 C 187.20674,62.146593 188,58.766652 188,50.995444 c 0,-10.611977 -2.12132,-14.143487 -6.75684,-11.248559 -1.39717,0.872547 -5.51792,1.586448 -9.15721,1.586448 -6.00297,0 -6.94917,0.435635 -10.19816,4.695276 -2.90443,3.8079 -3.70032,6.51681 -4.21119,14.333334 -0.34645,5.300932 -1.76541,13.18715 -3.15325,17.524932 -1.38784,4.337781 -2.52335,9.467781 -2.52335,11.4 0,1.932218 -0.52712,4.083125 -1.17138,4.779792 -4.03723,4.365589 -10.0115,34.727103 -8.42811,42.831983 0.68515,3.50703 1.02216,3.14979 4.86575,-5.15785 2.27129,-4.90923 5.46554,-10.3479 7.09834,-12.08594 z m -93.627444,3.61758 -2.05406,-3.93911 -0.0083,5.4 c -0.0095,6.24313 3.059371,10.88132 3.720725,5.62339 0.217584,-1.72984 -0.52872,-4.91777 -1.658452,-7.08428 z"
       id="path648" />
  </g>
</svg>
