<?xml version="1.0" encoding="UTF-8" standalone="no"?>
<!-- Created with Inkscape (http://www.inkscape.org/) -->

<svg
   version="1.1"
   id="svg83"
   width="210.66667"
   height="212"
   viewBox="0 0 210.66667 212"
   xmlns="http://www.w3.org/2000/svg"
   xmlns:svg="http://www.w3.org/2000/svg">
  <defs
     id="defs87" />
  <g
     id="g89">
    <path
       style="fill:#000000;stroke-width:1.33333"
       d="m 103.33333,207.74649 c -1.46666,-0.70881 -5.526736,-5.44173 -9.022383,-10.51761 C 90.815301,192.153 87.138093,188 86.139375,188 c -0.998719,0 -2.488644,1.8 -3.310947,4 -0.822301,2.2 -2.177384,5.82293 -3.011293,8.05096 -1.624867,4.34128 -4.700927,6.61571 -8.947465,6.61571 -2.426829,0 -10.869669,-9.56127 -10.869669,-12.30959 0,-0.61467 -0.97588,-2.60695 -2.168623,-4.42731 -2.766044,-4.22152 -5.008434,-2.61878 -9.309635,6.65399 -3.473133,7.48757 -7.591914,10.46368 -11.781969,8.51328 -1.506876,-0.70141 -4.842797,-4.97756 -7.413159,-9.50255 -2.570363,-4.52497 -5.5795,-8.40173 -6.686973,-8.61501 -1.353354,-0.26063 -3.249688,2.44961 -5.78346,8.26572 -3.592046,8.24531 -6.9936198,11.39664 -10.1775838,9.42884 -2.5717712,-1.58944 -1.3400486,-6.75317 4.8461688,-20.31652 9.036335,-19.81225 11.761989,-19.87571 22.48676,-0.52349 1.473007,2.65794 3.573007,4.83264 4.666667,4.83264 1.09366,0 3.869305,-3.54187 6.1681,-7.87083 3.879464,-7.30557 9.061683,-12.08879 11.478771,-10.59493 0.563856,0.34848 3.742229,4.79584 7.063051,9.88301 6.452222,9.88419 9.352522,11.40848 10.792277,5.67204 0.984048,-3.92076 6.38481,-12.44067 8.89977,-14.03973 2.278404,-1.44866 7.586505,-1.28256 7.586505,0.23737 0,0.70783 1.716797,3.25783 3.815105,5.66667 2.098309,2.40885 4.833506,6.368 6.078217,8.7981 2.83276,5.53052 4.5373,5.00575 7.3832,-2.27305 2.75251,-7.03996 9.72605,-15.11229 12.22332,-14.14929 1.00842,0.38888 4.73842,4.93226 8.28889,10.09644 7.62412,11.0893 9.95532,11.53481 13.47,2.5742 0.43147,-1.1 2.4643,-4.7 4.51742,-8 5.40838,-8.69296 7.54216,-8.03956 16.12065,4.93645 3.97659,6.01505 7.79357,10.58824 8.4822,10.16264 0.68863,-0.42559 2.63752,-3.90659 4.33087,-7.73555 7.301,-16.50886 12.2201,-15.05358 24.01449,7.1045 1.81468,3.40924 3.98956,7.16706 4.83307,8.35073 1.92384,2.69967 0.75998,5.89408 -2.8517,7.82699 -2.35236,1.25894 -3.36926,0.89584 -6.63385,-2.36876 -2.1206,-2.12059 -4.52059,-6.3251 -5.33332,-9.34335 -2.60156,-9.66144 -5.82384,-8.7504 -11.29147,3.19247 -4.06588,8.88105 -8.6351,11.62233 -12.92136,7.75209 -1.55014,-1.39968 -3.97154,-4.94488 -5.38089,-7.87821 -1.40935,-2.93334 -3.47349,-6.53334 -4.58699,-8 -2.0033,-2.6387 -2.0515,-2.6317 -4.59488,0.66666 -1.41369,1.83334 -2.58368,3.75326 -2.59998,4.2665 -0.0163,0.51324 -1.87216,3.66324 -4.12412,7 -6.26394,9.28138 -9.0002,8.15493 -18.70304,-7.69963 -2.16536,-3.53823 -4.67175,-6.19985 -5.56976,-5.91475 -0.898,0.28512 -3.85141,4.91871 -6.56311,10.29686 -5.88033,11.66248 -6.30727,12.12134 -9.7363,10.46418 z M 71.333334,135.86632 c -4.4,-0.50063 -11.676533,-0.97535 -16.170073,-1.05495 -5.494772,-0.0973 -8.714002,-0.80009 -9.831168,-2.1462 -0.913602,-1.10082 -2.496078,-8.45082 -3.516614,-16.33333 C 40.794943,108.44933 39.063242,96.6 37.967255,90 35.366498,74.338323 34.816478,17.578401 37.195881,10.397038 c 1.78534,-5.3884007 5.747833,-7.6001975 8.911744,-4.9743847 1.538738,1.2770394 1.78453,3.3676592 1.103568,9.3865667 l -0.876088,7.743597 4.70338,-0.763253 c 3.934911,-0.638549 4.964116,-0.276061 6.299213,2.218589 2.102286,3.928158 0.758954,14.935944 -3.485906,28.564862 -3.129471,10.047754 -3.224375,11.306298 -1.910319,25.333333 0.760512,8.118176 1.392992,19.860319 1.405512,26.093652 0.03781,18.82876 0.908935,19.74547 15.770255,16.59565 12.394041,-2.62689 21.010391,-2.38643 30.606211,0.85413 l 8.241239,2.78311 9.40624,-2.91119 c 8.36345,-2.58845 11.0901,-2.80598 24.59497,-1.96217 l 15.18872,0.94903 0.67461,-4.48761 c 0.79044,-5.25818 3.09236,-30.121163 4.34156,-46.893214 0.65425,-8.784273 0.34711,-13.650423 -1.22033,-19.333333 -3.63728,-13.18742 -5.20702,-22.108739 -4.73799,-26.927736 0.40664,-4.178011 0.90795,-4.710416 4.78753,-5.084478 4.1285,-0.398062 4.3343,-0.681677 4.35375,-6 0.0285,-7.7980678 1.53716,-9.8489013 5.81217,-7.9010723 6.01826,2.7420993 6.54335,12.0466183 3.8555,68.3188833 -1.67391,35.04441 -3.98428,57.21798 -6.2064,59.56494 -1.78251,1.88266 -22.01206,3.00991 -58.81502,3.27737 -14.666665,0.10653 -27.566665,0.58538 -28.666665,1.06401 -1.1,0.47863 -5.6,0.46063 -10.000001,-0.04 z"
       id="path787" />
  </g>
</svg>
