<?xml version="1.0" encoding="UTF-8" standalone="no"?>
<!-- Created with Inkscape (http://www.inkscape.org/) -->

<svg
   version="1.1"
   id="svg317"
   width="204"
   height="205.33333"
   viewBox="0 0 204 205.33333"
   xmlns="http://www.w3.org/2000/svg"
   xmlns:svg="http://www.w3.org/2000/svg">
  <defs
     id="defs321" />
  <g
     id="g323">
    <path
       style="fill:#000000;stroke-width:1.33333"
       d="m 33.6408,196.46578 c -9.836069,-12.17797 -10.592845,-12.8974 -12.711607,-12.08436 -1.184761,0.45464 -3.707813,3.8927 -5.606781,7.64012 -2.773518,5.47328 -4.029967,6.73139 -6.3875405,6.39599 -4.9797714,-0.70845 -4.3475903,-6.38824 2.2650865,-20.35051 5.280338,-11.1491 6.450957,-12.73369 9.407065,-12.73369 2.460938,0 4.451645,1.53625 7.342984,5.66667 10.329564,14.75628 9.852928,14.28652 12.282954,12.10568 1.22813,-1.10219 3.87624,-5.25186 5.884692,-9.2215 3.107215,-6.14129 4.20729,-7.21752 7.377502,-7.21752 3.049068,0 4.38164,1.15031 7.336857,6.33334 3.994732,7.00618 8.357264,12.33333 10.100075,12.33333 0.623653,0 1.760176,-1.65 2.525604,-3.66667 2.282426,-6.01348 8.363113,-14.89414 10.52585,-15.37269 3.050011,-0.67488 9.609579,5.32229 13.349792,12.20523 4.731757,8.70761 7.232247,8.6462 11.177437,-0.27458 3.49375,-7.9 7.67081,-12.89129 10.78832,-12.89129 1.08117,0 2.97384,1.95 4.20593,4.33333 3.11745,6.03031 9.96399,14.33334 11.81905,14.33334 1.81709,0 7.3426,-5.60114 7.3426,-7.4431 0,-0.69916 1.52162,-3.51049 3.3814,-6.2474 4.98081,-7.32993 8.70692,-6.80352 14.32536,2.02383 2.45045,3.85 4.85006,8.05 5.33246,9.33333 1.38259,3.67814 6.13527,2.86886 7.8303,-1.33333 8.51626,-21.11296 14.373,-19.65283 24.46837,6.10017 3.15399,8.04574 3.50215,9.96863 1.97572,10.91202 -2.58849,1.59977 -3.52976,0.74569 -8.09707,-7.34714 -6.866,-12.16586 -8.90317,-12.53865 -12.66716,-2.31793 C 176.43265,195.23852 172.47693,200 168.98131,200 c -2.3861,0 -7.50455,-4.73138 -7.60362,-7.02859 -0.11272,-2.61379 -7.30569,-11.63808 -9.27633,-11.63808 -1.34068,0 -3.67107,2.88365 -5.92051,7.32616 C 142.57759,195.77568 138.45047,200 135.10125,200 c -0.90129,0 -4.38233,-4.2412 -7.73564,-9.42488 -4.14263,-6.40386 -6.80877,-9.28778 -8.31772,-8.99719 -1.22144,0.23524 -4.15147,4.02643 -6.51118,8.42488 -4.01593,7.48564 -8.98584,12.03437 -11.47073,10.49863 -0.5956,-0.36811 -3.79994,-4.83152 -7.120761,-9.9187 -3.320822,-5.08717 -6.884296,-9.24941 -7.918834,-9.24941 -1.034538,0 -4.119181,4.25931 -6.854765,9.46513 -2.735583,5.20583 -5.772931,9.7718 -6.749664,10.1466 -3.134351,1.20276 -7.744573,-3.09117 -11.942541,-11.12321 -2.77588,-5.31113 -5.006886,-7.95861 -6.950432,-8.24792 -1.574274,-0.23433 -2.862316,0.29064 -2.862316,1.1666 0,0.87597 -1.555292,5.05833 -3.456203,9.29412 -4.429625,9.87052 -8.185649,11.09704 -13.569664,4.43113 z M 93.408407,93.212684 C 71.044659,88.827423 55.24644,67.872978 60.012468,48.916967 62.809325,37.792973 66.594003,31.503665 72.769259,27.717968 c 3.243574,-1.98845 5.897408,-4.274367 5.897408,-5.079814 0,-0.805448 -3.023899,-4.661777 -6.719776,-8.569621 C 65.756123,7.5227087 65.396939,6.7935376 67.384312,4.8061639 69.24826,2.9422166 73.428976,2.670804 98.138411,2.8096037 123.1576,2.9501434 126.87812,3.2431699 127.87677,5.1517868 c 1.49712,2.8613041 -0.0934,6.7482752 -4.39762,10.7472982 -4.54273,4.220573 -4.40023,5.365923 1.22616,9.855224 10.72758,8.559557 15.89826,23.947156 12.62786,37.579701 -0.99948,4.166302 -3.46957,9.654283 -5.48908,12.195513 -2.01952,2.541229 -3.8606,5.046968 -4.0913,5.568309 -0.66818,1.509967 -13.38593,10.219824 -17.48219,11.972828 -4.20059,1.797649 -8.24518,1.831716 -16.862193,0.142024 z M 106.2706,83.812623 c 10.41568,-4.24712 12.58373,-5.576211 15.54043,-9.526868 8.69293,-11.615232 9.87141,-21.511859 3.92616,-32.971065 -2.96662,-5.718025 -4.81096,-7.506596 -10.53577,-10.217165 -8.16796,-3.867345 -9.28683,-6.508893 -5.01719,-11.845039 4.47085,-5.587606 3.98434,-7.038728 -2.51756,-7.509156 -7.38672,-0.534447 -21.880654,0.692875 -23.147905,1.960126 -0.545064,0.545065 0.564866,2.634768 2.466511,4.643785 5.549608,5.862952 5.211784,8.37854 -1.638289,12.199451 -11.428855,6.374913 -16.013654,13.82181 -16.013654,26.010306 0,10.48387 5.028791,17.548582 16.974911,23.847259 9.642044,5.083838 14.020176,5.831359 19.962356,3.408366 z"
       id="path345" />
  </g>
</svg>
