<?xml version="1.0" encoding="UTF-8" standalone="no"?>
<!-- Created with Inkscape (http://www.inkscape.org/) -->

<svg
   version="1.1"
   id="svg297"
   width="222.66667"
   height="182.66667"
   viewBox="0 0 222.66667 182.66667"
   xmlns="http://www.w3.org/2000/svg"
   xmlns:svg="http://www.w3.org/2000/svg">
  <defs
     id="defs301" />
  <g
     id="g303">
    <path
       style="fill:#000000;stroke-width:1.33333"
       d="M 9.7286348,175.30278 C 7.66457,173.79607 7.2203793,170.63499 6.516518,152.4438 5.8810618,136.02054 6.095207,130.68969 7.480996,128.43446 c 2.4928929,-4.05693 6.964666,-5.22603 9.66768,-2.52751 1.801048,1.79805 2.259102,5.90493 2.608616,23.38869 0.25848,12.92992 -0.11536,22.21539 -0.957777,23.78947 -1.805949,3.37444 -6.061064,4.41475 -9.0708802,2.21767 z m 97.9026952,-0.96944 c -1.86474,-1.40522 -2.28973,-5.11778 -2.70924,-23.66667 -0.27365,-12.1 0.028,-23.05 0.67042,-24.33333 1.69359,-3.38338 9.86833,-3.16546 11.72978,0.31269 2.31942,4.33387 3.33527,36.50727 1.31512,41.65153 -1.79282,4.56539 -4.76763,7.70244 -7.30407,7.70244 -0.81968,0 -2.48558,-0.75 -3.70201,-1.66666 z M 208,171.61411 l -3.33333,-1.71579 0.32913,-22.61582 c 0.28331,-19.46656 0.64372,-22.84792 2.58818,-24.2825 3.13597,-2.31365 4.95268,-2.09029 7.70124,0.94682 4.93004,5.44765 3.23062,48.14254 -1.95188,49.03765 -1.1,0.18999 -3.5,-0.42667 -5.33334,-1.37036 z M 45.648529,110.31978 c -2.69696,-3.37204 -3.122463,-8.16866 -3.18665,-35.922505 C 42.414051,53.716514 41.850357,43.826126 40.38745,38.000001 38.977889,32.386329 38.62893,26.928235 39.217589,19.702122 40.225162,7.3336189 40.890923,5.3333334 44.000001,5.3333334 c 3.26899,0 4,2.5928413 4,14.1877386 0,10.098666 1.439073,11.881343 4.049242,5.016076 1.470023,-3.866452 6.095771,-4.281214 7.248302,-0.64991 0.445817,1.404646 -0.455828,6.054647 -2.003656,10.333333 -5.884972,16.267922 -5.921543,16.59515 -4.272472,38.229849 0.858993,11.269412 2.150432,22.038042 2.869863,23.930288 1.245336,3.275483 1.678878,3.40761 9.041721,2.75556 4.253517,-0.376689 9.277645,-1.265326 11.164729,-1.974748 2.502733,-0.940866 5.196227,-0.690569 9.955026,0.925086 7.676383,2.606194 12.838328,2.737784 24.613914,0.62745 6.66507,-1.194465 11.36696,-1.179836 20.35859,0.06335 6.43056,0.889089 12.04517,1.263274 12.47692,0.831539 0.43173,-0.431743 1.0576,-7.229376 1.3908,-15.105852 0.33318,-7.876478 1.21189,-15.453354 1.95266,-16.837505 1.70486,-3.185544 0.11574,-19.603624 -2.1616,-22.332251 -0.91805,-1.1 -2.01394,-3.5 -2.4353,-5.333333 -0.42138,-1.833334 -1.29478,-5.433334 -1.94091,-8 -1.74325,-6.924797 0.34984,-10.666667 5.96661,-10.666667 4.43404,0 4.49776,-0.08156 3.63924,-4.657903 -1.32356,-7.0551406 0.18502,-11.3420976 3.99126,-11.3420976 2.90582,0 3.32577,0.8199808 4.75276,9.2801456 0.88348,5.237812 1.20804,13.514012 0.74513,19 -0.45109,5.34592 -1.14179,24.117393 -1.53489,41.714384 -0.59076,26.445394 -1.0764,32.394174 -2.80004,34.298774 -1.90875,2.10915 -6.5736,2.30604 -55.091272,2.32526 -40.593928,0.0161 -53.315542,-0.36611 -54.328099,-1.63212 z"
       id="path623" />
  </g>
</svg>
