<?xml version="1.0" encoding="UTF-8" standalone="no"?>
<!-- Created with Inkscape (http://www.inkscape.org/) -->

<svg
   version="1.1"
   id="svg287"
   width="224"
   height="213.33333"
   viewBox="0 0 224 213.33333"
   xmlns="http://www.w3.org/2000/svg"
   xmlns:svg="http://www.w3.org/2000/svg">
  <defs
     id="defs291" />
  <g
     id="g293">
    <path
       style="fill:#000000;stroke-width:1.33333"
       d="m 83.914671,206.68424 c -5.546932,-0.5454 -11.357487,-1.67247 -12.912346,-2.5046 -1.554858,-0.83214 -5.290362,-1.51298 -8.301121,-1.51298 -3.010757,0 -7.700203,-1.12809 -10.420988,-2.50688 -2.720785,-1.37878 -7.646883,-2.92009 -10.946883,-3.42512 -12.866346,-1.96905 -31.005483,-9.67636 -33.8935018,-14.40133 -1.8483661,-3.02404 0.1592776,-6.35213 5.3585468,-8.88293 2.127559,-1.03562 5.068289,-2.4993 6.534955,-3.25263 8.64542,-4.4406 12.897624,-5.97687 20.666667,-7.46661 4.766667,-0.91403 11.366667,-2.462 14.666667,-3.43995 3.3,-0.97793 11.1,-2.1786 17.333333,-2.66813 6.233333,-0.48954 14.179615,-1.41376 17.658404,-2.05383 6.869835,-1.26399 39.851826,-1.59948 51.674926,-0.52564 8.87122,0.80575 26.5959,4.01219 32.42691,5.86612 2.33187,0.7414 8.43976,2.62608 13.57309,4.18817 9.12846,2.77782 14.56091,5.13751 25.33334,11.00407 6.1633,3.35648 8.15625,9.36729 3.58669,10.81761 -1.41259,0.44834 -3.64045,1.99984 -4.95083,3.44779 -1.31037,1.44795 -3.8193,2.63263 -5.5754,2.63263 -1.75609,0 -4.81309,0.82965 -6.79334,1.84366 -1.98026,1.01402 -6.74979,2.27023 -10.59896,2.79159 -3.84919,0.52135 -7.29174,1.42235 -7.65012,2.00223 -0.57999,0.93844 -7.89634,2.47546 -22.01804,4.62556 -2.56667,0.39078 -6.16667,1.05702 -8,1.48053 -8.94128,2.06545 -52.579659,3.33413 -66.751999,1.94067 z m 57.418659,-12.4805 c 9.16667,-1.18174 19.96667,-3.02001 24,-4.08502 4.03334,-1.06502 11.70576,-2.58634 17.04984,-3.38071 9.98375,-1.48405 14.95016,-3.55701 14.95016,-6.24016 0,-2.2824 -8.05878,-5.66924 -16.86982,-7.08983 -4.28827,-0.6914 -10.49684,-1.88665 -13.79684,-2.65612 -21.56951,-5.02944 -73.336727,-7.65132 -80.057077,-4.05469 -1.217393,0.65153 -6.652577,1.46792 -12.078185,1.81421 C 69.1058,168.85772 60.766667,170.13193 56,171.343 c -4.766667,1.21108 -13.648276,3.45357 -19.736909,4.98332 l -11.070242,2.78136 3.99397,2.5288 c 4.149433,2.62724 20.880462,7.41761 30.146514,8.63146 2.933334,0.38427 5.941503,1.18694 6.684823,1.78371 0.743319,0.59677 8.837804,1.77377 17.987747,2.61556 9.149941,0.84177 16.835747,1.73 17.079577,1.97381 1.00274,1.00275 24.69133,-0.43176 40.24785,-2.43728 z M 96.745557,106.37468 c -1.143389,-1.63242 -2.07889,-4.01342 -2.07889,-5.29111 0,-4.934702 -4.084687,-5.337682 -44.450399,-4.38531 C 6.9432803,97.719225 4,97.346289 4,90.842319 c 0,-2.317503 0.8526775,-4.217554 2.10905,-4.699668 1.1599775,-0.445126 14.509978,-0.888255 29.666666,-0.984732 15.156689,-0.09648 34.457617,-0.546478 42.890951,-1 L 94,83.333332 l 0.416289,-4 c 0.422786,-4.062424 3.329143,-7.333333 6.516011,-7.333333 0.96578,0 2.71625,2.4 3.88994,5.333333 2.53003,6.323175 5.59306,6.923521 6.71455,1.316037 0.54488,-2.724365 1.79712,-4.266689 3.89089,-4.79219 4.20091,-1.054363 5.90565,0.279693 5.90565,4.621509 0,2.010055 0.65757,4.312213 1.46127,5.115908 1.02494,1.024939 13.66541,1.265736 42.33333,0.806437 34.00548,-0.544814 41.29152,-0.336437 43.3688,1.240331 2.90722,2.206728 2.0602,6.846708 -1.54749,8.477273 -1.25541,0.56741 -19.90888,1.198899 -41.45213,1.403307 -42.87418,0.406804 -42.09296,0.259703 -45.53704,8.574446 -2.55435,6.16676 -6.60966,4.68396 -8.46829,-3.09639 C 110.08242,95.100313 104,97.173112 104,103.55309 c 0,1.66086 -1.1645,3.64297 -2.58778,4.40469 -2.088967,1.11798 -2.988487,0.81283 -4.666663,-1.5831 z M 37.806585,39.395302 c -1.573045,-1.109447 -4.728174,-5.327253 -7.0114,-9.372905 -5.487638,-9.723563 -7.818281,-9.605199 -12.685932,0.644269 -3.052012,6.426405 -4.41492,8 -6.928893,8 -5.5698273,0 -5.4609541,-10.2418 0.184258,-17.333333 0.875654,-1.1 3.143643,-5.45 5.039975,-9.666667 C 21.388133,0.58531366 24.482045,1.0830994 33.600111,14.433288 41.818132,26.465681 43.998487,26.64783 48.3638,15.666666 53.386819,3.0310113 59.799035,1.2313633 64.850484,11.039526 67.701872,16.575933 73.347332,24 74.705977,24 c 0.580876,0 2.400235,-2.85 4.043019,-6.333334 3.661047,-7.7628244 7.625616,-12.3333328 10.698231,-12.3333328 2.729773,0 8.275816,6.2565798 11.976933,13.5113728 C 103.13988,22.20779 104.97183,24 106.69377,24 c 1.45176,0 2.63956,-0.567855 2.63956,-1.261899 0,-0.694044 2.12875,-4.894044 4.73054,-9.333333 6.58391,-11.233734 9.10654,-11.0430947 17.39777,1.314781 7.32424,10.916593 8.54044,11.926813 10.45588,8.685015 6.88695,-11.655915 11.70171,-18.0712308 13.56263,-18.0712308 2.845,0 10.22805,7.8395958 13.38922,14.2171528 2.82292,5.69514 5.4368,7.106891 6.59214,3.560391 2.88145,-8.845173 8.93616,-17.7775438 12.05029,-17.7775438 2.69296,0 8.50815,6.7557408 11.47704,13.3333328 1.48951,3.3 3.82636,7.592623 5.19301,9.53916 2.69147,3.833501 3.30194,9.798457 1.13955,11.134881 -2.93385,1.81322 -6.45827,-1.111146 -11.28409,-9.362938 -2.7805,-4.75444 -5.58198,-8.644436 -6.2255,-8.644436 -0.64352,0 -3.08117,3.875557 -5.41698,8.612349 -3.02674,6.137885 -5.34299,9.066348 -8.06174,10.192487 -4.72588,1.957525 -5.3388,1.409977 -11.60572,-10.367975 -2.60005,-4.886506 -5.27374,-8.933826 -5.94154,-8.994044 -0.6678,-0.06021 -3.82283,4.090516 -7.01119,9.22385 -6.76907,10.898339 -9.81516,12.911178 -13.9298,9.204709 -1.54965,-1.395924 -3.36293,-3.738043 -4.02952,-5.20471 -2.69306,-5.925442 -7.22759,-13.168957 -8.48199,-13.549226 -0.73333,-0.222309 -4.00278,4.414428 -7.26545,10.30386 -5.49331,9.91597 -6.21917,10.678618 -9.81277,10.310046 -3.16529,-0.324641 -4.6232,-1.749872 -7.908665,-7.731346 -2.2154,-4.033333 -4.972328,-8.416135 -6.126505,-9.739559 -2.009763,-2.304468 -2.199655,-2.276276 -4.490379,0.666667 -1.315529,1.690091 -3.859658,6.222892 -5.653618,10.072892 -5.19281,11.144236 -10.670334,9.367282 -18.985806,-6.159152 -4.780313,-8.925677 -6.02428,-9.133685 -9.01554,-1.507515 -2.205412,5.622664 -8.546661,14.044891 -10.821624,14.372905 -1.422469,0.205098 -3.873344,-0.534824 -5.446388,-1.644269 z"
       id="path762" />
  </g>
</svg>
