<?xml version="1.0" encoding="UTF-8" standalone="no"?>
<!-- Created with Inkscape (http://www.inkscape.org/) -->

<svg
   version="1.1"
   id="svg277"
   width="217.33333"
   height="209.33333"
   viewBox="0 0 217.33333 209.33333"
   xmlns="http://www.w3.org/2000/svg"
   xmlns:svg="http://www.w3.org/2000/svg">
  <defs
     id="defs281" />
  <g
     id="g283">
    <path
       style="fill:#000000;stroke-width:1.33333"
       d="m 13.769469,200.39586 c -3.9395568,-0.75385 -6.3821426,-7.59272 -3.677743,-10.29712 1.603972,-1.60397 5.602751,-1.80338 23.107401,-1.15234 11.642275,0.433 22.270999,0.36392 23.619387,-0.15351 2.158924,-0.82845 1.955308,-1.25501 -1.705524,-3.57288 -2.286427,-1.44767 -8.207341,-3.47953 -13.157589,-4.51525 -9.819459,-2.05451 -12.065188,-3.42484 -10.840957,-6.61514 1.088858,-2.83752 13.548423,-2.7992 22.316337,0.0687 6.332842,2.07133 13.235885,8.14569 13.235885,11.64692 0,1.22252 12.204867,1.53495 51.666664,1.3226 L 170,186.84978 l 3.66666,-4.37453 c 2.01667,-2.40599 3.66667,-5.13459 3.66667,-6.06356 0,-2.16843 5.01199,-18.46241 7.37068,-23.96205 1.80213,-4.20199 1.84099,-4.21578 10.88563,-3.86422 4.99236,0.19406 9.79882,0.44172 10.68102,0.55036 2.84739,0.35068 4.38096,9.80312 4.38856,27.04984 0.0107,23.67586 1.23402,22.61147 -26.712,23.23683 -17.8788,0.40008 -66.13844,0.55936 -113.947221,0.37608 -4.4,-0.0168 -18.2,0.23537 -30.666666,0.56053 -12.466667,0.32515 -23.970405,0.34171 -25.563864,0.0368 z M 196.25076,183.66666 C 200.37292,180.38537 200.55628,160 196.46362,160 c -1.01977,0 -2.51597,1.65 -3.32489,3.66666 -4.71025,11.74283 -6.73565,18.82816 -5.8102,20.32556 1.15448,1.86799 6.40733,1.67632 8.92223,-0.32556 z M 151.44913,67.00469 C 151.00277,66.558324 119.59411,66.131884 81.652112,66.057046 43.710117,65.982207 11.616666,65.424562 10.333333,64.817835 8.9757587,64.17601 7.9999999,62.237334 7.9999999,60.181878 c 0,-1.94305 -0.6228207,-5.628856 -1.3840459,-8.190681 C 4.0407725,43.324687 5.5310832,14.659393 8.7227735,11.467702 10.063689,10.126787 25.098824,9.5025744 75.559772,8.6928356 173.80773,7.1162662 205.37776,7.2478487 206.60838,9.2390407 c 3.29483,5.3311443 3.96778,51.2710423 0.79891,54.5382663 -1.26884,1.30822 -8.36833,1.947083 -26.89889,2.420555 -13.84628,0.353785 -25.86642,0.862656 -26.71138,1.130822 -0.84497,0.268168 -1.90152,0.122374 -2.34789,-0.323994 z M 91.90934,56.123483 C 93.528227,55.065763 93.303301,53.389547 90.430763,45.104662 85.397205,30.587036 81.539999,21.006666 80.181635,19.648302 78.167403,17.63407 23.822861,17.864234 18.889032,19.907893 l -4.222366,1.748961 v 15.062523 c 0,8.284388 0.364367,16.012046 0.809704,17.172575 0.67927,1.770151 3.38397,2.094 16.790228,2.010391 8.789289,-0.05481 16.227265,0.147075 16.528835,0.448645 1.164472,1.164472 41.307639,0.952643 43.113907,-0.227505 z m 27.30138,-5.79015 c -0.49196,-3.908307 -1.98447,-8.215743 -3.37926,-9.752602 -1.37397,-1.51393 -2.51789,-3.61393 -2.54204,-4.666666 -0.0241,-1.052736 -1.71619,-4.914065 -3.76009,-8.580732 -4.25291,-7.629508 -8.68301,-9.285136 -12.767714,-4.771585 -2.152881,2.378906 -2.251795,3.405929 -0.860263,8.932202 0.864775,3.434329 3.04074,8.874432 4.835477,12.089119 1.79474,3.214686 3.26317,6.52635 3.26317,7.359253 0,3.588736 4.49546,6.39101 10.25257,6.39101 h 5.83928 z M 192,54.923363 l 7.33333,-0.923364 -0.22079,-16.487456 c -0.12146,-9.068099 -0.72144,-16.955013 -1.33333,-17.526474 -0.61191,-0.57146 -7.39249,-1.447003 -15.06797,-1.945649 -7.67548,-0.498648 -14.27548,-1.092358 -14.66667,-1.319355 -1.15821,-0.672093 -49.68299,1.806244 -50.4536,2.576849 -0.38835,0.388356 -0.0673,2.055199 0.71349,3.704095 4.67377,9.870417 8.40286,18.695713 9.13882,21.628046 0.87977,3.505272 3.71087,4.483911 5.34103,1.846255 0.60547,-0.979665 1.57281,-0.319165 2.7093,1.849916 1.16736,2.227975 3.2514,3.613036 6.137,4.078668 2.40316,0.387784 7.96939,1.591204 12.36939,2.674266 7.95752,1.95875 21.65225,1.902603 38,-0.155797 z"
       id="path901" />
  </g>
</svg>
