<?xml version="1.0" encoding="UTF-8" standalone="no"?>
<!-- Created with Inkscape (http://www.inkscape.org/) -->

<svg
   version="1.1"
   id="svg267"
   width="201.33333"
   height="205.33333"
   viewBox="0 0 201.33333 205.33333"
   xmlns="http://www.w3.org/2000/svg"
   xmlns:svg="http://www.w3.org/2000/svg">
  <defs
     id="defs271" />
  <g
     id="g273">
    <path
       style="fill:#000000;stroke-width:1.33333"
       d="m 104.66666,194.67914 c -3.66666,-2.16813 -9.966662,-5.25418 -13.999995,-6.8579 -4.033333,-1.60372 -8.444878,-3.86958 -9.803434,-5.03522 -2.610176,-2.23954 -12.819676,-8.0805 -31.529898,-18.03858 -6.233334,-3.31756 -13.733334,-7.75823 -16.666667,-9.86816 C 29.733333,152.76934 22.35477,147.54134 16.26986,143.26149 6.7892839,136.5933 5.2631606,134.99256 5.6031939,132.07332 c 0.5319173,-4.56661 6.5426941,-5.14873 16.7759231,-1.62468 4.191485,1.44343 11.820882,3.02873 16.954216,3.52288 5.133333,0.49416 12.033333,1.68112 15.333333,2.6377 3.3,0.95659 9.9,2.78243 14.666666,4.05744 4.766667,1.27502 11.366667,3.13544 14.666667,4.13428 3.3,0.99886 8.938181,2.16006 12.529291,2.58044 3.59111,0.4204 8.80247,1.92406 11.58081,3.34146 6.68094,3.40836 53.45343,19.35172 68.17086,23.23742 18.4625,4.8745 23.69358,9.27991 19.75585,16.63763 -1.74244,3.25576 -6.25071,3.55849 -9.47941,0.63655 -1.27559,-1.15439 -6.70272,-3.00615 -12.06028,-4.11502 -5.35758,-1.10886 -11.26116,-2.7921 -13.11908,-3.74052 -1.85792,-0.94842 -5.47804,-2.17485 -8.04471,-2.72541 -2.56667,-0.55056 -6.09759,-2.12281 -7.84648,-3.49392 -5.53317,-4.33789 -8.02359,-3.16719 -20.22424,9.50709 -6.35337,6.6 -12.08656,11.98978 -12.74043,11.97727 -0.65387,-0.0125 -4.18885,-1.79667 -7.85552,-3.96479 z m 10.26167,-16.86048 c 7.25078,-5.0248 6.70613,-7.95354 -1.92833,-10.36929 -12.39991,-3.46924 -17.518446,-4.88735 -24.923605,-6.9052 -3.991316,-1.08761 -7.891316,-2.49883 -8.666667,-3.13604 -0.775351,-0.63721 -4.259729,-1.58285 -7.743063,-2.10141 -6.117246,-0.91067 -6.333333,-0.82918 -6.333333,2.38854 0,4.4598 5.104446,7.63616 12.286423,7.64551 9.573438,0.012 14.710473,2.21588 21.692571,9.30457 3.623084,3.67839 7.477734,6.68799 8.565884,6.68799 1.08815,0 4.2607,-1.5816 7.05012,-3.51467 z M 75.272725,43.393939 c -4.019809,-4.01981 -4.110542,-7.188512 -0.41368,-14.447057 4.87689,-9.575448 9.208567,-14.187517 17.878969,-19.0362823 11.204216,-6.265754 18.954036,-7.1179028 30.323726,-3.3343131 4.80504,1.5990149 9.45531,3.7734924 10.33394,4.8321734 0.87862,1.05868 2.37362,1.924873 3.32221,1.924873 2.04391,0 8.60503,8.129457 11.73345,14.538184 2.97251,6.089305 2.86898,13.790297 -0.223,16.588498 -2.13318,1.930511 -6.64581,2.206651 -36.0606,2.206651 H 78.545453 Z M 135.54386,32.598825 c 1.09334,-2.849191 -4.17887,-8.168073 -12.08485,-12.191825 -5.63274,-2.86679 -7.57338,-3.200051 -13.97608,-2.400086 -13.5353,1.691124 -22.816265,7.45623 -22.816265,14.172897 0,2.334972 1.468336,2.486855 24.041845,2.486855 20.4911,0 24.15903,-0.3054 24.83535,-2.067841 z"
       id="path1040" />
  </g>
</svg>
