<?xml version="1.0" encoding="UTF-8" standalone="no"?>
<!-- Created with Inkscape (http://www.inkscape.org/) -->

<svg
   version="1.1"
   id="svg177"
   width="112"
   height="212"
   viewBox="0 0 112 212"
   xmlns="http://www.w3.org/2000/svg"
   xmlns:svg="http://www.w3.org/2000/svg">
  <defs
     id="defs181" />
  <g
     id="g183">
    <path
       style="fill:#000000;stroke-width:1.33333"
       d="m 47.232908,206.09144 c -2.225879,-1.6276 -2.273828,-2.25073 -0.570361,-7.41229 1.863522,-5.64652 2.398261,-33.40234 1.532122,-79.52534 l -0.35391,-18.8462 -19.887267,0.35073 C 14.729895,100.89155 7.3747855,100.50348 6.0026684,99.500163 4.8677116,98.670261 3.59125,95.847639 3.1660871,93.227665 2.1592683,87.023369 5.3923608,83.326853 10.525008,84.813936 c 1.911246,0.553747 5.124992,0.905476 7.141659,0.781623 5.999133,-0.368436 9.2298,-0.271832 18,0.538241 10.193373,0.941528 10.31531,0.402705 2.638136,-11.657545 C 25.468324,54.311133 24.046905,50.634153 24.020075,37.523956 c -0.01687,-8.242716 0.639881,-11.192189 4.112124,-18.46762 3.777156,-7.91432 4.766098,-8.948453 11.509905,-12.03587 6.418089,-2.9382987 8.576312,-3.2771385 16.592816,-2.6050636 14.692701,1.2317832 20.691908,6.5311206 27.141643,23.9752856 2.12696,5.752647 2.185769,7.350076 0.589049,16 C 82.078393,54.614328 76.779985,66.515081 71.673501,72 66.797475,77.237381 64,81.720295 64,84.296675 c 0,2.111273 1.438884,2.369992 13.180924,2.369992 9.098961,0 14.363643,-0.616831 17,-1.991786 5.04636,-2.631858 6.635316,-2.525305 9.819076,0.658452 1.86453,1.864531 2.66667,4.444444 2.66667,8.576816 0,7.295411 -1.47157,7.942851 -14.127191,6.215481 -5.06338,-0.691099 -14.06145,-1.305802 -19.99571,-1.366006 L 61.754207,98.650157 62.28536,144.99174 c 0.292135,25.48787 1.008103,49.15072 1.59104,52.58412 0.582937,3.43339 0.68194,6.85406 0.220005,7.60148 -1.386949,2.24414 -14.101993,2.93336 -16.863497,0.9141 z M 60.13172,73.192327 C 62.259275,70.914772 64,68.472877 64,67.765893 64,67.058909 65.704836,63.972363 67.788525,60.9069 74.930239,50.400221 76.489953,40.169681 72.621599,29.205599 69.822624,21.272459 66.091527,17.7086 57.872788,15.117871 c -8.596748,-2.709887 -12.8982,-1.329 -19.858392,6.375101 -4.45772,4.934163 -4.681063,5.648821 -4.681063,14.978572 0,12.008648 1.392951,16.341367 8.955111,27.854517 5.515277,8.396838 10.054591,13.007272 12.806617,13.007272 0.64261,0 2.909106,-1.863453 5.036659,-4.141006 z"
       id="path1179" />
  </g>
</svg>
