<?xml version="1.0" encoding="UTF-8" standalone="no"?>
<!-- Created with Inkscape (http://www.inkscape.org/) -->

<svg
   version="1.1"
   id="svg215"
   width="225.33333"
   height="217.33333"
   viewBox="0 0 225.33333 217.33333"
   xmlns="http://www.w3.org/2000/svg"
   xmlns:svg="http://www.w3.org/2000/svg">
  <defs
     id="defs219" />
  <g
     id="g221">
    <path
       style="fill:#000000;stroke-width:1.33333"
       d="m 9.7286345,211.30277 c -2.0640647,-1.50671 -2.5082554,-4.66779 -3.2121167,-22.85897 -0.6354562,-16.42327 -0.421311,-21.75411 0.964478,-24.00935 2.4928929,-4.05693 6.9646652,-5.22603 9.6676802,-2.52751 1.801048,1.79806 2.259101,5.90494 2.608616,23.3887 0.25848,12.92992 -0.11536,22.21538 -0.957778,23.78946 -1.805949,3.37444 -6.061063,4.41475 -9.0708795,2.21767 z m 97.9833355,-2.24332 c -1.9445,-1.46696 -2.3053,-4.32848 -2.40315,-19.05945 -0.19993,-30.10075 -0.14674,-30.82643 2.49893,-34.09368 2.26487,-2.797 2.82567,-2.91028 6.62232,-1.33766 4.98758,2.06592 5.28239,2.96506 5.7155,17.43134 0.59351,19.82372 -0.0747,32.73088 -1.81224,35.00552 -2.33135,3.05201 -7.8769,4.1244 -10.62136,2.05393 z m 98.18399,-4.36445 c -1.83758,-2.8045 -2.07814,-6.52888 -1.58848,-24.59299 0.61306,-22.61693 1.39912,-25.43535 7.09388,-25.43535 3.59966,0 6.96201,2.98638 7.98622,7.09324 0.39871,1.59872 0.52804,11.22727 0.2874,21.39676 -0.43337,18.3152 -0.47241,18.52004 -4.1306,21.66667 -4.69317,4.03691 -6.93882,4.00704 -9.64842,-0.12827 z m -6.51816,-89.02834 c -2.59443,-2.26417 -3.79382,-5.12572 -4.88998,-11.66666 -1.71914,-10.258517 -3.59361,-12.929184 -7.57794,-10.796829 -1.50402,0.804922 -3.98216,1.463494 -5.50699,1.463494 -1.52483,0 -3.81427,0.507128 -5.08765,1.126951 -19.1732,9.332614 -27.09058,12.698104 -38.31524,16.286944 -12.2597,3.91976 -14.78549,4.26486 -31.36736,4.28577 -9.918717,0.0125 -20.118717,-0.64313 -22.666669,-1.45698 -2.547951,-0.81384 -10.332639,-2.7938 -17.299305,-4.39991 -6.966667,-1.60612 -14.097581,-4.02779 -15.846479,-5.38149 -1.748896,-1.35371 -3.968817,-2.46128 -4.933157,-2.46128 -0.96434,0 -4.420439,-1.8 -7.680221,-4.000005 -3.259782,-2.2 -6.518647,-4 -7.241924,-4 -0.723276,0 -3.028123,-2.25 -5.121879,-5 -2.093757,-2.75 -5.46497,-6.738988 -7.491585,-8.864418 -4.169708,-4.373018 -4.683337,-7.169415 -1.538504,-8.376201 1.180437,-0.452976 11.266193,0.472281 22.412789,2.056128 18.855765,2.679261 22.395746,2.785391 50.853749,1.52462 16.822965,-0.745306 36.887205,-2.056587 44.587205,-2.913958 7.7,-0.85737 16.7,-1.663209 20,-1.790753 3.3,-0.127547 11.4366,-0.704487 18.08135,-1.282095 13.89623,-1.207958 17.24267,-0.133066 18.58288,5.968922 0.64431,2.933497 1.65848,4.023782 3.77505,4.058335 4.08588,0.06671 7.55414,2.274474 16.09948,10.248382 6.64418,6.199865 7.46124,7.543597 7.46124,12.270593 0,6.93099 -2.01865,11.1427 -6.65266,13.88008 -5.08783,3.00546 -8.54332,2.79226 -12.6362,-0.77964 z m -73.25144,-11.63388 c 4.3305,-1.44863 8.654,-2.64863 9.60777,-2.66666 1.96019,-0.0371 20.83689,-7.128159 28.93253,-10.868607 C 167.6,89.142217 171.8,86.547416 174,84.731287 l 4,-3.302054 -7.64835,-0.04795 c -4.20659,-0.02637 -16.20659,1.19088 -26.66667,2.705005 -10.47893,1.516852 -21.71237,2.417983 -25.01832,2.006931 -3.3,-0.410312 -9.29999,-0.213326 -13.33333,0.437749 C 101.3,87.182041 85.999999,87.292481 71.333332,86.776389 56.666666,86.260297 43.937445,86.080699 43.046174,86.377284 39.136463,87.6783 58.267958,98.767641 69.333332,101.61432 c 20.832093,5.35927 44.933788,6.38561 56.793028,2.41846 z M 88.666665,38.695182 C 80.459457,37.481542 79.568083,36.506705 80.4933,29.756512 81.941677,19.189449 92.891657,8.7731407 106.02933,5.4650364 c 5.23351,-1.3178123 8.84269,-1.3139527 17.80245,0.019037 10.03507,1.4929714 11.89451,2.2372589 17.36983,6.9526956 8.13889,7.009355 10.77901,11.213877 10.7896,17.182985 0.007,3.67153 -0.71516,5.34053 -2.78917,6.450513 -1.53888,0.823582 -10.98888,1.757913 -21,2.076288 C 118.19092,38.464931 106.4,38.896066 102,39.104634 97.599999,39.313202 91.599999,39.128954 88.666665,38.695182 Z M 142,26.706044 c 0,-2.035342 -1.09196,-3.838356 -2.8578,-4.718723 -1.57179,-0.783621 -3.67179,-2.07596 -4.66667,-2.871865 -3.66314,-2.930519 -21.63237,-5.290467 -25.62364,-3.365223 -1.56854,0.756604 -4.59726,1.757688 -6.73048,2.224631 C 98.033271,18.869718 88.67792,27.201146 89.779216,28.966228 90.133969,29.534802 102.02877,30 116.21211,30 H 142 Z"
       id="path392" />
  </g>
</svg>
