<?xml version="1.0" encoding="UTF-8" standalone="no"?>
<!-- Created with Inkscape (http://www.inkscape.org/) -->

<svg
   version="1.1"
   id="svg205"
   width="76"
   height="209.33333"
   viewBox="0 0 76 209.33333"
   xmlns="http://www.w3.org/2000/svg"
   xmlns:svg="http://www.w3.org/2000/svg">
  <defs
     id="defs209" />
  <g
     id="g211">
    <path
       style="fill:#000000;stroke-width:1.33333"
       d="m 24.888044,204.76277 c -0.453977,-1.18304 1.637516,-3.82953 5.524015,-6.98985 3.440034,-2.79728 7.154608,-6.0411 8.254608,-7.20848 2.152317,-2.28418 14.512781,-12.53824 23.588482,-19.56868 5.687448,-4.40576 10.197196,-5.49992 11.823426,-2.86863 C 75.14656,169.85517 72.135904,176 70.221268,176 c -0.730465,0 -5.014979,3.45 -9.521141,7.66666 -21.972806,20.56118 -25.150584,22.9783 -30.224142,22.98939 -2.986566,0.007 -5.138732,-0.72267 -5.587941,-1.89328 z m 25.222461,-0.28893 c -1.025638,-2.67276 1.549024,-5.6604 11.222828,-13.02295 8.904522,-6.77707 11.852411,-8.0536 12.813611,-5.54876 C 74.967011,188.0392 71.204563,196 69.374475,196 c -0.673042,0 -2.276883,1.78288 -3.564091,3.96194 -3.511371,5.94428 -13.994183,8.95687 -15.699879,4.5119 z m -46.5549494,-0.0294 c -0.4888889,-0.48888 -0.8888889,-2.53847 -0.8888889,-4.55463 0,-3.91879 5.0053582,-8.65696 15.3791603,-14.55821 2.958537,-1.683 6.858537,-5.06266 8.666666,-7.51035 1.808128,-2.44769 5.387507,-5.91363 7.954174,-7.70209 2.566666,-1.78847 7.817677,-6.2541 11.668913,-9.92362 C 53.055127,153.79304 67.572713,144 70.344488,144 c 0.730947,0 2.054976,0.87476 2.942289,1.9439 1.818455,2.19111 3.46401,0.36224 -19.245533,21.38943 -7.920061,7.33333 -15.696333,14.23333 -17.280605,15.33333 -3.505356,2.43386 -10.753584,8.77802 -15.360292,13.4444 -7.356207,7.4515 -15.1070779,11.0711 -17.8447914,8.33338 z m 2.5396825,-23.87302 c -2.485566,-2.48556 -2.5937197,-3.81532 -0.6115509,-7.51902 1.7914675,-3.34739 7.9675058,-8.95176 9.9293378,-9.01027 1.678134,-0.05 12.309088,-8.77669 25.253642,-20.73 19.525012,-18.02985 34,-26.52288 34,-19.94909 0,2.4645 -10.99913,13.38708 -27.875024,27.681 -6.89793,5.84257 -14.69793,12.60897 -17.333334,15.03646 -12.88823,11.87143 -18.52637,16.58616 -19.8346775,16.58616 -0.7882354,0 -2.3760124,-0.94285 -3.5283934,-2.09524 z M 4.0567343,158.70173 c -3.61007825,-2.23116 0.8802692,-9.69471 9.6470887,-16.03473 4.562897,-3.29983 9.72809,-7.68379 11.478208,-9.74215 1.750116,-2.05835 6.500857,-5.9585 10.557201,-8.66699 4.056344,-2.70849 9.360627,-6.27453 11.787293,-7.92453 2.426667,-1.64999 7.800082,-6.28142 11.94092,-10.29205 6.261911,-6.065002 7.949796,-7.066743 10.030678,-5.95309 C 70.874155,100.82462 72,102.39176 72,103.57072 72,105.75845 63.191289,114.80862 54.062416,122 c -2.792723,2.2 -7.946696,6.4 -11.453275,9.33333 -3.506577,2.93333 -11.267029,9.23333 -17.245449,14 -5.978419,4.76667 -11.926801,9.61251 -13.218627,10.76852 -3.2733211,2.92921 -6.0903462,3.83469 -8.0883307,2.59988 z m 0.6952772,-22.1402 c -1.1469396,-1.14693 -2.0853448,-2.69987 -2.0853448,-3.45094 0,-2.16892 5.3598849,-9.11059 7.0345754,-9.11059 0.8358119,0 3.6449549,-2.0163 6.2425409,-4.48067 2.597586,-2.46437 8.922884,-7.58829 14.056217,-11.3865 10.3865,-7.68508 13.047052,-9.854582 22.59702,-18.426374 7.720116,-6.929367 16.203785,-11.646795 17.416484,-9.684608 1.691949,2.737631 -1.037355,6.632844 -9.735447,13.894253 -4.919598,4.107017 -13.423261,11.206039 -18.897028,15.775599 -5.473768,4.56956 -13.806909,12.08588 -18.518093,16.70293 -4.711184,4.61705 -10.244241,9.26261 -12.295684,10.32345 -3.2953428,1.70408 -3.9728497,1.68584 -5.8152405,-0.15655 z M 3.1476912,115.33035 c -0.4227388,-1.10164 -0.4275512,-3.35164 -0.010693,-5 0.7416078,-2.93251 19.6829898,-20.49671 33.3266868,-30.903579 3.778307,-2.881943 7.30391,-5.950544 7.834674,-6.819115 1.66099,-2.718137 23.376769,-17.94099 25.593266,-17.94099 3.299318,0 2.478772,3.854252 -1.65402,7.76923 -2.069317,1.960256 -8.519317,8.085896 -14.333333,13.612532 -5.814016,5.526637 -13.713007,12.321916 -17.553312,15.10062 -3.840305,2.778704 -8.222956,6.65691 -9.739221,8.618236 -3.908898,5.056246 -18.8108022,17.566046 -20.925005,17.566046 -0.9737346,0 -2.1163037,-0.90134 -2.5390428,-2.00298 z M 1.3629811,90.999999 c 0.039648,-4.90349 2.7250761,-8.03749 14.9192379,-17.411343 5.65522,-4.34726 14.65522,-11.83287 20,-16.634688 16.049634,-14.419197 29.18149,-24.953969 31.105742,-24.953969 2.818712,0 4.524742,4.081035 3.029927,7.247962 -0.714441,1.513621 -4.629649,5.152038 -8.700463,8.085372 -4.070813,2.933333 -8.972566,6.863018 -10.892785,8.732634 -1.920219,1.869615 -6.304864,5.469615 -9.743656,8 -3.438792,2.530384 -6.984859,5.940756 -7.880149,7.578605 -0.89529,1.637848 -2.743848,3.332127 -4.107907,3.765061 -1.36406,0.432936 -6.962061,4.942879 -12.440003,10.022095 C 5.8196127,95.476509 1.3135162,97.117533 1.3629811,90.999999 Z M 3.6254821,69.150243 C 2.3648003,68.44473 1.3333333,66.973887 1.3333333,65.881704 1.3333333,63.295744 14.599413,50.510695 24,44.036938 c 2.566667,-1.767547 8.184748,-6.430313 12.484624,-10.361703 4.299877,-3.93139 11.03332,-9.523309 14.963207,-12.426486 3.929886,-2.903177 9.54471,-7.702068 12.477389,-10.664201 4.562579,-4.6084062 5.722489,-5.1767889 8.036793,-3.9382112 1.518918,0.8129001 2.704654,2.7976758 2.704654,4.5272582 0,2.924703 -3.634442,7.493071 -5.961236,7.493071 -1.291071,0 -12.401172,9.298698 -25.47548,21.321927 -5.190194,4.77294 -11.762123,10.478073 -14.604287,12.678073 -2.842165,2.2 -7.595643,6.298588 -10.563285,9.107974 -7.183838,6.800743 -11.5124841,9.012187 -14.4368969,7.375603 z M 4.6190968,45.985085 C 4.2785936,44.893287 3.7206349,43.104701 3.3791887,42.010446 2.9948353,40.778685 5.6610333,37.594242 10.379189,33.649813 14.570635,30.145718 21,24.451184 24.666667,20.99529 c 3.666666,-3.455893 7.14295,-6.293608 7.725076,-6.306033 0.582124,-0.0124 4.702358,-3.055117 9.156076,-6.7615389 8.981161,-7.47419823 13.547294,-8.31326823 14.11838,-2.5943849 0.25556,2.5592035 -0.983047,4.3206041 -5.333334,7.5844318 -9.411456,7.061 -35.202857,28.877049 -37.026668,31.319569 -0.381591,0.511043 -2.352998,1.559993 -4.380903,2.331003 -2.9588065,1.124936 -3.8093873,1.009729 -4.3061972,-0.583252 z M 9.6,21.066666 C 6.9549709,18.421637 7.6846136,16.887041 15.041927,9.6211196 c 5.452662,-5.3849291 7.978244,-6.954453 11.190682,-6.954453 5.160664,0 6.694764,3.2056806 3.045331,6.3635749 C 27.814072,10.296942 23.981199,13.883333 20.760443,17 14.663671,22.899734 12.295857,23.762524 9.6,21.066666 Z"
       id="path531" />
  </g>
</svg>
