<?xml version="1.0" encoding="UTF-8" standalone="no"?>
<!-- Created with Inkscape (http://www.inkscape.org/) -->

<svg
   version="1.1"
   id="svg195"
   width="209.33333"
   height="138.66667"
   viewBox="0 0 209.33333 138.66667"
   xmlns="http://www.w3.org/2000/svg"
   xmlns:svg="http://www.w3.org/2000/svg">
  <defs
     id="defs199" />
  <g
     id="g201">
    <path
       style="fill:#000000;stroke-width:1.33333"
       d="m 60.99972,131.7656 c -0.916513,-0.58195 -3.646184,-1.06728 -6.065934,-1.07851 -6.443051,-0.0299 -11.115843,-2.99121 -15.362579,-9.73577 L 35.809083,114.9764 23.571208,114.41701 C 2.7959516,113.46739 -2.5152186,108.07438 7.875752,98.47969 c 6.501101,-6.002906 6.811641,-8.377663 1.4575812,-11.146355 -3.0679673,-1.586508 -4,-2.981604 -4,-5.987328 0,-4.520069 3.0220621,-6.679339 9.3482428,-6.679339 4.144896,0 10.525928,4.827982 12.352597,9.346154 0.632933,1.565529 1.474171,1.201203 3.964628,-1.717017 6.292992,-7.373882 18.39689,-7.541287 20.219445,-0.279648 1.331358,5.304557 -0.206624,8.362867 -4.702112,9.350241 -5.797349,1.273311 -6.204973,4.118704 -1.31308,9.165862 2.322361,2.39606 4.864111,6.70652 5.648333,9.57878 3.140529,11.50238 5.512319,11.44434 24.435918,-0.5979 3.641352,-2.31722 8.741352,-4.80228 11.333334,-5.52236 11.154531,-3.09885 32.326021,-0.0348 44.712691,6.47104 2.93333,1.54067 13.00387,4.61704 22.37897,6.83637 13.85135,3.27898 19.97295,4.03897 32.66667,4.05556 8.59156,0.0112 16.27365,0.46123 17.07132,1 2.86405,1.93451 3.117,6.93894 0.42357,8.38042 -1.70638,0.91324 -21.22037,1.05755 -58.87973,0.43544 -66.604486,-1.10026 -60.627442,-1.13415 -72.661076,0.41201 -5.31682,0.68315 -10.41682,0.76594 -11.333334,0.18398 z m 40.69232,-13.97351 c -0.90271,-0.36523 -2.70271,-0.38747 -3.999999,-0.0494 -1.297291,0.33805 -0.558709,0.63688 1.641291,0.66405 2.199998,0.0272 3.261418,-0.24942 2.358708,-0.61465 z M 68.300487,38.973698 c -1.668064,-0.275609 -4.014152,-2.107441 -5.213529,-4.070736 -5.337751,-8.737527 -8.86756,-13.569628 -9.912499,-13.569628 -0.621245,0 -2.644284,2.989208 -4.49564,6.642684 -6.732594,13.286136 -12.894821,13.510066 -21.347383,0.775741 -2.71002,-4.082817 -5.400254,-7.7156 -5.978296,-8.072851 C 19.851981,19.75114 17.934489,22.546251 16.040957,28.42243 14.123073,34.374174 9.2970845,37.403005 6.0394851,34.699437 2.947756,32.13353 3.4952493,29.499494 9.6666665,17.248763 15.104264,6.4547204 15.516662,6.0000001 19.868488,6.0000001 c 3.962885,0 5.093912,0.8412337 8.963234,6.6666669 7.543177,11.356579 7.960848,11.824922 9.627136,10.795099 0.880449,-0.544147 3.384623,-4.523059 5.564831,-8.842027 2.180208,-4.318967 5.166817,-8.4963885 6.636909,-9.2831582 3.076578,-1.6465347 4.958129,0.00607 13.348605,11.7243692 l 5.055745,7.060949 2.625931,-3.727616 C 73.135142,18.344094 74.714115,15.466667 75.199711,14 c 0.485594,-1.466666 2.327148,-4.4299088 4.092338,-6.584983 4.989622,-6.0916934 8.304524,-3.7800821 18.525157,12.918317 2.723384,4.449449 5.224734,4.676993 7.328544,0.666667 C 111.28304,9.3009756 112.82766,7.315325 116.08632,6.9355844 119.77446,6.5057951 125.29306,11.333089 131.02167,20 c 1.6965,2.566667 3.63701,4.581298 4.31222,4.476958 0.67523,-0.104333 2.86965,-3.40434 4.87652,-7.333334 4.79916,-9.3957157 9.64724,-13.6704204 13.29187,-11.7198749 2.70364,1.4469443 9.81826,11.6683429 11.24022,16.1485329 1.12591,3.547439 4.15062,2.966521 6.45088,-1.238948 1.10307,-2.016667 3.01911,-5.558312 4.25787,-7.870322 1.23877,-2.312011 3.70955,-4.8676208 5.49063,-5.6791334 2.82153,-1.2855818 3.69862,-0.9863969 6.81488,2.324646 4.78757,5.0868224 14.9099,23.1563224 14.9099,26.6158604 0,3.318671 -4.20682,4.972328 -7.78193,3.058991 -1.40212,-0.750395 -4.56089,-5.244145 -7.01948,-9.986107 -3.42039,-6.59701 -4.86883,-8.290899 -6.16771,-7.212918 -0.93365,0.77486 -1.69754,2.20529 -1.69754,3.178734 0,2.573902 -7.63108,13.476712 -10.09415,14.421877 -3.41875,1.311898 -6.52684,-1.237134 -12.71388,-10.427004 -6.2,-9.209124 -6.89355,-9.342602 -10.86644,-2.091291 -5.21707,9.522197 -7.2582,12.143139 -10.00952,12.852819 -3.7853,0.976394 -6.42966,-1.185889 -9.90215,-8.096955 -3.23023,-6.428932 -6.25464,-10.089197 -8.33652,-10.089197 -0.83014,0 -3.7274,3.856473 -6.43835,8.569941 -2.71095,4.713468 -6.16813,8.963225 -7.68261,9.443905 -3.55423,1.128066 -8.88578,-2.352154 -11.750709,-7.670381 -3.00341,-5.575288 -6.69634,-9.276284 -8.279659,-8.297738 -0.720531,0.445312 -2.797836,3.745653 -4.616236,7.334092 -3.564769,7.034735 -6.247136,9.04738 -11.009289,8.260545 z"
       id="path670" />
  </g>
</svg>
