<?xml version="1.0" encoding="UTF-8" standalone="no"?>
<!-- Created with Inkscape (http://www.inkscape.org/) -->

<svg
   version="1.1"
   id="svg2"
   width="205.33333"
   height="208"
   viewBox="0 0 205.33333 208"
   xmlns="http://www.w3.org/2000/svg"
   xmlns:svg="http://www.w3.org/2000/svg">
  <defs
     id="defs6" />
  <g
     id="g8">
    <path
       style="fill:#000000;stroke-width:1.33333"
       d="m 70.988648,194.45532 c -2.258442,-2.25845 -2.049164,-11.21285 0.428343,-18.32753 6.34183,-18.2119 17.949285,-28.15487 35.823039,-30.68611 9.64558,-1.36599 15.22229,-0.39637 24.67961,4.29101 10.33282,5.12131 15.59492,11.62967 22.31549,27.60064 7.12056,16.92155 6.07997,17.35714 -43.37945,18.15832 -29.334367,0.47518 -38.59628,0.23442 -39.867032,-1.03633 z m 71.196992,-12.45831 c 1.45268,-3.78561 -0.81266,-8.2642 -7.82588,-15.47188 -5.3126,-5.4599 -8.57587,-7.62418 -13.3789,-8.8732 -9.06718,-2.35788 -14.82202,-2.05362 -21.622964,1.14319 -6.20315,2.91583 -15.357897,11.88231 -15.357897,15.04205 0,1.00623 -0.375,3.7045 -0.833334,5.99616 L 82.333332,184 h 29.541848 c 25.04898,0 29.65874,-0.30463 30.31046,-2.00299 z M 34.672019,102.89106 c -5.47871,-0.51983 -8.005353,-2.29285 -8.005353,-5.617584 0,-3.394927 6.198165,-4.864385 21.989852,-5.213347 15.100358,-0.333685 21.257764,-2.283352 23.625903,-7.480853 1.479619,-3.247409 1.275427,-3.850849 -2.330351,-6.886749 -2.173639,-1.830106 -5.452071,-4.619879 -7.285404,-6.199496 -5.155368,-4.441915 -13.197744,-8.826364 -16.190161,-8.826364 -1.48742,0 -6.954615,-2.093843 -12.149323,-4.652986 C 24.26632,53.057257 19.517802,47.700591 15.179653,36.413897 13.650308,32.434955 11.736381,30.212707 8.527304,28.6899 2.8833228,26.011656 1.3021893,21.053591 4.8419714,17.133559 6.2122204,15.616116 10.333333,12.432609 14,10.0591 19.888454,6.2473825 21.584988,5.7879065 28.53359,6.1229352 c 6.38262,0.3077397 8.996911,1.1908012 13.855945,4.6802958 3.293963,2.365545 10.704008,5.933641 16.466767,7.929101 5.76276,1.99546 11.956474,4.597011 13.763809,5.781223 1.807336,1.18421 4.092498,2.153112 5.078137,2.153112 0.98564,0 2.956749,0.880917 4.380244,1.957596 1.423496,1.076677 3.506388,1.976677 4.628652,2 1.122263,0.02332 7.019769,2.142404 13.105572,4.70907 C 105.89852,37.9 112.89489,40 115.36021,40 c 2.46533,0 4.88392,0.649656 5.37465,1.44368 5.19559,8.406636 45.52832,9.288284 60.41598,1.320653 1.47061,-0.787049 5.0491,-1.431 7.95218,-1.431 5.69143,0 6.89698,1.388872 6.89698,7.945791 0,2.050229 0.9,4.474624 2,5.387543 3.00841,2.496756 2.43352,5.75448 -2,11.333333 -4.76414,5.994881 -4.84406,6.965209 -1.15635,14.04022 2.32295,4.456677 2.57233,6.051156 1.36192,8.707725 -1.53535,3.369731 -7.22621,4.58204 -8.88791,1.893367 -1.46481,-2.370109 -13.04665,-7.554223 -20.651,-9.243535 -4.03333,-0.896008 -9.43333,-2.127604 -12,-2.73688 C 152.1,78.051623 145.5,77.164873 140,76.690345 c -5.5,-0.474529 -13.5725,-1.472597 -17.93889,-2.21793 -9.64926,-1.647108 -11.39445,-0.126096 -11.39445,9.930813 v 6.560215 l 4.34177,-0.814522 c 5.79965,-1.08802 23.11561,-1.308326 24.72357,-0.314552 2.20009,1.359731 2.72737,5.939448 0.96182,8.35398 -1.46761,2.007081 -4.48488,2.343941 -22.85897,2.552131 -11.6425,0.13192 -27.381093,0.70102 -34.974647,1.26469 -15.043485,1.11666 -40.77104,1.58964 -48.188184,0.88589 z M 96.914064,89.100915 c 4.978116,-4.676695 4.024076,-8.510412 -3.247399,-13.049402 l -6.333333,-3.953385 -0.429471,4.880121 c -0.236209,2.684067 -1.586209,6.504611 -3,8.490096 -1.41379,1.985487 -2.570529,3.931135 -2.570529,4.323662 0,0.392528 2.25,0.949042 5,1.236702 2.75,0.287659 5.561329,0.623878 6.247398,0.747154 0.68607,0.12328 2.63607,-1.080451 4.333334,-2.674948 z M 175.33333,66.041328 c -3.71291,-3.043436 -5.07659,-3.282201 -19,-3.326711 -8.25,-0.02637 -15,0.47705 -15,1.118716 0,1.468576 6.47569,2.793296 14.5,2.96624 3.39167,0.07309 7.66667,0.613291 9.5,1.200427 1.83333,0.587136 5.73333,1.124348 8.66667,1.193804 l 5.33333,0.12628 -4,-3.27876 z M 96.666665,64 c 0.469212,-0.759201 -0.679051,-1.333333 -2.666667,-1.333333 -1.987615,0 -3.135878,0.574132 -2.666666,1.333333 0.453225,0.733333 1.653225,1.333333 2.666666,1.333333 1.013442,0 2.213442,-0.6 2.666667,-1.333333 z m 40.666665,0 c 0,-0.736667 -3.43083,-1.324197 -7.66667,-1.312916 C 124.2248,62.701576 122.58038,63.082573 124,64 c 2.64067,1.706531 13.33333,1.706531 13.33333,0 z M 107.88889,52.863493 C 105.81908,51.113028 91.496953,44 90.042191,44 89.055733,44 81.189123,40.375549 72.560833,35.945664 57.27149,28.095901 53.333332,27.137435 53.333332,31.266084 c 0,1.116096 -1.637176,2.375179 -3.666666,2.819877 -6.386081,1.399306 -7,1.775384 -7,4.288115 0,4.663521 7.532031,8.50338 20.504201,10.453121 6.689356,1.005423 14.862465,2.364874 18.162465,3.021002 5.759956,1.145232 27.701108,1.984105 26.555558,1.015294 z M 33.352171,46.0227 c -0.931973,-1.122959 -1.757724,-4.453088 -1.835002,-7.400287 -0.11564,-4.409932 0.563769,-5.944613 3.837829,-8.669154 2.188084,-1.820838 5.628335,-3.680208 7.645001,-4.131936 2.016667,-0.451727 3.664418,-1.196323 3.66167,-1.654656 -0.0028,-0.458334 -2.764758,-1.968414 -6.137795,-3.355734 -5.146559,-2.116762 -6.321773,-2.223972 -7.307919,-0.666666 -0.646317,1.020653 -1.184309,2.232941 -1.195538,2.693973 -0.0112,0.461031 -1.816151,1.582056 -4.010936,2.491165 -3.756272,1.5559 -3.941056,1.976299 -3.147897,7.161762 0.943692,6.1696 3.326938,11.50688 6.599395,14.779337 2.664814,2.664812 4.263152,1.610232 1.891192,-1.247804 z"
       id="path30" />
  </g>
</svg>
