<?xml version="1.0" encoding="UTF-8" standalone="no"?>
<!-- Created with Inkscape (http://www.inkscape.org/) -->

<svg
   version="1.1"
   id="svg165"
   width="221.33333"
   height="208"
   viewBox="0 0 221.33333 208"
   xmlns="http://www.w3.org/2000/svg"
   xmlns:svg="http://www.w3.org/2000/svg">
  <defs
     id="defs169" />
  <g
     id="g171">
    <path
       style="fill:#000000;stroke-width:1.33333"
       d="m 65.873451,199.01631 c -1.030399,-1.0304 -1.873452,-2.76491 -1.873452,-3.85446 0,-3.29009 2.949096,-14.40708 4.18128,-15.76185 0.633629,-0.69667 1.152053,-2.27808 1.152053,-3.51425 0,-3.88594 3.37823,-8.98419 10.13572,-15.29635 8.238155,-7.69523 14.091031,-10.88111 22.530948,-12.26419 6.44695,-1.05649 17.9342,0.47068 20.1196,2.67479 0.54533,0.55 2.13951,1 3.54262,1 3.95307,0 17.7867,14.72107 21.45391,22.83019 7.2816,16.10145 7.76131,21.41018 2.09711,23.20793 -3.1686,1.00567 -23.1134,1.85069 -57.673123,2.44351 -19.068177,0.32708 -24.165259,0.0361 -25.666666,-1.46532 z m 62.301339,-10.58279 c 12.21598,-1.03188 13.11977,-1.76773 9.88675,-8.04973 -8.4442,-16.40768 -18.91671,-22.52784 -34.71917,-20.28994 -9.426269,1.33492 -13.098597,3.3111 -20.53085,11.04812 -3.604283,3.75208 -4.654224,6.08528 -5.174372,11.49856 l -0.65256,6.79132 21.174372,-0.12573 c 11.6459,-0.0692 25.15303,-0.46183 30.01583,-0.87259 z M 78.666665,60.628367 C 70.233332,59.691035 60.633332,58.024291 57.333332,56.924491 54.033333,55.824691 46.833333,53.878419 41.333333,52.59944 31.262966,50.257663 17.287349,45.217195 10.139085,41.348873 0.56727882,36.169039 4.1027022,29.259176 19.333333,23.379031 24.466666,21.397185 30.466666,19.00538 32.666666,18.063907 37.351399,16.059111 53.010886,12.545357 65.333332,10.733997 70.099999,10.033313 80.299999,8.4734821 87.999999,7.2677072 98.938471,5.5548064 106.81097,5.261268 124,5.9253916 c 12.1,0.4675015 24.7,1.4631223 28,2.2124907 3.3,0.7493684 8.7,1.856895 12,2.4611707 14.19104,2.598572 24.22297,5.960064 42.30021,14.173912 7.2076,3.27495 9.07241,6.196436 8.14363,12.758084 C 213.33725,45.348788 176.19633,55.764237 132,60.650821 110.9888,62.973932 99.727462,62.969191 78.666665,60.628367 Z M 133.4181,47.338001 c 8.38671,-1.097433 18.24856,-2.578092 21.91523,-3.290352 3.66667,-0.712261 11.76667,-2.291665 18,-3.509788 6.23333,-1.218121 12.96403,-2.50273 14.95711,-2.854685 1.99308,-0.351955 4.29677,-1.45082 5.1193,-2.441923 1.16759,-1.406842 0.63147,-2.325294 -2.44477,-4.188296 -3.44432,-2.085918 -11.09099,-3.718729 -45.824,-9.784892 -12.87287,-2.248264 -35.93829,-2.889985 -47.140971,-1.311545 -5.866667,0.826603 -14.266667,1.691491 -18.666667,1.921972 -4.4,0.23048 -11.9,1.356181 -16.666666,2.501559 -4.766667,1.145376 -14.223852,3.397348 -21.015968,5.004384 -6.792116,1.607034 -12.635509,3.384977 -12.985318,3.950981 -1.279652,2.070519 3.266061,4.113252 13.512898,6.072369 5.768613,1.102915 12.888388,2.65528 15.821721,3.4497 21.386218,5.791924 51.654191,7.590115 75.418101,4.480516 z"
       id="path1087" />
  </g>
</svg>
