<?xml version="1.0" encoding="UTF-8" standalone="no"?>
<!-- Created with Inkscape (http://www.inkscape.org/) -->

<svg
   version="1.1"
   id="svg75"
   width="220"
   height="72"
   viewBox="0 0 220 72"
   xmlns="http://www.w3.org/2000/svg"
   xmlns:svg="http://www.w3.org/2000/svg">
  <defs
     id="defs79" />
  <g
     id="g81">
    <path
       style="fill:#000000;stroke-width:1.33333"
       d="m 110.33333,61.904033 c -2.01666,-1.09406 -3.66666,-2.568617 -3.66666,-3.276796 0,-2.562818 -14.189317,-8.049144 -26.043485,-10.069761 C 66.921864,46.222 46.916545,46.515925 26.369593,49.354591 14.165395,51.040663 13.244522,50.999593 10.652251,48.65362 8.150514,46.38958 7.9607104,45.073412 8.5771664,34.26422 9.4904445,18.250423 12.622736,14.924324 22.257505,19.737424 c 7.951992,3.97246 15.993146,5.428324 30.409162,5.505632 17.168486,0.09207 34.402037,-2.188833 42,-5.558799 3.3,-1.463668 8.100003,-3.56796 10.666663,-4.676204 C 107.9,13.899809 110.9,12.249414 112,11.34051 c 3.36086,-2.777002 12.19617,-3.3589231 18,-1.185536 15.23067,5.703498 43.86989,10.054318 62.94955,9.563182 18.75934,-0.482892 19.44946,0.0076 20.17317,14.339196 0.46212,9.151356 -1.27108,17.788319 -3.61781,18.028405 -0.46103,0.04717 -11.63824,0.249592 -24.83824,0.449835 -25.54006,0.387439 -42.98363,3.183307 -54.98547,8.813113 -6.65021,3.119471 -14.22088,3.336767 -19.34787,0.555328 z M 137.24456,46.74322 c 10.37916,-3.622047 25.38697,-5.409887 45.41264,-5.409887 h 17.13092 l 0.89949,-4.095341 c 0.49471,-2.252437 0.51606,-4.478776 0.0475,-4.947417 -0.46864,-0.468642 -5.77573,-0.975927 -11.79355,-1.1273 C 170.52728,30.70008 147.72223,28.281295 140,25.972369 c -14.00784,-4.188312 -12.63593,-5.245392 -12.90048,9.940002 -0.15813,9.076792 0.24472,13.420962 1.24456,13.420962 0.81311,0 4.81832,-1.16555 8.90048,-2.590113 z m -22.48744,-2.314453 c 0.74677,-1.964178 1.18192,-7.208152 0.96699,-11.653276 C 115.23859,22.733973 113.54137,22.096265 102.69208,27.878877 98.439468,30.145495 94.067513,32 92.976623,32 c -1.090891,0 -2.643463,0.795283 -3.45016,1.767293 -1.135884,1.368656 -0.496018,2.283443 2.83674,4.055551 2.366905,1.25854 7.303464,4.028857 10.970127,6.156261 8.34083,4.839355 9.73398,4.894192 11.42379,0.449662 z M 28,34.666667 c 0,-0.733334 -1.2,-1.333334 -2.666667,-1.333334 -1.466666,0 -2.666666,0.6 -2.666666,1.333334 C 22.666667,35.4 23.866667,36 25.333333,36 26.8,36 28,35.4 28,34.666667 Z"
       id="path1226" />
  </g>
</svg>
