<?xml version="1.0" encoding="UTF-8" standalone="no"?>
<!-- Created with Inkscape (http://www.inkscape.org/) -->

<svg
   version="1.1"
   id="svg213"
   width="213.33333"
   height="209.33333"
   viewBox="0 0 213.33333 209.33333"
   xmlns="http://www.w3.org/2000/svg"
   xmlns:svg="http://www.w3.org/2000/svg">
  <defs
     id="defs217" />
  <g
     id="g219">
    <path
       style="fill:#000000;stroke-width:1.33333"
       d="m 62.333054,201.09893 c -0.916514,-0.58196 -3.646184,-1.06729 -6.065935,-1.07852 -6.44305,-0.0299 -11.115842,-2.9912 -15.362578,-9.73576 l -3.762124,-5.97492 -12.237876,-0.55939 C 4.1292849,182.80072 -1.1818853,177.4077 9.2090853,167.81302 c 6.5011007,-6.0029 6.8116407,-8.37766 1.4575817,-11.14636 -3.0679678,-1.5865 -4.0000004,-2.9816 -4.0000004,-5.98733 0,-4.52007 3.022062,-6.67933 9.3482424,-6.67933 4.144896,0 10.525928,4.82798 12.352597,9.34616 0.632934,1.56552 1.474171,1.2012 3.964628,-1.71703 6.292992,-7.37388 18.396891,-7.54128 20.219445,-0.27964 1.331359,5.30455 -0.206624,8.36287 -4.702112,9.35024 -5.797349,1.27331 -6.204973,4.11869 -1.31308,9.16585 2.322362,2.39607 4.864111,6.70652 5.648334,9.57879 3.140529,11.50237 5.512318,11.44435 24.435918,-0.59791 3.641352,-2.31721 8.741352,-4.80226 11.333333,-5.52236 11.154532,-3.09885 32.326028,-0.0348 44.712688,6.47104 2.93334,1.54068 13.00387,4.61704 22.37898,6.83638 13.85134,3.27897 19.97294,4.03897 32.66666,4.05556 8.59156,0.0107 16.27366,0.46122 17.07132,1 2.86406,1.9345 3.117,6.93894 0.42358,8.38042 -1.70639,0.91323 -21.22038,1.05755 -58.87974,0.43544 -66.604483,-1.10026 -60.627439,-1.13416 -72.661073,0.41202 -5.31682,0.68313 -10.41682,0.76593 -11.333333,0.18397 z m 40.692316,-13.97352 c -0.90271,-0.36523 -2.70271,-0.38745 -3.999996,-0.0495 -1.29729,0.33806 -0.558709,0.63688 1.641296,0.66406 2.2,0.0272 3.26141,-0.24942 2.3587,-0.61466 z M 106,74.671147 C 104.53333,74.039541 98.938057,72.249128 93.566056,70.69245 85.408215,68.328502 82.815912,66.829888 77.833997,61.597728 67.2522,50.484402 55.376172,21.600277 57.99545,13.347665 59.997314,7.0403531 70.666666,7.0677854 70.666666,13.380245 70.666666,15.826101 71.643382,16 85.380715,16 H 100.09477 L 102.705,9.9105637 c 2.29953,-5.3645856 3.04777,-6.0391119 6.28595,-5.6666666 2.99963,0.3450079 3.99621,1.4352345 5.41814,5.9272739 1.54028,4.865866 2.31375,5.598963 6.66667,6.318659 2.70833,0.447786 8.99307,0.820758 13.96608,0.828828 7.44476,0.01213 9.17429,-0.39747 9.79165,-2.318658 2.63059,-8.1862286 3.6258,-9.6666668 6.49835,-9.6666668 4.67737,0 6.47988,3.197148 5.45714,9.6794238 -0.49062,3.109651 -1.43541,9.853909 -2.09954,14.987243 -1.15668,8.940551 -3.65183,15.071121 -11.55236,28.384223 -2.81718,4.747187 -5.4034,6.727225 -15.23841,11.666667 -11.6458,5.848873 -16.61239,6.896739 -21.89867,4.620257 z m 9.87794,-12.609295 c 3.55077,-1.799313 6.77926,-4.114 7.17441,-5.143746 0.39515,-1.029748 2.42002,-2.231258 4.49972,-2.670023 4.61099,-0.972809 13.78346,-13.821394 13.77698,-19.298465 -0.004,-3.573018 -0.12107,-3.620228 -9.76435,-3.945865 -5.36804,-0.181269 -12.71611,-0.998517 -16.32905,-1.816105 -7.50952,-1.699364 -10.12153,-1.715007 -26.248314,-0.157191 -6.423631,0.620511 -12.261695,1.710567 -12.973477,2.422349 -1.727112,1.727112 0.566574,9.897081 4.006208,14.269867 1.455629,1.850532 2.646598,4.360258 2.646598,5.577168 0,4.746579 13.442904,14.437909 16.98788,12.246993 0.626695,-0.387318 2.010795,-0.152991 3.075785,0.520725 3.1058,1.964749 6.26266,1.483161 13.14761,-2.005707 z"
       id="path241" />
  </g>
</svg>
