<?xml version="1.0" encoding="UTF-8" standalone="no"?>
<!-- Created with Inkscape (http://www.inkscape.org/) -->

<svg
   version="1.1"
   id="svg193"
   width="356"
   height="261.33334"
   viewBox="0 0 356 261.33334"
   xmlns="http://www.w3.org/2000/svg"
   xmlns:svg="http://www.w3.org/2000/svg">
  <defs
     id="defs197" />
  <g
     id="g199">
    <path
       style="fill:#000000;stroke-width:1.33333"
       d="m 330.20145,253.86614 c -2.0892,-1.14923 -7.4892,-5.0862 -12,-8.74883 -8.8892,-7.21777 -16.77653,-11.78397 -20.35478,-11.78397 -1.24276,0 -4.65818,-2.52147 -7.58982,-5.60327 -6.28897,-6.61108 -11.61144,-10.6703 -18.92352,-14.43222 -5.76886,-2.96796 -20.01178,-11.00482 -27.11085,-15.29784 -2.42532,-1.46667 -8.40168,-5.81667 -13.28079,-9.66667 -4.87909,-3.85 -9.4055,-7 -10.05868,-7 -0.65317,0 -4.74082,-3.07823 -9.08368,-6.84051 -4.34285,-3.76228 -8.26333,-6.47327 -8.71217,-6.02443 -1.16188,1.16188 2.06217,31.36313 3.66851,34.36458 1.60364,2.99641 0.50158,13.54631 -2.54342,24.34805 -2.40118,8.5179 -8.9286,17.09024 -18.03804,23.6891 -6.71744,4.86609 -13.40208,5.03877 -19.6437,0.50748 -2.49178,-1.809 -6.03051,-4.31976 -7.86384,-5.5795 -6.94955,-4.77521 -9.73367,-8.05724 -13.967,-16.46477 -5.27198,-10.47033 -7.95739,-21.73759 -6.03638,-25.32703 1.9538,-3.6507 1.55514,-12.27205 -0.70569,-15.26115 -1.07668,-1.42349 -1.9576,-3.67349 -1.9576,-5 0,-1.3265 -0.48165,-2.41182 -1.07035,-2.41182 -0.58869,0 -6.18381,4.35 -12.43361,9.66666 -6.2498,5.31667 -13.71814,11.33966 -16.59632,13.38442 -14.761593,10.48719 -20.224492,14.56267 -23.532488,17.55591 -1.998021,1.80792 -5.298021,4.33952 -7.333333,5.62578 -2.035311,1.28627 -6.058564,4.3101 -8.940564,6.71962 -2.881999,2.40952 -5.799651,4.38094 -6.483672,4.38094 -0.684022,0 -3.279726,1.65 -5.768234,3.66667 -2.488506,2.01667 -6.550062,5.31667 -9.02568,7.33333 -6.16294,5.0204 -11.516712,4.89244 -14.613065,-0.34926 -1.345535,-2.27782 -2.015645,-5.13956 -1.548291,-6.61207 0.870931,-2.74405 10.111404,-10.70533 12.42544,-10.70533 0.749516,0 3.237744,-2.36736 5.529396,-5.26082 2.291654,-2.89345 5.492071,-5.66309 7.11204,-6.15476 1.619968,-0.49166 4.855364,-2.32429 7.189768,-4.07252 2.334404,-1.74821 4.636318,-3.17857 5.115363,-3.17857 0.479047,0 3.36908,-1.71099 6.422296,-3.80219 3.053217,-2.0912 7.051304,-4.80836 8.884637,-6.03812 1.833334,-1.22976 5.733334,-4.0322 8.666667,-6.22764 2.933333,-2.19544 8.742268,-5.7662 12.90875,-7.93501 4.16647,-2.16882 8.56098,-5.60539 9.76558,-7.63684 2.22139,-3.74619 6.17675,-6.78572 25.32567,-19.46179 7.72559,-5.11412 10.79589,-7.95541 11.13533,-10.30477 0.25776,-1.78407 2.20776,-4.6845 4.33334,-6.44542 2.12556,-1.7609 3.86466,-3.74328 3.86466,-4.40526 0,-2.15468 -7.16786,-7.93854 -14.66666,-11.83476 -8.57872,-4.45731 -12.62819,-7.66639 -13.76485,-10.9082 C 128.45185,117.05 126.89901,116 125.45106,116 c -1.44795,0 -6.60656,-3.37131 -11.46357,-7.49181 -4.85701,-4.1205 -14.564739,-10.437699 -21.572737,-14.038226 L 79.672939,87.923549 63.503136,87.51261 C 54.609744,87.286594 45.833333,86.453373 44,85.661008 39.762244,83.829453 24.130088,80.353143 14.911759,79.192309 7.9147244,78.311194 4,76.031625 4,72.838322 4,69.656015 11.373603,59.87511 14.333333,59.131404 c 1.65,-0.414604 3,-1.755276 3,-2.979272 0,-1.223996 0.934023,-3.558951 2.075606,-5.188789 1.721436,-2.457695 3.339844,-2.963342 9.484665,-2.963342 h 7.409061 L 35.424668,43.666668 C 31.960376,26.568746 32.390863,22.666667 37.74144,22.666667 c 3.165528,0 6.902727,4.544879 12.960656,15.761697 6.231155,11.537564 8.627295,12.378068 7.625844,2.674948 C 57.683596,34.860217 52.252781,22.025434 47.988,16.666667 46.922541,15.3279 46.226728,11.412566 46.513128,8.3675737 c 0.08444,-0.8978346 2.036705,-2.6062501 4.338355,-3.7964789 3.207356,-1.6585881 4.907541,-1.834757 7.279029,-0.7542347 3.403027,1.5505228 8.536155,10.4802999 8.536155,14.8498069 0,1.525096 1.11486,4.998999 2.477466,7.719784 1.362607,2.720786 2.846112,6.485614 3.296678,8.366286 0.450565,1.880672 3.835705,7.404101 7.522533,12.27429 3.686827,4.870188 6.703323,9.439852 6.703323,10.15481 0,2.307522 5.874285,11.136942 10.48704,15.762684 2.467872,2.474818 7.567873,6.045912 11.333333,7.935762 C 117.64939,85.478782 128,92.19168 128,93.535428 c 0,1.70708 12.13565,7.332372 17.66667,8.189102 5.27324,0.81681 6.82546,-1.21634 3.2158,-4.212101 -0.98132,-0.814417 -2.53735,-3.994507 -3.45786,-7.066864 -0.92049,-3.072357 -2.4733,-6.829483 -3.45068,-8.349167 -2.18658,-3.399845 -5.98216,-21.496358 -5.95108,-28.373519 0.0363,-8.013419 4.7619,-24.12127 8.77598,-29.913593 4.20925,-6.073944 4.87262,-6.473515 16.31065,-9.824387 8.2722,-2.423416 8.53903,-2.421577 13.20457,0.09099 2.61898,1.41041 8.46287,6.170323 12.98644,10.577583 7.5479,7.353824 8.73247,9.329784 14.39567,24.013202 8.13459,21.091131 9.25285,25.699784 7.61861,31.398064 C 208.59164,82.586115 208,87.574238 208,91.149452 v 6.500388 l 4.57771,-3.491586 c 2.51773,-1.920372 5.14936,-3.491585 5.84806,-3.491585 0.6987,0 4.86439,-2.4 9.25708,-5.333333 4.39271,-2.933334 8.56495,-5.333334 9.27164,-5.333334 2.54687,0 21.31754,-19.522598 25.01803,-26.020226 2.08189,-3.655543 5.95339,-9.346442 8.60332,-12.646442 2.64993,-3.3 8.04977,-11.4 11.99965,-18 8.80288,-14.7090658 11.66543,-18.0000005 15.65692,-18.0000005 4.20771,0 8.44007,4.5305393 8.40768,9.0000005 -0.0255,3.507166 -10.29992,18.910354 -18.0422,27.048236 -3.42537,3.600388 -5.91514,11.951765 -3.56314,11.951765 1.76254,0 14.96525,-15.205167 14.96525,-17.235041 0,-0.846784 1.07404,-3.16531 2.38676,-5.152284 1.31272,-1.986972 3.02812,-4.812676 3.81199,-6.279343 2.25206,-4.213753 7.39761,-3.458532 8.6626,1.271426 1.32777,4.964721 0.28725,9.212469 -2.98127,12.170429 -1.6656,1.507347 -2.54675,4.078566 -2.54675,7.431463 v 5.126683 h 9.8523 c 7.6105,0 10.54758,0.563027 12.90805,2.474415 2.797,2.264872 2.91028,2.825676 1.33765,6.622328 -2.05416,4.959176 -2.59306,5.136671 -18.76466,6.1803 -9.58979,0.618875 -13.51126,0.363257 -16.14363,-1.052307 -3.74219,-2.012376 -16.63736,-1.530464 -17.99896,0.672648 -1.65624,2.679855 2.61564,4.76365 11.44871,5.584596 5.11316,0.47522 11.36637,1.851009 13.89601,3.05731 4.0024,1.908609 6.29949,2.005143 17.6986,0.743764 7.2046,-0.797232 14.95251,-1.840957 17.21759,-2.319391 4.88077,-1.030927 8.54834,1.847236 8.54834,6.708392 0,3.950588 -1.30532,4.320906 -18.66666,5.295696 -13.78612,0.774053 -27.60896,2.287286 -43.33334,4.743845 -4.4,0.687396 -10.79968,1.510453 -14.2215,1.829017 -3.42184,0.318564 -7.54514,1.287588 -9.1629,2.153385 -1.61776,0.865799 -4.61213,1.240028 -6.65417,0.831622 -2.88845,-0.577691 -6.18271,0.760453 -14.83711,6.026912 -6.11837,3.72321 -16.12184,9.18293 -22.2299,12.13272 -8.16296,3.94216 -11.45258,6.28421 -12.41511,8.839 -0.72024,1.91166 -3.15065,5.38471 -5.40092,7.71788 -2.98296,3.09287 -4.13477,5.60423 -4.25155,9.26984 -0.13898,4.36275 0.43646,5.38879 4.35087,7.75787 2.48108,1.50159 7.62707,5.56881 11.43552,9.03829 4.25313,3.87456 9.51432,7.14455 13.63771,8.47627 3.88745,1.25551 10.85989,5.47144 16.56449,10.01583 5.41817,4.31624 10.38331,7.85192 11.03361,7.85706 0.65032,0.005 5.6533,4.50938 11.11774,10.00938 5.46444,5.5 10.45901,10 11.09906,10 0.64006,0 4.33707,2.56885 8.21562,5.70856 3.87853,3.13969 9.908,7.48969 13.3988,9.66667 3.49081,2.17696 10.39081,6.56308 15.33333,9.74692 4.94253,3.18385 13.01893,7.83258 17.94756,10.33053 7.4048,3.75292 9.17033,5.29481 10.16556,8.87785 2.30435,8.29623 -4.18919,12.64107 -12.25859,8.20227 z m -150.23166,-21.8422 c 5.75129,-4.55511 7.27865,-7.872 9.27092,-20.13315 2.24814,-13.8359 1.79681,-19.95459 -2.06351,-27.97459 -7.61247,-15.81529 -12.54145,-18.60368 -17.63253,-9.97496 -1.82023,3.08506 -4.17716,4.98375 -7.1317,5.74515 -3.55813,0.91693 -4.75365,2.15516 -6.17169,6.39209 -0.96729,2.89018 -1.43951,7.65486 -1.04936,10.58819 0.39015,2.93334 1.18941,8.93422 1.77615,13.33528 1.66453,12.48578 10.33833,25.86644 16.84006,25.9784 0.6278,0.0107 3.40055,-1.76957 6.16166,-3.95641 z m -3.14922,-126.6906 c 9.13508,0 11.86794,-6.028856 11.78571,-26.000005 -0.054,-13.101203 -0.53969,-16.054237 -4.55089,-27.666667 -2.46978,-7.15 -4.98798,-13 -5.596,-13 -0.60802,0 -2.7093,-1.8 -4.6695,-4 -3.9829,-4.470123 -5.065,-4.720435 -10.11129,-2.338965 -2.53653,1.19705 -4.08411,3.524847 -5.54021,8.333334 -3.67684,12.141971 -3.89286,18.120399 -0.86602,23.96749 2.11552,4.086631 2.55516,6.697269 1.92626,11.438256 -0.62702,4.726624 -0.16743,7.483212 1.99322,11.955249 1.54448,3.1967 2.80815,6.938929 2.80815,8.316065 0,2.881651 2.08524,7.270013 5.09017,10.712213 1.83356,2.10036 2.21722,2.13998 3.22826,0.33333 0.63108,-1.12767 2.65704,-2.0503 4.50214,-2.0503 z M 58.666667,68.046914 c 0,-1.582392 -4.41253,-4.046912 -7.245679,-4.046912 -3.026389,0 -2.559729,1.800522 0.912345,3.520117 3.902383,1.932709 6.333334,2.134912 6.333334,0.526795 z"
       id="path2357" />
  </g>
</svg>
