<?xml version="1.0" encoding="UTF-8" standalone="no"?>
<!-- Created with Inkscape (http://www.inkscape.org/) -->

<svg
   version="1.1"
   id="svg203"
   width="221.33333"
   height="214.66667"
   viewBox="0 0 221.33333 214.66667"
   xmlns="http://www.w3.org/2000/svg"
   xmlns:svg="http://www.w3.org/2000/svg">
  <defs
     id="defs207" />
  <g
     id="g209">
    <path
       style="fill:#000000;stroke-width:1.33333"
       d="m 97.166115,208.72167 c -0.421342,-0.42133 -3.646336,-1.05752 -7.166655,-1.41372 -8.538933,-0.86403 -9.999461,-2.34421 -9.999461,-10.13403 0,-5.61146 0.66796,-7.23892 4.888476,-11.91053 2.688661,-2.97603 7.636465,-7.02139 10.995121,-8.98969 5.535984,-3.2443 7.353104,-3.57623 19.444854,-3.55202 11.34707,0.0228 14.17101,0.48171 18.91688,3.0746 14.36188,7.84658 22.82105,25.26416 14.03724,28.90296 -1.25541,0.52007 -11.88257,1.44238 -23.61591,2.04958 -11.73333,0.6072 -22.54859,1.47185 -24.0339,1.92146 -1.485313,0.4496 -3.045304,0.47274 -3.466645,0.0513 z M 144,197.04775 c 0,-3.36931 -10.38375,-11.52709 -17.27874,-13.57468 -10.29232,-3.05649 -15.20719,-2.68039 -24.79991,1.8978 -6.783683,3.23756 -13.937535,9.49207 -13.917985,12.16829 0.0019,0.25347 12.601855,0.55292 27.999995,0.66546 C 134.29826,198.33832 144,197.93743 144,197.04775 Z M 95.999999,168.4419 c -1.1,-0.37451 -3.890678,-1.52714 -6.201506,-2.5614 C 87.487665,164.84623 85.174279,164 84.657635,164 c -1.181071,0 -8.204507,-5.57682 -12.858532,-10.21008 -1.943827,-1.93516 -5.179325,-7.60496 -7.189996,-12.59956 -3.102029,-7.7056 -3.521875,-10.22031 -2.771819,-16.60211 0.486171,-4.13655 2.071668,-10.12822 3.523328,-13.31481 1.45166,-3.18659 2.639383,-6.30902 2.639383,-6.93873 0,-1.92418 8.289181,-9.16493 15.333333,-13.393946 20.082698,-12.056816 47.166028,-6.891751 59.210468,11.292036 10.3913,15.688 9.33085,34.34428 -2.9942,52.6766 -5.52946,8.22454 -33.55825,16.93412 -43.549601,13.5325 z m 14.666671,-11.30906 c 0,-1.78321 -32.991863,-34.46617 -34.79193,-34.46617 -3.595146,0 1.513959,6.46637 21.332797,27 7.966683,8.254 13.459133,11.30083 13.459133,7.46617 z m -20.222227,-2.21425 c -1.048595,-2.55141 -11.777778,-11.088 -11.777778,-9.37088 0,2.68396 7.458899,10.45229 10.03595,10.45229 1.20245,0 1.986273,-0.48664 1.741828,-1.08141 z m 36.222217,-1.56512 C 126.66666,150.08244 84.452625,108 81.171368,108 c -4.387625,0 -2.770607,2.77156 8.474225,14.52474 23.074417,24.11756 37.021067,35.73142 37.021067,30.82873 z M 136,143.57223 c 0,-3.99085 -41.228509,-44.905562 -45.249976,-44.905562 -4.120073,0 0.584583,6.008882 19.834686,25.333272 C 130.20395,143.6949 136,148.15842 136,143.57223 Z m 3.99501,-13.23889 c -0.0107,-3.6461 -5.58027,-10.36572 -18.56124,-22.39472 -7.48157,-6.93291 -14.83164,-12.805773 -16.33349,-13.050815 -1.50185,-0.245041 -2.51381,0.153584 -2.24879,0.885835 C 103.69058,98.092114 137.16416,132 138.61385,132 c 0.76237,0 1.38391,-0.75 1.38116,-1.66666 z m -8.45612,-27.41667 c -2.63084,-2.63084 -5.21435,-4.352322 -5.74115,-3.825527 -0.52679,0.526796 1.39603,3.368347 4.27293,6.314567 2.8769,2.94621 5.46041,4.6677 5.74114,3.82552 0.28072,-0.84217 -1.64209,-3.68373 -4.27292,-6.31456 z M 79.999999,60.628368 c -8.433333,-0.937332 -18.033333,-2.604076 -21.333333,-3.703876 -3.3,-1.0998 -10.5,-3.046072 -16,-4.325051 C 32.5963,50.257663 18.620682,45.217195 11.472418,41.348874 1.9006121,36.169039 5.4360355,29.259176 20.666666,23.379031 25.8,21.397186 31.8,19.00538 33.999999,18.063907 38.684733,16.059111 54.344219,12.545358 66.666666,10.733998 71.433332,10.033313 81.633332,8.4734823 89.333332,7.2677073 100.2718,5.5548065 108.14431,5.2612681 125.33333,5.9253917 c 12.1,0.4675015 24.7,1.4631223 28,2.2124907 3.3,0.7493684 8.7,1.8568951 12,2.4611706 14.19104,2.598573 24.22297,5.960065 42.30021,14.173913 7.2076,3.274949 9.07242,6.196436 8.14363,12.758084 -1.10659,7.817739 -38.24751,18.233188 -82.44384,23.119772 -21.0112,2.323111 -32.27253,2.31837 -53.333331,-0.02245 z M 134.75144,47.338002 C 143.13814,46.240569 153,44.75991 156.66666,44.04765 c 3.66667,-0.712261 11.76667,-2.291665 18,-3.509788 6.23334,-1.218121 12.96403,-2.502731 14.95711,-2.854685 1.99308,-0.351955 4.29677,-1.45082 5.11931,-2.441923 1.16758,-1.406843 0.63146,-2.325295 -2.44478,-4.188296 -3.44432,-2.085919 -11.09098,-3.71873 -45.824,-9.784892 -12.87288,-2.248264 -35.93828,-2.889986 -47.140968,-1.311546 -5.866667,0.826603 -14.266667,1.691491 -18.666667,1.921972 -4.399999,0.23048 -11.899999,1.356182 -16.666666,2.501559 -4.766667,1.145376 -14.223852,3.397348 -21.015968,5.004384 -6.792116,1.607035 -12.635509,3.384978 -12.985318,3.950982 -1.279652,2.070518 3.266061,4.113252 13.512898,6.072369 5.768614,1.102915 12.888388,2.65528 15.821721,3.4497 21.386219,5.791924 51.654188,7.590115 75.418108,4.480516 z"
       id="path380" />
  </g>
</svg>
