<?xml version="1.0" encoding="UTF-8" standalone="no"?>
<!-- Created with Inkscape (http://www.inkscape.org/) -->

<svg
   version="1.1"
   id="svg193"
   width="214.66667"
   height="214.66667"
   viewBox="0 0 214.66667 214.66667"
   xmlns="http://www.w3.org/2000/svg"
   xmlns:svg="http://www.w3.org/2000/svg">
  <defs
     id="defs197" />
  <g
     id="g199">
    <path
       style="fill:#000000;stroke-width:1.33333"
       d="m 195.8028,210.02502 c -0.3529,-0.35291 -32.4029,-0.88642 -71.22222,-1.18558 -51.842992,-0.39953 -71.516962,-0.97708 -74.107738,-2.17548 -4.090051,-1.8919 -9.053131,-8.14532 -10.368696,-13.0644 -0.890988,-3.33153 -1.202073,-3.41648 -12.84196,-3.5069 C 13.267963,189.98399 7.5505052,187.84763 6.9279678,182.4948 6.6369088,179.99215 7.8588377,177.59247 11.261301,173.98482 13.867586,171.22135 16,168.24343 16,167.36723 c 0,-0.8762 -1.8,-3.19691 -4,-5.15712 -4.4925115,-4.00284 -4.9719516,-6.38101 -1.904762,-9.4482 4.826958,-4.82696 13.373754,-1.58768 19.8556,7.52536 l 2.166577,3.04607 3.60796,-4.21036 c 3.469718,-4.04903 10.559015,-8.45631 13.602352,-8.45631 2.167067,0 8.005607,6.23711 8.005607,8.55211 0,2.69973 -6.714245,8.78122 -9.694889,8.78122 -3.677211,0 -4.48144,4.00546 -1.305883,6.50395 3.417764,2.68905 8.334106,11.85795 8.334106,15.54297 0,8.19874 8.153397,7.78475 18,-0.91393 2.2,-1.94352 8.155889,-5.17707 13.235309,-7.18564 8.514936,-3.36711 10.20527,-3.58825 21.670353,-2.83513 7.40063,0.48613 14.99764,1.85318 18.76469,3.37666 31.1887,12.61334 41.43446,14.98863 63.65905,14.75815 18.06971,-0.18739 19.27435,0.21081 19.31685,6.3854 0.0288,4.192 -10.65529,9.24743 -13.51012,6.39259 z M 42.000001,76.850931 C 31.026108,71.710177 20.496648,62.184769 16.187671,53.499971 7.4140108,35.816554 3.5949418,16.64233 7.8299264,11.53863 11.579912,7.0194162 20,10.203199 20,16.140347 c 0,2.461032 0.85186,2.594047 14.333334,2.238096 L 48.666667,18 48.800001,13.862952 c 0.158832,-4.9282284 1.122298,-6.704088 4.666192,-8.6007227 2.221587,-1.1889568 3.313117,-0.7099899 6.738468,2.9568596 2.248101,2.4066001 4.59116,5.7004751 5.206796,7.3197231 1.301605,3.42348 8.232583,4.899791 19.807684,4.219071 7.138162,-0.419787 7.235404,-0.482761 8.669034,-5.61406 1.929462,-6.9060042 4.787136,-8.6518202 9.310505,-5.6879945 2.85104,1.8680715 3.45758,3.2749365 3.40946,7.9082425 -0.0322,3.099761 -0.92315,8.035929 -1.97992,10.969263 -1.05677,2.933333 -1.93044,7.600444 -1.94148,10.371356 -0.0447,11.221439 -14.547364,30.215347 -29.590832,38.754677 -8.443454,4.792872 -21.353473,4.955437 -31.095907,0.391564 z M 73.974672,56.372292 C 84.677021,48.094459 91.557629,35.677831 86.333335,34.070059 85.416668,33.787955 71.016668,33.209609 54.333334,32.784843 L 24,32.012542 v 4.040641 c 0,5.114651 2.657782,9.405588 11.529083,18.613485 l 7.065264,7.333333 h 12.05215 12.052149 z M 126.3011,67.998629 c -4.82763,-3.797411 -4.73402,-8.658611 0.41076,-21.331962 4.42725,-10.90583 9.03885,-16.828276 16.87742,-21.674837 14.37239,-8.886398 34.56947,-8.181007 48.43424,1.691581 5.16671,3.679025 13.69712,14.335904 15.58619,19.471528 3.96251,10.772471 4.68799,14.797449 3.17631,17.622065 -2.93728,5.488358 -5.89355,5.925062 -44.09594,6.513922 -35.9904,0.554764 -36.83012,0.507106 -40.38898,-2.292297 z m 69.93601,-11.702405 c 2.03295,-2.032947 -0.21317,-9.207651 -5.19139,-16.582667 -6.7071,-9.936309 -26.36314,-14.871178 -37.11577,-9.318333 -8.13552,4.201329 -16.5904,13.648871 -18.05724,20.177287 -0.69181,3.079066 -0.93824,6.115446 -0.5476,6.747513 1.16036,1.877512 58.98256,0.905645 60.912,-1.0238 z"
       id="path519" />
  </g>
</svg>
