<?xml version="1.0" encoding="UTF-8" standalone="no"?>
<!-- Created with Inkscape (http://www.inkscape.org/) -->

<svg
   version="1.1"
   id="svg183"
   width="205.33333"
   height="210.66667"
   viewBox="0 0 205.33333 210.66667"
   xmlns="http://www.w3.org/2000/svg"
   xmlns:svg="http://www.w3.org/2000/svg">
  <defs
     id="defs187" />
  <g
     id="g189">
    <path
       style="fill:#000000;stroke-width:1.33333"
       d="M 24.634458,205.49115 C 18.907934,204.32023 10.064315,196.72291 7.3050183,190.60388 5.5394795,186.68862 5.1388739,183.39336 5.6898014,177.31764 6.5489207,167.84312 8.3834213,164.61163 15.83415,159.44827 c 11.032942,-7.64583 24.776743,-6.95841 33.861648,1.69364 5.92311,5.64089 7.971906,12.00768 6.758381,21.00217 -1.315917,9.75343 -5.765033,15.79979 -15.08959,20.50682 -8.061638,4.06949 -9.513182,4.31592 -16.730131,2.84025 z M 38.666666,191.55208 C 38.666666,189.49842 20.95383,172 18.874997,172 c -5.357771,0 0.22454,9.15415 10.250804,16.80976 6.237176,4.76244 9.540865,5.71202 9.540865,2.74232 z m -16,-0.80672 c 0,-1.57314 -2.600472,-3.256 -3.555556,-2.30092 -0.955082,0.9551 0.727766,3.55556 2.300912,3.55556 0.690055,0 1.254644,-0.56458 1.254644,-1.25464 z m 24,-6.54472 c 0,-4.41432 -15.773165,-20.06573 -20.333333,-20.17637 -2.132864,-0.0517 -0.841804,3.51839 2.412215,6.67044 1.876718,1.81791 5.868995,5.85529 8.871729,8.97196 5.049849,5.24145 9.049389,7.24533 9.049389,4.53397 z m 88.666664,12.31356 c -1.46667,-0.3399 -4.01667,-0.90609 -5.66667,-1.25818 -2.36214,-0.50404 -2.99841,-1.5561 -2.99256,-4.94808 0.0144,-8.36794 2.81759,-14.83342 9.14312,-21.08875 5.16727,-5.10989 8.15375,-6.73173 18.18278,-9.87427 6.6,-2.06808 13.35798,-3.67277 15.01774,-3.566 8.7068,0.56015 27.37879,14.97226 29.64782,22.8839 1.56613,5.4608 1.77182,15.58066 0.33444,16.4542 -1.40624,0.85462 -60.41979,2.14969 -63.66667,1.39718 z m 38.33333,-10.72537 c 14.73252,-0.75137 17,-1.16769 17,-3.12127 0,-1.23984 -1.26885,-3.39725 -2.81968,-4.79424 -1.55082,-1.397 -3.32449,-3.85977 -3.94146,-5.47282 -2.4274,-6.34634 -24.4033,-7.60975 -35.32806,-2.03106 -6.59036,3.36535 -8.31613,5.32392 -9.38054,10.64599 -0.7097,3.54841 -0.3995,4.17421 2.32541,4.69135 5.14735,0.97688 14.14876,0.99985 32.14433,0.082 z m 4.47595,-44.58153 c -6.35533,-4.9991 -8.55328,-11.41217 -9.59175,-27.98638 -1.00473,-16.035648 -3.48613,-24.432895 -8.974,-30.368624 -4.00082,-4.327337 -15.73606,-9.518962 -21.51684,-9.518962 -4.3869,0 -4.71134,0.263562 -3.96838,3.223781 1.11352,4.436574 -3.27668,6.675097 -11.01188,5.614869 -9.03631,-1.238564 -11.51002,-3.020693 -10.58851,-7.628265 0.66334,-3.316689 0.34663,-3.905585 -2.19125,-4.074467 -4.72398,-0.314358 -20.24534,0.43073 -20.849923,1.000878 -0.302456,0.285231 0.129467,2.0097 0.959835,3.832154 2.088145,4.582977 -1.015488,6.031051 -12.926253,6.031051 h -9.358316 l -1.288419,-4.333334 c -0.70863,-2.383333 -2.023538,-6.164545 -2.922017,-8.402693 -1.393312,-3.470798 -1.197261,-5.479191 1.332861,-13.654178 1.631552,-5.271649 3.440914,-9.878047 4.020803,-10.236439 0.579891,-0.35839 3.906156,-7.53841 7.391701,-15.955597 C 80.145819,20.333906 84.141928,12.41154 85.540515,11.145835 89.337484,7.7096255 98.756897,7.0198657 127.07879,8.1040932 157.35816,9.2632573 160,9.748702 160,14.153451 c 0,3.568252 -7.22343,23.06442 -13.6541,36.852668 -2.55752,5.483697 -3.70732,9.440838 -2.93978,10.117607 0.69329,0.611319 6.01164,2.806307 11.81852,4.877751 8.9719,3.200481 12.03481,5.169116 20.38888,13.104663 17.68904,16.802856 22.4796,26.8963 21.91445,46.17253 -0.18187,6.20327 -1.00231,12.08793 -1.82319,13.07704 C 194.079,140.31466 186.01237,144 183.3503,144 c -0.91153,0 -3.255,-1.25672 -5.20769,-2.7927 z m 11.83948,-10.52084 c 2.27944,-2.51875 2.28616,-3.01898 0.13893,-10.33334 -1.24105,-4.22755 -3.726,-10.84974 -5.52208,-14.71599 -1.79609,-3.86625 -3.26561,-7.84278 -3.26561,-8.83674 0,-2.165967 -3.72848,-5.516355 -4.86931,-4.375529 -0.44266,0.442675 0.17183,3.790914 1.36556,7.440533 C 179.0233,103.51501 180,110.7957 180,116.0447 c 0,7.51117 0.58724,10.36836 2.75745,13.41614 3.26435,4.58434 4.06249,4.71974 7.22464,1.22562 z M 109.69292,48.944463 c 1.80723,-3.819454 3.72218,-8.934878 4.25547,-11.367609 0.53328,-2.432731 1.80936,-6.032731 2.83573,-8 2.09821,-4.021718 2.4265,-6.910187 0.78538,-6.910187 -0.60344,0 -3.04584,4.35 -5.42755,9.666667 -2.38171,5.316667 -5.80002,12.854493 -7.59624,16.750724 -3.29536,7.148051 -3.24356,11.041578 0.10987,8.258484 0.96332,-0.799488 3.23013,-4.578624 5.03735,-8.398079 z m -14.105278,2.388871 c 1.098666,-2.933333 2.288096,-7.133333 2.64318,-9.333333 0.483262,-2.994164 -0.541456,-1.82069 -4.075093,4.666666 -5.363858,9.847438 -5.670296,11.033939 -2.694028,10.431099 1.170603,-0.237104 3.027276,-2.831098 4.125941,-5.764432 z m 23.883738,3.666667 c 0.39656,-1.283333 1.28155,-3.233334 1.96664,-4.333334 1.43388,-2.302276 1.80113,-3.17154 5.91486,-14 3.67276,-9.667719 5.25468,-16.678648 3.75306,-16.633177 -1.42442,0.04313 -9.77261,16.522 -9.77261,19.290596 0,1.156688 -0.85561,3.43196 -1.90136,5.056159 -2.65632,4.125638 -4.15914,12.953089 -2.20518,12.953089 0.83796,0 1.84803,-1.05 2.24459,-2.333333 z m 12.39818,-1.865631 c 0.80508,-2.309431 1.43862,-5.459431 1.40788,-7 -0.0445,-2.232061 -0.57486,-1.853095 -2.61078,1.865631 -2.74036,5.005452 -3.41912,9.333333 -1.46376,9.333333 0.66159,0 1.86159,-1.889533 2.66666,-4.198964 z M 87.122703,42.846887 c 1.215845,-3.934212 2.210629,-7.684212 2.210629,-8.333333 0,-5.345358 -8.476597,9.440704 -10.024683,17.486447 l -0.897916,4.666667 3.25067,-3.333334 c 1.787868,-1.833333 4.245453,-6.552235 5.4613,-10.486447 z m 51.542147,-6.843009 c 3.02184,-6.451764 2.89392,-10.095984 -0.24424,-6.957822 -1.42993,1.42993 -5.02216,10.376907 -5.0672,12.620611 -0.0599,2.985722 2.57793,0.173347 5.31144,-5.662789 z m -34.48144,-6.744195 c 3.07404,-9.267024 3.0264,-10.684812 -0.22777,-6.778637 -1.44227,1.731241 -2.62231,4.24583 -2.62231,5.587977 0,1.342145 -0.6,2.811085 -1.333332,3.264311 -1.872405,1.157211 -1.671837,6.335057 0.220952,5.704127 0.85486,-0.284954 2.63797,-3.784954 3.96246,-7.777778 z M 91.979581,27 c 0.01123,-0.916666 -0.579582,-1.666666 -1.312916,-1.666666 -0.733333,0 -1.324145,1.65 -1.312916,3.666666 0.01591,2.85725 0.305736,3.225167 1.312916,1.666667 0.710875,-1.1 1.301687,-2.75 1.312916,-3.666667 z"
       id="path658" />
  </g>
</svg>
