<?xml version="1.0" encoding="UTF-8" standalone="no"?>
<!-- Created with Inkscape (http://www.inkscape.org/) -->

<svg
   version="1.1"
   id="svg173"
   width="221.33333"
   height="220"
   viewBox="0 0 221.33333 220"
   xmlns="http://www.w3.org/2000/svg"
   xmlns:svg="http://www.w3.org/2000/svg">
  <defs
     id="defs177" />
  <g
     id="g179">
    <path
       style="fill:#000000;stroke-width:1.33333"
       d="m 163.39832,211.8782 c -6.67552,-5.86119 -8.25884,-12.61501 -5.41408,-23.09444 1.2119,-4.4644 2.50181,-9.31709 2.86645,-10.78376 0.65512,-2.63511 -0.005,-2.66667 -55.76053,-2.66667 -46.53023,0 -57.082885,0.33727 -60.184145,1.92351 -2.909936,1.48839 -4.568844,1.59225 -7.333333,0.45916 -12.691129,-5.20179 -12.294405,-5.11359 -13.633021,-3.03096 -2.234459,3.47639 -4.304161,12.3632 -5.155191,22.13517 -0.81201,9.32395 -2.810197,13.84646 -6.117804,13.84646 -3.3565265,0 -4.9999994,-4.11867 -4.9999994,-12.53039 0,-14.55284 4.5465344,-28.96813 10.9681914,-34.77588 1.60524,-1.45177 3.725714,-4.57124 4.712163,-6.93215 1.335961,-3.19741 3.898728,-5.35525 10.045058,-8.4579 7.367208,-3.71896 8.671003,-3.9916 12.165787,-2.54402 3.062849,1.26868 4.986761,1.27135 8.844869,0.012 5.9615,-1.94549 9.001293,-1.9837 72.263925,-0.90858 61.55334,1.04606 66.21012,1.78042 76.30182,12.03256 10.35802,10.52269 13.48792,17.78088 13.60274,31.54454 0.11867,14.22528 -3.76749,24.22034 -10.3029,26.49859 -6.63522,2.31305 -13.40484,1.74977 -15.29223,-1.2724 C 189.35426,210.73637 184,209.54876 184,211.78597 184,213.60801 177.55762,216 172.65032,216 c -3.19258,0 -5.9635,-1.23445 -9.252,-4.1218 z m 16.96537,-11.54487 c 3.35983,-3.71488 5.64133,-19.59138 3.67259,-25.55674 -2.30268,-6.97716 -1.40316,-11.15095 2.63038,-12.20507 2.33082,-0.60913 2.73183,-1.08103 1.33334,-1.56905 -8.46279,-2.95319 -15.41352,-3.82383 -27.82628,-3.48548 -7.79555,0.21249 -14.8532,-0.0337 -15.68368,-0.54716 -0.83047,-0.51343 -19.50783,-1.02412 -41.50524,-1.13487 -31.475604,-0.15848 -40.881738,0.191 -44.156709,1.64064 -4.718944,2.08881 -5.225693,3.34025 -1.793671,4.42953 1.302266,0.41332 27.552265,0.85678 58.33333,0.98546 47.28919,0.19769 56.32731,0.54057 58.29891,2.21168 3.05435,2.58882 2.96639,3.87506 -1.09181,15.96421 -3.17301,9.45227 -3.53264,16.55975 -1.04179,20.59003 1.15234,1.8645 6.69932,1.03334 8.83063,-1.32318 z m 22.47305,-1.20585 c 2.3095,-2.78395 2.28568,-17.87251 -0.0392,-24.80887 -0.95225,-2.8411 -3.67233,-6.53374 -6.27546,-8.51926 -4.64414,-3.54224 -7.59006,-3.49598 -4.62832,0.0727 1.20456,1.4514 5.04468,25.96734 5.39794,34.4613 0.0757,1.82142 3.68471,1.0366 5.545,-1.20586 z M 44.999999,162.01595 c 4.014259,-1.15386 3.796115,-2.88623 -0.466034,-3.70099 -4.486167,-0.85759 -8.533966,0.22623 -8.533966,2.28499 0,2.38954 1.527364,3.50618 3.903554,2.85385 1.153045,-0.31655 3.446446,-0.96359 5.096446,-1.43785 z M 48.763634,109 C 47.173298,106.5714 46.66569,97.658481 46.098545,62.204629 45.341114,14.855419 45.700486,11.837664 52.286785,10.2402 53.962386,9.8337936 66.433332,9.1179559 79.999999,8.6494495 93.566665,8.1809431 106.57801,7.1366007 108.91409,6.3286887 112.0574,5.2416079 114.52382,5.2679123 118.40212,6.4298789 121.34204,7.3107013 131.85114,8 142.34032,8 c 16.33876,0 19.08964,0.3174588 21.8052,2.51639 3.6414,2.94863 3.67389,3.426154 4.03728,59.349454 0.20838,32.067206 -10e-4,36.037496 -1.98344,37.486586 -2.24824,1.64396 -23.36639,3.17796 -48.09016,3.49322 -16.54153,0.21092 -17.06216,-0.2748 -16.62699,-15.512317 0.16755,-5.866666 -0.17957,-22.206192 -0.77137,-36.310057 -1.162285,-27.699849 -0.794602,-29.689943 5.48542,-29.689943 2.09589,0 3.59613,1.036984 4.34019,3 1.00801,2.659392 2.21726,21.509372 3.42871,53.447387 0.21795,5.746063 0.96159,11.012695 1.65252,11.703627 0.70838,0.708382 9.93322,1.094752 21.15261,0.885946 L 156.66666,98 V 60.399727 c 0,-23.789314 -0.49972,-38.099888 -1.36048,-38.960474 -1.90828,-1.907901 -38.45659,-1.792144 -70.639515,0.223732 l -26.666666,1.670348 v 43.04643 c 0,36.811717 -0.289673,43.229867 -2,44.312917 -3.156729,1.99898 -5.119598,1.53984 -7.236365,-1.69268 z"
       id="path797" />
  </g>
</svg>
