<?xml version="1.0" encoding="UTF-8" standalone="no"?>
<!-- Created with Inkscape (http://www.inkscape.org/) -->

<svg
   version="1.1"
   id="svg83"
   width="214.66667"
   height="152"
   viewBox="0 0 214.66667 152"
   xmlns="http://www.w3.org/2000/svg"
   xmlns:svg="http://www.w3.org/2000/svg">
  <defs
     id="defs87" />
  <g
     id="g89">
    <path
       style="fill:#000000;stroke-width:1.33333"
       d="M 8.6305532,144.80513 C 6.3548746,143.14112 5.9614162,140.21888 4.9222541,117.26331 3.642101,88.984152 4.249835,80.759432 7.7306541,79.25606 10.258733,78.164177 54.27774,76.666667 83.845301,76.666667 h 19.178629 l 2.82137,3.76444 c 2.66887,3.560964 2.82137,5.315028 2.82137,32.451143 0,36.48132 2.61271,33.5035 -29.364875,33.46863 -31.281552,-0.0341 -29.055462,2.0366 -29.593705,-27.52795 l -0.415935,-22.846437 4.700607,-2.241562 c 3.521242,-1.679163 5.082338,-1.859832 6.222079,-0.720091 2.149208,2.149208 3.612848,12.37501 3.705679,25.88992 0.108266,15.76285 0.793848,16.39255 16.552179,15.20296 17.782704,-1.34242 16.828913,-0.0205 16.529884,-22.91014 C 96.775434,93.81014 96.490745,91.642884 94.278376,90.458859 90.912357,88.65742 55.186302,90.013036 19.095942,93.311636 c -0.13056,0.01187 -0.646518,3.296235 -1.146562,7.298444 -0.55104,4.41038 -0.263653,9.96757 0.729578,14.10782 1.071542,4.46669 1.185937,7.28387 0.330506,8.1393 -0.732828,0.73283 -1.02518,5.26437 -0.664684,10.30278 0.519671,7.26307 0.209258,9.42883 -1.612517,11.25062 -2.743315,2.74331 -4.755558,2.84131 -8.1017098,0.39453 z M 123.60711,134.08329 c -4.61475,-4.61474 -4.05939,-11.40041 2.35298,-28.74996 6.41067,-17.344931 28.31113,-27.495625 48.88513,-22.657865 9.86549,2.31977 12.8052,4.019956 20.48812,11.849334 8.79452,8.962181 16.83306,27.982821 14.68561,34.748831 -1.22887,3.87181 -9.58461,5.65685 -25.24852,5.39384 -7.3904,-0.12414 -23.6648,0.20441 -36.16532,0.73 -20.41569,0.85837 -22.95917,0.72465 -24.998,-1.31418 z M 187,120.67706 c 6.26962,-0.80496 7.66667,-1.44169 7.66667,-3.49427 0,-4.27956 -8.93467,-15.20303 -16.05587,-19.629813 -12.57421,-7.816558 -27.55581,-4.769408 -38.25282,7.780353 -4.12663,4.84136 -6.89631,14.432 -4.58063,15.8614 1.7862,1.10255 41.74871,0.69868 51.22265,-0.51767 z M 5.9017837,40.377975 C 2.9062471,37.382437 3.955787,32.37144 10.473787,18.549076 16.369186,6.0470283 18.624464,3.372692 22.26935,4.5617572 c 2.323181,0.7578877 9.933373,11.0166658 13.644145,18.3927378 1.001959,1.991637 2.346254,3.296994 2.987322,2.900793 0.641068,-0.396203 3.246412,-4.852352 5.789654,-9.902555 4.749071,-9.4303959 8.098102,-12.6041711 11.246747,-10.6582017 0.986443,0.6096551 4.260596,5.2108217 7.275896,10.2248137 3.0153,5.013992 6.375882,9.275676 7.467959,9.470408 1.757299,0.313351 5.494615,-6.727965 8.465787,-15.9500209 0.406425,-1.2614806 2.303695,-2.6863257 4.216153,-3.1663224 4.388182,-1.1013633 10.12175,3.9895 14.783779,13.1265903 1.777306,3.483333 3.971358,6.333248 4.875668,6.333145 0.90432,-1.04e-4 3.48771,-3.750104 5.74089,-8.333333 2.48514,-5.05508 5.52653,-9.1198989 7.73149,-10.3331453 3.51422,-1.9336403 3.76588,-1.8451607 7.5848,2.6666666 C 126.25213,11.9 129.33344,16.25 130.927,19 c 1.59356,2.75 3.65783,5 4.58726,5 0.92944,0 4.40685,-4.2 7.72758,-9.333333 4.8206,-7.4518837 6.70888,-9.3333337 9.3672,-9.3333337 2.0181,0 4.05506,1.1816194 5.17164,3 7.80571,12.7118267 10.86244,16.9969387 12.11054,16.9772457 1.41358,-0.02231 7.46598,-12.563323 7.45016,-15.4372622 C 177.33132,8.0475865 181.70487,4 183.68768,4 c 2.26684,0 10.95436,9.707149 10.96743,12.254644 0.007,1.240055 0.58165,2.606983 1.27844,3.037617 2.27284,1.404694 9.00335,15.988154 8.32624,18.041072 -1.46357,4.43748 -7.54469,5.408834 -10.43408,1.666667 -0.99088,-1.283333 -3.39032,-5.509669 -5.33209,-9.391859 l -3.53048,-7.058525 -2.97874,2.798376 c -1.6383,1.539107 -4.0267,5.122345 -5.30754,7.962753 -1.49348,3.311951 -3.77742,5.764408 -6.36735,6.837196 -3.77551,1.563867 -4.24765,1.418136 -7.24925,-2.237562 -1.76591,-2.150708 -4.68698,-6.760379 -6.49128,-10.243712 -1.80431,-3.483334 -3.88016,-6.333334 -4.613,-6.333334 -0.73286,0 -2.28395,2.25 -3.4469,5 -4.06725,9.617827 -5.20325,11.428007 -8.89045,14.166662 -4.70253,3.492777 -7.02852,2.230749 -11.75327,-6.377064 -1.90739,-3.474982 -4.78948,-7.624224 -6.40463,-9.22054 C 118.95367,22.424584 118.35094,22.292575 117.34051,24 106.31926,42.623701 103.35332,45.010132 98.36236,39.270028 c -1.595604,-1.835105 -4.432256,-6.171587 -6.303672,-9.636625 -1.871415,-3.465039 -4.300199,-6.30007 -5.397296,-6.30007 -1.097099,0 -3.794724,3.442679 -5.994724,7.650399 -2.2,4.207719 -5.06572,8.702009 -6.368266,9.987313 -2.149182,2.120732 -2.698601,2.151503 -5.93915,0.332628 -1.963987,-1.102356 -5.285947,-5.296648 -7.382135,-9.320645 -2.096188,-4.023999 -4.348141,-7.860932 -5.004341,-8.526519 -1.923268,-1.95078 -5.015459,1.562384 -8.802357,10.000715 -1.925569,4.290739 -4.603982,8.151404 -5.952029,8.579257 C 36.870462,43.41646 31.282091,38.940265 26.739619,30.439219 23.717163,24.782819 19.69928,24.006439 17.575167,28.66836 16.708826,30.569773 16,33.523776 16,35.232811 c 0,5.279845 -6.6005001,8.64288 -10.0982163,5.145164 z"
       id="path936" />
  </g>
</svg>
