<?xml version="1.0" encoding="UTF-8" standalone="no"?>
<!-- Created with Inkscape (http://www.inkscape.org/) -->

<svg
   version="1.1"
   id="svg195"
   width="238.66667"
   height="529.33331"
   viewBox="0 0 238.66667 529.33331"
   xmlns="http://www.w3.org/2000/svg"
   xmlns:svg="http://www.w3.org/2000/svg">
  <defs
     id="defs199" />
  <g
     id="g201">
    <path
       style="fill:#000000;stroke-width:1.33333"
       d="M 25.048696,520.86994 C 13.581008,516.57226 8.0293153,508.34498 5.9442973,492.55838 c -0.7143706,-5.40883 -0.3515363,-7.82853 1.7993921,-12 3.7531226,-7.27873 12.5554896,-15.72799 19.2693926,-18.49639 3.109472,-1.28216 7.623941,-3.17062 10.032155,-4.1966 2.408213,-1.02597 6.308213,-1.8746 8.666666,-1.88582 5.819802,-0.0277 7.496096,-1.33328 10.972086,-8.54554 2.670134,-5.5402 2.801921,-6.69009 1.276642,-11.13933 -0.935469,-2.72876 -2.125842,-8.39061 -2.645273,-12.58189 -0.930944,-7.51179 -1.004567,-7.61824 -5.160531,-7.462 -5.141982,0.1933 -23.096068,-5.20439 -24.416237,-7.34047 -2.374467,-3.84196 -1.716496,-229.99629 0.697728,-239.81933 2.031016,-8.26384 1.80952,-30.04926 -0.34947,-34.37235 -4.221472,-8.45294 3.491336,-16.69844 14.241387,-15.22498 9.275798,1.27139 11.671766,-0.70726 11.671766,-9.63884 0,-4.3043 -1.365583,-11.452667 -3.273754,-17.137005 C 46.596578,86.373658 45.707871,81.391794 46.183246,78.462403 46.849613,74.356069 46.345089,73.47985 40.456999,68.517513 36.90565,65.524522 32.064848,62.075947 29.699663,60.854011 19.768922,55.72345 9.3333335,40.999485 9.3333335,32.118387 c 0,-8.363736 3.5423035,-12.694641 14.9204785,-18.242134 5.834787,-2.844784 11.238104,-5.930716 12.007373,-6.857627 0.769268,-0.9269112 3.686141,-1.6852929 6.481942,-1.6852929 2.795802,0 6.674662,-0.6050444 8.619691,-1.3445429 4.620284,-1.7566291 15.481327,1.0314562 22.404658,5.7513911 2.805445,1.9125927 6.265508,3.8471017 7.689028,4.2989097 2.641641,0.838426 7.276416,8.663781 9.430785,15.922945 5.176899,17.443595 9.212001,39.2323 8.076547,43.611619 -0.129333,0.498846 0.649111,10.098845 1.729884,21.333333 1.08078,11.234492 1.96683,20.524872 1.969,20.645312 0.002,0.12042 3.12766,2.141 6.94553,4.49016 l 6.94159,4.27121 6.84227,-2.15684 c 3.76325,-1.18626 8.63782,-2.15684 10.83239,-2.15684 3.17129,0 4.81964,-1.16287 8.03233,-5.66666 7.19725,-10.0896 8.00105,-12.81861 8.82479,-29.961154 0.43064,-8.961967 1.4262,-17.496358 2.21236,-18.965312 0.78617,-1.468955 1.65236,-7.336435 1.92489,-13.038846 0.27252,-5.702411 1.50965,-13.294866 2.74916,-16.872124 1.23952,-3.577257 1.97012,-7.588441 1.62355,-8.913742 -0.8804,-3.36665 2.32149,-7.438272 6.71065,-8.533445 2.03377,-0.507464 6.59707,-2.376022 10.14065,-4.152352 4.93198,-2.4723 8.57636,-3.229689 15.54052,-3.229689 8.43755,0 9.51794,0.342523 14.89046,4.720817 10.1085,8.237861 11.90354,10.249508 15.92694,17.848777 2.1637,4.086722 5.07482,9.230405 6.46915,11.430405 3.6098,5.695587 3.43873,14.814907 -0.42092,22.438689 -4.2962,8.486076 -8.77203,11.680404 -17.92167,12.790412 -13.49133,1.63673 -15.43441,4.312101 -17.12236,23.575364 l -0.8299,9.47113 6.89873,0.91515 c 4.24335,0.5629 7.95968,1.97609 9.65507,3.67148 2.5855,2.5855 2.69626,3.6772 1.78698,17.61372 -1.41886,21.74701 -0.93346,113.51679 0.63116,119.32737 0.75544,2.80549 1.28387,22.69399 1.22824,46.22698 -0.0593,25.09451 0.47576,44.12145 1.36354,48.48501 0.80365,3.95009 1.51374,13.85009 1.578,22 0.0643,8.14991 0.54694,17.81801 1.07268,21.48468 1.42409,9.93208 -0.93054,13.96985 -8.22374,14.10225 -17.63312,0.32014 -17.47068,0.28063 -18.76985,4.56442 -0.66721,2.2 -2.45839,6.39999 -3.98039,9.33333 -2.23044,4.29869 -2.70786,7.39684 -2.46102,15.9703 0.38776,13.46832 2.11004,19.8641 6.04302,22.44108 1.70847,1.11944 8.05775,3.7785 14.10951,5.90903 18.28599,6.43761 23.49924,12.82753 19.55301,23.96623 -4.66517,13.16799 -11.47684,18.85534 -28.0175,23.39298 -16.49536,4.52521 -21.65446,5.21228 -27.44008,3.65436 -5.6642,-1.5252 -14.66912,-8.45061 -14.66912,-11.28156 0,-0.91923 -2.75096,-7.28163 -6.11324,-14.13864 -5.85386,-11.93829 -6.20255,-13.31838 -8.21759,-32.52389 -1.15737,-11.03111 -2.15641,-25.14251 -2.22008,-31.35865 -0.1124,-10.97472 -0.22241,-11.3536 -3.79785,-13.08015 -4.53305,-2.18897 -33.725303,-2.7437 -35.78892,-0.68008 -0.964355,0.96435 -0.888405,6.39797 0.248047,17.74612 1.313042,13.11151 1.301688,18.04807 -0.05724,24.88481 -0.932371,4.69074 -1.524952,14.35674 -1.316848,21.48 0.641877,21.97103 0.390868,23.66747 -4.290838,28.99964 -6.332017,7.21176 -21.267192,14.31333 -31.112113,14.79359 -4.400001,0.21464 -13.100001,0.72626 -19.333334,1.13697 -8.024815,0.52873 -12.778759,0.20503 -16.284638,-1.10885 z m 37.618256,-20.2035 c 8.915301,-6.1783 10.846501,-13.00547 12.634784,-44.66646 1.550189,-27.4456 1.24013,-30.66667 -2.951959,-30.66667 -1.634116,0 -1.826799,1.30919 -1.076504,7.31435 0.704153,5.63585 0.304713,9.07804 -1.74064,15 -1.45998,4.22711 -3.079896,10.38405 -3.599816,13.68209 -1.340363,8.50243 -8.322542,15.2778 -16.937082,16.43542 -14.316892,1.92388 -26.983956,13.37886 -22.001988,19.89667 0.920107,1.20375 4.97292,3.40587 9.006254,4.89358 9.786314,3.60973 19.750861,2.90388 26.666951,-1.88898 z M 191.08474,492.5041 c 3.6013,-2.47727 7.0805,-4.50412 7.73154,-4.50412 1.94474,0 1.34608,-2.50431 -1.2096,-5.05999 -1.31633,-1.31633 -5.96633,-3.17696 -10.33333,-4.13472 -13.25377,-2.90682 -19.62653,-11.19284 -21.12864,-27.47196 -1.90944,-20.69373 -2.45977,-24.79604 -3.22391,-24.0319 -1.30662,1.30661 -1.5605,38.35946 -0.29256,42.69857 0.64287,2.2 1.78492,8.2 2.5379,13.33333 1.13278,7.72259 2.01318,9.85636 5.10145,12.36397 4.93228,4.00491 11.90863,2.93479 20.81715,-3.19318 z M 128.66667,383.38093 c 11,-0.31416 25.1,-1.50259 31.33333,-2.64092 6.23334,-1.13835 14.41446,-2.07053 18.18026,-2.07153 3.7658,-10e-4 8.80821,-0.8265 11.20534,-1.83442 l 4.35844,-1.83257 -0.30042,-35.11522 c -0.16523,-19.31338 -0.6396,-35.66406 -1.05418,-36.33484 -0.65526,-1.06024 -1.46934,-60.05532 -1.79576,-130.13598 -0.0982,-21.08548 -0.98108,-26.74879 -4.16993,-26.74879 -0.81535,0 -4.18329,-2.21315 -7.48435,-4.91811 l -6.0019,-4.91812 -54.64695,-0.43058 c -37.232876,-0.29338 -55.191068,0.0209 -56.354436,0.9865 -0.939114,0.77939 -3.108924,1.29299 -4.821797,1.14134 -1.712875,-0.15167 -5.379167,-0.18244 -8.147318,-0.0684 -6.656266,0.27424 -7.66578,3.0581 -8.536542,23.54069 -0.374108,8.8 -1.261484,16.70664 -1.971947,17.57031 -0.834605,1.01458 -0.791352,8.09246 0.122227,19.99999 1.883409,24.54838 3.782532,78.60343 3.2005,91.09636 -0.266624,5.72291 0.45335,14.7798 1.683326,21.17533 1.45621,7.57188 1.878326,14.23579 1.309106,20.66667 -1.147288,12.9617 1.16278,47.00489 3.370085,49.66453 1.190953,1.43501 3.197103,1.88765 6.458576,1.45721 2.602055,-0.34341 10.43101,-0.19725 17.397676,0.3248 6.966667,0.52206 18.066667,0.73494 24.666667,0.47307 6.599997,-0.26187 20.999997,-0.73316 31.999997,-1.04733 z m -72.429245,-9.267 c -3.258028,-1.7756 -4.194074,-3.60517 -4.217007,-8.24243 -0.0112,-2.27066 -0.976877,-6.04576 -2.145884,-8.38908 -1.951352,-3.91158 -1.946163,-4.63846 0.06335,-8.87317 1.848902,-3.89628 1.982281,-6.21701 0.858888,-14.94425 -0.731463,-5.68243 -1.289235,-23.23168 -1.239502,-38.99835 0.04973,-15.76666 -0.545317,-34.66666 -1.322338,-41.99999 -0.77702,-7.33334 -1.835488,-28.93334 -2.35215,-48 -1.295386,-47.80435 -1.349153,-56.70621 -0.352242,-58.31916 1.003325,-1.62332 10.470102,-5.11141 10.468157,-3.85705 -0.0017,1.09448 17.691102,0.64168 35.754141,-0.91503 7.835941,-0.67532 22.947162,-0.93199 33.580502,-0.57039 10.63333,0.36162 25.15294,0.7334 32.26581,0.82622 11.09595,0.14478 13.01876,0.49914 13.54008,2.49534 0.62377,2.38852 1.49413,2.8578 7.91531,4.26779 2.04665,0.44943 3.37642,1.37496 2.95505,2.05677 -0.42137,0.6818 0.23072,4.28735 1.44909,8.01232 1.9636,6.00336 2.03712,8.8494 0.64726,25.0546 -3.06942,35.78787 -3.14204,40.08224 -0.77784,45.99096 1.55905,3.89645 2.1062,8.8004 1.88454,16.89075 -0.43396,15.84 1.46927,70.36411 2.93444,84.06687 0.66651,6.23334 1.35608,18.53333 1.53238,27.33333 l 0.32054,16 -16.66666,0.25159 c -9.16667,0.13836 -22.96667,-0.45293 -30.66667,-1.314 -17.24734,-1.92872 -32.59985,-1.81551 -43.999999,0.32447 -10.491436,1.9694 -39.316811,2.54814 -42.429243,0.85189 z m 76.794325,-19.68536 c -0.59194,-1.77584 -1.25761,-2.14107 -12.36508,-6.78437 -17.88447,-7.47632 -21.523294,-8.82373 -25.748475,-9.53436 -2.428328,-0.40841 -7.734016,-2.94552 -11.790418,-5.638 -8.220061,-5.45617 -10.404951,-4.71889 -8.987737,3.03284 0.476214,2.60475 -0.05328,5.74914 -1.40986,8.37249 -2.215408,4.28412 -1.776406,7.07439 1.03703,6.59127 0.861368,-0.14791 3.966124,0.40929 6.899458,1.23822 6.373457,1.8011 13.162205,1.85411 18.783229,0.1467 3.211093,-0.97539 5.410663,-0.66331 10.000003,1.41881 6.76221,3.06793 24.50912,3.9382 23.58185,1.1564 z m 32.95588,-14.40856 c 1.08844,-1.76113 -1.85121,-23.01973 -3.40265,-24.60686 -1.92074,-1.96492 -30.99392,-6.07404 -47.91831,-6.77264 -22.086963,-0.9117 -28.825275,2.50269 -16.631001,8.42712 3.319621,1.6128 6.596911,2.93236 7.282871,2.93236 0.68595,0 9.8199,4.23164 20.29766,9.40362 10.47776,5.172 21.15047,9.91174 23.71714,10.53274 6.58616,1.59351 15.69286,1.63926 16.65429,0.0836 z m -27.32817,-47.34466 c 2.31705,-2.79187 -1.34888,-10.22627 -6.26667,-12.7086 -2.04937,-1.03446 -9.50191,-5.59638 -16.5612,-10.1376 -7.0593,-4.54123 -14.8593,-9.29473 -17.333335,-10.56336 -4.228584,-2.16829 -6.577787,-3.88644 -17.682505,-12.93247 -2.475617,-2.01666 -5.399121,-3.66666 -6.496676,-3.66666 -3.882005,0 -5.404666,7.27018 -4.397194,20.99509 1.367333,18.62733 4.231854,24.03036 12.744788,24.0391 1.833333,10e-4 9.033333,1.0307 16,2.28627 27.757332,5.00255 37.527052,5.65925 39.992792,2.68823 z m 26.55936,-31.00869 c 2.84361,-14.00823 3.14358,-17.26914 2.17981,-23.69603 -1.13715,-7.58304 -4.26473,-9.35557 -18.73196,-10.61617 -5.86667,-0.51119 -14.05328,-1.77507 -18.19246,-2.80862 -9.72422,-2.42813 -15.70917,-2.3815 -18.49994,0.14411 -1.88364,1.70467 -3.29532,1.77869 -8.96449,0.47009 -3.700829,-0.85425 -7.781883,-1.14906 -9.069008,-0.65516 -2.168113,0.83199 -2.13352,1.11807 0.470359,3.88976 1.545822,1.64546 5.985699,4.63071 9.866399,6.63388 3.88069,2.00319 10.3558,6.03568 14.38914,8.96111 4.03333,2.92544 10.63333,7.08205 14.66667,9.23692 4.03333,2.15487 11.53333,6.91471 16.66666,10.57741 5.13334,3.66271 10.24651,6.7052 11.3626,6.76108 1.45864,0.0731 2.54299,-2.42915 3.85622,-8.89838 z M 93.448612,201.86108 c 0.976321,-1.17638 3.215003,-2.68633 4.974847,-3.35542 2.642711,-1.00476 2.913961,-1.56084 1.558204,-3.19443 -0.902834,-1.08785 -2.497031,-1.97791 -3.542663,-1.97791 -2.331243,0 -19.118583,-8.34981 -24.591102,-12.2313 -3.537076,-2.50873 -6.077388,-0.41031 -6.896536,5.69689 -0.960932,7.16428 1.438028,12.07543 7.312758,14.97067 5.891573,2.90353 18.804431,2.9593 21.184492,0.0915 z m 66.735498,-21.22815 c -0.26541,-5.84812 -0.98289,-11.58274 -1.59441,-12.74359 -0.95199,-1.80721 -5.0654,-2.14952 -28.6106,-2.38096 l -27.49875,-0.27028 0.42649,3.71428 c 0.35616,3.10177 1.85567,4.41112 9.09316,7.93997 4.76667,2.32414 12.56667,5.15234 17.33334,6.28488 4.76666,1.13256 12.86666,3.56598 18,5.40762 13.3374,4.7849 13.42632,4.72989 12.85077,-7.95192 z M 78.119188,103.66666 C 77.664021,100.55 76.711017,92.599996 76.0014,85.999996 c -0.709618,-6.6 -1.956379,-14.699999 -2.770583,-17.999999 -0.814203,-3.3 -1.721152,-10.973865 -2.015444,-17.053033 -0.922528,-19.056655 -4.804801,-23.057129 -22.703476,-23.394715 -8.258866,-0.155769 -11.769507,0.26184 -12.170528,1.44775 -0.329459,0.974285 0.57089,1.666666 2.167276,1.666666 3.347232,0 5.79467,4.036829 4.085405,6.738509 -2.221548,3.511399 -1.35236,5.261491 2.613132,5.261491 2.476511,0 5.894328,1.688062 9.475235,4.679825 3.080762,2.573902 6.359465,5.123902 7.286007,5.666666 3.119953,1.827651 7.364826,12.152993 7.37277,17.933724 0.0073,5.370691 3.091312,28.772706 4.663248,35.38645 0.392167,1.65 1.664622,3 2.827676,3 1.728743,0 1.96362,-1.03411 1.28707,-5.66667 z M 179.52284,82.869134 c 1.00255,-3.921975 3.02004,-8.652891 4.48332,-10.513145 1.46328,-1.860255 2.66051,-4.501367 2.66051,-5.869137 0,-1.36777 0.53496,-2.486855 1.18879,-2.486855 0.65384,0 1.54861,-1.433644 1.9884,-3.185876 0.51545,-2.053738 2.10672,-3.49648 4.47786,-4.059926 9.19287,-2.184459 18.7783,-7.420864 13.58416,-7.420864 -0.7851,0 -4.33901,-2.45506 -7.89758,-5.455689 -8.83314,-7.448212 -13.8002,-5.656168 -16.96955,6.122356 -3.0248,11.241379 -4.76611,18.906463 -5.75505,25.333332 -0.56422,3.666667 -1.68386,8.355726 -2.48811,10.420133 -1.90765,4.896769 -1.86279,5.187816 0.72109,4.677632 1.39247,-0.27494 2.84363,-3.014131 4.00616,-7.561961 z"
       id="path223" />
  </g>
</svg>
