<?xml version="1.0" encoding="UTF-8" standalone="no"?>
<!-- Created with Inkscape (http://www.inkscape.org/) -->

<svg
   version="1.1"
   id="svg185"
   width="217.33333"
   height="212"
   viewBox="0 0 217.33333 212"
   xmlns="http://www.w3.org/2000/svg"
   xmlns:svg="http://www.w3.org/2000/svg">
  <defs
     id="defs189" />
  <g
     id="g191">
    <path
       style="fill:#000000;stroke-width:1.33333"
       d="m 65.02537,206.37176 c -1.240842,-0.9378 -5.429167,-5.97555 -9.30739,-11.195 C 51.839758,189.95731 45.537431,182.15731 41.712811,177.84343 37.88819,173.52955 31.03863,165.5 26.491565,160 21.944501,154.5 16.539838,148.96861 14.481204,147.70803 8.3319163,143.94256 7.7134393,134.45035 13.497765,132.61448 c 4.942733,-1.56876 8.453383,0.54268 14.324571,8.61536 3.202284,4.40304 9.468582,11.74344 13.925106,16.312 4.456524,4.56856 11.071325,12.24061 14.699556,17.04899 11.062908,14.66132 16.898349,20.10388 16.878904,15.7425 -0.0091,-2.032 -12.765986,-18.33724 -20.08114,-25.66666 -5.331743,-5.34215 -12.771173,-14.06084 -19.287025,-22.60356 -4.057167,-5.31922 -3.038637,-9.16809 2.814945,-10.63724 4.441135,-1.11466 9.083368,1.8034 12.069392,7.58669 2.409048,4.6658 10.674926,14.74905 24.461548,29.83973 9.840842,10.7717 14.696377,16.98916 14.696377,18.8186 0,0.68703 1.263845,2.39214 2.808546,3.78912 1.5447,1.397 3.912236,4.70246 5.261192,7.34547 2.913521,5.70847 1.605171,7.86119 -4.777765,7.86119 -3.09602,0 -4.638815,-0.86722 -5.970937,-3.35631 -1.928463,-3.60337 -10.400231,-10.67561 -11.486716,-9.58912 -0.361461,0.36145 0.213457,2.74099 1.277599,5.28783 1.064141,2.54685 1.549289,5.23632 1.078107,5.97661 -1.481153,2.32707 -8.729009,3.22689 -11.164655,1.38608 z M 22.592373,203.2822 c -2.525805,-1.86145 -6.57098,-5.88205 -8.989276,-8.93464 -3.607577,-4.55381 -4.3256519,-6.51728 -4.0000003,-10.93736 0.2764802,-3.75269 1.0678493,-5.51436 2.6082803,-5.80631 2.473557,-0.46881 2.65486,-0.28437 11.320455,11.51587 5.894934,8.02735 9.046018,10.74684 10.623986,9.16887 1.510112,-1.51011 -3.674962,-8.78742 -13.929136,-19.54967 C 12.15474,170.26707 9.1760621,166.1182 8.1013472,161.85012 c -1.5646849,-6.21393 -0.9529766,-9.23801 2.1061068,-10.41189 1.9287,-0.74012 4.75857,1.70056 12.40709,10.7007 1.804666,2.12359 6.454666,7.45666 10.333333,11.85126 3.878668,4.3946 7.052122,8.54805 7.052122,9.22989 0,0.68184 2.949482,4.6308 6.554403,8.77547 6.230631,7.1635 7.300448,9.16906 6.936908,13.00445 -0.274761,2.89875 -9.631013,2.00025 -13.099188,-1.25792 l -3.113079,-2.92459 -2.048461,2.92459 c -2.699625,3.85425 -6.996532,3.69789 -12.638209,-0.45988 z m 72.06845,-17.44039 c -9.896787,-11.45366 -20.094157,-23.69136 -22.660824,-27.19486 -2.566667,-3.50352 -7.255477,-9.75926 -10.41958,-13.90164 -6.571305,-8.60303 -6.794528,-11.89185 -0.846768,-12.47578 3.229008,-0.317 5.184837,0.72005 9.693945,5.14008 3.106839,3.04547 6.475887,7.12418 7.486773,9.0638 1.010887,1.93963 4.362419,6.22659 7.44785,9.52659 3.08543,3.3 8.21744,9.9 11.404464,14.66667 3.187025,4.76666 8.229477,11.36666 11.205457,14.66666 8.86934,9.83504 12.03155,15.03119 11.16474,18.34592 -1.74467,6.67163 -5.94086,3.61356 -24.476057,-17.83744 z m 38.531827,19.26446 c -1.91071,-0.66003 -4.19871,-2.79059 -5.08445,-4.73459 -2.70504,-5.93691 -28.289427,-37.238 -34.499173,-42.20784 -1.719983,-1.37655 -6.036706,-5.99889 -9.592715,-10.27187 -6.910639,-8.30397 -7.485477,-11.98842 -2.303123,-14.76193 2.406367,-1.28785 3.971795,-0.12099 13.833451,10.31135 6.11601,6.46994 11.12003,12.2898 11.12003,12.93301 0,0.64321 2.99999,4.61865 6.66666,8.83431 C 117,169.42437 120,173.47241 120,174.20435 c 0,0.73194 1.57093,2.7854 3.49095,4.56324 4.32151,4.00145 17.84238,22.06676 17.84238,23.83928 0,2.3559 -4.52989,3.7467 -8.14068,2.4994 z m 23.36935,-0.9761 c -2.14244,-1.31206 -6.89534,-6.76518 -10.562,-12.11806 -3.66667,-5.35287 -11.01282,-14.2954 -16.32478,-19.8723 -5.31196,-5.57689 -9.66196,-10.52968 -9.66666,-11.00618 -0.005,-0.47652 -3.86376,-4.58875 -8.57566,-9.1383 -4.71191,-4.54954 -9.40173,-9.99522 -10.42184,-12.1015 -1.020099,-2.10628 -3.877431,-5.19406 -6.349624,-6.86171 -2.740972,-1.84898 -4.926427,-4.69969 -5.600807,-7.30571 -1.211268,-4.68071 -5.463666,-8.37657 -9.690638,-8.42236 -12.474752,-0.13513 -33.902161,-20.66361 -34.06655,-32.637383 -0.0302,-2.2 -0.935835,-5.164678 -2.012512,-6.588174 -1.076679,-1.423494 -1.957596,-4.668205 -1.957596,-7.210469 0,-8.528713 -5.536591,-34.132095 -8.884324,-41.084621 C 28.251474,21.066021 26.086201,19.152537 17.197496,16.305415 10.633702,14.20298 9.9999998,13.653113 9.9999998,10.060113 c 0,-6.4916441 4.7296862,-6.5838082 17.3333332,-0.3377627 5.866666,2.9073697 12.766666,7.1214287 15.333333,9.3645747 6.066695,5.302007 13.720786,21.302504 17.327496,36.222263 2.738576,11.328577 8.176593,24.010008 13.575536,31.658083 1.809968,2.563978 5.180326,4.441645 11.446859,6.37718 4.884872,1.508782 11.588399,4.256109 14.896728,6.105169 l 6.015145,3.36193 11.95624,-5.072443 c 6.98078,-2.961603 13.8539,-6.955498 16.51641,-9.597515 5.41449,-5.372809 12.25233,-19.174647 12.29077,-24.808259 0.0396,-5.807681 3.46945,-22.984753 6.05331,-30.315741 2.50402,-7.104483 10.95769,-15.684259 15.45374,-15.684259 1.57183,0 5.7444,-2.7 9.27236,-6 C 185.6613,3.6725151 192,3.4089927 192,10.729322 c 0,2.623733 -8.82214,10.975697 -14.78562,13.997619 -7.77245,3.938599 -8.11906,4.460779 -6.56281,9.887102 0.85143,2.968738 0.63773,7.73697 -0.68073,15.189829 C 168.9139,55.778409 168.0167,63.066667 167.97706,66 c -0.0995,7.367195 -3.05852,19.087283 -6.98344,27.660456 -3.96817,8.667634 -11.57961,15.286864 -23.9717,20.846824 -6.87147,3.08301 -9.65026,5.20773 -12.29953,9.40445 -2.45503,3.88901 -4.32923,5.4216 -6.63007,5.4216 -4.14011,0 -7.42566,1.27817 -7.42566,2.88878 0,0.69858 4.35,6.3882 9.66667,12.64361 5.31667,6.25541 12.43339,15.06965 15.81495,19.58721 3.38156,4.51755 7.63124,9.71374 9.44374,11.54707 1.8125,1.83333 6.06066,6.98072 9.44034,11.43864 3.37968,4.45791 7.08,8.88137 8.22293,9.82992 2.80656,2.32924 2.62455,6.34513 -0.35996,7.9424 -1.77643,0.95071 -3.49505,0.65743 -6.33333,-1.08079 z m -55.22867,-85.16683 c 0,-3.22523 -3.713785,-8.29667 -6.075603,-8.29667 -1.058418,0 -1.924395,-0.9 -1.924395,-2 0,-1.51396 -1.539148,-1.97078 -6.333333,-1.87975 -6.154279,0.11685 -6.212068,0.1553 -2.044034,1.36004 2.482344,0.71751 6.392726,3.75617 9.28235,7.21309 5.390089,6.44827 7.095015,7.31414 7.095015,3.60329 z m 15.14884,-3.63001 c 0.42211,-1.1 1.58171,-2 2.5769,-2 0.99518,0 3.26401,-1.55839 5.04184,-3.46309 3.43064,-3.67545 11.92575,-8.53691 14.91775,-8.53691 3.83152,0 15.648,-15.843086 15.648,-20.980251 0,-3.256402 -2.05926,-1.6366 -4.21258,3.313588 -2.48026,5.701724 -9.75271,13.617073 -14.5453,15.831088 -1.78316,0.823765 -6.24212,2.890935 -9.90878,4.593715 -8.22434,3.81935 -12.66667,7.60968 -12.66667,10.80762 0,2.93664 2.07858,3.22329 3.14884,0.43424 z M 77.333332,102.98142 c 0,-0.56021 -2.417825,-2.51021 -5.372944,-4.333329 -5.495506,-3.390371 -8.876734,-7.774768 -14.673878,-19.027446 -3.028225,-5.878004 -3.320547,-6.104661 -3.719593,-2.884073 -0.915676,7.390141 10.721725,24.627138 17.766415,26.315128 4.314852,1.03389 6,1.01415 6,-0.0703 z M 51.427371,54.982927 c -1.577029,-1.577028 -2.077289,0.750182 -1.10435,5.137444 l 1.008208,4.546296 0.428424,-4.461518 c 0.235632,-2.453834 0.08611,-4.803834 -0.332282,-5.222222 z M 177.406,203.66667 c -5.86827,-7.16096 -8.07267,-10.20254 -8.07267,-11.1385 0,-0.59778 -2.55,-3.57158 -5.66667,-6.60845 -8.78469,-8.55976 -21,-21.74015 -21,-22.65911 0,-0.45525 -4.51898,-5.72513 -10.04218,-11.71084 -9.87551,-10.70249 -12.31742,-14.95217 -10.82556,-18.83989 1.05429,-2.74744 11.72705,-1.64267 13.53441,1.40099 0.73333,1.23496 3.73333,5.23958 6.66667,8.89917 2.93333,3.65959 5.9805,7.76308 6.77149,9.11887 1.60808,2.7563 10.29629,12.85638 18.91535,21.98916 7.72693,8.18749 17.64649,23.21034 17.64649,26.72505 0,4.10525 -5.32324,6.00128 -7.92733,2.82355 z m 21.85668,-3.31931 c -0.77219,-0.55772 -4.61796,-4.91403 -8.54616,-9.68069 -3.9282,-4.76667 -7.85354,-9.26667 -8.72298,-10 -0.86944,-0.73334 -4.3027,-4.93334 -7.6295,-9.33334 -3.3268,-4.4 -11.21967,-13.25309 -17.53972,-19.67353 -12.15926,-12.35243 -14.14655,-16.81144 -8.77396,-19.68675 3.89788,-2.08608 7.57344,-0.46219 11.68996,5.1647 6.62549,9.0564 20.86096,25.82701 27.92634,32.89964 3.85,3.85394 7,7.53522 7,8.18062 0,1.18827 9.78056,11.71052 13.74862,14.79123 3.34006,2.59316 0.91933,7.57135 -3.89247,8.00479 -2.12088,0.19104 -4.48793,-0.10894 -5.26013,-0.66667 z M 198,173.94991 c -4.4,-5.51863 -12.25383,-14.96498 -17.45295,-20.99188 -11.72216,-13.58856 -13.00091,-15.82767 -10.77645,-18.86979 2.6963,-3.68743 8.02026,-1.35832 12.99621,5.68555 2.41908,3.42441 7.90673,10.02013 12.19477,14.65716 4.28804,4.63702 9.35562,10.78702 11.26128,13.66666 1.90566,2.87964 3.94467,5.23572 4.53114,5.23572 1.92762,0 2.75665,5.17731 1.27296,7.94964 -2.52039,4.70938 -5.78715,3.00156 -14.02696,-7.33306 z m 8.27086,-16.02423 c -2.71564,-1.84533 -4.93753,-3.86863 -4.93753,-4.49621 0,-0.62758 -2.74439,-4.19348 -6.09864,-7.92422 -4.54211,-5.0519 -5.88039,-7.47085 -5.24349,-9.47754 1.27837,-4.02779 5.50124,-3.28882 12.09853,2.11717 9.34703,7.65919 13.44411,16.32676 10.16072,21.49553 -0.77477,1.21967 -2.30844,0.77987 -5.97959,-1.71473 z"
       id="path362" />
  </g>
</svg>
