<?xml version="1.0" encoding="UTF-8" standalone="no"?>
<!-- Created with Inkscape (http://www.inkscape.org/) -->

<svg
   version="1.1"
   id="svg175"
   width="490.66666"
   height="220"
   viewBox="0 0 490.66666 220"
   xmlns="http://www.w3.org/2000/svg"
   xmlns:svg="http://www.w3.org/2000/svg">
  <defs
     id="defs179" />
  <g
     id="g181">
    <path
       style="fill:#000000;stroke-width:1.33333"
       d="m 237.08604,213.38313 c -7.27047,-1.38394 -14.41938,-7.30906 -14.41938,-11.95098 0,-3.12535 0.6867,-3.90282 4.03932,-4.57335 4.53967,-0.90793 13.29392,-7.34825 13.29398,-9.78011 6e-5,-2.8868 -2.43584,-3.18237 -14.18995,-1.72174 -6.39885,0.79514 -26.2838,1.45384 -44.18877,1.46374 -28.92908,0.016 -32.83662,-0.23729 -35.08787,-2.27465 -3.17409,-2.87252 -3.28176,-8.06733 -0.20004,-9.6522 1.28333,-0.66 6.01052,-1.21756 10.50487,-1.23904 12.92621,-0.0617 13.82846,-0.63668 13.82846,-8.81132 0,-3.83724 -0.66854,-7.64536 -1.48565,-8.46247 -0.96004,-0.96004 -4.86657,-1.22997 -11.04168,-0.76294 -9.36233,0.70806 -9.58896,0.65042 -11.18101,-2.84375 -2.10256,-4.61464 -2.05114,-5.49104 0.47025,-8.01241 1.47019,-1.4702 4.65224,-2.09524 10.66667,-2.09524 6.417,0 8.57142,-0.46452 8.57142,-1.84808 0,-2.27371 -7.85244,-6.15192 -12.45614,-6.15192 -4.01715,0 -5.61186,-2.10346 -5.05427,-6.66667 0.57091,-4.67208 5.75216,-9.69947 14.32,-13.89473 6.12725,-3.00022 8.33711,-3.43463 13.58723,-2.67098 9.95341,1.44778 20.34912,7.65082 23.72957,14.15927 1.71547,3.30279 1.627,3.7613 -1.09329,5.66667 -1.62788,1.1402 -3.94536,2.0731 -5.14996,2.0731 -2.7403,0 -9.21751,4.98915 -9.21344,7.09678 0.003,1.178 15.66772,1.6406 62.75478,1.85314 57.93426,0.26151 62.71892,0.11267 62.32392,-1.93832 -0.3909,-2.02985 -6.2395,-5.66758 -12.11197,-7.53346 -1.29997,-0.41304 -2.72884,-1.70286 -3.17528,-2.86626 -1.58121,-4.12057 2.05677,-8.69131 9.70436,-12.19249 12.33763,-5.64835 26.15433,-3.99698 35.94104,4.29568 6.0184,5.09963 5.58019,7.4049 -2.21931,11.67475 -2.50465,1.37117 -6.0539,3.96102 -7.88724,5.75522 l -3.33333,3.26218 9.33333,-0.77587 c 5.13334,-0.42672 10.15834,-0.21157 11.16667,0.47809 1.91217,1.30787 2.52276,7.64138 0.8946,9.27946 -0.51629,0.51944 -5.84129,1.24444 -11.83333,1.6111 L 326,154 l -0.44004,4.63133 c -0.24202,2.54724 -0.0552,7.19724 0.41504,10.33334 l 0.85506,5.702 9.58496,0.0204 c 12.18263,0.026 13.9258,0.995 11.65435,6.47877 -1.97932,4.77851 -5.15341,6.09449 -11.72572,4.86152 -6.31851,-1.18536 -68.78835,-2.13813 -76.01032,-1.15929 -3.16525,0.429 -5.66667,1.48913 -5.66667,2.40158 0,0.89846 3.9,4.13755 8.66667,7.19796 4.76667,3.06043 8.66667,6.45344 8.66667,7.54003 0,2.75403 -10.1155,9.80036 -15.15742,10.55848 -9.81098,1.4752 -15.14086,1.69561 -19.75654,0.817 z m 18.07297,-8.6888 c 2.37676,-1.79998 2.284,-2.07782 -2,-5.99097 -5.23068,-4.77788 -7.19907,-4.72499 -10.94277,0.29404 -2.70106,3.6212 -2.70271,3.687 -0.14131,5.62427 3.28829,2.48701 9.84799,2.52345 13.08408,0.0727 z m 59.4246,-30.8539 c 0.32099,-0.30976 0.83401,-4.02483 1.14004,-8.25567 0.39248,-5.42591 0.0241,-8.11769 -1.25028,-9.13567 -2.06204,-1.64717 -42.86983,-3.295 -53.76129,-2.1709 l -7.07295,0.72998 -0.89741,7.93216 c -0.58711,5.18936 -0.37782,8.55824 0.60526,9.74279 1.13758,1.37068 6.39648,1.834 21.64311,1.90679 11.07723,0.0529 20.48605,0.44433 20.90849,0.86989 0.80768,0.81363 17.67907,-0.64856 18.68503,-1.61937 z m -73.99081,-2.28822 c 2.08026,-1.52112 2.29809,-2.8835 1.49224,-9.33333 l -0.94359,-7.55221 -8.90407,-0.17304 c -20.40348,-0.39652 -41.18497,0.46265 -45.23738,1.87024 -4.2177,1.465 -4.33334,1.7115 -4.33334,9.23732 v 7.73214 h 27.74516 c 21.04244,0 28.33362,-0.43028 30.18098,-1.78112 z m 84.07386,-41.64717 c 3.88462,-3.23625 3.92534,-3.38872 1.41183,-5.28538 -4.23783,-3.19779 -15.41183,-1.77458 -15.41183,1.96298 0,1.08701 7.89164,6.7354 9.33334,6.68028 0.36666,-0.014 2.46666,-1.52506 4.66666,-3.35788 z m -144.17301,-1.71386 c 1.92861,-2.1311 1.97511,-2.69557 0.33419,-4.05742 -2.36028,-1.95886 -8.75536,-0.54075 -9.79648,2.17238 -1.64144,4.27753 5.93176,5.78623 9.46229,1.88504 z M 99.752704,109.38314 c -7.270471,-1.38395 -14.419372,-7.30907 -14.419372,-11.950995 0,-3.125344 0.686688,-3.902816 4.039319,-4.573342 4.539664,-0.907932 13.293919,-7.348262 13.293979,-9.780114 7e-5,-2.886802 -2.43585,-3.182366 -14.189946,-1.721748 -6.398861,0.795152 -26.283812,1.453842 -44.188778,1.463754 -28.929081,0.01601 -32.836613,-0.237302 -35.0878625,-2.274654 -3.1741,-2.872521 -3.2817634,-8.067337 -0.2000436,-9.652205 1.2833331,-0.659992 6.0105201,-1.21756 10.5048611,-1.239039 12.926213,-0.06178 13.828472,-0.636682 13.828472,-8.811314 0,-3.837248 -0.668547,-7.645363 -1.48566,-8.462476 -0.960035,-0.960035 -4.866567,-1.229963 -11.041677,-0.76294 -9.362331,0.708072 -9.588953,0.650433 -11.1810064,-2.843744 -2.102569,-4.614636 -2.0511332,-5.491036 0.4702484,-8.012418 1.470194,-1.470194 4.652236,-2.095238 10.666667,-2.095238 6.416995,0 8.571428,-0.464516 8.571428,-1.848079 0,-2.273707 -7.852444,-6.151921 -12.456149,-6.151921 -4.017143,0 -5.611857,-2.103459 -5.05426,-6.666667 0.570901,-4.672083 5.752154,-9.699467 14.319998,-13.894729 6.127247,-3.0002193 8.337107,-3.4346341 13.587219,-2.6709782 9.953413,1.4477751 20.34913,7.6508222 23.729583,14.1592662 1.715456,3.302794 1.626995,3.761298 -1.093298,5.666666 -1.627877,1.14021 -3.945357,2.073108 -5.149957,2.073108 -2.740295,0 -9.217504,4.989152 -9.213448,7.096774 0.0023,1.178001 15.667731,1.640602 62.754789,1.853148 57.93425,0.261508 62.71892,0.112706 62.32392,-1.938322 -0.39091,-2.029849 -6.23951,-5.667585 -12.11197,-7.533464 -1.29998,-0.413042 -2.72884,-1.702857 -3.17528,-2.866254 -1.58122,-4.120575 2.05677,-8.691312 9.70436,-12.192498 12.33762,-5.6483495 26.15433,-3.9969725 35.94104,4.295684 6.0184,5.099632 5.58018,7.404902 -2.21931,11.674746 -2.50465,1.371174 -6.05391,3.961025 -7.88724,5.755224 L 190,38.740549 l 9.33333,-0.775862 c 5.13333,-0.426726 10.15833,-0.211586 11.16667,0.478086 1.91217,1.307871 2.52276,7.641376 0.8946,9.27945 -0.5163,0.519444 -5.8413,1.244444 -11.83334,1.61111 L 188.66666,50 l -0.44004,4.631335 c -0.24201,2.547233 -0.0552,7.197233 0.41504,10.333333 l 0.85507,5.701999 9.58496,0.02041 c 12.18263,0.02595 13.9258,0.994999 11.65435,6.478765 -1.97932,4.778507 -5.15342,6.094496 -11.72572,4.861524 -6.31851,-1.185351 -68.78835,-2.138133 -76.01032,-1.15929 -3.16526,0.429008 -5.66667,1.489132 -5.66667,2.401595 0,0.898453 3.9,4.137536 8.66667,7.19796 4.76666,3.060424 8.66666,6.453434 8.66666,7.540025 0,2.754034 -10.11548,9.800354 -15.15741,10.558474 -9.81099,1.4752 -15.14086,1.69561 -19.756546,0.81701 z m 18.072976,-8.68881 c 2.37675,-1.799982 2.284,-2.077823 -2,-5.990974 -5.23069,-4.777877 -7.19907,-4.724985 -10.94277,0.294045 -2.70106,3.621202 -2.70271,3.686999 -0.14131,5.624259 3.28829,2.48702 9.84799,2.52346 13.08408,0.0727 z m 59.4246,-30.853898 c 0.32098,-0.309772 0.83401,-4.024827 1.14004,-8.255679 0.39248,-5.425902 0.0241,-8.117692 -1.25028,-9.135661 -2.06204,-1.647167 -42.86983,-3.295004 -53.76129,-2.170905 l -7.07295,0.729992 -0.89742,7.932154 c -0.58711,5.189362 -0.37781,8.558239 0.60528,9.742791 1.13756,1.370683 6.39647,1.833999 21.6431,1.906787 11.07722,0.05288 20.48605,0.444332 20.90849,0.869889 0.80768,0.813627 17.67907,-0.64856 18.68503,-1.619368 z m -73.99081,-2.288213 c 2.08026,-1.521124 2.29808,-2.883512 1.49223,-9.333334 l -0.94359,-7.552218 -8.904053,-0.173039 c -20.403486,-0.396515 -41.184972,0.462651 -45.237391,1.870241 -4.217695,1.465 -4.333333,1.711507 -4.333333,9.237315 v 7.732149 h 27.745159 c 21.042436,0 28.333608,-0.430285 30.180978,-1.781114 z m 84.07386,-41.647175 c 3.88461,-3.236259 3.92533,-3.388725 1.41183,-5.285383 -4.23783,-3.197796 -15.41183,-1.77458 -15.41183,1.962982 0,1.087005 7.89164,6.735397 9.33333,6.680277 0.36667,-0.01401 2.46667,-1.525063 4.66667,-3.357876 z M 43.160321,24.191176 c 1.928618,-2.131099 1.97511,-2.695567 0.334188,-4.057412 -2.360284,-1.958861 -8.75536,-0.540751 -9.796484,2.172373 -1.641441,4.277531 5.931764,5.786232 9.462296,1.885039 z M 369.33333,107.5616 c -7.08369,-3.73022 -9.30767,-5.61402 -10.75609,-9.110832 C 356.91732,94.443381 357.76816,92 360.82354,92 c 2.82958,0 12.50979,-8.052844 12.50979,-10.406728 0,-1.579597 -1.3598,-1.802043 -7,-1.145109 -5.36915,0.625362 -56.38399,1.231936 -78,0.927432 -6.97185,-0.09821 -11.69816,-11.28389 -5.33333,-12.622306 1.65,-0.346966 7.04833,-0.836728 11.99629,-1.088357 4.94795,-0.251629 9.62709,-1.088315 10.39808,-1.859301 0.90747,-0.907475 1.01743,-3.706344 0.3118,-7.937046 l -1.08999,-6.535252 -9.4426,-0.666666 c -10.26474,-0.724714 -13.84025,-2.636784 -13.84025,-7.401355 0,-4.840204 3.52199,-7.475823 8.69351,-6.505641 5.01612,0.941032 12.63982,-0.364607 12.63982,-2.164704 0,-1.777988 -7.38758,-5.261634 -11.15806,-5.261634 -11.74291,0 -9.68011,-9.444372 4.04902,-18.538167 5.4502,-3.6100691 7.38288,-4.1284993 15.39075,-4.1284993 9.97884,0 17.34091,2.774077 24.05163,9.0628133 5.3245,4.989688 4.85168,9.093227 -1.33334,11.571592 -7.1555,2.867245 -8.94972,4.063341 -9.38218,6.254521 -0.32288,1.635968 3.40109,1.938571 24,1.950188 33.24806,0.01875 58.24225,0.17504 80.04885,0.500543 12.75105,0.190332 18.33333,-0.178743 18.33333,-1.212116 0,-0.817175 -3.9,-3.408949 -8.66667,-5.759499 -4.76666,-2.35055 -8.66666,-4.998913 -8.66666,-5.88525 0,-2.850112 6.84189,-9.851319 12.39632,-12.684978 4.11453,-2.099081 7.15874,-2.6219142 12.83228,-2.2039057 12.01256,0.8850492 28.10473,9.5277367 28.10473,15.0943297 0,1.111864 -2.25,3.042136 -5,4.289494 -2.75,1.247357 -6.8,3.48765 -9,4.978429 l -4,2.710505 10,0.666667 10,0.666667 0.4112,4.244746 c 0.51151,5.280103 -1.53477,6.483562 -12.65399,7.442072 -4.53354,0.390804 -8.95064,1.148026 -9.81578,1.682712 -1.85199,1.144592 -0.59886,13.565076 1.64089,16.263806 C 465.14146,67.375391 469.01975,68 474.80451,68 c 8.56984,0 9.19575,0.203484 9.95714,3.237104 1.9748,7.86824 -3.33179,11.822744 -14.49852,10.804393 -3.81139,-0.34758 -22.9798,-0.970628 -42.59647,-1.384552 -40.49799,-0.854533 -41.39184,-0.595757 -27.66667,8.009722 5.29291,3.318577 8,5.888821 8,7.595596 0,8.252277 -8.99024,13.002607 -24.66666,13.033577 -6.28418,0.0124 -12.0362,-0.70012 -14,-1.73424 z m 21.89094,-7.03759 c 3.197,-1.226799 2.54166,-3.702687 -1.83696,-6.939933 -5.3755,-3.974288 -8.33108,-3.667746 -11.95986,1.240438 -2.48754,3.364572 -2.72616,4.378224 -1.25074,5.312915 2.10026,1.33054 11.9296,1.58306 15.04756,0.38658 z M 375.66666,67.33742 c 2.17565,-0.766343 2.23041,-14.240345 0.0667,-16.404087 -1.7553,-1.75529 -46.94063,-2.106456 -53.06667,-0.412417 -3.00516,0.831021 -3.37332,1.691815 -3.73946,8.743415 -0.22336,4.301905 0.16829,8.177301 0.87036,8.61199 1.42626,0.883087 53.25127,0.383195 55.8691,-0.538901 z m 71.57987,0.695581 c 3.14304,-1.194981 3.42013,-1.943876 3.42013,-9.243482 0,-6.424018 -0.44625,-8.069664 -2.33333,-8.604651 -4.60482,-1.305464 -50.41746,-2.279916 -54.30884,-1.155171 -3.32748,0.961759 -4.16004,2.082176 -5.10759,6.8736 -0.62264,3.148498 -0.77672,7.140403 -0.34239,8.870902 0.77091,3.071544 1.19355,3.156266 17.77426,3.56297 9.3415,0.229138 21.5955,0.547011 27.23109,0.706388 5.6356,0.159378 11.7856,-0.295373 13.66667,-1.010556 z m 12.93622,-42.829805 c 5.22692,-3.721891 3.06844,-6.536529 -5.01268,-6.536529 -6.60233,0 -7.33766,1.563806 -2.93766,6.247398 3.51149,3.737814 3.12677,3.723822 7.95034,0.289131 z M 315,23.477272 c 2.89969,-2.201177 2.98685,-4.274521 0.22428,-5.33462 -3.04962,-1.170247 -6.26502,-0.961997 -8.55762,0.554243 -1.69472,1.120822 -1.49118,1.723753 1.33334,3.949936 3.93774,3.103582 3.99634,3.110536 7,0.830441 z"
       id="path501" />
  </g>
</svg>
