<?xml version="1.0" encoding="UTF-8" standalone="no"?>
<!-- Created with Inkscape (http://www.inkscape.org/) -->

<svg
   version="1.1"
   id="svg165"
   width="212"
   height="201.33333"
   viewBox="0 0 212 201.33333"
   xmlns="http://www.w3.org/2000/svg"
   xmlns:svg="http://www.w3.org/2000/svg">
  <defs
     id="defs169" />
  <g
     id="g171">
    <path
       style="fill:#000000;stroke-width:1.33333"
       d="m 88,194.58412 c -1.833333,-0.62271 -6.933333,-2.01419 -11.333333,-3.09216 -4.4,-1.07798 -10.410967,-2.8538 -13.357706,-3.94628 C 57.490612,185.38857 36.616915,171.86305 29.715099,165.77789 23.578712,160.36758 7.0579251,140.30684 6.2758739,137.31628 4.5850152,130.85042 3.9118395,130.91719 78.666667,130.13638 117.16667,129.73425 150.16667,129.46715 152,129.54282 c 4.42517,0.18266 7.95548,0.17355 12,-0.031 1.83333,-0.0927 11.93173,-0.0208 22.44089,0.1598 16.83858,0.28934 19.32212,0.62179 20.91454,2.79964 2.53901,3.47243 0.87714,7.06481 -8.91152,19.26381 -17.679,22.03219 -35.51384,33.00363 -65.77724,40.46415 -2.93334,0.72312 -7.17594,1.87411 -9.428,2.55775 C 118.23843,196.27485 92.607624,196.1491 88,194.58408 Z m 41.91559,-11.38326 c 4.35357,-1.06694 11.85357,-3.94472 16.66666,-6.39506 4.8131,-2.45035 10.78836,-4.90091 13.27838,-5.4457 3.2995,-0.72189 8.09068,-4.5789 17.66666,-14.22209 7.22666,-7.27737 13.13938,-13.81536 13.13938,-14.52888 0,-0.8254 -12.73171,-1.04679 -35,-0.6086 -69.912715,1.37568 -87.392037,2.04245 -91.551041,3.49228 -3.398437,1.18471 -4.68709,1.08621 -6.509761,-0.49752 -2.832048,-2.46079 -28.979707,-4.42047 -30.307861,-2.27147 -1.289383,2.08627 2.010305,6.39151 13.957794,18.2113 5.94048,5.87698 13.03812,11.60785 15.772536,12.73525 2.734415,1.12741 8.646691,3.61279 13.138391,5.52307 4.4917,1.91026 9.5917,3.4997 11.333333,3.53206 1.741634,0.0324 6.038067,0.81614 9.54763,1.7417 7.838416,2.0672 27.937789,1.41234 38.867899,-1.26634 z M 77.228593,88.092045 C 62.133311,78.085419 51.463697,57.972088 53.965695,44.239063 54.457267,41.540911 56.466083,35.133333 58.429731,30 65.830337,10.653467 83.612571,0.05391043 105.14901,2.1517756 c 15.87014,1.5459114 28.06724,8.4389754 33.30647,18.8228144 3.23131,6.404256 6.87785,21.030225 6.87785,27.586487 0,2.781554 -0.9863,9.143773 -2.19178,14.138263 -2.57067,10.650591 -8.93071,18.314327 -20.86581,25.142896 -7.02237,4.017793 -7.80371,4.157762 -23.209449,4.157762 -15.400572,0 -16.142812,-0.132826 -21.837698,-3.907953 z m 37.822047,-8.34751 c 6.44307,-2.511718 14.65498,-10.511433 17.68275,-17.225833 2.0854,-4.624572 2.17217,-6.323055 0.75972,-14.869813 -2.94677,-17.830967 -5.4493,-23.649508 -12.2019,-28.370132 -5.98276,-4.182436 -9.30663,-5.227312 -21.661514,-6.8094 -4.695185,-0.601235 -6.974151,-0.286004 -8.666667,1.198789 -1.263,1.107991 -4.507266,3.135927 -7.209482,4.506526 -5.28688,2.681569 -12.551127,11.61512 -15.578718,19.158661 -3.068486,7.645437 -3.402608,17.711521 -0.758289,22.844966 5.622053,10.914152 13.598452,18.065084 23.436075,21.010708 5.853088,1.752557 17.831155,1.03754 24.198025,-1.444472 z"
       id="path640" />
  </g>
</svg>
