<?xml version="1.0" encoding="UTF-8" standalone="no"?>
<!-- Created with Inkscape (http://www.inkscape.org/) -->

<svg
   version="1.1"
   id="svg75"
   width="194.66667"
   height="140"
   viewBox="0 0 194.66667 140"
   xmlns="http://www.w3.org/2000/svg"
   xmlns:svg="http://www.w3.org/2000/svg">
  <defs
     id="defs79" />
  <g
     id="g81">
    <path
       style="fill:#000000;stroke-width:1.33333"
       d="m 84.732165,133.02223 c -1.136022,-1.6219 -2.065497,-5.1191 -2.065497,-7.77155 0,-3.87401 -0.668017,-5.12701 -3.396071,-6.36999 -1.867838,-0.85105 -4.304994,-1.54736 -5.4159,-1.54736 -1.110906,0 -5.23946,-1.52313 -9.174564,-3.38473 C 55.278493,109.50091 43.281766,96.676559 41.314577,88.971107 40.522955,85.870331 39.346982,81.833333 38.701305,80 37.641749,76.991504 34.840359,60.113399 32.690359,43.784624 30.878841,30.026548 23.083946,20.025297 11.561924,16.675755 4.6739534,14.673368 4.0000001,14.142092 4.0000001,10.714707 c 0,-6.9169223 5.6446331,-6.6518829 20.3331069,0.954726 10.965679,5.678712 20.39723,13.746522 21.580198,18.459839 0.482913,1.924083 1.994602,5.982121 3.359308,9.017864 1.364707,3.035741 2.819856,7.019531 3.233668,8.852864 4.708923,20.862241 7.966693,28.910681 15.74688,38.903245 3.592972,4.614671 9.636062,7.760814 18.510978,9.637155 1.886943,0.398939 5.690371,2.258725 8.452061,4.13286 l 5.02126,3.40752 8.2146,-4.02071 c 27.26221,-13.343723 30.98813,-18.352843 34.25181,-46.048095 0.88811,-7.53633 2.66844,-15.474827 4.09964,-18.280215 1.39141,-2.727372 2.52983,-5.809301 2.52983,-6.848732 0,-1.039429 4.05,-5.866796 9,-10.727479 C 168.17258,8.4938467 173.24196,6.253668 183.73652,6.929798 189.42107,7.2960345 190,7.6414332 190,10.666667 c 0,2.602879 -1.28749,3.982764 -5.8753,6.296926 -8.46559,4.270164 -11.73308,7.837382 -14.89015,16.25602 -3.0684,8.182162 -6.50809,26.941906 -6.5446,35.693587 -0.0133,3.068928 -0.53931,6.968928 -1.17,8.666667 -0.63069,1.69774 -1.55788,5.3368 -2.06041,8.0868 -0.73368,4.014897 -0.50776,5 1.14672,5 1.13322,0 2.06041,0.9 2.06041,2 0,1.234296 -1.25235,2 -3.27109,2 -2.03106,0 -4.17922,1.324645 -5.66667,3.494304 -4.45832,6.503129 -11.56755,12.337159 -17.66197,14.493929 -13.30561,4.70874 -17.40027,8.28591 -17.40027,15.20119 0,4.8066 -4.11262,6.44983 -18.26784,7.29906 -12.985934,0.77908 -13.694597,0.6826 -15.666665,-2.13292 z M 98.593972,119 C 97.377278,113.59342 92.149008,108.42147 86.666668,107.20117 78.41554,105.36457 68.648228,100.10903 62.875536,94.399768 57.612709,89.194771 51.693209,77.814225 49.317289,68.333333 47.383902,60.618332 45.187303,61.084048 46.172883,69 c 1.795199,14.418636 10.450334,32.33333 15.621215,32.33333 0.731094,0 2.276506,0.80329 3.434248,1.78508 1.157744,0.98179 5.404989,2.80983 9.438322,4.0623 8.008921,2.48702 12.597696,5.8193 17.19399,12.48596 C 93.503835,122.05 95.94421,124 97.283712,124 c 2.125456,0 2.292236,-0.63644 1.31026,-5 z m 11.527568,-0.18408 c 1.59621,-4.92064 5.38747,-8.42206 12.54513,-11.58604 10.86076,-4.8009 15.9238,-7.646667 18.42032,-10.353448 4.42856,-4.801544 8.24635,-12.719692 8.24635,-17.103049 V 75.627875 L 146,80.539816 c -1.83333,2.701568 -3.33333,5.738903 -3.33333,6.749632 0,1.915508 -13.38324,14.043882 -15.49694,14.043882 -0.98211,0 -17.59539,7.61575 -18.86033,8.64583 -0.1965,0.16002 -1.166,3.40866 -2.15444,7.2192 -1.62222,6.25381 -1.58744,6.88807 0.35727,6.51538 1.18494,-0.22709 2.80913,-2.43111 3.60931,-4.89782 z M 152,64.444444 c 0,-5.714396 -0.6185,-5.520828 -1.77514,0.555556 -0.47396,2.489928 -0.27183,4.333333 0.47514,4.333333 0.715,0 1.3,-2.2 1.3,-4.888889 z M 46.572954,58.333333 c -0.05154,-1.65 -0.609372,-4.2 -1.23962,-5.666666 -0.887481,-2.065282 -1.16704,-1.388724 -1.23962,3 -0.05154,3.116666 0.506287,5.666666 1.23962,5.666666 0.733333,0 1.291163,-1.35 1.23962,-3 z"
       id="path779" />
  </g>
</svg>
