<?xml version="1.0" encoding="UTF-8" standalone="no"?>
<!-- Created with Inkscape (http://www.inkscape.org/) -->

<svg
   version="1.1"
   id="svg183"
   width="157.33333"
   height="272"
   viewBox="0 0 157.33333 272"
   xmlns="http://www.w3.org/2000/svg"
   xmlns:svg="http://www.w3.org/2000/svg">
  <defs
     id="defs187" />
  <g
     id="g189">
    <path
       style="fill:#000000;stroke-width:1.33333"
       d="M 52.070116,257.05472 C 40.869388,250.60111 32.775695,242.96091 23.999999,230.55741 13.834529,216.18961 12.992619,213.48692 12.819752,194.66667 12.611123,171.95293 16.053489,156.10117 23.388196,146 c 3.749339,-5.16349 10.679242,-18.90687 13.238477,-26.25452 3.686511,-10.58412 2.760906,-14.91165 -8.761999,-40.965403 -2.905679,-6.569856 -3.163353,-8.765636 -2.86184,-24.387282 0.478315,-24.781878 1.909693,-27.158164 22.755305,-37.776967 l 12.424806,-6.329225 16.24186,0.713879 C 101.9902,12.124158 112.54666,17.108349 122.98591,32.984119 126.95775,39.024393 128,41.889268 128,46.766528 c 0,3.386407 0.97708,8.115719 2.1713,10.50958 3.15591,6.326175 1.77821,16.598936 -3.34214,24.920571 -7.04153,11.443952 -10.51882,20.733001 -11.40722,30.472681 l -0.85159,9.33602 6.88555,6.66398 c 7.67361,7.42667 15.78595,22.90992 18.51124,35.33064 0.88498,4.03333 2.2544,9.59535 3.04318,12.36003 0.78877,2.76468 1.36974,5.76468 1.29106,6.66666 -0.0787,0.90199 -0.48641,6.73998 -0.90608,12.97331 -1.00664,14.95147 -1.93857,21.56219 -3.28002,23.26719 -0.6056,0.7697 -1.85919,3.75062 -2.78576,6.62424 -7.29883,22.63613 -27.57373,36.07936 -53.318079,35.35244 -4.77296,-0.13478 -11.678109,0.15484 -15.344776,0.6436 -6.185085,0.82444 -7.383973,0.47533 -16.596549,-4.83275 z m 30.596549,-17.06088 c 4.033333,-0.80356 10.866586,-2.07163 15.185006,-2.81792 12.648909,-2.18592 15.483469,-4.93353 16.270889,-15.77175 0.23692,-3.26105 1.55976,-7.46105 2.93965,-9.33333 6.1629,-8.36212 7.30644,-12.84309 6.40348,-25.09223 -2.13442,-28.95446 -2.31016,-29.71442 -7.42969,-32.12844 -3.2778,-1.54558 -5.23318,-3.74165 -6.69299,-7.51684 -2.66518,-6.89237 -10.244101,-18.87928 -13.282595,-21.0079 -1.302282,-0.91232 -4.291136,-4.50876 -6.641897,-7.9921 C 87.067757,114.85 84.627348,112 83.995386,112 c -0.631961,0 -1.52656,-1.18952 -1.987996,-2.64338 -0.765982,-2.41339 -1.098998,-2.473 -3.827692,-0.68509 -2.759664,1.8082 -3.553116,1.60525 -10.353087,-2.64816 -5.453102,-3.41094 -8.190783,-6.260973 -10.548648,-10.981571 -1.751354,-3.506323 -4.255357,-7.806047 -5.564455,-9.554944 -1.309097,-1.748896 -2.380176,-4.22543 -2.380176,-5.503407 0,-1.277977 -0.9,-3.070529 -2,-3.983448 -1.71152,-1.420435 -2,-1.001647 -2,2.903407 0,2.509793 0.607879,5.171138 1.35084,5.9141 0.742963,0.742962 2.20516,5.434053 3.249328,10.424645 1.044168,4.990598 3.07878,10.352718 4.521359,11.915828 1.44258,1.56311 3.228046,5.07764 3.967705,7.81006 1.111379,4.10562 0.934833,5.49437 -1.017005,8 -1.299012,1.66758 -3.407361,5.13196 -4.685221,7.69863 -1.277862,2.56666 -4.215734,6.46666 -6.528606,8.66666 -2.461482,2.34136 -5.676296,7.87016 -7.752881,13.33334 -1.951213,5.13333 -5.438358,14.28508 -7.74921,20.33721 -5.057151,13.24471 -5.277138,16.644 -1.549934,23.94992 1.57316,3.08364 2.860292,6.78955 2.860292,8.23533 0,5.16056 23.24714,31.04143 31.280245,34.82408 5.466125,2.57391 6.374439,2.573 19.386421,-0.0193 z m -20.10153,-19.9672 c -3.799374,-3.68132 -7.324466,-6.69331 -7.833537,-6.69331 -0.509072,0 -2.330403,-2.85 -4.047402,-6.33333 -1.716998,-3.48333 -4.223352,-7.76425 -5.569673,-9.51315 -5.307257,-6.89422 -1.682975,-35.64186 5.801879,-46.02024 2.062645,-2.86002 3.750264,-6.23674 3.750264,-7.50382 0,-4.18738 3.811655,-11.21482 9.167199,-16.90133 4.78038,-5.07581 5.657896,-5.49654 9.290915,-4.45461 6.091598,1.74705 7.137421,2.59826 16.774123,13.65274 C 98.804342,146.4752 104,156.714 104,164.04784 c 0,1.88036 0.47751,3.98883 1.06114,4.68549 2.55021,3.04414 4.26467,11.56758 4.55656,22.6529 0.31187,11.84426 0.26494,12.03626 -5.45241,22.30534 -3.17184,5.69703 -6.756608,10.83484 -7.96614,11.41736 -1.209533,0.58254 -7.717707,1.18332 -14.462608,1.33508 l -12.263455,0.27592 z m 27.274058,-16.35997 c 1.424561,-2.24852 1.822521,-7.00792 1.588694,-19 -0.31068,-15.93356 -0.332276,-16.03155 -5.201189,-23.59938 -2.689066,-4.17965 -5.597116,-9.15305 -6.46233,-11.05198 -2.515587,-5.52111 -5.355055,-3.45084 -11.370364,8.2902 l -5.605993,10.94212 1.898705,8.37618 c 5.646517,24.90975 8.139082,29.04286 17.514964,29.04286 4.497269,0 6.147526,-0.64822 7.637513,-3 z M 103.25386,95.812685 c 7.16749,-12.409453 10.24406,-33.439469 6.89719,-47.146018 -1.1392,-4.665391 -2.93074,-8.555768 -4.29805,-9.333334 -1.28954,-0.733333 -4.87737,-3.607553 -7.972971,-6.387156 -6.025754,-5.410649 -15.641619,-8.147184 -28.8939,-8.22278 -5.932984,-0.03384 -6.784594,0.419944 -13.049465,6.953531 -3.686242,3.844356 -7.566169,6.989739 -8.622058,6.989739 -1.05589,0 -2.880835,1.466725 -4.055434,3.25939 -2.660073,4.059786 -1.621154,21.596692 1.462859,24.692991 1.705176,1.711968 1.944635,1.256793 1.944635,-3.696457 0,-4.781526 0.859432,-6.581214 5.597508,-11.721418 7.303702,-7.923582 11.331295,-9.86784 20.441551,-9.86784 7.135972,0 7.897649,0.341672 15.497577,6.951888 C 96.895543,55.845501 104,65.315417 104,69.341501 c 0,1.397632 -1.79164,5.57977 -3.98141,9.293639 -2.189779,3.713869 -4.338549,8.390273 -4.775048,10.392008 -0.436499,2.001735 -1.423999,5.304831 -2.194444,7.340213 -1.148183,3.033296 -0.953905,4.194519 1.077259,6.438929 2.460724,2.71907 2.492286,2.71985 4.509188,0.11199 1.117116,-1.44444 3.195355,-4.641955 4.618315,-7.105599 z M 76.598285,86.359676 c 3.711313,-5.298643 1.911215,-25.301592 -2.350797,-26.12238 -3.651463,-0.703208 -8.678863,3.285216 -10.928893,8.670299 -2.244276,5.371309 -1.667966,8.743036 2.146364,12.557365 1.394272,1.394272 2.53504,3.93504 2.53504,5.646151 0,1.711112 0.378889,3.490001 0.841977,3.953089 1.223488,1.223488 5.362637,-1.287079 7.756309,-4.704524 z"
       id="path2496" />
  </g>
</svg>
