<?xml version="1.0" encoding="UTF-8" standalone="no"?>
<!-- Created with Inkscape (http://www.inkscape.org/) -->

<svg
   version="1.1"
   id="svg203"
   width="209.33333"
   height="213.33333"
   viewBox="0 0 209.33333 213.33333"
   xmlns="http://www.w3.org/2000/svg"
   xmlns:svg="http://www.w3.org/2000/svg">
  <defs
     id="defs207" />
  <g
     id="g209">
    <path
       style="fill:#000000;stroke-width:1.33333"
       d="m 95.666665,206.59602 c -2.1741,-1.29998 -2.338005,-6.2359 -2.401801,-72.32894 C 93.227207,95.253517 92.753897,59.359006 92.213065,54.501495 91.44662,47.617611 90.211879,44.169749 86.614868,38.869209 c -2.591489,-3.818806 -5.650751,-6.815523 -6.977479,-6.83483 -1.299436,-0.01891 -6.332425,1.76562 -11.184421,3.96562 -4.851996,2.2 -9.646962,4 -10.655481,4 -1.00852,0 -2.875531,0.54566 -4.148913,1.212579 -1.273383,0.666919 -4.115241,2.038585 -6.315241,3.048148 -2.2,1.009564 -6.770982,3.561805 -10.157738,5.671648 l -6.157737,3.83608 -1.175596,22.782438 C 28.802677,96.697512 28.412404,151.69365 29.179112,170 c 0.496153,11.8464 -1.726647,32.12669 -3.793396,34.61006 -1.544244,1.85554 -3.41796,2.21828 -9.04692,1.7515 -3.904618,-0.32382 -7.6593724,-1.1488 -8.3438989,-1.83334 C 6.4333464,202.96668 5.7707455,57.171426 7.295637,50.666666 7.8973329,48.099999 9.875134,44.047433 11.69075,41.660962 16.343286,35.545606 37.088274,21.982021 47.999999,17.92108 c 2.566667,-0.95522 7.966667,-3.01832 12,-4.58467 9.357505,-3.633997 35.669038,-8.9119831 45.761761,-9.1796217 7.73498,-0.2051162 28.99836,2.915076 34.61564,5.0795074 1.62576,0.6264336 5.65593,2.1763633 8.95593,3.4442893 10.02396,3.851404 12.26132,5.047523 23.33333,12.474257 15.62468,10.480515 22.0986,16.088824 24.09923,20.87698 2.62069,6.272205 4.69327,25.292205 5.227,47.968177 0.25891,11.000001 0.89409,38.644341 1.41151,61.431861 1.12925,49.73414 1.1047,49.83934 -11.6425,49.88106 -8.063,0.0264 -10.41552,-2.3117 -10.4724,-10.40816 -0.0241,-3.43095 -0.60788,-17.6381 -1.29729,-31.57143 C 179.3028,149.4 178.70344,127.5 178.66029,114.66666 c -0.0769,-22.898775 -1.42977,-39.901149 -4.15245,-52.189276 -1.02916,-4.644813 -2.59451,-7.165609 -6.27294,-10.101806 -9.47332,-7.561777 -19.67438,-13.246793 -30.51093,-17.003609 -12.43629,-4.311421 -12.91154,-4.174953 -18.46564,5.302392 l -3.25464,5.553618 -0.119,75.151811 c -0.13357,84.36127 -0.22263,85.2697 -8.3628,85.30507 -2.30371,0.0107 -5.38856,0.30804 -6.85522,0.66228 -1.466672,0.35424 -3.716672,0.0163 -5.000005,-0.75112 z m 8.600005,-14.86269 c -1.24445,-1.24444 -1.6,-0.88889 -1.6,1.6 0,2.48889 0.35555,2.84444 1.6,1.6 1.24444,-1.24444 1.24444,-1.95556 0,-3.2 z m -85.484246,-0.0667 c 0.386048,-10.00486 -0.443086,-75.1051 -0.963182,-75.6252 -1.78294,-1.78294 -3.175918,4.17567 -2.504504,10.71327 0.879991,8.56852 0.72887,47.30048 -0.23246,59.5786 -0.548021,6.99935 -0.313352,8.33333 1.46596,8.33333 1.273702,0 2.164587,-1.19625 2.234186,-3 z m 174.550906,-36.9213 c 0,-1.42339 -0.6,-2.9588 -1.33333,-3.41203 -0.75622,-0.46736 -1.33334,0.65283 -1.33334,2.58797 0,1.87662 0.6,3.41203 1.33334,3.41203 0.73333,0 1.33333,-1.16459 1.33333,-2.58797 z m -88,-15.41203 c 0,-1.1 -0.6,-2 -1.33333,-2 -0.73333,0 -1.33333,0.9 -1.33333,2 0,1.1 0.6,2 1.33333,2 0.73333,0 1.33333,-0.9 1.33333,-2 z M 192,131.06666 c 0,-3.04073 -0.47216,-4.44739 -1.23076,-3.66666 -1.11695,1.14953 -0.4936,8.6 0.71953,8.6 0.28117,0 0.51123,-2.22 0.51123,-4.93334 z m -86.66667,-7.14535 c 0,-2.89006 -0.6,-5.25465 -1.33333,-5.25465 -0.73333,0 -1.33333,2.73542 -1.33333,6.07869 0,3.71294 0.51891,5.75798 1.33333,5.25465 0.73333,-0.45323 1.33333,-3.18864 1.33333,-6.07869 z m 0,-21.17596 c 0,-8.287061 -0.5759,-14.943898 -1.33333,-15.412018 -0.85952,-0.531209 -1.33333,4.652821 -1.33333,14.587978 0,9.38579 0.52134,15.41202 1.33333,15.41202 0.80764,0 1.33333,-5.75155 1.33333,-14.58798 z M 18.666666,88.666665 c 0,-1.1 -0.6,-2 -1.333333,-2 -0.733333,0 -1.333333,0.9 -1.333333,2 0,1.1 0.6,2 1.333333,2 0.733333,0 1.333333,-0.9 1.333333,-2 z m 0,-14.666666 c 0,-3.3 -0.6,-6 -1.333333,-6 -0.733333,0 -1.333333,2.7 -1.333333,6 0,3.3 0.6,6 1.333333,6 0.733333,0 1.333333,-2.7 1.333333,-6 z m 170.257314,1.025376 c -0.33805,-1.297291 -0.63688,-0.558709 -0.66405,1.64129 -0.0272,2.2 0.24941,3.261419 0.61465,2.35871 0.36523,-0.902711 0.38746,-2.702711 0.0495,-4 z M 105.73241,56.941526 c 0.44385,-8.28216 1.17043,-16.005561 1.61463,-17.163113 0.58808,-1.53251 -0.21016,-2.300136 -2.93638,-2.823788 -4.758567,-0.914024 -5.198398,-0.410738 -3.29392,3.769144 0.86187,1.891593 1.54993,9.588842 1.54993,17.338967 0,7.665495 0.50821,13.937263 1.12936,13.937263 0.62116,0 1.49252,-6.776313 1.93638,-15.058473 z M 22.465565,52.38645 c 3.368327,-6.593375 3.43836,-7.053117 1.074419,-7.053117 -2.88282,0 -5.785463,4.27119 -6.621586,9.743553 -0.965201,6.31717 0.453678,11.213693 1.79819,6.205524 0.484665,-1.805326 2.171705,-5.808508 3.748977,-8.89596 z M 188,52.816851 c 0,-2.331634 -2.47771,-5.18504 -9.2622,-10.666666 -5.09422,-4.115936 -9.78734,-7.483519 -10.42915,-7.483519 -0.64183,0 -3.52383,-1.783308 -6.40447,-3.962906 C 156.64569,26.724984 152,25.476377 152,28.041846 c 0,0.756348 1.05,1.743874 2.33333,2.1945 6.48184,2.276017 24.75071,15.811135 27.74671,20.557107 C 185.82044,56.718635 188,57.463592 188,52.816851 Z M 42.192118,36.076051 c 7.227668,-3.624837 11.941214,-6.615803 10.474548,-6.64659 -3.207869,-0.06734 -10.744937,2.534341 -15.333333,5.29283 -1.833334,1.102179 -4.497622,2.633419 -5.920642,3.402758 -2.360097,1.275958 -4.516066,4.541617 -2.99835,4.541617 0.350109,0 6.550109,-2.965776 13.777777,-6.590615 z M 67.999999,24 c 0,-0.733334 -0.564589,-1.333334 -1.254644,-1.333334 -0.690055,0 -1.625464,0.6 -2.078689,1.333334 -0.453226,0.733333 0.11136,1.333333 1.254644,1.333333 1.143278,0 2.078689,-0.6 2.078689,-1.333333 z m 38.895011,-3.539984 c 3.99521,-3.615618 3.0278,-5.795756 -2.56168,-5.772932 -2.75,0.0112 -5.876141,0.574598 -6.946981,1.251933 -1.666268,1.053959 -1.588415,1.627729 0.539984,3.979583 3.007137,3.322844 5.714627,3.486289 8.968677,0.541416 z"
       id="path231" />
  </g>
</svg>
