<?xml version="1.0" encoding="UTF-8" standalone="no"?>
<!-- Created with Inkscape (http://www.inkscape.org/) -->

<svg
   version="1.1"
   id="svg193"
   width="134.66667"
   height="296"
   viewBox="0 0 134.66667 296"
   xmlns="http://www.w3.org/2000/svg"
   xmlns:svg="http://www.w3.org/2000/svg">
  <defs
     id="defs197" />
  <g
     id="g199">
    <path
       style="fill:#000000;stroke-width:1.33333"
       d="M 24.337871,290.33333 C 19.483554,284.21333 18.38079,258.95477 17.9491,144 17.580143,45.750495 17.667228,47.000561 10.70684,40.040173 7.2232302,36.556563 4.0000001,30.087457 4.0000001,26.579373 c 0,-3.377604 8.7507149,-11.912706 12.2136439,-11.912706 1.29756,0 2.95738,-1.11771 3.688488,-2.4838 1.417722,-2.6490346 5.360922,-4.523115 14.333414,-6.8122257 4.583638,-1.1694024 6.419152,-1.0152949 10.374884,0.8710622 5.276394,2.5161366 6.786285,5.9731355 5.573938,12.7619155 -2.447729,13.706565 -2.463977,13.484032 1.402896,19.214301 2.060339,3.053191 7.158931,9.653191 11.330203,14.666667 4.171272,5.013477 10.963377,13.315413 15.093567,18.448746 4.130189,5.133334 9.417329,11.679226 11.749202,14.546426 2.331872,2.867201 4.719288,6.449272 5.305369,7.960156 0.586081,1.510884 2.536081,4.67496 4.333333,7.031275 1.797252,2.35632 3.267732,4.84674 3.267732,5.53426 0,0.68752 1.73854,5.37756 3.86341,10.4223 2.12488,5.04474 4.78067,12.17225 5.90175,15.83892 1.12109,3.66666 3.59881,11.16666 5.50606,16.66666 5.61318,16.18698 5.90986,17.41458 7.41128,30.66667 2.59512,22.90561 3.18224,34.94803 3.25028,66.66667 0.0724,33.74102 -0.65704,40.55676 -4.56423,42.64781 -4.22974,2.26369 -6.3921,-1.38692 -6.47193,-10.92631 C 117.52468,273.77468 116.59243,264.6 115.49161,258 c -1.10081,-6.6 -2.36389,-17.1 -2.80683,-23.33333 -1.09189,-15.3655 -6.01225,-38.60995 -8.86733,-41.89051 -2.22713,-2.559 -22.754784,-8.5544 -39.656983,-11.58237 -3.945078,-0.70675 -8.37871,-1.93035 -9.852516,-2.7191 -4.663856,-2.49602 -10.640731,-3.7753 -13.86159,-2.96692 -2.383917,0.59832 -3.113027,1.70484 -3.113027,4.72443 0,2.16871 -0.5203,4.95367 -1.156222,6.18879 -0.635922,1.23512 -1.631082,21.74568 -2.211466,45.57901 -0.883483,36.27999 -1.406833,52.61784 -1.889948,59 -0.12544,1.65709 -6.317823,1.12359 -7.737827,-0.66667 z M 98.018142,161.68345 c -0.525684,-4.20742 -2.087077,-11.25742 -3.469762,-15.66666 -1.382686,-4.40923 -2.521715,-8.95366 -2.531176,-10.09871 -0.0095,-1.14505 -1.217202,-3.36997 -2.683868,-4.94425 -1.466667,-1.57428 -2.666667,-3.19665 -2.666667,-3.60526 0,-0.40861 -2.017939,-3.8837 -4.484308,-7.72242 -2.46637,-3.83871 -6.011639,-9.69293 -7.878376,-13.00938 -1.866739,-3.31644 -4.819814,-7.516435 -6.56239,-9.333329 -1.742576,-1.816892 -5.985265,-7.52965 -9.428199,-12.695016 -6.564519,-9.848622 -13.744434,-17.62183 -15.060875,-16.305389 -1.182077,1.182076 -6.298595,56.431754 -6.201345,66.963974 0.150556,16.30555 0.577545,17.23635 9.806953,21.37826 4.473764,2.0077 10.090832,3.83224 12.482374,4.0545 2.39154,0.22227 6.188489,1.35575 8.437664,2.51884 2.249175,1.1631 5.469204,2.14859 7.155622,2.18998 1.686417,0.0415 5.166213,0.86981 7.73288,1.84092 2.566666,0.97112 7.2858,1.83725 10.486964,1.92474 l 5.820299,0.15908 z"
       id="path370" />
  </g>
</svg>
