<?xml version="1.0" encoding="UTF-8" standalone="no"?>
<!-- Created with Inkscape (http://www.inkscape.org/) -->

<svg
   version="1.1"
   id="svg183"
   width="224"
   height="204"
   viewBox="0 0 224 204"
   xmlns="http://www.w3.org/2000/svg"
   xmlns:svg="http://www.w3.org/2000/svg">
  <defs
     id="defs187" />
  <g
     id="g189">
    <path
       style="fill:#000000;stroke-width:1.33333"
       d="m 195.8028,198.02501 c -0.35291,-0.3529 -32.40291,-0.88641 -71.22223,-1.18557 -51.842983,-0.39953 -71.516953,-0.97708 -74.107729,-2.17548 -4.09005,-1.89191 -9.05313,-8.14532 -10.368696,-13.0644 -0.890988,-3.33153 -1.202073,-3.41648 -12.84196,-3.50691 C 13.267963,177.98399 7.5505051,175.84763 6.9279677,170.4948 6.6369087,167.99215 7.8588376,165.59247 11.261301,161.98481 13.867585,159.22135 16,156.24343 16,155.36723 c 0,-0.8762 -1.8,-3.19691 -4,-5.15712 -4.4925116,-4.00284 -4.9719517,-6.38102 -1.904762,-9.4482 4.826958,-4.82696 13.373754,-1.58768 19.855599,7.52536 l 2.166578,3.04606 3.60796,-4.21036 c 3.469717,-4.04902 10.559014,-8.4563 13.602352,-8.4563 2.167066,0 8.005606,6.2371 8.005606,8.5521 0,2.69974 -6.714245,8.78123 -9.694889,8.78123 -3.677211,0 -4.48144,4.00545 -1.305883,6.50395 3.417764,2.68905 8.334106,11.85794 8.334106,15.54297 0,8.19873 8.153397,7.78475 18,-0.91393 2.2,-1.94352 8.155889,-5.17707 13.235309,-7.18564 8.514936,-3.36711 10.205269,-3.58826 21.670354,-2.83514 7.40063,0.48614 14.99763,1.85319 18.76469,3.37667 31.1887,12.61333 41.43446,14.98863 63.65905,14.75815 18.0697,-0.18739 19.27434,0.21081 19.31685,6.3854 0.0288,4.192 -10.65529,9.24742 -13.51012,6.39258 z M 75.607108,128.74997 C 70.992361,124.13522 71.547721,117.34954 77.960089,100 84.370753,82.655065 106.27122,72.504372 126.84521,77.342132 c 9.8655,2.319769 12.8052,4.019956 20.48812,11.849333 8.79452,8.962178 16.83307,27.982825 14.68562,34.748835 -1.22887,3.87181 -9.58462,5.65684 -25.24852,5.39384 -7.39041,-0.1241 -23.6648,0.2044 -36.16532,0.72999 -20.415691,0.85838 -22.959174,0.72466 -24.998002,-1.31416 z M 139,115.34372 c 6.26961,-0.80495 7.66667,-1.44169 7.66667,-3.49427 0,-4.27956 -8.93467,-15.203021 -16.05587,-19.629806 C 118.03659,84.403085 103.05499,87.450236 92.357969,100 c -4.126621,4.84136 -6.896306,14.432 -4.580621,15.86139 1.786192,1.10256 41.748702,0.69869 51.222652,-0.51767 z M 96,61.23676 C 89.033333,60.764593 79.583333,59.693163 75,58.855804 70.416667,58.018445 62.949029,56.685513 58.405251,55.893735 c -4.543779,-0.79178 -10.519876,-2.59178 -13.280216,-4 -2.76034,-1.408222 -5.981474,-2.560402 -7.158075,-2.560402 -3.652127,0 -28.0733808,-10.305945 -30.7495825,-12.976545 C 6.3117151,35.453021 5.8972484,33.464924 6.2963403,31.938795 7.1547909,28.656075 22.784728,20.929869 36,17.255653 40.766667,15.930385 48.122248,13.885543 52.345736,12.711557 60.97844,10.31196 75.597272,8.6099215 104,6.6975636 c 24.95258,-1.6800591 54.63728,1.1848091 74.33333,7.1739054 3.85,1.170692 9.85,2.939624 13.33334,3.93096 3.48333,0.991336 10.65996,3.98711 15.94806,6.657274 14.95574,7.551722 15.95288,12.581136 3.68706,18.596857 -4.04848,1.985559 -7.95411,3.610107 -8.67919,3.610107 -0.72508,0 -3.86179,1.147009 -6.97047,2.548909 -3.10866,1.4019 -10.75213,3.483408 -16.98546,4.625575 -6.23334,1.142166 -14.63334,2.729797 -18.66667,3.528068 -20.24239,4.006341 -42.29198,5.338805 -64,3.867541 z m 45.64192,-13.394356 c 40.86644,-6.286903 57.69141,-10.146676 57.69141,-13.234835 0,-2.394886 -18.0733,-8.644034 -30.61121,-10.584341 -5.16384,-0.799131 -13.28879,-2.158791 -18.05545,-3.021469 C 142.59076,19.540171 96.903121,19.190911 80.666667,20.466643 77,20.75474 65.3,22.905201 54.666667,25.245445 c -26.261806,5.779847 -25.333334,5.50216 -25.333334,7.576658 0,1.01451 0.158471,1.844564 0.352156,1.844564 0.193686,0 3.635216,1.2 7.647844,2.666666 C 41.345961,38.8 46.167492,40 48.047844,40 c 1.880352,0 3.988823,0.497692 4.685489,1.105983 1.55584,1.358472 14.223267,3.586852 31.933334,5.617526 C 92,47.564365 98.9,48.425961 100,48.638168 c 5.42864,1.047263 33.09892,0.518493 41.64192,-0.795764 z"
       id="path509" />
  </g>
</svg>
