<?xml version="1.0" encoding="UTF-8" standalone="no"?>
<!-- Created with Inkscape (http://www.inkscape.org/) -->

<svg
   version="1.1"
   id="svg173"
   width="148"
   height="210.66667"
   viewBox="0 0 148 210.66667"
   xmlns="http://www.w3.org/2000/svg"
   xmlns:svg="http://www.w3.org/2000/svg">
  <defs
     id="defs177" />
  <g
     id="g179">
    <path
       style="fill:#000000;stroke-width:1.33333"
       d="m 34.773187,204.70035 c -6.314028,-2.28207 -14.272743,-11.22355 -16.13035,-18.12217 -5.459453,-20.27487 12.528966,-37.56595 33.323644,-32.03184 12.153054,3.23432 18.316754,13.51028 16.986986,28.32028 -0.871599,9.70722 -4.69143,14.92996 -14.582111,19.93764 -8.140628,4.12162 -12.321408,4.52612 -19.598169,1.89609 z m 11.89348,-15.17929 C 46.666667,187.08687 35.640805,176 33.220017,176 c -4.080718,0 -3.029785,2.01226 4.44665,8.5141 6.966964,6.0588 9,7.18984 9,5.00696 z m 7.955641,-9.18772 c -0.07405,-1.6693 -4.956907,-7 -6.411905,-7 -0.749184,0 -2.643864,-1.8 -4.210403,-4 -2.946841,-4.13846 -5.333333,-5.20304 -5.333333,-2.37914 0,2.1801 12.11766,14.37914 14.28321,14.37914 0.944235,0 1.696828,-0.45 1.672431,-1 z m 66.518312,-40.60971 c -5.27832,-4.87964 -7.78788,-11.56543 -7.79985,-20.77984 -0.004,-3.14758 -0.95398,-10.3054 -2.11087,-15.90627 -1.15689,-5.600868 -1.73475,-12.148711 -1.28412,-14.550764 0.73875,-3.937879 0.38834,-4.590237 -3.56323,-6.633637 -2.4104,-1.246447 -5.88255,-3.371027 -7.715883,-4.72129 -2.220175,-1.635173 -6.854702,-2.750648 -13.878011,-3.34027 -10.338953,-0.867979 -10.529988,-0.829086 -9.79184,1.993601 0.970243,3.710211 -0.972605,4.824951 -7.626324,4.375723 C 60.879216,79.722624 56,76.836577 56,73.435261 56,71.205536 54.652293,70.873384 43.666667,70.395618 36.883333,70.10061 31.128335,69.995909 30.877781,70.16295 c -0.250553,0.16704 0.135743,1.360295 0.858436,2.651676 0.874567,1.562763 0.843867,3.37977 -0.0918,5.433337 -1.305798,2.865912 -2.196697,3.085372 -12.525104,3.085372 -6.115622,0 -11.1495495,-0.45 -11.1865054,-1 -0.036956,-0.55 -0.3573437,-4.460171 -0.7119732,-8.689267 C 6.4613568,62.586997 7.6581135,57.456765 14.913649,38.666667 21.875689,20.636655 27.384477,9.7501904 30.327185,8.2064449 33.879225,6.3430434 97.342841,7.1976868 101.0062,9.1582556 c 3.05801,1.6365964 4.16271,7.6403584 1.88449,10.2417444 -0.61012,0.696667 -2.48228,4.566667 -4.160355,8.6 -1.678078,4.033334 -5.078888,12.110698 -7.557359,17.949699 -2.478471,5.839002 -4.506309,11.142826 -4.506309,11.786277 0,2.098926 5.926102,6.17423 9.044325,6.219666 1.674379,0.0244 5.874378,1.470432 9.333338,3.213411 C 112.73749,71.045664 120,72.795558 120,70.772608 c 0,-0.7916 0.9,-1.439274 2,-1.439274 1.33333,0 2,1.333334 2,4 0,2.200001 0.58117,4.000001 1.29149,4.000001 0.71032,0 0.94826,0.894414 0.52878,1.987588 -0.42083,1.096658 1.421,5.277498 4.10898,9.327102 9.26064,13.951745 13.3151,24.348085 13.85043,35.514925 0.46093,9.61484 0.28225,10.39231 -3.31291,14.41567 -2.695,3.01597 -5.35109,4.45404 -9.13344,4.94502 -4.6833,0.60794 -5.9256,0.14479 -10.19271,-3.80001 z m 11.44549,-11.32784 c 2.26852,-5.91164 -3.06155,-25.69742 -8.03437,-29.824506 -1.60179,-1.329364 -1.88432,0.313492 -1.88009,10.932126 0.004,10.1051 0.5106,13.32587 2.64707,16.82993 2.8945,4.74732 5.90884,5.60278 7.26739,2.06245 z M 38.428991,49.573661 c 1.597388,-3.534487 2.904342,-7.116236 2.904342,-7.959444 0,-0.843208 1.2,-3.669606 2.666667,-6.280883 3.297989,-5.871795 3.707081,-11.189987 0.666667,-8.666667 -1.1,0.912919 -2,2.470335 -2,3.460924 0,0.990589 -1.153159,4.367123 -2.562575,7.503408 -7.177408,15.971427 -7.918139,18.369002 -5.675101,18.369002 0.602612,0 2.402612,-2.891853 4,-6.42634 z m 12.252348,2.093006 c 3.968514,-10.288138 5.89522,-14.333333 6.826894,-14.333333 0.547272,0 1.401035,-2.707377 1.897254,-6.016396 0.496217,-3.309018 1.432981,-6.344427 2.081697,-6.745356 1.797151,-1.1107 1.406095,-3.238248 -0.595211,-3.238248 -0.976081,0 -2.390885,1.35 -3.144006,3 -0.753123,1.65 -2.654511,5.6067 -4.225307,8.792668 -1.570796,3.185967 -2.869335,6.785967 -2.885641,8 -0.01631,1.214032 -1.202964,3.707332 -2.637019,5.540665 -3.027095,3.869919 -3.512028,9.333334 -0.828427,9.333334 1.011031,0 2.590426,-1.95 3.509766,-4.333334 z m 24.983208,-2 C 82.266781,34.663634 84.010231,28 81.333333,28 80.6,28 80,29.08 80,30.4 c 0,1.320001 -0.5261,2.970001 -1.169109,3.666667 -0.958751,1.038754 -8.164224,20.008597 -8.164224,21.493945 0,0.241664 0.497437,0.439389 1.105417,0.439389 0.607979,0 2.359588,-2.85 3.892463,-6.333334 z m -49.676771,2.346842 c 2.503209,-2.766016 4.587801,-16.025318 2.515196,-15.998211 -1.527263,0.01997 -5.428132,8.792449 -6.366823,14.318036 -0.842238,4.957827 0.396403,5.498154 3.851627,1.680175 z m 37.902703,-1.666947 c 1.025898,-1.642725 3.48496,-7.792725 5.464581,-13.666667 1.979621,-5.873943 4.048771,-11.729895 4.598111,-13.013228 0.582722,-1.361321 0.42479,-2.333333 -0.37912,-2.333333 -0.757856,0 -2.981986,3.27859 -4.942508,7.285756 -1.960524,4.007165 -4.748047,7.661371 -6.194495,8.120456 -1.446448,0.459084 -2.3334,1.607381 -1.971003,2.551771 0.362396,0.944388 0.184215,2.240184 -0.395958,2.879544 -1.198227,1.320464 -0.238586,11.162473 1.088392,11.162473 0.476701,0 1.706101,-1.344048 2.732,-2.986772 z M 35.577485,23.75 c -0.425634,-1.063644 -0.741577,-0.747701 -0.805556,0.805556 -0.05789,1.405555 0.257238,2.193055 0.700294,1.75 C 35.915277,25.8625 35.962647,24.7125 35.577489,23.75 Z"
       id="path648" />
  </g>
</svg>
