<?xml version="1.0" encoding="UTF-8" standalone="no"?>
<!-- Created with Inkscape (http://www.inkscape.org/) -->

<svg
   version="1.1"
   id="svg83"
   width="278.66666"
   height="246.66667"
   viewBox="0 0 278.66666 246.66667"
   xmlns="http://www.w3.org/2000/svg"
   xmlns:svg="http://www.w3.org/2000/svg">
  <defs
     id="defs87" />
  <g
     id="g89">
    <path
       style="fill:#000000;stroke-width:1.33333"
       d="m 119.86689,241.40804 c -21.80925,-0.8306 -23.866892,-1.61212 -23.866892,-9.06498 0,-9.20843 10.682462,-20.77791 24.000002,-25.99284 5.46226,-2.13894 7.09083,-2.18876 18.17133,-0.55602 12.04632,1.77508 16.37596,3.69228 24.24813,10.73728 7.57087,6.77536 9.25916,20.08092 2.91387,22.96428 -4.54176,2.06382 -22.09861,2.80224 -45.46644,1.91228 z M 158,228.76002 c 0,-1.67394 -2.31036,-3.93075 -6.61028,-6.45711 -9.42591,-5.53804 -22.68277,-6.495 -32.35213,-2.33535 C 113.35951,222.4102 108,227.18128 108,229.7933 c 0,0.30458 8.19395,0.61964 18.20877,0.70013 10.01483,0.0805 18.54249,0.48005 18.95036,0.88793 0.40787,0.40787 3.46392,0.56392 6.79123,0.34678 C 156.90158,231.40502 158,230.86611 158,228.76002 Z m -103.29942,5.94057 c -4.435736,-4.43575 -4.851745,-8.7278 -2.071024,-21.36725 0.40334,-1.83334 0.371344,-2.5673 -0.07111,-1.63102 -0.442445,0.93627 -3.090612,2.86863 -5.884815,4.29412 -5.052014,2.57735 -5.099523,2.57675 -8.511531,-0.1072 -4.250452,-3.34341 -7.07012,-12.52198 -4.717573,-15.35662 1.859682,-2.24079 1.885797,-2.2097 -3.733532,-4.44596 -4.855533,-1.93231 -6.523577,-5.41039 -4.451537,-9.28204 2.531253,-4.72968 1.601994,-7.75968 -3.259468,-10.62802 -3.92814,-2.31765 -4.666667,-3.49621 -4.666667,-7.44713 0,-4.13719 0.574688,-4.93387 4.846612,-6.71879 2.665637,-1.11377 9.115637,-2.07897 14.333333,-2.14488 7.183645,-0.0907 10.134104,-0.70832 12.153388,-2.5439 2.485881,-2.25975 10.960113,-5.37891 19.785349,-7.28251 2.081941,-0.44908 6.759201,-3.79035 10.39391,-7.42507 C 86.516062,134.94426 91.603963,132 97.188428,132 c 2.193139,0 4.381222,-0.63701 4.862402,-1.41558 0.48118,-0.77856 2.31659,-1.96371 4.07869,-2.63366 1.76209,-0.66995 3.20381,-2.14312 3.20381,-3.2737 0,-1.13059 -8.55,-10.42428 -18.999999,-20.65264 C 79.883331,93.796053 67.133332,81.198272 61.999999,76.029348 56.442032,70.432846 49.189499,64.794013 44.070532,62.089217 39.145139,59.486702 34.020873,55.546349 32.070533,52.861703 30.198406,50.284719 25.258113,43.698459 21.092102,38.22557 14.095556,29.034203 6.6666665,16.348108 6.6666665,13.591679 c 0,-0.640001 1.6053646,-1.895092 3.5674765,-2.78909 4.647981,-2.1177617 25.836611,1.70678 31.920632,5.761666 2.285128,1.522993 7.511381,4.996436 11.613898,7.718761 4.549919,3.019211 8.48278,6.919406 10.083755,10 1.443548,2.777675 7.467293,10.139623 13.386101,16.359885 5.918808,6.220261 10.761469,12.134289 10.761469,13.142284 0,1.007995 2.85,4.629785 6.333333,8.048421 3.483333,3.418638 7.997749,8.720534 10.032039,11.781992 5.42957,8.171111 17.20302,17.794722 21.82839,17.842512 15.22506,0.15729 16.37438,-0.0982 19.46902,-4.328071 1.65214,-2.258198 6.60388,-6.541138 11.00388,-9.517646 4.4,-2.976508 10.4618,-7.406959 13.47066,-9.845445 3.00886,-2.438488 6.00726,-4.433614 6.6631,-4.433614 1.69343,0 13.65786,-13.242943 14.57494,-16.13242 0.83269,-2.623559 9.59368,-11.86758 11.24745,-11.86758 0.56256,0 2.66671,-2.55 4.67591,-5.666667 5.11434,-7.933401 22.42761,-24.057692 29.76787,-27.723598 6.45923,-3.2258939 13.1626,-5.0619969 22.63196,-6.1990552 6.3154,-0.7583387 8.68296,0.5478199 11.75255,6.4837322 1.70347,3.294157 1.6988,4.534061 -0.0381,10.09711 -1.08903,3.487996 -2.65112,8.98662 -3.47132,12.219167 -1.69946,6.697788 -5.67767,10.931351 -16.07382,17.105487 -3.99721,2.373897 -10.23016,7.323897 -13.85098,11 -3.62079,3.676103 -7.32255,6.683824 -8.2261,6.683824 -0.90354,0 -6.27233,3.934356 -11.93064,8.743012 -5.65829,4.808658 -11.99158,9.624066 -14.07397,10.700907 -2.0824,1.076843 -3.78617,2.487422 -3.78617,3.13462 0,2.346238 -12.41352,13.878837 -16.48796,15.317897 -4.87196,1.72075 -20.84538,13.89658 -20.84538,15.88952 0,0.74693 0.68191,3.24385 1.51536,5.54871 1.1901,3.29114 2.7252,4.54788 7.15176,5.85488 5.24352,1.54823 9.70218,5.72222 11.60822,10.86706 0.41905,1.13113 4.87854,4.82384 9.90996,8.20602 14.71105,9.88894 20.85999,17.44307 24.98542,30.69524 0.39228,1.26016 2.83936,3.17955 5.43793,4.2653 4.05026,1.6923 4.72728,2.60237 4.74288,6.37546 0.0107,2.42076 0.35974,5.67388 0.77715,7.22916 0.91037,3.39207 -6.14365,12.12386 -10.7228,13.27315 -2.55505,0.64128 -15.64994,-2.64413 -24.07254,-6.03961 -1.46667,-0.59128 -3.9668,-1.59696 -5.55584,-2.23486 -6.72595,-2.69998 -23.11083,-21.16689 -23.11083,-26.04749 0,-0.88404 -2.28081,-4.34597 -5.06847,-7.69316 -2.78765,-3.3472 -6.04889,-8.19481 -7.2472,-10.77248 -2.98944,-6.43055 -7.2583,-9.95519 -14.37293,-11.86719 -5.35866,-1.44009 -6.75382,-1.30604 -12.66667,1.21704 -3.6546,1.55947 -8.44473,4.52723 -10.64473,6.59502 -2.2,2.06778 -6.4,5.24468 -9.33333,7.05974 -2.93334,1.81508 -9.003981,7.7399 -13.490325,13.16626 -7.409854,8.96244 -7.993269,10.11269 -6.369542,12.55816 1.506137,2.26836 1.478385,3.28776 -0.176344,6.47725 -1.080086,2.08187 -1.97471,4.46663 -1.988054,5.29947 -0.01335,0.83284 -1.663345,4.01868 -3.666666,7.07962 -2.003323,3.06096 -5.442404,8.71831 -7.642404,12.57188 -4.816668,8.437 -10.364541,14.52942 -13.230769,14.52942 -1.156411,0 -3.287303,-1.18474 -4.735316,-2.63275 z"
       id="path787" />
  </g>
</svg>
