<?xml version="1.0" encoding="UTF-8" standalone="no"?>
<!-- Created with Inkscape (http://www.inkscape.org/) -->

<svg
   version="1.1"
   id="svg199"
   width="196"
   height="212"
   viewBox="0 0 196 212"
   xmlns="http://www.w3.org/2000/svg"
   xmlns:svg="http://www.w3.org/2000/svg">
  <defs
     id="defs203" />
  <g
     id="g205">
    <path
       style="fill:#000000;stroke-width:1.33333"
       d="m 28,205.47135 c -2.566667,-0.55844 -7.477483,-0.73902 -10.912925,-0.40127 -5.85402,0.57551 -6.406543,0.35051 -8.7987098,-3.58309 -5.3186145,-8.74576 -4.6129581,-59.45096 0.9176785,-65.94014 1.9194533,-2.25212 4.1371933,-2.41601 27.0630493,-2 21.832915,0.39618 25.271375,0.75286 27.351584,2.8372 2.1216,2.12582 2.398624,5.44756 2.557512,30.66667 0.221399,35.14087 0.206827,35.22997 -6.035945,36.91097 C 53.4193,205.772 33.649589,206.70053 28,205.47135 Z m 22.578417,-10.72192 c 2.308835,-1.46102 4.660015,-34.4636 3.018223,-42.3656 -0.943269,-4.53999 -1.537188,-5.08624 -6.623804,-6.09216 -3.073193,-0.60776 -10.505475,-0.622 -16.51618,-0.0317 l -10.928553,1.07334 -1.567799,6.97634 c -1.406848,6.26015 -0.482751,31.73226 1.35108,37.24158 1.045225,3.14014 27.140627,5.80933 31.267033,3.19817 z m 51.447443,-0.91404 c -3.647971,-3.64798 -2.397753,-11.29471 3.9513,-24.1674 4.33256,-8.78428 7.5426,-13.38391 11.66666,-16.71708 8.81312,-7.12298 11.39603,-8.00922 25.2927,-8.67839 13.88375,-0.66855 17.01852,0.16036 27.50644,7.27331 6.11507,4.14725 14.6446,14.34401 15.77879,18.863 0.4712,1.87738 1.66037,4.95342 2.6426,6.83564 2.06453,3.95614 2.36786,12.54077 0.56233,15.91444 -1.13392,2.11874 -4.83839,2.33341 -43.30747,2.50964 -36.03068,0.16505 -42.3582,-0.098 -44.09335,-1.83316 z m 73.50354,-12.79336 c 2.06501,-2.06502 2.04304,-2.45851 -0.32365,-5.79579 -1.3965,-1.9692 -3.43908,-4.91828 -4.53908,-6.55352 -5.21039,-7.74567 -17.49003,-14.02605 -27.42426,-14.02605 -10.72325,0 -26.08377,12.34358 -27.69184,22.25292 -0.43111,2.65666 -0.43728,5.39104 -0.0137,6.07641 0.45424,0.73497 12.462,1.04417 29.27362,0.75379 24.35722,-0.42071 28.82574,-0.81459 30.7189,-2.70776 z M 86.339003,135.89637 c -1.280215,-0.74573 -2.705088,-3.71615 -3.166386,-6.60095 -0.983896,-6.15294 -1.44675,-6.57748 -11.529592,-10.57521 C 60.049084,114.12335 47.689157,104.16473 43.444321,96 41.653803,92.556027 37.203641,74.687855 34.644371,60.666667 31.112129,41.314975 30.174984,37.657393 27.277945,31.916248 23.546223,24.520989 21.905003,23.086821 13.893827,20.220637 5.8652967,17.348245 3.2051872,13.728104 6.0932419,9.6048285 9.1473989,5.2444087 14.546215,5.9048317 26.772592,12.13448 c 12.336649,6.285835 20.600476,13.512771 21.988175,19.229244 0.530002,2.183285 2.310192,6.796217 3.955978,10.25096 1.645787,3.454744 3.689488,9.454744 4.541559,13.333333 2.863403,13.034092 5.682961,21.172647 8.588639,24.790799 1.587682,1.976985 3.752117,5.298893 4.809853,7.38202 C 72.579829,90.908099 80.646055,96 84.722531,96 c 1.189153,0 5.701564,2.074424 10.027578,4.60983 l 7.865481,4.60983 13.09702,-6.475181 c 11.22771,-5.551 13.8956,-7.532907 18.6922,-13.885958 C 137.48216,80.782599 140,76.182563 140,74.63622 c 0,-1.546341 0.71792,-4.122085 1.59537,-5.723875 C 142.47283,67.310555 144.00205,60.6 144.99365,54 c 2.16082,-14.382165 2.26599,-16.461748 1.02448,-20.258104 -1.20841,-3.695184 4.14126,-9.440441 9.85439,-10.583067 2.16739,-0.433477 5.28731,-2.221545 6.93317,-3.973484 C 164.45156,17.433405 166.57564,16 167.52588,16 c 0.95023,0 5.26987,-1.8 9.59919,-4 9.21346,-4.6819472 12.90686,-5.0106899 14.8797,-1.324413 1.17356,2.19282 0.8321,3.275425 -1.89248,6 C 188.28387,18.504015 185.90664,20 184.82957,20 c -3.58337,0 -9.77136,6.519828 -12.74202,13.425347 -3.14464,7.30992 -5.56339,18.207605 -6.19418,27.907986 -1.02001,15.685819 -9.98089,41.448467 -16.40166,47.154977 -1.18711,1.05505 -6.76472,3.84166 -12.39471,6.19246 -11.60513,4.84573 -14.87917,7.73672 -17.36,15.32894 -1.69041,5.17326 -1.94662,5.34814 -9.0716,6.19176 -11.231513,1.32985 -21.746031,1.19797 -24.326397,-0.3051 z m 13.703077,-10.9055 C 98.787295,117.5025 89.931461,108 84.207479,108 c -1.58078,0 -2.874146,0.15233 -2.874146,0.33852 0,0.18619 3.75,4.34447 8.333334,9.24063 7.368829,7.87176 10.871803,10.37413 10.375413,7.41172 z M 110.23902,123 c 2.12424,-6.02991 7.50091,-10.81808 18.03518,-16.06119 10.74679,-5.34888 19.81553,-12.626851 17.99823,-14.444167 -0.47659,-0.476579 -3.0347,0.867162 -5.6847,2.986092 -5.68956,4.549355 -7.77372,5.738095 -19.2861,11.000165 -10.12635,4.62856 -13.13329,7.52752 -14.61298,14.08828 -0.84316,3.73846 -0.66512,4.76415 0.82694,4.76415 1.04579,0 2.27133,-1.05 2.72343,-2.33333 z M 63.582788,97.593708 C 61.612255,95.536915 60,93.241503 60,92.492793 60,91.744084 58.5,89.722327 56.666667,88 c -2.885695,-2.710969 -3.333334,-2.816216 -3.333334,-0.783723 0,3.817922 8.128783,14.117053 11.142148,14.117053 2.485716,0 2.417895,-0.28411 -0.892693,-3.739622 z"
       id="path227" />
  </g>
</svg>
