<?xml version="1.0" encoding="UTF-8" standalone="no"?>
<!-- Created with Inkscape (http://www.inkscape.org/) -->

<svg
   version="1.1"
   id="svg189"
   width="224"
   height="208"
   viewBox="0 0 224 208"
   xmlns="http://www.w3.org/2000/svg"
   xmlns:svg="http://www.w3.org/2000/svg">
  <defs
     id="defs193" />
  <g
     id="g195">
    <path
       style="fill:#000000;stroke-width:1.33333"
       d="m 112.10652,200.70035 c -6.31403,-2.28207 -14.272743,-11.22355 -16.130349,-18.12218 -5.459454,-20.27486 12.528969,-37.56594 33.323639,-32.03184 12.15306,3.23432 18.31676,13.51028 16.98699,28.32028 -0.8716,9.70723 -4.69143,14.92996 -14.58211,19.93764 -8.14063,4.12163 -12.32141,4.52612 -19.59817,1.8961 z M 124,185.52105 C 124,183.08687 112.97414,172 110.55335,172 c -4.08072,0 -3.02978,2.01225 4.44665,8.51409 6.96696,6.0588 9,7.18984 9,5.00696 z m 7.95564,-9.18772 c -0.074,-1.66929 -4.95691,-7 -6.4119,-7 -0.74919,0 -2.64387,-1.8 -4.21041,-4 C 118.38649,161.19488 116,160.13029 116,162.9542 c 0,2.18009 12.11766,14.37913 14.28321,14.37913 0.94424,0 1.69683,-0.45 1.67243,-1 z M 81.333333,131.2776 C 75.1,130.18275 67,128.75808 63.333333,128.11165 52.735971,126.24336 39.75558,122.52693 34.386451,119.82384 c -2.720786,-1.36978 -5.939092,-2.49051 -7.151794,-2.49051 -1.212701,0 -4.386605,-1.11812 -7.053117,-2.48473 -2.666513,-1.3666 -7.046933,-3.43244 -9.734265,-4.59076 -5.2971122,-2.2832 -7.342969,-6.09286 -5.3109561,-9.88971 1.4172363,-2.648135 17.3076531,-11.034797 20.9078961,-11.034797 1.249817,0 5.951158,-1.173776 10.447424,-2.60839 C 49.931911,82.436581 62.695908,79.678964 74,78.621393 c 5.866667,-0.548865 16.887157,-1.743492 24.48998,-2.654726 13.87446,-1.66292 18.52355,-1.41142 50.84335,2.750452 14.49616,1.866693 17.43199,2.525977 33.33334,7.48549 17.16101,5.352398 28.48005,10.089824 33.08808,13.848561 2.31733,1.89023 2.98289,3.61198 2.66666,6.89839 -0.40752,4.23511 -0.8829,4.56105 -14.42141,9.88792 -24.68139,9.71116 -53.23055,14.79628 -88.66667,15.79311 -16.615054,0.46739 -25.692469,0.10617 -33.999997,-1.35299 z M 140.66667,117.36276 C 148,116.49025 156.7,114.86593 160,113.75318 c 3.3,-1.11276 11.86225,-2.49915 19.02724,-3.08087 C 196.04188,109.2909 200.19804,106.44308 191,102.46852 165.00539,91.236025 99.854384,86.739597 67.096939,93.917293 62.093623,95.013603 54.1,96.547501 49.333333,97.325959 c -11.531157,1.883184 -19.917878,4.301851 -21.491549,6.198011 -1.463077,1.7629 5.418877,4.53045 17.491549,7.03414 4.033334,0.83645 9.433334,2.04408 12,2.68362 14.19096,3.53597 19.09379,4.41702 30,5.39108 14.810307,1.32274 35.727987,0.82462 53.333337,-1.27005 z M 72.046912,57.420988 C 69.640424,52.924427 70.502176,43.370423 74.03472,35.382716 77.666731,27.170092 88.813091,14.380592 95.315164,10.965213 101.8811,7.5162876 118.37907,5.6646631 124.45732,7.6944883 c 19.56371,6.5332887 34.16236,23.2043027 34.19632,39.0506717 0.0217,10.140501 -1.32859,10.977593 -19.49713,12.086679 -8.70275,0.53125 -27.05207,1.011418 -40.776265,1.067036 -23.362124,0.09468 -25.04109,-0.06331 -26.333333,-2.477887 z M 143.44888,47.185192 c 3.92945,-0.986232 3.96687,-1.791977 0.41343,-8.904976 -3.3602,-6.726173 -6.04451,-9.092383 -16.38675,-14.444865 l -7.85778,-4.066683 -10.02784,2.018824 c -8.88342,1.788428 -10.704533,2.695523 -15.957316,7.948305 -4.406084,4.406084 -6.203327,7.427034 -6.995369,11.758375 -0.733727,4.012444 -0.583596,6.151908 0.481761,6.865427 1.709015,1.144605 51.201424,0.112746 56.329864,-1.174407 z"
       id="path366" />
  </g>
</svg>
