<?xml version="1.0" encoding="UTF-8" standalone="no"?>
<!-- Created with Inkscape (http://www.inkscape.org/) -->

<svg
   version="1.1"
   id="svg179"
   width="74.666664"
   height="216"
   viewBox="0 0 74.666664 216"
   xmlns="http://www.w3.org/2000/svg"
   xmlns:svg="http://www.w3.org/2000/svg">
  <defs
     id="defs183" />
  <g
     id="g185">
    <path
       style="fill:#000000;stroke-width:1.33333"
       d="M 33.999999,210.77636 C 27.190468,208.79387 26.310356,207.44065 27.335784,200.52979 28.905446,189.95108 29.209944,88.908688 27.677915,87 26.873819,85.998213 23.080877,85.325188 18.170073,85.312916 7.2230969,85.28556 6.0864708,84.407077 6.5086896,76.3 6.6269048,74.030135 7.7022808,73.059544 10.781264,72.443747 16.371285,71.325743 16.715155,69.486128 12.733796,61.998221 7.8332841,52.781624 8.0171044,42.120033 13.267887,31.020891 l 3.932451,-8.312442 -4.157037,-1.077196 C 7.6301491,20.228564 6.0824387,17.649755 7.8631285,13 L 9.2673307,9.3333333 H 35.133664 c 31.866176,0 34.199667,0.370114 34.199667,5.4243947 0,4.063255 -4.103583,7.908939 -8.439327,7.908939 -1.874085,0 -2.265825,0.592988 -1.541443,2.333333 7.617333,18.300841 7.910021,25.771595 1.492071,38.084549 l -4.488698,8.611652 5.488698,1.151899 c 5.017876,1.053089 5.526295,1.54716 5.926982,5.759713 0.606242,6.37363 -2.196236,8.058854 -13.401635,8.058854 -6.117347,0 -9.299399,0.548772 -9.664158,1.666666 C 44.406721,89.25 43.920365,115.5 43.625028,146.66667 c -0.60762,64.12176 -0.983523,66.62554 -9.625029,64.10969 z M 43.237596,67.644733 c 4.573149,-2.600266 5.454009,-3.908381 6.943506,-10.3114 0.938251,-4.033333 1.731332,-10.09886 1.762403,-13.478946 0.04901,-5.331586 -0.664952,-6.965219 -5.390156,-12.333334 -6.979201,-7.928792 -12.316634,-8.500825 -17.302606,-1.854386 -9.369534,12.489852 -8.456462,32.125213 1.784223,38.369212 5.358695,3.267329 5.792857,3.253412 12.20263,-0.391146 z"
       id="path505" />
  </g>
</svg>
