<?xml version="1.0" encoding="UTF-8" standalone="no"?>
<!-- Created with Inkscape (http://www.inkscape.org/) -->

<svg
   version="1.1"
   id="svg183"
   width="129.33333"
   height="118.66667"
   viewBox="0 0 129.33333 118.66667"
   xmlns="http://www.w3.org/2000/svg"
   xmlns:svg="http://www.w3.org/2000/svg">
  <defs
     id="defs187" />
  <g
     id="g189">
    <path
       style="fill:#000000;stroke-width:1.33333"
       d="m 23.727443,112.01299 c -6.383239,-0.37381 -12.28579,-1.3622 -13.11678,-2.19643 C 9.5870358,108.78894 9.0980382,99.758924 9.0943938,81.816556 9.0910271,65.241292 8.3708705,50.843869 7.1694695,43.333335 6.1137197,36.733334 4.8948245,29.121615 4.4608135,26.418403 3.3161419,19.288883 5.1199509,9.5467159 8.1447422,6.5219244 12.333165,2.3335011 13.666506,4.6409057 12.746909,14.486171 12.292406,19.35211 12.44881,25.133334 13.094475,27.333334 l 1.173937,4 2.131092,-5 c 2.164452,-5.078271 3.066327,-5.632935 6.818133,-4.193232 2.992774,1.148436 1.492712,9.72995 -3.513383,20.099254 -2.187788,4.531645 -3.63009,8.801956 -3.205117,9.489577 0.424973,0.687622 0.83026,4.479913 0.900636,8.427313 0.149572,8.389549 2.328965,32.425887 3.354781,36.99959 l 0.707808,3.155834 15.000704,-0.937279 c 12.294197,-0.768171 16.238166,-0.532527 21.859288,1.306049 5.817756,1.90289 7.628926,1.98852 11.934782,0.56427 4.607871,-1.524155 23.303399,-2.055842 35.076194,-0.99754 l 4.66667,0.4195 1.08941,-25.796219 c 0.89969,-21.303876 0.7654,-26.180002 -0.7711,-28 C 107.91927,44.028753 104,31.45704 104,26.603405 c 0,-4.139488 4.44056,-6.696172 7.06755,-4.069187 2.93199,2.931995 3.9533,1.405396 3.1212,-4.665412 -0.4622,-3.372156 -0.48411,-7.550656 -0.0487,-9.2855536 0.88781,-3.5373015 5.38482,-5.5916891 7.5345,-3.4420124 0.77338,0.773376 1.94006,8.182978 2.59263,16.465783 1.00217,12.720215 0.83692,16.179638 -1.06376,22.269394 -1.81721,5.82229 -2.23668,12.493621 -2.17972,34.666668 0.0548,21.341284 -0.34515,28.109825 -1.79567,30.388245 -1.8534,2.91122 -2.14131,2.93169 -41.982701,2.9845 -22.064076,0.0292 -40.520491,0.21599 -41.014259,0.41499 -0.493767,0.199 -6.120408,0.056 -12.503647,-0.31783 z"
       id="path813" />
  </g>
</svg>
