<?xml version="1.0" encoding="UTF-8" standalone="no"?>
<!-- Created with Inkscape (http://www.inkscape.org/) -->

<svg
   version="1.1"
   id="svg39"
   width="174.66667"
   height="186.66667"
   viewBox="0 0 174.66667 186.66667"
   xmlns="http://www.w3.org/2000/svg"
   xmlns:svg="http://www.w3.org/2000/svg">
  <defs
     id="defs43" />
  <g
     id="g45">
    <path
       style="fill:#000000;stroke-width:1.33333"
       d="m 60.606061,179.39394 c -4.019809,-4.0198 -4.110543,-7.18851 -0.41368,-14.44706 4.87689,-9.57544 9.208567,-14.18752 17.87897,-19.03628 11.204215,-6.26576 18.954035,-7.1179 30.323729,-3.3343 4.80504,1.59901 9.45531,3.77348 10.33394,4.83216 0.87862,1.05869 2.37362,1.92488 3.3222,1.92488 2.04392,0 8.60503,8.12945 11.73346,14.53818 2.97251,6.08931 2.86898,13.7903 -0.223,16.5885 -2.13319,1.9305 -6.64581,2.20665 -36.060605,2.20665 H 63.878789 Z M 120.8772,168.59883 c 1.09334,-2.84919 -4.17888,-8.16808 -12.08485,-12.19183 -5.63275,-2.86678 -7.57338,-3.20005 -13.976087,-2.40008 -13.535296,1.69112 -22.816262,7.45623 -22.816262,14.1729 0,2.33497 1.468336,2.48685 24.041847,2.48685 20.491102,0 24.159042,-0.3054 24.835352,-2.06784 z M 81.183482,129.4026 c -1.182419,-0.73136 -2.918553,-4.07527 -3.858074,-7.43091 C 75.508705,115.48307 71.179647,112 64.931723,112 60.112316,112 44.629542,99.573802 39.131567,91.293252 34.320963,84.04796 31.288015,73.448055 27.888601,52.000001 26.605923,43.907155 25.619706,39.369749 22.709184,28.170445 21.248211,22.54881 14.71703,15.695626 7.884026,12.61437 1.5558464,9.7607584 1.0738623,6.3166156 6.6778556,3.9953655 10.314763,2.4889092 11.524665,2.7537438 19.644414,6.8336051 30.667802,12.372433 38.870871,20.456168 41.312151,28.18613 c 1.009876,3.197629 2.864403,8.213871 4.12117,11.147204 1.256767,2.933333 3.032737,9.233334 3.946603,14 0.913865,4.766667 3.73871,13.057435 6.277433,18.423929 5.495738,11.617196 11.102819,16.294043 22.541627,18.801891 4.532408,0.993686 9.21791,3.040604 11.182639,4.88527 l 3.381621,3.174972 11.249066,-4.863437 c 15.77861,-6.821755 19.55118,-9.292283 23.79216,-15.580703 5.04506,-7.480667 6.47156,-11.68652 8.19952,-24.175255 0.81172,-5.866667 2.01323,-12.766667 2.67003,-15.333334 0.6568,-2.566666 1.54058,-6.337888 1.96398,-8.380493 0.48275,-2.328958 2.01946,-4.188939 4.121,-4.987946 1.84316,-0.700766 4.3764,-3.213632 5.62943,-5.584145 1.25303,-2.370513 4.20779,-6.315479 6.56611,-8.766589 3.44642,-3.5820196 5.14716,-4.3739092 8.66666,-4.0353627 6.00507,0.5776351 6.44059,4.8181377 1.3379,13.0266467 -5.48884,8.829711 -9.20806,21.420583 -10.25824,34.72789 -1.2529,15.875843 -4.19992,27.181308 -9.84178,37.755319 -4.44364,8.328283 -5.53498,9.415883 -13.04482,13.000003 -4.50753,2.15124 -9.00972,3.93031 -10.00488,3.95348 -3.40115,0.0792 -9.30788,6.63423 -11.33258,12.5764 -1.1124,3.26471 -3.02475,6.22303 -4.24967,6.57403 -5.16945,1.4813 -25.025491,2.12499 -27.043648,0.8767 z m 9.483186,-12.11209 c 0,-4.37624 -4.291556,-10.80602 -8.576214,-12.84923 -7.077749,-3.37514 -7.179714,-1.26206 -0.263459,5.45977 3.395153,3.29971 6.173007,6.62186 6.173007,7.38255 0,0.76069 0.6,1.38307 1.333333,1.38307 0.733333,0 1.333333,-0.61927 1.333333,-1.37616 z m 12.556192,-1.99172 c 0.46491,-1.85234 3.30231,-5.75234 6.30533,-8.66667 6.08801,-5.90822 5.31222,-6.6804 -2.51445,-2.50276 -4.82742,2.57674 -8.347071,8.04372 -8.347071,12.96531 0,3.01246 3.717111,1.54732 4.556191,-1.79588 z M 68.972224,99.194446 c -0.443056,-0.443055 -1.593056,-0.490424 -2.555556,-0.105267 -1.063644,0.425635 -0.747701,0.741577 0.805556,0.805556 1.405555,0.05789 2.193055,-0.257237 1.75,-0.700293 z M 63.679323,97.000002 C 63.380728,96.083335 61.603615,94.58553 59.730182,93.671544 52.522601,90.155206 45.232676,77.303627 42.105327,62.600274 38.537723,45.827043 37.592751,42.392751 36.147358,40.947358 c -2.385399,-2.385399 -3.189624,2.449676 -1.097616,6.598967 2.407952,4.775931 3.470353,9.204348 4.339383,18.087876 1.065536,10.89228 8.408292,24.87761 15.418008,29.365801 6.100517,3.906046 9.761922,4.731413 8.87219,2 z m 69.629537,-3.847315 c 6.40184,-6.401847 12.0833,-20.575016 11.9534,-29.819353 -0.0535,-3.80351 -0.1421,-3.738014 -1.80444,1.333334 -0.96152,2.933333 -2.43102,7.796751 -3.26556,10.807595 -1.592,5.743632 -11.18603,17.859072 -14.14231,17.859072 -0.94789,0 -2.47036,0.9 -3.38328,2 -1.41363,1.703319 -1.05749,2 2.40084,2 2.7731,0 5.38633,-1.325633 8.24135,-4.180648 z"
       id="path147" />
  </g>
</svg>
