<?xml version="1.0" encoding="UTF-8" standalone="no"?>
<!-- Created with Inkscape (http://www.inkscape.org/) -->

<svg
   version="1.1"
   id="svg403"
   width="109.33333"
   height="210.66667"
   viewBox="0 0 109.33333 210.66667"
   xmlns="http://www.w3.org/2000/svg"
   xmlns:svg="http://www.w3.org/2000/svg">
  <defs
     id="defs407" />
  <g
     id="g409">
    <path
       style="fill:#000000;stroke-width:1.33333"
       d="m 44.032374,201.45191 c -4.24906,-0.62157 -9.64906,-2.18605 -12,-3.4766 -7.51974,-4.12794 -17.04279,-14.163 -21.21935,-22.36021 -4.773,-9.36781 -5.36349,-19.46885 -1.84096,-31.492 2.69519,-9.19929 6.55139,-14.53571 16.44489,-22.75732 19.51913,-16.22061 44.08856,-15.17418 61.21537,2.60722 11.37457,11.8093 13.989816,21.22923 11.19687,40.33029 -2.0774,14.20744 -5.15647,19.09032 -19.56796,31.03138 -4.13972,3.43008 -16.41053,7.59763 -21.81781,7.40999 -2.57702,-0.0895 -8.16199,-0.67116 -12.41105,-1.29275 z m 15.7618,-10.6033 c 1.1305,-1.82919 -3.10945,-8.2503 -5.02597,-7.61146 -2.4111,0.80371 -4.16624,4.47182 -3.26432,6.8222 0.92626,2.41379 6.93285,2.98564 8.29029,0.78926 z m -16.72018,-10.98558 c 4.54209,-12.1535 5.87746,-14.37054 9.15049,-15.19202 2.73269,-0.68587 4.09095,0.012 7.19107,3.69533 2.10211,2.49749 4.78412,6.54707 5.96,8.99903 1.17589,2.45196 3.61204,5.12974 5.41367,5.95062 2.91491,1.32812 3.70783,1.00886 7.19929,-2.89878 2.15799,-2.4152 3.73892,-5.3053 3.51318,-6.42243 -0.38837,-1.92197 -5.71878,-5.60949 -15.39691,-10.65143 -4.70768,-2.4525 -6.48907,-5.89416 -4.70286,-9.08594 0.62698,-1.12034 5.46357,-4.10902 10.74798,-6.64151 8.90337,-4.26683 9.60803,-4.91148 9.60803,-8.78992 0,-4.60125 -7.3176,-13.25207 -11.20972,-13.25207 -1.35967,0 -4.19866,4.1448 -7.76644,11.33863 -8.30424,16.74413 -11.32418,16.60913 -18.82892,-0.84169 -3.56379,-8.28689 -4.77457,-9.894 -7.71189,-10.23615 -2.70493,-0.31509 -4.56543,0.85709 -8.31704,5.24 -6.61336,7.72623 -6.36497,10.8186 1.15281,14.35237 3.29201,1.54743 6.52342,2.81351 7.18092,2.81351 1.91584,0 8.48184,3.68547 9.49945,5.332 1.88604,3.05167 -0.33994,8.10897 -4.49773,10.21863 -9.1364,4.63578 -16.91427,10.38302 -16.54991,12.22909 0.20999,1.06395 1.57521,2.59877 3.03383,3.41071 1.45861,0.81193 4.43775,2.79253 6.6203,4.40133 4.55499,3.35756 6.26305,2.57921 8.7104,-3.96931 z m -18.58318,-18.99002 c 2.16358,-1.11883 3.93378,-2.89772 3.93378,-3.9531 0,-2.28076 -4.05577,-4.67933 -7.91234,-4.67933 -2.23268,0 -2.75432,0.84175 -2.75432,4.44444 0,3.97979 0.82473,6.22223 2.28843,6.22223 0.28087,0 2.28087,-0.91542 4.44445,-2.03424 z m 63.19638,-2.82528 c 1.21916,-4.85754 -0.40152,-5.90895 -6.2626,-4.06286 -5.68276,1.78994 -6.37452,3.85196 -2,5.96172 4.99291,2.40799 7.31562,1.87419 8.2626,-1.89886 z m -29.40273,-34.14048 c 0.82659,-3.53405 0.66378,-3.66667 -4.50113,-3.66667 -2.94731,0 -5.35649,0.45 -5.35375,1 0.003,0.55 1.24588,3.03543 2.76252,5.52319 2.32446,3.8128 3.0306,4.23161 4.49615,2.66666 0.95624,-1.02108 2.12453,-3.50652 2.59621,-5.52318 z M 16.861184,59.153368 c -2.4971,-2.497105 -2.19992,-7.736871 0.92143,-16.246111 5.45554,-14.872556 12.19031,-23.257018 23.30865,-29.018171 5.66237,-2.934048 8.47441,-3.46906 18.66667,-3.55147 10.54613,-0.08527 12.8077,0.333252 18.66666,3.454443 11.31667,6.028622 18.62611,15.38744 23.944456,30.657882 2.87834,8.264507 2.62624,12.724742 -0.82358,14.571024 -4.440316,2.37638 -82.318546,2.498142 -84.684286,0.1324 z m 61.20011,-10.483295 c 10.88198,-0.978821 11.94279,-2.740871 7.23307,-12.014379 -6.42776,-12.656356 -12.63679,-16.392271 -27.26931,-16.407668 -7.07876,-0.0075 -12.16416,1.879644 -19.40045,7.199139 -6.62558,4.870553 -12.41115,19.793779 -8.67586,22.378417 1.75566,1.214835 29.04749,0.559372 48.11255,-1.155509 z"
       id="path511" />
  </g>
</svg>
