<?xml version="1.0" encoding="UTF-8" standalone="no"?>
<!-- Created with Inkscape (http://www.inkscape.org/) -->

<svg
   version="1.1"
   id="svg173"
   width="210.66667"
   height="217.33333"
   viewBox="0 0 210.66667 217.33333"
   xmlns="http://www.w3.org/2000/svg"
   xmlns:svg="http://www.w3.org/2000/svg">
  <defs
     id="defs177" />
  <g
     id="g179">
    <path
       style="fill:#000000;stroke-width:1.33333"
       d="m 104,204.61212 c -4.033332,-0.93922 -9.133332,-2.34408 -11.333332,-3.12192 -2.2,-0.77786 -5.529896,-1.71264 -7.399769,-2.07732 -4.703184,-0.91724 -14.600231,-10.32694 -14.600231,-13.88127 0,-1.58291 -1.578079,-6.02508 -3.506842,-9.87148 -2.820993,-5.62572 -3.4755,-8.73444 -3.346584,-15.89533 0.143486,-7.97016 0.743747,-9.8541 5.735196,-18 8.256533,-13.47442 16.035017,-21.01253 25.089133,-24.31383 17.124599,-6.24394 33.293489,-1.40883 47.209749,14.1175 9.49608,10.59477 10.62575,13.78749 9.55362,27.00094 -0.75954,9.36095 -1.75675,12.98641 -5.56575,20.23495 -2.72016,5.17646 -5.97092,9.43694 -7.85565,10.29569 -1.76839,0.80573 -4.75847,3.90957 -6.64462,6.89744 -4.11077,6.51188 -10.53116,10.72113 -16.00158,10.49075 -2.2,-0.0927 -7.3,-0.93691 -11.33334,-1.87612 z m 10.00481,-9.95323 C 115.17666,192.7628 111.78847,184 109.88348,184 c -0.86945,0 -1.86406,1.65 -2.21024,3.66666 -0.34618,2.01667 -1.07848,4.71667 -1.62732,6 -0.82545,1.93014 -0.29563,2.33334 3.06607,2.33334 2.23518,0 4.43695,-0.6035 4.89282,-1.34111 z M 97.929571,182.33333 c 1.350995,-3.85 3.269519,-7.94724 4.263389,-9.10499 C 103.18683,172.0706 104,170.4417 104,169.60858 c 0,-0.83312 1.23338,-2.17485 2.74084,-2.98161 2.35255,-1.25904 3.36078,-0.79005 7.11666,3.31043 2.4067,2.62749 5.77589,7.76646 7.48708,11.41993 1.71119,3.65347 3.99808,6.64267 5.08198,6.64267 2.16177,0 10.90678,-8.41819 10.90678,-10.49918 0,-0.71389 -1.84604,-2.69364 -4.1023,-4.39941 -2.25627,-1.70577 -5.47507,-4.45141 -7.1529,-6.10141 -1.67782,-1.65 -4.31068,-3 -5.85079,-3 -3.09637,0 -6.16732,-4.49595 -5.05351,-7.39848 0.39188,-1.02123 4.48808,-3.60382 9.10267,-5.73908 12.83393,-5.93855 13.76861,-6.90227 11.89815,-12.26787 -3.70376,-10.62463 -11.89733,-13.93061 -15.51788,-6.26124 -2.51673,5.33116 -7.93806,14.41912 -9.94232,16.66667 -3.60578,4.04345 -6.68078,1.83937 -11.449146,-8.20648 -6.590717,-13.88514 -7.497945,-14.40038 -14.09695,-8.0061 -9.513888,9.21874 -9.576428,11.84742 -0.354563,14.90318 C 91.644409,149.95398 100,155.85344 100,158.4128 c 0,3.15182 -8.580124,11.26074 -15.666665,14.80626 -3.116667,1.55932 -5.666667,3.61011 -5.666667,4.5573 0,0.94718 1.95,3.14061 4.333333,4.87428 2.383334,1.73366 4.813148,3.9465 5.399587,4.91741 0.58644,0.97091 2.417913,1.76528 4.069941,1.76528 2.422689,0 3.478817,-1.354 5.460042,-7 z m -15.262903,-19.88844 4.666667,-2.87848 -5.779132,-2.54937 c -6.987464,-3.0824 -9.554202,-2.35198 -9.554202,2.71889 0,6.53163 3.165788,7.33563 10.666667,2.70896 z M 141.33334,160 c 0,-6.04142 -0.25794,-6.14915 -6.61655,-2.76342 l -4.61655,2.45815 4.61655,2.81431 c 2.53909,1.54788 5.06655,2.81657 5.61655,2.8193 0.55,0.003 1,-2.39501 1,-5.32834 z m -29.24592,-31.56327 c 1.81912,-4.78463 0.70248,-7.1034 -3.42075,-7.1034 -1.87937,0 -3.72269,0.79653 -4.09627,1.77007 -1.05034,2.73714 1.78567,8.8966 4.09627,8.8966 1.1363,0 2.67564,-1.60347 3.42075,-3.56327 z m 36.94754,-28.547005 c -18.7076,-2.7416 -31.82463,-16.194244 -35.57577,-36.486009 -0.93687,-5.068012 -0.97215,-8.489072 -0.10425,-10.110749 0.72145,-1.348045 1.31173,-5.736557 1.31173,-9.752249 0,-6.460455 0.59262,-8.050984 5.14615,-13.811624 9.26406,-11.719922 20.72036,-19.394671 29.52052,-19.7762428 2.56666,-0.1112894 6.28646,-0.6536757 8.26624,-1.2053019 2.84516,-0.7927562 4.27048,-0.3320352 6.80082,2.1982987 2.8637,2.863698 3.49562,3.005802 5.99294,1.347649 1.5631,-1.03787 3.9934,-1.472193 5.52237,-0.986916 5.25497,1.667863 16.04255,11.421061 21.04153,19.023957 L 202,37.999999 201.9024,52.666666 c -0.0848,12.747718 -0.5411,15.638325 -3.48705,22.093122 -3.57879,7.841379 -6.37536,11.149785 -15.60191,18.457337 -9.82408,7.780825 -16.80565,9.159965 -33.77842,6.6726 z m 15.52266,-10.032378 c 3.03666,-1.165276 2.60324,-3.594911 -1.29451,-7.256656 -2.86993,-2.696162 -3.5984,-2.889387 -4.64625,-1.232419 -0.68348,1.080783 -1.25188,3.61506 -1.26311,5.631727 -0.0209,3.764669 2.36905,4.712644 7.20387,2.857348 z m 17.36214,-8.699112 c 4.48063,-3.524464 6.69939,-8.805648 4.7077,-11.205488 -0.78643,-0.947588 -3.94934,-2.910984 -7.02867,-4.363101 -6.62921,-3.126132 -12.93212,-8.681674 -12.93212,-11.398704 0,-1.736513 8.25404,-7.392719 18.76297,-12.857609 5.24676,-2.728435 4.87602,-5.671411 -1.59945,-12.696457 -8.18343,-8.87797 -10.12052,-8.246291 -16.36835,5.337671 -5.4649,11.881724 -9.3527,15.329556 -12.0798,10.712788 -0.76012,-1.286834 -3.02112,-4.817918 -5.02444,-7.846852 -2.00332,-3.028933 -3.65332,-6.536039 -3.66666,-7.793571 -0.0365,-3.436887 -5.0034,-5.636336 -8.81079,-3.901578 C 134.84003,26.530509 128,35.896053 128,38.673503 c 0,0.76624 1.78655,1.750472 3.9701,2.187183 2.18356,0.436711 4.65702,1.621711 5.4966,2.633333 0.83957,1.011623 2.56541,1.839314 3.8352,1.839314 3.57782,0 9.36477,6.11898 9.36477,9.902094 0,2.461961 -1.16079,3.941307 -4.33333,5.522535 -2.38334,1.187876 -6.90506,4.897788 -10.04826,8.244249 l -5.71492,6.084475 3.63104,3.789989 c 1.99708,2.084494 4.60654,3.78999 5.7988,3.78999 2.8798,0 8.37207,-6.000738 11.85767,-12.955418 4.57032,-9.118996 6.84607,-9.420168 13.3046,-1.760729 3.02741,3.590344 5.5044,7.089338 5.5044,7.775545 0,1.673789 5.25179,8.273936 6.58363,8.273936 0.58121,0 2.68246,-1.278795 4.66946,-2.841764 z M 131.38025,59.179986 c 4.20543,-2.755506 4.16985,-5.016096 -0.10966,-6.965967 -6.7811,-3.089678 -8.46793,-1.484408 -6.43021,6.119313 0.9555,3.565427 2.15374,3.720552 6.53986,0.846654 z m 63.05021,-3.027116 c 0.63018,-6.576184 -1.19042,-7.594131 -8.33024,-4.657657 -3.34963,1.377632 -6.09247,2.940453 -6.09522,3.472933 -0.008,1.473842 9.72087,6.323272 11.995,5.979241 1.21592,-0.183945 2.16876,-2.063576 2.43046,-4.794517 z M 161.9244,25.036658 c 3.55796,-5.079709 2.7023,-7.703325 -2.51237,-7.703325 -5.65001,0 -6.81551,1.668879 -4.71203,6.747143 1.93639,4.674861 4.39208,4.999882 7.2244,0.956182 z M 36.996394,97.310607 C 31.017975,94.071029 21.136795,83.727617 19.487082,78.982228 18.838311,77.116039 16.843539,73.431895 15.054258,70.79524 11.977926,66.262014 11.849217,65.312482 12.687367,53.333995 13.621916,39.977803 16.298071,32.086456 21.702172,26.75146 28.65534,19.887205 38.262143,13.279922 42.424858,12.498992 c 5.444291,-1.021355 11.367732,2.756616 11.970487,7.634776 0.5658,4.579088 3.061524,10.532898 4.415189,10.532898 1.442534,0 5.189467,-8.790048 5.189467,-12.17413 0,-2.189759 -0.35024,-2.298062 -2.707351,-0.837168 -2.217722,1.374504 -2.918816,1.33813 -3.876638,-0.201123 -2.424546,-3.896327 -0.101374,-5.397803 7.713006,-4.984966 8.801018,0.46496 11.280763,1.629414 17.363847,8.153815 2.471075,2.650348 6.702839,5.94626 9.403919,7.324248 6.121568,3.122991 8.114346,7.397637 9.015986,19.339945 0.94145,12.469571 0.83716,13.863351 -1.541796,20.606033 -1.120702,3.176406 -2.037639,6.802172 -2.037639,8.057259 0,4.160456 -10.583691,17.28203 -16.418379,20.355374 -4.73276,2.492917 -8.116314,2.999048 -22.248288,3.328023 -14.680142,0.341733 -17.263055,0.06481 -21.670274,-2.323369 z m 27.706512,-8.03591 c 1.13047,-1.829138 -2.914733,-7.941365 -5.255765,-7.941365 -1.980436,0 -4.019883,5.994593 -2.742576,8.061319 1.057236,1.710644 6.921323,1.622698 7.998341,-0.11996 z M 46.400001,85.066665 c 0.88,-0.88 1.6,-2.362218 1.6,-3.29382 0,-2.440542 6.763815,-16.943822 8.386009,-17.981662 2.319304,-1.483833 6.798047,1.478899 10.022178,6.629767 1.691169,2.70181 4.765666,6.972598 6.832217,9.490641 l 3.757364,4.578258 5.501116,-4.356964 c 7.443682,-5.895505 7.145235,-8.588159 -1.433733,-12.935451 -3.814168,-1.932786 -8.614168,-4.755728 -10.666667,-6.273206 -4.210468,-3.112934 -4.957637,-8.167749 -1.398484,-9.461145 1.283333,-0.466362 6.233334,-3.11536 11,-5.88666 7.081298,-4.117008 8.604332,-5.599609 8.325908,-8.104872 C 87.791576,32.663638 81.074905,24.061034 77.829928,24.028468 74.330691,23.993352 73.566864,24.933285 67.288757,36.999999 60.260078,50.509338 57.791145,50.213073 50.122982,34.940157 47.437087,29.590576 44.271614,24.84222 43.088599,24.388254 40.358925,23.340781 29.333334,34.683327 29.333334,38.538947 c 0,2.036322 2.441757,3.868611 10,7.503979 8.975532,4.317057 10,5.198585 10,8.604734 0,3.976359 -5.527071,9.366712 -14.097111,13.748403 -7.820431,3.998432 -7.934479,5.318565 -1.046164,12.109577 6.376707,6.286632 9.367227,7.40374 12.209942,4.561025 z M 32.500567,59.354987 c 3.168263,-2.399144 1.989244,-5.680592 -2.440492,-6.792385 -5.10988,-1.282497 -7.393408,0.178065 -7.393408,4.728884 0,3.530678 0.46372,4.036484 3.666667,3.999442 2.016666,-0.02332 4.791921,-0.894496 6.167233,-1.935941 z m 60.865769,-1.441788 c 2.934418,-7.718104 -0.431163,-9.40758 -9.316217,-4.676616 l -4.616551,2.458144 4.616551,2.814319 c 6.012149,3.665097 7.738181,3.554704 9.316217,-0.595847 z"
       id="path2635" />
  </g>
</svg>
