<?xml version="1.0" encoding="UTF-8" standalone="no"?>
<!-- Created with Inkscape (http://www.inkscape.org/) -->

<svg
   version="1.1"
   id="svg233"
   width="173.33333"
   height="212"
   viewBox="0 0 173.33333 212"
   xmlns="http://www.w3.org/2000/svg"
   xmlns:svg="http://www.w3.org/2000/svg">
  <defs
     id="defs237" />
  <g
     id="g239">
    <path
       style="fill:#000000;stroke-width:1.33333"
       d="M 22.926649,204.37036 C 18.30892,202.00959 15.532773,198.52968 10.48435,188.77389 6.8982217,181.84389 6.4050947,179.56688 6.4417667,170.10723 6.5022741,154.49908 11.897787,144.20304 23,138.50981 l 4.999999,-2.56401 -0.02042,-45.639565 C 27.968349,65.204472 27.516975,43.971737 26.976523,43.122377 26.436072,42.273019 23.729002,41.153195 20.96081,40.633879 c -9.498847,-1.781995 -9.158266,-8.299275 0.557795,-10.673842 7.571622,-1.850474 7.823511,-3.972181 0.684977,-5.769684 -9.287322,-2.338576 -9.395326,-7.869761 -0.183111,-9.37767 4.216292,-0.690148 5.192163,-1.516317 6.472208,-5.4793497 1.255755,-3.8878254 2.219241,-4.7355553 5.773028,-5.0794345 3.805429,-0.3682291 4.563671,0.1712839 7.027099,5 2.517031,4.9337922 3.222509,5.4127682 7.972383,5.4127682 5.617572,0 9.744335,2.888417 8.554979,5.987829 -0.891839,2.324095 -5.395599,3.968467 -9.557433,3.489524 -3.057651,-0.351873 -6.929405,1.854913 -6.929405,3.94956 0,0.605217 3.130309,1.281751 6.956242,1.503407 6.050401,0.350533 7.222379,0.890288 9,4.144953 1.8743,3.431679 1.848272,3.887555 -0.313916,5.498121 -1.29672,0.9659 -5.34672,2.152692 -9,2.637318 L 41.33333,42.758515 41.138203,61.045924 C 41.030886,71.103999 41.072889,92.233333 41.231545,108 l 0.288465,28.66667 7.150733,6.66666 c 3.932903,3.66667 8.139259,8.68039 9.347457,11.1416 3.190949,6.50026 3.378325,24.7722 0.315132,30.72992 -1.283333,2.496 -2.333333,5.20214 -2.333333,6.01363 0,2.55045 -6.845817,8.98963 -11.857739,11.15337 -7.501127,3.23839 -17.033882,4.13638 -21.215611,1.99851 z m 19.540406,-10.785 c 4.853904,-6.12855 8.602861,-20.59397 7.356807,-28.38637 -1.118316,-6.99356 -7.224681,-15.3128 -11.894987,-16.20559 -2.005538,-0.38339 -5.45606,-0.17807 -7.667825,0.45627 -12.720508,3.64818 -16.135029,18.69913 -8.497005,37.45413 4.182309,10.26957 5.657534,11.76287 11.620508,11.76287 4.266326,0 5.687965,-0.79535 9.082502,-5.08131 z M 155.56012,138.33071 c -2.05035,-1.49926 -2.2461,-4.52128 -1.92151,-29.66667 L 154,80.666667 l 4.24474,-0.411204 c 6.69418,-0.648491 7.31932,1.9755 7.33684,30.795827 0.014,22.93468 -0.2211,25.6313 -2.37122,27.20351 -2.98314,2.18132 -4.74699,2.19881 -7.65024,0.0759 z"
       id="path261" />
  </g>
</svg>
