<?xml version="1.0" encoding="UTF-8" standalone="no"?>
<!-- Created with Inkscape (http://www.inkscape.org/) -->

<svg
   version="1.1"
   id="svg223"
   width="217.33333"
   height="208"
   viewBox="0 0 217.33333 208"
   xmlns="http://www.w3.org/2000/svg"
   xmlns:svg="http://www.w3.org/2000/svg">
  <defs
     id="defs227" />
  <g
     id="g229">
    <path
       style="fill:#000000;stroke-width:1.33333"
       d="M 100.6291,202.85075 C 100.36337,202.58533 79.419715,202.21428 54.087654,202.0262 22.097842,201.78868 7.4712379,201.22101 6.2021439,200.16776 3.8830591,198.24309 2.3797537,176.75517 4.2734214,172.59903 c 1.8691482,-4.10234 6.5422456,-4.48535 46.0841396,-3.77722 29.760495,0.53296 33.784706,0.35888 34.49504,-1.49222 0.442282,-1.15256 -0.194268,-3.19882 -1.414552,-4.54722 -1.220285,-1.3484 -2.551601,-4.50306 -2.958481,-7.01037 -0.64542,-3.97725 -0.289924,-4.76371 2.787048,-6.16567 3.170815,-1.44472 3.870461,-1.23677 6.930993,2.06004 1.872291,2.01683 4.259174,5.31696 5.304184,7.33363 2.183248,4.21324 4.529117,4.58152 9.294467,1.45915 3.13552,-2.05448 3.69005,-2.05448 7.99832,0 6.67656,3.18382 9.50622,2.7826 11.8112,-1.67475 4.23025,-8.1804 12.82002,-11.83479 17.29634,-7.35847 2.52149,2.52148 0.98357,6.34834 -4.29772,10.6942 -2.30112,1.89354 -3.10138,3.53027 -2.49662,5.10624 0.78267,2.0396 1.97606,2.19107 9.89114,1.25539 9.97921,-1.17969 9.6026,-1.17243 39.85337,-0.76884 27.86147,0.37169 27.95309,0.42804 27.4924,16.90469 -0.17709,6.33339 -0.89303,12.58226 -1.59096,13.88638 -2.55557,4.77513 -13.32151,5.67369 -62.783,5.24012 -25.77217,-0.22594 -47.0759,-0.62794 -47.34163,-0.89336 z m 30.70423,-9.67731 c 33.73333,0.0723 63.13333,-0.3554 65.33333,-0.95031 3.28572,-0.8885 4,-1.77777 4,-4.97992 0,-7.09777 -1.37362,-7.20433 -97.0918,-7.53241 -47.799508,-0.16383 -87.658194,0.16963 -88.57486,0.74101 -0.916667,0.5714 -1.666667,3.06808 -1.666667,5.54819 0,2.48011 0.75,4.99469 1.666667,5.58797 2.00525,1.29783 40.522383,2.91763 48.999999,2.06064 3.3,-0.33358 33.6,-0.54741 67.333331,-0.47517 z M 102.58288,85.428576 C 100.25948,82.537408 97.077843,77.796279 95.512587,74.892733 93.947329,71.989188 89.066665,64.186307 84.666665,57.552999 60.889495,21.707245 57.333332,15.665151 57.333332,11.112318 c 0,-9.2668689 7.278766,-6.6743328 16.662806,5.934925 10.026215,13.472144 12.299706,16.98785 18.169182,28.096656 7.85999,14.87614 14.83897,27.19068 17.50134,30.881472 3.20209,4.43898 3.06232,11.490668 -0.26303,13.270341 -2.19806,1.176367 -3.24443,0.583111 -6.82075,-3.867136 z m 38.32288,2.521277 c -1.96484,-1.545537 -3.57243,-3.672672 -3.57243,-4.726968 0,-1.054294 -2.04408,-4.82503 -4.54239,-8.37941 -5.79391,-8.243054 -10.12428,-16.723392 -10.12428,-19.826779 0,-1.332579 -1.76791,-3.974189 -3.9287,-5.870245 -2.16078,-1.896056 -4.3548,-5.179667 -4.87559,-7.296912 -0.52079,-2.117247 -3.56799,-6.781232 -6.77154,-10.364414 C 103.88728,27.901944 99.361514,21.143157 97.033573,16.4656 93.166848,8.6961455 92.984004,7.7778989 94.918467,5.8434368 99.666874,1.0950281 107.43812,7.3038041 114.77623,21.708637 c 3.07023,6.026916 7.30158,13.044736 9.403,15.595155 2.10142,2.550419 3.82077,5.088843 3.82077,5.640941 0,0.552099 2.91775,5.365392 6.48389,10.696208 8.55613,12.790078 10.21296,16.227259 12.25272,25.419152 1.47476,6.645815 1.43672,8.004668 -0.27191,9.713294 -1.75982,1.759822 -2.39422,1.665837 -5.55894,-0.823534 z"
       id="path400" />
  </g>
</svg>
