<?xml version="1.0" encoding="UTF-8" standalone="no"?>
<!-- Created with Inkscape (http://www.inkscape.org/) -->

<svg
   version="1.1"
   id="svg213"
   width="221.33333"
   height="228"
   viewBox="0 0 221.33333 228"
   xmlns="http://www.w3.org/2000/svg"
   xmlns:svg="http://www.w3.org/2000/svg">
  <defs
     id="defs217" />
  <g
     id="g219">
    <path
       style="fill:#000000;stroke-width:1.33333"
       d="m 87.999999,221.42481 c -9.746339,-0.83049 -23.267977,-4.44256 -35.666666,-9.52773 -1.65,-0.67673 -4.65,-1.89995 -6.666667,-2.71827 -2.016667,-0.81832 -4.566667,-2.01204 -5.666667,-2.6527 -1.1,-0.64067 -4.1,-2.31011 -6.666666,-3.70988 -6.287177,-3.4288 -30.6666664,-27.26542 -30.6666664,-29.98379 0,-1.19117 1.1654917,-3.33127 2.5899816,-4.75576 2.4839242,-2.48392 5.1456118,-2.59921 64.9999988,-2.81563 34.325513,-0.12413 65.710013,-0.1052 69.743353,0.042 4.03333,0.14723 20.65348,0.36426 36.93365,0.4823 20.27617,0.14702 30.08351,0.6979 31.13421,1.74882 1.15628,1.15654 1.10911,2.7089 -0.19166,6.30611 -1.56506,4.32808 -1.46804,5.05344 1.04316,7.79912 9.0326,9.87603 9.64289,27.44791 1.15792,33.34016 -2.2712,1.5772 -11.8081,1.07524 -15.18743,-0.79936 -1.71059,-0.94891 -4.42681,-4.07765 -6.03605,-6.95276 -1.8296,-3.26881 -4.06323,-5.39061 -5.96136,-5.66291 -1.67996,-0.24098 -9.32804,2.60054 -17.12682,6.36322 -7.75022,3.73925 -16.26804,7.34332 -18.92848,8.00904 -2.66042,0.66572 -8.13714,2.15682 -12.17048,3.31356 -8.69624,2.49402 -30.81883,3.52484 -46.666661,2.17444 z M 120,209.86941 c 5.5,-1.09465 12.4,-2.4979 15.33333,-3.11833 6.82511,-1.44355 20.80285,-6.55896 23.10112,-8.45428 0.97229,-0.80181 4.04452,-2.6966 6.82717,-4.21065 12.40776,-6.75108 19.67296,-12.8286 18.19476,-15.22039 C 182.53538,177.37556 24,177.17785 24,178.66692 c 0,0.54457 2.25,3.43177 5,6.41601 3.404438,3.69443 10.114317,7.97986 21.026699,13.42922 16.542281,8.26078 21.400757,9.45753 47.243409,11.63712 3.998562,0.33725 7.548562,0.89162 7.888892,1.23196 0.95587,0.95586 4.00105,0.64566 14.841,-1.51182 z m 84,-10.38837 c 0,-3.98931 -4.35638,-9.57555 -6.45563,-8.27813 -1.67056,1.03245 -0.78536,6.93442 1.4694,9.79709 2.17739,2.76441 4.98623,1.90875 4.98623,-1.51896 z M 55.958995,83.963233 C 46.258402,82.827332 35.652826,79.954804 29.837578,76.888225 24.390824,74.015967 13.001939,62.672595 10.844438,57.970985 9.8422123,55.786944 8.4110059,52.828109 7.6639794,51.395799 4.1800037,44.715799 8.2487856,21.021687 13.964394,14.706011 17.491988,10.808064 30.535692,4.9544715 37.099362,4.3237859 c 8.124763,-0.7806868 15.81392,1.3625685 22.647312,6.3126521 6.98965,5.063278 9.77103,10.501629 10.590196,20.706701 1.22874,15.307497 -6.785082,23.92148 -22.107243,23.762874 -8.188836,-0.08476 -12.592421,-2.704448 -16.499629,-9.815589 -3.177602,-5.783257 -2.444194,-11.657944 2.218589,-17.771171 5.120288,-6.713042 11.996019,-7.378757 19.654127,-1.902929 5.053849,3.613687 3.634674,-0.532199 -2.126289,-6.211603 -5.215896,-5.142053 -6.96469,-6.071388 -11.424955,-6.071388 -5.932979,0 -12.521433,3.851432 -18.264917,10.677175 -4.327931,5.143453 -5.759824,16.657071 -3.081015,24.773941 1.843248,5.585098 11.877328,17.08091 17.403211,19.938455 3.240681,1.67582 19.331043,4.035505 30.557917,4.48138 4.576458,0.181755 8,2.89904 8,6.349648 0,1.672621 -6.820964,5.951413 -8.933787,5.604168 -0.586417,-0.09637 -4.984665,-0.634069 -9.773884,-1.194867 z M 53.333333,40.68456 c 0,-2.555323 -1.116843,-3.782087 -4.871387,-5.350836 -2.679263,-1.119467 -5.137871,-1.768912 -5.463572,-1.443211 -0.972333,0.972335 6.862199,10.109406 8.668292,10.109448 0.916667,2.2e-5 1.666667,-1.491909 1.666667,-3.315401 z m 76.128437,34.061487 c -4.40341,-2.721458 -3.91086,-16.097502 0.83005,-22.541584 1.43152,-1.945788 3.04732,-5.337796 3.59067,-7.537796 1.05647,-4.27764 12.08949,-15.440735 18.78417,-19.005628 2.33863,-1.245308 8.43035,-2.352386 14.66667,-2.665443 9.85315,-0.494619 11.46336,-0.184825 21.11269,4.061951 7.97383,3.50937 11.65375,6.058926 15.54918,10.77293 7.65882,9.268234 11.26512,17.605035 11.30446,26.132896 0.0497,10.783822 0.2916,10.724159 -45.74708,11.285986 -21.18376,0.258512 -39.22462,0.03203 -40.09081,-0.503312 z M 158,62.597799 c 6.68736,-0.966835 12.09533,-0.904014 19.07593,0.221592 7.56552,1.219924 11.36432,1.208042 17,-0.05316 8.35111,-1.868898 8.99747,-3.577931 4.43463,-11.725671 C 190.8591,37.377577 184.9108,33.333333 172.4666,33.333333 c -6.59536,0 -8.88787,0.754199 -16.77146,5.517526 -9.75028,5.891209 -11.4423,7.951104 -13.77308,16.76752 -2.32448,8.79264 -0.86021,9.428274 16.07794,6.97942 z"
       id="path539" />
  </g>
</svg>
