<?xml version="1.0" encoding="UTF-8" standalone="no"?>
<!-- Created with Inkscape (http://www.inkscape.org/) -->

<svg
   version="1.1"
   id="svg203"
   width="142.66667"
   height="213.33333"
   viewBox="0 0 142.66667 213.33333"
   xmlns="http://www.w3.org/2000/svg"
   xmlns:svg="http://www.w3.org/2000/svg">
  <defs
     id="defs207" />
  <g
     id="g209">
    <path
       style="fill:#000000;stroke-width:1.33333"
       d="m 51.219155,207.62293 c -6.270327,-3.42697 -4.469205,-8.51165 3.464421,-9.78029 8.12326,-1.29896 8.730299,-2.82731 6.212543,-15.64144 -2.153114,-10.95827 -4.036651,-18.02966 -8.964286,-33.6547 -1.40846,-4.46608 -2.657764,-11.06608 -2.776231,-14.66666 -0.28397,-8.63073 -1.745772,-12.26507 -5.648468,-14.04326 -1.767192,-0.80518 -3.870401,-2.90665 -4.6738,-4.66992 -1.216434,-2.66978 -0.995969,-3.67069 1.318268,-5.98493 2.998046,-2.99804 2.911784,-5.9365 -0.43422,-14.791541 -2.063694,-5.46147 -5.989124,-10.39019 -8.275164,-10.39019 -3.170672,0 -5.366656,13.81477 -5.404611,34.000001 -0.02068,11 -0.821836,24.5 -1.78034,30 -1.087806,6.24196 -1.417201,13.81844 -0.876504,20.16073 0.701758,8.23151 0.427715,11.01628 -1.44331,14.66667 -1.270246,2.47826 -2.975819,4.94674 -3.790162,5.48552 -2.568448,1.69928 -7.078803,1.10657 -10.0814573,-1.32484 C 5.2724492,184.72614 5.1415488,183.44638 4.3804889,150.95816 3.6282873,118.84806 3.7129918,117.13463 6.1925424,114.3034 7.62317,112.66986 9.8972341,108.03333 11.246018,104 c 1.348784,-4.033335 4.470205,-10.435015 6.936492,-14.225959 2.466286,-3.790942 4.484157,-7.791869 4.484157,-8.890949 0,-3.783557 1.665764,-6.319853 5.428695,-8.26574 5.331363,-2.756954 8.456171,-2.436369 12.927868,1.326316 3.808835,3.204924 13.643438,21.591287 13.643438,25.507204 0,3.168208 4.08892,8.526628 8.082353,10.591708 3.522933,1.82178 6.069842,7.28295 8.44615,18.11051 0.446793,2.0358 4.338541,6.62368 9.353406,11.02648 8.23294,7.22812 8.628981,7.41485 9.57289,4.51357 0.541555,-1.66456 0.877752,-8.60938 0.747107,-15.43292 -0.278515,-14.54672 2.935798,-38.078929 5.797938,-42.447107 3.289848,-5.020944 2.588896,-9.349506 -1.66651,-10.291133 -2.224001,-0.492121 -5.240483,-3.003428 -7.666667,-6.382717 -2.2,-3.064251 -4.58211,-6.350648 -5.293578,-7.303103 C 80.188789,59.358236 84.693398,38.915991 88.11897,34.248249 91.824954,29.198413 90.607927,21.720046 85.243789,16.580876 80.549875,12.083821 80.179202,7.404305 84.333335,5.0869875 88.658666,2.6741708 124.89452,3.5042221 128.95714,6.1091808 c 3.55369,2.2786347 3.04199,4.3006642 -3.14888,12.4429652 -5.34476,7.029503 -5.49966,8.974387 -1.18803,14.917343 8.83517,12.178004 10.54288,19.102912 13.44751,54.53051 2.64782,32.295441 2.39593,37.376971 -1.95992,39.537531 -1.77403,0.87995 -3.68035,2.41265 -4.23626,3.40601 -0.55591,0.99336 -0.44591,9.88743 0.24446,19.76462 0.69037,9.87717 0.88246,23.6585 0.42686,30.62517 L 131.71454,194 l 4.76918,4.32908 c 4.87786,4.4277 5.2121,7.26065 1.07986,9.15242 -3.56098,1.63026 -83.381105,1.76099 -86.344425,0.14143 z m 56.523755,-11.81084 c 13.5868,-3.30327 15.31361,-7.46389 15.46851,-37.27028 0.12952,-24.92319 -0.40065,-27.28726 -6.30825,-28.12843 -3.00822,-0.42834 -5.08701,-5.311 -6.88131,-16.16283 -0.70652,-4.27297 -1.30629,-5.01649 -3.76447,-4.66667 -3.80591,0.54161 -4.64469,6.63707 -4.82766,35.08278 -0.0755,11.73334 -0.63495,22.11814 -1.24329,23.07732 -2.022806,3.18948 -8.071398,0.37528 -10.834549,-5.04094 -3.393588,-6.65199 -26.461183,-26.48264 -28.46938,-24.47444 -0.48538,0.48538 -0.856174,2.4325 -0.823986,4.32696 0.05716,3.36441 0.597748,5.02229 6.557651,20.1111 1.593119,4.03334 4.1361,12.13334 5.65107,18 3.179617,12.31296 5.62067,14.97343 14.399423,15.69371 12.278471,1.00744 14.964761,0.93756 21.076241,-0.54828 z m 21.04141,-78.66911 c 0.51792,-0.83803 0.8324,-10.47882 0.69882,-21.423975 -0.17871,-14.64352 -0.95435,-22.896031 -2.93631,-31.241141 -4.05171,-17.059879 -6.83375,-21.778013 -8.62741,-14.631479 -0.96257,3.835163 1.53346,65.522995 2.72951,67.458245 1.14086,1.84595 6.96616,1.7302 8.13539,-0.16165 z M 108,64.062736 c 0,-4.174644 -2.91243,-9.399674 -5.21402,-9.35417 -2.72022,0.05377 -7.23377,6.201328 -6.313598,8.599257 0.611918,1.594631 2.885256,2.32292 9.860958,3.159067 C 107.25,66.57677 108,65.494898 108,64.062736 Z m 10.66667,-20.695163 c 0,-3.057623 -7.49089,-6.229036 -13.638,-5.773908 -8.594412,0.636325 -8.092042,3.739668 0.60538,3.739668 4.25744,0 8.24515,0.798374 9.77778,1.957596 3.24136,2.45164 3.25484,2.451957 3.25484,0.07664 z m -5.29079,-22.812795 c 1.82511,-4.800428 0.69437,-5.888112 -6.12123,-5.888112 -5.28987,0 -5.92131,0.327026 -5.92131,3.066667 0,4.106771 2.40104,6.266667 6.96633,6.266667 2.8232,0 4.09434,-0.862727 5.07621,-3.445222 z"
       id="path678" />
  </g>
</svg>
