<?xml version="1.0" encoding="UTF-8" standalone="no"?>
<!-- Created with Inkscape (http://www.inkscape.org/) -->

<svg
   version="1.1"
   id="svg193"
   width="216"
   height="220"
   viewBox="0 0 216 220"
   xmlns="http://www.w3.org/2000/svg"
   xmlns:svg="http://www.w3.org/2000/svg">
  <defs
     id="defs197" />
  <g
     id="g199">
    <path
       style="fill:#000000;stroke-width:1.33333"
       d="m 45.170983,215.24093 c -10.727739,-1.75476 -14.532336,-3.31716 -24.564156,-10.08756 -4.973959,-3.35688 -7.159454,-6.1872 -11.0689058,-14.33472 -4.4973005,-9.37264 -4.8630323,-11.03906 -4.764148,-21.70742 0.078336,-8.45151 0.7109049,-12.47695 2.3549529,-14.98608 3.2448429,-4.95226 15.3300569,-14.15024 19.7546789,-15.03516 5.89847,-1.1797 4.51079,-3.64322 -4.550072,-8.07766 -9.998711,-4.89344 -14.7241325,-9.5425 -14.1098335,-13.88184 0.6900938,-4.87475 6.3041195,-4.82628 11.4578775,0.0989 5.711375,5.4581 12.587608,8.10391 21.061322,8.10391 7.477093,0 14.960826,-2.0808 13.321561,-3.70397 -0.534733,-0.52948 -4.967947,-0.96269 -9.851584,-0.96269 -8.321837,0 -8.90736,-0.19802 -9.325563,-3.15378 -0.59902,-4.23374 0.606803,-5.17971 9.582683,-7.51763 10.035483,-2.61391 11.922716,-2.52943 18.504576,0.82839 5.312651,2.71031 7.605421,2.8388 57.123028,3.20131 38.01939,0.27834 52.41864,-0.0415 54.74541,-1.2161 2.99378,-1.51129 3.1612,-2.28083 3.2347,-14.867989 0.1296,-22.196827 0.2435,-22.423988 11.97784,-23.890096 7.86082,-0.982146 14.50294,0.672976 15.75081,3.924881 0.36544,0.952327 0.81611,11.176797 1.00148,22.721044 0.30813,19.18925 0.1232,21.14595 -2.15681,22.81309 -3.02372,2.211 3.76008,1.99344 -72.65083,2.32995 l -63.333333,0.27891 -6.43726,4.17437 c -3.540494,2.2959 -8.790494,4.57194 -11.666667,5.05787 -2.876173,0.48592 -5.222523,1.28076 -5.214109,1.76631 0.0084,0.48553 2.36274,2.00711 5.231837,3.38127 7.440868,3.56382 13.014833,9.88552 14.873193,16.86838 4.167928,15.66116 -4.742756,29.29982 -19.142761,29.29982 -12.555883,0 -19.224617,-7.57063 -17.371271,-19.72062 0.998186,-6.5438 3.549623,-9.23572 9.745963,-10.28258 10.03056,-1.69466 14.487151,4.87254 5.314408,7.83126 -3.885995,1.25346 -4.735625,2.21763 -5.078881,5.76358 -0.346758,3.58209 0.224978,4.5878 3.600453,6.33333 5.319264,2.75069 5.899383,2.67059 10.854611,-1.49897 3.988773,-3.35632 4.21148,-4.00774 3.656824,-10.69616 -0.459298,-5.53852 -1.438262,-8.00692 -4.40269,-11.10112 -6.25899,-6.53298 -16.761428,-8.38906 -24.304954,-4.29539 -5.314907,2.88425 -14.01199,15.93799 -13.102978,19.66667 0.357558,1.46666 1.056807,5.22497 1.553887,8.35178 0.712699,4.48312 2.629033,7.54671 9.063756,14.48999 12.531728,13.52213 15.453689,14.98185 29.637595,14.80608 12.150369,-0.15057 17.85571,1.45305 17.85571,5.01881 0,4.60324 -12.936205,6.39816 -28.16235,3.9076 z M 195.33333,98.684927 c 0,-11.830948 -0.33241,-14.045758 -2.16094,-14.397899 -2.94006,-0.566205 -3.799,3.361652 -3.82086,17.472372 -0.0177,11.43675 0.0641,11.74771 2.9818,11.33333 2.8933,-0.41091 3,-0.92335 3,-14.407803 z M 167.70976,210.18595 c -1.07736,-1.07735 -2.60725,-3.65994 -3.39976,-5.73906 -0.79252,-2.07912 -3.02968,-7.98022 -4.97147,-13.11356 -1.9418,-5.13333 -4.9454,-12.33333 -6.67468,-16 -7.41061,-15.71302 -10.30133,-24.93857 -8.82769,-28.17286 3.30603,-7.25595 11.88293,3.67956 20.08981,25.61438 1.4746,3.94126 3.22166,8.22924 3.88232,9.52887 5.09902,10.0304 8.55116,19.5092 8.69174,23.86544 0.14948,4.63248 -0.19362,5.20595 -3.3324,5.56989 -1.92447,0.22315 -4.38052,-0.47574 -5.45787,-1.5531 z M 205.0012,209 c -1.19633,-0.91667 -3.46421,-4.96667 -5.03975,-9 -1.57553,-4.03333 -4.0537,-10.33333 -5.50706,-14 -1.45336,-3.66667 -4.4705,-11.76667 -6.70474,-18 -2.23424,-6.23333 -4.59193,-11.90333 -5.23929,-12.6 -0.64736,-0.69667 -1.17703,-3.26549 -1.17703,-5.70851 0,-5.05713 2.8466,-6.97525 6.20959,-4.18421 2.75329,2.28503 8.89624,15.49576 14.79901,31.82605 2.51818,6.96667 5.9834,16.55099 7.70048,21.2985 2.25302,6.22925 2.72894,9.10542 1.70986,10.33333 -1.78447,2.15016 -3.97563,2.16147 -6.75107,0.0348 z M 26.315752,65.393153 C 19.730641,62.819508 12.549581,56.285775 10.56285,51.060275 9.6738752,48.722093 9.9851027,47.745007 11.954586,46.690971 c 3.915714,-2.095627 5.351689,-1.69931 11.241425,3.102536 3.543833,2.889254 7.466514,4.723022 11.137322,5.206458 C 37.45,55.410421 40,55.503343 40,55.206457 c 0,-0.296884 -1.186391,-1.726181 -2.636425,-3.176216 -5.187531,-5.18753 -0.514554,-9.065962 12.932553,-10.733633 7.017221,-0.870255 9.567467,-0.62082 14.133055,1.382325 5.04046,2.211496 10.711772,2.48593 59.570817,2.882628 L 178,46 178.66667,27.555143 C 179.48112,5.0213069 179.70788,4.7030384 194,6.0342873 c 6.16032,0.5738074 9.89995,1.5956455 11,3.0057092 0.93823,1.2026325 1.72499,6.2499005 1.80009,11.5481765 0.0733,5.176504 0.25687,13.911827 0.40776,19.411827 0.34286,12.497219 -0.20406,15.55806 -2.99485,16.760704 -1.21715,0.524512 -31.45952,1.150069 -67.20527,1.390127 L 72.015455,58.5873 62.921069,63.293649 c -8.22224,4.255015 -10.109002,4.70037 -19.674394,4.643986 -7.02539,-0.04141 -12.713756,-0.896295 -16.930923,-2.544482 z M 51.666667,56.492952 C 56.925892,55.083535 54.894824,53.333333 48,53.333333 c -3.666667,0 -6.666667,0.55 -6.666667,1.222223 0,2.369425 5.131287,3.331491 10.333334,1.937396 z M 196.25831,37 C 196.85167,17.857111 196.86865,18 194,18 c -2.43835,0 -2.69993,1.018411 -3.05523,11.894476 -0.43025,13.170367 0.0125,15.438857 3.01339,15.438857 1.58821,0 2.09923,-1.851358 2.30015,-8.333333 z"
       id="path817" />
  </g>
</svg>
