<?xml version="1.0" encoding="UTF-8" standalone="no"?>
<!-- Created with Inkscape (http://www.inkscape.org/) -->

<svg
   version="1.1"
   id="svg183"
   width="222.66667"
   height="204"
   viewBox="0 0 222.66667 204"
   xmlns="http://www.w3.org/2000/svg"
   xmlns:svg="http://www.w3.org/2000/svg">
  <defs
     id="defs187" />
  <g
     id="g189">
    <path
       style="fill:#000000;stroke-width:1.33333"
       d="m 88.666668,197.952 c -26.574975,-3.82624 -47.082543,-10.55688 -52.666667,-17.28533 -1.007874,-1.21442 -4.570185,-3.59838 -7.916249,-5.29771 -7.20953,-3.66141 -17.62987,-13.9446 -21.5322607,-21.24885 -2.2367051,-4.18652 -2.5020166,-5.8348 -1.347163,-8.36943 1.3131854,-2.88213 2.1627935,-3.13095 9.7835377,-2.86517 4.590006,0.16008 18.545468,0.21534 31.012135,0.1228 21.448896,-0.15923 60.150989,0.27452 129.220469,1.4482 27.08192,0.46021 30.74589,0.78189 32.24419,2.83093 1.2737,1.74189 1.32945,3.10389 0.22617,5.52533 -1.22719,2.69338 -0.98764,3.72091 1.47973,6.3473 3.72995,3.97034 8.16278,15.52188 8.16278,21.27145 0,5.25719 -5.26314,10.87185 -11.33334,12.09029 -5.72813,1.14978 -13.87478,-3.84726 -17.76278,-10.89544 -1.70703,-3.0945 -3.70776,-5.62637 -4.4461,-5.62637 -0.73833,0 -5.03716,2.16543 -9.55296,4.81207 -15.08213,8.8394 -35.90378,15.92005 -52.35838,17.80509 -14.28737,1.63677 -17.69977,1.56844 -33.213112,-0.66516 z m 28.666672,-9.91404 c 6.23333,-0.70132 15.53333,-2.33331 20.66666,-3.62664 21.00916,-5.2932 52.67502,-24.85504 47.91871,-29.60216 -0.44591,-0.44504 -9.91003,-0.68213 -21.03139,-0.52688 -11.12136,0.15525 -47.37065,0.35095 -80.553985,0.43487 C 20.279322,154.87916 20.396908,154.86631 27,160.97904 32.156591,165.75269 48.245738,176 50.584185,176 c 1.227088,0 4.264205,1.5 6.749149,3.33333 2.484944,1.83334 5.664904,3.33334 7.06658,3.33334 1.401676,0 6.08323,0.91593 10.403452,2.03542 6.480919,1.67938 19.439261,3.65359 29.196634,4.44815 1.1,0.0896 7.1,-0.41096 13.33334,-1.11228 z m 88,-11.11645 c 0,-5.12266 -2.09904,-8.28559 -6.33334,-9.54339 -2.71701,-0.80709 -3,-0.44248 -3,3.86536 0,5.00863 3.69306,10.08985 7.33334,10.08985 1.37482,0 2,-1.37909 2,-4.41182 z m -65,-86.296393 c -1.65,-0.663218 -3.06236,-1.975186 -3.13858,-2.915485 -0.47758,-5.892203 0.3733,-62.150477 0.96978,-64.118944 0.54246,-1.790193 1.8143,-2.304131 4.94942,-2 L 147.33334,22 l 0.37568,32 c 0.20662,17.6 0.0452,33.35 -0.35874,35 -0.78461,3.205037 -2.2449,3.543241 -7.01694,1.625117 z m 27.89114,-0.35463 c -0.87305,-1.051968 -1.804,-14.187031 -2.37634,-33.528739 -0.88815,-30.013701 -0.80242,-31.900553 1.52694,-33.60382 1.35736,-0.992527 3.84183,-1.804595 5.52103,-1.804595 3.61816,0 5.11008,4.267236 4.10709,11.747202 C 176.64039,35.78624 176.78268,48.8 177.3194,62 c 0.53672,13.2 0.47427,25.35 -0.13877,27 -1.25315,3.372833 -6.58377,4.129016 -8.95615,1.270487 z M 202,90.957833 c -1.46666,-0.302502 -3.10668,-0.961786 -3.64449,-1.465073 -1.15143,-1.077539 -2.53065,-63.484893 -1.46444,-66.263401 1.07492,-2.801214 9.2698,-2.470642 10.37852,0.418657 1.14512,2.984112 2.30129,58.557449 1.31569,63.240597 -0.81688,3.881467 -2.48824,4.914244 -6.58528,4.06922 z M 43.302054,69.206164 C 37.452591,63.269553 30.416667,56.962027 27.666667,55.189437 c -3.019513,-1.946312 -5,-4.272524 -5,-5.87283 0,-1.457467 -1.139188,-3.69994 -2.531529,-4.983274 -1.392342,-1.283333 -4.092342,-3.746309 -6,-5.47328 -3.134696,-2.837785 -3.468471,-4.080438 -3.468471,-12.9132 0,-12.580442 1.359825,-15.892622 7.893159,-19.2256797 11.95997,-6.1015223 22.672784,-1.7109352 25.259961,10.3526557 1.406058,6.55622 0.257114,15.161244 -2.772617,20.765555 -1.625699,3.007172 -2.664444,14.731129 -1.620641,18.291607 0.343601,1.172045 2.157481,2.829358 4.030844,3.68292 9.166352,4.176469 18.295673,14.937578 15.925699,18.77228 -1.977871,3.200261 -5.993095,0.858189 -16.081018,-9.380027 z M 28.778423,39 c 0.382103,-1.283333 1.864937,-4.733333 3.295191,-7.666667 3.153831,-6.46825 3.203491,-7.828842 0.439706,-12.04691 -2.133626,-3.256327 -5.000289,-4.039159 -9.070937,-2.477104 -2.55244,0.979462 -2.843852,9.75833 -0.617429,18.600254 1.528261,6.069279 4.654125,7.954428 5.953469,3.590427 z"
       id="path1036" />
  </g>
</svg>
