<?xml version="1.0" encoding="UTF-8" standalone="no"?>
<!-- Created with Inkscape (http://www.inkscape.org/) -->

<svg
   version="1.1"
   id="svg173"
   width="226.66667"
   height="210.66667"
   viewBox="0 0 226.66667 210.66667"
   xmlns="http://www.w3.org/2000/svg"
   xmlns:svg="http://www.w3.org/2000/svg">
  <defs
     id="defs177" />
  <g
     id="g179">
    <path
       style="fill:#000000;stroke-width:1.33333"
       d="m 144.69991,204.35644 c -3.10973,-0.78829 -3.38033,-1.11786 -15.1181,-18.41252 -15.68108,-23.10484 -21.85654,-31.80084 -25.85412,-36.40662 -4.562802,-5.257 -4.394599,-8.33742 0.55021,-10.07642 4.62711,-1.62726 12.19323,1.66335 22.6998,9.87246 9.75117,7.61889 16.70109,12 19.03606,12 1.00588,0 2.1643,0.54273 2.57426,1.20608 0.40997,0.66334 3.89538,3.01445 7.74536,5.22468 8.13886,4.67244 14.33329,10.22466 14.33329,12.84732 0,1.58806 -21.83893,24.98605 -22.93029,24.56725 -0.22167,-0.0851 -1.58808,-0.45507 -3.03647,-0.82223 z m 8.39343,-17.127 c 3.06533,-2.62381 5.57333,-5.32488 5.57333,-6.00236 0,-0.67749 -6.01809,-5.28073 -13.37353,-10.22944 -16.94114,-11.39789 -22.26179,-14.47344 -23.27906,-13.45616 -0.44607,0.44607 2.06828,4.80183 5.58744,9.67947 3.51917,4.87764 7.71468,10.79833 9.32338,13.15708 4.9213,7.21587 8.56205,11.62197 9.60318,11.62197 0.54556,0 3.49992,-2.14676 6.56526,-4.77056 z m 54.30069,15.5043 c -2.09583,-2.31587 -2.34539,-5.66156 -2.28636,-30.65216 0.0732,-31.02042 0.88859,-35.1034 7.15475,-35.82902 2.25796,-0.26146 4.58872,0.59858 6.32348,2.33334 2.60785,2.60785 2.74744,4.23777 2.74744,32.08077 0,27.55556 -0.16162,29.49495 -2.66667,32 -3.38527,3.38527 -8.24355,3.41417 -11.27264,0.0671 z M 30.666667,186.80303 C 19.3,186.36136 9.1760335,185.46888 8.1689632,184.81972 c -2.4689506,-1.59146 -1.1758746,-12.299 2.3019728,-19.06186 3.437296,-6.68402 8.54735,-11.304 17.529064,-15.84802 14.54329,-7.3577 37.078402,-3.48814 45.728004,7.85207 4.938137,6.47424 10.242809,18.06097 10.258972,22.40817 0.02015,5.41931 -2.745167,6.73039 -13.580022,6.43854 -5.357157,-0.14431 -11.840286,0.0211 -14.406953,0.36753 -2.566667,0.34644 -13.966667,0.26855 -25.333334,-0.17312 z m 27.000001,-12.07636 c 12.775945,0.0823 13.467129,-0.45316 8.887713,-6.88436 -8.239841,-11.57179 -30.742252,-12.44019 -42.205687,-1.62879 -7.675874,7.2393 -3.749395,10.1268 12.317973,9.05858 5.133334,-0.34128 14.583334,-0.58674 21.000001,-0.54543 z M 94.000001,60.618666 C 67.425026,56.792428 46.917458,50.061791 41.333334,43.333334 40.325461,42.118922 36.76315,39.734955 33.417086,38.035631 26.207555,34.374218 15.787215,24.09103 11.884825,16.786779 9.6481196,12.600254 9.3828081,10.95197 10.537662,8.417342 11.850847,5.535214 12.700455,5.2864016 20.321199,5.5521797 24.911206,5.712259 38.866667,5.7675136 51.333334,5.6749676 72.78223,5.515742 111.48433,5.949488 180.5538,7.12318 c 27.08192,0.4602007 30.7459,0.7818849 32.24419,2.8309311 1.27371,1.7418889 1.32945,3.1038879 0.22617,5.5253329 -1.22718,2.693366 -0.98764,3.720896 1.47974,6.347286 3.72994,3.970354 8.16277,15.521887 8.16277,21.271451 0,5.257198 -5.26313,10.871865 -11.33333,12.090297 -5.72814,1.149775 -13.87479,-3.847267 -17.76279,-10.895443 -1.70703,-3.094502 -3.70776,-5.626368 -4.44609,-5.626368 -0.73834,0 -5.03716,2.165431 -9.55296,4.812067 -15.08214,8.839399 -35.90379,15.920052 -52.35838,17.805099 -14.28738,1.636771 -17.69977,1.568429 -33.213119,-0.665167 z M 122.66667,50.70463 C 128.9,50.003307 138.2,48.371318 143.33334,47.077989 164.3425,41.784785 196.00835,22.22295 191.25204,17.47583 190.80614,17.03079 181.34202,16.793691 170.22066,16.948943 159.0993,17.104195 122.85,17.299887 89.666668,17.383815 25.612655,17.54582 25.730242,17.532978 32.333334,23.64571 c 5.156591,4.773649 21.245737,15.020957 23.584184,15.020957 1.227088,0 4.264206,1.5 6.74915,3.333334 2.484944,1.833333 5.664904,3.333333 7.06658,3.333333 1.401676,0 6.083229,0.91594 10.403452,2.035423 6.480919,1.679374 19.43926,3.653594 29.19663,4.448144 1.1,0.08957 7.10001,-0.410948 13.33334,-1.112271 z m 88,-11.116456 c 0,-5.122653 -2.09904,-8.285592 -6.33333,-9.543391 -2.71702,-0.807088 -3,-0.442473 -3,3.865367 0,5.008624 3.69305,10.089851 7.33333,10.089851 1.37483,0 2,-1.379092 2,-4.411827 z"
       id="path1175" />
  </g>
</svg>
