<?xml version="1.0" encoding="UTF-8" standalone="no"?>
<!-- Created with Inkscape (http://www.inkscape.org/) -->

<svg
   version="1.1"
   id="svg83"
   width="224"
   height="213.33333"
   viewBox="0 0 224 213.33333"
   xmlns="http://www.w3.org/2000/svg"
   xmlns:svg="http://www.w3.org/2000/svg">
  <defs
     id="defs87" />
  <g
     id="g89">
    <path
       style="fill:#000000;stroke-width:1.33333"
       d="M 90.666667,206.75814 C 80.920328,205.92765 67.398689,202.31558 55,197.23041 c -1.65,-0.67673 -4.65,-1.89995 -6.666667,-2.71827 -2.016666,-0.81832 -4.566666,-2.01204 -5.666666,-2.6527 -1.1,-0.64067 -4.1,-2.31011 -6.666667,-3.70988 -6.287177,-3.4288 -30.6666667,-27.26542 -30.6666667,-29.98379 0,-1.19117 1.1654918,-3.33127 2.5899816,-4.75576 2.4839241,-2.48392 5.1456121,-2.59921 65.0000001,-2.81563 34.325515,-0.12413 65.710015,-0.1052 69.743355,0.042 4.03333,0.14723 20.65348,0.36426 36.93365,0.4823 20.27617,0.14702 30.08351,0.6979 31.13421,1.74882 1.15628,1.15654 1.10911,2.7089 -0.19166,6.30611 -1.56506,4.32808 -1.46804,5.05344 1.04316,7.79912 9.0326,9.87603 9.64289,27.44791 1.15792,33.34016 -2.2712,1.5772 -11.8081,1.07524 -15.18743,-0.79936 -1.71059,-0.94891 -4.42681,-4.07765 -6.03605,-6.95276 -1.8296,-3.26881 -4.06323,-5.39061 -5.96136,-5.66291 -1.67996,-0.24098 -9.32804,2.60054 -17.12682,6.36322 -7.75022,3.73925 -16.26804,7.34332 -18.92848,8.00904 -2.66042,0.66572 -8.13714,2.15682 -12.17048,3.31356 -8.69624,2.49402 -30.81883,3.52484 -46.666663,2.17444 z m 32.000003,-11.5554 c 5.5,-1.09465 12.4,-2.4979 15.33333,-3.11833 6.82511,-1.44355 20.80285,-6.55896 23.10112,-8.45428 0.97229,-0.80181 4.04452,-2.6966 6.82717,-4.21065 12.40776,-6.75108 19.67296,-12.8286 18.19476,-15.22039 -0.921,-1.4902 -159.456383,-1.68791 -159.456383,-0.19884 0,0.54457 2.25,3.43177 5,6.41601 3.404438,3.69443 10.114317,7.97986 21.0267,13.42922 16.542281,8.26078 21.400757,9.45753 47.243409,11.63712 3.998564,0.33725 7.548564,0.89162 7.888884,1.23196 0.95588,0.95586 4.00106,0.64566 14.84101,-1.51182 z m 84,-10.38837 c 0,-3.98931 -4.35638,-9.57555 -6.45563,-8.27813 -1.67056,1.03245 -0.78536,6.93442 1.4694,9.79709 2.17739,2.76441 4.98623,1.90875 4.98623,-1.51896 z M 57.102848,138.56418 C 56.092673,137.99885 52.359673,137.19449 48.807291,136.7767 36.976709,135.38533 32.243345,133.33768 22.550907,125.41821 13.025202,117.63498 11.652852,115.53314 7.8148363,102.84904 5.8808261,96.457402 7.6287708,85.965993 12.191256,76.581156 c 3.483809,-7.166049 4.781427,-8.50269 11.410919,-11.754098 9.818434,-4.815412 18.228406,-5.761935 26.57204,-2.990626 12.087158,4.01471 17.889636,11.571366 18.214048,23.720436 0.201393,7.542136 -0.237906,9.114509 -4.116626,14.734552 -4.961284,7.18862 -11.672554,9.90495 -20.847456,8.43782 -6.776418,-1.08359 -9.728061,-3.76366 -11.53485,-10.473572 -3.015218,-11.197659 5.372654,-22.004505 14.568861,-18.770372 4.412049,1.551635 4.881533,6.323716 0.681047,6.922524 -1.573418,0.224303 -3.953518,1.615305 -5.28911,3.091117 -2.193994,2.424338 -2.239201,3.020291 -0.468414,6.175167 1.169428,2.083481 3.77142,3.961272 6.451216,4.655676 3.737105,0.96838 5.001014,0.68494 7.52686,-1.68797 4.558325,-4.282323 5.466802,-13.12779 2.038481,-19.847854 -3.381335,-6.627964 -5.153877,-7.566838 -16.064939,-8.50923 -9.892793,-0.854443 -15.069844,1.09756 -20.163492,7.602625 -2.647006,3.380477 -3.052114,5.466733 -3.106873,16 -0.06153,11.836299 0.05301,12.289079 5.020665,19.846009 2.795999,4.25334 6.395999,8.24379 8,8.86765 9.242246,3.5947 18.41226,5.39899 27.439471,5.39899 10.733613,0 16.70694,2.31376 15.317956,5.9334 -1.2309,3.20766 -13.309804,6.54941 -16.738212,4.63078 z m 87.503222,-19.17024 c -4.01982,-4.01981 -4.11055,-7.18851 -0.41368,-14.44706 4.87688,-9.575447 9.20856,-14.187516 17.87896,-19.036281 11.20421,-6.265755 18.95404,-7.117903 30.32373,-3.334314 4.80504,1.599015 9.45531,3.773494 10.33393,4.832174 0.87863,1.05868 2.37363,1.924873 3.32222,1.924873 2.0439,0 8.60502,8.129457 11.73345,14.538188 2.97251,6.0893 2.86897,13.79029 -0.223,16.58849 -2.13319,1.93051 -6.64581,2.20665 -36.06061,2.20665 h -33.62228 z m 60.27113,-10.79512 c 1.09333,-2.84919 -4.17888,-8.16807 -12.08485,-12.191822 -5.63275,-2.866789 -7.57338,-3.20005 -13.97608,-2.400085 C 165.28096,95.698037 156,101.46314 156,108.17981 c 0,2.33497 1.46833,2.48685 24.04184,2.48685 20.49111,0 24.15904,-0.3054 24.83536,-2.06784 z M 8.3953013,60.636102 C 6.3312365,59.129394 5.8870459,55.968319 5.1831845,37.777133 4.5477284,21.35387 4.7618736,16.023022 6.1476625,13.76779 8.6405555,9.7108592 13.112328,8.5417617 15.815343,11.240279 c 1.801048,1.79805 2.259101,5.904935 2.608616,23.388691 0.25848,12.929919 -0.11536,22.215393 -0.957778,23.789466 -1.805949,3.374447 -6.061064,4.414746 -9.0708797,2.217666 z M 106.86471,58.864711 c -3.17076,-3.170759 -4.45844,-12.709501 -4.43226,-32.832681 0.0193,-14.809766 0.23265,-16.1395364 2.94187,-18.3333332 3.48385,-2.8210483 6.57537,-3.0044234 9.8825,-0.5861861 3.13887,2.2951926 4.64787,18.0716903 3.53097,36.9160153 -0.6681,11.272258 -1.23265,13.84506 -3.38303,15.417456 -3.45053,2.523092 -5.58067,2.378105 -8.54005,-0.581271 z m 95.79474,-2.510056 c -2.49004,-3.165577 -2.76917,-4.788778 -2.12084,-12.333333 0.41063,-4.778395 1.13136,-14.572609 1.60164,-21.764922 0.76018,-11.6256 1.19111,-13.2971165 3.8829,-15.0608386 4.27748,-2.8027196 9.74176,-1.166972 10.97441,3.2852286 0.53589,1.935566 0.98067,12.722042 0.98839,23.969947 0.0136,19.891813 -0.072,20.520409 -3.13366,22.999999 -4.43761,3.593924 -8.81308,3.200591 -12.19284,-1.096081 z"
       id="path1314" />
  </g>
</svg>
