<?xml version="1.0" encoding="UTF-8" standalone="no"?>
<!-- Created with Inkscape (http://www.inkscape.org/) -->

<svg
   version="1.1"
   id="svg215"
   width="104"
   height="198.66667"
   viewBox="0 0 104 198.66667"
   xmlns="http://www.w3.org/2000/svg"
   xmlns:svg="http://www.w3.org/2000/svg">
  <defs
     id="defs219" />
  <g
     id="g221">
    <path
       style="fill:#000000;stroke-width:1.33333"
       d="m 10.909002,191.5572 c -3.2433661,-1.44724 -4.0026128,-6.85224 -1.1180305,-7.95916 0.9850345,-0.37798 5.2020615,-1.11344 9.3711725,-1.63434 4.91146,-0.61364 7.989241,-1.71282 8.742024,-3.12206 1.420208,-2.65868 7.48456,-41.41286 8.68608,-55.5083 0.584871,-6.86132 2.094739,-12.88976 3.756861,-15 2.124506,-2.69729 6.093494,-1.91787 8.435543,1.65655 1.850247,2.82383 1.965541,4.57703 0.767236,11.66667 C 48.774265,126.24545 47.534623,134.5 46.795129,140 c -0.739494,5.5 -1.93667,12.4 -2.660392,15.33334 -4.17164,16.90818 -5.220941,23.99601 -3.696037,24.96601 2.872769,1.82739 27.095192,1.20219 28.707871,-0.74097 1.478789,-1.78184 1.203625,-32.30194 -0.915632,-101.558379 L 67.333333,48.666667 50.897853,49.069691 C 40.537509,49.323745 32.651952,48.875979 29.56452,47.858323 22.241611,45.444601 10.759135,36.274649 9.906502,32.15935 9.5085021,30.238375 8.5781124,26.257275 7.8389692,23.312463 6.4853815,17.91965 7.687928,11.840962 10.445537,10.136666 c 2.524133,-1.56 7.009423,3.999198 8.832118,10.946781 3.703606,14.117078 5.285854,14.916554 29.521438,14.916554 H 63.93152 l 1.881877,-3.666667 c 1.237371,-2.410904 1.650019,-6.039268 1.204882,-10.594362 -0.372347,-3.810232 -0.287231,-8.480638 0.189146,-10.378678 1.09284,-4.3542216 6.079999,-6.8589322 9.748116,-4.8958155 2.540395,1.3595779 2.6635,3.7488975 3.768262,73.1371765 0.62814,39.452425 1.17225,78.031685 1.209134,85.731685 0.03688,7.7 0.552474,14.75 1.145752,15.66666 0.621492,0.96026 3.851092,1.66667 7.619755,1.66667 5.05564,0 6.848147,0.57379 7.893293,2.52665 1.514333,2.82956 0.139179,4.51387 -4.962984,6.07871 -4.863238,1.49157 -79.439936,1.74867 -82.719751,0.28517 z"
       id="path243" />
  </g>
</svg>
