<?xml version="1.0" encoding="UTF-8" standalone="no"?>
<!-- Created with Inkscape (http://www.inkscape.org/) -->

<svg
   version="1.1"
   id="svg205"
   width="214.66667"
   height="108"
   viewBox="0 0 214.66667 108"
   xmlns="http://www.w3.org/2000/svg"
   xmlns:svg="http://www.w3.org/2000/svg">
  <defs
     id="defs209" />
  <g
     id="g211">
    <path
       style="fill:#000000;stroke-width:1.33333"
       d="m 132.30528,104.34399 c -0.93209,-0.3217 -2.64471,-2.42199 -3.80581,-4.66731 -1.819,-3.51756 -1.88153,-5.164096 -0.45197,-11.900484 1.00767,-4.748395 1.37453,-12.379551 0.93432,-19.435508 -0.61053,-9.786092 -0.31994,-12.41098 1.84343,-16.65154 l 2.56822,-5.034119 -3.23807,-9.660848 -3.23806,-9.660848 -6.37396,-0.925033 c -3.50567,-0.508768 -6.92861,-0.582236 -7.60652,-0.163264 -0.67791,0.418973 1.5816,3.382584 5.02113,6.585803 6.91405,6.439008 9.77772,13.346949 7.38574,17.816401 -0.79065,1.477352 -2.25967,2.686093 -3.26449,2.686093 -2.27917,0 -12.42069,-8.382334 -16.0414,-13.258794 -1.48748,-2.003371 -4.4518,-5.485928 -6.587388,-7.739018 l -3.882884,-4.096525 -31.117116,-0.02589 -31.117118,-0.02589 v 5.763737 c 0,6.230397 -1.251876,7.382373 -8.022578,7.382373 -3.881896,0 -4.912406,-1.109129 -14.066764,-15.139917 C 9.3995515,23.366461 7.0929812,18.738788 6.1182801,15.909697 4.6174954,11.553637 4.6374613,10.349913 6.2486536,8.0496141 9.4526717,3.4752373 14.167636,4.5958089 18.130571,10.873504 l 3.497356,5.540171 55.519372,-0.960006 c 30.535651,-0.528004 59.419371,-1.178337 64.186041,-1.445186 50.13529,-2.806692 58.4428,-3.057694 62.89674,-1.90036 5.76066,1.496868 6.71272,3.285648 4.2975,8.074217 -2.13191,4.226816 -3.89059,4.509856 -30.97407,4.984948 C 166.79908,25.35594 156.65,25.83552 155,26.233023 c -4.49457,1.082789 -3.80444,6.222418 2.3521,17.516664 6.02824,11.058908 6.41442,13.764805 2.6479,18.553152 -1.78132,2.26458 -2.67344,5.433121 -2.68708,9.54364 -0.0245,7.392828 -0.90277,8.998464 -5.56148,10.167725 -4.83277,1.212949 -6.91677,3.991229 -9.6028,12.801973 -2.25957,7.411943 -5.86433,10.901143 -9.84336,9.527813 z"
       id="path382" />
  </g>
</svg>
