<?xml version="1.0" encoding="UTF-8" standalone="no"?>
<!-- Created with Inkscape (http://www.inkscape.org/) -->

<svg
   version="1.1"
   id="svg83"
   width="437.33334"
   height="730.66669"
   viewBox="0 0 437.33334 730.66669"
   xmlns="http://www.w3.org/2000/svg"
   xmlns:svg="http://www.w3.org/2000/svg">
  <defs
     id="defs87" />
  <g
     id="g89">
    <path
       style="fill:#000000;stroke-width:1.33333"
       d="m 277.67488,722.75924 c -2.37881,-0.59715 -5.1429,-1.76444 -6.14245,-2.59398 -1.01017,-0.83837 -3.58176,-1.15537 -5.78996,-0.71373 -7.20265,1.44053 -11.42247,-6.97784 -5.97081,-11.91152 3.21309,-2.90781 4.92034,-2.78353 8.06024,0.58673 1.70188,1.82676 3.49853,2.50898 5.19202,1.97148 1.42428,-0.45204 3.97099,-0.31089 5.65936,0.31367 2.8966,1.07153 7.13711,0.19597 24.34256,-5.02608 2.89171,-0.87767 8.62564,-4.89283 13.50324,-9.4556 4.66258,-4.3616 9.15976,-7.93019 9.99376,-7.93019 2.63029,0 6.80033,8.45496 6.80551,13.7985 0.007,6.3638 -2.88268,12.63622 -8.14172,17.67765 l -4.02369,3.85719 -19.58147,0.2558 c -10.7698,0.14068 -21.52777,-0.23278 -23.90659,-0.82992 z m -20.87929,-26.97976 c -1.17091,-1.67171 -2.12892,-3.97247 -2.12892,-5.11279 0,-4.10124 4.08295,-8.17267 7.76469,-7.74279 4.98835,0.58243 7.17364,5.44996 4.89435,10.90167 -2.24713,5.3748 -7.45693,6.34149 -10.53012,1.95391 z m 16.52867,-2.46308 c -1.93123,-3.60855 -0.76135,-14.88287 1.98501,-19.12974 1.17813,-1.82184 1.86503,-6.83821 1.90013,-13.87653 0.0303,-6.06278 0.72582,-12.27671 1.54575,-13.80876 0.8752,-1.63534 1.15449,-5.342 0.67637,-8.97678 -1.58061,-12.01622 -1.88181,-22.23705 -0.77184,-26.19124 1.42602,-5.08009 4.11008,-18.77553 4.70358,-24 0.24992,-2.2 0.88329,-5.74378 1.40752,-7.87509 0.73272,-2.97904 0.37694,-4.29641 -1.53863,-5.69711 -2.21472,-1.61944 -2.51235,-3.93104 -2.67697,-20.79157 -0.1168,-11.95758 0.43856,-21.06794 1.50233,-24.6463 1.55583,-5.23356 1.48232,-8.42333 -0.31472,-13.6566 -0.37772,-1.1 -0.89121,-17.6 -1.14109,-36.66666 -0.41318,-31.52598 -1.25566,-43.04138 -4.29212,-58.66667 l -1.03644,-5.33334 -6.63656,-0.14809 c -3.65012,-0.0815 -8.4981,-0.9296 -10.7733,-1.88477 -5.14836,-2.16138 -8.17184,-1.08262 -9.93057,3.5432 -0.74833,1.96826 -3.13933,5.60452 -5.31332,8.08056 -2.174,2.47604 -3.95272,5.36018 -3.95272,6.4092 0,1.04901 -1.8,4.7456 -4,8.21464 -2.2,3.46904 -4,7.11248 -4,8.09652 0,0.98405 -3.53019,8.81658 -7.84485,17.40562 -4.31467,8.58906 -8.56822,17.88771 -9.45232,20.66369 -2.82194,8.86044 -5.07239,9.48844 -30.45106,8.49748 -12.23848,-0.47787 -24.05177,-1.36132 -26.25177,-1.96322 -7.55716,-2.06753 -5.18905,-10.91482 2.92151,-10.91482 2.82284,0 3.07981,-0.58132 3.09432,-7 0.009,-3.85001 0.89522,-10.30001 1.97004,-14.33334 1.63901,-6.15048 1.73313,-11.61895 0.58352,-33.90293 -0.7539,-14.61328 -1.70912,-27.11716 -2.12275,-27.7864 -0.42184,-0.68258 -2.88025,-0.76782 -5.59933,-0.19416 -2.66602,0.56246 -6.85228,1.06636 -9.30282,1.11974 -6.69502,0.14588 -8.34657,6.16632 -7.34045,26.75844 0.64591,13.21954 0.3616,17.39774 -1.63344,24.00531 -3.31915,10.99293 -3.03959,21.99347 0.69208,27.23411 1.59548,2.24064 3.24028,6.16547 3.65512,8.72184 0.65249,4.0208 0.32341,4.81175 -2.43893,5.86199 -3.9854,1.51525 -86.605823,3.25348 -88.612601,1.86429 -2.609721,-1.80656 -4.242585,-6.18385 -5.213357,-13.97567 -0.522615,-4.19472 -1.783317,-8.31818 -2.801561,-9.16325 -1.018244,-0.84508 -1.851354,-2.55598 -1.851354,-3.802 0,-1.24603 -3.317846,-6.42256 -7.372993,-11.5034 -4.383355,-5.49207 -8.16333,-11.88878 -9.322103,-15.77543 -1.072009,-3.59563 -3.154156,-8.57992 -4.626995,-11.07619 -1.472837,-2.49628 -3.367138,-7.3544 -4.209558,-10.79582 -0.84242,-3.44143 -2.89129,-8.98628 -4.553045,-12.3219 -2.5992068,-5.21736 -3.0814458,-8.57078 -3.4513089,-24 -0.3909664,-16.30957 -0.095567,-19.11689 3.2590069,-30.97177 2.028919,-7.1701 3.548789,-15.11763 3.377489,-17.66119 -0.1713,-2.54356 0.426252,-5.36236 1.327894,-6.264 4.150766,-4.15077 30.861356,-3.39325 52.343264,1.48447 3.357742,0.76241 12.357742,2.06953 20.000001,2.90472 7.642258,0.83518 16.413981,1.81362 19.492711,2.17429 4.10433,0.48084 6.19377,1.56552 7.83202,4.0658 1.94089,2.96216 2.39352,3.12555 3.44645,1.24407 2.04398,-3.65239 10.28882,-4.82492 28.98116,-4.12155 12.25744,0.46124 19.08982,1.30931 21.78758,2.70437 2.63176,1.36094 5.59646,1.75092 8.97344,1.18038 3.29547,-0.55676 6.76086,-0.13435 9.9997,1.21893 3.84817,1.60787 5.5864,1.73387 7.77333,0.56345 1.76713,-0.94574 10.43365,-1.47396 23.25671,-1.41748 19.18614,0.0845 20.63504,-0.0877 23.62149,-2.80818 5.47443,-4.98683 5.44767,-8.06228 -0.0932,-10.70452 -4.75112,-2.26566 -4.82977,-2.42938 -4.12393,-8.58503 0.5681,-4.95447 0.114,-7.2576 -2.1573,-10.942 -2.90218,-4.70776 -3.89873,-10.70528 -5.6494,-34 -0.69341,-9.22659 -0.38134,-14.06114 1.35026,-20.9181 1.71224,-6.7803 1.89948,-9.57697 0.7811,-11.66666 -0.80898,-1.51172 -1.97654,-2.74858 -2.59452,-2.74858 -2.55685,0 -11.61864,4.45795 -13.83453,6.80591 -2.6004,2.75537 -8.25857,3.38839 -9.68319,1.08332 -0.53568,-0.86675 -1.82392,0.0661 -3.22214,2.33333 -2.71026,4.39458 -14.7858,18.33066 -23.78022,27.44411 -7.60452,7.70518 -9.78693,7.87527 -22.55213,1.75771 -11.34759,-5.43819 -14.46741,-9.87893 -13.23864,-18.84386 1.15867,-8.45341 4.4786,-14.16032 10.64948,-18.30628 3.05,-2.04917 9.69901,-6.99917 14.77559,-11 5.07657,-4.00084 9.91432,-7.27424 10.75054,-7.27424 0.83623,0 3.24492,-1.8 5.35266,-4 2.10773,-2.2 4.87394,-4 6.14716,-4 1.2732,0 4.01316,-1.35 6.08881,-3 2.07565,-1.65 5.27169,-3.84297 7.10231,-4.87326 6.54918,-3.68599 27.99505,-21.71814 27.99505,-23.53884 0,-1.02111 2.126,-3.79118 4.72444,-6.15571 6.04984,-5.50523 5.64195,-8.78967 -1.58577,-12.76889 -3.04512,-1.67648 -5.88652,-4.38037 -6.32623,-6.02003 -0.43903,-1.63714 -3.29035,-4.4766 -6.33625,-6.30994 -3.04591,-1.83333 -11.42176,-9.33333 -18.613,-16.66666 -21.10479,-21.52179 -21.64071,-22 -24.65451,-22 -1.58519,0 -3.62909,0.9 -4.54201,2 -2.13863,2.57689 -12.37659,2.61884 -24.4152,0.10004 -10.63463,-2.22506 -15.01207,-4.76847 -18.0458,-10.48507 -1.21312,-2.285947 -5.01944,-7.132174 -8.45849,-10.769396 -7.26483,-7.683471 -9.16308,-14.23995 -5.93187,-20.48844 1.10487,-2.136581 2.94842,-4.66446 4.09677,-5.617508 4.3097,-3.576729 1.19168,-12.236568 -6.52507,-18.122417 -2.53868,-1.936349 -5.02185,-4.817365 -5.51815,-6.402258 -0.49629,-1.584892 -2.01982,-4.312538 -3.38561,-6.061435 -1.36579,-1.748896 -2.48325,-3.956039 -2.48325,-4.904762 0,-2.774529 3.92615,-5.915427 7.39433,-5.915427 2.13132,0 3.85966,-1.227472 5.16286,-3.666666 2.66631,-4.99055 9.48363,-11.9549988 12.70248,-12.9766197 3.70145,-1.1747965 6.74344,0.7799772 15.4999,9.9602277 10.71755,11.236219 20.38919,13.309201 27.37946,5.868404 1.64586,-1.75194 4.01232,-3.185346 5.25878,-3.185346 4.60088,0 14.67092,6.908176 17.20804,11.804941 1.38544,2.673949 6.18254,8.459412 10.66022,12.856583 8.86154,8.702224 11.2183,14.076528 10.88717,24.826798 -0.12507,4.058684 0.49777,6.725449 1.82859,7.829927 1.10998,0.921217 2.01817,3.455073 2.01817,5.630793 0,3.161354 2.07537,6.019675 10.33333,14.231689 11.16164,11.099532 16.18674,14.819272 20.01976,14.819272 1.3458,0 3.25522,0.75 4.24315,1.66667 1.47612,1.36964 1.62324,1.19142 0.82551,-1 -6.005,-16.496065 -7.31643,-23.021315 -9.44256,-46.983189 -1.77515,-20.006226 -1.34531,-26.29423 2.07958,-30.420967 0.82727,-0.996804 1.19207,-2.3173 0.81066,-2.934438 -0.38142,-0.617137 -0.19866,-1.922696 0.40612,-2.901244 0.83282,-1.34754 1.31849,-1.089492 2.00186,1.063662 1.29172,4.069849 4.47864,3.507056 7.11794,-1.256994 4.98456,-8.997356 4.71628,-8.863152 11.31214,-5.658628 4.28698,2.082768 7.41154,2.687949 11.23215,2.175496 6.72831,-0.902455 11.17729,1.363413 20.76491,10.575575 5.63688,5.416138 7.63164,8.372374 8.36265,12.393411 0.528,2.904354 2.14576,7.637836 3.59503,10.518849 2.2398,4.452534 2.53216,7.052329 1.94924,17.333333 -0.37718,6.652322 -1.09102,13.357137 -1.58632,14.89959 -0.85983,2.67759 -0.60934,2.756583 5.53714,1.746148 9.18291,-1.509601 9.77105,-1.4558 9.77105,0.893836 0,3.567895 3.2155,1.263831 4.07052,-2.916724 0.81885,-4.003777 6.45946,-14.598532 10.84716,-20.374199 2.93813,-3.867566 3.08854,-9.061636 0.41748,-14.415922 -3.3592,-6.733683 -3.93764,-15.398299 -1.38682,-20.773758 1.2417,-2.616665 3.17022,-5.107769 4.2856,-5.535785 2.13198,-0.818115 11.92579,2.066748 16.30859,4.80385 1.97207,1.231572 3.01507,1.241819 4.45859,0.0438 1.44978,-1.203208 2.4313,-1.1639 4.25613,0.170452 2.27241,1.661627 2.27161,1.834502 -0.0192,4.125269 -2.18284,2.182837 -2.52768,2.203998 -3.96152,0.243101 -2.29425,-3.137583 -3.56816,-2.734374 -10.42219,3.298787 -6.61365,5.821575 -7.58633,8.901783 -3.85438,12.205881 2.7031,2.393216 6.11744,2.294876 11.457,-0.329982 3.50346,-1.722259 3.96316,-1.634146 6.07398,1.164246 1.75202,2.322687 3.08435,2.826566 5.72288,2.164336 5.04926,-1.267281 6.20934,-9.666656 2.35614,-17.059175 -2.3492,-4.50704 -2.546,-5.886843 -1.19875,-8.404228 2.56559,-4.793821 8.39429,-6.351042 23.44015,-6.262354 14.83761,0.08747 19.53182,1.703601 21.7428,7.485689 1.53538,4.01526 -2.9386,11.790687 -10.21532,17.75341 -3.14172,2.5744 -5.71222,5.43887 -5.71222,6.36549 0,0.926619 1.56419,4.63645 3.47599,8.244067 4.10459,7.745497 4.7492,19.293846 1.29031,23.115882 -1.15476,1.276037 -2.09959,3.890749 -2.09959,5.810471 0,2.74032 -1.53396,4.50859 -7.13801,8.228346 -3.9259,2.60587 -8.16306,4.73794 -9.4159,4.73794 -1.25284,0 -5.39073,-1.41767 -9.19533,-3.15038 -11.70041,-5.328679 -15.15321,-6.404235 -19.10744,-5.952014 -3.32653,0.380438 -3.90748,1.112478 -4.57831,5.769064 -0.67513,4.68649 -3.2827,7.9207 -21.49989,26.66666 -11.40236,11.73334 -23.81406,24.33334 -27.58152,28.00001 -3.76747,3.66666 -6.84252,7.33574 -6.83344,8.15352 0.009,0.81777 -1.29372,3.15253 -2.8951,5.18836 l -2.9116,3.70149 4.57827,4.03189 C 322.56222,192.99597 328,198.77442 328,201.65117 c 0,2.2063 1.41342,3.80565 5.00001,5.65778 2.75,1.42011 8.40545,5.75655 12.56768,9.63654 4.16222,3.87998 8.09604,7.05452 8.74181,7.05452 1.92671,0 19.96856,17.6 23.61513,23.0368 10.43978,15.565 10.2211,17.46051 -3.69381,32.01612 -9.90789,10.36411 -11.61592,11.61375 -15.87385,11.61375 -3.50012,0 -6.25948,-1.24332 -10.35696,-4.66667 -3.0721,-2.56667 -5.98935,-4.66667 -6.48279,-4.66667 -2.58067,0 -14.28735,-13.35994 -17.11088,-19.52736 -2.13594,-4.66548 -5.4012,-8.80967 -9.49736,-12.05373 -3.43327,-2.7191 -9.36475,-8.2757 -13.18107,-12.34802 -4.27303,-4.55966 -6.96229,-6.5872 -7,-5.27754 -0.0337,1.16968 1.2026,3.26968 2.74731,4.66666 4.17638,3.77704 7.1785,10.74996 9.13026,21.20666 0.95816,5.13333 2.30284,10.04173 2.98819,10.90757 1.72831,2.18343 1.77044,9.30898 0.0673,11.37958 -0.77489,0.94206 -2.3792,5.06312 -3.56512,9.15789 -1.1859,4.09477 -4.09262,10.05265 -6.45936,13.23976 -2.36673,3.18709 -5.80314,8.46072 -7.63648,11.71916 -2.52162,4.48177 -4.59861,6.34963 -8.5293,7.67049 -2.85778,0.96034 -6.15778,2.72042 -7.33334,3.9113 -1.96154,1.98712 -1.94542,2.27414 0.19598,3.48933 2.8596,1.62273 3.046,5.0018 0.33333,6.04275 -3.68021,1.41224 -2.053,4.17576 3,5.09496 2.75,0.50025 7.7,1.75214 11,2.78197 5.4714,1.70745 15.87901,4.38483 28,7.20304 2.56667,0.59676 8.26667,2.9174 12.66667,5.15696 9.53845,4.85499 18.37463,8.2158 34.60153,13.1606 8.79367,2.67968 15.84002,8.62464 18.89846,15.94452 1.02802,2.4604 2.3395,4.47346 2.9144,4.47346 3.90952,0 24.25228,32.36441 24.25228,38.58429 0,3.11239 6.02586,26.07827 9.2925,35.41571 2.79715,7.99545 5.58722,34.0586 5.13842,48 -0.118,3.66667 0.42937,15.61704 1.21645,26.55639 0.78709,10.93934 1.12224,20.69453 0.74479,21.67817 -0.37747,0.98365 -2.27012,2.15425 -4.2059,2.60135 -1.93578,0.44708 -6.06838,2.26648 -9.18358,4.04312 -9.12596,5.20465 -21.1328,8.45431 -31.23699,8.45431 -8.10565,0 -9.63129,-0.41106 -12.62067,-3.40043 -2.76849,-2.7685 -3.19808,-4.06939 -2.3116,-7 1.46604,-4.84663 1.15015,-13.74784 -0.86752,-24.44428 -1.15773,-6.1376 -1.26312,-10.0145 -0.34429,-12.66667 1.51623,-4.37656 0.61975,-25.51541 -1.12789,-26.59552 -0.63826,-0.39443 -1.16043,-3.72119 -1.16043,-7.39279 0,-3.6716 -0.57163,-7.74373 -1.27029,-9.0492 -0.69867,-1.30546 -1.48232,-8.46684 -1.74146,-15.91417 l -0.47114,-13.54062 -4.92523,-4.51133 c -3.24857,-2.97559 -4.92521,-5.68665 -4.92521,-7.96392 0,-2.55759 -1.12334,-4.01973 -4.33334,-5.64036 -2.38333,-1.20327 -5.72682,-3.91868 -7.42997,-6.03424 -1.70315,-2.11556 -4.17968,-3.84648 -5.5034,-3.84648 -1.32373,0 -3.15371,-0.9 -4.06663,-2 C 328.58531,422.15879 324,422.04649 324,424.50343 c 0,1.0102 -0.8678,2.55694 -1.92844,3.4372 -3.02604,2.51138 -2.62933,46.066 0.57132,62.72605 2.69328,14.01908 3.31815,37.65952 1.27956,48.40899 -1.18208,6.23308 -2.28366,29.15349 -3.2485,67.59102 -0.19328,7.7 -1.1263,24.7004 -2.07336,37.77866 -1.32498,18.29683 -1.36215,24.77367 -0.16126,28.09467 2.59722,7.18246 2.0019,13.78579 -1.43932,15.96506 -4.63721,2.93668 -11.0181,3.88954 -12.64012,1.88756 -1.73056,-2.13596 -3.51744,-27.84307 -2.07552,-29.85969 0.57694,-0.80688 2.24898,-2.09768 3.71564,-2.86842 2.62111,-1.37744 2.66292,-2.644 2.44754,-74.1229 -0.12054,-39.99684 -0.60376,-73.93337 -1.07387,-75.41453 -0.47011,-1.48116 -0.11067,-4.06568 0.79873,-5.74339 2.21318,-4.08292 2.44099,-25.63513 0.34495,-32.63225 -1.20005,-4.00606 -1.32847,-7.95843 -0.45487,-14.00001 2.06215,-14.26134 1.62386,-24.35201 -1.16746,-26.87812 -3.12484,-2.82794 -4.629,-2.78056 -7.35503,0.23167 -1.37045,1.51432 -2.20665,4.72957 -2.20665,8.48468 0,3.32549 -0.58144,9.11227 -1.29208,12.85948 -0.71064,3.74721 -1.63728,20.47911 -2.0592,37.18199 -0.42191,16.70288 -1,36.96887 -1.28466,45.03553 -0.4239,12.01295 -0.0401,16.11416 2.1214,22.66667 2.42119,7.33983 2.64434,11.85097 2.70408,54.66667 0.0415,29.7312 -0.4816,49.32796 -1.44141,54 -0.88281,4.29731 -1.15057,11.49317 -0.64673,17.38119 1.04137,12.16983 0.51166,12.80689 -11.68804,14.05679 -8.24298,0.84452 -8.9074,0.70926 -10.42244,-2.1216 z M 406.95317,548.28455 c 5.31306,-8.99429 7.56402,-17.04807 6.26694,-22.42268 -3.72024,-15.41544 -3.95482,-18.22607 -1.79613,-21.52064 1.62877,-2.48583 1.95767,-5.53208 1.45152,-13.44432 -1.17575,-18.3796 -4.53873,-32.0061 -10.9446,-44.34646 -1.29917,-2.50274 -3.04939,-7.25044 -3.88937,-10.55044 -1.10036,-4.32286 -2.68587,-6.74538 -5.67224,-8.66666 -4.27075,-2.74758 -7.74318,-9.07504 -12.19916,-22.22928 -3.2348,-9.54932 -9.52811,-15.6739 -16.17012,-15.73662 -4.24844,-0.0401 -6.8233,-1.28718 -17.24626,-8.35276 -1.88122,-1.27525 -4.02041,-2.54337 -4.75374,-2.81802 -3.21203,-1.20303 -15.17074,-3.9759 -20.66667,-4.79199 -3.3,-0.49001 -7.31056,-1.60652 -8.91235,-2.48113 -1.60179,-0.87462 -5.20179,-1.61012 -8,-1.63447 -4.75725,-0.0413 -10.82059,-1.19109 -41.05496,-7.7846 -8.65949,-1.88846 -12.67187,-2.23276 -14.51632,-1.24564 -2.93133,1.56881 -26.82604,0.17842 -30.506,-1.77508 -1.27764,-0.67823 -12.97764,-1.80407 -26,-2.50188 -13.02237,-0.69782 -26.02075,-1.93327 -28.88527,-2.74547 -3.07837,-0.87284 -7.71302,-1.07485 -11.33333,-0.49399 -8.16383,1.30984 -14.46823,0.83832 -23.02738,-1.72228 -8.52942,-2.5517 -14.18448,-2.96653 -47.097729,-3.4549 -23.506109,-0.34879 -25.766097,-0.5996 -31.333334,-3.47738 -3.3,-1.70581 -6.445753,-3.86254 -6.990562,-4.79274 -0.54481,-0.9302 -4.05024,-2.42528 -7.789844,-3.32239 -9.654071,-2.31599 -10.399885,-1.21812 -11.383847,16.75733 l -0.799371,14.60329 4.841099,4.62004 c 5.925456,5.65489 10.039401,6.39673 47.455859,8.55744 7.7,0.44465 17.78596,1.10844 22.413245,1.47508 5.960214,0.47224 9.536914,0.0855 12.267124,-1.32631 4.5243,-2.33961 22.29248,-2.58405 36.65297,-0.50425 11.49542,1.66485 12.21457,1.68753 39.33333,1.24056 20.13581,-0.33188 54.24739,1.41834 67.33333,3.4548 2.93334,0.45649 14.33334,1.28698 25.33334,1.84556 20.09068,1.02018 35.56689,3.91088 39.3856,7.35654 1.12876,1.01848 6.06245,3.94204 10.96379,6.49679 22.70018,11.83213 50.58764,37.04787 55.38289,50.07699 5.55916,15.1047 5.76019,16.93792 6.01611,54.86168 l 0.25161,37.28575 5.33333,4.56293 c 2.93334,2.50963 5.95398,4.58547 6.71252,4.613 0.75856,0.0275 2.36684,-1.62189 3.57398,-3.6654 z M 111,479.63423 l 9,-0.0239 v -5.05981 c 0,-2.78289 0.62066,-5.4434 1.37924,-5.91223 0.87906,-0.54329 1.06175,-4.35588 0.50377,-10.51343 -0.85702,-9.4575 -0.78776,-9.7609 3.28743,-14.4023 4.67856,-5.32859 5.52331,-12.5108 2.1629,-18.38924 -1.04803,-1.83334 -1.92677,-6.71336 -1.95276,-10.8445 -0.0501,-7.97146 -1.13662,-9.08769 -8.8939,-9.1373 -1.57419,-0.0107 -3.85357,-1.55495 -5.09925,-3.4561 -1.59343,-2.43188 -2.90635,-3.15324 -4.48668,-2.46512 -1.22874,0.53503 -4.33408,1.17031 -6.90075,1.41172 -17.373193,1.63414 -26.666666,4.07367 -26.666666,7.00003 0,0.59485 0.953259,2.99241 2.118354,5.32791 1.832444,3.67322 1.918751,6.0811 0.639462,17.84053 -1.394425,12.81779 -1.325033,13.80231 1.214981,17.23785 1.853365,2.50682 2.69387,5.71252 2.69387,10.27447 0,5.19168 0.516154,6.79463 2.378179,7.38561 2.573155,0.81668 6.955155,7.34635 6.955155,10.36395 0,3.60084 3.128058,5.28872 8,4.31674 C 99.900002,480.07707 106.05,479.64736 111,479.63423 Z m 92.91779,-3.39879 c 3.56324,-2.6309 6.5946,-12.81795 6.69239,-22.49007 0.0311,-3.07338 0.57768,-5.91009 1.21469,-6.30378 0.637,-0.3937 1.53293,-3.05934 1.99096,-5.92364 0.45803,-2.86432 2.63684,-8.84396 4.8418,-13.28811 2.20497,-4.44415 4.00904,-9.27485 4.00904,-10.73491 0,-1.46006 0.56264,-4.13452 1.25032,-5.94325 0.99475,-2.61639 0.70855,-3.77892 -1.40013,-5.68724 -2.17111,-1.96483 -3.33004,-2.14212 -6.4081,-0.98028 -2.5031,0.94481 -4.54218,0.97929 -6.10753,0.10333 -1.66483,-0.93169 -3.63188,-0.70373 -6.74736,0.78194 -4.11668,1.9631 -4.60849,1.931 -7.70263,-0.50286 -4.68384,-3.6843 -7.1579,-3.24114 -9.67778,1.73348 -1.20727,2.38334 -3.12487,5.3935 -4.26134,6.68926 -1.53353,1.74846 -2.33549,7.24906 -3.11033,21.33333 -0.57421,10.43757 -1.63963,22.87741 -2.3676,27.64408 -1.48567,9.72806 -0.2286,12 6.63961,12 1.97859,0 5.01391,1.20719 6.74516,2.68264 3.65343,3.11363 9.26066,2.67987 14.39883,-1.11388 z M 65.845212,472.33335 c 1.088618,-7.29372 0.745956,-28.77683 -0.483827,-30.33334 -0.579401,-0.73333 -1.482985,-3.43333 -2.007967,-6 -0.52498,-2.56666 -3.294262,-11.75546 -6.153962,-20.41956 -2.859701,-8.66409 -5.199455,-17.77365 -5.199455,-20.24348 0,-6.01052 -4.606702,-7.83556 -8.097326,-3.20793 -2.111761,2.79963 -2.671274,2.93369 -5.631484,1.34944 -4.360613,-2.33372 -8.954844,-0.81011 -8.879333,2.94472 0.03219,1.60057 0.923154,5.31015 1.979924,8.24348 1.05677,2.93333 1.930436,8.39887 1.941477,12.14564 0.01441,4.89187 1.091516,8.83859 3.820744,14 2.090368,3.95323 4.175138,8.73147 4.632822,10.61829 0.457684,1.88684 2.850974,6.08684 5.318424,9.33334 2.467449,3.2465 4.90334,7.70273 5.41309,9.90273 1.73541,7.48973 3.67745,10.98539 6.925114,12.46512 1.783768,0.81275 3.243215,2.09058 3.243215,2.83963 0,0.74905 0.547261,1.36192 1.216136,1.36192 0.668874,0 1.551958,-2.25 1.962408,-5 z M 278.23592,313.00001 c 2.2508,-2.38333 4.47994,-5.98333 4.95363,-8 0.58736,-2.50056 1.71492,-3.66667 3.54549,-3.66667 1.54847,0 3.14371,-1.24209 3.77015,-2.93553 1.72049,-4.65093 0.118,-47.83291 -1.91968,-51.73114 -5.12309,-9.80056 -24.28367,-26.66666 -30.2944,-26.66666 -0.66837,0 -0.83837,2.82916 -0.38056,6.33333 0.58001,4.43935 0.22528,7.46273 -1.18619,10.10995 -1.10749,2.07714 -2.40493,8.67714 -2.88318,14.66666 -0.47826,5.98954 -1.51119,12.09006 -2.29542,13.55673 -0.78424,1.46666 -1.51388,9.86666 -1.62144,18.66666 -0.15086,12.34367 0.26931,16.71298 1.83868,19.11996 1.11883,1.71598 3.0438,5.01598 4.27771,7.33334 4.63799,8.71037 15.51651,10.28534 22.19521,3.21337 z m 76.51841,-55.71358 c 1.41845,-0.75913 2.57901,-2.24608 2.57901,-3.3043 0,-1.05823 -7.05,-8.87254 -15.66667,-17.36512 -22.02719,-21.70999 -23.11435,-22.68152 -28.33333,-25.31982 -2.56667,-1.29749 -6.52331,-3.77016 -8.79252,-5.4948 -4.7146,-3.58317 -8.28224,-4.02766 -9.37938,-1.16857 -0.85881,2.23803 14.8501,20.69952 17.61326,20.69952 0.94588,0 5.20852,3.98231 9.47253,8.84956 7.49663,8.55719 26.15811,24.48377 28.6881,24.48377 0.682,0 2.40054,-0.6211 3.819,-1.38024 z m -169.86969,-6.75858 c 3.05322,-2.12364 6.07588,-3.86118 6.71703,-3.86118 0.64115,0 3.24307,-1.77561 5.78203,-3.94581 2.53897,-2.1702 5.53476,-3.9702 6.65732,-4 1.12256,-0.0297 2.72044,-1.85419 3.55085,-4.05419 0.96035,-2.54424 2.44785,-4 4.08725,-4 1.41759,0 4.99156,-2.55 7.94219,-5.66666 2.95061,-3.11667 7.63376,-7.16667 10.40699,-9 2.77322,-1.83334 7.50137,-5.74972 10.50697,-8.70308 3.0056,-2.95336 7.56473,-6.20392 10.1314,-7.22347 7.23883,-2.87544 8.15021,-3.86912 6.28623,-6.85383 -1.00631,-1.61134 -3.09892,-2.55296 -5.67363,-2.55296 -2.2436,0 -4.71055,-0.63128 -5.48212,-1.40285 -1.48316,-1.48316 -2.49171,-0.95327 -21.03208,11.05035 -9.53676,6.17438 -15.39569,12.31264 -19.42639,20.3525 -1.16964,2.33304 -3.26101,4.17827 -5.01841,4.42779 -1.65719,0.23527 -4.95719,2.85917 -7.33333,5.83089 -2.37615,2.97171 -7.86988,7.71642 -12.20831,10.54379 -7.00745,4.5668 -12.74481,10.65316 -12.76984,13.54663 -0.0193,2.2414 11.67053,-0.86739 16.87585,-4.48792 z m 91.64939,-79.60946 c 1.63124,-7.73268 -0.0747,-9.2195 -6.33803,-5.52402 -5.5626,3.28201 -6.21065,6.66532 -1.86266,9.72442 4.64622,3.26894 6.86472,2.13263 8.20069,-4.2004 z m -22.37859,-23.58505 c -0.45216,-1.83334 -1.1951,-4.98334 -1.65098,-7 -1.03194,-4.5649 -8.97443,-13.10143 -15.17112,-16.30581 -2.56667,-1.32726 -24.09752,-21.70633 -47.84635,-45.286834 -40.86867,-40.579011 -43.38897,-42.82768 -47.09009,-42.014776 -5.30703,1.16562 -6.05524,4.053423 -2.16439,8.353679 1.78507,1.972888 4.413,5.930627 5.83987,8.794973 1.42686,2.864348 4.29406,6.164349 6.37156,7.333334 2.07749,1.168987 7.3774,5.394984 11.77757,9.391106 4.40017,3.996121 9.11189,7.896121 10.47048,8.666667 12.49969,7.08937 38.84233,30.847381 40.64045,36.652971 0.55396,1.78859 3.78079,5.98859 7.17072,9.33334 3.38994,3.34474 7.89511,8.63135 10.01151,11.74801 2.58272,3.80338 4.81925,5.66667 6.80177,5.66667 1.62456,0 5.29296,1.75891 8.152,3.90869 6.45328,4.8524 7.73258,4.9974 6.687,0.75798 z M 327.37024,125 c 9.72161,-9.71666 20.92509,-20.55109 24.89662,-24.07649 5.43471,-4.824214 7.68013,-7.9576 9.07708,-12.666669 1.02085,-3.441261 2.08009,-7.006838 2.35385,-7.923505 0.29923,-1.001927 -0.75272,-1.666667 -2.63749,-1.666667 -2.24591,0 -5.20476,2.515578 -10.43109,8.868379 -9.01563,10.958811 -25.2129,28.762202 -37.42095,41.131622 -9.48906,9.61448 -11.48163,14 -6.36096,14 1.8749,0 8.88377,-6.03341 20.52294,-17.66667 z m -38.24493,-6.71065 c 2.34877,-0.21746 3.57691,-1.61449 4.94288,-5.62268 0.99967,-2.93333 2.65845,-5.87675 3.68619,-6.54093 1.46416,-0.94624 1.57324,-2.16996 0.50397,-5.65397 -0.97659,-3.182004 -0.92121,-5.419551 0.19473,-7.868799 0.85766,-1.882343 1.20796,-4.822603 0.77844,-6.533912 -0.4295,-1.71131 -0.13226,-3.512338 0.66044,-4.002287 2.45772,-1.518952 1.64632,-16.94211 -1.35958,-25.843081 -2.13899,-6.333897 -3.71458,-8.766548 -6.66667,-10.293136 C 289.73958,44.831087 288,43.017965 288,41.901396 c 0,-2.536271 -8.15581,-6.207899 -9.93333,-4.471844 -0.69667,0.680413 -2.90309,1.237116 -4.90317,1.237116 -3.08475,0 -4.13027,1.062079 -6.89087,7 -4.53143,9.746936 -5.54461,17.503321 -2.82797,21.649437 1.63061,2.488628 1.92856,4.880067 1.23565,9.918016 -0.80611,5.861172 -0.50903,7.168366 2.53665,11.161464 1.89735,2.487537 3.46879,5.966159 3.49211,7.730273 0.0233,1.764113 0.92516,4.374672 2.00409,5.801242 1.07892,1.42657 2.95351,6.12861 4.16575,10.44898 2.081,7.41666 2.39715,7.80908 5.66257,7.02891 1.90219,-0.45447 4.86491,-0.95651 6.58383,-1.11564 z M 169.07944,92.843718 c 0.40162,-6.314162 0.22136,-6.667222 -6.66666,-13.05859 -6.68526,-6.203211 -11.1519,-8.932834 -18.07944,-11.04859 -2.84403,-0.868601 -3,-0.555682 -3,6.018922 0,12.664288 1.86842,16.165238 11.12956,20.853924 4.5321,2.294496 9.99401,4.057278 12.20377,3.938663 3.8054,-0.204265 4.02008,-0.530435 4.41277,-6.704329 z m 232.84497,-9.14039 c 1.14157,-1.629839 2.0756,-5.29286 2.0756,-8.140048 v -5.176706 l -5,0.653483 c -6.65574,0.86988 -14.98964,4.130099 -16.44904,6.434852 -0.64724,1.022135 -1.18599,3.508427 -1.19722,5.525094 -0.0203,3.649902 0.0219,3.666666 9.23732,3.666666 8.05518,0 9.52734,-0.384926 11.33334,-2.963341 z M 197.33334,61.210307 c 0,-0.800998 1.2,-2.981913 2.66666,-4.846477 1.46667,-1.864566 2.66667,-4.140872 2.66667,-5.058462 0,-2.514088 -15.38456,-17.972034 -17.88671,-17.972034 -1.19861,0 -2.75145,1.504884 -3.45074,3.344187 -1.31654,3.462727 1.02334,9.112436 6.83277,16.497923 1.37757,1.751299 2.50468,3.973451 2.50468,4.938117 0,0.964664 1.05,2.365502 2.33333,3.112976 3.0534,1.778438 4.33334,1.773645 4.33334,-0.01623 z m 179.6724,-13.543639 c -1.57953,-4.295163 2.55517,-6.74222 5.46595,-3.234941 1.06972,1.288928 1.04182,2.188104 -0.10347,3.333333 -2.04669,2.046694 -4.59088,2.000014 -5.36255,-0.09839 z"
       id="path2774" />
  </g>
</svg>
