<?xml version="1.0" encoding="UTF-8" standalone="no"?>
<!-- Created with Inkscape (http://www.inkscape.org/) -->

<svg
   version="1.1"
   id="svg195"
   width="210.66667"
   height="214.66667"
   viewBox="0 0 210.66667 214.66667"
   xmlns="http://www.w3.org/2000/svg"
   xmlns:svg="http://www.w3.org/2000/svg">
  <defs
     id="defs199" />
  <g
     id="g201">
    <path
       style="fill:#000000;stroke-width:1.33333"
       d="m 98.128035,206 c -3.448027,-1.83333 -7.340774,-3.33333 -8.650548,-3.33333 -5.177503,0 -19.639998,-12.61025 -20.83025,-18.16249 -0.452464,-2.11063 -1.675521,-5.4171 -2.717904,-7.34771 C 63.451985,172.56814 63.078849,159.57524 65.206877,152 c 1.248543,-4.44449 3.864216,-8.13946 10.089322,-14.25248 10.366881,-10.18021 18.286621,-13.08783 35.385431,-12.99126 9.94108,0.0561 12.23244,0.5453 18.4784,3.94478 7.34268,3.99638 14.74941,11.52328 18.30379,18.60076 1.11357,2.21735 2.36848,8.83416 2.78869,14.70403 0.70907,9.90488 0.45421,11.41667 -3.54335,21.01925 -5.28425,12.69334 -11.39948,18.22126 -25.43998,22.99675 -12.17871,4.14224 -15.31517,4.13928 -23.141145,-0.0219 z M 112,196.9044 c 0,-2.51417 -31.437025,-34.23773 -33.928499,-34.23773 -1.139325,0 -2.0715,0.51749 -2.0715,1.15 0,2.11987 7.581384,10.71959 20.129831,22.83369 C 108.06959,198.17683 112,200.71635 112,196.9044 Z m 15.77778,-4.86764 C 127.53334,191.32364 117.57912,180.82364 105.6573,168.70343 92.013224,154.8323 82.996605,146.66667 81.323961,146.66667 c -1.46151,0 -2.657293,0.37917 -2.657293,0.84263 0,5.26941 41.095442,45.82404 46.435132,45.82404 1.71623,0 2.92042,-0.58346 2.67598,-1.29658 z M 85.360076,188.6989 c -0.927627,-1.11774 -2.30612,-2.03223 -3.063317,-2.03223 -0.757199,0 -0.287411,1.20368 1.043973,2.67484 2.757423,3.04692 4.595844,2.46188 2.019344,-0.64261 z m 50.325594,-7.08922 c 0.49619,-1.48856 -17.21348,-20.80125 -28.27883,-30.83853 -2.8929,-2.62413 -7.2629,-6.72115 -9.711106,-9.10448 -4.795203,-4.66813 -8.362399,-5.61589 -8.362399,-2.2218 0,2.63423 42.405415,44.86444 44.387225,44.20384 0.79536,-0.26512 1.67966,-1.18268 1.96511,-2.03903 z m 2.981,-15.11833 c 0,-1.8748 -5.30908,-8.0006 -15.60012,-18 C 108.95182,134.77663 102.8575,130.39543 104.29985,135 c 0.598,1.90906 31.84837,33.90555 33.36682,34.16347 0.55,0.0935 1,-1.10903 1,-2.67212 z m -6.75621,-25.91999 c -3.0949,-3.29437 -5.24379,-4.1547 -5.24379,-2.09938 0,0.62624 1.60274,2.86802 3.56165,4.98172 2.40849,2.5988 3.74983,3.27852 4.14288,2.09938 0.31968,-0.95904 -0.78765,-3.20081 -2.46074,-4.98172 z M 34.426178,35.000001 c -1.873336,-2.016667 -5.05999,-6.546334 -7.081452,-10.065926 -2.199752,-3.830015 -4.467331,-6.23896 -5.647894,-6 -1.084878,0.219592 -3.065541,3.283633 -4.401473,6.80898 C 13.263828,36.381735 9.3094255,38.999351 6.5195008,32.876133 5.3160592,30.234866 6.0392694,27.874446 11.200831,17.597162 14.558394,10.911855 18.447631,4.8308027 19.84358,4.0837133 23.067826,2.3581496 28.853538,6.5888438 31.431551,12.5572 33.390662,17.092735 39.499279,25.05192 40.213819,24 c 0.249067,-0.366666 2.583452,-4.866666 5.187524,-10 3.838671,-7.5670602 5.393519,-9.4110341 8.216129,-9.7439199 2.832173,-0.3340138 4.249294,0.7054353 7.598657,5.5735671 2.264463,3.2912848 4.117205,6.5330558 4.117205,7.2039368 0,2.18128 5.182527,5.976256 7.137079,5.226224 1.979943,-0.759774 6.196255,-8.17606 6.196255,-10.898906 0,-0.859502 1.466783,-2.9407015 3.259516,-4.6248875 3.780413,-3.5515142 9.394055,-2.9782387 10.685656,1.0912391 0.434265,1.3682477 1.974256,3.5598464 3.4222,4.8702184 1.447946,1.310372 2.632628,3.489503 2.632628,4.842512 0,1.353008 0.6,2.460016 1.333332,2.460016 0.73333,0 1.33333,-0.525 1.33333,-1.166666 0,-0.641667 1.8,-1.526667 4.00001,-1.966667 2.2,-0.44 4.02438,-1.565 4.05418,-2.5 0.0298,-0.935 1.78681,-3.725836 3.90446,-6.2018571 5.29016,-6.1854261 8.46406,-5.0574992 16.51127,5.8677141 8.91283,12.100406 11.00714,11.573655 17.62501,-4.4329749 2.13258,-5.1580786 2.77498,-5.6935768 6.39806,-5.3333334 3.96831,0.3945693 4.98051,1.6165771 14.13002,17.0587243 0.99485,1.679067 1.73685,1.46983 4.72826,-1.333333 1.95154,-1.828717 4.41874,-5.402981 5.48268,-7.942809 2.63368,-6.2871244 5.52023,-9.2141976 8.35547,-8.4727646 1.30419,0.3410513 4.65651,4.6259649 7.44959,9.5220306 2.79309,4.896064 6.5614,11.134398 8.374,13.862963 4.01321,6.041196 3.34685,11.717611 -1.37174,11.685223 -4.43165,-0.03041 -5.56492,-1.186145 -10.2004,-10.402548 -2.33002,-4.63263 -4.85826,-8.215682 -5.6183,-7.962335 -0.76003,0.253347 -3.3545,4.024624 -5.76547,8.380619 -2.41096,4.355993 -5.32105,8.511337 -6.46687,9.234096 -2.86402,1.806585 -8.85722,-1.544329 -10.49468,-5.867784 -0.70025,-1.848896 -2.37332,-4.561631 -3.71792,-6.028298 -1.34461,-1.466666 -2.65464,-3.816946 -2.91118,-5.222845 -0.74106,-4.061125 -3.62119,-3.996957 -5.30135,0.118107 -6.35239,15.558343 -7.99183,17.771405 -13.16509,17.771405 -4.28154,0 -6.53158,-2.343 -11.2038,-11.666667 -4.56914,-9.117977 -7.45797,-9.256568 -10.60366,-0.508706 -3.00277,8.350439 -6.60958,12.175373 -11.48105,12.175373 -3.62224,0 -9.378162,-5.03668 -9.378162,-8.206308 0,-1.983877 -6.617667,-11.793692 -7.955984,-11.793692 -0.690725,0 -3.3913,4.5 -6.001276,10 -4.2087,8.868992 -5.158077,9.997691 -8.394075,9.979583 -2.006767,-0.0112 -4.305137,-0.461229 -5.107492,-1 -1.115643,-0.749139 -6.352136,-9.875887 -10.760312,-18.754276 -0.630911,-1.270702 -5.780862,2.841414 -5.780862,4.615882 0,1.144384 -1.043362,3.973274 -2.318584,6.286422 -5.499348,9.975368 -8.462136,11.083224 -13.921905,5.205723 z"
       id="path521" />
  </g>
</svg>
