<?xml version="1.0" encoding="UTF-8" standalone="no"?>
<!-- Created with Inkscape (http://www.inkscape.org/) -->

<svg
   version="1.1"
   id="svg185"
   width="81.333336"
   height="162.66667"
   viewBox="0 0 81.333336 162.66667"
   xmlns="http://www.w3.org/2000/svg"
   xmlns:svg="http://www.w3.org/2000/svg">
  <defs
     id="defs189" />
  <g
     id="g191">
    <path
       style="fill:#000000;stroke-width:1.33333"
       d="m 55.694847,157.66667 c -1.128484,-1.28333 -3.708731,-7.73333 -5.733883,-14.33333 -5.209469,-16.97775 -10.090563,-28.66667 -11.970707,-28.66667 -1.630565,0 -13.039524,25.311 -14.724531,32.66667 -1.558251,6.80232 -4.289048,10 -8.539946,10 -2.675498,0 -4.135552,-0.80703 -4.704778,-2.6005 -0.7843769,-2.47136 2.817221,-13.23788 8.94262,-26.73284 1.497879,-3.3 3.198885,-7.5 3.780015,-9.33333 0.581129,-1.83333 2.375858,-6.63333 3.988287,-10.66667 4.252901,-10.638218 4.60106,-15.309773 1.765357,-23.687368 -2.037257,-6.01872 -3.725636,-8.28613 -9.165528,-12.308851 C 15.664215,69.291691 11.912529,66.16784 10.994672,65.061889 10.076814,63.955939 8.4469907,57.41458 7.3728416,50.525536 6.2986926,43.636492 5.0461843,35.899813 4.58949,33.332917 3.4378534,26.860027 7.5666721,21.644854 14.291314,21.078394 c 4.234389,-0.35669 5.033016,-0.97621 5.974368,-4.634508 0.597632,-2.322531 2.928375,-5.772531 5.179428,-7.6666677 3.453071,-2.9055678 5.406078,-3.4438849 12.494359,-3.4438849 13.954466,0 20.586868,4.1874435 22.702258,14.3333336 C 61.476146,23.668723 61.946491,24 66.794181,24 c 4.679956,0 5.488744,0.502822 7.460871,4.638417 2.076084,4.353593 2.05824,5.419953 -0.290594,17.365953 -3.365953,17.119003 -7.495892,24.553169 -15.018276,27.033899 -8.521731,2.810295 -10.29748,6.454231 -10.189376,20.909172 0.06551,8.758749 0.727724,13.266189 2.423165,16.493399 1.283165,2.44246 3.446232,7.92547 4.806814,12.18446 1.360582,4.25899 3.649136,10.06061 5.085674,12.89249 4.11352,8.10908 6.378826,19.93024 4.299402,22.4358 -2.271976,2.73756 -7.144511,2.59309 -9.677014,-0.28692 z M 42.619421,64.24568 c 0.02599,-1.698211 0.667818,-4.247203 1.426292,-5.664425 1.48904,-2.782299 2.364801,-8.572182 3.530113,-23.338516 0.57117,-7.237636 0.237028,-10.403736 -1.440311,-13.647351 C 42.0487,13.69236 33.668021,14.760183 29.95044,23.657606 c -1.490926,3.568288 -1.693494,5.813579 -0.747487,8.285245 0.713721,1.864766 1.986539,7.890483 2.828481,13.390483 1.584284,10.349348 4.988705,25.081215 6.278257,27.167755 1.028652,1.664395 4.25243,-4.510844 4.30973,-8.255409 z M 22.64625,57.666668 c -0.0112,-0.55 -0.578605,-1.882624 -1.260836,-2.961387 -1.536179,-2.429049 -3.338396,-0.909905 -2.258644,1.903883 0.797439,2.078095 3.557248,2.907339 3.51948,1.057504 z m 36.000001,-4 c -0.01591,-2.85725 -0.305736,-3.225167 -1.312916,-1.666667 -1.685879,2.608712 -1.685879,5.333334 0,5.333334 0.733334,0 1.324146,-1.650001 1.312916,-3.666667 z"
       id="path660" />
  </g>
</svg>
