<?xml version="1.0" encoding="UTF-8" standalone="no"?>
<!-- Created with Inkscape (http://www.inkscape.org/) -->

<svg
   version="1.1"
   id="svg175"
   width="117.33333"
   height="206.66667"
   viewBox="0 0 117.33333 206.66667"
   xmlns="http://www.w3.org/2000/svg"
   xmlns:svg="http://www.w3.org/2000/svg">
  <defs
     id="defs179" />
  <g
     id="g181">
    <path
       style="fill:#000000;stroke-width:1.33333"
       d="M 28.407574,200.28011 C 26.987589,199.37735 25.229549,193.97771 23.107021,184 22.225455,179.8559 14.995165,156.28571 13.495338,152.66667 12.887512,151.2 11.182978,147.29979 9.7074849,143.99955 8.2319916,140.6993 6.620089,136.15659 6.125479,133.90464 c -0.7690493,-3.50146 -0.4209078,-4.31241 2.4038449,-5.59946 1.8167251,-0.82775 5.6374131,-4.45809 8.4904181,-8.06741 4.0416,-5.11301 5.695616,-8.88244 7.488845,-17.06676 3.485483,-15.907765 9.428756,-26.875695 17.508456,-32.310728 6.394818,-4.301652 7.04261,-4.450774 16.905439,-3.89165 18.609733,1.054984 24.275133,7.985661 33.797402,41.345518 2.269989,7.95257 7.847936,14.35252 12.509096,14.35252 2.78256,0 6.77102,4.03819 6.77102,6.85545 0,1.08834 -1.49311,5.07387 -3.31802,8.85671 -1.8249,3.78285 -3.88359,9.14515 -4.57485,11.91621 -0.69127,2.77106 -2.1432,7.4383 -3.22653,10.37163 -2.520881,6.82581 -6.213936,24.65797 -6.213936,30.0044 0,2.59316 -1.211252,5.32807 -3.272727,7.38953 l -3.272728,3.27274 -29.060604,-0.0204 c -15.983333,-0.0107 -29.777198,-0.476 -30.653031,-1.03281 z m 52.231512,-14.14419 c 0.976358,-1.54142 2.813724,-6.40258 4.083032,-10.80258 2.896906,-10.04199 6.360338,-20.54472 9.892957,-30 1.506905,-4.03334 2.469902,-8.04139 2.139992,-8.90679 -0.437639,-1.14799 -9.663295,-1.59827 -34.118174,-1.66525 -39.60689,-0.10847 -43.970227,0.34429 -43.970227,4.56264 0,1.6407 1.103468,4.41402 2.452152,6.16292 2.407108,3.1214 4.529129,9.51434 6.947003,20.92901 1.360635,6.42349 4.704853,16.70811 6.560189,20.17484 1.067668,1.99495 3.846974,2.27748 22.727151,2.31036 20.42753,0.0356 21.600119,-0.10373 23.285925,-2.76515 z M 67.666665,125.35154 c 15.436719,-0.0138 20.333333,-0.42212 20.333333,-1.69548 0,-0.9225 -1.431964,-4.3725 -3.182143,-7.66667 -1.750179,-3.29416 -4.424559,-10.01964 -5.943065,-14.9455 C 74.009949,85.262905 70.295841,80.480765 60.524186,77.416369 53.954084,75.355981 51.564464,76.010857 44.973543,81.678028 39.702391,86.210403 34.666666,97.288692 34.666666,104.35254 c 0,2.04793 -1.8,7.28929 -4,11.64746 -2.2,4.35818 -4,8.21112 -4,8.56211 0,0.80671 14.433013,1.79193 17.999999,1.2287 1.466667,-0.23158 11.816667,-0.42925 23,-0.43927 z M 39.933942,54.780453 C 26.341547,53.565688 20.788861,48.357995 24.813862,40.599799 25.832905,38.635593 26.668909,35.747099 26.67165,34.180925 26.685778,26.10887 44.957836,8.3178819 56.428712,5.2073134 63.094132,3.3998451 76.562354,4.4183097 83.317058,7.2406051 99.234037,13.891144 119.14039,49.552251 109.66666,54.444432 107.10221,55.768698 53.862324,56.025245 39.933942,54.780453 Z M 93.66552,44.510198 c 3.469047,-0.682899 3.621677,-1.019651 2.84752,-6.282553 C 95.527161,31.525399 91.162467,24.737202 84.364796,19.334071 79.95461,15.828631 78.080859,15.27719 69.190102,14.86819 57.995976,14.353228 54.961566,15.408514 43.908369,23.660492 c -5.846455,4.364784 -6.282459,5.119448 -7.005565,12.125665 -0.441152,4.274354 -0.218518,7.812712 0.520308,8.26933 1.644108,1.016116 51.349149,1.417972 56.242408,0.454711 z"
       id="path799" />
  </g>
</svg>
