<?xml version="1.0" encoding="UTF-8" standalone="no"?>
<!-- Created with Inkscape (http://www.inkscape.org/) -->

<svg
   version="1.1"
   id="svg75"
   width="206.66667"
   height="153.33333"
   viewBox="0 0 206.66667 153.33333"
   xmlns="http://www.w3.org/2000/svg"
   xmlns:svg="http://www.w3.org/2000/svg">
  <defs
     id="defs79" />
  <g
     id="g81">
    <path
       style="fill:#000000;stroke-width:1.33333"
       d="m 63.130465,144.33333 c -1.87488,-2.01667 -4.856337,-6.51667 -6.625463,-10 C 54.735878,130.85 52.755258,128 52.103625,128 c -0.651634,0 -3.46557,3.89893 -6.253194,8.6643 -2.787622,4.76538 -6.204416,9.02487 -7.592872,9.46554 -3.13561,0.99521 -10.678763,-5.90626 -14.446004,-13.21709 -1.441788,-2.79798 -3.327335,-4.85194 -4.190103,-4.56435 -0.862768,0.28759 -2.972704,4.1998 -4.688745,8.6938 -3.452357,9.04108 -7.3499541,11.83793 -10.4977793,7.53302 -2.6335463,-3.60158 -2.3194358,-4.96588 4.4321755,-19.25053 3.8830138,-8.21544 7.1162688,-13.358 8.6508158,-13.7593 3.448393,-0.90177 7.967087,3.07243 13.266044,11.66752 2.502154,4.05858 5.226579,7.3915 6.054278,7.40649 0.827697,0.015 2.283852,-1.92274 3.235898,-4.30607 3.051794,-7.6398 8.388303,-14.2744 11.506056,-14.30486 2.854658,-0.0279 6.477503,4.12166 12.489111,14.30486 3.334694,5.64871 5.568622,5.47249 8.451001,-0.66667 4.125169,-8.78616 8.013638,-13.64801 10.923208,-13.65755 3.21584,-0.0105 10.025457,7.87672 13.049799,15.11498 1.120505,2.68175 2.555064,4.87591 3.187908,4.87591 1.408078,0 5.439288,-5.42615 9.647218,-12.98549 4.57335,-8.21579 7.28798,-8.51737 13.43384,-1.49243 2.79622,3.19619 5.79141,7.46125 6.65597,9.47792 2.06494,4.81662 5.83115,4.69773 7.88005,-0.24875 C 139.48336,121.47605 148.38503,112 151.15542,112 c 1.30082,0 4.77002,3.92383 8.31708,9.40702 3.34696,5.17386 6.78485,9.1807 7.63977,8.90409 0.85492,-0.27661 3.66055,-4.35977 6.23472,-9.07369 6.68453,-12.24097 11.63705,-12.42676 17.59227,-0.65995 1.5094,2.98239 4.76554,8.48463 7.23589,12.2272 5.39329,8.17087 5.72104,12.02562 1.19767,14.08661 -4.49608,2.04856 -6.8325,-0.10574 -11.57287,-10.67078 -4.0878,-9.11063 -5.89204,-9.79385 -9.10257,-3.44693 -8.73019,17.25876 -13.7287,18.73571 -20.89711,6.17464 -5.43339,-9.52081 -7.17095,-11.24374 -9.44,-9.36059 -1.04589,0.86801 -3.34376,4.42412 -5.10637,7.90247 -6.54875,12.92333 -11.59368,12.69389 -19.73311,-0.89743 C 120.69055,131.86669 117.62292,128 116.70382,128 c -0.91909,0 -3.56084,3.83864 -5.87054,8.53032 -4.28954,8.71328 -5.92347,10.13634 -11.638361,10.13634 -2.446167,0 -4.219984,-1.57178 -7.147386,-6.33333 C 84.441325,127.9615 84.7152,128.17797 81.504479,132 c -1.540106,1.83333 -3.485226,5.5219 -4.322491,8.19684 C 75.798356,144.61733 71.763166,148 67.873598,148 c -0.733844,0 -2.868253,-1.65 -4.743133,-3.66667 z M 35.802973,43.969482 c -1.208366,-0.70552 -4.390438,-4.587275 -7.071273,-8.626123 -2.680834,-4.038848 -5.322172,-7.34336 -5.869638,-7.34336 -1.722312,0 -4.195395,3.112603 -4.195395,5.280291 0,3.041483 -6.549293,9.60451 -9.095148,9.114224 -4.1319918,-0.795748 -5.0017917,-7.025581 -1.9581833,-14.025241 1.5232259,-3.5031 3.8431383,-8.960632 5.1553603,-12.127848 2.368682,-5.717117 7.561752,-9.803969 10.931474,-8.6028726 0.935093,0.3333025 4.405936,4.7509786 7.712985,9.8170596 3.30705,5.06608 6.826826,9.211054 7.821724,9.211054 0.9949,0 2.815372,-2.5154 4.045495,-5.589778 5.614881,-14.0329686 10.939586,-16.4795294 17.05296,-7.835385 2.016667,2.851511 3.666667,5.734111 3.666667,6.405779 0,1.642083 5.811316,7.019384 7.585935,7.019384 0.777736,0 1.752776,-1.65 2.166755,-3.666667 0.95076,-4.631547 8.542492,-14.9999992 10.982929,-14.9999992 3.361429,0 10.667047,7.6978892 13.942516,14.6911522 l 3.232594,6.901731 3.03802,-3.796442 c 1.6709,-2.088043 3.04099,-4.192596 3.04463,-4.676784 0.004,-0.484188 1.6132,-3.334188 3.5768,-6.333333 2.3338,-3.564592 4.55612,-5.4529909 6.41721,-5.4529909 3.50286,0 8.78267,5.4649119 12.55969,12.9999999 3.33599,6.655241 5.93954,7.171621 8.75063,1.735572 4.10073,-7.929963 10.27691,-16.0689052 12.19376,-16.0689052 2.53341,0 8.10265,6.0034322 11.21485,12.0891972 1.33767,2.615724 3.34968,5.517378 4.47116,6.44812 2.33168,1.93513 4.82252,0.905402 4.82252,-1.993666 0,-1.081098 1.51011,-4.945689 3.3558,-8.587977 2.60307,-5.136914 4.06531,-6.6223409 6.51895,-6.6223409 3.53449,0 8.0678,3.2255299 10.51039,7.4783289 10.32357,17.974461 11.44161,22.125797 6.96054,25.844754 -3.4213,2.83944 -7.46198,0.07845 -10.91118,-7.455601 -1.81316,-3.960449 -4.00267,-7.199105 -4.86558,-7.197014 -0.8629,0.0021 -3.36892,3.44852 -5.56892,7.658733 -5.07176,9.705982 -9.5473,11.801954 -14.7793,6.921386 -1.91656,-1.787824 -4.93538,-6.100587 -6.70847,-9.583921 -3.57552,-7.024268 -5.33823,-7.841333 -7.073,-3.278537 -0.63879,1.680139 -2.12393,3.853605 -3.30032,4.829927 C 144.96251,35.52771 144,37.109503 144,38.066486 c 0,2.159034 -6.32602,7.266846 -8.99998,7.266846 -2.612,0 -11.00002,-9.236597 -11.00002,-12.112843 0,-1.24212 -1.16109,-3.67487 -2.58021,-5.406111 -2.56348,-3.127295 -2.59395,-3.130415 -4.69879,-0.481045 -1.16522,1.466666 -3.68281,5.666666 -5.59465,9.333333 -3.87628,7.434216 -5.15674,8.616669 -9.36291,8.646249 -2.881314,0.02027 -4.160618,-1.307568 -11.658241,-12.100469 l -3.894803,-5.606605 -2.438531,3.011457 c -1.341192,1.656303 -2.43853,4.172261 -2.43853,5.59102 0,3.735481 -5.948331,9.125014 -10.071115,9.125014 -4.11205,0 -10.692107,-6.374098 -13.515327,-13.092291 -2.264771,-5.389296 -4.050229,-4.98708 -7.82959,1.763792 -5.762238,10.292786 -9.288468,12.782287 -14.11433,9.964649 z"
       id="path1077" />
  </g>
</svg>
