<?xml version="1.0" encoding="UTF-8" standalone="no"?>
<!-- Created with Inkscape (http://www.inkscape.org/) -->

<svg
   version="1.1"
   id="svg185"
   width="212"
   height="133.33333"
   viewBox="0 0 212 133.33333"
   xmlns="http://www.w3.org/2000/svg"
   xmlns:svg="http://www.w3.org/2000/svg">
  <defs
     id="defs189" />
  <g
     id="g191">
    <path
       style="fill:#000000;stroke-width:1.33333"
       d="m 33.839396,125.05545 c -1.501295,-1.6805 -4.354619,-5.90545 -6.340717,-9.38879 -4.900759,-8.59523 -7.342874,-8.25762 -12.056092,1.66667 -3.052012,6.42641 -4.414921,8 -6.9288939,8 -5.5698271,0 -5.4609539,-10.2418 0.1842581,-17.33333 0.8756544,-1.1 3.1436438,-5.45 5.0399758,-9.666669 5.144076,-11.438319 8.029392,-10.734959 18.358476,4.475289 2.934961,4.32193 6.150428,7.85804 7.145481,7.85804 0.995053,0 3.299916,-3.75 5.121916,-8.33333 5.023019,-12.635654 11.435235,-14.435302 16.486684,-4.62714 2.851388,5.53641 8.496848,12.96047 9.855493,12.96047 0.580876,0 2.400235,-2.85 4.043019,-6.33333 3.661047,-7.762824 7.625616,-12.333332 10.698231,-12.333332 2.729773,0 8.275816,6.25658 11.976936,13.511372 1.715717,3.36308 3.547667,5.15529 5.269607,5.15529 1.45176,0 2.63956,-0.56785 2.63956,-1.26189 0,-0.69405 2.12875,-4.89405 4.73054,-9.33334 6.58391,-11.233732 9.10654,-11.043092 17.39777,1.31478 7.32424,10.9166 8.54044,11.92682 10.45588,8.68502 6.88695,-11.655916 11.70171,-18.071232 13.56263,-18.071232 2.845,0 10.22805,7.839596 13.38922,14.217152 2.82292,5.69514 5.4368,7.10689 6.59214,3.56039 2.88145,-8.84517 8.93616,-17.777542 12.05029,-17.777542 2.69296,0 8.50815,6.755741 11.47704,13.333332 1.48951,3.3 3.82636,7.59262 5.19301,9.53916 2.69147,3.8335 3.30194,9.79846 1.13955,11.13488 -2.93385,1.81322 -6.45827,-1.11115 -11.28409,-9.36294 -2.7805,-4.75444 -5.58198,-8.64443 -6.2255,-8.64443 -0.64352,0 -3.08117,3.87555 -5.41698,8.61235 -3.02674,6.13788 -5.34299,9.06634 -8.06174,10.19248 -4.72588,1.95753 -5.3388,1.40998 -11.60572,-10.36797 -2.60005,-4.88651 -5.27374,-8.93383 -5.94154,-8.99405 -0.6678,-0.0602 -3.82283,4.09052 -7.01119,9.22385 -6.76907,10.89834 -9.81516,12.91118 -13.9298,9.20471 -1.54965,-1.39592 -3.36293,-3.73804 -4.02952,-5.20471 -2.69306,-5.92544 -7.22759,-13.16895 -8.48199,-13.54922 -0.73333,-0.22231 -4.00278,4.41443 -7.26545,10.30386 -5.49331,9.91597 -6.21917,10.67862 -9.81277,10.31004 -3.165287,-0.32464 -4.623205,-1.74987 -7.908665,-7.73134 -2.2154,-4.03334 -4.972328,-8.41614 -6.126505,-9.73956 -2.009763,-2.30447 -2.199655,-2.27628 -4.490379,0.66667 C 82.414032,112.6172 79.869903,117.15 78.075943,121 c -5.19281,11.14423 -10.670334,9.36728 -18.985806,-6.15915 -4.780313,-8.92568 -6.02428,-9.13369 -9.01554,-1.50752 -2.220978,5.66235 -8.555608,14.04726 -10.870445,14.38878 -1.44932,0.21384 -3.86346,-0.98616 -5.364756,-2.66666 z M 55.795736,58.958801 C 39.776964,58.572672 36.364856,57.408577 38.088208,52.917593 38.675799,51.386356 41.700229,50.585308 49.444545,49.909761 55.250045,49.403341 60,48.519809 60,47.946356 c 0,-1.799465 -8.09612,-7.946357 -10.466211,-7.946357 -3.292941,0 -27.10487,-6.173115 -32.488062,-8.422356 -5.823905,-2.433382 -10.3790603,-8.16517 -10.3790603,-13.060051 0,-5.735622 4.9832093,-8.248647 18.5312263,-9.3452722 6.307826,-0.5105781 14.695315,-1.6243109 18.638864,-2.4749618 7.972588,-1.7197423 11.368519,-0.8688645 18.998231,4.760159 5.514193,4.068243 8.571821,4.031801 18.126995,-0.216041 5.574678,-2.4782768 8.994812,-3.2127019 12.37135,-2.6565729 2.566667,0.42274 9.217717,0.9900113 14.780117,1.2606031 5.5624,0.2705918 11.45732,1.2111988 13.09982,2.0902388 1.79716,0.961807 5.01593,1.255361 8.08305,0.737175 3.10505,-0.524594 5.44141,-0.303288 5.97887,0.566334 0.497,0.804158 5.1473,1.427412 10.65038,1.427412 9.35391,0 21.83036,2.828055 26.07443,5.910325 1.1,0.798879 4.1,2.593858 6.66667,3.988843 2.56666,1.394985 6.91269,4.285613 9.65782,6.423619 2.74514,2.138005 7.02439,4.448686 9.50946,5.134846 7.77764,2.147509 11.02405,13.606926 4.3307,15.286848 -1.5675,0.393421 -8.84581,0.629069 -16.174,0.52366 -16.2058,-0.233104 -32.5911,1.524594 -40.65732,4.361426 -5.71064,2.008392 -36.99484,4.047152 -41.08616,2.677544 -0.96406,-0.322728 -2.29921,-2.023853 -2.967,-3.780278 -1.00966,-2.655615 -2.139051,-3.1935 -6.705329,-3.1935 -4.379778,0 -5.633072,0.54267 -6.192322,2.681252 -1.055651,4.036812 -7.496934,4.882336 -32.586783,4.27755 z M 158.47108,41.810058 c 5.1962,-0.543112 8.19559,-1.464739 8.19559,-2.51828 0,-1.815267 -4.03828,-2.761438 -17.40991,-4.07915 -8.33519,-0.821393 -8.84696,-0.703317 -10.96548,2.529947 -1.65369,2.523861 -1.80467,3.560663 -0.59009,4.052559 2.41776,0.979173 11.48213,0.985686 20.76989,0.01492 z M 117.15001,36.20938 c 4.10708,-3.406775 4.30456,-3.897671 2.35304,-5.84919 -1.73328,-1.733273 -5.36445,-2.130305 -19.48335,-2.130305 -16.012027,0 -20.615103,0.899704 -15.211608,2.97322 1.478621,0.5674 1.898824,1.788349 1.357612,3.944707 -0.431097,1.717631 -0.39474,3.51204 0.0808,3.987576 0.475536,0.475536 6.614611,0.848471 13.642389,0.828743 11.996757,-0.03368 13.051817,-0.263177 17.261117,-3.754751 z m -48.164923,-4.209381 4.975422,-2.666666 h -3.842932 c -2.418261,0 -5.954229,-1.73005 -9.537984,-4.666667 C 54.066996,19.330082 52,18.858324 52,22.708513 c 0,1.489681 -0.9,3.053874 -2,3.475985 -3.273407,1.256124 -2.288211,3.854925 2.333333,6.154993 5.889502,2.931109 10.733794,2.832345 16.651754,-0.339492 z M 36,25.412022 c 0,-2.183773 -2.695031,-3.030151 -6.409113,-2.012791 L 26,24.382846 29.333333,25.39185 C 34.114548,26.839127 36,26.844833 36,25.412022 Z"
       id="path213" />
  </g>
</svg>
