<?xml version="1.0" encoding="UTF-8" standalone="no"?>
<!-- Created with Inkscape (http://www.inkscape.org/) -->

<svg
   version="1.1"
   id="svg175"
   width="224"
   height="120"
   viewBox="0 0 224 120"
   xmlns="http://www.w3.org/2000/svg"
   xmlns:svg="http://www.w3.org/2000/svg">
  <defs
     id="defs179" />
  <g
     id="g181">
    <path
       style="fill:#000000;stroke-width:1.33333"
       d="M 12.666667,109.96155 C 9.7333333,108.90478 7.1833333,108.03112 7,108.02007 c -1.3657651,-0.0823 0.1243455,-6.94419 2,-9.209966 2.135444,-2.579605 3.803366,-2.838764 19.666667,-3.055772 L 46,95.517216 52,90.169043 c 3.3,-2.941495 7.091332,-7.00509 8.425183,-9.030211 2.321973,-3.525337 2.325692,-3.897452 0.08739,-8.743768 C 56.53358,63.779873 46.668551,49.333333 44.764532,49.333333 c -0.995223,0 -4.12438,1.811839 -6.953681,4.026308 -18.885796,14.781748 -22.56266,17.307026 -25.199439,17.307026 -7.3784716,0 -7.2014604,-9.688266 0.286557,-15.683948 10.16524,-8.139347 17.768698,-15.444351 17.768698,-17.071236 0,-0.947983 -4.557398,-5.815878 -10.127551,-10.817544 C 9.3426633,17.040188 7.4664471,14.448224 8.6610045,10.684506 10.478903,4.9568147 18.635171,6.32315 24.939977,13.411555 c 2.049679,2.304425 5.334168,5.022965 7.298864,6.041198 1.964698,1.018234 3.95513,3.057914 4.423184,4.532624 1.387742,4.372387 3.751112,3.18246 13.095812,-6.593576 4.876104,-5.101176 10.07038,-9.9196209 11.542838,-10.7076561 3.988616,-2.1346424 11.263676,0.1077587 11.779316,3.6307531 0.368832,2.519957 0.83776,2.675988 4.35616,1.449467 C 82.791253,9.8975657 88,13.183988 88,18.429553 c 0,3.001382 -0.860032,4.012403 -4.547424,5.345782 -6.025243,2.178756 -24.750033,14.579738 -25.682088,17.008636 -0.418675,1.091048 1.777523,4.916718 5.108233,8.898296 3.213464,3.84142 7.561952,9.5344 9.663306,12.651066 2.101353,3.116667 4.189041,5.679223 4.639308,5.694568 C 77.6316,68.043247 85.2,68.934573 94,70.008627 c 12.91327,1.576084 19.60118,1.675798 34.66667,0.516865 10.26666,-0.789777 19.79008,-2.032032 21.16313,-2.760565 1.37305,-0.728534 5.61257,-1.646218 9.42115,-2.039299 9.23181,-0.952807 12.68746,1.002043 25.10464,14.201567 5.55661,5.906709 10.65941,10.739472 11.33957,10.739472 0.99999,0 1.84053,-19.078056 2.00785,-45.572598 0.0145,-2.30267 -1.9123,-5.770722 -5.42066,-9.75643 -5.97542,-6.788422 -8.12384,-12.982166 -5.57036,-16.058918 2.75601,-3.320788 7.41641,-2.243814 11.77582,2.721279 2.25356,2.566667 4.56572,4.653856 5.13812,4.638199 0.5724,-0.01565 2.75391,-2.449415 4.8478,-5.40835 2.99623,-4.234073 4.52944,-5.29291 7.19884,-4.971532 7.51672,0.904964 7.29311,7.474172 -0.60658,17.820094 l -5.00171,6.550534 -0.0321,30.076266 c -0.0353,33.048299 -0.62027,35.741729 -8.4352,38.839699 -1.99463,0.79071 -15.73682,1.6159 -30.84912,1.85243 -26.62915,0.41679 -31.17879,-0.11339 -33.7274,-3.93028 -1.78107,-2.66739 -1.0583,-7.35471 1.31292,-8.514549 1.28333,-0.627723 11.78333,-1.00228 23.33333,-0.83235 11.55,0.16993 21,-9.76e-4 21,-0.37979 0,-1.359394 -6.97881,-8.9465 -11.62689,-12.640334 -3.85412,-3.062858 -6.05963,-3.766704 -11.80299,-3.766704 -3.88476,0 -8.61503,0.590004 -10.51171,1.31112 -1.89668,0.721116 -9.89048,1.918618 -17.76399,2.661114 -11.20696,1.056852 -16.6294,0.943813 -24.97163,-0.520571 -6.207131,-1.089592 -14.429399,-1.566473 -19.693757,-1.142213 -9.988966,0.805021 -8.328829,-0.498452 -21.629046,16.982257 -4.955223,6.51273 -7.864678,9.09558 -11.333334,10.0611 -7.21356,2.00793 -34.427832,1.52303 -40.666666,-0.72459 z M 67.333333,20 C 67.786559,19.266667 67.221968,18.666667 66.078689,18.666667 64.935411,18.666667 64,19.266667 64,20 c 0,0.733333 0.564589,1.333333 1.254644,1.333333 0.690055,0 1.625464,-0.6 2.078689,-1.333333 z"
       id="path352" />
  </g>
</svg>
