<?xml version="1.0" encoding="UTF-8" standalone="no"?>
<!-- Created with Inkscape (http://www.inkscape.org/) -->

<svg
   version="1.1"
   id="svg165"
   width="220"
   height="138.66667"
   viewBox="0 0 220 138.66667"
   xmlns="http://www.w3.org/2000/svg"
   xmlns:svg="http://www.w3.org/2000/svg">
  <defs
     id="defs169" />
  <g
     id="g171">
    <path
       style="fill:#000000;stroke-width:1.33333"
       d="m 137.53956,128.20623 c -4.9348,-4.9348 -3.67381,-11.67992 4.41069,-23.59311 3.99327,-5.884407 7.3244,-8.546462 16.48494,-13.173826 9.42078,-4.758828 23.74794,-5.070876 32.47273,-0.707261 7.27048,3.636253 16.54464,12.449597 19.86877,18.881517 3.01464,5.83309 3.39176,16.03351 0.67611,18.28731 -1.26983,1.05386 -13.11051,1.82336 -36.46044,2.36948 -34.15923,0.79894 -34.61485,0.77383 -37.4528,-2.06411 z m 59.37817,-12.67951 c 0.98952,-0.98953 -2.50022,-5.62345 -6.75596,-8.97101 -4.65245,-3.65962 -18.24282,-4.95953 -26.80072,-2.56347 -4.37309,1.22439 -6.755,2.86976 -8.69238,6.00453 -1.46778,2.37489 -2.66867,4.96794 -2.66867,5.76233 0,1.46251 43.44761,1.23774 44.91773,-0.23238 z M 30.666667,128.13636 C 19.3,127.6947 9.1760333,126.80221 8.1689631,126.15306 5.7000125,124.56159 6.9930885,113.85406 10.470936,107.09119 13.908232,100.40718 19.018285,95.787182 28,91.243177 c 14.543289,-7.357704 37.078401,-3.488144 45.728003,7.852068 4.938137,6.474235 10.242809,18.060965 10.258972,22.408165 0.02015,5.41931 -2.745167,6.7304 -13.580022,6.43854 -5.357157,-0.14431 -11.840286,0.0211 -14.406953,0.36753 -2.566667,0.34645 -13.966667,0.26855 -25.333333,-0.17312 z m 27,-12.07636 c 12.775945,0.0822 13.467129,-0.45316 8.887713,-6.88436 -8.239841,-11.571786 -30.742252,-12.440188 -42.205687,-1.62878 -7.675873,7.23928 -3.749394,10.12679 12.317974,9.05857 5.133333,-0.34129 14.583333,-0.58673 21,-0.54543 z m 14.8765,-73.080416 C 70.686471,41.73113 62.114931,29.413817 60.959148,26.333334 c -1.351745,-3.60278 -3.009553,-2.798076 -5.49372,2.666667 -1.250096,2.75 -3.986113,7.085205 -6.080039,9.633789 -3.411932,4.152776 -4.189109,4.498795 -7.486842,3.333334 C 38.282593,40.6892 29.595427,30.268015 29.421855,27.000001 c -0.124522,-2.344467 -4.012804,-2.082083 -4.939687,0.333333 -1.255172,3.270927 -8.366559,2.544815 -9.673321,-0.9877 -1.960396,-5.299453 3.282694,-17.7218102 8.260966,-19.5725569 5.645047,-2.0986298 9.851298,1.0719516 15.04784,11.3427379 2.008454,3.969635 4.349074,7.217519 5.201379,7.217519 0.852305,0 3.291979,-3.566469 5.421495,-7.925488 6.224626,-12.7415132 13.42259,-13.9145444 18.120872,-2.953106 2.935702,6.849213 6.058742,10.878594 8.431634,10.878594 0.85052,0 2.602792,-2.25 3.893939,-5 7.852947,-16.7259206 13.648341,-17.9857838 20.826868,-4.52756 3.27116,6.132744 5.9433,9.534173 7.46648,9.504267 0.65249,-0.0128 3.56526,-4.062812 6.47282,-9.000001 2.90755,-4.937189 5.87468,-9.3845022 6.5936,-9.8829193 3.19333,-2.2138743 10.26568,4.9186833 16.13895,16.2763413 2.62346,5.073201 4.05523,4.995033 6.7795,-0.370128 1.21017,-2.383334 4.045,-7.211664 6.29958,-10.729625 3.34378,-5.2174718 4.71836,-6.3232563 7.45852,-6.0000003 2.17172,0.256198 4.0703,1.8103355 5.3706,4.3962913 7.73047,15.373702 12.4168,17.651691 16.0463,7.799978 C 182.50407,7.3120524 188.91253,3.711742 193.90245,9.2255456 197.16929,12.835358 208,34.382917 208,37.27243 c 0,1.320579 -0.87121,3.12409 -1.93601,4.007803 -3.57132,2.963928 -7.38208,0.134496 -11.75079,-8.724772 -2.32039,-4.705503 -4.97628,-8.55546 -5.90197,-8.55546 -2.0546,0 -5.25627,4.747573 -6.43374,9.540226 -0.47838,1.947126 -2.29552,4.879647 -4.0381,6.516717 -2.75674,2.589821 -3.65143,2.775829 -6.88719,1.431861 -3.79639,-1.576824 -7.80743,-7.000322 -10.46891,-14.155471 -2.25258,-6.055856 -5.39789,-4.98498 -9.79042,3.333333 -4.69658,8.894073 -9.8301,13.248834 -13.17424,11.175695 -1.25692,-0.779196 -4.44728,-4.962489 -7.0897,-9.296207 -2.64242,-4.333718 -5.64242,-8.025 -6.66666,-8.202848 -1.06762,-0.185377 -3.85646,3.22108 -6.53566,7.983035 -4.72004,8.389327 -6.96652,9.888424 -12.67232,8.456362 -2.89936,-0.727694 -9.585927,-9.002909 -11.675429,-14.44937 -1.554964,-4.053147 -3.387413,-2.575279 -7.120168,5.742405 -4.46253,9.943843 -9.097992,13.739739 -13.315526,10.903845 z"
       id="path491" />
  </g>
</svg>
