<?xml version="1.0" encoding="UTF-8" standalone="no"?>
<!-- Created with Inkscape (http://www.inkscape.org/) -->

<svg
   version="1.1"
   id="svg75"
   width="109.33333"
   height="112"
   viewBox="0 0 109.33333 112"
   xmlns="http://www.w3.org/2000/svg"
   xmlns:svg="http://www.w3.org/2000/svg">
  <defs
     id="defs79" />
  <g
     id="g81">
    <path
       style="fill:#000000;stroke-width:1.33333"
       d="M 45.674883,105.34625 C 43.296069,104.7929 40.385189,103.53963 39.206261,102.56121 36.41014,100.24063 29.096924,88.76362 24.074227,78.813712 20.611357,71.953803 19.29159,70.616676 13.982298,68.58904 10.622858,67.306057 7.3649258,65.298668 6.7424479,64.128173 5.774221,62.307539 4.6761169,41.474348 5.1704744,34.304748 5.4439845,30.338068 10.952505,28.723172 15.74897,31.203521 c 5.476921,2.832226 8.66844,2.685204 11.581336,-0.53351 2.283044,-2.522735 2.293952,-3.023488 0.20665,-9.486446 C 24.898793,13.014968 24.777773,10.112011 26.999999,8.3033888 29.480015,6.2849572 69.167443,4.7674104 73.683052,6.5183471 c 2.02568,0.7854614 4.350351,2.8926696 5.165936,4.6826849 1.22889,2.697117 0.997704,3.935943 -1.34972,7.232597 -3.854221,5.412755 -3.558302,8.868043 1.03989,12.142246 4.675389,3.329169 5.428203,3.365701 11.332922,0.549937 4.33465,-2.067051 4.854116,-2.060164 8.16349,0.108227 3.50195,2.294565 3.53014,2.442042 3.08268,16.126442 l -0.45159,13.810695 -8.290229,7.910084 c -6.68345,6.376979 -8.457238,8.954473 -9.151896,13.298625 -0.589074,3.683864 -1.648707,5.594358 -3.349539,6.039135 -1.36833,0.357827 -4.37642,3.688628 -6.684642,7.401781 -4.390397,7.062669 -7.257777,8.652779 -17.857022,9.902639 -2.933334,0.3459 -7.279635,0.17616 -9.658449,-0.37719 z M 58.89501,89.793349 c 1.341077,-1.213657 2.438321,-2.87695 2.438321,-3.696208 0,-0.819256 1.663378,-3.576264 3.696394,-6.126682 6.078403,-7.625359 9.062637,-19.738115 7.027539,-28.524199 -0.707298,-3.0536 -3.146911,-7.158128 -5.877673,-9.888888 -4.98469,-4.984691 -9.883567,-5.845795 -21.154184,-3.718391 -7.384529,1.393879 -12.190723,8.239278 -11.989429,17.076384 0.218184,9.578626 9.758039,29.502347 16.233022,33.902211 5.558432,3.777052 6.432705,3.865676 9.62601,0.975773 z M 18.138889,51.027777 c -1.355355,-1.355353 -2.473664,0.68519 -1.361624,2.48451 0.840046,1.359222 1.154102,1.360274 1.605736,0.0053 0.308793,-0.92638 0.198942,-2.046828 -0.244112,-2.489884 z M 55.136698,19.767004 c -1.999098,-0.967571 -3.608804,-0.952572 -5.333333,0.04969 -2.05499,1.194328 -1.573868,1.427194 2.8633,1.385848 4.653372,-0.04336 4.968284,-0.226381 2.470033,-1.435544 z"
       id="path630" />
  </g>
</svg>
