<?xml version="1.0" encoding="UTF-8" standalone="no"?>
<!-- Created with Inkscape (http://www.inkscape.org/) -->

<svg
   version="1.1"
   id="svg243"
   width="209.33333"
   height="190.66667"
   viewBox="0 0 209.33333 190.66667"
   xmlns="http://www.w3.org/2000/svg"
   xmlns:svg="http://www.w3.org/2000/svg">
  <defs
     id="defs247" />
  <g
     id="g249">
    <path
       style="fill:#000000;stroke-width:1.33333"
       d="M 30,184.73668 C 11.696418,179.93267 0.39263213,170.61986 5.4575716,164.51698 c 2.1858768,-2.63383 7.1010264,-1.40828 12.4528494,3.10498 7.98246,6.73174 20.082729,9.11694 27.985032,5.5164 5.611749,-2.55688 2.399302,-4.04884 -6.63474,-3.08137 -8.387787,0.89825 -8.477256,0.87259 -9.370877,-2.68788 -1.456376,-5.80267 1.579575,-7.54792 14.536131,-8.35625 8.389843,-0.52342 12.728081,-0.18171 16.480693,1.29813 4.210239,1.66031 14.098877,2.02761 57.03342,2.11847 35.22858,0.0745 52.49561,-0.35115 53.66666,-1.32304 1.2481,-1.03582 1.72659,-6.14615 1.72659,-18.43975 0,-19.87191 0.20015,-20.22165 12.0636,-21.07978 10.45827,-0.75648 13.96321,0.29597 15.75041,4.72949 2.00047,4.96259 2.46672,42.87284 0.57006,46.35029 -1.42532,2.61325 -2.55872,2.65641 -56.58594,2.15448 -82.215125,-0.7638 -74.65521,-1.20376 -87.131461,5.07073 C 45.687393,186.0841 39.326886,187.18464 30,184.73668 Z M 191.33333,148 V 134 H 188 c -3.29702,0 -3.33715,0.13795 -3.68296,12.66262 -0.40838,14.79017 -0.0152,16.33585 4.01033,15.76424 2.90111,-0.41196 3.00596,-0.91523 3.00596,-14.42686 z M 44.333333,84.496817 c -1.000959,-0.431836 -1.651851,-3.204349 -1.629574,-6.94126 0.02863,-4.801104 0.942198,-7.418441 4,-11.459741 2.179599,-2.880636 3.962907,-6.037903 3.962907,-7.016147 0,-0.978245 -3.6,-5.412321 -8,-9.8535 -4.4,-4.44118 -7.978739,-8.783914 -7.952753,-9.65052 0.06497,-2.166796 2.4936,-6.112978 7.630761,-12.398927 8.971355,-10.97756 36.841107,-20.4796767 58.321996,-19.8847243 9.96561,0.276016 27.70419,5.5583303 34.20134,10.1847083 C 136.81701,18.864518 138.79333,20 139.25981,20 142.89118,20 152,30.432527 152,34.591618 c 0,0.764892 -3.63174,5.079271 -8.07052,9.587511 -4.93927,5.016552 -7.7851,8.940616 -7.33486,10.113919 0.40462,1.054416 2.86571,5.12617 5.4691,9.048342 6.0528,9.118917 7.61601,14.341882 5.25773,17.566993 -1.92203,2.628504 -1.64908,2.612588 -46.65478,2.720524 -23.998629,0.05756 -27.377283,0.134248 -43.333338,0.98364 -6.233333,0.33182 -12.083333,0.279741 -12.999999,-0.115734 z M 104,72.679511 c 4.03333,-0.1333 11.68333,-0.340722 17,-0.460936 7.36972,-0.166638 9.66666,-0.669496 9.66666,-2.116274 0,-3.499965 -6.38409,-9.531239 -14.07495,-13.297083 -6.84127,-3.349842 -9.14619,-3.754094 -22.441369,-3.935917 -14.095526,-0.192767 -15.162329,-0.01134 -21.908811,3.725904 -8.134028,4.505883 -14.908198,11.577502 -14.908198,15.562806 0,2.674626 0.412212,2.711261 19.666667,1.747874 C 87.816665,73.36468 99.966665,72.812811 104,72.679511 Z M 64.813574,47.431291 c 0.93116,-2.426564 16.543702,-7.195957 27.202867,-8.310061 6.9288,-0.724203 9.921229,-0.271321 19.348109,2.928188 l 11.15161,3.784891 4.80476,-2.58382 c 6.40182,-3.44266 9.46252,-8.033271 7.18537,-10.777064 C 126.69133,23.056976 88.963759,15.953986 77.732879,21.784662 75.385963,23.003098 72.00943,24 70.229472,24 c -1.779958,0 -3.983221,0.9 -4.89614,2 -0.912918,1.1 -2.27975,2 -3.037405,2 -2.548637,0 -10.295928,6.780911 -10.295928,9.011639 0,2.252604 8.971952,12.321695 10.979111,12.321695 0.60752,0 1.433029,-0.85592 1.834464,-1.902043 z"
       id="path271" />
  </g>
</svg>
