<?xml version="1.0" encoding="UTF-8" standalone="no"?>
<!-- Created with Inkscape (http://www.inkscape.org/) -->

<svg
   version="1.1"
   id="svg297"
   width="165.33333"
   height="217.33333"
   viewBox="0 0 165.33333 217.33333"
   xmlns="http://www.w3.org/2000/svg"
   xmlns:svg="http://www.w3.org/2000/svg">
  <defs
     id="defs301" />
  <g
     id="g303">
    <path
       style="fill:#000000;stroke-width:1.33333"
       d="m 44.469768,209.26625 c -1.57496,-0.59365 -3.365758,-1.87143 -3.979553,-2.83948 -0.613793,-0.96807 -1.201258,-9.89693 -1.305476,-19.84195 C 38.928077,162.09272 36.859379,158.52326 18,150.03148 5.8722641,144.57073 5.3333332,143.82534 5.3333332,132.51231 c 0,-5.35759 0.6264587,-15.61459 1.3921305,-22.79335 C 7.4911354,102.5402 8.6445852,88.566665 9.2886851,78.666665 11.30434,47.685487 14.484052,15.926698 16.043276,11.202207 17.953149,5.4152338 22.286992,4.1558759 29.342715,7.3375642 c 6.330578,2.8546928 8.968652,5.7090908 14.677763,15.8813478 3.852962,6.86505 4.558174,9.625949 5.449133,21.333333 0.985012,12.943249 2.915884,70.403155 4.449723,132.417215 l 0.733012,29.63612 -3.659507,1.87003 c -2.322551,1.18683 -4.705675,1.47568 -6.523071,0.79064 z m -6.325742,-65.49929 c 1.539405,-2.49082 1.940068,-81.728028 0.487105,-96.332387 -1.326758,-13.335819 -4.462078,-21.534665 -9.989238,-26.1218 -4.085141,-3.390365 -3.937247,-4.248248 -8.048667,46.687226 -5.098974,63.170071 -5.144184,64.410901 -2.418192,66.370161 3.874552,2.78478 17.051353,10.67609 18.079609,10.8275 0.506722,0.0747 1.356943,-0.5692 1.889383,-1.4307 z m 110.160944,-7.55027 c -1.3002,-0.8252 -1.61079,-7.3827 -1.33333,-28.15154 0.34678,-25.959982 0.47893,-27.153547 3.20672,-28.963519 2.46738,-1.637184 3.1089,-1.623896 4.8329,0.100106 2.87915,2.87914 4.08156,49.122383 1.4162,54.464923 -1.81845,3.64497 -4.88194,4.60675 -8.12249,2.55003 z"
       id="path325" />
  </g>
</svg>
