<?xml version="1.0" encoding="UTF-8" standalone="no"?>
<!-- Created with Inkscape (http://www.inkscape.org/) -->

<svg
   version="1.1"
   id="svg233"
   width="353.33334"
   height="260"
   viewBox="0 0 353.33334 260"
   xmlns="http://www.w3.org/2000/svg"
   xmlns:svg="http://www.w3.org/2000/svg">
  <defs
     id="defs237" />
  <g
     id="g239">
    <path
       style="fill:#000000;stroke-width:1.33333"
       d="m 51.646937,253.82565 c -4.022235,-2.10745 -6.313603,-5.64162 -6.313603,-9.738 0,-1.51488 -0.787745,-2.75432 -1.750545,-2.75432 -2.94862,0 -8.916122,-7.27677 -8.916122,-10.87232 0,-1.86618 1.789082,-6.03334 3.975738,-9.26037 6.377388,-9.41161 5.769284,-10.45132 -5.642404,-9.64707 l -9.666667,0.68127 -3,-4.53325 c -3.690575,-5.57679 -3.680268,-6.16711 0.184265,-10.55366 3.394112,-3.85257 7.33826,-5.03217 17.482402,-5.22856 21.035468,-0.40724 21.203185,-4.0366 0.229641,-4.9694 -10.734083,-0.47738 -15.40295,-0.10786 -20.647308,1.63399 -7.388839,2.45419 -10.9824313,1.60733 -13.5517762,-3.19353 -5.0451198,-9.4269 3.1417637,-12.61332 37.6356352,-14.64826 10.083073,-0.59484 19.146583,-1.75686 20.141132,-2.58226 0.994551,-0.8254 7.444764,-2.40912 14.333808,-3.51936 28.412527,-4.579 31.766217,-5.65316 39.283267,-12.58214 3.21714,-2.96546 6.91276,-5.40576 8.21248,-5.42289 1.29972,-0.0172 5.33153,-1.66713 8.95959,-3.66667 5.00463,-2.7582 6.85869,-4.66098 7.68305,-7.88497 0.59763,-2.33719 2.42922,-5.33719 4.0702,-6.66666 3.70875,-3.0047 6.91583,-9.0362 5.78104,-10.87232 C 149.06674,115.82327 141.5176,112 139.18223,112 c -0.95777,0 -3.96197,-2.4 -6.676,-5.33333 -2.71402,-2.93334 -5.96474,-5.33334 -7.22381,-5.33334 -1.25908,0 -3.03617,-0.9 -3.94908,-1.999997 -0.91292,-1.1 -2.23254,-2 -2.9325,-2 -0.69995,0 -3.09956,-1.826924 -5.33246,-4.05983 C 108.99749,89.20262 97.584495,82.701501 94.37766,82.626821 93.436615,82.604907 86.966668,77.222837 80.000002,70.666667 73.033335,64.110496 66.84144,58.728427 66.240235,58.706512 65.639031,58.684597 62.339031,56.717447 58.906901,54.335067 50.779428,48.693457 47.492636,46.995981 41.555746,45.373997 38.866753,44.639353 32.560899,41.329667 27.542738,38.01914 22.524578,34.708613 16.986772,32 15.236503,32 12.871515,32 11.362353,30.643873 9.360432,26.719784 5.3969109,18.950641 5.8594376,14.638843 11.212962,9.4500025 15.6485,5.1509091 15.95725,5.0665399 23.886456,5.9868219 30.271291,6.7278604 32.567049,7.6336069 34.594931,10.211642 38.040665,14.592183 47.565125,21.353833 62.468808,30 c 1.264071,0.733333 5.800412,3.733333 10.080757,6.666667 4.280347,2.933333 9.657746,6.43863 11.949775,7.789549 2.292031,1.35092 5.700159,3.90092 7.57362,5.666667 1.87346,1.765748 4.049994,3.21045 4.83674,3.21045 0.786747,0 2.054315,0.751714 2.816818,1.670472 0.762502,0.91876 5.463002,3.761375 10.445552,6.316922 4.98255,2.555545 11.18215,6.902846 13.77689,9.660668 2.59474,2.757821 5.65114,5.015208 6.792,5.016413 1.14087,0.0012 4.04451,1.455765 6.45254,3.232355 3.25944,2.404737 5.47489,3.0522 8.6698,2.533738 3.28256,-0.532688 5.82376,0.275271 10.8085,3.436504 8.09784,5.135504 11.15552,5.184124 15.8803,0.252516 2.74565,-2.865845 5.3383,-4.052686 9.91612,-4.53931 3.40914,-0.362395 7.99845,-1.112376 10.19845,-1.666624 5.01815,-1.26423 13.96517,-8.328344 14.10527,-11.136807 0.09,-1.805275 0.21526,-1.821195 0.86658,-0.110187 2.4795,6.513595 7.73564,5.097171 16.99279,-4.579205 4.80332,-5.020847 9.83087,-8.975707 12.12144,-9.535169 C 241.12111,52.818667 252,45.825463 252,44.084333 c 0,-0.616489 2.18011,-1.529881 4.84468,-2.029758 2.77818,-0.52119 6.66067,-2.717236 9.10206,-5.148388 7.74853,-7.716042 17.53355,-14.23952 21.35883,-14.23952 1.55762,0 4.92936,-3.182643 14.91294,-14.0766217 4.19139,-4.57359 8.98679,-5.3534069 15.33015,-2.4929508 9.55659,4.3094235 10.64405,13.6760055 2.44751,21.0810895 C 317.06071,29.830183 313.85371,32 312.86949,32 c -0.98424,0 -2.93251,1.273367 -4.3295,2.829704 -2.17108,2.418716 -8.22312,6.38024 -19.28272,12.622004 -1.41473,0.798439 -3.67361,2.448439 -5.01973,3.666667 -1.34613,1.218226 -2.91792,2.214958 -3.49287,2.214958 -1.04689,0 -13.0011,8.448592 -22.43325,15.854596 -2.76206,2.168734 -6.78952,4.331382 -8.94994,4.805888 -2.41602,0.53065 -4.94098,2.501756 -6.55962,5.120788 -3.1146,5.039527 -8.34666,9.090687 -18.61528,14.413752 C 214.4366,98.582559 212,101.58555 212,108.54771 c 0,6.00447 -1.77272,8.78562 -5.6,8.78562 -1.32,0 -2.4,0.9 -2.4,2 0,1.1 0.48166,2 1.07035,2 0.58869,0 6.30867,4.5 12.71107,10 6.40238,5.5 12.07073,10.0024 12.59632,10.00534 0.52557,0.003 4.2556,3.01698 8.28893,6.69789 4.03333,3.68091 8.83333,7.0608 10.66667,7.51089 1.83333,0.4501 6.69402,2.8662 10.80152,5.36912 7.30987,4.45431 7.91761,4.5788 28.66667,5.87268 11.65917,0.72706 25.99848,2.44107 31.86514,3.80892 5.86667,1.36786 13.51511,2.87938 16.99654,3.35894 10.66146,1.46857 11.53193,9.21572 2.19473,19.53321 -2.8552,3.15496 -5.19127,6.67679 -5.19127,7.82631 0,1.1495 -0.93402,3.42353 -2.0756,5.05336 -1.71261,2.44509 -3.34489,2.96334 -9.33333,2.96334 -8.13455,0 -8.77268,1.0193 -4.59107,7.33334 4.69167,7.08418 2.53978,16.6296 -3.7619,16.68708 -4.70564,0.0429 -5.75382,1.89432 -4.42379,7.81378 1.15237,5.12884 0.99,5.7843 -1.90235,7.67943 -2.8826,1.88875 -3.71556,1.86067 -9.41937,-0.31764 -7.61933,-2.90985 -11.32083,-6.19913 -15.06965,-13.39141 -1.57199,-3.01591 -4.03523,-6.54871 -5.47387,-7.85067 -1.43865,-1.30196 -2.61573,-3.18919 -2.61573,-4.19384 0,-2.12687 -7.84288,-18.01104 -12.28271,-24.87616 -1.67784,-2.59437 -4.55063,-7.20619 -6.38396,-10.24848 -2.4938,-4.13829 -5.18031,-6.35981 -10.66667,-8.82049 -13.28532,-5.95858 -15.71132,-7.39072 -21.21833,-12.52594 -8.22386,-7.66862 -15.76908,-9.37986 -26.32704,-5.9709 -2.37862,0.76801 -3.26203,0.12173 -5.08535,-3.7207 -3.49404,-7.36313 -11.18808,-15.5974 -14.57409,-15.5974 -1.64836,0 -4.417,1.5115 -6.15252,3.35888 C 168.0384,150.30287 158.06874,156 153.52135,156 c -3.23845,0 -4.60668,0.7934 -5.76955,3.34561 -0.97236,2.1341 -3.36016,3.89563 -6.59394,4.8645 -2.78828,0.83538 -6.59408,3.22986 -8.45734,5.32105 -1.86327,2.0912 -4.55331,3.80217 -5.97788,3.80217 -1.42457,0 -3.06994,0.75 -3.65638,1.66667 -0.58644,0.91667 -4.66626,4.50911 -9.06626,7.9832 -10.66924,8.42408 -12.41974,10.15604 -16.135974,15.96513 -1.741071,2.72159 -4.972734,6.28443 -7.181471,7.91742 -2.208737,1.63298 -4.015887,3.64642 -4.015887,4.4743 0,2.39342 -6.958397,15.2587 -13.064633,24.15503 -3.081119,4.48896 -5.602034,8.72125 -5.602034,9.40511 0,1.59961 -8.033451,9.16172 -10.719919,10.09096 -1.129288,0.39061 -3.664204,-0.13386 -5.633145,-1.1655 z M 301.81551,223.33333 c -0.42212,-1.1 -1.28445,-2 -1.9163,-2 -0.63187,0 -0.80348,0.9 -0.38138,2 0.42212,1.1 1.28446,2 1.91631,2 0.63187,0 0.80348,-0.9 0.38137,-2 z"
       id="path410" />
  </g>
</svg>
