<?xml version="1.0" encoding="UTF-8" standalone="no"?>
<!-- Created with Inkscape (http://www.inkscape.org/) -->

<svg
   version="1.1"
   id="svg223"
   width="169.33333"
   height="234.66667"
   viewBox="0 0 169.33333 234.66667"
   xmlns="http://www.w3.org/2000/svg"
   xmlns:svg="http://www.w3.org/2000/svg">
  <defs
     id="defs227" />
  <g
     id="g229">
    <path
       style="fill:#000000;stroke-width:1.33333"
       d="m 98.999998,229.7354 c -0.916667,-0.34336 -1.666667,-2.22796 -1.666667,-4.188 0,-3.6639 0.285664,-3.99228 34.017489,-39.10265 7.51494,-7.82204 15.96235,-16.97204 18.77203,-20.33333 8.92823,-10.68102 14.15703,-7.55259 13.77531,8.24188 -0.11934,4.93902 -0.0747,17.94736 0.0992,28.90741 0.40064,25.24089 1.5207,24.00661 -22.89938,25.23455 -32.57999,1.63824 -40.41877,1.86916 -42.098049,1.24014 z m 30.387162,-9.76421 c 1.39985,-0.74917 7.51041,-1.49917 13.57901,-1.66667 L 154,218 l 0.34452,-14 c 0.18948,-7.7 0.7025,-16.55 1.14004,-19.66666 0.6807,-4.84872 0.45174,-5.66667 -1.58623,-5.66667 -1.30996,0 -4.82299,2.84567 -7.80671,6.32369 -2.98373,3.47803 -11.57496,12.50876 -19.09162,20.0683 -7.51667,7.55953 -13.66667,14.31386 -13.66667,15.00964 0,1.69737 12.84599,1.61968 16.05383,-0.0971 z M 8.5805965,226.2565 c -0.4433693,-1.1554 -0.605382,-2.95603 -0.360028,-4.0014 0.6004385,-2.55827 11.9990125,-15.43211 29.7794305,-33.63364 8.066667,-8.25771 17.038773,-17.81994 19.938016,-21.24939 6.097413,-7.21248 9.168389,-9.16872 12.65584,-8.06184 3.887872,1.23396 4.498658,4.12084 4.800558,22.68977 0.154998,9.53334 0.42651,22.64006 0.603362,29.12606 0.252413,9.25722 -0.129094,12.24336 -1.774386,13.88865 -1.748464,1.74847 -7.296586,2.19927 -33.466299,2.71923 C 13.062274,228.2842 9.2922718,228.1111 8.5805965,226.2565 Z m 26.7527365,-6.88471 c 3.116997,-1.12295 10.421273,-1.94572 17.576815,-1.97993 10.478628,-0.0501 12.342772,-0.39487 12.932283,-2.39186 1.159386,-3.92746 1.461016,-31.55864 0.363876,-33.33333 -2.107399,-3.40887 -5.734334,-1.40039 -12.753289,7.06233 -3.967507,4.7836 -11.917507,13.36984 -17.666667,19.08054 -5.74916,5.71069 -10.453018,11.08973 -10.453018,11.95344 0,2.08914 3.494649,1.95244 10,-0.39119 z m 48.206015,-63.70512 c -3.760826,-6.08069 -9.250149,-23.14956 -12.419828,-38.61902 -0.414049,-2.02075 0.540333,-7.8393 2.161036,-13.17511 1.69984,-5.596351 2.409957,-10.048691 1.71374,-10.744908 C 74.298079,92.431415 71.893272,92.737768 69.190733,93.86696 58.602778,98.290891 11.493801,94.598412 6.9755377,88.990432 5.4665644,87.117524 6.7843601,82.668745 9.5208462,80.397664 14.788968,76.02551 33.620347,70.599793 50.032623,68.725368 c 7.041471,-0.804198 8.875096,-0.494246 14.860301,2.511952 3.755224,1.886141 8.098596,3.429348 9.651937,3.429348 2.684635,0 2.732241,-0.220226 0.962976,-4.454675 -4.434313,-10.612804 -3.665329,-37.818707 1.351435,-47.812446 0.994066,-1.980249 1.807393,-5.402017 1.807393,-7.603929 0,-6.7448464 2.586693,-10.7956179 6.893736,-10.7956179 5.228233,0 7.717201,3.4131544 11.997942,16.4529419 4.144047,12.623384 5.315057,32.927156 2.500087,43.348315 -0.861867,3.190691 -1.303219,6.065068 -0.980783,6.387505 0.322438,0.322438 4.995963,-0.416718 10.385613,-1.642568 10.97946,-2.497225 23.07758,-2.043812 39.87007,1.494252 10.83653,2.283183 12.70827,3.456951 14.01376,8.788075 0.72432,2.957817 0.17408,3.906239 -3.57892,6.16877 -13.93353,8.399956 -39.95872,12.159241 -54.55524,7.880394 -3.91369,-1.147262 -7.265647,-1.93608 -7.4488,-1.752926 -0.183153,0.183153 0.46486,3.005009 1.440031,6.27079 3.131949,10.488691 3.823779,22.763841 1.653129,29.331401 -1.079727,3.26685 -2.654405,9.37788 -3.499285,13.58008 -3.187963,15.85604 -9.305855,22.65617 -13.818657,15.35964 z M 89.962666,129 c 1.208424,-10.30051 1.304148,-16.9489 0.33838,-23.50169 -1.008404,-6.842067 -1.43673,-7.448615 -4.444854,-6.29429 -2.025324,0.777189 -2.165932,2.60422 -1.360263,17.67485 0.494205,9.24443 1.220205,17.32849 1.613335,17.9646 1.707858,2.76337 3.089469,0.66824 3.853402,-5.84347 z M 65.943059,85.425465 c 1.259833,-2.038452 -1.046574,-2.674329 -13.045457,-3.596637 -8.082874,-0.621299 -12.638423,-0.374086 -15.583096,0.845639 -3.017908,1.250058 -3.678516,2.029626 -2.404488,2.837482 2.413248,1.530232 30.08151,1.453126 31.033041,-0.08648 z M 131.66666,82.678257 C 134.05,82.671857 136,82.13802 136,81.491893 c 0,-0.646125 -5.73434,-1.604695 -12.74297,-2.130153 -9.49574,-0.711924 -13.82778,-0.497504 -17,0.841441 L 102,82.000001 l 6,0.871238 c 3.3,0.47918 9,0.634394 12.66666,0.344922 3.66667,-0.289473 8.61667,-0.531529 11,-0.537904 z M 88.349512,46.546961 c -0.491208,-29.746507 -2.269888,-28.511963 -5.095794,3.536881 -0.97441,11.05088 0.514462,17.34044 3.836552,16.207052 1.135246,-0.387308 1.48764,-5.912586 1.259242,-19.743933 z"
       id="path549" />
  </g>
</svg>
