<?xml version="1.0" encoding="UTF-8" standalone="no"?>
<!-- Created with Inkscape (http://www.inkscape.org/) -->

<svg
   version="1.1"
   id="svg213"
   width="224"
   height="201.33333"
   viewBox="0 0 224 201.33333"
   xmlns="http://www.w3.org/2000/svg"
   xmlns:svg="http://www.w3.org/2000/svg">
  <defs
     id="defs217" />
  <g
     id="g219">
    <path
       style="fill:#000000;stroke-width:1.33333"
       d="m 166.62791,198.2004 c -0.8675,-0.88832 -61.59151,-2.37355 -93.030327,-2.27539 -27.169764,0.0848 -29.183123,-0.53839 -33.646726,-10.41484 l -2.958901,-6.54707 -12.946635,-0.52 C 8.769852,177.82956 4,175.65852 4,169.31932 4,166.14788 5.0704908,164.69101 9.4169583,161.94721 15.886368,157.86325 16.085229,154.01574 10,150.66666 c -7.9142652,-4.35572 -4.7830324,-12 4.915411,-12 4.45875,0 6.131172,0.80743 9.666102,4.66667 2.350975,2.56667 4.831896,4.64228 5.51316,4.61248 0.681263,-0.0299 3.315996,-1.8298 5.854962,-4 6.744425,-5.76484 13.296697,-5.22668 16.709209,1.3724 2.365829,4.575 0.796484,7.05339 -6.325511,9.98956 -2.75,1.13375 -5,2.778 -5,3.65391 0,0.8759 2.102824,3.74604 4.672943,6.37808 2.570117,2.63204 5.429235,7.39769 6.353593,10.59034 3.028732,10.46098 5.635764,10.2384 23.640131,-2.01825 5.490049,-3.7374 10.136024,-5.90211 12.675469,-5.90588 2.204842,-0.003 5.98055,-0.57147 8.390462,-1.26261 5.326119,-1.52752 18.614189,0.43864 26.267399,3.88661 2.93334,1.32155 8.4362,3.32409 12.22858,4.45011 3.79238,1.12601 8.18506,2.73758 9.7615,3.58128 4.61995,2.47252 17.40068,5.43858 23.26095,5.39824 2.9786,-0.0205 12.90052,0.264 22.04869,0.63224 18.75614,0.75497 21.2019,1.80332 19.07727,8.17721 -1.15611,3.46832 -1.83432,3.80549 -7.82143,3.88856 -3.60556,0.05 -12.85556,0.55763 -20.55556,1.12804 -7.7,0.5704 -14.31744,0.71204 -14.70542,0.31475 z m -55.29458,-15.61023 c -7.41733,-1.53423 -12.666663,-1.50252 -12.666663,0.0765 0,0.77235 3.786663,1.26883 9.000003,1.18 8.33496,-0.142 8.6059,-0.23484 3.66666,-1.25649 z m 2.72736,-46.52311 c -2.09582,-2.31586 -2.34538,-5.66156 -2.28636,-30.65216 0.0732,-31.020415 0.8886,-35.103389 7.15475,-35.829004 2.25796,-0.261469 4.58872,0.598572 6.32348,2.333333 C 127.86041,74.527077 128,76.156996 128,104 c 0,27.55555 -0.16162,29.49494 -2.66667,32 -3.38526,3.38526 -8.24355,3.41417 -11.27264,0.0671 z M 99.333333,61.939066 C 98.6,61.744524 89.6,60.593415 79.333333,59.381043 69.066667,58.168671 57.066667,56.005894 52.666667,54.57487 c -4.4,-1.431024 -8.981416,-2.59579 -10.180924,-2.588367 -1.199508,0.0075 -3.899508,-0.882808 -6,-1.978289 -2.100492,-1.095483 -4.833666,-1.995483 -6.07372,-2 -1.240055,-0.0045 -2.625464,-0.608215 -3.07869,-1.341548 -0.453225,-0.733333 -1.958556,-1.333333 -3.34518,-1.333333 -1.386624,0 -5.297713,-1.873891 -8.691309,-4.164202 -5.4111731,-3.651956 -6.0626779,-4.595044 -5.296295,-7.666666 1.508687,-6.04674 6.432607,-10.18128 14.63475,-12.288576 2.217253,-0.569657 7.631368,-2.036152 12.031368,-3.258877 C 48.742261,14.599298 61.090143,11.858139 70,10.555201 83.526145,8.5771981 121.92143,5.6364238 123.33333,6.4702908 c 0.73334,0.4331052 8.83334,1.1708129 18,1.6393507 15.08663,0.7711261 35.6041,4.9066685 48.66667,9.8093525 1.46667,0.550474 5.96667,2.175543 10,3.611266 14.99895,5.339085 19.2964,8.090129 19.73867,12.63583 0.23001,2.364104 -0.43368,5.005113 -1.53443,6.105863 -1.06688,1.066874 -10.54928,4.691024 -21.07201,8.053665 -23.45474,7.495193 -27.98822,8.689705 -36.46556,9.608196 C 157,58.331084 148.6,59.281951 142,60.046852 130.34944,61.397083 102.02538,62.653219 99.333333,61.939066 Z M 144,46.750959 c 3.3,-0.71582 8.7,-1.335361 12,-1.37676 3.3,-0.0414 9.80345,-1.267529 14.45212,-2.724734 4.64868,-1.457207 9.90812,-2.649466 11.68767,-2.649466 4.9076,0 13.86021,-3.118538 13.86021,-4.828045 0,-2.906287 -3.41828,-4.280368 -14.66667,-5.8957 C 175.1,28.38111 167.9,26.614666 165.33333,25.350821 159.75991,22.606425 137.7568,19.878854 117.77178,19.454949 99.236761,19.061798 61.725671,23.127729 52,26.584132 50.166667,27.23568 44.916667,28.544558 40.333333,29.49275 33.877255,30.828373 32,31.75147 32,33.590474 c 0,3.916135 15.711887,8.837265 38,11.902005 5.133333,0.705862 12.333333,1.777295 16,2.380963 8.493655,1.398367 50.08984,0.593349 58,-1.122483 z"
       id="path688" />
  </g>
</svg>
