<?xml version="1.0" encoding="UTF-8" standalone="no"?>
<!-- Created with Inkscape (http://www.inkscape.org/) -->

<svg
   version="1.1"
   id="svg203"
   width="220"
   height="213.33333"
   viewBox="0 0 220 213.33333"
   xmlns="http://www.w3.org/2000/svg"
   xmlns:svg="http://www.w3.org/2000/svg">
  <defs
     id="defs207" />
  <g
     id="g209">
    <path
       style="fill:#000000;stroke-width:1.33333"
       d="m 53.197177,204.96072 c -4.119166,-2.76332 -4.642081,-3.86622 -5.759345,-12.14715 -0.888059,-6.58211 -0.792487,-9.80657 0.344632,-11.62739 2.177741,-3.48712 0.169508,-3.21725 -8.052943,1.08215 -8.512348,4.45099 -18.135582,4.63911 -25.848382,0.50529 -2.84624,-1.52549 -6.3838669,-2.821 -7.8613935,-2.87889 -1.4775267,-0.0579 -1.997482,-0.38753 -1.1554564,-0.73253 0.9234514,-0.37838 1.2985521,-2.58522 0.9452816,-5.56142 -0.6744286,-5.68185 -0.2656178,-6.39784 6.5951313,-11.55062 8.641607,-6.49031 24.184998,-4.84574 29.786538,3.15158 1.077984,1.53904 3.166381,2.79826 4.640883,2.79826 2.15987,0 2.504754,-0.58306 1.774534,-3 -0.498506,-1.65 -1.43894,-3.57 -2.08985,-4.26667 -2.922675,-3.12812 0.434713,-18.62773 4.531608,-20.92047 3.26553,-1.82748 12.61985,-1.74804 14.878366,0.1264 4.186414,3.47442 5.43359,15.36091 2.62947,25.06076 -0.761976,2.63579 -0.383062,3 3.121038,3 h 3.988307 l 0.605653,-11.5392 c 0.552943,-10.53493 0.921123,-11.81054 4.230487,-14.65714 7.61666,-6.55158 14.518417,-5.35706 20.592114,3.56396 2.5481,3.74264 3.02021,5.78481 2.45802,10.63238 -0.38271,3.3 -1.10264,7.05 -1.59984,8.33334 -1.19013,3.07186 2.39093,3.13322 5.4311,0.0931 1.80362,-1.80361 2.07425,-3.70777 1.38848,-9.76921 -0.7385,-6.52743 -0.45352,-8.04737 2.14233,-11.42639 4.10213,-5.33974 5.03339,-5.85362 10.65043,-5.87704 3.37867,-0.0141 6.20545,1.07999 9.11421,3.52755 4.49395,3.78141 4.63923,5.35965 1.91325,20.78537 -0.70356,3.98134 -0.46861,5 1.15325,5 5.32049,0 5.86556,-1.15985 5.22628,-11.12106 l -0.61989,-9.65928 4.87066,-4.2765 c 5.18159,-4.54949 10.14068,-5.4209 15.90452,-2.79472 3.9886,1.81732 7.38458,9.92231 6.0831,14.51823 -1.29744,4.58169 -1.42719,12.00121 -0.20975,11.99441 0.55,-0.003 4,-1.56936 7.66667,-3.48065 8.72454,-4.54777 23.51645,-5.86653 29.73469,-2.65096 4.86865,2.51768 8.26531,8.26043 8.26531,13.97421 0,7.16368 -8.74203,11.48332 -22.98578,11.35782 -4.91817,-0.0433 -7.62686,-0.99483 -12.21797,-4.29192 -5.88136,-4.22367 -11.86711,-5.48499 -13.49901,-2.84451 -0.47308,0.76547 -0.20928,2.176 0.58622,3.13452 0.79551,0.95853 1.82655,4.51641 2.2912,7.9064 1.01647,7.41592 -1.40542,11.94117 -8.09924,15.13323 -5.93838,2.83182 -10.4439,1.52118 -14.91302,-4.33815 -3.0705,-4.02561 -3.63984,-6.11203 -3.72663,-13.65631 L 138,176.66666 l -4.50224,-0.43041 c -4.33185,-0.41412 -4.4672,-0.28796 -3.57619,3.33333 0.50932,2.07007 1.78533,5.50594 2.83557,7.63527 3.90978,7.92697 1.44841,15.62764 -5.93929,18.58173 -5.52813,2.21051 -9.11719,1.001 -14.67066,-4.94397 -2.74992,-2.94379 -3.1781,-4.69533 -3.1274,-12.79335 0.0537,-8.57625 -0.17518,-9.3826 -2.66307,-9.3826 -2.52585,0 -2.67287,0.6097 -2.04204,8.46852 0.37387,4.65768 0.0757,9.60768 -0.66258,11 -2.5425,4.79476 -8.156952,9.86478 -10.901555,9.8444 -3.539152,-0.0263 -4.782838,-0.94632 -9.154362,-6.7721 C 80.540577,197.13537 80,195.09692 80,187.64674 c 0,-8.72046 -0.02249,-8.77313 -4.131783,-9.67569 -5.2103,-1.14437 -7.825225,0.98992 -5.592708,4.56475 6.06613,9.71341 0.06107,25.4642 -9.70834,25.4642 -1.561714,0 -4.87821,-1.36768 -7.369992,-3.03928 z M 61.333333,190 c 0,-1.1 -0.6,-2 -1.333333,-2 -0.733333,0 -1.333333,0.9 -1.333333,2 0,1.1 0.6,2 1.333333,2 0.733333,0 1.333333,-0.9 1.333333,-2 z m 31.365224,-0.76715 c 0.483043,-1.52193 0.490852,-3.15456 0.01736,-3.62805 -0.999281,-0.99928 -3.332186,2.2817 -3.36216,4.72853 -0.03311,2.70225 2.391002,1.90469 3.344807,-1.10048 z m 58.773673,-3.53841 c -1.35536,-1.35535 -2.47367,0.68518 -1.36163,2.4845 0.84004,1.35923 1.15411,1.36028 1.60573,0.005 0.3088,-0.92639 0.19895,-2.04684 -0.2441,-2.4899 z M 30.666667,172.80932 c 0,-3.15832 -6.786826,-4.62583 -10.504154,-2.27131 -3.078924,1.95016 -0.309005,4.12865 5.24951,4.12865 3.602537,0 5.254644,-0.58396 5.254644,-1.85734 z m 164.000003,-2.14266 c 0,-2.04885 -0.8889,-2.66666 -3.83675,-2.66666 -2.1102,0 -4.54523,0.85368 -5.41116,1.89706 -1.27408,1.53518 -0.98728,2.00924 1.50341,2.4851 6.52375,1.24637 7.7445,0.97596 7.7445,-1.7155 z M 92,154.66666 c 0,-1.3801 -0.604237,-2.88273 -1.342751,-3.33916 -1.713601,-1.05905 -3.193152,2.68611 -2.142652,5.42367 C 89.539823,159.42286 92,157.95152 92,154.66666 Z m 30.66667,-0.93333 c 0,-2.68132 -0.38543,-3.21457 -1.51038,-2.08963 -0.83071,0.83071 -1.14954,2.45071 -0.70851,3.6 1.22057,3.18078 2.21889,2.50123 2.21889,-1.51037 z M 154,154 c 0,-1.34444 -0.75,-2.69444 -1.66667,-3 -1.05556,-0.35186 -1.66666,0.74814 -1.66666,3 0,2.25185 0.6111,3.35185 1.66666,3 C 153.25,156.69444 154,155.34444 154,154 Z M 79.914671,61.350903 C 74.367739,60.805508 68.557184,59.67844 67.002325,58.846304 65.447467,58.01417 61.751916,57.333332 58.789991,57.333332 c -2.961927,0 -7.951371,-1.155248 -11.087656,-2.567217 C 44.566051,53.354144 37.838012,51.250303 32.751137,50.09091 22.256527,47.698997 6.8370339,40.491449 4.7450467,36.999999 2.9323236,33.974631 4.9569192,30.635953 10.131711,28.11707 12.25927,27.08146 15.2,25.617778 16.666667,24.864445 c 8.220873,-4.22254 12.805936,-5.933957 20,-7.465192 4.4,-0.936527 10.7,-2.494025 14,-3.461109 3.3,-0.967083 11.1,-2.158861 17.333333,-2.648396 6.233333,-0.489534 14.179615,-1.4137555 17.658404,-2.0538252 6.869835,-1.2639952 39.851826,-1.5994879 51.674926,-0.5256371 8.87122,0.8057404 26.5959,4.0121843 32.42691,5.8661143 2.33187,0.741404 8.43976,2.626078 13.57309,4.188168 9.12846,2.777816 14.56091,5.137516 25.33334,11.004073 6.1633,3.356474 8.15625,9.367289 3.58669,10.81761 -1.41259,0.448338 -3.64045,1.999843 -4.95083,3.447787 -1.31037,1.447945 -3.8193,2.632628 -5.5754,2.632628 -1.75609,0 -4.81309,0.829651 -6.79334,1.843668 -1.98026,1.014017 -6.74979,2.270228 -10.59896,2.791579 -3.84919,0.521352 -7.29174,1.422357 -7.65012,2.002236 -0.57999,0.938438 -7.89634,2.475459 -22.01804,4.625559 -2.56667,0.390788 -6.16667,1.057027 -8,1.48053 -8.94128,2.065452 -52.579659,3.33414 -66.751999,1.940665 z M 137.33333,48.870415 c 9.16667,-1.181749 19.96667,-3.02001 24,-4.085026 4.03334,-1.065018 11.70576,-2.586339 17.04984,-3.380715 9.98375,-1.484048 14.95016,-3.557011 14.95016,-6.240148 0,-2.2824 -8.05878,-5.669245 -16.86982,-7.089838 -4.28827,-0.691392 -10.49684,-1.886644 -13.79684,-2.656116 -21.56951,-5.029434 -73.336727,-7.651316 -80.057077,-4.054695 -1.217393,0.651531 -6.652577,1.467928 -12.078185,1.814219 -9.594825,0.61239 -16.121517,1.973837 -37.549089,7.832612 l -10.351015,2.830197 4.023051,2.547216 c 4.393106,2.781518 20.210904,7.511053 28.678978,8.57504 2.933334,0.368564 5.941503,1.158386 6.684823,1.755162 0.743319,0.596776 8.837804,1.773774 17.987747,2.615552 9.149941,0.841779 16.835749,1.729999 17.079573,1.973823 1.00274,1.00274 24.691334,-0.431767 40.247854,-2.437283 z"
       id="path827" />
  </g>
</svg>
