<?xml version="1.0" encoding="UTF-8" standalone="no"?>
<!-- Created with Inkscape (http://www.inkscape.org/) -->

<svg
   version="1.1"
   id="svg193"
   width="213.33333"
   height="205.33333"
   viewBox="0 0 213.33333 205.33333"
   xmlns="http://www.w3.org/2000/svg"
   xmlns:svg="http://www.w3.org/2000/svg">
  <defs
     id="defs197" />
  <g
     id="g199">
    <path
       style="fill:#000000;stroke-width:1.33333"
       d="m 7.6666665,197.69446 c -3.5249483,-0.84094 -2.9187554,-7.11012 1.5868976,-16.4115 2.1561269,-4.45107 4.6027479,-10.1609 5.4369339,-12.68851 1.660383,-5.03101 6.159799,-7.14577 10.799078,-5.07568 1.459184,0.65111 4.903368,5.07575 7.653741,9.83253 2.750374,4.75679 5.790453,8.6487 6.75573,8.6487 0.965278,0 2.739372,-2.4 3.942435,-5.33334 7.700215,-18.77484 12.108082,-19.24762 21.754305,-2.33333 2.195656,3.85 4.826775,7 5.846929,7 1.020156,0 2.781446,-2.21771 3.913976,-4.92823 2.931211,-7.01537 8.377008,-13.73844 11.128373,-13.73844 3.045636,0 8.498294,5.8247 12.23078,13.06528 1.823945,3.53826 3.731275,5.5794 4.983685,5.33334 1.11589,-0.21924 3.92649,-3.9961 6.24578,-8.39302 2.33034,-4.41786 5.82505,-8.89165 7.81153,-10 3.43823,-1.91833 3.74189,-1.83156 6.97908,1.9944 1.86145,2.2 5.2256,6.87726 7.4759,10.39391 4.23743,6.62204 5.92468,7.21503 8.35959,2.93797 5.80364,-10.19441 10.44609,-16.66521 11.95641,-16.66521 3.41276,0 8.47674,5.30097 12.05952,12.62391 1.98483,4.05685 4.12947,7.37609 4.76587,7.37609 0.63639,0 3.058,-3.56651 5.38136,-7.92556 5.35995,-10.05629 8.35857,-12.89117 11.93063,-11.27915 3.23785,1.4612 14.66813,15.16259 14.66813,17.58258 0,0.95156 1.2626,3.43786 2.80577,5.52512 4.73644,6.40638 0.82078,15.29942 -5.61793,12.75916 -1.01999,-0.40242 -3.69961,-4.16602 -5.95475,-8.36358 -5.659,-10.53324 -8.37633,-10.69757 -13.37696,-0.80896 -5.54913,10.97331 -7.31066,11.64263 -13.54958,5.14838 -2.80284,-2.91756 -6.5447,-7.88271 -8.31522,-11.03367 l -3.21913,-5.72903 -2.39293,3.06236 c -1.31612,1.6843 -3.72731,5.67459 -5.35819,8.86734 -4.23769,8.296 -7.10268,10.02472 -11.90879,7.18568 -2.08031,-1.22887 -4.12307,-3.30774 -4.53947,-4.61968 -1.29437,-4.07819 -7.35332,-10.37099 -9.9856,-10.37099 -1.73341,0 -3.50539,2.1782 -5.73197,7.046 -1.7726,3.87529 -4.18239,7.84229 -5.3551,8.81555 -3.20171,2.6572 -8.55442,0.67988 -11.452604,-4.23067 -4.566469,-7.73719 -9.529329,-14.29755 -10.815976,-14.29755 -0.694184,0 -3.05402,3.9123 -5.24408,8.69399 -2.664352,5.81724 -5.120071,9.21256 -7.421586,10.2612 -4.70636,2.14436 -6.847399,0.51627 -11.89189,-9.04284 -5.616158,-10.6424 -8.09283,-10.5566 -13.257239,0.45933 -2.766746,5.9016 -4.838427,8.601 -7.02141,9.1489 -3.938509,0.98849 -5.578249,-0.42691 -12.631466,-10.90335 -6.535977,-9.70816 -7.465575,-9.59459 -11.647796,1.42305 -2.617741,6.89618 -5.901903,9.91338 -9.7827665,8.98752 z M 37.632746,158.65062 c -0.928072,-1.48608 -1.721368,-7.1564 -1.778483,-12.71222 -0.08835,-8.59342 -0.567744,-10.58172 -3.34806,-13.88594 -1.784726,-2.12103 -5.021857,-4.24669 -7.193623,-4.72369 -2.171767,-0.477 -4.290958,-1.42111 -4.709312,-2.09802 C 20.184912,124.55384 17.499141,124 14.634889,124 5.8763784,124 6.0227303,125.88439 10.648073,72.666665 11.412912,63.866666 12.5872,51.866666 13.257601,45.999999 13.928002,40.133333 14.877244,29.933333 15.367026,23.333333 16.751816,4.6728274 21.78851,1.8241078 33.553546,13.047165 c 5.239483,4.998116 7.117685,7.9591 8.668997,13.666667 2.09218,7.697522 2.246948,9.947327 4.445287,64.6195 0.766661,19.066668 1.686011,41.667828 2.043001,50.224808 0.54252,13.00411 0.302936,15.90428 -1.459452,17.66667 -2.918026,2.91803 -7.61273,2.63777 -9.618633,-0.57419 z m -2.91068,-56.31729 c 0.336196,-8.249998 0.611267,-26.399998 0.611267,-40.333331 0,-22.666666 -0.280702,-25.894737 -2.666667,-30.666666 -4.329284,-8.658568 -6.536164,-7.081445 -7.46297,5.333333 -3.324692,44.534989 -4.136039,54.190699 -5.090595,60.582384 -1.408253,9.42963 -0.436255,12.58382 5.145939,16.69889 8.173302,6.02517 8.774242,5.2876 9.463026,-11.61461 z m 99.217334,6.39394 c -4.01982,-4.01981 -4.11055,-7.18851 -0.41368,-14.447056 4.87688,-9.575447 9.20856,-14.187517 17.87896,-19.036282 11.20421,-6.265754 18.95404,-7.117902 30.32373,-3.334313 4.80504,1.599014 9.45531,3.773493 10.33393,4.832173 0.87863,1.05868 2.37363,1.924873 3.32222,1.924873 2.0439,0 8.60502,8.129458 11.73345,14.538184 2.97251,6.089305 2.86897,13.790301 -0.223,16.588501 C 204.76182,111.72386 200.2492,112 170.8344,112 h -33.62228 z m 60.27113,-10.795113 c 1.09333,-2.849191 -4.17888,-8.168073 -12.08485,-12.191825 -5.63275,-2.866789 -7.57338,-3.200051 -13.97608,-2.400085 -13.53531,1.691124 -22.81627,7.456229 -22.81627,14.172897 0,2.334972 1.46833,2.486854 24.04184,2.486854 20.49111,0 24.15904,-0.3054 24.83536,-2.067841 z"
       id="path966" />
  </g>
</svg>
