<?xml version="1.0" encoding="UTF-8" standalone="no"?>
<!-- Created with Inkscape (http://www.inkscape.org/) -->

<svg
   version="1.1"
   id="svg183"
   width="180"
   height="206.66667"
   viewBox="0 0 180 206.66667"
   xmlns="http://www.w3.org/2000/svg"
   xmlns:svg="http://www.w3.org/2000/svg">
  <defs
     id="defs187" />
  <g
     id="g189">
    <path
       style="fill:#000000;stroke-width:1.33333"
       d="m 89.333333,203.1379 c -1.1,-0.35944 -6.344306,-2.79184 -11.654014,-5.40532 -8.039464,-3.95708 -10.454932,-5.9584 -14.442995,-11.96668 -8.863625,-13.35362 -9.785032,-25.20099 -3.008739,-38.68614 2.325174,-4.6272 4.749468,-8.41309 5.387324,-8.41309 2.381311,0 9.051758,-5.91572 9.051758,-8.02759 0,-1.20603 -2.4,-4.12146 -5.333334,-6.47876 -5.288797,-4.25019 -7.44537,-10.68435 -3.666666,-10.93954 6.147258,-0.41514 60.238313,0.30848 61.060903,0.81686 1.97932,1.22329 -0.50483,6.67568 -4.92459,10.80886 -2.45831,2.2989 -4.46965,4.78054 -4.46965,5.51474 0,0.7342 2.02026,2.2936 4.48947,3.46531 2.57842,1.22355 6.66548,5.28987 9.60138,9.55267 4.99991,7.25964 5.11335,7.69104 5.17721,19.6882 0.0537,10.09405 -0.44262,13.21026 -2.80314,17.59925 -3.69895,6.87759 -14.23211,18 -17.04638,18 -1.19846,0 -3.50792,0.83033 -5.13211,1.84517 -3.06765,1.91676 -18.788275,3.76915 -22.286427,2.62606 z m 17.245807,-12.43924 c 7.82848,-2.8614 14.75419,-8.54199 14.75419,-12.10163 0,-1.23057 1.10696,-3.66832 2.4599,-5.41721 1.35294,-1.7489 2.85135,-5.19688 3.3298,-7.66218 1.97329,-10.16769 -10.70837,-26.85097 -20.41055,-26.85097 -4.54276,0 -4.61223,-3.56776 -0.17847,-9.16584 2.27296,-2.86985 4.13266,-5.88156 4.13266,-6.6927 0,-1.9666 -26.168031,-2.02697 -27.381725,-0.0632 -0.479838,0.7764 0.755148,3.76023 2.744415,6.63074 4.234392,6.11024 3.694653,8.70005 -2.343949,11.24696 -14.245663,6.00838 -20.308875,25.0585 -11.973823,37.62076 4.493444,6.77234 9.016681,10.46785 15.819221,12.92441 7.261531,2.62229 10.830972,2.53439 19.048331,-0.46917 z m 16.08753,-89.29131 C 114.44154,98.860983 100.53952,88.657477 97.462955,82.908868 96.658329,81.405412 96,79.062732 96,77.702912 96,76.343093 94.787635,72.853648 93.305856,69.94859 87.879277,59.309678 93.141015,40.811074 104.2087,31.617641 l 5.65799,-4.699841 -6.24543,-7.586261 C 98.590617,13.220862 97.630457,11.269508 98.6849,9.2992633 99.855136,7.1126578 102.1507,6.8212476 120.33032,6.5514921 156.14359,6.0200822 164,6.7646981 164,10.690424 c 0,1.389866 -2.40617,5.103102 -5.34704,8.251636 l -5.34704,5.724607 2.89188,2 c 5.82896,4.031276 11.47159,10.582367 14.5382,16.878876 4.22285,8.670555 4.51863,24.174026 0.60828,31.884522 -6.11699,12.061592 -11.28955,17.743051 -19.77545,21.721049 -8.69519,4.076096 -22.78279,6.150686 -28.90216,4.256236 z m 25.4967,-15.157897 c 2.77098,-1.594769 5.78078,-4.403301 6.68843,-6.241182 2.92359,-5.91981 4.91133,-17.748349 3.57635,-21.281781 -0.68024,-1.800432 -0.84319,-5.60324 -0.36211,-8.450687 0.75765,-4.484546 0.37701,-5.696614 -2.84513,-9.059822 -2.04591,-2.135456 -4.7343,-3.882647 -5.9742,-3.882647 -3.8474,0 -11.91338,-3.942607 -11.91338,-5.823196 0,-0.983076 1.5,-3.405938 3.33334,-5.384136 C 142.5,24.147802 144,21.806275 144,20.92261 144,18.664094 134.63064,16 126.68767,16 120.35363,16 120,16.185563 120,19.509288 c 0,1.930108 1.25868,5.545872 2.79706,8.03503 2.62274,4.243677 2.66237,4.731304 0.63593,7.824045 -1.4414,2.199859 -3.39579,3.298304 -5.86844,3.298304 -3.07907,0 -4.31655,1.128058 -7.30259,6.656898 -1.97741,3.661293 -3.59529,8.069111 -3.59529,9.795149 0,1.726039 -0.96926,5.081176 -2.15391,7.455862 -1.58454,3.17628 -1.76077,4.710752 -0.66667,5.80485 0.81798,0.817983 1.48724,2.865514 1.48724,4.550067 0,4.787159 8.72625,13.453907 15.82782,15.719904 8.01626,2.557859 20.28209,1.46768 27.00222,-2.399944 z M 27.333333,93.757382 C 16.877399,88.548547 12.750143,85.193604 9.5888479,79.333335 3.4145564,67.887705 2.2285855,56.688 5.9912681,45.359623 7.9851061,39.356739 9.93934,37.052421 19.666667,29.234392 22.718399,26.78166 21.392579,23.156018 15.384828,17.5251 4.7237659,7.5327485 9.7222479,5.4233988 44.837109,5.0962946 76.476557,4.801565 81.482112,6.922747 71.514631,16.401311 c -6.532226,6.211809 -6.929871,8.515984 -1.988278,11.521147 8.917051,5.422783 13.344176,15.668857 13.572014,31.410876 0.16819,11.620852 0.01791,12.256227 -4.756263,20.109531 -11.007131,18.106234 -31.7261,23.920565 -51.008771,14.314517 z m 33.46153,-11.762018 c 4.277344,-2.506691 6.549866,-5.171359 9.215157,-10.80532 5.065165,-10.706882 5.434868,-14.886668 2.019047,-22.826958 -3.622891,-8.42164 -7.433682,-12.075493 -14.886638,-14.273575 -7.03146,-2.073772 -7.870204,-4.714029 -3.244061,-10.211887 6.345023,-7.540632 5.200155,-8.387993 -10.075609,-7.457353 -7.430816,0.452705 -13.837075,1.149601 -14.236131,1.548656 -0.399055,0.399056 0.830336,2.369297 2.731981,4.378315 5.331419,5.632444 5.415127,10.261864 0.20918,11.568473 -10.96527,2.752108 -17.741753,15.893743 -16.714158,32.413778 0.575364,9.249808 20.461908,20.911471 33.411746,19.592975 3.240624,-0.329945 8.446894,-2.097143 11.569486,-3.927104 z"
       id="path1121" />
  </g>
</svg>
