<?xml version="1.0" encoding="UTF-8" standalone="no"?>
<!-- Created with Inkscape (http://www.inkscape.org/) -->

<svg
   version="1.1"
   id="svg173"
   width="214.66667"
   height="189.33333"
   viewBox="0 0 214.66667 189.33333"
   xmlns="http://www.w3.org/2000/svg"
   xmlns:svg="http://www.w3.org/2000/svg">
  <defs
     id="defs177" />
  <g
     id="g179">
    <path
       style="fill:#000000;stroke-width:1.33333"
       d="m 83.35324,182.47744 c -15.234726,-1.19092 -17.295836,-2.54056 -15.828086,-10.36435 2.380043,-12.68671 13.251358,-23.9518 26.421646,-27.37868 18.97561,-4.93743 31.15505,-0.60331 43.95834,15.64279 4.21784,5.35201 5.35128,8.00752 5.81752,13.62969 0.39728,4.79071 0.0397,7.31593 -1.13915,8.04451 -2.31577,1.43122 -42.659403,1.72141 -59.23027,0.42604 z m 47.31343,-12.65391 c 0,-1.29487 -2.98139,-5.15339 -6.62532,-8.57448 C 116.78506,154.43648 111.2289,152.81948 100,154.2523 91.923621,155.28288 79.999943,164.07524 80.000055,169 c 4.9e-5,2.12553 2.256169,2.37093 25.333335,2.75558 23.48342,0.39142 25.33328,0.25034 25.33328,-1.93205 z M 58.000001,124.33222 C 34.251422,123.14083 21.716391,119.08222 9.6666668,108.68278 1.9656474,102.03647 2.367285,94.874726 10.873315,87.166616 18.247068,80.484568 24.39114,79.923101 59.328732,82.7386 c 12.239917,0.986373 16.120985,0.912251 16.530303,-0.315703 1.630633,-4.891898 6.4734,-7.378509 16.215957,-8.32639 5.458755,-0.531099 13.835358,-1.782454 18.614678,-2.780788 5.53206,-1.155572 14.79157,-1.656679 25.48195,-1.379035 16.0117,0.415848 17.34317,0.67164 28.64366,5.50286 9.81572,4.196444 13.45454,5.080513 21.18472,5.146931 5.13334,0.04411 11.14502,-0.387102 13.35928,-0.958236 6.5711,-1.694907 8.71971,0.97779 10.00543,12.44597 1.41645,12.634211 0.39363,20.944531 -2.69863,21.925971 -1.27272,0.40395 -4.64325,0.77178 -7.49006,0.8174 -9.39708,0.15058 -20.80567,2.655 -24.48447,5.37485 -2.7344,2.02163 -7.01955,2.96917 -17.48999,3.86743 -12.06378,1.03494 -80.267955,1.2222 -99.201559,0.27236 z m 99.333339,-11.1223 c 6.23333,-0.87276 11.93333,-2.30764 12.66666,-3.18864 0.73334,-0.88099 4.37882,-2.33095 8.10107,-3.22214 13.68389,-3.27622 17.23227,-4.98769 17.23227,-8.311534 0,-2.770881 -0.90423,-3.244005 -8.66667,-4.534729 C 181.9,93.160285 176.2,91.522625 174,90.313633 158.01943,81.53164 152.02131,80.074941 131.66667,80.032593 118.35324,80.004895 116,80.312179 116,82.078337 c 0,1.769894 1.95724,2.017242 13.18818,1.666667 11.38488,-0.355381 13.5668,-0.06967 15.9571,2.089484 2.1152,1.910658 2.46155,3.075464 1.46703,4.933742 -1.14805,2.145152 -3.20353,2.436642 -17.39582,2.466902 -8.85166,0.01887 -18.89651,0.357469 -22.32188,0.752438 -3.42537,0.394968 -17.927942,0.06926 -32.227942,-0.723794 -46.901997,-2.601111 -52.037604,-2.633947 -55.515769,-0.354966 -3.482395,2.281752 -4.54224,9.75785 -1.383317,9.75785 0.972169,0 3.158348,1.48041 4.858176,3.28979 2.989952,3.18266 11.856435,6.80238 18.707576,7.63732 10.938027,1.333 105.984336,1.01849 116.000006,-0.38385 z M 114.66667,82.809317 c 0,-2.360922 -4.01059,-2.637665 -12.26205,-0.846118 l -8.404619,1.8248 10.333329,0.106 c 5.68334,0.0583 10.33334,-0.429807 10.33334,-1.084682 z M 166.62791,63.533731 C 165.76042,62.645414 105.0364,61.16019 73.597584,61.258342 46.427819,61.343164 44.414461,60.719959 39.950858,50.8435 L 36.991957,44.296441 24.045322,43.776435 C 8.7698521,43.162891 4.0000001,40.991857 4.0000001,34.652655 c 0,-3.171442 1.0704908,-4.628308 5.4169583,-7.372113 C 15.886368,23.196584 16.08523,19.349084 10,16 2.0857348,11.644283 5.2169677,3.9999999 14.915411,3.9999999 c 4.458751,0 6.131172,0.8074229 9.666103,4.6666666 2.350974,2.5666665 4.831896,4.6422825 5.51316,4.6124785 0.681262,-0.0298 3.315996,-1.829803 5.854961,-3.9999994 6.744426,-5.7648402 13.296698,-5.2266758 16.70921,1.3723944 2.365829,4.575008 0.796484,7.053397 -6.325511,9.98957 -2.75,1.133739 -5,2.777994 -5,3.653899 0,0.875907 2.102824,3.746044 4.672943,6.378084 2.570117,2.63204 5.429234,7.397697 6.353593,10.590348 3.028732,10.460969 5.635764,10.238395 23.640131,-2.018254 5.49005,-3.737405 10.136024,-5.902105 12.67547,-5.905886 2.204841,-0.0033 5.980549,-0.571458 8.390461,-1.262612 5.326118,-1.527511 18.614188,0.438641 26.267408,3.886622 2.93333,1.321547 8.43619,3.324095 12.22857,4.450107 3.79239,1.126012 8.18507,2.737584 9.76151,3.581272 4.61994,2.472519 17.40068,5.438585 23.26094,5.398245 2.9786,-0.02051 12.90052,0.264003 22.0487,0.632237 18.75613,0.754975 21.20189,1.803315 19.07726,8.177208 -1.1561,3.46832 -1.83432,3.805504 -7.82142,3.88856 -3.60556,0.05001 -12.85556,0.557638 -20.55556,1.128044 -7.7,0.570406 -14.31744,0.712042 -14.70543,0.314747 z M 111.33334,47.923507 c -7.41734,-1.534222 -12.666672,-1.502522 -12.666672,0.07649 0,0.772345 3.786672,1.26882 9.000002,1.180001 8.33497,-0.142002 8.6059,-0.234848 3.66667,-1.256493 z"
       id="path1260" />
  </g>
</svg>
