<?xml version="1.0" encoding="UTF-8" standalone="no"?>
<!-- Created with Inkscape (http://www.inkscape.org/) -->

<svg
   version="1.1"
   id="svg83"
   width="77.333336"
   height="210.66667"
   viewBox="0 0 77.333336 210.66667"
   xmlns="http://www.w3.org/2000/svg"
   xmlns:svg="http://www.w3.org/2000/svg">
  <defs
     id="defs87" />
  <g
     id="g89">
    <path
       style="fill:#000000;stroke-width:1.33333"
       d="M 9.4841835,202.33334 C 7.8895416,198.04851 6.834932,184.39614 5.8393593,155.14954 l -0.8686191,-25.51715 3.4493458,-2.2601 c 8.2658,-5.41596 11.628469,1.36899 10.884052,21.96105 C 19.052289,156.3 19.416845,167.4 20.114253,174 c 2.831789,26.7988 2.015017,31.33334 -5.643847,31.33334 -2.793367,0 -4.180292,-0.83446 -4.9862225,-3 z m 45.3333345,0 c -1.594641,-4.28483 -2.649251,-17.9372 -3.644824,-47.1838 l -0.868619,-25.51715 3.449346,-2.2601 c 8.2658,-5.41596 11.628469,1.36899 10.884052,21.96105 C 64.385624,156.3 64.75018,167.4 65.447588,174 c 2.831789,26.7988 2.015017,31.33334 -5.643847,31.33334 -2.793367,0 -4.180292,-0.83446 -4.986223,-3 z M 15.492003,85.590068 C 14.181798,83.470111 13.375547,70.864082 12.643341,41.050195 11.927666,11.909407 12.001356,10.665311 14.596835,8.0698327 c 2.290698,-2.2906982 3.207403,-2.4647713 6.082163,-1.1549425 4.11289,1.8739574 4.283378,2.6636393 5.27181,24.4184438 0.433148,9.533333 1.158581,24.29519 1.612073,32.804126 1.095848,20.561556 0.556427,22.529208 -6.17626,22.529208 -2.876083,0 -5.52866,-0.484471 -5.894618,-1.0766 z M 59.492005,84.256735 C 58.181799,82.136777 57.375549,69.530749 56.643342,39.716862 55.927667,10.576073 56.001358,9.3319779 58.596837,6.7364993 60.887534,4.4458011 61.804239,4.2717281 64.679,5.5815569 68.791889,7.4555143 68.962377,8.2451961 69.950809,30 c 0.433148,9.533334 1.158581,24.29519 1.612073,32.804126 1.095849,20.561557 0.556427,22.529209 -6.17626,22.529209 -2.876083,0 -5.52866,-0.484471 -5.894617,-1.0766 z"
       id="path1399" />
  </g>
</svg>
