<?xml version="1.0" encoding="UTF-8" standalone="no"?>
<!-- Created with Inkscape (http://www.inkscape.org/) -->

<svg
   version="1.1"
   id="svg215"
   width="226.66667"
   height="212"
   viewBox="0 0 226.66667 212"
   xmlns="http://www.w3.org/2000/svg"
   xmlns:svg="http://www.w3.org/2000/svg">
  <defs
     id="defs219" />
  <g
     id="g221">
    <path
       style="fill:#000000;stroke-width:1.33333"
       d="m 82.666668,204.39668 c -5.5,-1.04375 -14.2,-2.76768 -19.333334,-3.83096 -5.133333,-1.06328 -10.667283,-1.92555 -12.297665,-1.91615 -2.727108,0.0157 -5.585664,-1.08592 -21.18171,-8.16313 C 26.840303,189.11889 23.502595,188 22.43683,188 c -1.065764,0 -5.050046,-1.50141 -8.853959,-3.33649 -6.0369782,-2.91234 -6.9162042,-3.84114 -6.9162042,-7.30623 0,-3.28235 0.9143165,-4.4362 5.2802162,-6.66352 C 14.851002,169.2122 18.16227,168 19.305258,168 c 1.142986,0 6.416889,-1.57444 11.719784,-3.49876 11.778935,-4.27435 27.232932,-8.14509 42.283091,-10.59061 13.447218,-2.18506 61.233767,-4.83271 63.268777,-3.50546 0.78271,0.5105 5.92309,1.32011 11.42309,1.79916 5.5,0.47906 12.7,1.56303 16,2.40882 3.3,0.84578 9.35343,2.08226 13.45206,2.74772 4.09862,0.66545 15.07282,4.67349 24.38712,8.90673 13.65966,6.20816 17.09158,8.32039 17.74429,10.92097 0.44507,1.7733 0.25347,4.1052 -0.42577,5.18203 -1.20868,1.91615 -17.23088,8.93392 -25.1577,11.01915 -31.17253,8.20025 -36.81896,9.19788 -67.41146,11.91042 -19.53716,1.73231 -31.308557,1.49016 -43.921872,-0.90349 z m 54.782842,-11.64589 c 22.45235,-3.42744 49.75388,-8.4886 55.55049,-10.29795 9.91806,-3.0958 7.15186,-6.48087 -8.42364,-10.30821 -24.72526,-6.07571 -48.077,-9.52504 -62.72977,-9.26594 -5.21771,0.0923 -10.19248,-0.26841 -11.05504,-0.80152 -3.05639,-1.88894 -25.851885,3.25819 -35.458216,8.00634 -10.203044,5.04309 -14.245877,5.57869 -20.128483,2.66666 -3.083936,-1.52661 -5.092094,-1.62125 -9.871517,-0.46517 -3.3,0.79823 -8.25,1.98377 -11,2.63455 -4.859663,1.15002 -6.943194,4.65232 -3.333334,5.60313 0.916667,0.24145 4.666667,1.37807 8.333334,2.52581 3.666667,1.14775 9.666667,2.47224 13.333333,2.94332 3.666667,0.47107 9.596549,1.70702 13.177515,2.74652 3.580967,1.03952 7.984306,1.52022 9.785199,1.06823 1.800892,-0.452 5.471011,-0.18743 8.155819,0.58793 15.448208,4.46135 34.4182,5.29428 53.66431,2.3563 z M 64.444276,74.333333 C 63.868736,73.416667 63.165924,58.506724 62.882472,41.200128 62.396126,11.505549 62.506936,9.6742048 64.85022,8.6790287 66.215933,8.09902 73.333334,7.4370675 80.666668,7.2080228 88.000001,6.9789783 103.6,6.4433716 115.33334,6.0177859 c 35.68114,-1.2942095 46.15225,-1.1036246 48.13193,0.8760498 2.56759,2.5675924 3.55892,61.8915003 1.07573,64.3746913 -1.61822,1.618229 -5.83813,2.086693 -37.87433,4.204549 -11.33295,0.749201 -13.0058,0.562241 -15.88748,-1.775603 -3.12015,-2.531302 -3.23616,-3.279941 -3.71182,-23.951756 -0.44795,-19.467917 -0.26697,-21.615441 2.06419,-24.494302 2.21165,-2.731279 2.99926,-2.953182 5.85828,-1.650524 3.46673,1.579546 3.98717,3.587505 5.74763,22.175336 1.13382,11.971553 3.33405,17.472797 7.20688,18.01942 4.86481,0.686633 22.64179,-2.758703 24.25335,-4.700514 1.95374,-2.354124 2.92765,-35.048462 1.18088,-39.642809 l -1.39991,-3.682023 -20.32267,0.811292 c -11.17746,0.446211 -27.59025,1.08141 -36.472852,1.411552 -8.882603,0.330143 -17.792695,1.22474 -19.800204,1.987994 -3.595495,1.367005 -3.638652,1.521906 -2.889163,10.369964 0.418471,4.940226 1.135988,16.580386 1.594484,25.867022 0.792308,16.047876 0.699471,16.956591 -1.872996,18.333334 -3.577033,1.914369 -6.483299,1.832793 -7.770993,-0.218126 z"
       id="path243" />
  </g>
</svg>
