<?xml version="1.0" encoding="UTF-8" standalone="no"?>
<!-- Created with Inkscape (http://www.inkscape.org/) -->

<svg
   version="1.1"
   id="svg205"
   width="216"
   height="206.66667"
   viewBox="0 0 216 206.66667"
   xmlns="http://www.w3.org/2000/svg"
   xmlns:svg="http://www.w3.org/2000/svg">
  <defs
     id="defs209" />
  <g
     id="g211">
    <path
       style="fill:#000000;stroke-width:1.33333"
       d="m 57.373353,200.96092 c -1.811321,-0.91654 -4.714765,-3.75769 -6.452096,-6.31368 -2.593937,-3.81622 -3.058325,-5.89896 -2.59699,-11.64724 0.308986,-3.85 0.175128,-7 -0.297464,-7 -0.472592,0 -3.342972,1.2 -6.378622,2.66667 -3.811825,1.84168 -8.248041,2.66667 -14.339402,2.66667 -7.389184,0 -9.53985,-0.54903 -13.257096,-3.38431 -11.2895294,-8.61095 -7.6549862,-20.72824 7.426364,-24.75895 7.8146,-2.08856 16.361221,0.0459 22.449325,5.6065 6.769344,6.18284 8.485313,4.95533 4.565043,-3.26556 -4.697358,-9.85046 1.722685,-24.8699 10.62611,-24.85937 5.97792,0.007 12.881475,4.51953 12.881475,8.41986 0,1.72189 0.414001,3.54472 0.920003,4.05072 1.375094,1.37509 0.396318,14.59989 -1.22537,16.55667 -2.019281,2.4365 -0.735092,3.1092 4.092404,2.14369 4.728194,-0.94563 5.101671,-2.31809 2.20881,-8.11697 -2.72209,-5.45656 -1.302488,-11.52384 4.015681,-17.16274 C 85.512659,132.8506 87.305767,132 91.63036,132 c 4.657473,0 5.999697,0.77425 10.84256,6.25446 6.32682,7.15942 7.18749,12.60838 2.86041,18.10937 -3.85532,4.90125 -3.40111,6.37597 1.66667,5.41132 5.50431,-1.04775 5.49107,-1.03288 3.77469,-4.23996 -2.57755,-4.8162 -1.74385,-15.35813 1.60842,-20.33801 4.32786,-6.42915 8.88418,-8.34344 15.57226,-6.54253 6.66195,1.79388 12.71982,9.59239 10.5707,13.60806 -2.07802,3.8828 -0.94998,13.63397 1.63384,14.12349 1.87717,0.35564 2.07094,-0.83422 1.48028,-9.08965 -0.6684,-9.34183 -0.6092,-9.5632 3.58145,-13.39077 6.69639,-6.11621 8.77041,-6.85688 14.71688,-5.25567 7.37176,1.98501 11.24901,7.65432 10.0576,14.70621 -0.49215,2.913 -1.44261,5.63494 -2.11213,6.04872 -0.66954,0.41379 -1.21732,1.91694 -1.21732,3.34032 0,3.98475 5.47872,3.24402 11.48333,-1.55254 5.065,-4.046 5.41129,-4.12018 15.16817,-3.24891 7.68504,0.68625 10.98643,1.65557 14.33334,4.20839 3.89009,2.9671 4.34849,4.02161 4.34849,10.00321 0,3.67756 -0.61779,7.84081 -1.37285,9.25168 -2.05994,3.849 -9.08379,6.93523 -15.49102,6.80661 -5.47173,-0.10986 -17.99797,-5.29352 -19.78713,-8.18844 -1.10229,-1.78356 -9.61192,-1.75732 -10.71843,0.0331 -0.47308,0.76547 -0.18774,2.20193 0.63408,3.19217 0.82182,0.99023 1.84627,4.773 2.27656,8.40616 0.707,5.96946 0.4136,7.00415 -3.04609,10.74216 -6.03497,6.52047 -11.00724,6.23556 -18.8864,-1.08218 -3.14853,-2.92419 -5.99853,-5.31671 -6.33333,-5.31671 -0.33479,0 -0.60872,1.24616 -0.60872,2.76923 0,1.52308 -1.75384,4.52308 -3.89744,6.66666 -5.35382,5.35383 -12.84892,5.42784 -18.46424,0.18235 -3.26436,-3.04937 -4.14933,-5.19972 -4.93859,-12 C 110.15397,175.17187 108,174.82286 108,185.07278 c 0,6.93561 -0.46875,8.2512 -4.51316,12.66666 -5.142319,5.61411 -8.279672,6.11831 -13.333668,2.14283 -4.674927,-3.67729 -7.327187,-9.03523 -7.613315,-15.37995 -0.433598,-9.61476 -1.167277,-11.16898 -5.272378,-11.16898 -5.080799,0 -5.478348,1.09882 -3.171154,8.76505 2.23393,7.42277 1.592523,12.24249 -2.285286,17.17233 -2.997132,3.81024 -8.885595,4.49959 -14.437686,1.6902 z M 64,184.82992 c 0,-1.0102 -0.9,-2.58366 -2,-3.49658 -2.120275,-1.75967 -2.602308,-0.45436 -1.190681,3.22428 C 61.804939,187.15216 64,187.33951 64,184.82992 Z M 139.97959,181 c -0.0107,-3.11666 -0.60204,-6.56666 -1.31292,-7.66666 -0.91743,-1.41962 -1.29843,0.2248 -1.31292,5.66666 -0.0107,4.23584 0.57625,7.66667 1.31292,7.66667 0.73333,0 1.32414,-2.55 1.31292,-5.66667 z M 33.007484,167.66667 c -0.851216,-2.58852 -11.159908,-2.92993 -12.130068,-0.40175 -0.652651,1.70079 0.403488,2.06842 5.942208,2.06842 4.792161,0 6.577776,-0.48095 6.18786,-1.66667 z m 162.667606,-3.33333 c 0.36934,-1.12506 -1.00552,-1.66667 -4.23065,-1.66667 -3.44408,0 -4.77777,0.58187 -4.77777,2.08448 0,2.56212 8.15434,2.18392 9.00842,-0.41781 z M 93.333333,150 c 0,-1.83333 -0.6,-3.33333 -1.333333,-3.33333 -1.489557,0 -1.827604,4.39461 -0.444444,5.77777 1.469788,1.46979 1.777777,1.04631 1.777777,-2.44444 z m 31.959457,-1 c -0.0345,-3.68229 -0.25154,-3.97061 -1.44491,-1.91901 -0.7724,1.32787 -1.07299,3.27787 -0.66797,4.33333 1.23244,3.21168 2.15565,2.15678 2.11288,-2.41432 z M 95.333333,94.70072 C 80.498547,90.894421 68.895795,80.76652 63.234085,66.681676 58.018739,53.707265 57.910828,45.422519 62.830341,35.684759 63.473653,34.411377 64,32.739415 64,31.96929 64,31.199165 67.098583,26.702359 70.885739,21.976388 78.310844,12.710639 85.312065,8.2279864 96.968392,5.2765181 106.0529,2.9762519 122.65394,5.2813848 128.80201,9.6967703 146.69044,22.543766 154.04913,34.897237 152.92883,50.199837 152.59865,54.709748 151.35459,60.35193 150.16425,62.738021 148.97392,65.124113 148,67.963366 148,69.047473 c 0,6.162711 -14.95707,19.318535 -28.29051,24.883541 -5.16399,2.155309 -17.46236,2.543644 -24.376157,0.769706 z M 123.41676,79.614412 c 6.80004,-3.460787 9.87985,-6.320012 15.31519,-14.218279 2.81261,-4.08708 3.14142,-5.936263 2.92926,-16.47367 -0.20261,-10.064064 -0.75736,-12.754353 -3.64649,-17.684285 -8.73705,-14.908656 -29.4315,-20.810336 -46.501215,-13.261299 -12.245684,5.415623 -22.180172,21.4393 -22.180172,35.775162 0,3.978277 4.68252,12.617705 9.68584,17.870744 3.813486,4.003819 11.88557,8.602803 19.647494,11.193954 5.753813,1.920785 17.727963,0.371494 24.750093,-3.202327 z M 99.992272,55.992273 c -1.94538,-1.94538 -2.650468,-3.856084 -2.133751,-5.782211 0.424454,-1.5822 0.779926,-3.31132 0.789939,-3.842488 0.02094,-1.11056 7.21743,-5.03424 9.23339,-5.03424 2.33532,0 6.78482,5.712975 6.78482,8.711432 0,3.471492 -3.39591,6.763719 -8.21779,7.966898 -2.65956,0.663625 -4.28059,0.156625 -6.456608,-2.019391 z"
       id="path382" />
  </g>
</svg>
