<?xml version="1.0" encoding="UTF-8" standalone="no"?>
<!-- Created with Inkscape (http://www.inkscape.org/) -->

<svg
   version="1.1"
   id="svg287"
   width="108"
   height="109.33333"
   viewBox="0 0 108 109.33333"
   xmlns="http://www.w3.org/2000/svg"
   xmlns:svg="http://www.w3.org/2000/svg">
  <defs
     id="defs291" />
  <g
     id="g293">
    <path
       style="fill:#000000;stroke-width:1.33333"
       d="M 38.364467,102.68979 C 33.431591,102.06824 27.489407,100.60877 25.159616,99.446517 22.829825,98.284265 19.8074,97.33333 18.443117,97.33333 c -1.364284,0 -4.60853,-1.35 -7.209437,-3 -4.6139621,-2.92707 -4.7089271,-3.159261 -3.9064592,-9.551325 0.452354,-3.603227 2.232024,-9.903227 3.9548222,-13.999999 1.722799,-4.096771 4.055936,-10.748674 5.184748,-14.782008 1.128813,-4.033333 3.57454,-11.658679 5.434948,-16.945214 1.860408,-5.286533 3.757997,-11.959738 4.216865,-14.829342 l 0.834307,-5.217463 -8.79576,-0.941946 C 13.319483,17.547962 9.0163495,16.565798 8.5946321,15.883445 7.356654,13.880354 9.2794595,9.5280606 11.73487,8.7754775 12.980691,8.3936333 29.696099,7.7879014 48.88022,7.4294066 68.06434,7.0709118 85.228087,6.4092418 87.021879,5.9590288 c 3.822817,-0.959466 7.945726,2.371972 6.759893,5.4622032 -1.137704,2.964808 -7.642821,5.912101 -13.048892,5.912101 -2.971365,0 -4.73288,0.639032 -4.73288,1.716968 0,0.944332 2.122572,6.794332 4.716825,12.999999 2.594255,6.205668 6.910822,17.883032 9.592372,25.949698 2.68155,8.066667 5.958978,16.097581 7.283174,17.846478 C 99.05632,77.779947 100,81.296912 100,84.819377 c 0,5.445156 -0.330211,5.961551 -5.498003,8.597961 -15.932614,8.128212 -37.2603,11.650992 -56.13753,9.272452 z M 58.455621,90.774476 c 0.604734,-4.281149 -5.146073,-16.61736 -6.919732,-14.843701 -1.618373,1.618373 -4.873374,10.083774 -5.824864,15.148936 -0.70094,3.731387 -0.67776,3.744726 5.79261,3.333333 5.716826,-0.363483 6.551038,-0.800096 6.951986,-3.638568 z M 36.975648,86.333331 c 1.539827,-3.85 4.091224,-11.8 5.669772,-17.666666 3.656957,-13.591071 5.515645,-17.333333 8.609032,-17.333333 2.306,0 7.192303,9.455566 11.368821,21.999999 0.610386,1.833333 2.427755,6.250759 4.038599,9.816502 l 2.928805,6.483168 5.344626,-0.85464 C 81.143907,87.785565 88,84.532425 88,82.579307 c 0,-0.743716 -1.2,-3.704405 -2.666667,-6.579309 -1.466666,-2.874904 -2.666666,-5.910324 -2.666666,-6.745377 0,-0.835054 -0.830531,-3.408956 -1.845623,-5.719784 C 79.805951,61.224009 77.473875,54.833332 75.638652,49.333332 69.376844,30.567246 65.569503,20.998073 63.568649,18.997221 61.964501,17.393073 59.593127,17.183103 51.570608,17.934874 c -9.658676,0.905092 -10.055504,1.080848 -11.667852,5.167708 -0.918013,2.326913 -3.286249,7.83075 -5.262745,12.23075 -1.976498,4.4 -4.311902,10.946092 -5.189788,14.546872 -0.877887,3.600778 -3.135674,10.200778 -5.017306,14.666666 -1.881632,4.465887 -4.234504,10.81742 -5.228606,14.114517 -1.623527,5.384688 -1.573244,6.228377 0.494116,8.290804 1.881705,1.877213 10.680553,5.908437 13.722888,6.28719 0.415057,0.05167 2.014506,-3.05605 3.554333,-6.90605 z"
       id="path480" />
  </g>
</svg>
