<?xml version="1.0" encoding="UTF-8" standalone="no"?>
<!-- Created with Inkscape (http://www.inkscape.org/) -->

<svg
   version="1.1"
   id="svg195"
   width="218.66667"
   height="198.66667"
   viewBox="0 0 218.66667 198.66667"
   xmlns="http://www.w3.org/2000/svg"
   xmlns:svg="http://www.w3.org/2000/svg">
  <defs
     id="defs199" />
  <g
     id="g201">
    <path
       style="fill:#000000;stroke-width:1.33333"
       d="m 52.000001,191.14582 c -15.098111,-1.65631 -22.439346,-3.6246 -29.487266,-7.90599 -4.140527,-2.51524 -7.980941,-4.57316 -8.534255,-4.57316 -0.94881,0 -4.4775604,-3.49699 -8.394443,-8.31888 -2.6857238,-3.30628 0.465344,-11.87049 6.55568,-17.81755 l 5.105593,-4.98548 19.044012,-0.0789 c 10.474207,-0.0433 23.484722,0.15115 28.912256,0.43228 9.901878,0.51288 12.060889,-0.35223 13.78463,-5.52345 1.296075,-3.88822 58.586372,-10.33282 71.958792,-8.09466 9.31062,1.55832 23.45535,7.13092 25.17723,9.91907 1.26261,2.04445 11.80908,2.39036 24.54444,0.805 4.4,-0.54773 8.71589,-0.5334 9.59088,0.0319 1.00167,0.64709 1.91369,7.02236 2.46247,17.21318 1.04113,19.33414 1.24205,19.08422 -15.34335,19.08422 -8.67931,0 -12.03293,0.61718 -17.08765,3.14472 -3.89634,1.9483 -9.93535,3.47074 -15.8732,4.00164 -5.27131,0.4713 -10.97131,1.37189 -12.66667,2.00129 -2.99189,1.11073 -90.375468,1.69315 -99.749149,0.66483 z M 149.7876,177.82884 c 1.68586,-0.96409 4.29004,-0.98345 8.31748,-0.0619 4.74344,1.08545 6.31184,0.95237 8.21239,-0.69684 3.17641,-2.75634 12.89684,-6.04987 21.01587,-7.12072 8.67717,-1.14446 11.33333,-2.67262 11.33333,-6.52035 0,-3.61668 -2.80517,-5.11309 -7.41575,-3.95592 -4.17632,1.04819 -15.72496,-1.75323 -19.56878,-4.74691 -4.73858,-3.6905 -18.57083,-8.05957 -25.51627,-8.05957 -7.17799,0 -7.25064,2.09219 -0.11907,3.43008 3.97451,0.74563 4.6199,1.3922 4.6199,4.62845 0,2.44623 -0.816,3.98899 -2.33334,4.41151 -6.36349,1.77199 -40.73397,2.125 -72.333332,0.74293 -19.433334,-0.84996 -38.196401,-1.45077 -41.695703,-1.33513 -12.573893,0.41551 -17.00219,4.39749 -11.472983,10.31669 9.180661,9.82819 17.513473,10.99916 75.835353,10.65684 31.096575,-0.18252 49.552735,-0.79237 51.120935,-1.6892 z m -14.76222,-30.70342 c -0.90271,-0.36523 -2.70271,-0.38746 -4,-0.0493 -1.29729,0.33806 -0.55871,0.63688 1.64129,0.66406 2.2,0.0272 3.26141,-0.24942 2.35871,-0.61466 z M 69.955057,127.72721 c -1.491385,-0.66587 -5.091385,-4.77607 -8,-9.13377 -2.908615,-4.35771 -6.281836,-7.92393 -7.496048,-7.92494 -1.413051,-10e-4 -3.667407,3.11758 -6.26328,8.66484 C 44.884962,126.40828 43.561843,128 40.991559,128 c -4.127664,0 -6.11622,-1.78085 -12.316736,-11.03028 -2.837881,-4.23332 -5.800668,-7.48501 -6.583971,-7.22596 -0.783301,0.25905 -3.36189,4.47268 -5.730197,9.36362 C 12.753034,126.55771 11.5137,128 8.7193913,128 c -5.2339274,0 -5.578293,-4.82928 -1.0563286,-14.81364 2.1222336,-4.68583 4.9797583,-11.06529 6.3500553,-14.17658 4.190689,-9.51505 8.719918,-9.1029 15.914649,1.4482 9.743226,14.28849 9.326488,14.27062 16.16395,0.69323 4.203741,-8.347514 5.058681,-9.273726 8.215874,-8.900791 2.665086,0.314805 4.558783,2.182927 7.770339,7.665388 2.33555,3.987023 5.611723,8.354663 7.280384,9.705863 l 3.033931,2.45673 2.553301,-5.70586 c 6.843313,-15.292765 16.225878,-15.461114 23.725416,-0.4257 3.032798,6.08029 5.924828,5.78653 9.905618,-1.00617 7.55622,-12.893706 13.09067,-13.572654 21.25371,-2.60733 2.8661,3.85 6.17678,6.9995 7.35707,6.9989 1.23303,-6.3e-4 4.41491,-3.82946 7.47931,-9 7.92319,-13.368751 12.79772,-12.933793 19.99871,1.7845 1.94192,3.96913 4.17048,7.2166 4.95237,7.2166 1.78828,0 4.09979,-2.95497 8.58332,-10.972693 5.99267,-10.71644 11.03825,-9.696464 17.82856,3.604083 2.25623,4.4194 5.60467,10.61151 7.44099,13.76025 3.9135,6.71053 3.32446,10.94169 -1.52324,10.94169 -3.08826,0 -4.62058,-1.88174 -14.82162,-18.2015 -1.48774,-2.3801 -1.61281,-2.37314 -3.62426,0.2015 -1.14584,1.46667 -2.10243,3.36282 -2.12576,4.21367 -0.0748,2.73061 -7.07654,12.38993 -9.55008,13.175 -3.83458,1.21704 -7.33031,-1.53162 -11.73176,-9.22457 -6.50798,-11.37475 -7.13207,-11.47248 -11.73443,-1.83749 -4.889,10.23502 -9.17717,13.19157 -14.28187,9.84684 -1.85715,-1.21685 -4.57073,-4.45368 -6.03019,-7.19295 -2.78728,-5.23148 -7.27529,-10.9805 -8.572,-10.9805 -1.0906,0 -7.47541,12.88197 -7.47541,15.08236 C 112,124.43469 107.57212,128 104.23671,128 101.52249,128 94.205201,119.80895 92.325677,114.66667 91.422409,112.19537 87.893219,108 86.717607,108 c -0.478003,0 -2.851058,4.09692 -5.273456,9.10427 -4.910474,10.15045 -7.397345,12.44984 -11.489094,10.62294 z M 84.848773,84.739952 C 75.865474,80.339213 70.215282,74.445169 65.781185,64.84944 62.676025,58.129634 62.005609,54.878806 62.03137,46.666667 62.058096,38.147057 62.702453,35.349461 66.383992,27.768962 71.344456,17.555083 75.998652,13.140142 87.497905,7.740436 94.134649,4.6240186 97.511011,3.8969459 105.54089,3.8550223 126.38246,3.7462099 137.71519,10.392598 146.7104,28 c 2.42799,4.752587 3.07315,8.217626 3.10318,16.666667 0.0344,9.658559 -0.41455,11.548762 -4.74951,20.000001 -4.92,9.591808 -8.26653,13.875661 -13.53772,17.329475 -5.79331,3.795922 -16.12315,5.975152 -28.19302,5.947729 -9.902869,-0.0225 -13.133241,-0.582417 -18.484557,-3.20392 z m 24.434957,-9.739951 c -7.49689,-8.641208 -31.164554,-31 -32.814722,-31 -0.991287,0 -1.80234,0.37728 -1.80234,0.838398 0,3.053427 32.563622,33.828269 35.794532,33.828269 1.49718,0 1.19956,-0.926816 -1.17747,-3.666667 z M 83.286564,67.952104 c -2.890047,-2.959678 -5.477885,-4.71147 -5.750751,-3.892872 -0.658365,1.975094 6.412511,9.274103 8.98424,9.274103 1.27185,0 0.07311,-1.994971 -3.233489,-5.381231 z m 42.046776,4.165424 c 0,-1.955048 -42.97938,-45.450861 -44.911213,-45.450861 -5.873763,0 0.719694,8.035936 25.305183,30.841305 16.04395,14.882279 19.60603,17.536583 19.60603,14.609556 z m 9.33333,-10.800088 c 0,-1.559246 -37.808977,-39.328297 -42.401798,-42.357024 -2.128805,-1.403837 -3.494072,-1.597881 -4.458297,-0.633656 -0.964227,0.964227 2.833581,5.590848 12.401795,15.108299 26.17244,26.033583 34.4583,32.738195 34.4583,27.882381 z m 4,-13.967641 c 0,-1.090944 -3.11253,-4.840944 -6.91676,-8.333333 -3.80421,-3.492389 -8.71461,-8.299799 -10.91199,-10.683132 -3.76304,-4.08148 -7.50458,-5.689543 -7.50458,-3.225364 0,0.609382 3.15,4.222273 7,8.028647 3.85,3.806373 8.70909,9.007788 10.79798,11.558698 3.947,4.819982 7.53535,6.084054 7.53535,2.654484 z M 136,26.829927 c 0,-1.680689 -3.91396,-4.693737 -4.8636,-3.744099 C 129.77099,24.451238 131.80872,28 133.95816,28 135.08118,28 136,27.473467 136,26.829927 Z M 110.66667,19.48668 c 0,-2.032981 -6.46027,-6.804186 -7.62963,-5.634828 -0.40238,0.402376 0.26351,2.250318 1.47975,4.106538 2.37338,3.622226 6.14988,4.560716 6.14988,1.52829 z"
       id="path521" />
  </g>
</svg>
