<?xml version="1.0" encoding="UTF-8" standalone="no"?>
<!-- Created with Inkscape (http://www.inkscape.org/) -->

<svg
   version="1.1"
   id="svg185"
   width="494.66666"
   height="334.66666"
   viewBox="0 0 494.66666 334.66666"
   xmlns="http://www.w3.org/2000/svg"
   xmlns:svg="http://www.w3.org/2000/svg">
  <defs
     id="defs189" />
  <g
     id="g191">
    <path
       style="fill:#000000;stroke-width:1.33333"
       d="m 342.71357,325.42098 c -0.75913,-1.41845 -1.38024,-3.74595 -1.38024,-5.17221 0,-1.42626 -1.59724,-6.08202 -3.54941,-10.34612 -3.01034,-6.57546 -3.6225,-9.99183 -4.0306,-22.49447 -0.28052,-8.59385 0.18272,-17.52172 1.1108,-21.40819 0.87558,-3.66666 1.77221,-12.36666 1.99249,-19.33333 0.56479,-17.86229 1.4292,-29.38608 2.53271,-33.76429 0.57181,-2.26868 0.35185,-4.3612 -0.55362,-5.26667 -0.8263,-0.8263 -1.50237,-2.53882 -1.50237,-3.8056 0,-1.26677 -1.59084,-3.55458 -3.5352,-5.08401 -2.59789,-2.04351 -3.82104,-4.58896 -4.61325,-9.60049 -0.70356,-4.45071 -2.01,-7.47247 -3.76087,-8.69882 -1.47553,-1.03352 -4.80587,-4.10684 -7.40072,-6.82961 -3.47823,-3.64971 -5.00519,-4.50043 -5.81119,-3.23763 -1.46714,2.29864 -30.18326,-0.28381 -34.48294,-3.10106 -3.53112,-2.31368 -16.526,-2.56999 -27.49472,-0.54231 -4.99939,0.92419 -10.88338,0.98039 -17.24488,0.16469 -5.31092,-0.68098 -18.35623,-0.86225 -28.98956,-0.40284 -10.63334,0.45942 -26.42874,0.3334 -35.1009,-0.28002 -17.77145,-1.2571 -18.1274,-1.12602 -24.59644,9.05816 -1.84329,2.90188 -6.86336,8.60188 -11.15569,12.66666 -6.98183,6.6117 -7.88286,8.0801 -8.55023,13.93435 -0.41029,3.59912 -1.51202,8.09912 -2.44829,10 -1.273,2.58457 -1.77216,16.06541 -1.97932,53.45616 -0.15236,27.5 -0.58344,51.0193 -0.95795,52.26513 -1.31855,4.38624 -10.35479,5.22001 -18.74475,1.72957 -4.938579,-2.05458 -6.111053,-5.82428 -5.182117,-16.66137 0.345731,-4.03333 1.208338,-21.13333 1.916906,-38 C 97.909787,247.8 98.788293,233.1 99.153457,232 c 0.365163,-1.1 1.006693,-7.7 1.425633,-14.66667 1.21195,-20.1542 3.49888,-28 8.16157,-28 0.96111,0 4.03764,-2.82709 6.83674,-6.28243 2.7991,-3.45534 7.03927,-8.01749 9.4226,-10.13813 2.38333,-2.12063 4.33333,-4.92848 4.33333,-6.23968 0,-2.63984 -5.76222,-4.74309 -8.39465,-3.06411 C 118.3997,165.22836 9.0468924,164.0888 7.0385639,162.42202 4.3456126,160.18708 4.8301994,149.66913 7.6666666,148.78908 8.9499999,148.3909 16.9,148.51805 25.333333,149.07162 c 8.433333,0.55359 19.533333,0.68892 24.666666,0.30078 5.133334,-0.38816 14.133333,-0.28096 20,0.23821 5.866667,0.51917 19.366666,0.61336 30,0.20929 10.633331,-0.40406 24.104701,-0.72269 29.936381,-0.70805 11.88546,0.0299 14.93826,-1.06512 16.82806,-6.03569 2.5762,-6.77592 0.80941,-8.22774 -9.87798,-8.11702 -5.31386,0.0551 -11.02533,-0.62976 -12.69215,-1.52182 -2.28512,-1.22296 -4.67701,-1.26883 -9.72388,-0.18647 -3.68131,0.78951 -7.19676,1.12429 -7.81212,0.74399 -2.42221,-1.49702 -84.258206,-2.02585 -89.63061,-0.57922 -2.962191,0.79764 -6.805228,1.094 -8.5400836,0.65858 -2.7710954,-0.6955 -3.1542831,-1.57247 -3.1542831,-7.21892 0,-5.69844 0.4107104,-6.61437 3.6220324,-8.07755 3.9809963,-1.81386 40.0945053,-2.00823 60.6978763,-0.32669 6.409282,0.5231 12.90693,0.48731 14.439218,-0.0795 1.532287,-0.56683 7.486197,-0.50474 13.230909,0.13798 6.285841,0.70325 13.196791,0.6684 17.355811,-0.0875 5.41366,-0.98397 8.42784,-0.77895 13.91294,0.94632 5.59636,1.76028 8.04657,1.91241 12.20497,0.75783 2.8616,-0.79453 8.31749,-1.44794 12.12421,-1.45203 3.80672,-0.004 7.21822,-0.48783 7.58108,-1.07497 0.36288,-0.58714 1.01391,-9.73714 1.44675,-20.333329 0.43284,-10.596193 1.08591,-21.667637 1.45124,-24.603208 0.36535,-2.935572 0.94471,-16.005667 1.28747,-29.044658 0.62848,-23.907906 2.13317,-31.432216 6.3464,-31.735412 3.831,-0.275691 26.47452,-1.371627 36.29909,-1.756859 C 213.2,9.8956253 227,9.0562062 238,8.260288 c 11,-0.7959181 28.62782,-1.5386248 39.17294,-1.6504593 18.75123,-0.198863 19.24556,-0.130716 22.47455,3.0982739 l 3.30161,3.3016094 0.63876,47.828475 c 0.77428,57.976603 -0.2777,54.516783 16.55676,54.452253 6.15379,-0.0236 41.48871,-0.5694 78.52204,-1.21292 37.03333,-0.64351 69.76577,-1.15595 72.73876,-1.13874 3.508,0.0203 7.36927,1.27099 11,3.56297 l 5.59457,3.5317 v 19.13051 c 0,25.99594 -0.80718,31.31984 -4.90448,32.3482 -2.0872,0.52385 -4.09728,-0.005 -5.7702,-1.51942 -2.17412,-1.96754 -4.46273,-2.22588 -14.94626,-1.68705 -6.80848,0.34993 -20.2588,0.16616 -29.88959,-0.40839 -10.74816,-0.6412 -21.56145,-0.51446 -28,0.32819 -12.06285,1.57873 -20.25685,1.65471 -42.15613,0.39085 l -15.66667,-0.90414 v 3.42109 c 0,2.18296 1.97474,5.49224 5.45642,9.14389 7.35378,7.71283 7.87692,8.93647 7.87692,18.42486 0,6.05265 0.66698,9.05861 2.53769,11.43684 2.47733,3.14942 2.42867,8.52778 -0.0772,8.52778 -1.61832,0 -1.28983,43.02015 0.40467,52.99657 0.71653,4.21855 1.82273,13.9701 2.45825,21.6701 1.11987,13.5686 1.05565,14.14601 -2.08399,18.73833 -1.78166,2.60608 -3.23942,6.26309 -3.23942,8.12668 0,4.86151 -3.91612,7.80165 -10.39142,7.80165 -4.08768,0 -5.87193,-0.66738 -6.89501,-2.57901 z M 186.08989,149.91889 c 3.36507,-0.50605 26.89344,-0.63924 40.57677,-0.22969 C 228.5,149.744 245.75,149.30137 265,148.70544 c 38.6086,-1.19524 38.37481,-1.1271 31.73324,-9.25036 -2.95775,-3.61762 -4.00742,-3.94071 -15.61871,-4.80734 -6.84633,-0.51098 -32.05629,-0.78841 -56.02213,-0.6165 l -43.57427,0.31254 -7.29329,7.82811 c -4.01131,4.30545 -7.00836,8.29287 -6.66011,8.86091 0.57491,0.93774 7.75204,0.50618 18.52516,-1.11391 z m 217.48997,-0.73195 c 2.06441,-0.81385 8.55347,-1.64745 14.42013,-1.85245 5.86667,-0.205 15.31667,-0.80961 21,-1.34359 9.36432,-0.87982 10.33142,-1.2375 10.31292,-3.81422 -0.0444,-6.17331 0.38927,-6.1194 -46.70214,-5.80647 -24.53592,0.16305 -51.21077,-0.15911 -59.27744,-0.71591 -11.73304,-0.80986 -15.14568,-0.63812 -17.06152,0.85864 -2.25319,1.76032 -2.11612,2.17515 2.31716,7.01236 l 4.71201,5.14136 9.97455,-0.26414 c 5.486,-0.14528 11.11993,-0.87714 12.51984,-1.62635 2.94957,-1.57856 33.53796,0.95913 33.53796,2.7824 0,1.61367 9.86328,1.35637 14.24653,-0.37163 z M 187.49389,117.3061 c 0.86017,-0.86017 18.23072,-1.47315 47.23015,-1.66667 l 45.86957,-0.3061 L 281.46193,110 c 0.47757,-2.93334 1.21365,-22.21782 1.63572,-42.854413 0.75033,-36.686516 0.70632,-37.576216 -1.97875,-40 -2.58601,-2.334366 -5.51614,-2.456638 -50.24798,-2.096794 -26.12602,0.21017 -47.96696,0.847249 -48.53544,1.41573 -0.56848,0.568483 -0.52804,4.730363 0.0899,9.248626 0.61791,4.518261 0.62883,8.381182 0.0243,8.584269 -1.10615,0.371577 -2.01048,46.702448 -1.26292,64.702582 0.33481,8.06202 0.77871,9.66666 2.67405,9.66666 1.24994,0 2.88486,-0.61225 3.63316,-1.36056 z"
       id="path676" />
  </g>
</svg>
