<?xml version="1.0" encoding="UTF-8" standalone="no"?>
<!-- Created with Inkscape (http://www.inkscape.org/) -->

<svg
   version="1.1"
   id="svg2"
   width="82.666664"
   height="202.66667"
   viewBox="0 0 82.666664 202.66667"
   xmlns="http://www.w3.org/2000/svg"
   xmlns:svg="http://www.w3.org/2000/svg">
  <defs
     id="defs6" />
  <g
     id="g8">
    <path
       style="fill:#000000;stroke-width:1.33333"
       d="m 6.1351878,193.55207 c -1.3884465,-2.24655 -1.237851,-10.29728 0.2439384,-13.04077 0.8383172,-1.55212 4.9496058,-5.95266 9.1361968,-9.77896 5.945152,-5.43354 7.196592,-7.21948 5.714998,-8.15592 -1.043344,-0.65946 -3.774099,-0.85583 -6.068345,-0.43638 C 7.704835,163.50339 -0.7582302,156.96962 4.3333332,153.77995 5.2499998,153.2057 8.6999997,152.42028 12,152.03459 l 5.999999,-0.70125 v -48.25515 c 0,-34.706734 0.43244,-48.690829 1.540214,-49.806885 0.91339,-0.92022 6.458142,-1.630325 13.624423,-1.744851 l 12.084212,-0.19312 -0.01443,-18.666667 c -0.0079,-10.266667 0.01107,-19.346688 0.04224,-20.177825 0.06713,-1.790481 4.543063,-3.1888894 6.376125,-1.992085 3.365102,2.197072 4.11929,8.345653 4.909223,40.022857 0.464304,18.619122 1.07698,34.229611 1.361502,34.689977 0.284522,0.460366 0.8776,16.448909 1.31795,35.530089 0.680313,29.47916 0.503273,35.08635 -1.178012,37.31002 -2.331316,3.08342 -2.64452,5.9503 -0.650053,5.9503 0.777366,0 4.28275,1.87844 7.78974,4.17432 11.321559,7.41174 15.7593,20.93486 8.130198,24.77514 -3.847271,1.9366 -66.029057,2.49424 -67.1981432,0.60261 z m 61.2766362,-7.45303 c 2.515278,-1.84741 2.475515,-2.01904 -1.411826,-6.09361 -3.708329,-3.88695 -15.59776,-10.88108 -17.732514,-10.43143 -0.513784,0.10827 -2.542672,-0.25629 -4.50864,-0.81002 -8.247214,-2.32291 -28.425511,7.55956 -28.425511,13.92161 v 3.22345 l 22.323891,0.14715 c 12.278141,0.0809 22.728141,0.5514 23.222222,1.04548 1.414455,1.41445 3.724164,1.05995 6.532378,-1.00263 z M 46.443989,150.83251 c 1.442621,-0.91449 1.623037,-7.87843 0.95804,-36.97959 C 46.951422,94.133816 46.250945,74.222687 45.845413,69.605968 l -0.737333,-8.394034 -8.220707,0.394034 -8.220707,0.394033 0.05708,14 c 0.153342,37.608109 0.90339,66.904639 1.799028,70.269279 0.774196,2.90842 2.001572,3.91246 5.568486,4.5552 6.876396,1.23911 8.408795,1.2403 10.352725,0.008 z"
       id="path30" />
  </g>
</svg>
