<?xml version="1.0" encoding="UTF-8" standalone="no"?>
<!-- Created with Inkscape (http://www.inkscape.org/) -->

<svg
   version="1.1"
   id="svg165"
   width="214.66667"
   height="210.66667"
   viewBox="0 0 214.66667 210.66667"
   xmlns="http://www.w3.org/2000/svg"
   xmlns:svg="http://www.w3.org/2000/svg">
  <defs
     id="defs169" />
  <g
     id="g171">
    <path
       style="fill:#000000;stroke-width:1.33333"
       d="m 112,203.82318 c -6.96667,-0.46394 -14.652042,-1.58496 -17.078616,-2.49118 -4.615773,-1.7238 -14.1969,-0.92645 -17.019861,1.4164 -0.949554,0.78806 -14.858507,1.15799 -35.399486,0.94152 L 8.6666668,203.33334 7.0570238,192.66667 c -1.1385596,-7.54492 -1.584264,-35.945 -1.522926,-97.040092 L 5.6208148,9.2531515 9.1437408,7.453014 C 11.963836,6.0120074 27.112922,5.6270518 85.078255,5.5234313 124.90463,5.4522366 157.9854,5.0877167 158.59107,4.7133873 c 1.95849,-1.2104099 42.89179,0.2361344 44.21828,1.5626325 0.70627,0.7062552 1.56797,11.4330742 1.91491,23.8373742 0.34694,12.4043 1.27262,39.953274 2.05706,61.219941 1.54944,42.006585 1.60655,95.485305 0.11107,104.000005 -1.38116,7.86377 -6.1702,9.13398 -30.89237,8.19369 -10.63334,-0.40443 -26.53334,-0.31345 -35.33334,0.20216 -8.8,0.51561 -21.7,0.55791 -28.66666,0.094 z m -27.333332,-13.2984 c 30.800002,-0.0492 59.150002,0.33888 63.000002,0.86248 6.50615,0.88486 7,0.75634 7,-1.82155 0,-1.52545 0.70981,-4.33144 1.57736,-6.23551 1.23168,-2.70321 1.20109,-4.50253 -0.13955,-8.21001 -1.14561,-3.16812 -1.41954,-7.52499 -0.82322,-13.09329 1.07957,-10.08092 2.49357,-11.01926 16.05208,-10.65216 5.13333,0.13898 11.90314,-0.33968 15.04401,-1.06372 5.40821,-1.2467 5.71511,-1.57228 5.79395,-6.14706 0.69121,-40.1026 0.65166,-125.65534 -0.0583,-126.094113 -0.70239,-0.434089 -82.13054,-0.860917 -108.113029,-0.566704 -1.833333,0.02076 -15.333333,-0.3254 -30,-0.769245 -30.851994,-0.933647 -35.572797,-0.938879 -36.471258,-0.04042 -0.361508,0.361508 -0.510333,10.290036 -0.330723,22.063398 0.227131,14.888259 -0.151093,21.981652 -1.24217,23.29632 -1.181416,1.42352 -1.203314,3.46089 -0.08869,8.25184 1.596199,6.860893 1.684491,8.847319 1.641968,36.941754 -0.01547,10.21907 0.232515,19.00185 0.551072,19.51728 0.732075,1.18453 1.893723,32.40531 1.845131,49.59021 -0.02025,7.16152 0.349887,13.64666 0.822525,14.4114 0.47264,0.76475 2.452224,1.04354 4.399078,0.61954 1.946853,-0.424 28.739734,-0.81119 59.539734,-0.86044 z M 62.333334,119.66667 C 59.472108,116.80544 59.35849,114.19226 62.000001,112 c 1.1,-0.91292 2,-2.95952 2,-4.548 0,-7.38274 10.389447,-20.747816 21.009872,-27.027293 4.558803,-2.695458 7.578002,-3.385259 15.333337,-3.50323 5.31123,-0.08079 12.95679,0.511898 16.99013,1.317091 6.48672,1.294976 8.17994,2.384635 14.66666,9.43864 4.03334,4.386059 8.7283,10.593916 10.43324,13.795242 3.86018,7.24809 5.43264,18.18113 2.74915,19.11419 -1.01697,0.3536 -19.54905,0.81627 -41.18239,1.02814 -35.990436,0.35248 -39.53164,0.18691 -41.666666,-1.94811 z M 109.66667,109.0727 c 11.73982,0.20277 19.66667,-0.16971 19.66667,-0.92413 0,-3.39035 -2.38302,-6.21511 -9.78989,-11.604696 -7.75202,-5.640735 -8.45895,-5.877206 -17.56978,-5.877206 -8.419986,0 -9.814734,0.370285 -12.341695,3.276547 -1.566907,1.802101 -5.275108,4.514296 -8.240447,6.027099 -4.034673,2.058336 -5.391527,3.554646 -5.391527,5.945676 0,4.01181 1.925251,4.83566 8.666667,3.70865 2.933333,-0.49039 14.183334,-0.73876 25.000002,-0.55194 z m 82.05392,68.59397 0.38725,-11 h -4.63378 c -2.54859,0 -6.21448,-0.60099 -8.14646,-1.33551 -1.93196,-0.73453 -4.99414,-0.96369 -6.80484,-0.50922 -3.20513,0.80442 -3.28201,1.11296 -2.90746,11.66884 l 0.3847,10.84256 5.74896,0.1934 c 3.16192,0.1064 6.14036,0.58481 6.61875,1.06318 0.47839,0.47839 2.69135,0.69136 4.91771,0.47327 l 4.04792,-0.39652 z"
       id="path949" />
  </g>
</svg>
