<?xml version="1.0" encoding="UTF-8" standalone="no"?>
<!-- Created with Inkscape (http://www.inkscape.org/) -->

<svg
   version="1.1"
   id="svg75"
   width="226.66667"
   height="213.33333"
   viewBox="0 0 226.66667 213.33333"
   xmlns="http://www.w3.org/2000/svg"
   xmlns:svg="http://www.w3.org/2000/svg">
  <defs
     id="defs79" />
  <g
     id="g81">
    <path
       style="fill:#000000;stroke-width:1.33333"
       d="M 7.5400404,206.36248 C 6.1106112,205.29026 5.2727678,203.3064 5.5400403,201.62682 6.2989093,196.85804 64.642918,136 68.455849,136 c 3.767767,0 5.536603,4.30486 5.698275,13.86804 0.675349,39.94809 0.411246,52.13801 -1.163724,53.71298 -1.14975,1.14975 -8.835998,1.8704 -24.773922,2.32274 -12.708851,0.3607 -26.506632,1.02664 -30.661739,1.47988 -5.431675,0.59248 -8.246047,0.3055 -10.0146986,-1.02116 z M 36.254346,195.89974 c 5.432251,-2.1412 9.287887,-2.66886 17.04936,-2.33333 L 63.333334,194 63.666942,174.66666 64.00055,155.33333 56.014765,164 c -11.274118,12.23537 -23.028893,24.16609 -27.159238,27.56577 -3.82444,3.14789 -4.699309,7.10089 -1.571553,7.10089 1.07285,0 5.109518,-1.24512 8.970372,-2.76692 z m 96.076064,0.38574 c -1.65161,-0.25944 -3.60963,-1.60536 -4.35116,-2.99092 -2.08074,-3.8879 0.75943,-14.74582 4.70823,-17.99947 2.10128,-1.73137 3.69391,-4.90541 4.42503,-8.81892 2.44576,-13.09156 13.53073,-21.24708 29.25797,-21.52592 14.20994,-0.25195 21.83891,1.85833 30.29064,8.3788 10.62762,8.19915 15.5468,15.44125 18.7784,27.64588 2.76278,10.43396 1.2157,13.29027 -7.6999,14.21613 -8.35812,0.86798 -71.05794,1.77794 -75.40921,1.09442 z m 61.74583,-13.7771 C 199.3413,181.18262 200,180.59658 200,177.23814 c 0,-2.81137 -2.13316,-6.02205 -8.33333,-12.54276 -8.29264,-8.72134 -8.37609,-8.76806 -17.08991,-9.5665 -11.1181,-1.01875 -17.76538,1.75156 -27.57676,11.49286 -6.06628,6.02298 -7,7.64552 -7,12.16414 V 184 h 24.07624 c 13.33511,0 26.719,-0.66546 30,-1.49162 z M 85.333335,60.610928 C 79.100001,59.516084 71.000001,58.091411 67.333334,57.444986 56.735972,55.576696 43.755581,51.860267 38.386451,49.157177 c -2.720785,-1.369782 -5.939092,-2.490511 -7.151793,-2.490511 -1.212702,0 -4.386606,-1.118128 -7.053118,-2.484731 -2.666513,-1.366601 -7.046933,-3.432444 -9.734264,-4.59076 C 9.1501629,37.30797 7.1043061,33.498309 9.1363191,29.701458 10.553555,27.053328 26.443972,18.666666 30.044215,18.666666 c 1.249817,0 5.951159,-1.173776 10.447424,-2.60839 13.440272,-4.288362 26.20427,-7.0459787 37.508362,-8.1035497 5.866667,-0.5488648 16.887158,-1.7434915 24.489979,-2.654726 13.87446,-1.66292 18.52355,-1.41142 50.84336,2.7504517 14.49616,1.8666929 17.43198,2.525978 33.33333,7.48549 17.16101,5.352398 28.48005,10.089824 33.08808,13.848558 2.31733,1.890233 2.98289,3.611983 2.66667,6.898394 C 222.0139,40.518001 221.53851,40.843941 208,46.170815 183.31862,55.881976 154.76946,60.96709 119.33334,61.963926 102.71828,62.431316 93.640863,62.07009 85.333335,60.610928 Z M 144.66667,46.696093 C 152,45.823578 160.7,44.199266 164,43.086509 c 3.3,-1.112756 11.86226,-2.499147 19.02724,-3.08087 C 200.04188,38.62423 204.19804,35.776409 195,31.801857 169.00539,20.569358 103.85439,16.07293 71.09694,23.250626 c -5.003316,1.09631 -12.996939,2.630208 -17.763606,3.408666 -11.531157,1.883184 -19.917879,4.301856 -21.49155,6.198013 -1.463077,1.7629 5.418878,4.530444 17.49155,7.034137 4.033333,0.836453 9.433334,2.044083 12,2.68362 14.19096,3.535967 19.09379,4.417019 30.000001,5.391079 14.810305,1.322744 35.727985,0.824622 53.333335,-1.270048 z"
       id="path1088" />
  </g>
</svg>
