<?xml version="1.0" encoding="UTF-8" standalone="no"?>
<!-- Created with Inkscape (http://www.inkscape.org/) -->

<svg
   version="1.1"
   id="svg215"
   width="84"
   height="213.33333"
   viewBox="0 0 84 213.33333"
   xmlns="http://www.w3.org/2000/svg"
   xmlns:svg="http://www.w3.org/2000/svg">
  <defs
     id="defs219" />
  <g
     id="g221">
    <path
       style="fill:#000000;stroke-width:1.33333"
       d="m 28.689128,202.71098 c -1.845687,-3.64228 -3.355795,-7.86658 -3.355795,-9.38734 0,-2.39143 -0.723766,-2.7223 -5.356976,-2.44892 -6.679003,0.39409 -10.0408111,-2.44686 -8.790488,-7.42854 C 11.952976,180.38978 12.718014,180 17.949797,180 c 4.58436,0 6.361555,-0.6604 7.974598,-2.96335 C 27.065977,175.40682 28,173.18212 28,172.09288 c 0,-1.08926 2.033665,-4.10575 4.519255,-6.70334 l 4.519254,-4.72288 -1.122653,-13.33333 C 35.298396,140 35.142965,129.4463 35.570455,123.88066 35.997945,118.31503 35.907645,107.51503 35.369791,99.880665 34.395796,86.055684 34.374232,85.988561 29.99444,83.148921 26.605365,80.951615 24.246881,80.450024 19.709144,80.961492 11.91338,81.840188 6.8333332,77.801111 5.7707949,69.879296 5.1574453,65.306434 5.8473265,62.946572 10.057836,55.214714 c 2.759912,-5.068093 5.199156,-11.014715 5.420541,-13.214715 0.221387,-2.2 0.788844,-5.891584 1.261018,-8.203521 0.652624,-3.195481 0.0128,-5.646557 -2.667966,-10.220977 C 7.3326895,12.076711 7.2461965,3.9999999 13.861796,3.9999999 c 4.660905,0 7.466772,3.4021335 7.501185,9.0952381 0.0164,2.713336 1.148958,6.361111 2.534844,8.164307 2.478548,3.224873 2.613244,3.242747 12.663068,1.680336 5.58683,-0.868565 11.553674,-2.493775 13.259655,-3.611576 C 53.401507,16.98197 56,11.944728 56,7.3492852 56,3.6703411 58.180247,1.8949454 62,2.463427 c 6.040903,0.8990479 6.62166,7.3413646 1.544856,17.137026 -1.216337,2.346916 -2.211523,4.520231 -2.211523,4.829589 0,0.309358 2.381064,0.943216 5.291254,1.408575 8.159718,1.304791 9.807748,6.262105 5.97617,17.976474 -1.56864,4.795843 -3.173318,6.912534 -6.666666,8.793824 -4.367452,2.352029 -4.600758,2.841071 -4.600758,9.643869 0,9.043494 -2.407828,14.844967 -8.152034,19.641683 -2.483048,2.073477 -4.914762,4.453073 -5.403808,5.287992 -0.489047,0.834918 -0.319099,9.910422 0.377664,20.167781 0.696762,10.25737 1.254496,26.08844 1.239409,35.18016 l -0.02743,16.5304 5.9831,5.37629 c 4.198119,3.77235 5.983096,6.41848 5.983096,8.8696 0,5.07511 2.074746,6.43245 8.6921,5.68659 5.389547,-0.60748 5.906458,-0.39556 6.694598,2.74464 1.493772,5.95166 -0.379642,8.80464 -6.851728,10.43433 -5.387142,1.35649 -6.266972,2.16893 -9.306222,8.59337 -3.770601,7.9704 -7.097589,9.83398 -11.917834,6.67563 -3.207288,-2.10149 -3.290711,-4.54087 -0.2881,-8.42428 2.358128,-3.04987 -0.02206,-5.68364 -5.136403,-5.68364 -4.518552,0 -4.805571,0.23671 -4.041847,3.33333 0.452156,1.83334 1.20425,4.89716 1.671318,6.8085 0.947134,3.87586 -0.97787,5.8045 -5.826754,5.83776 -2.239818,0.0153 -3.808976,-1.62035 -6.333333,-6.60194 z m 20.644205,-23.35225 c 0,-2.20876 -5.578362,-4.06165 -8.663685,-2.87771 -1.10164,0.42274 -2.002981,1.68744 -2.002981,2.81047 0,1.49325 1.432902,2.04184 5.333333,2.04184 3.821357,0 5.333333,-0.55979 5.333333,-1.9746 z M 45.60444,71.709778 c 3.76486,-4.030296 3.95616,-4.745483 3.157515,-11.804575 -0.467584,-4.132895 -2.030308,-9.82916 -3.47272,-12.658368 -1.442412,-2.829208 -2.622568,-6.480385 -2.622568,-8.113728 0,-2.504704 -0.9552,-3.112954 -6.100243,-3.884501 -3.915128,-0.587109 -6.637457,-0.377573 -7.6,0.584969 -1.110788,1.110788 -0.792579,1.499758 1.226925,1.499758 1.499676,0 3.659183,1.05 4.798904,2.333333 1.723792,1.941 1.809698,3.117999 0.510907,7 -1.489515,4.452067 -1.835888,4.658159 -7.532236,4.481665 L 22,50.963331 18.881883,58.04265 c -1.714966,3.893626 -2.908836,8.176876 -2.653047,9.518334 0.619723,3.250062 5.480912,3.794154 9.627029,1.077512 4.315599,-2.827688 7.695191,-1.688208 9.923482,3.34585 2.277537,5.145314 4.828765,5.074018 9.825093,-0.274568 z M 57.890951,45.857347 c 2.529254,-0.970566 2.842714,-5.857348 0.375716,-5.857348 -0.953334,0 -2.453334,0.72 -3.333334,1.6 -3.43048,3.43048 -1.632416,6.01871 2.957618,4.257348 z"
       id="path243" />
  </g>
</svg>
