<?xml version="1.0" encoding="UTF-8" standalone="no"?>
<!-- Created with Inkscape (http://www.inkscape.org/) -->

<svg
   version="1.1"
   id="svg205"
   width="217.33333"
   height="204"
   viewBox="0 0 217.33333 204"
   xmlns="http://www.w3.org/2000/svg"
   xmlns:svg="http://www.w3.org/2000/svg">
  <defs
     id="defs209" />
  <g
     id="g211">
    <path
       style="fill:#000000;stroke-width:1.33333"
       d="m 70.872891,196.20623 c -4.934803,-4.9348 -3.673813,-11.67992 4.4107,-23.59311 3.993264,-5.88441 7.3244,-8.54647 16.484928,-13.17383 9.420781,-4.75882 23.747941,-5.07088 32.472731,-0.70726 7.27048,3.63625 16.54464,12.4496 19.86877,18.88152 3.01464,5.83309 3.39176,16.0335 0.67611,18.2873 -1.26983,1.05387 -13.11051,1.82336 -36.46044,2.36948 -34.15922,0.79895 -34.614856,0.77384 -37.452799,-2.0641 z m 59.378169,-12.67951 c 0.98953,-0.98953 -2.50022,-5.62345 -6.75595,-8.97101 -4.65246,-3.65963 -18.24283,-4.95954 -26.800727,-2.56347 -4.373096,1.22439 -6.754991,2.86976 -8.692387,6.00453 -1.467765,2.3749 -2.668664,4.96794 -2.668664,5.76232 0,1.46252 43.447608,1.23775 44.917728,-0.23237 z M 33.130539,118.75283 c -3.188463,-5.16817 -6.501399,-9.4018 -7.362081,-9.40808 -0.860682,-0.006 -3.260682,3.43858 -5.333333,7.65525 -3.338623,6.79219 -4.224705,7.66667 -7.768459,7.66667 -5.6908392,0 -5.8469269,-4.6836 -0.577893,-17.34039 C 16.327685,97.143956 20.211304,92 23.659909,92 c 2.207687,0 9.673424,7.923392 9.673424,10.26641 0,2.31437 6.030048,6.05172 8.878949,5.50307 1.288869,-0.24821 3.868371,-3.37973 5.732225,-6.95894 1.863854,-3.579207 4.711235,-7.380663 6.327512,-8.44768 2.683341,-1.77146 3.204688,-1.660507 6,1.276933 1.683723,1.76933 4.261313,4.928219 5.72798,7.019747 1.466667,2.09154 3.708472,5.04877 4.981788,6.57163 L 73.29691,110 l 2.662845,-3.33333 c 1.464566,-1.83334 3.041722,-4.53334 3.504792,-6 C 80.839425,96.312057 85.570928,92 88.974245,92 c 3.80572,0 9.801644,6.183535 13.110045,13.52025 1.29519,2.87223 3.00608,5.01604 3.80197,4.76402 0.79589,-0.25202 3.14432,-3.58621 5.21872,-7.4093 4.2366,-7.807955 8.81274,-11.503969 12.71136,-10.266595 2.56994,0.815669 8.86204,8.095635 11.55636,13.370725 2.48559,4.86639 6.13158,3.22481 10.16222,-4.57545 2.06416,-3.994662 4.61245,-8.122453 5.66286,-9.172869 3.51832,-3.518316 8.12583,-0.79113 14.22604,8.420399 3.1623,4.77519 6.4252,8.68215 7.25088,8.68215 0.8257,0 2.87931,-3.32478 4.56358,-7.38839 3.62812,-8.753475 5.87365,-11.278273 10.0308,-11.278273 2.99677,0 8.50344,7.047086 18.00464,23.041193 3.73674,6.29036 2.90953,11.62547 -1.80254,11.62547 -3.8569,0 -5.32366,-1.70416 -10.37076,-12.04937 -2.17606,-4.46035 -4.66386,-7.89963 -5.52845,-7.64285 -0.86459,0.25678 -3.53732,4.31665 -5.93941,9.02194 -6.39324,12.52327 -8.64847,13.34829 -15.63663,5.7203 -2.49413,-2.72249 -5.87649,-7.55869 -7.51636,-10.74712 l -2.98157,-5.79714 -3.07551,5.08046 c -1.69152,2.79425 -3.09527,5.68045 -3.11943,6.41378 -0.0241,0.73334 -1.67722,3.43732 -3.67349,6.00885 -5.86747,7.55829 -10.40732,5.09288 -18.94447,-10.28796 -1.71336,-3.08685 -3.64287,-5.28633 -4.2878,-4.88774 -0.64494,0.39859 -3.08192,4.89633 -5.41552,9.99498 -6.48122,14.16071 -11.75539,14.28525 -20.888943,0.49327 C 92.940523,111.89463 89.931439,108 89.405984,108 c -0.525455,0 -1.576483,1.35 -2.335617,3 -2.752372,5.98235 -4.252551,9.72541 -5.075434,12.66357 -0.461841,1.64903 -2.272812,3.35668 -4.026584,3.79685 -3.912739,0.98203 -10.110959,-0.94374 -11.393002,-3.53978 -0.521675,-1.05635 -2.06454,-4.20829 -3.428591,-7.00431 -1.364049,-2.79602 -3.453068,-5.96931 -4.642262,-7.05175 -1.949362,-1.77438 -2.445042,-1.33963 -5.036152,4.417 -5.160859,11.46581 -6.389033,13.02893 -10.575713,13.45983 -3.61867,0.37244 -4.471094,-0.41244 -9.76209,-8.98858 z M 47.562301,76.480968 C 47.436369,76.371413 40.433333,76.094763 32,75.866191 15.677601,75.423797 10.058885,73.719825 8.4758369,68.732083 8.0060975,67.252064 7.4966147,57.434995 7.3436527,46.916372 7.0492147,26.668972 7.7578992,24 13.428572,24 15.455764,24 16,23.056049 16,19.539984 c 0,-5.420579 3.428572,-8.880908 8.771654,-8.8529 5.696496,0.02986 7.284183,1.574981 7.606687,7.402755 0.208013,3.758898 0.938262,5.334884 2.621658,5.657926 2.026202,0.388827 2.333334,-0.677708 2.333334,-8.102646 0,-7.7207643 0.309094,-8.691245 3.185545,-10.0018439 2.491563,-1.1352316 4.161776,-0.9640028 7.666667,0.78598 4.061449,2.0278704 4.490004,2.7993321 4.575965,8.2374119 0.149427,9.453081 0.442032,10.666666 2.571822,10.666666 1.538218,0 2,-1.713442 2,-7.420988 0,-4.081544 0.621111,-8.5815441 1.380246,-10.0000003 1.392796,-2.6024631 5.948302,-3.3890274 8.869673,-1.5314582 2.275797,1.4470778 4.416748,7.7295095 4.416748,12.9605575 0,4.920999 2.284059,7.408304 4.128654,4.496043 0.640115,-1.010618 1.173032,-4.57281 1.184262,-7.91598 0.02274,-6.7692658 1.960284,-10.1801399 6.148918,-10.8246129 4.921735,-0.7572692 7.204832,2.5382303 7.204832,10.3996989 0,5.48451 0.470167,7.170074 2,7.170074 2.046648,0 2.656814,-3.360724 2.100598,-11.569862 -0.329306,-4.860179 2.898954,-7.4125595 7.279027,-5.7550663 4.0696,1.540004 5.52136,3.9954805 6.54586,11.0714803 1.16097,8.018612 3.93646,7.694514 4.42614,-0.516847 C 113.65762,5.1755248 114.25779,4 119.09207,4 c 5.88378,0 7.57075,2.0582707 7.59501,9.266667 0.0112,3.336666 0.54415,6.893536 1.18426,7.904153 C 129.97141,24.486421 132,21.29878 132,14.683216 132,5.6990239 135.52065,2.2224789 141.42098,5.3802451 143.42569,6.4531321 144,8.1982455 144,13.216985 c 0,3.774682 0.74324,7.073326 1.78934,7.94152 2.67383,2.219086 3.54399,0.472374 3.54399,-7.114061 C 149.33333,6.5572123 150.92093,4 155.56926,4 c 3.85474,0 7.40071,5.2946543 8.36408,12.488811 0.50522,3.772785 1.45526,5.615008 3.05422,5.922406 2.0215,0.388634 2.2148,-0.327904 1.4984,-5.554636 -1.1417,-8.3295919 0.12813,-12.3869885 4.19645,-13.4080599 5.79127,-1.453514 8.65092,1.1684033 8.65092,7.9317239 0,4.402746 0.52085,5.953088 2,5.953088 1.43392,0 2,-1.463341 2,-5.170073 0,-6.0933135 2.44047,-8.6134143 8.18313,-8.4501373 5.32488,0.1513985 5.63178,0.5571504 6.45423,8.5332073 0.64776,6.281829 1.01324,6.853435 5.27593,8.251523 5.9177,1.940904 6.5456,4.424923 7.00272,27.703128 0.29192,14.865951 -0.0192,18.792406 -1.61042,20.322712 -2.90696,2.795703 -37.23822,4.946214 -111.305588,6.972184 C 64.220531,76.45632 47.89113,76.767033 47.562301,76.480968 Z M 118,62.044117 c 11,-0.379146 30.2,-0.910592 42.66666,-1.180988 20.83731,-0.451952 33.78183,-2.194433 37.45315,-5.041621 1.86632,-1.447375 1.47595,-19.425749 -0.46393,-21.365621 -0.7939,-0.793903 -5.6353,-1.527624 -10.75866,-1.630494 -7.10261,-0.142609 -9.98121,-0.789765 -12.11917,-2.724588 -2.24761,-2.034069 -3.39663,-2.256372 -5.79101,-1.120406 -7.87198,3.734705 -13.08038,4.275542 -45.65371,4.74066 -42.898835,0.612554 -102.486744,2.371229 -103.189712,3.045536 -0.634073,0.608222 -0.441082,5.382521 0.626023,15.486884 0.991619,9.389572 -0.771779,8.900254 35.101133,9.74008 14.96226,0.350284 27.463607,0.89638 27.780774,1.213546 0.317167,0.317167 3.675319,0.340351 7.462559,0.05152 C 94.901348,62.969793 107,62.423265 118,62.044117 Z"
       id="path382" />
  </g>
</svg>
