<?xml version="1.0" encoding="UTF-8" standalone="no"?>
<!-- Created with Inkscape (http://www.inkscape.org/) -->

<svg
   version="1.1"
   id="svg195"
   width="762.66669"
   height="289.33334"
   viewBox="0 0 762.66669 289.33334"
   xmlns="http://www.w3.org/2000/svg"
   xmlns:svg="http://www.w3.org/2000/svg">
  <defs
     id="defs199" />
  <g
     id="g201">
    <path
       style="fill:#000000;stroke-width:1.33333"
       d="m 123.79681,283.35237 c -0.3562,-0.3562 -6.00621,-1.19536 -12.55556,-1.86479 C 90.952497,279.41381 67.345726,270.96206 56.444759,261.86925 41.998476,249.81918 33.478793,240.75239 29.928777,233.65053 c -2.103344,-4.20779 -5.464895,-10.47116 -7.470112,-13.9186 -2.005218,-3.44745 -4.3349,-8.84745 -5.177074,-12.00001 -0.842174,-3.15256 -2.043375,-6.72305 -2.669336,-7.93442 C 7.512235,186.05734 2.9409594,115.88741 8.4831305,105.7143 9.5960552,103.67144 12.127193,96.900002 14.10788,90.666669 18.006041,78.398944 24.671805,64.197505 31.005292,54.666668 34.679686,49.13732 36.860449,46.622946 47.773464,35.333334 52.443743,30.501889 66.829738,21.41846 78.666669,15.827128 86.956428,11.91135 90.951551,10.946892 110.82404,8.0640509 c 4.85322,-0.7040418 9.35322,-1.377523 10,-1.4966249 0.64678,-0.1191013 4.38214,-0.145496 8.30079,-0.058653 5.93017,0.1314191 7.24176,0.6050281 7.82217,2.8245608 0.71746,2.7435512 3.053,3.7383052 3.053,1.3003322 0,-0.7514839 1.35,-1.8759932 3,-2.4989096 1.65,-0.6229163 72.00001,-1.6069945 156.33334,-2.1868404 84.33334,-0.5798458 161.13334,-1.2385773 170.66667,-1.4638476 9.53334,-0.2252704 18.53334,-0.3425795 20,-0.2606868 1.46667,0.081893 27.26667,0.2151335 57.33334,0.2960907 30.06667,0.080957 55.64934,0.6355516 56.85039,1.2324323 2.8272,1.4050307 4.20384,8.3659184 2.34237,11.8440904 -1.21776,2.275404 -2.23358,2.56036 -6.32182,1.773368 C 597.52527,18.853651 493.63335,18.174774 369.33334,17.860748 156.89104,17.324044 143.22418,17.151123 141.51367,14.97823 140.18276,13.287553 139.52406,13.120729 139.06128,14.357143 137.56123,18.36497 134.26367,20 127.68065,20 c -9.14068,0 -22.87463,2.354889 -31.01398,5.317802 -25.727385,9.365372 -32.700033,13.467187 -44.223638,26.015533 -8.334509,9.07566 -17.113462,24.413531 -20.223774,35.333334 -0.731069,2.566666 -2.566232,8.606836 -4.078138,13.422601 -5.65243,18.00427 -6.597283,67.67197 -1.469623,77.25309 0.730677,1.36528 1.328504,3.97398 1.328504,5.79708 0,4.09904 7.174169,24.6684 11.448476,32.8244 4.767558,9.09721 32.73946,37.3695 36.972445,37.3695 1.096559,0 4.300446,1.13636 7.119746,2.52524 2.819301,1.38887 7.826001,3.22953 11.126002,4.09035 3.3,0.86081 7.8,2.09758 10,2.7484 4.60811,1.36318 18.08531,3.82136 28.5061,5.19938 3.97897,0.52618 7.84318,1.86536 8.67842,3.00763 1.01133,1.38308 2.39417,1.73043 4.21193,1.058 1.48846,-0.55061 62.98317,-1.42604 136.65492,-1.94537 112.00041,-0.78954 258.62043,-2.69016 273.94864,-3.55119 2.2,-0.1236 20.5,-0.14021 40.66667,-0.0369 26.58042,0.13608 39.41747,-0.3282 46.66667,-1.68779 31.70413,-5.94613 40.22673,-9.80692 54.76213,-24.80757 7.40103,-7.63791 11.42821,-13.20076 15.0889,-20.8427 2.74639,-5.73324 6.39833,-13.12408 8.11545,-16.42408 1.71714,-3.3 3.55504,-9 4.08426,-12.66667 0.52921,-3.66666 1.82876,-8.37285 2.88788,-10.45818 2.69889,-5.31396 2.16316,-61.09929 -0.68064,-70.87515 -1.06664,-3.66667 -2.22823,-9.666668 -2.58132,-13.333334 -0.35308,-3.666667 -1.77478,-8.25929 -3.15931,-10.205827 -1.38455,-1.946579 -2.51735,-4.720308 -2.51735,-6.163883 0,-6.218595 -12.37021,-27.409182 -21.818,-37.374952 -12.19256,-12.861033 -39.62663,-20.371495 -78.06804,-21.372224 -4.59381,-0.119587 -7.30287,-3.287519 -6.28373,-7.348109 1.14042,-4.5437864 3.70022,-5.1130463 22.58558,-5.0226835 43.32402,0.2072972 73.55769,17.0645115 94.58419,52.7367665 3.48334,5.909606 6.33334,11.796118 6.33334,13.081138 0,1.28502 0.6,2.3364 1.33333,2.3364 1.54477,0 2.12792,-14.898949 1.48731,-38.000001 -0.3251,-11.723463 -0.97078,-16.597146 -2.41571,-18.234129 -2.94079,-3.331678 -1.60087,-6.824249 3.55148,-9.257071 4.21208,-1.988848 9.1912,-1.7622504 13.00016,0.59163 1.64821,1.018575 0.76396,261.684739 -0.89825,264.790599 -0.93056,1.73876 -3.44438,2.92007 -7.51192,3.53004 -7.00814,1.05094 -9.92146,-0.77698 -9.76332,-6.12585 0.5704,-19.29495 0.95785,-26.86967 1.63485,-31.96188 1.60184,-12.0484 2.31391,-30.66667 1.17287,-30.66667 -0.64443,0 -3.58711,4.7444 -6.53928,10.54311 -9.94954,19.54296 -19.65427,30.81168 -35.05153,40.70033 -12.5419,8.05484 -20.7317,11.71064 -40.15198,17.9232 -5.44404,1.74155 -188.63574,3.14327 -207.18136,1.58527 -5.86666,-0.49284 -13.66666,-0.41481 -17.33333,0.17343 -3.66667,0.58822 -13.56667,1.01584 -22,0.95026 -8.43333,-0.0656 -17.73333,-0.0924 -20.66667,-0.0596 -2.93333,0.0328 -58.86521,0.104 -124.29306,0.15828 -92.30458,0.0765 -119.55125,-0.27078 -121.59968,-1.55005 -2.1606,-1.34932 -3.50771,-1.23488 -7.41885,0.63021 -4.52739,2.15896 -11.48368,3.03919 -12.89161,1.63126 z m 184.86987,-36.77264 c -7.33334,-0.55116 -16.63334,-1.69663 -20.66667,-2.54548 -4.03333,-0.84886 -10.10059,-1.47856 -13.48279,-1.39935 -3.3822,0.0792 -10.5822,-0.81612 -16,-1.98964 -5.4178,-1.17352 -14.05055,-2.74745 -19.18388,-3.49763 -5.13333,-0.75017 -10.23333,-2.13637 -11.33333,-3.08046 -1.1,-0.94408 -4.4,-2.03104 -7.33334,-2.41548 -2.93333,-0.38443 -9.98586,-2.86332 -15.6723,-5.50866 -5.68643,-2.64533 -10.78835,-4.80969 -11.33759,-4.80969 -0.54925,0 -3.95233,-2.1 -7.5624,-4.66667 -3.61007,-2.56667 -7.20815,-4.67759 -7.99573,-4.69093 -0.78759,-0.0133 -4.13198,-1.8707 -7.43198,-4.12743 -5.62962,-3.84989 -6.59461,-4.06665 -15.63255,-3.51152 -8.11805,0.49864 -10.05717,0.19607 -12.33333,-1.92449 C 141.21536,201.0284 140,199.05352 140,198.02367 140,195.50203 145.2111,192 148.96335,192 c 2.24767,0 3.04767,-0.77945 3.07905,-3 0.056,-3.96113 2.67407,-7.24466 7.126,-8.93729 3.28908,-1.25051 4.12714,-0.85407 9.22467,4.36365 l 5.60694,5.73912 28,-0.36226 c 35.26452,-0.45626 54.94273,-1.58592 59.75962,-3.43062 5.1234,-1.96208 11.38477,-1.62054 14.04106,0.76587 1.66917,1.49959 5.6652,1.95639 16.57745,1.89504 13.25754,-0.0745 14.63444,0.15996 17.66667,3.00859 3.80601,3.57556 4.13464,6.14633 1.20017,9.38888 -1.80554,1.9951 -3.87766,2.209 -15.30145,1.57952 -11.05805,-0.60934 -13.34012,-0.39707 -13.99191,1.30146 -0.95498,2.48867 2.4947,13.16255 6.56726,20.32019 2.69744,4.7408 3.84685,5.4869 10.9147,7.08474 4.34487,0.98225 15.33827,1.95268 24.42978,2.1565 14.28249,0.3202 16.7752,0.70591 18.33333,2.83678 2.47585,3.38593 2.26468,5.49514 -0.86335,8.62317 -2.9484,2.9484 -7.63954,3.12739 -32.66666,1.24639 z m -37.44239,-16.72238 c 4.24189,-1.62776 2.76485,-7.44446 -4.95775,-19.52401 -3.30837,-5.1749 -4.80051,-6.36728 -8.15775,-6.51892 -2.25984,-0.102 -6.50878,-0.35444 -9.44212,-0.56082 -20.5037,-1.44253 -59.2685,-1.77052 -60.04874,-0.50806 -1.43567,2.32296 3.21637,4.80846 17.38208,9.28697 7.33333,2.31845 15.22401,5.05959 17.53484,6.09143 2.31082,1.03184 5.1204,1.87607 6.24348,1.87607 1.12309,0 2.39181,1.10221 2.81937,2.44937 1.01313,3.19209 8.52749,5.51305 12.76911,3.94397 2.20737,-0.81656 4.92837,-0.56321 8.59794,0.80052 2.95272,1.09734 7.16859,2.23772 9.36859,2.5342 2.2,0.29648 4.40093,0.62895 4.89095,0.73883 0.49002,0.10987 1.84002,-0.16441 3,-0.60955 z m 192.60564,15.93806 c -1.2938,-1.55872 -2.05202,-8.24938 -2.58801,-22.83692 l -0.75808,-20.63231 -4.57525,-3.82802 c -4.4595,-3.73116 -7.6735,-5.69636 -17.24191,-10.54256 -2.56667,-1.29996 -6.39092,-3.96193 -8.49833,-5.91549 -3.8124,-3.53408 -3.82723,-3.61013 -2.94951,-15.12936 2.76828,-36.33101 3.59011,-45.93261 4.75704,-55.57741 0.70981,-5.86667 2.24771,-22.066671 3.41753,-36.000005 1.40132,-16.6906 2.78787,-26.356815 4.06419,-28.333334 2.61211,-4.045132 8.56675,-3.904096 15.0032,0.355355 5.88404,3.893873 9.16675,8.03374 14.11776,17.804088 4.68055,9.23661 5.17705,18.948563 6.49781,127.100076 0.58086,47.56322 0.45108,51.75485 -1.66146,53.66667 -2.98464,2.70107 -7.28308,2.6424 -9.58498,-0.1308 z M 460.17272,179 c 0.93703,-2.3859 1.44431,-20.66588 1.45227,-52.33333 l 0.012,-48.666668 -3.39067,-7.374399 c -1.86487,-4.055919 -4.61799,-8.485106 -6.11804,-9.842635 -2.67439,-2.420284 -2.75303,-2.400748 -4.04811,1.005549 -1.62122,4.264811 -9.41349,87.423583 -9.41349,100.463123 0,6.8418 0.56017,9.88675 2.04564,11.11958 2.48501,2.06237 15.54616,9.16873 16.98736,9.24254 0.56815,0.0291 1.68101,-1.59709 2.47304,-3.61376 z m 141.19501,65.70809 c -1.1206,-1.35024 -1.59455,-7.80748 -1.52591,-20.78955 0.0733,-13.8638 -0.40228,-19.80147 -1.803,-22.51016 -2.93386,-5.67346 -10.08266,-11.25482 -21.13487,-16.50086 -5.54227,-2.63069 -10.62935,-5.86108 -11.30463,-7.17862 -1.37268,-2.67826 -0.20362,-21.62292 2.86163,-46.37315 1.08833,-8.78768 1.76007,-16.33149 1.49273,-16.76404 -0.26732,-0.43255 0.1328,-4.94264 0.88911,-10.02241 0.75633,-5.079782 1.596,-12.535965 1.86592,-16.569298 1.40979,-21.065702 3.10544,-34.584243 4.77747,-38.08796 3.90964,-8.192669 15.51416,-4.95311 24.99335,6.977231 l 5.81284,7.315943 1.71062,18.230726 c 0.94086,10.0269 1.83734,36.230728 1.9922,58.230728 0.15486,22 0.45604,43.9 0.66932,48.66667 1.4167,31.66381 1.21791,53.06517 -0.51225,55.14989 -2.25268,2.71432 -8.60849,2.84683 -10.78453,0.22486 z M 599.24371,173 c 1.57667,-14.80142 1.17088,-79.611259 -0.5846,-93.36627 -1.36288,-10.678894 -2.35683,-13.990311 -5.50291,-18.333334 -5.55073,-7.662577 -7.45182,-6.976173 -8.40014,3.032939 -1.07378,11.333345 -1.92356,20.453518 -3.44752,37.000005 -0.70919,7.7 -1.90303,20.6 -2.65299,28.66666 -0.74995,8.06667 -1.669,18.26667 -2.04232,22.66667 -0.37333,4.4 -1.02523,9.90295 -1.44865,12.22877 -0.68427,3.7586 -0.28716,4.47839 3.57165,6.47387 2.38784,1.2348 6.73907,3.98184 9.66937,6.10456 8.25432,5.97939 9.79223,5.34456 10.83811,-4.47387 z M 227.80673,139.97374 c -11.98883,-2.02471 -24.50978,-12.49135 -31.60358,-26.41836 -3.92606,-7.70792 -4.11165,-19.52993 -0.47734,-30.406503 5.00568,-14.980735 7.64696,-18.716764 19.23141,-27.202394 9.92261,-7.268325 11.4332,-7.946482 17.70072,-7.946482 21.14233,0 35.00336,6.675647 48.10767,23.169261 4.68635,5.898432 5.21557,7.373625 5.69609,15.8775 0.865,15.308498 -3.57293,29.880318 -11.33105,37.205138 -16.05926,15.16233 -27.7128,19.03384 -47.32392,15.72184 z m 24.58114,-14.67653 c 9.30607,-3.03816 12.22851,-5.08717 17.59026,-12.33304 4.64441,-6.27647 5.93641,-13.02853 4.50116,-23.523332 -1.99623,-14.596728 -8.41655,-22.949643 -21.07182,-27.414679 -6.46114,-2.279627 -20.815,-2.73014 -22.07413,-0.692824 -0.45323,0.733333 -2.26637,1.333333 -4.02923,1.333333 -4.15356,0 -15.8039,11.894504 -19.53528,19.944683 -4.58453,9.89083 -2.64049,20.328319 6.33875,34.032359 1.94383,2.96666 10.53304,7.8121 17.89243,10.09368 5.75396,1.78385 11.82638,1.3549 20.38786,-1.44018 z m -18.10696,-23.65348 c -3.33333,-3.683292 -2.85445,-9.719095 1.11036,-13.994969 3.20674,-3.458316 3.59555,-3.551687 7.14552,-1.71592 2.06486,1.067773 4.51011,3.76616 5.43391,5.996416 1.42489,3.439993 1.3476,4.561765 -0.5096,7.396211 -1.20408,1.837662 -2.9254,3.349392 -3.82516,3.359412 -0.89976,0.01 -2.85952,0.34693 -4.35503,0.74871 -1.69914,0.4565 -3.57468,-0.21489 -5,-1.78986 z"
       id="path521" />
  </g>
</svg>
