<?xml version="1.0" encoding="UTF-8" standalone="no"?>
<!-- Created with Inkscape (http://www.inkscape.org/) -->

<svg
   version="1.1"
   id="svg185"
   width="128"
   height="216"
   viewBox="0 0 128 216"
   xmlns="http://www.w3.org/2000/svg"
   xmlns:svg="http://www.w3.org/2000/svg">
  <defs
     id="defs189" />
  <g
     id="g191">
    <path
       style="fill:#000000;stroke-width:1.33333"
       d="M 70,209.88579 C 54.8148,205.08804 47.35626,191.94693 40.551023,158 c -1.76411,-8.8 -3.209771,-16.15 -3.21258,-16.33333 -0.0028,-0.18334 -1.43011,-0.33334 -3.171776,-0.33334 -2.372407,0 -3.36661,0.91967 -3.963824,3.66667 -1.203339,5.53497 -2.690475,7.09009 -7.904774,8.26611 -7.059696,1.59222 -8.108196,-0.41386 -4.223292,-8.08034 1.792206,-3.53676 3.258556,-7.71948 3.258556,-9.29496 0,-1.57546 2.11656,-4.80318 4.703468,-7.1727 3.17789,-2.91083 4.429027,-5.02339 3.857348,-6.51316 -1.431305,-3.72992 -4.87006,-2.47666 -10.73625,3.91283 -3.45381,3.76191 -6.518354,5.94406 -7.958093,5.66667 -3.0046272,-0.57891 -4.636802,-6.5892 -2.694146,-9.92089 3.557713,-6.10153 11.872632,-16.54301 13.28608,-16.68403 0.847876,-0.0846 2.441593,-0.23459 3.541593,-0.33333 1.454884,-0.1306 2,-1.81488 2,-6.179533 0,-5.032132 -0.44079,-6.063076 -2.732546,-6.39102 -1.946904,-0.278596 -3.983314,1.350642 -7.082847,5.666666 -4.364701,6.077737 -5.249507,6.606047 -10.1846067,6.081127 C 0.96922448,103.34653 0.49433565,99.587503 5.9828193,93.333333 7.5917012,91.5 9.6585708,88.093376 10.575863,85.763059 c 2.452798,-6.231166 5.855901,-8.68435 12.350505,-8.903072 5.591865,-0.188322 5.750731,-0.318116 6.143755,-5.019474 C 29.539052,66.231175 27.877707,65.381645 16.380245,65.35154 8.1442281,65.32998 6.6666667,63.562343 6.6666667,53.731024 c 0,-5.786123 0.5911028,-7.061156 5.7876723,-12.484249 3.18322,-3.321979 6.169662,-7.561932 6.636538,-9.422119 0.466878,-1.860185 2.662426,-5.664221 4.878995,-8.453412 C 26.186443,20.582053 28,17.793921 28,17.175396 c 0,-0.618524 1.65,-1.507403 3.666667,-1.975283 5.988458,-1.389365 9.666666,-4.340124 9.666666,-7.7548653 0,-3.6633533 2.805222,-5.1292569 7.54101,-3.9406496 3.170846,0.7958318 3.285282,1.160241 2.407204,7.6654779 C 49.993653,20.711415 49.297053,21.609348 39.211676,26.728417 28.891449,31.966689 25.345673,36.636571 25.338317,45 c -0.0045,5.104373 0.31466,5.666667 3.216311,5.666667 4.20916,0 12.588497,-10.056875 10.292419,-12.352954 -3.384368,-3.384368 -0.246611,-11.647046 4.42297,-11.647046 1.270155,0 3.834924,1.2 5.699488,2.666666 4.395075,3.457166 11.447754,3.500446 13.867866,0.08511 1.006113,-1.419864 3.629296,-2.769864 5.829296,-3.000004 3.942732,-0.412445 4.009545,-0.313444 4.666666,6.914897 C 73.841289,38.920847 75.092725,42.17442 78.59,47 c 4.721004,6.514092 7.166633,7.433013 14.533239,5.460724 2.879617,-0.770971 3.054464,-1.315571 2.241542,-6.981793 C 93.984477,35.857933 90.571968,30.306927 85.233125,28.998133 79.560768,27.60758 74.673244,22.341984 74.646249,17.592315 c -0.0112,-1.975774 -0.580874,-4.478611 -1.26588,-5.561863 -1.734273,-2.7425423 2.103895,-6.6984569 6.492948,-6.6921345 5.725406,0.00825 11.406276,4.5480814 17.757647,14.1909215 3.310166,5.025585 6.602056,10.337428 7.315316,11.804094 2.23467,4.59512 5.95716,22.748056 5.49516,26.797458 -0.44659,3.914352 -2.93517,5.24231 -14.44144,7.706264 -1.833333,0.39259 -4.509591,1.574129 -5.947237,2.625644 -2.245784,1.642594 -2.393006,2.396661 -1.045376,5.354385 0.862689,1.893399 3.665121,4.318557 6.227625,5.38924 3.143643,1.313497 5.436138,3.596927 7.047998,7.020144 1.3139,2.790397 4.0329,5.861395 6.04222,6.824439 4.53952,2.17573 6.81153,6.227916 5.78505,10.317743 -1.98804,7.92096 -14.6454,3.11184 -20.271205,-7.701983 C 92.709616,93.495644 90.826475,92 89.222429,92 c -2.359797,0 -2.656228,0.725011 -2.299093,5.623141 0.344771,4.728549 1.152425,6.120629 5.076664,8.750209 2.566667,1.71989 5.709011,5.14661 6.982987,7.61494 1.273973,2.46833 3.522583,4.87073 4.996903,5.33866 5.59192,1.77481 4.53491,11.53006 -1.41799,13.08678 -2.940676,0.769 -5.21012,-1.10758 -11.663311,-9.6443 -3.75176,-4.96309 -6.447932,-5.21732 -8.461562,-0.79789 -1.28641,2.82337 -0.990847,4.04796 2.028585,8.40501 1.943913,2.80506 3.534388,5.68453 3.534388,6.3988 0,0.71426 1.302035,2.41352 2.893412,3.77609 2.820511,2.415 3.010899,2.41415 7.556507,-0.0339 5.057581,-2.72369 8.024961,-2.69316 14.246221,0.14654 3.14418,1.43516 4.5216,3.39509 6.26946,8.92088 3.18838,10.0799 3.93209,13.92448 4.62636,23.9158 0.54862,7.89526 0.18247,9.6666 -3.4451,16.66666 -8.11398,15.65742 -15.13419,20.12887 -33.309493,21.21618 C 79.78224,211.80572 74.624477,211.34688 70,209.88579 Z m 27.362836,-15.91406 c 4.704804,-4.50749 5.042104,-8.63932 1.303831,-15.97173 -3.897606,-7.64492 -3.464255,-12.99881 1.510773,-18.66505 2.29759,-2.61682 3.94759,-4.96316 3.66667,-5.2141 -1.62943,-1.45548 -6.416047,-2.01948 -7.143923,-0.84176 -0.471662,0.76318 -2.724502,1.38758 -5.006311,1.38758 -3.297255,0 -5.401924,-1.39042 -10.254644,-6.77452 C 76.922679,142.88101 74.725975,141.35636 73,142.0348 c -1.283333,0.50444 -2.333333,1.76589 -2.333333,2.80323 0,1.03733 -2.1,7.26021 -4.666667,13.82864 -5.532667,14.15878 -5.801372,19.86602 -1.355383,28.78796 2.677372,5.37278 4.40033,7.07712 9,8.9027 8.629922,3.42516 18.711488,2.41116 23.718219,-2.3856 z M 56.439543,149 c 0.994765,-2.38333 2.217129,-6.51469 2.716364,-9.18081 0.82677,-4.41528 0.605229,-4.92339 -2.484796,-5.69894 -1.865874,-0.4683 -4.647715,-0.17968 -6.181871,0.64138 -2.347499,1.25633 -2.659479,2.30514 -1.969401,6.62065 1.10194,6.89115 3.118356,11.95105 4.7626,11.95105 0.741642,0 2.16234,-1.95 3.157104,-4.33333 z M 69.28164,122.76326 c 3.054183,-5.70679 -1.430339,-8.09659 -15.193467,-8.09659 -3.801505,0 -8.009065,0.80232 -9.350133,1.78293 -4.326989,3.16397 -1.694801,5.4679 8.039509,7.0369 13.558096,2.18533 14.980838,2.12298 16.504091,-0.72324 z m -10.614973,-17.8766 c 4.766666,0.0189 10.316666,0.49708 12.333333,1.06262 3.45984,0.97026 3.666667,0.78335 3.666667,-3.31352 0,-6.527681 -2.845148,-7.877867 -16.703326,-7.926689 C 44.661644,94.662211 40,96.516221 40,101.85338 c 0,4.17106 0.981181,4.8182 5.824075,3.84128 2.296758,-0.46331 8.075925,-0.82691 12.842592,-0.808 z M 75.797857,85.48648 C 78.631449,83.690753 77.011695,79.537352 72.650361,77.415623 67.716199,75.01522 46.62422,75.171231 42.675353,77.637339 41.203909,78.556271 40,80.680507 40,82.357861 c 0,2.934878 0.313852,3.020519 8.333333,2.27391 6.568068,-0.611483 17.110984,0.169489 25,1.851889 0.366667,0.0782 1.475703,-0.370536 2.464524,-0.99718 z m -5.74593,-26.345276 c -1.31362,-7.002196 -7.132668,-13.807783 -11.806248,-13.807832 -5.032138,-5.2e-5 -8.912346,2.231403 -8.912346,5.125367 0,1.300704 -0.880917,3.529593 -1.957596,4.953088 -2.418389,3.197397 -2.594548,6.809822 -0.375737,7.705132 0.916667,0.369884 6.683441,0.719884 12.815055,0.777778 L 70.963443,64 Z"
       id="path660" />
  </g>
</svg>
