<?xml version="1.0" encoding="UTF-8" standalone="no"?>
<!-- Created with Inkscape (http://www.inkscape.org/) -->

<svg
   version="1.1"
   id="svg175"
   width="217.33333"
   height="114.66667"
   viewBox="0 0 217.33333 114.66667"
   xmlns="http://www.w3.org/2000/svg"
   xmlns:svg="http://www.w3.org/2000/svg">
  <defs
     id="defs179" />
  <g
     id="g181">
    <path
       style="fill:#000000;stroke-width:1.33333"
       d="M 83.053856,110.3838 C 72.633478,109.86155 60.633478,108.55279 56.38719,107.47545 52.140902,106.3981 45.666666,105.09684 41.999999,104.58374 38.333333,104.07065 33.233333,102.89332 30.666666,101.96745 28.1,101.04159 22.468532,99.238678 18.152293,97.960991 8.5388393,95.115228 4.942361,91.955863 6.5056555,87.729875 c 0.8340565,-2.25467 4.9358605,-4.54259 16.5179735,-9.213461 8.474607,-3.417666 17.711176,-6.488087 20.525708,-6.823157 5.102022,-0.607396 23.132223,-3.903396 35.783995,-6.541474 12.075684,-2.517955 40.210528,-2.827791 59.333328,-0.653413 38.77623,4.409092 43.57751,5.012267 50.66667,6.365144 15.90289,3.034865 21.05071,7.510203 17.52912,15.239231 -1.75963,3.861968 -11.64577,8.738291 -25.52912,12.592185 -8.02568,2.22786 -14.61807,4.12384 -18.66667,5.36856 -9.27932,2.85288 -44.06663,7.72623 -53.33333,7.47146 C 105.3,111.42406 93.474235,110.90604 83.053856,110.3838 Z M 139.08752,95.038504 c 0.86853,-0.555881 5.47914,-1.39316 10.24581,-1.860617 18.32092,-1.796695 35.19735,-5.944418 34.63077,-8.511218 -1.6683,-7.558205 -86.764319,-12.578124 -113.297434,-6.683555 -4.766667,1.058958 -13.561891,2.853131 -19.544943,3.987052 -12.993226,2.462506 -18.419682,4.865211 -16.138949,7.145945 0.852807,0.852806 2.73796,1.550558 4.189228,1.550558 1.451268,0 4.481268,0.627371 6.733333,1.394156 9.11334,3.102922 35.121976,4.942312 63.182185,4.468388 15.63147,-0.264006 29.13146,-0.934826 30,-1.490709 z M 18.733114,52.2751 C 12.536328,52.059736 6.7608394,51.298108 5.8986954,50.582593 4.8097871,49.678879 4.3823821,43.130621 4.4989138,29.136589 4.6637886,9.3371285 4.7225539,8.9544233 7.9242792,6.8290942 10.711124,4.9791657 16.044512,4.6642056 44.830198,4.6496361 63.336767,4.6402693 78.774649,4.3364608 79.136604,3.974506 79.498559,3.6125513 88.662941,3.8062856 99.501898,4.4050267 114.04336,5.2082932 119.98878,5.0763691 122.1836,3.9017378 c 1.65183,-0.8840289 4.34749,-1.1782704 6.06212,-0.661702 1.69819,0.5116138 18.48244,1.4044471 37.29833,1.9840741 39.11947,1.2050819 41.67075,1.8564554 44.84392,11.4492381 3.18564,9.630449 2.01416,28.226488 -1.98736,31.547455 -1.25941,1.045224 -8.88553,1.709545 -22.16043,1.930426 -11.13209,0.185227 -30.50833,0.652974 -43.05829,1.039436 -26.01217,0.801019 -28.84747,0.08161 -26.45787,-6.713186 1.16586,-3.315078 2.23,-3.911379 8.62167,-4.83123 4.01041,-0.577153 21.99824,-1.483667 39.97297,-2.014476 L 198,36.666668 l 0.39466,-9.01831 c 0.3377,-7.716388 0.0489,-9.12596 -2,-9.763997 C 195.0776,17.474233 193.1,16.705514 192,16.176098 c -1.1,-0.529418 -10.4,-0.876774 -20.66667,-0.771903 -10.26667,0.104867 -22.62051,-0.302368 -27.45297,-0.904973 -5.42204,-0.676124 -11.80369,-0.553132 -16.66667,0.321212 -9.39928,1.68995 -16.81633,1.567868 -17.96811,-0.29575 -0.45969,-0.743801 -2.87801,-1.331135 -5.37403,-1.305186 -2.49602,0.02595 -20.138218,0.325224 -39.204884,0.665057 -19.066667,0.339833 -37.839182,0.654832 -41.716701,0.699996 l -7.050035,0.08212 0.383368,12.333334 0.383368,12.333333 h 39.768209 c 37.825281,0 39.860961,0.126454 41.666666,2.588174 1.044152,1.423495 1.898457,3.881247 1.898457,5.461671 0,2.810369 -0.578528,2.896329 -26.333332,3.912668 -33.573264,1.324872 -41.11862,1.459376 -54.933552,0.979253 z M 114.30555,13.861111 c -0.44305,-0.443055 -1.59305,-0.490424 -2.55555,-0.105267 -1.06365,0.425635 -0.7477,0.741578 0.80555,0.805556 1.40556,0.05789 2.19306,-0.257237 1.75,-0.700293 z"
       id="path799" />
  </g>
</svg>
