<?xml version="1.0" encoding="UTF-8" standalone="no"?>
<!-- Created with Inkscape (http://www.inkscape.org/) -->

<svg
   version="1.1"
   id="svg205"
   width="210.66667"
   height="217.33333"
   viewBox="0 0 210.66667 217.33333"
   xmlns="http://www.w3.org/2000/svg"
   xmlns:svg="http://www.w3.org/2000/svg">
  <defs
     id="defs209" />
  <g
     id="g211">
    <path
       style="fill:#000000;stroke-width:1.33333"
       d="m 6.5122454,204.86021 c -1.1432161,-2.50909 -0.8696408,-4.23933 1.3619185,-8.61356 1.5358765,-3.01056 2.7925031,-6.15721 2.7925031,-6.99256 0,-3.28608 9.777299,-17.25409 12.077476,-17.25409 2.959328,0 9.769791,8.47529 13.393776,16.66792 2.508468,5.6708 2.942935,6.03721 4.976451,4.1969 1.225417,-1.10898 3.391829,-5.01538 4.814247,-8.68088 6.467392,-16.6661 10.084649,-16.07708 22.128927,3.60347 3.236422,5.28837 4.667434,4.8164 8.375333,-2.76227 C 80.329713,177.0603 84.541219,172 87.273236,172 c 1.843617,0 6.665659,5.66958 12.777654,15.02353 l 3.28244,5.02352 2.99338,-3.69019 c 1.64636,-2.02961 2.99636,-4.08636 3,-4.57054 0.004,-0.48419 1.6132,-3.33419 3.5768,-6.33334 4.92793,-7.52677 7.82348,-7.13526 14.42983,1.95107 2.93333,4.03449 6.28616,8.61452 7.45073,10.17784 2.86221,3.84225 4.57321,2.4522 9.30265,-7.55767 4.51092,-9.54738 6.74616,-11.9171 10.18263,-10.79528 2.41447,0.7882 7.35859,7.3778 11.06828,14.75202 3.30565,6.57104 6.03548,5.82304 10.56624,-2.89523 4.69393,-9.03228 7.17892,-12.41907 9.11221,-12.41907 1.83352,0 13.65059,15.95128 13.65059,18.42628 0,1.0591 1.26039,3.96499 2.80087,6.45754 1.85293,2.9981 2.52122,5.6461 1.9746,7.82405 -1.65072,6.57701 -7.1884,2.54031 -13.31752,-9.70787 -1.92658,-3.85 -4.31888,-7 -5.31622,-7 -0.99734,0 -3.16322,3.13788 -4.81308,6.97308 -7.55798,17.56902 -13.05605,17.22908 -22.54121,-1.39365 -1.61185,-3.16465 -3.64843,-5.53768 -4.52571,-5.27339 -0.87729,0.26428 -3.73876,4.65355 -6.35882,9.75391 -4.49236,8.74508 -5.02408,9.27339 -9.33334,9.27339 -4.20551,0 -4.89612,-0.61488 -8.66834,-7.71782 -4.66297,-8.78018 -7.7155,-12.2997 -9.63749,-11.11185 -0.72903,0.45056 -2.3957,3.79535 -3.70374,7.43287 -2.30104,6.39898 -7.44004,13.3968 -9.83824,13.3968 -3.39695,0 -6.07431,-2.52595 -11.520477,-10.86895 -3.326777,-5.09631 -6.627261,-8.81915 -7.396902,-8.34349 -0.764359,0.4724 -3.082622,4.63202 -5.151698,9.2436 -5.980568,13.32956 -10.299333,13.11997 -19.480963,-0.9454 -6.936733,-10.6264 -7.360285,-10.57803 -13.133089,1.50008 -2.116794,4.42884 -4.970826,8.40858 -6.342292,8.84386 -3.099787,0.98384 -8.275159,-2.29585 -11.227435,-7.11494 C 25.165275,190.56925 23.201759,188.0175 21.666667,188.0091 20.75,188.00377 20,188.91994 20,190.04432 c 0,1.12438 -1.578686,5.17438 -3.508193,9 -4.882348,9.6802 -7.5187987,11.21668 -9.9795616,5.81589 z M 69.22027,138.01944 c -1.895518,-1.03058 -5.724092,-5.50656 -8.507941,-9.94661 C 57.928481,123.63277 55.136902,120 54.508822,120 c -0.62808,0 -3.257049,4.2 -5.842155,9.33333 -3.925181,7.79437 -5.247057,9.33333 -8.016762,9.33333 -3.954243,0 -6.597152,-2.45954 -12.603737,-11.72928 C 25.573768,123.12182 22.846916,120 21.986498,120 c -0.860419,0 -2.28171,2.39417 -3.158426,5.32039 C 16.279339,133.8273 7.9945067,134.35032 8.0625703,126 c 0.01196,-1.46667 2.2527667,-6.86667 4.9795827,-12 5.871598,-11.0535 8.806579,-12.28827 14.535449,-6.11516 2.065652,2.22583 5.238047,6.48082 7.049767,9.45554 3.400149,5.5828 6.241249,6.38589 8.229721,2.32628 0.628601,-1.28333 1.746611,-3.38333 2.484465,-4.66666 0.737855,-1.28334 2.348983,-4.28334 3.580283,-6.66667 3.453164,-6.68402 7.431219,-5.87153 13.056374,2.66667 6.156216,9.34427 8.06871,11.66666 9.607529,11.66666 0.710468,0 2.665407,-2.93279 4.344307,-6.51731 4.284461,-9.1475 8.867987,-13.86299 11.898527,-12.2411 2.56802,1.37437 8.122484,9.0982 11.021883,15.32663 2.696992,5.79362 4.676682,5.59013 7.922032,-0.81431 1.60364,-3.16465 4.68301,-7.99978 6.84306,-10.74474 3.464,-4.40202 4.26892,-4.81442 6.82257,-3.49552 3.37607,1.74365 7.61633,6.40897 12.36839,13.60824 3.25904,4.93738 3.47351,5.038 5.95383,2.79335 1.41514,-1.2807 2.573,-2.80546 2.573,-3.38838 0,-2.48729 8.32648,-13.11744 10.91934,-13.94039 3.16647,-1.00499 4.84215,0.72708 12.02323,12.42785 2.36768,3.85787 4.9242,6.81471 5.68115,6.57076 0.75696,-0.24396 3.48106,-4.2931 6.05358,-8.9981 2.57252,-4.70501 5.62492,-8.73705 6.78314,-8.9601 3.12669,-0.60215 7.91226,3.84258 12.04962,11.1914 9.611,17.0712 9.48056,16.7435 7.9777,20.04194 -0.78683,1.72688 -2.33763,3.13978 -3.44623,3.13978 -2.36716,0 -11.29368,-11.67719 -11.34181,-14.83674 -0.0181,-1.19354 -0.85344,-2.85094 -1.85615,-3.6831 -2.22816,-1.84921 -3.19915,-0.79372 -7.9148,8.6036 -4.01037,7.99183 -6.60241,10.43671 -9.86479,9.30475 -2.53292,-0.87885 -8.21129,-7.73705 -12.56401,-15.17448 -3.11688,-5.32578 -4.54085,-4.58525 -9.09508,4.72981 -4.14307,8.4741 -6.5276,11.05616 -10.21036,11.05616 -2.94219,0 -9.8612,-7.20198 -9.8612,-10.26449 0,-1.7455 -6.1644,-8.40217 -7.78083,-8.40217 -0.68282,0 -1.62125,1.05 -2.0854,2.33333 -0.46415,1.28333 -2.55118,5.33333 -4.63784,9 -5.56912,9.78603 -12.22197,9.26159 -17.927071,-1.41319 -1.152309,-2.15608 -3.518001,-5.65514 -5.257093,-7.7757 l -3.161984,-3.85557 -2.373468,5.1889 c -8.433232,18.43679 -7.955996,17.94885 -14.222714,14.54167 z M 63.334881,59.925722 C 54.850401,57.366872 54.078372,51.856449 60.172294,37.352477 67.234802,20.543205 71.155166,15.931332 84.040909,9.273704 88.811423,6.8089416 92.127536,6.1957152 100.66667,6.1992159 c 9.28694,0.00381 11.70146,0.5354228 18.66667,4.1099231 11.56669,5.935955 18.38849,14.038681 24.10922,28.636227 5.13388,13.100072 3.66363,19.536085 -4.5378,19.864169 -22.93366,0.917423 -37.11469,0.466312 -39.188432,-1.246616 -1.25602,-1.037485 -3.292817,-1.499091 -4.526217,-1.025792 -1.233399,0.4733 -6.505746,1.448489 -11.716327,2.167087 -5.21058,0.718597 -10.973783,1.558736 -12.807116,1.866974 -1.833334,0.30824 -5.132638,0.01777 -7.331787,-0.645466 z M 89.928299,45.449349 c 1.552516,-2.512022 10.686981,-2.920578 16.738371,-0.748655 4.53218,1.626659 8.36482,1.939623 15.66667,1.279299 C 127.65,45.499194 132,44.625891 132,44.039319 c 0,-4.38089 -9.95538,-18.705875 -13,-18.705947 -0.91666,-2.2e-5 -1.66666,-0.584631 -1.66666,-1.299132 0,-2.53796 -8.73296,-5.760604 -15.9785,-5.896399 -6.352296,-0.119053 -8.485473,0.566281 -15.649383,5.027732 -6.106045,3.802647 -9.008373,6.640147 -11,10.754298 -3.325083,6.868706 -3.455749,11.021859 -0.372122,11.827694 4.324825,1.130196 14.836388,0.929188 15.594964,-0.298216 z"
       id="path233" />
  </g>
</svg>
