<?xml version="1.0" encoding="UTF-8" standalone="no"?>
<!-- Created with Inkscape (http://www.inkscape.org/) -->

<svg
   version="1.1"
   id="svg165"
   width="220"
   height="209.33333"
   viewBox="0 0 220 209.33333"
   xmlns="http://www.w3.org/2000/svg"
   xmlns:svg="http://www.w3.org/2000/svg">
  <defs
     id="defs169" />
  <g
     id="g171">
    <path
       style="fill:#000000;stroke-width:1.33333"
       d="m 170.62791,203.53373 c -0.8675,-0.88832 -61.59151,-2.37355 -93.030327,-2.27539 -27.169764,0.0848 -29.183123,-0.53838 -33.646726,-10.41484 l -2.958901,-6.54706 -12.946635,-0.52 C 12.769852,183.16289 8,180.99185 8,174.65265 8,171.48121 9.0704908,170.02434 13.416959,167.28054 19.886368,163.19658 20.085229,159.34908 14,156 c -7.9142652,-4.35572 -4.7830324,-12 4.915411,-12 4.45875,0 6.131172,0.80742 9.666102,4.66666 2.350975,2.56667 4.831896,4.64228 5.51316,4.61248 0.681263,-0.0299 3.315996,-1.8298 5.854962,-4 6.744425,-5.76484 13.296697,-5.22668 16.709209,1.3724 2.365829,4.575 0.796484,7.05339 -6.325511,9.98956 -2.75,1.13375 -5,2.778 -5,3.65391 0,0.87591 2.102824,3.74604 4.672943,6.37808 2.570117,2.63204 5.429235,7.39769 6.353593,10.59035 3.028732,10.46097 5.635764,10.2384 23.640131,-2.01826 5.490049,-3.7374 10.136024,-5.9021 12.675469,-5.90588 2.204842,-0.003 5.98055,-0.57146 8.390461,-1.26261 5.32612,-1.52752 18.61419,0.43864 26.2674,3.88661 2.93334,1.32155 8.43619,3.3241 12.22858,4.45011 3.79238,1.12601 8.18506,2.73759 9.7615,3.58128 4.61995,2.47252 17.40068,5.43859 23.26095,5.39824 2.9786,-0.0205 12.90052,0.264 22.04869,0.63224 18.75614,0.75497 21.2019,1.80332 19.07727,8.17721 -1.15611,3.46832 -1.83432,3.8055 -7.82143,3.88856 -3.60556,0.05 -12.85556,0.55763 -20.55556,1.12804 -7.7,0.5704 -14.31744,0.71204 -14.70542,0.31475 z M 115.33333,187.9235 c -7.41733,-1.53422 -12.66666,-1.50252 -12.66666,0.0765 0,0.77234 3.78666,1.26882 9,1.18 8.33496,-0.142 8.6059,-0.23484 3.66666,-1.2565 z M 80,135.29502 c -8.433333,-0.93732 -18.033333,-2.60406 -21.333333,-3.70386 -3.3,-1.0998 -10.5,-3.04608 -16,-4.32506 C 32.5963,124.92433 18.620683,119.88386 11.472418,116.01554 1.9006121,110.8357 5.4360356,103.92584 20.666667,98.045696 25.8,96.06385 31.8,93.672045 34,92.730572 c 4.684733,-2.004796 20.34422,-5.518549 32.666667,-7.329909 4.766666,-0.700684 14.966666,-2.260515 22.666666,-3.466291 10.938477,-1.7129 18.810977,-2.006439 35.999997,-1.342315 12.1,0.467502 24.7,1.463122 28,2.212491 3.3,0.749368 8.7,1.856895 12,2.461169 14.19104,2.598574 24.22298,5.960066 42.30022,14.173913 7.2076,3.27495 9.07241,6.19644 8.14362,12.75808 -1.10658,7.81774 -38.2475,18.23319 -82.44384,23.11978 -21.0112,2.32311 -32.27253,2.31836 -53.33333,-0.0224 z m 54.75144,-13.29035 c 8.38671,-1.09744 18.24856,-2.5781 21.91523,-3.29036 3.66666,-0.71226 11.76666,-2.29166 18,-3.50978 6.23333,-1.21813 12.96402,-2.50273 14.9571,-2.85469 1.99308,-0.35195 4.29678,-1.45082 5.11931,-2.44192 1.16759,-1.40684 0.63147,-2.3253 -2.44477,-4.1883 -3.44432,-2.08592 -11.09099,-3.71873 -45.824,-9.78489 -12.87288,-2.248263 -35.93829,-2.889985 -47.140977,-1.311545 -5.866666,0.826603 -14.266666,1.691491 -18.666666,1.921972 -4.4,0.23048 -11.9,1.356181 -16.666667,2.501559 -4.766667,1.145374 -14.223852,3.397344 -21.015968,5.004384 -6.792116,1.60703 -12.635509,3.38498 -12.985319,3.95098 -1.279652,2.07052 3.266062,4.11325 13.512899,6.07237 5.768613,1.10291 12.888388,2.65528 15.821721,3.4497 21.386219,5.79192 51.654197,7.59011 75.418107,4.48052 z M 73.097557,64.653112 C 72.824491,64.380046 67.703229,63.866998 61.716975,63.513006 53.1673,63.007428 49.957132,62.221918 46.749772,59.850614 44.504064,58.19029 42.666667,56.023568 42.666667,55.035676 c 0,-0.98789 -0.969006,-3.275055 -2.153347,-5.082587 -2.022232,-3.086316 -2.877283,-3.286423 -14.042825,-3.286423 -15.212986,0 -21.1371617,-2.191713 -21.1371617,-7.819925 0,-3.004463 1.2487984,-4.945063 5.1918727,-8.068036 2.85553,-2.261621 5.85553,-4.112039 6.666666,-4.112039 3.913884,0 -0.603283,-5.912477 -5.436339,-7.115573 C 7.196478,18.416205 5.7960429,14.194 8.5729625,9.955885 12.974015,3.2390302 20.340365,4.6580027 28.055355,13.708758 l 3.388689,3.975403 3.956397,-3.956397 c 7.654495,-7.6544946 13.382767,-8.0912516 18.3776,-1.401216 3.584868,4.801541 1.528343,9.752605 -4.723894,11.372722 -6.303563,1.633418 -6.254088,4.93591 0.162689,10.859847 3.229159,2.981142 5.449831,6.23703 5.449831,7.99039 0,5.425984 2.424892,8.117159 7.313992,8.117159 2.504425,0 5.033314,-0.771573 5.619754,-1.714608 1.035015,-1.664373 12.735583,-9.671387 18.664239,-12.77244 C 89.412479,34.53311 99.48646,32.906554 106,32.993129 c 5.45623,0.07252 17.92927,2.87501 21.99866,4.942744 6.31301,3.207746 15.09159,5.788568 34.00134,9.996061 2.93333,0.652679 14.63333,1.526476 26,1.941771 l 20.66667,0.755082 0.40533,3.851697 c 0.85464,8.121095 0.50709,8.182132 -46.83391,8.22534 -42.25324,0.03856 -84.100385,0.973791 -87.107735,1.946739 -0.844972,0.273368 -1.759731,0.273616 -2.032798,5.49e-4 z M 102.66667,49.333333 c 0,-0.733334 -0.56459,-1.333334 -1.25465,-1.333334 -0.69005,0 -1.625461,0.6 -2.078687,1.333334 -0.453225,0.733333 0.11136,1.333333 1.254647,1.333333 1.14328,0 2.07869,-0.6 2.07869,-1.333333 z m 10,0 c -0.45323,-0.733334 -1.98864,-1.333334 -3.41203,-1.333334 -1.42338,0 -2.58797,0.6 -2.58797,1.333334 0,0.733333 1.53541,1.333333 3.41202,1.333333 1.93516,0 3.05534,-0.577123 2.58798,-1.333333 z"
       id="path938" />
  </g>
</svg>
