<?xml version="1.0" encoding="UTF-8" standalone="no"?>
<!-- Created with Inkscape (http://www.inkscape.org/) -->

<svg
   version="1.1"
   id="svg75"
   width="232"
   height="216"
   viewBox="0 0 232 216"
   xmlns="http://www.w3.org/2000/svg"
   xmlns:svg="http://www.w3.org/2000/svg">
  <defs
     id="defs79" />
  <g
     id="g81">
    <path
       style="fill:#000000;stroke-width:1.33333"
       d="M 13.765981,207.86736 C 7.1568436,205.95445 6.7744105,202.52092 7.7324336,153.6974 8.0983585,135.04885 7.4934372,135.40911 37.813277,135.783 c 12.569364,0.15501 23.890007,0.60343 25.156983,0.99649 3.002509,0.9315 4.83646,8.33876 4.832776,19.51943 -0.0016,4.93107 0.277088,9.43107 0.619361,10 0.833887,1.38609 -1.10862,37.49841 -2.068709,38.45851 -3.691667,3.69166 -42.623209,5.994 -52.587707,3.10993 z m 35.567352,-10.38787 c 4.998447,-1.38161 6.505763,-7.72004 6.591411,-27.71758 0.09557,-22.31419 0.539148,-21.76891 -17.686649,-21.7415 -7.464286,0.0107 -14.364819,0.52347 -15.334519,1.13828 -3.012097,1.90979 -3.957804,10.06696 -3.234548,27.89952 l 0.696375,17.16978 9.483965,2.0725 c 10.52574,2.30018 14.547349,2.54352 19.483965,1.179 z m 90.742347,-2.0656 c -2.90371,-3.09085 -2.91297,-3.23629 -0.78199,-12.2709 4.75031,-20.13956 4.65232,-19.92383 11.84094,-26.06975 9.67722,-8.27357 19.1498,-12.00376 30.93852,-12.18321 8.3901,-0.12774 10.64446,0.40857 18.51917,4.40557 13.80824,7.00869 22.06192,17.74475 26.69109,34.71872 1.53204,5.61759 0.5834,11.88829 -1.82049,12.03391 -15.32328,0.92818 -26.17897,1.31702 -51.62248,1.84904 l -30.82623,0.64456 z m 62.36935,-12.37604 c 4.89709,-2.47304 5.01992,-4.01632 1.14374,-14.37118 -1.62141,-4.33148 -3.33569,-6.01142 -9.12594,-8.9431 -9.5488,-4.83468 -16.36462,-4.79757 -25.39635,0.13824 -5.88951,3.21862 -7.89927,5.36202 -12.06648,12.86891 -7.7726,14.00168 -8.71297,13.32717 17.99955,12.91057 18.38904,-0.2868 23.89164,-0.80876 27.44548,-2.60344 z M 82.666667,60.628367 c -8.433334,-0.937332 -18.033334,-2.604076 -21.333334,-3.703876 -3.3,-1.0998 -10.5,-3.046072 -16,-4.325051 C 35.262967,50.257663 21.287349,45.217195 14.139085,41.348873 4.5672788,36.169039 8.1027023,29.259176 23.333333,23.379031 28.466667,21.397185 34.466667,19.00538 36.666667,18.063907 41.3514,16.059111 57.010887,12.545357 69.333333,10.733997 74.1,10.033313 84.3,8.4734821 92,7.2677072 102.93847,5.5548064 110.81097,5.261268 128,5.9253916 c 12.1,0.4675015 24.7,1.4631223 28,2.2124907 3.3,0.7493684 8.7,1.856895 12,2.4611707 14.19104,2.598572 24.22297,5.960064 42.30021,14.173912 7.2076,3.27495 9.07242,6.196436 8.14363,12.758084 -1.10659,7.817739 -38.24751,18.233188 -82.44384,23.119772 -21.0112,2.323111 -32.27254,2.31837 -53.333333,-0.02245 z M 137.41811,47.338001 c 8.3867,-1.097433 18.24856,-2.578092 21.91522,-3.290352 3.66667,-0.712261 11.76667,-2.291665 18,-3.509788 6.23334,-1.218121 12.96403,-2.50273 14.95711,-2.854685 1.99308,-0.351955 4.29677,-1.45082 5.11931,-2.441923 1.16758,-1.406842 0.63146,-2.325294 -2.44478,-4.188296 -3.44432,-2.085918 -11.09098,-3.718729 -45.824,-9.784892 C 136.26809,19.019801 113.20269,18.37808 102,19.95652 c -5.866667,0.826603 -14.266667,1.691491 -18.666667,1.921972 -4.4,0.23048 -11.9,1.356181 -16.666666,2.501559 -4.766667,1.145376 -14.223852,3.397348 -21.015968,5.004384 -6.792116,1.607034 -12.63551,3.384977 -12.985319,3.950981 -1.279652,2.070519 3.266061,4.113252 13.512899,6.072369 5.768613,1.102915 12.888388,2.65528 15.821721,3.4497 21.386219,5.791924 51.65419,7.590115 75.41811,4.480516 z"
       id="path1077" />
  </g>
</svg>
