<?xml version="1.0" encoding="UTF-8" standalone="no"?>
<!-- Created with Inkscape (http://www.inkscape.org/) -->

<svg
   version="1.1"
   id="svg253"
   width="214.66667"
   height="216"
   viewBox="0 0 214.66667 216"
   xmlns="http://www.w3.org/2000/svg"
   xmlns:svg="http://www.w3.org/2000/svg">
  <defs
     id="defs257" />
  <g
     id="g259">
    <path
       style="fill:#000000;stroke-width:1.33333"
       d="m 124.53337,209.07556 c -1.92273,-3.71813 -2.10129,-7.81604 -1.40889,-32.33333 0.43609,-15.44156 0.81148,-28.18271 0.8342,-28.31366 0.0227,-0.13093 0.98418,-1.18096 2.13656,-2.33333 2.54852,-2.54852 7.22454,-2.70743 10.4419,-0.35484 2.10633,1.5402 2.46266,4.87625 3.09757,29 0.96545,36.68372 1.05327,34.79232 -1.70929,36.81235 -1.3393,0.97932 -4.405,1.78058 -6.81268,1.78058 -3.57433,0 -4.7816,-0.78126 -6.57937,-4.25777 z M 196,209.00783 c -4.80353,-2.22307 -13.27462,-8.69754 -18.616,-14.22823 -13.93221,-14.42601 -16.18112,-36.12613 -4.65505,-44.91749 6.40325,-4.88402 14.07025,-6.17676 18.89285,-3.18559 7.93122,4.91927 10.0035,8.51085 10.13748,17.56983 0.1048,7.08542 -0.44194,9.23424 -3.44878,13.55442 -4.09794,5.88788 -5.96704,13.65994 -4.02827,16.75022 1.30521,2.08042 4.27603,3.32869 11.23737,4.7217 4.32275,0.865 5.41662,3.337 3.33486,7.53628 -1.81867,3.66858 -7.55755,4.65026 -12.85446,2.19886 z m -10.0749,-33.43079 c 2.35009,-11.48813 2.33049,-12.26577 -0.37074,-14.71035 -5.21257,-4.7173 -10.65569,1.52916 -8.85617,10.16327 2.10808,10.11456 7.54036,12.79161 9.22691,4.54708 z M 18.273775,203.41663 c -4.614747,-4.61475 -4.059387,-11.40042 2.352981,-28.74996 6.410664,-17.34494 28.31113,-27.49563 48.88512,-22.65787 9.865499,2.31977 12.805211,4.01996 20.488125,11.84933 8.794522,8.96218 16.833059,27.98283 14.685619,34.74883 -1.22887,3.87181 -9.584623,5.65685 -25.248527,5.39384 -7.390401,-0.12413 -23.664795,0.20441 -36.165319,0.73 -20.415688,0.85837 -22.959171,0.72465 -24.997999,-1.31417 z m 63.392893,-13.40624 c 6.26962,-0.80495 7.666667,-1.4417 7.666667,-3.49427 0,-4.27956 -8.934663,-15.20303 -16.05587,-19.62981 -12.574211,-7.81656 -27.555807,-4.7694 -38.252828,7.78036 -4.126622,4.84136 -6.896307,14.432 -4.580622,15.86138 1.786192,1.10256 41.748703,0.6987 51.222653,-0.51766 z M 35.532655,58.310625 c -1.270697,-0.929156 -3.050445,-3.173841 -3.954996,-4.988189 -2.189144,-4.390988 -5.788741,-4.88194 -9.592653,-1.308349 -2.605963,2.448174 -4.007344,2.770568 -8.640558,1.98779 C 6.8652538,52.907225 5.5194196,50.616181 8.5966933,45.919668 10.7519,42.630407 10.695192,42.384528 6.743295,37.883567 4.5011495,35.329904 2.6666667,32.330832 2.6666667,31.218961 c 0,-1.11187 2.2147367,-4.050548 4.9216372,-6.530396 4.3067481,-3.9455 4.7457561,-4.894849 3.5138641,-7.598689 C 7.440577,9.0531669 15.89789,4.6324013 21.80234,11.496734 c 4.232335,4.920383 10.201666,3.588511 13.331335,-2.9744741 1.865946,-3.9129275 2.847023,-4.6255711 5.886078,-4.2755836 2.838357,0.3268742 3.979493,1.4546377 5.146977,5.086657 1.31414,4.0882617 2.111549,4.7186987 6.433637,5.0864667 3.903125,0.332119 5.595545,-0.294476 8.102939,-3 3.321096,-3.5835216 4.391504,-3.9392855 7.854312,-2.6104816 1.515348,0.5814936 2.10905,2.5998846 2.10905,7.1700736 0,3.892363 0.740748,6.975521 1.908818,7.944935 4.128815,3.426612 41.202764,-0.196536 65.424514,-6.393782 16.75802,-4.287612 42.8628,-3.509378 61.21188,1.824844 8.4513,2.45686 10.3339,5.693828 7.41287,12.745811 -1.62588,3.925217 -11.93344,10.565467 -16.40061,10.565467 -1.02548,0 -3.49098,1.279372 -5.47887,2.843049 -3.30567,2.600245 -4.65901,2.770148 -15.84648,1.989424 -6.72767,-0.469495 -15.53212,-1.378516 -19.56545,-2.020047 C 145.3,44.837561 131.1633,43.049392 117.91844,41.505384 80.080528,37.094459 70.399617,38.668047 68.951477,49.464735 c -0.827716,6.171084 -2.489539,7.817684 -7.920739,7.848181 -2.440972,0.01371 -4.368674,-1.097893 -5.865472,-3.382295 -2.742131,-4.18502 -8.877841,-4.140676 -9.599677,0.06938 -0.487154,2.841285 -3.768139,6 -6.232255,6 -0.819676,0 -2.529981,-0.760219 -3.800679,-1.689375 z M 50.666667,36.868211 c 3.321055,-1.4063 3.31709,-1.413287 -1.076452,-1.896702 -5.20768,-0.572993 -7.078521,-3.919008 -3.609498,-6.45562 2.258254,-1.651276 2.18061,-1.853888 -1.203494,-3.140522 -6.604628,-2.511075 -8.854318,-1.831246 -8.518632,2.57423 0.197611,2.593407 -0.755205,5.073822 -2.77486,7.223646 l -3.075808,3.274048 3.129372,0.57377 c 4.072199,0.746639 12.903134,-0.363249 17.129372,-2.15285 z m 124.502393,-5.93573 c 1.0656,-1.724185 -10.64483,-4.616921 -14.0755,-3.476961 -3.32012,1.103224 -4.66586,1.296187 -11.50558,1.649747 -2.55606,0.132133 -4.06538,0.788948 -3.58798,1.5614 0.9772,1.58114 28.2028,1.829244 29.16906,0.265814 z"
       id="path436" />
  </g>
</svg>
