<?xml version="1.0" encoding="UTF-8" standalone="no"?>
<!-- Created with Inkscape (http://www.inkscape.org/) -->

<svg
   version="1.1"
   id="svg243"
   width="1182.6667"
   height="292"
   viewBox="0 0 1182.6667 292"
   xmlns="http://www.w3.org/2000/svg"
   xmlns:svg="http://www.w3.org/2000/svg">
  <defs
     id="defs247" />
  <g
     id="g249">
    <path
       style="fill:#000000;stroke-width:1.33333"
       d="m 155.33334,284 -10.66667,-0.66667 v -5.18406 -5.18408 L 158,273.46653 c 13.5594,0.50986 157.93533,0.53574 171.33334,0.0307 4.03334,-0.15204 25.63334,-0.26501 48,-0.25108 22.36667,0.014 95.86667,0.008 163.33334,-0.012 67.46667,-0.0208 139.16667,-0.0148 159.33334,0.0133 20.16667,0.0283 60.66667,-0.2261 90,-0.56518 40.87951,-0.47255 231.97148,-0.8616 251.33338,-0.51171 1.8333,0.0331 7.2333,-0.61087 12,-1.43109 4.7666,-0.82023 12.7351,-2.03748 17.7076,-2.70499 13.1495,-1.76519 13.5206,-1.88665 31.6257,-10.35123 14.0885,-6.58674 29.0659,-20.77173 35.7896,-33.89613 2.3819,-4.64932 5.1646,-9.95332 6.1839,-11.78665 8.9009,-16.01018 13.4673,-44.77172 12.0472,-75.88051 -1.5827,-34.67141 -7.7309,-59.125988 -18.2167,-72.456832 -2.1649,-2.752203 -4.6564,-6.652203 -5.5367,-8.666667 -4.892,-11.194688 -23.2115,-25.136328 -39.0913,-29.74998 -10.5996,-3.079552 -30.6979,-6.547944 -43.0464,-7.428544 -9.9305,-0.708174 -13.4629,-2.234688 -13.4629,-5.817937 0,-4.8093495 4.6597,-5.7790573 23.4415,-4.8782977 12.2985,0.5898269 19.7072,1.6200216 24.7259,3.4381877 3.9413,1.427811 11.31,3.833745 16.3749,5.346518 9.6482,2.881687 21.3629,9.519596 22.6307,12.823216 0.4088,1.065373 1.8121,1.939329 3.1185,1.942123 2.9369,0.0063 12.0958,11.562504 21.3693,26.962568 3.8532,6.398873 7.0058,11.955412 7.0058,12.347865 0,2.484675 5.9411,12.684487 7.3883,12.684487 1.7843,0 1.7779,-22.640868 -0.016,-58 -0.3721,-7.333334 -0.1744,-14.120865 0.4393,-15.0834033 1.5099,-2.3681785 9.4886,-2.4579469 10.9425,-0.1231146 1.0224,1.6417909 0.5481,191.0506009 -0.6201,247.6776909 -0.4476,21.69253 -0.7917,22.79839 -7.1083,22.84175 -2.117,0.0145 -3.2312,-1.00222 -3.8649,-3.52678 -0.9735,-3.87874 0.4759,-64.71633 1.7341,-72.78614 1.6539,-10.60764 -2.4535,-4.60531 -10.9857,16.05405 -1.2995,3.14639 -4.3605,7.83911 -6.8024,10.42827 -2.4419,2.58914 -4.4398,5.47854 -4.4398,6.42088 0,0.94233 -2.0967,4.45933 -4.6594,7.81557 -7.6177,9.97653 -35.7472,27.11451 -54.1586,32.99623 -10.7523,3.43493 -28.4913,4.70321 -37.0534,2.64918 -5.3886,-1.29269 -7.2699,-1.29678 -8.8094,-0.0191 -1.5134,1.25596 -47.26826,1.74682 -201.63838,2.16316 -109.82446,0.29614 -269.58084,0.88518 -355.01417,1.30893 -227.56196,1.12875 -314.00919,1.2656 -326.00031,0.51616 z m -36.80221,-1.91332 c -0.319,-0.319 -8.66681,-2.18221 -18.550706,-4.14048 -18.178196,-3.6016 -25.507055,-6.35167 -32.491795,-12.19215 -2.11459,-1.76816 -6.01459,-4.34254 -8.666667,-5.72085 -2.652079,-1.37829 -7.821961,-6.1868 -11.488627,-10.68557 -3.666667,-4.49878 -8.838111,-10.6924 -11.492098,-13.7636 C 30.04091,228.87184 17.664563,200.26291 13.525775,184 11.939437,177.76667 10.057579,166.96667 9.3438679,160 3.8618172,106.4887 14.671135,67.928828 43.085112,39.635519 49.583048,33.165177 57.488847,26.68708 60.768778,25.145331 64.031316,23.611757 67.028426,21.826687 67.429023,21.178508 67.829619,20.530328 69.424726,20 70.973703,20 c 1.548979,0 3.763568,-0.823789 4.921311,-1.830643 2.411568,-2.097264 17.456025,-6.860406 27.755316,-8.7874555 11.74907,-2.1983104 36.61617,-3.1080806 37.68498,-1.3787159 0.99157,1.604414 211.66741,1.9757233 383.99804,0.6767843 77.34508,-0.5829872 220.80594,-1.4701767 425.80078,-2.633234 75.95007,-0.4309098 78.54967,-0.362963 81.03057,2.1179269 1.9824,1.9824622 2.2544,3.1398552 1.2006,5.1089292 -1.8943,3.539551 -4.4955,4.112059 -18.838,4.146083 -6.89,0.01635 -16.12727,0.04537 -20.52727,0.06452 -4.4,0.01913 -31.7,-0.0085 -60.66667,-0.06145 -71.71587,-0.131066 -245.21481,1.023594 -300.66668,2.000982 -34.92673,0.615614 -459.70818,1.224826 -480.33334,0.688884 -2.38334,-0.06193 -5.48134,-1.260607 -6.88446,-2.663724 -2.51261,-2.512608 -2.56324,-2.50285 -3.35364,0.646361 -0.91002,3.625836 -6.73341,5.799919 -9.12619,3.40714 -1.81391,-1.813915 -8.45375,-1.935229 -16.04529,-0.293163 -3.07473,0.665072 -10.39042,1.911191 -16.25709,2.769154 -5.866667,0.857962 -13.889173,3.013813 -17.827792,4.790778 C 78.90026,30.546119 75.052789,32 74.288941,32 c -4.824852,0 -28.574569,18.600859 -32.48225,25.440208 -1.572987,2.753093 -4.703805,7.685537 -6.957373,10.960985 -2.253568,3.275448 -5.664527,10.623763 -7.579909,16.329588 -2.907734,8.661987 -3.266134,11.2267 -2.171495,15.539239 1.177775,4.64007 0.955391,5.58765 -2.188057,9.32343 -3.144412,3.73692 -3.547148,5.45488 -3.973327,16.94915 -0.260836,7.03491 0.191979,17.29073 1.006256,22.79073 0.814277,5.5 2.022384,14.03756 2.684683,18.97235 1.43501,10.69229 4.707637,24.14879 7.221676,29.69432 8.17634,18.03559 10.817057,23.35193 13.908082,28 6.252926,9.40272 22.59063,26.58333 27.831399,29.26729 2.792924,1.43035 6.019875,3.37544 7.171002,4.32246 2.803792,2.3066 16.85718,7.07692 20.848655,7.07692 1.754947,0 5.111017,1.00125 7.457937,2.22501 3.19438,1.66565 7.53525,2.19433 17.26712,2.10296 7.15,-0.0671 13,0.29492 13,0.80453 0,0.50962 -1.84368,3.16328 -4.09707,5.89704 -3.40504,4.1309 -4.944,4.97046 -9.11112,4.97046 -2.75772,0 -5.27503,-0.261 -5.59402,-0.57999 z m 196.60325,-34.72957 c -7.79177,-3.5661 -14.44749,-8.84436 -18.21984,-14.44908 -2.06368,-3.06608 -4.82237,-6.7747 -6.13045,-8.24136 -6.10003,-6.83959 -9.39152,-24.15312 -6.46056,-33.98311 4.53733,-15.21747 23.77696,-16.10604 42.34315,-1.95563 4.76666,3.63298 9.56666,7.75576 10.66666,9.16176 3.16606,4.04676 7.84868,11.80632 9.31972,15.44364 0.74146,1.83334 1.94784,4.37519 2.68086,5.64858 3.16353,5.49564 0.48458,18.27389 -5.27832,25.17692 -3.36779,4.03408 -4.09524,4.27524 -14.13638,4.68648 -7.20581,0.29512 -11.92661,-0.18007 -14.78484,-1.4882 z m 22.99896,-9.22378 c 4.04546,-4.04545 4.53334,-5.31465 4.53334,-11.79328 0,-6.15238 -0.77927,-8.46562 -5.10795,-15.16294 -2.80937,-4.34666 -8.92299,-11.09076 -13.5858,-14.98692 -9.33011,-7.79606 -9.70323,-7.85055 -26.07911,-3.80922 -6.28961,1.55219 -6.57764,1.82674 -6.97613,6.64978 -0.22862,2.7669 0.52138,6.90908 1.66666,9.20484 1.14528,2.29576 2.08491,4.83193 2.08806,5.63593 0.003,0.804 2.40411,4.62524 5.33544,8.49164 2.93133,3.8664 6.75867,9.29347 8.50519,12.06013 3.4724,5.50063 8.90036,7.77315 19.28697,8.07488 4.93269,0.1433 6.47789,-0.5094 10.33333,-4.36484 z m 295.81256,7.62207 c -2.49379,-2.49379 -1.59484,-3.98345 7.10954,-11.78144 3.88048,-3.47641 7.879,-7.89271 8.88559,-9.81401 1.0066,-1.92131 5.49198,-7.09328 9.96752,-11.49328 4.47554,-4.4 13.05751,-13.55 19.07106,-20.33334 10.77274,-12.15176 15.29373,-14.87252 17.84736,-10.74065 0.54138,0.87597 0.94378,13.67624 0.89421,28.44503 -0.0977,29.10658 -1.21948,34.54264 -7.41208,35.9178 -1.63665,0.36345 -14.54636,0.90866 -28.68823,1.2116 -21.38512,0.45809 -26.04277,0.2205 -27.67497,-1.41171 z m 43.75269,-5.67596 c 5.70087,-0.51879 10.90795,-1.49888 11.57127,-2.17801 C 691.88289,235.22619 691.71813,196 689.09387,196 c -0.86505,0 -4.30941,3.15 -7.65414,7 -3.34472,3.85 -12.53696,13.31508 -20.42718,21.03352 -7.89022,7.71844 -14.34587,14.79809 -14.34587,15.73259 0,1.19001 1.99275,1.60812 6.65131,1.39556 3.65823,-0.16692 7.09296,0.13816 7.63276,0.67796 0.5398,0.5398 2.19672,0.57681 3.68203,0.0823 1.48532,-0.49456 7.36493,-1.32365 13.06581,-1.84244 z m -214.78291,3.14489 c -2.49913,-1.75046 -2.75921,-3.54558 -3.15307,-21.76364 -0.38113,-17.62957 -0.72825,-20.18638 -3.09593,-22.80429 -3.71653,-4.10932 -14.79291,-11.12688 -22.30737,-14.13309 -4.21072,-1.68454 -6.78966,-3.6858 -7.75822,-6.02047 -1.60028,-3.85736 -0.54593,-19.87909 4.06926,-61.83617 1.45197,-13.2 3.55424,-33.600003 4.67172,-45.333337 C 436.45955,59.6 437.95187,48.65 438.65835,47 c 1.67182,-3.904628 5.43644,-3.815321 11.92857,0.282979 10.98593,6.935117 17.37832,20.704705 18.07171,38.927537 1.09133,28.681354 2.24022,148.800484 1.46285,152.944254 -1.00844,5.37547 -3.4072,6.7302 -7.2058,4.06956 z m -3.64664,-63.55766 c 1.47171,-8.84212 2.03697,-81.428343 0.74457,-95.612255 -1.19448,-13.109239 -3.72248,-20.067462 -9.54086,-26.260844 -4.03638,-4.296527 -6.23346,-3.91791 -7.00078,1.206429 -0.75697,5.055148 -4.22448,43.83534 -6.82532,76.33333 -0.99772,12.46667 -2.2117,24.54336 -2.69776,26.83711 -0.49402,2.33139 -0.22574,5.39988 0.60838,6.95845 1.29912,2.42743 20.69272,16.10458 22.939,16.17751 0.45628,0.0148 1.25402,-2.52307 1.77277,-5.63973 z m -312.1845,58.34261 -2.90718,-2.03625 2.49816,-8.98652 c 3.69391,-13.28792 5.82534,-17.66532 12.03828,-24.7236 8.34703,-9.48272 14.24398,-12.01616 27.95287,-12.00907 10.1467,0.005 12.22675,0.46023 19.8661,4.3454 4.69301,2.38673 10.28816,6.22829 12.43366,8.53681 8.13052,8.74822 15.60996,27.98763 12.52206,32.21059 -1.69932,2.32395 -13.02347,3.82511 -26.48848,3.51136 -18.68644,-0.4354 -22.59191,-0.39747 -38.33749,0.37243 -13.74077,0.67185 -17.18177,0.45722 -19.57798,-1.22115 z m 67.04729,-9.49453 c 4.85055,-2.30174 5.87494,-5.74272 2.53484,-8.51475 -1.1,-0.91292 -2,-2.45657 -2,-3.43033 0,-0.97378 -0.80942,-2.25031 -1.79873,-2.83675 -0.98931,-0.58644 -2.63931,-2.86625 -3.66667,-5.06625 -2.62686,-5.62519 -11.82373,-10 -21.02232,-10 -5.77936,0 -8.91014,0.92565 -15.38415,4.5485 C 162.00091,209.25544 156,217.94413 156,227.53229 v 3.13438 h 26.7985 c 21.89965,0 27.62748,-0.39338 31.33333,-2.15192 z m 691.22465,-18.38516 c -4.9928,-2.23442 -2.20765,-13.90952 5.18357,-21.7292 4.76392,-5.04007 14.68319,-8.67648 25.61824,-9.39168 11.75234,-0.76866 18.51346,0.9717 24.71254,6.36118 2.31226,2.0103 4.73393,3.87447 5.38149,4.1426 2.68099,1.11011 7.08104,9.1856 7.08104,12.99594 0,7.34322 -2.53976,7.94233 -35.64355,8.40796 -16.30394,0.22932 -30.85394,-0.1248 -32.33333,-0.7868 z m 61.02493,-6.60622 c 1.7568,-1.7568 1.688,-2.49281 -0.60005,-6.42048 -4.1168,-7.06685 -12.4152,-10.84256 -25.31872,-11.51982 -6.03897,-0.31696 -12.50255,-0.19415 -14.36349,0.27292 -6.22703,1.56288 -16.76579,12.87325 -16.76579,17.99332 0,2.08966 7.04461,2.55169 31.86523,2.08992 18.33366,-0.3411 23.61468,-0.84771 25.18282,-2.41586 z m -123.14168,-61.03 c -3.80457,-1.03353 -4.24051,-1.79634 -6.17368,-10.80271 -2.15692,-10.04878 -1.86001,-17.67383 0.75437,-19.37365 1.35638,-0.88188 15.05904,-1.66083 31.51294,-1.79138 3.3,-0.0262 15.17961,0.34766 26.39915,0.83077 11.21954,0.48311 21.35941,0.5099 22.53306,0.0595 1.88923,-0.72497 1.83347,-1.15886 -0.48633,-3.78407 -4.53893,-5.13651 -7.11255,-10.084149 -7.11255,-13.673522 0,-2.991267 0.50054,-3.410727 3.63578,-3.046911 2.06741,0.239903 4.23292,1.626999 5.02008,3.21557 2.69976,5.448353 8.03128,12.521563 9.44506,12.530553 0.78883,0.005 2.84342,-1.49089 4.56575,-3.32423 3.78573,-4.029723 6.54319,-4.196381 11.03049,-0.66666 1.86456,1.46666 4.19548,2.66175 5.17982,2.65575 0.98433,-0.006 4.6564,-3.606 8.16016,-8.000001 6.93398,-8.695792 9.55482,-9.741707 11.84046,-4.725258 1.3253,2.908696 0.86858,4.002587 -4.19742,10.053379 -3.1265,3.73425 -5.31423,7.15985 -4.86164,7.61244 0.4526,0.4526 9.07857,0.23301 19.16885,-0.48797 23.37682,-1.67033 56.13822,-1.18571 58.17302,0.86052 0.8969,0.90186 1.38,5.25742 1.1942,10.76574 -0.4337,12.85613 -4.5105,19.45326 -12.6494,20.46944 -9.783,1.22144 -178.81241,1.79616 -183.13217,0.62266 z m 168.09367,-8.39964 C 1017.2,133.91244 1024.25,133.34 1027,132.82164 c 4.8677,-0.91754 5,-1.09603 5,-6.74674 v -5.80426 l -9.0023,-0.90407 c -13.275,-1.33315 -173.23206,0.53508 -177.27038,2.07045 -3.00487,1.14244 -3.30983,1.84415 -2.62784,6.04668 1.5151,9.33654 -4.18683,8.78503 80.80305,7.81542 42.22028,-0.48168 81.56417,-1.02409 87.43087,-1.20539 z M 191.54027,104.68312 c -1.21381,-1.21381 -2.20693,-3.24407 -2.20693,-4.51169 0,-3.331406 -2.67047,-5.504763 -6.76384,-5.504763 -4.63787,0 -14.72907,4.493036 -17.85904,7.951613 -2.71895,3.00441 -8.62806,3.59745 -11.11046,1.11505 -5.56918,-5.569181 5.43583,-15.623135 17.33379,-15.835799 7.4688,-0.133496 15.76182,-2.6806 17.45207,-5.360195 0.73708,-1.168529 0.92017,-3.797929 0.40687,-5.843112 -0.92432,-3.682812 -1.01262,-3.711028 -9.19634,-2.938687 -6.41399,0.605323 -10.05325,0.16009 -16.26305,-1.989642 -10.71511,-3.709398 -11.53923,-4.527402 -11.06602,-10.983938 0.34162,-4.660988 0.88019,-5.516396 3.72562,-5.917446 2.52188,-0.355448 4.4565,0.814184 8,4.836616 4.29316,4.873433 5.34686,5.362241 12.94052,6.003018 7.82972,0.660698 8.38744,0.510726 10.549,-2.836617 7.25461,-11.234361 12.67147,-12.089416 59.85088,-9.447507 1.46667,0.08213 10.77597,-0.287746 20.68736,-0.821945 16.8438,-0.907841 18.38593,-0.784933 23.61355,1.881992 3.07606,1.569296 6.96676,2.862453 8.64597,2.873683 3.78776,0.02533 5.14282,0.976845 8.17762,5.74234 2.3497,3.689684 2.5692,3.745178 11.30253,2.857537 10.80676,-1.098381 19.43948,-4.617153 21.65855,-8.828212 2.03977,-3.870824 3.80958,-5.081952 6.12685,-4.192737 1.91937,0.736532 2.37199,5.419686 0.76716,7.937533 -1.37339,2.154727 -16.01996,8.463121 -19.64933,8.463121 -1.65252,0 -5.15859,0.9 -7.79127,2 -2.63267,1.1 -6.30595,2 -8.16283,2 -4.07784,0 -4.18928,1.136096 -0.69278,7.062218 l 2.68337,4.547978 12.97789,0.774272 c 12.7705,0.761899 13.04722,0.849927 17.31663,5.508655 3.17509,3.464637 4.33873,5.99122 4.33873,9.420634 0,4.07401 -0.42337,4.68624 -3.2406,4.68624 -2.29478,0 -3.36494,-0.83654 -3.66666,-2.86623 -0.23434,-1.57643 -2.12023,-4.126425 -4.19087,-5.666665 -5.14308,-3.825651 -24.60619,-4.169711 -26.42337,-0.467102 -0.62984,1.283334 -1.65683,3.383334 -2.28222,4.666667 -1.70977,3.50863 -12.14942,4.31065 -66.98935,5.14643 -44.24393,0.6743 -48.99882,0.53787 -51,-1.46331 z m 105.99082,-9.453488 c 4.34295,-0.879745 5.64087,-4.964804 3.47901,-10.949921 -1.22376,-3.388039 -1.22381,-4.964619 -2.4e-4,-6.923888 1.257,-2.012776 1.14766,-3.58571 -0.52928,-7.613044 -1.16248,-2.791862 -2.67961,-5.432183 -3.37138,-5.867382 -0.69178,-0.435197 -16.81815,-0.806593 -35.83639,-0.825321 -24.57968,-0.02421 -35.12724,-0.489368 -36.47587,-1.608636 -1.47316,-1.222607 -3.00287,-1.112629 -6.84327,0.491989 C 215.23338,63.070043 209.78095,64 205.83718,64 h -7.17051 v 5.937263 c 0,3.265494 -0.68398,7.438458 -1.51997,9.273254 -1.15763,2.540702 -1.12343,4.293362 0.14344,7.351863 2.40209,5.799157 4.23251,6.912907 9.07752,5.523377 3.05588,-0.876417 4.55875,-0.712694 5.66216,0.616838 0.82616,0.99546 3.40743,2.007194 5.73615,2.248298 7.51498,0.778066 76.11669,1.017792 79.76512,0.278739 z m 326.46893,6.035068 c -5.5,-0.52817 -13.28076,-1.928795 -17.29058,-3.112504 C 602.69963,96.968488 597.89116,96 596.02395,96 c -1.8672,0 -6.38644,-1.101131 -10.04276,-2.446957 -32.39275,-11.923214 -35.31451,-13.331259 -35.31451,-17.018675 0,-3.57616 6.16936,-8.676217 12.66667,-10.47122 3.66667,-1.012985 9.96667,-3.165192 14,-4.782681 4.03333,-1.61749 11.53333,-3.787128 16.66667,-4.82142 5.13333,-1.034292 11.43333,-2.468456 14,-3.187032 C 613.96868,51.600999 649.44398,48 659.93735,48 c 15.79747,0 56.53946,7.280403 74.06267,13.234651 4.4,1.495085 12.04653,4.678914 16.99229,7.075176 8.13612,3.94202 8.99204,4.737685 8.98974,8.35684 -0.003,3.290856 -1.00536,4.590953 -5.65896,7.333333 -3.11103,1.833333 -7.4564,3.729911 -9.6564,4.214616 -2.2,0.484705 -7.3,1.889388 -11.33334,3.121517 -4.03333,1.232128 -10.33333,2.73808 -14,3.346559 -3.66666,0.608479 -10.86666,2.081216 -16,3.272752 -5.13333,1.191535 -13.83333,2.706656 -19.33333,3.366936 -11.52052,1.38304 -45.33576,1.35054 -60,-0.0577 z m 58,-10.703081 c 41.66244,-6.7283 57.50383,-10.522727 59.86213,-14.338555 1.9045,-3.081521 -24.73702,-11.085229 -45.22721,-13.587271 -26.71697,-3.262389 -37.18904,-3.612136 -54.63492,-1.8247 -25.21862,2.583799 -35.08658,4.050596 -43.33334,6.441171 -4.03333,1.169184 -11.13077,2.720005 -15.77208,3.446268 -9.54056,1.492887 -13.96588,3.411572 -13.2045,5.725073 0.28533,0.867018 1.9718,1.7543 3.74769,1.971739 3.00809,0.368309 7.50109,1.743769 13.89556,4.253907 10.76059,4.224049 36.01927,8.032757 64.66667,9.75096 4.03333,0.24191 8.53333,0.557022 10,0.70025 1.46667,0.143228 10.46667,-0.999252 20,-2.538842 z"
       id="path575" />
  </g>
</svg>
