<?xml version="1.0" encoding="UTF-8" standalone="no"?>
<!-- Created with Inkscape (http://www.inkscape.org/) -->

<svg
   version="1.1"
   id="svg233"
   width="213.33333"
   height="58.666668"
   viewBox="0 0 213.33333 58.666668"
   xmlns="http://www.w3.org/2000/svg"
   xmlns:svg="http://www.w3.org/2000/svg">
  <defs
     id="defs237" />
  <g
     id="g239">
    <path
       style="fill:#000000;stroke-width:1.33333"
       d="M 138.66666,52.641724 C 129.78552,49.997366 120.97601,46.823902 118.35142,45.323532 114.33383,43.026837 99.536201,43.76542 93.169489,46.580418 79.501953,52.623429 62.252279,53.87582 51.741761,49.588228 44.569758,46.662528 31.723973,36.843089 28.604945,31.902227 26.848246,29.119438 24.629081,26.353023 23.673465,25.754639 22.717849,25.156254 20.886554,23.016667 19.60392,21 c -2.220176,-3.49075 -6.270587,-5.059457 -6.270587,-2.428572 0,0.680954 -0.941667,2.179764 -2.092595,3.330691 -1.54535,1.545351 -2.7421369,1.74497 -4.5763668,0.76332 C 3.0215808,20.715876 2.2858954,16.825664 4.5398442,11.431206 6.3001848,7.2181172 7.0862562,6.6666668 11.331511,6.6666668 c 2.640503,0 6.721119,1.0154227 9.068035,2.256495 3.262476,1.7252292 7.059864,2.1770602 16.129008,1.9191032 7.01738,-0.199599 13.448065,0.319624 15.745683,1.271328 2.97353,1.231677 5.505899,1.251646 10.804778,0.0852 C 67.593791,11.204951 90.164773,10.606108 128,10.476338 c 54.19641,-0.185887 58.33404,-0.365959 63.0937,-2.7458696 11.56528,-5.7828364 19.97022,-0.4423529 16.9509,10.7705636 -1.79192,6.65469 -4.5787,7.752755 -8.84591,3.485534 -1.82595,-1.825944 -3.82281,-3.319899 -4.43748,-3.319899 -1.32533,0 -8.43268,8.107515 -14.22588,16.227772 -5.92849,8.309921 -18.61253,16.614961 -28.03607,18.356997 -4.21062,0.778377 -7.69549,1.361581 -7.74414,1.296009 -0.0487,-0.06557 -2.78846,-0.923148 -6.08846,-1.905721 z m -57.333328,-9.30839 c 2.208393,-2.660952 -0.678485,-2.660952 -5.333333,0 l -3.333333,1.905506 3.503406,0.04725 c 1.926875,0.02598 4.250341,-0.852759 5.16326,-1.952759 z m 46.893298,-6.011148 c -1.70868,-1.424003 -5.30868,-3.200695 -8,-3.948205 -5.40462,-1.501128 -17.48835,-1.829416 -20.784249,-0.564662 -4.322914,1.658858 -1.828629,2.527771 7.622659,2.65544 5.95037,0.08037 11.25819,0.931732 13.66549,2.191895 2.16487,1.133259 5.43613,2.104156 7.26947,2.15755 l 3.33333,0.09708 -3.1067,-2.589096 z M 83.322723,31.56943 c 3.660832,-1.963187 7.170154,-3.569429 7.798494,-3.569429 0.62834,0 3.205558,-0.979015 5.727149,-2.175588 C 104.06539,22.39971 116.75676,23.944787 132,30.103854 c 15.46372,6.248155 23.24848,6.682098 32.6919,1.822337 7.05148,-3.628817 9.4796,-6.485424 8.24574,-9.70083 -0.72016,-1.87671 -5.01054,-2.161799 -35.21219,-2.339802 -18.91567,-0.111485 -43.692118,-0.473547 -55.058785,-0.80458 -11.366666,-0.331035 -22.466666,-0.646336 -24.666666,-0.700671 -7.464976,-0.184364 -26.10697,1.282219 -26.944501,2.119748 -0.458301,0.458303 -0.135005,0.833278 0.718439,0.833278 0.853442,0 3.858998,2.084493 6.679013,4.632207 8.573539,7.745677 15.25356,10.071328 27.547049,9.590509 8.498115,-0.332376 12.019854,-1.142863 17.322724,-3.98662 z"
       id="path714" />
  </g>
</svg>
