<?xml version="1.0" encoding="UTF-8" standalone="no"?>
<!-- Created with Inkscape (http://www.inkscape.org/) -->

<svg
   version="1.1"
   id="svg223"
   width="141.33333"
   height="193.33333"
   viewBox="0 0 141.33333 193.33333"
   xmlns="http://www.w3.org/2000/svg"
   xmlns:svg="http://www.w3.org/2000/svg">
  <defs
     id="defs227" />
  <g
     id="g229">
    <path
       style="fill:#000000;stroke-width:1.33333"
       d="M 8.3569235,189.79149 C 6.3411213,188.97606 3.544179,179.14956 4.7654395,177.17352 5.2520749,176.38612 5.5545591,162.32789 5.4376267,145.933 5.0977171,98.274878 5.1784605,98.067477 23.333333,99.965229 c 18.817419,1.967011 38.6095,2.657781 40.602016,1.417061 1.599875,-0.99622 2.027776,-7.993016 2.468547,-40.364314 C 66.712661,38.341522 66.399532,19.911897 65.659973,17.233438 62.757897,6.7229846 71.976881,0.16735892 79.325438,7.5159164 81.527107,9.7175858 82.04383,17.387901 80.126026,19.4 c -0.664017,0.696666 -1.542984,13.866666 -1.95326,29.266666 -0.410275,15.4 -1.14889,33.16397 -1.641369,39.47549 -0.707864,9.071877 -0.508199,11.718394 0.95326,12.635184 1.01677,0.63783 13.248674,1.24362 27.182003,1.34619 13.93334,0.10257 26.09216,0.26674 27.0196,0.36481 0.92745,0.0981 2.8752,2.12832 4.32835,4.51166 3.2802,5.37991 3.48876,17.68759 0.74116,43.73669 -1.04829,9.93851 -1.58129,20.49087 -1.18443,23.44967 0.814,6.06878 -1.96688,12.86113 -6.19108,15.12185 -2.15501,1.15333 -3.70557,0.42925 -9.1948,-4.2938 -3.63147,-3.1246 -10.91205,-8.97737 -16.17906,-13.00617 -5.26701,-4.02882 -13.547706,-11.12436 -18.401545,-15.76791 -14.018018,-13.41068 -16.148951,-13.76837 -27.177114,-4.56181 -4.16474,3.47681 -11.904857,9.62148 -17.200257,13.65481 -5.295401,4.03333 -14.351149,11.38333 -20.123883,16.33333 -5.772735,4.95 -10.632618,8.95263 -10.799741,8.89474 -0.167123,-0.0579 -1.0432445,-0.40435 -1.9469365,-0.76991 z M 128.17782,173.66666 C 128.44668,172.38333 128.36666,158.13333 128,142 l -0.66667,-29.33334 -18,-0.81951 c -33.329368,-1.51743 -91.901236,-1.81273 -93.240016,-0.47008 -1.942246,1.94786 -3.559544,63.28959 -1.668653,63.28959 1.762625,0 12.72624,-8.49412 36.552604,-28.31933 l 17.209285,-14.31934 3.867199,1.99981 c 2.126959,1.09989 4.469481,3.12517 5.205605,4.50064 0.736125,1.37546 3.348872,3.68704 5.806105,5.13684 2.457232,1.4498 10.917393,8.26821 18.800361,15.15202 20.11418,17.56475 25.14795,20.40559 26.312,14.84936 z"
       id="path853" />
  </g>
</svg>
