<?xml version="1.0" encoding="UTF-8" standalone="no"?>
<!-- Created with Inkscape (http://www.inkscape.org/) -->

<svg
   version="1.1"
   id="svg213"
   width="217.33333"
   height="224"
   viewBox="0 0 217.33333 224"
   xmlns="http://www.w3.org/2000/svg"
   xmlns:svg="http://www.w3.org/2000/svg">
  <defs
     id="defs217" />
  <g
     id="g219">
    <path
       style="fill:#000000;stroke-width:1.33333"
       d="M 52.890921,218.71256 C 2.6456828,217.89469 6.1428411,218.91044 4.6202179,204.6924 2.7924152,187.62463 3.1532782,187.46331 41.990325,187.98604 c 35.744412,0.48112 44.79028,0.34447 45.827035,-0.69229 0.415243,-0.41524 0.02309,-1.7762 -0.871435,-3.02436 -4.546753,-6.3442 -7.435661,-13.64632 -5.976222,-15.10576 2.466474,-2.46647 8.349994,-0.0864 10.786445,4.36358 1.234117,2.25399 3.164696,5.28842 4.290173,6.74318 2.032477,2.62713 2.081233,2.62442 7.205459,-0.39894 l 5.15913,-3.04396 5.46121,3.01116 5.46121,3.01118 4.99639,-5.75826 c 2.74802,-3.16702 4.99802,-6.10685 5,-6.53293 0.002,-0.42608 1.42861,-1.53733 3.17028,-2.46944 2.41133,-1.29051 3.84249,-1.33305 6,-0.1784 4.1166,2.20313 3.52229,4.73468 -2.69495,11.4796 -3.04056,3.29861 -5.28902,6.23675 -4.99657,6.52919 0.85933,0.85934 19.94574,1.1835 48.32589,0.82077 15.15537,-0.19371 27.00099,0.195 27.71545,0.90947 1.47616,1.47616 1.96368,4.25654 3.14359,17.92808 l 0.88413,10.24456 -3.7721,1.7938 c -2.98679,1.42034 -12.93251,1.70022 -47.77211,1.34434 -51.21353,-0.52314 -53.37308,-0.52166 -58.66666,0.04 -2.200005,0.23344 -23.69909,0.10387 -47.775749,-0.2881 z m 76.442409,-7.51133 c 38.5,-0.44827 70.45,-1.08734 71,-1.42016 0.55,-0.33282 1,-2.89847 1,-5.70147 0,-4.95437 -0.17335,-5.14001 -6.22216,-6.66312 -4.43915,-1.11779 -31.25747,-1.583 -93.58813,-1.62347 -83.469859,-0.0541 -87.448055,0.0532 -89.206309,2.40847 -1.762188,2.36052 -1.502727,10.38217 0.39775,12.29705 1.243728,1.25316 25.22508,2.56887 36.618852,2.00906 5.499999,-0.27023 41.499999,-0.8581 79.999997,-1.30636 z M 19.053672,61.449848 C 14.499857,60.881015 9.849857,59.648628 8.7203379,58.711209 5.9784939,56.435681 6.0455978,49.487967 8.8197013,48.423444 c 1.1841697,-0.454409 9.8817797,-0.03818 19.3280247,0.924952 18.118425,1.84734 23.852273,1.032936 23.852273,-3.387847 0,-2.898714 -8.698162,-6.311937 -13.434284,-5.27171 -3.039146,0.667509 -4.56584,0.09892 -7.433094,-2.768339 -3.511529,-3.511529 -3.539369,-3.659861 -1.037171,-5.526019 1.949804,-1.454178 4.665099,-1.699372 11.235071,-1.014536 9.867276,1.028539 16.509841,4.009226 23.98521,10.762774 l 5.195571,4.693885 48.824748,-0.397853 48.82475,-0.397855 3.0767,-4.033775 c 1.69219,-2.218577 3.5257,-6.127778 4.07446,-8.687114 1.08333,-5.052555 3.98036,-14.45135 6.28269,-20.382885 2.33119,-6.0058853 7.29068,-7.7843095 16.95891,-6.0812863 5.12505,0.902761 8.59596,2.2562326 9.29784,3.6256683 0.61597,1.201839 1.51665,10.43548 2.00149,20.5192 0.73067,15.196349 0.52759,19.018477 -1.18659,22.333333 -1.13746,2.199614 -2.5027,4.01136 -3.03388,4.026106 -0.53117,0.01475 -4.86576,0.63692 -9.63242,1.38261 -12.73948,1.992946 -94.65452,3.835348 -118.666668,2.669006 -5.5,-0.267152 -19,-0.135167 -29.999999,0.2933 -11,0.428466 -23.725848,0.313622 -28.279661,-0.255211 z M 196.67378,41 c 0.46044,-3.116667 0.6472,-9.266667 0.41503,-13.666667 C 196.49976,16.170212 193.53785,16.456965 190.20276,28 c -3.96652,13.728427 -4.2114,16.98092 -1.33427,17.72224 6.11177,1.574757 6.94991,1.067684 7.80529,-4.72224 z"
       id="path992" />
  </g>
</svg>
