<?xml version="1.0" encoding="UTF-8" standalone="no"?>
<!-- Created with Inkscape (http://www.inkscape.org/) -->

<svg
   version="1.1"
   id="svg203"
   width="221.33333"
   height="212"
   viewBox="0 0 221.33333 212"
   xmlns="http://www.w3.org/2000/svg"
   xmlns:svg="http://www.w3.org/2000/svg">
  <defs
     id="defs207" />
  <g
     id="g209">
    <path
       style="fill:#000000;stroke-width:1.33333"
       d="m 21.810288,205.59703 c -7.39001,-0.5392 -10.873256,-4.20351 -8.644886,-9.09426 l 1.588507,-3.48638 17.869215,0.95706 c 9.828067,0.52639 20.347699,0.53832 23.376959,0.0265 5.412112,-0.91438 5.465771,-0.97691 3.090312,-3.60176 C 55.266025,186.17235 49.954553,184 43.446458,184 c -4.543513,0 -6.350836,-0.61948 -7.371529,-2.52665 -2.216758,-4.14206 1.371925,-5.97871 9.559694,-4.89256 11.7765,1.5622 17.191201,3.8505 23.159583,9.78746 l 5.731766,5.70158 49.070348,-0.79936 49.07034,-0.79938 3.65722,-4.17385 c 2.01146,-2.29561 3.99482,-6.30161 4.40749,-8.90221 0.41265,-2.6006 1.61691,-6.69872 2.67612,-9.10694 1.05921,-2.40821 1.92584,-5.74353 1.92584,-7.41182 0,-6.07584 3.00023,-8.06594 13.01297,-8.63171 14.75415,-0.83368 14.50392,-1.205 15.3009,22.70452 0.52954,15.88669 0.26814,21.19327 -1.18478,24.05092 -1.02533,2.01667 -2.59882,3.70496 -3.49666,3.75176 -0.89784,0.0468 -4.63243,0.27545 -8.2991,0.50813 -17.4131,1.105 -168.656912,3.08131 -178.856372,2.33714 z m 179.256372,-17.8637 c 2.02556,-2.02556 2.18384,-23.21512 0.18266,-24.45192 -2.03559,-1.25806 -6.58254,3.29483 -6.58332,6.59191 -3.8e-4,1.53633 -1.20038,5.94979 -2.66667,9.80765 -1.46631,3.85787 -2.666,7.60787 -2.666,8.33334 0,1.87498 9.81235,1.64001 11.73333,-0.28098 z M 91.999999,60.006943 C 87.966665,59.447792 79.307427,58.298617 72.757246,57.453223 58.936083,55.669405 49.593837,53.500193 48.565313,51.836007 48.167831,51.192869 46.228031,50.645405 44.254643,50.61942 42.281255,50.593433 39.166666,49.714695 37.333333,48.666667 35.499999,47.618639 32.676645,46.7399 31.059212,46.713913 29.441778,46.687928 25.90805,45.166667 23.206482,43.333333 20.504914,41.5 17.448473,40 16.41439,40 13.033812,40 6.8741924,36.087669 6.0206259,33.39832 4.7840377,29.502176 7.3654642,25.793573 11.952611,24.876144 14.178637,24.430939 18.632066,22.867604 21.84912,21.402067 33.623811,16.038075 49.719817,11.574715 65.333332,9.3440628 89.092093,5.949726 97.765783,5.3122131 120.37713,5.298364 c 18.76239,-0.011492 27.12296,0.5239132 33.33333,2.1346413 4.55924,1.1824891 12.48954,2.9333327 17.62287,3.8907647 5.13333,0.957431 12.63333,3.046206 16.66667,4.641723 4.03333,1.595516 8.83333,3.371596 10.66666,3.946844 3.56624,1.118986 12.51038,6.593404 16.3137,9.985102 3.30656,2.94869 0.72158,7.93616 -5.46694,10.547948 -11.28774,4.763853 -25.51164,9.324522 -34.84676,11.173068 -5.5,1.089113 -13,2.864565 -16.66666,3.945448 -11.59402,3.417757 -53.19474,6.218266 -66.000001,4.44304 z m 41.333331,-13.28548 c 17.30629,-2.108832 35.98463,-5.287382 38.37051,-6.529627 1.26288,-0.657544 6.28832,-1.611265 11.16762,-2.11938 4.87932,-0.508115 9.9268,-1.695517 11.21664,-2.638673 2.95915,-2.163776 1.76534,-5.516074 -2.3119,-6.491987 -1.71024,-0.409356 -8.80954,-2.357269 -15.7762,-4.328697 -12.50638,-3.539055 -17.43935,-4.238586 -51.17725,-7.2573 -13.3509,-1.194579 -19.29107,-1.171122 -26.666663,0.105306 -5.219182,0.903236 -11.589422,1.528647 -14.156088,1.389802 -2.566667,-0.138846 -9.166667,0.618878 -14.666667,1.68383 -19.383669,3.753216 -41.264535,8.598699 -42.62431,9.439086 -2.511182,1.551996 -1.427638,3.218408 2.957644,4.548644 2.383334,0.722961 6.937804,2.266977 10.121048,3.431146 3.183243,1.164168 9.183243,2.666894 13.333333,3.339388 4.150089,0.672496 10.245619,1.889054 13.545619,2.703463 7.148682,1.764228 48.570504,5.242312 53.333334,4.478264 1.83333,-0.294103 7.83333,-1.083071 13.33333,-1.753265 z"
       id="path1131" />
  </g>
</svg>
