<?xml version="1.0" encoding="UTF-8" standalone="no"?>
<!-- Created with Inkscape (http://www.inkscape.org/) -->

<svg
   version="1.1"
   id="svg113"
   width="214.66667"
   height="205.33333"
   viewBox="0 0 214.66667 205.33333"
   xmlns="http://www.w3.org/2000/svg"
   xmlns:svg="http://www.w3.org/2000/svg">
  <defs
     id="defs117" />
  <g
     id="g119">
    <path
       style="fill:#000000;stroke-width:1.33333"
       d="m 82.633667,195.24653 c -0.715183,-1.88107 -1.296923,-10.13107 -1.292756,-18.33333 0.0041,-8.20226 -0.686432,-20.91334 -1.534664,-28.24684 -1.973598,-17.06299 -0.905866,-25.07064 3.61772,-27.13172 2.9209,-1.33085 3.450989,-1.1543 4.434269,1.47691 C 88.472467,124.6552 89.37026,137.7 89.853331,152 c 0.483072,14.3 1.241168,30.65 1.684658,36.33333 l 0.806347,10.33333 h -4.205168 c -3.287129,0 -4.489048,-0.74665 -5.505501,-3.42013 z M 5.8509032,56.327092 C 4.8329065,55.309096 4.0000001,53.253034 4.0000001,51.758064 4.0000001,48.334707 10.809322,35.300511 18.501362,24 26.437923,12.340256 27.888542,10.780053 33.415569,7.9591225 37.834614,5.7036927 44.06871,5.5092311 123.16702,5.1594859 c 73.25282,-0.3238986 85.1723,-0.10748 86.23068,1.5656644 1.86553,2.9491577 1.51573,5.0522087 -1.06436,6.3990827 -1.877,0.979843 -129.0437,3.223285 -161.154217,2.843043 -9.936686,-0.117667 -13.733781,2.573945 -22.39632,15.875886 -7.086312,10.881531 -8.269065,14.223692 -5.420448,15.316809 2.580289,0.99015 52.020894,1.242414 141.056365,0.719719 42.39971,-0.248913 47.99318,-0.03923 49.90314,1.870735 1.71348,1.713474 1.8549,2.801082 0.69521,5.346326 l -1.45585,3.195259 -100.92971,-0.057 C 24.363231,58.187407 7.3962602,57.87245 5.8509032,56.327092 Z"
       id="path281" />
  </g>
</svg>
