<?xml version="1.0" encoding="UTF-8" standalone="no"?>
<!-- Created with Inkscape (http://www.inkscape.org/) -->

<svg
   version="1.1"
   id="svg195"
   width="158.66667"
   height="220"
   viewBox="0 0 158.66667 220"
   xmlns="http://www.w3.org/2000/svg"
   xmlns:svg="http://www.w3.org/2000/svg">
  <defs
     id="defs199" />
  <g
     id="g201">
    <path
       style="fill:#000000;stroke-width:1.33333"
       d="m 55.333334,213.91479 c -14.224953,-2.42898 -19.362183,-3.57668 -32,-7.14911 C 7.7985004,202.37435 6.6618676,201.8 6.7021608,198.36192 c 0.043006,-3.66955 12.0251502,-11.69525 17.4606772,-11.69525 1.931324,0 5.568383,-0.85943 8.082352,-1.90983 13.729067,-5.73637 49.453824,-7.83007 70.58016,-4.13645 10.35428,1.81028 15.55338,3.05809 40.28441,9.66841 9.37276,2.50523 12.35323,5.10173 10.94592,9.53576 -1.34013,4.22241 -7.13572,6.02087 -32.72234,10.15423 -6.23334,1.00696 -15.53334,2.76325 -20.66667,3.90288 -11.265488,2.50097 -30.797055,2.51524 -45.333336,0.0331 z m 55.333336,-9.11684 c 15.40576,-2.79807 22.82188,-4.99896 22.2838,-6.6132 -0.65847,-1.97543 -13.11095,-5.66376 -30.84297,-9.13546 -13.269702,-2.59802 -16.29212,-2.73288 -34.125791,-1.52265 -17.811191,1.20869 -20.355248,1.70817 -28.356822,5.56727 -4.834606,2.33168 -9.728,4.23942 -10.874206,4.23942 -1.146208,0 -2.084014,0.6 -2.084014,1.33334 0,0.73333 2.139446,1.33333 4.754322,1.33333 2.614877,0 6.064877,0.73448 7.666666,1.63219 7.744125,4.3401 53.878958,6.38053 71.579015,3.16576 z M 5.7495084,158.9202 C 4.9338716,158.41409 4.135473,157.1 3.9752894,156 c -0.7682048,-5.27536 -0.3799563,-5.4156 12.4879446,-4.51108 12.056649,0.84749 12.535116,0.77345 14.666667,-2.26976 1.211888,-1.73021 2.205676,-4.36233 2.208417,-5.84917 0.0028,-1.48683 1.202741,-4.66783 2.666667,-7.06888 3.504826,-5.74845 3.358497,-11.82028 -0.56453,-23.42462 C 33.666039,107.62775 30.560923,97.933333 28.540199,91.333333 25.312143,80.789999 16.035846,60.571649 13.555371,58.672836 13.066584,58.298668 11.217494,55.303023 9.446283,52.015849 5.7699172,45.192916 4.422425,32.271715 5.9245176,18.245384 7.2726903,5.6563365 8.3475487,4.6398971 18.433292,6.4164657 24.949934,7.5643495 28.16253,7.4644473 34.050538,5.930816 c 9.308063,-2.4244423 9.466012,-2.4184513 10.61229,0.4025173 1.799353,4.4281777 4.670506,19.6803627 4.670506,24.8107387 0,4.429267 0.881116,5.957717 6.333334,10.986277 3.483333,3.212666 7.026933,5.84761 7.874665,5.855431 0.847734,0.0079 6.847734,5.796049 13.333334,12.862731 6.485601,7.066681 13.037926,14.116681 14.560722,15.666666 1.522796,1.549986 5.276716,6.418156 8.342045,10.818156 20.854696,29.935017 31.532456,42.384867 45.964196,53.592457 5.79323,4.49898 7.63888,6.73301 7.33333,8.87649 -0.74972,5.25961 -5.83221,4.29649 -13.43821,-2.54649 -5.23741,-4.712 -7.07575,-5.73816 -7.39515,-4.12796 -0.23379,1.17858 1.11622,4.16361 3,6.63338 4.31054,5.6514 4.30591,7.30024 -0.0235,8.38686 -4.60234,1.1551 -22.33265,-0.5228 -28.698,-2.71584 -7.714934,-2.65802 -13.998946,-8.61128 -15.653451,-14.82958 -1.788476,-6.72165 -6.881637,-14.44062 -9.913578,-15.02452 -2.467212,-0.47514 -3.220667,3.02044 -0.953109,4.42187 1.766876,1.09199 1.706321,9.47837 -0.09271,12.83989 -1.100961,2.05718 -2.273787,2.4784 -5.144839,1.84782 -3.287898,-0.72215 -3.909217,-0.3072 -5.362207,3.58108 -4.043478,10.82061 -2.909089,9.99809 -14.962508,10.84885 C 39.3423,160.18312 7.577155,160.05431 5.7494707,158.9202 Z m 52.5893766,-8.58687 c 0.732639,-0.91666 1.722614,-5.26666 2.199943,-9.66666 0.648984,-5.9823 0.505625,-7.4115 -0.568397,-5.66667 -1.761147,2.86112 -5.734638,3.02729 -7.97043,0.33333 -2.432551,-2.93104 -5.333333,-2.43863 -5.333333,0.90534 0,1.59793 -0.6932,4.82234 -1.540444,7.16536 C 42.779309,149.89431 44.249577,152 51.128228,152 c 3.233224,0 6.478019,-0.75 7.210657,-1.66667 z m 66.994455,-1.0606 c 0,-0.76666 -1.62934,-3.01666 -3.62074,-5 -1.99141,-1.98333 -5.05804,-6.48208 -6.81474,-9.9972 -2.7712,-5.54513 -4.45399,-7.02337 -12.71259,-11.16734 -5.235232,-2.62691 -11.111224,-5.9009 -13.057761,-7.27553 -1.946539,-1.37463 -4.180755,-2.49933 -4.964925,-2.49933 -1.743449,0 11.590529,20.45478 16.948776,26 2.12582,2.2 4.2172,5.02554 4.64751,6.27896 1.29882,3.78331 19.57447,7.20086 19.57447,3.66044 z M 71.577487,139.75 c -0.425635,-1.06364 -0.741578,-0.74771 -0.805556,0.80556 -0.05789,1.40555 0.257237,2.19305 0.700293,1.75 0.443055,-0.44307 0.490424,-1.59307 0.105267,-2.55556 z m 1.095231,-16.08333 C 71.64184,119.98636 69.433783,114.6793 67.818676,112 c -0.663091,-1.1 -2.101608,-3.95 -3.196707,-6.33333 -1.491376,-3.24578 -2.849766,-4.33334 -5.412468,-4.33334 -3.163554,0 -3.35069,0.32655 -2.483312,4.33334 1.480408,6.83862 8.303552,19.39662 10.907074,20.07446 5.087868,1.32466 5.898143,0.99112 5.039455,-2.07446 z M 52.880201,120.591 c 0.461975,-1.20389 -0.955601,-4.51543 -3.375179,-7.88464 -2.294429,-3.19493 -4.171688,-6.46088 -4.171688,-7.25766 0,-0.79679 -0.669978,-1.4487 -1.488841,-1.4487 -0.939895,0 -1.134441,1.10612 -0.527644,3 0.52866,1.65 1.257219,5.1 1.61902,7.66667 0.923041,6.54816 6.196012,10.48038 7.944332,5.92433 z M 104,112.61976 C 104,109.15036 81.93625,80.938784 71.635816,71.237637 54.083402,54.706437 55.313356,55.482079 50.477388,57.894577 48.156156,59.05256 45.563826,60 44.716657,60 c -0.847171,0 -2.599356,0.774392 -3.893744,1.720872 -2.033532,1.486956 -2.12651,2.218916 -0.684013,5.384851 0.919904,2.01897 2.424276,3.374313 3.350734,3.018797 0.955946,-0.366831 3.675966,2.343331 6.30467,6.281816 4.809393,7.205729 9.848576,12.236459 15.539031,15.512963 1.833333,1.055613 7.233333,4.308421 12,7.228462 C 88.297978,105.86466 101.69495,113.25011 103,113.29723 c 0.55,0.0199 1,-0.28501 1,-0.67747 z M 54.666668,98.249455 c 0,-0.9628 -1.8,-3.475055 -4,-5.582788 -4.674658,-4.478606 -5.363146,-2.15013 -1,3.382013 3.280473,4.15939 5,4.91625 5,2.200775 z M 37.916605,53.016729 c 9.476392,-1.177002 11.315703,-2.569265 7.069668,-5.351373 -1.732859,-1.135413 -3.887752,-4.524605 -4.788651,-7.531539 -1.111269,-3.709084 -2.392553,-5.46715 -3.984477,-5.46715 -2.972056,0 -5.546478,2.533052 -5.546478,5.457348 0,2.226258 -2.543806,3.875985 -5.976597,3.875985 -0.967174,0 -2.288235,-2.25 -2.935692,-5 -0.868914,-3.690616 -1.951107,-5.111577 -4.132452,-5.426068 -2.378204,-0.342872 -2.955259,0.225971 -2.955259,2.9132 0,4.772631 2.34084,10.321187 5.982101,14.179535 C 22.378951,52.5 24.890781,56.7 26.230611,60 l 2.436056,6 0.666667,-6 0.666667,-6 z M 35.475986,21.890951 c -0.445125,-1.159979 -0.809319,-2.659979 -0.809319,-3.333334 0,-0.673356 -1.2,-1.224284 -2.666666,-1.224284 -2.992522,0 -3.797358,4.654868 -1,5.783626 3.438653,1.387526 5.284842,0.881841 4.475985,-1.226008 z M 25.333334,20.582189 c 0,-1.540237 -1.104591,-1.97539 -4.230651,-1.666666 -6.112453,0.603653 -6.571533,3.751144 -0.547127,3.751144 3.444082,0 4.777778,-0.581874 4.777778,-2.084478 z"
       id="path389" />
  </g>
</svg>
