<?xml version="1.0" encoding="UTF-8" standalone="no"?>
<!-- Created with Inkscape (http://www.inkscape.org/) -->

<svg
   version="1.1"
   id="svg195"
   width="218.66667"
   height="216"
   viewBox="0 0 218.66667 216"
   xmlns="http://www.w3.org/2000/svg"
   xmlns:svg="http://www.w3.org/2000/svg">
  <defs
     id="defs199" />
  <g
     id="g201">
    <path
       style="fill:#000000;stroke-width:1.33333"
       d="m 55.103109,207.98861 c -2.498535,-2.63517 0.529939,-7.58189 5.215485,-8.519 2.208107,-0.44162 7.190668,-0.80294 11.072358,-0.80294 3.881688,0 8.027492,-0.37218 9.212895,-0.82706 2.579466,-0.98984 11.415748,-19.31346 11.349637,-23.53552 -0.1128,-7.20401 -3.986617,-24.07681 -7.309787,-31.83854 -1.993476,-4.65606 -7.466665,-16.4707 -12.162641,-26.25478 L 63.942917,98.421548 64.304793,86.210773 c 0.351759,-11.869442 0.275669,-12.22299 -2.722041,-12.647838 -1.696155,-0.240386 -6.074835,0.638454 -9.730402,1.952978 -4.933844,1.774186 -7.231305,2.023938 -8.916084,0.969248 -2.811405,-1.759969 -3.60704,-7.407117 -1.577811,-11.198768 1.712806,-3.200405 8.869832,-6.619726 13.855841,-6.619726 1.814969,0 5.305344,-1.183215 7.756386,-2.629364 3.514163,-2.073408 6.635478,-2.584922 14.762047,-2.419168 6.435471,0.131266 10.899268,-0.383464 11.886439,-1.370635 2.127321,-2.127321 8.367408,-2.006863 10.196311,0.196831 0.811431,0.977714 1.864551,8.027714 2.340261,15.666666 0.99022,15.900826 1.05798,16.021268 13.75265,24.444556 4.81705,3.196256 9.73832,6.928816 10.93615,8.294577 1.19783,1.36576 5.69783,6.15779 10,10.64896 C 149.10592,124.29911 160,138.60659 160,141.90976 c 0,1.06308 0.61612,2.31364 1.36915,2.77904 0.75303,0.4654 3.68995,5.45081 6.52649,11.07869 3.7727,7.48527 8.16002,13.27531 16.34123,21.56584 12.13579,12.29796 15.89996,18.622 13.09547,22.0012 -2.1126,2.54555 -4.55243,2.5451 -6.66567,-0.001 -2.44184,-2.94222 -4,-2.44112 -4,1.28643 0,1.88457 -1.10009,3.87517 -2.57901,4.66667 -3.72131,1.99157 -16.97292,1.69658 -21.88615,-0.48722 -7.74848,-3.44398 -10.09853,-3.44764 -13.52515,-0.0211 -3.16509,3.16509 -3.63956,3.22189 -26.94908,3.22625 -13.05001,0.003 -33.027279,0.37092 -44.393945,0.81884 -15.570737,0.61357 -21.052206,0.40777 -22.230226,-0.83467 z m 94.230231,-11.94337 c 0,-1.97229 -4.37823,-10.71191 -5.36627,-10.71191 -0.4798,0 -1.5558,1.5 -2.39113,3.33334 -1.77027,3.88532 -3.78376,4.17302 -8.09103,1.15609 -2.60663,-1.82575 -3.30001,-1.87956 -4.29501,-0.33333 -2.75998,4.28898 -0.70695,5.82682 8.82236,6.60845 5.1266,0.42051 9.77108,0.87051 10.32108,1 0.55,0.12947 1,-0.34419 1,-1.05264 z m -32.24238,-5.88761 c 0.23337,-2.84664 -0.21663,-5.81664 -1,-6.6 -1.01017,-1.01018 -1.42429,-0.98678 -1.42429,0.0805 0,0.82763 -0.92061,2.42538 -2.04579,3.55056 -1.66762,1.66762 -2.6805,1.75659 -5.4794,0.48134 -2.93231,-1.33606 -3.70427,-1.1943 -5.28754,0.97094 -1.01967,1.39448 -1.85394,3.64936 -1.85394,5.01087 0,2.19 0.96092,2.42967 8.33333,2.07849 l 8.33334,-0.39696 z m 53.57571,3.21137 c 0,-1.1024 -3.17568,-8.78229 -6.63084,-16.03567 -0.52399,-1.1 -2.9964,-3.33324 -5.49427,-4.96274 -2.49785,-1.62951 -5.49189,-3.87951 -6.65341,-5 -1.16152,-1.1205 -3.78841,-2.03726 -5.83755,-2.03726 h -3.72569 l 3.49968,4.33334 c 1.92481,2.38333 6.22785,8.3033 9.56231,13.1555 5.62778,8.18939 9.49838,11.53147 13.6131,11.75426 0.91667,0.0496 1.66667,-0.49371 1.66667,-1.20743 z m -44.52838,-31.40215 c -0.27346,-8.39164 -0.45555,-8.81673 -5.14016,-12 -2.67116,-1.8151 -5.48848,-3.30018 -6.26072,-3.30018 -1.96339,0 -1.75032,2.05278 0.39813,3.83584 0.99121,0.82262 3.73829,5.6961 6.10462,10.82993 2.36634,5.13383 4.50025,9.33423 4.74204,9.33423 0.24178,0 0.31202,-3.91492 0.15609,-8.69982 z m -19.98551,-0.86962 c -0.90419,-4.52096 -1.73845,-5.956 -2.8287,-4.86575 -1.13323,1.13323 0.9177,9.10185 2.34259,9.10185 0.78688,0 0.98611,-1.7361 0.48611,-4.2361 z m 47.2337,-3.16127 c 2.38983,-2.87956 -0.26904,-7.94369 -11.16717,-21.26929 -14.9449,-18.27377 -35.73235,-38.000003 -40.04428,-38.000003 -2.680856,0 -10.157037,6.056233 -10.165918,8.235123 -0.0097,2.38691 15.934268,18.48252 24.458998,24.69159 2.82412,2.05697 7.64165,5.94426 10.70561,8.63842 3.06397,2.69415 8.24339,6.29792 11.50984,8.00839 3.26644,1.71045 7.14892,5.03304 8.62772,7.3835 3.08682,4.90635 3.72175,5.148 6.0752,2.31227 z M 91.030179,92 c 1.240272,0 1.01166,-3.702873 -1.216492,-19.703753 -0.863182,-6.198703 -4.044055,-9.037607 -8.530716,-7.613595 -2.189247,0.69484 -2.616303,2.049309 -2.616303,8.297981 0,4.107179 -0.662405,11.271408 -1.472011,15.920507 -2.163263,12.42237 -1.220525,13.59217 6.316176,7.837473 C 86.924119,94.132376 90.307824,92 91.030179,92 Z M 99.72231,37.716032 c -1.162522,-1.310484 -2.330933,-3.567628 -2.596469,-5.015876 -1.06028,-5.782805 -4.740446,-6.238393 -45.222599,-5.598355 -22.490546,0.355586 -39.012964,0.08959 -40.333333,-0.649324 -2.3253643,-1.30134 -2.9468469,-5.93728 -1.170614,-8.73218 0.748943,-1.178462 12.288631,-1.81691 42.832524,-2.369768 22.994069,-0.416202 42.323574,-1.075746 42.954457,-1.465653 0.630883,-0.389907 1.147059,-2.130654 1.147059,-3.868327 0,-3.8150207 3.504365,-7.6350618 6.495175,-7.0802674 1.34136,0.248822 2.65168,2.5680084 3.42757,6.0665985 0.69085,3.1150829 1.89085,5.6576839 2.66667,5.6502249 0.77582,-0.0075 2.41603,-2.407458 3.6449,-5.3333327 C 115.11732,5.6300989 116.62025,4 118.47241,4 c 3.57807,0 6.86093,3.4820264 6.86093,7.27718 0,2.612831 0.86994,3.213635 5.66666,3.913512 4.3484,0.634463 45.83447,0.09117 67,-0.877409 8.58756,-0.392987 11.42378,0.426392 12.93171,3.73597 3.14625,6.905272 1.45943,7.234515 -41.66127,8.131598 -21.59873,0.44934 -40.25142,1.326644 -41.4504,1.949562 -1.19898,0.622919 -2.59722,2.79505 -3.10719,4.826958 -2.15213,8.574766 -6.21023,9.228389 -10.08917,1.625028 -3.43424,-6.731667 -6.98235,-6.694091 -7.95701,0.08427 -0.76407,5.313766 -3.76619,6.632041 -6.94436,3.049365 z"
       id="path372" />
  </g>
</svg>
