<?xml version="1.0" encoding="UTF-8" standalone="no"?>
<!-- Created with Inkscape (http://www.inkscape.org/) -->

<svg
   version="1.1"
   id="svg185"
   width="133.33333"
   height="200"
   viewBox="0 0 133.33333 200"
   xmlns="http://www.w3.org/2000/svg"
   xmlns:svg="http://www.w3.org/2000/svg">
  <defs
     id="defs189" />
  <g
     id="g191">
    <path
       style="fill:#000000;stroke-width:1.33333"
       d="m 62.285425,194.33333 c -0.331904,-0.91666 -0.313444,-4.66666 0.04103,-8.33333 0.564317,-5.8374 0.08653,-7.57721 -3.840983,-13.98661 -5.147736,-8.40071 -10.357974,-14.68006 -12.180662,-14.68006 -0.689917,0 -3.581739,-1.84329 -6.426268,-4.0962 -3.285472,-2.60213 -6.030232,-3.80428 -7.525205,-3.29586 -3.627316,1.23358 -7.518455,5.01354 -9.325172,9.05873 -0.900712,2.01667 -2.535115,3.66667 -3.632004,3.66667 -2.291345,0 -6.062825,-6.5729 -6.062825,-10.56622 0,-1.66212 -1.568212,-3.5096 -4.0829142,-4.81 -5.1692306,-2.6731 -4.6809266,-6.08358 1.0849532,-7.57768 4.808901,-1.2461 5.393785,-2.99542 2.186472,-6.53946 -1.781452,-1.96849 -1.983718,-4.18997 -1.193896,-13.11248 0.52301,-5.90836 1.48818,-11.07451 2.144822,-11.48034 2.703752,-1.67101 0.856288,-3.11826 -4.4727702,-3.50383 -5.0462228,-0.3651 -5.6666666,-0.77496 -5.6666666,-3.74333 0,-2.968377 0.7559311,-3.467723 6.9043538,-4.560827 6.417782,-1.140991 6.896883,-1.490278 6.798335,-4.956311 -0.121053,-4.257824 4.659925,-9.035007 9.112415,-9.105167 2.184822,-0.03443 2.705356,0.62732 2.324921,2.955642 -0.288309,1.764498 1.046179,5.196448 3.240355,8.333333 3.340394,4.775569 4.387082,5.375833 10.008411,5.739721 5.608705,0.363069 6.277875,0.109356 6.277875,-2.380244 0,-3.258276 -3.184161,-8.748306 -7.601825,-13.106829 -1.717368,-1.694376 -2.774107,-3.644376 -2.348308,-4.333333 1.55196,-2.511126 5.530278,-1.146114 9.950133,3.414018 4.729277,4.879376 7.708733,5.757934 10.4,3.066667 2.123381,-2.123381 2.010727,-6.2479 -0.291159,-10.660119 -1.162733,-2.228708 -1.602929,-5.619888 -1.15906,-8.929178 0.519755,-3.875059 0.122707,-5.92869 -1.450388,-7.501786 -2.972168,-2.972169 -2.716516,-6.081289 0.570729,-6.940922 2.228426,-0.582747 2.661847,-1.610095 2.333334,-5.530752 -0.290352,-3.465214 -1.106238,-4.948398 -2.910354,-5.290678 -1.378793,-0.261588 -2.990552,0.306958 -3.581686,1.263434 C 50.685037,44.79432 35.034542,45.673924 33.8905,43.822828 32.633395,41.788788 28.489935,42.581985 25.999999,45.333333 23.272231,48.347483 19.967172,48.767172 17.6,46.4 15.607772,44.407772 15.498368,35.701632 17.441148,33.758852 18.473789,32.726211 16.960844,31.856755 12.103703,30.691545 8.3754775,29.797157 5.035136,28.596196 4.6807221,28.022743 3.3554146,25.878349 9.51517,20.000029 13.096773,19.991215 c 1.963441,-0.0048 5.369893,-1.200879 7.569893,-2.657882 2.2,-1.457002 4.976533,-2.653049 6.170073,-2.657881 1.193542,-0.0048 2.96406,-0.96548 3.934487,-2.134773 2.620101,-3.1570291 14.81668,-9.8471129 17.978334,-9.8615002 4.104719,-0.018679 13.79325,5.0453072 17.398094,9.0936082 1.743786,1.958301 4.134539,6.77258 5.312784,10.698397 1.780087,5.931104 1.871162,8.106136 0.538702,12.865216 -1.744027,6.229052 -0.907647,12.818719 2.261002,17.813969 1.294775,2.041159 1.702073,4.623144 1.156808,7.333334 -2.617369,13.009374 -3.425165,21.071729 -2.31077,23.063042 0.671879,1.200584 0.915703,5.993715 0.541829,10.651402 -0.651468,8.115923 -0.553704,8.468523 2.348082,8.468523 5.873196,0 14.052384,-3.154209 18.203785,-7.020075 2.995651,-2.789607 4.981487,-3.662936 6.925814,-3.04583 2.01404,0.639231 3.30801,-0.02317 4.95474,-2.536402 2.45382,-3.744988 8.38506,-5.827734 14.17586,-4.977824 3.25757,0.478109 3.74371,1.135798 3.74371,5.064793 0,3.15302 0.61204,4.515335 2.02858,4.515335 1.11572,0 2.74415,1.570484 3.61872,3.489964 1.39551,3.062799 1.22663,3.784309 -1.37976,5.894839 -1.63344,1.32268 -3.69298,2.6459 -4.57675,2.94049 -1.23517,0.41172 -1.19177,1.79338 0.18765,5.97305 1.1201,3.39395 1.54262,8.61889 1.12425,13.90288 -0.46655,5.89262 -0.0682,9.77934 1.31062,12.7886 1.31676,2.87376 1.62584,5.55588 0.9219,8 -0.58244,2.02227 -0.905,5.84546 -0.71681,8.49598 0.27539,3.87848 -0.18517,4.95704 -2.35948,5.52564 -1.48591,0.38857 -3.77954,-0.11094 -5.09695,-1.11007 -1.31742,-0.99911 -4.36008,-1.83564 -6.76146,-1.85897 -3.73036,-0.0363 -4.89391,-0.91612 -7.9903,-6.0424 -1.99327,-3.3 -4.430355,-6 -5.415744,-6 -1.829396,0 -15.345436,13.41944 -23.892053,23.72128 -4.195692,5.05737 -4.797748,6.73176 -5.188212,14.42898 -0.242947,4.78924 -0.78594,9.26466 -1.206652,9.94539 -1.121556,1.81472 -5.620257,1.50945 -6.322124,-0.42899 z m -0.428079,-36.44238 c 0.445126,-1.15998 0.809319,-4.20398 0.809319,-6.76443 0,-3.71361 -0.472029,-4.56575 -2.333333,-4.21229 C 57.228772,147.50377 56.067836,160 59.117625,160 c 1.061721,0 2.294596,-0.94907 2.739721,-2.10905 z m -4.524014,-12.47892 c 0,-0.69006 -0.6,-1.62547 -1.333333,-2.0787 -0.733334,-0.45322 -1.333334,0.11134 -1.333334,1.25464 0,1.14328 0.6,2.0787 1.333334,2.0787 0.733333,0 1.333333,-0.56459 1.333333,-1.25464 z m -4.986376,-3.46599 c 3.888552,-3.60567 4.643255,-7.08916 2.089211,-9.64321 -1.196222,-1.19622 -1.196222,-2.37065 0,-4.99607 2.036589,-4.46983 2.262764,-3.96431 -3.221396,-7.20005 -4.068606,-2.40053 -6.046612,-2.69412 -13.208077,-1.9604 -8.174581,0.83751 -8.490363,1.01266 -10.713372,5.94242 -1.342749,2.97768 -1.950003,6.43621 -1.467572,8.35837 0.801489,3.19338 8.544994,8.88623 12.087202,8.88623 0.968291,0 2.507462,0.9 3.42038,2 2.474962,2.98215 6.902888,2.4244 11.013624,-1.38729 z m 32.997315,-9.30197 C 90.25894,122.49172 96.684348,121.25072 95.165808,130.74714 94.694683,133.6934 94.869432,136 95.563767,136 c 3.200408,0 8.416493,-3.58527 8.425823,-5.79149 0.006,-1.35199 1.13467,-2.75216 2.50876,-3.1115 3.08194,-0.80594 8.58654,-8.00829 7.48399,-9.79224 C 113.53883,116.58715 111.41136,116 109.25464,116 c -2.15672,0 -3.92131,-0.6 -3.92131,-1.33333 0,-0.73334 -1.2,-1.33334 -2.66667,-1.33334 -1.46666,0 -2.666663,-0.6 -2.666663,-1.33333 0,-1.45986 -9.68929,-1.86627 -11.090386,-0.46517 -0.477491,0.47749 0.09604,1.57321 1.274513,2.43493 2.674631,1.95574 1.377564,6.8998 -2.099688,8.00344 -3.235107,1.02678 -9.417771,10.06344 -9.417771,13.76513 0,4.93644 3.596845,3.26974 6.677606,-3.09426 z M 24.999999,117.00689 c 2.47913,-1.98342 2.019046,-3.67356 -1,-3.67356 -2.864156,0 -8.297215,4.59168 -6.985334,5.90356 0.948791,0.94879 5.654706,-0.36539 7.985334,-2.23 z m 23,-81.00689 c 0,-0.733333 -0.635411,-1.333333 -1.412023,-1.333333 -0.776612,0 -1.041202,0.6 -0.587977,1.333333 0.453225,0.733333 1.088634,1.333333 1.412022,1.333333 0.323388,0 0.587978,-0.6 0.587978,-1.333333 z m 9.649942,-7.804283 c -0.482642,-6.021721 -5.035394,-14.487633 -8.358233,-15.542261 -3.302104,-1.048047 -6.625042,1.381137 -6.625042,4.843137 0,1.879106 0.973772,2.503407 3.904761,2.503407 5.343594,0 8.556737,3.312993 6.65659,6.863449 -1.857788,3.471308 -0.547056,6.800272 2.434616,6.183376 1.747418,-0.361533 2.249011,-1.585948 1.987308,-4.851108 z"
       id="path528" />
  </g>
</svg>
