<?xml version="1.0" encoding="UTF-8" standalone="no"?>
<!-- Created with Inkscape (http://www.inkscape.org/) -->

<svg
   version="1.1"
   id="svg175"
   width="213.33333"
   height="236"
   viewBox="0 0 213.33333 236"
   xmlns="http://www.w3.org/2000/svg"
   xmlns:svg="http://www.w3.org/2000/svg">
  <defs
     id="defs179" />
  <g
     id="g181">
    <path
       style="fill:#000000;stroke-width:1.33333"
       d="m 110.66666,229.29717 c -4.76666,-0.38656 -20.363808,-0.5942 -34.660321,-0.46142 -15.082125,0.14006 -27.02756,-0.31192 -28.456636,-1.07674 -1.354636,-0.72498 -3.850181,-4.45486 -5.545656,-8.28864 l -3.082681,-6.97049 -12.124466,0.57968 c -12.974012,0.62029 -19.2206628,-0.88865 -21.5282419,-5.2004 -1.0158056,-1.89805 -0.398228,-3.4444 2.8557454,-7.15047 C 10.407917,198.12791 13.09298,196 14.09121,196 c 2.274219,0 5.003372,-4.8956 3.807679,-6.83027 -0.490103,-0.793 -2.917849,-2.28865 -5.394992,-3.32366 -3.6738837,-1.53506 -4.5038971,-2.60707 -4.5038971,-5.81706 0,-4.13098 2.9618381,-6.69568 7.7325331,-6.69568 3.904007,0 9.162955,4.77822 11.775052,10.69867 1.286419,2.91573 2.750681,5.30133 3.253919,5.30133 0.503236,0 1.63601,-1.74073 2.517275,-3.86829 1.919123,-4.63317 6.249926,-8.81311 10.453171,-10.08903 4.223249,-1.282 9.601382,2.41651 9.601382,6.60279 0,4.03736 -4.796129,8.68787 -8.959927,8.68787 -5.459635,0 -4.895327,3.46398 1.529001,9.38573 5.369015,4.94897 6.097593,6.28532 6.097593,11.18408 0,6.29344 1.781287,8.76352 6.319784,8.76352 3.738068,0 12.468348,-4.26655 15.018995,-7.33989 3.141777,-3.78562 14.468354,-8.72963 22.394642,-9.7752 9.95742,-1.3135 19.83006,1.1677 52.38451,13.16537 10.76353,3.9668 23.68403,5.63967 45.06884,5.83523 10.15028,0.0928 12.78557,0.535 13.92268,2.33606 1.02133,1.61772 0.91656,2.80719 -0.38551,4.37607 -1.5907,1.91669 -6.51257,2.113 -44.58934,1.77843 -23.5407,-0.20684 -46.70127,-0.69234 -51.46794,-1.0789 z m 12.90737,-11.41616 c -8.48421,-4.65648 -35.574031,-4.48169 -35.574031,0.22952 0,1.23572 4.960598,1.6754 19.666661,1.74315 18.45399,0.0851 19.43487,-0.0367 15.90737,-1.97267 z M 30,202.66667 c -0.453226,-0.73334 -1.988635,-1.33334 -3.412023,-1.33334 -1.423388,0 -2.587977,0.6 -2.587977,1.33334 C 24,203.4 25.53541,204 27.412022,204 29.347178,204 30.467364,203.42288 30,202.66667 Z M 92.979288,167.8826 C 79.600865,164.73068 69.927872,155.60777 63.705542,140.27359 59.356348,129.55552 59.10779,122.28946 62.698482,110.83425 67.88532,94.286935 82.447087,82.864169 101.85939,80.115048 c 13.8301,-1.958585 21.79477,0.626863 34.82611,11.305071 10.86704,8.904731 17.72464,30.106631 13.43468,41.536521 -1.0411,2.77385 -2.27441,6.76877 -2.74068,8.87763 -1.37646,6.22538 -17.67341,21.3358 -26.62233,24.68402 -7.93466,2.96874 -18.71951,3.49843 -27.777882,1.36431 z m 20.621752,-9.35792 c 7.99769,-1.66993 18.04618,-7.36293 19.16504,-10.85801 0.41082,-1.28334 1.30652,-2.33334 1.99044,-2.33334 0.6839,0 1.24348,-0.62429 1.24348,-1.38732 0,-0.76302 1.24908,-3.0768 2.77572,-5.14169 3.40609,-4.60699 4.78929,-17.2469 2.723,-24.88321 -2.37771,-8.78721 -8.99863,-17.582086 -15.28466,-20.303318 -12.72945,-5.5106 -15.9009,-6.023685 -26.361023,-4.264753 -9.415328,1.583242 -10.196432,2.000865 -17.582946,9.400854 -6.465431,6.477227 -8.286344,9.398977 -11.131473,17.861067 l -3.401567,10.11707 2.798141,5.95279 c 1.538978,3.27403 2.79814,6.55759 2.79814,7.29681 0,1.85518 8.869464,11.50648 13.802332,15.019 3.561217,2.53581 9.787016,4.29193 17.132036,4.83248 1.24724,0.0917 5.44724,-0.497 9.33334,-1.30843 z M 79.333332,61.263715 C 58.799999,60.710951 39.105246,59.587912 35.567214,58.768076 26.65817,56.703661 16.984176,51.561953 11.283615,45.861393 2.5996029,37.17738 2.6385178,32.156955 11.452821,24.032213 l 5.820931,-5.365546 21.02979,0.07948 c 11.566385,0.04371 24.02979,0.571583 27.696457,1.17304 7.380565,1.210663 12.666666,-0.120093 12.666666,-3.188783 0,-3.918554 6.148435,-5.789124 26.252835,-7.9870353 37.67052,-4.118327 44.873,-3.4405625 65.0805,6.1241733 9.87146,4.672422 14.49832,5.181202 28.86093,3.173618 6.88941,-0.962992 7.65701,-0.810406 9.05393,1.799758 1.63267,3.05068 2.15,24.701296 0.68166,28.52775 -0.72236,1.88246 -2.62831,2.297998 -10.54022,2.297998 -10.2277,0 -16.59808,1.596162 -22.0563,5.526432 -7.02903,5.061354 -37.5467,6.662148 -96.666668,5.070617 z M 169.7274,48.4403 c 6.42625,-3.281132 11.3714,-4.806293 21.60593,-6.663607 4.91027,-0.89109 7.33333,-3.76514 7.33333,-8.6982 0,-3.744628 -0.001,-3.74516 -9.24653,-3.74516 -10.5688,0 -15.28585,-1.436528 -20.24333,-6.164892 -2.32243,-2.215093 -6.55954,-3.970834 -12.66616,-5.248508 -11.6751,-2.442746 -42.77398,-2.504794 -51.84397,-0.103438 l -6.666672,1.765054 5.333332,0.892092 c 2.93334,0.490651 12.53333,0.616838 21.33333,0.280415 12.61351,-0.482212 16.63498,-0.196927 19,1.347871 3.8215,2.496136 3.8419,5.451164 0.046,6.655952 -5.71705,1.814525 -77.033146,1.668141 -91.795295,-0.18842 -28.772712,-3.618592 -42.6843749,2.741936 -29.559997,13.51505 10.217214,8.386778 10.857663,8.482476 62.227732,9.298286 23.4218,0.371962 42.9218,1.036193 43.33333,1.476069 0.41153,0.439875 8.42557,0.422837 17.80897,-0.03787 14.86996,-0.730074 17.95181,-1.292604 24,-4.380702 z"
       id="path667" />
  </g>
</svg>
