<?xml version="1.0" encoding="UTF-8" standalone="no"?>
<!-- Created with Inkscape (http://www.inkscape.org/) -->

<svg
   version="1.1"
   id="svg165"
   width="121.33333"
   height="290.66666"
   viewBox="0 0 121.33333 290.66666"
   xmlns="http://www.w3.org/2000/svg"
   xmlns:svg="http://www.w3.org/2000/svg">
  <defs
     id="defs169" />
  <g
     id="g171">
    <path
       style="fill:#000000;stroke-width:1.33333"
       d="m 22.333333,282.63325 c -1.283334,-0.78784 -2.333334,-2.92144 -2.333334,-4.74135 0,-1.98737 0.931919,-3.59736 2.333334,-4.03109 7.847569,-2.42879 10.999999,-4.62044 10.999999,-7.64751 0,-1.73975 -1.95,-5.81359 -4.333333,-9.05299 -9.249697,-12.5721 -19.1562682,-33.34429 -21.0277624,-44.09121 -1.2969168,-7.44744 -1.211022,-9.38437 0.5687885,-12.82614 1.1530172,-2.22968 3.2618429,-4.42388 4.6862789,-4.87598 2.836705,-0.90033 22.323472,8.21194 25.343647,11.85102 0.965563,1.16344 2.536065,2.11533 3.490007,2.11533 0.953942,0 3.517089,1.5 5.695882,3.33333 C 49.935632,214.5 52.297977,216 53.006496,216 c 0.715637,0 1.592277,-6.89018 1.972309,-15.50188 0.599775,-13.59119 0.394841,-15.79114 -1.662668,-17.84866 -2.479578,-2.47957 -2.140968,-6.91194 1.322864,-17.31613 1.77258,-5.32423 5.360997,-21.16533 5.360997,-23.66617 0,-0.91694 -0.48044,-1.66716 -1.067645,-1.66716 -1.341348,0 -6.932354,11.36877 -6.932354,14.09628 0,1.1137 -1.472727,3.49765 -3.272727,5.29765 -3.958128,3.95813 -9.86053,4.27519 -14.19828,0.76269 -2.735818,-2.21533 -2.913065,-2.91978 -1.50963,-6 0.874573,-1.91948 2.532793,-3.48996 3.684932,-3.48996 1.152138,0 3.865002,-0.91541 6.028585,-2.03424 3.819609,-1.9752 3.933786,-2.32121 3.933786,-11.9213 0,-5.4379 -0.611409,-10.26495 -1.358688,-10.72679 -0.747277,-0.46185 -2.885066,-3.85188 -4.750639,-7.53342 -3.295742,-6.50383 -3.332843,-6.86718 -1.30798,-12.80982 1.146186,-3.36387 2.083974,-7.001351 2.083974,-8.083288 0,-2.72378 6.1591,-15.494467 8.270484,-17.148572 0.951233,-0.745217 4.579516,-2.173145 8.062849,-3.173173 3.483333,-1.000028 6.333333,-2.214451 6.333333,-2.698719 0,-0.484266 -1.698722,-1.58412 -3.77494,-2.444117 C 56.537424,70.565753 48.476052,61.986796 45.729216,56.666665 42.164558,49.762558 41.060008,40.194022 42.692951,30.363974 44.179112,21.417522 44.782464,20.213449 50.485253,14.813356 61.063101,4.7969662 63.043948,4.010588 77.71099,4.004984 88.946775,4.000691 91.656672,4.4567526 97.256477,7.2943886 104.60482,11.018075 112.81775,20.21989 114.72337,26.864389 115.42551,29.312625 116,35.689635 116,41.035522 c 0,11.740755 -3.82658,20.513081 -11.60935,26.614115 -6.897975,5.407428 -9.363674,6.527192 -16.723986,7.594967 -7.27995,1.056117 -7.980945,2.416077 -2.430442,4.71517 7.913982,3.278079 14.64407,18.144565 14.806478,32.706886 0.0409,3.66667 0.95302,9.06667 2.02696,12 1.18463,3.23567 2.46798,14.77284 3.26295,29.33334 1.39286,25.5115 1.61049,24.2295 -4.76522,28.07052 -1.772109,1.06761 -2.318963,3.14348 -2.283089,8.66666 0.02595,3.99455 0.154435,18.66142 0.285531,32.59303 0.131093,13.93162 -0.163793,29.08544 -0.655308,33.67513 -1.031021,9.62753 0.337767,12.32799 6.248736,12.32799 3.15429,0 3.83674,0.56562 3.83674,3.17998 0,6.2466 -4.19029,7.32131 -34.245627,8.78312 -15.264907,0.74246 -32.554374,1.66927 -38.421041,2.05958 -6.539233,0.43506 -11.569542,0.15538 -12.999999,-0.72276 z m 56.644095,-15.5003 c 2.004254,-1.01462 4.696503,-3.78461 5.982776,-6.15553 2.100922,-3.87252 2.303343,-8.22905 1.991094,-42.85269 -0.334202,-37.05784 -1.082591,-45.60741 -5.37974,-61.45807 -1.14583,-4.22654 -6.439951,-6.42452 -7.451164,-3.09352 -0.293892,0.96811 -1.538333,5.017 -2.765424,8.99755 -1.227092,3.98055 -2.526868,11.18055 -2.888391,16 -0.361524,4.81945 -1.464142,13.597 -2.450263,19.50568 -1.135935,6.80631 -1.521536,15.66859 -1.05228,24.18454 0.720396,13.07362 0.658536,13.46758 -2.260155,14.39394 -2.410765,0.76514 -4.216967,-0.224 -9.185686,-5.03043 -3.401675,-3.29056 -7.684863,-6.74741 -9.518196,-7.68191 -1.833333,-0.93448 -4.104933,-2.78609 -5.048,-4.1147 -0.943067,-1.32862 -4.905171,-4.53339 -8.804674,-7.12173 -11.993879,-7.96108 -15.023271,-5.90607 -9.50207,6.44581 9.652299,21.59385 12.46748,26.65822 20.858955,37.52421 7.291818,9.44205 10.224083,12.18569 13.829122,12.93957 4.772446,0.998 19.907787,-0.59126 23.644096,-2.48272 z M 97.312227,169 c -0.07917,-6.25219 -2.872895,-34.87026 -3.937384,-40.33334 -0.714458,-3.66666 -1.649179,-8.9482 -2.077159,-11.73674 -0.465416,-3.03245 -1.686333,-5.40472 -3.037917,-5.90274 -2.95622,-1.0893 -3.972855,-2.65506 -5.644845,-8.69385 -1.90922,-6.895603 -5.96472,-7.059535 -4.850936,-0.19608 0.574745,3.54173 0.104373,5.73123 -1.790284,8.33333 -1.413417,1.94118 -3.394155,8.34777 -4.401636,14.23688 -1.007483,5.8891 -2.523349,11.99966 -3.368593,13.579 -0.845244,1.57936 -1.499587,5.461 -1.454095,8.62588 l 0.08272,5.75432 2.868981,-5.7128 c 3.302906,-6.57684 7.60283,-8.3962 12.8732,-5.4468 3.370956,1.88644 3.989345,3.39096 8.149013,19.82627 2.330629,9.20857 2.391691,9.33333 4.568199,9.33333 1.123016,0 2.032349,-0.75 2.020742,-1.66666 z M 59.19068,115.22428 c 2.524242,-6.57807 -0.4429,-13.27483 -5.459963,-12.32298 -5.092905,0.96623 -2.898433,14.43203 2.351936,14.43203 1.264289,0 2.662901,-0.94907 3.108027,-2.10905 z M 79.999998,93.999998 c 0,-1.1 -0.9,-2 -2,-2 -2.082099,0 -2.645289,1.576933 -1.111111,3.11111 1.534178,1.534179 3.111111,0.970988 3.111111,-1.11111 z M 63.381576,90.588603 c 0.500381,-0.809632 2.523609,-1.048704 4.745355,-0.560726 2.130187,0.467868 3.873067,0.502996 3.873067,0.07806 0,-1.934033 -5.622049,-6.10594 -8.228345,-6.10594 -3.318648,0 -7.771655,3.556291 -7.771655,6.206651 0,2.124248 6.109404,2.440374 7.381578,0.381954 z M 88.05914,64.005599 c 5.416112,-1.504632 12.42638,-8.191275 14.58307,-13.909844 0.91176,-2.417579 1.13082,-7.371172 0.57528,-13.009009 -0.8002,-8.120699 -1.47244,-9.758313 -6.21971,-15.151499 -5.515352,-6.26577 -13.602217,-11.268581 -18.215261,-11.268581 -7.130072,0 -19.029983,8.547988 -22.819798,16.392003 -4.366432,9.037472 -2.657633,23.613529 3.575773,30.501366 6.22174,6.874945 17.665507,9.461194 28.520646,6.445564 z M 74.542051,45.062624 c -3.809548,-2.316724 -4.124788,-3.009181 -3.400845,-7.47031 1.444069,-8.898761 8.497448,-10.898793 14.893201,-4.223067 l 3.866652,4.035916 -2.424607,4.502219 c -2.978628,5.53098 -7.29599,6.584165 -12.934401,3.155242 z"
       id="path806" />
  </g>
</svg>
