<?xml version="1.0" encoding="UTF-8" standalone="no"?>
<!-- Created with Inkscape (http://www.inkscape.org/) -->

<svg
   version="1.1"
   id="svg75"
   width="200"
   height="201.33333"
   viewBox="0 0 200 201.33333"
   xmlns="http://www.w3.org/2000/svg"
   xmlns:svg="http://www.w3.org/2000/svg">
  <defs
     id="defs79" />
  <g
     id="g81">
    <path
       style="fill:#000000;stroke-width:1.33333"
       d="M 9.6519549,195.05709 C 7.9938636,194.73822 5.8021936,192.86253 4.7815773,190.88888 1.8687156,185.25602 4.9816269,178.28097 14.258888,169.65322 24.416747,160.20654 30.367007,155.52641 35.666667,152.8151 38.05,151.5958 40,149.69128 40,148.58284 c 0,-1.10846 7.65,-9.82428 17,-19.36851 9.35,-9.54424 17.18692,-18.07192 17.415377,-18.95041 0.228459,-0.87849 1.677758,-4.44029 3.220664,-7.9151 2.461347,-5.543258 2.571326,-6.605827 0.897023,-8.66667 -1.049545,-1.29185 -3.698844,-5.857117 -5.887331,-10.145038 -4.48854,-8.794433 -6.365164,-10.140984 -9.800381,-7.032155 -3.474887,3.14473 -7.022783,2.673046 -13.644711,-1.814029 -3.22702,-2.186655 -6.651841,-3.986655 -7.610716,-4 C 39.417809,70.660699 28.746743,64.80481 23.100297,60.544499 15.055773,54.474811 4.3023204,34.91557 6.6409085,30.606846 7.2200835,29.539748 8.1386397,26.566666 8.6821448,24 9.9555359,17.986494 16.162089,10.141999 21.345219,7.9950771 23.941027,6.9198582 28.63742,6.567541 34.369145,7.0180391 54.294289,8.5841019 72,23.66294 72,39.065866 c 0,3.739701 0.91258,7.074815 2.486633,9.087655 1.367648,1.748897 4.049634,6.179811 5.959966,9.846478 1.910333,3.666667 6.496892,9.666667 10.192352,13.333333 3.695461,3.666667 7.094345,7.866667 7.553076,9.333333 0.953677,3.049122 2.920273,4.619939 5.807973,4.639111 1.1,0.0073 4.36822,-3.264681 7.26271,-7.271075 2.89448,-4.006393 6.02552,-7.577074 6.95786,-7.934846 3.19154,-1.224707 6.02594,-10.413025 5.37778,-17.433189 -0.52209,-5.6547 0.0892,-8.08342 4.02698,-16 C 135.31353,21.210222 145.43137,12.914292 162,8.4818036 c 10.57703,-2.8295988 13.93448,-2.3080858 22.9142,3.5592694 8.99455,5.877036 9.67095,7.255343 9.94237,20.25978 0.16642,7.972492 -0.96012,10.617096 -7.90952,18.56823 -7.21846,8.258979 -11.38044,11.585136 -19.41985,15.519924 -4.50663,2.205713 -9.64845,5.570522 -11.42628,7.477356 -1.77784,1.906833 -3.92049,3.466969 -4.76147,3.466969 -2.62258,0 -14.00612,11.819024 -14.00612,14.541933 0,1.42274 -1.58088,4.465576 -3.51308,6.761859 l -3.51308,4.175056 3.36087,3.59391 c 3.81524,4.07979 7.66529,11.1636 7.66529,14.10357 0,1.08648 1.79858,3.25611 3.99682,4.8214 2.19825,1.5653 4.39085,4.41597 4.87246,6.33484 0.4816,1.91887 2.13304,5.38486 3.66986,7.7022 1.53681,2.31735 4.2942,6.73654 6.12753,9.82043 6.51604,10.96075 16.35148,23.10877 20.86632,25.7726 5.10659,3.01296 10.34091,11.90189 9.17384,15.57901 -1.04292,3.28594 -6.36777,5.45986 -13.37349,5.45986 -8.02278,0 -11.72983,-1.97956 -15.48018,-8.26639 -1.75257,-2.93788 -4.75725,-7.22981 -6.67706,-9.53761 -1.91983,-2.3078 -5.10012,-7.196 -7.06732,-10.86267 -6.27283,-11.69193 -9.63735,-16.75207 -12.44715,-18.72012 -1.50568,-1.05463 -6.79822,-8.07403 -11.76121,-15.59869 -10.41643,-15.7929 -13.62722,-19.68119 -16.25193,-19.68119 -1.03767,0 -5.91376,4.05 -10.835745,9 -4.921987,4.95 -15.945087,14.90783 -24.495776,22.12851 -15.473991,13.0671 -32.98155,30.53288 -42.570527,42.46894 -3.468521,4.31751 -6.593499,6.69766 -10.056063,7.65923 -2.76304,0.76731 -5.323709,1.31675 -5.690376,1.22097 -0.366666,-0.0958 -2.023287,-0.43502 -3.6813781,-0.75389 z M 155.47453,51.047468 c 6.34422,-2.206157 19.21859,-13.879695 19.1357,-17.350846 -0.0913,-3.825718 -8.974,-8.716888 -14.08804,-7.757488 -8.0911,1.517899 -15.16216,12.946457 -15.18142,24.53685 -0.007,3.756311 0.36772,4.315138 2.3259,3.4756 1.28333,-0.550212 4.79686,-1.857064 7.80786,-2.904116 z M 56.913804,48.863973 c 0.190988,-0.190988 -0.270992,-2.586339 -1.026621,-5.323003 -1.194831,-4.327321 -2.362983,-5.412976 -8.96386,-8.330813 -4.174495,-1.845284 -9.175235,-4.872675 -11.112758,-6.727535 -5.110629,-4.892589 -9.46127,-3.896633 -11.048625,2.529272 -1.12468,4.552913 -0.880471,5.388019 2.666667,9.119035 6.810444,7.163486 15.682489,10.790365 23.85467,9.751753 2.905802,-0.369303 5.439539,-0.827721 5.630527,-1.018709 z"
       id="path945" />
  </g>
</svg>
