<?xml version="1.0" encoding="UTF-8" standalone="no"?>
<!-- Created with Inkscape (http://www.inkscape.org/) -->

<svg
   version="1.1"
   id="svg205"
   width="110.66667"
   height="214.66667"
   viewBox="0 0 110.66667 214.66667"
   xmlns="http://www.w3.org/2000/svg"
   xmlns:svg="http://www.w3.org/2000/svg">
  <defs
     id="defs209" />
  <g
     id="g211">
    <path
       style="fill:#000000;stroke-width:1.33333"
       d="m 28.395578,204.44006 c -4.153699,-6.33935 -5.335144,-12.10707 -3.907528,-19.07623 1.061629,-5.18252 0.874608,-8.70408 -0.866692,-16.31953 -2.417339,-10.57207 -2.150411,-32.08182 0.478411,-38.55165 l 1.425105,-3.50735 27.382025,-0.97782 c 26.755401,-0.95544 27.446545,-0.9133 30.20146,1.84162 2.673397,2.6734 2.858446,4.52869 3.572565,35.8185 0.414221,18.1495 0.503529,34.38566 0.198461,36.08036 -1.165642,6.47538 -5.178284,7.4383 -31.830062,7.63836 -24.440578,0.18347 -24.615757,0.16411 -26.653745,-2.94626 z m 45.441368,-9.22866 c 1.987548,-0.76269 2.21765,-3.7023 2.102712,-26.86285 -0.07099,-14.30355 -0.683121,-27.46375 -1.360305,-29.24487 l -1.231244,-3.23842 -18.782129,0.4007 c -16.967707,0.362 -18.974384,0.65832 -20.772299,3.06738 -1.685205,2.25804 -1.848577,6.75296 -1.066147,29.33333 0.508214,14.66667 1.242971,27.20588 1.632794,27.86492 0.76328,1.2904 35.719969,0.12133 39.476618,-1.32019 z M 20.516009,104.4163 C 15.713962,103.47221 14.634403,98.789086 17.48721,91.277369 21.04819,81.900964 20.732387,79.967541 14,69.92779 8.0195472,61.00937 7.5467542,59.508016 7.9344636,50.666667 8.13991,45.981654 9.3103527,43.013863 17.546885,26.293279 25.211458,10.733801 35.507089,5.40972 58.000002,5.3741454 c 10.990895,-0.017383 20.19508,3.6761093 26.903413,10.7959086 6.735053,7.14816 15.107335,28.108731 19.002405,47.573784 1.15411,5.767515 1.04079,7.803106 -0.61239,11 -1.99951,3.866618 -3.09681,4.448489 -7.55286,4.005078 -4.417857,-0.439611 -13.05011,2.715276 -14.416829,5.269012 -0.763552,1.426712 -1.067785,3.956333 -0.676072,5.621381 1.478399,6.284212 -3.528384,8.870461 -20.231915,10.450771 -15.440714,1.46084 -17.263669,0.72399 -18.49319,-7.475048 -0.498553,-3.324587 -2.034683,-7.373027 -3.413623,-8.996533 -2.384832,-2.807804 -2.597624,-2.83535 -4.361161,-0.564542 -1.0197,1.31301 -2.27515,5.81301 -2.78989,10 -0.914549,7.439113 -3.639829,12.461533 -6.56454,12.097803 -0.803008,-0.0999 -2.727812,-0.43083 -4.277341,-0.73546 z m 47.69015,-14.543711 c 0.619947,-0.383148 1.127176,-1.849792 1.127176,-3.259208 0,-2.580009 -5.289228,-4.955396 -7.706929,-3.461174 -2.778975,1.717501 -6.818672,-3.383396 -8.289151,-10.466654 -2.468844,-11.892361 -2.150936,-14.333408 2.468285,-18.952629 5.526083,-5.526083 5.430613,-7.418995 -0.319774,-6.340215 -3.535026,0.663174 -5.631912,0.107226 -9.666805,-2.562932 -5.110969,-3.38228 -7.762784,-4.114654 -13.42502,-3.707702 -2.933605,0.210843 -2.932775,0.217879 0.422345,3.572999 4.662999,4.662999 3.830338,8.868291 -2.149618,10.856476 -5.504399,1.830074 -9.733803,-0.07828 -10.426069,-4.704348 -0.737424,-4.927836 -2.907265,-3.089781 -2.907265,2.46272 0,4.469163 0.941061,6.292066 5.943399,11.512795 5.566653,5.809681 6.270684,6.15054 11.106541,5.377255 6.876099,-1.099532 9.33347,0.912761 12.932394,10.590085 3.421034,9.198987 6.829542,11.666639 14.557158,10.538919 2.863385,-0.417864 5.713385,-1.073239 6.333333,-1.456387 z m 22.99891,-19.157155 c 4.294567,-1.63279 4.476555,-5.227658 0.794934,-15.702532 -1.466667,-4.172929 -2.666667,-8.931295 -2.666667,-10.574144 0,-1.642849 -1.469872,-5.263645 -3.266383,-8.046212 C 73.472445,16.885252 72.113066,16.011802 54.337176,16.004984 L 41.341017,16 36.003842,20.821816 c -6.464964,5.840707 -6.867885,8.511518 -1.284057,8.511518 2.229215,0 6.468868,1.232424 9.421451,2.73872 4.534888,2.313527 6.775172,2.600093 14.429947,1.845811 8.287848,-0.816664 9.232272,-0.649256 11.060228,1.960514 2.502255,3.57247 1.308004,11.290574 -2.730732,17.647956 -7.000561,11.019598 -7.517403,12.667163 -5.121004,16.32453 2.126571,3.245556 2.563736,3.331415 14.079255,2.765115 6.536496,-0.321447 13.442259,-1.176691 15.346139,-1.900546 z M 26.666667,42.666667 c 1.558501,-1.00718 1.190583,-1.297006 -1.666666,-1.312916 -2.016667,-0.01123 -3.666667,0.579583 -3.666667,1.312916 0,1.685879 2.724621,1.685879 5.333333,0 z"
       id="path233" />
  </g>
</svg>
