<?xml version="1.0" encoding="UTF-8" standalone="no"?>
<!-- Created with Inkscape (http://www.inkscape.org/) -->

<svg
   version="1.1"
   id="svg195"
   width="224"
   height="206.66667"
   viewBox="0 0 224 206.66667"
   xmlns="http://www.w3.org/2000/svg"
   xmlns:svg="http://www.w3.org/2000/svg">
  <defs
     id="defs199" />
  <g
     id="g201">
    <path
       style="fill:#000000;stroke-width:1.33333"
       d="M 84.666667,198.67972 C 75.17518,197.73475 70.237939,196.58291 56.414964,192.08864 40.607428,186.94915 37.737575,185.34498 21.1474,172.37503 5.8823768,160.44107 -0.35344853,150.83299 4.5337601,146.77698 5.8950652,145.64719 32.114881,145.0311 101.32292,144.5027 c 105.86025,-0.80826 103.56192,-0.97071 102.02691,7.21164 -0.73926,3.94058 -0.28179,5.25536 3.05946,8.79286 3.47523,3.67936 4.01488,5.38048 4.67542,14.73794 0.4107,5.81816 0.1776,11.6419 -0.51802,12.94166 -1.20674,2.25483 -8.72209,5.1233 -13.46438,5.1391 -3.82262,0.0133 -9.89167,-6.25246 -11.60891,-11.98408 -0.90348,-3.01554 -2.43507,-5.78686 -3.40353,-6.1585 -0.96847,-0.37164 -5.88488,1.9906 -10.92536,5.24942 -24.2581,15.68354 -52.46942,21.63481 -86.497843,18.24698 z m 42.666663,-10.61313 c 0.73334,-0.56959 5.83334,-2.09739 11.33334,-3.39511 5.5,-1.29772 10.9,-3.10977 12,-4.0268 1.1,-0.91702 4.63136,-3.08722 7.84746,-4.82266 8.4449,-4.55695 9.3568,-5.15939 18.51703,-12.23328 4.5662,-3.52619 8.30217,-6.95526 8.30217,-7.62014 0,-1.2502 -163.899845,-0.5132 -165.155699,0.74266 -1.450674,1.45068 10.94815,12.31864 18.841057,16.5148 4.573055,2.43118 11.661903,6.18772 15.752996,8.34784 7.225641,3.81517 13.94186,5.44276 31.894983,7.72932 9.722164,1.23824 38.611393,0.35976 40.666663,-1.23663 z m 74,-11.62827 c 0,-5.40322 -3.07272,-9.77165 -6.87332,-9.77165 -1.7479,0 -2.46001,0.98408 -2.46001,3.39955 0,5.11325 3.65989,11.26712 6.70091,11.26712 2.14298,0 2.63242,-0.91011 2.63242,-4.89502 z M 92,60.006944 C 87.966667,59.447793 79.307428,58.298618 72.757247,57.453224 58.936084,55.669406 49.593837,53.500194 48.565313,51.836008 48.167832,51.19287 46.228032,50.645406 44.254644,50.619421 42.281256,50.593434 39.166667,49.714695 37.333333,48.666667 35.5,47.618639 32.676645,46.739901 31.059212,46.713914 c -1.617433,-0.02599 -5.151161,-1.547247 -7.852729,-3.38058 -2.701568,-1.833333 -5.75801,-3.333333 -6.792092,-3.333333 -3.380579,0 -9.5401985,-3.912331 -10.393765,-6.60168 -1.2365883,-3.896145 1.3448383,-7.604747 5.931986,-8.522177 2.226025,-0.445205 6.679455,-2.00854 9.896508,-3.474077 C 33.623812,16.038075 49.719817,11.574715 65.333333,9.344063 89.092095,5.9497261 97.765784,5.3122132 120.37713,5.2983641 c 18.76239,-0.011492 27.12296,0.5239132 33.33334,2.1346414 4.55924,1.182489 12.48953,2.9333335 17.62286,3.8907645 5.13334,0.957431 12.63334,3.046206 16.66667,4.641724 4.03333,1.595516 8.83333,3.371596 10.66667,3.946844 3.56624,1.118985 12.51037,6.593404 16.31369,9.985101 3.30656,2.948691 0.72159,7.93616 -5.46693,10.547948 -11.28775,4.763854 -25.51164,9.324523 -34.84676,11.173068 -5.5,1.089114 -13,2.864566 -16.66667,3.945449 -11.59401,3.417757 -53.19474,6.218266 -66,4.44304 z m 41.33333,-13.285481 c 17.3063,-2.108832 35.98463,-5.287381 38.37051,-6.529626 1.26288,-0.657544 6.28832,-1.611266 11.16763,-2.11938 4.87932,-0.508115 9.9268,-1.695518 11.21664,-2.638674 2.95914,-2.163776 1.76533,-5.516073 -2.31191,-6.491987 C 190.06596,28.53244 182.96667,26.584527 176,24.613099 163.49363,21.074044 158.56065,20.374514 124.82275,17.355799 111.47185,16.16122 105.53168,16.184678 98.156088,17.461106 92.936907,18.364342 86.566667,18.989752 84,18.850907 c -2.566667,-0.138845 -9.166667,0.618879 -14.666667,1.683831 -19.383669,3.753216 -41.264536,8.598698 -42.62431,9.439085 -2.511183,1.551996 -1.427639,3.218408 2.957644,4.548644 2.383333,0.722962 6.937804,2.266978 10.121048,3.431147 3.183242,1.164168 9.183242,2.666893 13.333333,3.339388 4.150089,0.672496 10.245619,1.889053 13.545619,2.703463 7.148682,1.764228 48.570503,5.242312 53.333333,4.478264 1.83333,-0.294103 7.83333,-1.083071 13.33333,-1.753266 z"
       id="path372" />
  </g>
</svg>
