<?xml version="1.0" encoding="UTF-8" standalone="no"?>
<!-- Created with Inkscape (http://www.inkscape.org/) -->

<svg
   version="1.1"
   id="svg185"
   width="160"
   height="197.33333"
   viewBox="0 0 160 197.33333"
   xmlns="http://www.w3.org/2000/svg"
   xmlns:svg="http://www.w3.org/2000/svg">
  <defs
     id="defs189" />
  <g
     id="g191">
    <path
       style="fill:#000000;stroke-width:1.33333"
       d="m 75.394043,191.20357 c -1.232354,-1.23236 -2.026468,-3.74939 -1.799764,-5.70453 C 73.993653,182.05473 74.16344,182 84.448492,182 c 9.787784,0 10.651391,-0.23587 13.657148,-3.72995 1.76476,-2.05148 3.53375,-5.35148 3.93109,-7.33333 0.39733,-1.98187 1.24477,-5.40339 1.8832,-7.60339 0.63842,-2.2 1.87272,-8.2 2.74288,-13.33333 0.87016,-5.13334 3.09388,-15.77604 4.9416,-23.65045 1.84772,-7.87442 2.99951,-15.75139 2.55953,-17.50438 -1.09109,-4.34724 -13.55969,-16.769041 -23.04284,-22.956341 -4.283272,-2.79463 -9.758644,-6.762874 -12.167495,-8.818321 -7.372293,-6.2907 -8.286938,-5.383709 -8.286938,8.217588 0,14.754304 -3.49968,24.364284 -13.369431,36.711904 -2.930855,3.66666 -5.949784,9.06666 -6.708733,12 -2.4679,9.53842 -3.977376,11.94321 -9.833914,15.66666 -6.870564,4.36816 -7.638112,4.44367 -10.70633,1.05332 -4.804146,-5.30852 0.899929,-18.04696 10.828961,-24.18344 5.098339,-3.15095 7.712781,-6.70002 8.98956,-12.20321 1.609497,-6.93728 -2.544467,-4.64281 -13.86678,7.65942 -2.857763,3.1051 -11.792463,8.67391 -13.91656,8.67391 -0.988975,0 -2.131461,0.86863 -2.538857,1.93029 -0.407396,1.06166 -2.492074,2.83594 -4.632616,3.94286 -5.146639,2.66144 -8.8591335,0.37013 -7.5904475,-4.68471 1.4110633,-5.62213 16.5658925,-19.79029 23.3451475,-21.82524 8.299374,-2.49126 18.27352,-10.323102 23.549664,-18.491535 2.661573,-4.120601 3.51119,-7.657672 4.323664,-18 0.595145,-7.575845 1.92637,-14.62729 3.235589,-17.138779 2.9566,-5.671676 2.931196,-5.73288 -2.379513,-5.73288 -11.863132,0 -16.053815,-6.314432 -15.111635,-22.769885 1.0506,-18.3490169 5.381771,-23.8967811 18.656356,-23.8967811 9.864211,0 15.224799,9.6956501 14.180141,25.6475011 l -0.454266,6.93661 5.886353,1.009254 c 7.362095,1.262277 14.443615,7.086797 28.94344,23.805847 6.78476,7.823185 12.2629,12.912659 14.66666,13.626095 9.155,2.717196 16.08691,6.748164 19.05597,11.081234 2.71288,3.959181 3.04222,5.642983 2.37267,12.130368 -0.50211,4.864921 -0.0639,10.171161 1.2374,14.981391 2.02176,7.47382 4.97593,49.3018 4.61617,65.36006 -0.10573,4.71809 -0.84761,9.36809 -1.64869,10.33333 -1.76848,2.13091 -25.8489,2.49445 -27.13735,0.40971 -0.45728,-0.7399 -0.45226,-2.5399 0.0112,-4 0.68704,-2.16479 2.02314,-2.65474 7.23955,-2.65474 4.45275,0 7.46476,-0.83989 9.91015,-2.76344 3.02926,-2.38281 3.51314,-3.76658 3.51314,-10.04654 0,-6.32115 -4.74622,-25.03198 -7.91173,-31.19002 -1.34215,-2.61096 -12.02844,-3.37065 -14.89124,-1.05864 -1.28217,1.0355 -4.09771,9.98823 -7.04205,22.39198 -7.35811,30.99789 -7.21196,30.56465 -10.53795,31.23876 -1.6227,0.32888 -8.440465,0.95174 -15.150596,1.38413 -10.275036,0.66211 -12.548261,0.43813 -14.405721,-1.41932 z M 140.08765,127.95309 C 143.42569,126.16663 143.39895,121.29911 140,112 c -1.46667,-4.01263 -2.66667,-10.44405 -2.66667,-14.292051 v -6.996361 l -6.67379,-3.381865 c -6.28523,-3.184968 -6.86441,-3.25696 -9.948,-1.236515 -4.33631,2.841256 -5.26931,6.286697 -2.93544,10.840152 1.05243,2.053318 2.34965,8.13722 2.88272,13.51978 1.37457,13.87945 2.33013,16.65643 6.09308,17.70729 5.01047,1.39926 10.49307,1.31401 13.33575,-0.20734 z M 112.49828,82.06986 c 2.75177,-4.199723 1.945,-6.058139 -4.89837,-11.283588 C 104.51996,68.434486 98.7,62.396147 94.666667,57.367742 90.633333,52.339335 86.478031,47.852941 85.43266,47.397975 83.121476,46.392103 72,56.884611 72,60.070959 c 0,2.801461 3.158856,5.540305 10.666667,9.24839 3.3,1.62986 8.1,4.930856 10.666666,7.335546 5.190191,4.862648 11.526627,8.543753 14.846657,8.625053 1.19899,0.02936 3.14222,-1.415179 4.31829,-3.210088 z M 63.534257,39.376147 c 3.49989,-2.451418 5.941594,-11.886918 4.669091,-18.042814 -0.865268,-4.185844 -1.461897,-4.708525 -5.790647,-5.072935 -3.785465,-0.318672 -5.284518,0.248379 -6.952677,2.63001 -2.772221,3.957898 -2.802624,15.55121 -0.05108,19.479583 2.427643,3.465947 4.285095,3.695954 8.125319,1.006156 z"
       id="path511" />
  </g>
</svg>
