<?xml version="1.0" encoding="UTF-8" standalone="no"?>
<!-- Created with Inkscape (http://www.inkscape.org/) -->

<svg
   version="1.1"
   id="svg2"
   width="214.66667"
   height="216"
   viewBox="0 0 214.66667 216"
   xmlns="http://www.w3.org/2000/svg"
   xmlns:svg="http://www.w3.org/2000/svg">
  <defs
     id="defs6" />
  <g
     id="g8">
    <path
       style="fill:#000000;stroke-width:1.33333"
       d="m 76.105969,206.77264 c -3.442215,-3.44221 -3.500368,-6.79741 -0.228078,-13.15909 4.121172,-8.01199 14.446186,-16.16179 22.122111,-17.46155 8.122408,-1.37536 24.018638,-0.42332 29.029698,1.73863 7.46936,3.22253 15.186,10.83937 17.72997,17.50066 2.09291,5.48019 2.09617,6.1214 0.0472,9.24858 -1.87696,2.86458 -3.22945,3.36928 -9.17091,3.42213 -3.8331,0.0341 -18.17158,0.38179 -31.8633,0.77264 -23.925739,0.68299 -25.001875,0.60279 -27.666664,-2.062 z m 62.065541,-6.07213 c 0.99547,-2.59412 -3.94079,-10.45827 -7.7926,-12.41472 -16.61596,-8.43972 -33.2394,-7.25252 -43.448627,3.10298 -3.2063,3.25224 -5.57807,6.67023 -5.270598,7.59554 0.414786,1.24824 6.37967,1.76678 23.116345,2.00956 12.40652,0.17996 24.05731,0.54006 25.89064,0.80022 1.83333,0.26016 4.10216,0.56292 5.04184,0.6728 0.93969,0.10987 2.04804,-0.685 2.463,-1.76638 z M 35.730678,121.06545 c -1.843788,-2.41933 -4.95883,-7.57099 -6.922312,-11.44814 -2.103084,-4.1528 -4.16223,-6.68331 -5.011354,-6.15852 -0.79276,0.48995 -3.45625,5.31216 -5.918868,10.71602 -4.342633,9.52928 -5.968379,10.99555 -9.6221311,8.6783 C 6.2852749,121.60324 7.2913286,115.30729 9.9902735,112 c 0.8976635,-1.1 2.3374805,-4.1 3.1995915,-6.66667 2.742415,-8.164678 7.827403,-14.666663 11.470317,-14.666663 2.396294,0 3.51609,0.904748 4.125626,3.333333 0.460138,1.833333 1.244796,3.333333 1.743687,3.333333 0.498889,0 2.907082,3.299997 5.351538,7.333337 C 38.325489,108.7 40.823399,112 41.431946,112 c 0.608547,0 3.496389,-5.1 6.417428,-11.33333 4.999303,-10.668237 6.952278,-12.650001 10.163106,-10.312919 1.55948,1.135106 8.654188,11.856869 8.654188,13.078499 0,2.08539 5.685645,8.50739 6.878968,7.76987 0.737949,-0.45607 2.500291,-3.53205 3.916316,-6.83551 8.293768,-19.34857 14.134709,-18.197646 25.206118,4.96672 1.25007,2.61549 3.00227,2.31069 4.69251,-0.81626 0.74832,-1.38439 2.89215,-4.91707 4.76407,-7.8504 1.87193,-2.933337 3.79084,-6.383337 4.26425,-7.66667 0.47341,-1.283333 2.08024,-2.333333 3.57074,-2.333333 3.30681,0 12.36637,9.086097 15.64203,15.687853 1.31908,2.65847 3.06919,5.03988 3.88912,5.29202 0.81993,0.25213 3.98755,-4.34067 7.03915,-10.20623 3.0516,-5.865558 6.1361,-11.027903 6.85448,-11.471878 3.08408,-1.906069 6.86197,1.482967 11.97165,10.739408 3.00424,5.44234 6.00177,10.22861 6.66119,10.63615 1.38832,0.85804 3.85801,-2.65502 8.9929,-12.792123 2.13454,-4.213911 4.7018,-7.412239 6.1678,-7.683906 2.52488,-0.467888 8.6785,5.609018 8.7741,8.66472 0.0264,0.842979 2.14794,4.653269 4.71461,8.467319 5.05256,7.50808 5.73419,10.78752 2.75588,13.25929 -2.35805,1.95701 -5.05899,-0.57595 -10.44604,-9.79639 -4.63629,-7.93544 -7.23483,-7.65798 -11.42263,1.21966 -7.49968,15.8984 -11.12588,15.2001 -20.85389,-4.01589 -1.485,-2.93334 -3.54929,-5.33334 -4.58732,-5.33334 -1.03804,0 -3.78388,3.71301 -6.10185,8.25113 -8.61431,16.865 -9.95023,16.81231 -22.01082,-0.8682 -1.1,-1.61257 -3.1619,-3.56441 -4.58199,-4.33743 -2.1339,-1.16156 -3.10042,-0.75531 -5.56927,2.34093 -1.64301,2.06052 -4.01618,6.02809 -5.27372,8.8168 -4.38277,9.71925 -10.10135,8.50813 -16.571568,-3.50965 -2.564768,-4.76379 -5.413575,-8.94939 -6.330681,-9.30132 -1.874951,-0.71948 -4.765552,3.2182 -9.67277,13.17661 -4.572758,9.27968 -8.682015,9.83923 -13.213144,1.7992 -7.368131,-13.074 -9.644475,-16.04378 -11.146385,-14.54187 -0.806282,0.80628 -3.675075,5.52523 -6.375097,10.48655 -5.830578,10.71376 -8.641925,11.83944 -13.534697,5.41937 z M 97.657303,37.123968 c -0.911516,-0.911516 -1.657302,-2.622624 -1.657302,-3.802461 0,-1.179839 -0.816337,-3.26157 -1.814084,-4.626068 C 92.483703,26.367521 90.048301,26.229371 54.693288,26.455177 33.970087,26.587532 15.672679,27.032659 14.032379,27.444348 8.5587403,28.818144 4.1739537,21.061953 8.4282201,17.531227 9.5681279,16.585187 24.742666,15.757993 51.428221,15.187211 74.109366,14.70208 93.344359,13.773039 94.172648,13.122675 c 0.828289,-0.650363 1.847693,-2.891043 2.265343,-4.9792883 1.449585,-7.24792905 10.228679,-5.5726898 10.228679,1.9518513 0,1.780953 0.78,3.238095 1.73333,3.238095 2.66419,0 4.93334,-2.87074 4.93334,-6.2412637 0,-2.1131626 0.9941,-3.2907686 3.25755,-3.8588576 4.41032,-1.1069202 6.07578,0.1951887 6.07578,4.7502395 0,7.8724058 0.20064,7.9080048 44.06468,7.8180238 29.74724,-0.06103 40.49589,0.337242 41.96301,1.554837 2.60839,2.164771 2.52288,7.480443 -0.13674,8.501036 -1.15998,0.445125 -18.40998,0.815923 -38.33334,0.823993 -45.02218,0.01824 -45.67296,0.10759 -47.17946,6.477726 C 122.00411,37.559629 121.48454,38 117.33334,38 c -4.18784,0 -4.66593,-0.419883 -5.76378,-5.062068 -1.43772,-6.079288 -3.97894,-5.819413 -4.90289,0.501389 -0.53452,3.656674 -1.32925,4.63811 -4.00937,4.951314 -1.83848,0.214849 -4.088481,-0.355151 -4.999997,-1.266667 z"
       id="path30" />
  </g>
</svg>
