<?xml version="1.0" encoding="UTF-8" standalone="no"?>
<!-- Created with Inkscape (http://www.inkscape.org/) -->

<svg
   version="1.1"
   id="svg165"
   width="118.66667"
   height="214.66667"
   viewBox="0 0 118.66667 214.66667"
   xmlns="http://www.w3.org/2000/svg"
   xmlns:svg="http://www.w3.org/2000/svg">
  <defs
     id="defs169" />
  <g
     id="g171">
    <path
       style="fill:#000000;stroke-width:1.33333"
       d="m 26.667351,209.16874 c -5.840541,-2.32895 -9.180463,-6.56768 -10.121937,-12.8459 -1.054118,-7.02934 1.402224,-19.5108 4.786724,-24.32284 2.174596,-3.09181 3.909515,-10.70948 4.251325,-18.66666 0.19377,-4.51086 -4.944609,-26.75141 -6.426416,-27.8156 -1.571237,-1.12842 -6.754782,-13.14106 -7.840941,-18.17105 -0.473475,-2.19265 -1.4585976,-4.35606 -2.189162,-4.80758 C 6.1385768,100.6922 3.6459368,55.26117 6.0248426,46.000001 c 0.5651115,-2.2 3.1156727,-8.18389 5.6679134,-13.297532 5.228978,-10.476725 13.602298,-19.096559 23.566521,-24.2603313 5.938659,-3.0775992 8.09137,-3.4164966 21.70193,-3.4164966 14.062274,0 15.474484,0.2416547 20.378805,3.4871796 C 80.238228,10.430769 83.24119,12 84.013262,12 c 0.772071,0 1.749128,0.9 2.171239,2 0.422109,1.1 1.354959,2 2.072999,2 2.491925,0 10.596863,8.708671 15.35185,16.495401 12.53799,20.532136 12.71083,47.456632 0.51024,79.485779 -1.53244,4.02298 -2.78625,8.55298 -2.78625,10.06667 0,1.51368 -0.54425,3.32215 -1.20943,4.01882 -0.665185,0.69667 -1.828925,3.36667 -2.586089,5.93333 -0.757164,2.56667 -2.912922,8.74396 -4.790574,13.72732 -1.877651,4.98336 -3.413911,10.28798 -3.413911,11.78804 0,1.50008 2.1,5.18078 4.666667,8.17935 2.566666,2.99857 4.666666,6.17049 4.666666,7.04869 0,0.87822 0.824091,2.28068 1.831311,3.1166 2.92494,2.42748 3.81978,13.57079 1.59593,19.87386 -2.339859,6.63185 -9.499869,13.50665 -14.122969,13.5604 -2.143836,0.0249 -5.576832,-2.01456 -9.472741,-5.62759 -5.940469,-5.50912 -6.135233,-5.94296 -7.005458,-15.60457 -0.834308,-9.26286 -0.606748,-10.59406 3.350133,-19.59787 l 4.245243,-9.65997 -3.843553,-5.03915 c -2.113954,-2.77155 -5.742147,-6.70615 -8.062652,-8.74359 -2.320507,-2.03742 -5.213885,-5.80076 -6.42973,-8.36297 -1.215845,-2.5622 -2.632477,-4.63255 -3.148071,-4.60079 -1.04055,0.0641 -13.250903,16.96228 -16.057069,22.22171 -1.288909,2.41573 -1.381723,3.75252 -0.333334,4.80091 0.799127,0.79913 1.452959,3.41448 1.452959,5.8119 0,2.39742 1.1616,6.62742 2.581335,9.4 7.410024,14.47095 4.005726,27.6266 -8.848455,34.19419 -4.84935,2.47768 -5.172772,2.50035 -9.732197,0.68227 z M 39.47854,193.69492 c 1.278102,-6.81288 -0.38592,-15.89344 -3.745098,-20.43696 l -2.97768,-4.02753 -2.36431,3.05145 c -3.165118,4.085 -5.041637,11.02367 -5.050682,18.67554 -0.0065,5.48616 0.453827,6.53244 3.59896,8.18033 5.127195,2.68641 9.430712,0.46383 10.53881,-5.44283 z m 53.112524,0.67507 c 2.511333,-3.58543 2.586763,-6.78725 0.313636,-13.31313 -1.926412,-5.53051 -5.805091,-10.39019 -8.292759,-10.39019 -5.38054,0 -7.270895,18.85191 -2.427057,24.20429 3.019796,3.33684 7.882029,3.10276 10.40618,-0.50097 z M 43.341943,137.46504 c 3.295265,-5.34476 5.991392,-10.44089 5.991392,-11.32473 0,-0.88383 0.67607,-2.28305 1.502378,-3.10935 2.079811,-2.07981 0.691975,-6.6072 -4.366348,-14.24388 -3.7892,-5.72065 -4.370253,-7.82587 -4.889269,-17.714435 -0.532772,-10.150624 -0.318035,-11.4747 2.248777,-13.866049 1.560787,-1.454095 2.837795,-3.180003 2.837795,-3.835351 0,-1.247095 1.828297,-1.934837 8.949863,-3.366629 3.722129,-0.748336 5.025279,-0.168931 9.948283,4.423198 5.449033,5.082803 5.684979,5.636379 6.186675,14.515166 0.542482,9.600596 -1.159206,16.74863 -6.46154,27.14207 -3.020591,5.92084 -3.036709,5.8625 5.13361,18.58162 C 75.850519,143.11507 79.95761,148 81.63379,148 c 0.642923,0 2.047284,-1.95 3.120803,-4.33333 1.07352,-2.38333 2.523412,-5.23333 3.221984,-6.33333 2.403888,-3.78527 8.023426,-19.54698 8.023426,-22.50416 0,-1.62888 0.822561,-4.58181 1.827914,-6.56206 C 103.57473,96.94759 105.26393,63.63231 100.83423,48.975045 96.961304,36.160095 85.364141,22.264503 73.132553,15.78321 65.533433,11.756576 50.035383,11.699196 41.199257,15.664982 31.364964,20.078758 23.234854,28.421288 17.708547,39.769447 l -4.982057,10.230554 0.07828,24.59162 c 0.05576,17.516732 0.526648,24.741077 1.636755,25.111113 C 15.298688,99.988454 16,101.13155 16,102.24294 c 0,1.11139 0.840354,3.91139 1.867453,6.22222 1.0271,2.31083 2.187749,5.40151 2.579222,6.86818 0.391474,1.46666 2.25112,6.74396 4.132548,11.72731 1.881428,4.98336 3.420778,10.17167 3.420778,11.52957 0,3.09704 6.860265,11.08285 8.291384,9.65173 0.58254,-0.58253 3.755291,-5.43215 7.050558,-10.77691 z m 18.969459,-32.90203 c 3.440425,-6.041608 3.870383,-13.721382 1.071246,-19.134314 -3.151456,-6.094244 -8.012962,-6.428817 -12.627189,-0.869013 -3.818311,4.600782 2.30382,27.295607 6.951096,25.767807 0.894729,-0.29414 2.966909,-2.88816 4.604847,-5.76448 z"
       id="path789" />
  </g>
</svg>
