<?xml version="1.0" encoding="UTF-8" standalone="no"?>
<!-- Created with Inkscape (http://www.inkscape.org/) -->

<svg
   version="1.1"
   id="svg75"
   width="214.66667"
   height="210.66667"
   viewBox="0 0 214.66667 210.66667"
   xmlns="http://www.w3.org/2000/svg"
   xmlns:svg="http://www.w3.org/2000/svg">
  <defs
     id="defs79" />
  <g
     id="g81">
    <path
       style="fill:#000000;stroke-width:1.33333"
       d="m 93.208044,204.71455 c -15.110399,-5.56312 -22.735472,-13.47528 -27.214702,-28.23939 -2.505921,-8.25982 -2.485241,-11.96885 0.124667,-22.35893 1.589467,-6.32771 3.58202,-10.10541 7.984745,-15.13839 8.375077,-9.57397 15.200959,-13.14819 28.618136,-14.98526 12.52935,-1.71551 16.63778,-0.98624 29.03719,5.15428 8.54707,4.23273 9.5091,5.25354 14.78159,15.68474 3.37005,6.66739 4.127,9.77624 4.127,16.94999 0,12.49377 -6.55289,28.99397 -14.24356,35.86533 -1.4242,1.27248 -6.74943,3.82248 -11.83384,5.66667 -10.42342,3.78073 -23.34987,4.35781 -31.381223,1.40096 z m 22.085976,-7.3176 c 0.72006,-1.16508 -37.826536,-40.1592 -40.70217,-41.17472 -0.692184,-0.24445 -1.258516,0.77001 -1.258516,2.25437 0,1.61011 5.580821,8.51274 13.834449,17.11111 7.608946,7.92676 15.542557,16.36229 17.630247,18.74563 3.67865,4.19958 8.85935,5.71176 10.49599,3.06361 z m -19.294019,-1.02773 c 0,-1.30959 -16.324073,-17.70255 -17.628149,-17.70255 -4.086514,0 4.450356,12.7148 10.642524,15.85096 5.66928,2.87133 6.985625,3.22024 6.985625,1.85159 z M 128,189.85363 c 0,-1.18051 -5.98577,-7.93051 -13.30171,-15 C 98.71299,159.40682 94.228597,152 100.86176,152 c 1.12075,0 9.20096,7.05 17.95602,15.66667 14.50606,14.27675 19.85756,18.4382 19.8439,15.43109 -0.0157,-3.47342 -10.37195,-14.86317 -40.01283,-44.00614 -7.11375,-6.99426 -10.648849,-6.86498 -10.648849,0.38944 0,4.27989 -0.235585,4.51048 -4.281617,4.19069 -2.969411,-0.23469 -4.412845,0.28976 -4.709805,1.71127 C 78.424293,148.17991 122.0623,192 125.43186,192 126.9036,192 128,191.08367 128,189.85363 Z m 13.33334,-22.27884 c 0,-2.97675 -19.5929,-25.58336 -29.12236,-33.60187 -3.95895,-3.33123 -7.48415,-4.22764 -8.72567,-2.21882 -0.74108,1.19909 22.55686,25.57924 24.44379,25.57924 0.64742,0 3.37932,3 6.0709,6.66666 5.3779,7.32615 7.33334,8.27938 7.33334,3.57479 z m -2.02111,-20.97464 c -1.14391,-3.60409 -9.536,-11.93348 -12.02334,-11.93348 -2.92968,0 -2.47874,0.97965 3.71111,8.06245 5.9965,6.86155 9.82766,8.64574 8.31223,3.87103 z M 35.45361,103.16597 C 33.913995,99.153802 23.64,84.000001 22.459436,84.000001 c -1.142454,0 -3.258168,4.227286 -6.531872,13.050957 -2.003828,5.400952 -5.645064,7.699292 -7.8977148,4.985012 -2.0124955,-2.424911 -1.0148468,-5.595172 5.5342868,-17.586494 7.373227,-13.500218 8.419223,-14.134739 13.582586,-8.239453 2.302636,2.629041 5.875524,7.257304 7.939751,10.285026 2.064226,3.027724 4.464226,5.492399 5.333333,5.477055 0.869107,-0.01535 3.680195,-4.365344 6.246861,-9.666667 6.005756,-12.404593 9.001981,-13.294604 14.327386,-4.255868 2.019937,3.428414 5.267939,8.113684 7.21778,10.411714 l 3.545164,4.178233 2.454836,-4.452255 c 5.413288,-9.817908 10.141486,-16.18726 12.01638,-16.18726 2.691564,0 8.336119,6.090652 12.80033,13.811956 4.051927,7.00822 5.958617,7.309868 8.940747,1.414476 3.55778,-7.033378 8.22231,-13.68132 10.10696,-14.404528 2.76021,-1.059192 9.37818,5.148151 13.43448,12.600914 1.96886,3.61745 4.4123,6.577182 5.42986,6.577182 1.01756,0 2.8722,-1.859624 4.12143,-4.132497 9.73162,-17.705964 13.95925,-19.980424 19.24422,-10.353369 5.97322,10.88076 8.56096,14.485866 10.39795,14.485866 0.57439,0 3.23809,-4.5 5.91936,-10 4.84789,-9.944312 6.88536,-11.536532 11.23677,-8.781207 3.28906,2.082629 -1.86093,18.781207 -5.79228,18.781207 -1.13742,0 -2.06804,0.612864 -2.06804,1.36192 0,0.749056 -1.59973,3.779286 -3.55497,6.733839 -5.48104,8.28242 -8.93852,7.11499 -16.04145,-5.416429 -3.11351,-5.493035 -6.24903,-10.18337 -6.96782,-10.422964 -0.71878,-0.239596 -3.20325,3.354706 -5.52104,7.987336 -8.78146,17.551787 -12.34736,17.300437 -22.97438,-1.619396 -1.80746,-3.217902 -3.80844,-6.023232 -4.44664,-6.234067 -0.6382,-0.210835 -2.89193,2.930408 -5.00828,6.980537 -2.11636,4.05013 -5.64071,8.872393 -7.83188,10.716153 -5.14594,4.33002 -7.35373,2.97652 -14.055764,-8.617023 -2.712109,-4.691554 -5.531108,-8.591554 -6.264441,-8.666667 -0.733334,-0.07512 -3.133334,3.555485 -5.333334,8.067999 -4.818809,9.884071 -6.897788,12.462101 -10.049701,12.462101 -2.421606,0 -9.755652,-9.035241 -13.83456,-17.0436 -2.587415,-5.080021 -3.849652,-4.701443 -7.002469,2.100232 -4.805496,10.367058 -8.374462,14.943368 -11.654012,14.943368 -1.745674,0 -3.548217,-0.97532 -4.005649,-2.16737 z M 9.0764265,53.076428 C 2.6644011,46.664402 8.4262881,43.667633 23.43486,45.608578 c 12.330122,1.594561 13.240295,1.606795 24.231807,0.325679 5.424851,-0.632295 8.333334,-1.573008 8.333334,-2.695315 0,-2.950504 -6.982871,-6.846241 -15.333334,-8.554452 -12.325033,-2.521269 -12.417061,-2.568005 -9.411827,-4.779716 6.208041,-4.568826 24.6892,0.265078 32.519025,8.505625 l 4.440529,4.673464 26.892805,0.09731 c 14.791041,0.05352 37.463071,-0.04035 50.382281,-0.208597 l 23.4895,-0.305906 3.5105,-5.304746 c 1.93079,-2.917611 3.51926,-6.367611 3.52992,-7.666667 0.0107,-1.299056 0.99596,-5.06192 2.18954,-8.36192 1.19356,-3.3 2.54501,-8.1 3.00321,-10.666667 l 0.83309,-4.6666669 h 12.64404 12.64406 l 0.30457,22.3772669 0.30459,22.377268 -3.63792,1.42459 c -5.29592,2.07386 -22.43218,2.52213 -112.228152,2.9358 -76.229318,0.351169 -80.720639,0.240861 -83.0000015,-2.0385 z M 197.83859,28.8862 c 0.96081,-9.658437 0.82332,-12.129056 -0.76328,-13.71566 -2.98499,-2.984982 -6.23223,-0.796088 -7.86375,5.30077 -0.8137,3.04078 -2.01918,6.906922 -2.67885,8.591428 -0.65965,1.684505 -1.19937,5.169004 -1.19937,7.743331 v 4.680593 L 191,41.076665 l 5.66667,-0.409998 z"
       id="path928" />
  </g>
</svg>
