<?xml version="1.0" encoding="UTF-8" standalone="no"?>
<!-- Created with Inkscape (http://www.inkscape.org/) -->

<svg
   version="1.1"
   id="svg75"
   width="94.666664"
   height="60"
   viewBox="0 0 94.666664 60"
   xmlns="http://www.w3.org/2000/svg"
   xmlns:svg="http://www.w3.org/2000/svg">
  <defs
     id="defs79" />
  <g
     id="g81">
    <path
       style="fill:#000000;stroke-width:1.33333"
       d="M 9.8725415,55.582087 C 5.928844,53.375083 2.7594397,48.948779 2.7110257,45.580508 2.6711779,42.808211 4.9749237,36.268536 10.078392,24.666667 12.462239,19.247393 22.014894,10.277225 29.333333,6.5858244 43.435312,-0.52717644 66.177423,4.2933007 77.077624,16.705828 c 5.012484,5.707932 15.012692,27.118208 14.928113,31.960839 -0.107466,6.153108 -0.34615,6.19513 -38.821454,6.835006 -20.084689,0.334024 -37.482397,0.804338 -38.661573,1.045139 -1.179176,0.240803 -3.271751,-0.193324 -4.6501685,-0.964725 z M 78.278612,43.499163 C 80.238726,41.539049 75.398761,31.557051 69.199263,24.773813 61.784258,16.660616 57.182206,14.686328 45.656896,14.674103 40.537984,14.668672 36.8119,15.655735 31.843587,18.333333 22.847771,23.181495 14.666666,33.790929 14.666666,40.608739 v 3.311589 l 17,0.502817 c 21.311813,0.630348 45.537845,0.15012 46.611946,-0.923982 z"
       id="path332" />
  </g>
</svg>
