<?xml version="1.0" encoding="UTF-8" standalone="no"?>
<!-- Created with Inkscape (http://www.inkscape.org/) -->

<svg
   version="1.1"
   id="svg223"
   width="69.333336"
   height="80"
   viewBox="0 0 69.333336 80"
   xmlns="http://www.w3.org/2000/svg"
   xmlns:svg="http://www.w3.org/2000/svg">
  <defs
     id="defs227" />
  <g
     id="g229">
    <path
       style="fill:#000000;stroke-width:1.33333"
       d="M 12.932205,74.584301 C 10.144918,74.115027 7.226034,73.0927 6.4457972,72.312464 4.4998008,70.366468 3.4570185,42.239708 4.6330572,23.417785 5.5704566,8.4151656 5.7120254,7.8726512 9.1540202,6.0927267 13.721721,3.7306769 59.012433,3.8116807 61.386441,6.1861457 c 2.589945,2.5904444 3.582816,22.8763023 2.16502,44.2346693 -1.327592,19.999488 -1.426356,20.456924 -4.786843,22.170941 -3.821695,1.949255 -37.415043,3.409712 -45.832413,1.992545 z m 39.1727,-10.780314 c 2.172164,-4.058726 1.117608,-45.782916 -1.215986,-48.111232 -1.942141,-1.93775 -32.572501,-2.453678 -34.445834,-0.580195 -0.610363,0.610412 -1.19261,12.129667 -1.293882,25.598345 l -0.18413,24.488506 6.18413,0.493297 c 3.401273,0.271313 11.413021,0.601445 17.803886,0.733628 10.648606,0.220244 11.747802,0.0011 13.151816,-2.622349 z"
       id="path251" />
  </g>
</svg>
