<?xml version="1.0" encoding="UTF-8" standalone="no"?>
<!-- Created with Inkscape (http://www.inkscape.org/) -->

<svg
   version="1.1"
   id="svg213"
   width="209.33333"
   height="217.33333"
   viewBox="0 0 209.33333 217.33333"
   xmlns="http://www.w3.org/2000/svg"
   xmlns:svg="http://www.w3.org/2000/svg">
  <defs
     id="defs217" />
  <g
     id="g219">
    <path
       style="fill:#000000;stroke-width:1.33333"
       d="m 38.233314,209.27864 c -3.023012,-2.3779 -3.271108,-3.13514 -1.965792,-6 0.821617,-1.80326 2.147541,-3.3452 2.946497,-3.42654 0.798956,-0.0813 4.796052,-0.34989 8.882438,-0.59676 8.949551,-0.54066 21.136961,-4.88817 26.607767,-9.49156 5.262235,-4.42788 12.905551,-16.06254 16.134063,-24.55929 3.213557,-8.4574 8.736115,-19.45075 10.237223,-20.37848 0.61942,-0.38283 3.16872,-4.77529 5.66511,-9.76103 2.49639,-4.98574 5.151,-9.50579 5.89913,-10.04456 2.45951,-1.77122 13.36718,-1.06692 16.4025,1.0591 4.04028,2.82992 13.74596,18.02222 18.26305,28.58714 2.03802,4.76667 4.78235,11.11288 6.09851,14.10268 2.08248,4.7306 5.58873,18.68275 7.59285,30.21359 0.34888,2.00728 0.27079,5.09803 -0.17353,6.86833 -0.7638,3.04324 -1.33531,3.21415 -10.48216,3.13462 -5.32087,-0.0463 -15.13391,0.39105 -21.80676,0.97181 -11.71849,1.01992 -12.15801,0.95824 -12.88131,-1.80767 -1.00744,-3.85244 2.21736,-6.81301 7.44234,-6.83252 5.39892,-0.0201 16.30369,-2.91289 21.90476,-5.81072 5.13625,-2.65734 5.62357,-6.47946 1.88094,-14.75249 -1.34882,-2.98152 -3.89882,-8.69569 -5.66666,-12.69815 -1.76786,-4.00246 -5.46428,-10.7727 -8.21428,-15.045 -2.75,-4.27228 -5,-8.24296 -5,-8.82372 0,-0.58076 -1.39858,-2.36982 -3.10796,-3.97569 -3.01192,-2.82956 -3.17673,-2.8438 -5.33333,-0.46077 -1.22396,1.35246 -2.22538,2.84989 -2.22538,3.32762 0,0.47774 -3,5.20984 -6.66667,10.51578 C 107,158.90029 104,163.66973 104,164.19313 c 0,0.5234 -2.31523,4.44405 -5.144946,8.71259 -6.777158,10.22308 -10.577049,17.82266 -13.454527,26.90836 -3.406064,10.75472 -6.298714,12.48208 -18.059376,10.78421 -6.340403,-0.91536 -11.376336,-0.90649 -15.732294,0.0277 -8.661308,1.85752 -9.3952,1.7836 -13.375543,-1.34734 z M 4.836613,108.64614 c -5.66758163,-5.66759 1.1170506,-14.481473 11.836555,-15.376824 4.787374,-0.399867 10.918705,1.123536 14.904257,3.70314 2.42649,1.570518 6.197577,1.655057 22.666666,0.508127 23.509397,-1.637228 57.185789,-5.799352 58.632989,-7.246555 0.56573,-0.565729 0.32553,-2.049821 -0.53377,-3.297981 -0.85931,-1.24816 -3.17923,-4.969382 -5.15538,-8.269382 C 103.17923,71.972502 95.979394,60.592347 90.947739,52.997217 89.124893,50.245687 86.284956,43.877453 84.636767,38.845586 82.20716,31.428074 81.80796,28.085344 82.527283,21.181702 83.568768,11.18615 84.166091,10.005417 89.603831,7.1934528 95.433188,4.1789749 107.20011,5.7455619 111.57284,10.118294 c 1.76827,1.768271 4.38776,3.215039 5.8211,3.215039 1.43333,0 2.60606,0.859568 2.60606,1.910149 0,1.050583 1.21429,2.295552 2.69843,2.766599 1.48414,0.471048 5.17429,4.26148 8.20033,8.423184 5.4245,7.460302 19.65734,22.763218 21.25556,22.853626 0.45153,0.02555 4.0967,3.196442 8.10036,7.046441 6.58977,6.336848 7.55409,8.01912 10.17902,17.757466 1.59479,5.916606 2.89963,12.032583 2.89963,13.591062 0,6.175877 11.14184,9.230899 16.85605,4.621824 1.57083,-1.267027 3.82083,-4.223889 5,-6.570805 2.36584,-4.708763 2.9118,-17.100944 0.81062,-18.399547 -0.73334,-0.453225 -1.33334,-2.005745 -1.33334,-3.450045 0,-4.099012 -7.1601,-17.274454 -13.85225,-25.489753 -5.85729,-7.190449 -14.29957,-13.138616 -21.05372,-14.833798 -1.77933,-0.446586 -5.0034,-2.613552 -7.16459,-4.815484 -2.16118,-2.201931 -4.66561,-4.020178 -5.56537,-4.040548 -2.36195,-0.05348 -6.12768,-6.3259124 -5.21919,-8.6934104 0.60311,-1.5716405 3.22542,-2.0102937 12.01772,-2.0102937 h 11.24631 l 13.55431,13.6666661 c 11.556,11.651787 14.46254,15.504447 19.7148,26.132088 6.02968,12.200733 6.1713,12.781125 6.66981,27.333333 l 0.50931,14.867912 -4.42856,6.544418 c -6.69775,9.897743 -11.15715,11.757683 -25.76191,10.744823 -9.02884,-0.62616 -13.15545,-0.35109 -16.66667,1.11097 -3.52141,1.4663 -13.99228,2.15386 -42.66666,2.80168 -20.900002,0.47217 -50.900001,1.15373 -66.666667,1.51456 -15.766667,0.36083 -31.740191,0.98086 -35.49672,1.37785 -5.2358589,0.55331 -7.3365382,0.2153 -9,-1.44816 z M 159.52453,93.153715 c 2.36436,-2.221208 3.14213,-4.384012 3.14213,-8.73756 0,-6.474567 -1.79125,-10.380387 -6.56313,-14.3109 -8.55011,-7.04256 -22.78409,-21.38188 -23.51698,-23.690998 -0.4523,-1.425094 -3.61931,-5.474384 -7.0378,-8.998422 -3.41848,-3.524038 -8.0194,-8.482301 -10.22427,-11.018362 -2.20487,-2.536061 -6.50735,-6.048971 -9.56106,-7.806467 -5.45142,-3.137438 -5.60254,-3.149901 -8.324484,-0.686576 -4.867749,4.405252 -3.30452,15.269841 4.618004,32.095569 4.08559,8.676911 24.48926,40.466938 27.66362,43.101421 2.43964,2.024721 16.09916,4.192488 22.1373,3.513193 2.48848,-0.279957 5.93848,-1.837361 7.66667,-3.460898 z"
       id="path390" />
  </g>
</svg>
