<?xml version="1.0" encoding="UTF-8" standalone="no"?>
<!-- Created with Inkscape (http://www.inkscape.org/) -->

<svg
   version="1.1"
   id="svg203"
   width="201.33333"
   height="212"
   viewBox="0 0 201.33333 212"
   xmlns="http://www.w3.org/2000/svg"
   xmlns:svg="http://www.w3.org/2000/svg">
  <defs
     id="defs207" />
  <g
     id="g209">
    <path
       style="fill:#000000;stroke-width:1.33333"
       d="m 64.666666,205.08579 c -2.2,-0.74343 -10.3,-1.74186 -18,-2.21874 -13.765836,-0.85254 -14,-0.92214 -14,-4.16101 0,-4.42151 4.741191,-6.66167 14.151347,-6.68639 16.404801,-0.0431 25.219135,-3.49032 29.58561,-11.57076 0.878006,-1.62481 3.730926,-6.7405 6.339822,-11.36821 2.608896,-4.62771 5.559111,-10.51401 6.556034,-13.08068 2.062535,-5.31019 15.736901,-31.80521 17.719811,-34.33333 0.75904,-0.96775 4.33944,-1.66667 8.53791,-1.66667 5.87445,0 7.782,0.58925 10.17007,3.14157 3.96492,4.23764 11.54878,17.21348 15.30803,26.19176 3.86986,9.24244 11.61019,34.19623 13.8032,44.49967 1.5491,7.27809 1.484,7.96741 -0.91898,9.73051 -1.48783,1.09164 -3.71874,1.52188 -5.25286,1.01304 -3.66434,-1.2154 -6.01337,-1.16596 -21.33333,0.44905 -11.13445,1.17379 -13.65944,1.09104 -15.31073,-0.50169 -3.43834,-3.31642 -0.0241,-6.41407 8.11469,-7.36231 7.15101,-0.83315 19.63372,-4.03865 22.41083,-5.755 0.79853,-0.49352 1.45188,-3.73045 1.45188,-7.19319 0,-5.02981 -1.51051,-9.23697 -7.51139,-20.9213 -4.13127,-8.044 -8.33127,-15.57268 -9.33334,-16.73043 -1.00206,-1.15775 -1.82194,-2.5714 -1.82194,-3.14147 0,-2.15237 -8.29078,-11.39788 -9.53264,-10.63037 -0.71418,0.44139 -1.84594,2.24237 -2.51502,4.00219 -0.66908,1.75981 -7.08257,12.05153 -14.252209,22.87048 -13.508014,20.38354 -19.398608,31.23765 -20.986016,38.66917 -0.883758,4.13735 -5.099973,8.46388 -8.010787,8.22039 -0.753496,-0.063 -3.169992,-0.72287 -5.369992,-1.46628 z M 59.197487,33.664089 C 56.922772,30.182173 54.05894,25.683333 52.833416,23.666667 51.607892,21.65 49.869023,20.001636 48.969262,20.003636 c -0.899761,0.002 -3.735929,4.052 -6.302596,9 -3.449335,6.649601 -5.471217,9.110387 -7.750929,9.433473 -3.561626,0.504764 -8.42374,-4.132048 -12.467089,-11.889382 -2.489472,-4.776159 -6.116252,-8.870714 -6.853743,-7.737728 -0.187359,0.287834 -1.383184,2.815341 -2.657388,5.616681 -2.828093,6.217567 -6.7393107,6.340127 -7.3101228,0.229068 C 5.214883,20.239444 11.39904,7.0902288 14.938624,4.8575165 c 3.083901,-1.9452746 5.386265,0.3564374 12.020921,12.0175145 3.514958,6.177894 6.351654,9.734653 7.575852,9.498894 1.076328,-0.207282 2.94859,-3.246834 4.160584,-6.754561 2.846938,-8.239547 7.360268,-14.2860307 10.663649,-14.2860307 2.419889,0 5.190726,3.5496718 13.860072,17.7558947 2.656812,4.353645 5.28279,3.239821 6.567865,-2.785796 1.873454,-8.784493 9.904612,-16.5217183 13.850557,-13.3436395 0.900969,0.7256438 4.36372,5.4565445 7.695002,10.5131125 3.331283,5.05657 6.54653,9.193762 7.144991,9.193762 0.598461,0 3.431053,-4.554419 6.294653,-10.120931 2.8636,-5.566512 5.69741,-10.4243033 6.29736,-10.7950927 2.88819,-1.7849994 8.81839,2.7535675 11.38082,8.7100977 3.23131,7.511372 7.55088,12.774192 9.49734,11.571218 1.30565,-0.806935 3.85093,-5.021439 9.53788,-15.792834 2.68925,-5.0936011 6.40087,-6.6046454 9.51383,-3.873195 1.28333,1.1260536 2.33333,2.5020073 2.33333,3.0576749 0,2.1408671 9.45757,15.2430621 11.00292,15.2430621 0.89625,0 2.95476,-2.7 4.57445,-6 4.54011,-9.2500643 7.55696,-13.3253053 9.86767,-13.3295001 3.72317,-0.00676 18.55496,23.8684571 18.55496,29.8685401 0,3.170104 -0.46445,3.583816 -3.6106,3.216189 -3.63549,-0.424804 -4.76625,-2.016571 -10.40867,-14.652096 -2.29941,-5.149291 -5.98073,-7.827024 -5.98073,-4.350295 0,2.183566 -5.48912,13.173119 -8.4482,16.913828 -1.01517,1.283334 -3.01649,2.333334 -4.44737,2.333334 -2.92508,0 -8.42435,-4.582311 -8.4631,-7.05194 -0.0375,-2.392439 -7.7686,-14.281394 -9.2868,-14.281394 -0.71898,0 -3.47433,4.740847 -6.12301,10.535214 -3.7376,8.176553 -5.52645,10.67107 -7.99012,11.142029 -3.88696,0.74304 -5.63806,-1.120297 -11.3371,-12.063744 -2.82929,-5.432888 -5.07941,-8.249391 -6.389,-7.997187 -1.11185,0.214123 -3.85764,3.749008 -6.10176,7.855302 -6.98141,12.774624 -7.83838,13.712158 -11.657653,12.753581 -2.094223,-0.525616 -4.06006,-2.407252 -5.075063,-4.857687 -2.574059,-6.214329 -9.132029,-16.034174 -10.708074,-16.034174 -0.780624,0 -3.071588,3.45 -5.091029,7.666666 -7.780088,16.245096 -10.444149,17.39271 -17.017564,7.330756 z"
       id="path529" />
  </g>
</svg>
