<?xml version="1.0" encoding="UTF-8" standalone="no"?>
<!-- Created with Inkscape (http://www.inkscape.org/) -->

<svg
   version="1.1"
   id="svg83"
   width="192"
   height="209.33333"
   viewBox="0 0 192 209.33333"
   xmlns="http://www.w3.org/2000/svg"
   xmlns:svg="http://www.w3.org/2000/svg">
  <defs
     id="defs87" />
  <g
     id="g89">
    <path
       style="fill:#000000;stroke-width:1.33333"
       d="M 178.88396,203.20212 C 177.29779,202.09112 176,200.21338 176,199.02938 c 0,-1.18401 -0.86608,-3.10976 -1.92463,-4.27944 -3.10934,-3.43578 -4.81976,-18.67538 -4.61554,-41.12397 0.27929,-30.70257 -0.20951,-46.59968 -1.57972,-51.37733 -0.66739,-2.327072 -1.21375,-6.034998 -1.21411,-8.239839 -0.001,-7.55662 -5.20889,-18.359338 -12.42461,-25.773677 C 142.6304,56.304524 137.16615,54.56475 103.33333,52.026413 62.660067,48.974863 40.130552,48.348191 30.666667,50.005147 28.833333,50.326131 22.900188,50.156285 17.481897,49.62771 4.9052137,48.400807 3.4251437,46.004693 9.5408099,36.771721 11.764911,33.413941 14.278088,30.637873 15.125648,30.60268 15.973208,30.567488 19.066667,27.175025 22,23.063874 32.520952,8.3184599 39.625168,3.8156446 44.568785,8.7592612 47.378181,11.568658 46.408383,13.029109 32.734184,26.58136 c -6.242083,6.186415 -11.062,11.535267 -10.710929,11.886338 0.35107,0.351071 22.809605,0.774225 49.907856,0.940344 41.976449,0.257324 50.330829,0.635849 56.439239,2.557177 7.09698,2.232275 7.27681,2.219212 17.733,-1.288013 5.80982,-1.948736 11.46332,-4.254955 12.56332,-5.124931 7.0604,-5.583974 18.56674,-8.283343 20.68677,-4.853077 1.30895,2.117923 -0.69447,9.300801 -2.59413,9.300801 -0.93251,0 -4.4538,1.466616 -7.82508,3.259147 -3.37128,1.792529 -8.56066,3.987503 -11.53192,4.877716 -2.97127,0.890215 -5.38579,1.973599 -5.3656,2.407521 0.0201,0.433922 2.10205,2.288949 4.62637,4.122283 8.90181,6.465108 16.34695,19.164918 17.5872,29.999999 0.33577,2.933334 1.50952,7.313988 2.60832,9.734788 3.98853,8.787197 4.59852,22.666287 2.00407,45.598547 -3.23671,28.60901 -1.77156,54.59264 3.31641,58.81529 4.2278,3.50876 1.20215,7.53684 -3.29512,4.38683 z"
       id="path1103" />
  </g>
</svg>
