<?xml version="1.0" encoding="UTF-8" standalone="no"?>
<!-- Created with Inkscape (http://www.inkscape.org/) -->

<svg
   version="1.1"
   id="svg225"
   width="213.33333"
   height="94.666664"
   viewBox="0 0 213.33333 94.666664"
   xmlns="http://www.w3.org/2000/svg"
   xmlns:svg="http://www.w3.org/2000/svg">
  <defs
     id="defs229" />
  <g
     id="g231">
    <path
       style="fill:#000000;stroke-width:1.33333"
       d="M 14.66527,85.412844 C 5.8680843,80.759335 2.8675986,75.13257 6.6315987,70.347419 8.9883508,67.351294 11.525847,57.831324 16.675198,32.666666 19.18153,20.418335 21.84475,9.7163149 22.896502,7.6666665 c 1.805787,-3.519109 4.951526,-2.801518 5.844998,1.3333332 0.435768,2.0166663 1.85638,5.7666663 3.156916,8.3333333 1.300534,2.566666 3.717542,8.266666 5.371127,12.666666 1.653586,4.4 3.806279,9.8 4.783766,12 9.638676,21.693498 9.602485,21.634807 16.132499,26.162716 l 6.480858,4.493826 21.999999,-0.208215 c 12.1,-0.11452 27.699995,-0.835789 34.666665,-1.602824 6.96667,-0.767036 20.44368,-1.595359 29.94892,-1.840716 l 17.28225,-0.446105 1.71424,-13.279341 c 3.82946,-29.664806 4.86434,-36.021911 6.13022,-37.657108 0.95976,-1.239756 5.03417,-1.60704 14.79117,-1.333334 l 13.46653,0.377768 0.91591,12 c 0.50375,6.6 0.97263,12.899999 1.04196,13.999999 0.0693,1.1 0.0876,9.57467 0.0407,18.832599 -0.0717,14.158379 -0.44914,17.15667 -2.3753,18.872439 -3.50218,3.119659 -75.50375,4.908105 -104.289955,2.590457 -7.7,-0.619945 -15.010554,-0.640046 -16.245678,-0.04467 -1.235123,0.595377 -6.935123,1.086042 -12.666667,1.090365 -5.731542,0.0043 -16.36871,0.904323 -23.638149,2 -17.56125,2.646897 -26.978707,2.475976 -32.784234,-0.595013 z M 30.140456,72.934246 c -1.576226,-1.152564 -2.21937,-3.049241 -1.921507,-5.666667 0.382885,-3.364549 1.123473,-4.030783 5.114384,-4.600914 3.598689,-0.514099 4.76561,-1.364195 5.099017,-3.714608 C 38.869557,55.869882 32.942165,38.882455 29.738666,34.036658 28.7824,32.590152 28,30.266686 28,28.873398 c 0,-2.100603 -0.341576,-2.249768 -2,-0.873399 -1.1,0.912919 -2,3.566385 -2,5.896593 0,2.330207 -0.583046,4.819786 -1.295656,5.532396 -2.165448,2.165448 -6.218235,29.773334 -4.88189,33.255794 0.538591,1.403547 2.792506,1.981883 7.723872,1.981883 6.038374,0 6.648636,-0.230127 4.59413,-1.732419 z M 195.70242,50.312501 c 0.40972,-21.854294 -0.3665,-24.979168 -6.20496,-24.979168 -3.21274,0 -3.96886,0.757092 -5.34573,5.352654 -1.71124,5.711619 -4.32181,37.260578 -3.23096,39.046223 0.35803,0.586051 3.74732,0.886051 7.53176,0.666667 l 6.8808,-0.398879 z"
       id="path253" />
  </g>
</svg>
