<?xml version="1.0" encoding="UTF-8" standalone="no"?>
<!-- Created with Inkscape (http://www.inkscape.org/) -->

<svg
   version="1.1"
   id="svg215"
   width="209.33333"
   height="186.66667"
   viewBox="0 0 209.33333 186.66667"
   xmlns="http://www.w3.org/2000/svg"
   xmlns:svg="http://www.w3.org/2000/svg">
  <defs
     id="defs219" />
  <g
     id="g221">
    <path
       style="fill:#000000;stroke-width:1.33333"
       d="m 102.66667,182.92246 c -2.693381,-0.92706 -5.239016,-4.40502 -5.290934,-7.2287 -0.0482,-2.62162 9.342524,-8.00189 11.508264,-6.59345 0.7609,0.49483 2.03444,2.13769 2.8301,3.6508 2.70539,5.14487 -3.47253,12.09024 -9.04743,10.17135 z m -32.898215,-5.08871 c -2.166585,-3.30663 -2.166931,-3.71928 -0.0063,-7.48403 l 2.286748,-3.98442 -3.691133,0.93894 c -5.304579,1.34938 -52.955151,0.90958 -56.724545,-0.52354 -10.87124405,-4.13324 -8.9787551,-20.98383 2.876187,-25.60936 1.74686,-0.68159 4.44686,-0.82363 6,-0.31566 1.55314,0.50799 41.590289,0.86896 88.971448,0.80218 82.02059,-0.1156 86.3446,-0.001 90.26098,2.38009 4.61121,2.80424 6.4676,8.87381 5.04058,16.48047 -1.50601,8.02773 -8.2864,9.20317 -43.07298,7.46709 -14.39176,-0.71825 -26.50894,-0.96381 -26.92706,-0.54571 -0.4181,0.41812 0.2848,1.34502 1.56203,2.05979 3.30729,1.85085 3.05107,8.6832 -0.3948,10.52737 -3.38878,1.81362 -7.52511,0.59098 -9.31495,-2.75337 -1.06093,-1.98236 -0.76551,-3.14276 1.33475,-5.24303 1.48347,-1.48348 2.69722,-3.29722 2.69722,-4.03056 0,-0.84758 -10.07914,-1.31586 -27.66666,-1.28538 l -27.666671,0.048 3.666667,3.00213 c 4.271641,3.49747 4.636425,6.27771 1.228345,9.36197 -3.581269,3.24102 -7.833534,2.71539 -10.459889,-1.29293 z m 120.110085,-21.7336 c 1.79826,-1.49191 1.91399,-2.10205 0.53904,-2.84159 -5.59213,-3.00774 -156.987951,-3.91178 -168.750914,-1.00768 -5.735272,1.41596 -7.614853,4.45994 -3.333333,5.39832 1.283333,0.28127 39.890766,0.47527 85.794297,0.4311 70.18657,-0.0675 83.82517,-0.38247 85.75091,-1.98015 z M 71.216378,42.979583 c -0.797658,-0.53877 -1.79354,-2.337436 -2.213071,-3.997033 -1.380361,-5.460496 8.313682,-7.765256 11.471137,-2.727264 2.643785,4.218388 -4.87884,9.682204 -9.258066,6.724297 z m 28.72786,-1.750437 c -2.765152,-5.166735 1.537052,-8.712968 7.772152,-6.406453 3.45863,1.279428 3.80325,4.133858 0.85504,7.082069 -2.92157,2.921571 -6.86741,2.612563 -8.627192,-0.675616 z m 28.605472,1.750437 c -0.79766,-0.53877 -1.79354,-2.337436 -2.21307,-3.997033 -1.38036,-5.460496 8.31368,-7.765256 11.47113,-2.727264 2.64379,4.218388 -4.87883,9.682204 -9.25806,6.724297 z M 164.66666,30.525211 C 156.77614,29.574695 135.52832,29.248877 58.666666,28.899789 42.772605,28.827601 41.158318,28.892927 31.836858,29.985525 14.30392,32.040617 3.9999999,27.823978 3.9999999,18.59394 c 0,-2.993532 1.3002883,-5.494228 4.5428993,-8.7368392 l 4.5428998,-4.5428995 90.948581,0.057108 c 95.99536,0.060276 96.87012,0.1134106 99.13738,6.0217617 1.46008,3.804898 0.8874,14.901006 -0.83843,16.245121 -2.34521,1.826513 -16.39163,4.395706 -22.88904,4.186575 -2.99436,-0.09638 -9.64429,-0.681178 -14.77763,-1.299556 z m -64.666662,-9.28988 c 15.766662,-0.03096 41.575502,0.254131 57.352972,0.633535 29.82168,0.71713 34.77855,0.0536 35.70944,-4.780112 0.54356,-2.82249 -4.79856,-4.016381 -16.68428,-3.728708 -4.97464,0.1204 -32.7448,0.196708 -61.71147,0.169566 -84.672731,-0.07933 -97.964286,0.227618 -100.486179,2.320602 -3.435799,2.85146 -0.350151,5.262258 7.59474,5.933721 3.790295,0.320337 16.491445,0.340615 28.224778,0.04506 11.733333,-0.295555 34.233333,-0.562703 49.999999,-0.593664 z"
       id="path392" />
  </g>
</svg>
