<?xml version="1.0" encoding="UTF-8" standalone="no"?>
<!-- Created with Inkscape (http://www.inkscape.org/) -->

<svg
   version="1.1"
   id="svg205"
   width="88"
   height="221.33333"
   viewBox="0 0 88 221.33333"
   xmlns="http://www.w3.org/2000/svg"
   xmlns:svg="http://www.w3.org/2000/svg">
  <defs
     id="defs209" />
  <g
     id="g211">
    <path
       style="fill:#000000;stroke-width:1.33333"
       d="m 40,214.46308 c -4.033333,-0.57934 -10.675209,-0.70527 -14.759724,-0.27984 -11.346548,1.18181 -11.911448,0.17056 -11.886525,-21.27848 0.0112,-9.66428 0.531625,-18.37804 1.156436,-19.3639 0.844156,-1.33194 2.123496,-0.3411 4.979582,3.85668 2.11396,3.10702 6.369419,8.41363 9.456575,11.79246 3.087155,3.37884 7.011055,8.24333 8.719777,10.81 4.073231,6.11838 7.3056,5.93846 11.977112,-0.66667 2.074614,-2.93333 4.734867,-6.70205 5.911674,-8.37495 2.915305,-4.14424 1.667714,-4.83834 -4.251274,-2.36524 -9.031669,3.77367 -17.664878,-0.39632 -20.730218,-10.01305 -0.802948,-2.51905 -2.102218,-5.91212 -2.887264,-7.54016 -1.019891,-2.11507 -0.985768,-7.82447 0.119533,-20 C 30.24778,124.1386 30.898485,126.58284 19.120339,118.41542 7.2609185,110.19164 4,105.18503 4,95.200612 4,87.06896 7.2317977,82.086972 13.293171,80.874697 c 7.896552,-1.579309 17.223356,5.200802 17.325545,12.594791 0.06496,4.700321 -5.344596,12.429922 -9.074708,12.966652 -4.088988,0.58837 -3.11002,2.66139 2.865633,6.06813 6.070671,3.46092 7.174535,2.31832 7.404675,-7.66455 0.08741,-3.79161 1.12286,-12.881656 2.300999,-20.200109 1.178138,-7.318453 2.663829,-19.306279 3.301534,-26.639612 3.486086,-40.088473 4.749907,-49.0035646 7.200914,-50.7957844 2.807326,-2.0527675 6.537581,-0.6130359 8.011381,3.0920784 0.51858,1.303705 1.448147,11.670373 2.065703,23.03704 0.617556,11.366666 1.74921,25.166666 2.514788,30.666666 2.493676,17.91486 5.150797,52.528951 4.48302,58.399911 -0.666036,5.85563 1.963726,10.93342 5.662365,10.93342 2.383603,0 16.463117,10.98444 17.321121,13.51345 C 85.472772,149.1949 82.899185,156 81.214533,156 c -0.563252,0 -3.842061,-2.7 -7.286241,-6 -3.444181,-3.3 -6.697185,-6 -7.228896,-6 -0.531712,0 -1.350875,5.41158 -1.820361,12.02576 -0.469487,6.61417 -1.53635,14.73714 -2.370804,18.05108 -0.834456,3.31392 -1.084274,6.45232 -0.55515,6.97424 0.529124,0.5219 2.933394,-1.39319 5.342823,-4.25576 4.936828,-5.86532 8.069279,-5.83054 8.896973,0.0988 0.791186,5.66778 -0.713849,36.082 -1.840996,37.20342 -1.380704,1.3737 -25.543016,1.6308 -34.351881,0.36554 z m -8,-9.0101 c 0,-2.36412 -7.166743,-12.11965 -8.903509,-12.11965 -2.340715,0 -2.429908,11.50873 -0.09649,12.45029 2.880634,1.16236 9,0.93755 8.999999,-0.33064 z M 66.666667,200 c 0,-2.93334 -0.537846,-5.33334 -1.195211,-5.33334 -1.164647,0 -9.471456,8.81106 -9.471456,10.0464 0,0.34115 2.4,0.62027 5.333333,0.62027 h 5.333334 z m -15.65679,-21 c 4.552287,-5.08268 6.376063,-29.82723 3.678095,-49.90352 -0.721615,-5.36973 -1.953205,-19.06315 -2.736865,-30.429815 -0.783662,-11.366666 -2.205931,-25.466666 -3.1606,-31.333333 -1.546968,-9.50648 -1.888103,-10.294678 -3.136362,-7.246638 -0.770329,1.881016 -2.07699,11.481016 -2.903692,21.333333 -0.826701,9.852318 -2.035862,20.613303 -2.687024,23.913303 -3.623217,18.36198 -6.066245,60.79684 -3.942884,68.48703 0.724772,2.62489 2.344147,5.37089 3.598611,6.10221 3.570124,2.08128 8.997524,1.6378 11.290721,-0.92257 z M 18.456793,98.871489 c 4.341099,-3.339146 3.549282,-8.71675 -1.367116,-9.284733 -4.273521,-0.493712 -7.081479,3.608179 -5.844316,8.537431 0.955726,3.807913 2.96214,4.015833 7.211432,0.747302 z"
       id="path531" />
  </g>
</svg>
