<?xml version="1.0" encoding="UTF-8" standalone="no"?>
<!-- Created with Inkscape (http://www.inkscape.org/) -->

<svg
   version="1.1"
   id="svg195"
   width="216"
   height="216"
   viewBox="0 0 216 216"
   xmlns="http://www.w3.org/2000/svg"
   xmlns:svg="http://www.w3.org/2000/svg">
  <defs
     id="defs199" />
  <g
     id="g201">
    <path
       style="fill:#000000;stroke-width:1.33333"
       d="m 114.43662,212.32449 c -2.26723,-0.48825 -5.10329,-6.70694 -5.10329,-11.19012 0,-1.35724 -0.9,-2.4677 -2,-2.4677 -1.44025,0 -2,1.47412 -2,5.26708 0,10.10924 -9.363043,9.78317 -11.511414,-0.4009 l -1.164027,-5.5179 -10.662277,0.10226 C 76.131359,198.17339 69.833333,198.35168 68,198.51337 66.166667,198.67507 52.762121,198.72116 38.212121,198.6158 14.102999,198.44123 11.531899,198.19856 9.2121212,195.87879 5.6682747,192.33495 6.0345615,189.87981 10.333333,188.36357 12.35,187.65225 31.1,186.94412 52,186.78993 c 20.9,-0.15418 39.05,-0.58544 40.333333,-0.95832 1.396962,-0.4059 2.333334,-1.9796 2.333334,-3.92146 0,-3.96186 4.53524,-8.79938 7.266823,-7.75118 1.09669,0.42084 2.37707,2.80723 2.8453,5.3031 1.08751,5.79692 5.4136,6.36041 6.68906,0.87126 1.15766,-4.98216 4.19609,-7.27368 7.383,-5.56809 1.36537,0.73072 2.48248,2.441 2.48248,3.80063 0,1.35962 1.13909,3.87876 2.5313,5.59806 l 2.53131,3.12603 40.4687,0.0217 c 22.25777,0.012 41.21869,0.50711 42.13536,1.10039 2.45361,1.588 2.11671,9.79664 -0.44239,10.77865 -1.15997,0.44514 -19.00997,0.82928 -39.66666,0.85368 -41.00794,0.0484 -39.80727,-0.16732 -45.13896,8.11102 -2.32127,3.60414 -5.44564,5.00246 -9.31537,4.16912 z m 76.82985,-110.20851 c -2.12547,-1.55418 -2.61775,-3.713387 -2.8119,-12.333331 -0.12946,-5.747124 -0.6295,-26.191752 -1.11125,-45.432506 L 186.4674,9.3669529 189.95409,7.7783132 c 2.38572,-1.0870107 4.62751,-1.1882061 7.09963,-0.3204821 l 3.61295,1.2681576 0.86306,33.9703393 c 0.4747,18.683687 1.24078,38.770339 1.7024,44.637005 0.67398,8.565368 0.42339,11.257658 -1.27201,13.666667 -2.40293,3.41433 -6.90757,3.88444 -10.69365,1.11598 z M 54.331141,95.351697 C 48.051847,93.62398 34.666667,85.953527 34.666667,84.082859 c 0,-0.534867 -2.453264,-3.62232 -5.451698,-6.861006 C 16.443876,63.427464 8.9545308,48.835156 6.6646903,33.284681 5.0825352,22.540152 5.1455851,21.595116 7.790468,16.410716 11.768752,8.612636 16.447741,5.3333333 23.595948,5.3333333 c 16.420184,0 45.179024,14.7278747 59.317483,30.3774577 11.614081,12.8554 15.881404,33.036196 9.506128,44.955876 -4.698366,8.784408 -10.887544,13.778485 -18.976979,15.312614 -8.759852,1.661272 -11.068217,1.58547 -19.111439,-0.627584 z M 71.036445,85.253163 c 2.770046,-0.769248 7.104479,-3.21439 9.632074,-5.433647 4.589553,-4.029681 4.595032,-4.048583 4.145426,-14.301515 C 84.518063,58.770623 83.501589,53.614975 81.848539,50.477184 79.193293,45.437045 67.406353,35.150957 59.833393,31.265264 57.35836,29.995323 53.902419,27.841117 52.153521,26.47814 50.404625,25.115163 47.971193,24 46.745895,24 c -1.225299,0 -4.294384,-1.551931 -6.820188,-3.448736 -4.044163,-3.037045 -5.513522,-3.369931 -12.308851,-2.788587 -4.244063,0.363082 -8.594063,1.38848 -9.666667,2.278662 -2.685962,2.229152 -2.649025,15.05216 0.04981,17.291994 1.1,0.912919 2,2.28931 2,3.058646 0,3.875729 7.688675,19.805414 12.707344,26.32755 6.478804,8.419692 13.422003,13.664842 22.808283,17.230224 7.852997,2.982963 9.096686,3.087406 15.520819,1.30341 z"
       id="path670" />
  </g>
</svg>
