<?xml version="1.0" encoding="UTF-8" standalone="no"?>
<!-- Created with Inkscape (http://www.inkscape.org/) -->

<svg
   version="1.1"
   id="svg185"
   width="158.66667"
   height="50.666668"
   viewBox="0 0 158.66667 50.666668"
   xmlns="http://www.w3.org/2000/svg"
   xmlns:svg="http://www.w3.org/2000/svg">
  <defs
     id="defs189" />
  <g
     id="g191">
    <path
       style="fill:#000000;stroke-width:1.33333"
       d="M 44.28224,45.333335 C 13.476338,44.574132 14.149163,44.846255 15.474348,33.682046 16.640802,23.855109 13.887583,14.924622 9.5284421,14.395582 5.2297554,13.873878 2.5405285,9.7628203 5.3333334,7.9824618 6.4333335,7.2812333 16.333334,6.6715626 27.333334,6.627638 c 11,-0.043925 42.904627,-0.3984854 70.899172,-0.7879128 50.709074,-0.7054055 50.909844,-0.6973808 53.755884,2.1486625 3.71385,3.7138513 1.55015,6.6782793 -4.8744,6.6782793 h -4.55949 l 0.38942,10.305348 c 0.3828,10.130459 0.4573,10.328157 4.38942,11.649347 9.2351,3.102992 6.06022,6.730816 -7.12854,8.145529 -10.93197,1.172634 -59.651501,1.460334 -95.92256,0.566444 z m 80.87187,-8.956714 7.1541,-0.745513 -0.91861,-9.482221 c -0.50524,-5.215221 -1.36656,-9.944195 -1.91405,-10.508829 -1.24614,-1.285174 -14.04605,-1.588782 -58.808882,-1.394923 -19.433334,0.08416 -37.433334,0.06344 -40.000001,-0.04606 L 26.000001,14 25.595459,22.62553 c -0.222497,4.74404 -0.06788,9.966904 0.343602,11.606364 l 0.748142,2.980836 45.6564,-0.04529 c 25.111019,-0.02491 48.875747,-0.380779 52.810507,-0.790811 z"
       id="path809" />
  </g>
</svg>
