<?xml version="1.0" encoding="UTF-8" standalone="no"?>
<!-- Created with Inkscape (http://www.inkscape.org/) -->

<svg
   version="1.1"
   id="svg175"
   width="212"
   height="205.33333"
   viewBox="0 0 212 205.33333"
   xmlns="http://www.w3.org/2000/svg"
   xmlns:svg="http://www.w3.org/2000/svg">
  <defs
     id="defs179" />
  <g
     id="g181">
    <path
       style="fill:#000000;stroke-width:1.33333"
       d="m 176.89821,199.12044 c -0.57734,-0.57735 -18.56562,-1.22379 -39.97396,-1.43655 -21.40834,-0.21276 -40.12425,-0.47475 -41.590917,-0.5822 -1.466666,-0.10747 -10.715752,0.23245 -20.553521,0.75536 -12.750947,0.67773 -18.986797,0.49511 -21.717631,-0.63604 -3.90388,-1.61704 -10.395514,-10.98703 -10.395514,-15.00483 0,-1.79536 -1.455796,-2.23865 -7.666667,-2.33449 -15.226067,-0.23495 -22.295097,-1.27293 -24,-3.52407 -2.5040397,-3.30629 -2.0358757,-5.58457 1.806645,-8.79185 10.1106,-8.43913 10.136067,-8.54409 3.202584,-13.19923 -5.425617,-3.64274 -6.3728395,-6.47912 -3.217486,-9.63448 4.552185,-4.55218 15.663528,1.50275 17.133129,9.33639 0.962828,5.13232 3.784628,5.69204 4.4928,0.89119 C 34.950744,151.34581 43.250615,144 46.800717,144 c 10.646331,0 10.372272,12.09873 -0.32251,14.23769 -2.126868,0.42537 -4.208535,1.32597 -4.625926,2.00132 -0.417392,0.67536 1.995094,4.17216 5.361079,7.77067 4.931704,5.27238 6.119973,7.47694 6.119973,11.35418 0,2.6463 0.621111,5.972 1.380246,7.39046 2.531754,4.73062 12.901944,2.45613 21.953088,-4.81498 10.143001,-8.14824 15.865388,-10.20909 26.476863,-9.5353 10.58432,0.67206 17.8632,2.20322 24.85647,5.22873 6.63513,2.87057 13.16923,5.07428 19.33333,6.52043 2.93334,0.68818 6.23334,1.63874 7.33334,2.11236 1.1,0.4736 3.28336,1.01653 4.85192,1.2065 1.56856,0.18998 5.16856,0.9339 8,1.65318 2.83144,0.71926 11.74808,1.15805 19.81474,0.97509 8.06667,-0.18297 16.01667,0.15475 17.66667,0.75049 3.3012,1.19192 3.92725,4.08171 1.33333,6.15446 -2.09416,1.67338 -28.0143,3.53597 -29.43512,2.11516 z m -46.23154,-11.23702 c 0,-1.89578 -4.92157,-3.88342 -9.61567,-3.88342 -2.45171,0 -5.81774,-0.95264 -7.48008,-2.11699 -5.03322,-3.52541 -22.904253,-0.20276 -22.904253,4.25844 0,1.744 0.90979,2.06169 4.333333,1.51315 2.383333,-0.38187 6.73333,-0.25635 9.66667,0.27893 7.40326,1.35095 26,1.31511 26,-0.0501 z M 30.666667,170 c 0,-1.1 -0.826534,-2 -1.83674,-2 -1.010208,0 -2.583675,0.9 -3.496594,2 -1.40366,1.6913 -1.120165,2 1.83674,2 2.219195,0 3.496594,-0.73066 3.496594,-2 z M 41.038179,102.54103 C 36.608032,99.234952 30.288076,90.055096 26.630037,81.612927 22.395232,71.839674 22.173563,71.577179 14.536164,67.291642 L 7.3333333,63.24995 6.1931109,50.94109 C 4.8013276,35.916595 5.5565792,31.999999 9.8455911,31.999999 c 1.7204659,0 4.6536719,1.2 6.5182369,2.666667 4.573543,3.597549 6.602003,3.369285 11.607075,-1.306153 3.687597,-3.444731 4.1297,-4.552443 3.325949,-8.333333 -0.509833,-2.398283 -1.760192,-5.307758 -2.778577,-6.465502 -1.018384,-1.157742 -1.851608,-3.334276 -1.851608,-4.83674 0,-5.4553993 3.172237,-6.309844 23.82337,-6.4168429 18.523088,-0.095973 19.656011,0.050075 22.50742,2.9014829 3.516712,3.516712 3.788527,7.06959 0.959415,12.54049 -1.952287,3.775305 -1.878183,4.157697 1.666667,8.600413 4.130001,5.17608 7.141165,5.726533 13.626856,2.491045 3.386276,-1.689297 5.026612,-1.8396 7.54646,-0.69148 3.147294,1.434003 3.203875,1.7449 2.515866,13.82514 -0.774332,13.596014 -2.212505,16.748532 -10.084014,22.104458 -2.489355,1.693806 -5.734187,5.426396 -7.210738,8.294647 -4.512665,8.766012 -10.44138,17.491847 -15.527773,22.853659 -4.638996,4.89019 -5.201003,5.1036 -13.333333,5.06314 -6.406587,-0.0319 -9.380676,-0.70678 -12.118684,-2.75006 z M 63.808288,88.734247 C 73.161359,75.710328 77.387033,55.79485 72.714556,46.759274 68.580111,38.764137 58.722637,33.35839 48.245679,33.340769 c -6.115423,-0.01027 -8.808498,1.725525 -13.694068,8.82646 -5.408426,7.860874 -6.767623,20.090871 -2.96892,26.714203 1.32952,2.318123 4.034073,7.182589 6.01012,10.809927 6.429972,11.803209 9.882601,14.975306 16.299688,14.975306 5.165968,0 6.024181,-0.513452 9.915789,-5.932418 z M 20.033001,55.246532 c 1.834023,-4.823846 1.666672,-5.623317 -1.5359,-7.337281 -2.212253,-1.183962 -3.087772,-1.120949 -3.979582,0.286422 -1.648312,2.601206 -1.441483,7.013695 0.415814,8.870993 2.405992,2.405992 3.663546,1.957156 5.099668,-1.820134 z m 69.300332,-3.9132 c 0,-1.746774 -0.6,-3.546774 -1.333333,-3.999999 -0.795047,-0.491366 -1.333333,1.123494 -1.333333,3.999999 0,2.876506 0.538286,4.491366 1.333333,4 0.733333,-0.453225 1.333333,-2.253225 1.333333,-4 z m -29,-29.568818 c 0.55,-0.323708 1,-1.369574 1,-2.324149 0,-1.098071 -2.57125,-2.044433 -7,-2.576388 C 42.321205,15.421152 41.094813,15.626458 41.573932,19 c 0.320231,2.254781 1.585297,3.207774 5.092735,3.83643 4.394941,0.787728 11.446756,0.234635 13.666666,-1.071916 z M 191.35879,98.183485 c -2.02368,-1.479751 -2.57678,-4.013407 -2.98342,-13.666666 -0.27454,-6.517584 -1.04694,-22.585135 -1.71645,-35.705666 C 185.35684,23.293649 185.86744,20 191.1254,20 c 6.15992,0 7.48605,2.501684 8.12821,15.333333 2.37803,47.518195 2.40398,60.151933 0.12827,62.427673 -2.71388,2.713884 -4.74325,2.820744 -8.02307,0.422479 z"
       id="path948" />
  </g>
</svg>
