<?xml version="1.0" encoding="UTF-8" standalone="no"?>
<!-- Created with Inkscape (http://www.inkscape.org/) -->

<svg
   version="1.1"
   id="svg165"
   width="206.66667"
   height="216"
   viewBox="0 0 206.66667 216"
   xmlns="http://www.w3.org/2000/svg"
   xmlns:svg="http://www.w3.org/2000/svg">
  <defs
     id="defs169" />
  <g
     id="g171">
    <path
       style="fill:#000000;stroke-width:1.33333"
       d="m 66.553604,208.68611 c -1.895519,-1.03058 -5.724092,-5.50656 -8.507942,-9.94662 -2.783848,-4.44005 -5.575426,-8.07282 -6.203506,-8.07282 -0.628081,0 -3.25705,4.2 -5.842155,9.33333 -3.925182,7.79437 -5.247058,9.33333 -8.016763,9.33333 -3.954243,0 -6.597152,-2.45954 -12.603736,-11.72928 -2.4724,-3.81556 -5.199252,-6.93738 -6.059671,-6.93738 -0.860419,0 -2.281709,2.39417 -3.158425,5.32038 -2.548734,8.50692 -10.833566,9.02994 -10.7655024,0.67962 0.01196,-1.46667 2.2527672,-6.86667 4.9795834,-12 5.871597,-11.05351 8.806579,-12.28827 14.535448,-6.11516 2.065652,2.22584 5.238047,6.48082 7.049767,9.45553 3.400149,5.58281 6.241249,6.38589 8.229721,2.32629 0.628602,-1.28333 1.746611,-3.38333 2.484466,-4.66666 0.737854,-1.28334 2.348982,-4.28334 3.580282,-6.66667 3.453164,-6.68403 7.431219,-5.87153 13.056374,2.66667 6.156216,9.34428 8.068711,11.66666 9.607529,11.66666 0.710468,0 2.665407,-2.93278 4.344307,-6.51732 4.284462,-9.14749 8.867987,-13.86298 11.898527,-12.24109 2.56802,1.37436 8.122484,9.0982 11.021883,15.32663 2.696995,5.79362 4.676689,5.59013 7.922039,-0.81431 1.60363,-3.16465 4.68301,-7.99979 6.84305,-10.74475 3.46401,-4.40201 4.26892,-4.81441 6.82257,-3.49552 3.37607,1.74366 7.61633,6.40898 12.36839,13.60824 3.25904,4.93739 3.47351,5.03802 5.95383,2.79335 1.41515,-1.28069 2.573,-2.80545 2.573,-3.38837 0,-2.48728 8.32648,-13.11744 10.91935,-13.94039 3.16646,-1.005 4.84214,0.72708 12.02322,12.42785 2.36768,3.85787 4.9242,6.81471 5.68115,6.57076 0.75696,-0.24396 3.48107,-4.2931 6.05359,-8.9981 2.57252,-4.705 5.62492,-8.73704 6.78313,-8.9601 3.12669,-0.60214 7.91227,3.84258 12.04963,11.19139 9.611,17.07121 9.48056,16.74351 7.97769,20.04195 -0.78683,1.72688 -2.33763,3.13978 -3.44623,3.13978 -2.36716,0 -11.29368,-11.67718 -11.34181,-14.83674 -0.0181,-1.19354 -0.85344,-2.85094 -1.85615,-3.68311 -2.22816,-1.8492 -3.19914,-0.79372 -7.9148,8.6036 -4.01037,7.99184 -6.60241,10.43672 -9.86478,9.30476 -2.53292,-0.87885 -8.2113,-7.73705 -12.56402,-15.17448 -3.11688,-5.32577 -4.54085,-4.58525 -9.09508,4.72981 -4.14306,8.4741 -6.5276,11.05616 -10.21036,11.05616 -2.94218,0 -9.8612,-7.20198 -9.8612,-10.26449 0,-1.74551 -6.1644,-8.40217 -7.78082,-8.40217 -0.68282,0 -1.62125,1.05 -2.0854,2.33333 -0.46415,1.28333 -2.55118,5.33333 -4.63784,9 -5.56913,9.78603 -12.221977,9.26159 -17.927077,-1.41319 -1.15231,-2.15608 -3.518002,-5.65514 -5.257094,-7.7757 l -3.161984,-3.85556 -2.373468,5.18889 c -8.433232,18.43679 -7.955996,17.94885 -14.222713,14.54167 z M 25.288047,140.10337 c -2.591575,-0.5078 -5.441575,-1.37421 -6.333333,-1.92534 -2.440118,-1.50808 -1.948538,-4.56116 0.878888,-5.45855 3.899758,-1.23774 11.965324,-9.6906 18.411629,-19.29574 3.232431,-4.81639 8.249612,-12.00955 11.149292,-15.984799 3.496526,-4.793481 5.272145,-8.642984 5.272145,-11.42989 0,-3.996671 -6.776131,-18.428612 -9.419805,-20.062492 -0.685774,-0.423832 -1.246862,-1.608548 -1.246862,-2.632703 0,-2.104676 -4.478982,-9.019223 -9.063119,-13.991429 -7.20518,-7.815134 -8.960047,-9.27288 -12.84147,-10.667255 C 12.08397,35.058632 5.9908817,31.269215 5.5806077,28.384275 4.667333,21.962364 18.051852,5.3333333 24.134051,5.3333333 c 3.493461,0 5.672945,1.2095139 17.602522,9.7685917 14.311067,10.26772 21.008641,12.381564 42.930095,13.54931 8.066667,0.429708 20.205092,1.252886 26.974282,1.829285 6.76919,0.5764 15.46919,0.514648 19.33333,-0.137225 14.49947,-2.446034 19.28286,-2.53339 27.08975,-0.494727 7.85627,2.051557 7.97315,2.040016 12.99492,-1.283233 4.85024,-3.209736 5.05423,-3.64091 4.76115,-10.063806 -0.30306,-6.641614 1.07806,-9.0969045 5.14566,-9.1477786 3.2897,-0.041145 6.06276,8.0882986 5.29536,15.5237126 -0.83442,8.084858 -2.64562,11.186638 -9.04382,15.488129 -2.70583,1.819123 -4.72635,4.392112 -4.98407,6.346891 -0.23839,1.808134 -1.28839,5.858485 -2.33333,9.00078 C 168.85495,58.855557 168,65.326668 168,70.093508 c 0,9.517183 2.32096,14.667456 7.49662,16.63524 5.83648,2.219023 6.80472,5.935884 5.95381,22.855232 -0.75511,15.01424 -0.93,15.7376 -4.78376,19.7857 -5.04673,5.30124 -10.10315,7.96365 -15.12447,7.96365 -6.84297,0 -6.0933,-6.06308 1.48444,-12.00574 5.14496,-4.03481 7.64003,-9.47506 7.64003,-16.65838 0,-4.91606 -0.69861,-6.77732 -3.52803,-9.399542 -4.16305,-3.858183 -5.44002,-4.013547 -8.70468,-1.059067 -1.34348,1.21583 -4.5974,2.565829 -7.23092,2.999999 -4.07256,0.67141 -5.0461,1.54038 -6.5136,5.81387 -0.94894,2.76346 -3.30426,6.26643 -5.23404,7.78439 -1.92977,1.51796 -4.42832,4.53831 -5.5523,6.71188 -2.14685,4.15154 -11.12989,13.45121 -16.2443,16.81686 -2.47637,1.62964 -3.70459,1.69081 -6.95081,0.34619 l -3.94295,-1.63323 3.29107,-6.49462 c 2.10456,-4.15315 4.85085,-7.28469 7.61748,-8.68607 10.28384,-5.20904 15.02467,-13.40709 13.73275,-23.74725 -1.2645,-10.12076 -2.17413,-11.094475 -8.33351,-8.920607 -2.79006,0.984712 -6.30772,3.294063 -7.81703,5.13189 -3.43537,4.18311 -7.72548,3.203781 -10.638,-2.428395 C 102.96429,88.707968 101.74645,88 97.899548,88 c -2.584252,0 -6.508616,0.935975 -8.720808,2.079944 -4.596672,2.377032 -4.609765,2.084515 1.001284,22.369586 1.792591,6.48057 2.916122,12.78057 2.496736,14 -1.221844,3.5527 -12.247147,11.45923 -17.523411,12.5665 -4.940616,1.03682 -8.486681,-0.45418 -8.486681,-3.56835 0,-0.85752 2.7,-4.20897 6,-7.44768 6.647983,-6.5245 6.977084,-8.11862 4.019928,-19.4719 -2.383201,-9.149732 -5.254512,-13.861433 -8.447154,-13.861433 -2.834004,0 -15.474026,15.435503 -16.726499,20.425743 -0.485136,1.93293 -3.499226,6.7276 -6.697981,10.6548 -3.198753,3.92721 -6.580523,8.59067 -7.515044,10.36326 -2.824109,5.3567 -3.650269,5.63133 -12.011871,3.9929 z M 157.92199,76.333333 c 0.41361,-3.483333 1.35039,-9.66945 2.08169,-13.746926 0.73131,-4.077478 1.32966,-9.91207 1.32966,-12.96576 0,-9.018996 -2.53618,-9.693362 -34.93986,-9.29045 -14.88308,0.185059 -28.285796,-0.114496 -29.783813,-0.665676 -2.266285,-0.833857 -2.938,-0.288806 -4,3.245724 -0.905514,3.013718 -2.43847,4.615872 -5.276332,5.51451 -5.651247,1.789522 -7.333334,3.426816 -7.333334,7.138052 0,1.779957 -0.930353,5.035392 -2.067452,7.234297 -1.304044,2.521744 -1.919461,6.559052 -1.666666,10.933788 l 0.400785,6.935775 18,0.146856 c 16.292472,0.13292 25.037172,-0.730672 34.666672,-3.423563 4.36642,-1.221073 4.83793,-5.111103 1.52679,-12.596472 -2.07198,-4.684057 -2.28746,-6.275572 -0.99493,-7.34828 2.52641,-2.096732 7.01274,1.744747 10.82604,9.269951 1.81982,3.591238 3.30876,7.356478 3.30876,8.3672 0,3.364752 5.39672,6.825762 11.58498,7.42964 0.9318,0.09093 1.89488,-2.455312 2.33701,-6.178666 z M 70.504165,57.043864 c 1.188509,-8.690568 6.363728,-15.710531 11.582031,-15.710531 1.606341,0 3.627251,-0.851437 4.490909,-1.892084 1.324602,-1.596046 0.04631,-1.999946 -8.170073,-2.581476 C 60.662346,35.603863 57.123868,34.642677 50.706606,29.335292 47.053614,26.314092 42.682503,24.041131 39.645931,23.583781 36.884526,23.167877 33.053611,21.591384 31.132786,20.080463 25.170668,15.39066 20,17.225457 20,24.030899 c 0,2.602737 1.790902,4.963626 7,9.22788 3.85,3.151673 8.613978,6.303906 10.586618,7.004962 5.630972,2.001192 15.746716,17.047336 15.746716,23.421646 0,1.133464 2.518462,4.456598 5.596582,7.384742 l 5.596581,5.3239 2.456801,-5.784778 c 1.351242,-3.18163 2.935631,-9.286054 3.520867,-13.565387 z"
       id="path193" />
  </g>
</svg>
