<?xml version="1.0" encoding="UTF-8" standalone="no"?>
<!-- Created with Inkscape (http://www.inkscape.org/) -->

<svg
   version="1.1"
   id="svg165"
   width="105.33333"
   height="212"
   viewBox="0 0 105.33333 212"
   xmlns="http://www.w3.org/2000/svg"
   xmlns:svg="http://www.w3.org/2000/svg">
  <defs
     id="defs169" />
  <g
     id="g171">
    <path
       style="fill:#000000;stroke-width:1.33333"
       d="m 7.3219547,203.50309 c -5.5940102,-8.53753 5.1237273,-34.32628 18.1085323,-43.57226 4.621207,-3.2906 16.680869,-6.48055 24.762398,-6.55 3.039421,-0.0261 9.44245,1.1621 14.228956,2.6405 7.237645,2.23548 9.748482,3.85112 14.914536,9.59703 7.124498,7.92415 10.9785,14.87549 13.517815,24.38164 2.507881,9.38848 2.294096,10.8224 -1.854195,12.43664 -2.093453,0.81464 -19.112759,1.73348 -39.666665,2.14155 -19.8,0.39309 -37.299046,1.08046 -38.88677,1.52749 -2.151159,0.60567 -3.4570196,-0.0575 -5.1246073,-2.60259 z m 63.3447093,-8.87981 c 3.3,-0.72133 7.35,-1.61809 9,-1.9928 4.171123,-0.94724 3.873625,-5.39751 -0.859772,-12.86129 -6.295586,-9.92711 -18.20697,-17.10252 -28.390666,-17.10252 -6.620503,0 -17.409311,4.225 -24.635267,9.6474 -7.80583,5.85753 -8.447626,6.9959 -8.447626,14.98377 0,7.24973 0.870476,7.51213 24.163079,7.28384 9.54776,-0.0936 17.716969,0.18725 18.153797,0.62408 1.101904,1.10191 4.015438,0.94787 11.016455,-0.58248 z M 9.6893069,72.681589 C 3.8042932,68.462725 3.518989,56.455788 9.2090542,52.470311 12.706753,50.020427 27.214487,32.053252 29.920906,26.819616 c 1.181165,-2.284121 2.722058,-4.152949 3.424205,-4.152949 0.702148,0 2.721888,-2.85 4.488312,-6.333334 C 43.066981,6.0129193 44.627171,5.1602355 57.454204,5.6100647 69.096084,6.0183319 69.361179,6.1696236 72.829,14.384559 c 0.08928,0.211506 3.117232,-1.452308 6.728773,-3.697365 4.01113,-2.4934551 9.21049,-4.3950704 13.360925,-4.8866281 6.02298,-0.713333 6.891424,-0.4992883 7.648182,1.8850397 0.46953,1.4793605 -0.10263,5.3052924 -1.271458,8.5020704 -1.168832,3.196779 -2.684312,7.645157 -3.367734,9.885287 -1.06148,3.479334 -2.4585,4.479332 -9.585137,6.861116 -9.312901,3.112452 -8.835021,1.883777 -6.93604,17.833228 1.021164,8.576712 -1.972012,16.1953 -8.32658,21.193804 -3.34066,2.627764 -4.71528,2.810582 -15.703866,2.088544 C 38.978707,72.972219 25.850285,72.941132 18.666666,73.962735 14.23166,74.59345 11.890075,74.259286 9.6893069,72.681592 Z M 62.935001,63.775765 c 4.107494,-1.572412 7.731663,-6.421802 7.731663,-10.345504 0,-1.464958 -1.21253,-5.904341 -2.694513,-9.865293 -1.481982,-3.960953 -2.343417,-8.116675 -1.9143,-9.234936 C 66.883535,32.178333 76.42394,28 80.511241,28 c 2.61893,0 11.488756,-8.132197 11.488756,-10.533333 0,-1.908611 -7.567897,-1.91118 -8.747236,-0.003 -1.257589,2.034823 -12.747771,9.20297 -14.751899,9.20297 -3.02602,0 -5.834197,-4.147159 -5.834197,-8.616031 0,-4.089633 -0.364834,-4.468145 -4.806475,-4.986682 -5.691738,-0.664478 -9.363726,1.800099 -13.047074,8.756978 l -2.520215,4.760027 4.265156,3.984253 c 3.571389,3.336177 4.033868,4.416419 2.843233,6.64114 -0.782058,1.461289 -2.643431,3.512467 -4.136385,4.558172 -2.644636,1.852375 -2.654201,2.027653 -0.371825,6.813844 2.032289,4.261755 2.084147,5.076053 0.391444,6.146679 -4.441052,2.808942 -7.184817,0.920766 -8.803617,-6.05838 -1.877183,-8.093111 -5.280752,-7.749826 -13.619072,1.373624 -11.196678,12.250952 -9.448997,15.298502 8.271209,14.423061 6.710159,-0.331505 14.600288,-0.03809 17.533621,0.652031 5.481296,1.289578 8.023857,1.050864 14.268336,-1.339618 z"
       id="path1087" />
  </g>
</svg>
