<?xml version="1.0" encoding="UTF-8" standalone="no"?>
<!-- Created with Inkscape (http://www.inkscape.org/) -->

<svg
   version="1.1"
   id="svg75"
   width="297.33334"
   height="209.33333"
   viewBox="0 0 297.33334 209.33333"
   xmlns="http://www.w3.org/2000/svg"
   xmlns:svg="http://www.w3.org/2000/svg">
  <defs
     id="defs79" />
  <g
     id="g81">
    <path
       style="fill:#000000;stroke-width:1.33333"
       d="m 219.95862,203.52028 c -0.75683,-0.76336 -52.85016,-2.10242 -99.95862,-2.56943 -30.140318,-0.2988 -32.475387,-0.72229 -37.567099,-6.81328 -1.289301,-1.54233 -2.364143,-4.38077 -2.388541,-6.30765 -0.06936,-5.47775 -3.220237,-7.3303 -8.946076,-5.2598 -10.339699,3.73888 -27.098283,-0.83155 -27.098283,-7.3903 0,-2.17937 8.871747,-11.17982 11.019958,-11.17982 2.780421,0 -0.06288,-6.19419 -3.968598,-8.64568 -4.457013,-2.79752 -5.630603,-6.90842 -2.784693,-9.75432 4.093652,-4.09366 14.486009,0.83372 17.630331,8.35913 2.281496,5.46039 4.15152,6.01861 5.267448,1.5724 0.432777,-1.72432 3.254837,-4.84543 6.271245,-6.9358 5.13349,-3.55751 5.709737,-3.67419 9.006741,-1.82363 1.9373,1.08738 4.118073,3.67095 4.846164,5.74126 1.160913,3.30105 0.866828,4.15728 -2.390083,6.95876 -2.042635,1.757 -4.880424,3.19454 -6.306197,3.19454 -3.870519,0 -3.144463,2.94172 1.943106,7.87279 3.357275,3.254 4.775107,6.0062 5.458116,10.59489 1.145443,7.69551 2.603994,9.53232 7.56927,9.53232 4.868641,0 10.687761,-2.96006 18.437191,-9.37861 10.75958,-8.91173 28.96256,-10.28436 44.23026,-3.33528 7.61112,3.46421 26.06609,9.24116 39.10308,12.24041 4.4,1.01226 16.28993,2.05283 26.42208,2.31239 20.08635,0.51456 22.34472,1.28776 19.837,6.79159 -1.35787,2.9802 -2.34732,3.3712 -8.56383,3.38418 -3.86572,0.008 -9.12858,0.36082 -11.69525,0.7839 -2.56667,0.42306 -4.9853,0.44784 -5.37472,0.0551 z m -61.29195,-13.8607 c 0,-2.12824 -9.24849,-3.75154 -18.42092,-3.23326 -9.94012,0.56166 -12.78766,2.33988 -5.24575,3.27581 8.05415,0.99952 23.66667,0.97144 23.66667,-0.0425 z M 92.51601,132.26454 c -2.927309,-0.41783 -5.849341,-5.20601 -5.849341,-9.58501 0,-3.42245 -4.353147,-6.2476 -14.450926,-9.37848 C 59.921437,109.48912 51.613678,103.03027 46.755161,93.506792 43.688557,87.495753 36.088378,54.721223 33.418375,35.994082 32.474521,29.373981 31.920595,28.189793 26.510994,21.227406 23.536781,17.399468 21.320818,16.123158 15.315486,14.779224 7.4242543,13.013244 5.2177516,10.685738 8.119823,7.1889556 11.441914,3.1860803 21.400575,6.3720303 37.114519,16.464866 c 4.393833,2.822094 6.571681,5.531636 9.075218,11.290819 1.811717,4.167706 4.422703,10.06655 5.802189,13.108544 1.379487,3.041993 3.197787,9.333969 4.040667,13.982169 2.982263,16.446188 12.947194,35.017685 19.690374,36.696665 7.11082,1.770518 22.307647,8.571337 23.907359,10.698917 1.474854,1.96152 2.382684,1.76729 9.519974,-2.03684 4.3393,-2.31283 8.57995,-4.205142 9.42366,-4.205142 1.77091,0 8.38948,-4.436518 13.88371,-9.306438 6.30339,-5.587147 9.88799,-14.515805 12.88884,-32.104118 3.84719,-22.548731 8.33828,-31.56981 19.64187,-39.453882 7.01726,-4.894436 20.0424,-11.1325045 23.24972,-11.1348878 1.65442,-0.00123 5.09524,4.1603797 5.09524,6.1626008 0,1.085039 -2.25,2.910817 -5,4.057285 -16.15342,6.734319 -19.69208,13.905655 -24.36938,49.386126 -3.90518,29.623617 -9.39782,38.886166 -28.5968,48.224416 -10.49485,5.10462 -11.5843,6.02178 -14.85451,12.50543 -1.94097,3.84824 -4.20035,7.45266 -5.02084,8.00982 -1.36651,0.92793 -16.273402,0.87485 -22.9758,-0.0818 z m 10.15066,-8.76172 c 0,-0.27344 -1.20714,-3.22612 -2.682538,-6.56149 C 96.854406,109.86606 90.48581,104 85.934149,104 81.244751,104 68.218422,97.455325 67.328779,94.652312 66.907427,93.324748 65.090719,91.274091 63.291651,90.095295 57.188201,86.096161 51.287881,69.658912 48.317534,48.380054 47.765413,44.424781 44.70144,40.18745 43.362045,41.526845 c -0.887144,0.887144 3.317471,29.339139 4.724136,31.967515 0.685935,1.28168 1.247153,3.724547 1.247153,5.428592 0,4.297883 6.168457,15.784616 10.448855,19.457577 1.953131,1.675961 5.651146,3.976531 8.217813,5.112391 18.808467,8.32354 19.710196,8.88988 23.367741,14.67627 2.947675,4.66335 4.447798,5.83081 7.492273,5.83081 2.093664,0 3.806654,-0.22373 3.806654,-0.49718 z m 8.83349,-1.83616 c 2.56455,-7.9807 3.94834,-9.87565 9.46219,-12.9574 3.29867,-1.84366 8.2748,-3.9653 11.05807,-4.71476 7.14366,-1.92359 9.87037,-4.686668 15.12604,-15.327835 3.54254,-7.172576 7.52021,-20.701681 7.52021,-25.578211 0,-0.231984 -0.9,-0.421788 -2,-0.421788 -1.48472,0 -2,1.562912 -2,6.066213 0,12.563462 -8.80075,23.521681 -25.7259,32.032531 C 110.26588,108.14472 108,109.99201 108,114.57664 c 0,1.92317 -0.93402,4.83018 -2.0756,6.46002 -1.98471,2.83356 -1.92448,2.96334 1.37518,2.96334 2.11193,0 3.74169,-0.9053 4.20058,-2.33334 z m 44.47943,-67.999994 c 0.0112,-0.916667 -0.57959,-1.666667 -1.31292,-1.666667 -0.73333,0 -1.32415,1.65 -1.31292,3.666667 0.0159,2.857249 0.30575,3.225166 1.31292,1.666666 0.71088,-1.1 1.30169,-2.75 1.31292,-3.666666 z m 75.38538,43.188004 c -4.09483,-2.994215 -3.00802,-10.156222 2.22109,-14.636683 10.64519,-9.121137 18.41395,-17.364556 18.41395,-19.539015 0,-1.293849 -0.99336,-3.175921 -2.20747,-4.18238 -3.07995,-2.553176 -15.79995,-18.709462 -16.75724,-21.284171 -1.18461,-3.186099 0.90116,-5.623883 3.97664,-4.647764 2.45683,0.779768 9.17103,7.667518 19.81576,20.327986 l 4.16104,4.948979 14.15384,-12.219381 c 13.77731,-11.894307 16.97188,-13.388442 18.74517,-8.767322 0.75267,1.961444 -13.35172,16.359156 -23.74593,24.239775 -2.59121,1.964585 -4.73316,3.935781 -4.75989,4.380438 -0.0267,0.444656 5.33197,6.36078 11.9082,13.146941 12.16314,12.551422 14.96426,16.905947 12.03829,18.714296 -3.95093,2.441817 -7.51541,-0.199544 -18.44707,-13.669704 -6.03954,-7.44202 -9.24073,-10.333333 -11.44082,-10.333333 -3.7588,0 -20.77386,15.216625 -20.77386,18.578139 0,1.288042 -1.09192,3.330065 -2.42648,4.537829 -2.06378,1.867704 -2.7925,1.928294 -4.87522,0.40537 z"
       id="path1226" />
  </g>
</svg>
