<?xml version="1.0" encoding="UTF-8" standalone="no"?>
<!-- Created with Inkscape (http://www.inkscape.org/) -->

<svg
   version="1.1"
   id="svg243"
   width="218.66667"
   height="132"
   viewBox="0 0 218.66667 132"
   xmlns="http://www.w3.org/2000/svg"
   xmlns:svg="http://www.w3.org/2000/svg">
  <defs
     id="defs247" />
  <g
     id="g249">
    <path
       style="fill:#000000;stroke-width:1.33333"
       d="M 7.7455099,126.42913 C 4.6907031,124.04101 3.215215,110.29333 3.7354613,89.065969 4.0918113,74.525987 4.4697229,72.037732 6.4085761,71.465585 9.5530288,70.537671 49.299247,69.422888 106,68.672296 c 26.4,-0.349479 58.8679,-1.025823 72.15087,-1.502988 28.84259,-1.036116 29.01669,-0.961693 30.5164,13.045172 1.25229,11.696051 0.30033,40.69279 -1.39133,42.37996 -2.114,2.10837 -14.97699,2.71703 -75.27594,3.56198 -30.43333,0.42646 -70.333332,1.05883 -88.666666,1.40527 -26.361786,0.49816 -33.8048525,0.26128 -35.5878241,-1.13256 z M 91.446205,115.51999 c 0.600487,-1.56484 -4.979764,-17.620149 -10.795397,-31.060142 -1.78438,-4.123725 -2.046019,-4.225619 -13.246091,-5.158579 -10.538825,-0.87788 -24.440319,-0.395193 -43.757793,1.519355 -10.19174,1.0101 -10.650323,2.032548 -9.504869,21.191916 l 0.915961,15.32079 h 37.846173 c 30.679632,0 37.977936,-0.34337 38.542016,-1.81334 z m 25.887135,-4.58079 c 0,-4.50263 -9.17962,-25.17644 -13.5465,-30.50864 -1.31548,-1.606277 -10.133799,-0.970876 -12.188668,0.878252 -1.316831,1.184984 1.630636,9.245425 8.663168,23.691188 l 5.35506,11 h 5.85847 5.85847 z m 70.58986,2.22405 9.10355,-1.50342 0.52361,-6.16325 c 0.288,-3.38979 0.20699,-10.963247 -0.18002,-16.829913 L 196.66667,78 h -37.33333 c -20.53334,0 -39.05069,0.478335 -41.14967,1.062967 -3.43612,0.957066 -3.62405,1.289156 -1.88626,3.333333 1.06154,1.248701 2.70276,4.370367 3.64716,6.937033 3.53926,9.618931 9.72904,22.057627 11.77707,23.666667 2.75094,2.16128 43.38826,2.27932 56.20156,0.16325 z M 93.91804,38.998329 C 93.139628,38.449248 91.928716,35.940249 91.227123,33.422776 90.267268,29.978604 88.967339,28.566985 85.975751,27.720211 83.789088,27.101272 65.265788,26.712001 44.812861,26.855163 9.9331292,27.099307 7.513236,26.961624 5.8128608,24.636223 3.6894533,21.732289 3.4800923,19.145365 5.2785294,18.033871 5.9817205,17.599275 24.831447,17.030345 47.166811,16.769583 c 22.335365,-0.260762 41.213865,-0.847474 41.952224,-1.303804 0.738357,-0.456331 1.727198,-2.581353 2.197422,-4.722272 1.836094,-8.3596765 9.087993,-8.7795885 10.619693,-0.61492 1.14365,6.096176 4.80461,5.665961 6.90549,-0.8114946 1.15954,-3.5750849 2.23725,-4.6504257 4.6607,-4.6504257 2.64659,0 3.34991,0.9362858 4.38337,5.8352523 l 1.23097,5.835252 43.1889,-0.721164 43.18889,-0.721164 1.40047,3.0737 c 0.92797,2.036665 0.95918,3.86225 0.0925,5.410914 -1.15328,2.060796 -3.96977,2.377936 -23.81437,2.681534 -30.49351,0.46651 -59.43256,1.990098 -61.72058,3.249477 -1.03447,0.569392 -2.53447,3.057469 -3.33334,5.529061 -1.00699,3.115514 -2.38987,4.626744 -4.50875,4.927246 -2.47769,0.351388 -3.48733,-0.592574 -5.33333,-4.986439 -1.25239,-2.980935 -2.67766,-5.425983 -3.16726,-5.433441 -0.48961,-0.0075 -1.98961,2.236438 -3.33333,4.986438 -2.426208,4.965332 -5.144797,6.579164 -7.858443,4.664996 z"
       id="path271" />
  </g>
</svg>
