<?xml version="1.0" encoding="UTF-8" standalone="no"?>
<!-- Created with Inkscape (http://www.inkscape.org/) -->

<svg
   version="1.1"
   id="svg233"
   width="218.66667"
   height="214.66667"
   viewBox="0 0 218.66667 214.66667"
   xmlns="http://www.w3.org/2000/svg"
   xmlns:svg="http://www.w3.org/2000/svg">
  <defs
     id="defs237" />
  <g
     id="g239">
    <path
       style="fill:#000000;stroke-width:1.33333"
       d="M 30.811663,201.4104 C 25.471851,190.90234 23.599335,188 22.159595,188 c -2.100892,0 -4.739993,4.54386 -4.783857,8.23656 -0.04821,4.0584 -5.755754,9.37891 -8.8056784,8.20854 C 4.4024571,202.84584 5.108253,197.84823 11.333242,184.87951 16.420951,174.28011 18.043096,172 20.496147,172 23.873403,172 32,179.70018 32,182.90022 c 0,1.15862 0.900001,2.85353 2.000001,3.76645 1.1,0.91292 2,2.48639 2,3.49659 0,4.5179 4.168833,1.08314 8.694184,-7.16326 7.760132,-14.14102 8.969013,-14.23276 17.572471,-1.33333 3.546028,5.31667 7.283341,9.66667 8.305141,9.66667 1.0218,0 3.968821,-4.05 6.548938,-9 4.019318,-7.71114 5.203714,-9 8.270525,-9 3.545732,0 5.103773,1.71645 12.479387,13.74822 1.267916,2.06834 3.233503,3.56227 4.385703,3.33334 1.1484,-0.2282 4.60997,-4.0149 7.69238,-8.4149 3.08241,-4.4 6.55037,-8.18348 7.70656,-8.40774 2.59428,-0.5032 6.59496,3.5675 12.60086,12.8214 2.52738,3.89418 5.30367,6.86344 6.16955,6.59836 0.86586,-0.26508 2.7743,-2.91442 4.24097,-5.8874 1.46667,-2.973 4.33204,-7.57239 6.36751,-10.22087 3.22262,-4.19319 4.08408,-4.63655 6.66666,-3.43111 2.58696,1.2075 8.11295,8.46548 12.29667,16.15079 2.18121,4.0068 5.04285,2.14576 9.40496,-6.1164 6.47416,-12.26255 10.59399,-12.98289 16.93087,-2.96035 2.01666,3.1896 3.66666,6.48855 3.66666,7.33099 0,0.84244 1.75324,5.00485 3.89608,9.24981 4.34488,8.60715 3.82568,11.31563 -2.04076,10.64596 -3.25242,-0.37128 -4.54074,-1.79538 -8.23845,-9.10677 -4.49624,-8.89029 -7.69423,-11.39269 -9.07168,-7.09855 -1.49532,4.66162 -6.25193,13.11051 -8.31261,14.76522 -5.24686,4.21316 -9.16334,1.154 -16.28872,-12.7231 -1.61623,-3.1477 -3.61478,-5.50025 -4.44123,-5.22789 -0.82644,0.27237 -3.60263,4.58887 -6.16929,9.59223 -2.56667,5.00334 -5.65607,9.7146 -6.86535,10.46945 -3.13023,1.95395 -8.16488,-1.67927 -11.10089,-8.01084 -4.23621,-9.13551 -11.3228,-14.5866 -11.39675,-8.76652 -0.0163,1.28333 -1.20296,3.83333 -2.63701,5.66667 -1.43406,1.83333 -2.62072,4.3695 -2.63702,5.63593 -0.0387,3.00365 -5.73462,6.68971 -9.47801,6.13357 -1.958434,-0.29096 -4.097958,-2.65569 -6.426397,-7.10284 -4.911137,-9.37992 -7.21207,-12.66666 -8.867482,-12.66666 -0.788763,0 -3.18583,3.66501 -5.326816,8.14448 -3.99093,8.34998 -7.402722,11.85552 -11.538494,11.85552 -2.1515,0 -5.29874,-4.73219 -11.633076,-17.49147 C 56.377036,189.72884 54.829449,188 53.986963,188 c -0.842485,0 -3.50617,3.92911 -5.9193,8.73135 -7.839008,15.6 -11.238018,16.52165 -17.256,4.67905 z M 68.699912,138.93944 C 65.810917,138.29888 64.917957,137.30864 57.93352,127 c -4.590314,-6.77504 -8.600186,-9.10664 -8.600186,-5.00069 0,3.37563 -7.188628,15.27044 -9.731951,16.10316 -3.704341,1.21285 -8.548412,-2.79171 -13.071432,-10.80606 -4.286371,-7.59503 -9.196617,-10.06731 -9.196617,-4.63044 0,1.46629 -1.65,5.65764 -3.666667,9.31413 -3.8297754,6.94389 -8.4967317,8.99188 -10.2253493,4.48718 -0.9259157,-2.4129 10.4324853,-30.14941 13.3319223,-32.55573 3.560875,-2.95526 9.003202,1.56274 13.865154,11.5103 1.092758,2.23579 6.338163,8.57815 7.094492,8.57815 0.375337,0 2.570076,-4.0338 4.877199,-8.96401 4.514084,-9.64638 5.773069,-10.98407 10.367454,-11.01557 2.206617,-0.0151 3.836918,1.61936 6.296721,6.31292 C 62.353942,116.20968 68.375694,124 69.838304,124 c 0.348082,0 2.20489,-3.43372 4.126237,-7.6305 C 78.093509,107.35065 80.859129,104 84.174317,104 c 3.055927,0 9.87431,7.40796 13.426386,14.58734 3.330307,6.73114 4.403907,6.09264 11.336177,-6.742 2.72669,-5.04827 5.81051,-9.17867 6.85293,-9.17867 2.23043,0 10.87386,8.81136 10.88348,11.09493 0.004,0.86446 1.40771,3.32274 3.12014,5.46287 3.88839,4.85953 6.81128,4.00943 9.92933,-2.88786 4.2916,-9.49321 8.22616,-13.85855 12.08787,-13.41128 2.86775,0.33215 4.41493,2.14332 8.32149,9.74134 2.63934,5.13333 5.81515,9.5323 7.05738,9.77548 1.66996,0.32692 3.37298,-2.02957 6.53454,-9.04191 7.12023,-15.792633 11.83363,-14.485098 21.75687,6.03553 7.39829,15.29921 7.69351,22.30095 0.84049,19.93487 -2.5285,-0.873 -7.52716,-8.04024 -9.03533,-12.95518 C 185.37574,120.18994 180,117.3036 180,122.50341 c 0,1.37687 -0.9,3.25034 -2,4.16326 -1.1,0.91292 -2,2.73305 -2,4.04473 0,1.31169 -1.81601,3.91296 -4.03558,5.78062 -4.50894,3.79401 -8.91166,3.26749 -11.29775,-1.35111 -3.15325,-6.10351 -10.37521,-16.47424 -11.47233,-16.47424 -0.65688,0 -1.19434,1.16459 -1.19434,2.58798 0,1.42338 -0.64965,2.98948 -1.44368,3.48022 -0.79402,0.49073 -2.57437,3.53005 -3.95634,6.75405 -3.32171,7.74924 -8.06264,10.10702 -12.30636,6.12026 -1.65734,-1.55699 -4.66766,-6.09805 -6.6896,-10.09124 -5.22222,-10.31355 -6.80245,-10.37763 -11.75536,-0.47671 -2.28145,4.56066 -4.99581,9.25601 -6.0319,10.43413 -2.81332,3.19896 -8.307253,1.56795 -11.190325,-3.32214 -5.06684,-8.59407 -9.533548,-14.16199 -10.755308,-13.4069 -0.695274,0.4297 -3.001746,4.22347 -5.125495,8.43059 -4.403847,8.72397 -6.322092,10.58815 -10.04572,9.76253 z M 88.347683,61.685992 C 87.789791,61.508025 82.833335,60.809457 77.333335,60.13362 66.989158,58.862532 54.295071,56.065713 47.333334,53.523883 c -2.2,-0.80325 -8.2,-2.725653 -13.333333,-4.272004 C 23.051212,45.953698 7.7881748,39.128351 6.3676832,36.895222 5.8212496,36.036183 5.3649798,33.697166 5.3537505,31.697404 5.3292978,27.342807 8.4177815,25.091556 18.666667,21.993383 22.7,20.774131 28.1,18.936179 30.666667,17.909046 38.134826,14.920424 65.913217,9.3123116 84.000001,7.1417072 117.02956,3.177812 164.149,8.4569112 188.66667,18.868198 c 21.44132,9.104937 26.00023,11.695814 25.97959,14.764473 -0.0284,4.224519 -1.19347,5.611546 -7.31292,8.706318 -7.53206,3.809168 -37.70038,13.659535 -41.86182,13.668448 -1.90933,0.0041 -5.57152,0.573112 -8.13818,1.264493 -9.98168,2.688763 -63.632731,6.121635 -68.985657,4.414062 z M 134,47.251735 c 10.26667,-1.16583 23.76667,-3.259113 30,-4.651738 6.23334,-1.392626 15.0463,-3.218112 19.58438,-4.056638 4.53806,-0.838525 8.53352,-2.260752 8.87878,-3.160505 0.89522,-2.332888 -9.633,-7.099483 -18.04886,-8.171524 -3.89454,-0.496099 -8.28096,-1.53267 -9.74763,-2.303491 C 156.53306,20.633142 98.870188,17.121396 82.666668,19.91393 74.667896,21.292447 63.046881,23.08601 37.333334,26.91058 27.1197,28.429731 24,29.759427 24,32.593586 c 0,2.200284 9.809078,6.776419 18.666667,8.70838 4.033334,0.879725 10.968183,2.467871 15.410777,3.529209 8.066562,1.927111 30.284489,3.93496 47.922556,4.330795 5.13334,0.1152 17.73334,-0.744403 28,-1.910235 z"
       id="path410" />
  </g>
</svg>
