<?xml version="1.0" encoding="UTF-8" standalone="no"?>
<!-- Created with Inkscape (http://www.inkscape.org/) -->

<svg
   version="1.1"
   id="svg223"
   width="213.33333"
   height="229.33333"
   viewBox="0 0 213.33333 229.33333"
   xmlns="http://www.w3.org/2000/svg"
   xmlns:svg="http://www.w3.org/2000/svg">
  <defs
     id="defs227" />
  <g
     id="g229">
    <path
       style="fill:#000000;stroke-width:1.33333"
       d="m 37.97951,223.82781 c -2.307451,-0.61712 -5.00594,-2.74349 -6.333333,-4.99059 -2.881276,-4.87761 -3.045529,-16.7342 -0.304629,-21.98964 1.095481,-2.10049 1.991785,-4.89714 1.991785,-6.2148 0,-2.1954 -6.97186,-9.29945 -9.126401,-9.29945 -0.506991,0 -4.660956,-3.47083 -9.231034,-7.71296 -7.2298328,-6.71101 -8.3092314,-8.33793 -8.3092314,-12.52401 0,-5.80662 3.0195642,-7.56911 6.3635744,-3.71436 9.897652,11.40932 20.994428,19.6613 24.586001,18.28309 0.969213,-0.37192 2.586693,-4.39265 3.5944,-8.93496 1.561052,-7.03653 1.557713,-8.50511 -0.02256,-9.92364 C 9.7515184,128.58759 8.7805231,127.46888 13.756444,125.2017 c 2.577358,-1.17433 4.263444,-0.90564 8.781642,1.39937 3.075512,1.56901 5.927883,3.72846 6.338604,4.79878 0.410722,1.07032 2.646439,2.84749 4.96826,3.94927 2.321821,1.10177 7.191327,4.84896 10.821121,8.32705 L 51.265699,150 82.632848,149.81696 C 99.884781,149.71629 122.1,148.98582 132,148.1937 c 20.94657,-1.67598 70.25937,-2.25245 73.66666,-0.86116 C 207.2479,147.9782 208,149.75414 208,152.84232 208,157.87268 204.78796,160 197.19261,160 h -3.96712 l 0.38725,11 0.38726,11 6.9315,0.40064 c 5.49494,0.3176 7.10251,0.93936 7.75652,3 1.23644,3.89568 -0.52669,7.93736 -4.04632,9.27552 -3.87224,1.47221 -105.994715,2.09257 -128.176655,0.77862 -12.598559,-0.74628 -16.437483,-0.57808 -17.262213,0.75636 -0.583326,0.94386 -1.185017,5.56224 -1.33709,10.26311 -0.195907,6.0558 -1.031127,9.55777 -2.865515,12.01473 -3.149888,4.21894 -11.460829,6.8258 -17.020717,5.33883 z m 8.473136,-17.89055 c 2.177724,-4.77958 1.922769,-8.54356 -0.645457,-9.52908 -4.044688,-1.55209 -9.325842,9.3893 -5.654319,11.71451 3.064451,1.94075 4.674203,1.38231 6.299776,-2.18543 z m 23.596777,-24.99282 c 0.421793,-1.68056 0.583224,-6.63056 0.358736,-11 L 69.999999,162 h -7.333333 -7.333334 l 0.20883,9.04729 C 55.828559,183.45514 56.153463,184 63.266083,184 c 5.159703,0 6.125649,-0.43511 6.78334,-3.05556 z m 19.434146,-1.35994 c 1.171047,-4.40582 -0.482373,-16.44997 -2.540836,-18.50844 -2.837284,-2.83728 -5.60233,-0.0347 -5.803224,5.8821 -0.246214,7.25153 0.274363,14.72808 1.122271,16.11809 1.489528,2.44184 6.2574,0.13657 7.221789,-3.49175 z m 67.033631,2.96128 5.18388,-1.43933 -0.79027,-9.42629 c -0.43465,-5.18446 -1.26739,-9.9034 -1.85055,-10.48655 -1.39064,-1.39064 -46.48474,-1.99659 -51.95524,-0.69813 -3.98647,0.9462 -4.21563,1.33118 -4.00663,6.73128 0.12192,3.15022 -0.60507,7.27245 -1.61553,9.1605 -3.867506,7.22651 -2.605322,7.61344 24.80862,7.6053 13.80829,-0.004 27.36729,-0.65311 30.22572,-1.44678 z m 25.5116,-2.87912 c 0.41045,-1.65 0.57188,-6.3 0.35873,-10.33333 -0.34683,-6.56297 -0.71884,-7.38021 -3.54132,-7.77955 -4.8094,-0.68048 -5.47985,0.98944 -4.60188,11.46194 0.754,8.99374 1.02119,9.65094 3.92365,9.65094 2.1199,0 3.35287,-0.95806 3.86082,-3 z M 61.837815,54.980673 C 58.445214,51.588071 58.490891,47.246977 62.031263,36.595774 65.96586,24.758548 67.170406,22.57407 73.234363,16.278648 81.093408,8.1196191 87.026281,5.9998736 102,6.0010264 c 11.95586,9.206e-4 14.0491,0.3782951 20.26168,3.6528215 8.26966,4.3587681 14.47933,12.0540321 22.0409,27.3139111 4.71831,9.521952 5.25767,11.473646 3.95867,14.324636 -0.82715,1.815387 -2.87431,3.594167 -4.54924,3.952846 -1.67495,0.358677 -20.36923,0.858489 -41.54286,1.110692 -31.351894,0.373438 -38.837902,0.118173 -40.331335,-1.37526 z M 129.88201,44.577138 c 2.88532,-0.724168 3.45132,-1.626765 3.45132,-5.503755 0,-6.668205 -13.56759,-20.810989 -22.00203,-22.934806 -10.38558,-2.615119 -15.956879,-1.894719 -23.638745,3.056616 -10.581518,6.820303 -14.123615,11.19848 -15.674021,19.373738 -0.743527,3.920606 -1.351868,7.312459 -1.351868,7.537451 0,0.775552 55.770874,-0.664739 59.215344,-1.529244 z"
       id="path549" />
  </g>
</svg>
