<?xml version="1.0" encoding="UTF-8" standalone="no"?>
<!-- Created with Inkscape (http://www.inkscape.org/) -->

<svg
   version="1.1"
   id="svg193"
   width="217.33333"
   height="224"
   viewBox="0 0 217.33333 224"
   xmlns="http://www.w3.org/2000/svg"
   xmlns:svg="http://www.w3.org/2000/svg">
  <defs
     id="defs197" />
  <g
     id="g199">
    <path
       style="fill:#000000;stroke-width:1.33333"
       d="m 73.666666,217.78363 c -0.916667,-0.36988 -1.666667,-2.11108 -1.666667,-3.86934 0,-2.2972 0.937205,-3.43204 3.330352,-4.03268 6.591298,-1.65432 9.663625,2.26727 5.241076,6.68982 -2.12221,2.12221 -3.883295,2.43138 -6.904761,1.2122 z m 29.059124,-1.67316 c -1.17758,-2.20032 -0.92588,-3.24372 1.32563,-5.49523 3.16442,-3.16441 6.32075,-3.02096 8.46551,0.38476 2.00891,3.18999 -0.42549,6.87671 -4.89507,7.41324 -2.37622,0.28525 -3.89274,-0.42801 -4.89607,-2.30277 z m 27.31328,-1.38059 c -1.56589,-2.53365 0.7203,-6.70235 4.14742,-7.56249 4.10336,-1.02988 6.18411,0.83476 5.59305,5.01216 -0.34597,2.44529 -1.39158,3.24554 -4.65441,3.56226 -2.31451,0.22467 -4.60324,-0.2307 -5.08606,-1.01193 z M 19.620644,207.10049 C 12.944706,205.28493 7.0530206,193.53632 9.500552,186.92001 c 0.601992,-1.62733 2.649331,-3.54993 4.549642,-4.27242 3.158408,-1.20083 124.585106,-3.70102 137.283136,-2.82668 8.95095,0.61633 15.33581,0.67501 31.70552,0.29137 17.54353,-0.41115 20.60931,0.60041 23.5838,7.78145 1.5428,3.72466 1.39007,4.50455 -1.66716,8.51278 -3.15124,4.13148 -4.14248,4.5159 -15.56631,6.03689 -6.71042,0.89343 -12.75833,1.27983 -13.43978,0.85867 -1.70854,-1.05594 -90.388948,-0.93315 -92.105155,0.1276 -0.760554,0.47004 -13.786646,1.30762 -28.946869,1.8613 -15.160223,0.5536 -28.764043,1.33286 -30.23071,1.7316 -1.466666,0.39875 -3.737377,0.43382 -5.046022,0.0779 z M 159.79012,195.48048 c 32.67721,-0.45271 33.88485,-0.56417 36.66666,-3.38453 2.83895,-2.8783 2.84254,-2.94167 0.27466,-4.84955 -1.60994,-1.19613 -4.15158,-1.65161 -6.66667,-1.19472 -2.23563,0.40612 -26.26477,0.96311 -53.39811,1.23775 -84.751907,0.85781 -119.333327,2.62498 -119.333327,6.09812 0,3.86614 7.018855,3.96926 142.456787,2.09293 z M 73.993836,131.66624 c -2.745261,-2.36137 -3.440862,-3.87421 -2.76315,-6.0095 1.243813,-3.9189 5.532491,-5.00368 9.501263,-2.40324 4.100136,2.68651 4.124707,4.81021 0.0994,8.59178 l -3.168645,2.97679 -3.66887,-3.15583 z m 28.212814,-0.77123 c -3.256421,-3.5983 -2.72735,-5.35652 2.33882,-7.77241 7.28608,-3.47448 12.06211,0.22367 8.99173,6.96243 -1.8199,3.99422 -8.04605,4.43932 -11.33055,0.80998 z M 129.6,130.4 c -2.26703,-2.26703 -1.98983,-4.30058 0.94875,-6.95996 3.76481,-3.4071 9.99137,-2.3366 10.57787,1.81859 0.76854,5.44478 -7.52426,9.14373 -11.52662,5.14137 z M 18.149369,120.08123 C 7.0491242,118.5291 3.2608143,109.43382 9.7285511,99.863844 12.39252,95.922109 13.56214,95.30874 18.72855,95.144092 c 3.265964,-0.104083 16.138116,-0.561772 28.604783,-1.017089 12.466666,-0.455316 51.46612,-1.05828 86.665447,-1.339919 70.9849,-0.567969 69.83886,-0.692452 73.46218,7.979366 3.51757,8.41874 -0.35451,14.65436 -10.42272,16.78478 -3.1377,0.66394 -16.80491,1.10367 -30.37158,0.97718 -47.17375,-0.43981 -84.719209,-0.20692 -93.333328,0.57893 -14.698174,1.34089 -48.316271,1.93418 -55.183963,0.97389 z m 75.183963,-10.06667 c 99.269428,-1.62155 101.999998,-1.78513 101.999998,-6.11049 0,-1.59963 -5.54285,-1.91293 -34.66667,-1.95948 -53.84391,-0.0861 -129.868516,2.05289 -136.560419,3.84213 -3.241567,0.86671 -6.127991,2.27853 -6.414273,3.13737 -0.734936,2.20481 5.861094,2.84652 22.974698,2.23515 8.066667,-0.28818 31.766666,-0.80329 52.666666,-1.14468 z M 73.993836,46.332911 c -2.745261,-2.361375 -3.440862,-3.874219 -2.76315,-6.0095 1.243813,-3.918908 5.532491,-5.003684 9.501263,-2.403244 4.100136,2.686512 4.124707,4.810208 0.0994,8.591784 l -3.168645,2.976789 -3.66887,-3.155829 z m 28.366694,-0.543807 c -1.9812,-1.981201 -2.00733,-2.604553 -0.25147,-6 2.64349,-5.111948 9.22475,-5.376697 11.46441,-0.461187 2.93465,6.440867 -6.05385,11.620278 -11.21294,6.461187 z m 28.16846,-0.29914 c -2.73582,-2.215332 -2.91306,-2.919796 -1.50963,-6 C 130.29191,36.69702 131.53787,36 135.25784,36 c 6.92932,0 9.0746,6.044785 3.66728,10.333333 -2.88138,2.285208 -4.76632,2.09587 -8.39613,-0.843369 z M 12.420496,33.415779 C 6.2830978,30.749643 4.9110965,22.488663 9.3995345,15.226217 13.783021,8.1335861 15.564038,7.9151417 69.396074,7.8675504 162.00582,7.7856768 194.15312,8.1836657 199.06081,9.4728213 c 5.40301,1.4192687 10.25823,7.4156037 10.26753,12.6806997 0.0181,10.254543 -14.21401,13.470296 -51.72853,11.688064 C 144.61992,33.224939 125.9,32.780249 116,32.853388 c -9.9,0.07313 -20.700001,0.10324 -24.000001,0.06691 -3.3,-0.03635 -7.8,4.4e-4 -10,0.08173 -33.375036,1.23332 -67.229449,1.434635 -69.579503,0.413752 z m 86.912836,-9.838127 c 2.199998,-0.03296 22.299998,0.362075 44.666668,0.877851 33.60292,0.774882 41.59306,0.607468 46,-0.96383 2.93333,-1.045881 5.50424,-2.739488 5.71313,-3.763569 0.36249,-1.777161 -16.32989,-2.349905 -84.3798,-2.895212 -13.387036,-0.10728 -76.214263,1.876669 -83.669057,2.642083 -7.82884,0.803817 -9.894095,1.995786 -8.201928,4.73377 0.710057,1.148898 10.503929,1.272674 38.412022,0.485455 20.60243,-0.581144 39.258965,-1.083591 41.458965,-1.116548 z"
       id="path966" />
  </g>
</svg>
