<?xml version="1.0" encoding="UTF-8" standalone="no"?>
<!-- Created with Inkscape (http://www.inkscape.org/) -->

<svg
   version="1.1"
   id="svg183"
   width="202.66667"
   height="145.33333"
   viewBox="0 0 202.66667 145.33333"
   xmlns="http://www.w3.org/2000/svg"
   xmlns:svg="http://www.w3.org/2000/svg">
  <defs
     id="defs187" />
  <g
     id="g189">
    <path
       style="fill:#000000;stroke-width:1.33333"
       d="m 180.4888,138.96774 c -5.06181,-2.5644 -8.42264,-6.88428 -8.45914,-10.87308 -0.0163,-1.78127 -0.5896,-5.08127 -1.27398,-7.33333 -0.68437,-2.25207 -1.94642,-9.73312 -2.80456,-16.62457 -2.54076,-20.404414 -3.77297,-22.721261 -16.49117,-31.007219 -6.59541,-4.296947 -9.00793,-5.129543 -14.86325,-5.129543 h -6.98989 l 0.19659,4.24316 c 0.16173,3.490438 -0.39472,4.392504 -3.13673,5.085023 -1.83333,0.463024 -6.03333,0.15154 -9.33333,-0.692188 -5.85507,-1.496995 -5.99056,-1.652029 -5.60896,-6.418356 l 0.39104,-4.884305 H 99.391044 c -11.237343,0 -12.721989,0.272685 -12.703959,2.333333 0.0112,1.283333 0.576908,3.213211 1.257063,4.288616 2.197676,3.47478 -0.820144,4.711384 -11.497708,4.711384 -9.721946,0 -10.475168,-0.201803 -10.860684,-2.909785 -0.265012,-1.861523 0.57558,-3.439524 2.333333,-4.380246 3.630942,-1.943221 3.498898,-4.048162 -0.252421,-4.023898 -7.994572,0.05171 -25.512405,9.160849 -29.592513,15.387879 -1.197817,1.828102 -3.004966,9.872511 -4.102786,18.263292 -3.657635,27.955803 -7.603443,38.682993 -14.90273,40.514993 -3.397396,0.8527 -12.157097,-0.16292 -13.5671758,-1.573 -0.4591381,-0.45913 -0.8347965,-6.93479 -0.8347965,-14.39035 0,-11.45909 0.4374822,-14.27729 2.8287234,-18.22222 C 9.051188,102.76666 10.730322,98.946132 11.226798,96.84326 12.676321,90.703674 22.823002,76.568316 29.333334,71.619016 36.660105,66.049041 44.829263,61.763483 55.09947,58.102043 62.841634,55.341879 62.87506,55.30658 65.928358,46.666666 68.970016,38.059695 74.328155,25.095323 79.822717,13.048349 84.256795,3.3265157 88.186915,2.6830335 132.66667,4.39616 c 19.25372,0.7415521 24.29817,1.3285601 25.50773,2.9682578 1.1867,1.6086839 0.43343,4.2362552 -3.53753,12.3397432 -12.04915,24.588582 -13.47524,27.913551 -14.18807,33.079882 l -0.75206,5.450709 9.8183,3.096019 c 17.52594,5.526478 26.16903,12.199539 36.70387,28.337903 7.36769,11.286606 9.64244,17.622036 10.66328,29.698536 0.72753,8.60675 0.49011,9.9574 -2.61511,14.87636 -3.90345,6.18348 -8.07472,7.61369 -13.77828,4.72417 z M 19.142762,127 c 1.927678,-3.76385 3.511469,-12.9473 4.147296,-24.04769 0.198022,-3.457104 0.802961,-7.335646 1.344309,-8.618979 0.604132,-1.432169 0.398064,-2.333333 -0.533561,-2.333333 -0.834807,0 -1.912596,1.05 -2.395086,2.333333 -0.482489,1.283333 -2.629905,5.322092 -4.772036,8.975019 -3.093672,5.27557 -4.040816,8.77227 -4.604757,17 -0.677474,9.88413 -0.580746,10.35831 2.112976,10.35831 1.735443,0 3.546392,-1.41253 4.700859,-3.66666 z m 169.370558,0.38024 c 1.18435,-1.80753 2.1386,-4.35753 2.12056,-5.66667 -0.04,-2.89955 -4.53844,-16.65002 -7.53985,-23.046906 -4.43048,-9.442615 -11.39712,-16.297663 -9.14651,-8.999999 1.65699,5.372855 4.66518,24.207405 4.6925,29.380245 0.0285,5.40572 3.25149,11.61975 6.02665,11.61975 0.93132,0 2.66231,-1.47889 3.84665,-3.28642 z M 92.475116,51.666665 c 1.028458,-1.649999 2.923459,-5.999999 4.211116,-9.666666 1.287656,-3.666667 3.489778,-9.167565 4.893608,-12.22422 3.2412,-7.057322 4.63587,-15.109113 2.61708,-15.109113 -1.57969,0 -8.196709,12.07262 -8.197224,14.955675 -1.66e-4,0.941045 -1.77636,5.010992 -3.947094,9.044325 -5.545473,10.303764 -5.166418,21.966574 0.422514,12.999999 z M 108.56259,44.61579 c 2.62391,-5.527982 4.77075,-10.651885 4.77075,-11.386451 0,-0.734566 1.23569,-3.757736 2.74598,-6.718154 2.78351,-5.456132 3.03768,-10.602137 0.56379,-11.414601 C 114.43262,14.370628 104,36.914622 104,42.417248 c 0,1.42426 -0.9,3.336499 -2,4.249418 -1.1,0.912918 -2,3.086385 -2,4.829926 0,6.177905 3.82195,3.106625 8.56259,-6.880802 z m 9.10697,7.717542 c 1.14557,-1.283333 3.27562,-5.99068 4.73344,-10.46077 1.45781,-4.470091 3.24027,-9.270091 3.96101,-10.666667 5.08732,-9.857683 7.08561,-17.872562 4.45601,-17.872562 -2.29268,0 -13.48668,20.446308 -13.48668,24.633974 0,0.950331 -0.89631,3.446457 -1.99179,5.546949 -2.1544,4.130872 -2.70941,11.152409 -0.88153,11.152409 0.61967,0 2.06397,-1.05 3.20954,-2.333333 z m 13.88962,-3.76082 c 1.59089,-2.881549 2.94458,-6.43918 3.00822,-7.905846 0.0636,-1.466667 0.89608,-4.166667 1.84987,-6 2.83279,-5.445016 6.46683,-17.560634 5.54313,-18.480376 -1.42766,-1.421569 -5.83494,5.055283 -7.44652,10.943257 -0.83354,3.045415 -2.29416,7.337119 -3.2458,9.537119 -2.2877,5.288669 -5.8909,15.711519 -5.91534,17.11111 -0.0459,2.629119 3.54286,-0.380736 6.20644,-5.205264 z m -51.270495,2.427487 c 3.279095,-3.759225 4.919328,-7.602563 8.462254,-19.828457 4.719897,-16.287381 3.063469,-16.465413 -4.697419,-0.504876 -2.317813,4.766667 -4.737008,9.642801 -5.375985,10.835856 -1.90772,3.561958 -3.09536,11.83081 -1.699238,11.83081 0.701288,0 2.190964,-1.05 3.310388,-2.333333 z"
       id="path1124" />
  </g>
</svg>
