<?xml version="1.0" encoding="UTF-8" standalone="no"?>
<!-- Created with Inkscape (http://www.inkscape.org/) -->

<svg
   version="1.1"
   id="svg173"
   width="73.333336"
   height="217.33333"
   viewBox="0 0 73.333336 217.33333"
   xmlns="http://www.w3.org/2000/svg"
   xmlns:svg="http://www.w3.org/2000/svg">
  <defs
     id="defs177" />
  <g
     id="g179">
    <path
       style="fill:#000000;stroke-width:1.33333"
       d="m 32.153952,213.28198 c -10.994357,-0.90668 -14.305479,-3.21209 -12.085813,-8.4149 1.501654,-3.51983 5.014758,-29.74023 6.636711,-49.53375 0.661012,-8.06667 1.539046,-17.07961 1.951186,-20.02876 0.717556,-5.13462 0.427714,-5.67198 -6.832146,-12.66667 C 1.6530258,103.2038 2.3491718,104.95093 6.4286037,83.999999 8.8709013,71.456975 12.226323,52.198791 13.470906,43.581255 c 0.65516,-4.536357 2.25166,-14.207277 3.547775,-21.490933 2.210018,-12.4194256 2.579862,-13.3027255 5.946992,-14.2032347 5.76512,-1.5418305 6.864587,1.1436294 4.385359,10.7112817 -1.163596,4.490465 -1.793054,8.686424 -1.398792,9.324351 1.186542,1.919868 22.02273,1.668972 22.19535,-0.267263 0.330577,-3.708009 -0.44983,-8.397873 -1.595603,-9.588791 -0.670259,-0.696666 -1.218652,-3.259529 -1.218652,-5.695251 0,-3.4280083 0.751896,-4.771172 3.327917,-5.9448855 4.881325,-2.2240804 8.653467,1.5696528 8.730151,8.7801205 0.03193,3.003008 0.628675,8.160016 1.326083,11.460016 0.697409,3.3 2.237326,13.2 3.422036,22 3.266738,24.265242 4.040031,29.773139 5.748422,40.944045 1.987752,12.997599 1.518141,13.950879 -14.636414,29.711079 l -12.288437,11.98846 0.943785,18.6782 c 1.03131,20.41041 1.0068,20.15837 4.015332,41.29065 3.039077,21.34683 1.823926,23.28874 -13.768258,22.00288 z m 3.526741,-13.95957 c 0.191047,-2.194 -0.258953,-4.88908 -1,-5.98908 -1.197652,-1.77777 -1.493238,-1.77777 -2.660275,0 -0.722104,1.1 -1.322104,3.994 -1.333333,6.43109 -0.01615,3.50528 0.467105,4.33875 2.312916,3.98908 1.499808,-0.2841 2.457419,-1.86701 2.680692,-4.43109 z M 34.244153,187.75 c -0.425634,-1.06364 -0.741577,-0.74771 -0.805556,0.80556 -0.05789,1.40554 0.257238,2.19305 0.700294,1.75 0.443054,-0.44307 0.490424,-1.59307 0.105266,-2.55556 z m 9.830849,-72.90518 c 3.625417,-3.56868 6.591667,-7.16868 6.591667,-8 0,-1.03583 -4.666891,-1.51149 -14.829928,-1.51149 -13.902966,0 -14.720303,0.14585 -13.076124,2.33334 1.921979,2.55708 13.512638,13.66666 14.258468,13.66666 0.255338,0 3.4305,-2.91983 7.055917,-6.48851 z m 6.200716,-18.844821 h 7.390951 l -0.847223,-4.236111 c -1.106,-5.530001 -1.396341,-5.744957 -7.930471,-5.871381 -3.055601,-0.05912 -11.348631,-0.576199 -18.428954,-1.149062 -12.361707,-1.000174 -12.934664,-0.926933 -14.417055,1.842939 -0.849057,1.586479 -1.356067,4.203556 -1.126687,5.815728 0.388282,2.728991 1.185046,2.947971 11.54873,3.174007 6.122422,0.133532 11.491082,0.602192 11.930355,1.041465 0.439273,0.439273 1.629092,0.480019 2.644041,0.09055 1.01495,-0.389472 5.171291,-0.708132 9.236313,-0.708132 z m 3.672475,-24.333333 c -1.927732,-8.978827 -1.969703,-9 -17.839594,-9 -13.872858,0 -14.49712,0.122653 -15.268217,3 -2.312664,8.629678 -2.007177,8.864312 12.159619,9.33933 7.15,0.239743 14.997674,0.561471 17.439274,0.71495 4.346383,0.273214 4.419807,0.188378 3.508918,-4.05428 z M 50.405339,47.167242 c 0.676179,-6.949809 -2.156072,-8.485604 -14.623288,-7.929512 -11.541859,0.514817 -13.059145,1.402887 -13.094966,7.664504 -0.02547,4.45228 1.493207,4.89266 15.979583,4.633697 l 11.333334,-0.202598 z"
       id="path1263" />
  </g>
</svg>
