<?xml version="1.0" encoding="UTF-8" standalone="no"?>
<!-- Created with Inkscape (http://www.inkscape.org/) -->

<svg
   version="1.1"
   id="svg175"
   width="78.666664"
   height="218.66667"
   viewBox="0 0 78.666664 218.66667"
   xmlns="http://www.w3.org/2000/svg"
   xmlns:svg="http://www.w3.org/2000/svg">
  <defs
     id="defs179" />
  <g
     id="g181">
    <path
       style="fill:#000000;stroke-width:1.33333"
       d="M 43.504716,211.8966 C 33.001356,203.63466 30.93046,182.9517 35.43826,131.33334 36.526967,118.86667 37.711128,103.86667 38.069729,98.000001 38.428331,92.133335 39.020296,85.985236 39.385208,84.33756 40.751857,78.166761 40.160409,46.520925 38.539219,39.07231 36.913655,31.603599 33.006484,25.244283 27.789402,21.575892 25.776668,20.160639 23.90877,20.12756 18.196085,21.406003 9.8568709,23.272238 5.3209348,21.69946 5.3537502,16.953088 5.3968174,10.72391 10.143049,7.9834976 21.157073,7.8284573 36.071203,7.6185165 46.966076,18.157759 51.390881,37.075373 c 0.976576,4.175212 3.284804,13.891294 5.129394,21.591295 1.844591,7.7 3.382135,16.703961 3.416763,20.008803 0.03463,3.304841 0.669392,8.104841 1.410587,10.666666 3.777214,13.055353 8.356961,54.977533 8.520071,77.991203 0.141264,19.9312 -1.412069,30.59957 -5.6708,38.94737 -4.266438,8.36292 -13.882175,10.97264 -20.69218,5.61589 z m 12.495282,-15.32838 c 3.641609,-7.10395 2.435339,-44.30946 -2.460866,-75.90155 L 52.505918,114 l -1.452784,5.33334 c -0.79903,2.93333 -1.502356,6.23333 -1.562944,7.33333 -1.116106,20.26305 -2.133692,48.3612 -2.052204,56.66667 0.162659,16.57862 3.892482,22.34406 8.562012,13.23488 z"
       id="path650" />
  </g>
</svg>
