<?xml version="1.0" encoding="UTF-8" standalone="no"?>
<!-- Created with Inkscape (http://www.inkscape.org/) -->

<svg
   version="1.1"
   id="svg83"
   width="201.33333"
   height="200"
   viewBox="0 0 201.33333 200"
   xmlns="http://www.w3.org/2000/svg"
   xmlns:svg="http://www.w3.org/2000/svg">
  <defs
     id="defs87" />
  <g
     id="g89">
    <path
       style="fill:#000000;stroke-width:1.33333"
       d="m 94.995822,194.52911 c -16.601178,-1.93108 -32.951723,-6.93684 -45.662489,-13.9797 -1.833334,-1.01582 -6.033334,-3.13533 -9.333334,-4.71001 -3.3,-1.57468 -8.717737,-5.33273 -12.039414,-8.35123 C 24.638906,164.46968 18.250032,159 13.763085,155.33333 5.2208926,148.35277 2.976722,143.88043 6.3323526,140.52479 c 1.731663,-1.73166 9.3162334,-1.87632 58.1628254,-1.10931 30.894318,0.48512 69.671482,1.04923 86.171482,1.25356 53.41644,0.66151 48,0.23765 48,3.75619 0,3.96096 -19.39468,24.16394 -28.66666,29.86141 -6.6165,4.06571 -18.37499,10.18336 -27.33334,14.22084 -5.12252,2.30869 -30.47223,7.59527 -35.098,7.31953 -1.5961,-0.0951 -7.25387,-0.67918 -12.572838,-1.2979 z m 24.674658,-10.63407 c 14.63986,-1.63244 30.96586,-6.60955 37.24056,-11.35307 2.3344,-1.76474 4.82086,-3.20864 5.52546,-3.20864 2.30268,0 17.5635,-14.98936 17.5635,-17.25109 0,-2.02071 -5.99104,-2.21669 -72.03781,-2.35653 -39.620799,-0.0839 -75.020799,-0.5628 -78.666669,-1.06424 -7.958611,-1.09459 -8.508313,0.36328 -2.295521,6.08794 2.383333,2.1961 5.254797,4.84546 6.381029,5.8875 C 39.324251,166.13583 57.084607,176 61.042124,176 c 1.333498,0 2.994542,0.52459 3.691208,1.16575 1.671298,1.53813 19.404713,7.14065 20.172328,6.37304 0.328007,-0.32802 2.208417,-0.11 4.178691,0.48448 5.176107,1.56174 15.830969,1.51706 30.586129,-0.12827 z M 95.632896,94.64736 C 73.458724,91.946785 59.59677,75.147483 58.242,49.333333 57.390406,33.106788 68.960944,14.909557 84.666665,7.7747067 90.017999,5.3436841 93.700933,4.7461496 103.33333,4.7461496 c 14.12201,0 21.06468,2.5454011 30.39133,11.1424144 12.97744,11.962179 16.85139,23.151129 14.06048,40.610199 -2.4227,15.155722 -6.95993,22.133082 -19.5817,30.112802 -13.44645,8.501094 -18.50416,9.74893 -32.570544,8.035795 z M 119.2954,81.649192 C 136.00846,70.882508 142.61889,57.287192 138.57394,42 c -3.1363,-11.853155 -8.4893,-18.732944 -19.24061,-24.728463 -7.14107,-3.982253 -24.745802,-4.298714 -30.74167,-0.552609 -6.308739,3.94158 -15.258328,11.358036 -15.258328,12.64446 0,0.651669 -1.479689,3.365299 -3.2882,6.030288 -3.772374,5.558905 -3.838785,13.012016 -0.207373,23.272991 1.167886,3.3 2.132162,7.225074 2.142836,8.722389 0.02407,3.37618 9.745249,12.915863 16.019404,15.720309 9.458153,4.227643 23.481931,3.573326 31.295401,-1.460173 z M 96.873316,54.895012 C 93.906248,51.61644 94.090932,47.2424 97.333332,44 c 4.248838,-4.248839 8.842048,-3.374728 11.800398,2.245679 2.14322,4.071797 1.94557,5.26601 -1.38515,8.369048 -3.62017,3.3727 -7.975094,3.484938 -10.875264,0.280285 z"
       id="path1402" />
  </g>
</svg>
