<?xml version="1.0" encoding="UTF-8" standalone="no"?>
<!-- Created with Inkscape (http://www.inkscape.org/) -->

<svg
   version="1.1"
   id="svg235"
   width="224"
   height="221.33333"
   viewBox="0 0 224 221.33333"
   xmlns="http://www.w3.org/2000/svg"
   xmlns:svg="http://www.w3.org/2000/svg">
  <defs
     id="defs239" />
  <g
     id="g241">
    <path
       style="fill:#000000;stroke-width:1.33333"
       d="m 133.01264,217.90153 c -0.42597,-0.42597 -10.27808,-1.01761 -21.89357,-1.31475 C 99.449288,216.28826 86.420567,215.19361 82,214.14025 73.172369,212.03674 56.543545,206.32132 55.125571,204.90334 54.628729,204.4065 53.058565,204 51.636317,204 c -1.422248,0 -4.772248,-1.71779 -7.444445,-3.81732 -2.672196,-2.09952 -6.958539,-4.8869 -9.525205,-6.19418 C 22.037235,187.55597 4,170.38326 4,164.79169 c 0,-3.26851 2.4989616,-6.73579 5.5995541,-7.76932 1.2569799,-0.419 1.7741139,-12.76115 2.1830429,-52.10144 C 12.249884,59.966403 12.041187,52.520826 10.151945,46.744798 8.1407721,40.595993 8.1459135,39.784487 10.223646,35.427437 12.439032,30.781725 12.425502,30.70013 8.8976013,27.430582 5.0265711,23.843033 4.6545964,22.426254 6.6196864,18.754449 7.6887256,16.756932 9.6596693,16.348157 18.286353,16.334778 26.2767,16.322378 31.576777,15.363086 41.306113,12.168261 57.300997,6.9160155 73.742695,4.5816863 80.847201,6.5543691 83.681241,7.3412866 87.5,7.9889476 89.333333,7.9936159 91.166667,7.9982825 96.47054,9.8016303 101.11972,12.001052 106.03941,14.328446 111.75961,16 114.80448,16 c 5.01966,0 6.1608,-0.336886 12.84409,-3.79183 1.64005,-0.847827 4.11678,-1.541503 5.50384,-1.541503 1.38706,0 4.5452,-0.8260346 7.0181,-1.8356318 6.67914,-2.726873 24.90033,-3.9145779 32.61584,-2.1259884 6.42484,1.4893871 7.82086,1.9536352 15.88032,5.2809942 2.2,0.908273 9.7,2.664879 16.66666,3.903568 12.04564,2.141741 12.68708,2.425615 13.08298,5.789953 0.2708,2.301368 -0.54468,4.360603 -2.33334,5.892103 -3.08997,2.645716 -3.55273,7.17856 -1.12906,11.05947 1.27322,2.038759 1.26936,3.566231 -0.018,7.126504 -1.13148,3.129044 -1.89987,20.890601 -2.48268,57.388191 l -0.84404,52.85663 4.19544,1.46254 c 3.68574,1.28485 4.19028,2.0541 4.15302,6.3321 -0.0525,6.03228 -2.16332,8.9226 -8.42758,11.53998 -2.6749,1.11762 -4.8634,2.48189 -4.8634,3.0317 0,1.11071 -13.95638,12.29788 -15.34202,12.29788 -0.48172,0 -3.43864,2.1 -6.57092,4.66667 C 181.62147,197.9 178.34659,200 177.47623,200 c -2.39498,0 -12.43086,5.28769 -15.6807,8.26181 -2.853,2.61097 -8.86801,4.65531 -17.79018,6.04641 -2.56372,0.39972 -5.91162,1.546 -7.43976,2.54728 -1.52815,1.00128 -3.12698,1.47199 -3.55295,1.04603 z m -29.9392,-9.41941 c 0.90562,-0.90563 -1.61351,-4.02371 -10.740107,-13.29364 -3.116666,-3.16562 -5.666666,-6.4834 -5.666666,-7.37284 0,-0.88944 3.681061,-5.13076 8.180136,-9.42516 4.499076,-4.29439 7.916947,-8.07118 7.595277,-8.39284 -1.01872,-1.01872 -74.8776,-1.85106 -80.197416,-0.90378 L 17.155995,170 l 9.325993,7.66666 c 5.129297,4.21667 9.664007,7.66667 10.077132,7.66667 0.413127,0 3.502288,2.1 6.864804,4.66667 3.362516,2.56666 7.069195,4.66666 8.237063,4.66666 1.167866,0 5.306088,1.7962 9.196045,3.99156 3.889956,2.19535 9.638471,4.31342 12.774475,4.70679 3.136005,0.39337 9.901826,1.86108 15.03516,3.26156 10.181186,2.77763 13.107753,3.15456 14.406773,1.85555 z m 36.43737,-3.26594 c 10.63668,-2.52621 13.71655,-3.7729 24.48919,-9.91294 1.83333,-1.04495 7.23333,-3.62739 12,-5.73878 4.76667,-2.11138 10.46667,-5.30286 12.66667,-7.09217 2.2,-1.78931 5.65,-4.29139 7.66666,-5.56019 4.1625,-2.61886 4.6264,-4.25852 1.53996,-5.44289 -3.77428,-1.44833 -76.53996,-2.35523 -76.53996,-0.95393 0,1.81045 8.04793,10.08488 11.66667,11.99501 1.65,0.87093 3,2.67511 3,4.00925 0,2.26096 -1.73195,4.20722 -13,14.60862 -2.38333,2.20002 -4.33333,4.6462 -4.33333,5.43594 0,2.22352 7.97894,1.70756 20.84414,-1.34792 z m -22.19332,-10.52952 c 3.13352,-3.95638 3.97516,-6.0846 3.29558,-8.33333 C 119.49675,182.6594 113.44034,176 111.19719,176 c -0.90047,0 -4.03928,2.72888 -6.97513,6.06417 l -5.337896,6.06417 5.557916,5.91862 c 3.05686,3.25524 6.2575,5.92636 7.11255,5.93582 0.85504,0.009 3.44833,-2.37378 5.76286,-5.29612 z M 63.157591,158.50413 c 3.901978,-1.77785 4.799892,-4.56107 4.824202,-14.95328 0.01725,-7.37724 0.221927,-7.85939 3.930482,-9.25921 4.462013,-1.68422 5.225494,-3.54915 4.379424,-10.69748 -0.50007,-4.22502 -1.062259,-5.00471 -3.36489,-4.66667 -2.087148,0.3064 -3.178138,2.033 -4.452644,7.04675 C 66.419196,134.05824 64.00324,136 56,136 c -9.129059,0 -11.064299,2.01874 -11.337807,11.82706 -0.248574,8.91423 0.576087,10.29731 6.67114,11.18851 7.224568,1.05636 8.504847,1.00099 11.824258,-0.51144 z m 26.731408,-0.25809 c 2.835608,-2.07344 3.57007,-17.34347 3.499762,-72.762619 -0.03476,-27.400783 -0.425176,-34.61611 -2.049186,-37.871516 -2.752275,-5.517066 -2.515414,-9.818519 0.796802,-14.470097 2.102895,-2.953242 2.594019,-5.050722 1.96621,-8.397231 -0.724554,-3.8622 -1.503179,-4.589987 -5.803044,-5.424151 -12.502456,-2.425446 -39.748914,-1.016402 -46.525352,2.406048 -2.075806,1.048388 -6.347722,2.23488 -9.49315,2.636648 -3.145426,0.401768 -6.595426,1.457892 -7.666666,2.346943 -2.311402,1.918292 -2.516124,6.583588 -0.484563,11.042381 1.163897,2.554475 0.971691,4.135327 -0.939769,7.729404 -2.168634,4.077632 -2.449302,9.514845 -2.87867,55.76659 -0.261662,28.18664 -0.127333,52.63664 0.298507,54.33333 0.665936,2.65329 1.614757,3.08489 6.781857,3.08489 5.221919,0 6.177658,-0.44729 7.307931,-3.42013 C 35.414851,153.36546 36,148.29369 36,143.97593 c 0,-4.31775 0.651128,-9.27953 1.446949,-11.02617 2.08301,-4.5717 8.627127,-7.9539 15.731023,-8.13027 6.044001,-0.15006 6.161873,-0.23725 6.515285,-4.81949 0.850075,-11.02179 1.835018,-11.95625 13.367227,-12.68214 4.829173,-0.30397 6.613189,0.2346 9.136861,2.75827 2.846268,2.84627 3.134102,4.28101 3.115571,15.52993 -0.02175,13.19706 -0.391457,14.4926 -4.797225,16.81031 -3.239138,1.70399 -5.151084,11.23836 -3.043398,15.17661 1.542132,2.8815 8.843928,3.26554 12.416706,0.65306 z M 121.40366,132.66666 C 121.80901,118 122.09481,93.095316 122.03878,77.322926 121.95035,52.426071 121.63349,48.212655 119.63513,45.359583 116.62055,41.055669 116.72687,37.939798 120,34.666666 c 1.46667,-1.466667 2.66667,-3.812206 2.66667,-5.212312 0,-2.25454 -1.06731,-2.555637 -9.33334,-2.633028 -8.79856,-0.08237 -9.33062,0.08257 -9.28608,2.878979 0.026,1.631499 0.87048,4.453486 1.87666,6.271085 1.56865,2.833677 1.54109,3.862287 -0.19341,7.216424 -1.63181,3.155584 -2.24107,13.341362 -3.15193,52.695275 -1.56051,67.422611 -1.6456,62.478491 1.0881,63.226531 1.28333,0.35118 5.63333,0.54518 9.66666,0.43111 l 7.33334,-0.2074 z m 23.66602,19.66667 c 0.31927,-5.54545 -0.0173,-7 -1.61976,-7 -3.93157,0 -5.17833,-5.27837 -4.38552,-18.56694 0.87417,-14.65248 2.73445,-17.43306 11.66317,-17.43306 8.62979,0 11.9391,1.94129 11.9391,7.00366 0,2.42164 0.97141,5.78987 2.15869,7.48495 1.7888,2.55387 2.92792,2.93765 6.64797,2.23976 9.5084,-1.78378 14.17226,4.95447 15.18452,21.9383 l 0.67548,11.33333 H 194 c 6.64436,0 6.66815,-0.0156 7.10893,-4.66132 0.24326,-2.56372 1.06127,-5.40713 1.8178,-6.31871 0.75655,-0.91157 1.02398,-3.61398 0.5943,-6.00536 -1.80019,-10.01905 -2.3546,-28.77647 -0.99931,-33.80966 1.00441,-3.73012 1.01504,-8.640171 0.0359,-16.585228 -0.76504,-6.207512 -1.22716,-15.786386 -1.02694,-21.286386 0.59424,-16.323577 0.11787,-22.279475 -2.0462,-25.582239 -1.8779,-2.866049 -1.81286,-3.58601 0.78636,-8.704114 3.58058,-7.05048 2.42188,-8.666981 -7.92065,-11.050073 -4.22592,-0.973723 -8.77617,-2.315318 -10.11167,-2.981323 -15.05217,-7.506455 -45.76461,-5.942509 -48.97208,2.493767 -1.28408,3.377381 -0.8596,5.461076 2.46298,12.090427 1.9822,3.954967 1.97042,4.451952 -0.16124,6.807422 -1.84587,2.039658 -2.53931,6.722122 -3.51478,23.733554 -1.33752,23.325154 -1.74107,89.540523 -0.55738,91.455763 0.41008,0.66352 3.54124,1.02573 6.95813,0.80493 l 6.21255,-0.40145 z m 32.00305,-0.0881 c 0.67687,-11.81488 -2.5405,-16.17876 -11.96368,-16.22699 -1.95669,-0.0107 -4.52888,-0.39091 -5.71598,-0.84644 -2.60599,-1.00003 -6.05974,-7.32962 -6.05974,-11.10556 0,-1.50308 -0.86458,-2.73288 -1.9213,-2.73288 -2.34146,0 -2.83704,0.78145 -4.03382,6.36051 -0.81073,3.77947 -0.37424,4.88469 3.27564,8.29418 3.89968,3.64286 4.21776,4.60196 4.30238,12.97283 0.0503,4.97153 0.3561,9.51348 0.67968,10.09321 0.32356,0.57974 5.18785,0.87974 10.80953,0.66667 l 10.22123,-0.3874 0.40606,-7.08815 z"
       id="path263" />
  </g>
</svg>
