<?xml version="1.0" encoding="UTF-8" standalone="no"?>
<!-- Created with Inkscape (http://www.inkscape.org/) -->

<svg
   version="1.1"
   id="svg205"
   width="214.66667"
   height="214.66667"
   viewBox="0 0 214.66667 214.66667"
   xmlns="http://www.w3.org/2000/svg"
   xmlns:svg="http://www.w3.org/2000/svg">
  <defs
     id="defs209" />
  <g
     id="g211">
    <path
       style="fill:#000000;stroke-width:1.33333"
       d="m 106.01638,209.57194 c -0.47741,-0.47742 -8.476404,-0.89823 -17.775535,-0.93514 -15.452427,-0.0613 -17.481253,-0.3613 -23.574177,-3.48568 -3.666667,-1.88021 -9.596203,-4.2584 -13.176746,-5.28484 -4.42846,-1.26953 -7.839163,-3.4073 -10.666667,-6.68572 -2.286124,-2.65069 -6.63726,-6.07752 -9.669192,-7.61517 -6.33446,-3.21253 -11.527039,-8.09543 -16.966811,-15.95492 -2.905833,-4.1984 -3.857289,-7.17724 -4,-12.52332 L 10,150.07256 26.666667,149.83279 c 9.166667,-0.13187 28.066667,-0.34036 42.000001,-0.46328 13.933333,-0.12293 26.739807,-0.56059 28.458828,-0.97255 3.742154,-0.89682 3.527754,-2.81984 -1.976805,-17.73029 -3.4645,-9.38446 -3.692222,-11.32084 -3.699564,-31.45825 -0.0068,-18.69956 0.388426,-22.727797 3.074368,-31.333334 1.695204,-5.431297 3.620911,-11.717684 4.279348,-13.969749 C 100.37701,48.521165 100.30548,30.549947 98.699726,28 97.950427,26.810108 93.77314,25.459928 88.386809,24.666667 80.972871,23.574794 79.094983,22.79005 78.017164,20.333334 76.858356,17.692019 75.742445,17.338983 68.68383,17.38058 c -4.419148,0.02604 -9.513126,0.902418 -11.350496,1.952754 -1.833333,1.048028 -4.854128,1.926766 -6.712879,1.952753 -4.597529,0.06428 -17.063066,4.562768 -28.237975,10.190361 l -9.243213,4.654807 0.762703,42.934374 c 0.419485,23.613901 1.312069,47.719261 1.983518,53.567461 C 17.144703,143.6006 16.237022,148 12.714993,148 8.5006503,148 6.9604894,144.08584 6.0463586,131.05234 5.5298853,123.68856 5.6946372,115.52904 6.4243802,112.33041 7.2815957,108.57304 7.255077,104.97543 6.3457549,101.66375 4.5507933,95.126636 4.1922835,88.520688 3.9529901,57.574341 3.7778062,34.918905 4.029791,31.51039 6.0444208,29.28425 10.184169,24.709879 28.746683,16.871367 44.000001,13.256502 75.382797,5.819133 85.980223,4.2186085 109.33334,3.3892375 119.12294,3.0415659 128.04111,3.5077402 134,4.6786215 c 5.13334,1.0086658 12.93334,2.2121486 17.33334,2.6744062 15.23156,1.600206 49.02281,12.9230633 53.05069,17.7763583 2.85572,3.440936 4.79419,32.83379 4.87179,73.870616 0.0743,39.277158 -0.0345,41.112058 -2.58915,43.666668 L 204,145.33334 206.66667,148 c 1.46667,1.46667 2.65944,4.01667 2.6506,5.66667 -0.0372,6.94933 -13.07451,24.21361 -25.54932,33.83297 -4.16097,3.20854 -8.02229,5.8337 -8.58073,5.8337 -0.55844,0 -2.34603,1.2501 -3.9724,2.77801 -2.77576,2.60769 -5.29843,3.48579 -18.54815,6.45628 -2.93333,0.65763 -8.63333,2.39299 -12.66667,3.85636 -7.28544,2.64328 -32.18207,4.94949 -33.98362,3.14795 z m -2.9404,-11.75903 c 1.42611,-1.42611 -3.429436,-8.37925 -8.045933,-11.52176 -5.229083,-3.55952 -5.365988,-4.89501 -1.030046,-10.04799 1.833334,-2.1788 3.333334,-4.55136 3.333334,-5.27237 0,-0.72101 0.9,-2.05787 2,-2.97079 1.099995,-0.91292 1.999995,-3.45734 1.999995,-5.65429 v -3.99444 l -10.999995,0.79068 c -6.05,0.43488 -23.450001,1.17908 -38.666668,1.65377 -32.417636,1.0113 -32.624809,1.14668 -20.247337,13.23096 8.616465,8.41236 7.952321,8.00235 31.34706,19.35214 1.878023,0.9111 15.149671,3.17833 25.900278,4.4246 7.445831,0.86316 13.551622,0.86718 14.409312,0.009 z m 31.83637,-1.9478 c 1.23512,-0.65915 4.56512,-1.19844 7.4,-1.19844 2.83488,0 5.72432,-0.49567 6.42099,-1.10149 0.69666,-0.60583 3.96666,-1.92802 7.26666,-2.93822 10.9738,-3.35929 24.64988,-12.25 30.25336,-19.66745 5.11746,-6.77408 7.42111,-11.06281 6.45907,-12.02485 -1.30327,-1.30327 -69.13132,-0.70574 -75.04576,0.66112 -4.53993,1.0492 -3.67776,5.08277 2.33333,10.91634 2.93334,2.84671 5.33334,6.1252 5.33334,7.28555 0,1.16035 -1.8,4.94803 -4,8.41707 -2.2,3.46904 -4,7.75901 -4,9.53326 0,3.14908 0.18265,3.20318 7.66666,2.27074 4.21667,-0.52536 8.67723,-1.4945 9.91235,-2.15363 z M 111.93309,184.7473 c 0.87611,-1.05566 1.39958,-3.60566 1.16326,-5.66667 -0.36455,-3.17929 -1.03599,-3.74729 -4.42968,-3.74729 -3.17527,0 -4.09082,0.64122 -4.44048,3.10996 -0.40805,2.881 2.93803,8.22337 5.15054,8.22337 0.52988,0 1.68024,-0.86372 2.55636,-1.91937 z m 54.40025,-37.54223 c 19.98333,-0.51865 36.33333,-1.23583 36.33333,-1.59372 0,-0.35788 -0.93753,-1.33624 -2.08341,-2.17413 -1.77608,-1.2987 -2.14058,-6.53259 -2.4709,-35.48032 -0.47821,-41.908898 -2.06812,-74.774399 -3.71873,-76.871194 -0.68451,-0.86953 -3.14429,-1.998215 -5.4662,-2.508191 -2.32191,-0.509976 -5.44219,-1.726959 -6.93396,-2.704405 C 177.52732,22.946779 156.05871,18.377207 145,17.999091 c -9.22404,-0.315387 -10.33333,-0.09347 -10.33333,2.06728 0,2.592099 -4.37581,4.682793 -6.74125,3.220868 -3.26606,-2.018536 -10.7102,0.842571 -13.31736,5.118443 -2.98812,4.900661 -3.58641,17.9529 -1.03969,22.681973 0.8626,1.601791 2.3196,7.412346 3.23777,12.912346 0.91818,5.5 2.64517,15.7 3.83777,22.666667 2.41499,14.107462 1.74768,35.977962 -1.24099,40.672022 -0.93569,1.46961 -2.05566,4.76961 -2.48881,7.33333 -0.43316,2.56373 -1.1705,6.51846 -1.63855,8.7883 -0.80705,3.91391 -0.63114,4.13324 3.407,4.24806 2.34189,0.0665 4.6283,0.49137 5.0809,0.94397 0.4526,0.4526 2.04097,0.52429 3.52972,0.15933 1.48875,-0.36497 19.05682,-1.08794 39.04016,-1.60661 z M 111.58439,108 c 0.39947,-10.001712 0.0506,-19.865843 -0.87245,-24.666665 -0.84597,-4.4 -1.86788,-9.950001 -2.27091,-12.333334 -0.99317,-5.873153 -3.94953,-5.480532 -5.01987,0.666667 -4.082158,23.444755 -3.15469,47.381172 2.27432,58.696442 1.43739,2.99583 1.47479,2.98089 3.33845,-1.33333 1.1273,-2.60962 2.15231,-11.0613 2.55046,-21.02978 z"
       id="path233" />
  </g>
</svg>
