<?xml version="1.0" encoding="UTF-8" standalone="no"?>
<!-- Created with Inkscape (http://www.inkscape.org/) -->

<svg
   version="1.1"
   id="svg195"
   width="285.33334"
   height="209.33333"
   viewBox="0 0 285.33334 209.33333"
   xmlns="http://www.w3.org/2000/svg"
   xmlns:svg="http://www.w3.org/2000/svg">
  <defs
     id="defs199" />
  <g
     id="g201">
    <path
       style="fill:#000000;stroke-width:1.33333"
       d="m 198.32439,200.17996 c -6.24792,-1.83442 -6.43113,-10.40364 -0.49551,-23.17432 4.95259,-10.65564 10.08971,-17.00111 13.77412,-17.01407 1.31835,-0.004 3.39461,-1.76197 4.6139,-3.90519 3.90476,-6.86357 19.83288,-8.94169 32.64409,-4.25904 13.26839,4.84976 18.68495,9.82166 25.22032,23.14987 6.61023,13.48087 7.73572,21.28985 3.40271,23.60881 -2.34137,1.25307 -75.31594,2.72246 -79.15963,1.59394 z m 69.96358,-11.93459 c 1.8218,-1.8218 0.38546,-5.34827 -6.72327,-16.50699 -6.76045,-10.61201 -13.27823,-13.72912 -26.19667,-12.52848 -10.19246,0.9473 -19.36802,3.28143 -19.36802,4.92695 0,0.57644 -2.07958,3.31805 -4.62129,6.09248 C 207.34451,174.6329 204,183.36034 204,189.48394 c 0,1.95876 62.29074,0.75866 64.28797,-1.23857 z m -204.287969,5.10036 c -9.884621,-0.88188 -29.205056,-5.19583 -42.13646,-9.40841 -2.275053,-0.74114 -6.067385,-1.59188 -8.427405,-1.89056 -5.445709,-0.6892 -8.1028025,-2.89118 -8.1028025,-6.71492 0,-3.37867 2.9271204,-4.85234 14.6666665,-7.38402 4.033334,-0.8698 8.833334,-2.18438 10.666667,-2.92129 1.833334,-0.73689 6.633334,-1.83972 10.666667,-2.45071 4.033334,-0.61098 11.533334,-2.101 16.666667,-3.31114 16.238139,-3.82802 54.721699,-0.25054 79.999999,7.4369 5.13334,1.56112 10.83334,3.28228 12.66667,3.82483 4.08713,1.20951 4.96693,5.51893 1.72536,8.45109 -2.1034,1.90264 -12.34697,5.3212 -27.05869,9.03024 -21.90176,5.52175 -40.819305,7.16819 -61.333339,5.33799 z m 43.572799,-9.43677 c 1.82442,-0.69364 7.46027,-2.20351 12.52412,-3.35526 5.06385,-1.15176 9.54903,-2.6475 9.96707,-3.3239 0.41803,-0.67639 2.07465,-1.24804 3.68137,-1.27035 2.86198,-0.0397 2.86715,-0.0721 0.25464,-1.59492 -1.46666,-0.85491 -5.66666,-2.00013 -9.33333,-2.54496 -3.66667,-0.54483 -10.86667,-1.91669 -16,-3.0486 -10.420432,-2.29771 -46.971254,-2.91845 -53.467705,-0.90804 -2.126097,0.65796 -8.365631,1.95331 -13.865631,2.87857 -5.5,0.92526 -11.423679,2.39231 -13.163732,3.26011 -3.103029,1.54755 -3.052005,1.62252 2.659248,3.90771 5.46641,2.18722 18.570499,5.07578 33.837818,7.45893 8.230375,1.28472 38.386502,0.25907 42.906132,-1.45929 z m -6.73357,-82.73388 c -1.549028,-2.211547 -1.965196,-2.305312 -2.623045,-0.59098 -0.45716,1.19133 -1.647653,1.70539 -2.866408,1.23771 -1.610283,-0.61792 -1.736289,-1.21947 -0.55388,-2.644189 0.841844,-1.014359 2.397191,-1.844289 3.456328,-1.844289 3.220235,0 10.694305,-6.513881 12.513555,-10.905945 1.6672,-4.024963 1.55333,-4.27806 -4.19269,-9.31923 C 99.650568,71.034795 93.629534,67.649871 85.346446,65.174892 77.805851,62.921771 72.842082,60.394624 65.254872,54.945903 59.004552,50.457263 55.988943,45.740619 53.504584,36.56755 52.106711,31.406143 50.093989,29.550228 43.666668,27.496082 40.788841,26.576341 40.619034,22.039796 43.375574,19.719236 44.498805,18.773656 47.847765,15.75 50.817707,13 c 4.678712,-4.3322271 6.25398,-5.0000001 11.794928,-5.0000001 6.876529,0 12.150064,1.8136347 22.290142,7.6658611 3.536808,2.041225 9.730559,5.149571 13.763892,6.907433 4.033331,1.757863 12.133331,5.432922 18.000001,8.166798 31.81147,14.82419 44.7832,19.327119 62,21.522297 13.87843,1.769529 30.90089,0.526882 41.78198,-3.0501 7.71853,-2.53734 9.3017,-2.706574 10.33166,-1.1044 1.91671,2.981558 0.79835,5.853223 -2.4606,6.318178 -1.6425,0.234337 -2.98637,1.032011 -2.98637,1.772607 0,0.789628 1.58612,0.998168 3.83505,0.504221 7.50476,-1.648323 10.3764,7.072497 3.37874,10.260843 -5.1497,2.34636 -5.59018,10.848994 -1.01611,19.614059 3.69745,7.08522 0.64953,9.505353 -6.27208,4.980216 -2.43241,-1.590241 -6.10883,-3.928081 -8.1698,-5.1952 -4.81083,-2.957768 -23.32218,-7.696148 -30.0664,-7.696148 -2.8598,0 -8.45984,-0.562897 -12.44452,-1.250882 -3.98468,-0.687986 -11.59488,-1.64888 -16.91155,-2.135323 L 148,74.396021 v 5.405919 c 0,2.973255 -0.71588,6.977117 -1.59085,8.897472 -2.38137,5.226523 0.19992,6.138366 16.10896,5.690514 11.94999,-0.336399 14.05176,-0.07305 15.31073,1.918387 1.11019,1.756104 0.98624,2.761413 -0.5181,4.202327 -1.5703,1.50407 -9.4562,2.03802 -38.30388,2.59352 -35.05663,0.67507 -36.39085,0.60763 -38.16763,-1.92908 z m 35.89088,-10.631097 c 3.66953,-7.096103 2.44804,-9.718808 -6.93583,-14.892067 -6.48296,-3.574009 -8.01407,-3.077474 -7.37556,2.391875 0.41022,3.513764 -0.33527,5.987792 -2.9344,9.738333 C 117.56795,90.547456 116,93.24946 116,93.786579 c 0,0.537117 4.22855,0.869863 9.39678,0.739437 8.8457,-0.223235 9.51034,-0.45676 11.33333,-3.982033 z m 83.05884,-18.365344 c 0.84942,-2.83508 1.54439,-5.467583 1.54439,-5.850004 0,-1.888597 -28.08272,-3.858876 -45.51416,-3.193265 -10.53388,0.402232 -21.70251,0.733676 -24.81918,0.736544 -5.35462,0.0049 -8.31294,2.62113 -3.33333,2.94784 1.28333,0.0842 5.58688,0.339658 9.56343,0.567688 3.97654,0.228029 10.87654,1.03416 15.33333,1.7914 4.45679,0.757241 13.69921,2.01882 20.53873,2.803509 6.83952,0.784688 14.33952,2.260724 16.66667,3.280078 6.85319,3.001886 8.33328,2.54637 10.02012,-3.08379 z M 136,67.333332 v -4.666666 l -6.33333,0.01984 -6.33333,0.01984 5.33333,4.596768 C 131.6,69.831336 134.45,71.922411 135,71.949944 c 0.55,0.02753 1,-2.049945 1,-4.616612 z M 92.358711,57.792083 c -0.90271,-0.365231 -2.70271,-0.387463 -4,-0.0494 -1.29729,0.338053 -0.558709,0.636879 1.641291,0.664051 2.2,0.02717 3.261419,-0.24942 2.358709,-0.614651 z m -7.025376,-1.792084 c 0,-0.733333 -0.93541,-1.333333 -2.078689,-1.333333 -1.143279,0 -1.707869,0.6 -1.254644,1.333333 0.453225,0.733333 1.388635,1.333333 2.078689,1.333333 0.690055,0 1.254644,-0.6 1.254644,-1.333333 z m 62.960815,0.16772 c 11.57865,-1.078145 10.50343,-3.672063 -2.40873,-5.810941 -8.64456,-1.431959 -14.76676,-4.175489 -49.535574,-22.198294 -1.292414,-0.669938 -5.049844,-2.222552 -8.349844,-3.450256 -3.3,-1.227703 -8.323133,-3.379508 -11.162518,-4.78179 -5.654656,-2.792652 -7.504149,-2.438072 -7.504149,1.438672 0,2.911695 -4.61294,5.8633 -7.457532,4.771728 -1.053703,-0.404344 -2.531475,-2.35446 -3.28394,-4.33359 -1.275076,-3.353707 -1.518738,-3.4478 -3.582923,-1.383616 -2.064184,2.064185 -1.924445,2.498685 2.054795,6.38913 2.488289,2.432763 4.2696,5.526635 4.2696,7.41566 0,7.571744 9.586709,19.099664 15.88852,19.105782 3.001676,0.0029 2.84222,-0.347346 -2.333333,-5.125391 -6.64046,-6.130439 -7.151798,-10.222398 -1.88852,-15.112823 4.249556,-3.948516 11.846657,-5.822416 14.540656,-3.586594 2.078199,1.724752 0.119327,5.16127 -2.942011,5.16127 -3.13378,0 -6.042545,3.972703 -4.704988,6.425928 4.307718,7.900821 8.86324,9.861925 31.439681,13.534445 15.7257,2.558108 22.8465,2.854933 36.96081,1.54068 z"
       id="path372" />
  </g>
</svg>
