<?xml version="1.0" encoding="UTF-8" standalone="no"?>
<!-- Created with Inkscape (http://www.inkscape.org/) -->

<svg
   version="1.1"
   id="svg185"
   width="102.66667"
   height="206.66667"
   viewBox="0 0 102.66667 206.66667"
   xmlns="http://www.w3.org/2000/svg"
   xmlns:svg="http://www.w3.org/2000/svg">
  <defs
     id="defs189" />
  <g
     id="g191">
    <path
       style="fill:#000000;stroke-width:1.33333"
       d="M 10.324385,201.5133 C 4.0764729,199.67888 3.8932496,191.10966 9.8288822,178.33898 14.781471,167.68334 19.91859,161.33787 23.603002,161.32491 c 1.318349,-0.004 3.394604,-1.76197 4.613899,-3.90519 3.904756,-6.86357 19.832878,-8.94169 32.644086,-4.25904 13.268383,4.84976 18.684944,9.82166 25.220318,23.14987 6.610233,13.48087 7.735731,21.28985 3.402709,23.60881 -2.341366,1.25307 -75.315939,2.72246 -79.159629,1.59394 z m 69.963583,-11.93459 c 1.821791,-1.8218 0.385465,-5.34827 -6.723271,-16.50699 -6.760448,-10.61201 -13.278224,-13.72912 -26.196669,-12.52848 -10.19246,0.9473 -19.368027,3.28143 -19.368027,4.92695 0,0.57644 -2.079575,3.31805 -4.621278,6.09248 -4.03421,4.40357 -7.378722,13.13101 -7.378722,19.25461 0,1.95876 62.29073,0.75866 64.287967,-1.23857 z M 40.000645,73.333335 28.667957,72.666668 27.712573,64.978472 C 26.614628,56.143057 23.357043,44.438421 21.309213,41.970937 20.539577,41.043582 19.736005,38.270749 19.523497,35.809086 19.049777,30.321591 13.310367,21.701168 7.9671143,18.451742 0.84479159,14.120399 3.7687813,5.4496638 12.428572,5.2218333 28.42028,4.8011073 96.518667,5.4965069 97.479522,6.0903472 101.22753,8.4067456 97.001167,19.512987 88.468868,29.768967 c -1.724543,2.072932 -3.145764,5.072932 -3.158268,6.666667 -0.0125,1.593735 -1.802275,5.8977 -3.977264,9.564367 -3.202825,5.399424 -3.958849,8.202279 -3.977264,14.74516 -0.03288,11.68475 -1.161156,12.680412 -14.724371,12.993791 -6.214102,0.143577 -16.398075,-0.03895 -22.631056,-0.405617 z M 70.521902,59.5255 c -0.17108,-5.343542 1.861918,-13.506906 5.007772,-20.10837 1.725347,-3.62058 3.136995,-7.624544 3.136995,-8.8977 0,-1.273156 1.5,-4.097478 3.333334,-6.276271 4.928696,-5.857421 4.373313,-7.229175 -2.509023,-6.197104 -3.671499,0.550575 -6.173459,0.34038 -6.733442,-0.565691 -0.59563,-0.96375 -4.821848,-1.162792 -12.746204,-0.600305 -7.281872,0.516881 -13.29971,0.293248 -15.599894,-0.579721 -5.416207,-2.055567 -20.734435,-3.149528 -23.078106,-1.648139 -1.685496,1.079753 -1.423408,1.819123 1.666667,4.701807 2.016666,1.881318 3.666667,4.264548 3.666667,5.296066 0,1.031519 1.5,4.696602 3.333333,8.144629 1.833333,3.448025 3.333333,8.186782 3.333333,10.530569 0,2.568108 1.059627,5.22038 2.666667,6.674731 1.466667,1.327314 2.666667,4.005629 2.666667,5.951811 0,6.80521 2.188271,7.946868 16,8.347468 13.610962,0.394776 15.997705,-0.323838 15.855234,-4.77378 z"
       id="path511" />
  </g>
</svg>
