<?xml version="1.0" encoding="UTF-8" standalone="no"?>
<!-- Created with Inkscape (http://www.inkscape.org/) -->

<svg
   version="1.1"
   id="svg2"
   width="209.33333"
   height="212"
   viewBox="0 0 209.33333 212"
   xmlns="http://www.w3.org/2000/svg"
   xmlns:svg="http://www.w3.org/2000/svg">
  <defs
     id="defs6" />
  <g
     id="g8">
    <path
       style="fill:#000000;stroke-width:1.33333"
       d="m 38.746318,204.66667 c -1.729225,-4.91916 -0.919829,-56.35982 0.915677,-58.19532 2.45349,-2.45351 118.384705,-2.5396 122.671335,-0.0911 6.58851,3.76332 7.19253,6.43421 7.19989,31.83703 0.007,21.61392 -0.21605,23.90458 -2.49933,25.75341 -2.00211,1.62113 -6.64916,2.02932 -23.10339,2.02932 h -20.59717 v -4 -4 l 19.19017,-0.37111 19.19016,-0.37109 -0.68841,-20.48372 c -0.37863,-11.26604 -1.15475,-21.23825 -1.72471,-22.16047 -0.82028,-1.32725 -12.30036,-1.48189 -55.07561,-0.74188 -29.721633,0.51418 -54.531089,1.2388 -55.132129,1.61026 -1.553559,0.96016 -1.373775,40.18698 0.188609,41.15258 0.704776,0.43558 10.067465,0.88035 20.805976,0.98838 19.100231,0.19214 19.555523,0.26436 20.949087,3.32289 2.600666,5.70784 0.27953,6.26131 -26.533951,6.32684 -23.645768,0.0577 -24.863099,-0.0653 -25.756204,-2.60601 z M 39.333333,99.787569 C 8.9303416,94.175841 2.943368,90.879177 7.1393667,82.060304 8.2019023,79.827137 10.422297,72.9 12.073578,66.666667 13.724858,60.433333 15.505634,54.733333 16.030856,54 c 0.525222,-0.733333 1.674946,-3.733333 2.554942,-6.666667 0.879996,-2.933333 2.136146,-6.533333 2.791442,-8 0.655297,-1.466666 2.073897,-5.966666 3.152444,-10 C 25.608232,25.3 26.875502,20.744659 27.34584,19.210352 28.150522,16.585369 27.72487,16.427173 20.134729,16.530295 14.281688,16.609816 11.460277,16.031707 9.851903,14.423332 4.2107902,8.7822189 11.085897,7.131462 45.333333,5.9040143 53.766666,5.6017588 67.854931,5.0880135 76.640588,4.7623581 c 16.010244,-0.593447 17.951333,-0.140302 18.00566,4.2034018 0.02911,2.3278161 -6.293709,5.2847001 -13.663816,6.3899161 -3.566857,0.534883 -6.315767,1.655733 -6.315767,2.575213 0,0.895458 2.438284,7.577332 5.418408,14.848608 2.980126,7.271276 6.831626,17.420503 8.55889,22.553836 1.727264,5.133334 4.68898,13.530734 6.581591,18.660891 5.620236,15.234353 5.004376,16.385283 -11.225555,20.978289 -22.193184,6.280587 -31.368244,7.269657 -44.666666,4.815056 z m 20.666666,-9.70888 c 0,-1.790054 -0.6,-3.625464 -1.333333,-4.078689 -0.733334,-0.453225 -1.336408,-1.838635 -1.340164,-3.078689 -0.0037,-1.240055 -1.407591,-4.568659 -3.119631,-7.396899 l -3.112798,-5.142255 -3.048286,6.475588 c -1.676557,3.561574 -3.351725,8.725588 -3.722596,11.475588 l -0.674309,5 h 8.175559 c 7.778995,0 8.175558,-0.157869 8.175558,-3.254644 z M 35.681218,87 c 1.391208,-2.016667 3.621516,-7.266667 4.95624,-11.666667 1.334724,-4.4 3.237319,-9.183504 4.227989,-10.630008 0.990671,-1.446505 1.801219,-4.875394 1.801219,-7.619754 0,-3.48717 0.741512,-5.386592 2.462405,-6.307587 2.895675,-1.549719 5.537595,0.439541 5.537595,4.169585 0,3.168559 11.64614,30.505667 14.039556,32.955203 1.6066,1.644271 2.898776,1.563253 9.575501,-0.600368 11.377704,-3.686992 12.084001,-4.62822 8.680718,-11.568117 C 84.019871,69.731865 76.839964,51.058164 75.274256,45.333333 74.772851,43.5 73.277531,40.2 71.951323,38 69.126071,33.313285 65.380566,22.967009 65.352736,19.772607 c -0.01189,-1.36493 -1.439165,-2.496858 -3.68607,-2.92331 -5.678506,-1.077753 -20.168152,-0.214478 -21.673937,1.291307 -1.690983,1.690983 -9.492627,20.513743 -11.823461,28.526063 -0.959991,3.3 -2.8908,8.56605 -4.290687,11.702334 -1.399887,3.136286 -2.545248,6.526707 -2.545248,7.534272 0,1.007564 -1.494139,5.041514 -3.320308,8.964331 -1.826169,3.922819 -3.304427,7.732396 -3.285017,8.465729 0.04947,1.868924 10.538614,6.915696 14.847866,7.143936 C 32.102537,90.611095 33.89393,89.590816 35.681218,87 Z m 86.402742,8.302928 c -1.71132,-0.848456 -2.90368,-2.925015 -3.1557,-5.495789 -0.42611,-4.34676 3.56457,-17.654024 7.71069,-25.711952 6.32232,-12.28734 22.88571,-20.843795 37.22973,-19.232448 22.10765,2.483481 39.42132,19.799964 41.13437,41.141073 0.53943,6.720083 0.27085,8.769352 -1.22451,9.343175 -3.66646,1.406954 -78.84971,1.366408 -81.69458,-0.04405 z m 45.24937,-9.964167 c 20.06612,0.04812 26,-0.920585 26,-4.244474 0,-3.554382 -2.12399,-7.265732 -8.54851,-14.937215 -6.42545,-7.672596 -14.27618,-11.490405 -23.62825,-11.490405 -6.61853,0 -14.48991,2.915834 -14.48991,5.367573 0,0.714501 -0.91882,1.299093 -2.04184,1.299093 -1.12302,0 -2.39573,0.922191 -2.82825,2.049314 -0.43251,1.127122 -2.42755,2.897989 -4.43341,3.93526 -2.5768,1.332514 -4.14151,3.652102 -5.33212,7.904537 -2.77309,9.904539 -1.22397,11.119092 13.30229,10.429353 4.03333,-0.191512 13.93333,-0.332377 22,-0.313036 z"
       id="path30" />
  </g>
</svg>
