<?xml version="1.0" encoding="UTF-8" standalone="no"?>
<!-- Created with Inkscape (http://www.inkscape.org/) -->

<svg
   version="1.1"
   id="svg75"
   width="209.33333"
   height="221.33333"
   viewBox="0 0 209.33333 221.33333"
   xmlns="http://www.w3.org/2000/svg"
   xmlns:svg="http://www.w3.org/2000/svg">
  <defs
     id="defs79" />
  <g
     id="g81">
    <path
       style="fill:#000000;stroke-width:1.33333"
       d="m 6.1152483,213.05124 c -2.7933374,-1.56323 -2.7142522,-7.20275 0.1162387,-8.28891 1.2273178,-0.47096 4.677318,-0.53013 7.666666,-0.13147 2.989349,0.39864 9.63518,0.26979 14.768513,-0.28634 l 9.333333,-1.01118 -0.365992,-10.66666 c -0.201296,-5.86667 -0.585216,-26.99722 -0.853157,-46.95676 -0.564125,-42.02318 -2.001229,-38.46486 14.938073,-36.98722 8.266764,0.72111 10.703745,0.51121 11.984724,-1.03227 1.675609,-2.01899 2.248082,-15.717323 1.240802,-29.690418 -0.317182,-4.4 -0.03833,-9.05 0.619672,-10.333333 1.251288,-2.440448 8.350098,-3.296173 9.667042,-1.165313 1.47168,2.381228 0.998496,144.468994 -0.486059,145.953534 -1.778929,1.77894 -65.5268868,2.33287 -68.6298558,0.59635 z M 66.891848,197.66666 c 0.915627,-14.87304 -1.210697,-75.18551 -2.703296,-76.67811 -0.99204,-0.99204 -3.45812,-1.06106 -7.81882,-0.21882 -6.268029,1.21062 -6.384999,1.32607 -7.325883,7.23027 -1.16831,7.33132 -1.351659,66.97444 -0.224411,73 l 0.810671,4.33333 h 8.394878 8.39488 z m 45.107002,15.29522 c -6.12611,-1.59038 -5.40951,-6.4954 2.00115,-13.69774 4.33613,-4.21424 5.9873,-6.86193 5.9542,-9.54774 -0.0673,-5.45964 -7.22328,-25.16224 -10.93562,-30.10899 -5.22947,-6.96835 -5.22705,-7.10028 0.19945,-10.86084 6.13066,-4.24856 11.39869,-4.65985 19.11445,-1.49236 9.22352,3.78645 17.00085,7.94677 17.00085,9.09424 0,0.58895 1.33695,1.56539 2.971,2.16985 2.59305,0.95923 3.18416,0.48732 4.64659,-3.70962 0.92157,-2.64478 1.68462,-7.54599 1.69566,-10.89158 0.0107,-3.34558 1.22008,-8.56661 2.68675,-11.60225 C 158.8,129.2792 160,125.52705 160,123.97675 c 0,-1.5503 0.517,-3.82928 1.14889,-5.06441 0.63188,-1.23512 1.54332,-3.89568 2.0254,-5.91234 1.56859,-6.56181 -1.56177,-3.89181 -6.0908,5.19506 -5.46176,10.95825 -10.17796,14.94932 -15.04497,12.73176 -5.27727,-2.40448 -4.47222,-7.15068 1.81201,-10.68261 4.14223,-2.32806 5.91444,-4.63248 8.81971,-11.4683 3.41597,-8.03748 3.50564,-8.74069 1.4828,-11.628701 -4.18731,-5.978225 -2.77935,-20.870575 3.13384,-33.14721 3.12953,-6.497367 18.93229,-11.387582 25.28198,-7.823593 9.32756,5.235426 12.6386,16.387762 15.1881,51.156924 1.07544,14.66667 2.14157,27.26667 2.36916,28 0.96512,3.10975 -1.78355,11.40913 -4.38116,13.22856 -2.60202,1.82252 -2.75506,2.81011 -2.02063,13.03833 0.43704,6.08654 0.31032,17.06644 -0.28163,24.39978 -0.59193,7.33333 -0.78598,14.10552 -0.43124,15.04932 0.35476,0.94378 2.37231,2.60918 4.48344,3.7009 4.18474,2.164 4.88896,4.71806 1.96907,7.14135 -2.18456,1.81303 -80.89408,2.77619 -87.46512,1.07031 z m 62.64003,-7.4436 8.63888,-0.85162 1.66805,-7.33333 c 1.17551,-5.16785 1.42161,-13.64199 0.83344,-28.69743 l -0.83463,-21.36409 3.5277,-1.60732 C 191.1979,144.42262 192,143.10425 192,139.86613 c 0,-10.59578 -2.95018,-50.14909 -3.91828,-52.532798 -0.59567,-1.466667 -1.75774,-4.344899 -2.58238,-6.396071 C 184.6747,78.886089 184,75.933334 184,74.375583 184,67.167826 174.22208,64.152855 167.63932,69.330851 164.19534,72.039886 160,82.013671 160,87.492161 c 0,3.722924 2.02277,5.060515 7.75005,5.124852 3.85268,0.04328 4.87699,0.85418 7.98032,6.317692 l 3.56031,6.268045 -3.66474,3.82516 c -2.48056,2.58914 -4.26797,6.5955 -5.53157,12.39863 -1.02676,4.7154 -3.37783,12.79711 -5.2246,17.95936 -4.29499,12.00575 -7.04643,30.92394 -5.25529,36.13415 1.62766,4.73471 0.88098,7.14661 -2.21244,7.14661 -1.30667,0 -3.90131,1.2 -5.76587,2.66667 C 149.77161,186.8 146.44069,188 144.23413,188 c -2.20655,0 -4.21191,0.4556 -4.45636,1.01244 -0.24444,0.55684 -3.91639,3.0969 -8.15986,5.6446 -4.24349,2.54769 -9.30408,6.29034 -11.24576,8.31704 l -3.53034,3.68486 24.57909,-0.14453 c 13.51851,-0.0795 28.46659,-0.52776 33.21798,-0.99613 z M 136.19797,184 c 2.05441,0 5.23456,-1.45495 7.23756,-3.31128 3.302,-3.06019 3.445,-3.62012 1.88583,-7.38428 -0.92791,-2.24016 -2.8048,-4.6712 -4.1709,-5.40231 -1.36609,-0.73111 -2.4838,-2.16463 -2.4838,-3.1856 0,-1.02097 -1.47172,-3.01397 -3.27048,-4.42888 -3.62246,-2.84944 -15.00395,-6.45767 -16.29551,-5.16611 -0.98847,0.98848 4.17795,17.90872 7.92661,25.95998 1.88703,4.05289 3.09363,5.3309 4.0912,4.33333 C 131.89665,184.63668 134.18242,184 136.19797,184 Z M 83.467325,57.689547 C 82.929911,57.152132 78.779911,56.287219 74.245103,55.767518 60.799999,54.226673 51.859755,52.393171 42.666666,49.291286 32.238953,45.772821 14.270172,44.229306 11.406389,46.606035 8.7025685,48.850007 4.7000983,47.263769 2.8565429,43.217606 0.49809586,38.041378 6.3473535,32.739652 15.800042,31.485709 23.452606,30.47056 26.247145,29.17676 31.96877,24 35.288546,20.996364 44.373475,15.9602 53.333332,12.156711 58.744242,9.8597627 78.746867,6.7075034 86.666665,6.903635 c 16.624625,0.4117041 35.062015,2.9050577 52.666665,7.122302 25.00848,5.990851 30.95131,7.00742 47.05233,8.048668 9.26434,0.599123 14.35143,1.519628 15.66667,2.834871 2.31021,2.310216 2.52627,5.242217 0.47949,6.507189 -2.22728,1.376537 -27.94664,0.633555 -30.79256,-0.889537 -3.30936,-1.771118 -11.25146,1.013928 -15.97154,5.600711 -1.96108,1.905708 -5.56108,4.206756 -8,5.11344 -2.43891,0.906686 -7.73439,3.037226 -11.76772,4.734536 -15.24256,6.414382 -18.29628,7.325346 -29.33334,8.750488 -6.23333,0.804869 -11.903328,2.020716 -12.599995,2.701881 -1.502977,1.469534 -9.20134,1.659364 -10.59934,0.261363 z m -0.80066,-11.892306 c -5.500301,-1.81207 -8.416721,-4.139099 -12.036541,-9.604031 -3.05211,-4.607844 -3.963458,-7.496886 -3.963458,-12.564454 0,-5.746656 -0.295738,-6.45823 -2.333334,-5.614238 -1.283333,0.531568 -4.738586,1.645762 -7.678342,2.475984 -2.939755,0.830224 -9.652767,4.492588 -14.917803,8.138587 -10.029744,6.945522 -10.689301,9.001568 -3.360965,10.477169 1.993077,0.401319 6.323777,1.400936 9.623777,2.221373 11.178781,2.779242 24.640597,5.003034 30.666666,5.065907 3.3,0.03443 5.1,-0.233903 4,-0.596297 z M 110,44.628218 c 2.93333,-1.056771 6.38094,-1.930436 7.66136,-1.941477 3.22962,-0.02785 17.6959,-5.140626 25.17748,-8.898406 3.4183,-1.716918 7.17796,-3.121669 8.3548,-3.121669 3.15541,0 2.60012,-2.538333 -0.86031,-3.93254 -1.65,-0.664786 -7.8,-2.225898 -13.66667,-3.469138 C 130.8,22.021749 122.61339,20.178528 118.4742,19.168942 108.53643,16.745029 108,16.80934 108,20.424665 c 0,10.187481 -8.108058,23.562442 -15.333335,25.293701 -1.466666,0.351429 0.633334,0.682228 4.666667,0.735108 C 101.36667,46.506354 107.06666,45.684987 110,44.628218 Z M 94.486065,32.53058 c 2.147828,-4.713968 1.874765,-11.42207 -0.609316,-14.968594 -1.776585,-2.53643 -3.130134,-2.965833 -8.290222,-2.630008 -5.06536,0.32966 -6.518903,1.030915 -8.137128,3.925714 -1.69834,3.038114 -1.71779,4.28904 -0.140974,9.066841 2.037246,6.172912 2.685967,6.782765 8.575187,8.061397 5.331745,1.157597 6.7625,0.582907 8.602453,-3.45535 z"
       id="path928" />
  </g>
</svg>
