<?xml version="1.0" encoding="UTF-8" standalone="no"?>
<!-- Created with Inkscape (http://www.inkscape.org/) -->

<svg
   version="1.1"
   id="svg205"
   width="221.33333"
   height="216"
   viewBox="0 0 221.33333 216"
   xmlns="http://www.w3.org/2000/svg"
   xmlns:svg="http://www.w3.org/2000/svg">
  <defs
     id="defs209" />
  <g
     id="g211">
    <path
       style="fill:#000000;stroke-width:1.33333"
       d="m 96.020337,209.37133 c -0.74452,-1.39114 -1.353672,-3.69533 -1.353672,-5.12041 0,-5.79501 -1.86586,-6.03104 -45.997347,-5.81861 -26.599557,0.128 -42.1650416,-0.28304 -42.686841,-1.12732 -1.2648152,-2.04652 0.5230853,-6.2896 3.0682789,-7.28171 1.2554171,-0.48936 18.7825771,-0.87215 38.9492431,-0.85063 20.166667,0.0215 38.766666,-0.40537 41.333333,-0.94862 3.978029,-0.84199 4.848932,-1.7184 5.90182,-5.93922 1.723479,-6.90908 5.513068,-6.74272 7.416358,0.32556 0.78152,2.90238 2.08698,5.68867 2.90101,6.19176 1.73339,1.0713 6.15249,-4.27774 6.7211,-8.13546 0.23255,-1.57776 1.59882,-2.83812 3.34592,-3.08656 2.94864,-0.4193 3.49198,0.55837 4.67942,8.41989 0.39104,2.58892 1.68466,2.68611 44.3677,3.33333 40.96036,0.62111 43.99643,0.83051 44.4259,3.06406 1.13645,5.91033 -0.29703,6.11172 -44.05056,6.18842 -27.41244,0.048 -42.0082,0.55622 -43.14805,1.5022 -0.9474,0.78627 -2.10988,3.19311 -2.58329,5.34855 -1.1536,5.25232 -5.34728,7.56539 -7.25468,4.00137 -0.76412,-1.42777 -1.38931,-4.1354 -1.38931,-6.01694 0,-2.74588 -0.64767,-3.42099 -3.28195,-3.42099 -2.68625,0 -3.5359,0.94313 -4.68114,5.19624 -1.60885,5.97481 -4.689945,7.89961 -6.683243,4.17509 z m -2.020338,-57.50237 c -9.533334,-0.64695 -19.433333,-1.72772 -22,-2.40175 -2.566667,-0.67401 -7.666667,-1.83397 -11.333333,-2.57768 -15.002211,-3.04289 -29.074792,-7.49448 -36.872389,-11.66386 -1.946481,-1.04079 -4.652612,-1.89234 -6.013624,-1.89234 -2.899607,0 -9.7806531,-5.98989 -9.7806531,-8.51397 0,-2.33628 3.9064981,-5.63017 8.0000001,-6.74545 1.833333,-0.4995 4.533333,-1.44285 6,-2.09634 4.653808,-2.07356 29.046131,-9.02967 36.666666,-10.45647 39.505451,-7.396631 78.891054,-7.768655 103.161834,-0.97443 3.76099,1.05282 9.83816,2.50001 13.50483,3.21596 13.06639,2.55133 38.43681,13.40418 40.54555,17.34439 2.39936,4.48325 -1.13627,8.42137 -9.87888,11.00346 -4.4,1.29953 -12.2,3.65924 -17.33334,5.24381 -5.13333,1.58458 -13.83333,3.72256 -19.33333,4.75111 -5.5,1.02853 -13,2.45488 -16.66667,3.16965 C 149,149.98984 140.6,150.89505 134,151.28665 c -6.6,0.39162 -14.4,0.94748 -17.33334,1.23528 -2.93333,0.28782 -13.13333,-0.007 -22.666661,-0.65297 z m 44.666661,-10.53817 c 10.63334,-1.41516 21.43334,-2.86348 24,-3.21848 17.52824,-2.42436 38.24624,-8.88983 36.66827,-11.44306 -1.65715,-2.68131 -13.78756,-7.9112 -21.51907,-9.2777 -29.02392,-5.12981 -39.15345,-6.66896 -44.0624,-6.69513 -3.06892,-0.0164 -7.21064,-0.64977 -9.20381,-1.40758 -5.58485,-2.12335 -46.39605,2.36296 -68.549651,7.53555 -7.7,1.79786 -15.5,3.56852 -17.333333,3.9348 -9.996466,1.9972 -13.747376,6.12606 -7.666666,8.43919 13.46163,5.12087 35.98065,10.01111 56.332524,12.23319 7.332888,0.80064 13.433146,1.55607 13.556116,1.67874 1.26786,1.26465 22.37522,0.2704 37.77802,-1.77952 z M 89.380579,72.333333 c 0.02599,-2.016666 0.904725,-5.166666 1.952753,-7 C 92.38136,63.5 93.260099,60.832251 93.286085,59.405001 93.357165,55.501235 86.994532,47.125995 82.563419,45.290568 74.148939,41.805175 67.632064,30.127369 69.977524,22.73748 c 1.438682,-4.532884 6.163028,-8.070813 10.777297,-8.070813 2.338595,0 5.03532,-0.943854 5.992722,-2.097451 C 90.409731,8.1565491 99.1551,4.8054611 106.8753,4.8565756 c 9.93024,0.065747 14.86439,2.2781451 18.99232,8.5158794 2.79877,4.229214 4.2776,5.201944 8.42995,5.544926 5.03453,0.415851 5.03597,0.417735 5.92441,7.697487 1.15626,9.474231 -0.94252,13.50666 -10.06816,19.344268 -10.97531,7.020819 -14.00233,13.993011 -9.55966,22.018951 1.24679,2.252402 1.42988,4.064645 0.5725,5.666666 C 120.07425,75.685943 117.86782,76 104.61975,76 H 89.333332 Z m 19.952751,-7.755229 c 0,-1.480164 -1.03815,-1.965665 -3.56384,-1.666667 -5.19084,0.614504 -5.64856,3.75523 -0.54727,3.75523 2.84291,0 4.11111,-0.644283 4.11111,-2.088563 z m 2.35149,-14.244771 c 5.18573,-5.523921 8.25457,-14.379169 8.2859,-23.909208 0.027,-8.220616 -0.25412,-9.10853 -3.63739,-11.488102 -7.75299,-5.4529555 -19.126235,-4.052719 -23.692971,2.917001 -4.210406,6.425889 0.511941,25.066123 8.141671,32.137115 4.45898,4.13245 7.26268,4.220704 10.90279,0.343194 z m 21.64851,-17.142652 c 0,-0.654874 -0.9,-1.190681 -2,-1.190681 -1.1,0 -2,0.881169 -2,1.958153 0,1.192791 0.78172,1.65818 2,1.190682 1.1,-0.42211 2,-1.303279 2,-1.958154 z M 82.666665,30 c 0,-1.1 -0.6,-2 -1.333333,-2 -0.733333,0 -1.333333,0.9 -1.333333,2 0,1.1 0.6,2 1.333333,2 0.733333,0 1.333333,-0.9 1.333333,-2 z"
       id="path233" />
  </g>
</svg>
