<?xml version="1.0" encoding="UTF-8" standalone="no"?>
<!-- Created with Inkscape (http://www.inkscape.org/) -->

<svg
   version="1.1"
   id="svg195"
   width="212"
   height="218.66667"
   viewBox="0 0 212 218.66667"
   xmlns="http://www.w3.org/2000/svg"
   xmlns:svg="http://www.w3.org/2000/svg">
  <defs
     id="defs199" />
  <g
     id="g201">
    <path
       style="fill:#000000;stroke-width:1.33333"
       d="m 68.6902,209 c -0.307692,-0.91666 -0.73886,-3.16666 -0.958153,-5 l -0.398714,-3.33333 -26.793832,0.4724 -26.793832,0.47241 -2.936265,-3.73285 c -3.8193825,-4.85556 -3.2471924,-9.9988 1.356671,-12.19469 7.067592,-3.37103 43.43624,-5.46816 100.500595,-5.7952 45.19094,-0.25899 58.35,1.72909 60.19868,9.09485 1.0258,4.08708 -0.0648,6.43037 -4.27719,9.19047 -3.08245,2.01969 -7.09249,2.33038 -30.15943,2.3367 -25.37966,0.007 -26.5741,0.12267 -25.94879,2.51388 0.80413,3.07498 -3.77088,7.97134 -6.89525,7.37959 -1.5391,-0.29151 -2.38228,-2.00472 -2.66518,-5.41532 C 102.59551,201.08288 101.94435,200 99.919513,200 c -1.960189,0 -2.58618,0.9287 -2.58618,3.83675 0,4.59751 -2.725878,7.19444 -6.92661,6.59893 -2.492728,-0.35336 -3.151574,-1.38034 -3.48721,-5.43568 -0.376577,-4.55 -0.766576,-5 -4.333333,-5 -3.403912,0 -3.919513,0.49111 -3.919513,3.73334 0,2.05333 -0.72,4.45333 -1.6,5.33333 -2.1007,2.10071 -7.663822,2.05643 -8.376467,-0.0667 z m 46.53202,-16.79594 c 26.33889,-0.11227 47.63313,-0.45983 47.32051,-0.77243 -2.27701,-2.27701 -94.863199,-3.15553 -125.876063,-1.19439 l -17.333334,1.0961 11.333334,0.67742 c 6.233333,0.37259 17.033333,0.61442 24,0.53739 6.966666,-0.0771 34.216666,-0.23187 60.555553,-0.34409 z m 84.86693,15.88509 c -1.41763,-1.41763 -3.63867,-4.26763 -4.93564,-6.33333 -1.29698,-2.0657 -3.96472,-5.85582 -5.92835,-8.42248 -2.31703,-3.02862 -4.31433,-8.27448 -5.69016,-14.94503 -1.16596,-5.65309 -3.10969,-12.55309 -4.31939,-15.33333 -1.70398,-3.91624 -2.28917,-10.31128 -2.59773,-28.38831 -0.45392,-26.5928 -1.5698,-32.81295 -8.73104,-48.668771 -5.12869,-11.355523 -18.08096,-19.80253 -34.74136,-22.657078 -13.05551,-2.236895 -17.14659,-2.361483 -52.279743,-1.592107 -20.12073,0.440622 -27.314657,0.16018 -30,-1.169489 -1.942821,-0.962004 -5.111796,-2.344181 -7.042162,-3.071504 -2.458731,-0.9264 -4.095682,-3.047086 -5.466363,-7.08173 -1.780255,-5.240238 -1.734691,-6.41064 0.505536,-12.98577 1.354176,-3.974546 2.201672,-7.486911 1.883325,-7.805259 -0.318348,-0.318347 -4.966446,0.0045 -10.329109,0.717604 -15.221729,2.023906 -25.0836307,-0.603142 -25.0836307,-6.681867 0,-5.122277 5.1630737,-11.395239 11.0531317,-13.429183 22.764167,-7.8608832 26.45758,-7.9373468 33.151682,-0.6863295 4.552141,4.9308565 5.12852,6.3191805 5.12852,12.3530795 0,4.042965 -0.997772,8.681112 -2.462044,11.444813 -3.258616,6.150395 -4.523006,11.626104 -2.914166,12.620423 2.519908,1.557388 34.703827,1.964095 38.411659,0.485407 3.533385,-1.40912 22.072944,-2.711756 40.964554,-2.878272 19.45692,-0.1715 37.78028,4.242548 42.46286,10.229192 0.84543,1.080867 2.68996,2.165828 4.09899,2.411025 1.40901,0.245198 5.18148,4.193284 8.38327,8.773528 4.73404,6.772207 6.31197,10.623292 8.44774,20.617546 1.95502,9.148413 2.29311,13.324834 1.32266,16.338952 -0.71703,2.22702 -1.20487,7.94912 -1.08408,12.71579 0.25176,9.93517 -1.36994,33.16484 -2.43566,34.88923 -0.8746,1.41513 1.70987,19.77802 3.81568,27.11077 1.8123,6.31069 5.61867,13.61733 9.02972,17.33333 3.42784,3.73427 5.58026,10.0039 4.67403,13.61463 -0.93611,3.72972 -3.84807,3.91919 -7.29273,0.47452 z M 184.94301,106.34888 c -0.31892,-1.65855 -0.59197,-0.61555 -0.60677,2.31779 -0.0148,2.93333 0.24615,4.29033 0.57987,3.01554 0.33372,-1.27478 0.34582,-3.67478 0.0269,-5.33333 z m -6.5486,-31.404535 C 175.97748,71.157485 173.55,68.045838 173,68.029573 c -0.55,-0.01627 -2.05,-0.967421 -3.33333,-2.113681 -5.89604,-5.26628 -13.0774,-10.048422 -16.22126,-10.801884 -1.89497,-0.454158 -5.68914,-1.949598 -8.43149,-3.323202 -4.14647,-2.076916 -5.43745,-2.215568 -7.66667,-0.823404 -3.19098,1.992805 -3.48044,3.699265 -0.62746,3.699265 1.12921,0 4.5006,1.248614 7.49197,2.774697 3.63629,1.855104 5.88201,2.33153 6.77601,1.437526 1.69478,-1.69477 4.17747,-0.780394 11.6789,4.30134 C 168.86865,67.381678 176,74.431721 176,76.361557 c 0,0.605327 1.2,3.584308 2.66667,6.619959 1.46666,3.035649 2.77765,7.056667 2.9133,8.935591 0.13566,1.878925 0.46315,0.377874 0.72775,-3.335667 0.41391,-5.809008 -0.13253,-7.713399 -3.91331,-13.637095 z M 33.947196,20.392276 c 4.476441,-1.378416 7.386137,-3.029002 7.386137,-4.189941 0,-1.551481 -1.566353,-1.751836 -8.241333,-1.054161 -8.400759,0.878052 -15.142751,3.945666 -13.722464,6.243736 1.174685,1.900681 6.30024,1.549206 14.57766,-0.999634 z M 49.340813,138.6713 c -3.2233,-1.99211 5.283595,-18.41491 12.252055,-23.65293 16.230299,-12.19993 32.500239,-12.65578 48.602492,-1.36175 6.23514,4.37329 16.47131,17.06865 16.47131,20.42846 0,2.30006 -3.48639,3.36042 -7.01158,2.13252 -6.15881,-2.14522 -61.516285,-0.0541 -66.393599,2.50798 -1.139514,0.5986 -2.903819,0.57417 -3.920678,-0.0543 z m 58.356067,-13.41534 c 0.24374,-1.26566 -2.16633,-3.74033 -6.168,-6.33333 -5.543479,-3.59205 -7.825436,-4.25596 -14.628341,-4.25596 -4.433151,0 -9.532679,0.55981 -11.332286,1.24402 -3.47884,1.32265 -12.901586,9.07572 -12.901586,10.61547 0,0.50412 10.041782,0.89196 22.315073,0.86188 19.11651,-0.0469 22.37242,-0.35247 22.71514,-2.13208 z"
       id="path372" />
  </g>
</svg>
