<?xml version="1.0" encoding="UTF-8" standalone="no"?>
<!-- Created with Inkscape (http://www.inkscape.org/) -->

<svg
   version="1.1"
   id="svg165"
   width="213.33333"
   height="154.66667"
   viewBox="0 0 213.33333 154.66667"
   xmlns="http://www.w3.org/2000/svg"
   xmlns:svg="http://www.w3.org/2000/svg">
  <defs
     id="defs169" />
  <g
     id="g171">
    <path
       style="fill:#000000;stroke-width:1.33333"
       d="m 36.527315,149.03235 c -1.543309,-0.69671 -4.243309,-3.64579 -5.999999,-6.55351 -4.676262,-7.74026 -7.886415,-11.81217 -9.312328,-11.81217 -1.218523,0 -3.316951,4.12784 -6.559966,12.90419 -1.87676,5.07894 -4.509543,6.38414 -7.2831036,3.61058 -3.1629631,-3.16296 -2.5114205,-6.33169 4.0936586,-19.90921 5.014541,-10.30799 6.673333,-12.60556 9.100915,-12.60556 3.427946,0 7.456894,3.98968 10.771662,10.66667 2.625148,5.28787 5.879455,9.33333 7.508064,9.33333 1.342008,0 6.487115,-9.84025 6.487115,-12.4069 0,-2.69321 4.423201,-6.25977 7.76329,-6.25977 2.851535,0 7.472249,5.36886 12.508029,14.53321 2.746782,4.99873 5.407475,5.28245 7.503374,0.80013 0.857252,-1.83334 2.282559,-4.87544 3.16735,-6.76023 0.884792,-1.88479 3.048877,-4.86706 4.809081,-6.62726 2.986246,-2.98625 3.451786,-3.07036 6.958148,-1.25715 2.202496,1.13896 5.582002,5.26148 8.165352,9.9606 2.424165,4.40955 5.190403,8.01737 6.147193,8.01737 0.95679,0 2.93872,-2.55 4.40429,-5.66667 5.10014,-10.84588 8.55991,-15.66666 11.24362,-15.66666 1.60306,0 11.87162,12.53122 14.6636,17.8947 2.43187,4.67171 4.32174,3.64502 9.13563,-4.96303 2.62195,-4.68846 5.68125,-9.2831 6.79845,-10.2103 3.95834,-3.28512 7.96578,-0.53643 13.46055,9.23254 2.89963,5.15516 5.704,9.37445 6.23195,9.37622 0.52794,0.001 3.12624,-4.43945 5.77397,-9.86935 6.88455,-14.11864 10.57689,-14.35202 17.952,-1.13472 2.35508,4.22066 5.34943,8.87394 6.65409,10.3406 3.45984,3.88944 4.57726,10.52223 2.1167,12.56431 -3.67876,3.05311 -6.70112,0.91597 -11.18867,-7.91159 -2.41928,-4.759 -5.11928,-8.65272 -6,-8.65272 -0.88073,0 -3.70133,4.06975 -6.268,9.04388 -7.207,13.967 -12.37281,13.52523 -19.88124,-1.70018 -4.37044,-8.86227 -7.27653,-9.94043 -9.89592,-3.67138 -1.03724,2.48247 -3.46923,7.02175 -5.40443,10.0873 -5.39769,8.55049 -8.42829,7.75738 -15.63968,-4.09295 C 123.27666,134.35 119.86798,130 118.93722,130 c -0.93075,0 -2.42239,1.29277 -3.31475,2.87282 -8.86509,15.69689 -9.44544,16.46052 -12.50986,16.46052 -3.612678,0 -7.555818,-4.12164 -12.381982,-12.94248 -1.868512,-3.41511 -4.013116,-6.40542 -4.765784,-6.64513 -0.752668,-0.2397 -3.573108,4.01963 -6.267643,9.46519 -5.062558,10.23126 -8.703145,13.16055 -12.470427,10.03398 -1.088226,-0.90315 -4.442979,-5.45272 -7.45501,-10.11016 -3.012029,-4.65744 -5.950616,-8.46807 -6.530191,-8.46807 -0.579576,0 -3.311566,4.18015 -6.071087,9.2892 -5.471311,10.12976 -6.453879,10.96769 -10.643171,9.07648 z M 10.985288,79.04574 C 6.354118,78.172575 3.8126655,71.860492 4.2711145,62.370072 4.6497513,54.531852 4.8377214,54.135001 8.6666665,53.090005 10.866666,52.48958 20.616666,51.605682 30.333333,51.125788 c 16.85099,-0.832252 21.958646,-2.220446 14,-3.805018 -2.016667,-0.401518 -5.466667,-1.37179 -7.666667,-2.156157 -2.2,-0.784368 -6.1,-1.863227 -8.666666,-2.397464 C 23.184397,41.764808 20.11662,40.286445 11.860543,34.989541 8.0174923,32.523929 7.1787463,31.255669 7.6748617,28.660409 8.8480804,22.523111 11.364058,21.89458 19.729285,25.649022 c 13.675148,6.137615 34.125777,13.224747 47.850905,16.582651 2.524852,0.617715 3.024816,0.02727 3.747778,-4.4261 1.19542,-7.363628 6.144252,-17.835101 9.453697,-20.003533 1.557716,-1.020654 7.869088,-2.220397 14.025272,-2.666094 9.002313,-0.651754 11.845473,-1.396096 14.526393,-3.803032 4.95661,-4.4500561 13.43799,-5.3498476 17.83392,-1.8920063 3.07511,2.4188803 3.49941,3.7126713 3.49941,10.6703983 0,5.296831 -0.9393,9.916035 -2.8376,13.954507 -1.56069,3.320213 -2.61069,6.261607 -2.33334,6.536432 1.26855,1.256993 12.52498,-1.914976 14.01189,-3.948431 2.38332,-3.259388 0.81099,-15.250752 -2.47476,-18.873712 -5.32376,-5.870138 0.43215,-11.1134352 12.19996,-11.1134352 7.36901,0 8.81785,1.2364972 10.15505,8.6666672 0.52792,2.933333 1.55508,6.083333 2.28258,7 1.52181,1.917497 7.9454,2.208124 11.34765,0.513408 10.35085,-5.155928 18.30483,-8.180075 21.51485,-8.180075 7.74768,0 8.82779,7.900907 1.43254,10.478907 -2.15906,0.752651 -6.72082,3.5028 -10.13726,6.111441 -3.41644,2.608643 -7.62541,4.742986 -9.35329,4.742986 -1.72788,0 -3.1416,0.507008 -3.1416,1.126682 0,1.844598 4.70801,5.539985 7.05808,5.539985 1.19979,0 2.78157,1.121388 3.51509,2.491973 1.16008,2.167617 2.51728,2.407285 10.42727,1.841329 8.96659,-0.641557 9.11837,-0.597218 10.86763,3.174694 2.09077,4.508336 3.50056,18.846988 2.31678,23.563544 -0.45568,1.815546 -1.88368,3.754388 -3.17334,4.308542 -2.43178,1.044904 -188.030176,2.003797 -193.359552,0.99899 z M 26.666666,67.816945 c 1.833334,0.06869 8.133333,0.296383 14,0.505991 5.866667,0.209607 22.066666,-0.101027 35.999999,-0.690297 C 90.599999,67.043367 120,66.525325 142,66.481433 c 38.93613,-0.07768 51.99282,-1.184986 50.93805,-4.31994 -0.57052,-1.695681 -9.62948,-1.751969 -44.93805,-0.279228 -12.83334,0.535286 -24.23334,0.938211 -25.33334,0.895388 -23.979112,-0.933484 -105.14253,1.168276 -106.118848,2.747992 -1.335168,2.160348 1.059972,4.048719 3.936,3.10321 1.567237,-0.515238 4.349521,-0.880596 6.182854,-0.81191 z M 162.66666,48.148389 c 0,-1.733107 -8.17517,-2.980019 -13.09145,-1.996763 -7.15369,1.430736 -4.71861,3.181708 4.42479,3.181708 4.76666,0 8.66666,-0.533225 8.66666,-1.184945 z m -57.802,-1.168805 c 0.84223,-0.538771 1.96408,-4.451331 2.493,-8.694578 0.83497,-6.698504 1.46766,-7.976649 4.80201,-9.700907 4.17483,-2.158888 5.28708,-5.179742 1.50699,-4.092961 -1.28333,0.36896 -7.13333,1.392915 -12.99999,2.275455 -12.795558,1.924872 -15.333338,3.745741 -15.333338,11.001737 0,7.646668 2.842172,10.236392 11.20665,10.211254 3.736338,-0.0112 7.482448,-0.46123 8.324678,-1 z"
       id="path789" />
  </g>
</svg>
