<?xml version="1.0" encoding="UTF-8" standalone="no"?>
<!-- Created with Inkscape (http://www.inkscape.org/) -->

<svg
   version="1.1"
   id="svg185"
   width="210.66667"
   height="84"
   viewBox="0 0 210.66667 84"
   xmlns="http://www.w3.org/2000/svg"
   xmlns:svg="http://www.w3.org/2000/svg">
  <defs
     id="defs189" />
  <g
     id="g191">
    <path
       style="fill:#000000;stroke-width:1.33333"
       d="m 185.33334,76.059504 c -1.52984,-0.994673 -2.04347,-4.367292 -2.18491,-14.346601 -0.10173,-7.17543 -0.63252,-16.17307 -1.17963,-19.994755 l -0.99472,-6.948517 -20.07608,-0.02279 c -18.97369,-0.02153 -19.8973,0.09617 -16.82037,2.143591 5.50371,3.662213 6.46288,5.557938 5.16148,10.201185 -2.90957,10.381029 -15.23079,15.037908 -21.96638,8.302321 C 125.47273,53.59394 124,51.401899 124,50.522739 c 0,-0.879162 -2.12888,0.593566 -4.73085,3.272726 -7.155,7.367268 -14.77937,6.126014 -20.538207,-3.343636 l -2.37392,-3.9036 -0.811844,4.059219 c -0.663801,3.319003 -1.467411,4.059219 -4.406856,4.059219 -1.977258,0 -4.567002,0.879637 -5.754987,1.954749 -1.906147,1.725039 -2.646587,1.658823 -6.300861,-0.563475 -2.525558,-1.535882 -4.769568,-4.423144 -5.752505,-7.401469 -1.497401,-4.537171 -1.365404,-5.140236 1.862541,-8.509484 1.910786,-1.994431 3.474157,-4.043407 3.474157,-4.55328 0,-0.509872 -5.287166,-0.927041 -11.749256,-0.927041 -11.507216,0 -11.810143,0.08236 -14.704954,3.997796 -1.625635,2.198788 -7.316101,8.948788 -12.645483,15 C 34.237594,59.715675 28.840991,66.316667 27.574524,68.333333 26.308059,70.35 24.484156,72 23.52141,72 20.124292,72 9.6796638,62.536564 7.3328272,57.332211 4.6285863,51.335276 5.675192,48.872577 11.555218,47.396785 c 1.89521,-0.475668 8.3206,-3.18644 14.278642,-6.023938 5.958045,-2.837499 12.332807,-5.425475 14.166141,-5.751059 C 41.833334,35.296205 36.433334,34.939264 28,34.828587 18.867972,34.70874 11.348872,33.960439 9.4082916,32.978337 6.4338553,31.473017 6.1782073,30.632364 6.4745726,23.331327 6.8798313,13.347675 7.5134689,11.172023 10.384089,9.9076437 14.424466,8.1280401 140.31691,7.2052212 167.22974,8.7579311 c 5.80969,0.3351845 14.16206,-0.043193 18.56081,-0.8408403 6.82228,-1.2371157 8.74869,-1.1116352 13.10716,0.8537631 4.09089,1.8447311 5.38951,3.3441521 6.51441,7.5217191 0.77274,2.869728 1.22114,7.40903 0.99643,10.087335 -0.4092,4.877373 -0.79812,5.238868 -10.3178,9.590205 -1.52367,0.696452 -1.84319,3.951544 -1.58215,16.117959 0.17991,8.384893 0.59504,16.445261 0.92252,17.911928 0.32748,1.466667 0.13344,3.369096 -0.43121,4.227621 -1.47799,2.247252 -7.32385,3.355083 -9.66657,1.831883 z M 25.199998,55.895187 c 1.66915,-2.257648 2.727202,-4.412432 2.351225,-4.788408 -2.016935,-2.016935 -12.46994,4.994681 -10.997627,7.376934 1.695356,2.743146 5.559896,1.586195 8.646402,-2.588526 z M 112,46 c 0,-2.444444 -0.71111,-3.333333 -2.66666,-3.333333 -3.04659,0 -3.20488,0.502982 -1.28643,4.087654 C 109.97468,50.356379 112,49.969909 112,46 Z m 26,-0.09285 c 0,-1.395514 -1.05,-2.739508 -2.33333,-2.986655 -2.34656,-0.451907 -3.37805,3.590345 -1.41667,5.551728 1.57523,1.575232 3.75,0.08765 3.75,-2.565073 z m -50.447776,0.0032 C 88.73644,42.824331 86.115984,40.7837 84.095372,43.218387 82.38722,45.276615 83.160963,48 85.453871,48 86.16694,48 87.1112,47.059669 87.552224,45.910377 Z M 102.66667,35.380061 c 0,-0.969034 -7.949283,-2.235452 -9.195877,-1.465016 -0.744149,0.459911 -0.369516,2.86665 0.914088,5.872324 l 2.175027,5.09302 3.05338,-4.499406 c 1.679362,-2.474674 3.053382,-4.725088 3.053382,-5.000922 z M 126.38064,37 c 1.88768,-2.166905 1.68805,-2.333333 -2.79881,-2.333333 -4.02939,0 -4.69338,0.387361 -3.99967,2.333333 0.45749,1.283333 1.46673,3.149125 2.24275,4.146204 1.18945,1.528273 1.49825,1.528273 1.96701,0 0.30583,-0.997079 1.47075,-2.862871 2.58872,-4.146204 z m 69.2685,-13.262088 c 2.6366,-2.188187 1.99121,-4.503321 -1.72776,-6.197797 -4.80638,-2.189928 -172.541368,-2.11172 -177.357584,0.08269 -5.097326,2.322498 -3.860191,6.858659 2.102871,7.710524 9.375307,1.33933 175.248003,-0.155942 176.982473,-1.595421 z"
       id="path511" />
  </g>
</svg>
