<?xml version="1.0" encoding="UTF-8" standalone="no"?>
<!-- Created with Inkscape (http://www.inkscape.org/) -->

<svg
   version="1.1"
   id="svg175"
   width="225.33333"
   height="212"
   viewBox="0 0 225.33333 212"
   xmlns="http://www.w3.org/2000/svg"
   xmlns:svg="http://www.w3.org/2000/svg">
  <defs
     id="defs179" />
  <g
     id="g181">
    <path
       style="fill:#000000;stroke-width:1.33333"
       d="m 9.9787664,206.63231 c -0.4649033,-0.75223 -0.7500732,-3.90223 -0.6337107,-7 0.1163627,-3.09778 0.3113278,-13.60332 0.4332562,-23.34566 0.2227021,-17.79442 0.8953141,-20.24581 5.5550211,-20.24581 4.112453,0 4.612347,2.43403 4.969927,24.19908 0.331429,20.17332 0.139904,22.36788 -2.176578,24.93989 -2.699713,2.99754 -6.74711,3.71906 -8.1479156,1.4525 z m 97.3862036,-1.77763 c -2.26669,-1.65745 -2.45692,-3.76832 -2.23051,-24.75071 0.19919,-18.45925 0.66328,-23.57324 2.37655,-26.18801 2.58698,-3.94824 9.07675,-4.46709 10.99694,-0.87919 0.69764,1.30355 1.46875,12.63852 1.71358,25.1888 0.40824,20.92748 0.23462,23.0517 -2.09485,25.6299 -2.91497,3.22622 -7.17514,3.62177 -10.76171,0.99921 z m 100.95365,-1.79759 c -5.61822,-1.08042 -7.08938,-6.60856 -5.66265,-21.27837 0.70137,-7.21163 1.29071,-16.48859 1.30963,-20.61547 0.0388,-8.4488 1.36209,-10.23058 8.45302,-11.38128 3.89503,-0.63208 4.92046,-0.26258 6.27016,2.25936 1.83072,3.42074 2.3592,34.49435 0.74226,43.64272 -0.91622,5.18376 -3.90563,8.65263 -7.01006,8.13438 -0.59821,-0.0999 -2.44428,-0.44247 -4.10236,-0.76134 z M 82.715299,113.38197 c -3.073299,-3.0733 -3.297979,-5.23015 -1.295868,-12.43988 2.734714,-9.847894 15.278536,-18.170857 30.551819,-20.271469 12.2424,-1.683761 31.38003,7.717215 36.71611,18.03605 2.41484,4.669789 2.57033,11.143299 0.31264,13.015759 -0.97611,0.80954 -13.98703,1.69076 -31.40166,2.12679 -16.35424,0.40949 -30.282355,1.08281 -30.951363,1.49628 -0.669009,0.41347 -2.438265,-0.47012 -3.931678,-1.96353 z m 60.351231,-9.91231 c -0.50113,-6.949968 -7.71199,-11.961436 -21.30235,-14.804913 -8.33823,-1.744584 -9.1913,-1.679014 -17.59695,1.352562 -11.345618,4.091906 -19.340578,13.031571 -15.283127,17.089021 0.486257,0.48625 12.936257,0.69948 27.666667,0.47383 l 26.78256,-0.41027 z M 26,57.657148 c -4.806632,-0.657208 -8.666667,-3.841833 -8.666667,-7.15022 0,-4.085561 4.015895,-4.777663 22,-3.791487 24.536591,1.345488 28.462981,0.237778 20.426122,-5.762605 -2.273991,-1.697779 -6.183213,-2.693289 -11.763898,-2.99576 -9.327748,-0.50556 -11.091816,-1.542303 -10.441778,-6.136629 0.398428,-2.816002 1.088836,-3.134134 6.44622,-2.970347 12.764819,0.390249 24.667112,4.839881 31.050327,11.608061 l 4.299919,4.559244 41.324875,-0.669776 c 22.72868,-0.368377 44.6826,-0.60128 48.78648,-0.517564 l 7.4616,0.152212 2.74686,-5.657805 c 2.84564,-5.861251 5.94127,-14.632415 8.82019,-24.991139 2.23937,-8.0575567 5.45389,-9.5330205 17.87719,-8.2055953 5.25773,0.5617868 10.02594,1.4861492 10.59602,2.0541386 0.5701,0.5679893 1.23716,9.8344267 1.48238,20.5920827 0.51458,22.575569 -0.81294,27.224785 -8.24723,28.883216 C 205.74854,57.649891 32.81324,58.588719 26,57.657148 Z M 205.2445,38.881105 c 1.95238,-4.713433 1.34724,-19.141996 -0.83296,-19.860805 -3.04438,-1.003732 -12.27381,21.588365 -9.31282,22.796233 4.65474,1.898795 8.6184,0.752008 10.14578,-2.935428 z"
       id="path650" />
  </g>
</svg>
