<?xml version="1.0" encoding="UTF-8" standalone="no"?>
<!-- Created with Inkscape (http://www.inkscape.org/) -->

<svg
   version="1.1"
   id="svg165"
   width="209.33333"
   height="148"
   viewBox="0 0 209.33333 148"
   xmlns="http://www.w3.org/2000/svg"
   xmlns:svg="http://www.w3.org/2000/svg">
  <defs
     id="defs169" />
  <g
     id="g171">
    <path
       style="fill:#000000;stroke-width:1.33333"
       d="m 183.597,142.33333 c -1.89816,-1.40854 -2.299,-4.69545 -2.58818,-21.2232 -0.18818,-10.7561 -0.64216,-19.82287 -1.00882,-20.14837 -1.42207,-1.262435 -40,-2.185205 -40,-0.95679 0,0.69294 1.87012,2.22696 4.15582,3.40894 3.7901,1.95994 4.08752,2.57898 3.37964,7.03424 -1.13518,7.14468 -7.25464,12.21852 -14.73648,12.21852 -4.72051,0 -6.23411,-0.62343 -7.97897,-3.28643 -1.18434,-1.80753 -2.15335,-4.20753 -2.15335,-5.33333 0,-3.46414 -1.87316,-2.27734 -4.66666,2.95669 -2.3819,4.46284 -3.29239,5.04119 -8.52611,5.41582 -5.12733,0.36701 -6.33515,-0.10142 -9.66667,-3.74896 -5.21107,-5.70539 -4.92299,-9.95547 1.04536,-15.42226 2.66891,-2.44463 6.11891,-4.693848 7.66666,-4.998252 1.54775,-0.304404 0.0391,-0.635172 -3.35258,-0.735039 C 92.766584,97.149792 87.626107,99.816708 92.666665,104 c 5.870796,4.87233 -0.981082,18.66667 -9.272046,18.66667 -9.687712,0 -15.847424,-10.94696 -10.199735,-18.12683 1.542813,-1.96137 2.805115,-4.0034 2.805115,-4.53783 0,-0.534441 -5.7,-0.971707 -12.666667,-0.971707 -10.762288,0 -12.668317,0.323472 -12.677643,2.151517 -0.006,1.18333 -2.856038,5.23137 -6.333334,8.99564 -11.108512,12.02527 -22.308302,24.81815 -22.766799,26.00521 -1.025986,2.65628 -6.901172,1.03157 -9.098192,-2.516 -1.248928,-2.01667 -3.1186956,-4.37372 -4.1550404,-5.23789 -1.0363448,-0.86417 -2.6876498,-3.86417 -3.6695669,-6.66666 -1.6661915,-4.75549 -1.5911801,-5.24915 1.1243031,-7.39914 1.6002837,-1.26703 3.7211954,-2.31703 4.7131372,-2.33333 0.991942,-0.0163 6.924996,-2.42965 13.184567,-5.36298 6.259569,-2.93334 12.197981,-5.33334 13.196469,-5.33334 0.998488,0 1.815433,-0.68851 1.815433,-1.530033 0,-1.096472 -3.132925,-1.289221 -11.056006,-0.680205 C 16.17865,100.00183 9.21565,98.846781 5.4609556,95.448831 3.7549994,93.904961 3.4370211,91.826095 3.9780119,85.753697 4.5887711,78.898177 5.0918801,77.820719 8.4258736,76.228141 11.303421,74.8536 24.124581,74.29886 63.092539,73.862848 108.22756,73.357833 165.35008,73.18448 174.66666,73.524247 c 1.83334,0.06685 6.41548,-0.324283 10.18255,-0.869206 8.60647,-1.244961 18.09016,1.956586 20.32493,6.86138 3.61608,7.936442 0.0568,16.501354 -8.23641,19.819632 l -5.20001,2.080627 0.77616,8.95833 c 2.40069,27.70896 2.45085,29.65927 0.81352,31.63215 -2.01448,2.42729 -6.6878,2.58396 -9.7304,0.32617 z M 24.712666,119.93734 c 2.71688,-3.70114 4.660106,-7.00901 4.318279,-7.35084 -0.568235,-0.56823 -4.929087,1.21074 -12.688376,5.17613 -3.093962,1.58116 -3.002887,5.79306 0.170472,7.88362 2.507937,1.65219 3.097293,1.24185 8.199625,-5.70891 z m 61.703897,-9.62335 c 0.530649,-2.75544 -3.318419,-4.61214 -5.349898,-2.58066 -2.031478,2.03148 -0.174784,5.88055 2.580656,5.3499 1.277131,-0.24595 2.52329,-1.49211 2.769242,-2.76924 z m 24.005327,-0.63592 c -0.25445,-2.2046 -1.34792,-3.83088 -2.75523,-4.09777 -1.81206,-0.34364 -2.33333,0.47295 -2.33333,3.65527 0,3.25278 0.56815,4.09776 2.75523,4.09776 2.21733,0 2.67286,-0.71361 2.33333,-3.65526 z m 26.17041,2.44225 c 1.11366,-1.80192 -0.62214,-5.45365 -2.5923,-5.45365 -1.97017,0 -3.70596,3.65173 -2.5923,5.45365 0.41232,0.66716 1.57886,1.21301 2.5923,1.21301 1.01344,0 2.17997,-0.54585 2.5923,-1.21301 z m -14.08451,-5.57104 c 0.78944,-2.26457 2.64813,-4.43455 4.13044,-4.82218 4.85605,-1.26989 2.82497,-3.060433 -3.47157,-3.060433 H 117 l 0.83333,4.166663 c 0.45833,2.29167 0.83333,4.99167 0.83333,6 0,3.32414 2.37932,1.90932 3.84113,-2.28405 z m 9.01116,-15.839925 c 56.1909,-0.04076 58.99463,-0.15939 62.00001,-2.623338 3.02422,-2.47941 3.0543,-2.675562 0.76697,-5 -2.24799,-2.284444 -7.33903,-2.431597 -91.30011,-2.63898 C 48.930329,80.31352 13.138554,80.723997 11.699888,81.493948 8.9586115,82.961035 8.5791069,87.054033 11,89.042316 c 2.955084,2.427015 7.850561,2.73738 34.999999,2.218944 14.666667,-0.280069 53.150195,-0.528427 85.518951,-0.551905 z M 33.668679,38.946173 c -1.921968,-0.297752 -4.280989,-2.704378 -6.57267,-6.70531 -6.171532,-10.77457 -8.41564,-13.495762 -10.477248,-12.704648 -1.073652,0.411998 -1.952095,1.603726 -1.952095,2.648284 0,3.036904 -4.172415,3.873689 -6.1090528,1.22518 -1.4670498,-2.006311 -1.1105371,-3.52617 2.3965148,-10.216641 4.551121,-8.6822629 7.162494,-9.7625308 11.74755,-4.8597047 4.254831,4.5497147 10.631655,14.5501357 10.631655,16.6730377 0,4.920525 4.658353,-0.860119 8.034305,-9.969928 C 43.316477,9.7776115 48.486034,4 51.242569,4 c 1.120111,0 3.220082,2.3198819 4.666601,5.1552932 3.289658,6.4482638 9.16392,13.5180338 11.209354,13.4906418 0.851478,-0.0114 3.048142,-3.083308 4.881475,-6.826456 3.637209,-7.4261545 8.449646,-12.0748883 11.348524,-10.9624849 2.25664,0.8659536 7.114893,7.2161729 11.330182,14.8096729 1.730119,3.116666 3.785185,5.657337 4.566815,5.645934 0.78163,-0.01147 2.87136,-2.975613 4.64385,-6.587136 4.39761,-8.9603183 8.65136,-13.3497495 12.07059,-12.4556007 1.49935,0.3920878 5.53744,4.5417677 8.97355,9.2215117 C 128.36962,20.171119 131.94856,24 132.88672,24 c 0.93816,0 3.55568,-3.72858 5.81672,-8.285733 C 143.87774,5.2854023 144.96624,4 148.62328,4 c 3.79306,0 6.15641,2.6891152 11.42516,13 2.34202,4.583333 4.74525,8.333333 5.34049,8.333333 0.59524,0 2.58804,-3.289078 4.42845,-7.309062 7.86554,-17.18060653 13.2982,-17.29160795 21.90406,-0.44755 4.65212,9.105514 5.23296,11.129474 3.9819,13.875248 -0.8056,1.768084 -2.22556,3.214698 -3.15546,3.214698 -2.12566,0 -5.87958,-3.674656 -5.8862,-5.761906 -0.003,-0.864285 -1.22658,-3.575117 -2.71963,-6.024069 -3.21451,-5.272539 -4.93479,-4.473881 -9.01908,4.187184 -3.31609,7.032056 -8.89507,13.124025 -11.18073,12.208811 -0.95823,-0.383691 -4.65318,-5.318131 -8.21098,-10.965423 -7.38316,-11.719272 -6.44736,-11.899223 -15.27993,2.938261 -5.84871,9.825003 -9.35547,10.081268 -14.8309,1.083808 -2.1198,-3.483333 -5.49667,-8.318812 -7.50416,-10.745508 l -3.64999,-4.412174 -3.96395,9.078841 c -5.00422,11.4614 -5.79893,12.412175 -10.3748,12.412175 -3.413309,0 -7.372215,-3.640283 -9.425238,-8.666667 -1.36162,-3.333635 -6.870167,-11.333333 -7.804068,-11.333333 -1.675999,0 -3.429247,2.946321 -5.31642,8.934202 -2.329845,7.392451 -8.589129,13.546146 -11.763638,11.565195 -2.663311,-1.661953 -8.59158,-9.912797 -11.671386,-16.243996 -3.217917,-6.615115 -4.765506,-5.507492 -9.938302,7.112924 -2.989207,7.292967 -5.700747,9.629863 -10.339799,8.911181 z"
       id="path789" />
  </g>
</svg>
