<?xml version="1.0" encoding="UTF-8" standalone="no"?>
<!-- Created with Inkscape (http://www.inkscape.org/) -->

<svg
   version="1.1"
   id="svg75"
   width="141.33333"
   height="213.33333"
   viewBox="0 0 141.33333 213.33333"
   xmlns="http://www.w3.org/2000/svg"
   xmlns:svg="http://www.w3.org/2000/svg">
  <defs
     id="defs79" />
  <g
     id="g81">
    <path
       style="fill:#000000;stroke-width:1.33333"
       d="m 25.153133,207.67301 c -4.582809,-1.69633 -2.471255,-5.56927 3.53102,-6.47645 13.567019,-2.05054 16.997746,-6.03783 15.369762,-17.86323 -1.449313,-10.52756 -4.973117,-26.1636 -7.294997,-32.36981 -2.770005,-7.40403 -3.327091,-12.31474 -2.132129,-18.79473 0.591426,-3.20716 0.767725,-8.12451 0.391773,-10.92743 -0.567536,-4.2313 -1.254889,-5.16513 -4.049907,-5.50213 -1.851496,-0.22325 -4.026874,-1.4628 -4.834173,-2.75458 -1.204292,-1.92701 -0.788979,-2.89034 2.31328,-5.36573 l 3.781095,-3.01705 -1.57063,-8.634269 c -2.058568,-11.316632 -4.17981,-18.634269 -5.401716,-18.634269 -0.54083,0 -1.415168,8.062812 -1.942972,17.917359 -1.068857,19.956469 -1.087097,19.988969 -10.419497,18.565319 -8.6940938,-1.32628 -10.2273754,-2.57568 -10.2273754,-8.33386 0,-5.21145 5.6507451,-22.669886 7.7839224,-24.049061 0.651987,-0.421533 0.759338,-1.959353 0.238558,-3.417378 -0.9161498,-2.564938 1.261765,-13.231209 3.814701,-18.682379 0.686881,-1.466666 1.997781,-5.571288 2.913113,-9.121381 2.816448,-10.923542 8.407098,-9.684582 9.875146,2.18846 0.471474,3.813107 1.360498,8.132921 1.975608,9.599588 0.615111,1.466667 2.079986,5.666667 3.255276,9.333333 l 2.136891,6.666667 -0.534759,-6.666667 c -0.294117,-3.666666 -1.073114,-9.066666 -1.731104,-12 -1.754274,-7.820606 0.235539,-15.917965 4.375104,-17.804077 3.7842,-1.724197 9.854027,-1.982152 11.973241,-0.508838 2.246076,1.561509 4.690668,8.685945 5.809579,16.931238 0.949864,6.999583 0.806502,7.707999 -1.758895,8.691537 -2.019803,0.774364 -3.618436,0.312643 -5.774437,-1.667789 -2.45416,-2.254309 -2.837277,-3.639817 -2.166469,-7.834819 0.647152,-4.047066 0.350378,-5.274475 -1.44157,-5.96211 -3.457954,-1.326941 -5.71909,1.620479 -3.710518,4.836713 0.898302,1.438412 1.64662,3.673436 1.662926,4.96672 0.01631,1.293284 1.141399,3.797556 2.500206,5.565049 2.023137,2.631635 2.237474,4.057786 1.18352,7.874894 -0.707872,2.563698 -0.85935,7.417567 -0.336618,10.786375 0.522732,3.36881 0.864074,9.197758 0.758535,12.953217 -0.166829,5.936408 0.247119,7.115758 3.169744,9.030738 1.848897,1.21144 3.361632,3.08879 3.361632,4.17189 0,1.08309 0.523314,1.96926 1.162922,1.96926 0.639607,0 1.548374,2.41048 2.019482,5.35663 0.675402,4.22373 2.614881,7.12751 9.17041,13.72987 4.572619,4.60529 9.391863,9.99481 10.709432,11.97671 3.180018,4.78342 4.937753,4.55216 4.937753,-0.64961 0,-4.90924 2.284623,-18.46217 4.15532,-24.65036 0.704428,-2.33021 1.645172,-7.3135 2.090544,-11.07397 0.736845,-6.22151 0.550804,-6.90492 -2.065967,-7.58923 -3.314592,-0.866781 -4.87164,-5.528635 -3.604281,-10.791339 0.482389,-2.003118 1.348967,-5.742032 1.925731,-8.308699 0.576762,-2.566667 2.086317,-6.657277 3.354565,-9.090246 2.434617,-4.670496 2.45192,-9.713891 0.03605,-10.507995 -0.792752,-0.26058 -2.250928,1.979207 -3.240389,4.977304 -1.895745,5.744164 -5.469936,8.693012 -8.928065,7.366003 -1.65796,-0.636219 -1.863069,-1.912628 -1.034216,-6.436004 0.568645,-3.103318 1.151259,-11.996102 1.294697,-19.761743 0.143439,-7.765642 0.69048,-14.814589 1.215647,-15.664328 0.525168,-0.849738 0.02009,-2.879535 -1.122393,-4.510659 -1.142486,-1.631124 -2.077246,-4.263171 -2.077246,-5.848992 0,-1.604222 -1.478728,-3.852212 -3.333333,-5.067396 -3.82918,-2.508975 -4.223729,-5.591374 -1.257728,-9.8259345 3.109913,-4.4400223 9.112152,-3.9539791 12.801889,1.0366584 3.498868,4.7324721 4.115433,4.8243941 8.855127,1.3201866 3.111365,-2.3003314 4.833046,-2.5535098 12.15812,-1.787888 8.17633,0.8545951 8.85541,1.213853 16.22526,8.5837035 8.87863,8.878624 10.17586,13.365323 8.66975,29.985824 -0.68276,7.534521 -0.43657,10.540193 1.05377,12.864837 2.17389,3.390868 5.30439,25.821089 4.60979,33.02942 -0.36895,3.828818 -1.28394,5.054751 -5.11598,6.854543 L 122,101.04242 l -0.81445,27.81212 c -0.44794,15.29667 -1.51088,33.81212 -2.36208,41.14546 -2.53048,21.8008 -0.88294,25.57546 12.23733,28.03684 6.41262,1.20301 6.97562,2.33253 3.29158,6.60369 l -3.01905,3.5002 -51.747877,0.26297 c -28.461332,0.14463 -52.955876,-0.18418 -54.43232,-0.73069 z M 84.863755,197.2624 c 21.882855,0.23141 20.484435,2.36134 23.671845,-36.05462 1.3633,-16.43094 2.95311,-33.77445 3.53293,-38.54112 1.18846,-9.77033 0.70506,-41.669603 -0.66505,-43.886495 -0.49181,-0.795758 -2.05571,-1.446833 -3.47534,-1.446833 -2.68984,0 -6.13868,6.16754 -9.319878,16.666667 -0.888788,2.933333 -2.050658,6.533331 -2.581931,8.000001 -2.080837,5.74448 -9.359666,54.00729 -9.359666,62.05994 0,2.47104 -0.945643,4.35232 -2.644848,5.26171 -2.171866,1.16235 -3.170624,0.81079 -5.584907,-1.96588 -1.617032,-1.85975 -3.794568,-5.92561 -4.838968,-9.03524 -2.26706,-6.75001 -23.057059,-28.07743 -26.697838,-27.38797 -3.395836,0.64307 -3.508524,9.15209 -0.2602,19.64764 1.5459,4.9949 3.971884,14.70773 5.391073,21.58405 4.474107,21.67815 7.346458,27.29092 13.203417,25.80035 1.88775,-0.48043 10.720962,-0.79642 19.629361,-0.7022 z M 45.943059,118.7588 c 0.421908,-0.68267 0.157317,-1.61808 -0.587977,-2.07869 -0.745296,-0.46062 -1.355083,0.0979 -1.355083,1.2412 0,2.34203 0.800073,2.68688 1.94306,0.83749 z M 16.261552,95.893217 c 0.945126,-8.715818 0.298228,-15.893218 -1.432458,-15.893218 -0.527462,0 -0.99351,2.25 -1.035662,5 -0.04215,2.75 -0.555195,8.530758 -1.140095,12.84613 -0.876463,6.466501 -0.734341,7.737191 0.808269,7.226551 1.205335,-0.39899 2.2022,-3.66716 2.799946,-9.179463 z M 92.275887,83.999999 c 3.294313,-7.764666 4.575168,-9.953576 7.925723,-13.544641 4.60393,-4.934411 10.18688,-5.036563 14.9499,-0.27354 1.93334,1.933333 3.51515,4.933333 3.51515,6.666666 0,1.733333 0.67851,3.151515 1.50779,3.151515 1.00037,0 1.22967,-1.68266 0.68134,-5 -0.45454,-2.75 -0.83305,-6.267497 -0.84112,-7.81666 -0.008,-1.549164 -1.7152,-4.956497 -3.79362,-7.571853 l -3.77896,-4.755194 1.65751,-10.428146 c 1.90362,-11.976501 0.62274,-16.580609 -5.96849,-21.453712 -4.90146,-3.623808 -12.849288,-5.144822 -15.479062,-2.962305 -3.114449,2.584764 -2.387213,5.321204 1.414163,5.321204 1.869751,0 5.230944,0.947052 7.469319,2.104561 3.40234,1.759419 3.94735,2.688739 3.32331,5.666667 -0.41056,1.959157 -1.63949,8.92108 -2.73095,15.470937 -1.17691,7.06262 -3.045264,13.343613 -4.59119,15.43459 -3.21362,4.346654 -6.609147,14.111611 -7.530673,21.656928 -0.380622,3.116475 -0.343814,4.766316 0.08179,3.666316 0.425609,-1.1 1.410238,-3.5 2.188066,-5.333333 z m 0.904265,-36.333333 c -0.151828,-3.116667 0.160959,-7.016667 0.695082,-8.666667 0.707288,-2.18494 0.442104,-3 -0.976068,-3 -1.070959,0 -2.272921,0.848823 -2.671028,1.886272 -0.398107,1.03745 -2.4123,2.695535 -4.475985,3.684634 -2.063686,0.989098 -3.752155,2.666376 -3.752155,3.727282 0,1.877408 7.861693,8.035145 10.258613,8.035145 0.658675,0 1.073368,-2.549999 0.921541,-5.666666 z"
       id="path928" />
  </g>
</svg>
