<?xml version="1.0" encoding="UTF-8" standalone="no"?>
<!-- Created with Inkscape (http://www.inkscape.org/) -->

<svg
   version="1.1"
   id="svg205"
   width="208"
   height="178.66667"
   viewBox="0 0 208 178.66667"
   xmlns="http://www.w3.org/2000/svg"
   xmlns:svg="http://www.w3.org/2000/svg">
  <defs
     id="defs209" />
  <g
     id="g211">
    <path
       style="fill:#000000;stroke-width:1.33333"
       d="m 128.84505,172.65458 c -1.9504,-1.9504 -3.34475,-12.1825 -4.12578,-30.2761 l -0.44411,-10.28817 -13.62788,-15.04516 C 103.15195,108.77032 95.452847,100.56077 93.538163,98.801715 l -3.481244,-3.198287 -31.252626,0.924807 c -17.188945,0.508644 -31.771325,1.24538 -32.405292,1.637193 -0.633965,0.391813 0.05501,2.666462 1.531079,5.054772 2.303376,3.72694 2.429368,4.69027 0.888953,6.79691 -4.183988,5.72195 -16.055951,-4.6616 -24.4576687,-21.39135 -5.5938322,-11.138605 2.8627186,-14.790151 9.6980887,-4.187642 1.943628,3.014808 3.66584,4.172501 6,4.033282 C 21.860088,88.364003 33.533333,87.944819 46,87.539882 c 12.466667,-0.404939 30.766667,-1.07743 40.666667,-1.494423 9.9,-0.416995 28.500003,-1.044468 41.333333,-1.394387 27.35468,-0.745861 58.84467,-2.70396 64.99669,-4.0416 5.1775,-1.125748 8.33664,0.978843 8.33664,5.55379 0,3.573936 -4.7323,9.032241 -6.74982,7.785344 -1.86592,-1.153199 -28.17342,-1.790362 -38.91684,-0.94256 -11.20439,0.884177 -11.29447,1.497601 -2.9167,19.862124 1.05418,2.31083 1.9167,4.77992 1.9167,5.48686 0,0.70694 1.24133,2.86344 2.7585,4.79222 3.32775,4.23056 2.51123,7.84618 -2.26318,10.02155 -3.18976,1.45335 -3.38575,2.02483 -2.56696,7.48491 1.2403,8.27093 -0.68466,11.34629 -7.10196,11.34629 -7.14971,0 -10.08759,3.5186 -9.09803,10.8964 1.13245,8.44302 -3.2286,14.07956 -7.54999,9.75818 z m 9.74478,-36.32124 c -0.0423,-1.28334 -0.52136,-4.73334 -1.06467,-7.66667 l -0.98784,-5.33333 -0.92873,6.47132 c -0.5108,3.55922 -0.5963,7.00922 -0.18998,7.66666 1.25698,2.03383 3.2521,1.31787 3.17122,-1.13798 z M 124.8652,105.21991 c -0.46642,-4.46239 -1.1873,-8.662387 -1.60197,-9.333335 -0.85787,-1.388059 -9.05066,-1.59742 -13.70829,-0.350307 -2.93899,0.786934 -2.64506,1.304052 5.29481,9.315132 4.6236,4.66506 8.95935,8.48194 9.63501,8.48194 0.70737,0 0.86875,-3.44152 0.38044,-8.11343 z M 110.44581,37.06109 c -1.22147,-0.950265 -2.4276,-2.927756 -2.68028,-4.394423 -0.76798,-4.457509 -5.57527,-4.054728 -7.33782,0.614804 -2.155803,5.711382 -6.323766,5.412147 -9.205619,-0.660906 -1.229996,-2.592023 -3.208146,-5.226331 -4.39589,-5.854018 C 85.638457,26.13886 67.566667,25.782672 46.666667,25.975018 24.809437,26.176172 7.6410715,25.792627 6.2524208,25.072154 4.7864413,24.31156 4.0008823,22.676667 4.2524208,20.909786 4.6427251,18.168174 5.5528684,17.952343 20,17.175414 28.433333,16.721891 46.433333,16.212083 60,16.042507 89.275828,15.676575 91.176808,15.311854 91.769263,9.9472719 92.329001,4.8789298 93.716465,3.5187174 97.199116,4.6240678 98.947296,5.1789186 100,6.6363069 100,8.5016775 c 0,1.6437545 0.83507,4.1306735 1.85572,5.5264885 1.57669,2.156253 2.17813,2.270262 4,0.758245 C 107.03507,13.807634 108,11.923138 108,10.598645 c 0,-1.3244926 0.94167,-3.3498362 2.09259,-4.5007633 3.09969,-3.0996831 7.24074,-0.4599168 7.24074,4.6156973 0,2.202319 0.73815,4.012265 1.66667,4.086705 21.17564,1.697662 32.94011,1.875435 55.58489,0.839947 24.67102,-1.128143 27.40378,-1.037983 28.85898,0.952113 1.68076,2.298587 1.02341,7.478539 -1.12994,8.90395 -0.68932,0.456294 -19.30749,0.928724 -41.37373,1.049845 -39.82178,0.21858 -43.60687,0.635459 -43.60687,4.802743 0,0.928965 -1.05,2.982989 -2.33333,4.564496 -1.97588,2.434965 -2.67355,2.610787 -4.55419,1.147712 z"
       id="path233" />
  </g>
</svg>
