<?xml version="1.0" encoding="UTF-8" standalone="no"?>
<!-- Created with Inkscape (http://www.inkscape.org/) -->

<svg
   version="1.1"
   id="svg195"
   width="220"
   height="222.66667"
   viewBox="0 0 220 222.66667"
   xmlns="http://www.w3.org/2000/svg"
   xmlns:svg="http://www.w3.org/2000/svg">
  <defs
     id="defs199" />
  <g
     id="g201">
    <path
       style="fill:#000000;stroke-width:1.33333"
       d="M 199.58372,213.72996 C 191.27627,200.57011 184.286,183.13611 180.44611,166 c -1.70736,-7.61934 -1.88456,-12.88374 -0.96491,-28.66666 1.75657,-30.1461 1.20567,-37.512881 -3.55053,-47.478604 -2.86128,-5.995291 -5.8561,-9.869424 -10.18371,-13.173798 -3.37173,-2.574516 -6.84071,-4.680937 -7.70881,-4.680937 -0.86812,0 -5.13184,-1.438995 -9.47494,-3.197765 C 140.34597,65.474604 127.38029,63.71393 108,63.293958 92.194207,62.951446 68.266808,58.938313 61.795088,55.544413 56.334704,52.680877 52.371379,42.512114 54.462151,36.730187 55.307968,34.391121 56,30.499959 56,28.083162 c 0,-3.974127 -0.286779,-4.295426 -3,-3.361124 -1.65,0.56818 -7.594796,1.282113 -13.210659,1.58652 C 27.292317,26.985954 21.985757,24.816087 20.244369,18.31656 18.671707,12.446784 19.368551,11.149131 26.263025,7.1086996 31.943409,3.7797729 32.797188,3.6624374 45.064769,4.5247627 c 14.348727,1.0086154 19.80861,3.2771454 22.801484,9.4738033 1.656883,3.430524 1.534966,5.197992 -1.086718,15.754485 l -2.952974,11.890463 3.08672,3.294375 c 2.929747,3.126842 3.663064,3.26001 14.420052,2.618614 6.233334,-0.371668 17.033334,-1.357705 23.999997,-2.191194 21.24889,-2.54221 34.35936,-2.538118 48.86567,0.01525 13.01756,2.291323 15.26279,3.176229 25.97599,10.2379 4.25836,2.806926 17.15834,17.726163 17.15834,19.84417 0,0.435809 1.10575,2.385004 2.45722,4.331543 5.75245,8.285358 5.67548,29.711168 -0.18995,52.872498 -6.91697,27.31369 -7.6702,44.83904 -2.39543,55.73525 1.53715,3.17534 2.79483,6.41554 2.79483,7.20044 0,0.78491 2.44525,5.08891 5.43391,9.56444 6.08477,9.11202 6.33841,12.62536 0.95649,13.2485 -2.91609,0.33762 -4.18891,-0.5385 -6.80668,-4.68534 z m -9.04996,-84.06329 c -0.10832,-5.16198 -0.33035,-5.71683 -1.20043,-3 -1.54306,4.81821 -1.54306,9.33333 0,9.33333 0.73334,0 1.27352,-2.85 1.20043,-6.33333 z m 2.38551,-27.07529 c -1.05803,-17.366759 -3.3624,-22.628925 -14.85611,-33.924712 -12.78423,-12.564099 -17.7382,-14.250965 -43.39649,-14.77683 -12.3284,-0.252671 -17.15939,-0.0168 -13.33334,0.650977 3.3,0.575967 12.3,2.082501 20,3.347851 9.5847,1.575066 16.52303,3.591711 22,6.394359 7.7486,3.965072 18.14247,12.081089 19.17011,14.968899 0.27689,0.778109 1.99488,4.714744 3.81775,8.748077 2.87556,6.36255 3.30509,9.186648 3.24465,21.333329 -0.0672,13.50717 0.004,13.86137 2.03379,10.06177 1.68064,-3.14661 1.94589,-6.5243 1.31964,-16.80372 z M 47.376159,16.734703 c 5.910046,-2.469376 5.876692,-4.378832 -0.09606,-5.499328 -5.622055,-1.054704 -16.613428,1.709778 -16.613428,4.178505 0,3.234678 10.199421,4.040904 16.709492,1.320823 z M 62.666667,200.13564 c -1.1,-0.61412 -9.425094,-1.517 -18.500208,-2.0064 -29.071932,-1.56774 -41.4997923,-8.96429 -41.4997923,-24.69896 0,-8.52214 2.9934832,-9.72406 22.9069803,-9.1974 l 16.401756,0.43379 0.17061,-3.14648 c 0.319228,-5.88736 -0.214529,-5.82748 50.332751,-5.64612 l 25.145426,0.0903 7.91014,5.3994 7.91014,5.39941 8.72802,-1.16939 c 10.97234,-1.47008 12.49418,-0.26694 12.49418,9.87768 0,13.0894 -6.22959,21.66375 -13.07703,17.99911 -3.99867,-2.14003 -16.93003,-1.87185 -18.80722,0.39001 -2.22584,2.68199 -8.11264,3.47831 -26.375483,3.5679 -9.480518,0.0465 -19.096713,0.86282 -23.279828,1.97625 -8.281005,2.20415 -7.872854,2.17563 -10.460442,0.73097 z m 47.403583,-12.8817 c 2.89469,-0.5311 6.44659,-1.7805 7.89309,-2.77644 1.49275,-1.0278 6.10521,-1.8187 10.66667,-1.82903 10.4458,-0.0236 14.27432,-1.08704 13.75639,-3.82085 -0.28901,-1.52547 -2.15409,-2.28551 -6.34219,-2.58451 -4.13574,-0.29527 -7.76704,-1.75292 -11.98849,-4.81235 -4.66334,-3.37969 -7.90621,-4.57366 -14.10387,-5.19285 -11.164277,-1.1154 -13.712075,-0.23723 -14.210854,4.89816 l -0.407663,4.19727 -34.234158,-0.1484 c -18.828788,-0.0816 -37.278788,-0.5523 -41,-1.04594 -6.155048,-0.81649 -6.765842,-0.65934 -6.765842,1.74072 0,1.45104 1.417486,4.28618 3.149968,6.3003 2.679558,3.11517 4.820072,3.89584 14.333334,5.22745 11.888985,1.66416 69.959445,1.55167 79.253615,-0.15353 z"
       id="path372" />
  </g>
</svg>
