<?xml version="1.0" encoding="UTF-8" standalone="no"?>
<!-- Created with Inkscape (http://www.inkscape.org/) -->

<svg
   version="1.1"
   id="svg175"
   width="226.66667"
   height="206.66667"
   viewBox="0 0 226.66667 206.66667"
   xmlns="http://www.w3.org/2000/svg"
   xmlns:svg="http://www.w3.org/2000/svg">
  <defs
     id="defs179" />
  <g
     id="g181">
    <path
       style="fill:#000000;stroke-width:1.33333"
       d="m 11.76391,199.98614 c -1.8544025,-2.0387 -2.2916761,-5.9457 -2.5617411,-22.8889 -0.3550393,-22.27428 0.5908114,-26.43057 6.0148171,-26.43057 1.717738,0 3.729648,0.75 4.470908,1.66667 1.907126,2.35841 3.043305,42.30965 1.29872,45.66666 -2.68629,5.16908 -5.731055,5.82478 -9.222704,1.98614 z m 96.9344,-0.46479 c -2.2667,-1.65745 -2.45693,-3.76832 -2.23051,-24.75071 0.19918,-18.45925 0.66327,-23.57324 2.37654,-26.18801 2.58699,-3.94824 9.07676,-4.46709 10.99695,-0.87919 0.69764,1.30355 1.46875,12.63852 1.71357,25.1888 0.40825,20.92748 0.23463,23.0517 -2.09484,25.6299 -2.91497,3.22622 -7.17514,3.62177 -10.76171,0.99921 z m 97.2934,-4.38679 c -1.32193,-1.32192 -1.89719,-3.31585 -1.44252,-5 0.41593,-1.54066 1.10857,-11.20122 1.5392,-21.46789 0.43063,-10.26667 1.01807,-19.41667 1.30544,-20.33333 0.79213,-2.52683 10.80149,-2.15148 11.79685,0.44238 0.44514,1.15998 0.80932,11.61712 0.80932,23.2381 0,17.43044 -0.36677,21.49581 -2.09524,23.22428 -2.7361,2.7361 -9.12897,2.68054 -11.91305,-0.1036 z M 102,60.581961 C 99.066668,59.616277 92.166668,57.856342 86.666668,56.670994 76.44537,54.468124 73.805477,53.315078 53.984994,42.396382 33.597903,31.165553 16.059908,14.638378 18.192334,8.6666668 18.767538,7.0558482 207.7936,6.8290038 210.33334,8.4360843 211.25,9.0161296 212,10.270687 212,11.223989 c 0,2.689363 -25.42753,27.553748 -30.66666,29.987482 -2.56667,1.192295 -7.40443,3.798708 -10.75059,5.792031 -6.25127,3.723913 -20.97632,9.636468 -29.24941,11.74452 -2.56667,0.65401 -9.46667,1.519067 -15.33334,1.922351 -5.86666,0.403284 -12.46666,0.943424 -14.66667,1.200311 -2.2,0.256886 -6.4,-0.323038 -9.33333,-1.288723 z m 43.33334,-11.064126 c 12.18332,-3.05773 31.60525,-11.967024 35.5845,-16.323436 1.6048,-1.75692 5.9548,-5.851391 9.66667,-9.098824 3.71185,-3.247435 6.74883,-6.417636 6.74883,-7.044891 0,-0.627256 -31.35,-1.018458 -69.66667,-0.869337 -38.316669,0.14912 -75.216669,-0.219492 -82.000003,-0.819137 -8.484012,-0.749986 -12.333333,-0.64918 -12.333333,0.322982 0,1.536031 17.498615,16.67149 22.759391,19.685775 16.510572,9.460122 32.461508,14.86286 50.573945,17.129893 8.65225,1.082953 28.59675,-0.455708 38.66667,-2.983025 z"
       id="path650" />
  </g>
</svg>
