<?xml version="1.0" encoding="UTF-8" standalone="no"?>
<!-- Created with Inkscape (http://www.inkscape.org/) -->

<svg
   version="1.1"
   id="svg165"
   width="237.33333"
   height="208"
   viewBox="0 0 237.33333 208"
   xmlns="http://www.w3.org/2000/svg"
   xmlns:svg="http://www.w3.org/2000/svg">
  <defs
     id="defs169" />
  <g
     id="g171">
    <path
       style="fill:#000000;stroke-width:1.33333"
       d="m 77.330884,199.99543 c -2.126773,-3.97391 -0.544625,-17.70095 2.915947,-25.29935 3.333586,-7.31957 13.225848,-18.59855 18.892121,-21.54045 2.306908,-1.19774 8.471638,-2.60134 13.699398,-3.1191 15.67039,-1.552 29.68345,4.08203 38.88234,15.63287 5.84073,7.33405 12.27931,21.0494 12.27931,26.15715 0,5.81472 -4.7614,8.74533 -12.31562,7.58017 -8.01324,-1.23596 -12.5214,-1.16263 -21.68438,0.35275 -4.4,0.72766 -17.69893,1.73545 -29.55317,2.23953 -21.261163,0.90408 -21.574342,0.87693 -23.115946,-2.00357 z M 126,190.07731 c 27.13398,-0.78802 28.9302,-1.5296 23.71485,-9.79088 -8.53123,-13.51374 -16.82598,-19.85959 -27.42739,-20.98311 -16.52691,-1.75152 -35.498069,13.32401 -35.60072,28.29029 -0.01745,2.54384 0.808897,2.98527 6.313259,3.37256 3.483333,0.24508 7.833331,0.27604 9.666671,0.0688 C 104.5,190.82772 115,190.39677 126,190.07732 Z M 26.623026,102.6397 C 23.381542,100.63635 25.99744,96.674752 31.770201,94.844657 41.326039,91.815244 42.081159,85.190344 33.383294,80.692503 31.470618,79.70342 29.052305,77.299584 28.009265,75.350647 26.394178,72.332829 25.492322,71.923532 21.930284,72.591775 16.676836,73.577328 11.418566,69.781459 9.5377968,63.645817 4.8552886,48.370051 7.1839335,38.745967 15.576816,38.687084 c 1.84723,-0.01296 3.244718,-1.116155 3.826158,-3.020417 3.960479,-12.970868 17.911199,-22.391888 30.27876,-20.447458 7.929652,1.2467 18.781117,8.751786 21.804698,15.080552 1.414434,2.960602 4.164038,5.965554 6.48463,7.086836 2.215916,1.070706 5.103438,4.144588 6.416715,6.830851 2.128498,4.353763 2.210082,5.84852 0.75132,13.765505 C 83.295128,67.990532 79.812518,72 72.963939,72 66.971423,72 54.373865,83.057657 54.927371,87.831812 c 0.301904,2.603995 1.260378,3.602857 3.739295,3.896865 5.388549,0.639099 10.412544,3.019246 11.310094,5.358224 1.076147,2.804394 -2.67813,5.579769 -7.547812,5.579769 -2.05042,0 -10.596343,0.20976 -18.990942,0.46613 -8.394597,0.25637 -15.961338,0.0345 -16.81498,-0.4931 z M 54.033082,75.979553 C 59.051553,72.877968 67.164918,58.337 65.972786,54.580927 65.37582,52.700053 64.265243,52.340981 60.78939,52.905035 c -5.280863,0.856966 -9.519769,-1.121999 -10.509412,-4.906396 -0.998815,-3.819474 4.408943,-7.260855 9.735596,-6.195524 4.625582,0.925117 5.172673,-0.971056 2.032314,-7.04384 C 58.588351,28.069267 52.481638,24 45.901541,24 c -4.914314,0 -6.793416,0.812695 -11.306424,4.889928 -5.464613,4.936948 -9.261784,11.829941 -9.261784,16.812888 0,2.566295 0.133067,2.590065 2.501296,0.446843 1.375712,-1.245003 4.532679,-2.59329 7.015481,-2.996194 5.879919,-0.954178 9.913837,2.95454 8.570969,8.304954 -0.872238,3.475278 -1.096436,3.547604 -8.824694,2.84683 -6.988059,-0.633654 -7.929719,-0.436724 -7.929719,1.658356 0,4.291624 3.711368,11.294592 8.229114,15.527488 8.402558,7.872767 12.214697,8.766866 19.137302,4.48846 z M 37.088161,65.994365 c -2.0435,-4.484992 -0.895986,-5.258342 7.619788,-5.135249 8.506733,0.12296 11.906222,2.168603 9.883788,5.947557 -1.074995,2.008646 -2.851948,2.52666 -8.667235,2.52666 -6.512072,0 -7.481996,-0.366502 -8.836341,-3.338968 z M 19.981793,59.587977 c -0.02708,-4.345161 -1.465364,-8.92131 -2.803968,-8.92131 -1.333248,0 -1.598777,8.018249 -0.371445,11.216625 1.091513,2.84444 3.197956,1.32182 3.175413,-2.295315 z m 57.351539,-0.254644 c 0,-1.1 -0.9,-2 -2,-2 -1.1,0 -2,0.9 -2,2 0,1.1 0.9,2 2,2 1.1,0 2,-0.9 2,-2 z m 66.999998,43.783627 c -2.22543,-0.89798 -2.10143,-3.503367 0.57009,-11.978381 1.72108,-5.459915 1.8987,-7.792358 0.77039,-10.11719 -0.80649,-1.661764 -1.83675,-4.720328 -2.28945,-6.796808 -0.4527,-2.07648 -2.89938,-6.793806 -5.43706,-10.482949 -2.53769,-3.689141 -4.61397,-7.831385 -4.61397,-9.204985 0,-1.3736 2.49913,-7.756274 5.55361,-14.183718 3.0545,-6.427444 6.5045,-13.745709 7.66667,-16.262812 3.44377,-7.458692 11.03959,-13.989571 18.31191,-15.7445703 5.49629,-1.326396 24.08048,-2.4252708 31.32113,-1.8520047 3.75021,0.2969169 18.25137,11.86413 20.6366,16.461307 3.86939,7.457696 11.32437,29.227943 13.52175,39.486608 2.95497,13.795578 1.81776,16.452567 -7.8631,18.371491 -9.65708,1.914209 -9.95676,2.138621 -13.33128,9.982916 -1.57197,3.654141 -3.95916,7.233152 -5.30488,7.953355 -1.3457,0.720204 -9.00052,1.684441 -17.01066,2.142751 l -14.56394,0.83329 -2.13557,-4.129752 C 168.96101,95.324147 168,91.596519 168,89.311891 c 0,-8.06058 -4.96666,-12.313082 -7.92496,-6.785434 -0.74367,1.389551 -1.75044,5.915528 -2.23728,10.057728 -1.13224,9.633625 -6.11039,13.516335 -13.50443,10.532775 z m 50.06996,-11.975636 c 2.18017,-0.583943 2.95307,-1.641393 2.66667,-3.64846 -0.32752,-2.295151 -1.47186,-2.903421 -6.0901,-3.237179 -6.87814,-0.497077 -8.4084,-2.546326 -11.54374,-15.458857 l -2.23466,-9.203173 6.30068,-5.544315 c 7.64443,-6.726748 7.12206,-9.412312 -1.57708,-8.107797 -4.37356,0.655854 -7.00649,0.22762 -10.94068,-1.779451 -7.47361,-3.812755 -20.53913,-5.108449 -22.89448,-2.270424 -2.49233,3.003087 -1.51322,3.481845 4.39544,2.149228 4.23619,-0.955417 5.51343,-0.708791 7.7112,1.488989 3.88778,3.887767 2.59294,6.790938 -3.86238,8.659927 -4.77802,1.383365 -5.96132,1.325881 -7.65928,-0.372076 -1.10452,-1.104516 -2.03224,-3.315355 -2.0616,-4.912975 -0.0479,-2.604154 -0.26874,-2.507196 -2.13428,0.936916 -2.50414,4.623039 -1.46646,7.543984 5.85354,16.477075 4.7945,5.851049 5.04411,5.968603 11.14054,5.246572 7.72049,-0.914379 9.65024,0.469033 12.4523,8.926904 3.64919,11.014817 4.12834,11.509819 11.12152,11.489565 3.45754,-0.01 7.66791,-0.388224 9.35639,-0.840469 z M 206.8629,73.206332 c 2.67459,-0.679405 5.20576,-2.128769 5.62482,-3.220808 C 212.96688,68.736873 215.0274,68 218.03985,68 h 4.79021 l -0.91104,-6.333333 c -0.95813,-6.660739 -8.11654,-26.347936 -12.0194,-33.056004 -4.22484,-7.261448 -9.52641,-10.39766 -19.77901,-11.700494 -17.50332,-2.224213 -25.42379,-0.2421 -30.59993,7.657703 -2.65718,4.055343 -1.0023,5.634987 7.21213,6.884292 3.26363,0.496353 6.83385,1.668517 7.93385,2.604809 3.05783,2.60275 5.49312,2.758083 11.60571,0.740266 4.98301,-1.644936 5.98273,-1.603444 9,0.37354 6.07515,3.980594 4.2164,14.195722 -4.266,23.444602 -4.30684,4.696011 -5.02439,7.361143 -3.50648,13.023944 0.69725,2.601218 1.65295,2.962014 7.64847,2.887475 3.7684,-0.04685 9.03994,-0.641061 11.71454,-1.320468 z"
       id="path789" />
  </g>
</svg>
