<?xml version="1.0" encoding="UTF-8" standalone="no"?>
<!-- Created with Inkscape (http://www.inkscape.org/) -->

<svg
   version="1.1"
   id="svg75"
   width="214.66667"
   height="80"
   viewBox="0 0 214.66667 80"
   xmlns="http://www.w3.org/2000/svg"
   xmlns:svg="http://www.w3.org/2000/svg">
  <defs
     id="defs79" />
  <g
     id="g81">
    <path
       style="fill:#000000;stroke-width:1.33333"
       d="M 75.333335,73.255241 C 70.933334,72.845624 55.217369,72.729659 40.408967,72.997541 6.5998046,73.609144 8.7088715,74.969807 7.6652539,51.87296 7.2542205,42.776165 7.095255,32.323679 7.3119974,28.645211 7.7407825,21.368037 10.535411,10.666667 12.007037,10.666667 c 0.505049,0 2.360077,-1.2596622 4.122283,-2.7992489 2.68832,-2.3487029 4.303636,-2.6719113 10.035991,-2.0081002 12.296646,1.4239609 16.494646,5.1791021 24.478339,21.8960491 3.735864,7.822476 4.958024,9.220504 9.224688,10.552124 6.780895,2.116306 14.633747,0.177258 18.520385,-4.573106 C 80.069185,31.680473 83.490427,25.8 85.991481,20.666667 91.514436,9.3309832 98.439884,4 107.64305,4 c 12.00606,0 17.99792,5.0613143 25.36115,21.422537 4.30399,9.563542 9.23319,13.24413 17.7371,13.24413 5.60262,0 12.6103,-7.162008 18.65962,-19.070579 5.21248,-10.2611587 9.4193,-13.2048619 18.76748,-13.1324507 14.85795,0.1150894 19.42046,6.8046817 20.68536,30.3290747 1.16222,21.6148 -0.14725,33.367627 -3.96101,35.551107 C 202.70735,73.595023 187.49152,74 142.66667,74 110.03334,74 79.733335,73.664859 75.333335,73.255241 Z M 58.316789,64.051113 c 14.492433,0.05149 33.849879,0.170155 43.016541,0.263703 9.16667,0.09355 18.76667,0.0069 21.33334,-0.192545 2.56667,-0.199448 19.72087,-0.02236 38.12044,0.393541 25.34552,0.572897 33.98264,0.359655 35.63581,-0.87982 1.78843,-1.340875 2.24764,-4.76276 2.54568,-18.969325 0.32166,-15.332562 0.0559,-17.855755 -2.30248,-21.859236 -4.03182,-6.844279 -6.0815,-7.635378 -12.11857,-4.677302 -2.84721,1.395096 -5.89881,4.036538 -6.78135,5.869871 -0.88252,1.833333 -3.45534,7.375368 -5.71737,12.315631 -4.4336,9.682942 -7.19669,11.919022 -17.61263,14.253282 -4.18644,0.938202 -7.71106,0.829786 -12.46946,-0.383557 -6.36743,-1.623627 -6.96514,-2.195859 -14.90709,-14.271735 -13.18335,-20.045532 -11.9645,-18.781505 -17.16872,-17.805189 -2.9947,0.561808 -5.32898,0.24456 -6.72493,-0.913972 -1.83029,-1.519008 -2.55704,-1.28742 -5.048134,1.608653 -1.600521,1.860716 -3.755079,6.941218 -4.787907,11.290004 -2.088375,8.793226 -2.661791,9.611563 -9.329958,13.315035 -2.566666,1.425516 -6.058488,3.611097 -7.759604,4.856845 -2.453064,1.796411 -3.832276,1.97675 -6.666667,0.871696 -1.96555,-0.766316 -5.821424,-1.623518 -8.568606,-1.904896 -3.550072,-0.363612 -6.142084,-1.772786 -8.960917,-4.871696 -2.18132,-2.398056 -3.983625,-5.110101 -4.005122,-6.026768 -0.0215,-0.916666 -0.580742,-1.666666 -1.242767,-1.666666 -0.662027,0 -3.418109,-3.336174 -6.124629,-7.413719 -2.70652,-4.077545 -6.391326,-7.972755 -8.188455,-8.656023 -7.537876,-2.865894 -9.406706,-2.821948 -12.996419,0.305626 -3.459185,3.01385 -3.569645,3.578666 -4.092677,20.927093 -0.295648,9.806304 -0.0104,19.216039 0.633808,20.910523 1.20738,3.175652 6.716804,4.755452 12.955509,3.714929 1.6409,-0.273679 14.8409,-0.455469 29.333334,-0.403983 z"
       id="path947" />
  </g>
</svg>
