<?xml version="1.0" encoding="UTF-8" standalone="no"?>
<!-- Created with Inkscape (http://www.inkscape.org/) -->

<svg
   version="1.1"
   id="svg763"
   width="222.66667"
   height="293.33334"
   viewBox="0 0 222.66667 293.33334"
   xmlns="http://www.w3.org/2000/svg"
   xmlns:svg="http://www.w3.org/2000/svg">
  <defs
     id="defs767" />
  <g
     id="g769">
    <path
       style="fill:#000000;stroke-width:1.33333"
       d="m 39.147147,285.65584 c -2.96389,-2.4348 -3.03012,-2.80077 -1.13406,-6.26657 3.13858,-5.73699 8.89515,-8.36283 18.69176,-8.52617 14.90634,-0.24855 21.98676,-2.20582 26.47613,-7.31892 4.36258,-4.96871 9.48512,-15.50684 9.48512,-19.51287 0,-4.39544 -19.24953,-28.11704 -27.90412,-34.38686 -4.38363,-3.1757 -13.35711,-11.65962 -19.94108,-18.85314 -10.34406,-11.30175 -12.09432,-13.90262 -12.87954,-19.13883 -1.36394,-9.09536 0.27399,-14.82203 6.83002,-23.87975 3.26347,-4.50874 7.55194,-10.59773 9.52994,-13.53106 1.978,-2.93334 5.31223,-7.57393 7.40938,-10.31242 2.25808,-2.94863 3.63815,-6.21101 3.38421,-8 -0.37468,-2.6396 -1.43862,-3.12888 -8.42881,-3.87621 -14.62219,-1.56327 -27.27322,-1.24427 -31.20075,0.78673 -3.29095,1.70182 -4.084714,1.68649 -6.676579,-0.12892 -7.0185288,-4.91597 1.934654,-15.061745 13.337349,-15.113924 5.12245,-0.02344 7.48607,-1.924048 10.9807,-8.829709 4.40013,-8.694998 25.793,-13.197011 34.21463,-7.200283 2.05352,1.462234 5.06539,5.212235 6.69304,8.333333 2.4164,4.633556 2.81799,7.029544 2.18879,13.058943 -0.86207,8.26096 -4.96217,18.58502 -9.77591,24.61579 -14.79504,18.53559 -19.26883,24.95613 -18.60131,26.69564 0.58479,1.52393 3.41219,1.98751 12.46486,2.04371 29.78568,0.1849 60.371523,9.77173 83.467333,26.16201 8.29475,5.88649 25.59241,14.53269 31.57452,15.78245 5.31836,1.11111 14.07625,5.28219 15.32156,7.29714 0.45969,0.74381 3.13393,1.35238 5.94275,1.35238 7.07078,0 11.24449,3.65346 11.63549,10.18515 0.16951,2.83151 0.68748,6.98232 1.15107,9.22403 1.17604,5.68687 -1.75392,7.77399 -10.45878,7.4502 -10.04484,-0.37363 -27.27932,2.10765 -32.09992,4.62148 -2.28736,1.19281 -5.95884,2.57015 -8.15884,3.06076 -3.92357,0.87496 -4.00773,1.0694 -4.40468,10.1752 -0.22257,5.10575 0.22671,11.79603 0.9984,14.86727 1.72348,6.85921 0.2468,11.36689 -4.8089,14.67952 -4.6882,3.07182 -24.11547,3.44836 -27.62534,0.53541 -1.81707,-1.50803 -2.83659,-1.55392 -5.29479,-0.23832 -4.52711,2.42283 -13.39682,1.36509 -13.97168,-1.66616 -0.71084,-3.74835 2.41038,-10.03867 5.46168,-11.00711 1.50401,-0.47736 7.28948,-0.99605 12.85661,-1.15265 5.56712,-0.1566 11.77204,-0.97113 13.7887,-1.81008 3.21375,-1.33693 3.66667,-2.25041 3.66667,-7.39509 0,-7.38259 -9.6e-4,-7.38343 -20.64682,-18.06686 -11.00163,-5.69292 -12.32079,-5.50105 -12.4676,1.81338 -0.0879,4.37896 -1.18498,7.41392 -4.1691,11.53337 -2.2274,3.07484 -4.04982,6.06152 -4.04982,6.63709 0,0.57556 -0.69972,2.73555 -1.55494,4.79995 -0.855213,2.06441 -1.605213,6.65184 -1.666663,10.19428 -0.12555,7.23759 -3.38125,11.03808 -8.11173,9.46907 -3.82378,-1.26828 -6.88183,-1.0293 -16.66667,1.30253 -4.76666,1.13593 -13.85019,2.07785 -20.18562,2.09313 -9.45486,0.0228 -12.08299,-0.43557 -14.66666,-2.55804 z M 141.99944,236.33691 c 0,-3.7844 4.47098,-5.42857 14.7619,-5.42857 6.02186,0 10.57143,-0.5629 10.57143,-1.30794 0,-1.89838 -4.25887,-2.58945 -20,-3.24533 -22.09949,-0.92081 -27.68905,-2.47973 -51.333333,-14.31671 -17.33489,-8.67833 -23.33334,-13.29269 -23.33334,-17.94937 0,-4.39402 6.00636,-8.51399 12.41223,-8.51399 h 5.38594 l -2.89908,-3.08593 c -5.40059,-5.74867 -3.03932,-8.07063 5.78765,-5.69131 10.242513,2.76089 15.801163,9.54955 12.646243,15.44456 -1.49015,2.78437 -2.28607,2.95613 -10.856873,2.34289 -6.38355,-0.45673 -9.09766,-0.2082 -8.76084,0.80226 0.64763,1.94288 11.69165,8.61626 14.479683,8.7494 1.20722,0.0576 6.60722,2.19568 12,4.75121 5.39278,2.55552 12.80505,5.19752 16.47172,5.87109 9.45203,1.73638 30.86915,1.82474 34.01645,0.14035 3.86191,-2.06683 3.33122,-6.41531 -1.01645,-8.32879 -2.01667,-0.88757 -6.57055,-3.8747 -10.11973,-6.63808 -3.54919,-2.76337 -7.18694,-5.02432 -8.08388,-5.02432 -0.89695,0 -3.34816,-1.79253 -5.44715,-3.9834 -2.18944,-2.28528 -5.84827,-4.34948 -8.58279,-4.84216 -6.31878,-1.13845 -9.26289,-2.76753 -12.97562,-7.17986 -6.48527,-7.70731 -40.758973,-14.52167 -60.378963,-12.00466 -4.75859,0.61048 -7.56561,0.35086 -9.13985,-0.84536 -3.90548,-2.96761 -5.60536,-2.11552 -5.60536,2.80979 0,3.83349 1.6209,6.45745 9.51113,15.39693 5.23111,5.92676 11.68111,11.90938 14.33333,13.29471 2.65222,1.38533 9.94481,6.60815 16.20576,11.60624 6.26096,4.99809 14.06096,10.21104 17.33334,11.58432 3.272383,1.37329 10.795503,4.82187 16.718053,7.66351 5.92254,2.84164 11.65254,5.16661 12.73333,5.16661 1.08079,0 2.53507,0.54176 3.23173,1.20392 2.37656,2.25883 9.93334,3.44407 9.93334,1.55799 z M 69.730817,98.839521 c 0.2992,-3.559495 -0.42999,-5.628944 -2.93634,-8.333334 -3.24893,-3.505652 -10.12838,-5.043777 -10.12838,-2.264528 0,0.733334 0.57889,1.333334 1.28642,1.333334 0.70753,0 1.96878,1.275 2.80278,2.833333 1.15959,2.166712 1.1067,3.598783 -0.2248,6.086715 -1.46386,2.735229 -1.43244,3.453849 0.19722,4.512059 1.06611,0.69229 3.43838,1.10327 5.27171,0.9133 2.77578,-0.28763 3.39992,-1.1375 3.73139,-5.080879 z m -21.35134,-1.07238 c -0.0596,-2.094319 0.31599,-4.494319 0.83453,-5.333334 1.39343,-2.254614 -0.64443,-1.851432 -3.44292,0.68117 -3.87673,3.508388 -2.94796,7.805363 1.80583,8.354753 0.50096,0.0579 0.86211,-1.60827 0.80256,-3.702589 z m 49.25289,-58.525483 -3.00782,-6.333333 -29.97922,0.02939 c -16.48858,0.01617 -34.56257,0.294957 -40.16443,0.619535 -11.125833,0.644644 -14.4814658,-0.717599 -14.4814658,-5.878855 0,-5.8856 1.3472928,-6.102788 37.9333358,-6.114996 44.58154,-0.01488 47.45447,-0.348156 50.06667,-5.808074 2.675293,-5.591814 6.702403,-5.538251 9.333333,0.12414 2.58357,5.560472 4.83998,5.487224 7.5739,-0.245863 1.20859,-2.534429 2.98152,-4.908935 3.93985,-5.27668 2.28423,-0.876545 5.81958,2.727737 5.81958,5.933059 0,5.243552 4.0098,5.706626 40.73044,4.703764 31.0956,-0.849238 35.11139,-0.719792 37.02464,1.193467 1.73171,1.731701 1.85683,2.780732 0.64812,5.433566 -0.82385,1.808149 -1.8516,3.329144 -2.28389,3.379989 -0.43228,0.05084 -14.28597,0.406712 -30.78597,0.790816 -16.5,0.384104 -32.69415,0.792504 -35.98699,0.907555 -5.47299,0.191225 -6.17907,0.616666 -8.22437,4.955496 -4.35,9.227912 -9.42907,10.253192 -11.48517,2.318439 -1.40815,-5.434259 -5.63681,-6.877931 -5.63681,-1.924422 0,3.678947 -3.12245,7.526338 -6.10819,7.526338 -1.05474,0 -3.271233,-2.85 -4.925543,-6.333334 z"
       id="path871" />
  </g>
</svg>
