<?xml version="1.0" encoding="UTF-8" standalone="no"?>
<!-- Created with Inkscape (http://www.inkscape.org/) -->

<svg
   version="1.1"
   id="svg75"
   width="112"
   height="224"
   viewBox="0 0 112 224"
   xmlns="http://www.w3.org/2000/svg"
   xmlns:svg="http://www.w3.org/2000/svg">
  <defs
     id="defs79" />
  <g
     id="g81">
    <path
       style="fill:#000000;stroke-width:1.33333"
       d="m 61.333333,213.22373 c -4.033333,-0.42696 -8.338536,-1.22396 -9.567116,-1.77112 -3.163445,-1.40888 -3.772616,-8.0228 -2.699797,-29.31233 1.012379,-20.09009 1.832107,-22.04177 8.549645,-20.35579 4.101371,1.02939 5.005624,5.24075 5.056344,23.54884 0.01931,6.96667 0.488115,13.37914 1.041811,14.24992 1.994824,3.13723 8.81502,4.61708 16.949417,3.6777 14.915048,-1.72244 14.00303,-0.18355 14.00303,-23.62795 0,-14.11456 -0.494764,-20.92776 -1.6,-22.033 -2.908542,-2.90855 -71.561482,-0.88695 -74.587491,2.19633 -0.469787,0.47868 -1.245809,12.251 -1.724496,26.16072 -0.600764,17.45704 -1.368653,25.6071 -2.479176,26.31292 -2.584947,1.64292 -4.7722739,1.23326 -7.3894883,-1.38396 -2.2269654,-2.22696 -2.4517748,-5.1662 -2.4968217,-32.64436 -0.041375,-25.23825 0.2784499,-30.46922 1.9476021,-31.8545 1.4257103,-1.18323 9.4836229,-1.70556 28.1634879,-1.82563 14.391511,-0.0925 36.038772,-0.30544 48.105025,-0.47321 19.672891,-0.27355 22.117111,-0.0609 23.666671,2.05816 1.27336,1.74142 1.72416,9.04934 1.71335,27.77504 -0.0172,29.74818 -0.64393,34.90825 -4.55093,37.46821 -3.14552,2.06103 -29.224404,3.19707 -42.101067,1.83401 z M 25.510383,73.840605 C 21.726957,71.190592 21.906601,69.897852 26.853411,64.17602 43.498843,44.922729 49.222596,38.672629 64.444493,23.128128 74.120987,13.246556 82.977485,5.3299061 84.730597,4.9947775 c 3.859246,-0.7377415 5.994034,3.6389042 6.031556,12.3656265 0.01412,3.285111 0.14356,16.00636 0.287634,28.269441 0.225149,19.164082 -0.04684,22.60531 -1.936052,24.494516 -2.851122,2.85112 -37.578328,5.589815 -40.468187,3.191446 -1.184021,-0.982651 -2.643489,-1.072038 -4.226985,-0.258888 -4.75283,2.440649 -15.883868,2.901997 -18.90818,0.783686 z m 24.73615,-7.360906 C 52.31094,65.643532 60,64.593532 67.333333,64.146365 l 13.333334,-0.813032 0.257778,-19 c 0.209971,-15.476166 -0.08675,-19 -1.59985,-19 -1.021698,0 -6.170806,5.121971 -11.442464,11.382159 -5.271658,6.260187 -13.497012,14.879155 -18.278566,19.153263 -6.185092,5.528693 -8.452336,8.40018 -7.857162,9.951174 0.984729,2.566164 3.341756,2.749114 8.50013,0.65977 z"
       id="path928" />
  </g>
</svg>
