<?xml version="1.0" encoding="UTF-8" standalone="no"?>
<!-- Created with Inkscape (http://www.inkscape.org/) -->

<svg
   version="1.1"
   id="svg39"
   width="98.666664"
   height="197.33333"
   viewBox="0 0 98.666664 197.33333"
   xmlns="http://www.w3.org/2000/svg"
   xmlns:svg="http://www.w3.org/2000/svg">
  <defs
     id="defs43" />
  <g
     id="g45">
    <path
       style="fill:#000000;stroke-width:1.33333"
       d="m 67.529516,192.4184 c -0.588138,-0.58814 -13.562027,-0.86203 -28.830865,-0.60864 -26.746928,0.44386 -27.863925,0.35829 -30.5634214,-2.3412 -1.704116,-1.70411 -2.8018964,-4.50955 -2.8018964,-7.1604 0,-5.66567 8.8005068,-23.11223 15.4944358,-30.71694 4.885512,-5.55022 6.013676,-6.11794 16.344722,-8.22509 13.924702,-2.84009 25.00313,-1.82327 33.494174,3.07427 3.3,1.90341 6.201706,3.9381 6.448237,4.52154 0.246532,0.58346 2.565947,3.59555 5.154257,6.69355 8.895837,10.64763 13.995444,27.66351 9.397505,31.35671 -0.916666,0.73629 -5.266666,1.65482 -9.666666,2.04117 -4.4,0.38636 -9.215257,1.09216 -10.700572,1.56843 -1.485313,0.47626 -3.181775,0.38474 -3.76991,-0.2034 z m 3.470482,-12.23147 c 2.339624,-0.92793 3.666667,-2.44648 3.666667,-4.19577 0,-1.50784 0.9,-3.08688 2,-3.50899 2.918297,-1.11987 2.53172,-2.42399 -2.807351,-9.47064 -7.238256,-9.55324 -12.617986,-12.33236 -23.859315,-12.32552 -7.851035,0.005 -10.392119,0.61641 -16,3.85123 -3.666666,2.11505 -8.021974,5.30374 -9.678462,7.08597 -3.087955,3.32237 -7.607967,17.62863 -6.259208,19.81097 1.038133,1.67974 48.369499,0.56458 52.937669,-1.24725 z M 38.295344,92.755486 C 24.178119,88.696443 12,76.294509 12,65.976876 12,64.072396 11.32818,59.846147 10.507066,56.58521 8.4924874,48.584591 10.035368,45.273331 21.424995,33.153641 26.500811,27.752472 30.656657,23.046142 30.660209,22.69513 30.663809,22.34412 27.258505,19.0087 23.092973,15.283088 10.758798,4.2515147 11.343544,3.9947997 48.285496,4.2230707 65.361805,4.3285883 80.083331,4.685757 80.999998,5.0167788 c 3.040046,1.0978056 1.823826,6.3151962 -2,8.5796852 -2.016667,1.19428 -5.166667,3.793893 -7,5.776918 -3.210335,3.47246 -3.239641,3.661242 -0.794227,5.11606 C 82.042212,30.936223 88.023546,40.400257 88.989184,52.62745 90.768778,75.161181 75.45133,93.066764 53.466101,94.152741 48.594112,94.393396 41.822958,93.76976 38.295344,92.755486 Z m 21.839024,-7.598857 c 6.108953,-2.035334 14.133426,-9.835417 17.650185,-17.15663 5.847141,-12.172619 2.031024,-27.775296 -8.527715,-34.866628 -3.111966,-2.090021 -6.786664,-3.800038 -8.165993,-3.800038 -4.5818,0 -4.232167,-3.81808 0.866427,-9.461613 2.704182,-2.993208 4.651184,-5.707707 4.326669,-6.032223 -1.138613,-1.138612 -21.075494,-2.112844 -25.655301,-1.253667 -5.67837,1.065268 -5.836026,3.091844 -0.628641,8.080836 2.2,2.107734 4,4.582542 4,5.499572 0,0.917031 -2.92916,3.261578 -6.509244,5.210104 -7.886244,4.292232 -11.25907,8.613123 -14.044296,17.991989 -3.369365,11.345884 -2.814586,15.91236 2.897799,23.852301 7.728782,10.742636 22.117047,15.825138 33.79011,11.935997 z"
       id="path147" />
  </g>
</svg>
