<?xml version="1.0" encoding="UTF-8" standalone="no"?>
<!-- Created with Inkscape (http://www.inkscape.org/) -->

<svg
   version="1.1"
   id="svg223"
   width="214.66667"
   height="200"
   viewBox="0 0 214.66667 200"
   xmlns="http://www.w3.org/2000/svg"
   xmlns:svg="http://www.w3.org/2000/svg">
  <defs
     id="defs227" />
  <g
     id="g229">
    <path
       style="fill:#000000;stroke-width:1.33333"
       d="m 194.04694,192.05187 c -2.07198,-2.28951 -2.42075,-6.03376 -2.80351,-30.0968 -0.24044,-15.1151 0.0877,-28.8624 0.72913,-30.54958 1.54615,-4.06665 7.35894,-5.48354 11.46335,-2.79422 l 3.15353,2.06627 -0.15329,28.69154 c -0.0843,15.78035 0.21195,29.05679 0.65836,29.50321 0.44641,0.44642 0.21167,1.93278 -0.52167,3.30302 -1.82394,3.40808 -9.39746,3.33344 -12.5259,-0.12347 z M 16.08875,184.2196 c -5.10861,-0.76593 -6.066788,-1.4294 -7.0567308,-4.88627 -1.4490135,-5.05994 -0.2486408,-15.15346 2.1290608,-17.90256 0.997753,-1.15358 2.194071,-3.69946 2.658484,-5.65748 0.464414,-1.95802 3.578655,-6.29432 6.920535,-9.6362 4.628303,-4.6283 8.156915,-6.71882 14.808471,-8.77328 9.784127,-3.02201 18.485626,-3.44756 24.05536,-1.17644 10.285786,4.19415 12.799014,5.64211 16.763873,9.65826 5.570076,5.64212 15.578565,23.4574 16.553566,29.46562 0.716235,4.41364 0.472079,4.79971 -4.295192,6.7916 -3.841074,1.6049 -8.924518,2.03728 -21.173719,1.80096 -8.865518,-0.17102 -22.719124,0.0295 -30.785791,0.44555 C 28.6,184.76543 19.339938,184.70704 16.08875,184.21963 Z m 65.360989,-10.46933 c 4.258938,-4.25895 -11.508883,-27.0836 -18.709999,-27.0836 -1.703362,0 -5.417598,-0.69527 -8.253859,-1.54503 -8.717631,-2.61187 -18.389771,0.36341 -25.887098,7.9632 -3.390336,3.43667 -7.312019,8.76557 -8.714848,11.84201 -5.126143,11.24172 -4.953544,11.30246 30.468742,10.72142 18.449563,-0.30264 30.220107,-1.02106 31.097062,-1.898 z M 70.3295,57.307012 c -5.685442,-0.542667 -11.985442,-1.58916 -14,-2.325539 -2.014558,-0.736378 -6.362833,-2.045701 -9.662833,-2.909608 -3.3,-0.863905 -8.554161,-2.406304 -11.675914,-3.427552 C 31.155504,47.389652 25.821583,47.00624 18.54296,47.462016 6.854384,48.193936 4.0000001,47.130408 4.0000001,42.043391 c 0,-4.091835 3.6336887,-6.917084 10.3022789,-8.010183 3.099587,-0.508076 7.599587,-2.349313 10,-4.091637 2.400413,-1.742324 6.570761,-4.381886 9.267442,-5.86569 2.696678,-1.483805 5.271194,-3.857741 5.721146,-5.275413 0.849458,-2.676404 1.573706,-3.013107 21.375801,-9.9375891 C 70.928432,5.2745005 74.308334,4.7044708 84.000001,4.9276496 98.029352,5.2507161 111.60008,7.0189804 121.73172,9.8440868 125.98417,11.029839 130.52351,12 131.81915,12 c 1.29565,0 8.91637,2.168588 16.93495,4.819083 8.01858,2.650496 16.67924,5.292548 19.2459,5.871228 2.56667,0.578678 7.96667,1.93692 12,3.018314 4.03334,1.081394 11.5073,2.368752 16.6088,2.860795 10.23532,0.987203 12.72454,2.300451 12.72454,6.713153 0,4.79982 -5.41687,6.348724 -18.59703,5.31766 -10.38564,-0.812454 -12.19112,-0.582921 -19.45139,2.472883 C 138.73106,56.774845 108.86733,60.985389 70.3295,57.307012 Z M 88.000001,47.333333 C 86.166668,46.285305 83.766668,45.386605 82.666668,45.336221 80.254296,45.225727 76.364825,42.023848 72.32185,36.820188 70.002957,33.835573 69.333334,31.221476 69.333334,25.153521 c 0,-6.956942 -0.297289,-7.820188 -2.69316,-7.820188 -7.884813,0 -31.981369,14.034039 -31.967152,18.61794 0.0044,1.417392 3.805028,3.227783 12.333333,5.874852 22.220201,6.896847 24.222689,7.32678 34.32698,7.36997 9.324512,0.03985 9.774837,-0.08597 6.666666,-1.862762 z m 31.333339,-0.468789 c 13.51263,-1.561232 17.60241,-2.43172 30.29288,-6.44768 10.84049,-3.430528 18.84004,-8.285727 13.79474,-8.372505 -1.41846,-0.0244 -5.01846,-1.18022 -8,-2.568495 -6.94342,-3.233035 -22.23554,-7.677479 -30.56837,-8.884284 -7.13576,-1.033437 -8.79019,0.10366 -8.839,6.075087 -0.0573,7.007574 -8.9797,17.519758 -16.464748,19.398386 -1.96572,0.493364 -3.940689,1.49028 -4.388818,2.21537 -0.82178,1.329668 1.677099,1.183304 24.173316,-1.415879 z M 100.20053,34.559345 c 3.82402,-2.046549 6.57053,-9.303836 5.31027,-14.031629 -1.02439,-3.842892 -1.08372,-3.862861 -12.616537,-4.246485 -11.489691,-0.38219 -11.598771,-0.355298 -12.947472,3.192056 -1.7299,4.549984 0.472838,11.735518 4.451924,14.522578 3.332917,2.334467 11.920512,2.640692 15.801815,0.56348 z"
       id="path251" />
  </g>
</svg>
