<?xml version="1.0" encoding="UTF-8" standalone="no"?>
<!-- Created with Inkscape (http://www.inkscape.org/) -->

<svg
   version="1.1"
   id="svg213"
   width="213.33333"
   height="241.33333"
   viewBox="0 0 213.33333 241.33333"
   xmlns="http://www.w3.org/2000/svg"
   xmlns:svg="http://www.w3.org/2000/svg">
  <defs
     id="defs217" />
  <g
     id="g219">
    <path
       style="fill:#000000;stroke-width:1.33333"
       d="m 73.633279,237 c -0.747948,-0.91667 -1.571415,-6.85411 -1.829925,-13.1943 -0.640395,-15.70618 -3.569406,-18.86852 -19.670391,-21.23738 -3.960204,-0.58264 -7.726888,-1.84887 -8.370408,-2.81384 C 43.119034,198.78952 42.903993,192.6 43.284686,186 c 0.380695,-6.6 1.046551,-18.58686 1.479681,-26.63747 0.433131,-8.0506 1.001082,-14.98303 1.262114,-15.40539 0.261032,-0.42236 1.44036,-12.13549 2.620726,-26.02919 1.180368,-13.89371 2.457614,-26.30989 2.838324,-27.591519 1.103476,-3.714752 6.520837,-4.295855 11.473275,-1.230702 6.99084,4.326758 11.233568,9.761471 12.856295,16.468251 2.04342,8.4455 3.79842,36.00999 5.542786,87.05646 1.367118,40.00686 1.31345,42.73525 -0.872064,44.33333 -2.941107,2.1506 -5.11795,2.16211 -6.852544,0.0363 z m -3.835565,-50 c 1.401561,-14.84016 0.979446,-64.93318 -0.611476,-72.56495 -1.954914,-9.37786 -3.815892,-13.10172 -6.547518,-13.10172 -2.287337,0 -3.186289,6.29103 -4.763138,33.33333 -0.277947,4.76667 -1.113659,14.5402 -1.857138,21.71896 -0.743478,7.17876 -1.351778,17.72604 -1.351778,23.43842 v 10.38613 l 5.666666,2.72908 c 3.116667,1.501 6.329904,2.80372 7.140527,2.89492 0.874707,0.0984 1.8194,-3.49285 2.323855,-8.83417 z m 97.130966,49.19014 c -1.2061,-0.76498 -1.64636,-3.92105 -1.4386,-10.3129 0.48449,-14.9063 -1.19047,-22.42026 -5.99823,-26.90836 -2.28719,-2.13512 -6.25852,-4.6754 -8.82519,-5.64506 -9.42566,-3.5609 -9.21424,-2.80616 -8.52894,-30.4456 0.33925,-13.68302 1.16918,-28.77822 1.84429,-33.54489 0.67509,-4.76667 1.60919,-13.91666 2.07575,-20.33333 0.53368,-7.33986 1.42201,-11.719065 2.39526,-11.807952 5.87916,-0.536936 10.01598,0.810856 13.89476,4.526972 6.1393,5.88182 9.28142,13.29032 10.86364,25.61431 1.89936,14.79421 1.83314,105.93809 -0.0787,108.24165 -1.66574,2.00708 -3.69271,2.20807 -6.20411,0.61516 z m -2.48986,-48.74386 c 0.90966,-2.37051 -0.1068,-62.40569 -1.16738,-68.94928 -0.75458,-4.65562 -7.67639,-13.20317 -9.34262,-11.53693 -0.42112,0.42111 -1.33237,12.37737 -2.025,26.56946 -0.69262,14.19209 -1.4956,30.003 -1.78437,35.13536 -0.60767,10.79993 0.16435,12.73944 6.89003,17.30967 5.72001,3.88684 6.44729,4.03092 7.42934,1.47172 z M 15.581422,62.644575 C 13.517872,62.025156 10.92831,60.770428 9.8268405,59.85629 6.4287627,57.036135 3.7394889,50.552806 4.5794982,47.205942 5.4311859,43.812549 13.888293,38.666666 18.613549,38.666666 c 4.229385,0 3.199831,-2.237324 -1.458259,-3.168941 C 12.287856,34.524237 3.9999999,26.339124 3.9999999,22.505517 c 0,-3.770089 3.483582,-9.992593 6.9557261,-12.424578 1.772261,-1.2413395 5.78278,-2.0809391 9.940034,-2.0809391 6.070534,0 7.46607,0.5317818 10.823745,4.1244861 3.783376,4.048204 4.0004,4.102552 11.734248,2.93855 4.333769,-0.652264 9.965377,-0.75629 12.514685,-0.231166 6.125268,1.261723 28.676389,1.632567 42.03156,0.691192 5.866672,-0.413526 11.866662,-0.704776 13.333332,-0.647218 3.84417,0.150857 6.15143,0.13184 39.33333,-0.324223 16.5,-0.22678 31.27999,0.02455 32.84443,0.558497 2.32656,0.794075 3.35868,0.09921 5.66909,-3.816655 2.54596,-4.3150728 3.31783,-4.7466604 7.82226,-4.373805 4.33829,0.3591036 5.05321,0.8973778 5.41945,4.080342 0.24115,2.095747 -0.22701,3.666666 -1.09273,3.666666 -2.66099,0 -0.77671,5.949883 2.31372,7.30593 3.1698,1.390872 5.69045,6.915528 5.69045,12.472069 0,5.224764 -4.98903,14.303749 -8.81904,16.048821 -5.98145,2.725331 -23.3852,4.499388 -36.19651,3.689704 -6.79189,-0.429251 -16.90925,-0.202259 -22.48304,0.504428 -5.57378,0.706687 -30.30062,1.598173 -54.948537,1.981081 -44.51713,0.691579 -44.856477,0.718202 -51.15909,4.013748 -6.497184,3.397284 -13.192223,4.049361 -20.145691,1.962128 z M 26,51.999999 c 0.482065,-0.779998 -0.901274,-1.333333 -3.333334,-1.333333 -2.43206,0 -3.815398,0.553335 -3.333333,1.333333 0.453225,0.733334 1.953225,1.333334 3.333333,1.333334 1.380108,0 2.880108,-0.6 3.333334,-1.333334 z m 167.19221,-9.873317 c 4.35635,-3.940849 3.80685,-10.891644 -1.09679,-13.873726 -3.39564,-2.065012 -6.9149,-2.34156 -27,-2.12169 -12.70248,0.139054 -32.39542,0.72169 -43.76209,1.294746 -11.36667,0.573056 -34.166665,1.098138 -50.666664,1.16685 -28.339283,0.118015 -30.310751,0.289587 -35.613549,3.099367 -3.087452,1.63594 -6.537452,2.974437 -7.666667,2.974437 -1.129214,0 -2.053117,0.6 -2.053117,1.333334 0,0.733333 0.516272,1.333333 1.147271,1.333333 0.630998,0 3.30493,1.464228 5.94207,3.253838 2.761189,1.873795 7.222763,3.428931 10.519396,3.666667 3.148528,0.227056 37.611094,0.412828 76.58348,0.412828 67.80934,0 70.97973,-0.10932 73.66666,-2.539984 z"
       id="path390" />
  </g>
</svg>
