<?xml version="1.0" encoding="UTF-8" standalone="no"?>
<!-- Created with Inkscape (http://www.inkscape.org/) -->

<svg
   version="1.1"
   id="svg203"
   width="114.66667"
   height="218.66667"
   viewBox="0 0 114.66667 218.66667"
   xmlns="http://www.w3.org/2000/svg"
   xmlns:svg="http://www.w3.org/2000/svg">
  <defs
     id="defs207" />
  <g
     id="g209">
    <path
       style="fill:#000000;stroke-width:1.33333"
       d="m 9.9055171,211.8956 c -4.3706241,-4.82949 -1.5172615,-7.17676 8.7611499,-7.20721 l 7.333334,-0.0217 0.341626,-12.16319 c 0.39579,-14.09155 -0.588805,-15.86909 -7.665726,-13.83947 -6.071141,1.74119 -10.5267436,0.39452 -11.4979699,-3.47516 -1.43588,-5.721 0.1395284,-7.18525 7.7802229,-7.23125 10.266615,-0.0618 11.708513,-1.66495 11.708513,-13.01777 0,-5.18808 -0.610916,-11.03971 -1.35759,-13.00362 -1.30628,-3.43577 -1.628871,-3.53684 -8.535353,-2.67393 -6.493335,0.81129 -7.3809917,0.60665 -9.3090766,-2.14607 -4.8381435,-6.90742 -1.6625722,-10.517 10.2556916,-11.65733 l 8.279662,-0.7922 -0.127295,-11.79397 C 25.72453,99.144042 25.379539,98.71661 14.423184,98.687086 8.2194153,98.670368 6.7037949,98.217461 6.0596171,96.187837 5.6269046,94.824481 5.6081775,92.835203 6.0180014,91.767219 6.8804091,89.51982 18.068097,85.278575 22.000001,85.708453 c 2.473525,0.270432 2.694561,-0.611453 3.051812,-12.176072 0.248573,-8.046649 -0.163915,-13.129195 -1.16326,-14.333333 -1.022688,-1.232263 -4.360048,-1.865714 -9.82959,-1.865714 -4.5546518,0 -8.5777704,-0.296585 -8.9402638,-0.659078 -0.3624933,-0.362494 -0.3959731,-2.451734 -0.0744,-4.642755 0.7054019,-4.806206 6.2479428,-8.0315 13.8018158,-8.0315 6.052084,0 6.859155,-1.814178 6.228712,-14.001247 L 24.666667,22.10862 19.553181,21.051567 C 16.740763,20.470188 13.505543,20.517291 12.363803,21.156242 7.4656386,23.897391 2.8144694,19.169091 4.6671159,13.331918 6.221758,8.4336749 9.8585908,7.8266813 36.400673,8.0355333 c 23.603886,0.1857323 66.146657,0.9046355 69.842817,1.1802291 2.34722,0.1750141 3.43941,4.9730526 1.82058,7.9978686 -1.08479,2.026939 -3.05586,2.742097 -8.407203,3.050363 l -6.990198,0.402673 v 12.666667 12.666667 l 8.323841,0.39671 c 7.57156,0.360856 8.39794,0.691966 9.14379,3.663686 1.4959,5.960136 -0.0392,7.272937 -8.50428,7.272937 -11.572652,0 -12.178295,0.868767 -11.154077,16 l 0.857393,12.666667 7.876415,0.139856 c 5.994099,0.10644 8.304249,0.724959 9.666669,2.588174 3.62131,4.952434 1.16234,7.373845 -7.83715,7.717461 -10.407015,0.397357 -11.70975,1.889211 -11.687727,13.384438 0.02911,15.19226 0.11548,15.32262 10.455541,15.77902 8.658956,0.3822 8.869496,0.47776 9.297156,4.22015 0.60533,5.2971 -1.3776,6.7356 -8.75981,6.35472 -3.840089,-0.19814 -7.350682,0.41412 -8.893645,1.55105 -2.363964,1.74191 -2.460857,2.83717 -1.333333,15.07177 L 91.333336,166 l 6.302311,-0.39685 c 8.153703,-0.51343 11.697693,1.38935 11.697693,6.28051 0,5.51312 -2.62416,7.05737 -10.269284,6.04321 -9.121513,-1.21001 -10.235851,0.44395 -9.022543,13.39175 1.029026,10.98122 2.650455,13.0908 9.708861,12.63181 1.970626,-0.12813 4.332966,-0.16941 5.249626,-0.0917 1.9754,0.16745 2.25374,6.28774 0.33975,7.47065 -0.72981,0.45104 -19.479813,1.13436 -41.666672,1.51847 -22.186859,0.38412 -42.932261,0.80074 -46.100893,0.92585 -3.791126,0.14969 -6.412743,-0.49252 -7.6666679,-1.87809 z m 64.9863569,-6.52326 c 2.69053,0.0309 5.196858,-0.43722 5.569619,-1.04035 2.108651,-3.41188 0.792872,-180.9462 -1.356992,-183.09496 -1.665109,-1.664254 -4.861736,-1.803919 -27.488706,-1.201023 -7.911314,0.210797 -14.687762,0.874428 -15.058771,1.474735 -1.080584,1.748421 -0.605922,129.274008 0.503062,135.155928 0.553054,2.93333 0.556343,9.53333 0.0073,14.66667 -1.011126,9.45378 0.669289,30.94781 2.56588,32.81994 1.437125,1.4186 12.809083,2.26518 22.366724,1.66508 4.400001,-0.27626 10.201343,-0.47697 12.891873,-0.44602 z"
       id="path529" />
  </g>
</svg>
