<?xml version="1.0" encoding="UTF-8" standalone="no"?>
<!-- Created with Inkscape (http://www.inkscape.org/) -->

<svg
   version="1.1"
   id="svg193"
   width="212"
   height="213.33333"
   viewBox="0 0 212 213.33333"
   xmlns="http://www.w3.org/2000/svg"
   xmlns:svg="http://www.w3.org/2000/svg">
  <defs
     id="defs197" />
  <g
     id="g199">
    <path
       style="fill:#000000;stroke-width:1.33333"
       d="m 162.20855,208.43077 c -0.39535,-0.39536 -27.30402,-0.73695 -59.79702,-0.75908 -41.828523,-0.0285 -59.364215,-0.47309 -60.057779,-1.52264 -0.538771,-0.81532 -0.988771,-3.66089 -1,-6.32351 -0.0112,-2.66261 -1.188275,-12.57134 -2.615656,-22.01941 -3.415,-22.60444 -3.852368,-87.225221 -0.623772,-92.162018 1.614169,-2.468203 2.457438,-2.765273 4.597858,-1.619755 2.220356,1.188299 2.634075,2.87374 2.705667,11.022554 0.05979,6.805679 0.422501,8.782069 1.239897,6.756189 1.483139,-3.675896 3.199231,-4.696783 6.053835,-3.601368 1.99558,0.765776 2.170156,2.150568 1.375975,10.914668 -0.500272,5.52069 -2.030774,12.49878 -3.401115,15.50686 -3.975605,8.72699 -4.224952,11.24039 -2.583681,26.0434 0.853729,7.7 1.929862,21.2 2.391405,30 l 0.839169,16 L 60,196.42066 c 4.766667,-0.1353 13.367609,-0.65345 19.113207,-1.15145 8.497381,-0.73651 11.417212,-0.46773 15.64886,1.44047 6.342663,2.86014 22.269383,1.9865 24.718253,-1.3559 1.93926,-2.64682 9.64951,-2.59474 21.79123,0.1472 12.52089,2.82758 15.5993,1.63242 16.56284,-6.43034 4.66429,-39.03019 5.4221,-54.34311 3.093,-62.49864 -2.32722,-8.14892 -3.76027,-17.01322 -4.059,-25.10733 -0.18716,-5.07123 0.0527,-5.465803 3.32229,-5.465258 3.90709,6.5e-4 5.14265,-2.043579 5.14265,-8.508463 0,-4.392296 1.97378,-7.49095 4.77158,-7.49095 1.89986,0 5.13872,7.3211 4.03145,9.1127 -0.43293,0.700508 -0.18483,4.449756 0.55136,8.331659 0.90019,4.746652 0.89467,9.505722 -0.0168,14.532372 -0.74544,4.1109 -1.66137,17.94003 -2.03539,30.7314 -0.79329,27.13087 -2.73497,51.19183 -4.78953,59.35123 -1.33028,5.28301 -3.86315,8.14566 -5.63741,6.37141 z m 0.0145,-146.622006 c -0.35264,-0.302285 -72.885691,-2.145729 -79.556413,-2.021945 -3.3,0.06124 -12.050884,0.23102 -19.44641,0.377297 -17.309044,0.342362 -22.983993,-1.97743 -25.680114,-10.49745 l -1.793191,-5.666667 h -7.187675 c -6.965557,0 -17.8066,-1.959829 -21.8926103,-3.957716 C 2.6787693,38.09237 3.5681371,32.655426 8.5973081,28.239756 14.391415,23.152462 14.5613,20.566813 9.2960705,17.604653 1.4994396,13.218354 2.9434384,3.9999999 11.427156,3.9999999 c 5.978525,0 10.712653,3.1190935 11.713493,7.7174661 0.43285,1.988727 1.386362,4.515867 2.118919,5.615867 1.412471,2.120952 1.551815,1.983668 8.787323,-8.6574367 3.370917,-4.9575334 6.597248,-5.6534626 12.206106,-2.6328929 5.424555,2.9213151 6.47862,6.0079636 3.812384,11.1638966 -1.496676,2.894252 -3.370994,4.250533 -6.750094,4.884456 -2.57294,0.482686 -5.00955,1.41395 -5.414686,2.069474 -0.405137,0.655526 1.377726,3.18594 3.961915,5.623144 4.745709,4.47578 7.908571,10.367435 7.744473,14.426103 -0.04915,1.215542 1.07082,3.260022 2.488814,4.543289 3.877117,3.508743 10.980384,0.710817 20.263709,-7.981728 l 7.692845,-7.203283 11.146576,-0.928504 c 13.329317,-1.110326 20.417727,-0.137994 29.850467,4.094651 3.87716,1.739757 9.27716,3.54246 12,4.006004 2.72283,0.463544 8.2506,1.951271 12.28393,3.306059 18.24371,6.12802 23.959,6.968002 41.57103,6.10974 14.34016,-0.698819 17.22224,-0.505892 19,1.271864 2.65984,2.659846 2.65997,5.150353 4e-4,7.809925 -1.65017,1.65018 -5.54444,2.137993 -18.33333,2.296517 -8.93095,0.110707 -18.2377,0.260704 -20.68167,0.333333 -2.44396,0.07263 -4.54396,0.046 -4.66667,-0.05917 z M 107.33333,47.263471 c -5.35724,-1.961569 -12.915413,-1.6077 -16.693937,0.7816 -1.307365,0.826695 2.074631,1.234575 10.027277,1.20932 l 12,-0.03811 z M 26.078493,33.969811 c 2.468875,-1.936608 2.408539,-2.01343 -1.309001,-1.666666 -2.143447,0.199937 -4.143447,1.113521 -4.444444,2.030188 -0.756519,2.303917 2.625277,2.090245 5.753445,-0.363522 z"
       id="path668" />
  </g>
</svg>
