<?xml version="1.0" encoding="UTF-8" standalone="no"?>
<!-- Created with Inkscape (http://www.inkscape.org/) -->

<svg
   version="1.1"
   id="svg183"
   width="218.66667"
   height="284"
   viewBox="0 0 218.66667 284"
   xmlns="http://www.w3.org/2000/svg"
   xmlns:svg="http://www.w3.org/2000/svg">
  <defs
     id="defs187" />
  <g
     id="g189">
    <path
       style="fill:#000000;stroke-width:1.33333"
       d="m 135.6475,277.05652 c -2.96402,-2.17333 -4.96282,-13.91293 -4.97311,-29.20852 l -0.008,-11.48533 -5.33333,-3.696 C 122.4,230.63387 120,228.13344 120,227.11015 c 0,-1.02328 -0.9,-2.20587 -2,-2.62798 -1.1,-0.42212 -2,-1.46245 -2,-2.31185 0,-0.84941 -4.6431,-6.21765 -10.31799,-11.92943 l -10.317999,-10.38504 -8.015338,0.83786 c -4.408436,0.46081 -15.815339,1.03929 -25.348672,1.28552 -18.880144,0.48761 -31.333334,1.82961 -31.333334,3.37657 0,0.54139 0.9,1.73128 2,2.6442 2.631295,2.18379 2.563302,7.49853 -0.109053,8.52401 -6.037175,2.31668 -12.612787,-1.78788 -17.181415,-10.7248 -1.443084,-2.8229 -4.293085,-7.10342 -6.3333294,-9.51228 -2.040245,-2.40884 -3.7095362,-5.81598 -3.7095362,-7.57142 0,-7.71068 10.2507936,-10.13064 12.1765446,-2.87458 1.225717,4.6184 6.423149,10.47007 8.568332,9.64688 3.974,-1.52496 70.825627,-6.20357 91.25513,-6.38648 C 119.9,189.0784 131,188.52308 142,187.86739 c 11,-0.65568 27.2,-1.2257 36,-1.26668 8.8,-0.0409 18.26807,-0.67091 21.04015,-1.39983 4.30409,-1.13175 5.61844,-0.91351 9,1.49437 3.98184,2.83532 4.88483,5.78099 2.78683,9.09103 -0.88978,1.40379 -2.88244,1.52137 -9.30603,0.54915 -5.75885,-0.87163 -11.62281,-0.71851 -19.84739,0.51825 -6.42045,0.96547 -15.42356,1.76835 -20.00689,1.78419 -7.69001,0.0265 -8.34736,0.26038 -8.51497,3.0288 -0.0999,1.65 -0.37462,5.25 -0.61047,8 -0.35056,4.08744 0.009,5 1.97499,5 3.24196,0 5.94666,3.31016 9.46613,11.58509 3.21539,7.55999 2.79912,9.74824 -1.85439,9.74824 -1.6764,0 -4.13966,1.20629 -5.47393,2.68064 -2.35256,2.59955 -2.33865,2.77356 0.46001,5.7526 3.1694,3.37368 3.78684,8.79921 1.28596,11.30009 -0.88,0.88 -3.73,1.60919 -6.33333,1.62042 -7.61992,0.0329 -8.3892,1.15501 -7.86553,11.47332 0.45352,8.93618 0.37946,9.183 -2.869,9.56278 -1.834,0.21442 -4.3921,-0.38558 -5.68464,-1.33333 z m 9.68584,-33.64449 c 0,-1.05672 -0.6,-2.29214 -1.33334,-2.74536 -0.73333,-0.45323 -1.33333,0.41136 -1.33333,1.9213 0,1.50995 0.6,2.74536 1.33333,2.74536 0.73334,0 1.33334,-0.86458 1.33334,-1.9213 z M 128.8524,200.28097 c -1.39014,-1.39014 -3.05895,-1.65432 -5.73955,-0.90857 -2.07873,0.57831 -4.82951,0.91839 -6.11285,0.75572 -1.28333,-0.16265 -2.32938,0.19197 -2.32455,0.78807 0.0196,2.41472 5.07922,8.52724 10.04663,12.13726 l 5.27792,3.8357 0.40622,-7.32407 c 0.28335,-5.10865 -0.18666,-7.91695 -1.55382,-9.28411 z m 21.81427,14.307 c 0,-0.69005 -0.6,-1.25464 -1.33333,-1.25464 -0.73334,0 -1.33334,0.93542 -1.33334,2.0787 0,1.14328 0.6,1.70786 1.33334,1.25464 0.73333,-0.45323 1.33333,-1.38864 1.33333,-2.0787 z M 40.501015,174.55175 c -9.315224,-2.70079 -9.08978,-8.45567 0.522722,-13.34344 5.633876,-2.86472 6.380993,-3.77466 6.976264,-8.49656 0.529094,-4.19699 1.629672,-5.92904 5.333333,-8.39344 5.08094,-3.38083 7.845812,-8.25078 7.939862,-13.98498 0.04936,-3.0095 -0.519939,-3.66666 -3.176422,-3.66666 -5.581317,0 -8.435935,-5.16693 -14.265601,-25.82106 l -1.831172,-6.487733 -9.140639,0.653098 C 21.807138,95.800655 15.525362,94.072116 11.330646,89.08698 7.5436576,84.5864 7.9307159,82.726875 15.850975,67.370181 22.302835,54.860583 22.794692,49.455009 17.999611,43.756379 16.166064,41.577331 14.280016,38.190717 13.808396,36.230571 13.336775,34.270424 12.148313,31.766667 11.16737,30.666667 3.9527171,22.576369 2.9019838,20.930488 3.6518398,18.894245 5.4320291,14.06012 11.56501,13.169383 15.224812,17.213417 c 1.267627,1.400714 3.645715,2.883306 5.284639,3.29465 2.034489,0.510624 4.224132,3.379605 6.901872,9.043185 4.545337,9.613661 7.022826,11.661689 11.501876,9.508079 1.697742,-0.816306 4.145807,-1.823222 5.440146,-2.237594 2.839121,-0.90892 4.979989,-6.080829 4.979989,-12.030661 0,-4.533347 1.261121,-6.160936 11.43322,-14.755578 7.822102,-6.6090755 12.406855,-8.1222879 15.431478,-5.0932075 2.099357,2.1024514 2.185795,2.9771448 0.716151,7.2470235 -0.919257,2.67079 -4.454885,7.47079 -7.856953,10.666667 -4.493274,4.22095 -6.412538,7.178627 -7.015153,10.810686 -0.923135,5.563881 0.07271,6.111372 5.752201,3.162428 3.940566,-2.046047 9.055183,-4.223243 12.428711,-5.290668 2.997239,-0.948363 4.060963,2.324313 3.01739,9.283362 -0.840866,5.607284 -0.77781,5.723814 4.229306,7.815919 3.356424,1.402404 8.725346,2.075629 15.806605,1.982037 7.92399,-0.104733 12.81031,0.612031 18.71596,2.745402 6.52832,2.358301 9.70325,2.739478 17.33334,2.081016 5.13759,-0.443366 13.46969,-1.114771 18.51579,-1.492011 5.04609,-0.377241 11.64609,-1.256584 14.66666,-1.954095 8.22054,-1.898282 23.09066,-1.609444 27.22484,0.528818 1.98026,1.024214 5.61291,4.366744 8.07256,7.427842 l 4.47212,5.565634 0.27176,24.238824 c 0.19299,17.212595 0.78632,25.183585 2.04686,27.498015 1.30088,2.38853 1.56721,6.67098 0.99698,16.03091 -0.97054,15.93075 -1.57914,17.63926 -6.09682,17.11537 -2.95003,-0.34212 -3.62858,-1.2388 -4.34268,-5.7388 -0.4655,-2.93334 -0.59003,-0.97846 -0.27675,4.34418 0.53176,9.03468 0.3032,10.06471 -3.44067,15.50624 -4.52338,6.57452 -6.16201,7.48291 -13.49837,7.48291 -9.48456,0 -10.04143,-8.95141 -1.12893,-18.14679 5.07429,-5.23533 6.99354,-12.59006 4.29197,-16.4471 -2.25164,-3.21466 -5.52843,-3.58074 -6.61873,-0.73944 -0.43863,1.14301 -2.42807,2 -4.64292,2 -2.1315,0 -5.10384,0.75 -6.60522,1.66666 -2.29825,1.4032 -3.00654,1.29386 -4.4805,-0.69165 -1.5801,-2.12847 -2.29994,-1.44935 -7.38579,6.96803 -3.09928,5.12949 -6.26004,11.78856 -7.02389,14.79792 -1.93019,7.60433 -9.34715,12.58934 -17.16994,11.54009 -3.02324,-0.40551 -6.15546,-1.39592 -6.96047,-2.20093 -2.24894,-2.24895 4.18806,-13.11831 10.11989,-17.08822 2.75,-1.84044 5,-3.78281 5,-4.31636 0,-0.53354 1.47409,-3.14229 3.27577,-5.79721 3.38047,-4.9814 7.29741,-20.08293 5.63911,-21.74123 -0.51522,-0.51521 -9.88627,-0.26675 -20.82458,0.55213 -14.95383,1.11951 -20.9007,1.10657 -23.97045,-0.0521 -6.22653,-2.35025 -7.82741,-0.0324 -5.55123,8.03735 0.98132,3.47905 1.71549,7.62781 1.63151,9.21947 -0.084,1.59166 0.73662,5.02238 1.82358,7.62384 2.70948,6.4847 2.47706,11.81932 -0.69038,15.84606 C 105.2,164.89505 104,167.30251 104,168.38037 c 0,3.36327 -3.60736,5.17023 -11.80572,5.91363 -7.3944,0.67051 -7.9688,0.51689 -8.887165,-2.37661 -0.778647,-2.4533 -0.141346,-3.84442 3.079688,-6.7224 5.646624,-5.04527 6.946532,-7.99036 6.946532,-15.73822 0,-6.87636 -4.244886,-16.72571 -8.314939,-19.29303 -3.815263,-2.40661 -8.665151,0.27881 -12.322939,6.82331 -4.433988,7.93327 -10.028789,21.80864 -10.028789,24.87188 0,3.82408 -2.595226,7.4744 -5.313992,7.4744 -1.404426,0 -3.033315,0.81242 -3.619755,1.80536 -1.145274,1.93915 -6.192796,4.9385 -7.978599,4.74106 -0.598209,-0.0661 -2.962197,-0.66374 -5.253307,-1.328 z M 203.39184,125.23867 c 0.4854,-0.7854 0.47832,-4.1236 -0.0157,-7.41823 -0.74904,-4.99489 -1.21492,-5.72745 -2.80387,-4.40874 -2.61988,2.17431 -2.60673,13.25497 0.0157,13.25497 1.05672,0 2.31846,-0.6426 2.80386,-1.428 z m -30.0585,-4.48708 c 0,-1.78663 -1.78667,-7.88832 -3.97038,-13.55933 -2.85713,-7.419852 -5.28969,-11.398405 -8.67569,-14.189427 -5.755,-4.743764 -7.7648,-8.274496 -6.67128,-11.719864 0.57091,-1.798789 2.02595,-2.616302 4.65656,-2.616302 6.56053,0 12.45384,7.791501 17.34984,22.938083 4.01976,12.43579 7.12004,17.06192 11.43435,17.06192 2.59422,0 5.21429,-12.13838 4.95912,-22.974813 -0.1335,-5.669478 0.31832,-10.654888 1.00404,-11.078689 0.68572,-0.4238 1.24677,-3.076441 1.24677,-5.894757 0,-4.519431 -0.48253,-5.292422 -4.0884,-6.549435 -2.24861,-0.783872 -5.09861,-2.575012 -6.33333,-3.980308 -4.12346,-4.693135 -9.88115,-5.584852 -21.92504,-3.395619 -23.08019,4.195314 -44.12871,3.349991 -69.653232,-2.797317 -10.573656,-2.546552 -25.492346,-2.389835 -29.614482,0.311093 -4.246166,2.782195 -9.718852,0.489482 -9.718852,-4.07159 0,-6.652608 -4.187377,-8.05373 -18.968881,-6.347099 -1.302982,0.150439 -6.521471,11.065956 -5.688594,11.898833 0.361611,0.361612 0.657475,-0.04252 0.657475,-0.89808 0,-2.164168 6.00984,-1.953552 7.859744,0.275447 2.313908,2.788088 0.369956,5.997616 -5.422487,8.9527 -6.394732,3.262348 -7.312364,5.307871 -4.385228,9.775247 2.879512,4.39469 4.234027,4.326109 9.217828,-0.466718 2.234912,-2.149272 5.681591,-4.306313 7.659286,-4.793426 3.203061,-0.788924 3.817986,-0.353915 5.629946,3.982717 1.118776,2.677607 2.117203,7.084648 2.218726,9.793427 0.10152,2.708777 0.689981,6.42505 1.307684,8.258384 0.617704,1.833333 1.769188,5.864383 2.558853,8.957893 1.363675,5.34218 1.674003,5.6156 6.181336,5.44615 4.583964,-0.17233 4.71482,-0.31847 3.842316,-4.29122 -2.171246,-9.886291 -2.218224,-20.492503 -0.10884,-24.571611 1.159123,-2.241499 2.10974,-5.455248 2.112482,-7.141666 0.0028,-1.686417 1.205773,-5.035701 2.673404,-7.442852 2.285696,-3.748908 3.049929,-4.172462 5.328349,-2.953089 2.332928,1.248545 2.654122,2.770081 2.612683,12.37664 -0.03007,6.971197 -0.739971,12.164889 -1.952748,14.286421 -3.979195,6.960877 -2.661174,11.259177 6.144161,20.037217 4.479288,4.4654 8.480172,7.7829 8.890854,7.37221 0.41068,-0.41068 0.113546,-3.51354 -0.660299,-6.89525 -1.233,-5.38822 -1.09584,-6.45972 1.109147,-8.66471 3.61594,-3.61594 6.189373,-3.11791 9.164009,1.7735 l 2.60868,4.28963 16.35696,0.2759 c 8.99633,0.15175 16.96361,-0.2002 17.70506,-0.78212 0.74146,-0.58192 6.64438,-1.47146 13.11762,-1.97677 13.64136,-1.06486 15.56381,-0.1837 15.56381,7.13365 0,5.0315 1.87017,8.10341 4.93333,8.10341 0.95334,0 1.73334,-1.46179 1.73334,-3.24841 z M 64.972224,49.861111 c -0.443056,-0.443055 -1.593056,-0.490424 -2.555556,-0.105267 -1.063644,0.425635 -0.747702,0.741577 0.805556,0.805556 1.405554,0.05789 2.193054,-0.257237 1.75,-0.700293 z"
       id="path807" />
  </g>
</svg>
