<?xml version="1.0" encoding="UTF-8" standalone="no"?>
<!-- Created with Inkscape (http://www.inkscape.org/) -->

<svg
   version="1.1"
   id="svg2"
   width="294.66666"
   height="313.33334"
   viewBox="0 0 294.66666 313.33334"
   xmlns="http://www.w3.org/2000/svg"
   xmlns:svg="http://www.w3.org/2000/svg">
  <defs
     id="defs6" />
  <g
     id="g8">
    <path
       style="fill:#000000;stroke-width:1.33333"
       d="m 132.41202,307.66667 c -0.59328,-0.91666 -1.11281,-9.78646 -1.15451,-19.71065 -0.0728,-17.3364 -0.68105,-21.28935 -3.2756,-21.28935 -1.53715,0 -5.04766,-3.5604 -17.16539,-17.40929 -5.41758,-6.19156 -11.715856,-12.0696 -13.996172,-13.06232 -7.209935,-3.13879 -67.588879,-1.93298 -69.643105,1.39084 -0.424493,0.68684 0.18697,2.30824 1.358808,3.60311 1.171838,1.29486 2.130615,3.65706 2.130615,5.24932 0,2.34158 -0.781417,2.89501 -4.087655,2.89501 -5.108711,0 -9.245678,-2.13468 -9.245678,-4.77079 0,-1.10566 -2.289035,-5.13456 -5.086743,-8.95309 -9.2389703,-12.61008 -9.5585233,-16.94279 -1.249592,-16.94279 4.035736,0 10.336335,5.49197 10.336335,9.00975 0,1.54492 1.046157,1.7463 5,0.96253 4.165117,-0.82567 12.235567,-0.93044 22.999999,-0.29859 1.1,0.0645 5.085293,-0.333 8.856207,-0.88349 4.646941,-0.67837 7.155609,-0.51644 7.78537,0.50253 0.688341,1.11376 1.397539,1.11471 2.736301,0.004 1.178734,-0.97825 12.844531,-1.70788 33.54796,-2.0982 17.45746,-0.32912 32.76816,-0.91658 34.0238,-1.30548 1.25563,-0.38889 3.45184,-0.0815 4.88047,0.68307 1.91522,1.025 3.592,0.87144 6.38369,-0.58459 2.70059,-1.40852 8.37385,-1.99672 19.7862,-2.05141 8.8,-0.0421 19.93368,-0.51497 24.74149,-1.05067 11.21638,-1.24972 15.12992,-0.33949 15.70472,3.6527 0.81023,5.62721 -1.20609,6.09582 -26.29318,6.11076 -17.49844,0.0107 -24.2911,0.46978 -25.83032,1.74684 -1.14863,0.95298 -2.80916,4.73709 -3.69007,8.40913 -1.38039,5.75411 -1.31277,6.8962 0.48948,8.2673 1.15013,0.87497 2.74392,3.09086 3.54176,4.9242 0.79784,1.83333 2.31601,4.83333 3.37372,6.66666 2.99885,5.19799 2.48335,8.9135 -1.37093,9.88086 -2.64602,0.6641 -3.3659,1.72489 -3.49123,5.14454 -0.19536,5.32995 -0.22701,4.97678 0.81997,9.14832 0.82343,3.28078 0.55638,3.49243 -5.22977,4.1446 C 142.10024,290.55361 140,292.48061 140,298.91797 c 0,8.46214 -4.45164,13.59498 -7.58798,8.74908 z m 12.35216,-30.94912 c -0.67998,-3.62465 -0.2824,-5.19933 1.8516,-7.33333 3.51547,-3.51547 3.43606,-5.09669 -0.28245,-5.62481 -2.45859,-0.34918 -2.96452,-1.20811 -2.8034,-4.7594 0.19264,-4.24612 -1.25405,-5.34519 -4.36072,-3.31292 -0.94217,0.61633 -1.38989,4.88546 -1.20736,11.51252 0.23372,8.48584 0.76864,10.88284 2.75229,12.33333 3.92327,2.86876 4.97875,2.13504 4.05004,-2.81539 z M 148,256.00001 c 0,-0.73334 -0.6,-1.33334 -1.33334,-1.33334 -0.73333,0 -1.33333,0.6 -1.33333,1.33334 0,0.73333 0.6,1.33333 1.33333,1.33333 0.73334,0 1.33334,-0.6 1.33334,-1.33333 z m -1.5889,-4.1 c -0.26277,-0.78834 -1.04777,-1.43334 -1.74444,-1.43334 -0.69666,0 -1.48166,0.645 -1.74444,1.43334 -0.26278,0.78833 0.52222,1.43333 1.74444,1.43333 1.22223,0 2.00723,-0.645 1.74444,-1.43333 z m -16.35814,-8.53299 c -0.0654,-4.0148 -0.76721,-7.94792 -1.55954,-8.74027 -0.79234,-0.79233 -6.05486,-1.67661 -11.69448,-1.96507 l -10.25387,-0.52446 3.12292,3.59805 c 10.1728,11.72055 13.84037,14.9252 17.08462,14.92823 3.26862,0.003 3.41403,-0.31844 3.30035,-7.29648 z m 90.60957,20.18855 c -3.79563,-1.26679 -4.1664,-4.03202 -1.64229,-12.24806 5.90206,-19.21139 29.09553,-28.76269 50.40065,-20.75551 10.20354,3.83484 16.33222,10.81383 19.70598,22.44009 1.72899,5.95821 0.44543,10.95556 -2.84045,11.05882 -20.74736,0.65207 -63.14481,0.33204 -65.62389,-0.49534 z m 55.00413,-8.30128 c 3.11667,-0.51064 5.66667,-1.36174 5.66667,-1.89131 0,-2.33581 -8.16106,-11.91168 -12.36722,-14.51124 -6.72014,-4.15328 -19.0187,-5.14935 -26.81532,-2.17179 -9.9025,3.7818 -18.69269,15.66706 -14.60809,19.75166 1.07107,1.07106 40.25135,0.11253 48.12396,-1.17732 z M 17.666666,209.78363 C 15.105425,208.75015 15.681013,204.76458 19,200.55118 c 2.802409,-3.55763 3.766527,-5.59922 7.501267,-15.88451 0.798852,-2.2 1.807824,-8.02384 2.24216,-12.94185 0.665679,-7.53752 1.229214,-9.08136 3.58821,-9.83007 3.867392,-1.22747 6.335029,2.54835 6.335029,9.69343 0,3.15984 0.616432,5.74516 1.369849,5.74516 1.92372,0 19.052748,-18.23248 20.442392,-21.75928 0.630066,-1.59907 1.197264,-21.97878 1.260438,-45.28825 l 0.114867,-42.380861 -5.975304,-5.725714 c -4.659369,-4.464747 -7.054298,-5.766279 -10.874725,-5.909903 -2.694681,-0.101307 -5.258401,0.396655 -5.697156,1.106573 -1.006157,1.627998 -8.674405,1.650184 -11.231214,0.03249 -1.557799,-0.985608 -1.626715,-1.870335 -0.361924,-4.646247 0.85925,-1.88585 2.175137,-3.428818 2.924192,-3.428818 0.749056,0 1.361918,-0.620665 1.361918,-1.379257 0,-0.877393 -2.339989,-1.068847 -6.430926,-0.526164 -4.937313,0.654957 -6.92262,0.361399 -8.547973,-1.263955 -2.119306,-2.119305 -1.783783,-7.497291 0.467741,-7.497291 0.647804,0 1.177825,-0.64522 1.177825,-1.433821 0,-0.788603 -1.65,-1.325025 -3.666666,-1.192051 -8.4691276,0.558436 -9.9121608,-2.088062 -4.566569,-8.375008 2.026062,-2.382849 4.721215,-5.982453 5.989229,-7.99912 C 17.690674,17.65 19.521317,16 20.490753,16 c 0.969437,0 2.848598,-1.2 4.175913,-2.666666 3.172777,-3.5058803 7.333333,-3.5058803 7.333333,0 0,3.104502 3.355183,3.603544 4.482168,0.666666 0.920939,-2.399926 5.024852,-2.626313 7.251165,-0.4 0.952207,0.952207 1.6,5.540742 1.6,11.333334 0,9.270801 1.555944,12.666725 3.294239,7.189841 1.001799,-3.156386 4.665286,-4.695588 6.595384,-2.771026 0.794041,0.791761 1.74371,5.755764 2.110377,11.031116 0.539115,7.756413 1.113099,9.676439 3,10.035241 1.944967,0.369843 2.333333,-0.564658 2.333333,-5.614558 0,-13.37087 13.084663,-30.054913 26.666666,-34.002239 3.3,-0.9590757 6.6,-2.2035755 7.333333,-2.7655546 2.369208,-1.8156075 10.735606,-2.7687686 24.738606,-2.8184015 17.05153,-0.060439 28.73575,3.535859 30.16499,9.2845031 0.88515,3.560199 10.94094,17.287729 12.76307,17.423327 0.55,0.04093 1,-1.052116 1,-2.428989 0,-3.943477 3.67148,-6.343214 6.75684,-4.416375 1.39717,0.872547 2.84163,1.586448 3.20991,1.586448 0.36829,0 0.52642,-3.75 0.35142,-8.333333 C 175.34282,10.248486 175.43273,10 178.66666,10 c 3.07687,0 3.30264,0.419241 2.9344,5.448959 -0.52328,7.147264 2.95044,10.781 5.04351,5.275829 C 187.39005,18.764008 188,15.162987 188,12.722519 c 0,-5.3055704 2.04645,-6.3914613 9.77262,-5.1855744 6.02775,0.9407985 7.5088,2.247346 7.5403,6.6518454 0.0135,1.88955 1.09822,3.125968 3.20668,3.655157 8.28661,2.079807 3.93538,8.82272 -5.69334,8.82272 -3.48982,0 -7.47482,0.876051 -8.90476,1.957596 -2.55366,1.931499 -2.55262,1.957888 0.0785,1.979583 1.46666,0.01213 3.53433,-0.52696 4.59482,-1.197895 2.91707,-1.845533 6.98022,0.880064 6.48608,4.350931 -0.37933,2.664615 -1.36026,2.965957 -11.64201,3.576452 -6.89797,0.409579 -11.42749,1.272292 -11.74571,2.237143 -0.29273,0.8876 1.0523,1.757241 3.09328,2 4.629,0.550579 7.10582,4.200432 5.04172,7.429524 -1.54556,2.417896 -6.5082,2.950185 -12.50593,1.34138 -7.39395,-1.98332 -7.35611,-2.226665 -6.93792,44.611525 0.49784,55.758394 0.55363,56.235754 7.33315,62.749514 6.56064,6.30346 20.87206,16.15248 21.93146,15.09308 0.42723,-0.42723 0.92982,-4.05547 1.11686,-8.06278 0.42001,-8.99862 1.22237,-10.523 4.5901,-8.72064 2.87383,1.53803 5.29234,8.95831 5.30332,16.27124 0.009,6.05546 4.73739,19.1133 8.16051,22.53642 1.38248,1.38248 2.5136,4.0136 2.5136,5.84693 0,2.77995 -0.63421,3.33333 -3.82019,3.33333 -2.1011,0 -5.36133,-1.21226 -7.24496,-2.69392 -6.5326,-5.13854 -32.38601,-11.03584 -36.39534,-8.30196 -0.80327,0.54774 -1.83956,3.39391 -2.30288,6.32484 -1.16456,7.36691 -3.09935,8.41244 -13.16788,7.11576 -10.50614,-1.35302 -36.94188,0.0341 -43.47904,2.28156 -3.52621,1.21226 -5.64267,1.2923 -7.52559,0.28459 -1.69865,-0.90909 -9.332262,-1.11208 -21.712805,-0.57736 -17.832527,0.7702 -19.266744,0.65107 -21.722236,-1.80443 -1.446032,-1.446 -2.629117,-4.12908 -2.629117,-5.96241 0,-3.77232 0.034,-3.76712 -12.652301,-1.93384 -6.969404,1.00713 -11.527899,2.68132 -18.08015,6.64025 -8.775205,5.30206 -9.831855,5.66238 -12.934215,4.41055 z M 160.42142,197.44524 c 0.86648,-0.86648 1.58854,-9.29602 1.81022,-21.13337 l 0.36877,-19.69193 -12.47409,-11.97664 c -15.43343,-14.81794 -33.53371,-29.97928 -35.77797,-29.9687 -0.92493,0.004 -4.66503,3.45436 -8.31134,7.66666 -3.64631,4.21231 -9.496307,10.51066 -12.999997,13.99634 -3.503692,3.48568 -6.370348,6.88568 -6.370348,7.55555 0,0.66988 -0.5698,1.41796 -1.266223,1.66241 -0.696423,0.24444 -3.849819,3.77784 -7.007546,7.85199 l -5.741323,7.40753 -0.405168,19.25914 -0.405168,19.25912 43.569373,-0.22332 c 29.16092,-0.14948 44.04605,-0.70002 45.01081,-1.66478 z M 62.517755,181.66667 62.411141,171.33334 53.556423,180.66667 44.701706,190 l 8.649143,0.76987 c 4.757031,0.42343 8.789628,0.87343 8.961328,1 0.1717,0.12653 0.264208,-4.41987 0.205574,-10.1032 z m 132.148905,5.02993 c 0,-1.28053 -19.21758,-20.3255 -21.2756,-21.0845 -1.2804,-0.4722 -2.55205,13.35505 -1.65822,18.03076 0.61696,3.22745 0.94374,3.33282 8.27384,2.66816 4.19733,-0.3806 8.46292,-0.16547 9.47908,0.47808 2.47344,1.56644 5.1809,1.5181 5.1809,-0.0925 z M 82.981839,133.66667 C 94.150174,123.12852 99.11821,117.9826 103.7939,112.10938 l 4.46057,-5.603 -7.7939,-7.319957 C 96.17392,95.160447 90.111691,90.064266 86.988946,87.861575 83.866199,85.658886 79.843473,82.388931 78.049552,80.59501 76.25563,78.801088 74.294792,77.333335 73.69213,77.333335 c -0.602661,0 -1.028412,7.05 -0.946112,15.666667 C 73.147913,135.07826 73.363164,140 74.801549,140 c 0.80752,0 4.488651,-2.85 8.18029,-6.33333 z M 160.58068,125 C 160.1688,118.21667 159.78184,103.86001 159.72077,93.096307 159.61141,73.81861 158.99442,69.858843 156.25252,70.837488 154.35732,71.513923 136,89.351127 136,90.516186 c 0,0.512893 -3,3.763981 -6.66667,7.22464 -3.66667,3.460654 -6.66667,7.169264 -6.66667,8.241344 0,1.07208 1.95,3.72112 4.33334,5.88675 21.93701,19.9332 28.66992,25.39772 31.33145,25.4291 2.94829,0.0347 2.98568,-0.16966 2.24923,-12.29802 z M 117.45012,94.991217 c 1.89757,-1.278502 6.35294,-5.613212 9.90082,-9.632691 3.54787,-4.01948 9.04532,-9.866046 12.21654,-12.992368 3.17121,-3.126325 5.76585,-6.246662 5.76585,-6.934085 0,-0.687422 3,-4.090258 6.66667,-7.561858 8.24086,-7.802458 8.62497,-11.809614 2.33333,-24.342997 -4.23416,-8.434737 -4.59272,-8.756987 -15.66667,-14.079763 -14.37975,-6.911742 -22.75873,-7.224532 -40.666662,-1.518097 -19.111486,6.089951 -26,15.232887 -26,34.509092 v 8.480447 l 10.405141,9.873886 C 93.836871,81.640844 112.092,97.338406 113.25966,97.32455 c 0.40719,-0.0048 2.29289,-1.054832 4.19046,-2.333333 z M 37.084476,25.102683 c -0.459977,-4.657619 -3.751143,-6.988087 -3.751143,-2.656177 0,3.656772 1.357246,6.886828 2.893796,6.886828 0.701338,0 1.087145,-1.903793 0.857347,-4.230651 z"
       id="path30" />
  </g>
</svg>
