<?xml version="1.0" encoding="UTF-8" standalone="no"?>
<!-- Created with Inkscape (http://www.inkscape.org/) -->

<svg
   version="1.1"
   id="svg83"
   width="218.66667"
   height="278.66666"
   viewBox="0 0 218.66667 278.66666"
   xmlns="http://www.w3.org/2000/svg"
   xmlns:svg="http://www.w3.org/2000/svg">
  <defs
     id="defs87" />
  <g
     id="g89">
    <path
       style="fill:#000000;stroke-width:1.33333"
       d="m 91.333335,271.92006 c -17.219945,-1.24761 -37.144973,-5.16435 -46.666668,-9.17345 -1.466666,-0.61754 -5.666666,-2.02591 -9.333333,-3.12972 -8.90156,-2.67971 -27.5828128,-10.1711 -29.6666672,-11.89664 -5.39967368,-4.47126 0.9650278,-9.48632 20.0004472,-15.75934 6.647405,-2.19062 12.796904,-4.57278 13.665552,-5.29369 0.868648,-0.72092 1.901171,-0.98895 2.294495,-0.59563 0.393324,0.39334 3.338118,0.13707 6.543988,-0.56946 8.576017,-1.89006 34.550484,-5.32614 49.828852,-6.59171 14.672719,-1.2154 28.577439,-0.16145 50.268789,3.81027 7.84784,1.43694 15.77771,2.61264 17.62193,2.61264 3.47319,0 39.0866,11.69749 41.44262,13.61213 0.73333,0.59596 2.98333,2.32057 5,3.83248 3.9999,2.99876 5.00773,9.11588 1.9236,11.67548 -0.95868,0.79564 -5.00868,2.31155 -9,3.36869 -3.99131,1.05714 -9.05694,2.66663 -11.25694,3.57666 -2.2,0.91001 -6.7,2.14002 -10,2.73334 -3.3,0.59334 -9,1.69379 -12.66666,2.44548 -11.27606,2.31164 -51.57839,6.73875 -59.33334,6.51762 -4.03333,-0.11507 -13.333332,-0.64383 -20.666665,-1.17515 z m 47.333335,-11.96527 c 4.76667,-0.69782 17.36667,-2.5464 28,-4.10793 19.43409,-2.85395 28.49609,-5.5932 27.64627,-8.35689 -1.2983,-4.22215 -17.22736,-8.79651 -50.31294,-14.44839 -15.19191,-2.59517 -69.779118,-2.01787 -82.666666,0.87427 -10.5239,2.3617 -21.343615,4.41848 -29.615594,5.6298 -8.242804,1.20704 -10.412672,7.08642 -2.63905,7.15066 1.973388,0.0163 5.087977,1.20296 6.921311,2.63702 1.833333,1.43405 4.833333,2.61914 6.666666,2.63353 3.311779,0.026 17.125591,2.87125 27.333334,5.62991 8.283131,2.23852 40.289849,4.91494 50.666669,4.23678 5.13333,-0.33548 13.23333,-1.18092 18,-1.87876 z M 17.353751,207.66666 c 0.03343,-2.72902 1.775528,-4.57924 5.312916,-5.64262 1.833333,-0.55114 6.71182,-3.032 10.841082,-5.51304 4.129261,-2.48106 7.972626,-4.511 8.540812,-4.511 0.568185,0 2.889698,-1.40815 5.158918,-3.12922 2.777566,-2.10662 6.740178,-3.39746 12.125855,-3.95008 14.974374,-1.53648 19.724098,-2.20036 20.371074,-2.84733 0.355417,-0.35541 1.917325,0.0409 3.470904,0.88091 2.590457,1.40048 27.309258,4.65106 53.437428,7.02714 9.65222,0.87778 10.452,0.77146 8.83674,-1.17481 -0.9768,-1.17697 -2.4752,-2.13995 -3.32977,-2.13995 -0.85457,0 -3.63111,-1.77561 -6.17007,-3.94581 -2.53897,-2.1702 -6.12478,-3.9702 -7.96846,-4 -1.84369,-0.0298 -6.63522,-1.25419 -10.64784,-2.72085 -4.01263,-1.46667 -8.20416,-2.67427 -9.31452,-2.68356 -3.74059,-0.0313 -17.828099,-8.01448 -22.609312,-12.81236 -2.608563,-2.61767 -6.306003,-5.57244 -8.216533,-6.56619 -1.910533,-0.99373 -7.188653,-4.27433 -11.729158,-7.29023 -4.752308,-3.15656 -9.454397,-5.3061 -11.080846,-5.06554 -3.30862,0.48934 -6.128133,7.1476 -6.281533,14.83378 -0.113587,5.69139 -5.15366,17.07528 -9.945135,22.46286 -5.849509,6.57722 -17.059336,10.54394 -21.174971,7.493 -1.973692,-1.46311 -2.519084,-6.00064 -3.843046,-31.97314 l -1.54293,-30.26803 4.535655,-7.51872 c 5.417765,-8.98098 14.277876,-17.515426 19.456848,-18.741675 4.602842,-1.089837 9.332271,-5.22944 12.038198,-10.536864 1.121644,-2.2 3.961421,-6.4 6.310618,-9.333333 2.349197,-2.933333 5.957881,-8.461364 8.019297,-12.284513 3.510153,-6.510008 3.61567,-7.153188 1.662549,-10.134029 -2.897761,-4.422543 -10.207624,-7.581457 -17.543814,-7.581457 -5.518845,0 -6.901325,0.666344 -12.76832,6.15423 -9.554672,8.937277 -14.565183,6.090279 -9.486729,-5.390407 l 2.697061,-6.097156 H 21.46501 c -3.293322,0 -5.860475,-0.893676 -7.37523,-2.567462 -2.903063,-3.207848 -2.247218,-7.272786 1.258866,-7.802473 10.078861,-1.52268 11.66571,-4.506657 4.081728,-7.675448 -8.236366,-3.441373 -7.935865,-10.714729 0.39234,-9.496229 19.099781,2.79449 18.194675,2.865095 21.424871,-1.671297 C 49.992943,1.1720339 68.013429,0.94814992 79.703153,12.975991 91.201815,24.807243 93.824499,38.498534 86.73396,49.679155 78.570957,62.550873 72.000001,75.686654 72.000001,79.133326 c 0,4.241183 8.09334,13.790409 10.452278,12.332505 0.851248,-0.5261 1.547722,-1.836113 1.547722,-2.911141 0,-2.868687 9.322755,-20.89666 11.841738,-22.899081 6.327491,-5.029928 13.431941,-7.606294 23.491601,-8.519016 18.84545,-1.709868 31.18538,-3.620358 38.71542,-5.993996 6.81884,-2.149449 7.50687,-2.1584 9.54115,-0.12412 1.96039,1.960376 2.01073,3.221822 0.4758,11.920281 -0.94412,5.350346 -2.211,10.674676 -2.81529,11.831844 -1.50514,2.882213 -17.01048,13.149741 -21.18943,14.03148 -10.93118,2.306436 -21.39432,8.760682 -21.39432,13.197218 0,0.89961 3.45,2.70718 7.66667,4.01681 4.21666,1.30964 12.76666,4.74031 19,7.62372 9.6169,4.44858 12.62788,5.22813 19.88108,5.1473 5.99758,-0.0668 9.27936,-0.75735 11,-2.31451 3.21456,-2.90913 3.1189,-6.68868 -0.21442,-8.47262 -4.27614,-2.28853 -3.50253,-8.264624 1.44847,-11.189254 3.93101,-2.322102 4.48287,-2.328912 12.33333,-0.15221 4.52002,1.253264 10.4682,3.528274 13.2182,5.055584 4.11856,2.28738 5,3.51139 5,6.94323 0,4.83438 -2.26066,8.26231 -5.86734,8.89683 -3.10682,0.54659 -5.80215,7.50919 -8.17298,21.11248 -3.35508,19.25068 -4.64998,22.42387 -12.8376,31.45858 -4.23089,4.66861 -8.70377,10.03176 -9.93974,11.91809 -2.14247,3.26981 -2.11364,3.61036 0.61856,7.30585 2.95448,3.99616 3.70405,9.92955 1.66173,13.15394 -1.36976,2.16256 -19.51673,1.22553 -39.46263,-2.03768 -6.6,-1.07978 -16.17237,-2.50276 -21.27193,-3.16218 -5.09956,-0.65941 -12.17909,-1.82241 -15.73229,-2.58442 -7.796057,-1.67196 -16.995779,-1.81206 -16.995779,-0.25883 0,0.61968 1.2,2.21267 2.666667,3.53999 3.781357,3.42208 3.567693,8.66666 -0.353079,8.66666 -3.519837,0 -12.017945,-4.3133 -17.415888,-8.83962 -4.981547,-4.17715 -9.387456,-3.98598 -19.349323,0.83962 -4.541639,2.2 -8.786723,4 -9.43352,4 -0.646797,0 -3.787239,1.49278 -6.978759,3.31727 -6.218476,3.55493 -15.817821,4.57841 -15.782348,1.68273 z M 153.94175,176.33333 c -0.42665,-2.01667 -1.05261,-5.02897 -1.39101,-6.69403 -0.75442,-3.71201 1.52908,-8.30597 4.1286,-8.30597 1.05537,0 2.79469,1.69369 3.86517,3.76377 5.54041,10.71398 10.51693,8.73394 18.56229,-7.38546 5.57303,-11.16592 8.24666,-21.18339 6.41022,-24.01756 -0.4677,-0.72177 -7.15035,-1.62916 -14.85035,-2.0164 -10.53812,-0.52998 -15.64852,-1.44601 -20.66667,-3.70444 -3.66666,-1.6502 -9.36666,-4.18431 -12.66666,-5.63137 -3.3,-1.44705 -9.6,-4.30736 -14,-6.35625 -19.29667,-8.98558 -20.41604,-9.31896 -31.290317,-9.31896 -5.803771,0 -10.8946,-0.55383 -11.312956,-1.23075 -0.418355,-0.67691 -2.54644,-1.62298 -4.729079,-2.10236 -4.067795,-0.89344 -13.33432,-10.326214 -13.33432,-13.573551 0,-0.968 -0.587806,-1.760001 -1.306235,-1.760001 -2.582532,0 -10.635482,18.915682 -10.674362,25.073152 -0.06123,9.69601 11.150021,22.01993 27.458386,30.18351 5.053883,2.52986 12.224032,7.1922 15.933666,10.36076 3.972846,3.39339 10.822437,7.33347 16.666667,9.58718 5.45703,2.10437 10.49188,4.34422 11.18855,4.97744 0.69666,0.63321 2.56515,1.15129 4.15218,1.15129 2.22176,0 3.42924,-1.45688 5.24915,-6.33333 1.29999,-3.48334 3.20355,-7.30494 4.23012,-8.49243 2.54517,-2.94419 15.51764,-5.45709 19.78861,-3.83328 6.40326,2.43452 3.19606,8.62095 -4.53157,8.74104 -6.85847,0.10667 -9.48849,2.41873 -9.48849,8.34164 0,5.69001 5.49956,12.24303 10.27485,12.24303 2.69112,0 3.00496,-0.49314 2.33356,-3.66667 z M 32.74712,171.09926 c 2.054749,-3.04905 3.072735,-7.22196 3.67867,-15.07957 0.620949,-8.05232 1.735256,-12.51293 4.305605,-17.23551 l 3.467839,-6.37156 -2.766283,-8.42652 c -1.521456,-4.63459 -2.766284,-9.52743 -2.766284,-10.87298 0,-2.97977 -0.113466,-2.98503 -5.808958,-0.26904 -7.771813,3.70612 -10.709583,10.79209 -11.298679,27.25265 -0.453939,12.68403 1.333192,31.69883 3.274473,34.83988 1.367132,2.21207 5.035731,0.43315 7.913617,-3.83735 z m 82.51014,-80.263893 c 2.41053,-5.345589 3.92417,-6.27282 22.07608,-13.523364 7.32218,-2.924753 13.33333,-7.306871 13.33333,-9.719982 0,-0.753041 -2.32368,-0.90998 -5.66667,-0.38272 -5.96856,0.941368 -23.80206,3.42132 -28.33333,3.940072 -6.48686,0.742632 -11.01223,2.847897 -15.66667,7.288354 -4.039641,3.853926 -4.999999,5.729814 -4.999999,9.766615 0,6.058894 2.283258,7.698804 10.797499,7.75511 5.84347,0.03864 6.24,-0.20153 8.45976,-5.124085 z M 77.286423,42.75432 C 79.901285,37.868404 78.942989,27.947318 75.408596,23.31349 71.077965,17.63574 63.662741,14.183026 58.05779,15.234521 49.396487,16.859392 37.684881,35.63669 45.000001,36.170163 c 9.150406,0.667317 21.523492,4.12832 23.816371,6.661924 2.922214,3.229011 6.718974,3.194151 8.470051,-0.07776 z M 51.666667,31.893201 c -3.441093,-2.004254 -2.848398,-5.567495 1.641602,-9.869187 3.500436,-3.353632 4.375835,-3.625566 7.333333,-2.27804 3.90518,1.779319 4.430506,6.130028 1.282794,10.624017 -2.201927,3.143691 -6.404175,3.767699 -10.257729,1.52321 z"
       id="path946" />
  </g>
</svg>
