<?xml version="1.0" encoding="UTF-8" standalone="no"?>
<!-- Created with Inkscape (http://www.inkscape.org/) -->

<svg
   version="1.1"
   id="svg215"
   width="272"
   height="282.66666"
   viewBox="0 0 272 282.66666"
   xmlns="http://www.w3.org/2000/svg"
   xmlns:svg="http://www.w3.org/2000/svg">
  <defs
     id="defs219" />
  <g
     id="g221">
    <path
       style="fill:#000000;stroke-width:1.33333"
       d="m 152.70789,275.18407 c -4.85606,-4.85606 -1.49136,-8.14869 9.37402,-9.17324 15.46518,-1.45828 25.54892,-3.54872 29.9093,-6.20042 l 4.41927,-2.68751 -0.87191,-22.10773 c -0.47954,-12.15926 -0.8719,-27.50595 -0.8719,-34.10375 v -11.996 l -36.33334,1.03234 C 138.35,190.51554 111.5,191.35957 98.666667,191.82338 l -23.333334,0.84328 0.267903,32.29873 c 0.155689,18.77004 0.835336,33.35899 1.622607,34.83002 1.46602,2.73928 3.29299,2.96362 27.157817,3.33492 14.81667,0.2305 16.79073,1.4016 13.40363,7.95153 l -2.01999,3.90624 -9.54932,-1.1072 c -10.173777,-1.1796 -15.753039,-1.14323 -27.675991,0.18041 -10.313646,1.14499 -11.337945,-0.15105 -12.376246,-15.65953 -1.254671,-18.74028 -1.484203,-67.99346 -0.332736,-71.39869 0.557366,-1.64829 2.323404,-3.25635 3.924526,-3.57344 4.060608,-0.8042 68.395977,-3.67436 74.911137,-3.34197 2.93333,0.14964 6.23333,0.20902 7.33333,0.132 1.1,-0.0771 12.08888,-0.85247 24.41975,-1.7231 21.44073,-1.51384 22.52644,-1.47192 24.86304,0.96026 2.18032,2.26948 2.60297,6.77673 3.9269,41.87654 0.816,21.63333 1.47763,40.96223 1.4703,42.95309 -0.0168,4.55866 -2.48123,5.89219 -14.15355,7.65858 -5.05621,0.76516 -11.59311,1.95588 -14.52644,2.64604 -10.65405,2.5067 -23.08693,2.79822 -25.29211,0.59304 z M 30.333333,140.41422 C 29.05,140.07886 27.924148,139.39846 27.831439,138.90224 27.738731,138.406 27.523648,122.1 27.353477,102.66666 L 27.044076,67.333332 15.855371,66.666665 4.6666667,65.999998 4.2189497,62.065751 C 3.5784053,56.437057 6.7772836,54.666665 17.588173,54.666665 h 9.078494 l 0.04684,-6.333333 c 0.05653,-7.643776 2.820729,-21.082705 5.278049,-25.660719 2.916675,-5.4338 12.546149,-14.3043919 18.003387,-16.5845714 7.927408,-3.3122823 26.071373,-2.1352097 34.671724,2.2492953 3.666666,1.8692861 8.007221,4.8367101 9.645677,6.5942761 6.115466,6.56004 11.549606,29.764613 8.364236,35.716532 -2.36683,4.422467 -0.17181,5.583683 7.39813,3.913779 16.04527,-3.539535 19.57956,-2.827964 21.29223,4.286835 0.62278,2.58716 0.11265,4.198862 -1.9319,6.103653 -2.46908,2.300294 -3.65694,2.4467 -10.67768,1.316042 -4.34475,-0.699701 -9.48787,-0.873541 -11.42915,-0.38631 -3.46534,0.869742 -3.51428,1.036692 -2.6881,9.16853 1.58999,15.649679 1.68742,58.236776 0.13808,60.355626 -0.80559,1.10171 -3.24312,2.13598 -5.416742,2.2984 L 95.409411,138 95.154539,126.66666 C 94.249832,86.437198 93.329852,68.796517 92.070896,67.537561 90.073269,65.539934 42.886443,66.157748 40.408849,68.213968 c -1.531796,1.271278 -1.711597,7.474177 -1.040616,35.899842 0.789196,33.43375 0.738962,34.40167 -1.857562,35.79128 -2.772659,1.48388 -3.303324,1.52152 -7.177338,0.50913 z m 54.177768,-85.928021 7.844434,-0.24259 -0.830798,-9.828313 C 89.891485,25.093943 82.035085,16.784744 65.619361,17.016877 54.637237,17.172174 47.018549,21.409486 43.04656,29.57127 c -3.497643,7.187077 -6.563736,22.111553 -4.887068,23.788221 1.091572,1.091572 31.535939,2.50524 36.507175,1.69519 1.1,-0.179241 5.529994,-0.435058 9.844434,-0.568482 z M 211.642,133.28351 C 186.78975,129.103 169.13241,101.44832 176.60513,78.409242 181.159,64.369286 193.82057,49.730865 204.20652,46.498466 c 2.45308,-0.763468 10.54541,-1.634384 17.98295,-1.93537 16.57785,-0.670878 19.96052,0.542635 30.84453,11.065293 7.05204,6.817907 8.31188,8.856199 10.9432,17.704943 3.37861,11.361758 3.06048,19.002588 -1.35065,32.439548 -3.03191,9.23564 -4.6091,11.25682 -14.53303,18.62418 -12.66296,9.40076 -21.12715,11.46423 -36.45152,8.88645 z m 14.95149,-9.21007 c 1.6493,-1.04347 1.55327,-1.99658 -0.66666,-6.61702 -2.61564,-5.44407 -5.78259,-8.0834 -6.09699,-5.08124 -0.0936,0.89365 -0.30776,2.89323 -0.47592,4.44351 -0.16817,1.55028 -0.72701,3.50028 -1.24187,4.33333 -2.20426,3.56658 4.05434,5.72234 8.48144,2.92142 z m -18.90185,-4.40678 c 0.74332,-0.91666 2.32552,-4.56333 3.51599,-8.10371 3.65392,-10.86649 5.87192,-14.229619 9.38453,-14.229619 2.26167,0 4.06811,1.455461 6.20576,4.999999 5.12008,8.48987 10.66453,15 12.77496,15 4.04049,0 9.76045,-5.3684 9.76045,-9.16057 0,-3.22729 -1.22037,-4.24969 -10.63422,-8.90921 -10.50234,-5.198278 -11.82438,-6.779719 -9.88738,-11.827448 0.85018,-2.215547 6.77771,-5.319879 12.62552,-6.612164 1.89048,-0.417772 5.00131,-2.209101 6.91292,-3.980733 4.38359,-4.062569 3.7484,-6.841028 -3.42764,-14.99345 l -5.44134,-6.181692 -3.07392,3.573653 c -1.69067,1.965509 -3.07394,4.491692 -3.07394,5.61374 0,1.122046 -2.25,5.281481 -5,9.243186 -7.28125,10.489511 -9.15242,9.936192 -16.11502,-4.76531 -3.62224,-7.648349 -6.44698,-12 -7.78942,-12 -1.15842,0 -5.38758,3.415088 -9.39813,7.589082 -6.72796,7.002174 -7.10741,7.723978 -4.90648,9.333334 1.31197,0.959338 3.43531,1.74425 4.71853,1.74425 1.28323,0 2.71102,0.61141 3.17286,1.358688 0.46184,0.747277 3.75289,2.834907 7.31345,4.639176 7.43399,3.767088 9.73305,8.094219 5.83428,10.980848 -1.3732,1.016713 -5.91324,3.67817 -10.08896,5.914353 -4.17572,2.236177 -8.53265,5.104947 -9.68208,6.375037 -1.91525,2.11635 -1.79131,2.63321 1.48385,6.18724 3.57548,3.87993 11.0514,9.68947 12.6272,9.81261 0.4602,0.036 1.44491,-0.68462 2.18823,-1.60129 z M 193.35788,93.860259 c 7.19603,-3.762705 8.45431,-5.860261 3.51544,-5.860261 -1.71968,0 -4.21267,-1.2 -5.53999,-2.666667 -1.32732,-1.466666 -3.1992,-2.666666 -4.15973,-2.666666 -3.87021,0 -6.07283,9.900771 -2.90693,13.066666 2.03346,2.033465 1.3513,2.174012 9.09121,-1.873072 z m 61.80173,-2.193594 c 0.44219,-1.65 0.81218,-3.75 0.82219,-4.666667 0.0216,-1.980304 -4.79793,-2.248872 -5.9818,-0.333333 -0.45323,0.733333 -2.03263,1.333333 -3.50979,1.333333 -3.84897,0 -2.65365,4.314872 1.51679,5.4753 5.49581,1.529212 6.31352,1.322442 7.15261,-1.808633 z M 224.8774,62.121191 c 2.93719,-6.159348 1.69024,-8.787859 -4.16889,-8.787859 -2.58968,0 -4.70851,0.443696 -4.70851,0.985991 0,2.095945 4.72009,12.337607 5.68824,12.342345 0.56187,0.0028 1.99699,-2.040467 3.18916,-4.540477 z"
       id="path243" />
  </g>
</svg>
