<?xml version="1.0" encoding="UTF-8" standalone="no"?>
<!-- Created with Inkscape (http://www.inkscape.org/) -->

<svg
   version="1.1"
   id="svg205"
   width="110.66667"
   height="209.33333"
   viewBox="0 0 110.66667 209.33333"
   xmlns="http://www.w3.org/2000/svg"
   xmlns:svg="http://www.w3.org/2000/svg">
  <defs
     id="defs209" />
  <g
     id="g211">
    <path
       style="fill:#000000;stroke-width:1.33333"
       d="m 48.000001,204.08305 c -9.508773,-1.11283 -16.364305,-4.86329 -24.939886,-13.64391 -8.327341,-8.52644 -10.991629,-14.43825 -12.016564,-26.66368 -1.449575,-17.2905 4.750663,-29.21152 21.078294,-40.52657 10.363387,-7.18183 28.200429,-9.13388 41.876263,-4.58286 4.767708,1.5866 8.668561,3.42039 8.668561,4.0751 0,0.65471 1.726738,2.08332 3.837196,3.17468 5.427132,2.80648 12.90197,14.72716 14.683905,23.41752 1.62159,7.90835 -0.42754,23.07504 -4.403135,32.58999 -3.278283,7.84604 -12.595032,15.92826 -22.900806,19.86632 -9.355295,3.57486 -12.530332,3.85618 -25.883828,2.29341 z m 16.000001,-10.87723 c 0,-3.02489 -4.773287,-10.53916 -6.694787,-10.53916 -0.648928,0 -1.743001,1.95 -2.431273,4.33334 -0.688272,2.38333 -1.680668,5.38333 -2.205324,6.66666 C 51.841728,195.68928 52.532696,196 57.85735,196 c 5.347199,0 6.142652,-0.36184 6.142652,-2.79418 z m -18.763441,-3.38564 c 1.519892,-1.93222 2.76344,-4.55665 2.76344,-5.83206 0,-1.2754 1.533572,-5.06278 3.407938,-8.41638 2.532745,-4.53157 3.988001,-5.8912 5.666667,-5.29429 3.687338,1.31116 5.644091,3.27193 8.283031,8.30001 1.372836,2.61574 3.949206,6.52715 5.725266,8.69204 3.188346,3.88638 3.274285,3.90663 6.79251,1.6014 1.95982,-1.28412 4.536983,-4.37657 5.727027,-6.87213 2.723452,-5.71113 1.723081,-7.06447 -9.00802,-12.18631 -7.884869,-3.76337 -10.794606,-7.58582 -8.545137,-11.22553 0.531847,-0.86055 5.326007,-3.55111 10.653689,-5.979 5.32768,-2.42791 10.049188,-5.00091 10.492239,-5.71777 1.095534,-1.77262 -4.18451,-11.39499 -8.545191,-15.57278 -4.387204,-4.20321 -7.335415,-3.32069 -9.355597,2.80052 -0.825674,2.50182 -2.054696,4.54876 -2.731157,4.54876 -0.676461,0 -1.229931,0.96 -1.229931,2.13334 0,1.17333 -2.17157,4.3049 -4.825712,6.95904 l -4.825711,4.82572 -3.135754,-3.93262 c -1.724666,-2.16293 -3.517821,-5.7445 -3.984787,-7.95904 C 47.311873,134.7675 42.795164,128 40.089857,128 c -3.04268,0 -14.756523,12.68012 -14.756523,15.9738 0,1.84154 3.036382,3.97157 11.333334,7.95032 14.59224,6.99762 14.682899,8.3905 1.125401,17.29088 -5.614363,3.68577 -10.79398,6.89674 -11.510262,7.1355 -2.71028,0.90343 0.842131,6.6156 7.278062,11.70291 3.673776,2.90396 7.182166,5.27992 7.796422,5.27992 0.614257,0 2.360378,-1.58092 3.88027,-3.51315 z M 29.313304,165.21897 c 3.677684,-2.26291 6.686697,-4.55177 6.686697,-5.08639 0,-1.55072 -9.10546,-5.46592 -12.711903,-5.46592 -3.096684,0 -3.288097,0.42691 -3.288097,7.33334 0,4.03333 0.590986,7.33333 1.313302,7.33333 0.722318,0 4.322318,-1.85147 8.000001,-4.11436 z m 60.66022,0.96527 c 2.583197,-1.88888 4.260104,-11.51758 2.005868,-11.51758 -0.965324,0 -11.977354,4.74867 -14.466568,6.23836 -0.83295,0.49848 7.073219,7.0083 8.565672,7.05284 0.776505,0.0232 2.529268,-0.77496 3.895028,-1.77362 z m -28.556991,-33.7002 c 3.205512,-7.03654 2.369501,-8.42851 -5.083198,-8.46362 -3.612448,-0.017 -4.332504,0.47865 -4.328349,2.97958 0.0047,2.81551 4.512769,11.66666 5.942093,11.66666 0.359117,0 1.920371,-2.78218 3.469454,-6.18262 z M 7.2752794,71.93585 C 5.0028027,69.424791 4.8305656,66.825376 5.134973,39.634195 5.5411507,3.3523922 4.9632589,4.6041491 20.666667,5.9913792 26.533334,6.5096372 47.430371,7.1391606 67.104525,7.3903201 92.018427,7.70837 103.45103,8.3244436 104.77119,9.4200797 107.37241,11.578899 107.58559,69.595867 105,71.690059 c -0.91666,0.742451 -9.166664,1.565919 -18.333331,1.829925 l -16.666667,0.480015 -0.44622,-3.15378 C 68.86015,65.943782 71.271375,64.718678 83.028377,63.999999 97.175411,63.135223 97.171126,63.143428 96.884312,37.476734 L 96.66667,18 87.333336,17.181286 C 82.200002,16.730993 63.600002,16.130993 46.000001,15.847953 L 14,15.333333 13.696879,36.666666 c -0.166716,11.733333 -0.466716,22.833333 -0.666666,24.666666 l -0.363546,3.333334 16.000001,0.666666 c 15.630143,0.651256 16.010401,0.740235 16.449989,3.849214 0.247495,1.7504 -0.352505,3.691213 -1.333333,4.312915 -0.980828,0.621704 -9.040331,1.139558 -17.910006,1.150787 C 11.299096,74.6647 9.5087247,74.403779 7.2752794,71.93585 Z"
       id="path382" />
  </g>
</svg>
