<?xml version="1.0" encoding="UTF-8" standalone="no"?>
<!-- Created with Inkscape (http://www.inkscape.org/) -->

<svg
   version="1.1"
   id="svg245"
   width="217.33333"
   height="197.33333"
   viewBox="0 0 217.33333 197.33333"
   xmlns="http://www.w3.org/2000/svg"
   xmlns:svg="http://www.w3.org/2000/svg">
  <defs
     id="defs249" />
  <g
     id="g251">
    <path
       style="fill:#000000;stroke-width:1.33333"
       d="m 61.953708,190.67357 c -4.302854,-1.65256 -6.331834,-4.9574 -5.522204,-8.99469 2.20128,-10.97687 3.458667,-14.98458 6.681979,-21.29767 1.952272,-3.82368 4.900395,-7.64461 6.551384,-8.49099 1.650989,-0.84636 5.101799,-3.48838 7.668465,-5.87117 6.085163,-5.64919 11.549148,-7.35239 23.586918,-7.35239 8.43539,0 11.00602,0.59871 17.83845,4.1546 4.55057,2.36831 9.87811,6.52452 12.391,9.66667 6.8291,8.53917 14.18363,23.06712 14.18363,28.01799 0,7.34178 -2.59655,8.47432 -21.33333,9.30492 -34.350221,1.52274 -59.42013,1.87133 -62.046292,0.86273 z m 66.379622,-13.11351 c 4.6441,-1.89234 4.62957,-4.33521 -0.0586,-9.847 -2.04889,-2.40885 -4.77632,-6.05048 -6.06095,-8.09252 -1.28463,-2.04202 -5.5416,-5.2307 -9.45991,-7.08593 -6.97143,-3.30081 -7.3214,-3.33235 -16.317807,-1.47035 -14.840033,3.07148 -20.422749,6.93904 -23.837655,16.51414 -3.169406,8.88673 -2.633051,10.86925 3.06825,11.3411 11.958253,0.98972 49.264712,0.0268 52.666662,-1.35944 z M 69.333332,61.908734 c -11.321356,-1.74755 -25.817405,-5.426562 -34.39607,-8.72952 -3.554457,-1.368536 -11.469345,-1.340774 -16.270596,0.05707 -4.562918,1.328457 -8.8400563,-0.82646 -10.7388073,-5.410451 -2.0514896,-4.952734 0.1125,-7.8239 5.9020673,-7.83082 4.968936,-0.006 10.454018,-3.155893 22.318499,-12.816994 C 40.996726,23.230109 45.563737,20 46.297338,20 c 0.733601,0 5.166809,-1.724118 9.851574,-3.831371 10.627516,-4.780362 22.435439,-6.8521005 38.626971,-6.7772277 12.996647,0.060099 18.088267,0.8317647 30.557447,4.6311677 4.03333,1.228971 10.03333,2.682443 13.33333,3.229936 3.3,0.547495 7.5,1.656537 9.33334,2.46454 11.84005,5.218251 38.92189,12.232641 49.24401,12.754552 11.9324,0.603329 15.16165,2.355777 13.81689,7.498137 -0.9438,3.609136 -3.38705,4.297249 -19.0609,5.368301 -8.49122,0.580235 -16.09859,1.877992 -19.33334,3.298114 -2.93333,1.287793 -9.23333,4.048118 -14,6.134055 -16.70092,7.308476 -63.832909,11.074743 -89.333328,7.13853 z m 25.333333,-8.399843 c 0,-0.636776 -2.371904,-1.475913 -5.270898,-1.864751 -10.423151,-1.398037 -18.729101,-11.233943 -18.729101,-22.179 0,-2.91927 -0.613482,-5.686914 -1.363292,-6.150323 -3.836138,-2.370863 -27.534253,9.55486 -30.684768,15.44165 -1.585471,2.962479 -0.701309,5.243532 2.032452,5.243532 1.004856,0 8.019447,2.038203 15.587977,4.52934 7.568529,2.491136 14.960964,4.821536 16.427631,5.178664 4.731977,1.152223 21.999999,0.995937 21.999999,-0.199112 z m 29.082105,-2.632848 c 13.34949,-1.296225 40.21324,-9.117065 40.23729,-11.714284 0.008,-0.827697 -1.63606,-2.149453 -3.65273,-2.937233 -6.38829,-2.495491 -24.8234,-8.503845 -29.51066,-9.618088 C 125.49815,25.340705 120,27.074928 120,30.020115 c 0,6.878002 -10.30969,18.775155 -17.5195,20.217116 -6.424983,1.284997 -4.356979,3.418181 2.5195,2.598905 3.48333,-0.41501 11.92028,-1.297052 18.74877,-1.960093 z M 103.33971,36.781495 c 3.84378,-3.843778 5.56664,-9.710065 3.71649,-12.654531 -0.99176,-1.578359 -3.94594,-2.227052 -11.453476,-2.515012 -9.191079,-0.352532 -10.257177,-0.126134 -11.648581,2.47373 -2.385516,4.457376 -0.452648,11.556367 3.770666,13.848816 5.588382,3.033417 11.894099,2.567804 15.614901,-1.153003 z"
       id="path273" />
  </g>
</svg>
