<?xml version="1.0" encoding="UTF-8" standalone="no"?>
<!-- Created with Inkscape (http://www.inkscape.org/) -->

<svg
   version="1.1"
   id="svg195"
   width="102.66667"
   height="108"
   viewBox="0 0 102.66667 108"
   xmlns="http://www.w3.org/2000/svg"
   xmlns:svg="http://www.w3.org/2000/svg">
  <defs
     id="defs199" />
  <g
     id="g201">
    <path
       style="fill:#000000;stroke-width:1.33333"
       d="M 9.0000003,101.82889 C 6.222085,101.00613 6.2704477,101.33969 6.6083462,85.333333 6.7554145,78.366667 7.7216357,70.116508 8.7555044,66.999649 9.7893733,63.882789 11.036396,58.782789 11.526666,55.666316 12.441653,49.850064 14.532871,46.495704 25.8311,32.721683 33.683066,23.149105 35.883192,21.3491 45.261739,16.82474 57.745595,10.80233 88.178579,6.7484133 94.985671,10.201115 l 3.652334,1.852542 -0.77998,13.639838 C 97.429035,33.195407 96.685484,53.133333 96.20569,70 l -0.872354,30.66667 -7.333333,0.0911 c -4.033334,0.0501 -22.933334,0.4671 -42.000002,0.92666 -19.066667,0.45956 -35.716667,0.52456 -37.0000007,0.14446 z M 50.946208,87.985885 c 1.266095,-1.56356 2.711666,-5.050021 3.21238,-7.747693 2.121634,-11.430599 14.006425,-22.050363 27.05126,-24.171904 L 86.000003,55.287243 86.159036,37.643621 86.318071,20 79.492369,20.047493 C 70.505473,20.110027 58.743167,22.997296 49.950787,27.299007 41.921235,31.2275 29.42788,43.060008 24.699795,51.214323 20.973839,57.640315 16.000001,77.659281 16.000001,86.229715 v 6.019162 L 32.32211,91.538799 c 14.575381,-0.634088 16.56846,-1.014307 18.624098,-3.552914 z m 32.770083,1.715087 c 2.927153,-0.654261 3.034241,-1.14384 2.666666,-12.191304 -0.357474,-10.743855 -0.580234,-11.537712 -3.347938,-11.931147 -7.276533,-1.034376 -20.36835,12.95973 -20.36835,21.772135 0,3.399864 0.148473,3.453387 9,3.244421 4.95,-0.116853 10.37233,-0.519206 12.049622,-0.894105 z"
       id="path521" />
  </g>
</svg>
