<?xml version="1.0" encoding="UTF-8" standalone="no"?>
<!-- Created with Inkscape (http://www.inkscape.org/) -->

<svg
   version="1.1"
   id="svg185"
   width="222.66667"
   height="204"
   viewBox="0 0 222.66667 204"
   xmlns="http://www.w3.org/2000/svg"
   xmlns:svg="http://www.w3.org/2000/svg">
  <defs
     id="defs189" />
  <g
     id="g191">
    <path
       style="fill:#000000;stroke-width:1.33333"
       d="m 28.239307,196.801 c -7.446975,-2.47268 -10.831455,-4.45301 -14.277831,-8.35429 -4.8773128,-5.5211 -5.7922303,-9.82075 -2.645457,-12.43234 2.906271,-2.412 8.187293,-0.5782 11.590328,4.02466 1.805151,2.4416 4.986053,4.54728 8.16054,5.40208 5.88379,1.58433 7.44212,0.9154 4.927086,-2.11504 -1.264668,-1.52383 -1.352964,-2.87587 -0.33388,-5.11251 1.071918,-2.35261 3.550897,-3.56347 10.95328,-5.35012 l 9.567796,-2.30932 7.100232,3.2506 7.100233,3.25059 54.809186,0.15685 L 180,177.36901 v -17.85458 c 0,-13.38452 0.45178,-18.22952 1.80452,-19.3522 3.02466,-2.51023 15.03219,-3.07219 20.13022,-0.9421 l 4.59962,1.92186 0.3995,21.01846 c 0.23288,12.25315 -0.15656,22.09124 -0.93386,23.59087 -1.28062,2.47069 -3.07274,2.56155 -45.33333,2.2982 -24.2,-0.1508 -53.81317,-0.42395 -65.807035,-0.607 -20.950529,-0.31973 -21.987863,-0.21009 -26.411003,2.79152 -14.74029,10.00304 -24.875622,11.65833 -40.209325,6.56696 z m 28.427361,-11.46767 c 0,-2.89333 -10.758578,-2.48565 -13.739509,0.52066 -2.130762,2.14889 -1.801373,2.25676 5.739508,1.87953 6.04436,-0.30236 8.000001,-0.88909 8.000001,-2.40019 z M 197.33639,174.66097 c 0.8134,-1.51985 1.26489,-7.98889 1.04691,-15 L 198,147.33333 h -4 -4 l -0.377,15 -0.377,15 h 3.3301 c 1.96784,0 3.91513,-1.09318 4.76029,-2.67236 z M 84.364112,134.51627 c -2.366405,-0.68378 -4.888964,-2.33895 -5.605685,-3.67815 -1.662409,-3.10624 -2.457295,-50.983231 -0.971626,-58.522168 1.647815,-8.361728 3.406747,-8.891557 28.622229,-8.621643 27.99736,0.299692 28.56136,0.543855 30.00495,12.989272 1.22376,10.550232 0.54692,50.875819 -0.90795,54.094529 -1.92368,4.25593 -39.775041,7.02264 -51.141918,3.73816 z M 124.88946,123.1985 c 2.48184,-3.30539 1.66538,-43.881756 -0.9353,-46.482436 -2.36073,-2.360731 -26.241897,-3.967729 -31.162387,-2.096963 -4.632665,1.761336 -5.955042,10.97369 -4.438113,30.918159 0.688665,9.05451 1.759217,17.00114 2.379007,17.65918 3.433826,3.64578 31.419653,3.64746 34.156793,0.002 z M 98.000001,57.323013 C 76.374433,56.339057 48.236799,51.330068 37.910997,46.626121 34.740417,45.181755 31.671998,44 31.09229,44 30.512582,44 27.029663,42.559085 23.352471,40.797967 19.675279,39.036848 14.693736,36.854559 12.282378,35.948433 1.4384972,31.873588 4.7145262,25.707933 20.372683,20.722061 c 7.55784,-2.406566 12.515092,-4.907493 15.659607,-7.900245 3.746256,-3.5654544 4.919143,-4.0608603 6.313355,-2.666648 1.971221,1.971221 11.718428,1.282606 22.321023,-1.5769224 16.918948,-4.5630532 64.222922,-6.0084385 82.533632,-2.5218363 30.41424,5.7912797 46.04502,10.4042917 62.13304,18.3369227 7.11877,3.510105 8.7409,4.916745 9.08237,7.875801 0.361,3.128463 -0.42847,4.020423 -6,6.77897 -13.01235,6.442589 -29.79908,11.618564 -37.68137,11.618564 -2.14174,0 -5.30206,0.535316 -7.02294,1.18959 -1.72086,0.654276 -12.10993,2.17588 -23.0868,3.381343 -10.97686,1.205463 -21.45793,2.372573 -23.29126,2.593579 C 119.5,58.052183 109,57.823509 98.000001,57.323013 Z M 137.33334,46.041259 c 8.43333,-1.013298 22.23333,-3.311927 30.66666,-5.108064 8.43334,-1.796138 18.33334,-3.697042 22,-4.224231 11.1546,-1.603799 13.11234,-5.244671 4.86212,-9.042297 -2.788,-1.283334 -7.37528,-2.333334 -10.19394,-2.333334 -2.81868,0 -6.07211,-0.800928 -7.22986,-1.77984 -1.15774,-0.978913 -5.40498,-2.443977 -9.43832,-3.255698 -4.03333,-0.811723 -10.93333,-2.211948 -15.33333,-3.111612 -4.95844,-1.01385 -19.18152,-1.613782 -37.40995,-1.577962 -24.246615,0.04765 -30.132835,0.43161 -33.527405,2.18701 -2.264596,1.171068 -7.930118,2.423718 -12.590049,2.783666 -4.659929,0.359948 -13.272598,1.867735 -19.139265,3.350639 -5.866667,1.482904 -11.866667,2.726661 -13.333334,2.763907 -1.466666,0.03724 -4.057267,0.839296 -5.756888,1.782334 -2.435965,1.351602 -2.718256,1.998715 -1.333333,3.056492 6.013872,4.593275 34.471359,11.201811 62.423555,14.496302 18.678099,2.201429 27.097569,2.203786 45.333339,0.01267 z"
       id="path660" />
  </g>
</svg>
