<?xml version="1.0" encoding="UTF-8" standalone="no"?>
<!-- Created with Inkscape (http://www.inkscape.org/) -->

<svg
   version="1.1"
   id="svg175"
   width="208"
   height="209.33333"
   viewBox="0 0 208 209.33333"
   xmlns="http://www.w3.org/2000/svg"
   xmlns:svg="http://www.w3.org/2000/svg">
  <defs
     id="defs179" />
  <g
     id="g181">
    <path
       style="fill:#000000;stroke-width:1.33333"
       d="m 90.222223,205.77777 c -0.48889,-0.48888 -0.88889,-3.12384 -0.88889,-5.85545 0,-4.04712 -0.555381,-5.10059 -3,-5.69052 -1.65,-0.39818 -20.232473,-0.77532 -41.294384,-0.83811 -21.061912,-0.0628 -39.2119113,-0.46625 -40.3333333,-0.89657 -1.121422,-0.43034 -2.038949,-2.14544 -2.038949,-3.81135 0,-5.38703 5.1689396,-6.25072 36.2022523,-6.04917 15.655428,0.10173 32.955612,4e-5 38.444852,-0.22587 9.653096,-0.39727 10.038016,-0.54193 11.73596,-4.41073 3.086464,-7.03259 3.919113,-8.00882 6.460457,-7.57447 3.270185,0.55892 5.823142,3.99141 5.823142,7.82931 0,1.84754 0.79971,3.07849 2,3.07849 1.2092,0 2,-1.23629 2,-3.12668 0,-3.23207 3.6859,-7.53999 6.45128,-7.53999 0.86604,0 2.92969,2.85 4.58587,6.33334 l 3.01123,6.33333 34.64248,-0.27671 c 19.05336,-0.1522 37.19094,-0.32413 40.30574,-0.38206 6.83403,-0.12707 11.0034,1.86721 11.0034,5.2633 0,6.69295 1.41868,6.47984 -44.29548,6.65388 -23.52244,0.0896 -43.26247,0.46839 -43.86673,0.84184 -0.60426,0.37346 -1.73247,3.03283 -2.50714,5.90972 -1.31626,4.88823 -1.61645,5.13598 -4.58455,3.78362 -2.10137,-0.95746 -3.4674,-3.00012 -4.03709,-6.03682 -0.60434,-3.22141 -1.49138,-4.46553 -2.97544,-4.17324 -2.16777,0.42698 -3.04243,1.69798 -5.562553,8.08314 -1.360696,3.44754 -5.162243,4.89765 -7.282124,2.77777 z M 166.19904,102.65384 c -4.85612,-0.62033 -8.69883,-1.93849 -10.17944,-3.491842 C 152.54733,95.51911 148,82.122624 148,75.536133 c 0,-7.263227 5.16155,-20.486253 10.67457,-27.346479 2.3513,-2.925865 3.88592,-5.949427 3.41028,-6.719025 -1.53797,-2.488484 -9.20746,-5.346052 -18.08485,-6.738216 -12.78786,-2.00541 -20.59873,-4.569263 -21.04937,-6.909289 -0.46155,-2.396598 12.2751,-19.2838911 16.75185,-22.2109913 2.90911,-1.902107 3.38212,-1.6286353 11.33333,6.5524733 4.56364,4.695583 10.39752,11.123219 12.96419,14.283635 2.56667,3.160416 5.76347,6.348616 7.104,7.084889 3.71373,2.039728 11.23861,-2.096455 13.87605,-7.627213 1.82454,-3.826076 2.88972,-4.572584 6.52463,-4.572584 5.03499,0 8.49532,3.883729 8.49532,9.534771 0,4.756473 -2.55203,7.103311 -10.64883,9.792635 -8.1915,2.720784 -8.5984,5.218238 -2.13668,13.114864 2.86186,3.49738 5.35199,8.666889 6.71704,13.944592 3.36527,13.011145 0.6168,23.129324 -8.52665,31.389875 -5.66843,5.12109 -6.15513,5.2109 -19.20584,3.54377 z m 14.01772,-9.653841 c 6.68852,-5.412042 8.83073,-20.246431 4.30195,-29.790147 -2.6787,-5.644912 -11.01304,-13.876519 -14.04972,-13.876519 -3.414,0 -7.41715,5.935005 -9.73152,14.427766 -1.13494,4.164728 -2.69435,9.495571 -3.46538,11.846317 -1.54326,4.705223 0.52459,10.302603 5.92431,16.036213 3.20744,3.405772 13.47624,4.224103 17.02036,1.35637 z M 152.2516,25.105401 c -3.49857,-5.525619 -9.60689,-9.4137 -11.85633,-7.546828 -0.95074,0.789037 -1.7286,2.042343 -1.7286,2.785125 0,3.357788 12.12885,10.863342 15.05829,9.318344 0.58207,-0.306982 -0.0809,-2.357472 -1.47336,-4.556641 z M 41.731399,100.05398 c -7.041986,-4.293752 -8.945143,-9.520276 -9.008844,-24.740435 -0.05341,-12.761538 0.131693,-13.647595 4.178332,-19.999999 2.328821,-3.655784 5.178821,-7.69688 6.333333,-8.980213 1.154512,-1.283334 2.099113,-3.138542 2.099113,-4.122686 0,-2.457856 -16.266965,-8.459622 -25.913244,-9.560802 C 8.1858093,31.367385 5.3333333,30.040933 5.3333333,26.099254 5.3333333,24.28421 6.1057901,22.31936 7.049904,21.73292 7.9940177,21.146481 11.437521,17.457866 14.702133,13.536 21.804759,5.0034227 26.691625,2.0132622 29.648816,4.390469 32.81854,6.9385254 48.770321,25.78998 50.51458,29.049157 c 2.341305,4.374768 6.712,3.630353 13.988373,-2.382491 8.471774,-7.000666 15.780679,-6.944098 19.578142,0.151528 2.709934,5.063557 -0.679211,10.064549 -8.550528,12.617083 -3.775146,1.224214 -7.364952,2.683144 -7.977348,3.242065 -0.612398,0.558921 0.581836,3.635169 2.65385,6.836105 5.52736,8.538901 8.271734,17.922208 8.371399,28.622708 0.100253,10.763025 -2.518019,16.137219 -10.474041,21.498781 -6.031291,4.064484 -20.029522,4.286904 -26.373028,0.419044 z M 65.899455,88.528559 c 5.123985,-6.129927 5.12978,-6.150522 4.349606,-15.456427 -0.691233,-8.245029 -1.408234,-10.148805 -6.224998,-16.528561 -2.99408,-3.965631 -6.251462,-7.210238 -7.238624,-7.210238 -0.987163,0 -4.580911,3.261127 -7.986107,7.246951 -7.15776,8.378247 -10.280805,19.290836 -7.465759,26.08696 2.19143,5.29058 8.02209,10.367851 12.666427,11.029776 2.2,0.313552 4.622943,0.659992 5.384317,0.769869 0.761374,0.10988 3.693186,-2.562372 6.515138,-5.93833 z M 32,22.225306 c 0,-0.976081 -1.479547,-2.566524 -3.287881,-3.534314 -2.66628,-1.42695 -3.674592,-1.43868 -5.333334,-0.06204 -2.682877,2.22659 -2.587568,3.70052 0.287882,4.451953 C 28.427911,24.325149 32,23.958398 32,22.225313 Z"
       id="path799" />
  </g>
</svg>
