<?xml version="1.0" encoding="UTF-8" standalone="no"?>
<!-- Created with Inkscape (http://www.inkscape.org/) -->

<svg
   version="1.1"
   id="svg165"
   width="104"
   height="205.33333"
   viewBox="0 0 104 205.33333"
   xmlns="http://www.w3.org/2000/svg"
   xmlns:svg="http://www.w3.org/2000/svg">
  <defs
     id="defs169" />
  <g
     id="g171">
    <path
       style="fill:#000000;stroke-width:1.33333"
       d="M 42.666667,198.17532 C 29.04586,195.80426 18.401313,187.28132 11.123384,172.91901 6.2672124,163.33582 6.2071991,147.78532 10.98605,137.33333 c 6.839263,-14.95839 22.939255,-25.8951 40.953942,-27.81996 9.752428,-1.04205 16.588652,0.95788 27.522628,8.05171 11.783285,7.64486 19.965603,26.30364 17.905415,40.83113 -2.683919,18.92575 -8.071215,27.06911 -24.232748,36.62985 -9.32312,5.51532 -14.062367,6.00518 -30.46862,3.14926 z m 16.557617,-6.98464 c 3.109061,-1.19306 2.570695,-5.10411 -1.342809,-9.75504 -5.000648,-5.94294 -5.147374,-5.86616 -8.5038,4.45012 -0.695332,2.13716 -0.954354,4.38716 -0.575602,5 0.799823,1.29413 7.345308,1.48564 10.422211,0.30492 z m -16.584716,-8.4709 c 1.481571,-2.90412 2.693765,-6.52522 2.693765,-8.04692 0,-2.78264 3.482556,-9.21917 5.908356,-10.91996 0.716807,-0.50257 2.033666,-0.50257 2.926355,0 2.407116,1.35516 10.636421,12.47418 11.688848,15.79335 0.502175,1.58379 1.805165,3.62 2.895536,4.52492 2.67524,2.22025 10.072584,-1.72207 13.215869,-7.04323 2.163815,-3.66304 2.161262,-4.00814 -0.04772,-6.44904 C 80.636944,169.1605 79.121307,168 78.552495,168 c -0.568814,0 -4.68896,-2.25 -9.15588,-5 -6.727302,-4.14158 -8.059434,-5.55716 -7.759144,-8.24526 0.251029,-2.24713 1.46634,-3.53804 3.951445,-4.19722 6.056325,-1.60647 18.62036,-8.21812 19.380357,-10.19864 0.961218,-2.5049 -1.604294,-7.05102 -7.272154,-12.88637 -6.550467,-6.74403 -9.862622,-6.07322 -12.599624,2.55181 -1.737703,5.47597 -10.063674,17.98638 -11.757731,17.6669 -1.103537,-0.2081 -3.410487,-3.37377 -5.126555,-7.03481 -7.706826,-16.44161 -8.647713,-17.98975 -10.933336,-17.98975 -2.773914,0 -14.053248,11.04804 -15.008433,14.70068 -0.733336,2.80428 4.256499,6.39328 12.816279,9.21826 5.209281,1.71922 10.494524,7.21432 9.480469,9.8569 -0.338879,0.8831 -5.405352,4.5907 -11.258832,8.23911 -7.690395,4.79333 -10.623441,7.37573 -10.573303,9.30925 0.07111,2.74204 12.517096,13.9135 15.570182,13.97572 0.901762,0.0184 2.851762,-2.34268 4.333333,-5.2468 z m 45.774601,-24.38645 c 0.42091,-3.11667 0.243851,-6.19272 -0.393461,-6.83569 -1.243469,-1.25448 -14.687375,3.01633 -14.687375,4.66585 0,1.12768 10.618584,7.50584 12.824442,7.70313 0.820109,0.0733 1.835486,-2.41662 2.256394,-5.53329 z m -67.233608,1.87863 c 1.160147,-1.60962 2.870728,-2.24415 4.968675,-1.8431 1.759681,0.33638 4.143984,-0.17232 5.298451,-1.13044 1.838717,-1.526 1.383046,-2.11672 -3.67433,-4.76332 -3.175346,-1.66169 -6.802246,-3.04838 -8.059778,-3.08152 -4.217298,-0.1112 -6.728125,8.39187 -3.446912,11.67308 2.148062,2.14807 2.835846,2.02843 4.913894,-0.8547 z M 58.547725,126.2457 c 1.532084,-3.16487 2.785608,-6.16487 2.785608,-6.66667 0,-0.5018 -2.7,-0.91237 -6,-0.91237 -5.159568,0 -6,0.3828 -6,2.73288 0,3.31268 3.608416,10.60046 5.248632,10.60046 0.649083,0 2.433675,-2.58944 3.96576,-5.7543 z M 48,93.11622 C 36.924611,91.411945 34.782173,90.401219 28.117137,83.736184 18.278199,73.897245 15.671779,68.131866 14.975349,54.666666 14.393201,43.411034 14.422945,43.283055 19.313771,35.999999 22.022293,31.966666 27.334727,25.77296 31.119179,22.236208 L 38,15.805749 25.976955,16.462857 C 19.322064,16.826573 12.922392,16.542697 11.643621,15.827061 8.8045335,14.238228 8.6813213,11.509155 11.329133,8.8613428 12.99445,7.1960263 19.206039,6.8438227 48.841132,6.7343731 68.37504,6.6622296 84.898949,6.2684639 85.560929,5.8593379 88.146863,4.2611435 97.068,6.8413606 97.731721,9.3794366 c 1.081487,4.1356114 -1.856705,5.1595804 -15.464973,5.3895924 -7.113379,0.120232 -12.933415,0.746387 -12.933415,1.391455 0,0.645066 0.650672,1.172849 1.445939,1.172849 0.795267,0 4.932007,2.738809 9.192755,6.086244 10.690913,8.399258 16.755381,20.345516 15.42647,30.388258 -2.06004,15.567984 -3.371245,19.02599 -9.809588,25.870558 C 75.241772,90.678377 62.277111,95.313172 48,93.11622 Z M 69.838788,81.738657 C 82.15298,75.370856 86.666667,67.837948 86.666667,53.654554 86.666667,41.520827 80.790628,31.88573 70,26.325778 62.483207,22.452694 48.083017,22.509853 40.410576,26.443228 26.556444,33.545725 19.740385,53.197564 26.556637,66.38645 c 3.32537,6.434314 13.262296,16.051566 18.216048,17.63003 5.301942,1.689411 19.972207,0.356285 25.066103,-2.277823 z"
       id="path938" />
  </g>
</svg>
