<?xml version="1.0" encoding="UTF-8" standalone="no"?>
<!-- Created with Inkscape (http://www.inkscape.org/) -->

<svg
   version="1.1"
   id="svg75"
   width="66.666664"
   height="166.66667"
   viewBox="0 0 66.666664 166.66667"
   xmlns="http://www.w3.org/2000/svg"
   xmlns:svg="http://www.w3.org/2000/svg">
  <defs
     id="defs79" />
  <g
     id="g81">
    <path
       style="fill:#000000;stroke-width:1.33333"
       d="m 7.6666664,161.24436 c -3.4947787,-2.06221 -2.8178159,-7.67385 1.5220142,-12.61665 2.9476614,-3.3572 4.0752394,-6.2856 4.7893254,-12.43821 0.513688,-4.42596 0.576081,-8.6263 0.138653,-9.33407 -0.437429,-0.70778 -1.996214,-7.18979 -3.463967,-14.40448 C 9.1849384,105.23626 6.9713544,95.34781 5.733616,90.476612 3.8150821,82.926102 3.6803724,79.336251 4.8202207,66.135737 6.3325937,48.621038 8.0261745,45.031332 16.75059,40.848173 c 7.250913,-3.476648 11.07442,-1.879602 15.140554,6.324084 2.880319,5.811227 3.232197,8.301667 3.296808,23.333334 0.06935,16.133071 -0.146329,17.488247 -5.224479,32.827749 -4.024595,12.15704 -5.255307,17.92147 -5.124025,24 0.196986,9.12054 1.291155,12.07716 7.825461,21.14558 4.241512,5.88646 6.178173,12.71975 3.668423,12.94362 -11.132209,0.99301 -26.8474069,0.89533 -28.6666656,-0.17818 z m 13.6666656,-9.83233 c 0,-1.05672 -0.599999,-2.29213 -1.333333,-2.74536 -0.733333,-0.45323 -1.333333,-0.53771 -1.333333,-0.18773 0,0.34996 -0.364193,1.58537 -0.809319,2.74534 -0.531081,1.38399 -0.07269,2.10906 1.333334,2.10906 1.178458,0 2.142651,-0.86459 2.142651,-1.92131 z M 25.209804,91.210471 C 28.854135,71.89356 28.90292,58.163914 25.347946,52.333334 23.894799,49.950001 21.87051,48.000001 20.849523,48.000001 c -2.310864,0 -5.327781,3.480808 -4.365881,5.037193 0.392268,0.634704 -0.201593,2.910987 -1.319692,5.058407 -1.322675,2.540328 -1.743044,5.534784 -1.203228,8.571067 0.456324,2.566667 1.349319,11.766568 1.984433,20.444227 0.635115,8.677658 1.542208,17.321295 2.015762,19.208085 1.569218,6.25227 4.288046,0.58555 7.248887,-15.108509 z M 49.949675,160.42846 C 49.145906,160.16102 48.825699,139.00612 49.092426,103.79314 49.326595,72.878503 49.169511,46.19547 48.74335,44.497509 47.501667,39.550253 40.898622,37.215483 20.868476,34.641242 7.8167498,32.963855 5.6798415,31.209815 5.1208709,21.715127 4.8710585,17.471807 4.8476247,12.732204 5.0687961,11.182675 5.6727468,6.9513875 10.95785,5.088488 17.927161,6.6503432 21.933667,7.5482203 27.228011,7.4638447 34.876799,6.380218 48.69879,4.4220148 55.574987,4.3749897 57.426006,6.2260083 58.854288,7.6542902 59.429104,156.35432 58.015187,158.6421 c -0.745972,1.207 -6.185728,2.41181 -8.065512,1.78636 z M 48.666665,22.648407 v -5.98174 H 32.145313 c -14.504498,0 -16.701856,0.294376 -17.999999,2.411425 -2.293097,3.739655 1.295112,5.472091 15.39711,7.433938 6.851667,0.953192 13.057574,1.937464 13.790908,2.187272 3.951345,1.346012 5.333333,-0.221912 5.333333,-6.050895 z"
       id="path1077" />
  </g>
</svg>
