<?xml version="1.0" encoding="UTF-8" standalone="no"?>
<!-- Created with Inkscape (http://www.inkscape.org/) -->

<svg
   version="1.1"
   id="svg185"
   width="212"
   height="216"
   viewBox="0 0 212 216"
   xmlns="http://www.w3.org/2000/svg"
   xmlns:svg="http://www.w3.org/2000/svg">
  <defs
     id="defs189" />
  <g
     id="g191">
    <path
       style="fill:#000000;stroke-width:1.33333"
       d="m 159.32272,205.79817 c -26.26333,-13.94894 -50.22162,-55.25796 -43.26584,-74.59921 1.56975,-4.36485 11.50608,-11.07932 17.94087,-12.12355 4.49653,-0.72968 26.59948,6.14406 32.50108,10.10744 1.92564,1.29322 6.50117,4.33383 10.16784,6.75691 9.3399,6.17217 22.44308,20.1244 25.99369,27.678 2.33751,4.97285 2.94919,8.50791 2.80056,16.18516 -0.20248,10.45872 -1.00211,12.75357 -7.09221,20.35421 -7.52623,9.39294 -26.75214,12.17054 -39.04599,5.64104 z m 19.34395,-7.00954 c 2.56666,-0.65807 6.33528,-1.57083 8.37469,-2.02835 8.80569,-1.97545 12.22551,-20.59017 5.92108,-32.22965 C 189.90865,158.89259 174.56073,144 171.80411,144 c -0.85382,0 -3.41503,-1.42069 -5.69158,-3.15711 -2.27656,-1.73641 -6.23318,-3.60962 -8.79253,-4.16272 -2.55933,-0.55308 -6.87943,-2.13238 -9.60021,-3.50955 -5.98935,-3.03161 -13.14622,-3.21379 -18.45267,-0.46971 -3.34385,1.72917 -3.93379,2.82012 -3.93379,7.27465 0,3.32233 1.36333,7.58001 3.72476,11.63243 2.04861,3.51561 4.49538,9.01772 5.43726,12.2269 0.96057,3.2729 4.1814,8.54188 7.33534,12 3.09258,3.39082 6.30716,7.75851 7.14354,9.706 1.07225,2.49676 4.7369,5.1507 12.42761,9 12.29245,6.15258 11.03861,5.8441 17.26483,4.24774 z M 24,200 7.3333333,199.33333 6.9113068,194.94348 C 5.4429485,179.66987 25.670703,161.33333 43.988001,161.33333 c 8.800074,0 20.468934,4.54583 26.085022,10.16191 7.973794,7.9738 13.876577,22.39759 10.775736,26.33113 C 79.084073,200.06495 51.750921,201.11004 24,200 Z m 43.666667,-9.282 c 5.408688,-0.0925 3.81604,-5.80807 -3.333334,-11.96228 -7.557881,-6.50587 -14.262797,-8.61185 -23.514561,-7.38583 -11.940881,1.58239 -20.041673,7.3598 -22.725597,16.20771 -0.76345,2.5168 -0.287959,2.99284 3.511912,3.51589 2.417202,0.33274 13.094913,0.39592 23.728246,0.14042 10.633334,-0.25551 20.683334,-0.48767 22.333334,-0.51591 z m -0.773678,-76.84288 c -1.568944,-1.09893 -4.367065,-4.58225 -6.218045,-7.74071 -3.386812,-5.77916 -8.228308,-11.031615 -9.231527,-10.015125 -0.297129,0.30106 -2.651085,4.447385 -5.231014,9.214045 -7.245963,13.38761 -8.955512,12.83948 -22.816486,-7.31563 -1.721189,-2.502764 -1.960089,-2.523756 -4.328526,-0.380351 -1.378735,1.247739 -3.576052,5.242131 -4.882926,8.876421 -1.306874,3.6343 -3.215645,6.92996 -4.2417145,7.3237 -1.7675598,0.67828 -5.9493954,-2.32662 -5.9369398,-4.26604 0.017309,-2.69511 6.5900563,-18.940199 9.3954303,-23.221591 5.463724,-8.338407 9.759074,-6.491551 18.567712,7.983494 4.56198,7.496597 5.88117,8.344057 7.264308,4.666667 0.482687,-1.283333 1.956075,-4.241232 3.274195,-6.573109 C 49.986955,79.194963 52.567972,78.32288 58.568892,87 c 2.155424,3.116667 4.859188,6.716667 6.008364,8 1.149176,1.283333 2.089411,2.933333 2.089411,3.666667 0,0.733333 0.857745,1.333333 1.906101,1.333333 1.048355,0 4.163891,-4.180141 6.923412,-9.289204 2.759521,-5.109063 5.802172,-9.590384 6.761445,-9.958492 2.460248,-0.944085 10.244476,6.261685 14.371004,13.303072 C 98.544708,97.32492 100.99488,100 102.07346,100 c 1.07858,0 3.53664,-3.327697 5.46237,-7.394883 2.19897,-4.644304 4.89227,-8.114178 7.2409,-9.3287 3.7288,-1.928237 3.76174,-1.906892 11.41402,7.394883 4.22094,5.130785 8.48538,9.3287 9.47654,9.3287 0.99116,0 2.66308,-1.95 3.71536,-4.333333 3.58294,-8.11498 9.31631,-15.031091 12.05347,-14.539971 3.88763,0.697545 5.55152,2.518112 10.09881,11.049701 2.29347,4.302982 4.93246,7.823603 5.86443,7.823603 0.93197,0 3.77029,-3.75 6.30737,-8.333333 4.05759,-7.330186 5.05754,-8.300034 8.30678,-8.056707 5.15556,0.386088 9.45472,4.888852 14.76414,15.46338 5.07539,10.10841 5.52712,12.63757 2.46696,13.81187 -1.98012,0.75984 -9.72477,-6.58669 -9.85709,-9.35037 -0.0297,-0.62251 -1.02255,-3.17251 -2.20611,-5.666668 -2.34164,-4.934648 -5.08124,-5.888539 -6.32276,-2.201505 -0.81966,2.434178 -4.12496,8.313393 -7.99077,14.213373 -1.24448,1.89931 -3.44509,3.45329 -4.89025,3.45329 -2.72416,0 -9.21692,-7.80401 -13.03432,-15.666663 -1.15714,-2.383334 -2.85072,-4.333334 -3.76354,-4.333334 -0.9128,0 -4.16818,4.544354 -7.23418,10.098567 -3.06599,5.55421 -6.43036,10.42698 -7.47639,10.82837 -2.76655,1.06162 -6.7013,-3.0499 -12.01915,-12.5591 -2.57376,-4.602313 -5.4391,-8.367837 -6.36742,-8.367837 -0.92832,0 -3.62306,4.198458 -5.98829,9.329907 -4.60011,9.98006 -8.52633,13.97369 -11.88818,12.0923 -1.114041,-0.62345 -4.766169,-5.20589 -8.115844,-10.18321 C 88.740643,99.595009 85.4,95.352977 84.666667,95.145588 83.933333,94.9382 81.393705,98.91894 79.023051,103.99168 c -4.920184,10.52823 -7.827496,12.89707 -12.130062,9.88344 z M 28.530687,77.629341 C 4.7570003,77.124917 5.1796484,77.578131 4.2992616,51.6455 3.7301257,34.881063 3.9288015,32.261675 5.9205597,30.269916 7.1690137,29.021463 9.6476191,28 11.428571,28 c 3.030912,0 3.238096,-0.463119 3.238096,-7.238095 0,-8.06352 2.17347,-11.4285717 7.38166,-11.4285717 3.650914,0 5.943256,3.4222017 5.96988,8.9123457 C 28.051891,25.191681 29.434977,28 32.822175,28 35.845527,28 36,27.577327 36,19.304748 c 0,-7.857467 0.304916,-8.83418 3.164676,-10.1371743 2.284765,-1.0410086 3.935417,-1.0294344 5.936715,0.041628 2.273869,1.2169373 2.843317,2.9788143 3.168658,9.8038413 0.356146,7.471277 0.702742,8.363766 3.396618,8.746358 3.204248,0.455076 3.222864,0.39565 3.606882,-11.513562 0.248523,-7.7072067 4.091104,-10.2876435 9.466464,-6.3570846 1.925379,1.4078716 2.754071,4.0387726 3.254839,10.3333336 0.583283,7.331752 1.023228,8.444579 3.338481,8.444579 2.40159,0 2.670535,-0.90186 2.70558,-9.072683 0.03808,-8.877405 1.262144,-11.5141193 5.372914,-11.5735669 4.092582,-0.059185 6.139286,3.5999439 6.361344,11.3729059 0.199313,6.97684 0.568237,7.988745 3.04127,8.341762 2.327299,0.332214 2.95941,-0.475524 3.651992,-4.666666 0.460654,-2.787631 0.844155,-6.977987 0.852226,-9.311902 0.01676,-4.8481109 3.513096,-6.8323554 7.901031,-4.4840063 2.13605,1.1431803 2.73111,3.0433653 3.05036,9.7405323 0.34794,7.299196 0.72388,8.32029 3.06328,8.32029 2.33941,0 2.71534,-1.021094 3.06329,-8.32029 0.31924,-6.697167 0.91431,-8.597352 3.05036,-9.7405323 6.01062,-3.2167859 9.16606,0.7779093 9.20148,11.6488003 0.01,3.073388 0.70923,6.015052 1.55381,6.537033 2.57207,1.589627 5.13106,-3.601329 5.13106,-10.408435 0,-5.555292 0.45268,-6.646668 3.29385,-7.9411901 4.89617,-2.2308441 7.36811,0.4622075 7.39323,8.0545411 0.026,7.839759 1.66699,10.729459 4.94163,8.701704 1.48449,-0.919236 2.5042,-3.412399 2.72668,-6.666667 C 148.35649,9.4307915 149.06272,8 153.21608,8 c 4.35953,0 5.45059,1.8682665 5.45059,9.333333 0,6.278595 1.08312,9.333334 3.30932,9.333334 1.73577,0 3.34154,-5.625503 3.37776,-11.833334 0.0293,-5.0209809 1.81957,-7.1666663 5.97958,-7.1666663 4.8176,0 5.95515,2.1560368 5.97959,11.3333333 0.018,6.770972 0.33196,7.666667 2.68708,7.666667 2.33856,0 2.66667,-0.88889 2.66667,-7.224284 C 182.66667,9.4943085 183.45713,8 188.71947,8 c 5.16257,0 6.53832,2.507201 6.58461,12 0.0284,5.834188 0.15821,6.018424 4.69592,6.666667 4.55341,0.650488 4.68773,0.844629 5.5348,8 1.34313,11.34567 1.27152,31.459096 -0.12507,35.132441 -2.18221,5.739667 -1.34834,5.655373 -68.07637,6.881624 -61.823023,1.136112 -88.856981,1.371811 -108.802647,0.948609 z m 57.223634,-8.546305 c 1.987284,-1.080615 13.076646,-1.6461 34.912349,-1.780303 29.78318,-0.183049 48.42308,-1.038021 68,-3.119013 l 8,-0.850387 0.3837,-10.780692 c 0.21106,-5.92938 -0.25893,-12.471009 -1.04441,-14.536953 l -1.42812,-3.756261 -18.28892,0.941866 C 166.23001,35.719319 133.1,36.449613 102.66667,36.824168 72.233333,37.198724 39.833333,37.616513 30.666667,37.752589 L 14,38 14.345271,50 c 0.513192,17.836164 0.42746,17.65478 8.841409,18.706033 3.951172,0.493666 17.354095,0.591736 29.784275,0.217934 12.430178,-0.373804 23.446786,-0.143803 24.481352,0.511112 2.561945,1.621798 4.850532,1.524752 8.302014,-0.352043 z"
       id="path213" />
  </g>
</svg>
