<?xml version="1.0" encoding="UTF-8" standalone="no"?>
<!-- Created with Inkscape (http://www.inkscape.org/) -->

<svg
   version="1.1"
   id="svg175"
   width="117.33333"
   height="197.33333"
   viewBox="0 0 117.33333 197.33333"
   xmlns="http://www.w3.org/2000/svg"
   xmlns:svg="http://www.w3.org/2000/svg">
  <defs
     id="defs179" />
  <g
     id="g181">
    <path
       style="fill:#000000;stroke-width:1.33333"
       d="m 36.615571,191.98912 c -2.617476,-0.45203 -4.526151,-1.93515 -5.734228,-4.45571 -1.66,-3.46348 -1.409553,-4.73965 3.006985,-15.32245 2.649794,-6.34936 4.808926,-12.25412 4.798071,-13.1217 -0.05564,-4.44792 22.114481,-17.71614 29.646932,-17.7429 2.016667,-0.007 3.666667,-0.61303 3.666667,-1.34636 0,-1.88996 2.747721,-1.65206 5.228345,0.45269 1.157744,0.98231 5.450939,3.10977 9.540436,4.72768 10.871138,4.30089 21.359371,15.49127 25.067091,26.74519 3.69408,11.21253 3.59668,14.1778 -0.555,16.89809 -2.60123,1.70439 -6.30878,2.18689 -15.999998,2.08225 -6.937815,-0.0749 -12.614208,0.3387 -12.614208,0.91912 0,1.13954 -39.585955,1.28059 -46.051093,0.1641 z m 55.713401,-10.08683 c 5.538203,-0.50185 10.841488,-1.38961 11.785078,-1.97277 5.00785,-3.09503 -12.497687,-23.94074 -21.711466,-25.85414 -12.071525,-2.50688 -15.315794,-2.36406 -21.537695,0.94811 -3.373889,1.79607 -8.638652,5.76988 -11.699472,8.83069 -4.698346,4.69835 -5.664768,6.60211 -6.204866,12.22302 l -0.639739,6.65789 15.600017,-0.16268 c 8.580009,-0.0895 16.003658,0.24096 16.497,0.73431 0.493341,0.49334 2.459541,0.58446 4.369334,0.20252 1.909793,-0.38196 8.003608,-1.1051 13.541809,-1.60695 z M 7.6666664,93.737457 C 3.2110915,88.745748 5.1498149,67.342727 12.010141,45.786586 13.595757,40.804349 21.100389,30.146729 28.909778,21.78675 37.973267,12.084253 64.46167,3.5686597 83.389919,4.2722658 L 93.999997,4.6666666 93.888371,27.333333 c -0.30193,61.309644 -0.385388,63.148713 -2.927498,64.509209 -1.30485,0.698335 -11.35485,1.58678 -22.333332,1.974324 C 57.64906,94.204409 39.966666,94.933254 29.333333,95.436524 11.178705,96.29577 9.8577423,96.192182 7.6666664,93.737457 Z M 49.561677,84.460015 c 1.341078,-1.213658 2.438322,-3.563914 2.438322,-5.222792 0,-4.4165 4.991925,-15.36604 8.850021,-19.412081 1.839876,-1.929504 5.851297,-4.525631 8.91427,-5.76917 3.062972,-1.243538 7.669041,-3.264954 10.235708,-4.492033 l 4.666666,-2.231053 0.371778,-16.813276 0.371776,-16.813274 -5.919063,-0.811298 c -6.221524,-0.852755 -15.573531,1.075591 -29.168883,6.014507 -10.724264,3.895907 -24.663605,18.195524 -30.536177,31.325411 -2.900273,6.484427 -7.234535,31.137931 -6.027342,34.283825 1.235745,3.220302 32.23582,3.169419 35.802924,-0.05877 z m 31.967242,-0.460016 h 3.804412 V 71.333332 58.666666 l -3.666667,0.02193 c -6.488927,0.03881 -13.706639,5.360988 -17.850536,13.162566 -6.342567,11.940939 -5.324299,14.122916 6.046125,12.955832 4.32424,-0.443849 9.574239,-0.806998 11.666666,-0.806998 z"
       id="path352" />
  </g>
</svg>
