<?xml version="1.0" encoding="UTF-8" standalone="no"?>
<!-- Created with Inkscape (http://www.inkscape.org/) -->

<svg
   version="1.1"
   id="svg165"
   width="117.33333"
   height="82.666664"
   viewBox="0 0 117.33333 82.666664"
   xmlns="http://www.w3.org/2000/svg"
   xmlns:svg="http://www.w3.org/2000/svg">
  <defs
     id="defs169" />
  <g
     id="g171">
    <path
       style="fill:#000000;stroke-width:1.33333"
       d="M 21.999999,77.707679 C 16.119596,76.275106 11.008836,68.680823 8.2885814,57.333331 6.6452485,50.478198 7.8511647,41.794001 11.144357,36.767953 14.272934,31.99314 13.96378,31.277652 7.9999998,29.49086 3.6740414,28.194772 2.6666666,27.27926 2.6666666,24.643881 c 0,-5.008823 5.3754808,-7.849988 12.9006794,-6.818546 7.259463,0.99502 8.987291,2.23547 13.928569,9.999656 l 3.707137,5.824993 0.921007,-3.824993 C 36.772474,18.825973 46.571429,7.7616008 55.591098,5.5857441 70.759149,1.9266846 89.684909,7.2241051 96.420612,17.014141 c 5.502508,7.997644 6.754438,11.965554 10.407448,32.985857 0.76466,4.4 2.54115,9.984296 3.94778,12.409547 3.13499,5.405259 3.26718,9.032817 0.36965,10.144701 -4.00425,1.536574 -6.82661,-0.576346 -9.70383,-7.26462 -1.56702,-3.642628 -3.150776,-6.622961 -3.519463,-6.622961 -0.368685,0 -2.539009,2.1283 -4.822942,4.729556 -5.630861,6.413195 -10.908172,8.328941 -24.003496,8.713639 -10.703037,0.31442 -17.212156,-1.062128 -19.044931,-4.027618 -1.824841,-2.952655 -5.005681,-1.228045 -6.973204,3.780778 -1.584328,4.033307 -2.940544,5.376228 -6.059405,6 -4.483587,0.896717 -10.975374,0.829569 -15.01822,-0.155341 z m 11.325827,-9.700175 c 2.24876,-2.248759 2.578868,-4.017602 2.138906,-11.461092 -0.286138,-4.841063 -1.182761,-9.464442 -1.992493,-10.274173 -1.074097,-1.074098 -1.47224,-0.958331 -1.47224,0.428078 0,1.045175 -1.579323,5.925748 -3.509606,10.845717 -1.930284,4.919969 -3.149115,9.884825 -2.708514,11.033014 1.099104,2.864219 4.354845,2.617558 7.543947,-0.571544 z M 78.386448,61.455442 C 91.784879,54.563614 97.053039,40.480393 90.796421,28.280215 85.939287,18.808975 78.516434,14.666666 66.401487,14.666666 c -10.027529,0 -16.583328,4.411804 -21.794196,14.666666 -4.840371,9.525735 -1.372735,22.923014 7.713733,29.802161 6.987334,5.289944 18.328953,6.299402 26.065424,2.319949 z M 64.04691,42.75432 c -2.166058,-4.047315 -1.626298,-7.862146 1.336785,-9.447941 5.95509,-3.187068 11.342629,3.020421 8.016099,9.236098 -1.903261,3.556276 -7.495213,3.682935 -9.352884,0.211843 z m -41.282517,6.96163 c 3.03494,-8.821203 2.627277,-11.049285 -2.02164,-11.049285 -6.258143,0 -8.0822,7.363502 -5.249528,21.191712 l 0.653813,3.19171 1.994636,-2.847742 c 1.097051,-1.566258 3.177273,-6.285136 4.622719,-10.486395 z"
       id="path491" />
  </g>
</svg>
