<?xml version="1.0" encoding="UTF-8" standalone="no"?>
<!-- Created with Inkscape (http://www.inkscape.org/) -->

<svg
   version="1.1"
   id="svg75"
   width="161.33333"
   height="196"
   viewBox="0 0 161.33333 196"
   xmlns="http://www.w3.org/2000/svg"
   xmlns:svg="http://www.w3.org/2000/svg">
  <defs
     id="defs79" />
  <g
     id="g81">
    <path
       style="fill:#000000;stroke-width:1.33333"
       d="m 37.816269,184.76709 c 0.495057,-4.21216 2.053165,-9.85792 3.462462,-12.54612 1.409299,-2.6882 3.497375,-7.07676 4.640169,-9.75234 2.902836,-6.79631 15.617352,-18.11012 21.799787,-19.39819 2.721388,-0.56699 10.047978,-1.03136 16.281311,-1.03196 9.67174,-9.1e-4 12.310741,0.51429 18.000002,3.51408 8.74694,4.61201 15.13215,11.17916 19.76172,20.32479 4.45911,8.80889 6.18493,20.73384 3.34212,23.09316 -1.28867,1.0695 -15.37749,1.85346 -45.031551,2.50576 l -43.156123,0.94929 z m 67.566711,-4.7765 c 3.89416,-0.73852 7.39114,-1.6536 7.77106,-2.03352 1.05765,-1.05766 -2.37433,-10.0288 -5.98033,-15.63251 -6.60634,-10.26621 -25.201696,-14.88883 -37.361439,-9.28767 -6.989216,3.21946 -11.145606,6.02088 -11.145606,7.51219 0,0.68252 -0.796486,2.18819 -1.769969,3.34593 -1.764554,2.09855 -4.896697,11.55314 -4.896697,14.78102 0,1.3373 3.632173,1.50252 17.025641,0.77445 10.413666,-0.56609 18.310196,-0.41303 20.333333,0.39415 4.350717,1.73581 7.489952,1.76441 16.024007,0.14596 z M 122.47585,50.067233 C 122.08463,49.705463 64.458719,48.279045 19.333333,47.51414 6.5217532,47.296976 4.8428384,46.535327 6.9553756,41.898813 c 1.2535762,-2.751301 2.1675049,-3.197401 5.1903424,-2.533474 4.513227,0.99127 6.520948,-2.043751 6.520948,-9.857551 0,-8.587761 -1.940512,-12.174455 -6.586753,-12.174455 -6.024865,0 -9.2882383,-8.2307578 -4.7550388,-11.9929794 1.5947527,-1.3235271 3.2550598,-1.2400059 8.3333338,0.4192056 5.209945,1.7022324 15.384486,2.1244933 57.008457,2.3659491 27.866665,0.1616512 53.169685,0.3350525 56.228925,0.3853361 3.40313,0.055936 6.50854,-0.762004 8.00001,-2.107134 2.26972,-2.0470256 2.85128,-2.0184729 8.43773,0.4142632 9.18784,4.0010314 9.96816,4.5736984 10.42607,7.6515304 0.37025,2.488661 -0.21779,2.863829 -4.48878,2.863829 -4.6851,0 -4.87389,0.17139 -4.03886,3.666667 0.48177,2.016667 0.81988,6.564511 0.75133,10.106321 -0.1044,5.396791 0.31153,6.553712 2.56865,7.14396 3.01008,0.787154 4.59166,4.289279 3.37219,7.46714 -0.57179,1.490072 -3.36548,2.31897 -9.69689,2.877108 -4.89154,0.431208 -11.67957,1.037976 -15.08452,1.348376 -3.40495,0.310399 -6.40495,0.366347 -6.66667,0.124334 z m 10.19081,-12.925757 c 1.89243,-1.809356 1.65746,-15.350691 -0.30033,-17.308479 -1.21729,-1.217286 -14.76024,-1.744773 -53.135616,-2.069585 l -51.501944,-0.435916 0.951721,9.669585 c 0.523447,5.318272 1.108698,9.843811 1.300559,10.056752 0.19186,0.212942 15.690154,0.528483 34.440654,0.701206 18.750498,0.172721 34.381961,0.604184 34.736581,0.958804 1.178225,1.178229 32.151645,-0.275187 33.508375,-1.572367 z"
       id="path630" />
  </g>
</svg>
