<?xml version="1.0" encoding="UTF-8" standalone="no"?>
<!-- Created with Inkscape (http://www.inkscape.org/) -->

<svg
   version="1.1"
   id="svg229"
   width="214.66667"
   height="209.33333"
   viewBox="0 0 214.66667 209.33333"
   xmlns="http://www.w3.org/2000/svg"
   xmlns:svg="http://www.w3.org/2000/svg">
  <defs
     id="defs233" />
  <g
     id="g235">
    <path
       style="fill:#000000;stroke-width:1.33333"
       d="m 119.57529,203.9521 c -3.43043,-2.69837 -9.19456,-10.62946 -12.78855,-17.59626 -1.03396,-2.0043 -3.13396,-4.98272 -4.66667,-6.61875 -1.5327,-1.63603 -3.386735,-4.0078 -4.120068,-5.2706 -8.259325,-14.22256 -11.218643,-18.81981 -16.813375,-26.11928 -3.585978,-4.67863 -6.519959,-9.02167 -6.519959,-9.65119 0,-3.35662 1.976183,-5.36269 5.282797,-5.36269 2.972043,0 4.740087,1.53384 9.360262,8.12035 3.132856,4.4662 7.171412,10.89502 8.974568,14.2863 1.803155,3.39127 5.026845,8.37346 7.163755,11.07152 2.13691,2.69807 3.88529,5.21695 3.88529,5.59751 0,0.38056 4.51344,7.41655 10.02988,15.63551 7.90916,11.7839 9.70712,15.33246 8.5034,16.78285 -2.10245,2.53331 -4.24566,2.30705 -8.29133,-0.87527 z m 29.03078,-1.8915 c -1.8,-1.8 -3.27273,-4.0823 -3.27273,-5.07178 0,-0.98948 -2.1403,-3.86674 -4.75622,-6.39393 -4.27184,-4.12695 -9.11392,-10.99588 -24.38684,-34.59489 -2.61031,-4.03334 -6.46394,-9.57392 -8.56363,-12.31242 -5.01696,-6.54334 -4.53337,-10.86844 1.27816,-11.43163 4.0371,-0.39123 4.66299,0.24126 13.19433,13.33334 4.92591,7.55921 9.76927,14.94404 10.76303,16.41071 0.99375,1.46666 4.48577,6.65326 7.76002,11.52577 3.27424,4.87252 7.02372,9.92927 8.33216,11.23723 9.04403,9.04073 12.45277,17.90009 7.60327,19.76101 -3.42751,1.31527 -4.50746,0.98069 -7.95155,-2.46341 z M 65.69322,104.96703 c -2.184656,-1.55203 -4.647639,-4.35454 -5.473294,-6.227789 -3.087244,-7.004344 -6.264721,-12.012973 -7.639643,-12.042297 -0.780844,-0.01665 -2.477417,1.919721 -3.770164,4.303055 -1.292745,2.383333 -3.553288,6.583333 -5.023426,9.333331 -1.844404,3.45009 -3.581267,5 -5.603108,5 -3.261199,0 -9.972785,-6.478692 -13.222602,-12.763775 -1.165167,-2.253411 -3.016204,-4.842151 -4.113416,-5.752755 -1.636636,-1.358288 -2.2511,-1.176988 -3.421248,1.009455 C 16.641843,89.29206 16,91.426684 16,92.569864 c 0,1.143179 -1.05,4.504345 -2.333333,7.469256 -1.751222,4.04589 -2.998604,5.29555 -5.0000002,5.00915 C 4.5605643,104.46068 4.7616206,99.97851 9.4232435,88.181817 16.301555,70.775579 20.806112,68.74565 27.579292,79.999999 c 2.427374,4.033333 5.153158,9.00073 6.057299,11.03866 2.516194,5.671482 5.37877,3.892682 8.388484,-5.21259 3.360394,-10.16618 5.435544,-12.741506 9.852139,-12.226814 2.563487,0.298738 4.863659,2.582222 9.036558,8.970997 7.877469,12.06053 8.734392,12.262601 13.060277,3.079732 1.982074,-4.207492 4.541755,-8.699985 5.688179,-9.983319 4.486717,-5.022535 9.874153,-1.615313 15.811812,10 4.166939,8.151412 7.06555,8.253503 10.31031,0.363134 1.34806,-3.278114 4.55181,-7.804724 7.11944,-10.059136 5.66107,-4.970485 6.32321,-4.591364 14.79199,8.469485 l 5.90496,9.106816 3.19962,-3.005901 c 1.7598,-1.653246 3.20188,-3.951314 3.20463,-5.106816 0.008,-3.453603 5.08619,-10.714418 8.61913,-12.324133 3.69462,-1.683383 6.13926,-0.363782 9.05167,4.886049 0.91165,1.64331 3.03908,5.504357 4.72764,8.580104 3.80161,6.924778 6.19059,6.664409 10.35267,-1.128322 1.72884,-3.236962 4.40381,-7.33503 5.94436,-9.106817 2.54197,-2.923531 3.07064,-3.046156 5.71693,-1.32604 3.13035,2.034748 13.33413,16.457535 16.21189,22.915085 3.866,8.675077 -3.42589,10.540327 -9.11461,2.331487 C 189.5816,97.472248 188,94.553162 188,93.774809 c 0,-0.778353 -1.30062,-3.068666 -2.89028,-5.089585 l -2.89028,-3.674397 -2.35777,4.494585 c -1.29677,2.472023 -3.65147,7.021713 -5.23265,10.110424 -1.5812,3.088714 -4.13468,6.015674 -5.67443,6.504374 -3.06637,0.97323 -5.63861,-1.57657 -13.23564,-13.120211 -2.29243,-3.483334 -4.62297,-6.333334 -5.17897,-6.333334 -0.55602,0 -2.84804,3.15 -5.09339,7 -6.55625,11.241695 -8.64425,13.434355 -11.8302,12.423175 -2.51442,-0.79805 -10.05673,-11.059443 -12.56135,-17.089841 -1.94213,-4.676094 -5.61449,-2.438556 -9.7217,5.923343 -4.58776,9.340248 -6.59534,11.743318 -9.81064,11.743318 -2.41601,0 -11.39718,-11.076124 -13.530113,-16.686165 -2.137947,-5.623223 -4.911804,-3.78796 -9.876858,6.53481 -2.605352,5.416755 -5.57252,10.169255 -6.593707,10.561125 -1.021185,0.39186 -3.644146,-0.55737 -5.828802,-2.1094 z m 45.27873,-67.177411 c -0.9321,-0.383466 -2.60765,-2.462621 -3.72345,-4.620344 -2.13997,-4.138243 -4.58183,-4.056758 -4.58183,0.152896 0,4.019484 -5.380599,4.910423 -8.25057,1.36616 -1.328855,-1.641065 -2.416099,-4.034427 -2.416099,-5.318583 0,-3.308987 -10.146026,-4.119464 -49.931186,-3.988566 C 24.062686,25.440425 8.8034819,25.163245 8.1594741,24.765226 6.057862,23.466358 5.5774426,18.842506 7.2994226,16.487558 8.835766,14.386484 12.556817,14.198414 49.730331,14.343014 93.015759,14.511388 92.630492,14.56717 93.538911,7.9999999 93.864565,5.6457666 94.957159,4.5315626 97.258631,4.2067069 101.04611,3.672099 104,6.9492982 104,11.685938 c 0,4.875638 4.3699,3.198428 6.17193,-2.3688457 C 112.60488,1.8006404 120,2.8106386 120,10.659373 v 3.666187 l 21,0.911194 c 20.03828,0.869466 60.12171,0.08599 61.40799,-1.200294 1.48873,-1.488734 5.59201,2.362518 5.59201,5.248546 0,5.54059 -3.40217,7.526579 -12.48921,7.290482 -4.4976,-0.116855 -16.27745,-0.196087 -26.17745,-0.17607 -9.9,0.02001 -19.2,-0.01863 -20.66667,-0.08589 -1.46667,-0.06725 -8.23549,-0.01531 -15.04184,0.115427 -10.50612,0.201806 -12.4806,0.59012 -13.07315,2.571041 -2.32066,7.758169 -5.34404,10.532188 -9.57973,8.78962 z"
       id="path406" />
  </g>
</svg>
