<?xml version="1.0" encoding="UTF-8" standalone="no"?>
<!-- Created with Inkscape (http://www.inkscape.org/) -->

<svg
   version="1.1"
   id="svg219"
   width="218.66667"
   height="214.66667"
   viewBox="0 0 218.66667 214.66667"
   xmlns="http://www.w3.org/2000/svg"
   xmlns:svg="http://www.w3.org/2000/svg">
  <defs
     id="defs223" />
  <g
     id="g225">
    <path
       style="fill:#000000;stroke-width:1.33333"
       d="m 166.66667,208.59214 c -1.1,-0.23754 -6.07281,-0.81814 -11.05069,-1.29023 -8.27838,-0.78511 -9.747,-1.41717 -17.21072,-7.4072 -9.25723,-7.42941 -12.2783,-11.74708 -16.40692,-23.44841 -3.94877,-11.19163 -3.3767,-22.21959 1.62982,-31.4182 3.57234,-6.56356 16.79924,-19.55776 23.38698,-22.97552 8.20576,-4.2572 29.74992,-5.46558 33.84512,-1.89832 1.36018,1.18484 4.19988,2.56554 6.3104,3.06823 2.11053,0.50269 6.76701,3.73328 10.34773,7.17908 7.23699,6.9643 12.14032,18.20207 12.04192,27.59843 -0.0932,8.90063 -1.74948,20.6262 -3.02484,21.41442 -0.66117,0.40862 -1.20213,2.13862 -1.20213,3.84444 0,1.72033 -2.75055,6.44252 -6.17663,10.60416 -8.9172,10.83164 -22.34609,16.91953 -32.49004,14.72912 z m 3.31501,-10.41386 c 2.38063,-1.74076 2.39038,-2.03454 0.21916,-6.61004 -1.2497,-2.63356 -2.82604,-5.13058 -3.50296,-5.54894 -1.84941,-1.143 -4.03121,3.85057 -4.03121,9.22638 0,5.25782 2.67079,6.32854 7.31501,2.9326 z M 155.72802,187.6471 c 4.86104,-13.20118 6.77538,-16.98043 8.6013,-16.98043 1.61839,0 9.75063,9.73885 14.75222,17.66667 3.74001,5.92813 8.73516,4.39942 13.19197,-4.03724 2.17609,-4.11931 2.16284,-4.40679 -0.30925,-6.7099 -1.42051,-1.3234 -6.22151,-4.14536 -10.66888,-6.27101 -7.07103,-3.37964 -8.0365,-4.29061 -7.69075,-7.25667 0.32157,-2.75876 2.38632,-4.40912 11.06204,-8.84194 5.86667,-2.99755 10.85923,-6.44012 11.09459,-7.65016 1.13677,-5.8445 -11.2244,-18.66194 -15.21506,-15.77667 -0.66708,0.48231 -2.86285,4.17692 -4.87949,8.21025 -5.83292,11.66598 -8.81195,16 -10.99769,16 -1.18934,0 -3.47751,-3.19005 -5.49919,-7.66666 C 152.4126,133.37071 151.51431,132 148.46576,132 c -5.3473,0 -16.27586,11.90302 -14.85158,16.17584 0.24353,0.73063 5.52997,3.83995 11.74764,6.90962 9.21188,4.5479 11.21918,6.07492 10.84216,8.24788 -0.51467,2.96622 -7.40999,9.41717 -11.53731,10.79377 -4.84073,1.61453 -10,6.01365 -10,8.52661 0,3.11542 11.7634,13.33278 15.33333,13.31811 2.05079,-0.008 3.3737,-1.93105 5.72802,-8.32473 z M 134.9042,171.11838 c 1.34612,-1.21823 3.74599,-2.86823 5.33303,-3.66667 4.64456,-2.33668 4.29949,-4.525 -1.06713,-6.76732 C 128.21135,156.10554 128,156.17395 128,164.29991 c 0,9.52061 1.87368,11.37103 6.9042,6.81847 z m 65.59119,-5.5182 c 1.75157,-6.10742 -0.152,-7.71243 -6.44728,-5.43603 -7.59793,2.74745 -8.35533,4.61187 -3.16741,7.79691 5.79905,3.56025 8.07694,3.00092 9.61469,-2.36088 z m -31.14744,-29.93351 c 2.79048,-4.57672 3.39948,-8.38069 1.52699,-9.53795 -0.61878,-0.38243 -3.31878,-0.33933 -6,0.0958 -4.99927,0.81127 -5.91748,2.52551 -3.63894,6.79361 0.6798,1.27339 1.56098,3.36524 1.95816,4.64857 1.08758,3.51406 3.21298,2.82328 6.15379,-2 z M 37.333334,203.99406 C 12.529573,201.958 6.6666668,200.14254 6.6666668,194.49804 c 0,-3.53101 6.0816122,-16.71285 9.9705802,-21.61114 1.842839,-2.32112 4.681224,-5.87724 6.307525,-7.9025 6.519212,-8.11842 11.367103,-10.18844 24.407555,-10.42181 16.473849,-0.29484 23.05787,2.09145 32.294724,11.70476 8.478329,8.82388 13.549576,18.1842 14.584049,26.91872 1.199019,10.12383 -0.194916,10.81037 -21.993004,10.83213 -10.030952,0.0107 -19.438095,0.218 -20.904762,0.46219 -1.466667,0.24419 -7.766667,0.0253 -14,-0.48633 z m 43.104705,-11.42415 c 3.193768,-1.22557 2.778458,-3.95097 -1.829302,-12.00449 -4.952668,-8.65636 -10.269419,-13.30747 -17.669361,-15.45722 -6.221292,-1.80733 -18.325478,-2.06184 -23.872265,-0.50193 -5.111453,1.43747 -14.754801,11.04851 -16.707575,16.65159 -1.82142,5.2262 -2.192796,11.1311 -0.78839,12.53552 1.108748,1.10874 57.756537,-0.0299 60.866893,-1.22347 z m -9.408519,-83.7708 c -3.472396,-0.93585 -7.824572,-3.66551 -11.333334,-7.10819 -4.809833,-4.719257 -7.153328,-5.895315 -15.060587,-7.557999 -5.150421,-1.082994 -11.039481,-2.605944 -13.0868,-3.384333 -2.047319,-0.778389 -5.702423,-1.415253 -8.122453,-1.415253 -3.984044,0 -10.46157,-3.610922 -13.072595,-7.287368 -1.5767593,-2.220151 -1.1690069,-8.458439 0.855521,-13.088791 2.296212,-5.251728 9.189903,-12.87942 15.47753,-17.125487 7.165593,-4.838963 17.313199,-13.585719 17.313199,-14.923158 0,-2.622406 11.172617,-15.003744 17.065789,-18.912068 3.44715,-2.286132 11.403003,-5.770573 17.679677,-7.7432 10.145753,-3.1886001 13.511706,-3.5865962 30.332743,-3.5865962 17.84356,0 40.12834,2.5512196 46.25513,5.2954092 C 156.8,12.618996 161.6,13.556971 166,14.046467 c 9.83467,1.094095 12.67266,2.515476 12.64626,6.333779 -0.0277,4.012748 -1.7569,6.444936 -5.80875,8.1705 -5.67052,2.414902 -19.48441,14.615192 -19.49461,17.217451 -0.008,2.196425 1.00234,2.380584 10.32377,1.880581 9.18505,-0.492688 19.89012,-3.208529 25.66667,-6.511547 5.21005,-2.979105 8.79645,-3.935994 10.66666,-2.845984 3.52591,2.054998 10.75327,18.221803 11.95879,26.750526 1.23497,8.736997 -0.23771,17.146004 -4.41772,25.225292 -3.50804,6.780457 -5.75923,7.291977 -12.70527,2.886928 -3.34238,-2.119685 -8.19778,-4.44313 -10.78977,-5.163213 -6.67983,-1.855732 -19.10955,-1.636197 -21.87557,0.386368 -2.18006,1.5941 -2.06647,2.053695 1.6695,6.754795 4.64574,5.845907 4.28162,8.243747 -1.4252,9.385107 -11.2189,2.24378 -23.94864,0.16306 -35.30947,-5.771456 -4.94268,-2.581894 -6.20157,-2.732694 -11.31597,-1.355528 -3.4255,0.922393 -8.89832,1.193877 -13.52197,0.670772 l -7.767371,-0.878779 3.083345,5.431971 c 2.669716,4.70328 2.815046,5.60501 1.083344,6.72189 -2.663435,1.7178 -20.561488,1.37016 -27.637148,-0.53681 z m 8.970481,-6.83211 c 0,-2.230124 -5.170603,-4.661148 -9.753467,-4.585714 -2.711294,0.04463 -2.635972,0.27519 1.0868,3.326714 4.514282,3.70031 8.666667,4.30352 8.666667,1.259 z M 148,94.000001 c -0.91292,-1.1 -3.15985,-2 -4.99318,-2 -2.81179,0 -3.07363,0.312928 -1.67348,2 0.91292,1.1 3.15985,2 4.99318,2 2.81179,0 3.07363,-0.312928 1.67348,-2 z m -39.33333,-6.449778 c 1.46667,-0.779631 5.66667,-1.86296 9.33333,-2.407398 14.12057,-2.096661 22.8142,-4.02266 26.53819,-5.879296 2.12933,-1.061606 5.50389,-1.930194 7.49903,-1.930194 1.99513,0 6.22624,-0.916883 9.40245,-2.037519 3.17623,-1.120635 6.62771,-1.710283 7.66997,-1.31033 2.62367,1.006796 5.56558,-1.73993 5.51463,-5.148745 -0.0776,-5.193036 -2.86303,-7.032216 -12.07184,-7.970975 -4.98183,-0.507854 -11.77852,-2.341238 -15.7094,-4.237552 -11.92929,-5.754884 -25.23371,-9.724049 -46.17636,-13.775997 -11.801446,-2.283324 -48.775739,1.704981 -54.000003,5.824817 -1.1,0.867456 -7.011573,4.519992 -13.136829,8.116747 -11.015788,6.468477 -15.899112,11.916757 -14.334823,15.993229 0.396711,1.033812 1.840124,1.879658 3.207584,1.879658 3.541881,0 4.37908,1.293743 2.775796,4.289505 -0.766947,1.433054 -1.130296,2.869704 -0.807443,3.192559 0.322854,0.322853 5.759219,1.279041 12.080813,2.124861 l 11.493805,1.537858 3.456988,-3.905726 c 3.086701,-3.487372 3.388515,-4.729984 2.817725,-11.600996 -0.689234,-8.296817 0.99015,-11.638061 5.849554,-11.638061 3.029515,0 4.537856,4.712961 3.521608,11.003618 -0.384703,2.381343 -1.121224,6.82057 -1.636715,9.864949 -1.235174,7.294681 0.50376,8.175276 18.240346,9.236885 7.592709,0.454455 14.047252,1.058968 14.343429,1.343364 0.882292,0.847193 11.249865,-1.035255 14.128165,-2.565261 z M 31.918022,71.918022 c -3.229686,-3.229685 -2.966458,-6.264702 0.748645,-8.631881 4.089988,-2.606047 8.666667,-0.280269 8.666667,4.404228 0,6.878343 -4.668415,8.974551 -9.415312,4.227653 z m 167.212008,1.006362 c 1.65895,-14.134095 -1.68752,-21.087353 -8.84012,-18.367939 -2.87273,1.092213 -3.30479,2.258321 -4.02659,10.867961 -0.926,11.045445 0.22371,14.207774 5.40284,14.860655 5.83239,0.735232 6.6028,-0.02453 7.46387,-7.360677 z M 145.66667,33.559691 c 6.04767,-5.766519 6.51972,-9.997259 1.33333,-11.950175 -9.82286,-3.698768 -14.09039,-4.274672 -31.5323,-4.255292 -28.724427,0.03192 -48.852976,5.126615 -57.350036,14.51576 -1.400167,1.547169 -2.185247,3.173543 -1.744622,3.614169 0.440626,0.440625 8.55518,-0.463054 18.032343,-2.008175 C 94.793077,30.152046 104.29316,29.947535 112,32.666667 c 3.11773,1.1 7.24317,2.021262 9.16764,2.047247 1.92446,0.02599 4.99903,0.891264 6.83236,1.92284 5.88647,3.31218 12.10111,2.229755 17.66667,-3.077063 z"
       id="path545" />
  </g>
</svg>
