<?xml version="1.0" encoding="UTF-8" standalone="no"?>
<!-- Created with Inkscape (http://www.inkscape.org/) -->

<svg
   version="1.1"
   id="svg209"
   width="340"
   height="208"
   viewBox="0 0 340 208"
   xmlns="http://www.w3.org/2000/svg"
   xmlns:svg="http://www.w3.org/2000/svg">
  <defs
     id="defs213" />
  <g
     id="g215">
    <path
       style="fill:#000000;stroke-width:1.33333"
       d="m 169.16325,200.46175 c -1.38896,-1.67359 -1.86608,-8.01918 -1.97998,-26.33334 -0.20126,-32.35786 0.44474,-39.16398 3.81882,-40.23486 1.60266,-0.50867 3.48126,0.02 4.81326,1.35468 1.90325,1.90701 2.17778,6.22869 2.13134,33.55194 -0.0441,26.004 -0.38594,31.57339 -2,32.59432 -2.85361,1.80499 -4.72484,1.5477 -6.78344,-0.93274 z m 132.17008,-80.3719 c 0,-4.42428 1.25856,-5.01256 11.20218,-5.23614 3.59453,-0.0808 6.81878,-0.43023 7.16501,-0.77645 1.10237,-1.10237 0.21732,-97.35942 -0.90551,-98.482248 -0.59204,-0.592037 -4.89554,-1.616259 -9.56334,-2.276048 -6.49607,-0.918214 -8.96522,-0.787805 -10.52595,0.555935 -1.62128,1.395862 -11.32725,1.669421 -47.37239,1.335173 C 226.4,14.978864 199.1,14.441755 190.66667,14.016495 c -8.58858,-0.433088 -18.47192,-0.170802 -22.4685,0.596273 -4.77421,0.916327 -10.06845,0.935843 -16,0.05899 C 147.32251,13.950977 120.92366,13.115301 93.534061,12.81469 46.700248,12.300671 37.953867,11.579337 42.733941,8.6250884 44.132295,7.7608591 185.40088,7.7641788 272.33333,8.6304839 287.55,8.782122 300,8.460992 300,7.9168616 c 0,-1.9948843 7.49676,-3.3611641 13.33333,-2.4299901 3.3,0.5264864 7.00596,0.680867 8.23547,0.3430681 1.22949,-0.3377991 4.22949,0.2191223 6.66667,1.2376028 l 4.4312,1.8517827 V 65.173801 c 0,48.552669 -0.27383,56.427729 -2,57.519919 -1.1,0.696 -8.15,1.27463 -15.66667,1.28586 L 301.33333,124 Z m -284.666663,1.63948 c -4.4,-0.29833 -8.6000003,-1.13967 -9.3333337,-1.86964 C 6.5051121,119.03526 5.8669503,99.74246 5.6487916,68.9329 5.4556269,41.653139 5.2300104,16.785924 5.1474215,13.672423 4.9237364,5.2397641 5.9565119,4.648532 20.893652,4.6581913 33.982608,4.6666555 34,4.6710901 34,8 c 0,3.111111 -0.533333,3.377778 -8,4 l -8,0.666667 -0.349943,49.176702 c -0.26013,36.555627 0.05804,49.668301 1.239734,51.092141 1.176164,1.4172 3.211081,1.69245 7.822896,1.05816 4.833181,-0.66473 6.725949,-0.36456 8.426933,1.33643 2.425905,2.4259 2.779057,4.15076 1.066537,5.20915 -1.92987,1.19273 -11.185893,1.75648 -19.53949,1.19008 z M 111,104.41701 c -0.91667,-0.35158 -1.67486,-1.93923 -1.68487,-3.52812 C 109.26661,93.189669 108.11099,92 100.68065,92 c -8.072682,0 -17.248738,3.594296 -21.949014,8.59751 -4.228663,4.50121 -10.739788,4.74582 -10.713429,0.40249 0.03743,-6.167528 1.801878,-9.172845 7.265232,-12.374584 3.089633,-1.810645 6.722201,-3.292083 8.072374,-3.292083 1.350172,0 4.297458,-0.559344 6.549523,-1.242985 2.252065,-0.683641 6.674569,-1.989547 9.827787,-2.902012 5.502787,-1.592372 5.717057,-1.850457 5.333337,-6.423681 -0.33674,-4.01317 -0.92553,-4.800326 -3.73313,-4.990818 C 85.570299,68.704333 80.679876,67.803363 75.824011,65.074213 68.07656,60.719903 64.272861,52.260472 68.266667,48.266667 c 2.71471,-2.714711 4.568192,-1.848727 11.557708,5.4 6.347392,6.58279 7.129917,6.994189 13.12932,6.902498 10.408645,-0.159078 13.387105,-1.383518 14.381795,-5.912332 0.4847,-2.20679 1.88249,-4.545234 3.10622,-5.196542 2.63232,-1.401012 108.15964,-1.719854 114.76437,-0.346751 2.49668,0.519051 5.04668,1.980843 5.66667,3.248428 0.61998,1.267584 1.63801,3.354699 2.26229,4.638032 2.69807,5.546515 14.53939,2.978865 23.91136,-5.184895 C 259.45524,49.716797 262.26239,48 263.28449,48 c 2.47132,0 6.04884,3.680435 6.04884,6.222849 0,4.165127 -4.50849,9.677096 -8.59176,10.504072 -2.2412,0.453907 -5.8749,1.34699 -8.0749,1.98463 -2.2,0.63764 -6.81996,1.85796 -10.26659,2.711824 -3.44663,0.853864 -7.2694,2.660565 -8.49504,4.014892 -3.83697,4.239809 -1.53297,6.249065 8.34219,7.274996 4.99736,0.519174 9.6861,1.392886 10.41944,1.941582 0.73333,0.548695 3.57394,1.719256 6.31248,2.601246 9.05196,2.915336 13.96373,14.051648 7.6807,17.414219 -2.27444,1.21724 -3.41877,0.65155 -7.66666,-3.789987 -4.10676,-4.293959 -6.47846,-5.520043 -13.35955,-6.906426 -4.60149,-0.927096 -8.52645,-1.450489 -8.72212,-1.163096 -0.19568,0.287392 -1.96999,3.043314 -3.94293,6.12427 -2.70771,4.228389 -4.65543,5.773729 -7.94454,6.303269 C 219.33717,104.15392 113.1753,105.25131 111,104.41701 Z M 219.66667,90.513099 c 2.60776,-0.968142 3,-2.063596 3,-8.378378 0,-3.995538 -0.70268,-10.308769 -1.56151,-14.029402 l -1.56149,-6.76479 -22.10518,-0.192304 C 164.18839,60.858967 163.58621,60.8581 160,61.094399 c -1.83333,0.1208 -11.58333,-0.05083 -21.66667,-0.381384 -10.08333,-0.33056 -18.40473,-0.176219 -18.492,0.342982 -0.71556,4.257218 -1.03523,21.808295 -0.45952,25.229675 l 0.72114,4.285671 12.94853,0.396041 c 28.73416,0.878859 83.80224,0.590033 86.61519,-0.454285 z"
       id="path684" />
  </g>
</svg>
