<?xml version="1.0" encoding="UTF-8" standalone="no"?>
<!-- Created with Inkscape (http://www.inkscape.org/) -->

<svg
   version="1.1"
   id="svg199"
   width="254.66667"
   height="234.66667"
   viewBox="0 0 254.66667 234.66667"
   xmlns="http://www.w3.org/2000/svg"
   xmlns:svg="http://www.w3.org/2000/svg">
  <defs
     id="defs203" />
  <g
     id="g205">
    <path
       style="fill:#000000;stroke-width:1.33333"
       d="m 63.000001,228.4503 c -0.916667,-0.36988 -1.666667,-2.39606 -1.666667,-4.50259 0,-3.35259 1.20514,-4.52575 9.666667,-9.41011 5.316667,-3.06901 16.866667,-10.4017 25.666667,-16.29486 8.800002,-5.89318 21.700002,-13.36411 28.666662,-16.60208 6.96667,-3.23798 14.90961,-8.04662 17.65097,-10.68587 l 4.98428,-4.79863 -0.0336,-25.07808 C 147.91343,125.06179 147.41339,116 146.5511,116 c -3.0511,0 -10.38322,4.89111 -21.79879,14.54153 -6.6471,5.61929 -15.21178,12.55133 -19.03261,15.40454 -3.82083,2.85323 -7.24966,5.97649 -7.619625,6.94061 -0.369966,0.96411 -3.843832,3.78714 -7.719703,6.2734 -3.875871,2.48626 -8.185182,5.78699 -9.576248,7.33495 -1.391066,1.54797 -5.224571,4.39408 -8.518902,6.32469 -3.294329,1.9306 -7.79525,5.56662 -10.002048,8.08002 -5.075864,5.78109 -10.185364,8.4336 -16.245545,8.4336 -3.797584,0 -5.071992,-0.68154 -6.295434,-3.3667 -1.367764,-3.00192 -1.06953,-3.84588 2.752511,-7.78922 3.815968,-3.93708 4.056017,-4.61379 2.186911,-6.165 -2.858386,-2.37226 -10.669799,0.0136 -17.302575,5.2846 -9.033196,7.17868 -18.9989554,6.85372 -18.4453645,-0.60147 0.3658856,-4.92736 2.3455945,-6.96 11.0663225,-11.36221 4.121088,-2.08032 8.313287,-4.77092 9.316,-5.97912 2.602935,-3.13634 8.972793,-6.1885 13.164133,-6.30767 4.00603,-0.11387 12.794836,2.62593 16.816542,5.2424 4.105354,2.67089 5.495601,2.15829 13.007679,-4.79612 3.865939,-3.57895 13.32898,-12.32952 21.028981,-19.44572 7.699995,-7.11621 14.199995,-13.48798 14.444445,-14.1595 0.24444,-0.67152 -1.67153,-1.22094 -4.25773,-1.22094 -3.2615,0 -5.301518,-0.85569 -6.658362,-2.79286 l -1.956191,-2.79285 -5.903225,3.45952 c -6.272875,3.67615 -13.901427,4.49929 -18.565336,2.00324 -2.070844,-1.10828 -2.545874,-2.33236 -1.987866,-5.1224 0.634258,-3.17129 0.113547,-3.96162 -3.857922,-5.85548 -7.833857,-3.7357 -5.513293,-10.366095 4.742186,-13.549529 1.833334,-0.569091 6.395436,-3.055571 10.138007,-5.52551 3.742571,-2.46994 7.221393,-4.4908 7.730716,-4.4908 0.509323,0 4.34722,-2.211913 8.52866,-4.915363 C 99.912156,76.38119 106.33333,72.57131 110,70.61824 c 3.66667,-1.953071 10.22995,-5.4687 14.58508,-7.812508 10.24776,-5.515063 12.4833,-9.367639 14.01247,-24.148198 0.94977,-9.180192 2.08487,-13.336559 4.98287,-18.245803 2.0641,-3.496607 4.37822,-7.569675 5.1425,-9.051265 1.98244,-3.8431099 16.32766,-3.9029722 20.54566,-0.08574 2.55121,2.308819 3.33233,2.402716 7.13156,0.857265 11.20049,-4.5561492 15.86868,-3.6095139 18.04654,3.659556 2.26018,7.543765 1.92172,11.336925 -1.18466,13.276891 -1.5059,0.940446 -3.91119,4.446864 -5.3451,7.792044 -1.4339,3.345179 -3.76488,7.554 -5.17992,9.352937 -1.41504,1.798936 -3.60185,6.386845 -4.85957,10.195352 -1.25772,3.808508 -3.13743,8.234517 -4.17713,9.835574 -1.31776,2.029246 -1.62294,4.694451 -1.00746,8.798723 0.60015,4.002066 0.1848,7.943952 -1.29686,12.308098 -1.19888,3.531214 -1.8799,7.201891 -1.51336,8.157059 0.48056,1.252306 4.86638,1.84197 15.72524,2.114221 L 200.66667,98.000001 201.37983,108 c 0.39224,5.5 1.13347,10.67851 1.64717,11.5078 0.51371,0.82929 1.00644,5.62929 1.09498,10.66667 0.0885,5.03737 0.70369,11.85887 1.36701,15.15887 0.66333,3.3 1.76052,11.33085 2.43821,17.84634 0.6777,6.5155 1.90176,12.5155 2.72015,13.33334 1.82737,1.82614 15.33365,1.39906 20.30129,-0.64194 3.01112,-1.23714 4.36275,-1.02345 8.08774,1.27872 8.70992,5.38303 9.21432,6.59812 9.16844,22.08679 -0.0229,7.74815 -0.36956,14.61796 -0.77024,15.26627 -0.40068,0.6483 -2.25174,1.46992 -4.11346,1.82581 -4.24186,0.81088 -9.98778,-5.43003 -9.98778,-10.84817 0,-7.8928 -15.31672,-15.80744 -26.98147,-13.94218 -6.00399,0.96008 -8.52912,-0.76956 -9.67984,-6.63045 -0.458,-2.33265 -2.02381,-9.9412 -3.47959,-16.90787 -1.45577,-6.96666 -3.58629,-17.16666 -4.73448,-22.66666 -5.18624,-24.84279 -5.91457,-26.00357 -17.29484,-27.56341 -5.78792,-0.79332 -6.20181,-0.66259 -5.30457,1.67557 1.29759,3.38148 -1.74216,52.43524 -3.47585,56.09136 -2.4242,5.11228 -17.21586,14.40361 -43.89579,27.57301 C 104.12413,210.19944 91.653476,216 90.774356,216 c -0.87912,0 -1.26182,0.5446 -0.850445,1.21022 0.419269,0.6784 5.873681,0.8507 12.412019,0.39212 16.44273,-1.15328 62.83095,-1.06043 76.33074,0.15277 14.65172,1.31672 18.07132,1.44044 25.33333,0.91656 7.31832,-0.52795 18.622,1.76536 20.04426,4.0666 0.57329,0.92761 0.72028,2.52592 0.32661,3.55177 -0.57311,1.4935 -3.64121,1.74604 -15.39571,1.26726 -8.07398,-0.32887 -16.54638,-0.0591 -18.82756,0.5995 -2.49893,0.72147 -8.1226,0.68536 -14.1476,-0.0908 -19.97582,-2.57344 -50.70324,-2.88669 -77.999999,-0.7952 -27.907612,2.1383 -32.260331,2.28499 -35,1.17951 z M 130.11143,102.81723 c 1.75929,-1.38385 5.45393,-2.934622 8.21031,-3.44615 C 143.78855,98.356555 148,95.320423 148,92.393805 c 0,-1.02276 -0.91541,-3.629768 -2.03424,-5.79335 -2.27465,-4.398702 -6.0203,-5.050951 -13.49147,-2.349342 -4.23471,1.531292 -7.18811,5.288727 -4.78629,6.089331 1.6461,0.5487 0.31437,8.391787 -2.03636,11.992886 -2.48175,3.80183 -0.0884,4.06151 4.45979,0.4839 z"
       id="path823" />
  </g>
</svg>
