<?xml version="1.0" encoding="UTF-8" standalone="no"?>
<!-- Created with Inkscape (http://www.inkscape.org/) -->

<svg
   version="1.1"
   id="svg189"
   width="338.66666"
   height="129.33333"
   viewBox="0 0 338.66666 129.33333"
   xmlns="http://www.w3.org/2000/svg"
   xmlns:svg="http://www.w3.org/2000/svg">
  <defs
     id="defs193" />
  <g
     id="g195">
    <path
       style="fill:#000000;stroke-width:1.33333"
       d="M 21.042722,122.80196 C 14.572802,122.29775 10.020788,121.25744 8.782369,120 5.893766,117.06702 5.2656336,8.771125 8.1216505,6.0859408 9.2278388,5.0459192 15.051736,3.9618143 22.288788,3.4487611 33.693183,2.6402741 34.782977,2.7829774 37.431645,5.4316456 c 2.646856,2.6468549 2.695096,3.0131034 0.664442,5.0445444 -1.364776,1.365306 -5.311245,2.441615 -10.47619,2.857143 L 19.333333,14 l 0.10944,48.998332 c 0.0602,26.949083 0.562381,49.449078 1.115969,49.999998 0.553588,0.55092 4.574094,0.86679 8.934455,0.70195 7.300381,-0.276 8.048245,-0.0357 9.447864,3.03616 2.69225,5.90885 -1.53342,7.34088 -17.898343,6.06552 z m 281.220698,-0.98298 c -0.51155,-0.51155 -0.93009,-2.26012 -0.93009,-3.8857 0,-3.44457 2.98878,-4.55488 12.33333,-4.58174 4.08336,-0.0117 6.38897,-0.61031 6.48995,-1.68488 0.47866,-5.09371 -0.46123,-96.414182 -1.00131,-97.288047 -0.35531,-0.574904 -2.87711,-1.04528 -5.60399,-1.04528 -2.72688,0 -6.24956,-0.904665 -7.82817,-2.010367 -2.63505,-1.845664 -2.93973,-1.7913 -3.71887,0.663568 -0.46677,1.470664 -2.37317,3.056556 -4.23642,3.524206 -1.86327,0.467649 -19.67327,0.171097 -39.5778,-0.659003 C 238.28552,14.021636 207.6,13.291225 190,13.228601 104.16543,12.923188 45.071499,12.182611 44.29144,11.402553 43.816356,10.927468 44.071006,9.5188344 44.857328,8.2722551 46.576575,5.5466827 37.895443,5.8536084 142.66666,4.8141561 291.61474,3.336418 300.40595,3.3807802 301.81669,5.6172557 c 1.08322,1.7172649 1.575,1.6577141 3.6781,-0.4453936 2.10139,-2.1013863 3.91146,-2.3219252 13.46646,-1.6407593 6.44409,0.4593932 11.61166,1.4940837 12.4152,2.4858672 0.90008,1.1109535 1.36153,21.474927 1.33333,58.840976 L 332.66666,122 l -14.73657,0.37453 c -8.10512,0.206 -15.15512,-0.044 -15.66667,-0.55555 z m -37.33735,-16.63381 c -1.32398,-0.77023 -2.97017,-2.881 -3.65818,-4.69062 -3.04818,-8.017327 -27.90363,-10.176868 -26.49012,-2.301566 1.24308,6.925706 -1.71989,7.237296 -65.01696,6.837296 -31.64737,-0.19999 -57.94065,-0.76406 -58.42952,-1.2535 -0.48886,-0.48943 -1.22256,-3.37795 -1.63044,-6.418929 l -0.7416,-5.529047 -5.47963,0.845462 c -9.542238,1.47229 -13.928122,3.374232 -18.634947,8.081054 -5.307079,5.30708 -7.896407,5.71597 -10.714892,1.69202 -1.81997,-2.598375 -1.794285,-3.278523 0.257728,-6.824636 1.253536,-2.166252 3.498005,-4.750628 4.987709,-5.743057 3.424662,-2.281481 18.720065,-7.206345 22.465142,-7.2334 4.24736,-0.03068 6.02922,-1.660833 6.97289,-6.379197 0.92477,-4.623828 1.43394,-4.341683 -9.050487,-5.015148 C 82.960218,70.172596 68.990321,59.008946 75.475227,51.843207 c 3.227879,-3.566767 6.180213,-3.098688 8.730443,1.38417 3.145254,5.528805 7.41161,7.880972 16.15929,8.909091 l 7.64534,0.898558 1.50862,-4.327605 c 1.00317,-2.877708 2.94403,-4.927364 5.79301,-6.117744 5.22648,-2.183761 24.50207,-3.32324 66.68807,-3.942273 56.43088,-0.82806 54,-1.123645 54,6.566173 0,3.944005 0.41917,4.464887 3.66666,4.556296 6.60811,0.186003 15.08041,-2.987513 19.99599,-7.490012 7.04818,-6.455884 8.41498,-6.974861 12.62949,-4.795453 4.33883,2.243691 4.694,5.38438 1.44239,12.75432 -2.57558,5.837678 -3.59996,6.234957 -29.72017,11.526094 -4.72659,0.957456 -6.28139,3.447101 -4.18515,6.701489 0.63756,0.989806 6.48681,2.692524 12.99833,3.78382 6.51152,1.091296 13.18076,2.839811 14.82055,3.885591 4.73148,3.017517 7.57292,8.39263 7.2185,13.65517 -0.44156,6.556628 -4.32241,8.662588 -9.94052,5.394278 z M 219.05192,90.773659 c 2.98852,-1.136235 3.27984,-2.091396 3.96502,-13 0.46206,-7.356206 0.21462,-12.409922 -0.65949,-13.469463 -0.76945,-0.932691 -4.16465,-1.71726 -7.54489,-1.743486 -3.38024,-0.02623 -11.8459,-0.144444 -18.81256,-0.262704 -6.96667,-0.118253 -15.36667,-0.03792 -18.66667,0.178519 -3.3,0.216445 -16.61379,0.01955 -29.58619,-0.437563 -22.59402,-0.79614 -23.64564,-0.719974 -24.99999,1.810647 -1.51211,2.825407 -1.90762,20.17191 -0.57344,25.150389 l 0.80397,3 h 46.42436 c 25.5334,0 47.87584,-0.551852 49.64988,-1.226339 z"
       id="path962" />
  </g>
</svg>
