<?xml version="1.0" encoding="UTF-8" standalone="no"?>
<!-- Created with Inkscape (http://www.inkscape.org/) -->

<svg
   version="1.1"
   id="svg99"
   width="145.33333"
   height="208"
   viewBox="0 0 145.33333 208"
   xmlns="http://www.w3.org/2000/svg"
   xmlns:svg="http://www.w3.org/2000/svg">
  <defs
     id="defs103" />
  <g
     id="g105">
    <path
       style="fill:#000000;stroke-width:1.33333"
       d="m 41.4925,201.01269 c -6.646299,-3.42816 -18.237858,-16.15409 -22.692746,-24.91352 -2.488777,-4.89356 -3.003258,-8.07996 -3.013953,-18.66666 -0.01924,-19.04288 2.637461,-23.74471 11.046325,-19.54982 2.347081,1.17088 4.404153,1.97627 4.571271,1.78976 0.167116,-0.18652 1.269718,-3.21009 2.450225,-6.71905 2.449345,-7.28047 2.752982,-11.62007 0.813044,-11.62007 -0.733333,0 -1.333333,1.15715 -1.333333,2.57143 0,3.04665 -3.382266,6.76191 -6.155844,6.76191 -1.080952,0 -3.511114,-1.54575 -5.400359,-3.43499 -3.266892,-3.2669 -3.389065,-3.90107 -2.496518,-12.95901 1.060244,-10.75981 2.228322,-13.74781 6.928062,-17.722329 l 3.290801,-2.78299 -2.900409,-4.915827 C 24.014113,84.470355 23.243741,84.014628 19.515996,84.661419 13.135479,85.768484 8.8795903,82.878125 7.6991516,76.636088 5.5503612,65.273507 5.1572179,54.310799 6.7597781,50.441876 7.8823172,47.731827 7.9686076,45.651923 7.0433584,43.606588 5.2083373,39.550132 6.5628434,36.579512 11.921793,32.9075 c 3.044407,-2.08606 5.050717,-4.85532 6.01966,-8.30878 1.250909,-4.458433 2.14544,-5.34356 6.422604,-6.355085 3.938773,-0.931499 4.969276,-1.805132 4.969276,-4.212828 0,-4.2414505 3.482216,-6.6752161 8.88487,-6.2097503 2.568912,0.2213245 6.001892,-0.5322092 7.803931,-1.712951 4.4972,-2.9466785 7.130157,-2.6309222 8.810291,1.05657 2.114692,4.6412453 -0.201348,7.9119523 -9.157893,12.9327563 -14.96015,8.386269 -27.42705,25.960967 -28.156264,39.692131 -0.496424,9.347712 4.716433,13.024529 7.82517,5.519376 0.916827,-2.213418 4.889619,-7.636098 8.828427,-12.0504 5.269997,-5.906195 7.161467,-9.077882 7.161467,-12.008607 0,-2.998572 0.806378,-4.289185 3.263602,-5.22342 1.794981,-0.682451 4.261648,-2.764031 5.481482,-4.625732 1.925631,-2.938885 2.879064,-3.279187 7.235605,-2.582547 5.955308,0.952292 7.21865,-0.453157 7.297744,-8.118628 0.06913,-6.700388 3.142692,-7.682568 6.340464,-2.026149 1.789904,3.166095 3.099371,3.980839 6.038157,3.756912 4.446485,-0.338811 7.009612,0.995231 7.009612,3.648321 0,1.056722 0.75,2.012699 1.666667,2.124396 0.916666,0.111694 2.266666,0.342488 3,0.512868 0.733333,0.170379 1.974341,0.378991 2.757796,0.46358 0.783454,0.08459 3.633454,2.119042 6.333333,4.521004 3.327876,2.960662 4.908866,5.507727 4.908866,7.908436 0,2.666152 1.9769,5.260683 8,10.499419 4.4,3.827004 8,7.99474 8,9.261639 0,3.006904 3.71195,6.118025 5.34779,4.482182 1.7832,-1.783201 2.61654,-20.439121 1.09209,-24.448716 C 121.13188,30.949337 103.56618,14.910768 93.727103,12.752121 89.296009,11.77996 87.327329,8.6377163 88.779083,4.8545032 90.00299,1.6650541 94.437037,2.1750173 99.578422,6.0965433 c 2.648798,2.0203364 5.988198,3.3321396 8.125858,3.1920499 6.04605,-0.3962228 6.59981,-0.123348 9.40784,4.6359118 1.95779,3.318215 4.17189,4.985126 7.98557,6.012044 4.56369,1.228874 5.39358,2.043807 6.14155,6.030856 0.59195,3.155322 2.09741,5.33808 4.77098,6.917399 5.12763,3.028963 5.70411,4.934541 2.58187,8.534505 -2.19624,2.532299 -2.45623,4.26289 -1.76892,11.774652 0.57631,6.298383 0.17644,10.957436 -1.40419,16.36102 -2.57124,8.790134 -3.78253,10.070854 -10.091,10.669412 -4.32876,0.41072 -4.74919,0.860834 -5.89298,6.309074 -1.29184,6.153481 -0.6831,7.220433 6.56034,11.498365 1.93517,1.142904 2.33889,3.594148 2.47967,15.055888 0.17119,13.93619 -0.5858,16.16607 -5.50801,16.2252 -2.29418,0.0276 -4.64262,-6.51641 -3.81938,-10.64272 C 120.07813,114.00625 117.39829,104 115.21871,104 c -1.4072,0 -1.79562,3.40777 -1.78688,15.67671 0.006,8.62218 0.53705,16.52758 1.17978,17.56754 0.64273,1.03996 3.42082,2.06822 6.17354,2.285 2.75271,0.21679 5.58828,0.97752 6.30127,1.69051 2.46263,2.46263 1.38205,24.69612 -1.63897,33.72253 -6.19943,18.52315 -27.77568,35.79706 -29.203704,23.38044 -0.338748,-2.94538 0.402888,-4.13954 3.726328,-6 3.519266,-1.97006 4.054636,-2.93005 3.526076,-6.32273 -0.54796,-3.51729 0.18818,-4.64361 6.10007,-9.33333 8.78641,-6.97 13.41247,-19.79131 8.80378,-24.4 -2.76527,-2.76527 -5.14384,-1.79071 -11.55244,4.73333 -3.42171,3.48333 -10.332132,8.4086 -15.356506,10.94504 -5.908977,2.983 -9.659365,5.80833 -10.619336,8 -0.81626,1.86356 -2.04191,3.78279 -2.723669,4.26493 -1.939693,1.37179 -4.913031,-0.29496 -6.101215,-3.42012 -0.59522,-1.56554 -2.799257,-3.63825 -4.89786,-4.60601 -2.098603,-0.96776 -5.915642,-2.82171 -8.482309,-4.11988 -2.566666,-1.29816 -6.766666,-2.74468 -9.333333,-3.21447 -3.193632,-0.58454 -5.508401,-2.14585 -7.333333,-4.94632 C 39.248519,155.68085 33.690426,152 30.066213,152 c -2.851664,0 -2.728095,8.40375 0.26712,18.16623 2.592768,8.45076 6.343679,11.70462 15.221605,13.20454 4.558813,0.7702 5.111728,1.28362 5.111728,4.74643 0,2.13553 1.185886,5.06868 2.635302,6.51811 1.971525,1.97152 2.355096,3.39884 1.522837,5.66666 -1.514253,4.12619 -6.223866,4.37726 -13.332305,0.71072 z m 29.721593,-43.34602 c 0.823389,-5.26584 0.04723,-24.4021 -1.581252,-38.98588 -1.117376,-10.0066 -2.690608,-11.33161 -15.200113,-12.80186 L 47.0655,105.01306 46.126618,125.5411 c -0.516387,11.29042 -0.547942,21.54682 -0.07012,22.79199 0.477818,1.24518 3.960578,3.7825 7.739465,5.63847 3.778888,1.85597 8.670705,4.56769 10.870705,6.02603 5.356041,3.5504 5.643818,3.44794 6.547428,-2.33092 z m 20.990514,-1.12826 c 4.364973,-2.22952 9.128723,-9.68338 9.128723,-14.28377 0,-1.88683 0.50993,-3.74575 1.13317,-4.13093 1.5644,-0.96686 3.0771,-22.33917 2.04012,-28.82407 L 103.65918,104 h -9.015214 c -14.51374,0 -14.594563,0.14219 -15.454665,27.19024 -0.393925,12.38797 -0.350496,23.98077 0.09651,25.76179 0.717419,2.85842 1.315171,3.13002 5.096795,2.31584 2.356232,-0.50731 5.876132,-1.73556 7.822001,-2.72946 z M 77.476794,95.923221 c 1.449151,-0.775562 5.759707,-1.395656 9.579012,-1.377986 3.819305,0.01767 9.564545,-0.69778 12.7672,-1.589888 5.080004,-1.415048 6.228384,-2.461975 9.000004,-8.204884 1.74734,-3.62058 3.16381,-8.12058 3.1477,-10 -0.0478,-5.581923 -4.68108,-14.139595 -9.74767,-18.00407 l -4.73388,-3.610706 -13.077914,1.599816 c -13.943356,1.705684 -20.093233,1.816878 -29.862182,0.539932 -5.372658,-0.702286 -6.655665,-0.346911 -10.536272,2.918405 -5.861938,4.932496 -9.820966,13.918531 -8.608235,19.538611 1.415865,6.561448 5.611745,13.998416 8.93313,15.833481 1.647605,0.910303 8.095645,2.035305 14.328978,2.500008 6.233334,0.464703 12.422779,0.939971 13.754321,1.056153 1.331544,0.116187 3.606658,-0.42331 5.055808,-1.198872 z M 87.666665,44.492952 c 3.99679,-1.071099 3.807896,-4.18202 -0.369502,-6.085369 -4.147546,-1.88975 -6.638104,0.03416 -5.339764,4.124866 0.968062,3.050091 1.264122,3.151755 5.709266,1.960503 z M 65.333332,42 c 0,-1.314421 -1.315193,-2 -3.83674,-2 -2.110208,0 -4.583675,0.9 -5.496593,2 -1.429772,1.722771 -0.897944,2 3.83674,2 3.996972,0 5.496593,-0.545655 5.496593,-2 z"
       id="path1133" />
  </g>
</svg>
