<?xml version="1.0" encoding="UTF-8" standalone="no"?>
<!-- Created with Inkscape (http://www.inkscape.org/) -->

<svg
   version="1.1"
   id="svg231"
   width="104"
   height="209.33333"
   viewBox="0 0 104 209.33333"
   xmlns="http://www.w3.org/2000/svg"
   xmlns:svg="http://www.w3.org/2000/svg">
  <defs
     id="defs235" />
  <g
     id="g237">
    <path
       style="fill:#000000;stroke-width:1.33333"
       d="m 52.152913,203.22489 c -1.550769,-1.97148 -2.81958,-4.61424 -2.81958,-5.87279 0,-2.68732 -5.848462,-14.0577 -8.694694,-16.90394 -2.996396,-2.99639 -2.418992,-5.27902 2.795336,-11.05066 3.175486,-3.51488 4.622401,-6.29869 4.333333,-8.33717 -0.394747,-2.78369 -0.702785,-2.60549 -3.407763,1.97145 -1.635584,2.76748 -3.890216,5.38346 -5.010294,5.81327 -2.677,1.02727 -8.501946,-2.863 -9.93653,-6.63625 -1.886344,-4.96146 -5.15402,-6.63894 -14.497306,-7.44226 L 6,154 5.6486239,148 C 5.4523912,144.64918 6.8039143,136.40726 8.7096151,129.33333 16.319803,101.08441 18.651583,94.531809 24.604511,84.666665 c 1.770062,-2.933333 4.44959,-7.542624 5.954505,-10.242868 1.504916,-2.700245 3.386831,-5.311641 4.182035,-5.803103 0.795202,-0.491462 1.853776,-1.921795 2.352386,-3.178519 0.49861,-1.256723 6.156563,-6.939865 12.57323,-12.629205 6.416666,-5.68934 11.666666,-10.853681 11.666666,-11.476313 0,-0.622631 1.635756,-3.076043 3.635014,-5.452024 2.8635,-3.403078 3.807662,-6.203539 4.448453,-13.194476 0.855677,-9.335303 4.716953,-16.7052143 9.742869,-18.5959527 3.159186,-1.1884779 16.73556,0.6010255 18.584108,2.4495732 0.76606,0.7660603 1.79533,4.5302495 2.287263,8.3648645 0.80434,6.269756 0.43856,7.83133 -3.631359,15.503032 -5.543265,10.448921 -6.888184,21.202941 -4.307138,34.440021 0.981085,5.031567 1.675353,9.557094 1.542817,10.056726 -0.132533,0.499634 -0.579919,8.899634 -0.994183,18.666667 -0.971193,22.897682 -4.24632,34.718202 -16.041618,57.897092 -8.41132,16.52906 -10.369286,23.5014 -11.193751,39.86115 L 64.666667,206 59.81958,206.4047 c -3.938833,0.32887 -5.375421,-0.26697 -7.666667,-3.17981 z m 4.974022,-27.42452 c 0.87171,-3.77645 1.382136,-7.06908 1.134278,-7.31693 -1.0348,-1.0348 -6.092802,10.404 -5.399421,12.21092 1.365757,3.5591 2.655551,2.07914 4.265143,-4.89399 z m 5.206398,-15.40993 C 63.25,158.41662 64,155.5413 64,154.00085 c 0,-1.54047 0.617777,-3.41863 1.372839,-4.17369 0.755061,-0.75507 4.103997,-7.92507 7.44208,-15.93334 6.407222,-15.37133 10.595714,-34.940242 9.176625,-42.873789 -1.299677,-7.265959 -0.892789,-50.077364 0.520203,-54.734012 0.731084,-2.409354 2.602358,-6.440589 4.158388,-8.958298 2.944845,-4.76486 3.323084,-14.020431 0.609282,-14.909294 -3.171848,-1.038888 -6.306185,3.342249 -7.403901,10.349083 -2.136244,13.635873 -4.319513,18.947017 -10.084009,24.530933 -3.048004,2.952523 -9.948004,9.620567 -15.333334,14.817876 -5.385328,5.197309 -10.691506,11.197309 -11.791506,13.333333 -1.1,2.136024 -2.669334,4.48368 -3.487407,5.217013 -3.150307,2.823982 -15.060216,28.361165 -16.789505,35.999995 -1.500354,6.62755 -3.95064,20.50119 -4.201978,23.7918 -0.137317,1.79782 1.625428,3.14116 6.559727,4.99899 3.711127,1.39729 8.036039,3.74099 9.610915,5.2082 3.663353,3.41293 4.530317,3.35577 8.19027,-0.54007 4.680322,-4.98197 7.918244,-5.19712 12.298231,-0.81713 2.954881,2.95488 3.819747,5.05055 3.819747,9.25565 0,6.2884 1.294888,6.93338 3.666666,1.82634 z"
       id="path259" />
  </g>
</svg>
