<?xml version="1.0" encoding="UTF-8" standalone="no"?>
<!-- Created with Inkscape (http://www.inkscape.org/) -->

<svg
   version="1.1"
   id="svg221"
   width="106.66667"
   height="206.66667"
   viewBox="0 0 106.66667 206.66667"
   xmlns="http://www.w3.org/2000/svg"
   xmlns:svg="http://www.w3.org/2000/svg">
  <defs
     id="defs225" />
  <g
     id="g227">
    <path
       style="fill:#000000;stroke-width:1.33333"
       d="m 87.333336,199.96684 c -7.024908,-1.92174 -22.978635,-5.30017 -25.028725,-5.30017 -2.732093,0 -21.59734,-10.07803 -29.333049,-15.67005 C 26.458419,174.28838 21.124159,167.44618 16.602342,158 c -3.884083,-8.11393 -3.713521,-31.2806 0.28468,-38.66666 6.317891,-11.67135 21.678187,-20.934798 34.846224,-21.014974 7.409631,-0.04512 22.604376,5.740244 26.796707,10.202774 4.746259,5.05216 8.330039,17.23538 7.417524,25.21621 -1.37418,12.01853 -3.992701,17.16141 -10.98138,21.56783 -9.858268,6.21573 -10.535868,6.32397 -20.141041,3.2174 -11.474797,-3.71127 -18.221008,-10.25076 -19.521548,-18.92338 -1.197178,-7.98336 1.159701,-14.82015 6.47142,-18.77218 12.015836,-8.94005 24.545094,-3.49685 25.109555,10.90857 C 67.145602,138.39952 66.06025,140 61.280049,140 c -4.007855,0 -4.648395,-1.07265 -5.573441,-9.33333 -0.28416,-2.53755 -1.255753,-3.43474 -4.069769,-3.75811 -3.148973,-0.36186 -3.994063,0.28741 -5.705472,4.38338 -1.80918,4.32998 -1.793999,5.2612 0.152648,9.36345 2.885588,6.08093 5.025013,7.65552 11.247109,8.27772 6.70243,0.67025 12.304002,-2.2232 16.630641,-8.59041 5.871523,-8.64073 3.588883,-19.33896 -5.772754,-27.05561 -4.320498,-3.56132 -5.725922,-3.95085 -14.159468,-3.92447 -14.171012,0.0443 -22.726773,4.6704 -27.306477,14.76454 -5.890624,12.98356 -1.970068,31.47884 9.099824,42.92856 3.397411,3.51399 7.677111,6.74983 9.510445,7.19075 1.833333,0.44093 6.333333,2.31397 10,4.16233 7.033975,3.54579 9.218692,4.15483 27.333334,7.61976 14.030971,2.68382 17.868231,4.47315 18.459961,8.60796 0.81817,5.71716 -4.651962,7.83106 -13.793294,5.33032 z M 8.3037793,54.54662 C 4.1260473,52.961854 3.4352092,50.334021 5.2617907,42.975399 7.9184906,32.272539 12.599869,23.610658 19.406075,16.804452 27.842937,8.3675911 32.026042,6.7459592 46.270849,6.389997 c 10.853038,-0.2712056 12.339358,0.022209 19.898392,3.928144 7.658624,3.957397 19.164095,15.615129 19.164095,19.41771 0,0.763129 0.965149,2.453986 2.144775,3.757458 1.317084,1.45536 2.217542,5.027648 2.333333,9.256766 C 90.130471,54.402028 89.948099,54.455169 47.333335,55.1277 27.533334,55.440177 9.9700342,55.178686 8.3037793,54.54662 Z M 74.43618,44.705609 c 3.052416,-0.515703 5.832123,-1.394371 6.177125,-1.952596 C 81.729133,40.947566 72.030089,24.262366 67.791591,20.695906 60.948995,14.938242 54.925534,13.022716 46.000001,13.765948 31.712224,14.955696 20.932777,22.867824 16.871985,35.145953 13.188121,46.284409 13.108184,46.251474 43.033756,45.925154 57.252672,45.770107 71.383762,45.221311 74.43618,44.705609 Z"
       id="path398" />
  </g>
</svg>
