<?xml version="1.0" encoding="UTF-8" standalone="no"?>
<!-- Created with Inkscape (http://www.inkscape.org/) -->

<svg
   version="1.1"
   id="svg211"
   width="137.33333"
   height="216"
   viewBox="0 0 137.33333 216"
   xmlns="http://www.w3.org/2000/svg"
   xmlns:svg="http://www.w3.org/2000/svg">
  <defs
     id="defs215" />
  <g
     id="g217">
    <path
       style="fill:#000000;stroke-width:1.33333"
       d="m 106.99133,209.96083 c -0.95773,-1.71136 -2.02434,-2.06456 -3.82628,-1.26702 -2.64135,1.16907 -79.510032,2.17528 -83.498384,1.093 -1.319425,-0.35804 -2.330292,-1.89773 -2.326334,-3.54333 0.0055,-2.29913 1.335112,-3.33007 6.332634,-4.91015 5.791135,-1.831 6.392397,-2.42212 7.115733,-6.99564 0.434555,-2.7476 1.758016,-6.06516 2.941026,-7.37237 1.805117,-1.99464 1.945197,-3.65665 0.871295,-10.33771 C 32.847397,165.71784 31.455323,158.8118 28.024159,144 c -4.42699,-19.11063 -5.176328,-25.37472 -3.884621,-32.47349 0.647861,-3.56042 0.860452,-6.98718 0.472423,-7.61502 -0.388028,-0.62785 -2.742898,-1.52375 -5.233041,-1.99091 -7.003123,-1.31379 -7.013398,-4.267161 -0.02527,-7.262624 l 5.979679,-2.563189 V 74.004559 c 0,-20.005464 -1.749572,-27.337892 -6.523025,-27.337892 C 14.695162,46.666667 12,51.75372 12,59.520959 c 0,8.079416 -0.930076,11.145708 -3.3807471,11.145708 -3.748652,0 -5.657202,-3.6666 -4.6478343,-8.92916 C 5.2638777,54.998988 10.406635,39.613425 14.134277,31.333333 17.39247,24.096012 24.355717,16 27.322225,16 c 3.913118,0 3.302586,2.904553 -1.909916,9.086273 -5.280227,6.262036 -7.090471,12.202395 -3.745643,12.291419 C 28.381193,37.556403 33.198877,50.151371 34.144979,70 c 1.102636,23.132595 1.30734,23.924455 7.249179,28.042152 4.220288,2.924658 5.275376,4.482458 5.28688,7.805848 0.01053,3.02536 1.485313,5.69011 5.435217,9.82038 5.970629,6.24327 13.438274,16.06934 18.491634,24.33165 2.888953,4.72346 3.438488,5.07796 4.666667,3.01029 0.768573,-1.29392 1.499646,-11.3018 1.632198,-22.34365 0.260728,-21.719382 3.256489,-37.958913 8.247809,-44.710034 3.186918,-4.310536 6.143621,-13.721077 5.136023,-16.346835 -1.07022,-2.78895 -7.779972,-3.743354 -11.134452,-1.583781 -1.564125,1.006965 -6.123289,5.163051 -10.131476,9.235747 -5.206233,5.290022 -8.297281,7.4049 -10.822802,7.4049 -5.152253,0 -4.501625,-3.296839 2.131476,-10.800548 12.853549,-14.540603 15.064936,-18.432539 11.666666,-20.532786 -1.907,-1.17859 -1.646152,-7.607872 0.434255,-10.703325 0.972175,-1.446504 2.853761,-6.161853 4.181305,-10.478555 3.423043,-11.13052 7.755603,-15.5129319 16.784109,-16.9772366 8.533943,-1.3840927 12.840973,-0.674432 22.034693,3.6306135 11.11816,5.2061751 13.44238,12.9330531 15.19884,50.5285031 1.60929,34.44564 1.66692,48.795547 0.20521,51.101097 -0.61642,0.97228 -3.62186,2.10324 -6.67876,2.51326 -3.0569,0.41001 -5.95207,1.38311 -6.43372,2.16243 -0.48165,0.77932 -0.75464,15.24835 -0.60664,32.15341 0.14799,16.90506 -0.29857,33.73647 -0.99236,37.40314 -1.75472,9.27373 0.1187,12.75133 8.07976,14.9983 3.41369,0.96351 6.56153,2.67651 6.99522,3.80668 1.30825,3.40924 -1.62333,7.19394 -5.58216,7.2066 -1.99086,0.007 -6.69793,0.38144 -10.46014,0.8335 -5.70897,0.68594 -7.06003,0.42941 -8.16828,-1.55092 z m -14.157674,-8.92066 12.166994,-1.56836 1.52412,-8.7359 c 0.83826,-4.80475 1.76688,-24.93591 2.0636,-44.73591 0.29671,-19.8 0.92608,-36.98793 1.3986,-38.1954 0.52941,-1.35283 3.12547,-2.53525 6.76432,-3.08093 4.85194,-0.72759 6.05565,-1.48502 6.74876,-4.24656 0.46396,-1.848558 0.49521,-16.962138 0.0695,-33.58573 -0.87533,-34.177175 -2.04444,-39.774283 -10.07021,-48.211124 -5.79312,-6.089837 -15.551386,-8.443221 -21.431506,-5.1686 -3.404921,1.896189 -10.589728,14.500248 -10.684239,18.742988 -0.02762,1.240055 -0.650224,2.625464 -1.383557,3.078689 -4.452468,2.751776 1.568545,11.357894 8.764541,12.52757 5.959735,0.968728 11.235461,7.368388 11.235461,13.629053 0,3.534627 -0.883701,5.5073 -7.694658,17.176711 -2.594371,4.44501 -3.79578,9.213026 -6.887247,27.333333 -0.750674,4.4 -1.673764,19.66269 -2.05131,33.91708 -0.692572,26.14835 -1.608087,30.42727 -5.641675,26.36804 -1.710973,-1.72185 -7.46244,-11.61004 -9.676746,-16.63671 C 65.954569,144.89532 47.186175,120.8488 44.127167,119 c -4.776741,-2.88696 -9.366533,-2.08742 -10.880813,1.89544 -2.313755,6.08563 1.480241,26.04865 11.119313,58.50693 1.861577,6.26862 1.822832,7.0919 -0.564624,11.99738 -3.600268,7.39744 -2.853887,10.39516 2.865623,11.50929 5.937273,1.15656 30.368817,0.16755 46.16699,-1.86887 z"
       id="path537" />
  </g>
</svg>
