<?xml version="1.0" encoding="UTF-8" standalone="no"?>
<!-- Created with Inkscape (http://www.inkscape.org/) -->

<svg
   version="1.1"
   id="svg201"
   width="261.33334"
   height="208"
   viewBox="0 0 261.33334 208"
   xmlns="http://www.w3.org/2000/svg"
   xmlns:svg="http://www.w3.org/2000/svg">
  <defs
     id="defs205" />
  <g
     id="g207">
    <path
       style="fill:#000000;stroke-width:1.33333"
       d="m 127.71389,200.57119 c -2.37079,-5.20332 -0.01,-5.8612 21.1163,-5.88411 l 18.83019,-0.0204 5.32676,-5.77886 c 2.92972,-3.17836 6.09438,-8.12836 7.03261,-11 0.93821,-2.87162 2.81759,-7.31226 4.17639,-9.86806 3.53441,-6.648 3.09188,-10.99772 -2.18951,-21.52124 -2.80433,-5.58782 -5.53376,-13.90736 -6.85415,-20.89197 -1.80254,-9.53526 -3.29088,-13.27215 -8.33996,-20.93987 -3.38021,-5.133337 -7.3841,-10.338981 -8.89752,-11.568101 -4.33314,-3.519174 -14.93652,-22.463314 -16.67221,-29.786844 -0.8662,-3.654782 -1.67932,-10.245058 -1.80695,-14.645058 -0.1276,-4.4 -1.22228,-10.25 -2.43257,-13 -2.11963,-4.81617 -2.44524,-5 -8.85654,-5 -3.66081,0 -7.03015,-0.60537 -7.48743,-1.345266 -1.63812,-2.650533 0.8131,-6.308846 5.03887,-7.520237 3.06664,-0.879107 5.20052,-2.861715 7.43173,-6.904884 3.67076,-6.6518115 7.36426,-9.3582773 15.16229,-11.1103756 11.94271,-2.6833497 22.28803,6.2445686 33.83231,29.1969756 6.73077,13.382165 5.53744,12.158563 31.55028,32.350453 7.21141,5.5977 13.73125,12.175414 18.41184,18.575259 3.98569,5.449724 10.0356,13.03858 13.44421,16.864118 8.90896,9.99863 13.40196,18.18765 12.89175,23.49672 -0.36681,3.81701 -1.12632,4.6266 -5.75591,6.13544 -2.93333,0.95601 -8.36329,3.82306 -12.06658,6.37124 -3.7033,2.54817 -9.7033,5.36598 -13.33334,6.2618 -6.26032,1.54492 -6.57593,1.83466 -6.13101,5.62876 0.258,2.2 0.99117,4.97913 1.62931,6.17585 1.11964,2.09975 0.47706,7.61273 -2.77686,23.82415 -0.80956,4.03333 -1.79982,9.24984 -2.20057,11.59222 l -0.72865,4.2589 7.1247,0.40777 c 5.60644,0.32088 7.22186,0.91865 7.58062,2.80516 1.03189,5.42603 -1.79579,6.27036 -20.92754,6.24887 -19.36215,-0.0217 -23.18713,-0.9351 -20.69524,-4.94163 0.98003,-1.57572 4.3236,-2.81863 9.96583,-3.70463 L 208.59833,194 l 2.52441,-15.30681 c 2.94492,-17.85655 2.18587,-21.79292 -5.50152,-28.53056 -2.61217,-2.28944 -5.64409,-5.05402 -6.7376,-6.1435 -1.76147,-1.75496 -1.9,-1.12621 -1.21476,5.51319 0.63777,6.17939 0.20837,8.71375 -2.4477,14.4466 -1.77164,3.82389 -3.22116,7.66663 -3.22116,8.5394 0,0.87279 -2.0852,5.58609 -4.63377,10.47404 -3.29544,6.32035 -4.547,10.34868 -4.33333,13.9474 l 0.30044,5.06024 -8,0.85529 c -4.4,0.4704 -16.56287,0.9204 -27.02859,1 L 129.27617,204 Z m 83.21945,-55.50452 c -2.36593,-2.36594 -1.94147,-7.45676 0.74147,-8.89263 1.28781,-0.68921 5.03781,-0.9552 8.33333,-0.59107 5.55548,0.61383 6.62307,0.18536 14.65853,-5.8831 4.76667,-3.59983 9.71667,-6.93613 11,-7.414 3.51456,-1.30869 2.96488,-2.66048 -4.817,-11.8459 C 236.91699,105.79799 232.0151,99.3 229.95657,96 223.66383,85.912204 202.84434,65.570455 194.94902,61.795781 c -5.66712,-2.709398 -7.43512,-3.052204 -9.00822,-1.746648 -1.07648,0.893398 -3.90353,2.022422 -6.28234,2.50894 -3.40002,0.695378 -4.32512,1.554776 -4.32512,4.017939 0,1.744405 1.17658,3.788812 2.65426,4.612007 1.45986,0.813256 5.8349,3.503609 9.72231,5.978562 3.88743,2.474955 7.35979,4.208167 7.71637,3.851586 0.35659,-0.356583 0.0383,-2.252951 -0.7074,-4.214152 -3.34497,-8.797978 8.22103,-3.134527 11.94142,5.847269 1.87909,4.536513 -1.12336,16.456599 -4.30261,17.081879 -1.17576,0.231244 -4.12262,-2.446872 -6.98897,-6.351631 -3.95673,-5.390137 -6.88598,-7.643153 -14.52758,-11.173793 -10.7638,-4.973179 -14.17447,-8.950835 -14.17447,-16.530819 0,-6.741821 2.96556,-10.740708 8.35068,-11.260401 3.67155,-0.354327 4.28503,-0.91423 4.10865,-3.749852 -0.25649,-4.123772 -3.84097,-14.894464 -7.32157,-22 -3.69731,-7.547947 -8.11093,-12.201847 -13.8434,-14.59702 -6.77036,-2.828841 -8.32351,-2.596292 -4.21965,0.6318 5.0753,3.992229 5.69457,7.448028 2.02757,11.31466 -1.70625,1.799136 -4.15815,3.281521 -5.44867,3.29419 -2.7374,0.02688 -6.61292,-4.088429 -7.85404,-8.339998 -0.74404,-2.54876 -0.88596,-2.393166 -1,1.096368 -0.0731,2.236666 0.36276,4.636666 0.96859,5.333333 2.05672,2.365135 4.21045,11.894424 5.49357,24.306517 1.41024,13.64172 4.04979,19.911227 12.26892,29.141376 2.70079,3.033008 6.51731,8.133008 8.48115,11.333334 7.48947,12.204973 12.01565,18.137383 21.22457,27.818773 8.87437,9.32966 15.4303,17.54089 15.4303,19.32625 0,1.71763 4.40708,7.34042 5.75335,7.34042 0.95478,0 0.90265,-0.544 -0.15335,-1.6 z M 186.44011,129.1874 c -2.57132,-1.59772 -3.06385,1.15003 -0.92837,5.17924 l 1.8216,3.437 0.4401,-3.75715 c 0.2479,-2.11631 -0.3344,-4.23839 -1.33333,-4.85909 z M 8.6553881,66.644856 C 0.77269722,51.401413 28.146835,33.60468 51.766429,38.617099 c 17.623462,3.739953 31.014506,19.203966 25.519994,29.470556 -1.306805,2.44179 -3.114024,2.579012 -33.965761,2.579012 H 10.735147 Z M 70.398071,60.546996 C 70.914515,56.932076 61.208764,48.830256 53.94632,46.813991 45.348152,44.426888 32.610358,44.967755 26.725837,47.969815 21.413314,50.680061 17.064802,55.697764 15.409731,61.027351 l -0.940127,3.027352 27.7652,-0.360686 c 27.01318,-0.350914 27.775979,-0.436152 28.163267,-3.147021 z"
       id="path676" />
  </g>
</svg>
