<?xml version="1.0" encoding="UTF-8" standalone="no"?>
<!-- Created with Inkscape (http://www.inkscape.org/) -->

<svg
   version="1.1"
   id="svg195"
   width="169.33333"
   height="217.33333"
   viewBox="0 0 169.33333 217.33333"
   xmlns="http://www.w3.org/2000/svg"
   xmlns:svg="http://www.w3.org/2000/svg">
  <defs
     id="defs199" />
  <g
     id="g201">
    <path
       style="fill:#000000;stroke-width:1.33333"
       d="m 123.50552,208.90886 c -1.49756,-1.12988 -2.19439,-4.38712 -2.46354,-11.5155 l -0.37532,-9.93999 -7.96767,-6.04973 C 108.31677,178.07629 99.91677,170.35873 94.032323,164.25352 88.147878,158.14829 81.818152,152.34797 79.966264,151.36392 77.69319,150.15604 72.186297,149.6438 63.017288,149.78736 L 49.43538,150 l -4.774572,5.0634 c -4.576526,4.85337 -5.200833,5.08853 -15.051023,5.6695 -5.652049,0.33335 -10.876452,0.15483 -11.609785,-0.39673 -0.733334,-0.55156 -3.883334,-3.83944 -7,-7.30639 -9.5575242,-10.63169 -6.698959,-17.3846 6.648282,-15.70552 6.172318,0.77647 16.859397,0.85874 27.856624,0.21442 4.186429,-0.24528 5.731937,-3.43092 8.185406,-16.87202 1.825056,-9.99838 1.240939,-16.45229 -2.353152,-25.999995 -1.242236,-3.3 -2.392996,-8.7 -2.557245,-12 -0.347085,-6.97343 -2.449495,-11.503835 -5.837571,-12.579169 -2.083486,-0.661273 -2.368282,-2.27185 -2.19685,-12.423633 0.108333,-6.415125 0.981216,-15.117558 1.939745,-19.338742 0.958531,-4.221183 1.328017,-8.089643 0.821081,-8.596577 -0.506934,-0.506935 -2.580374,0.05811 -4.607646,1.255642 -4.840539,2.859377 -7.165341,1.252528 -7.165341,-4.952517 0,-3.969959 1.040712,-6.054517 5.133333,-10.282135 7.69627,-7.9501343 11.530353,-9.52312 21.300577,-8.7388601 11.248381,0.902912 15.901992,4.6123321 20.646917,16.4577741 2.378618,5.938092 7.393288,13.732211 14.850666,23.081858 6.192648,7.763999 12.250794,16.035352 13.462544,18.380788 2.95204,5.713906 10.03345,16.138241 11.6356,17.128423 0.70825,0.437727 2.72841,3.603404 4.48924,7.03484 3.45938,6.741508 15.11584,18.686663 24.74779,25.360723 11.409,7.9054 13.69397,10.30816 12.72026,13.37605 -0.49498,1.55954 -1.60953,2.88428 -2.47678,2.94386 -13.05126,0.89657 -27.57682,5.00194 -27.57682,7.79405 0,1.50436 6.40722,3.08202 8.14783,2.00626 2.42184,-1.49677 10.44877,0.80243 11.83332,3.38948 1.00691,1.88142 0.80611,3.0575 -0.79549,4.65908 -1.71274,1.71274 -3.71774,1.96418 -9.99736,1.25371 L 132,148.98889 l -0.23517,9.83888 c -0.12934,5.4114 -0.27934,18.76767 -0.33333,29.68061 -0.0942,19.04638 -0.2132,19.88448 -2.96796,20.90887 -1.76053,0.65467 -3.67696,0.45816 -4.95802,-0.50839 z m -1.67824,-41.04526 c 1.15784,-5.78922 -0.40892,-14.87751 -2.90717,-16.8636 -3.25019,-2.58387 -18.920112,-1.65424 -18.920112,1.12245 0,1.24929 18.849962,19.80145 20.166662,19.84805 0.45834,0.0163 1.20561,-1.83188 1.66062,-4.1069 z M 33.145025,149.83766 c 5.28388,-1.05678 4.096201,-3.171 -1.781332,-3.171 -5.496974,0 -8.929104,1.21247 -7.944012,2.80638 0.865399,1.40025 3.965968,1.51649 9.725344,0.36462 z M 110,138.66445 c 7.06134,-0.0681 8.26832,-1.72764 5.51727,-7.58565 -3.41175,-7.2649 -7.94429,-13.72574 -9.63659,-13.73636 -0.79895,-0.005 -2.13609,1.49089 -2.97141,3.32422 -1.1516,2.5275 -2.53298,3.33334 -5.71402,3.33334 -3.987571,0 -4.153998,0.20626 -3.361919,4.16666 0.458334,2.29167 0.833334,5.311 0.833334,6.70963 0,2.90229 4.712144,5.30711 8.666665,4.42299 C 104.8,138.97137 107.8,138.68569 110,138.66445 Z m -28.748995,-2.6204 c 4.459525,-2.38665 2.757281,-21.37739 -1.916175,-21.37739 -0.921238,0 -2.443232,0.92569 -3.382207,2.05709 -1.016646,1.22498 -3.319842,1.89916 -5.69385,1.66667 -3.688193,-0.3612 -4.163734,0.10862 -6.352692,6.27624 -3.053934,8.6048 -3.102734,10.99931 -0.239416,11.74756 4.3904,1.14734 15.172987,0.92035 17.58434,-0.37017 z m 50.496565,-11.62047 c 0.77968,-5.47667 -3.12058,-10.30026 -11.60914,-14.35742 -4.45907,-2.13123 -8.48005,-3.50232 -8.93552,-3.04685 -0.77556,0.77556 3.25648,7.39803 10.32606,16.96015 3.69079,4.99205 9.53498,5.24605 10.2186,0.44412 z m -39.747572,-16.1873 c 0,-4.32367 -7.582649,-18.155604 -11.53894,-21.04882 -4.417794,-3.230711 -9.794787,-5.213077 -9.793554,-3.610645 4.61e-4,0.599418 2.700461,4.528672 6,8.731676 3.299538,4.203005 5.999161,7.993039 5.999161,8.422299 0,1.44529 6.971537,9.93587 8.158252,9.93587 0.646295,0 1.175081,-1.09367 1.175081,-2.43038 z M 68.709264,98.800882 c -0.488931,-1.540486 -1.748533,-2.800883 -2.799116,-2.800883 -2.282985,0 -2.434669,1.861902 -0.453295,5.564131 1.85728,3.47036 4.514386,1.21288 3.252411,-2.763248 z M 112,93.43546 c 0,-1.398115 -8.77392,-13.406324 -11.27807,-15.435461 -0.905005,-0.733334 -2.638925,-3.133333 -3.853156,-5.333333 -1.214231,-2.2 -4.896865,-7.6 -8.183634,-12 C 77.405189,45.566185 69.998411,33.994594 68.629207,29.333333 c -1.63658,-5.571499 -5.607424,-6.742359 -9.242758,-2.72536 -2.406009,2.658611 -2.401105,2.72536 0.20025,2.72536 3.667318,0 7.386468,4.462353 6.853777,8.22338 -0.379441,2.679014 -1.101083,3.059789 -5.207864,2.74793 -5.387573,-0.409116 -8.458266,2.09208 -9.961324,8.113876 -0.820678,3.287943 -0.130373,4.524431 5.582782,10 6.073749,5.821169 16.350677,13.136143 31.450539,22.386053 3.467536,2.124151 9.467536,6.067993 13.333331,8.764092 C 108.69676,94.491656 112,95.724319 112,93.43546 Z"
       id="path223" />
  </g>
</svg>
