<?xml version="1.0" encoding="UTF-8" standalone="no"?>
<!-- Created with Inkscape (http://www.inkscape.org/) -->

<svg
   version="1.1"
   id="svg191"
   width="204"
   height="110.66667"
   viewBox="0 0 204 110.66667"
   xmlns="http://www.w3.org/2000/svg"
   xmlns:svg="http://www.w3.org/2000/svg">
  <defs
     id="defs195" />
  <g
     id="g197">
    <path
       style="fill:#000000;stroke-width:1.33333"
       d="m 12.549712,105.64625 c -2.523713,-1.70461 -3.1025251,-6.902958 -1.002448,-9.003035 1.0871,-1.0871 3.705677,-1.976545 5.819061,-1.976545 4.090104,0 4.840687,-0.785053 12.747912,-13.333334 6.805688,-10.80021 7.949996,-16.276961 5.352756,-25.618721 -1.173513,-4.220893 -2.13366,-8.819218 -2.13366,-10.218498 0,-3.368489 -2.148046,-4.033785 -10.494269,-3.250301 C 14.987892,42.982829 12.583383,41.691439 11.349875,36.075313 10.89803,34.018078 9.0594628,30.954949 7.2641696,29.268358 2.0450952,24.365293 2.9309095,19.793483 10.333333,13.427982 17.249739,7.4804177 21.83664,5.7621003 34,4.5621168 c 9.324927,-0.9199562 15.48112,1.1486335 20.791621,6.9863522 12.424616,13.658109 21.838342,19.118199 32.961638,19.118199 4.322722,0 15.480741,0.618864 24.795591,1.375252 15.76477,1.280138 17.37539,1.672052 23.28784,5.666666 3.49346,2.360279 8.70583,7.741415 11.58304,11.958082 2.87722,4.216667 5.65835,7.666667 6.18031,7.666667 0.52195,0 3.44593,4.35 6.49775,9.666667 11.74548,20.462186 16.93893,25.216754 32.3182,29.587088 7.19546,2.044741 7.71958,2.459805 7.33333,5.80752 -0.36901,3.19826 -1.04487,3.65115 -5.98509,4.01062 -13.58372,0.98841 -30.65491,-13.761622 -40.5403,-35.028059 C 146.29008,56.460379 144,54.574384 144,63.780807 c 0,4.748402 0.99293,7.929467 3.91164,12.531803 4.22067,6.655291 6.73573,14.140342 6.74759,20.081333 0.0163,8.138797 -12.54184,14.053797 -16.02392,7.547457 -1.23275,-2.30341 -0.82723,-3.31498 2.61974,-6.534945 6.26976,-5.856824 5.42746,-11.557003 -2.33269,-15.786223 -2.30792,-1.257792 -6.63247,-4.609179 -9.61014,-7.447526 -5.23378,-4.988909 -5.50072,-5.082084 -8.02226,-2.800123 -1.43458,1.298281 -3.17501,4.220563 -3.86761,6.493965 -4.92429,16.163359 -7.42067,19.925615 -16.91208,25.487952 -7.434426,4.35686 -12.19235,4.37644 -13.277058,0.0546 -1.145233,-4.562967 0.2143,-6.075774 5.460204,-6.075774 7.082551,0 9.973254,-4.059729 9.973254,-14.006536 0,-4.493704 0.64126,-11.639302 1.42503,-15.879105 0.78377,-4.239802 1.10684,-8.026935 0.71792,-8.415851 C 103.28647,57.50869 81.467561,61.853723 72,65.565578 57.481637,71.25765 57.704029,70.792271 62.660772,85.108933 c 4.690901,13.548826 4.750967,17.456617 0.302277,19.665737 -6.917282,3.43497 -13.747586,-2.15448 -9.018472,-7.380092 1.519867,-1.679435 1.914288,-3.578137 1.295786,-6.237783 C 53.953877,85.624723 48.181685,76.000002 46.150445,76.000002 44.162973,76.000002 40,80.210912 40,82.221268 40,83.860611 30.20396,97.942448 25.545259,103 c -3.34267,3.62886 -9.641775,4.91153 -12.995547,2.64625 z M 113.31292,68.333335 c -0.0159,-2.857249 -0.30574,-3.225166 -1.31292,-1.666666 -1.68588,2.608712 -1.68588,5.333333 0,5.333333 0.73333,0 1.32415,-1.65 1.31292,-3.666667 z m 22.16828,-4.594026 c -3.11024,-15.551186 -7.75773,-22.240445 -15.71197,-22.614673 -2.43974,-0.114784 -6.2359,-0.447524 -8.4359,-0.739423 -2.2,-0.291898 -9.79897,-0.462021 -16.886614,-0.378052 -11.523793,0.136527 -13.638893,-0.227937 -20,-3.4463 C 66.525819,32.55333 54.724353,23.786649 48.750545,17.472539 45.108663,13.623195 44.192156,13.333334 35.662889,13.333334 c -9.477813,0 -12.889788,1.082125 -17.956406,5.694964 -2.694576,2.453244 -2.793688,3.006563 -1.104586,6.166716 1.020579,1.909409 2.208252,4.585295 2.639275,5.946412 0.632205,1.996434 1.489976,2.269503 4.437919,1.412806 2.009833,-0.584075 6.040344,-1.097716 8.95669,-1.141426 4.550014,-0.0682 5.563055,0.460442 7.138963,3.725334 1.010084,2.092644 2.154516,7.311775 2.543184,11.598071 0.533705,5.885803 1.603393,8.867396 4.370397,12.18182 l 3.663728,4.388556 6.49064,-2.262526 c 3.569852,-1.24439 8.85375,-2.676366 11.741995,-3.182169 2.888245,-0.505802 8.862983,-2.387177 13.277193,-4.180832 5.63704,-2.290534 11.695848,-3.480146 20.356269,-3.996833 l 12.33043,-0.735644 4.39238,4.596639 c 2.4158,2.52815 6.06795,6.81472 8.11588,9.525709 2.20061,2.913096 4.85909,4.929071 6.5,4.929071 2.41163,0 2.66451,-0.559901 1.92436,-4.260693 z"
       id="path815" />
  </g>
</svg>
