<?xml version="1.0" encoding="UTF-8" standalone="no"?>
<!-- Created with Inkscape (http://www.inkscape.org/) -->

<svg
   version="1.1"
   id="svg181"
   width="233.33333"
   height="217.33333"
   viewBox="0 0 233.33333 217.33333"
   xmlns="http://www.w3.org/2000/svg"
   xmlns:svg="http://www.w3.org/2000/svg">
  <defs
     id="defs185" />
  <g
     id="g187">
    <path
       style="fill:#000000;stroke-width:1.33333"
       d="M 25.666666,209.85761 C 24.75,209.44704 24,207.73012 24,206.04224 c 0,-5.16232 5.06469,-7.21488 19.547979,-7.92216 19.338769,-0.94442 21.738721,-1.63735 27.486632,-7.93622 2.769036,-3.03446 5.355691,-7.0172 5.74812,-8.85053 0.392431,-1.83333 1.594551,-5.3408 2.671379,-7.79436 1.893258,-4.31381 1.822324,-4.62181 -2.149547,-9.33333 -2.259077,-2.67978 -7.306697,-9.27623 -11.216933,-14.6588 -3.910238,-5.38256 -8.829596,-10.87046 -10.931909,-12.1953 C 45.475126,131.25098 28.066894,111.97759 22.623132,101.33333 16.320089,89.008916 18.355098,81.814444 32.61742,65.999999 38.690751,59.265726 48.873282,41.762171 47.510397,40.399286 46.186466,39.075355 35.613511,37.536126 21.333333,36.588382 13.633333,36.07735 6.6855775,35.147294 5.893876,34.52159 3.797661,32.864894 5.246397,25.526604 7.8115614,24.807929 9.0152025,24.470709 12.592405,23.791068 15.7609,23.297616 20.813289,22.510772 21.997704,21.626988 25.391385,16.111552 30.605554,7.6374475 36.899961,4.8526245 50.234454,5.1202775 c 7.940612,0.1593859 13.232038,3.2996504 16.693881,9.9071985 5.909628,11.279578 2.794825,27.45449 -7.214384,37.463699 -3.692341,3.692341 -17.380956,20.087432 -20.380618,24.41022 -2.486487,3.583253 2.675149,5.54587 14.819966,5.63502 24.607231,0.18063 58.518491,12.249308 82.513361,29.365675 16.50975,11.77697 28.07868,18.0384 39.33334,21.2883 8.64526,2.49642 20,8.05594 20,9.79245 0,0.55944 0.15,1.46637 0.33333,2.0154 0.18333,0.54904 -0.56667,1.05764 -1.66667,1.13025 -10.20052,0.67327 -10.2583,0.68891 -6.62462,1.79289 4.13612,1.25666 9.63953,4.30199 10.86998,6.01495 1.63724,2.27929 -0.30272,3.397 -5.89605,3.397 -3.02132,0 -7.33591,0.56133 -9.58797,1.24741 -2.25207,0.68608 -9.46486,2.19582 -16.0284,3.35498 -6.56356,1.15916 -13.29246,2.99782 -14.9531,4.08592 -1.66064,1.0881 -4.39046,1.97836 -6.06626,1.97836 -2.64655,0 -3.0881,0.7446 -3.36034,5.66666 -0.99258,17.94602 -0.71168,22.39395 1.57376,24.91934 1.53428,1.69536 2.00224,3.53648 1.38952,5.46696 -0.8136,2.56342 -1.5616,2.80873 -6.26918,2.05596 -3.44722,-0.55123 -6.0485,-0.27122 -7.32543,0.78854 -2.07618,1.72308 -33.925521,2.06398 -39.109623,0.4186 -3.242796,-1.02921 -3.436691,-5.5536 -0.278948,-6.509 4.922396,-1.48932 19.964911,-3.45402 26.518951,-3.46366 9.88694,-0.0145 12.99587,-2.89743 13.08155,-12.13046 l 0.0662,-7.12982 L 124,173.09901 c -4.76667,-2.74125 -9.56667,-5.36721 -10.66667,-5.83547 -8.49106,-3.61452 -14.721586,-5.93021 -15.955607,-5.93021 -0.839638,0 -1.328207,1.97564 -1.148491,4.64417 0.23244,3.4514 -0.581516,5.59168 -3.169196,8.33334 -1.91508,2.02904 -5.683979,7.7244 -8.375328,12.65636 -3.762645,6.89512 -4.804092,10.2036 -4.507024,14.31798 0.49835,6.90214 -1.573904,9.17868 -6.133666,6.73838 -2.585763,-1.38386 -4.479867,-1.46131 -8.360275,-0.34186 -5.593179,1.61358 -37.41005,3.3436 -40.017077,2.17591 z M 129.33333,163.39374 c 0,-2.66566 0.804,-3.3977 4.33333,-3.94549 2.38334,-0.36992 5.53334,-0.59013 7,-0.48937 10.46974,0.71929 21.38419,-1.35247 19.10935,-3.62731 -0.44739,-0.44739 -6.13,-1.04373 -12.62805,-1.32523 -21.95856,-0.95121 -30.45551,-2.05448 -37.81463,-4.90998 -4.03333,-1.56502 -7.90333,-3.35194 -8.6,-3.97092 C 100.03667,144.50644 98.629288,144 97.605825,144 c -1.023461,0 -3.453461,-1.10059 -5.4,-2.44576 -1.946537,-1.34516 -6.14584,-3.46298 -9.331782,-4.70627 -8.07544,-3.15136 -19.745688,-10.82727 -21.529765,-14.16085 -3.48464,-6.51111 3.375208,-11.55398 14.076216,-10.34782 5.819832,0.65598 5.960224,0.5897 3.802058,-1.79504 -1.2325,-1.3619 -3.36178,-2.83193 -4.731732,-3.26674 -1.369952,-0.43481 -2.490821,-1.9978 -2.490821,-3.47331 0,-2.31439 0.575499,-2.55636 4.191255,-1.7622 11.529425,2.53228 17.609098,7.38876 16.908686,13.50674 -0.429925,3.75533 -0.513155,3.78759 -10.766608,4.174 -10.397961,0.39185 -13.062796,1.97218 -7.129518,4.22801 1.762097,0.66994 3.574025,1.8171 4.026506,2.54923 0.976839,1.58055 8.553815,5.4988 10.641196,5.50283 0.803999,0.002 6.120236,2.40155 11.813864,5.33334 5.89745,3.03673 12.23736,5.3305 14.73333,5.3305 2.40971,0 5.08129,0.70002 5.93686,1.55558 2.31422,2.31422 28.94868,2.22976 36.01377,-0.11427 3.13647,-1.04059 5.49535,-2.51396 5.24195,-3.27416 -0.2534,-0.7602 -2.95875,-2.70317 -6.01189,-4.31772 -7.85539,-4.15396 -13.09722,-7.3953 -34.26607,-21.18875 C 95.452403,97.160353 80.44407,92.30596 51.333333,92.039184 43.813503,91.970272 38.994909,91.182595 35,89.369239 c -6.466614,-2.935304 -6.523515,-2.829176 -4.226298,7.882381 1.282643,5.98076 2.630804,7.82215 12.311487,16.81569 5.979113,5.55471 13.480484,12.01195 16.66971,14.34942 3.189228,2.33746 8.838276,6.86139 12.553441,10.05316 3.715166,3.19177 11.315629,7.84068 16.889919,10.33091 5.57429,2.49022 12.353941,5.72877 15.065901,7.19677 2.71195,1.468 5.75736,2.66909 6.76758,2.66909 1.01021,0 3.21591,1.46804 4.90154,3.26231 1.68563,1.79428 4.34022,3.51257 5.89908,3.81843 6.52758,1.28076 7.50097,0.97533 7.50097,-2.35366 z M 58.666666,25.513145 c 0,-7.981967 -4.032463,-12.179812 -11.699964,-12.179812 -5.137187,0 -6.910905,0.715125 -10.569893,4.261556 C 33.978564,19.938745 32,23.147676 32,24.725848 c 0,2.617397 1.024624,2.985782 11.666666,4.19454 6.416667,0.728825 12.416667,1.419893 13.333333,1.535708 1.082183,0.136725 1.666667,-1.596718 1.666667,-4.942951 z M 38.037897,25.394652 c -1.350383,-2.184964 0.815485,-8.067423 3.49917,-9.503688 5.445906,-2.91456 11.751036,3.049525 8.925132,8.442369 -1.335741,2.549075 -10.994873,3.374185 -12.424302,1.061319 z M 217.55554,87.601081 c -0.92869,-1.119008 -1.57652,-14.689605 -1.82993,-38.333332 l -0.39228,-36.601083 3.33453,-0.389847 c 7.48704,-0.875324 7.71683,0.10272 8.58947,36.55844 0.86837,36.277722 0.34096,40.498073 -5.06107,40.498073 -1.76169,0 -3.85001,-0.779513 -4.64072,-1.732251 z"
       id="path954" />
  </g>
</svg>
