<?xml version="1.0" encoding="UTF-8" standalone="no"?>
<!-- Created with Inkscape (http://www.inkscape.org/) -->

<svg
   version="1.1"
   id="svg91"
   width="97.333336"
   height="206.66667"
   viewBox="0 0 97.333336 206.66667"
   xmlns="http://www.w3.org/2000/svg"
   xmlns:svg="http://www.w3.org/2000/svg">
  <defs
     id="defs95" />
  <g
     id="g97">
    <path
       style="fill:#000000;stroke-width:1.33333"
       d="m 50.712081,201.38962 c -1.661858,-1.05107 -1.903809,-7.54499 -1.615537,-43.3606 0.330532,-41.06584 1.043733,-48.71723 4.537123,-48.67527 5.690381,0.0684 5.719344,0.3242 5.308349,46.8904 -0.391229,44.32656 -0.610204,46.38168 -4.942015,46.38168 -0.733333,0 -2.212897,-0.55629 -3.28792,-1.23621 z M 47.333335,92.923976 C 38.684541,88.712747 20.643625,69.67875 14.659739,58.451832 6.3969292,42.949213 3.3596677,24.812016 7.4918667,15.648436 10.466575,9.0517123 20.592677,3.5290886 26.473649,5.2960578 28.413142,5.878789 32.700001,7.1609929 36.000001,8.1454 c 7.40025,2.207532 20.792225,8.567043 21.935249,10.416496 0.464581,0.75171 2.916046,2.349666 5.447698,3.551012 4.163629,1.975772 9.162462,6.084144 19.535937,16.05593 1.972053,1.895688 5.422053,7.034951 7.666667,11.420581 7.363091,14.386345 5.064755,29.325273 -6.168726,40.096032 -5.13102,4.919665 -5.483057,5.033256 -17.82561,5.751704 C 55.127968,96.10442 53.402777,95.87928 47.333335,92.923976 Z M 70.846889,85.776331 C 80.292657,82.839948 82.312225,80.078103 83.351098,68.676294 84.056988,60.929041 83.74171,58.30858 81.505128,53.333334 78.098555,45.755465 66.572928,34.448931 58.401211,30.668607 54.95521,29.07445 51.431743,26.921859 50.571284,25.88507 49.710827,24.848282 48.101103,24 46.99412,24 45.887139,24 42.831752,22.671428 40.204372,21.047619 34.208384,17.341895 23.365417,17.028503 18.202019,20.41169 c -4.844827,3.174453 -4.696633,9.991653 0.464648,21.374613 2.2,4.851996 4,10.070691 4,11.597099 0,1.526408 4.251244,7.823715 9.44721,13.994015 7.811767,9.276612 11.074236,12.032698 18.84581,15.920656 10.872407,5.439244 10.508261,5.393866 19.887202,2.478258 z"
       id="path1093" />
  </g>
</svg>
