<?xml version="1.0" encoding="UTF-8" standalone="no"?>
<!-- Created with Inkscape (http://www.inkscape.org/) -->

<svg
   version="1.1"
   id="svg211"
   width="136"
   height="217.33333"
   viewBox="0 0 136 217.33333"
   xmlns="http://www.w3.org/2000/svg"
   xmlns:svg="http://www.w3.org/2000/svg">
  <defs
     id="defs215" />
  <g
     id="g217">
    <path
       style="fill:#000000;stroke-width:1.33333"
       d="m 7.4556656,211.26518 c -1.1672828,-1.16728 -2.1223323,-2.58648 -2.1223323,-3.15377 0,-1.74073 4.3403752,-4.7614 11.4553597,-7.97231 C 24.052655,196.86096 28,191.90792 28,186.0714 c 0,-1.93444 0.974033,-8.14187 2.164517,-13.79428 1.190484,-5.65242 2.321135,-15.37712 2.512555,-21.61046 0.191421,-6.23333 1.261583,-13.73333 2.378137,-16.66666 2.067354,-5.43121 10.566815,-14 13.886722,-14 1.007033,0 4.183165,-1.2 7.058069,-2.66667 2.874904,-1.46667 6.715591,-2.66667 8.53486,-2.66667 3.974579,0 4.44562,-0.65712 5.586828,-7.79384 0.786752,-4.92008 0.592497,-5.53949 -1.737257,-5.53949 -1.504035,0 -3.27098,1.42204 -4.141826,3.33334 -1.835997,4.02957 -2.876593,4.12495 -7.2731,0.66666 -1.864564,-1.46666 -5.095478,-2.67585 -7.17981,-2.68708 -2.084332,-0.0112 -4.598731,-0.53313 -5.587552,-1.15977 -2.587742,-1.639926 -1.359004,-5.930676 2.13898,-7.469319 5.067117,-2.228852 2.848493,-8.007825 -4.00779,-10.439317 -3.096408,-1.0981 -2.955566,-4.2276 0.327932,-7.286644 2.659466,-2.477669 2.659466,-2.483073 0,-7.987532 C 41.197569,65.274166 40,62.205558 40,61.48454 40,60.763522 39.306343,58.484538 38.45854,56.420132 l -1.541461,-3.753466 -1.194226,5.333333 c -0.656824,2.933333 -1.726378,9.381103 -2.376786,14.328377 -0.65041,4.947275 -1.50527,9.517196 -1.899691,10.155383 -0.39442,0.638185 -1.019261,5.290416 -1.388535,10.338289 C 28.857404,109.23173 28.107688,112 24.86398,112 20.779479,112 7.7418461,107.06383 6.4499101,105.02827 4.7557411,102.35894 5.1520543,96.218128 7.2846461,92.094149 9.3471661,88.105676 12.645518,79.463023 14.771019,72.47765 15.472065,70.173691 16.935377,67.550224 18.022824,66.647723 19.110271,65.745223 20,63.552796 20,61.775664 c 0,-1.777132 1.5,-6.04889 3.333333,-9.492797 1.833334,-3.443908 3.333334,-7.581014 3.333334,-9.193569 0,-1.612556 0.522502,-3.254844 1.161117,-3.649531 0.638615,-0.394685 1.513964,-2.481838 1.94522,-4.638118 0.822417,-4.112087 4.282964,-6.130619 8.03916,-4.689231 C 39.015473,30.574172 40,31.718876 40,32.656205 c 0,2.746697 4.049849,15.548044 6.798549,21.489836 1.394131,3.013655 2.534784,6.728246 2.534784,8.254643 0,1.526399 0.66122,3.183926 1.469379,3.683395 0.808157,0.499469 2.337187,2.985085 3.397841,5.523589 l 1.928464,4.615463 7.602159,-0.768995 c 8.159431,-0.825365 10.935491,-2.968397 10.935491,-8.441857 0,-3.758521 3.535605,-11.01228 5.367573,-11.01228 3.10764,0 0.913509,-3.819312 -3.03424,-5.281686 -8.535856,-3.161959 -8.165139,-2.774646 -12.317716,-12.869147 -2.169439,-5.273688 -2.151245,-5.689549 0.474051,-10.835553 1.50154,-2.943263 3.604454,-5.686919 4.673141,-6.097012 1.068688,-0.410095 2.744245,-2.411697 3.723463,-4.448007 3.112874,-6.4733126 9.692242,-9.8019274 19.37457,-9.8019274 7.350991,0 8.954031,0.454137 11.571171,3.2780768 1.67091,1.8029426 3.77818,5.5529416 4.68282,8.3333336 1.52559,4.688907 1.3544,5.587728 -2.36234,12.402837 -2.20393,4.041169 -5.83984,9.103424 -8.079815,11.249455 -4.78416,4.583516 -5.114765,7.379921 -1.282513,10.848062 1.534591,1.388786 3.399148,3.662965 4.143468,5.053732 2.10096,3.925683 4.75629,31.122604 4.0396,41.375158 -0.60357,8.634369 -0.48794,9.136279 1.85824,8.065699 1.37602,-0.62789 5.47413,-1.17119 9.10691,-1.20732 5.75922,-0.0573 6.81128,0.36116 8.21547,3.26763 3.22052,6.66602 4.83231,17.96777 4.97314,34.87128 0.15284,18.34468 -0.47442,20.23507 -6.46033,19.46969 -2.20526,-0.28197 -2.68214,-1.37912 -2.75611,-6.34097 -0.33554,-22.50807 -1.09845,-34.35184 -2.39622,-37.20013 -1.49159,-3.27368 -1.50131,-3.26807 -2.23009,1.2894 -0.40259,2.51757 -0.25195,9.6774 0.33476,15.91073 0.5867,6.23333 1.32496,20.33333 1.64057,31.33333 0.31562,11 0.94739,23.09304 1.40393,26.87342 0.7182,5.94702 0.44136,7.23556 -2.05411,9.56044 -3.41431,3.1809 -8.22197,3.84548 -36.006769,4.97724 -16.554091,0.67429 -21.017651,0.4829 -22.15494,-0.95 -1.559676,-1.96508 -3.465795,-31.34071 -3.166163,-48.79443 0.149035,-8.68125 -0.208631,-11 -1.696741,-11 -1.318499,0 -2.383448,3.08624 -3.541007,10.26191 -0.910483,5.64405 -2.767564,13.74321 -4.126848,17.99813 -1.359283,4.25493 -2.809875,11.48708 -3.223536,16.07143 -1.055339,11.69568 -2.117713,16.90072 -3.641764,17.84264 -0.722007,0.44622 -7.79894,1.05178 -15.726517,1.34569 -11.8989,0.44115 -14.7840759,0.16409 -16.5361094,-1.58795 z m 26.6989454,-7.85397 c 0.405672,-1.05716 0.536841,-2.8174 0.291488,-3.91164 -0.33868,-1.51047 -1.494618,-1.04763 -4.800468,1.92211 l -4.354368,3.91165 h 4.062881 c 2.308295,0 4.381413,-0.83008 4.800467,-1.92212 z m 48.249774,-8.29637 c 0.222412,-3.0535 -0.112666,-9.41092 -0.744608,-14.12762 -1.421636,-10.61073 -0.129,-13.98662 5.779987,-15.09516 2.412965,-0.45268 4.971977,-0.46164 5.686696,-0.0199 0.714717,0.44172 4.368968,0.0945 8.12056,-0.77138 7.45985,-1.72193 9.2344,-4.44261 7.4739,-11.45874 C 108.21829,151.63892 107.40047,147.3 106.90353,144 L 106,138 l -6.666667,0.0831 c -3.666666,0.0457 -12.666666,0.50514 -20,1.02106 -16.096653,1.13241 -16.971026,1.86814 -16.040989,13.49733 0.354759,4.43589 0.999057,16.45192 1.431776,26.70228 0.435671,10.32029 1.438041,19.42176 2.246223,20.39556 0.949574,1.14417 3.829952,1.62035 8.24456,1.36299 L 82,200.66666 Z m 28.331705,4.01573 c 1.87554,-1.87553 0.11338,-21.42396 -2.1338,-23.67113 -2.10127,-2.10128 -11.938718,-2.57507 -15.367341,-0.74012 -2.236729,1.19706 -2.568282,2.8889 -2.568282,13.10537 0,6.45197 0.45,12.18775 1,12.74617 1.42882,1.4507 17.383483,0.24566 19.069423,-1.44029 z m -73.812102,-16.1052 c -0.338059,-1.29729 -0.636884,-0.55871 -0.664056,1.64129 -0.02717,2.2 0.24942,3.26142 0.614651,2.35871 0.36523,-0.90271 0.387462,-2.70271 0.0494,-4 z M 40,176.17981 c 0,-2.10111 1.193739,-5.33779 2.652752,-7.19261 2.150705,-2.73419 2.820075,-6.30204 3.536861,-18.85214 0.536179,-9.38784 1.513716,-16.00224 2.483966,-16.80747 0.879921,-0.73026 8.738333,-1.63412 17.463138,-2.00856 19.057711,-0.8179 22.887632,-1.73105 26.271863,-6.26386 2.311139,-3.09552 2.601669,-5.87992 2.705401,-25.92822 0.128672,-24.86847 -1.80087,-36.460284 -6.069084,-36.460284 -4.704288,0 -7.455486,8.921958 -8.26785,26.812106 -1.162946,25.610738 -2.818459,31.768368 -8.558802,31.834138 -5.034837,0.0577 -22.001769,6.16758 -24.745,8.91081 -3.925984,3.92598 -7.812188,17.19857 -8.23796,28.13518 -0.178981,4.59742 -0.736442,11.34742 -1.238804,15 C 37.381012,177.83392 37.558793,180 38.541549,180 39.343697,180 40,178.28092 40,176.17981 Z M 21.333333,96.933332 c 0,-2.42 0.522535,-4.97 1.16119,-5.666667 1.86829,-2.037998 2.953616,-8.339009 1.519725,-8.822986 -0.776016,-0.261927 -0.501977,-2.008163 0.668959,-4.262756 C 27.164399,73.403484 27.390004,63.538619 25,64.328827 c -0.916667,0.303077 -2.060239,3.203077 -2.541272,6.444444 -1.370025,9.231712 -3.187188,15.120756 -6.465772,20.954208 -3.510189,6.245538 -2.822725,9.605851 1.965197,9.605851 2.929496,0 3.37518,-0.58101 3.37518,-4.399998 z m 49.079506,-8.6 c -0.247147,-1.283333 -1.191142,-2.273333 -2.097766,-2.2 -0.906624,0.07333 -3.148406,0.223333 -4.98174,0.333333 C 61.348148,86.585776 60,87.475555 60,88.666665 c 0,1.450446 1.492344,2 5.431099,2 4.45477,0 5.35032,-0.419454 4.98174,-2.333333 z M 90.187445,37.666666 c 10.591645,-11.224349 11.406875,-23 1.592283,-23 -8.171963,0 -19.151155,15.132984 -15.998792,22.051665 1.333995,2.9278 5.259193,5.597831 8.620375,5.86382 0.587386,0.04648 3.191148,-2.165485 5.786134,-4.915485 z"
       id="path239" />
  </g>
</svg>
