<?xml version="1.0" encoding="UTF-8" standalone="no"?>
<!-- Created with Inkscape (http://www.inkscape.org/) -->

<svg
   version="1.1"
   id="svg201"
   width="224"
   height="86.666664"
   viewBox="0 0 224 86.666664"
   xmlns="http://www.w3.org/2000/svg"
   xmlns:svg="http://www.w3.org/2000/svg">
  <defs
     id="defs205" />
  <g
     id="g207">
    <path
       style="fill:#000000;stroke-width:1.33333"
       d="M 201.84821,80.070355 C 201.44288,79.664991 176.0992,79.278279 145.52889,79.210994 87.824631,79.08398 83.291564,78.667054 84.270583,73.576702 c 0.389985,-2.027699 3.949124,-2.274784 37.021447,-2.570123 27.199,-0.242891 39.51386,0.171265 47.9823,1.613668 9.46368,1.611919 13.42387,1.663656 23.39234,0.305605 l 12,-1.634814 -0.43347,-6.62956 c -0.23841,-3.646259 -0.92567,-7.236742 -1.52723,-7.978854 -2.53262,-3.124336 -8.0393,-14.021164 -8.0393,-15.90848 0,-4.696937 -5.32239,-5.774118 -34,-6.881154 -15.4,-0.594483 -37,-1.127592 -48,-1.184688 -20.173506,-0.104712 -23.333337,-0.656339 -23.333337,-4.073414 0,-2.703493 4.209299,-4.56035 10.871307,-4.795683 15.21498,-0.537466 86.4794,1.685257 90.43868,2.820764 4.68183,1.342733 12.02335,7.433767 12.02335,9.975414 0,0.808395 2.01633,5.34614 4.48073,10.083878 2.4644,4.737739 5.58844,12.92975 6.94233,18.20447 2.35546,9.176812 2.35987,9.702817 0.10254,12.197201 -2.24255,2.477987 -10.77652,4.517059 -12.344,2.949423 z M 77.193828,63.416049 c -0.4061,-0.4061 -4.746043,-0.975244 -9.644317,-1.264766 C 57.162749,61.537357 53.488447,59.522972 47.652016,51.242761 43.189256,44.911395 41.465623,44.385824 32.934088,46.754972 26.92896,48.422555 14.654339,46.163797 10.223313,42.575771 7.8303705,40.638083 7.6486073,39.831776 8.9572713,36.959572 9.7976945,35.115044 12.954695,32.218015 15.972828,30.521728 20.731045,27.84746 21.407601,26.904571 21.063504,23.427049 20.648029,19.228174 17.441611,16.819249 10.333333,15.365664 7.6021971,14.807169 6.6666667,13.826466 6.6666667,11.52195 c 0,-3.5348994 4.5717383,-6.1886168 10.6615493,-6.1886168 4.321148,0 10.084584,6.2753808 11.859837,12.9133018 1.382667,5.169982 3.711143,4.699302 7.19605,-1.454613 C 40.372357,9.7492586 44.882527,6.7045523 51.712941,6.4438959 63.187084,6.0060294 62.602808,12.2973 50.679939,17.566882 c -10.21574,4.515077 -11.019586,6.582632 -5.000052,12.860513 2.587225,2.698265 5.941352,7.380463 7.453613,10.404882 3.625004,7.24976 9.982319,12.501055 15.134008,12.501055 2.50824,0 7.066644,-2.005819 11.912757,-5.241929 8.3846,-5.59902 18.448346,-8.475938 29.819735,-8.524548 8.50409,-0.03635 15.19596,1.858586 26.77875,7.582953 11.12486,5.49805 29.65145,8.341616 46.0892,7.074028 9.49873,-0.73249 10.81636,-0.539538 13.30413,1.948244 1.70204,1.702033 2.28565,3.236858 1.5214,4.001099 -0.70833,0.708335 -25.48673,1.463794 -57.8,1.76224 -31.10808,0.287318 -57.775404,0.904128 -59.260719,1.370692 -1.485313,0.466566 -3.032834,0.516036 -3.438933,0.109934 z M 131.13163,53.264957 c -0.77094,-0.77094 -4.64094,-2.277261 -8.6,-3.347383 -12.2674,-3.315835 -30.672938,-1.613787 -32.443493,3.000203 -0.536664,1.398523 3.647766,1.748888 20.887043,1.748888 15.07317,0 21.1365,-0.421653 20.15645,-1.401708 z M 34.333333,38.684872 c 5.166434,-0.03136 3.431186,-3.799316 -2.4831,-5.391868 -4.987649,-1.343034 -5.779952,-1.197568 -8.768316,1.609855 l -3.285216,3.0863 3.10165,0.901962 c 1.705906,0.496079 4.301649,0.656711 5.768316,0.356959 1.466666,-0.299751 4.016666,-0.553195 5.666666,-0.563208 z"
       id="path378" />
  </g>
</svg>
