<?xml version="1.0" encoding="UTF-8" standalone="no"?>
<!-- Created with Inkscape (http://www.inkscape.org/) -->

<svg
   version="1.1"
   id="svg91"
   width="210.66667"
   height="190.66667"
   viewBox="0 0 210.66667 190.66667"
   xmlns="http://www.w3.org/2000/svg"
   xmlns:svg="http://www.w3.org/2000/svg">
  <defs
     id="defs95" />
  <g
     id="g97">
    <path
       style="fill:#000000;stroke-width:1.33333"
       d="m 118.04324,185.5988 c -0.23589,-0.2359 -24.042129,-0.464 -52.902738,-0.50689 -58.5855316,-0.0871 -57.3304652,0.10587 -59.8359042,-9.19863 -1.2026988,-4.46648 -1.0920992,-6.019 0.614314,-8.62332 4.5187972,-6.89654 1.2572444,-6.65125 96.4144182,-7.25105 1.83078,-0.012 3.00001,-0.83577 3.00001,-2.11481 0,-3.23158 -6.653977,-13.83431 -10.098346,-16.09114 -1.693351,-1.10953 -3.308007,-3.02134 -3.588127,-4.24848 -0.664059,-2.90906 2.321221,-8.92396 5.552335,-11.18712 2.842708,-1.99112 4.194018,-6.54016 2.134133,-7.18434 -1.328695,-0.41551 -8.471291,8.70525 -10.290368,13.14032 -1.274455,3.10722 -5.831366,2.95552 -10.012471,-0.33334 -1.864565,-1.46666 -5.088092,-2.66666 -7.163395,-2.66666 -5.550245,0 -7.028495,-3.83216 -6.135161,-15.90455 0.410874,-5.5525 1.639257,-12.79545 2.729738,-16.095455 1.090482,-3.3 2.31591,-7.537516 2.723174,-9.416701 0.407264,-1.879187 4.357281,-7.724285 8.777815,-12.989106 4.420534,-5.264823 8.037334,-9.877164 8.037334,-10.249647 0,-0.823592 10.675398,-11.393852 24.279749,-24.04063 9.42143,-8.758272 10.17776,-9.877346 11.7148,-17.333333 2.38328,-11.560926 4.49501,-14.9442383 10.34092,-16.5677332 7.36327,-2.0448839 8.80343,-1.7809023 12.74841,2.3367739 4.96911,5.1866313 4.34782,13.7174443 -1.66976,22.9270423 -4.3622,6.676132 -5.74528,13.645382 -5.66617,28.551647 0.0432,8.129928 -0.47695,18.981687 -1.15575,24.11502 -1.22833,9.289179 -8.01007,28.980482 -12.1689,35.333332 -3.5912,5.48578 -13.01465,37.8531 -11.47022,39.39752 0.4281,0.4281 4.88879,0.27096 9.91264,-0.34921 5.02386,-0.62016 22.93428,-0.80447 39.80095,-0.40957 25.13668,0.58852 31.40127,1.11861 34.74041,2.93964 7.67475,4.18545 8.39396,12.46034 1.52852,17.58614 -4.40938,3.29208 -15.28998,4.5863 -40.9356,4.86915 -9.9,0.1092 -23.29376,0.60252 -29.76392,1.09628 -6.47016,0.49377 -11.95694,0.70475 -12.19284,0.46885 z m -42.043239,-8.80517 c 13.566667,-0.40921 42.822519,-0.74597 65.012999,-0.74836 38.5643,-0.004 40.59287,-0.13013 45.92778,-2.85177 5.25181,-2.67928 5.43182,-2.95682 3.04821,-4.69976 -2.10825,-1.5416 -12.38471,-1.72862 -61.26109,-1.11487 -108.489897,1.36231 -109.166428,1.38188 -113.061233,3.27085 -4.438879,2.15284 -4.761621,5.0497 -0.666667,5.98384 4.440474,1.01296 19.205139,1.67067 28.333334,1.26212 4.4,-0.19692 19.1,-0.69285 32.666667,-1.10205 z m 35.974279,-50.52425 c 0.0159,-2.30844 1.31361,-4.84989 3.40407,-6.66667 2.1201,-1.84252 3.67558,-4.92242 4.17639,-8.26937 0.43893,-2.93334 1.76868,-6.53334 2.95499,-8 4.18997,-5.180148 5.591,-8.869904 6.98054,-18.383967 2.36812,-16.214313 2.82077,-26.630089 1.47718,-33.991277 -1.11048,-6.084066 -0.94631,-7.472874 1.20695,-10.210307 1.37075,-1.74262 2.49227,-3.823762 2.49227,-4.62476 0,-4.239908 -6.58692,0.72016 -22.85511,17.210305 -7.59636,7.7 -15.534598,14.890478 -17.640536,15.978839 -2.105937,1.088362 -6.153025,5.401152 -8.993528,9.583979 -2.840504,4.182825 -5.767464,7.977759 -6.504356,8.433183 -0.736893,0.455425 -1.339805,4.259132 -1.339805,8.452681 0,4.744494 -0.784418,8.744544 -2.076595,10.589394 -1.304496,1.86243 -1.92418,5.07115 -1.666667,8.63 0.384118,5.30856 0.660631,5.66526 4.391668,5.66526 2.931284,0 4.109612,-0.70352 4.46644,-2.66667 0.673307,-3.70432 5.3015,-8.45592 11.16537,-11.46309 5.979669,-3.06655 7.463869,-3.12534 12.718849,-0.50381 l 4.07544,2.03309 -1.89701,6.96691 c -2.89476,10.63116 -3.50508,19.62376 -1.63781,24.13176 l 1.66027,4.00824 1.70764,-6.58655 c 0.9392,-3.6226 1.71921,-8.26533 1.73335,-10.31717 z M 141.65267,22.128038 c 0.54229,-0.803754 0.69229,-2.260443 0.33333,-3.237087 -0.35897,-0.976645 -0.65266,-2.626645 -0.65266,-3.666667 0,-2.753115 -2.70907,-2.315957 -6.2474,1.008135 -2.99883,2.817253 -3.97899,6.430087 -2.22133,8.187748 1.17969,1.179685 7.57019,-0.487108 8.78806,-2.292129 z"
       id="path497" />
  </g>
</svg>
