<?xml version="1.0" encoding="UTF-8" standalone="no"?>
<!-- Created with Inkscape (http://www.inkscape.org/) -->

<svg
   version="1.1"
   id="svg239"
   width="224"
   height="218.66667"
   viewBox="0 0 224 218.66667"
   xmlns="http://www.w3.org/2000/svg"
   xmlns:svg="http://www.w3.org/2000/svg">
  <defs
     id="defs243" />
  <g
     id="g245">
    <path
       style="fill:#000000;stroke-width:1.33333"
       d="m 83,211.82451 c -3.013113,-3.05741 -1.88552,-9.87945 2.756811,-16.67892 5.12202,-7.50205 16.483279,-14.35915 25.938369,-15.65511 5.69964,-0.78122 17.37597,1.34352 25.97894,4.72738 4.74165,1.86508 12.92948,13.02704 13.88779,18.93237 0.63916,3.93869 0.22952,4.92496 -2.89614,6.97297 -3.16086,2.07108 -7.61729,2.45175 -33.81985,2.88895 -23.157289,0.38637 -30.567045,0.11 -31.84592,-1.18764 z m 55.64736,-6.65785 c 5.88157,-0.63278 6.56883,-3.5167 2.10284,-8.82422 -7.15705,-8.50568 -26.69084,-11.6575 -37.41687,-6.03732 -7.225574,3.78603 -14.58341,11.58468 -13.527061,14.3375 0.725599,1.89086 3.454243,2.08336 22.509711,1.58786 11.92621,-0.31012 23.77533,-0.78884 26.33138,-1.06382 z M 80,170.36532 C 63.401864,168.70407 59.702305,168.1522 50.666667,165.98972 45.9,164.84892 39.9,163.41536 37.333333,162.80402 c -2.566666,-0.61135 -8.988166,-3.21492 -14.27,-5.78571 -5.281833,-2.57079 -10.817381,-4.99164 -12.301217,-5.37968 -1.483836,-0.38803 -3.3974463,-2.24088 -4.2524672,-4.11745 -2.2484415,-4.93479 1.20275,-9.65166 8.4867862,-11.59919 3.118628,-0.83383 6.270232,-1.97776 7.003565,-2.54207 6.377384,-4.9075 52.227841,-14.89891 76.666667,-16.70666 15.663253,-1.15862 45.555003,1.32919 62.867653,5.23231 13.2152,2.97935 34.55192,10.42609 48.10672,16.78974 7.69659,3.61336 5.54097,11.60744 -4.26781,15.82707 -3.45426,1.48598 -8.62635,3.27798 -11.49352,3.98222 -2.86718,0.70424 -8.51304,2.17563 -12.54638,3.26976 -11.1294,3.0191 -26.1796,6.06994 -37.58816,7.61951 C 130.9704,171.12902 93.357381,171.70223 80,170.36532 Z m 54,-11.55388 c 8.06667,-0.84 18.56667,-2.45368 23.33333,-3.58596 4.76667,-1.13226 11.96667,-2.57549 16,-3.20714 C 189.20364,149.53288 196,147.16591 196,144.12422 c 0,-1.96019 -7.76341,-5.16147 -14.63499,-6.03479 -4.0159,-0.51039 -13.0159,-2.38383 -20,-4.1632 -6.98409,-1.77938 -15.58341,-3.24071 -19.10961,-3.2474 -3.52619,-0.007 -10.51281,-0.64854 -15.52581,-1.42633 -10.78579,-1.67347 -50.639333,1.4379 -62.72959,4.89732 -4.033333,1.15406 -13.033333,3.17376 -20,4.48821 -6.966667,1.31445 -13.716667,2.82281 -15,3.35193 -5.537519,2.28307 -0.965551,6.2901 9.214569,8.07594 2.81532,0.49388 7.818764,1.6855 11.118764,2.64805 5.874316,1.71343 23.411124,4.82469 39.333334,6.97827 10.20521,1.38032 26.696783,1.0599 45.333333,-0.88078 z M 76.704867,107.52615 c -1.616087,-1.18172 -2.156292,-2.62856 -1.56081,-4.18036 0.773392,-2.01543 1.967918,-2.24892 7.924176,-1.54887 6.557432,0.77069 7.327935,0.54399 11.848796,-3.486311 6.987781,-6.229528 9.715241,-12.231894 7.732851,-17.017804 C 100.34135,75.719529 97.603401,74.010764 88,72.149761 72.950437,69.233368 59.281897,58.987522 49.985565,43.654395 44.436712,34.502261 38.945429,28.00408 36.750545,27.992564 c -0.779466,-0.0041 -3.667212,-0.632292 -6.417212,-1.396005 -4.281278,-1.188971 -5,-1.934032 -5,-5.183245 C 25.333333,17.471964 27.276152,16 32.478265,16 34.088024,16 38.599197,13.6 42.503096,10.666667 55.170368,1.1486618 65.583231,3.138306 80,17.831411 c 4.617951,4.706467 6.980021,6.121177 10.254644,6.141797 2.340055,0.01473 4.604039,0.592126 5.031077,1.283088 0.42704,0.690964 3.596678,1.679219 7.043639,2.196123 6.79327,1.018715 17.56008,6.112787 25.14052,11.894668 4.35973,3.325331 8.60923,5.266856 23.86345,10.902847 9.17196,3.388771 27.08215,-0.833887 35.43832,-8.355244 2.98034,-2.68258 7.46088,-2.365473 8.23183,0.5826 1.06511,4.072973 -1.35251,6.654775 -10.74811,11.478049 l -8.92204,4.580174 5.42915,0.06557 c 2.98603,0.03607 8.08603,-0.784761 11.33333,-1.824062 3.24731,-1.039303 9.34546,-2.19505 13.55144,-2.568326 7.0163,-0.622689 7.86887,-0.396939 10.33334,2.736119 3.96893,5.045683 3.39969,9.400623 -1.87959,14.379624 -3.17031,2.98998 -6.3284,4.535311 -10.33333,5.056351 -3.17222,0.412701 -10.26578,1.734741 -15.76347,2.937867 -8.08056,1.768364 -11.91264,1.930372 -20,0.84553 -5.50231,-0.738082 -12.5542,-0.997966 -15.67087,-0.577521 -4.9289,0.664921 -5.66666,1.192731 -5.66666,4.054049 0,1.809282 -0.9662,5.325704 -2.1471,7.814272 -2.89761,6.106271 -1.59652,11.211684 2.85726,11.211684 1.82932,0 4.46916,-0.7139 5.86633,-1.58645 1.99433,-1.245484 2.99696,-1.207463 4.66501,0.17691 3.77242,3.13082 -0.0137,5.15709 -10.98628,5.87958 -5.64037,0.3714 -10.85522,0.77248 -11.58856,0.8913 -0.73333,0.11881 -8.15573,-0.10962 -16.49421,-0.50764 -8.33848,-0.39801 -18.17577,-0.15189 -21.860641,0.54693 -4.532428,0.85956 -7.245603,0.81758 -8.387084,-0.12977 -1.176608,-0.9765 -1.948852,-0.97719 -2.55138,-0.002 -1.215124,1.96611 -6.397434,1.739 -9.335148,-0.40911 z m 53.938503,-7.859482 c 1.07332,-1.65 2.76947,-5.336635 3.76923,-8.192521 1.75879,-5.024123 1.69509,-5.311398 -1.96409,-8.858072 -2.55767,-2.47902 -5.83193,-3.953738 -10.11518,-4.555843 C 116.16759,77.193499 116,77.262057 116,80.651184 c 0,4.534393 -3.20865,10.643323 -6.97642,13.282373 -4.50241,3.153611 -1.65714,6.733113 5.35202,6.733113 2.9579,0 5.83344,0.45 6.39009,1 2.15216,2.12646 7.95814,0.95088 9.87768,-2.000002 z m 63.34195,-30.195131 c 7.95453,-1.624495 10.76449,-2.759596 11.09628,-4.482416 0.4042,-2.098832 -0.67748,-2.235199 -11.98532,-1.510979 -6.83628,0.437835 -15.49251,1.554662 -19.23604,2.481838 -3.74355,0.927176 -9.86017,1.392348 -13.59251,1.033717 -8.47632,-0.814465 -19.74008,0.733959 -17.99964,2.474401 3.90302,3.903004 32.61319,3.904914 51.71723,0.0035 z M 134.66667,69.391852 138,68.382848 134.66667,67.572896 c -1.83334,-0.445474 -6.33334,-1.073444 -10,-1.395491 C 121,65.855358 116.2,65.248196 114,64.828153 103.03386,62.734404 98.666667,62.66585 98.666667,64.58746 c 0,1.255424 1.953323,2.156626 5.666663,2.61442 C 107.45,67.586114 113.6,68.445865 118,69.112436 c 9.95252,1.507744 12.46938,1.549938 16.66667,0.279416 z m 7.12862,-9.738819 c 3.75675,-1.402057 3.67548,-1.480893 -8,-7.760578 C 123.44262,46.324242 118.31177,43.699834 104,36.652306 98.213879,33.803053 91.20664,33.076137 89.488084,35.146871 c -0.851339,1.0258 -3.334432,2.222399 -5.517985,2.65911 -5.687339,1.137468 -4.956395,4.019054 2.518173,9.927361 6.559585,5.185053 8.292311,6.041769 21.511728,10.636086 8.2901,2.881165 27.5542,3.612849 33.79529,1.283605 z M 78.666667,56.163261 c 0,-0.643541 -0.939562,-1.949842 -2.087916,-2.902891 -7.129308,-5.9168 -7.655375,-18.351339 -0.984647,-23.27391 1.449307,-1.069496 0.563033,-2.579741 -4.303492,-7.333333 -5.932141,-5.794479 -6.188616,-5.900941 -7.997507,-3.319793 -5.270062,7.519976 -9.169452,8.185778 -11.766556,2.009085 -1.299829,-3.091383 -2.036637,-3.632331 -3.268968,-2.4 -0.875002,0.875003 -1.590914,2.096671 -1.590914,2.714819 0,0.618146 3.66522,6.520565 8.144932,13.116488 8.890936,13.090999 23.855068,26.508518 23.855068,21.389535 z"
       id="path267" />
  </g>
</svg>
