<?xml version="1.0" encoding="UTF-8" standalone="no"?>
<!-- Created with Inkscape (http://www.inkscape.org/) -->

<svg
   version="1.1"
   id="svg229"
   width="296"
   height="221.33333"
   viewBox="0 0 296 221.33333"
   xmlns="http://www.w3.org/2000/svg"
   xmlns:svg="http://www.w3.org/2000/svg">
  <defs
     id="defs233" />
  <g
     id="g235">
    <path
       style="fill:#000000;stroke-width:1.33333"
       d="m 124,214.32822 c -2.65971,-0.70953 -24.070159,-1.00517 -49.784619,-0.68745 -43.093238,0.53244 -45.265521,0.44137 -48.406313,-2.02917 -2.478211,-1.94936 -3.188256,-3.61624 -2.882047,-6.76578 L 23.333333,200.66666 42,200.54733 c 31.456496,-0.20107 39.333333,-2.61691 39.333333,-12.06361 0,-2.56083 1.172174,-7.46728 2.60483,-10.90323 3.995349,-9.58207 5.327934,-27.80747 3.127588,-42.77516 -1.594506,-10.84647 -2.997591,-14.83016 -10.453723,-29.68054 -4.736616,-9.433927 -8.621216,-18.496337 -8.632445,-20.138691 -0.0474,-6.932608 -2.511274,-7.435387 -13.526706,-2.76026 -4.720833,2.003597 -5.11254,1.94656 -11.976437,-1.743915 -10.02414,-5.389626 -10.794769,-8.409638 -5.110585,-20.027805 2.454288,-5.016432 6.210694,-11.382502 8.34757,-14.146824 5.863764,-7.585521 4.635496,-8.610326 -10.319808,-8.610326 -10.10961,0 -13.454762,0.486842 -15.778284,2.296321 C 11.066241,46.651033 4,47.333651 4,41.501775 4,38.155661 12.607191,26.454984 16.612336,24.356477 18.456913,23.390005 20.317747,21.264422 20.74752,19.632961 21.471931,16.88303 28.244033,11.155736 35.862509,6.849933 38.16196,5.5503314 42.617184,5.1880371 51.514133,5.5771591 63.084784,6.0832194 64.234167,6.3921023 68.010935,10.010477 76.796939,18.428002 75.423388,28.05927 63.421728,42.189773 50.455515,57.45592 44.909044,67.999999 49.844851,67.999999 c 2.06176,0 11.488482,-9.896463 11.488482,-12.060963 0,-2.366014 11.943687,-14.293458 18.464518,-18.439407 5.85041,-3.719694 6.712981,-3.888971 15.209557,-2.984843 7.818092,0.831931 9.666622,1.579055 14.000002,5.658419 2.74592,2.584962 7.39259,6.567129 10.32592,8.849258 2.93334,2.28213 9.53334,8.111353 14.66667,12.953832 5.13333,4.842479 13.49457,11.928827 18.58055,15.747438 19.06882,14.317134 48.92393,46.720717 56.00926,60.790317 5.35552,10.63465 7.82171,22.2598 7.72086,36.39475 -0.0872,12.21722 -0.9212,15.34876 -4.38028,16.44662 -3.84982,1.22188 -5.5817,5.48323 -4.59706,11.31124 1.73215,10.2525 -1.60246,12.05014 -23.08336,12.4439 -16.80305,0.308 -16.69362,0.4501 -16.81857,-21.84244 -0.0979,-17.46964 -0.1044,-17.50494 -3.83908,-20.71712 -3.0414,-2.61592 -7.59849,-4.34759 -7.59049,-2.88434 10e-4,0.18334 0.90268,5.43334 2.00373,11.66667 1.85392,10.49544 1.83495,11.45655 -0.25665,13 -3.56927,2.63385 -5.21934,2.05795 -12.41558,-4.33333 -9.06404,-8.05016 -10.66666,-7.87436 -10.66666,1.17008 0,4.11572 0.71114,7.76026 1.6694,8.55554 0.91817,0.76202 4.65614,1.38548 8.3066,1.38548 5.49206,0 7.15098,0.59735 9.61525,3.46223 3.79485,4.41177 2.74503,7.07697 -3.39501,8.61897 -7.60251,1.90928 -21.72526,2.50647 -26.86291,1.13592 z m 69.06667,-13.26156 c 1.71784,-1.71784 2.12237,-7.48729 0.77176,-11.00693 C 192.8562,187.5001 186.53145,184 182.88839,184 c -2.81104,0 -4.17402,3.3367 -4.20352,10.29074 -0.0141,3.31964 0.81166,4.74096 3.64846,6.27996 4.48892,2.43528 8.60388,2.62542 10.73334,0.49596 z m -71.4,-2.08584 c 2.72877,-2.41004 2.97441,-8.00008 0.771,-17.54577 -1.48404,-6.42919 -3.84113,-8.55767 -5.85977,-5.29143 -0.86393,1.39787 -6.35576,1.0186 -13.43547,-0.92784 -2.40106,-0.66013 -3.11893,0.032 -4.493626,4.33262 -0.899835,2.81505 -3.167972,7.98422 -5.040305,11.48706 -4.738931,8.86578 -3.553474,9.6431 15.058171,9.87388 7.8722,0.0976 11.27795,-0.40761 13,-1.92852 z m 82.09674,-26.25353 c 0.53775,-6.59268 -2.52069,-16.349 -8.37856,-26.72729 -2.4835,-4.4 -6.09528,-10.89754 -8.02614,-14.43896 -1.93087,-3.54142 -5.29326,-7.44142 -7.47196,-8.66666 -2.1787,-1.22525 -4.3088,-3.57473 -4.73356,-5.22108 -0.43758,-1.69605 -6.9224,-7.85335 -14.96274,-14.20702 -7.80474,-6.167509 -15.684,-12.620493 -17.50945,-14.339967 -1.82545,-1.719473 -6.04221,-5.321264 -9.37057,-8.00398 C 129.98207,78.439617 121.67436,70.550056 114.84885,63.589976 103.8765,52.401294 101.76425,50.834125 96.615792,50.062065 83.445533,48.087062 75.497041,53.581177 75.612407,64.579914 c 0.05459,5.204761 9.527781,27.652623 12.425381,29.443439 0.673301,0.416123 2.255761,2.981102 3.516576,5.699949 2.418736,5.215818 7.932736,12.619848 17.538296,23.549898 8.00873,9.11303 13.672,20.3314 19.01628,37.66933 1.24247,4.03083 5.82622,8.27417 13.0247,12.05747 1.74415,0.91666 3.4026,1.66666 3.68544,1.66666 1.30919,0 0.26927,-7.08616 -2.15241,-14.66666 -3.4571,-10.82164 -3.3623,-13.07356 0.6269,-14.89116 3.05215,-1.39066 3.9243,-0.85102 11.89823,7.36192 4.73256,4.87441 9.15864,8.86257 9.83575,8.86257 0.6771,0 2.67289,1.27088 4.4351,2.82417 8.67867,7.6498 23.38471,14.60868 29.87068,14.13476 3.63824,-0.26582 4.0389,-0.76913 4.43008,-5.56497 z m -94.70249,-18.80797 c 0.45585,-7.80158 -3.71566,-19.25266 -7.01354,-19.25266 -1.6664,0 -2.04399,1.92284 -2.02917,10.33334 0.025,14.17621 0.79535,16.57754 5.15606,16.07174 3.19233,-0.37028 3.52627,-0.98481 3.88665,-7.15242 z M 42.305556,21.86111 C 41.8625,21.418056 40.7125,21.370686 39.75,21.755844 c -1.063644,0.425634 -0.747701,0.741577 0.805556,0.805556 1.405555,0.05789 2.193055,-0.257238 1.75,-0.700294 z M 225.79748,73.732751 c -3.11079,-0.406279 -4.61543,-1.545699 -5.79195,-4.386076 -3.64897,-8.809389 3.342,-20.293064 16.35199,-26.860485 l 8.03484,-4.055972 13.64579,1.329623 c 12.2988,1.198374 14.28657,1.779354 20.13716,5.885628 10.35256,7.266016 15.59993,16.731073 12.74698,22.99263 -1.27148,2.790589 -2.54877,3.184803 -12.50256,3.858708 -16.63264,1.126087 -47.84952,1.85928 -52.62225,1.235944 z M 281.0822,60.964199 c -0.22912,-1.585347 -2.19995,-3.792256 -4.39335,-4.919643 -2.1878,-1.124506 -4.65789,-2.901423 -5.4891,-3.948705 -0.8312,-1.047281 -3.84118,-2.018157 -6.68884,-2.157502 -2.84767,-0.139344 -7.69604,-0.67989 -10.77418,-1.201211 -4.59004,-0.777383 -6.86817,-0.315069 -12.66666,2.570508 -6.34052,3.155313 -11.62648,7.792609 -11.70708,10.270457 -0.0448,1.377127 5.19922,1.731479 29.71921,2.008205 22.26255,0.251251 22.41271,0.233354 22,-2.622109 z"
       id="path406" />
  </g>
</svg>
