<?xml version="1.0" encoding="UTF-8" standalone="no"?>
<!-- Created with Inkscape (http://www.inkscape.org/) -->

<svg
   version="1.1"
   id="svg219"
   width="217.33333"
   height="213.33333"
   viewBox="0 0 217.33333 213.33333"
   xmlns="http://www.w3.org/2000/svg"
   xmlns:svg="http://www.w3.org/2000/svg">
  <defs
     id="defs223" />
  <g
     id="g225">
    <path
       style="fill:#000000;stroke-width:1.33333"
       d="m 104.78363,202.79592 c -4.988408,-5.51214 1.58046,-14.19235 7.76031,-10.2546 1.39918,0.89153 3.00817,2.87586 3.57554,4.40961 2.22844,6.02404 -6.90969,10.73584 -11.33585,5.84499 z M 73.599999,202.4 c -2.65206,-2.65207 -1.901323,-8.7044 1.363341,-10.99107 l 2.963341,-2.0756 -3.296674,-0.21004 c -1.813171,-0.11553 -4.196675,-0.12989 -5.296675,-0.0319 -10.70161,0.95316 -53.660696,0.16059 -55.887378,-1.03111 -1.513428,-0.80996 -3.6787984,-3.26549 -4.8119356,-5.45673 -2.8685389,-5.54715 -0.3799636,-13.97693 4.9379986,-16.72696 4.115625,-2.12828 20.806396,-2.35871 130.636023,-1.80353 l 56.87469,0.28749 3.44317,3.19269 c 5.02386,4.65839 5.68374,9.07012 2.37523,15.88003 -3.89108,8.00903 -9.11645,9.35301 -28.48093,7.32544 -18.97776,-1.98708 -91.272076,-3.15792 -96.420201,-1.56157 -2.2,0.68218 -2.937138,1.2919 -1.638082,1.35494 3.536727,0.1716 5.76492,5.97916 3.880687,10.1146 -1.669684,3.66456 -7.725145,4.6508 -10.642605,1.73334 z M 195.66666,179.58797 c 0.91667,-0.59328 1.66667,-2.14957 1.66667,-3.45843 0,-2.21136 -2.52368,-2.41789 -35.66667,-2.91881 -78.913252,-1.19269 -135.547575,0.22573 -138.798086,3.47625 -0.355494,0.3555 -0.24707,1.04563 0.240942,1.53364 2.188772,2.18878 169.242684,3.51252 172.557144,1.36735 z m -63.33333,22.19565 c -0.91667,-0.36988 -1.66667,-2.04972 -1.66667,-3.73297 0,-4.05373 6.44542,-6.97647 10.5457,-4.78207 7.14429,3.82352 -1.04431,11.67642 -8.87903,8.51504 z M 90.666665,72.578118 C 61.21098,66.200228 40.546291,54.143651 23.402032,33.333333 20.079232,29.3 15.704448,24.000326 13.680289,21.556281 8.9717472,15.87101 7.6608527,11.274653 10.157087,9.2029629 12.743585,7.0563602 157.79409,6.2127847 187.33333,8.1725527 211.27178,9.7607388 213.45348,10.65505 209.94425,17.441129 203.55521,29.796186 187.60366,46.774586 175.8615,53.717907 156.37749,65.239108 145.77441,69.305719 126.26769,72.738692 112.8767,75.09536 102.06715,75.046605 90.666665,72.578118 Z M 133.78114,61.403335 c 3.5463,-0.806267 8.77239,-2.651853 11.61355,-4.101304 2.84116,-1.449451 5.93964,-2.636149 6.88552,-2.637108 0.94588,-9.57e-4 5.31979,-2.510808 9.71979,-5.577445 4.4,-3.066637 9.89297,-6.870336 12.20661,-8.452661 4.82763,-3.30168 20.39953,-19.394531 20.43583,-21.119483 0.0133,-0.633233 -1.92578,-0.78489 -4.30911,-0.337016 -4.86375,0.913991 -38.26937,1.042674 -110.71959,0.426504 -36.104103,-0.307056 -49.392639,-0.0079 -50.339839,1.133455 -0.900947,1.085575 2.538528,5.413567 11.468084,14.430624 14.954967,15.101513 24.84207,20.799446 42.067472,24.243465 6.154798,1.23058 12.090542,2.753842 13.190542,3.385028 2.597961,1.490721 29.450711,0.499902 37.781141,-1.394059 z"
       id="path545" />
  </g>
</svg>
