<?xml version="1.0" encoding="UTF-8" standalone="no"?>
<!-- Created with Inkscape (http://www.inkscape.org/) -->

<svg
   version="1.1"
   id="svg209"
   width="148"
   height="216"
   viewBox="0 0 148 216"
   xmlns="http://www.w3.org/2000/svg"
   xmlns:svg="http://www.w3.org/2000/svg">
  <defs
     id="defs213" />
  <g
     id="g215">
    <path
       style="fill:#000000;stroke-width:1.33333"
       d="m 36.775581,209.26689 c -2.873429,-0.50604 -6.0169,-2.00385 -6.985489,-3.32848 -1.495845,-2.04568 -1.366059,-3.02564 0.861767,-6.50674 6.990682,-10.92334 7.246573,-11.97026 5.470701,-22.38196 -0.9115,-5.34402 -2.56188,-13.31638 -3.667512,-17.71638 -1.105632,-4.4 -2.335703,-9.8 -2.733489,-12 -1.398006,-7.7318 -2.886186,-7.81613 -9.707876,-0.55012 -5.138663,5.47336 -7.050015,6.67615 -10.0454335,6.32148 -2.0346064,-0.24092 -4.3224148,-1.43362 -5.0840187,-2.65045 -1.1245701,-1.79677 0.380676,-4.17659 8.0117332,-12.66667 5.168057,-5.74983 10.430957,-12.47168 11.695333,-14.93745 l 2.298864,-4.48322 -5.393325,-5.33994 c -6.604939,-6.53957 -8.748939,-12.47543 -7.504185,-20.77604 1.678712,-11.194459 5.555442,-15.662448 15.701374,-18.096069 4.152764,-0.99609 7.941174,0.587757 13.254255,5.541302 5.134184,4.786752 6.024504,12.621158 2.959404,26.041377 -2.411307,10.55765 -2.408988,10.73977 0.154816,12.15701 1.431537,0.79134 8.197984,6.83879 15.036548,13.43879 11.805223,11.3934 12.529812,11.86918 14.33402,9.41183 1.045145,-1.42349 1.900265,-4.06363 1.900265,-5.86696 0,-1.80333 0.961412,-8.02355 2.136472,-13.8227 1.95974,-9.67172 1.95974,-10.73921 0,-12.9047 -1.17506,-1.29843 -2.136472,-3.68348 -2.136472,-5.30011 0,-3.619455 5.753123,-15.234191 10.658182,-21.517357 C 92.072471,76.105808 96,68.901375 96,66.643029 c 0,-1.909136 -5.517132,-0.35104 -7.333333,2.071012 -0.733334,0.977959 -3.716528,5.119216 -6.62932,9.202792 -5.650511,7.921707 -8.98434,9.950271 -12.101331,7.363399 -3.885276,-3.224493 -2.062688,-11.831852 3.897268,-18.405244 2.486031,-2.741909 2.841855,-4.78512 2.902495,-16.666667 0.06059,-11.871888 0.593802,-14.939122 4.324298,-24.874988 C 83.400431,19.1 85.319329,13.877484 85.324299,13.727743 85.329268,13.578 88.119615,11.328001 91.525069,8.7277423 97.120349,4.4554283 98.535228,4 106.21273,4 c 4.67277,0 10.99326,0.75 14.04556,1.6666667 7.19544,2.1609389 16.43055,11.6838493 19.04323,19.6366943 2.36393,7.195655 4.07687,23.548491 3.91373,37.363306 -0.0649,5.5 -0.21494,17.994557 -0.33333,27.765682 l -0.21525,17.765681 -5.14988,2.19931 -5.1499,2.19932 -0.72575,14.73604 c -0.39916,8.10483 -0.21974,17.42058 0.3987,20.70167 0.78746,4.17776 0.53612,8.27615 -0.83866,13.67524 -1.07971,4.24028 -2.49405,13.24028 -3.14298,20 -1.02154,10.64111 -0.89149,12.51404 0.96914,13.95706 1.18195,0.91666 3.17013,1.66666 4.41818,1.66666 3.45956,0 4.03549,3.45263 1.18123,7.08124 -4.37784,5.56552 -11.52447,6.37139 -53.738599,6.0596 -21.388483,-0.15796 -41.239139,-0.70124 -44.11257,-1.20728 z m 78.676009,-10.87933 c 1.75389,-1.14272 5.29216,-75.91221 4.24785,-89.76396 -1.28182,-17.002009 -6.01076,-21.601168 -13.99805,-13.613877 -8.228007,8.228007 -17.434121,35.306817 -20.226679,59.494637 -1.0025,8.68319 -4.02065,13.16889 -7.481299,11.11905 -2.318336,-1.37322 -18.667289,-20.4183 -20.439512,-23.81024 -1.830092,-3.50266 -13.110271,-11.1465 -16.44916,-11.1465 -3.037916,0 -3.275905,6.14957 -0.5418,14 1.021605,2.93333 3.212611,11.87488 4.868899,19.87009 3.097581,14.95261 3.074646,15.70867 -0.940555,31.00675 -0.545817,2.07957 -0.09001,3.00333 1.644747,3.33333 4.6708,0.88848 67.885789,0.44228 69.315559,-0.48928 z M 34.619755,102.75432 c 2.222385,-4.152561 1.61179,-10.522775 -1.286422,-13.420987 -3.150461,-3.150461 -4.020493,-3.253952 -7.285394,-0.866598 -1.94368,1.421254 -2.289896,2.85902 -1.645164,6.832038 1.384088,8.529137 7.323044,12.862917 10.21698,7.455547 z M 132.24385,70.333333 c 0.30789,-32.406684 0.35286,-31.903804 -3.6,-40.259442 -1.82078,-3.848827 -3.31052,-7.616507 -3.31052,-8.37262 0,-3.33418 -10.52779,-8.308776 -17.66666,-8.347863 -4.85576,-0.02659 -4.76012,3.019736 0.20582,6.5558 2.12988,1.516603 4.26991,2.757459 4.75563,2.757459 2.36125,0 10.03855,7.292896 10.03855,9.53591 0,1.404007 -1.52182,5.555907 -3.38183,9.226446 -2.77152,5.469338 -3.16359,7.464064 -2.17256,11.053282 1.42751,5.170027 -0.48302,9.728302 -7.06287,16.851028 -10.819431,11.7121 -13.867451,18.912286 -5.0799,12 7.40734,-5.826618 17.39324,-1.689444 22.32613,9.249754 C 128.63912,93.562389 130.24721,96 130.86917,96 c 0.62195,0 1.24056,-11.55 1.37468,-25.666667 z m -26.91052,-15 c 0,-0.366666 -1.19116,-1.857829 -2.64703,-3.313696 -2.18855,-2.188557 -2.39402,-3.202305 -1.1863,-5.85297 0.8034,-1.763268 2.93553,-3.87791 4.73807,-4.699202 2.32025,-1.057176 3.15342,-2.3656 2.85297,-4.480362 -0.36442,-2.565074 -1.17789,-2.959639 -5.75771,-2.792718 -6.943527,0.253074 -13.082869,1.827696 -14.312913,3.670987 -1.621746,2.43028 -1.141853,13.70766 0.64625,15.186721 2.24397,1.85614 15.666663,3.810634 15.666663,2.28124 z"
       id="path684" />
  </g>
</svg>
