<?xml version="1.0" encoding="UTF-8" standalone="no"?>
<!-- Created with Inkscape (http://www.inkscape.org/) -->

<svg
   version="1.1"
   id="svg199"
   width="228"
   height="249.33333"
   viewBox="0 0 228 249.33333"
   xmlns="http://www.w3.org/2000/svg"
   xmlns:svg="http://www.w3.org/2000/svg">
  <defs
     id="defs203" />
  <g
     id="g205">
    <path
       style="fill:#000000;stroke-width:1.33333"
       d="m 9.8195667,243.70805 c -0.5524634,-0.89391 -1.1741684,-6.74391 -1.381567,-13 -0.2073985,-6.25609 -0.6609033,-14.89917 -1.0077885,-19.20683 -1.11841,-13.88854 0.8608021,-18.05454 7.7553848,-16.32412 2.340667,0.58748 3.411815,2.03568 4.059588,5.48862 1.111757,5.92617 1.089419,39.57754 -0.02821,42.49004 -0.985738,2.56878 -7.900005,2.97514 -9.397411,0.55229 z m 97.3957033,-1.23243 c -0.56786,-0.91881 -1.27847,-12.25398 -1.57914,-25.18926 -0.47929,-20.62031 -0.27342,-23.79192 1.67051,-25.73586 3.24368,-3.24368 8.49127,-2.8334 10.01267,0.78283 1.9507,4.63665 3.61156,44.96001 1.98691,48.23951 -1.60107,3.2319 -10.4125,4.61858 -12.09095,1.90278 z m 99.81042,-3.17433 c -2.03738,-1.42712 -2.33898,-3.71912 -2.21202,-16.81019 0.30965,-31.92854 0.27701,-31.60076 3.3073,-33.22252 2.06322,-1.1042 3.74428,-1.09564 6.46894,0.0329 3.60744,1.49425 3.69492,1.79737 4.36122,15.11165 0.88495,17.68351 0.24163,31.34633 -1.57925,33.54037 -2.11084,2.5434 -7.61555,3.26047 -10.34619,1.34774 z M 86.666667,171.85314 C 67.253112,169.96809 52.459716,167.67665 47.377961,165.76749 44.420083,164.65625 39.3,162.8525 36,161.75916 16.98948,155.46065 9.7816832,152.04457 8.2060571,148.58645 c -1.2437848,-2.72981 -0.9549239,-3.48396 2.1800929,-5.69168 1.987618,-1.39971 5.11385,-2.97604 6.947183,-3.50296 1.833334,-0.52693 9.333334,-3.25135 16.666667,-6.05428 16.446068,-6.28596 20.693873,-7.44725 36.666667,-10.02416 28.667217,-4.62493 62.981483,-4.6943 86.000003,-0.17386 13.89721,2.72918 32.96804,7.63402 36,9.25886 1.46666,0.786 6.86666,3.05952 12,5.05227 6.51422,2.5288 9.93742,4.69556 11.33333,7.1736 1.89964,3.37228 1.81524,3.6997 -1.68225,6.52561 -2.02526,1.63635 -7.12526,4.11884 -11.33334,5.51665 -4.20809,1.3978 -8.55108,2.99543 -9.65108,3.55027 -1.1,0.55484 -4.7,1.57284 -8,2.26224 -3.3,0.68939 -12,2.77305 -19.33333,4.63036 -17.2042,4.35731 -58.1181,6.80376 -79.333333,4.74377 z M 138.66667,161.32265 C 142.7,160.63944 150.5,159.39678 156,158.5612 c 20.80151,-3.1603 40.62737,-7.98858 43.14644,-10.50764 4.75077,-4.75078 -13.74651,-10.86656 -40.47977,-13.3839 -6.96667,-0.65602 -15.89856,-1.82506 -19.84866,-2.59788 -15.66766,-3.0653 -52.545774,-0.54913 -78.81801,5.3777 -3.3,0.74445 -10.755799,2.25838 -16.568441,3.36428 C 32.559857,142.88218 28,144.58021 28,146.56022 c 0,2.83798 8.099945,5.84023 22.31878,8.27251 8.502107,1.45436 16.430561,3.1646 17.618789,3.80052 1.188228,0.63592 9.638368,1.86944 18.77809,2.74117 9.139721,0.87172 16.917671,1.88602 17.284341,2.254 0.88845,0.89164 25.42523,-0.74037 34.66667,-2.30577 z M 66.034779,95.177635 c -2.320563,-2.320563 -1.259476,-5.83289 1.77454,-5.873951 3.650682,-0.0494 8.089326,-4.391012 8.955624,-8.759833 0.723484,-3.648601 0.1514,-4.699559 -4.973714,-9.137047 C 66.370901,66.71371 62.853172,64.800344 46,57.37843 30.681872,50.632527 21.402332,42.130285 18.834544,32.488478 17.929468,29.090001 15.244417,26.636192 7.283024,21.931796 4.046766,20.019486 5.6236957,13.8383 9.6697652,12.576341 11.318061,12.062242 15.181964,9.8454619 18.256217,7.6501624 22.589059,4.5561141 25.194701,3.6857852 29.845523,3.7791375 c 6.171917,0.1238842 8.628793,1.048291 23.48781,8.8373615 4.766667,2.498678 9.429986,4.582151 10.36293,4.629942 0.932945,0.04779 6.501898,2.503117 12.375452,5.456283 5.873553,2.953165 13.510236,6.490896 16.970404,7.861622 3.460168,1.370728 11.391211,4.899486 17.624551,7.841684 C 116.9,41.348229 125.6,44.479595 130,45.364623 c 27.11824,5.454634 36.67932,5.293015 57.52275,-0.972356 7.8164,-2.349549 10.37973,-1.508088 9.23994,3.033183 -0.57464,2.289524 -0.0647,3.521 1.89196,4.568119 3.34767,1.79162 3.44592,5.825458 0.2181,8.95449 -1.35332,1.3119 -3.4361,4.392933 -4.62839,6.846741 -2.04255,4.203656 -2.01593,4.759188 0.46057,9.61355 3.26579,6.401452 3.27807,7.539088 0.0923,8.550213 -1.55605,0.493872 -4.36005,-0.432827 -7.25595,-2.398029 -8.5707,-5.81624 -17.14422,-7.677266 -58.70104,-12.742043 -5.77117,-0.703371 -11.18776,-1.012273 -12.03684,-0.686452 -0.84908,0.325821 -2.27718,3.746971 -3.17357,7.602555 -2.86069,12.30453 -3.72645,11.598738 14.22755,11.598738 12.72678,0 16.00594,0.387223 16.61001,1.961415 0.41397,1.078778 -0.0973,2.811413 -1.13621,3.850298 -2.81926,2.81925 -74.479498,2.849463 -77.296371,0.03259 z m 35.889611,-8.807644 c 3.54026,-5.054429 2.58591,-8.650275 -3.457774,-13.028296 -7.018803,-5.084393 -9.133283,-5.110013 -9.133283,-0.110663 0,2.212272 -1.441385,5.61069 -3.333333,7.859142 -5.620692,6.679813 -4.623545,8.243158 5.257728,8.243158 7.366268,0 8.886972,-0.422472 10.666662,-2.963341 z M 187.2,70.999999 c -0.0733,-0.916667 -0.22333,-3.83086 -0.33333,-6.475985 -0.15488,-3.724364 -0.66012,-4.632755 -2.23958,-4.02666 -1.12176,0.430461 -6.37176,-0.142167 -11.66666,-1.272505 C 165.85591,57.708198 159.31556,57.377571 148,57.963054 c -17.85596,0.923895 -31.02299,2.125065 -30.3769,2.771152 0.75476,0.754761 26.29511,4.329098 38.24941,5.352954 6.58185,0.563719 14.28448,2.218451 18.66666,4.010103 7.97495,3.260552 12.87742,3.610104 12.66083,0.902736 z m -85.43452,-8.869645 c 0.98566,-2.568595 -0.21713,-3.463688 -4.654369,-3.463688 -4.348676,0 -4.750592,0.967548 -1.444444,3.477272 3.045993,2.312238 5.208163,2.307422 6.098813,-0.01359 z m 22.0861,-12.270572 c 0.90943,-0.792892 -5.96617,-2.9683 -15.84192,-5.012305 C 102.7402,43.756845 96.232336,41.357285 93.547744,39.515123 90.863152,37.672962 81.466667,32.78731 72.666667,28.65812 63.866667,24.528929 52.30674,19.091638 46.977941,16.57525 41.649143,14.058862 36.736184,12 36.060256,12 c -0.675928,0 -1.116001,1.614149 -0.977941,3.586997 0.182281,2.604752 -0.638643,4.041576 -2.997878,5.24704 C 28.388508,22.722493 24,21.158617 24,17.953088 24,16.878889 23.4,16 22.666667,16 20.551899,16 21.107275,18.625334 24,22.302838 c 1.466667,1.864566 2.670013,4.059203 2.674103,4.876974 0.0041,0.817769 0.635237,3.747524 1.402552,6.510564 2.00208,7.209341 18.590012,19.977869 18.590012,14.309623 0,-0.733333 -0.837846,-1.333333 -1.861878,-1.333333 -2.865274,0 -10.138122,-9.035021 -10.138122,-12.594537 0,-6.549559 14.508304,-14.076548 19.36439,-10.046355 2.44267,2.027236 0.529584,4.93518 -3.658381,5.560847 -1.521852,0.227357 -3.413687,1.445109 -4.204077,2.706113 -1.160391,1.851308 -0.620771,3.134863 2.802738,6.666667 7.65329,7.895384 34.467548,13.319505 59.695333,12.075466 8.06666,-0.397785 14.89988,-0.926574 15.18491,-1.175085 z"
       id="path859" />
  </g>
</svg>
