<?xml version="1.0" encoding="UTF-8" standalone="no"?>
<!-- Created with Inkscape (http://www.inkscape.org/) -->

<svg
   version="1.1"
   id="svg189"
   width="284"
   height="312"
   viewBox="0 0 284 312"
   xmlns="http://www.w3.org/2000/svg"
   xmlns:svg="http://www.w3.org/2000/svg">
  <defs
     id="defs193" />
  <g
     id="g195">
    <path
       style="fill:#000000;stroke-width:1.33333"
       d="m 15.026935,301.94115 c -1.18872,-0.86942 -1.738922,-3.11104 -1.465218,-5.9696 0.715207,-7.46959 2.961147,-7.92734 39.10495,-7.9701 17.6,-0.0208 33.35,-0.39965 35,-0.84184 2.964536,-0.79445 3,-1.07666 3,-23.87273 0,-12.68783 -0.317923,-23.89728 -0.706496,-24.90988 -0.579571,-1.51033 -5.789531,-1.74171 -29,-1.28789 -15.561427,0.30426 -29.343504,1.1048 -30.626838,1.77896 C 28.275959,239.94885 28,242.36353 28,259.28501 c 0,15.66875 -0.384569,19.57575 -2.095239,21.28642 -2.307849,2.30785 -6.866492,2.7117 -9.78115,0.86652 C 13.503,279.77891 12.181052,243.88041 11.357109,152 10.99213,111.3 10.420624,65.583153 10.087096,50.407007 9.5157193,24.408317 9.3156701,22.649004 6.6247963,19.958129 4.5044116,17.837745 3.9929572,16.187695 4.6388623,13.551123 6.4458116,6.1751908 -0.33519496,6.5560544 128.10075,6.6167327 c 65.57792,0.030982 122.96273,0.4357145 127.52181,0.8994064 5.59251,0.568799 9.02147,1.6521884 10.53999,3.3301349 1.2379,1.367883 3.58429,2.487059 5.21417,2.487059 7.23141,0 7.22804,-0.05641 5.2204,87.333337 -0.43804,19.06666 -1.01747,52.06666 -1.28764,73.33333 -0.86791,68.31663 -2.17924,99.34595 -4.28759,101.45431 -2.233,2.23298 -6.18672,2.41982 -9.83941,0.46496 -2.88655,-1.54483 -2.87024,2.75578 -0.49249,-129.91927 1.60948,-89.806159 2.02204,-107.054945 2.71346,-113.446601 0.50906,-4.70573 0.20262,-7.219362 -1.00168,-8.216286 -1.20202,-0.995058 -37.70261,-1.5641 -118.8051,-1.852161 C 41.609064,22.122709 26.359991,22.322349 25.232888,24.034569 24.448696,25.225865 24.201797,36.240764 24.606048,52 c 0.366817,14.3 0.979375,44.9 1.361237,68 1.284835,77.72348 2.183234,101.93077 3.823586,103.02633 0.848354,0.5666 3.342462,0.7324 5.542462,0.36844 6.441022,-1.06557 59.660243,-1.1582 63.57019,-0.11066 1.963607,0.52609 3.938467,1.91624 4.388587,3.08922 0.45011,1.17299 1.18945,14.94907 1.64297,30.61351 0.93902,32.43349 0.76174,31.99188 12.25189,30.51943 3.3805,-0.43322 39.99967,-0.87422 81.37594,-0.98002 71.27338,-0.18224 75.32266,-0.0651 77,2.22886 0.97373,1.33166 1.77042,3.73306 1.77042,5.33644 0,6.48348 -0.27374,6.51404 -67.20388,7.50256 -114.88437,1.69678 -193.066871,1.83585 -195.102515,0.34701 z M 145.35741,188.02408 c -2.3817,-2.38171 -2.62737,-3.93359 -2.06272,-13.03056 0.35255,-5.67977 0.65547,-14.334 0.67315,-19.23161 0.0337,-9.334 2.19489,-13.64482 6.43144,-12.82851 3.43388,0.66164 4.29009,7.44752 3.38128,26.79791 -0.74659,15.89624 -1.19419,18.57462 -3.29176,19.69721 -1.83723,0.98327 -3.08527,0.64168 -5.13139,-1.40444 z M 192,135.72495 c -8.43333,-0.51795 -30.63333,-1.29251 -49.33333,-1.72124 -18.7,-0.42874 -37.26161,-1.35522 -41.24802,-2.05886 -7.967466,-1.40633 -12.757139,-4.92116 -15.513455,-11.38432 -2.625976,-6.15754 -5.09503,-7.66101 -10.886831,-6.62929 -13.687923,2.43831 -18.604032,2.33433 -24.182195,-0.51143 -5.374514,-2.74188 -6.466521,-4.58207 -4.482418,-7.55354 1.539993,-2.30635 6.492582,-4.53294 10.082609,-4.53294 2.925625,0 4.896973,-2.148259 4.896973,-5.336439 0,-0.61509 -1.95,-1.538279 -4.333333,-2.051535 C 54.616667,93.432101 51.016667,92.16902 49,91.138509 44.243596,88.708 43.959011,83.23568 48.481851,81.174936 c 4.71144,-2.146676 11.249041,1.708675 13.99733,8.254497 3.020712,7.194675 7.149555,7.165511 10.844204,-0.0766 3.545356,-6.949472 7.673995,-9.620024 13.172355,-8.520352 8.858931,1.771787 7.807555,8.356159 -1.829073,11.45479 -7.270886,2.337933 -7.853491,6.355741 -1.467939,10.123309 2.895716,1.70851 5.947324,5.27303 8.025867,9.37483 C 95.241631,119.71265 100.28771,124 105.6008,124 c 5.00905,0 8.36624,-1.79811 15.47972,-8.29094 6.89884,-6.29693 12.29027,-8.71009 22.01291,-9.85279 10.52445,-1.23694 19.55381,1.40019 35.25772,10.29743 7.52645,4.26421 15.95853,8.36545 18.73793,9.11386 2.77941,0.74842 14.24132,1.59711 25.47091,1.88599 15.39078,0.39592 20.70242,0.97509 21.57497,2.35251 1.66445,2.62749 1.46021,5.15702 -0.46829,5.79989 -3.23582,1.07866 -36.5296,1.34866 -51.66667,0.419 z m -21.5,-9.89162 c 6.81055,-1.3621 6.82132,-1.35392 -13.54524,-10.28706 -8.81387,-3.86593 -20.24541,-2.21483 -27.61823,3.98898 -7.0405,5.92419 -3.99454,7.13142 17.99339,7.13142 10.45188,0 20.87841,-0.375 23.17008,-0.83334 z m -97.626769,-18.5575 c 1.098757,-2.86332 0.419088,-3.24841 -7.35908,-4.16962 -6.283688,-0.74421 -6.847484,-0.58528 -6.847484,1.93029 0,3.24669 1.605572,4.05023 8.37518,4.19157 3.386484,0.0707 5.30107,-0.57027 5.831384,-1.95224 z M 177.01203,92.567577 c -0.20531,-0.205308 -15.62651,-0.6506 -34.26932,-0.98954 -30.25841,-0.550121 -34.07841,-0.865688 -35.59556,-2.940514 -2.16135,-2.955816 -0.33871,-6.742828 7.55906,-15.705924 6.60879,-7.50025 18.72044,-14.085796 27.90642,-15.17374 8.74972,-1.036275 22.5285,1.578345 30.7233,5.829957 10.81551,5.611291 25.30146,22.811467 22.72403,26.981836 -0.9208,1.489889 -17.78691,3.258963 -19.04793,1.997925 z m 4.0807,-11.521761 C 180.58151,77.501199 172.8724,72 168.41637,72 c -1.7541,0 -5.66198,-1.261483 -8.68418,-2.803296 -4.87986,-2.489516 -6.32903,-2.645627 -12.94688,-1.394689 -4.09859,0.774733 -9.31163,1.703148 -11.58455,2.063142 -6.10462,0.966882 -13.86743,5.967575 -13.86743,8.933211 0,1.394231 0.15,2.629419 0.33334,2.744863 0.37594,0.23673 36.8442,1.821402 50.7594,2.205672 8.6889,0.239945 9.07381,0.119893 8.66666,-2.703087 z"
       id="path998" />
  </g>
</svg>
