<?xml version="1.0" encoding="UTF-8" standalone="no"?>
<!-- Created with Inkscape (http://www.inkscape.org/) -->

<svg
   version="1.1"
   id="svg99"
   width="216"
   height="197.33333"
   viewBox="0 0 216 197.33333"
   xmlns="http://www.w3.org/2000/svg"
   xmlns:svg="http://www.w3.org/2000/svg">
  <defs
     id="defs103" />
  <g
     id="g105">
    <path
       style="fill:#000000;stroke-width:1.33333"
       d="M 101.66667,193.22274 C 96.191816,191.14812 98.723655,184 104.93333,184 c 2.48952,0 3.06667,0.72208 3.06667,3.83674 0,4.84711 -2.39054,6.88008 -6.33333,5.386 z m -32.777781,-0.7783 c -3.375946,-3.37595 1.254538,-9.7629 6.369175,-8.78516 3.4223,0.65421 4.286281,3.16876 2.599284,7.565 -0.803996,2.09518 -7.220476,2.96814 -8.968459,1.22016 z m 57.945301,-0.90926 c -1.28814,-1.55212 -0.97867,-2.66022 1.57068,-5.62402 4.24097,-4.93042 7.93765,-3.7163 7.34696,2.413 -0.34164,3.54506 -1.05158,4.41609 -3.86596,4.74325 -1.8961,0.2204 -4.16936,-0.46909 -5.05168,-1.53223 z M 22.212863,180 C 9.797662,179.36917 8.9158539,179.12778 5.8081469,175.50933 c -2.5943888,-3.02077 -3.1017266,-4.70119 -2.4153149,-8 1.3959375,-6.70873 4.2105288,-9.98507 9.603603,-11.17907 3.936366,-0.87149 63.99291,-1.07673 83.670232,-0.28593 5.062523,0.20345 33.274223,0.44616 69.333333,0.59648 30.76504,0.12827 33.94572,0.79023 36.79003,7.657 2.06244,4.97919 0.4908,9.8096 -4.36876,13.42733 -3.34019,2.48663 -5.56207,2.6559 -33.33334,2.5394 -16.36502,-0.0687 -33.07356,-0.68672 -37.13008,-1.37349 -7.41855,-1.25596 -31.771889,-0.97933 -71.291183,0.8098 -11.733334,0.5312 -27.237546,0.66581 -34.453804,0.29915 z m 162.824977,-7.51662 c 5.10201,-0.58002 7.42389,-1.52145 8.44136,-3.42261 0.77193,-1.44237 1.00711,-3.02111 0.52261,-3.50831 -1.65585,-1.66502 -41.29829,-2.87548 -87.33514,-2.66669 -85.175578,0.38628 -88.00643,0.48272 -91.41183,3.11423 -2.558189,1.97682 -2.55728,2.02421 0.07849,4.09052 2.308147,1.80946 7.685942,2.03354 40,1.66666 42.438147,-0.48181 104.36396,0.82127 105.74458,2.22515 0.85494,0.86935 5.90946,0.55313 23.95993,-1.49895 z M 6.0489737,58.200687 C 3.9371321,56.656471 3.8409949,55.855162 5.2539279,51.573934 c 0.8840076,-2.678569 2.1635133,-5.213893 2.843346,-5.634053 0.6798326,-0.42016 1.2360594,-1.711666 1.2360594,-2.870014 0,-2.319889 13.2609817,-22.822237 17.8047737,-27.527346 C 34.934893,7.4689235 27.422393,8.0762607 146,5.9333027 c 23.46667,-0.4240943 46.65881,-0.991026 51.53812,-1.2598482 10.64781,-0.5866366 13.97347,1.1119542 12.63309,6.4524235 l -0.88868,3.540788 -18.30793,0.177436 c -25.45851,0.246739 -103.572373,1.925866 -139.161153,2.991394 -12.982104,0.388684 -17.736194,3.981492 -29.84802,22.557049 -1.814319,2.782566 -3.29876,5.605378 -3.29876,6.272916 0,0.667537 2.183432,1.623318 4.85207,2.123957 4.784867,0.897646 92.461783,-0.06401 140.481263,-1.540821 13.56667,-0.417236 30.21667,-0.362863 37,0.120826 11.48008,0.818598 12.33192,1.078379 12.31292,3.755007 -0.0504,7.092954 3.92847,6.852782 -135.4206,8.174325 -56.150789,0.53252 -69.9007933,0.322361 -71.8433463,-1.098068 z"
       id="path1137" />
  </g>
</svg>
