<?xml version="1.0" encoding="UTF-8" standalone="no"?>
<!-- Created with Inkscape (http://www.inkscape.org/) -->

<svg
   version="1.1"
   id="svg221"
   width="256"
   height="212"
   viewBox="0 0 256 212"
   xmlns="http://www.w3.org/2000/svg"
   xmlns:svg="http://www.w3.org/2000/svg">
  <defs
     id="defs225" />
  <g
     id="g227">
    <path
       style="fill:#000000;stroke-width:1.33333"
       d="m 204,206.39519 c -1.83333,-0.78338 -5.1812,-2.22246 -7.43971,-3.19795 -10.13673,-4.37825 -18.14409,-17.69087 -18.32477,-30.46579 -0.0989,-6.99853 0.45083,-8.88361 4.15855,-14.25814 2.34993,-3.40636 4.2726,-6.74352 4.2726,-7.41594 0,-3.19126 19.23453,-13.68648 25.12812,-13.71101 11.56621,-0.0481 31.17844,11.46701 36.15956,21.23083 5.04138,9.88192 2.37994,26.6723 -5.81256,36.67018 -8.10916,9.89616 -27.68268,15.61698 -38.14179,11.14782 z M 207.07459,184 c 2.9022,-3.88737 6.02629,-6.66667 7.49377,-6.66667 1.38688,0 5.02237,2.9928 8.09831,6.66667 3.0699,3.66667 6.10466,6.66667 6.7439,6.66667 0.63926,0 1.82502,-1.23836 2.63504,-2.7519 1.93444,-3.61453 0.21492,-5.62858 -6.77493,-7.93545 -2.98879,-0.98639 -6.05684,-2.95692 -6.81789,-4.37896 -1.18171,-2.20804 -0.2735,-3.61879 6.22048,-9.66245 6.92949,-6.449 8.42141,-9.93898 4.24804,-9.93726 -0.87339,3.6e-4 -4.17127,3.00036 -7.32862,6.66667 -6.10126,7.08477 -11.53188,8.86687 -13.20305,4.33268 -0.473,-1.28333 -2.34784,-4.31279 -4.16633,-6.73212 -3.94648,-5.25045 -8.88998,-5.51281 -8.88998,-0.47181 0,2.36901 1.61987,4.03578 6.66667,6.85969 9.17999,5.13663 9.51899,8.65589 1.39576,14.48956 -3.61097,2.59321 -6.06243,5.39852 -6.06243,6.93753 0,4.7052 4.62874,2.76518 9.74126,-4.08285 z M 133,193.65815 c -1.60965,-0.35896 -2.33333,-1.80464 -2.33333,-4.66126 0,-2.27749 -0.57919,-5.98349 -1.28709,-8.23556 -0.7079,-2.25206 -1.6163,-5.73257 -2.01866,-7.73444 -0.40236,-2.00188 -2.41172,-5.35856 -4.46525,-7.45929 -2.05352,-2.10072 -4.51792,-5.71283 -5.47644,-8.02688 -0.95851,-2.31407 -2.221,-4.20739 -2.80552,-4.20739 -2.00308,0 -11.94704,-10.45592 -11.94704,-12.56213 0,-2.72537 1.17192,-2.6548 9.33333,0.56213 7.9178,3.12091 9.33333,3.26696 9.33333,0.96299 0,-2.39527 -3.54007,-5.05059 -12.37455,-9.28183 -8.2008,-3.92775 -9.03448,-5.64565 -5.09859,-10.50627 l 2.52687,-3.12055 6.47313,3.17641 c 7.49936,3.67999 10.41314,6.35931 11.82307,10.87175 1.07344,3.43552 2.95095,5.1771 5.61707,5.21042 1.22537,0.0153 1.29078,-0.88145 0.26171,-3.5881 -0.75457,-1.98468 -1.27615,-5.13468 -1.15905,-7 0.59956,-9.55065 -0.2076,-14.86276 -2.62582,-17.28098 -2.23368,-2.23368 -3.95784,-2.47236 -13.66666,-1.89191 -6.11078,0.36534 -12.31051,0.61322 -13.777177,0.55085 -1.466666,-0.0624 -15.266666,-0.38079 -30.666666,-0.70758 -15.4,-0.32679 -28.45,-0.6244 -29,-0.66135 -0.55,-0.0369 -1,-1.50299 -1,-3.25786 0,-3.6152 2.778918,-5.166597 7.246218,-4.04538 1.668875,0.41886 7.259146,0.1761 12.422824,-0.53948 6.980683,-0.967368 12.07401,-0.834201 19.859732,0.51924 8.40818,1.46165 10.802163,1.49008 12.150932,0.1443 1.350706,-1.347712 1.344308,-2.134673 -0.03267,-4.017796 -1.428091,-1.953031 -4.118019,-2.385672 -16.202734,-2.606007 -12.077742,-0.220209 -14.731284,-0.646582 -15.937365,-2.560832 -2.891847,-4.589836 0.807033,-5.721534 17.825291,-5.453772 17.389716,0.273607 20.871285,1.357223 22.880716,7.12148 1.113356,3.193778 2.300069,3.97577 7.133299,4.700558 3.18877,0.478185 6.44386,0.470117 7.23353,-0.01793 0.78967,-0.488045 3.49277,-0.143534 6.00689,0.76558 8.26037,2.986989 8.80107,1.475699 8.6774,-24.254138 -0.0652,-13.570228 0.4546,-23.46046 1.31785,-25.073454 1.01798,-1.902117 0.98033,-6.57913 -0.13169,-16.358477 -1.27842,-11.242691 -2.10383,-14.241363 -4.6098,-16.747336 -3.81614,-3.816144 -8.50888,-4.000369 -9.4579,-0.371292 -0.39718,1.518817 -2.22175,3.011747 -4.20851,3.443567 -1.92904,0.419273 -5.09151,1.258548 -7.02771,1.865053 -3.49839,1.095861 -6.479641,-0.359589 -6.479641,-3.163365 0,-0.718758 3.150001,-4.189502 7.000001,-7.712763 5.56354,-5.0913792 7.96253,-6.4101525 11.69049,-6.4265016 5.9146,-0.025939 13.3489,4.9054203 17.49002,11.6015696 3.03679,4.910475 3.12564,5.937816 3.34376,38.660095 0.1232,18.488562 0.63344,36.038562 1.13377,39 0.8836,5.230008 1.06884,5.391249 6.45916,5.62214 3.0522,0.130746 6.74947,0.183413 8.21614,0.117053 1.46666,-0.06636 11.8163,-0.261424 22.99921,-0.433472 14.63959,-0.225228 20.73165,-0.793715 21.75799,-2.030367 0.78398,-0.944654 1.69752,-6.70656 2.03005,-12.804236 0.87779,-16.095564 1.39185,-19.528594 4.25557,-28.420017 2.86798,-8.904588 5.78095,-11.281305 13.86639,-11.313677 3.88005,-0.01553 5.47272,0.77173 7.59725,3.755368 2.46028,3.455142 2.69134,5.881796 2.72674,28.637701 0.0213,13.674472 -0.3092,25.769198 -0.73436,26.877158 -1.55184,4.04404 -9.17028,4.58441 -69.16551,4.90585 -1.46667,0.008 -5.42881,-0.4011 -8.80476,-0.90879 -3.94283,-0.59294 -7.21251,-0.34808 -9.14216,0.68465 -2.8386,1.51917 -2.94465,2.09667 -1.92553,10.48473 0.59318,4.88235 0.99594,10.88231 0.89504,13.33324 -0.17222,4.18273 0.0363,4.4049 3.39697,3.61983 1.96924,-0.46002 5.54393,-2.92124 7.94376,-5.46937 4.53745,-4.81786 14.04271,-8.42615 18.09775,-6.87009 2.80877,1.07783 2.86121,6.7261 0.0839,9.03112 -1.16697,0.9685 -4.10366,1.62744 -6.52598,1.4643 -5.40684,-0.36413 -11.7814,4.56392 -14.99739,11.59422 -1.21784,2.66222 -2.44589,5.29042 -2.729,5.84042 -0.28312,0.55 0.29411,1 1.28272,1 0.9886,0 4.41411,-2.7 7.61221,-6 6.35247,-6.55484 11.11786,-7.74554 13.46284,-3.36389 1.10578,2.06615 0.89971,3.08171 -0.95308,4.697 C 155.27635,156.41827 148,163.44455 148,164.42209 c 0,0.64144 -1.31945,3.01927 -2.93213,5.28406 -2.06991,2.9069 -3.14814,6.845 -3.66667,13.39204 -0.76863,9.70468 -2.49663,11.8767 -8.4012,10.55996 z M 126,152 c -0.45323,-0.73333 -1.65323,-1.33333 -2.66667,-1.33333 -1.01344,0 -2.21344,0.6 -2.66666,1.33333 -0.46922,0.7592 0.67905,1.33333 2.66666,1.33333 1.98762,0 3.13588,-0.57413 2.66667,-1.33333 z m 92.05483,-53.378835 c 1.44898,-1.202548 1.67652,-15.273832 0.69461,-42.954498 -0.1008,-2.843182 -3.15892,-3.053082 -5.38593,-0.369683 -0.89634,1.080008 -2.4988,7.530008 -3.56104,14.333333 -4.61262,29.542326 -4.6048,29.45782 -2.83064,30.643093 1.97882,1.322 8.70801,0.31882 11.083,-1.652245 z M 37.216469,181.99531 c -14.364274,-0.91838 -27.4142743,-2.36414 -28.9999994,-3.21279 -4.0764193,-2.18164 -3.7089743,-7.88925 1.1242907,-17.46389 2.8961327,-5.73722 5.3919107,-8.69894 8.9999997,-10.68024 2.745916,-1.50786 7.092573,-4.06606 9.65924,-5.6849 5.765789,-3.63658 17.571059,-3.75076 28.046828,-0.27126 7.764583,2.57897 19.430607,13.38321 20.858644,19.31777 0.441155,1.83333 1.528756,4.83333 2.416889,6.66667 1.859238,3.83793 0.274075,11.95037 -2.360484,12.08033 -0.895698,0.0441 -4.328544,0.26883 -7.628544,0.49921 -3.3,0.23039 -17.752588,-0.33252 -32.116864,-1.2509 z m 32.116864,-12.37876 c 0,-3.33732 -11.716306,-14.11398 -17.333333,-15.94319 -13.234489,-4.30988 -36,4.42191 -36,13.80792 0,3.79899 1.62502,4.02468 31,4.30533 20.639448,0.1972 22.333333,0.0327 22.333333,-2.17006 z"
       id="path249" />
  </g>
</svg>
