<?xml version="1.0" encoding="UTF-8" standalone="no"?>
<!-- Created with Inkscape (http://www.inkscape.org/) -->

<svg
   version="1.1"
   id="svg211"
   width="294.66666"
   height="313.33334"
   viewBox="0 0 294.66666 313.33334"
   xmlns="http://www.w3.org/2000/svg"
   xmlns:svg="http://www.w3.org/2000/svg">
  <defs
     id="defs215" />
  <g
     id="g217">
    <path
       style="fill:#000000;stroke-width:1.33333"
       d="m 25.666666,303.06061 c -3.529148,-3.45784 -3.793434,-6.0767 -0.904761,-8.96536 2.565274,-2.56528 -2.146226,-2.23711 37.54726,-2.61528 18.503375,-0.17628 33.836845,-0.58139 34.074379,-0.90024 0.237536,-0.31884 0.09841,-11.20439 -0.309165,-24.19008 L 95.333331,242.77929 62.93198,242.16313 c -22.462518,-0.42716 -32.993969,-1.108 -34.333333,-2.21958 -2.402848,-1.99418 -2.425408,-6.51471 -0.04815,-9.64819 1.626742,-2.14424 4.604372,-2.37485 31.093834,-2.40821 16.112145,-0.0203 30.808679,0.34307 32.658964,0.80747 2.881223,0.72313 3.569468,0.25537 4.794401,-3.25847 1.232746,-3.53627 2.079991,-4.10281 6.135534,-4.10281 8.43034,0 8.94486,2.15765 8.30796,34.83959 -0.30541,15.67156 -0.97682,29.76622 -1.49203,31.32148 -0.75343,2.27436 -0.28967,2.99013 2.36983,3.65762 3.76332,0.94454 156.45183,-0.63534 160.91434,-1.66498 0.36666,-0.0847 0.79128,-59.09581 0.94357,-131.13599 0.21047,-99.555087 0.66441,-131.706233 1.89197,-133.999945 1.65272,-3.088133 5.70626,-3.90042 9.01319,-1.806151 2.46961,1.563995 2.6474,5.093623 3.5322,70.121705 0.41907,30.800001 0.84155,57.200001 0.93885,58.666671 0.4788,7.21774 -1.90006,129.77911 -2.57501,132.66667 -0.42852,1.83333 -1.37681,4.09169 -2.10731,5.01858 -0.73049,0.9269 -0.97796,4.24034 -0.54992,7.36322 1.4359,10.47597 12.92798,9.61721 -128.70529,9.61773 l -127.048918,4.7e-4 z M 8.9275433,282.51933 C 6.6316961,281.1837 6.5629064,276.93553 7.4222704,189.55987 7.9175546,139.20194 8.4744342,92.600002 8.6597806,86.000002 8.8451269,79.400002 9.1663718,62.736301 9.3736581,48.969557 9.646176,30.870503 10.23487,23.301399 11.499533,21.636223 12.461478,20.369634 13.267606,17.4568 13.290928,15.16326 13.380152,6.3890521 0.25950411,7.0442221 190.71857,6.3035391 263.32098,6.0211929 269.02138,6.1640885 272.36407,8.3502 c 4.1036,2.683749 6.09032,8.395362 3.73838,10.747422 -1.13903,1.139074 -15.34371,1.633402 -51.83571,1.8039 -27.6467,0.129173 -84.01674,0.425484 -125.266742,0.658476 L 23.999999,21.98362 23.808157,33.99181 c -0.105514,6.604506 -0.328888,16.208191 -0.496391,21.341525 -0.167501,5.133333 -0.688252,57.933335 -1.157224,117.333335 -0.7814,98.97211 -1.039846,108.13932 -3.091782,109.66667 -2.701624,2.01093 -6.866876,2.08737 -10.1352167,0.18599 z M 159.2593,177.47528 c -0.29202,-0.28858 -15.02825,-0.70625 -32.74716,-0.92813 l -32.216206,-0.40341 -3.745044,-3.58799 c -2.475252,-2.37144 -3.88166,-5.22131 -4.147968,-8.4052 -0.354756,-4.24133 -0.801411,-4.78028 -3.736257,-4.50824 -1.833333,0.16995 -8.256565,0.43716 -14.273848,0.59383 -9.03678,0.23526 -11.414886,-0.14447 -13.666666,-2.1823 -4.785684,-4.33098 -2.94139,-11.16173 3.98004,-14.74094 5.10204,-2.63838 5.154784,-6.62682 0.122053,-9.22934 -5.102703,-2.63871 -6.029947,-5.54852 -2.798,-8.78047 5.154785,-5.15478 13.790613,-1.78296 17.332248,6.7673 l 1.723448,4.16077 5.227438,-6.11558 C 84.517466,125.19722 86.381869,124 89.837073,124 c 5.19983,0 7.496258,2.04229 7.496258,6.66667 0,3.93751 -2.188168,6.66667 -5.34516,6.66667 -1.179838,0 -3.309838,0.86144 -4.733333,1.91429 -2.492121,1.84325 -2.381495,2.12779 2.980891,7.66667 3.84052,3.96693 5.860751,7.40774 6.508833,11.0857 1.421545,8.06748 2.845534,10 7.368558,10 4.5847,0 10.45626,-2.72954 17.22021,-8.00525 8.73088,-6.80987 15.29219,-9.32861 24.28021,-9.32064 9.71834,0.008 15.40774,1.40065 26.82483,6.56329 10.17867,4.60264 12.20276,5.32714 18.89496,6.76318 2.93333,0.62945 9.53333,2.1005 14.66667,3.269 5.13333,1.16849 16.95417,2.50214 26.26851,2.96368 17.55786,0.86998 20.58526,2.05582 16.26862,6.37246 -1.73002,1.73002 -8.17234,1.9721 -45.38155,1.70526 -23.85093,-0.17104 -43.60425,-0.5471 -43.89628,-0.8357 z m 15.40736,-10.66856 c 0,-0.65632 -2.25,-1.53128 -5,-1.94436 -25.3528,-3.80834 -29.37765,-3.85896 -33.54048,-0.42184 -1.4771,1.21962 1.13655,1.72054 11.99255,2.29848 24.09915,1.28299 26.54793,1.28923 26.54793,0.0677 z m -98.823824,-16.0147 c 1.448578,-0.91746 1.23719,-1.35938 -0.98807,-2.06564 -3.194932,-1.01404 -5.957406,0.15618 -4.797828,2.03242 0.956659,1.54791 3.37243,1.56178 5.785898,0.0332 z M 136.66666,87.002567 c -16.18414,-0.401488 -18.93136,-0.968936 -19.93042,-4.116685 -1.11918,-3.526214 2.7728,-13.554799 6.98222,-17.991314 6.81377,-7.181365 15.71792,-10.653235 27.61487,-10.767459 9.21547,-0.08848 11.63384,0.405321 17.77559,3.629559 7.20312,3.781429 14.67708,11.004407 16.6254,16.067104 0.69254,1.799592 0.26062,4.563976 -1.2294,7.868258 l -2.29706,5.093961 -14.82854,-0.308554 c -8.1557,-0.169706 -15.40246,-0.04655 -16.10392,0.273672 -0.70147,0.320224 -7.2754,0.433381 -14.60874,0.251458 z m 35.88406,-6.526745 c 5.68362,-0.779027 6.2193,-1.158496 5.85276,-4.145931 -1.03274,-8.416862 -24.21803,-16.338008 -36.79347,-12.570314 -7.83179,2.346462 -16.27668,8.965115 -16.27668,12.756791 0,3.16537 0.005,3.166348 17.53441,3.303827 9.64392,0.07564 17.84392,0.447033 18.22223,0.825329 0.91155,0.911558 3.89432,0.867391 11.46075,-0.169702 z"
       id="path388" />
  </g>
</svg>
