<?xml version="1.0" encoding="UTF-8" standalone="no"?>
<!-- Created with Inkscape (http://www.inkscape.org/) -->

<svg
   version="1.1"
   id="svg201"
   width="109.33333"
   height="206.66667"
   viewBox="0 0 109.33333 206.66667"
   xmlns="http://www.w3.org/2000/svg"
   xmlns:svg="http://www.w3.org/2000/svg">
  <defs
     id="defs205" />
  <g
     id="g207">
    <path
       style="fill:#000000;stroke-width:1.33333"
       d="m 11.988718,199.5031 c -6.052787,-1.95836 -8.7281373,-8.94836 -6.6265644,-17.31352 2.9004272,-11.54494 6.7053754,-17.78423 13.5503324,-22.2196 14.273049,-9.24863 24.548015,-11.36002 40.420846,-8.30602 9.896119,1.90406 12.957072,3.49962 18.051595,9.4096 12.127318,14.06852 17.552605,29.06611 12.843934,35.5056 -1.614133,2.20746 -4.834892,2.46967 -36.333332,2.95803 -19.009207,0.29472 -35.169455,0.74581 -35.91166,1.00244 -0.742207,0.25661 -3.440024,-0.20983 -5.995151,-1.03653 z m 60.38646,-11.43704 c 3.283576,-0.0431 5.319085,-0.78854 5.836832,-2.13776 1.143558,-2.98006 -3.212483,-11.84316 -8.492905,-17.28023 -6.341872,-6.53003 -12.936973,-9.47611 -23.282052,-10.40028 -7.567912,-0.67608 -9.391119,-0.40551 -12.210306,1.81207 -1.822715,1.43374 -3.8648,2.60681 -4.537968,2.60681 -1.711532,0 -6.039893,5.06584 -9.463744,11.07621 -2.716264,4.76824 -3.871833,12.83255 -2.093636,14.61075 0.438938,0.43893 11.688937,0.56865 25,0.28828 13.311063,-0.28039 26.470763,-0.53952 29.243779,-0.57585 z M 42.850133,97.293464 C 36.075271,95.889259 31.084862,92.335199 19.878715,80.933729 11.803891,72.718161 11.74842,72.608533 10.972967,63.333334 9.148202,41.507305 11.296135,34.58395 23.679073,22.378208 34.53275,11.679844 43.913828,7.865284 59.956932,7.6268065 72.615007,7.4386467 79.573282,10.366935 89.095835,19.889488 100.17905,30.972702 102.03144,35.547075 101.82906,51.333334 101.63713,66.3035 98.922405,75.513196 92.436513,83.197523 88.794759,87.512185 86.806728,88.893929 75.333331,95.084767 69.331387,98.323307 53.132829,99.42473 42.850133,97.293464 Z M 63.048367,84.752075 c -0.320738,-4.406039 -4.675985,-9.55162 -6.913881,-8.168526 -1.61877,1.000456 -2.027484,10.412346 -0.51772,11.92211 0.522556,0.522556 2.472556,0.772556 4.333334,0.555556 2.84313,-0.331562 3.337739,-1.019475 3.098267,-4.30914 z M 45.575069,82.327992 c 1.137935,-2.386273 2.521324,-6.436273 3.074202,-9 1.668929,-7.738951 4.436687,-11.994658 7.80089,-11.994658 3.058725,0 4.944909,2.030919 13.077153,14.080619 4.62661,6.855335 8.388324,7.643284 13.008894,2.724912 5.417975,-5.76717 3.543291,-9.81806 -7.202877,-15.564251 -7.373814,-3.942925 -9.420792,-5.705264 -9.749904,-8.394148 -0.376118,-3.072919 0.756839,-3.992751 11.666667,-9.471995 6.645779,-3.33771 12.083237,-6.383654 12.083237,-6.768762 0,-3.083852 -11.562337,-16.606375 -14.199163,-16.606375 -0.921829,0 -2.87116,2.55 -4.331846,5.666666 -3.742611,7.985607 -9.866449,16.244969 -12.407542,16.734339 -2.980894,0.574067 -6.869274,-3.967973 -11.302437,-13.202444 -2.540578,-5.292129 -4.547462,-7.835859 -6.191474,-7.847703 -3.31943,-0.02392 -16.25504,12.458047 -15.005726,14.479482 0.535242,0.866039 5.651441,3.926807 11.369332,6.801707 5.717892,2.874898 10.766476,6.192101 11.219077,7.371561 1.090036,2.84059 -3.560132,7.366627 -13.100689,12.750984 -4.187907,2.36351 -7.970416,5.22511 -8.405573,6.359112 -0.530937,1.3836 1.771098,4.390381 6.998276,9.140727 4.284209,3.893396 8.18121,7.078903 8.660002,7.078903 0.478792,0 1.801568,-1.952404 2.939501,-4.338676 z M 30.550183,57.666668 c 5.269789,-2.999344 5.175373,-4.490007 -0.477203,-7.534119 -7.015431,-3.77806 -11.364487,-0.793168 -9.524707,6.5371 0.99938,3.981845 4.197504,4.300643 10.00191,0.997019 z m 59.849814,0.733333 c 1.840062,-1.840061 2.182395,-9.066667 0.429499,-9.066667 -2.470945,0 -10.829498,4.097382 -10.829498,5.308644 0,1.124832 6.143233,5.164622 8.066666,5.304639 0.403333,0.02936 1.453333,-0.666616 2.333333,-1.546616 z M 61.202898,25.13437 c 2.2751,-6.526358 1.873541,-7.801036 -2.457544,-7.801036 -5.089961,0 -5.957529,1.635432 -3.89433,7.341106 2.091181,5.78306 4.437008,5.952918 6.351874,0.45993 z"
       id="path527" />
  </g>
</svg>
