<?xml version="1.0" encoding="UTF-8" standalone="no"?>
<!-- Created with Inkscape (http://www.inkscape.org/) -->

<svg
   version="1.1"
   id="svg191"
   width="76"
   height="217.33333"
   viewBox="0 0 76 217.33333"
   xmlns="http://www.w3.org/2000/svg"
   xmlns:svg="http://www.w3.org/2000/svg">
  <defs
     id="defs195" />
  <g
     id="g197">
    <path
       style="fill:#000000;stroke-width:1.33333"
       d="m 48,212.39473 c -3.3,-0.26 -7.8,-1.32401 -10,-2.36449 -2.2,-1.04048 -5.518608,-2.20139 -7.374683,-2.5798 -5.185649,-1.05723 -19.225518,-15.13922 -23.3390017,-23.409 -3.2591185,-6.55218 -3.5522328,-8.28136 -2.8893934,-17.04563 0.6268869,-8.28888 1.45566,-10.83541 5.5184357,-16.95624 5.9011894,-8.89052 9.5310554,-11.80787 19.1953014,-15.42736 6.889382,-2.58024 8.261804,-2.68267 15.556008,-1.16104 6.134348,1.27968 9.118336,2.78204 12.795476,6.44219 5.0019,4.97877 10.541576,17.50845 10.532873,23.82332 -0.0073,5.35909 -4.253456,11.36896 -11.476435,16.24369 -5.568229,3.75795 -7.16814,4.22168 -12.1902,3.53333 C 36.697823,182.44782 32.554959,179.24485 29.836288,172.28945 25.91984,162.26968 31.166248,152 40.201437,152 c 4.118095,0 8.009954,3.23102 7.014992,5.82385 -0.368644,0.96067 -2.59315,2.59331 -4.943346,3.62808 C 38.832191,162.96693 38,164.11234 38,167.33333 c 0,3.49392 0.699367,4.24179 5.527757,5.91103 4.93001,1.70438 5.885666,1.67652 8.837558,-0.25763 4.045976,-2.65103 5.239165,-8.75187 3.322228,-16.98673 -1.758611,-7.55472 -3.756482,-9.86575 -10.197044,-11.79539 -9.436455,-2.82723 -15.12029,-2.00481 -21.729075,3.14404 -5.041496,3.92779 -6.289076,5.84724 -7.744912,11.91585 -2.033611,8.47704 -1.133949,17.31892 2.483352,24.40643 3.225825,6.32047 5.722032,8.54227 14.833469,13.20283 6.632252,3.39242 8.715171,3.76418 21.787398,3.88862 14.932557,0.14215 16.810356,0.82631 16.858852,6.14238 0.05421,5.9424 -4.628802,7.01454 -23.979583,5.48997 z M 32.299471,86.432615 C 31.034761,85.931095 27,85.476345 23.333333,85.422061 15.663121,85.308507 8,81.375243 8,77.551895 8,76.183879 8.6782048,73.119095 9.5071219,70.741262 10.661676,67.429307 10.611569,65.121394 9.2929325,60.875631 8.3462113,57.827367 7.4393,50.533333 7.277574,44.666666 6.364224,11.534576 6.4102381,7.7230951 7.7396249,6.3937083 8.6532371,5.4800962 19.36058,4.9905381 37.928037,5.0134418 c 24.738782,0.030517 29.255248,0.3516995 32.214874,2.290921 2.544261,1.6670637 3.240216,3.0084892 2.66786,5.1421992 -0.425898,1.587724 -0.782551,17.6703 -0.792564,35.739059 -0.02314,41.74771 1.397284,39.132564 -21.26325,39.14791 -8.885809,0.006 -17.190777,-0.399395 -18.455486,-0.900916 z M 58.361421,74.188651 C 60.433205,72.908218 59.517032,20.317032 57.385815,18.185814 56.643673,17.443673 48.00414,16.667608 38.186849,16.461222 L 20.337232,16.085978 19.523473,27.709656 c -0.447566,6.393022 -1.196736,18.539383 -1.66482,26.991914 -0.945741,17.077961 -0.5955,17.975346 7.816231,20.026658 5.300427,1.29258 30.392247,0.878374 32.686537,-0.539577 z"
       id="path666" />
  </g>
</svg>
