<?xml version="1.0" encoding="UTF-8" standalone="no"?>
<!-- Created with Inkscape (http://www.inkscape.org/) -->

<svg
   version="1.1"
   id="svg181"
   width="204"
   height="220"
   viewBox="0 0 204 220"
   xmlns="http://www.w3.org/2000/svg"
   xmlns:svg="http://www.w3.org/2000/svg">
  <defs
     id="defs185" />
  <g
     id="g187">
    <path
       style="fill:#000000;stroke-width:1.33333"
       d="M 38.855815,210.57204 C 20.833464,205.91939 15.755208,201.06513 7.2778803,180.38701 5.4946151,176.03723 5.1871752,172.91405 5.9117844,166.50936 8.7447924,141.46888 24.347731,125.32409 47.78008,123.18709 c 15.471211,-1.41095 28.443643,3.6391 40.170728,15.63812 14.694592,15.03534 10.741545,49.96996 -7.168739,63.35294 -15.255381,11.39917 -23.720425,13.09393 -41.926254,8.39389 z m 28.477518,-11.65541 c 12.545704,-6.76792 18.359812,-15.31806 19.885342,-29.2431 0.74316,-6.78357 0.421645,-9.43541 -1.735107,-14.3111 -8.219524,-18.5816 -24.942132,-26.80994 -43.513932,-21.41096 -14.787012,4.29869 -27.31544,21.63268 -27.297455,37.768 0.0088,7.92108 7.182864,18.41298 17.345618,25.3677 l 8.594853,5.88175 10.693675,-0.58759 c 7.55334,-0.41502 12.259874,-1.43248 16.027006,-3.4647 z M 45.6,173.06667 c -0.88,-0.88 -1.6,-3.5589 -1.6,-5.9531 C 44,162.49369 46.773708,160 51.912345,160 55.116507,160 60,164.42801 60,167.33333 c 0,5.49515 -10.469696,9.66364 -14.4,5.73334 z M 185.51461,211 c -2.57886,-2.16389 -2.87944,-4.46348 -4.13896,-31.66667 -1.84722,-39.89636 -1.77513,-59.73385 0.22435,-61.73333 2.6064,-2.60641 11.42289,-2.00475 12.96948,0.88507 0.73148,1.36679 1.61103,15.9168 1.95453,32.33333 0.34352,16.41655 1.05124,36.20464 1.57272,43.97353 0.92911,13.8414 0.8848,14.16964 -2.20429,16.33334 -4.03657,2.82733 -6.90019,2.79276 -10.37783,-0.12534 z M 28.652181,36.733961 C 26.095767,32.737641 23.296251,27.914247 22.431036,26.015308 20.218472,21.159257 17.063096,22.369131 15.205268,28.7859 12.410599,38.438439 9.4963845,42.877075 6.2563547,42.41598 1.3345972,41.715556 1.9568999,36.081139 8.5363568,21.772512 13.982792,9.9279177 14.907955,8.6666667 18.149861,8.6666667 c 2.831542,0 4.509867,1.4042363 7.96792,6.6666663 2.409443,3.666667 5.78411,8.372736 7.49926,10.457932 l 3.118454,3.791267 5.038097,-10.057764 C 49.073233,4.9521909 52.598357,4.6796821 60.173645,18.102356 c 2.128444,3.771396 4.957482,7.841332 6.28675,9.044303 2.285233,2.068109 2.592642,1.809284 5.644894,-4.752748 C 75.817771,14.412451 80.797051,8 83.282187,8 c 2.223649,0 9.579053,8.592692 12.914782,15.087243 2.88291,5.612922 4.655281,5.765776 7.745491,0.667986 C 112.00641,10.452454 113.79764,8 115.44974,8 c 1.02466,0 3.51765,1.8836175 5.53997,4.185817 2.02233,2.302199 4.34915,4.881536 5.17072,5.731862 0.82158,0.850325 2.48698,3.466708 3.70091,5.814184 C 131.07527,26.079339 132.56008,28 133.16092,28 c 1.68339,0 4.68016,-3.933327 9.39669,-12.333333 5.49915,-9.7938249 8.89548,-10.2632106 14.47143,-2 2.10311,3.116666 4.61623,7.644428 5.58471,10.061692 2.59154,6.468297 5.33689,4.971497 11.11802,-6.061692 7.40736,-14.136841 9.09076,-13.5819765 20.88303,6.883252 6.97151,12.098925 7.97461,17.05622 3.61933,17.886664 -3.6115,0.688625 -6.6203,-2.72562 -10.94317,-12.41784 -2.13061,-4.776975 -4.31231,-8.68541 -4.84823,-8.68541 -0.53592,0 -3.45966,4.776988 -6.49721,10.61553 -5.34221,10.268417 -9.31001,13.886646 -12.13279,11.063873 -1.4329,-1.432905 -5.16405,-7.777051 -9.41748,-16.012736 -1.60964,-3.116667 -3.59674,-5.666667 -4.41578,-5.666667 -0.81903,0 -3.22535,3.75 -5.34738,8.333334 -4.99394,10.78637 -6.92494,13 -11.34025,13 -3.1342,0 -4.29239,-1.263963 -8.50645,-9.283342 -2.68304,-5.105838 -5.49517,-9.664614 -6.24918,-10.130616 C 116.95329,22.274408 112,26.336005 112,28.612276 c 0,0.842769 -1.78679,4.349777 -3.97063,7.793349 -6.41905,10.121787 -10.955957,8.29441 -20.04141,-8.072292 -1.730119,-3.116666 -3.785185,-5.632996 -4.566815,-5.591842 -0.781629,0.04115 -3.521145,4.391154 -6.087812,9.666666 -3.897074,8.010028 -5.260573,9.660379 -8.268008,10.007436 -3.14798,0.363275 -4.389512,-0.769705 -9.862288,-9 C 55.759516,28.237017 52.168628,24 51.223284,24 c -0.945344,0 -3.600613,3.75 -5.900599,8.333333 -7.02807,14.005302 -10.02106,14.795382 -16.670504,4.400628 z"
       id="path805" />
  </g>
</svg>
