<?xml version="1.0" encoding="UTF-8" standalone="no"?>
<!-- Created with Inkscape (http://www.inkscape.org/) -->

<svg
   version="1.1"
   id="svg185"
   width="232"
   height="158.66667"
   viewBox="0 0 232 158.66667"
   xmlns="http://www.w3.org/2000/svg"
   xmlns:svg="http://www.w3.org/2000/svg">
  <defs
     id="defs189" />
  <g
     id="g191">
    <path
       style="fill:#000000;stroke-width:1.33333"
       d="M 10.700581,142.70059 C 9.2525679,141.25258 7.6759949,138.50664 7.197086,136.59851 5.6901196,130.59428 7.3273727,81.75037 9.1074993,79.605448 13.463316,74.35701 37.877468,77.778552 63.722792,87.259555 c 3.147536,1.154631 9.915364,2.693943 15.039616,3.420692 5.425623,0.769492 12.602367,2.9799 17.183504,5.292451 4.358808,2.20032 12.218978,4.670222 17.627048,5.538942 6.07292,0.97553 13.53981,3.44784 19.76421,6.54399 8.47422,4.21527 11.41344,4.99728 19.22268,5.11444 5.65656,0.0849 11.98582,1.17356 16.37951,2.81745 4.03205,1.50858 10.48852,2.69286 14.77732,2.71053 12.84535,0.0529 37.9652,7.89281 41.22368,12.86587 2.84765,4.34606 0.88375,11.58966 -3.30604,12.1939 -2.76241,0.39837 -16.99217,-3.77936 -21.81885,-6.40583 -1.2015,-0.6538 -7.5015,-1.60575 -14,-2.11544 -6.49851,-0.50969 -13.43567,-1.74643 -15.41592,-2.7483 -1.98026,-1.00187 -6.06004,-1.82158 -9.06622,-1.82158 -3.00617,0 -7.36552,-0.98241 -9.68745,-2.18312 -2.32193,-1.20072 -8.39837,-3.04758 -13.5032,-4.10414 -5.10482,-1.05656 -11.72526,-3.06723 -14.71209,-4.46817 -2.98682,-1.40094 -10.94717,-3.72393 -17.68965,-5.16219 -6.742477,-1.43827 -14.842477,-3.87089 -17.999996,-5.40582 C 84.583424,107.8083 79.3,106.19384 76,105.75554 72.7,105.31724 68.5,104.22345 66.666667,103.3249 64.833333,102.42635 60.033333,100.92715 56,99.993346 51.966667,99.059541 47.074044,97.179026 45.127507,95.814426 41.608172,93.347235 31.878345,92.440415 27.393069,94.161577 c -3.274026,1.256362 -6.059736,7.707253 -6.059736,14.032583 0,4.31371 0.844983,6.5419 3.552566,9.36801 3.493901,3.64684 3.52428,3.83447 1.83967,11.3621 -2.309474,10.31981 -3.766517,13.18115 -7.602002,14.92871 -4.432018,2.01936 -5.38108,1.88952 -8.422986,-1.15239 z M 41.860649,45.032353 c -1.543309,-0.696708 -4.243309,-3.645787 -6,-6.553508 -4.676261,-7.740274 -7.886414,-11.812178 -9.312328,-11.812178 -1.218522,0 -3.31695,4.127844 -6.559965,12.904194 -1.876761,5.078947 -4.509544,6.384143 -7.283104,3.610583 -3.1629633,-3.162964 -2.511421,-6.331695 4.093659,-19.909221 5.014541,-10.307987 6.673333,-12.605556 9.100914,-12.605556 3.427947,0 7.456895,3.989676 10.771663,10.666667 2.625148,5.287879 5.879455,9.333333 7.508064,9.333333 1.342008,0 6.487115,-9.840248 6.487115,-12.406899 0,-2.693212 4.423201,-6.259768 7.76329,-6.259768 2.851535,0 7.47225,5.368858 12.50803,14.533211 2.746781,4.998726 5.407474,5.282448 7.503373,0.800123 0.857252,-1.833333 2.28256,-4.875435 3.167351,-6.760227 0.884792,-1.884791 3.048877,-4.867059 4.809081,-6.627261 2.986245,-2.986247 3.451785,-3.070357 6.958148,-1.257146 2.202496,1.138955 5.582001,5.261482 8.16535,9.960595 2.42417,4.409555 5.1904,8.017372 6.14719,8.017372 0.95679,0 2.93872,-2.55 4.4043,-5.666666 5.10013,-10.845883 8.5599,-15.6666675 11.24362,-15.6666675 1.60306,0 11.87161,12.5312265 14.6636,17.8947085 2.43187,4.671703 4.32173,3.645012 9.13563,-4.963034 2.62194,-4.688465 5.68125,-9.283101 6.79845,-10.210301 3.95833,-3.2851245 7.96577,-0.536432 13.46055,9.232545 2.89962,5.155153 5.704,9.374446 6.23194,9.37621 0.52795,0.0017 3.12624,-4.439444 5.77398,-9.869348 6.88454,-14.1186323 10.57689,-14.3520197 17.952,-1.134719 2.35508,4.220667 5.34942,8.873939 6.65409,10.340606 3.45984,3.889438 4.57725,10.522227 2.11669,12.564312 -3.67876,3.053099 -6.70112,0.915968 -11.18866,-7.911592 -2.41928,-4.758996 -5.11928,-8.65272 -6,-8.65272 -0.88074,0 -3.70134,4.069746 -6.268,9.043882 -7.207,13.966994 -12.37282,13.525229 -19.88124,-1.700188 -4.37044,-8.862266 -7.27654,-9.940429 -9.89592,-3.671376 -1.03724,2.482467 -3.46923,7.02175 -5.40443,10.087295 -5.39769,8.550498 -8.42829,7.75738 -15.63969,-4.092947 -3.2354,-5.316666 -6.64407,-9.666666 -7.57483,-9.666666 -0.93076,0 -2.4224,1.292765 -3.31476,2.872813 -8.86508,15.69689 -9.44543,16.46052 -12.50986,16.46052 -3.61267,0 -7.55581,-4.121636 -12.381977,-12.94248 -1.868512,-3.415108 -4.013116,-6.405412 -4.765784,-6.645121 -0.752668,-0.23971 -3.573108,4.019622 -6.267643,9.465184 -5.062559,10.231252 -8.703145,13.160548 -12.470428,10.033981 -1.088225,-0.903146 -4.442979,-5.452717 -7.455009,-10.110157 -3.01203,-4.65744 -5.950616,-8.468074 -6.530192,-8.468074 -0.579576,0 -3.311566,4.180142 -6.071087,9.289204 -5.471311,10.129754 -6.453879,10.967686 -10.643171,9.076482 z"
       id="path213" />
  </g>
</svg>
