<?xml version="1.0" encoding="UTF-8" standalone="no"?>
<!-- Created with Inkscape (http://www.inkscape.org/) -->

<svg
   version="1.1"
   id="svg91"
   width="386.66666"
   height="354.66666"
   viewBox="0 0 386.66666 354.66666"
   xmlns="http://www.w3.org/2000/svg"
   xmlns:svg="http://www.w3.org/2000/svg">
  <defs
     id="defs95" />
  <g
     id="g97">
    <path
       style="fill:#000000;stroke-width:1.33333"
       d="m 33.02291,347.0505 c -3.563928,-3.95435 -4.148468,-8.86852 -1.438285,-12.09155 2.28531,-2.71774 3.923132,-2.91821 30.415374,-3.72276 15.4,-0.46768 28.299999,-1.14028 28.666666,-1.49468 1.407156,-1.36005 0.325305,-41.94954 -1.157627,-43.43248 -0.984134,-0.98413 -12.378017,-1.67905 -33.500204,-2.04318 L 24,283.71402 l -0.114467,3.80965 c -0.06296,2.09531 -0.0214,13.40966 0.09235,25.14299 0.113746,11.73333 -0.198936,22.38333 -0.694854,23.66667 -1.084877,2.80744 -11.476209,3.31412 -13.6724715,0.66666 C 8.6782056,335.8761 8.0822644,282.6695 7.7806336,173.6212 7.3862273,31.031843 7.5698372,11.749068 9.3333332,10.556078 12.428123,8.4624772 338.41758,10.218894 344.99033,12.364583 c 5.62806,1.837297 7.23914,6.32179 3.90785,10.877619 -1.78863,2.446083 -3.51947,2.549207 -35.05652,2.088684 -18.24625,-0.266442 -79.675,-0.421001 -136.50833,-0.343462 -98.177893,0.133945 -111.410007,0.139784 -141.333331,0.06236 L 23.333333,25.017009 22.97007,46.175171 c -1.041449,60.659179 0.191978,218.056969 1.728255,220.542719 0.436024,0.70551 8.702269,1.33579 18.380364,1.40145 9.673387,0.0656 24.682702,0.51566 33.354034,1 8.671332,0.48436 16.664793,0.37652 17.763249,-0.23965 2.895374,-1.62413 8.167138,0.0617 9.813698,3.13837 0.79171,1.47932 1.7385,14.59831 2.1399,29.65092 0.39596,14.84872 0.93644,27.69814 1.20108,28.55424 0.54067,1.74911 45.21403,2.37298 173.08819,2.41723 73.45063,0.0255 75.83021,0.10547 77.66666,2.61439 2.46352,3.36554 2.41408,8.0351 -0.11187,10.56101 -1.76476,1.76477 -20.82754,1.99194 -158.33333,1.88688 -85.97984,-0.0657 -158.163431,0.29704 -160.407965,0.80609 -3.061178,0.69425 -4.617853,0.32983 -6.229452,-1.45832 z m 335.1347,-14.71717 c -2.13659,-1.77766 -2.97803,-4.39731 -3.53322,-11 -0.4008,-4.76667 -0.96946,-61.16667 -1.26368,-125.33333 -0.29422,-64.16667 -0.91389,-129.866668 -1.37704,-146.000001 -0.98938,-34.463997 -0.23852,-40.7105838 5.12011,-42.5951118 6.7096,-2.359643 8.12079,-0.078447 9.11528,14.7350068 2.35573,35.089476 4.47017,306.080896 2.41815,309.915126 -1.73752,3.2466 -6.7519,3.37976 -10.4796,0.27831 z M 152.2608,243.86269 c -25.9167,-0.51811 -40.91859,-1.32048 -41.83571,-2.2376 -0.78642,-0.78641 -1.04235,-2.97379 -0.56873,-4.8608 0.84934,-3.38404 1.04764,-3.43441 14.50237,-3.68364 7.5027,-0.13897 19.41419,-0.0715 26.46999,0.15001 l 12.82872,0.40268 2.23612,-7.81668 c 1.22986,-4.29916 2.8782,-9.61666 3.66296,-11.81666 2.31828,-6.49908 4.3363,-23.1694 4.27726,-35.33334 -0.0824,-16.97365 -2.045,-23.80905 -14.16492,-49.33333 C 156.70904,123.1 153.8757,116.5 153.37257,114.66666 c -0.8286,-3.01931 -1.53297,-3.3144 -7.47701,-3.1324 -3.60923,0.11051 -9.61591,0.6276 -13.34819,1.14908 -6.34048,0.88589 -6.97508,0.70772 -9.66667,-2.71408 -1.58439,-2.01422 -2.8807,-4.75909 -2.8807,-6.09971 0,-3.22415 4.70662,-15.055406 7.79532,-19.595496 5.86746,-8.624574 9.53801,-14.473147 9.53801,-15.197643 0,-0.429139 -3.45,-0.696888 -7.66667,-0.594999 -4.21666,0.101893 -10.21146,-0.271005 -13.32177,-0.828655 -5.59184,-1.002566 -5.73458,-0.929865 -12.76049,6.499202 -5.780128,6.11181 -7.647423,7.341071 -10.011558,6.590723 -6.041856,-1.91761 -2.308641,-15.345121 6.035926,-21.709832 2.511752,-1.915811 5.767752,-5.837302 7.235552,-8.714423 2.13441,-4.183792 4.31918,-5.980668 10.9122,-8.974826 6.36173,-2.889115 8.82773,-3.431424 10.80294,-2.375718 1.4077,0.752388 5.3077,1.555018 8.66666,1.783623 12.43349,0.846201 17.72826,2.447572 20.53268,6.209969 2.28834,3.070045 2.46362,4.156469 1.13944,7.062737 -0.8607,1.889027 -1.56491,4.859192 -1.56491,6.600366 0,2.091069 -2.93451,6.188241 -8.64427,12.069134 -13.45534,13.85866 -20.74595,28.639618 -14.12629,28.639618 3.09896,0 11.19197,-9.096078 15.42191,-17.333332 1.96897,-3.834298 5.89665,-8.084685 10.88153,-11.775549 7.62603,-5.646398 7.97719,-5.75811 15.70361,-4.995724 9.93428,0.98024 14.62947,3.793814 30.21224,18.104607 26.74142,24.558568 34.57543,31.514958 40.5418,35.999998 32.8927,24.72609 54.00947,58.63635 54.00947,86.73077 0,7.70507 -0.18015,8.13212 -4.50756,10.68536 -4.92392,2.90518 -6.15911,6.38874 -6.15911,17.3703 0,8.76226 -2.03737,9.73486 -18.1359,8.65773 -13.95602,-0.93377 -15.99142,-1.4488 -17.09543,-4.32581 -1.91365,-4.9869 -2.36805,-20.27218 -0.74852,-25.17939 1.26335,-3.82796 1.30447,-5.2752 0.16073,-5.65644 -0.84533,-0.28179 -3.98862,-2.56063 -6.98508,-5.06409 -7.4975,-6.26399 -8.44009,-5.94334 -7.19677,2.44824 1.83868,12.40978 1.58216,17.55941 -0.89908,18.04936 -1.22836,0.24256 -5.86507,-2.03796 -10.30379,-5.0678 -4.4387,-3.02984 -8.68369,-5.12976 -9.43328,-4.6665 -0.74958,0.46327 -1.36288,4.6771 -1.36288,9.36404 0,10.17611 1.343,11.40244 11.35551,10.36907 5.27701,-0.54464 7.30556,-0.19663 9.05575,1.55356 2.90076,2.90076 2.87082,5.51152 -0.0779,6.79615 -3.00343,1.30844 -35.75824,1.48396 -86.7392,0.46481 z m 129.6285,-8.54821 c 2.40975,-1.82342 2.43368,-2.18332 0.41832,-6.29094 -1.17572,-2.39628 -2.45706,-5.40688 -2.84746,-6.69021 C 279.04385,220.96482 277.44018,220 275.58182,220 c -1.74269,0 -4.2545,-1.2 -5.58182,-2.66667 -1.32732,-1.46667 -3.39875,-2.66667 -4.60318,-2.66667 -1.86244,0 -2.11753,1.3457 -1.70608,9 0.2661,4.95 0.70784,9.70347 0.98167,10.56326 0.99528,3.12509 13.48076,3.9116 17.21689,1.08456 z m -73.2335,-1.96356 c 1.55812,-2.5211 1.14072,-19.68039 -0.57975,-23.83399 C 206.46289,205.62241 204,203.814 204,206.52401 c 0,2.4156 -4.42415,2.77107 -10.17756,0.81773 -10.01214,-3.39921 -10.04268,-3.37518 -14.74866,11.59847 -2.34276,7.45425 -3.95734,14.04217 -3.58798,14.63983 0.9697,1.56901 32.19198,1.35334 33.17,-0.22912 z m 82.65669,-21.25602 c 0.50037,-2.27822 2.2e-4,-6.4307 -1.20056,-9.96753 -1.15023,-3.38792 -1.70871,-7.81019 -1.26592,-10.02411 0.75871,-3.7935 -3.11953,-12.54582 -6.05981,-13.67565 -0.61207,-0.23519 -2.62708,-3.42761 -4.47779,-7.09428 -6.96219,-13.79359 -25.83141,-32.45044 -61.56863,-60.8757 -5.82645,-4.63434 -14.22645,-12.239109 -18.66666,-16.899492 -9.56067,-10.034733 -15.79738,-13.55814 -23.99898,-13.55814 -4.78089,0 -6.93526,0.806998 -10.38644,3.890628 -4.05302,3.621371 -4.35338,4.47492 -4.34008,12.333334 0.012,6.71394 0.76216,9.77394 3.66667,14.94398 2.0088,3.57569 3.65237,7.38868 3.65237,8.4733 0,1.81298 2.73995,6.32358 10.90048,17.94481 1.70474,2.42767 7.07111,8.91395 11.92528,14.41395 8.80686,9.97858 16.72524,23.74285 21.2917,37.01064 1.32709,3.85584 3.3135,8.29641 4.41424,9.86793 2.31282,3.30204 15.1634,10.69345 16.06242,9.23881 0.89508,-1.44826 -2.95389,-18.80769 -4.61345,-20.80734 -1.70001,-2.04839 -0.34241,-8.57583 1.83055,-8.80135 3.77396,-0.39169 5.76893,0.85308 12.78073,7.97459 4.11431,4.17868 9.86424,8.71542 12.77764,10.08168 2.91339,1.36625 7.39708,4.11585 9.96375,6.11021 6.06533,4.71292 12.54169,7.99149 15.78608,7.99149 1.42184,0 4.00162,1.18004 5.73288,2.62231 4.20257,3.50111 4.78883,3.38027 5.79353,-1.19407 z m -96.12181,-18.20396 c 2.63161,-6.85788 -0.82875,-21.06858 -6.79822,-27.91829 l -4.62413,-5.30599 0.85376,15.94926 c 0.46957,8.77208 1.49517,16.72208 2.27909,17.66666 1.99032,2.39819 7.31548,2.1466 8.2895,-0.39164 z M 146.42606,52.999999 c -0.23433,-1.65 -1.32606,-3 -2.42606,-3 -1.1,0 -2.19174,1.35 -2.42607,3 -0.32792,2.308927 0.23095,3 2.42607,3 2.19512,0 2.75398,-0.691073 2.42606,-3 z M 125.33333,52.5689 c 0,-1.241652 -0.90716,-1.92183 -2.22284,-1.666666 -3.34503,0.648734 -3.80433,3.764432 -0.55494,3.764432 1.63779,0 2.77778,-0.860919 2.77778,-2.097766 z"
       id="path944" />
  </g>
</svg>
