<?xml version="1.0" encoding="UTF-8" standalone="no"?>
<!-- Created with Inkscape (http://www.inkscape.org/) -->

<svg
   version="1.1"
   id="svg55"
   width="196"
   height="212"
   viewBox="0 0 196 212"
   xmlns="http://www.w3.org/2000/svg"
   xmlns:svg="http://www.w3.org/2000/svg">
  <defs
     id="defs59" />
  <g
     id="g61">
    <path
       style="fill:#000000;stroke-width:1.33333"
       d="m 104,205.353 c -1.1,-0.71991 -4.01624,-0.93964 -6.480533,-0.48829 -2.999016,0.54928 -7.530487,-0.19795 -13.70447,-2.25983 -15.139977,-5.0562 -25.050217,-15.63015 -28.614786,-30.53117 -2.290564,-9.57528 -2.289828,-14.34602 0.0036,-23.00866 4.278925,-16.16254 13.038778,-25.28342 31.690252,-32.99635 12.977962,-5.36676 15.164507,-5.1063 35.424307,4.21973 5.70226,2.62488 15.23469,12.22466 18.24929,18.37824 3.18794,6.50737 5.22047,21.21104 3.6581,26.46325 -0.79679,2.67855 -1.80359,7.67532 -2.23732,11.10393 -0.68842,5.44175 -1.89512,7.3513 -9.49679,15.02815 C 120.98842,202.87893 109.15899,208.72939 104,205.353 Z M 105.44238,196 c 2.10307,0 1.33989,-3.30837 -1.2808,-5.55228 -1.3778,-1.17971 -2.83212,-2.96305 -3.23183,-3.96299 -0.59614,-1.49134 -0.980915,-1.45865 -2.141158,0.18194 -3.080208,4.35542 -0.469125,11.59685 3.616268,10.02914 C 103.40214,196.31311 104.76903,196 105.44238,196 Z M 90.069148,184.66667 c 1.788511,-4.4 3.254616,-8.9165 3.258011,-10.03666 0.0087,-2.88125 3.813761,-7.96334 5.962257,-7.96334 0.992684,0 4.236624,3.75 7.208754,8.33333 7.98099,12.30749 10.30863,14.68015 13.42978,13.68953 3.3702,-1.06965 8.07205,-6.95968 8.07205,-10.11188 0,-2.71085 -6.57714,-7.91098 -10.00583,-7.91098 -2.68848,0 -11.32887,-8.29119 -11.32434,-10.86667 0.003,-1.72992 10.90797,-8.02455 16.87643,-9.74155 1.58378,-0.45561 3.56923,-1.65936 4.41213,-2.67498 2.18787,-2.63622 -0.57062,-12.06051 -4.29331,-14.66799 -3.24062,-2.26981 -8.99841,-2.76551 -8.99841,-0.77469 0,0.70076 -1.48444,3.55077 -3.29876,6.33333 -8.38384,12.85804 -10.15911,14.92773 -12.14921,14.16405 -1.114427,-0.42764 -4.362841,-5.42482 -7.2187,-11.10484 -2.855859,-5.68001 -6.269631,-10.74065 -7.586163,-11.24585 -1.775826,-0.68145 -4.031069,0.7979 -8.737098,5.73119 -3.488874,3.65736 -6.339612,7.14434 -6.334975,7.74886 0.0085,1.11247 6.981845,5.75007 10.658236,7.08826 1.1,0.40038 4.25,2.1259 7,3.83446 7.769781,4.82734 6.438301,8.71914 -5,14.61459 -2.933333,1.51187 -7.133333,4.24104 -9.333333,6.06481 l -4,3.31596 7.322921,7.45944 c 4.027607,4.1027 8.111501,7.29343 9.075323,7.09052 0.96382,-0.20289 3.215726,-3.9689 5.004237,-8.3689 z M 73.059039,164.37355 c 6.26463,-4.06207 5.852606,-5.30388 -2.717932,-8.19174 -6.322258,-2.13029 -7.67444,-1.24792 -7.67444,5.00799 0,8.06687 1.943321,8.66221 10.392372,3.18375 z m 60.274291,-3.04022 c 0,-4.77949 -3.58157,-5.47897 -7.2573,-1.41734 -2.97871,3.29144 -1.66959,5.41734 3.33599,5.41734 3.46813,0 3.92131,-0.46228 3.92131,-4 z m -27.51666,-33.60271 c 1.98999,-3.17507 0.56067,-4.04731 -4.94092,-3.01521 -4.265742,0.80026 -4.573615,1.14011 -3.136246,3.46196 1.869041,3.01915 6.049836,2.78791 8.077166,-0.44675 z M 63.759683,40.165825 C 61.060621,39.162867 54.625672,29.972611 53.37408,25.333333 52.742305,22.991529 51.552763,22 49.375068,22 c -2.431625,0 -4.007704,1.724312 -7.31226,8 -3.360264,6.381483 -4.938129,8.085253 -7.799065,8.421388 C 29.990676,38.923437 22.957076,32.138569 21.763539,26.363235 21.350171,24.363015 20.1155,21.982475 19.019827,21.073145 17.383768,19.715339 16.578364,19.974717 14.513845,22.524289 13.131231,24.231747 12,26.628783 12,27.851037 12,30.953055 8.2371599,36 5.9243947,36 3.4162756,36 3.4723005,29.122991 6.0384487,22 7.0952192,19.066667 7.9688836,15.662701 7.9799249,14.435633 8.0059847,11.539492 14.355492,4 16.768465,4 c 1.764064,0 5.518347,4.8764424 12.180766,15.821607 1.622077,2.664782 3.667133,4.84506 4.544569,4.84506 0.877436,0 3.640129,-4.084075 6.139317,-9.075722 4.200994,-8.3906734 8.492756,-12.3849711 11.43791,-10.6451411 0.589065,0.3479861 2.4975,3.7275382 4.240968,7.5101161 4.249508,9.219611 7.826734,13.493217 10.45144,12.486024 1.157562,-0.444199 3.382828,-3.77882 4.945036,-7.410269 C 74.244337,9.3123293 78.810307,4.7760387 82.400591,5.9155508 85.383811,6.8623879 92,15.769773 92,18.839249 c 0,1.116086 1.409945,3.353822 3.133212,4.972747 3.646588,3.425792 4.103359,3.069637 9.271348,-7.229081 6.39207,-12.7380597 9.90805,-12.7059219 18.93741,0.173097 3.21481,4.585437 6.53718,7.910655 7.90387,7.910655 1.41636,0 3.59072,-2.305115 5.44564,-5.773095 C 141.11312,10.626801 143.88991,8 148.20704,8 c 3.19341,0 4.37389,1.0750996 7.46001,6.7941 2.01646,3.736755 4.71628,8.086755 5.99962,9.666667 L 164,27.333333 l 2.68357,-3.168598 c 1.47598,-1.74273 3.05327,-4.74273 3.5051,-6.666667 1.01886,-4.338467 6.89954,-10.8314013 9.81004,-10.8314013 2.21932,0 8.00129,6.7439173 8.00129,9.3324613 0,0.792241 1.23472,3.860695 2.74383,6.818784 3.43317,6.729576 3.08445,13.848755 -0.67838,13.848755 -1.96249,0 -3.38253,-2.046186 -5.78329,-8.333334 C 182.532,23.75 180.30455,20 179.33225,20 c -0.97229,0 -3.96058,4.437849 -6.64065,9.861888 -6.24937,12.647745 -9.50732,13.818111 -15.44596,5.5487 -2.19995,-3.063356 -5.03019,-7.633931 -6.28943,-10.156831 -1.25925,-2.5229 -3.12462,-4.58709 -4.14529,-4.58709 -1.02065,0 -3.92101,3.895709 -6.44523,8.65713 -6.67632,12.593546 -8.85834,13.38486 -15.85253,5.74898 C 122.03092,32.362804 120,29.167393 120,27.971863 c 0,-1.195531 -1.46513,-3.550115 -3.25585,-5.232408 l -3.25586,-3.058716 -2.41081,4.053465 c -1.32595,2.229405 -4.04604,6.80124 -6.04465,10.159631 -5.893034,9.902414 -11.814221,8.2219 -18.35791,-5.210227 -2.326703,-4.775984 -4.930392,-8.683465 -5.785977,-8.683291 -0.855586,1.74e-4 -3.5806,4.219198 -6.05559,9.375608 -4.657288,9.703028 -7.236224,12.215878 -11.07367,10.7899 z"
       id="path163" />
  </g>
</svg>
