<?xml version="1.0" encoding="UTF-8" standalone="no"?>
<!-- Created with Inkscape (http://www.inkscape.org/) -->

<svg
   version="1.1"
   id="svg273"
   width="326.66666"
   height="194.66667"
   viewBox="0 0 326.66666 194.66667"
   xmlns="http://www.w3.org/2000/svg"
   xmlns:svg="http://www.w3.org/2000/svg">
  <defs
     id="defs277" />
  <g
     id="g279">
    <path
       style="fill:#000000;stroke-width:1.33333"
       d="m 247.20838,187.01791 c -4.07216,-4.07216 0.29807,-17.77984 7.94105,-24.90801 11.08883,-10.34188 28.85192,-13.93948 42.85056,-8.67862 15.71682,5.90658 28.79308,26.76976 21,33.50551 -3.51016,3.03393 -68.76508,3.10767 -71.79161,0.0811 z m 61.83677,-8.14492 c 4.23555,-2.68753 -3.87882,-12.39967 -14.21106,-17.00931 -8.43363,-3.7626 -10.69174,-3.88746 -20.04882,-1.10872 -10.6531,3.16364 -22.71648,16.10322 -17.11861,18.362 2.81281,1.135 49.55504,0.91304 51.37849,-0.24397 z M 139.50473,164.33334 c -1.01144,-3.49647 -2.07163,-16.85927 -3.54795,-44.71935 -1.33221,-25.14072 -0.80441,-30.309328 3.09012,-30.260238 5.8173,0.07332 6.1882,2.423899 8.39579,53.207768 0.82295,18.93127 0.70169,20.70202 -1.52928,22.33334 -3.31351,2.4229 -5.60341,2.22226 -6.40868,-0.56152 z m 34.66667,0 c -1.01144,-3.49647 -2.07163,-16.85927 -3.54795,-44.71935 -1.33221,-25.14072 -0.80441,-30.309328 3.09012,-30.260238 5.81729,0.07332 6.1882,2.423899 8.39579,53.207768 0.82294,18.93127 0.70169,20.70202 -1.52928,22.33334 -3.31351,2.4229 -5.60342,2.22226 -6.40868,-0.56152 z M 7.4259278,135.23546 C 5.6613976,133.47092 5.3333332,128.87662 5.3333332,105.93017 V 78.717473 L 8.5908858,77.89988 c 1.7916542,-0.449677 3.8916542,-0.425697 4.6666662,0.05329 0.917224,0.566868 1.409114,10.601223 1.409114,28.74528 0,26.17555 -0.15688,27.95835 -2.574072,29.25199 -1.943015,1.03988 -3.0870898,0.86459 -4.6666662,-0.71498 z M 272.31433,133.511 c -11.24611,-5.84683 -14.69427,-19.60717 -7.8429,-31.29816 l 3.64098,-6.212838 -3.05622,-0.02041 c -4.56168,-0.03048 -6.67641,-1.902261 -6.17285,-5.463702 0.39201,-2.772536 1.26324,-3.234794 6.76257,-3.588089 3.47192,-0.223046 10.37192,0.1478 15.33334,0.824105 4.96141,0.676305 12.19833,0.812826 16.08205,0.303382 7.90563,-1.037016 11.52861,0.548787 10.73672,4.699518 -0.27063,1.418566 -1.78673,2.763833 -3.3702,2.990437 l -2.87825,0.4119 2.95578,6.921427 c 4.56654,10.69322 3.15604,18.19717 -4.84062,25.75267 -5.31408,5.0209 -6.97799,5.83798 -11.92046,5.85363 -3.15936,0.0107 -6.94428,0.25912 -8.41094,0.55356 -1.46667,0.29446 -4.62522,-0.48289 -7.019,-1.72742 z m 21.86156,-11.60593 c 5.23534,-5.55108 5.44368,-7.4119 1.76172,-15.73558 -2.5926,-5.861 -2.99702,-6.16949 -8.08767,-6.16949 -9.54452,0 -15.76948,5.27727 -15.82029,13.41183 -0.0336,5.37699 1.85496,8.5473 6.65972,11.17963 6.01968,3.29792 10.59034,2.50507 15.48652,-2.68639 z M 142.22222,63.111112 c -0.48889,-0.488888 -0.88889,-2.588888 -0.88889,-4.666667 0,-3.48538 -0.39216,-3.777777 -5.06667,-3.777777 -2.78666,0 -5.74026,-0.673602 -6.56355,-1.496892 -2.12894,-2.12894 0.65572,-7.746685 4.19214,-8.457175 8.0528,-1.617862 22.2778,-1.588907 30.06123,0.06119 13.57596,2.878126 39.36896,1.767431 42.98752,-1.851121 0.62734,-0.627349 1.76658,-6.747184 2.53164,-13.599633 1.61742,-14.486974 4.25577,-20.9292397 9.92024,-24.2231542 3.8567,-2.2426888 4.29448,-2.2459553 8.64009,-0.064468 7.50471,3.7673523 10.27081,9.3333252 11.25809,22.6535802 1.31502,17.741988 1.5758,18.551647 6.27845,19.492178 8.42879,1.685757 32.25383,0.771796 37.76082,-1.448556 2.93333,-1.182686 9.53333,-2.394479 14.66666,-2.692875 7.85578,-0.456647 10.54704,-0.0041 17,2.858715 6.86851,3.047153 7.66667,3.81679 7.66667,7.392662 0,5.054826 -4.51212,6.55819 -10.45685,3.484051 -5.29807,-2.739737 -5.99855,-2.660639 -5.15068,0.58162 1.2565,4.804911 -2.04131,6.463813 -9.9857,5.023112 -3.8904,-0.705516 -7.76304,-1.852952 -8.60588,-2.549859 -0.85897,-0.710238 -12.57838,-1.220933 -26.66666,-1.162046 -13.82383,0.05777 -25.86881,0.08112 -26.76665,0.05187 -1.62967,-0.05311 -6.06118,-7.248486 -5.07288,-8.236776 1.01932,-1.019325 -1.86974,-27.820511 -3.28375,-30.462618 -0.79096,-1.477922 -2.29588,-2.687131 -3.34428,-2.687131 -3.64881,0 -5.21581,5.802638 -5.40101,20 -0.19519,14.962914 -0.8574,17.907171 -4.36875,19.423732 -1.22663,0.529787 -14.35704,1.103224 -29.17868,1.274304 -24.75136,0.285695 -27.33933,0.541684 -31.74288,3.139843 -4.82765,2.848383 -8.77619,3.5835 -10.41979,1.939899 z"
       id="path301" />
  </g>
</svg>
