<?xml version="1.0" encoding="UTF-8" standalone="no"?>
<!-- Created with Inkscape (http://www.inkscape.org/) -->

<svg
   version="1.1"
   id="svg263"
   width="217.33333"
   height="150.66667"
   viewBox="0 0 217.33333 150.66667"
   xmlns="http://www.w3.org/2000/svg"
   xmlns:svg="http://www.w3.org/2000/svg">
  <defs
     id="defs267" />
  <g
     id="g269">
    <path
       style="fill:#000000;stroke-width:1.33333"
       d="m 73.311268,138.62342 c -1.50861,-2.95712 -4.235096,-11.20712 -6.058854,-18.33333 -3.906815,-15.2656 -5.503452,-19.67702 -8.914824,-24.631129 -3.396036,-4.93184 -2.563863,-8.144768 2.329076,-8.992292 4.311945,-0.746888 6.212673,-4.877657 3.13119,-6.804877 -0.988821,-0.618429 -5.097857,-1.806957 -9.13119,-2.641173 -4.033333,-0.834216 -7.933333,-1.884267 -8.666667,-2.333447 -0.733333,-0.449178 -1.933333,-0.852617 -2.666666,-0.896529 -0.733334,-0.04391 -5.101496,-0.570791 -9.70703,-1.170841 -13.476914,-1.755895 -14.951755,-5.613613 -5.34095,-13.970229 l 5.1567,-4.483761 -8.046915,-7.849572 c -4.425804,-4.317264 -8.576798,-7.849572 -9.224434,-7.849572 -0.647635,0 -1.924452,0.9 -2.837371,2 C 11.229124,43.202084 5.4811803,43.27005 4.522149,40.770856 3.241554,37.433678 6.3308594,33.850821 16.284974,27.128783 27.451885,19.587742 32.33612,17.156298 47.254413,11.711741 63.918355,5.6300947 70.876966,4.8960586 110,5.0929593 132.74428,5.2074273 136.88296,5.4752732 143.33333,7.2502119 147,8.259162 158.1,10.381699 168,11.966962 c 9.9,1.585262 19.8,3.657493 22,4.604958 2.2,0.947466 5.8,2.270832 8,2.940815 2.68386,0.817336 4,2.085009 4,3.852708 0,3.191646 -4.64319,4.176234 -9.79326,2.076664 -5.64665,-2.302008 -27.68985,-6.844564 -42.44021,-8.745871 -7.46173,-0.96181 -14.06173,-2.049705 -14.66667,-2.417544 -2.51513,-1.52938 -20.75502,-2.924332 -34.43319,-2.633386 -29.250704,0.622187 -47.419491,3.923072 -59.707225,10.84754 -2.772306,1.562268 -5.876271,2.840488 -6.8977,2.840488 C 31.753768,25.333334 24,31.733219 24,33.638202 c 0,1.513145 1.53658,2.866152 10.465161,9.214902 4.778934,3.398105 6.30281,3.878297 8.666666,2.730976 9.041068,-4.388172 22.414444,-8.622655 31.959971,-10.119654 19.334301,-3.032144 53.535862,-1.158152 95.574862,5.236795 6.96667,1.059764 17.37799,2.538021 23.13628,3.285015 12.24626,1.588645 12.86372,1.870418 12.86372,5.870232 0,4.468336 -0.93282,4.784804 -7.50398,2.545784 -5.47652,-1.866038 -6.16463,-1.845463 -8.48414,0.253666 -1.98382,1.795342 -3.32574,2.009062 -6.26806,0.998283 -4.13552,-1.420687 -12.27403,0.957702 -17.07715,4.9906 -3.84313,3.226854 -16.78312,9.188277 -22.10955,10.185813 -2.50641,0.469404 -6.65712,1.952086 -9.22378,3.29485 -7.17718,3.754778 -21.95167,7.510558 -36.666668,9.320928 -7.333333,0.902214 -13.842936,2.085465 -14.465783,2.629447 -2.411272,2.105963 0.581334,6.315731 5.0911,7.161768 2.493918,0.467863 6.457803,2.480799 8.808633,4.473194 2.350828,1.992393 6.139898,5.158309 8.420148,7.035369 7.03073,5.78757 35.50703,19.36276 48.1459,22.95206 6.6,1.87433 17.0142,3.77839 23.14265,4.23125 10.34458,0.76441 11.56166,0.57783 16.99258,-2.6049 6.12256,-3.58806 9.86477,-9.02227 9.86477,-14.32503 0,-6.28079 -5.74837,-8.36421 -10.02851,-3.63471 -1.87194,2.06847 -2.07576,3.06423 -0.87332,4.26667 0.86267,0.86267 1.5685,2.61308 1.5685,3.8898 0,5.73204 -7.08,4.36949 -9.2219,-1.77475 -2.22385,-6.37937 -1.78182,-8.53771 2.65779,-12.97733 3.28169,-3.281681 5.21588,-4.098476 9.66667,-4.082144 6.63221,0.02433 8.43186,1.010326 11.04802,6.052984 3.13339,6.03962 3.7197,14.06049 1.4286,19.54386 -2.57264,6.15718 -11.4126,12.31367 -16.3309,11.37347 -1.90816,-0.36476 -6.25051,0.17379 -9.64966,1.19678 -4.95436,1.49104 -8.30453,1.57133 -16.88945,0.40476 -11.24592,-1.52816 -32.38383,-7.97789 -38.02253,-11.60168 -1.82235,-1.17115 -6.53984,-3.8266 -10.48331,-5.90098 -3.94347,-2.07439 -8.94849,-5.26816 -11.12227,-7.09728 -2.17378,-1.82911 -4.48211,-3.32566 -5.12962,-3.32566 -0.64751,0 -3.39786,-2.4 -6.111878,-5.33334 -2.714021,-2.93333 -5.757035,-5.333331 -6.762254,-5.333331 -1.005217,0 -2.171709,-0.896554 -2.592203,-1.992342 -0.420493,-1.095788 -1.311173,-1.6545 -1.979289,-1.241581 -1.216527,0.751855 -0.587233,26.127374 0.949151,38.273354 C 88.434679,141.45127 86.720205,144 80.530504,144 c -3.885995,0 -4.838032,-0.70904 -7.219236,-5.37658 z m 5.329804,-24.30456 c -0.87494,-8.97537 -1.799156,-19.560902 -2.053813,-23.523401 -0.545497,-8.488005 -3.253927,-12.740547 -3.253927,-5.109036 0,3.521815 -0.744708,5.284978 -2.666666,6.313579 -3.591444,1.922083 -3.356918,5.298536 1.296573,18.666668 2.169844,6.23333 3.965779,12.3551 3.990965,13.60393 0.06457,3.20168 3.174453,9.67676 3.777989,7.86615 0.274823,-0.82447 -0.216181,-8.84252 -1.091121,-17.81789 z M 106,74.175255 c 4.4,-0.952087 9.9202,-2.731009 12.26712,-3.95316 2.34691,-1.222152 5.716,-2.222093 7.48685,-2.222093 1.77086,0 4.74529,-1.200001 6.60986,-2.666667 1.86455,-1.466667 4.83859,-2.666667 6.60895,-2.666667 1.77036,0 5.57572,-1.783308 8.45636,-3.962907 2.88064,-2.179598 5.89534,-3.979598 6.69934,-4 2.39858,-0.06086 9.87152,-4.14074 9.87152,-5.389393 0,-1.92808 -1.5726,-2.32723 -12.43938,-3.157302 -5.74165,-0.438582 -10.8762,-1.067398 -11.41009,-1.397366 -0.53391,-0.329968 -4.75368,-0.95334 -9.37728,-1.38527 -9.03533,-0.844065 -12.10659,0.384262 -12.10659,4.841948 0,4.596711 -5.11812,12.722429 -10.89563,17.298302 -5.03239,3.98573 -6.57182,4.485322 -13.820894,4.485322 -6.891796,0 -8.921771,-0.582774 -13.08136,-3.755446 -5.680721,-4.332897 -8.480472,-8.238241 -10.937541,-15.256663 -1.66268,-4.749313 -2.009861,-4.975408 -7.25842,-4.726883 -3.784345,0.179194 -7.750204,1.746503 -12.651805,5 -3.926775,2.606446 -7.683321,4.738991 -8.347883,4.738991 -0.66456,0 -2.662878,1.55097 -4.440709,3.446599 l -3.232419,3.4466 3.147712,2.5534 c 1.731242,1.404371 4.259228,2.553402 5.617747,2.553402 1.35852,0 7.442049,1.167838 13.518954,2.595198 C 79.220148,75.982403 93.046951,76.978082 106,74.175255 Z m -2.28699,-15.606047 c 3.84527,-2.827849 6.05854,-5.722477 7.14296,-9.341931 0.8642,-2.884457 1.27454,-5.541208 0.91186,-5.903888 -1.73607,-1.736071 -22.228149,-3.537384 -27.767831,-2.440873 -5.13808,1.01702 -6.05938,1.6966 -6.413354,4.730693 -0.610517,5.233056 3.125394,11.327659 8.770871,14.308419 6.972037,3.681169 10.930291,3.372724 17.355494,-1.35242 z"
       id="path440" />
  </g>
</svg>
