<?xml version="1.0" encoding="UTF-8" standalone="no"?>
<!-- Created with Inkscape (http://www.inkscape.org/) -->

<svg
   version="1.1"
   id="svg253"
   width="286.66666"
   height="210.66667"
   viewBox="0 0 286.66666 210.66667"
   xmlns="http://www.w3.org/2000/svg"
   xmlns:svg="http://www.w3.org/2000/svg">
  <defs
     id="defs257" />
  <g
     id="g259">
    <path
       style="fill:#000000;stroke-width:1.33333"
       d="m 50.666665,206.66667 c -15.633092,-0.62532 -16.691327,-0.83928 -17.064342,-3.45001 -0.632322,-4.42563 2.683287,-5.9366 14.313208,-6.52275 C 72.081962,195.47594 76.41749,193.45455 83.72107,180 c 5.763911,-10.61818 7.920128,-25.61262 4.308852,-29.96394 -2.173181,-2.61852 -4.029924,-2.60462 -4.029924,0.0302 0,3.05681 -2.601809,1.22913 -16.423756,-11.53715 C 47.040914,119.5622 31.938811,103.58271 29.27247,98.000002 23.986378,86.932137 26.910605,77.710069 40.512787,62.551666 c 3.017967,-3.363249 6.365591,-7.863249 7.439164,-10 1.073573,-2.136749 3.023573,-5.477621 4.333333,-7.424159 3.915443,-5.81905 3.140515,-8.699465 -2.618618,-9.73344 -9.972348,-1.7904 -32.571385,-2.356014 -34.074573,-0.852826 -3.133582,3.133582 -10.2587598,0.791568 -10.2587598,-3.37201 0,-2.728845 8.0156908,-9.835411 11.1025638,-9.843333 6.842474,-0.01756 12.759306,-2.787642 15.529962,-7.270658 5.3151,-8.6000131 19.62189,-12.5177704 32.700806,-8.9547567 5.192739,1.4146279 11.623788,11.5146647 11.799176,18.5307437 0.161727,6.469632 -8.098617,23.614552 -15.600909,32.38077 -12.941582,15.121879 -15.5316,18.555355 -15.5316,20.589578 0,2.901502 1.242618,3.192234 16.755585,3.920264 12.51892,0.587518 28.741925,3.808276 41.244413,8.188266 19.0692,6.680505 17.42888,5.811562 43.67785,23.137855 15.51636,10.24196 29.58736,17.48538 33.96696,17.48538 1.40075,0 5.2037,0.84998 8.451,1.88885 3.24731,1.03887 7.55419,2.25029 9.57086,2.69207 8.27156,1.81196 0.65864,8.75241 -9.60046,8.75241 -8.69106,0 -6.22462,1.93421 4.67855,3.66899 11.99536,1.90854 12.58857,2.21058 12.58857,6.4097 0,3.235 -0.0809,3.25464 -13.41613,3.25464 -8.24464,0 -16.08251,0.7958 -20.33333,2.06451 -7.27914,2.17253 -20.68364,8.52145 -21.82134,10.33547 -0.36792,0.58665 -1.14297,6.26736 -1.72233,12.62378 -0.8502,9.32784 -0.65239,12.39804 1.02551,15.9166 1.14338,2.39772 1.737,4.70138 1.31914,5.11923 -1.60942,1.60943 -44.8226,3.86155 -50.05152,2.60852 -2.121654,-0.50843 -2.999996,-1.69707 -2.999996,-4.05984 0,-4.78476 4.260126,-5.9416 21.880146,-5.9416 18.12577,0 19.45319,-0.83464 19.45319,-12.23167 0,-9.64601 0.79926,-8.94494 -23.87963,-20.94578 -12.12657,-5.8969 -17.02289,-5.49163 -13.48646,1.11626 1.01741,1.90103 0.3281,3.70379 -3.165782,8.27959 -2.456504,3.21719 -6.648211,10.18199 -9.314907,15.47733 -4.19559,8.33134 -4.622159,9.99862 -3.167546,12.38063 1.431579,2.34429 1.307462,3.02975 -0.83653,4.61985 -1.686591,1.25087 -3.265736,1.4667 -4.784436,0.65391 -2.396262,-1.28244 -6.933689,-0.53621 -11.364711,1.86903 -1.714922,0.93089 -8.615067,1.20958 -19.333333,0.78085 z M 137.5781,160.33334 c 0.41894,-3.64094 0.49678,-3.668 11.08856,-3.85634 10.68312,-0.18994 21.27639,-2.22749 22.58444,-4.34394 0.78068,-1.26319 -7.83796,-2.31531 -28.58444,-3.48943 -18.43321,-1.04321 -25.25807,-2.64421 -37.63707,-8.829 -5.667051,-2.83139 -11.143584,-5.14796 -12.170069,-5.14796 -1.026486,0 -2.609696,-0.89569 -3.518248,-1.99043 -0.908551,-1.09474 -4.095776,-2.6485 -7.082723,-3.4528 -6.263442,-1.68657 -14.258552,-9.0073 -14.258552,-13.05586 0,-4.34 7.041004,-7.30501 14.878331,-6.26535 7.582484,1.00585 8.515942,-0.77778 2.121669,-4.05403 -5.047619,-2.58627 -6.704376,-4.67716 -5.031539,-6.349993 2.391379,-2.391379 20.031539,6.712243 20.031539,10.337753 0,0.9099 -0.798984,2.74704 -1.77552,4.08253 -1.458539,1.99467 -3.481855,2.39309 -11.333333,2.2317 -6.954194,-0.14294 -9.543648,0.26385 -9.505813,1.49334 0.08005,2.60163 10.580513,9.60359 17.281332,11.52361 3.3,0.94557 9.599996,3.42308 13.999996,5.50557 11.03216,5.22145 20.6836,7.68927 34,8.69359 9.85438,0.74322 12.63319,0.42994 21.29419,-2.40068 l 9.96085,-3.25544 -8.44833,-5.18842 C 154.18512,125.58925 141.85909,117.72045 135.33333,113.28071 130.45657,109.96284 118.4409,103.19913 106.66666,97.14401 97.12616,92.237629 86.30525,90.220151 65.333332,89.437715 52.621048,88.963436 43.545735,88.025185 41.75432,87.000001 29.088231,79.751495 34.350493,97.60182 49.460136,113.1392 c 4.36042,4.48386 10.465697,9.33287 13.567283,10.77559 3.101585,1.44271 7.922637,4.75209 10.713447,7.35416 2.790811,2.60208 5.335619,4.73105 5.655129,4.73105 0.319511,0 3.274118,2.05576 6.565794,4.56835 3.291676,2.5126 7.346867,4.961 9.011537,5.44089 1.664669,0.4799 5.726674,2.12599 9.026674,3.65796 12.44228,5.77616 31.36792,14.12707 32.24477,14.22795 0.50129,0.0576 1.10129,-1.54515 1.33333,-3.56181 z M 66.188349,27.323294 C 67.540202,23.800422 65.26492,15.810376 61.97224,12.517696 55.969172,6.5146281 43.909867,9.8166242 39.303296,18.724751 c -2.024554,3.915056 -2.007769,4.291025 0.268602,6.016559 3.177716,2.408772 8.428101,2.451138 8.428101,0.06801 0,-1.021541 -0.940183,-2.218131 -2.089295,-2.659087 -3.41813,-1.31166 -1.934453,-8.052505 1.891579,-8.594072 6.144057,-0.869677 9.531049,0.869476 9.531049,4.894007 0,2.865827 -1.00636,4.24956 -4.333333,5.958287 l -4.333333,2.225589 5.651321,-0.2657 c 3.108226,-0.146135 6.378226,0.461205 7.266666,1.349645 2.164492,2.164492 3.671215,2.035315 4.603696,-0.394694 z M 220.72225,56.350506 c -13.54533,-0.708101 -14.61872,-2.433152 -9.68159,-15.559444 3.09356,-8.22482 7.9932,-13.288575 17.83028,-18.427498 7.97099,-4.16407 10.48217,-4.808281 19.79572,-5.078344 13.86536,-0.402052 12.71645,-0.706432 19.05451,5.048114 12.59174,11.432503 19.78594,27.762829 14.25346,32.354376 -2.04976,1.701155 -40.53408,2.745875 -61.25238,1.662796 z m 40.27774,-9.241821 c 11.52943,-0.754746 12.33334,-0.996479 12.33334,-3.708574 0,-3.594362 -5.4452,-8.826182 -13.27358,-12.75342 -12.63966,-6.340907 -31.37156,-2.455847 -38.39309,7.962864 -3.60533,5.349679 -3.79423,7.706391 -0.66667,8.317507 4.48564,0.876479 27.77039,0.982204 40,0.181623 z"
       id="path579" />
  </g>
</svg>
