<?xml version="1.0" encoding="UTF-8" standalone="no"?>
<!-- Created with Inkscape (http://www.inkscape.org/) -->

<svg
   version="1.1"
   id="svg243"
   width="222.66667"
   height="208"
   viewBox="0 0 222.66667 208"
   xmlns="http://www.w3.org/2000/svg"
   xmlns:svg="http://www.w3.org/2000/svg">
  <defs
     id="defs247" />
  <g
     id="g249">
    <path
       style="fill:#000000;stroke-width:1.33333"
       d="m 6.7135785,200.08765 c -0.7858821,-1.46842 -1.3802451,-11.73304 -1.3802451,-23.83673 0,-23.00472 0.1809925,-23.60992 7.4604106,-24.94584 7.527435,-1.38144 7.888459,-0.25788 7.716622,24.01523 -0.13589,19.19526 -0.467584,22.42244 -2.539983,24.71242 -3.100584,3.4261 -9.4360601,3.45702 -11.2568045,0.0549 z m 100.5016915,1.05464 c -0.56786,-0.91881 -1.27847,-12.25398 -1.57914,-25.18926 -0.47929,-20.62031 -0.27342,-23.79192 1.67051,-25.73586 3.24368,-3.24368 8.49128,-2.8334 10.01267,0.78283 1.9507,4.63665 3.61156,44.96001 1.98691,48.23951 -1.60107,3.2319 -10.4125,4.61858 -12.09095,1.90278 z m 99.20005,-2.0456 c -1.23822,-0.32669 -2.43822,-1.90709 -2.66666,-3.512 -0.89202,-6.26725 0.99329,-44.86836 2.25134,-46.09546 2.00828,-1.95887 7.77568,-2.99595 9.69036,-1.74251 2.65783,1.73997 3.36939,16.83719 1.58298,33.58661 -1.89498,17.76736 -3.13759,19.80024 -10.85802,17.76336 z M 81.426789,105.81597 c -2.930074,-3.72499 -2.281813,-7.574106 2.820863,-16.74919 2.593699,-4.663711 4.573797,-6.180109 12.419016,-9.510725 17.977822,-7.632322 37.077772,-4.755898 47.829962,7.203118 8.25724,9.184032 9.71368,19.088137 3.02297,20.556717 -1.56912,0.34441 -16.50858,0.87669 -33.19881,1.18285 l -30.345873,0.55665 z M 122,101.09954 c 1.46667,0.17085 7.37277,0.64271 13.12467,1.04858 l 10.458,0.73794 -0.98432,-3.109695 c -1.41299,-4.463996 -4.71064,-8.553816 -8.92436,-11.06822 -4.46086,-2.661869 -17.01943,-6.041478 -22.45003,-6.041478 -8.69591,0 -26.643908,13.043162 -24.747688,17.984633 0.729055,1.89988 2.6395,2.03843 15.843038,1.14899 8.25772,-0.55627 16.21403,-0.87161 17.68069,-0.70075 z M 45.882839,53.120228 c -2.868894,-1.318144 -7.616172,-2.998743 -10.549505,-3.734663 -3.431864,-0.860992 -8.066696,-3.870664 -13,-8.44167 -7.247788,-6.715518 -7.666667,-7.447587 -7.666667,-13.398944 0,-8.459588 2.991768,-9.715892 8.178237,-3.43421 9.167051,11.102832 15.01391,14.898498 29.645557,19.245312 9.484724,2.817752 20.597189,2.017972 29.87957,-2.150474 6.553348,-2.942916 12.296637,-7.425712 12.296637,-9.597863 0,-0.773101 -5.811795,-0.897644 -15.025079,-0.321976 -14.014304,0.875647 -15.188447,0.758284 -17.453511,-1.744584 -1.570812,-1.735728 -2.11882,-3.658885 -1.551737,-5.445604 0.878453,-2.767763 2.880687,-3.291351 10.696993,-2.797287 2.2,0.139062 27.100001,0.39333 55.333336,0.56504 47.03359,0.286054 57.34312,-0.267341 57.32953,-3.077325 C 183.99411,18.353691 180.54411,16.2 176.32954,14 c -5.44064,-2.840005 -7.66287,-4.7733303 -7.66287,-6.6666667 0,-2.0053021 1.02297,-2.7664294 4.12469,-3.068917 3.1327,-0.3055078 5.5044,0.7504594 9.86143,4.390654 8.05471,6.7295187 8.85856,7.0447747 22.14179,8.6836177 13.68302,1.688165 16.63628,3.496383 13.9397,8.534981 -1.49381,2.7912 -3.06992,3.426146 -10.47245,4.21889 -5.74247,0.614965 -9.54007,0.417289 -11.13648,-0.579686 -2.99761,-1.872041 -10.79136,-1.98019 -12.59676,-0.174797 -0.73593,0.735941 -4.90593,2.254053 -9.26667,3.373583 -11.68386,2.999601 -16.03006,5.405002 -24.2284,13.409206 -8.17632,7.982698 -11.85436,9.051992 -13.16561,3.827552 -0.7078,-2.820097 0.17791,-4.355445 5.30793,-9.201217 3.38663,-3.198967 6.1575,-6.405808 6.1575,-7.126315 0,-2.116845 -6.56867,-2.767564 -15.2515,-1.510874 -4.44501,0.643337 -11.95126,1.181768 -16.68056,1.196513 -8.54242,0.02663 -8.63845,0.06904 -14.66667,6.476373 -3.337366,3.547259 -7.435834,7.177946 -9.107703,8.068191 -12.950982,6.896207 -38.15002,9.677227 -47.744068,5.26914 z"
       id="path718" />
  </g>
</svg>
