<?xml version="1.0" encoding="UTF-8" standalone="no"?>
<!-- Created with Inkscape (http://www.inkscape.org/) -->

<svg
   version="1.1"
   id="svg233"
   width="228"
   height="209.33333"
   viewBox="0 0 228 209.33333"
   xmlns="http://www.w3.org/2000/svg"
   xmlns:svg="http://www.w3.org/2000/svg">
  <defs
     id="defs237" />
  <g
     id="g239">
    <path
       style="fill:#000000;stroke-width:1.33333"
       d="M 117.96026,196.33333 C 109.1661,182.75582 103.49489,173.85777 96,161.878 91.966667,155.43114 86.258455,147.12125 83.315085,143.41156 71.681987,128.74972 68.606735,116 76.703379,116 c 2.318497,0 3.295329,0.9588 3.932529,3.85996 0.466284,2.12298 3.237716,7.06318 6.158737,10.97824 2.921022,3.91505 5.678446,8.62806 6.12761,10.47337 0.449164,1.84531 2.075405,4.93667 3.61387,6.86969 1.538464,1.93304 5.489395,7.93304 8.779845,13.33334 3.29044,5.4003 10.36941,16.36052 15.73104,24.35605 5.36163,7.99552 9.43827,15.34552 9.05921,16.33333 -0.37905,0.9878 -2.14968,1.79602 -3.93472,1.79602 -2.48646,0 -4.40693,-1.79311 -8.21124,-7.66667 z m 39.26499,1.99996 c -1.89277,-2.38331 -5.06249,-7.57184 -7.04381,-11.53008 -1.98132,-3.95823 -5.30284,-9.35823 -7.38116,-12 -2.07831,-2.64176 -5.05003,-7.31251 -6.6038,-10.37941 -1.55377,-3.06691 -3.41821,-5.9428 -4.14319,-6.39087 -1.20004,-0.74167 -22.53598,-31.95406 -26.31646,-38.49841 -1.98195,-3.43094 -0.0736,-6.20119 4.27181,-6.20119 2.34413,0 4.75668,2.72287 10.83674,12.23065 10.33835,16.16674 13.27037,20.97524 15.71295,25.76935 1.12091,2.2 4.60383,7.69745 7.73984,12.21657 3.136,4.51912 8.10183,12.23868 11.03516,17.15459 2.93334,4.91589 6.72731,10.65731 8.43104,12.75868 2.05211,2.53104 2.80938,4.72913 2.24348,6.51208 -1.25641,3.9586 -4.8715,3.28273 -8.7826,-1.64196 z M 15.428572,100.57143 c -2.664677,-2.66468 -2.641427,-3.076146 0.601275,-10.641061 1.483082,-3.45989 2.791732,-7.559634 2.908112,-9.11054 C 19.054332,79.268923 15.715452,72.948835 11.518214,66.77519 2.4379195,53.419139 2.4166803,53.960662 12.853272,32.736069 19.925565,18.353353 23.651869,13.020576 28.428171,10.44657 38.728744,4.8954659 63.549083,3.3581713 73.359241,7.6636788 82.822525,11.816948 94.666667,28.576568 94.666667,37.813971 c 0,1.609424 1.716762,6.235124 3.815029,10.279335 4.380644,8.443281 6.644124,23.311721 4.234314,27.814499 -1.26155,2.357228 -2.744115,2.75886 -10.18391,2.75886 -12.080303,0 -13.865433,1.201638 -13.865433,9.333334 0,8.387566 -1.672792,9.350871 -18.568676,10.693091 -16.84219,1.33796 -18.753047,0.443202 -20.76882,-9.724931 -1.629196,-8.218128 -3.411259,-11.068316 -6.239548,-9.979382 -2.38238,0.917255 -5.546783,12.137026 -4.422323,15.679881 1.977329,6.230012 -8.320137,10.821362 -13.238728,5.902772 z M 65.890951,89.857347 C 67.050928,89.412221 68,87.612221 68,85.857347 c 0,-2.93186 -0.53072,-3.190682 -6.542571,-3.190682 h -6.54257 L 52.72592,74.999999 c -1.203916,-4.216667 -2.664895,-9.20342 -3.24662,-11.081675 -1.424452,-4.599226 0.202395,-8.443604 5.107901,-12.070402 6.024519,-4.454119 5.426766,-6.976608 -1.3807,-5.826495 -4.973596,0.840284 -5.871921,0.523982 -10.080801,-3.549469 -4.319533,-4.180544 -5.185232,-4.463756 -13.284768,-4.346073 -9.377753,0.136253 -13.270268,2.295074 -12.110377,6.716516 0.608253,2.318634 0.71601,2.299056 1.557854,-0.283058 0.803476,-2.46443 1.578471,-2.67169 6.944835,-1.85728 9.761571,1.481436 11.33636,6.513532 3.073108,9.819829 -6.673024,2.670015 -9.174808,2.705672 -10.157517,0.144774 -0.42211,-1.1 -1.378279,-2 -2.12482,-2 -2.060371,0 -0.0071,8.403986 2.512157,10.282174 1.191803,0.888531 2.848409,2.988531 3.681347,4.666667 1.271886,2.562497 2.8517,3.158049 9.864218,3.718576 9.124952,0.729376 10.052904,1.478272 12.390023,9.999249 3.10854,11.333525 3.108352,11.333333 11.057272,11.333333 3.989077,0 8.20194,-0.364193 9.361919,-0.809318 z M 89.288503,70.4825 93.6416,68.965003 92.739673,59.811872 C 92.243615,54.777651 90.977951,49.010526 89.927088,46.996038 88.876225,44.98155 88.012732,42.743206 88.008215,42.021941 87.986201,38.508287 79.142089,23.535229 74.739123,19.557412 70.641295,15.855272 68.296723,14.89383 61.487991,14.12351 50.505927,12.881031 41.756669,14.23715 35.723628,18.116953 c -5.735184,3.688247 -8.825968,8.292231 -6.11446,9.108001 0.948291,0.285299 6.828172,2.117054 13.066404,4.070566 9.229129,2.890115 12.039865,3.286601 15.086799,2.128159 5.751568,-2.186742 8.64883,-1.719746 10.929997,1.761754 2.862544,4.368794 0.445279,13.786578 -5.556865,21.649814 -4.934108,6.464033 -5.034583,6.83646 -3.168504,11.744619 1.261014,3.316721 1.65815,3.420133 13.134369,3.420133 6.50872,0 13.792931,-0.682875 16.187135,-1.517499 z m 91.048697,31.26686 c -15.17887,-0.46295 -16.46784,-0.70923 -18.29327,-3.49519 -1.53437,-2.34174 -2.144,-10.28693 -2.78784,-36.333076 -0.76882,-31.1023 -0.65984,-33.53101 1.6266,-36.247389 2.34523,-2.786219 3.58546,-2.927851 28.83214,-3.29258 29.59501,-0.427551 28.29945,-0.847905 29.64581,9.618874 0.42449,3.3 1.35416,8.563972 2.06592,11.697718 1.45899,6.423473 1.81272,49.258644 0.43641,52.845249 -1.8447,4.807214 -12.16968,6.101734 -41.52577,5.206394 z m 33.07892,-9.957957 c 0.91483,-1.389098 0.0632,-38.224239 -1.18192,-51.124737 L 211.33333,31.333333 200,31.01909 c -18.37947,-0.50961 -30.44251,0.813284 -31.21148,3.422812 -1.15255,3.911227 -1.4376,50.060578 -0.33652,54.482942 0.91783,3.686372 1.71961,4.324659 5.97077,4.753255 8.00558,0.807113 38.18082,-0.652919 38.99335,-1.886696 z"
       id="path857" />
  </g>
</svg>
