<?xml version="1.0" encoding="UTF-8" standalone="no"?>
<!-- Created with Inkscape (http://www.inkscape.org/) -->

<svg
   version="1.1"
   id="svg223"
   width="202.66667"
   height="214.66667"
   viewBox="0 0 202.66667 214.66667"
   xmlns="http://www.w3.org/2000/svg"
   xmlns:svg="http://www.w3.org/2000/svg">
  <defs
     id="defs227" />
  <g
     id="g229">
    <path
       style="fill:#000000;stroke-width:1.33333"
       d="m 87.333335,205.49722 c -15.73605,-5.68051 -21.994577,-10.94655 -28.628734,-24.08874 -5.908444,-11.70456 -5.252828,-26.12308 1.808756,-39.77868 6.996895,-13.5305 25.484592,-24.75121 40.153313,-24.37018 5.77496,0.15 16.27331,3.15896 22.66667,6.49656 7.10382,3.70848 18.92464,16.47306 20.59921,22.24382 2.59204,8.93251 3.1976,19.87616 1.40948,25.47228 -3.93443,12.31328 -13.69229,27.19439 -17.83193,27.19439 -0.71507,0 -2.43269,1.02496 -3.81695,2.27769 -3.51846,3.18418 -16.5306,7.02188 -23.69315,6.98791 -3.299998,-0.0156 -8.999999,-1.11143 -12.666665,-2.43505 z m 27.906655,-10.6519 c 9.93177,-4.39329 15.08338,-9.41024 18.91127,-18.4169 2.46856,-5.8083 3.26337,-9.46998 2.67924,-12.34326 -0.45678,-2.24684 -1.18092,-6.03516 -1.60922,-8.41849 C 133.62784,146.79956 127.1097,136 123.35136,136 c -1.44664,0 -10.74973,-3.98782 -15.6666,-6.71556 -5.48444,-3.04262 -20.02372,-0.2334 -28.454561,5.49787 -7.242115,4.92319 -12.151731,11.60331 -15.34113,20.87345 l -2.62746,7.63686 2.994231,8.68702 c 4.14513,12.02608 10.256955,19.31208 18.495183,22.04838 3.60302,1.19673 6.942802,2.80992 7.421738,3.58485 1.332214,2.15556 18.130339,0.30097 25.067229,-2.76755 z m -18.478994,-25.9448 c -3.172261,-2.31961 -3.60342,-11.33065 -0.63403,-13.251 3.382276,-2.18736 8.950984,-0.0107 11.225344,4.38718 1.97427,3.81782 1.91799,4.14756 -1.24847,7.31401 -3.74808,3.74808 -5.8579,4.09807 -9.342844,1.54981 z M 61.728914,35.206314 c -1.317569,-1.903195 -3.41367,-4.571286 -4.658005,-5.929092 -1.244333,-1.357806 -3.209741,-4.300647 -4.367573,-6.539647 -1.157832,-2.238999 -2.569123,-4.070908 -3.136205,-4.070908 -0.96046,0 -3.465693,3.715415 -9.664694,14.333334 -1.771892,3.034972 -3.515868,4.333333 -5.820592,4.333333 -3.377975,0 -4.338414,-1.022693 -11.643837,-12.398579 -4.941336,-7.694567 -7.863316,-7.792928 -9.416586,-0.316988 -1.29557,6.23562 -3.6704436,8.248074 -6.0214219,5.102517 C 4.4553962,26.315662 4.9555271,23.032346 9.530718,13.106342 14.946091,1.3575411 17.807419,0.91448401 23.133786,11 c 5.142573,9.737503 9.529933,14.875592 11.919217,13.958738 1.088586,-0.41773 3.918952,-4.967756 6.289706,-10.111171 2.370753,-5.143414 5.214546,-9.6985928 6.31954,-10.1226188 2.484298,-0.9533147 5.609776,1.5241282 7.542056,5.9782918 2.236757,5.156023 9.280871,14.569627 10.926263,14.601626 0.805144,0.01565 3.65644,-4.407836 6.336211,-9.829984 2.679772,-5.42215 5.852197,-10.2344713 7.049836,-10.6940482 2.649286,-1.0166269 10.777293,7.1020432 14.723917,14.7070062 1.478164,2.848355 3.505966,5.178827 4.506223,5.178827 1.000259,0 3.986415,-4.162981 6.635905,-9.251071 6.60335,-12.6810877 8.18035,-13.4409281 14.00696,-6.7489292 2.554,2.9333332 5.55943,7.4123072 6.67873,9.9532732 3.49175,7.926782 7.29092,8.847503 9.64499,2.337447 2.81136,-7.774698 9.38722,-16.9573869 12.14345,-16.9573869 1.74821,0 4.66443,3.2168939 9.02936,9.9603669 3.54596,5.478201 7.27171,9.828201 8.27945,9.666667 1.00775,-0.161535 4.00775,-4.488963 6.66667,-9.616507 7.18924,-13.86395133 10.43868,-13.40912819 18.42825,2.579393 2.58626,5.175544 5.58387,10.410602 6.66136,11.63346 2.54914,2.893048 1.74694,8.288538 -1.31926,8.873101 -3.47064,0.661669 -5.974,-1.920915 -10.44252,-10.773002 -2.1756,-4.309841 -4.67664,-7.612732 -5.55787,-7.339759 -0.88123,0.272975 -3.88152,4.813308 -6.66733,10.089632 -4.01474,7.603937 -5.69372,9.593315 -8.09648,9.593315 -3.27284,0 -7.52579,-5.538613 -12.07152,-15.720739 -1.58499,-3.550252 -3.30432,-5.573754 -4.53164,-5.333333 -1.77934,0.348559 -7.55747,9.205961 -10.7889,16.538479 -1.49565,3.393843 -5.57741,4.701496 -8.31695,2.664463 -1.09635,-0.815211 -4.73597,-5.581882 -8.08804,-10.592599 l -6.09468,-9.110395 -4.14001,6.017296 c -2.27701,3.309512 -4.14001,6.578275 -4.14001,7.263917 0,0.685642 -1.24355,2.827537 -2.76344,4.759766 -3.4543,4.391423 -8.547279,4.634868 -10.735271,0.513145 -0.875893,-1.65 -3.975926,-6.722193 -6.888962,-11.271543 l -5.296426,-8.271541 -5.391175,11.271541 c -4.431096,9.264267 -5.93217,11.271543 -8.429039,11.271543 -1.765863,0 -4.040929,-1.448904 -5.433443,-3.460353 z"
       id="path996" />
  </g>
</svg>
