<?xml version="1.0" encoding="UTF-8" standalone="no"?>
<!-- Created with Inkscape (http://www.inkscape.org/) -->

<svg
   version="1.1"
   id="svg213"
   width="221.33333"
   height="200"
   viewBox="0 0 221.33333 200"
   xmlns="http://www.w3.org/2000/svg"
   xmlns:svg="http://www.w3.org/2000/svg">
  <defs
     id="defs217" />
  <g
     id="g219">
    <path
       style="fill:#000000;stroke-width:1.33333"
       d="m 8.8768099,192.2322 c -1.8801695,-2.07756 -2.1776381,-5.7098 -2.0290884,-24.77615 0.1710132,-21.94956 0.2279647,-22.36625 3.2448135,-23.74082 3.966314,-1.80718 6.971557,-0.59699 8.499886,3.42282 1.928799,5.07312 0.0604,43.35199 -2.227705,45.6401 -2.544154,2.54414 -4.843102,2.37653 -7.4879061,-0.54595 z m 99.3542101,1.30461 c -1.21639,-0.7935 -2.16953,-6.9407 -3.05123,-19.67873 -1.48551,-21.46132 -0.78158,-29.26379 2.81373,-31.18795 3.41017,-1.82506 7.63669,-1.68049 8.86265,0.30316 1.39001,2.24908 1.96235,42.2562 0.67397,47.11002 -1.08892,4.10233 -5.6869,5.80993 -9.29912,3.4535 z m 98.16496,-2.53526 c -2.6298,-0.58635 -4.35937,-4.90342 -2.90637,-7.2544 0.54728,-0.88554 0.84373,-10.08235 0.65877,-20.43738 -0.36761,-20.58052 0.0503,-21.8535 7.3453,-22.37609 3.35765,-0.24053 3.82744,0.26189 4.73725,5.06632 0.55548,2.93333 0.65096,12.53333 0.21217,21.33333 -0.98852,19.82531 -3.26204,25.18107 -10.04712,23.66822 z M 100.94627,130.8637 c -2.191818,-2.64537 -1.468102,-55.41046 0.82565,-60.197033 1.17113,-2.443912 2.64935,-3.333334 5.54,-3.333334 6.69113,0 7.35032,3.227204 6.9457,34.003657 -0.19768,15.03535 -0.78095,28.01905 -1.29616,28.85268 -1.50082,2.42838 -10.1592,2.9141 -12.01519,0.67403 z M 85.999999,57.123129 C 74.173888,56.150943 48.900909,51.242643 45.016194,49.163607 43.644759,48.429636 40.005074,47.028815 36.928005,46.050668 13.757314,38.685116 4.3548025,33.434777 6.1159519,28.845295 c 0.676354,-1.76255 5.5629511,-4.213668 21.2173811,-10.64264 4.4,-1.806995 14.6,-4.585938 22.666666,-6.175429 C 58.066666,10.437736 66.466666,8.634642 68.666666,8.0203515 72.850702,6.8520724 95.764152,5.1410981 114,4.6352581 135.0732,4.0507136 170.85626,10.638622 190.66666,18.750116 194.7,20.401589 199.8,22.491677 202,23.394755 c 2.2,0.903078 5.25509,2.019012 6.7891,2.479852 1.53402,0.460841 4.113,2.247101 5.73108,3.969468 l 2.94196,3.131574 -3.23805,3.84551 c -1.98887,2.361972 -5.74296,4.551449 -9.73108,5.675394 -3.57116,1.006438 -10.69301,3.178591 -15.82635,4.827007 -5.13333,1.648417 -11.73333,3.372355 -14.66666,3.830975 -2.93334,0.458618 -8.33334,1.459286 -12,2.223705 -16.57927,3.456409 -55.92518,5.395173 -76.000001,3.744889 z M 141.26413,46.545087 c 6.2714,-0.800202 16.20253,-2.552819 22.0692,-3.894703 C 169.2,41.308499 177.6,39.790755 182,39.277619 c 9.57909,-1.117134 16.66666,-3.79452 16.66666,-6.295967 0,-2.193428 -8.18717,-6.314985 -12.54426,-6.314985 -1.71626,0 -5.7459,-0.950342 -8.95476,-2.111871 -8.79372,-3.183104 -27.40602,-6.268248 -51.83431,-8.591972 -24.32175,-2.313588 -63.974303,2.088645 -91.333331,10.139844 -3.666666,1.079024 -7.430846,2.441517 -8.364845,3.027763 -2.78792,1.7499 2.063487,5.00272 11.031512,7.39652 4.4,1.174474 11.3,3.072961 15.333333,4.218858 4.033333,1.145896 10.933333,2.67672 15.333333,3.40183 4.4,0.72511 11,1.813673 14.666667,2.41903 9.982729,1.648122 46.281831,1.634903 59.264131,-0.02159 z"
       id="path1135" />
  </g>
</svg>
