<?xml version="1.0" encoding="UTF-8" standalone="no"?>
<!-- Created with Inkscape (http://www.inkscape.org/) -->

<svg
   version="1.1"
   id="svg203"
   width="189.33333"
   height="201.33333"
   viewBox="0 0 189.33333 201.33333"
   xmlns="http://www.w3.org/2000/svg"
   xmlns:svg="http://www.w3.org/2000/svg">
  <defs
     id="defs207" />
  <g
     id="g209">
    <path
       style="fill:#000000;stroke-width:1.33333"
       d="m 87.999998,193.4332 c -2.257653,-0.59322 -3.44665,-1.9339 -3.684481,-4.15452 -1.398653,-13.05923 -1.855572,-14.76698 -3.570258,-13.34391 -2.514051,2.08648 -68.640093,2.26224 -72.5070179,0.19273 -3.559006,-1.90472 -3.6278769,-4.21813 -0.3801587,-12.7697 5.6498626,-14.87668 19.6413666,-24.69114 35.1997086,-24.69114 12.236248,0 19.16664,2.84076 28.020925,11.48574 4.173372,4.07472 7.609211,8.40736 7.635196,9.62809 0.02599,1.22073 0.895361,3.71951 1.931944,5.55284 1.678931,2.96941 1.839028,1.25988 1.466413,-15.65844 -0.279878,-12.70769 0.08335,-19.67779 1.097751,-21.06507 1.321951,-1.80788 7.273166,-2.06129 46.48665,-1.9795 45.7991,0.0955 50.79498,0.59637 52.25611,5.23869 1.17146,3.72196 1.42734,52.66888 0.29168,55.79456 -0.59888,1.64829 -2.39888,3.28955 -4,3.64724 -4.98013,1.11255 -27.4244,1.60804 -28.99069,0.64001 -0.81789,-0.50548 -1.28459,-2.35121 -1.03709,-4.10161 0.43038,-3.04388 1.00188,-3.2116 13.11665,-3.84921 L 174,183.33333 l 0.77068,-5.77491 c 1.14644,-8.59042 0.10173,-36.01605 -1.48492,-38.98065 -1.08375,-2.02499 -2.87063,-2.5934 -8.33267,-2.65065 -3.8242,-0.0401 -19.25309,-0.54888 -34.28643,-1.13066 -15.03333,-0.58176 -30.33333,-0.69896 -33.999995,-0.26044 l -6.666667,0.79731 -0.792521,24 c -0.435887,13.2 -0.321948,24.53393 0.253196,25.18653 0.575144,0.65259 8.421727,1.25259 17.436847,1.33334 13.4451,0.1204 16.45477,0.50626 16.74514,2.1468 0.80478,4.54682 -1.65394,5.38956 -17.07377,5.85206 -8.379557,0.25135 -16.735558,0.0629 -18.568892,-0.41886 z M 70.389979,166.30826 C 70.866287,164.01058 61.018318,153.94148 55.412726,150.9947 51.016695,148.68377 40.958905,148.11108 33.151335,149.72712 27.39746,150.91808 16,160.46116 16,164.0879 c 0,3.10894 2.731293,3.80426 16.666666,4.24296 22.998057,0.72402 37.313051,-0.0435 37.723313,-2.0226 z M 33.395155,89.37154 c -2.644206,-1.634209 -2.19512,-42.209275 0.539618,-48.754421 3.172009,-7.591686 7.11852,-11.294417 11.964312,-11.225262 5.276307,0.07529 13.556338,3.035341 16.864017,6.028749 3.140658,2.842257 3.865122,2.260161 4.455386,-3.57984 0.849143,-8.401312 2.442052,-12.495353 6.617369,-17.007742 5.329128,-5.7593444 16.275679,-10.6765267 26.039861,-11.6970858 6.905682,-0.721787 8.449272,-0.3737704 15.767612,3.5549529 6.78306,3.6413679 8.66702,5.4711359 11.49615,11.1654219 1.861,3.745695 3.78271,9.060353 4.27046,11.810353 1.02978,5.805949 1.62661,5.999368 6.55355,2.123841 2.12361,-1.670443 6.28596,-3.128823 9.929,-3.478874 6.00589,-0.577089 6.53831,-0.336969 12.52337,5.648089 6.67894,6.678937 7.79215,10.454883 3.72415,12.632015 -2.89479,1.54924 -4.08231,0.457924 -6.70495,-6.161774 -1.36264,-3.439352 -2.6462,-4.40019 -6.82021,-5.105384 -2.82792,-0.477774 -6.01152,-0.371258 -7.07465,0.236703 -1.06314,0.607961 -6.77432,6.593919 -12.69153,13.302128 C 119.10454,62.177467 114.5495,65.53104 105.11161,67.811907 99.77008,69.102802 97.60819,68.919644 89.830105,66.517238 81.503639,63.945454 79.69348,62.651106 67.466407,50.526144 52.292403,35.478863 48.838562,34.195411 42.191141,41.133823 l -3.641102,3.800491 0.559122,17.199509 0.559122,17.199509 5.832524,1.238693 c 5.703108,1.211208 109.534643,2.17089 112.837753,1.042923 1.23372,-0.4213 1.52249,-3.750801 1.10182,-12.704196 -0.57496,-12.237616 0.47436,-16.910753 3.7972,-16.910753 2.86439,0 3.42908,3.193972 3.42908,19.395472 0,14.345752 -0.16438,15.270733 -3,16.881257 -2.30474,1.309009 -17.5657,1.745725 -65.850886,1.884421 C 63.247784,90.260443 34.258506,89.90512 33.395155,89.37154 Z M 110.07413,58.074038 c 4.4117,-2.890662 10.94565,-12.059071 12.43306,-17.446027 1.98576,-7.191816 0.29858,-15.851666 -4.13664,-21.232358 C 113.13264,13.041152 102.56973,7.6522411 97.662782,8.8311013 86.938776,11.407468 77.85844,20.381576 74.568437,31.655273 c -1.438742,4.930069 -1.331413,6.3834 0.83697,11.333333 2.974808,6.790821 8.729749,14.220437 12.902305,16.656845 3.941256,2.301349 17.331168,1.334672 21.766418,-1.571413 z"
       id="path1274" />
  </g>
</svg>
