<?xml version="1.0" encoding="UTF-8" standalone="no"?>
<!-- Created with Inkscape (http://www.inkscape.org/) -->

<svg
   version="1.1"
   id="svg175"
   width="90.666664"
   height="106.66667"
   viewBox="0 0 90.666664 106.66667"
   xmlns="http://www.w3.org/2000/svg"
   xmlns:svg="http://www.w3.org/2000/svg">
  <defs
     id="defs179" />
  <g
     id="g181">
    <path
       style="fill:#000000;stroke-width:1.33333"
       d="m 32.333332,99.136439 c -2.383333,-1.174897 -4.333333,-2.661236 -4.333333,-3.302973 0,-0.641738 -0.929796,-1.166796 -2.066213,-1.166796 -4.663428,0 -9.99515,-4.418854 -14.72358,-12.202689 C 6.8032273,75.20931 6.1259605,72.944197 5.5886681,63.66279 5.0379955,54.150244 5.3420813,52.365287 8.6735168,45.555008 11.064148,40.667965 14.422888,36.454812 18.184627,33.624412 c 3.198455,-2.406574 5.815372,-4.857172 5.815372,-5.445774 0,-0.588601 -3,-3.910584 -6.666666,-7.382184 -7.199394,-6.816387 -7.8881165,-8.717861 -4.415459,-12.1905184 1.862596,-1.8625961 3.416208,-2.0542214 9,-1.1100762 3.711836,0.6276222 15.748792,1.2330818 26.748791,1.3454655 26.848778,0.2743062 25.720618,0.1452916 27.31459,3.1236541 1.170625,2.187333 0.615763,3.509016 -3.286421,7.828268 -2.58216,2.858143 -4.694836,5.873902 -4.694836,6.701688 0,0.827786 2.368091,3.873157 5.262425,6.767491 20.288684,20.288685 15.146101,51.076461 -10.711754,64.129465 -6.393244,3.227299 -9.445548,3.935949 -16.845981,3.911089 -5.540835,-0.0186 -10.71477,-0.85694 -13.371356,-2.166541 z m 22.830282,-9.918387 c 6.67251,-1.852711 10.803451,-6.362357 16.348355,-17.8471 5.323018,-11.025169 5.424102,-12.664058 1.31813,-21.37095 C 69.164642,42.227239 64.929887,38.062733 59.34079,36.734461 50.991747,34.750276 50.023785,31.446913 55.999998,25.333334 c 2.2,-2.250568 4,-4.584233 4,-5.185921 0,-0.60169 -4.18857,-1.445135 -9.307934,-1.874324 -9.475643,-0.794404 -18.692065,0.01537 -18.692065,1.642329 0,0.494911 1.5,2.932972 3.333333,5.417916 4.872329,6.604072 4.322054,8.78739 -3.171842,12.584834 -11.507236,5.831157 -17.972394,22.642266 -13.148083,34.188468 2.897682,6.935128 10.040239,14.560033 13.638972,14.560033 1.673541,0 4.761385,0.896304 6.861877,1.991786 4.526716,2.360847 8.633321,2.507692 15.649358,0.559597 z"
       id="path352" />
  </g>
</svg>
