<?xml version="1.0" encoding="UTF-8" standalone="no"?>
<!-- Created with Inkscape (http://www.inkscape.org/) -->

<svg
   version="1.1"
   id="svg113"
   width="286.66666"
   height="222.66667"
   viewBox="0 0 286.66666 222.66667"
   xmlns="http://www.w3.org/2000/svg"
   xmlns:svg="http://www.w3.org/2000/svg">
  <defs
     id="defs117" />
  <g
     id="g119">
    <path
       style="fill:#000000;stroke-width:1.33333"
       d="m 26.155615,215.29847 c -2.640913,-2.64091 -2.640705,-2.62291 -0.06037,-5.20323 1.640329,-1.64033 5.186545,-2.0995 16.333333,-2.11489 17.688582,-0.0244 20.058524,-1.08261 22.352154,-9.98035 2.634955,-10.22185 3.527565,-23.35008 2.039751,-30 -0.738323,-3.3 -2.639231,-11.7 -4.22424,-18.66666 -1.585008,-6.96667 -3.184907,-15.6564 -3.555328,-19.31051 -0.52474,-5.17642 -2.587365,-9.74105 -9.338672,-20.66667 C 44.93639,101.64361 39.981094,93.812283 38.690468,91.953219 37.399844,90.094155 35.680507,85.479908 34.869719,81.699335 33.261058,74.198409 33.874529,71.55397 40.5634,57.156017 c 2.81881,-6.067554 3.232582,-8.185688 2.153492,-11.023911 -1.588044,-4.176873 -4.584981,-5.450668 -15.711859,-6.678044 -7.758011,-0.855765 -8.561049,-0.685925 -11.727273,2.4803 -1.869435,1.869435 -4.5717,3.398972 -6.0050329,3.398972 -2.1860038,0 -2.6060606,-0.933799 -2.6060606,-5.793349 0,-3.838443 0.78736,-6.493246 2.3333333,-7.867482 2.8618992,-2.543981 11.4357332,-4.988397 17.5319742,-4.9984 3.397368,-0.0056 5.635705,-1.143912 8.94062,-4.546873 4.929158,-5.075394 10.174918,-6.523463 25.194071,-6.954718 5.133333,-0.147396 11.133333,-0.47151 13.333333,-0.720253 l 4,-0.452259 0.2257,19.844749 c 0.251183,22.085291 -0.203145,20.908685 10.73648,27.805045 16.047802,10.116564 22.588702,15.514526 38.945932,32.140625 9.49257,9.648601 21.64657,23.040261 27.00889,29.759241 32.45297,40.66352 42.05361,52.41993 47.18792,57.78368 6.63354,6.92997 8.8842,11.7553 7.0291,15.07017 -2.11809,3.78481 -4.33394,2.63279 -12.31669,-6.40351 -4.21091,-4.76666 -8.24175,-8.66666 -8.95743,-8.66666 -0.71566,0 -3.06954,-1.30738 -5.23082,-2.9053 -5.78218,-4.27493 -6.06206,-2.25445 -0.51382,3.70919 2.65879,2.85785 7.17606,8.32795 10.03836,12.15575 2.86231,3.8278 6.39868,7.59892 7.85862,8.38024 1.52006,0.81352 2.65442,2.79014 2.65442,4.62533 0,2.77515 -0.75958,3.29551 -5.66666,3.88193 -3.11667,0.37247 -11.62547,0.55924 -18.90846,0.41504 l -13.2418,-0.26218 -4.7582,-6.7475 c -2.61701,-3.71113 -7.75821,-10.44344 -11.42488,-14.9607 -3.66666,-4.51726 -9.36001,-11.67279 -12.65186,-15.90116 -7.01057,-9.00503 -8.42151,-7.32367 -3.39399,4.04446 1.85856,4.20251 3.37919,9.05963 3.37919,10.79359 0,5.17985 -3.56224,5.16732 -7.52373,-0.0264 C 124.77345,183.68092 119.08364,180 115.28235,180 c -1.8106,0 -2.04107,0.96758 -1.34977,5.66667 2.50248,17.01056 4.54173,19.65804 15.15422,19.67411 11.7485,0.0177 19.60012,4.90946 14.20833,8.85204 -3.56817,2.6091 -7.34289,2.22716 -10.88613,-1.10154 -3.0929,-2.90562 -3.1015,-2.90601 -8.08593,-0.35206 -4.16899,2.13613 -8.27949,2.60396 -24.989739,2.84412 -11,0.1581 -31.479973,0.64369 -45.51105,1.0791 -22.403974,0.69523 -25.77359,0.52911 -27.666666,-1.36397 z m 74.511045,-8.3922 5.33334,-0.94007 0.40861,-7.14461 c 0.25658,-4.48629 -0.36354,-8.7718 -1.66667,-11.51793 -1.1414,-2.40534 -2.07528,-5.09008 -2.07528,-5.96611 0,-2.69269 -4.474332,-9.33755 -6.287473,-9.33755 -1.188075,0 -1.712523,2.2586 -1.712523,7.37518 0,8.99521 -1.745322,10.07453 -8.680626,5.3681 -2.763657,-1.87546 -5.471157,-3.40994 -6.016667,-3.40994 -1.03611,0 -2.008146,3.26512 -3.969373,13.33333 -0.64282,3.3 -1.575738,7.65 -2.073152,9.66667 L 73.02246,208 84.177895,207.9232 c 6.13549,-0.0423 13.555436,-0.4999 16.488765,-1.01693 z m 85.22131,-3.71444 c 1.65484,-0.63503 0.17844,-3.12772 -6.89095,-11.63439 C 174.04866,185.60303 169.1,179.74494 168,178.53947 c -1.1,-1.20548 -3.70714,-4.07665 -5.79363,-6.38039 C 156.61705,165.9878 147.80542,159.13303 144,157.9959 c -1.83334,-0.54784 -6.63334,-2.876 -10.66667,-5.17371 -17.65051,-10.05512 -20.12066,-9.99109 -7.66082,0.19857 11.04646,9.0338 19.30519,17.37254 24.97451,25.21643 2.55586,3.53621 7.84612,10.44567 11.75614,15.35432 7.36432,9.24525 6.78656,8.93807 19.15445,10.18436 1.22336,0.12333 3.17201,-0.13955 4.33036,-0.58404 z m -63.22131,-31.15127 c 0,-1.56528 -4.93687,-10.59338 -7.31329,-13.37389 -4.11444,-4.81407 -7.67355,-13.84779 -6.31366,-16.02532 1.13101,-1.81103 -0.0123,-2.89987 -6.84088,-6.51508 C 88.507195,128.87759 84.594717,126.25313 77.14766,119.32217 64.1537,107.2287 54.666665,93.460289 54.666665,86.695784 c 0,-5.38768 5.455442,-9.277744 14.815156,-10.564116 9.132076,-1.255086 14.518177,-3.615178 14.518177,-6.361604 0,-1.698522 -6.880362,-7.103396 -9.042568,-7.103396 -3.406392,0 -4.494312,-4.571891 -4.851218,-20.386825 -0.205487,-9.105317 -0.798858,-17.243185 -1.318602,-18.084149 -0.519745,-0.840966 -2.40958,-1.529027 -4.199634,-1.529027 -2.808231,0 -3.254644,0.617697 -3.254644,4.503407 0,5.841461 -2.694184,8.038341 -8.518073,6.945773 -6.191549,-1.161541 -8.319259,-3.884216 -6.373208,-8.155332 1.966495,-4.315985 -0.197641,-4.326137 -4.502659,-0.02112 -4.467402,4.467404 -4.109613,7.00848 1.305383,9.27101 4.371016,1.826325 8.755224,7.780413 8.755224,11.890258 0,1.044866 -2.1,6.507902 -4.666667,12.140081 -7.595145,16.66645 -6.067109,26.143951 6.906707,42.838186 5.498084,7.07473 10.617257,14.91739 13.772885,21.10031 1.079576,2.11524 4.215533,6.31524 6.968794,9.33333 2.75326,3.01809 9.658708,11.48522 15.345437,18.81585 5.686731,7.33062 11.389505,14.38062 12.672845,15.66666 1.28333,1.28604 2.33333,2.8984 2.33333,3.58303 0,1.33837 4.33076,2.23571 12.33333,2.55545 2.75,0.10987 5,-0.38197 5,-1.093 z M 87.941474,169 c -0.140353,-7.1947 -10.366629,-24.70001 -15.734154,-26.93366 -4.418938,-1.83892 2.071198,24.57668 6.862937,27.93294 4.449198,3.11635 8.941633,2.6103 8.871217,-0.99928 z m 85.391856,-6.6911 c 0,-0.93011 -2.45396,-4.68011 -5.45325,-8.33334 C 155.82442,139.29139 151.1677,133.87974 147.66666,130.48522 145.65,128.52991 144,126.48263 144,125.93571 c 0,-3.16646 -26.48217,-31.672537 -35.98197,-38.731886 -4.04325,-3.004564 -8.485576,-6.74486 -9.871834,-8.311768 -2.799277,-3.164068 -7.623881,-2.814064 -11.848859,0.859583 -1.303131,1.13308 -5.28759,2.19126 -8.854353,2.35151 -14.449256,0.649188 -16.758544,3.833102 -10.238838,14.116724 2.480423,3.912407 6.497462,9.125957 8.926752,11.585687 4.153645,4.20567 19.109141,14.86111 20.858397,14.86111 0.4404,0 1.789576,0.89489 2.998168,1.98865 2.523997,2.28419 19.719067,11.58894 44.531577,24.09732 9.45214,4.76498 18.75214,9.75939 20.66666,11.0987 2.8707,2.0082 5.22168,3.22468 7.8143,4.0434 0.18333,0.0579 0.33333,-0.65574 0.33333,-1.58584 z m 79.33333,-81.143609 c -27.07789,-5.766854 -37.76369,-17.110866 -39.8156,-42.268114 -0.71242,-8.734685 0.62022,-13.823498 5.73013,-21.880998 8.58512,-13.5373432 30.13306,-17.07409761 43.23262,-7.0959567 16.22385,12.3579517 15.5099,33.2418747 -1.43188,41.8849277 -6.71406,3.42526 -7.39319,3.459677 -14.52475,0.736112 -7.2384,-2.764372 -10.61956,-9.476525 -9.27849,-18.419351 1.12521,-7.503445 5.5563,-11.455244 12.8446,-11.455244 3.88508,0 5.25978,0.617904 5.90625,2.654735 1.12139,3.533193 -0.16963,5.345265 -3.80824,5.345265 -3.96792,0 -6.18797,2.41332 -6.18797,6.726683 0,7.301759 8.58136,10.346201 14.9787,5.314052 5.04742,-3.970293 5.63284,-9.798608 1.82063,-18.12557 -3.71503,-8.114706 -6.30633,-9.850538 -16.23485,-10.875253 -6.30352,-0.65058 -7.89143,-0.290653 -12.67051,2.871987 -5.89011,3.897886 -12.36128,15.53036 -12.23012,21.984659 0.21361,10.51142 5.06928,20.717732 12.49119,26.255636 8.68717,6.482003 12.91449,7.613597 28.8928,7.734215 15.17846,0.114573 17.53453,0.869337 17.59841,5.637607 0.0563,4.20308 -14.23601,5.759633 -27.31292,2.974608 z"
       id="path1413" />
  </g>
</svg>
