<?xml version="1.0" encoding="UTF-8" standalone="no"?>
<!-- Created with Inkscape (http://www.inkscape.org/) -->

<svg
   version="1.1"
   id="svg223"
   width="224"
   height="210.66667"
   viewBox="0 0 224 210.66667"
   xmlns="http://www.w3.org/2000/svg"
   xmlns:svg="http://www.w3.org/2000/svg">
  <defs
     id="defs227" />
  <g
     id="g229">
    <path
       style="fill:#000000;stroke-width:1.33333"
       d="m 98,205.09602 c -2.933333,-0.62942 -9.833333,-1.71159 -15.333333,-2.40482 -16.23596,-2.04642 -22.526532,-3.4372 -38,-8.40134 -28.948864,-9.28728 -34,-12.01562 -34,-18.3648 0,-3.62783 3.340332,-6.50091 13.333333,-11.46827 6.250521,-3.10703 27.782908,-8.2876 49.880199,-12.00091 18.806657,-3.16034 56.396101,-3.80146 73.453131,-1.25282 29.22491,4.36676 49.1016,10.3297 65.66667,19.69976 8.10601,4.58518 9.19633,8.50933 3.58967,12.91954 -4.40602,3.46578 -20.95735,9.21828 -33.55976,11.6639 -2.3669,0.45932 -4.99036,1.66281 -5.82994,2.67442 -0.83957,1.01163 -3.90305,1.83932 -6.80774,1.83932 -2.9047,0 -9.88123,1.16584 -15.50342,2.59076 C 143.442,205.49191 107.26894,207.0849 98,205.09602 Z m 41.06025,-13.89112 c 7.48354,-1.17066 18.40642,-2.98843 24.27308,-4.03951 5.86667,-1.05108 14.53328,-2.53396 19.25915,-3.29528 15.79348,-2.54427 21.99091,-7.16725 13.74085,-10.25003 -6.4792,-2.42106 -8.50052,-2.9659 -18.17065,-4.89778 -31.38733,-6.27054 -36.87967,-6.79792 -66.82935,-6.41722 -23.079706,0.29339 -32.413529,1.37584 -57.33333,6.64898 -5.133333,1.08622 -11.733333,2.43536 -14.666667,2.99806 -7.096373,1.36132 -10,2.6774 -10,4.53256 0,1.54404 8.607771,4.79852 12.979002,4.90718 1.294882,0.0321 4.754332,0.98778 7.687665,2.12356 6.927171,2.68214 22.988617,5.46506 41.220379,7.14214 8.004541,0.73632 14.854541,1.63959 15.222221,2.00727 1.39637,1.39637 19.55359,0.58367 32.61765,-1.45993 z M 64.138079,106.66667 c -5.375307,-0.79132 -8.577946,-4.70385 -5.471412,-6.684207 1.1,-0.701228 4.716496,-1.284148 8.036658,-1.295377 7.521295,-0.02544 10.522474,-2.081811 14.415871,-9.877583 5.667256,-11.34758 2.473155,-14.180484 -23.450131,-20.798322 -3.667174,-0.936177 -6.690232,-2.833695 -8.57416,-5.381845 -1.600441,-2.164711 -3.942492,-4.263574 -5.20456,-4.664138 C 41.366364,57.164117 27.939943,40.996485 24.872309,35.064338 22.016539,29.541886 17.727117,26.167624 11.655611,24.667459 1.5906333,22.180576 1.8167833,14.666667 11.95661,14.666667 c 3.354223,0 5.786915,-0.910564 7.503406,-2.808546 1.396992,-1.544701 4.725117,-3.9238026 7.395836,-5.2868932 4.076995,-2.0808312 6.0583,-2.2826428 12.352635,-1.2582136 8.601882,1.3999922 8.12544,1.1627179 19.042813,9.4835538 4.538215,3.458868 10.238215,6.676784 12.666667,7.150926 2.428452,0.474141 6.515366,1.675125 9.082033,2.668853 2.566667,0.993727 8.097012,3.123283 12.289657,4.732345 4.192644,1.609064 11.392643,5.438174 16.000003,8.509135 14.47774,9.64991 21.41533,12.044952 34.46454,11.898086 12.50143,-0.140702 19.37913,-2.672174 29.76247,-10.954652 5.68852,-4.537558 5.96812,-4.630927 8.6961,-2.903988 1.54398,0.97741 1.58858,1.891958 0.24987,5.123873 -2.18329,5.270945 -7.49663,8.980833 -16.95731,11.839966 -6.02541,1.820952 -7.08416,2.487378 -4.57693,2.880948 1.79395,0.281604 5.39395,-0.08772 8,-0.820715 13.21469,-3.716868 20.16144,-4.233155 25.19045,-1.872169 4.59666,2.158008 4.90451,2.695754 5.28203,9.226308 0.40001,6.919906 0.38908,6.940756 -5.11651,9.749493 -8.90189,4.541407 -23.16512,6.6198 -41.52158,6.050398 -23.23428,-0.720711 -22.62019,-0.953375 -26.1444,9.905513 -1.62345,5.0022 -2.95172,9.539015 -2.95172,10.081811 0,0.542796 4.13646,0.602457 9.19214,0.132587 7.66934,-0.71279 9.32598,-0.505558 10,1.250917 1.37466,3.582287 0.9286,4.573897 -2.67349,5.943407 -3.60995,1.3725 -67.064079,2.45228 -75.047241,1.27706 z M 109.611,97.26797 c 2.55377,-1.163578 3.89613,-3.215407 5.01775,-7.669779 1.35123,-5.366211 1.23156,-6.483954 -1.01783,-9.506378 -2.1124,-2.838349 -3.80772,-3.492709 -9.89565,-3.819516 l -7.346547,-0.39437 -0.770567,4.74845 c -0.423813,2.611648 -2.606776,7.469195 -4.851029,10.794547 -2.244254,3.325353 -4.08046,6.276164 -4.08046,6.557358 0,2.275808 17.585353,1.731402 22.944333,-0.710312 z M 173.33333,68.337846 C 182.90411,66.281137 188,63.723057 188,60.975352 c 0,-0.723852 -1.87899,-0.916806 -4.33333,-0.444991 -24.75064,4.757973 -83.48471,7.134915 -90.010037,3.642665 -1.548061,-0.828497 -5.61832,-1.506358 -9.045021,-1.506358 -8.377183,0 -22.03586,-6.61929 -29.494509,-14.293675 C 47.501349,40.536958 47.409397,35.086214 54.828241,31.24978 56.939376,30.15807 58.666667,28.492516 58.666667,27.548548 58.666667,24.481846 48.081503,16 44.254321,16 43.564445,16 42.64,17.8 42.2,20 c -1.044451,5.222251 -6.427491,5.593908 -9.655943,0.666667 -2.440997,-3.725432 -4.278822,-4.242624 -5.331164,-1.500268 -0.62556,1.630184 10.91052,20.157607 16.602472,26.66426 3.346808,3.825843 17.738682,12.836009 20.502867,12.836009 1.350068,0 4.680767,1.10676 7.401552,2.459466 7.095879,3.527892 26.138592,6.578158 46.946886,7.519956 9.9,0.448083 20.4,1.32303 23.33333,1.944327 6.60833,1.399684 18.22349,0.564664 31.33333,-2.252571 z M 121,59.15962 c 1.65,-0.442183 3,-1.514431 3,-2.382774 0,-1.643238 -10.76663,-7.443512 -13.81686,-7.443512 -0.96003,0 -4.44256,-2.101248 -7.73895,-4.669441 -5.873746,-4.576195 -22.810125,-11.330559 -28.411059,-11.330559 -1.558223,0 -3.403131,0.553832 -4.099798,1.230737 -0.696666,0.676906 -3.066666,1.426906 -5.266666,1.666667 -3.16711,0.345159 -4.083278,1.152043 -4.399944,3.8751 -0.314095,2.70094 0.687624,4.190273 4.666666,6.938305 9.469592,6.53995 19.594319,9.592946 38.399941,11.579067 13.26526,1.400986 14.32091,1.433038 17.66667,0.53641 z"
       id="path251" />
  </g>
</svg>
