<?xml version="1.0" encoding="UTF-8" standalone="no"?>
<!-- Created with Inkscape (http://www.inkscape.org/) -->

<svg
   version="1.1"
   id="svg213"
   width="104"
   height="78.666664"
   viewBox="0 0 104 78.666664"
   xmlns="http://www.w3.org/2000/svg"
   xmlns:svg="http://www.w3.org/2000/svg">
  <defs
     id="defs217" />
  <g
     id="g219">
    <path
       style="fill:#000000;stroke-width:1.33333"
       d="M 10.517404,72.727292 C 8.601976,71.653194 6.3114133,69.027958 5.4272645,66.893435 3.1256343,61.336807 5.9618821,55.423477 16.250497,44.32793 20.879391,39.335996 26.166667,32.720007 28,29.625732 36.642628,15.038826 42.280471,7.2640564 45.333333,5.7224966 c 1.833334,-0.925752 7.065371,-1.6920303 11.626751,-1.702841 7.679123,-0.0182 8.512465,0.2766244 11.250744,3.9803441 3.613471,4.8874803 7.157473,5.0675273 13.122505,0.6666667 3.123327,-2.3043171 6.239943,-3.3333332 10.09578,-3.3333332 7.197655,0 9.279937,2.3288019 7.393456,8.2687478 -0.76821,2.418854 -1.741957,6.099592 -2.163881,8.179414 -1.095767,5.401449 -6.202627,9.928456 -13.359533,11.842636 l -6.185674,1.654416 0.812387,6.027392 C 80.329016,59.135765 80.328712,59.143745 77.060872,63.979694 72.077481,71.354422 64.998412,74.622345 54,74.625325 c -5.133333,0.0013 -11.777673,-0.849381 -14.765199,-1.890607 -4.14405,-1.444302 -6.67296,-1.565436 -10.666666,-0.51093 -9.022768,2.382388 -14.431108,2.533248 -18.050731,0.503504 z M 66.456119,59.600001 c 2.780738,-2.58723 3.067509,-3.775504 2.430444,-10.070921 -0.397259,-3.925672 -1.713331,-8.232673 -2.924603,-9.571115 -4.42528,-4.889878 1.917375,-11.357581 13.612576,-13.880955 4.904441,-1.05819 6.519287,-2.663712 7.796149,-7.751136 1.274315,-5.077275 -1.117844,-4.733908 -8.35924,1.199872 -4.260554,3.491204 -7.301976,4.898749 -10.803989,5 -4.815325,0.13922 -4.879107,0.07177 -5.287293,-5.590708 -0.536843,-7.447229 -3.974499,-9.3630777 -11.304774,-6.300293 -4.774165,1.994773 -10.26615,8.636844 -10.277072,12.429209 -0.0028,0.951841 1.645016,3.172337 3.661683,4.934434 l 3.666667,3.203812 -2.96382,5.535077 c -2.691102,5.025762 -2.788375,5.874351 -1.057136,9.222197 2.445174,4.728446 0.159412,8.522688 -4.71932,7.833817 -2.458138,-0.347086 -3.684446,-1.768757 -4.99719,-5.793293 -2.512138,-7.701567 -3.532786,-8.182143 -8.515418,-4.009517 -5.743344,4.809672 -9.06071,9.885274 -9.071664,13.879737 l -0.0088,3.203555 15.717355,-0.790262 c 9.398553,-0.472554 16.501032,-0.267673 17.666667,0.509619 2.965448,1.97748 12.193716,0.105213 15.738764,-3.193129 z"
       id="path390" />
  </g>
</svg>
