<?xml version="1.0" encoding="UTF-8" standalone="no"?>
<!-- Created with Inkscape (http://www.inkscape.org/) -->

<svg
   version="1.1"
   id="svg203"
   width="216"
   height="204"
   viewBox="0 0 216 204"
   xmlns="http://www.w3.org/2000/svg"
   xmlns:svg="http://www.w3.org/2000/svg">
  <defs
     id="defs207" />
  <g
     id="g209">
    <path
       style="fill:#000000;stroke-width:1.33333"
       d="m 156.67155,198.89377 c -0.25583,-0.25584 -24.06159,-0.64222 -52.90168,-0.85864 -28.840097,-0.21641 -53.450541,-0.81324 -54.689881,-1.32626 -2.949993,-1.22116 -5.839801,-5.72899 -6.969264,-10.8714 l -0.905657,-4.12343 -13.104787,-0.72212 c -15.562743,-0.85756 -21.3507022,-3.2396 -21.4131973,-8.81261 -0.011227,-1.00139 2.4659895,-4.09351 5.5049303,-6.87138 6.036193,-5.51761 6.209403,-8.46092 0.622912,-10.58489 -7.2345613,-2.75059 -5.3334632,-12.05637 2.463018,-12.05637 5.807776,0 12.081148,5.18278 13.283052,10.97389 L 29.465768,158 l 4.206856,-5.17919 c 7.135091,-8.78421 16.795476,-10.41454 19.078984,-3.21985 1.15716,3.64589 -2.889428,9.0266 -7.478781,9.94448 -2.166722,0.43333 -3.939494,1.38348 -3.939494,2.11143 0,0.72793 2.4,3.72352 5.333334,6.65685 C 51.003437,172.65049 52,174.58671 52,178.67581 c 0,2.8822 1.039136,6.31204 2.434388,8.03511 3.573989,4.41369 10.406259,2.69187 19.854056,-5.00347 4.160119,-3.38846 10.297087,-7.18217 13.637704,-8.43045 8.203928,-3.06556 23.619522,-2.44465 33.407182,1.34557 4.03334,1.5619 9.43334,3.65628 12,4.65419 20.53448,7.98375 29.7959,9.74583 58.72446,11.17293 15.0469,0.7423 17.97854,1.231 18.32712,3.05514 0.22822,1.19432 -0.52278,3.10924 -1.6689,4.25536 -1.7586,1.7586 -5.9466,2.046 -26.83158,1.84129 -13.61126,-0.13341 -24.95704,-0.45188 -25.21288,-0.70771 z m -55.82396,-12.88556 c 2.10049,-1.09548 4.86908,-1.99548 6.15241,-2 1.28333,-0.004 2.33333,-0.6763 2.33333,-1.49288 0,-0.96689 -1.51124,-1.17732 -4.33333,-0.60338 -2.38333,0.48469 -6.283333,1.21844 -8.666667,1.63053 C 93.881101,183.96649 92,185.09663 92,186.14588 c 0,2.42439 4.056085,2.36128 8.84759,-0.13767 z M 29.333333,170.66667 c 0,-0.73334 -1.164589,-1.33334 -2.587977,-1.33334 -1.423388,0 -2.958797,0.6 -3.412023,1.33334 -0.467364,0.75621 0.652822,1.33333 2.587978,1.33333 1.876612,0 3.412022,-0.6 3.412022,-1.33333 z M 124.65493,64.991084 c -3.67312,-3.845096 -8.47312,-9.528273 -10.66666,-12.629283 -6.20703,-8.774852 -9.0677,-8.074205 -23.424553,5.737238 -12.6389,12.158753 -16.217473,13.568989 -17.003825,6.70083 -0.384121,-3.354993 1.184825,-5.370357 12.333333,-15.842566 7.025394,-6.599215 12.773442,-12.44841 12.773442,-12.998214 0,-0.549802 -4.509074,-6.315517 -10.020164,-12.812698 C 78.362391,11.022158 76.631745,6.3862109 82.09804,5.6047659 85.374241,5.1364097 96.64772,15.52144 101.90689,23.852509 c 1.90294,3.014454 4.04104,5.480824 4.75133,5.480824 0.71029,0 7.60627,-5.079825 15.32439,-11.2885 C 136.22459,6.5881901 140,5.1962347 140,11.402011 c 0,2.116618 -2.19663,4.958761 -6.84566,8.857348 C 122.15375,29.484256 116,35.8524 116,38.01136 c 0,1.106248 4.8,7.364873 10.66667,13.908056 10.48034,11.688892 12.25042,15.296831 9.06666,18.480584 -2.62611,2.626112 -4.08158,1.915493 -11.0784,-5.408916 z"
       id="path529" />
  </g>
</svg>
