<?xml version="1.0" encoding="UTF-8" standalone="no"?>
<!-- Created with Inkscape (http://www.inkscape.org/) -->

<svg
   version="1.1"
   id="svg193"
   width="206.66667"
   height="216"
   viewBox="0 0 206.66667 216"
   xmlns="http://www.w3.org/2000/svg"
   xmlns:svg="http://www.w3.org/2000/svg">
  <defs
     id="defs197" />
  <g
     id="g199">
    <path
       style="fill:#000000;stroke-width:1.33333"
       d="M 58.014546,208.84219 C 55.598282,207.07536 55.608529,206.97 58.338718,205.50885 59.889336,204.67899 64.39288,204 68.346594,204 c 7.912663,0 9.953251,-1.46496 15.428371,-11.07621 C 89.8771,182.21185 86.838229,178.33964 67.007469,171.55821 51.816325,166.36337 45.74033,162.04757 37.32723,150.47624 26.038215,134.94939 23.14627,131.70619 18.386451,129.23499 c -2.720785,-1.41258 -5.827928,-2.56832 -6.904762,-2.56832 -2.8460495,0 -6.1570116,-3.75935 -5.2933009,-6.01014 0.4357892,-1.13565 3.4549626,-2.29289 7.3194919,-2.80554 4.748284,-0.62988 7.297034,-1.78699 9.163926,-4.16036 2.707382,-3.44188 9.428013,-5.62526 17.328195,-5.62954 6.06883,-0.003 14.306915,3.8179 19.333333,8.96764 3.927374,4.02373 8.682414,6.28198 28.666667,13.61428 5.500001,2.01797 12.999999,5.53802 16.666669,7.82234 6.68096,4.1622 20.96078,11.39872 30.33669,15.37357 4.51587,1.91447 5.84768,1.92533 13.66882,0.11147 9.26301,-2.14824 24.92038,-9.04963 27.45218,-12.10026 0.84452,-1.01758 2.96203,-1.85016 4.70556,-1.85016 2.42918,0 3.17008,0.72475 3.17008,3.10092 0,3.969 -3.97913,7.57544 -14,12.68871 l -8,4.08211 5.75432,0.0641 c 3.16488,0.0353 6.89803,-0.54796 8.29588,-1.29607 4.06806,-2.17716 18.28615,-2.45556 21.19931,-0.4151 1.40053,0.98096 3.25396,3.92745 4.11873,6.54773 1.42015,4.30309 1.27831,5.07712 -1.46562,7.99789 -1.67086,1.77856 -5.18248,3.86546 -7.8036,4.63756 -16.37699,4.82416 -19.64235,5.27083 -37.20059,5.0886 -28.43512,-0.29509 -26.89054,-0.55324 -26.94567,4.50352 -0.026,2.38334 -0.90473,5.83334 -1.95276,7.66667 -1.04803,1.83333 -1.92676,4.68333 -1.95275,6.33333 -0.0384,2.43656 0.68353,3 3.8437,3 5.13504,0 8.10905,1.22251 8.10905,3.33334 0,0.94308 -0.94906,2.07889 -2.10905,2.52401 -3.52856,1.35404 -17.26381,0.90312 -18.78358,-0.61664 -1.01239,-1.0124 -5.13487,-1.0124 -14.21411,0 -18.445335,2.05677 -39.792223,1.85837 -42.878714,-0.39852 z m 56.904434,-6.50886 c 1.20564,-2.38333 2.53192,-6.77548 2.94731,-9.76032 0.67577,-4.85594 0.30166,-5.85628 -3.55552,-9.50696 -3.18245,-3.01205 -5.96849,-4.2534 -10.6441,-4.74256 -6.263886,-0.65533 -6.333335,-0.6198 -6.333335,3.23984 0,4.42836 -2.895267,10.6636 -7.52984,16.21623 -1.735063,2.07876 -2.861291,4.25424 -2.502731,4.8344 0.35856,0.58017 5.312572,1.14365 11.008916,1.25219 5.69634,0.10853 10.55699,0.78305 10.80143,1.49893 0.89911,2.63309 3.67536,1.18388 5.80787,-3.03175 z m 71.41436,-30.77321 c 2.38333,-2.24579 4.33333,-4.88436 4.33333,-5.86352 0,-2.83276 -3.95789,-3.59719 -5.77293,-1.11499 -1.24083,1.69694 -5.23676,2.59416 -16.26927,3.65303 -18.32707,1.75897 -65.76278,0.44565 -77.041439,-2.13299 -4.537334,-1.03737 -11.62982,-2.61369 -15.761084,-3.50293 -8.234931,-1.77253 -18.309037,-9.13884 -21.842238,-15.97129 -2.920104,-5.64686 -1.238195,-11.72168 3.927317,-14.18495 l 4.195679,-2.00078 -4.051352,-4.25294 C 54.4295,122.38669 45.05359,116 43.093861,116 c -0.414542,0 0.008,0.91777 0.938909,2.03949 1.294247,1.55947 1.339399,2.81472 0.191845,5.33333 -2.064554,4.5312 -7.728405,4.50838 -9.800553,-0.0395 -1.672073,-3.6698 -2.172387,-3.8733 -5.049407,-2.05375 -1.631833,1.03203 -1.238871,2.19672 2.354899,6.97958 2.372468,3.15746 6.072083,9.11076 8.221368,13.22953 6.393663,12.25251 14.280974,17.40197 38.049079,24.84148 22.188729,6.94516 33.268389,8.11412 80.999999,8.54589 9.35,0.0845 17,0.6159 17,1.18071 0,2.11805 6.15672,-0.56111 10.33334,-4.49665 z m -58.5983,-10.72372 c 1.858,-1.858 1.88167,-2.16973 0.16475,-2.16973 -2.25717,0 -19.4882,-8.6736 -22.56645,-11.3593 -1.1,-0.95972 -8.196244,-4.29854 -15.769424,-7.41961 -13.057184,-5.38112 -13.953765,-5.56884 -17.333334,-3.62907 -1.960153,1.12508 -5.213914,2.43856 -7.230581,2.91886 -2.409675,0.57389 -3.666667,1.74316 -3.666667,3.41078 0,3.48752 11.152845,12.72683 17.842075,14.78083 20.975681,6.44084 43.945911,8.08095 48.559631,3.46724 z M 74.333335,35.893201 C 71.098976,34.00936 71.256384,24.851289 74.616569,19.414393 76.949061,15.640343 84.640201,9.7947857 92.912347,5.5089123 97.704832,3.0258819 113.38341,3.6332201 119.04828,6.5213356 c 2.72,1.3867345 6.3424,2.8719475 8.04978,3.3004733 4.03358,1.0123641 10.23786,7.0303721 13.43026,13.0270311 3.11954,5.859811 2.14536,10.779084 -2.55909,12.922575 -4.37527,1.993505 -60.238791,2.100418 -63.635895,0.121786 z M 136,27.636439 c 0,-7.347968 -15.57305,-15.647758 -29.31451,-15.623414 -9.638243,0.01708 -20.303831,4.869534 -23.989187,10.914215 -1.477484,2.423351 -2.688576,4.814363 -2.691318,5.313359 -0.0084,1.51963 4.972844,1.874917 30.995015,2.210738 l 25,0.322631 z"
       id="path668" />
  </g>
</svg>
