<?xml version="1.0" encoding="UTF-8" standalone="no"?>
<!-- Created with Inkscape (http://www.inkscape.org/) -->

<svg
   version="1.1"
   id="svg183"
   width="145.33333"
   height="164"
   viewBox="0 0 145.33333 164"
   xmlns="http://www.w3.org/2000/svg"
   xmlns:svg="http://www.w3.org/2000/svg">
  <defs
     id="defs187" />
  <g
     id="g189">
    <path
       style="fill:#000000;stroke-width:1.33333"
       d="M 9.5831946,158.97217 C 5.6654087,157.66625 4.4574558,149.94443 4.2166542,124.66667 4.0839223,110.73333 3.6383871,96.933333 3.2265761,94 2.3479315,87.741408 5.7001621,70.340332 8.6525285,65.834452 10.769465,62.603599 18.010449,58.270649 27.326369,54.660171 34.043061,52.057048 34.434346,50.310264 33.647394,26.441733 L 33.046514,8.2168003 36.85659,6.4417335 C 39.702535,5.1158433 48.932892,4.6666667 73.333332,4.6666667 H 106 l 0.66666,22.8889733 c 0.36667,12.588935 0.96667,23.173969 1.33334,23.522299 0.36666,0.348329 4.56666,2.421073 9.33333,4.6061 4.82064,2.209768 10.78702,6.267782 13.4447,9.144368 6.00206,6.496438 7.49703,14.18469 8.52431,43.838263 0.40647,11.73333 1.08296,26.45112 1.50331,32.7062 0.67253,10.00776 0.44963,11.76142 -1.85708,14.61009 -2.20323,2.72088 -3.11588,3.01656 -5.7218,1.85376 -3.09746,-1.38212 -3.10068,-1.41163 -3.34292,-30.61009 -0.36784,-44.337401 -3.6367,-59.517291 -13.20303,-61.311945 -8.51211,-1.596881 -8.65102,-1.301617 -8.95886,19.043468 -0.15291,10.10635 -0.093,26.775177 0.13307,37.041847 0.37348,16.95841 0.72773,19.30384 3.87098,25.62928 1.90293,3.82943 3.09059,7.33189 2.63923,7.78325 -1.90776,1.90776 -10.33026,2.9027 -12.15822,1.43623 -2.725594,-2.1866 -3.510124,-16.373 -4.28671,-77.515427 C 97.141734,18.034268 96.932238,15.142248 93.184175,13.95266 89.004918,12.626215 77.63185,14.632228 76.782486,16.845636 c -0.412869,1.07592 -0.738906,28.168356 -0.724526,60.205413 0.02224,49.562281 0.355164,59.612361 2.232349,67.389801 2.557642,10.59666 1.6397,13.33926 -4.676031,13.97084 -3.199506,0.31996 -4.613373,-0.3462 -6.34547,-2.9897 -1.329868,-2.02964 -1.843714,-4.34658 -1.274124,-5.74503 1.089861,-2.67583 0.725121,-93.518751 -0.518352,-129.102413 l -0.143,-4.092119 -9.228249,-0.171117 c -6.786432,-0.12584 -9.672883,0.364634 -10.908631,1.85362 -3.233621,3.896274 -1.481632,104.707739 2.294922,132.052459 0.662154,4.79444 0.362716,5.76688 -2.19771,7.13717 -4.088525,2.18812 -9.294101,-0.23528 -9.292421,-4.32597 6.83e-4,-1.66572 -0.313453,-10.52859 -0.698082,-19.69526 -0.384628,-9.16666 -0.665858,-25.22673 -0.624952,-35.689026 0.04091,-10.4623 -0.322258,-22.0123 -0.807027,-25.666667 -0.815687,-6.148953 -1.155235,-6.644304 -4.554473,-6.644304 -4.791218,0 -13.287475,9.100824 -13.38476,14.337175 -0.03743,2.014553 0.100892,11.762825 0.307377,21.662822 0.206487,9.9 0.234146,22.4103 0.06147,27.80066 -0.17268,5.39036 0.495391,12.90001 1.484603,16.68812 1.216648,4.65905 1.386937,7.80996 0.526324,9.73866 -1.255894,2.81456 -5.519713,4.481 -8.7285254,3.4114 z"
       id="path807" />
  </g>
</svg>
