<?xml version="1.0" encoding="UTF-8" standalone="no"?>
<!-- Created with Inkscape (http://www.inkscape.org/) -->

<svg
   version="1.1"
   id="svg173"
   width="218.66667"
   height="208"
   viewBox="0 0 218.66667 208"
   xmlns="http://www.w3.org/2000/svg"
   xmlns:svg="http://www.w3.org/2000/svg">
  <defs
     id="defs177" />
  <g
     id="g179">
    <path
       style="fill:#000000;stroke-width:1.33333"
       d="M 28.978664,199.85031 C 21.96398,198.02329 5.7866721,187.52883 4.6981325,184.09913 c -1.0074496,-3.17418 0.4651284,-6.7658 2.7740116,-6.7658 1.019429,0 4.1052359,1.97487 6.8573479,4.38859 6.709564,5.88459 11.260778,7.67956 21.622714,8.52789 7.584491,0.62095 9.189904,0.33591 12.381128,-2.19828 2.016667,-1.60146 3.666667,-3.404 3.666667,-4.00565 0,-2.26345 -4.690295,-2.74931 -11.604138,-1.20205 -7.661415,1.71454 -10.488737,0.68694 -8.973581,-3.2615 1.790056,-4.66481 19.671243,-6.52848 29.469484,-3.07146 4.150526,1.4644 16.195487,1.80765 58.484754,1.66666 L 172.63424,178 l 0.13622,-16 c 0.0749,-8.8 0.55209,-17.28521 1.06037,-18.85604 1.10593,-3.4178 4.3554,-4.43479 14.24767,-4.45909 11.63174,-0.0285 11.67568,0.0581 12.33601,24.35589 0.52984,19.49599 0.3764,21.28921 -2.09011,24.42485 l -2.66192,3.3841 -29.4979,-0.69334 C 149.94072,189.77505 128.26667,189.19076 118,188.85796 c -11.75075,-0.38091 -20.271823,-0.0588 -22.999129,0.86935 -3.266244,1.11157 -4.726436,1.08045 -5.933334,-0.1264 C 88.069759,188.60309 83.140384,188 75.982789,188 c -11.126899,0 -11.605612,0.12907 -15.4,4.15312 -7.404536,7.85265 -19.601692,10.82327 -31.604125,7.69719 z M 191.20056,170.9032 c 0.48308,-4.26991 0.47798,-11.16991 -0.012,-15.33333 -0.78318,-6.66371 -1.244,-7.56987 -3.8495,-7.56987 -2.6436,0 -3.05132,0.87557 -3.81642,8.19559 -1.10853,10.6058 -1.0938,20.45612 0.0323,21.58218 0.48953,0.4889 2.21204,0.8889 3.82843,0.8889 2.59257,0 3.04238,-0.91484 3.81722,-7.76347 z M 84.666668,58.604301 C 62.061498,56.060865 47.829634,52.689084 27.171459,44.982665 9.9352286,38.552784 6.0871568,36.083563 5.597397,31.139069 c -0.3813169,-3.849681 0.013643,-4.21635 7.470228,-6.935158 4.330057,-1.578818 8.480313,-2.870578 9.222791,-2.870578 0.742479,0 2.829599,-1.163884 4.638046,-2.586408 1.912212,-1.504145 9.011397,-3.733756 16.965755,-5.32836 7.522718,-1.508075 14.181503,-3.053339 14.797297,-3.4339214 3.144266,-1.9432629 33.868123,-4.7169979 52.641826,-4.752478 19.82696,-0.037471 39.08194,1.6310479 42.38572,3.6728857 0.77482,0.4788722 3.55501,1.3131897 6.1782,1.8540397 15.71376,3.239878 42.80764,12.808897 49.76941,17.57757 2.5366,1.737514 3.66667,3.668191 3.66667,6.264331 0,3.206521 -1.01887,4.247571 -7,7.152421 -9.2949,4.514242 -38.42572,12.208887 -61,16.112607 -11.14848,1.927879 -46.292798,2.355567 -60.666672,0.738281 z M 146.53538,45.16852 c 22.40457,-3.584375 39.87937,-7.270469 45.25753,-9.546523 l 4.45959,-1.887305 -6.2232,-3.647039 c -4.17774,-2.448313 -10.02599,-4.229513 -17.79292,-5.419178 -6.36334,-0.974678 -16.20968,-2.74602 -21.88076,-3.936318 -14.97295,-3.142658 -36.61805,-4.359004 -55.688952,-3.129437 -22.92751,1.478215 -47.034767,4.966607 -51.579013,7.463635 -1.601789,0.880172 -5.201789,1.603658 -8,1.607748 -5.789224,0.0084 -14.648157,2.202753 -15.6884,3.8859 -0.911307,1.474525 25.465359,10.165189 36.600746,12.059324 4.766667,0.810813 12.266667,2.271713 16.666667,3.246446 4.4,0.974732 14,1.905599 21.333333,2.068592 7.333329,0.162994 13.632569,0.593678 13.998309,0.957078 1.05037,1.043662 20.46869,-0.832268 38.53707,-3.722923 z"
       id="path946" />
  </g>
</svg>
