<?xml version="1.0" encoding="UTF-8" standalone="no"?>
<!-- Created with Inkscape (http://www.inkscape.org/) -->

<svg
   version="1.1"
   id="svg83"
   width="160"
   height="84"
   viewBox="0 0 160 84"
   xmlns="http://www.w3.org/2000/svg"
   xmlns:svg="http://www.w3.org/2000/svg">
  <defs
     id="defs87" />
  <g
     id="g89">
    <path
       style="fill:#000000;stroke-width:1.33333"
       d="M 24.666667,76.419241 C 15.746984,75.024101 8,62.667865 8,49.836343 8,40.413453 12.023864,32 16.530505,32 c 1.728636,0 3.826588,-0.823703 4.662114,-1.830449 1.24882,-1.504736 0.418145,-1.85255 -4.668222,-1.954644 C 9.8959473,28.081859 4,25.157797 4,22.003503 4,19.942293 10.505457,16 13.906805,16 23.21304,16 33.229113,26.555388 33.454487,36.600224 L 33.575639,42 35.495692,34.666667 C 40.081935,17.150257 47.518165,9.6507745 63.242549,6.6837964 c 6.764535,-1.2763761 9.648603,-1.2701219 13.66574,0.029635 13.604367,4.4017326 23.668201,12.0563116 25.184061,19.1550776 0.48524,2.27232 1.38457,4.758759 1.99852,5.525422 0.61396,0.766661 1.056,5.566661 0.98231,10.666666 -0.0869,6.01323 0.87743,12.620012 2.74327,18.795163 2.86228,9.472967 2.73064,13.810907 -0.41912,13.810907 -2.5922,0 -5.95114,-4.435702 -6.88149,-9.08749 -0.46705,-2.335214 -1.581991,-4.245844 -2.477656,-4.245844 -2.446651,0 -9.524699,3.77472 -11.467441,6.11558 -6.261975,7.545219 -24.090584,7.954314 -36.816422,0.84479 C 45.682865,66.019108 44,66.262715 44,69.126683 c 0,5.442762 -9.133495,8.887929 -19.333333,7.292558 z m 9.257728,-8.715916 C 36.064948,64.647257 36.509864,53.792547 34.813976,46 c -0.971809,-4.465433 -1.691517,-3.772183 -4.152657,4 -0.928871,2.933333 -2.824204,7.591863 -4.211855,10.352287 -1.937521,3.854273 -2.194173,5.633373 -1.105987,7.666666 1.880003,3.512818 6.005662,3.361066 8.580918,-0.315628 z m 45.795389,-4.894778 c 8.93666,-4.561088 13.613549,-12.663355 13.613549,-23.584183 0,-9.239636 -4.415293,-16.17696 -12.666666,-19.901907 -10.32098,-4.659237 -12.63884,-5.077402 -18.524188,-3.341954 -9.639084,2.842336 -11.984188,4.830868 -16.539488,14.024664 -4.391891,8.863993 -4.39466,8.88235 -2.378679,15.767912 2.695319,9.205834 5.104371,12.317088 12.531955,16.18482 7.751817,4.036569 17.072958,4.367446 23.963517,0.850648 z M 64.519379,43.430301 C 63.022437,39.529336 64.631989,35.451297 68,34.611631 c 1.833333,-0.457062 4.083333,-0.567464 5,-0.24534 1.761377,0.618961 2.216104,5.317132 0.857348,8.857993 -1.021076,2.660881 -8.334037,2.822223 -9.337969,0.206017 z M 19.997503,57.333333 c 0.864378,-1.81976 4.428244,-11.901872 6.244885,-17.666666 0.590565,-1.874058 -0.06776,-2.333334 -3.344608,-2.333334 -5.906471,0 -8.231113,4.065298 -8.231113,14.39444 0,7.140122 0.34343,8.400167 2.190422,8.036659 1.204732,-0.237104 2.617919,-1.331099 3.140414,-2.431099 z M 140.45059,73.335159 c -1.58551,-0.639363 -3.21706,-2.251331 -3.62566,-3.582152 -1.4869,-4.842891 0.17779,-59.081401 1.87614,-61.1277823 0.91564,-1.1032806 3.87206,-1.958558 6.77012,-1.958558 4.28804,0 5.27561,0.5217092 5.93105,3.1331973 0.43252,1.723259 0.53275,16.216376 0.22273,32.206928 -0.50998,26.306235 -0.79706,29.244411 -3.01581,30.866803 -2.78204,2.034278 -4.07685,2.107532 -8.15857,0.461564 z"
       id="path1085" />
  </g>
</svg>
