<?xml version="1.0" encoding="UTF-8" standalone="no"?>
<!-- Created with Inkscape (http://www.inkscape.org/) -->

<svg
   version="1.1"
   id="svg317"
   width="216"
   height="198.66667"
   viewBox="0 0 216 198.66667"
   xmlns="http://www.w3.org/2000/svg"
   xmlns:svg="http://www.w3.org/2000/svg">
  <defs
     id="defs321" />
  <g
     id="g323">
    <path
       style="fill:#000000;stroke-width:1.33333"
       d="m 100,193.20676 c -4.033333,-0.51866 -11.909867,-1.00237 -17.503407,-1.07489 -13.004365,-0.16861 -14.213521,-1.33499 -11.935702,-11.51335 2.3613,-10.5514 9.924941,-19.67985 18.729382,-22.60421 9.049172,-3.00565 26.115857,-3.07939 31.805027,-0.1374 7.21097,3.72893 17.11133,14.34724 20.22271,21.68923 2.59336,6.11956 2.71983,7.32529 1.11875,10.66666 L 140.63164,194 123.98249,194.0749 C 114.82545,194.116 104.03333,193.72539 100,193.20672 Z m 33.1364,-9.94473 c 0.25835,-0.23304 -0.92415,-3.21469 -2.62778,-6.62589 -2.16429,-4.33356 -4.91694,-7.27183 -9.1364,-9.7525 -5.29325,-3.11193 -7.32176,-3.51954 -16.42877,-3.30114 -9.465891,0.227 -10.948101,0.64817 -16.66667,4.73596 -7.145407,5.10772 -12.68358,13.73953 -9.925777,15.47033 1.533405,0.96237 53.690507,0.46089 54.785397,-0.52676 z M 84.646113,130.86095 c -0.77618,-0.76423 -17.92432,-3.77483 -27.29958,-4.79284 -4.759406,-0.5168 -9.259406,-1.42883 -10,-2.02675 C 46.60594,123.44344 41.2,121.63509 35.333333,120.02279 29.466667,118.4105 23.466667,116.36172 22,115.46995 c -1.466667,-0.89178 -5.066667,-2.33907 -8,-3.21621 -2.933333,-0.87715 -6.8049972,-2.73742 -8.6036976,-4.13394 -6.9918025,-5.4285 1.4681089,-11.172628 25.9370306,-17.610796 2.933334,-0.771806 6.533334,-1.96836 8,-2.659005 4.651652,-2.19044 24.87944,-5.307848 50.001259,-7.705951 21.820138,-2.082929 58.442378,1.010409 76.665408,6.475628 2.2,0.659796 6.7,1.962361 10,2.89459 3.3,0.932229 10.8,3.873114 16.66667,6.535301 5.86666,2.662187 12.30753,5.249253 14.31302,5.749023 3.7966,0.94613 6.0257,5.65822 4.52576,9.56701 -1.53265,3.99402 -17.56814,9.64958 -35.94949,12.67904 -4.27756,0.70499 -11.47756,2.1282 -16,3.16269 -4.52245,1.03449 -13.62263,2.34921 -20.22263,2.92159 -12.10457,1.04977 -53.797683,1.60786 -54.687217,0.73203 z m 47.599567,-9.68291 c 1.23512,-0.64792 5.13512,-1.19054 8.66667,-1.20582 3.53154,-0.0153 10.32098,-0.88651 15.08765,-1.93605 4.76667,-1.04954 14.36667,-2.89996 21.33333,-4.11204 24.17115,-4.20535 21.46823,-8.48318 -11.33333,-17.936955 -7.12489,-2.053472 -19.61111,-4.012713 -38.15118,-5.986392 -16.94467,-1.803839 -39.513645,-1.304639 -56.515487,1.25006 -2.2,0.330572 -8.21359,1.212855 -13.363534,1.960627 -5.149944,0.747773 -11.97538,2.281098 -15.167635,3.407392 -3.192256,1.126293 -7.886091,2.047806 -10.430743,2.047806 C 27.297057,98.666668 20,102.31018 20,104.84387 c 0,2.9876 29.235064,11.84446 45.333333,13.73389 18.407755,2.16048 21.660646,2.59867 28.666667,3.8616 7.68363,1.38507 34.91275,0.48707 38.24568,-1.26132 z M 119.08116,65.00583 c -2.15462,-1.530696 -7.17829,-6.939861 -11.16371,-12.020366 -3.98542,-5.080507 -7.67083,-9.499713 -8.189809,-9.820457 C 97.398864,41.725743 89.288023,47.000387 81.333333,55.1272 74.820092,61.781374 71.755603,63.983706 69,63.990698 c -2.371377,0.006 -3.666667,-0.695861 -3.666667,-1.986856 0,-3.506221 13.234822,-17.202921 21.564986,-22.317577 6.017117,-3.694462 4.889737,-7.139379 -6.224334,-19.019598 C 73.107623,12.578717 70.77234,9.1969072 71.014269,6.6780676 71.65454,0.01190151 75.469156,2.19749 85.960548,15.241554 c 5.626292,6.995229 10.838676,13.095016 11.583077,13.555081 0.744402,0.460065 3.251615,-0.938699 5.571585,-3.108364 2.31997,-2.169665 6.58681,-5.687116 9.48187,-7.816559 2.89506,-2.129441 6.79506,-5.280327 8.66667,-7.001968 4.81607,-4.4301826 7.26723,-5.5230059 9.41314,-4.1967584 3.13824,1.9395413 -0.39504,6.4644254 -13.39382,17.1527504 -6.67678,5.49002 -11.94974,10.846499 -11.94974,12.139022 0,1.272307 4.8,7.851245 10.66667,14.619863 5.86667,6.768617 10.66667,13.091864 10.66667,14.05166 0,3.066183 -3.5465,3.23896 -7.58551,0.369549 z"
       id="path345" />
  </g>
</svg>
