<?xml version="1.0" encoding="UTF-8" standalone="no"?>
<!-- Created with Inkscape (http://www.inkscape.org/) -->

<svg
   version="1.1"
   id="svg323"
   width="220"
   height="209.33333"
   viewBox="0 0 220 209.33333"
   xmlns="http://www.w3.org/2000/svg"
   xmlns:svg="http://www.w3.org/2000/svg">
  <defs
     id="defs327" />
  <g
     id="g329">
    <path
       style="fill:#000000;stroke-width:1.33333"
       d="m 8.4314231,200.24073 c -1.2573743,-1.25723 -1.379734,-2.4688 -0.4287796,-4.24567 0.7318794,-1.36753 1.3306898,-3.95749 1.3306898,-5.75548 0,-3.28634 6.5927837,-14.25056 16.3693667,-27.22328 9.592675,-12.72869 4.925304,-11.9272 76.96397,-13.2163 76.25086,-1.3645 108.17064,-0.99574 109.60852,1.26626 1.53249,2.41087 1.26684,4.53456 -0.82946,6.63087 -1.58622,1.58623 -14.95942,1.89263 -83.7606,1.91907 -89.887313,0.0345 -86.838778,-0.22656 -94.705059,8.11198 -6.802779,7.21119 -13.808147,21.3104 -11.657107,23.46144 1.354896,1.35491 56.714905,1.64515 152.486356,0.7995 41.0808,-0.36275 42.10109,-0.24547 42.17027,4.84762 0.0673,4.95728 -1.19984,5.01874 -105.00329,5.09206 C 29.223583,201.98653 9.8586279,201.66777 8.4314231,200.24073 Z M 83.333333,73.067968 C 73.8,72.555351 53.7,72.063082 38.666667,71.974038 4.3657889,71.770867 4.9411791,72.00158 4.3954977,58.232364 4.0529583,49.589041 4.324284,48.089561 6.331904,47.530822 10.775607,46.294101 26.0633,45.225961 41,45.108586 c 8.25,-0.06483 15,-0.509792 15,-0.988808 0,-0.479016 -2.85,-1.632681 -6.333333,-2.5637 -3.483334,-0.931019 -9.333334,-2.914545 -13,-4.407837 C 33,35.654949 28.031713,33.852451 25.626029,33.14269 16.516772,30.455138 10.018948,26.139797 9.5949199,22.49609 9.0470261,17.787998 13.122119,16.823084 18.847897,20.305138 c 6.263772,3.809227 39.215259,14.483736 47.299715,15.322563 l 6.814279,0.707037 0.654348,-6.80993 c 0.42268,-4.398908 1.917009,-8.631951 4.220733,-11.956224 3.565601,-5.145166 3.569373,-5.146668 17.198039,-6.848476 7.620729,-0.951599 14.591409,-2.543102 15.808199,-3.609233 1.34855,-1.18158 3.4489,-1.5877092 5.5212,-1.067594 1.87696,0.4710848 3.73558,0.2069525 4.23549,-0.6019116 1.27371,-2.0609145 6.79207,-1.7805715 8.63383,0.438615 0.95391,1.1493926 1.40597,5.4241686 1.16326,10.9999996 -0.39522,9.079358 -0.41928,9.130908 -5.39699,11.56316 -9.25301,4.521283 -5.39187,9.807375 5.13523,7.030381 11.77653,-3.106591 12.53144,-3.86847 12.53144,-12.64712 0,-6.053116 -0.58292,-8.273971 -2.66667,-10.159739 -2.91161,-2.634976 -3.51309,-6.6528313 -1.20911,-8.0767742 2.64336,-1.6336906 11.65163,-0.7982367 14.9919,1.390396 1.80448,1.182339 3.9791,3.8353891 4.83249,5.8956672 0.8534,2.060278 3.35256,5.077446 5.55371,6.704819 3.97956,2.942212 4.04097,2.945332 10.91654,0.554459 3.80296,-1.322423 8.77111,-3.76884 11.04032,-5.436485 4.69112,-3.447495 11.86991,-4.0369486 13.00914,-1.068185 1.08066,2.816179 -5.18438,9.688643 -9.74556,10.690451 C 187.25992,23.788732 184.83468,24.994276 184,26 c -0.83468,1.005724 -3.27613,2.21483 -5.42547,2.686901 -5.19149,1.140244 -5.07601,4.556534 0.36344,10.751725 4.12071,4.693227 4.51118,4.836559 11.07434,4.065188 7.33076,-0.861587 15.14333,0.745892 16.87353,3.471824 2.87468,4.529067 -0.33925,22.568093 -4.48532,25.17492 -0.71487,0.449473 -20.59743,0.563288 -44.18347,0.252921 C 134.631,72.093112 112.03333,72.325362 108,72.919587 103.96667,73.513813 92.866667,73.580585 83.333333,73.067968 Z M 99.4,64.107879 c 1.3504,-1.306463 15.58214,-2.791701 26.6,-2.776003 3.66667,0.0052 11.9766,1.007319 18.46651,2.226879 10.16393,1.909965 14.32865,2.011633 30.04009,0.733328 10.03213,-0.816228 19.2722,-1.880052 20.53348,-2.364052 3.43047,-1.316391 2.94232,-7.100748 -0.70675,-8.374804 -1.65,-0.576091 -15,-0.551987 -29.66666,0.05356 -27.94768,1.153891 -86.143722,2.228153 -126.333337,2.332036 l -23.666666,0.06118 V 59.1779 c 0,2.275538 0.888408,3.347727 3.128764,3.775998 1.72082,0.328956 18.07082,0.350377 36.333333,0.0476 20.762365,-0.344219 34.453615,-0.04214 36.537903,0.806154 4.279625,1.741791 7.141596,1.840179 8.733333,0.300231 z m 46.65483,-20.196588 c 0.48337,-0.782122 0.64258,-1.658325 0.3538,-1.947116 C 145.4928,41.048357 140,42.926538 140,44.155507 c 0,1.668512 4.99727,1.466951 6.05483,-0.244216 z m 18.80285,-0.594938 c 1.89816,-4.946524 -5.74143,-7.60875 -13.43755,-4.682688 -4.22113,1.604872 -4.4673,4.97917 -0.42013,5.75869 7.12216,1.371787 13.09639,0.907908 13.85768,-1.076002 z m -55.6074,-2.833502 c 0.32099,-0.296436 0.83686,-4.039937 1.14637,-8.318892 0.54779,-7.573117 0.70062,-7.840749 5.74972,-10.068402 3.9742,-1.753416 5.18696,-3.045296 5.18696,-5.525355 0,-3.923078 -0.44166,-3.97335 -5.05399,-0.575272 -2.52554,1.860663 -6.76576,2.926294 -14.09076,3.541218 C 89.061773,20.638124 84,24.068805 84,31.863685 c 0,7.100866 2.202436,9.269912 10,9.848392 6.46892,0.47991 14.06233,-0.132147 15.25028,-1.229226 z"
       id="path1096" />
  </g>
</svg>
