<?xml version="1.0" encoding="UTF-8" standalone="no"?>
<!-- Created with Inkscape (http://www.inkscape.org/) -->

<svg
   version="1.1"
   id="svg193"
   width="150.66667"
   height="214.66667"
   viewBox="0 0 150.66667 214.66667"
   xmlns="http://www.w3.org/2000/svg"
   xmlns:svg="http://www.w3.org/2000/svg">
  <defs
     id="defs197" />
  <g
     id="g199">
    <path
       style="fill:#000000;stroke-width:1.33333"
       d="m 96.666669,210.27915 c -4.4,-0.59757 -23.000001,-0.85471 -41.333334,-0.57139 -33.871941,0.52344 -38.61048,0.004 -40.004605,-4.38893 -1.639056,-5.16421 0.544486,-6.71453 9.157175,-6.50164 15.157657,0.37467 31.388307,-1.05367 33.720411,-2.96748 1.239692,-1.01733 4.591043,-6.94971 7.447447,-13.18304 2.856404,-6.23333 5.871003,-12.71468 6.699108,-14.403 1.284157,-2.61811 0.694609,-4.70499 -4.007637,-14.18629 -3.032306,-6.11415 -6.213149,-14.9328 -7.068539,-19.597 C 60.421304,129.81617 59.385692,124.5 58.975336,122.66667 58.56498,120.83334 58.3374,118.85411 58.469603,118.26838 58.742204,117.06062 42.578204,96.026337 39.26345,93.275336 38.072469,92.286909 34.42139,86.148688 31.149941,79.634843 25.348978,68.084436 25.208922,67.505488 25.487722,56.229077 25.70617,47.393715 25.223311,43.608701 23.440446,40.180995 21.25612,35.981445 20.780422,35.747593 15.982676,36.514783 10.342677,37.416655 6.6666668,35.114494 6.6666668,30.680479 6.6666668,25.919092 8.243286,24 12.154977,24 c 3.21957,0 4.57493,-1.146188 8.067641,-6.822568 2.715163,-4.4127 5.756923,-7.473941 8.611517,-8.6666668 C 35.239501,5.8344329 45.1933,6.1847526 50.243798,9.2642692 54.667289,11.961472 65.333335,24.5084 65.333335,27.014743 c 0,0.793072 0.779378,2.389193 1.731953,3.546936 0.952574,1.157744 3.171739,5.404988 4.931476,9.438322 3.995434,9.157561 7.125964,12.750316 14.319463,16.433736 6.583486,3.371063 28.489913,24.394715 33.209843,31.871574 1.77694,2.814852 5.49403,7.450024 8.26021,10.300384 6.54854,6.747815 17.60415,24.712985 18.46224,30.000795 0.55091,3.39488 0.1088,4.40004 -2.45497,5.58215 -9.16184,4.22432 -12.86884,6.13004 -16.8404,8.65744 -2.4091,1.5331 -7.2091,3.50908 -10.66667,4.39108 L 110,148.84079 109.82894,163.4204 c -0.12948,11.03612 -0.85065,16.52395 -2.96721,22.5796 -3.72463,10.65643 -3.64455,11.10656 2.06114,11.58618 4.3314,0.3641 5.06045,0.94828 6.0679,4.86206 2.01715,7.8363 -2.87878,9.92859 -18.324101,7.83091 z m -2.766608,-13.61248 c 1.108322,-1.46667 2.034214,-4.04336 2.057537,-5.72597 0.02332,-1.68263 1.011397,-6.9169 2.195722,-11.63172 1.184324,-4.71482 1.801149,-9.97555 1.370721,-11.69051 -0.430428,-1.71496 -3.900083,-6.68064 -7.710346,-11.03484 l -6.927749,-7.91673 0.811473,5.33322 c 0.51106,3.35883 0.07252,7.30766 -1.184601,10.66655 -1.097841,2.93333 -2.497464,6.83333 -3.110272,8.66667 -1.645632,4.92322 -6.386614,14.76622 -9.312092,19.33333 -1.40922,2.2 -2.605575,4.6 -2.658568,5.33333 -0.05719,0.79136 4.486536,1.33334 11.178346,1.33334 9.714097,0 11.553623,-0.36911 13.289829,-2.66667 z m 3.433274,-54 C 98.435768,140.60676 100.1251,140 104.7579,140 c 6.82376,0 15.78127,-4.17752 23.63411,-11.02225 l 5.05867,-4.40926 -3.39051,-4.61758 c -1.86478,-2.53967 -4.44118,-6.35543 -5.72534,-8.47947 -1.28416,-2.12405 -3.69787,-5.09359 -5.36381,-6.59899 -1.66594,-1.50539 -4.50132,-5.249422 -6.30083,-8.320059 -3.28836,-5.61117 -15.090769,-16.55239 -17.855228,-16.55239 -0.814895,0 -1.481627,-0.875816 -1.481627,-1.946258 0,-2.54879 -9.720502,-11.496765 -14.817493,-13.639889 -2.703316,-1.136658 -4.724615,-1.259621 -6.254914,-0.380508 -1.243509,0.71436 -3.95253,1.900063 -6.020047,2.634895 -4.993464,1.774767 -4.430118,6.506656 1.092454,9.17619 2.2,1.063449 5.592575,2.7335 7.539056,3.711224 4.791991,2.407033 5.561812,2.248737 4.719949,-0.97055 -0.440205,-1.683349 0.01733,-3.030661 1.180807,-3.477128 2.999871,-1.151159 8.560188,0.743872 8.560188,2.917427 0,1.086028 0.584592,1.974597 1.299094,1.974597 0.714501,0 2.196052,1.734527 3.292334,3.854504 1.642642,3.176518 1.738588,5.345888 0.545482,12.333334 -0.796268,4.663351 -1.961543,9.032551 -2.5895,9.709331 -2.010424,2.16671 -7.655328,-1.5624 -10.359779,-6.84384 C 78.59343,93.33624 73.196284,88.902124 67.414661,87.464057 58.924119,85.352199 52.000001,77.518019 52.000001,70.023389 c 0,-1.893304 0.853082,-5.484084 1.895738,-7.979511 1.62663,-3.893073 2.620309,-4.596764 7,-4.957174 5.583113,-0.459442 5.818426,-1.172383 2.999162,-9.086703 C 59.632124,36.03341 50.49368,20 47.935946,20 c -0.698102,0 -1.269278,1.419086 -1.269278,3.153522 0,4.115773 -4.823188,10.179812 -8.096774,10.179812 -2.318445,0 -2.569893,1.019705 -2.569893,10.421788 0,5.731983 0.654618,13.962948 1.454709,18.291034 1.535652,8.307108 5.749846,17.953845 7.843167,17.953845 0.684023,0 2.226728,2.071624 3.428233,4.60361 1.201506,2.531984 3.765186,6.281984 5.697069,8.333333 1.931881,2.051348 4.854718,6.59125 6.495193,10.088666 1.640475,3.49742 7.47437,10.99742 12.964212,16.66667 12.451271,12.85817 16.784085,18.16751 16.784085,20.56687 0,2.01177 2.546736,5.07419 4.219754,5.07419 0.560866,0 1.661976,-1.2 2.446912,-2.66667 z m -22.687084,-5 c -0.01123,-1.28333 -0.602041,-3.23333 -1.312916,-4.33333 -0.980797,-1.51768 -1.297423,-0.95497 -1.312916,2.33333 C 72.00919,138.05 72.600002,140 73.333335,140 c 0.733333,0 1.324145,-1.05 1.312916,-2.33333 z"
       id="path668" />
  </g>
</svg>
