<?xml version="1.0" encoding="UTF-8" standalone="no"?>
<!-- Created with Inkscape (http://www.inkscape.org/) -->

<svg
   version="1.1"
   id="svg165"
   width="157.33333"
   height="222.66667"
   viewBox="0 0 157.33333 222.66667"
   xmlns="http://www.w3.org/2000/svg"
   xmlns:svg="http://www.w3.org/2000/svg">
  <defs
     id="defs169" />
  <g
     id="g171">
    <path
       style="fill:#000000;stroke-width:1.33333"
       d="m 18.69466,212.96627 c -4.97891,-1.28861 -6.766813,-6.53657 -3.468552,-10.18112 1.868277,-2.06443 4.928141,-2.53296 19.846311,-3.03891 9.700616,-0.329 18.633389,-1.15649 19.850608,-1.83888 1.21722,-0.68237 3.842665,-3.64069 5.834325,-6.57402 3.676139,-5.41426 11.22972,-22.6457 11.238074,-25.63662 0.0025,-0.90013 -1.816925,-5.0034 -4.043198,-9.11834 -5.237856,-9.68144 -11.623345,-32.54112 -9.878479,-35.36438 0.393306,-0.63638 -3.997211,-7.01986 -9.756703,-14.18553 C 36.40421,92.207145 33.553366,87.615285 28.423789,74.986366 25.648786,68.154366 24.837633,64.082104 25.040275,58.000001 25.399394,47.221386 21.265948,39.398286 15.107026,39.200001 8.3746161,38.983253 6.6666665,37.786833 6.6666665,33.287524 6.6666665,27.433163 8.8789169,24 12.651331,24 14.624762,24 16.804817,22.651084 18.271086,20.522759 24.691826,11.2029 28.783002,7.7425708 34.649557,6.6697953 44.900039,4.7953622 49.223819,6.3127478 57.410565,14.657534 c 4.075812,4.154492 8.175363,9.606112 9.110114,12.11471 0.934752,2.508599 2.248712,5.46109 2.919912,6.56109 0.6712,1.1 3.066411,5.752845 5.322691,10.339657 2.25628,4.586812 5.407566,9.017471 7.002855,9.845908 4.425363,2.298101 20.900523,14.989029 20.900523,16.099814 0,0.538711 1.77074,1.895157 3.93497,3.014327 3.43096,1.774217 22.75665,24.114372 26.16697,30.24856 0.67726,1.21821 3.0314,4.22697 5.2314,6.68613 11.55073,12.91141 12.66666,14.58275 12.66666,18.97105 0,4.10644 -0.58552,4.72079 -7.66666,8.04417 -4.21667,1.97899 -11.26667,5.44205 -15.66667,7.69569 -4.4,2.25364 -9.5,4.79128 -11.33333,5.6392 -3.20237,1.4811 -3.31449,1.94564 -2.85373,11.82382 0.34793,7.45902 -0.33298,13.57077 -2.47997,22.25984 -1.62778,6.58773 -2.61243,12.88238 -2.18812,13.9881 0.48121,1.25403 2.50192,2.0104 5.37092,2.0104 6.96003,0 8.81756,1.16054 8.81756,5.50899 0,2.82275 -0.83423,4.20752 -3.03998,5.04615 -6.35689,2.41689 -92.919963,4.48476 -100.93202,2.41113 z m 75.472593,-14.57023 c 0.545216,-0.88217 1.779724,-5.83217 2.743353,-11 0.963629,-5.16782 2.113421,-11.23488 2.555093,-13.48236 0.649061,-3.30277 -0.181464,-5.53673 -4.33133,-11.65052 -2.823904,-4.1603 -5.662876,-7.57146 -6.308827,-7.58034 -0.645952,-0.009 -0.839636,2.04712 -0.430411,4.56888 0.820975,5.05906 -1.322988,11.54273 -8.966771,27.11688 C 72.795009,199.88398 72.833252,200 83.921309,200 c 5.772489,0 9.62763,-0.6035 10.245944,-1.60396 z m 2.896582,-57.32654 c 0.878444,-0.87844 5.465725,-1.99758 10.193965,-2.48698 6.15544,-0.6371 9.70567,-1.79278 12.50147,-4.06949 2.14756,-1.74883 5.78028,-4.20179 8.0727,-5.45101 C 130.12438,127.81279 132,125.93968 132,124.89954 132,121.47828 107.9088,90.844912 97.776789,81.382735 92.317001,76.283893 85.212008,70.794688 81.987916,69.184498 76.55111,66.469226 75.758705,66.396648 71.062965,68.18386 c -6.923794,2.635216 -6.493392,5.613965 1.6037,11.098977 l 6.666667,4.516035 0.71362,-3.566103 c 0.58779,-2.937309 1.37246,-3.519021 4.450134,-3.299091 4.730727,0.338058 7.044545,2.274086 10.267029,8.590675 3.13761,6.150222 3.212135,9.369702 0.388072,16.764407 C 93.447838,106.75153 92.293471,108 89.871423,108 86.34677,108 85.400941,107.08118 80.081369,98.489451 76.802596,93.193852 75.32193,92.072649 69.706808,90.633536 58.427812,87.742817 53.321767,81.418971 53.35375,70.380245 c 0.0112,-3.875801 0.461229,-7.707088 1,-8.513972 1.453586,-2.176948 6.421657,-4.532939 9.558594,-4.532939 3.257825,0 3.354583,-0.478781 0.885203,-4.380244 C 63.769532,51.328891 62.496309,47.900001 61.968164,45.333334 60.234236,36.906841 52.449446,24 49.100914,24 c -0.605503,0 -1.100915,1.119086 -1.100915,2.486855 0,3.517215 -5.053627,9.513146 -8.018084,9.513146 -1.370162,0 -2.754516,0.45 -3.076341,1 -0.321825,0.55 -0.07163,7.441552 0.556003,15.314558 1.296828,16.267533 3.658133,22.158551 13.747278,34.29691 3.327188,4.002974 7.885273,10.722527 10.129081,14.932341 2.243807,4.20981 9.310692,13.27741 15.704189,20.15021 6.393497,6.8728 12.646633,14.40325 13.89586,16.73433 2.460313,4.59099 3.659141,5.10785 6.12585,2.64115 z"
       id="path491" />
  </g>
</svg>
