<?xml version="1.0" encoding="UTF-8" standalone="no"?>
<!-- Created with Inkscape (http://www.inkscape.org/) -->

<svg
   version="1.1"
   id="svg233"
   width="209.33333"
   height="202.66667"
   viewBox="0 0 209.33333 202.66667"
   xmlns="http://www.w3.org/2000/svg"
   xmlns:svg="http://www.w3.org/2000/svg">
  <defs
     id="defs237" />
  <g
     id="g239">
    <path
       style="fill:#000000;stroke-width:1.33333"
       d="m 185.9394,194.0606 c -3.59295,-3.59293 -3.70762,-5.60557 -3.87768,-68.0606 l -0.0617,-22.66666 5.33334,-0.34789 c 2.93333,-0.19133 6.02481,0.10867 6.86994,0.66667 2.41264,1.59294 3.08174,92.08199 0.68767,93.00018 -3.42475,1.31349 -5.7072,0.65266 -8.95155,-2.5917 z M 32.475653,192.6497 c -1.058682,-2.75888 1.61132,-5.64383 6.144888,-6.63956 2.073286,-0.45538 4.830096,-1.99978 6.126242,-3.432 2.002276,-2.21248 2.10332,-3.07736 0.671994,-5.75182 -2.69808,-5.04141 -13.514863,-12.43485 -19.675353,-13.44842 -6.646296,-1.0935 -7.738368,-2.23951 -11.023514,-11.568 -1.806928,-5.13095 -2.112199,-7.60224 -1.091068,-8.83263 0.779804,-0.93961 1.056255,-2.06995 0.614335,-2.51187 C 12.777974,139.0002 17.359365,132 19.783496,132 c 2.535916,0 5.830458,-3.91634 10.786718,-12.82258 3.827941,-6.87868 10.016468,-9.99697 21.429785,-10.7981 8.120171,-0.56998 9.027195,-0.33926 14.384144,3.65889 3.144612,2.34697 6.906934,6.59875 8.360717,9.4484 1.453783,2.84965 5.005497,6.67241 7.8927,8.49502 4.062917,2.56481 5.581539,4.59896 6.718641,8.99944 0.808052,3.12708 1.753872,6.67248 2.101822,7.87867 0.896682,3.10838 -3.31441,12.96958 -6.197372,14.51249 -1.330271,0.71195 -4.168586,1.29444 -6.307366,1.29444 -5.018414,0 -12.286619,2.53644 -12.286619,4.28775 0,0.74812 -1.8,3.4103 -4,5.91596 -2.2,2.50566 -4,5.34188 -4,6.3027 0,2.91363 4.395658,5.92631 9.322414,6.38935 5.397853,0.50732 7.149204,4.48687 3.2344,7.34944 -3.706356,2.71016 -37.695489,2.48017 -38.747827,-0.26217 z M 60.19396,167.73078 c 3.1933,-1.79474 5.551983,-4.25644 6.068275,-6.33334 0.464513,-1.86858 1.945537,-5.36569 3.291167,-7.77133 1.345628,-2.40564 2.447693,-5.70564 2.449033,-7.33333 0.0023,-2.7143 -0.632821,-2.95944 -7.666667,-2.95944 -7.119136,0 -7.702086,-0.23368 -8.129062,-3.25863 -0.648304,-4.59297 3.014946,-6.89735 9.353418,-5.88379 5.522636,0.88311 5.88768,0.48379 3.606591,-3.94524 -2.636216,-5.11855 -6.934609,-8.97979 -12.966928,-11.64817 -9.245828,-4.08987 -13.29143,-3.09926 -21.456158,5.25375 -3.660075,3.74447 -5.823387,15.71893 -2.603482,14.41089 9.19708,-3.73619 11.850295,-4.01743 14.58156,-1.54567 1.500958,1.35835 2.5526,3.70283 2.336986,5.20996 -0.35104,2.45374 -1.278906,2.72584 -8.87467,2.6026 l -8.482644,-0.13764 0.692304,5.16151 c 0.380767,2.83883 2.586708,8.11368 4.902091,11.72189 6.133673,9.55851 13.621649,11.66968 22.898186,6.45598 z m -15.457353,-8.03822 c -2.784174,-1.5581 -2.617212,-4.63917 0.337075,-6.22026 3.653061,-1.95506 13.463982,-0.2047 15.006372,2.67729 1.071336,2.0018 0.756294,2.56659 -1.717351,3.07869 -6.733168,1.39394 -11.664634,1.56196 -13.626096,0.46428 z m -19.421481,-7.35922 c -0.02484,-5.00256 -1.377736,-9.66667 -2.803968,-9.66667 -1.361298,0 -1.619345,11.11404 -0.288936,12.44444 1.866951,1.86696 3.110422,0.75017 3.092904,-2.77777 z M 82.533759,147 c -0.118614,-4.46229 -0.24771,-4.64153 -1.200427,-1.66666 -1.52636,4.76606 -1.52636,6.66666 0,6.66666 0.733333,0 1.273525,-2.25 1.200427,-5 z M 9.7538289,57.281709 C 8.1517681,56.6595 6.1953964,54.944114 5.406336,53.469741 3.3421231,49.612723 2.9664522,9.8335479 4.9752687,7.8247313 6.8804372,5.9195628 27.890216,5.4694164 126.47208,5.221593 c 65.704,-0.1651721 72.67704,0.023137 74.66666,2.016395 3.18651,3.192304 3.1179,46.410137 -0.0788,49.606777 -2.91857,2.918569 -6.74896,1.362739 -11.23565,-4.563709 -9.29071,-12.272025 -10.94212,-13.312337 -22.51283,-14.181987 -5.85461,-0.440036 -13.9448,-0.691566 -17.97813,-0.558955 -4.03333,0.132613 -9.43333,0.143959 -12,0.02521 -2.56667,-0.118746 -7.96667,-0.11052 -12,0.01827 C 121.3,37.712381 116.2,37.754237 114,37.676594 111.8,37.598954 101,37.186266 89.999999,36.759505 57.376336,35.493823 42.499527,35.457066 33.587821,36.620126 c -7.212176,0.941255 -8.861577,1.688583 -11.562515,5.238865 -1.732684,2.27755 -3.347204,6.172908 -3.587821,8.656354 -0.525244,5.421125 -4.391167,8.433475 -8.6836561,6.766353 z M 104.0406,28.536566 l 80.15069,0.130101 3.57103,4.345354 c 5.79793,7.055153 6.90434,5.847512 6.90434,-7.536035 0,-9.608932 -0.40206,-12.011634 -2.12032,-12.670993 -1.16618,-0.447505 -2.62352,-0.502652 -3.23853,-0.122551 -0.61503,0.380101 -15.41088,0.649426 -32.87968,0.598499 -72.523095,-0.211427 -143.429868,-0.05381 -143.757841,0.319566 -0.848527,0.965979 -1.724466,26.234206 -0.936732,27.02194 0.482074,0.482074 3.414463,-2.06931 6.51642,-5.669742 l 5.639923,-6.546241 80.1507,0.130107 z"
       id="path1235" />
  </g>
</svg>
