<?xml version="1.0" encoding="UTF-8" standalone="no"?>
<!-- Created with Inkscape (http://www.inkscape.org/) -->

<svg
   version="1.1"
   id="svg373"
   width="217.33333"
   height="213.33333"
   viewBox="0 0 217.33333 213.33333"
   xmlns="http://www.w3.org/2000/svg"
   xmlns:svg="http://www.w3.org/2000/svg">
  <defs
     id="defs377" />
  <g
     id="g379">
    <path
       style="fill:#000000;stroke-width:1.33333"
       d="m 75.209494,204.76348 c -3.472695,-2.43238 -6.157598,-9.0642 -9.755632,-24.09682 -1.5797,-6.6 -4.35306,-14.83896 -6.163023,-18.30878 -4.251517,-8.1505 -4.217891,-11.40475 0.134947,-13.0597 3.800766,-1.44505 4.145301,-6.25184 0.574213,-8.01116 -3.182884,-1.56808 -24.722268,-6.62036 -28.224554,-6.62036 -4.110728,0 -9.108763,-3.51659 -9.108837,-6.40893 -3.4e-5,-1.24175 2.249966,-4.17074 5,-6.50887 l 5.000058,-4.25113 -6.112612,-5.91716 c -8.513554,-8.24133 -11.86218,-9.90903 -14.006998,-6.97581 -0.966632,1.32195 -2.9667148,2.09121 -4.7722204,1.83548 C 2.9487389,105.75667 2.8420554,99.615657 7.5797343,95.209637 12.171188,90.939607 24.466897,82.666665 26.221802,82.666665 c 0.703518,0 4.280596,-1.447958 7.949065,-3.217686 12.74389,-6.147855 26.229879,-9.731137 42.495798,-11.291307 30.079835,-2.885152 48.913145,-2.170022 69.999995,2.65801 3.3,0.755566 11.1,2.179329 17.33334,3.163917 12.14906,1.919012 22.21498,4.250538 24.53126,5.68207 0.78668,0.4862 3.23898,0.751338 5.44954,0.589195 5.41977,-0.397537 7.86012,1.382739 6.73869,4.916007 -0.68271,2.151058 -1.98211,2.833128 -5.39732,2.833128 -2.47397,0 -4.87031,-0.602203 -5.3252,-1.338227 -0.45488,-0.736025 -2.22568,-0.9872 -3.93508,-0.558165 -1.79828,0.45134 -4.99461,-0.207184 -7.58496,-1.562692 -5.03337,-2.633936 -20.07305,-5.966724 -29.1436,-6.458212 -3.3,-0.178811 -10.71381,-1.338976 -16.47515,-2.578146 -14.46946,-3.112143 -55.288064,-2.941342 -58.474086,0.24468 -0.871252,0.871252 -4.33489,1.584095 -7.696974,1.584095 -6.888693,0 -15.938855,2.902392 -30.880243,9.903312 -14.288121,6.694825 -14.677739,8.753947 -3.293249,17.404766 5.412611,4.11292 6.99025,4.71863 9.333333,3.58339 7.572074,-3.66869 21.037082,-8.18081 28.819705,-9.65747 9.984263,-1.894392 48.808294,-1.817474 63.999994,0.1268 5.5,0.703904 13.3,1.59224 17.33334,1.97409 10.90114,1.03203 26.36936,3.11171 34.66666,4.66088 4.03334,0.75305 8.69564,1.04755 10.3607,0.65444 6.65906,-1.57217 10.56493,3.97703 6.1967,8.80386 -1.70902,1.88846 -3.54325,2.19253 -9.66666,1.6025 -4.15658,-0.40051 -8.1274,-1.25208 -8.82407,-1.89238 -2.45044,-2.25218 -6.14405,-1.10141 -17.66133,5.50248 -6.39472,3.66667 -12.40848,6.66667 -13.36391,6.66667 -0.95544,0 -4.28061,1.12949 -7.38929,2.50998 -3.10867,1.38049 -8.4956,3.78049 -11.97094,5.33334 -3.47534,1.55283 -7.55513,2.82334 -9.06621,2.82334 -1.51108,0 -4.48308,0.89755 -6.60446,1.99456 -3.47769,1.79839 -11.24973,3.36717 -27.677191,5.58664 -3.116667,0.42108 -5.666667,1.17956 -5.666667,1.68551 0,1.62586 12.531221,12.34797 16.666668,14.26052 2.2,1.01745 6.77232,3.79005 10.16072,6.16134 14.29688,10.00534 32.84818,19.60306 37.93509,19.62616 2.25269,0.0107 6.98063,1.00156 10.50651,2.20295 4.95468,1.68823 9.39064,2.02013 19.5311,1.46136 15.0801,-0.83096 18.68048,-2.70865 22.78884,-11.88496 2.2383,-4.9994 2.27442,-5.77072 0.40386,-8.62555 -2.34983,-3.58628 -2.5535,-3.64252 -6.17423,-1.70476 -1.96792,1.0532 -2.57612,2.55272 -2.30619,5.68587 0.52144,6.05225 -0.92698,7.95089 -4.59329,6.02103 -1.60549,-0.8451 -3.35989,-2.19672 -3.89867,-3.0036 -2.00762,-3.00671 -0.91296,-8.7235 2.43144,-12.6981 2.8408,-3.37609 4.43403,-4.10025 9,-4.09074 7.21992,0.0151 15.54815,7.23994 15.54815,13.4883 0,6.27271 -6.19333,17.99774 -11.06413,20.9463 -9.14032,5.53312 -43.39808,5.66892 -50.93587,0.20192 -0.73333,-0.53187 -3.50009,-1.35684 -6.14837,-1.83328 C 134.7804,190.94298 106.56979,174.40956 94.432315,163.0701 90.270089,159.18154 86.183325,156 85.350617,156 c -1.020521,0 -1.247585,1.84705 -0.696622,5.66666 0.449565,3.11667 1.018916,10.16667 1.265225,15.66667 0.246308,5.5 0.88466,13.33773 1.418559,17.41717 0.79376,6.06502 0.560637,7.82727 -1.278766,9.66667 -2.750065,2.75007 -7.21423,2.89256 -10.849519,0.34631 z m 3.989798,-18.43015 c -0.578017,-3.85 -1.11516,-8.8 -1.193649,-11 -0.545843,-15.29948 -2.493857,-28.66667 -4.177623,-28.66667 -1.054042,0 -1.828021,1.39147 -1.828021,3.28643 0,1.96148 -1.115476,3.8834 -2.766877,4.7672 -2.388504,1.27829 -2.638866,2.24196 -1.83078,7.04692 0.514853,3.06136 2.359948,8.79077 4.10021,12.73203 1.740263,3.94125 3.164114,9.07125 3.164114,11.4 0,4.11076 1.963299,7.43409 4.391783,7.43409 0.682271,0 0.742484,-2.99264 0.140843,-7 z m 34.051148,-52.76812 c 3.25441,-1.5942 7.15441,-2.9025 8.66666,-2.90733 1.51226,-0.005 4.54956,-1.20088 6.74956,-2.65788 2.2,-1.457 4.74747,-2.65305 5.66103,-2.65788 0.91357,-0.005 6.31357,-2.16958 12,-4.81056 5.68644,-2.64097 11.68897,-5.32612 13.33897,-5.967 5.2681,-2.04618 3.60322,-4.98929 -3.33333,-5.89252 C 152.85,108.21846 147.3,107.30159 144,106.63455 c -10.09752,-2.04104 -20.8973,-2.95264 -23.85581,-2.01365 -1.60735,0.51015 -2.81086,2.01817 -2.81086,3.52207 0,3.35207 -4.77836,12.91787 -8.4838,16.98371 -7.78281,8.53978 -18.897751,9.31316 -29.804369,2.07375 -3.976967,-2.63976 -7.418325,-5.48976 -7.647459,-6.33333 -0.229135,-0.84357 -1.204858,-4.14882 -2.168274,-7.34498 l -1.751665,-5.81122 -6.072216,0.62183 c -3.966123,0.40616 -8.615714,2.28799 -13.405548,5.42563 -15.270045,10.00285 -17.806018,13.18573 -11.666666,14.64273 1.65,0.39158 6.3,1.71559 10.333333,2.94224 13.090985,3.98133 26.995908,5.68833 43.999999,5.40153 14.039695,-0.2368 17.599315,-0.73797 22.583775,-3.17965 z m -10.49615,-12.29427 c 3.99241,-2.84285 8.31473,-10.86425 7.66664,-14.22783 -0.76578,-3.97444 -15.886134,-5.95764 -28.754265,-3.77144 -5.174448,0.8791 -5.666666,1.30574 -5.666666,4.91174 0,5.10313 3.242046,11.31712 6.935934,13.29403 8.006358,4.28487 13.592547,4.22666 19.818357,-0.2065 z m 5.93591,-85.604274 c -0.30769,-0.916667 -0.73886,-3.166667 -0.95815,-5 -0.61416,-5.13452 -5.80234,-5.315209 -6.8179,-0.237448 -1.181565,5.907851 -8.914151,7.274815 -8.914151,1.575841 0,-1.306966 -1.139122,-3.783057 -2.53138,-5.502425 C 86.642113,23.012049 90.362007,23.184492 32.831417,23.877109 17.082012,24.066717 5.8062003,23.672866 5.0397106,22.906377 4.3303254,22.196992 3.963031,20.502854 4.2235007,19.141626 c 0.68008,-3.554132 8.0020603,-4.221528 47.8131573,-4.358152 36.99429,-0.126958 39.963341,-0.682593 39.963341,-7.4788344 0,-3.7991613 4.550442,-6.93663337 6.252415,-4.3109599 0.594504,0.9171568 1.709615,4.0687794 2.478026,7.0036056 1.02804,3.9264677 2.08469,5.3360477 4,5.3360477 2.02243,0 2.75156,-1.159001 3.26956,-5.19719 0.78183,-6.095026 4.01875,-8.8869996 7.22157,-6.2288984 1.16147,0.9639343 2.11176,3.1939916 2.11176,4.9556827 0,2.2328417 1.06331,3.6073437 3.51035,4.5377087 2.08025,0.790908 19.54733,1.290089 42.87494,1.225294 40.37162,-0.112133 41.53168,0.02715 41.5943,4.993824 0.052,4.128447 -5.78574,4.736774 -44.44982,4.631906 -22.90802,-0.06213 -39.64052,0.427366 -41.08794,1.202005 -1.34301,0.718753 -2.44183,2.352211 -2.44183,3.629905 0,5.453288 -7.18535,10.92606 -8.64313,6.583096 z"
       id="path401" />
  </g>
</svg>
