<?xml version="1.0" encoding="UTF-8" standalone="no"?>
<!-- Created with Inkscape (http://www.inkscape.org/) -->

<svg
   version="1.1"
   id="svg363"
   width="208"
   height="213.33333"
   viewBox="0 0 208 213.33333"
   xmlns="http://www.w3.org/2000/svg"
   xmlns:svg="http://www.w3.org/2000/svg">
  <defs
     id="defs367" />
  <g
     id="g369">
    <path
       style="fill:#000000;stroke-width:1.33333"
       d="m 192,207.91104 c 0,-1.5156 1.54712,-4.78402 3.43804,-7.26315 3.1182,-4.08816 3.3496,-5.21543 2.48732,-12.11692 -0.86672,-6.93701 -1.59072,-8.23925 -8.19301,-14.73687 -3.98324,-3.92009 -7.77964,-7.12744 -8.43643,-7.12744 -0.6568,0 -5.61839,-2.1 -11.02576,-4.66666 -5.40739,-2.56667 -11.46829,-4.66667 -13.46869,-4.66667 -3.3002,0 -3.59839,-0.40139 -3.21928,-4.33333 0.39104,-4.05564 0.70602,-4.30443 4.91517,-3.88231 4.50371,0.45167 8.55949,2.12739 23.50264,9.71059 18.19929,9.23557 25.31399,22.98585 21.32759,41.21894 C 201.63165,207.80414 192,214.49061 192,207.91104 Z M 28,200.45132 C 3.2328711,199.85337 3.9897549,200.13176 4.0471371,191.64126 4.1523181,176.07824 20.563584,162.72984 39.652364,162.68109 c 7.288956,-0.0185 17.493332,3.8902 24.365979,9.33344 8.514684,6.74375 14.409581,20.81941 10.96124,26.17292 C 73.783349,200.0446 52.878539,201.05196 28,200.45132 Z m 38.493461,-9.23775 c 2.73547,-2.34329 -8.766404,-17.88024 -13.236588,-17.88024 -1.338056,0 -2.768908,-0.54379 -3.179673,-1.20843 -0.410765,-0.66462 -3.704448,-1.61518 -7.319296,-2.11236 -5.684476,-0.78181 -7.746775,-0.34349 -15.264369,3.24434 -8.835288,4.21669 -16.826868,11.96594 -16.826868,16.31662 0,1.88642 1.496259,2.37518 8.333333,2.72214 9.072335,0.46038 46.693447,-0.39676 47.493461,-1.08207 z m -52.829718,-45.4172 c -1.651608,-0.35711 -3.625753,-1.81304 -4.3869887,-3.23543 -1.1630588,-2.1732 -0.829373,-2.79704 2.0897227,-3.90688 1.910584,-0.7264 4.013851,-1.32073 4.673927,-1.32073 0.660077,0 3.188128,-1.74548 5.617891,-3.87884 4.223606,-3.70837 5.137018,-3.91371 20.784581,-4.6725 24.773315,-1.20131 48.921389,-7.37718 70.681654,-18.07682 10.99614,-5.40686 15.06596,-8.34177 23.94167,-17.265314 12.25117,-12.317203 17.60047,-20.861478 17.60047,-28.112701 0,-7.017769 -4.13864,-8.559151 -20.66103,-7.694924 -8.54821,0.447128 -12.74534,0.18434 -13.10555,-0.820556 -0.29146,-0.813088 0.64574,-3.819997 2.08266,-6.682018 4.3744,-8.712775 6.46912,-15.536675 8.99409,-29.299739 1.3289,-7.243545 3.14164,-13.6184458 4.02833,-14.1664466 2.90343,-1.7944184 16.23114,-2.7938768 17.97348,-1.3478505 1.17883,0.9783367 1.34631,3.0120599 0.57896,7.0304541 -1.71972,9.005794 1.90294,20.07192 8.20475,25.063046 6.89232,5.458824 18.89961,9.422414 27.90431,9.211176 12.09504,-0.283734 12,-0.31419 12,3.845432 0,3.934745 -7.79894,19.910403 -11.75008,24.069338 -19.33367,20.350437 -28.26682,28.633933 -38.50538,35.705093 -14.32776,9.89533 -31.18154,19.09317 -34.98559,19.09317 -1.46767,0 -4.63884,0.86587 -7.04705,1.92415 -13.024606,5.72361 -45.032717,12.72258 -49.806331,10.89078 -1.001095,-0.38416 -2.121004,-0.2117 -2.488688,0.38322 -0.367684,0.59492 -6.836899,1.49386 -14.376034,1.99766 -7.539134,0.50379 -16.707517,1.1411 -20.374184,1.41623 -3.666666,0.27515 -8.017982,0.20809 -9.66959,-0.149 z m 81.66959,-16.73526 c 2.933334,-0.77898 6.233337,-2.31505 7.333337,-3.41348 1.77706,-1.77454 1.62844,-1.89136 -1.33334,-1.04808 C 99.5,125.12154 96.5,125.86049 94.666667,126.24166 89.536335,127.30832 84,129.85469 84,131.14766 c 0,0.63984 1.35,0.7508 3,0.24657 1.65,-0.50423 5.4,-1.55413 8.333333,-2.33312 z m 24.795597,-8.58439 c 3.5394,-1.77774 6.79375,-3.81227 7.23187,-4.52116 0.43812,-0.70889 2.11684,-1.2889 3.73049,-1.2889 1.61366,0 3.59574,-1.05973 4.40462,-2.35496 0.80888,-1.29523 4.70321,-4.10124 8.65406,-6.23557 9.36252,-5.05785 20.66482,-14.186998 26.5167,-21.418225 2.56666,-3.171653 8.11666,-9.93353 12.33333,-15.026393 10.10539,-12.205226 10.0336,-13.94398 -0.66667,-16.147065 -11.49346,-2.366398 -24.45044,-9.073498 -29.26026,-15.146401 -3.15258,-3.980447 -4.14098,-6.834154 -4.84966,-14.00203 -0.77421,-7.830712 -1.25956,-9.055388 -3.72825,-9.407544 -2.18971,-0.312359 -3.00219,0.449234 -3.55604,3.333333 -0.39484,2.056007 -2.27021,9.685639 -4.16752,16.954737 -1.89729,7.269097 -3.10764,13.558533 -2.68964,13.976523 0.41799,0.417989 4.20951,0.90477 8.42561,1.081737 7.6202,0.319849 14.57632,2.584492 19.29243,6.280856 5.39104,4.225362 1.05463,18.957205 -9.45208,32.111007 -10.95344,13.713075 -18.25812,19.883305 -32.0453,27.068505 -7.45979,3.88768 -13.95467,7.70184 -14.43308,8.47591 -1.32823,2.14912 6.76606,0.0293 14.25939,-3.73436 z M 8.8273941,93.510933 c -3.3257134,-3.674872 -2.0770189,-6.476389 6.8214179,-15.30424 6.652052,-6.599286 8.270988,-7.549475 12.975752,-7.615751 11.91908,-0.167906 76.326576,-2.535424 80.268456,-2.950544 8.35616,-0.879988 9.77365,0.612565 9.77365,10.291233 0,7.940841 -0.25681,8.735116 -3,9.278693 -5.59238,1.108157 -41.553339,3.418983 -65.000003,4.176855 -21.292106,0.688229 -29.031931,1.515502 -36.719096,3.92473 -1.81903,0.570102 -3.513893,-0.02605 -5.1201769,-1.800976 z M 89.67144,81.87636 c 14.23676,-0.686067 20.09655,-1.460184 21.21016,-2.802004 0.91667,-1.104517 1.04949,-2.322523 0.32856,-3.012888 -0.68541,-0.656343 -16.531531,-0.614343 -36.543493,0.09686 C 55.233333,76.848961 37.458512,77.382139 35.167064,77.343164 29.391143,77.244921 24,79.520193 24,82.056099 c 0,1.884728 2.572725,2.046381 23,1.445162 12.65,-0.372316 31.852148,-1.103521 42.67144,-1.624901 z"
       id="path540" />
  </g>
</svg>
