<?xml version="1.0" encoding="UTF-8" standalone="no"?>
<!-- Created with Inkscape (http://www.inkscape.org/) -->

<svg
   version="1.1"
   id="svg353"
   width="172"
   height="220"
   viewBox="0 0 172 220"
   xmlns="http://www.w3.org/2000/svg"
   xmlns:svg="http://www.w3.org/2000/svg">
  <defs
     id="defs357" />
  <g
     id="g359">
    <path
       style="fill:#000000;stroke-width:1.33333"
       d="m 49.921624,212.73417 c -2.425752,-3.70216 -1.665253,-7.70654 3.141151,-16.53961 2.588262,-4.75663 3.458894,-8.51584 3.750653,-16.19456 0.688281,-18.11469 -4.143637,-52.87487 -9.434552,-67.87092 -1.125048,-3.18873 -2.045543,-6.84133 -2.045543,-8.1169 0,-4.133847 -5.213197,-9.091299 -11.893656,-11.310192 -3.589588,-1.192269 -7.990225,-3.524276 -9.779196,-5.182237 -1.788969,-1.657962 -6.644429,-4.620396 -10.78991,-6.58319 -6.3332943,-2.998673 -7.5372377,-4.126413 -7.5372377,-7.060162 0,-4.159734 4.1988031,-9.426672 14.9848507,-18.796856 C 31.831967,45.077151 50.116751,39.64056 55.187949,44.71176 c 1.547127,1.547125 1.732646,2.866892 0.761906,5.420132 -1.661014,4.368797 -1.642772,14.631915 0.03641,20.486891 1.392033,4.853734 -0.200372,12.007604 -3.595524,16.152872 -2.384548,2.911382 -2.247123,3.959878 2.152971,16.426285 3.748606,10.6206 6.181926,19.86276 9.394666,35.68254 0.842987,4.15093 1.550538,15.15855 1.572335,24.46136 l 0.03963,16.91423 4.891493,-0.91362 c 2.690321,-0.50249 5.108823,-1.12742 5.374449,-1.38876 0.265626,-0.26134 -0.03437,-2.6507 -0.666666,-5.3097 -0.638507,-2.68514 -0.65396,-15.90706 -0.03476,-29.73927 1.411677,-31.53504 1.566114,-65.362501 0.342817,-75.08828 C 74.723721,61.981163 73.488993,59.104149 69.938388,54.956065 67.082268,51.619332 64.022265,45.538389 61.790347,38.763997 58.56096,28.962059 57.663691,27.565739 52.49008,24.291039 44.317635,19.118188 44.641965,15.782405 53.666667,12.189716 62.429168,8.7014063 75.763548,6.1849635 85.333333,6.2136332 c 8.452638,0.025323 25.931857,2.5945697 30.333337,4.4586558 4.55796,1.93036 3.87576,7.132784 -1.58722,12.103982 -3.074,2.797274 -5.34629,6.656509 -6.8883,11.699001 -4.63962,15.171969 -9.540145,22.615821 -16.674385,25.328255 l -3.478354,1.322468 -0.816191,27.770336 c -0.448905,15.273679 -0.837343,39.984979 -0.863193,54.913999 -0.02585,14.92902 -0.407252,28.57902 -0.847559,30.33334 -0.706513,2.81497 -0.346175,3.18966 3.067448,3.18966 3.459493,0 4.038028,-0.63569 5.477877,-6.01913 0.885431,-3.31052 1.609874,-8.38956 1.609874,-11.28673 0,-2.89719 0.820376,-7.83858 1.823057,-10.98087 1.002683,-3.14229 2.54862,-9.31327 3.435417,-13.71327 0.886799,-4.4 2.828309,-12.2 4.314459,-17.33333 6.81216,-23.529889 6.52799,-21.93862 4.47911,-25.081975 C 106.57876,89.634935 105.718,77.072645 107.28543,72 c 0.56649,-1.833333 1.88294,-4.307008 2.92543,-5.497053 1.63984,-1.871939 1.6208,-3.480942 -0.14122,-11.931616 -1.98868,-9.537744 -1.96989,-9.838979 0.7975,-12.784726 2.25629,-2.401705 3.35851,-2.73621 5.40576,-1.640554 1.41438,0.756952 4.48158,1.247218 6.81601,1.089481 2.33443,-0.157737 6.04442,0.186839 8.24442,0.765724 7.30467,1.922076 23.91626,10.959741 29.8769,16.254753 4.9503,4.397519 5.74054,5.763836 5.01214,8.666004 -0.59234,2.36011 -2.44353,4.07761 -5.87688,5.452495 -2.75669,1.103912 -10.3006,7.109699 -16.76425,13.346193 -9.16176,8.839786 -13.03457,11.662012 -17.5706,12.804198 -5.54011,1.395016 -5.91225,1.800291 -7.77753,8.470111 -1.07746,3.85274 -2.37573,9.40499 -2.88506,12.33832 -0.50932,2.93334 -1.70498,6.83334 -2.657,8.66667 -1.84136,3.54594 -7.94361,34.17243 -9.36873,47.02051 -0.81979,7.3908 -0.65609,7.95474 4.24584,14.62722 2.80418,3.81703 5.81302,9.01024 6.68631,11.54047 1.96118,5.68219 0.87899,11.81728 -2.26024,12.81363 -1.29518,0.41108 -15.331622,0.99568 -31.19209,1.29912 l -28.837216,0.55169 z m 40.411709,-4.95124 C 97.85,207.81213 104,207.32199 104,206.69372 c 0,-0.62825 0.32605,-1.99197 0.72457,-3.03048 0.43447,-1.13223 -2.06527,-4.60585 -6.24367,-8.67617 -5.990609,-5.83564 -8.048407,-6.97824 -14.667437,-8.14416 -9.28399,-1.63535 -14.775439,-0.32826 -20.155635,4.79749 -3.570948,3.40208 -8.038961,11.18836 -8.239979,14.3596 -0.119946,1.89232 8.17461,3.20035 15.248818,2.40469 3.3,-0.37116 12.15,-0.65096 19.666666,-0.62176 z M 131.35241,86.654876 c 2.38362,-1.473152 5.08372,-4.488839 6.00024,-6.701527 0.91654,-2.212688 4.62246,-6.680806 8.2354,-9.929152 5.73306,-5.154513 6.38335,-6.25294 5.11023,-8.631806 -0.80232,-1.499148 -2.27347,-2.725724 -3.2692,-2.725724 -0.99575,0 -2.1558,-0.9 -2.57792,-2 -0.42211,-1.1 -1.83629,-2.009034 -3.14265,-2.020075 -2.76043,-0.02333 -11.90026,-3.060565 -13.23917,-4.399475 -1.38399,-1.383984 -8.20103,-1.093278 -9.11699,0.388786 -0.44277,0.716413 -0.12386,3.832286 0.7087,6.924162 1.31492,4.883215 1.10679,6.816932 -1.58455,14.722198 -3.38701,9.94867 -2.92516,12.323785 2.98771,15.364748 4.25554,2.188609 4.83586,2.130382 9.8882,-0.992135 z m -90.048102,-1.9732 3.838549,-1.984991 V 67.348343 C 45.142857,54.812319 44.787744,52 43.204809,52 c -3.196801,0 -20.510065,9.225748 -28.178737,15.015652 -7.2609317,5.482056 -7.4964757,7.582808 -0.855571,7.630597 4.224179,0.0304 11.171487,3.256396 17.012839,7.899948 6.055463,4.81376 5.264481,4.646866 10.120968,2.135479 z M 90.575875,48.127507 c 1.516602,-2.129872 2.757458,-4.538014 2.757458,-5.351426 0,-0.813412 0.516887,-2.52079 1.148636,-3.794173 C 97.465707,32.967759 104,18.545984 104,17.974755 c 0,-0.352782 -1.83442,-0.641422 -4.076495,-0.641422 -2.242073,0 -8.172277,-0.676404 -13.178232,-1.50312 -8.418318,-1.390256 -24.217918,-0.135345 -26.454454,2.10119 -0.365634,0.365634 1.485412,3.044804 4.113434,5.95371 5.823859,6.446315 8.92908,12.22375 8.92908,16.61304 0,1.813486 1.553336,5.143282 3.451859,7.399547 4.605327,5.47312 9.993183,5.562903 13.790683,0.229807 z"
       id="path679" />
  </g>
</svg>
