<?xml version="1.0" encoding="UTF-8" standalone="no"?>
<!-- Created with Inkscape (http://www.inkscape.org/) -->

<svg
   version="1.1"
   id="svg343"
   width="210.66667"
   height="220"
   viewBox="0 0 210.66667 220"
   xmlns="http://www.w3.org/2000/svg"
   xmlns:svg="http://www.w3.org/2000/svg">
  <defs
     id="defs347" />
  <g
     id="g349">
    <path
       style="fill:#000000;stroke-width:1.33333"
       d="m 170.02416,214.91284 c -0.23137,-0.23127 -7.82681,-0.43103 -16.87874,-0.44391 -16.34063,-0.0232 -18.40731,-0.56624 -18.45834,-4.84965 -0.0107,-0.94272 2.54783,-2.81492 5.68679,-4.16044 6.00193,-2.57272 9.48196,-7.62336 8.11427,-11.77637 -1.84528,-5.60318 -5.14483,-12.06558 -8.7397,-17.11728 -5.45718,-7.66876 -7.96659,-17.68535 -5.57441,-22.25098 4.16768,-7.9543 11.28652,-6.3495 23.3054,5.25376 l 9.05796,8.74471 0.93929,-3.74244 c 0.525,-2.0918 0.20039,-6.13032 -0.73598,-9.15635 -2.93871,-9.49682 -3.15859,-16.57918 -0.75224,-24.2296 C 168.6631,122.68094 168.02036,120 163.30715,120 c -2.70464,0 -3.90812,-1.07252 -5.61056,-5 -2.97415,-6.86126 -2.62388,-13.6537 1.04031,-20.173227 l 3.08709,-5.492741 -3.71876,-7.780537 C 152.09339,68.975271 152.30826,68.781328 173.12064,68 c 9.76698,-0.366667 18.61042,-0.186852 19.65208,0.399587 2.70004,1.520065 2.36222,4.176257 -1.43938,11.317545 -4.20042,7.890465 -4.17163,8.702147 0.52116,14.694385 4.94757,6.317563 6.23898,10.606393 9.3109,30.921813 L 203.68559,142 l -3.50947,2.9856 c -3.50248,2.97967 -3.50954,3.026 -3.55428,23.33333 -0.0247,11.19126 -0.55037,24.01368 -1.16825,28.4943 -1.11204,8.06409 -1.08797,8.15546 2.37816,9.0254 2.80024,0.70281 3.50159,1.67493 3.50159,4.85344 0,3.91642 -0.11227,3.97881 -7.66667,4.2621 -11.83529,0.44383 -23.17693,0.424 -23.64251,-0.0413 z m 12.17628,-9.14944 c 1.96766,-0.44776 3.09472,-1.977 3.59266,-4.87459 0.39906,-2.32218 1.31376,-7.22214 2.03268,-10.88881 0.71892,-3.66667 1.26878,-15.90115 1.22193,-27.18775 -0.0828,-19.9458 0.001,-20.58641 3.00441,-22.85157 l 3.0896,-2.33048 -2.23753,-11.3879 c -1.23063,-6.26334 -2.23752,-12.93013 -2.23752,-14.8151 0,-2.12496 -0.74404,-3.4272 -1.95816,-3.4272 -1.28307,0 -1.66293,-0.76931 -1.10185,-2.23148 0.64872,-1.69054 0.31536,-2.0239 -1.37518,-1.37518 -1.62649,0.62415 -2.23148,0.13573 -2.23148,-1.80152 0,-5.369187 -12.02576,-7.052941 -17.82018,-2.49505 -5.44147,4.28026 -4.73031,8.92158 1.78794,11.66891 4.79122,2.01942 5.4506,2.89759 6.85555,9.13023 1.40272,6.22277 1.27571,7.43068 -1.30109,12.37439 -3.57304,6.85503 -3.56296,8.86963 0.0969,19.35626 l 2.95244,8.45968 -2.84784,6.45688 c -1.56632,3.55128 -3.19224,7.54896 -3.61316,8.88373 -1.38905,4.40478 -6.30896,2.01303 -11.60904,-5.64357 -7.34943,-10.61715 -10.6196,-13.52368 -14.16819,-12.59268 -4.45602,1.16909 -3.75969,4.45308 3.70223,17.46003 7.90721,13.78313 10.05965,20.43442 7.91167,24.44798 -2.98076,5.5696 -0.9107,6.72127 11.70401,6.5115 6.42515,-0.1068 12.97229,-0.48787 14.5492,-0.84671 z M 180.63243,84.066213 C 184.28471,77.003493 183.55231,76 174.74536,76 c -8.83552,0 -10.16261,0.948877 -7.73125,5.527896 C 170.14628,87.426769 170.828,88 174.71112,88 c 2.95587,0 4.37439,-0.942385 5.92131,-3.933787 z M 28.666667,123.86259 C 18.4,123.38271 8.8773309,122.52523 7.5051797,121.95709 5.3935086,121.08274 5.1265938,119.94267 5.7672032,114.53373 6.717962,106.50606 9.0343227,102.03801 15.627704,95.513731 c 6.028795,-5.965615 12.955304,-8.778755 22.372297,-9.08631 19.792523,-0.646414 33.863667,7.105767 38.557738,21.242529 2.228486,6.71135 2.223645,7.21155 -0.11616,12 l -2.441578,4.99672 -13.333333,0.0342 c -7.333334,0.0188 -21.733334,-0.35841 -32.000001,-0.83829 z m 37.666667,-9.80982 c 4.913226,-1.87413 -0.450738,-10.72237 -9.833472,-16.221015 -5.406259,-3.168279 -6.943764,-3.440116 -16.235819,-2.870564 -12.190337,0.7472 -17.906161,3.521104 -23.445528,11.378169 -6.310592,8.95098 -5.840951,9.13134 22.695292,8.7156 13.834074,-0.20155 25.902861,-0.65253 26.819527,-1.00219 z M 35.206651,35.861399 C 33.809659,34.318503 30.866667,29.668503 28.666667,25.528065 26.466667,21.387629 23.771974,18 22.67846,18 c -1.134446,0 -3.155718,2.862751 -4.707061,6.666667 -4.991883,12.240162 -8.3315608,15.360117 -11.1159778,10.384641 -0.9043946,-1.616064 -0.5605939,-3.658871 1.1780873,-7 3.4646675,-6.657865 9.0463105,-18.94974 9.8619585,-21.7179747 0.795352,-2.6993466 5.340475,-3.1078626 7.417292,-0.6666666 3.301952,3.881278 12.020575,17.2215413 12.020575,18.3925413 0,0.700768 0.892457,1.274125 1.983237,1.274125 1.116854,0 4.0144,-4.03335 6.632763,-9.232722 4.381772,-8.7010381 8.155156,-12.0961466 11.290335,-10.1584995 0.694941,0.4294977 3.081293,3.958023 5.303004,7.8411675 2.221709,3.883145 5.307684,8.207978 6.857719,9.610741 2.424633,2.194263 2.989824,2.275021 4.046733,0.578228 C 77.181619,17.976789 82.83106,8.4448701 83.506352,7 c 2.310372,-4.943328 7.784004,-0.2720301 15.623446,13.333333 2.007102,3.483334 4.195912,6.333334 4.864012,6.333334 0.66811,0 2.40466,-2.690002 3.859,-5.97778 3.26463,-7.380248 9.22611,-15.3555537 11.47816,-15.3555537 1.68193,0 8.68014,8.0341777 13.12824,15.0716587 1.29957,2.056079 3.22929,4.070812 4.28827,4.477185 2.46374,0.945423 7.14996,-4.612414 7.20816,-8.548844 0.0244,-1.65 0.65922,-3 1.4107,-3 0.75148,0 1.91712,-1.448658 2.59029,-3.219241 2.24861,-5.9143005 9.26667,-5.6152876 11.88287,0.506284 2.63533,6.16632 9.06516,14.727127 10.81118,14.394217 1.0912,-0.208058 4.0912,-4.39176 6.66667,-9.297116 6.28917,-11.9786818 6.7996,-12.3914093 11.12089,-8.9922771 C 190.39722,8.2661241 192,10.462512 192,11.606062 c 0,1.143549 1.25578,4.11107 2.79062,6.594491 3.46353,5.604108 7.84758,17.383474 6.84349,18.387562 -2.76317,2.763177 -10.96744,-4.009035 -10.96744,-9.05308 0,-1.048452 -1.15741,-3.322748 -2.57203,-5.05399 -3.15376,-3.859665 -4.53852,-2.803889 -9.49201,7.236974 -4.63235,9.389894 -8.40032,9.945445 -15.01795,2.214245 -2.61101,-3.050387 -5.71386,-7.583032 -6.89521,-10.072545 -1.18135,-2.489512 -2.56976,-4.522592 -3.08536,-4.517955 -0.99268,0.0089 -5.10132,6.414491 -7.6916,11.991569 -4.58944,9.881423 -12.48187,10.14514 -17.24449,0.576207 -3.76646,-7.5675 -7.19248,-12.576207 -8.60227,-12.576207 -0.66336,0 -3.02437,3.848358 -5.24669,8.551906 -3.86517,8.180634 -8.1095,12.781428 -11.79114,12.781428 -0.94164,0 -4.310926,-4.05 -7.487308,-9 -8.995127,-14.017802 -9.043104,-14.025771 -14.692237,-2.440688 -5.95555,12.213473 -8.774231,13.644598 -14.254971,7.237656 -2.100099,-2.454999 -3.842746,-5.120643 -3.872548,-5.923651 -0.0298,-0.803009 -1.254188,-2.546003 -2.720855,-3.873317 -1.466667,-1.327315 -2.666667,-3.220308 -2.666667,-4.206651 0,-6.333199 -7.866656,3.243299 -11.943933,14.539984 -1.63413,4.527593 -6.49123,4.938475 -10.18275,0.861399 z"
       id="path818" />
  </g>
</svg>
