<?xml version="1.0" encoding="UTF-8" standalone="no"?>
<!-- Created with Inkscape (http://www.inkscape.org/) -->

<svg
   version="1.1"
   id="svg333"
   width="220"
   height="352"
   viewBox="0 0 220 352"
   xmlns="http://www.w3.org/2000/svg"
   xmlns:svg="http://www.w3.org/2000/svg">
  <defs
     id="defs337" />
  <g
     id="g339">
    <path
       style="fill:#000000;stroke-width:1.33333"
       d="m 184.64692,343.82029 c -7.49857,-4.01681 -13.20913,-8.97852 -17.34072,-15.06676 -4.68223,-6.89964 -5.98357,-10.54588 -6.14764,-17.2249 -0.20136,-8.19812 -0.17785,-8.25419 4.50811,-10.75054 6.09326,-3.24608 22.19534,-1.24872 30.08508,3.73186 3.04073,1.91953 6.04009,3.49005 6.66526,3.49005 1.21339,0 9.17571,9.33359 11.86907,13.91315 2.09303,3.55878 2.15225,11.66602 0.11787,16.13106 -3.70042,8.12152 -19.61259,11.21022 -29.757,5.77608 z m 21.45051,-8.44853 c 2.00584,-3.06128 1.98437,-3.64889 -0.30259,-8.28727 -1.35383,-2.7458 -5.29896,-7.01024 -8.76695,-9.47653 -10.56613,-7.51417 -26.07992,-11.96587 -28.43281,-8.1588 -1.23708,2.00164 3.00509,11.2082 8.91005,19.33693 4.01896,5.53251 5.99784,7.04234 10.71224,8.17322 10.5296,2.5258 15.47244,2.08693 17.88006,-1.58755 z M 28.666667,330.47844 C 25,330.00825 18.491984,329.94979 14.204408,330.34857 5.4798665,331.15995 4.0549461,330.16488 4.0204171,323.23683 c -0.025049,-5.02591 6.9339579,-18.22074 11.5067349,-21.81768 4.978483,-3.91608 17.119899,-8.08658 23.522865,-8.07995 8.634544,0.009 22.968655,5.58456 28.196927,10.96795 5.914201,6.0896 10.086389,14.46186 10.086389,20.24014 0,5.87738 -2.713957,7.59286 -9.185368,5.806 -2.624441,-0.72464 -7.781369,-0.89128 -11.459838,-0.3703 -9.283256,1.31476 -20.135915,1.50665 -28.02146,0.49545 z m 1.921534,-7.87568 c 3.990179,0.12187 7.590179,0.41116 8,0.64288 1.115292,0.63063 26.78296,-1.50569 27.572086,-2.29481 0.374905,-0.37491 0.02455,-3.12196 -0.77859,-6.10455 -2.01921,-7.49877 -9.657386,-11.05208 -25.384309,-11.80885 -10.736793,-0.51666 -11.640429,-0.34099 -17.096791,3.32354 -6.622913,4.448 -10.879135,10.23512 -10.891811,14.80944 -0.0083,2.9955 0.303861,3.11635 5.657881,2.1906 3.116666,-0.53889 8.931357,-0.8801 12.921534,-0.75825 z m 70.813279,-54.47543 c -2.098403,-3.9209 -1.12501,-45.91398 1.12718,-48.62772 2.13282,-2.56988 7.26955,-2.85096 9.13067,-0.49961 3.17703,4.01389 4.55015,46.20112 1.61873,49.73327 -2.39251,2.8828 -10.22329,2.48328 -11.87658,-0.60594 z M 7.7338484,267.21076 4.1343636,265.31857 4.5093992,246.06635 c 0.3739489,-19.19644 1.3604855,-23.39968 5.4920998,-23.39968 3.669766,0 5.028504,7.73982 4.402438,25.07774 -0.337828,9.35562 -1.166915,17.98858 -1.842418,19.18438 -1.087984,1.92597 -1.639078,1.95816 -4.8276706,0.28197 z M 201.45919,268.106 c -2.4854,-1.57348 -3.07564,-37.03509 -0.72999,-43.85812 1.96955,-5.72903 5.13095,-7.71005 9.28415,-5.81773 3.75888,1.71265 4.3634,5.50933 4.54672,28.5556 0.122,15.34098 -0.12454,17.24533 -2.54582,19.66666 -2.81962,2.81963 -7.40078,3.45052 -10.55506,1.45359 z M 20.465697,207.05653 c -4.661384,-2.30977 -7.132364,-6.5708 -7.132364,-12.29925 0,-4.64691 3.781184,-7.38608 12.028284,-8.71357 6.48351,-1.04362 44.72415,-0.95347 69.30505,0.16338 C 103.1,186.59027 117.2,186.27003 126,185.49544 c 8.8,-0.77459 30.46875,-1.78937 48.15277,-2.25509 l 32.15278,-0.84675 3.51389,3.78957 c 4.56508,4.92324 4.79684,12.18038 0.51389,16.09164 -4.7629,4.34958 -19.88406,5.54536 -71,5.6147 -25.66666,0.0348 -61.966663,0.33001 -80.666663,0.65598 -28.961071,0.50484 -34.6226,0.28416 -38.20097,-1.48896 z M 152,200.02981 c 50.7548,-2.37949 52.21063,-2.54392 51.74009,-5.84384 L 203.33333,191.33333 118,191.77916 c -46.933333,0.24521 -87.726875,0.85433 -90.652313,1.35363 -5.367018,0.91598 -8.076678,4.76858 -4.78482,6.80306 2.408746,1.48868 98.204383,1.55823 129.437133,0.094 z m -19.7175,-28.4424 c -0.68519,-0.87308 -1.6034,-3.91176 -2.04047,-6.75261 -0.43706,-2.84087 -1.01768,-5.38823 -1.29025,-5.6608 -0.27257,-0.27257 -10.34823,-0.64823 -22.39035,-0.83479 L 84.666667,158 l 0.434269,4.45015 c 0.812028,8.32118 -7.99544,12.41874 -9.95046,4.62932 -0.869637,-3.46491 0.236044,-14.34148 1.698456,-16.70771 1.205473,-1.95051 57.219478,-0.52812 59.681908,1.51552 2.38021,1.9754 3.93435,14.08548 2.21899,17.29067 -1.74011,3.25142 -4.88658,4.42366 -6.46733,2.40946 z m -93.996121,-1.4915 C 35.817877,167.6274 34.817665,154.529 33.883121,112.43254 33.182091,80.854633 33.282011,78.795325 35.568961,77.688347 36.906032,77.041148 40.1,76.846508 42.666667,77.255811 L 47.333333,78 48.241311,98 c 0.499388,11 0.994146,31.37532 1.099462,45.27849 0.172366,22.75462 -0.04357,25.45038 -2.162817,27 -3.083115,2.25443 -6.525243,2.18375 -8.891577,-0.18258 z m 135.999991,-2.66667 c -2.46849,-2.46851 -3.4687,-15.56691 -4.40325,-57.66337 -0.70103,-31.577903 -0.60111,-33.637211 1.68584,-34.74419 1.33707,-0.647199 4.53104,-0.841839 7.09771,-0.432536 l 4.66666,0.744189 0.90798,20 c 0.49938,10.999997 0.99414,31.375317 1.09946,45.278497 0.17236,22.75461 -0.0436,25.45037 -2.16281,27 -3.08312,2.25442 -6.52525,2.18374 -8.89159,-0.18259 z M 201.44399,66.420353 c -2.1871,-2.431194 -7.48998,-8.237585 -11.78416,-12.903089 l -7.8076,-8.482737 -7.25946,4.72685 c -3.99269,2.59977 -9.84438,7.403735 -13.00376,10.67548 -5.5147,5.710836 -11.52332,8.493487 -13.04022,6.039066 -1.33688,-2.163118 0.86269,-6.218854 5.17016,-9.53308 8.06508,-6.205399 20.94772,-19.221048 20.94772,-21.163999 0,-1.068173 -5.1,-7.181765 -11.33334,-13.58576 C 155.34795,13.989073 152,9.5820776 152,7.2747287 152,4.7110653 152.69172,4 155.18563,4 c 4.01726,0 6.44376,2.1780244 16.71112,15 4.70672,5.877792 9.29177,10.333333 10.63372,10.333333 1.29753,0 5.009,-2.459582 8.24768,-5.465738 3.23868,-3.006156 8.43852,-7.307868 11.55518,-9.55936 C 205.45,12.056743 208,9.3764724 208,8.3520772 c 0,-1.2452473 1.21523,-1.7227101 3.66667,-1.4406403 5.11626,0.5886919 5.44801,4.9092741 0.7229,9.4151281 -7.97306,7.603106 -14.57162,13.475658 -18.7229,16.662911 -2.38334,1.829865 -4.32078,4.005815 -4.30544,4.835443 0.0153,0.829628 5.14073,7.455081 11.38973,14.72323 6.24901,7.268148 11.18032,14.168148 10.95848,15.333334 -0.75776,3.979972 -6.04801,3.226984 -10.26545,-1.46113 z M 59.062927,60.333333 c -4.468847,-4.95 -9.639924,-10.8 -11.491282,-13 l -3.366104,-4 -3.769437,3.529038 C 30.6086,56.063113 17.795159,65.333063 15.346955,65.013244 c -5.068068,-0.662061 -3.443149,-4.424491 5.099882,-11.808561 4.692046,-4.055514 10.443715,-9.552134 12.78149,-12.214711 4.073182,-4.6391 4.166542,-4.997116 2.237974,-8.582177 -1.106886,-2.05762 -5.639966,-7.319607 -10.07351,-11.693302 -4.433544,-4.373696 -8.410216,-9.052488 -8.837048,-10.397317 -1.118532,-3.5241821 1.785261,-6.5852887 4.744512,-5.001546 3.070132,1.6430848 14.017756,13.090874 18.374141,19.213603 2.551949,3.586664 4.377868,4.8041 7.20522,4.8041 2.118764,0 3.805212,-0.734206 3.828279,-1.666666 C 50.730575,26.75 53.541959,23.9 56.955427,21.333333 60.368893,18.766667 65.739099,14.131184 68.889217,11.03226 74.611117,5.4033499 77.661651,4.7911245 79.258056,8.9512908 80.093565,11.128592 64.092887,27.538803 57.095008,31.681595 c -1.964412,1.162945 -3.89168,3.338212 -4.282817,4.833924 -0.73534,2.811944 0.247245,4.338224 8.681012,13.484481 7.081036,7.679245 11.810065,15.193581 10.958472,17.412797 -1.470756,3.832732 -5.424742,1.742015 -13.388748,-7.079464 z"
       id="path957" />
  </g>
</svg>
