<?xml version="1.0" encoding="UTF-8" standalone="no"?>
<!-- Created with Inkscape (http://www.inkscape.org/) -->

<svg
   version="1.1"
   id="svg219"
   width="206.66667"
   height="114.66667"
   viewBox="0 0 206.66667 114.66667"
   xmlns="http://www.w3.org/2000/svg"
   xmlns:svg="http://www.w3.org/2000/svg">
  <defs
     id="defs223" />
  <g
     id="g225">
    <path
       style="fill:#000000;stroke-width:1.33333"
       d="M 14.268256,108.35817 C 7.291524,107.63241 6.3227232,104.49956 6.3234389,82.666669 6.3247246,43.441299 8.5182857,23.910117 13.774231,16.325784 20.604624,6.4695245 43.656799,2.0246453 56.538945,8.0799689 65.476408,12.281072 71.977196,19.438595 72.108324,25.222223 c 0.05958,2.627778 0.335021,6.277778 0.612097,8.111111 0.277078,1.833334 0.90173,6.933334 1.388116,11.333334 1.270983,11.497691 1.567031,11.69673 16.156995,10.862671 6.824194,-0.390116 13.011488,-1.082509 13.749538,-1.538651 0.73805,-0.456142 4.76304,-5.117092 8.9444,-10.357665 4.18137,-5.240574 8.52605,-10.511703 9.65485,-11.713622 3.2231,-3.431896 7.06834,-8.155208 11.0604,-13.586067 3.33852,-4.541783 4.24711,-5 9.91438,-5 4.48905,0 7.06917,0.779878 9.19865,2.780414 1.62779,1.52923 8.84625,6.838899 16.04104,11.799267 7.19479,4.960369 14.22272,10.547491 15.61764,12.415829 1.44965,1.941657 2.97507,7.025844 3.56059,11.8674 2.65618,21.963627 7.02721,35.812825 12.17216,38.566313 1.95324,1.045343 2.53589,2.52268 2.23202,5.659366 -0.4111,4.243727 -0.41328,4.244847 -9.052,4.649687 -5.79652,0.27164 -9.46469,1.14943 -11.14374,2.66666 -2.66554,2.40867 -7.0087,2.32188 -10.09412,-0.2017 C 170.78755,102.44567 157.47519,102 126.22265,102 H 82.202643 l -0.923362,-3.432416 c -1.26559,-4.704583 2.196096,-10.910363 8.446599,-15.142252 3.88666,-2.631455 6.729063,-3.42533 12.26411,-3.42533 6.71086,0 7.76706,0.467835 15.40329,6.822771 l 8.1984,6.822772 25.48826,-0.857249 c 23.60258,-0.793828 25.71385,-1.06918 28.53749,-3.721857 3.17813,-2.985702 4.26303,-10.825561 1.71591,-12.39977 C 180.6,76.213444 180,74.171963 180,72.130046 c 0,-2.041916 -1.2,-7.200437 -2.66666,-11.463378 -1.46667,-4.26294 -2.66667,-8.813188 -2.66667,-10.111663 0,-3.080026 -7.19636,-8.935018 -16.91151,-13.759296 -4.26533,-2.118047 -9.05164,-5.017859 -10.63621,-6.444024 -3.97789,-3.580219 -6.96985,-2.60496 -11.72243,3.821047 -2.23475,3.021634 -7.65192,10.401452 -12.03814,16.399593 -11.61443,15.882661 -10.19556,15.11809 -30.254029,16.302634 -9.599987,0.566924 -17.825732,1.401692 -18.279435,1.855042 -0.453703,0.453349 -0.894664,9.239553 -0.979915,19.524899 -0.11888,14.34241 -0.58498,18.97294 -2,19.86911 -1.778748,1.12653 -47.221723,1.31134 -57.576745,0.23416 z M 64.139893,99.060111 C 64.779594,98.42041 65.45024,85.020189 65.630214,69.281843 65.975998,39.04413 65.616152,36.55185 59.198688,24.737367 c -4.04646,-7.44949 -9.667965,-10.0707 -21.597842,-10.0707 h -9.774092 l -7.093544,7.441706 c -5.025992,5.272674 -6.896251,8.196155 -6.416654,10.030137 0.37229,1.423638 -0.1148,10.524871 -1.082418,20.224962 -0.967619,9.700091 -1.634021,18.107899 -1.480893,18.684018 0.153127,0.576119 0.320155,6.399426 0.371171,12.940683 l 0.09276,11.893195 4.224747,2.502279 c 3.728871,2.208573 6.707806,2.463383 25.379813,2.170913 11.635286,-0.18224 21.678457,-0.854746 22.31816,-1.494449 z m 43.745527,-5.237192 c 5.50472,-1.100943 4.65974,-3.133242 -2.36811,-5.695663 -5.00739,-1.825745 -6.057898,-1.836649 -9.146967,-0.09495 -1.919429,1.08223 -3.722556,2.671428 -4.00695,3.531552 -0.800752,2.421812 8.175947,3.72827 15.522027,2.259054 z"
       id="path247" />
  </g>
</svg>
