<?xml version="1.0" encoding="UTF-8" standalone="no"?>
<!-- Created with Inkscape (http://www.inkscape.org/) -->

<svg
   version="1.1"
   id="svg209"
   width="214.66667"
   height="216"
   viewBox="0 0 214.66667 216"
   xmlns="http://www.w3.org/2000/svg"
   xmlns:svg="http://www.w3.org/2000/svg">
  <defs
     id="defs213" />
  <g
     id="g215">
    <path
       style="fill:#000000;stroke-width:1.33333"
       d="m 95.539985,209.56168 c -1.213658,-1.34108 -2.20665,-3.36761 -2.20665,-4.50341 0,-3.37486 -3.296766,-5.11388 -9.499768,-5.01108 -36.209502,0.60005 -77.0600885,-0.12907 -77.8389274,-1.3892 -0.5017952,-0.81192 -0.5618888,-2.87259 -0.1335415,-4.57926 l 0.7788132,-3.10304 32.3467117,-0.0888 c 41.374958,-0.1136 52.574644,-0.57289 54.17899,-2.22173 0.712724,-0.73248 1.492031,-3.13179 1.731792,-5.33179 0.350622,-3.21722 1.064691,-4 3.648934,-4 2.610221,0 3.493741,1.00058 4.709381,5.33334 1.84209,6.56548 4.33572,6.80161 7.22427,0.68409 3.15356,-6.67875 5.75398,-6.51985 9.19451,0.5618 l 2.91395,5.99779 42.15581,-0.1052 c 26.79705,-0.0668 42.6473,0.38636 43.50488,1.24393 0.742,0.742 0.94906,2.60949 0.46013,4.14999 -0.84536,2.66348 -1.8166,2.80744 -19.79912,2.93462 -56.20595,0.39754 -65.71994,0.62555 -67.24348,1.61162 C 120.75,202.33863 120,203.89563 120,205.20536 c 0,3.1424 -4.71274,7.31807 -7.18751,6.36841 -1.07442,-0.41229 -2.14677,-2.43506 -2.38299,-4.49504 -0.62105,-5.41588 -5.18144,-5.06632 -7.67012,0.58792 -2.16506,4.91898 -4.037865,5.41056 -7.219395,1.89502 z M 32.761906,171.23809 c -1.536946,-1.53694 -2.130767,-5.00089 -2.228576,-13 C 30.459995,152.24048 29.985391,136.83333 29.478655,124 28.971919,111.16667 28.796703,99.636539 29.089286,98.377492 c 0.70171,-3.019608 4.798112,-4.221701 8.193684,-2.404445 2.395124,1.28183 2.717031,2.751078 2.717031,12.401103 0,6.02085 0.676874,22.30157 1.504166,36.1794 1.42096,23.83658 1.369984,25.3305 -0.921505,27.00609 -3.179269,2.32473 -5.260024,2.23919 -7.820756,-0.32155 z m 139.777604,1.07483 c -2.39287,-1.60496 -3.31643,-10.0746 -4.46861,-40.97959 -0.67836,-18.19598 -0.61268,-30.24882 0.17301,-31.744534 0.90255,-1.718163 2.48665,-2.293013 5.51135,-2 L 178,98 l 0.83662,14 c 1.53802,25.73728 1.30224,57.99448 -0.43662,59.73333 -1.8167,1.81671 -3.73341,2.00627 -5.86049,0.57959 z M 184,75.373481 C 173.7547,73.017157 170.79414,71.652599 163.97066,66.141695 153.90118,58.009204 149.49775,52.976137 145.7654,45.333333 142.75178,39.16226 142.09511,35.778471 141.6221,23.983155 140.8778,5.4226469 141.88787,3.9727639 155.9573,3.4061443 c 15.12492,-0.6091283 24.92053,2.6976881 35.49666,11.9830167 11.13283,9.774082 16.81856,19.592172 18.99312,32.79726 1.91984,11.658207 1.20643,16.038859 -3.35482,20.60011 -3.23727,3.237264 -12.73056,8.666434 -14.7058,8.410174 -0.57922,-0.07514 -4.35312,-0.895596 -8.38646,-1.823224 z m 14.14468,-9.401256 c 3.7296,-2.83767 4.21646,-4.047542 4.86128,-12.080804 0.63587,-7.921502 0.31912,-9.642258 -2.81134,-15.272926 -4.95784,-8.917511 -13.36303,-17.813904 -18.86128,-19.963544 -2.56667,-1.003486 -7.06667,-3.31374 -10,-5.133902 -5.74007,-3.5617606 -18,-5.6214453 -18,-3.024021 0,0.826634 -0.9,1.502972 -2,1.502972 -1.1,0 -2,0.9 -2,2 0,1.1 -0.66678,2 -1.48172,2 -3.07679,0 2.95392,21.393297 8.49917,30.149945 4.97159,7.850746 15.68503,19.253646 19.54869,20.806746 10.53772,4.235906 15.68327,4.008189 22.2452,-0.984466 z M 28.81183,74.837736 C 23.296114,73.947111 20.506647,70.120581 22.768475,66.547592 26.792386,60.191053 21.367655,48.078383 12.982777,44.697488 3.121586,40.721323 -0.78215491,26.7774 5.9363349,19.528031 8.0344397,17.264137 10.601687,16 13.101161,16 c 2.707407,0 5.674477,-1.651213 9.730331,-5.415057 L 28.666667,5.169886 39.16501,5.6023221 49.663353,6.0347583 55.68703,12.684046 c 4.731538,5.222949 6.901139,6.649287 10.114219,6.649287 4.870564,0 7.482293,4.034156 7.512429,11.60393 0.03152,7.916038 -2.463372,11.598316 -10.662628,15.737288 -5.853965,2.955072 -8.000922,4.92692 -9.86476,9.060174 -1.849017,4.100387 -2.054441,5.895712 -0.917641,8.019843 0.805577,1.505233 1.464685,4.576233 1.464685,6.824444 0,4.039939 -0.08171,4.087867 -7,4.105861 -3.85,0.01 -8.2,0.236995 -9.666667,0.504403 -1.466666,0.267408 -5.001344,0.109213 -7.854837,-0.35154 z M 42.333957,65 c -0.840031,-2.52292 -5.000623,-2.8816 -5.000623,-0.431099 0,1.236847 1.139995,2.097766 2.777777,2.097766 1.629298,0 2.54834,-0.689088 2.222846,-1.666667 z m 1.246776,-11.899085 c 1.697264,-1.594498 3.08963,-3.544498 3.094149,-4.333334 0.0045,-0.788836 0.951516,-3.234248 2.10444,-5.434248 1.296476,-2.473921 2.173431,-7.866088 2.298584,-14.13339 0.19344,-9.686776 0.02724,-10.287259 -3.771107,-13.624532 -3.048185,-2.678177 -5.422185,-3.500953 -10.19476,-3.533276 -5.65838,-0.03832 -6.593359,0.427635 -10.333333,5.149737 -2.79117,3.524139 -4.112039,6.665548 -4.112039,9.779617 0,6.08776 8.139061,22.586131 12.889579,26.127959 4.678424,3.488077 4.313231,3.488011 8.024487,0.0015 z M 64.000001,33.921311 c 0,-1.143279 -0.6,-1.70787 -1.333333,-1.254644 -0.733334,0.453225 -1.333334,1.388634 -1.333334,2.078689 0,0.690055 0.6,1.254644 1.333334,1.254644 0.733333,0 1.333333,-0.935411 1.333333,-2.078689 z M 12.883041,29 c -0.369883,-0.916667 -0.672515,-0.166667 -0.672515,1.666667 0,1.833333 0.302632,2.583333 0.672515,1.666666 0.369883,-0.916666 0.369883,-2.416666 0,-3.333333 z"
       id="path386" />
  </g>
</svg>
