<?xml version="1.0" encoding="UTF-8" standalone="no"?>
<!-- Created with Inkscape (http://www.inkscape.org/) -->

<svg
   version="1.1"
   id="svg199"
   width="253.33333"
   height="212"
   viewBox="0 0 253.33333 212"
   xmlns="http://www.w3.org/2000/svg"
   xmlns:svg="http://www.w3.org/2000/svg">
  <defs
     id="defs203" />
  <g
     id="g205">
    <path
       style="fill:#000000;stroke-width:1.33333"
       d="m 43.481363,205.49691 c -1.245897,-1.37671 -3.58889,-5.11679 -5.206649,-8.31131 -2.311777,-4.56496 -3.867174,-5.99057 -7.266497,-6.66016 -2.378813,-0.46857 -5.228813,-1.60195 -6.333333,-2.51861 -2.245087,-1.86327 -2.724974,-8.7398 -0.697367,-9.99294 0.79144,-0.48913 0.982935,-4.6894 0.483281,-10.60029 -0.781817,-9.24888 -0.658953,-9.8804 2.22229,-11.42239 3.433268,-1.83742 13.952917,-0.89646 16.849062,1.50712 0.990651,0.82218 1.801183,2.92139 1.801183,4.66492 0,3.15891 -1.893148,3.89492 -8.333333,3.23982 -3.121192,-0.3175 -3.002168,3.48366 0.277508,8.8625 1.82071,2.98606 4.221643,4.70199 8.004129,5.72051 2.971789,0.80021 7.284352,3.29377 9.58347,5.54124 3.6381,3.55635 4.83525,3.98155 9.23114,3.27861 C 71.17574,187.67388 181.12234,185.02795 186,185.87225 c 2.2,0.38082 6.09006,0.24278 8.64458,-0.30674 4.5023,-0.96852 4.6908,-1.26308 6.15371,-9.61566 3.98451,-22.74986 5.26692,-24.62384 15.86837,-23.18805 13.87519,1.87915 13.67614,1.46351 12.89002,26.91479 -0.49486,16.02106 -0.5688,16.3593 -3.75114,17.15802 -1.97162,0.49486 -4.14144,0.0553 -5.52593,-1.11942 -2.70984,-2.29924 -11.71532,-3.04026 -12.93641,-1.06448 -0.47162,0.76306 -3.06676,2.50037 -5.767,3.86066 -4.64279,2.33888 -8.6766,2.4399 -74.24287,1.85896 -70.061121,-0.62076 -76.666664,-0.26573 -76.666664,4.12068 0,1.0397 -0.949072,2.25455 -2.109049,2.69967 -2.779218,1.06649 -2.491315,1.16255 -5.076254,-1.69377 z M 218.6616,187.03577 c 0.36388,-0.31965 0.87985,-5.38748 1.14662,-11.26185 0.51668,-11.37751 -0.58306,-14.29848 -4.54796,-12.07961 -3.16021,1.76854 -7.42446,15.8457 -6.43552,21.24496 0.72647,3.96625 1.08346,4.21542 4.97892,3.47514 2.30799,-0.4386 4.49406,-1.05898 4.85794,-1.37864 z M 9.7286345,176.63057 c -2.0028533,-1.46665 -2.3953013,-3.75505 -2.3953013,-13.96721 0,-13.77856 1.6064437,-16.59812 8.4044608,-14.75115 3.137791,0.85252 3.541467,1.55684 3.170816,5.53234 -0.37057,3.97462 -0.619337,7.64668 -1.404594,20.73328 -0.209488,3.49118 -4.506307,4.84662 -7.7753815,2.45274 z M 203.42769,140.33459 c -12.83972,-0.24467 -21.9354,-0.98271 -23,-1.86626 -4.29335,-3.56316 -0.22992,-15.15573 7.25107,-20.68667 8.51318,-6.29407 14.90957,-8.5752 24.12694,-8.60433 4.94738,-0.0156 10.76502,0.3989 12.9281,0.9212 7.07972,1.70946 16.0909,6.97014 20.4567,11.9425 3.57486,4.07154 4.21695,5.78109 3.87998,10.33022 -0.33563,4.53082 -0.96664,5.59936 -3.73715,6.32843 -5.71541,1.50403 -19.84513,2.05529 -41.90564,1.63491 z m 39.79061,-8.73862 c -1.26614,-4.04673 -6.85418,-10.56004 -10.94952,-12.76254 -1.8748,-1.00828 -7.20152,-2.62679 -11.83714,-3.59669 -7.66068,-1.60282 -9.19563,-1.52264 -16.85108,0.88031 -9.64994,3.02899 -16.9139,8.86354 -16.9139,13.58557 0,1.75245 0.36799,3.55425 0.81775,4.00401 0.44976,0.44976 13.38009,0.81794 28.73408,0.8182 l 27.91633,4.5e-4 z m -175.36779,7.8101 c -0.411591,-0.41159 -13.143736,-0.77111 -28.293657,-0.79894 l -27.545312,-0.0505 -1.876148,-3.62807 c -1.5955874,-3.08557 -1.6042262,-4.4232 -0.05777,-8.94499 1.934791,-5.65725 5.591929,-9.26363 15.24777,-15.03612 5.411916,-3.23537 7.11808,-3.55629 17.622179,-3.3146 13.517932,0.31103 19.754968,2.79566 28.701665,11.43379 6.584972,6.35786 9.256953,12.7488 7.05237,16.8681 -0.804154,1.50257 -2.190989,2.74014 -3.081854,2.75016 -0.890866,0.0107 -2.835012,0.34476 -4.320327,0.74388 -1.485313,0.39912 -3.037327,0.3889 -3.448917,-0.0227 z m -2.183844,-5.91588 c 5.725653,-0.1418 6.333333,-0.45935 6.333333,-3.30951 0,-5.45252 -6.47658,-11.16983 -16,-14.12428 -14.556224,-4.51578 -22.629174,-3.10575 -34.633955,6.04922 -7.89663,6.02205 -8.671986,9.45452 -2.366044,10.47437 8.933406,1.4448 17.966128,1.62097 46.666666,0.9102 z m 62.899874,0.5856 c -0.44967,-1.79166 -0.49981,-3.77174 -0.11142,-4.40018 0.3884,-0.62843 0.10317,-16.41254 -0.63384,-35.075777 -0.73702,-18.663241 -1.29147,-36.49937 -1.23211,-39.635844 0.0672,-3.550857 -0.52672,-5.864366 -1.57396,-6.131182 -0.92503,-0.235679 -3.78188,-1.196311 -6.34854,-2.134739 -2.65126,-0.969353 -11.28875,-1.776448 -20.000005,-1.868816 L 83.333332,44.666667 81.933938,40.337291 c -2.07809,-6.429092 -0.903071,-13.394926 2.438394,-14.455466 1.865918,-0.592218 3.329127,-0.09397 4.524364,1.540611 1.59418,2.180171 2.397381,2.254229 8.231523,0.758984 3.555731,-0.911307 10.906501,-1.695144 16.335041,-1.74186 5.79601,-0.04988 10.27441,-0.708487 10.84965,-1.595583 0.53878,-0.830854 0.98878,-5.525233 1,-10.431954 0.0213,-9.3278161 0.99802,-11.1278123 5.29748,-9.7632163 3.54085,1.1238192 4.55037,5.1473626 2.699,10.7570623 -1.91519,5.803103 0.15061,9.135674 5.07902,8.193546 3.07444,-0.587716 22.24215,1.820944 29.93249,3.76139 2.71692,0.685539 3.86503,0.372766 4.47599,-1.21938 C 173.24885,24.963641 174.70669,24 176.03652,24 c 1.99105,0 2.58125,1.525429 3.34325,8.640837 0.50895,4.752462 0.57553,9.552462 0.14797,10.666667 -0.99996,2.605861 -4.71574,2.622663 -5.71224,0.02583 -0.96272,-2.508798 -6.76016,-2.508798 -11.14884,0 -1.83333,1.048028 -5.19034,1.926766 -7.46001,1.952753 -2.43947,0.02793 -5.15291,1.181204 -6.63665,2.820728 -2.50663,2.769789 -6.09635,2.938769 -11.71191,0.551319 -2.38921,-1.015771 -2.45667,0.506894 -1.94081,43.811428 l 0.53441,44.863768 h -3.03378 c -2.10522,0 -3.28402,-0.99704 -3.85137,-3.25754 z M 148.7526,38.487637 C 150.26653,37.119436 153.11653,36 155.08593,36 c 5.72504,0 4.16423,-3.245543 -2.50829,-5.215703 -4.65115,-1.373317 -6.86998,-1.442056 -9.39607,-0.291086 C 141.36269,31.321945 138.70276,32 137.2706,32 c -1.96304,0 -2.60394,0.918872 -2.60394,3.733333 0,2.053334 0.68751,4.420834 1.52778,5.261111 2.03414,2.034148 9.09258,0.625172 12.55816,-2.506807 z m -25.01827,-3.937724 0.401,-3.450086 -11.06767,0.592926 c -6.91054,0.370218 -11.80099,1.290495 -13.02004,2.450087 C 98.347944,35.759619 98.467193,36 100.96893,36 c 1.58053,0 3.26073,0.626237 3.73377,1.391639 0.50002,0.809052 4.57975,1.227685 9.74536,1 8.44728,-0.372334 8.90504,-0.561707 9.28627,-3.841726 z"
       id="path525" />
  </g>
</svg>
