<?xml version="1.0" encoding="UTF-8" standalone="no"?>
<!-- Created with Inkscape (http://www.inkscape.org/) -->

<svg
   version="1.1"
   id="svg205"
   width="209.33333"
   height="217.33333"
   viewBox="0 0 209.33333 217.33333"
   xmlns="http://www.w3.org/2000/svg"
   xmlns:svg="http://www.w3.org/2000/svg">
  <defs
     id="defs209" />
  <g
     id="g211">
    <path
       style="fill:#000000;stroke-width:1.33333"
       d="m 196.07068,210.33333 c -0.66302,-1.65 -2.19268,-9 -3.39927,-16.33333 -1.20657,-7.33334 -3.05124,-16.25224 -4.09927,-19.81978 -1.04801,-3.56754 -1.91576,-8.06754 -1.92833,-10 -0.012,-1.93246 -1.26269,-8.01356 -2.77805,-13.51356 -1.51536,-5.5 -3.16218,-12.1 -3.6596,-14.66666 -0.71298,-3.67887 -1.60688,-4.74919 -4.22316,-5.05652 -7.33078,-0.86113 -8.15023,1.30892 -9.493,25.13917 -0.67926,12.05455 -1.01418,28.97421 -0.74428,37.59928 0.52436,16.75681 -0.31676,19.37448 -5.67864,17.67269 -4.65198,-1.47648 -4.63344,-1.24169 -3.51399,-44.51498 0.90928,-35.14922 0.74029,-36.17298 -5.971,-36.17298 -4.26772,0 -5.26448,1.16959 -6.73033,7.89726 -0.57156,2.62317 -1.92804,8.36941 -3.0144,12.76941 -1.08636,4.4 -3.82724,15.5 -6.09086,24.66667 -2.2636,9.16666 -4.70758,18.50926 -5.43107,20.76133 -0.72349,2.25207 -1.31543,5.38095 -1.31543,6.95308 0,2.61213 -3.40603,5.61892 -6.36499,5.61892 -0.66384,0 -1.90909,-1.54097 -2.76723,-3.4244 -1.23846,-2.71812 -1.12052,-5.12436 0.57185,-11.66667 1.17266,-4.53324 2.67398,-8.89834 3.33628,-9.70022 0.6623,-0.80187 1.77821,-5.00187 2.47981,-9.33334 2.29896,-14.19316 7.97037,-37.80041 10.04497,-41.81224 3.04783,-5.89384 2.50753,-9.61808 -2.63403,-18.15648 -4.7614,-7.90711 -5.37752,-10.83805 -4.74516,-22.573315 0.51425,-9.543388 6.43132,-18.96863 14.86406,-23.676797 5.82641,-3.253006 7.91017,-3.655782 18.8818,-3.649705 10.44044,0.0057 13.07884,0.466076 17.19608,3 6.76037,4.160621 14.13385,13.460269 15.91398,20.071185 2.22594,8.266465 0.45359,20.278672 -4.22192,28.614432 l -3.94073,7.02578 2.62108,9.64089 c 1.44159,5.30248 4.20011,18.34088 6.13003,28.97421 C 197.29581,173.3 199.46266,184.7 200.18112,188 c 3.80557,17.47985 4.00722,19.19274 2.61833,22.24102 -1.79168,3.9323 -5.16715,3.9786 -6.72877,0.0923 z m -27.97935,-89.78808 c 17.16869,-5.02926 23.77263,-21.570769 14.242,-35.673342 -3.54904,-5.251552 -5.65135,-6.876009 -11.61548,-8.975329 -9.72713,-3.423857 -14.13731,-3.195515 -21.91277,1.134565 -4.83267,2.691268 -7.393,5.305007 -9.85771,10.063293 -3.08347,5.952871 -3.21488,6.939743 -1.77869,13.357303 2.3241,10.38519 5.85976,15.21849 13.85597,18.94133 8.29312,3.86107 7.90796,3.83506 17.06668,1.15218 z M 154.6813,101.36069 c -1.87008,-3.49428 -0.36036,-9.081843 2.92959,-10.84257 4.03479,-2.159353 8.52084,-0.361852 10.39617,4.165613 1.45404,3.510361 1.36002,4.402328 -0.70453,6.683627 -3.22111,3.55929 -10.71491,3.55533 -12.62123,-0.007 z M 39.333333,211.254 C 21.837785,207.16017 9.3333332,199.79669 9.3333332,193.58792 c 0,-1.52014 -0.6,-3.1347 -1.3333333,-3.58792 -0.7333333,-0.45323 -1.3333333,-4.11254 -1.3333333,-8.13182 0,-7.71521 3.1485266,-15.68338 8.1886544,-20.7235 2.963476,-2.96348 2.379321,-4.29192 -3.076409,-6.99618 -2.0944116,-1.03813 -3.2468852,-2.92304 -3.5239352,-5.76349 -0.518444,-5.31536 4.3908702,-9.12251 10.2518882,-7.95031 2.094977,0.419 5.496757,0.31046 7.559511,-0.24121 l 3.75046,-1.00303 -4.575086,-1.851 C 12.829535,132.31772 7.4127672,125.81559 5.7922843,113.99287 c -0.5415559,-3.95108 -0.1137937,-7.07627 1.3778305,-10.0663 1.1897701,-2.38495 2.1632184,-5.039502 2.1632184,-5.899004 0,-0.859501 1.4999998,-2.971907 3.3333328,-4.694234 4.305654,-4.044952 4.216932,-6.396725 -0.306197,-8.116416 -2.001742,-0.761061 -4.0925538,-2.096211 -4.6462493,-2.966999 -1.4873415,-2.33912 -1.2596158,-7.294811 0.3818311,-8.309281 2.2544382,-1.39332 49.4558172,-2.182337 53.9039482,-0.901057 5.647995,1.626899 5.673287,4.769764 0.06501,8.078725 -5.559653,3.280276 -5.82885,4.876492 -1.598005,9.475403 7.328317,7.965847 9.625676,22.743853 4.958048,31.893163 -2.78418,5.45745 -15.57003,16.17979 -19.293573,16.17979 -1.258875,0 -1.921499,0.5944 -1.4725,1.32091 0.448999,0.72649 4.917253,1.19729 9.929453,1.04621 8.814807,-0.26569 13.411564,1.30491 13.411564,4.58242 0,1.63977 -5.508205,6.28077 -7.524015,6.33944 -3.005156,0.0875 -2.974881,4.03969 0.05879,7.67492 9.887965,11.84866 11.146252,25.64121 3.362737,36.86017 -4.543633,6.54909 -19.991329,15.83327 -24.564175,14.76327 z m 6.626821,-10.48476 c 2.497645,-1.04358 6.437757,-4.49358 8.755804,-7.66667 3.96031,-5.42111 4.177268,-6.31115 3.595424,-14.74977 -0.714836,-10.36742 -1.789294,-12.03434 -10.651855,-16.52534 -6.058109,-3.06988 -6.448286,-3.5696 -5.644478,-7.22932 0.824466,-3.75377 0.657817,-3.93148 -3.686887,-3.93148 -5.654715,0 -6.606884,0.89015 -4.583023,4.28448 1.329298,2.22944 1.170707,2.9124 -0.97287,4.18959 -6.396961,3.81144 -12.863637,10.85484 -14.267244,15.53967 -3.491104,11.65226 2.851039,24.72988 12.935228,26.67269 7.965645,1.53464 9.60765,1.46863 14.519901,-0.58385 z m 1.281544,-70.30343 c 1.830652,-0.8341 5.000172,-3.93267 7.04338,-6.88571 3.058482,-4.42042 3.690221,-6.69862 3.57514,-12.89282 -0.168591,-9.07437 -2.34659,-12.777362 -10.574136,-17.977944 -5.034689,-3.182397 -5.984853,-4.399911 -5.364059,-6.873352 0.920743,-3.668533 0.441555,-3.989007 -7.811666,-5.224319 l -6.556311,-0.981325 2.89483,4.683932 c 3.095127,5.008024 2.531798,6.448393 -3.20805,8.202623 -6.149905,1.879552 -12.64373,16.378635 -10.737422,23.973975 1.166785,4.64885 10.762861,15.15079 14.592516,15.97006 3.968387,0.84894 12.112463,-0.15742 16.145778,-1.99512 z M 28.652181,34.067294 C 26.095766,30.070974 23.29625,25.24758 22.431036,23.348641 20.218472,18.49259 17.063096,19.702464 15.205268,26.119233 12.410599,35.771771 9.4963844,40.210407 6.2563546,39.749313 1.3345972,39.048889 1.9568998,33.414471 8.5363567,19.105845 13.982792,7.261251 14.907954,5.9999999 18.149861,5.9999999 c 2.831541,0 4.509867,1.4042359 7.96792,6.6666661 2.409443,3.666667 5.784109,8.372736 7.49926,10.457932 l 3.118453,3.791267 5.038097,-10.057764 C 49.073233,2.2855242 52.598356,2.0130154 60.173644,15.435689 c 2.128444,3.771396 4.957482,7.841332 6.28675,9.044303 2.285233,2.068109 2.592642,1.809284 5.644894,-4.752748 3.712481,-7.981461 8.691761,-14.3939107 11.176897,-14.3939107 2.22365,0 9.579054,8.5926917 12.914783,15.0872427 2.882909,5.612922 4.655282,5.765776 7.745492,0.667986 8.06395,-13.3027748 9.85517,-15.7552287 11.50728,-15.7552287 1.02466,0 3.51765,1.8836174 5.53997,4.1858164 2.02233,2.3021993 4.34915,4.8815363 5.17072,5.7318623 0.82157,0.850325 2.48698,3.466708 3.70091,5.814184 1.21393,2.347476 2.69874,4.268137 3.29958,4.268137 1.68338,0 4.68016,-3.933327 9.39669,-12.333333 5.49915,-9.7938246 8.89548,-10.2632103 14.47143,-2 2.1031,3.116666 4.61622,7.644428 5.5847,10.061692 2.59155,6.468297 5.3369,4.971497 11.11803,-6.061692 7.40736,-14.13684065 9.09076,-13.5819762 20.88303,6.883252 6.9715,12.098925 7.97461,17.056219 3.61933,17.886663 -3.61151,0.688626 -6.62031,-2.72562 -10.94317,-12.417839 -2.13062,-4.776975 -4.31231,-8.68541 -4.84823,-8.68541 -0.53592,0 -3.45967,4.776988 -6.49721,10.61553 -5.34222,10.268417 -9.31002,13.886646 -12.13279,11.063873 -1.43291,-1.432906 -5.16405,-7.777051 -9.41748,-16.012736 -1.60964,-3.116667 -3.59675,-5.666667 -4.41579,-5.666667 -0.81902,0 -3.22534,3.75 -5.34737,8.333334 -4.99395,10.78637 -6.92495,12.999999 -11.34025,12.999999 -3.1342,0 -4.29239,-1.263962 -8.50645,-9.283341 -2.68304,-5.105838 -5.49517,-9.664614 -6.24918,-10.130616 C 116.95329,19.607741 112,23.669338 112,25.945609 c 0,0.842769 -1.78679,4.349777 -3.97064,7.793349 C 101.61032,43.860745 97.073412,42.033367 87.987959,25.666666 86.25784,22.55 84.202773,20.03367 83.421144,20.074824 c -0.781629,0.04115 -3.521145,4.391154 -6.087812,9.666666 -3.897075,8.010028 -5.260573,9.660379 -8.268008,10.007436 -3.14798,0.363275 -4.389512,-0.769705 -9.862288,-9 -3.443521,-5.178576 -7.034409,-9.415593 -7.979753,-9.415593 -0.945344,0 -3.600613,3.75 -5.900598,8.333333 -7.028071,14.005301 -10.02106,14.795381 -16.670504,4.400628 z"
       id="path233" />
  </g>
</svg>
