<?xml version="1.0" encoding="UTF-8" standalone="no"?>
<!-- Created with Inkscape (http://www.inkscape.org/) -->

<svg
   version="1.1"
   id="svg75"
   width="217.33333"
   height="54.666668"
   viewBox="0 0 217.33333 54.666668"
   xmlns="http://www.w3.org/2000/svg"
   xmlns:svg="http://www.w3.org/2000/svg">
  <defs
     id="defs79" />
  <g
     id="g81">
    <path
       style="fill:#000000;stroke-width:1.33333"
       d="m 68.669119,43.666668 c -1.167123,-1.65 -3.951676,-5.85 -6.187896,-9.333334 -2.23622,-3.483333 -4.797999,-6.333333 -5.692841,-6.333333 -1.755247,0 -7.455049,9.744844 -7.455049,12.745756 0,2.35534 -4.200146,4.587577 -8.631919,4.587577 -2.819983,0 -4.513948,-1.631381 -8.999146,-8.666666 -3.03889,-4.766667 -6.165082,-8.664418 -6.947094,-8.66167 -0.782013,0.0028 -2.51607,2.665989 -3.853461,5.918312 -2.942432,7.155526 -5.222449,9.244444 -8.837729,8.096999 -4.1933972,-1.330933 -3.4459711,-7.434248 2.451618,-20.019376 5.1546,-10.999629 7.97652,-13.6741816 12.568448,-11.912094 1.98158,0.760404 4.894858,4.874565 10.322704,14.577828 3.515777,6.285095 5.910881,5.721131 9.601364,-2.260788 4.719703,-10.207957 7.836766,-13.6188652 11.409396,-12.4849568 1.605256,0.5094888 3.597022,2.2357088 4.426146,3.8360448 3.19122,6.159544 9.655015,15.576367 10.691764,15.576367 0.597475,0 2.662612,-3.15 4.589193,-7 5.064678,-10.121041 8.234974,-13.2581655 11.585984,-11.464759 3.735368,1.999109 8.537473,7.547709 11.728749,13.552002 1.48712,2.797982 3.42164,4.868002 4.29892,4.600042 0.87728,-0.267958 2.83341,-2.9078 4.34695,-5.866312 4.07504,-7.965469 8.5308,-13.8209734 10.51709,-13.8209734 2.1587,0 9.57931,8.4115704 14.06383,15.9419324 3.08131,5.174096 3.46516,5.412609 5.08646,3.160581 3.74068,-5.19592 10.91406,-17.064433 10.91406,-18.05755 0,-0.5747301 1.7611,-1.0449634 3.91354,-1.0449634 3.9879,0 6.78106,2.9751004 13.54858,14.4311494 1.43971,2.437131 3.34971,4.20026 4.24444,3.918063 0.89472,-0.282197 3.53012,-4.060684 5.85643,-8.396639 5.92533,-11.0441104 11.40551,-12.3481316 16.05269,-3.819788 6.14196,11.27146 12.34711,24.062119 12.36452,25.48697 0.0201,1.646148 -4.02957,4.380245 -6.48793,4.380245 -1.81683,0 -10.8256,-13.707009 -10.8256,-16.47134 0,-4.761803 -3.70695,-1.782601 -7.40239,5.949151 -4.88674,10.224244 -7.6461,12.419644 -12.46306,9.915853 -1.90734,-0.991402 -4.96788,-4.299138 -6.80122,-7.350525 -7.92805,-13.195395 -8.66125,-13.27313 -14.58112,-1.545933 -2.2652,4.487324 -5.21756,8.257202 -7.15954,9.14203 -2.85844,1.30239 -3.72179,1.061859 -6.39247,-1.780948 -1.69823,-1.807685 -4.61301,-6.107816 -6.47728,-9.555845 -4.76506,-8.813135 -6.76973,-8.634972 -11.38027,1.011412 -5.17884,10.835365 -7.47674,12.839744 -12.38786,10.805489 -2.07896,-0.861134 -4.88082,-3.490269 -6.226351,-5.842521 -3.181721,-5.562274 -7.470977,-10.276823 -9.349765,-10.276823 -0.819404,0 -3.115755,3.315208 -5.103003,7.367128 -2.356482,4.804778 -4.802002,7.819119 -7.031222,8.666667 -4.8146,1.830508 -5.518023,1.679263 -7.90866,-1.700461 z"
       id="path630" />
  </g>
</svg>
