<?xml version="1.0" encoding="UTF-8" standalone="no"?>
<!-- Created with Inkscape (http://www.inkscape.org/) -->

<svg
   version="1.1"
   id="svg195"
   width="196"
   height="208"
   viewBox="0 0 196 208"
   xmlns="http://www.w3.org/2000/svg"
   xmlns:svg="http://www.w3.org/2000/svg">
  <defs
     id="defs199" />
  <g
     id="g201">
    <path
       style="fill:#000000;stroke-width:1.33333"
       d="m 129.33333,203.05629 c -4.76666,-0.23642 -9.86666,-0.9555 -11.33333,-1.59794 -3.54292,-1.5519 -32.083527,-4.24704 -38,-3.58843 -41.614113,4.63247 -40.773149,4.75671 -49.184877,-7.26627 -4.712476,-6.73558 -5.419848,-7.23034 -9.617527,-6.72676 -10.609141,1.27274 -13.784296,0.88098 -14.3070741,-1.76521 -0.3045735,-1.54169 0.7339196,-3.48933 2.6185078,-4.91088 l 3.1232683,-2.35588 -3.1034887,-3.30351 c -1.7069186,-1.81693 -2.8991856,-4.34273 -2.6494821,-5.61289 1.1580684,-5.89068 10.8844698,-5.81017 13.1348318,0.10867 1.73289,4.55785 3.604526,4.12305 5.899912,-1.37058 1.970942,-4.71713 5.27888,-5.91596 10.643546,-3.85734 2.94564,1.13034 2.631722,6.30437 -0.557617,9.19068 -3.578191,3.23821 -3.359547,5.41485 1.372816,13.66666 l 4.014459,7 h 10.472061 c 6.172529,0 12.867459,-0.8623 16.306361,-2.10025 3.712474,-1.33643 10.925847,-2.17345 19.834303,-2.30152 13.36096,-0.19207 14.42603,0.004 23.33333,4.29292 8.90086,4.28593 10.12732,4.51212 26.46858,4.88121 9.42438,0.21286 17.42917,0.68095 17.78841,1.04019 1.45836,1.45836 -1.20571,5.95147 -3.96781,6.69195 -2.89032,0.77486 -4.52162,0.76645 -22.28918,-0.11494 z m 43.68886,-32.98626 c -5.33671,-7.34183 -6.7725,-15.18166 -5.62911,-30.7367 2.48425,-33.79657 -0.49687,-48.259697 -12.28011,-59.577823 -5.29254,-5.083642 -14.3678,-9.035687 -20.82654,-9.069436 -2.04248,-0.01067 -5.18174,-0.981378 -6.97615,-2.157122 -2.61529,-1.713601 -5.12523,-1.950657 -12.65115,-1.194858 -5.28384,0.530634 -13.01824,0.33271 -17.690521,-0.452703 C 92.40254,66.113829 80.322291,64.200783 70.123608,62.630175 59.924925,61.059565 50.199453,59.249431 48.511448,58.607652 43.936153,56.868129 39.558741,47.411557 40.581825,41.477203 c 0.456136,-2.645795 1.183382,-6.811178 1.616103,-9.256406 l 0.786764,-4.44587 -11.825679,0.841781 C 16.802976,29.638605 12.227722,28.47332 8.4081633,22.822225 4.7629916,17.429139 5.845028,13.718508 12.147181,10 18.527856,6.2351612 39.832275,5.8548267 46.755864,9.3821528 c 9.205544,4.6899022 11.429465,10.7786402 8.519661,23.3254662 -1.367238,5.895418 -1.565758,9.44221 -0.661602,11.820318 1.204812,3.168899 2.308594,3.712812 10.970836,5.406126 1.238282,0.242061 10.238282,-0.722323 20,-2.143078 9.761716,-1.420753 25.848571,-2.697198 35.748571,-2.836544 23.55131,-0.33149 33.70192,2.607507 46.66667,13.511808 4.76667,4.009115 9.66804,8.928836 10.89193,10.932712 1.2239,2.003876 2.85784,4.034366 3.63099,4.512196 1.54787,0.956639 4.41051,6.937868 6.67865,13.954474 2.10171,6.50169 1.75596,26.003219 -0.64064,36.134369 -1.12758,4.76667 -2.36253,10.76667 -2.74432,13.33333 -0.38178,2.56667 -1.8467,7.21014 -3.25538,10.3188 -1.40867,3.10868 -2.56123,8.28368 -2.56123,11.5 0,8.05684 -1.37345,14.18939 -3.16667,14.13931 -0.825,-0.0231 -2.54001,-1.47268 -3.81114,-3.22141 z M 175.97959,143 c -0.0152,-3.71917 -0.35152,-4.48767 -1.31292,-3 -1.69826,2.62785 -1.69826,8 0,8 0.73333,0 1.32414,-2.25 1.31292,-5 z m 3.22137,-14.66667 c 1.85989,-14.67245 2.39984,-32.686186 1.06275,-35.455394 C 179.49944,91.295071 178.49376,88.2 178.02887,86 177.03275,81.286009 155.41052,60.046147 151.57901,60.017868 c -1.33154,-0.0099 -3.73154,-0.738316 -5.33333,-1.618864 -3.24964,-1.786416 -23.57901,-2.689847 -23.57901,-1.047844 0,0.575844 2.55,1.360524 5.66666,1.743732 13.12376,1.613624 20.3049,3.69834 26.78794,7.776659 7.7777,4.892762 14.07725,11.403212 14.15788,14.631856 0.0299,1.193541 0.90989,2.880242 1.95574,3.748226 4.09699,3.400202 6.46406,15.281187 5.6481,28.349497 -0.42579,6.81938 -1.16675,14.34887 -1.64658,16.7322 -0.6772,3.36372 -0.42108,4.33334 1.14467,4.33334 1.40476,0 2.26077,-1.92256 2.81988,-6.33334 z M 118.66667,56 c 0,-0.733333 -2.25,-1.273525 -5,-1.200427 C 109.20437,54.918187 109.02514,55.047283 112,56 c 4.76606,1.52636 6.66667,1.52636 6.66667,0 z M 32.401752,19.1331 c 4.191143,-0.692583 4.99888,-1.324693 4.666667,-3.651992 -0.508355,-3.561235 -5.080232,-4.315656 -12.330152,-2.034639 -8.56104,2.693531 -10.026351,4.398656 -4.621627,5.37801 6.705896,1.215128 6.787073,1.217166 12.285112,0.308621 z M 122.1664,143.61988 c -2.95436,-2.16028 -4.45816,-12.19181 -2.23009,-14.87647 1.01139,-1.21865 1.22346,-3.09673 0.56605,-5.01276 -0.57821,-1.68519 -0.88539,-11.76398 -0.68263,-22.39732 0.4034,-21.155367 1.32415,-23.630094 8.18027,-21.986475 6.90292,1.654838 6.89727,1.596433 4.63528,47.896165 -0.39167,8.01699 -1.36831,15.36699 -2.1703,16.33333 -1.84976,2.22882 -5.28537,2.24685 -8.29858,0.0436 z m -93.454915,-17.3474 c -10.242016,-0.60033 -19.3920154,-1.7307 -20.3333326,-2.51193 -2.2704108,-1.88427 -2.1526139,-6.21656 0.2967285,-10.91296 1.0954822,-2.10049 1.9917861,-4.56958 1.9917861,-5.48685 0,-3.58166 6.029538,-9.011152 15.053824,-13.555709 11.04032,-5.559816 19.943358,-6.266396 31.308264,-2.484747 14.159193,4.711444 28.42792,25.434526 22.720702,32.998256 -1.452312,1.92474 -4.353824,2.38028 -17.08279,2.682 -8.433334,0.1999 -23.713166,-0.12772 -33.955182,-0.72806 z m 42.772082,-9.51652 c 2.576866,-6.71521 -14.603594,-19.314557 -26.43355,-19.385139 -8.380236,-0.05 -19.875837,4.382509 -23.251186,8.965249 -5.178298,7.03063 -6.267599,9.87864 -4.269824,11.16357 0.99238,0.63828 13.388841,1.1211 27.547692,1.07294 19.796182,-0.0673 25.896646,-0.487 26.406868,-1.81662 z"
       id="path372" />
  </g>
</svg>
