<?xml version="1.0" encoding="UTF-8" standalone="no"?>
<!-- Created with Inkscape (http://www.inkscape.org/) -->

<svg
   version="1.1"
   id="svg185"
   width="213.33333"
   height="213.33333"
   viewBox="0 0 213.33333 213.33333"
   xmlns="http://www.w3.org/2000/svg"
   xmlns:svg="http://www.w3.org/2000/svg">
  <defs
     id="defs189" />
  <g
     id="g191">
    <path
       style="fill:#000000;stroke-width:1.33333"
       d="m 19.548508,207 c -0.334878,-0.55 -1.320647,-13.3 -2.190595,-28.33334 -0.869949,-15.03333 -1.825691,-28.61516 -2.123869,-30.18185 -0.654083,-3.43667 -7.1856263,-11.15148 -9.4411064,-11.15148 -2.0245887,0 -3.7828194,-5.21994 -2.2587202,-6.70582 0.6228471,-0.60723 3.2324492,-1.29683 5.7991158,-1.53245 C 13.725382,128.69187 13.992412,128.39205 13.87105,124 13.800128,121.43333 13.405712,108.23333 12.99457,94.666665 12.291886,71.47983 12.411701,69.70473 14.991708,65.078287 c 1.509566,-2.706943 4.414353,-5.61332 6.455081,-6.458616 6.985492,-2.893485 18.55321,1.762191 18.55321,7.467136 0,2.854109 -0.637158,3.146756 -7.6493,3.51332 l -7.649301,0.399872 -0.814914,5.045769 c -0.758852,4.698641 0.155069,51.009812 2.108125,106.825092 0.663048,18.94887 0.474793,24.0995 -0.913,24.97959 -2.191489,1.38979 -4.736083,1.45856 -5.533101,0.14955 z M 115,204.45029 c -0.91667,-0.36988 -1.66667,-2.00199 -1.66667,-3.62688 0,-2.16561 1.24481,-3.40451 4.66255,-4.64037 4.92114,-1.77951 5.26403,-2.51359 6.62488,-14.18304 2.05194,-17.59555 3.26363,-24.6456 5.54545,-32.26543 2.66792,-8.90915 5.02444,-10.95583 12.89652,-11.20081 2.34883,-0.0731 5.7706,-0.55698 7.60393,-1.07528 1.83334,-0.51831 5.01034,-0.31678 7.05999,0.44786 5.49872,2.05131 6.46795,-0.47985 5.95541,-15.55265 -0.56597,-16.6447 -1.78192,-18.05315 -9.35425,-10.83524 -3.11363,2.96789 -9.15997,8.18536 -13.43633,11.59436 -6.41262,5.11198 -8.22349,5.95827 -10.33333,4.82911 -2.68502,-1.43698 -3.61938,-8.89275 -1.42139,-11.34192 0.62523,-0.69667 1.90753,-4.13212 2.84957,-7.63435 0.94204,-3.50222 2.23049,-6.68763 2.86323,-7.07869 0.63274,-0.39105 1.16361,-2.625596 1.17972,-4.965651 0.0161,-2.340054 1.13861,-6.697088 2.49446,-9.682298 2.60823,-5.742572 11.32306,-13.905679 14.84554,-13.905679 1.16701,0 2.812,-1.982761 3.71362,-4.476182 2.65091,-7.330946 11.68407,-15.275492 18.53715,-16.303175 12.96448,-1.944144 21.71328,2.574095 21.71328,11.213633 0,3.860546 -1.23717,5.853676 -7.39549,11.914453 -4.06751,4.003091 -7.20015,7.864346 -6.96142,8.580566 0.23875,0.716218 3.68292,2.446338 7.65375,3.84471 3.97081,1.398372 7.74448,3.06732 8.38593,3.708774 1.55,1.549992 3.75654,14.485689 4.5609,26.738049 0.61596,9.3824 -0.61868,16.27749 -5.03388,28.1125 -0.97107,2.603 -2.19894,14.50012 -2.51135,24.33334 -0.0573,1.8057 -5.00139,1.04482 -6.72784,-1.03542 -1.87856,-2.26353 -0.96716,-20.2778 1.234,-24.3907 4.36356,-8.15339 6.48649,-34.90722 2.76991,-34.90722 -0.65748,0 -2.78074,2.70512 -4.71832,6.01137 -3.65219,6.23199 -3.66274,6.43154 -1.19708,22.6553 0.64866,4.26808 0.18174,6.26543 -2.33764,10 L 181.9066,154 l -14.22612,0.66666 c -8.77535,0.41123 -14.86238,1.30528 -15.88672,2.33342 -1.31372,1.31858 -1.32636,3.28497 -0.0605,9.4136 0.88004,4.26076 1.60008,13.51786 1.60008,20.57134 0,16.82702 -0.79162,17.70586 -15.33333,17.02286 -2.93333,-0.13778 -5.93503,-0.7463 -6.67045,-1.35228 -0.74128,-0.61082 -2.48873,-0.2597 -3.9215,0.78797 -2.51262,1.83728 -9.0377,2.36668 -12.40805,1.00672 z m 28.45602,-9.9192 c 2.43338,-2.68884 2.19263,-9.35807 -0.87382,-24.20693 -1.9852,-9.61306 -4.05344,-10.97258 -5.3976,-3.54799 -0.45378,2.50644 -2.40595,9.87428 -4.33816,16.37299 -1.93221,6.49869 -3.51311,12.35354 -3.51311,13.01076 0,2.2325 11.86685,0.86385 14.12269,-1.62883 z m 32.63163,-47.91133 c 2.71839,-1.45484 3.62613,-9.57186 1.45339,-12.99602 -1.41134,-2.22417 3.51328,-21.49155 8.1232,-31.78183 2.60682,-5.818958 0.91102,-7.80989 -7.01159,-8.231869 -4.71333,-0.251044 -8.22777,0.272774 -9.86569,1.470455 -2.2953,1.678358 -2.38834,2.434137 -0.95075,7.723294 0.87643,3.22458 1.79975,7.96287 2.0518,10.52954 1.98401,20.20313 2.05844,22.94203 0.69279,25.49377 -1.21994,2.27946 -2.2777,2.60974 -6.07607,1.89715 -2.52945,-0.47452 -6.52779,-0.28312 -8.8852,0.42535 -2.35741,0.70846 -6.03717,1.78964 -8.17725,2.4026 -2.14007,0.61296 -4.14007,1.86446 -4.44444,2.78113 -0.70254,2.11584 29.18806,2.37457 33.08981,0.28643 z M 147.60318,105.07178 C 150.02144,102.72792 152,99.84517 152,98.665665 c 0,-3.247493 8.64028,-11.999 11.84649,-11.999 1.61793,0 2.82017,-0.852601 2.82017,-2 0,-1.1 -0.82653,-2 -1.83674,-2 -1.0102,0 -2.56968,-0.883145 -3.46551,-1.962546 -1.42572,-1.71789 -2.02261,-1.676335 -4.78803,0.333333 -1.73758,1.262735 -3.1781,3.233625 -3.20116,4.379759 -0.0231,1.146133 -1.91578,3.846133 -4.2061,6 -4.44006,4.175524 -7.83579,10.765509 -7.83579,15.206629 0,3.7024 1.13971,3.42027 6.26985,-1.55206 z m 32.05364,-31.10043 c 4.33083,-2.160502 9.04207,-10.226902 7.8252,-13.398007 -0.40241,-1.048672 -1.98994,-1.906677 -3.52784,-1.906677 -8.0307,0 -20.41958,12.423492 -16.39862,16.444443 1.55566,1.555671 7.895,0.958599 12.10126,-1.139759 z M 96.873316,37.561678 c -1.213659,-1.341076 -2.206651,-3.367609 -2.206651,-4.503407 0,-3.374855 -3.296765,-5.113887 -9.499768,-5.011091 C 48.957397,28.647238 8.1068116,27.918181 7.3279727,26.657993 6.8261775,25.846072 6.7660839,23.785404 7.1944312,22.078733 l 0.7788132,-3.10304 32.3467106,-0.08884 c 41.374957,-0.113634 52.574642,-0.572902 54.178989,-2.221731 0.712724,-0.732485 1.492031,-3.131792 1.731792,-5.331792 0.350621,-3.2172287 1.06469,-3.9999998 3.648933,-3.9999998 2.610221,0 3.493741,1.0005757 4.709381,5.3333328 1.84209,6.56548 4.33572,6.801614 7.22427,0.6841 3.15356,-6.678748 5.75398,-6.5198589 9.19451,0.561796 l 2.91395,5.997786 42.1558,-0.105147 c 26.79706,-0.06684 42.64731,0.386365 43.50488,1.243941 0.742,0.742002 0.94907,2.609492 0.46014,4.149979 -0.84536,2.663487 -1.8166,2.807445 -19.79912,2.934631 -56.20595,0.397525 -65.71994,0.625545 -67.24348,1.611604 -0.91667,0.593278 -1.66667,2.150286 -1.66667,3.460015 0,3.142396 -4.71274,7.318074 -7.18751,6.368418 -1.07442,-0.412296 -2.14677,-2.435064 -2.38299,-4.495043 -0.62105,-5.415876 -5.18144,-5.06632 -7.67012,0.58792 -2.16506,4.918972 -4.03786,5.410564 -7.219394,1.895012 z"
       id="path511" />
  </g>
</svg>
