<?xml version="1.0" encoding="UTF-8" standalone="no"?>
<!-- Created with Inkscape (http://www.inkscape.org/) -->

<svg
   version="1.1"
   id="svg175"
   width="218.66667"
   height="216"
   viewBox="0 0 218.66667 216"
   xmlns="http://www.w3.org/2000/svg"
   xmlns:svg="http://www.w3.org/2000/svg">
  <defs
     id="defs179" />
  <g
     id="g181">
    <path
       style="fill:#000000;stroke-width:1.33333"
       d="m 80.82674,207.91817 c -5.045295,-0.58558 -9.815295,-1.70673 -10.6,-2.49144 C 69.442033,204.64203 67.79466,204 66.565908,204 c -3.301319,0 -16.395239,-6.05117 -18.449194,-8.52604 -0.977112,-1.17735 -3.309104,-2.14063 -5.182208,-2.14063 -7.297368,0 -31.986989,-20.51573 -36.6803632,-30.4794 -2.3255379,-4.93693 1.5476367,-6.82709 14.3340312,-6.99521 5.909837,-0.0777 12.54516,0.028 14.74516,0.23493 2.2,0.20692 5.5,0.31654 7.333333,0.24359 3.626232,-0.14429 119.714013,0.0247 146.506533,0.21325 14.4088,0.10147 16.69634,0.42263 18,2.5276 1.19574,1.9307 0.99496,2.7818 -1.0071,4.26927 -2.45955,1.82739 -2.21642,5.98597 0.34998,5.98597 4.57338,0 10.85676,20.20391 8.21499,26.4149 -5.23081,12.29802 -19.67191,9.57077 -26.34405,-4.97519 -1.20415,-2.62517 -2.25727,-4.89647 -2.34026,-5.04732 -0.50497,-0.91796 -12.32316,4.11081 -13.60909,5.79081 -1.77029,2.3128 -10.30829,7.15014 -12.62012,7.15014 -0.83901,0 -3.99119,1.12593 -7.00484,2.50206 -15.67085,7.15582 -44.88482,9.89494 -71.98597,6.74944 z m 53.55566,-10.3951 c 8.63074,-2.24319 19.32974,-6.21887 26.01403,-9.66667 C 171.86308,181.94184 188,170.38721 188,168.09124 c 0,-2.51193 -6.49677,-3.19487 -28.66666,-3.01339 -12.46667,0.102 -48.91667,0.21667 -81.000005,0.2547 C 45.920229,165.37095 20,165.92035 20,166.56892 c 0,1.90864 14.888097,14.17805 20.909535,17.23175 3.066912,1.55534 5.952322,3.43646 6.412023,4.18028 0.459701,0.74381 1.724707,1.35238 2.811123,1.35238 1.086414,0 3.601004,1.17167 5.587977,2.6037 5.841286,4.20988 31.980627,9.14637 49.140482,9.2803 12.29199,0.096 17.39553,-0.5427 29.52126,-3.69426 z m 72.31276,-7.598 c 0.95267,-2.50572 0.76098,-4.44256 -0.72392,-7.31402 -2.14144,-4.14108 -7.90852,-6.54044 -10.20374,-4.24521 -3.16039,3.16039 2.87493,14.96749 7.65078,14.96749 1.08958,0 2.56418,-1.53372 3.27688,-3.40826 z M 176.37666,101 C 167.57432,93.180631 164,89.513781 164,88.302928 c 0,-0.566723 -1.97378,-4.027447 -4.38618,-7.690499 -21.5802,-32.767856 -14.59048,-72.7087722 13.12637,-75.0072694 9.43979,-0.78282 14.35247,1.3665083 19.98539,8.7437164 10.77542,14.112153 5.66608,29.7319 -10.99287,33.606161 -3.81368,0.886923 -7.71368,2.553023 -8.66667,3.702443 -1.1372,1.371599 -1.71165,6.028401 -1.67144,13.549521 0.0484,9.065576 0.66143,12.605416 2.93406,16.943972 3.03545,5.794808 11.4186,15.18236 13.55794,15.18236 1.75662,0 3.01651,4.499087 2.00099,7.145497 -1.46777,3.82493 -6.84868,2.43943 -13.51093,-3.47883 z M 163.45323,48.109969 c 2.10597,-3.099206 6.34224,-6.2026 12.84456,-9.40961 L 186,33.915127 l 0.38346,-5.957564 c 0.32729,-5.084959 -0.22082,-6.616419 -3.74212,-10.455795 -3.76707,-4.107351 -4.63915,-4.440345 -10.0358,-3.832064 -6.37378,0.718417 -9.3293,3.239449 -13.94358,11.893767 -3.76417,7.059889 -4.63257,21.358814 -1.67522,27.583693 1.86604,3.927795 2.4026,4.350971 2.81484,2.220009 0.28012,-1.448053 1.92337,-4.713796 3.65165,-7.257204 z M 37.000001,98.121327 c -4.216667,-3.974564 -7.666667,-7.846907 -7.666667,-8.605208 0,-0.7583 -1.514964,-3.0134 -3.366586,-5.011334 C 17.468906,75.335461 6.9005998,47.355515 8.4487417,38.125269 11.43832,20.300971 15.403052,13.205631 25.024799,8.4605201 41.375931,0.39670947 55.545368,6.9331607 57.828888,23.593255 c 1.749714,12.765558 -3.052794,20.351212 -15.422727,24.360489 -6.009706,1.947835 -7.312034,2.975359 -8.664238,6.835999 -4.542356,12.968752 0.353003,29.196573 11.691788,38.757578 7.469443,6.298327 8.489782,10.854709 2.56629,11.459919 -2.459551,0.25129 -5.343034,-1.55374 -11,-6.885913 z M 34.666667,40.66514 c 9.181516,-2.707728 13.14723,-5.734596 14.817552,-11.309636 1.472246,-4.913915 1.323599,-5.675155 -2.062197,-10.560861 -2.868012,-4.138542 -4.775191,-5.455532 -8.912609,-6.154544 -5.18824,-0.876548 -6.728914,-0.29932 -13.322081,4.991237 -6.939137,5.568175 -9.659034,21.012047 -6.279232,35.654153 l 1.574768,6.822263 4.758566,-9.033181 C 29.22991,43.503253 30.755219,41.818668 34.666667,40.66514 Z M 111.9241,103.01049 C 104.10547,97.635239 98.370299,92.456581 96.655537,89.223512 95.651136,87.329777 92.703781,83.236215 90.105863,80.126707 87.507943,77.0172 84.695964,71.96662 83.857021,68.903196 83.01808,65.839771 81.391488,61.233333 80.242373,58.666667 79.0479,55.998687 77.914192,48.826945 77.595316,41.921611 77.070007,30.545911 77.274761,29.373323 81.114801,21.766245 86.207452,11.677761 91.316279,7.3093073 100.39906,5.2766703 c 6.39281,-1.4306496 7.63002,-1.3160336 12.47502,1.1557022 6.96632,3.553951 13.75711,11.3327765 13.92178,15.9473555 0.44069,12.349441 -0.11123,14.151001 -6.1129,19.953605 C 117.14565,45.753317 113.57058,48 111.66579,48 c -4.58559,0 -7.7316,2.812495 -9.80309,8.763855 -4.306343,12.372033 0.37623,26.735946 12.38507,37.99154 5.80076,5.436915 7.0262,9.523945 3.07025,10.239775 -1.09158,0.19753 -3.51884,-0.69558 -5.39392,-1.98468 z M 95.178009,46.322159 c 2.294212,-3.007868 5.267711,-5.158223 7.915021,-5.723938 6.9586,-1.48701 11.3735,-4.821662 13.53468,-10.223002 2.70357,-6.756864 2.68203,-6.883346 -2.09916,-12.328824 -3.63477,-4.139771 -4.90044,-4.713062 -10.40512,-4.713062 -5.352512,0 -6.856726,0.632315 -10.308565,4.333334 -7.788258,8.350477 -11.229145,29.924792 -6.148197,38.549121 l 2.333333,3.960568 0.751643,-4.518193 c 0.413403,-2.485007 2.405268,-6.686208 4.426365,-9.336004 z"
       id="path650" />
  </g>
</svg>
