<?xml version="1.0" encoding="UTF-8" standalone="no"?>
<!-- Created with Inkscape (http://www.inkscape.org/) -->

<svg
   version="1.1"
   id="svg165"
   width="218.66667"
   height="202.66667"
   viewBox="0 0 218.66667 202.66667"
   xmlns="http://www.w3.org/2000/svg"
   xmlns:svg="http://www.w3.org/2000/svg">
  <defs
     id="defs169" />
  <g
     id="g171">
    <path
       style="fill:#000000;stroke-width:1.33333"
       d="m 32.336634,196.61906 c -1.520759,-1.06519 -4.947996,-5.84023 -7.61608,-10.61122 -2.668086,-4.77097 -5.596708,-8.6745 -6.508051,-8.6745 -1.763392,0 -8.8791695,13.38036 -8.8791695,16.6962 0,1.23576 -1.2992907,1.97046 -3.4846659,1.97046 -3.0840556,0 -3.4033405,-0.42153 -2.7772664,-3.66666 1.6193786,-8.39374 5.5130321,-16.52247 10.5002578,-21.92127 l 5.307393,-5.7454 3.560475,4.21835 c 1.95826,2.32008 5.647301,7.53 8.197868,11.57757 3.519014,5.58444 5.046398,7.0198 6.333334,5.95173 0.932766,-0.77413 1.695938,-1.93228 1.695938,-2.57368 0,-0.64138 1.64783,-4.77441 3.661843,-9.18448 5.701332,-12.48418 10.126599,-11.9287 17.007228,2.13479 3.842556,7.85391 7.274499,10.73215 9.793335,8.21332 0.845677,-0.84568 1.537595,-2.33755 1.537595,-3.31525 0,-2.57962 6.106081,-14.23059 8.498672,-16.21626 1.122015,-0.93118 3.11882,-1.33678 4.437344,-0.90133 2.166015,0.71536 4.038952,3.38293 12.554611,17.88121 3.274647,5.57523 4.672255,4.61896 10.563165,-7.22746 2.36755,-4.76108 5.34847,-9.21515 6.62427,-9.89794 2.66172,-1.4245 3.46554,-0.63916 11.32478,11.06451 6.56274,9.77299 9.04144,9.70785 14.90903,-0.39175 6.74681,-11.61293 7.53814,-12.46005 10.70161,-11.45601 1.55667,0.49407 3.48573,2.77847 4.28681,5.07645 0.80108,2.29798 2.39422,5.12346 3.54028,6.27886 1.14608,1.15538 3.28819,4.14312 4.76024,6.63941 l 2.67644,4.53869 2.6308,-3.87202 c 1.44695,-2.12963 4.4082,-7.32204 6.58058,-11.53871 C 176.92767,167.45 179.51668,164 180.50868,164 c 2.11179,0 8.01354,8.51722 9.23891,13.33334 0.46647,1.83333 2.983,5.71358 5.59229,8.62277 5.33666,5.95001 5.58879,9.37723 0.68987,9.37723 -2.54149,0 -4.23764,-1.62866 -7.63719,-7.33334 -2.40356,-4.03333 -4.74514,-8.38333 -5.2035,-9.66666 C 182.73068,177.05 181.8849,176 181.30952,176 c -1.03458,0 -5.4715,6.66062 -9.03762,13.56708 -2.87844,5.57467 -6.73834,8.54559 -9.1369,7.0326 -1.12324,-0.70852 -4.2947,-5.48329 -7.04772,-10.61061 -3.22782,-6.01164 -5.82348,-9.3224 -7.3088,-9.3224 -1.48874,0 -4.03773,3.26729 -7.20757,9.23865 -6.17441,11.63142 -8.29569,13.09086 -12.83252,8.82872 -1.85981,-1.7472 -4.60191,-5.69782 -6.09357,-8.77917 -1.49166,-3.08136 -3.80257,-6.58932 -5.13537,-7.79548 -2.28919,-2.07169 -2.65618,-1.81835 -6.63302,4.57905 -2.31537,3.72464 -4.20976,7.58867 -4.20976,8.58672 0,2.40818 -6.63239,7.54551 -9.113174,7.0589 C 96.476639,198.17283 93.834412,194.7 91.681881,190.66667 83.035341,174.4651 81.671963,173.92248 77.443831,185 c -3.909182,10.24188 -6.299478,13.66667 -9.538522,13.66667 -2.829764,0 -9.124072,-6.14763 -9.196507,-8.9822 -0.06492,-2.54052 -7.205097,-12.28699 -8.708801,-11.88768 -0.733334,0.19475 -3.504939,4.45241 -6.159124,9.46148 -5.542663,10.46032 -7.5743,12.11343 -11.504243,9.36079 z M 44.889449,58.554665 C 42.811979,57.977253 34.411979,57.695021 26.222782,57.927482 10.443531,58.375397 6.6666668,57.487808 6.6666668,53.331658 c 0,-3.472577 3.8157742,-11.631667 8.1055252,-17.331657 1.931644,-2.566667 4.575886,-6.936478 5.876091,-9.71069 C 23.125374,21.004007 31.250034,13.212228 37.929086,9.7165298 42.40985,7.3713768 47.659153,7.1913233 145.37443,6.0311054 213.8904,5.2175841 214.09198,5.2355656 213.12663,12.074704 l -0.45996,3.25863 -73.15632,0.33291 C 57.201924,16.040802 42.803387,16.820786 38.189962,21.154874 36.524289,22.719694 34.588171,24 33.887481,24 31.858734,24 21.080279,42.366309 21.578996,44.973451 c 0.791832,4.139452 1.45711,4.15185 162.279704,3.023967 31.19645,-0.218788 32.77336,0.164127 28.04162,6.809231 l -2.57806,3.620568 -48.99447,-0.516689 c -26.94695,-0.284179 -55.29446,-0.735206 -62.994455,-1.00228 -7.7,-0.267076 -15.5,-0.0272 -17.333334,0.533046 -4.936343,1.508507 -30.744428,2.326892 -35.110552,1.113371 z"
       id="path789" />
  </g>
</svg>
