<?xml version="1.0" encoding="UTF-8" standalone="no"?>
<!-- Created with Inkscape (http://www.inkscape.org/) -->

<svg
   version="1.1"
   id="svg75"
   width="213.33333"
   height="217.33333"
   viewBox="0 0 213.33333 217.33333"
   xmlns="http://www.w3.org/2000/svg"
   xmlns:svg="http://www.w3.org/2000/svg">
  <defs
     id="defs79" />
  <g
     id="g81">
    <path
       style="fill:#000000;stroke-width:1.33333"
       d="m 41.066283,212.2568 c -3.10404,-0.25787 -6.070853,-1.60912 -8,-3.64364 -1.686455,-1.77856 -4.316318,-3.24412 -5.844137,-3.25679 -4.795297,-0.0398 -12.478094,-8.06897 -15.96965,-16.68971 -3.9836894,-9.83582 -4.046507,-13.79768 -0.390426,-24.62393 2.265867,-6.7096 4.41842,-9.97629 10.333332,-15.68177 l 7.471264,-7.20674 -7.126169,-6.46268 c -5.552251,-5.0353 -6.937136,-7.05827 -6.270293,-9.1593 1.127552,-3.55261 2.200893,-3.64328 33.920585,-2.86558 23.84193,0.58456 27.369027,0.94978 28.637988,2.96535 1.193206,1.89525 0.457688,3.2495 -4.190789,7.71617 -5.34444,5.13542 -7.263352,9.31848 -4.2747,9.31848 0.74981,0 4.369892,3.15 8.044628,7 8.368067,8.76718 10.893279,16.178 9.290869,27.26626 -3.519333,24.35285 -20.399981,37.42006 -45.632502,35.32388 z m 17.600383,-9.63632 c 6.551574,-1.91583 12.411586,-7.44746 16.500846,-15.57616 4.470781,-8.8871 4.521632,-16.40051 0.177477,-26.2234 -3.004977,-6.79479 -4.023539,-7.8213 -10.683155,-10.7665 -8.543055,-3.77814 -10.08724,-6.33397 -6.3171,-10.4556 1.475158,-1.61269 3.091498,-4.28216 3.591869,-5.93216 0.90844,-2.99563 0.886355,-3 -15.180086,-3 -8.849419,0 -16.089851,0.38291 -16.089851,0.8509 0,0.46799 2.417895,3.474 5.3731,6.68001 4.380939,4.75276 5.126224,6.29043 4.036131,8.32728 -0.735334,1.37399 -3.35727,2.87716 -5.826526,3.3404 -11.150615,2.09187 -19.352074,22.71363 -14.308874,35.97824 2.244139,5.90253 10.696831,14.1524 14.547985,14.19891 1.931335,0.0233 4.676195,0.92333 6.099691,2 3.003097,2.27144 11.372564,2.53905 18.078493,0.57808 z M 194,211.11182 c -3.66667,-1.09068 -9.36667,-2.52816 -12.66667,-3.19441 -26.94167,-5.43937 -33.47231,-8.64684 -50.05508,-24.58408 -6.79544,-6.53091 -10.66483,-16.31011 -11.87026,-30 -1.52485,-17.31743 3.79101,-26.8195 21.60513,-38.61909 5.38372,-3.56602 7.25133,-4.04758 15.69772,-4.04758 7.74974,0 11.23642,0.7479 18.19397,3.9026 4.73384,2.14643 9.36752,4.81898 10.29705,5.939 4.56476,5.5002 6.67008,12.11348 6.78424,21.31088 0.16702,13.45375 -1.95917,18.749 -9.8647,24.56802 -5.72035,4.21057 -7.44464,4.79672 -13.68118,4.65069 -15.35268,-0.35945 -26.39445,-9.29487 -27.97477,-22.63824 -0.77035,-6.50437 -0.63543,-6.84205 5.14317,-12.87293 5.65139,-5.89812 6.28366,-6.19335 13.26374,-6.19335 5.91772,0 7.8827,0.58889 10.2017,3.05736 7.32534,7.79745 6.32002,18.94264 -1.70868,18.94264 -3.44456,0 -4.07861,-0.61985 -5.11448,-5 -0.92348,-3.90487 -1.82514,-5 -4.11669,-5 -4.4224,0 -6.00529,2.39185 -5.17781,7.82397 0.92577,6.07736 2.97184,8.46558 9.17424,10.70839 4.01686,1.45252 5.83822,1.46469 10.07222,0.0673 6.94448,-2.29189 7.7838,-3.5932 9.27967,-14.38761 1.2216,-8.81517 1.11564,-9.52795 -2.12655,-14.30558 -6.43722,-9.48577 -12.9381,-11.40425 -26.83456,-7.91915 -10.3965,2.60734 -14.72985,5.0867 -15.96048,9.1319 -0.482,1.5844 -1.85538,3.99371 -3.05198,5.35404 -3.56387,4.05151 -2.99696,22.54998 0.9253,30.19335 7.74986,15.10223 29.32486,26.93077 56.2324,30.82957 14.7445,2.13642 18.8256,5.03492 16.66667,11.8371 -0.99808,3.14468 -3.92909,3.24253 -13.33333,0.44516 z M 8.5622457,75.600412 c -1.0425685,-0.58644 -1.8955791,-2.201029 -1.8955791,-3.587977 0,-1.386948 -0.6,-2.892544 -1.3333334,-3.345769 C 4.5999999,68.21344 3.9999999,65.7592 3.9999999,63.212796 c 0,-7.436657 3.4081037,-7.402434 9.9162901,0.09957 l 5.554814,6.403054 6.438204,-0.965468 c 8.633089,-1.294612 12.407601,-3.174904 13.269869,-6.610453 0.394693,-1.572581 2.019054,-4.256163 3.609692,-5.963512 2.285028,-2.452688 3.131168,-2.726984 4.031182,-1.3068 1.409402,2.223971 1.509312,17.215213 0.1292,19.385892 -1.180434,1.856624 -35.349138,3.054113 -38.3870053,1.345329 z M 194,61.350663 C 177.149,50.031415 177.00246,50.006951 128,50.332014 99.766878,50.519299 82.575867,50.103618 78.666665,49.139123 71.372692,47.339525 59.032462,39.230845 56.64169,34.666666 c -0.960322,-1.833333 -2.891844,-6.333333 -4.292272,-10 -2.889277,-7.564838 -6.682587,-9.803092 -12.682752,-7.483494 -3.443487,1.331213 -3.666667,1.911774 -3.666667,9.538149 0,8.649741 -1.603493,13.278678 -4.599818,13.278678 -1.314284,0 -2.102835,2.812007 -2.762443,9.850992 -0.800717,8.544844 -1.332737,10.037631 -4.012509,11.258616 -4.737205,2.158416 -5.736203,-0.276895 -6.642164,-16.191977 -0.955589,-16.7869 -0.368981,-19.584297 4.106785,-19.584297 3.021291,0 3.244882,-0.479528 3.2639,-7 0.0112,-3.85 0.508375,-7.768987 1.104767,-8.7088609 1.186092,-1.8692005 24.981373,-3.7384613 29.466926,-2.3148022 1.692852,0.5372905 3.508983,3.6507821 5.341288,9.1568581 3.639019,10.935256 13.023924,20.630199 21.603385,22.31707 3.188103,0.626837 21.996554,0.810461 41.796544,0.408056 42.89894,-0.871859 51.0727,0.217561 68.42031,9.119232 12.70007,6.516852 14.92636,8.532836 15.30651,13.860566 0.42686,5.982335 -4.70096,5.68992 -14.39348,-0.820789 z"
       id="path928" />
  </g>
</svg>
