<?xml version="1.0" encoding="UTF-8" standalone="no"?>
<!-- Created with Inkscape (http://www.inkscape.org/) -->

<svg
   version="1.1"
   id="svg239"
   width="81.333336"
   height="218.66667"
   viewBox="0 0 81.333336 218.66667"
   xmlns="http://www.w3.org/2000/svg"
   xmlns:svg="http://www.w3.org/2000/svg">
  <defs
     id="defs243" />
  <g
     id="g245">
    <path
       style="fill:#000000;stroke-width:1.33333"
       d="M 10.918201,211.08091 C 10.223975,209.75308 9.2217962,193.20534 8.6911374,174.30816 7.8339044,143.78142 7.9680391,139.58071 9.8938891,136.6415 c 1.1921719,-1.8195 1.5408909,-3.30816 0.7749299,-3.30816 -2.4266498,0 -4.6979073,-6.50425 -2.8993178,-8.30284 2.2610508,-2.26105 1.9321498,-4.80831 -1.1222178,-8.69131 -2.5191253,-3.20255 -2.5514602,-3.62017 -0.5203153,-6.72009 2.0309606,-3.09964 1.9912515,-3.61578 -0.6380989,-8.29408 L 2.6850356,96.336272 5.428094,92.849039 C 7.9607983,89.629227 8.011218,89.133467 6.0855762,86.384228 3.4498772,82.621241 3.4130052,78.147016 6.0000002,76.000001 8.5898343,73.85063 8.5251192,72.12356 5.7394037,69.045378 3.7757947,66.875614 3.6881852,65.764606 5.0725416,60.588653 6.2978199,56.007476 6.3028021,54.047843 5.0940916,52.112391 3.8341111,50.094841 3.9730288,48.906425 5.7936487,46.127807 7.8811391,42.941894 7.8949551,42.331106 5.9639951,38.597041 3.3083173,33.461527 4.2402253,30.569342 10.251211,25.291626 c 3.564381,-3.129568 5.680702,-4.035872 8.269547,-3.541392 3.944573,0.753429 13.070314,4.06306 14.132792,5.125538 0.386838,0.386836 0.84804,6.648039 1.024895,13.913785 0.260712,10.710814 0.699988,13.210444 2.321556,13.210444 1.1,0 3.2,-2.469751 4.666667,-5.488336 1.466667,-3.018586 3.489915,-6.468322 4.496107,-7.666082 1.591603,-1.894625 1.161597,-3.147422 -3.307591,-9.636485 -2.825368,-4.102307 -6.78083,-8.308782 -8.789915,-9.34772 -6.093541,-3.151092 -8.155886,-9.246951 -4.399331,-13.0035056 1.632455,-1.6324548 5.118478,-1.8942528 19.000001,-1.4268876 23.787145,0.8008692 29.080732,3.6765212 20.86875,11.3365972 -5.381763,5.020068 -9.53109,14.392816 -9.991479,22.569356 -0.388309,6.896392 -0.11452,7.645039 4.631015,12.663063 7.508004,7.939113 8.869084,11.483651 9.616488,25.043327 0.37258,6.759504 0.898531,12.962536 1.168779,13.784516 0.938221,2.85368 -1.691708,19.026886 -3.77209,23.197116 -7.079603,14.1914 -10.304101,51.30531 -5.558225,63.97504 1.236126,3.3 2.743811,8.1 3.350409,10.66667 0.606599,2.56667 2.303692,7.67663 3.771319,11.35548 4.150804,10.40467 3.093845,11.07344 -17.128979,10.83803 l -16.621925,-0.19351 -0.424849,-4.42769 c -0.255675,-2.6646 0.52794,-5.85019 1.967895,-8 2.690158,-4.01634 8.356229,-23.52894 9.115143,-31.39036 0.57589,-5.96556 -2.636946,-25.7465 -4.557661,-28.06082 -0.716733,-0.86361 -1.714892,-5.58902 -2.218129,-10.50092 -0.503239,-4.91189 -1.732648,-9.60931 -2.732021,-10.43872 -0.999375,-0.8294 -1.830386,-2.78454 -1.846692,-4.34475 -0.01631,-1.56021 -1.202964,-4.33674 -2.637019,-6.17008 -1.434055,-1.83333 -2.620712,-4.99147 -2.637019,-7.01809 -0.01631,-2.02661 -0.586472,-4.726615 -1.267033,-5.999997 C 29.0939,93.192952 25.27833,67.847925 24.551866,55.060164 23.876733,43.175997 21.134023,38.177027 18.741473,44.469915 c -0.752466,1.979131 -2.277123,3.947239 -3.388128,4.373572 -2.581446,0.990594 -2.627366,3.156514 -0.06692,3.156514 3.356961,0 4.850995,4.543795 2.566475,7.805404 -1.809584,2.583543 -1.802971,3.101664 0.06341,4.968047 3.068103,3.068105 2.70932,10.797898 -0.582976,12.559883 -3.377162,1.807401 -3.350548,3.18298 0.153265,7.922142 2.764343,3.738974 2.771818,3.895615 0.379191,7.94601 -2.357495,3.990918 -2.358419,4.271212 -0.02711,8.217803 2.020376,3.42022 2.156608,4.70647 0.836135,7.89437 -1.373425,3.31575 -1.18776,4.33557 1.435199,7.88332 2.557037,3.45858 2.781236,4.5829 1.482334,7.43367 -0.932765,2.0472 -1.096564,4.53233 -0.419464,6.36407 1.2918,3.49467 0.664399,6.02899 -2.346868,9.4799 -1.868126,2.14088 -2.12016,6.36668 -1.868773,31.33333 0.159817,15.87229 0.459817,31.55872 0.666667,34.85872 0.331633,5.29073 0.03212,6.04897 -2.533695,6.41424 -1.764694,0.25123 -3.406512,-0.53583 -4.172015,-2 z m 51.872053,-7.89648 c 1.525149,-1.83769 1.121047,-3.38867 -2.790248,-10.7092 -4.840482,-9.05961 -7.872612,-10.48072 -9.520958,-4.46227 -2.258698,8.24696 -3.547864,15.33635 -2.961389,16.28528 1.246536,2.01694 13.410536,1.12983 15.272595,-1.11381 z M 56.535477,133 c 1.332517,-10.8045 1.905213,-13.71604 4.655196,-23.66667 1.787837,-6.46916 2.771697,-14.035698 2.786478,-21.429886 0.02051,-10.255123 -0.398546,-12.207919 -4.077126,-18.999691 -4.905089,-9.056276 -8.424554,-10.567335 -14.371726,-6.1704 -3.401059,2.514511 -4.255263,4.385912 -5.575958,12.215871 -0.857789,5.085556 -1.24507,10.852435 -0.860624,12.815288 3.482182,17.778828 5.623422,25.940578 8.400383,32.019648 2.431646,5.32315 3.029259,8.30118 2.370498,11.81268 -0.622414,3.31775 -0.340302,5.03751 0.961625,5.86208 3.581172,2.26814 5.020163,1.14468 5.711254,-4.45892 z M 53.087814,22.81846 c 3.692732,-6.570329 3.664728,-6.82265 -0.754479,-6.798042 -5.636376,0.03139 -7.292847,1.655864 -6.226309,6.106058 1.821456,7.600143 3.03081,7.720023 6.980788,0.691984 z"
       id="path416" />
  </g>
</svg>
