<?xml version="1.0" encoding="UTF-8" standalone="no"?>
<!-- Created with Inkscape (http://www.inkscape.org/) -->

<svg
   version="1.1"
   id="svg229"
   width="216"
   height="222.66667"
   viewBox="0 0 216 222.66667"
   xmlns="http://www.w3.org/2000/svg"
   xmlns:svg="http://www.w3.org/2000/svg">
  <defs
     id="defs233" />
  <g
     id="g235">
    <path
       style="fill:#000000;stroke-width:1.33333"
       d="M 86.558567,214.11412 C 86.176612,213.73218 72.39468,213.33558 55.932051,213.23282 24.458048,213.03635 10.489666,211.66654 7.8786355,208.52043 5.1966176,205.2888 4.639846,188.59032 7.0894585,184.85175 l 2.1093564,-3.21929 36.9744021,0.60129 c 20.33592,0.33072 38.366187,0.25199 40.067259,-0.17496 4.080976,-1.02427 3.852548,-3.24117 -0.804528,-7.80803 -5.271027,-5.1689 -6.063457,-10.02201 -1.942976,-11.89944 3.958525,-1.80361 6.806212,0.49024 11.189997,9.01371 3.428246,6.6656 4.521272,7.05293 9.317031,3.30164 4.24379,-3.31955 6.27133,-3.30415 11.83845,0.0899 l 4.50512,2.74656 3.94725,-3.75155 c 2.17099,-2.06335 4.82745,-5.43703 5.90325,-7.49708 1.616,-3.09451 2.69427,-3.67389 6.20337,-3.33333 6.30705,0.6121 6.13637,4.14496 -0.55073,11.39961 -5.68695,6.16961 -5.69556,6.19439 -2.44355,7.03231 1.79493,0.46249 17.36351,0.48666 34.59684,0.0537 29.69717,-0.74605 40.23452,-0.28188 42.38619,1.86713 0.52093,0.5203 0.94714,6.57364 0.94714,13.4519 0,18.01269 1.27728,17.2891 -30.38056,17.21097 -14.09069,-0.0348 -39.45964,-0.22377 -56.37543,-0.41999 -16.9158,-0.19621 -32.233864,0.0141 -34.040151,0.46754 -1.806286,0.45334 -3.596666,0.51176 -3.978622,0.12986 z m 58.758983,-7.98938 c 30.42464,-0.49123 55.81557,-1.39119 56.42429,-1.99991 0.60871,-0.60871 0.91581,-3.42244 0.68245,-6.25273 -0.40801,-4.94863 -0.64865,-5.18402 -6.274,-6.13743 -3.21733,-0.54529 -35.31733,-1.31621 -71.33333,-1.71317 -36.015995,-0.39695 -73.735367,-1.02548 -83.820827,-1.39674 -16.753634,-0.61672 -18.810078,-0.43377 -23.812984,2.11852 -5.014917,2.55843 -5.40736,3.13567 -4.6628,6.85847 0.447141,2.23571 0.812984,4.87276 0.812984,5.86013 0,0.98736 1.869043,2.27952 4.153428,2.87147 4.620894,1.1974 44.811628,1.13181 127.830789,-0.20861 z M 81.696003,73.052432 C 77.386485,70.972494 76.950507,68.34198 76.982435,44.612723 77.012092,22.57075 77.949044,11.321243 80.037157,7.9362343 81.768531,5.1295306 128.81333,4.3185705 132.49776,7.0319162 c 2.30972,1.7009634 2.49485,4.0063988 2.45915,30.6237948 -0.0212,15.831394 -0.38866,29.887197 -0.81647,31.235115 -0.43645,1.375166 -3.11575,3.180423 -6.10481,4.113303 -6.59068,2.056943 -42.101139,2.093957 -46.339627,0.04831 z m 40.681767,-6.173888 c 2.66034,-1.695999 3.68373,-12.614139 2.95556,-31.531786 l -0.66666,-17.319908 -3.74118,-1.78856 c -3.80605,-1.819571 -24.622701,-2.367715 -30.822667,-0.811622 -2.757706,0.69214 -3.251659,1.811684 -3.977562,9.01514 -0.455856,4.523672 -0.542581,14.224859 -0.192721,21.558193 0.34986,7.333333 0.658163,14.588736 0.685117,16.123117 0.04256,2.422839 1.2328,2.955486 9.04901,4.049559 12.179783,1.704865 24.628073,2.033824 26.711103,0.705867 z"
       id="path555" />
  </g>
</svg>
