<?xml version="1.0" encoding="UTF-8" standalone="no"?>
<!-- Created with Inkscape (http://www.inkscape.org/) -->

<svg
   version="1.1"
   id="svg219"
   width="218.66667"
   height="214.66667"
   viewBox="0 0 218.66667 214.66667"
   xmlns="http://www.w3.org/2000/svg"
   xmlns:svg="http://www.w3.org/2000/svg">
  <defs
     id="defs223" />
  <g
     id="g225">
    <path
       style="fill:#000000;stroke-width:1.33333"
       d="m 5.539533,208.91512 c -2.0125728,-2.425 -2.400358,-34.93798 -0.444812,-37.29428 1.0808931,-1.30238 1.0999903,-3.21829 0.069288,-6.95118 -1.7991271,-6.51591 -0.3049363,-21.34104 2.6123489,-25.91935 1.1975121,-1.87933 3.2377231,-4.201 4.5338021,-5.15924 2.908256,-2.15021 3.043331,-6.42805 0.289908,-9.18148 -3.0750396,-3.07504 -1.815288,-6.09793 3.068638,-7.36348 C 19.507531,116.05137 20,115.39749 20,111.29521 20,108.44445 18.97576,105.64243 17.333334,104 c -4.416691,-4.416689 -3.407406,-7.19911 3.333333,-9.189413 6.650372,-1.963622 7.781851,-5.006622 3.914592,-10.527906 -2.817428,-4.022442 -1.325956,-7.935568 3.849115,-10.098793 6.751273,-2.822094 8.403788,-5.576538 6.373881,-10.62411 -3.57664,-8.893682 -3.719623,-8.599501 5.061175,-10.413147 l 8.134571,-1.680168 0.02041,-6.066564 c 0.0112,-3.33661 0.500027,-6.822045 1.086216,-7.74541 1.039467,-1.637367 8.943323,-2.462316 14.168334,-1.478792 1.99272,0.375097 3.313297,-0.974794 5.595462,-5.719667 1.642939,-3.415851 3.583282,-6.579059 4.311872,-7.029354 0.728592,-0.450294 3.389843,0.994492 5.913893,3.210638 2.524053,2.216144 5.19782,4.029353 5.941708,4.029353 1.586885,0 9.628769,-8.872435 9.628769,-10.623212 0,-0.658397 1.284071,-1.604636 2.853491,-2.102751 2.212381,-0.702182 3.865824,0.199358 7.359244,4.012627 5.01749,5.476891 6.96601,5.534476 9.52669,0.281547 2.09147,-4.290404 5.17362,-4.517042 12.26058,-0.901544 C 129.54157,22.8 132.74769,24 133.79138,24 c 2.11992,0 3.49633,-3.936785 3.52376,-10.078493 0.0404,-9.0596052 7.65298,-11.378981 10.50406,-3.20036 1.6396,4.703377 6.09294,5.29526 11.00099,1.462118 7.88256,-6.1561972 13.46684,-7.8858867 23.84648,-7.3862601 11.79852,0.5679244 17.48931,2.05252 23.40453,6.1056921 6.92044,4.741962 9.0633,9.512557 8.16824,18.184775 -1.62784,15.772254 -14.1915,24.964249 -33.70181,24.657352 -9.15771,-0.144053 -18.93068,-3.399371 -21.19252,-7.059103 -0.45969,-0.743814 -2.22695,-1.352387 -3.9272,-1.352387 -3.16477,0 -5.56784,2.119567 -8.0518,7.1019 -0.77257,1.549623 -2.98875,3.706611 -4.92484,4.79331 -2.92987,1.644497 -3.87595,1.680532 -5.64193,0.214894 -1.72159,-1.428794 -1.96528,-3.444721 -1.29206,-10.688392 l 0.82972,-8.927473 -6.7873,-4.355395 c -3.73301,-2.395467 -7.47682,-3.929242 -8.31958,-3.408387 -0.84276,0.520855 -2.69238,3.569579 -4.11026,6.774943 -3.01381,6.813217 -6.19424,7.545795 -9.38299,2.161267 -1.19428,-2.016667 -3.73159,-5.12872 -5.63847,-6.915675 -3.864995,-3.621927 -4.767837,-3.19997 -8.634335,4.035388 -2.965956,5.55018 -7.13004,6.454952 -12.258282,2.663477 -5.169415,-3.821912 -7.073747,-3.504442 -9.298493,1.550143 -1.818872,4.132449 -2.247246,4.333333 -9.240622,4.333333 h -7.333334 l -0.401356,5.333334 c -0.470389,6.250663 -3.043061,8.666667 -9.228663,8.666667 -4.722433,0 -7.005354,2.758945 -4.702998,5.683646 1.900522,2.41425 3.120193,8.45088 2.19473,10.862594 -0.441414,1.150312 -3.14088,2.721116 -5.99881,3.490676 C 33.036647,79.823645 32,80.724961 32,83.221467 c 0,1.715276 0.900001,3.865616 2.000001,4.778534 1.1,0.912919 2,3.107708 2,4.87731 0,2.54337 -1.257054,3.756293 -6.000001,5.789357 -6.528036,2.798242 -8.193558,7.124092 -3.336432,8.665682 2.799256,0.88845 4.79266,6.02024 3.573066,9.19846 -0.394694,1.02855 -3.159402,2.28263 -6.143796,2.78684 -6.13917,1.03721 -7.039023,3.51945 -2.092838,5.77308 4.992007,2.27451 4.102399,6.01926 -2.633813,11.08689 -3.281931,2.46897 -6.402465,5.68905 -6.934519,7.15572 -1.253707,3.45597 -1.358921,20.4256 -0.27694,44.66666 0.854632,19.1475 0.313083,22.66667 -3.4880612,22.66667 -0.9204144,0 -2.3276247,-0.7882 -3.1271338,-1.75155 z M 194.30635,41.935373 c 7.04069,-2.891679 12.86681,-11.484171 11.76588,-17.352606 -0.45321,-2.415865 -1.95261,-5.785297 -3.33199,-7.487625 -2.35892,-2.911228 -3.2873,-3.073104 -15.62409,-2.724268 -15.31507,0.43305 -19.57552,1.747073 -25.38151,7.828262 -4.94589,5.180326 -8.96657,5.653931 -13.31537,1.568446 l -3.08593,-2.899086 v 9.724004 9.724005 l 4.85228,-3.701016 c 3.91649,-2.987259 5.26648,-3.402415 7,-2.152692 2.28992,1.650837 14.14652,7.516354 17.48105,8.647958 4.22637,1.434259 14.83097,0.799602 19.63968,-1.175382 z M 130.09524,207.2381 C 128.94286,206.08572 128,204.02112 128,202.65012 c 0,-1.37101 -0.51913,-2.81358 -1.15362,-3.20572 -0.63449,-0.39213 -1.48138,-2.73268 -1.88196,-5.20122 -0.40059,-2.46854 -2.7775,-8.9331 -5.28203,-14.36571 -2.50453,-5.4326 -6.53134,-15.23163 -8.94847,-21.7756 -4.16508,-11.27624 -4.27,-11.98939 -2.00729,-13.64392 2.04193,-1.49309 2.6571,-1.36088 4.25008,0.91341 1.02441,1.46256 2.22445,4.90232 2.66673,7.64392 0.44229,2.7416 2.44002,7.68472 4.4394,10.98472 1.99938,3.3 4.06795,8.1 4.59683,10.66667 0.52888,2.56667 1.41959,5.26667 1.97937,6 0.55978,0.73333 3.27508,6.94564 6.03401,13.80513 4.10598,10.20868 4.67969,12.68492 3.16159,13.64626 -2.58218,1.63516 -3.36368,1.51576 -5.7594,-0.87996 z m 36.63546,-1.81484 c -1.53132,-2.15055 -3.98247,-7.66092 -5.44699,-12.24528 -1.46453,-4.58436 -4.09849,-11.37483 -5.85327,-15.08992 -10.63404,-22.51372 -11.5786,-24.9711 -11.18146,-29.0897 0.5353,-5.55146 5.67637,-6.95818 7.63602,-2.0894 2.87763,7.14946 11.12415,28.73011 12.39018,32.42438 0.75394,2.2 2.20046,5.89068 3.21448,8.2015 1.01402,2.31083 1.84368,4.88474 1.84368,5.71979 0,0.83505 1.24186,3.95255 2.7597,6.92776 4.48288,8.78716 0.16664,13.00561 -5.36234,5.24087 z"
       id="path694" />
  </g>
</svg>
