<?xml version="1.0" encoding="UTF-8" standalone="no"?>
<!-- Created with Inkscape (http://www.inkscape.org/) -->

<svg
   version="1.1"
   id="svg209"
   width="326.66666"
   height="290.66666"
   viewBox="0 0 326.66666 290.66666"
   xmlns="http://www.w3.org/2000/svg"
   xmlns:svg="http://www.w3.org/2000/svg">
  <defs
     id="defs213" />
  <g
     id="g215">
    <path
       style="fill:#000000;stroke-width:1.33333"
       d="m 78.382142,281.34153 c -1.989821,-0.59664 -6.489821,-1.10864 -9.999999,-1.13778 -3.51018,-0.0291 -8.482144,-0.91977 -11.048811,-1.97918 -2.566666,-1.05943 -7.366666,-2.34384 -10.666666,-2.85427 -9.05742,-1.40095 -16.920817,-3.95476 -28.265761,-9.17993 -12.5575937,-5.78368 -15.4190251,-9.81614 -12.9094044,-18.19251 0.871419,-2.90853 2.5423208,-6.09211 3.7131153,-7.0746 4.4695571,-3.75069 22.5718031,-10.64235 32.7953831,-12.48544 24.680902,-4.44943 46.947925,-7.17727 63.333331,-7.75868 45.616,-1.61865 97.39999,-2.00556 102.71245,-0.76744 3.27482,0.76323 14.65422,2.30473 25.28755,3.42559 10.63333,1.12084 22.63333,2.67626 26.66666,3.45652 15.30239,2.96024 26.13926,5.55016 30.00535,7.171 2.20293,0.92357 6.10293,2.13254 8.66667,2.68658 11.46566,2.47786 24.18634,11.92487 23.06254,17.12742 -1.80033,8.33453 -8.06941,13.70521 -19.73456,16.9065 -3.66666,1.00626 -9.8776,3.5137 -13.80206,5.57211 -7.47603,3.92124 -13.31578,4.75807 -15.80852,2.26532 -1.08078,-1.08077 -2.85212,-0.99541 -6.6,0.31807 -5.9916,2.0998 -17.44128,2.41084 -113.78941,3.09121 -38.5,0.27188 -71.628038,0.007 -73.617858,-0.59049 z m 100.154628,-7.41891 c 27.42856,-0.37585 50.52856,-1.09767 51.33333,-1.604 0.80478,-0.50635 11.36323,-1.27563 23.46323,-1.70951 20.31161,-0.72833 22.92094,-1.11732 34,-5.06849 18.73648,-6.68209 22.10489,-8.47415 21.69221,-11.54063 -0.42537,-3.16078 -14.96219,-10.78742 -30.56135,-16.03381 -9.89717,-3.32867 -14.23541,-3.90361 -54.88993,-7.27451 -8.66748,-0.71866 -17.96748,-1.96392 -20.66666,-2.76721 -2.95332,-0.87893 -10.74808,-1.19144 -19.57427,-0.78476 -8.06667,0.37168 -32.36667,0.74847 -54,0.83729 -21.63333,0.0888 -43.233332,0.74876 -47.999998,1.46652 -4.766667,0.71775 -14.666667,1.89467 -22,2.61536 -16.266004,1.59858 -27.02615,3.73092 -30.953089,6.13399 -1.624198,0.99392 -3.74217,1.80713 -4.706605,1.80713 -2.327824,0 -10.340305,8.57275 -10.340305,11.06334 0,1.07784 2.333064,4.06748 5.184588,6.64366 5.683184,5.13442 15.926305,8.83476 28.815411,10.4096 4.4,0.53762 11.6,1.89524 16,3.01696 9.094004,2.31838 45.307768,4.86244 57.333328,4.02775 4.4,-0.30541 30.44155,-0.86281 57.87011,-1.23868 z m -23.93512,-6.35843 c -8.39695,-2.77585 -10.24889,-4.94328 -11.28081,-13.20241 -0.7966,-6.37581 -0.51352,-8.26952 1.78908,-11.96804 3.32948,-5.34796 6.29076,-7.93764 11.58189,-10.12857 3.42373,-1.4177 4.73312,-1.31299 8.76365,0.70072 9.25154,4.6222 11.74591,7.51665 12.38643,14.37309 0.6288,6.73096 -1.87244,13.32864 -7.23529,19.08499 -3.03974,3.26277 -8.42392,3.64636 -16.00495,1.14022 z m 9.486,-10.27777 c 3.1612,-1.69183 3.33907,-6.2366 0.37236,-9.51477 -4.23811,-4.68306 -9.79335,-2.17086 -9.79335,4.42876 0,5.27981 4.50974,7.71444 9.42099,5.08601 z m 67.24719,6.38024 c -3.2415,-3.03641 -4.86539,-5.92955 -5.42582,-9.66667 -0.72844,-4.85753 -0.33226,-5.83888 4.44078,-11 4.44721,-4.8088 6.02852,-5.66554 10.44538,-5.65922 7.69908,0.0107 14.85577,2.37677 17.16551,5.67438 2.90802,4.15179 2.58224,13.7916 -0.64243,19.00923 -2.99393,4.84427 -5.73057,5.93083 -15.00452,5.95741 -5.34288,0.0153 -7.08838,-0.67074 -10.9789,-4.31513 z m 18.56991,-7.09524 c 2.47879,-2.47879 2.50006,-2.657 0.715,-5.99241 -1.66733,-3.11544 -9.48314,-3.55511 -11.87903,-0.66824 -1.24504,1.50017 -1.10392,2.6462 0.65676,5.33333 2.55914,3.90576 7.32659,4.508 10.50727,1.32732 z m -172.501192,8.35332 c -3.460209,-1.19801 -5.41829,-3.19271 -7.921097,-8.06916 l -3.324657,-6.47776 3.145087,-5.92855 c 3.542636,-6.67793 5.411862,-7.99904 13.044715,-9.21958 4.937395,-0.78952 5.769658,-0.44627 10.833659,4.46818 5.107874,4.95703 5.4854,5.82544 5.4854,12.61807 0,12.68656 -7.755507,17.28549 -21.263107,12.6088 z m 12.158119,-8.46473 c 2.785416,-2.52076 3.194573,-7.17043 0.838321,-9.52668 -0.88,-0.88 -3.46,-1.6 -5.733333,-1.6 -6.675204,0 -9.234377,4.62317 -5.953088,10.75432 1.712276,3.19941 7.504547,3.39824 10.8481,0.37236 z M 100.52047,178.33776 C 94.248622,177.134 76.973594,174.99672 60.666665,173.40701 49.400074,172.30868 33.381558,168.13133 30.12221,165.44157 29.321661,164.78092 26.566666,163.699 24,163.03729 18.754412,161.68494 13.393584,153.99562 13.355266,147.76897 13.283399,136.09 39.445957,125.80513 71.999999,124.71489 c 5.499999,-0.1842 15.399999,-0.97814 21.999999,-1.76431 10.488252,-1.24933 29.314832,-2.13543 37.333332,-1.75715 1.46667,0.0692 22.16667,0.41824 46,0.77568 23.83333,0.35743 48.73333,1.25012 55.33333,1.98376 6.6,0.73364 21.9,1.97986 34,2.76938 12.1,0.78952 24.57097,2.3 27.71327,3.35662 3.14229,1.05662 6.6413,1.92113 7.7756,1.92113 1.13429,0 4.5787,2.06197 7.65426,4.58216 4.1155,3.37233 6.02294,6.19369 7.22439,10.6858 2.45124,9.16489 2.06323,11.23462 -3.06812,16.36597 -4.50288,4.50288 -4.98693,4.66263 -11.50729,3.79767 -5.88287,-0.78039 -7.2259,-0.5091 -9.8955,1.99886 -3.99014,3.74855 -9.23486,4.70811 -39.89661,7.29942 -27.11326,2.29141 -142.2455,3.50813 -152.14619,1.60788 z m 119.07066,-11.30795 c 4.09001,-0.66045 4.17944,-0.80712 2.26932,-3.72233 -1.48111,-2.26044 -1.75404,-4.85568 -1.06968,-10.17114 1.21707,-9.4531 8.18944,-17.57922 15.65393,-18.24426 9.87144,-0.87951 23.27153,10.51912 22.3782,19.03573 -0.54961,5.23975 -4.7484,11.06796 -8.51688,11.82207 -1.63499,0.32716 1.52731,0.40098 7.02731,0.16404 5.5,-0.23694 12.7,-1.0298 16,-1.76191 16.79041,-3.72496 19.60446,-4.14753 22.87266,-3.43471 2.91091,0.63491 4.15382,-0.0336 7,-3.76518 4.24658,-5.56754 4.35528,-8.06619 0.46067,-10.58786 -4.5276,-2.9315 -20.80624,-7.6976 -26.29121,-7.6976 -2.66316,0 -5.41212,-0.53708 -6.10879,-1.1935 -1.84532,-1.73875 -39.81876,-4.53653 -84.55358,-6.22968 l -21.9536,-0.83092 5.50717,5.97457 c 3.02895,3.28601 6.51572,7.92489 7.74839,10.30863 2.54161,4.91493 1.52794,8.26182 -4.53419,14.9709 -3.15847,3.49554 -3.88709,3.66667 -15.61179,3.66667 -12.05492,0 -12.36605,-0.08 -15.69749,-4.03925 -6.73041,-7.99866 -6.22125,-17.63906 1.34389,-25.44468 l 4.66886,-4.81726 -26.19437,-0.18676 c -20.25094,-0.14438 -26.785605,0.22737 -28.800129,1.6384 -2.498898,1.7503 -2.438172,1.89456 1.480732,3.51783 C 101.23574,138.721 104,143.32277 104,151.53274 c 0,6.65026 -0.31587,7.36984 -4.333335,9.87194 -3.176936,1.9786 -5.400778,2.44438 -8.333334,1.74541 -2.199999,-0.52437 -6.399999,-1.08267 -9.333333,-1.24065 -7.062198,-0.38038 -13.102927,-1.97631 -14.312915,-3.7814 -0.538771,-0.80376 -0.988771,-3.87787 -1,-6.83136 -0.02008,-5.28312 2.369534,-10.3454 6.436325,-13.63502 1.580782,-1.27868 1.69898,-2.03928 0.502793,-3.23546 -1.187578,-1.18758 -4.057349,-1.20141 -11.928337,-0.0575 -5.700492,0.82848 -14.422873,1.90524 -19.383068,2.39279 -4.960194,0.48754 -9.345605,1.41565 -9.745355,2.06246 C 32.16969,139.47078 30.720889,140 29.349882,140 c -3.839604,0 -6.683216,3.71653 -6.683216,8.7348 0,3.95173 0.688559,4.89561 5.280216,7.2381 2.904119,1.48156 6.233915,2.69376 7.399547,2.69376 1.165632,0 3.77579,0.85659 5.800353,1.90354 4.600705,2.37912 28.426293,4.62101 58.81068,5.53388 12.809938,0.38485 23.421948,0.83088 23.582238,0.99117 0.63845,0.63845 92.07812,0.57616 96.05143,-0.0655 z m 26.54626,-1.47417 c -0.64953,-1.05096 -8.80406,-0.49922 -8.80406,0.59569 0,0.28343 2.13541,0.51533 4.74536,0.51533 2.60995,0 4.43636,-0.49996 4.0587,-1.11102 z m -82.98387,-10.98575 c 3.77974,-2.97315 4.73941,-8.81029 1.91314,-11.63656 -2.28726,-2.28727 -9.27136,-1.97493 -12.91562,0.57761 -2.58164,1.80826 -2.97922,2.97727 -2.34392,6.89211 1.20657,7.4352 6.92262,9.21979 13.3464,4.16684 z m 75.51314,0.80528 c 0,-1.19279 0.78172,-1.65817 2,-1.19068 3.98324,1.52852 1.9642,-3.34037 -2.2588,-5.44708 -3.73402,-1.86277 -4.4987,-1.88467 -6.20574,-0.17763 -1.70704,1.70703 -1.67136,2.36754 0.28953,5.36024 2.43351,3.71399 6.17501,4.59568 6.17501,1.45515 z M 93.082587,152.05398 c 1.604576,-2.1703 2.917411,-4.54918 2.917411,-5.28641 0,-2.30572 -4.911707,-4.10091 -11.220276,-4.10091 -5.38944,0 -6.157158,0.37814 -6.917392,3.40715 -0.629989,2.51008 -0.04891,4.26536 2.207016,6.66667 4.253583,4.52773 9.357252,4.25849 13.013241,-0.6865 z M 189.1628,74.061192 C 188.70233,73.595501 161.2533,72.969962 128.16496,72.671104 56.601559,72.024736 38.800698,70.212602 25.090911,62.178132 19.503802,58.903868 19.066129,58.215087 17.469954,50.184756 15.881241,42.191968 15.959932,41.304476 18.742501,35.832571 22.070581,29.287922 35.140145,16.22747 39.291059,15.29834 44.802592,14.064649 134.71662,7.5789693 142,7.8897364 c 1.46666,0.06258 23.26229,0.4162963 48.43472,0.786037 26.39201,0.3876543 46.81696,1.2336154 48.24568,1.9982406 C 240.04309,11.403306 247.13389,12 254.43773,12 c 18.73362,0 39.25157,2.336533 45.90185,5.227188 6.65167,2.891254 15.74515,11.208587 18.04215,16.502215 2.30993,5.323412 2.00342,10.955517 -0.90652,16.657047 -5.51343,10.802602 -15.39363,15.511755 -36.86131,17.569032 -8.77099,0.840536 -19.94125,2.180084 -24.82283,2.976776 -4.88157,0.796691 -9.77241,1.10438 -10.86854,0.683755 -1.84472,-0.707883 -23.46369,0.453892 -45.5892,2.449901 -5.13333,0.463094 -9.71008,0.460968 -10.17053,-0.0047 z m 3.50386,-11.471147 c 34.02767,-2.051889 49.17279,-3.453504 53.33333,-4.935772 2.2,-0.783786 3.36726,-1.476638 2.5939,-1.53967 -0.77336,-0.06303 -3.62336,-2.145527 -6.33333,-4.627764 -4.5729,-4.1886 -4.92723,-5.057875 -4.92723,-12.087656 0,-9.046998 1.3702,-11.993609 6.90905,-14.857858 3.62193,-1.872976 5.19636,-1.93372 12.10729,-0.467118 8.47915,1.799396 11.51972,4.147758 15.07731,11.644802 2.12615,4.480541 2.09908,4.999907 -0.60019,11.512375 -1.55474,3.751083 -2.8268,7.146841 -2.8268,7.546129 0,1.444639 16.8399,-0.259396 24,-2.428566 11.79511,-3.573359 21.59439,-15.015615 12.85955,-15.015615 -2.39101,0 -3.43328,-1.021043 -4.36753,-4.278571 -2.03443,-7.093639 -6.58394,-8.686923 -31.16824,-10.915435 C 245.07757,19.941465 200.87414,18.057953 174,18.077573 68.253703,18.154774 43.487883,20.759514 31.11701,33.105262 c -4.171044,4.162572 -5.783677,6.852014 -5.783677,9.645632 0,5.866634 5.997444,11.633022 14.666666,14.101619 11.642772,3.315327 37.475387,5.723431 61.333331,5.717464 12.1,-0.0031 23.8,0.605064 26,1.351312 4.12996,1.4009 28.13673,0.911734 65.33333,-1.331244 z M 166,56.5074 c -6.10019,-3.132368 -8.86363,-7.828526 -9.57451,-16.270794 -0.58872,-6.991495 -0.31625,-7.952008 3.56561,-12.56994 4.11763,-4.898391 4.39208,-5 13.50551,-5 5.86049,0 10.80604,0.77752 13.36607,2.101363 l 4.06358,2.101364 -0.91492,10.898635 c -0.76296,9.088483 -1.52693,11.673724 -4.59978,15.565304 -3.10979,3.938353 -4.59995,4.710471 -9.54822,4.947343 C 172.6385,58.435045 168.2,57.637073 166,56.5074 Z m 14.22834,-14.714052 c 3.33503,-3.018156 3.05955,-5.324828 -0.94962,-7.951746 -2.69754,-1.767491 -4.04862,-1.918853 -6.6299,-0.742748 -3.30052,1.50382 -5.60726,6.938338 -4.029,9.492032 1.34819,2.181404 8.88932,1.663308 11.60852,-0.797538 z M 82.176344,55.312515 c -2.420772,-0.832222 -6.59993,-3.267375 -9.287016,-5.411452 -4.377997,-3.493287 -4.806057,-4.383329 -4.119937,-8.56636 1.953362,-11.908962 6.281227,-16.00137 16.922014,-16.00137 7.742388,0 16.566285,6.464104 17.799855,13.039601 2.44162,13.014953 -8.179022,21.455487 -21.314916,16.939581 z M 92.734701,42.042824 c 2.790152,-6.677775 2.493354,-7.376158 -3.134703,-7.376158 -5.956132,0 -8.266666,1.875756 -8.266666,6.71111 0,4.463291 0.877846,5.28889 5.62359,5.28889 3.128141,0 4.20634,-0.862863 5.777779,-4.623842 z m 166.725609,-0.0495 c 2.87364,-4.385736 0.61634,-7.326658 -5.62357,-7.326658 -4.21497,0 -4.50341,0.284659 -4.50341,4.444444 0,2.444445 0.4,4.844445 0.88889,5.333333 2.0634,2.063408 7.16739,0.709183 9.23809,-2.451119 z"
       id="path833" />
  </g>
</svg>
