<?xml version="1.0" encoding="UTF-8" standalone="no"?>
<!-- Created with Inkscape (http://www.inkscape.org/) -->

<svg
   version="1.1"
   id="svg205"
   width="724"
   height="293.33334"
   viewBox="0 0 724 293.33334"
   xmlns="http://www.w3.org/2000/svg"
   xmlns:svg="http://www.w3.org/2000/svg">
  <defs
     id="defs209" />
  <g
     id="g211">
    <path
       style="fill:#000000;stroke-width:1.33333"
       d="m 152,286.49626 c -6.96667,-0.4604 -15.36667,-1.48427 -18.66667,-2.27527 -3.3,-0.791 -9.15559,-1.46432 -13.01243,-1.49625 C 107.08024,282.6151 78.489644,274.78926 69.333333,268.76838 66.766667,267.08063 61.658296,263.80803 57.9814,261.49593 50.203536,256.60507 37.185747,242.76091 31.076327,232.88293 19.416029,214.03003 18.497528,211.95104 12.130489,190 2.4038659,156.46643 7.0939892,97.367949 21.474699,72.257122 22.863615,69.831871 24,67.308516 24,66.649667 24,63.649705 40.257912,41.28188 46.60876,35.54427 52.785437,29.964011 69.877503,18.611454 75.333333,16.465392 c 3.822963,-1.503769 16.054779,-5.671296 25.999997,-8.8585133 3.04064,-0.9744563 15.82366,-1.385022 36.68706,-1.1783166 17.66112,0.1749786 36.49566,-0.3249666 42,-1.1148502 C 186.61036,4.3680373 254.51771,3.6992782 379.95004,3.3447823 600.57283,2.7212601 606.21019,2.9283047 636,12.748794 c 11.11239,3.663302 26.64935,12.329291 33.07697,18.4492 3.15899,3.007771 8.25899,8.983446 11.33334,13.279276 3.07433,4.295832 7.83649,10.478627 10.58258,13.739543 2.74608,3.260916 5.33716,7.546144 5.75795,9.52273 1.72856,8.119689 3.88608,14.927126 4.73093,14.927126 1.98918,0 2.35375,-4.374255 0.94798,-11.374146 -1.06508,-5.303392 -1.07776,-8.272894 -0.0451,-10.539492 0.92984,-2.040755 1.21932,-11.030187 0.81935,-25.443036 -0.34018,-12.258022 -0.25982,-23.417417 0.17857,-24.798654 1.07432,-3.3848532 9.21453,-3.5201712 10.70824,-0.178007 0.57356,1.283333 1.12676,61.62532 1.22935,134.093306 l 0.1865,131.75997 -3.68714,1.9067 c -4.68867,2.4246 -5.80847,2.39399 -8.433,-0.23054 -1.88126,-1.88124 -2.04708,-5.75414 -1.38443,-32.33334 0.41404,-16.60785 1.02303,-31.99609 1.35329,-34.19609 0.33027,-2.2 0.0107,-4.9 -0.71081,-6 -1.1656,-1.77778 -1.45717,-1.77778 -2.62421,0 -0.72211,1.1 -1.32211,2.76332 -1.33334,3.69626 -0.0588,4.89034 -15.18292,30.73427 -20.85508,35.63707 -0.84841,0.73334 -3.11521,3.88334 -5.03734,7 -1.92212,3.11667 -4.34122,5.66667 -5.37575,5.66667 -1.03453,0 -3.57923,1.35 -5.65488,3 -13.06132,10.38284 -39.17892,20.11471 -57.76403,21.52387 -6.23333,0.47262 -43.73333,1.12797 -83.33333,1.45634 -80.10649,0.66424 -192.12463,2.10312 -214.66667,2.7574 -8.06666,0.23414 -16.16666,0.39064 -18,0.34778 -6.85858,-0.16034 -74.91104,0.22993 -98.66666,0.56582 -13.56667,0.19184 -30.36667,-0.0279 -37.33334,-0.48829 z m 164.66667,-15.10337 c 28.6,-0.36034 82.6,-1.01098 120,-1.44588 37.4,-0.4349 79.7,-0.94182 94,-1.12648 14.3,-0.18467 30.8,0.14833 36.66666,0.73998 10.19622,1.0283 26.9667,-0.25728 38,-2.91296 2.56667,-0.6178 10.36667,-2.43353 17.33334,-4.03497 6.96666,-1.60144 15.36666,-4.49441 18.66666,-6.42881 3.3,-1.9344 6.61198,-3.8171 7.35994,-4.18376 4.15556,-2.03714 16.65121,-12.65439 20.91424,-17.77032 4.75665,-5.70831 6.56754,-9.15978 15.51097,-29.56302 6.83915,-15.60261 8.82992,-25.79735 10.28445,-52.66667 0.79852,-14.75078 -1.59381,-43.79006 -4.61342,-55.999998 -2.07327,-8.383339 -9.00806,-23.715862 -13.07712,-28.91297 -2.19059,-2.797867 -4.39702,-6.791053 -4.90318,-8.873747 -0.52116,-2.144417 -5.09638,-7.927083 -10.54929,-13.333333 -15.29029,-15.159447 -30.05568,-21.244185 -57.06804,-23.51742 -7.7778,-0.654544 -17.9778,-2.187714 -22.66667,-3.407046 -7.7784,-2.022758 -27.33458,-2.216287 -223.24116,-2.209208 -154.8189,0.0056 -217.11984,0.431957 -223.33333,1.528406 -14.55028,2.567582 -23.09356,3.763023 -27.53018,3.852234 -4.12902,0.08303 -17.428423,3.947383 -22.547977,6.55168 C 84.475987,28.389031 80.033333,30.60043 76,32.592817 62.812795,39.107036 58.781993,42.065514 51.249705,50.758734 43.171937,60.081507 37.312213,69.636119 34.542976,78.000002 c -0.971211,2.933333 -2.185472,5.933333 -2.698357,6.666667 -0.512886,0.733333 -1.942279,4.933333 -3.17643,9.333333 -1.234149,4.4 -3.206637,10.999998 -4.383305,14.666668 -1.644803,5.12544 -2.130672,12.21507 -2.101663,30.66667 0.05213,33.15561 1.697355,42.29401 13.04569,72.46221 6.141012,16.32516 28.997361,39.43668 44.765142,45.26492 10.868799,4.01743 20.525847,6.93954 22.933967,6.93954 1.41934,0 3.59711,0.54401 4.83949,1.2089 1.24238,0.66491 7.74459,1.56135 14.44935,1.9921 12.60683,0.80993 16.44981,1.63122 16.44981,3.51558 0,0.60387 1.35,1.37544 3,1.71462 3.02474,0.62174 79.03074,0.17078 175,-1.03832 z M 199.88693,246.01945 c -1.89552,-1.03058 -5.72409,-5.50656 -8.50793,-9.94662 -2.78385,-4.44005 -5.57543,-8.07282 -6.20351,-8.07282 -0.62808,0 -3.25705,4.2 -5.84216,9.33333 -3.92518,7.79437 -5.24705,9.33333 -8.01676,9.33333 -3.95424,0 -6.59716,-2.45954 -12.60373,-11.72928 -2.4724,-3.81556 -5.19925,-6.93738 -6.05968,-6.93738 -0.86041,0 -2.28171,2.39417 -3.15843,5.32038 -2.54873,8.50692 -10.83356,9.02994 -10.76549,0.67962 0.012,-1.46667 2.25276,-6.86667 4.97957,-12 5.8716,-11.05351 8.80659,-12.28827 14.53546,-6.11517 2.06565,2.22584 5.23805,6.48083 7.04977,9.45554 3.40015,5.58281 6.24124,6.38589 8.22972,2.32629 0.6286,-1.28333 1.7466,-3.38333 2.48447,-4.66666 0.73785,-1.28334 2.34897,-4.28334 3.58028,-6.66667 3.45316,-6.68403 7.43121,-5.87154 13.05637,2.66666 6.15621,9.34429 8.06871,11.66667 9.60753,11.66667 0.71047,0 2.6654,-2.93278 4.34431,-6.51732 4.28445,-9.14749 8.86799,-13.86299 11.89852,-12.24109 2.56801,1.37436 8.12248,9.0982 11.02188,15.32663 2.697,5.79362 4.67669,5.59013 7.92204,-0.81431 1.60364,-3.16465 4.68301,-7.99979 6.84305,-10.74475 3.464,-4.40201 4.26892,-4.81441 6.82258,-3.49552 3.37606,1.74365 7.61633,6.40897 12.36838,13.60824 3.25904,4.93739 3.47351,5.03802 5.95383,2.79335 1.41515,-1.28069 2.573,-2.80545 2.573,-3.38837 0,-2.48728 8.32648,-13.11745 10.91935,-13.94039 3.16646,-1.005 4.84214,0.72708 12.02322,12.42785 2.36768,3.85787 4.9242,6.81471 5.68115,6.57076 0.75696,-0.24396 3.48107,-4.2931 6.05359,-8.9981 2.57252,-4.70501 5.62492,-8.73705 6.78313,-8.9601 3.12669,-0.60215 7.91227,3.84257 12.04963,11.19139 9.611,17.07121 9.48056,16.74351 7.97769,20.04195 -0.78683,1.72688 -2.33763,3.13978 -3.44623,3.13978 -2.36716,0 -11.29368,-11.67718 -11.34181,-14.83674 -0.0181,-1.19354 -0.85344,-2.85094 -1.85615,-3.68311 -2.22816,-1.8492 -3.19914,-0.79372 -7.9148,8.6036 -4.01037,7.99184 -6.60241,10.43672 -9.86478,9.30476 -2.53292,-0.87885 -8.2113,-7.73705 -12.56402,-15.17448 -3.11688,-5.32577 -4.54085,-4.58525 -9.09508,4.72981 -4.14306,8.4741 -6.5276,11.05616 -10.21036,11.05616 -2.94218,0 -9.8612,-7.20198 -9.8612,-10.26449 0,-1.74551 -6.1644,-8.40217 -7.78082,-8.40217 -0.68282,0 -1.62126,1.05 -2.0854,2.33333 -0.46415,1.28333 -2.55118,5.33333 -4.63784,9 -5.56912,9.78603 -12.22198,9.26159 -17.92707,-1.41319 -1.15232,-2.15608 -3.51801,-5.65514 -5.25709,-7.7757 l -3.16199,-3.85556 -2.37347,5.18889 c -8.43324,18.43679 -7.956,17.94885 -14.22272,14.54167 z m 335.91151,1.08684 c -4.06996,-1.08035 -4.99959,-7.62086 -5.84259,-41.10629 -0.46154,-18.33333 -1.32169,-49.83333 -1.91144,-70 -2.06016,-70.447401 -0.88941,-80.037755 10.95195,-89.714342 3.9408,-3.220362 5.73587,-3.723481 13.49755,-3.783052 11.24038,-0.08627 14.26898,1.789412 19.4448,12.042637 3.99804,7.920064 5.16693,14.01632 8.07634,42.121426 1.5275,14.755681 3.56792,62.238881 2.88234,67.075331 -0.55098,3.88687 -6.00294,6.66019 -8.69722,4.42414 -2.70842,-2.2478 -3.45549,-7.43399 -4.32794,-30.04455 -1.3395,-34.71487 -2.98,-55.773856 -5.14243,-66.012675 -4.43392,-20.994109 -15.37024,-24.992257 -22.18068,-8.108914 -2.18985,5.428739 -2.12843,62.896829 0.11613,108.666669 0.71927,14.66667 1.45826,36.63115 1.6422,48.80996 0.38988,25.81295 -0.2749,27.81534 -8.50905,25.62966 z m -89.99533,-1.84003 c -1.57496,-0.59365 -3.36576,-1.87143 -3.97956,-2.83948 -0.61379,-0.96807 -1.20126,-9.89693 -1.30548,-19.84195 -0.25666,-24.49211 -2.32536,-28.06156 -21.18474,-36.55335 -12.12773,-5.46074 -12.66666,-6.20613 -12.66666,-17.51917 0,-5.35759 0.62645,-15.61459 1.39213,-22.79335 0.76567,-7.17876 1.91912,-21.15229 2.56321,-31.05229 2.01566,-30.98118 5.19538,-62.73997 6.7546,-67.464461 1.90987,-5.786975 6.24371,-7.046332 13.29944,-3.864644 6.33058,2.854693 8.96866,5.709092 14.67776,15.881348 3.85296,6.865051 4.55818,9.62595 5.44914,21.333334 0.98501,12.94325 2.91588,70.403153 4.44972,132.417223 l 0.73301,29.63612 -3.65951,1.87003 c -2.32254,1.18683 -4.70568,1.47568 -6.52306,0.79064 z m -6.32575,-65.4993 c 1.5394,-2.49081 1.94007,-81.728024 0.48711,-96.332385 -1.32676,-13.335819 -4.46208,-21.534666 -9.98924,-26.1218 -4.08515,-3.390366 -3.93724,-4.248248 -8.04867,46.687225 -5.09897,63.17008 -5.14419,64.4109 -2.41819,66.37016 3.87455,2.78479 17.05135,10.6761 18.0796,10.82751 0.50672,0.0747 1.35695,-0.5692 1.88939,-1.43071 z M 145.37639,140 c -7.75924,-0.59984 -8.8284,-1.04173 -10.66667,-4.40861 -1.90219,-3.48393 -1.85919,-3.87951 0.62361,-5.7372 2.81531,-2.10649 9.08072,-1.81708 22.78226,1.05234 4.92168,1.03071 7.54949,1.00975 9.57901,-0.0764 1.53821,-0.82322 4.58713,-1.49677 6.77536,-1.49677 9.11364,0 9.86385,-1.89059 4.86337,-12.25608 C 177.5,113.27694 176,109.15335 176,107.91372 c 0,-4.07047 -4.06575,-5.90316 -13.75912,-6.20209 -5.14303,-0.15861 -9.93588,-0.87329 -10.65077,-1.58818 -0.7149,-0.714898 -1.58716,-4.290366 -1.93838,-7.945489 -0.72694,-7.565567 0.43943,-9.141915 12.95699,-17.511293 3.83881,-2.566666 10.67227,-7.37232 15.18547,-10.679231 8.25757,-6.050492 10.42498,-7.242341 20.20581,-11.111112 7.06628,-2.795041 14.38332,-4.605312 31.29728,-7.743107 7.71983,-1.432142 15.63269,-2.933261 17.58413,-3.335817 2.63104,-0.542748 3.90618,-0.06281 4.93358,1.856908 1.0947,2.045472 0.67705,3.631409 -1.98992,7.556217 -5.11452,7.526695 -3.6227,9.366711 6.53149,8.055935 15.55721,-2.008236 17.5886,-1.742277 18.06192,2.364742 0.51869,4.500876 -5.16049,12.152447 -11.75181,15.833223 -2.56667,1.433296 -7.06667,4.022228 -10,5.753181 -7.53815,4.448242 -21.63302,6.300748 -39.97074,5.253406 -16.27036,-0.929268 -17.6437,-0.412166 -12.28229,4.624621 7.76917,7.298746 25.07229,8.695086 44.26632,3.572223 4.39269,-1.172404 13.98671,-2.640832 21.32004,-3.263176 11.34795,-0.963043 13.82968,-0.809318 16.66667,1.032384 1.83333,1.190153 5.43333,3.287671 8,4.661151 7.69241,4.116374 14.63021,11.697454 19.511,21.320054 3.82512,7.54133 5.10768,9.01386 7.54853,8.66667 2.32575,-0.33083 3.02537,-1.43652 3.34657,-5.28898 0.32579,-3.90729 -0.43668,-5.83061 -3.85474,-9.72358 -3.77359,-4.29788 -4.08598,-5.23671 -2.73158,-8.2093 1.29231,-2.8363 2.28687,-3.29239 6.4179,-2.94309 4.51833,0.38204 5.20682,1.03773 9.09025,8.65718 4.60427,9.03379 5.06013,16.93039 1.30795,22.65694 -4.2231,6.44525 -6.54731,6.76851 -49.96922,6.94965 -22.36666,0.0933 -41.34725,-0.28486 -42.17909,-0.84038 -0.83183,-0.55552 -1.7444,-2.21004 -2.02792,-3.67671 -0.48041,-2.4852 -1.37025,-2.63256 -13.07647,-2.16544 -10.84612,0.4328 -12.87501,0.88788 -14.86121,3.33333 -2.20492,2.71474 -3.39617,2.83211 -28.74444,2.83211 -14.54431,0 -30.32483,-0.3 -35.06781,-0.66667 z m 127.35724,-10.77501 c 1.12992,-1.82824 -5.87018,-9.2451 -8.64975,-9.16474 -1.14613,0.0331 -4.68189,1.41983 -7.85724,3.08153 -7.31127,3.82609 -5.52325,5.83271 5.81948,6.531 4.37463,0.26932 8.36847,0.60311 8.87519,0.74178 0.50672,0.13866 1.32226,-0.39665 1.81232,-1.18957 z M 200,126.76191 c 0,-0.68096 0.81659,-2.05469 1.81464,-3.05274 1.45735,-1.45735 4.36699,-1.57255 14.77753,-0.58508 15.21084,1.44278 18.10275,0.73898 35.95699,-8.75082 14.45033,-7.68058 16.19525,-7.47879 25.72896,2.97546 3.81964,4.18844 8.71268,8.34763 10.87341,9.24264 5.69992,2.36098 10.09044,1.38679 10.62079,-2.35659 0.72169,-5.09412 -12.51729,-16.93497 -22.02491,-19.69891 -8.79626,-2.55714 -21.5324,-1.96909 -31.06688,1.43441 -6.31297,2.25353 -31.29562,4.16706 -36.69889,2.81092 -1.74833,-0.4388 -6.65944,-3.85227 -10.91355,-7.58547 -4.25412,-3.733209 -9.98476,-7.941663 -12.73476,-9.352121 -3.84929,-1.974283 -5,-3.366894 -5,-6.051144 0,-2.043187 -1.4368,-4.818252 -3.4705,-6.703034 -3.24135,-3.003976 -3.6786,-3.080016 -6.62179,-1.151561 -6.64332,4.352863 -12.57437,10.443575 -12.57437,12.912845 0,2.322466 0.66041,2.48686 6.74682,1.67947 9.63407,-1.278004 12.64894,0.787384 18.07887,12.385245 C 185.97156,110.2108 188,115.16938 188,115.93451 188,117.69541 197.24243,128 198.82181,128 199.46981,128 200,127.44286 200,126.76191 Z m 47.1882,-50.545868 c 7.86364,-2.87178 11.47847,-5.027598 11.47847,-6.84554 0,-0.533307 -6.06746,-1.367272 -13.48324,-1.853258 -13.18024,-0.863752 -30.81219,0.576503 -41.8501,3.418498 -6.02685,1.55177 -16.66685,6.408325 -16.6663,7.607217 2e-4,0.434707 11.8502,0.734416 26.33333,0.666019 23.43847,-0.11068 27.19637,-0.43967 34.18784,-2.992936 z M 197.71856,65.325621 c 6.85768,-3.223488 22.13537,-6.603946 29.98995,-6.635801 3.89938,-0.01581 5.95873,-0.675215 6.49805,-2.080656 0.43425,-1.131628 0.56541,-2.267811 0.29149,-2.524852 -1.42556,-1.337672 -37.6081,7.383161 -41.17737,9.924701 -6.76124,4.814422 -4.48995,5.494383 4.39788,1.316608 z"
       id="path233" />
  </g>
</svg>
