<?xml version="1.0" encoding="UTF-8" standalone="no"?>
<!-- Created with Inkscape (http://www.inkscape.org/) -->

<svg
   version="1.1"
   id="svg119"
   width="214.66667"
   height="110.66667"
   viewBox="0 0 214.66667 110.66667"
   xmlns="http://www.w3.org/2000/svg"
   xmlns:svg="http://www.w3.org/2000/svg">
  <defs
     id="defs123" />
  <g
     id="g125">
    <path
       style="fill:#000000;stroke-width:1.33333"
       d="m 96.666668,104.44526 c -1.466667,-0.38864 -5.215593,-2.29781 -8.330949,-4.2426 -6.885011,-4.298042 -7.788803,-8.976448 -2.002384,-10.36518 2.016666,-0.483997 4.709237,-1.845429 5.983489,-3.025403 8.476666,-7.849499 9.000396,-8.703719 6.016511,-9.813076 C 97.416668,76.6582 81.966668,76.744008 64.000001,77.189682 17.811344,78.335425 7.0348428,77.845968 5.2556855,74.521582 2.6606246,69.672667 4.889051,66.667966 11.08985,66.655079 c 3.067249,-0.0064 8.751357,-0.392854 12.63135,-0.858846 L 30.775735,64.948975 30.387867,55.474488 30,46.000001 22.666667,45.667581 C 9.2582515,45.059776 6.6666668,44.247571 6.6666668,40.653163 c 0,-4.250443 3.3382642,-5.862095 10.6748032,-5.153597 4.198456,0.40545 6.790016,-0.06147 8.65853,-1.560002 2.621531,-2.102446 2.588532,-2.204663 -1.949634,-6.039103 -2.868726,-2.423878 -6.149632,-3.907352 -8.666667,-3.918667 -2.227701,-0.01 -5.337238,-0.363484 -6.9100825,-0.785489 L 5.6138996,22.429021 8.4736165,18.008415 C 12.610144,11.614092 23.166506,5.600465 32.084044,4.5582964 c 6.14041,-0.7176128 8.435865,-0.3559435 13.333334,2.1007854 3.253776,1.6321987 7.565956,4.5138782 9.582623,6.4037312 4.268433,4.000024 4.979609,9.603854 1.218813,9.603854 -3.508469,0 -15.402556,9.523051 -13.422508,10.746789 0.864691,0.534408 13.56446,1.045133 28.22171,1.134944 14.657248,0.08981 34.684744,0.482142 44.505544,0.871849 9.82081,0.389705 18.5847,0.258208 19.4753,-0.292219 0.89061,-0.550426 9.34825,-0.82529 18.79474,-0.61081 13.87874,0.315113 17.06676,0.04697 16.60915,-1.39696 -0.54356,-1.715142 -11.18729,-9.551157 -14.7048,-10.825809 -2.90472,-1.052592 1.78655,-7.919241 7.67525,-11.234346 6.59963,-3.7153204 16.18531,-5.3106142 19.49403,-3.244285 1.33645,0.8346325 3.49493,1.5175136 4.7966,1.5175136 3.81927,0 15.62879,8.4083154 16.06388,11.4374034 0.37503,2.610857 -4.06616,5.89593 -7.97088,5.89593 -1.81137,0 -7.75683,6.303554 -7.75683,8.224026 0,0.954972 2.85803,1.113897 8.72764,0.485316 9.74264,-1.043348 12.6057,0.19982 12.6057,5.473516 0,2.168858 -1.38683,4.033508 -4.33334,5.826352 -2.38333,1.450175 -4.53333,2.041355 -4.77777,1.313736 -0.24445,-0.72762 -3.92451,-1.322945 -8.17791,-1.322945 -8.95645,0 -9.419,0.774584 -8.32686,13.944304 l 0.62696,7.560323 8.16113,-0.190686 c 12.09235,-0.282542 12.62159,-0.190594 14.02792,2.437164 0.87516,1.635265 0.77395,3.460797 -0.31276,5.640499 -1.69053,3.390876 -5.06913,4.056414 -11.94212,2.352438 -2.04677,-0.507444 -20.78515,-1.089073 -41.64081,-1.292509 -30.08697,-0.293481 -38.26902,-0.0055 -39.61194,1.394053 -1.37568,1.433746 -1.20942,2.05007 0.88823,3.29251 1.41941,0.840714 3.81941,2.785252 5.33334,4.321193 1.51392,1.535942 4.40259,3.197372 6.41926,3.69207 5.04135,1.236664 4.6835,4.673312 -1.067,10.246913 -4.49388,4.35564 -5.25369,4.60068 -15,4.83749 -5.64648,0.1372 -11.466335,-0.0685 -12.933002,-0.45717 z M 113.9132,98.699671 c 4.49203,-1.707864 4.32385,-4.196704 -0.52587,-7.782258 -5.38218,-3.979212 -9.30846,-3.664456 -14.602167,1.170603 -4.996606,4.563695 -4.425871,6.117407 2.548167,6.936875 8.51165,1.000139 9.13639,0.983989 12.57987,-0.32522 z M 92.985972,65.843733 c 4.575619,-0.395804 8.556618,-1.122563 8.846668,-1.61502 0.29004,-0.492458 0.14636,-4.795378 -0.31931,-9.562045 L 100.66667,46.000001 87.333335,45.141135 C 80.000001,44.668757 66.350001,44.608488 57.000001,45.007201 l -17,0.724934 v 10.598183 10.598183 l 7.666666,-0.76663 c 4.216667,-0.421646 10.066667,-0.254777 13.000001,0.37082 5.087108,1.084938 14.011865,0.894686 32.319304,-0.688958 z m 76.972948,0.857537 c 3.74627,-0.223017 4.66418,-2.356373 4.68734,-10.894166 l 0.0204,-7.526229 -16.33333,-0.844666 c -14.79544,-0.765134 -46.20993,-1.810416 -46.41815,-1.544512 -0.0466,0.05957 -0.38341,4.463026 -0.74837,9.785463 -0.76462,11.150866 -0.33179,11.624794 9.02096,9.87751 4.07253,-0.760829 7.09099,-0.654443 8.90075,0.313709 2.24292,1.199875 26.42698,1.692718 40.87039,0.832891 z M 185.595,24.485333 c 5.80216,-4.020904 5.83312,-4.100632 2.86502,-7.380344 -2.79338,-3.086643 -12.0219,-3.263498 -16.23695,-0.311163 l -3.03693,2.127159 4.67417,4.539508 c 2.5708,2.496729 5.12168,4.539508 5.6686,4.539508 0.54693,0 3.27668,-1.5816 6.06609,-3.514668 z M 41.955059,20.049661 c 4.087735,-4.516897 1.768134,-6.716327 -7.083285,-6.716327 -12.332024,0 -14.024539,4.573188 -2.871774,7.759555 6.717939,1.919329 7.332241,1.854954 9.955059,-1.043228 z"
       id="path972" />
  </g>
</svg>
