<?xml version="1.0" encoding="UTF-8" standalone="no"?>
<!-- Created with Inkscape (http://www.inkscape.org/) -->

<svg
   version="1.1"
   id="svg193"
   width="102.66667"
   height="221.33333"
   viewBox="0 0 102.66667 221.33333"
   xmlns="http://www.w3.org/2000/svg"
   xmlns:svg="http://www.w3.org/2000/svg">
  <defs
     id="defs197" />
  <g
     id="g199">
    <path
       style="fill:#000000;stroke-width:1.33333"
       d="M 56.580435,207.66666 C 45.496421,190.63517 44.15418,188.77412 38.572596,182.69824 c -3.015583,-3.28264 -6.362346,-7.66914 -7.437254,-9.74779 -1.074908,-2.07864 -5.220094,-8.38871 -9.211525,-14.02236 -3.991432,-5.63365 -7.25715,-10.98572 -7.25715,-11.89348 0,-1.88089 5.753788,-3.67023 8.461195,-2.63129 0.990269,0.38 5.319766,5.9947 9.6211,12.47713 4.301337,6.48241 10.134523,14.78621 12.962639,18.45288 12.575284,16.30392 25.477245,37.38272 24.476909,39.98955 -0.424314,1.10574 -2.244236,2.01045 -4.044268,2.01045 -2.595395,0 -4.574881,-2.00077 -9.563807,-9.66667 z m 32.025628,2.39394 c -1.8,-1.8 -3.272727,-4.0823 -3.272727,-5.07178 0,-0.98948 -2.140295,-3.86674 -4.756209,-6.39393 C 76.305285,194.46794 71.463202,187.59901 56.190278,164 c -2.610311,-4.03334 -6.463943,-9.57392 -8.563624,-12.31242 -5.016961,-6.54334 -4.533377,-10.86844 1.278156,-11.43162 4.0371,-0.39124 4.662989,0.24125 13.194333,13.33333 4.925906,7.55921 9.769266,14.94404 10.763023,16.41071 0.993758,1.46666 4.485766,6.65326 7.760017,11.52577 3.274252,4.87252 7.023728,9.92927 8.332169,11.23723 9.044031,9.04073 12.452768,17.90009 7.603268,19.76101 -3.427514,1.31527 -4.507454,0.98069 -7.951557,-2.46341 z M 76.000002,103.91045 C 61.249658,101.28839 44.386609,96.933101 41.333335,94.956952 39.500001,93.770376 35.477321,91.451052 32.394046,89.802897 11.074636,78.40668 0.38209427,53.417978 7.1405865,30.785014 11.570965,15.948481 26.823469,4.8354099 42.666668,4.9004851 c 10.711514,0.043997 25.1133,6.8549949 30.140581,14.2543039 3.458749,5.090695 3.729797,6.412125 3.547109,17.293114 -0.214514,12.776688 -1.450434,15.905564 -8.743396,22.134933 -4.489047,3.834375 -16.387978,6.958566 -19.856639,5.213572 -1.235123,-0.621358 -3.348416,-1.129742 -4.696208,-1.129742 -3.67383,0 -12.105293,-7.545327 -15.191593,-13.594973 -3.785304,-7.419808 -2.536985,-13.894344 3.885748,-20.153835 9.560993,-9.31799 21.926168,-7.257701 25.366964,4.22665 1.197788,3.997859 1.257601,6.239026 0.218339,8.180906 -2.092102,3.909128 -6.449521,3.380348 -8.175251,-0.992081 -2.65854,-6.735856 -3.512731,-7.669737 -6.684318,-7.307916 -6.886107,0.785582 -8.36077,7.904557 -3.111287,15.01983 4.124524,5.590478 7.983317,7.845555 13.530985,7.907505 7.63246,0.08523 16.435634,-10.360354 16.435634,-19.502035 0,-4.845124 -4.564966,-12.833169 -10.122274,-17.712549 -4.754027,-4.174092 -5.313532,-4.323166 -14.411886,-3.839878 -18.614819,0.988786 -27.191891,9.288072 -28.418361,27.497975 -0.617282,9.165046 -0.31181,11.069417 2.838287,17.694462 5.128604,10.786092 13.81554,18.397128 28.774413,25.210625 9.345982,4.256927 15.27969,6.048229 22.666667,6.842749 17.939498,1.929514 24.221041,5.138955 21.179853,10.821469 -1.372209,2.564 -5.385148,2.80337 -15.840033,0.94488 z"
       id="path370" />
  </g>
</svg>
