<?xml version="1.0" encoding="UTF-8" standalone="no"?>
<!-- Created with Inkscape (http://www.inkscape.org/) -->

<svg
   version="1.1"
   id="svg183"
   width="182.66667"
   height="208"
   viewBox="0 0 182.66667 208"
   xmlns="http://www.w3.org/2000/svg"
   xmlns:svg="http://www.w3.org/2000/svg">
  <defs
     id="defs187" />
  <g
     id="g189">
    <path
       style="fill:#000000;stroke-width:1.33333"
       d="m 146.82616,201.12991 c -17.68195,-5.08528 -35.45816,-27.99662 -38.27215,-49.32807 -1.05105,-7.96752 2.20935,-15.39129 7.83366,-17.83687 2.35345,-1.02332 3.679,-1.94168 2.94567,-2.04078 -0.73334,-0.0991 1.66666,-0.91655 5.33333,-1.81656 3.66667,-0.9 7.23667,-1.1424 7.93333,-0.53867 0.69667,0.60374 2.80619,1.09771 4.68783,1.09771 10.92035,0 38.67656,25.11204 38.70535,35.01809 0.004,1.29328 0.7329,3.51407 1.62033,4.93507 2.15621,3.45264 -0.67612,17.70808 -4.70783,23.69501 -4.86437,7.22344 -15.23582,9.93369 -26.07952,6.81507 z m 16.79883,-11.34104 c 5.10125,-3.79694 7.45072,-10.97315 5.824,-17.78887 -1.3974,-5.85491 -9.44711,-20.06648 -12.11565,-21.38992 -1.1,-0.54553 -3.5,-1.67973 -5.33334,-2.52044 -5.96205,-2.734 -9.79845,-5.20396 -13.47998,-8.67873 C 135.85654,136.897 133.4721,136 129.45308,136 126.13761,136 124,136.61965 124,137.58073 c 0,0.8694 -1.27338,2.93619 -2.82974,4.59286 -2.21022,2.35266 -2.60053,3.83101 -1.7828,6.7526 0.57581,2.05726 0.89428,4.61508 0.7077,5.68402 -0.46359,2.65608 2.64652,12.24696 4.80842,14.82811 0.9697,1.15775 1.76309,2.98291 1.76309,4.05592 0,3.64409 11.21932,14.32099 18.62549,17.72499 8.20944,3.7732 11.70854,3.50018 18.33283,-1.43036 z M 35.883137,184.66197 C 21.518862,183.7436 8.4688615,182.29784 6.8831364,181.44919 c -4.0764194,-2.18164 -3.7089743,-7.88926 1.1242907,-17.4639 2.8961329,-5.73721 5.3919109,-8.69893 8.9999999,-10.68024 2.745916,-1.50785 7.092573,-4.06605 9.65924,-5.68489 5.76579,-3.63659 17.571059,-3.75076 28.046829,-0.27127 7.764582,2.57898 19.430607,13.38322 20.858644,19.31778 0.441155,1.83333 1.528756,4.83333 2.416889,6.66666 1.859238,3.83794 0.274075,11.95038 -2.360484,12.08034 -0.895698,0.0441 -4.328544,0.26882 -7.628544,0.49921 -3.3,0.23039 -17.752588,-0.33252 -32.116864,-1.25091 z m 32.116864,-12.37876 c 0,-3.33732 -11.716307,-14.11397 -17.333333,-15.94318 -13.23449,-4.30988 -36.000001,4.4219 -36.000001,13.80792 0,3.79898 1.62502,4.02468 31.000001,4.30533 20.639448,0.1972 22.333333,0.0327 22.333333,-2.17007 z m 14,-80.417154 C 69.536021,90.086669 63.608768,87.2157 55.600753,79.079117 35.19855,58.349361 41.18857,25.612561 68.346317,9.4217496 78.266748,3.5074221 97.873035,3.5931661 109.79922,9.6030352 c 7.46871,3.7636518 16.19349,12.2996128 19.90694,19.4761248 4.66263,9.010864 5.72122,22.973309 2.45662,32.401864 -5.63329,16.269605 -12.85865,23.068772 -30.44696,28.650992 -5.547642,1.760724 -10.453192,3.128152 -10.901221,3.038728 -0.448028,-0.08942 -4.414597,-0.676533 -8.814598,-1.304688 z m 10.379997,-7.893652 c 19.214452,-2.778323 31.507332,-13.764257 33.673472,-30.093395 2.13158,-16.068689 -5.23086,-29.779166 -19.8299,-36.92762 -6.0047,-2.94021 -9.231348,-3.618056 -17.22253,-3.618056 -12.309689,0 -18.00568,2.575188 -27.200728,12.297595 -6.849652,7.242497 -9.800311,14.705276 -9.800311,24.786856 0,4.805788 4.395161,16.635579 7.778912,20.93732 3.711281,4.718131 12.968818,10.719549 20.221088,13.108804 2.828173,0.93174 2.426879,0.947672 12.379997,-0.491504 z M 85.14882,54.643151 c -3.425305,-2.000382 -4.333456,-7.860824 -1.67359,-10.799943 2.7838,-3.076064 5.63822,-3.182192 9.668224,-0.359468 2.386668,1.671687 2.881704,2.933192 2.223698,5.666667 -1.391526,5.780652 -5.731058,8.113317 -10.218332,5.492744 z"
       id="path509" />
  </g>
</svg>
