<?xml version="1.0" encoding="UTF-8" standalone="no"?>
<!-- Created with Inkscape (http://www.inkscape.org/) -->

<svg
   version="1.1"
   id="svg2"
   width="176"
   height="218.66667"
   viewBox="0 0 176 218.66667"
   xmlns="http://www.w3.org/2000/svg"
   xmlns:svg="http://www.w3.org/2000/svg">
  <defs
     id="defs6" />
  <g
     id="g8">
    <path
       style="fill:#000000;stroke-width:1.33333"
       d="m 144.97309,213.21148 c -1.29813,-0.75576 -3.51401,-1.0079 -4.92417,-0.56034 -1.43009,0.4539 -4.80859,-0.3381 -7.63976,-1.79095 -7.1118,-3.64948 -20.09061,-17.16368 -21.90353,-22.80708 -0.83391,-2.59587 -2.30799,-6.21977 -3.27574,-8.05311 -0.96774,-1.83333 -2.33913,-6.63333 -3.04754,-10.66666 -0.7084,-4.03334 -1.66535,-8.53334 -2.12655,-10 -0.95802,-3.04662 8.33619,-18.43098 11.97936,-19.829 4.30069,-1.65032 12.04143,-0.781 16.3304,1.83398 2.40106,1.46392 5.55105,2.66168 7,2.66168 1.44895,0 2.63444,0.45772 2.63444,1.01716 0,1.0159 0.54529,1.36306 9.81548,6.2491 2.71268,1.42977 4.69389,3.22977 4.40269,4 -0.2912,0.77022 1.78632,3.80041 4.6167,6.73374 2.83037,2.93334 5.15589,5.93334 5.16782,6.66667 0.012,0.73333 1.49744,4.33333 3.30114,8 6.44313,13.09801 3.67009,31.45211 -5.40587,35.78013 -5.20716,2.48314 -13.34185,2.85066 -16.92487,0.76468 z m 16.69528,-12.22465 c 3.3974,-1.48987 3.71692,-2.18128 3.22874,-6.98683 -0.8077,-7.95056 -3.69692,-18.38477 -5.75168,-20.77165 -0.99666,-1.15775 -1.8121,-2.73583 -1.8121,-3.50684 0,-1.42979 -15.78816,-16.03929 -19.77672,-18.30031 -2.53568,-1.43741 -4.65365,-1.83909 -15.30973,-2.90354 -9.66929,-0.9659 -13.61263,1.63041 -12.33143,8.119 0.43766,2.2165 0.88573,4.88001 0.9957,5.9189 0.10998,1.03888 1.3575,3.04642 2.77226,4.46119 1.94365,1.94365 2.4421,3.92593 2.03956,8.11111 -0.51485,5.35288 -0.1917,5.88569 9.62655,15.87214 7.1086,7.23039 11.13389,10.33947 13.40488,10.35375 1.78508,0.0107 4.1456,0.63705 5.2456,1.39072 2.3398,1.60312 12.25356,0.61691 17.66837,-1.75764 z M 28.810113,199.83495 C 17.815151,199.19432 8.1457429,198.00758 7.1434473,197.17575 2.1106741,192.99891 9.4560687,174.8621 19.023603,167.84196 c 14.397928,-10.56441 27.418032,-11.69626 42.836513,-3.72382 9.290769,4.80398 11.767324,7.42389 16.273293,17.2152 3.853776,8.37412 4.447387,14.03924 1.738454,16.59088 -2.598206,2.44734 -26.50072,3.34178 -51.06175,1.91073 z m 38.414171,-11.31093 c 2.933544,-1.12571 2.647739,-2.89938 -1.301527,-8.07714 -5.099445,-6.68572 -12.215705,-9.78021 -22.49107,-9.78021 -13.370974,0 -24.76502,6.20067 -24.76502,13.47719 0,2.98993 0.686774,3.78305 3.666666,4.23448 5.977502,0.9055 42.601132,1.02437 44.890951,0.14568 z M 72.591609,74.36511 c -4.201449,-2.210156 -5.924942,-5.230278 -5.924942,-10.38243 0,-4.383631 -0.861382,-7.876164 -5.583743,-22.639699 C 60.263631,38.781619 56.084807,31.905976 51.796649,26.063772 43.774508,15.134372 43.117044,13.474507 45.239364,9.5089173 46.381625,7.3745813 49.823479,7.2159797 89.169653,7.4845969 112.64966,7.6448954 133.09055,8.166428 134.59385,8.643558 c 4.69864,1.491287 4.91624,6.884346 0.53022,13.140412 -2.13982,3.05215 -4.71693,7.649364 -5.72692,10.21603 -1.00998,2.566667 -2.59268,5.566667 -3.5171,6.666667 -2.10424,2.50391 -7.9717,20.239922 -9.01191,27.240995 -0.42829,2.882548 -1.54883,5.962114 -2.49009,6.843482 -2.26178,2.11786 -38.190537,3.505578 -41.786441,1.613966 z M 108,62.600454 c 0,-1.503084 -0.88734,-4.448802 -1.97186,-6.546041 -1.92123,-3.715242 -1.87107,-3.848299 1.95308,-5.181407 2.6479,-0.92306 4.2268,-2.589149 4.85268,-5.120624 0.51025,-2.063809 3.32219,-8.711552 6.24876,-14.77276 2.92656,-6.061208 5.00925,-11.332152 4.6282,-11.71321 C 123.12198,18.677534 89.927985,16.807778 84,17.029574 c -1.1,0.04116 -3.2,0.128426 -4.666667,0.193946 -1.466666,0.06552 -6.716666,-0.252873 -11.666666,-0.707529 -6.177628,-0.567412 -9,-0.364833 -9,0.645985 0,0.809948 2.94675,7.629846 6.548336,15.155328 3.601585,7.525483 7.25282,16.982697 8.113854,21.01603 0.861036,4.033334 1.854718,8.383334 2.208182,9.666667 0.566264,2.055956 2.534,2.333333 16.552812,2.333333 C 107.2396,65.333334 108,65.202721 108,62.600454 Z"
       id="path30" />
  </g>
</svg>
