<?xml version="1.0" encoding="UTF-8" standalone="no"?>
<!-- Created with Inkscape (http://www.inkscape.org/) -->

<svg
   version="1.1"
   id="svg83"
   width="217.33333"
   height="265.33334"
   viewBox="0 0 217.33333 265.33334"
   xmlns="http://www.w3.org/2000/svg"
   xmlns:svg="http://www.w3.org/2000/svg">
  <defs
     id="defs87" />
  <g
     id="g89">
    <path
       style="fill:#000000;stroke-width:1.33333"
       d="m 131.67615,259.67615 c -2.40389,-2.40388 -2.58436,-3.72757 -1.75133,-12.84477 2.4222,-26.50973 2.39296,-27.56141 -0.87652,-31.52756 -1.67657,-2.03381 -4.83404,-5.25919 -7.01662,-7.16749 -2.18258,-1.90831 -7.08988,-6.76966 -10.90513,-10.80299 -3.81525,-4.03334 -8.29199,-8.69927 -9.94832,-10.36876 -4.984671,-5.02426 -15.133581,-7.24791 -25.946843,-5.685 -5.077264,0.73385 -16.245977,1.34616 -24.819365,1.36068 -17.091188,0.0289 -17.613179,0.26568 -17.695704,8.02476 -0.0468,4.40042 -0.329678,4.69165 -4.929405,5.07497 -3.693223,0.30777 -5.564964,-0.32884 -7.697765,-2.61813 -3.597631,-3.8616 -11.6530959,-20.77494 -12.795835,-26.86626 -0.7647343,-4.07638 -0.4887932,-4.78632 2.1909631,-5.63684 2.3513599,-0.74629 3.5455819,-0.27042 5.1241399,2.04183 5.199224,7.61577 9.406189,10.95817 12.739645,10.12152 1.804521,-0.45291 21.171492,-1.10559 43.037714,-1.4504 21.866222,-0.34481 48.124695,-1.23024 58.352165,-1.96761 10.22746,-0.73738 32.56472,-1.34595 49.63835,-1.35239 30.97833,-0.012 31.04529,-0.005 32.15813,2.98829 2.81574,7.57484 -2.58632,9.36484 -25.33301,8.39422 -9.82744,-0.41935 -21.91808,-1.1155 -26.86808,-1.54699 -8.39784,-0.73204 -9,-0.60447 -9,1.90691 0,4.39678 4.75003,14.02413 8.50457,17.23705 2.83074,2.42238 3.49543,4.15643 3.49543,9.11892 0,5.53435 -0.59723,6.70819 -6.16725,12.12163 l -6.16726,5.99389 4.16726,2.53426 c 7.34652,4.46768 4.59794,9.24012 -5.32164,9.24012 -5.67124,0 -6.41062,0.3601 -7.52832,3.66666 -0.87998,2.60327 -0.66019,5.24338 0.75785,9.1032 2.61195,7.10955 1.38544,12.03734 -3.21491,12.91675 -2.3891,0.45671 -4.35498,-0.18253 -6.18291,-2.01047 z m 15.59445,-46.55684 c 4.83174,-2.20149 4.2598,-4.3767 -2.93727,-11.17101 -5.0754,-4.79136 -6.9954,-5.82471 -9.66667,-5.20258 -1.83333,0.42698 -3.85105,1.28158 -4.48382,1.89912 -1.61456,1.57571 0.18728,4.02183 2.96251,4.02183 3.13313,0 5.52131,2.59524 5.52131,6 0,2.77023 2.26296,6 4.20394,6 0.55216,0 2.53216,-0.6963 4.4,-1.54736 z m -24.60394,-28.45264 c 0,-3.3 -0.48716,-6 -1.08258,-6 -0.59543,0 -2.43954,1.83537 -4.09803,4.0786 -2.40315,3.25044 -2.69165,4.46875 -1.42082,6 0.87704,1.05677 2.72115,1.9214 4.09803,1.9214 2.07811,0 2.5034,-1.01932 2.5034,-6 z M 57.588012,150.78966 c -1.693258,-1.4728 -3.105052,-3.75298 -3.137317,-5.06707 -0.07696,-3.13424 5.148188,-21.07014 7.443719,-25.55141 0.987354,-1.92748 2.220941,-7.80489 2.741304,-13.06092 C 65.486164,98.520153 65.219612,96.700074 61.999606,89.110261 60.029383,84.466285 57.910771,79.766669 57.29158,78.666669 55.570396,75.608962 48.590151,61.266716 46.161842,55.798496 44.972829,53.121001 43.999999,47.910061 43.999999,44.218629 c 0,-7.523076 -1.779938,-13.358688 -4.313322,-14.141432 -0.927672,-0.286624 -3.336678,-0.88268 -5.353344,-1.324568 -3.01348,-0.660308 -3.666667,-1.520939 -3.666667,-4.831148 0,-5.654781 4.465785,-13.764826 8.622459,-15.6587332 5.393337,-2.4573689 17.409551,-1.9742162 23.097325,0.9287062 6.294822,3.212748 8.849409,6.078796 13.338054,14.964261 2.616035,5.178555 4.928629,7.77808 8.354699,9.391293 2.605561,1.226864 6.435253,4.680686 8.510425,7.675161 4.554857,6.572662 6.890769,6.892335 8.119492,1.111165 0.50655,-2.383333 1.73699,-5.261534 2.73431,-6.396004 0.99732,-1.134469 3.92751,-6.638577 6.51153,-12.231352 4.95107,-10.715942 7.69155,-14.3726444 10.77144,-14.3726444 1.0281,0 8.33524,8.4663524 16.2381,18.8141154 17.49951,22.913336 19.30251,25.67711 18.27666,28.015823 -1.57607,3.593086 -9.79032,9.387264 -12.20634,8.610131 -1.30249,-0.418956 -4.30158,-4.814363 -6.66468,-9.767571 -7.90693,-16.573572 -17.70348,-32.240249 -17.70348,-28.311498 0,0.946344 -1.5,3.687225 -3.33333,6.090849 C 113.5,35.188808 112,37.829976 112,38.654446 c 0,0.824471 -1.5,4.185794 -3.33334,7.469607 -1.83333,3.283814 -3.33333,7.179076 -3.33333,8.656139 0,3.521364 3.46563,10.18146 8.01902,15.410612 2.00707,2.304942 5.82954,7.475594 8.49438,11.490339 5.93577,8.942625 11.93008,11.444839 39.77704,16.604203 4.6444,0.860495 6.82847,3.522614 5.72987,6.984004 -0.98154,3.09256 -2.73631,3.28443 -12.7208,1.3909 -3.88546,-0.73686 -7.36367,-1.04053 -7.72936,-0.67484 -1.09182,1.09182 3.9204,5.92586 10.69758,10.31733 8.52352,5.52305 9.3141,8.45827 3.56299,13.22852 -2.47356,2.05169 -5.62395,3.74648 -7.00085,3.76621 -1.37691,0.0197 -5.95035,3.63587 -10.1632,8.03587 -10.9097,11.39433 -13.37279,10.77772 -19.12727,-4.78838 -5.60094,-15.15074 -7.54255,-19.39369 -10.87268,-23.75971 C 111.99261,110.15336 109.82137,108 109.17508,108 c -1.61803,0 -1.477,4.94451 0.23212,8.13802 1.70136,3.17903 0.59082,7.32161 -2.25559,8.41388 -1.14411,0.43904 -4.81617,-0.13064 -8.16013,-1.26593 -7.638356,-2.59329 -8.649355,-1.66339 -9.394719,8.64116 l -0.576268,7.96683 4.764472,2.27202 c 2.62046,1.24961 5.065355,3.0561 5.4331,4.01444 1.104805,2.87908 -3.090112,5.81913 -8.313305,5.82648 -2.697619,0.004 -10.604761,0.33397 -17.571428,0.73373 -11.378214,0.65291 -12.979826,0.45445 -15.74532,-1.95097 z M 77.10362,140.33334 c 0.658593,-1.28334 1.576749,-4.82051 2.040344,-7.8604 0.650296,-4.26411 0.284401,-6.21678 -1.601263,-8.54548 -1.344378,-1.66024 -3.125223,-2.5975 -3.957753,-2.08296 -2.75695,1.70388 -8.909789,17.3452 -7.634686,19.40836 1.471405,2.38078 9.812581,1.6931 11.153358,-0.91952 z m 68.22971,-10.88093 6,-5.20705 -13.18811,-12.45601 c -8.75084,-8.26507 -15.03142,-13.080426 -18.66666,-14.311846 -3.01321,-1.020707 -6.82766,-2.471611 -8.47655,-3.224231 -4.74076,-2.163865 -5.0785,6.51e-4 -0.44024,2.821347 7.40977,4.50615 17.22489,17.67724 20.06485,26.92538 3.89832,12.69463 5.62428,13.33452 14.70671,5.45241 z M 98.005637,106.33334 c -1.303697,-7.373972 -1.120569,-10.850583 0.601784,-11.4247 0.765917,-0.255307 1.392577,-1.23386 1.392577,-2.174566 0,-1.885505 -17.214706,-10.067405 -21.181807,-10.067405 -1.37042,0 -3.238607,-0.9 -4.151525,-2 -0.912919,-1.1 -2.786386,-2 -4.16326,-2 -2.842071,0 -2.994668,0.438842 -1.281294,3.684758 0.672163,1.273383 1.89386,4.14189 2.714884,6.374458 0.933463,2.538319 2.971286,4.617293 5.438864,5.548701 2.181655,0.823483 4.991952,3.454806 6.285116,5.884844 C 87.112312,106.64499 92.723436,112 96.067845,112 c 2.726667,0 2.867059,-0.41054 1.937792,-5.66666 z M 109.28904,81.666669 c -0.0244,-0.55 -1.78662,-3.4 -3.91613,-6.333334 -2.12951,-2.933333 -7.153258,-10.133333 -11.163894,-16 -4.010635,-5.866667 -8.896733,-12.166667 -10.857996,-14.000001 -3.335308,-3.117752 -3.67628,-3.182426 -5.272133,-1 -2.18524,2.988449 -2.359775,2.967179 -8.205739,-1 -15.342294,-10.411563 -22.814587,4.74427 -8.247936,16.729046 9.865102,8.116555 20.088487,14.126499 28.374787,16.680473 4.4,1.356152 9.499999,3.240102 11.333331,4.186558 3.67464,1.89703 8.02494,2.300172 7.95571,0.737258 z M 67.227754,29.666667 c -1.514154,-6.74551 -8.561088,-14.245189 -8.561088,-9.11111 0,1.16111 -1.246391,3.357501 -2.769759,4.880869 -3.75649,3.756491 -2.405386,6.287051 3.695324,6.921179 2.790939,0.2901 5.835865,0.628316 6.766504,0.751592 1.178837,0.156153 1.442425,-0.888022 0.869019,-3.44253 z m -19.227755,-11 c 0,-3.110624 -1.68551,-3.455456 -3.89239,-0.796328 -1.191968,1.436233 -1.152494,2.030735 0.170073,2.561404 3.090917,1.240203 3.722317,0.940802 3.722317,-1.765076 z"
       id="path787" />
  </g>
</svg>
