<?xml version="1.0" encoding="UTF-8" standalone="no"?>
<!-- Created with Inkscape (http://www.inkscape.org/) -->

<svg
   version="1.1"
   id="svg185"
   width="225.33333"
   height="206.66667"
   viewBox="0 0 225.33333 206.66667"
   xmlns="http://www.w3.org/2000/svg"
   xmlns:svg="http://www.w3.org/2000/svg">
  <defs
     id="defs189" />
  <g
     id="g191">
    <path
       style="fill:#000000;stroke-width:1.33333"
       d="m 103.86325,200.75214 c -0.31966,-0.31966 -6.392223,-1.51628 -13.494593,-2.65916 C 76.988526,195.9399 74.50665,195.08446 56.666666,186.47674 43.904646,180.31912 39.27961,177.45163 27.9404,168.66667 12.135448,156.42191 9.0634461,152.58588 11.718332,148.4101 c 1.32582,-2.08535 4.886798,-2.16004 101.614998,-2.13139 45.1,0.0133 84.7,-0.0439 88,-0.1272 5.15756,-0.13027 6.05669,0.24587 6.4038,2.67853 0.53703,3.76388 -14.10496,20.45356 -23.34507,26.60987 -3.81769,2.54357 -7.27457,5.16399 -7.68196,5.82315 -0.40737,0.65914 -2.54817,1.59545 -4.75733,2.08066 -2.20916,0.48522 -5.68267,2.28407 -7.71892,3.99746 -4.792,4.03221 -19.00925,9.3021 -34.23385,12.68942 -5.47981,1.2192 -25.09752,1.76079 -26.13675,0.72155 z m 34.41649,-12.09287 c 5.30167,-0.92065 12.20758,-3.02391 15.34648,-4.67389 3.13891,-1.64998 8.27675,-4.31698 11.41742,-5.92664 6.93922,-3.55652 24.28969,-18.84515 24.28969,-21.40323 0,-1.50084 -2.53127,-1.6896 -13.66667,-1.01911 C 168.15,156.08899 160.2,156.44916 158,156.43678 c -2.2,-0.012 -32.95,-0.3093 -68.333335,-0.65982 -35.383332,-0.3505 -64.333332,-0.49849 -64.333332,-0.32884 0,0.16966 4.05,3.50732 9,7.41704 23.974974,18.93642 33.555989,23.15568 64.333332,28.33094 5.100465,0.85765 28.808915,-0.66064 39.613075,-2.53683 z M 9.4848967,59.156089 6.3764435,56.978844 7.3466239,34.156089 C 7.9630995,19.65397 8.8666819,10.976201 9.8250688,10.353751 12.1515,8.8427869 18.399781,9.1561488 19.437894,10.83585 c 1.177328,1.904957 1.131436,47.164266 -0.04976,49.075484 -1.303691,2.109415 -6.364368,1.723475 -9.9032363,-0.755245 z M 110.89769,58.870146 c -1.21639,-0.793509 -2.16953,-6.940702 -3.05123,-19.678733 -1.48552,-21.461313 -0.78159,-29.2637912 2.81373,-31.1879459 3.41017,-1.8250698 7.63668,-1.6804929 8.86265,0.303166 1.39,2.2490699 1.96235,42.2561969 0.67396,47.1100069 -1.08891,4.102329 -5.68689,5.809928 -9.29911,3.453506 z m 98.49024,-4.141516 c -1.59063,-1.006136 -1.91092,-5.273664 -1.75636,-23.401561 0.18933,-22.2057751 0.9424,-25.9937356 5.16761,-25.9937356 0.99331,0 2.78226,1.4899354 3.97544,3.3109677 1.7016,2.5969759 2.26296,7.6266049 2.60318,23.3237219 0.41657,19.219682 0.32006,20.092393 -2.43536,22.022367 -3.29976,2.311244 -4.83111,2.460891 -7.55451,0.73824 z"
       id="path357" />
  </g>
</svg>
