<?xml version="1.0" encoding="UTF-8" standalone="no"?>
<!-- Created with Inkscape (http://www.inkscape.org/) -->

<svg
   version="1.1"
   id="svg175"
   width="165.33333"
   height="230.66667"
   viewBox="0 0 165.33333 230.66667"
   xmlns="http://www.w3.org/2000/svg"
   xmlns:svg="http://www.w3.org/2000/svg">
  <defs
     id="defs179" />
  <g
     id="g181">
    <path
       style="fill:#000000;stroke-width:1.33333"
       d="M 58.657767,223.27942 C 46.462176,221.40547 36.884218,219.21024 21.800592,214.83194 5.0126943,209.95892 2.1424356,207.73176 6.4001825,202.88206 8.588308,200.38971 36.390958,192.90983 56.578211,189.38242 76.693106,185.86766 110.44277,188.77799 134,196.05874 c 4.4,1.35989 10.523,3.11885 13.60666,3.9088 5.99567,1.53592 9.72667,4.38746 9.72667,7.43393 0,2.13996 -9.26052,7.2652 -13.12711,7.2652 -1.41166,0 -5.48557,0.85472 -9.05312,1.89939 -27.24374,7.97761 -53.354506,10.26913 -76.495333,6.71336 z m 47.261973,-8.7865 c 15.22214,-2.83913 24.08123,-5.26908 25.93154,-7.11274 1.57774,-1.57208 0.98672,-2.06831 -4,-3.35843 -3.21821,-0.83259 -6.75741,-1.77285 -7.86491,-2.08948 -8.21917,-2.34983 -39.309349,-4.19284 -51.932169,-3.07853 -25.070517,2.21314 -35.515039,3.62444 -39.179348,5.29401 -3.534939,1.61063 -3.444614,1.68788 5.431882,4.64569 4.964628,1.65431 13.785739,3.66168 19.602468,4.46084 5.816728,0.79916 10.866728,1.74388 11.222221,2.09938 1.279923,1.27992 32.887206,0.61293 40.788316,-0.86074 z m -9.331569,-55.09341 c -2.453001,-1.83283 -2.473446,-2.1394 -0.391478,-5.86997 1.507534,-2.70128 1.765717,-4.36712 0.822956,-5.30988 -2.392731,-2.39274 -0.169199,-4.99074 7.662891,-8.95342 7.94805,-4.02134 9.32228,-5.99104 10.85135,-15.55332 0.78735,-4.92381 0.62294,-5.39729 -1.66343,-4.79039 -5.53353,1.46885 -21.69135,13.1214 -22.111721,15.94634 -0.233974,1.57233 -1.440701,3.49511 -2.681614,4.27283 -1.807141,1.13258 -2.827401,0.68788 -5.126035,-2.23436 -1.578405,-2.00663 -5.363112,-4.91151 -8.41046,-6.4553 -3.047347,-1.5438 -7.726974,-4.52706 -10.39917,-6.62947 -5.696287,-4.48169 -9.141461,-4.92946 -9.141461,-1.18813 0,4.86262 5.172842,11.32775 12.950029,16.1852 6.770958,4.22899 7.675754,5.2911 7.383038,8.66667 -0.183478,2.11587 0.374398,5.20915 1.239726,6.87397 3.767876,7.24907 -5.148247,7.202 -13.010481,-0.0687 -8.503243,-7.86348 -22.25012,-32.80103 -22.127775,-40.14094 0.08492,-5.09482 1.767347,-6.54168 7.844894,-6.74651 l 5.053902,-0.17036 0.858303,-7.283569 c 0.472067,-4.005965 1.312343,-10.794953 1.867281,-15.08664 0.933945,-7.222788 0.82054,-7.767197 -1.524969,-7.320724 -2.102791,0.400272 -2.647383,1.993215 -3.200615,9.36185 -0.366666,4.883726 -1.11413,9.325516 -1.661032,9.870642 -0.546901,0.545128 -2.543749,0.285194 -4.43744,-0.577629 -3.345657,-1.524384 -3.418676,-1.822881 -2.580758,-10.549921 1.097713,-11.432855 2.71405,-15.598557 6.769349,-17.446274 1.783768,-0.812739 3.243215,-2.443309 3.243215,-3.623489 0,-1.759572 -0.946354,-1.985898 -5.257939,-1.257459 -5.224684,0.882704 -5.278704,0.847344 -8.54119,-5.590863 -4.659555,-9.195189 -5.86889,-18.413277 -2.85288,-21.745929 1.680101,-1.856491 2.097224,-3.757733 1.490256,-6.792573 -0.683291,-3.416453 -0.211283,-4.799828 2.492762,-7.305852 1.834612,-1.700261 3.335657,-4.223722 3.335657,-5.607694 0,-1.383972 1.447959,-3.176047 3.217687,-3.982389 1.769728,-0.806342 3.592568,-2.6472219 4.050756,-4.0908449 1.461119,-4.6035772 4.620187,-4.5309616 6.841317,0.1572575 2.000361,4.2222314 1.922821,4.5093124 -4.035102,14.9393374 -5.291928,9.264123 -6.074658,11.631795 -6.074658,18.37518 0,5.982134 0.502827,7.933752 2.213198,8.590083 2.654954,1.018801 8.434183,-5.545284 8.45183,-9.599643 0.01639,-3.763261 5.001727,-11.49584 7.900287,-12.253831 1.337265,-0.349702 3.717769,-2.375744 5.29001,-4.502313 1.572241,-2.126571 4.645863,-4.790711 6.830269,-5.920311 3.902367,-2.017992 4.071987,-1.96133 9.723738,3.248272 3.163649,2.916151 7.37879,5.920562 9.366978,6.67647 2.483768,0.944326 3.869098,2.645428 4.427308,5.43645 0.44682,2.234141 2.45931,5.394041 4.47219,7.022001 2.01288,1.627961 4.35538,4.309929 5.20556,5.959929 0.85018,1.65 2.72468,3 4.16554,3 5.73275,0 2.37161,-15.685463 -5.4932,-25.635194 -5.86481,-7.419534 -6.4743,-11.182717 -2.50177,-15.4467247 3.8492,-4.1316312 6.1844,-3.6308059 8.12763,1.7431202 0.92703,2.5636615 2.76587,5.0040945 4.08631,5.4231835 1.32043,0.419091 2.40079,1.676912 2.40079,2.795159 0,1.118248 1.2,3.55873 2.66666,5.423294 1.46667,1.864566 2.66667,4.468771 2.66667,5.787123 0,1.318353 1.2,2.777871 2.66667,3.243372 3.48945,1.107511 3.54714,7.187703 0.10965,11.557766 -1.40636,1.787897 -2.97438,5.47544 -3.48448,8.194538 -1.05173,5.606182 -2.0147,6.459887 -8.47038,7.509227 -5.75293,0.935112 -6.78554,3.53783 -2.22755,5.614588 2.00759,0.914719 3.7653,3.030031 4.17064,5.019134 0.38533,1.890945 1.2104,5.538081 1.83348,8.104748 4.13417,17.029999 3.93031,20 -1.37279,20 -3.19456,0 -3.5358,-0.810876 -5.6467,-13.418296 -1.18536,-7.079555 -2.2204,-9.915038 -3.61933,-9.915038 -1.5807,0 -1.87016,1.803168 -1.4983,9.333334 0.2535,5.133333 1.0035,9.903333 1.66667,10.6 0.66316,0.696667 1.20575,3.546667 1.20575,6.333332 0,4.88148 0.16709,5.06667 4.57143,5.06667 7.14906,0 9.19408,3.00027 8.08663,11.86398 -1.02061,8.1687 -3.74805,15.86714 -7.931,22.38593 -1.49988,2.33744 -4.10968,6.5482 -5.79956,9.35722 -2.92886,4.86855 -10.25563,11.05954 -13.0885,11.05954 -0.731122,0 -2.493994,-0.87023 -3.917489,-1.93383 z M 81.653224,109.19722 C 81.042605,87.132825 80.493361,81.534368 78.730992,79.410842 76.655004,76.90943 71.961585,76.709677 69.07786,79.000001 c -2.928011,2.325496 -6.305541,21.388569 -5.256239,29.666669 0.824054,6.50107 1.027203,6.75662 8.178378,10.28805 4.033333,1.99176 7.933333,3.4305 8.666666,3.19721 0.797447,-0.25369 1.193959,-5.46038 0.986559,-12.95471 z m 19.068176,7.68138 c 6.1304,-6.1304 6.82755,-10.15709 4.07643,-23.545265 -3.21401,-15.640791 -6.308476,-18.724049 -13.284687,-13.236561 -4.131103,3.249527 -4.473757,8.242346 -1.966077,28.647786 1.356455,11.03771 1.865723,12.58878 4.133333,12.58878 1.422447,0 4.590899,-2.00464 7.041001,-4.45474 z M 94.589169,69.225394 c 12.024011,-2.578689 16.269871,-13.460696 7.975191,-20.440201 -4.929143,-4.147604 -5.263562,-4.169675 -11.897695,-0.785192 -6.333248,3.230981 -9.041529,3.344045 -12.175021,0.508274 -2.862762,-2.590762 -10.587357,-1.606085 -13.330575,1.69929 -2.440766,2.940944 -1.995278,12.196323 0.717623,14.909224 2.059656,2.059656 12.294536,4.941645 19.055678,5.365796 1.613904,0.10124 5.958564,-0.464491 9.654799,-1.257191 z m 0.0775,-31.89206 c 0,-0.733333 -0.26459,-1.333333 -0.587978,-1.333333 -0.323388,0 -0.958797,0.6 -1.412022,1.333333 -0.453226,0.733333 -0.188635,1.333333 0.587977,1.333333 0.776612,0 1.412023,-0.6 1.412023,-1.333333 z M 83.999998,32.666667 c 0,-1.1 -0.6,-2 -1.333333,-2 -0.733333,0 -1.333333,0.9 -1.333333,2 0,1.1 0.6,2 1.333333,2 0.733333,0 1.333333,-0.9 1.333333,-2 z"
       id="path496" />
  </g>
</svg>
