<?xml version="1.0" encoding="UTF-8" standalone="no"?>
<!-- Created with Inkscape (http://www.inkscape.org/) -->

<svg
   version="1.1"
   id="svg165"
   width="214.66667"
   height="220"
   viewBox="0 0 214.66667 220"
   xmlns="http://www.w3.org/2000/svg"
   xmlns:svg="http://www.w3.org/2000/svg">
  <defs
     id="defs169" />
  <g
     id="g171">
    <path
       style="fill:#000000;stroke-width:1.33333"
       d="m 198,214.98208 c -1.46666,-0.33131 -3.3171,-1.12864 -4.11209,-1.77187 -2.05269,-1.66085 -2.41701,-59.63278 -0.39009,-62.07506 1.87993,-2.26519 9.73134,-2.35739 11.5086,-0.13515 0.75894,0.94897 1.43041,12.16841 1.55932,26.05444 0.12453,13.41327 0.49529,25.11327 0.82392,26 1.03714,2.7984 -1.41191,9.30777 -4.12008,10.95083 -1.4316,0.86854 -3.80291,1.30812 -5.26958,0.97681 z M 23.063738,196.11811 C 12.761483,195.62117 6.1819089,194.72003 5.1249243,193.66119 1.4486235,189.97844 5.5375934,175.83288 12.483802,168.20357 17.764104,162.404 33.043627,156.05252 41.794791,156.0194 c 9.05428,-0.0343 19.475675,3.86773 25.731982,9.63459 3.193609,2.94377 5.819903,6.02589 5.836209,6.84916 0.01631,0.82326 1.202964,2.99685 2.637019,4.83018 2.733358,3.4944 3.819032,16.46376 1.49826,17.89807 -1.890785,1.16857 -36.801454,1.73724 -54.434523,0.88671 z m 38.161068,-10.60852 c 3.240311,-0.4636 6.155979,-1.63992 6.479264,-2.61404 0.323286,-0.97412 -2.394056,-4.64526 -6.038536,-8.15807 -5.686782,-5.48132 -7.769636,-6.58832 -14.689725,-7.80727 -9.966667,-1.7556 -19.175929,0.32134 -26.169954,5.902 -4.705443,3.75456 -8.156901,10.31508 -6.682113,12.70134 0.831646,1.34564 37.659427,1.3269 47.101064,-0.024 z M 9.9998414,107.45439 c -4.009293,-4.0093 -4.1678457,-6.7358 -0.7204873,-12.389658 5.2719819,-8.64634 18.4286019,-11.975233 28.0100889,-7.087124 6.416707,3.27356 9.435595,3.113771 50.710558,-2.684096 C 97.900002,83.902865 111.4,82.495869 118,82.166853 c 6.6,-0.329014 13.97153,-1.03046 16.38118,-1.558765 4.29776,-0.942268 8.28549,-4.894731 8.28549,-8.212207 0,-0.922589 2.09697,-4.955541 4.65996,-8.962117 2.56297,-4.006575 4.13047,-7.61192 3.48332,-8.011877 -0.64715,-0.399958 -3.99052,2.566498 -7.42972,6.592125 -6.65576,7.790651 -9.84983,8.909561 -15.04531,5.270505 -1.6088,-1.126848 -3.56755,-4.434726 -4.35278,-7.35084 -0.78522,-2.916112 -3.11445,-7.244145 -5.17604,-9.61785 C 114.6987,45.586608 112,40.986517 112,38.714429 c 0,-0.803484 2.9861,-4.526509 6.63577,-8.273389 3.64967,-3.746881 6.96914,-7.778929 7.3766,-8.960108 0.40745,-1.18118 2.60752,-3.347599 4.88904,-4.814265 2.43357,-1.564416 4.75797,-4.595606 5.62341,-7.3333337 1.30494,-4.1281074 2.06,-4.714888 6.54265,-5.0845094 2.78712,-0.2298135 7.58712,0.4785064 10.66667,1.5740442 3.07956,1.0955379 8.22797,2.3532532 11.4409,2.794923 8.7088,1.1971629 19.97959,7.0765129 26.97384,14.0707689 C 200.91454,31.454217 208,46.585596 208,56.539456 c 0,9.419841 -1.96514,13.215584 -10.6742,20.617621 -6.80246,5.781575 -8.4425,8.413431 -12.72716,20.42389 -1.22584,3.436203 -3.21201,6.639623 -4.41372,7.118713 -1.2017,0.47909 -16.28492,1.08873 -33.51825,1.35476 -64.755815,0.99961 -120.615562,2.75769 -129.000162,4.06002 -3.394305,0.52722 -5.055883,-0.0493 -7.6666666,-2.66007 z M 37.862255,99.991785 c 2.364594,-0.0069 2.187218,-0.330053 -1.131006,-2.060358 -5.680319,-2.962032 -17.206297,-2.14041 -17.855866,1.272845 -0.446787,2.347708 0.14064,2.472428 7.849768,1.666668 4.58298,-0.47902 9.594678,-0.874636 11.137104,-0.879155 z M 157,98.493972 C 172.70208,99.397857 175.7753,97.851169 177.8512,88 c 0.38634,-1.833333 3.72787,-7.086355 7.42562,-11.673381 C 188.97456,71.739592 192,67.103424 192,66.024023 c 0,-1.079402 -1.56913,-2.990687 -3.48697,-4.247302 -3.98627,-2.611902 -3.38545,-2.863332 -18.98288,7.9439 -6.70887,4.648468 -9.42023,7.396435 -9.95979,10.094239 -0.53625,2.68128 -2.14729,4.329888 -5.82254,5.958347 -7.18647,3.184237 -16.39523,4.617342 -21.08115,3.280737 -2.36965,-0.675916 -6.98898,-0.578999 -11.33333,0.237781 C 117.3,90.050031 107.7,91.269477 100,92.001608 c -7.699999,0.732129 -18.499999,2.199711 -23.999999,3.261293 -5.5,1.061582 -13.414589,1.961712 -17.587977,2.000291 -4.173388,0.03857 -7.995071,0.728832 -8.49263,1.533899 -0.654841,1.059554 13.590663,1.19596 51.587976,0.493972 C 130.37832,98.757681 155.35,98.398991 157,98.493972 Z m 4.51551,-30.969137 c 8.30631,-8.297175 19.3272,-14.191502 26.53451,-14.191502 2.69996,0 7.17645,3.679403 8.19534,6.736068 0.34628,1.038848 1.26774,1.310211 2.29442,0.67569 2.30533,-1.424775 0.75888,-11.599938 -2.8442,-18.713798 -6.67656,-13.182136 -18.78019,-23.364626 -27.77284,-23.364626 -4.54288,0 -5.00479,0.350094 -5.5734,4.224318 -0.341,2.323376 0.12813,6.710139 1.04249,9.748363 1.23015,4.087487 1.27956,6.196279 0.18997,8.109013 -0.80989,1.421735 -1.85846,6.227 -2.33016,10.67837 -0.66001,6.228544 -1.97829,9.757496 -5.7213,15.315534 -8.3295,12.368596 -5.92795,12.682602 5.98517,0.78257 z M 139.46235,53.9922 c 1.83763,-1.837623 5.61869,-4.503059 8.40239,-5.923192 2.78369,-1.420132 6.08465,-4.143972 7.33549,-6.052977 2.49769,-3.81197 1.774,-8.682698 -1.29008,-8.682698 -1.68773,0 -2.55499,-3.136385 -2.05971,-7.44881 0.21284,-1.853182 -5.66382,-4.55119 -9.91317,-4.55119 -3.80017,0 -4.19484,2.345146 -1.32773,7.889512 1.63417,3.160158 1.65845,4.146039 0.15277,6.205178 -1.73652,2.37484 -1.95333,2.374481 -7.24556,-0.012 -4.45078,-2.007002 -5.82945,-2.149691 -7.48611,-0.774782 -3.02568,2.51109 -2.45956,7.157642 1.3027,10.692092 1.93469,1.817555 3.33333,4.619104 3.33333,6.676863 0,6.353547 3.61055,7.167141 8.79568,1.982004 z"
       id="path635" />
  </g>
</svg>
