<?xml version="1.0" encoding="UTF-8" standalone="no"?>
<!-- Created with Inkscape (http://www.inkscape.org/) -->

<svg
   version="1.1"
   id="svg75"
   width="201.33333"
   height="82.666664"
   viewBox="0 0 201.33333 82.666664"
   xmlns="http://www.w3.org/2000/svg"
   xmlns:svg="http://www.w3.org/2000/svg">
  <defs
     id="defs79" />
  <g
     id="g81">
    <path
       style="fill:#000000;stroke-width:1.33333"
       d="M 26.102974,69.402486 C 20.552009,63.883461 16.486117,61.069378 12.416853,59.930054 6.1039559,58.162553 4.8022058,55.867702 5.5684283,47.856994 5.9109355,44.276148 6.6879075,43.205199 9.3333332,42.667591 15.67483,41.37886 24.185386,35.838218 26.905898,31.227295 c 3.107359,-5.266583 6.604503,-7.587304 9.664179,-6.413196 4.069622,1.56166 2.199458,6.508736 -5.236744,13.852566 C 27.3,42.649897 24,46.431495 24,47.070214 c 0,1.422967 36.004914,0.634719 38.333332,-0.839222 1.077572,-0.682128 1.673883,-4.443976 1.687084,-10.643016 0.0112,-5.273388 0.46123,-10.265223 1,-11.09297 0.653148,-1.003471 9.643793,-1.669948 26.979582,-2 L 118,21.999999 l 0.66666,8.892115 c 0.36667,4.890662 1.09743,9.321423 1.62392,9.846135 1.32748,1.323004 8.60278,-1.873532 13.3438,-5.862847 C 137.70297,31.451919 144,22.431319 144,20.026495 c 0,-2.116113 -3.62306,-1.598646 -4.48218,0.640171 -1.00652,2.622973 -6.76255,2.564795 -9.42258,-0.09524 C 128.819,19.295194 128,16.159654 128,12.549857 c 0,-5.4250911 0.3828,-6.1088788 4.52597,-8.0846185 5.34249,-2.547657 9.83775,-1.744793 14.97572,2.6746971 3.01099,2.5899502 3.64556,4.2546144 3.72995,9.7848634 0.1132,7.415036 -1.75698,11.892177 -8.2073,19.648532 -2.39672,2.881998 -4.35768,5.80494 -4.35768,6.495425 0,1.333696 41.31234,0.346029 48.93351,-1.169869 3.78595,-0.753051 4.56267,-0.36224 6.89177,3.467665 2.07999,3.420266 2.33311,4.956865 1.21923,7.401557 -0.77313,1.696855 -2.19507,3.388097 -3.15984,3.758317 -0.96479,0.370219 -8.86325,0.0974 -17.55217,-0.606265 C 161.11533,54.79579 24.005674,54.651534 24.00158,55.761294 c -8.7e-4,0.235379 3.914928,4.193287 8.701771,8.795351 6.17647,5.938047 8.457727,9.007473 7.857348,10.572037 -1.597057,4.161863 -6.442756,2.242653 -14.457725,-5.726196 z M 107.66666,44.556209 c 2.5494,-0.515841 3,-1.464357 3,-6.314946 0,-3.139361 -0.72,-6.427931 -1.6,-7.307931 -1.68058,-1.680581 -29.594672,-2.336986 -33.624279,-0.790681 -1.550913,0.595141 -2.109049,2.653441 -2.109049,7.777777 0,3.832653 0.3813,7.34976 0.847333,7.815793 0.869435,0.869435 28.099555,-0.09012 33.485995,-1.180012 z"
       id="path774" />
  </g>
</svg>
