<?xml version="1.0" encoding="UTF-8" standalone="no"?>
<!-- Created with Inkscape (http://www.inkscape.org/) -->

<svg
   version="1.1"
   id="svg45"
   width="120"
   height="213.33333"
   viewBox="0 0 120 213.33333"
   xmlns="http://www.w3.org/2000/svg"
   xmlns:svg="http://www.w3.org/2000/svg">
  <defs
     id="defs49" />
  <g
     id="g51">
    <path
       style="fill:#000000;stroke-width:1.33333"
       d="m 45.909613,201.52841 c -2.983046,-1.20729 -8.833046,-5.11796 -13,-8.69037 -6.331732,-5.42832 -7.57628,-7.20847 -7.57628,-10.83675 0,-2.38779 -0.939561,-5.12121 -2.087916,-6.07425 -5.432072,-4.50823 -7.553789,-14.09486 -3.923036,-17.72562 1.451466,-1.45146 1.770034,-3.58693 1.178698,-7.9012 -1.091775,-7.96536 1.522441,-13.08501 11.967732,-23.43746 7.638813,-7.57091 9.344362,-8.5877 18.310634,-10.91613 13.414332,-3.48355 19.923511,-3.31548 27.887222,0.72003 C 82.284576,118.5 86.050727,120 87.035891,120 c 2.561089,0 9.390252,7.01947 14.352499,14.75246 3.32683,5.18442 4.41123,8.56432 4.96628,15.47911 0.61072,7.60821 0.36031,9.10221 -1.78902,10.67384 -2.09361,1.53088 -2.23408,2.25181 -0.86572,4.44291 2.39851,3.84062 1.99218,11.3952 -0.91642,17.03813 -3.555975,6.89888 -10.031241,12.62976 -19.745487,17.47556 -7.49119,3.73687 -9.429928,4.12459 -20,3.99973 -7.488384,-0.0884 -13.658442,-0.92897 -17.12841,-2.33333 z m 24.239782,-8.77027 c 0.732132,-1.9079 -4.408996,-10.09148 -6.339722,-10.09148 -1.398744,0 -2.951716,8.8188 -1.863141,10.58015 1.291343,2.08944 7.352101,1.72839 8.202863,-0.48867 z M 54.698011,181.23585 c 1.667826,-5.18695 4.004997,-10.63191 5.193712,-12.09991 2.15774,-2.66469 2.167272,-2.6644 5.786728,0.18267 1.993985,1.56847 5.753166,6.05733 8.353734,9.97525 2.600568,3.91794 5.691739,7.4932 6.869267,7.94507 3.125548,1.19939 7.691531,-2.31907 10.390481,-8.00668 l 2.357211,-4.96745 -5.157905,-4.41567 c -2.836848,-2.42863 -5.634092,-4.4382 -6.216098,-4.46573 -0.582005,-0.0275 -2.595957,-1.47596 -4.475449,-3.21872 -4.971187,-4.60955 -3.287423,-7.72472 7.034199,-13.01412 4.812368,-2.46615 9.016132,-4.91332 9.341696,-5.43816 1.940277,-3.12798 -9.649854,-17.04574 -14.19497,-17.04574 -0.803381,0 -2.959862,3.15 -4.792178,7 -9.625246,20.22424 -12.312615,21.86371 -18.030839,11 -1.929987,-3.66666 -3.895864,-8.55637 -4.368616,-10.86602 -1.370815,-6.69716 -3.879955,-7.91328 -9.350793,-4.53211 -4.471108,2.76329 -10.104858,10.12507 -10.104858,13.20428 0,0.82027 1.95,2.40125 4.333334,3.51331 16.78598,7.83221 20.494037,13.50345 12.969033,19.83533 -2.295499,1.93153 -4.877599,3.53627 -5.738,3.56607 -0.860401,0.0299 -3.59388,1.78988 -6.074396,3.91128 -5.089731,4.35286 -4.918388,6.63246 0.771704,10.267 2.056079,1.31332 4.522348,3.44828 5.480597,4.74436 3.642292,4.92637 6.420404,2.88393 9.622406,-7.07431 z m -16.498655,-19.06912 3.681391,-3.1666 -5.682868,-2.89919 c -7.634036,-3.89458 -11.36441,-2.7836 -10.121671,3.01448 0.497228,2.31986 1.168903,4.66791 1.492611,5.21791 1.222,2.07625 7.087774,0.88076 10.630537,-2.1666 z m 58.877964,2.01971 C 99.36598,162.73494 97.740181,156 95.101135,156 c -1.67907,0 -6.713159,2.11358 -8.290019,3.4806 -0.749529,0.64978 5.596787,5.75937 7.188884,5.78796 0.733333,0.0133 2.118128,-0.47379 3.07732,-1.08212 z m -27.707967,-36.2734 c 0.910939,-2.1992 1.419416,-4.23538 1.129951,-4.52485 -0.289467,-0.28947 -2.899004,-0.72023 -5.798972,-0.95725 -6.50598,-0.53174 -7.626737,2.25347 -3.333143,8.28327 3.279263,4.60529 5.214974,3.92771 8.002164,-2.80117 z m 3.325954,-27.40821 C 68.092051,95.901573 73.471903,90.724149 82.8977,90.686321 92.474593,90.647881 100.19743,79.439657 97.917153,68.888427 96.612207,62.850204 91.459375,53.145353 87.798647,49.831217 83.783076,46.195834 61.701844,31.678434 57.333333,29.801666 55.5,29.014044 51.729644,27.386458 48.954764,26.184812 34.976395,20.131554 24.68186,27.920233 30.100216,40.449859 c 1.320067,3.052578 3.100713,6.45014 3.956992,7.55014 0.856277,1.1 2.693701,5.275732 4.083164,9.279404 1.575612,4.540056 4.407044,9.055833 7.524103,12 2.748794,2.596328 4.998794,5.297885 5,6.00346 0.0012,0.705576 2.463272,3.790522 5.471258,6.855437 5.905168,6.016928 6.273504,10.250669 1.036419,11.912856 C 52.669625,95.480203 37.98546,81.228691 29.87986,67.563003 18.671121,48.665561 15.409685,35.516922 18.947343,23.488026 22.500479,11.406501 35.667729,7.2163454 50.827873,13.342828 73.163091,22.368884 79.067819,25.82861 81.59182,31.368189 c 0.775187,1.70135 2.849276,3.454742 4.609088,3.896426 4.577384,1.148851 13.039201,9.204442 17.292752,16.462582 3.27128,5.582021 3.65221,7.53971 3.70905,19.061741 0.0582,11.800238 -0.23087,13.285387 -3.56717,18.326887 -4.470075,6.754734 -8.097935,9.205863 -17.21876,11.633685 -9.108045,2.42442 -11.087672,2.38912 -13.721473,-0.24468 z"
       id="path153" />
  </g>
</svg>
