<?xml version="1.0" encoding="UTF-8" standalone="no"?>
<!-- Created with Inkscape (http://www.inkscape.org/) -->

<svg
   version="1.1"
   id="svg195"
   width="193.33333"
   height="217.33333"
   viewBox="0 0 193.33333 217.33333"
   xmlns="http://www.w3.org/2000/svg"
   xmlns:svg="http://www.w3.org/2000/svg">
  <defs
     id="defs199" />
  <g
     id="g201">
    <path
       style="fill:#000000;stroke-width:1.33333"
       d="m 175.33501,211.14453 c -2.42565,-2.42565 -2.2964,-0.85079 -2.01915,-24.60111 l 0.22712,-19.45658 -5.92773,-5.92774 c -3.26025,-3.26024 -8.55743,-7.01534 -11.77149,-8.34466 -3.21407,-1.32934 -7.80739,-3.25319 -10.20739,-4.27524 -2.39999,-1.02206 -4.92865,-3.34443 -5.61925,-5.16084 -1.1606,-3.0526 0.46286,-38.25609 2.00046,-43.378362 1.1217,-3.736747 6.22122,-57.925207 6.93571,-73.700097 0.66031,-14.57855 0.94061,-15.880635 3.92396,-18.2273369 8.45083,-6.64742 24.2666,6.4815449 29.62723,24.5941019 2.60177,8.790903 2.8299,14.17646 3.92541,92.666664 0.63969,45.83333 0.7642,83.7938 0.27667,84.3566 -0.48754,0.5628 -2.7952,1.57069 -5.12815,2.23977 -3.23008,0.92638 -4.71912,0.73912 -6.2434,-0.78517 z m -1.31656,-87.80374 c 0.53448,-12.82923 0.68163,-37.591113 0.32701,-55.026399 C 173.74482,38.782943 173.49504,36.205133 170.695,30.640268 167.53208,24.354188 164.23308,20 162.63329,20 c -1.50323,0 -3.75845,10.403969 -4.62433,21.333333 -0.43574,5.5 -1.37016,13.327305 -2.07651,17.394013 -1.35539,7.803609 -2.93373,24.214065 -5.35417,55.668984 -1.09692,14.25506 -1.08155,19.52732 0.0609,20.90395 0.84032,1.01252 4.64025,3.44728 8.44431,5.4106 3.80405,1.9633 7.48646,4.10653 8.18313,4.76272 0.69667,0.65618 2.28217,1.19306 3.52335,1.19306 1.99698,0 2.3685,-2.68425 3.22844,-23.32587 z M 13.678394,144.44486 C 7.5911513,143.1671 6.6593924,139.60969 6.761532,118.03666 6.8988261,89.038559 8.1402764,77.505276 11.380517,75.125507 c 2.143949,-1.574607 6.896985,-1.790528 26.182166,-1.189405 25.097896,0.782305 27.112679,1.09274 28.370791,4.37133 1.023076,2.666091 1.036298,58.017908 0.01449,60.680688 -1.633205,4.25606 -7.66316,5.47436 -28.614637,5.78126 -11.366666,0.16652 -22.011389,0.0205 -23.654938,-0.32452 z M 54.746308,133.18452 C 56.517514,129.87499 55.618584,88.418584 53.734767,86.534767 51.434246,84.234245 39.735695,83.622129 30.689831,85.328961 18.930652,87.547759 19.191462,86.650428 20.123024,121.68474 l 0.310696,11.68474 4.116473,1.19501 c 2.26406,0.65725 9.645362,1.24912 16.402894,1.31525 11.203372,0.1096 12.419247,-0.12786 13.793221,-2.69522 z"
       id="path372" />
  </g>
</svg>
