<?xml version="1.0" encoding="UTF-8" standalone="no"?>
<!-- Created with Inkscape (http://www.inkscape.org/) -->

<svg
   version="1.1"
   id="svg2"
   width="210.66667"
   height="217.33333"
   viewBox="0 0 210.66667 217.33333"
   xmlns="http://www.w3.org/2000/svg"
   xmlns:svg="http://www.w3.org/2000/svg">
  <defs
     id="defs6" />
  <g
     id="g8">
    <path
       style="fill:#000000;stroke-width:1.33333"
       d="m 31.234276,200.79206 c -3.612185,-5.50358 -6.9931,-10.03326 -7.513144,-10.06596 -0.520042,-0.0327 -2.750666,3.84056 -4.956941,8.60723 -3.411157,7.36983 -4.5229,8.66667 -7.429646,8.66667 -5.2631792,0 -5.4297582,-3.3291 -0.723178,-14.45275 6.559021,-15.50177 7.114283,-16.44984 10.551525,-18.01596 2.83152,-1.29012 3.626032,-0.9364 7.015138,3.1232 2.102084,2.51796 3.821971,5.09267 3.821971,5.72157 0,0.62891 1.850522,3.83311 4.112272,7.12046 4.852474,7.05282 6.581221,6.45844 9.851406,-3.38718 C 48.225211,181.30052 52.296843,176 55.265568,176 c 1.005593,0 4.796182,4.35 8.42353,9.66666 3.627348,5.31667 7.345279,9.66667 8.26207,9.66667 0.91679,0 2.652829,-1.84967 3.857863,-4.11037 1.205033,-2.26071 3.349197,-6.30463 4.764808,-8.98648 3.847236,-7.28856 7.069708,-7.65262 12.540249,-1.41672 2.499456,2.84913 5.336627,7.028 6.304823,9.28638 2.949449,6.87978 8.581089,9.42212 8.581089,3.87384 0,-2.47002 7.64401,-15.54496 10.28658,-17.59498 3.19869,-2.48147 6.0442,-0.16496 11.72102,9.54197 5.18895,8.87269 9.9924,14.45703 9.9924,11.61683 0,-0.84488 2.19048,-6.02616 4.86774,-11.51395 7.21022,-14.77937 10.86284,-14.67639 18.97034,0.53485 6.49203,12.18031 6.8671,12.20051 13.43379,0.72342 6.39231,-11.17234 7.01872,-11.79878 10.64679,-10.64727 4.04085,1.28251 17.8672,26.49955 16.6435,30.35508 -1.57265,4.95501 -6.61233,1.90191 -11.22734,-6.80171 -3.14552,-5.93224 -7.61832,-11.72017 -8.3777,-10.84097 -0.30722,0.35571 -2.56773,4.46404 -5.02333,9.12963 -7.49273,14.236 -11.76613,13.9727 -19.86588,-1.22399 -2.32336,-4.35905 -5.03709,-7.92556 -6.03053,-7.92556 -0.99344,0 -4.04532,4.53152 -6.78196,10.07005 -4.73016,9.57311 -5.17956,10.05014 -9.10672,9.66667 -3.3108,-0.32329 -4.9752,-1.72704 -8.3828,-7.07005 -8.45197,-13.25244 -8.60778,-13.40726 -10.59607,-10.52787 -0.96005,1.39033 -2.28113,3.16168 -2.93574,3.93635 -0.65461,0.77466 -1.90577,3.57666 -2.78035,6.22668 -2.47694,7.50521 -7.98523,10.56654 -11.81731,6.5677 -3.495123,-3.6472 -8.213061,-9.77798 -10.673294,-13.86953 -2.676527,-4.45125 -3.964253,-4.60353 -5.637621,-0.66667 -0.701332,1.65 -3.028252,6 -5.170932,9.66667 -5.74492,9.83101 -8.956577,9.34945 -17.243259,-2.58544 -3.533176,-5.08865 -6.983615,-9.42108 -7.66764,-9.62761 -0.684026,-0.20654 -3.354558,3.95692 -5.934515,9.2521 -3.811706,7.82327 -5.329582,9.70244 -8.099059,10.02691 -2.928928,0.34313 -4.331827,-1.00792 -9.975834,-9.60723 z M 73.333334,105.95274 C 55.7678,104.37117 52.429239,103.3626 54.90096,100.38436 c 1.267053,-1.526706 3.453297,-1.784107 9.700698,-1.142126 9.501097,0.976326 15.153686,-1.656498 18.833279,-8.772046 4.430438,-8.567521 4.761298,-11.885989 1.525486,-15.300346 -1.628232,-1.718075 -3.98219,-3.134138 -5.231018,-3.146807 -1.248828,-0.01267 -3.648828,-0.5463 -5.333333,-1.185845 C 72.711566,70.197644 68.933334,68.92536 66.000001,68.009891 63.066668,67.094423 58.576502,64.767687 56.021856,62.839367 53.467209,60.911048 48.967209,57.787092 46.021855,55.897244 40.778307,52.532789 34.666667,42.978337 34.666667,38.145445 c 0,-1.226026 -1.05,-2.614255 -2.333333,-3.084952 C 31.05,34.589795 28.003247,31.908626 25.56277,29.10234 21.887643,24.876338 20.262863,24 16.102752,24 10.80455,24 6.6666668,20.904914 6.6666668,16.941924 6.6666668,14.180861 10.674719,12 15.749086,12 c 2.158417,0 4.704162,-0.939562 5.657212,-2.0879156 3.467768,-4.1784062 9.070426,-5.9120845 19.105847,-5.9120845 h 9.977902 l 8.421645,6.7847821 c 10.668672,8.59507 13.356412,9.970002 22.959945,11.745311 10.008038,1.850087 23.025913,8.041029 28.044483,13.33718 2.15387,2.273 4.80646,4.132726 5.89464,4.132726 1.08818,0 5.90124,1.91103 10.6957,4.246732 16.22134,7.902499 32.09605,6.594144 44.07714,-3.632733 7.83006,-6.683611 13.92939,-7.96584 15.42823,-3.243392 1.10987,3.496885 -2.13889,6.180865 -16.34516,13.503613 -6.05,3.118527 -11,6.147589 -11,6.731248 0,1.322328 4.54753,1.402552 5.84695,0.103147 0.52692,-0.526928 4.67692,-1.123876 9.22221,-1.326552 17.41805,-0.776674 21.64795,-1.162202 23.17295,-2.112064 1.64122,-1.022257 5.75789,3.695342 5.75789,6.598406 0,0.884615 -1.95,3.64624 -4.33333,6.136947 -6.20694,6.486572 -19.54548,9.427832 -44.33334,9.775872 -23.40425,0.328613 -20.83376,-0.723025 -25.01801,10.235382 -2.02658,5.307534 -3.67658,10.146031 -3.66667,10.752218 0.01,0.606185 1.96802,0.995395 4.35135,0.86491 2.38333,-0.13048 6.92507,-0.176456 10.09273,-0.10216 5.17838,0.121467 5.71642,0.437741 5.33334,3.135087 -0.39764,2.7998 -1.27136,3.05657 -13.09274,3.8476 -24.80146,1.65961 -43.548224,1.79972 -58.666666,0.43848 z M 116.58492,95.499999 c 0.96872,-1.558334 2.08595,-5.023331 2.48273,-7.699995 0.57388,-3.871339 0.12944,-5.405237 -2.17311,-7.500048 -4.43291,-4.032969 -8.26051,-5.63329 -13.47355,-5.63329 -4.410895,0 -4.754322,0.293721 -4.754322,4.066213 0,4.767385 -2.589694,10.244178 -6.530161,13.81025 -1.541744,1.39526 -2.803172,3.005828 -2.803172,3.579042 0,1.231712 5.49728,1.901513 17.078465,2.080881 7.21468,0.111733 8.66246,-0.272947 10.17312,-2.703053 z M 164.00604,71.27907 c 6.37096,-0.166348 13.02591,-0.784102 14.78876,-1.372786 1.76287,-0.588685 4.4052,-0.962897 5.87187,-0.831584 2.79901,0.2506 10,-5.277889 10,-7.677413 0,-1.991559 -10.74949,-1.736809 -29.795,0.706103 -12.20245,1.565174 -18.25021,1.766052 -23.63509,0.785045 -4.35996,-0.794289 -7.82006,-0.836081 -8.70443,-0.105133 -3.0245,2.49982 -13.69554,2.754625 -29.19882,0.697213 -8.799995,-1.167832 -17.349995,-2.498676 -18.999995,-2.957432 -1.667258,-0.463553 -3,-0.241739 -3,0.499304 0,2.406967 14.853979,5.312527 36.000005,7.041895 25.93565,2.121074 27.78529,2.349722 30.2738,3.742357 1.28474,0.718985 2.89378,0.962464 3.57562,0.541064 0.68184,-0.4214 6.45232,-0.902285 12.82328,-1.068633 z M 74.000001,58.666666 c -0.453225,-0.733334 -1.388635,-1.333334 -2.078689,-1.333334 -0.690055,0 -1.254644,0.6 -1.254644,1.333334 0,0.733333 0.93541,1.333333 2.078689,1.333333 1.143279,0 1.70787,-0.6 1.254644,-1.333333 z m 34.605959,-1.235103 c 0.45518,-0.736492 2.40172,-0.765221 4.82175,-0.07116 2.23213,0.640167 4.77404,0.946077 5.64869,0.6798 0.87465,-0.26628 3.24027,-0.845688 5.25694,-1.287576 4.1232,-0.903468 5.00004,-3.419294 1.19173,-3.419294 -1.36121,0 -5.32213,-2.173996 -8.80203,-4.831103 -6.04265,-4.613904 -12.88633,-7.792283 -26.056372,-12.101239 -3.3,-1.079689 -8.251377,-2.903349 -11.003061,-4.052578 -4.586427,-1.9155 -5.20586,-1.905976 -7.438322,0.114373 -1.339392,1.212135 -4.002604,2.20388 -5.918249,2.20388 -6.671268,0 -6.113439,4.46386 1.260704,10.088393 4.767097,3.636042 14.014332,7.654664 24.034325,10.444731 3.081136,0.857941 6.031137,1.988965 6.555557,2.513385 1.388374,1.388375 9.552218,1.168336 10.448338,-0.281612 z M 61.541905,49.32607 C 51.574475,39.603085 50.624489,34.873605 57.503152,29.219272 L 61.697009,25.771878 58.515172,22.09219 C 53.925325,16.784188 47.988935,13.874302 46.51015,16.207597 c -0.624791,0.985821 -1.145169,2.512588 -1.156399,3.392816 -0.06329,4.961013 -9.782565,4.002476 -11.115918,-1.096277 -0.841588,-3.218238 -4.904499,-3.276132 -4.904499,-0.06989 0,1.338836 1.494693,3.838438 3.32154,5.554673 1.826848,1.716233 4.562423,5.683745 6.079056,8.81669 3.884723,8.024767 11.465052,16.106004 19.266071,20.53917 11.391117,6.473349 12.734821,4.948758 3.541904,-4.018711 z"
       id="path30" />
  </g>
</svg>
