<?xml version="1.0" encoding="UTF-8" standalone="no"?>
<!-- Created with Inkscape (http://www.inkscape.org/) -->

<svg
   version="1.1"
   id="svg173"
   width="210.66667"
   height="136"
   viewBox="0 0 210.66667 136"
   xmlns="http://www.w3.org/2000/svg"
   xmlns:svg="http://www.w3.org/2000/svg">
  <defs
     id="defs177" />
  <g
     id="g179">
    <path
       style="fill:#000000;stroke-width:1.33333"
       d="M 98.17819,130.70523 C 78.337431,124.34953 70.733168,98.887921 84.355187,84.421217 c 4.513534,-4.793413 4.220637,-7.341045 -1.14671,-9.974156 -4.92882,-2.417977 -6.844697,-5.672252 -4.794065,-8.143112 1.259653,-1.517789 6.064032,-1.936357 22.953338,-1.999745 11.74813,-0.04409 23.66466,-0.469499 26.48118,-0.945347 3.82379,-0.646025 5.67358,-0.312538 7.30267,1.316554 3.2316,3.231594 2.66824,5.466218 -1.84986,7.337677 -6.38882,2.646337 -6.97276,5.1768 -2.4983,10.826272 2.14557,2.708995 4.79252,7.059093 5.88214,9.666884 2.33688,5.592956 2.60376,17.117896 0.49204,21.248076 C 134.82463,118.35638 124.99402,128 122.65572,128 c -1.16731,0 -2.77299,0.6506 -3.56817,1.44579 -1.93677,1.93677 -16.12676,2.79148 -20.90936,1.25944 z m 18.88803,-8.5862 c 1.98024,-1.03453 5.40045,-3.77833 7.60045,-6.09735 3.71743,-3.91853 3.98654,-4.87807 3.80954,-13.58317 -0.18117,-8.909774 -0.43349,-9.615659 -5.17148,-14.467806 -2.73956,-2.805565 -6.38633,-5.453737 -8.10393,-5.884827 -2.76553,-0.694104 -2.96887,-1.188962 -1.77685,-4.324214 1.72734,-4.543236 0.0811,-5.620627 -8.48691,-5.554259 l -6.493113,0.05029 2.778033,2.957086 c 3.83923,4.086672 3.4925,5.784242 -1.617546,7.919357 -13.168341,5.502083 -17.574142,25.283113 -7.537705,33.842553 2.379692,2.02949 5.588194,4.41871 7.130003,5.3094 3.827958,2.21135 13.489758,2.12103 17.869508,-0.16706 z M 43.290118,52.765904 C 33.434898,49.269696 25.687854,45.652315 24.727416,44.098293 24.331859,43.458271 21.03746,42.22194 17.406528,41.350892 13.775596,40.479845 9.2802519,38.354236 7.4168744,36.627316 2.3261871,31.909427 4.3673482,28.150401 14.143691,24.239137 18.464662,22.510428 22.921079,20.273103 24.046842,19.267304 28.428434,15.35262 47.388663,6.561674 50.633406,6.9403925 56.816104,7.6620221 55.602402,12.236378 47.446787,18.950527 l -7.348657,6.049817 4.869636,0.790233 c 2.6783,0.434628 14.206222,0.228847 25.617603,-0.457293 11.411382,-0.68614 29.747961,-1.505496 40.747971,-1.820792 25.51276,-0.73128 28.89732,-1.726061 32.7168,-9.616045 3.40442,-7.0326246 7.91518,-10.5103362 11.96517,-9.2249231 2.36905,0.7519101 2.66784,1.5577433 1.89492,5.1105706 -0.50469,2.3198485 -1.74096,5.4014095 -2.74725,6.8479135 -1.00631,1.446505 -1.82964,3.396505 -1.82964,4.333333 0,3.391491 2.67737,1.58523 5.63957,-3.804673 1.66489,-3.0294 3.80808,-6.925747 4.76263,-8.6585481 1.82969,-3.3214978 7.06906,-5.3962964 9.63005,-3.8135183 1.96613,1.2151348 0.58335,6.7038864 -2.93303,11.6421714 -1.4979,2.103619 -2.36169,4.186538 -1.91952,4.628708 1.33526,1.335256 5.57751,-3.319142 8.88292,-9.745911 4.07667,-7.9263393 6.97963,-9.5026503 10.68196,-5.8003159 2.51532,2.5153171 2.59823,3.0359716 0.80111,5.0305579 C 186.43523,13.154131 184.57128,20 186.2766,20 c 0.6778,0 2.5136,-2.25 4.07956,-5 3.55075,-6.2354988 9.20836,-12.3333333 11.44296,-12.3333333 0.93016,0 2.85588,0.8648585 4.27938,1.9219078 1.87832,1.3947886 2.22248,2.4300839 1.25484,3.7747466 -10.22339,14.2067189 -13.22699,20.9756219 -10.15115,22.8765959 0.6502,0.401846 1.58256,2.864867 2.07192,5.47338 0.59469,3.169983 1.93381,5.218456 4.03815,6.177259 C 208.42702,45.230105 208.83699,52 203.84392,52 c -1.5457,0 -3.68885,-1.844576 -5.28366,-4.547595 -3.65232,-6.190222 -6.0738,-6.884654 -7.04658,-2.02081 -1.28542,6.427132 -6.26201,5.29745 -12.18034,-2.764928 -6.47507,-8.820804 -10.44228,-9.38755 -4.66667,-0.666667 3.22673,4.872208 3.39445,8.102083 0.47883,9.220915 -3.66926,1.408025 -6.37867,-0.26725 -11.68451,-7.224731 -2.79464,-3.664568 -5.91661,-6.662851 -6.93773,-6.662851 -2.97383,0 -2.16248,1.939016 2.14341,5.122506 4.47568,3.309014 4.99565,5.691365 1.91465,8.772362 -1.8495,1.849503 -2.5118,1.864814 -5.85617,0.135375 C 152.6512,50.291092 149.02488,46.977483 146.66667,44 c -5.20207,-6.568139 -11.01255,-9.843889 -15.06664,-8.494045 -3.16772,1.05472 -34.601312,2.096157 -67.266696,2.228634 -20.143544,0.08169 -24.429772,1.137536 -17.385268,4.282574 1.621436,0.723893 4.014907,3.160422 5.318824,5.414508 1.916466,3.313 2.054166,4.490138 0.718602,6.14298 -1.473843,1.823966 -2.520253,1.736678 -9.695374,-0.808747 z"
       id="path201" />
  </g>
</svg>
