<?xml version="1.0" encoding="UTF-8" standalone="no"?>
<!-- Created with Inkscape (http://www.inkscape.org/) -->

<svg
   version="1.1"
   id="svg83"
   width="192"
   height="141.33333"
   viewBox="0 0 192 141.33333"
   xmlns="http://www.w3.org/2000/svg"
   xmlns:svg="http://www.w3.org/2000/svg">
  <defs
     id="defs87" />
  <g
     id="g89">
    <path
       style="fill:#000000;stroke-width:1.33333"
       d="M 80.666667,136.67802 C 79.933333,136.4334 77.733761,135.882 75.778729,135.45268 70.205117,134.22874 58.452792,123.42302 56.454447,117.68489 52.954325,107.63448 55.14374,95.491818 61.730907,88.421215 66.38012,83.430794 65.856775,80.508554 59.944727,78.447603 56.402253,77.212692 55.908703,76.462041 56.260477,72.844168 56.627559,69.068876 57.18016,68.598157 62,67.955113 c 6.590968,-0.87934 47.133,0.782447 50.33333,2.063124 3.23234,1.293485 3.12806,7.315095 -0.12668,7.315095 -1.35301,0 -3.47774,1.124573 -4.72163,2.49905 -2.13848,2.362993 -2.08735,2.707801 0.9391,6.333333 C 114.04422,92.89833 116,98.151312 116,106.51365 c 0,9.97595 -1.18452,13.10375 -7.57312,19.99736 -6.81785,7.35679 -20.815924,12.48351 -27.760213,10.16701 z m 16.74753,-12.06739 c 2.689973,-1.86416 6.185403,-5.91416 7.767623,-9 5.1183,-9.98241 0.67592,-21.822508 -10.732285,-28.604328 -2.946459,-1.751577 -3.352074,-2.632448 -2.38428,-5.177936 1.425101,-3.7483 0.906136,-4.097454 -7.808522,-5.253494 -6.814914,-0.904031 -9.275796,0.539962 -5.156185,3.025539 4.211981,2.54131 3.581017,5.671123 -1.684872,8.357579 -9.675772,4.93621 -14.899247,15.1658 -12.253389,23.99689 1.739829,5.80703 9.477444,14.26875 13.80806,15.10025 8.236941,1.58154 13.674134,0.86091 18.44385,-2.4445 z M 31.327023,36.262822 C 22.664707,31.594585 15.050481,28.45399 9.7587975,27.366701 7.426136,26.887406 4.8265649,25.662615 3.9819729,24.644945 1.6635441,21.851409 3.7173124,17.44201 7.7555335,16.543186 c 1.9677898,-0.437988 6.2777995,-2.016065 9.5777995,-3.506837 3.3,-1.490772 8.1,-3.471796 10.666667,-4.4022753 2.566667,-0.9304793 6.39132,-2.6063185 8.499229,-3.724087 3.761111,-1.9944165 6.51853,-1.7719002 9.834104,0.7935857 C 48.649459,7.495716 48.423109,13.254664 46,14.184498 c -1.1,0.42211 -2,1.671404 -2,2.776212 0,1.649092 1.133927,1.828118 6.333333,0.999908 3.483334,-0.554857 28.833334,-0.89997 56.333337,-0.766918 28.06569,0.135788 55.43338,-0.373748 62.3856,-1.161504 14.74584,-1.670855 17.62457,-0.741263 17.59398,5.681382 -0.0365,7.680347 -0.0228,7.676255 -28.09124,8.322479 -14.2386,0.327817 -27.08834,0.670784 -28.55501,0.762149 -1.46667,0.09136 -20.51667,-0.06826 -42.333333,-0.354713 L 48,29.922661 v 3.658424 c 0,3.824265 -3.166844,6.476907 -7.579012,6.348403 -1.331543,-0.03879 -5.423828,-1.688781 -9.093965,-3.666666 z"
       id="path340" />
  </g>
</svg>
