<?xml version="1.0" encoding="UTF-8" standalone="no"?>
<!-- Created with Inkscape (http://www.inkscape.org/) -->

<svg
   version="1.1"
   id="svg297"
   width="221.33333"
   height="212"
   viewBox="0 0 221.33333 212"
   xmlns="http://www.w3.org/2000/svg"
   xmlns:svg="http://www.w3.org/2000/svg">
  <defs
     id="defs301" />
  <g
     id="g303">
    <path
       style="fill:#000000;stroke-width:1.33333"
       d="m 84.666665,205.27881 c -6.6,-0.41094 -26.478037,-0.47806 -44.173415,-0.14916 l -32.1734144,0.59799 -2.2704885,-3.4652 c -2.3935768,-3.65307 -1.8541686,-8.20705 1.1066815,-9.34324 0.9466506,-0.36327 6.1738104,-0.14504 11.6159094,0.48495 5.4421,0.62998 15.444728,1.17177 22.228061,1.20397 10.153036,0.0483 12.333334,-0.29848 12.333334,-1.96105 0,-2.77867 -7.314812,-6.98268 -13.888272,-7.98196 -7.608729,-1.15667 -12.778395,-3.3428 -12.778395,-5.40368 0,-2.58798 4.654192,-3.60507 11.922369,-2.60544 10.317376,1.419 15.881912,3.89272 22.261937,9.89656 7.07243,6.65541 1.2638,6.11338 61.455258,5.73464 L 167.9458,192 l 2.69377,-5.28021 c 1.48156,-2.90412 2.69376,-6.53392 2.69376,-8.06622 0,-1.5323 0.84856,-4.42693 1.88569,-6.43252 1.03714,-2.0056 2.31932,-5.958 2.84932,-8.78312 1.43862,-7.66842 4.59011,-10.1046 13.07162,-10.1046 6.4038,0 7.50356,0.43892 10.66666,4.25704 3.35834,4.0538 3.53426,5.02455 3.68468,20.33334 0.18923,19.25572 0.16822,19.44246 -2.52708,22.45616 -1.53377,1.71497 -4.01457,2.35897 -8.87965,2.30509 -3.71319,-0.0412 -13.95124,0.23365 -22.75124,0.61063 -8.8,0.37698 -28.74944,0.95393 -44.33207,1.28212 -15.58264,0.32817 -28.782643,0.78829 -29.333336,1.02248 -0.550692,0.23417 -6.401259,0.0896 -13.001259,-0.32138 z M 192.18898,192.01213 c 4.48042,-4.68832 4.06882,-2.96441 4.38008,-18.34546 0.24335,-12.02434 0.17339,-12.33334 -2.79216,-12.33334 -3.51213,0 -5.95134,4.02498 -9.86673,16.2812 -3.14229,9.8362 -3.31148,14.38547 -0.535,14.38547 1.12303,0 2.38721,0.9 2.80932,2 1.06043,2.76341 1.65064,2.56803 6.00449,-1.98787 z m -85.52231,-49.2492 c -16.227254,-2.65297 -17.931691,-6.49936 -17.007929,-38.38159 0.377914,-13.043072 1.132006,-24.786864 1.675762,-26.09732 2.046005,-4.930893 7.534682,-6.220964 26.202167,-6.158616 23.9259,0.07991 27.08966,0.595687 28.97014,4.722873 1.7022,3.735944 2.39281,47.923263 0.85155,54.485053 -2.0356,8.66634 -2.03587,8.66667 -6.8692,8.66667 -2.56546,0 -5.67503,0.53143 -6.91015,1.18095 -3.29807,1.73437 -19.9816,2.71508 -26.91234,1.58198 z m 31.73895,-15.09626 c 1.48339,-6.93801 0.24638,-40.454339 -1.60356,-43.447593 -1.40272,-2.269641 -11.18765,-3.191089 -23.5208,-2.214956 -10.49013,0.830263 -11.97034,1.268028 -12.85041,3.800447 -1.479167,4.256308 -0.52586,43.807722 1.10321,45.770622 0.9188,1.10709 6.42042,1.8167 16.26062,2.09733 8.17959,0.23327 15.8265,0.55239 16.99314,0.70913 1.55276,0.20864 2.52222,-1.59077 3.6178,-6.71498 z M 81.913392,58.393409 C 62.192606,56.425665 34.085331,48.458304 17.666666,40.181864 8.3571504,35.489056 6.6666666,34.131088 6.6666666,31.345551 c 0,-2.485311 1.2776203,-3.943147 5.2169724,-5.952855 6.665862,-3.400669 32.475718,-12.059363 35.946579,-12.059363 1.452236,0 8.534533,-1.132844 15.738438,-2.517432 C 77.743073,8.091584 107.94856,5.9053627 124,6.4419839 c 13.98196,0.4674354 51.35225,7.3608011 62.66666,11.5595631 34.47744,12.794521 38.1769,20.33501 13.33334,27.176942 -3.3,0.908823 -7.8,2.270362 -10,3.025642 -17.02856,5.846062 -36.52075,9.095381 -61.47944,10.248524 -28.10039,1.298297 -33.065092,1.291986 -46.607168,-0.05924 z M 145.33333,47.235897 C 151.56666,46.193755 160.86666,44.706029 166,43.929841 171.13333,43.153653 177.17593,41.951907 179.428,41.259295 181.68006,40.566683 185.15985,40 187.16088,40 c 4.73154,0 11.50578,-3.532609 11.50578,-6 0,-2.686275 -5.60446,-5.237691 -17.33333,-7.890941 -5.5,-1.244184 -13,-3.132379 -16.66667,-4.195988 -16.37097,-4.748811 -52.4975,-6.12446 -82.666661,-3.147835 -12.832997,1.266161 -47.204954,8.635171 -54.620638,11.710128 -2.465767,1.022445 -2.403457,1.228965 1.054377,3.494625 2.021259,1.324379 5.900545,2.878542 8.620639,3.453695 2.720092,0.575152 9.445622,2.285328 14.945622,3.800391 32.182929,8.865297 64.005671,10.915077 93.333331,6.011822 z"
       id="path325" />
  </g>
</svg>
