<?xml version="1.0" encoding="UTF-8" standalone="no"?>
<!-- Created with Inkscape (http://www.inkscape.org/) -->

<svg
   version="1.1"
   id="svg287"
   width="206.66667"
   height="140"
   viewBox="0 0 206.66667 140"
   xmlns="http://www.w3.org/2000/svg"
   xmlns:svg="http://www.w3.org/2000/svg">
  <defs
     id="defs291" />
  <g
     id="g293">
    <path
       style="fill:#000000;stroke-width:1.33333"
       d="m 37.865013,133.70008 c -4.956156,-0.4538 -5.705438,-1.02516 -8.000001,-6.10039 L 27.333334,122 17.536268,121.33333 7.7392032,120.66667 5.8987314,115.33333 C 4.8864719,112.4 4.3708163,108.99653 4.7528302,107.77006 5.1348441,106.5436 4.7502087,101.53655 3.8980851,96.643297 1.8854914,85.086129 2.672677,84.28868 16.719787,83.654427 22.61567,83.388216 28.16697,82.720853 29.056008,82.171396 30.121039,81.513171 30.391388,79.414757 29.848532,76.019923 27.640154,62.209487 35.235806,40.254007 46.591547,27.623691 54.876,18.409385 78.611755,7.4933615 94.000002,5.8206405 113.42478,3.7091437 129.21437,5.3594657 140.94479,10.727293 c 3.08631,1.412288 8.0728,3.120823 11.08111,3.796746 5.82672,1.309177 15.9741,7.323486 15.9741,9.467781 0,0.708024 2.30808,2.464812 5.12907,3.903973 9.38725,4.789016 17.69583,15.552911 22.65177,29.34574 5.20751,14.492948 7.79855,34.91383 5.41651,42.6895 -3.29709,10.762717 -7.98763,18.464337 -12.29792,20.192607 -2.32801,0.93344 -5.95455,3.10916 -8.05896,4.83492 -3.43533,2.81722 -4.6612,3.04634 -12,2.24284 -9.87471,-1.08114 -15.88512,-3.96156 -22.44203,-10.75509 -7.01746,-7.2707 -9.27205,-13.67621 -9.76225,-27.735685 -0.23099,-6.624734 -1.35989,-14.744744 -2.50868,-18.044465 -1.14878,-3.299721 -2.09743,-7.066604 -2.1081,-8.370849 -0.0349,-4.270352 -7.73545,-17.769744 -12.54561,-21.993122 -8.70585,-7.64384 -15.91772,-9.927168 -29.473799,-9.331609 -8.172028,0.359023 -13.488656,1.303573 -16.666666,2.960995 -15.186863,7.920377 -22.565208,19.712124 -23.698257,37.873516 l -0.700293,11.22484 7.199275,-0.820656 c 23.881455,-2.722283 22.148387,-2.751887 23.839087,0.407214 0.861041,1.608871 1.234414,3.788092 0.829718,4.842714 -0.404696,1.054621 -0.152638,8.038049 0.560127,15.518727 1.578008,16.56164 0.859651,17.84415 -9.74221,17.39309 -3.821977,-0.16261 -9.240556,0.32139 -12.041286,1.07554 -3.63874,0.97981 -7.119154,0.9176 -12.193421,-0.21797 -7.719269,-1.7275 -14.052741,-0.869 -14.052741,1.90484 0,3.14835 5.938781,5.22394 12.011449,4.19797 4.111266,-0.69459 5.951938,-0.46933 6.75275,0.82641 1.501923,2.43016 -2.43724,6.57059 -5.97085,6.27591 -1.536341,-0.12813 -5.254093,-0.45825 -8.26167,-0.73364 z M 179.99772,114.85411 c 2.5688,-1.37766 6.41031,-5.37652 8.64587,-9 3.78725,-6.138535 4.01399,-7.273807 3.86789,-19.366955 l -0.15517,-12.846178 -8.49816,-16.941996 c -6.98507,-13.92548 -9.45013,-17.586772 -13.84481,-20.563326 -2.94067,-1.991732 -8.63719,-5.940146 -12.65892,-8.774251 -11.21643,-7.904171 -18.03023,-9.846573 -37.28033,-10.627456 -20.820768,-0.844596 -39.698103,1.679301 -49.42453,6.608055 -5.915562,2.997641 -17.316226,12.692934 -17.316226,14.725974 0,0.404054 -2.18366,2.73514 -4.852577,5.18019 -2.668918,2.44505 -5.653095,6.764461 -6.631504,9.59869 -2.483872,7.195208 -3.882474,20.486476 -2.155732,20.486476 0.754213,0 1.675057,-2.55 2.04632,-5.666666 1.305941,-10.963075 4.052325,-18.446827 8.50041,-23.163171 2.43453,-2.581352 4.426417,-5.179433 4.426417,-5.773513 0,-0.59408 2.25,-2.769642 5,-4.83458 2.75,-2.06494 5.3,-4.165539 5.666666,-4.668 0.366667,-0.50246 3.666667,-1.933607 7.333334,-3.180324 9.56944,-3.253744 29.277422,-2.922162 37.314592,0.627809 3.31031,1.462145 8.66524,3.824656 11.89986,5.250024 5.93172,2.613879 7.10102,3.838352 14.07758,14.741755 3.83956,6.000717 5.52709,13.571561 9.2933,41.69311 1.62516,12.134743 4.75707,18.949253 11.38251,24.766463 4.0702,3.57368 5.84167,4.20709 11.76603,4.20709 4.25232,0 8.77865,-0.96763 11.59718,-2.47922 z m -137.997719,-2.3658 c 13.2,-0.17524 25.35,-0.3568 27,-0.40346 2.689252,-0.0761 3,-0.75814 3,-6.58485 0,-3.575 -0.369624,-8.348123 -0.821388,-10.606939 l -0.821388,-4.10694 -22.845279,0.445128 c -12.564903,0.24482 -25.695279,0.517943 -29.178612,0.606939 L 12,92 v 11.48884 c 0,11.34706 0.03702,11.47545 3,10.40346 1.65,-0.59695 13.8,-1.22875 27.000001,-1.40399 z"
       id="path464" />
  </g>
</svg>
