<?xml version="1.0" encoding="UTF-8" standalone="no"?>
<!-- Created with Inkscape (http://www.inkscape.org/) -->

<svg
   version="1.1"
   id="svg277"
   width="214.66667"
   height="222.66667"
   viewBox="0 0 214.66667 222.66667"
   xmlns="http://www.w3.org/2000/svg"
   xmlns:svg="http://www.w3.org/2000/svg">
  <defs
     id="defs281" />
  <g
     id="g283">
    <path
       style="fill:#000000;stroke-width:1.33333"
       d="m 191.42858,215.2381 c -1.15239,-1.15238 -2.18092,-3.40238 -2.28563,-5 -0.43572,-6.6477 0.42656,-55.08539 1.01773,-57.1699 1.43007,-5.0425 11.61906,-4.58166 13.30039,0.60156 0.74271,2.28963 1.09759,36.51852 0.5934,57.235 -0.0788,3.23604 -3.74765,6.42858 -7.3878,6.42858 -1.72857,0 -4.08572,-0.94286 -5.23809,-2.09524 z M 6.8944828,208.51484 c -5.8369183,-4.28014 -0.030525,-26.21357 9.9640682,-37.63889 8.796807,-10.05607 15.402263,-12.69876 31.943715,-12.77992 12.724144,-0.0624 13.793212,0.14992 19.333334,3.8404 7.231552,4.8172 18.531068,15.44513 18.531068,17.42968 0,0.80649 1.182475,3.91379 2.627721,6.90511 1.445246,2.9913 2.999247,7.76214 3.453334,10.60185 1.31976,8.25333 -2.085327,10.38373 -17.224475,10.77657 -6.704452,0.17398 -24.432954,0.77398 -39.39667,1.33334 -19.361875,0.72377 -27.7907483,0.58878 -29.2320952,-0.46814 z M 74.286613,197.79631 c 6.913362,-1.19961 7.680618,-3.31977 3.868888,-10.69097 -7.280416,-14.079 -15.142689,-19.08252 -30.009459,-19.0979 -6.985387,-0.007 -18.812708,4.32794 -18.812708,6.89558 0,0.60333 -0.795412,1.09698 -1.767582,1.09698 -2.7582,0 -6.926269,5.4502 -8.84632,11.56754 -2.9707,9.4647 -2.537742,9.7032 17.55935,9.67254 9.746671,-0.0148 19.521219,0.57148 21.721219,1.303 2.2,0.73152 5.8,1.03012 8,0.66354 2.2,-0.36658 5.928976,-1.00122 8.286612,-1.41031 z M 44.666667,74.321349 C 36.194277,65.168312 28.047652,60.570948 16,58.14396 L 8.6666668,56.666668 v -5.24171 -5.241709 L 17.333334,44.017895 C 28.843395,41.142125 35.812015,37.177894 40.666667,30.744287 46.366959,23.19 52.000001,21.878279 52.000001,28.105186 c 0,2.717597 -5.528394,12.367277 -7.938804,13.856993 -0.759104,0.469152 -1.969419,1.95399 -2.689588,3.299638 -1.224306,2.287636 -0.509924,2.454212 10.99283,2.563265 6.766226,0.06415 15.152229,-0.530097 18.635562,-1.320545 l 6.333334,-1.437179 0.02041,-8.200345 c 0.02212,-8.884942 0.587659,-10.409318 4.646249,-12.523721 2.19662,-1.144372 35.230236,-2.48907 45.524016,-1.853145 3.5191,0.217401 4.70107,2.742495 5.69972,12.17652 0.76,7.179654 0.85859,7.324431 4.70441,6.908544 7.79499,-0.84295 20.02097,-15.299605 19.14449,-22.637484 -0.56863,-4.760552 -3.45208,-5.256139 -3.97644,-0.683441 -0.3369,2.937908 -1.20094,3.834834 -4.00651,4.158957 -4.46668,0.516027 -7.04322,-3.645591 -5.8746,-9.488644 1.73322,-8.6661076 7.33703,-11.0169351 15.05049,-6.3137572 4.97638,3.0342829 7.6785,10.7777462 6.30878,18.0790282 -0.88653,4.725596 -8.9796,16.643464 -11.30209,16.643464 -0.69974,0 -1.27226,0.842261 -1.27226,1.871693 0,2.886303 25.28,4.238196 39.94531,2.136147 12.17689,-1.745375 17.38803,-0.763219 17.38803,3.277167 0,5.10943 -3.26962,5.832312 -27.65803,6.114918 -35.15781,0.4074 -72.93319,1.102565 -85.008645,1.564378 -5.866667,0.224365 -20.416667,0.549183 -32.333334,0.721817 -15.490623,0.22441 -21.666667,0.759094 -21.666667,1.87577 0,0.859038 2.738251,4.185594 6.085002,7.392345 4.272953,4.094209 5.960425,6.706252 5.666667,8.771444 -0.646736,4.546706 -5.177503,4.203976 -9.751669,-0.737664 z M 123.92722,44.71165 c 2.14914,-1.32824 1.67282,-9.587801 -0.68912,-11.949744 -3.12329,-3.12329 -30.658117,-3.033415 -34.133111,0.111413 -2.395062,2.167502 -3.458414,10.995478 -1.553844,12.900048 1.101775,1.101776 34.450385,0.128427 36.376075,-1.061717 z"
       id="path603" />
  </g>
</svg>
