<?xml version="1.0" encoding="UTF-8" standalone="no"?>
<!-- Created with Inkscape (http://www.inkscape.org/) -->

<svg
   version="1.1"
   id="svg267"
   width="206.66667"
   height="202.66667"
   viewBox="0 0 206.66667 202.66667"
   xmlns="http://www.w3.org/2000/svg"
   xmlns:svg="http://www.w3.org/2000/svg">
  <defs
     id="defs271" />
  <g
     id="g273">
    <path
       style="fill:#000000;stroke-width:1.33333"
       d="M 27.698932,195.08711 C 21.682624,193.5091 6.6507365,185.12826 5.295805,182.59655 c -1.8376933,-3.43376 -0.7462189,-8.67716 2.0278423,-9.74167 1.2318698,-0.4727 4.5441337,1.47512 8.5335997,5.01834 5.296993,4.70448 8.015625,6.05432 14.4908,7.1949 8.749004,1.54111 18.31862,-0.51932 18.31862,-3.94416 0,-1.8696 -2.984877,-1.94716 -13.666666,-0.3551 -5.421606,0.80805 -5.666667,0.69569 -5.666667,-2.59807 0,-5.64063 5.151419,-7.96189 17.918308,-8.07412 7.928755,-0.0697 11.670398,0.46139 13.409554,1.90333 2.056821,1.70532 10.38767,2 56.542184,2 h 54.12996 l 1.00277,-16 c 1.29599,-20.67841 1.65932,-21.4681 10.25753,-22.29429 8.95055,-0.86003 13.18044,0.0475 14.86144,3.18844 0.75584,1.41229 1.60494,10.73193 1.8869,20.71029 0.40497,14.33212 0.09,18.95963 -1.49939,22.03328 l -2.01201,3.89083 -65.87878,-0.36433 c -65.12699,-0.36018 -65.91342,-0.33267 -68.915284,2.41046 -6.387547,5.83699 -24.319394,9.87783 -33.337584,7.51243 z M 190.66667,159.24478 v -15.4219 L 187,144.24478 c -3.62226,0.41678 -3.68106,0.57782 -4.85585,13.30062 -0.65405,7.08331 -0.82288,13.83331 -0.37517,15 0.49652,1.29394 2.39038,2.12127 4.85585,2.12127 h 4.04184 z M 6.9161624,124.68179 c -1.4505226,-3.18355 -1.2253734,-3.91104 2.3021407,-7.43855 2.6443539,-2.64436 5.2491389,-3.9099 8.0474629,-3.9099 3.65513,0 16.465728,-2.80914 45.400902,-9.9556 4.766666,-1.17728 10.766667,-2.62076 13.333333,-3.20774 2.566667,-0.586977 7.666667,-2.591426 11.333334,-4.454333 3.666666,-1.862907 8.766667,-3.819925 11.333333,-4.348932 2.566662,-0.529007 6.166672,-1.932486 8.000002,-3.118842 C 108.5,87.061536 114.5,83.775605 120,80.945824 c 5.5,-2.829781 10.9,-5.927876 12,-6.884655 1.1,-0.956778 4.1,-2.782134 6.66667,-4.056347 11.70117,-5.809008 14.04899,-12.497764 5.66667,-16.143976 -9.50775,-4.135763 -22.06699,-8.527512 -24.38642,-8.527512 -3.24098,0 -4.119,-3.160965 -1.79833,-6.474185 1.07108,-1.529179 5.08895,-4.865556 8.9286,-7.414171 C 133.54226,27.153707 140,20.270271 140,17.670291 c 0,-0.607395 1.65,-2.970751 3.66667,-5.251901 6.34637,-7.1786948 21.20603,-8.749615 24.03491,-2.5409014 1.57653,3.4601134 0.59206,5.6808874 -5.9236,13.3625104 -6.11916,7.214168 -5.78495,10.28112 1.74709,16.032259 5.8612,4.475361 6.74331,4.727743 16.52401,4.727743 10.89615,0 11.95092,0.616328 11.95092,6.983196 0,8.384343 -23.92518,27.78904 -50,40.55287 -20.35542,9.964143 -21.19311,10.318073 -42.666665,18.027093 -16.021971,5.75189 -23.477391,7.85961 -36.662274,10.36476 -4.764249,0.90521 -9.036887,2.25198 -9.494749,2.99282 -0.457862,0.74083 -7.359839,1.90883 -15.337727,2.59554 -7.977889,0.68671 -17.837369,1.57383 -21.909957,1.97137 -7.0226025,0.6855 -7.4876687,0.54071 -9.0124656,-2.80586 z M 92.666668,106.66667 c 0.453226,-0.73333 2.096036,-1.33333 3.650692,-1.33333 2.848895,0 11.77904,-2.74095 13.01598,-3.99502 0.74399,-0.75431 4.56033,-2.52971 13.00767,-6.051324 3.12088,-1.301068 6.34435,-3.172896 7.16325,-4.159619 0.81891,-0.986724 2.59721,-1.794042 3.95178,-1.794042 2.91854,0 10.0405,-3.859262 17.99364,-9.750432 11.19506,-8.292564 17.22996,-12.239147 18.21699,-11.913167 0.55,0.181646 1,-0.228004 1,-0.910334 0,-0.682329 1.31961,-1.432329 2.93248,-1.666666 4.09353,-0.594759 8.59628,-8.447408 6.37707,-11.121395 -0.89984,-1.084237 -3.08651,-1.97134 -4.85926,-1.97134 -1.77276,0 -5.57538,-1.2 -8.45029,-2.666667 -2.87491,-1.466667 -6.07588,-2.666667 -7.11329,-2.666667 -1.0374,0 -4.70814,-2.703818 -8.15719,-6.008486 -5.52912,-5.297663 -6.16729,-6.480695 -5.39432,-10 1.13891,-5.185399 -0.82095,-5.113235 -5.28727,0.194685 -6.28004,7.463397 -4.32556,10.775573 9.81542,16.633815 3.39961,1.408373 6.86757,4.080337 8.25325,6.358916 2.16197,3.555077 2.20099,4.295204 0.40911,7.760313 -3.02463,5.84899 -27.43251,23.233819 -43.1781,30.754166 C 108.30643,96.041468 101.1,99.570295 100,100.20191 c -2.05117,1.17778 -3.306564,1.70827 -9.666665,4.08483 -2.016667,0.75356 -3.666667,1.89732 -3.666667,2.54169 0,1.61532 4.984763,1.48093 6,-0.16176 z"
       id="path742" />
  </g>
</svg>
