<?xml version="1.0" encoding="UTF-8" standalone="no"?>
<!-- Created with Inkscape (http://www.inkscape.org/) -->

<svg
   version="1.1"
   id="svg257"
   width="208"
   height="205.33333"
   viewBox="0 0 208 205.33333"
   xmlns="http://www.w3.org/2000/svg"
   xmlns:svg="http://www.w3.org/2000/svg">
  <defs
     id="defs261" />
  <g
     id="g263">
    <path
       style="fill:#000000;stroke-width:1.33333"
       d="m 124.90566,199.12788 c -0.47967,-0.47967 -18.53105,-0.92967 -40.114168,-1 L 45.549449,198 42.082865,194.74392 c -2.015306,-1.89294 -3.804386,-5.36859 -4.273473,-8.30211 l -0.806889,-5.046 -9.501252,0.0617 C 14.866517,181.53954 5.7937709,180.1614 3.8932388,177.8714 1.6279256,175.14186 4.4996289,169.28957 9.7272424,165.9822 15.918979,162.06484 15.833345,159.31609 9.4176011,156.04302 5.314284,153.94964 4,152.48844 4,150.01981 4,146.39388 7.3682283,144 12.469961,144 c 5.479272,0 7.509586,1.39632 10.417395,7.16444 1.525569,3.02622 2.999932,5.75214 3.27636,6.0576 0.276428,0.30546 2.810509,-1.94454 5.631293,-5 4.11365,-4.45588 6.040059,-5.55538 9.733511,-5.55538 5.331525,0 7.804813,1.96191 7.804813,6.19107 0,3.48139 -4.594298,7.14227 -8.963341,7.14227 -4.76722,0 -4.137957,6.02868 0.901259,8.63456 3.808192,1.96929 6.702082,8.19213 6.721313,14.45309 0.01527,4.96911 2.589469,7.57901 7.475336,7.57901 5.589657,0 8.524639,-1.43285 16.5321,-8.07096 14.477351,-12.00157 26.051244,-13.45853 46.66667,-5.87456 2.56666,0.94423 7.36666,2.60016 10.66666,3.67984 3.3,1.0797 9.29154,3.23116 13.31451,4.78104 4.02299,1.5499 9.01243,2.81798 11.08765,2.81798 2.07524,0 4.79378,0.54621 6.04119,1.21381 1.24743,0.6676 10.95797,1.61091 21.57901,2.09621 20.46284,0.93504 24.1801,2.07999 20.97662,6.461 -1.5712,2.14875 -3.9596,2.22584 -33.00268,1.06528 -18.72148,-0.7481 -32.21592,-0.76568 -33.56495,-0.0437 -2.61325,1.39857 -9.58061,1.61369 -10.85902,0.33528 z M 120,188.16176 c 0,-2.84214 -8.39389,-4.51307 -19.26434,-3.8349 -12.309136,0.76795 -16.861323,2.29347 -11.388885,3.81662 C 94.255437,189.50972 120,189.52508 120,188.16176 Z M 24,172 c 0,-0.73334 -0.9,-1.33334 -2,-1.33334 -1.1,0 -2,0.6 -2,1.33334 0,0.73333 0.9,1.33333 2,1.33333 1.1,0 2,-0.6 2,-1.33333 z M 168,72.422967 C 164.7,72.178504 156.6,71.113112 150,70.05543 143.4,68.997748 132,67.485262 124.66667,66.694348 117.33333,65.903435 106.83333,64.02927 101.33333,62.529536 95.833333,61.029803 89.233333,59.294382 86.666667,58.673046 80.371396,57.149092 71.522616,53.824202 65.262468,50.630513 62.42654,49.18373 59.476179,47.999999 58.706109,47.999999 c -0.770068,0 -4.334418,-2.062466 -7.92078,-4.58326 C 47.198969,40.895946 39.994549,36.683078 34.775507,34.05481 26.346708,29.810136 24.308585,29.316585 16.536524,29.63807 9.1652971,29.942976 7.4889436,29.59296 5.8968024,27.416541 3.2336472,23.776072 6.2303127,19.473766 11.817978,18.915522 c 4.553167,-0.454892 5.258747,-2.182446 2.249475,-5.507654 -2.135595,-2.359806 -1.39305,-4.2444212 2.513842,-6.3802549 3.510102,-1.9189149 7.388702,0.030917 11.238958,5.6499969 4.070632,5.9407 8.266796,6.528516 37.741024,5.286926 58.945433,-2.483055 58.623583,-2.47934 84.824523,-0.97911 18.69855,1.070654 20.21663,1.665275 20.26045,7.935884 0.0107,1.606722 -0.64026,3.329631 -1.44776,3.828688 -0.80749,0.499059 -7.35445,0.80596 -14.54881,0.682004 -7.19436,-0.12396 -13.42665,0.334454 -13.84953,1.01869 -0.91103,1.474071 4.56726,17.075477 8.15832,23.233711 3.60868,6.188477 13.58546,8.737636 34.73678,8.875565 16.29834,0.10628 16.36808,0.120214 17.94724,3.586094 1.36088,2.986808 1.22638,3.741864 -0.95009,5.333333 -2.44369,1.786866 -16.01955,2.178694 -32.6924,0.943572 z M 135.01936,52.822724 c -0.17268,-2.84719 -1.49947,-7.047063 -2.94841,-9.333051 -1.44895,-2.285987 -3.82222,-6.312959 -5.27393,-8.948826 l -2.63949,-4.792486 -16.4121,-1.081196 C 78.490693,26.739921 49.593181,26.747 47.987437,28.681804 c -1.078257,1.29922 -0.513273,2.369563 2.290642,4.339545 5.01669,3.524638 16.127452,8.311984 19.290958,8.311984 1.409864,0 4.226455,0.860005 6.259091,1.911121 8.651125,4.473671 37.859782,12.942444 50.171872,14.546857 8.52511,1.110924 9.36019,0.650892 9.01936,-4.968587 z"
       id="path881" />
  </g>
</svg>
