<?xml version="1.0" encoding="UTF-8" standalone="no"?>
<!-- Created with Inkscape (http://www.inkscape.org/) -->

<svg
   version="1.1"
   id="svg247"
   width="80"
   height="209.33333"
   viewBox="0 0 80 209.33333"
   xmlns="http://www.w3.org/2000/svg"
   xmlns:svg="http://www.w3.org/2000/svg">
  <defs
     id="defs251" />
  <g
     id="g253">
    <path
       style="fill:#000000;stroke-width:1.33333"
       d="M 8,202.70021 C 6.4432795,201.7126 5.8971123,197.77664 5.5357885,184.9418 5.1293319,170.50378 5.3678036,168.156 7.4525356,166.07128 c 2.2857225,-2.28574 2.6509484,-2.09202 9.1308774,4.84285 3.712456,3.97309 9.389579,10.64277 12.61583,14.82151 4.811456,6.23193 6.580758,7.59769 9.842621,7.59769 5.674431,0 12.551889,-4.72136 15.196696,-10.43251 1.248256,-2.69545 3.349248,-6.10082 4.668871,-7.56749 1.319622,-1.46667 3.871978,-4.31063 5.671901,-6.31989 6.218916,-6.94227 9.453865,-1.86763 10.576387,16.59108 1.104405,18.1608 2.634228,17.36862 -34.598458,17.91561 C 22.667708,203.78293 9.1708872,203.44304 8,202.70021 Z m 14.104491,-8.49172 C 22.782117,192.44262 16.385337,184 14.369755,184 c -1.227282,0 -1.385097,6.87326 -0.227103,9.89094 0.985379,2.56786 7.006168,2.80799 7.961839,0.31755 z m 45.170614,-1.33437 c 1.805839,-1.32046 2.21741,-2.72504 1.562771,-5.33334 C 68.349101,185.59336 67.153619,184 66.181248,184 c -2.307705,0 -5.613289,3.87798 -6.535049,7.66666 -0.5907,2.42794 -0.166647,3 2.223788,3 1.624517,0 4.056821,-0.80664 5.405118,-1.79254 z m -30.89626,-12.6171 c -3.553473,-0.51785 -9.712178,-7.4699 -9.712178,-10.96325 0,-1.37589 -0.660032,-3.95024 -1.466738,-5.72077 -1.067705,-2.34336 -1.063081,-7.52944 0.017,-19.06274 3.479406,-37.15378 5.31809,-54.874273 6.010214,-57.924013 0.406025,-1.789103 1.027409,-6.552915 1.380849,-10.586248 0.353441,-4.033333 1.561232,-15.947419 2.683981,-26.475745 1.122748,-10.528327 2.04136,-24.457216 2.04136,-30.953088 0,-10.2279177 0.3386,-11.9918892 2.52666,-13.1629033 1.83214,-0.980532 2.928467,-0.8680798 3.988432,0.4091007 0.803975,0.9687304 1.103542,2.1195589 0.665704,2.5573966 -1.64696,1.646959 4.725326,77.802325 6.997324,83.625239 1.351527,3.46383 4.721804,44.023611 4.93025,59.333331 0.173233,12.72352 -0.183187,15.38508 -2.690223,20.0892 -4.484396,8.41436 -7.997321,10.20079 -17.372635,8.83449 z m 8.817167,-12.96804 3.196012,-4.69278 -1.559341,-28.96478 c -0.857639,-15.93061 -2.145844,-32.30087 -2.862679,-36.378348 -0.716836,-4.077477 -1.303337,-9.027477 -1.303337,-11 0,-6.287255 -2.250404,-3.856131 -3.776951,4.08026 -1.838024,9.555737 -2.671563,21.162748 -3.688768,51.365998 -0.690777,20.51087 -0.507197,24.14341 1.364516,27 2.922388,4.46013 4.846629,4.14568 8.630548,-1.41035 z"
       id="path1020" />
  </g>
</svg>
