<?xml version="1.0" encoding="UTF-8" standalone="no"?>
<!-- Created with Inkscape (http://www.inkscape.org/) -->

<svg
   version="1.1"
   id="svg157"
   width="106.66667"
   height="213.33333"
   viewBox="0 0 106.66667 213.33333"
   xmlns="http://www.w3.org/2000/svg"
   xmlns:svg="http://www.w3.org/2000/svg">
  <defs
     id="defs161" />
  <g
     id="g163">
    <path
       style="fill:#000000;stroke-width:1.33333"
       d="M 47.972012,208.87977 C 47.62074,208.53888 39.233335,207.88337 29.333334,207.42309 14.569342,206.73666 11.006456,206.17397 9.5151088,204.2931 8.0099033,202.39477 7.8466593,191.32629 8.5668792,140 9.0453767,105.9 9.9404888,75.409119 10.556017,72.242487 c 0.642677,-3.306297 2.680266,-7.386972 4.785971,-9.584856 2.928967,-3.057181 3.485413,-4.581636 2.765269,-7.575821 -2.114339,-8.790908 -2.131691,-21.963496 -0.0388,-29.452618 1.172618,-4.196056 2.56078,-9.42557 3.084802,-11.621142 1.282576,-5.37379 5.164566,-6.0597071 6.206513,-1.096642 0.433608,2.065392 1.718193,7.355258 2.854634,11.755258 1.136442,4.4 2.047022,9.2 2.023511,10.666667 -0.120933,7.544686 -1.347987,19.22673 -2.157019,20.535773 -1.638586,2.651286 0.610756,6.798645 3.67562,6.777142 6.254917,-0.04388 6.785123,-1.458424 5.066889,-13.517978 C 37.951356,43.007721 37.177253,36.799999 37.10318,35.333333 36.974441,32.784309 39.905321,24.064628 41.360731,22.666666 41.742465,22.3 42.101379,19.091705 42.158316,15.537122 42.261636,9.0871515 44.957187,4.9919131 46.860168,8.3938073 50.58473,15.052081 53.531799,48.895918 50.54763,50.740235 c -1.209367,0.747431 -1.322992,2.548032 -0.42941,6.804735 1.0417,4.962278 1.738402,5.848573 4.881782,6.210258 4.278917,0.492344 4.065845,1.575355 3.88666,-19.755229 -0.159991,-19.045547 2.330479,-35.1460471 5.531852,-35.7625753 2.871396,-0.5529802 4.409848,3.4987683 6.358307,16.7455663 2.548901,17.328973 2.922173,24.518017 1.354432,26.085759 -0.805521,0.805521 -1.464584,4.080802 -1.464584,7.278403 v 5.813822 l 5,-0.413822 5,-0.41382 0.07171,-9.333333 C 80.777819,48.866666 80.276312,42.561738 79.623917,39.989049 78.745047,36.523261 79.1722,32.205427 81.272714,23.322382 84.928868,7.8605555 84.905332,7.9194511 87.092692,8.7588196 c 2.72623,1.0461524 4.907314,9.6706744 4.907314,19.4046744 0,4.686428 0.615792,10.616816 1.368428,13.178641 1.136599,3.868762 0.882017,5.709644 -1.502727,10.866248 l -2.871155,6.208384 4.836061,4.836061 4.83606,4.83606 0.193573,44.288892 c 0.357929,81.89327 0.124467,92.0921 -2.146093,93.75238 -1.235091,0.90312 -8.464366,1.49269 -18.375162,1.49854 -8.986442,0.005 -19.351581,0.42844 -23.033642,0.94027 -3.682062,0.51184 -6.982062,0.65169 -7.333334,0.3108 z m 39.027991,-9.07984 c 3.037672,-1.20688 3.677416,-2.28676 3.729331,-6.29503 0.03447,-2.66102 0.55625,-12.63824 1.159524,-22.17157 C 93.081942,152.47938 92.522656,144 90.086,144 c -0.859588,0 -3.598184,2.09989 -6.085772,4.66644 -2.487587,2.56653 -6.955287,6.31653 -9.928223,8.33333 -7.466875,5.06541 -18.375583,13.51924 -29.214553,22.64016 -22.151038,18.63996 -23.024386,19.82672 -15.190784,20.64223 11.578528,1.20537 53.983443,0.84872 57.333335,-0.48223 z M 27.333334,185.92677 c 3.666667,-3.32673 12.489558,-10.5226 19.606423,-15.9908 C 54.056623,164.46778 63.933453,156.3952 68.888265,151.9969 73.843078,147.5986 78.370188,144 78.948509,144 c 0.578321,0 1.051494,-0.82248 1.051494,-1.82772 0,-2.40712 -12.102673,-3.34356 -37.333335,-2.88863 -23.425553,0.42239 -22.026533,0.26669 -24.484878,2.72504 -1.631804,1.6318 -2.028951,6.51009 -2.116684,26 -0.12552,27.88285 0.02372,28.12016 11.268228,17.91808 z m 51.246383,-54.78839 c 0.76968,-0.69044 -16.837039,-17.58472 -22.662645,-21.74561 -2.521056,-1.80065 -5.183737,-3.71697 -5.91707,-4.25849 -2.927393,-2.1617 -18.941586,-16.456001 -23.208097,-20.715595 -7.531843,-7.519632 -8.651686,-6.10839 -9.731008,12.263152 -0.516508,8.791653 -0.816508,19.884823 -0.666667,24.651493 L 16.666667,130 l 15.333334,1.38697 c 13.74378,1.2432 45.103305,1.07583 46.579716,-0.24859 z M 92.443946,125 c 0.631384,-3.69371 1.526461,-47.109904 1.051428,-51.000001 -0.237622,-1.945899 -67.110129,-1.809387 -67.761839,0.138327 -0.27083,0.809413 2.796347,3.954702 6.815949,6.989531 4.019602,3.03483 8.740632,6.872582 10.491177,8.52834 19.916809,18.838363 44.493582,39.486183 47.144287,39.607593 0.835054,0.0383 1.851603,-1.88046 2.258998,-4.26379 z M 88.000003,63.999999 c 0,-1.777777 -0.88889,-2.666667 -2.666667,-2.666667 -2.569587,0 -3.613196,2.609026 -1.777777,4.444444 1.835418,1.835419 4.444444,0.79181 4.444444,-1.777777 z M 24.805557,61.694443 c -1.355355,-1.355353 -2.473664,0.685189 -1.361624,2.484509 0.840046,1.359223 1.154102,1.360275 1.605736,0.0053 0.308793,-0.92638 0.198942,-2.046828 -0.244112,-2.489884 z m 22.264872,1.657149 c 0.144599,-0.72329 -0.787094,-1.517285 -2.070428,-1.764432 -1.45947,-0.281068 -2.333333,0.372895 -2.333333,1.746172 0,2.319719 3.940395,2.336058 4.403761,0.01825 z m 20.017374,0.98174 c 1.233554,-2.13228 -1.068273,-5.58147 -2.949077,-4.419069 -1.024717,0.633309 -1.492639,2.108924 -1.041527,3.284503 0.85758,2.23482 3.001472,2.844348 3.990604,1.134566 z m -0.70131,-17.899547 c -0.183968,-2.414367 0.379754,-4.466979 1.312154,-4.777779 1.022439,-0.340812 1.634689,-3.249876 1.634689,-7.767117 0,-6.698061 -0.228094,-7.222223 -3.14281,-7.222223 -2.985821,0 -3.180351,0.547716 -3.894361,10.964916 -0.80355,11.723529 -0.554987,13.035084 2.470372,13.035084 1.360913,0 1.845924,-1.267315 1.619956,-4.232881 z M 26.666668,33.333333 c 0,-7.316843 -1.393786,-8.520892 -3.785981,-3.270596 -2.664113,5.847093 -1.837538,9.937262 2.008203,9.937262 1.244444,0 1.777778,-2 1.777778,-6.666666 z m 22.407451,1.794657 c 0.224099,-2.300928 -0.09737,-6.131685 -0.71438,-8.512794 -1.059491,-4.088706 -1.248848,-4.202276 -3.407452,-2.043672 -2.29973,2.299729 -3.260554,12.675763 -1.350638,14.585679 2.133924,2.133924 5.083741,-0.03793 5.47247,-4.029213 z M 90.41,32.32183 c 0.354831,-4.894252 0.05297,-5.655164 -2.243483,-5.655164 -3.116721,0 -4.767602,4.090228 -3.572602,8.851487 1.414856,5.637234 5.331716,3.484661 5.816085,-3.196323 z"
       id="path1159" />
  </g>
</svg>
