<?xml version="1.0" encoding="UTF-8" standalone="no"?>
<!-- Created with Inkscape (http://www.inkscape.org/) -->

<svg
   version="1.1"
   id="svg185"
   width="218.66667"
   height="209.33333"
   viewBox="0 0 218.66667 209.33333"
   xmlns="http://www.w3.org/2000/svg"
   xmlns:svg="http://www.w3.org/2000/svg">
  <defs
     id="defs189" />
  <g
     id="g191">
    <path
       style="fill:#000000;stroke-width:1.33333"
       d="m 93.333335,204.35936 c -9.708262,-0.63932 -35.623121,-4.61206 -42.666668,-6.54079 -8.846234,-2.42236 -11.015108,-3.24291 -36,-13.61992 -8.2482408,-3.42576 -8.6864308,-3.83571 -9.0760265,-8.49095 -0.4004399,-4.78481 -0.2261246,-4.98365 7.9999995,-9.1259 8.223551,-4.14095 18.305995,-7.31858 35.742694,-11.26483 4.766667,-1.07879 10.166667,-2.51965 12,-3.20193 1.833334,-0.68228 8.133334,-1.60098 14,-2.04152 5.866667,-0.44056 16.366667,-1.31802 23.333334,-1.94991 7.337982,-0.66557 17.358552,-0.63944 23.819612,0.0621 6.13412,0.66607 13.03412,0.8751 15.33334,0.46448 2.59772,-0.4639 6.94961,0.28128 11.49489,1.96828 4.02299,1.49316 8.94475,2.71483 10.93727,2.71483 1.99252,0 5.00098,0.53065 6.68549,1.17921 1.68451,0.64858 7.56273,2.52063 13.06273,4.16014 16.88798,5.03416 21.26164,6.56988 26.89367,9.44313 5.287,2.69721 5.40883,2.9134 4.68457,8.31308 -0.80786,6.02315 -4.24713,9.77933 -10.08017,11.00907 -1.92393,0.4056 -5.09064,1.598 -7.03712,2.64974 -1.94648,1.05176 -4.64648,1.90623 -6,1.8988 -1.35352,-0.008 -6.06095,1.14774 -10.46095,2.56703 -4.4,1.41929 -12.2,3.28221 -17.33333,4.13981 -5.13333,0.85762 -11.13333,2.12232 -13.33333,2.8105 -4.0075,1.25354 -45.22709,3.43324 -54.000005,2.85552 z M 131.33334,190.4879 c 3.66666,-0.63417 14.46666,-2.32865 24,-3.7655 14.58946,-2.19891 21.7421,-3.86811 37.66666,-8.79023 2.7699,-0.85615 1.88356,-3.08487 -2.03208,-5.10972 -4.56113,-2.35865 -21.72024,-6.43472 -40.30125,-9.57337 -23.34385,-3.94319 -81.819508,-2.6506 -90.51054,2.00069 -1.685212,0.90189 -4.959745,1.81781 -7.276741,2.03536 -7.878495,0.73975 -26.212722,6.32144 -26.212722,7.98025 0,1.95251 5.599033,4.71084 9.729404,4.79314 1.615495,0.0321 5.337263,0.97225 8.270596,2.08902 17.589221,6.69654 68.078223,11.55534 86.666673,8.34036 z M 82.000001,122.65304 c -16.916787,-3.21372 -22.176445,-4.52928 -30,-7.50374 C 34.783715,108.60382 27.591015,103.83706 14.364856,90.207679 4.5365621,80.079755 3.1254107,77.458873 5.3063797,73.383696 c 1.1420352,-2.133913 2.8032764,-2.725125 7.7405323,-2.754748 3.457532,-0.02074 34.186422,-0.361692 68.286423,-0.757661 34.100005,-0.395969 75.200005,-0.871047 91.333335,-1.055727 16.13333,-0.184681 30.41444,0.194022 31.73579,0.841562 1.97134,0.966082 2.25138,2.184638 1.56065,6.790851 -0.70631,4.709943 -0.37353,6.037286 2.06739,8.246286 4.70977,4.262293 6.63617,9.342285 6.63617,17.499901 0,6.49611 -0.54435,8.2281 -3.58279,11.39955 -2.82278,2.94635 -4.78242,3.73962 -9.23809,3.73962 -6.17396,0 -8.19708,-1.44128 -13.24279,-9.43418 -1.73888,-2.75458 -3.72996,-5.35958 -4.42461,-5.7889 -0.69465,-0.42932 -7.25724,2.22024 -14.58355,5.88792 -7.32629,3.66767 -14.43226,6.68758 -15.79102,6.7109 -1.35876,0.0233 -3.57582,0.87993 -4.92679,1.90358 -1.35097,1.02365 -4.95097,2.26725 -8,2.76355 -3.04903,0.49631 -8.81975,1.7397 -12.82383,2.76309 -7.78505,1.98976 -36.591973,2.31111 -46.053199,0.51375 z m 44.340169,-10.09897 c 5.62526,-1.16193 11.74997,-2.87624 13.61046,-3.80958 1.86048,-0.93334 5.29072,-2.05927 7.62273,-2.50207 10.2146,-1.93955 38.106,-21.113137 35.90154,-24.680049 -0.73634,-1.191411 -15.66207,-1.400907 -61.22431,-0.859339 -33.137825,0.393888 -69.139616,0.729761 -80.003981,0.746385 -14.709795,0.02251 -19.620349,0.437095 -19.232318,1.623738 0.841923,2.574698 17.3496,15.531558 20.98571,16.471663 1.833333,0.474002 4.733129,1.945852 6.443992,3.270772 11.972683,9.27186 52.795757,14.51 75.896177,9.73848 z m 78.7425,-10.21303 c 0.24377,-1.27909 -0.84096,-4.129094 -2.41051,-6.333334 -5.28165,-7.417387 -10.18732,-3.547338 -6.17333,4.870094 1.69079,3.54561 2.90757,4.5359 5.17553,4.21214 1.63079,-0.2328 3.16452,-1.46981 3.40831,-2.7489 z M 95.033967,32.840145 C 91.342539,25.242073 91.191181,25.221236 48.283237,26.403958 8.7170436,27.494568 4.4874769,26.855898 6.2648698,20.059137 6.7995589,18.014484 9.6608401,17.645697 30.981856,16.873401 44.243619,16.39303 62.047969,15.92901 70.547077,15.842246 91.529052,15.628049 93.644833,15.07529 95.505264,9.3217876 97.679819,2.596833 100.98089,2.5566428 103.5996,9.2232396 c 2.69452,6.8595724 5.36752,6.9218424 8.01317,0.1866773 1.1357,-2.8912121 2.87007,-5.5657183 3.85415,-5.943347 2.5196,-0.9668613 5.86642,2.7880588 5.86642,6.5817561 0,5.81135 2.82697,6.159028 46.41362,5.708226 l 40.91971,-0.423219 0.41324,3.576989 c 0.2764,2.392423 -0.39012,4.006938 -2.01265,4.875291 -1.33426,0.714067 -20.04678,1.630725 -41.5834,2.03702 -42.10842,0.794387 -43.41811,1.029823 -44.40937,7.983272 -0.31192,2.188025 -1.33432,2.860761 -4.34771,2.860761 -3.10527,0 -4.10542,-0.706123 -4.72132,-3.333333 -1.19757,-5.108383 -5.58764,-4.932293 -8.00546,0.321104 -2.91853,6.341337 -5.60824,6.097058 -8.966033,-0.814292 z"
       id="path511" />
  </g>
</svg>
