<?xml version="1.0" encoding="UTF-8" standalone="no"?>
<!-- Created with Inkscape (http://www.inkscape.org/) -->

<svg
   version="1.1"
   id="svg205"
   width="224"
   height="246.66667"
   viewBox="0 0 224 246.66667"
   xmlns="http://www.w3.org/2000/svg"
   xmlns:svg="http://www.w3.org/2000/svg">
  <defs
     id="defs209" />
  <g
     id="g211">
    <path
       style="fill:#000000;stroke-width:1.33333"
       d="M 63.333333,239.13914 C 58.701136,237.80896 54.021856,237.50572 48,238.14547 43.233333,238.65186 34.533333,239.23002 28.666667,239.43024 9.8037455,240.07403 4,238.15458 4,231.27234 c 0,-3.345 5.5029437,-7.25322 10.26712,-7.29174 3.327671,-0.0269 13.977364,-3.83352 16.399547,-5.86182 2.913273,-2.43955 23.784496,-12.78544 25.79262,-12.78544 0.939658,0 3.470725,-1.83906 5.624592,-4.08679 L 66,197.15976 65.985844,174.24655 c -0.0078,-12.60227 -0.790151,-31.01321 -1.738588,-40.91321 -2.709696,-28.28441 -4.183044,-52.400255 -3.39504,-55.570195 1.005811,-4.046119 3.374587,-4.655607 17.586571,-4.525037 18.560169,0.170516 17.938858,-0.597122 17.166282,21.209187 -0.355021,10.020655 -1.274953,24.819375 -2.044294,32.886045 -3.417024,35.82809 -4.541948,57.988 -3.587316,70.66666 2.27847,30.26084 0.816132,39.78412 -6.331044,41.23006 -8.263166,1.6717 -14.264492,1.64484 -20.309082,-0.0909 z m 18.02725,-9.47247 c 2.597153,-3.29801 2.808636,-4.73911 2.103437,-14.33333 -2.344679,-31.89938 -2.403117,-44.79174 -0.270136,-59.59572 2.388113,-16.57475 4.703751,-57.11592 3.775539,-66.1005 -0.701691,-6.79197 -3.294948,-8.629414 -11.353698,-8.044627 -6.963345,0.505299 -6.762213,-1.859617 -3.481061,40.930197 3.219663,41.98794 3.712103,75.11547 1.162261,78.18785 -4.209158,5.07173 -17.528332,13.98866 -30.963592,20.72954 C 34.45,225.3954 28,229.11392 28,229.70348 c 0,0.58956 6.922412,0.65807 15.383136,0.15224 10.110321,-0.60445 16.394364,-0.428 18.333333,0.5148 4.681659,2.27639 6.626952,2.74535 11.853424,2.85755 3.831364,0.0823 5.534436,-0.69628 7.79069,-3.5614 z m 50.752927,-4.86323 c -1.24184,-1.49633 -1.54769,-4.0455 -0.98122,-8.17833 1.45592,-10.62205 6.46816,-17.14405 19.48942,-25.35983 6.40154,-4.03908 8.34836,-4.59625 16,-4.57921 12.2553,0.0273 24.179,4.72715 30.39521,11.9806 3.4908,4.07328 8.5062,15.06887 8.61475,18.88667 0.22869,8.0433 -0.86916,8.30006 -38.00768,8.88929 -29.94924,0.47516 -33.90736,0.29245 -35.51048,-1.63919 z m 62.55316,-11.62697 c 0,-4.07983 -9.15175,-12.63147 -15.3634,-14.35596 -7.0156,-1.94768 -11.8363,-1.84601 -20.38671,0.42999 -8.30661,2.21108 -12.7192,4.858 -15.71125,9.42445 -4.5135,6.88845 -2.99839,7.32505 25.41952,7.32505 25.63521,0 26.04184,-0.0441 26.04184,-2.82353 z m -80.44445,-75.39869 c -2.57529,-2.5753 1.31639,-13.10068 8.65393,-23.4053 3.17754,-4.46245 6.48727,-3.40441 9.10274,2.9099 2.27932,5.50275 4.70351,5.08906 7.51458,-1.28238 1.29418,-2.93333 3.13006,-5.33333 4.07973,-5.33333 0.94968,0 3.24173,2.4 5.09347,5.33333 1.85173,2.93333 4.21585,5.33333 5.2536,5.33333 1.03774,0 2.94568,-2.4 4.23986,-5.33333 3.30303,-7.48648 7.0723,-7.25867 11.0304,0.66667 1.6481,3.3 3.54435,6 4.21388,6 0.66954,0 2.75696,-3.03831 4.63872,-6.7518 4.11736,-8.12521 7.15487,-8.32623 9.67315,-0.64016 2.00524,6.1202 4.09856,8.99711 5.78719,7.95348 0.66072,-0.40835 2.40493,-3.10174 3.87601,-5.98532 4.32172,-8.47125 7.0402,-7.21757 13.40668,6.18276 5.75523,12.11372 5.91763,15.24104 0.79152,15.24104 -2.41173,0 -3.74951,-1.27916 -5.57768,-5.33333 C 204.67725,130.4 202.82981,128 201.89457,128 c -0.93524,0 -3.48804,2.16869 -5.6729,4.81931 -2.18487,2.65063 -4.7343,4.56537 -5.66539,4.25501 -0.93111,-0.31037 -2.35505,-2.92429 -3.16433,-5.8087 -1.8518,-6.60011 -5.10415,-7.45552 -7.3875,-1.94302 -2.3792,5.74388 -5.9455,7.43591 -8.97389,4.25763 -1.30015,-1.36449 -3.0022,-3.5853 -3.78235,-4.93513 -1.942,-3.36008 -5.31017,-1.82243 -8.73945,3.98978 -3.48897,5.91335 -5.52431,5.92055 -8.99876,0.0318 C 147.99563,130.1 145.89563,128 144.84333,128 c -1.05229,0 -3.15229,2.1 -4.66666,4.66667 -1.51438,2.56666 -3.61438,4.66666 -4.66667,4.66666 -1.05229,0 -3.15229,-2.1 -4.66667,-4.66666 C 129.32896,130.1 127.47723,128 126.72836,128 c -0.74887,0 -2.87663,2.4 -4.72836,5.33334 -3.16799,5.01841 -5.73624,6.48598 -7.77778,4.44444 z M 82.827649,58.965322 C 78.705775,58.029583 72.372471,56.632257 68.753639,55.860153 65.134807,55.08805 58.701916,52.703655 54.458328,50.561498 50.214739,48.419341 46.108659,46.666667 45.333707,46.666667 43.212433,46.666667 21.383883,30.553791 15.614073,24.72894 8.4711585,17.517884 7.4512855,15.210332 9.3650752,10.590035 10.238685,8.4809548 11.938929,6.4935952 13.143395,6.1736801 14.347861,5.8537651 58.233333,5.5920029 110.66667,5.5919862 c 105.65502,-3.36e-5 102.29728,-0.2687955 99.9263,7.9983158 -1.10516,3.853457 -0.81481,4.692129 2.75244,7.950301 2.19335,2.003325 4.00919,4.726231 4.03518,6.050903 0.026,1.324672 0.84705,3.851841 1.82458,5.615932 3.78515,6.830748 -3.09018,21.459229 -10.08576,21.459229 -6.18364,0 -14.07238,-6.261457 -17.21848,-13.666666 -2.02837,-4.774309 -3.94344,-4.626807 -13.07044,1.006697 -4.16429,2.570349 -10.70473,5.870349 -14.5343,7.333333 -3.82958,1.462983 -10.11286,3.865408 -13.96286,5.338723 -16.63244,6.364884 -49.2323,8.434955 -67.505681,4.286568 z M 134.9534,48.79349 c 3.14229,-1.030248 9.11755,-2.833717 13.27833,-4.007709 6.72418,-1.89727 13.10724,-4.950819 29.1016,-13.921698 7.34032,-4.117024 15.24299,-11.519555 14.16314,-13.266797 -0.71615,-1.158751 -15.6417,-1.423722 -58.56212,-1.039643 -31.68056,0.283496 -68.251017,0.574003 -81.267683,0.645569 C 33.083493,17.305384 28,17.709343 28,19.083879 c 0,2.892245 7.523259,9.279307 17.04002,14.466556 26.136531,14.246099 23.645392,13.350122 40.900667,14.710555 8.81565,0.69504 16.285403,1.520652 16.599443,1.834693 1.43632,1.436326 27.22008,0.400472 32.41327,-1.302193 z m 74.90395,-6.902539 C 212.02165,36.25086 207.58881,28 202.39433,28 c -2.45924,0 -2.6664,0.589324 -1.98721,5.65304 1.01687,7.581341 7.52512,13.254678 9.45023,8.237911 z"
       id="path233" />
  </g>
</svg>
