<?xml version="1.0" encoding="UTF-8" standalone="no"?>
<!-- Created with Inkscape (http://www.inkscape.org/) -->

<svg
   version="1.1"
   id="svg195"
   width="456"
   height="225.33333"
   viewBox="0 0 456 225.33333"
   xmlns="http://www.w3.org/2000/svg"
   xmlns:svg="http://www.w3.org/2000/svg">
  <defs
     id="defs199" />
  <g
     id="g201">
    <path
       style="fill:#000000;stroke-width:1.33333"
       d="m 136.94999,214.84322 c -10.07765,-0.93897 -11.07672,-1.78733 -12.39856,-10.52826 -1.05767,-6.994 1.12714,-12.77004 5.60143,-14.80867 1.95337,-0.89001 11.05383,-1.51464 22.24321,-1.52671 20.66822,-0.0223 26.6475,-1.41765 16.833,-3.92828 C 144.81468,177.8059 128,170.44576 128,166.00444 c 0,-3.2798 3.94462,-6.12791 6.55344,-4.73171 3.41373,1.82697 20.66977,7.80544 30.77989,10.66388 4.76667,1.34768 11.77854,3.49209 15.58192,4.76536 7.8113,2.61501 11.08475,2.00187 11.08475,-2.07627 0,-4.47637 4.04684,-15.59148 6.45532,-17.73026 3.22188,-2.86112 11.75609,-4.8795 20.66771,-4.888 5.76268,-0.005 8.67186,-0.70136 11.17981,-2.67411 4.18712,-3.29359 13.88584,-3.62084 16.93525,-0.57143 1.43162,1.4316 2.09524,4.5887 2.09524,9.96767 0,7.29929 -0.33974,8.18159 -4.66666,12.119 C 242.1,173.18418 240,175.83309 240,176.73502 c 0,2.34416 9.54945,3.2895 12,1.18792 1.1,-0.94334 3.639,-2.12421 5.64221,-2.62413 5.42066,-1.35279 7.06143,-8.38848 4.13964,-17.75091 -2.68096,-8.59068 -1.87345,-9.49698 8.48882,-9.52749 6.84296,-0.0201 6.95544,0.0452 8.2694,4.80396 2.01929,7.31328 4.9751,9.84229 11.50332,9.84229 3.50162,0 6.29024,-0.79542 7.37626,-2.10401 2.81012,-3.38599 14.51059,-8.76449 17.20562,-7.90913 7.00532,2.22341 1.87812,8.49316 -12.90814,15.78458 -4.61109,2.27384 -8.3838,4.96912 -8.3838,5.98954 0,1.0204 1.87699,4.22517 4.1711,7.12172 4.15389,5.2447 4.20054,5.26276 11.30916,4.3746 13.51073,-1.68807 17.53812,1.94529 16.7812,15.13934 -0.3601,6.2769 -0.86664,7.34392 -4.54967,9.58371 -2.27947,1.38623 -7.79712,2.84916 -12.26147,3.25097 -12.17798,1.09608 -161.4046,1.91696 -171.83366,0.94524 z M 218,205.37818 c 82.63388,0.0184 92.88975,-0.0788 95.74264,-0.90681 1.79479,-0.52093 2.30492,-1.77551 2,-4.91867 l -0.40931,-4.21937 -28,0.56235 c -15.4,0.30929 -36.4,0.68044 -46.66666,0.82476 C 230.4,196.86476 206.7,197.3963 188,197.90165 c -25.73685,0.69552 -35.24976,0.5128 -39.14231,-0.7518 -4.29958,-1.39683 -5.71833,-1.34729 -8.65724,0.30227 -3.9968,2.24334 -5.33405,6.30948 -2.66497,8.1033 0.98881,0.66456 5.39785,0.89342 9.79785,0.50856 4.4,-0.38485 36.2,-0.69345 70.66667,-0.6858 z m 66.34136,-18.51954 c 1.93788,-1.93788 -1.28115,-8.18338 -4.23333,-8.21344 -2.04082,-0.0208 -26.93374,5.52686 -27.93942,6.2266 -0.27392,0.19058 -0.20056,1.1224 0.16303,2.07069 0.84923,2.21485 29.78681,2.13905 32.00972,-0.0839 z M 228,177.42013 c 0,-9.40609 1.81968,-13.3174 6.64467,-14.2824 2.75772,-0.55155 4.022,-1.59025 4.022,-3.3044 0,-2.97939 -1.10796,-3.08989 -4.58818,-0.4576 -1.42349,1.07668 -4.9078,1.9576 -7.7429,1.9576 C 212.74327,161.33333 204,166.71244 204,175.07482 204,182.0631 207.08305,184 218.20665,184 H 228 Z m 71.67463,-99.493524 c -0.18772,-0.171339 -11.31844,-0.58206 -24.73495,-0.912714 -14.92956,-0.367944 -24.95396,-1.161505 -25.83785,-2.045402 -1.94714,-1.94713 -2.9177,-19.126671 -1.2223,-21.635157 1.09288,-1.617004 5.70214,-2.080646 24.06944,-2.421132 18.64527,-0.345638 22.7177,-0.763918 22.7177,-2.333334 0,-1.05171 -0.88238,-1.912201 -1.96082,-1.912201 -4.14489,0 -33.98286,-10.597657 -39.31484,-13.96359 -5.29298,-3.341318 -5.49748,-3.700094 -3.67832,-6.453871 2.84555,-4.307492 6.44894,-4.212403 15.60967,0.411921 10.59616,5.348923 33.36684,12.932956 42.34431,14.103245 6.73713,0.878243 7.00028,0.793404 7.00744,-2.259264 0.0137,-5.883045 2.80092,-13.288291 6.60286,-17.543398 3.5553,-3.979075 4.478,-4.279087 15.58438,-5.067227 8.96648,-0.636286 13.47796,-1.686212 18.761,-4.36611 9.33672,-4.7361926 11.92842,-4.5608716 14.57348,0.985847 3.08716,6.473842 1.4944,15.680083 -3.61752,20.909503 -2.1514,2.200853 -3.91164,5.250764 -3.91164,6.777577 0,2.631192 0.46956,2.726956 9,1.835528 7.73374,-0.808173 9.53629,-1.520526 12.81172,-5.063098 3.67522,-3.974984 3.7349,-4.252631 1.66666,-7.753889 C 384.96528,27.222633 384,24.104596 384,22.29087 c 0,-1.813726 -0.9,-4.044618 -2,-4.957537 -5.07581,-4.212556 0.71295,-8.4595003 10.53745,-7.7308413 5.08435,0.3770924 5.44646,0.6987243 7.0505,6.2624043 2.07644,7.20222 5.16878,10.80177 9.27973,10.80177 1.71657,0 7.51035,-2.027456 12.87505,-4.505458 13.44663,-6.211115 17.69646,-7.033776 19.44623,-3.764306 0.98008,1.831306 0.91105,3.163863 -0.24063,4.644827 -1.63549,2.103121 -10.84248,6.63468 -16.94833,8.341753 -8.49068,2.373822 -9.75109,9.033943 -2.82015,14.9019 2.91988,2.472061 5.14042,2.959847 13.6569,3 6.49401,0.03061 10.64536,0.650381 11.485,1.714617 0.72321,0.916667 1.69489,5.952399 2.15929,11.190517 0.72176,8.140938 0.47944,9.974508 -1.66877,12.627446 l -2.51315,3.103596 -72.1416,0.158286 c -39.67788,0.08705 -72.29519,0.01811 -72.48289,-0.153238 z m 119.6587,-9.203632 C 422.26667,68.5986 427.51667,68.385051 431,68.248419 c 6.07051,-0.238111 6.33333,-0.411904 6.33333,-4.188003 0,-3.39773 -0.59601,-4.045548 -4.33333,-4.710016 -2.38333,-0.423738 -15.43333,-0.397086 -29,0.05923 -13.56667,0.456312 -28.56667,0.773053 -33.33333,0.703869 -4.76667,-0.06919 -9.86667,-0.09064 -11.33334,-0.04768 -1.46666,0.04296 -24.86666,0.566251 -52,1.162868 C 280.2,61.825302 257.55,62.392918 257,62.490055 c -2.24923,0.39724 -0.79023,4.322167 2,5.380289 1.65,0.625722 17.4,0.961264 35,0.745652 62.6532,-0.767546 101.40993,-0.533874 106.66667,0.643116 C 403.6,69.91589 407.8,70.11482 410,69.70118 c 2.2,-0.41364 6.4,-0.853832 9.33333,-0.978206 z M 395,51.083302 c 7.15,-0.442423 13,-0.988925 13,-1.214449 0,-0.225526 -0.69631,-1.938278 -1.54736,-3.806116 -1.81488,-3.983256 -7.58955,-4.580752 -14.74073,-1.5252 -2.40822,1.028978 -6.7722,2.378978 -9.69775,3 -3.62203,0.768865 -5.47296,1.934449 -5.80116,3.65314 -0.39817,2.08518 0.0631,2.365189 2.65251,1.610521 C 380.58948,52.298778 387.85,51.525726 395,51.083302 Z M 349.07589,47.13977 c 2.84086,-0.760863 3.04103,-1.42176 2.61944,-8.64846 -0.38316,-6.567956 -0.10301,-7.824644 1.74428,-7.824644 3.68663,0 9.22706,-5.262049 9.22706,-8.76344 0,-3.660604 -0.8631,-3.995754 -3.89502,-1.512484 -4.14526,3.395152 -11.29913,4.987558 -16.15286,3.595524 -6.39862,-1.835096 -6.12983,-1.926166 -12.00492,4.0676 -4.32963,4.41709 -5.28054,6.324295 -5.28054,10.591061 0,6.908902 3.49218,9.361087 13.29668,9.336866 4.0535,-0.01 8.75415,-0.388924 10.44588,-0.842023 z M 397.33333,31.6 c 0,-1.921262 -2.60504,-4.933334 -4.26666,-4.933334 -0.58667,0 -1.06667,1.5 -1.06667,3.333334 0,2.444444 0.71111,3.333333 2.66667,3.333333 1.46666,0 2.66666,-0.78 2.66666,-1.733333 z M 12.085233,76.05055 C 8.3388445,75.13105 6.9329791,71.195451 6.4964368,60.4052 6.0504051,49.380394 6.3349091,49.253867 33.482749,48.403738 46.233904,48.004438 56.831551,47.535363 57.033076,47.361349 57.532999,46.929671 37.788039,40.110201 32,38.715481 27.472169,37.624427 13.317876,32.499722 12.678216,31.719832 c -2.12189,-2.587062 -2.9254696,-6.134103 -1.83224,-8.087596 1.906191,-3.406174 8.149476,-2.840795 16.858713,1.526689 8.56306,4.29418 28.499971,10.841074 33.013748,10.841074 1.625274,0 3.701978,0.9 4.614896,2 0.912919,1.1 2.993394,2 4.623276,2 4.579934,0 7.376724,-4.097834 7.376724,-10.808311 0,-6.509663 2.886255,-11.853752 6.408939,-11.86657 1.241751,-0.0045 3.824379,-0.825693 5.739173,-1.824834 1.914795,-0.999142 7.614795,-2.251738 12.666665,-2.783547 5.05187,-0.53181 10.19222,-1.864714 11.423,-2.962009 1.35508,-1.2081064 3.32737,-1.6492635 5,-1.1183884 1.61642,0.5130293 2.76222,0.286338 2.76222,-0.5464895 0,-2.6398783 6.4765,-1.4788081 8.59106,1.540158 2.39989,3.4263139 2.81309,15.8339799 0.66121,19.8548039 -0.77792,1.453558 -2.87792,3.199264 -4.66667,3.879344 -2.0587,0.782715 -3.25226,2.290911 -3.25226,4.109579 0,2.605668 0.54467,2.811679 5.85214,2.21345 3.21868,-0.362792 8.16868,-1.790824 11,-3.173404 l 5.14786,-2.513782 -0.3275,-8.448943 c -0.23193,-5.983239 -1.08569,-9.412824 -2.9255,-11.751764 -3.38716,-4.3060807 -2.27888,-6.7968633 3.74616,-8.4192391 5.5577,-1.496533 12.20902,-0.1740348 13.52192,2.6885931 8.15948,17.790874 9.15045,18.357983 20.85472,11.934599 8.31474,-4.563192 13.02285,-4.542443 14.48482,0.06384 1.13347,3.571261 -0.75912,5.673105 -7.68029,8.529447 -8.97983,3.70594 -9.69461,4.272692 -9.33185,7.399155 0.18837,1.62343 1.58637,4.698567 3.10668,6.833638 2.75224,3.865177 2.80866,3.878238 13.05933,3.023365 13.78363,-1.149511 14.59159,-0.327601 14.4278,14.676745 -0.11693,10.708328 -0.29565,11.365563 -3.52972,12.978259 -2.63484,1.313889 -23.94633,1.787832 -94.07324,2.092078 -49.866667,0.216348 -91.566667,0.58565 -92.666667,0.82067 -1.1,0.235021 -3.461645,0.06857 -5.2481,-0.369892 z M 72.878769,67.919358 C 75.865976,66.783623 103.45253,64.905482 112,65.255915 c 1.1,0.04509 17.3,0.08323 36,0.08475 18.7,0.0015 37.75,0.03217 42.33333,0.06815 7.83442,0.06149 8.33211,-0.118426 8.31292,-3.005034 -0.0444,-6.672851 -0.91208,-6.907779 -21.52325,-5.827364 -10.51765,0.551322 -25.723,1.004294 -33.78967,1.006604 -8.06666,0.0023 -15.54813,0.494498 -16.62548,1.093756 -1.16813,0.649752 -3.51078,0.287006 -5.80359,-0.898652 -3.15159,-1.629751 -4.55377,-1.694533 -7.77725,-0.359323 -3.12778,1.295569 -5.00078,1.276315 -9.15318,-0.09409 -3.61798,-1.194048 -5.745615,-1.301832 -6.930593,-0.351103 -1.00857,0.809195 -16.749082,1.764465 -38.37657,2.329021 -21.576711,0.563232 -37.352574,1.519599 -38.333334,2.32385 -0.916666,0.751693 -1.666666,2.221352 -1.666666,3.265908 0,1.431004 1.725637,1.843273 7,1.672361 9.08458,-0.29438 37.27978,1.270595 38.125332,2.116147 1.079629,1.07963 5.138938,0.739434 9.08677,-0.761528 z M 166.42189,44.333333 c -0.53652,-4.662846 -4.80673,-5.466664 -11.94382,-2.248284 -8.26772,3.728222 -6.5364,5.63426 5.27716,5.809688 6.96764,0.103466 7.08137,0.04272 6.66666,-3.561404 z m -48.45809,1.058576 c 0.43331,-0.701116 -0.73128,-2.270123 -2.58798,-3.48668 C 112.61815,40.098331 112,38.628997 112,33.880893 c 0,-5.216641 0.44417,-6.038303 4.33333,-8.016221 2.38334,-1.212095 4.43457,-2.278734 4.55829,-2.370307 0.12372,-0.09157 0.63877,-1.815268 1.14455,-3.830432 C 122.73335,16.886133 122.47159,16 120.95386,16 c -1.10104,0 -2.33292,0.86264 -2.7375,1.916977 -0.88311,2.301352 -8.99172,4.731969 -15.82029,4.742253 -9.666109,0.01456 -15.729403,5.565879 -15.729403,14.40124 0,6.736531 3.78467,8.722936 15.221293,7.988977 5.47392,-0.351294 10.73845,-0.140318 11.69897,0.468834 2.29717,1.45684 3.4184,1.424466 4.37687,-0.126372 z"
       id="path372" />
  </g>
</svg>
