<?xml version="1.0" encoding="UTF-8" standalone="no"?>
<!-- Created with Inkscape (http://www.inkscape.org/) -->

<svg
   version="1.1"
   id="svg175"
   width="634.66669"
   height="294.66666"
   viewBox="0 0 634.66669 294.66666"
   xmlns="http://www.w3.org/2000/svg"
   xmlns:svg="http://www.w3.org/2000/svg">
  <defs
     id="defs179" />
  <g
     id="g181">
    <path
       style="fill:#000000;stroke-width:1.33333"
       d="m 120,285.81123 c -12.47048,-1.038 -30.947281,-4.64188 -36.369281,-7.09378 C 55.704801,266.08891 55.280273,265.82771 42.961967,253.69569 31.094061,242.00725 28.111366,237.92575 19.799225,221.99999 14.611214,212.05996 13.620363,209.0467 9.2766671,190 4.7191807,170.01585 4.1341372,132.55119 8.0378076,110.66666 12.16083,87.552423 24.761068,61.271759 39.287365,45.488594 50.491554,33.314981 72.818143,19.46898 86.922343,15.947406 106.85636,10.970232 134.5204,8.5366559 137.30791,11.515043 c 0.5928,0.633393 1.48012,3.062535 1.97182,5.398094 0.69518,3.3021 0.27974,4.860723 -1.86804,7.008518 -2.44041,2.440392 -3.80915,2.66739 -11.75354,1.949231 -11.33691,-1.024839 -28.714205,2.920385 -45.310283,10.286947 -3.108673,1.379858 -6.485207,2.508833 -7.503407,2.508833 -1.018199,0 -2.629049,0.937165 -3.579667,2.082589 -0.950618,1.145424 -4.866791,4.165737 -8.702605,6.711805 -7.751397,5.145084 -15.45701,14.453637 -21.968913,26.538938 -2.370844,4.4 -4.756634,8.6 -5.301754,9.333333 -1.724853,2.320395 -8.910463,24.998599 -10.615091,33.501849 -0.900639,4.49269 -1.721279,19.19268 -1.823644,32.66667 -0.186988,24.61263 1.217853,36.84528 5.286594,46.03299 1.023341,2.31082 1.860621,4.92014 1.860621,5.79849 0,1.81669 2.28094,7.24577 8.682756,20.66666 5.000155,10.48242 19.435672,27.20087 27.13974,31.4318 2.664295,1.46318 8.035596,4.66855 11.936226,7.12303 10.867875,6.83865 38.920557,12.55357 53.401297,10.87895 4.59141,-0.53098 7.82011,-0.2802 9.00001,0.69902 2.32794,1.93202 2.3998,9.74274 0.1072,11.64546 -2.14842,1.78304 -10.3304,2.69362 -18.26719,2.03298 z m 43.28522,-0.44874 c -9.11933,-1.36047 -12.24483,-2.4654 -13.07212,-4.62131 -1.0576,-2.75608 3.68557,-6.28691 10.082,-7.50505 3.13769,-0.59756 31.50491,-1.17759 63.03824,-1.28895 60.97096,-0.21533 84.14683,-0.44889 181.33334,-1.82748 63.8268,-0.90539 70.0824,-0.5186 74.73344,4.62073 1.5446,1.70678 1.59326,2.54816 0.2533,4.38067 -2.25755,3.08737 -9.32082,3.35869 -108.32007,4.16088 -78.60618,0.63693 -141.58297,1.53268 -182.66668,2.59815 -10.26666,0.26625 -21.68832,0.0333 -25.38145,-0.51764 z m 334.04813,-0.40563 c -3.7116,-1.29127 -4.75829,-2.42871 -5.11439,-5.55779 -0.64454,-5.66384 2.54679,-7.39908 13.6079,-7.39908 5.12444,0 11.15976,-0.56668 13.41183,-1.25929 2.25206,-0.69261 8.59466,-1.98264 14.09466,-2.86672 16.03824,-2.57801 28.85751,-9.83939 43.33334,-24.54577 9.40878,-9.55866 13.21172,-14.61722 17.61148,-23.42635 7.69365,-15.40409 9.38691,-20.68953 11.87695,-37.07344 2.77786,-18.2778 1.75836,-68.71933 -1.57283,-77.8177 -1.14327,-3.12256 -2.70496,-7.777389 -3.47044,-10.344055 -0.76549,-2.566667 -2.14787,-6.166667 -3.07196,-8 -0.92409,-1.833334 -2.99827,-6.033333 -4.60927,-9.333333 -6.60516,-13.530099 -12.24275,-22.295689 -18.49793,-28.76147 -7.84527,-8.10939 -18.01247,-15.238529 -21.73239,-15.238529 -1.46632,0 -4.30847,-0.849331 -6.31587,-1.887402 -6.8297,-3.531778 -23.76662,-6.112598 -40.11462,-6.112598 -14.74361,0 -16.12426,-0.214808 -17.46342,-2.717031 -0.79976,-1.494366 -1.08023,-3.895002 -0.62327,-5.334748 1.59976,-5.040435 5.34991,-5.706439 26.57617,-4.719782 22.40742,1.041561 31.164,3.263766 49.81712,12.642369 14.82673,7.45474 29.9252,22.04415 38.07972,36.795858 1.21613,2.2 2.73559,4.899999 3.37656,5.999999 0.64099,1.1 2.58335,5.260828 4.31637,9.246286 l 3.15096,7.246286 0.88319,-6.57962 c 1.58361,-11.797579 1.23476,-48.730783 -0.50575,-53.544065 -2.1413,-5.921665 -0.25449,-8.908615 5.96424,-9.44182 8.64208,-0.740985 8.74688,-0.150885 8.19562,46.149178 -0.268,22.508064 -0.76294,47.694907 -1.09988,55.970767 -0.33694,8.27585 -1.01375,47.57585 -1.50403,87.33333 -0.49029,39.75748 -1.42523,73.29568 -2.07765,74.52936 -1.6627,3.14396 -6.24116,4.31689 -8.74367,2.23999 -1.69847,-1.4096 -1.9362,-3.50518 -1.2604,-11.11016 1.61347,-18.15688 2.40911,-67.37287 1.08915,-67.37287 -1.2923,0 -2.60371,2.8406 -5.8472,12.66539 -0.96815,2.93263 -3.56028,8.1523 -5.76028,11.59928 -2.2,3.44697 -6.1,9.65518 -8.66667,13.79602 -13.11682,21.16156 -49.19523,41.39132 -78,43.73588 -5.13334,0.41783 -10.53334,1.06511 -12,1.43842 -1.46667,0.3733 -4.76667,-0.0519 -7.33334,-0.94479 z m -199.2851,-73.77561 c -0.57357,-1.38303 -1.82895,-5.81459 -2.78972,-9.84792 -0.96079,-4.03333 -3.87896,-15.67851 -6.48483,-25.87816 -5.95549,-23.3104 -6.60209,-28.56229 -4.92672,-40.01621 1.31939,-9.02017 1.26566,-9.33505 -2.38902,-14.00001 -6.29018,-8.029 -7.25403,-10.9367 -7.35831,-22.198326 -0.0855,-9.234273 0.34764,-11.407714 3.05584,-15.333333 5.50315,-7.976971 12.64661,-11.470687 25.51119,-12.476982 40.23256,-3.147079 46.59556,-3.154871 48.85871,-0.05983 0.99437,1.359892 1.80796,3.846422 1.80796,5.525622 0,3.701286 -2.12924,4.310433 -16.66667,4.768093 l -10.66667,0.335802 -1.22965,9.153566 c -1.44528,10.758798 -0.57344,12.821708 6.40743,15.160978 17.2763,5.78924 24.13929,22.52557 20.86437,50.88063 -0.89809,7.77599 -2.79507,20.13417 -4.21549,27.46264 -1.42043,7.32847 -2.44812,15.92236 -2.28376,19.09755 0.19873,3.83924 -0.3446,6.18017 -1.62203,6.98842 -1.05648,0.66847 -6.72087,1.22816 -12.58753,1.24379 -5.86667,0.0156 -15.52118,0.40639 -21.45446,0.86835 -9.75904,0.75982 -10.88725,0.60013 -11.83064,-1.67467 z m 34.18106,-11.51459 c 1.33766,-1.07582 2.61482,-5.9207 3.60266,-13.66666 0.84171,-6.6 2.39228,-16.5 3.44574,-22 5.276,-27.54574 0.5766,-42.35799 -14.81943,-46.71009 -11.26631,-3.18472 -23.63224,2.54967 -27.99022,12.97976 -2.17032,5.19434 -2.3384,19.63698 -0.35477,30.48545 1.38784,7.59004 9.84555,37.02088 11.32841,39.42021 1.1363,1.83856 22.41195,1.40197 24.78761,-0.50867 z m -34.9671,-86.91429 c 0.8738,-1.05286 3.28505,-2.28687 5.35835,-2.74224 6.53852,-1.4361 8.7355,-5.21832 8.53481,-14.693089 -0.0979,-4.621252 -0.58331,-9.0581 -1.07869,-9.85966 -0.49539,-0.80156 -3.78814,-1.457383 -7.31722,-1.457383 -5.56462,0 -7.19157,0.688063 -12.25464,5.182685 -5.42826,4.81882 -5.83178,5.638594 -5.74761,11.676347 0.10861,7.79101 3.55081,13.80763 7.89956,13.80763 1.6592,0 3.73164,-0.86143 4.60544,-1.91429 z m -125.92887,80.77728 c -11.38345,-4.68781 -14.13623,-7.354 -25.33188,-24.53495 -3.62995,-5.57054 -6.01844,-21.02796 -3.70424,-23.97232 0.73016,-0.92898 1.71567,-3.7325 2.19004,-6.23006 0.99245,-5.22532 8.07625,-16.41968 14.145,-22.35299 2.28679,-2.23577 8.31167,-5.73725 13.3886,-7.78106 8.15941,-3.28472 10.35747,-3.62556 18.93829,-2.93663 13.91618,1.11729 20.70408,3.90897 28.74083,11.82032 9.68414,9.53303 13.34094,16.32861 14.41195,26.78232 1.64835,16.08884 -3.37381,29.40736 -14.5693,38.63708 -3.78177,3.11776 -7.20578,6.11786 -7.60892,6.66692 -0.40312,0.54904 -4.24705,2.20729 -8.54206,3.68498 -9.57688,3.29494 -24.34067,3.39459 -32.05831,0.21639 z m 34.27932,-12.82896 c 8.88128,-4.37161 11.57349,-7.00224 16.27153,-15.89928 7.00001,-13.25643 3.12836,-31.5052 -8.7072,-41.041 -6.92249,-5.5774 -11.8789,-7.41655 -23.07976,-8.56411 -7.4685,-0.76517 -8.86664,-0.49823 -13.84257,2.64295 -3.04425,1.92174 -6.02515,3.49408 -6.62423,3.49408 -1.65526,0 -10.19108,9.39751 -13.33514,14.68135 -9.04276,15.19704 -1.70539,36.71494 15.70472,46.05632 8.5012,4.56132 22.7415,3.98077 33.61265,-1.37031 z m -18.93532,-21.98824 c -6.71223,-1.67195 -7.82177,-10.36081 -1.82484,-14.29016 6.29689,-4.12588 14.51329,3.39647 11.70457,10.71585 -1.0355,2.69848 -6.07556,4.52188 -9.87973,3.57431 z M 423.84544,181 c -3.40641,-2.84211 -8.56844,-10.58695 -13.77468,-20.66684 -4.84379,-9.37815 -8.99764,-13.69672 -14.95033,-15.5432 -4.721,-1.46442 -5.4395,-3.48219 -6.33862,-17.80099 -0.85393,-13.59912 -0.84004,-13.68627 2.41862,-15.17102 2.73766,-1.24736 3.87165,-1.02594 6.88501,1.34436 4.93485,3.88176 7.34136,3.5772 12.31968,-1.55912 4.97538,-5.13329 5.11963,-6.12777 1.70355,-11.745058 -2.79459,-4.595323 -2.45517,-6.957757 1.65579,-11.524801 2.54993,-2.83284 3.715,-3 20.90933,-3 17.96841,0 18.23208,0.04323 19.96048,3.272771 1.17264,2.191104 1.47685,5.592027 0.92044,10.290084 -0.75357,6.362724 -0.49955,7.363384 2.72323,10.727224 4.01312,4.1888 8.01234,4.66254 13.85493,1.64122 4.5276,-2.34131 8.74895,-1.55765 9.71529,1.80357 0.35818,1.24582 0.52112,7.21071 0.36211,13.25529 l -0.28911,10.99017 -8.96057,8.36426 c -4.92832,4.60033 -8.96057,9.08828 -8.96057,9.97321 0,0.88493 -3.60084,6.94708 -8.00188,13.47144 -7.20068,10.67472 -8.50231,11.94517 -13,12.6886 -8.15502,1.34795 -17.0146,0.97272 -19.1527,-0.81117 z m 21.58614,-12.00004 c 7.23648,-9.13804 11.00322,-19.51638 11.63965,-32.07019 0.55443,-10.9361 0.37897,-11.96837 -2.57143,-15.12975 -5.23637,-5.61081 -12.26442,-8.46669 -20.83572,-8.46669 -7.46026,0 -8.01552,0.24456 -13.69549,6.03202 -5.77968,5.88907 -5.92915,6.26037 -6.30649,15.66667 -0.3498,8.7198 -0.004,10.26767 3.64221,16.30131 C 419.5201,155 422.17859,159.8 423.21206,162 c 4.02036,8.55829 7.2569,11.33333 13.21806,11.33329 4.69115,-3e-5 6.11128,-0.68369 9.00146,-4.33333 z m -42.7649,-37.74532 c 0,-3.69909 -0.51665,-4.58798 -2.66667,-4.58798 -2.03174,0 -2.66666,0.88889 -2.66666,3.73334 0,3.93114 2.31802,7.30618 4.21344,6.13474 0.61594,-0.38066 1.11989,-2.75672 1.11989,-5.2801 z m 70.64626,-0.92131 c -0.0107,-0.91667 -0.58626,-2.56165 -1.27782,-3.65552 -1.6666,-2.6361 -4.45577,0.008 -3.26949,3.09923 0.99033,2.58079 4.57748,3.01962 4.54731,0.55629 z M 443.26668,99.859527 c 0.79854,-0.752011 0.77142,-1.688115 -0.0733,-2.532923 -1.95933,-1.959271 -17.86,-0.07879 -17.86,2.112191 0,3.059245 14.76376,3.405625 17.93333,0.420732 z M 156.61855,26.695819 c -9.11933,-1.360461 -12.24482,-2.465397 -13.07212,-4.621301 -1.0576,-2.756074 3.68558,-6.286901 10.082,-7.505057 3.1377,-0.597553 31.50491,-1.177577 63.03824,-1.288943 60.97097,-0.215329 84.14683,-0.448896 181.33334,-1.82748 63.82681,-0.905379 70.08241,-0.518597 74.73345,4.620742 1.5446,1.706769 1.59325,2.548152 0.25329,4.380657 -2.25755,3.087372 -9.32081,3.358692 -108.32007,4.160876 -78.60618,0.636941 -141.58297,1.532688 -182.66667,2.598149 -10.26667,0.266256 -21.68832,0.03332 -25.38146,-0.517643 z"
       id="path650" />
  </g>
</svg>
