<?xml version="1.0" encoding="UTF-8" standalone="no"?>
<!-- Created with Inkscape (http://www.inkscape.org/) -->

<svg
   version="1.1"
   id="svg165"
   width="701.33331"
   height="292"
   viewBox="0 0 701.33331 292"
   xmlns="http://www.w3.org/2000/svg"
   xmlns:svg="http://www.w3.org/2000/svg">
  <defs
     id="defs169" />
  <g
     id="g171">
    <path
       style="fill:#000000;stroke-width:1.33333"
       d="m 451.99157,284.91245 c -0.36204,-0.34445 -16.85825,-0.91477 -36.65825,-1.26737 -31.01005,-0.55224 -36.68521,-0.9722 -40.94348,-3.02976 -4.76007,-2.30003 -5.42791,-2.29716 -18,0.0773 -10.5686,1.99608 -19.02709,2.43711 -44.38985,2.3145 -43.44304,-0.21002 -109.86346,-0.15807 -135.11989,0.10573 -11.61593,0.12133 -21.78181,-0.18649 -22.59085,-0.68399 -1.06846,-0.657 -1.05499,-1.8175 0.0492,-4.24104 2.48617,-5.45654 12.75309,-6.15069 69.66149,-4.70984 2.56667,0.0649 6.16667,-0.0237 8,-0.19706 1.83333,-0.17338 71.67106,-0.26895 155.19497,-0.21238 154.57987,0.1046 159.47174,0.25583 159.47174,4.92994 0,4.3633 -3.78393,4.86976 -40.25864,5.38824 -20.02441,0.28465 -40.31181,0.88529 -45.08311,1.33476 -4.7713,0.44946 -8.9713,0.53538 -9.33333,0.19094 z m 112.94133,-0.54369 c -6.5034,-0.69016 -9.11555,-5.18985 -5.87969,-10.12839 1.96753,-3.00284 3.14594,-3.26189 18.92784,-4.161 27.29018,-1.55473 46.23484,-9.46094 64.08813,-26.74604 8.857,-8.57512 12.06234,-12.81274 16.34697,-21.61145 10.98096,-22.55004 15.37075,-44.20215 15.21683,-75.05521 C 673.40268,100.50383 662.04503,66.623811 639.93922,46.157724 627.25905,34.418128 611.74489,27.701092 591.66665,25.257568 585.98331,24.565905 576.45891,23.411715 570.5013,22.6927 564.54369,21.973684 558.84369,20.700217 557.83463,19.862773 555.57479,17.987269 555.43258,11.767406 557.59998,9.6 c 3.60417,-3.6041735 28.22999,-1.1021244 48.23345,4.900649 7.42494,2.228122 15.03547,4.359696 16.9123,4.73683 3.16249,0.635481 20.38521,13.043338 30.11729,21.69757 4.73138,4.207374 13.80362,16.87864 13.80362,19.279623 0,0.866444 0.88467,2.552905 1.96594,3.747691 2.2294,2.463449 10.03406,20.784442 10.03406,23.554354 0,0.999139 0.6,1.816616 1.33334,1.816616 1.4924,0 1.85264,-12.1653 1.46085,-49.333333 -0.143,-13.566667 0.2198,-25.310432 0.80624,-26.097256 2.32703,-3.122191 5.87828,-3.211968 8.80695,-0.222643 3.29706,3.365364 3.3577,5.728962 1.65017,64.319899 -0.47019,16.133333 -0.85459,67.56957 -0.85421,114.30276 7.2e-4,93.07296 0.29372,89.69701 -7.7043,88.76963 l -3.49904,-0.40572 -0.43046,-25.33334 c -0.2494,-14.67764 0.22282,-29.91661 1.1227,-36.22982 2.39543,-16.80551 -0.63312,-22.5231 -4.54514,-8.58075 -1.21238,4.32085 -3.69707,10.0558 -5.52156,12.74433 -1.8245,2.68854 -4.58676,7.4033 -6.13839,10.47724 -3.2204,6.38002 -9.71844,13.51231 -22.48714,24.68206 -7.41446,6.48597 -30.63778,18.20765 -38.4733,19.41893 -3.19365,0.49369 -7.39365,1.71011 -9.33333,2.70315 -3.08527,1.57953 -7.07329,2.316 -21.52671,3.97534 -1.83333,0.21048 -5.61352,0.14071 -8.40041,-0.15505 z m -447.59957,-2.56232 c -12.345,-1.34437 -27.592514,-5.09292 -37.560343,-9.23408 C 73.719842,270.05756 68.25921,268 67.638251,268 67.017291,268 61.894655,264.48411 56.254617,260.18692 45.584565,252.05731 36.729747,243.20667 32.608238,236.55168 31.28492,234.41492 28.323934,229.66667 26.028266,226 19.472509,215.52907 14.816993,202.40456 9.7111731,180 6.5714634,166.22281 6.5341104,119.37651 9.6527007,106.66667 12.350551,95.671559 19.417227,75.612481 22.774965,69.418533 c 5.019385,-9.259156 15.6657,-23.043474 19.685874,-25.488288 2.242,-1.363441 4.950078,-4.168562 6.017951,-6.233601 1.067872,-2.065039 5.147002,-5.763679 9.064731,-8.2192 3.917729,-2.455523 8.735126,-5.582333 10.705327,-6.948471 9.100289,-6.310137 32.656202,-12.8928077 49.653522,-13.8756187 13.74491,-0.7947515 14.13422,-0.7379688 17.41177,2.5395867 6.78942,6.789408 3.0874,9.419918 -15.31414,10.881636 -19.38133,1.539547 -28.356432,4.008711 -48.666669,13.388819 -5.584011,2.578927 -11.288825,6.981251 -18.890198,14.577295 -8.870793,8.864573 -11.854737,12.96035 -16.09174,22.087602 -2.860846,6.162772 -6.289897,14.80504 -7.62011,19.20504 -1.330213,4.4 -3.248388,10.099997 -4.262609,12.666667 -5.062905,12.81257 -6.054267,54.33224 -1.782809,74.66667 4.138401,19.70101 5.986273,25.48458 12.200447,38.18562 4.615128,9.43279 7.890388,13.90096 16.247637,22.16535 11.894408,11.76224 22.053663,18.91868 28.866048,20.334 2.566667,0.53324 6.420853,1.86655 8.56486,2.96291 4.428635,2.26464 34.039883,7.32966 44.101803,7.54366 6.1111,0.13 6.69971,0.42538 7.06311,3.5447 0.23388,2.0075 -0.58624,4.27225 -2,5.52297 -2.56665,2.27065 -12.76769,3.71133 -20.39644,2.88056 z m 206.88603,-35.48461 c -2.56458,-1.23347 -2.98046,-2.2173 -2.35728,-5.57643 2.61295,-14.08424 3.38924,-32.23139 2.513,-58.7454 -0.53317,-16.13333 -0.86048,-32.35789 -0.72733,-36.05459 l 0.24207,-6.72125 -21.61158,0.0545 -21.61158,0.0546 -0.43046,-4.50288 c -0.23676,-2.47658 0.15163,-5.08496 0.86307,-5.7964 0.73557,-0.73557 9.69197,-1.21367 20.7638,-1.10838 18.59747,0.17685 19.47025,0.0665 19.47025,-2.46273 0,-1.45633 -2.13486,-4.93126 -4.74414,-7.72207 -2.60928,-2.79081 -5.97919,-7.4742 -7.48868,-10.40754 C 307.591,104.4 305.57232,101.1 304.61454,100 c -5.10947,-5.868141 -7.59019,-24.291231 -4.65091,-34.539908 2.11547,-7.376197 6.97779,-13.448369 13.36969,-16.696395 8.78239,-4.462733 12.41151,-5.002281 22.19127,-3.29921 7.61455,1.326016 9.57712,2.303568 14.63463,7.289469 3.21242,3.166949 5.84077,6.73014 5.84077,7.918203 0,1.188064 1.0003,5.218393 2.22292,8.956289 3.74901,11.461957 0.10373,23.893073 -12.34003,42.082582 -5.7939,8.46913 -8.028,13.25498 -6.7733,14.50967 1.4492,1.4492 27.11125,2.0488 31.80289,0.74309 4.106,-1.14273 5.2552,-0.98849 7,0.9395 2.77909,3.07087 2.70657,10.28443 -0.11934,11.86587 -1.35433,0.75792 -3.93657,0.7574 -6.68458,-0.001 -2.46276,-0.68 -4.96351,-0.93616 -5.5572,-0.56923 -0.59371,0.36693 -5.23566,0.0743 -10.31543,-0.65035 -5.07977,-0.72461 -11.55229,-0.93045 -14.38336,-0.45741 l -5.1474,0.86005 0.96104,48.19124 c 0.76155,38.18764 1.3457,48.62819 2.81407,50.29622 2.27712,2.58674 2.39659,6.81812 0.25303,8.96168 -1.98303,1.98302 -11.32627,1.93594 -15.51396,-0.0781 z M 336.9554,111.66667 c 6.25966,-8.3054 7.58604,-10.68377 10.29216,-18.455037 3.12388,-8.970976 2.6698,-18.814394 -1.22221,-26.494932 -3.61601,-7.135853 -4.45519,-7.900688 -11.35869,-10.352497 -6.68991,-2.375952 -10.62324,-2.060769 -16.52787,1.324396 -7.55947,4.333901 -10.1388,10.100761 -10.1388,22.668256 0,11.893939 2.61268,18.356771 11.90752,29.454994 2.9842,3.56318 5.42581,7.01318 5.42581,7.66666 0,0.65349 1.42791,1.18816 3.17314,1.18816 2.26909,0 4.67626,-1.99437 8.44894,-7 z m 94.14843,101.92841 c -3.05955,-0.22271 -6.2259,-1.20389 -7.03634,-2.18041 -0.81044,-0.97651 -2.03157,-9.4943 -2.71362,-18.9284 -0.68207,-9.43412 -1.83475,-21.35294 -2.56154,-26.48627 -0.72677,-5.13333 -1.50237,-24.03333 -1.72354,-42 -0.42616,-34.618575 0.004,-37.557883 5.7629,-39.385717 4.24531,-1.347406 5.35012,1.592108 4.40462,11.71905 -0.81684,8.748697 -0.0621,10.625757 3.02946,7.534217 0.83046,-0.83045 2.75827,-1.05556 4.4477,-0.51936 2.79933,0.88847 2.93606,1.4885 2.23317,9.79912 -0.41181,4.86898 -2.29328,13.12528 -4.18104,18.34734 -3.77829,10.45182 -4.11312,15.41736 -2.04311,30.30015 0.76404,5.49327 1.81404,16.78669 2.33334,25.09648 L 433.99999,202 l 8,-0.24089 c 4.4,-0.13254 12.79999,-0.81152 18.66666,-1.50896 8.48672,-1.00892 11.75664,-0.86923 16,0.68349 9.24771,3.38392 10.94204,3.41399 20.12773,0.35719 7.4357,-2.47444 10.73107,-2.85036 19.23675,-2.19446 5.64517,0.43534 11.77167,1.47846 13.61441,2.31807 5.14576,2.34457 8.45899,-0.17997 10.29824,-7.84684 0.85606,-3.56843 1.36891,-8.53096 1.13967,-11.02783 -0.22924,-2.49688 0.40211,-12.4281 1.40299,-22.0694 2.01013,-19.36334 1.77238,-23.19504 -2.34564,-37.8037 -4.76811,-16.91486 -3.86106,-24.723217 2.67345,-23.014405 2.21808,0.580045 2.51907,-0.125946 2.51907,-5.908584 0,-8.060912 2.32262,-11.789093 6.51545,-10.45834 2.65793,0.843594 2.97936,1.831044 2.98282,9.163402 0.003,4.519858 0.0804,13.317927 0.17383,19.551257 0.21793,14.53513 -2.57509,69.23933 -4.28878,84 -1.62964,14.03669 -3.34923,15.87793 -15.1977,16.2728 -4.50209,0.15005 -12.38562,0.4118 -17.51896,0.58169 -18.15226,0.60074 -81.41079,1.13987 -86.89615,0.74059 z m -239.7705,-18.54733 c -3.56759,-0.89374 -6,-2.98088 -6,-5.14834 0,-2.17854 8.0756,-4.54862 15.53278,-4.55864 6.93458,-0.009 17.17952,-7.26637 23.29756,-16.50294 4.03888,-6.09759 4.13479,-6.59544 3.57344,-18.55179 -0.8384,-17.85732 -4.44884,-24.11207 -17.73712,-30.72787 -14.60989,-7.27379 -30.57961,-5.4777 -42.59212,4.79028 -7.96673,6.80976 -11.40434,13.72379 -12.31545,24.76995 -0.67253,8.15371 -0.3836,9.53724 3.52557,16.8816 2.34199,4.4 7.28802,10.81663 10.99119,14.25916 7.38445,6.86472 7.85249,10.40751 1.37497,10.40751 -2.7825,0 -5.38037,-1.71026 -9.94616,-6.54783 -13.85243,-14.67705 -17.44469,-30.23077 -11.20871,-48.53144 3.61795,-10.6176 12.14695,-20.33459 22.83738,-26.01837 5.79551,-3.0813 8.23476,-3.54424 18.66667,-3.54265 10.97076,0.002 12.68616,0.37026 20,4.29748 11.21985,6.02458 15.66838,10.37343 20.80914,20.34281 3.99306,7.74366 4.46467,9.80265 4.42835,19.33333 -0.0285,7.49529 -0.71165,11.85593 -2.29752,14.66667 -1.24128,2.2 -2.26057,5.05 -2.26509,6.33333 -0.0148,4.19177 -15.02302,17.77489 -22.85515,20.68489 -8.61176,3.19967 -14.23508,4.26087 -17.81973,3.36286 z m -4.53446,-39.84916 c -2.48112,-3.15426 -2.55468,-3.80326 -0.81274,-7.17176 2.29304,-4.43426 4.33384,-5.38644 8.3472,-3.89459 2.90405,1.07949 3.69326,3.66155 3.01612,9.86776 -0.60755,5.56836 -6.57963,6.24681 -10.55058,1.19859 z M 339.38844,20.277059 C 339.174,20.062775 298.41259,19.861147 248.80751,19.828996 l -90.19102,-0.05845 -1.87756,-3.630782 C 152.61618,8.167234 140.77696,8.6531567 335.25666,8.8127739 476.50682,8.9287036 513.69461,9.306664 515.30444,10.6427 c 1.11588,0.926101 2.02888,3.044709 2.02888,4.708019 0,2.42497 -0.99072,3.225678 -5,4.041032 -4.774,0.970872 -94.47636,1.706733 -107,0.87776 -3.3,-0.218436 -19.39987,-0.218436 -35.77749,0 -16.37762,0.218436 -29.95293,0.221832 -30.16739,0.0076 z"
       id="path789" />
  </g>
</svg>
