<?xml version="1.0" encoding="UTF-8" standalone="no"?>
<!-- Created with Inkscape (http://www.inkscape.org/) -->

<svg
   version="1.1"
   id="svg75"
   width="190.66667"
   height="213.33333"
   viewBox="0 0 190.66667 213.33333"
   xmlns="http://www.w3.org/2000/svg"
   xmlns:svg="http://www.w3.org/2000/svg">
  <defs
     id="defs79" />
  <g
     id="g81">
    <path
       style="fill:#000000;stroke-width:1.33333"
       d="m 89.681543,208.31328 c -4.473951,-0.74166 -12.279394,-11.14672 -14.434107,-19.24142 -3.011275,-11.31256 -2.588465,-14.09725 2.605745,-17.1619 4.712304,-2.78034 6.659856,-7.62414 4.937488,-12.28014 -0.846153,-2.28737 -1.105344,-2.32718 -2.693385,-0.4137 -2.292707,2.76253 -6.618948,2.71318 -7.693777,-0.0877 -0.822499,-2.1434 0.884588,-12.19622 2.833972,-16.68892 0.726014,-1.67322 0.194812,-2.33654 -2.135538,-2.66666 -2.79542,-0.396 -3.089378,-1.0982 -2.974814,-7.1061 0.160018,-8.39171 5.145174,-21.47742 10.051008,-26.38326 3.123661,-3.12366 4.200433,-3.50796 6.452283,-2.3028 3.748174,2.00596 3.378409,5.18174 -1.159202,9.95592 -4.945149,5.20298 -6.689227,12.34644 -3.329181,13.63581 1.552284,0.59567 2.837645,0.0802 3.772848,-1.51305 0.780149,-1.32909 2.731377,-4.02869 4.336064,-5.99913 1.675984,-2.05798 2.868648,-5.3047 2.802556,-7.62923 -0.2167,-7.62163 2.796845,-9.03003 8.955677,-4.18549 3.68095,2.89544 3.71439,2.89697 5.84647,0.26849 3.787,-4.6687 6.57498,-4.83795 8.8005,-0.53425 1.10579,2.1383 2.01052,4.82958 2.01052,5.98057 0,2.42638 5.36927,11.30312 8.31633,13.74896 2.8559,2.37019 6.35034,0.58821 6.35034,-3.23834 0,-4.1042 -4.83097,-13.69515 -7.39358,-14.67852 C 123.26035,108.7642 123.4634,104 126.18663,104 c 3.01583,0 9.73569,7.83017 12.12015,14.12272 4.3171,11.39278 3.26468,19.21061 -2.58611,19.21061 h -2.85217 l 2.93093,3.11983 c 3.19925,3.40546 5.53391,10.10128 5.53391,15.87137 0,4.31165 -2.63127,4.84001 -5.02391,1.0088 -3.14317,-5.03303 -4.54973,-3.07371 -3.58939,5 0.69804,5.8686 1.81502,8.61968 4.7626,11.73015 3.40104,3.58897 3.8507,5.0364 3.8507,12.39534 0,7.80048 -0.24735,8.47383 -3.87828,10.5577 -2.81659,1.6165 -3.82035,3.15077 -3.66667,5.60465 0.19541,3.12023 -0.27312,3.40993 -6.12172,3.78521 -5.48696,0.35208 -6.33333,0.066 -6.33333,-2.14045 0,-1.72592 1.38714,-2.94467 4.30349,-3.78107 3.76837,-1.08076 4.42899,-1.9694 5.31283,-7.14672 1.19923,-7.02482 -0.40554,-9.51385 -4.02314,-6.23997 -1.3584,1.22933 -2.88545,2.23516 -3.39343,2.23516 -0.50798,0 -3.27436,1.55567 -6.14751,3.45703 -6.47655,4.28597 -10.98159,3.64385 -21.20432,-3.02236 -11.147315,-7.26914 -12.810841,-1.30331 -2.514592,9.01796 2.016667,2.02157 3.666667,4.60062 3.666667,5.73122 0,2.58555 -3.745427,4.44367 -7.651792,3.7961 z M 104.4748,168.62834 c -0.76646,-9.97138 -1.41041,-12.35184 -4.05742,-14.99884 -1.730498,-1.7305 -4.139192,-2.95508 -5.352649,-2.72126 -5.268875,1.01518 -5.202131,20.38514 0.09041,26.23757 3.267716,3.6134 7.705779,5.68121 9.204459,4.28863 0.56444,-0.5245 0.61628,-6.28724 0.1152,-12.8061 z m 17.47713,7.72882 c 3.01846,-4.44207 3.38141,-6.30254 3.38141,-17.33334 0,-11.2383 -0.22869,-12.35716 -2.52566,-12.35716 -1.38912,0 -4.38912,1.74072 -6.66667,3.86828 -3.95625,3.69568 -4.1402,4.3352 -4.1228,14.33334 0.01,5.75577 0.37999,11.81505 0.82217,13.46505 1.21373,4.52899 5.29227,3.64441 9.11155,-1.97617 z M 113.98826,141 c 3.27711,-1.65 6.30362,-4.02734 6.72559,-5.28298 1.66834,-4.9644 -5.4327,-12.96894 -11.55102,-13.02071 -5.2775,-0.0446 -12.49951,3.42607 -14.967818,7.19319 -2.496094,3.80952 -2.91415,8.77716 -0.738649,8.77716 0.800999,0 2.981913,1.2 4.846477,2.66667 4.38751,3.45121 8.33546,3.36732 15.68542,-0.33333 z M 21.666667,63.116958 C 20.75,62.747075 20,61.044443 20,59.333332 c 0,-1.71111 0.75,-3.46638 1.666667,-3.900597 0.916667,-0.434217 -1.333333,-0.556003 -5,-0.270632 -8.3476046,0.649679 -10.0000002,0.03947 -10.0000002,-3.692932 0,-4.070766 7.0260082,-7.23611 18.4102852,-8.294166 7.664386,-0.712331 10.003921,-0.385246 15.634729,2.185853 6.581697,3.005287 6.742338,3.012315 26.621654,1.164669 l 20,-1.858861 1.358436,-15.333333 C 90.021704,14.321734 91.171351,10.35246 95.419842,6.1039687 97.565454,3.958357 103.38052,3.3343289 107.28108,4.8311129 c 4.23515,1.6251803 7.38672,10.7082411 8.84534,25.4929601 0.78198,7.926288 2.17466,15.127497 3.1131,16.097116 4.10332,4.23966 41.30508,2.816941 47.9446,-1.83356 3.51523,-2.462162 14.65699,-2.522268 16.67563,-0.08996 2.00779,2.419236 0.62815,5.730394 -2.75644,6.615484 -2.50747,0.655716 -2.55843,0.92885 -0.67503,3.617791 1.12047,1.599691 1.7183,3.739647 1.32848,4.755458 -0.9754,2.541872 -7.67478,2.317109 -12.82297,-0.430207 -3.65257,-1.949187 -8.15621,-2.254128 -31.27117,-2.117377 -26.65431,0.15769 -27.01233,0.122424 -27.64201,-2.722863 -0.35087,-1.585442 -1.27112,-10.082622 -2.045,-18.882622 -1.43913,-16.364772 -3.02027,-20.496884 -7.22556,-18.88316 -3.435972,1.318505 -4.750048,6.917951 -4.750048,20.240556 0,15.267788 -1.494362,19.282118 -7.21402,19.379159 -2.265623,0.03844 -14.319314,0.597951 -26.785981,1.243359 -17.739902,0.918407 -24.191276,1.772645 -29.68097,3.930111 -7.307327,2.871801 -7.914083,2.978521 -10.652364,1.8736 z"
       id="path928" />
  </g>
</svg>
