<?xml version="1.0" encoding="UTF-8" standalone="no"?>
<!-- Created with Inkscape (http://www.inkscape.org/) -->

<svg
   version="1.1"
   id="svg183"
   width="213.33333"
   height="249.33333"
   viewBox="0 0 213.33333 249.33333"
   xmlns="http://www.w3.org/2000/svg"
   xmlns:svg="http://www.w3.org/2000/svg">
  <defs
     id="defs187" />
  <g
     id="g189">
    <path
       style="fill:#000000;stroke-width:1.33333"
       d="m 115.65194,243.91184 c -2.7581,-0.4566 -5.4581,-1.27291 -6,-1.81402 -1.0913,-1.0897 -3.27483,-144.313071 -2.68911,-176.385901 0.31715,-17.366765 0.71254,-20.629781 2.74594,-22.661152 2.13025,-2.128129 5.57085,-2.390886 33.33333,-2.545652 17.02684,-0.09492 36.80139,-0.920665 43.94344,-1.834993 11.59712,-1.484665 13.34351,-1.427876 16.33334,0.531135 2.776,1.818902 3.35712,3.270004 3.40244,8.496146 0.03,3.466428 0.25692,10.202596 0.5041,14.969263 0.2472,4.766666 0.44286,38.066664 0.4348,73.999994 -0.008,35.93334 0.12,73.18554 0.28467,82.78267 0.24428,14.24148 -0.0793,17.82797 -1.7604,19.50903 -1.31815,1.31814 -6.76251,2.58518 -15.12209,3.51928 -14.94846,1.67033 -67.90084,2.67741 -75.41046,1.4342 z m 25.68139,-11.88336 c 1.6128,-1.01931 2.02424,-4.8971 2.12517,-20.02955 0.0688,-10.32103 -0.40116,-19.09081 -1.04448,-19.48841 -0.64332,-0.39759 -5.58481,-1.0568 -10.9811,-1.46492 -9.19054,-0.69508 -9.91315,-0.55199 -11.41875,2.26125 -1.79554,3.355 -1.45975,35.47639 0.401,38.35981 1.28285,1.98792 17.89075,2.27518 20.91816,0.36182 z m 53.4054,-2.8298 c 1.61332,-3.01451 0.84263,-171.144399 -0.81025,-176.762486 -0.84692,-2.878607 -1.07543,-2.897096 -35.72376,-2.890604 -19.17927,0.0036 -36.37139,0.567697 -38.20472,1.253565 l -3.33334,1.247031 0.37347,60.278914 c 0.20541,33.1534 0.84261,62.093 1.416,64.31023 l 1.04254,4.03133 16.22561,0.37418 c 13.7842,0.31786 16.39477,0.7191 17.34984,2.66666 0.61833,1.26087 1.25465,12.14031 1.41405,24.17654 0.15939,12.03621 0.60016,22.38621 0.97951,23 0.37933,0.61377 9.03317,1.11596 19.23076,1.11596 17.47354,0 18.62738,-0.1613 20.04029,-2.80132 z M 11.666666,241.24365 c -3.7832732,-2.23131 -2.6974864,-6.15868 2.959504,-10.70476 7.803587,-6.27113 8.970444,-11.42048 5.938274,-26.20556 -0.435939,-2.12567 -1.565656,-3 -3.876268,-3 -1.793562,0 -3.844742,-1.09069 -4.55818,-2.42377 C 10.550164,195.95762 9.23864,158.34874 9.1863271,114.4978 9.1650041,96.624008 9.1893575,81.341012 9.2404456,80.535586 9.2915337,79.730158 11.733333,78.128426 14.666666,76.976179 19.636218,75.024084 20,74.52165 20,69.610083 20,63.608832 15.41919,52.205077 12.569223,51.111442 c -2.520024,-0.967024 -2.433166,-6.344557 0.136929,-8.477545 4.59733,-3.815446 13.880597,5.481566 14.012024,14.032769 0.03381,2.2 0.82785,7.3 1.76453,11.333333 1.578656,6.797673 2.006326,7.363369 5.85492,7.744537 5.086741,0.503795 6.107853,-1.16927 8.20782,-13.448303 2.367493,-13.843322 5.021757,-18.068583 10.12122,-16.111735 2.667958,1.023791 2.51438,2.955513 -0.647231,8.140905 -3.813693,6.254882 -2.388064,15.296592 3.504257,22.224896 2.440283,2.869332 4.823984,7.369332 5.297114,10 0.473128,2.630668 1.270297,5.383033 1.771486,6.116366 0.50119,0.733334 1.035163,19.033335 1.18661,40.666665 0.151445,21.63333 0.589601,40.33929 0.97368,41.5688 0.384078,1.22949 -0.220192,4.43377 -1.342823,7.12061 -1.442403,3.45215 -1.655205,5.6063 -0.725453,7.34355 2.21652,4.1416 1.540084,5.29896 -4.647202,7.95113 l -5.962893,2.556 0.472199,7.06328 c 0.259709,3.88482 0.543012,9.07835 0.62956,11.5412 0.123587,3.5169 1.478233,5.69067 6.312092,10.12892 6.863968,6.3022 7.204581,10.42828 0.989638,11.98812 -7.941673,1.99324 -12.633591,-5.42205 -15.983926,-25.26161 -0.371517,-2.2 -1.180193,-5.2 -1.79706,-6.66667 -0.616867,-1.46666 -1.457151,-3.71666 -1.867299,-5 -0.863772,-2.7027 -3.257089,-2.94025 -6.289344,-0.62426 -1.52195,1.16245 -2.348728,4.84661 -2.907863,12.9576 -0.756068,10.96774 -3.986059,20.4857 -8.064904,23.76524 -2.60705,2.09616 -9.418479,2.94233 -11.900638,1.47841 z m 19,-54.57699 c 1.686592,-3.15142 5.662833,-3.48278 8,-0.66666 1.012852,1.22041 3.93498,2 7.496593,2 h 5.83674 l 0.04212,-19 c 0.02317,-10.45 0.27464,-26.8 0.558827,-36.33334 0.284187,-9.53333 0.660947,-23.63333 0.837244,-31.33333 L 53.758731,87.333332 40.732085,86.259968 C 29.375169,85.324187 27.384444,85.4771 25.201153,87.452951 c -1.96502,1.778318 -2.327532,3.371698 -1.683464,7.399472 0.530225,3.315852 0.217204,5.860437 -0.884169,7.187517 -1.312358,1.58129 -1.664492,11.58138 -1.529132,43.42492 0.09672,22.7538 0.523212,41.93259 0.947756,42.61951 1.405124,2.27353 7.144534,1.32899 8.614522,-1.41771 z M 96.333332,37.725689 c -1.65,-0.317804 -3,-1.406016 -3,-2.418248 0,-2.819725 -8.086139,-14.167617 -9.709741,-13.626416 -0.788192,0.262731 -2.075944,1.619251 -2.861668,3.014488 -6.8699,12.199111 -7.45048,12.807661 -11.814773,12.383975 -3.68583,-0.357822 -4.996295,-1.651994 -9.836124,-9.713831 -3.071064,-5.115556 -6.077389,-9.45832 -6.680723,-9.650587 -0.603333,-0.192266 -3.224374,3.993188 -5.824534,9.30101 -4.508624,9.203653 -4.940866,9.650586 -9.333334,9.650586 -3.773002,0 -4.976488,-0.723237 -6.656101,-4 -3.386678,-6.607084 -9.24959,-15.333333 -10.302017,-15.333333 -0.978888,0 -6.00508,9.199268 -7.46704,13.666667 -0.460316,1.406616 -2.104086,2.333333 -4.1387641,2.333333 -5.7799555,0 -4.7594522,-4.637103 5.2025721,-23.6401591 1.241779,-2.3687543 2.853885,-4.6752401 3.582461,-5.1255242 2.398283,-1.4822204 7.909323,0.7842386 9.247051,3.8029225 3.196145,7.2123488 8.944653,14.9627608 11.097934,14.9627608 1.637674,0 3.432487,-2.753677 6.043774,-9.272613 C 46.827918,6.7071622 48.310529,4.5971821 51.046083,3.8655819 54.714892,2.8843912 55.628159,3.8633877 64.542464,18.333333 66.462507,21.45 68.587418,24 69.264487,24 c 0.677069,0 3.129781,-3.75 5.45047,-8.333334 5.356687,-10.5793911 6.284136,-11.6666661 9.951708,-11.6666661 3.547562,0 4.270436,0.826675 9.910284,11.3333331 6.728671,12.535067 7.375461,12.842655 10.912711,5.189709 5.03698,-10.8976485 9.03459,-16.5230421 11.74187,-16.5230421 3.03735,0 7.96566,5.6058846 12.9024,14.6763041 1.99277,3.661366 4.27785,6.64725 5.07797,6.635298 0.80012,-0.012 3.80934,-4.81195 6.68714,-10.666666 4.58906,-9.3361606 5.66965,-10.6449361 8.78894,-10.6449361 3.04604,0 4.30604,1.387582 8.7778,9.6666661 6.74456,12.486986 8.53475,12.538192 14.96331,0.428011 2.69733,-5.0812602 5.91912,-9.8560371 7.15952,-10.610615 2.97796,-1.8115838 7.28024,1.9844977 10.40707,9.182604 1.27424,2.933334 3.64689,8.15001 5.27258,11.592614 3.40179,7.203758 3.18931,10.908325 -0.65745,11.461974 -2.98144,0.429108 -7.60036,-4.874805 -9.04632,-10.387921 -2.28104,-8.697071 -6.61153,-8.569724 -9.67697,0.284568 -5.66296,16.357086 -11.76782,15.488654 -23.0896,-3.284568 -1.65848,-2.75 -3.4831,-5 -4.05472,-5 -0.57162,0 -2.47268,2.85 -4.22459,6.333333 -1.75191,3.483334 -3.49749,6.633334 -3.87908,7 -0.3816,0.366667 -1.41873,2.316667 -2.30476,4.333334 -2.95411,6.72387 -10.15134,3.337081 -14.42052,-6.785854 -2.90965,-6.899265 -7.93733,-12.324398 -9.74565,-10.516078 -0.82607,0.826062 -1.50194,2.263682 -1.50194,3.19471 0,1.67579 -3.39976,8.250048 -7.51168,14.525623 -2.0713,3.161205 -4.12018,3.598048 -10.821648,2.307288 z"
       id="path360" />
  </g>
</svg>
