<?xml version="1.0" encoding="UTF-8" standalone="no"?>
<!-- Created with Inkscape (http://www.inkscape.org/) -->

<svg
   version="1.1"
   id="svg173"
   width="121.33333"
   height="213.33333"
   viewBox="0 0 121.33333 213.33333"
   xmlns="http://www.w3.org/2000/svg"
   xmlns:svg="http://www.w3.org/2000/svg">
  <defs
     id="defs177" />
  <g
     id="g179">
    <path
       style="fill:#000000;stroke-width:1.33333"
       d="M 8.755397,208.56492 C 7.3942475,207.20377 7.1071045,205.6443 7.8451855,203.62157 8.4382111,201.99637 9.6505724,195.86666 10.539322,190 c 0.888749,-5.86667 2.150272,-12.76667 2.803383,-15.33334 0.653112,-2.56666 1.505083,-7.96666 1.893268,-12 0.388187,-4.03333 1.593292,-11.53333 2.678012,-16.66666 2.593602,-12.27398 6.179453,-32.13818 6.859694,-38 1.284092,-11.0654 4.388134,-28.289084 6.285271,-34.875664 1.128614,-3.918385 2.764302,-10.724337 3.634861,-15.124337 2.938071,-14.849657 4.424127,-18.635948 7.485663,-19.072572 3.41565,-0.487128 8.487191,5.342844 8.487191,9.756422 0,1.64499 -1.275678,3.83791 -2.834841,4.873155 -3.062492,2.033419 -3.241476,2.710768 -11.180436,42.311485 -5.118496,25.531821 -5.109072,25.464841 -3.583169,25.464841 2.229339,0 17.660022,-10.8584 19.464166,-13.69672 1.038298,-1.63347 3.212409,-7.16994 4.83136,-12.303278 1.618951,-5.133333 3.474407,-10.375192 4.123233,-11.648575 0.648828,-1.273382 1.179687,-3.403382 1.179687,-4.733333 0,-1.329951 0.477515,-2.988092 1.061145,-3.684759 2.119699,-2.530239 4.061148,-10.828323 4.963591,-21.215221 0.507254,-5.838371 1.475397,-12.070027 2.151428,-13.848125 1.136148,-2.988296 1.73084,-3.173486 7.859825,-2.447598 7.064545,0.83669 8.829837,-0.937395 4.50459,-4.527031 -1.169348,-0.970472 -3.592557,-4.793938 -5.384909,-8.496593 -2.45362,-5.068704 -3.055602,-7.948552 -2.43635,-11.65534 0.981214,-5.8734624 2.813742,-7.6189348 9.063751,-8.6331719 3.876826,-0.6291221 5.303308,-0.1450844 8.246677,2.7982851 2.802791,2.8027908 3.367746,4.3209758 2.65891,7.1452038 -1.346856,5.366299 -3.611404,6.07715 -7.021992,2.20423 l -3,-3.406674 v 4.053316 c 0,4.936711 6.549525,12.93729 9.624808,11.757194 1.122796,-0.430858 2.377724,-2.481024 2.78873,-4.555926 2.669571,-13.476941 3.859271,-17.2940142 5.850991,-18.7725474 3.07161,-2.2801804 6.98837,-2.0943777 7.93653,0.3764921 0.43122,1.1237372 -2.85259,12.9737373 -7.29736,26.3333323 -4.444766,13.359596 -8.459982,26.785913 -8.922705,29.83626 -0.732305,4.827501 -0.484802,5.659237 1.91025,6.419397 1.513357,0.48032 3.249325,0.565678 3.857695,0.189682 1.85433,-1.146042 9.57974,4.31559 9.65421,6.825238 0.0384,1.294112 -0.0993,10.152931 -0.30605,19.686264 -0.60724,28.002788 -0.23664,33.127378 2.80628,38.804808 1.51981,2.83564 2.76329,6.23848 2.76329,7.5619 0,4.26585 -5.23718,12.96662 -7.80488,12.96662 -3.75679,0 -4.23993,-1.31176 -2.24322,-6.09053 1.81072,-4.33367 1.7777,-4.4264 -1.71954,-4.83064 l -3.5657,-0.41216 0.093,-26.66667 c 0.0512,-14.66666 0.59568,-28.110484 1.21003,-29.875157 0.83144,-2.38823 0.70142,-2.951644 -0.5086,-2.203815 -1.960719,1.211795 -3.874428,6.00196 -5.62466,14.078977 -0.715085,3.300005 -1.797187,8.287885 -2.404668,11.084185 -1.545543,7.1143 0.529832,22.66236 6.529343,48.91581 0.754125,3.3 1.521375,15.3 1.705005,26.66667 L 102,206 86.970263,206.66666 c -8.266353,0.36667 -15.616353,0.46667 -16.333333,0.22223 -0.716979,-0.24445 -1.303599,-1.60929 -1.303599,-3.033 0,-3.18701 4.822482,-5.18923 12.498627,-5.18923 8.757217,0 10.615993,-2.10186 10.523699,-11.89998 -0.10316,-10.95139 -4.167131,-25.21923 -7.881141,-27.6692 -4.25083,-2.80407 -9.239242,-0.94231 -12.593278,4.70005 -5.505276,9.26131 -10.709757,23.56744 -11.472518,31.5358 -1.060376,11.07747 -2.320567,13.13471 -7.537789,12.30537 -2.312347,-0.36757 -8.571439,-0.26186 -13.909096,0.23492 -10.637413,0.99004 -12.798862,0.3932 -12.080713,-3.33585 0.343725,-1.78483 2.774757,-3.07685 8.708546,-4.62836 10.79036,-2.82136 14.641688,-5.48095 15.732425,-10.86424 0.487935,-2.40817 2.5993,-9.77851 4.691923,-16.37851 2.092622,-6.6 5.375878,-17.4 7.296125,-24 1.920245,-6.6 5.036961,-15.76983 6.926034,-20.37742 3.044808,-7.42649 3.340239,-9.54535 2.602676,-18.66666 -0.918256,-11.355938 -3.047369,-24.966897 -3.327369,-21.271156 -0.09799,1.293284 -0.719672,3.393284 -1.381532,4.666667 -0.661859,1.273382 -1.969388,5.015241 -2.905618,8.315239 -3.399642,11.98295 -6.14557,15.85058 -13.603737,19.16081 -3.824662,1.69753 -10.304465,5.23561 -14.399565,7.86239 l -7.445637,4.77596 -2.381491,13.76709 c -5.262953,30.42444 -7.505591,43.41782 -8.617835,49.92995 -1.927011,11.28257 -5.863452,15.8926 -10.02067,11.73539 z M 88.413794,146 c -0.361722,-5.72187 -3.165915,-22.5299 -3.877532,-23.24152 -1.388548,-1.38854 -4.414812,3.88667 -7.596335,13.24152 -1.870514,5.5 -3.823145,11.0806 -4.33918,12.40133 -0.852974,2.18311 -0.165558,2.36487 7.563837,2 L 88.666664,150 Z M 86.216312,98.317012 c 0.416795,-2.025643 1.28863,-4.011052 1.937414,-4.412023 0.648782,-0.400969 1.200866,-2.343625 1.226852,-4.317013 0.02599,-1.973388 0.904725,-5.087977 1.952753,-6.921311 3.754896,-6.568504 2.773074,-8 -5.486964,-8 h -7.486965 l 0.8452,7.666667 c 0.46486,4.216667 1.563345,12.766667 2.441078,18.999998 1.747246,12.40827 1.341839,12.67581 4.570632,-3.016318 z m -4.216314,-32.98368 c 0.453225,-0.733333 -0.411366,-1.333333 -1.921311,-1.333333 -1.509945,0 -2.745356,0.6 -2.745356,1.333333 0,0.733334 0.86459,1.333334 1.921311,1.333334 1.056721,0 2.29213,-0.6 2.745356,-1.333334 z m 6.666666,-14.018259 c 0,-4.97861 -0.264016,-5.340755 -4.170632,-5.72075 -3.574404,-0.347682 -4.32622,0.12884 -5.258974,3.333334 -1.653328,5.68003 -1.499203,6.211394 2.096273,7.227103 6.066244,1.713694 7.333333,0.87747 7.333333,-4.839687 z"
       id="path499" />
  </g>
</svg>
