<?xml version="1.0" encoding="UTF-8" standalone="no"?>
<!-- Created with Inkscape (http://www.inkscape.org/) -->

<svg
   version="1.1"
   id="svg83"
   width="312"
   height="214.66667"
   viewBox="0 0 312 214.66667"
   xmlns="http://www.w3.org/2000/svg"
   xmlns:svg="http://www.w3.org/2000/svg">
  <defs
     id="defs87" />
  <g
     id="g89">
    <path
       style="fill:#000000;stroke-width:1.33333"
       d="m 48.683267,208.02686 c -0.444095,-0.71856 -0.84874,-23.96856 -0.899212,-51.66667 -0.05047,-27.6981 -0.402614,-52.0356 -0.782536,-54.08332 C 46.502221,99.585751 44.974135,97.971918 41.488708,96.454717 28.803635,90.932932 22.868537,89.333335 15.065735,89.333335 5.0123452,89.333335 4,88.075816 4,75.587656 c 0,-8.5381 0.023869,-8.592428 4.1363968,-9.414935 2.2750182,-0.455003 6.3373222,-0.475336 9.0273422,-0.04519 2.868154,0.458638 8.188265,-0.127866 12.863602,-1.418114 16.103087,-4.443955 23.367571,-5.685507 24.348178,-4.161276 0.513724,0.798521 0.978942,7.151857 1.033818,14.118524 0.05488,6.966667 0.600684,37.890415 1.21291,68.719435 0.612224,30.82901 0.695486,58.27901 0.185026,61 -0.763994,4.07244 -1.492929,4.94724 -4.122334,4.94724 -1.756826,0 -3.557578,-0.58792 -4.001672,-1.30648 z M 47.979583,82.333335 C 47.949352,71.968392 47.455727,71.593452 35.174245,72.606854 21.304548,73.751308 12,75.879052 12,77.906291 c 0,1.00918 4.745419,2.552118 12.333333,4.010092 6.783334,1.303377 14.433334,3.478874 17,4.834437 C 43.9,88.106383 46.45,89.241996 47,89.274407 c 0.55,0.03241 0.990812,-3.091072 0.979583,-6.941072 z M 173.31231,208.4219 c -0.0116,-0.59871 -0.29948,-23.88856 -0.63982,-51.75523 -0.34033,-27.86667 -0.95994,-52.16667 -1.37693,-54 -0.49795,-2.18935 -3.13832,-4.762688 -7.69352,-7.498183 -5.68972,-3.416807 -8.96661,-4.336154 -18.24465,-5.118611 -14.9993,-1.264957 -16.02406,-1.905111 -16.02406,-10.009987 0,-3.593125 0.58515,-8.072016 1.30034,-9.953088 1.21735,-3.201891 1.87673,-3.422136 10.33333,-3.451515 8.63873,-0.03001 25.29808,-3.566052 30.88325,-6.555144 3.55791,-1.90413 4.92167,-1.784406 7.35146,0.64537 1.7433,1.743309 2.07589,7.311701 2.1701,36.333334 0.0612,18.850974 0.27939,46.108904 0.48484,60.573184 0.20547,14.46429 0.0217,31.86429 -0.4082,38.66667 -0.77629,12.28102 -0.80756,12.37093 -4.44845,12.78986 -2.01667,0.23204 -3.67613,-0.068 -3.68769,-0.66666 z M 172.43039,80.333335 c -0.44143,-4.95 -0.91868,-9.149823 -1.06055,-9.332941 -0.14187,-0.183117 -7.55812,0.650472 -16.48056,1.85242 -15.54277,2.093779 -16.22261,2.317265 -16.22261,5.332941 0,2.620473 0.6816,3.14758 4.07012,3.14758 6.34136,0 23.04616,4.065061 25.2156,6.136137 4.2164,4.025235 5.31696,2.271389 4.478,-7.136137 z M 297.31231,207.08856 c -0.0116,-0.5987 -0.29948,-23.88856 -0.63982,-51.75522 -0.34033,-27.86667 -0.95994,-52.16667 -1.37693,-54.00001 -0.49795,-2.189347 -3.13832,-4.762682 -7.69352,-7.498177 -5.68972,-3.416806 -8.96661,-4.336153 -18.24465,-5.11861 -14.9993,-1.264958 -16.02406,-1.905111 -16.02406,-10.009987 0,-3.593126 0.58515,-8.072016 1.30034,-9.953088 1.21736,-3.201891 1.87673,-3.422136 10.33333,-3.451515 8.63873,-0.03001 25.29808,-3.566052 30.88325,-6.555144 3.55791,-1.904131 4.92167,-1.784407 7.35146,0.645369 1.7433,1.74331 2.07589,7.311702 2.1701,36.333334 0.0612,18.850968 0.27939,46.108908 0.48484,60.573188 0.20547,14.46429 0.0217,31.86429 -0.4082,38.66666 -0.77629,12.28103 -0.80756,12.37094 -4.44845,12.78987 -2.01667,0.23204 -3.67613,-0.068 -3.68769,-0.66667 z M 296.43039,79.000001 c -0.44143,-4.95 -0.91868,-9.149823 -1.06055,-9.33294 -0.14187,-0.183117 -7.55812,0.650472 -16.48056,1.85242 -15.54277,2.093779 -16.22261,2.317264 -16.22261,5.33294 0,2.620474 0.6816,3.14758 4.07012,3.14758 6.34136,0 23.04616,4.065062 25.2156,6.136138 4.2164,4.025234 5.31696,2.271389 4.478,-7.136138 z M 102.70543,38.705426 C 101.26008,37.260077 98.25144,32.460077 96.019565,28.038759 90.528241,17.160507 86.927671,17.579611 84.686868,29.35788 c -1.109603,5.83237 -5.336549,11.189766 -8.017075,10.161151 -2.606057,-1.000037 -2.608213,-8.023668 -0.0031,-10.185697 1.1,-0.912919 2,-2.411728 2,-3.330686 0,-4.294326 6.874704,-16.8212731 10.017164,-18.2530736 3.69891,-1.6853364 5.162449,-0.4863844 9.257353,7.5837596 1.116312,2.2 3.80214,6.1 5.96851,8.666666 3.8594,4.572527 3.98038,4.612872 5.99706,2 1.132,-1.466666 2.75028,-5.066666 3.59618,-8 1.93164,-6.698477 6.69667,-11.3801578 10.55565,-10.371014 1.55857,0.4075776 3.1849,1.707792 3.61405,2.889365 1.73558,4.778585 9.74154,16.148316 11.37078,16.148316 0.95876,0 2.84928,-2.682188 4.20118,-5.960419 1.35188,-3.27823 3.57489,-6.971224 4.94002,-8.20665 1.36514,-1.235427 2.48206,-3.0532388 2.48206,-4.0395813 0,-1.0073846 1.41178,-1.7933499 3.22129,-1.7933499 3.37947,0 8.71111,5.7721992 13.54725,14.6666672 4.67507,8.598205 4.58635,8.620944 10.09828,-2.588347 6.66508,-13.5543729 11.04911,-15.24236 16.87342,-6.49679 1.24286,1.86625 3.91729,5.873871 5.94314,8.905826 2.02587,3.031955 4.26576,5.512644 4.97755,5.512644 0.71177,0 2.77101,-2.914467 4.57608,-6.476593 1.80507,-3.562126 4.86987,-8.363739 6.81067,-10.6702517 3.47957,-4.1352253 3.5814,-4.1625533 7.30786,-1.9612683 2.07854,1.2278149 4.87384,4.661175 6.2118,7.629689 1.33796,2.968515 3.88858,7.128048 5.66804,9.243407 l 3.23539,3.846109 3.03769,-5.805547 c 1.67074,-3.193049 3.08478,-6.705545 3.14231,-7.805545 0.16391,-3.133768 4.84136,-8.0000002 7.68964,-8.0000002 1.41879,0 3.53103,1.0512893 4.69385,2.3361985 3.66498,4.0497457 14.45975,25.9885647 13.72699,27.8981087 -2.28023,5.942188 -9.66424,1.470673 -14.08877,-8.531695 -1.38739,-3.136436 -3.11542,-5.702612 -3.84006,-5.702612 -1.61241,0 -5.58096,5.640765 -8.6191,12.250927 -2.42399,5.273889 -6.14727,7.331384 -9.68466,5.351763 -1.20549,-0.67463 -4.6676,-5.312594 -7.69357,-10.306587 -3.02597,-4.993992 -6.10176,-8.953428 -6.83509,-8.798746 -0.73334,0.154683 -3.43334,4.446212 -6,9.536732 -7.019,13.920921 -10.23492,13.889187 -19.34327,-0.190872 -3.26495,-5.047102 -6.52191,-9.17655 -7.23769,-9.17655 -0.71578,0 -3.75435,4.2 -6.75238,9.333333 -4.74945,8.13219 -5.94498,9.333334 -9.28974,9.333334 -3.27195,0 -4.75246,-1.374332 -10.0262,-9.307183 -3.40307,-5.11895 -6.65348,-9.595235 -7.22314,-9.947299 -0.56965,-0.352064 -2.89529,3.495737 -5.1681,8.550668 -4.19756,9.335799 -7.89135,12.834798 -12.00984,11.376528 -2.37039,-0.839301 -12.28298,-15.249128 -12.28298,-17.855636 0,-3.079148 -3.59559,-1.315352 -5.80904,2.849588 -8.67087,16.315592 -11.41481,18.442816 -16.81886,13.038759 z"
       id="path638" />
  </g>
</svg>
