<?xml version="1.0" encoding="UTF-8" standalone="no"?>
<!-- Created with Inkscape (http://www.inkscape.org/) -->

<svg
   version="1.1"
   id="svg175"
   width="218.66667"
   height="210.66667"
   viewBox="0 0 218.66667 210.66667"
   xmlns="http://www.w3.org/2000/svg"
   xmlns:svg="http://www.w3.org/2000/svg">
  <defs
     id="defs179" />
  <g
     id="g181">
    <path
       style="fill:#000000;stroke-width:1.33333"
       d="M 106.66667,202.66667 C 105.2,201.2 104,199.29432 104,198.43183 c 0,-0.86248 -0.15,-21.71248 -0.33333,-46.33333 l -0.33334,-44.76516 6.91734,-0.40015 c 5.56697,-0.32203 7.16192,0.0684 8.17029,2 0.68913,1.32008 1.53094,22.44554 1.87068,46.94547 0.58174,41.95078 0.47475,44.68829 -1.83696,47 -3.21629,3.21629 -8.45393,3.12209 -11.78801,-0.21199 z M 92.666668,61.347069 c -8.066667,-0.541635 -17.066667,-1.617263 -20,-2.390284 -2.933334,-0.77302 -9.833334,-2.086583 -15.333334,-2.919025 -5.5,-0.832444 -12.1,-2.333462 -14.666667,-3.335595 C 40.100001,51.70003 32.58665,48.732079 25.970331,46.106718 19.354014,43.481357 13.347883,41.333334 12.623373,41.333334 c -1.944655,0 -8.6266656,-6.514501 -8.6029559,-8.387292 0.055232,-4.362668 6.3975719,-7.873167 25.3129169,-14.010755 18.705851,-6.069611 25.764512,-7.814051 42,-10.3796513 17.341894,-2.7404395 55.648566,-3.6906119 70.000006,-1.7363049 10.06124,1.3700903 38.55762,8.0132992 46,10.7237332 11.82089,4.305044 24.49424,11.017975 25.66909,13.596631 1.66951,3.664336 0.11093,7.840582 -3.87084,10.37232 -3.47069,2.206759 -28.63167,10.505771 -31.81843,10.494886 -1.11109,-0.0037 -9.81109,1.728747 -19.33333,3.850093 -9.52224,2.121347 -22.11316,4.236387 -27.97983,4.70009 -5.86666,0.463702 -13.36666,1.052722 -16.66666,1.308936 -3.3,0.256212 -12.60001,0.02268 -20.666672,-0.518951 z m 38.666672,-13.41773 c 26.09873,-2.991009 58.85613,-9.71231 61.95766,-12.712738 4.34408,-4.202453 -6.45458,-8.714267 -30.54077,-12.76031 -26.67755,-4.481345 -51.98494,-5.597971 -70.757487,-3.122 -8.336091,1.099473 -17.375775,1.999043 -20.088189,1.999043 -2.712413,0 -7.850561,0.863388 -11.418106,1.918641 -3.567546,1.055252 -11.109769,2.635564 -16.760495,3.511803 -5.650726,0.876238 -12.216305,2.774318 -14.590174,4.217954 -3.957428,2.406657 -4.110237,2.740014 -1.838719,4.011219 5.962642,3.336863 32.200632,9.351407 50.702941,11.622656 7.333334,0.900203 14.233334,1.790143 15.333334,1.977644 4.989156,0.850434 28.347185,0.442336 38.000005,-0.663912 z"
       id="path650" />
  </g>
</svg>
