<?xml version="1.0" encoding="UTF-8" standalone="no"?>
<!-- Created with Inkscape (http://www.inkscape.org/) -->

<svg
   version="1.1"
   id="svg223"
   width="109.33333"
   height="214.66667"
   viewBox="0 0 109.33333 214.66667"
   xmlns="http://www.w3.org/2000/svg"
   xmlns:svg="http://www.w3.org/2000/svg">
  <defs
     id="defs227" />
  <g
     id="g229">
    <path
       style="fill:#000000;stroke-width:1.33333"
       d="m 50.97952,208.95431 c -2.611895,-1.1934 -2.897937,-2.02764 -2.114585,-6.1672 C 49.363176,200.1542 49.814748,190.5 49.868428,181.33334 49.959414,165.79724 49.727406,164.21444 46.448327,158 39.857768,145.50972 33.511978,142.5982 20.350942,146.02622 c -9.571045,2.49294 -11.6591,2.47514 -14.2557041,-0.12147 -2.763166,-2.76315 -2.6592787,-7.59799 0.2380952,-11.08075 1.8126624,-2.17889 4.4160169,-2.97858 11.6666659,-3.58373 9.295547,-0.77581 9.375168,-0.75375 19.666667,5.44817 5.683333,3.42492 10.351578,6.92114 10.373878,7.76935 0.02229,0.84821 0.747053,0.34221 1.610565,-1.12445 2.301159,-3.9085 2.983893,-78.206619 0.903527,-98.325759 C 49.02632,30.227296 48.684481,29.055295 44.463537,24.12407 38.675225,17.36173 31.210663,15.663078 25.841562,19.886414 21.025642,23.674618 16.837418,23.377311 11.816143,18.890802 L 7.5902151,15.114935 12.128441,11.703476 c 6.228506,-4.6820722 11.62441,-5.5423538 22.908973,-3.6524316 8.751494,1.4656879 10.193759,2.1751646 15.822064,7.7831616 8.768732,8.737093 9.497388,12.413058 9.811797,49.499128 0.66975,78.999906 0.620047,77.782186 3.084856,75.579016 1.234127,-1.10313 5.701622,-3.89529 9.927765,-6.2048 7.793644,-4.25908 10.842275,-4.51415 23.291849,-1.94877 3.235875,0.6668 7.385195,7.24573 5.926895,9.39736 -3.501402,5.16604 -13.154203,7.55717 -16.113436,3.99152 -2.091457,-2.52006 -8.201029,-3.5328 -11.301632,-1.87342 -3.396493,1.81775 -8.726245,7.965 -8.778773,10.12531 -0.02317,0.95308 -1.035137,3.65308 -2.248808,6 -1.530744,2.96005 -2.545356,9.98495 -3.312349,22.93379 -0.608123,10.26666 -1.422204,19.99934 -1.80907,21.62818 -0.948376,3.99296 -4.571246,5.72347 -8.359052,3.99279 z"
       id="path251" />
  </g>
</svg>
