<?xml version="1.0" encoding="UTF-8" standalone="no"?>
<!-- Created with Inkscape (http://www.inkscape.org/) -->

<svg
   version="1.1"
   id="svg213"
   width="218.66667"
   height="202.66667"
   viewBox="0 0 218.66667 202.66667"
   xmlns="http://www.w3.org/2000/svg"
   xmlns:svg="http://www.w3.org/2000/svg">
  <defs
     id="defs217" />
  <g
     id="g219">
    <path
       style="fill:#000000;stroke-width:1.33333"
       d="M 33.333334,196.11287 C 24.60363,192.76651 16.03563,186.9931 14.77774,183.60946 c -2.695631,-7.25106 3.621246,-8.50738 10.648783,-2.11787 6.2582,5.69003 11.849855,7.84175 20.378243,7.84175 7.381892,0 15.636088,-2.95212 12.930151,-4.62448 -0.805023,-0.49754 -5.145706,-0.71056 -9.645962,-0.4734 -7.975746,0.42033 -8.208113,0.33689 -9.205628,-3.3052 -0.88928,-3.24692 -0.555648,-3.92924 2.546664,-5.20823 6.378295,-2.62959 20.986771,-2.9116 26.962694,-0.52052 4.690152,1.87663 12.424784,2.15857 57.602835,2.09969 35.4573,-0.0461 52.74394,-0.53168 53.92819,-1.51452 1.22411,-1.01592 1.74517,-5.46625 1.7504,-14.94993 0.004,-7.42688 0.62292,-15.71948 1.37517,-18.42799 1.25039,-4.50201 1.86982,-4.99986 7.21868,-5.80198 8.73958,-1.31058 16.67199,0.39122 17.98163,3.85776 0.59611,1.57784 1.30881,12.7688 1.58379,24.8688 l 0.49996,22 -67.33334,0.14298 -67.333332,0.14299 -5.081602,3.45279 c -10.752814,7.30621 -26.818787,9.42336 -38.251732,5.04077 z M 200.49295,173 c 0.44219,-1.65 0.81217,-7.55701 0.82219,-13.12668 0.0145,-8.10201 -0.46528,-10.56422 -2.4,-12.31513 -4.25818,-3.85359 -5.5818,-0.36573 -5.5818,14.70848 0,13.58079 0.0353,13.73333 3.17782,13.73333 2.16842,0 3.4332,-0.95292 3.98179,-3 z M 89.834177,117.01106 c -11.36232,-1.43432 -13.645371,-5.59362 -8.551282,-15.57885 2.754389,-5.399052 10.668164,-12.465738 16.400837,-14.645297 1.870503,-0.711164 7.051668,-1.706061 11.513708,-2.210884 12.59235,-1.424661 25.28931,3.1118 34.54283,12.341707 6.78967,6.772334 7.05727,7.310314 6.66667,13.402244 L 150,116.66667 123.83418,117.33334 C 109.44297,117.7 94.142973,117.55498 89.834177,117.01106 Z m 46.646403,-7.19229 c 7.41646,-1.01654 7.99641,-3.31078 2.41673,-9.56043 -2.49777,-2.797697 -6.65837,-5.1632 -12.33333,-7.012108 -15.2315,-4.96244 -29.510604,-1.421361 -37.068417,9.192608 -4.098924,5.75641 -1.845898,6.73844 16.587457,7.22997 8.75434,0.23344 17.78324,0.55346 20.06422,0.71115 2.28098,0.15769 6.93098,-0.0948 10.33334,-0.56119 z M 80.848477,58.985613 C 76.348482,58.061033 68.466668,56.781382 63.333334,56.141944 58.200001,55.502506 50.700001,53.699329 46.666667,52.134884 42.633334,50.570438 37.103398,49.41621 34.377921,49.569931 30.766267,49.773635 27.873787,48.785162 23.711254,45.924714 20.570064,43.766122 15.082939,40.531047 11.51764,38.735661 7.9523421,36.940273 4.4406135,34.166169 3.7137989,32.570985 1.9251748,28.645382 4.4904715,24 8.4469119,24 c 1.6608651,0 3.7204801,-0.700725 4.5769221,-1.557166 1.46553,-1.465531 4.915384,-2.961862 14.3095,-6.206567 4.70332,-1.624515 15.696135,-3.950295 26,-5.500892 C 57.366668,10.128411 64.357848,8.9610188 68.869289,8.1411695 81.756557,5.7992096 111.6185,4.4321299 123.33649,5.6476616 c 5.86493,0.6083818 15.46351,1.5419116 21.33018,2.0745107 5.86667,0.532599 11.47664,1.485468 12.46661,2.1174865 0.98996,0.6320182 5.48996,1.6994422 10,2.3720532 14.67555,2.188663 16.75143,2.709472 18.31659,4.595375 0.84883,1.022769 2.63444,1.85958 3.96804,1.85958 1.33359,0 2.74169,0.512887 3.12912,1.139747 0.38741,0.626861 4.29732,2.449789 8.68865,4.050953 13.6131,4.96358 16.55294,12.812139 6.64151,17.731008 -6.27783,3.115586 -12.90789,5.794206 -19.21052,7.761272 -2.93333,0.915502 -5.93333,2.110667 -6.66667,2.655925 -1.46957,1.092678 -13.93954,3.298153 -15.89905,2.811954 -0.67781,-0.168181 -3.97781,0.572075 -7.33333,1.645012 -11.11987,3.555608 -64.483649,5.283564 -77.919143,2.523075 z M 144.61152,45.929195 c 5.897,-1.121582 16.85355,-3.51448 24.3479,-5.31755 7.49434,-1.803071 14.84434,-3.278311 16.33333,-3.278311 1.81836,0 2.70725,-0.875563 2.70725,-2.666667 0,-2.222222 -0.88889,-2.666666 -5.33333,-2.666666 -2.93333,0 -5.33333,-0.488872 -5.33333,-1.086384 0,-2.021685 -9.39119,-5.580283 -14.72644,-5.580283 -2.91644,0 -7.84608,-1.143416 -10.95476,-2.540926 C 148.54347,21.3949 141.5,19.872506 136,19.409311 108.85375,17.12313 105.74198,17.093171 96.000001,19.024194 c -5.5,1.090192 -12.65849,1.682369 -15.907757,1.315948 -3.249265,-0.36642 -10.449266,0.291444 -16,1.461921 -5.550734,1.170477 -15.47669,3.117967 -22.057682,4.327753 -12.886784,2.368986 -18.352383,4.27725 -17.269448,6.029475 1.261442,2.041058 9.218144,5.169508 18.258071,7.17879 4.937249,1.097389 13.026816,2.890256 17.976816,3.984146 4.95,1.093892 10.638353,2.66186 12.640785,3.484374 2.002432,0.822514 5.03029,1.146736 6.728575,0.720494 1.698284,-0.426242 4.859931,-0.200537 7.025882,0.501568 5.517257,1.788451 44.246407,0.36734 57.216277,-2.099468 z"
       id="path390" />
  </g>
</svg>
