<?xml version="1.0" encoding="UTF-8" standalone="no"?>
<!-- Created with Inkscape (http://www.inkscape.org/) -->

<svg
   version="1.1"
   id="svg2"
   width="209.33333"
   height="73.333336"
   viewBox="0 0 209.33333 73.333336"
   xmlns="http://www.w3.org/2000/svg"
   xmlns:svg="http://www.w3.org/2000/svg">
  <defs
     id="defs6" />
  <g
     id="g8">
    <path
       style="fill:#000000;stroke-width:1.33333"
       d="M 6.2200652,66.796205 C 5.3656959,65.76745 4.6666666,60.972872 4.6666666,56.141587 v -8.784155 l 4.6666666,-1.505154 c 3.6903098,-1.190247 5.0282228,-2.579046 6.3947838,-6.638005 1.987105,-5.9021 3.498275,-7.165419 8.605216,-7.193855 C 27.709617,32.001618 28,31.583857 28,26.745357 c 0,-5.876903 1.19468,-7.085263 7.196285,-7.27869 3.921162,-0.126376 4.115278,-0.384905 3.719876,-4.954257 -0.278712,-3.220859 0.34403,-5.5821262 1.8763,-7.1143949 2.45037,-2.4503701 -6.144612,-2.4371909 133.795139,-0.2051562 22.47837,0.3585295 24.72773,0.6101334 26.22121,2.9329901 1.05795,1.645456 1.96427,11.954349 2.57191,29.254123 l 0.93829,26.713305 -3.82617,1.750568 C 194.67448,70.505891 8.4669832,69.501744 6.2200652,66.796205 Z M 145.06433,58.435325 c 0.39284,-2.061299 -3.97536,-2.213715 -57.319541,-2 C 55.985155,56.562563 27.75,56.189481 25,55.606251 c -3.26524,-0.692504 -5,-0.576853 -5,0.333334 0,0.766562 0.9,1.39375 2,1.39375 1.1,0 2,0.560996 2,1.246659 0,0.7532 20.069643,1.207532 50.703363,1.14781 27.886847,-0.05437 51.111427,0.30921 51.610167,0.80795 0.49874,0.49874 4.82602,0.732226 9.61619,0.518858 6.89006,-0.306906 8.7982,-0.854048 9.13461,-2.619287 z m 41.60233,0.474548 c 0,-2.244651 -10.01113,-12.243205 -12.25861,-12.243205 -1.95763,0 -11.74139,9.943854 -11.74139,11.933519 0,0.432771 5.4,0.958384 12,1.168031 6.779,0.215334 12,-0.15812 12,-0.858345 z M 164.71402,41.221484 c 1.07395,-1.161517 1.95264,-2.674811 1.95264,-3.362875 0,-2.104205 -8.08026,-11.191941 -9.9512,-11.191941 -2.18312,0 -3.06562,6.844876 -2.28101,17.692051 l 0.58971,8.152656 3.86861,-4.58902 c 2.12773,-2.523961 4.74729,-5.539352 5.82125,-6.700871 z m 28.16734,3.503195 c -0.46112,-3.364197 -0.25052,-6.290511 0.48542,-6.745356 1.4734,-0.910612 1.7871,-11.714335 0.38096,-13.12047 -0.98708,-0.987075 -12.41441,9.602824 -12.41441,11.504638 0,1.151865 10.89271,14.301308 11.84789,14.302523 0.28302,3.6e-4 0.14807,-2.67324 -0.29986,-5.941335 z M 145.07654,45.65128 C 144.56968,43.019386 145.25097,43.057588 83.709535,42.21017 61.183112,41.899984 40.606885,41.243693 37.984585,40.751747 32.235594,39.673229 28,40.814795 28,43.442763 c 0,1.571281 2.786256,1.924863 14.999999,1.903528 8.25,-0.01441 19.2,0.438903 24.333333,1.007361 5.133334,0.568459 24.823453,1.151323 43.755828,1.295254 31.71821,0.241133 34.3883,0.0842 33.98738,-1.997626 z m 1.34952,-14.651279 0.42607,-3 L 95.7594,27.755754 C 40.372613,27.49098 38.706231,27.51599 37.593453,28.628769 c -2.515116,2.515117 4.269038,3.62239 25.085126,4.094258 12.655774,0.286885 23.281074,0.792184 23.611776,1.122886 0.330702,0.330702 13.900655,0.500659 30.155455,0.377682 L 146,34.000001 Z m 36.20175,-7.217459 c 3.68804,-3.786268 6.70552,-7.386268 6.70552,-8 0,-0.613731 -6.92981,-1.115875 -15.39959,-1.115875 -12.51297,0 -15.19972,0.334911 -14.33333,1.786688 1.91089,3.202024 13.0234,13.794753 14.69407,14.006751 0.89529,0.113614 4.64529,-2.891294 8.33333,-6.677564 z m -37.10347,-4.679359 c 0.93319,-1.12442 1.07516,-2.359897 0.35248,-3.06711 -0.66558,-0.651334 -22.98257,-1.375906 -49.59329,-1.610158 -47.74272,-0.420277 -48.378063,-0.390617 -47.999999,2.240752 0.368718,2.566323 1.537099,2.680036 31.049801,3.021948 C 96.199998,19.884021 110.9,20.257189 112,20.517879 c 1.1,0.260691 8.74138,0.472675 16.98085,0.471078 11.27273,-0.0021 15.36764,-0.46896 16.54349,-1.885774 z"
       id="path30" />
  </g>
</svg>
