<?xml version="1.0" encoding="UTF-8" standalone="no"?>
<!-- Created with Inkscape (http://www.inkscape.org/) -->

<svg
   version="1.1"
   id="svg193"
   width="212"
   height="220"
   viewBox="0 0 212 220"
   xmlns="http://www.w3.org/2000/svg"
   xmlns:svg="http://www.w3.org/2000/svg">
  <defs
     id="defs197" />
  <g
     id="g199">
    <path
       style="fill:#000000;stroke-width:1.33333"
       d="m 127.57232,215.12788 c -0.47966,-0.47967 -18.53104,-0.92967 -40.114161,-1 L 48.216116,214 44.749532,210.74392 c -2.015307,-1.89293 -3.804387,-5.36859 -4.273473,-8.30211 l -0.80689,-5.046 -9.501252,0.0617 c -12.634733,0.082 -21.7074794,-1.29615 -23.6080115,-3.58615 -2.2653132,-2.72953 0.6063901,-8.58183 5.8340035,-11.8892 6.191736,-3.91736 6.106103,-6.66611 -0.309641,-9.93917 -4.1033173,-2.09339 -5.4176013,-3.55459 -5.4176013,-6.02322 0,-3.62593 3.3682283,-6.01981 8.4699613,-6.01981 5.479272,0 7.509585,1.39632 10.417395,7.16444 1.525569,3.02623 2.999932,5.75215 3.27636,6.0576 0.276428,0.30547 2.810509,-1.94453 5.631293,-5 4.113649,-4.45588 6.040059,-5.55537 9.733511,-5.55537 5.331525,0 7.804813,1.9619 7.804813,6.19106 C 52,172.33912 47.405701,176 43.036659,176 c -4.76722,0 -4.137958,6.02868 0.901258,8.63456 3.808192,1.96929 6.702083,8.19213 6.721314,14.45309 0.01527,4.96911 2.589469,7.57902 7.475336,7.57902 5.589657,0 8.524638,-1.43286 16.5321,-8.07096 14.47735,-12.00158 26.051243,-13.45854 46.666663,-5.87456 2.56667,0.94422 7.36667,2.60016 10.66667,3.67984 3.3,1.07969 9.29153,3.23116 13.31451,4.78104 4.02298,1.54989 9.01242,2.81797 11.08765,2.81797 2.07524,0 4.79377,0.54621 6.04119,1.21381 1.24742,0.6676 10.95797,1.61091 21.57901,2.09622 20.46284,0.93504 24.18009,2.07998 20.97661,6.461 -1.5712,2.14874 -3.9596,2.22584 -33.00268,1.06528 -18.72148,-0.74811 -32.21592,-0.76568 -33.56494,-0.0437 -2.61326,1.39858 -9.58061,1.6137 -10.85903,0.33528 z m -4.90565,-10.96612 c 0,-2.84213 -8.39389,-4.51307 -19.26435,-3.83489 -12.309129,0.76794 -16.861316,2.29346 -11.388879,3.81661 4.908663,1.36624 30.653229,1.3816 30.653229,0.0183 z M 26.666667,188 c 0,-0.73333 -0.9,-1.33333 -2,-1.33333 -1.1,0 -2,0.6 -2,1.33333 0,0.73333 0.9,1.33333 2,1.33333 1.1,0 2,-0.6 2,-1.33333 z m 30.666666,-30.52427 c -5.5,-0.44498 -10.75,-1.29448 -11.666666,-1.88776 -2.296466,-1.48629 -2.087467,-6.90666 0.455956,-11.82509 C 51.797167,132.78951 53.339259,111.85671 49.641248,96 45.864499,79.805665 44.989648,70.7307 44.942172,47.255769 44.893245,23.063007 45.043864,21.538356 48.084145,15.450784 52.040684,7.5285823 55.084568,5.3200585 61.963341,5.3805805 73.621272,5.4831515 77.325853,11.657701 77.934351,32 c 0.631074,21.097097 -2.904667,48.937053 -9.194771,72.39839 -1.140103,4.25244 -2.072913,10.44665 -2.072913,13.76491 0,6.6705 5.732868,25.24842 8.860088,28.71198 1.174632,1.30097 1.818613,4.04068 1.567025,6.66667 -0.392056,4.09213 -0.810153,4.46974 -5.09378,4.60045 -2.566667,0.0783 -9.166667,-0.22168 -14.666667,-0.66667 z m 7.270071,-9.37337 c 0.640807,-1.03684 -4.1023,-10.76903 -5.248425,-10.76903 -0.776299,0 -4.33458,6.09683 -5.252652,9 -0.875942,2.76995 -0.538844,3 4.3958,3 2.939472,0 5.686846,-0.55393 6.105277,-1.23097 z M 61.898211,89 C 64.629904,75.689445 65.364555,70.818781 66.659816,57.431049 67.470541,49.05146 68.387377,41.785233 68.697229,41.283881 69.71648,39.634699 65.772187,20.135355 63.983349,17.979936 61.029595,14.42088 56.899368,16.089409 55.682456,21.333333 54.234132,27.574452 55.686723,76.172588 57.585372,85 c 1.592241,7.402621 3.291155,8.978301 4.312839,4 z m 94.435119,50.11696 c -1.14282,-0.46115 -1.6655,-4.09493 -1.663,-11.5614 0.003,-5.98889 -0.66234,-21.90898 -1.47637,-35.377985 -1.6766,-27.740991 -1.07929,-31.319079 5.10792,-30.598384 4.83828,0.563572 5.22848,2.70913 7.59348,41.754139 1.926,31.79706 1.92096,32.0148 -0.79292,34.33334 -2.69335,2.301 -5.50743,2.76641 -8.76911,1.45029 z"
       id="path647" />
  </g>
</svg>
