<?xml version="1.0" encoding="UTF-8" standalone="no"?>
<!-- Created with Inkscape (http://www.inkscape.org/) -->

<svg
   version="1.1"
   id="svg183"
   width="178.66667"
   height="205.33333"
   viewBox="0 0 178.66667 205.33333"
   xmlns="http://www.w3.org/2000/svg"
   xmlns:svg="http://www.w3.org/2000/svg">
  <defs
     id="defs187" />
  <g
     id="g189">
    <path
       style="fill:#000000;stroke-width:1.33333"
       d="m 158.09524,197.90476 c -1.15238,-1.15238 -2.18092,-3.40238 -2.28562,-5 -0.43572,-6.6477 0.42656,-55.08539 1.01773,-57.1699 1.43007,-5.0425 11.61905,-4.58166 13.30039,0.60156 0.7427,2.28963 1.09758,36.51852 0.5934,57.235 -0.0788,3.23604 -3.74766,6.42858 -7.3878,6.42858 -1.72858,0 -4.08572,-0.94286 -5.2381,-2.09524 z M 32.000001,187.85657 c -1.940039,-0.79931 -6.978154,-1.01156 -12.053243,-0.50777 -7.458956,0.74041 -9.183078,0.49053 -11.9228655,-1.72802 -3.1421655,-2.54436 -3.1684979,-2.74252 -1.3874341,-10.44052 4.3596506,-18.84301 12.9405046,-27.92652 32.6733906,-34.58733 6.41708,-2.16608 7.075091,-2.13848 19.333333,0.81117 12.162009,2.92651 12.98699,3.36014 19.822527,10.41938 7.755438,8.00925 13.534293,19.24378 13.534293,26.31169 0,7.25735 -4.212491,9.06376 -21.878346,9.38191 -8.133576,0.14649 -19.288322,0.59181 -24.788322,0.9896 -5.63432,0.4075 -11.455227,0.12373 -13.333333,-0.65011 z m 40.286612,-9.89239 c 7.638284,-1.40589 8.387917,-3.31038 4.26184,-10.82756 -6.480092,-11.80586 -13.929465,-17.3344 -24.927652,-18.49997 -13.80156,-1.46269 -30.738909,9.14877 -33.987081,21.29332 -0.920761,3.44263 -1.335184,6.80771 -0.920938,7.47797 0.414244,0.67027 7.384476,1.18882 15.489404,1.15235 8.104929,-0.0365 15.117511,0.31496 15.583518,0.78096 0.938117,0.93812 16.751075,0.0493 24.500909,-1.37707 z M 87.744272,92.633158 C 87.359176,92.248063 84.709176,91.853441 81.855383,91.756223 75.303877,91.533037 60.74099,84.695959 57.183208,80.172972 c -1.486311,-1.889539 -3.03557,-5.101451 -3.442795,-7.137583 -0.407227,-2.036131 -1.238224,-3.702057 -1.846661,-3.702057 -0.608438,0 -1.512412,-2.25 -2.008834,-5 -0.496421,-2.75 -1.52555,-6.2 -2.286952,-7.666666 -0.761402,-1.466667 -1.31202,-6.202539 -1.223594,-10.524159 0.146937,-7.181294 0.682778,-8.529686 6.226534,-15.668457 3.336168,-4.296032 6.065762,-8.321649 6.065762,-8.94582 0,-0.624169 3.608941,-3.970198 8.019871,-7.435621 6.708864,-5.2707821 9.360185,-6.4902193 16.219031,-7.459711 4.995604,-0.706124 9.121248,-0.6654585 10.559141,0.1040787 1.297989,0.6946629 4.229221,1.2630232 6.513848,1.2630232 6.006501,0 11.588691,3.2970181 20.897681,12.3428211 5.74525,5.582816 9.02065,10.096937 10.91156,15.038189 2.53888,6.634511 2.58983,7.703192 0.8439,17.7041 -1.86921,10.707106 -4.93426,17.715605 -10.79506,24.683855 -1.74348,2.072932 -3.16997,4.322932 -3.16997,5 0,0.677068 -0.80668,1.231034 -1.79262,1.231034 -0.98593,0 -3.53593,1.542546 -5.66666,3.42788 -2.13073,1.885334 -5.26311,3.985334 -6.96085,4.666666 -3.28652,1.318936 -15.328897,1.711984 -16.502268,0.538613 z m 9.291144,-10.033642 c 0.450259,-2.380892 -4.890538,-10.794141 -7.368748,-11.607838 -0.986073,-0.323768 -1.666666,0.622882 -1.666666,2.318198 0,1.575988 -0.646203,4.072873 -1.436004,5.548632 -0.789803,1.47576 -1.094626,3.572821 -0.677383,4.660137 1.048005,2.731059 10.607544,1.942951 11.148801,-0.919129 z M 81.133212,71.74805 c 5.951139,-17.395856 7.65344,-18.06266 16.271572,-6.373687 3.260706,4.422567 6.868756,9.302438 8.017886,10.844161 1.79739,2.411443 2.51079,2.577576 5.10548,1.188943 8.54865,-4.5751 11.0387,-11.790296 5.13852,-14.889423 -1.65,-0.866678 -5.01666,-3.327981 -7.48146,-5.469561 -2.4648,-2.141581 -5.94623,-4.450693 -7.73652,-5.13136 -2.452579,-0.932468 -2.964731,-1.756382 -2.077395,-3.341966 1.235814,-2.208276 2.172325,-2.814642 14.189045,-9.187036 7.76131,-4.11578 8.81899,-6.218622 5.93971,-11.809109 -4.78743,-9.295407 -12.67893,-11.881978 -16.0043,-5.245679 -7.477248,14.92203 -9.63887,17.798172 -13.07585,17.398049 -3.289018,-0.382896 -6.097253,-4.576664 -11.419899,-17.054264 -2.298086,-5.387284 -5.075956,-6.106793 -9.875937,-2.558014 -5.243021,3.876334 -9.987186,11.243775 -8.96148,13.916719 0.657181,1.712588 4.062207,3.650748 11.504084,6.548191 4.742041,1.84628 10.031643,5.795067 10.415312,7.775225 0.535862,2.765643 -2.743704,5.72572 -13.613523,12.287325 -4.840984,2.922278 -8.801789,5.859498 -8.801789,6.527156 0,1.383648 15.915267,16.826279 17.341263,16.826279 0.513633,0 2.820009,-5.513378 5.125281,-12.251949 z M 63.260135,53.380531 c 6.061376,-3.38492 5.781901,-5.856028 -0.884473,-7.820444 -3.139946,-0.925265 -6.313689,-1.956368 -7.05276,-2.291338 -2.814618,-1.275675 -4.477821,4.030042 -2.871794,9.161198 1.668706,5.33142 2.787997,5.429855 10.809027,0.950584 z m 61.112195,-1.713865 c 0.90164,-5.788399 -0.51687,-6.932476 -6.24958,-5.040512 -5.75183,1.898275 -5.93438,2.963859 -1.12275,6.553729 5.09669,3.802549 6.59212,3.495604 7.37233,-1.513217 z M 93.505388,23 c 0.79652,-2.016667 2.003983,-4.741074 2.683251,-6.054236 C 98.07365,13.30166 96.417486,12 89.89591,12 c -5.811572,0 -5.926734,0.08333 -5.067524,3.666666 1.256412,5.239879 4.346512,11 5.901108,11 0.730222,0 1.979376,-1.65 2.775894,-3.666666 z"
       id="path786" />
  </g>
</svg>
