<?xml version="1.0" encoding="UTF-8" standalone="no"?>
<!-- Created with Inkscape (http://www.inkscape.org/) -->

<svg
   version="1.1"
   id="svg173"
   width="201.33333"
   height="106.66667"
   viewBox="0 0 201.33333 106.66667"
   xmlns="http://www.w3.org/2000/svg"
   xmlns:svg="http://www.w3.org/2000/svg">
  <defs
     id="defs177" />
  <g
     id="g179">
    <path
       style="fill:#000000;stroke-width:1.33333"
       d="m 32.333333,101.00671 c -4.442804,-2.094358 -4.028069,-7.378314 0.666666,-8.493716 8.379092,-1.990754 10.946099,-8.418574 4.666667,-11.685399 -2.016667,-1.049155 -5.121255,-3.464563 -6.899085,-5.367574 -2.243896,-2.401893 -4.607948,-3.460019 -7.730332,-3.460019 -3.067144,0 -5.466099,-1.044689 -7.5416,-3.284192 C 11.701332,64.621673 7.6339687,51.543528 8.2235923,45.333335 8.6047301,41.319011 9.4584773,40.2939 14.331045,38.000001 c 3.732251,-1.757063 5.964669,-3.803672 6.544732,-6 2.185111,-8.27361 13.167662,-17.349842 23.188637,-19.163619 2.602095,-0.470975 7.693588,-0.302861 11.314428,0.373585 5.473469,1.022555 7.654264,2.382441 12.935585,8.066291 3.493732,3.760013 6.352238,7.624036 6.352238,8.586719 0,0.962681 2.696926,3.455041 5.993168,5.538576 6.828628,4.316336 7.8212,6.468642 7.501067,16.265406 C 87.738649,64.588729 82.920473,71.48951 75.195873,70.23598 71.118648,69.574337 70.06187,70.16014 64.0414,76.419214 c -3.657798,3.802767 -6.663486,7.844122 -6.679305,8.980789 -0.04506,3.237608 2.792253,5.266666 7.364587,5.266666 4.045668,0 8.60665,3.325389 8.60665,6.275062 0,0.769131 -0.922275,2.16384 -2.0495,3.099349 -2.639441,2.19055 -34.667706,2.98457 -38.950499,0.96563 z M 54.178892,73.44187 c 5.05122,-3.080082 10.24368,-9.821604 12.303636,-15.974166 2.133695,-6.372802 1.975794,-6.818266 -2.149196,-6.063176 -6.075341,1.112107 -11.617028,-1.114309 -12.012066,-4.825944 -0.519702,-4.882927 1.467729,-6.845249 6.932838,-6.845249 5.939528,0 7.027924,-2.031183 4.110968,-7.671954 -2.863684,-5.537755 -9.442025,-9.383578 -16.061281,-9.38973 -6.4415,-0.006 -14.606862,6.001366 -17.469435,12.852467 -2.785532,6.666718 -2.486214,7.017154 5.306621,6.212862 6.293438,-0.64954 7.383689,-0.390495 9.18595,2.182593 2.11587,3.020827 1.749551,7.463761 -0.742364,9.003849 -0.784786,0.485025 -4.012362,0.748028 -7.17239,0.584452 -5.307822,-0.274754 -5.745507,-0.04541 -5.745507,3.01056 0,4.974013 1.947335,9.016911 6.614419,13.732319 3.689496,3.727699 5.97993,4.846743 11.385581,5.562689 0.733333,0.09712 3.213836,-0.970082 5.512226,-2.371572 z M 40.216645,67.16915 c -1.751503,-1.280731 -1.841071,-2.136384 -0.525802,-5.023085 1.431702,-3.142242 2.302747,-3.479397 8.989084,-3.479397 8.019183,0 9.981804,1.693174 7.448793,6.42615 -1.672777,3.125612 -12.538145,4.54341 -15.912075,2.076332 z M 20,56.666668 c 0,-1.833333 -0.6,-3.333333 -1.333334,-3.333333 -1.489557,0 -1.827604,4.394617 -0.444444,5.777778 C 19.69201,60.580901 20,60.157415 20,56.666668 Z m 58.244151,-2.25 c -0.425635,-1.063644 -0.741578,-0.747701 -0.805556,0.805556 -0.05789,1.405555 0.257237,2.193055 0.700293,1.75 0.443055,-0.443056 0.490424,-1.593056 0.105267,-2.555556 z M 179.6833,100.82617 c -1.40878,-1.408795 -1.92065,-7.741899 -2.1822,-27.000001 -0.50684,-37.319292 -1.1377,-54.580724 -2.10633,-57.6326 -0.48637,-1.532394 0.0557,-4.50838 1.23744,-6.7935972 1.68952,-3.2671752 2.94809,-4.0626246 6.40203,-4.0462212 8.38252,0.039809 8.21638,-0.6053845 9.16604,35.5970164 0.47681,18.177079 1.2759,38.507278 1.77577,45.178218 0.77247,10.309069 0.57808,12.459741 -1.29551,14.333335 -2.6777,2.6777 -10.46537,2.89571 -12.99724,0.36385 z"
       id="path925" />
  </g>
</svg>
