<?xml version="1.0" encoding="UTF-8" standalone="no"?>
<!-- Created with Inkscape (http://www.inkscape.org/) -->

<svg
   version="1.1"
   id="svg265"
   width="161.33333"
   height="236"
   viewBox="0 0 161.33333 236"
   xmlns="http://www.w3.org/2000/svg"
   xmlns:svg="http://www.w3.org/2000/svg">
  <defs
     id="defs269" />
  <g
     id="g271">
    <path
       style="fill:#000000;stroke-width:1.33333"
       d="M 124.66666,229.30645 C 118.8,228.80648 110.4,227.58991 106,226.60295 c -10.019839,-2.24754 -25.76164,-2.28576 -41.333335,-0.1004 -16.11293,2.26136 -26.854258,1.07046 -31.666666,-3.51088 -2.016666,-1.9198 -3.666666,-4.17374 -3.666666,-5.00871 0,-0.83496 -1.512255,-2.93881 -3.360567,-4.67521 -3.032753,-2.84912 -3.789849,-3.00186 -7.76133,-1.56575 -7.06805,2.55584 -11.4005892,2.03325 -13.0438624,-1.57335 -1.510435,-3.31504 0.2679463,-8.83532 2.8463368,-8.83532 0.7701461,0 0.7520586,-1.31868 -0.046912,-3.42013 -1.8420228,-4.84488 -1.6117823,-9.3282 0.57213,-11.14068 2.7218846,-2.25897 8.2260086,-0.41347 9.9316606,3.33004 1.920117,4.2142 3.643074,4.08469 5.799259,-0.43589 3.208333,-6.72648 15.729951,-5.27832 15.729951,1.8192 0,0.90357 -1.61199,3.55861 -3.582201,5.90006 l -3.5822,4.25722 3.145828,5.92994 c 1.730207,3.26147 4.910892,6.8427 7.068192,7.95827 3.526148,1.82345 5.028189,1.80891 14.86965,-0.14396 6.021009,-1.19476 14.202315,-3.03857 18.180677,-4.09736 12.21472,-3.25076 21.242361,-2.50636 33.900055,2.79532 13.97207,5.85221 20.58045,7.12815 30.9156,5.96911 15.06508,-1.68948 20.42305,1.44346 13.49965,7.89358 -3.16775,2.9512 -8.30563,3.18582 -29.74859,1.3584 z M 73.550226,156.87917 c -3.383061,-1.50956 -3.667442,-4.82908 -0.87613,-10.22688 2.730428,-5.28006 5.992569,-21.34824 5.992569,-29.51731 0,-3.67987 -1.164475,-11.29065 -2.587723,-16.91283 C 73.491634,90.001635 71.466193,70.934197 70.03592,43.333333 69.036472,24.046395 72.039992,11.340347 78.49658,7.5414647 c 3.747773,-2.2050882 4.760529,-2.273814 9.824126,-0.6666667 4.509619,1.4313189 6.317056,2.9991549 8.982644,7.791869 3.24216,5.829388 3.3329,6.701405 3.19097,30.666666 -0.10647,17.977216 -0.774213,27.559403 -2.462254,35.333334 -5.41756,24.949453 -7.542255,46.356483 -4.866553,49.032183 0.825633,0.82563 1.501152,2.35693 1.501152,3.40288 0,1.04595 1.8,5.4439 4,9.7732 4.269975,8.40278 5.030075,12.87926 2.333335,13.7419 -3.884854,1.2427 -24.80464,1.44264 -27.449774,0.26234 z m 16.522584,-7.92145 c 0.805387,-2.09881 -2.490793,-11.98801 -4.181004,-12.54387 -1.237965,-0.40712 -5.891808,9.54554 -5.891808,12.60016 0,2.22404 9.217531,2.17254 10.072812,-0.0563 z M 88.646602,87.625439 c 2.484931,-9.540295 4.786077,-46.283586 3.575495,-57.09131 -1.080846,-9.649474 -4.250911,-15.867462 -8.089576,-15.867462 -4.055191,0 -5.228417,2.788154 -6.197168,14.727473 -0.982965,12.114515 2.746745,58.198525 4.899609,60.539193 0.64077,0.696667 1.183282,3.096667 1.205582,5.333334 0.03423,3.432352 0.254485,3.699216 1.412141,1.710898 0.754379,-1.295672 2.191641,-5.504129 3.193917,-9.352126 z"
       id="path293" />
  </g>
</svg>
