<?xml version="1.0" encoding="UTF-8" standalone="no"?>
<!-- Created with Inkscape (http://www.inkscape.org/) -->

<svg
   version="1.1"
   id="svg255"
   width="214.66667"
   height="148"
   viewBox="0 0 214.66667 148"
   xmlns="http://www.w3.org/2000/svg"
   xmlns:svg="http://www.w3.org/2000/svg">
  <defs
     id="defs259" />
  <g
     id="g261">
    <path
       style="fill:#000000;stroke-width:1.33333"
       d="m 26,140.00568 c -2.933333,-0.59561 -6.910032,-0.78021 -8.837109,-0.41023 -5.69395,1.09323 -8.8910313,-1.53882 -9.8800249,-8.1339 -1.1921681,-7.94995 0.1101565,-11.21525 5.4977429,-13.78441 3.74639,-1.78653 4.552725,-2.90868 4.552725,-6.33592 0,-5.46893 2.41345,-8.41253 7.317545,-8.92493 3.469064,-0.36246 4.088723,-1.06468 4.792503,-5.431014 0.92136,-5.716228 0.604388,-5.335379 5.889952,-7.076916 2.51356,-0.828191 4.071201,-2.294747 4.191601,-3.946492 0.105387,-1.445693 0.25538,-3.914341 0.333334,-5.485883 0.07795,-1.571541 1.191732,-3.288032 2.475065,-3.814424 3.136519,-1.286522 124.973286,-0.40644 130.757106,0.944519 0.50027,0.11684 3.1981,-0.458995 5.99518,-1.279647 3.41169,-1.000972 7.51366,-1.09692 12.46234,-0.291502 16.45754,2.678532 16.4398,2.639037 15.83458,35.261719 -0.48743,26.27372 -0.65682,26.97018 -6.71587,27.61139 -4.71979,0.49948 -135.842452,1.15216 -144.666669,0.72009 -1.833333,-0.0897 -8.133334,0.20212 -14,0.64864 C 36.133334,140.72329 28.933334,140.60131 26,140.00568 Z m 101.21623,-9.6909 c 11.72536,-0.19898 18.72687,-0.84006 19.03149,-1.7426 0.33439,-0.99068 -8.6105,-1.36339 -29.21622,-1.21739 -40.099852,0.28415 -42.364832,0.39911 -42.364832,2.15032 0,1.0386 2.102455,1.2262 6.7833,0.60527 4.878681,-0.64718 6.522867,-0.47845 5.855764,0.60095 -0.673381,1.08955 2.126123,1.28397 10.216699,0.70951 6.129329,-0.43521 19.491539,-0.93293 29.693799,-1.10606 z m -59.994006,-0.96677 c 2.138888,-0.008 3.438706,-0.46468 2.888482,-1.01468 -1.233765,-1.23326 -51.442035,-1.34513 -51.4432,-0.11461 -4.62e-4,0.48696 7.611334,0.94913 16.915101,1.02705 9.303768,0.0779 17.253768,0.48225 17.666667,0.89851 0.4129,0.41627 2.850727,0.4107 5.417394,-0.0124 2.566666,-0.42307 6.416666,-0.77582 8.555556,-0.78389 z M 190,128.64381 C 190,127.10135 178.21806,116 176.58104,116 c -2.11321,0 -9.91437,8.52199 -9.91437,10.83046 0,1.26904 1.05,2.54419 2.33333,2.83367 4.65954,1.05104 21,0.25712 21,-1.02032 z m -25.72288,-12.24774 c 2.78092,-2.7155 5.05622,-6.21508 5.05622,-7.77685 0,-2.7872 -8.97756,-11.285887 -11.92182,-11.285887 -0.88858,0 -1.41152,4.445767 -1.41152,11.999997 0,13.8249 0.72154,14.44057 8.27712,7.06274 z m -59.61045,0.45841 c 5.13333,-0.18548 16.18235,0.16737 24.55337,0.78411 14.4043,1.06124 19.77851,0.24884 16.96512,-2.56455 -0.53372,-0.53372 -24.49372,-1.09468 -53.244449,-1.24658 -28.750723,-0.15189 -54.074044,-0.64241 -56.274044,-1.09003 -4.506649,-0.91694 -8.170144,0.82989 -6.706648,3.19788 0.665919,1.07748 5.506487,1.46968 15.49983,1.25586 7.992328,-0.17101 14.832459,-0.01 15.200292,0.35786 0.592431,0.59243 14.432677,0.37399 44.006529,-0.69455 z m 91.94052,-1.18781 c 1.44769,-4.60902 1.59996,-21.000003 0.19509,-21.000003 -2.31336,0 -12.80228,11.362653 -12.80228,13.868723 0,1.21823 1.00416,2.6003 2.23148,3.07127 1.22731,0.47096 3.32731,1.95213 4.66667,3.29149 2.83705,2.83705 4.96917,3.12406 5.70904,0.76852 z m -52.94052,-11.652 c 1.77125,-0.009 3,-0.83383 3,-2.01467 0,-1.71454 -4.01235,-2 -28.11111,-2 -21.896754,0 -27.988112,0.36844 -27.554704,1.66667 0.405144,1.21357 5.728119,1.73371 19.579954,1.91328 10.46295,0.13565 19.41257,0.6384 19.88804,1.11723 0.47547,0.47883 2.96449,0.52446 5.53115,0.10139 2.56667,-0.42307 6.01667,-0.77582 7.66667,-0.78389 z M 52.666667,102.4486 c 24.879994,1.40225 32.578216,1.43987 33.367317,0.16308 0.494841,-0.80067 0.641851,-1.71363 0.326685,-2.02879 -0.315164,-0.31516 -11.175245,-0.871403 -24.133513,-1.236086 -19.021129,-0.535309 -23.560489,-0.322184 -23.560489,1.106176 0,3.08485 1.849567,3.80336 7.333334,2.84882 2.933333,-0.51059 5.933333,-0.89453 6.666666,-0.8532 z M 183.47064,95.271829 c 2.12464,-2.785546 3.1112,-5.208086 2.40119,-5.896245 -1.9328,-1.873324 -11.20516,-3.208775 -11.20516,-1.613823 0,0.76553 -1.2,1.772738 -2.66667,2.238239 -3.44009,1.091843 -3.3734,3.075849 0.23242,6.914065 4.03857,4.298855 7.04142,3.860055 11.23822,-1.642236 z M 147.7594,89.154333 c -0.42429,-2.833834 -0.61625,-2.847125 -46.1641,-3.196262 -41.568995,-0.318638 -45.700099,-0.153612 -45.321851,1.810478 0.370209,1.922336 4.597536,2.198772 38.266327,2.502332 20.817584,0.187692 38.162414,0.653527 38.544074,1.035188 C 133.46551,91.687732 137.01951,92 140.98163,92 c 6.59909,0 7.16808,-0.238889 6.77777,-2.845667 z M 54.666668,86.666667 c 0,-0.733334 -0.9,-1.333334 -2.000001,-1.333334 -1.1,0 -2,0.6 -2,1.333334 0,0.733333 0.9,1.333333 2,1.333333 1.100001,0 2.000001,-0.6 2.000001,-1.333333 z m -17.550601,-47 C 35.982915,38.75 32.824795,34.25 30.098023,29.666667 24.694138,20.583467 21.986824,19.339169 19.944399,25 15.12282,38.363593 11.994705,41.479991 8.1058471,36.794204 6.1658212,34.456616 7.213408,30.096395 12.176894,19.849868 14.279603,15.509076 16,11.46007 16,10.852077 c 0,-1.9951569 4.820516,-5.5187437 7.550031,-5.5187437 2.663732,0 10.362895,9.7860097 13.899286,17.6666667 0.904965,2.016667 2.43765,3.666667 3.405968,3.666667 0.968317,0 2.17351,-1.65 2.678208,-3.666667 1.50351,-6.007721 6.973837,-15.9868861 9.240386,-16.8566429 4.151102,-1.5929272 5.687603,-0.7277663 9.125285,5.1381939 1.917238,3.27152 4.30737,6.42152 5.311404,7 1.004034,0.578481 2.042398,2.202062 2.307474,3.607961 0.98379,5.217755 3.655638,3.295548 9.029667,-6.496211 7.925103,-14.43994504 10.837166,-13.9749065 20.497746,3.273366 1.889415,3.373413 4.335045,6 5.586635,6 1.40016,0 4.04569,-3.462894 7.13034,-9.333334 C 118.2408,3.0042424 120.82944,2.8019165 128.82162,14 c 3.14033,4.4 5.74014,8.7 5.77737,9.555556 0.12133,2.789163 3.32329,2.722373 5.54323,-0.115627 1.19312,-1.525296 3.79244,-5.885672 5.77626,-9.689725 6.71846,-12.88282692 9.70604,-12.6687501 17.42816,1.248824 5.9355,10.697525 8.61491,12.303191 11.20871,6.716932 5.10924,-11.0037 6.31281,-13.1888905 8.46723,-15.3728636 2.12485,-2.1540219 2.72297,-2.1984136 6.0989,-0.4526535 2.05866,1.0645704 5.25792,4.8247261 7.10951,8.3559021 1.85157,3.531176 4.68896,8.74536 6.30531,11.587075 3.63226,6.38594 3.25973,10.673288 -0.97959,11.273723 -4.12752,0.5846 -7.89251,-3.026767 -9.80284,-9.402864 -2.17164,-7.24829 -5.49061,-8.766788 -8.82235,-4.036398 -1.41992,2.015998 -2.9851,4.965974 -3.47821,6.555502 C 177.92666,35.144604 173.28639,40 170.10988,40 166.39503,40 163.45567,36.899052 160.58474,29.951203 158.28846,24.394031 155.00676,20 153.15268,20 c -0.60537,0 -2.98804,4.05 -5.29478,9 -4.5304,9.721648 -5.65824,10.948385 -10.09446,10.979583 -3.12181,0.02196 -5.49042,-2.634975 -11.76344,-13.195364 -2.2,-3.703619 -4.61754,-6.745184 -5.37232,-6.759035 -0.75477,-0.01385 -3.35615,4.1812 -5.78083,9.322337 -6.68264,14.169434 -12.24033,15.456875 -18.219567,4.22057 C 92.261076,25.363025 90.2617,22.189221 88.78758,21.12336 c -1.832873,-1.325256 -4.787579,0.229515 -4.787579,2.519231 0,1.113174 -1.581938,5.548981 -3.515418,9.857348 -3.286196,7.322621 -3.809984,7.833394 -8.033001,7.833394 -3.41819,0 -4.827902,-0.730076 -5.792734,-3 C 63.709224,31.393861 57.461666,22 55.796068,22 c -0.987838,0 -3.691991,3.6 -6.009233,8 -4.821036,9.154232 -6.535712,11.333333 -8.917897,11.333333 -0.930925,0 -2.619717,-0.75 -3.752871,-1.666666 z"
       id="path432" />
  </g>
</svg>
