<?xml version="1.0" encoding="UTF-8" standalone="no"?>
<!-- Created with Inkscape (http://www.inkscape.org/) -->

<svg
   version="1.1"
   id="svg245"
   width="216"
   height="234.66667"
   viewBox="0 0 216 234.66667"
   xmlns="http://www.w3.org/2000/svg"
   xmlns:svg="http://www.w3.org/2000/svg">
  <defs
     id="defs249" />
  <g
     id="g251">
    <path
       style="fill:#000000;stroke-width:1.33333"
       d="M 185.33333,227.95172 C 176.9,227.4171 151.1,226.50824 128,225.93203 82.751728,224.80334 83.576036,224.8156 74.666667,225.13827 c -3.3,0.11947 -10.391158,0.008 -15.758128,-0.24891 -8.316468,-0.39734 -10.256846,-0.96493 -13.133784,-3.84188 -1.856612,-1.85661 -3.790143,-5.40181 -4.296738,-7.87824 l -0.92108,-4.50257 -14.258744,-0.0173 c -12.735842,-0.0155 -14.560571,-0.31915 -17.0847225,-2.8433 -3.5700744,-3.57008 -2.6312442,-6.92025 3.5792475,-12.77241 5.416409,-5.10389 5.511561,-8.89296 0.286018,-11.38952 -5.1046837,-2.43881 -6.1903561,-6.85277 -2.433735,-9.89471 6.003278,-4.86116 13.34143,-1.83629 16.856351,6.94836 1.375497,3.43771 2.677933,4.8939 3.942969,4.40846 1.038956,-0.39866 1.889012,-1.4484 1.889012,-2.33275 0,-2.39149 6.93461,-8.50179 10,-8.81129 4.346638,-0.43888 5.69729,-0.0744 7.904762,2.13306 4.245161,4.24516 0.899404,12.57143 -5.051595,12.57143 -4.134285,0 -3.874832,3.83469 0.64562,9.54224 3.038296,3.83616 4.651359,7.51087 5.13266,11.69269 0.60856,5.28752 1.298324,6.3962 5.187551,8.33804 l 4.485664,2.23966 7.514336,-5.13046 c 4.132885,-2.82176 8.975257,-6.68633 10.760829,-8.58796 3.565551,-3.7973 8.602529,-5.43374 20.77618,-6.74989 6.59746,-0.71329 9.91357,-0.25296 18.66667,2.59124 5.8542,1.90224 11.68585,4.04493 12.95923,4.76153 1.27339,0.7166 3.24729,1.30291 4.38645,1.30291 1.13916,0 4.49974,1.23893 7.46792,2.7532 10.02484,5.11429 25.39592,7.0554 52.28119,6.60227 9.93683,-0.1675 12.88253,1.21945 12.88253,6.06552 0,3.02785 -4.57972,7.44702 -7.29668,7.04088 -0.75349,-0.11267 -8.26998,-0.6422 -16.70332,-1.17682 z m -63.50045,-12.94793 c 2.40541,-1.44371 -9.49643,-4.29772 -18.00295,-4.31704 -6.035423,-0.0137 -9.33585,0.58131 -10.411169,1.87699 -1.27386,1.5349 -0.986853,2.01218 1.503407,2.50012 4.286431,0.83985 25.490172,0.79253 26.910712,-0.0601 z M 28,198.66667 c 0,-0.73333 -1.2,-1.33333 -2.666667,-1.33333 -1.466666,0 -2.666666,0.6 -2.666666,1.33333 0,0.73333 1.2,1.33333 2.666666,1.33333 C 26.8,200 28,199.4 28,198.66667 Z m 21.666667,-41.60616 c -3.94028,-1.03364 -4.333334,-1.60168 -4.333334,-6.26247 0,-2.81914 1.261992,-7.97866 2.804426,-11.4656 4.021726,-9.09177 4.912312,-25.15455 1.921808,-34.66214 C 48.784328,100.61599 47.614363,92.935568 47.459645,87.602707 47.304927,82.269845 46.718801,77.163045 46.157143,76.254264 43.758087,72.37251 41.563992,43.689546 42.726329,31.403914 44.017664,17.754799 45.525308,13.14389 50.480937,7.6875934 c 2.906448,-3.2000872 3.975855,-3.5444596 8.748468,-2.8171989 7.927722,1.2080424 10.00209,2.6709457 12.69477,8.9527135 3.135169,7.314052 4.474912,30.296219 2.847329,48.84356 C 73.463519,77.571985 70.052445,97.590369 68.069219,102 c -0.659631,1.46667 -1.547743,6.57981 -1.973583,11.36255 -0.824111,9.25585 1.080351,16.82218 7.972388,31.67391 3.651491,7.86862 4.056012,10.79732 1.598643,11.57402 -3.769183,1.19134 -21.973019,1.50643 -26,0.45003 z m 10.9132,-7.69417 c 3.98074,-1.51347 4.123758,-2.43464 1.392786,-8.97078 l -2.027348,-4.85212 -2.639318,5.17687 c -2.816062,5.52353 -3.435387,9.94636 -1.392787,9.94636 0.685595,0 2.785595,-0.58515 4.666667,-1.30033 z M 62.475388,77.333334 C 62.395669,68.712016 63.046249,62.803369 64.512465,58.832365 67.161607,51.657599 67.245143,37.843907 64.666667,33.333334 63.618639,31.5 62.7399,27.542992 62.713913,24.539984 62.681241,20.76428 61.819973,18.31372 59.921952,16.596035 53.996024,11.233143 49.868688,19.73959 51.154064,34.666667 c 0.410459,4.766667 1.375844,17.298863 2.1453,27.849326 0.769456,10.550463 2.364833,22.504974 3.545284,26.56558 2.098128,7.217307 2.186668,7.310415 3.947069,4.150675 1.187342,-2.131156 1.760898,-7.547248 1.683671,-15.898914 z m 97.089082,60.333336 c -2.08574,-3.51776 -4.48875,-71.872374 -2.61731,-74.45029 1.74763,-2.407354 6.96723,-3.111514 8.88068,-1.198063 1.74848,1.748481 3.83057,23.144794 5.54452,56.977533 0.85793,16.93545 -0.0701,19.67082 -6.67392,19.67082 -2.49759,0 -4.80787,-0.45 -5.13397,-1 z"
       id="path571" />
  </g>
</svg>
