<?xml version="1.0" encoding="UTF-8" standalone="no"?>
<!-- Created with Inkscape (http://www.inkscape.org/) -->

<svg
   version="1.1"
   id="svg235"
   width="212"
   height="214.66667"
   viewBox="0 0 212 214.66667"
   xmlns="http://www.w3.org/2000/svg"
   xmlns:svg="http://www.w3.org/2000/svg">
  <defs
     id="defs239" />
  <g
     id="g241">
    <path
       style="fill:#000000;stroke-width:1.33333"
       d="m 35.433229,203.36818 c -2.621609,-3.19934 -4.779904,-6.31599 -4.79621,-6.92591 -0.01631,-0.60991 -1.159724,-2.57936 -2.54093,-4.37655 -2.143525,-2.78909 -2.822576,-3.00925 -4.637018,-1.5034 -1.169156,0.97031 -2.125738,2.56628 -2.125738,3.5466 0,3.40179 -7.292062,13.89108 -9.656957,13.89108 -4.2718177,0 -2.1558359,-9.51773 5.780315,-26 2.55784,-5.31226 3.957046,-6.75258 6.887241,-7.08958 2.970755,-0.34167 4.123531,0.39489 6,3.83368 1.277504,2.34112 4.617848,7.22085 7.422987,10.84385 l 5.100252,6.58727 5.048928,-9.68596 c 2.907364,-5.57754 6.327536,-10.25648 8.063362,-11.03103 3.389147,-1.51228 3.903354,-1.00684 12.020539,11.81571 2.566667,4.0545 5.266667,7.36629 6,7.35952 0.733333,-0.007 2.76746,-3.32468 4.520281,-7.37316 3.969858,-9.16914 8.545778,-13.18728 12.567011,-11.03519 3.788175,2.02737 6.953857,5.98888 10.208538,12.77489 1.49481,3.11667 3.58166,5.66667 4.63745,5.66667 1.05579,0 3.90272,-3.74309 6.3265,-8.31799 3.10479,-5.86026 5.49515,-8.69574 8.09006,-9.59652 3.27685,-1.1375 4.1248,-0.77146 7.68642,3.31798 2.20178,2.52809 5.20655,6.84653 6.67726,9.59653 1.47071,2.75 3.55668,5 4.63551,5 1.07882,0 3.77644,-3.21588 5.99468,-7.14639 4.82037,-8.54124 8.27242,-11.91812 11.54009,-11.28882 1.32853,0.25585 5.00988,4.35844 8.18076,9.11686 3.17087,4.75843 6.59064,8.83838 7.59949,9.06658 2.06999,0.4682 6.00314,-4.91948 8.00262,-10.96211 0.73333,-2.2162 3.00673,-4.94971 5.05198,-6.07445 3.53752,-1.94539 3.84764,-1.88264 6.36662,1.28833 1.45636,1.83333 4.14749,6.42192 5.98026,10.19685 1.83278,3.77492 4.2178,7.59839 5.30006,8.49659 3.9789,3.30219 1.35836,12.54093 -2.81902,9.93848 -1.96589,-1.22472 -3.62185,-3.93076 -9.36204,-15.29859 -0.92573,-1.83333 -2.42026,-3.33333 -3.32118,-3.33333 -0.90092,0 -3.59866,3.83851 -5.99499,8.53001 -2.39632,4.69151 -5.27485,9.44791 -6.39673,10.56979 -3.49464,3.49464 -7.83094,0.1252 -13.34628,-10.37053 -2.75832,-5.24908 -5.63894,-9.33586 -6.40138,-9.08171 -0.76244,0.25415 -2.66224,2.83953 -4.22177,5.74531 -9.29628,17.32101 -12.73163,18.04281 -21.55349,4.52856 -3.37916,-5.17655 -6.85001,-9.18968 -7.71299,-8.91807 -0.86298,0.27161 -3.48023,4.05697 -5.81611,8.41191 -4.43362,8.26588 -8.44443,12.03882 -11.53648,10.85229 C 102.84554,208.15234 92,192.78666 92,190.68175 c 0,-3.21479 -3.936077,-0.93092 -6.293248,3.65159 -5.260669,10.2271 -7.719215,13.48561 -10.588801,14.03417 -3.880204,0.74175 -4.572079,0.15196 -9.033686,-7.70084 -3.9649,-6.97855 -7.281322,-11.33552 -8.624249,-11.33017 -0.436341,0.001 -3.143364,3.851 -6.015603,8.55392 -2.87224,4.7029 -6.577286,9.16813 -8.233437,9.92273 -2.65492,1.20967 -3.575133,0.68376 -7.777747,-4.44497 z M 61.78392,100.07042 c -3.059107,-1.306385 -5.179231,-5.81276 -3.791295,-8.058487 0.457282,-0.739896 2.936043,-1.345265 5.50836,-1.345265 4.838206,0 13.832348,-5.545321 13.832348,-8.528307 0,-2.959517 -15.715529,-15.406892 -22.217206,-17.596981 -3.547203,-1.194876 -8.812158,-3.305499 -11.699899,-4.690274 -2.887743,-1.384774 -6.010911,-2.517772 -6.940376,-2.517772 -2.983187,0 -16.291512,-14.100297 -17.128208,-18.147499 C 17.960687,32.476957 15.399641,28.746064 10.296312,26 7.2924141,24.383624 5.3391193,22.348916 5.3369357,20.833919 5.3323149,17.627906 17.65552,5.6379205 22.102357,4.5218354 28.569913,2.898582 36.205509,5.1386407 54.004529,13.880992 c 9.837975,4.832122 18.419399,8.785675 19.069831,8.785675 1.776599,0 9.839169,4.119387 13.360919,6.826456 3.279558,2.520905 26.942511,12.126756 37.380811,15.174547 16.63628,4.857487 21.89268,5.837225 34.85058,6.495793 11.01345,0.559743 14.55212,0.298214 16.58817,-1.225966 1.42349,-1.065623 3.85881,-1.937496 5.41183,-1.937496 1.55301,0 3.98833,-0.880918 5.41182,-1.957596 3.85788,-2.917955 9.56878,-2.587566 10.58439,0.61233 0.46341,1.460106 0.35385,3.410106 -0.24348,4.333334 -0.59733,0.923229 -1.21959,4.378599 -1.38279,7.678599 -0.68186,13.788262 -2.06612,23.394551 -3.50346,24.312916 -2.84147,1.815513 -11.52227,1.038515 -17.21435,-1.540815 -3.10867,-1.408677 -8.05213,-2.928588 -10.98547,-3.377577 C 160.4,77.612201 154.4,76.684719 150,76.00012 c -12.1542,-1.891082 -35.64546,-3.964594 -36.80398,-3.248591 -0.56448,0.348872 -1.07315,1.672499 -1.13038,2.941392 -0.0572,1.268895 -0.43521,5.00708 -0.83998,8.30708 -0.6263,5.106202 -0.32093,6.252818 2.04992,7.697143 1.97177,1.201212 3.5223,1.303001 5.30611,0.348337 2.50381,-1.340001 17.28674,-1.669534 21.75164,-0.484876 1.39004,0.368816 2.33334,1.894004 2.33334,3.77273 0,1.867944 -0.95127,3.417567 -2.33334,3.801029 C 139.05,99.490432 126.3,99.791142 112,99.802606 c -14.3,0.01147 -30.8,0.353404 -36.666667,0.759864 -5.866666,0.40646 -11.963902,0.18504 -13.549413,-0.49205 z M 98.968976,89.666668 c 3.927554,-4.472697 4.192284,-8.300159 0.823544,-11.906787 -3.197867,-3.423683 -9.246991,-7.093213 -11.692973,-7.093213 -0.806239,0 -1.039031,1.63591 -0.567962,3.99126 0.610275,3.051373 -0.02553,5.071303 -2.7,8.577704 -4.539222,5.951227 -4.411004,7.148808 0.835082,7.799841 9.070677,1.125662 11.314632,0.894759 13.302309,-1.368805 z m 85.523974,-18 c 2.2278,-8.312978 2.15614,-8.361959 -14.82628,-10.135375 -19.4133,-2.027263 -62.01299,-1.578001 -60.18788,0.634749 1.29935,1.575312 6.97915,2.495804 27.85454,4.514224 24.36983,2.356292 32.7081,3.5906 38,5.625119 7.38704,2.840007 8.24336,2.780295 9.15962,-0.638717 z M 104,62.636698 c 0,-1.401518 -13.290276,-3.785054 -14.070032,-2.523382 -0.366093,0.592352 1.568317,2.595005 4.298692,4.450342 4.619748,3.1392 5.13114,3.222366 7.36783,1.198191 C 102.91842,64.565518 104,63.1592 104,62.636698 Z m 14.51607,-9.08626 4.51607,-0.883771 -4.98795,-2.37783 C 115.30082,48.98103 110.26858,47.548141 106.86145,47.104638 103.45432,46.661135 99.983419,45.763091 99.148337,45.108985 96.127345,42.742686 57.175824,24 55.279115,24 c -1.073028,0 -1.945782,1.226612 -1.945782,2.734703 0,1.865083 -1.483972,3.354744 -4.666666,4.68456 -11.695535,4.886707 0.890322,16.541066 20,18.519768 4.4,0.455596 11.550529,1.748171 15.890064,2.872388 4.794824,1.242167 10.286966,1.735669 14,1.257983 3.411059,-0.438836 6.993369,-0.178393 8.109939,0.589614 1.1,0.756614 3.2,1.015556 4.66666,0.575426 1.46667,-0.440129 4.6989,-1.19793 7.18274,-1.684004 z M 37.333333,45.588174 c 0,-0.593172 -0.880917,-2.243172 -1.957596,-3.666667 -1.076677,-1.423496 -1.976677,-3.592138 -2,-4.819206 -0.07305,-3.843667 6.534267,-10.308617 12.054931,-11.795177 2.8798,-0.775449 5.235999,-1.994348 5.235999,-2.708662 0,-1.142416 -14.777444,-8.513306 -15.268312,-7.61573 -0.105454,0.192831 -0.862427,1.917338 -1.682156,3.832239 -2.004647,4.682883 -6.505118,5.729444 -9.92626,2.308301 -3.781207,-3.781206 -4.2336,-2.419082 -1.216094,3.661582 1.423399,2.86833 3.260971,7.799535 4.083494,10.958231 0.822522,3.158696 2.661108,6.908696 4.085745,8.333333 2.605277,2.605277 6.590249,3.519401 6.590249,1.511756 z"
       id="path710" />
  </g>
</svg>
