<?xml version="1.0" encoding="UTF-8" standalone="no"?>
<!-- Created with Inkscape (http://www.inkscape.org/) -->

<svg
   version="1.1"
   id="svg225"
   width="116"
   height="222.66667"
   viewBox="0 0 116 222.66667"
   xmlns="http://www.w3.org/2000/svg"
   xmlns:svg="http://www.w3.org/2000/svg">
  <defs
     id="defs229" />
  <g
     id="g231">
    <path
       style="fill:#000000;stroke-width:1.33333"
       d="m 50.452632,218.00819 c -0.362164,-0.36216 -7.212164,-0.74472 -15.222223,-0.85011 -19.308262,-0.25406 -21.278162,-1.87093 -13.777161,-11.30808 4.829521,-6.0761 4.692544,-11.39685 -0.471307,-18.30728 -1.730016,-2.31516 -3.95229,-6.30938 -4.938385,-8.87605 C 15.05746,176.1 12.288978,171.9 9.8913723,169.33334 1.8721531,160.74866 2.9067219,149.72488 12.265749,144.03332 c 4.11859,-2.50466 4.163594,-2.50116 10.518398,0.82168 3.51016,1.83542 7.129564,4.23775 8.043118,5.33851 1.801451,2.17061 10.899855,7.13983 13.072706,7.13983 1.902078,0 3.990009,-4.35067 6.247676,-13.01844 1.073772,-4.1225 2.451246,-8.12982 3.061056,-8.90516 C 53.818511,134.63438 55.074595,130.7 56,126.66667 c 0.925405,-4.03333 2.103421,-7.93333 2.617813,-8.66667 0.514392,-0.73333 1.714952,-3.29864 2.667912,-5.70069 1.523002,-3.83892 1.44437,-4.68591 -0.649853,-7 -1.310379,-1.44795 -3.345644,-2.63264 -4.522813,-2.63264 -3.271411,0 -9.446392,-6.397825 -9.446392,-9.787294 0,-1.656989 -0.703724,-3.716432 -1.563832,-4.57654 -1.196222,-1.196221 -1.196222,-2.370652 0,-4.996071 0.860108,-1.887732 1.563832,-4.80114 1.563832,-6.474241 0,-1.673103 1.91426,-5.93201 4.253912,-9.464239 3.949329,-5.962399 4.230957,-7.141215 3.933337,-16.463778 -0.176316,-5.522848 -0.612461,-10.513825 -0.969212,-11.091058 -0.356749,-0.577234 0.547973,-2.246126 2.010496,-3.708648 2.244215,-2.244215 3.76014,-2.529659 9.715299,-1.829364 6.473878,0.761293 6.905158,0.646628 5.226241,-1.389502 -1.006459,-1.220597 -2.910424,-2.219268 -4.231032,-2.219268 -4.133448,0 -10.459172,-6.504184 -12.041764,-12.381485 -1.370884,-5.091075 -1.245171,-5.7155 1.617343,-8.033423 2.519248,-2.0399638 4.349382,-2.3480386 9.717972,-1.6358701 8.495182,1.1269259 9.136952,1.5950981 8.464757,6.1750611 -0.459263,3.129154 0.336344,4.527984 4.460323,7.842104 2.76061,2.218488 5.84222,4.033613 6.848021,4.033613 3.205527,0 9.256399,-7.452736 8.816067,-10.858568 -0.601178,-4.649912 1.135438,-6.4747655 6.161693,-6.4747655 4.99094,0 8.68321,2.8591285 8.68321,6.7238865 0,3.649003 -5.82617,16.27131 -8.54853,18.52025 -6.293663,5.199203 -11.350133,24.104462 -8.852493,33.097943 0.762385,2.745189 1.389501,8.299725 1.39359,12.343411 0.0043,4.156757 1.20292,10.531193 2.758075,14.666667 3.365413,8.949329 4.554258,39.995859 1.676395,43.778709 -0.921556,1.21136 -1.69464,5.6315 -1.717963,9.82254 -0.02332,4.19104 -0.880117,10.19104 -1.903991,13.33333 -4.290592,13.16795 -5.208454,37.8206 -1.663369,44.67604 3.1737,6.13727 2.796075,9.54008 -1.228511,11.07023 -3.43527,1.30609 -39.561258,1.87449 -40.793901,0.64185 z m 0.101267,-7.88705 c 2.210378,-1.22468 4.510609,-1.4302 7.333333,-0.65524 2.752052,0.75556 5.877307,0.51993 9.4461,-0.71219 4.685095,-1.61752 5.774011,-1.58117 8.958977,0.29907 3.859144,2.27822 6.468547,1.31558 4.327196,-1.59638 -6.800025,-9.24712 -6.59184,-8.36541 -3.586434,-15.18944 C 82.934531,178.86722 84,172.84868 84,152.91274 c 0,-15.49267 0.390868,-19.57727 2.001309,-20.91382 1.636522,-1.3582 1.957307,-5.27323 1.759896,-21.47872 -0.132773,-10.899771 0.112454,-20.171635 0.544958,-20.604139 0.432504,-0.432504 -0.50945,-3.648545 -2.09323,-7.14676 -5.90558,-13.044099 -19.655696,-19.778444 -20.606644,-10.092443 -0.317937,3.238399 0.363704,4.457607 3.541771,6.334938 3.229569,1.907753 4.098389,3.509243 4.843709,8.928361 0.499527,3.631988 0.497334,7.268459 -0.0049,8.081044 -0.502205,0.812587 -2.063504,6.973339 -3.469551,13.690569 -1.406046,6.71723 -3.82229,14.63004 -5.36943,17.58402 -5.21353,9.95429 -7.624251,21.73752 -7.616615,37.2288 0.008,16.31508 -0.233544,16.75603 -9.197968,16.78833 -5.806812,0.0209 -7.303009,-1.8099 -4.098172,-5.01474 1.202439,-1.20244 1.046851,-2.14491 -0.666667,-4.03832 -1.229277,-1.35842 -2.2351,-3.04632 -2.2351,-3.75094 0,-0.7046 -4.121768,-3.50736 -9.159485,-6.22833 -17.033048,-9.19995 -21.025703,-5.19349 -9.81998,9.85391 7.619633,10.23188 9.880989,16.15634 10.887351,28.52344 0.73689,9.0556 0.87418,9.34916 4.758781,10.17558 6.357231,1.35247 9.10894,1.19631 12.553899,-0.71238 z M 65.031835,89.271624 c 0.215825,-1.13394 -0.536098,-4.28394 -1.670939,-7 -2.198397,-5.261503 -5.746533,-6.490047 -8.647755,-2.994287 -2.401936,2.894155 3.451082,12.987522 7.217128,12.445738 1.490036,-0.214358 2.88574,-1.31751 3.101566,-2.451451 z M 80.245196,54.077847 C 84.160024,46.019951 82.474677,44.000001 71.83674,44.000001 H 64 v 5.23656 c 0,4.069046 0.783271,5.85268 3.513145,8 5.797232,4.560103 9.418431,3.661715 12.732051,-3.158714 z"
       id="path849" />
  </g>
</svg>
