<?xml version="1.0" encoding="UTF-8" standalone="no"?>
<!-- Created with Inkscape (http://www.inkscape.org/) -->

<svg
   version="1.1"
   id="svg205"
   width="165.33333"
   height="165.33333"
   viewBox="0 0 165.33333 165.33333"
   xmlns="http://www.w3.org/2000/svg"
   xmlns:svg="http://www.w3.org/2000/svg">
  <defs
     id="defs209" />
  <g
     id="g211">
    <path
       style="fill:#000000;stroke-width:1.33333"
       d="m 23.461546,158.25862 c -1.463878,-1.07041 -2.204241,-2.99693 -1.921506,-5 0.502629,-3.56092 0.07655,-3.518 18.006785,-1.81429 l 8.213493,0.78044 5.453173,-6.89879 C 62.147237,134.02394 60.039236,126.79312 44.316582,114.80793 24.101388,99.398141 9.3333331,82.005589 9.3333331,73.607653 c 0,-1.854005 2.5740929,-5.882894 6.4023809,-10.020802 5.718402,-6.180888 8.542906,-9.833093 12.930952,-16.720276 0.733333,-1.150991 2.695321,-3.219808 4.359973,-4.597371 2.686767,-2.223403 6.97336,-8.90509 6.97336,-10.869658 0,-0.403084 -5.319085,-0.73288 -11.820188,-0.73288 -9.801261,0 -12.399231,0.455476 -15.210305,2.666667 -1.864565,1.466666 -4.0243698,2.666666 -4.7995668,2.666666 -2.1453829,0 -4.4189035,-5.115102 -3.5251458,-7.931084 0.8675569,-2.733429 6.8477636,-7.175153 10.0218726,-7.443621 1.1,-0.09304 3.070235,-0.27179 4.3783,-0.397228 1.308066,-0.12544 3.630271,-2.349997 5.160456,-4.943468 1.530185,-2.59347 4.480153,-5.5934698 6.555485,-6.6666659 7.803612,-4.0354043 22.547701,-1.2441796 24.369483,4.6134219 0.359556,1.156088 1.231446,3.95093 1.937532,6.210758 1.934547,6.191522 -1.799916,13.517258 -16.659527,32.680267 -3.075381,3.966024 -6.825381,8.474097 -8.333333,10.01794 -3.557881,3.642562 -3.473359,4.987532 0.258271,4.10976 1.65,-0.38812 8.999999,-0.262488 16.333333,0.279182 10.967483,0.810104 15.462597,1.866756 25.333333,5.955026 6.599999,2.733593 13.799999,5.911339 15.999999,7.061658 18.746352,9.801945 22.460322,12.08087 23.012612,14.12072 0.34745,1.283333 1.71904,2.333333 3.04796,2.333333 1.32892,0 4.61478,2.073505 7.3019,4.607792 6.58884,6.21407 14.35526,9.69381 23.97086,10.74013 11.05163,1.20258 12.67961,1.7988 13.93279,5.10266 1.558,4.1075 -0.73602,6.21608 -6.76271,6.21608 -6.66579,0 -6.61499,1.81167 0.10733,3.82571 6.01686,1.80269 7.22975,3.14271 6.09128,6.72972 -1.35945,4.28324 -3.86696,4.07827 -17.52016,-1.43214 -13.72359,-5.53879 -15.74724,-5.72332 -32.07381,-2.92467 l -4.22529,0.72429 -0.0934,11.97549 c -0.0514,6.58652 -0.38979,12.45508 -0.75205,13.04123 -1.30913,2.11823 -12.790153,4.06037 -24.002918,4.06037 -9.396565,0 -11.602412,-0.39348 -12.29288,-2.19281 -1.422247,-3.70631 3.314496,-5.80719 13.093193,-5.80719 11.338916,0 15.832304,-1.59904 15.830917,-5.63366 -0.0012,-3.59648 -6.781321,-11.40551 -13.33229,-15.35558 -5.862979,-3.53523 -15.566033,-4.63159 -14.84558,-1.67742 1.490177,6.11037 -0.0033,9.86233 -7.844257,19.70622 -5.313781,6.67119 -9.450509,10.59018 -11.754719,11.13603 -6.821482,1.61593 -24.94661,1.23025 -27.42723,-0.58363 z m 97.205114,-39.70977 c 2.2,-0.96551 4.26659,-1.95057 4.59242,-2.18902 0.60878,-0.44553 -7.46574,-7.46374 -12.6861,-11.0265 C 96.376038,94.279334 89.90414,90.406053 81.333332,86.637124 69.352948,81.368866 48.609108,75.999998 40.234385,75.999998 c -7.814663,0 -14.901052,2.567267 -14.901052,5.398374 0,2.083238 12.84643,15.554987 19.999999,20.973528 8.531524,6.46229 29.817756,16.10149 40,18.1135 6.151598,1.21555 31.290428,-0.16226 35.333328,-1.93655 z M 46.036096,19.941593 c 1.39505,-2.257237 -2.069881,-5.274927 -6.056705,-5.274927 -4.783105,0 -6.365354,3.661142 -2.290518,5.299999 4.089518,1.644763 7.321207,1.635056 8.347223,-0.02507 z"
       id="path1127" />
  </g>
</svg>
