<?xml version="1.0" encoding="UTF-8" standalone="no"?>
<!-- Created with Inkscape (http://www.inkscape.org/) -->

<svg
   version="1.1"
   id="svg195"
   width="209.33333"
   height="145.33333"
   viewBox="0 0 209.33333 145.33333"
   xmlns="http://www.w3.org/2000/svg"
   xmlns:svg="http://www.w3.org/2000/svg">
  <defs
     id="defs199" />
  <g
     id="g201">
    <path
       style="fill:#000000;stroke-width:1.33333"
       d="M 86.666665,139.37949 C 58.945443,134.08633 34.053714,119.03058 14.062158,95.464704 0.67811606,79.687709 1.4947416,76.705237 19.09459,77.085309 c 5.997976,0.129528 13.305409,0.189201 16.238743,0.132608 25.523463,-0.492428 164.662437,-0.666939 166.952227,-0.209393 5.187,1.036468 4.94521,4.986719 -0.81314,13.284497 -18.79434,27.082629 -44.26509,42.679129 -80.88602,49.528919 -10.05459,1.88068 -22.610892,1.7169 -33.919735,-0.44245 z m 39.238665,-8.65799 c 2.25207,-0.70318 9.08029,-2.84289 15.17383,-4.75493 15.40644,-4.83425 25.38336,-11.10168 37.28418,-23.42165 10.82551,-11.206771 12.85594,-13.905409 11.77648,-15.652006 -0.79592,-1.287827 -162.015919,-0.868457 -166.113611,0.432099 -2.755888,0.874685 -2.764907,0.973433 -0.421199,4.611874 1.317244,2.044928 5.991254,6.945689 10.386687,10.890583 4.395434,3.94489 9.109592,8.54873 10.475905,10.23075 2.956337,3.63945 24.849901,14.90956 29.172421,15.01703 1.664653,0.0414 5.126642,0.86981 7.693309,1.84092 5.587993,2.11426 38.476728,2.70849 44.571998,0.80533 z M 71.666666,35.894395 C 67.887472,33.691283 68.629135,25.358883 73.152622,19.20005 82.138007,6.9662368 88.358516,3.9999999 105.02871,3.9999999 c 9.85437,0 12.8596,0.5380525 18.37616,3.2900419 7.74376,3.8630492 16.31101,11.7803662 17.38717,16.0681392 0.75312,3.000656 -2.54831,11.148856 -5.21278,12.865554 -2.29773,1.480416 -61.329968,1.176224 -63.912594,-0.32934 z m 62.999994,-7.315357 c 0,-2.624227 -5.04323,-9.415596 -8.83872,-11.9025 -3.64266,-2.386765 -20.98147,-6.005361 -26.604699,-5.552381 -2.260549,0.1821 -5.791464,1.653659 -7.846477,3.270133 -2.055013,1.616474 -4.366803,2.939043 -5.137308,2.939043 -2.666527,0 -7.572791,5.811312 -7.572791,8.969728 v 3.171556 l 17.987591,-0.305275 c 9.893174,-0.1679 18.339144,0.04628 18.768824,0.47596 0.42968,0.429679 4.93526,0.820125 10.01241,0.86766 7.39595,0.06924 9.23117,-0.315232 9.23117,-1.933924 z"
       id="path1266" />
  </g>
</svg>
