<?xml version="1.0" encoding="UTF-8" standalone="no"?>
<!-- Created with Inkscape (http://www.inkscape.org/) -->

<svg
   version="1.1"
   id="svg105"
   width="214.66667"
   height="217.33333"
   viewBox="0 0 214.66667 217.33333"
   xmlns="http://www.w3.org/2000/svg"
   xmlns:svg="http://www.w3.org/2000/svg">
  <defs
     id="defs109" />
  <g
     id="g111">
    <path
       style="fill:#000000;stroke-width:1.33333"
       d="m 44.000001,209.33333 c -1.1,-0.71088 -3.437898,-1.30169 -5.195327,-1.31292 -1.757429,-0.0107 -6.394991,-2.14423 -10.305692,-4.74 C 16.403006,195.25156 9.3333335,181.99993 9.3333335,167.3557 c 0,-24.50794 18.2876775,-41.06408 44.9736025,-40.71535 16.050381,0.20974 29.012979,6.8509 35.010033,17.93677 1.88356,3.48185 4.025828,5.85957 4.9573,5.50213 0.902183,-0.3462 1.88947,-0.20567 2.193971,0.31231 0.980274,1.6675 -1.492484,25.62648 -2.818873,27.31254 -0.704916,0.89608 -1.698859,3.42923 -2.208762,5.62923 -0.509902,2.2 -2.923877,7.03721 -5.364386,10.74936 -4.108674,6.24952 -5.361992,7.11435 -16.923422,11.67771 -12.402309,4.89525 -21.177755,6.1418 -25.152796,3.57293 z m 16.541848,-7.79804 c 0.853628,-1.3812 -38.35467,-40.69445 -41.189467,-41.29972 -2.737018,-0.5844 -2.55976,3.11627 0.314285,6.56144 1.283333,1.53835 9.833333,10.22855 19,19.31155 15.319894,15.18006 19.991515,18.47457 21.875182,15.42673 z M 38.659898,197.66666 C 38.651821,196.47356 31.951374,189.72452 25,183.90769 c -4.432937,-3.70943 -5,-3.88744 -5,-1.56963 0,3.3215 12.897074,16.3286 16.190477,16.3286 1.361905,0 2.473144,-0.45 2.469421,-1 z m 36.00677,-2.86289 c 0,-1.74885 -6.149072,-8.72479 -15.86301,-17.99609 -4.691321,-4.47756 -13.691321,-13.08555 -20,-19.12887 -6.308679,-6.04331 -12.520324,-10.99331 -13.803658,-11 -5.664472,-0.0295 -1.663473,5.81803 15.219633,22.24375 9.654129,9.3926 19.830369,19.32744 22.613865,22.07744 4.7029,4.6463 11.83317,6.93833 11.83317,3.80377 z m 7.524347,-10.15408 c 0.425693,-1.10935 0.0608,-2.87632 -0.810864,-3.92661 -2.352423,-2.8345 -1.230472,-8.14322 1.61985,-7.66463 4.211624,0.70716 2.820551,-6.19596 -2.416764,-11.99304 -3.723145,-4.12108 -4.421469,-5.65376 -3.23005,-7.08933 1.097293,-1.32216 2.41838,-1.49 4.750096,-0.60348 4.139688,1.5739 4.175356,-0.12294 0.1278,-6.07946 C 79.140845,142.74545 70.50924,136 67.780173,136 c -0.789105,0 0.73754,2.65097 3.392545,5.89106 4.815829,5.87708 5.944338,9.26118 3.576396,10.72464 -0.687988,0.4252 -5.937988,-3.4257 -11.666666,-8.55756 -6.267948,-5.61496 -11.610458,-9.34277 -13.415781,-9.36106 -1.65,-0.0168 -3,0.35497 -3,0.826 0,0.88936 18.651605,20.37876 26.464594,27.65333 5.997087,5.5838 7.393252,8.33701 4.743395,9.35385 -1.388732,0.53291 -5.703634,-2.62472 -13.027382,-9.53338 -6.022978,-5.68162 -14.43558,-13.48022 -18.694668,-17.33022 -7.529463,-6.80625 -12.819272,-8.92541 -12.819272,-5.13554 0,2.5231 43.565217,46.13554 46.085597,46.13554 1.098953,0 2.34639,-0.90764 2.772084,-2.01697 z m 41.887765,16.76243 c -8.45985,-8.45986 5.50667,-36.13264 22.35189,-44.28727 9.03319,-4.37289 26.42284,-4.29623 34.90267,0.15387 10.22629,5.36661 14.3728,9.1334 20.52756,18.64768 7.13812,11.03441 8.97776,19.33957 5.24814,23.6932 -2.35828,2.75286 -3.7825,2.88008 -41.36358,3.69449 -38.08804,0.82541 -38.98,0.78469 -41.66668,-1.90197 z m 70.25456,-9.21354 c 3.70608,-2.00837 3.76029,-4.14786 0.27801,-10.97369 -11.20648,-21.96649 -37.04384,-25.64035 -54.14855,-7.69945 -4.52504,4.74626 -5.70352,7.0724 -6.44713,12.72566 l -0.90995,6.91778 5.78047,0.41556 c 15.12157,1.08709 52.61296,0.15001 55.44715,-1.38586 z M 21.958562,74.953827 C 6.1040666,74.454147 6.2330536,74.656856 5.6557624,49.333333 5.4133581,38.699999 5.7640872,29.190082 6.4351604,28.200184 7.1062336,27.210285 9.6828526,25.988109 12.16098,25.484237 c 4.367614,-0.888057 4.526346,-1.146383 5.179827,-8.42988 0.774829,-8.6359966 1.262357,-9.3876905 6.088609,-9.3876905 4.718926,0 5.859168,2.196438 5.8835,11.3333335 0.01931,7.251345 0.198208,7.666666 3.302359,7.666666 2.708166,0 3.536494,-0.945337 4.737958,-5.407233 0.800809,-2.973979 1.354844,-6.423979 1.231186,-7.666667 C 38.15163,9.2434503 38.692383,8.3059563 41.998431,7.6739652 47.344975,6.6519087 49.192066,9.1556499 49.616283,18 c 0.342635,7.14347 0.704916,8.045617 3.383718,8.426068 2.229827,0.316685 3,-0.240426 3,-2.170074 0,-1.427878 0.9,-3.343076 2,-4.255994 2.437076,-2.022594 2.539507,-4.498992 0.333333,-8.058775 -1.373737,-2.2166019 -1.315152,-2.9128627 0.333334,-3.9614915 3.333536,-2.1205168 7.822078,-1.4702063 9.332541,1.3521204 0.83824,1.5662661 1.068731,5.3611721 0.559001,9.2036941 -0.774756,5.840401 -0.55395,6.706241 2.068076,8.109506 1.614491,0.86405 3.269766,1.236674 3.678387,0.828052 0.40862,-0.408621 0.731336,-4.207233 0.717145,-8.44136 -0.03277,-9.7792699 1.399175,-12.6521192 6.036966,-12.1116557 4.403323,0.5131397 6.895044,5.1018327 6.921561,12.7465757 0.0164,4.727287 0.451702,5.666667 2.625906,5.666667 1.890653,0 2.831954,-1.203112 3.428282,-4.381817 0.452119,-2.41 0.708255,-4.96 0.56919,-5.666667 -1.281462,-6.5118453 1.463816,-9.5596106 7.292997,-8.0965787 2.86249,0.7184398 3.3282,1.7813494 4.15235,9.4771297 0.77874,7.27178 1.33276,8.667933 3.43959,8.667933 1.9057,0 2.55686,-1.045041 2.7001,-4.333333 0.10381,-2.383334 0.30119,-5.533334 0.43861,-7 0.13741,-1.466667 0.35247,-3.752886 0.47791,-5.0804872 0.18361,-1.9434089 1.20247,-2.333174 5.22806,-2 4.66829,0.3863672 5.02298,0.7234117 5.34649,5.0804872 0.78302,10.546029 1.69878,13.333333 4.38059,13.333333 2.0713,0 2.60625,-0.923661 2.60625,-4.5 0,-8.828729 1.46659,-12.8159723 5.04425,-13.7139079 4.7085,-1.1817571 6.95575,2.4158604 6.95575,11.1354149 0,6.569133 0.22867,7.078493 3.17783,7.078493 3.3872,0 4.77028,-2.808319 4.80397,-9.754321 0.022,-4.545459 2.18584,-8.9198182 4.39844,-8.8919284 4.05988,0.051175 5.63795,2.7953599 6.28568,10.9304864 C 161.83146,23.8831 162.50508,26 164,26 c 1.4663,0 2.24518,-2.222682 2.91874,-8.329172 1.10034,-9.9755145 1.6361,-11.0041614 5.73138,-11.0041614 5.17662,0 7.34988,3.3792764 7.34988,11.4285714 0,5.216715 0.50683,7.238095 1.81482,7.238095 1.25322,0 2.04454,-2.533453 2.55718,-8.18698 0.42018,-4.633716 1.51324,-8.6756525 2.51852,-9.3129163 5.20858,-3.3018204 12.83686,1.390746 11.10927,6.8339073 C 196.46262,19.510524 198.32062,24 201.86215,24 c 5.55251,0 6.31429,2.661833 6.832,23.872382 0.67819,27.785265 3.1162,25.738716 -32.19601,27.026553 -25.44339,0.927921 -125.708939,0.963536 -154.539578,0.05489 z m 77.230085,-8.134144 c 7.987083,-0.556405 23.752943,-0.564883 35.035223,-0.01884 12.26128,0.593423 22.24228,0.481971 24.81136,-0.277057 2.36396,-0.698423 11.68465,-1.808863 20.71267,-2.467644 9.28396,-0.677459 17.27405,-1.911096 18.39309,-2.83982 1.57896,-1.310415 1.79469,-3.5513 1.06825,-11.095845 -0.50065,-5.199595 -1.41741,-10.816226 -2.03725,-12.481402 l -1.12696,-3.027593 -90.35585,0.40146 -90.355846,0.401461 0.119786,13.679254 c 0.07071,8.073966 0.725472,14.284937 1.597911,15.157375 0.910844,0.910844 10.075656,1.715443 23.880211,2.096495 12.321149,0.340107 22.65209,0.851047 22.957646,1.135423 0.861028,0.801349 19.229921,0.456205 35.299756,-0.663267 z"
       id="path1405" />
  </g>
</svg>
