<?xml version="1.0" encoding="UTF-8" standalone="no"?>
<!-- Created with Inkscape (http://www.inkscape.org/) -->

<svg
   version="1.1"
   id="svg233"
   width="224"
   height="250.66667"
   viewBox="0 0 224 250.66667"
   xmlns="http://www.w3.org/2000/svg"
   xmlns:svg="http://www.w3.org/2000/svg">
  <defs
     id="defs237" />
  <g
     id="g239">
    <path
       style="fill:#000000;stroke-width:1.33333"
       d="m 166.44117,244.66339 c -0.36848,-0.36847 -26.41848,-0.95364 -57.88889,-1.30039 -31.470421,-0.34676 -58.978309,-1.12758 -61.128643,-1.73517 -4.697141,-1.32721 -8.685326,-6.31745 -9.956598,-12.45823 l -0.9322,-4.50293 -11.445754,0.47568 C 12.703027,225.65712 4.1094472,223.6033 3.8464607,220.06548 3.3599423,213.52062 6.8422113,207.63702 12.21089,205.93307 15.880819,204.76828 15.202096,202.89264 10,199.82334 c -3.8858272,-2.2927 -4.6666667,-3.51582 -4.6666667,-7.30994 0,-3.853 0.6875112,-4.8844 4.4526704,-6.67988 4.0894643,-1.95012 4.7989273,-1.94426 8.6975533,0.0717 2.72438,1.40884 5.002071,4.08752 6.35877,7.47824 1.162637,2.90572 2.531037,5.28312 3.04089,5.28312 0.509852,0 2.956355,-2.09376 5.436671,-4.6528 5.29588,-5.46396 12.479691,-7.45239 15.611053,-4.32103 2.967291,2.96729 0.06399,11.33997 -4.313184,12.43857 -1.746273,0.4383 -3.930154,1.70675 -4.853069,2.81879 -1.392112,1.67739 -1.112261,2.50855 1.642428,4.87804 5.321556,4.57745 7.926217,9.11291 7.926217,13.80183 0,4.46202 3.80885,9.70332 7.051411,9.70332 2.847868,0 10.532019,-4.39282 17.921081,-10.24499 10.364499,-8.20873 22.333514,-10.23723 38.360845,-6.50136 8.8242,2.05687 26.01588,7.62161 35.33333,11.43699 7.72245,3.16225 12.75885,4.09604 26.66667,4.94425 15.95312,0.97293 21.59002,0.93227 24.74318,-0.17855 1.84966,-0.6516 3.78839,-0.12 5.95206,1.63202 2.77974,2.25089 3.00825,3.03868 1.7087,5.89086 -1.18062,2.5912 -2.843,3.47654 -7.80481,4.15663 -7.42793,1.01811 -31.8562,1.16264 -32.82463,0.1942 z m -53.10784,-15.22393 c 0,-1.57911 -16.138718,-3.33164 -19.845739,-2.15508 -6.024348,1.91205 -2.324114,3.38229 8.512409,3.38229 6.23333,0 11.33333,-0.55224 11.33333,-1.22721 z M 95.033397,181.4211 C 89.972257,180.16094 84,176.48819 84,174.63594 c 0,-0.71643 -1.153965,-1.3026 -2.564367,-1.3026 -5.486564,0 -13.144405,-8.99522 -16.392628,-19.25544 -3.978796,-12.56791 -3.55423,-18.72951 2.210334,-32.0779 2.160536,-5.00292 13.738086,-18 16.034062,-18 0.938823,0 4.405352,-1.19363 7.703399,-2.65251 3.85028,-1.703165 9.51815,-2.766773 15.83616,-2.971747 13.53097,-0.438987 24.8273,4.476717 32.63792,14.202687 9.02333,11.23608 12.68744,28.28624 8.3424,38.81961 -1.19533,2.89775 -3.21285,7.77599 -4.4834,10.84054 -2.75135,6.63622 -10.75376,13.43898 -19.99055,16.99374 -7.25548,2.79226 -21.46302,3.8911 -28.299933,2.18878 z m 15.633273,-9.80692 c 0,-2.47018 -16.024153,-19.67758 -22.510223,-24.17243 -3.019379,-2.09243 -5.48978,-4.62281 -5.48978,-5.62308 0,-1.00027 -0.550928,-1.81867 -1.224284,-1.81867 -0.673355,0 -2.173355,-0.36418 -3.333334,-0.80932 -1.28517,-0.49316 -2.10781,-0.10253 -2.105878,1 0.0041,2.3631 18.544414,21.14266 20.873252,21.14266 0.984634,0 1.790244,0.72144 1.790244,1.60318 0,2.18599 8.104003,10.39682 10.261553,10.39682 0.95615,0 1.73845,-0.77363 1.73845,-1.71916 z M 89.321768,168.0126 c -0.02162,-1.27012 -9.483467,-10.67926 -10.739072,-10.67926 -1.985123,0 -1.487193,1.3324 2.083971,5.57649 C 82.5,165.08862 84,168.03032 84,169.44694 c 0,2.24189 0.345561,2.35985 2.666667,0.9103 1.466666,-0.91594 2.661462,-1.97104 2.655101,-2.34464 z m 37.344902,-1.78161 c 0,-1.6514 -22.09725,-24.25843 -38.629282,-39.52045 -7.173784,-6.62269 -9.330449,-7.49802 -10.420045,-4.22923 -0.63664,1.90992 24.352797,27.83176 36.975417,38.35504 8.59358,7.16433 12.07391,8.71935 12.07391,5.39464 z m 9.0946,-9.325 c 0.4441,-2.2898 -21.26502,-25.09108 -28.0946,-29.50799 C 105.65,126.09375 104,124.47732 104,123.80592 c 0,-1.25072 -8.135773,-8.90075 -11.638995,-10.94409 -1.174072,-0.6848 -2.54783,-0.54167 -3.448834,0.35933 -1.107772,1.10778 4.38806,7.3907 21.117469,24.14186 12.43822,12.45438 23.21992,22.44297 23.95932,22.19684 0.73941,-0.24612 1.53695,-1.44036 1.77231,-2.65387 z M 140,142.37355 C 140,139.87008 107.61243,108 105.06831,108 c -1.3209,0 -2.40164,0.41133 -2.40164,0.91407 0,1.63046 5.74961,7.08593 7.46798,7.08593 0.9184,0 1.86381,0.88581 2.10092,1.96846 0.63589,2.90359 25.16942,27.47797 26.56883,26.61309 0.65759,-0.40641 1.1956,-1.40001 1.1956,-2.208 z m -2.66667,-19.97674 c 0,-1.80062 -7.93315,-10.39681 -9.59489,-10.39681 -2.15841,0 -0.98272,3.90124 2.38009,7.8977 3.49242,4.15051 7.2148,5.43989 7.2148,2.49911 z M 97.333333,64.418006 c -16.250937,-1.217308 -34.828112,-4.795772 -56,-10.787108 C 29.425401,50.261126 11.921106,41.285655 10.294403,37.715433 7.6777716,31.972551 10.408074,27.743626 17.979472,25.812144 21.633075,24.880102 25.832349,23.539703 27.311193,22.83348 28.790037,22.127258 32.1,21.197322 34.666667,20.766954 37.233333,20.336587 42.333333,19.127004 46,18.078992 84.309939,7.1291949 137.39943,6.0247033 168.66667,15.526994 c 3.66666,1.11432 9.87001,2.882874 13.78521,3.930121 7.22517,1.932607 14.73161,4.848755 28.53424,11.085151 5.73176,2.589765 7.65627,4.15246 7.66667,6.225316 0.0219,4.356601 -5.11291,7.983248 -16.65279,11.761743 -5.86667,1.92092 -11.86667,4.036636 -13.33333,4.70159 -4.01268,1.819262 -18.59594,4.955106 -31.33334,6.737616 -6.23333,0.872314 -16.80765,2.43625 -23.49849,3.475414 -11.35681,1.763845 -22.12266,2.051137 -36.501507,0.974061 z M 126.73347,51.919094 c 9.86326,-0.777832 23.0332,-2.239667 29.26653,-3.248521 10.01328,-1.620635 15.14392,-2.734295 34.66667,-7.524768 2.56666,-0.629807 5.56374,-1.72157 6.66017,-2.42614 1.71968,-1.105075 1.64521,-1.535714 -0.54212,-3.135127 -1.39459,-1.019748 -5.59167,-2.568516 -9.32683,-3.441704 -9.80516,-2.292196 -15.15825,-3.678447 -23.55701,-6.100395 -9.6198,-2.774055 -35.28394,-5.289513 -53.90088,-5.283068 -17.693785,0.0061 -64.753724,5.764005 -70.156859,8.583835 -1.186272,0.6191 -4.636272,1.793274 -7.666666,2.609274 C 18.628016,35.600702 31.044876,41.485083 66,47.981537 c 8.066667,1.4992 17.945631,3.045628 21.953255,3.436506 4.007622,0.390879 7.557622,0.981724 7.888889,1.31299 0.979497,0.979497 11.772216,0.695825 30.891326,-0.811939 z"
       id="path261" />
  </g>
</svg>
