<?xml version="1.0" encoding="UTF-8" standalone="no"?>
<!-- Created with Inkscape (http://www.inkscape.org/) -->

<svg
   version="1.1"
   id="svg223"
   width="88"
   height="224"
   viewBox="0 0 88 224"
   xmlns="http://www.w3.org/2000/svg"
   xmlns:svg="http://www.w3.org/2000/svg">
  <defs
     id="defs227" />
  <g
     id="g229">
    <path
       style="fill:#000000;stroke-width:1.33333"
       d="m 28,215.89348 c -7.984932,-1.59076 -9.1302,-3.43461 -7.875631,-12.67957 0.711446,-5.24267 2.193511,-9.01082 4.867586,-12.37582 2.114581,-2.66096 4.295176,-5.59346 4.845766,-6.51669 1.251126,-2.09788 -0.20426,-6.98807 -2.079745,-6.98807 -2.808337,0 -11.648019,-11.2943 -11.703292,-14.95309 -0.10756,-7.11969 8.180977,-8.45029 14.82684,-2.38024 2.408692,2.2 5.405695,4 6.660007,4 2.112901,0 2.247182,-3.06329 1.826484,-41.66667 C 39.118268,99.416667 38.513475,79.097239 38.024027,77.179051 37.53458,75.260861 37.822623,71.134539 38.664123,68.009445 40.377616,61.64602 39.316289,59.517309 34.309659,59.275668 28.122939,58.977072 17.453953,54.385267 13.143161,50.165859 9.3181639,46.421947 5.3333333,37.864315 5.3333333,33.393845 c 0,-0.723149 1.4679127,-4.482598 3.2620283,-8.354332 C 12.399915,16.829221 17.23208,13.186708 28.666667,9.9096485 c 7.145376,-2.0478062 9.346674,-2.1078452 20.606,-0.5620136 15.261788,2.0953431 21.394,5.1749641 21.394,10.7441491 0,2.707685 -1.170936,4.694093 -4,6.785711 -2.2,1.62653 -4,3.682337 -4,4.56846 0,1.822206 8.738685,9.887378 10.713061,9.887378 1.700524,0 1.644683,4.840194 -0.09331,8.087655 C 72.527287,50.839445 71.00734,52 69.908764,52 c -4.443057,0 -15.200944,6.705124 -16.024869,9.987903 -0.455435,1.814596 -0.491304,16.959652 -0.07971,33.655681 0.411595,16.696026 0.774032,39.506416 0.805417,50.689746 0.03139,11.18334 0.570784,20.33334 1.198663,20.33334 0.627877,0 3.891883,-2.1 7.253344,-4.66667 6.990128,-5.33736 10.168873,-5.79695 13.631451,-1.97084 2.297638,2.53887 2.312133,2.96333 0.248924,7.28992 -1.204923,2.52676 -4.609792,6.12116 -7.566376,7.98757 -6.377651,4.02603 -7.019803,8.0172 -2.042278,12.69335 1.833334,1.72233 3.333334,3.94687 3.333334,4.94341 0,0.99655 1.379425,4.64196 3.06539,8.10091 6.372598,13.07413 2.43865,15.88021 -22.398724,15.97696 C 41.8,217.05848 31.3,216.55091 28,215.89348 Z m 25.666667,-11.41595 c 2.75,-0.45454 5,-1.58578 5,-2.51386 0,-2.21886 -8.866122,-9.96367 -11.406224,-9.96367 -3.621191,0 -12.593776,6.59549 -12.593776,9.25732 0,3.53809 8.431433,4.96709 19,3.22021 z M 50.47484,43.302937 c 0.419075,-0.419073 -1.147585,-2.546572 -3.481465,-4.727773 -3.858191,-3.605792 -4.102752,-4.296088 -2.693915,-7.603825 0.852227,-2.000903 2.415159,-4.675496 3.473181,-5.94354 1.683408,-2.017571 1.666346,-2.404282 -0.136606,-3.096139 -1.133156,-0.434833 -4.364827,-0.150689 -7.181492,0.631432 -2.816666,0.78212 -6.882539,1.425383 -9.035275,1.429472 -4.526723,0.0086 -10.085935,4.620617 -10.085935,8.367465 0,3.980044 3.977996,9.758728 7.837614,11.385406 3.39451,1.430653 19.770892,1.090504 21.303893,-0.442498 z"
       id="path400" />
  </g>
</svg>
