<?xml version="1.0" encoding="UTF-8" standalone="no"?>
<!-- Created with Inkscape (http://www.inkscape.org/) -->

<svg
   version="1.1"
   id="svg213"
   width="138.66667"
   height="212"
   viewBox="0 0 138.66667 212"
   xmlns="http://www.w3.org/2000/svg"
   xmlns:svg="http://www.w3.org/2000/svg">
  <defs
     id="defs217" />
  <g
     id="g219">
    <path
       style="fill:#000000;stroke-width:1.33333"
       d="m 72.933412,201.4696 c -5.719957,-2.05487 -11.089957,-4.42615 -11.933333,-5.26952 -2.201907,-2.20191 -5.016012,-1.90335 -10.681658,1.13325 -5.955025,3.19171 -17.200336,3.62044 -19.585322,0.74671 -0.876381,-1.05597 -2.869465,-2.10597 -4.429077,-2.33333 -6.463804,-0.94228 -11.501976,-19.01822 -7.151454,-25.65795 2.440065,-3.72401 2.854894,-8.18141 0.875268,-9.40489 C 17.527427,159.13853 9.8481798,144.60672 6.9341292,135.906 5.019142,130.18828 4.0000001,123.88743 4.0000001,117.76575 c 0,-8.10541 0.6156888,-10.53788 4.532241,-17.906007 2.6231889,-4.93495 5.5717009,-8.729291 7.0000009,-9.008067 1.357266,-0.264912 3.967758,-2.228397 5.801092,-4.3633 4.616277,-5.375621 15.159816,-8.972444 23.852836,-8.137155 3.778193,0.363038 7.192338,1.182527 7.586991,1.82109 0.394654,0.638562 3.102088,1.161022 6.016522,1.161022 5.372428,0 14.116651,3.742788 23.293279,9.970215 5.78406,3.925169 8.513595,4.157348 14.21481,1.209136 4.287598,-2.217203 11.595278,-2.667087 18.541378,-1.141467 2.59177,0.569247 5.82552,3.234892 9.38106,7.732982 5.24161,6.631141 5.4021,7.126841 4.72496,14.594371 -0.38551,4.25155 -1.65589,9.18754 -2.82305,10.96885 -2.76897,4.22598 -2.68216,8.33691 0.29956,14.18538 1.33192,2.61248 3.51786,8.23501 4.85763,12.49453 2.00923,6.38784 2.16239,8.50114 0.87428,12.06334 -0.85893,2.37533 -1.21695,6.62965 -0.7956,9.45405 0.80171,5.37401 -0.21112,7.86233 -7.78034,19.11455 -8.52856,12.67833 -30.374525,16.7721 -50.644238,9.49033 z m 34.194468,-9.61057 c 6.77584,-4.48814 10.20546,-8.51828 10.20546,-11.99244 0,-1.21371 0.9,-2.95367 2,-3.86659 3.29438,-2.73409 2.56573,-15.47145 -1.45513,-25.43679 C 112.66136,137.63375 106.27049,128.7117 91.499744,113.73725 73.97969,95.975579 61.544764,89.737836 42.584385,89.199795 29.792355,88.836792 21.843809,93.853332 14.90869,106.66667 c -4.294089,7.93376 -2.561498,27.43074 3.080636,34.66666 0.857714,1.1 3.101847,4.7 4.98696,8 8.290352,14.51274 40.51359,40.82198 55.606203,45.40068 1.879632,0.57023 7.664646,1.08835 12.855587,1.15139 8.428073,0.1024 10.107094,-0.32853 15.689804,-4.02637 z m -60.773155,-2.5257 c 0.641408,-3.38734 -12.753242,-16 -16.992007,-16 -5.395551,0 -5.432381,9.4688 -0.05773,14.84344 3.468953,3.46896 4.775333,3.92007 10.32134,3.56411 4.35588,-0.27957 6.468607,-1.03555 6.728401,-2.40755 z M 116,112.89909 c 0,-4.3367 -0.78056,-6.50089 -3.14629,-8.72338 -3.95224,-3.71293 -9.9548,-4.315667 -11.97567,-1.20251 -1.252744,1.92986 -0.42061,3.39961 5.09557,9 8.2123,8.33768 10.02639,8.5052 10.02639,0.92589 z M 18.997076,57.573549 C 11.634605,56.527989 11.839822,45.253343 19.503638,29.74298 23.116031,22.43206 25.867733,18.861143 30.494575,15.479903 46.279869,3.9442009 65.955595,3.2919519 81.75733,13.780545 c 8.847495,5.872632 14.419392,13.93335 18.172519,26.289703 3.045591,10.026952 2.509091,13.197313 -2.705556,15.988111 -2.487305,1.331164 -70.277162,2.644193 -78.227217,1.51519 z M 55.619916,46.4899 c 4.557619,-0.02112 8.90188,0.341875 9.653914,0.806657 2.254696,1.393479 22.726172,-2.237676 22.726172,-4.031084 0,-3.751481 -4.156804,-10.934157 -8.899437,-15.377625 -10.429269,-9.771387 -12.061643,-10.554515 -22.00016,-10.554515 -10.639561,0 -17.511665,2.813275 -25.433738,10.411964 -4.527598,4.342779 -5,5.45395 -5,11.760868 0,8.183618 0.721146,8.61989 12.666667,7.662983 4.4,-0.352465 11.728962,-0.658127 16.286582,-0.679248 z"
       id="path539" />
  </g>
</svg>
