<?xml version="1.0" encoding="UTF-8" standalone="no"?>
<!-- Created with Inkscape (http://www.inkscape.org/) -->

<svg
   version="1.1"
   id="svg203"
   width="225.33333"
   height="209.33333"
   viewBox="0 0 225.33333 209.33333"
   xmlns="http://www.w3.org/2000/svg"
   xmlns:svg="http://www.w3.org/2000/svg">
  <defs
     id="defs207" />
  <g
     id="g209">
    <path
       style="fill:#000000;stroke-width:1.33333"
       d="m 162.66666,205.6038 c -4.22316,-0.35856 -9.192,-2.07786 -16.66666,-5.76694 -3.76279,-1.8571 -10.2462,-7.91974 -13.00271,-12.15884 -5.28154,-8.1222 -7.32292,-17.16752 -7.1572,-31.7134 L 126,141.92925 l 5.16061,-6.29796 c 2.83835,-3.46388 5.92908,-6.29796 6.86831,-6.29796 0.93922,0 2.92666,-2.06603 4.41653,-4.59117 2.72125,-4.61218 8.59653,-7.27258 17.89884,-8.10482 2.02269,-0.18096 4.42444,-0.94881 5.33719,-1.70633 2.89098,-2.3993 21.97956,0.48934 27.52308,4.16503 12.05169,7.99097 20.35036,20.34146 22.10913,32.90396 1.63367,11.66878 -3.86305,29.48706 -11.86272,38.45446 -3.24207,3.6343 -13.14001,10.5208 -18.04937,12.55788 -4.17139,1.73088 -16.42279,3.12736 -22.73494,2.59146 z m 15.18623,-11.59603 c 2.37715,-1.79961 2.39425,-2.09865 0.30259,-5.29093 -1.21932,-1.86094 -2.95666,-3.38351 -3.86074,-3.38351 -2.02773,0 -5.47246,7.42775 -4.31401,9.30216 1.1862,1.91931 4.89876,1.62327 7.87216,-0.62772 z M 160.79096,187 c 0.50149,-2.75 1.94118,-6.5 3.19932,-8.33334 1.25813,-1.83333 2.68644,-4.98333 3.17401,-7 1.33216,-5.50992 6.29209,-4.92009 11.21231,1.33334 2.16372,2.75 4.32945,6.27086 4.81274,7.82416 1.42007,4.56394 5.62147,7.59606 9.25999,6.68286 3.93512,-0.98765 7.85319,-6.64764 7.86367,-11.35972 0.014,-6.28717 1.03992,-9.48064 3.04573,-9.48064 1.08603,0 2.01192,-0.15 2.05752,-0.33333 0.0456,-0.18333 0.3756,-2.88333 0.73333,-6 0.6328,-5.51325 -0.29881,-6.94673 -2.88292,-4.43593 -0.69666,0.6769 -3.06666,1.4269 -5.26666,1.66666 -2.96855,0.32352 -4.10996,1.21028 -4.42646,3.43886 -0.51349,3.61585 -4.68861,6.12432 -8.29057,4.98109 -1.92423,-0.61072 -2.61631,-2.03051 -2.61631,-5.36728 0,-5.19384 4.28562,-9.13408 13.7287,-12.62232 3.08833,-1.14083 5.77693,-3.07871 6.0196,-4.33879 0.60902,-3.16238 -10.41186,-15.66788 -13.7483,-15.60031 -1.84529,0.0374 -3.5801,1.98792 -5.63222,6.33267 -2.59122,5.48612 -4.362,8.0389 -11.06082,15.94535 -2.21493,2.61424 -3.34849,2.04541 -7.30696,-3.66667 -2.0328,-2.93333 -4.2144,-5.33333 -4.848,-5.33333 -0.6336,0 -1.17196,-1.65 -1.19636,-3.66667 -0.0244,-2.01666 -1.22778,-5.08732 -2.6742,-6.82367 -2.24518,-2.69526 -2.94205,-2.89789 -4.7645,-1.38539 -1.17407,0.97439 -3.39734,2.40112 -4.94058,3.17051 -2.7781,1.38505 -5.39933,9.03466 -4.23936,12.37189 0.31862,0.91666 2.12648,1.66666 4.01746,1.66666 3.97534,0 15.31221,10.34299 15.31221,13.96983 0,3.17375 -12.03753,13.91319 -15.66667,13.97723 -4.64897,0.082 -3.63078,3.41949 3.27564,10.73705 7.67778,8.13483 10.59198,8.54045 11.84866,1.64923 z m -18.63071,-23.6477 c 6.55716,-2.73976 5.194,-5.3523 -2.79272,-5.3523 -4.70091,0 -6.80453,0.63232 -7.88888,2.37129 -1.14506,1.83631 -1.02744,2.65892 0.52135,3.64624 2.75721,1.75767 4.65953,1.63312 10.16025,-0.66523 z m 32.45952,-33.87686 c 2.18568,-6.62269 1.02832,-8.56268 -4.41337,-7.39775 -2.31352,0.49527 -4.38539,1.05938 -4.60415,1.25358 -0.92251,0.81897 4.48832,11.33539 5.8322,11.33539 0.80963,0 2.24303,-2.33605 3.18532,-5.19122 z M 8.8434313,201 C 6.3251762,196.99154 4.9049739,136.3052 7.1657298,129.31051 L 8.6666665,124.66666 22,123.61662 c 7.333333,-0.57753 20.533333,-1.04944 29.333333,-1.0487 l 15.999999,0.001 1.882242,4.38202 c 1.381354,3.21592 2.045616,12.9703 2.496168,36.65509 l 0.613925,32.27306 -4.205295,4.2053 c -3.906626,3.90663 -4.652084,4.14027 -10.496166,3.2897 -3.45998,-0.50358 -7.619611,-1.76874 -9.243624,-2.81147 C 39.388239,194.78923 27.616509,193.64235 23.855908,198.1736 21.772968,200.68341 15.458825,204 12.763617,204 11.644105,204 9.8800217,202.65 8.8434313,201 Z M 61.675032,190.33333 c 1.101222,-2.9272 -1.219158,-54.41079 -2.51051,-55.70215 -1.960599,-1.96059 -35.286914,-2.11146 -38.831189,-0.17578 -2.955765,1.61426 -3,2.02977 -3,28.17949 0,15.89061 0.524224,26.86505 1.306372,27.34844 0.718505,0.44407 4.108159,-0.14384 7.532564,-1.30647 6.702143,-2.27542 15.155446,-1.7225 22.482777,1.47058 5.136029,2.23817 12.20992,2.33917 13.019986,0.18589 z M 93.289885,61.19053 c -11.27961,-0.891799 -27.413486,-3.854687 -52.623219,-9.663935 -4.4,-1.013921 -12.2,-3.792921 -17.333333,-6.175554 C 18.2,42.968407 12.5,40.320991 10.666667,39.467895 6.8812,37.706419 5.361675,30.700554 8.265246,28.395996 10.689493,26.471876 31.26044,18.777202 39.558833,16.690461 43.349525,15.737241 47.050602,14.58676 47.783449,14.133836 49.041169,13.356521 67.972506,9.736384 76.666666,8.6106532 78.866665,8.3257944 85.90968,7.3876084 92.317809,6.5257956 107.7575,4.4493506 145.13777,5.6141668 153.33333,8.4271161 c 3.3,1.1326541 10.5,2.6842809 16,3.4480599 5.5,0.763778 13.3,2.649266 17.33333,4.189972 4.03334,1.540706 8.83334,3.299512 10.66667,3.908457 1.83333,0.608945 7.68333,3.256279 13,5.882964 10.07801,4.979013 11.41301,7.055657 8.28875,12.893397 -1.54042,2.878303 -10.55939,7.906212 -14.23563,7.936104 C 203.0739,46.69674 199.3,47.676277 196,48.862813 c -6.17155,2.219016 -8.66747,2.854908 -24.66667,6.284357 -29.14292,6.246824 -52.54727,8.05916 -78.043445,6.04336 z M 146.80834,46.646465 c 10.36475,-1.477778 19.44702,-3.05893 20.1828,-3.513671 0.73579,-0.454741 7.71379,-2.095652 15.50666,-3.646465 11.8576,-2.359711 14.16886,-3.220504 14.16886,-5.27696 0,-2.890312 -8.1059,-6.158248 -15.35216,-6.189295 -2.57701,-0.01104 -7.96854,-1.220074 -11.98117,-2.686741 -4.01263,-1.466667 -10.00416,-2.6757 -13.31451,-2.686741 -3.31036,-0.01104 -8.41882,-0.884707 -11.35216,-1.941478 -3.28665,-1.184058 -10.61137,-1.943858 -19.08709,-1.979924 -16.413,-0.06984 -63.251439,3.5279 -68.912904,5.293316 -2.2,0.686027 -7.821725,2.1405 -12.492723,3.232164 -4.670997,1.091663 -10.022256,2.98703 -11.891683,4.211927 l -3.398962,2.227085 3.249628,1.702652 c 7.548912,3.955275 47.623089,11.443839 67.200406,12.557577 26.620568,1.514423 27.971318,1.477338 47.475008,-1.303446 z"
       id="path678" />
  </g>
</svg>
