<?xml version="1.0" encoding="UTF-8" standalone="no"?>
<!-- Created with Inkscape (http://www.inkscape.org/) -->

<svg
   version="1.1"
   id="svg75"
   width="213.33333"
   height="237.33333"
   viewBox="0 0 213.33333 237.33333"
   xmlns="http://www.w3.org/2000/svg"
   xmlns:svg="http://www.w3.org/2000/svg">
  <defs
     id="defs79" />
  <g
     id="g81">
    <path
       style="fill:#000000;stroke-width:1.33333"
       d="m 121.33333,229.41836 c -2.56667,-0.5179 -6.58687,-1.9489 -8.93379,-3.18 C 110.05263,225.00726 107.2894,224 106.25904,224 103.7305,224 87.010173,208.55169 84.794568,204.16846 83.265425,201.14329 81.822815,195.6543 79.241203,183.03848 78.907889,181.40965 77.405445,179.41884 75.902437,178.61445 73.249984,177.1949 53.693072,176.0648 23.037493,175.55964 10.939883,175.36029 7.6395885,174.87768 5.801032,173.03913 3.8772769,171.11537 3.7782811,170.21384 5.1582219,167.1852 l 1.6311445,-3.57998 36.6806046,0.7183 36.680606,0.71829 3.112663,-4.85424 c 6.88932,-10.74399 17.03876,-17.45025 26.48623,-17.50083 6.38145,-0.0341 16.83474,4.11207 19.6942,7.81159 1.48859,1.92592 4.04826,5.60167 5.68817,8.16833 l 2.98162,4.66667 17.94327,-0.048 c 9.8688,-0.0264 18.54327,-0.24743 19.2766,-0.49123 0.73333,-0.24381 8.07191,-0.37222 16.30793,-0.28538 14.92108,0.15733 14.97767,0.17016 15.83588,3.58954 0.47372,1.88742 0.21948,4.84028 -0.56496,6.56195 -1.37933,3.02732 -2.0318,3.14637 -19.83588,3.61943 -10.1253,0.26904 -24.276,0.004 -31.44598,-0.5894 -13.75399,-1.13787 -18.29699,-0.15671 -18.29699,3.95166 0,3.3798 -6.7003,12.30702 -10.84608,14.45088 -7.75143,4.00842 -19.68366,1.21444 -25.31918,-5.92858 -2.28827,-2.90039 -2.669922,-4.91638 -2.235349,-11.80774 0.438568,-6.9547 1.152749,-8.96642 4.378449,-12.33333 4.3329,-4.52257 5.72929,-4.83956 9.42261,-2.13893 2.53502,1.85365 2.52835,1.98388 -0.41183,8.03566 -3.66636,7.54647 -3.77449,10.89906 -0.40961,12.6999 3.72967,1.99605 4.75558,1.76798 9.31869,-2.07162 3.30935,-2.78464 4.1023,-4.47265 4.1023,-8.73288 0,-6.11006 -2.90192,-12.4671 -6.59281,-14.44241 -3.64939,-1.95309 -11.58383,-1.69804 -15.80673,0.50811 -1.98025,1.03453 -5.324672,3.69482 -7.432043,5.91177 -3.762979,3.95861 -3.814283,4.2174 -2.865268,14.45236 1.194042,12.87755 5.538559,22.3314 13.208811,28.74293 8.80279,7.35822 15.7483,10.34531 24.05468,10.34531 5.89177,0 7.6118,0.50872 8.71979,2.57901 1.96081,3.66383 1.73828,5.06295 -1.28643,8.08766 -2.76983,2.76982 -7.30836,3.17216 -16,1.41836 z m 1.33333,-138.666665 c -2.56666,-0.517902 -6.58687,-1.948903 -8.93378,-3.180002 -2.34692,-1.231098 -5.11014,-2.238361 -6.1405,-2.238361 -2.52855,0 -19.248873,-15.448302 -21.464479,-19.831537 C 84.598759,62.476622 83.156148,56.987641 80.574536,44.371819 80.241223,42.742986 78.738779,40.752171 77.235771,39.947786 74.583318,38.528237 55.026406,37.398137 24.370826,36.892975 12.273217,36.693625 8.9729219,36.211017 7.1343654,34.372461 5.2106102,32.448705 5.1116145,31.547174 6.4915552,28.518533 l 1.6311445,-3.579972 36.6806053,0.718291 36.680606,0.71829 3.112662,-4.854237 C 91.485893,10.77692 101.63533,4.0706579 111.0828,4.020075 c 6.38146,-0.034167 16.83474,4.1120682 19.6942,7.811589 1.48859,1.925918 4.04826,5.601669 5.68817,8.168336 l 2.98163,4.666666 17.94326,-0.04795 c 9.8688,-0.02637 18.54327,-0.247426 19.2766,-0.491228 0.73334,-0.243803 8.07191,-0.372226 16.30794,-0.285383 14.92108,0.157331 14.97766,0.170159 15.83588,3.589551 0.47372,1.88741 0.21948,4.840284 -0.56496,6.56194 -1.37934,3.027321 -2.0318,3.146374 -19.83588,3.619435 -10.12531,0.269032 -24.276,0.0039 -31.44599,-0.589401 -13.75399,-1.137929 -18.29699,-0.156775 -18.29699,3.951609 0,3.379798 -6.7003,12.307004 -10.84608,14.450871 -7.75143,4.00842 -19.68365,1.214447 -25.31917,-5.928579 -2.28828,-2.900385 -2.669929,-4.916374 -2.23536,-11.807738 0.43857,-6.954709 1.15275,-8.966424 4.37846,-12.333333 4.33289,-4.522572 5.72928,-4.839554 9.4226,-2.138936 2.53503,1.853658 2.52835,1.983889 -0.41183,8.035668 -3.66636,7.546474 -3.77449,10.899059 -0.4096,12.699891 3.72966,1.996059 4.75558,1.767991 9.31868,-2.071613 3.30935,-2.784632 4.1023,-4.472652 4.1023,-8.73288 0,-6.110061 -2.90192,-12.467098 -6.59281,-14.442402 -3.64939,-1.953095 -11.58383,-1.698043 -15.80673,0.508106 -1.98025,1.034531 -5.324668,3.694824 -7.43204,5.911763 -3.762979,3.958625 -3.814283,4.217403 -2.865268,14.452368 1.194043,12.877541 5.53856,22.331393 13.208808,28.742927 8.80279,7.358219 15.7483,10.34531 24.05468,10.34531 5.89178,0 7.6118,0.508722 8.71979,2.579012 1.96081,3.663831 1.73828,5.062953 -1.28643,8.087654 -2.76982,2.769832 -7.30835,3.172161 -16,1.418363 z"
       id="path928" />
  </g>
</svg>
