<?xml version="1.0" encoding="UTF-8" standalone="no"?>
<!-- Created with Inkscape (http://www.inkscape.org/) -->

<svg
   version="1.1"
   id="svg193"
   width="214.66667"
   height="216"
   viewBox="0 0 214.66667 216"
   xmlns="http://www.w3.org/2000/svg"
   xmlns:svg="http://www.w3.org/2000/svg">
  <defs
     id="defs197" />
  <g
     id="g199">
    <path
       style="fill:#000000;stroke-width:1.33333"
       d="M 17.991915,206 C 8.6870725,199.6258 6.7229172,196.18373 5.3071799,183.77069 3.3581758,166.68201 6.3508996,159.423 18.210591,152.47276 l 6.01556,-3.52535 61.553593,-0.99565 c 33.854476,-0.54761 61.934056,-0.76835 62.399056,-0.49052 0.46502,0.27783 9.50959,0.57323 20.09904,0.65645 22.38802,0.17595 27.94528,2.01334 35.33546,11.68292 10.19197,13.33559 9.55417,31.09655 -1.48199,41.26934 -10.85832,10.00884 -8.68011,9.68065 -58.38855,8.79746 -24.42518,-0.43397 -47.109425,-0.74052 -50.409425,-0.68122 -3.3,0.0593 -20.288029,0.26665 -37.751175,0.4608 L 23.830984,210 Z m 88.674755,-7.28781 c 7.7,-0.1164 18.62982,-0.80012 24.28849,-1.51935 8.12608,-1.03285 11.06856,-0.92139 14,0.53029 3.25447,1.61166 14.60656,2.07735 28.04484,1.15046 3.92732,-0.27088 4.04951,-5.80244 0.26528,-12.00952 l -2.72474,-4.46927 -63.60361,0.92059 c -34.981976,0.50632 -63.893417,1.2073 -64.247644,1.55776 -1.091685,1.08002 -3.943063,11.65085 -3.312732,12.28118 1.652396,1.6524 12.721308,2.37572 31.95678,2.08828 11.733334,-0.17533 27.633334,-0.41402 35.333336,-0.53042 z M 30.937236,188.66667 c 3.861699,-10.79286 3.090871,-17.64942 -2.810553,-25 -3.034148,-3.77923 -7.805135,-2.90416 -10.904384,2 -2.305011,3.64738 -2.636773,5.83713 -2.095832,13.83325 0.867023,12.81625 3.424588,16.60797 10.816147,16.03551 1.852174,-0.14346 3.301409,-2.1365 4.994622,-6.86876 z m 166.579874,2.0208 c 3.74057,-6.99919 3.30483,-16.69143 -1.03177,-22.94914 -1.93307,-2.78941 -4.07923,-5.07166 -4.76923,-5.07166 -0.69001,0 -3.00841,1.75384 -5.152,3.89744 -5.15515,5.15514 -5.31328,13.0646 -0.45457,22.73805 4.11005,8.18293 7.55138,8.60084 11.40757,1.38531 z m -56.09739,-17.29063 28.75306,-0.0635 2.24694,-4.7119 c 1.23582,-2.59155 2.24695,-6.22324 2.24695,-8.07043 0,-3.93499 9.05092,-3.47983 -74,-3.72143 -30.800002,-0.0896 -57.350003,0.0571 -59.000003,0.32587 -3.756476,0.61201 -3.866944,4.13897 -0.370869,11.84092 l 2.570565,5.66303 34.400153,-0.59952 c 18.920084,-0.32974 47.339024,-0.6281 63.153204,-0.66303 z M 12.502903,71.290781 C 6.700887,65.488765 8.8729283,46.030788 15.617354,43.390343 c 2.433621,-0.952763 49.929947,-3.258454 68.871489,-3.343338 11.640282,-0.05216 11.04695,0.791595 7.059032,-10.038452 -2.274607,-6.177178 -2.051468,-6.71494 6.838173,-16.479854 5.114072,-5.6176037 7.672172,-7.3526518 12.010052,-8.1458885 7.31536,-1.3377082 10.31945,0.3511316 16.51405,9.2838565 5.615,8.096942 6.26572,12.452366 2.91531,19.512837 -1.196,2.520384 -1.946,4.801875 -1.66667,5.069981 0.83969,0.805939 46.49811,1.499322 63.84121,0.969512 13.61823,-0.416018 17.33334,3.249667 17.33334,17.102722 0,6.263633 -0.61019,8.550473 -3,11.243337 l -3,3.380427 L 130,72.558409 c -40.333332,0.33711 -82.557026,0.902955 -93.83043,1.257435 -20.208056,0.635419 -20.541792,0.599812 -23.666667,-2.525063 z m 40.830431,-9.41667 c 12.833334,-0.494371 50.234276,-1.069226 83.113206,-1.277455 32.87892,-0.208229 60.15769,-0.75644 60.6195,-1.218245 0.4618,-0.461807 0.19444,-1.86087 -0.59413,-3.10903 -1.21933,-1.929972 -4.30319,-2.33364 -20.61951,-2.699029 -39.67932,-0.888583 -93.536057,-0.871753 -122.519066,0.03829 -16.5,0.518084 -31.05,0.968084 -32.333334,1 -1.529074,0.03802 -2.333333,1.115053 -2.333333,3.124693 0,4.333688 2.316779,6.12818 7.157311,5.543795 2.296813,-0.277289 14.676023,-0.908647 27.509356,-1.403017 z M 116.31217,37 c 3.64617,-5.603201 4.03321,-12.201303 0.94594,-16.126131 -1.53174,-1.947294 -3.57929,-3.540536 -4.55009,-3.540536 -1.59977,0 -10.04135,8.490474 -10.04135,10.099512 0,0.370364 1.18396,2.99414 2.63102,5.830612 3.73379,7.318838 7.78832,8.694292 11.01448,3.736543 z"
       id="path817" />
  </g>
</svg>
