<?xml version="1.0" encoding="UTF-8" standalone="no"?>
<!-- Created with Inkscape (http://www.inkscape.org/) -->

<svg
   version="1.1"
   id="svg183"
   width="209.33333"
   height="202.66667"
   viewBox="0 0 209.33333 202.66667"
   xmlns="http://www.w3.org/2000/svg"
   xmlns:svg="http://www.w3.org/2000/svg">
  <defs
     id="defs187" />
  <g
     id="g189">
    <path
       style="fill:#000000;stroke-width:1.33333"
       d="m 76.177339,196.50748 c -2.85761,-2.00154 -3.023,-2.80466 -2.2653,-11 0.449556,-4.86245 1.0698,-28.19081 1.378318,-51.84081 l 0.560944,-43.000002 h -8.542957 c -5.193308,0 -11.045578,-0.979957 -14.925652,-2.499287 C 48.788863,86.760137 44.19275,85.939731 41.863866,86.289771 36.870882,87.040235 25.534873,81.662919 22.890498,77.28962 21.315192,74.68436 20.380344,74.449537 14.623916,75.213155 9.0301467,75.955195 7.9400801,75.712729 6.733417,73.458059 4.6805733,69.622285 4.9732309,68.238892 8.6060605,64.606061 11.086919,62.125204 13.29521,61.333334 17.732744,61.333334 c 4.175269,0 6.551226,-0.770474 8.285493,-2.686818 3.24012,-3.580292 9.455282,-5.055495 15.981762,-3.793359 2.933334,0.567268 8.088084,0.692709 11.455003,0.278757 4.256685,-0.523345 7.384592,-0.09956 10.26712,1.391058 2.279997,1.179033 5.957481,2.143696 8.172185,2.143696 H 75.92104 L 75.627187,40.333334 C 75.348851,22.968203 75.509369,21.686734 78.666665,16.068162 83.067485,8.2366765 88.706893,5.1088545 99.774554,4.3609554 c 8.228586,-0.556048 9.353206,-0.2916928 15.071416,3.5427031 4.49927,3.0170285 7.03682,6.0403285 9.33333,11.1199655 2.8688,6.345471 3.16402,8.881183 3.26449,28.039221 0.12372,23.589583 0.40839,24.386439 9.42565,26.384063 18.17774,4.026976 24.40306,5.570075 29.13056,7.220717 25.53522,8.91584 29.81878,12.245215 35.39985,27.514385 4.63828,12.68979 3.01492,24.64866 -4.45491,32.81799 -3.12112,3.4134 -9.45133,3.95378 -16.49202,1.40783 -3.67599,-1.32925 -5.18526,-1.21917 -9.1399,0.66667 -6.00161,2.86197 -14.4907,2.89536 -19.26389,0.0757 -2.0326,-1.20069 -4.96228,-4.79019 -6.51039,-7.97667 -2.98006,-6.13387 -2.88017,-9.43927 0.6111,-20.22019 1.01758,-3.14226 1.85016,-5.94232 1.85016,-6.22232 0,-0.86469 -18.79733,-6.37816 -19.46592,-5.70958 -0.34614,0.34614 -1.05791,5.29447 -1.58171,10.99628 -1.04473,11.37226 -2.69015,13.67311 -8.69951,12.16486 -3.45059,-0.86605 -3.49784,-1.04307 -3.87304,-14.50966 L 114,98.040042 108.66666,96.955908 C 98.918893,94.97443 90.006631,93.66258 89.480276,94.131747 89.194429,94.386538 88.773933,117.22423 88.545843,144.88216 l -0.41471,50.28718 -3.065568,1.70141 c -4.051732,2.24876 -5.22765,2.20069 -8.888226,-0.36327 z m 93.705641,-67.85655 c 1.40231,-2.92468 2.96662,-6.21759 3.47624,-7.31759 1.72387,-3.72086 4.87216,-2.95236 6.57504,1.60497 3.88206,10.38932 3.88644,10.39503 8.00291,10.39503 7.68243,0 9.5026,-9.62592 4.45681,-23.5696 -2.89052,-7.98775 -6.20494,-10.460309 -20.11533,-15.00601 -6.79348,-2.220008 -13.67463,-4.744342 -15.29144,-5.60963 -3.96908,-2.124192 -20.79075,-6.430217 -25.23069,-6.458581 -2.51272,-0.01605 -3.8505,0.839424 -4.49674,2.875554 -1.12422,3.542114 1.70612,5.913006 9.36568,7.845354 2.956,0.745735 8.07454,2.183056 11.37454,3.194047 3.3,1.01099 8.523,2.504426 11.60666,3.318748 10.76679,2.843248 12.57986,7.900328 4.33962,12.104188 -8.58564,4.38006 -10.87243,14.81067 -4.36866,19.92654 4.82795,3.79767 7.27715,3.01267 10.30536,-3.30302 z M 114,82.666375 c 0,-4.506 -4.9905,-6.665824 -16.255822,-7.035311 -8.226623,-0.269821 -9.077513,-0.05289 -9.077513,2.314277 0,1.799711 1.243942,2.910966 4,3.573338 2.2,0.528733 7,1.856325 10.666665,2.950206 C 112.01389,87.058567 114,86.722943 114,82.666375 Z M 75.750136,74.386104 c 0.353421,-3.064332 -0.330309,-3.92606 -4.496165,-5.666667 -5.797537,-2.422365 -15.103709,-2.671571 -19.803282,-0.530301 -2.710706,1.23508 -3.995496,1.09392 -6.806328,-0.747808 -4.715432,-3.089668 -10.519419,-2.318966 -11.058607,1.468458 -0.573961,4.031669 4.236899,6.569479 8.64564,4.560723 4.695301,-2.139322 7.711885,-1.81315 10.367228,1.120971 2.667944,2.948045 6.519445,3.804044 16.068044,3.571135 6.210187,-0.151479 6.695206,-0.410064 7.08347,-3.776511 z m 39.956114,-24.84647 c 0.3438,-16.404268 0.12233,-18.341057 -2.83623,-24.803402 -2.97762,-6.503989 -3.61791,-7.075064 -8.87505,-7.915714 C 97.679834,15.810686 93.261255,17.830884 90.479203,23 89.557341,24.71284 88.605477,33.550562 88.260681,43.598193 l -0.603902,17.598193 3.838276,0.790199 c 2.111053,0.434609 7.138277,1.908803 11.171615,3.275985 12.92355,4.380707 12.61033,4.758376 13.03958,-15.722936 z"
       id="path956" />
  </g>
</svg>
