<?xml version="1.0" encoding="UTF-8" standalone="no"?>
<!-- Created with Inkscape (http://www.inkscape.org/) -->

<svg
   version="1.1"
   id="svg173"
   width="206.66667"
   height="148"
   viewBox="0 0 206.66667 148"
   xmlns="http://www.w3.org/2000/svg"
   xmlns:svg="http://www.w3.org/2000/svg">
  <defs
     id="defs177" />
  <g
     id="g179">
    <path
       style="fill:#000000;stroke-width:1.33333"
       d="m 195.06224,139.18405 c -1.31756,-1.91542 -4.64557,-6.03253 -7.39557,-9.1491 -2.75,-3.11658 -5,-6.27793 -5,-7.02523 0,-1.62045 -64.79667,-3.07558 -117.461925,-2.63782 -38.964949,0.32388 -37.966646,0.11579 -42.562379,8.87224 -1.372836,2.61572 -3.955862,6.53549 -5.740058,8.71058 -2.880348,3.51141 -3.614488,3.78592 -6.549107,2.44881 -3.2526797,-1.48201 -3.3201722,-1.842 -4.2542484,-22.6906 C 4.8901199,90.731761 5.2228942,89.805239 16.507498,88.733053 26.545148,87.779345 137.86198,86.387801 186.33334,86.610103 204.35078,86.692736 204,86.133937 204,114.75432 c 0,13.13534 -0.58348,23.84456 -1.38024,25.33333 -1.90612,3.56162 -4.71722,3.22551 -7.55752,-0.9036 z M 26.726684,111.3615 c 3.531556,-1.20181 154.716276,-1.92048 157.794636,-0.75009 1.60311,0.6095 4.69163,3.92394 6.86338,7.36543 l 3.94864,6.25725 0.38514,-12.25133 c 0.21183,-6.73823 -0.18713,-12.940904 -0.88658,-13.783713 -0.93948,-1.132019 -22.81239,-1.428059 -83.71849,-1.133091 -45.345708,0.219611 -85.510494,0.347027 -89.255078,0.283147 l -6.808334,-0.116147 -0.846743,7.050184 c -0.465708,3.87761 -0.851957,10.92929 -0.858332,15.67042 l -0.01159,8.62023 L 19,120.31816 c 3.116667,-4.54059 6.593675,-8.57109 7.726684,-8.95666 z M 26.133643,76.216237 C 25.660251,75.450273 22.570519,73.473927 19.267572,71.824355 10.976657,67.683672 7.1123724,62.111199 5.2950465,51.675341 3.8985094,43.655833 4.0104431,42.539243 6.7501093,37.160419 8.3825009,33.955521 11.140817,29.464513 12.879701,27.1804 16.39003,22.569403 15.63711,21.0773 9.0000001,19.49178 5.8975778,18.750652 5.3333334,17.923593 5.3333334,14.117249 c 0,-2.846945 0.7641764,-4.7918542 2.0813718,-5.2973094 3.1924668,-1.2250645 51.6904988,-0.8636668 53.7358478,0.4004288 2.360396,1.4588046 0.819148,6.3452346 -2.574185,8.1612916 -3.563382,1.907064 -3.22106,6.211379 0.975608,12.267173 4.131741,5.962104 5.288421,11.495735 4.668376,22.333796 -0.381235,6.663764 -1.131228,8.601531 -5.143263,13.28869 -2.58332,3.018028 -6.883743,6.602945 -9.556495,7.966481 -5.810471,2.964281 -22.112571,5.040429 -23.386951,2.978437 z m 20.42699,-10.138008 c 2.426624,-1.790306 5.184375,-4.357758 6.128333,-5.705448 2.773239,-3.959353 4.878124,-13.606517 3.920283,-17.96754 -1.113511,-5.06978 -8.935486,-13.863388 -13.30768,-14.96074 -2.72219,-0.683225 -3.301568,-1.643116 -3.301568,-5.469904 0,-4.415413 -0.227087,-4.641264 -4.666667,-4.641264 -4.394779,0 -4.666667,0.257502 -4.666667,4.419718 0,3.699744 -0.726881,4.766341 -4.462121,6.547553 -5.407767,2.578785 -12.871212,13.385833 -12.871212,18.63748 0,10.346271 8.800381,19.836513 19.645748,21.185777 3.494839,0.434791 6.987684,0.884791 7.761879,1 0.774196,0.115214 3.393048,-1.255324 5.819672,-3.045632 z m 48.097403,8.744379 C 81.486172,70.546337 73.273827,60.653192 73.19848,48.970981 73.149907,41.439872 74.80388,36.4969 79.774884,29.317099 84.361724,22.69216 84.64124,23.534852 75.749843,17.182321 73.085204,15.278551 72.923269,14.627216 74.340992,11.515655 L 75.942831,8 h 25.933349 c 21.49224,0 26.28246,0.3491092 27.97193,2.038585 2.63218,2.63218 1.73731,4.74649 -3.20232,7.566068 -5.01739,2.863974 -5.00855,4.910183 0.0421,9.749054 4.50425,4.315348 6.61707,10.591744 6.83595,20.30705 0.21852,9.698964 -5.87645,19.7576 -14.69944,24.258754 -5.70099,2.908426 -19.167164,4.52611 -24.166407,2.903097 z M 117.70234,62.955167 c 9.42336,-9.13348 9.94272,-22.409238 1.19114,-30.447698 -2.69141,-2.472101 -5.62237,-4.497596 -6.51323,-4.501098 -2.3077,-0.0091 -4.67085,-4.990294 -3.74755,-7.899359 0.65754,-2.071701 -0.18996,-2.604448 -5.38166,-3.382992 -6.884977,-1.032465 -8.409833,-0.393516 -5.997548,2.513108 2.472508,2.979191 0.597239,6.708313 -5.497305,10.931836 -11.827131,8.196207 -12.280847,25.182621 -0.917275,34.341324 4.063702,3.275223 5.353974,3.58006 13.463538,3.180868 8.00413,-0.394001 9.44581,-0.903541 13.39989,-4.735989 z m 44.64972,11.717216 C 142.7196,68.760964 136.39434,46.171145 149.29762,28.050164 c 3.6855,-5.175813 3.4398,-6.371684 -1.96428,-9.560165 -4.828,-2.848588 -5.51059,-4.424136 -3.37791,-7.796856 1.0092,-1.5960137 5.78748,-2.0494023 24.97957,-2.3701963 13.05242,-0.21817 25.08167,-0.068653 26.73167,0.3322597 4.06531,0.9877777 3.89319,5.5917576 -0.33333,8.9163406 -4.16911,3.279422 -4.19592,5.712509 -0.12174,11.053988 1.76636,2.315817 4.13527,6.421302 5.26424,9.123298 4.87123,11.658506 -5.5527,33.536002 -17.56904,36.873471 -5.73149,1.591891 -15.35629,1.61534 -20.5547,0.05008 z m 20.42173,-8.063044 c 6.33956,-3.392832 10.10081,-13.333712 9.46581,-25.017834 -0.25632,-4.716168 -6.11064,-11.374457 -12.07562,-13.733953 -2.7033,-1.069308 -3.06222,-1.913956 -2.44072,-5.743753 0.6744,-4.15587 0.42648,-4.550518 -3.33064,-5.301943 C 168.47199,15.627732 164,15.818265 164,17.254644 c 0,0.690055 0.6,1.625464 1.33334,2.078689 3.28069,2.027579 1.09638,6.75518 -4.86883,10.537807 -6.85681,4.348017 -9.79784,9.796789 -9.79784,18.152248 0,7.967581 5.47289,16.648956 12,19.034975 3.5436,1.295381 17.42697,0.985344 20.10712,-0.449024 z"
       id="path1095" />
  </g>
</svg>
