<?xml version="1.0" encoding="UTF-8" standalone="no"?>
<!-- Created with Inkscape (http://www.inkscape.org/) -->

<svg
   version="1.1"
   id="svg83"
   width="214.66667"
   height="221.33333"
   viewBox="0 0 214.66667 221.33333"
   xmlns="http://www.w3.org/2000/svg"
   xmlns:svg="http://www.w3.org/2000/svg">
  <defs
     id="defs87" />
  <g
     id="g89">
    <path
       style="fill:#000000;stroke-width:1.33333"
       d="m 12.775582,211.9829 c -7.6446518,-1.41849 -10.6441405,-6.25116 -6.9854604,-11.25469 1.6457448,-2.25069 2.61796,-2.32501 12.0544644,-0.92151 5.645389,0.83964 15.683828,1.52663 22.307644,1.52663 10.459985,0 11.986625,-0.28819 11.612203,-2.19203 -0.767096,-3.90049 -6.875676,-7.04168 -15.764432,-8.10648 -8.077394,-0.96761 -8.666667,-1.26473 -8.666667,-4.36984 0,-3.28044 0.149585,-3.32636 9.732216,-2.98756 10.951927,0.38722 19.720899,3.98082 26.669492,10.92942 l 4.059831,4.05982 h 49.186447 49.18644 L 169.57879,195 c 1.87608,-2.01667 3.81151,-5.46667 4.30097,-7.66667 1.83547,-8.24992 6.29162,-21.72468 7.9216,-23.95383 3.18124,-4.3506 19.83539,-4.9399 23.93311,-0.84686 2.25917,2.25661 3.04877,37.69082 0.95264,42.75133 -0.86467,2.08749 -2.87299,4.23948 -4.46295,4.7822 -1.58996,0.54272 -41.29082,1.17249 -88.22416,1.39949 -46.933332,0.227 -87.733333,0.65436 -90.666666,0.9497 C 20.4,212.71068 15.649012,212.51602 12.775582,211.9829 Z M 194.88434,195.6478 c 1.62284,-2.6258 2.55025,-16.20166 1.38774,-20.31447 -0.62182,-2.2 -1.95897,-4 -2.97141,-4 -3.54179,0 -9.44145,20.23535 -7.42881,25.4802 0.60726,1.58248 1.76313,1.89919 4.46054,1.22219 2.0025,-0.5026 4.05086,-1.57716 4.55194,-2.38792 z m -8.29663,-53.4849 C 186.26447,141.85048 153,141.22954 112.66667,140.78304 28.637076,139.85281 12.590923,139.19444 8.3333335,136.5022 5.6857774,134.82805 5.3333334,133.50201 5.3333334,125.21494 c 0,-13.18019 1.2589615,-15.07856 9.2930046,-14.01281 3.501882,0.46454 7.312188,0.48194 8.467346,0.0387 2.829883,-1.08593 5.703763,-13.912369 3.888855,-17.356389 C 26.220474,92.438292 25.604522,80.058501 25.560459,65.302562 25.456856,30.606776 23.807594,24.028185 14.759227,22.218512 10.209591,21.308585 6.5268926,17.915678 7.4572717,15.491149 9.0806677,11.260648 29.562079,4.6037506 36.444906,6.0695486 c 4.851211,1.033136 15.09404,7.1308224 16.11306,9.5923084 0.406949,0.983004 -1.608949,2.814597 -4.934991,4.483803 -7.9337,3.981602 -11.447388,7.58397 -12.99188,13.319774 -2.30167,8.547757 -1.531758,72.193326 0.921919,76.211316 0.937539,1.53525 21.857667,0.8975 25.536022,-0.77847 3.020677,-1.37631 3.187853,-1.99714 2.579289,-9.578572 C 63.310417,94.860928 61.98421,89.214512 60.7212,86.772117 58.33586,82.159379 58.440645,76.558839 61.109846,65.999999 c 1.615642,-6.39116 4.74615,-14.967106 5.87589,-16.096846 1.75543,-1.755431 6.348138,1.024114 6.367002,3.853364 0.01067,1.600581 0.888142,5.403321 1.94993,8.450531 1.061788,3.047211 2.339563,9.532824 2.839497,14.412472 0.811299,7.918743 0.586884,9.307737 -2.088461,12.926336 -1.964282,2.656832 -3.238239,6.709889 -3.696071,11.758934 l -0.698636,7.70469 13.837168,0.62457 c 7.610444,0.34351 14.434145,0.0894 15.163785,-0.56469 0.80787,-0.72423 1.40012,-15.112233 1.51461,-36.795972 0.1999,-37.859298 0.0387,-38.999838 -6.504988,-46.016247 -1.651597,-1.770919 -5.533243,-4.505407 -8.625879,-6.076639 -6.98699,-3.549782 -6.452654,-5.574313 2.671227,-10.120934 9.423476,-4.6959165 20.24948,-4.5673021 30.15723,0.358272 11.38379,5.659377 12.2612,9.650678 2.58525,11.76019 -1.94843,0.424788 -5.4379,2.727802 -7.75439,5.117806 l -4.21179,4.345462 -0.2189,38.512684 -0.2189,38.512688 11.83249,1.12629 c 15.63377,1.48812 18.11409,0.4189 18.11409,-7.8087 0,-3.834745 -1.22849,-8.497233 -3.33333,-12.650928 -3.27021,-6.453455 -4.31156,-13.243994 -2.33423,-15.221322 0.5495,-0.549506 1.70204,-3.799506 2.5612,-7.222223 4.68311,-18.656628 5.65115,-20.697848 9.1746,-19.345772 2.15874,0.828387 7.28855,23.273107 7.26554,31.789317 -0.012,4.396491 -0.9201,8.028772 -2.66711,10.666667 -3.32803,5.025157 -3.63484,15.536641 -0.52872,18.114481 1.31348,1.09009 6.91563,1.9833 14.52713,2.3162 l 12.38919,0.54186 0.82713,-3.81961 c 0.45494,-2.10078 0.94798,-19.119598 1.09567,-37.819598 0.31559,-39.959724 0.18092,-40.492891 -11.69964,-46.319666 C 163.27484,21.050617 160,18.885621 160,18.202566 c 0,-1.887626 3.89666,-4.602596 12,-8.3609224 5.73439,-2.6596085 8.64156,-3.2410272 13.33334,-2.6666017 9.0859,1.1124096 15.15293,3.1709251 18.47937,6.2699671 3.9816,3.709427 3.19657,6.719735 -2.48329,9.522612 -2.56451,1.265525 -6.31275,4.124992 -8.32942,6.354369 -3.20056,3.538136 -3.68124,5.194835 -3.78132,13.032379 -0.0631,4.938429 -0.37086,17.378963 -0.68401,27.64563 -0.31316,10.266666 -0.68795,22.86946 -0.83288,28.006206 -0.14493,5.136745 0.19828,10.086745 0.76271,11.000005 0.63149,1.02177 4.05505,1.66046 8.90061,1.66046 6.48455,0 8.12391,0.46619 9.28796,2.64126 1.72127,3.2162 0.30687,23.142 -1.84545,25.99867 -1.3624,1.80821 -16.80035,4.22841 -18.21991,2.8563 z m 8.39199,-9.59558 c 1.76697,-0.56082 2.35364,-2.17136 2.35364,-6.46134 v -5.71431 l -19.66667,-1.15041 C 157.00192,118.03246 23.312794,117.22517 17,118.27106 c -3.106997,0.51476 -3.66355,1.25274 -3.646249,4.83488 0.02777,5.75201 1.505764,7.65854 6.807229,8.78098 5.31841,1.12604 171.3783,1.77234 174.81872,0.6804 z M 70.406389,76.895774 c 0.30894,-4.735412 -0.05651,-6.229108 -1.524015,-6.229108 -2.282752,0 -3.54904,2.813998 -3.54904,7.886827 0,8.280359 4.521075,6.80301 5.073055,-1.657719 z m 74.926951,0.437558 c 0,-7.435198 -1.8824,-8.921308 -3.16667,-2.5 -1.31703,6.585103 -0.98845,9.166667 1.16667,9.166667 1.5111,0 2,-1.62963 2,-6.666667 z m 44.22834,-55.539983 c 3.49316,-3.161272 3.02276,-5.227747 -1.62861,-7.154407 -3.30237,-1.367886 -4.681,-1.35594 -7.33333,0.06355 -4.04498,2.164803 -4.09839,3.509333 -0.2664,6.706096 3.73512,3.115964 6.10138,3.214623 9.22834,0.384765 z m -77.46076,-2.567472 c 3.16662,-3.370752 3.17973,-3.479311 0.64424,-5.333333 -4.41757,-3.230251 -15.411825,-2.180013 -15.411825,1.472232 0,2.15018 6.565025,7.201962 9.434245,7.25965 1.15551,0.02323 3.55551,-1.506114 5.33334,-3.398549 z m -75.568718,-0.9305 c 1.989264,-3.213737 -0.833523,-4.915089 -8.198868,-4.941627 -6.163606,-0.02221 -7.099295,1.519904 -3.401466,5.60596 2.798126,3.091894 9.513319,2.707326 11.600334,-0.664333 z"
       id="path1234" />
  </g>
</svg>
