<?xml version="1.0" encoding="UTF-8" standalone="no"?>
<!-- Created with Inkscape (http://www.inkscape.org/) -->

<svg
   version="1.1"
   id="svg223"
   width="74.666664"
   height="225.33333"
   viewBox="0 0 74.666664 225.33333"
   xmlns="http://www.w3.org/2000/svg"
   xmlns:svg="http://www.w3.org/2000/svg">
  <defs
     id="defs227" />
  <g
     id="g229">
    <path
       style="fill:#000000;stroke-width:1.33333"
       d="m 6.9461047,214.44684 c -3.7953511,-1.95008 -3.3211136,-5.18747 1.0633287,-7.25884 15.8622626,-7.49391 21.3512626,-9.85467 22.9131336,-9.85467 0.999579,0 3.227249,-0.98748 4.950378,-2.19441 2.86775,-2.00866 3.058334,-2.82696 2.251368,-9.66667 -1.565793,-13.27141 -8.337258,-49.66804 -13.456689,-72.32969 -2.953505,-13.07399 -2.517354,-21.710923 2.077632,-41.142561 2.917538,-12.337915 2.988167,-13.333333 0.946059,-13.333333 -1.069576,0 -2.968344,1.131133 -4.219487,2.51363 -2.84191,3.140276 -9.532963,4.570931 -12.914311,2.761288 -3.7157627,-1.988616 -3.1600115,-6.225072 1.109149,-8.454975 4.032259,-2.106166 9.431513,-7.555415 12.879505,-12.998767 2.068331,-3.265279 2.070571,-3.835396 0.03187,-8.110593 -2.091129,-4.385145 -2.060067,-4.858695 0.669725,-10.209528 1.574412,-3.086101 5.310091,-7.986335 8.301509,-10.889407 4.66712,-4.5292829 6.273651,-5.2783141 11.320994,-5.2783141 6.696245,0 14.673489,2.9252901 17.309522,6.3474781 4.243223,5.508696 5.818739,15.373039 5.967916,37.365257 0.138454,20.411276 -0.0452,22.160253 -2.704722,25.757447 -2.731726,3.694857 -2.782868,4.34611 -1.200656,15.289239 1.572746,10.877659 1.511682,11.699249 -1.263654,17.001949 -2.752635,5.25933 -2.874446,6.76892 -2.171025,26.90529 1.100387,31.50007 0.932657,40.45091 -0.879285,46.92252 -1.515424,5.41258 -1.135431,16.804 0.792053,23.74415 0.407337,1.46667 -0.03881,3.72861 -0.991434,5.02656 -1.512339,2.06055 -4.776238,2.44211 -25.730514,3.00797 -16.942578,0.45755 -24.8963557,0.18675 -27.0523623,-0.92102 z M 48.333332,204.35989 c 1.283333,-0.369 2.333333,-1.50093 2.333333,-2.5154 0,-2.42319 -1.921881,-2.34847 -4,0.15551 -0.912919,1.1 -2.821796,2 -4.241949,2 -1.491736,0 -2.210397,0.60142 -1.701872,1.42422 0.484123,0.78334 1.869532,1.01527 3.078689,0.5154 1.209156,-0.49985 3.248465,-1.21074 4.531799,-1.57973 z m 1.805556,-25.33212 c -1.355355,-1.35535 -2.473664,0.68519 -1.361624,2.48451 0.840046,1.35922 1.154102,1.36028 1.605736,0.005 0.308793,-0.92639 0.198942,-2.04684 -0.244112,-2.48989 z m 0.90979,-9.01053 c 0.415297,-4.02386 0.114187,-11.37386 -0.669134,-16.33334 -0.783323,-4.95948 -1.33125,-10.21724 -1.217615,-11.6839 0.11364,-1.46667 0.430541,-9.26667 0.704237,-17.33334 0.273698,-8.06666 1.148831,-17.42971 1.944741,-20.80676 1.012096,-4.294332 1.031207,-7.500836 0.06357,-10.666671 -2.242143,-7.335688 -1.543904,-19.668007 1.38158,-24.401539 2.342765,-3.790675 2.498944,-5.93906 1.784026,-24.541036 -0.715529,-18.617904 -1.022821,-20.5543 -3.541808,-22.318666 -4.157643,-2.912127 -8.586266,-2.334116 -12.228614,1.596042 -4.746866,5.121954 -4.442196,11.525249 0.730332,15.349464 4.574293,3.381921 4.861545,5.819909 2.095984,17.789172 -1.016644,4.4 -2.818362,12.2 -4.00382,17.333333 -1.185457,5.133333 -2.414192,15.65556 -2.73052,23.382726 -0.595017,14.534885 -0.767156,13.519605 7.282172,42.950605 1.4541,5.31667 2.6541,11.93244 2.666667,14.70171 0.02849,6.27757 3.003244,22.29829 4.140385,22.29829 0.463499,0 1.182513,-3.29224 1.597812,-7.31609 z"
       id="path251" />
  </g>
</svg>
