<?xml version="1.0" encoding="UTF-8" standalone="no"?>
<!-- Created with Inkscape (http://www.inkscape.org/) -->

<svg
   version="1.1"
   id="svg213"
   width="218.66667"
   height="221.33333"
   viewBox="0 0 218.66667 221.33333"
   xmlns="http://www.w3.org/2000/svg"
   xmlns:svg="http://www.w3.org/2000/svg">
  <defs
     id="defs217" />
  <g
     id="g219">
    <path
       style="fill:#000000;stroke-width:1.33333"
       d="M 198.33334,214.55986 C 196.22186,213.33004 196,210.38292 196,183.56376 c 0,-24.66591 0.34815,-30.13414 2.0756,-32.60042 2.59143,-3.69977 7.7195,-3.83492 11.25774,-0.29668 2.39908,2.39908 2.6835,4.5732 2.83453,21.66667 0.29488,33.37735 -0.0525,41.43604 -1.83525,42.568 -2.32979,1.47935 -9.20924,1.28359 -11.99928,-0.34147 z M 49.868991,212 C 8.3850092,211.28717 6.6666668,210.99086 6.6666668,204.55032 c 0,-4.47424 3.9756742,-6.06652 12.6126402,-5.05142 8.073352,0.94887 8.924915,0.0872 5.332416,-5.39564 -1.859236,-2.83754 -1.850167,-3.34101 0.09524,-5.28641 1.1826,-1.1826 2.557324,-2.13469 3.054944,-2.11576 2.621955,0.0997 18.695436,6.29721 21.53477,8.30317 2.93719,2.0751 7.008188,2.3204 37.333334,2.24959 30.021749,-0.0701 45.591239,-0.9636 47.241459,-2.71108 0.28191,-0.29852 0.92608,-7.14145 1.43149,-15.20651 0.50542,-8.06505 1.54247,-15.41505 2.30458,-16.33333 1.62564,-1.95876 19.35049,-2.28805 22.31152,-0.41451 1.55985,0.98698 1.85088,5.01056 1.55478,21.49574 -0.38321,21.33632 -1.46464,26.19474 -6.08898,27.35538 C 151.27612,212.47077 94.741743,212.77105 49.868993,212 Z M 152.13468,186.66666 c 0.91938,-11.4727 0.52108,-13.33333 -2.85414,-13.33333 -2.82815,0 -3.43707,1.69647 -4.64058,12.92885 -1.00304,9.36131 -0.28349,11.39871 3.81919,10.81407 2.56577,-0.36564 2.96017,-1.48263 3.67553,-10.40959 z M 41.333334,72.702726 c -7.907901,-6.86521 -11.862858,-9.258594 -18.904251,-11.440104 -4.897339,-1.517256 -9.59691,-3.59325 -10.443492,-4.613318 -2.3224662,-2.798401 -0.271168,-7.207121 3.769943,-8.102489 8.071238,-1.788302 17.980493,-7.602704 25.867713,-15.178261 9.11194,-8.751885 12.522371,-9.90882 13.831666,-4.692174 0.924268,3.682574 -1.486326,8.198419 -7.705855,14.435641 -2.072384,2.078277 -3.377085,4.411152 -2.899337,5.184165 1.088708,1.761565 31.209513,0.165413 33.138406,-1.75606 0.726802,-0.724008 1.124684,-5.142717 0.884182,-9.819357 -0.390789,-7.599037 -0.12952,-8.667688 2.45769,-10.052317 1.862442,-0.99675 12.009142,-1.630023 28.449151,-1.775562 l 25.55419,-0.226224 0.39425,9 c 0.34212,7.809929 0.72873,9 2.92379,9 4.11244,0 11.4544,-5.047291 15.19626,-10.446805 4.69874,-6.780276 4.49648,-8.216236 -1.03088,-7.319268 -9.16142,1.486696 -13.71242,-9.459475 -6.8048,-16.367099 2.77892,-2.778919 4.39282,-3.2765729 9.53251,-2.9393938 8.00816,0.5253604 11.52071,4.7343558 11.34292,13.5919448 -0.13729,6.839999 -4.4904,18.104724 -8.34401,21.5922 C 157.14452,42.044191 156,43.681809 156,44.417393 c 0,0.877489 8.99463,1.048074 26.15496,0.496037 26.18852,-0.842469 31.17838,-0.257927 31.17838,3.652436 0,0.992957 -1.09466,3.157223 -2.43258,4.80948 -2.38969,2.951137 -3.15957,3.024229 -43.66666,4.145669 -22.67875,0.627863 -59.3841,1.217307 -81.567432,1.309879 -30.784044,0.128461 -40.333334,0.553912 -40.333334,1.796978 0,0.895768 2.739747,4.122059 6.088325,7.169535 4.852077,4.41578 6.002706,6.284889 5.666667,9.205063 -0.726328,6.311765 -4.818108,5.195065 -15.754992,-4.299744 z M 125.53379,45.054642 c 0.60063,-0.94672 1.10123,-3.988724 1.11246,-6.760009 l 0.0204,-5.0387 L 109,33.627966 l -17.666665,0.372033 -0.42218,5.140215 c -0.76974,9.371919 -0.791282,9.361425 17.345295,8.449527 11.01209,-0.553682 16.53434,-1.36396 17.27734,-2.535099 z"
       id="path390" />
  </g>
</svg>
