<?xml version="1.0" encoding="UTF-8" standalone="no"?>
<!-- Created with Inkscape (http://www.inkscape.org/) -->

<svg
   version="1.1"
   id="svg203"
   width="248"
   height="220"
   viewBox="0 0 248 220"
   xmlns="http://www.w3.org/2000/svg"
   xmlns:svg="http://www.w3.org/2000/svg">
  <defs
     id="defs207" />
  <g
     id="g209">
    <path
       style="fill:#000000;stroke-width:1.33333"
       d="m 213.33333,214.01909 c -14.24829,-4.13782 -23.3147,-11.31224 -30.15137,-23.85928 -3.26795,-5.99754 -3.72745,-8.28362 -3.78412,-18.82648 -0.0776,-14.42348 2.37375,-20.11101 12.20556,-28.31962 9.7862,-8.17054 22.12613,-9.70697 32.71008,-4.0727 10.55903,5.621 15.68652,13.61374 15.68652,24.45214 0,13.04286 -6.76499,20.92148 -19.37823,22.56818 -5.67156,0.74046 -7.27854,0.43024 -10.37053,-2.00192 -11.84552,-9.31768 -9.36605,-27.58702 4.08655,-30.11074 3.55364,-0.66668 5.16926,-0.26755 7.22061,1.78381 2.45375,2.45373 2.48569,2.79961 0.44689,4.83841 -1.20768,1.20768 -3.58872,2.19578 -5.29121,2.19578 -5.02177,0 -6.51319,7.29186 -2.27576,11.12668 5.24124,4.74325 13.7452,1.25212 15.67451,-6.43487 2.52772,-10.07124 -4.52344,-18.92503 -17.5632,-22.05323 l -7.32218,-1.75656 -6.02809,5.89232 c -7.77637,7.60122 -10.37359,13.17499 -10.14727,21.77668 0.23755,9.02871 2.83419,14.9252 9.86002,22.39027 4.65414,4.94512 7.15686,6.43005 13.08789,7.76544 4.03333,0.90811 9.04495,2.51787 11.13692,3.57723 3.04485,1.5419 4.55895,1.61325 7.59025,0.35764 2.27328,-0.94162 5.94874,-1.2032 9.19642,-0.65451 4.45632,0.75289 5.40974,1.44437 5.40974,3.92345 0,5.60808 -3.8602,7.43427 -15.43832,7.30356 -5.80892,-0.0656 -13.26168,-0.90332 -16.56168,-1.86168 z M 47.202324,210.66667 C 5.7183424,209.95384 4,209.65753 4,203.21699 c 0,-4.47424 3.9756747,-6.06652 12.61264,-5.05142 8.073352,0.94887 8.924915,0.0872 5.332416,-5.39564 -1.859236,-2.83754 -1.850167,-3.34101 0.09524,-5.28641 1.1826,-1.1826 2.557324,-2.13469 3.054944,-2.11576 2.621955,0.0997 18.695436,6.29721 21.534769,8.30317 2.937191,2.0751 7.008188,2.3204 37.333334,2.24959 30.021747,-0.0701 45.591237,-0.9636 47.241457,-2.71108 0.28191,-0.29852 0.92608,-7.14145 1.43149,-15.20651 0.50542,-8.06505 1.54247,-15.41505 2.30458,-16.33333 1.62564,-1.95876 19.35049,-2.28805 22.31152,-0.41451 1.55985,0.98698 1.85088,5.01056 1.55478,21.49574 -0.38321,21.33632 -1.46464,26.19474 -6.08898,27.35538 -4.10874,1.03123 -60.643115,1.33151 -105.515866,0.56046 z M 149.46801,185.33333 C 150.38739,173.86063 149.98909,172 146.61387,172 c -2.82815,0 -3.43707,1.69647 -4.64058,12.92885 -1.00304,9.36131 -0.28349,11.39871 3.81919,10.81407 2.56577,-0.36564 2.96017,-1.48263 3.67553,-10.40959 z M 60.827988,79 C 59.779052,76.983333 57.315739,73.945649 55.353961,72.249591 49.352704,67.061193 35.344309,60 31.052532,60 25.281413,60 23.216027,57.111629 25.332835,52.001205 26.656896,48.804636 27.799716,48 31.015719,48 c 7.074421,0 15.33587,-5.318031 23.20671,-14.938541 7.409711,-9.056875 8.884484,-10.009359 12.222072,-7.893647 2.062274,1.307284 2.760888,13.639395 1.080994,19.081924 -1.02628,3.324945 -0.776135,3.644943 3.472333,4.44196 2.518057,0.472391 8.72366,0.356692 13.790229,-0.257109 L 94,47.318587 94.08944,38.659293 c 0.122947,-11.903326 0.0079,-11.597309 5.309555,-14.113149 3.477985,-1.650413 6.747035,-2.050077 12.333335,-1.50784 4.18055,0.405787 12.701,0.257929 18.93434,-0.328572 13.89953,-1.307825 18.10102,0.252563 19.40569,7.207073 0.47224,2.517259 0.4808,5.188172 0.0191,5.935363 -1.45088,2.347584 0.74,8.147832 3.07762,8.147832 4.77448,0 19.78026,-15.078901 20.10846,-20.206457 0.0308,-0.480219 -2.23666,-0.56563 -5.03867,-0.189802 -6.53577,0.876623 -9.57217,-1.922994 -9.57217,-8.825662 0,-5.9557719 3.29332,-9.5650985 8.8724,-9.7237242 6.01438,-0.1710028 8.95065,1.2936659 11.46093,5.7169332 5.05173,8.901469 1.51836,21.275437 -8.86345,31.040096 l -5.46988,5.144717 10,-0.80077 c 5.5,-0.440423 11.8,-1.309436 14,-1.931142 l 4,-1.13037 -4.30091,-2.646 c -3.29573,-2.027595 -3.93455,-3.012366 -2.73333,-4.213576 1.92425,-1.924262 4.23534,-1.959711 10.7009,-0.164135 3.57552,0.992971 5,2.1232 5,3.967161 0,3.088916 2.64619,3.829323 15.33334,4.290288 8.98073,0.326299 9.34866,0.4713 9.73905,3.83815 0.22444,1.935638 -0.56279,4.467556 -1.76191,5.666666 -2.24446,2.24447 -3.9694,2.318935 -62.90892,2.715796 -15.5801,0.104907 -17.66841,0.386104 -18.2085,2.451831 -0.76466,2.924575 -4.56744,3.011141 -7.701,0.175305 -1.70094,-1.539317 -3.45125,-1.8714 -6.105,-1.158286 -2.04621,0.549858 -6.72039,0.849106 -10.38706,0.664996 -7.02084,-0.352532 -9.5459,-0.361683 -40.999997,-0.148587 -22.587928,0.153029 -23.527762,0.773039 -13.666666,9.015893 4.802713,4.014571 6,5.861794 6,9.257044 0,6.719988 -6.706607,8.215295 -9.838679,2.193635 z M 135.20929,48.04716 c 4.15638,-1.580251 5.7797,-7.041204 3.40952,-11.469897 -1.89946,-3.549208 -11.84704,-8.972834 -14.76687,-8.051211 -1.01857,0.321505 -3.54148,0.956023 -5.60647,1.41004 -4.74549,1.043361 -8.18296,8.425429 -6.95967,14.946116 l 0.83503,4.451125 h 9.85279 c 5.41903,0 11.37509,-0.578778 13.23567,-1.286173 z"
       id="path529" />
  </g>
</svg>
