<?xml version="1.0" encoding="UTF-8" standalone="no"?>
<!-- Created with Inkscape (http://www.inkscape.org/) -->

<svg
   version="1.1"
   id="svg193"
   width="209.33333"
   height="213.33333"
   viewBox="0 0 209.33333 213.33333"
   xmlns="http://www.w3.org/2000/svg"
   xmlns:svg="http://www.w3.org/2000/svg">
  <defs
     id="defs197" />
  <g
     id="g199">
    <path
       style="fill:#000000;stroke-width:1.33333"
       d="m 69.562274,207.58352 c -1.707416,-0.77964 -4.54296,-4.15487 -6.30121,-7.50052 -3.941069,-7.49919 -6.453937,-10.74967 -8.310313,-10.74967 -0.782063,0 -2.909453,3.24917 -4.727533,7.22039 -3.756456,8.20517 -9.202813,12.73516 -12.691207,10.55584 -1.209273,-0.75547 -4.530742,-4.76418 -7.381042,-8.90824 -2.8503,-4.14406 -6.00682,-7.53466 -7.014487,-7.53466 -1.007668,0 -3.450152,3.2991 -5.427742,7.33134 -3.441763,7.01761 -6.805712,9.79617 -9.6968087,8.00937 C 5.914026,204.7108 6.4186544,200.3799 9.3333332,194.66666 10.8,191.79176 12,188.63222 12,187.64549 c 0,-3.15121 6.651244,-10.9466 10.143038,-11.88785 3.983326,-1.07374 5.430892,0.27333 12.081091,11.24236 2.556441,4.21666 5.194286,7.66666 5.861877,7.66666 0.667591,0 3.306088,-4.15472 5.863327,-9.23272 6.615115,-13.13586 11.623481,-13.98052 17.398413,-2.93422 4.421237,8.45694 8.003085,12.72553 9.76467,11.63681 0.813077,-0.50251 2.718324,-3.71688 4.23388,-7.14304 C 80.638283,179.5514 83.628536,176 86.602719,176 c 2.551764,0 10.712809,8.35001 13.357379,13.66666 1.003112,2.01667 2.772462,3.63754 3.931872,3.60194 1.15942,-0.0356 4.51478,-3.7856 7.45637,-8.33334 7.12635,-11.01742 9.62691,-11.05412 18.30574,-0.2686 3.54057,4.4 7.01616,8.19978 7.72352,8.44395 0.70736,0.24419 2.33678,-1.51927 3.62092,-3.91877 1.28414,-2.39951 4.55502,-6.79928 7.26861,-9.77728 6.03604,-6.6242 7.43456,-6.09579 15.0662,5.69252 3.14637,4.86008 6.14397,8.09341 7.31023,7.88508 1.08729,-0.19422 4.04425,-4.09691 6.57102,-8.67264 C 180.78,177.8629 182.49464,176 184.87202,176 c 4.35452,0 14.94118,11.97189 15.08072,17.05398 0.026,0.94636 1.30943,3.42786 2.8521,5.51442 3.055,4.1321 2.51652,9.4316 -0.95836,9.4316 -2.7338,0 -8.08763,-6.06422 -11.63646,-13.18047 -1.63552,-3.27964 -3.67384,-6.19636 -4.52958,-6.48161 -0.85575,-0.28524 -3.66867,3.67674 -6.25094,8.80444 -7.28433,14.46474 -11.3733,14.05824 -19.98554,-1.98684 -2.26084,-4.21207 -4.74796,-7.85763 -5.52694,-8.10124 -0.77897,-0.24362 -3.67697,4.07013 -6.44001,9.5861 -3.84012,7.66619 -5.83691,10.23312 -8.47532,10.89532 -3.88352,0.97471 -4.81381,0.05 -12.17202,-12.0995 C 124.35265,191.34629 121.51019,188 120.5131,188 c -0.9971,0 -3.91623,4.17662 -6.48695,9.2814 -5.65737,11.23405 -8.32791,13.10489 -13.21699,9.25914 -1.911704,-1.50376 -3.475828,-3.50052 -3.475828,-4.43726 0,-2.69814 -7.817623,-12.76995 -9.911879,-12.76995 -1.042334,0 -3.724208,3.8712 -5.959721,8.60268 -4.544237,9.61789 -7.217611,11.78533 -11.899458,9.64751 z M 35.193982,155.79256 c -2.420165,-1.17323 -5.168785,-4.7989 -9.936818,-13.10752 -0.939679,-1.63746 -1.856938,-1.70995 -5.281258,-0.41742 -3.61778,1.36556 -4.486728,1.22155 -6.842199,-1.13392 -3.2477902,-3.24778 -2.516053,-7.71077 2.302543,-14.04357 4.977788,-6.54201 8.31548,-6.95872 12.715674,-1.58752 2.02639,2.47357 5.023749,7.34739 6.660794,10.83072 1.637047,3.48333 3.663564,6.33333 4.503373,6.33333 0.839808,0 3.278642,-3.66501 5.419628,-8.14448 4.27796,-8.95052 7.393224,-11.92082 11.402896,-10.87226 2.531808,0.66208 7.917317,7.67133 11.794123,15.35008 1.018164,2.01666 2.33314,3.66666 2.92217,3.66666 0.58903,0 2.367486,-3.01385 3.952123,-6.69744 1.584638,-3.68359 4.64479,-8.18143 6.800338,-9.9952 3.28204,-2.76166 4.391178,-3.05397 6.82257,-1.79809 3.873546,2.0008 8.494358,7.48276 10.896059,12.92668 2.590942,5.87287 5.475892,5.12545 9.402512,-2.43595 3.31774,-6.38889 8.2927,-12 10.63952,-12 2.10543,0 10.66793,9.33107 13.22884,14.41626 1.25969,2.50136 3.06109,4.23576 4.1545,4 1.06177,-0.22895 4.189,-4.31626 6.94941,-9.08292 6.3756,-11.00934 9.97852,-12.00521 15.93878,-4.40557 2.18792,2.78973 5.04569,7.35015 6.3506,10.13427 l 2.37256,5.06204 2.98248,-2.80189 c 1.64036,-1.54104 4.05568,-5.18185 5.3674,-8.0907 2.36432,-5.24315 6.48808,-7.6685 10.45216,-6.14734 3.23,1.23947 16.83524,23.47368 16.83524,27.51279 0,0.74374 -1.56299,1.74454 -3.47331,2.22401 -2.79161,0.70064 -4.09065,0.1168 -6.61872,-2.9746 -1.72997,-2.11549 -3.16996,-4.44635 -3.19997,-5.17968 -0.03,-0.73333 -1.44676,-3.07319 -3.14832,-5.19967 l -3.09375,-3.86633 -2.74711,3.86633 c -1.51092,2.12648 -3.66097,6.05852 -4.77792,8.73786 -1.11694,2.67933 -3.20633,5.24461 -4.64308,5.70061 -3.48998,1.10768 -9.49288,-1.29303 -10.54896,-4.21879 -0.46721,-1.29434 -1.88177,-3.85334 -3.14348,-5.68668 -1.2617,-1.83333 -2.52229,-4.53333 -2.80129,-6 -0.88349,-4.64437 -3.86569,-2.90564 -8.00403,4.66667 -5.98054,10.94319 -8.10065,12.75215 -12.70493,10.84035 -3.46339,-1.43808 -5.37977,-3.72927 -11.57621,-13.84035 -1.23588,-2.01667 -2.98419,-3.66667 -3.88512,-3.66667 -0.90094,0 -3.31224,3.54546 -5.35846,7.87879 -3.7889,8.02385 -5.44028,9.45455 -10.91293,9.45455 -3.26802,0 -9.001016,-5.80784 -12.967065,-13.13636 -1.249225,-2.30834 -2.855652,-4.19698 -3.569838,-4.19698 -0.714186,0 -2.858082,3.29664 -4.764214,7.32588 -3.823109,8.08139 -8.465377,12.02702 -12.604762,10.71323 -1.47072,-0.46679 -4.350097,-3.54335 -6.398617,-6.8368 -8.581264,-13.79628 -9.009143,-13.85152 -15.022247,-1.93963 -4.659912,9.23123 -7.028265,10.68143 -12.841685,7.86322 z M 6.3333332,102.54327 C 3.4324618,100.8743 3.3029609,95.55418 6.095238,92.761904 8.4049727,90.452169 11.694572,90.299615 22.666666,91.993408 27.11065,92.679439 34.625125,92.568712 41.738829,91.712379 51.70819,90.512288 53.344811,89.975253 52.596342,88.14964 52.111618,86.967337 50.223063,81.800748 48.399553,76.668331 46.576042,71.535915 44.390162,66.895102 43.542039,66.355415 42.693918,65.815728 37.992857,65.364979 33.095238,65.35375 23.45237,65.331643 21.552916,64.301355 18.77042,57.583815 c -1.373855,-3.316777 -1.292198,-4.663094 0.492108,-8.11356 1.176606,-2.275308 2.737284,-4.136922 3.468169,-4.136922 0.730887,0 3.865479,-2.27582 6.96576,-5.057379 C 42.539766,28.752997 67.968735,14.308765 78.304703,12.665368 88.82272,10.993026 106.246,7.8249416 112.25592,6.4919999 c 11.40711,-2.5299845 14.63032,1.1898752 8.96867,10.3506211 l -2.77542,4.490712 h 12.50875 c 12.81774,0 15.70874,1.008281 15.70874,5.478679 0,2.967945 -13.45205,17.187987 -16.2597,17.187987 -1.18848,0 -5.3373,1.65 -9.21961,3.666667 -6.72629,3.493977 -8.08728,3.686657 -28.897393,4.091135 -18.840201,0.366188 -21.732334,0.701526 -21.064305,2.442382 0.425891,1.109853 0.774347,2.256649 0.774347,2.548435 0,0.291784 2.541178,1.82693 5.647062,3.411434 5.140674,2.622575 6.964028,2.80602 20.333333,2.045704 C 106.05784,61.746391 115.96666,60.324468 120,59.045931 c 4.87219,-1.544452 11.36065,-2.29038 19.33333,-2.222605 10.70907,0.09104 12.86061,0.547473 20,4.24288 9.85053,5.098722 19.63561,14.219311 22.63457,21.097479 3.75987,8.623366 4.20732,9.169647 7.51075,9.169647 2.74687,0 3.24715,-0.723152 3.61531,-5.225967 0.36789,-4.499465 -0.14184,-5.67138 -3.66667,-8.42997 -7.01131,-5.487168 -4.53492,-12.344063 4.45808,-12.344063 2.68851,0 4.20748,1.42432 7.30737,6.852034 7.18528,12.580955 6.63246,23.646742 -1.41894,28.402824 -3.89592,2.30138 -8.04512,2.58782 -45.36867,3.13203 -44.1173,0.64328 -45.0718,0.51539 -45.0718,-6.03899 0,-2.831918 -0.44533,-3.189282 -3,-2.407394 -1.65,0.505003 -7.499998,1.250576 -12.999998,1.656829 -7.354087,0.543205 -10.631123,1.399772 -12.385273,3.237325 -1.3119,1.37427 -2.8119,2.53091 -3.333334,2.5703 -12.778487,0.96538 -69.5343543,0.8101 -71.2813918,-0.19502 z M 144.15302,89.548247 c -5.02641,-7.058948 -6.0573,-7.423546 -13.46168,-4.76097 C 127.0111,86.110672 124,87.957768 124,88.891935 c 0,2.254128 6.99573,4.172558 15.75745,4.321146 l 7.0908,0.120251 z m 27.60476,-1.919515 c 0.34312,-2.976201 -0.985,-5.057864 -6.93006,-10.862119 -4.045,-3.949177 -9.636,-7.95791 -12.42447,-8.908297 -6.34787,-2.163537 -21.43113,-2.237272 -31.06992,-0.151886 -11.93597,2.58239 -30.878253,4.58498 -37.492317,3.96371 C 78.617369,71.179476 76.255012,69.863423 68.285494,63.004268 63.1174,58.556227 57.638943,54.52018 56.111146,54.035275 53.40582,53.176639 52.88784,52.118438 53.15693,47.999999 c 0.179521,-2.7476 -6.021541,-7.001289 -8.849355,-6.070314 -1.269166,0.417836 -4.660362,2.754017 -7.53599,5.191513 -3.798138,3.219452 -4.981956,5.074075 -4.327478,6.779618 0.759178,1.978382 1.919307,2.207746 7.372979,1.457674 6.375367,-0.876838 6.544988,-0.80491 11.355759,4.815394 2.686046,3.138042 5.604627,8.13266 6.485738,11.099155 1.928407,6.492504 6.970963,15.816349 9.842911,18.199854 1.75613,1.45746 2.449845,1.243076 4.417177,-1.365076 2.066304,-2.73936 3.007245,-2.981201 8.207596,-2.109522 3.230553,0.541502 10.160674,0.97574 15.40027,0.964972 8.902603,-0.01829 10.495173,-0.508942 24.316133,-7.491423 15.21545,-7.68699 21.44401,-9.049192 24.43809,-5.344677 8.19834,10.143609 13.731,15.118845 18.12777,16.301385 7.08201,1.904753 8.86857,1.369735 9.34925,-2.79982 z M 117.62526,40.082138 c 2.72722,-0.834872 6.86164,-3.119264 9.1876,-5.076424 l 4.229,-3.558473 -3.56884,-0.954455 c -8.724,-2.333158 -41.654595,0.5179 -52.033255,4.504927 -3.725205,1.43106 -8.123099,2.911954 -9.773099,3.290877 -6.691362,1.536668 -2.238843,2.979596 10.666666,3.456745 19.654002,0.726659 35.580718,0.08515 41.291928,-1.663197 z M 93.766853,23.452522 c 10.850927,-1.647193 15.847447,-3.615993 13.961957,-5.501488 -0.63049,-0.630489 -11.50586,1.096815 -26.062145,4.139376 -3.13497,0.655274 -4.229182,3.277799 -1.333333,3.195634 0.916667,-0.02601 6.961752,-0.851094 13.433521,-1.833522 z"
       id="path668" />
  </g>
</svg>
