<?xml version="1.0" encoding="UTF-8" standalone="no"?>
<!-- Created with Inkscape (http://www.inkscape.org/) -->

<svg
   version="1.1"
   id="svg183"
   width="106.66667"
   height="202.66667"
   viewBox="0 0 106.66667 202.66667"
   xmlns="http://www.w3.org/2000/svg"
   xmlns:svg="http://www.w3.org/2000/svg">
  <defs
     id="defs187" />
  <g
     id="g189">
    <path
       style="fill:#000000;stroke-width:1.33333"
       d="m 46.837632,194.98612 c -0.797863,-1.49082 -1.46654,-19.42065 -1.649649,-44.23341 -0.276498,-37.46775 -0.08501,-41.85112 1.876233,-42.94869 1.558258,-0.87204 2.917951,-0.48852 4.744818,1.33835 2.234916,2.23491 2.67033,5.33578 3.422773,24.37581 0.474163,11.99834 0.690983,31.11516 0.481821,42.48182 l -0.380293,20.66667 -3.576989,0.41324 c -2.427756,0.28048 -4.008065,-0.39223 -4.918714,-2.09379 z m 40.158559,-0.65278 c -2.032436,-2.54628 -3.484638,-83.47156 -1.539943,-85.81477 2.180644,-2.62752 7.549384,-2.32104 8.43351,0.48143 0.404866,1.28334 0.72731,12.23334 0.716542,24.33334 -0.0108,12.1 0.13332,30.58121 0.320203,41.06934 0.278305,15.61914 -0.01601,19.29436 -1.626692,20.31292 -2.705731,1.71106 -4.730752,1.58826 -6.30362,-0.38226 z M 7.1278728,187.66756 c -1.0458353,-1.6922 -1.2299801,-6.85676 -1.7763073,-49.81865 -0.3056983,-24.0394 0.5479088,-29.87657 4.3620132,-29.82849 4.6561753,0.0587 5.2830293,2.26088 5.7388053,20.16087 0.249539,9.80029 0.783463,26.39205 1.186497,36.87055 0.468009,12.1678 0.227137,19.99666 -0.666623,21.66667 -1.569086,2.93185 -7.2426776,3.54067 -8.8443852,0.94905 z M 15.326151,56.469009 C 11.641343,52.784201 11.655534,48.395005 15.387761,37.412114 19.742934,24.596083 22.778988,20.213128 32.13875,13.22981 41.19327,6.4742333 47.422416,4.8242682 60.217659,5.7923178 c 9.172458,0.6939606 11.037534,1.3356763 18.232555,6.2732692 4.408192,3.025128 9.530671,7.697923 11.383287,10.383989 5.126255,7.432446 10.463809,19.94863 11.166769,26.18529 0.58198,5.163271 0.3412,5.695244 -3.185354,7.037775 -2.261293,0.860856 -19.429893,1.723715 -42.157435,2.118745 -32.82453,0.570528 -38.628734,0.380222 -40.331333,-1.322377 z M 75.757344,45.857854 C 88.287073,44.977763 89.661648,43.782122 86.2848,36.700798 80.821016,25.243124 67.018546,16 55.372943,16 44.074137,16 29.476776,26.201726 26.644398,36.077651 c -2.471752,8.618492 -1.871845,10.38163 3.688936,10.841863 6.364434,0.526747 31.011252,-0.04931 45.42401,-1.06166 z"
       id="path807" />
  </g>
</svg>
