<?xml version="1.0" encoding="UTF-8" standalone="no"?>
<!-- Created with Inkscape (http://www.inkscape.org/) -->

<svg
   version="1.1"
   id="svg205"
   width="212"
   height="224"
   viewBox="0 0 212 224"
   xmlns="http://www.w3.org/2000/svg"
   xmlns:svg="http://www.w3.org/2000/svg">
  <defs
     id="defs209" />
  <g
     id="g211">
    <path
       style="fill:#000000;stroke-width:1.33333"
       d="m 16,213.35821 c -5.615584,-0.64724 -6.1116591,-1.03325 -7.7427871,-6.02488 -1.0717305,-3.27974 -1.8418262,-13.29098 -2,-26 -0.2446169,-19.6546 -0.093976,-20.99074 3.0761204,-27.28457 3.8261157,-7.59628 7.4289147,-9.20124 17.6579797,-7.86627 10.517116,1.37258 15.211338,5.94999 25.792594,25.15084 3.821997,6.93544 6.038809,8.66694 11.08941,8.66168 2.636342,-0.003 6.72228,-1.1811 9.079862,-2.61858 C 77.622479,174.52941 84,163.4484 84,158.18245 c 0,-4.19848 7.638461,-10.95662 14.459911,-12.79344 6.422009,-1.72928 16.117439,-0.4918 21.422189,2.73422 4.42175,2.68902 9.85297,10.49806 11.25719,16.18565 0.49458,2.00321 2.75272,5.75321 5.0181,8.33333 3.67212,4.18232 4.83646,4.69112 10.73505,4.69112 8.14631,0 11.12391,-1.50736 13.90577,-7.03952 4.65676,-9.26072 13.3675,-20.97692 16.53512,-22.24022 7.25842,-2.8948 14.28359,-2.13892 20.30475,2.18469 8.75857,6.28929 9.57795,8.90488 10.00931,31.95144 0.48022,25.65819 -0.68666,30.05323 -8.31406,31.31455 C 193.15593,214.5258 24.967716,214.39181 16,213.35821 Z m 128.66667,-9.78185 c 1.46666,-0.13367 11.99045,0.24011 23.38618,0.83061 12.98859,0.67303 21.99796,0.58758 24.14582,-0.22904 4.51642,-1.71714 5.11485,-5.41452 3.85289,-23.80521 -1.25313,-18.26213 -2.94417,-21.70605 -10.65817,-21.70605 -6.1718,0 -9.15643,3.3647 -12.76152,14.38666 -3.02202,9.23924 -6.16403,12.99351 -14.34335,17.1383 -7.5768,3.83945 -14.71871,3.72144 -22.64483,-0.37418 -5.28476,-2.73074 -6.60293,-4.34202 -11.84936,-14.48412 -6.85756,-13.25662 -11.24799,-18 -16.66069,-18 -2.55326,0 -5.80365,0.62155 -7.223093,1.38122 -2.518532,1.34786 -9.24388,13.02445 -9.24388,16.04925 0,3.29563 -8.542032,12.03479 -14.869984,15.21313 -8.179816,4.10848 -14.15908,4.24604 -21.511955,0.49488 -6.361827,-3.24556 -7.575839,-4.5562 -12.650187,-13.65701 -6.428696,-11.52984 -6.819817,-12.11193 -9.730457,-14.48147 -3.432689,-2.79453 -10.967583,-3.06832 -13.118456,-0.47666 -1.687799,2.03366 -3.389545,34.14008 -2.035639,38.40586 0.449819,1.41724 2.115087,3.06919 3.700598,3.67096 2.308362,0.87615 114.214043,0.5544 124.216083,-0.35713 z M 117.75623,89.899201 C 106.18793,87.520389 99.076428,84.042587 91.169929,76.897464 82.934187,69.454801 77.465907,58.662235 76.223033,47.397261 l -0.8897,-8.063928 -32,-0.313656 c -17.6,-0.17251 -33.306084,-0.62292 -34.9024091,-1.000909 C 4.8084781,37.16102 3.9471589,33.736531 6.1976044,29.139389 l 1.7267135,-3.527276 33.0985751,0.540263 c 25.306059,0.413067 33.578808,0.144816 35.138359,-1.139389 1.121881,-0.92381 4.913551,-5.125107 8.425932,-9.336216 7.627027,-9.1442927 12.132183,-10.7908791 25.998426,-9.5021477 10.87878,1.0110763 16.35392,4.3258687 21.67902,13.1250657 l 3.20726,5.299688 32.1167,-0.425466 c 34.4532,-0.45642 37.74474,0.04743 37.74474,5.777762 0,5.159 -3.37932,7.512424 -9.40389,6.549056 -5.80285,-0.927913 -7.54533,-0.916733 -38.14425,0.24473 l -21.54815,0.817917 -4.74609,7.689269 c -2.61035,4.229099 -5.60015,8.398084 -6.64402,9.264414 -2.94,2.439984 -14.54912,3.341386 -19.97427,1.550924 -7.427168,-2.451186 -10.647109,-8.002879 -10.351699,-17.847975 0.263558,-8.783476 2.53176,-12.592983 9.727029,-16.3368 3.1241,-1.62552 3.84756,-1.597187 5.66666,0.221924 2.92973,2.92972 2.61472,5.061143 -1.46444,9.908955 -2.95013,3.50603 -3.34023,4.81843 -2.30926,7.768966 1.59272,4.55821 7.74225,5.359948 12.52572,1.633028 C 121.45291,39.245247 122,37.694364 122,31.966792 c 0,-6.054369 -0.507,-7.305207 -4.35437,-10.742831 -7.88609,-7.046221 -18.784159,-4.76111 -26.37729,5.530799 -3.606725,4.888641 -3.61032,4.612623 0.285363,21.911907 1.832889,8.139181 2.976808,10.242089 8.940717,16.436049 9.22585,9.581724 12.47137,11.070825 24.39832,11.194388 13.11929,0.135915 16.94378,3.559139 11.44059,10.240235 -3.5206,4.274153 -9.16935,5.296398 -18.5771,3.361862 z"
       id="path233" />
  </g>
</svg>
