<?xml version="1.0" encoding="UTF-8" standalone="no"?>
<!-- Created with Inkscape (http://www.inkscape.org/) -->

<svg
   version="1.1"
   id="svg83"
   width="221.33333"
   height="214.66667"
   viewBox="0 0 221.33333 214.66667"
   xmlns="http://www.w3.org/2000/svg"
   xmlns:svg="http://www.w3.org/2000/svg">
  <defs
     id="defs87" />
  <g
     id="g89">
    <path
       style="fill:#000000;stroke-width:1.33333"
       d="m 134.02288,209.83242 c -2.7572,-2.7572 -1.68831,-8.09744 3.44034,-17.18818 5.36235,-9.50498 6.39078,-19.81277 2.61518,-26.21192 -1.58371,-2.6842 -4.28748,-5.80292 -6.00836,-6.93048 -2.97508,-1.94934 -3.20012,-1.8728 -4.5779,1.55735 -2.47956,6.17309 -5.45181,20.67208 -5.47243,26.69513 -0.0295,8.60967 -1.86284,11.18768 -7.23887,10.17914 -3.32542,-0.62386 -4.60771,-0.30782 -5.21947,1.28642 -0.89113,2.32226 -6.91832,2.89928 -8.2236,0.78731 -1.43296,-2.31859 4.97789,-17.81913 9.47259,-22.90336 6.69353,-7.57149 7.2432,-14.80059 2.01451,-26.49432 -2.28701,-5.1148 -4.1582,-9.93573 -4.1582,-10.71319 0,-0.77745 -4.8,-6.76705 -10.666672,-13.31024 -5.866666,-6.54318 -10.666666,-12.81285 -10.666666,-13.93259 0,-1.11975 -1.539543,-4.98022 -3.421207,-8.57884 -3.794448,-7.256743 -4.264309,-11.454369 -2.657478,-23.741315 1.201982,-9.191199 0.304806,-10.208134 -4.496804,-5.097055 -3.018055,3.212573 -3.040199,3.512903 -3.022959,41 0.0096,20.77004 0.289578,41.36372 0.622278,45.76372 0.3327,4.4 1.074834,15.85547 1.649185,25.4566 1.027465,17.17556 0.995792,17.49055 -1.967439,19.56608 -3.358,2.35203 -6.08621,1.84787 -7.313958,-1.35158 -0.448011,-1.1675 -1.133971,-13.87111 -1.524356,-28.23024 -0.390386,-14.35914 -0.951392,-26.85752 -1.24668,-27.77419 -0.570366,-1.77059 -14.65696,-2.33489 -20.332304,-0.81451 l -3.045056,0.81576 0.268865,27.3536 c 0.248679,25.29984 0.08276,27.4897 -2.209784,29.16606 -3.074998,2.24849 -4.842869,2.28218 -7.646281,0.14576 -1.962572,-1.49564 -2.215332,-7.8236 -2.46318,-61.66667 C 30.191578,71.97817 28.385326,41.095609 24.059122,34.095663 20.378196,28.139798 16.451292,25.333334 11.798563,25.333334 7.3544708,25.333334 3.9999999,22.178976 3.9999999,18 c 0,-7.135158 8.8735401,-9.6362551 16.8760201,-4.756677 7.894853,4.813952 18.357046,16.576145 20.304383,22.827346 1.26215,4.051658 2.009938,15.42959 2.361374,35.929332 0.282865,16.5 0.782853,30.749999 1.111082,31.666669 0.66749,1.86414 14.899073,2.33393 17.655771,0.58282 1.02473,-0.65092 1.853626,-5.548032 2.205026,-13.027274 0.309686,-6.591349 1.22917,-14.458001 2.043299,-17.481448 1.667849,-6.19392 8.704493,-13.242432 14.467497,-14.491896 C 87.689816,57.803768 90.68886,55.57591 95.280011,48.65905 101.63431,39.085897 102.39824,35.348642 98.45038,33.149186 91.048112,29.025187 85.461009,27.505188 77.398956,27.42204 69.36879,27.339222 68.742447,27.112091 67.962243,24 65.87723,15.683279 73.17454,10.636231 83.518433,13.240853 c 5.880135,1.480635 6.379586,1.383721 9.810979,-1.903764 10.008418,-9.5886718 24.127558,-4.1791306 27.868478,10.677394 1.86378,7.401744 0.1074,12.041676 -9.33538,24.661812 -8.2179,10.983091 -13.694003,20.980181 -15.129339,27.619869 -0.761862,3.524276 -0.332892,4.891996 2.387556,7.612444 5.023343,5.023343 10.106943,5.846179 13.121143,2.1238 1.35224,-1.669948 2.77125,-4.610401 3.15335,-6.534339 2.29458,-11.553431 6.38785,-29.059128 7.10098,-30.368714 8.61454,-15.819756 15.8166,-19.43358 48.83713,-24.505345 4.4,-0.675815 11.3,-2.4933 15.33333,-4.038858 11.63846,-4.459804 11.58551,-4.45726 14.06318,-0.675854 1.6804,2.56461 2.07954,5.027258 1.50005,9.25509 -0.84783,6.185546 -4.16576,17.374654 -6.27191,21.150854 -2.50533,4.491891 -1.56716,5.322451 5.04202,4.463668 14.65601,-1.904372 14.28806,-1.995161 14.75225,3.640078 0.51609,6.265206 -5.28592,19.131473 -12.20953,27.075241 -6.45904,7.41075 -14.03178,9.99578 -32.26974,11.015604 -18.16718,1.015868 -21.93965,2.870561 -21.93965,10.786387 0,4.43539 0.72697,5.78923 4.76077,8.86595 2.61842,1.99717 6.24819,6.37771 8.06615,9.73453 1.81796,3.35681 5.32109,9.87613 7.78473,14.48736 6.02978,11.286 7.01232,12.28261 12.10923,12.28261 6.95335,0 8.48708,1.16101 12.7874,9.67989 2.22416,4.40604 6.09468,10.12258 8.60116,12.70342 2.50648,2.58084 4.55723,5.45753 4.55723,6.39265 0,1.98425 -3.61684,5.89071 -5.45398,5.89071 -0.69492,0 -0.8994,1.4507 -0.45438,3.22377 0.60073,2.39352 0.1148,3.59539 -1.88694,4.66667 -3.9699,2.12464 -4.97412,1.85654 -10.18556,-2.71915 -2.60716,-2.28912 -8.77732,-5.79733 -13.71146,-7.79603 -8.39056,-3.3988 -9.02236,-3.94893 -9.76216,-8.50026 C 165.55101,168.08995 159.13466,160 155.27653,160 c -1.80819,0 -3.92707,19.46836 -3.33767,30.66667 0.21228,4.03333 0.46288,9.05908 0.55688,11.16833 0.22979,5.1559 -3.85445,7.90479 -6.48512,4.36482 -1.95234,-2.62718 -4.67729,-1.9483 -4.67729,1.16529 0,1.03092 -1.15833,2.49432 -2.57407,3.252 -1.95369,1.04559 -3.09522,0.85647 -4.73638,-0.78469 z m 48.87213,-38.70574 c 1.34108,-1.21365 2.43832,-3.88646 2.43832,-5.93957 0,-3.2128 -0.65229,-3.85531 -4.6814,-4.61117 -2.57476,-0.48303 -5.01017,-1.41022 -5.41201,-2.06042 -0.40186,-0.6502 -1.37191,-1.18218 -2.1557,-1.18218 -2.08164,0 -0.0965,10.7414 2.51924,13.63184 2.66207,2.94153 4.18244,2.97521 7.29155,0.1615 z m -13.56168,-16.96342 c 0,-1.0102 -0.95917,-2.63278 -2.13149,-3.60572 -2.35595,-1.95526 -12.21478,-16.7428 -15.73695,-23.6043 -1.23661,-2.40905 -5.93741,-7.20905 -10.4462,-10.66666 -4.50879,-3.45762 -9.42601,-7.48658 -10.92715,-8.95324 -3.80358,-3.71625 -13.12044,-9.946532 -14.91785,-9.975742 -2.76458,-0.04493 -18.24527,-5.367125 -20.107989,-6.913045 -1.297998,-1.077242 -2.263933,-1.112988 -3.256414,-0.120506 -4.379876,4.379876 10.150893,25.216033 29.536973,42.354053 7.37082,6.51608 13.7483,13.22918 14.17216,14.918 0.89858,3.58022 2.8774,3.95064 5.07195,0.94942 1.39925,-1.9136 2.58,-1.77572 12.06743,1.40911 5.78402,1.94163 11.45221,4.07789 12.59597,4.74727 2.94713,1.72474 4.07956,1.57522 4.07956,-0.53864 z M 65.857347,135.22428 c 1.236301,-3.22174 0.964307,-11.97636 -0.491013,-15.80414 C 64.211755,116.38336 63.32477,116 57.453134,116 c -3.637079,0 -8.151929,0.58515 -10.033001,1.30033 -3.182735,1.21008 -3.420134,1.89649 -3.420134,9.88889 0,5.62328 0.575431,8.82076 1.666667,9.26108 0.916667,0.36988 5.652473,0.71988 10.524014,0.77777 6.91345,0.0821 9.034968,-0.3576 9.666667,-2.00379 z M 148.66666,87.665833 c 2.2,-1.081324 9.4,-2.380737 16,-2.887586 22.92306,-1.760382 28.57476,-2.755588 31.20734,-5.495291 4.57113,-4.757146 4.52224,-7.714706 -0.20211,-12.225444 l -4.33856,-4.142402 -18.0726,0.974739 c -21.7064,1.170724 -26.59312,3.033293 -32.2028,12.274059 -3.64471,6.003901 -6.87183,17.979836 -5.46037,20.263615 0.38668,0.62566 2.58541,-0.64741 4.88608,-2.829043 2.30066,-2.181632 5.98302,-4.851323 8.18302,-5.932647 z M 130.43782,74.943325 c 3.91522,-8.054021 12.16795,-18.781543 14.64615,-19.038189 30.2374,-3.131435 36.15608,-4.979491 42.20483,-13.178098 4.04212,-5.478791 4.7182,-12.8741 1.04453,-11.425754 -1.28333,0.505956 -7.81691,1.448427 -14.51904,2.094382 -11.9554,1.152264 -17.34352,2.635084 -30.26961,8.330256 -5.27652,2.324811 -7.08534,4.070384 -9.9054,9.559131 -1.89756,3.693221 -4.48776,11.214948 -5.75602,16.714948 -1.26825,5.5 -2.7308,11.35 -3.2501,13 -1.99613,6.342416 1.60255,2.587492 5.80466,-6.056676 z m -19.77115,-51.17167 c 0,-2.17552 -4.05732,-6.438321 -6.12797,-6.438321 -2.98223,0 -3.55322,2.738988 -1.12933,5.41735 2.56665,2.83612 7.2573,3.49601 7.2573,1.020971 z"
       id="path1085" />
  </g>
</svg>
