<?xml version="1.0" encoding="UTF-8" standalone="no"?>
<!-- Created with Inkscape (http://www.inkscape.org/) -->

<svg
   version="1.1"
   id="svg2"
   width="226.66667"
   height="210.66667"
   viewBox="0 0 226.66667 210.66667"
   xmlns="http://www.w3.org/2000/svg"
   xmlns:svg="http://www.w3.org/2000/svg">
  <defs
     id="defs6" />
  <g
     id="g8">
    <path
       style="fill:#000000;stroke-width:1.33333"
       d="m 109.24406,203.83319 c -1.81405,-3.38959 -3.26163,-35.95616 -1.97856,-44.51228 0.64011,-4.26855 1.83819,-6.64927 4.08804,-8.12343 3.62971,-2.37826 7.98266,-1.51717 9.26842,1.83348 1.26965,3.30864 2.59195,41.94047 1.57434,45.99498 -1.86336,7.42421 -9.94616,10.42417 -12.95224,4.80725 z M 12.509436,202.69027 C 8.8256367,201.2022 8.4893159,198.8451 8.8338507,176.9299 9.13991,157.46206 9.9559896,154.66667 15.333334,154.66667 c 4.062706,0 5.478418,2.11917 6.680485,10 1.511941,9.91237 1.678163,35.75115 0.242311,37.66667 -1.417016,1.89038 -5.573683,2.04261 -9.746694,0.35693 z m 193.072904,-2.35693 c -0.64799,-1.28334 -0.8191,-12.29176 -0.38024,-24.46318 0.84512,-23.43924 1.70574,-26.53682 7.373,-26.53682 7.64972,0 9.93864,6.63081 10.0335,29.06621 0.0575,13.57557 -1.67368,20.52027 -5.79464,23.24671 -2.90364,1.92105 -10.01866,1.08934 -11.23162,-1.31292 z M 12.318622,128.23867 c -1.658092,-0.23539 -3.8326941,-2.03539 -4.8324503,-4 C 4.7562773,118.87421 3.5152043,103.85615 5.4507346,99.608127 L 7.0624466,96.070806 25.19789,95.70207 c 9.974495,-0.202804 25.335444,-0.04213 34.135444,0.357062 18.446106,0.836758 29.191698,-0.856972 25.400234,-4.003608 -2.433195,-2.019372 -6.0669,-8.401656 -6.0669,-10.655976 0,-0.769751 1.210156,-2.609703 2.689236,-4.088783 2.510436,-2.510436 2.953683,-2.552484 6.666667,-0.632426 2.187586,1.131245 3.97743,2.665697 3.97743,3.409893 0,0.744195 1.347972,3.278787 2.995495,5.632427 1.647521,2.353638 3.1549,4.536721 3.349731,4.851297 0.19483,0.314575 1.996863,-0.632868 4.004503,-2.105427 5.56587,-4.082422 9.18109,-4.552704 12.84473,-1.67089 1.77438,1.395733 3.807,2.537696 4.51692,2.537696 0.70991,0 3.31528,-3.003331 5.78969,-6.67407 4.863,-7.214158 8.845,-9.174221 13.93059,-6.85707 4.37706,1.994325 4.07706,4.270962 -1.43166,10.864473 -2.56666,3.0721 -4.66666,6.221123 -4.66666,6.997828 0,0.981751 6.19768,1.067396 20.33333,0.280985 28.67307,-1.595172 53.12064,-0.915306 55.66667,1.548041 1.3712,1.326674 1.98105,4.540058 1.93974,10.220768 -0.0697,9.59685 -4.1784,19.01538 -9.1135,20.89171 -2.80614,1.06689 -182.915538,2.61587 -189.840958,1.63267 z m 138.348048,-8.2668 c 22.36667,-0.6844 42.76667,-1.72924 45.33333,-2.32186 3.99032,-0.92133 4.72667,-1.69123 5.08063,-5.31217 0.37023,-3.78725 -0.1228,-4.46365 -4.66667,-6.4018 -4.40308,-1.87812 -9.08137,-2.0539 -35.08062,-1.31811 -16.5,0.46695 -30.9,0.79662 -32,0.73259 -9.51514,-0.55386 -103.462436,0.0929 -108.428205,0.74645 -7.208779,0.94876 -8.502373,2.67006 -6.708164,8.9261 0.799601,2.78804 2.31868,4.51646 4.504731,5.12552 4.87998,1.3596 85.275218,1.25194 131.964968,-0.17672 z M 74.16495,37.974474 C 70.795601,34.605125 71.379997,25.531443 75.341864,19.701032 83.586949,7.5672984 100.71255,1.8110084 117.80369,5.428684 c 7.2491,1.5344149 9.14794,2.6692483 16.43077,9.81978 8.66164,8.504294 11.02733,13.588331 8.69984,18.696609 -1.3124,2.880426 -2.4352,3.14371 -17.18628,4.030012 -8.68017,0.521537 -21.47445,0.751918 -28.43174,0.511957 -6.957287,-0.239961 -14.525385,0.03365 -16.817996,0.608044 -3.110535,0.779307 -4.717803,0.494919 -6.333334,-1.120612 z m 54.93016,-8.183048 c 6.83391,-0.820694 7.06343,-0.979796 6.23475,-4.321744 -0.4732,-1.908324 -1.39624,-3.663098 -2.05122,-3.899496 -0.65497,-0.236399 -3.28564,-1.851375 -5.84594,-3.588836 -9.38666,-6.369959 -23.63937,-6.73614 -34.987079,-0.89889 -5.890796,3.03022 -11.838589,9.997003 -10.451244,12.241775 0.926343,1.498853 35.642693,1.843205 47.100733,0.467191 z"
       id="path30" />
  </g>
</svg>
