<?xml version="1.0" encoding="UTF-8" standalone="no"?>
<!-- Created with Inkscape (http://www.inkscape.org/) -->

<svg
   version="1.1"
   id="svg2"
   width="214.66667"
   height="146.66667"
   viewBox="0 0 214.66667 146.66667"
   xmlns="http://www.w3.org/2000/svg"
   xmlns:svg="http://www.w3.org/2000/svg">
  <defs
     id="defs6" />
  <g
     id="g8">
    <path
       style="fill:#000000;stroke-width:1.33333"
       d="m 163.02112,138.9327 c -2.29085,-1.4812 -8.33573,-13.69735 -8.37874,-16.9327 -0.0195,-1.46666 -1.8352,-6.26666 -4.03488,-10.66666 -5.56511,-11.1318 -13.27416,-30.766044 -13.27416,-33.808038 0,-3.775654 3.4933,-6.158899 6.8392,-4.665919 2.72565,1.216221 3.61382,3.061319 9.85552,20.473952 1.70865,4.766667 4.97882,13.166665 7.26704,18.666665 6.31752,15.18492 8.2423,21.21751 7.78654,24.40443 -0.44088,3.08283 -3.33532,4.29031 -6.06052,2.52827 z m 35.31222,-1.70616 C 197.05,136.47907 196,135.01336 196,133.96942 c 0,-1.04394 -1.13618,-4.46413 -2.52486,-7.60042 -1.38867,-3.13628 -3.71842,-8.70233 -5.1772,-12.369 -3.21364,-8.07745 -8.03978,-19.821343 -10.49354,-25.534837 -4.03357,-9.392071 -0.62244,-22.092283 3.99868,-14.887723 2.84975,4.442918 6.78918,13.426774 11.58631,26.42256 4.00377,10.84655 7.7126,20.18129 11.34208,28.54685 1.2354,2.84746 1.30513,4.71054 0.26197,7.00001 -1.54557,3.39217 -3.06292,3.77485 -6.6601,1.67968 z M 8.0988521,124.24838 c -4.1735468,-1.27562 -5.9625206,-6.73095 -4.7841495,-14.58889 0.7656533,-5.10575 2.2313626,-7.52091 8.4722264,-13.960377 6.174257,-6.370736 8.87981,-8.139378 14.879738,-9.727004 19.400295,-5.133467 35.492106,-0.372886 44.472533,13.1567 7.799977,11.751161 9.723545,20.055421 5.464353,23.590241 -2.333433,1.93658 -62.758743,3.28554 -68.5047009,1.52933 z M 54.333334,112.46105 c 9.029632,-0.70291 11,-1.25388 11,-3.07588 0,-2.36574 -5.003948,-7.45613 -10.953089,-11.142312 -4.733464,-2.932927 -23.480847,-3.12118 -28.954303,-0.290745 -4.874532,2.520717 -10.759275,9.530847 -10.759275,12.816857 0,2.37173 1.076719,2.56377 14.333333,2.55637 7.883334,-0.004 19.283334,-0.39332 25.333334,-0.86429 z M 23.666667,63.893203 c -1.283333,-0.747474 -2.333333,-2.529228 -2.333333,-3.959455 0,-2.052993 -0.926258,-2.600413 -4.4,-2.600413 -5.073755,0 -7.6000005,-2.000959 -7.6000005,-6.019718 0,-6.498435 20.6562825,-10.733815 32.4974775,-6.663308 5.345876,1.837689 9.779935,2.102809 25.017489,1.495845 10.186005,-0.405742 19.621072,-1.326985 20.966813,-2.047204 1.952239,-1.044806 2.614724,-3.545293 3.277574,-12.370887 1.169072,-15.56578 2.886793,-20.681321 7.989137,-23.7924358 8.034206,-4.8987937 16.707066,-2.6408255 20.040866,5.2176128 2.89737,6.82968 3.32495,8.765215 4.71766,21.355389 0.74439,6.729325 1.95035,11.627884 3.03126,12.312916 3.19539,2.025084 36.01101,1.397132 40.16282,-0.768547 4.91796,-2.565324 17.14627,-4.757746 21.12067,-3.786741 1.74804,0.427068 4.07824,1.519517 5.17824,2.427664 1.1,0.908147 3.90748,2.616949 6.23884,3.797339 8.54308,4.325433 6.50093,13.421901 -2.32267,10.34598 -5.85839,-2.042247 -6.58284,-1.919445 -6.58284,1.115849 0,5.736656 -8.26081,6.884317 -18.12989,2.518754 -6.09687,-2.696931 -7.90231,-2.818186 -31.39435,-2.108471 -22.19669,0.670581 -25.14616,0.509151 -26.9414,-1.474567 -1.4283,-1.578254 -2.26023,-6.696388 -2.85401,-17.558195 C 110.27783,21.772472 109.89334,20 106.71995,20 c -3.94488,0 -4.48696,2.010769 -4.95518,18.380606 -0.23932,8.367348 -0.77235,15.758986 -1.1845,16.425861 -0.41215,0.666874 -2.384274,2.057941 -4.382491,3.09126 -3.595088,1.859092 -7.197407,2.063465 -39.470293,2.239292 -12.956343,0.07059 -16.876317,0.56493 -20.946883,2.641577 -5.580772,2.847097 -8.653953,3.129863 -12.113936,1.114607 z"
       id="path30" />
  </g>
</svg>
