<?xml version="1.0" encoding="UTF-8" standalone="no"?>
<!-- Created with Inkscape (http://www.inkscape.org/) -->

<svg
   version="1.1"
   id="svg165"
   width="214.66667"
   height="194.66667"
   viewBox="0 0 214.66667 194.66667"
   xmlns="http://www.w3.org/2000/svg"
   xmlns:svg="http://www.w3.org/2000/svg">
  <defs
     id="defs169" />
  <g
     id="g171">
    <path
       style="fill:#000000;stroke-width:1.33333"
       d="m 205.11976,188.36702 c -1.35176,-0.31536 -3.86054,-4.77 -6.44381,-11.44172 -9.05632,-23.38952 -15.80579,-39.44907 -18.16089,-43.21172 -2.42926,-3.88111 -2.34126,-7.6969 0.23696,-10.27511 1.8733,-1.87331 2.48337,-1.87952 6,-0.061 2.15305,1.11339 3.91465,2.82551 3.91465,3.8047 0,3.91529 13.07751,41.36894 17.26032,49.43309 1.50683,2.90505 2.73968,5.94038 2.73968,6.74516 0,2.58993 -3.26681,5.53853 -5.54691,5.0066 z M 162.85975,179 c -2.11492,-4.21666 -4.30183,-9.16666 -4.8598,-11 -0.55797,-1.83333 -2.05405,-5.73333 -3.32464,-8.66666 -7.6728,-17.71379 -12.18199,-31.35337 -11.29215,-34.15699 0.49235,-1.55127 2.03519,-2.50968 4.04003,-2.50968 1.78391,0 3.25151,0.15 3.26132,0.33333 0.0157,0.29503 4.49169,12.77914 10.15832,28.33334 1.06865,2.93333 2.74329,7.13333 3.72143,9.33333 5.17509,11.63981 8.87336,22.47175 8.23781,24.12793 -0.39511,1.02964 -1.92857,1.87207 -3.40769,1.87207 -1.93923,0 -3.76183,-2.13833 -6.53463,-7.66667 z M 23.333334,172.44855 C 8.4271264,171.81482 7.0284721,171.34927 6.0029337,166.68003 c -1.0834562,-4.93295 3.8236795,-16.2578 9.4553083,-21.82128 9.812596,-9.69385 25.882425,-13.65056 39.436954,-9.71015 13.924188,4.04787 26.466839,17.24599 26.417721,27.79828 -0.03735,8.02351 -0.818021,8.36571 -19.598023,8.59068 -9.376524,0.11227 -19.448227,0.4653 -22.38156,0.78436 -2.933333,0.31907 -10.133334,0.37606 -16,0.12667 z m 40.92315,-10.39159 c 2.707732,-0.0691 5.301973,-0.5043 5.764981,-0.9673 1.764017,-1.76403 -3.626115,-9.17387 -8.471469,-11.64579 -2.783947,-1.42027 -5.84505,-3.52615 -6.802451,-4.67975 -1.997984,-2.40742 -12.769131,-2.8611 -19.832543,-0.83534 -7.845858,2.25017 -19.601915,14.58432 -16.682931,17.50329 1.342663,1.34267 28.070583,2.41141 35.76793,1.43023 2.933333,-0.37392 7.548751,-0.73632 10.256483,-0.80534 z M 33.593665,103 c -1.593559,-2.75 -4.605131,-7.03153 -6.692382,-9.514516 l -3.795004,-4.514516 -2.853265,4.007042 c -1.569296,2.203873 -3.439488,5.548925 -4.155983,7.43345 -0.716495,1.88452 -2.506245,4.07051 -3.977224,4.85776 -2.1818471,1.16769 -2.9363717,0.94205 -4.0960931,-1.22491 C 7.2418416,102.58337 6.9935464,99.725742 7.4719468,97.694027 9.0614647,90.943518 17.857475,74.680012 20.34612,73.890147 c 2.814706,-0.893352 8.688984,2.525449 10.058934,5.85425 1.61162,3.916034 8.870921,13.486005 10.261613,13.527934 1.275575,0.03845 4.666667,-5.944448 4.666667,-8.233403 0,-0.602855 1.579732,-3.483236 3.510515,-6.400847 5.289625,-7.993162 8.483645,-7.289012 14.326128,3.158324 2.603051,4.65469 5.575083,9.162089 6.604517,10.016442 2.291651,1.901901 3.212676,0.903328 8.042838,-8.72003 3.935357,-7.840596 8.227859,-11.573118 11.319596,-9.842896 1.119401,0.626448 4.538884,5.251491 7.598851,10.277872 3.059967,5.026382 6.406221,9.305909 7.436121,9.510059 1.16562,0.231055 3.74766,-3.41834 6.83941,-9.666667 3.75483,-7.588376 5.6302,-10.03785 7.68518,-10.03785 2.97694,0 9.53711,6.797318 14.42183,14.943181 1.71507,2.860091 3.78918,4.976544 4.60912,4.703228 1.61534,-0.538446 5.06404,-5.855728 8.08924,-12.472152 1.0459,-2.287493 3.28719,-5.129556 4.98064,-6.315697 4.26592,-2.987972 7.05868,-0.887186 13.15107,9.89262 2.66769,4.720184 5.42064,8.577757 6.11765,8.572384 0.69702,-0.0053 2.82788,-2.899297 4.73527,-6.430942 5.23655,-9.695784 8.35407,-12.372165 12.31124,-10.56916 C 192.17832,77.964919 204,96.780302 204,102.53486 c 0,5.9923 -6.36314,4.9844 -9.77526,-1.54838 -4.11632,-7.880985 -6.98831,-12.129892 -8.55118,-12.650846 -0.84957,-0.283192 -3.45106,3.27544 -5.78109,7.908069 -4.61165,9.169027 -5.77792,10.371797 -10.0868,10.402547 -2.64952,0.0189 -8.53391,-7.390147 -13.17837,-16.592954 -2.63738,-5.225829 -5.13976,-3.268005 -10.62236,8.310775 -1.13652,2.400239 -3.26632,5.563989 -4.7329,7.030559 -4.3056,4.30559 -9.62147,0.5583 -14.74572,-10.394628 -1.60107,-3.422258 -3.55056,-5.663059 -4.92204,-5.657556 -2.22577,0.0089 -8.27094,7.472829 -8.27094,10.212032 0,2.676332 -6.56849,8.445522 -9.61561,8.445522 -3.26487,0 -4.604456,-1.60437 -11.132791,-13.333332 -2.244952,-4.033333 -4.639315,-7.333333 -5.320808,-7.333333 -1.614586,0 -5.78427,8.554827 -5.866754,12.036659 C 81.284883,104.11858 77.540195,108 73.071386,108 c -4.50675,0 -5.687152,-1.16353 -11.835852,-11.666665 -2.253849,-3.85 -4.81981,-7 -5.702134,-7 -2.040695,0 -8.866733,10.433992 -8.866733,13.553315 0,2.59699 -3.772966,5.11335 -7.666824,5.11335 -1.49508,0 -3.679532,-2.02033 -5.406178,-5 z M 67.919234,55.506132 C 67.508146,55.077805 63.173914,54.161185 58.287609,53.4692 53.401302,52.777213 45.460705,50.633709 40.641834,48.705858 33.198455,45.728037 30.078724,45.237123 19.906195,45.442946 10.052102,45.642326 7.4660214,45.26339 5.2994023,43.302627 -0.28349171,38.250177 3.05401,32.857634 12.571279,31.553147 c 6.664968,-0.913534 15.992529,-5.139959 17.690552,-8.015788 1.412396,-2.392081 6.242843,-4.870692 9.492263,-4.870692 1.427839,0 4.113785,-1.989828 5.968772,-4.421841 C 48.766573,10.25432 50.570365,9.4715408 64.214452,6.2201548 85.134773,1.2348421 99.682903,1.3224619 119.37169,6.5523533 140.19176,12.082744 151.04706,15.307035 164,19.808071 c 6.23334,2.166028 17.63334,4.931779 25.33334,6.146112 17.61908,2.778628 20.31096,3.831168 19.7577,7.725382 -0.63581,4.475377 -6.98825,6.032121 -18.25832,4.474424 -8.76034,-1.210816 -9.80602,-1.059719 -19.05092,2.752765 -5.37998,2.218647 -11.8818,4.780376 -14.44846,5.692732 -20.06982,7.13409 -20.13618,7.145776 -42,7.396427 C 103.6,54.130426 88.300001,54.700478 81.333335,55.262696 74.366668,55.824912 68.330322,55.934458 67.919234,55.506132 Z M 108.7601,45.906841 c 2.14861,-0.49444 8.70657,-1.362211 14.57324,-1.928376 14.63194,-1.412064 26.82312,-4.323768 34.55422,-8.252828 l 6.49966,-3.303215 -3.15695,-2.211211 C 159.49395,28.995046 157.29654,28 156.34712,28 c -0.9494,0 -7.1189,-1.836701 -13.70998,-4.081558 -6.5911,-2.244856 -14.5198,-4.194856 -17.61936,-4.333334 L 119.38223,19.333334 117.75543,26 c -1.31804,5.40133 -3.02829,7.955685 -9.0108,13.458098 -4.06119,3.735287 -7.00645,7.168975 -6.545,7.630417 0.46144,0.461444 1.24734,0.586611 1.74644,0.27815 0.4991,-0.308462 2.66541,-0.965383 4.81403,-1.459824 z M 88.000001,45.333334 c -1.1,-0.710875 -2.980182,-1.301687 -4.178184,-1.312916 -3.013597,-0.02825 -11.188272,-9.384 -12.971951,-14.84614 -0.809586,-2.479186 -1.332,-6.307611 -1.16092,-8.507611 0.267431,-3.439023 -0.188965,-4.057797 -3.254294,-4.41212 -1.960943,-0.226665 -5.98704,0.823335 -8.946883,2.333333 -2.959844,1.51 -6.072168,2.745454 -6.916278,2.745454 -2.258154,0 -14.57149,10.633959 -14.57149,12.584131 0,1.705786 25.365248,10.895486 32.666667,11.834966 8.920456,1.147804 21.341301,0.878551 19.333333,-0.419097 z M 102.48705,30.191195 c 3.66556,-3.901815 5.16672,-11.724715 2.64335,-13.775164 -0.98839,-0.803148 -6.597065,-1.675316 -12.463732,-1.938149 L 82.000001,14 81.581619,19.83827 c -0.349138,4.872018 0.188657,6.471881 3.249456,9.666667 4.856816,5.069424 13.232372,5.394968 17.655975,0.686258 z"
       id="path509" />
  </g>
</svg>
