<?xml version="1.0" encoding="UTF-8" standalone="no"?>
<!-- Created with Inkscape (http://www.inkscape.org/) -->

<svg
   version="1.1"
   id="svg75"
   width="200"
   height="210.66667"
   viewBox="0 0 200 210.66667"
   xmlns="http://www.w3.org/2000/svg"
   xmlns:svg="http://www.w3.org/2000/svg">
  <defs
     id="defs79" />
  <g
     id="g81">
    <path
       style="fill:#000000;stroke-width:1.33333"
       d="m 31.666667,206.62683 c -3.607303,-2.20457 -2.97148,-8.59799 1.179812,-11.86339 C 34.778708,193.24355 37.428291,192 38.734439,192 c 3.672737,0 9.928672,-8.96576 16.69442,-23.92578 l 6.162966,-13.62719 -3.02833,-3.22352 C 56.897912,149.45059 54.751183,148 53.792984,148 c -0.958199,0 -2.095232,-1.65 -2.52674,-3.66666 -0.431509,-2.01667 -2.542941,-8.88674 -4.692069,-15.26681 -2.14913,-6.38008 -3.907508,-13.45735 -3.907508,-15.72727 0,-2.65002 -1.221331,-5.34847 -3.412448,-7.53958 -3.561435,-3.56144 -5.671988,-3.66379 -14.864223,-0.72086 -3.632587,1.16299 -5.295269,0.84435 -11.040092,-2.11576 C 3.9709023,98.130375 3.4408489,95.051035 10.595795,86.963085 21.343532,74.813845 29.585241,62.17753 32.628657,53.181965 36.210369,42.595331 38.653256,39.197546 49.774973,29.333334 54.322481,25.3 62.181895,17.65 67.240335,12.333334 74.484592,4.7192666 77.249287,2.6666667 80.260596,2.6666667 c 5.132131,0 5.961776,2.9396259 2.490227,8.8234633 -4.634091,7.8542 -1.793556,7.082448 6.671237,-1.8125246 7.345708,-7.7190146 8.125944,-8.1892916 11.2359,-6.7722987 4.30322,1.9606767 4.30616,5.9364862 0.009,11.7613603 -1.833337,2.484944 -3.333337,5.314375 -3.333337,6.287624 0,0.973251 -1.65,2.483325 -3.666666,3.355723 -2.016667,0.872397 -5.36291,2.959709 -7.436096,4.63847 -2.073187,1.678763 -5.211532,3.414239 -6.974102,3.856617 -1.762569,0.442376 -5.315328,3.742201 -7.89502,7.332944 -2.57969,3.590742 -5.23407,6.528622 -5.898621,6.528622 -0.664549,0 -3.104424,3.359798 -5.421943,7.466217 -3.925466,6.955542 -4.065005,7.630489 -2.04012,9.867962 1.195454,1.320962 4.234331,2.788352 6.75306,3.260868 2.51873,0.472518 4.579508,1.431934 4.579508,2.132038 0,0.700104 0.6,1.272916 1.333334,1.272916 C 71.4,70.666668 72,69.436052 72,67.931965 c 0,-3.504887 7.744472,-6.898328 14.464435,-6.337968 4.106717,0.342448 4.931266,0.941895 5.267314,3.829337 0.5242,4.504116 -11.220878,15.910001 -16.383141,15.910001 -5.281257,0 -5.238708,2.839754 0.167347,11.168961 4.006509,6.1729 6.363817,8.279374 12.307921,10.998264 6.491467,2.96926 8.922532,3.33148 20.764194,3.09378 7.37656,-0.14807 16.11193,-1.07225 19.41193,-2.05374 8.02831,-2.38779 27.46993,-3.45278 33.48139,-1.83407 2.66042,0.71638 6.36012,2.50048 8.22152,3.96466 4.00414,3.14966 10.29709,3.58197 10.29709,0.70738 0,-1.07512 -1.03828,-4.13206 -2.30728,-6.79319 -2.2218,-4.659138 -2.21235,-4.907858 0.25483,-6.711907 5.5283,-4.042394 8.77576,-2.224766 14.1839,7.938877 2.39974,4.50988 2.52759,5.65378 1.03471,9.25791 -0.93684,2.26173 -4.28248,7.0162 -7.43475,10.5655 -3.52477,3.96869 -5.73141,7.74497 -5.73141,9.8083 0,1.84527 -0.93285,5.15897 -2.073,7.36378 -1.1936,2.30816 -1.90063,6.38084 -1.66667,9.60046 0.37563,5.1691 0.88482,5.84362 6.73743,8.92504 7.50273,3.9502 8.40832,6.77156 7.31121,22.77804 -0.60648,8.84838 -1.38148,11.47574 -5.05909,17.15128 -3.70056,5.71093 -4.95228,6.69273 -8.46305,6.63804 -2.2661,-0.0353 -6.01088,0.33198 -8.32175,0.81621 -3.59757,0.75385 -4.34091,0.44147 -5.17069,-2.17293 -1.04798,-3.30191 1.625,-6.17427 12.592,-13.53131 5.24058,-3.51556 5.44694,-3.92447 5.44694,-10.79335 0,-5.16808 -0.65929,-7.73601 -2.38778,-9.30026 -2.65643,-2.40404 -15.39112,-5.54503 -18.16536,-4.48046 -0.97842,0.37546 -2.18479,3.38906 -2.68083,6.6969 -0.61047,4.07089 -2.13913,7.2287 -4.73089,9.7727 -2.10595,2.06716 -5.4247,6.9438 -7.375,10.83699 -2.23151,4.45451 -4.86463,7.63927 -7.10308,8.59116 -1.95638,0.83193 -4.48335,2.27764 -5.6155,3.21268 -2.40293,1.98457 -9.29415,2.75383 -11.64638,1.30007 -3.28281,-2.0289 -1.44821,-5.64716 5.63827,-11.12002 3.99115,-3.08234 8.3281,-7.28234 9.63767,-9.33333 1.30958,-2.051 4.04182,-5.3198 6.07163,-7.26403 4.35836,-4.17456 4.62527,-6.53921 1.0984,-9.73098 -1.42571,-1.29024 -3.67571,-4.98099 -5,-8.20166 -2.03181,-4.94132 -2.98869,-5.85653 -6.1276,-5.86074 -2.04588,-0.003 -6.07198,1.195 -8.94688,2.66166 -2.8749,1.46667 -6.50636,2.66667 -8.06991,2.66667 -1.56355,0 -4.36836,-1.2 -6.23293,-2.66667 -4.22683,-3.32482 -10.69036,-3.38133 -14.919243,-0.1304 l -3.222082,2.47694 2.888749,6.14554 c 1.588812,3.38003 2.888749,7.13246 2.888749,8.3387 0,3.05189 2.882897,12.90264 4.224767,14.43589 0.60971,0.69667 1.10857,3.54667 1.10857,6.33333 0,4.71487 -0.2715,5.06667 -3.910153,5.06667 -2.756273,0 -4.163238,0.79741 -4.767792,2.70219 -1.372822,4.32538 -6.453325,6.84192 -12.879814,6.3798 -5.09195,-0.36616 -5.823047,-0.82375 -6.176622,-3.8659 -0.316948,-2.72701 0.905863,-4.52146 5.83151,-8.55766 l 6.232552,-5.10711 -0.704947,-7.77428 c -0.513668,-5.66483 -1.82464,-9.46471 -4.831508,-14.00425 -2.269609,-3.42648 -4.126563,-7.0711 -4.126563,-8.09915 0,-1.05724 -1.013548,-1.67992 -2.333333,-1.43349 -1.517783,0.28338 -5.693136,7.31536 -11.945912,20.11885 -5.735335,11.74395 -10.575549,20.00987 -12,20.49312 -1.313081,0.44547 -3.625565,2.25555 -5.138852,4.0224 -3.098657,3.61787 -10.688319,5.26147 -14.248569,3.08564 z m 57.569917,-59.24347 c 2.073953,-1.07248 7.294159,-2.15204 11.600456,-2.39902 4.30629,-0.24699 8.90867,-1.05962 10.2275,-1.80583 1.57541,-0.89139 4.54805,-0.9254 8.66667,-0.0992 4.40145,0.88299 8.04962,0.76992 12.24715,-0.37955 5.82348,-1.59472 5.90816,-1.69406 3.26849,-3.83513 -6.29427,-5.10532 -4.19639,-9.53129 4.51778,-9.53129 4.95118,0 8.29061,2.72999 14.67885,12 5.23445,7.59574 10.87012,10.57084 10.90993,5.7594 0.0107,-1.33434 0.88471,-4.82607 1.94147,-7.7594 1.05677,-2.93334 1.94775,-8.26249 1.97993,-11.84257 0.0515,-5.72029 -0.49456,-7.03085 -4.5047,-10.81291 -4.35654,-4.10874 -5.15679,-4.33524 -17.66667,-5.00033 -11.34024,-0.60291 -13.811,-0.33759 -18.36176,1.97179 -4.87847,2.47569 -6.20624,2.56065 -18.38112,1.17623 -17.607052,-2.00213 -17.206589,-2.039 -16.372693,1.50779 0.86016,3.6585 -0.211758,5.23349 -4.99093,7.33328 -6.857617,3.01297 -12.310076,16.8094 -9.050358,22.90024 1.748154,3.26645 4.144968,3.4771 9.290005,0.8165 z M 70.606528,135.62302 c 0.80424,-3.874 3.513445,-10.44872 6.020456,-14.61047 l 4.558199,-7.56683 -4.259258,-3.40962 C 70.487559,104.88205 70.371973,104.75632 64.87168,96.924644 61.48366,92.100559 57.929024,88.804453 54.396872,87.211675 48.610233,84.602264 46.240813,80.645716 48.397077,77.192989 c 2.180512,-3.491553 0.155311,-6.526321 -4.35523,-6.526321 -4.492763,0 -5.143072,1.906517 -1.880139,5.512019 2.847184,3.146102 1.52018,6.219386 -3.104615,7.190149 -10.936608,2.295639 -15.153177,3.894905 -17.856758,6.772736 -3.91413,4.1664 -2.816724,4.970503 4.328186,3.171393 3.219092,-0.810577 9.111843,-1.287593 13.095004,-1.060036 6.49279,0.370931 7.490295,0.840026 9.640772,4.533746 1.319264,2.266004 2.785447,7.966005 3.258184,12.666665 0.514079,5.11174 2.313239,11.49395 4.476607,15.88 1.989397,4.03333 4.021396,9.0093 4.515555,11.05772 0.758996,3.14622 4.140526,5.85661 7.72416,6.19109 0.498008,0.0465 1.563485,-3.08512 2.367725,-6.95913 z M 77.974719,21.47583 c 0.415094,-1.021628 0.386813,-2.221628 -0.06285,-2.666667 -0.857181,-0.848371 -7.227116,6.414324 -7.23858,8.253084 -0.0096,1.530573 6.403316,-3.375988 7.30143,-5.586417 z"
       id="path648" />
  </g>
</svg>
