<?xml version="1.0" encoding="UTF-8" standalone="no"?>
<!-- Created with Inkscape (http://www.inkscape.org/) -->

<svg
   version="1.1"
   id="svg223"
   width="218.66667"
   height="221.33333"
   viewBox="0 0 218.66667 221.33333"
   xmlns="http://www.w3.org/2000/svg"
   xmlns:svg="http://www.w3.org/2000/svg">
  <defs
     id="defs227" />
  <g
     id="g229">
    <path
       style="fill:#000000;stroke-width:1.33333"
       d="M 127.33334,211.65656 C 113.4,210.98634 100.8,210.54633 99.333335,210.67878 c -1.466667,0.1324 -20.949898,0.5015 -43.296069,0.82014 -41.804291,0.59608 -46.8754379,0.1148 -48.6954507,-4.621 -0.4673891,-1.21619 -1.1983948,-7.14387 -1.6244571,-13.17263 -0.579542,-8.20048 -0.3186111,-11.51088 1.0359574,-13.14303 1.6323907,-1.96692 5.7223644,-2.09686 41.5506064,-1.32013 35.686778,0.77367 39.823411,0.64415 40.557898,-1.26989 0.497296,-1.29594 -0.51126,-3.53754 -2.572913,-5.71851 -4.859399,-5.14064 -5.356958,-11.52345 -1.005936,-12.90441 3.932845,-1.24824 7.716802,1.42894 10.876568,7.69526 1.559204,3.09215 3.050303,5.86122 3.313553,6.1535 0.263251,0.29229 3.161038,-0.89159 6.439538,-2.63083 l 5.9609,-3.16225 4.00925,2.96417 c 2.20508,1.63028 4.88244,2.96416 5.94967,2.96416 1.06724,0 4.14264,-3 6.83422,-6.66667 4.16223,-5.67009 5.55308,-6.66666 9.30424,-6.66666 4.09384,0 6.02909,1.74569 6.02909,5.43854 0,0.67124 -2.12426,3.57176 -4.72061,6.44559 -3.11393,3.44676 -4.20405,5.54439 -3.20292,6.16313 0.83473,0.51588 11.509,0.7725 23.72061,0.57023 12.2116,-0.20225 28.3391,-0.27393 35.83886,-0.15928 16.27413,0.24879 17.22026,1.04244 18.24937,15.30828 0.82051,11.37409 -0.78007,15.1718 -7.10256,16.85231 -7.03709,1.87044 -50.37137,2.43646 -79.44941,1.03776 z m 27.33333,-8.5318 c 32.40681,-0.56376 47.65249,-1.2914 48.3454,-2.30743 0.55664,-0.8162 0.85664,-2.984 0.66667,-4.81733 -0.63663,-6.14388 -3.96503,-6.40491 -89.11289,-6.98894 C 70.987964,188.71216 31.133334,188.8124 26,189.2338 L 16.666667,190 l -0.405809,5.58097 c -0.313255,4.30808 0.142896,5.85671 2,6.79 1.323194,0.66497 19.500428,1.34816 40.393851,1.51819 20.893423,0.17002 38.293423,0.61728 38.666667,0.99388 0.373244,0.37661 2.778624,0.32033 5.345294,-0.12507 2.56666,-0.4454 25.96667,-1.18035 52,-1.63323 z M 38.378693,125 c -1.172044,-0.91667 -4.305159,-5.11667 -6.962479,-9.33334 -2.657319,-4.21666 -5.263052,-7.64758 -5.790519,-7.62426 -2.61912,0.11582 -5.502445,3.94473 -6.342484,8.42252 -1.615451,8.61109 -7.353626,11.76569 -10.1675967,5.5897 -1.1935992,-2.61967 -1.0538478,-3.9503 0.6952517,-6.61976 1.204024,-1.83757 2.206004,-4.41215 2.226622,-5.72128 0.02062,-1.30914 1.970619,-5.98025 4.333334,-10.380248 3.385178,-6.304097 5.043377,-8.086565 7.822142,-8.408352 3.057082,-0.354015 4.387702,0.875679 10.000001,9.2415 3.560536,5.30742 7.209805,9.88655 8.109486,10.17584 0.95219,0.30617 3.294647,-3.09592 5.6053,-8.14091 2.183234,-4.766786 5.008714,-9.24845 6.278844,-9.959251 3.131886,-1.752691 7.783505,0.50182 9.696054,4.699406 2.662115,5.842705 8.460848,12.521375 10.520632,12.117105 1.098503,-0.2156 3.942144,-3.992 6.319206,-8.392 3.945048,-7.30239 4.707768,-8.000005 8.74661,-8.000005 4.58204,0 4.410524,-0.176069 12.530903,12.863565 1.46667,2.35517 3.38635,4.51423 4.26595,4.79793 0.87961,0.28369 3.0764,-2.37409 4.88176,-5.90618 3.70968,-7.257785 8.13695,-12.421981 10.64939,-12.421981 2.77948,0 5.58986,2.86512 11.64249,11.869261 6.45221,9.59856 5.47879,9.81032 13.28817,-2.89065 2.14902,-3.49509 5.4911,-7.076337 7.42684,-7.958321 3.27716,-1.493176 3.82554,-1.239201 7.963,3.688051 2.44392,2.910412 5.46606,7.55872 6.71587,10.32957 2.63752,5.84741 4.31576,5.80915 7.35603,-0.1677 4.42961,-8.708141 9.23856,-14.870211 11.60486,-14.870211 2.66122,0 8.08332,7.723337 14.71618,20.961981 4.90702,9.79404 5.00372,10.5893 1.42548,11.72499 -3.70872,1.1771 -6.11156,-1.12345 -10.73068,-10.27386 -2.15071,-4.26054 -4.49311,-7.74644 -5.20534,-7.74644 -0.71222,0 -3.12322,3.62181 -5.3578,8.04848 -3.99994,7.92383 -8.53706,11.7113 -12.29969,10.26745 -1.00515,-0.38571 -4.1934,-4.3386 -7.08503,-8.78419 -2.89161,-4.44559 -6.02654,-8.10888 -6.96653,-8.14065 -0.93997,-0.0318 -3.93997,3.49026 -6.66667,7.82673 -8.27357,13.15813 -11.8676,13.05557 -20.92983,-0.59726 -6.95466,-10.47762 -7.98755,-9.99907 -15.92732,7.37943 -3.42727,7.50159 -10.1759,4.28986 -19.084266,-9.08235 -2.594985,-3.89529 -5.162005,-6.59529 -5.704488,-6 -0.542483,0.5953 -2.949296,4.68235 -5.348473,9.08235 -7.510314,13.77363 -10.306714,13.51247 -19.296569,-1.80212 -2.2,-3.7478 -4.939678,-6.82551 -6.088174,-6.83936 -1.253299,-0.0151 -3.638561,3.2186 -5.965962,8.08808 C 46.488133,126.13733 42.949573,128.57493 38.378693,125 Z M 54.000001,73.216658 c -8.8,-0.590884 -21.359686,-1.326347 -27.910414,-1.634362 C 10.176499,70.834062 9.8956215,70.470275 8.6689687,49.019475 8.1534768,40.004935 8.27835,30.572516 8.9472395,28 c 1.0347883,-3.979744 1.8884975,-4.764799 5.7997465,-5.333334 4.932536,-0.716988 4.627076,0.13571 5.14485,-14.3619179 0.142654,-3.994281 5.348812,-6.4950868 9.2145,-4.4262336 2.902024,1.5531162 5.540183,8.7837225 5.552895,15.2192505 0.0056,2.863593 0.56581,3.658065 2.34077,3.319943 1.866346,-0.355531 2.412068,-2.082226 2.726737,-8.627554 0.364956,-7.5913406 0.669555,-8.2974494 4.212363,-9.7649285 6.625416,-2.744337 9.195641,-0.1767178 9.664282,9.6544835 C 53.951326,20.978905 54.327263,22 56.666668,22 58.829658,22 59.40046,20.992648 59.688725,16.666666 60.373117,6.3960063 60.9599,5.3333333 65.946714,5.3333333 c 5.518434,0 6.571346,1.4724946 6.655348,9.3074877 0.05587,5.210451 0.470554,6.083499 3.064606,6.451913 2.826748,0.401463 3,-0.03859 3,-7.619754 0,-6.7309288 0.444033,-8.2834625 2.717031,-9.4999338 6.454832,-3.45452127 11.26851,2.100644 9.874632,11.3956938 -0.723916,4.827421 -0.478391,6.091752 1.316753,6.780614 3.12878,1.200626 3.727459,0.153782 4.453135,-7.786705 0.746594,-8.1693988 2.105695,-10.3626491 6.421461,-10.3626491 3.75679,0 5.88365,3.5241628 5.88365,9.7490851 0,4.451964 2.6752,8.464613 4.45602,6.683791 0.48252,-0.482527 0.87732,-3.362643 0.87732,-6.400259 0,-6.8667583 2.41907,-10.4402612 6.65161,-9.8259101 2.13091,0.3093002 3.48492,1.6492775 4.13377,4.0909192 0.53069,1.9970279 2.19702,5.1973519 3.70295,7.1118339 l 2.73806,3.480874 0.63648,-3.111834 c 0.35006,-1.711508 0.99068,-4.782239 1.42358,-6.8238449 0.47395,-2.2350929 2.16106,-4.3380184 4.2403,-5.2853853 5.29469,-2.4124258 8.47325,2.2685884 8.47325,12.4784422 0,5.822884 0.48003,7.852288 1.85735,7.852288 2.42457,0 3.47124,-2.926432 3.4964,-9.775716 0.0248,-6.730233 0.98097,-8.4221852 5.38461,-9.5274293 4.80061,-1.2048777 7.66288,2.5182235 8.17536,10.6341413 0.32017,5.070246 0.97353,6.750209 2.75697,7.088886 3.02362,0.574186 4.43822,-3.199701 2.85498,-7.616501 -1.83931,-5.1311803 -0.80578,-8.9143808 2.8961,-10.6010692 2.76728,-1.2608586 3.7244,-1.0561344 6.0813,1.3007579 2.19106,2.1910639 2.62956,3.8297068 2.02378,7.5627243 -0.72282,4.454186 0.74032,8.267539 3.17216,8.267539 0.57154,0 1.46184,-3.641923 1.97847,-8.093161 0.76839,-6.6204776 1.48939,-8.3437911 3.96225,-9.4705074 6.12826,-2.79221685 10.02694,2.5464257 10.02694,13.7303354 0,3.334122 0.49965,3.833333 3.83674,3.833333 2.1102,0 4.44807,0.75 5.19527,1.666667 0.83339,1.022412 1.21115,9.878398 0.97727,22.910142 -0.31791,17.714138 -0.73876,21.5049 -2.53319,22.817013 -3.41948,2.500381 -21.60588,3.420784 -78.67995,3.981948 -29.31773,0.288259 -54.840484,0.762107 -56.717224,1.052997 -1.87674,0.290891 -10.612255,0.04544 -19.412255,-0.545442 z M 130.66667,62.026956 c 40.51313,-0.55409 63.11987,-2.081852 67.79001,-4.581245 2.59154,-1.38694 2.87666,-2.63518 2.87666,-12.593538 0,-9.951371 -0.31995,-11.35458 -3.20754,-14.067325 -2.61838,-2.45984 -3.7073,-2.745851 -5.92846,-1.557126 -1.49651,0.800908 -10.40312,1.68495 -19.79247,1.964538 -14.04807,0.41831 -17.7368,0.1216 -20.82789,-1.675292 -3.38159,-1.965775 -3.87248,-1.976868 -4.92026,-0.111187 -1.02369,1.822807 -8.6713,2.101133 -63.487532,2.310557 -36.347902,0.138867 -62.841066,0.755538 -63.565109,1.47958 -0.95514,0.95514 -0.156919,26.929053 0.87308,28.409862 0.3617,0.52001 64.211176,1.808148 68.189509,1.3757 2.2,-0.239142 21.100002,-0.668677 42.000002,-0.954524 z"
       id="path251" />
  </g>
</svg>
