<?xml version="1.0" encoding="UTF-8" standalone="no"?>
<!-- Created with Inkscape (http://www.inkscape.org/) -->

<svg
   version="1.1"
   id="svg213"
   width="214.66667"
   height="217.33333"
   viewBox="0 0 214.66667 217.33333"
   xmlns="http://www.w3.org/2000/svg"
   xmlns:svg="http://www.w3.org/2000/svg">
  <defs
     id="defs217" />
  <g
     id="g219">
    <path
       style="fill:#000000;stroke-width:1.33333"
       d="m 171.5234,209.25812 c -2.09546,-0.60727 -4.79546,-1.91466 -6,-2.9053 -1.20453,-0.99065 -3.8504,-2.63221 -5.8797,-3.64793 -7.11514,-3.56131 -12.94986,-14.54941 -12.96959,-24.42468 -0.009,-4.45507 4.02573,-12.73993 8.61656,-17.69352 3.87397,-4.18008 3.49557,-5.27717 -2.71517,-7.87219 -3.74275,-1.56382 -4.5755,-2.62618 -4.5755,-5.83714 0,-2.41235 0.84506,-4.24967 2.1924,-4.7667 4.41019,-1.69234 50.71152,-2.4343 53.65356,-0.85977 4.00338,2.14255 3.49958,5.31737 -1.51262,9.53212 L 198,154.4269 l 3.57942,3.78655 c 8.07878,8.54631 10.48321,26.89933 4.70737,35.93149 -4.22588,6.60836 -9.85464,11.70208 -14.95345,13.53207 -5.81543,2.08717 -15.41886,2.85367 -19.80994,1.58111 z m 16.45003,-10.26019 c 12.60573,-6.33335 14.63476,-24.66476 3.81992,-34.51135 -1.71967,-1.56572 -4.49681,-3.26254 -6.17141,-3.77072 -2.55412,-0.77508 -2.9838,-1.71285 -2.66667,-5.8199 0.36041,-4.6673 0.16975,-4.91592 -4.0822,-5.32324 -2.45313,-0.235 -5.38481,-0.0725 -6.51483,0.36113 -1.82912,0.70191 -1.81518,1.05292 0.12694,3.19893 3.4989,3.86624 2.57933,6.61006 -3.20415,9.56056 -12.60699,6.43162 -15.27559,22.73094 -5.49607,33.56892 4.75598,5.27072 16.49924,6.59886 24.18847,2.73567 z m -154.640096,8.47421 c -9.69653,-2.11166 -12.645062,-3.87844 -17.379115,-10.41361 -8.4725797,-11.69605 -8.4297546,-23.51056 0.124448,-34.33244 2.890067,-3.6562 5.254667,-7.20015 5.254667,-7.87543 0,-0.67528 -2.4,-2.18808 -5.333334,-3.36176 -4.135494,-1.6547 -5.333333,-2.84838 -5.333333,-5.31485 0,-1.74948 0.848551,-3.88511 1.885668,-4.74583 2.345325,-1.94645 46.953285,-2.05712 52.024433,-0.12906 4.338829,1.64961 4.375229,4.68226 0.08991,7.49012 -4.4084,2.88849 -4.207465,6.52976 0.666667,12.08109 4.152479,4.72941 4.472568,6.46739 4.004124,21.74101 -0.254948,8.31255 -2.43988,13.30763 -7.980319,18.24419 -8.121513,7.23629 -16.305404,9.16855 -28.023812,6.61657 z m 21.967258,-12.01253 c 9.514766,-10.08859 9.099381,-23.57311 -0.977706,-31.73895 -3.11092,-2.52089 -6.702573,-4.96908 -7.981451,-5.44042 -1.970281,-0.72618 -2.089869,-1.37356 -0.783412,-4.24092 0.848,-1.86116 1.294355,-3.59687 0.991899,-3.85712 -0.302457,-0.26026 -3.399921,-0.84624 -6.883255,-1.30219 -6.668261,-0.87284 -8.358053,0.67883 -4.116693,3.78019 3.052464,2.23201 1.499521,5.47718 -4.242207,8.86488 -5.985864,3.53174 -9.974433,11.1913 -9.974433,19.15468 0,12.80597 7.127304,19.30702 21.175897,19.31525 7.955383,0.005 8.787946,-0.29053 12.791361,-4.5354 z m 46.032738,12.01253 c -9.696525,-2.11166 -12.645057,-3.87844 -17.37911,-10.41361 -8.47258,-11.69605 -8.429755,-23.51056 0.124448,-34.33244 2.890067,-3.6562 5.254667,-7.20015 5.254667,-7.87543 0,-0.67528 -2.4,-2.18808 -5.333334,-3.36176 -4.135494,-1.6547 -5.333333,-2.84838 -5.333333,-5.31485 0,-1.74948 0.848551,-3.88511 1.885668,-4.74583 2.345325,-1.94645 46.953284,-2.05712 52.024434,-0.12906 4.33883,1.64961 4.37523,4.68226 0.0899,7.49012 -4.4084,2.88849 -4.20747,6.52976 0.66666,12.08109 4.15248,4.72941 4.47258,6.46739 4.00412,21.74101 -0.25494,8.31255 -2.43988,13.30763 -7.98031,18.24419 -8.12152,7.23629 -16.30541,9.16855 -28.02382,6.61657 z m 21.96726,-12.01253 c 9.51477,-10.08859 9.09938,-23.57311 -0.9777,-31.73895 -3.11092,-2.52089 -6.70258,-4.96908 -7.98145,-5.44042 -1.97028,-0.72618 -2.08987,-1.37356 -0.78342,-4.24092 0.848,-1.86116 1.29436,-3.59687 0.9919,-3.85712 -0.30245,-0.26026 -3.39992,-0.84624 -6.88325,-1.30219 -6.66826,-0.87284 -8.358055,0.67883 -4.1167,3.78019 3.05247,2.23201 1.49953,5.47718 -4.242202,8.86488 -5.985864,3.53174 -9.974433,11.1913 -9.974433,19.15468 0,12.80597 7.127304,19.30702 21.175895,19.31525 7.95539,0.005 8.78795,-0.29053 12.79136,-4.5354 z M 12.924285,72.471319 C 9.5726755,71.502983 8.0046028,66.575534 7.9731911,56.913199 7.958446,52.377606 7.396273,44.861877 6.723918,40.211578 5.2600414,30.086776 6.5355705,26.46077 12.877306,22.719054 c 4.075298,-2.404485 4.456028,-3.179786 4.456028,-9.074088 0,-7.5969929 1.62076,-9.6449661 7.633001,-9.6449661 5.051089,0 6.870056,2.9427248 8.241648,13.3333331 0.540214,4.092436 1.427872,6 2.792018,6 1.508621,0 2.100349,-1.954183 2.408441,-7.953883 0.573659,-11.1712611 3.350227,-13.558514 11.46784,-9.8598818 2.887269,1.3155278 3.388036,2.5098606 3.729404,8.8946608 0.566668,10.59872 3.727648,11.045444 3.727648,0.526808 0,-8.2193474 0.976142,-9.9799964 6.247078,-11.2677448 5.353724,-1.3079749 8.246109,2.2467816 8.687268,10.6767018 0.314497,6.0096 0.893098,7.718124 2.732321,8.068147 2.013628,0.383213 2.333334,-0.659043 2.333334,-7.606797 0,-6.5950357 0.466357,-8.3004408 2.579012,-9.431099 6.68552,-3.5779824 11.43787,-0.1291053 10.960898,7.954549 -0.316084,5.356959 1.92901,8.316028 3.922078,5.169359 0.640114,-1.010617 1.173032,-4.066376 1.184261,-6.790575 0.01967,-4.772979 2.535534,-7.7135781 6.599426,-7.7135781 3.51717,0 6.75433,5.4317382 6.75433,11.3333331 0,4.444444 0.51851,6 2,6 1.5262,0 2,-1.674075 2,-7.066667 0,-7.9533832 1.54518,-10.2666661 6.85772,-10.2666661 4.86418,0 7.80894,4.4275954 7.80894,11.7411201 0,7.998124 3.0987,6.721984 4.07968,-1.68014 0.72811,-6.2362517 3.55376,-10.0609801 7.4329,-10.0609801 2.95836,0 5.82076,5.7672033 5.82076,11.7277731 0,4.804348 0.40092,5.725144 2.33333,5.359073 1.59605,-0.302352 2.45379,-1.91312 2.71456,-5.097765 0.66741,-8.1507466 2.85956,-11.9890811 6.8472,-11.9890811 5.3806,0 6.70656,2.1548027 5.83811,9.4874521 -0.62431,5.271337 -0.35355,6.614013 1.47525,7.31579 3.14209,1.205735 3.75475,0.184587 4.49188,-7.486926 0.63897,-6.6499086 3.59953,-10.6496494 7.88276,-10.6496494 2.67191,0 4.99895,5.5374635 5.04283,11.9999994 0.03,4.426336 0.5653,6 2.04074,6 1.38522,0 2.10924,-1.639433 2.35539,-5.333333 0.68184,-10.2322285 1.28163,-11.3333331 6.17343,-11.3333331 6.16654,0 7.86154,2.4864891 6.74961,9.9014001 -0.96513,6.435945 -0.9932,6.400082 6.24387,7.976404 3.12189,0.679985 3.65618,1.639945 4.70012,8.444696 0.6478,4.222625 0.97393,14.139111 0.72474,22.036638 -0.41145,13.039673 -0.72082,14.531972 -3.36678,16.24001 -2.25151,1.453406 -11.85304,2.083544 -42.24704,2.772627 -55.21138,1.251736 -149.527166,1.932171 -152.409055,1.099544 z M 124.66667,63.091836 c 33.57191,-0.522802 69.39237,-2.984764 74.48679,-5.119521 2.22556,-0.932595 2.42748,-2.282625 1.92217,-12.85169 -0.31055,-6.495296 -1.26759,-12.512582 -2.12675,-13.371745 -1.10798,-1.107988 -9.61292,-1.50018 -29.25549,-1.349072 -36.71258,0.282428 -79.038183,1.598969 -82.360055,2.561817 -1.466667,0.425114 -17.366667,0.83266 -35.333334,0.905656 L 19.333334,33.999999 18.99474,46.666666 c -0.186225,6.966667 0.241467,13.566666 0.950428,14.666666 1.067422,1.656174 6.149438,2.057427 29.561526,2.334043 15.549876,0.183724 28.621013,0.682552 29.046969,1.108507 0.425954,0.425956 3.175636,0.342766 6.110401,-0.184866 2.934765,-0.52763 20.935936,-1.202261 40.002606,-1.49918 z"
       id="path390" />
  </g>
</svg>
