<?xml version="1.0" encoding="UTF-8" standalone="no"?>
<!-- Created with Inkscape (http://www.inkscape.org/) -->

<svg
   version="1.1"
   id="svg203"
   width="216"
   height="68"
   viewBox="0 0 216 68"
   xmlns="http://www.w3.org/2000/svg"
   xmlns:svg="http://www.w3.org/2000/svg">
  <defs
     id="defs207" />
  <g
     id="g209">
    <path
       style="fill:#000000;stroke-width:1.33333"
       d="M 128.83384,63.056065 C 128.59757,62.819796 111.0633,62.298709 89.868799,61.898096 43.337752,61.018575 34.503237,60.04366 24.293983,54.66172 14.719907,49.614623 11.604871,47.174896 7.3711983,41.407627 2.953678,35.389915 3.1176845,31.764359 8.0621695,26.132901 15.274531,17.918475 22.045961,16.639393 48.65008,18.466096 c 29.352449,2.015408 28.683253,2.037015 28.683253,-0.926112 0,-4.871523 4.207119,-6.414881 23.999997,-8.8042652 33.66426,-4.0639269 43.53208,-4.2070427 54.8216,-0.7950921 5.41479,1.6364712 13.14507,4.9712213 17.1784,7.4105563 7.33275,4.434802 7.33442,4.435096 20.85364,3.6895 12.5125,-0.690074 13.62535,-0.549392 14.92943,1.887296 2.09349,3.911728 2.26983,27.931766 0.22316,30.397853 -1.24855,1.504401 -4.55389,2.007501 -13.18923,2.007501 -9.3449,0 -12.5276,0.55143 -16.83674,2.917112 -3.26376,1.791778 -10.45719,3.637996 -18.64692,4.785803 -12.70219,1.780235 -30.91669,2.935959 -31.83283,2.019817 z m 41.7868,-14.470336 c 2.59199,-1.689513 9.14391,-3.973686 14.55985,-5.075941 5.41594,-1.102253 10.42663,-2.583576 11.13488,-3.291827 0.70826,-0.708252 0.8946,-3.077637 0.41411,-5.265302 -0.86211,-3.925134 -0.98403,-3.975211 -9.24851,-3.79845 -7.09529,0.151756 -9.1724,-0.371588 -13.5946,-3.42526 -13.15676,-9.085184 -16.12849,-9.73196 -44.55304,-9.696665 -18.79856,0.02335 -26.7386,0.504959 -28.66666,1.738829 -2.295367,1.46893 -1.757843,1.588251 3.86045,0.856959 14.7274,-1.916957 33.34891,-1.748153 37.46564,0.339624 6.49229,3.29254 7.42655,4.3803 6.01977,7.008881 -1.09337,2.042999 -4.02554,2.476508 -21.63864,3.199188 C 115.16825,31.635543 93.4,31.361133 78,30.565967 17.338421,27.433755 23.153368,27.351021 20.510925,31.3839 c -1.714142,2.616112 -1.966041,4.131423 -0.955978,5.750755 1.618358,2.59455 10.369753,9.002644 15.11172,11.065356 4.776608,2.077782 39.383738,3.421446 88.620643,3.440805 42.25558,0.01661 42.66101,-0.0096 47.33333,-3.055087 z"
       id="path529" />
  </g>
</svg>
