<?xml version="1.0" encoding="UTF-8" standalone="no"?>
<!-- Created with Inkscape (http://www.inkscape.org/) -->

<svg
   version="1.1"
   id="svg193"
   width="185.33333"
   height="181.33333"
   viewBox="0 0 185.33333 181.33333"
   xmlns="http://www.w3.org/2000/svg"
   xmlns:svg="http://www.w3.org/2000/svg">
  <defs
     id="defs197" />
  <g
     id="g199">
    <path
       style="fill:#000000;stroke-width:1.33333"
       d="m 165.17397,172.61696 c -1.47184,-3.32735 -4.31983,-7.97735 -6.32887,-10.33334 -2.00904,-2.356 -5.81761,-7.58362 -8.4635,-11.61696 -2.6459,-4.03333 -6.93743,-9.37512 -9.53674,-11.87062 l -4.72602,-4.53731 -17.05942,0.70201 c -11.71689,0.48215 -18.23033,0.20271 -20.798294,-0.89232 -3.256753,-1.38872 -7.816412,-6.74977 -16.501498,-19.40176 -1.258511,-1.83333 -5.019272,-6.34805 -8.357248,-10.03271 C 70.064404,100.94929 65.072644,94.949293 62.30958,91.300618 48.375731,72.900723 39.929699,61.712982 32.666666,52.035168 28.266666,46.172278 20.846922,36.715909 16.178346,31.021017 3.3543466,15.377853 1.4436564,8.866962 8.7059632,5.5580336 13.292561,3.4682397 26.125182,6.5635235 38.835445,12.825394 c 22.250794,10.962136 43.24079,31.805307 83.353365,82.770312 4.50385,5.722364 13.50385,17.060594 20,25.196074 38.53704,48.26199 38.21236,47.80903 37.03241,51.6637 -1.4231,4.64905 -3.29918,6.21118 -7.45946,6.21118 -3.35878,0 -4.28998,-0.85514 -6.58779,-6.0497 z M 124,120.24455 c 0,-3.83828 -0.35072,-4.32417 -31.585211,-43.759233 C 72.699045,51.593236 48.440132,27.753019 36.544966,21.579781 33.375201,19.934768 22.511122,16.048726 21,16.019404 c -2.343927,-0.04548 -0.713894,5.525694 2.666666,9.114213 2.016667,2.140724 6.666667,8.209625 10.333333,13.486446 3.666667,5.276822 9.066667,12.437953 12,15.913624 2.933333,3.475672 8.933333,10.990044 13.333333,16.698605 4.4,5.708561 14.533776,18.565584 22.519503,28.571162 C 89.83856,109.80903 97.257566,119.34644 98.339514,120.99771 100.13568,123.739 101.33656,124 112.15334,124 H 124 Z"
       id="path668" />
  </g>
</svg>
