<?xml version="1.0" encoding="UTF-8" standalone="no"?>
<!-- Created with Inkscape (http://www.inkscape.org/) -->

<svg
   version="1.1"
   id="svg183"
   width="218.66667"
   height="202.66667"
   viewBox="0 0 218.66667 202.66667"
   xmlns="http://www.w3.org/2000/svg"
   xmlns:svg="http://www.w3.org/2000/svg">
  <defs
     id="defs187" />
  <g
     id="g189">
    <path
       style="fill:#000000;stroke-width:1.33333"
       d="m 4.4281458,194.90476 c -0.9688135,-0.96904 -1.7614791,-2.17752 -1.7614791,-2.68549 0,-2.20624 5.272723,-15.07284 7.5742693,-18.48287 1.387005,-2.05502 3.364415,-5.41036 4.394246,-7.4563 3.045852,-6.05115 16.004848,-19.57027 20.518671,-21.40554 3.00639,-1.22237 15.032384,-1.76018 42.846148,-1.91616 21.266667,-0.1192 59.198109,-0.56472 84.292099,-0.98992 49.43566,-0.83766 51.53425,-0.60214 50.78781,5.69979 -0.30647,2.58748 -1.44671,3.77007 -4.41324,4.57715 -2.2,0.59853 -22.3,1.03941 -44.66667,0.97973 -54.58049,-0.14563 -66.722577,-0.03 -98.22215,0.93515 l -26.888817,0.8239 -4.816546,3.9702 c -2.6491,2.18362 -6.06904,6.46218 -7.599865,9.50791 -1.530826,3.04573 -3.566666,6.43769 -4.52409,7.53769 -0.957422,1.1 -2.152561,3.65 -2.655861,5.66667 l -0.915092,3.66667 21.144544,0.23501 C 65.941741,185.86199 122.95225,185.38214 152,184.62164 c 44.94232,-1.17662 60.31007,-0.94101 61.5045,0.94298 1.7812,2.80953 1.36304,4.90118 -1.56528,7.8295 -2.45806,2.45806 -4.20298,2.70252 -17.66667,2.47512 -8.21656,-0.13878 -53.89655,-0.0161 -101.51107,0.27255 -70.51275,0.42752 -86.89861,0.19804 -88.3333342,-1.23703 z M 73.666668,55.66402 c -3.941392,-1.845698 -3.893852,-7.602223 0.17722,-21.459142 2.837411,-9.657838 3.695167,-11.015458 11.16196,-17.666667 4.448595,-3.962683 9.006748,-7.2048775 10.129231,-7.2048775 1.122482,0 2.36282,-0.5209152 2.756306,-1.1575892 1.085213,-1.7559102 13.777835,-3.3945441 22.775285,-2.9403182 13.93696,0.7035911 26.41317,9.6695239 32.60492,23.4312409 8.91264,19.809187 9.28296,21.254814 6.39508,24.964757 -1.44484,1.856125 -7.07932,2.227373 -42.33333,2.789277 -27.039635,0.430977 -41.671946,0.17742 -43.666672,-0.756681 z M 145.74939,43.824326 C 148.66332,39.201518 138.88783,24.56782 129.16642,19 123.08584,15.517418 116.28193,15.231619 104.78992,17.976063 92.202253,20.982166 82.702779,32.027685 82.674104,43.691241 l -0.0074,3.024574 30.855656,-0.357908 c 26.83454,-0.311264 31.03438,-0.641441 32.22707,-2.533581 z"
       id="path807" />
  </g>
</svg>
