<?xml version="1.0" encoding="UTF-8" standalone="no"?>
<!-- Created with Inkscape (http://www.inkscape.org/) -->

<svg
   version="1.1"
   id="svg485"
   width="217.33333"
   height="217.33333"
   viewBox="0 0 217.33333 217.33333"
   xmlns="http://www.w3.org/2000/svg"
   xmlns:svg="http://www.w3.org/2000/svg">
  <defs
     id="defs489" />
  <g
     id="g491">
    <path
       style="fill:#000000;stroke-width:1.33333"
       d="m 175.19798,211.18296 c -8.89005,-3.1535 -21.05509,-15.86858 -26.8463,-28.06018 -7.97064,-16.77973 -7.50494,-33.24757 1.07001,-37.83674 3.82735,-2.04832 26.7452,-1.99342 30.71105,0.0736 5.77031,3.00748 16.4441,12.3885 21.13326,18.57369 6.29402,8.30205 11.1751,20.73383 10.91674,27.80421 -0.27076,7.41006 -5.60342,17.93339 -10.13368,19.99751 -4.3684,1.99037 -9.38926,2.04523 -12.94653,0.14144 -1.96864,-1.05359 -3.12543,-1.05359 -4.17901,0 -1.80938,1.80937 -2.88599,1.7326 -9.72554,-0.69352 z m 19.40618,-6.48398 c 6.14422,-3.1773 9.62968,-10.03557 8.59526,-16.91278 C 202.3321,182.01986 194.33784,168 191.91714,168 c -0.7005,0 -4.72426,-3.17227 -8.9417,-7.04947 -6.22306,-5.72103 -9.12246,-7.37495 -15.38594,-8.77665 -8.78782,-1.96663 -10.77053,-1.12124 -13.67696,5.83162 -2.81668,6.73814 -0.12,15.4126 9.74486,31.34566 1.5952,2.57646 6.01841,7.07646 9.82937,10 9.84304,7.55097 14.55128,8.74329 21.11739,5.34782 z M 12.539208,202.24876 C 8.5955107,200.04174 5.4261063,195.61544 5.3776923,192.24717 5.3378446,189.47488 7.6415904,182.9352 12.745058,171.33333 15.128906,165.91405 24.681561,156.94389 32,153.25249 c 14.101979,-7.113 36.844091,-2.29252 47.744292,10.12 5.012484,5.70793 15.012692,27.11821 14.928113,31.96084 -0.107466,6.15311 -0.34615,6.19513 -38.821455,6.835 -20.084689,0.33403 -37.482397,0.80435 -38.661573,1.04515 -1.179176,0.2408 -3.271752,-0.19332 -4.650169,-0.96472 z M 80.94528,190.16582 c 1.960113,-1.9601 -2.879852,-11.9421 -9.079349,-18.72534 -7.415005,-8.1132 -12.017057,-10.08748 -23.542368,-10.09971 -5.118912,-0.005 -8.844996,0.98163 -13.813309,3.65923 -8.995816,4.84816 -17.176921,15.4576 -17.176921,22.2754 v 3.3116 l 17,0.50281 c 21.311813,0.63035 45.537846,0.15012 46.611947,-0.92399 z M 10.913834,80.435797 C 7.1351755,78.893439 6.6114443,73.498852 9.2988535,63.801011 11.949803,54.234741 13.487674,51.37813 17.666666,48.257727 21.132417,45.669893 20.567616,43.901741 14.614598,38.703023 9.9815901,34.657058 9.020498,32.852879 7.7353905,25.789262 5.4198309,13.061745 9.3652245,6.3803346 17.927444,8.5293147 c 3.317149,0.8325514 5.427676,5.0996703 6.567517,13.2783793 0.394068,2.827564 1.603277,6.494438 2.687129,8.148607 2.610739,3.984489 9.249229,5.245294 14.183365,2.693754 5.265396,-2.722842 22.424596,-7.989583 35.30121,-10.835142 C 89.713927,18.931645 130.16765,17.935618 146,20.10783 c 5.86666,0.804912 16.18582,3.21112 22.93146,5.347128 10.41883,3.299122 12.79188,3.643504 15.76667,2.2881 4.31632,-1.966649 6.74944,-6.48218 8.00528,-14.85666 0.78151,-5.2114465 1.6004,-6.6547096 4.37421,-7.7093105 4.43682,-1.6868766 10.7062,0.818254 11.65811,4.6583645 1.09269,4.408105 -4.33993,18.295898 -9.06333,23.16921 l -4.26239,4.397675 5.49464,5.0226 c 5.0458,4.61232 9.76201,14.800158 9.76201,21.087659 0,5.659414 -5.87096,11.15407 -11.91796,11.15407 -2.31758,0 -6.73676,-8.084839 -6.75614,-12.360315 -0.004,-0.901827 -0.64042,-3.919099 -1.41406,-6.705049 -2.06288,-7.428659 -5.83737,-8.673311 -14.04612,-4.631764 C 166.26986,56.022246 148.27346,60.655466 128,63.464322 105.38914,66.597019 58.961807,65.359938 54.147691,61.496487 53.333127,60.842779 50.758125,59.900075 48.425463,59.401591 46.092802,58.903107 43.469335,57.633823 42.595537,56.58096 c -0.873798,-1.052861 -3.810668,-1.914294 -6.526379,-1.914294 -7.424802,0 -11.262818,4.720306 -11.548657,14.203482 -0.1278,4.240064 -0.998901,8.1428 -2.0385,9.132977 -2.115616,2.015039 -9.029393,3.468938 -11.568167,2.432672 z M 133.33333,49.840735 c 8.55697,-0.812652 27.47464,-6.263165 29.93333,-8.624321 0.69667,-0.669028 2.39667,-1.216415 3.77778,-1.216415 1.38818,0 2.26778,-0.729982 1.96698,-1.632394 -0.63665,-1.909954 -6.95976,-3.706115 -16.34476,-4.64294 -3.66666,-0.366014 -7.26666,-1.112551 -8,-1.658973 -0.73333,-0.546422 -12.13333,-0.932812 -25.33333,-0.858646 -24.726539,0.138931 -51.997244,3.230588 -59.999998,6.802149 -2.2,0.981842 -5.649999,2.19648 -7.666666,2.699196 -4.427903,1.103791 -4.815241,4.034522 -0.666667,5.044228 1.65,0.401587 5.7,1.432204 9,2.290262 3.3,0.858056 9,2.032549 12.666667,2.609985 7.02679,1.106595 45.949584,0.585544 60.666664,-0.812131 z"
       id="path513" />
  </g>
</svg>
