<?xml version="1.0" encoding="UTF-8" standalone="no"?>
<!-- Created with Inkscape (http://www.inkscape.org/) -->

<svg
   version="1.1"
   id="svg173"
   width="217.33333"
   height="208"
   viewBox="0 0 217.33333 208"
   xmlns="http://www.w3.org/2000/svg"
   xmlns:svg="http://www.w3.org/2000/svg">
  <defs
     id="defs177" />
  <g
     id="g179">
    <path
       style="fill:#000000;stroke-width:1.33333"
       d="m 186.66666,202.59823 c -8.20122,-1.16038 -12.21292,-2.98392 -19.85669,-9.02596 -9.67264,-7.64579 -13.91396,-13.18098 -18.0622,-23.57227 -2.04924,-5.13333 -4.35581,-10.68075 -5.12572,-12.32757 -0.76991,-1.64683 -1.39983,-5.7151 -1.39983,-9.04058 0,-5.05946 0.74356,-6.82737 4.55555,-10.83142 5.11972,-5.37766 11.29359,-8.4671 16.92048,-8.4671 5.28813,0 22.89111,6.66296 28.18043,10.66667 12.6569,9.58053 19.47072,21.04127 20.92,35.18719 1.17442,11.46302 -1.47551,18.85208 -8.35683,23.30208 -6.47377,4.18645 -10.55676,5.13029 -17.77519,4.10896 z m 10.72796,-12.93156 c 2.92108,-2.61022 4.31919,-5.27616 4.85246,-9.2528 1.02909,-7.67406 -0.0184,-10.88788 -5.71978,-17.54864 -2.69753,-3.15146 -5.27824,-7.5568 -5.7349,-9.78967 -0.69732,-3.40947 -2.42904,-4.89579 -10.81136,-9.27936 -11.82603,-6.18445 -18.0138,-6.30828 -23.42568,-0.46877 -2.74848,2.96566 -3.15294,4.3803 -2.4161,8.45058 2.63346,14.54695 12.85411,30.43895 24.20648,37.6384 7.93675,5.03335 13.61268,5.10791 19.04888,0.25026 z m -182.226939,2.24162 c -5.1949925,-1.53514 -6.7049331,-3.33109 -7.7698855,-9.24162 -1.0947844,-6.07611 5.9410385,-20.74942 14.1490305,-29.508 8.354318,-8.91474 15.549336,-12.16286 28.520919,-12.87548 9.930521,-0.54555 11.32845,-0.28616 18.666666,3.46361 10.982516,5.61199 17.913938,13.06383 23.179514,24.91987 3.238648,7.29217 4.894704,19.01868 3.062607,21.68625 -1.431007,2.08359 -73.282707,3.48388 -79.808851,1.55537 z m 57.832318,-14.50932 c 2.850029,-3.43294 4.333333,-6.64525 4.333333,-9.38445 0,-4.77372 -5.770993,-10.95623 -13.162832,-14.10141 -6.095254,-2.59351 -20.611395,-2.46171 -26.302329,0.23881 -3.822482,1.81389 -4.534838,2.85127 -4.534838,6.60393 0,5.1185 -2.417784,11.17538 -4.547353,11.39174 -0.798956,0.0812 -2.802647,0.0383 -4.452647,-0.0955 -2.489752,-0.20168 -3,0.4278 -3,3.70101 0,3.62799 0.454087,4.00695 5.666667,4.7292 3.116666,0.43184 11.605617,0.78891 18.864334,0.7935 7.258717,0.004 13.508717,0.3194 13.888889,0.69956 0.380171,0.38017 2.54122,0.68041 4.802332,0.66718 3.139063,-0.0184 5.135703,-1.25817 8.444444,-5.24365 z M 85.222221,67.46866 C 84.916665,67.176423 71.466666,66.581483 55.333332,66.146571 27.138469,65.386511 16.890313,64.044373 9.6357208,60.161833 5.8590482,58.140619 3.869827,54.368003 5.3326991,52.001027 5.9633463,50.980617 6.145492,47.326995 5.7374674,43.881865 5.2439579,39.714949 5.7988168,35.064372 7.3949002,29.990008 9.2771396,24.005879 9.4553705,21.892008 8.2219448,20.181012 5.1850131,15.968209 4.9884635,14.440113 7.1992475,12.229945 9.0865567,10.343161 12.382341,10.013549 28.616065,10.088043 c 22.871421,0.104954 24.371758,0.72251 21.17367,8.715318 -1.598874,3.995984 -1.765634,6.103032 -0.703124,8.884166 0.766068,2.005193 1.780114,7.111552 2.253434,11.347464 1.28788,11.525697 2.556689,12.057158 31.226446,13.079682 21.356839,0.761706 43.025499,-0.51882 59.403909,-3.510518 2.21628,-0.404827 11.08372,-0.910499 19.70542,-1.123714 8.62172,-0.213214 15.86774,-0.633538 16.10228,-0.934052 0.23454,-0.300514 1.2035,-7.128549 2.15323,-15.173412 2.43593,-20.633802 2.01777,-20.066683 14.77633,-20.040114 15.5555,0.03239 15.99758,0.665871 16.34911,23.427621 0.15211,9.8484 -0.16581,19.480229 -0.70648,21.404064 -1.59223,5.665495 -6.09641,6.57426 -29.01696,5.854457 -16.66261,-0.523278 -22.02067,-0.230416 -27.65527,1.511588 -5.52077,1.706811 -8.39829,1.88188 -13.70034,0.833532 -4.31628,-0.853434 -8.7222,-0.875069 -12.34473,-0.06061 -10.30224,2.316243 -40.909981,4.600524 -42.410769,3.165152 z M 201.07532,40 c 0.55074,-13.476959 -0.49336,-18.666667 -3.7555,-18.666667 -1.40764,0 -3.25384,1.297683 -4.10266,2.88374 -1.53678,2.87148 -2.83728,23.477548 -1.61095,25.524739 0.35423,0.591329 2.53775,0.891329 4.85225,0.666667 L 200.66666,50 Z M 29.583096,44 c 7.467434,0 10.366851,-6.943623 5.253278,-12.580732 -1.373328,-1.513931 -3.073328,-4.552601 -3.777778,-6.752601 -1.529792,-4.777544 -4.393604,-5.175876 -6.521807,-0.907127 -0.84808,1.701081 -2.746272,3.936404 -4.218204,4.967385 -3.452229,2.418036 -4.979532,10.458458 -2.927603,15.412252 1.469079,3.54667 1.764223,3.669847 4.388683,1.831604 C 23.327192,44.886852 26.838736,44 29.583096,44 Z"
       id="path946" />
  </g>
</svg>
