<?xml version="1.0" encoding="UTF-8" standalone="no"?>
<!-- Created with Inkscape (http://www.inkscape.org/) -->

<svg
   version="1.1"
   id="svg83"
   width="220"
   height="208"
   viewBox="0 0 220 208"
   xmlns="http://www.w3.org/2000/svg"
   xmlns:svg="http://www.w3.org/2000/svg">
  <defs
     id="defs87" />
  <g
     id="g89">
    <path
       style="fill:#000000;stroke-width:1.33333"
       d="m 89.673076,202.94619 c -10.6289,-0.37432 -11.060151,-0.51587 -13,-4.26712 -2.760993,-5.33918 -2.512095,-11.00991 0.660257,-15.0429 C 78.8,181.77161 80,179.27877 80,178.09653 c 0,-3.221 5.654309,-11.39465 12.195352,-17.62914 6.319529,-6.02336 13.012468,-8.34012 27.154688,-9.39963 15.06344,-1.12852 28.68789,6.50247 38.79441,21.72859 5.23722,7.89018 7.18888,13.54542 7.18888,20.83078 0,8.22235 -1.79622,8.69172 -35.33333,9.23288 -16.13333,0.26032 -34.280449,0.29911 -40.326924,0.0861 z m 57.616674,-13.8356 c 3.65176,-1.66386 3.6516,-3.06638 -0.001,-11.18326 -4.02389,-8.94126 -14.07524,-15.93046 -25.07908,-17.4387 -11.11517,-1.52351 -27.799581,9.50293 -31.543258,20.84638 -3.103739,9.40443 -3.310871,9.33166 26.562638,9.33166 17.46689,0 27.82225,-0.53604 30.061,-1.55608 z M 164.65807,76.312857 c -3.65382,-0.564362 -8.77134,-8.409664 -10.09003,-15.468285 -0.76073,-4.072007 -0.48229,-7.977871 0.92673,-12.999456 1.10783,-3.948148 2.12471,-8.078449 2.25972,-9.178449 C 157.96821,36.92564 151.78463,36.632508 110,36.402861 83.6,36.257769 58.904249,35.75352 55.120555,35.282308 c -5.935299,-0.739168 -7.273891,-0.462305 -9.75353,2.017333 -3.52559,3.525591 -8.912808,2.77956 -16.355157,-2.264888 -7.800217,-5.287014 -8.773139,-3.737829 -12.095203,19.259223 -1.009781,6.990224 -2.498452,12.028023 -4.109591,13.907228 l -2.526259,2.946587 -2.6220454,-3.23809 C 5.2837125,64.976631 5.1243033,63.41542 5.9664721,51.335807 7.0000895,36.510159 8.7533837,31.588321 16.245128,22.481627 c 2.798513,-3.401774 5.088205,-6.82648 5.088205,-7.610463 0,-1.765992 10.004283,-7.6947968 15.10273,-8.9502792 2.273854,-0.5599323 5.04439,-0.2458496 6.982922,0.7916212 2.489512,1.3323467 4.343886,1.3819985 8.230604,0.2203789 6.363312,-1.901796 119.812051,-0.7920944 132.054371,1.2916931 12.16969,2.071423 16.93864,5.965367 28.30149,23.108755 5.19167,7.832788 2.95404,30.892962 -3.93669,40.570103 C 205.44329,75.590563 204.44853,76 198.11585,76 c -5.34256,0 -7.61669,-0.641784 -9.44918,-2.666667 -2.92654,-3.233788 -5.66127,-3.386516 -8.85678,-0.494628 -2.54185,2.300352 -10.67614,4.165459 -15.15182,3.474152 z m 13.18774,-14.81859 c 3.57828,-3.734918 3.66347,-4.178015 3.13994,-16.333334 -0.29596,-6.871846 -1.00438,-13.82727 -1.57423,-15.456497 -0.84265,-2.409125 -0.38652,-3.258204 2.44285,-4.547353 11.79215,-5.372864 -6.84602,-7.481495 -75.1877,-8.506362 -41.004798,-0.614916 -46.542961,-0.448529 -51.000003,1.532226 -5.652826,2.512173 -6.435832,4.364822 -2,4.73214 22.226716,1.840525 98.715143,2.481696 105.933083,0.887993 5.90302,-1.303375 7.42322,-1.209648 10.2322,0.630868 4.7329,3.10112 5.37473,6.613771 2.30713,12.626763 -1.46253,2.866802 -3.3588,9.230022 -4.21392,14.140489 -1.39328,8.000847 -1.31019,9.198364 0.80003,11.530127 3.17273,3.505833 4.78633,3.286976 9.12062,-1.23706 z m 23.29282,-1.926332 c 0.80584,-0.97097 1.42588,-5.960418 1.37788,-11.087663 -0.0699,-7.459785 -0.79612,-10.628348 -3.63523,-15.859611 -3.44813,-6.353441 -9.75171,-11.528017 -11.6864,-9.593324 -0.52597,0.525974 -0.0512,2.009992 1.05507,3.297822 3.26997,3.806665 4.04246,7.02383 4.72425,19.674841 0.35569,6.6 1.25547,12.75 1.99951,13.666667 1.75552,2.162806 4.32213,2.121702 6.16492,-0.09873 z M 39.733333,23.733333 c 2.845906,-2.845905 1.793967,-5.066666 -2.4,-5.066666 -2.989898,0 -4,0.617284 -4,2.444444 0,4.282328 3.362291,5.659932 6.4,2.622222 z"
       id="path1085" />
  </g>
</svg>
