<?xml version="1.0" encoding="UTF-8" standalone="no"?>
<!-- Created with Inkscape (http://www.inkscape.org/) -->

<svg
   version="1.1"
   id="svg205"
   width="212"
   height="197.33333"
   viewBox="0 0 212 197.33333"
   xmlns="http://www.w3.org/2000/svg"
   xmlns:svg="http://www.w3.org/2000/svg">
  <defs
     id="defs209" />
  <g
     id="g211">
    <path
       style="fill:#000000;stroke-width:1.33333"
       d="m 46.621101,190.44402 c -3.958092,-2.40705 -6.369062,-5.97262 -7.893913,-11.67425 -0.885688,-3.31171 -1.181344,-3.3884 -13.483033,-3.49731 -12.824803,-0.11346 -21.250441,-2.61542 -21.2391709,-6.3067 0.00831,-2.71884 5.0071542,-10.03338 7.9236679,-11.59424 3.915033,-2.09527 3.380341,-6.0659 -1.261985,-9.37152 -7.9635637,-5.67056 -3.4206685,-15.15025 6.113604,-12.7573 2.003969,0.50296 5.697157,2.96806 8.207082,5.47799 l 4.563503,4.56349 5.278719,-4.24209 c 5.718306,-4.59536 12.57801,-5.63351 16.379161,-2.47884 2.966965,2.46237 2.820033,10.63029 -0.208736,11.60357 -11.516104,3.70063 -12.007001,5.0591 -4.333333,11.99179 4.046562,3.65583 5.337725,5.82643 5.35154,8.99653 0.03155,7.23939 1.371601,10.17819 4.641136,10.17819 4.443074,0 11.970105,-3.46764 16.957688,-7.81225 6.745076,-5.87556 12.036176,-8.07363 23.158233,-9.62056 11.636056,-1.61843 19.721636,-0.29116 30.196476,4.95685 17.50887,8.77213 33.65145,12.70369 55.02826,13.40227 17.78969,0.58134 24.66667,2.0324 24.66667,5.20472 0,4.4876 -5.46428,5.5691 -26,5.14601 -29.80107,-0.61397 -106.390122,-0.81068 -119.130665,-0.30596 -8.757713,0.34695 -11.937425,-0.0497 -14.914904,-1.86039 z m 70.712229,-11.11069 c 0,-1.53844 -1.92319,-2.05628 -8.33333,-2.24385 -9.958352,-0.2914 -15.938297,0.0711 -16.891011,1.02376 -1.817824,1.81781 4.24294,3.18114 14.224341,3.19968 8.89797,0.0165 11,-0.36178 11,-1.97959 z M 82.900907,55.088344 C 77.281441,53.174514 76.04114,51.411068 76.039821,45.333333 76.037608,35.133143 83.562387,21.03457 92.748176,14.028226 102.66954,6.460833 121.7535,4.6286058 137.33333,9.7476606 c 5.51564,1.8122694 15.00443,8.6270514 18.88984,13.5665494 6.9548,8.841589 10.33763,27.326505 5.4435,29.745018 -1.28334,0.634179 -6.7357,1.252235 -12.11635,1.373459 -5.38065,0.121227 -10.48065,0.673461 -11.33333,1.227193 -2.58695,1.679976 -50.148003,1.188567 -55.316083,-0.571536 z M 144,44.20147 l 7.33333,-0.868137 -0.29772,-5.036794 c -0.36437,-6.164081 -7.73165,-15.627151 -15.94582,-20.481941 -4.60992,-2.724584 -7.32717,-3.29608 -15.67168,-3.29608 -9.95709,0 -10.20386,0.08392 -18.08979,6.152004 -6.210267,4.778692 -8.005533,6.953116 -8.042233,9.74074 -0.02599,1.973805 -0.904726,5.088737 -1.952754,6.922071 -1.048028,1.833333 -1.926766,4.383333 -1.952753,5.666666 -0.04336,2.141203 1.901504,2.322476 23.61942,2.201471 13.01667,-0.07252 26.96667,-0.522524 31,-1 z"
       id="path233" />
  </g>
</svg>
