<?xml version="1.0" encoding="UTF-8" standalone="no"?>
<!-- Created with Inkscape (http://www.inkscape.org/) -->

<svg
   version="1.1"
   id="svg185"
   width="214.66667"
   height="216"
   viewBox="0 0 214.66667 216"
   xmlns="http://www.w3.org/2000/svg"
   xmlns:svg="http://www.w3.org/2000/svg">
  <defs
     id="defs189" />
  <g
     id="g191">
    <path
       style="fill:#000000;stroke-width:1.33333"
       d="M 87.472796,209.69501 C 87.032131,209.25435 73.92048,209.0184 58.335794,209.17067 26.66398,209.48012 10.49502,208.47676 7.0954676,205.99095 5.4611733,204.79592 4.6538057,201.81324 4.2506035,195.48107 c -0.6020494,-9.45502 1.2263051,-16.08384 4.992105,-18.09923 1.2156695,-0.65061 9.3833795,-0.97993 18.1504665,-0.73181 49.340432,1.39633 60.606826,1.25405 60.606826,-0.76539 0,-0.79679 -1.925785,-4.13031 -4.279524,-7.40783 -4.80394,-6.68937 -4.181684,-10.14846 1.958444,-10.88692 2.84379,-0.342 4.226599,0.82023 8.328502,7 2.7052,4.07556 5.215565,7.41011 5.578589,7.41011 0.363026,0 2.185598,-1.2 4.050158,-2.66667 1.86457,-1.46666 4.72829,-2.66666 6.36383,-2.66666 1.63554,0 4.49926,1.2 6.36383,2.66666 C 118.22839,170.8 120.26571,172 120.8912,172 c 0.62549,0 3.77051,-3.3 6.98894,-7.33333 4.57279,-5.73063 6.6627,-7.33334 9.56258,-7.33334 2.5161,0 3.97828,0.84239 4.5413,2.61631 1.02396,3.22619 -0.53035,6.2186 -5.86927,11.29981 -2.26311,2.15387 -4.11475,4.44468 -4.11475,5.09071 0,0.66373 16.16127,0.90903 37.15884,0.56401 20.43736,-0.33581 37.85814,-0.17838 38.71282,0.34984 0.85469,0.52823 1.89816,4.51216 2.31884,8.8532 0.42068,4.34103 1.21194,8.79279 1.75837,9.89279 0.54643,1.1 0.46627,3.94245 -0.17813,6.31656 -2.15076,7.92396 -2.49842,7.96653 -65.96707,8.07833 -31.64132,0.0557 -57.89021,-0.25921 -58.330874,-0.69988 z m 33.605434,-8.84034 c 86.09339,-0.30894 81.52295,0.12586 81.56803,-7.76014 0.0375,-6.56328 -5.64848,-6.91128 -99.97959,-6.11889 -2.56667,0.0216 -22.905187,-0.13423 -45.196712,-0.3462 -38.142148,-0.36268 -40.636286,-0.24009 -42.333334,2.08076 -0.991809,1.35637 -1.80329,3.75848 -1.80329,5.33799 0,6.20442 7.663145,8.87101 22,7.65546 3.666667,-0.31088 42.251869,-0.69293 85.744896,-0.84898 z M 89.333335,124 c -6.233334,-0.36667 -12.083334,-1.15208 -13,-1.74536 -2.720406,-1.76068 -1.904083,-10.58796 1.636133,-17.69224 2.255417,-4.52604 5.856111,-8.583175 11.354384,-12.793733 7.316356,-5.602839 9.083872,-6.312408 19.356268,-7.770576 14.99727,-2.128864 21.45568,0.02667 31.99706,10.6792 8.65565,8.746909 12.55393,18.929709 9.82192,25.656039 -1.4563,3.58546 -1.75887,3.67389 -13.66086,3.99283 -19.03459,0.51007 -35.17261,0.39927 -47.504905,-0.32616 z m 49.098325,-11.33415 c 0.97522,-0.94448 -3.83451,-8.27806 -7.98457,-12.17436 -7.0645,-6.632546 -13.12889,-7.968941 -22.95062,-5.057575 -13.231142,3.921988 -20.829802,9.677075 -20.829802,15.776115 0,1.73385 3.049339,2.12246 19.666662,2.50636 18.05032,0.41699 31.02135,-0.007 32.09833,-1.05054 z M 99.431046,70.578795 C 93.188077,69.624113 90.248361,68.289667 85.431045,64.223669 76.439123,56.634145 73.377592,50.482573 73.375344,40 73.372257,25.612373 77.927856,16.570669 89.070724,8.8486564 94.042445,5.4032504 95.651052,5.0444689 106.9339,4.8644743 c 10.3952,-0.1658342 13.26151,0.2661365 17.73277,2.672435 20.23996,10.8925497 23.4388,39.2447077 6.30521,55.8846427 -7.02836,6.825853 -17.76934,9.263195 -31.540834,7.157243 z M 113.91612,55.877889 c -2.15386,-2.26716 -6.31612,-5.345225 -9.24945,-6.840144 -2.93334,-1.494918 -5.81315,-3.539969 -6.399588,-4.544556 -0.58644,-1.004588 -1.704918,-1.826522 -2.485507,-1.826522 -0.78059,0 -3.690958,-2.55 -6.467483,-5.666667 -2.776525,-3.116667 -5.524843,-5.199872 -6.107371,-4.629344 -1.144368,1.120791 8.570583,11.513161 10.830292,11.585485 0.753691,0.02412 2.331212,1.093859 3.505605,2.377192 1.17439,1.283334 4.118992,3.833334 6.543552,5.666667 2.42456,1.833333 5.64704,4.363372 7.16106,5.622308 4.85809,4.039579 6.89749,2.706603 2.66889,-1.744419 z M 90.000001,52.696893 c -6.875921,-5.926317 -8.438109,-5.939014 -3.723509,-0.03026 2.047931,2.566644 4.923509,4.657719 6.390176,4.646831 2.159205,-0.01603 1.651744,-0.894552 -2.666667,-4.616566 z m 35.333339,-3.260316 c 0,-0.676548 -3.60454,-3.826548 -8.01009,-7 -4.40554,-3.17345 -12.24242,-8.983034 -17.415278,-12.910185 -9.378785,-7.120224 -14.971164,-8.501052 -7.085635,-1.749532 14.986683,12.831459 18.954643,15.940812 24.403763,19.123132 6.73881,3.935501 8.10724,4.363655 8.10724,2.536585 z m -3.03394,-16.43762 c -2.76867,-2.38276 -6.36867,-5.356861 -8,-6.609114 -1.63134,-1.252255 -4.85268,-3.802255 -7.15854,-5.666667 -6.31106,-5.102835 -7.261529,-4.012472 -1.14086,1.308777 2.93334,2.55021 5.93334,5.093011 6.66667,5.650667 0.73333,0.557657 3.72004,2.9572 6.63712,5.332317 6.92055,5.63477 9.54527,5.620767 2.99561,-0.01597 z m 8.36727,-8.737401 c 0,-1.752491 -8.33718,-9.130393 -12.93379,-11.445619 -6.81562,-3.4329029 -7.9393,-2.51035 -3.06621,2.517396 C 117.15438,17.9 119.87909,20 120.72157,20 c 0.84249,0 2.61778,1.2 3.9451,2.666667 2.41169,2.664892 6,3.618717 6,1.594889 z"
       id="path511" />
  </g>
</svg>
