<?xml version="1.0" encoding="UTF-8" standalone="no"?>
<!-- Created with Inkscape (http://www.inkscape.org/) -->

<svg
   version="1.1"
   id="svg75"
   width="217.33333"
   height="216"
   viewBox="0 0 217.33333 216"
   xmlns="http://www.w3.org/2000/svg"
   xmlns:svg="http://www.w3.org/2000/svg">
  <defs
     id="defs79" />
  <g
     id="g81">
    <path
       style="fill:#000000;stroke-width:1.33333"
       d="M 92.105467,207 C 91.373609,204.25 90.837544,198.1 90.914211,193.33333 91.074364,183.37591 89.682663,146.94024 88.877084,140 88.579163,137.43333 87.872435,118.33011 87.306577,97.548404 L 86.277748,59.763473 82.80554,60.725545 c -3.768404,1.04414 -8.887428,1.336228 -43.937097,2.507012 -12.722355,0.424972 -23.62893,1.080071 -24.236834,1.455776 -0.607904,0.375706 -2.798703,-0.773468 -4.8684439,-2.553718 -3.7601987,-3.234267 -3.7631652,-3.25013 -3.7631652,-20.123607 0,-19.362541 0.6946255,-20.677675 10.9215061,-20.677675 5.445668,0 5.74516,-0.200817 5.74516,-3.852288 0,-2.118758 1.129516,-5.247182 2.510036,-6.952052 2.194366,-2.7099251 2.938324,-2.9046235 5.915515,-1.5481246 2.637346,1.2016556 3.49972,2.6945576 3.823296,6.6187186 l 0.41782,5.06708 7,0.403013 7,0.403012 0.02042,-5.736345 c 0.02383,-6.6938959 0.901856,-8.3646947 4.930559,-9.3823218 3.710199,-0.9371749 5.912975,1.6104795 6.959557,8.0491798 0.799368,4.917814 0.817964,4.930128 7.445417,4.930128 h 6.644049 l 0.666667,-6.655091 C 76.452895,8.15714 77.316245,5.9001964 78.692455,5.6397039 82.004272,5.0128347 85.496035,8.4820988 86.50154,13.398473 87.420895,17.893615 87.594257,18 93.999999,18 c 6.348021,0 6.586081,-0.140487 7.457441,-4.400995 1.11919,-5.4721962 1.5824,-5.9323383 5.97197,-5.9323383 3.91711,0 5.57206,1.804717 6.787,7.4011903 0.74754,3.443454 1.23834,3.703255 6.29716,3.333334 5.4428,-0.398 5.48652,-0.443602 5.49828,-5.734524 C 126.0257,6.4307571 127.27011,4 130.44868,4 c 3.9795,0 7.87825,3.7710296 8.76044,8.473442 0.69214,3.689499 1.59428,4.687238 4.82173,5.33273 5.23277,1.046552 10.63581,-1.090837 10.63581,-4.207419 0,-1.356987 1.38867,-3.7718374 3.08594,-5.3663343 5.50761,-5.1741268 11.58073,-3.0718224 11.58073,4.0088453 0,2.801205 0.78196,3.904189 3.19772,4.510507 6.06453,1.522102 9.04617,0.189906 10.63511,-4.751771 2.04574,-6.3623829 6.30366,-6.8965689 11.40896,-1.431333 2.9801,3.190206 4.96489,4.102522 8.95982,4.118417 2.82244,0.0112 5.99603,0.567287 7.05242,1.235684 3.7656,2.382588 5.5801,36.181761 2.19121,40.816339 -1.70947,2.33784 -3.69616,2.590845 -21,2.67435 -35.95799,0.17353 -43.20581,0.540412 -45.62523,2.309538 -2.12806,1.556074 -2.21956,2.750898 -0.94446,12.333333 1.40929,10.590919 3.50909,53.752482 3.39082,69.698962 -0.0676,9.11942 -1.25264,10.85492 -7.43645,10.89096 -6.69323,0.0391 -6.78993,-0.6538 -6.79293,-48.65953 -0.003,-41.101391 -0.19024,-44.819975 -2.31948,-45.959508 -2.74068,-1.466771 -30.40348,0.458764 -32.185036,2.240316 -0.65137,0.651369 -1.285742,4.157645 -1.409715,7.791724 -0.30522,8.947059 2.458291,56.931798 4.181561,72.607418 0.76587,6.96666 1.35162,15.06666 1.30167,18 -0.05,2.93333 0.46527,14.93333 1.14494,26.66666 0.81041,13.99031 0.78029,21.90702 -0.0875,23 C 104.26895,211.25 101.37007,212 98.554798,212 c -4.789471,0 -5.204262,-0.32157 -6.449331,-5 z M 70.624066,53.356132 c 1.346814,-0.720793 8.05737,-1.356469 14.912343,-1.412611 23.361611,-0.191333 67.117751,-2.590046 71.788881,-3.93547 2.56224,-0.738002 13.52149,-1.41399 24.35389,-1.502198 10.8324,-0.08821 19.97106,-0.606602 20.30812,-1.151988 0.33707,-0.545386 0.23551,-5.032457 -0.22568,-9.97127 l -0.83853,-8.979659 -10.79488,0.840927 c -5.93719,0.462509 -13.79488,0.709566 -17.46155,0.549017 C 169,27.632329 158.5,27.612657 149.33333,27.74916 c -9.16667,0.136507 -26.56667,0.248827 -38.66667,0.249601 -25.956983,0.0016 -66.655503,2.545274 -68.930443,4.308075 -0.920551,0.713315 -6.631998,0.843699 -13.482573,0.307788 C 16.502965,31.695385 16.360402,31.720648 15.681702,34.84242 15.304136,36.579091 15.371294,41.3 15.830942,45.333333 l 0.835724,7.333334 h 14.666667 c 8.066666,0 19.016666,-0.510895 24.333333,-1.135322 8.448584,-0.992262 9.666666,-0.866253 9.666666,1 0,2.441412 1.757967,2.715466 5.290734,0.824787 z"
       id="path928" />
  </g>
</svg>
