<?xml version="1.0" encoding="UTF-8" standalone="no"?>
<!-- Created with Inkscape (http://www.inkscape.org/) -->

<svg
   version="1.1"
   id="svg185"
   width="216"
   height="210.66667"
   viewBox="0 0 216 210.66667"
   xmlns="http://www.w3.org/2000/svg"
   xmlns:svg="http://www.w3.org/2000/svg">
  <defs
     id="defs189" />
  <g
     id="g191">
    <path
       style="fill:#000000;stroke-width:1.33333"
       d="m 82.678592,205.52291 c -8.989456,-1.28541 -8.461749,-3.79503 3.471148,-16.50776 11.404576,-12.14989 10.410763,-11.1238 33.74875,-34.8448 18.55764,-18.8622 21.86736,-20.51471 23.70776,-11.83701 0.58323,2.75 1.01963,16.92818 0.96979,31.50708 -0.0792,23.15664 -0.37211,26.7129 -2.31752,28.13542 -3.4214,2.50179 -48.232685,5.16962 -59.579928,3.54707 z M 124.33333,195.20964 136,194.40134 l 0.22223,-17.20067 c 0.12226,-9.46036 0.27221,-18.20067 0.33333,-19.42289 0.23163,-4.63251 -3.48245,-3.07636 -10.23168,4.28693 -3.8448,4.19461 -12.54055,13.31791 -19.32388,20.27399 -6.78333,6.95608 -12.333333,13.22674 -12.333333,13.9348 0,0.77666 3.570392,0.98133 9.000003,0.5159 4.95,-0.4243 14.25,-1.1352 20.66666,-1.57976 z M 67.333333,62.570256 C 32.813783,61.472708 23.192568,58.549274 9.6199463,45.033875 3.2214588,38.662365 4.1479323,31.501191 12.444035,23.205088 c 5.067212,-5.067212 6.403992,-5.678926 14.24521,-6.518649 4.759286,-0.509676 17.651186,-0.254063 28.648667,0.568031 l 19.995421,1.494716 2.332866,-3.04126 c 1.283076,-1.672692 2.888588,-3.718312 3.567806,-4.54582 C 82.370877,9.7770232 88.421267,8.9089808 122,5.3134537 140.81151,3.299165 148.05723,3.4320082 156.66667,5.949032 c 4.4,1.2863682 8.9,2.8470997 10,3.4682921 1.1,0.6211929 5.19116,2.9847799 9.09148,5.2524159 l 7.09146,4.122975 12.76986,-1.423923 c 7.02341,-0.783157 13.13225,-1.063282 13.57518,-0.6225 1.64035,1.632354 2.42139,29.205165 0.9231,32.587042 -1.39888,3.157467 -2.18604,3.372234 -14.91968,4.070644 -11.00216,0.603443 -14.1011,1.255062 -17.06816,3.588956 -6.30006,4.95563 -16.47448,6.160748 -52.79658,6.25354 -18.7,0.04777 -44.799997,-0.256525 -57.999997,-0.676218 z M 168.99956,48.968771 c 2.64481,-2.393562 19.35845,-7.635437 24.34548,-7.635437 1.59037,0 3.33287,-1.362357 4.21291,-3.293848 2.41632,-5.303249 -0.3859,-7.372819 -9.98287,-7.372819 -6.49291,0 -9.06368,-0.668933 -12.9674,-3.374207 C 164.57593,20.340448 156.79475,18.421048 135.66667,17.686796 123.3398,17.258408 116,17.487516 116,18.300684 c 0,0.765458 5.62666,1.24309 13.72409,1.165 16.06046,-0.154881 21.09294,1.813286 19.9482,7.801598 -0.40797,2.134157 -1.72789,3.642066 -3.49713,3.99521 -8.14601,1.625959 -35.35365,1.908205 -63.984564,0.663759 C 25.872323,29.478372 20,29.800558 20,35.338342 c 0,2.459263 8.544188,8.564133 16.451913,11.754985 6.27272,2.531111 10.478615,2.844278 47.548087,3.540387 69.75413,1.309877 81.97701,1.07046 84.99956,-1.664943 z"
       id="path213" />
  </g>
</svg>
