<?xml version="1.0" encoding="UTF-8" standalone="no"?>
<!-- Created with Inkscape (http://www.inkscape.org/) -->

<svg
   version="1.1"
   id="svg175"
   width="218.66667"
   height="222.66667"
   viewBox="0 0 218.66667 222.66667"
   xmlns="http://www.w3.org/2000/svg"
   xmlns:svg="http://www.w3.org/2000/svg">
  <defs
     id="defs179" />
  <g
     id="g181">
    <path
       style="fill:#000000;stroke-width:1.33333"
       d="m 75.82644,216.04344 c -5.78322,-1.74918 -11.414238,-6.69413 -13.89992,-12.20638 -3.172122,-7.03452 -1.141062,-13.8272 6.086972,-20.3573 6.573577,-5.93882 12.014411,-6.32025 19.467113,-1.36472 6.548984,4.35462 8.235463,6.54556 9.955538,12.93343 1.17342,4.35775 0.94098,6.04105 -1.542618,11.17148 -4.453564,9.19984 -11.203756,12.50428 -20.067085,9.82349 z m 6.623793,-11.88145 c 0.98096,-0.62179 1.88096,-3.12273 2,-5.55767 0.173447,-3.54784 -0.509537,-4.84196 -3.438726,-6.51572 -4.69913,-2.68513 -8.18513,-0.74152 -8.750177,4.87863 -0.639981,6.36547 5.10127,10.41957 10.188903,7.19476 z m 48.883107,7.99357 c -5.28988,-3.30768 -9.96875,-7.86874 -10.12919,-9.87417 -1.25993,-15.74768 5.25979,-23.94403 19.22984,-24.17501 5.74093,-0.0949 6.90596,0.40842 10.81548,4.67269 8.82051,9.62089 6.89844,24.46197 -3.83069,29.57833 -6.24443,2.97776 -11.09779,2.91687 -16.08544,-0.20184 z m 12.4,-11.08889 c 2.06256,-2.06256 2.06256,-8.07077 0,-10.13333 -0.88,-0.88 -3.16,-1.6 -5.06667,-1.6 -4.13068,0 -6.66667,2.21709 -6.66667,5.82834 0,5.82771 7.85664,9.78168 11.73334,5.90499 z M 91.000001,150.9699 c -5.079486,-7.45312 -5.705276,-14.70372 -1.819096,-21.07661 4.912508,-8.05595 18.085695,-11.02965 26.400665,-5.95965 5.00541,3.05201 6.4261,5.47519 7.55622,12.8881 0.67127,4.40321 0.23826,6.37645 -2.18996,9.9797 -4.15808,6.17016 -12.20993,10.4835 -19.6145,10.50739 -5.674326,0.0183 -6.235201,-0.32576 -10.333329,-6.33893 z M 110.4,143.73334 c 3.95163,-3.95163 0.11379,-13.06667 -5.50166,-13.06667 -5.962545,0 -9.233027,6.39192 -6.18476,12.08765 1.58216,2.9563 9.08094,3.5845 11.68642,0.97902 z m 49.66608,-68.795458 c -2.35802,-2.358032 -4.26556,-6.231692 -5.18894,-10.537306 -1.43007,-6.668175 -1.04032,-9.491851 3.11753,-22.585953 l 0.90564,-2.852044 -47.78349,-0.167676 c -26.280917,-0.09222 -51.074438,-0.691477 -55.096714,-1.331678 -6.265691,-0.997271 -7.77158,-0.803462 -10.513145,1.353054 -4.412684,3.471019 -10.41569,3.15742 -15.625477,-0.816278 -2.403624,-1.833334 -4.860258,-3.32954 -5.459188,-3.324903 -2.744962,0.02125 -6.106812,9.659953 -7.758712,22.244875 -2.004592,15.271901 -2.422758,16.413361 -6.012935,16.413361 -1.7823846,0 -2.9338086,-1.470952 -3.9138744,-5 C 2.7748739,54.06721 8.1329764,28.210304 15.914056,24.045996 17.328663,23.288922 18.897671,21.31886 19.400742,19.668082 21.723399,12.0465 32.015987,5.9808062 40.519863,7.222026 48.257555,8.3514139 49.287879,8.32932 55.8873,6.892492 c 3.238013,-0.7049816 17.638013,-1.0433544 32,-0.7519394 14.36199,0.291415 41.23825,0.7654719 59.72504,1.0534598 46.13677,0.7187209 52.15421,2.8409686 62.18629,21.9320506 4.41693,8.40543 4.86509,10.234282 4.83623,19.735582 -0.046,15.132637 -1.57222,20.357795 -7.44018,25.471689 -5.69052,4.95925 -13.01713,5.821591 -18.5668,2.18531 -3.01445,-1.975142 -3.71037,-1.975142 -8.64673,0 -8.47749,3.392017 -15.49967,2.834629 -19.91507,-1.580762 z m 17.23334,-10.903966 c 3.75552,-3.75551 4.50773,-8.147476 3.39086,-19.798306 -0.53966,-5.629585 -0.99306,-12.751086 -1.00756,-15.825556 -0.0184,-3.90181 -0.67912,-5.84435 -2.18786,-6.432358 -1.18884,-0.463326 -8.46152,-1.09827 -16.16152,-1.410986 -7.7,-0.312716 -27.568,-1.207291 -44.15111,-1.987944 -21.975039,-1.034479 -33.840955,-1.013347 -43.758265,0.07793 -17.442248,1.919301 -20.062339,2.954966 -11.423964,4.51565 7.574381,1.368454 22.776042,1.83426 71.333339,2.185784 39.16917,0.283559 40.72009,0.641056 39.20852,9.037833 -0.48886,2.715554 -2.01044,7.937373 -3.38134,11.60404 -2.835,7.582702 -3.26233,16.698187 -0.89385,19.066667 2.36767,2.367668 6.05379,1.94622 9.03275,-1.032752 z m 23.81989,-3.429986 c 2.12415,-4.66199 1.9442,-16.661956 -0.33152,-22.107764 -2.5154,-6.019371 -7.20655,-11.829499 -9.55123,-11.829499 -1.04677,0 -1.8961,0.15 -1.8874,0.333333 0.009,0.183334 0.90159,3.633334 1.98418,7.666667 1.08258,4.033334 1.97546,11.883334 1.98417,17.444444 0.009,5.561113 0.41583,10.511113 0.90472,11.000001 1.96171,1.961713 5.43643,0.698606 6.89708,-2.507182 z M 43.425465,23.85093 c 0.503897,-0.815323 0.08931,-2.01876 -0.921311,-2.674304 C 39.698435,19.356676 35.414038,20.386164 34.915857,23 c -0.343932,1.804523 0.466136,2.333334 3.574356,2.333334 2.210492,0 4.431356,-0.667083 4.935252,-1.482404 z"
       id="path352" />
  </g>
</svg>
