<?xml version="1.0" encoding="UTF-8" standalone="no"?>
<!-- Created with Inkscape (http://www.inkscape.org/) -->

<svg
   version="1.1"
   id="svg225"
   width="216"
   height="204"
   viewBox="0 0 216 204"
   xmlns="http://www.w3.org/2000/svg"
   xmlns:svg="http://www.w3.org/2000/svg">
  <defs
     id="defs229" />
  <g
     id="g231">
    <path
       style="fill:#000000;stroke-width:1.33333"
       d="m 66.25724,200.45803 c -1.797591,-0.50947 -2.305459,-1.75471 -2,-4.90378 0.347281,-3.58024 1.012917,-4.28949 4.385324,-4.67265 2.186743,-0.24845 6.086743,0.13667 8.666667,0.85583 2.579922,0.71914 7.667088,0.92242 11.304812,0.45173 6.404841,-0.82876 6.752768,-1.10281 11,-8.66468 C 102.02632,179.22961 104,174.90049 104,173.90421 c 0,-0.99628 -1.71201,-3.7823 -3.80447,-6.19114 -2.092453,-2.40886 -4.523593,-5.74847 -5.402527,-7.42138 -0.878936,-1.6729 -5.947767,-6.2584 -11.26407,-10.18998 -15.932302,-11.7825 -28.862266,-27.65421 -28.862266,-35.42884 0,-3.34922 3.018432,-8.41342 8.745517,-14.67287 2.348372,-2.566667 5.896777,-7.666667 7.885344,-11.333333 C 73.286095,85 76.435593,80.385819 78.296415,78.412931 c 5.018297,-5.320523 3.386016,-7.203544 -7.09254,-8.182047 -6.690144,-0.624735 -10.063364,-0.331515 -12.991656,1.129309 -6.397579,3.191532 -8.878886,2.607774 -8.878886,-2.088873 0,-3.163787 0.913103,-4.564268 4.129282,-6.333333 2.271104,-1.249227 6.735109,-4.22132 9.920012,-6.604654 C 66.567528,53.95 69.716359,52 70.380028,52 71.043697,52 72.672685,50.8 74,49.333333 c 1.900809,-2.10037 4.106623,-2.666666 10.387089,-2.666666 6.828206,0 8.425154,0.487029 11.115491,3.389953 8.12877,8.771083 5.35644,19.594037 -9.548515,37.276713 -3.090681,3.666667 -6.03018,8.001016 -6.53222,9.631887 -0.502041,1.630871 -2.377336,4.11722 -4.167322,5.52523 C 73.464535,103.89845 72,105.31528 72,105.63895 c 0,0.32368 6.328447,0.68981 14.063216,0.81362 10.860264,0.17385 16.554114,0.9994 25.000004,3.62478 6.01523,1.86981 13.03678,4.02099 15.60345,4.78038 7.2264,2.13806 23.27717,9.99808 25.23554,12.35778 0.96671,1.1648 2.43418,2.12964 3.26104,2.14409 0.82688,0.0145 5.40342,3.29677 10.17008,7.29405 12.69654,10.64719 14.61156,11.4769 26.67211,11.55599 11.85428,0.0777 14.60708,1.38407 15.0326,7.13361 0.26641,3.59988 -0.12853,4.03094 -4.03804,4.4079 -5.14712,0.49626 -5.63467,2.48676 -1.03724,4.23469 3.47464,1.32105 5.57719,6.48192 4.15289,10.19357 -1.26634,3.30004 -12.8798,1.5656 -18.56814,-2.77312 -2.44028,-1.86129 -6.27636,-3.75206 -8.52463,-4.20172 -3.40436,-0.68086 -4.24125,-0.33392 -5.00591,2.07528 -1.51473,4.77251 -6.11902,5.6375 -10.10612,1.89858 -2.65004,-2.48508 -4.33021,-3.0279 -7.44444,-2.40504 l -4.02197,0.80438 v 11.80674 c 0,7.35293 -0.61575,12.54866 -1.63231,13.77354 -1.91558,2.30815 -7.59773,3.38422 -21.80275,4.12898 -8.08279,0.42376 -10.77311,0.0921 -12.39306,-1.52786 -1.79893,-1.79893 -1.82358,-2.44061 -0.18873,-4.91414 1.4913,-2.25632 3.64188,-2.98812 10.39307,-3.53655 14.00851,-1.13799 17.62382,-4.99367 11.71997,-12.4992 C 135.22915,172.5994 127.94338,168.71321 121,167.45319 l -5,-0.90736 v 5.06468 c 0,5.71616 -5.26279,14.08456 -14.48778,23.0371 -5.326657,5.16935 -5.823011,5.3529 -14.513747,5.36707 -4.94916,0.008 -11.098473,0.26476 -13.66514,0.57044 -2.566666,0.30568 -5.750909,0.24848 -7.076093,-0.12707 z m 86.40943,-42.4411 c 11.04624,-1.60473 12.66666,-2.19426 12.66666,-4.6082 0,-1.31822 -2.52725,-4.06306 -5.66666,-6.15454 C 156.55,145.17785 152.2,141.87655 150,139.91796 137.59385,128.87315 102.21366,116.1176 83.753467,116.03423 c -18.807584,-0.0849 -19.130771,6.3432 -1.0868,21.61625 9.489304,8.03208 12.423601,9.73492 25.333333,14.70159 4.76667,1.83384 9.86667,3.8125 11.33333,4.39705 3.45032,1.37513 18.84078,2.93488 24,2.43228 2.2,-0.21432 6.4,-0.73832 9.33334,-1.16447 z M 86.426068,56.333333 c 0.311493,-2.193268 -0.244255,-3 -2.066667,-3 -2.92769,0 -5.692734,2.439208 -5.692734,5.021896 0,1.200914 1.249764,1.678096 3.666666,1.4 2.625342,-0.302078 3.78767,-1.273889 4.092735,-3.421896 z M 95.977093,37.319176 C 94.943521,36.680393 93.455008,33.872259 92.669284,31.078877 L 91.240697,26 49.287015,26.063568 C 21.487001,26.105688 7.0028572,25.655871 6.3537504,24.730235 4.6989849,22.370512 5.2216548,18.968821 7.6052276,16.585248 c 1.9479248,-1.947924 3.8017094,-2.12894 13.0000004,-1.269401 13.083407,1.222584 10.602099,1.20789 41.485267,0.245645 13.983104,-0.43568 26.357916,-1.150589 27.499581,-1.588688 1.141665,-0.438097 3.154751,-3.189328 4.473524,-6.1138441 2.98126,-6.6112539 7.51535,-6.88827561 8.60307,-0.5256266 0.48995,2.8659877 1.53189,4.1207917 3.67524,4.4260677 2.4396,0.347473 2.99142,-0.2112 2.99142,-3.0285847 0,-2.380026 1.02461,-3.9214948 3.29385,-4.9554307 4.12233,-1.8782579 6.82776,0.040977 8.07728,5.7300349 1.12888,5.1397585 5.80559,6.9681805 14.93449,5.8388365 3.83474,-0.474401 21.14426,-0.894756 38.46557,-0.934121 29.79587,-0.06772 31.63743,0.07255 34.16731,2.602436 2.92462,2.924624 2.40468,7.520035 -0.99862,8.826003 -1.07724,0.413374 -20.6006,0.840105 -43.38522,0.948292 -37.04917,0.175917 -41.49395,0.426516 -42.06378,2.371584 -2.87117,9.800518 -8.18049,11.880241 -10.65805,4.174882 -2.06846,-6.433034 -6.84839,-7.255529 -8.02337,-1.380601 -0.92596,4.629795 -4.28603,7.146176 -7.165697,5.366444 z"
       id="path551" />
  </g>
</svg>
