<?xml version="1.0" encoding="UTF-8" standalone="no"?>
<!-- Created with Inkscape (http://www.inkscape.org/) -->

<svg
   version="1.1"
   id="svg185"
   width="168"
   height="208"
   viewBox="0 0 168 208"
   xmlns="http://www.w3.org/2000/svg"
   xmlns:svg="http://www.w3.org/2000/svg">
  <defs
     id="defs189" />
  <g
     id="g191">
    <path
       style="fill:#000000;stroke-width:1.33333"
       d="m 23.666667,202.65796 c -2.991908,-1.8684 -3.13297,-9.10147 -0.199452,-10.22716 1.173633,-0.45037 7.187616,-0.0327 13.364404,0.9282 l 11.230524,1.74704 3.938668,-3.77348 c 5.912981,-5.665 9.705226,-13.99485 7.639441,-16.78043 -9.77278,-13.1779 -13.984963,-17.74757 -20.101531,-21.80752 -6.482986,-4.30316 -19.249828,-18.07272 -27.294016,-29.4377 -2.785839,-3.93589 -2.9416398,-4.90955 -1.589263,-9.93189 0.964131,-3.58051 3.552929,-7.55658 7.252073,-11.13829 C 21.071504,99.173197 24.72486,94.566667 26.026083,92 c 1.301224,-2.566667 4.377673,-7.024665 6.836556,-9.906665 2.458881,-2.881999 4.470694,-5.9621 4.470694,-6.844671 0,-0.988432 -3.279077,-1.955832 -8.538637,-2.519083 C 21.75672,71.975879 19.354812,72.269956 15.128029,74.40286 8.2270907,77.885189 4,76.164041 4,69.871853 c 0,-4.635652 3.77198,-8.53852 8.252169,-8.53852 1.279016,0 5.305838,-2.646974 8.94849,-5.882166 3.642653,-3.235191 7.71268,-6.199479 9.044506,-6.587306 11.717846,-3.412229 13.620462,-3.562701 18.807159,-1.487397 5.704777,2.2826 7.692377,5.235476 8.769037,13.027716 1.071511,7.754959 -2.644378,17.067884 -10.666316,26.732392 C 43.219771,91.877633 40,96.222759 40,96.792407 c 0,0.569648 -1.302365,2.422028 -2.894147,4.116403 -1.59178,1.69437 -2.463013,3.51181 -1.936074,4.03875 0.52694,0.52694 5.714073,0.82004 11.526965,0.65135 8.571467,-0.24876 12.402205,0.35394 20.269408,3.18901 5.335283,1.92265 11.926045,3.94687 14.646137,4.49827 2.720094,0.55139 6.374335,1.93865 8.120538,3.08281 1.746202,1.14415 5.520672,2.72037 8.38771,3.50271 4.780323,1.30442 22.221143,12.49625 31.879463,20.45717 6.6746,5.50156 12.69903,7.93356 21.2162,8.56475 13.14885,0.97442 14.11713,1.35385 14.11713,5.53177 0,4.26455 -2.14289,6.90793 -5.6,6.90793 -3.401,0 -2.97848,2.51274 0.6548,3.89411 5.02235,1.90948 6.38622,4.37745 4.50834,8.15797 -2.69758,5.4307 -10.00072,5.23199 -18.45024,-0.50201 -2.5807,-1.75131 -7.40688,-3.59129 -10.72486,-4.08885 -5.91661,-0.88724 -6.04829,-0.82663 -6.84369,3.1504 -0.9948,4.974 -4.49525,5.37634 -5.68075,0.65296 -0.76603,-3.05214 -1.42011,-3.36074 -6.35873,-3 L 111.33333,170 l -0.10844,10.66667 c -0.15881,15.62225 -0.30531,16.43748 -3.23551,18.00568 -1.4725,0.78806 -9.077877,1.99518 -16.900833,2.68249 -15.364448,1.34989 -17.755214,0.71863 -17.755214,-4.68817 0,-4.692 3.122188,-6.23864 12.449392,-6.16706 6.870184,0.0528 9.030638,-0.45173 10.931872,-2.55257 2.272602,-2.5112 2.265544,-2.81265 -0.172538,-7.37013 -3.069986,-5.7387 -8.752842,-9.48602 -16.188894,-10.6751 l -5.523697,-0.88326 0.07383,5.34954 c 0.06457,4.6788 -1.032328,6.6866 -8.748148,16.01288 -4.852087,5.86482 -10.191655,11.00708 -11.865704,11.42724 -6.705374,1.68295 -28.327796,2.28295 -30.622779,0.84975 z M 112.56835,158.6906 C 124.2042,156.78513 124.58662,155.56589 116,147.74959 103.99205,136.81887 75.277273,123.53688 58.666667,121.23012 c -20.675291,-2.87124 -25.978088,-2.99971 -27.90652,-0.67609 -1.550711,1.86849 -1.5448,2.7354 0.03887,5.70147 1.027207,1.92386 2.829906,3.75044 4.005999,4.05907 1.176093,0.30862 4.312781,3.16246 6.970419,6.34184 7.043296,8.42603 20.42141,15.43087 40.89123,21.4108 7.264538,2.12222 19.226085,2.37159 29.901675,0.62339 z M 42.333956,59 c 0.325495,-0.977579 -0.593548,-1.666667 -2.222845,-1.666667 -1.637783,0 -2.777778,0.860919 -2.777778,2.097766 0,2.450501 4.160592,2.091821 5.000623,-0.431099 z M 77.324243,31.309423 C 76.622211,29.462939 74.494041,27.361433 72.594976,26.639409 70.652856,25.901017 57.658968,25.450595 42.896724,25.609944 28.461751,25.765761 15.904771,25.431857 14.992325,24.867935 12.725841,23.467171 12.909608,20.614201 15.428572,18.095239 17.205936,16.317873 21.959596,16 46.761905,16 74.876296,16 76,15.899924 76,13.396071 76,8.1617737 78.929528,4 82.61402,4 c 1.935623,0 4.239313,0.72 5.119313,1.6 1.244444,1.2444444 1.955556,1.2444444 3.2,0 0.88,-0.88 2.956874,-1.6 4.615275,-1.6 2.372925,0 3.3114,1.0997269 4.405328,5.162266 1.318334,4.895922 1.716544,5.203035 7.718054,5.952454 3.48041,0.434604 16.52801,0.586289 28.99468,0.33708 13.79165,-0.275696 23.31924,0.06788 24.33333,0.877472 1.40161,1.118981 2.40169,7.07508 1.33333,7.940852 -0.18333,0.148568 -14.09602,0.598568 -30.91708,1 L 100.8325,26 99.711459,30.333333 c -1.208478,4.671334 -4.19268,5.596772 -9.275594,2.876479 -1.968638,-1.053583 -3.125428,-1.053583 -4.17901,0 -2.711492,2.711492 -7.572356,1.677357 -8.932612,-1.900389 z"
       id="path511" />
  </g>
</svg>
