<?xml version="1.0" encoding="UTF-8" standalone="no"?>
<!-- Created with Inkscape (http://www.inkscape.org/) -->

<svg
   version="1.1"
   id="svg165"
   width="213.33333"
   height="202.66667"
   viewBox="0 0 213.33333 202.66667"
   xmlns="http://www.w3.org/2000/svg"
   xmlns:svg="http://www.w3.org/2000/svg">
  <defs
     id="defs169" />
  <g
     id="g171">
    <path
       style="fill:#000000;stroke-width:1.33333"
       d="m 89.999999,197.80408 c -6.380675,-1.3238 -24.730208,-7.55656 -26.884517,-9.13182 -2.257483,-1.65072 -2.25657,-2.12327 0.021,-10.86568 1.309622,-5.02695 2.715046,-10.93991 3.123166,-13.13991 0.40812,-2.2 1.201362,-4.6 1.762759,-5.33333 C 68.583804,158.6 69.968866,155.3 71.10032,152 c 1.131455,-3.3 3.994221,-11.1 6.361703,-17.33333 2.367481,-6.23333 4.35704,-13.43333 4.42124,-16 L 81.999999,114 l -6.973628,0.45395 c -6.455849,0.42025 -7.093704,0.19042 -8.590859,-3.09548 -2.371189,-5.2042 -0.173044,-5.96696 17.564487,-6.09491 8.433333,-0.0608 26.121431,-0.22003 39.306891,-0.35375 22.25473,-0.22571 24.00775,-0.0686 24.45048,2.19087 0.71032,3.62507 -3.63243,6.14248 -10.67868,6.19025 -3.44005,0.0233 -6.57516,0.561 -6.96689,1.19484 -0.39173,0.63384 0.77286,4.2309 2.58798,7.99346 1.81512,3.76257 3.2922,7.29397 3.28239,7.84757 -0.0141,0.80125 6.82585,18.92792 15.97681,42.33987 5.26051,13.45855 4.85686,14.48797 -7.04048,17.95529 -5.27185,1.53642 -13.48517,3.9837 -18.25184,5.43842 -8.162,2.4909 -28.421336,3.45436 -36.666661,1.7437 z m 24.666661,-8.8229 c 0,-2.94902 -5.22708,-16.11302 -7.16923,-18.05518 -1.60322,-1.60321 -2.26938,-0.7992 -4.68326,5.65248 -1.54779,4.13686 -2.814172,8.99904 -2.814172,10.80487 0,3.09089 0.429792,3.28332 7.333332,3.28332 5.02146,0 7.33333,-0.53136 7.33333,-1.68549 z m -23.367568,-4.91496 c 1.118832,-2.16359 2.03424,-5.12818 2.03424,-6.58798 0,-1.45981 0.6,-3.02501 1.333333,-3.47824 0.733334,-0.45322 1.333334,-1.99677 1.333334,-3.43012 0,-1.43333 0.573787,-3.64792 1.275085,-4.9213 0.701297,-1.27339 2.229129,-5.80332 3.395186,-10.06654 1.82464,-6.67108 2.52104,-7.69305 4.99717,-7.33333 2.16158,0.31401 3.6143,2.40748 5.84149,8.41796 3.58396,9.67195 8.64779,21.57475 10.91943,25.66667 2.15552,3.88274 9.02767,4.01192 16.29142,0.30624 5.847,-2.98292 6.21996,-3.96583 3.23406,-8.5229 -1.12539,-1.71756 -2.59004,-4.84644 -3.25479,-6.95309 C 136.97745,161.70767 127.60185,135.8068 123.07468,124 l -3.83437,-10 -11.65285,-0.29741 -11.652861,-0.29741 -3.057196,6.96408 c -6.452886,14.69922 -18.332939,47.19549 -20.015637,54.75005 -1.605544,7.20816 -1.057296,7.92813 8.461235,11.11156 6.926846,2.31664 7.751222,2.13777 9.976091,-2.16465 z M 65.999999,62.570256 C 31.480449,61.472708 21.859234,58.549274 8.2866128,45.033875 1.8881254,38.662365 2.8145989,31.501191 11.110702,23.205088 c 5.067211,-5.067212 6.403991,-5.678926 14.24521,-6.518649 4.759285,-0.509676 17.651185,-0.254063 28.648666,0.568031 l 19.995421,1.494716 2.332865,-3.04126 c 1.283076,-1.672692 2.888588,-3.718312 3.567807,-4.54582 1.136872,-1.3850828 7.187261,-2.2531252 40.765989,-5.8486523 18.81151,-2.0142887 26.05723,-1.8814455 34.66667,0.6355783 4.4,1.2863683 8.9,2.8470997 10,3.4682922 1.1,0.6211928 5.19116,2.9847798 9.09148,5.2524158 l 7.09147,4.122975 12.76985,-1.423923 c 7.02341,-0.783157 13.13225,-1.063282 13.57519,-0.6225 1.64034,1.632354 2.42138,29.205165 0.92309,32.587042 -1.39888,3.157467 -2.18604,3.372234 -14.91968,4.070644 -11.00216,0.603443 -14.10109,1.255062 -17.06816,3.588956 -6.30005,4.95563 -16.47448,6.160748 -52.79657,6.25354 -18.7,0.04777 -44.800001,-0.256525 -58.000001,-0.676218 z M 167.66622,48.968771 c 2.64482,-2.393562 19.35846,-7.635437 24.34548,-7.635437 1.59038,0 3.33287,-1.362357 4.21291,-3.293848 2.41632,-5.303249 -0.38589,-7.372819 -9.98287,-7.372819 -6.4929,0 -9.06368,-0.668933 -12.9674,-3.374207 -9.46808,-6.561388 -31.66749,-12.304432 -33.8585,-8.759285 C 138.88217,19.396668 139.5165,20 140.95797,20 c 1.34677,0 3.70307,0.87861 5.23621,1.952464 3.6176,2.533872 2.75232,8.490726 -1.35236,9.310029 -8.14601,1.625958 -35.35365,1.908204 -63.984559,0.663758 -56.318272,-2.447879 -62.190595,-2.125693 -62.190595,3.412091 0,2.459263 8.544188,8.564133 16.451913,11.754985 6.27272,2.531111 10.478615,2.844278 47.548086,3.540387 69.754135,1.309878 81.977015,1.07046 84.999555,-1.664943 z M 129.33333,18.666667 c 0,-0.733333 -1.76459,-1.333333 -3.92131,-1.333333 -2.15672,0 -4.29213,0.6 -4.74536,1.333333 C 120.17626,19.460158 121.76393,20 124.58798,20 c 2.60994,0 4.74535,-0.6 4.74535,-1.333333 z"
       id="path491" />
  </g>
</svg>
