<?xml version="1.0" encoding="UTF-8" standalone="no"?>
<!-- Created with Inkscape (http://www.inkscape.org/) -->

<svg
   version="1.1"
   id="svg75"
   width="117.33333"
   height="206.66667"
   viewBox="0 0 117.33333 206.66667"
   xmlns="http://www.w3.org/2000/svg"
   xmlns:svg="http://www.w3.org/2000/svg">
  <defs
     id="defs79" />
  <g
     id="g81">
    <path
       style="fill:#000000;stroke-width:1.33333"
       d="m 21.159771,202.71011 c -5.783219,-1.74919 -11.414237,-6.69413 -13.8999192,-12.20639 -3.172121,-7.03452 -1.141061,-13.8272 6.0869722,-20.35729 6.573577,-5.93883 12.01441,-6.32025 19.467112,-1.36472 6.548984,4.35461 8.235463,6.54556 9.955537,12.93343 1.17342,4.35774 0.94098,6.04105 -1.542617,11.17148 -4.453564,9.19984 -11.203756,12.50428 -20.067085,9.82349 z m 6.623794,-11.88145 c 0.98096,-0.62179 1.880959,-3.12274 1.999999,-5.55767 0.173447,-3.54784 -0.509537,-4.84196 -3.438726,-6.51572 -4.699129,-2.68513 -8.185129,-0.74152 -8.750176,4.87863 -0.639981,6.36546 5.101269,10.41957 10.188903,7.19476 z m 51.605341,8.19876 c -7.113428,-1.80692 -12.722241,-8.79204 -12.722241,-15.84406 0,-5.66077 5.969462,-14.67944 10.840201,-16.3774 13.089975,-4.56318 23.826464,2.6333 23.826464,15.97046 0,6.00025 -3.880243,13.68542 -8.031514,15.90712 -2.526888,1.35234 -9.285168,1.51938 -13.91291,0.34388 z m 9.324669,-10.5141 c 4.486978,-2.93998 4.468102,-9.0109 -0.0372,-11.96289 -4.546173,-2.97877 -9.271879,-1.55067 -11.332763,3.42475 -1.402303,3.38545 -1.320074,4.52882 0.528619,7.35029 2.526663,3.85617 6.1612,4.2544 10.841341,1.18785 z m -44.04691,-45.77024 c -4.438699,-1.81081 -9.624261,-7.86438 -10.503787,-12.26202 -1.51912,-7.5956 -0.865407,-10.29351 3.702257,-15.27939 4.326398,-4.72252 4.935089,-4.95251 13.429518,-5.0742 8.636156,-0.12372 9.032072,0.0189 13.468197,4.85295 7.751831,8.44711 5.882024,17.1988 -5.274244,24.68625 -6.505532,4.36615 -9.922215,5.07531 -14.821941,3.07641 z M 55.999998,132 c 5.540458,-5.54046 1.789155,-14.66666 -6.028693,-14.66666 -5.290628,0 -7.30464,2.71473 -7.30464,9.84609 0,7.32411 7.954066,10.19984 13.333333,4.82057 z M 25.666666,57.003606 c -3.941068,-1.85376 -3.893548,-7.609512 0.17722,-21.465395 2.837411,-9.657837 3.695166,-11.015457 11.16196,-17.666667 4.448594,-3.962682 9.006747,-7.204877 10.12923,-7.204877 1.122483,0 2.368909,-0.530768 2.769837,-1.1794831 C 51.039996,7.6505831 62.499456,6.0786549 71.333331,6.5477844 85.287459,7.2888285 97.754593,16.256248 103.93825,30 c 8.91228,19.808395 9.28349,21.257249 6.39508,24.960501 -1.44155,1.848221 -7.06945,2.225813 -41.666665,2.795529 -26.704964,0.439755 -40.997127,0.189667 -42.999999,-0.752424 z M 96.416087,45.157659 C 98.224988,42.28785 95.671055,36.136926 89.651688,28.866203 80.541898,17.862591 71.340133,15.234055 56.114657,19.28616 44.122053,22.477871 34.701727,33.786746 34.674102,45.025033 l -0.0074,3.025033 30.189023,-0.358367 c 26.217468,-0.31122 30.369435,-0.644589 31.560398,-2.53404 z"
       id="path630" />
  </g>
</svg>
