<?xml version="1.0" encoding="UTF-8" standalone="no"?>
<!-- Created with Inkscape (http://www.inkscape.org/) -->

<svg
   version="1.1"
   id="svg243"
   width="222.66667"
   height="218.66667"
   viewBox="0 0 222.66667 218.66667"
   xmlns="http://www.w3.org/2000/svg"
   xmlns:svg="http://www.w3.org/2000/svg">
  <defs
     id="defs247" />
  <g
     id="g249">
    <path
       style="fill:#000000;stroke-width:1.33333"
       d="M 11.884457,210.25684 C 7.8984835,207.26074 6.487161,202.49563 6.0756042,190.64419 5.5170643,174.56012 6.300637,173.83382 22.302156,175.60356 c 9.642934,1.06651 41.408606,1.37392 60.031179,0.58096 5.006038,-0.21316 5.398948,-1.74253 1.666666,-6.48736 -3.20895,-4.07952 -3.514925,-10.41968 -0.557617,-11.5545 4.63136,-1.77723 7.850876,-0.57431 12.794268,4.78034 4.983268,5.39786 5.311218,5.53512 9.556518,4 6.38613,-2.30925 10.30546,-1.96184 13.68496,1.21303 l 2.98334,2.80271 3.38036,-5.35484 c 5.6749,-8.98963 12.78124,-12.10368 17.30271,-7.58222 2.62374,2.62374 0.71149,9.75639 -3.45907,12.90224 -3.75409,2.83172 -2.33245,4.32388 4.02901,4.22886 2.72371,-0.0407 18.15219,-0.34746 34.28552,-0.6817 16.94827,-0.35112 30.56946,-0.076 32.26102,0.65167 4.5454,1.95528 6.73944,9.43639 6.04109,20.59859 -0.51161,8.17752 -1.05423,9.94668 -3.45453,11.26341 -4.55343,2.49785 -33.38834,3.52293 -118.847579,4.22503 -60.745389,0.49905 -80.509175,0.2745 -82.115544,-0.93294 z M 181.33334,198.93712 202,198 l 0.4112,-4.24474 c 0.71298,-7.3598 -0.58777,-7.53412 -48.30381,-6.47344 -23.52573,0.52296 -62.554225,1.18424 -86.729989,1.46952 -24.175763,0.28529 -44.725763,0.8141 -45.666667,1.17517 -1.758138,0.67465 -2.407835,8.93195 -0.827154,10.51263 1.053819,1.05382 130.88917,-0.1616 160.44976,-1.50202 z m -83.839668,-67.1293 c -10.093957,-1.83423 -16.027868,-7.06911 -19.430085,-17.14115 -1.777386,-5.26184 -1.793437,-6.87769 -0.130467,-13.13408 2.845271,-10.704439 7.088044,-15.084185 17.704248,-18.275798 8.932302,-2.685371 17.170132,-1.518761 24.755882,3.505828 13.3267,8.827247 13.77193,28.23549 0.89626,39.06966 -2.28843,1.92558 -4.56473,3.50755 -5.05847,3.51549 -0.49373,0.008 -3.5977,0.80345 -6.8977,1.76782 -3.97518,1.16167 -7.97071,1.39527 -11.839663,0.69223 z m 7.839658,-15.53021 c 0,-2.0038 -11.751011,-12.58283 -13.375367,-12.04137 -0.940015,0.31333 1.120573,3.19033 4.873361,6.80419 6.306406,6.07296 8.502006,7.42543 8.502006,5.23718 z m 10.66667,-8 c 0,-1.86031 -11.69288,-12.602691 -13.16802,-12.097599 -0.78172,0.267661 1.31325,3.336657 4.65549,6.819989 5.72355,5.96519 8.51253,7.6943 8.51253,5.27761 z M 90.666668,63.95808 C 70.286809,61.946578 54.368214,58.507669 31.333334,51.140243 7.8754953,43.637541 4.0000001,41.372334 4.0000001,35.16405 c 0,-2.346885 1.1623866,-3.707508 4.3333334,-5.072352 10.9492225,-4.712783 18.3286785,-7.425031 20.2019405,-7.425031 1.122506,0 4.011277,-0.856668 6.419491,-1.903707 C 54.252623,12.37267 95.55536,6.1621414 125.33334,7.173093 c 32.5773,1.1059879 55.82366,6.394426 84.25825,19.168353 17.65705,7.932233 11.74107,18.923805 -13.92167,25.865716 C 190.35147,53.645833 183.3,55.330453 180,55.950764 c -3.3,0.620309 -8.4,2.058814 -11.33333,3.196678 -2.93333,1.137864 -7.47313,2.09518 -10.08845,2.127368 -2.61532,0.03219 -8.01532,0.61687 -12,1.299291 -10.8484,1.857911 -43.03723,2.65468 -55.911552,1.383979 z M 139.33334,49.37963 c 26.96432,-3.998323 48.47468,-8.168117 54.4417,-10.553555 7.74784,-3.097353 1.00222,-7.575439 -15.77504,-10.472253 -30.04934,-5.188416 -66.07076,-7.990718 -74.71982,-5.812859 -3.1869,0.802471 -10.178673,1.482853 -15.537272,1.51196 -5.358599,0.02911 -13.942907,0.882403 -19.07624,1.896211 -12.4623,2.461244 -31.265695,6.149952 -35.057094,6.877237 -3.687176,0.707294 -5.38732,4.3183 -2.803863,5.955244 1.023525,0.648532 3.960956,1.512564 6.527623,1.92007 2.566667,0.407506 7.966667,1.589405 12,2.626441 33.473842,8.60668 60.508956,10.424493 90.000006,6.051504 z"
       id="path271" />
  </g>
</svg>
