<?xml version="1.0" encoding="UTF-8" standalone="no"?>
<!-- Created with Inkscape (http://www.inkscape.org/) -->

<svg
   version="1.1"
   id="svg233"
   width="248"
   height="196"
   viewBox="0 0 248 196"
   xmlns="http://www.w3.org/2000/svg"
   xmlns:svg="http://www.w3.org/2000/svg">
  <defs
     id="defs237" />
  <g
     id="g239">
    <path
       style="fill:#000000;stroke-width:1.33333"
       d="m 184,186.56304 c -7.16499,-0.6734 -16.48247,-2.83296 -25.33333,-5.87164 -7.7,-2.64357 -15.13842,-5.17369 -16.5298,-5.62249 -2.16598,-0.69866 -2.40584,-0.32211 -1.66786,2.61825 1.88616,7.51511 -2.54661,9.5994 -12.008,5.64617 -2.63267,-1.1 -6.34334,-2 -8.24593,-2 -1.90259,0 -5.87932,-0.82406 -8.83717,-1.83126 -11.944059,-4.06714 -15.841625,-5.10432 -23.112526,-6.15048 -4.179295,-0.60134 -9.150739,-1.4919 -11.047655,-1.97902 -3.192645,-0.81988 -3.407138,-0.60092 -2.886458,2.94671 0.851049,5.79857 -2.425056,7.89511 -9.434498,6.0376 -3.059892,-0.81088 -7.292036,-1.13792 -9.404765,-0.72677 -2.738583,0.53294 -4.192971,0.1192 -5.066253,-1.44128 -2.47813,-4.42818 -19.689864,-1.58323 -27.476296,4.54158 -5.64958,4.44396 -13.6161257,2.50976 -13.6161257,-3.30586 0,-4.2549 7.7102917,-10.82328 14.1153907,-12.0249 2.801649,-0.52558 7.221816,-2.01697 9.822592,-3.31417 2.600776,-1.29721 7.727669,-3.09327 11.393096,-3.99125 7.238141,-1.77324 33.707721,-2.22158 39.868655,-0.67528 2.944956,0.73913 3.673904,0.53453 3.197438,-0.89744 C 87.391063,157.50135 85.646071,156.36667 83.852744,156 77.271243,154.65433 63.4335,143.19637 53.837957,131.14709 43.284612,117.89507 39.589819,102.67774 43.1999,87.333333 46.552181,73.084679 50.292887,60.802145 53.148691,54.666667 57.702272,44.88364 57.17752,43.376468 48.333333,40.836215 44.116667,39.625091 33.466667,37.937256 24.666667,37.085472 15.866667,36.233687 7.9166667,34.967531 7,34.271793 4.9674011,32.729076 4.7900309,25.826492 6.7518323,24.614032 7.5320065,24.131857 13.382007,23.446312 19.751832,23.090599 29.720536,22.533911 31.609963,22.041592 33.319808,19.555256 43.685933,4.481578 59.595928,2.7214852 68.355163,15.679361 c 5.974973,8.839011 6.709738,16.392862 2.752628,28.29872 -1.832024,5.512055 -4.723454,12.544991 -6.425399,15.628746 -1.701944,3.083754 -3.497112,7.99019 -3.98926,10.903189 -0.801616,4.744724 -0.525125,5.538592 2.654629,7.622047 4.408026,2.888249 15.191992,4.658144 18.318906,3.006549 C 83.426745,80.208961 84,78.221197 84,73.047752 c 0,-3.772133 0.579191,-8.701023 1.287089,-10.953088 0.707899,-2.252065 1.610323,-5.708779 2.005388,-7.681585 0.426384,-2.129207 5.005968,-7.818766 11.268743,-14 10.87522,-10.73363 17.24921,-14.092154 36.10545,-19.024362 3.3,-0.863177 7.8426,-2.128757 10.09466,-2.812398 2.25207,-0.683642 7.65207,-1.242702 12,-1.242354 15.90014,0.0013 46.32124,-4.149405 50.94512,-6.950985 5.00948,-3.0352183 13.42711,-3.5084837 15.11204,-0.8496467 1.76496,2.7851257 1.38884,9.6447877 -0.81849,14.9276757 -4.00739,9.591022 -2.05224,11.033267 7.53057,5.555051 3.19152,-1.8245 7.07998,-3.3245 8.641,-3.333333 3.77154,-0.02135 6.41135,6.29463 5.10907,12.223865 -1.56933,7.145133 -7.45003,20.338723 -12.37331,27.760075 -4.89653,7.381038 -22.17916,25.851596 -25.70473,27.471566 -1.76143,0.809362 -6.2026,2.86779 -9.86927,4.574284 -6.03516,2.808813 -8.76829,3.129593 -28.85286,3.386373 -26.40039,0.33754 -31.95208,1.12384 -35.63814,5.04746 -2.45574,2.61402 -2.61408,3.57989 -1.35093,8.2407 0.78698,2.90379 2.50317,6.47962 3.81377,7.94628 1.31059,1.46667 3.417,4.76667 4.68091,7.33334 4.00591,8.13497 15.14216,18.38882 22.61804,20.82588 3.70107,1.20649 7.43471,2.75077 8.29696,3.4317 0.86227,0.68095 2.36227,1.0975 3.33333,0.92568 2.81426,-0.49793 19.96774,1.45034 25.28583,2.87194 2.92709,0.78245 6.82124,3.47541 9.81092,6.78464 4.51964,5.00269 4.88367,5.97313 4.12265,10.99034 -1.05328,6.94412 -5.90904,11.57707 -11.86149,11.31724 -2.34244,-0.10225 -9.35899,-0.66522 -15.59232,-1.25105 z M 97.333333,161.33333 c 0,-0.73333 -0.45,-1.34152 -1,-1.35153 -0.55,-0.0107 -2.35,-0.38 -4,-0.82219 -1.707861,-0.45768 -3,-0.20481 -3,0.58711 0,1.30659 2.533147,2.41261 6.333334,2.76528 0.916666,0.0851 1.666666,-0.44533 1.666666,-1.17867 z m 41.333337,-4.69316 c 0,-1.13845 -6.73725,-11.45917 -11.87268,-18.18764 C 124.15729,134.99792 118.4,126.34716 114,119.22861 105.58725,105.61804 101.56187,100.88652 95.898063,97.951199 c -3.41873,-1.771787 -21.657516,-5.531182 -33.382015,-6.88073 -5.637896,-0.64895 -6.212213,-0.445205 -6.889492,2.444115 -1.04832,4.472203 0.915691,15.374686 3.268847,18.145806 1.092705,1.28678 3.655672,5.33961 5.695482,9.00628 3.969095,7.13465 11.610028,14.94388 17.679918,18.06932 2.051058,1.0561 7.029197,4.17177 11.06253,6.92369 7.961237,5.43192 14.014317,6.69432 12.819837,2.67365 -2.34153,-7.88166 -2.3875,-9.66044 -0.27065,-10.47274 3.31654,-1.27268 9.38878,1.82305 15.31364,7.80714 6.53482,6.60015 17.47051,13.46836 17.47051,10.97244 z m -18.5615,-58.471039 c 4.86073,-6.179411 10.576,-7.64179 34.99596,-8.954488 31.30338,-1.682719 35.47423,-2.801532 50.94214,-13.664968 2.66489,-1.871608 15.29006,-21.208871 15.29006,-23.418924 0,-1.968462 -7.49369,-2.722263 -12.71917,-1.27944 -2.76684,0.763962 -7.67437,0.992566 -10.90563,0.508009 -3.27913,-0.491737 -6.57464,-0.306572 -7.45844,0.419069 -0.87088,0.715044 -9.98342,1.662774 -20.25009,2.106066 -37.58701,1.622925 -48.07285,5.650996 -55.48238,21.31322 -4.38798,9.275265 -4.90306,16.609808 -1.56348,22.263269 2.77468,4.697156 3.9238,4.810956 7.15103,0.708187 z m -8.40244,-40.430583 c 8.02759,-8.036889 18.1644,-13.387715 28.14882,-14.858648 24.67956,-3.635864 39.08552,-5.544528 48.00818,-6.360664 8.16639,-0.74696 10.57066,-1.537045 13.9991,-4.600349 5.44464,-4.864788 3.91862,-6.009086 -4.06574,-3.048747 -4.60021,1.705607 -12.409,2.659741 -27.12642,3.314507 -30.85772,1.372833 -46.32355,3.412462 -51.21975,6.754854 C 105.5193,48.447175 98.619573,59.162091 98.730799,71.11054 L 98.794932,78 102.71583,70.405215 c 2.15649,-4.177132 6.2006,-9.877132 8.9869,-12.666667 z M 58.666667,27.771655 c 0,-2.506638 -4.197323,-6.438322 -6.873318,-6.438322 -2.809152,0 -3.336398,3.923618 -0.860016,6.4 2.054822,2.054822 7.733334,2.08296 7.733334,0.03832 z"
       id="path410" />
  </g>
</svg>
