<?xml version="1.0" encoding="UTF-8" standalone="no"?>
<!-- Created with Inkscape (http://www.inkscape.org/) -->

<svg
   version="1.1"
   id="svg223"
   width="96"
   height="109.33333"
   viewBox="0 0 96 109.33333"
   xmlns="http://www.w3.org/2000/svg"
   xmlns:svg="http://www.w3.org/2000/svg">
  <defs
     id="defs227" />
  <g
     id="g229">
    <path
       style="fill:#000000;stroke-width:1.33333"
       d="M 8.2161749,100.92714 C 6.7722256,99.187286 6.7344351,97.089578 8.0143939,89.726507 8.880598,84.743593 10.301956,75.566664 11.172967,69.333331 c 0.871012,-6.233333 1.975305,-11.964371 2.453986,-12.735642 0.47868,-0.771269 1.552403,-7.971269 2.38605,-16 2.634493,-25.372409 4.958973,-32.0385723 11.8156,-33.88487 4.476192,-1.2053132 42.727578,-0.5305824 44.085181,0.7776353 1.489367,1.4351877 4.048132,10.9909077 4.066141,15.1850147 0.01107,2.571508 0.679831,6.771507 1.4862,9.333333 0.80637,2.561825 2.262543,8.557863 3.235942,13.32453 0.973398,4.766666 2.382568,10.766666 3.131488,13.333333 0.74892,2.566666 2.600405,8.866666 4.114413,13.999999 1.514008,5.133334 3.435564,12.521424 4.270123,16.417979 2.060057,9.618401 0.294077,11.365807 -11.874002,11.749127 -4.955916,0.15612 -22.81236,0.72267 -39.680986,1.25901 -27.29599,0.86786 -30.865697,0.73962 -32.4469281,-1.16564 z M 34.472235,88.900831 c 5.215981,-4.21165 8.51116,-21.801224 8.584724,-45.82504 0.06626,-21.638549 -0.659075,-24.409125 -6.390292,-24.409125 -4.265407,0 -5.642516,2.295253 -6.399799,10.666666 -0.364857,4.033334 -1.317489,10.633333 -2.116959,14.666667 -1.462885,7.380266 -2.79408,15.794991 -5.564953,35.177093 -1.227261,8.58462 -1.174204,10.721851 0.289567,11.664301 2.07759,1.337658 8.964978,0.185239 11.597712,-1.940562 z m 44.544221,-0.45035 C 80.590831,87.477465 79.212923,78.259308 76.669749,72.751088 74.163083,67.321937 71.066692,54.752384 67.550648,35.732819 65.964459,27.152537 64.003453,19.469325 63.19286,18.659013 c -1.938493,-1.937818 -8.282255,-0.30651 -9.699949,2.494357 -0.60688,1.19898 -0.379775,12.679962 0.504678,25.513295 1.414294,20.521294 2.033575,24.232621 5.138586,30.795321 1.94177,4.104094 3.530492,8.124279 3.530492,8.933746 0,3.722057 11.345064,5.147841 16.349789,2.054749 z"
       id="path549" />
  </g>
</svg>
