<?xml version="1.0" encoding="UTF-8" standalone="no"?>
<!-- Created with Inkscape (http://www.inkscape.org/) -->

<svg
   version="1.1"
   id="svg213"
   width="209.33333"
   height="216"
   viewBox="0 0 209.33333 216"
   xmlns="http://www.w3.org/2000/svg"
   xmlns:svg="http://www.w3.org/2000/svg">
  <defs
     id="defs217" />
  <g
     id="g219">
    <path
       style="fill:#000000;stroke-width:1.33333"
       d="m 114.55198,207.78572 c -0.95274,-1.78021 -1.30291,-6.60385 -0.9165,-12.62489 0.55516,-8.65062 0.31148,-10.02915 -2.17174,-12.28576 -4.39658,-3.99538 -8.15577,-5.53087 -17.812859,-7.2759 l -8.984216,-1.62345 -0.442874,-8.65452 c -0.24358,-4.76 0.486037,-18.55453 1.621372,-30.65453 2.424398,-25.83838 4.835622,-60.657325 4.827337,-69.708517 -0.0067,-7.274901 1.403408,-8.407624 8.750425,-7.029316 5.150295,0.966202 14.349735,8.450935 17.171635,13.970962 2.58516,5.056961 4.55748,29.410391 6.83563,84.403951 1.46725,35.41876 1.62932,49.71654 0.58565,51.66666 -1.94287,3.63028 -7.47998,3.52222 -9.46386,-0.18469 z M 111.88676,131 c 0.10189,-38.251821 -0.80906,-46.770907 -5.81883,-54.41678 -3.63989,-5.55518 -4.7346,-3.750945 -4.7346,7.803315 0,6.079261 -0.89306,14.481894 -1.984578,18.672515 -1.09152,4.19063 -1.941538,8.96669 -1.88893,10.61347 0.193876,6.06886 -1.249072,31.20953 -2.182602,38.02776 -0.7922,5.78599 -0.540346,7.50065 1.419862,9.66667 1.310586,1.44817 3.121307,2.63305 4.023828,2.63305 0.90251,0 3.35952,0.89631 5.46001,1.99179 2.10049,1.09548 4.22142,1.99548 4.71318,2 0.49176,0.004 0.93845,-16.64179 0.99266,-36.99179 z M 36.464623,43.962965 c -3.047777,-1.182721 -4.90052,-3.446674 -11.235703,-13.729434 -2.179894,-3.538224 -4.669263,-6.197862 -5.531934,-5.910304 -0.862672,0.287557 -2.2896,3.349562 -3.17095,6.804457 C 13.528012,42.879921 8.8621189,46.918564 4.8690162,41.217611 3.1188341,38.718876 3.2515321,37.665433 6.1706652,30.884277 13.793018,13.177527 16.544996,8.6805628 20,8.2859656 c 2.849202,-0.3254084 4.34928,1.1753973 10.328322,10.3333334 3.847244,5.892718 7.524452,10.714034 8.171573,10.714034 0.64712,0 1.882992,-1.95 2.746382,-4.333333 0.863389,-2.383333 2.886181,-7.033333 4.495093,-10.333333 2.478292,-5.0831605 3.523095,-6.0000003 6.83742,-6.0000003 3.19544,0 4.595036,1.0991736 7.639896,6.0000003 2.050274,3.3 4.324968,7.35 5.054874,9 0.729907,1.65 2.391954,2.995318 3.693438,2.989597 2.16485,-0.0095 5.644693,-5.217529 5.738751,-8.588751 C 74.771221,15.720927 82.487712,8 84.76748,8 c 2.506917,0 5.806647,3.566128 11.412002,12.333333 2.227087,3.483334 4.777788,6.333334 5.668218,6.333334 2.20773,0 4.81896,-2.779422 4.81896,-5.129344 C 106.66666,18.891627 115.75697,8 117.96511,8 c 1.78361,0 10.10053,9.394703 14.45954,16.333333 C 133.69157,26.35 135.27221,28 135.9372,28 c 0.66498,0 2.54777,-2.680509 4.18397,-5.956687 4.40888,-8.827937 10.10407,-15.2447782 12.87404,-14.5053425 1.28596,0.3432859 4.13812,3.6700795 6.33812,7.3928735 C 164.12657,23.04186 167.84793,28 169.14248,28 c 0.5219,0 2.67442,-3.633267 4.78337,-8.073925 4.05409,-8.536422 8.01996,-12.4619953 10.93935,-10.8282231 0.96994,0.5428109 3.72208,3.9166161 6.11584,7.4973451 13.34416,19.960963 14.83038,23.67487 10.41897,26.035782 -4.96623,2.657846 -8.02655,0.336738 -12.86356,-9.756438 C 186.02157,27.626877 183.542,23.633333 183.0263,24 c -0.5157,0.366667 -2.91393,4.678244 -5.32938,9.581283 -2.63055,5.339668 -5.48166,9.260545 -7.10962,9.777237 -3.78932,1.202687 -8.84353,-2.461845 -11.21129,-8.128709 -1.08419,-2.594806 -3.25035,-6.514162 -4.81369,-8.70968 l -2.84244,-3.991854 -3.19328,4.328235 c -1.7563,2.380528 -3.21484,5.261665 -3.24122,6.402528 -0.0633,2.741769 -5.41877,9.107024 -7.95205,9.451567 -5.03796,0.685197 -6.71983,-0.64499 -11.95284,-9.453451 -3.07455,-5.175232 -6.27327,-9.181787 -7.10826,-8.903455 -0.83499,0.278331 -3.33783,4.186564 -5.56187,8.684962 -6.41507,12.975325 -14.412022,14.012193 -20.171912,2.615446 -2.809357,-5.558704 -7.27306,-10.436162 -8.72796,-9.536985 -0.624371,0.385881 -2.634312,3.978959 -4.466539,7.984615 C 73.312425,47.287997 66.073651,46.665448 58.853791,32.339543 56.817275,28.298615 54.545563,25.490248 53.464451,25.677061 52.436567,25.854677 49.835774,29.3 47.68491,33.333333 42.463934,43.123791 40.092191,45.370681 36.464623,43.962965 Z"
       id="path688" />
  </g>
</svg>
