<?xml version="1.0" encoding="UTF-8" standalone="no"?>
<!-- Created with Inkscape (http://www.inkscape.org/) -->

<svg
   version="1.1"
   id="svg203"
   width="226.66667"
   height="209.33333"
   viewBox="0 0 226.66667 209.33333"
   xmlns="http://www.w3.org/2000/svg"
   xmlns:svg="http://www.w3.org/2000/svg">
  <defs
     id="defs207" />
  <g
     id="g209">
    <path
       style="fill:#000000;stroke-width:1.33333"
       d="M 33.70829,201.72061 C 32.435539,198.40388 34.538366,196 38.712477,196 c 2.271225,0 5.321698,-0.63804 6.778828,-1.41788 1.457129,-0.77983 5.167685,-1.43086 8.245678,-1.44672 7.401153,-0.0381 18.430886,-5.0892 20.789306,-9.52046 1.628428,-3.05965 1.582793,-3.91653 -0.367063,-6.8924 -2.433722,-3.71432 -11.663996,-10.05588 -14.636564,-10.05588 -3.870607,0 -25.785815,-10.30493 -30.42229,-14.3051 -2.065472,-1.78202 -6.764464,-10.66242 -10.228886,-19.33107 -0.853318,-2.13516 -3.53472,-4.6141 -6.495673,-6.0052 -5.6257762,-2.64307 -7.2298265,-7.00993 -3.6369742,-9.90128 1.2238261,-0.98487 4.0566692,-3.49295 6.2952072,-5.57351 11.713712,-10.88702 18.463662,-9.36198 68.299289,15.43111 5.866666,2.91865 14.822225,6.74193 19.901245,8.4962 5.07901,1.75425 10.47902,3.99673 12,4.98328 1.52098,0.98656 4.26542,2.13647 6.09876,2.55539 1.83333,0.4189 8.43333,2.6177 14.66666,4.88621 8.48051,3.08633 12.60298,3.92196 16.3772,3.31967 3.49328,-0.55747 6.04068,-0.15176 8.28642,1.31969 4.0798,2.6732 9.17477,2.7292 11.33638,0.12467 0.91292,-1.1 2.95304,-2 4.5336,-2 1.58058,0 3.87374,-1.1679 5.09594,-2.59531 3.2307,-3.77319 11.935,-5.84969 16.26013,-3.87903 1.89401,0.86298 3.44367,2.67274 3.44367,4.0217 0,1.34894 1.2,3.65264 2.66666,5.1193 3.85434,3.85434 3.36102,8.6941 -1.31044,12.85638 -5.09309,4.53797 -6.12209,10.12796 -3.36125,18.25982 1.69391,4.98928 1.82512,6.82734 0.59336,8.31152 -2.24116,2.70043 -3.94108,2.38592 -7.97065,-1.47465 -2.29275,-2.19659 -5.91804,-3.75804 -10.35291,-4.45911 -3.75357,-0.59336 -7.68117,-1.78966 -8.72801,-2.65846 -3.49302,-2.89894 -27.95323,-8.2197 -41.63556,-9.05686 l -13.51632,-0.827 -0.94362,3.75968 c -0.68257,2.71959 -0.23879,4.70888 1.60416,7.19084 2.26243,3.04688 3.95192,3.58051 15.08451,4.76451 11.98381,1.27453 12.55197,1.48035 12.88213,4.66667 0.70615,6.81474 -0.12133,7.03421 -28.54914,7.57156 -70.172682,1.32644 -83.411609,1.24494 -84.08797,-0.51762 z m 69.45462,-14.10199 c 3.32005,-4.4639 2.38806,-6.56069 -5.292765,-11.90766 -6.747233,-4.69704 -7.668305,-4.61138 -6.691488,0.62237 0.580672,3.11123 0.03075,5.61013 -1.949922,8.86055 -3.333268,5.47016 -1.911582,7.01469 5.971305,6.48733 3.905152,-0.26125 5.88803,-1.27289 7.96287,-4.06259 z m 82.62579,-17.2159 c 1.05173,-4.02187 -1.36355,-6.47246 -6.30947,-6.4017 -2.28024,0.0327 -9.54589,-0.48973 -16.14589,-1.16077 -6.96502,-0.70816 -16.41327,-0.73647 -22.51826,-0.0675 -11.04483,1.21032 -14.60785,2.42962 -8.0373,2.75042 21.30125,1.04002 35.33292,2.78208 41.35685,5.13453 8.54452,3.33677 10.72728,3.28901 11.65407,-0.25501 z m -84.45537,-5.65736 c 0,-0.32339 -0.6,-0.9588 -1.33333,-1.41203 -0.733332,-0.45323 -1.333332,-0.18864 -1.333332,0.58797 0,0.77662 0.6,1.41203 1.333332,1.41203 0.73333,0 1.33333,-0.26459 1.33333,-0.58797 z m 3.70687,-14.25834 c 0.22863,-1.15629 -2.61635,-3.3322 -7.333329,-5.60868 -4.238779,-2.0457 -8.60687,-4.24809 -9.70687,-4.89418 -6.637586,-3.89863 -19.414811,-9.3175 -21.969887,-9.3175 -1.652102,0 -4.529376,1.2 -6.393941,2.66667 C 57.771609,134.8 55.590694,136 54.789695,136 c -3.998832,0 0.422154,8.42448 6.706382,12.77945 3.596667,2.49248 6.183908,3.33771 8.728067,2.85136 4.317009,-0.82524 20.577385,1.30405 22.177477,2.90413 1.60553,1.60554 12.191129,-1.78485 12.638579,-4.04792 z M 36.000001,138.76897 c 0,-4.04999 5.647877,-12.10231 8.488516,-12.10231 0.87164,0 2.987457,-0.98245 4.701814,-2.18324 l 3.117014,-2.18324 -5.153672,-2.43818 C 40.12367,116.53613 37.776791,116.71828 36.785809,120.66666 36.22201,122.91302 35.025957,124 33.11799,124 c -2.66878,0 -2.782555,0.46547 -1.983186,8.11342 0.466412,4.46239 1.187296,8.66239 1.601964,9.33334 1.545959,2.50141 3.263233,1.09222 3.263233,-2.67779 z M 114.66667,65.333332 C 112.83333,64.746196 107.98906,64.206004 103.90162,64.132906 92.882957,63.935851 72.608689,60.229767 62.000001,56.473398 43.184362,49.811075 22.661016,36.232769 14.173564,24.831285 3.5818465,10.603068 8.1254424,7.90428 42.330414,8.1067848 c 13.018273,0.077072 55.937334,0.060133 95.375696,-0.037641 39.43836,-0.097776 72.35692,0.2244558 73.15237,0.7160694 0.84342,0.5212596 1.15927,3.0335808 0.75775,6.0271638 -0.55127,4.109928 0.20977,6.800088 3.81733,13.493805 6.23935,11.576895 6.40271,20.578319 0.46414,25.575292 -8.38011,7.051405 -19.76106,3.067707 -24.4068,-8.543176 -1.17479,-2.936064 -2.89083,-5.334106 -3.81343,-5.328984 -0.92261,0.0051 -6.07405,3.005123 -11.44767,6.666667 -5.37361,3.661544 -10.54545,6.657351 -11.49297,6.657351 -0.94752,0 -5.55093,1.272183 -10.2298,2.827072 -4.67887,1.55489 -10.90703,3.310006 -13.84036,3.900258 -10.25279,2.063088 -17.34341,4.102264 -18.6,5.349136 -1.44731,1.436117 -2.71795,1.422988 -7.4,-0.07647 z m 26,-15.830979 c 14.70679,-4.585763 37.94591,-16.619534 43.91336,-22.739387 2.88569,-2.959376 4.86159,-5.765796 4.39089,-6.236492 -1.02828,-1.028273 4.9228,-0.977469 -87.30425,-0.7453 -41.250002,0.10384 -74.978426,0.645558 -74.952052,1.203814 0.10996,2.327529 6.395773,8.232262 12.591584,11.828205 3.651743,2.11941 7.851743,4.567149 9.333333,5.439418 8.069927,4.751083 14.060061,7.554586 20.027133,9.3731 20.243477,6.169367 55.302422,7.083159 72.000002,1.876642 z m 68.44317,-7.979794 c 0.47519,-3.342109 -4.29017,-9.52256 -7.34225,-9.52256 -2.47209,0 -2.24045,6.731542 0.35937,10.443308 2.62895,3.753342 6.38879,3.257576 6.98288,-0.920748 z"
       id="path827" />
  </g>
</svg>
