<?xml version="1.0" encoding="UTF-8" standalone="no"?>
<!-- Created with Inkscape (http://www.inkscape.org/) -->

<svg
   version="1.1"
   id="svg193"
   width="222.66667"
   height="214.66667"
   viewBox="0 0 222.66667 214.66667"
   xmlns="http://www.w3.org/2000/svg"
   xmlns:svg="http://www.w3.org/2000/svg">
  <defs
     id="defs197" />
  <g
     id="g199">
    <path
       style="fill:#000000;stroke-width:1.33333"
       d="m 25.76344,204.90512 c -1.336558,-1.70218 -3.616549,-5.30218 -5.066645,-8 C 19.22535,194.16759 17.043562,192 15.759532,192 8.2653944,192 3.5745894,185.58724 6.450949,179.27432 c 0.8685487,-1.90625 1.1360546,-6.62254 0.6629751,-11.68864 -0.7239461,-7.75257 -0.5164837,-8.75458 2.3798296,-11.49429 2.7066963,-2.56032 4.1524903,-2.89144 9.8395803,-2.25344 11.978577,1.34379 16.417961,11.6118 5.927488,13.70989 -7.753676,1.55074 -4.364796,7.2343 7.35713,12.33879 3.639875,1.58504 7.694467,3.85612 9.010206,5.04685 2.166172,1.96036 6.896036,2.05278 50.048714,0.97784 C 117.88793,185.2584 145.93334,184.87351 154,185.056 c 19.41858,0.4393 25.59086,-0.4668 27.50172,-4.0373 0.82976,-1.55042 2.34599,-7.06388 3.36938,-12.25215 1.0234,-5.18827 2.1521,-10.76171 2.50822,-12.38543 1.20103,-5.476 17.89572,-6.74238 23.84075,-1.80845 3.45233,2.86519 4.41029,12.11564 3.03187,29.27723 -1.23992,15.43718 -1.49442,16.43504 -4.48123,17.57061 -1.84176,0.70024 -30.95215,0.84401 -69.5778,0.34365 -49.249425,-0.63798 -68.031637,-0.45226 -72.681929,0.71868 -4.748436,1.19568 -8.375873,1.21242 -14.942144,0.0689 -8.364168,-1.45656 -8.849248,-1.3868 -13.691778,1.96908 -6.200315,4.29681 -9.955076,4.40684 -13.113619,0.38425 z m 175.5009,-18.16758 c 1.25541,-0.79424 2.1257,-4.27964 2.48756,-9.96226 0.46806,-7.35089 0.19265,-8.88025 -1.73224,-9.6189 -1.31508,-0.50464 -2.75292,-0.12734 -3.37979,0.88698 -2.20148,3.56208 -5.54925,16.0676 -4.81417,17.98322 0.84878,2.21188 4.51266,2.56206 7.43864,0.71096 z m -92.00285,-58.80853 c -1.06048,-0.67005 -3.74712,-0.88599 -5.9703,-0.47988 -2.22318,0.40612 -6.723178,-0.19507 -9.999999,-1.33596 -3.27682,-1.1409 -8.015258,-2.08309 -10.529859,-2.09376 -2.514601,-0.0107 -6.414602,-0.59809 -8.666667,-1.30536 C 47.235457,114.27877 45.701215,113.6188 34.666667,105.75369 19.788495,95.148959 5.3333334,80.265684 5.3333334,75.5516 c 0,-5.622856 -1.2558712,-5.556842 103.5273466,-5.441904 55.00198,0.06033 100.70914,0.545742 101.57146,1.078689 2.41278,1.491181 1.8628,5.464739 -1.13144,8.174484 -2.69558,2.439463 -2.6937,2.448619 1.35954,6.630495 5.17312,5.337309 9.6913,17.244736 8.68362,22.885226 -0.93134,5.21309 -8.10036,12.45475 -12.32986,12.45475 -6.44182,0 -16.15608,-7.76262 -18.34505,-14.65948 C 188.20219,105.20324 187.22782,104 186.50367,104 c -2.42225,0 -12.71329,5.17607 -14.44889,7.26733 -0.94304,1.1363 -2.4649,2.06601 -3.38188,2.06601 -0.91699,0 -4.39815,1.208 -7.73591,2.68446 -7.13096,3.15435 -29.22093,8.92362 -38.8588,10.14879 -3.70967,0.47158 -7.67718,1.33515 -8.8167,1.91905 -1.13951,0.58389 -2.93951,0.51341 -4,-0.15663 z m 27.40469,-15.44477 c 2.9336,-1.06698 8.91497,-3.12935 13.29194,-4.58305 4.37696,-1.4537 9.30688,-3.52684 10.95539,-4.60698 1.64849,-1.08014 5.86735,-3.53584 9.37521,-5.457112 7.17947,-3.932214 15.04462,-10.879727 15.04462,-13.289334 0,-2.688132 -2.86419,-2.982071 -22.10666,-2.268711 C 153.01867,82.657485 143.46667,82.936975 142,82.90014 103.13554,81.924079 24,81.56258 24,82.361104 c 0,3.285724 13.056994,13.005607 27.022387,20.115996 15.239561,7.75913 18.148406,8.64161 40.310948,12.22957 9.513695,1.5402 38.956255,0.0968 45.332845,-2.22243 z m 70.00049,-10.12461 c 0,-4.381491 -3.19385,-9.026295 -6.20665,-9.026295 -2.91428,0 -2.2338,8.892875 0.92194,12.048635 3.4073,3.40729 5.28471,2.33359 5.28471,-3.02234 z M 167.20666,39.890706 c -1.397,-1.52678 -4.35552,-6.431957 -6.57451,-10.900395 -2.21897,-4.468436 -4.75211,-8.363632 -5.62917,-8.655988 -0.89238,-0.297459 -3.36915,3.131629 -5.62388,7.786263 -4.42447,9.133779 -7.55796,13.212748 -10.15011,13.212748 -3.33331,0 -9.5933,-6.727175 -12.45911,-13.388932 -1.60871,-3.739546 -3.63294,-6.558696 -4.51076,-6.28217 -0.87585,0.275903 -3.39245,3.833407 -5.59245,7.905563 -5.34547,9.89435 -7.07405,11.765539 -10.86887,11.765539 -2.54447,0 -4.51248,-2.069444 -9.503404,-9.993236 -3.461917,-5.49628 -6.894395,-9.984398 -7.627728,-9.973595 -0.733333,0.0108 -3.300771,4.207759 -5.705415,9.326569 -4.227301,8.998731 -5.520999,10.101619 -10.961252,9.344567 -3.317347,-0.461634 -6.490447,-4.078333 -10.161921,-11.582559 -1.916391,-3.91696 -3.985926,-7.121746 -4.598966,-7.121746 -0.613041,0 -2.192631,1.528133 -3.5102,3.395853 -5.693767,8.071195 -6.718061,8.899272 -12.261993,9.913052 C 34.908674,35.841499 33.150976,34.693399 28.696795,26.301 27.246699,23.568783 25.416699,21.333334 24.630128,21.333334 22.60962,21.333334 20,24.188146 20,26.398495 c 0,1.025839 -0.968365,3.905839 -2.151921,6.4 -1.553728,3.274239 -3.029233,4.534839 -5.307931,4.534839 -4.6840211,0 -5.5556082,-5.3986 -2.117521,-13.115899 1.523441,-3.419589 3.970972,-9.074521 5.438959,-12.566518 4.398396,-10.4627516 10.470748,-10.3099359 16.805081,0.422913 2.2,3.727665 5.154235,8.313158 6.564967,10.189985 l 2.564967,3.412412 5.067102,-10.070616 c 3.015603,-5.993359 6.140364,-10.4112557 7.718004,-10.9119788 3.496786,-1.1098368 8.084961,1.4409831 8.084961,4.4948766 0,3.1460862 9.117802,15.1055572 11.030322,14.4680502 0.805402,-0.268467 3.370183,-4.280788 5.699515,-8.916269 C 84.114204,5.3518469 85.956325,3.7829303 90.319025,5.437687 93.063239,6.4785572 101.05476,17.489816 103.06504,23 c 1.48821,4.079188 3.3569,2.560691 7.4798,-6.07807 4.68001,-9.806081 8.22305,-13.5325606 11.69294,-12.298355 2.64482,0.9407343 10.57149,11.157764 12.41177,15.998068 0.96808,2.546223 5.11435,5.589143 6.00869,4.409743 0.15212,-0.200596 2.28571,-4.182014 4.74131,-8.847595 7.23412,-13.744654 12.773,-14.0046014 19.18431,-0.900348 1.98674,4.060773 4.36356,7.383224 5.28178,7.383224 2.1213,0 6.1602,-4.423215 10.65302,-11.666667 6.55598,-10.56976239 10.54097,-7.8034356 22.3682,15.527755 5.46432,10.779274 5.23508,14.805579 -0.84298,14.805579 -3.46606,0 -6.4312,-3.574561 -10.77093,-12.984703 -1.43345,-3.108253 -3.34764,-5.658253 -4.25375,-5.666667 -0.90612,-0.0084 -3.42986,3.5156 -5.60834,7.83114 -6.2851,12.450687 -9.46902,14.552714 -14.2042,9.377602 z"
       id="path966" />
  </g>
</svg>
