<?xml version="1.0" encoding="UTF-8" standalone="no"?>
<!-- Created with Inkscape (http://www.inkscape.org/) -->

<svg
   version="1.1"
   id="svg183"
   width="228"
   height="221.33333"
   viewBox="0 0 228 221.33333"
   xmlns="http://www.w3.org/2000/svg"
   xmlns:svg="http://www.w3.org/2000/svg">
  <defs
     id="defs187" />
  <g
     id="g189">
    <path
       style="fill:#000000;stroke-width:1.33333"
       d="M 97.486844,211.86873 C 91.33794,211.28861 85.33794,210.41017 84.153511,209.91665 82.96908,209.42312 78.1,208.25282 73.333333,207.31598 c -9.609394,-1.88864 -17.345202,-4.55941 -20.293554,-7.00633 -1.065168,-0.88401 -4.455158,-2.49587 -7.533307,-3.58189 -10.348012,-3.651 -32.824888,-23.31104 -36.3325643,-31.77932 -1.313792,-3.17178 -1.2056141,-4.15483 0.662811,-6.02326 2.0485073,-2.0485 10.3752523,-2.23056 100.8577113,-2.20509 92.21166,0.026 98.77692,0.17983 100.96333,2.36624 2.19523,2.19523 2.20233,2.57568 0.116,6.21083 -2.15947,3.76264 -2.13128,3.93208 0.99492,5.98044 5.85905,3.839 10.97184,21.64542 7.87601,27.43001 -3.13825,5.86388 -12.10424,8.36351 -18.39906,5.12947 C 197.55396,201.42666 192,195.68608 192,193.24713 c 0,-4.37229 -3.16624,-5.37159 -8.09116,-2.55364 -31.37239,17.95076 -56.1779,24.02864 -86.421996,21.17524 z m 36.933286,-12.05087 c 1.69774,-0.63316 4.35067,-1.1512 5.89539,-1.1512 7.07153,0 38.84695,-16.1244 47.68744,-24.19894 7.52284,-6.87106 6.25361,-7.16492 -29.45089,-6.81904 -17.90364,0.17344 -43.65207,0.21788 -57.21874,0.0988 -48.859481,-0.42903 -67.395578,-0.41219 -70.980445,0.0645 l -3.647113,0.48497 2.980447,3.7251 c 3.615858,4.51924 15.032794,13.30385 17.325318,13.33072 3.765232,0.0441 13.645498,4.32529 15.241787,6.60432 2.002433,2.85888 11.155767,5.72249 27.080009,8.47197 11.812247,2.03951 38.966337,1.67143 45.086797,-0.61116 z m 76.9135,-9.15212 C 212.42559,187.22526 207.39609,180 203.90921,180 c -1.98548,0 -2.57588,0.93692 -2.57588,4.08765 0,2.24821 0.62111,5.24821 1.38024,6.66667 1.85006,3.45685 7.51324,3.39866 8.62006,-0.0885 z M 92.666667,108.06428 C 84.6,107.66226 77.25,106.84792 76.333333,106.25464 71.872119,103.36728 77.160964,88.778335 85.908991,79.840791 88.50694,77.18656 94.690213,72.944956 99.6496,70.415004 c 8.75833,-4.467918 9.22749,-4.555622 16.3504,-3.056488 13.70842,2.885168 17.45497,4.782203 25.92131,13.125037 6.59752,6.501286 8.63397,9.510276 9.90858,14.640574 1.80052,7.247033 1.15323,10.834013 -2.21398,12.268833 -2.87962,1.22706 -37.58842,1.6362 -56.949243,0.67132 z M 137,97.826284 c 4.66199,-1.249365 3.5902,-4.678535 -3.70949,-11.868467 l -6.70949,-6.608604 -10.29051,-0.428749 c -9.66203,-0.402565 -10.73571,-0.158756 -17.580025,3.992059 -7.735325,4.691176 -11.704692,9.906772 -10.308554,13.545045 0.74298,1.936176 3.612032,2.206848 23.222889,2.190891 C 123.93117,98.638459 135.35,98.268467 137,97.826284 Z M 11,39.116958 C 8.5252905,38.118391 8.9808951,32.219412 11.897947,27.490712 13.308485,25.204153 15.749653,19.88852 17.322767,15.678192 20.369707,7.5232702 23.966336,3.8921743 27.961951,4.9370511 30.3566,5.5632662 38.619028,14.772445 38.714617,16.921816 c 0.02637,0.593001 1.438416,2.777726 3.137874,4.854946 l 3.089922,3.776763 5.13041,-10.105396 C 57.386979,1.0413965 60.982744,0.72693399 67.589344,13.916248 c 3.602147,7.191266 6.786765,11.417085 8.604032,11.417085 0.612375,0 2.879305,-3.894604 5.037625,-8.654675 6.80001,-14.9970998 13.638992,-14.6147792 22.000469,1.229896 2.25603,4.275078 4.70186,7.793023 5.4352,7.817656 C 109.4,25.75085 111.8,22.496437 114,18.494193 c 2.2,-4.002244 5.05269,-8.7380593 6.3393,-10.5240334 2.25832,-3.1347986 2.46605,-3.1711235 6,-1.0491708 2.01339,1.2089304 5.96389,5.5462702 8.7789,9.6385332 2.81501,4.092263 5.81501,7.42241 6.66667,7.400327 0.85165,-0.02208 4.46038,-4.522083 8.0194,-10 3.55901,-5.4779169 7.28564,-9.9598491 8.2814,-9.9598491 2.75754,0 7.06541,5.1704224 11.38669,13.6666661 2.14465,4.216667 4.49564,7.666667 5.22441,7.666667 0.72879,0 3.5525,-4.501573 6.27492,-10.003497 4.98631,-10.0771466 8.24431,-12.8603015 11.69856,-9.9935219 2.59092,2.1502661 8.66308,12.7140319 8.66308,15.0711859 0,1.062956 0.93956,2.712414 2.08792,3.665464 3.27716,2.719802 6.12743,9.148043 5.26336,11.870498 -2.19282,6.908993 -9.00778,2.055021 -14.30613,-10.189581 -1.67483,-3.870583 -3.64515,-6.853416 -4.37848,-6.628519 -0.73333,0.224899 -3.21259,4.220018 -5.50947,8.878044 -7.71102,15.637853 -11.06538,15.35092 -20.76861,-1.776553 -1.25295,-2.211612 -3.19708,-4.940108 -4.32029,-6.063324 -1.83406,-1.834057 -2.24904,-1.776593 -4.07144,0.563797 -1.11608,1.433304 -2.38374,4.189938 -2.81702,6.125852 -0.97356,4.349918 -7.60834,11.813488 -10.50168,11.813488 -2.68353,0 -8.19534,-5.852986 -11.38448,-12.089197 -4.62651,-9.046903 -5.8049,-8.970464 -11.2288,0.728376 C 112.10051,40.355333 106.10553,43.066957 102,35.175326 97.530548,26.584174 92.994389,20 91.54498,20 c -0.921769,0 -2.479431,2.25 -3.461471,5 -2.416672,6.767394 -9.075917,14.999999 -12.133301,14.999999 -2.7668,0 -4.952689,-2.643024 -10.751533,-12.999999 -2.155606,-3.85 -4.657147,-6.974564 -5.558979,-6.943475 -0.901833,0.03109 -3.433487,3.668224 -5.625899,8.082525 C 46.661813,42.94187 43.410596,43.370057 34.935444,30.651681 28.632861,21.193604 26.068987,19.565444 24.880859,24.266628 23.688029,28.98642 16.266883,40.012918 14.362699,39.894737 13.429881,39.836842 11.916667,39.486842 11,39.116958 Z"
       id="path1124" />
  </g>
</svg>
