<?xml version="1.0" encoding="UTF-8" standalone="no"?>
<!-- Created with Inkscape (http://www.inkscape.org/) -->

<svg
   version="1.1"
   id="svg173"
   width="225.33333"
   height="213.33333"
   viewBox="0 0 225.33333 213.33333"
   xmlns="http://www.w3.org/2000/svg"
   xmlns:svg="http://www.w3.org/2000/svg">
  <defs
     id="defs177" />
  <g
     id="g179">
    <path
       style="fill:#000000;stroke-width:1.33333"
       d="m 8.8476443,208.65717 c -2.8637631,-2.86377 -2.3535189,-45.5544 0.5665554,-47.40204 3.0946223,-1.95808 8.8917203,-1.45173 9.7764813,0.85392 1.387963,3.61697 0.895984,43.23765 -0.570927,45.9786 -1.649684,3.08247 -6.950247,3.39137 -9.7721097,0.56952 z m 97.0459857,-2.16261 c -0.51172,-0.82799 -1.19098,-12.14128 -1.50946,-25.14066 -0.51546,-21.03949 -0.32765,-23.88661 1.71006,-25.92433 2.30192,-2.30191 7.78755,-1.99203 10.4302,0.58921 1.5323,1.49668 3.28409,19.85955 3.39167,35.55264 0.0647,9.43058 -0.39677,12.71876 -2.01134,14.33334 -2.41526,2.41526 -10.63352,2.81881 -12.01113,0.5898 z m 99.52929,-2.40498 c -2.40382,-2.40381 -2.53264,-4.12952 -1.91594,-25.66666 C 204.20668,153.98729 204.77092,152 211.00916,152 c 6.79637,0 7.22182,1.22454 8.22798,23.6822 1.03054,23.00152 0.31471,26.87893 -5.4469,29.5041 -4.42016,2.01396 -5.38283,1.88778 -8.36732,-1.09672 z M 37.179289,131 c -1.825792,-2.01667 -5.019648,-6.21667 -7.097457,-9.33334 C 28.004022,118.55 25.795705,116 25.17446,116 c -1.416407,0 -7.841127,12.52723 -7.841127,15.28901 0,1.37214 -1.285671,2.04432 -3.910149,2.04432 -5.970039,0 -6.3490156,-3.8267 -1.422108,-14.35969 11.323428,-24.207789 13.086469,-24.904813 22.441975,-8.8725 3.177011,5.44437 6.619468,9.89886 7.649904,9.89886 1.030436,0 3.965806,-4.15473 6.523044,-9.23272 4.43142,-8.79963 8.154615,-12.096484 11.397423,-10.09232 0.75384,0.4659 2.927609,3.95463 4.830598,7.75273 C 68.775307,116.274 71.710794,120 73.961128,120 c 1.755039,0 7.372204,-9.35848 7.372204,-12.28246 0,-2.72617 5.687841,-7.722882 8.752601,-7.68907 2.853031,0.0315 8.441134,7.18784 11.690627,14.97153 1.14805,2.75 3.01044,5 4.13864,5 1.19955,0 3.96757,-3.80527 6.66643,-9.16449 4.1509,-8.24257 6.57675,-10.835512 10.13729,-10.835512 0.64212,0 4.51861,4.200002 8.61441,9.333332 4.0958,5.13333 8.2234,9.33333 9.17243,9.33333 0.94902,0 3.77346,-3.96695 6.27654,-8.81545 7.64124,-14.801283 11.94214,-14.448747 19.8565,1.6276 2.34596,4.76533 4.92432,8.44459 5.72969,8.17614 0.80536,-0.26846 3.91855,-4.95065 6.91819,-10.40486 8.74105,-15.89379 10.36924,-15.091246 25.35633,12.49835 4.03179,7.42208 3.53491,11.58489 -1.3828,11.58489 -3.36685,0 -7.57183,-5.40642 -11.19608,-14.39502 -2.55599,-6.33918 -5.36688,-4.99313 -10.36891,4.96535 -5.99714,11.93963 -8.60212,13.26342 -14.20645,7.2194 -1.8072,-1.94898 -4.63013,-6.15739 -6.2732,-9.35202 -4.93088,-9.5872 -5.78936,-9.60097 -10.55736,-0.16926 -5.06272,10.0147 -7.58503,13.06488 -10.80379,13.06488 -2.37528,0 -9.07466,-7.8998 -13.45908,-15.87071 -1.24922,-2.27111 -2.80489,-4.12929 -3.45704,-4.12929 -0.65215,0 -2.60338,2.85 -4.33608,6.33334 -5.46755,10.99168 -7.78438,13.66666 -11.83683,13.66666 -3.09261,0 -4.52086,-1.29798 -8.471999,-7.69934 -2.613768,-4.23464 -5.876391,-8.71662 -7.250274,-9.95997 -2.398242,-2.17038 -2.694724,-1.863 -7.426296,7.69934 -4.178314,8.44423 -5.438607,9.95997 -8.281391,9.95997 -3.84655,0 -7.6735,-3.92947 -12.604802,-12.94248 -1.868512,-3.4151 -4.16029,-6.45447 -5.092838,-6.75414 -1.030887,-0.33126 -3.248089,2.87922 -5.656108,8.18999 -3.543919,7.81595 -6.851191,11.50663 -10.311239,11.50663 -0.644344,0 -2.665364,-1.65 -4.491154,-3.66666 z M 75.471434,84.614289 C 72.195479,81.338336 72.903199,74.903763 77.291647,68.064959 84.235587,57.243767 95.100293,51.732339 110,51.472725 c 13.65916,-0.237998 30.85717,10.349749 34.62798,21.318306 2.06772,6.014614 0.45264,10.96669 -3.85657,11.824765 -1.52428,0.303524 -16.35927,0.908425 -32.96664,1.344228 -26.616687,0.69846 -30.448631,0.538972 -32.333336,-1.345735 z m 61.614386,-8.981858 c 0.5134,-2.664287 -5.99925,-9.323984 -12.30894,-12.586853 -2.24893,-1.162963 -8.0163,-2.395478 -12.81638,-2.738922 -7.04637,-0.504165 -10.07204,-0.04601 -15.708073,2.378546 -7.380627,3.17506 -13.585762,9.236101 -13.585762,13.270275 0,2.261003 1.747106,2.405467 26.981465,2.231032 24.70004,-0.17074 27.02004,-0.386701 27.43769,-2.554078 z M 68.8394,38.337722 c -1.825728,-1.652415 -4.924365,-6.154389 -6.88586,-10.004389 -1.961494,-3.85 -4.290636,-7 -5.175869,-7 -2.131796,0 -6.778834,6.420891 -7.893632,10.906764 -1.902768,7.656612 -9.944692,10.587294 -13.061392,4.759902 -2.555731,-4.778533 -10.958469,-15.666666 -12.090491,-15.666666 -0.567582,0 -3.147051,4.2 -5.732156,9.333333 -2.585106,5.133333 -5.249791,9.333333 -5.921524,9.333333 -1.898916,0 -5.4118094,-3.974154 -5.4118094,-6.122408 0,-2.766823 10.1333954,-23.820511 12.7008464,-26.3879617 3.681361,-3.6813611 8.343185,-2.719214 10.548248,2.1770372 3.339523,7.4152785 9.404118,14.9815335 12.35159,15.4099785 2.255027,0.327792 2.993014,-0.474079 3.681324,-4 1.492523,-7.645545 4.868926,-14.0507091 8.208839,-15.5724754 2.751442,-1.253641 3.622925,-1.010235 5.945068,1.6604638 1.496557,1.7211923 4.419813,6.3413106 6.496124,10.2669286 2.07631,3.925618 4.412004,7.349786 5.190429,7.60926 0.778425,0.259476 3.178711,-3.018561 5.333967,-7.284524 4.784839,-9.4707767 8.366405,-12.9762806 12.060077,-11.803955 3.019866,0.9584688 9.260974,8.387842 12.712351,15.132695 1.24349,2.430106 2.91394,4.200692 3.7121,3.934639 0.79817,-0.266055 3.61297,-4.654321 6.25512,-9.751707 3.96145,-7.6426475 5.44126,-9.3414104 8.43822,-9.6867438 2.78313,-0.3206948 4.19019,0.4599882 6.0078,3.3333333 5.47539,8.6556735 10.45243,14.9875135 11.81791,15.0348385 1.5774,0.05467 5.87332,-4.197969 5.87332,-5.814152 0,-0.543462 1.85274,-3.680981 4.1172,-6.972266 3.37649,-4.9075652 4.75578,-5.9102861 7.66666,-5.5735668 2.79664,0.3235023 4.4188,2.0475152 7.64823,8.1283998 2.25433,4.244797 5.02335,8.642387 6.15337,9.772421 1.8506,1.850588 2.33728,1.695256 4.90124,-1.564292 1.56564,-1.990394 2.84663,-4.403688 2.84663,-5.362874 0,-2.64519 5.19643,-10.8918952 7.39479,-11.7354826 4.31364,-1.6553037 7.06578,1.6439034 16.45693,19.7282466 6.17156,11.884443 6.52177,13.600999 3.00279,14.717883 -4.20906,1.335902 -6.27839,-0.427529 -10.24812,-8.73317 -5.08931,-10.648057 -6.36739,-11.567236 -9.63466,-6.929133 -1.44204,2.047056 -3.03266,5.045569 -3.53473,6.663361 -1.18001,3.802248 -8.51136,9.97063 -11.22853,9.44735 -1.15644,-0.222708 -4.57292,-4.601294 -7.59219,-9.73019 -3.01927,-5.128897 -6.41625,-9.504465 -7.54887,-9.723485 -1.34817,-0.260707 -2.84057,1.554429 -4.32182,5.256446 -6.91088,17.272008 -14.30494,17.405881 -23.87849,0.432335 -1.57691,-2.795788 -3.4671,-5.272149 -4.20043,-5.503025 -0.73334,-0.230876 -3.28284,3.129128 -5.66557,7.466677 -8.71659,15.867769 -12.09697,16.20059 -21.315751,2.09868 -5.029724,-7.693937 -6.886544,-9.618364 -8.104908,-8.4 -0.869242,0.869241 -1.580439,2.291855 -1.580439,3.161363 0,3.807718 -6.175029,12.848075 -10.253878,15.011865 -2.458679,1.304306 -3.445507,1.074196 -6.240054,-1.455067 z"
       id="path1263" />
  </g>
</svg>
