<?xml version="1.0" encoding="UTF-8" standalone="no"?>
<!-- Created with Inkscape (http://www.inkscape.org/) -->

<svg
   version="1.1"
   id="svg175"
   width="108"
   height="208"
   viewBox="0 0 108 208"
   xmlns="http://www.w3.org/2000/svg"
   xmlns:svg="http://www.w3.org/2000/svg">
  <defs
     id="defs179" />
  <g
     id="g181">
    <path
       style="fill:#000000;stroke-width:1.33333"
       d="m 51.333333,201.69528 c -7.927846,-0.81941 -18.013565,-4.66511 -23.77795,-9.06655 -7.170682,-5.47521 -14.22205,-15.77737 -14.22205,-20.77864 0,-2.03098 -0.6,-4.06353 -1.333333,-4.51676 -1.711247,-1.05761 -1.686567,-9.699 0.05841,-20.4527 1.922589,-11.84824 7.562414,-19.70012 20.608253,-28.69122 l 8,-5.51354 16,-0.005 c 18.372578,-0.005 19.171873,0.34934 34.961777,15.51158 10.04654,9.64717 13.11947,17.57001 11.69535,30.15368 -1.03348,9.13197 -3.09229,16.3302 -4.670679,16.3302 -0.627046,0 -1.566846,1.35 -2.088447,3 -1.739909,5.50392 -7.412188,11.54497 -16.364696,17.42858 -7.384507,4.85314 -10.203905,5.92635 -16.866639,6.42034 -4.4,0.32622 -9.8,0.40709 -12,0.17969 z m 20,-12.6728 C 77.549671,186.60708 88,177.99081 88,175.28087 c 0,-1.02654 1.245468,-4.08388 2.767707,-6.7941 2.549974,-4.54001 2.6553,-5.76292 1.338834,-15.54501 C 89.9676,137.04819 85.692985,130.73237 73.333333,125.20403 71.5,124.384 68.958141,123.17762 67.684759,122.5232 c -1.273383,-0.65443 -5.810686,-1.18987 -10.082895,-1.18987 -18.127779,0 -35.032904,15.1729 -37.189076,33.3784 -1.493541,12.61063 6.965091,27.31966 19.587212,34.06096 5.115483,2.73211 7.474196,3.13947 16,2.7633 5.5,-0.24267 12.4,-1.37375 15.333333,-2.51351 z m -19.06016,-26.97804 c -5.262169,-6.68976 0.229422,-14.48175 8.097954,-11.49013 C 63.353828,151.68832 64,152.75388 64,156.53843 c 0,8.37268 -6.9172,11.62046 -11.726827,5.50601 z M 11.205875,56.91542 C 7.2621775,54.708416 4.0927731,50.282112 4.0443591,46.913841 4.0045113,44.141544 6.3082572,37.601869 11.411725,26 13.795573,20.580727 23.348228,11.610559 30.666667,7.9191577 44.768647,0.80615689 67.510759,5.626634 78.41096,18.039161 83.423444,23.747093 93.423652,45.157369 93.339073,50 93.231607,56.153108 92.992923,56.195131 54.517617,56.835007 34.432928,57.169031 17.03522,57.639344 15.856044,57.880145 14.676868,58.120948 12.584293,57.686821 11.205875,56.91542 Z M 79.611948,44.832496 C 81.572061,42.872383 76.732096,32.890384 70.532599,26.107147 63.117593,17.993949 58.515541,16.019661 46.990231,16.007436 41.871319,16.002005 38.145235,16.989068 33.176921,19.666667 24.181105,24.514828 16,35.124263 16,41.942072 v 3.311589 l 17,0.502818 c 21.311813,0.630348 45.537847,0.15012 46.611948,-0.923983 z"
       id="path650" />
  </g>
</svg>
