<?xml version="1.0" encoding="UTF-8" standalone="no"?>
<!-- Created with Inkscape (http://www.inkscape.org/) -->

<svg
   version="1.1"
   id="svg83"
   width="209.33333"
   height="192"
   viewBox="0 0 209.33333 192"
   xmlns="http://www.w3.org/2000/svg"
   xmlns:svg="http://www.w3.org/2000/svg">
  <defs
     id="defs87" />
  <g
     id="g89">
    <path
       style="fill:#000000;stroke-width:1.33333"
       d="m 68.545718,186.66136 c -2.754152,-1.07193 -12.545719,-13.49632 -12.545719,-15.91909 0,-2.22858 -2.731443,-3.01503 -4.725073,-1.36047 -1.067876,0.88627 -1.941593,2.50157 -1.941593,3.58959 0,3.61773 -8.016626,12.36194 -11.333334,12.36194 -3.274093,0 -9.082231,-6.31405 -13.184886,-14.33333 -3.48336,-6.80877 -5.679435,-5.49575 -9.422933,5.63397 -2.78023,8.26584 -4.223744,10.0327 -8.1967037,10.0327 -4.7871331,0 -5.5262242,-5.40171 -1.8858044,-13.78256 8.1181331,-18.68931 10.0185611,-22.24771 12.2620361,-22.95976 3.566965,-1.13212 7.148365,0.38704 8.882938,3.76794 4.251692,8.28711 9.601537,15.64104 11.378557,15.64104 0.908391,0 3.671739,-4.1758 6.140774,-9.27954 6.686012,-13.82067 9.057646,-13.79248 18.202383,0.21638 5.959932,9.13004 6.092272,9.23342 8.748338,6.83339 1.483274,-1.34029 4.131202,-5.26535 5.884283,-8.72235 5.750151,-11.33905 9.449586,-10.65729 18.440943,3.39847 2.657609,4.15451 5.647506,7.55365 6.644206,7.55365 0.99671,0 3.01465,-2.55 4.48432,-5.66666 3.07758,-6.52652 8.70207,-13.01942 11.22455,-12.9576 2.78354,0.0683 5.54466,2.81996 10.38457,10.34929 3.24294,5.04496 5.26393,6.94661 7.08503,6.66667 2.32162,-0.35692 7.86306,-7.89267 9.72808,-13.22916 0.41726,-1.19395 2.25781,-2.85387 4.09012,-3.68872 2.97109,-1.35372 3.76278,-1.05616 7.31912,2.7509 2.19321,2.34784 5.17474,6.59568 6.62562,9.43964 3.45214,6.76676 6.08758,6.13368 10.41011,-2.50068 7.04647,-14.0755 10.46433,-14.75204 17.60805,-3.48534 7.95903,12.55252 14.39184,25.66566 13.60128,27.72585 -0.44161,1.15083 -2.53814,1.92915 -5.19645,1.92915 -5.10695,0 -9.78753,-5.1051 -12.53025,-13.66667 -0.88096,-2.75 -2.3449,-5 -3.25319,-5 -0.90829,0 -3.39852,3.65531 -5.53384,8.12292 -4.29296,8.98191 -9.39749,12.99697 -12.90831,10.15328 -1.0929,-0.88524 -3.87624,-4.98923 -6.18516,-9.11997 -6.59768,-11.80344 -7.36841,-11.99047 -12.06053,-2.92672 -8.29376,16.02105 -12.52681,17.6537 -18.41834,7.10382 -4.93916,-8.84449 -8.34961,-13.3338 -10.12637,-13.32969 -0.86673,0.003 -3.67588,4.052 -6.24254,9 -4.14113,7.98323 -5.14895,9.04299 -8.94922,9.41039 -3.91544,0.37853 -4.824754,-0.33968 -10.607588,-8.37828 -3.846629,-5.34714 -7.129952,-8.6373 -8.379225,-8.39671 -1.129806,0.21757 -3.36659,3.68779 -4.970634,7.71159 -3.277129,8.22077 -6.358797,10.94106 -10.547615,9.31073 z m 46.304932,-42.51944 c -2.36894,-1.50088 -4.05331,-10.49771 -4.12592,-22.03796 -0.0564,-8.97011 -0.20118,-9.35937 -5.15264,-13.85652 -2.80202,-2.54493 -7.752017,-5.60617 -11.000001,-6.80276 l -5.905424,-2.175617 -0.44448,-7.967864 c -0.244464,-4.382327 0.190963,-15.167866 0.967616,-23.967866 0.776652,-8.8 2.10389,-25.9 2.949416,-38 1.62447,-23.2471622 2.482415,-25.7928061 8.189803,-24.3002902 4.24391,1.1098064 14.1365,8.0997522 15.76212,11.1372642 5.67593,10.605568 6.54502,20.5172 7.04218,80.313428 0.30844,37.096665 0.0455,45.480335 -1.4742,46.999995 -2.11267,2.11267 -4.19505,2.31399 -6.80847,0.65819 z m -4.28808,-60.964563 c 0.0767,-7.785786 0.41073,-14.594816 0.74222,-15.131176 0.33149,-0.536358 0.0507,-10.645817 -0.624,-22.465461 -1.27995,-22.422805 -3.09731,-28.875555 -7.87384,-27.956953 -1.79669,0.345533 -2.20184,2.977333 -2.52372,16.393922 -0.21089,8.790271 -0.855997,23.338983 -1.433569,32.33047 -1.379725,21.479221 -0.987069,23.67599 4.953449,27.712673 2.64875,1.799876 5.22182,3.272501 5.71793,3.272501 0.4961,0 0.96479,-6.370189 1.04153,-14.155976 z"
       id="path1402" />
  </g>
</svg>
