<?xml version="1.0" encoding="UTF-8" standalone="no"?>
<!-- Created with Inkscape (http://www.inkscape.org/) -->

<svg
   version="1.1"
   id="svg2"
   width="229.33333"
   height="216"
   viewBox="0 0 229.33333 216"
   xmlns="http://www.w3.org/2000/svg"
   xmlns:svg="http://www.w3.org/2000/svg">
  <defs
     id="defs6" />
  <g
     id="g8">
    <path
       style="fill:#000000;stroke-width:1.33333"
       d="m 9.9520285,210.1298 c -2.3341418,-1.70676 -2.5792393,-3.90111 -2.8046959,-25.11031 -0.1358751,-12.78206 0.2089956,-23.97801 0.7663793,-24.87988 0.5573837,-0.90186 2.8840341,-1.69293 5.1703341,-1.75794 7.672628,-0.21815 7.98957,0.79524 8.10812,25.92505 0.09164,19.42555 -0.220677,23.21647 -2.082161,25.27339 -2.624855,2.90044 -5.691424,3.08449 -9.1579765,0.54969 z m 97.8779015,-1.66705 c -2.53687,-3.05534 -3.47768,-44.20858 -1.13971,-49.85295 1.45633,-3.51588 2.26314,-3.94313 7.44614,-3.94313 5.21281,0 5.91484,0.37849 6.80108,3.66666 0.54353,2.01667 0.96876,13.79151 0.94495,26.16631 -0.0394,20.45665 -0.271,22.66615 -2.55102,24.33333 -3.41576,2.49767 -9.27687,2.309 -11.50144,-0.37022 z m 98.40097,-2.42231 c -1.6266,-1.62661 -1.84694,-5.87452 -1.2968,-25 0.36452,-12.67224 1.22079,-24.08336 1.90282,-25.35803 1.6272,-3.04116 7.2444,-4.37716 11.07173,-2.6333 4.06144,1.85052 4.75801,6.09596 4.75801,28.99904 v 19.04813 l -4.1023,3.45187 c -4.5859,3.85878 -9.38615,4.43958 -12.33346,1.49229 z M 105.18941,112.3593 c -1.17915,-0.26503 -4.17674,-3.96218 -6.66131,-8.21589 C 94.033281,96.448043 87.906257,90.364268 87.053035,92.749343 86.806963,93.437204 84.641551,97.9 82.241007,102.66667 c -6.568771,13.04335 -10.856188,12.58118 -19.772992,-2.13148 -2.400631,-3.961021 -4.988009,-7.194738 -5.749732,-7.186037 -0.761722,0.0087 -3.351761,3.596588 -5.755642,7.973087 -6.180962,11.25303 -8.505142,12.16104 -14.70093,5.74337 -2.710607,-2.80768 -5.975986,-7.090491 -7.256395,-9.517362 C 26.582706,92.956464 23.142982,92.265543 21.29743,96 c -3.574486,7.23294 -4.238516,9.52403 -3.651049,12.59716 0.634237,3.3178 0.467659,3.42197 -4.159509,2.60114 C 6.7313088,109.9999 6.3264031,109.23125 9.3384847,103.32323 10.802318,100.45201 12,97.576733 12,96.933737 c 0,-2.969588 7.979701,-17.973977 9.963945,-18.735404 2.892017,-1.10977 6.902839,1.080752 8.847743,4.832224 3.333098,6.429126 9.699462,15.63611 10.811918,15.63611 0.645976,0 3.297291,-4.469991 5.891811,-9.933314 6.502274,-13.691942 7.409801,-14.24192 13.153502,-7.97126 2.565427,2.800794 4.664413,5.757403 4.664413,6.57024 0,0.812839 2.00515,3.421355 4.455887,5.796704 5.021753,4.867275 6.067255,4.377112 8.807085,-4.129037 0.885775,-2.75 2.06766,-5 2.626411,-5 0.55875,0 1.731749,-1.571095 2.606662,-3.49132 1.371812,-3.010799 2.164835,-3.376504 5.761854,-2.6571 4.549897,0.909979 6.65269,3.311612 11.789939,13.465476 C 103.24081,94.992675 105.55582,98 106.52563,98 c 0.96981,0 3.64828,-3.399504 5.95216,-7.554453 6.706,-12.093979 7.98644,-13.567756 10.96621,-12.622014 1.46284,0.464287 5.63637,5.036974 9.27452,10.161528 3.63814,5.124554 7.28986,9.324323 8.11494,9.332822 0.82507,0.0085 2.32924,-1.63455 3.34259,-3.651216 10.75963,-21.4126 13.88117,-21.456096 25.49209,-0.355211 2.36859,4.30452 4.67206,4.759383 6.46102,1.275852 0.54249,-1.056353 2.61256,-5.220641 4.60014,-9.253975 5.78611,-11.741476 7.75872,-12.045974 14.29199,-2.206157 12.42507,18.713494 15.488,29.532504 8.10167,28.617014 -3.28318,-0.40694 -4.157,-1.56533 -9.35728,-12.404475 -3.12483,-6.513194 -5.9889,-7.323287 -8.44627,-2.38901 -9.83672,19.751525 -13.26348,19.758415 -24.49072,0.04929 -1.98428,-3.483334 -4.03248,-6.324431 -4.55156,-6.313551 -0.51909,0.01093 -3.36451,4.66088 -6.32315,10.333336 -7.8311,15.0142 -11.05177,14.69292 -20.82671,-2.077595 -4.241,-7.276129 -5.90311,-7.979869 -8.36535,-3.541894 -4.18128,7.536399 -10.38857,16.417559 -11.80883,16.895639 -0.89087,0.29988 -2.58452,0.3284 -3.76368,0.0634 z M 74.212748,36.740288 C 72.761952,32.959575 73.213887,26.762237 75.219574,22.933787 77.998408,17.629552 85.281828,11.101377 91.153281,8.6523029 99.3702,5.2248988 115.8648,3.7873552 120.53818,6.0913385 122.66752,7.1411024 125.73914,8 127.36401,8 c 1.62487,0 5.95562,2.389678 9.62389,5.310395 10.52924,8.383508 12.3184,16.489802 4.8308,21.887278 -3.14325,2.265828 -6.82274,2.599284 -35.11883,3.182672 -29.010619,0.59812 -31.679963,0.463363 -32.487122,-1.640057 z m 59.032412,-7.359765 c 5.14177,-2.751794 3.23357,-5.921095 -7.24516,-12.03341 -6.40494,-3.736042 -19.35728,-4.392227 -28.666668,-1.452297 -8.951883,2.827029 -17.328756,11.661619 -14.111881,14.882961 1.277342,1.279119 47.431709,-0.01 50.023709,-1.397254 z"
       id="path30" />
  </g>
</svg>
