<?xml version="1.0" encoding="UTF-8" standalone="no"?>
<!-- Created with Inkscape (http://www.inkscape.org/) -->

<svg
   version="1.1"
   id="svg217"
   width="214.66667"
   height="186.66667"
   viewBox="0 0 214.66667 186.66667"
   xmlns="http://www.w3.org/2000/svg"
   xmlns:svg="http://www.w3.org/2000/svg">
  <defs
     id="defs221" />
  <g
     id="g223">
    <path
       style="fill:#000000;stroke-width:1.33333"
       d="m 173.33334,181.20078 c -8.43334,-0.52347 -38.76814,-0.92496 -67.41068,-0.89223 -47.410196,0.0541 -52.529393,-0.155 -57.121514,-2.33409 -4.654099,-2.20852 -7.001968,-5.47895 -9.344896,-13.01684 -0.593477,-1.9094 -1.986607,-2.31139 -7.097335,-2.04799 -13.814605,0.71199 -19.00592,-0.10213 -22.4195208,-3.51569 -1.8000001,-1.8 -3.2704846,-4.05 -3.2677433,-5 0.00448,-1.55164 2.5843728,-6.02559 6.8030041,-11.7975 1.216525,-1.66444 0.697605,-2.88572 -2.647441,-6.23076 C 5.9844925,131.52296 5.6457004,129.02097 9.3333335,125.33334 13.544864,121.1218 18.278094,121.96437 24.313726,128 c 2.933333,2.93334 5.577209,5.33334 5.87528,5.33334 0.29807,0 3.634995,-2.12765 7.415385,-4.7281 8.399674,-5.77796 11.857379,-5.60384 13.89475,0.69971 1.721666,5.32676 0.192304,10.19011 -3.581076,11.38772 -5.605287,1.77905 -5.799183,4.3778 -0.744108,9.97316 3.51761,3.89357 4.826044,6.55001 4.826044,9.79803 0,4.76828 3.305808,8.86948 7.149312,8.86948 3.05954,0 14.568407,-5.91668 16.845243,-8.66011 3.777981,-4.55219 12.503536,-7.7716 22.718014,-8.38213 10.4435,-0.62422 15.88238,0.70364 44.93514,10.97046 12.10944,4.2793 23.07532,5.81258 44.80663,6.26499 18.93169,0.39412 21.78206,1.36048 20.38864,6.91236 -1.29144,5.14552 -10.16271,6.33516 -35.50964,4.76187 z M 108,166.66667 c 0,-0.73333 -2.7,-1.33333 -6,-1.33333 -3.299998,0 -5.999999,0.6 -5.999999,1.33333 C 96.000001,167.4 98.700002,168 102,168 c 3.3,0 6,-0.6 6,-1.33333 z M 34.47907,119.9777 c -2.637846,-2.62202 -5.790163,-6.68964 -7.00515,-9.03917 -1.214986,-2.34952 -2.781464,-4.27186 -3.481061,-4.27186 -0.699597,0 -2.486149,2.37994 -3.970115,5.28875 -3.410994,6.6861 -7.025932,8.85092 -9.930149,5.9467 -2.5420849,-2.54208 -2.5419261,-2.50053 -0.03704,-9.69277 7.074037,-20.311535 13.365051,-22.885828 23.14027,-9.469032 3.505374,4.811232 6.686874,7.887692 7.912846,7.651592 1.127693,-0.21717 3.074817,-3.39419 4.326942,-7.060051 1.409414,-4.126349 3.528762,-7.389043 5.563902,-8.565512 2.934836,-1.696563 3.772307,-1.619171 7.810564,0.721783 2.706433,1.568904 6.030007,5.411602 8.274545,9.56699 C 69.147835,104.8748 71.577302,108 72.48344,108 c 0.906138,0 2.406968,-2.10021 3.335181,-4.66713 2.491722,-6.890738 7.842948,-12.666202 11.735801,-12.666202 3.680665,0 9.187816,5.076564 12.716898,11.722602 1.24923,2.35257 3.07245,4.2774 4.05162,4.2774 0.97916,0 3.79653,-3.32677 6.26081,-7.392818 2.46428,-4.066048 5.48816,-7.932088 6.71972,-8.591201 3.30995,-1.771429 9.60163,2.589947 14.169,9.821909 2.12348,3.3623 4.68835,5.97426 5.69971,5.80436 1.01136,-0.16991 4.36081,-3.90892 7.44322,-8.308918 3.08242,-4.4 6.52492,-8.178587 7.65003,-8.396859 2.96721,-0.575643 10.19067,5.978524 12.38981,11.241837 1.04007,2.48922 2.92283,4.92179 4.18394,5.40572 2.3494,0.90155 3.01909,0.23955 8.88273,-8.780748 1.61961,-2.491528 4.20043,-5.352078 5.73515,-6.35678 2.45358,-1.60625 3.22502,-1.484834 6.39154,1.005954 4.03299,3.172342 16.01299,25.914434 15.01758,28.508434 -0.35227,0.91799 -1.92447,2.00484 -3.49379,2.41523 -3.32687,0.86999 -12.00992,-5.96523 -12.08631,-9.51424 -0.026,-1.20737 -0.84881,-3.64187 -1.82852,-5.41 l -1.78128,-3.21479 -2.3878,3.88146 c -6.13138,9.96676 -8.10092,12.49025 -10.65765,13.65518 -4.29429,1.95661 -9.22624,-1.49271 -13.95707,-9.76132 -2.31153,-4.04016 -4.74118,-7.34574 -5.3992,-7.34574 -0.65802,0 -2.75328,3.45 -4.65612,7.66666 -5.8374,12.93554 -10.99717,14.43497 -18.35292,5.33334 -2.51882,-3.11667 -5.2801,-7.01667 -6.13617,-8.66667 -2.37905,-4.58538 -4.88065,-3.61346 -8.04916,3.12725 -1.58408,3.36999 -4.2877,7.5348 -6.00804,9.25514 -4.24785,4.24785 -9.75892,2.79964 -13.405484,-3.52273 -7.485581,-12.9784 -9.386885,-13.2208 -14.936988,-1.90436 C 78.4943,123.21878 77.671045,124 73.954662,124 c -4.53348,0 -7.28262,-2.41253 -13.294426,-11.66666 -2.024696,-3.11667 -4.234826,-5.66667 -4.911399,-5.66667 -0.676573,0 -2.846842,3.49503 -4.822819,7.76674 -2.799092,6.05115 -4.482675,8.04781 -7.621775,9.03917 -3.628845,1.14601 -4.50553,0.79884 -8.825173,-3.49488 z M 14.484532,85.413038 C 6.4038869,80.013815 4.0679331,74.75858 7.4887624,69.674536 8.8486,67.653541 10.734922,62.700001 11.680588,58.666668 c 0.945666,-4.033334 2.241716,-9.433334 2.880111,-12 C 15.199094,44.100001 16.984652,35.700001 18.528608,28 21.209904,14.627858 24.588315,5.3333334 26.767578,5.3333334 c 3.110594,0 5.269085,2.1123061 6.592289,6.4512376 1.237163,4.056789 12.042156,28.001999 21.105962,46.773439 1.210461,2.506904 4.509593,6.406904 7.331405,8.666667 l 5.130567,4.108658 h 18.869434 c 10.378188,0 21.569435,-0.41445 24.869435,-0.920999 3.3,-0.506551 17.58118,-1.187736 31.73597,-1.513747 14.15478,-0.32601 26.09646,-0.95324 26.53706,-1.393841 0.7125,-0.712505 4.19762,-35.442057 4.33834,-43.232021 0.0304,-1.683333 1.52803,-4.533333 3.32803,-6.333333 2.9668,-2.966811 4.34343,-3.272727 14.72727,-3.272727 10.16432,0 11.79888,0.344339 14.51157,3.057027 2.92773,2.927729 3.09645,4.252738 3.98928,31.327762 0.95768,29.041357 0.55659,32.367867 -4.13048,34.256728 C 204.4,83.833569 174.23334,84.46165 138.66667,84.703916 103.1,84.946183 69.800001,85.73734 64.666668,86.462043 59.533334,87.186746 47.533334,88.176596 38.000001,88.661711 l -17.333334,0.882027 z m 12.96122,-14.267539 c -1.483582,-3.866156 0.519382,-6.842002 6.111082,-9.079355 5.441477,-2.177248 5.454097,-2.198924 4.65872,-8.001832 -0.966451,-7.051032 -6.105883,-18.064311 -8.42985,-18.064311 -1.872124,0 -5.023194,9.997698 -3.783353,12.003803 0.433603,0.701585 -0.139543,4.008709 -1.273657,7.349165 -2.11726,6.236244 -2.753852,15.510763 -1.173138,17.091476 1.854396,1.854398 4.731591,0.893694 3.890196,-1.298946 z M 195.33334,49.333334 V 30.000001 H 192 c -2.98202,0 -3.52604,0.843137 -5.16176,8 -1.91874,8.395126 -3.21968,28.304138 -1.98052,30.309135 0.39784,0.643721 2.91762,0.987508 5.59948,0.763968 l 4.87614,-0.406436 z"
       id="path245" />
  </g>
</svg>
