<?xml version="1.0" encoding="UTF-8" standalone="no"?>
<!-- Created with Inkscape (http://www.inkscape.org/) -->

<svg
   version="1.1"
   id="svg207"
   width="224"
   height="210.66667"
   viewBox="0 0 224 210.66667"
   xmlns="http://www.w3.org/2000/svg"
   xmlns:svg="http://www.w3.org/2000/svg">
  <defs
     id="defs211" />
  <g
     id="g213">
    <path
       style="fill:#000000;stroke-width:1.33333"
       d="M 87.713351,203.99878 C 67.763913,201.54174 48.60548,197.04028 40.229621,192.84202 38.269996,191.85978 33.666667,190.34786 30,189.48218 20.479107,187.23435 8.1309213,181.17964 7.2210673,178.31295 4.8670581,170.89612 19.816801,163.96516 58,154.77095 c 10.541283,-2.53825 28.038179,-4.57289 52.66667,-6.12437 13.56682,-0.85464 43.40677,1.99876 55.33333,5.29117 36.37357,10.04119 50.66859,15.95555 52.85589,21.86839 1.77208,4.7904 -4.27417,9.86213 -15.87997,13.3205 -5.30343,1.58035 -13.8166,4.11526 -18.91817,5.63314 -5.10159,1.51788 -12.75159,3.27933 -17,3.91434 -4.24843,0.63502 -10.72442,1.85244 -14.39108,2.70538 -3.66667,0.85294 -9.66667,1.69917 -13.33334,1.88049 -30.06196,1.48667 -43.935503,1.68523 -51.619979,0.73879 z m 56.029739,-14.5743 c 14.37408,-1.89165 45.03444,-7.81138 50.59024,-9.76768 2.38334,-0.83921 4.33334,-1.98418 4.33334,-2.5444 0,-1.54666 -5.37118,-4.10909 -11.33334,-5.4068 -2.93333,-0.63846 -7.43333,-1.70408 -10,-2.36804 -17.56556,-4.54394 -44.31475,-8.00422 -61.87542,-8.00422 -17.892478,0 -29.422253,1.4546 -63.45791,8.00589 -21.360377,4.11151 -26.543791,7.52297 -15.718871,10.34536 26.313366,6.86071 33.819768,8.43461 43.718871,9.16671 6.233333,0.461 12.233333,1.37545 13.333333,2.03213 2.467131,1.47284 35.367527,0.52064 50.409757,-1.45895 z M 183.12901,73.212857 c -8.17904,-0.590143 -18.37904,-1.928564 -22.66666,-2.974269 -4.28763,-1.045707 -10.49568,-1.980992 -13.79568,-2.078412 -6.26582,-0.184975 -25.68912,-3.256278 -36,-5.692487 -3.3,-0.779709 -7.95356,-1.56414 -10.34125,-1.74318 C 97.937739,60.54547 94.839188,59.362781 93.439756,58.096312 92.040323,56.829842 89.793883,55.935441 88.447667,56.108754 85.115232,56.537774 78.438179,54.674944 76,52.635981 74.9,51.716089 72.043961,50.547675 69.653247,50.039505 63.90806,48.818307 57.633649,45.685693 52.444987,41.447966 50.123063,39.551585 45.323063,36.200001 41.77832,34.000001 35.969001,30.39452 34.215528,29.99399 24,29.93906 17.604969,29.904672 11.359469,29.158011 9.6666667,28.225482 3.9139128,25.056408 7.1160373,16 13.989297,16 c 2.395763,0 3.338623,-0.94004 4.010339,-3.998343 0.967821,-4.4064599 5.128707,-8.0016569 9.260681,-8.0016569 1.466832,0 4.783328,2.4335525 7.369992,5.4078944 l 4.703024,5.4078955 26,0.03961 c 14.3,0.02179 27.979359,-0.578301 30.398574,-1.33353 2.419216,-0.755231 8.366843,-1.086884 13.216943,-0.737007 6.62256,0.477739 11.09412,-0.06819 17.95779,-2.192472 l 9.13944,-2.828613 4.71984,2.784776 c 4.00053,2.360376 6.91193,2.784776 19.10364,2.784776 16.03884,0 18.81587,1.297308 18.77669,8.771654 -0.0387,7.380676 -1.14689,7.877071 -16.57974,7.426562 C 154.32992,29.305706 148,29.659816 148,30.318462 c 0,3.907579 4.55937,15.386956 7.99523,20.130011 3.02837,4.180557 4.92493,5.553364 7.6798,5.558964 2.01206,0.0041 5.98757,0.654177 8.83445,1.44464 2.84687,0.790463 12.14687,1.537116 20.66667,1.659231 l 15.49052,0.222026 0.40389,5.541643 c 0.32932,4.5186 -0.1562,5.933944 -2.63001,7.666667 -1.66864,1.168762 -4.25039,2.039339 -5.73723,1.934612 -1.48683,-0.10472 -9.39527,-0.673256 -17.57431,-1.263399 z M 138.68567,51.000001 c 0.0294,-3.614146 -8.35349,-19.07756 -11.4733,-21.164059 C 123.77676,27.538243 58.868321,26.434239 58.466413,28.666667 58.136843,30.497288 69.160971,35.789939 88,42.845654 c 2.566667,0.961284 6.075397,3.264265 7.79718,5.117735 2.882615,3.103088 3.944299,3.347185 13.4072,3.082532 5.65219,-0.158076 12.04345,0.240352 14.20283,0.885397 2.15937,0.645044 6.47612,1.22438 9.59279,1.287412 4.54485,0.09192 5.67043,-0.347318 5.68567,-2.218729 z"
       id="path384" />
  </g>
</svg>
