<?xml version="1.0" encoding="UTF-8" standalone="no"?>
<!-- Created with Inkscape (http://www.inkscape.org/) -->

<svg
   version="1.1"
   id="svg185"
   width="214.66667"
   height="142.66667"
   viewBox="0 0 214.66667 142.66667"
   xmlns="http://www.w3.org/2000/svg"
   xmlns:svg="http://www.w3.org/2000/svg">
  <defs
     id="defs189" />
  <g
     id="g191">
    <path
       style="fill:#000000;stroke-width:1.33333"
       d="m 198.3542,137.90976 c -0.50154,-0.50154 -89.12148,-2.18386 -128.163839,-2.433 l -22.476307,-0.14342 -3.797603,-4.54512 c -2.088681,-2.49982 -4.172016,-6.24982 -4.629633,-8.33334 -0.820688,-3.73657 -0.963617,-3.78821 -10.48409,-3.78821 -5.308632,0 -12.724464,-0.91241 -16.479626,-2.02757 -10.1335784,-3.00935 -10.6863953,-8.16962 -1.686491,-15.74254 4.902769,-4.125404 5.016132,-5.352564 0.677085,-7.329567 -5.0895348,-2.318947 -6.8868261,-7.318292 -4.1387594,-11.512372 1.8196387,-2.77712 3.2756284,-3.387952 8.0755754,-3.387952 5.502442,0 6.157504,0.411133 10.858342,6.814953 l 5.002634,6.814955 2.235505,-4.32299 c 2.468912,-4.774348 7.019872,-7.85388 11.713614,-7.926338 3.485727,-0.05381 9.606061,5.437902 9.606061,8.61942 0,3.290718 -6.165423,8.666667 -9.939394,8.666667 -4.600087,0 -4.289504,1.153232 1.871888,6.950534 3.642639,3.42738 5.523823,6.50411 6.114232,10 0.469035,2.7772 1.140832,6.09947 1.492882,7.3828 1.070128,3.90095 7.216836,2.7303 15.365942,-2.92646 13.904981,-9.65224 17.367402,-10.88814 30.864852,-11.01708 8.08248,-0.0772 14.03816,0.58075 17.56293,1.94031 2.93334,1.13143 8.62486,3.32001 12.64785,4.86352 4.02298,1.54351 8.26029,2.80638 9.41622,2.80638 1.15595,0 4.68257,1.24693 7.83696,2.77096 6.78937,3.28027 37.05059,6.91103 47.51615,5.70102 5.35849,-0.61955 7.2293,-0.3017 9.07238,1.54139 3.4533,3.45329 2.3299,8.92643 -2.07188,10.094 -1.97026,0.52263 -3.79884,0.73369 -4.06348,0.46905 z m -87.68753,-13.76711 c 0,-1.75707 -3.5367,-2.80931 -9.44238,-2.80931 -6.305541,0 -6.974886,2.28046 -0.89096,3.03547 8.15134,1.01157 10.33334,0.96382 10.33334,-0.22616 z M 37.797958,45.2963 C 34.750181,44.113578 32.897438,41.849625 26.562254,31.566865 24.38236,28.028641 21.892991,25.369003 21.03032,25.656561 20.167648,25.944118 18.74072,29.006123 17.85937,32.461018 14.861346,44.213256 10.195453,48.251898 6.2023497,42.550945 4.4521675,40.05221 4.5848655,38.998768 7.5039988,32.217611 15.126352,14.51086 17.87833,10.013896 21.333334,9.6192992 c 2.849202,-0.3254084 4.34928,1.1753978 10.328322,10.3333328 3.847245,5.892719 7.524453,10.714035 8.171574,10.714035 0.64712,0 1.882992,-1.95 2.746381,-4.333333 C 43.443001,23.950001 45.465793,19.3 47.074705,16 c 2.478292,-5.08316 3.523094,-6 6.83742,-6 3.19544,0 4.595036,1.099174 7.639896,6 2.050275,3.3 4.324968,7.350001 5.054875,9.000001 0.729906,1.65 2.391953,2.995318 3.693437,2.989597 2.164851,-0.0095 5.644694,-5.217529 5.738752,-8.588751 0.06547,-2.346587 7.781963,-10.0675134 10.061731,-10.0675134 2.506917,0 5.806647,3.5661284 11.412003,12.3333334 2.227087,3.483334 4.777781,6.333334 5.668211,6.333334 2.20773,0 4.81897,-2.779422 4.81897,-5.129344 0,-2.645697 9.09031,-13.5373234 11.29844,-13.5373234 1.78361,0 10.10054,9.3947024 14.45955,16.3333334 1.26692,2.016667 2.84756,3.666667 3.51255,3.666667 0.66498,0 2.54777,-2.680509 4.18397,-5.956687 4.40888,-8.827937 10.10407,-15.2447787 12.87404,-14.5053429 1.28596,0.3432858 4.13812,3.6700789 6.33812,7.3928739 4.79324,8.111016 8.5146,13.069156 9.80915,13.069156 0.5219,0 2.67442,-3.633267 4.78337,-8.073926 4.05409,-8.536422 8.01996,-12.4619947 10.93935,-10.828223 0.96994,0.542811 3.72208,3.916617 6.11584,7.497346 13.34416,19.960963 14.83038,23.67487 10.41897,26.035782 -4.96623,2.657847 -8.02655,0.336739 -12.86356,-9.756438 -2.51488,-5.247664 -4.99445,-9.241208 -5.51015,-8.874541 -0.5157,0.366667 -2.91393,4.678244 -5.32938,9.581283 -2.63055,5.339668 -5.48166,9.260545 -7.10962,9.777237 -3.78932,1.202687 -8.84353,-2.461845 -11.21129,-8.128709 -1.08419,-2.594806 -3.25035,-6.514162 -4.81369,-8.70968 l -2.84244,-3.991854 -3.19328,4.328235 c -1.7563,2.380528 -3.21484,5.261665 -3.24122,6.402528 -0.0633,2.74177 -5.41877,9.107024 -7.95205,9.451567 -5.03796,0.685197 -6.71984,-0.644989 -11.95285,-9.453451 -3.07454,-5.175232 -6.27326,-9.181787 -7.10825,-8.903455 -0.835,0.278331 -3.33784,4.186564 -5.56187,8.684962 -6.41508,12.975325 -14.412025,14.012193 -20.171916,2.615447 -2.809357,-5.558705 -7.27306,-10.436163 -8.72796,-9.536986 -0.624371,0.385881 -2.634312,3.978959 -4.466539,7.984615 -6.031524,13.186259 -13.270299,12.563709 -20.490159,-1.762196 -2.036516,-4.040928 -4.308228,-6.849295 -5.38934,-6.662482 -1.027884,0.177616 -3.628677,3.622939 -5.779541,7.656272 -5.220976,9.790458 -7.592719,12.037349 -11.220287,10.629633 z"
       id="path213" />
  </g>
</svg>
