<?xml version="1.0" encoding="UTF-8" standalone="no"?>
<!-- Created with Inkscape (http://www.inkscape.org/) -->

<svg
   version="1.1"
   id="svg175"
   width="209.33333"
   height="210.66667"
   viewBox="0 0 209.33333 210.66667"
   xmlns="http://www.w3.org/2000/svg"
   xmlns:svg="http://www.w3.org/2000/svg">
  <defs
     id="defs179" />
  <g
     id="g181">
    <path
       style="fill:#000000;stroke-width:1.33333"
       d="m 198.3542,205.90976 c -0.50155,-0.50154 -89.12148,-2.18386 -128.163841,-2.433 l -22.476306,-0.14342 -3.797603,-4.54512 c -2.088681,-2.49982 -4.172016,-6.24982 -4.629633,-8.33334 -0.820688,-3.73657 -0.963618,-3.78821 -10.484089,-3.78821 -5.308632,0 -12.724464,-0.9124 -16.479627,-2.02757 -10.1335774,-3.00935 -10.6863944,-8.16962 -1.68649,-15.74254 4.902769,-4.12541 5.016131,-5.35257 0.677085,-7.32957 -5.089535,-2.31895 -6.8868262,-7.31829 -4.1387596,-11.51237 1.8196387,-2.77712 3.2756286,-3.38795 8.0755756,-3.38795 5.502441,0 6.157504,0.41113 10.858341,6.81496 l 5.002635,6.81495 2.235503,-4.32299 c 2.468912,-4.77435 7.019872,-7.85388 11.713615,-7.92633 3.485727,-0.0538 9.60606,5.43789 9.60606,8.61941 0,3.29072 -6.165423,8.66667 -9.939393,8.66667 -4.600087,0 -4.289504,1.15322 1.871888,6.95053 3.642638,3.42739 5.523822,6.50411 6.114231,10 0.469035,2.7772 1.140832,6.09947 1.492882,7.3828 1.070128,3.90095 7.216836,2.73031 15.365942,-2.92645 13.90498,-9.65224 17.367401,-10.88815 30.864854,-11.0171 8.08248,-0.0772 14.03815,0.58076 17.56293,1.94032 2.93333,1.13143 8.62486,3.32002 12.64784,4.86352 4.02298,1.54351 8.26029,2.80638 9.41622,2.80638 1.15595,0 4.68258,1.24693 7.83696,2.77096 6.78938,3.28028 37.05059,6.91104 47.51615,5.70102 5.35849,-0.61954 7.22931,-0.30169 9.07239,1.54139 3.45329,3.45329 2.32989,8.92643 -2.07188,10.094 -1.97027,0.52263 -3.79884,0.73369 -4.06348,0.46905 z m -87.68754,-13.7671 c 0,-1.75708 -3.53669,-2.80932 -9.44238,-2.80932 -6.305534,0 -6.974879,2.28046 -0.89095,3.03546 8.15133,1.01158 10.33333,0.96383 10.33333,-0.22614 z M 39.13129,113.2963 c -3.047777,-1.18272 -4.90052,-3.44667 -11.235704,-13.729434 -2.179893,-3.538224 -4.669262,-6.197862 -5.531933,-5.910305 -0.862672,0.287558 -2.2896,3.349563 -3.170951,6.804459 C 16.194678,112.21326 11.528786,116.2519 7.5356828,110.55095 5.7855007,108.05221 5.9181987,106.99877 8.8373319,100.21761 16.459685,82.510861 19.211662,78.013897 22.666666,77.6193 c 2.849203,-0.325408 4.34928,1.175397 10.328323,10.333333 3.847244,5.892719 7.524452,10.714035 8.171573,10.714035 0.64712,0 1.882992,-1.95 2.746381,-4.333333 0.86339,-2.383334 2.886182,-7.033334 4.495094,-10.333334 2.478292,-5.08316 3.523094,-6 6.837419,-6 3.19544,0 4.595036,1.099174 7.639896,6 2.050275,3.3 4.324968,7.35 5.054875,9 0.729907,1.65 2.391953,2.995319 3.693437,2.989598 2.164851,-0.0095 5.644693,-5.21753 5.738752,-8.588751 0.06547,-2.346587 7.781963,-10.067513 10.061731,-10.067513 2.506917,0 5.806646,3.566128 11.412002,12.333333 2.227091,3.483333 4.777781,6.333334 5.668211,6.333334 2.20773,0 4.81897,-2.779422 4.81897,-5.129345 0,-2.645696 9.09031,-13.537322 11.29844,-13.537322 1.78361,0 10.10054,9.394702 14.45955,16.333333 1.26692,2.016667 2.84756,3.666667 3.51254,3.666667 0.66499,0 2.54778,-2.68051 4.18398,-5.956687 4.40888,-8.827937 10.10406,-15.244779 12.87404,-14.505343 1.28596,0.343286 4.13812,3.670079 6.33812,7.392874 4.79324,8.111016 8.5146,13.069156 9.80914,13.069156 0.52191,0 2.67443,-3.633267 4.78338,-8.073926 4.05409,-8.536421 8.01996,-12.461994 10.93934,-10.828222 0.96995,0.54281 3.72208,3.916616 6.11584,7.497345 13.34416,19.960968 14.83039,23.674868 10.41898,26.035778 -4.96623,2.65785 -8.02655,0.33674 -12.86356,-9.75643 -2.51488,-5.247668 -4.99446,-9.241212 -5.51015,-8.874545 -0.51571,0.366666 -2.91393,4.678244 -5.32939,9.581285 -2.63054,5.33967 -5.48165,9.26054 -7.10961,9.77724 -3.78932,1.20268 -8.84353,-2.46185 -11.21129,-8.12871 -1.08419,-2.59481 -3.25035,-6.514166 -4.8137,-8.709684 l -2.84244,-3.991854 -3.19328,4.328235 c -1.75629,2.380528 -3.21484,5.261663 -3.24121,6.402523 -0.0633,2.74177 -5.41877,9.10703 -7.95205,9.45157 -5.03796,0.6852 -6.71984,-0.64499 -11.95285,-9.45345 -3.07455,-5.175231 -6.27326,-9.181786 -7.10825,-8.903454 -0.835,0.278331 -3.33784,4.186564 -5.56187,8.684964 -6.41508,12.97532 -14.41202,14.01219 -20.171916,2.61544 -2.809357,-5.5587 -7.273059,-10.436159 -8.727959,-9.536981 -0.624371,0.385881 -2.634312,3.978959 -4.466539,7.984611 -6.031524,13.18626 -13.270298,12.56371 -20.490158,-1.76219 -2.036516,-4.04093 -4.308228,-6.849297 -5.38934,-6.662484 -1.027884,0.177616 -3.628678,3.622939 -5.779541,7.656274 -5.220976,9.79046 -7.592719,12.03735 -11.220287,10.62963 z m 0,-70.666667 c -3.047777,-1.182722 -4.90052,-3.446675 -11.235704,-13.729435 -2.179893,-3.538224 -4.669262,-6.197862 -5.531933,-5.910304 -0.862672,0.287557 -2.2896,3.349562 -3.170951,6.804457 C 16.194678,41.546589 11.528786,45.585231 7.5356828,39.884278 5.7855007,37.385543 5.9181987,36.332101 8.8373319,29.550944 16.459685,11.844194 19.211662,7.3472296 22.666666,6.9526324 25.515869,6.627224 27.015946,8.1280297 32.994989,17.285966 36.842233,23.178684 40.519441,28 41.166562,28 c 0.64712,0 1.882992,-1.95 2.746381,-4.333333 0.86339,-2.383333 2.886182,-7.033333 4.495094,-10.333333 4.158641,-8.5296843 9.177863,-8.5296843 14.477315,0 2.050275,3.3 4.324968,7.35 5.054875,9 0.729907,1.65 2.391953,2.995318 3.693437,2.989597 2.164851,-0.0095 5.644693,-5.217529 5.738752,-8.588751 0.06547,-2.346586 7.781963,-10.0675132 10.061731,-10.0675132 2.506917,0 5.806646,3.5661282 11.412002,12.3333332 2.227091,3.483334 4.777781,6.333334 5.668211,6.333334 2.20773,0 4.81897,-2.779422 4.81897,-5.129344 0,-2.645696 9.09031,-13.5373232 11.29844,-13.5373232 1.78361,0 10.10054,9.3947032 14.45955,16.3333332 1.26692,2.016667 2.84756,3.666667 3.51254,3.666667 0.66499,0 2.54778,-2.680509 4.18398,-5.956687 C 147.19672,11.882043 152.8919,5.4652016 155.66188,6.2046373 156.94784,6.5479232 159.8,9.8747164 162,13.597511 c 4.79324,8.111016 8.5146,13.069156 9.80914,13.069156 0.52191,0 2.67443,-3.633267 4.78338,-8.073925 4.05409,-8.536422 8.01996,-12.4619955 10.93934,-10.8282233 0.96995,0.5428109 3.72208,3.9166163 6.11584,7.4973453 13.34416,19.960963 14.83039,23.67487 10.41898,26.035782 -4.96623,2.657847 -8.02655,0.336739 -12.86356,-9.756438 -2.51488,-5.247664 -4.99446,-9.241208 -5.51015,-8.874541 -0.51571,0.366667 -2.91393,4.678244 -5.32939,9.581283 -2.63054,5.339668 -5.48165,9.260545 -7.10961,9.777237 -3.78932,1.202687 -8.84353,-2.461845 -11.21129,-8.128709 -1.08419,-2.594806 -3.25035,-6.514162 -4.8137,-8.70968 l -2.84244,-3.991854 -3.19328,4.328235 c -1.75629,2.380528 -3.21484,5.261665 -3.24121,6.402528 -0.0633,2.74177 -5.41877,9.107024 -7.95205,9.451567 -5.03796,0.685197 -6.71984,-0.644989 -11.95285,-9.453451 -3.07455,-5.175232 -6.27326,-9.181787 -7.10825,-8.903455 -0.835,0.278331 -3.33784,4.186564 -5.56187,8.684962 -6.41508,12.975325 -14.41202,14.012193 -20.171916,2.615447 -2.809357,-5.558705 -7.273059,-10.436163 -8.727959,-9.536986 -0.624371,0.385881 -2.634312,3.978959 -4.466539,7.984615 -6.031524,13.186259 -13.270298,12.563709 -20.490158,-1.762196 -2.036516,-4.040928 -4.308228,-6.849295 -5.38934,-6.662482 -1.027884,0.177616 -3.628678,3.622939 -5.779541,7.656273 -5.220976,9.790457 -7.592719,12.037348 -11.220287,10.629632 z"
       id="path352" />
  </g>
</svg>
