<?xml version="1.0" encoding="UTF-8" standalone="no"?>
<!-- Created with Inkscape (http://www.inkscape.org/) -->

<svg
   version="1.1"
   id="svg165"
   width="145.33333"
   height="210.66667"
   viewBox="0 0 145.33333 210.66667"
   xmlns="http://www.w3.org/2000/svg"
   xmlns:svg="http://www.w3.org/2000/svg">
  <defs
     id="defs169" />
  <g
     id="g171">
    <path
       style="fill:#000000;stroke-width:1.33333"
       d="m 16,203.59142 c -3.224611,-1.09966 -4.666667,-2.40658 -4.666667,-4.22938 0,-2.12664 1.373541,-2.90198 7.08608,-4 9.364552,-1.79998 13.774138,-5.72844 13.358446,-11.90088 -0.196225,-2.91368 0.551262,-5.61486 1.99535,-7.21056 1.270013,-1.40334 2.679885,-5.6821 3.133046,-9.50834 0.453163,-3.82626 1.934639,-9.1354 3.292171,-11.79812 1.357532,-2.66272 2.487094,-5.76444 2.51014,-6.89272 0.05357,-2.62271 4.503477,-5.82588 11.291433,-8.1279 2.933333,-0.99478 6.280577,-2.58453 7.438321,-3.53277 1.157743,-0.94824 4.341565,-1.72408 7.075161,-1.72408 6.894971,0 13.042676,-6.50065 11.865937,-12.54717 -0.440943,-2.26572 -2.056697,-5.36073 -3.590566,-6.87779 -1.53387,-1.51706 -3.89078,-4.80616 -5.23758,-7.30911 l -2.448728,-4.55083 -3.924813,4.64245 c -2.158648,2.55335 -5.072158,6.8008 -6.474466,9.43878 -3.054962,5.7469 -7.925954,9.20096 -12.989689,9.2111 -2.042468,0.004 -5.963577,0.6323 -8.713577,1.39601 -4.791462,1.33066 -5,1.6287 -5,7.14609 0,3.92214 -0.939978,6.9525 -2.948676,9.50615 -2.443684,3.10664 -3.042081,5.88429 -3.494082,16.21893 -0.463404,10.59535 -0.929752,12.67599 -3.101688,13.83838 -4.693615,2.51194 -7.256987,0.33452 -9.186965,-7.80375 -0.996833,-4.20341 -3.4900608,-10.85351 -5.5405059,-14.77797 -4.0029535,-7.66148 -4.955109,-17.93715 -2.4662164,-26.61541 0.9139283,-3.18668 0.6717466,-6.7912 -0.8783199,-13.0725 -2.0625513,-8.35804 -2.03866,-8.92361 0.65862,-15.591331 1.5393434,-3.805284 4.3587335,-11.65326 6.2653112,-17.439947 1.906578,-5.786688 4.063469,-11.636688 4.793092,-13 1.369535,-2.558998 5.945998,-3.254515 8.93467,-1.357864 2.556327,1.622277 3.635011,14.042035 1.63826,18.862616 -1.40939,3.402569 -1.331885,5.221681 0.470578,11.044984 C 28.330902,98.86282 29.159003,104.7 28.984303,108 l -0.317637,6 6.007545,0.39308 c 5.221933,0.34168 6.639219,-0.1855 10.83792,-4.03136 3.000401,-2.74826 5.775753,-7.1431 7.325788,-11.600552 1.860656,-5.350717 3.85205,-8.164789 7.828746,-11.062928 C 69.635614,81.161847 71.034946,76.690468 66.714128,68.374393 64.471189,64.057514 64.26274,62.152889 65.2631,55.116196 66.695516,45.040351 69.918798,37.966089 74.681773,34.44467 c 1.982975,-1.466077 5.91075,-5.765887 8.728389,-9.555132 7.886712,-10.60629 19.246228,-20.7528329 24.981138,-22.3136376 7.73235,-2.10442653 15.9289,-0.045131 17.49013,4.3942088 1.52964,4.3495158 -2.27652,13.8857368 -6.01587,15.0725588 -1.33266,0.422972 -4.29801,3.136406 -6.58967,6.029852 -3.14443,3.970169 -5.12048,5.260814 -8.0546,5.260814 -4.08659,0 -5.12962,2.639045 -2.61458,6.615317 1.01405,1.603198 1.7367,1.307734 4.07636,-1.666666 1.56409,-1.988426 4.16676,-3.615318 5.78369,-3.615318 4.09794,0 8.86657,3.639799 8.86657,6.767675 0,2.082535 0.6411,2.455557 3.14166,1.827957 4.6422,-1.165116 7.52501,2.444014 7.52501,9.420918 0,3.20434 -0.60858,6.202192 -1.35239,6.661893 C 128.26724,60.816262 124,70.432276 124,74.32518 c 0,2.070611 1.99133,6.855613 4.42518,10.633337 2.43385,3.777726 5.51312,9.457492 6.84282,12.621705 1.32969,3.164208 3.18172,7.499198 4.11561,9.633298 1.25619,2.87062 1.32435,4.70023 0.26193,7.03197 -1.55106,3.40422 -2.83349,3.83729 -14.96092,5.05227 -9.09373,0.91104 -10.83716,2.01353 -8.90204,5.62933 0.74963,1.40069 2.3791,7.56158 3.62105,13.69086 1.89914,9.3726 2.00116,12.29227 0.64179,18.36655 -0.88897,3.97232 -1.41285,7.34364 -1.16419,7.49182 0.24865,0.14819 2.77234,1.32543 5.60819,2.61608 4.85653,2.21032 5.09712,2.59536 4.14093,6.62714 -0.55834,2.35425 -0.88406,8.63209 -0.72382,13.95076 0.27546,9.14284 0.0734,9.88825 -3.70503,13.66666 -4.33809,4.33808 -9.52434,5.159 -15.4721,2.44902 -4.6659,-2.12592 -4.25473,-4.70262 1.2706,-7.96264 6.04061,-3.56406 6.34734,-8.21908 0.73288,-11.12243 -6.87137,-3.55332 -9.78115,-2.60844 -19.57057,6.35504 -14.364602,13.15267 -16.157804,14.27739 -22.763112,14.27739 -9.297701,0 -11.073983,-1.56591 -11.018619,-9.71358 0.02599,-3.8242 0.904725,-8.45309 1.952753,-10.28642 1.048028,-1.83334 1.926767,-4.90083 1.952753,-6.81667 0.02599,-1.91583 1.847247,-5.74832 4.047247,-8.51667 5.318604,-6.6926 5.296705,-10 -0.06621,-10 -6.692135,0 -11.933787,3.45523 -11.933787,7.8666 0,4.91274 -3.203238,13.93614 -6.681046,18.82027 -1.719863,2.41532 -2.4628,4.98424 -1.998944,6.91191 0.447162,1.85829 -0.316928,4.77642 -1.937959,7.40122 -2.630793,4.25983 -2.840492,4.33206 -12.362453,4.25808 C 25.025485,205.21668 18.566666,204.46668 16,203.59142 Z m 65.432835,-18.33446 c 5.445274,-5.90868 13.957612,-14.08257 18.916305,-18.16422 4.9587,-4.08164 9.34119,-8.71756 9.73887,-10.30206 0.41555,-1.65568 -0.71973,-5.98045 -2.66945,-10.1691 -1.86588,-4.00854 -3.40741,-9.38824 -3.42561,-11.95491 -0.0546,-7.69952 -3.28441,-15.17578 -7.163366,-16.58157 -4.896918,-1.77472 -5.465925,-0.42549 -3.000003,7.11363 4.46023,13.63637 1.753877,22.76085 -11.229754,37.86114 C 72.98229,174.24531 64.506544,196 69.766169,196 c 0.971395,0 6.221395,-4.83437 11.666666,-10.74304 z m -0.737658,-35.95513 c 3.384309,-3.73961 0.973822,-5.91171 -5.262251,-4.74181 -4.540668,0.85182 -6.413073,4.0154 -3.877372,6.55109 1.797116,1.79712 6.766074,0.81347 9.139623,-1.80928 z m 7.117012,-48.64464 c 0.280214,-1.455032 1.637105,-4.079058 3.015312,-5.831164 1.378206,-1.752106 2.50583,-5.204733 2.50583,-7.672503 0,-4.311702 -0.199124,-4.486855 -5.100914,-4.486855 -10.012395,0 -13.639616,8.917237 -7.462184,18.345192 2.402309,3.66638 6.30543,3.46981 7.041956,-0.35467 z m 30.854471,2.00948 c 0,-0.73334 -0.9,-1.33334 -2,-1.33334 -1.1,0 -2,0.6 -2,1.33334 0,0.73333 0.9,1.33333 2,1.33333 1.1,0 2,-0.6 2,-1.33333 z m -1.77525,-4.700934 c 2.36583,-2.36583 1.45089,-5.965735 -1.51623,-5.965735 -1.12302,0 -2.05004,0.45 -2.06006,1 -0.01,0.55 -0.37999,2.350001 -0.82217,4.000001 -0.94198,3.514998 1.34669,4.017498 4.39846,0.965734 z M 100.0359,68.000001 c 3.42336,-6.927135 6.63076,-17.453432 6.63076,-21.761331 0,-5.423891 -2.31489,-4.266784 -3.31577,1.657404 -0.48593,2.876173 -2.63867,7.997011 -4.783864,11.379638 -4.392372,6.926052 -5.144267,11.831301 -1.709939,11.155388 1.204732,-0.237104 2.635197,-1.331099 3.178813,-2.431099 z m -12.872333,-9.37474 c 3.478108,-4.133497 6.622951,-12.8133 5.37442,-14.833466 -1.635981,-2.647072 -7.02217,-0.948272 -10.171885,3.208206 -6.537777,8.627489 -7.074853,10.534865 -3.72922,13.243995 3.971307,3.215769 4.551381,3.105645 8.526685,-1.618735 z"
       id="path491" />
  </g>
</svg>
