<?xml version="1.0" encoding="UTF-8" standalone="no"?>
<!-- Created with Inkscape (http://www.inkscape.org/) -->

<svg
   version="1.1"
   id="svg75"
   width="221.33333"
   height="109.33333"
   viewBox="0 0 221.33333 109.33333"
   xmlns="http://www.w3.org/2000/svg"
   xmlns:svg="http://www.w3.org/2000/svg">
  <defs
     id="defs79" />
  <g
     id="g81">
    <path
       style="fill:#000000;stroke-width:1.33333"
       d="m 197.98938,103.14306 c -3.66082,-1.93798 -8.08697,-4.637975 -9.83586,-5.999996 -1.7489,-1.36202 -4.03074,-2.4764 -5.07074,-2.4764 -2.22785,0 -9.84382,-4.949101 -16.41612,-10.667721 C 153.4062,72.46088 148.367,68.256285 145.36998,66.229471 c -3.86862,-2.616272 -16.03448,-3.031644 -18.43665,-0.629473 -2.74659,2.746587 -1.78501,3.733333 3.6381,3.733333 5.65457,0 9.42857,2.658709 9.42857,6.642248 0,1.348473 -1.5613,4.836449 -3.46955,7.751056 -3.0486,4.65636 -4.26201,5.40441 -10.00147,6.165777 -7.07892,0.939051 -11.86232,-0.684197 -11.86232,-4.025484 0,-3.031823 -5.42497,-15.519339 -7.90381,-18.193445 -1.91135,-2.061925 -3.06301,-2.1559 -10.126403,-0.826309 -11.31849,2.130559 -11.303115,2.123648 -11.303115,5.08024 0,3.669688 -4.651389,6.308402 -13.068176,7.413522 -6.318844,0.829662 -7.40844,1.467062 -10.27776,6.012357 -1.76527,2.796371 -4.44615,5.950435 -5.957512,7.009034 -3.807015,2.666537 -9.207725,1.388111 -10.159725,-2.404954 -0.434777,-1.732294 -2.125305,-3.400304 -3.896837,-3.84493 -5.006916,-1.256656 -5.400609,-5.521673 -1.09566,-11.869656 4.878803,-7.194174 5.695105,-7.73146 10.280329,-6.766449 2.86294,0.602537 3.675258,0.350491 3.230508,-1.002365 -1.166302,-3.547702 -7.541668,-2.840747 -12.940128,1.434912 -5.90307,4.675318 -6.679586,4.784458 -14.546383,2.044504 C 14.324538,65.572743 8.1350212,61.556403 6.9341479,56.99638 6.3070256,54.615037 6.0644943,51.600516 6.3951892,50.297445 7.3131662,46.680247 24.006732,33.452904 28.785198,32.556459 c 4.443643,-0.833633 10.678935,1.584724 13.808504,5.355624 0.953049,1.148354 3.189145,2.087916 4.969104,2.087916 4.421204,0 11.10386,-3.631597 11.10386,-6.03424 0,-2.493149 -2.500894,-2.526461 -5.228345,-0.06964 -1.157744,1.042865 -3.728876,2.301356 -5.71363,2.796647 -3.097456,0.772964 -3.729277,0.419872 -4.460262,-2.492607 -0.468394,-1.866224 -2.294506,-4.338547 -4.058027,-5.494051 -3.608395,-2.364313 -4.346175,-7.983434 -1.206403,-9.188277 1.1,-0.42211 2,-2.19331 2,-3.936002 0,-3.857451 3.832259,-7.5818292 7.801446,-7.5818292 1.608641,0 5.528496,2.4000002 8.710786,5.3333332 4.929064,4.543453 6.657944,5.333333 11.673533,5.333333 6.983536,0 11.814235,2.958093 11.814235,7.234483 0,3.852702 4.575244,4.75511 18.171658,3.584127 9.210863,-0.793278 9.654403,-0.997866 14.333333,-6.611429 2.8524,-3.422173 4.8367,-7.241733 4.84876,-9.333333 0.0384,-6.6568629 4.11458,-9.3303117 13.67258,-8.967412 7.46948,0.2836027 10.03467,2.3796299 11.71524,9.572618 2.18045,9.332438 -3.30317,16.345198 -10.65453,13.625606 -1.78546,-0.660519 -4.03546,-0.898111 -5,-0.527981 -3.5278,1.353743 -1.5891,4.287498 5.24629,7.939003 14.71249,7.859495 19.31903,10.999327 24.31125,16.570634 2.83526,3.164142 6.84512,6.626975 8.91082,7.695187 2.06569,1.068212 5.11078,4.587494 6.76686,7.820629 4.45059,8.688781 19.08451,19.007107 30.3444,21.395734 13.52647,2.869448 19.17136,12.247448 9.91164,16.466458 -4.91953,2.24148 -7.18193,1.9332 -14.58892,-1.98793 z M 35.800665,55.189546 38.861346,53.045762 35.864921,49.856213 C 32.158538,45.910951 28.128814,45.799419 23.409684,49.511488 l -3.616606,2.844822 5.10346,2.38058 c 6.478336,3.021911 7.19361,3.051603 10.904127,0.452656 z m 77.095065,-2.532662 c 2.6198,-1.09462 6.78999,-1.990219 9.2671,-1.990219 5.22022,0 6.39485,-3.563098 1.50383,-4.561716 -22.81912,-4.659068 -50.00995,-4.301906 -61.829392,0.812152 -3.918801,1.695594 -7.135331,3.461348 -7.147847,3.9239 -0.03749,1.385836 19.536001,3.256492 37.04348,3.540276 12.025749,0.194928 17.669949,-0.264973 21.162829,-1.724393 z"
       id="path630" />
  </g>
</svg>
