<?xml version="1.0" encoding="UTF-8" standalone="no"?>
<!-- Created with Inkscape (http://www.inkscape.org/) -->

<svg
   version="1.1"
   id="svg185"
   width="218.66667"
   height="214.66667"
   viewBox="0 0 218.66667 214.66667"
   xmlns="http://www.w3.org/2000/svg"
   xmlns:svg="http://www.w3.org/2000/svg">
  <defs
     id="defs189" />
  <g
     id="g191">
    <path
       style="fill:#000000;stroke-width:1.33333"
       d="m 153.33334,209.43792 c -7.3843,-1.49402 -10.33264,-3.71342 -12.0813,-9.09434 -2.52738,-7.77723 -11.56541,-24.94388 -14.55895,-27.653 C 125.21189,171.35011 124,169.12754 124,167.75151 c 0,-1.37603 -1.05,-2.87424 -2.33333,-3.32935 -3.4728,-1.23158 -7,-4.58837 -7,-6.66181 0,-1.59595 1.57361,-2.48715 8.96886,-5.07944 1.2137,-0.42545 1.04176,-1.63592 -0.66667,-4.69328 -2.21146,-3.95761 -2.20011,-4.19624 0.28801,-6.05528 2.12808,-1.59003 2.36023,-2.58923 1.30122,-5.60049 -1.90371,-5.4132 -6.07731,-4.8664 -7.59621,0.99521 l -1.20763,4.66041 -2.54379,-3.14145 c -4.05621,-5.0092 -3.25296,-10.18902 2.5437,-16.40335 l 5.0875,-5.45406 6.9125,2.02634 c 6.45084,1.891 6.91251,1.87179 6.91251,-0.28766 0,-1.2727 -1.18809,-3.38921 -2.64021,-4.70336 -3.55337,-3.21575 -10.44252,-21.423255 -11.49538,-30.381395 -0.69989,-5.955002 -0.46829,-7.381334 1.30931,-8.063464 3.35073,-1.285796 5.12599,-0.02094 10.15961,7.238623 8.01171,11.554609 10.20939,13.814571 16.47842,16.945478 6.30217,3.147458 18.65242,15.652178 24.5149,24.821528 l 3.35751,5.25138 2.42632,-4.72939 c 7.04672,-13.73547 29.17293,-7.99508 29.13973,7.55997 -0.007,2.93333 -0.86885,6.83333 -1.91688,8.66667 -2.5552,4.46985 -2.46268,5.33333 0.57143,5.33333 3.02409,0 6.76191,3.37571 6.76191,6.10683 0,1.05398 -3.16202,5.36113 -7.0267,9.57142 -3.86468,4.2103 -8.31876,9.75508 -9.89794,12.32175 -3.43863,5.58881 -7.84028,17.45147 -8.99363,24.23819 -1.45817,8.58048 -3.85865,10.0715 -17.41507,10.81718 -6.6,0.36303 -14.1,0.23518 -16.66666,-0.28412 z M 173.69012,195 c 1.15688,-1.28333 3.06971,-5.03333 4.25072,-8.33333 1.18102,-3.3 3.05022,-8.54693 4.15379,-11.65985 3.08867,-8.71243 1.40509,-10.59079 -10.41325,-11.61807 -5.32476,-0.46283 -12.08138,-0.72895 -15.01471,-0.59135 -2.93333,0.13759 -8.48333,-0.2191 -12.33333,-0.79266 -6.3535,-0.94654 -6.99418,-0.81019 -6.93698,1.47621 0.0347,1.38548 2.14099,6.11905 4.68074,10.51905 2.53973,4.4 5.48942,9.8782 6.55486,12.17376 3.30146,7.11328 9.3193,11.15958 16.59703,11.15958 4.36477,0 7.01707,-0.73143 8.46113,-2.33334 z m -12.50909,-50.17121 c 2.95395,-3.14433 2.95963,-3.23103 0.67101,-10.22807 -2.25628,-6.89817 -5.85096,-11.93405 -8.5187,-11.93405 -0.73334,0 -1.33334,0.56459 -1.33334,1.25464 0,0.69006 0.6,1.62547 1.33334,2.07869 1.8572,1.14781 1.66808,6.46526 -0.29995,8.43328 -1.28881,1.28882 -1.28881,2.18486 0,4.24858 0.89831,1.43841 1.63328,4.12344 1.63328,5.96672 0,4.23057 2.64061,4.30362 6.51436,0.18021 z m 32.67597,-8.5974 c 1.38364,-2.23879 -0.87629,-6.89805 -3.34584,-6.89805 -1.74185,0 -2.51116,0.9531 -2.51116,3.11111 0,1.71111 0.4,3.51111 0.8889,3.99999 1.23654,1.23656 4.1494,1.11164 4.9681,-0.21305 z m -43.61285,-17.81472 c -0.42563,-1.06365 -0.74157,-0.7477 -0.80555,0.80555 -0.0579,1.40556 0.25723,2.19306 0.7003,1.75 0.44305,-0.44305 0.49041,-1.59305 0.1052,-2.55555 z M 14.676694,166.87472 C 8.3959701,166.12454 7.1023905,165.47396 5.5903344,162.30495 4.0932847,159.16739 4.1598063,157.46606 6.0312346,151.02856 10.618095,135.25032 18.633236,125.03405 32,117.92823 c 10.384849,-5.52062 32.140461,-1.96227 42.566713,6.96221 5.544264,4.74568 13.429658,15.41135 13.438272,18.1764 0.0028,0.87991 1.202742,3.56434 2.666667,5.96539 2.981287,4.88976 3.540709,13.91173 0.993691,16.02556 -1.963156,1.62928 -65.922461,3.13872 -76.988649,1.81693 z m 57.65664,-12.42824 c 5.043462,-1.09824 6.333334,-1.93492 6.333334,-4.10813 0,-4.23387 -8.963556,-16.72247 -14.751522,-20.55277 -4.846558,-3.2073 -6.041318,-3.40719 -17.181353,-2.87458 -11.720434,0.56036 -12.106966,0.68618 -18.353189,5.97387 -7.268922,6.15344 -10.370817,10.9718 -11.608377,18.03197 -0.857037,4.88932 -0.833627,4.91983 4.182956,5.4502 8.478684,0.8964 44.651443,-0.45577 51.378151,-1.92056 z M 40.649505,38.414507 C 38.168557,37.299193 36.089927,34.634437 30.185592,25 c -3.051341,-4.979048 -4.972725,-4.602586 -8.558738,1.676936 -3.330354,5.831837 -7.556186,7.080014 -8.963043,2.6474 -1.104062,-3.478593 6.545832,-17.021395 10.678456,-18.904345 4.018209,-1.8308186 6.387441,-0.372049 12.473076,7.679852 2.722483,3.602116 5.924598,6.736997 7.115812,6.966404 1.473626,0.283795 3.5123,-2.109108 6.378703,-7.487029 2.384568,-4.473909 5.630075,-8.5498597 7.478495,-9.3920564 3.621357,-1.6500011 2.779623,-2.3377292 12.632459,10.3211824 l 5.58454,7.17501 4.365275,-7.17501 C 85.678352,8.1406101 87.906956,5.3333334 89.829829,5.3333334 c 2.34052,0 6.517902,4.7381166 11.079911,12.5671866 2.10469,3.611952 4.43528,6.770043 5.17909,7.017979 0.74381,0.247935 2.8281,-1.992537 4.63177,-4.978827 C 117.80034,8.2179323 119.51545,6.0014488 121.85454,5.5509812 124.89689,4.9650781 132.69153,12.301307 136.14394,19 c 1.41732,2.75 3.45609,5 4.53064,5 1.07453,0 3.73609,-3.530897 5.91457,-7.846437 4.40349,-8.7232614 7.29268,-12.1535629 10.23643,-12.1535629 2.7659,0 8.20988,6.1986519 12.00276,13.6666669 C 170.59746,21.15 172.64803,24 173.38516,24 c 1.42096,0 8.73818,-10.854279 10.00236,-14.8374107 0.4119,-1.2977337 1.89554,-2.7234468 3.29699,-3.1682513 5.34592,-1.6967285 8.69353,2.1468805 18.87541,21.67202 4.03691,7.741332 4.18936,8.489123 2.14708,10.5314 -1.86189,1.861893 -2.80169,1.948467 -6.14017,0.565625 -2.97091,-1.230588 -4.88085,-3.74167 -7.75432,-10.19488 -2.09688,-4.709172 -4.27027,-8.563565 -4.82976,-8.565317 -0.55949,-0.0017 -2.58857,3.315465 -4.50905,7.371593 -4.18387,8.836452 -8.75271,12.929307 -12.77287,11.442155 -1.53755,-0.568776 -5.11801,-4.885268 -7.95657,-9.592203 -2.83858,-4.706935 -5.89226,-8.707435 -6.78598,-8.889999 -0.89372,-0.182565 -3.25714,3.241943 -5.25206,7.610016 -3.89468,8.527818 -8.65555,12.780014 -12.8266,11.45617 -1.42138,-0.451123 -4.80122,-4.356052 -7.51078,-8.677622 -2.70956,-4.321568 -5.71213,-8.158884 -6.67238,-8.527366 -2.28844,-0.878155 -6.78062,4.154577 -7.88872,8.837985 -1.15986,4.90216 -5.38246,8.966086 -9.31615,8.966086 -2.92498,0 -10.146839,-7.278343 -10.164878,-10.244371 -0.01472,-2.42037 -6.297937,-8.803468 -7.770103,-7.89362 -0.853282,0.527357 -3.067106,4.162724 -4.919608,8.078592 -4.470356,9.449555 -6.219162,10.832136 -11.128991,8.798419 -2.507972,-1.038836 -5.566016,-4.55783 -8.86932,-10.206222 -2.772872,-4.741397 -5.700934,-8.408624 -6.506804,-8.149393 -0.80587,0.25923 -3.192857,4.11808 -5.304417,8.575218 -4.085474,8.623737 -7.731511,11.454794 -12.177964,9.455883 z"
       id="path213" />
  </g>
</svg>
