<?xml version="1.0" encoding="UTF-8" standalone="no"?>
<!-- Created with Inkscape (http://www.inkscape.org/) -->

<svg
   version="1.1"
   id="svg175"
   width="112"
   height="116"
   viewBox="0 0 112 116"
   xmlns="http://www.w3.org/2000/svg"
   xmlns:svg="http://www.w3.org/2000/svg">
  <defs
     id="defs179" />
  <g
     id="g181">
    <path
       style="fill:#000000;stroke-width:1.33333"
       d="m 50.561996,110.35448 c -2.965529,-1.83829 -6.894989,-2.86173 -11.228663,-2.92453 -5.609025,-0.0813 -6.728356,-0.51967 -7.055517,-2.76328 -0.258624,-1.7736 -2.944927,-3.86204 -8.021192,-6.235987 C 16.682529,94.888605 5.5436052,85.029299 3.8948215,80.408004 c -1.3399342,-3.755636 0.060292,-5.741337 4.0485293,-5.741337 2.9465642,0 4.4613902,1.292308 7.7883882,6.644328 6.845536,11.01216 17.165281,15.078382 23.934928,9.430922 3.673876,-3.064866 3.866221,-5.408584 0.443873,-5.408584 -11.670309,0 -31.3429732,-20.251869 -28.946786,-29.799041 1.381602,-5.504737 5.293453,-4.418421 10.722687,2.977677 2.629124,3.581583 4.780226,7.151048 4.780226,7.932146 0,2.167684 8.563478,8.222552 11.629261,8.222552 3.654456,0 4.569275,-1.502426 8.8516,-14.537186 4.771709,-14.524368 9.211715,-23.169714 13.72092,-26.716656 1.992925,-1.567636 8.098477,-8.076826 13.567893,-14.464869 5.469415,-6.388042 11.066043,-12.40377 12.436951,-13.3682835 3.679364,-2.5886456 9.167669,-1.4000508 12.166499,2.6348815 3.596999,4.839775 6.804219,21.912801 6.873429,36.589479 0.0628,13.312911 -1.37136,17.135158 -12.803177,34.122808 C 90.299519,83.103269 88,87.094004 88,87.79514 88,89.424 80.53256,93.844061 74.312723,95.896792 69.763036,97.398324 60,106.53432 60,109.29026 c 0,0.70542 -1.097101,1.86973 -2.438004,2.58736 -1.81292,0.97025 -3.60766,0.57973 -7,-1.52314 z m 7.639452,-14.549731 4.3284,-4.19525 -3.264924,-2.56819 C 57.469216,87.628805 56,85.316668 56,83.903227 c 0,-1.413442 -0.9,-2.569894 -2,-2.569894 -1.1,0 -2,1.116272 -2,2.480604 0,1.364332 -1.5,4.690978 -3.333333,7.392546 -3.760578,5.54152 -4.05652,6.946149 -1.666667,7.910476 3.912553,1.578751 7.139836,0.62446 11.201448,-3.31221 z M 76.922507,83.666667 c 2.261757,-2.383334 5.096198,-6.133334 6.298761,-8.333334 1.202561,-2.2 3.231428,-5.8 4.508592,-8 3.549119,-6.113592 5.506388,-12.679966 6.43888,-21.601566 0.995981,-9.529038 -0.279609,-18.131696 -2.578553,-17.389899 -1.83759,0.592933 -7.32349,10.064061 -7.482703,12.918507 -0.05912,1.059873 -1.569873,3.459873 -3.357239,5.333333 -1.787365,1.873461 -5.374009,7.712627 -7.970318,12.975925 -2.59631,5.263298 -5.33392,9.948708 -6.083579,10.412023 -2.2146,1.368697 -1.56414,11.240124 0.970319,14.725633 3.089196,4.24841 4.37365,4.104 9.25584,-1.040622 z M 55.577485,69.083333 c -0.425634,-1.063644 -0.741577,-0.747701 -0.805556,0.805556 -0.05789,1.405555 0.257238,2.193055 0.700294,1.75 0.443054,-0.443056 0.490424,-1.593056 0.105266,-2.555556 z m 3.899787,-4.75 C 60.451461,63.05 61.267607,60.730915 61.290929,59.179812 61.314251,57.628708 62.533333,54.834071 64,52.969505 67.174519,48.93376 67.718289,45.467379 64.796464,47.892277 62.845573,49.511373 56,63.112693 56,65.36978 c 0,1.996107 1.518908,1.543376 3.477272,-1.036447 z m 14.76688,-29.916666 c -0.425635,-1.063644 -0.741577,-0.747702 -0.805556,0.805556 -0.05789,1.405554 0.257237,2.193054 0.700293,1.75 0.443055,-0.443056 0.490424,-1.593056 0.105267,-2.555556 z"
       id="path352" />
  </g>
</svg>
