<?xml version="1.0" encoding="UTF-8" standalone="no"?>
<!-- Created with Inkscape (http://www.inkscape.org/) -->

<svg
   version="1.1"
   id="svg165"
   width="109.33333"
   height="217.33333"
   viewBox="0 0 109.33333 217.33333"
   xmlns="http://www.w3.org/2000/svg"
   xmlns:svg="http://www.w3.org/2000/svg">
  <defs
     id="defs169" />
  <g
     id="g171">
    <path
       style="fill:#000000;stroke-width:1.33333"
       d="m 11.424771,210.23173 c -3.1554195,-2.30729 -1.7479413,-7.02755 2.406366,-8.07021 5.391878,-1.35327 10.168862,-6.0607 10.168862,-10.02078 0,-3.40364 -2.705561,-13.26084 -5.345158,-19.47408 -1.200303,-2.82534 -5.331633,-14.20886 -7.984285,-22 C 9.7966822,148.1 8.4630784,144.2 7.706992,142 5.1788,134.64366 5.039326,129.76945 7.2354946,125.52253 c 2.6413534,-5.10781 11.4362754,-9.9067 16.0389044,-8.75152 1.803371,0.45262 8.346532,5.5643 14.540359,11.3593 6.193827,5.79499 12.009746,10.53635 12.924266,10.53635 1.270898,0 1.478262,-3.22082 0.879893,-13.66666 -0.606393,-10.58589 -1.553369,-15.40348 -4.200894,-21.37135 -4.46823,-10.07199 -4.490035,-18.363907 -0.06863,-26.098083 2.369632,-4.145095 3.317273,-7.791439 3.317273,-12.764232 0,-6.78808 -0.174347,-7.102883 -7,-12.63927 -3.85,-3.122794 -7.325767,-6.973452 -7.723927,-8.55702 -0.39816,-1.583568 0.20184,-8.3917 1.333333,-15.129181 1.529996,-9.110366 2.851321,-13.092135 5.15549,-15.53591 3.909382,-4.1462425 16.779072,-8.9049541 24.082989,-8.9049541 7.984732,0 18.027001,5.4653968 22.206015,12.0853851 7.08148,11.217789 7.946267,16.254891 11.888724,69.247947 0.35462,4.766667 0.99657,12.692648 1.42654,17.613298 0.877,10.03619 -0.48014,13.98037 -5.032908,14.62692 L 93.999997,118 v 39.11225 c 0,24.45705 0.499595,39.52191 1.333333,40.20557 0.733334,0.60134 2.772058,1.30082 4.530496,1.55442 4.485464,0.64689 6.373734,4.08264 4.501794,8.1911 -1.47407,3.23523 -1.73884,3.27991 -24.594536,4.14927 -12.70743,0.48335 -28.928954,0.34951 -36.047831,-0.29744 -7.118875,-0.64693 -15.818875,-0.70328 -19.333332,-0.1252 -9.025104,1.48452 -10.243249,1.43207 -12.96515,-0.55824 z m 64.240163,-14.51448 c 4.809054,-3.18593 5.646997,-4.52487 7.044398,-11.25612 1.533484,-7.38675 1.186735,-23.2774 -1.17167,-53.69473 l -0.870998,-11.2336 -8,-1.6135 c -4.399999,-0.88743 -8.198702,-1.43361 -8.441562,-1.21373 -0.242859,0.21988 -0.742499,6.30107 -1.110311,13.51377 -1.400773,27.4688 -2.312096,34.39615 -4.581673,34.82728 -1.305989,0.24808 -5.14719,-3.27828 -9.90309,-9.09141 -11.228098,-13.72408 -21.603249,-22.62188 -26.377906,-22.62188 -3.758471,0 -3.852567,0.15812 -2.951683,4.96025 1.342956,7.15858 4.596492,16.42191 7.389735,21.03975 1.330737,2.2 3.344857,8.50376 4.475822,14.00835 2.576714,12.54128 5.574252,21.12633 8.5085,24.36864 2.005609,2.21617 3.921984,2.45758 16.401528,2.06618 12.738803,-0.39952 14.668189,-0.79933 19.58891,-4.05925 z M 65.11563,105.94999 c 0.246931,-2.1144 -0.2811,-9.804109 -1.173401,-17.088247 -1.300544,-10.616748 -1.905848,-12.743132 -3.051446,-10.719483 -2.882339,5.091529 -3.377294,15.555244 -1.145075,24.20776 2.236106,8.66758 4.59353,10.24798 5.369922,3.59997 z m 24.047991,-2.28332 c 0.603692,-1.65 0.598168,-7.500005 -0.01227,-13.000005 C 88.17836,81.900185 87.494221,73.850868 84.831128,39.836551 84.151444,31.155308 81.167559,24.55027 77.382735,23.349013 75.927155,22.88703 73.582103,21.041814 72.171508,19.248534 69.129618,15.381397 62.786015,13.79539 58.829556,15.912822 54.175314,18.403697 55.597908,20 62.471967,20 c 8.276391,0 13.528031,4.271413 13.528031,11.003001 0,2.455016 -0.534623,5.033665 -1.188052,5.730332 -1.705571,1.818432 -2.560788,23.624061 -1.357012,34.599999 2.184518,19.918284 3.978884,33.083898 4.659056,34.184448 0.390529,0.63189 2.789493,1.14889 5.331031,1.14889 3.578016,0 4.868714,-0.67711 5.7186,-3 z M 59.751142,39.666666 c -0.392166,-4.067367 -0.765614,-4.358497 -6.084477,-4.743331 -5.180156,-0.374796 -5.666666,-0.140126 -5.666666,2.733334 0,4.351994 2.412355,6.34333 7.684477,6.34333 4.256228,0 4.463213,-0.220557 4.066666,-4.333333 z"
       id="path789" />
  </g>
</svg>
