<?xml version="1.0" encoding="UTF-8" standalone="no"?>
<!-- Created with Inkscape (http://www.inkscape.org/) -->

<svg
   version="1.1"
   id="svg165"
   width="218.66667"
   height="200"
   viewBox="0 0 218.66667 200"
   xmlns="http://www.w3.org/2000/svg"
   xmlns:svg="http://www.w3.org/2000/svg">
  <defs
     id="defs169" />
  <g
     id="g171">
    <path
       style="fill:#000000;stroke-width:1.33333"
       d="m 116.72484,191.60924 c -1.60833,-2.45461 -2.04973,-8.82951 -2.23879,-32.33333 -0.12952,-16.10175 0.18882,-30.59522 0.70743,-32.20771 1.27874,-3.97591 5.54154,-5.10026 9.50096,-2.50595 2.81232,1.84271 3.19494,3.02211 2.95558,9.11058 -0.15122,3.84661 0.24518,18.23656 0.88088,31.97765 1.26908,27.43224 0.94173,29.01619 -5.99675,29.01619 -2.49684,0 -4.49509,-1.05168 -5.80931,-3.05743 z m 80.45468,-84.0007 c -1.18458,-0.90199 -4.08921,-5.47401 -6.45472,-10.160057 l -4.30093,-8.52008 -4.77356,8.535798 c -5.16945,9.243719 -6.36284,10.484299 -10.11536,10.515379 -3.03368,0.0251 -9.51316,-6.73635 -12.99417,-13.559676 -2.92819,-5.739717 -4.00279,-6.200332 -5.89127,-2.525228 -0.72389,1.408739 -3.36723,5.608739 -5.87405,9.333334 -4.66146,6.92586 -9.04796,8.79055 -12.00984,5.10532 -6.52071,-8.113163 -8.96184,-11.365033 -10.14737,-13.517438 -2.01567,-3.659577 -3.61961,-3.271305 -6.61825,1.602096 -7.05837,11.471312 -8.29188,12.944102 -11.18971,13.360272 -3.96916,0.57002 -9.798883,-4.91801 -13.429974,-12.642827 -3.913193,-8.32496 -5.485931,-7.881389 -10.522744,2.96781 C 81.862569,100.24646 80.600419,102.9 80.052793,104 c -0.547626,1.1 -2.656426,2.59146 -4.686223,3.31436 -3.311465,1.17935 -4.092548,0.83697 -7.604386,-3.33334 -2.152616,-2.55623 -5.190208,-6.897687 -6.750203,-9.647687 -1.559996,-2.75 -3.296507,-5 -3.858913,-5 -0.562407,0 -3.187214,3.87077 -5.832907,8.601708 -7.350982,13.144789 -11.436267,13.035869 -19.942915,-0.531672 -2.782887,-4.43852 -5.902543,-8.070036 -6.93257,-8.070036 -1.030026,0 -3.01204,2.657796 -4.404474,5.906215 -1.392435,3.248419 -3.780734,6.574682 -5.30733,7.391682 -2.356245,1.26103 -2.938698,1.04466 -3.854867,-1.43198 -1.2798214,-3.459685 3.717549,-16.866782 8.743697,-23.457862 2.816313,-3.693193 3.651846,-4.074371 6.293065,-2.870952 1.675069,0.763213 4.479503,3.784733 6.232073,6.714488 1.752573,2.929755 4.537846,6.921683 6.189498,8.870952 3.434571,4.053457 3.223907,4.210767 10.330329,-7.713952 6.481535,-10.876143 8.648598,-10.55258 17.809263,2.659091 2.690418,3.880168 5.601736,7.29154 6.469598,7.580828 0.86786,0.289286 2.889477,-2.044875 4.492483,-5.187026 4.309713,-8.447734 8.109329,-13.12815 10.657585,-13.12815 2.887623,0 11.588968,9.586054 14.051854,15.480581 2.2889,5.478111 3.56844,5.667521 5.76063,0.852752 3.56313,-7.825819 9.95029,-16.333333 12.26252,-16.333333 2.64408,0 7.20607,4.399324 13.48068,13 2.27376,3.116666 4.5868,5.666666 5.14008,5.666666 0.5533,0 2.66724,-3.280857 4.69766,-7.290793 2.03041,-4.009936 5.10532,-8.815359 6.83312,-10.678719 4.14961,-4.475158 6.3475,-3.223297 13.83058,7.877532 3.216,4.770803 6.47194,8.693191 7.2354,8.716418 0.76347,0.02323 3.01855,-3.107771 5.0113,-6.957771 5.39396,-10.421191 6.85458,-11.926028 11.09692,-11.432856 3.77156,0.438445 7.09986,5.104855 17.17833,24.084616 l 3.35515,6.31843 -2.68158,2.68157 c -3.06021,3.06022 -5.09348,3.29837 -8.16872,0.95678 z M 83.333335,57.305661 C 66.495629,55.9437 44.446227,50.567195 35.028762,45.52712 33.282229,44.592404 29.377283,44.581987 22.792632,45.49448 14.641875,46.624 12.614318,46.502246 9.8941635,44.719932 c -1.7751232,-1.163105 -3.2274967,-3.000905 -3.2274967,-4.084 0,-3.358825 4.8010992,-6.978281 10.5433482,-7.948428 3.051304,-0.515514 7.849864,-2.800265 10.797461,-5.141022 C 38.833049,18.949632 41.089742,17.377131 48.131658,13.523607 61.152446,6.3982848 69.157513,4.7930289 92.000001,4.7266883 109.44139,4.6760337 114.12325,5.1122404 122,7.521772 c 5.13334,1.5703079 12.03334,3.545639 15.33334,4.389624 3.3,0.843986 9,2.46906 12.66666,3.611276 3.66667,1.142216 10.06559,2.849911 14.21984,3.794875 4.15424,0.944965 8.06294,2.033173 8.68599,2.418241 0.99708,0.616229 14.95185,3.071711 32.1206,5.65194 6.87559,1.033308 9.64024,3.51702 9.64024,8.660599 0,5.60559 -2.94627,6.59672 -15.36691,5.169465 -5.8482,-0.672016 -13.28486,-0.837547 -16.52593,-0.367845 -5.62461,0.815132 -20.62563,6.238729 -23.44049,8.474881 -1.64571,1.307361 -27.14386,6.593448 -35.33334,7.325044 -14.6983,1.313053 -29.575139,1.552956 -40.666665,0.655789 z M 102.66667,46.769064 c 0,-0.677013 -3.163686,-1.156863 -7.03041,-1.066331 -13.631475,0.319158 -23.557492,-8.571269 -24.959567,-22.35551 -0.777077,-7.639699 -2.963653,-8.886166 -9.830149,-5.603722 -2.298932,1.098976 -5.679876,2.585339 -7.51321,3.303027 -4.16708,1.631272 -17.333333,12.079553 -17.333333,13.755133 0,2.079328 14.391497,7.552914 29.333333,11.156482 8.429543,2.032978 37.333336,2.660801 37.333336,0.810921 z m 24.66667,-2.799785 c 7.33333,-0.847238 16.63333,-2.748427 20.66666,-4.224863 4.03334,-1.476437 9.59131,-3.349011 12.35106,-4.161275 2.75974,-0.812264 4.84409,-1.997713 4.63188,-2.63433 -0.66927,-2.007794 -30.67346,-12.016646 -37.7963,-12.608158 l -6.81337,-0.565812 -1.45928,5.779247 c -1.67337,6.627141 -6.77539,14.1268 -11.08524,16.294649 -1.62333,0.816528 -3.2287,2.324044 -3.56749,3.350036 -0.48433,1.466703 0.49067,1.699303 4.56137,1.08819 C 111.67019,45.859475 120,44.816517 127.33334,43.969279 Z M 102.91213,31 c 4.11063,-4.418697 5.66261,-10.101407 3.7399,-13.694025 -1.22146,-2.28231 -2.8129,-2.639308 -11.765607,-2.639308 -6.274624,0 -10.983387,0.630298 -11.953088,1.6 -5.356244,5.356244 3.162754,18.4 12.017212,18.4 3.248424,0 5.526603,-1.049203 7.961583,-3.666667 z"
       id="path491" />
  </g>
</svg>
