<?xml version="1.0" encoding="UTF-8" standalone="no"?>
<!-- Created with Inkscape (http://www.inkscape.org/) -->

<svg
   version="1.1"
   id="svg75"
   width="214.66667"
   height="202.66667"
   viewBox="0 0 214.66667 202.66667"
   xmlns="http://www.w3.org/2000/svg"
   xmlns:svg="http://www.w3.org/2000/svg">
  <defs
     id="defs79" />
  <g
     id="g81">
    <path
       style="fill:#000000;stroke-width:1.33333"
       d="m 103.9157,194.82956 c -3.08384,-2.53222 -3.14508,-2.85841 -1.20447,-6.41538 3.36609,-6.16979 13.31326,-5.19564 13.26835,1.2994 -0.0462,6.68668 -6.70966,9.51246 -12.06388,5.11598 z m -29.582366,-0.26969 c -2.380918,-1.38676 -2.973602,-4.67325 -1.524014,-8.45081 0.565396,-1.4734 2.5476,-2.10906 6.576816,-2.10906 4.642428,0 5.936641,0.53292 6.634585,2.73195 1.998327,6.29617 -5.590544,11.37901 -11.687387,7.82792 z m 56.789166,-2.02785 c -3.12818,-4.7742 -1.05045,-7.74994 5.76977,-8.26344 4.50317,-0.33907 5.50649,0.0829 6.76499,2.84497 3.51061,7.70496 -7.82572,12.60537 -12.53476,5.41847 z m 27.54417,-9.98838 c -4.76667,-0.54282 -39.41424,-0.79842 -76.99461,-0.568 -37.580369,0.23042 -68.049182,-0.0321 -67.708477,-0.58338 0.340707,-0.55127 -0.86172,-1.67719 -2.672059,-2.50203 -2.8003929,-1.27595 -3.2915239,-2.40829 -3.2915239,-7.58892 0,-8.53701 4.1588019,-12.61488 12.9393939,-12.68759 3.516666,-0.0291 9.69394,-0.31136 13.727273,-0.62721 C 43.968983,157.25803 116.22018,156.065 140,156.2472 c 9.9,0.0759 27.9,0.20128 40,0.2787 25.0278,0.16014 27.17879,0.80604 29.33356,8.8083 1.14171,4.23998 1.01575,6.0786 -0.63517,9.27114 -2.86857,5.5472 -5.72939,6.71229 -18.35376,7.47481 -6.05621,0.3658 -13.71129,0.84179 -17.01129,1.05776 -3.3,0.21596 -9.9,-0.0515 -14.66667,-0.59427 z m -89.333336,-9.8977 c 17.233334,-0.37486 51.238696,-0.87528 75.567466,-1.11206 39.65411,-0.38594 44.60774,-0.67532 47.84252,-2.79482 2.82798,-1.85296 3.2099,-2.6167 1.76587,-3.53127 -2.51349,-1.59191 -8.83087,-1.51133 -9.84252,0.1256 -0.91444,1.47959 -6.4042,1.81801 -7.74479,0.47744 -0.86922,-0.86923 -91.092503,-0.79292 -131.968558,0.1116 -22.260543,0.49256 -26.286655,1.32929 -26.286655,5.46305 0,2.67876 2.6618,3.28639 11.333333,2.58712 4.400001,-0.3548 22.100001,-0.9518 39.333334,-1.32666 z M 17.74445,103.74072 C 13.319894,101.60259 13.048189,99.180923 16.201842,89.991699 19.488599,80.414624 19.121399,79.014119 9.9606548,66.187746 7.2284693,62.36229 5.3333334,58.122438 5.3333334,55.835373 c 0,-4.80998 15.8731096,-36.735422 20.3230286,-40.875525 5.894536,-5.4841422 16.330065,-8.3152619 31.676972,-8.5938432 10.393075,-0.188658 15.202308,0.2924177 18.666667,1.867258 6.037251,2.7444352 15.294148,12.0819672 17.362814,17.5140572 0.890736,2.338974 2.640129,6.652681 3.887541,9.586014 1.247412,2.933333 3.017044,8.033333 3.932514,11.333333 0.91547,3.3 2.18288,7.800001 2.81646,10.000001 0.63358,2.2 1.54989,7.929254 2.03624,12.731676 1.10403,10.901527 -0.36354,12.553545 -10.932175,12.3061 -9.160955,-0.214488 -12.436727,2.489215 -12.436727,10.26482 0,7.747763 -2.675789,8.858076 -22.258768,9.236206 l -16.258769,0.31395 -2.578516,-5.093042 c -1.418184,-2.801174 -3.006392,-7.074826 -3.52935,-9.497003 -0.92712,-4.294116 -3.789916,-5.285484 -4.289862,-1.485552 -0.136728,1.039232 -0.629977,4.782761 -1.096109,8.318955 -1.322592,10.033512 -6.972326,13.814162 -14.910844,9.977942 z M 66.504154,89.461989 c 2.827511,-1.790916 0.480788,-4.128654 -4.144521,-4.128654 -4.243559,0 -9.026299,-3.169722 -9.026299,-5.982104 0,-0.862843 -1.294593,-5.693199 -2.876873,-10.734126 l -2.876875,-9.165321 6.543542,-5.879428 6.54354,-5.879429 -5.612239,0.827256 c -4.934651,0.727379 -6.156363,0.34951 -10.119047,-3.129773 -2.684804,-2.357288 -6.749593,-4.315667 -10.054429,-4.844131 -6.161489,-0.985262 -7.485413,0.809431 -2.329932,3.158424 4.892676,2.229254 5.810149,6.905116 1.965708,10.018155 -2.437329,1.97363 -4.599762,2.416268 -9.502711,1.945156 -3.491043,-0.335445 -6.347351,-0.328361 -6.347351,0.01574 0,0.344101 2.151101,3.556026 4.780225,7.137609 l 4.780224,6.511969 h 8.391349 c 8.245705,0 8.419488,0.07521 10.012618,4.333334 3.932778,10.511525 5.970194,14.540851 7.933141,15.68908 2.673553,1.563903 9.542076,1.625017 11.93993,0.10624 z M 92.270809,66.666668 C 89.391308,42.419817 85.131131,30.656851 76.093944,22 L 70.526292,16.666667 H 55.15314 39.779986 l -3.889993,4.354369 c -4.936454,5.525754 -4.880693,6.5531 0.443341,8.168098 2.383333,0.722961 6.925823,2.262849 10.09442,3.421972 4.625995,1.692261 6.828573,1.820052 11.17905,0.648591 9.26868,-2.495798 15.72653,0.880434 15.72653,8.221993 0,3.995111 -3.586089,12.209635 -8.174113,18.724138 -5.876744,8.34435 -2.67568,10.6451 14.15067,10.170729 l 13.356777,-0.376556 z m 99.159771,35.240102 c -1.15128,-1.15128 -2.36787,-3.401284 -2.70354,-5.000004 -0.33566,-1.59872 -0.93532,-22.236322 -1.33257,-45.861336 -0.69744,-41.478736 -0.63375,-43.0019425 1.85399,-44.3333338 1.41693,-0.7583196 4.40185,-1.3787628 6.63316,-1.3787628 6.68965,0 7.70406,3.2830166 8.65166,28.0000006 0.99348,25.913976 0.99558,67.938276 0.004,69.543536 -1.20473,1.9493 -10.90476,1.23132 -13.10618,-0.9701 z"
       id="path630" />
  </g>
</svg>
