<?xml version="1.0" encoding="UTF-8" standalone="no"?>
<!-- Created with Inkscape (http://www.inkscape.org/) -->

<svg
   version="1.1"
   id="svg233"
   width="206.66667"
   height="145.33333"
   viewBox="0 0 206.66667 145.33333"
   xmlns="http://www.w3.org/2000/svg"
   xmlns:svg="http://www.w3.org/2000/svg">
  <defs
     id="defs237" />
  <g
     id="g239">
    <path
       style="fill:#000000;stroke-width:1.33333"
       d="m 168,139.82701 c -3.3,-0.66779 -13.8,-1.79908 -23.33333,-2.51397 -24.2542,-1.81883 -30.38824,-2.9823 -36.23115,-6.87208 -3.84723,-2.56122 -8.21772,-3.78758 -17.768852,-4.98597 -7.315611,-0.9179 -14.074839,-2.54463 -16,-3.85069 C 70.100157,118.5063 64.161316,116 61.386905,116 c -1.268816,0 -3.392923,-1.2 -4.720237,-2.66667 -1.327315,-1.46667 -3.075082,-2.66667 -3.883926,-2.66667 -0.808844,0 -4.288368,-1.5 -7.732276,-3.33333 C 41.606559,105.5 38.187979,104 37.453621,104 c -0.734358,0 -3.54557,-1.5 -6.247138,-3.33334 -4.030428,-2.735118 -6.515131,-3.333329 -13.845192,-3.333329 -8.2488591,0 -9.0502918,-0.256877 -10.4609666,-3.35297 -1.2886324,-2.82824 -1.113463,-3.767224 1.1193133,-6 1.4558661,-1.455867 3.2090143,-2.64703 3.8958843,-2.64703 0.686871,0 1.43687,-1.95 1.666668,-4.333333 0.382485,-3.966962 0.845834,-4.368636 5.480362,-4.750882 3.82155,-0.315195 6.500963,0.535214 10.930415,3.469162 4.768896,3.158785 7.88337,4.054797 16.629519,4.784199 7.08171,0.590592 11.719346,0.384946 13.562336,-0.601392 1.591162,-0.851564 15.255978,-2.014592 31.641265,-2.693026 15.862323,-0.656778 31.591153,-1.564099 34.952963,-2.016267 4.34337,-0.58419 7.31482,-0.200318 10.26713,1.326374 3.0452,1.574739 7.8857,2.148499 18.1257,2.148499 15.40035,0 18.17862,1.188724 18.14104,7.761905 -0.0391,6.823605 -1.20445,7.324268 -14.82988,6.370802 -6.86566,-0.480437 -13.27932,-0.342828 -14.25254,0.305802 -2.30303,1.534897 -0.20418,9.741166 4.91542,19.218746 3.24235,6.00236 4.37155,6.95028 10.24895,8.60367 3.63283,1.02196 14.40513,2.20371 23.93847,2.62612 9.53333,0.4224 18.08333,1.36908 19,2.10374 2.64393,2.11896 1.93962,7.33348 -1.29668,9.60028 -3.3578,2.35189 -22.58976,2.68329 -33.03666,0.56928 z m -34.66666,-20.52173 c 0,-3.76828 -8.55579,-19.60797 -11.70621,-21.672208 -2.53643,-1.661928 -4.68555,-1.816301 -11.37713,-0.817221 -4.5375,0.677467 -10.649998,0.805623 -13.583332,0.284792 -2.933333,-0.520832 -10.562365,-0.981544 -16.953404,-1.023805 -6.83624,-0.04521 -14.150956,-0.936099 -17.767672,-2.164005 -5.595172,-1.899611 -6.438062,-1.896848 -9.37993,0.03074 -1.77778,1.164846 -3.232328,2.352164 -3.232328,2.638485 0,1.78954 11.839131,8.751272 14.882426,8.751272 2.282694,0 4.216377,0.98276 5.069248,2.57637 1.730788,3.23401 5.862489,4.61641 12.714993,4.25423 2.9911,-0.1581 9.567634,1.20791 14.974959,3.11042 5.30289,1.86577 11.6029,3.4015 14,3.41273 2.39711,0.0112 5.25838,0.60204 6.35838,1.31292 1.1,0.71087 5.15,1.30168 9,1.31291 5.38531,0.0157 7,-0.44739 7,-2.00763 z M 31.303594,36.312915 c -0.749691,-0.53877 -4.326159,-4.492304 -7.947708,-8.785629 L 16.771251,19.72124 13.896923,23.325991 C 10.045331,28.156347 5.9285198,27.430285 6.1894065,21.966653 6.29358,19.784994 7.4318136,15.098025 8.7188145,11.551168 12.527357,1.0551719 19.424316,0.79474174 25.480174,10.918257 c 1.752572,2.929755 4.498422,6.921683 6.101892,8.870952 2.879927,3.501004 2.940245,3.51168 4.957595,0.877457 1.123209,-1.466666 2.06128,-3.599416 2.084602,-4.739444 0.05798,-2.834223 8.573438,-11.9272221 11.169663,-11.9272221 2.413767,0 3.241923,0.8867976 9.338712,10.0000001 5.275516,7.885597 7.906212,8.861606 10.049275,3.728358 0.856097,-2.050597 3.53115,-6.070821 5.944559,-8.9338302 5.544355,-6.5772269 9.453411,-6.0433496 14.240713,1.9449182 4.947615,8.255771 8.697982,12.456347 10.259606,11.491211 0.768289,-0.474831 2.612209,-3.420976 4.097599,-6.546992 3.04247,-6.4029295 7.57623,-11.6938218 9.99422,-11.663248 2.53517,0.032056 3.97092,1.4088071 10.75485,10.312916 3.49199,4.583333 6.87045,8.333333 7.5077,8.333333 1.33836,0 4.62758,-4.224717 9.28311,-11.923395 5.47544,-9.0545388 10.27231,-8.718453 14.87987,1.042537 3.41797,7.240882 6.27973,10.880858 8.55457,10.880858 0.89031,0 3.86376,-3.580656 6.60768,-7.957013 8.01125,-12.7774308 11.56001,-12.3757532 18.95547,2.145535 4.84304,9.509537 4.96054,10.040739 2.60854,11.793201 -3.41709,2.546068 -5.87366,1.225686 -8.95429,-4.812836 -1.45033,-2.842888 -3.1932,-5.168887 -3.87304,-5.168887 -0.67984,0 -2.79144,3.15 -4.69244,7 -1.901,3.85 -4.60323,7.972408 -6.00493,9.160907 -5.34366,4.530825 -12.1306,-0.22806 -17.81882,-12.49424 -1.27526,-2.75 -2.88578,-5 -3.57894,-5 -0.69315,0 -2.315,2.021692 -3.60411,4.49265 -8.09079,15.508441 -8.24152,15.689437 -12.70222,15.253451 -4.24703,-0.415103 -4.40532,-0.585842 -12.30827,-13.276337 -1.46667,-2.355161 -3.34958,-4.501968 -4.18424,-4.770683 -0.83466,-0.268714 -3.73546,3.477387 -6.44621,8.324669 -2.71076,4.847283 -5.7792,9.139627 -6.81875,9.538541 -4.582977,1.758654 -8.591325,-1.09961 -14.730204,-10.503779 l -6.250524,-9.5752 -4.769959,9.64615 c -7.113936,14.386309 -12.124587,14.43402 -20.910872,0.199111 -2.714219,-4.397381 -5.354304,-7.99524 -5.866856,-7.99524 -0.512554,0 -2.487114,2.85 -4.387912,6.333333 -5.710882,10.465547 -9.9545,13.978935 -13.664219,11.312916 z"
       id="path261" />
  </g>
</svg>
