<?xml version="1.0" encoding="UTF-8" standalone="no"?>
<!-- Created with Inkscape (http://www.inkscape.org/) -->

<svg
   version="1.1"
   id="svg223"
   width="225.33333"
   height="202.66667"
   viewBox="0 0 225.33333 202.66667"
   xmlns="http://www.w3.org/2000/svg"
   xmlns:svg="http://www.w3.org/2000/svg">
  <defs
     id="defs227" />
  <g
     id="g229">
    <path
       style="fill:#000000;stroke-width:1.33333"
       d="m 95.999999,197.23434 c -9.166667,-0.42112 -18.166667,-1.4178 -20,-2.21484 -1.833333,-0.79704 -8.623037,-2.41859 -15.088231,-3.60344 -6.465194,-1.18486 -16.065194,-3.65868 -21.333333,-5.4974 -5.26814,-1.83871 -13.165117,-4.54131 -17.548838,-6.00576 -7.873343,-2.63023 -15.3629304,-8.18731 -15.3629304,-11.39891 0,-4.12749 11.8890184,-9.09451 43.9999994,-18.3824 23.576544,-6.81935 85.260904,-8.8162 108.666664,-3.51776 22.60352,5.11684 36.93708,9.76157 52.90079,17.14231 7.43405,3.43709 9.17957,5.81748 8.09289,11.0364 -0.51397,2.46848 -10.64435,7.87413 -14.75637,7.87413 -1.54216,0 -5.97646,1.11853 -9.85396,2.48564 -27.90572,9.8388 -61.07212,13.85736 -99.716681,12.08203 z m 53.333331,-13.04976 c 24.0542,-3.32843 52.40736,-10.29584 51.61168,-12.68288 -0.83363,-2.50088 -8.41737,-6.23728 -15.17884,-7.4784 -3.53807,-0.64944 -15.13284,-2.81604 -25.76617,-4.81467 -16.95088,-3.18608 -22.45516,-3.62243 -44.66667,-3.54091 -25.77433,0.0947 -36.764167,1.4751 -71.999997,9.04428 -11.689791,2.51115 -14.055029,3.76631 -11.642833,6.17851 2.076937,2.07693 10.820426,5.0596 14.976166,5.10883 1.833333,0.0217 5.895477,0.93197 9.026987,2.0228 5.194937,1.80961 21.544595,4.80492 40.306346,7.38424 8.761931,1.20457 41.162381,0.46232 53.333331,-1.2218 z M 84.666665,59.926494 C 66.324323,57.428052 45.025547,52.44807 33.999999,48.079847 32.533333,47.498767 27.733333,45.646989 23.333333,43.964785 11.752379,39.537166 7.9999999,36.594442 7.9999999,31.939946 c 0,-5.794772 0.4095692,-5.980503 37.8917471,-17.183107 5.073795,-1.516446 12.873795,-3.320743 17.333333,-4.00955 47.97335,-7.40981 76.81432,-6.2154405 113.10825,4.684067 3.48333,1.046088 9.48333,2.844523 13.33333,3.996522 14.11248,4.222745 24.56551,9.878389 27.15919,14.694581 2.27396,4.222479 2.28783,4.668619 0.20976,6.746695 -1.22388,1.223872 -4.50756,3.063925 -7.29709,4.089005 -10.22267,3.75658 -34.23778,9.708509 -39.17231,9.708509 -2.79152,0 -5.40793,0.537888 -5.81424,1.195308 -2.29227,3.708957 -60.86975,6.681902 -80.085305,4.064518 z M 147.71573,48.167213 c 7.54365,-0.856823 18.04365,-2.519008 23.33333,-3.693746 5.28968,-1.174736 13.45426,-2.81509 18.14351,-3.64523 14.95916,-2.648231 14.16345,-7.815351 -1.85884,-12.070987 -7.4094,-1.967988 -11.03489,-2.779723 -27.33373,-6.119911 -5.43695,-1.114216 -20.46864,-3.056505 -37.92085,-4.899864 -3.62313,-0.382688 -15.02313,0.279823 -25.333333,1.472244 -10.3102,1.192423 -21.745818,2.492689 -25.412485,2.889483 -3.666666,0.396793 -10.566666,1.834928 -15.333333,3.195856 -4.766666,1.360928 -12.416666,3.208269 -17,4.105202 -12.772666,2.499543 -10.654154,5.835102 6.333334,9.971722 24.74175,6.024859 39.003096,8.530083 49.333332,8.666157 6.233335,0.08211 12.533335,0.685408 14.000005,1.340664 3.22363,1.44021 20.39195,0.90752 39.04906,-1.21159 z"
       id="path400" />
  </g>
</svg>
