<?xml version="1.0" encoding="UTF-8" standalone="no"?>
<!-- Created with Inkscape (http://www.inkscape.org/) -->

<svg
   version="1.1"
   id="svg203"
   width="216"
   height="213.33333"
   viewBox="0 0 216 213.33333"
   xmlns="http://www.w3.org/2000/svg"
   xmlns:svg="http://www.w3.org/2000/svg">
  <defs
     id="defs207" />
  <g
     id="g209">
    <path
       style="fill:#000000;stroke-width:1.33333"
       d="M 22.150947,206.04306 C 9.4693579,200.8293 2.7289833,192.12816 7.5990787,187.25806 c 3.2640753,-3.26408 7.1623023,-2.15813 12.3334923,3.49907 5.33794,5.83963 10.853136,7.85761 21.400762,7.83048 6.960476,-0.0179 13.773312,-2.95516 10.112619,-4.35989 -1.21016,-0.46439 -5.780565,-0.47012 -10.156455,-0.0133 l -7.956164,0.83216 v -4.25797 c 0,-3.60864 0.714012,-4.55631 4.682114,-6.21429 6.292296,-2.62908 16.187273,-2.69928 24.128866,-0.17119 5.244946,1.66967 16.761991,2.22652 58.805217,2.84325 50.78447,0.74496 52.32252,0.69284 53.66667,-1.81872 0.76109,-1.4221 1.3838,-8.53556 1.3838,-15.80768 0,-7.2721 0.63443,-15.04193 1.40983,-17.26626 1.32817,-3.81 1.88805,-4.07952 9.66666,-4.65338 9.78107,-0.72158 16.52795,0.8326 17.39848,4.00786 0.34558,1.26052 0.66926,12.00981 0.71928,23.88733 0.0753,17.88505 -0.26692,21.95336 -1.99196,23.6784 -1.85588,1.85589 -9.34174,1.99008 -68.67934,1.23112 -58.249421,-0.74505 -66.884279,-0.6 -68.893023,1.15729 -9.299218,8.13512 -29.41687,10.1621 -43.47898,4.38076 z M 193.84223,181 c 1.09434,-9.38594 -0.6076,-20.33334 -3.16114,-20.33334 -2.62172,0 -4.47248,11.2292 -3.35128,20.33334 0.6839,5.55316 1.36167,7 3.27916,7 1.92334,0 2.58383,-1.42996 3.23326,-7 z M 33.895909,117.83349 c -2.13948,-1.10997 -4.81739,-2.85745 -5.95091,-3.88327 -1.13352,-1.02582 -7.32132,-4.33022 -13.750668,-7.34311 -6.4293471,-3.0129 -12.0260278,-6.35439 -12.4370681,-7.425546 -0.84417451,-2.199884 3.0999552,-7.181565 5.6858362,-7.181565 2.5447381,0 19.4322529,-9.064546 22.8242179,-12.251131 2.656508,-2.495661 3.389727,-2.604972 7.117103,-1.061043 2.285515,0.946692 5.028136,3.053098 6.094715,4.680902 2.91907,4.455065 14.328705,7.527792 21.854198,5.885549 C 71.034456,88.010156 79.122888,86.690564 94,84.57744 c 3.666667,-0.520809 7.72281,-1.488188 9.01365,-2.149732 3.54773,-1.818181 57.82448,-2.954465 65.65302,-1.374447 3.66666,0.740038 11.42926,2.643548 17.25021,4.230023 5.82096,1.586475 12.72096,2.788612 15.33333,2.671417 2.61239,-0.1172 5.4356,-0.154946 6.2738,-0.08389 2.80351,0.237651 3.2094,4.415195 0.93078,9.579806 -1.98816,4.506253 -3.14176,5.367133 -9.68916,7.230513 -4.08776,1.16337 -9.2323,2.76127 -11.4323,3.5509 -2.2,0.78962 -6.1,1.68797 -8.66666,1.99633 -2.56667,0.30836 -8.86667,1.22567 -14,2.03846 -20.40788,3.23132 -70.337335,-0.31182 -85.834306,-6.09105 -7.269391,-2.71095 -19.070515,-2.81059 -24.111913,-0.20358 -2.097584,1.0847 -5.517788,4.00252 -7.600454,6.48404 -5.552397,6.61576 -8.514932,7.8204 -13.224088,5.37726 z m 6.168524,-17.61756 c 5.928535,-4.800631 -2.29858,-9.650687 -10.077769,-5.941051 -5.392003,2.571267 -5.873799,4.488323 -1.653331,6.578571 4.582928,2.26976 8.39672,2.0625 11.7311,-0.63752 z m 132.522117,-1.982057 6.58654,-1.700585 -4.58654,-1.933312 c -6.2212,-2.622344 -76.196113,-2.859164 -78.787365,-0.266644 -0.916218,0.916667 -2.895852,1.684912 -4.399185,1.707212 -2.50702,0.03719 -2.538993,0.15371 -0.386164,1.407329 6.559865,3.819887 67.546164,4.407527 81.572714,0.786 z M 195.87739,40.543042 C 194.84483,39.312146 192.2,34.973285 190,30.901128 c -2.2,-4.072156 -4.75893,-7.643772 -5.68653,-7.936924 -0.9931,-0.313854 -3.0511,2.447596 -5.00535,6.716257 -6.9028,15.077686 -12.77036,15.292294 -20.10119,0.735208 -2.56564,-5.094676 -5.36984,-9.028033 -6.23156,-8.740792 -0.86173,0.287241 -4.17753,4.827901 -7.36848,10.090356 -4.50054,7.422273 -6.4908,9.5681 -8.87437,9.5681 -3.69335,0 -4.50539,-0.943887 -10.03708,-11.666667 -2.72029,-5.27307 -5.10627,-8.30043 -6.49723,-8.243737 -1.3482,0.05495 -4.06856,3.792883 -7.03513,9.666667 C 105.85357,45.562394 101.86462,44.792001 91.98796,27 c -1.730119,-3.116667 -3.964759,-5.666667 -4.965868,-5.666667 -1.001111,0 -3.95724,4.5 -6.569179,10 -4.771028,10.046429 -6.317061,11.247558 -11.779336,9.151486 -1.216153,-0.466681 -2.75485,-2.116681 -3.419325,-3.666666 C 62.436385,30.24507 57.606973,23.30294 55.577301,22.907836 53.366088,22.47739 45.333333,33.434215 45.333333,36.880795 c 0,1.681484 -3.999961,4.452538 -6.42715,4.452538 -0.698022,0 -3.887466,-3.652059 -7.087656,-8.115687 C 20.875884,17.95484 22.366623,18.50157 18.055243,28.169938 c -2.083904,4.6732 -4.448839,8.93754 -5.255413,9.476311 C 7.1422821,41.425349 5.2021069,34.347445 9.3015056,24.884101 16.340596,8.6345639 17.442555,6.5410618 19.340004,5.812942 c 4.405191,-1.6904303 8.105289,1.0592211 13.808117,10.261215 3.198134,5.160457 6.498134,9.158953 7.333334,8.885547 0.8352,-0.273408 2.29867,-2.85119 3.252156,-5.728404 2.008153,-6.059754 6.822933,-13.5553738 9.331221,-14.526787 2.047316,-0.7928872 5.518116,2.8173358 11.500189,11.962153 5.523067,8.443134 7.663683,8.884838 10.676736,2.203079 1.299204,-2.881119 4.069122,-7.10725 6.155372,-9.3914022 3.279854,-3.59098 4.20885,-3.9593817 6.864694,-2.722257 1.68933,0.7869107 5.703077,5.3115202 8.919436,10.0546882 3.216361,4.743168 6.516361,8.406715 7.333331,8.141215 0.81698,-0.2655 2.68541,-2.888985 4.15208,-5.829969 3.82325,-7.666445 8.55732,-13.7886868 10.66222,-13.7886868 2.2627,0 3.86094,1.702115 11.1563,11.8813768 3.2002,4.465243 6.2572,8.118623 6.79336,8.118623 1.69457,0 4.99893,-4.536849 5.82669,-8 1.25233,-5.239426 8.0906,-11.960641 11.31188,-11.118257 1.50272,0.3929723 5.30479,4.829879 8.48603,9.902982 3.16993,5.055067 6.4392,9.196484 7.26502,9.203152 0.82583,0.0067 3.67456,-4.123196 6.33051,-9.177473 2.65595,-5.054278 5.66139,-9.5090151 6.67876,-9.8994154 3.165,-1.2145251 7.38072,2.9470828 11.66829,11.5185074 2.2662,4.530444 4.9905,9.225847 6.05398,10.434228 2.65389,3.015488 1.88869,13.630616 -1.02232,14.181958 -1.16744,0.221111 -2.96744,-0.605077 -4,-1.835973 z"
       id="path678" />
  </g>
</svg>
