<?xml version="1.0" encoding="UTF-8" standalone="no"?>
<!-- Created with Inkscape (http://www.inkscape.org/) -->

<svg
   version="1.1"
   id="svg193"
   width="254.66667"
   height="210.66667"
   viewBox="0 0 254.66667 210.66667"
   xmlns="http://www.w3.org/2000/svg"
   xmlns:svg="http://www.w3.org/2000/svg">
  <defs
     id="defs197" />
  <g
     id="g199">
    <path
       style="fill:#000000;stroke-width:1.33333"
       d="m 32,205.37356 c -6.233333,-0.46602 -12.400001,-1.33632 -13.703706,-1.93397 -7.966532,-3.65209 -5.745364,-17.75257 4.197429,-26.64624 3.644345,-3.2598 3.574016,-5.46875 -0.566855,-17.80419 -1.873557,-5.58122 -3.75587,-13.88938 -4.182921,-18.46256 -0.732892,-7.84837 -0.568252,-8.50783 2.934496,-11.75407 2.041023,-1.89156 5.033975,-3.43919 6.651001,-3.43919 4.307248,0 14.752981,5.91905 24.92191,14.12196 9.5776,7.72589 15.194072,10.87705 16.700944,9.37018 1.372931,-1.37293 0.417742,-21.41208 -1.045634,-21.93659 -0.681998,-0.24444 -1.254118,-1.74444 -1.271378,-3.33333 -0.0279,-2.5688 -3.891761,-18.30743 -5.782925,-23.55556 -0.396386,-1.099998 -1.373451,-4.549998 -2.171256,-7.666665 -0.797806,-3.116667 -1.956954,-5.666667 -2.575886,-5.666667 -0.61893,0 -3.717416,4.05 -6.88552,9 -9.407564,14.698832 -13.14354,19.000002 -16.503311,19.000002 -2.151509,0 -3.557938,-1.20326 -4.738881,-4.05431 -0.923641,-2.22986 -3.354032,-6.36613 -5.400869,-9.19171 C 20.529802,98.595074 17.249574,93.069511 15.287243,89.14162 13.324912,85.213729 9.9874084,80.176489 7.8705672,77.947753 4.1528563,74.033525 4.0381621,73.514224 4.5031769,62.701229 4.9174125,53.069008 5.3983055,51.171947 7.9494417,49.106162 14.246768,44.006897 20.709603,53.50733 22.676802,70.755532 c 0.965282,8.463501 2.038593,11.803793 5.329992,16.587676 2.266722,3.294569 4.963666,5.990127 5.993206,5.990127 1.880126,0 6.507241,-6.173395 12.991767,-17.333334 5.807076,-9.994041 10.557158,-14.246089 17.126117,-15.330489 7.360596,-1.215083 9.837328,-2.980294 7.735298,-5.513083 -0.832168,-1.002701 -2.327373,-1.823095 -3.322676,-1.823095 -5.127661,0 -9.28486,-18.768873 -5.704436,-25.754322 3.864664,-7.540005 17.375496,-19.9914405 23.831315,-21.9626822 6.955551,-2.1238311 20.969575,-0.8551837 24.479125,2.2160217 3.44432,3.0141265 6.19682,8.7234005 6.19682,12.8535385 0,9.330157 -10.82609,24.555085 -20.839271,29.306653 -3.037535,1.441404 -4.503855,2.981974 -4.226598,4.440618 0.337426,1.775193 2.473931,2.375368 10.411869,2.924841 8.54165,0.591264 10.91492,1.336002 16.39542,5.144915 C 124.81833,66.494665 132,75.361117 132,78.46036 c 0,0.649011 1.19634,2.700913 2.65852,4.559785 3.10939,3.952939 7.62028,29.031305 6.22318,34.597795 -1.16584,4.64512 -4.1865,5.43582 -14.42142,3.77503 -4.65315,-0.75505 -10.70791,-1.37736 -13.45502,-1.3829 L 108.01053,120 l 0.5353,13 c 0.29442,7.15 1.22957,16.9 2.07811,21.66667 0.84854,4.76667 1.95528,15.2598 2.45943,23.31807 l 0.91663,14.6514 6.21064,2.94405 c 7.31999,3.46995 8.25716,4.62767 6.07998,7.51088 -1.41687,1.87636 -6.80968,2.21304 -42.290619,2.64021 C 61.633334,206.00056 38.233334,205.83955 32,205.37356 Z M 83.610369,193.49487 C 100.15799,191.9622 104.17492,186.24642 101.5276,168 97.958219,143.39831 95.826156,123.70955 96.532216,121.86958 97.027,120.5802 94.402625,117.00671 89.153615,111.8225 c -7.580513,-7.48693 -8.039914,-8.2799 -6.612227,-11.41333 1.245934,-2.734531 2.216284,-3.232406 5.163116,-2.649142 9.345413,1.849732 8.589573,2.484892 13.201086,-11.09336 5.34002,-15.723279 5.38755,-16.826506 0.76108,-17.662786 -6.490761,-1.173268 -30.571984,0.0066 -33.63925,1.648111 -2.728319,1.460152 -2.894248,2.206677 -2.030588,9.135714 0.517282,4.150096 1.389788,7.845628 1.938902,8.212294 1.43979,0.961408 3.626734,5.378024 6.002215,12.121699 2.019748,5.7338 3.200036,15.64748 3.95406,33.21164 0.204631,4.76666 1.084164,13.63913 1.954517,19.7166 0.870354,6.07746 1.21991,11.63656 0.776792,12.35353 -1.18777,1.92187 -9.783941,5.2632 -13.54047,5.2632 -1.791987,0 -4.485033,0.6566 -5.984545,1.45912 -1.499513,0.80251 -6.921425,2.62163 -12.048693,4.04245 -16.788532,4.65235 -24.266384,10.33375 -21.858884,16.60759 0.759021,1.97799 2.324156,2.18581 11.841947,1.57243 6.03203,-0.38874 14.567328,-0.24394 18.967328,0.32177 4.4,0.56572 9.8,0.73301 12,0.37177 2.2,-0.36124 8.324665,-1.05736 13.610368,-1.54693 z M 50.666667,164 c 4.012628,-1.46666 7.454159,-2.66666 7.647844,-2.66666 0.193686,0 0.352156,-0.84927 0.352156,-1.88726 0,-2.30646 -14.978564,-15.56944 -21.120343,-18.7013 -5.566149,-2.83834 -8.218822,-1.90584 -8.192916,2.88005 0.02067,3.81783 2.778004,12.95103 4.399475,14.57251 0.502581,0.50257 0.913784,2.21377 0.913784,3.80266 0,1.5889 0.4,3.2889 0.888889,3.77778 1.633651,1.63365 7.744842,0.91469 15.111111,-1.77778 z m 76.895083,-56.7811 c 1.20699,-3.14537 -2.04002,-16.057107 -5.34144,-21.240237 -4.80654,-7.546118 -7.71241,-6.248096 -11.25617,5.028013 -4.50406,14.331744 -4.22401,15.291144 4.99057,17.096704 7.88811,1.54565 10.75844,1.32692 11.60704,-0.88448 z M 92.656493,40.231554 c 5.85433,-4.047051 11.287377,-12.425778 11.321577,-17.459899 0.0302,-4.443311 -3.64708,-8.104988 -8.139483,-8.104988 -6.107022,0 -12.576094,3.937239 -17.865815,10.873579 -4.122536,5.405826 -4.82145,7.216359 -4.12669,10.690163 0.460032,2.300157 1.506326,4.989289 2.325096,5.975848 2.511683,3.026392 10.663411,2.049932 16.485315,-1.974703 z M 236.54992,133 c -1.37173,-4.27285 -1.58108,-53.1974 -0.23961,-55.999999 0.68316,-1.427264 2.61491,-2.333333 4.97471,-2.333333 7.40653,0 7.70502,1.250615 7.05569,29.561152 C 247.70035,132.14703 246.7769,136 240.72578,136 c -2.15748,0 -3.52908,-0.98538 -4.17586,-3 z"
       id="path817" />
  </g>
</svg>
