<?xml version="1.0" encoding="UTF-8" standalone="no"?>
<!-- Created with Inkscape (http://www.inkscape.org/) -->

<svg
   version="1.1"
   id="svg183"
   width="222.66667"
   height="146.66667"
   viewBox="0 0 222.66667 146.66667"
   xmlns="http://www.w3.org/2000/svg"
   xmlns:svg="http://www.w3.org/2000/svg">
  <defs
     id="defs187" />
  <g
     id="g189">
    <path
       style="fill:#000000;stroke-width:1.33333"
       d="m 78.000001,138.56326 c -2.2,-0.73212 -7.283321,-1.8986 -11.296268,-2.59218 C 52.992513,133.60131 25.019707,117.98211 13.649783,106.34729 6.0166446,98.536316 4.6084985,93.469939 8.4756941,87.731409 L 11.408141,83.379951 84.704072,82.948322 C 168.22758,82.456463 158.98656,82.428761 178,83.228011 c 8.06667,0.339092 16.80199,0.65151 19.41183,0.69426 2.60984,0.04275 5.90968,0.92925 7.33299,1.969994 2.30109,1.682598 2.40544,2.375448 0.94178,6.253118 -1.46785,3.888763 -1.35114,4.635595 1.07798,6.898666 1.49821,1.395791 4.72924,6.658091 7.18006,11.693991 3.74718,7.69963 4.15904,9.40268 2.58904,10.70567 -1.02685,0.85221 -1.86701,2.70328 -1.86701,4.11349 0,1.41021 -1.47273,4.03674 -3.27273,5.83674 -4.72866,4.72866 -14.89735,4.64034 -20.62496,-0.17913 -2.25627,-1.89852 -4.11566,-4.14852 -4.13196,-5 -0.0163,-0.85148 -1.21631,-3.04814 -2.66667,-4.88147 L 181.33334,118 179,120.90517 c -1.28333,1.59784 -5.63333,3.82896 -9.66666,4.95803 -4.03334,1.12907 -14.23334,4.55919 -22.66667,7.62248 l -15.33333,5.56962 -24.66667,0.41954 c -14.097951,0.2398 -26.380514,-0.15078 -28.666669,-0.91158 z m 56.332059,-13.85275 c 6.78262,-1.78173 14.28262,-4.70084 16.66666,-6.48692 2.38404,-1.78608 5.83462,-3.67708 7.66795,-4.20222 6.94957,-1.99066 23.29511,-14.592514 21.88563,-16.87309 -0.3725,-0.602719 -21.79915,-1.035528 -47.61479,-0.961799 C 107.12188,96.26021 74.148302,95.921545 59.662894,95.433892 32.149339,94.507645 24,95.107537 24,98.059124 c 0,3.412366 13.960782,13.281076 30.000001,21.206636 17.946085,8.86782 57.178619,11.52692 80.332059,5.44475 z m 67.00128,-7.46483 c 0,-2.27976 -2.64458,-6.57901 -4.04691,-6.57901 -1.81945,0 -1.59963,4.48681 0.31357,6.4 1.98159,1.98159 3.73334,2.06558 3.73334,0.17901 z M 80.54572,42.661366 C 77.791568,41.589422 68.000001,29.165034 68.000001,26.74227 c 0,-2.22858 -2.731443,-3.015029 -4.725073,-1.360463 -1.067876,0.886259 -1.941594,2.50157 -1.941594,3.58958 0,3.617734 -8.016625,12.361947 -11.333333,12.361947 -3.274094,0 -9.082232,-6.314047 -13.184887,-14.333333 -3.48336,-6.808775 -5.679435,-5.495742 -9.422934,5.633974 -2.780229,8.265845 -4.223744,10.032693 -8.196704,10.032693 -4.787133,0 -5.526224,-5.401711 -1.885804,-13.782566 8.118134,-18.689298 10.018562,-22.2477076 12.262036,-22.9597589 3.566966,-1.1321109 7.148366,0.3870429 8.882939,3.767953 4.251692,8.2871069 9.601538,15.6410379 11.378558,15.6410379 0.90839,0 3.671738,-4.175794 6.140773,-9.279542 6.686012,-13.8206717 9.057647,-13.7924794 18.202384,0.216378 5.959933,9.13004 6.092273,9.233411 8.748338,6.833387 1.483275,-1.34029 4.131203,-5.265346 5.884284,-8.722349 5.750151,-11.3390546 9.449585,-10.6572887 18.440946,3.398466 2.65761,4.154513 5.6475,7.55366 6.64421,7.55366 0.9967,0 3.01464,-2.55 4.48431,-5.666667 3.07758,-6.526518 8.70207,-13.0194131 11.22455,-12.9575956 2.78354,0.068215 5.54467,2.8199569 10.38458,10.3492826 3.24293,5.044968 5.26393,6.946625 7.08502,6.666667 2.32163,-0.356907 7.86307,-7.892665 9.72808,-13.229156 0.41727,-1.1939415 2.25782,-2.8538626 4.09012,-3.6887139 2.9711,-1.3537212 3.76279,-1.0561606 7.31912,2.7508978 2.19322,2.3478451 5.17475,6.5956871 6.62563,9.4396491 3.45213,6.766751 6.08757,6.133675 10.41011,-2.500687 7.04646,-14.0755027 10.46433,-14.7520378 17.60805,-3.485349 7.95903,12.552523 14.39184,25.665667 13.60128,27.725855 -0.44161,1.150828 -2.53815,1.929151 -5.19645,1.929151 -5.10695,0 -9.78754,-5.105094 -12.53026,-13.666667 -0.88096,-2.75 -2.34489,-5 -3.25318,-5 -0.9083,0 -3.39852,3.655312 -5.53384,8.122916 -4.29296,8.981913 -9.3975,12.996979 -12.90831,10.153281 -1.09291,-0.885241 -3.87624,-4.989225 -6.18516,-9.119964 -6.59768,-11.803442 -7.36841,-11.990476 -12.06053,-2.926731 -8.29376,16.021053 -12.52682,17.653713 -18.41834,7.103831 -4.93916,-8.844499 -8.34962,-13.333797 -10.12638,-13.329697 -0.86673,0.002 -3.67587,4.052 -6.24254,9 -4.14112,7.983228 -5.14895,9.042989 -8.94922,9.410388 -3.91544,0.378532 -4.82475,-0.339679 -10.60759,-8.378283 -3.84662,-5.347121 -7.129947,-8.637293 -8.379221,-8.396705 -1.129805,0.217581 -3.366589,3.687794 -4.970633,7.711585 -3.277129,8.220779 -6.358797,10.941074 -10.547616,9.310744 z"
       id="path956" />
  </g>
</svg>
