<?xml version="1.0" encoding="UTF-8" standalone="no"?>
<!-- Created with Inkscape (http://www.inkscape.org/) -->

<svg
   version="1.1"
   id="svg173"
   width="212"
   height="216"
   viewBox="0 0 212 216"
   xmlns="http://www.w3.org/2000/svg"
   xmlns:svg="http://www.w3.org/2000/svg">
  <defs
     id="defs177" />
  <g
     id="g179">
    <path
       style="fill:#000000;stroke-width:1.33333"
       d="m 119.33333,210.52992 c -5.86666,-0.60339 -19.864538,-1.2102 -31.106383,-1.34845 C 67.338933,208.92457 64,208.11192 64,203.28501 c 0,-3.55054 5.271465,-4.93744 15.222431,-4.00496 11.626554,1.0895 12.965748,0.0327 16.360538,-12.9107 2.025086,-7.7211 2.112642,-10.22519 0.69931,-20.00028 -0.888587,-6.14578 -1.617155,-12.94299 -1.61904,-15.10494 -0.0019,-2.16193 -2.101886,-7.41085 -4.666667,-11.66424 -2.564781,-4.25338 -4.663239,-8.06758 -4.663239,-8.47597 0,-0.40839 -3.955008,-6.41519 -8.788908,-13.34843 C 66.864196,103.89118 65.057772,97.889839 66.979896,86 68.796009,74.765912 67.547539,71.365363 60.638192,68.726659 c -9.556627,-3.649708 -7.761976,-7.627092 5.55452,-12.310171 17.777121,-6.251771 17.317,-6.196004 23.313868,-2.825576 6.643015,3.733583 13.16009,15.429372 13.16009,23.6176 0,8.514771 1.73295,11.057604 14.46409,21.223724 6.63728,5.300034 16.23723,13.756524 21.3332,18.792204 9.41336,9.30196 22.86937,27.10561 22.86937,30.25845 0,2.06648 -16.5086,12.12186 -22.86012,13.92408 -7.60809,2.15878 -8.31225,3.02068 -6.63062,8.11608 1.02991,3.12066 1.07779,5.93444 0.15569,9.14962 -0.73239,2.55368 -1.33161,8.35658 -1.33161,12.89534 0,7.08128 0.3784,8.37239 2.66666,9.09866 4.13178,1.31137 2.54443,11.63709 -1.71358,11.14684 -0.89086,-0.10258 -6.41975,-0.68019 -12.28642,-1.28359 z m -2.45366,-11.55465 c 0.85048,-0.54115 1.95972,-5.78196 2.46498,-11.64626 0.88648,-10.28908 0.79856,-10.77436 -2.51154,-13.86208 -2.62935,-2.45269 -3.58307,-2.76398 -4.08502,-1.33333 -10.53441,30.02481 -10.28401,27.87069 -3.23686,27.84599 3.20216,-0.0107 6.51795,-0.46318 7.36844,-1.00432 z m 14.70494,-48.4502 c 14.96718,-2.60643 16.6898,-6.48996 7.6684,-17.28788 -2.52249,-3.01922 -4.58634,-5.98082 -4.58634,-6.58133 0,-1.78562 -10.99185,-9.32253 -13.59601,-9.32253 -1.79873,0 -2.40399,1.03922 -2.40399,4.12761 0,2.27019 -1.04542,5.89736 -2.32315,8.06038 -3.31852,5.61781 -9.14621,4.92139 -12.73037,-1.52132 -1.42786,-2.56667 -5.524953,-8.04814 -9.104635,-12.18105 C 90.928832,111.68604 88,107.2146 88,105.88243 c 0,-1.33218 1.893871,-4.37612 4.208603,-6.764319 3.444705,-3.554035 3.912817,-4.698574 2.579008,-6.305715 C 93.891335,91.732449 92.610168,86.980337 91.940573,82.252149 91.27098,77.52396 90.045233,71.932968 89.216693,69.827721 87.714779,66.011488 87.706079,66.009004 86.318043,69 c -0.765718,1.65 -2.515376,3 -3.88813,3 -3.536949,0 -5.09658,5.177315 -5.09658,16.918493 v 10.078228 l 8.474168,12.834969 c 4.660792,7.05924 9.541112,14.93498 10.845155,17.50164 2.090035,4.11368 5.982554,9.12556 15.274294,19.66667 3.02525,3.43203 6.95592,3.73697 19.65766,1.52507 z M 109.09273,110.89556 C 109.40954,108.74255 108.83135,108 106.83809,108 c -3.50919,0 -4.82255,2.27554 -2.75276,4.76948 2.16512,2.60881 4.47499,1.74439 5.0074,-1.87392 z M 41.797957,39.962965 C 38.75018,38.780244 36.897437,36.516291 30.562253,26.233531 28.38236,22.695307 25.892991,20.035669 25.03032,20.323227 24.167648,20.610784 22.74072,23.672789 21.859369,27.127684 18.861345,38.879921 14.195452,42.918564 10.20235,37.217611 8.4521675,34.718876 8.5848655,33.665433 11.503999,26.884277 19.126352,9.1775269 21.878329,4.6805628 25.333333,4.2859656 c 2.849203,-0.3254084 4.34928,1.1753973 10.328323,10.3333334 3.847244,5.892718 7.524452,10.714034 8.171573,10.714034 0.64712,0 1.882992,-1.95 2.746382,-4.333333 0.863389,-2.383333 2.886181,-7.033333 4.495093,-10.333333 2.478292,-5.0831605 3.523095,-6.0000003 6.83742,-6.0000003 3.19544,0 4.595036,1.0991736 7.639896,6.0000003 2.050275,3.3 4.324968,7.35 5.054875,9 0.729906,1.65 2.391953,2.995318 3.693437,2.989597 2.164851,-0.0095 5.644693,-5.217529 5.738752,-8.588751 C 80.104556,11.720926 87.821047,4 90.100815,4 c 2.506917,0 5.806646,3.5661283 11.412005,12.333333 2.22708,3.483334 4.77778,6.333334 5.66821,6.333334 2.20773,0 4.81897,-2.779422 4.81897,-5.129344 C 112,14.891627 121.09031,4 123.29844,4 c 1.78361,0 10.10053,9.394703 14.45955,16.333333 C 139.02491,22.35 140.60555,24 141.27053,24 c 0.66499,0 2.54778,-2.680509 4.18398,-5.956687 4.40888,-8.8279366 10.10406,-15.2447782 12.87404,-14.5053425 1.28596,0.3432859 4.13812,3.6700791 6.33812,7.3928745 C 169.45991,19.04186 173.18127,24 174.47581,24 c 0.52191,0 2.67443,-3.633267 4.78338,-8.073925 4.05409,-8.5364222 8.01996,-12.4619953 10.93934,-10.8282231 0.96995,0.5428109 3.72208,3.9166165 6.11584,7.4973461 13.34416,19.960962 14.83039,23.674869 10.41898,26.035781 -4.96623,2.657846 -8.02655,0.336738 -12.86356,-9.756438 -2.51488,-5.247664 -4.99446,-9.241208 -5.51015,-8.874541 -0.51571,0.366667 -2.91393,4.678244 -5.32939,9.581283 -2.63054,5.339668 -5.48165,9.260545 -7.10961,9.777237 -3.78932,1.202687 -8.84353,-2.461845 -11.21129,-8.128709 -1.08419,-2.594806 -3.25035,-6.514162 -4.8137,-8.70968 l -2.84244,-3.991854 -3.19328,4.328235 c -1.75629,2.380528 -3.21484,5.261665 -3.24121,6.402528 -0.0633,2.741769 -5.41877,9.107024 -7.95205,9.451567 -5.03796,0.685197 -6.71984,-0.64499 -11.95285,-9.453451 -3.07455,-5.175232 -6.27326,-9.181787 -7.10826,-8.903455 -0.83499,0.278331 -3.33783,4.186564 -5.56186,8.684962 -6.41508,12.975325 -14.41203,14.012193 -20.171917,2.615446 -2.809358,-5.558704 -7.27306,-10.436162 -8.72796,-9.536985 -0.624371,0.385881 -2.634312,3.978959 -4.466539,7.984615 C 78.64576,43.287997 71.406985,42.665448 64.187125,28.339543 62.150609,24.298615 59.878897,21.490248 58.797785,21.677061 57.769901,21.854677 55.169108,25.3 53.018244,29.333333 47.797268,39.123791 45.425525,41.370681 41.797957,39.962965 Z"
       id="path1111" />
  </g>
</svg>
