<?xml version="1.0" encoding="UTF-8" standalone="no"?>
<!-- Created with Inkscape (http://www.inkscape.org/) -->

<svg
   version="1.1"
   id="svg83"
   width="210.66667"
   height="217.33333"
   viewBox="0 0 210.66667 217.33333"
   xmlns="http://www.w3.org/2000/svg"
   xmlns:svg="http://www.w3.org/2000/svg">
  <defs
     id="defs87" />
  <g
     id="g89">
    <path
       style="fill:#000000;stroke-width:1.33333"
       d="M 33.155949,208.38668 C 31.261098,206.34066 28.582008,202.56666 27.202415,200 22.02331,190.36452 20.082542,190.1824 17.286872,199.06957 14.2529,208.71426 8.471244,212.5299 5.4487,206.88222 c -1.8254513,-3.41088 -0.746449,-7.19976 5.660903,-19.87802 8.0157,-15.86072 10.137936,-15.97336 20.223731,-1.07334 4.154892,6.13815 7.146148,9.38576 7.939289,8.61971 0.699943,-0.67604 3.399943,-5.27647 6,-10.2232 3.826634,-7.28033 5.404208,-9.07232 8.279591,-9.40489 2.487224,-0.28768 3.784355,0.31194 4.326511,2 1.146719,3.57041 10.57236,16.78344 12.409477,17.39581 0.884866,0.29495 3.648563,-3.56409 6.245315,-8.72056 5.709823,-11.33819 8.670232,-12.68176 14.350384,-6.51284 2.151508,2.33664 5.014805,6.72101 6.362881,9.74304 1.348074,3.02203 3.081718,5.88437 3.852538,6.36077 1.40559,0.86871 7.25633,-6.746 11.41409,-14.85537 1.54054,-3.00471 3.1699,-4.33333 5.31418,-4.33333 3.64571,0 5.56256,2.03457 11.61968,12.33333 2.48,4.21667 5.11891,7.66257 5.86424,7.65756 1.50972,-0.0107 7.35516,-8.07372 7.35516,-10.14617 0,-0.72799 2.07239,-3.58612 4.60531,-6.35143 3.26409,-3.56356 5.17692,-4.70729 6.56806,-3.92723 2.12262,1.19023 7.55183,8.76784 10.84566,15.1374 3.33172,6.44284 6.1489,5.04978 10.87406,-5.37712 3.2641,-7.20277 4.85796,-9.32634 7,-9.32634 3.65882,0 7.2657,3.76193 11.36722,11.85589 1.84325,3.63749 4.46472,6.96699 5.82548,7.39887 1.57441,0.4997 2.94974,2.86385 3.78212,6.50134 1.72205,7.52539 1.0894,8.91056 -4.06974,8.91056 -4.04257,0 -4.60098,-0.60597 -8.90797,-9.66666 -2.53016,-5.32275 -5.44817,-9.66667 -6.49357,-9.66667 -1.0442,0 -3.87844,4.02505 -6.29831,8.94456 -4.78825,9.73431 -8.11051,12.64381 -11.42296,10.00377 -2.62721,-2.09388 -11.27307,-14.91368 -12.35323,-18.31693 -1.38129,-4.35211 -3.24296,-3.03315 -7.10708,5.03527 -7.81026,16.3081 -10.2428,17.2827 -17.94107,7.18806 C 126.22329,200.62482 124,197.11782 124,196.3947 c 0,-1.42461 -4.32359,-5.72804 -5.75489,-5.72804 -0.48304,0 -2.93519,4.08454 -5.44923,9.07675 -5.73203,11.38231 -7.70957,13.17959 -12.23345,11.11836 -1.847227,-0.84165 -4.108111,-3.17987 -5.024184,-5.19603 -2.849141,-6.2706 -6.798398,-12.2623 -8.522673,-12.93038 -1.668865,-0.6466 -8.348905,7.9367 -8.348905,10.72768 0,3.07852 -5.577043,8.53696 -8.72247,8.53696 -2.400344,0 -4.304336,-1.742 -7.650958,-7 -2.450455,-3.85 -4.850062,-8.05 -5.332459,-9.33334 -1.6554,-4.40389 -4.749692,-2.3215 -9.906206,6.66667 -5.944494,10.36168 -8.769216,11.59195 -13.898626,6.05335 z m 3.489993,-103.49779 c -6.133811,-2.0574 -2.355828,-11.555558 4.596331,-11.555558 6.014842,0 12.091061,-1.547821 12.091061,-3.080008 0,-2.417253 -9.492185,-20.162857 -11.72508,-21.919992 -1.164863,-0.916666 -5.536784,-1.666666 -9.715381,-1.666666 -11.327383,0 -14.771565,-3.59838 -12.817833,-13.391701 1.083336,-5.430358 5.79401,-9.749632 24.298321,-22.279435 18.879013,-12.783522 33.652596,-18.122162 63.959979,-23.1128251 4.4,-0.7245403 9.92288,-1.6570303 12.27308,-2.0721998 3.75864,-0.6639752 4.37661,-0.3423737 5.13299,2.6712804 0.60736,2.4199265 0.0377,4.4714165 -1.93975,6.9853195 -5.07846,6.456217 -4.06899,7.199561 9.77716,7.199561 11.61844,0 12.64476,0.214063 13.46841,2.809146 1.18487,3.733204 -5.17304,12.590591 -12.73875,17.746719 -3.1387,2.139059 -10.26666,5.439059 -15.83993,7.333334 -9.821,3.338016 -10.69973,3.408117 -28.519782,2.275146 -10.112612,-0.642944 -18.812612,-0.733009 -19.333334,-0.200144 -1.969361,2.015285 9.249002,9.901761 15.396394,10.82362 7.912907,1.186613 22.991432,-0.143915 33.730392,-2.976368 4.9506,-1.305747 13.50096,-2.262239 20.1713,-2.256479 10.53111,0.0091 12.3761,0.419242 20.40102,4.535218 9.5448,4.895524 20.88806,16.423711 22.48002,22.846522 0.49123,1.98186 2.32014,5.262361 4.06424,7.290003 2.73111,3.17509 3.4698,3.438725 5.32382,1.900025 3.71489,-3.083088 2.76386,-11.042312 -1.84728,-15.460076 -4.75779,-4.558253 -5.07166,-7.76484 -1.03666,-10.591061 4.45062,-3.117331 7.22551,-2.536416 10.78467,2.257728 8.56792,11.540909 8.18101,28.39647 -0.76181,33.187411 -3.63412,1.94691 -47.79532,1.87709 -51.4547,-0.0814 -1.61622,-0.86498 -4.11712,-0.72669 -7.63424,0.42213 -3.57549,1.1679 -9.23867,1.46012 -17.89726,0.9235 l -12.66667,-0.78501 -0.43439,-3.7961 c -0.41332,-3.612021 -0.67194,-3.749467 -5.33333,-2.834444 -2.69442,0.528911 -8.261405,0.858863 -12.371074,0.733227 -6.623399,-0.202484 -7.719775,0.149531 -9.652413,3.099107 -2.136435,3.26061 -2.569855,3.33563 -21.548601,3.72954 -10.652572,0.2211 -20.858985,-0.098 -22.68092,-0.70911 z M 144.88171,93.920401 c 0.775,-2.019605 -5.44692,-9.920402 -7.81236,-9.920402 -2.76973,0 -13.06935,5.81478 -13.06935,7.37847 0,1.061878 2.75605,2.254104 7,3.028103 10.41988,1.900345 13.0006,1.809963 13.88171,-0.486171 z m 26.89123,-5.103828 c 0.36504,-3.19718 -0.7883,-5.006073 -6.801,-10.666666 -11.47096,-10.799189 -24.04096,-13.395565 -42.97628,-8.876899 -13.75774,3.283106 -39.22758,4.60463 -44.575556,2.31284 -1.881056,-0.806097 -6.120103,-3.911806 -9.420103,-6.901578 -3.3,-2.989771 -8.25,-6.815756 -11,-8.502188 -3.329232,-2.041647 -5,-4.044732 -5,-5.994508 0,-3.118941 -4.184011,-7.520908 -7.148523,-7.520908 -3.306635,0 -12.851477,7.928387 -12.851477,10.675029 0,2.356532 0.897177,2.658304 7.903226,2.658304 8.713076,0 11.358839,1.971303 14.690297,10.945431 0.895904,2.413346 2.117222,5.33105 2.71404,6.483788 10.335192,19.962134 11.091353,20.726331 15.29363,15.456173 2.869246,-3.598378 3.129597,-3.658242 9.229649,-2.122231 3.562666,0.897089 10.433986,1.284928 15.889804,0.896868 7.892913,-0.561404 11.960633,-1.81054 22.736523,-6.982031 7.21811,-3.464066 15.31811,-6.592059 18.00001,-6.951098 4.45509,-0.596425 5.10644,-0.25042 7.54282,4.006868 1.46667,2.562814 5.66667,7.116618 9.33334,10.119565 5.35712,4.3874 7.58334,5.396399 11.33333,5.136617 4.06271,-0.281444 4.72356,-0.821562 5.10627,-4.173376 z M 116.09671,41.648554 c 7.40521,-2.307483 15.68664,-7.642981 14.18842,-9.141206 -0.9895,-0.989502 -34.061543,-0.853532 -42.223917,0.173595 -7.236613,0.910634 -16.233195,3.35256 -17.994545,4.88423 -0.696667,0.605821 -2.5732,1.101493 -4.170074,1.101493 -1.596874,0 -3.633564,0.879785 -4.525978,1.955079 -1.40496,1.692873 -0.06769,1.949308 9.971014,1.912052 6.376473,-0.02367 11.933163,0.296549 12.348201,0.711588 1.77718,1.77718 25.298419,0.618184 32.406879,-1.596831 z M 86.666668,24 c 1.5585,-1.00718 1.190583,-1.297007 -1.666667,-1.312916 -2.016666,-0.01123 -3.666666,0.579582 -3.666666,1.312916 0,1.685878 2.724621,1.685878 5.333333,0 z m 20.837712,-3.059932 c 1.54501,-1.545014 0.25844,-1.71355 -9.171045,-1.201376 -4.976423,0.270301 -9,1.103512 -9,1.863738 0,1.525156 16.588185,0.920492 18.171045,-0.662362 z"
       id="path1250" />
  </g>
</svg>
