<?xml version="1.0" encoding="UTF-8" standalone="no"?>
<!-- Created with Inkscape (http://www.inkscape.org/) -->

<svg
   version="1.1"
   id="svg39"
   width="112"
   height="229.33333"
   viewBox="0 0 112 229.33333"
   xmlns="http://www.w3.org/2000/svg"
   xmlns:svg="http://www.w3.org/2000/svg">
  <defs
     id="defs43" />
  <g
     id="g45">
    <path
       style="fill:#000000;stroke-width:1.33333"
       d="m 40.901645,216.61495 c -2.983047,-1.2073 -8.833047,-5.11796 -13,-8.69038 -6.331732,-5.42832 -7.57628,-7.20846 -7.57628,-10.83674 0,-2.38779 -0.939562,-5.12122 -2.087916,-6.07426 -5.432072,-4.50822 -7.553789,-14.09485 -3.923036,-17.72561 1.451465,-1.45147 1.770033,-3.58693 1.178697,-7.9012 -1.091775,-7.96536 1.522441,-13.08501 11.967732,-23.43747 7.638813,-7.5709 9.344363,-8.58769 18.310635,-10.91613 13.414332,-3.48354 19.92351,-3.31548 27.887221,0.72004 3.617909,1.83333 7.384061,3.33333 8.369221,3.33333 2.56109,0 9.39026,7.01947 14.3525,14.75247 3.32683,5.18441 4.411231,8.56432 4.966291,15.47911 0.61071,7.60821 0.3603,9.10221 -1.789031,10.67384 -2.0936,1.53088 -2.23408,2.25181 -0.86572,4.4429 2.398511,3.84063 1.992181,11.3952 -0.91642,17.03814 -3.55597,6.89888 -10.03124,12.62976 -19.745485,17.47556 -7.491189,3.73686 -9.429928,4.12458 -20,3.99973 -7.488384,-0.0884 -13.658441,-0.92897 -17.128409,-2.33333 z m 24.239781,-8.77027 c 0.732132,-1.90791 -4.408996,-10.09148 -6.339721,-10.09148 -1.398744,0 -2.951716,8.8188 -1.863142,10.58015 1.291343,2.08944 7.352102,1.72838 8.202863,-0.48867 z M 49.690042,196.32239 c 1.667827,-5.18695 4.004997,-10.63191 5.193712,-12.09991 2.15774,-2.66469 2.167272,-2.6644 5.786728,0.18267 1.993985,1.56846 5.753167,6.05733 8.353735,9.97525 2.600568,3.91793 5.691738,7.4932 6.869266,7.94507 3.125548,1.19938 7.691536,-2.31907 10.390486,-8.00668 l 2.35721,-4.96746 -5.15791,-4.41566 c -2.83685,-2.42863 -5.634091,-4.4382 -6.216096,-4.46574 -0.582006,-0.0276 -2.595958,-1.47596 -4.47545,-3.21872 -4.971186,-4.60954 -3.287422,-7.72472 7.034199,-13.01412 4.812367,-2.46614 9.016137,-4.91332 9.341697,-5.43816 1.94028,-3.12797 -9.649854,-17.04573 -14.19497,-17.04573 -0.803382,0 -2.959863,3.15 -4.792179,7 -9.625245,20.22424 -12.312615,21.86371 -18.030839,11 -1.929986,-3.66667 -3.895864,-8.55637 -4.368616,-10.86603 -1.370814,-6.69714 -3.879954,-7.91328 -9.350793,-4.5321 -4.471108,2.76329 -10.104857,10.12506 -10.104857,13.20428 0,0.82026 1.95,2.40125 4.333333,3.5133 16.78598,7.83222 20.494037,13.50346 12.969033,19.83534 -2.295498,1.93153 -4.877598,3.53626 -5.738,3.56606 -0.860401,0.0299 -3.59388,1.78988 -6.074396,3.91128 -5.08973,4.35287 -4.918388,6.63247 0.771704,10.267 2.056079,1.31332 4.522348,3.44828 5.480598,4.74436 3.642292,4.92638 6.420404,2.88394 9.622405,-7.0743 z m -16.498655,-19.06912 3.681391,-3.1666 -5.682868,-2.89919 c -7.634036,-3.89459 -11.364409,-2.7836 -10.121671,3.01448 0.497228,2.31985 1.168903,4.66791 1.492611,5.21791 1.222,2.07625 7.087775,0.88076 10.630537,-2.1666 z m 58.877962,2.0197 c 2.28866,-1.45149 0.66286,-8.18644 -1.97618,-8.18644 -1.67907,0 -6.71316,2.11359 -8.29002,3.4806 -0.74953,0.64979 5.59679,5.75938 7.18888,5.78796 0.73334,0.0133 2.11813,-0.47378 3.07732,-1.08212 z m -27.707964,-36.2734 c 0.910938,-2.1992 1.419416,-4.23538 1.12995,-4.52485 -0.289466,-0.28947 -2.899004,-0.72023 -5.798972,-0.95724 -6.50598,-0.53175 -7.626737,2.25347 -3.333142,8.28327 3.279262,4.60529 5.214973,3.9277 8.002164,-2.80118 z M 87.658699,115.08355 C 75.160122,112.7341 51.250814,105.98254 46.325365,103.41176 30.876861,95.348594 16.134995,78.631937 13.739527,66.460791 8.9972876,42.36592 16.065065,24.771836 34.210827,15.500815 c 5.430506,-2.774552 8.435015,-3.347611 17.551288,-3.347611 10.090566,0 11.769736,0.404927 20.327522,4.901916 8.272482,4.347065 9.643822,5.635231 12.115382,11.380508 6.47816,15.05889 2.13172,34.404954 -9.492173,42.249826 -8.439249,5.695581 -11.435805,6.101428 -21.567871,2.921107 -7.18521,-2.255344 -9.684192,-3.822158 -13.26377,-8.316132 -5.968311,-7.492906 -8.455682,-15.509987 -6.350326,-20.467823 2.414043,-5.684753 5.760283,-9.154261 11.801534,-12.236277 6.956422,-3.548902 12.268393,-2.632814 18.430077,3.178403 3.874663,3.654277 4.562875,5.203677 4.562875,10.272592 0,6.56663 -2.82741,10.382546 -7.692966,10.382546 -3.236546,0 -4.403373,-1.490949 -5.548438,-7.089693 -0.9167,-4.482164 -4.632694,-7.618577 -6.572039,-5.547005 -3.199835,3.418005 -2.788952,6.90223 1.466969,12.439676 5.155563,6.707983 9.010584,7.994629 15.162963,5.060765 6.142429,-2.929122 9.839001,-9.351181 9.845193,-17.104075 0.0045,-5.618234 -0.626385,-6.908336 -6.328349,-12.941154 -6.015133,-6.36416 -6.701775,-6.712092 -13.666667,-6.925107 -11.074128,-0.338692 -11.269678,-0.28141 -18.470374,5.410414 -8.241554,6.514571 -11.586463,13.045798 -11.362256,22.185789 0.421233,17.171978 9.823338,30.073108 27.83263,38.190636 13.464314,6.06892 18.609815,7.567279 42.666668,12.424444 4.618231,0.93243 6.163011,2.68908 6.289921,7.15255 0.18612,6.5459 -2.606851,7.60259 -14.289921,5.40644 z"
       id="path147" />
  </g>
</svg>
