<?xml version="1.0" encoding="UTF-8" standalone="no"?>
<!-- Created with Inkscape (http://www.inkscape.org/) -->

<svg
   version="1.1"
   id="svg75"
   width="212"
   height="237.33333"
   viewBox="0 0 212 237.33333"
   xmlns="http://www.w3.org/2000/svg"
   xmlns:svg="http://www.w3.org/2000/svg">
  <defs
     id="defs79" />
  <g
     id="g81">
    <path
       style="fill:#000000;stroke-width:1.33333"
       d="m 21.866272,229.64625 c -3.114571,-2.07965 -4.444408,-7.02041 -4.612389,-17.13644 -0.228384,-13.7536 -0.2863,-13.40471 2.412784,-14.53481 1.283333,-0.53734 9.07944,-1.37763 17.324681,-1.86734 8.24524,-0.48969 15.633681,-1.53269 16.418756,-2.31777 1.609836,-1.60984 1.750536,-12.87844 0.699337,-56.00999 -0.906376,-37.18944 -2.028101,-35.05898 18.557226,-35.24518 8.066666,-0.073 16.916666,-0.42587 19.666666,-0.78422 4.975299,-0.64834 4.999843,-0.68227 4.968191,-6.867699 -0.01749,-3.418874 -0.598972,-8.616136 -1.292171,-11.549469 -0.6932,-2.933333 -0.959014,-6.31855 -0.590698,-7.522705 1.23911,-4.051103 9.270535,-4.095919 10.440865,-0.05827 0.35831,1.236204 1.04989,16.047639 1.53684,32.914313 0.48695,16.86666 1.12124,31.05817 1.40953,31.53669 0.28829,0.4785 0.59435,19.28764 0.68013,41.79805 0.1258,33.01335 -0.19618,41.26248 -1.66503,42.65753 -3.10798,2.95183 -82.135861,7.53723 -85.954718,4.98731 z M 70.666667,218.51638 C 81.3,218.42745 91.95,217.77832 94.333333,217.07392 c 5.093244,-1.50532 4.645023,3.3276 4.303971,-46.40726 -0.133267,-19.43333 -0.931172,-40.73333 -1.773132,-47.33333 l -1.530839,-12 -13.805334,-0.38151 c -17.081582,-0.47204 -18.009348,0.09 -16.994816,10.2962 0.405592,4.08025 1.123085,15.21864 1.594428,24.75198 2.371794,47.97172 2.341649,47.56052 3.63918,49.6391 1.647721,2.63958 -1.398096,6.70812 -6.089888,8.13475 -2.388963,0.7264 -9.680327,1.65137 -16.20303,2.05548 -12.974928,0.80384 -18.14054,3.55451 -18.14054,9.65976 0,2.58152 0.829555,3.10593 5.666667,3.58224 3.116667,0.30689 8.066667,0.34397 11,0.0824 2.933333,-0.26157 14.033333,-0.54839 24.666667,-0.63733 z m 127.012483,-2.24196 c -1.24075,-0.81234 -1.82468,-12.50252 -2.3363,-46.77193 -0.37516,-25.12888 -1.22382,-46.69694 -1.88592,-47.92902 -1.5873,-2.95379 -26.11833,-15.68187 -36.56228,-18.97058 -4.5254,-1.425 -12.20681,-2.973153 -17.06984,-3.440335 l -8.84184,-0.849424 -0.9022,-11.532896 c -0.92792,-11.8616 0.36169,-18.708159 3.5529,-18.862371 13.64161,-0.659218 43.68877,-4.180913 50.36633,-5.903214 4.76667,-1.229438 10.73409,-2.335686 13.26096,-2.45833 4.24651,-0.206108 4.66413,0.13028 5.51692,4.443679 0.98939,5.004364 2.96877,85.622001 3.12639,127.333331 l 0.0957,25.33333 -3.33333,0.3454 c -1.83334,0.18998 -4.07772,-0.14197 -4.98752,-0.73764 z M 193.98237,94.999999 c -1.11569,-20.810224 -1.96073,-26.70718 -3.44668,-24.051939 -0.84317,1.506655 -3.97909,2.45383 -10.20966,3.083723 -4.94598,0.500025 -14.62742,1.730477 -21.51431,2.734337 -6.88688,1.00386 -13.07099,1.485667 -13.74244,1.070682 -0.67147,-0.414986 -2.72027,-0.378186 -4.55291,0.08177 -2.98428,0.749009 -3.28949,1.421471 -2.92421,6.442938 0.44807,6.15966 -0.13537,5.859383 17.07451,8.787591 3.3,0.561484 7.9202,2.032633 10.26712,3.26922 2.34692,1.236587 5.52081,2.248339 7.05312,2.248339 3.65744,0 12.01597,4.31561 15.21974,7.85812 1.39699,1.5447 3.66592,2.80855 5.04208,2.80855 2.33972,0 2.45223,-0.93014 1.73364,-14.333337 z M 82.666667,59.12213 C 80.1,58.845358 72.3,57.734322 65.333333,56.653163 41.137851,52.898258 31.188611,52.070837 26.338025,53.410147 23.569953,54.17445 20.371727,54.225013 18.503759,53.534001 16.628041,52.840127 13.845184,52.889885 11.645722,53.656627 7.1081247,55.238442 4,53.130149 4,48.470405 c 0,-3.774374 4.1945855,-5.803739 11.996007,-5.803739 4.201634,0 5.68048,-0.736927 7.991288,-3.982157 1.55955,-2.190187 6.400406,-6.725255 10.757458,-10.077929 4.357052,-3.352675 7.921914,-6.898002 7.921914,-7.878504 0,-2.522323 15.910933,-9.887523 25.015968,-11.5799376 9.00363,-1.673566 41.145585,-0.8729776 44.989395,1.1205906 1.46372,0.759149 5.0613,1.794228 7.99464,2.300177 4.63596,0.799623 22.15454,6.415212 47.33333,15.172727 7.52117,2.615963 19.27664,6.046156 25.50735,7.442933 3.65645,0.819691 5.58133,4.641883 3.79406,7.533759 -1.33621,2.162036 -10.65678,0.959484 -23.19965,-2.99325 l -9.23157,-2.909218 -10.76843,5.613674 c -5.92264,3.087522 -12.08301,5.603954 -13.68973,5.592072 -1.60672,-0.01187 -3.2498,0.509892 -3.65128,1.159499 -1.15218,1.864267 -23.96576,7.104724 -38.094083,8.750509 -3.3,0.384411 -7.2,0.922763 -8.666667,1.196336 -1.466667,0.273573 -4.766667,0.270956 -7.333333,-0.0059 z m -16,-10.808543 c 0,-0.56086 -1.215022,-3.286713 -2.700048,-6.05745 -1.485027,-2.770738 -3.068827,-7.728233 -3.519555,-11.016656 -0.450729,-3.288424 -1.266785,-6.255385 -1.81346,-6.593248 -1.655124,-1.022924 -9.300271,2.166795 -9.300271,3.880269 0,0.879434 -2.4,3.942507 -5.333333,6.806831 -7.012185,6.847216 -6.888748,8.666666 0.587977,8.666666 3.256722,0 6.292131,0.6 6.745356,1.333334 0.453226,0.733333 2.253226,1.333333 4,1.333333 1.746775,0 3.546775,0.6 4,1.333333 0.958915,1.551558 7.333334,1.82414 7.333334,0.313588 z m 28.687534,-3.569712 c 3.17044,-1.324693 5.358629,-3.457588 6.603249,-6.436388 3.94139,-9.43307 3.86861,-10.986849 -0.76168,-16.26045 -4.694541,-5.346792 -5.547802,-5.448292 -19.567349,-2.327651 -12.615213,2.80805 -14.369341,11.228091 -5.159802,24.767725 2.372604,3.488144 3.10073,3.751626 8.371222,3.029224 3.174924,-0.435172 7.906386,-1.682778 10.51436,-2.77246 z m 33.312469,-1.039628 c 5.13333,-1.497492 10.572,-3.843558 12.08593,-5.213481 1.51393,-1.369921 3.76393,-2.490767 5,-2.490767 3.90089,0 2.43785,-3.415279 -2.46451,-5.75305 C 140.69655,29.011128 137.77001,28 136.78469,28 c -0.98533,0 -2.50524,-0.859998 -3.37758,-1.911106 -2.21748,-2.671902 -21.41345,-7.372497 -21.39967,-5.240226 0.004,0.633232 0.65208,3.473012 1.43998,6.310621 1.26525,4.556749 1.03081,5.933641 -2.00743,11.789716 -1.892,3.646733 -3.43999,7.227792 -3.43999,7.957906 0,1.686019 8.33761,0.393959 20.66667,-3.202664 z"
       id="path928" />
  </g>
</svg>
