<?xml version="1.0" encoding="UTF-8" standalone="no"?>
<!-- Created with Inkscape (http://www.inkscape.org/) -->

<svg
   version="1.1"
   id="svg223"
   width="212"
   height="217.33333"
   viewBox="0 0 212 217.33333"
   xmlns="http://www.w3.org/2000/svg"
   xmlns:svg="http://www.w3.org/2000/svg">
  <defs
     id="defs227" />
  <g
     id="g229">
    <path
       style="fill:#000000;stroke-width:1.33333"
       d="M 67.513145,210.56989 C 65.580915,209.05 64,207.13944 64,206.32418 c 0,-0.81524 -1.253524,-4.07169 -2.785608,-7.23656 -3.307601,-6.83258 -7.326832,-7.79309 -8.735627,-2.08762 -3.183994,12.89485 -14.91729,19.54088 -19.26274,10.91089 -0.529204,-1.05099 -2.926624,-5.3288 -5.3276,-9.50624 -3.888497,-6.76557 -4.55322,-7.34823 -6.084513,-5.33333 -0.945507,1.2441 -1.738185,3.81982 -1.761508,5.72382 -0.106987,8.73383 -6.295993,14.22955 -13.1636349,11.68904 -4.2443988,-1.5701 -3.6108426,-5.12673 3.3595959,-18.85996 10.756428,-21.19242 12.755436,-21.81133 22.472414,-6.95756 3.597965,5.5 7.207373,10 8.020905,10 0.813532,0 2.931712,-3.10705 4.707067,-6.90457 4.196169,-8.97569 7.505386,-13.09543 10.519029,-13.09543 2.179104,0 8.561435,8.31738 12.748264,16.61338 2.271923,4.5017 4.693049,3.13286 9.196284,-5.19934 2.968363,-5.49226 5.399489,-8.29242 7.932692,-9.13682 4.691268,-1.56376 7.515653,0.88045 13.079145,11.31864 3.696865,6.93604 7.752505,10.20316 7.752505,6.24522 0,-3.00902 9.51789,-17.05329 12.11596,-17.87788 3.51752,-1.11642 5.37704,0.5794 12.67861,11.56254 l 6.10051,9.17646 3.21913,-4.74364 C 142.55139,190.01621 144,187.4475 144,186.91697 c 0,-0.53055 1.52163,-3.20389 3.3814,-5.9408 4.64179,-6.831 8.48375,-6.65889 13.83659,0.61983 2.26344,3.0778 4.11534,6.286 4.11534,7.12932 0,2.32345 5.02198,7.62449 6.41027,6.76648 0.67015,-0.41418 3.04908,-4.58546 5.28652,-9.26951 2.5488,-5.33585 5.07568,-8.77995 6.76605,-9.22199 3.52351,-0.92141 7.99683,2.30006 10.42462,7.50728 1.0665,2.2875 2.66077,5.35908 3.54281,6.82575 8.34356,13.8738 9.05259,15.42844 8.22523,18.0352 -0.69008,2.17425 -1.79382,2.69384 -5.04323,2.37411 -3.67003,-0.36112 -4.71628,-1.49851 -8.88604,-9.66018 -2.59943,-5.08797 -5.46203,-9.48324 -6.36135,-9.76726 -0.91786,-0.28987 -2.89508,2.3059 -4.50741,5.91753 -5.62909,12.60915 -6.03325,13.1006 -10.77344,13.1006 -3.66125,0 -4.79213,-0.75036 -6.60685,-4.38372 -1.20423,-2.41105 -3.83892,-6.87616 -5.85488,-9.92248 l -3.66538,-5.53875 -3.1385,3.92247 c -1.72618,2.15736 -3.14148,4.38535 -3.14512,4.95107 -0.004,0.56572 -1.58636,3.41572 -3.51715,6.33333 -3.68244,5.56456 -7.47916,6.7774 -11.38871,3.63808 -2.04624,-1.64311 -6.82796,-10.11845 -8.27481,-14.66667 -0.40825,-1.28333 -1.65357,-2.33333 -2.76739,-2.33333 -2.32868,0 -7.86275,8.23509 -9.21584,13.71383 -1.047,4.23937 -6.92003,7.27834 -10.15793,5.25617 -2.38731,-1.49097 -10.176528,-11.83284 -11.930612,-15.84048 -2.663709,-6.08591 -3.356881,-5.55784 -8.737291,6.6562 -2.571437,5.8374 -6.501017,10.21428 -9.170418,10.21428 -1.001104,0 -3.401104,-1.24355 -5.333334,-2.76344 z M 142.66667,105.27443 C 140.83333,104.66473 136.03333,103.5635 132,102.82724 112.15678,99.205021 108.08198,98.084408 100.66667,94.210243 83.889899,85.445144 75.733213,77.95142 69.960693,65.999999 c -3.436668,-7.115275 -3.863641,-9.40934 -3.860845,-20.743754 0.0028,-11.251202 0.440844,-13.638376 3.740312,-20.382248 2.657869,-5.432488 5.723544,-9.117585 10.615171,-12.759974 8.592538,-6.3981535 15.141518,-8.5663445 26.237499,-8.6865321 7.2299,-0.078312 10.17634,0.6360125 17.50787,4.2445478 9.75618,4.8019313 11.46127,6.4007473 14.3791,13.4828513 2.12289,5.152616 2.74048,23.405213 1.01075,29.871429 -1.26558,4.731001 -15.78063,15.654396 -20.73723,15.605924 -1.93599,-0.01893 -7.466,-1.37962 -12.28891,-3.023752 -10.708859,-3.650657 -16.483287,-9.61262 -19.466246,-20.098449 -2.395231,-8.419821 -1.775155,-9.947771 6.803804,-16.76547 11.890562,-9.449428 25.076232,-6.056838 27.531132,7.083586 1.47532,7.897007 0.0901,10.867196 -5.59871,12.004963 -5.04507,1.009014 -5.22243,0.879488 -6.35092,-4.638207 -0.98304,-4.80652 -4.0406,-7.367231 -7.30224,-6.115624 -6.117935,2.347672 1.90941,16.011636 10.15813,17.290941 4.81455,0.746696 11.62728,-2.634882 14.99497,-7.442933 4.12483,-5.88902 1.20105,-19.784285 -5.29602,-25.169286 -9.9356,-8.234994 -35.069441,-3.651346 -37.616651,6.860134 -0.450732,1.86002 -1.629995,4.565358 -2.620586,6.011861 -2.44652,3.57252 -2.267805,5.689362 0.81075,9.603108 2.462966,3.131155 2.492149,3.619483 0.512046,8.568247 -1.871709,4.677862 -1.884084,5.693205 -0.113933,9.348162 2.466876,5.093547 15.361823,18.517141 17.787894,18.517141 0.9844,0 4.95759,1.403906 8.82932,3.119791 10.2699,4.55144 17.77583,7.014352 29.03952,9.528691 C 153.93545,94.723524 156,95.745471 156,99.895092 c 0,6.313858 -4.75489,8.232228 -13.33333,5.379338 z"
       id="path251" />
  </g>
</svg>
