<?xml version="1.0" encoding="UTF-8" standalone="no"?>
<!-- Created with Inkscape (http://www.inkscape.org/) -->

<svg
   version="1.1"
   id="svg213"
   width="106.66667"
   height="213.33333"
   viewBox="0 0 106.66667 213.33333"
   xmlns="http://www.w3.org/2000/svg"
   xmlns:svg="http://www.w3.org/2000/svg">
  <defs
     id="defs217" />
  <g
     id="g219">
    <path
       style="fill:#000000;stroke-width:1.33333"
       d="m 54.49918,201.15404 c -2.147225,-2.29862 -5.974345,-8.30451 -8.504711,-13.34643 -4.797224,-9.5588 -8.597108,-15.50289 -13.514768,-21.14095 -1.599083,-1.83333 -4.184108,-5.81108 -5.7445,-8.83945 -1.560394,-3.02836 -4.014156,-6.57135 -5.452806,-7.87331 -1.43865,-1.30196 -2.615728,-3.13772 -2.615728,-4.07946 0,-0.94174 -2.380693,-4.46294 -5.290429,-7.82487 -8.5940216,-9.92962 -10.2581098,-21.82325 -3.4851521,-24.90922 2.6029301,-1.18597 3.8797881,-0.8967 7.3426311,1.66349 2.305478,1.70452 4.559698,4.62095 5.009377,6.48097 0.908384,3.75737 11.725826,22.90377 21.090241,37.32881 6.187775,9.53171 7.016499,10.92384 10.712939,17.99614 C 58.700563,185.51466 65.562418,196 66.735713,196 c 0.5243,0 1.25989,1.1725 1.634645,2.60557 0.458633,1.75381 -0.346929,3.27935 -2.464247,4.66667 -4.598534,3.01308 -7.036496,2.56036 -11.406931,-2.1182 z m 39.947255,0.13578 c -1.221128,-0.71266 -4.385742,-5.16804 -7.032472,-9.90084 -2.646732,-4.73278 -5.335484,-8.92846 -5.975007,-9.3237 -0.639523,-0.39526 -2.478672,-3.27163 -4.087,-6.39196 -1.608327,-3.12032 -4.301972,-7.17332 -5.985876,-9.00666 -1.683906,-1.83333 -4.122122,-5.4314 -5.418258,-7.9957 -1.296136,-2.56431 -5.264633,-8.50379 -8.818883,-13.19884 -3.554248,-4.69507 -6.462271,-9.31718 -6.462271,-10.27138 0,-0.9542 -0.781265,-2.21472 -1.736144,-2.80116 -3.080531,-1.8919 -10.425233,-15.25799 -10.004811,-18.20701 0.287167,-2.01432 1.510988,-2.98583 4.141442,-3.28761 2.972769,-0.34107 4.815573,0.746 9.041063,5.33333 2.918984,3.16894 6.078386,7.26171 7.020895,9.09504 3.600102,7.00279 5.683445,10.204 10.703699,16.44701 2.851362,3.54586 6.546892,9.27154 8.212286,12.72372 1.665394,3.4522 6.684245,12.08026 11.153001,19.17347 11.806901,18.74097 14.341141,24.33119 12.199841,26.91128 -1.968356,2.37173 -3.77636,2.55405 -6.951505,0.70101 z M 11.666667,56.60854 C 9.6500003,55.493668 7.9335857,53.850662 7.8524122,52.957417 7.007456,43.65937 13.547507,26.834154 20.865959,19.478202 32.059849,8.2269595 43.662405,4.1876543 57.552066,6.7063302 71.013252,9.1473084 82.984347,17.202872 84.822773,25.057274 c 0.464655,1.985166 2.88498,5.750423 5.378502,8.367239 3.510893,3.684492 4.713832,6.278992 5.332256,11.500612 0.68754,5.805192 0.3869,7.154446 -2.162117,9.703463 -2.770765,2.770764 -4.000294,2.942151 -19.166056,2.671579 -8.912945,-0.159015 -25.805356,0.0764 -37.53869,0.523148 C 18.977094,58.496844 14.707063,58.289359 11.666667,56.60854 Z M 80.333336,45.112153 c 4.236436,-2.18959 2.050485,-8.956591 -6.681031,-20.682328 -5.718216,-7.679113 -19.698871,-10.431261 -32.206968,-6.340071 -8.446804,2.76281 -18.558027,12.85078 -19.654839,19.60964 -1.444496,8.901385 -2.251569,8.656303 28.440965,8.63658 15.272696,-0.0099 28.818539,-0.560533 30.101873,-1.223821 z"
       id="path390" />
  </g>
</svg>
