<?xml version="1.0" encoding="UTF-8" standalone="no"?>
<!-- Created with Inkscape (http://www.inkscape.org/) -->

<svg
   version="1.1"
   id="svg203"
   width="212"
   height="217.33333"
   viewBox="0 0 212 217.33333"
   xmlns="http://www.w3.org/2000/svg"
   xmlns:svg="http://www.w3.org/2000/svg">
  <defs
     id="defs207" />
  <g
     id="g209">
    <path
       style="fill:#000000;stroke-width:1.33333"
       d="m 114.47226,210.54652 c -0.77072,-0.47634 -1.19227,-1.94594 -0.93678,-3.26579 0.32468,-1.67731 3.07361,-3.14856 9.13119,-4.88711 4.76666,-1.36804 11.36666,-3.41482 14.66666,-4.54841 3.3,-1.13357 7.5,-2.393 9.33334,-2.79872 4.59462,-1.01681 6.66666,-2.89468 6.66666,-6.04193 0,-4.03676 -8.81233,-22.95072 -16.50064,-35.41543 -3.75798,-6.09264 -8.12249,-13.29264 -9.69891,-16 -1.57641,-2.70736 -3.64795,-4.92247 -4.6034,-4.92247 -0.95545,0 -2.70665,2.7 -3.89156,6 -3.60631,10.04368 -13.76136,29.28315 -17.46206,33.08314 -4.232707,4.34625 -9.164948,12.2549 -9.171776,14.70656 -0.0028,0.98433 -1.204984,3.31525 -2.671651,5.17981 -1.466666,1.86456 -2.666666,4.839 -2.666666,6.60985 0,1.77086 -0.958843,5.07394 -2.130762,7.34018 l -2.130761,4.12044 -10.925245,-0.83979 c -6.180015,-0.47503 -12.927822,-0.25525 -15.535906,0.50601 -2.563601,0.74828 -8.614636,0.96098 -13.628949,0.47904 -8.120332,-0.78044 -9.09968,-1.19102 -9.835712,-4.12361 -1.142627,-4.55259 1.046992,-6.15665 9.873421,-7.23309 12.528559,-1.52792 28.658219,-6.55183 32.512466,-10.12667 1.942537,-1.80172 4.814902,-6.79465 6.383034,-11.0954 1.568131,-4.30075 4.928783,-10.90689 7.468114,-14.68032 2.539332,-3.77343 4.616966,-7.6402 4.616966,-8.59281 0,-0.95262 2.095284,-4.84562 4.656188,-8.6511 5.145849,-7.6467 13.328759,-23.07418 14.619109,-27.56183 1.21178,-4.21444 3.35368,-5.49416 9.98868,-5.96794 l 5.93064,-0.42349 4.52667,8.63551 c 2.48967,4.74953 5.88255,10.13551 7.53973,11.96885 7.55789,8.36125 13.03876,18.821 17.46654,33.33333 2.26474,7.42281 6.7444,18.72776 11.45547,28.9092 1.67704,3.62437 2.26991,6.81149 1.69393,9.10631 -1.00184,3.99166 -5.42696,6.25404 -8.7893,4.4936 -3.38655,-1.77311 -10.73947,-1.41555 -17.10971,0.83201 -5.83721,2.05948 -28.3268,3.42471 -30.83902,1.87207 z M 24.666667,65.871586 C 16.606349,63.312824 6.9621144,56.411955 5.8809109,52.429562 c -0.433599,-1.597075 -0.3937528,-4.147075 0.088547,-5.666667 1.3655594,-4.302497 6.7605031,-3.409002 15.5203831,2.570438 9.176447,6.263786 11.129923,6.650849 9.955767,1.972641 -1.218215,-4.853752 1.199021,-8.322648 6.903415,-9.906865 7.213561,-2.003343 18.51203,-1.711815 22.968352,0.592638 5.446021,2.816247 110.484815,4.460751 112.199695,1.756616 0.60982,-0.9616 1.11796,-9.064341 1.12918,-18.006091 0.0192,-15.277031 0.19918,-16.3829327 2.98376,-18.3333334 3.34611,-2.3437051 20.33432,-2.8980913 23.70332,-0.7735239 1.60283,1.0107826 2.15922,5.9713513 2.80178,24.9795823 0.76274,22.563792 0.6722,23.833713 -1.85998,26.088591 -2.15393,1.918054 -3.96034,2.197563 -9.46844,1.46507 -3.74368,-0.497854 -33.73853,-1.117232 -66.65521,-1.376396 -50.734276,-0.399448 -60.074641,-0.18063 -61.333335,1.436872 -5.628549,7.23305 -27.101013,10.785344 -40.151478,6.642452 z m 20.478358,-9.367259 c 4.675835,-0.935167 4.359958,-3.170994 -0.447998,-3.170994 -4.011248,0 -7.363694,1.278989 -7.363694,2.809318 0,1.40162 2.120978,1.499819 7.811692,0.361676 z M 192.67377,38.333333 c 1.48704,-10.275079 1.3177,-20.875199 -0.36029,-22.553192 -0.80716,-0.807159 -2.41096,-1.105547 -3.564,-0.663084 -1.74124,0.668175 -2.07675,3.296121 -1.98025,15.510377 0.1043,13.20092 0.36054,14.705899 2.50384,14.705899 1.86281,0 2.61034,-1.538704 3.4007,-7 z"
       id="path529" />
  </g>
</svg>
