<?xml version="1.0" encoding="UTF-8" standalone="no"?>
<!-- Created with Inkscape (http://www.inkscape.org/) -->

<svg
   version="1.1"
   id="svg193"
   width="216"
   height="152"
   viewBox="0 0 216 152"
   xmlns="http://www.w3.org/2000/svg"
   xmlns:svg="http://www.w3.org/2000/svg">
  <defs
     id="defs197" />
  <g
     id="g199">
    <path
       style="fill:#000000;stroke-width:1.33333"
       d="m 71.333333,145.02844 c -1.466666,-0.70089 -4.514945,-4.06903 -6.773953,-7.48473 -2.972693,-4.49483 -5.121901,-6.32995 -7.780237,-6.64323 -4.104542,-0.48372 -7.334219,2.66865 -7.403406,7.2262 -0.05205,3.42885 -4.022549,7.22541 -7.480725,7.15304 -1.543791,-0.0323 -4.935209,-3.23456 -8.535049,-8.05897 -4.855574,-6.50731 -6.593246,-7.93194 -9.28591,-7.61305 -2.568092,0.30414 -3.516866,1.3993 -4.221726,4.87311 -1.337059,6.58952 -4.630642,8.97398 -11.5189937,8.33939 -3.1237316,-0.28776 -1.6754949,-6.89759 3.7687107,-17.20058 5.318936,-10.06592 9.946175,-16.28629 12.115133,-16.28629 1.640623,0 6.44949,4.40849 6.44949,5.91252 0,1.78529 10.86187,12.75415 12.629744,12.75415 0.774321,0 2.502202,-2.55 3.839737,-5.66667 2.913245,-6.78832 7.177135,-11.66666 10.197185,-11.66666 2.683508,0 6.129302,3.763 11.89942,12.99483 2.404567,3.84716 4.834788,6.70878 5.400494,6.35915 0.565704,-0.34962 2.699782,-4.05154 4.742396,-8.2265 4.290621,-8.76971 7.15069,-12.46082 9.655322,-12.46082 2.6028,0 10.559732,9.13837 13.641235,15.66667 1.47114,3.11667 3.24657,5.66667 3.94541,5.66667 0.69884,0 3.03357,-3.61358 5.18829,-8.03018 4.57637,-9.38034 6.51854,-11.96982 8.97763,-11.96982 3.02792,0 10.62658,7.5853 14.0068,13.98217 1.80323,3.4125 4.02154,5.91572 5.06246,5.71264 1.01902,-0.19881 3.53736,-3.66148 5.59628,-7.69481 2.05893,-4.03334 5.39342,-8.75627 7.40998,-10.4954 l 3.66648,-3.16207 2.73723,3.31315 c 2.54007,3.0745 5.54199,7.74921 9.81,15.27656 2.35351,4.1508 3.79687,3.86294 6.34585,-1.26558 3.7651,-7.57535 10.52378,-16.99475 12.19611,-16.99742 2.73343,-0.004 7.05413,5.569 11.88507,15.33076 2.54038,5.13333 5.44077,10.77008 6.44528,12.5261 3.02446,5.2872 -0.95204,11.53406 -5.3931,8.47223 -1.90033,-1.31017 -11.21864,-16.00438 -11.21864,-17.69089 0,-0.71909 -0.50701,-1.30744 -1.12668,-1.30744 -1.67442,0 -5.53998,4.61516 -5.53998,6.61427 0,2.7397 -5.30472,10.60993 -8.19335,12.15587 -2.20208,1.17852 -3.32908,0.63076 -7.04172,-3.42249 -2.43103,-2.65407 -5.80013,-7.50888 -7.48689,-10.78848 -1.68676,-3.2796 -3.6676,-5.76266 -4.40186,-5.5179 -0.73426,0.24476 -3.74637,4.75653 -6.69356,10.02617 -7.4378,13.29894 -10.87574,14.00241 -17.20685,3.52084 C 129.6391,135.93828 128,132.42228 128,131.44162 c 0,-0.98067 -1.32807,-2.66483 -2.95126,-3.74259 -2.85122,-1.89314 -3.14228,-1.64034 -8.58712,7.45869 -3.09972,5.18003 -6.72165,9.80313 -8.04874,10.27355 C 105.71073,146.38912 100,144.2622 100,142.29795 100,140.09256 90.51834,128 88.789121,128 c -0.907736,0 -3.406634,3.69229 -5.553108,8.20508 -4.079025,8.57583 -7.348724,10.99963 -11.90268,8.82336 z M 27.48428,66.043071 C 14.802691,60.829309 8.0623167,52.12816 12.932412,47.258064 c 3.264075,-3.264075 7.162303,-2.158129 12.333492,3.499069 5.33794,5.839623 10.853136,7.857618 21.400763,7.830478 6.960476,-0.01791 13.773312,-2.955158 10.112618,-4.359896 -1.21016,-0.464383 -5.780565,-0.470119 -10.156454,-0.0128 l -7.956164,0.831636 v -4.257978 c 0,-3.608645 0.714012,-4.55631 4.682113,-6.214289 6.292296,-2.629089 16.187273,-2.699291 24.128867,-0.171185 5.244945,1.669661 16.76199,2.226513 58.805223,2.843248 50.78446,0.74496 52.32252,0.692836 53.66666,-1.818715 0.7611,-1.422111 1.3838,-8.535565 1.3838,-15.807679 0,-7.272113 0.63443,-15.041934 1.40983,-17.266267 1.32817,-3.8100075 1.88805,-4.079524 9.66667,-4.6533831 9.78106,-0.7215878 16.52794,0.8326048 17.39848,4.0078641 0.34557,1.260508 0.66925,12.009804 0.71928,23.887322 0.0753,17.885055 -0.26692,21.953368 -1.99196,23.678408 -1.85588,1.855886 -9.34175,1.990074 -68.67935,1.23111 -58.249417,-0.745044 -66.884276,-0.599992 -68.89302,1.157294 -9.299217,8.135127 -29.416869,10.162102 -43.47898,4.38077 z M 199.17556,41 c 1.09435,-9.385931 -0.6076,-20.333333 -3.16113,-20.333333 -2.62172,0 -4.47248,11.229198 -3.35128,20.333333 0.68389,5.55316 1.36166,7 3.27916,7 1.92333,0 2.58382,-1.429957 3.23325,-7 z"
       id="path668" />
  </g>
</svg>
