<?xml version="1.0" encoding="UTF-8" standalone="no"?>
<!-- Created with Inkscape (http://www.inkscape.org/) -->

<svg
   version="1.1"
   id="svg183"
   width="213.33333"
   height="216"
   viewBox="0 0 213.33333 216"
   xmlns="http://www.w3.org/2000/svg"
   xmlns:svg="http://www.w3.org/2000/svg">
  <defs
     id="defs187" />
  <g
     id="g189">
    <path
       style="fill:#000000;stroke-width:1.33333"
       d="m 34.666666,208.38519 c -1.833333,-0.29864 -5.876794,-1.70747 -8.985469,-3.13075 -3.108673,-1.42328 -6.126168,-2.58777 -6.705543,-2.58777 -2.436254,0 -10.9756541,-9.84635 -10.9756541,-12.65547 0,-7.03956 6.7619181,-7.37319 14.0000001,-0.69077 4.883612,4.5087 8.951657,6.67957 12.516997,6.67957 2.591257,0 2.609128,-0.14493 0.476114,-3.86149 -2.825893,-4.92384 -1.215705,-7.13052 7.327004,-10.04132 8.002455,-2.72671 11.275,-2.64479 20.257779,0.50706 6.616086,2.32144 12.055574,2.6633 50.088766,3.14796 23.46667,0.29904 47.28739,0.2434 52.93492,-0.1236 10.19192,-0.66238 10.27563,-0.69818 11.25784,-4.81462 0.54427,-2.281 0.8353,-10.25838 0.64672,-17.7275 -0.4612,-18.26781 -0.45704,-18.27069 23.9465,-16.56766 1.16562,0.0813 2.76722,1.56988 3.5591,3.30788 1.98855,4.3644 2.56748,45.46732 0.67255,47.75009 -1.58724,1.91211 -39.30955,2.14804 -102.50508,0.64112 l -32.154128,-0.76673 -4.337552,3.20014 c -6.921339,5.10635 -23.527952,9.1173 -32.020864,7.73386 z m 19.673552,-14.71852 c 0.833176,-2.5309 -9.603205,-2.16128 -11.742037,0.41585 -1.532546,1.8466 -0.996431,2.03541 4.732514,1.66667 3.66041,-0.2356 6.698672,-1.13827 7.009523,-2.08252 z M 196.02566,178.21295 c 0.38078,-4.28288 0.38078,-10.88288 0,-14.66667 -0.57405,-5.70424 -1.17089,-6.94795 -3.49336,-7.27961 -2.56382,-0.36612 -2.86944,0.41602 -3.60885,9.23572 -0.44431,5.29964 -0.44811,12.26013 -0.008,15.46776 0.68133,4.97086 1.21424,5.77282 3.60885,5.43096 2.39442,-0.34186 2.91176,-1.55155 3.50182,-8.18816 z M 37.301189,71.299117 C 34.399327,68.210228 22.906656,62.06544 10.23696,56.828683 6.1883158,55.15526 5.228927,54.109895 5.5702931,51.743807 5.870717,49.661499 7.2034523,48.513981 9.9999998,47.929721 16.687212,46.532616 28.04108,39.726293 36.193143,32.227672 c 4.652116,-4.279217 8.669306,-6.925623 10.099191,-6.653045 4.474149,0.8529 3.274729,5.568094 -3.499848,13.758706 l -6.616919,8 17.511615,0.373887 c 9.631388,0.205637 18.339693,0.05612 19.351789,-0.332256 1.435835,-0.550981 1.639845,-2.576808 0.928459,-9.219628 C 72.34818,23.035007 70.63464,23.88872 101.76518,24.30604 L 128.66666,24.666667 129.0679,34 c 0.22068,5.133333 0.90173,9.834385 1.51345,10.446781 3.00609,3.009427 22.81701,-15.802785 22.71143,-21.566512 -0.0364,-1.988049 -0.17902,-1.975849 -1.39958,0.119734 -1.85003,3.176314 -8.57195,2.987917 -11.8932,-0.333334 -3.00803,-3.008033 -3.5015,-9.080564 -1,-12.305979 2.6868,-3.4643459 10.56537,-4.9828896 15.37037,-2.9625387 4.28725,1.8026478 8.29629,7.8411957 8.29629,12.4961217 0,5.028639 -6.86362,17.727332 -12.44334,23.022004 l -5.55666,5.27277 6,-0.738847 c 3.3,-0.406364 16.39282,-0.8989 29.09515,-1.094523 20.21513,-0.311324 23.34767,-0.07663 25.12017,1.882104 2.41955,2.673736 1.3421,7.191682 -2.16236,9.067208 -1.51542,0.811031 -8.39605,0.906431 -18.24302,0.25294 -8.69547,-0.577069 -18.20994,-0.52231 -21.14327,0.12168 -2.93333,0.643999 -9.23333,0.810407 -14,0.369796 -9.16159,-0.846858 -31.28162,-1.137946 -68.666665,-0.903618 -12.466666,0.07815 -26.663965,-0.207004 -31.549551,-0.633654 -4.885588,-0.42665 -9.883951,-0.215504 -11.107473,0.469214 -1.897003,1.061616 -1.227055,2.141808 4.549553,7.335474 8.052465,7.239866 8.755569,10.349846 2.339891,10.349846 -3.017923,0 -5.444736,-1.075616 -7.597896,-3.36755 z M 118.98118,45.552151 c 1.7434,-1.743398 2.11218,-10.236564 0.51389,-11.83486 -1.86379,-1.86379 -31.325077,-2.184892 -33.517537,-0.365312 -1.264222,1.049212 -1.977534,4.040445 -1.977534,8.292686 v 6.65148 l 16.714511,-0.595921 c 10.16264,-0.362328 17.32294,-1.204345 18.26667,-2.148073 z"
       id="path807" />
  </g>
</svg>
