<?xml version="1.0" encoding="UTF-8" standalone="no"?>
<!-- Created with Inkscape (http://www.inkscape.org/) -->

<svg
   version="1.1"
   id="svg173"
   width="109.33333"
   height="209.33333"
   viewBox="0 0 109.33333 209.33333"
   xmlns="http://www.w3.org/2000/svg"
   xmlns:svg="http://www.w3.org/2000/svg">
  <defs
     id="defs177" />
  <g
     id="g179">
    <path
       style="fill:#000000;stroke-width:1.33333"
       d="M 74.666664,199.87877 C 39.902201,192.77885 21.876897,180.4393 12.88453,157.58472 c -3.2698254,-8.31044 -3.1236104,-23.07434 0.32571,-32.88827 2.697745,-7.67556 12.043623,-19.36312 15.483598,-19.36312 0.809572,0 3.955664,-1.2 6.991313,-2.66666 3.03565,-1.46667 7.798348,-2.74684 10.583773,-2.844822 l 5.064408,-0.178151 -6,-0.994287 C 33.044414,96.612958 20.92593,91.141016 14.888397,84.9024 9.2036029,79.028271 3.9999999,67.81477 3.9999999,61.438455 3.9999999,51.171942 12.057183,34.644907 19.411459,29.8262 23.964217,26.84312 23.495601,24.375649 17.247495,18.43197 13.05895,14.447502 11.923513,12.450598 12.247496,9.6384184 l 0.41917,-3.6384185 18.666666,0.2048749 c 10.266667,0.1126814 24.795556,0.2626811 32.286421,0.3333334 12.068825,0.1138306 13.778367,0.424829 15.012639,2.7310874 1.167995,2.1824174 0.529743,3.4571874 -3.953088,7.8954404 -2.940285,2.911046 -5.345973,6.125426 -5.345973,7.143066 0,1.01764 2.85,4.820542 6.333333,8.450892 11.250472,11.725311 14.245111,28.205633 7.562147,41.616593 -4.377869,8.785238 -14.296493,17.718518 -24.177709,21.775826 l -7.71777,3.16898 6,0.876087 c 9.492691,1.38608 17.852683,4.0904 19.696696,6.37156 3.178012,3.9314 7.388932,12.75177 8.907668,18.65836 1.174964,4.56962 1.115572,7.83594 -0.264512,14.54687 -2.231732,10.85225 -2.24192,10.86927 -10.961617,18.31227 -6.730033,5.74465 -7.606002,6.11261 -12.638073,5.3087 -2.973756,-0.47508 -5.976829,-1.43306 -6.673496,-2.12886 C 54.703332,160.56929 52.499366,160 50.502298,160 c -7.798382,0 -17.168966,-12.62108 -17.168966,-23.12459 0,-3.58019 1.071022,-6.69455 3.313159,-9.63415 6.14845,-8.06103 7.074264,-8.5746 15.457563,-8.5746 6.787454,0 8.327599,0.47617 10.823001,3.34613 4.240468,4.87697 6.845242,13.3423 5.1056,16.59285 -1.514817,2.83046 -10.165219,5.15176 -12.029655,3.22809 -0.622128,-0.64188 -1.327311,-2.90655 -1.567072,-5.03259 -0.601899,-5.33721 -4.602776,-7.68456 -7.180688,-4.21297 -2.94138,3.96107 -2.336617,6.78224 2.568861,11.98356 4.789364,5.0782 7.530937,5.66651 15.758145,3.38147 9.479713,-2.63291 13.434898,-15.65446 7.641402,-25.15759 -4.499286,-7.38023 -7.699447,-9.18894 -17.989871,-10.16781 -8.265077,-0.7862 -10.245909,-0.5092 -16,2.23745 -13.248151,6.32387 -18.552184,25.52015 -11.150445,40.35552 3.910302,7.83744 14.47914,19.44589 17.704399,19.44589 1.275176,0 4.844599,1.29151 7.932051,2.87002 3.087452,1.57852 8.313549,3.63989 11.613549,4.58084 3.3,0.94094 8.4,2.62309 11.333333,3.73812 2.933334,1.11502 7.233591,2.05365 9.556127,2.08584 2.322536,0.0321 6.972535,1.2372 10.333333,2.6778 4.727876,2.02661 6.105916,3.30882 6.090126,5.66666 -0.0532,7.9439 -4.118657,8.46592 -27.979586,3.59283 z M 56.029116,86.680556 C 61.812863,85.073729 72.658627,74.177065 73.95886,68.666666 76.364339,58.47222 76.22254,53.67833 73.315646,46.921073 69.993294,39.198057 65.698981,35.779321 57.999998,34.728167 50.930332,33.762935 50.239434,29.90034 55.906669,23.025001 58.158,20.293746 59.999998,17.595789 59.999998,17.029541 59.999998,16.463293 53.699998,16 45.999999,16 c -7.7,0 -14,0.421436 -14,0.936524 0,0.515088 1.750884,2.765088 3.890855,5 3.656371,3.81859 4.641967,6.024165 4.267122,9.548998 -0.08689,0.817037 -2.859137,2.517105 -6.160556,3.777929 -8.828179,3.371512 -15.44245,13.67931 -15.763707,24.56644 -0.202734,6.870472 0.303398,8.688088 3.818206,13.711909 8.042837,11.495871 21.35775,16.64466 33.977197,13.138756 z"
       id="path946" />
  </g>
</svg>
