<?xml version="1.0" encoding="UTF-8" standalone="no"?>
<!-- Created with Inkscape (http://www.inkscape.org/) -->

<svg
   version="1.1"
   id="svg83"
   width="225.33333"
   height="210.66667"
   viewBox="0 0 225.33333 210.66667"
   xmlns="http://www.w3.org/2000/svg"
   xmlns:svg="http://www.w3.org/2000/svg">
  <defs
     id="defs87" />
  <g
     id="g89">
    <path
       style="fill:#000000;stroke-width:1.33333"
       d="M 106.66667,206.24722 C 106.3,205.88994 98.199999,204.90375 88.666665,204.05571 64.53602,201.90915 36.581714,194.63466 15.666666,185.05906 c -7.1297273,-3.26422 -8.9999994,-4.72923 -8.9999994,-7.04979 0,-2.98459 3.7324534,-7.3426 6.2886224,-7.3426 0.776589,0 5.229344,-1.77065 9.895012,-3.93479 14.614356,-6.77876 36.563419,-11.86257 63.149698,-14.62665 34.079191,-3.54308 60.979001,-1.13144 96.783341,8.67691 13.43738,3.68106 34.39004,13.24964 35.5325,16.22681 1.23697,3.22349 -2.64047,8.82763 -7.02375,10.15153 -2.17732,0.65763 -5.15876,1.6875 -6.62543,2.2886 -4.01482,1.64544 -30.98101,8.74788 -39.33333,10.35974 -13.28761,2.56428 -28.52096,4.50769 -38,4.84789 -5.13333,0.18423 -11.73333,0.76361 -14.66666,1.28753 -2.93334,0.52392 -5.63334,0.66026 -6,0.30298 z m 28.65927,-12.90192 c 0.45728,-0.73991 3.04603,-1.3571 5.75275,-1.37152 8.62096,-0.046 43.93645,-7.10626 50.53133,-10.10227 7.77232,-3.53091 7.1813,-4.76273 -4.27669,-8.91371 -30.96825,-11.21912 -88.126582,-13.34693 -128.666664,-4.78985 -6.966667,1.47051 -15.666667,3.15052 -19.333333,3.73336 -3.666667,0.58284 -8.316667,1.72863 -10.333333,2.5462 -3.78554,1.53468 -5.005315,4.21916 -1.917106,4.21916 0.962258,0 4.233275,1.2 7.268924,2.66667 C 37.387469,182.8 41.729962,184 44.001805,184 c 2.271841,0 5.763424,0.84436 7.759072,1.87635 4.0623,2.10069 24.356842,6.1074 37.572455,7.41785 14.847768,1.4723 45.093488,1.5059 45.992608,0.0511 z m -60.3626,-87.4209 c -4.10877,-2.8779 -3.857797,-9.62113 0.670112,-18.004829 3.845527,-7.120226 7.945601,-10.837542 18.3767,-16.661163 5.733432,-3.200942 7.420738,-3.512911 15.869378,-2.934124 12.32893,0.844613 25.77069,7.058079 30.57071,14.131339 5.45265,8.03498 8.38614,17.981497 6.51462,22.089017 L 145.3905,108 h -33.73191 c -28.372054,0 -34.20277,-0.3298 -36.69525,-2.0756 z m 59.19764,-8.170672 c 3.1711,-1.216865 2.0344,-4.133648 -3.79318,-9.733308 -6.79863,-6.532741 -13.50398,-8.587869 -24.66355,-7.559159 -9.693999,0.893614 -14.716205,3.187276 -19.54543,8.926484 -4.065351,4.831395 -4.434075,7.496915 -1.158821,8.377147 3.229922,0.86805 46.895631,0.858134 49.160981,-0.0112 z M 7.3257454,38.881302 c -1.7488048,-1.748805 0.9745505,-9.171747 9.7758116,-26.645545 5.028104,-9.9826671 9.474991,-9.0806655 16.918784,3.431787 2.944521,4.949518 6.244521,8.999123 7.333333,8.999123 1.741532,0 6.269081,-7.037163 10.567975,-16.4257865 2.525384,-5.5153445 6.755467,-3.2364172 13.783545,7.4257865 6.039158,9.161928 10.294805,12.265467 10.294805,7.507748 0,-3.894933 9.358658,-17.8410816 11.97238,-17.8410816 2.655992,0 11.834173,10.4195576 14.387401,16.3333336 0.87067,2.016667 2.1804,3.666667 2.9105,3.666667 0.73009,0 3.79719,-4.5 6.81577,-10 6.94996,-12.6631936 8.96561,-12.9433529 17.26484,-2.399677 3.29034,4.180178 6.41311,8.680178 6.93948,10.000001 1.34827,3.380665 3.55497,2.980061 5.03555,-0.914154 0.69294,-1.822606 3.50617,-6.322606 6.2516,-10 7.60952,-10.1926464 11.19273,-8.998283 18.94213,6.31383 3.8944,7.694973 6.96481,7.48819 9.89905,-0.666667 3.31175,-9.2040278 7.67119,-14.2410211 11.3224,-13.0821709 4.06275,1.2894687 5.00496,6.5680109 2.73354,15.3140909 -1.51412,5.830087 -2.54819,7.524489 -4.79106,7.850545 -1.73454,0.252159 -4.22498,2.744664 -6.32809,6.333334 -2.83187,4.832213 -4.17336,5.917535 -7.31429,5.917535 -3.34698,0 -4.60746,-1.255138 -9.70775,-9.666667 -3.22373,-5.316667 -6.7216,-9.83255 -7.77301,-10.035296 -1.2041,-0.232184 -3.10176,2.388253 -5.12692,7.079573 -3.83642,8.887207 -8.28987,12.949162 -12.51867,11.418174 -1.60317,-0.58041 -5.07683,-4.5969 -7.71925,-8.925537 C 124.90219,22.837071 120,18.894447 120,22.474616 c 0,3.120318 -10.87336,17.525385 -13.22866,17.525385 -3.76742,0 -7.641057,-3.901772 -11.913483,-12.000001 -2.127888,-4.033333 -4.672936,-7.333333 -5.655662,-7.333333 -0.982727,0 -3.919639,4.2 -6.526472,9.333333 -4.196301,8.26329 -5.218137,9.380139 -8.912833,9.741583 C 69.960951,40.113518 69.1929,39.483417 65.128208,32.657775 56.232515,17.71966 56.905406,17.86509 51.288609,29.666667 c -4.351707,9.143464 -5.334795,10.333334 -8.537558,10.333334 -3.957477,0 -6.683394,-2.533298 -13.300621,-12.36077 -2.355626,-3.498423 -4.797382,-6.042836 -5.426124,-5.654253 -0.62874,0.388584 -2.81701,4.251262 -4.862821,8.58373 -3.039619,6.437082 -4.401311,7.977262 -7.448159,8.424445 -2.0506759,0.300974 -4.0250873,0.250642 -4.3875806,-0.111854 z"
       id="path1085" />
  </g>
</svg>
