<?xml version="1.0" encoding="UTF-8" standalone="no"?>
<!-- Created with Inkscape (http://www.inkscape.org/) -->

<svg
   version="1.1"
   id="svg223"
   width="112"
   height="109.33333"
   viewBox="0 0 112 109.33333"
   xmlns="http://www.w3.org/2000/svg"
   xmlns:svg="http://www.w3.org/2000/svg">
  <defs
     id="defs227" />
  <g
     id="g229">
    <path
       style="fill:#000000;stroke-width:1.33333"
       d="M 13.695615,103.59599 C 12.294456,100.52078 12.714956,98.666208 17.421141,87.164909 19.640069,81.74214 17.585552,76.540923 9.7314081,67.697578 5.7104289,63.17017 4,60.061216 4,57.279906 4,52.883812 18.252457,24.094619 23.232847,18.430598 29.026411,11.841779 39.469784,7.6107743 51.588569,6.9426231 c 18.196442,-1.0032334 22.017003,0.085577 30.941119,8.8178229 8.34036,8.16104 12.141604,14.524437 16.360771,27.388427 5.826491,17.764628 8.186711,34.305162 5.306771,37.190114 -0.91197,0.913556 -5.617762,1.96101 -10.457317,2.327677 -9.590192,0.726596 -10.147714,1.182531 -12.37007,10.116073 -1.78513,7.175961 -4.800902,8.427903 -22.779714,9.456573 l -14.442994,0.82637 -1.976231,-4.53284 c -1.086928,-2.493064 -2.306425,-5.596452 -2.709993,-6.896417 -0.777343,-2.503962 -4.370094,-4.50502 -5.700242,-3.174872 -0.435044,0.435044 -1.502826,3.959166 -2.37285,7.831383 -1.738606,7.738016 -4.772912,10.318756 -12.173799,10.354076 -3.017149,0.0144 -4.493655,-0.80194 -5.518405,-3.05102 z M 66.666667,88.666664 c 1.416016,-1.706196 1.039357,-2 -2.564014,-2 -7.919041,0 -13.788048,-9.959168 -14.009922,-23.773561 -0.07739,-4.818205 0.513996,-6.21553 3.573936,-8.444542 5.02654,-3.661579 4.5993,-5.115229 -1.503407,-5.115229 -2.96902,0 -5.876723,-0.85146 -6.829927,-2 -0.912918,-1.1 -3.386385,-2 -5.496593,-2 -3.469463,0 -3.83674,0.431095 -3.83674,4.503406 0,5.484367 -2.225064,7.512275 -9.281041,8.45868 -6.159983,0.826227 -6.404294,1.383264 -2.6821,6.115265 1.966081,2.499467 4.421021,3.659456 9,4.252606 11.273574,1.460354 12.21339,1.867545 13.133578,5.690349 0.482744,2.005497 2.30199,6.49636 4.042767,9.979693 3.050164,6.10344 3.376104,6.333333 8.979331,6.333333 3.541646,0 6.463068,-0.781741 7.474132,-2 z M 92.333333,71.08791 c 2.703582,-1.564356 -1.28393,-25.648367 -4.909882,-29.654999 -1.149564,-1.270255 -2.090118,-3.194108 -2.090118,-4.275229 0,-3.514818 -8.17683,-13.193697 -13.3953,-15.855963 -8.961048,-4.571585 -29.581533,-3.315302 -34.681076,2.112912 -3.175544,3.380212 -2.514398,5.918701 1.541516,5.918701 1.452603,0 5.118472,1.263863 8.146376,2.808586 4.320495,2.204152 6.864316,2.628302 11.820228,1.970877 7.48418,-0.992812 12.979218,1.070817 14.033164,5.270073 1.215435,4.842677 -2.124912,14.286553 -6.937332,19.613328 -2.490166,2.756317 -4.527576,6.389755 -4.527576,8.07431 0,5.751544 2.243036,6.492704 16.666667,5.507114 7.333333,-0.501098 13.783333,-1.171468 14.333333,-1.48971 z"
       id="path251" />
  </g>
</svg>
