<?xml version="1.0" encoding="UTF-8" standalone="no"?>
<!-- Created with Inkscape (http://www.inkscape.org/) -->

<svg
   version="1.1"
   id="svg213"
   width="105.33333"
   height="205.33333"
   viewBox="0 0 105.33333 205.33333"
   xmlns="http://www.w3.org/2000/svg"
   xmlns:svg="http://www.w3.org/2000/svg">
  <defs
     id="defs217" />
  <g
     id="g219">
    <path
       style="fill:#000000;stroke-width:1.33333"
       d="m 45.64046,200.16828 c -3.864412,-1.3436 -7.201687,-2.68112 -7.416164,-2.97227 -3.900766,-5.29509 -10.573356,-16.68109 -12.290069,-20.97159 -2.380937,-5.95054 -8.705621,-12.2113 -12.369861,-12.24484 -4.8712231,-0.0445 -6.1377893,-2.37602 -6.9969227,-12.87965 -1.1217233,-13.714 0.3352441,-19.10272 5.1618947,-19.09172 1.982198,0.005 5.403995,0.94734 7.603995,2.09515 3.963302,2.06778 4.039573,2.04018 8.313497,-3.00822 2.372424,-2.80233 4.322424,-5.57413 4.333333,-6.15955 0.01091,-0.58543 -1.180164,-3.54812 -2.646831,-6.58377 -3.550559,-7.34882 -3.39033,-8.57579 1.446539,-11.07703 5.586151,-2.88871 39.690305,-1.67198 44.674596,1.59385 3.9262,2.57255 3.935304,2.90498 0.285305,10.41778 l -2.926893,6.02443 3.843015,4.01124 c 4.284419,4.47197 8.48667,5.07135 13.32573,1.90067 1.888308,-1.23727 4.35214,-1.7516 5.954504,-1.24303 4.726002,1.49997 5.545762,4.96531 4.127412,17.44771 -1.296775,11.41253 -2.820004,15.23922 -6.066027,15.23922 -2.027508,0 -12.664182,10.10458 -12.664182,12.03067 0,1.33917 -5.745572,10.37983 -12.895645,20.29128 -1.979316,2.74373 -4.537516,5.24893 -5.684889,5.56712 -6.882852,1.90872 -10.760681,1.82092 -17.112337,-0.38745 z m 15.286611,-10.53127 c 3.811055,-2.9994 13.286697,-21.67704 14.429769,-28.44283 2.264855,-13.40556 -5.08722,-25.11498 -17.889572,-28.49218 -9.748079,-2.5715 -16.465236,-0.14016 -22.800602,8.25289 -4.081062,5.40656 -4.655299,7.11491 -4.576078,13.61373 0.07344,6.0241 1.165224,9.5173 5.76536,18.44636 7.954136,15.43935 11.189751,18.99226 17.262576,18.95536 2.68481,-0.0163 6.198657,-1.0663 7.808547,-2.33333 z M 19.999999,150.5689 c 0,-4.45301 -0.420213,-5.35101 -2.333333,-4.98638 C 13.519766,146.37289 13.789138,156 17.958153,156 c 1.499392,0 2.041846,-1.44288 2.041846,-5.4311 z m 69.999998,-1.90224 c 0,-2.07777 -0.75,-4.02777 -1.666666,-4.33333 -1.131314,-0.37711 -1.666667,1.01481 -1.666667,4.33333 0,3.31852 0.535353,4.71044 1.666667,4.33334 0.916666,-0.30556 1.666666,-2.25556 1.666666,-4.33334 z M 60.666665,118 c 0,-2.20093 -1.029242,-2.74021 -5.893049,-3.08773 -7.474379,-0.53404 -12.106951,0.61464 -12.106951,3.00202 0,2.6517 2.311086,3.3039 10.666667,3.01017 6.358513,-0.22353 7.333333,-0.61228 7.333333,-2.92446 z M 7.4119504,53.50505 C 5.7314437,50.296315 6.9539868,38.324239 9.2675777,35.333333 9.8348414,34.599999 10.674963,32.422383 11.134514,30.494186 12.162195,26.182216 21.933011,15.128426 29.118283,10.149029 33.92513,6.8178824 35.662652,6.4345643 46.88968,6.22845 c 11.709369,-0.2149696 12.969609,0.037268 21.356889,4.274602 12.013499,6.069333 21.26801,17.342209 25.608652,31.193777 2.23668,7.137542 2.254673,7.936852 0.247623,10.999999 -1.969662,3.006083 -3.030979,3.30552 -11.800251,3.329299 -5.299761,0.01437 -23.945678,0.164371 -41.435372,0.333333 L 9.0677792,56.666666 Z M 72.333331,43.950839 c 7.347469,-2.674296 7.01147,-6.082018 -1.988016,-20.162591 -3.252821,-5.089356 -5.014213,-6.47464 -9.748181,-7.666667 -13.939518,-3.510011 -23.512675,-0.913608 -33.076106,8.970803 -5.038165,5.207262 -5.111642,5.425444 -3.518065,10.446311 3.423272,10.785671 2.697869,10.474788 24.142521,10.346663 12.611817,-0.07535 20.901439,-0.738347 24.187847,-1.934519 z"
       id="path390" />
  </g>
</svg>
