<?xml version="1.0" encoding="UTF-8" standalone="no"?>
<!-- Created with Inkscape (http://www.inkscape.org/) -->

<svg
   version="1.1"
   id="svg203"
   width="218.66667"
   height="200"
   viewBox="0 0 218.66667 200"
   xmlns="http://www.w3.org/2000/svg"
   xmlns:svg="http://www.w3.org/2000/svg">
  <defs
     id="defs207" />
  <g
     id="g209">
    <path
       style="fill:#000000;stroke-width:1.33333"
       d="m 79.935881,192 c -24.746529,-0.57421 -29.240308,-1.00101 -32.404992,-3.07769 -2.020814,-1.32606 -3.9982,-3.42606 -4.394194,-4.66667 -3.26535,-10.22997 -2.147685,-9.58897 -16.719444,-9.58897 -16.327433,0 -21.0146479,-1.97782 -21.0635005,-8.88796 -0.012664,-1.79132 2.0048027,-4.49196 5.3129165,-7.11204 5.862951,-4.64355 6.802548,-7.86544 2.613269,-8.96096 -3.6716431,-0.96016 -6.5941779,-6.90456 -5.2057591,-10.58846 2.4940181,-6.61738 15.3458691,-4.67349 20.4220301,3.08891 l 2.837127,4.33849 5.040053,-4.91537 c 4.183444,-4.07995 5.938082,-4.89181 10.323811,-4.77681 2.906068,0.0763 6.123205,0.83522 7.149195,1.68672 4.657659,3.8655 2.528677,11.03701 -4.015111,13.52496 -5.136047,1.95272 -5.328299,4.9522 -0.628227,9.80144 2.322362,2.39606 4.864111,6.70652 5.648334,9.57878 0.784223,2.87226 2.059084,5.99898 2.833024,6.94824 1.908668,2.34106 8.733929,0.79715 12.982255,-2.93665 7.383591,-6.48935 14.393428,-9.93269 24.158572,-11.86709 8.66746,-1.71696 11.50894,-1.75503 19.35833,-0.2594 5.05987,0.96412 11.28851,2.64884 13.84143,3.74381 25.65554,11.004 47.48346,15.07719 71.49302,13.34089 10.25657,-0.74172 10.90096,-0.62841 11.75652,2.06722 1.31014,4.12792 -0.34118,8.07781 -3.69674,8.8424 -4.27368,0.97378 -94.27029,1.45056 -127.641919,0.67621 z M 95.333335,59.948673 C 77.420407,56.070821 71.633056,54.414811 62.666668,50.601332 57.166668,48.262137 49.78039,45.258365 46.252717,43.926283 40.394602,41.714204 35.033806,38.124492 15.98751,23.660004 8.61335,18.059784 4.8692045,12.245134 6.7115702,9.2544889 8.3948721,6.5220467 26.479119,5.9286872 119.79396,5.5441601 c 56.23254,-0.2317204 79.6408,0.100115 80.90206,1.1468668 3.21864,2.671224 -0.43535,8.6912131 -12.0343,19.8266561 -8.42237,8.085814 -14.08177,12.171726 -23.20692,16.754648 -6.6375,3.333552 -12.8843,6.061002 -13.8818,6.061002 -0.99749,0 -5.05948,1.789131 -9.02664,3.975847 -3.96716,2.186715 -8.82397,3.986715 -10.79289,4 -1.96893,0.01333 -4.96893,0.542339 -6.66667,1.175677 -4.83772,1.804699 -23.85658,2.740392 -29.753465,1.463816 z M 127.33334,48.135197 c 8.84858,-1.306493 27.42358,-8.739614 35.87984,-14.357966 C 170.43967,28.975933 180,19.865372 180,17.780153 c 0,-1.304113 -14.22158,-1.72806 -65.66666,-1.957532 -36.116672,-0.1611 -71.066673,-0.337093 -77.666673,-0.391098 -7.799201,-0.06381 -12,0.408312 -12,1.348681 0,2.609847 16.062116,14.881553 26.134407,19.967093 10.690766,5.39781 17.075216,7.49661 34.532261,11.351999 11.70031,2.584016 24.667115,2.595099 42.000005,0.03591 z"
       id="path529" />
  </g>
</svg>
