<?xml version="1.0" encoding="UTF-8" standalone="no"?>
<!-- Created with Inkscape (http://www.inkscape.org/) -->

<svg
   version="1.1"
   id="svg193"
   width="220"
   height="196"
   viewBox="0 0 220 196"
   xmlns="http://www.w3.org/2000/svg"
   xmlns:svg="http://www.w3.org/2000/svg">
  <defs
     id="defs197" />
  <g
     id="g199">
    <path
       style="fill:#000000;stroke-width:1.33333"
       d="m 47.954435,186.44403 c -3.958092,-2.40706 -6.369063,-5.97263 -7.893914,-11.67426 -0.885688,-3.3117 -1.181344,-3.3884 -13.483033,-3.4973 C 13.752685,171.159 5.3270473,168.65704 5.3383175,164.96576 5.3466241,162.24692 10.345472,154.93239 13.261986,153.37152 17.177019,151.27625 16.642327,147.30563 12,144 c -7.9635633,-5.67056 -3.4206681,-15.15025 6.113604,-12.75729 2.003969,0.50296 5.697157,2.96805 8.207083,5.47798 l 4.563502,4.5635 5.278719,-4.2421 c 5.718307,-4.59535 12.578011,-5.6335 16.379161,-2.47884 2.966966,2.46238 2.820034,10.6303 -0.208736,11.60358 -11.516104,3.70062 -12.007001,5.05909 -4.333333,11.99178 4.046563,3.65583 5.337725,5.82643 5.35154,8.99654 0.03155,7.23938 1.371601,10.17818 4.641136,10.17818 4.443075,0 11.970105,-3.46764 16.957688,-7.81225 6.745076,-5.87556 12.036176,-8.07363 23.158233,-9.62056 11.636063,-1.61843 19.721633,-0.29116 30.196473,4.95685 17.50888,8.77214 33.65145,12.7037 55.02826,13.40227 17.7897,0.58135 24.66667,2.0324 24.66667,5.20472 0,4.4876 -5.46428,5.56911 -26,5.14601 -29.80107,-0.61397 -106.390119,-0.81068 -119.130661,-0.30596 -8.757714,0.34695 -11.937426,-0.0497 -14.914904,-1.86038 z m 70.712235,-11.1107 c 0,-1.53844 -1.9232,-2.05628 -8.33334,-2.24385 -9.95835,-0.2914 -15.938294,0.0711 -16.891007,1.02376 -1.817824,1.81781 4.24294,3.18115 14.224347,3.19968 8.89796,0.0165 11,-0.36177 11,-1.97959 z M 52.666667,92.532436 C 39.938597,89.669217 29.054339,83.884532 24.302904,77.457873 16.974199,67.545268 13.998765,59.579328 14.046856,50 14.0917,41.067296 15.555044,36.112461 21.689885,24.120959 23.863228,19.872821 34.230669,12.853589 43.397736,9.4237497 57.016975,4.3281396 77.575201,6.5384957 85.577671,13.958804 c 1.863106,1.727569 6.170309,8.287871 9.571564,14.578448 5.137945,9.502557 6.181425,12.623737 6.168275,18.45008 -0.0328,14.5497 -6.538335,28.438061 -17.462238,37.279511 -6.854413,5.547737 -23.573521,9.978629 -31.188605,8.265593 z M 64,81.37784 C 64,78.42882 29.713089,44 26.776224,44 23.185017,44 26.518765,48.309368 42.936395,64.889436 58.951067,81.062561 64,85.014821 64,81.37784 Z M 78.041576,74.599395 C 78.880621,73.241791 41.113251,35.000421 34.931537,30.948304 32.570176,29.400429 31.499745,29.300255 30.286401,30.513599 29.073059,31.726941 33.827577,37.14958 50.918632,54.045136 63.133529,66.120311 74.038431,76 75.151745,76 c 1.113315,0 2.413739,-0.630272 2.889831,-1.400605 z M 33.903228,69 c -5.084209,-5.678361 -7.236561,-7.354756 -7.236561,-5.636317 0,2.080697 8.377165,11.302984 10.267189,11.302984 1.359865,0 0.346381,-1.895012 -3.030628,-5.666667 z M 88,64.744103 c 0,-2.751258 -41.516891,-43.41077 -44.326163,-43.41077 -5.973377,0 -1.66514,5.273619 24.797538,30.354123 C 83.590653,66.017039 88,68.965084 88,64.744103 Z m 3.248651,-14.41077 c -1.251944,-4.033972 -30.433962,-33 -33.246071,-33 -1.223641,0 -2.024803,0.556064 -1.780357,1.235699 0.83595,2.324213 33.020636,34.764301 34.4906,34.764301 0.908184,0 1.112266,-1.142617 0.535828,-3 z M 88,29.565752 c 0,-1.576179 -6.520223,-7.489973 -7.346748,-6.663448 -0.900951,0.900951 4.500232,7.764363 6.110188,7.764363 0.680108,0 1.23656,-0.495412 1.23656,-1.100915 z m 44.30049,56.167437 c -7.66932,-1.501912 -8.61304,-11.326233 -2.19987,-22.901126 1.77799,-3.209032 3.23271,-6.972439 3.23271,-8.363124 0,-4.012295 10.52438,-14.358724 18.91315,-18.593362 12.74907,-6.435705 28.62305,-4.768569 42.12877,4.424494 8.85199,6.025368 17.35576,20.385713 18.55959,31.34165 1.30244,11.853336 1.4152,11.819082 -42.93484,13.043171 -15.4,0.425051 -29.5,0.968436 -31.33333,1.207525 -1.83334,0.239088 -4.69812,0.167436 -6.36618,-0.159228 z m 61.44384,-12.948437 c 3.52606,-0.534292 6.71694,-1.768697 7.09086,-2.743123 1.19428,-3.112236 -5.83243,-14.852486 -12.29314,-20.539428 -5.98089,-5.264594 -6.63137,-5.50188 -15.0631,-5.494765 -4.84676,0.0041 -11.21228,0.669887 -14.14562,1.479551 -6.85437,1.891952 -19.23704,13.908136 -19.55556,18.976781 -0.12226,1.944928 -0.27221,4.586232 -0.33333,5.869565 -0.0833,1.74885 1.22485,2.50033 5.22223,3 7.7372,0.967151 41.57041,0.58897 49.07766,-0.548581 z"
       id="path668" />
  </g>
</svg>
