<?xml version="1.0" encoding="UTF-8" standalone="no"?>
<!-- Created with Inkscape (http://www.inkscape.org/) -->

<svg
   version="1.1"
   id="svg183"
   width="212"
   height="153.33333"
   viewBox="0 0 212 153.33333"
   xmlns="http://www.w3.org/2000/svg"
   xmlns:svg="http://www.w3.org/2000/svg">
  <defs
     id="defs187" />
  <g
     id="g189">
    <path
       style="fill:#000000;stroke-width:1.33333"
       d="m 45.207952,144.0904 c -8.954487,-3.61626 -13.342177,-10.40962 -13.591136,-21.04284 -0.163593,-6.98724 0.09741,-7.59422 5.387333,-12.52861 4.572971,-4.26562 6.522219,-5.18562 10.987046,-5.18562 6.649636,0 13.026836,2.58991 16.998968,6.90363 6.26809,6.80711 4.817001,22.68345 -2.574532,28.16792 -3.756943,2.78761 -13.999135,4.98128 -17.207679,3.68552 z m 13.725697,-12.15226 c 3.49302,-3.49302 3.95173,-4.74047 3.27549,-8.90766 -1.036294,-6.38592 -3.773059,-8.89715 -9.696214,-8.89715 -3.64917,0 -5.645197,0.91459 -8.019048,3.67435 -6.485688,7.54006 -2.002036,17.76278 7.94202,18.1078 1.339744,0.0465 4.263732,-1.74332 6.497752,-3.97734 z m 54.924091,12.26228 c -5.08026,-1.56824 -12.44135,-7.46612 -13.998411,-11.21586 -2.074937,-4.99691 -0.857516,-15.80499 2.258801,-20.05324 3.7338,-5.09004 14.25999,-9.3271 20.53689,-8.26662 6.04177,1.02075 9.56454,4.47845 13.40263,13.15509 3.66927,8.295 2.72427,13.6129 -3.57088,20.09482 -6.66622,6.86399 -11.48682,8.49056 -18.62903,6.28581 z m 11.01641,-12.93494 c 7.93929,-6.0556 4.55115,-16.59882 -5.33417,-16.59882 -5.21045,0 -8.48204,3.04362 -9.67313,8.99911 -0.66836,3.34179 -0.16017,4.82878 2.59022,7.57918 4.29826,4.29826 6.80325,4.30239 12.41708,0.0205 z m 55.79252,12.5155 c -6.28488,-3.46748 -9.9294,-8.3201 -11.49164,-15.3009 -1.40238,-6.26646 -1.29384,-7.78141 0.9072,-12.66243 4.51374,-10.00971 15.24002,-13.26503 25.8586,-7.84784 7.3701,3.75995 10.7269,9.05234 10.72085,16.90268 -0.005,7.70682 -3.41849,14.00229 -9.64949,17.80137 -4.76448,2.90495 -12.17695,3.407 -16.34552,1.10712 z m 12.08101,-10.49772 c 7.83636,-4.84314 7.42723,-13.8971 -0.78164,-17.29733 -3.64375,-1.50929 -4.5498,-1.40409 -7.61452,0.88405 -4.94277,3.69031 -6.20697,6.20155 -5.18061,10.2909 0.97794,3.89642 5.26784,8.83912 7.67172,8.83912 0.8301,0 3.48737,-1.22254 5.90505,-2.71674 z M 184,75.154488 C 160.11723,74.258332 119.94591,69.00283 104.66667,64.775527 101,63.761071 93.2,61.877541 87.333333,60.589905 c -5.866666,-1.287636 -13.066666,-3.389708 -16,-4.67127 C 68.4,54.637072 63.432137,52.531924 60.29364,51.240528 57.155141,49.949132 52.746665,47.534574 50.497028,45.874843 48.247389,44.215114 44.090289,42.465783 41.259025,41.987444 37.828924,41.407932 35.838733,40.25904 35.294479,38.544246 33.9657,34.357634 27.625739,31.999999 17.696221,31.999999 c -10.6655997,0 -15.2064365,-2.259413 -14.0480993,-6.990004 1.1542024,-4.713703 3.0264512,-6.343329 7.2877453,-6.343329 3.598942,0 3.875528,-0.319674 3.17244,-3.666666 -0.888346,-4.22889 0.01524,-5.9635225 4.27539,-8.2075936 4.208615,-2.2169225 7.439602,-0.8682636 12.731734,5.3144026 4.412984,5.15558 4.745948,5.288533 13.703724,5.471951 5.049465,0.103386 12.431122,-0.608867 16.403685,-1.582796 5.716908,-1.40158 8.791579,-1.446763 14.746927,-0.216706 11.566473,2.389016 39.047483,2.000127 47.526203,-0.672554 6.68866,-2.108416 7.34845,-2.098212 12.42767,0.192197 4.59757,2.073213 6.85261,2.245453 15.78224,1.205445 16.69717,-1.94467 26.53305,2.694804 23.51544,11.091961 -1.32525,3.687803 -1.47603,3.733007 -11.44693,3.431899 l -10.10399,-0.305128 -0.12267,6.113296 c -0.0675,3.362312 -0.64122,6.799618 -1.27496,7.63846 -0.63373,0.838841 -1.2259,5.275165 -1.31594,9.858498 -0.1561,7.946785 -0.0156,8.333333 3.02773,8.333333 1.75529,0 3.59707,-0.656324 4.09284,-1.458498 0.56991,-0.922127 2.92797,-1.129351 6.41201,-0.56348 3.03086,0.49226 12.70468,1.298585 21.4974,1.791832 l 15.98678,0.896813 1.86221,3.895264 c 1.28597,2.689925 1.45457,4.546546 0.54485,6 -1.40845,2.25028 -4.34368,2.527648 -20.38061,1.925892 z M 136.32803,54.666665 c -0.18624,-1.833333 -1.81575,-6.933333 -3.62111,-11.333333 -2.5384,-6.186577 -3.89727,-7.976002 -5.99469,-7.894131 C 125.2205,35.497429 124,34.758859 124,33.797937 c 0,-2.135179 -2.87481,-2.759843 -16.83703,-3.658494 -6.69769,-0.431084 -12.401521,-0.106972 -14.932973,0.848544 -3.726045,1.406426 -4.397282,1.220902 -7.432641,-2.054304 -1.83518,-1.980192 -4.624664,-3.60035 -6.198852,-3.60035 -2.652701,0 -11.931837,3.712134 -11.931837,4.773353 0,0.258229 1.017496,2.603221 2.261104,5.211092 1.661242,3.483664 4.0489,5.559462 9,7.824488 8.99283,4.114033 15.229792,6.349152 20.072229,7.193217 2.2,0.383472 5.1835,1.514864 6.63001,2.514203 1.4465,0.999338 5.0465,1.874578 8,1.944975 2.95349,0.0704 8.36999,0.909687 12.03666,1.865087 9.58558,2.497656 12.07437,2.072291 11.66136,-1.993083 z"
       id="path823" />
  </g>
</svg>
