<?xml version="1.0" encoding="UTF-8" standalone="no"?>
<!-- Created with Inkscape (http://www.inkscape.org/) -->

<svg
   version="1.1"
   id="svg173"
   width="224"
   height="210.66667"
   viewBox="0 0 224 210.66667"
   xmlns="http://www.w3.org/2000/svg"
   xmlns:svg="http://www.w3.org/2000/svg">
  <defs
     id="defs177" />
  <g
     id="g179">
    <path
       style="fill:#000000;stroke-width:1.33333"
       d="m 42.297375,204.40731 c -1.303111,-0.33917 -4.438172,-4.72493 -6.966803,-9.74612 -2.528631,-5.0212 -5.128699,-9.45773 -5.777928,-9.85897 -0.649228,-0.40126 -2.224196,1.58514 -3.499928,4.41421 -1.275731,2.82907 -3.776308,5.80752 -5.556839,6.61879 -2.879024,1.31177 -3.380761,1.09776 -4.533269,-1.93356 -1.660603,-4.36772 -1.675984,-11.23499 -0.02516,-11.23499 0.698927,0 2.299517,-2.25 3.556867,-5 5.053932,-11.05365 8.809513,-12.2218 15.473354,-4.81287 2.401118,2.66959 4.99924,5.51959 5.773607,6.33334 0.774367,0.81374 1.822552,2.57388 2.329301,3.91141 1.609023,4.24691 5.38708,1.80812 9.422387,-6.08229 5.774343,-11.29084 9.969731,-11.58842 15.170817,-1.0761 C 72.8332,186.3885 80,192.20214 80,185.9472 c 0,-2.69998 8.813183,-16.12896 11.181595,-17.03781 2.865709,-1.09967 8.230438,3.62649 11.497365,10.12881 3.94287,7.84771 6.24875,10.7032 7.84595,9.71608 0.75295,-0.46536 3.64287,-5.02142 6.42205,-10.1246 4.35687,-8.00018 5.55821,-9.27973 8.71971,-9.28742 2.01666,-0.005 3.66666,0.53084 3.66666,1.19053 0,0.65969 2.25,4.22079 5,7.91352 2.75,3.69273 5.7214,7.80297 6.60312,9.13388 1.51222,2.28259 1.76074,2.23077 4.38232,-0.91352 1.52856,-1.83333 4.56579,-6.78333 6.7494,-11 6.25179,-12.07249 9.86576,-10.59039 20.26664,8.31145 3.31555,6.02547 4.78927,5.06875 10.23552,-6.64478 5.2059,-11.19658 10.55751,-11.99023 15.97122,-2.36856 8.93541,15.88068 13.3917,24.53336 13.42337,26.06381 0.0193,0.93239 -1.44715,2.3706 -3.25877,3.19603 -4.35628,1.98485 -5.78875,0.68861 -11.25056,-10.18067 -2.4074,-4.79084 -5.20435,-8.71061 -6.21543,-8.71061 -1.89761,0 -5.90683,6.52549 -5.90683,9.61408 0,0.96057 -1.52428,3.39037 -3.38729,5.39954 -6.01576,6.48772 -10.5482,4.46867 -17.07795,-7.6077 -2.31078,-4.27366 -4.80142,-7.78414 -5.53476,-7.80107 -0.73333,-0.0169 -3.73333,4.40869 -6.66666,9.83475 -2.93334,5.42605 -6.2734,10.04472 -7.42238,10.26369 -3.44748,0.65705 -8.89392,-4.67265 -13.38424,-13.09736 C 129.53268,187.57267 126.93517,184 126.0878,184 c -0.84736,0 -3.61377,4.18482 -6.14756,9.29958 -6.35153,12.82129 -12.7672,14.3615 -18.134,4.35344 -8.870056,-16.54099 -9.422644,-16.6503 -15.096061,-2.98635 -3.412856,8.21957 -4.511379,9.28373 -9.61364,9.31292 -2.935246,0.0168 -4.41718,-1.37399 -8.333334,-7.82067 C 66.143443,191.84632 64,187.69632 64,186.9367 c 0,-0.75963 -0.75,-1.63596 -1.666667,-1.9474 -1.899829,-0.64547 -6.321702,5.44646 -8.960008,12.34404 -2.692876,7.04024 -5.157616,8.61442 -11.07595,7.07397 z M 82.666667,65.912524 C 73.074051,64.308932 64.833119,61.880465 49.640028,56.180122 35.102763,50.725841 12.928991,33.567723 5.1973337,21.790259 2.3407617,17.438906 3.453222,12.67962 7.7921169,10.689355 11.765954,8.8665437 115.47779,8.672168 163.33333,10.397841 c 14.66667,0.528881 30.13532,0.631847 34.37479,0.228813 4.23947,-0.403033 8.39136,-0.310526 9.22643,0.205572 1.74806,1.080367 2.34438,7.710682 0.78041,8.67727 -1.69879,1.049911 -1.19913,5.601484 0.74183,6.757584 5.60612,3.339202 9.45977,20.553654 6.30574,28.168141 -1.50769,3.639899 -8.6267,8.231447 -12.76253,8.231447 -4.89409,0 -11.16031,-4.600007 -13.99324,-10.272386 -1.62611,-3.255976 -3.75593,-6.226705 -4.73295,-6.601619 -0.97701,-0.374913 -9.85049,3.237374 -19.71885,8.027306 -12.67221,6.150872 -21.01869,9.294349 -28.41539,10.701888 -14.42855,2.745652 -40.270533,3.430531 -52.472903,1.390667 z M 126,53.856825 c 8.47865,-1.662982 23.86621,-7.435354 35.02376,-13.138552 10.77192,-5.50608 21.64291,-13.836483 21.64291,-16.584885 0,-2.020461 -8.0195,-2.458313 -27.97954,-1.527637 -18.57126,0.865921 -43.62651,0.891217 -88.020463,0.08887 -42.496886,-0.768063 -44.022204,-0.384691 -34.272307,8.613971 7.524643,6.944865 30.487775,18.584459 40.671268,20.615525 3.886096,0.775071 10.486096,1.469027 14.666667,1.542126 4.18057,0.07309 9.101038,0.587933 10.934372,1.144077 C 102.15991,55.67 119.14246,55.201844 126,53.856825 Z m 76.66667,-10.923491 c 0,-3.983917 -2.09863,-6.933333 -4.93334,-6.933333 -2.45729,0 -2.15076,5.328772 0.47332,8.228345 3.10455,3.430485 4.46002,3.036911 4.46002,-1.295012 z"
       id="path962" />
  </g>
</svg>
