<?xml version="1.0" encoding="UTF-8" standalone="no"?>
<!-- Created with Inkscape (http://www.inkscape.org/) -->

<svg
   version="1.1"
   id="svg83"
   width="97.333336"
   height="202.66667"
   viewBox="0 0 97.333336 202.66667"
   xmlns="http://www.w3.org/2000/svg"
   xmlns:svg="http://www.w3.org/2000/svg">
  <defs
     id="defs87" />
  <g
     id="g89">
    <path
       style="fill:#000000;stroke-width:1.33333"
       d="m 28.544014,197.18263 c -4.752889,-1.09435 -5.834388,-2.06765 -8.39234,-7.55276 -2.588628,-5.55089 -2.990668,-8.98073 -3.395018,-28.9632 C 16.504391,148.2 15.857023,134.62392 15.31806,130.4976 c -0.872208,-6.67766 -0.658385,-7.82394 1.945098,-10.42742 2.763539,-2.76354 3.784773,-2.88839 18.497602,-2.26138 31.424358,1.33921 38.936019,2.3295 40.934713,5.39657 2.097777,3.21913 2.26378,7.94895 1.51781,43.24618 -0.417284,19.74472 -0.981857,26.22179 -2.41011,27.65004 -1.341736,1.34175 -6.720863,2.01947 -19.167506,2.41496 -9.516283,0.30237 -18.502333,0.85859 -19.968999,1.23604 -1.466667,0.37744 -5.121862,0.12093 -8.122654,-0.56996 z M 66.321708,186.2132 c 1.577066,-0.97468 2.282898,-46.67336 0.811439,-52.53612 l -0.82902,-3.30307 -18.152063,0.51101 c -9.983635,0.28106 -18.987313,1.03501 -20.008174,1.67544 -1.521687,0.95462 -1.730603,5.79012 -1.159521,26.83786 0.383124,14.12039 1.078236,26.29096 1.544694,27.0457 0.932323,1.50853 35.318123,1.29852 37.792645,-0.23082 z M 34.000001,92.035758 C 22.676215,89.135132 15.97387,83.091613 9.425882,69.877225 3.9196813,58.765249 3.6850813,57.80968 4.3922669,49.374375 6.3497092,26.026019 22.454843,10.719325 48.873661,7.0982228 c 6.990286,-0.9581252 17.647694,2.0974858 25.996662,7.4535642 8.907442,5.714355 18.274092,22.82897 18.404489,33.628434 0.161384,13.365624 -13.064379,39.81978 -19.907911,39.81978 -1.324962,0 -5.024544,1.186823 -8.221294,2.637384 -6.118748,2.776451 -22.835618,3.527003 -31.145606,1.398373 z m 19.333334,-9.785419 c 0,-2.093807 -27.099877,-30.03085 -32.333334,-33.332173 -5.372033,-3.388736 -4.657475,-0.139192 1.333333,6.063511 17.044672,17.647538 28.711873,29.018324 29.774775,29.018324 0.673874,0 1.225226,-0.787348 1.225226,-1.749662 z m 14.666667,-6.975423 c 0,-1.045571 -2.941831,-4.160161 -6.5374,-6.921311 -3.595571,-2.761148 -7.190589,-6.387565 -7.988927,-8.058704 -0.79834,-1.671139 -3.441046,-4.212279 -5.872679,-5.646977 -2.431635,-1.4347 -5.693223,-4.867406 -7.247972,-7.628234 -2.935367,-5.212441 -8.197192,-10.481405 -13.334931,-13.353023 -4.012528,-2.242706 -4.351426,-2.140904 -4.351426,1.30715 0,3.092828 13.832811,16.964536 16.957418,17.0051 0.893245,0.0116 2.393245,1.465339 3.333334,3.23054 2.019746,3.792476 15.392399,18.123878 16.911417,18.123878 0.578159,0 2.124379,1.18585 3.436044,2.635225 2.525558,2.790709 4.695122,2.470184 4.695122,-0.693644 z m -38.666707,1.058419 c -2.2e-5,-0.55 -2.100022,-2.675579 -4.666666,-4.72351 -5.133492,-4.09602 -6.365836,-2.257084 -1.767543,2.637575 2.793272,2.973301 6.434289,4.1537 6.434209,2.085935 z M 73.312918,62.333334 c -0.02997,-2.446824 -2.362879,-5.727814 -3.36216,-4.728533 -1.165799,1.165797 0.583355,6.3952 2.139095,6.3952 0.683914,0 1.234294,-0.75 1.223065,-1.666667 z M 62.666668,52.206652 c 0,-0.619676 -1.2,-2.21267 -2.666666,-3.539985 -1.466667,-1.327314 -2.666667,-2.90795 -2.666667,-3.512522 0,-1.054456 -5.610974,-6.468167 -16.378115,-15.802318 -5.184139,-4.494187 -7.635886,-4.603459 -5.498003,-0.24504 1.295385,2.640854 24.538131,24.074751 26.209451,24.169723 0.55,0.03125 1,-0.450184 1,-1.069858 z m 17.949145,-3.206651 c -1.248455,-5.82091 -1.648299,-6.333334 -4.941899,-6.333334 -1.559456,0 -4.181157,-1.264296 -5.826001,-2.809548 -1.644844,-1.54525 -3.615106,-2.59525 -4.378357,-2.333333 -1.548653,0.531437 12.732801,15.809548 14.778222,15.809548 0.765535,0 0.916416,-1.776513 0.368035,-4.333333 z m -18.672638,-16 C 61.084204,30.14689 51.114348,20.177051 49.000001,20.05685 c -2.575369,-0.14641 -0.43902,3.576676 5.333334,9.294578 7.192625,7.124777 8.903337,7.944986 7.60984,3.648573 z"
       id="path1101" />
  </g>
</svg>
