<?xml version="1.0" encoding="UTF-8" standalone="no"?>
<!-- Created with Inkscape (http://www.inkscape.org/) -->

<svg
   version="1.1"
   id="svg195"
   width="150.66667"
   height="210.66667"
   viewBox="0 0 150.66667 210.66667"
   xmlns="http://www.w3.org/2000/svg"
   xmlns:svg="http://www.w3.org/2000/svg">
  <defs
     id="defs199" />
  <g
     id="g201">
    <path
       style="fill:#000000;stroke-width:1.33333"
       d="m 89.666669,205.08374 c -6.01739,-2.99112 -2.551372,-8.07983 7,-10.2772 12.627161,-2.905 28.666671,-10.17779 28.666671,-12.99832 0,-1.10259 -1.46318,-6.36343 -3.25151,-11.69076 -3.17115,-9.44671 -4.81784,-12.57747 -13.74849,-26.13935 C 105.95,140.35884 104,136.87615 104,136.23879 c 0,-0.63735 -1.2,-2.2448 -2.66666,-3.57212 -1.466671,-1.32732 -2.666671,-3.22031 -2.666671,-4.20665 0,-0.98634 -0.827208,-1.79335 -1.83824,-1.79335 -1.896742,0 -4.062063,4.35027 -5.641095,11.33333 -1.124715,4.97391 -7.964295,18.8321 -9.878188,20.01495 -0.779459,0.48173 -2.87113,3.07544 -4.648159,5.7638 -1.777028,2.68836 -5.019697,7.41075 -7.205933,10.4942 -4.271045,6.02387 -8.121719,15.92092 -8.121719,20.87456 0,5.65748 -8.095402,10.68912 -13.421646,8.34212 -1.148572,-0.50612 -9.019213,-0.36636 -17.490315,0.31056 C 9.1446491,205.50042 5.4013031,204.59151 5.3537505,197.71358 5.3283332,194.03727 8.9642178,192 15.550728,192 c 2.782655,0 8.972101,-1.44782 13.754323,-3.21738 4.782222,-1.76956 10.884661,-3.58544 13.560973,-4.03528 5.918196,-0.99475 6.147049,-1.26402 13.100665,-15.414 13.671417,-27.82011 21.756711,-43.48314 23.402557,-45.33601 0.978398,-1.10147 3.570159,-5.99504 5.759467,-10.8746 C 91.810502,98.230286 98.449436,99.597948 108.80403,118 c 1.23791,2.2 4.94206,7 8.23144,10.66667 3.28938,3.66667 7.32849,9.66667 8.9758,13.33333 1.6473,3.66667 4.48829,9.96667 6.31331,14 1.82501,4.03334 3.77345,9.43334 4.32986,12 0.5564,2.56667 3.03678,8.7017 5.51194,13.63339 4.95109,9.86492 5.21828,11.332 2.96461,16.27825 -2.00916,4.40962 -5.66901,5.44432 -11.93847,3.37522 -4.45832,-1.47138 -6.05334,-1.33938 -12.80915,1.06001 -9.36438,3.32585 -26.466307,4.84964 -30.716701,2.73687 z M 41.343361,57.541389 C 35.062638,56.791197 33.769058,56.140621 32.257002,52.971616 30.759953,49.834061 30.826474,48.132717 32.697902,41.69523 37.284762,25.916986 45.299904,15.700719 58.666668,8.5948981 69.051516,3.074275 90.807129,6.6326196 101.23338,15.557103 c 5.54427,4.745684 13.42966,15.411349 13.43827,18.176407 0.003,0.879903 1.20274,3.564325 2.66667,5.965384 2.98129,4.889759 3.54071,13.911727 0.99369,16.025564 -1.96316,1.629276 -65.922461,3.138714 -76.988649,1.816931 z M 99.000002,45.113151 c 5.043458,-1.098248 6.333338,-1.934926 6.333338,-4.10813 0,-4.233872 -8.963561,-16.722478 -14.751526,-20.552771 -4.846559,-3.207302 -6.041319,-3.407195 -17.181354,-2.874583 -11.720433,0.56036 -12.106965,0.686175 -18.353188,5.973865 -7.268923,6.153448 -10.370818,10.971805 -11.608378,18.031977 -0.857037,4.889324 -0.833626,4.919825 4.182956,5.450197 8.478685,0.896396 44.651444,-0.455769 51.378152,-1.920555 z"
       id="path223" />
  </g>
</svg>
