<?xml version="1.0" encoding="UTF-8" standalone="no"?>
<!-- Created with Inkscape (http://www.inkscape.org/) -->

<svg
   version="1.1"
   id="svg185"
   width="138.66667"
   height="212"
   viewBox="0 0 138.66667 212"
   xmlns="http://www.w3.org/2000/svg"
   xmlns:svg="http://www.w3.org/2000/svg">
  <defs
     id="defs189" />
  <g
     id="g191">
    <path
       style="fill:#000000;stroke-width:1.33333"
       d="M 71.562714,204.33333 C 70.720591,202.91721 69.409607,180.73601 68.509036,152.66667 68.08553,139.46667 67.471195,120.26667 67.143848,110 66.8165,99.733333 66.614782,87.089633 66.695584,81.902889 66.794478,75.554995 66.268974,72.013268 65.087916,71.067685 64.122896,70.295068 57.034296,69.230115 49.335471,68.701124 41.636646,68.172132 34.436646,67.281437 33.33547,66.721801 32.234295,66.162165 29.110399,65.362932 26.393481,64.945728 22.338437,64.323045 21.311226,64.63584 20.65861,66.692051 19.009742,71.887175 9.8216101,71.541797 8.7513995,66.244467 8.4279274,64.643343 7.8047529,57.780393 7.3665671,50.993468 6.585733,38.899363 6.6338574,38.624445 9.7829421,37.189627 c 4.3909419,-2.000647 8.8837249,0.455837 8.8837249,4.857285 0,3.813529 0.261219,3.889963 5.066214,1.482396 3.054225,-1.530335 10.237316,-3.116783 37.933787,-8.378003 l 3.666667,-0.69652 V 21.989297 c 0,-12.7077241 1.42228,-16.6559637 6,-16.6559637 4.558065,0 6,3.95614 6,16.4617977 v 12.27132 l 16.333334,2.48183 c 8.983331,1.365008 18.706621,3.316939 21.607311,4.337627 6.30537,2.21872 8.37207,1.648495 8.95594,-2.471043 0.30627,-2.160898 1.43261,-3.184722 3.77008,-3.426932 6.3715,-0.660213 7.09759,0.99482 7.44867,16.978034 0.32389,14.745597 0.30033,14.872236 -3.05109,16.399244 -2.94308,1.340957 -3.70035,1.140194 -5.88754,-1.560871 C 125.12952,65.099469 124,62.871047 124,61.852288 c 0,-2.477997 -1.29408,-2.345881 -8.88232,0.906819 -3.5402,1.517509 -12.73995,3.681414 -20.443872,4.80868 -7.703927,1.127266 -14.245366,2.273894 -14.536533,2.548065 -0.538822,0.507369 -0.189561,34.169228 0.455324,43.884148 0.194718,2.93333 0.831542,24.01379 1.415166,46.84545 1.054292,41.24447 1.043208,41.52172 -1.718992,43 -3.181756,1.70283 -7.848414,1.96375 -8.726059,0.48788 z M 65.333335,57.5 c 0,-0.641667 -0.391377,-3.123551 -0.869727,-5.515297 L 63.593883,47.636072 53.316055,48.42864 c -10.100275,0.778877 -17.316054,2.911899 -17.316054,5.118713 0,0.615623 1.05,1.153179 2.333333,1.19457 1.283334,0.04139 4.433334,0.869805 7,1.84092 5.30957,2.00891 20.000001,2.682581 20.000001,0.917157 z m 28.000001,-0.81156 c 3.3,-0.419204 8.278874,-1.548169 11.064154,-2.508812 4.21177,-1.452635 4.73919,-2.016315 3.13351,-3.348917 -2.14159,-1.777359 -25.399643,-4.755578 -28.336658,-3.628539 -1.903863,0.73058 -2.642033,8.905691 -0.956348,10.591376 0.497563,0.497561 2.747563,0.623953 5,0.280871 2.252437,-0.343083 6.795341,-0.966774 10.095342,-1.385979 z"
       id="path362" />
  </g>
</svg>
