<?xml version="1.0" encoding="UTF-8" standalone="no"?>
<!-- Created with Inkscape (http://www.inkscape.org/) -->

<svg
   version="1.1"
   id="svg175"
   width="100"
   height="209.33333"
   viewBox="0 0 100 209.33333"
   xmlns="http://www.w3.org/2000/svg"
   xmlns:svg="http://www.w3.org/2000/svg">
  <defs
     id="defs179" />
  <g
     id="g181">
    <path
       style="fill:#000000;stroke-width:1.33333"
       d="M 31.930967,199.87101 C 29.934641,196.14084 31.611125,181.39886 34.142101,180.42764 36.607681,179.4815 36.532093,176 34.045971,176 32.971255,176 30.250568,174.2 28,172 c -5.083716,-4.9695 -9.934907,-5.23407 -12.325112,-0.6722 -1.725773,3.29376 -1.789179,3.2381 -6.1975588,-5.44015 -3.5880209,-7.06329 -4.4886235,-10.46204 -4.6323051,-17.4816 -0.1595078,-7.79277 0.1582718,-8.94401 3.0068742,-10.89319 1.7518773,-1.19874 4.7518777,-3.69029 6.6666667,-5.53678 1.91479,-1.84648 5.131435,-4.41031 7.148102,-5.6974 2.016666,-1.28709 3.666666,-3.48278 3.666666,-4.87931 0,-3.35082 6.123352,-8.06075 10.513146,-8.08646 1.917769,-0.0112 4.277716,-0.52189 5.244325,-1.13481 2.845741,-1.80445 14.991421,1.08224 19.716176,4.68598 2.401024,1.83135 5.489509,5.53612 6.863301,8.23282 1.517196,2.9782 4.442766,5.86942 7.452006,7.36451 6.953873,3.45492 10.806416,11.18005 8.935329,17.91716 -0.756843,2.72512 -1.379424,7.16121 -1.383513,9.85799 -0.01,6.56104 -4.955304,10.63954 -12.370347,10.20202 -4.754384,-0.28053 -5.770657,0.2961 -11.091245,6.29296 -3.221506,3.63099 -5.601435,7.50179 -5.288732,8.60179 0.312702,1.1 0.966705,3.30775 1.453337,4.90609 0.735264,2.41499 0.0027,3.35615 -4.335361,5.56922 -2.871082,1.46472 -6.003476,3.60697 -6.960878,4.76057 -2.62291,3.16041 -10.321612,2.718 -12.14991,-0.6982 z m 23.137172,-31.75305 c 5.553714,-6.1473 6.962464,-8.62478 8.210897,-14.43996 l 0.927869,-4.32202 -6.127845,0.83992 c -4.838347,0.66316 -6.683865,0.33672 -8.770119,-1.55132 -5.59402,-5.0625 -1.941372,-9.97792 7.414615,-9.97792 4.66334,0 4.857612,-0.17628 4.040816,-3.66666 -0.471928,-2.01667 -2.928161,-5.61667 -5.458297,-8 -8.635706,-8.13465 -22.258138,-4.95402 -28.440234,6.64036 -1.84959,3.46886 -3.031772,6.63816 -2.627066,7.04285 0.404704,0.40471 3.477953,0.003 6.829444,-0.89396 5.79518,-1.54997 6.226248,-1.47045 8.801674,1.62381 C 45.416568,148.07713 42.639277,152 32.374597,152 c -7.060258,0 -7.08814,0.0164 -6.21615,3.66666 0.481756,2.01667 1.466654,4.41667 2.188662,5.33334 1.528823,1.941 4.986224,2.23817 4.986224,0.42857 0,-3.56437 4.194892,-5.28068 11.028986,-4.5124 7.491832,0.8422 10.304348,2.29295 10.304348,5.31512 0,2.26921 -7.734119,5.74591 -12.957175,5.8246 L 38,168.11177 l 4.666667,2.55489 c 6.412896,3.51091 7.044188,3.38118 12.401472,-2.5487 z M 15.979583,155.66666 C 15.968353,154.75 15.377541,153.1 14.666667,152 c -1.00718,-1.5585 -1.297007,-1.19059 -1.312916,1.66666 -0.01123,2.01667 0.579582,3.66667 1.312916,3.66667 0.733333,0 1.324145,-0.75 1.312916,-1.66667 z M 9.7955924,55.250136 C 5.6646513,51.119197 5.8376961,47.018554 10.718131,33.388729 15.31726,20.544522 17.196996,17.960601 22.749561,16.850088 25.043991,16.391201 27.286315,14.792161 28.105907,13.030385 31.213235,6.3509474 35.624348,4.666443 50,4.6695267 c 12.412065,0.00267 13.898972,0.2982754 21.519717,4.2783472 8.111387,4.2363181 10.855558,6.9146961 17.272826,16.8587101 6.248461,9.682435 9.185478,23.673795 6.018689,28.671824 -0.873035,1.377878 -6.695329,1.938443 -24.312916,2.340824 -12.74074,0.290995 -30.906967,0.761 -40.369391,1.044456 C 13.51904,58.361254 12.816394,58.270938 9.7955924,55.250136 Z M 78.333333,44.135309 c 4.957528,-0.1548 5.477488,-2.055186 2.263062,-8.271202 C 75.398747,25.812965 61.188136,17.316953 49.613863,17.340769 c -12.094746,0.02488 -26.024536,10.554017 -27.618482,20.87602 -0.726262,4.703093 -0.48608,5.622421 1.573779,6.023856 2.055229,0.400532 40.960108,0.3257 54.764173,-0.105334 z"
       id="path501" />
  </g>
</svg>
