<?xml version="1.0" encoding="UTF-8" standalone="no"?>
<!-- Created with Inkscape (http://www.inkscape.org/) -->

<svg
   version="1.1"
   id="svg165"
   width="276"
   height="249.33333"
   viewBox="0 0 276 249.33333"
   xmlns="http://www.w3.org/2000/svg"
   xmlns:svg="http://www.w3.org/2000/svg">
  <defs
     id="defs169" />
  <g
     id="g171">
    <path
       style="fill:#000000;stroke-width:1.33333"
       d="M 13.805905,241.60921 C 9.2629529,240.93453 6.3287168,236.55676 5.6441288,229.4321 4.8730021,221.40684 8.8118233,213.82101 14.443463,212.48534 16.399559,212.02142 18.9,210.91202 20,210.02004 c 3.666795,-2.97343 18.90516,-9.94595 23.147391,-10.5914 2.302269,-0.35031 6.326764,-0.97175 8.943324,-1.38102 l 4.757381,-0.74409 -0.194753,-13.65177 c -0.107114,-7.50847 0.56574,-17.55176 1.495229,-22.31843 1.623997,-8.32828 4.601304,-30.78714 7.247005,-54.66666 0.690615,-6.23334 2.725019,-15.233338 4.520899,-20.000004 1.79588,-4.766667 4.290907,-11.966667 5.544504,-16 1.253597,-4.033334 2.718428,-7.933334 3.25518,-8.666667 0.536752,-0.733333 1.406076,-3.34346 1.931831,-5.800281 0.525754,-2.456821 2.695037,-7.043836 4.820629,-10.193367 2.125592,-3.149529 3.864713,-6.368525 3.864713,-7.153322 0,-0.784799 1.676366,-3.397784 3.725256,-5.806635 2.048892,-2.40885 4.683778,-5.909241 5.855302,-7.778645 1.171529,-1.869405 4.745159,-4.476823 7.941409,-5.794261 3.19625,-1.317439 8.33328,-3.516482 11.41561,-4.886762 7.5923,-3.375222 30.88021,-7.9200594 40.58266,-7.9200594 9.99434,0 15.08214,2.1437331 23.2764,9.8074664 3.59519,3.362411 8.22858,6.821401 10.29643,7.686647 2.89911,1.213065 5.06629,4.350477 9.46763,13.706195 7.56248,16.075258 7.11504,14.481655 10.09828,35.965689 2.21537,15.9542 2.51925,23.930815 1.98741,52.167336 -0.34531,18.33333 -0.91051,38.5498 -1.25599,44.92546 l -0.62817,11.59214 5.61889,0.67957 c 3.09039,0.37377 9.81888,1.01095 14.95222,1.41596 14.75362,1.16405 29.24826,7.49472 34.1368,14.90959 3.1832,4.82824 3.33513,14.73424 0.29262,19.07804 -5.4722,7.81265 -9.89998,10.3573 -19.40922,11.15453 -10.25743,0.85995 -13.12819,-0.44388 -25.21028,-11.44987 -3.40454,-3.10132 -8.04775,-7.02877 -10.31826,-8.72768 -2.27049,-1.6989 -4.62809,-4.9989 -5.2391,-7.33333 -1.05803,-4.04225 -1.39216,-4.22765 -7.0151,-3.89259 -3.24726,0.1935 -8.30413,0.32466 -11.23746,0.29147 -2.93334,-0.0332 -19.13334,0.85592 -36,1.97579 -16.86667,1.11986 -33.96667,2.23766 -38,2.48397 -4.03334,0.24632 -14.23334,1.46652 -22.66667,2.71156 -8.433333,1.24503 -17.892592,2.58423 -21.020573,2.97599 -4.969904,0.62245 -6.333856,1.58452 -10.813784,7.62752 -6.786818,9.15476 -17.768476,19.27345 -23.529664,21.68062 -5.122355,2.14027 -18.355262,4.17502 -22.830074,3.51047 z m 12.766098,-15.24724 c 2.618732,-0.90092 7.16133,-3.02728 10.094664,-4.72524 2.933333,-1.69796 6.383333,-3.43083 7.666666,-3.85081 1.283334,-0.41999 2.333334,-1.34139 2.333334,-2.04756 0,-1.95452 -17.257048,0.0925 -22.666667,2.68866 -5.339147,2.56238 -6.617508,3.95488 -6.646249,7.23964 -0.02409,2.75328 2.64995,2.95499 9.218252,0.69531 z M 252.69063,207.89088 c 0.69618,-3.16966 0.25984,-4.79323 -1.90854,-7.10135 -2.51372,-2.67573 -4.04128,-2.98151 -14.44161,-2.89088 -9.65713,0.0841 -11.70243,0.4716 -12.05416,2.28351 -0.77524,3.99345 13.77351,11.53329 22.60773,11.7164 4.41416,0.0915 4.98256,-0.3015 5.79658,-4.00768 z M 97.333333,191.99468 c 4.033337,-0.69428 19.033337,-2.22715 33.333337,-3.40635 14.3,-1.17921 30.78425,-2.69399 36.63169,-3.36617 C 173.14579,184.54997 182.59815,184 188.3036,184 h 10.37355 l -0.66312,-17 c -0.36472,-9.35 -0.97552,-33.8 -1.35732,-54.33333 -0.38182,-20.533338 -1.25592,-39.733338 -1.94248,-42.666671 -1.53643,-6.56452 -4.39014,-12.577702 -10.23148,-21.55929 C 182.01724,44.649766 180,41.012602 180,40.358121 c 0,-0.654482 -1.87103,-2.573279 -4.15785,-4.263996 -3.36456,-2.487535 -4.37822,-2.726164 -5.31291,-1.250744 -0.63529,1.002807 -1.16427,2.230711 -1.17549,2.728674 -0.0107,0.497963 -3.28988,1.855847 -7.28588,3.017518 -3.99602,1.161672 -7.59662,2.647918 -8.00134,3.302772 -1.0696,1.730642 -6.26952,0.158917 -9.68058,-2.926051 -4.34146,-3.926406 -11.03228,-2.384465 -18.61474,4.289876 -4.88802,4.302604 -7.18674,5.410496 -11.22601,5.410496 -3.30871,0 -5.50335,-0.757623 -6.29563,-2.173348 -1.00642,-1.79838 -1.97812,-1.050753 -5.63211,4.333333 -2.42871,3.578675 -5.678191,8.04464 -7.221065,9.924367 -2.994528,3.648316 -3.948551,6.407532 -9.421571,27.248981 -1.925752,7.333333 -4.048973,14.833331 -4.718268,16.666671 -0.669295,1.83333 -1.508625,5.73333 -1.865181,8.66666 -0.607114,4.99464 -1.608463,10.04234 -4.893312,24.66667 -0.741231,3.3 -1.669674,10.8 -2.063207,16.66666 -0.393532,5.86667 -1.185961,11.26667 -1.760953,12 -0.574992,0.73334 -1.482839,6.97552 -2.017435,13.87152 l -0.971995,12.5382 11.157764,-0.90968 C 84.979007,193.66637 93.3,192.68897 97.333333,191.99468 Z M 117.29227,39.865377 c 7.87678,-4.105605 7.1263,-7.086051 -0.8962,-3.559183 -3.72015,1.63546 -5.67032,3.466576 -5.70899,5.360472 -0.0301,1.476563 0.69688,1.278297 6.60519,-1.801289 z m 49.12352,-12.850065 c -0.55787,-2.89674 -5.08246,-3.986559 -5.08246,-1.224188 0,1.831977 1.73604,3.17852 4.4311,3.436946 0.60377,0.05789 0.89688,-0.937846 0.65136,-2.212758 z"
       id="path640" />
  </g>
</svg>
