<?xml version="1.0" encoding="UTF-8" standalone="no"?>
<!-- Created with Inkscape (http://www.inkscape.org/) -->

<svg
   version="1.1"
   id="svg75"
   width="209.33333"
   height="218.66667"
   viewBox="0 0 209.33333 218.66667"
   xmlns="http://www.w3.org/2000/svg"
   xmlns:svg="http://www.w3.org/2000/svg">
  <defs
     id="defs79" />
  <g
     id="g81">
    <path
       style="fill:#000000;stroke-width:1.33333"
       d="m 140.24905,209.66667 c -0.64796,-1.28333 -1.11907,-30.27977 -1.04692,-64.43653 l 0.1312,-62.103215 3.67609,-4.820194 c 8.59944,-11.275819 30.82959,-7.760814 33.52006,5.300153 0.4222,2.049548 1.10901,19.474166 1.52628,38.721376 l 0.75864,34.99493 -3.45646,1.57487 c -6.82425,3.10934 -7.34285,0.92812 -7.83697,-32.9621 -0.27824,-19.08463 -1.05519,-32.509091 -2.06429,-35.667989 -3.08036,-9.642755 -12.10454,-9.588718 -14.70228,0.08804 -1.20606,4.49257 -0.9329,60.985499 0.4979,102.977329 0.26238,7.7 -0.0832,15.05 -0.76788,16.33333 -0.7512,1.40796 -2.79406,2.33333 -5.15109,2.33333 -2.38248,0 -4.36572,-0.91017 -5.08428,-2.33333 z m -72.066434,-0.77996 c -0.831253,-1.0016 -1.699132,-8.86477 -1.98467,-17.98153 -0.525047,-16.76384 -1.331462,-19.33184 -6.809818,-21.68556 -1.496804,-0.6431 -5.721462,-2.91746 -9.388129,-5.05414 -5.026701,-2.92921 -6.773789,-4.77397 -7.102134,-7.49914 -0.343442,-2.8505 1.855821,-41.3752 4.52889,-79.333005 0.419368,-5.955066 2.750647,-12.000001 4.627899,-12.000001 4.933888,0 16.558306,9.741386 19.692257,16.502321 3.04325,6.565265 4.089597,24.068115 5.042949,84.356405 0.564127,35.67425 0.394876,40.43273 -1.505719,42.33333 -2.607458,2.60745 -5.130846,2.73584 -7.101525,0.36132 z M 65.38717,146.33334 c 0.296945,-7.51667 0.382046,-24.16667 0.189114,-37.00001 -0.341937,-22.744814 -0.43304,-23.416179 -3.61202,-26.618177 -2.091526,-2.106672 -3.72168,-2.824012 -4.544992,-2 -1.410894,1.412094 -5.419273,46.998357 -5.419273,61.632007 0,7.83438 0.441976,9.58828 3,11.905 2.984725,2.70316 7.646388,5.62996 9.090303,5.7073 0.416333,0.0223 0.999924,-6.10946 1.296868,-13.62612 z M 34.489281,39.053349 C 32.59443,37.007341 29.915341,33.233334 28.535748,30.666667 23.356642,21.031187 21.415874,20.849074 18.620205,29.736235 15.586233,39.380941 9.804577,43.196574 6.7820331,37.548898 4.9565819,34.138011 6.0355842,30.349139 12.442936,17.670864 c 8.0157,-15.8607224 10.137936,-15.973355 20.22373,-1.073326 4.154892,6.138137 7.146148,9.38575 7.939289,8.619702 0.699943,-0.676034 3.399943,-5.276472 6,-10.223196 3.826634,-7.2803383 5.404208,-9.0723268 8.279591,-9.404896 2.487224,-0.2876747 3.784354,0.3119448 4.32651,2 1.146719,3.570418 10.57236,16.783436 12.409478,17.395808 0.884865,0.294955 3.648562,-3.564093 6.245314,-8.720554 5.709823,-11.3381935 8.670232,-12.6817587 14.350384,-6.5128409 2.151508,2.3366419 5.014804,6.7210099 6.36288,9.7430389 1.348074,3.022031 3.081718,5.884378 3.852538,6.36077 1.40559,0.868705 7.25633,-6.746 11.41409,-14.85537 1.54054,-3.004704 3.1699,-4.3333332 5.31418,-4.3333332 3.64571,0 5.56256,2.0345753 11.61968,12.3333332 2.48,4.216667 5.1189,7.662567 5.86424,7.657556 C 138.15456,26.647423 144,18.583843 144,16.511383 c 0,-0.727981 2.07238,-3.586122 4.6053,-6.351422 3.2641,-3.5635585 5.17692,-4.7072896 6.56807,-3.9272225 2.12261,1.190218 7.55183,8.7678355 10.84565,15.1373895 3.33172,6.442847 6.14891,5.049783 10.87407,-5.377117 3.26409,-7.2027733 4.85796,-9.3263442 7,-9.3263442 3.65881,0 7.26569,3.7619382 11.36721,11.8558882 1.84326,3.637496 4.46472,6.966989 5.82548,7.398876 1.57442,0.4997 2.94975,2.863856 3.78212,6.501337 1.72206,7.525386 1.0894,8.910566 -4.06973,8.910566 -4.04257,0 -4.60099,-0.605976 -8.90797,-9.666667 C 189.36004,26.343915 186.44202,22 185.39662,22 c -1.0442,0 -3.87844,4.025051 -6.2983,8.944559 -4.78826,9.734307 -8.11051,12.643812 -11.42296,10.003779 -2.62722,-2.093887 -11.27307,-14.913683 -12.35323,-18.316942 -1.38129,-4.352106 -3.24296,-3.033142 -7.10708,5.035271 -7.81027,16.30811 -10.2428,17.2827 -17.94107,7.188062 -2.71736,-3.563234 -4.94065,-7.070241 -4.94065,-7.79335 0,-1.42462 -4.32359,-5.728045 -5.75489,-5.728045 -0.48304,0 -2.93519,4.084536 -5.44923,9.076746 -5.73203,11.382302 -7.70957,13.179583 -12.23345,11.118366 -1.84723,-0.841655 -4.108111,-3.179868 -5.024184,-5.196029 -2.84914,-6.270599 -6.798397,-12.262315 -8.522672,-12.930387 -1.668865,-0.646604 -8.348905,7.93671 -8.348905,10.727672 0,3.078531 -5.577043,8.536965 -8.722469,8.536965 -2.400344,0 -4.304336,-1.741996 -7.650959,-7 -2.450455,-3.85 -4.850061,-8.05 -5.332459,-9.333333 -1.6554,-4.403896 -4.749692,-2.321503 -9.906205,6.666667 -5.944494,10.361678 -8.769216,11.591946 -13.898626,6.053348 z"
       id="path779" />
  </g>
</svg>
