<?xml version="1.0" encoding="UTF-8" standalone="no"?>
<!-- Created with Inkscape (http://www.inkscape.org/) -->

<svg
   version="1.1"
   id="svg185"
   width="322.66666"
   height="218.66667"
   viewBox="0 0 322.66666 218.66667"
   xmlns="http://www.w3.org/2000/svg"
   xmlns:svg="http://www.w3.org/2000/svg">
  <defs
     id="defs189" />
  <g
     id="g191">
    <path
       style="fill:#000000;stroke-width:1.33333"
       d="m 18.333333,209.18602 c -2.829655,-1.59899 -3.053321,-6.94222 -0.401601,-9.59394 1.504513,-1.50452 4.527009,-1.78554 13.666666,-1.27072 13.776066,0.776 13.809325,0.75323 19.718006,-13.50406 3.47616,-8.38776 3.670475,-9.68796 2.244603,-15.01914 -0.858555,-3.21004 -1.561008,-7.82554 -1.561008,-10.25668 0,-4.10426 -5.775117,-22.5257 -8.007252,-25.54148 -0.542779,-0.73333 -4.746825,-8.71489 -9.342328,-17.7368 L 26.294962,99.85973 27.130959,89.596532 c 0.459799,-5.644759 0.473454,-11.613197 0.03034,-13.263198 -1.010895,-3.764253 -4.927084,-3.902184 -9.464141,-0.333333 -1.864565,1.466667 -5.088092,2.666667 -7.163394,2.666667 -4.9226408,0 -7.0156235,-3.868618 -5.8441922,-10.80226 0.7425143,-4.394904 1.7459887,-5.705859 6.0472152,-7.900182 2.836336,-1.44699 6.641818,-2.630892 8.456626,-2.630892 1.814808,0 4.988712,-0.713184 7.053117,-1.584854 3.240945,-1.36845 10.184264,-2.276697 30.861927,-4.037011 4.083357,-0.34762 4.602155,0.05224 6.429011,4.955199 1.092969,2.933333 2.15569,9.233333 2.361601,14 0.504845,11.686691 2.095712,14.926756 9.912126,20.187693 7.548526,5.080632 20.1888,16.702189 20.1888,18.561719 0,0.67862 2.424715,2.99032 5.388255,5.13709 5.01951,3.63612 11.94508,12.1451 11.94508,14.67612 0,0.61097 0.9519,1.90086 2.11533,2.86643 1.16343,0.96556 4.48493,6.28903 7.38112,11.82992 9.97903,19.0916 15.59219,27.17243 25.6815,36.97164 10.17464,9.8821 13.03509,15.03903 10.52549,18.97576 -0.74575,1.16983 -3.08409,2.12696 -5.19633,2.12696 -2.20491,0 -5.11807,1.27763 -6.84044,3 -2.42171,2.42171 -4.47787,2.99626 -10.66667,2.9806 -8.47653,-0.0215 -18.81986,-3.01689 -21.21428,-6.14366 -1.34052,-1.75055 -1.66801,-1.64162 -2.44742,0.81409 -0.4949,1.55928 -2.49847,3.45301 -4.45239,4.20828 -1.98526,0.76739 -19.729102,1.61884 -40.219244,1.92993 -20.166667,0.3062 -39.066666,0.8174 -42,1.13602 -2.933333,0.3186 -6.383333,-0.014 -7.666666,-0.73924 z m 94.284347,-13.51935 c -1.36048,-4.55848 -4.48321,-9 -6.32769,-9 -0.90669,0 -2.43237,1.25513 -3.3904,2.78917 -1.71992,2.75403 -3.801233,2.82774 -10.226385,0.36218 -1.774026,-0.68076 -2.147258,-0.19558 -1.790535,2.32764 0.404451,2.86081 1.321435,3.28372 8.942797,4.12426 4.670673,0.51512 8.820673,1.26512 9.222223,1.66667 0.40155,0.40155 1.57052,0.73008 2.59771,0.73008 1.3132,0 1.60183,-0.89059 0.97228,-3 z M 78.619753,194.75432 C 80.663926,190.93475 80.364565,184 78.155506,184 c -1.014469,0 -2.158298,1.2 -2.54184,2.66667 -0.789264,3.01815 -6.07885,3.66815 -8.680334,1.06667 -2.119384,-2.11939 -3.978343,-0.17496 -5.075,5.30833 l -0.858333,4.29167 h 8.119754 c 6.663156,0 8.367357,-0.46266 9.5,-2.57902 z m 55.979907,-0.42098 c -0.0368,-0.91667 -2.30431,-5.82484 -5.0388,-10.90707 -5.08153,-9.44436 -7.41394,-11.43416 -18.56086,-15.83441 -6.5787,-2.59696 -7.13305,-1.46159 -2,4.09622 4.52135,4.89551 9.66666,11.88536 9.66666,13.13208 0,2.33515 6.96996,9.71983 9.66347,10.23844 5.47857,1.05487 6.33711,0.95555 6.26953,-0.72526 z M 91.999998,172.60046 c 0,-0.40308 -0.9531,-2.57598 -2.118001,-4.82864 -1.400416,-2.70811 -1.829749,-5.63228 -1.267205,-8.6309 0.743774,-3.96466 0.314579,-4.99252 -3.412043,-8.17136 -5.116016,-4.364 -9.272536,-6.85814 -11.536084,-6.9223 -2.674616,-0.0759 -1.971633,1.60774 3.007139,7.2018 2.569445,2.88698 5.223805,7.24854 5.898577,9.69237 2.228463,8.07083 4.699515,12.39191 7.086432,12.39191 1.287652,0 2.341185,-0.3298 2.341185,-0.73288 z m -22.674102,-6.93379 c -0.0284,-3.81931 -3.110812,-11 -4.721903,-11 -2.50729,0 -2.442884,1.51603 0.309622,7.28809 2.028094,4.25296 4.431338,6.27474 4.412281,3.71191 z M 116,153.53667 c 0,-3.10216 -19.521293,-26.66788 -33.532627,-40.47993 L 66.632216,97.446808 60.64944,101.48453 c -3.290525,2.22075 -5.982774,4.97417 -5.982774,6.11871 0,1.14453 2.572978,4.55202 5.717731,7.5722 10.076455,9.67728 27.891859,25.453 30.121997,26.67332 1.188148,0.65015 3.437796,2.33666 4.999216,3.74779 C 102.28416,151.72264 116,157.03656 116,153.53667 Z M 48.165842,95.730812 c 6.454225,-5.442283 6.617744,-5.756896 5.717164,-11 -0.509903,-2.968612 -0.85601,-7.465519 -0.769126,-9.993124 0.197535,-5.74663 -2.973825,-9.404354 -8.153865,-9.404354 -3.661053,0 -3.901473,0.292716 -3.18456,3.877278 0.4265,2.132502 0.257209,5.684294 -0.376201,7.892871 -2.184777,7.617872 -3.186973,24.229847 -1.46178,24.229847 0.87126,0 4.574025,-2.52113 8.228368,-5.602518 z M 226.04488,206.1977 c -2.14783,-1.57054 -2.361,-3.04031 -1.6577,-11.42939 0.44391,-5.29491 0.30143,-10.95711 -0.31661,-12.58269 -1.47997,-3.89262 -10.97175,-8.47742 -19.83211,-9.57948 -4.56289,-0.56754 -7.3777,-1.61955 -7.88744,-2.94787 -0.83484,-2.17557 1.15526,-29.76484 6.58411,-91.277731 1.88627,-21.372765 3.26005,-24.790586 9.35008,-23.262085 4.27461,1.07286 12.14059,7.299298 15.43129,12.21488 3.52035,5.25863 5.2258,22.99917 6.21659,64.666666 0.25284,10.63334 0.90596,31.41694 1.45137,46.18578 0.97196,26.31865 0.93667,26.88186 -1.77541,28.33333 -3.56569,1.90829 -4.57343,1.86548 -7.56417,-0.32141 z m -3.47106,-45.28686 c 1.6783,-4.41424 1.75943,-68.755903 0.0964,-76.483296 -3.13196,-14.553322 -7.18764,-16.503308 -8.51534,-4.094209 -2.795,26.122835 -4.87252,51.393325 -5.24943,63.852685 l -0.42913,14.18601 5.42848,2.73127 c 6.9587,3.5012 7.26726,3.49434 8.66897,-0.19246 z m 82.64483,42.87488 c -0.95275,-1.78021 -1.30292,-6.60385 -0.91651,-12.62489 0.55516,-8.65061 0.31148,-10.02915 -2.17175,-12.28576 -4.39657,-3.99537 -8.15576,-5.53087 -17.81285,-7.27589 l -8.98421,-1.62346 -0.44288,-8.65452 c -0.24358,-4.76 0.48604,-18.55453 1.62137,-30.65453 2.4244,-25.83838 4.83563,-60.657324 4.82735,-69.708516 -0.007,-7.274901 1.4034,-8.407624 8.75041,-7.029316 5.15031,0.966202 14.34975,8.450935 17.17164,13.970962 2.58517,5.056961 4.55748,29.410388 6.83563,84.40395 1.46725,35.41876 1.62932,49.71655 0.58565,51.66667 -1.94287,3.63028 -7.47997,3.52221 -9.46385,-0.1847 z M 302.55342,127 c 0.10189,-38.25182 -0.80905,-46.770905 -5.81883,-54.416779 -3.63989,-5.55518 -4.7346,-3.750945 -4.7346,7.803315 0,6.079261 -0.89306,14.481895 -1.98458,18.67252 -1.09151,4.190624 -1.94154,8.966684 -1.88892,10.613464 0.19388,6.06886 -1.24908,31.20954 -2.1826,38.02776 -0.7922,5.78599 -0.54035,7.50066 1.41985,9.66667 1.31059,1.44817 3.12131,2.63305 4.02383,2.63305 0.90252,0 3.35952,0.89631 5.46001,1.99179 2.10049,1.09548 4.22143,1.99548 4.71319,2 0.49174,0.004 0.93845,-16.64179 0.99265,-36.99179 z m 3.75061,-90.219771 c -1.03754,-1.037543 -2.6532,-3.737543 -3.59033,-6.000001 -2.19644,-5.302681 -4.24129,-5.192013 -8.55456,0.462972 -5.38224,7.056474 -8.55192,7.405609 -13.51913,1.489106 l -4.15667,-4.951056 -3.64285,4.776041 c -5.0273,6.591114 -9.10067,6.42305 -13.50716,-0.557291 -1.85174,-2.933333 -3.88192,-5.333333 -4.51152,-5.333333 -0.62962,0 -2.57208,2.0959 -4.31662,4.657556 -4.02445,5.909492 -7.78269,6.00761 -13.11683,0.342444 l -4.08015,-4.333333 -3.41741,4.333333 C 225.20244,37.611581 219.14492,37.769858 217.13354,32 c -1.77094,-5.08014 -3.849,-5.059148 -7.64649,0.07724 -2.43885,3.298733 -3.82332,3.998847 -7.25075,3.666667 -3.17605,-0.307817 -4.33976,-1.13717 -4.64968,-3.313747 -0.82254,-5.77668 -3.63122,-6.164101 -7.53958,-1.039982 -4.62195,6.059685 -9.34628,5.949412 -12.68079,-0.295987 l -2.26333,-4.239143 -3.84799,3.572476 c -4.39709,4.08227 -12.19399,7.178029 -15.49145,6.150891 -1.23008,-0.383162 -3.45984,-2.770053 -4.95503,-5.304204 -3.42343,-5.802273 -5.84093,-5.821107 -9.39336,-0.07317 -1.54131,2.493904 -3.54025,4.815063 -4.44208,5.158132 -2.709,1.030551 -7.34194,-1.331923 -9.7153,-4.954114 -2.92424,-4.462961 -3.81548,-4.308036 -7.25771,1.261611 -1.58629,2.566667 -3.82739,4.666667 -4.98023,4.666667 -1.15284,0 -4.31173,-2.4 -7.01977,-5.333334 -5.00595,-5.422417 -8.000002,-6.756922 -8.000002,-3.565752 0,2.680887 -5.803985,7.565753 -8.989297,7.565753 -1.575622,0 -4.351875,-1.909956 -6.298797,-4.333334 l -3.481371,-4.333333 -3.798404,4.436389 c -4.531847,5.293024 -10.55654,5.559379 -12.748301,0.563611 -1.621013,-3.694839 -3.545536,-3.801108 -6.653024,-0.367372 -1.310372,1.447944 -3.480701,2.981184 -4.822953,3.407199 -2.992139,0.949668 -7.874519,-1.482979 -7.874519,-3.923479 0,-0.984406 -0.859858,-2.503448 -1.910797,-3.375651 -1.537765,-1.276231 -2.331349,-0.943979 -4.064998,1.701903 -1.18481,1.808249 -3.958786,4.035209 -6.16439,4.9488 -3.788776,1.569363 -4.21674,1.413664 -7.751121,-2.819956 l -3.74093,-4.481031 -3.262007,3.792309 c -7.310225,8.498645 -14.2694558,-3.83929 -7.078503,-12.549389 0.908147,-1.1 2.654946,-3.980956 3.881775,-6.402125 C 19.25385,4.3477998 27.007289,3.9651113 30.167219,11.527892 31.194931,13.987551 32.668026,16 33.440762,16 c 0.772737,0 3.385532,-2.1 5.806209,-4.666666 5.335021,-5.6567704 7.960355,-5.8442222 12.316876,-0.879439 l 3.323235,3.787228 3.787227,-3.787228 c 4.798278,-4.7982776 6.67189,-4.7583818 9.992356,0.212772 3.332536,4.989221 5.090328,5.022504 8.551372,0.161916 2.793755,-3.9234662 6.800041,-5.8274223 9.114987,-4.3318258 0.712189,0.4601169 2.294016,2.7865763 3.515171,5.1699098 2.029642,3.961259 6.151803,6.040028 6.151803,3.1023 0,-2.383891 6.813742,-9.2955038 8.518832,-8.6411982 0.94941,0.3643246 3.05947,3.0346185 4.689,5.9339862 1.62954,2.899368 3.80649,5.271579 4.83767,5.271579 1.03118,0 3.24279,-2.395379 4.91468,-5.323064 4.04544,-7.0840317 7.15939,-6.9176407 13.54689,0.723866 l 5.07178,6.06747 3.84788,-6.06747 c 5.777,-9.1093842 11.32235,-8.0954185 16.03795,2.932531 2.47154,5.779984 6.49994,5.572133 8.37094,-0.431909 0.47395,-1.520884 2.68171,-4.508904 4.90615,-6.6400443 3.84845,-3.6870612 4.21917,-3.777029 7.65132,-1.8568665 1.9838,1.1098637 3.80344,3.3845728 4.04365,5.0549088 0.7374,5.127526 4.12439,5.028596 8.97124,-0.262038 2.45083,-2.6752281 5.33331,-4.8640512 6.40551,-4.8640512 1.0722,0 3.54595,1.8973253 5.49723,4.2162782 l 3.54776,4.216279 3.29138,-3.549612 c 4.34044,-4.680965 6.72775,-4.4778604 11.60876,0.987636 l 4.05204,4.537248 3.7697,-5.203914 c 4.52905,-6.2521672 6.69208,-6.4699363 11.9581,-1.203915 4.85975,4.859755 5.78941,4.931955 8.58415,0.666667 2.13056,-3.2516612 6.35934,-4.2968408 9.35801,-2.3129168 0.81433,0.5387705 2.49953,2.9678508 3.74488,5.3979548 2.51372,4.905171 4.98273,5.014259 6.10279,0.26964 0.40434,-1.712855 2.35356,-4.322579 4.33158,-5.7993865 3.06528,-2.2885642 4.1131,-2.4496829 7.09511,-1.090989 1.92428,0.8767631 4.17316,3.3809705 4.99751,5.5649065 1.32081,3.499237 4.91417,5.661587 4.91417,2.957167 0,-2.36307 7.01971,-8.3197099 9.80451,-8.3197099 5.42665,0 12.42642,9.7821349 13.71217,19.1626749 1.25615,9.164603 -3.06177,14.435092 -7.87931,9.617554 z"
       id="path213" />
  </g>
</svg>
