<?xml version="1.0" encoding="UTF-8" standalone="no"?>
<!-- Created with Inkscape (http://www.inkscape.org/) -->

<svg
   version="1.1"
   id="svg175"
   width="216"
   height="153.33333"
   viewBox="0 0 216 153.33333"
   xmlns="http://www.w3.org/2000/svg"
   xmlns:svg="http://www.w3.org/2000/svg">
  <defs
     id="defs179" />
  <g
     id="g181">
    <path
       style="fill:#000000;stroke-width:1.33333"
       d="m 34.760089,143.23602 c -2.300553,-2.62018 -5.695002,-7.15941 -7.543222,-10.08718 -3.982243,-6.30828 -6.091415,-6.10092 -7.821982,0.76902 -0.69948,2.77678 -2.923109,6.81643 -4.941398,8.97702 -3.092123,3.31012 -4.098499,3.6988 -6.3948857,2.46981 -1.7441577,-0.93344 -2.725268,-2.79648 -2.725268,-5.17504 0,-4.26433 10.4965947,-26.61769 13.7766617,-29.33854 3.111304,-2.58086 8.134136,-0.90395 10.079205,3.36501 C 31.690492,119.70586 38.654131,128 40.761944,128 c 1.029159,0 3.986284,-4.2 6.571389,-9.33334 6.965978,-13.83258 8.707423,-13.25604 21.143652,7 2.350223,3.82803 6.189682,4.98063 6.189682,1.85813 0,-2.91654 8.481658,-16.59458 10.666666,-17.20171 1.1,-0.30565 2.730938,-0.30974 3.624307,-0.009 C 91.277311,111.09467 100,123.29233 100,125.75545 c 0,1.79551 4.91951,4.60693 5.89044,3.36629 0.19588,-0.25029 2.67692,-4.80508 5.51343,-10.12174 5.8408,-10.94781 9.07658,-12.3561 13.78598,-6 9.7976,13.22348 12.63886,16.24873 14.11214,15.02602 0.85209,-0.70718 3.30773,-4.67741 5.45697,-8.82274 4.34239,-8.37536 9.03301,-12.41939 12.11485,-10.44486 1.06582,0.68287 4.18634,5.13935 6.9345,9.9033 6.47782,11.22936 8.56065,11.59495 12.70246,2.22957 4.19262,-9.48025 8.02266,-13.41321 11.33559,-11.64018 2.50156,1.33879 13.48697,18.42952 13.48697,20.98256 0,0.77369 1.25984,3.00834 2.79966,4.96589 3.91262,4.9741 2.57945,10.13377 -2.6184,10.13377 -4.19799,0 -7.40688,-2.97079 -8.6412,-8 -0.44996,-1.83333 -2.10034,-5.4126 -3.66752,-7.95394 l -2.8494,-4.6206 -2.49687,3.08348 c -1.37327,1.69592 -3.19204,5.40381 -4.04171,8.23975 -0.84966,2.83595 -2.95034,6.47666 -4.66818,8.09048 -4.46876,4.19819 -8.29868,1.97791 -13.53507,-7.84656 -5.25521,-9.85979 -7.85108,-12.34886 -9.1874,-8.80944 -2.46432,6.52704 -9.98612,17.56479 -12.39991,18.19602 -3.66638,0.95877 -7.52538,-2.44303 -12.62586,-11.13006 -2.34094,-3.98702 -5.03696,-7.24913 -5.99116,-7.24913 -0.9542,0 -3.91187,4.2 -6.57261,9.33333 -6.95171,13.41188 -12.43617,13.5001 -19.874735,0.31968 -6.613393,-11.71828 -7.208788,-11.76062 -12.906497,-0.91786 -5.0846,9.67601 -9.112323,12.9261 -12.563107,10.13754 -1.011984,-0.81778 -4.215769,-5.24868 -7.119521,-9.84645 C 59.470087,131.76181 56.539255,128 55.86088,128 c -1.712435,0 -6.516496,8.14646 -6.522563,11.0606 -0.006,2.86589 -5.762542,8.9394 -8.472921,8.9394 -1.057367,0 -3.804755,-2.14379 -6.105307,-4.76398 z M 79.93588,62.666665 C 55.189351,62.092449 50.695572,61.665649 47.530888,59.588976 c -2.020813,-1.326064 -3.9982,-3.426064 -4.394193,-4.666667 -3.265351,-10.229983 -2.147686,-9.588977 -16.719444,-9.588977 -16.327433,0 -21.0146479,-1.977818 -21.0635006,-8.887961 -0.012664,-1.791318 2.0048027,-4.491964 5.3129166,-7.112038 5.86295,-4.643543 6.802548,-7.865444 2.613269,-8.960965 C 9.6082928,19.412212 6.685758,13.467813 8.0741768,9.7839201 10.568194,3.1665409 23.420045,5.1104288 28.496207,12.872825 l 2.837126,4.338493 5.040054,-4.915367 c 4.183444,-4.0799493 5.938081,-4.8918192 10.32381,-4.7768208 2.906068,0.0762 6.123206,0.8352239 7.149195,1.6867196 4.657659,3.8655132 2.528677,11.0370192 -4.015111,13.5249632 -5.136046,1.952721 -5.328298,4.952196 -0.628226,9.80144 2.322361,2.396068 4.86411,6.706519 5.648333,9.578783 0.784223,2.872263 2.059084,5.998971 2.833024,6.94824 1.908668,2.341056 8.733929,0.797147 12.982255,-2.936652 7.38359,-6.489344 14.393428,-9.932691 24.158572,-11.86709 8.667461,-1.716956 11.508941,-1.755031 19.358331,-0.259396 5.05987,0.964115 11.28851,2.648829 13.84143,3.743809 25.65553,11.004 47.48345,15.077181 71.49301,13.340896 10.25658,-0.741719 10.90096,-0.628413 11.75652,2.067213 1.31015,4.127923 -0.34117,8.077815 -3.69673,8.8424 -4.27368,0.973785 -94.27029,1.450561 -127.64192,0.676209 z"
       id="path352" />
  </g>
</svg>
