<?xml version="1.0" encoding="UTF-8" standalone="no"?>
<!-- Created with Inkscape (http://www.inkscape.org/) -->

<svg
   version="1.1"
   id="svg165"
   width="226.66667"
   height="213.33333"
   viewBox="0 0 226.66667 213.33333"
   xmlns="http://www.w3.org/2000/svg"
   xmlns:svg="http://www.w3.org/2000/svg">
  <defs
     id="defs169" />
  <g
     id="g171">
    <path
       style="fill:#000000;stroke-width:1.33333"
       d="m 99.333335,206.61332 c -9.533334,-0.52382 -19.302319,-1.6914 -21.708855,-2.59466 -2.406538,-0.90325 -6.167926,-1.37921 -8.358642,-1.05768 -2.341828,0.34371 -4.589378,-0.1459 -5.454404,-1.1882 C 63.002226,200.79776 61.106214,200 59.598072,200 56.825565,200 55.095641,199.5256 40.666667,194.80846 14.588288,186.28289 8.8070799,183.21036 8.2502032,177.58009 7.7739705,172.76518 8.5190563,172.30914 28,165.49201 c 27.157954,-9.50363 46.567834,-13.30745 74.66667,-14.63273 33.28892,-1.57007 64.91452,2.35717 83.11055,10.32058 3.54412,1.55107 6.98566,2.82014 7.64786,2.82014 0.6622,0 6.85339,2.18173 13.7582,4.8483 13.97264,5.3961 16.50663,8.06863 13.3545,14.08468 -3.40323,6.4953 -31.36288,15.11236 -63.87111,19.68488 -4.4,0.61888 -12.19977,2.08306 -17.33284,3.2537 -9.79577,2.23401 -12.0731,2.27625 -40.000495,0.74176 z m 29.463955,-13.92355 c 9.60517,-1.07317 18.30517,-2.25291 19.33333,-2.62161 1.02816,-0.36872 9.96938,-1.59132 19.86938,-2.7169 17.75826,-2.01901 29.83566,-4.92797 31.47542,-7.58116 1.39706,-2.26049 -2.50727,-4.99316 -9.17359,-6.42065 -3.466,-0.7422 -9.15183,-1.95035 -12.63516,-2.68479 -3.48333,-0.73442 -9.33333,-2.1882 -13,-3.23061 -22.70644,-6.45531 -78.127251,-5.45224 -102.666669,1.85817 -2.2,0.6554 -8.2,1.8896 -13.333334,2.74268 -11.326773,1.88234 -18.176901,4.10106 -17.639476,5.71334 0.491969,1.4759 9.026156,4.71178 16.658538,6.31634 3.127149,0.65743 6.727149,1.74168 8,2.40946 3.217369,1.6879 27.435034,5.60461 42.105966,6.80976 6.714565,0.55157 12.508305,1.08258 12.874975,1.18002 0.36666,0.0975 8.52544,-0.70088 18.13062,-1.77405 z M 44.174663,61.605154 c -2.019972,-0.319032 -3.687516,-1.899948 -4.62565,-4.38535 -1.029803,-2.72826 -2.373236,-3.886472 -4.507996,-3.886472 -1.814237,0 -3.041017,0.806823 -3.041017,2 0,1.468339 -1.52724,2 -5.74516,2 -8.227144,0 -10.874629,-2.330781 -9.846186,-8.668337 0.667181,-4.111356 0.234246,-5.767246 -2.293163,-8.770902 -4.2041203,-4.996312 -3.187298,-10.018312 2.736061,-13.51318 4.347774,-2.565249 5.897284,-6.68204 3.153338,-8.377892 -0.836416,-0.516933 -0.576815,-2.274515 0.700906,-4.745356 C 23.124768,8.5798899 27.743524,8.0333051 31.333334,12 c 3.913235,4.324076 9.264256,3.467226 12.489999,-2.0000002 1.51437,-2.5666666 3.41308,-4.6666666 4.219356,-4.6666666 3.06498,0 6.319732,2.7131977 7.936205,6.6157108 C 57.420228,15.42873 58.352248,16 62.587981,16 c 3.598099,0 5.714619,-0.901096 7.829421,-3.333334 3.038742,-3.4948596 5.066554,-4.0422409 8.025647,-2.166419 1.283002,0.813317 1.528276,2.780574 0.883092,7.082969 -0.826548,5.511812 -0.612631,6.140784 2.863071,8.418149 3.61768,2.370396 4.618805,2.380232 27.116908,0.266436 12.8483,-1.207155 31.16055,-3.756464 40.69388,-5.665131 18.91176,-3.786318 28.89838,-3.776014 46.64348,0.04813 11.60546,2.501021 17.61403,5.292904 18.69048,8.684528 4.29464,13.531214 -33.5713,26.498058 -56.12205,19.218477 C 149.0223,45.264506 131.53248,43.23335 102,41.909575 87.484545,41.258929 85.597937,41.44453 81.666668,43.909927 c -3.224123,2.021928 -4.333334,3.681215 -4.333334,6.482302 0,5.860491 -2.699606,8.55581 -8.058853,8.046053 -3.599105,-0.342338 -4.701085,-1.09502 -5.033881,-3.438283 -0.65563,-4.616374 -6.436147,-4.036981 -9.287311,0.930885 -2.574135,4.485171 -6.205042,6.396615 -10.778626,5.67427 z M 55.906941,39.445463 c 1.251153,-1.507546 1.016808,-2.062428 -1.163258,-2.754353 -2.104042,-0.667797 -2.655177,-1.84002 -2.403532,-5.11213 0.28705,-3.732463 -0.11476,-4.296458 -3.324222,-4.666007 -3.372056,-0.388271 -3.59229,-0.12812 -2.885063,3.408019 0.521095,2.605477 0.09009,4.389054 -1.349261,5.583618 -1.163216,0.965383 -2.114938,2.581775 -2.114938,3.591983 0,2.531136 11.132863,2.488145 13.240274,-0.05113 z M 188.66667,34.42467 194,32.864211 189.28804,32.02215 c -2.59157,-0.463133 -5.4791,-1.316193 -6.41674,-1.895688 -1.97614,-1.221312 -28.20463,1.935544 -28.20463,3.394703 0,2.409756 26.44968,3.11262 34,0.903505 z"
       id="path491" />
  </g>
</svg>
