<?xml version="1.0" encoding="UTF-8" standalone="no"?>
<!-- Created with Inkscape (http://www.inkscape.org/) -->

<svg
   version="1.1"
   id="svg243"
   width="205.33333"
   height="226.66667"
   viewBox="0 0 205.33333 226.66667"
   xmlns="http://www.w3.org/2000/svg"
   xmlns:svg="http://www.w3.org/2000/svg">
  <defs
     id="defs247" />
  <g
     id="g249">
    <path
       style="fill:#000000;stroke-width:1.33333"
       d="m 193.65953,219.0955 c -2.32791,-1.12744 -5.56689,-4.23515 -7.19776,-6.90603 -16.17944,-26.49723 -20.79453,-49.52397 -16.38193,-81.73675 2.76966,-20.21911 2.02318,-26.5451 -4.73974,-40.165936 C 160.82089,81.184843 152.61241,74.399378 144,72.646166 c -2.56667,-0.52249 -6.76667,-1.891513 -9.33334,-3.04227 -3.19737,-1.433534 -11.17355,-2.385879 -25.33333,-3.024767 C 85.810005,65.517757 62.84018,62.448157 55.026607,59.321785 47.611029,56.354658 45.946251,52.494979 46.262754,39.003355 l 0.262755,-11.200488 -8.929422,0.918177 C 32.684906,29.226043 28.366666,29.66882 28,29.704995 26.482274,29.854732 19.080288,27.498287 15.666666,25.77864 12.521516,24.194239 12,23.116058 12,18.198179 12,12.01141 14.977424,7.9890341 21.340906,5.579005 26.139941,3.7614758 46.953138,5.9357672 52.98967,8.8852551 c 7.015978,3.4280509 9.690017,10.9991429 7.095289,20.0891209 -3.236532,11.338381 -3.245403,14.165598 -0.05351,17.052655 2.50969,2.270002 4.723603,2.621664 15.809985,2.511291 7.090399,-0.07059 15.876692,-0.822485 19.525096,-1.670879 10.20036,-2.37197 35.8675,-2.763872 47.78189,-0.729561 12.76074,2.178815 26.88306,8.487707 31.90974,14.255092 7.83636,8.991084 14.37385,19.020481 15.78049,24.209377 3.88061,14.315048 4.08324,29.298429 0.57716,42.677779 -1.14536,4.37074 -2.10284,10.07074 -2.12772,12.66667 -0.0249,2.59592 -1.20452,7.11987 -2.62143,10.0532 -2.04494,4.23355 -2.5855,8.29684 -2.62142,19.7047 -0.0421,13.36461 0.23497,14.92644 3.95476,22.2953 2.2,4.35818 4,8.7843 4,9.83583 0,1.05153 2.0459,4.36067 4.54646,7.35364 3.06238,3.66541 4.31556,6.32483 3.83907,8.14693 -1.00223,3.83254 -1.93897,4.07752 -6.726,1.7591 z m -11.50199,-96.04907 c -1.86934,-1.86934 -3.44882,3.02299 -3.32112,10.28691 l 0.12894,7.33333 2.08069,-8.32552 c 1.14437,-4.57903 1.64455,-8.76165 1.11149,-9.29472 z m 0.50912,-15.78934 c 0,-6.27526 -0.68857,-14.225261 -1.53016,-17.666662 -2.59198,-10.5991 -14.59344,-24.893619 -24.29934,-28.942115 -10.0351,-4.185807 -27.58065,-7.116406 -37.50383,-6.264186 -9.13408,0.784451 -9.21947,0.825824 -4,1.937972 2.93333,0.625026 7.13333,1.419874 9.33333,1.76633 18.56535,2.923671 23.48347,4.085555 29.12028,6.879548 3.5495,1.759368 9.12952,5.665411 12.40007,8.680095 9.56795,8.819425 16.24159,26.804428 14.42969,38.887038 -0.62474,4.16611 -0.44357,6.13156 0.56524,6.13156 0.97507,0 1.48472,-3.91649 1.48472,-11.40958 z M 44.020255,16.654148 c 1.020364,-0.63062 0.985603,-1.442162 -0.118773,-2.772852 -1.805637,-2.175662 -13.958688,-2.612781 -15.234816,-0.547962 -0.453225,0.733333 -2.288634,1.333333 -4.078689,1.333333 -3.248599,0 -4.146076,1.297496 -2.254644,3.259571 1.131255,1.173506 19.470418,0.09779 21.686922,-1.27209 z"
       id="path271" />
  </g>
</svg>
