<?xml version="1.0" encoding="UTF-8" standalone="no"?>
<!-- Created with Inkscape (http://www.inkscape.org/) -->

<svg
   version="1.1"
   id="svg2"
   width="222.66667"
   height="217.33333"
   viewBox="0 0 222.66667 217.33333"
   xmlns="http://www.w3.org/2000/svg"
   xmlns:svg="http://www.w3.org/2000/svg">
  <defs
     id="defs6" />
  <g
     id="g8">
    <path
       style="fill:#000000;stroke-width:1.33333"
       d="m 32.666667,207.92528 c -8.8,-0.41827 -17.008075,-1.22067 -18.240165,-1.78312 -3.702389,-1.69014 -5.3897044,-8.63939 -6.0877117,-25.07242 -0.8016994,-18.87421 0.238032,-27.23772 3.6105107,-29.04261 2.57905,-1.38027 28.237214,-1.80871 100.050699,-1.67064 23.83334,0.0459 54.13334,-0.0737 67.33334,-0.26572 28.16922,-0.40968 31.82758,0.25056 33.87122,6.11295 1.84775,5.30048 1.93452,44.42221 0.10614,47.83865 -0.7458,1.39355 -3.5958,3.09993 -6.33334,3.79199 -5.59308,1.41393 -140.73279,0.94814 -148.492186,-0.5118 -2.666509,-0.50171 -5.966509,-0.40023 -7.333333,0.2255 -1.366823,0.62574 -9.685134,0.79548 -18.485134,0.37722 z m 62.458146,-10.60295 c 1.005472,-1.00949 -2.637797,-15.78285 -5.587132,-22.65567 -1.416132,-3.3 -3.194102,-7.57434 -3.951046,-9.49854 -1.713262,-4.35523 -6.020088,-5.28671 -24.605457,-5.32174 -7.506315,-0.0141 -15.147844,-0.0545 -16.981177,-0.0897 -9.795696,-0.18811 -20.951883,0.67644 -23.039329,1.78543 -2.115744,1.12401 -2.332309,3.09396 -2,18.19254 l 0.372662,16.93204 10,0.80624 c 11.807459,0.95196 64.814174,0.83066 65.791479,-0.15057 z m 27.284617,-2.93623 c 0.23785,-1.2543 -0.58859,-4.5543 -1.83651,-7.33333 C 119.32499,184.27374 116.65986,178.4 114.6504,174 c -2.00945,-4.4 -4.00901,-9.05 -4.44346,-10.33334 -0.59674,-1.76272 -2.26743,-2.33333 -6.83176,-2.33333 -7.215945,0 -7.364805,0.71407 -2.77956,13.33333 8.28561,22.8032 8.39292,22.95398 15.94426,22.39935 3.87012,-0.28425 5.56175,-1.05661 5.86955,-2.67991 z m 78.67213,1.10283 c 2.03803,-1.25956 1.99111,-29.09324 -0.0537,-31.8748 -1.50323,-2.04483 -5.3818,-2.37404 -34.36116,-2.91656 -17.96667,-0.33636 -35.50896,-0.25464 -38.98286,0.1816 -6.00624,0.75424 -6.27581,0.96477 -5.49325,4.29033 0.73256,3.11306 4.21665,11.23128 10.94258,25.49716 1.9735,4.18586 2.88708,4.75282 8.86686,5.50282 8.15582,1.0229 57.24012,0.45753 59.08156,-0.68055 z M 143.61503,65.875006 C 143.4601,65.740836 122.67096,65.24597 97.416955,64.775302 72.162946,64.304632 47.48765,63.350404 42.582963,62.654795 31.334299,61.059447 21.473543,56.142643 13.904888,48.355237 5.954829,40.175402 5.9043697,35.937531 13.666667,28.34804 21.2512,20.932354 25.788319,20.118096 55.063379,20.918732 l 24.269956,0.663753 2.929666,-3.975455 c 2.414287,-3.276104 4.42723,-4.236244 11.442551,-5.457909 4.682085,-0.81535 11.467698,-1.482454 15.079138,-1.482454 3.61144,0 8.64163,-0.595211 11.1782,-1.3226901 2.53657,-0.7274793 11.61179,-1.3753156 20.16715,-1.4396362 17.21056,-0.129392 21.62867,0.9190721 37.45267,8.8879113 10.16892,5.12098 9.36077,5.053225 28.53616,2.392489 C 214.86624,17.970974 216,20.053337 216,37.333333 c 0,18.69883 0.0296,18.666666 -17.19614,18.666666 -12.0911,0 -13.2223,0.230572 -16.08596,3.278808 -1.90239,2.024997 -5.17792,3.568617 -8.56576,4.036683 -6.75754,0.933622 -30.15047,2.894338 -30.53711,2.559516 z M 158.788,53.170795 c 6.46147,-0.862068 13.85654,-2.829142 17.45352,-4.642602 3.43284,-1.730703 10.20902,-3.899359 15.05816,-4.819234 8.2659,-1.568025 8.79218,-1.881861 8.42515,-5.024064 -0.35837,-3.067966 -1.10277,-3.430014 -8.79752,-4.278716 -6.67876,-0.736641 -9.79545,-1.925354 -15.16784,-5.785027 C 164.82419,20.764933 161.16326,20 134.49903,20 c -15.66923,0 -23.83236,0.4768 -23.83236,1.392024 0,0.921433 6.57422,1.259494 19.44683,1 19.01025,-0.383223 19.5037,-0.321895 21.98065,2.731789 1.87203,2.307933 2.19701,3.753136 1.24428,5.533333 -1.1072,2.068832 -3.41388,2.460645 -16.31399,2.771103 -33.49809,0.806174 -77.11019,-0.04699 -79.944595,-1.563912 -4.209119,-2.252653 -30.317051,-0.339907 -33.413178,2.44795 -3.505829,3.156767 -2.864296,4.621875 4.03438,9.21357 14.274052,9.500674 11.56824,9.047332 56.945962,9.540961 22.722521,0.24718 41.572521,0.708265 41.888891,1.024633 1.1251,1.125097 21.21748,0.551549 32.2521,-0.920656 z"
       id="path30" />
  </g>
</svg>
