<?xml version="1.0" encoding="UTF-8" standalone="no"?>
<!-- Created with Inkscape (http://www.inkscape.org/) -->

<svg
   version="1.1"
   id="svg223"
   width="456"
   height="214.66667"
   viewBox="0 0 456 214.66667"
   xmlns="http://www.w3.org/2000/svg"
   xmlns:svg="http://www.w3.org/2000/svg">
  <defs
     id="defs227" />
  <g
     id="g229">
    <path
       style="fill:#000000;stroke-width:1.33333"
       d="m 138.165,208.79364 c -21.96258,-1.41956 -25.40165,-1.94582 -27.00001,-4.1317 -2.30571,-3.15326 -2.30528,-4.83787 0.002,-7.99328 1.6648,-2.27674 2.49369,-2.36512 9,-0.95968 12.42951,2.68493 28.50311,3.36341 30.23529,1.27625 C 151.92331,195.15251 160,171.63659 160,169.04075 c 0,-0.762 2.65101,-6.85789 5.89113,-13.54644 C 174.9596,136.77444 180,125.52664 180,124.00996 c 0,-0.75871 0.74896,-2.57874 1.66435,-4.04452 1.99348,-3.19206 1.45356,-4.19109 -10.72427,-19.84385 -6.76747,-8.698543 -9.09189,-10.797407 -12,-10.835502 -1.98371,-0.02599 -5.10675,-0.904725 -6.94008,-1.952753 -5.32159,-3.042091 -13.73477,-2.541055 -16.79156,1 -4.28592,4.96492 -7.93276,10.605721 -12.37501,19.141235 -5.90636,11.34869 -17.89413,21.01249 -28.861785,23.26658 -7.35739,1.51211 -8.506118,1.40771 -14.907918,-1.35484 -3.814951,-1.64626 -7.776094,-4.28165 -8.802538,-5.85642 C 67.696301,119.59484 63.066513,105.8667 61.988532,99.000002 60.904869,92.097116 58.632636,91.70328 51.200051,97.130083 39.18346,105.90384 23.39784,126.8852 18.649911,140.39391 17.19246,144.54062 16,150.98782 16,154.72102 c 0,3.7332 -0.621111,7.94818 -1.380245,9.36664 -1.710636,3.19636 -8.6368994,3.52814 -9.8104366,0.46996 -1.6128688,-4.20307 -0.7518757,-15.16995 1.8401467,-23.43883 1.4572058,-4.64867 2.6572058,-9.5171 2.6666666,-10.81874 C 9.3604344,124.20483 26.208389,96.053764 35.673684,86.2595 36.953157,84.935557 39.5,80.735557 41.333333,76.926167 c 2.634528,-5.474154 5.131784,-8.131526 11.91203,-12.675794 9.349092,-6.265964 10.353761,-6.332689 20.876344,-1.386491 7.644138,3.593168 8.67736,7.431494 7.690205,28.568423 -0.722589,15.472075 -0.620596,16.397865 1.95858,17.778205 4.458819,2.38628 8.823901,1.68293 14.905947,-2.40182 5.717351,-3.83982 9.159431,-8.330899 9.305961,-12.142022 0.0423,-1.1 1.25021,-3.5 2.68427,-5.333333 1.43405,-1.833334 2.62071,-4.435892 2.63702,-5.783463 0.0401,-3.316965 7.85621,-27.393396 10.24222,-31.549871 1.05242,-1.833334 3.01126,-5.760754 4.35298,-8.7276 2.5784,-5.701436 17.27279,-20.788443 25.88852,-26.580243 2.81642,-1.893291 8.81642,-5.319575 13.33334,-7.6139656 8.07212,-4.1002682 8.55466,-4.1736706 28.21258,-4.2915723 20.31419,-0.1218374 24.3539,0.4331205 48,6.5940399 13.0876,3.409935 22.69806,6.561338 26.31524,8.629143 1.27339,0.727941 2.94768,1.323531 3.72066,1.323531 1.63962,0 8.42736,4.576268 13.51546,9.112084 3.30642,2.947527 3.5535,3.937329 3.58252,14.351411 0.0172,6.152045 0.39092,11.76762 0.83062,12.479055 1.15172,1.86352 -3.92848,6.503377 -8.26391,7.547612 -2.03532,0.490229 -6.53064,2.30549 -9.9896,4.033914 -3.45895,1.728426 -7.44005,3.142591 -8.84688,3.142591 -4.90248,0 -38.86411,10.623875 -38.86411,12.157467 0,0.646727 0.61287,1.175867 1.36192,1.175867 0.74906,0 3.64224,1.509045 6.42931,3.353434 5.21045,3.448122 9.54211,10.534993 9.54211,15.611541 0,3.32049 1.90978,13.94946 5.5763,31.03503 3.0897,14.39765 4.86398,25.4393 5.67768,35.33333 0.33171,4.03333 1.97584,11.70687 3.65364,17.05229 l 3.05054,9.71896 10.46741,-0.37785 c 9.07103,-0.32744 10.71915,-0.0336 12.35427,2.20255 2.74352,3.752 2.34065,5.71188 -1.7212,8.37332 -3.12727,2.04905 -7.16916,2.38554 -30.33334,2.52522 -31.43413,0.18955 -42.8853,-1.13097 -44.14196,-5.09036 -1.51386,-4.76973 1.40023,-5.73746 17.27695,-5.73746 18.54864,0 19.98824,-0.80091 19.02944,-10.58682 C 243.19284,185.03594 242.28063,179.3 241.52925,176 c -0.75137,-3.3 -2.35256,-11.1 -3.5582,-17.33333 -1.20564,-6.23333 -3.10788,-14.93333 -4.22718,-19.33333 -1.11932,-4.4 -2.53204,-11.9 -3.1394,-16.66667 C 228.25149,104.19988 228.06965,103.89161 216,97.909035 211.96667,95.909827 207.11109,93.188821 205.20985,91.862356 200.94531,88.887064 184,86.793815 184,89.242308 c 0,2.115533 7.94335,13.765482 10.39219,15.241472 8.14138,4.9071 8.85458,11.13346 2.51524,21.95854 -4.77983,8.16204 -22.04282,42.85859 -25.6521,51.55768 -1.21705,2.93334 -3.04738,7.07552 -4.06741,9.20486 -1.02003,2.12933 -1.85459,5.28228 -1.85459,7.00654 0,2.95176 0.45318,3.1248 7.75166,2.95982 9.72701,-0.21988 13.20196,0.86524 14.34952,4.48089 1.23748,3.89897 -3.63007,7.67689 -9.91555,7.69591 -2.66876,0.008 -6.95229,0.25265 -9.51896,0.54353 -2.56667,0.29087 -15.99241,-0.20319 -29.835,-1.09791 z M 68.852309,80.663687 c 0.998651,-2.602443 -0.530457,-8.663686 -2.185642,-8.663686 -1.655186,0 -3.184294,6.061243 -2.185643,8.663686 0.422739,1.10164 1.406279,2.002981 2.185643,2.002981 0.779364,0 1.762904,-0.901341 2.185642,-2.002981 z M 206,75.954348 c 3.66667,-0.772603 8.76667,-1.98457 11.33333,-2.693259 2.56667,-0.708691 6.76667,-1.546203 9.33334,-1.86114 8.2275,-1.009536 19.94621,-4.624549 27.52506,-8.490985 4.01919,-2.050438 5.65683,-3.818398 6.24059,-6.737215 0.49983,-2.49916 1.87916,-4.3025 3.74347,-4.894206 l 2.952,-0.936932 -3.23056,-1.789725 c -4.0903,-2.266016 -32.83082,-2.53974 -38.16783,-0.363509 -2.05117,0.836389 -5.63149,2.341809 -7.95628,3.345377 -2.3248,1.003567 -6.17731,2.214751 -8.56115,2.691518 -2.38382,0.476768 -9.18173,2.933156 -15.10644,5.458641 -11.60124,4.94518 -16.75561,6.405939 -29.86561,8.463949 -7.31564,1.148412 -8.98301,0.997951 -12.64561,-1.141121 -5.269,-3.07726 -8.99336,-12.358465 -7.35558,-18.330271 1.71372,-6.248692 1.44279,-9.290956 -0.67118,-7.536512 -2.40466,1.995679 -12.48886,22.571687 -13.49121,27.52771 l -0.80899,4 7.03298,0.103773 c 3.86815,0.05708 11.233,1.076433 16.36634,2.265237 C 157.8,76.224483 163.8,77.424821 166,77.703099 c 6.85932,0.86763 33.00852,-0.275582 40,-1.748754 z M 172,57.25145 c 3.3,-0.742514 9.6,-3.024118 14,-5.070231 42.44496,-19.737982 44.93476,-20.786531 54.37407,-22.898956 11.02141,-2.466484 10.15078,-4.138063 -4.72771,-9.077137 -7.97067,-2.645951 -11.77184,-2.997739 -32.66667,-3.023216 -29.6603,-0.03616 -34.10729,1.154928 -34.72041,9.299614 -0.33449,4.443408 -1.32011,6.134586 -5.50845,9.451817 -7.88372,6.244029 -11.88635,17.06447 -7.8175,21.133327 1.93632,1.936326 8.94494,2.012209 17.06667,0.184782 z m 206.33424,0.496292 c -7.75697,-2.02732 -2.41087,-22.666892 7.94865,-30.687074 20.30795,-15.722111 46.10315,-11.797236 59.99087,9.127929 3.97361,5.987189 5.82312,19.4212 2.92629,21.255321 -1.86461,1.180584 -66.45162,1.45749 -70.86581,0.303824 z m 58.99909,-13.744653 c 0,-2.621211 -7.16493,-8.853435 -14.48601,-12.600263 C 412.44721,26.080195 388,34.493439 388,43.395151 c 0,2.978164 0.0305,2.981895 24.66667,3.017732 23.04786,0.03353 24.66666,-0.124626 24.66666,-2.409794 z"
       id="path549" />
  </g>
</svg>
