<?xml version="1.0" encoding="UTF-8" standalone="no"?>
<!-- Created with Inkscape (http://www.inkscape.org/) -->

<svg
   version="1.1"
   id="svg213"
   width="224"
   height="210.66667"
   viewBox="0 0 224 210.66667"
   xmlns="http://www.w3.org/2000/svg"
   xmlns:svg="http://www.w3.org/2000/svg">
  <defs
     id="defs217" />
  <g
     id="g219">
    <path
       style="fill:#000000;stroke-width:1.33333"
       d="m 166.35752,203.92163 c -2.73671,-1.44495 -5.92956,-4.47152 -7.09524,-6.72569 -2.71427,-5.24882 -2.72712,-17.11822 -0.0241,-22.3451 1.15238,-2.22846 2.09524,-5.26466 2.09524,-6.74713 0,-2.54089 -0.74515,-2.67844 -13,-2.39955 -23.52768,0.53543 -88.313078,-1.75209 -91.563371,-3.23302 -2.584202,-1.17744 -3.865034,-0.90091 -7.18051,1.55033 -3.277873,2.42344 -4.994472,2.80536 -9.145697,2.03481 -2.810733,-0.52172 -6.117427,-1.85189 -7.348207,-2.95594 -2.842928,-2.55019 -7.153314,-1.26915 -9.915821,2.94697 -1.901736,2.90241 -3.125879,9.42491 -5.621521,29.95269 -0.814431,6.69906 -1.200924,7.36908 -4.468532,7.74658 -6.3225373,0.73044 -7.4440373,-4.50055 -5.2340993,-24.41324 1.3943891,-12.56418 5.6171253,-22.38604 13.7904513,-32.07588 9.313792,-11.04192 10.997712,-11.94331 22.020722,-11.7874 7.11475,0.10066 9.332655,-0.26584 8.401219,-1.38815 -0.696096,-0.83869 -1.899485,-6.90021 -2.674251,-13.47006 C 48.619008,114.042 47.428008,104.16667 46.747108,98.666668 45.710101,90.290209 43.969412,52.073477 43.740951,32.666667 43.471015,9.7368104 51.69546,-2.8470098 56.379059,13.329719 c 1.19274,4.119617 2.846202,6.462959 5.653365,8.01214 3.167525,1.748052 4.054045,3.228547 4.396389,7.342007 0.436282,5.242183 -4.316282,27.437959 -6.68829,31.236147 -0.860666,1.378144 -0.617326,11.296472 0.717132,29.229687 1.866928,25.08889 2.2541,27.39464 5.114422,30.45818 2.793388,2.99185 3.808354,3.23788 10.427923,2.52776 23.244485,-2.49356 23.813141,-2.49995 29.24019,-0.32848 4.49986,1.80049 6.78569,1.9217 13.7453,0.72887 14.46839,-2.47979 23.92618,-2.84814 31.59063,-1.23037 11.18119,2.36007 14.13943,0.75949 16.1062,-8.71438 0.86301,-4.15713 1.30093,-10.04081 0.97313,-13.07485 -0.32778,-3.034035 0.26595,-10.616429 1.31943,-16.849762 1.10199,-6.52044 1.50552,-13.315114 0.95023,-16 -0.53084,-2.566667 -1.11636,-7.966667 -1.30116,-12 -0.18479,-4.033334 -1.01331,-10.033334 -1.84115,-13.333334 -3.4224,-13.642682 -3.37665,-15.501287 0.46371,-18.840432 1.95968,-1.703924 4.69717,-5.661888 6.0833,-8.795474 2.00587,-4.5345971 3.2063,-5.6974279 5.88164,-5.6974279 5.45876,0 6.70058,4.1489859 6.58468,21.9999999 -0.18516,28.521234 -2.9711,75.7103 -5.15598,87.33334 -3.4631,18.42282 -3.5368,17.95973 2.90448,18.24902 8.93377,0.40126 17.93478,5.85751 25.33524,15.3578 8.77549,11.26548 10.17856,15.80878 9.08086,29.40504 -1.0336,12.80234 -4.27954,20.75342 -9.8048,24.01726 -5.29181,3.12596 -11.97446,2.93953 -15.56566,-0.43423 l -2.91494,-2.73844 -8.12894,2.73844 c -9.70716,3.27011 -8.98228,3.27043 -15.18887,-0.007 z m 14.80185,-14.41433 c 3.39967,-3.39967 4.93139,-18.12535 2.80662,-26.98239 -1.38274,-5.76391 -1.30439,-6.976 0.58589,-9.06473 5.06575,-5.59759 -2.07667,-6.75272 -46.55188,-7.5288 -19.06667,-0.33271 -43.644064,-0.8529 -54.616439,-1.15599 -16.01074,-0.44227 -20.720104,-0.15272 -23.851226,1.46645 -2.725419,1.40938 -6.75068,1.87795 -13.35366,1.55451 -8.05057,-0.39436 -9.518542,-0.1276 -9.899547,1.79939 -0.397313,2.0094 0.941292,2.23888 11.9701,2.05209 6.829591,-0.11573 36.639513,-0.0397 66.244272,0.16889 46.21755,0.32558 54.4639,0.68298 58.33334,2.52818 2.47857,1.18196 4.50649,3.13278 4.50649,4.33518 0,1.2024 -1.5,6.59636 -3.33333,11.98659 -3.20816,9.43237 -4.30264,18.58625 -2.44444,20.44444 1.748,1.74801 7.15493,0.84507 9.60381,-1.60381 z m 23.50675,-12.55491 c -4.4e-4,-7.79623 -0.63211,-10.73749 -3.33333,-15.52111 -3.74167,-6.62614 -7.83046,-9.32486 -5.97415,-3.94312 0.603,1.74818 1.33684,9.16867 1.63077,16.48999 0.58123,14.47753 2.01147,18.25907 5.56272,14.70781 1.53982,-1.5398 2.11439,-4.72897 2.11399,-11.73357 z"
       id="path688" />
  </g>
</svg>
