<?xml version="1.0" encoding="UTF-8" standalone="no"?>
<!-- Created with Inkscape (http://www.inkscape.org/) -->

<svg
   version="1.1"
   id="svg203"
   width="213.33333"
   height="156"
   viewBox="0 0 213.33333 156"
   xmlns="http://www.w3.org/2000/svg"
   xmlns:svg="http://www.w3.org/2000/svg">
  <defs
     id="defs207" />
  <g
     id="g209">
    <path
       style="fill:#000000;stroke-width:1.33333"
       d="m 73.91947,150.43389 c -9.008538,-2.40925 -7.90539,-13.6054 2.300103,-23.34435 9.605084,-9.166 27.573087,-12.49993 42.680567,-7.91932 9.47598,2.87314 15.0218,6.64388 20.01915,13.61153 4.27563,5.96134 4.2248,9.3159 -0.23029,15.20072 l -2.51023,3.3158 -29.28356,0.0616 c -16.105955,0.0339 -30.945041,-0.38282 -32.97574,-0.92591 z M 131,141.76887 c 3.49538,-2.07247 -2.68228,-9.10646 -10.67698,-12.15699 -2.74433,-1.04715 -8.28969,-2.52381 -12.32302,-3.28146 -6.47123,-1.21561 -8.135606,-1.03128 -14.15768,1.56797 -8.496936,3.66746 -16.754545,11.63509 -13.892047,13.40421 1.055699,0.65245 9.358764,1.18629 18.451256,1.18629 9.092491,0 16.909211,0.3774 17.370481,0.83867 0.83913,0.83913 13.34234,-0.44067 15.22799,-1.55869 z M 32.30807,101.02807 C 30.257689,100.03982 28.613886,97.268943 27.207005,92.429443 25.018038,84.899659 25.529933,78.876203 28.797548,73.713577 31.791344,68.983569 31.055572,67.174635 24.333333,62.738072 20.85,60.439132 14.79426,55.451608 10.876133,51.654685 4.0475498,45.037339 3.7876315,44.530029 4.6054693,39.415552 c 0.4692616,-2.9346 1.5426725,-5.761753 2.3853574,-6.28256 2.3172414,-1.432135 6.3020003,1.253536 7.8324673,5.278971 0.749272,1.970736 2.360631,4.686285 3.580796,6.034553 2.742515,3.030443 13.279424,10.220151 14.978192,10.220151 1.370376,0 5.054784,-8.026279 6.150645,-13.398838 0.598582,-2.934602 -0.632092,-4.48258 -9.010231,-11.333333 C 12.064144,14.841053 7.9999999,10.609528 7.9999999,6.4842108 c 0,-3.4382976 0.441893,-3.8175441 4.4481521,-3.8175441 4.48332,0 9.666398,3.5711492 28.476941,19.6206543 l 6.925094,5.90862 31.074905,0.0097 C 96.01629,28.211044 117.5,27.504361 126.66666,26.63528 135.83333,25.766197 152.63333,24.836576 164,24.569455 175.36666,24.302332 189.06456,23.914928 194.43976,23.708556 205.24644,23.293651 208,24.974924 208,31.988173 c 0,4.611215 -2.28856,6.678494 -7.39335,6.678494 -6.96375,0 -9.28485,3.948417 -8.81791,15 0.21098,4.993286 0.21919,5 6.11602,5 7.16249,0 10.09524,2.53177 10.09524,8.714993 0,3.225947 -0.8004,4.952877 -2.78878,6.017025 -1.98474,1.062202 -23.8003,1.38597 -75.66667,1.122982 L 56.666666,74.15214 55.975139,82.742737 c -0.744812,9.252562 -2.642045,13.924598 -7.131193,17.560953 -3.212031,2.60184 -11.855017,2.98046 -16.535876,0.72438 z M 42.399999,85.066667 c 2.400355,-2.400355 2.067292,-10.4 -0.433001,-10.4 -2.142597,0 -4.633665,5.064281 -4.633665,9.420133 0,2.895523 2.640376,3.406157 5.066666,0.979867 z m 24,-24 c 1.980775,-1.980775 2.166644,-20.559083 0.217736,-21.763575 -1.564241,-0.966755 -10.485041,0.300141 -12.982639,1.843741 -1.199091,0.74108 -1.409282,3.788884 -0.777078,11.267844 l 0.86661,10.25199 h 5.537686 c 3.045726,0 6.257685,-0.72 7.137685,-1.6 z m 84.316321,0.25725 c 3.89416,-0.738513 7.41702,-1.679486 7.8286,-2.091053 1.26948,-1.269487 0.60498,-17.94962 -0.76984,-19.324449 -0.78186,-0.781856 -12.63378,-1.153112 -29.86896,-0.935628 l -28.572788,0.360546 -0.395956,9.87522 c -0.217775,5.431372 -0.0866,10.681372 0.291488,11.666667 0.849256,2.213136 40.367636,2.557527 51.487456,0.448697 z M 86.666665,52.266667 C 86.666665,43.402968 85.320744,40 81.815029,40 c -2.107204,0 -3.727348,10.495701 -2.571337,16.657768 0.719852,3.837143 1.464041,4.675565 4.150057,4.675565 3.154126,0 3.272916,-0.329076 3.272916,-9.066666 z M 179.33333,50 c 0,-9.948307 -0.19596,-10.694564 -2.90979,-11.080912 -4.21946,-0.600696 -6.01041,3.701269 -5.0288,12.079432 1.14618,9.782653 1.53458,10.577523 4.93263,10.094996 2.83299,-0.402288 3.00596,-1.040632 3.00596,-11.093516 z"
       id="path827" />
  </g>
</svg>
