<?xml version="1.0" encoding="UTF-8" standalone="no"?>
<!-- Created with Inkscape (http://www.inkscape.org/) -->

<svg
   version="1.1"
   id="svg113"
   width="484"
   height="290.66666"
   viewBox="0 0 484 290.66666"
   xmlns="http://www.w3.org/2000/svg"
   xmlns:svg="http://www.w3.org/2000/svg">
  <defs
     id="defs117" />
  <g
     id="g119">
    <path
       style="fill:#000000;stroke-width:1.33333"
       d="M 123.33333,283.09725 C 110.60505,282.01262 100.1098,279.76659 82.666667,274.39446 61.028872,267.73043 38.18688,250.58631 29.825692,234.7345 27.291788,229.93053 23.127937,222.45671 20.572691,218.12603 9.5609411,199.46313 5.3090075,179.16512 5.4060153,145.72288 5.5337573,101.68539 10.395975,83.520569 29.903432,54.202669 43.75152,33.390278 65.140872,17.821586 89.333333,10.945361 101.39238,7.5178166 127.9559,4.8756374 132.60096,6.6416838 c 3.92691,1.4930084 6.49817,5.8952542 5.42261,9.2840282 -1.13929,3.589596 -9.97159,6.667865 -21.77833,7.59027 -5.63488,0.440228 -11.57413,1.629224 -13.19833,2.642216 -1.6242,1.012991 -4.158147,1.841801 -5.630997,1.841801 -2.521325,0 -5.415684,1.136263 -22.320338,8.762477 -8.278122,3.734518 -21.364168,13.483456 -25.185239,18.762684 -2.507385,3.464225 -10.490863,18.452833 -18.00746,33.808171 -5.476201,11.187099 -9.114659,29.862259 -8.05292,41.333329 0.169689,1.83334 -0.333404,6.31391 -1.117985,9.95683 -0.965874,4.48469 -1.00572,8.89976 -0.1234,13.67268 0.716712,3.87707 0.965237,7.92969 0.552278,9.00584 -1.751894,4.56536 6.004899,33.98577 12.245368,46.44493 8.309264,16.58955 24.293995,35.2424 35.077835,40.93292 12.532999,6.61355 16.525077,8.06024 24.391769,8.83936 4.65163,0.46069 9.357509,1.58101 10.457509,2.4896 3.63287,3.00073 15.42974,4.93116 24.31771,3.97933 8.24269,-0.8827 8.51608,-0.81177 10.07741,2.615 2.88495,6.33176 2.05465,11.09578 -2.32891,13.3626 -2.16358,1.11883 -5.01358,1.93338 -6.33333,1.81011 -1.31975,-0.12328 -4.79954,-0.42865 -7.73288,-0.67861 z m 83.33334,-1.76963 c -50.06415,-0.75168 -54.09411,-1.32027 -50.27442,-7.09312 2.82988,-4.27693 8.10818,-4.62281 74.27442,-4.86717 32.63333,-0.12054 68.85353,-0.29763 80.48933,-0.39355 19.32709,-0.15933 21.31541,0.0436 23,2.34741 3.04379,4.16262 2.28892,8.18934 -1.82267,9.72286 -3.84005,1.43224 -43.24133,1.52114 -125.66666,0.28357 z m 136.18028,-1.14735 c -6.0447,-6.04469 -2.34815,-9.76248 10.9995,-11.06266 37.41435,-3.6445 54.62332,-10.98594 72.98266,-31.13474 14.62265,-16.0479 20.21102,-28.11489 26.40502,-57.01637 3.15588,-14.72544 3.99898,-57.81757 1.36238,-69.63317 -0.65456,-2.93333 -1.87955,-8.63333 -2.72219,-12.666666 -0.84264,-4.033333 -1.99396,-8.533333 -2.55849,-9.999999 -2.92147,-7.590075 -9.917,-21.968553 -12.97408,-26.666666 -1.90872,-2.933334 -4.9513,-7.587996 -6.76127,-10.343694 -1.80996,-2.755698 -6.29787,-7.255698 -9.97313,-9.999999 -3.67526,-2.744303 -7.71855,-5.7651 -8.9851,-6.712883 -7.98332,-5.974102 -40.51665,-13.599223 -60.42098,-14.16139 -3.92935,-0.110973 -7.06735,-0.953916 -8,-2.148985 -1.32671,-1.699998 -13.18498,-1.942984 -87.5346,-1.793667 -91.93294,0.184631 -107.95443,-0.203788 -111.36815,-2.699957 -1.98984,-1.45501 -1.95909,-1.85153 0.36631,-4.7232762 l 2.5385,-3.1349239 91.58371,0.1358137 c 50.37104,0.074697 93.7232,0.5371834 96.33812,1.0277462 2.61492,0.490563 5.07657,1.7314853 5.47033,2.7576052 0.54194,1.412247 1.15626,1.50024 2.52767,0.362059 2.68253,-2.2262974 31.10759,-1.6194455 37.99677,0.8112 3.05178,1.076727 6.82324,1.976768 8.38104,2.000089 1.5578,0.02332 3.99704,0.923323 5.42054,2 1.42349,1.076679 3.71226,1.957596 5.08616,1.957596 8.14513,0 31.41244,15.333554 41.40266,27.285066 2.74452,3.283332 7.18462,9.737372 9.86687,14.342313 2.68224,4.604941 5.58657,9.27262 6.45407,10.37262 0.86748,1.1 1.99464,3.751133 2.5048,5.891406 0.51014,2.140275 1.79073,5.123777 2.84574,6.630008 1.75204,2.501388 1.9333,1.933337 2.09255,-6.558073 0.0959,-5.113171 0.0537,-20.241161 -0.0937,-33.617755 -0.14746,-13.376595 0.11453,-25.526594 0.58216,-27 1.16102,-3.658069 10.77288,-3.890824 11.9162,-0.288554 0.57381,1.807934 0.0413,184.460156 -0.73351,251.609626 -0.13484,11.68622 -2.15565,15.33334 -8.49596,15.33334 -5.73937,0 -7.76268,-3.2856 -6.80521,-11.05078 0.38085,-3.08874 1.04864,-16.41589 1.48397,-29.61589 0.43533,-13.2 1.12212,-25.35 1.52617,-27 0.50327,-2.05512 0.13406,-3 -1.17222,-3 -1.6951,0 -7.68479,10.91277 -7.73522,14.093 -0.0419,2.64137 -19.88796,25.56168 -27.34605,31.58207 -18.29741,14.77018 -44.18133,24.72574 -67.454,25.94438 -13.20224,0.69131 -14.34433,0.54983 -17,-2.10584 z m -14.6784,-37.34506 c -2.23935,-2.23935 -2.42811,-4.08455 -1.82226,-17.81343 0.95115,-21.55336 -0.57652,-27.1313 -9.19218,-33.5635 -3.67854,-2.74628 -10.39307,-6.65554 -14.92118,-8.68724 -12.45728,-5.5894 -12.35357,-5.33547 -10.29061,-25.19711 0.96585,-9.299 2.28324,-21.10727 2.92753,-26.2406 0.6443,-5.13333 1.75222,-16.83333 2.46203,-26 0.70983,-9.166666 1.88631,-19.966665 2.61441,-23.999999 0.72811,-4.033333 1.71644,-13.933333 2.19631,-21.999999 1.22565,-20.60361 4.34184,-23.345679 17.23713,-15.167728 7.87678,4.995308 9.20291,6.52393 13.15847,15.167728 5.76467,12.597101 6.0744,16.447077 6.23465,77.496328 0.0844,32.17702 0.64887,68.70367 1.25423,81.17033 0.96131,19.79712 0.83429,22.96207 -1.0032,25 -2.74803,3.04778 -7.71821,2.97234 -10.85533,-0.16478 z m -0.93198,-86.50188 c 0.91438,-23.06739 0.20287,-63.586316 -1.39893,-79.666665 -0.84356,-8.468364 -4.34456,-17.767662 -7.75465,-20.597797 -4.27523,-3.548115 -5.50856,-0.779055 -7.18007,16.120414 -0.89636,9.06256 -2.27927,22.291682 -3.07313,29.398048 -0.79387,7.10636 -1.63576,16.70636 -1.87086,21.33333 -0.39576,7.78845 -2.01294,22.61924 -4.04324,37.07934 -0.82584,5.88174 -0.7277,6.08574 4.9799,10.35058 7.02173,5.2468 14.32764,9.26358 17.25364,9.48603 1.86992,0.14215 2.27113,-2.9122 3.08734,-23.50328 z m -192.90324,78 c -2.8192,-2.8192 -3.11296,-11.70339 -0.55533,-16.79428 0.97791,-1.94648 3.46483,-7.01456 5.52648,-11.26241 7.09789,-14.62455 20.64127,-22.77556 38.02885,-22.88751 13.97414,-0.09 27.89419,7.58308 35.30454,19.46064 5.39662,8.64993 10.44258,23.07936 9.31414,26.63476 -1.9807,6.24062 -4.55318,6.62596 -46.14854,6.91252 -35.71155,0.24601 -39.34102,0.0653 -41.47014,-2.06372 z m 65.37518,-10.31514 c 7.6514,-0.0197 9.21836,-1.47706 7.7744,-7.2303 -0.95546,-3.8068 -14.55784,-18.12123 -17.21984,-18.12123 -1.01935,0 -3.79836,-0.97029 -6.17559,-2.1562 -11.50721,-5.74056 -32.89049,4.33228 -36.10431,17.00735 -0.62506,2.4652 -1.54289,5.81661 -2.03961,7.44758 l -0.90315,2.9654 21.14646,0.42755 c 11.63056,0.23515 22.34646,0.25892 23.81313,0.0528 1.46667,-0.20611 5.83549,-0.38293 9.70851,-0.39295 z M 144.01003,98.874719 c -6.28072,-0.750192 -7.57431,-1.400768 -9.08636,-4.569773 -1.49706,-3.137555 -1.43054,-4.838899 0.4409,-11.276385 4.58686,-15.778244 12.602,-25.99451 25.96876,-33.10033 10.38486,-5.520624 32.14047,-1.962279 42.56671,6.962204 5.54427,4.745684 13.42967,15.411349 13.43828,18.176406 0.003,0.879903 1.20273,3.564325 2.66667,5.965384 2.98128,4.889758 3.5407,13.911726 0.99369,16.025563 -1.96316,1.629276 -65.92247,3.138712 -76.98865,1.816931 z M 201.66667,86.446482 C 206.71013,85.348234 208,84.511555 208,82.338351 c 0,-4.233871 -8.96356,-16.722477 -14.75152,-20.55277 -4.84656,-3.207301 -6.04132,-3.407194 -17.18136,-2.874582 -11.72043,0.56036 -12.10696,0.686174 -18.35319,5.973865 -7.26892,6.153448 -10.37081,10.971804 -11.60837,18.031975 -0.85704,4.889324 -0.83363,4.919826 4.18296,5.450198 8.47868,0.896396 44.65144,-0.45577 51.37815,-1.920555 z"
       id="path966" />
  </g>
</svg>
