<?xml version="1.0" encoding="UTF-8" standalone="no"?>
<!-- Created with Inkscape (http://www.inkscape.org/) -->

<svg
   version="1.1"
   id="svg195"
   width="105.33333"
   height="150.66667"
   viewBox="0 0 105.33333 150.66667"
   xmlns="http://www.w3.org/2000/svg"
   xmlns:svg="http://www.w3.org/2000/svg">
  <defs
     id="defs199" />
  <g
     id="g201">
    <path
       style="fill:#000000;stroke-width:1.33333"
       d="M 43.554673,142.66667 C 25.042653,141.81232 24.950187,141.71299 25.558618,123.33334 L 25.999999,110 16.282315,109.33334 C 10.078132,108.90771 6.1554261,108.00317 5.432847,106.83155 4.8103657,105.82223 4.5648293,93.522226 4.8872104,79.498211 5.3502154,59.35686 5.8881246,53.579827 7.4476143,52.000001 8.9050865,50.523524 13.311367,49.880224 24.280803,49.542421 40.001291,49.058309 43.80128,47.799138 47.001081,42.01379 c 0.916071,-1.656288 2.74478,-4.913625 4.063796,-7.238527 2.056539,-3.624857 2.164992,-4.872057 0.761233,-8.754082 -1.401214,-3.874991 -1.27909,-5.320647 0.84794,-10.037558 2.997584,-6.6474543 6.489411,-9.3169562 12.186989,-9.3169562 5.106279,0 11.806511,5.1658022 13.031684,10.0472792 1.188769,4.736438 -2.838025,12.56606 -7.79568,15.157769 -5.595392,2.925099 -12.763711,10.466886 -12.763711,13.428694 0,2.230928 1.622495,2.484056 18.620847,2.905064 15.695193,0.388733 18.994653,0.835033 20.999999,2.840555 2.09609,2.096273 2.41942,5.489936 2.71761,28.523875 0.224797,17.364679 -0.148855,26.731687 -1.112659,27.893007 -0.967035,1.1652 -4.264995,1.65763 -9.886181,1.47612 -4.639284,-0.1498 -8.892341,0.18139 -9.451236,0.73598 -0.558894,0.55459 -1.086582,6.55459 -1.17264,13.33333 -0.197045,15.52132 -1.41935,17.90828 -9.719207,18.97997 -3.481427,0.44952 -7.229867,0.93605 -8.329867,1.08117 -1.1,0.14512 -8.500396,-0.0361 -16.445325,-0.40281 z M 66.368889,110.84613 C 66.597151,98.16898 66.213245,89.726899 65.361829,88.701006 63.463487,86.413645 38.498851,86.131973 37.069163,88.381785 c -1.049467,1.651478 -1.526951,41.386045 -0.509467,42.395995 0.307833,0.30556 7.057833,0.55556 15,0.55556 H 65.999998 Z M 26.666666,89.365822 c 0.877337,-13.117303 1.285757,-13.320414 26.836739,-13.346164 22.669453,-0.02284 22.50385,-0.108267 23.704395,12.227861 0.904204,9.291095 2.821552,11.381577 8.458864,9.222687 l 3.666667,-1.404201 V 78.966336 c 0,-11.521964 -0.5219,-17.621568 -1.6,-18.699668 -2.079531,-2.079531 -69.80813,-2.303019 -71.086502,-0.234569 -1.205104,1.9499 -2.539825,35.252935 -1.51944,37.912017 0.629135,1.639498 2.158313,2.110024 5.861894,1.803678 l 5.010716,-0.414458 z"
       id="path223" />
  </g>
</svg>
