<?xml version="1.0" encoding="UTF-8" standalone="no"?>
<!-- Created with Inkscape (http://www.inkscape.org/) -->

<svg
   version="1.1"
   id="svg185"
   width="98.666664"
   height="110.66667"
   viewBox="0 0 98.666664 110.66667"
   xmlns="http://www.w3.org/2000/svg"
   xmlns:svg="http://www.w3.org/2000/svg">
  <defs
     id="defs189" />
  <g
     id="g191">
    <path
       style="fill:#000000;stroke-width:1.33333"
       d="m 87.752439,107.308 c -0.390569,-0.39057 -6.143087,-1.58884 -12.78337,-2.66283 -16.419821,-2.65571 -25.11787,-5.10029 -32.70629,-9.192088 -3.522137,-1.899194 -7.122137,-3.471805 -8,-3.49469 C 33.384916,91.935512 28.030742,87.585505 22.364614,82.291725 8.7555784,69.577003 5.2148617,62.112961 4.9982615,45.682417 4.7932291,30.129365 6.8670218,23.330274 13.848365,16.666667 25.382234,5.6577278 29.425334,3.7278566 42.311419,3.0805486 53.527121,2.5171491 54.33326,2.6722107 62.237554,6.9133643 71.545401,11.907612 76.064053,17.549798 78.498362,27.217317 80.308448,34.405825 78.785733,45.44184 74.986935,52.666668 72.126971,58.105956 62.907161,66.285237 58.683734,67.129922 54.905267,67.885615 38.972091,63.019903 35.331648,59.998604 31.985522,57.221566 26.666666,44.380085 26.666666,39.078465 c 0,-5.337099 5.173996,-12.90476 10.818652,-15.823726 3.919904,-2.027061 12.883265,-2.55678 15.245587,-0.900988 3.044507,2.133948 7.016721,9.229109 7.276843,12.997879 0.48356,7.006086 0.06239,8.188375 -3.494295,9.808907 -5.351661,2.43838 -8.513454,0.796675 -8.513454,-4.42046 0,-6.059449 -3.14728,-8.591744 -6.691677,-5.384109 -3.904896,3.533883 -3.377544,9.446607 1.25578,14.079931 7.825974,7.825975 21.734496,3.779455 25.422891,-7.39649 2.288717,-6.934883 0.421341,-13.330395 -5.945611,-20.362914 l -5.64532,-6.235455 -9.330117,0.08543 c -16.216106,0.148493 -24.733307,6.51151 -29.705193,22.192111 -1.753794,5.531207 -0.204111,15.222834 3.669378,22.94809 3.500448,6.981266 12.113702,16.27194 16.619273,17.926356 2.392828,0.87863 8.111956,3.35464 12.709174,5.502244 4.597218,2.147604 9.473944,3.904735 10.837168,3.904735 1.363224,0 4.501864,0.827544 6.974754,1.838988 2.472891,1.011444 8.026671,2.264676 12.341732,2.78496 8.376949,1.010044 14.743442,5.394395 13.912865,9.581236 -0.467257,2.35538 -5.540442,6.23503 -6.672657,5.10281 z"
       id="path511" />
  </g>
</svg>
