<?xml version="1.0" encoding="UTF-8" standalone="no"?>
<!-- Created with Inkscape (http://www.inkscape.org/) -->

<svg
   version="1.1"
   id="svg185"
   width="70.666664"
   height="210.66667"
   viewBox="0 0 70.666664 210.66667"
   xmlns="http://www.w3.org/2000/svg"
   xmlns:svg="http://www.w3.org/2000/svg">
  <defs
     id="defs189" />
  <g
     id="g191">
    <path
       style="fill:#000000;stroke-width:1.33333"
       d="m 39.202811,204.004 c -13.672021,-2.0047 -21.01502,-5.59345 -23.19744,-11.33733 -1.124002,-2.95824 2.4873,-11.35893 7.002189,-16.28864 2.397344,-2.6176 2.697359,-4.67443 2.625522,-18 C 25.45846,125.98638 19.634453,83.195225 13.10904,66.359216 10.016662,58.380672 14.203787,53.871301 24.099468,54.522953 29.809694,54.898984 32.023232,52.686049 31.043309,47.581006 30.341934,43.92709 30.108992,43.833679 22.16152,44.019381 9.4352838,44.316741 9.3243368,44.284765 7.4272007,39.772806 5.3451061,34.820961 6.0232596,31.898163 11.885688,20.557019 18.240255,8.2638103 29.796342,3.2592618 43.974342,6.660512 c 8.057105,1.9328697 15.097076,9.728615 18.189629,20.142374 3.535013,11.903681 1.997507,13.649839 -14.497306,16.464695 -4.648248,0.793228 -5,1.177305 -5,5.459504 v 4.606249 h 8.411826 c 5.044971,0 9.41836,0.735995 10.926569,1.838824 2.409467,1.761846 2.423471,2.166527 0.334516,9.666667 -4.764661,17.106948 -8.526221,45.999675 -10.368689,79.642415 -1.744542,31.85466 -1.959701,29.61884 3.362444,34.94099 4.166333,4.16633 4.666667,5.42885 4.666667,11.77573 0,5.17315 -0.75254,8.06579 -2.76344,10.62223 -2.974036,3.78088 -5.256629,4.05729 -18.033747,2.18381 z m 6.196734,-7.37157 c 4.323054,-2.23553 5.118929,-5.989 1.845871,-8.70539 -4.841662,-4.01822 -5.602832,-8.22061 -5.782878,-31.92704 -0.258556,-34.04363 2.58227,-58.977765 9.426637,-82.738266 0.75069,-2.606046 1.157724,-6.206046 0.904523,-8 -0.413104,-2.926874 -1.076344,-3.25144 -6.460366,-3.16147 -3.3,0.05514 -9.45,0.548318 -13.666667,1.095942 -6.315661,0.820222 -7.666666,1.445315 -7.666666,3.547268 0,3.409182 2.326772,13.404697 5.459469,23.453182 4.219009,13.532954 7.365075,50.116064 6.768115,78.701044 -0.199912,9.57268 -0.643744,11.39228 -3.650282,14.96534 -3.110785,3.69696 -3.262669,4.4014 -1.666666,7.72995 1.564454,3.26276 6.592546,7.00063 9.48891,7.05403 0.586417,0.0107 2.836417,-0.89576 5,-2.01459 z M 53.130399,32.647377 C 54.431505,31.346272 51.565861,24.803658 48.41647,21.884902 43.310314,17.152676 36.086732,15.539834 30.507147,17.886204 c -7.336689,3.085282 -14.492413,12.234904 -12.318981,15.75159 0.804221,1.301257 33.579557,0.37226 34.942233,-0.990417 z"
       id="path362" />
  </g>
</svg>
