<?xml version="1.0" encoding="UTF-8" standalone="no"?>
<!-- Created with Inkscape (http://www.inkscape.org/) -->

<svg
   version="1.1"
   id="svg175"
   width="212"
   height="206.66667"
   viewBox="0 0 212 206.66667"
   xmlns="http://www.w3.org/2000/svg"
   xmlns:svg="http://www.w3.org/2000/svg">
  <defs
     id="defs179" />
  <g
     id="g181">
    <path
       style="fill:#000000;stroke-width:1.33333"
       d="m 47.954435,198.44403 c -3.958092,-2.40705 -6.369063,-5.97263 -7.893914,-11.67425 -0.885688,-3.31171 -1.181344,-3.3884 -13.483033,-3.49731 C 13.752685,183.159 5.3270473,180.65704 5.3383175,176.96576 5.3466241,174.24692 10.345472,166.93239 13.261986,165.37152 17.177019,163.27626 16.642327,159.30563 12,156 c -7.9635633,-5.67056 -3.4206681,-15.15024 6.113604,-12.75729 2.003969,0.50296 5.697157,2.96805 8.207083,5.47799 l 4.563502,4.56349 5.278719,-4.24209 c 5.718307,-4.59536 12.578011,-5.63351 16.379161,-2.47884 2.966966,2.46237 2.820034,10.63029 -0.208736,11.60357 -11.516104,3.70063 -12.007001,5.05909 -4.333333,11.99179 4.046563,3.65582 5.337725,5.82642 5.35154,8.99653 0.03155,7.23939 1.371601,10.17819 4.641136,10.17819 4.443075,0 11.970105,-3.46764 16.957688,-7.81226 6.745076,-5.87556 12.036176,-8.07362 23.158233,-9.62056 11.636063,-1.61842 19.721633,-0.29116 30.196473,4.95686 17.50888,8.77213 33.65145,12.70369 55.02826,13.40226 17.7897,0.58135 24.66667,2.0324 24.66667,5.20472 0,4.4876 -5.46428,5.56911 -26,5.14602 -29.80107,-0.61398 -106.390119,-0.81068 -119.130661,-0.30596 -8.757714,0.34694 -11.937426,-0.0497 -14.914904,-1.86039 z m 70.712235,-11.11069 c 0,-1.53844 -1.9232,-2.05628 -8.33334,-2.24386 -9.95835,-0.2914 -15.938294,0.0711 -16.891007,1.02376 -1.817824,1.81782 4.24294,3.18115 14.224347,3.19968 8.89796,0.0165 11,-0.36177 11,-1.97958 z M 28.397469,77.000412 C 26.345528,76.424309 20.972388,76.327469 16.457157,76.785212 8.8456015,77.556853 8.0975241,77.388353 6.1865337,74.471813 3.6630439,70.620481 2.5340416,43.352965 4.0709323,23.37608 5.5050728,4.7347669 4.4640648,5.3333334 35.450308,5.3333334 h 24.488217 l 2.364071,3.6080981 c 2.081096,3.1762145 2.34888,6.8868605 2.237157,30.9999995 -0.137642,29.707433 -0.839381,33.432713 -6.88689,36.560001 -4.078194,2.108917 -22.407671,2.421544 -29.255394,0.49898 z M 50.191176,62.333334 c 3.128843,-6.000168 3.159965,-35.405971 0.04251,-40.16381 -2.65726,-4.055492 -8.739742,-5.203593 -21.460787,-4.050842 -9.516107,0.862326 -10.001293,1.07233 -11.683979,5.057169 -1.754785,4.155584 -2.111336,32.569003 -0.489773,39.029827 0.850313,3.387919 3.388252,3.917224 20.366613,4.247607 l 10.965763,0.213383 z m 76.775974,6.066523 C 119.29784,66.897945 118.35412,57.073624 124.76729,45.49873 126.54528,42.289698 128,38.526291 128,37.135606 c 0,-4.012295 10.52437,-14.358724 18.91315,-18.593362 12.74906,-6.435705 28.62305,-4.768569 42.12877,4.424494 8.85199,6.025368 17.35576,20.385713 18.55959,31.341651 1.30244,11.853336 1.4152,11.819081 -42.93484,13.043171 -15.4,0.42505 -29.5,0.968436 -31.33334,1.207525 -1.83333,0.239088 -4.69811,0.167436 -6.36618,-0.159228 z M 188.411,55.45142 c 3.52605,-0.534292 6.71693,-1.768698 7.09085,-2.743123 1.19428,-3.112236 -5.83242,-14.852487 -12.29313,-20.539428 -5.98089,-5.264595 -6.63137,-5.501881 -15.06311,-5.494766 -4.84676,0.0041 -11.21228,0.669887 -14.14561,1.479551 -6.85437,1.891952 -19.23704,13.908136 -19.55556,18.976781 -0.12227,1.944928 -0.27221,4.586233 -0.33333,5.869566 -0.0833,1.748849 1.22485,2.500329 5.22222,3 7.7372,0.967151 41.57042,0.588969 49.07767,-0.548581 z"
       id="path501" />
  </g>
</svg>
