<?xml version="1.0" encoding="UTF-8" standalone="no"?>
<!-- Created with Inkscape (http://www.inkscape.org/) -->

<svg
   version="1.1"
   id="svg75"
   width="205.33333"
   height="149.33333"
   viewBox="0 0 205.33333 149.33333"
   xmlns="http://www.w3.org/2000/svg"
   xmlns:svg="http://www.w3.org/2000/svg">
  <defs
     id="defs79" />
  <g
     id="g81">
    <path
       style="fill:#000000;stroke-width:1.33333"
       d="m 72.966093,144.52165 c -3.296915,-3.29692 1.664683,-11.67626 12.919323,-21.81865 6.008761,-5.41494 7.133009,-6.58198 10.781249,-11.19164 1.466667,-1.85318 8.066665,-9.02771 14.666665,-15.943415 6.6,-6.915702 13.8988,-14.74764 16.21956,-17.404308 2.32075,-2.656668 5.09728,-4.830305 6.17007,-4.830305 4.97241,0 5.59768,3.566497 6.06677,34.604568 0.38679,25.59232 0.1516,30.45092 -1.542,31.8565 -1.34905,1.11961 -11.24537,2.03034 -30.4564,2.80282 -15.651899,0.62936 -29.673255,1.5372 -31.15857,2.01742 -1.485313,0.4802 -3.135313,0.43836 -3.666667,-0.0929 z m 57.487557,-13.66046 c 1.28597,-1.57925 1.569,-4.6244 1.00948,-10.86119 -0.42763,-4.76667 -0.78177,-13.01667 -0.78699,-18.33334 -0.007,-7.323462 -0.45529,-9.666662 -1.84866,-9.666662 -1.01156,0 -6.15122,5.4 -11.42148,12.000002 -5.27026,6.6 -10.09463,12 -10.72081,12 -1.60547,0 -17.351858,15.92767 -17.351858,17.55161 0,0.87645 6.786833,1.0218 19.666668,0.42119 15.87934,-0.74048 20.0108,-1.33971 21.45365,-3.11161 z m 60.75851,-94.444387 c -1.2247,-2.795909 -2.99067,-7.18347 -3.9244,-9.750137 -2.42831,-6.675008 -5.26139,-6.594134 -8.72512,0.249065 -4.93424,9.748476 -7.82756,13.084268 -11.34868,13.084268 -2.30163,0 -3.73326,-1.086735 -4.83034,-3.666666 -0.85756,-2.016667 -2.56705,-4.866667 -3.79888,-6.333334 -1.23181,-1.466666 -3.07538,-4.466666 -4.09684,-6.666666 -1.02144,-2.2 -2.62992,-4 -3.5744,-4 -0.94446,0 -3.14061,3.502174 -4.8803,7.782612 -6.61382,16.272919 -11.53507,16.973249 -20.26646,2.884054 -3.18123,-5.133333 -6.53017,-9.480818 -7.44207,-9.661078 -0.9119,-0.180261 -3.84364,4.019738 -6.51498,9.333333 -4.45385,8.859233 -5.2285,9.693038 -9.33333,10.046144 -4.951999,0.425978 -4.851722,0.534564 -11.745316,-12.718399 -2.384044,-4.583333 -4.881953,-8.333333 -5.550909,-8.333333 -1.191927,0 -7.846803,13.321888 -7.846803,15.707913 0,2.268452 -4.865727,5.62542 -8.153714,5.62542 -2.377699,0 -4.63592,-1.820123 -8.228346,-6.632034 -2.7232,-3.647619 -4.951273,-7.474152 -4.951273,-8.503407 0,-1.029255 -0.794276,-2.530564 -1.765059,-3.336241 -2.178717,-1.808175 -4.901607,0.476929 -4.901607,4.113529 0,1.343015 -0.870979,2.776072 -1.93551,3.184571 -1.064529,0.408498 -2.61115,2.789937 -3.436933,5.292086 -1.005728,3.047386 -2.573441,4.81842 -4.748472,5.364319 -4.059636,1.018904 -5.968444,-0.545955 -9.834157,-8.062133 -1.683115,-3.272515 -4.391717,-7.200912 -6.019115,-8.729772 -2.591353,-2.434451 -3.164278,-2.532288 -4.612221,-0.787624 -0.909323,1.095668 -1.980848,4.565654 -2.381167,7.711081 -1.386209,10.891874 -5.283861,13.634548 -9.0437036,6.363815 -2.3841927,-4.61052 -1.4780368,-9.530107 4.2938316,-23.311523 5.666296,-13.52934033 8.466063,-13.42496222 17.882208,0.666667 3.920156,5.866667 7.745245,10.666666 8.500197,10.666666 1.282682,0 6.001708,-9.301177 6.001708,-11.829334 0,-2.7205127 5.760658,-8.1706651 8.636163,-8.1706651 2.380489,0 4.152109,1.7970082 7.558348,7.6666661 2.446988,4.216667 4.884928,8.716667 5.417646,10 1.846951,4.449357 5.03327,2.457396 8.45866,-5.288018 3.950985,-8.9338811 6.7566,-12.3786481 10.081875,-12.3786481 3.211728,0 8.380558,5.7596995 12.856338,14.3259961 2.0117,3.850238 4.254381,6.803073 4.983731,6.561853 0.72935,-0.241219 3.42935,-4.738387 6,-9.993707 2.57065,-5.2553206 5.7239,-9.8968389 7.00724,-10.3144853 5.15688,-1.6782484 6.80008,-0.035742 16.01115,16.0043363 1.28947,2.24547 3.06522,4.082673 3.9461,4.082673 0.88088,0 4.10029,-4.8 7.15425,-10.666666 7.7277,-14.84494481 9.88146,-14.97188204 17.99644,-1.060667 3.33351,5.7145 6.92292,10.555794 7.97648,10.758432 1.2193,0.234512 3.61184,-3.1573 6.58224,-9.331333 4.2586,-8.8515913 5.01644,-9.6997654 8.66667,-9.6997654 3.77145,0 4.45329,0.9005717 11.93333,15.7615334 8.52688,16.940746 8.75586,19.804243 1.65163,20.65527 -2.91588,0.349297 -3.84007,-0.406535 -5.70613,-4.666667 z"
       id="path779" />
  </g>
</svg>
