<?xml version="1.0" encoding="UTF-8" standalone="no"?>
<!-- Created with Inkscape (http://www.inkscape.org/) -->

<svg
   version="1.1"
   id="svg223"
   width="217.33333"
   height="216"
   viewBox="0 0 217.33333 216"
   xmlns="http://www.w3.org/2000/svg"
   xmlns:svg="http://www.w3.org/2000/svg">
  <defs
     id="defs227" />
  <g
     id="g229">
    <path
       style="fill:#000000;stroke-width:1.33333"
       d="m 80.923252,211.14548 c -2.763813,-2.76381 -0.372528,-7.84904 7.930603,-16.86492 C 108.74054,172.68676 138.05894,144 140.24153,144 c 4.16285,0 5.08188,4.75713 5.84351,30.24771 0.67342,22.53868 0.50409,25.55254 -1.66776,29.68452 -1.58139,3.0086 -3.80047,4.96796 -6.41728,5.66618 -5.18496,1.38348 -55.866612,2.7572 -57.076748,1.54707 z m 37.743408,-7.989 c 9.16667,-0.44059 17.24591,-1.34028 17.95388,-1.99932 1.24592,-1.15981 1.28694,-37.02747 0.0437,-38.27064 -0.93339,-0.93339 -15.33097,11.79163 -15.33091,13.54991 3e-5,0.85997 -5.70507,6.96357 -12.67799,13.56357 -12.649468,11.97295 -15.581071,16.46685 -9.655395,14.80095 1.650005,-0.46387 10.499995,-1.20388 19.666665,-1.64447 z m -78.283797,-77.341 c -0.889424,-0.36924 -4.392737,-4.56101 -7.785139,-9.31503 -3.392404,-4.75403 -6.837128,-8.42065 -7.654943,-8.14804 -0.817815,0.2726 -1.973815,2.25483 -2.568889,4.40495 -1.760087,6.35954 -6.874442,11.68666 -10.205025,10.62957 -3.6528126,-1.15936 -3.7693449,-6.79401 -0.282905,-13.6792 1.403946,-2.77259 3.799944,-7.84936 5.32444,-11.281725 2.779198,-6.257289 5.939352,-8.513564 9.832003,-7.019813 1.146609,0.439995 2.412932,1.655233 2.814048,2.700528 1.176961,3.067112 11.694248,16.55995 12.908014,16.55995 0.610911,0 2.246232,-2.55 3.634048,-5.66667 1.387815,-3.11667 4.421502,-7.686125 6.741526,-10.154352 3.939669,-4.191336 4.415509,-4.358365 7.205758,-2.529364 1.643143,1.077077 4.265485,4.596536 5.827427,7.821016 1.561942,3.22449 4.169174,7.05749 5.79385,8.51778 l 2.953958,2.65509 2.539482,-3.13613 c 1.396716,-1.72487 2.539483,-4.22363 2.539483,-5.55279 0,-3.13289 6.304464,-10.62125 8.942054,-10.62125 2.562364,0 10.988331,8.64091 13.995937,14.35296 1.24922,2.37254 3.04922,4.31207 4,4.31007 0.95077,-0.002 3.82867,-4.052 6.39534,-9 4.28926,-8.268803 4.99016,-8.973577 8.66667,-8.714606 2.2,0.154967 4.6,1.279499 5.33333,2.49896 0.73333,1.219463 3.13333,4.468139 5.33333,7.219286 2.2,2.75114 4.66278,6.12246 5.47284,7.49183 2.07351,3.50515 4.40994,1.24665 9.90019,-9.57003 2.44348,-4.814047 5.50104,-9.319221 6.79457,-10.011499 2.56592,-1.37324 4.55214,0.801464 13.20016,14.452849 2.44934,3.8664 4.99574,6.84901 5.65868,6.62803 0.66295,-0.22098 3.4032,-4.58378 6.08946,-9.69511 2.72294,-5.181143 5.90646,-9.482749 7.19457,-9.721401 3.09884,-0.574127 8.45807,5.418981 13.16364,14.720641 4.55372,9.00147 4.83107,12.42408 1.16572,14.38572 -2.31828,1.2407 -3.01484,0.86438 -5,-2.70131 -6.35711,-11.41842 -7.12163,-12.36391 -8.72848,-10.79472 -0.86791,0.84757 -3.37801,4.97767 -5.57801,9.17801 -3.67314,7.01291 -4.3706,7.63699 -8.53516,7.63699 -3.96288,0 -5.09391,-0.84124 -8.96323,-6.66667 -8.81781,-13.27559 -7.30581,-13.02327 -14.25437,-2.37875 -6.64375,10.17757 -8.1241,11.31468 -12.24724,9.40754 -2.86002,-1.32288 -12.66667,-14.5309 -12.66667,-17.06 0,-3.26362 -3.49906,-0.14579 -6.87055,6.12199 -8.26144,15.35843 -13.09205,16.18882 -21.293273,3.66034 -3.209896,-4.90355 -6.553382,-9.14261 -7.429966,-9.42015 -1.458414,-0.46175 -7.072876,9.74147 -7.072876,12.85361 0,2.00357 -5.544961,5.48209 -8.738789,5.48209 -1.892536,0 -4.163026,-2.08483 -6.943316,-6.37555 -2.272166,-3.50655 -5.303109,-7.43609 -6.735429,-8.73233 -2.51028,-2.27177 -2.708736,-2.22215 -5.501776,1.37555 -1.593657,2.05278 -4.234864,5.82817 -5.869348,8.38976 -2.918205,4.57346 -5.284234,5.82438 -8.495144,4.49138 z M 81.333332,76.37552 C 70.565644,74.540865 51.027667,68.365371 47.821557,65.783239 46.819701,64.976364 42.768386,62.693587 38.818638,60.7104 31.138768,56.854301 26.004574,56.872087 18.44562,60.780973 14.79515,62.668704 7.7724863,63.32804 6.3600924,61.915647 5.9470323,61.502587 6.0326464,59.552587 6.5503462,57.582313 7.5701563,53.701099 17.416609,47.371184 24.666666,45.936013 30.692762,44.743129 33.733478,42.027892 32.697745,38.764585 32.215149,37.244063 31.024925,36 30.052801,36 c -2.051268,0 -3.386135,-2.893005 -3.386135,-7.338643 0,-4.930734 10.994472,-13.44822 21.608925,-16.740568 C 61.557876,7.8009444 71.926842,6.3951115 92.666665,5.9022108 110.92542,5.4682748 125.74794,7.2740964 134.66666,11.019055 136.5,11.788869 140.7,12.86719 144,13.415324 c 7.9052,1.313064 15.24105,4.151207 18.60981,7.199887 3.30091,2.98728 3.58025,9.56828 0.58752,13.841004 -1.1748,1.677261 -1.9248,3.19355 -1.66667,3.36953 2.71554,1.851308 19.9213,8.840922 21.76298,8.840922 1.32785,0 5.01946,1.301092 8.20357,2.891314 l 5.78929,2.891315 6.62979,-3.608377 6.62977,-3.608378 1.96294,3.795907 c 3.90356,7.548635 -1.18515,9.706545 -24.26616,10.290279 -19.03262,0.481348 -27.89163,1.950752 -30.20714,5.010317 -0.75297,0.994924 -7.96904,3.468623 -16.0357,5.497109 -8.06667,2.028486 -16.16667,4.198344 -18,4.821907 -3.69675,1.257355 -37.413809,2.622471 -42.666668,1.72746 z m 5.333333,-13.772519 c 0,-0.768349 -1.413944,-2.718349 -3.142097,-4.333333 C 78.053765,53.157125 75.607312,46.887171 76.510927,40.29458 l 0.811796,-5.922699 -4.727924,0.886964 c -2.600357,0.48783 -7.253883,2.204156 -10.341168,3.814059 -3.087284,1.609903 -8.15733,4.020505 -11.26677,5.356893 -7.390164,3.176176 -7.63734,6.879227 -0.653528,9.790762 2.75,1.146468 6.617165,3.233328 8.593699,4.637466 5.189038,3.686312 27.739633,6.730746 27.739633,3.744976 z M 126,61.961552 c 2.93333,-1.056771 6.88229,-1.930436 8.77545,-1.941477 3.62843,-0.02116 19.26689,-4.608996 22.39537,-6.570094 1.01062,-0.633512 1.42256,-1.823188 0.91544,-2.643725 C 156.7544,48.651243 149.41909,45.044957 144,43.880964 c -2.56667,-0.551305 -7.96667,-1.942936 -12,-3.092511 -4.03334,-1.149574 -8.90963,-2.097257 -10.83622,-2.105961 -3.34523,-0.01512 -3.47354,0.244485 -2.85096,5.768032 0.92658,8.220557 -4.61423,14.465939 -15.32802,17.277132 L 95.333332,63.735328 108,63.80914 c 7.85304,0.04576 14.69345,-0.656364 18,-1.847588 z M 101.56168,48.460016 c 3.5534,-3.215788 3.1295,-9.033776 -0.8481,-11.640003 -4.432044,-2.903985 -7.282456,-2.710054 -10.96098,0.745739 -3.902839,3.666527 -3.873501,5.195056 0.183733,9.572884 3.736324,4.03156 8.084511,4.525791 11.625347,1.32138 z M 54.685488,30.566784 c 4.022982,-1.521603 8.814511,-3.250605 10.647844,-3.842228 18.988825,-6.127763 10.045118,-8.953888 -10.666666,-3.370564 -9.628624,2.595611 -12.763891,4.732164 -11.557505,7.875953 1.057629,2.756136 2.799892,2.656328 11.576327,-0.663161 z M 148,30 c 0,-1.396825 -1.40742,-2 -4.66667,-2 -5.37893,0 -5.952,0.902624 -1.66667,2.625117 C 146.12838,32.418511 148,32.233779 148,30 Z m -18.66667,-5.307931 c 0,-1.086028 -1.35,-2.223352 -3,-2.527385 -22.6507,-4.173676 -35.348479,-5.534944 -40.221338,-4.311933 -6.829757,1.71416 -3.20992,3.309417 8.888007,3.916932 13.170081,0.661354 25.714951,2.500826 27.202931,3.988802 1.74532,1.745327 7.1304,0.93994 7.1304,-1.066416 z"
       id="path251" />
  </g>
</svg>
