<?xml version="1.0" encoding="UTF-8" standalone="no"?>
<!-- Created with Inkscape (http://www.inkscape.org/) -->

<svg
   version="1.1"
   id="svg213"
   width="220"
   height="209.33333"
   viewBox="0 0 220 209.33333"
   xmlns="http://www.w3.org/2000/svg"
   xmlns:svg="http://www.w3.org/2000/svg">
  <defs
     id="defs217" />
  <g
     id="g219">
    <path
       style="fill:#000000;stroke-width:1.33333"
       d="m 26.971632,197.66666 c -2.155512,-2.75 -4.598108,-6.29593 -5.427991,-7.87986 -0.991061,-1.89156 -3.32604,-3.18688 -6.803956,-3.77447 -6.4300754,-1.08635 -7.7774247,-4.08912 -4.722988,-10.52587 1.99418,-4.20241 1.998378,-4.92308 0.05062,-8.68962 C 7.7296549,162.2763 8.3802,156.84237 11.719062,153 c 3.273922,-3.76764 12.926201,-3.14262 17.181372,1.11256 3.125456,3.12545 3.252002,3.63976 1.360873,5.53089 -1.146759,1.14676 -3.77468,2.14611 -5.839828,2.22079 -3.171573,0.11466 -3.697652,0.6459 -3.386828,3.42004 0.489309,4.36712 4.923637,8.90737 9.616163,9.84588 2.08855,0.4177 5.875586,2.58417 8.415636,4.81437 l 4.61827,4.05489 23.824307,-0.62865 c 13.103369,-0.34576 44.224303,-0.97436 69.157643,-1.39689 37.40501,-0.63387 45.67973,-1.11179 47.31397,-2.73266 2.38641,-2.36685 5.21823,-13.81525 5.2962,-21.4113 0.0679,-6.61636 2.46221,-8.9886 8.83057,-8.74919 6.10558,0.22953 14.89104,2.63207 15.96214,4.36512 0.46682,0.75536 0.7691,9.88905 0.67172,20.29709 -0.13895,14.85072 -0.60678,19.35419 -2.17354,20.92372 -1.73257,1.73564 -13.14106,2 -86.31196,2 H 41.940275 l -3.816616,3 c -5.176792,4.06915 -6.594126,3.81496 -11.152027,-2 z M 205.81671,177.00881 c 1.94006,-12.91847 -1.5443,-22.06349 -6.423,-16.8578 -2.25414,2.4052 -6.58408,20.56107 -5.54767,23.26189 0.57219,1.49111 2.22244,1.96496 5.80991,1.66822 5.00806,-0.41424 5.01133,-0.41851 6.16076,-8.07231 z M 120.66667,60.559918 c -4.4,-4.797482 -8.76917,-10.186069 -9.70925,-11.97464 -0.94009,-1.788569 -2.82789,-3.251945 -4.19511,-3.251945 -1.36723,0 -8.080161,5.1 -14.917638,11.333333 -14.788555,13.481873 -19.570172,14.866125 -18.529839,5.364282 0.158718,-1.449644 1.354815,-3.38254 2.657995,-4.295321 5.455017,-3.820844 21.356759,-20.131126 21.312555,-21.86011 -0.06116,-2.392132 -4.965567,-8.072181 -9.29707,-10.767417 -1.839761,-1.144774 -4.223946,-3.812412 -5.298192,-5.928087 -1.074244,-2.115673 -2.939605,-5.17668 -4.145246,-6.802235 -2.986259,-4.0263461 -1.840519,-9.7251219 1.943894,-9.6687068 1.564511,0.023323 4.009242,0.9233223 5.432738,1.9999999 1.423494,1.0766775 4.252384,1.9575955 6.286421,1.9575955 4.008483,0 6.458739,3.100979 6.458739,8.1740104 0,3.734603 6.362763,13.159323 8.884043,13.159323 1.0201,0 3.7885,-1.743266 6.152,-3.873924 17.54067,-15.8125849 23.45518,-19.7681857 25.90093,-17.3224357 2.51771,2.5177065 0.0909,7.8047057 -6.08625,13.2593367 -12.25438,10.821048 -17.51676,16.382021 -17.48206,18.474005 0.0194,1.171327 4.8281,7.402931 10.68593,13.848009 9.15511,10.072912 10.45409,12.085508 9.25109,14.333333 -2.55775,4.779194 -6.86305,3.046907 -15.30568,-6.158406 z"
       id="path390" />
  </g>
</svg>
