<?xml version="1.0" encoding="UTF-8" standalone="no"?>
<!-- Created with Inkscape (http://www.inkscape.org/) -->

<svg
   version="1.1"
   id="svg203"
   width="212"
   height="221.33333"
   viewBox="0 0 212 221.33333"
   xmlns="http://www.w3.org/2000/svg"
   xmlns:svg="http://www.w3.org/2000/svg">
  <defs
     id="defs207" />
  <g
     id="g209">
    <path
       style="fill:#000000;stroke-width:1.33333"
       d="m 79.224615,216.17909 c -2.933867,-0.55924 -4.508148,-2.54345 -4.537531,-5.71909 -0.02089,-2.2586 11.833169,-15.19582 41.333126,-45.1099 17.97662,-18.22897 20.86436,-20.45341 24.15888,-18.60972 1.77312,0.9923 2.26426,5.75731 3.07435,29.82732 0.53025,15.75551 0.57264,29.87979 0.0941,31.3873 -1.59354,5.02084 -7.4112,6.7029 -23.61473,6.82776 -8.28642,0.0639 -20.215137,0.51386 -26.508265,1 -6.293128,0.48614 -12.593128,0.66449 -14,0.39633 z m 39.742425,-10.39879 14.30038,-0.73972 0.81826,-4.3617 c 1.14623,-6.10995 0.15997,-34.89522 -1.24162,-36.23806 -0.63577,-0.60912 -3.93577,2.18751 -7.33333,6.21472 -3.39757,4.02723 -12.16836,13.5047 -19.49066,21.06104 -10.758411,11.10231 -12.933306,13.99031 -11.333331,15.04934 1.08896,0.72077 3.779928,0.9603 5.979931,0.53229 2.2,-0.42801 10.43517,-1.11107 18.30037,-1.51791 z M 36.831447,127.60953 C 35.627704,126.72429 32.357591,122.7 29.564531,118.66666 23.014205,109.20764 20.271521,109.0612 17.078383,118 c -3.350034,9.37801 -9.2192199,13.19104 -11.1141819,7.22054 -0.5813318,-1.83162 0.4699814,-5.35547 3.0828685,-10.33333 2.1807694,-4.15464 4.6872864,-9.81431 5.5700384,-12.57707 1.034343,-3.237185 2.965195,-5.726568 5.430588,-7.001472 4.304507,-2.225948 3.122683,-3.251101 13.012112,11.287132 2.717105,3.99436 5.540192,7.24964 6.273525,7.23397 1.93942,-0.0414 7.402211,-8.54473 8.2727,-12.87713 1.522438,-7.577113 9.478935,-7.89172 13.272875,-0.52482 3.354552,6.51372 8.574723,12.90551 10.539923,12.90551 0.972946,0 2.551733,-1.4214 3.508414,-3.15867 0.956682,-1.73726 3.11653,-5.6665 4.799662,-8.73163 1.683132,-3.065123 3.97268,-5.923093 5.087884,-6.351037 2.705553,-1.038218 10.238374,6.373097 13.237506,13.023977 2.917083,6.46893 7.459933,7.18489 9.839333,1.5507 0.85167,-2.01667 3.27064,-5.75346 5.37551,-8.30398 l 3.82702,-4.637311 4.79023,2.2843 c 3.05907,1.458771 6.4901,4.941621 9.49389,9.637311 2.58701,4.04415 5.13523,7.34891 5.66269,7.3439 1.54387,-0.0147 6.95903,-8.61504 6.95903,-11.05236 0,-1.22639 1.68539,-4.11607 3.74531,-6.421517 5.18578,-5.803904 8.10668,-4.462368 14.95222,6.867417 3.08463,5.10523 6.43095,9.28223 7.43626,9.28223 1.0053,0 3.58793,-3.45 5.73918,-7.66666 8.2436,-16.158291 10.20187,-16.071672 19.98762,0.88409 7.07789,12.26385 8.08453,16.0617 4.94734,18.66534 -2.42086,2.00914 -5.1213,-0.62528 -9.50154,-9.26928 -1.79063,-3.53362 -3.77987,-6.74874 -4.42055,-7.1447 -1.44524,-0.89321 -5.89997,3.86946 -8.60319,9.19788 -1.1161,2.2 -3.56582,5.43536 -5.44382,7.18969 l -3.41454,3.1897 -4.12545,-4.41631 c -2.269,-2.42897 -5.43947,-7.13413 -7.04548,-10.4559 -1.60601,-3.32178 -3.63971,-6.25969 -4.51931,-6.5287 -0.87961,-0.26901 -3.06697,2.40078 -4.8608,5.93287 C 145.11093,121.65277 139.61497,128 136.96275,128 c -2.12159,0 -5.53849,-3.66473 -10.87772,-11.66667 -4.97449,-7.45531 -8.12305,-7.4268 -11.45416,0.10372 -7.06767,15.97764 -11.44298,16.60934 -20.586031,2.97218 -3.642006,-5.43217 -7.105432,-9.57779 -7.696504,-9.21248 -0.591072,0.3653 -2.812288,4.10637 -4.936038,8.31349 -6.737086,13.3461 -10.414237,13.79178 -18.111617,2.19519 -6.622868,-9.97778 -8.409412,-11.28889 -10.885111,-7.98843 -1.079392,1.43899 -2.888834,4.88939 -4.020985,7.66756 -2.481607,6.0896 -8.226204,9.67898 -11.563137,7.22498 z M 70.78628,76.677867 c -3.234212,-1.781252 -6.504212,-3.862467 -7.266667,-4.624921 -0.762453,-0.762454 -2.94628,-1.38628 -4.852946,-1.38628 -1.906667,0 -4.074546,-0.607879 -4.817507,-1.35084 C 53.106197,68.572863 48.453657,67.118731 43.510184,66.084422 38.566709,65.050112 31.565631,62.65799 27.952232,60.768595 24.338833,58.8792 19.337843,57.333332 16.83892,57.333332 c -5.962603,0 -10.821352,-3.85439 -9.6220484,-7.633061 0.8705543,-2.742874 13.3337074,-14.316282 21.6432534,-20.098142 2.306403,-1.604817 7.36184,-3.649199 11.234304,-4.543071 6.624926,-1.529216 7.197276,-1.99548 9.68894,-7.893081 1.570918,-3.718255 3.96285,-6.866901 5.880244,-7.7405246 5.394808,-2.458039 44.476007,-2.0312654 57.669717,0.6297636 11.55452,2.330421 25.92218,8.479469 27.02727,11.567092 0.33681,0.941064 0.0657,2.773425 -0.60243,4.071914 -2.43657,4.735235 -0.0787,5.377666 16.76858,4.56871 18.27088,-0.877318 25.96709,-3.327251 37.84684,-12.04779 3.8091,-2.796148 7.98333,-4.883302 9.27604,-4.638122 3.18933,0.604901 3.72408,6.71288 1.15077,13.144209 -1.29229,3.229779 -2.03913,9.154285 -1.99551,15.829962 0.0609,9.318798 0.39391,10.771335 2.63242,11.481807 2.10541,0.668235 2.56269,2.080406 2.56269,7.9142 0,5.245041 -0.5512,7.312345 -2.10905,7.910149 -3.2085,1.231216 -3.46146,1.143975 -11.26924,-3.886541 -7.06159,-4.549747 -9.05291,-5.352472 -23.28838,-9.387822 -11.3598,-3.220181 -38.84212,1.841502 -42.53053,7.833254 -1.22548,1.990758 -0.69461,3.02858 3.1972,6.250428 3.89021,3.220526 4.42236,4.260188 3.19833,6.248642 -2.09911,3.410029 -9.80021,2.428516 -18.52813,-2.36143 -7.47914,-4.104603 -13.7423,-4.776379 -28.265408,-3.031698 -6.220036,0.747222 -6.969935,1.187992 -7.333333,4.310343 -0.532112,4.571957 -3.130948,4.785556 -10.285179,0.845344 z m 44.54705,-18.984873 c 5.13334,-1.535412 12.63334,-4.315111 16.66667,-6.177111 4.46585,-2.061674 12.15591,-4.00052 19.66667,-4.958438 16.67089,-2.126196 16.67089,-4.626271 0,-5.701508 C 137.18944,39.922186 129.68709,38.916658 126,37.415875 114.0071,32.53432 72.932569,28.59403 61.545804,31.232769 c -3.862267,0.895031 -4.311535,1.413275 -3.380688,3.899717 0.590431,1.577132 1.050189,7.517513 1.021688,13.200847 -0.04517,9.006211 0.250481,10.333333 2.301997,10.333333 1.294602,0 2.742447,0.62881 3.217435,1.397357 0.562741,0.910535 7.906325,1.227217 21.078689,0.908993 15.582115,-0.37644 22.354115,-1.128166 29.548405,-3.280022 z M 49.066667,54.399999 c 0.88,-0.88 1.6,-4.458889 1.6,-7.953088 0,-5.068109 -0.560435,-6.653024 -2.770855,-7.836005 -4.465024,-2.389608 -6.735823,-0.636444 -6.2892,4.855559 0.54532,6.705678 -2.883345,8.970813 -7.299289,4.822249 -4.003182,-3.760793 -6.619015,-3.802356 -6.066724,-0.09639 0.321205,2.155346 2.23092,3.446258 7.759401,5.245134 8.874329,2.887559 10.986089,3.043121 13.066667,0.962544 z M 192,42.524014 c 0,-8.512735 -0.23719,-9.375421 -2.33333,-8.486684 -1.28334,0.544116 -5.33334,1.700183 -9,2.569039 -5.61592,1.330753 -6.72983,2.108429 -7.06742,4.934145 -0.47036,3.937141 1.31155,5.672145 8.47759,8.254451 C 191.80055,53.298934 192,53.152786 192,42.524014 Z M 121.33333,24.212173 c 0,-1.353229 -10.91219,-3.800404 -22.33333,-5.008484 -9.988049,-1.056495 -11.792837,1.495508 -2,2.828037 3.48333,0.473984 9.03333,1.343643 12.33333,1.932575 8.32841,1.486325 12,1.562165 12,0.247872 z"
       id="path529" />
  </g>
</svg>
