<?xml version="1.0" encoding="UTF-8" standalone="no"?>
<!-- Created with Inkscape (http://www.inkscape.org/) -->

<svg
   version="1.1"
   id="svg193"
   width="141.33333"
   height="216"
   viewBox="0 0 141.33333 216"
   xmlns="http://www.w3.org/2000/svg"
   xmlns:svg="http://www.w3.org/2000/svg">
  <defs
     id="defs197" />
  <g
     id="g199">
    <path
       style="fill:#000000;stroke-width:1.33333"
       d="m 105.38643,211.39732 c -0.88371,-1.06481 -1.25718,-3.16481 -0.82992,-4.66667 0.42725,-1.50186 1.14513,-4.01849 1.59529,-5.59253 0.68471,-2.39412 0.36796,-2.74405 -1.93803,-2.14103 -4.600932,1.20318 -6.948099,-1.78581 -7.787278,-9.91668 -0.723072,-7.00589 -0.389741,-8.24466 4.814828,-17.8936 3.07543,-5.70165 6.18154,-13.40117 6.90247,-17.11005 1.88638,-9.70469 5.17186,-47.77519 5.06954,-58.743427 -0.0817,-8.76148 -0.48664,-9.98688 -6.60859,-20 C 103.0179,69.466667 97.258659,59.066479 93.806423,52.221805 89.740199,44.159789 85.938025,38.562967 83.010347,36.329919 77.172286,31.877012 73.40554,24.460517 74.677033,19.922135 78.358586,6.7814557 87.760182,6.7426447 89.976173,19.858975 c 1.034516,6.123248 1.945755,6.707234 4.381061,2.807689 1.990958,-3.188031 7.294306,-3.496385 9.726686,-0.565543 1.87694,2.26157 4.66069,7.362535 11.76079,21.550534 2.48126,4.958256 5.00172,9.915009 5.60103,11.015009 7.34709,13.485261 14.55594,32.899775 14.5421,39.164055 -0.012,5.34517 -5.47711,29.463501 -7.89394,34.835941 -1.74414,3.87711 -4.07381,13.1753 -6.32102,25.22848 -1.7762,9.52687 -1.75331,11.64959 0.23365,21.66283 1.8098,9.12047 1.91405,11.99377 0.58437,16.10487 -3.62241,11.19965 -10.3838,21.67049 -13.99339,21.67049 -0.88238,0 -2.32736,-0.87121 -3.21108,-1.93601 z m 6.02561,-19.90288 c 1.08295,-4.31484 0.22417,-10.32933 -1.40918,-9.86923 -1.66343,0.46858 -2.22995,13.04146 -0.58764,13.04146 0.66035,0 1.55892,-1.42751 1.99682,-3.17223 z m 12.33956,-89.68812 c 0.0316,-5.480216 0.67127,-9.243627 1.67675,-9.865043 2.80651,-1.734524 0.3233,-8.965546 -10.77881,-31.387468 C 105.3131,41.697853 98.666664,31.344927 98.666664,35.657816 c 0,2.609147 11.875276,25.149345 14.502576,27.527021 1.4335,1.2973 3.92654,5.611426 5.54009,9.586946 C 120.32287,76.747301 122.25089,80 122.9938,80 c 0.8778,0 1.00849,3.384713 0.37324,9.666667 -0.53763,5.316666 -1.22697,12.216663 -1.53185,15.333333 -0.30489,3.11667 -0.01,5.66667 0.65548,5.66667 0.66539,0 1.23281,-3.98716 1.26093,-8.86035 z M 33.028665,209.66667 c -3.162546,-3.59736 -7.695332,-13.23855 -7.695332,-16.36787 0,-1.54409 -0.665382,-4.05072 -1.478626,-5.57028 -0.813244,-1.51956 -1.43221,-8.23012 -1.375481,-14.91235 C 22.601914,158.36468 21.171538,150.09149 15.768176,134 13.551962,127.4 10.931214,118.4 9.9442916,114 8.9573691,109.6 7.1660626,102.42979 5.9636105,98.066203 3.3515267,88.587189 4.0746363,81.043721 8.5901039,70.666667 10.345167,66.633333 13.030374,60.489872 14.55723,57.014531 c 1.526856,-3.47534 2.776103,-6.717446 2.776103,-7.204678 0,-0.800424 3.873728,-9.464081 8.800009,-19.68137 1.026661,-2.129335 1.866657,-4.605868 1.866657,-5.503407 0,-0.89754 0.895694,-2.375249 1.990431,-3.283801 1.094737,-0.908551 2.606069,-3.938216 3.358516,-6.732591 1.732719,-6.434826 8.08151,-11.9420173 13.766978,-11.9420173 4.660697,0 10.739853,4.6779701 12.246,9.4234183 1.690283,5.32561 -0.754279,14.254466 -6.216295,22.705267 -2.963953,4.585812 -5.954731,9.882871 -6.646174,11.771244 -1.290393,3.524136 -2.222757,5.562332 -11.880609,25.971609 -5.414953,11.443052 -5.582743,12.188987 -4.648716,20.666667 0.532949,4.83732 1.094435,12.095128 1.247743,16.128458 0.153308,4.03334 0.712973,10.93334 1.2437,15.33334 0.530728,4.4 1.155092,12.94204 1.387476,18.98229 0.402264,10.45585 0.69729,11.38263 6.154526,19.33333 5.009375,7.29823 5.812419,9.47356 6.369836,17.25504 0.597912,8.34675 0.413141,9.11223 -2.952379,12.23128 -3.543898,3.28438 -3.564258,3.40171 -1.578425,9.09602 1.912319,5.48349 1.876237,5.88406 -0.729791,8.10204 C 39.60495,210.95 37.630704,212 36.725604,212 c -0.905101,0 -2.568723,-1.05 -3.696939,-2.33333 z m 2.412405,-30.67004 c -1.538323,-1.53832 -2.327524,0.8709 -1.278488,3.90289 L 35.235314,186 l 0.49008,-3.11448 c 0.269544,-1.71297 0.141597,-3.46297 -0.284324,-3.88889 z M 19.001234,92 c -0.952597,-8.986397 -0.760193,-10.540588 1.898216,-15.333333 1.627044,-2.933334 3.940716,-7.433334 5.141495,-10 2.474117,-5.288428 3.588436,-7.521524 5.65536,-11.333334 2.772458,-5.112956 6.970361,-14.851661 6.970361,-16.170526 0,-2.549028 5.110477,-11.881158 7.87788,-14.385623 2.666866,-2.413481 3.884398,-7.46622 1.788786,-7.423433 -2.376872,0.04853 -4.901618,2.75628 -7.621165,8.173584 -1.603072,3.193298 -4.175821,8.205998 -5.71722,11.139332 C 33.453549,39.6 30.591034,46.5 28.633803,52 24.925054,62.421929 22.794689,67.64378 18.534756,76.754299 c -2.879719,6.158721 -3.274012,16.004573 -0.95761,23.912371 2.106375,7.1908 2.713427,3.49642 1.424088,-8.66667 z"
       id="path668" />
  </g>
</svg>
