<?xml version="1.0" encoding="UTF-8" standalone="no"?>
<!-- Created with Inkscape (http://www.inkscape.org/) -->

<svg
   version="1.1"
   id="svg2"
   width="214.66667"
   height="150.66667"
   viewBox="0 0 214.66667 150.66667"
   xmlns="http://www.w3.org/2000/svg"
   xmlns:svg="http://www.w3.org/2000/svg">
  <defs
     id="defs6" />
  <g
     id="g8">
    <path
       style="fill:#000000;stroke-width:1.33333"
       d="m 7.6322361,145.15403 c -3.7356188,-2.09056 -2.7119739,-7.67239 3.9405419,-21.48736 5.036609,-10.45929 6.819109,-13 9.120494,-13 2.932648,0 8.123286,5.63487 13.817461,15 1.672052,2.75 3.900865,5 4.952918,5 1.052055,0 2.86958,-2.25 4.038947,-5 4.564367,-10.73402 6.310383,-13.6392 8.641923,-14.3792 3.051623,-0.96855 7.85548,1.51922 7.85548,4.0681 0,3.07356 8.468391,13.88567 10.630592,13.57272 1.080159,-0.15633 3.180159,-2.41666 4.666667,-5.02295 1.486508,-2.60628 3.994631,-6.48745 5.573607,-8.62482 2.534422,-3.4307 3.300949,-3.73345 6.54077,-2.58332 3.173562,1.1266 6.354204,4.91415 13.535543,16.11826 1.54228,2.40624 1.7492,2.36029 4.66666,-1.0363 1.67906,-1.9548 4.67974,-6.3048 6.66819,-9.66667 1.98845,-3.36187 4.59845,-6.11249 5.8,-6.11249 2.31936,0 8.29021,5.62914 14.14271,13.33334 4.41793,5.81573 6.48028,4.90445 11.84185,-5.2325 5.61073,-10.60806 8.52909,-11.79873 14.13628,-5.7675 1.87488,2.01666 4.85635,6.51666 6.62547,10 1.76912,3.48333 3.79893,6.33333 4.51069,6.33333 0.71176,0 3.4092,-4.2 5.99431,-9.33333 4.10674,-8.15493 5.16102,-9.33076 8.35009,-9.31292 5.11353,0.0286 5.90203,0.7988 11.58171,11.31292 2.77301,5.13333 6.20301,11.25309 7.62222,13.59945 2.56708,4.24412 2.56607,4.28045 -0.19596,7.04248 -3.75125,3.75125 -6.03053,2.2444 -11.27425,-7.45355 -2.33433,-4.31718 -5.10813,-8.01279 -6.16403,-8.21246 -1.1577,-0.21892 -3.50761,2.63773 -5.91978,7.19636 -4.83575,9.13881 -7.16487,10.8656 -12.26298,9.09162 -2.58434,-0.89928 -4.97933,-3.63376 -7.76464,-8.8653 -2.21518,-4.16072 -4.4615,-7.99883 -4.99182,-8.52915 -1.20587,-1.20588 -6.3139,3.28485 -6.3139,5.55087 0,2.83409 -6.97038,12.49637 -9.62202,13.33797 -3.35179,1.06381 -5.7261,-1.12481 -12.00414,-11.06539 -2.90375,-4.59776 -5.76849,-8.35957 -6.36608,-8.35957 -0.5976,0 -2.86956,3.15 -5.0488,7 -6.70163,11.83953 -8.76793,13.81883 -12.60238,12.07173 -1.80951,-0.82446 -5.682661,-5.00288 -8.607,-9.28538 -2.924339,-4.28249 -6.194037,-7.95718 -7.265996,-8.16598 -1.239531,-0.24143 -3.360557,2.57367 -5.82664,7.73331 -2.132693,4.46211 -4.652428,8.75596 -5.599412,9.54188 -2.511592,2.08444 -9.025074,-0.96727 -10.914248,-5.11355 C 61.832313,135.37666 55.892196,128 54.118868,128 c -0.860546,0 -3.339333,3.57832 -5.508415,7.95182 -6.358584,12.82073 -11.874138,12.66621 -19.951457,-0.55899 -2.929114,-4.79591 -5.765554,-8.72126 -6.303201,-8.723 -1.290541,-0.004 -7.689128,12.67707 -7.689128,15.23893 0,2.86759 -4.225744,4.81708 -7.0344309,3.24527 z M 78.666668,77.261462 c -3.3,-0.63122 -9,-1.708308 -12.666667,-2.39353 C 56.985173,73.183255 45.098614,68.560147 35.85931,63.145139 27.016994,57.9628 23.842362,57.658056 16.985087,61.333335 c -2.736481,1.466666 -6.777596,2.666666 -8.9802543,2.666666 -3.5464228,0 -4.0048326,-0.450514 -4.0048326,-3.935864 0,-3.633973 0.8701021,-4.343606 11.3438879,-9.251788 C 21.583027,47.88859 27.060966,44.52391 27.517084,43.335282 28.032566,41.99196 27.01945,39.78911 24.839863,37.514111 19.020891,31.440413 20.462676,28.386765 33.114586,19.988564 46.625425,11.020215 88.348917,3.1916857 97.249324,7.9550392 c 1.816708,0.9722725 4.901916,1.2714957 7.699216,0.7467194 6.58045,-1.2345011 27.78302,3.8355024 39.05146,9.3380684 3.3,1.611445 8.19207,3.328032 10.87127,3.814637 6.4426,1.170127 8.95256,7.752089 4.39772,11.53227 -3.79085,3.146136 -1.68751,6.68847 5.86023,9.869444 3.92106,1.652524 7.59616,3.760124 8.16686,4.683556 0.57072,0.923431 2.16258,1.345718 3.53746,0.938414 3.23692,-0.95892 29.46088,-1.694847 30.30526,-0.850462 0.35444,0.354447 1.04736,2.249808 1.53983,4.211915 1.86447,7.428634 -8.74745,9.092799 -36.33412,5.697931 -6.16256,-0.758379 -7.44657,-0.474884 -10.86072,2.397928 -4.02272,3.384901 -33.04525,13.443232 -44.81712,15.532259 -10.59905,1.8809 -31.454211,2.645813 -38.000002,1.393743 z M 122.66667,63.717473 c 6.96667,-1.468965 14.63703,-3.506337 17.04524,-4.527493 2.40821,-1.021155 5.19173,-1.856645 6.18561,-1.856645 0.99388,0 3.13514,-1.075408 4.75834,-2.389796 4.3293,-3.505659 2.53021,-4.669933 -19.98919,-12.935909 -2.56667,-0.942121 -7.8804,-2.14432 -11.80829,-2.671552 l -7.14163,-0.958602 0.87216,5.16225 c 1.05332,6.234548 -1.89295,14.210474 -6.26253,16.953443 -1.64617,1.033375 -6.07562,2.641307 -9.84322,3.573182 -6.395115,1.581764 -7.2775,1.480833 -13.282821,-1.51935 -7.919338,-3.956398 -10.974169,-8.967677 -11.102887,-18.213667 -0.09085,-6.525753 -0.320218,-7 -3.385548,-7 -3.318547,0 -7.608474,1.596227 -20.355187,7.573902 -7.833174,3.67343 -8.723566,4.585338 -7.525527,7.707377 1.187613,3.094872 18.238066,11.381348 23.468859,11.405806 2.40164,0.0112 5.266619,0.616145 6.366619,1.344257 3.601049,2.383608 38.060462,1.292037 52.000002,-1.647203 z M 98.400002,50.400001 c 5.068958,-5.06896 -1.366164,-14.916956 -9.254107,-14.162026 -4.145728,0.396774 -4.510619,0.810703 -4.900844,5.559485 -0.283794,3.453558 0.328586,5.95976 1.873316,7.666666 2.589169,2.861 9.806537,3.410973 12.281635,0.935875 z M 53.61355,31.837285 c 2.720786,-1.377174 6.43649,-2.503951 8.25712,-2.503951 1.820631,0 5.594534,-1.35 8.386451,-3 4.353187,-2.572697 6.975339,-3 18.409547,-3 9.072595,0 15.889772,0.775267 21.333332,2.426081 4.4,1.334344 10.7,3.233046 14,4.219338 8.99123,2.68726 19.33334,3.130825 19.33334,0.829192 0,-1.13594 -3.37012,-2.855216 -8.66667,-4.421323 -4.76667,-1.409429 -11.64574,-3.477409 -15.28683,-4.595511 -7.88456,-2.42118 -46.947047,-3.767137 -54.046506,-1.862253 -2.566666,0.688672 -8.566666,2.264017 -13.333333,3.500769 -10.323419,2.678496 -16.095478,7.242194 -13.347528,10.553271 2.076352,2.501851 7.243384,1.760831 14.961077,-2.145613 z"
       id="path30" />
  </g>
</svg>
