<?xml version="1.0" encoding="UTF-8" standalone="no"?>
<!-- Created with Inkscape (http://www.inkscape.org/) -->

<svg
   version="1.1"
   id="svg173"
   width="325.33334"
   height="213.33333"
   viewBox="0 0 325.33334 213.33333"
   xmlns="http://www.w3.org/2000/svg"
   xmlns:svg="http://www.w3.org/2000/svg">
  <defs
     id="defs177" />
  <g
     id="g179">
    <path
       style="fill:#000000;stroke-width:1.33333"
       d="m 188.41983,207.72322 c -3.49581,-0.9354 -5.71232,-3.15614 -5.71232,-5.72322 0,-4.09164 2.58145,-4.75254 21.39269,-5.47687 12.13288,-0.46717 20.21759,-1.36973 21.8998,-2.44485 2.3998,-1.53372 4.35399,-5.26094 12.81782,-24.44728 3.32485,-7.53698 3.2287,-8.57807 -1.6746,-18.13274 -3.97655,-7.74877 -10.38607,-29.10188 -10.45534,-34.8316 C 226.67015,115.2 222.7292,109.5 217.9302,104 207.47674,92.019569 202.54026,84.981529 197.27562,74.552312 c -3.25343,-6.444982 -3.95543,-9.505361 -4.01754,-17.51429 -0.0413,-5.337579 -0.7914,-11.804689 -1.66666,-14.371356 -1.50026,-4.399329 -1.97139,-4.690648 -8.22423,-5.085285 -7.82896,-0.494114 -10.04896,-1.992706 -9.99145,-6.744641 0.0527,-4.355395 2.12984,-7.157662 7.29093,-9.836283 2.2,-1.141805 5.5,-4.4771 7.33333,-7.411764 4.33828,-6.9443872 6.86315,-8.4051471 15.95258,-9.2293479 14.19824,-1.2874509 21.16868,4.7909257 33.45404,29.1726299 6.83467,13.564198 6.63216,13.350842 28.59339,30.123981 14.2103,10.853282 15.72929,12.382447 27.17886,27.360973 5.41506,7.084052 10.21506,13.053261 10.66667,13.264911 0.45163,0.21166 3.96613,5.08361 7.81003,10.82656 7.9403,11.86319 7.85012,14.23133 -0.64532,16.94525 -2.75564,0.8803 -8.31024,3.774 -12.34358,6.43045 -4.03333,2.65644 -10.03333,5.78091 -13.33333,6.94323 -5.66207,1.99431 -5.98027,2.37033 -5.64969,6.67633 0.65466,8.52747 0.63256,9.89266 -0.31143,19.22967 -0.51899,5.13333 -1.87108,12.28213 -3.00465,15.88621 -1.93524,6.15288 -1.91242,6.66156 0.37386,8.33334 1.3392,0.97925 4.67982,1.78045 7.42356,1.78045 6.12658,0 8.339,4.13345 4.30794,8.04849 -2.26859,2.20331 -6.35863,2.43824 -49.50009,2.8433 -25.86493,0.24285 -48.61378,0.0171 -50.55301,-0.5019 z M 264.24855,192 c 0.50338,-2.56667 1.86106,-9.16667 3.0171,-14.66667 1.15602,-5.5 2.09418,-10.71351 2.08478,-11.58557 -0.0169,-1.56726 -10.15989,-14.05814 -12.01502,-14.79624 -0.5278,-0.21 -1.33667,2.36885 -1.79748,5.7308 -0.95258,6.9498 -5.90171,20.63173 -11.22892,31.04245 -4.4973,8.78885 -3.47482,9.76848 9.691,9.28479 l 9.33333,-0.3429 z m 0.6086,-52.66667 c 1.31519,-1.31519 4.6318,-2 9.68624,-2 7.24898,0 8.17279,-0.38909 16.2381,-6.83915 4.70352,-3.76152 8.739,-7.62595 8.96772,-8.5876 0.86028,-3.61683 -17.60218,-28.064591 -29.93462,-39.639085 -14.56932,-13.673892 -16.59588,-15.351379 -21.16546,-17.519791 -6.14517,-2.916072 -9.14874,-2.610404 -13.93658,1.418295 -4.03384,3.394249 -4.08696,3.578689 -1.76897,6.14188 2.07724,2.296964 11.13255,7.69212 12.91057,7.69212 0.34488,0 0.81879,-1.35 1.05312,-3 0.30091,-2.118734 1.46796,-3.120536 3.97287,-3.410329 2.88005,-0.333195 4.4466,0.768101 8.33333,5.858402 5.38422,7.051496 6.28364,13.789275 2.7523,20.618138 -3.15559,6.10224 -7.22952,5.23106 -11.46424,-2.451556 -3.49458,-6.339829 -4.60326,-7.130742 -18.84771,-13.445713 -10.55552,-4.679556 -14.1212,-13.570977 -9.40687,-23.457039 1.76927,-3.710187 3.02809,-4.711903 5.92132,-4.711903 4.84771,0 5.71215,-1.741145 3.23895,-6.523798 -1.11931,-2.164495 -3.01674,-6.832115 -4.21651,-10.37249 -2.19624,-6.480864 -9.41092,-17.770378 -11.35632,-17.770378 -0.57579,0 -1.44483,2.121177 -1.93119,4.713727 -0.92254,4.917577 -6.05516,8.908719 -9.76548,7.593681 -1.55322,-0.5505 -1.70528,1.526745 -0.91624,12.516274 1.10239,15.353848 3.36171,23.003705 8.8349,29.91416 2.169,2.73858 3.94362,5.538304 3.94362,6.22161 0,0.683307 1.58151,2.696964 3.51446,4.474795 1.93293,1.777831 4.62006,5.689832 5.97137,8.693336 2.96351,6.586854 12.31872,18.379764 23.18084,29.221074 4.4,4.39157 9.0221,9.93467 10.27132,12.31801 2.57378,4.91037 3.12488,5.12761 5.91916,2.33333 z M 9.8580101,138.11077 c -0.4765647,-1.24191 -0.3395752,-3.37659 0.3044209,-4.74373 1.479587,-3.14104 24.656164,-29.34885 37.83757,-42.786311 5.5,-5.606837 11.866018,-12.381208 14.146704,-15.054157 4.59026,-5.379749 10.225978,-6.537544 12.29843,-2.526573 1.582149,3.062053 3.295848,48.672521 2.107456,56.090391 -1.518607,9.47905 -2.901412,9.88066 -36.597608,10.62913 -26.598216,0.5908 -29.30852,0.44593 -30.0969729,-1.60875 z m 45.0335139,-8.581 c 5.623672,-0.47471 10.723672,-1.36298 11.333333,-1.97393 0.609663,-0.61096 1.166942,-9.16096 1.238396,-19 0.158059,-21.763932 -0.734713,-22.405164 -12.376181,-8.889175 -4.26349,4.950005 -12.102235,13.381005 -17.419435,18.735565 -12.350866,12.43765 -12.543278,14.30933 -1.334303,12.97939 4.583334,-0.54381 12.934519,-1.37714 18.55819,-1.85185 z"
       id="path946" />
  </g>
</svg>
