<?xml version="1.0" encoding="UTF-8" standalone="no"?>
<!-- Created with Inkscape (http://www.inkscape.org/) -->

<svg
   version="1.1"
   id="svg205"
   width="217.33333"
   height="146.66667"
   viewBox="0 0 217.33333 146.66667"
   xmlns="http://www.w3.org/2000/svg"
   xmlns:svg="http://www.w3.org/2000/svg">
  <defs
     id="defs209" />
  <g
     id="g211">
    <path
       style="fill:#000000;stroke-width:1.33333"
       d="m 192.6222,134.11342 c -4.09268,-5.43762 -8.45695,-10.28027 -9.69839,-10.76143 -4.21531,-1.63382 -147.642189,-2.44159 -150.619317,-0.84828 -1.503835,0.80483 -5.599727,5.36591 -9.10198,10.13574 -6.986851,9.51562 -10.311581,11.48821 -13.6845226,8.11915 -1.8635227,-1.86137 -2.1846572,-5.7379 -2.1846572,-26.37184 V 90.197046 l 3.9999998,-1.110672 c 2.2,-0.610869 46.10669,-1.475787 97.570427,-1.922037 l 93.57042,-0.811366 3.42958,3.429576 c 3.42218,3.42219 3.42957,3.479755 3.42957,26.728283 0,19.40285 -0.35035,23.64905 -2.09524,25.39393 -3.98407,3.98407 -6.93831,2.40924 -14.61589,-7.79134 z m 4.98153,-25.78008 -0.48923,-9.666671 -44.89058,-0.229179 C 78.392307,98.060558 18.181268,98.610857 17.250258,99.67108 c -1.218729,1.38788 0.148467,18.99559 1.474963,18.99559 0.594677,0 2.379929,-1.65 3.967227,-3.66667 l 2.885996,-3.66666 22.877443,-0.40711 c 12.582595,-0.22392 49.27607,-0.44388 81.541053,-0.48882 l 58.66362,-0.0817 3.91786,4.84066 c 2.15483,2.66236 4.27712,4.38233 4.7162,3.82214 0.43908,-0.56018 0.57818,-5.36851 0.30911,-10.68517 z M 24.864142,75.167824 C 17.883977,72.64713 13.41957,68.910938 9.4663316,62.281635 3.4022219,52.112553 5.7212116,33.537451 13.902549,26.747545 16.968858,24.202734 16.489048,22.698431 12.125914,21.177435 9.7517189,20.349786 7.5934092,18.237355 6.5511872,15.721208 5.0171065,12.01761 5.1275319,11.391206 7.6786672,9.3254217 10.191834,7.2903824 13.225582,7.1073526 34.920061,7.6819138 c 13.4273,0.3556114 25.763271,1.1578079 27.413271,1.7826585 4.642046,1.7579307 4.032186,7.2480717 -1,9.0023017 -5.023005,1.751029 -5.015332,3.299273 0.04637,9.357107 2.225505,2.663477 4.775505,5.727613 5.666666,6.80919 2.240356,2.719054 2.200776,22.946548 -0.04637,23.698218 -0.916667,0.306626 -1.666667,1.337684 -1.666667,2.29124 0,2.711746 -10.248542,11.29291 -16.884314,14.137334 -6.894727,2.955425 -16.089964,3.114441 -23.584876,0.407861 z m 22.807091,-9.332433 c 1.65251,-1.046567 4.50251,-4.275747 6.333333,-7.175956 5.905361,-9.354698 3.623897,-21.212655 -5.294279,-27.517125 -9.349741,-6.609553 -9.48878,-6.785129 -7.698989,-9.722138 1.571063,-2.578081 1.379935,-2.753505 -3,-2.753505 -3.997676,0 -4.677965,0.447688 -4.677965,3.078493 0,3.829667 -1.839337,6.066002 -8.802213,10.702059 -8.398204,5.591735 -10.702607,15.402551 -5.851372,24.911757 5.198474,10.189854 19.625606,14.408 28.991485,8.476415 z m 86.505347,-4.601364 c -4.05802,-3.192046 -4.40237,-6.771508 -1.35366,-14.071194 3.7457,-8.968545 11.6573,-17.082478 20.54608,-21.07152 8.8749,-3.98282 15.5756,-4.524803 26.89333,-2.175251 8.81484,1.829955 13.17321,4.64384 20.01997,12.925459 6.30966,7.631953 7.7177,10.870351 7.7177,17.750186 0,4.305106 -0.56223,5.308066 -3.66667,6.541026 -2.07876,0.825599 -17.30397,1.760687 -35.15675,2.159226 -30.38501,0.678304 -31.61325,0.606086 -35,-2.057932 z m 50.49008,-9.300104 c 4.84002,0.11964 8.66667,-1.289019 8.66667,-3.190358 0,-3.077004 -6.62843,-10.003192 -12.38241,-12.93866 -4.91086,-2.50533 -6.08871,-2.60457 -13.49895,-1.137354 -12.04521,2.384931 -11.794,2.274939 -17.20969,7.535189 -7.22364,7.016301 -6.23482,8.948494 5.1033,9.972103 5.1266,0.462828 13.22108,0.583129 17.98775,0.267334 C 178.1,52.126383 183.2,51.897668 184.66666,51.933923 Z"
       id="path233" />
  </g>
</svg>
