<?xml version="1.0" encoding="UTF-8" standalone="no"?>
<!-- Created with Inkscape (http://www.inkscape.org/) -->

<svg
   version="1.1"
   id="svg195"
   width="214.66667"
   height="148"
   viewBox="0 0 214.66667 148"
   xmlns="http://www.w3.org/2000/svg"
   xmlns:svg="http://www.w3.org/2000/svg">
  <defs
     id="defs199" />
  <g
     id="g201">
    <path
       style="fill:#000000;stroke-width:1.33333"
       d="m 194.45186,140.06409 c -1.71519,-2.16473 -5.16216,-6.59784 -7.65995,-9.85131 -4.25921,-5.54782 -5.04635,-5.97307 -12.66667,-6.84314 -4.46888,-0.51024 -38.38828,-0.86785 -75.376424,-0.79467 -75.837594,0.15002 -69.568789,-0.76625 -75.557798,11.04382 -1.753082,3.45701 -4.444115,6.95802 -5.980074,7.78005 -3.534304,1.89149 -8.6136321,0.66868 -9.9164326,-2.38733 C 6.7447177,137.72184 6.0043804,127.81996 5.6493172,117.00732 4.9739209,96.439661 6.0599366,90.086764 10.476728,88.768276 c 3.7671,-1.124544 79.809735,-2.357359 135.846182,-2.20236 50.73321,0.140331 59.89268,0.743221 60.48833,3.981437 0.0795,0.43229 0.30226,12.056217 0.49498,25.830957 0.32161,22.98824 0.15269,25.15078 -2.05692,26.33333 -4.18986,2.24235 -7.58208,1.41057 -10.79744,-2.64755 z M 21.769464,115.20815 c 1.89977,-2.20861 5.129242,-3.86272 8.936046,-4.57696 8.926975,-1.6749 153.12592,-0.14538 156.53148,1.66033 1.51967,0.80576 3.54704,2.56979 4.50528,3.92008 2.96507,4.17813 4.05503,2.75805 4.00007,-5.2116 -0.0881,-12.787588 2.07673,-11.761709 -26.08552,-12.361069 -41.04826,-0.873606 -150.073988,0.637469 -152.461586,2.113089 -2.157392,1.33334 -1.221292,17.91465 1.011373,17.91465 0.323383,0 1.926669,-1.55634 3.562857,-3.45852 z M 95.530811,73.834489 C 88.550645,71.313795 84.086239,67.577603 80.133,60.9483 74.068889,50.779219 76.38788,32.204117 84.569217,25.414211 87.635527,22.8694 87.155716,21.365097 82.792583,19.844101 80.418387,19.016452 78.260077,16.904021 77.217856,14.387875 75.683775,10.684276 75.7942,10.057872 78.345336,7.9920881 80.858503,5.9570489 83.892251,5.7740191 105.58673,6.3485803 119.01403,6.7041917 131.35,7.5063881 133,8.1312388 c 4.64204,1.7579304 4.03219,7.2480722 -1,9.0023012 -5.00405,1.744424 -5.0171,3.356009 -0.0727,8.987328 9.25185,10.537287 9.05595,28.878999 -0.4158,38.928825 -9.06227,9.615358 -23.75024,13.201474 -35.980659,8.784796 z M 118.3379,64.502056 c 1.65251,-1.046567 4.50251,-4.275747 6.33334,-7.175956 5.90536,-9.354697 3.62389,-21.212655 -5.29428,-27.517124 -9.34974,-6.609553 -9.48878,-6.785129 -7.69899,-9.722137 1.57106,-2.578082 1.37993,-2.753506 -3,-2.753506 -3.99768,0 -4.67797,0.447688 -4.67797,3.078494 0,3.829666 -1.83934,6.066001 -8.802212,10.702058 -8.398204,5.591735 -10.702607,15.402551 -5.851372,24.911756 5.198475,10.189854 19.625604,14.408 28.991484,8.476415 z"
       id="path372" />
  </g>
</svg>
