<?xml version="1.0" encoding="UTF-8" standalone="no"?>
<!-- Created with Inkscape (http://www.inkscape.org/) -->

<svg
   version="1.1"
   id="svg185"
   width="210.66667"
   height="145.33333"
   viewBox="0 0 210.66667 145.33333"
   xmlns="http://www.w3.org/2000/svg"
   xmlns:svg="http://www.w3.org/2000/svg">
  <defs
     id="defs189" />
  <g
     id="g191">
    <path
       style="fill:#000000;stroke-width:1.33333"
       d="M 9.1170728,139.95872 C 6.1268814,138.21349 5.0106447,130.53027 5.0697542,112.10046 5.1238574,95.231564 6.2559645,90.537542 11.023754,87.413566 15.1296,84.723313 59.699116,83.333331 141.85576,83.333331 h 59.85578 l 2.5294,3.387414 c 2.21912,2.971868 2.54805,5.997804 2.68136,24.666665 0.16497,23.10352 -0.37048,26.53332 -4.48622,28.73599 -2.4074,1.28841 -3.89032,0.2021 -13.02684,-9.54277 l -10.31018,-10.99668 -67.88286,-0.23096 c -37.335577,-0.12703 -70.826527,0.11657 -74.424335,0.54135 -6.076874,0.71747 -6.849335,1.24581 -10.876217,7.43899 -5.523856,8.49547 -10.593586,14.01124 -12.830615,13.95945 -0.963435,-0.0223 -2.749017,-0.62262 -3.9679602,-1.33406 z M 20.652974,113.35981 c 2.200997,-4.25626 4.259997,-4.88982 19.661503,-6.04995 20.254655,-1.52568 141.436423,-1.84428 144.288203,-0.37934 1.50186,0.77149 4.065,2.61761 5.69586,4.10249 2.60288,2.36988 3.06481,2.4402 3.78037,0.57548 0.44835,-1.16836 0.30777,-5.30824 -0.31237,-9.19973 l -1.12754,-7.075429 -22.65284,0.01969 C 93.657927,95.419355 19.132887,96.569527 17.666667,97.703822 16.598332,98.530303 16,102.55282 16,108.90861 c 0,10.39752 1.055743,11.40748 4.652974,4.4512 z M 155.33334,71.924757 c -9.91635,-4.858239 -15.9752,-11.712594 -18.79095,-21.258091 -3.94145,-13.361708 -2.1254,-21.87252 7.05883,-33.080652 6.765,-8.2557875 16.92994,-12.8020605 28.42114,-12.7113633 9.62839,0.075995 14.59316,2.0491733 23.68326,9.4125653 10.9054,8.833881 14.74028,21.911361 10.22629,34.873147 -4.39597,12.622934 -8.71347,17.611311 -20.22092,23.363018 -9.74488,4.870731 -19.61077,4.676313 -30.37765,-0.598624 z m 7.25198,-18.858593 c 1.10568,-1.969899 1.57394,-4.01802 1.04058,-4.55138 C 162.36855,47.257438 156,53.227496 156,55.663516 c 0,3.028669 4.40204,1.292436 6.58532,-2.597352 z m 22.93364,-2.485516 c -3.04954,-2.500168 -8.18562,-3.537726 -8.18562,-1.653608 0,0.509874 1.62024,2.618207 3.60053,4.685185 3.27365,3.416967 3.78809,3.567087 5.66667,1.653608 1.86904,-1.903782 1.76586,-2.350702 -1.08158,-4.685185 z m -14.29468,-6.056634 c 1.15999,-0.445126 2.10935,-1.795126 2.10971,-3 3.6e-4,-1.204875 3.00036,-4.77397 6.66667,-7.931323 3.6663,-3.157352 6.66601,-6.307352 6.66601,-7 0,-2.982397 -4.38783,-0.82032 -9.62089,4.740642 -6.69622,7.115781 -10.65751,7.765782 -12.99123,2.131702 C 160.63403,25.20715 152,21.114856 152,27.751503 c 0,2.886894 2.85146,5.674192 8.98068,8.778629 2.47807,1.25513 4.66748,3.593314 5.14455,5.494119 0.86953,3.464485 1.62276,3.833745 5.09905,2.499763 z M 23.487307,72.703597 C 17.90312,70.71329 8.8771971,62.754271 6.0044129,57.287259 1.2948337,48.324759 2.3429284,38.010396 8.9654747,28.14727 13.047032,22.068503 12.799559,18.997612 8.0084303,16.27132 5.5451702,14.869653 4.0136326,12.913856 4.0084302,11.163259 3.9912918,5.3961839 6.83586,4.7389732 33.421014,4.3677595 54.710386,4.0704919 58.80869,4.3324994 60.580261,6.1040693 c 2.949861,2.9498614 2.597812,5.3001117 -1.246927,8.3243837 -4.463706,3.511152 -4.201058,6.287877 1.155603,12.21706 5.271645,5.835081 7.297697,16.243625 4.897172,25.158494 -1.950711,7.24439 -11.080687,18.60925 -15.733071,19.584298 -2.009171,0.421083 -6.168729,1.330975 -9.243464,2.021983 -7.36314,1.654772 -10.686079,1.516002 -16.922267,-0.706691 z m 20.47379,-9.350146 c 5.536057,-2.862807 9.089635,-8.582138 10.109592,-16.270952 1.161772,-8.757864 -1.589559,-14.660732 -9.471776,-20.321312 -4.233507,-3.040274 -5.932246,-5.191015 -5.932246,-7.510702 0,-2.722761 -0.649409,-3.250485 -4,-3.250485 -3.360687,0 -4,0.52436 -4,3.280764 0,1.804421 -0.75,3.895375 -1.666667,4.646567 -0.916666,0.751191 -3.638217,2.946316 -6.047889,4.878056 -8.517583,6.828211 -10.546594,16.201961 -5.604083,25.890081 4.659174,9.132735 17.571595,13.333509 26.613069,8.657983 z"
       id="path511" />
  </g>
</svg>
