<?xml version="1.0" encoding="UTF-8" standalone="no"?>
<!-- Created with Inkscape (http://www.inkscape.org/) -->

<svg
   version="1.1"
   id="svg175"
   width="216"
   height="216"
   viewBox="0 0 216 216"
   xmlns="http://www.w3.org/2000/svg"
   xmlns:svg="http://www.w3.org/2000/svg">
  <defs
     id="defs179" />
  <g
     id="g181">
    <path
       style="fill:#000000;stroke-width:1.33333"
       d="m 13.117073,209.29205 c -2.990192,-1.74522 -4.1064283,-9.42844 -4.0473189,-27.85825 0.054103,-16.86889 1.1862099,-21.56292 5.9539989,-24.68689 4.105847,-2.69026 48.675362,-4.08024 130.832007,-4.08024 h 59.85577 l 2.5294,3.38741 c 2.21912,2.97187 2.54806,5.9978 2.68136,24.66667 0.16498,23.10352 -0.37048,26.53332 -4.48621,28.73598 -2.4074,1.28842 -3.89032,0.20211 -13.02684,-9.54276 l -10.31019,-10.99668 -67.88286,-0.23097 c -37.335569,-0.12707 -70.826518,0.11653 -74.424326,0.54136 -6.076873,0.71747 -6.849335,1.2458 -10.876216,7.43899 -5.523856,8.49546 -10.593587,14.01124 -12.830616,13.95945 -0.963433,-0.0223 -2.749016,-0.62263 -3.967959,-1.33407 z m 11.5359,-26.5989 c 2.200998,-4.25626 4.259998,-4.88983 19.661503,-6.04995 20.254655,-1.52569 141.436414,-1.84428 144.288204,-0.37935 1.50185,0.7715 4.065,2.61762 5.69585,4.1025 2.60288,2.36988 3.06482,2.4402 3.78038,0.57548 0.44834,-1.16836 0.30777,-5.30824 -0.31238,-9.19974 l -1.12753,-7.07542 -22.65284,0.0197 C 97.657925,164.7528 23.132887,165.90291 21.666667,167.0372 20.598332,167.86368 20,171.8862 20,178.24199 c 0,10.39752 1.055743,11.40748 4.652973,4.4512 z M 152,137.18811 c -14.07368,-3.1319 -17.50627,-4.78226 -24.80002,-11.9237 -14.16526,-13.86943 -19.16919,-30.13233 -14.34658,-46.626721 2.19736,-7.515466 3.70954,-9.713889 13.27133,-19.29406 10.64244,-10.662897 10.93818,-10.845661 21.42558,-13.240921 5.8488,-1.335832 12.99266,-2.124693 15.87526,-1.753023 13.08644,1.687307 29.291,11.149392 35.28751,20.604914 10.35963,16.335432 8.05455,42.591181 -4.96084,56.505671 -11.51493,12.3104 -28.44719,18.68868 -41.75224,15.72784 z m 9.89095,-11.33076 c 2.49528,-0.95753 2.76786,-4.6652 0.50905,-6.92402 -2.42303,-2.42302 -3.35404,-1.95794 -4.12193,2.05907 -0.99642,5.21237 -0.17498,6.31848 3.61288,4.86495 z m -14.09862,-8.19068 C 148.58937,115.65 149.64637,112.2 150.14121,110 c 2.15095,-9.56301 7.30643,-14.400543 11.57266,-10.858969 1.01078,0.8391 4.66898,5.575639 8.12933,10.525639 3.46035,4.95 7.08031,9 8.04436,9 2.8472,0 8.77911,-5.33123 8.77911,-7.89013 0,-3.16187 -3.05443,-5.67063 -12.90027,-10.59567 -7.90135,-3.952367 -11.02708,-7.729015 -9.04768,-10.931771 0.48997,-0.792787 5.47871,-3.668408 11.08607,-6.39027 12.4809,-6.058336 13.61205,-9.003472 6.21252,-16.175385 -5.99911,-5.814572 -7.52796,-5.018087 -14.26696,7.432655 -7.24023,13.376778 -12.2048,14.519845 -15.48963,3.566401 -2.10373,-7.015039 -8.42395,-16.349167 -11.07016,-16.349167 -2.83972,0 -11.87157,9.943598 -11.8115,13.003842 0.0312,1.58768 3.24272,3.787998 10.08517,6.909601 5.52168,2.51906 10.66282,5.744955 11.42477,7.168657 1.88011,3.513022 -0.21149,7.766178 -5.04877,10.266372 -7.619,3.937965 -15.17356,9.542805 -15.17356,11.257505 0,2.543 10.23484,11.39402 13.17541,11.39402 1.48823,0 3.08793,-1.48486 3.95025,-3.66666 z M 129.89095,96.524015 c 3.4026,-1.305702 2.56807,-6.553499 -1.3242,-8.326934 -4.34314,-1.978868 -5.90008,-1.013212 -5.90008,3.659386 0,5.326061 2.05248,6.652153 7.22428,4.667548 z m 61.86845,-4.204303 c 0.3162,-2.216328 -0.24336,-2.986379 -2.17007,-2.986379 -3.65892,0 -5.99433,3.061671 -3.91869,5.137307 2.38677,2.38678 5.60349,1.25044 6.08876,-2.150928 z M 161.33333,60.587977 c 0,-2.365754 -0.7283,-3.254644 -2.66666,-3.254644 -3.11332,0 -3.15002,0.147036 -1.13836,4.56212 1.80814,3.968466 3.80502,3.282303 3.80502,-1.307476 z M 6.4817889,134.9244 c -3.0879052,-2.16778 -3.2485161,-10.58688 -0.3483022,-18.25773 1.1090414,-2.93334 2.5759697,-7.10589 3.2598405,-9.27234 1.4499308,-4.59327 12.1515878,-15.977086 17.9400058,-19.083557 6.281739,-3.37122 19.03664,-5.243326 27.67481,-4.061982 15.561608,2.128182 25.641469,9.947428 33.578158,26.047569 5.26307,10.67651 6.211172,18.82744 2.544312,21.87371 -3.273132,2.71918 -81.092037,5.25126 -84.6488241,2.75433 z M 76.708305,121.29878 c 3.038383,-2.52164 2.450499,-4.27767 -4.729008,-14.12576 C 64.373969,96.74084 60.931745,94.922492 48.496165,94.768104 34.150509,94.590001 23.230544,101.85882 18.630776,114.64784 17.183849,118.67083 16,122.44202 16,123.02827 c 0,1.79939 58.463107,0.13386 60.708305,-1.72949 z M 101.14857,42.643013 C 99.946952,41.941269 97.327011,38.209515 95.32648,34.350224 88.979339,22.105749 86.607708,21.035641 83.309973,28.928231 c -2.789842,6.677034 -8.33389,13.738436 -10.786322,13.738436 -2.747111,0 -9.351884,-7.465232 -12.681244,-14.333334 -1.510827,-3.116666 -3.585891,-5.666666 -4.611254,-5.666666 -1.025362,0 -3.979381,4.2 -6.564486,9.333333 -4.202924,8.345892 -5.11137,9.333333 -8.586656,9.333333 -4.184878,0 -6.172282,-2.00923 -12.380519,-12.516494 C 23.845632,22.294292 21.75174,21.190992 20.455721,25 18.240223,31.511365 13.166354,41.171745 11.682698,41.703375 8.9622613,42.678173 5.3333333,40.123341 5.3333333,37.233304 c 0,-1.47008 1.2,-5.025067 2.6666667,-7.899971 1.4666667,-2.874904 2.666667,-5.913865 2.666667,-6.753246 0,-2.297246 6.65139,-15.075837 8.439017,-16.2129633 2.724721,-1.7332217 7.245567,-1.1122606 8.099279,1.112477 1.303133,3.3959113 11.931956,19.1870663 12.914565,19.1870663 1.49786,0 3.315864,-3.047963 5.752824,-9.644854 3.212231,-8.6955629 6.282484,-12.2422207 9.667684,-11.1677999 2.578007,0.8182274 11.126631,12.4392709 11.126631,15.1255979 0,0.700565 1.088192,2.258556 2.418205,3.462201 1.865364,1.688131 2.779828,1.826821 4,0.606649 0.869987,-0.869986 1.581795,-2.327498 1.581795,-3.238914 0,-2.27283 5.305012,-11.433957 7.803786,-13.4762137 C 86.509301,5.0323689 90.260445,6.4217067 95.070227,13 c 2.546873,3.483333 4.85619,7.533333 5.131823,9 0.29838,1.587755 1.55707,2.666667 3.11101,2.666667 1.84904,0 3.7872,-2.322131 6.64841,-7.96553 2.26185,-4.461235 5.58376,-8.8255146 7.55095,-9.9203425 3.32351,-1.8496798 3.70013,-1.7439698 7.00271,1.9655294 1.91967,2.1561881 5.33311,7.0703431 7.58544,10.9203431 2.25232,3.85 4.58503,7 5.18378,7 0.59876,0 2.3887,-2.765754 3.97766,-6.146118 8.68486,-18.4762253 12.94203,-20.67700277 19.70611,-10.187216 2.24615,3.483334 5.03867,8.636179 6.20559,11.450767 2.64526,6.380279 4.89101,5.819172 7.49296,-1.872128 C 178.05717,9.8896813 182.17779,4 185.7992,4 c 3.48551,0 8.36597,7.162903 16.08269,23.604048 3.22936,6.880429 3.59415,8.617435 2.17008,10.333333 -3.81686,4.599046 -8.15942,1.266499 -15.48056,-11.880018 -1.75521,-3.151815 -4.53977,-4.248411 -4.65993,-1.83514 -0.12213,2.45161 -7.97547,13.054506 -11.30665,15.265146 -3.7877,2.513592 -7.53638,-0.301241 -12.78382,-9.599194 -2.24156,-3.97183 -4.85902,-7.221508 -5.81658,-7.221508 -1.61255,0 -4.51298,4.032189 -10.07051,14 -3.49843,6.27468 -7.88755,5.971181 -13.48254,-0.93229 -2.55612,-3.153908 -5.03975,-6.797986 -5.51919,-8.097952 -1.20407,-3.26476 -4.54555,-4.283829 -7.09868,-2.164921 -1.17288,0.973411 -3.6442,5.090536 -5.49181,9.149167 -4.28747,9.418252 -6.31479,10.87128 -11.19313,8.022342 z"
       id="path650" />
  </g>
</svg>
