<?xml version="1.0" encoding="UTF-8" standalone="no"?>
<!-- Created with Inkscape (http://www.inkscape.org/) -->

<svg
   version="1.1"
   id="svg165"
   width="216"
   height="221.33333"
   viewBox="0 0 216 221.33333"
   xmlns="http://www.w3.org/2000/svg"
   xmlns:svg="http://www.w3.org/2000/svg">
  <defs
     id="defs169" />
  <g
     id="g171">
    <path
       style="fill:#000000;stroke-width:1.33333"
       d="m 76.914756,213.31262 c -8.434336,-2.53486 -9.372097,-5.92013 -4.346405,-15.69028 5.724878,-11.12941 16.316068,-17.1166 32.797649,-18.54048 8.10136,-0.69989 9.33863,-0.42164 18,4.04806 12.52176,6.46186 14.74473,8.6175 18.08037,17.5328 2.78402,7.44094 2.79315,7.68981 0.37068,10.09129 -2.22214,2.20289 -5.57298,2.52665 -31.81705,3.07421 -16.133333,0.3366 -31.021693,0.10454 -33.085244,-0.5156 z m 56.418574,-10.1841 c 0,-1.21266 -2.39526,-4.41611 -5.32281,-7.1188 -6.33729,-5.85056 -16.8974,-8.77935 -26.47597,-7.34295 C 91.542064,190.16524 80,198.18521 80,203.63001 c 0,1.32543 5.916137,1.70332 26.66667,1.70332 23.91578,0 26.66666,-0.22744 26.66666,-2.20481 z M 11.783739,175.95872 c -2.990191,-1.74523 -4.1064277,-9.42844 -4.0473182,-27.85826 0.054103,-16.8689 1.1862103,-21.56292 5.9539992,-24.68689 4.105847,-2.69026 48.675361,-4.08024 130.83201,-4.08024 h 59.85577 l 2.5294,3.38741 c 2.21912,2.97187 2.54805,5.99781 2.68136,24.66667 0.16497,23.10352 -0.37048,26.53332 -4.48621,28.73599 -2.4074,1.28841 -3.89032,0.2021 -13.02684,-9.54276 l -10.31019,-10.99668 -67.88286,-0.23098 c -37.335572,-0.12706 -70.826521,0.11654 -74.424329,0.54136 -6.076874,0.71747 -6.849335,1.2458 -10.876216,7.43899 -5.523856,8.49547 -10.593587,14.01124 -12.830616,13.95945 -0.963434,-0.0223 -2.749016,-0.62262 -3.96796,-1.33406 z M 23.31964,149.35981 c 2.200997,-4.25625 4.259997,-4.88983 19.661503,-6.04995 20.254654,-1.52569 141.436417,-1.84428 144.288207,-0.37934 1.50185,0.77149 4.065,2.61761 5.69585,4.10249 2.60288,2.36988 3.06481,2.4402 3.78037,0.57548 0.44835,-1.16836 0.30778,-5.30824 -0.31237,-9.19973 l -1.12753,-7.07543 -22.65284,0.0197 c -76.328238,0.0663 -150.853277,1.21651 -152.319497,2.3508 -1.068334,0.82648 -1.666666,4.849 -1.666666,11.20479 0,10.39752 1.055742,11.40748 4.652973,4.4512 z m 68.867469,-44.5001 c -2.384801,-2.46049 -7.239472,-5.833529 -10.788157,-7.495645 -7.999008,-3.746533 -9.756347,-7.186248 -10.179305,-19.924377 -0.307451,-9.259386 -0.05791,-10.26084 3.892588,-15.621422 2.321604,-3.150278 5.324597,-7.281928 6.673317,-9.181444 1.348721,-1.899516 5.098721,-4.739436 8.333333,-6.310932 5.225463,-2.538725 7.994924,-6.325891 4.62597,-6.325891 -0.69033,0 -3.173924,-3.6 -5.5191,-7.999999 -2.345176,-4.4 -4.63036,-7.9894 -5.078188,-7.976443 -0.447828,0.01293 -2.27783,3.162956 -4.066668,7 -7.921384,16.991296 -11.3791,17.240377 -21.81453,1.571441 -1.979836,-2.972749 -3.599702,-6.122749 -3.599702,-7 0,-4.527994 -3.233403,-0.65376 -8.951439,10.725533 -3.389736,6.745815 -7.055801,9.613388 -10.779385,8.431568 C 32.658851,44.02941 25.504729,34.094662 22.478611,27.453054 21.613285,25.553874 20.418363,24 19.823227,24 19.228089,24 17.764375,27.360025 16.570525,31.466721 13.271587,42.81467 7.3209772,47.422957 4.359498,40.923218 3.2702917,38.53267 3.6147161,35.930581 5.9037508,29.256552 11.144256,13.977061 14.937492,7.3794494 18.736235,6.936889 c 4.181314,-0.487131 6.34159,1.8012513 12.25955,12.986556 2.499688,4.724561 5.191451,8.805633 5.981694,9.069048 0.790244,0.263415 2.146314,-1.670895 3.01349,-4.298464 3.851156,-11.669115 10.613518,-19.8712612 14.43559,-17.5090911 1.697622,1.049189 12.240108,16.7165721 12.240108,18.1902541 0,0.71031 0.9,1.291474 2,1.291474 1.1,0 2,-0.768772 2,-1.708384 0,-3.204401 9.441042,-16.8127673 12.29189,-17.7175912 C 86.298053,6.180776 91.696665,11.793545 96.192875,21 c 1.522105,3.116666 3.482009,5.666666 4.355345,5.666666 0.87333,0 4.14819,-4.5 7.27745,-10 6.26911,-11.0185852 8.83572,-12.282381 13.9016,-6.8451113 5.56068,5.9683423 11.60606,14.0014343 11.60606,15.4221033 0,0.782655 0.75,1.410594 1.66667,1.39542 0.91667,-0.01517 3.75649,-4.291748 6.31073,-9.503498 2.87204,-5.860197 5.85108,-10.0258634 7.80736,-10.9172014 2.79315,-1.2726451 3.62172,-0.9017057 7.0812,3.1701658 2.15486,2.5363006 5.42666,7.7997536 7.27066,11.6965636 1.844,3.896809 4.05696,6.850368 4.91766,6.563464 0.86072,-0.286904 2.89056,-4.371291 4.51076,-9.076416 4.35982,-12.6610398 10.33595,-16.5758546 14.6123,-9.5721561 1.23134,2.0166671 3.77194,6.0666661 5.64578,9.0000001 1.87383,2.933333 5.04914,8.771534 7.05624,12.97378 3.26479,6.83545 3.43579,7.853927 1.62306,9.666666 -5.17647,5.17646 -10.68614,0.925647 -15.28519,-11.792802 -2.09324,-5.788775 -4.042,-6.154698 -6.28939,-1.180978 -5.99304,13.263281 -9.824,17.286563 -14.9201,15.669123 -2.63838,-0.837388 -12.00774,-14.591647 -12.00774,-17.627405 0,-4.238296 -3.86977,-0.988163 -7.88801,6.624949 -4.45913,8.448473 -7.29055,11.666666 -10.26452,11.666666 -2.99777,0 -9.72866,-6.754172 -13.33611,-13.382241 l -3.55766,-6.536605 -2.62236,4.959423 c -1.4423,2.727684 -3.45688,5.906667 -4.47685,7.064411 -2.97423,3.375984 -2.19027,5.22614 3.14551,7.423424 15.93857,6.563528 16.70344,7.214479 23.27103,19.804921 5.64428,10.820419 5.53823,17.808171 -0.45131,29.733863 -4.00265,7.969635 -5.27709,9.325745 -11.81972,12.577135 -6.14164,3.05211 -9.07836,3.64796 -18.07177,3.66666 -10.446059,0.0217 -10.856511,-0.0995 -15.074451,-4.45128 z M 123.33333,89.981739 c 0,-3.275934 -0.73221,-4.218427 -4.1307,-5.316983 C 109.22051,81.438055 108.20226,76.611295 116,69.483458 c 5.26323,-4.81107 7.01547,-9.483459 3.55649,-9.483459 -0.97727,0 -3.73576,2.437599 -6.12998,5.416885 -2.39422,2.979288 -6.39464,6.390415 -8.88982,7.580284 -3.15868,1.50627 -4.53669,3.067292 -4.53669,5.1392 0,1.861907 -2.068883,4.694333 -5.527072,7.566897 -5.545557,4.606448 -6.009064,7.630067 -1.169651,7.630067 1.435847,0 3.757926,-2.104249 5.517595,-5 1.671098,-2.75 3.637708,-5.408135 4.370238,-5.906967 1.9982,-1.360713 6.27533,1.353271 11.30326,7.172292 5.27854,6.10907 8.83896,6.263379 8.83896,0.383082 z M 97.328349,70.333332 c -0.0085,-2.868497 -5.332368,-10.554216 -6.939646,-10.018456 -0.842338,0.280779 -2.174388,1.561151 -2.960112,2.845271 -1.155099,1.887793 -0.712404,2.957437 2.312428,5.587308 4.044294,3.516221 7.595322,4.258444 7.58733,1.585877 z"
       id="path805" />
  </g>
</svg>
