<?xml version="1.0" encoding="UTF-8" standalone="no"?>
<!-- Created with Inkscape (http://www.inkscape.org/) -->

<svg
   version="1.1"
   id="svg75"
   width="216"
   height="214.66667"
   viewBox="0 0 216 214.66667"
   xmlns="http://www.w3.org/2000/svg"
   xmlns:svg="http://www.w3.org/2000/svg">
  <defs
     id="defs79" />
  <g
     id="g81">
    <path
       style="fill:#000000;stroke-width:1.33333"
       d="m 50.666667,207.85478 c -14.073683,-3.1319 -17.50627,-4.78226 -24.800024,-11.9237 -14.165252,-13.86944 -19.1691829,-30.13233 -14.346576,-46.62672 2.197362,-7.51546 3.709537,-9.71389 13.271329,-19.29406 10.642444,-10.6629 10.938179,-10.84566 21.425577,-13.24092 5.848799,-1.33584 12.992671,-2.1247 15.87527,-1.75303 13.086442,1.68731 29.290996,11.1494 35.28751,20.60492 10.359627,16.33543 8.054537,42.59117 -4.960845,56.50567 -11.514936,12.3104 -28.447187,18.68868 -41.752241,15.72784 z m 9.89095,-11.33076 c 2.495278,-0.95752 2.767863,-4.6652 0.50905,-6.92402 -2.423023,-2.42302 -3.354036,-1.95794 -4.121936,2.05907 -0.996408,5.21237 -0.174968,6.31848 3.612886,4.86495 z m -14.098624,-8.19068 c 0.79705,-2.01667 1.854046,-5.46667 2.34888,-7.66667 2.150958,-9.563 7.306434,-14.40055 11.572658,-10.85897 1.01079,0.8391 4.668992,5.57564 8.129336,10.52564 3.460344,4.95 7.080305,9 8.044356,9 2.847206,0 8.77911,-5.33123 8.77911,-7.89012 0,-3.16188 -3.054422,-5.67064 -12.900261,-10.59567 -7.901349,-3.95237 -11.027091,-7.72903 -9.047679,-10.93179 0.48997,-0.79278 5.478698,-3.6684 11.086063,-6.39026 12.480911,-6.05834 13.612056,-9.00347 6.212521,-16.17539 -5.999117,-5.81457 -7.527968,-5.01808 -14.266968,7.43265 -7.24022,13.37679 -12.204792,14.51986 -15.489618,3.56642 C 48.823651,141.33414 42.503433,132 39.857231,132 c -2.83972,0 -11.871576,9.9436 -11.811502,13.00384 0.03117,1.58768 3.242722,3.788 10.085159,6.9096 5.521685,2.51907 10.662836,5.74496 11.424779,7.16866 1.880112,3.51302 -0.211494,7.76618 -5.04877,10.26637 -7.619006,3.93796 -15.173564,9.54281 -15.173564,11.25751 0,2.543 10.234839,11.39402 13.175414,11.39402 1.488229,0 3.087929,-1.48486 3.950246,-3.66666 z M 28.557617,167.19068 c 3.402604,-1.3057 2.568068,-6.55349 -1.324198,-8.32693 -4.343142,-1.97887 -5.900086,-1.01321 -5.900086,3.65939 0,5.32606 2.052484,6.65216 7.224284,4.66754 z m 61.868451,-4.2043 C 90.742272,160.77006 90.182711,160 88.255995,160 c -3.658912,0 -5.994324,3.06167 -3.918688,5.13731 2.38678,2.38677 5.603486,1.25044 6.088761,-2.15093 z M 60,131.25465 C 60,128.88889 59.271696,128 57.333333,128 c -3.11332,0 -3.150009,0.14704 -1.138362,4.56212 C 58.003124,136.53059 60,135.84443 60,131.25465 Z m 65.09018,73.09422 c -1.10984,-1.29188 -2.43931,-3.09035 -2.95436,-3.99659 -1.349,-2.37361 2.99632,-18.75338 6.63717,-25.01894 4.24628,-7.30746 13.51333,-16.10464 19.65982,-18.66302 12.63562,-5.25936 31.5433,-3.41221 42.45156,4.14722 8.92147,6.18258 19.7823,25.36632 19.7823,34.94193 0,7.46228 -1.57078,8.07705 -22.66667,8.87132 -59.22828,2.22997 -60.75775,2.22312 -62.90982,-0.28192 z m 62.14303,-15.65759 c 3.35507,-3.08028 6.10012,-6.24989 6.10012,-7.0436 0,-2.67517 -6.96293,-9.74462 -12.2589,-12.44642 -7.37635,-3.76314 -17.1212,-4.72362 -21.91883,-2.16039 -2.10225,1.12316 -6.58187,3.01355 -9.95471,4.20084 -3.37284,1.18731 -7.33972,3.49364 -8.81529,5.12519 -3.02505,3.34478 -5.71893,10.47905 -5.71893,15.14556 v 3.11453 l 23.23321,-0.16759 23.23321,-0.1676 z M 7.5861351,94.461559 C 4.5445687,92.759413 4.7394703,90.253104 8.7085299,80.028284 12.694253,69.760538 18.546523,60.854713 21.708135,60.245842 c 2.69262,-0.51855 10.69765,7.685386 14.39644,14.754159 1.438958,2.75 3.143289,5 3.7874,5 0.644112,0 3.10567,-3.75 5.470129,-8.333333 5.555093,-10.768143 6.337124,-11.666667 10.154087,-11.666667 2.184964,0 3.995462,1.364948 5.747837,4.333333 4.981509,8.43829 9.596612,14.333334 11.22126,14.333334 0.905121,0 2.438493,-2.25 3.407492,-5 2.363656,-6.708008 7.71774,-13.668098 10.508408,-13.660498 2.929337,0.008 9.378263,6.312915 13.544877,13.242454 1.803665,2.9997 3.903665,5.257353 4.666665,5.017007 0.763,-0.240347 3.78727,-4.447945 6.7206,-9.350217 4.51204,-7.540652 5.89798,-8.913389 9,-8.914317 C 122.35,60.000494 124,60.540861 124,61.201913 c 0,1.696723 13.49893,17.464755 14.95149,17.464755 0.65915,0 2.36474,-2.636564 3.79019,-5.859031 3.00337,-6.789628 9.42256,-14.140969 12.34789,-14.140969 1.88464,0 7.75476,6.715072 10.99954,12.582824 0.78234,1.414761 2.42582,3.205209 3.65217,3.978772 2.40309,1.515833 4.10679,-0.225327 9.63448,-9.846379 2.27629,-3.961937 3.4432,-4.715217 7.30433,-4.715217 4.3927,0 4.91298,0.547032 11.80326,12.410172 6.31288,10.869013 7.02532,12.811139 5.73688,15.638948 -1.11864,2.455156 -2.09295,2.995815 -4.06632,2.256495 -3.14095,-1.176751 -10.82058,-10.582998 -10.82058,-13.253387 0,-1.071208 -0.98021,-1.724547 -2.22545,-1.483327 -2.16537,0.419462 -4.70645,3.892563 -9.33905,12.764432 -1.80606,3.458766 -3.08746,4.331495 -6.34911,4.324223 -4.21967,-0.0095 -5.21475,-1.081873 -12.67219,-13.657556 -1.63076,-2.75 -3.544,-5 -4.25162,-5 -0.70763,0 -2.3087,1.860055 -3.55792,4.133456 -9.77556,17.790035 -13.62512,18.688826 -22.27132,5.199877 -3.29039,-5.133333 -6.61707,-9.333333 -7.39263,-9.333333 -0.77556,0 -2.33429,2.211875 -3.46385,4.915277 -3.69615,8.846148 -8.32505,13.752135 -12.96844,13.744748 -3.64965,-0.0059 -4.907027,-1.096508 -9.991073,-8.666666 -3.198793,-4.763014 -6.338685,-8.660026 -6.977538,-8.660026 -0.638852,0 -2.618448,2.85 -4.3991,6.333334 -3.762116,7.359492 -8.114252,12.333333 -10.791731,12.333333 -2.552589,0 -9.577973,-7.529975 -12.832248,-13.753909 -3.745899,-7.164185 -4.894204,-6.401091 -13.172912,8.753909 -4.328992,7.924654 -7.816927,6.753256 -17.865504,-6 -2.744597,-3.483333 -5.525497,-6.333333 -6.179777,-6.333333 -0.654282,0 -2.954422,3.812901 -5.111423,8.473114 -4.121701,8.904955 -6.220473,10.733476 -9.9343089,8.65511 z M 37.929369,42.803958 C 35.768216,41.473042 31.9,37.005318 29.333333,32.875681 c -2.566666,-4.129637 -5.015278,-7.516062 -5.44136,-7.525389 -0.859004,-0.0188 -2.795473,3.777912 -5.21258,10.219983 -2.106966,5.615488 -5.75196,8.744663 -9.5558183,8.203536 -5.3017631,-0.754216 -4.9486256,-3.703532 2.2462823,-18.760391 0.960135,-2.009285 2.124564,-5.378204 2.587622,-7.486486 1.219846,-5.553929 5.6137,-9.7619437 9.679661,-9.27026 2.408996,0.2913123 5.010325,2.725751 8.986532,8.409993 3.07786,4.4 6.545956,8.184229 7.706877,8.4094 1.434818,0.278293 3.661086,-2.540863 6.951899,-8.803292 4.308277,-8.1986681 5.205247,-9.1430877 8.149212,-8.5803131 3.363232,0.6429224 10.95398,10.5470181 13.775883,17.9742051 0.766217,2.016667 1.96089,3.666667 2.654829,3.666667 0.693939,0 3.216803,-4.241634 5.606363,-9.425851 4.08948,-8.87224 7.822097,-13.2408162 11.313272,-13.2408162 2.231584,0 8.551326,9.6604412 8.551326,13.0716682 0,1.7352 0.828335,2.928332 2.033002,2.928332 1.118155,0 2.603295,1.5 3.300335,3.333333 1.35535,3.564848 4,4.547166 4,1.485743 0,-3.765724 9.80921,-19.240401 12.96354,-20.450829 2.77477,-1.0647792 11.72293,8.66881 15.2897,16.631753 1.39601,3.116667 3.05225,5.666667 3.68052,5.666667 0.62826,0 3.4133,-4.83943 6.18898,-10.754288 6.42788,-13.6975961 11.7092,-17.0646186 15.09854,-9.6258383 2.16237,4.7458713 11.256,18.9950243 12.11205,18.9788363 0.36667,-0.0069 2.76667,-4.53616 5.33333,-10.064946 4.57886,-9.8631913 7.85646,-13.3858011 11.24492,-12.0855258 2.6567,1.019472 18.08842,29.1479248 18.08842,32.9710048 0,0.581321 -0.94167,1.998616 -2.0926,3.149542 -1.54059,1.540592 -2.7446,1.74365 -4.56431,0.769772 -2.84624,-1.523261 -10.67643,-14.60302 -10.67643,-17.834193 0,-3.909935 -3.75913,-2.274251 -5.2659,2.291314 -4.07788,12.356122 -12.05234,19.915306 -16.03958,15.204322 -4.95502,-5.854444 -6.44612,-8.046501 -8.76537,-12.886068 -3.18724,-6.650806 -5.301,-6.864968 -7.83759,-0.79409 -3.00648,7.195519 -10.13189,15.346825 -13.41533,15.346825 -2.12887,0 -4.52551,-2.601588 -9.21221,-10 C 125.31323,28.5 121.89366,24 121.19829,24 c -0.69536,0 -1.87998,1.65 -2.63249,3.666667 -2.25521,6.043804 -6.75442,14.266959 -8.3783,15.312916 -5.51675,3.553395 -13.459424,-1.672537 -15.113755,-9.944192 -1.488342,-7.441712 -12.204756,-3.094817 -14.424244,5.8509 -0.999785,4.029668 -7.254506,7.36153 -10.45284,5.56818 -2.018902,-1.132026 -8.825604,-10.439493 -8.907686,-12.180349 -0.0244,-0.517434 -1.266088,-2.408743 -2.759311,-4.202911 -3.047497,-3.661688 -2.514345,-4.091476 -9.228337,7.439223 -5.544602,9.522373 -6.626251,10.2161 -11.371958,7.293524 z"
       id="path944" />
  </g>
</svg>
