<?xml version="1.0" encoding="UTF-8" standalone="no"?>
<!-- Created with Inkscape (http://www.inkscape.org/) -->

<svg
   version="1.1"
   id="svg195"
   width="213.33333"
   height="72"
   viewBox="0 0 213.33333 72"
   xmlns="http://www.w3.org/2000/svg"
   xmlns:svg="http://www.w3.org/2000/svg">
  <defs
     id="defs199" />
  <g
     id="g201">
    <path
       style="fill:#000000;stroke-width:1.33333"
       d="M 7.7837392,66.625385 C 4.7935479,64.880155 3.6773113,57.196944 3.7364207,38.767132 3.7905239,21.898233 4.922631,17.204211 9.6904201,14.080235 13.796266,11.389982 58.36578,10 140.52242,10 h 59.85578 l 2.5294,3.387413 c 2.21912,2.971868 2.54805,5.997804 2.68136,24.666667 0.16497,23.103519 -0.37048,26.533317 -4.48622,28.735992 -2.4074,1.288401 -3.89032,0.202097 -13.02684,-9.542772 L 177.76572,46.250621 109.88286,46.019656 C 72.547287,45.892629 39.056338,46.136229 35.45853,46.561012 29.381657,47.278481 28.609196,47.80682 24.582314,54 19.058458,62.495467 13.988728,68.011233 11.751699,67.959455 10.788264,67.937161 9.0026825,67.336824 7.7837392,66.625385 Z M 19.31964,40.026481 c 2.200997,-4.25626 4.259997,-4.889825 19.661502,-6.049948 20.254654,-1.525688 141.436418,-1.844284 144.288198,-0.379344 1.50186,0.771492 4.065,2.617612 5.69586,4.102491 2.60288,2.36988 3.06481,2.440201 3.78037,0.575481 0.44835,-1.168364 0.30777,-5.308241 -0.31237,-9.199729 L 191.30566,22 168.65282,22.01969 c -76.328229,0.06634 -150.853267,1.216508 -152.319487,2.350803 -1.068335,0.826481 -1.666667,4.848996 -1.666667,11.204792 0,10.397514 1.055743,11.407474 4.652974,4.451198 z"
       id="path223" />
  </g>
</svg>
