<?xml version="1.0" encoding="UTF-8" standalone="no"?>
<!-- Created with Inkscape (http://www.inkscape.org/) -->

<svg
   version="1.1"
   id="svg175"
   width="221.33333"
   height="140"
   viewBox="0 0 221.33333 140"
   xmlns="http://www.w3.org/2000/svg"
   xmlns:svg="http://www.w3.org/2000/svg">
  <defs
     id="defs179" />
  <g
     id="g181">
    <path
       style="fill:#000000;stroke-width:1.33333"
       d="m 184,132.11903 c -10.73452,-2.26412 -26.20004,-13.71351 -29.36572,-21.73994 -0.94992,-2.4085 -3.17512,-6.34658 -4.94487,-8.75128 -3.33657,-4.533667 -3.76791,-8.178102 -2.27656,-19.235022 0.68912,-5.109245 1.71384,-6.935659 5.52017,-9.838889 3.88866,-2.966014 5.93868,-3.535854 12.20106,-3.391484 7.17608,0.165434 23.44689,4.52543 26.13258,7.0026 0.69667,0.642574 2.21923,1.168318 3.38346,1.168318 3.36042,0 14.28097,12.03604 17.45577,19.238806 4.27523,9.699351 4.11916,18.926161 -0.43672,25.819221 -2.01528,3.04913 -5.01528,6.40135 -6.66667,7.44937 -3.75002,2.3799 -14.82493,3.58127 -21.0025,2.2783 z m 14.6708,-11.4545 c 2.61618,-1.35289 4.3218,-3.62283 5.25968,-7 2.0321,-7.31726 1.81129,-8.59071 -2.6602,-15.341441 -4.10347,-6.195094 -10.05528,-10.671916 -18.60362,-13.993205 -15.38122,-5.976081 -21.76868,-5.847317 -30.57196,0.616301 -0.31457,0.23097 0.65611,2.080975 2.15706,4.111122 1.50096,2.030148 4.08817,6.372768 5.74938,9.650268 4.28738,8.458815 10.26712,15.674135 15.9776,19.279015 7.65352,4.83144 16.50714,5.87628 22.69206,2.67794 z M 12,120.96733 c -2.0773761,-1.05959 -3.7721872,-3.46304 -4.4980592,-6.3788 -0.9833596,-3.95007 -0.5303446,-5.9353 2.9092452,-12.74909 2.240684,-4.438772 6.36481,-10.023916 9.164726,-12.411433 2.799914,-2.387518 6.77792,-5.871468 8.840009,-7.742112 3.604097,-3.26949 4.229159,-3.37254 16.144552,-2.661658 9.559872,0.570351 13.899473,1.501739 18.970939,4.071646 7.136606,3.616392 16.202993,12.61554 19.899217,19.751637 2.741014,5.29193 3.259987,14.99376 0.926899,17.32769 -2.429419,2.4303 -67.743992,3.14532 -72.357528,0.79212 z m 57.411663,-13.84566 c 1.628955,-1.62896 0.162929,-3.30625 -7.411664,-8.479757 -5.967077,-4.075561 -7.576132,-4.542874 -15.333333,-4.453218 -6.838285,0.07904 -9.975776,0.852194 -14.871949,3.664828 -7.549185,4.336667 -9.693045,6.750947 -8.577123,9.658997 0.759975,1.98046 3.172839,2.13639 22.949685,1.48313 12.155232,-0.40151 22.615205,-1.2448 23.244384,-1.87398 z M 14.627644,62.90318 C 11.836089,60.642716 11.639156,59.252056 11.032195,37.513675 10.485578,17.936523 10.699325,14.173888 12.469177,12.218224 14.264189,10.234758 17.699236,9.8834543 37.607478,9.6473211 50.290031,9.4968924 72.366666,8.8301271 86.666665,8.1656203 100.96667,7.5011136 134.46394,7.0420053 161.10506,7.1453797 c 45.97107,0.1783798 48.53312,0.3173063 50.2977,2.7273888 2.73658,3.7376485 1.477,50.1146165 -1.41979,52.2753685 -3.0666,2.28742 -8.54984,0.572475 -10.59389,-3.313361 -1.01303,-1.925793 -4.54375,-6.130987 -7.84606,-9.344875 l -6.00418,-5.843432 -57.10275,0.113534 c -80.651964,0.160346 -90.128273,0.338228 -92.7494,1.741013 -1.279167,0.684588 -3.300462,3.17692 -4.491772,5.538513 -2.419398,4.796102 -8.038644,11.229044 -11.404438,13.055866 -1.531811,0.831406 -3.115366,0.465729 -5.162836,-1.192211 z M 30,34.009752 c 1.170293,-1.942571 5.490837,-2.287531 35.333332,-2.82108 18.7,-0.334335 34.899998,-0.610451 35.999998,-0.613589 1.1,-0.0032 21.96136,-0.0084 46.35856,-0.01173 l 44.35857,-0.006 3.97476,4.351815 L 200,39.260983 200.20106,34.6305 c 0.60179,-13.859043 -0.86848,-16.263164 -9.38246,-15.341805 -3.38356,0.366158 -34.95194,1.007701 -70.15194,1.425649 -69.562787,0.825952 -96.291562,1.56312 -98.141927,2.706708 C 21.164537,24.2617 20.879397,41.768285 22.204321,43.093209 22.993617,43.882507 26.545482,39.743905 30,34.009752 Z"
       id="path501" />
  </g>
</svg>
