<?xml version="1.0" encoding="UTF-8" standalone="no"?>
<!-- Created with Inkscape (http://www.inkscape.org/) -->

<svg
   version="1.1"
   id="svg165"
   width="112"
   height="182.66667"
   viewBox="0 0 112 182.66667"
   xmlns="http://www.w3.org/2000/svg"
   xmlns:svg="http://www.w3.org/2000/svg">
  <defs
     id="defs169" />
  <g
     id="g171">
    <path
       style="fill:#000000;stroke-width:1.33333"
       d="m 90.815764,176.12036 c -1.017997,-0.64466 -1.849145,-2.88548 -1.846999,-4.97958 0.04689,-45.72615 0.630708,-56.74025 3.14059,-59.25013 1.553486,-1.55349 4.402078,-2.55731 7.25698,-2.55731 6.196385,0 8.308885,4.54308 6.088905,13.09464 -0.8226,3.16872 -1.12613,6.35917 -0.67453,7.08989 0.45161,0.73072 0.75015,7.1506 0.66342,14.26641 -0.0867,7.11582 0.45631,16.17542 1.20675,20.13247 1.86804,9.85015 -0.35982,13.42511 -8.348284,13.39617 -3.099761,-0.0107 -6.468836,-0.54788 -7.486832,-1.19256 z m -76.476383,-16.0384 c -3.480007,-0.47842 -7.0221086,-1.56469 -7.8713362,-2.41392 -5.51403939,-5.51404 6.0833822,-27.82741 17.4871502,-33.64518 7.864942,-4.01239 21.602806,-5.95193 28.987341,-4.09248 13.481463,3.39467 23.176159,11.88825 28.477113,24.94896 3.352003,8.2588 2.712066,13.43925 -1.773289,14.3552 -5.192944,1.06045 -58.706535,1.75484 -65.306979,0.84742 z M 66.333333,148.452 c 3.860562,-0.95366 3.777972,-2.27661 -0.491585,-7.87429 C 62.959503,136.79888 61.478404,136 57.354893,136 c -3.061632,0 -6.378412,-1.08797 -8.568412,-2.81063 -2.577489,-2.02746 -4.578136,-2.56812 -7.179812,-1.94032 -1.983668,0.47867 -5.706669,1.33939 -8.273336,1.91273 -6.182638,1.38105 -9.890816,3.83146 -12.511353,8.26768 -3.07338,5.20282 -2.718661,6.33225 2.17802,6.9349 6.834429,0.84115 40.011449,0.90824 43.333333,0.0876 z M 42.666667,97.943782 C 30.480121,94.644756 21.887528,87.585818 15.079401,75.280444 L 9.2071755,64.666668 9.6403509,51.924712 C 10.03777,40.234527 10.424606,38.638678 14.326769,32.591378 16.666052,28.966121 19.049508,25.56687 19.623339,25.037487 32.269123,13.371234 33.28626,12.761368 47.333333,8.422865 c 10.428756,-3.2209694 25.52431,-0.7541667 34.156842,5.581657 2.480404,1.820485 6.488248,4.590246 8.90632,6.155026 7.481694,4.841544 12.828385,18.259485 12.687565,31.840453 -0.1056,10.184369 -3.03481,25.840232 -5.451341,29.135964 -1.264663,1.724781 -4.457435,4.424781 -7.095051,6.000001 -2.637616,1.57522 -6.350065,3.958437 -8.249887,5.29604 -8.70667,6.13008 -27.618658,8.760964 -39.621114,5.511776 z m 18.561238,-8.517074 c 1.608851,-1.018284 1.542855,-1.735913 -0.437609,-4.758482 -2.216439,-3.382714 -2.424159,-3.43799 -4.1855,-1.113791 -4.002807,5.281944 -0.823879,9.319819 4.623109,5.872273 z M 47.947281,73.205687 c 5.296308,-17.436939 12.918114,-15.406945 24.258356,6.460981 2.182556,4.208727 4.311523,3.75463 8.986343,-1.916737 4.854791,-5.889703 4.303348,-6.94883 -6.445537,-12.379607 -15.590191,-7.876804 -15.585516,-12.240856 0.02151,-20.087918 12.500416,-6.285085 13.530888,-9.069072 5.852315,-15.810949 -2.592184,-2.275969 -5.16282,-4.138123 -5.712524,-4.138123 -1.08178,0 -4.160587,4.838285 -9.757253,15.333333 -2.916046,5.468263 -4.279258,6.740397 -7.583488,7.076822 -3.837327,0.390704 -4.296511,-0.130973 -9.682327,-11 -3.109675,-6.275586 -6.435868,-11.410155 -7.39154,-11.410155 -2.242324,0 -11.159807,8.894325 -11.159807,11.130828 0,0.939733 2.25,2.763663 5,4.053176 2.75,1.289513 7.280111,3.903108 10.066912,5.807988 4.455495,3.045492 5.018615,4.027427 4.666667,8.137452 -0.33488,3.910704 -1.271249,5.143898 -5.733579,7.551095 C 32.610521,67.798277 28,70.966019 28,72.548915 c 0,1.736741 5.291057,7.010873 10.5758,10.541969 4.435773,2.963843 5.955664,1.360636 9.371481,-9.885197 z M 30.369992,57.924396 c 3.820993,-2.676328 3.734976,-3.811442 -0.432729,-5.710375 -5.779722,-2.633417 -7.270596,-1.993785 -7.270596,3.119313 0,5.296332 2.594898,6.169143 7.703325,2.591062 z m 60.296675,-2.591062 c 0,-3.716556 -2.753614,-4.441705 -5.28486,-1.39174 -2.016587,2.429839 -0.706559,4.725074 2.696882,4.725074 1.87162,0 2.587978,-0.922674 2.587978,-3.333334 z M 61.333333,21.83674 C 61.333333,20.76644 59.942392,20 58,20 c -3.534327,0 -4.381989,2.418011 -1.765059,5.034942 1.839479,1.839478 5.098392,-0.204824 5.098392,-3.198202 z"
       id="path640" />
  </g>
</svg>
