<?xml version="1.0" encoding="UTF-8" standalone="no"?>
<!-- Created with Inkscape (http://www.inkscape.org/) -->

<svg
   version="1.1"
   id="svg165"
   width="225.33333"
   height="218.66667"
   viewBox="0 0 225.33333 218.66667"
   xmlns="http://www.w3.org/2000/svg"
   xmlns:svg="http://www.w3.org/2000/svg">
  <defs
     id="defs169" />
  <g
     id="g171">
    <path
       style="fill:#000000;stroke-width:1.33333"
       d="m 195.84501,213 c -1.09889,-0.91666 -3.52712,-4.06666 -5.39605,-7 -1.86895,-2.93333 -5.19699,-7.25308 -7.39567,-9.59944 l -3.9976,-4.26612 -27.86117,-0.40054 c -15.32366,-0.22031 -48.26119,-0.25454 -73.194521,-0.0761 L 32.666666,191.98232 30,195.10094 c -1.466667,1.71522 -4.572919,5.87468 -6.902784,9.24322 -5.57895,8.06611 -8.610115,9.68422 -12.396973,6.6178 -3.5575956,-2.88076 -5.2601611,-14.33038 -5.3232849,-35.7987 -0.032057,-10.90267 0.4356607,-15.23451 1.7639291,-16.33687 1.8366283,-1.52427 162.6518928,-3.07595 185.2594028,-1.78753 14.72983,0.83945 14.71684,0.81222 14.54473,30.48689 -0.0915,15.76169 -0.64562,23.97688 -1.70352,25.25156 -1.93869,2.33599 -6.72704,2.44947 -9.39649,0.22269 z m 0.20188,-34.6707 c -0.47023,-4.21888 -1.60333,-8.41888 -2.51801,-9.33334 -1.29595,-1.29561 -20.6712,-1.64168 -87.77283,-1.56774 -98.6948448,0.1088 -89.998268,-1.16259 -88.775884,12.97801 0.392742,4.54324 0.918371,8.49595 1.168067,8.78377 0.829248,0.95591 4.512248,-2.81408 6.214061,-6.36082 L 26.03968,179.33334 45.353173,180 c 10.622421,0.36667 23.513493,0.56807 28.646826,0.44758 26.051041,-0.61155 104.601061,-0.39435 108.666661,0.30046 3.26196,0.55748 5.87071,2.31415 8.66667,5.8359 3.69279,4.65137 4.06024,4.82242 4.78427,2.2272 0.43134,-1.54612 0.39953,-6.26295 -0.0707,-10.48184 z M 97.333332,138.65588 c -4.033333,-0.59274 -12.133333,-1.7717 -18,-2.61988 -5.866666,-0.84818 -15.166666,-2.74684 -20.666666,-4.21923 -5.5,-1.47239 -12.225531,-3.14847 -14.945623,-3.72461 -2.720093,-0.57615 -6.448982,-2.03258 -8.286422,-3.23652 -1.83744,-1.20393 -4.189404,-2.18897 -5.226587,-2.18897 -1.037182,0 -5.257849,-1.54378 -9.37926,-3.43063 -5.579654,-2.55445 -7.716351,-4.31864 -8.36614,-6.9076 -1.266165,-5.04481 2.023044,-10.01398 7.564918,-11.42871 2.551513,-0.65134 8.945673,-2.603409 14.209243,-4.337918 17.116872,-5.640537 55.427248,-11.479851 79.096535,-12.055988 18.42061,-0.448379 45.70965,2.246912 54.80028,5.412528 3.22652,1.123563 7.50033,2.051572 9.49739,2.062245 1.99705,0.01067 6.19705,1.181635 9.33333,2.602139 3.13628,1.420504 9.84008,4.103288 14.89732,5.961744 13.94337,5.12395 18.11816,8.41495 18.12924,14.29133 0.008,4.50834 -0.41977,5.01656 -6.32423,7.50502 -9.72896,4.10031 -15.82028,5.8322 -20.6195,5.86255 -2.40927,0.0152 -6.7805,1.14208 -9.71383,2.50409 -7.98255,3.70647 -28.72411,7.04377 -46,7.40137 -8.43333,0.17456 -19.23333,0.61155 -24,0.97108 -4.76666,0.35954 -11.96666,0.16872 -15.999998,-0.42404 z M 150,125.8188 c 7.33333,-1.08282 17.83333,-2.52908 23.33333,-3.21391 11.67084,-1.4532 28.01009,-6.41545 27.97724,-8.49672 -0.0243,-1.53346 -12.67095,-7.46308 -15.88847,-7.44954 -1.05117,0.004 -5.25117,-1.1325 -9.33333,-2.52649 -7.13111,-2.43516 -28.55929,-5.857432 -46.75544,-7.467265 -11.54607,-1.021495 -49.144219,1.567654 -59.999998,4.131825 -4.766666,1.1259 -11.666666,2.58507 -15.333333,3.24259 -6.197516,1.11137 -11.651593,2.45849 -19,4.69287 -9.495811,2.88733 3.567151,8.15687 35,14.11884 8.066667,1.53003 22.00477,3.20258 30.973561,3.71678 8.9688,0.5142 16.72466,1.35266 17.23525,1.86326 1.10785,1.10784 13.48427,0.0909 31.79119,-2.61224 z M 97.666665,77.174961 c -4.924929,-1.422023 -5.102701,-2.085919 -2.333333,-8.713951 2.294121,-5.490604 2.648579,-12.461009 0.633665,-12.461009 -0.751484,0 -1.915709,-1.444966 -2.587166,-3.211034 -0.671459,-1.766068 -4.561618,-5.209244 -8.644798,-7.6515 -8.276597,-4.950448 -8.705835,-5.710948 -8.933775,-15.828335 -0.139658,-6.198853 0.31099,-7.54335 3.426653,-10.22333 C 81.201012,17.388611 84.5465,16 86.662328,16 c 2.115827,0 4.232805,-0.624312 4.704395,-1.38736 0.471589,-0.763048 3.313884,-2.938048 6.31621,-4.8333332 C 108.46678,2.9717612 124.28093,5.8445669 131.76787,15.971192 133.40612,18.187036 135.65833,20 136.7728,20 c 1.11445,0 3.86321,0.949911 6.10834,2.110911 4.02663,2.082249 4.07451,2.229473 3.52607,10.842504 -0.49908,7.837767 -0.99965,9.128012 -4.89011,12.604123 -2.38376,2.129891 -6.08972,4.223653 -8.23547,4.652804 -2.85525,0.571049 -4.79414,2.377617 -7.23085,6.73735 -3.09237,5.532868 -3.18899,6.228728 -1.35679,9.771813 2.38902,4.619859 2.51803,8.201805 0.37267,10.347163 -1.90324,1.903244 -20.92314,1.978416 -27.399995,0.108293 z M 117.82458,52.193838 c 3.1835,-3.517731 7.85257,-21.276432 6.91204,-26.28984 -1.00288,-5.345818 -5.51447,-9.408924 -11.40329,-10.269727 -5.41317,-0.791273 -12.76852,2.152353 -14.782829,5.916116 -2.894518,5.408459 1.159064,24.035291 6.546929,30.084158 3.31301,3.719449 9.61656,3.996459 12.72715,0.559293 z"
       id="path829" />
  </g>
</svg>
