<?xml version="1.0" encoding="UTF-8" standalone="no"?>
<!-- Created with Inkscape (http://www.inkscape.org/) -->

<svg
   version="1.1"
   id="svg75"
   width="212"
   height="210.66667"
   viewBox="0 0 212 210.66667"
   xmlns="http://www.w3.org/2000/svg"
   xmlns:svg="http://www.w3.org/2000/svg">
  <defs
     id="defs79" />
  <g
     id="g81">
    <path
       style="fill:#000000;stroke-width:1.33333"
       d="m 33.288581,201.94608 c -3.080124,-3.71132 -10.621914,-15.79037 -10.621914,-17.01222 0,-2.71503 -2.844224,0.17374 -5.644394,5.73281 -2.112801,4.19447 -3.979975,6.13541 -6.20482,6.44999 -6.6112439,0.93478 -6.6081954,-6.41614 0.0071,-17.16739 2.113152,-3.43431 3.842094,-6.89803 3.842094,-7.69715 0,-2.06424 3.956709,-4.01378 6.693625,-3.29806 1.273179,0.33294 5.222365,4.45448 8.775971,9.15898 3.553605,4.7045 7.136925,8.55363 7.962933,8.55363 0.826009,0 3.474145,-3.88576 5.884748,-8.63504 2.420423,-4.76861 5.537592,-9.00151 6.961703,-9.45351 3.059812,-0.97114 6.622326,1.92918 10.646422,8.6675 1.561619,2.6149 4.019102,6.07486 5.461072,7.68878 l 2.621764,2.93439 3.162548,-4.66027 C 74.576853,180.64536 76,177.81876 76,176.92716 76,174.72675 82.367213,168 84.450028,168 c 2.297333,0 10.773784,9.04168 13.4373,14.33334 3.007262,5.97457 5.511162,5.4317 9.283542,-2.01272 7.44659,-14.69515 10.75878,-15.37599 19.05641,-3.91714 8.26845,11.41858 8.95375,11.46218 15.62283,0.99383 2.78069,-4.36481 5.87318,-8.61437 6.8722,-9.44348 3.21596,-2.66901 6.79328,-0.094 13.15009,9.46581 3.47151,5.22067 6.83508,8.96716 7.61688,8.48399 0.77001,-0.47591 3.14361,-4.63228 5.27465,-9.2364 2.13104,-4.60412 4.83002,-8.73776 5.99772,-9.18585 3.61963,-1.38898 6.91948,-0.90216 7.70167,1.13617 0.41175,1.07299 3.52008,6.15768 6.9074,11.29933 7.49751,11.3805 9.73359,18.21691 6.88889,21.06162 -3.22125,3.22124 -6.69072,0.87846 -12.29978,-8.30547 -2.91124,-4.76669 -5.91782,-8.66812 -6.68128,-8.66987 -0.76347,-0.001 -2.98787,3.15622 -4.94311,7.01768 -4.63461,9.15306 -8.36743,13.12114 -11.34499,12.06 -3.47429,-1.23814 -5.65712,-3.20225 -5.65712,-5.09029 0,-2.65079 -8.51782,-15.30581 -9.99466,-14.84917 -0.73039,0.22584 -3.31728,4.41005 -5.74864,9.29825 -2.43136,4.8882 -5.47175,9.45016 -6.75644,10.13771 -3.78914,2.02788 -8.1959,-1.20555 -13.50702,-9.91067 -2.68451,-4.4 -5.73119,-8 -6.77041,-8 -1.03922,0 -3.73394,3.47301 -5.98826,7.71781 -7.51025,14.14151 -10.76129,14.70156 -18.557952,3.19702 C 87.885352,186.5442 85.882357,184 84.892089,184 c -0.447662,0 -2.384917,3.45 -4.305013,7.66667 C 76.291647,201.09974 73.791825,204 69.956609,204 c -3.561666,0 -5.370748,-2.01756 -10.623276,-11.84748 -2.2,-4.11721 -4.889218,-7.48585 -5.97604,-7.48585 -1.092037,0 -4.163093,4.17536 -6.864833,9.33333 -5.212229,9.95082 -9.432357,12.49048 -13.203879,7.94608 z m 66.526658,-44.6364 c -1.20162,-0.70174 -3.821562,-4.43349 -5.822092,-8.29278 -6.347142,-12.24448 -8.718772,-13.31459 -12.016507,-5.422 -2.789843,6.67704 -8.333891,13.73844 -10.786323,13.73844 -2.74711,0 -9.351884,-7.46523 -12.681244,-14.33334 -1.510826,-3.11666 -3.58589,-5.66666 -4.611253,-5.66666 -1.025363,0 -3.979381,4.2 -6.564487,9.33333 C 43.130409,155.01256 42.221964,156 38.746677,156 c -4.184877,0 -6.172281,-2.00922 -12.380518,-12.51649 -3.85386,-6.52255 -5.947752,-7.62585 -7.243771,-3.81684 -2.215499,6.51136 -7.289367,16.17175 -8.773023,16.70337 C 7.722534,157.3113 4,154.82983 4,152.13751 c 0,-4.28329 10.964912,-27.7787 13.899583,-29.78376 2.715113,-1.85505 7.24634,-1.04471 8.033924,1.43675 1.223017,3.85339 11.359269,16.87617 13.135526,16.87617 0.878699,0 3.540522,-4.06611 5.915162,-9.03578 6.445104,-13.4884 8.690201,-13.45329 17.918564,0.2802 3.170149,4.71777 6.363908,8.54906 7.097241,8.51401 0.733333,-0.0351 3.19414,-3.50451 5.468459,-7.7099 6.751321,-12.48369 11.22265,-13.39608 18.206972,-3.7152 2.513068,3.48334 4.945337,7.38334 5.405045,8.66667 1.873544,5.23025 6.041224,2.05632 11.467504,-8.73321 1.16528,-2.31701 3.70749,-5.09368 5.64936,-6.17036 3.37707,-1.87244 3.69349,-1.76411 7.27306,2.48998 2.05832,2.44617 5.47606,7.06493 7.59498,10.26392 2.11892,3.19899 4.25765,5.81634 4.75271,5.81634 0.49507,0 3.59952,-4.65 6.89879,-10.33334 7.72308,-13.3038 10.80272,-14.16814 16.85168,-4.72962 2.25459,3.51796 5.08941,8.34629 6.29959,10.72962 1.21018,2.38334 2.76952,4.33334 3.46518,4.33334 1.35628,0 5.33334,-6.93023 5.33334,-9.29362 0,-0.78432 1.50753,-3.81412 3.35005,-6.73288 5.34776,-8.47139 8.46536,-7.47656 15.75196,5.0265 9.61092,16.49132 10.96029,19.8484 8.95113,22.26929 -3.81809,4.60053 -8.15986,1.26924 -15.48173,-11.8786 -1.75521,-3.15181 -4.53977,-4.24841 -4.65993,-1.83513 -0.12214,2.45161 -7.97547,13.0545 -11.30666,15.26514 -3.78769,2.51359 -7.53637,-0.30124 -12.78381,-9.5992 -2.24156,-3.97182 -4.85903,-7.2215 -5.81659,-7.2215 -1.61254,0 -4.51297,4.03218 -10.0705,14 -3.49843,6.27468 -7.88755,5.97118 -13.48254,-0.9323 -2.55612,-3.1539 -5.03976,-6.79798 -5.51919,-8.09794 -1.20407,-3.26476 -4.54555,-4.28383 -7.09868,-2.16492 -1.17289,0.97341 -3.6442,5.09053 -5.49181,9.14916 -4.28747,9.41825 -6.3148,10.87128 -11.193131,8.02234 z M 4.1768851,109.10612 c -1.2013626,-3.24759 -0.4995524,-6.76195 2.883529,-14.439452 1.1309986,-2.566667 3.2959349,-7.490659 4.8109699,-10.942204 2.934028,-6.684289 6.714648,-9.686272 10.632596,-8.442764 1.321791,0.41952 4.669307,4.637536 7.438925,9.373371 2.76962,4.735834 5.812076,9.254965 6.761014,10.042513 2.028665,1.683643 2.31104,1.316078 7.688406,-10.007951 5.924115,-12.475408 8.408678,-12.982965 14.79784,-3.022965 6.236796,9.722479 9.509688,12.518928 12.118158,10.354089 1.113756,-0.924334 2.02501,-2.180496 2.02501,-2.79147 0,-1.110404 5.381799,-9.749343 8.03379,-12.895952 3.170522,-3.761853 8.489822,-0.06887 15.485466,10.750962 4.164741,6.441403 6.857811,6.005363 10.913381,-1.767 5.97573,-11.452314 10.34665,-13.561583 14.47248,-6.983962 1.26496,2.016666 3.0695,4.566666 4.01009,5.666666 0.94059,1.1 3.12491,3.750476 4.85404,5.889946 1.88511,2.332474 3.92823,3.588954 5.10291,3.138189 1.07747,-0.413465 3.90962,-4.71394 6.29366,-9.556612 3.86308,-7.847012 4.75758,-8.804856 8.22273,-8.804856 3.33936,0 4.75593,1.317263 10.03695,9.333333 6.13589,9.313703 9.34884,11.41317 10.71256,7 0.39656,-1.283333 1.28142,-3.233333 1.96637,-4.333333 0.68495,-1.1 2.24988,-3.943917 3.47763,-6.319816 4.1041,-7.942087 10.38281,-6.896482 15.1918,2.529924 1.53041,2.999855 4.49233,7.814541 6.58204,10.699304 6.81417,9.40669 6.88002,18.42392 0.13453,18.42392 -2.77495,0 -4.21759,-1.05074 -5.94956,-4.33333 -9.57217,-18.142118 -10.36073,-18.197553 -18.96671,-1.33333 -4.00021,7.8388 -9.23774,5.17279 -18.33592,-9.333338 -3.78709,-6.03815 -5.03312,-5.132666 -13.78432,10.017058 -3.9776,6.88585 -8.51604,5.43125 -15.89564,-5.09464 -2.99832,-4.27664 -6.10659,-7.994077 -6.90727,-8.260972 -0.80068,-0.266893 -4.22055,3.750098 -7.59971,8.926642 -8.83639,13.5365 -11.585059,12.92497 -22.120602,-4.921422 -1.406991,-2.383333 -3.316984,-4.331697 -4.244431,-4.329697 -0.927445,0.002 -3.786264,4.052 -6.35293,8.999999 -2.754122,5.30938 -5.664035,9.18096 -7.100274,9.44677 -2.554913,0.47287 -14.899314,-11.71492 -16.324184,-16.117072 -1.118532,-3.455717 -3.985185,-2.832451 -6.13254,1.333334 -7.8795,15.285928 -11.782976,17.799558 -17.057693,10.984228 -1.86192,-2.40574 -4.601543,-6.53127 -6.088051,-9.167838 -3.591934,-6.370899 -6.49442,-6.783516 -8.521505,-1.211416 -3.511243,9.651794 -6.139697,13.732704 -9.1173471,14.155514 -2.1466877,0.30481 -3.3347382,-0.45541 -4.1481878,-2.65437 z M 195.78519,57.397433 c -1.71519,-2.164745 -5.16216,-6.59784 -7.65995,-9.851322 -4.25921,-5.54782 -5.04635,-5.97307 -12.66667,-6.843134 -4.46888,-0.510244 -38.38828,-0.867848 -75.37642,-0.794676 -75.837595,0.150025 -69.56879,-0.766248 -75.557799,11.043825 -1.753082,3.457003 -4.444115,6.958022 -5.980074,7.780043 C 15.009973,60.62367 9.9306451,59.40085 8.6278447,56.344844 8.0780509,55.05518 7.3377136,45.153295 6.9826504,34.340655 6.3072541,13.772995 7.3932699,7.4200976 11.810061,6.1016094 15.577161,4.9770657 91.619795,3.7442506 147.65624,3.8992499 c 50.73321,0.1403304 59.89268,0.7432212 60.48833,3.9814369 0.0795,0.4322891 0.30226,12.0562212 0.49498,25.8309602 0.32161,22.988235 0.15269,25.150782 -2.05692,26.333334 -4.18986,2.242341 -7.58208,1.410563 -10.79744,-2.647548 z M 23.102797,32.541486 c 1.89977,-2.208612 5.129242,-3.862719 8.936046,-4.57696 8.926974,-1.674899 153.125917,-0.14538 156.531477,1.66033 1.51967,0.805755 3.54704,2.56979 4.50528,3.920077 2.96507,4.178128 4.05503,2.758049 4.00007,-5.211599 -0.0881,-12.787588 2.07673,-11.76171 -26.08552,-12.36107 -41.04825,-0.873605 -150.073985,0.63747 -152.461583,2.113087 -2.157392,1.333341 -1.221292,17.91465 1.011373,17.91465 0.323383,0 1.926669,-1.556332 3.562857,-3.458515 z"
       id="path779" />
  </g>
</svg>
