<?xml version="1.0" encoding="UTF-8" standalone="no"?>
<!-- Created with Inkscape (http://www.inkscape.org/) -->

<svg
   version="1.1"
   id="svg213"
   width="212"
   height="209.33333"
   viewBox="0 0 212 209.33333"
   xmlns="http://www.w3.org/2000/svg"
   xmlns:svg="http://www.w3.org/2000/svg">
  <defs
     id="defs217" />
  <g
     id="g219">
    <path
       style="fill:#000000;stroke-width:1.33333"
       d="m 100.58188,202.14172 c -15.215659,-3.0056 -25.792621,-11.60784 -32.516659,-26.44578 -7.820837,-17.25824 -4.713854,-34.24024 8.754652,-47.85076 7.510074,-7.58927 11.496562,-9.87967 23.670597,-13.59977 5.12942,-1.56742 8.4846,-1.71044 16,-0.682 5.23024,0.71572 10.07953,1.85675 10.7762,2.53562 0.69666,0.67887 2.25281,1.2343 3.45809,1.2343 2.73683,0 17.7798,14.52976 20.51091,19.81113 5.87248,11.35614 5.18914,29.98408 -1.57843,43.0283 -3.98555,7.68194 -12.84196,16.00832 -21.94625,20.63278 -7.04088,3.57636 -14.04257,3.92122 -27.12911,1.33618 z m 16.23562,-11.7209 c -0.92587,-4.62932 -4.28621,-9.08749 -6.84969,-9.08749 -1.40014,0 -3.2413,6.53595 -3.28647,11.66667 -0.009,1.06634 1.96639,1.66666 5.48533,1.66666 5.47077,0 5.49548,-0.0225 4.65083,-4.24584 z m -16.59351,-6.4983 c 4.1608,-12.44551 6.71143,-17.25586 9.1497,-17.25586 2.18195,0 11.17146,10.535 14.50608,17 2.13314,4.13563 5.82737,3.7544 10.68434,-1.10256 4.56704,-4.56705 5.31621,-8.87169 1.76922,-10.16573 -1.28333,-0.4682 -5.63333,-2.92912 -9.66666,-5.46872 -12.31298,-7.75289 -12.281,-9.22549 0.33333,-15.34955 5.31667,-2.58116 10.82141,-5.56114 12.23277,-6.62221 2.50707,-1.88481 2.48359,-2.07003 -1.02017,-8.04875 -3.56488,-6.083 -8.04669,-10.24248 -11.0362,-10.24248 -0.85997,0 -3.18812,3.10686 -5.17365,6.90412 -7.54072,14.42135 -9.45894,17.09588 -12.26147,17.09588 -1.71257,0 -9.82496,-15.07732 -11.444384,-21.27 -1.321233,-5.0524 -7.351765,-3.49523 -13.84228,3.57428 -3.183372,3.46735 -5.787949,7.33698 -5.787949,8.59916 0,1.51947 3.645914,4.19171 10.790188,7.90858 5.934602,3.08752 11.130095,6.49944 11.545525,7.58205 1.04692,2.72821 -1.153288,5.89844 -5.768897,8.31227 -10.142262,5.3041 -16.566816,9.70941 -16.566816,11.35982 0,2.12834 16.057325,15.4703 17.885433,14.86092 0.685356,-0.22845 2.337707,-3.6805 3.67189,-7.67122 z M 81.684759,165 c 4.282049,-2.39335 7.648574,-5.24447 7.648574,-6.47759 0,-1.0032 -11.244874,-6.52241 -13.288804,-6.52241 -1.933076,0 -3.955237,6.77978 -3.17931,10.65942 0.885446,4.42724 3.733777,5.18314 8.81954,2.34058 z m 60.595571,-3.66667 c 0.38355,-1.46667 1.22738,-2.66667 1.87518,-2.66667 0.6478,0 1.17782,-0.9 1.17782,-2 0,-2.59914 -3.13284,-2.5366 -8.8507,0.1767 -5.11445,2.42697 -5.25539,4.62558 -0.38378,5.98696 5.07975,1.41952 5.44172,1.33186 6.18148,-1.49699 z m -27.59905,-31 c 4.09054,-6.70897 3.52513,-8.52863 -2.72613,-8.77358 -6.38538,-0.25021 -7.54951,1.58928 -5.30663,8.38526 1.94048,5.87971 4.60603,6.00856 8.03276,0.38832 z M 169.06829,89.402896 C 167.38073,87.306827 164.2,82.545024 162,78.821113 c -2.2,-3.72391 -4.71481,-6.782079 -5.58848,-6.79593 -0.87367,-0.01385 -3.54079,3.637729 -5.92695,8.114622 -4.5221,8.48434 -9.08905,12.68101 -12.41216,11.405815 -1.07149,-0.411171 -4.4299,-4.677141 -7.46314,-9.479936 -3.03324,-4.802793 -6.2682,-8.732352 -7.18881,-8.732352 -2.29703,0 -5.21722,3.548665 -8.77756,10.666667 -3.3853,6.768057 -4.71139,7.95048 -8.94913,7.979582 -2.16541,0.01487 -3.75684,-1.518753 -5.859051,-5.646249 -3.973575,-7.801728 -9.218471,-14.459552 -10.679566,-13.556545 -0.668156,0.412943 -3.078789,4.457096 -5.356964,8.987008 -6.040741,12.011381 -8.34877,12.883393 -14.803268,5.592917 -2.260969,-2.553807 -5.378857,-6.903807 -6.928641,-9.666667 -1.549783,-2.762858 -3.698699,-5.023379 -4.775367,-5.023379 -1.090337,0 -4.024997,4.134834 -6.624246,9.333333 -2.566667,5.133333 -5.662098,9.516818 -6.878735,9.741078 -2.623777,0.483635 -6.266671,-3.196886 -12.61082,-12.741078 -2.559144,-3.85 -5.188179,-7 -5.842296,-7 -1.156265,0 -3.602739,3.868682 -6.745376,10.666666 -3.139923,6.792115 -3.585568,7.341874 -6.277757,7.744395 -4.8289737,0.722 -4.7244438,-3.999145 0.321676,-14.528629 2.584986,-5.39396 4.702954,-10.424128 4.706597,-11.178149 0.0036,-0.754023 1.430521,-3.150575 3.170843,-5.325672 2.860421,-3.57503 3.495661,-3.803707 6.616377,-2.381815 2.074189,0.945065 5.052795,4.652496 7.462159,9.288056 4.210776,8.101433 7.155192,12.381814 8.51728,12.381814 0.446949,0 2.86598,-4.444197 5.375625,-9.875994 4.985243,-10.789905 8.674001,-14.110621 11.99048,-10.794143 1.095183,1.095183 3.84066,5.22369 6.101061,9.174458 4.063368,7.102027 7.592304,11.107371 8.758627,9.941049 0.330715,-0.330714 2.647732,-4.447156 5.148927,-9.147649 2.501196,-4.700494 5.753469,-9.346999 7.227274,-10.32557 2.431191,-1.614249 3.214112,-1.208985 8.443978,4.370876 3.170382,3.382552 6.383023,8.056834 7.139203,10.387292 2.17599,6.706132 4.92599,5.883312 9.09193,-2.720362 7.64757,-15.794102 10.27369,-16.104674 19.81424,-2.34329 3.55885,5.133334 7.13067,9.333333 7.93735,9.333333 0.80666,0 4.01997,-4.199999 7.14066,-9.333333 7.99772,-13.1557 10.12263,-13.156622 18.58734,-0.0081 3.57864,5.55884 7.17338,9.886406 7.98832,9.616816 0.81493,-0.269592 3.40136,-4.454497 5.74761,-9.299791 7.69315,-15.887318 11.00311,-14.838776 21.67968,6.867772 7.63375,15.520184 7.83784,18.728604 1.08348,17.033369 -2.23531,-0.561028 -4.30547,-3.178344 -7.04129,-8.902348 -5.40814,-11.315123 -6.45876,-11.887615 -10.52716,-5.736332 -1.85347,2.802387 -4.0202,6.962547 -4.81498,9.2448 -0.79477,2.282254 -2.88444,4.80539 -4.64372,5.606967 -2.79385,1.272965 -3.58698,0.975093 -6.26696,-2.353621 z m -1.33333,-51.999999 c -1.68756,-2.09607 -4.86829,-6.857872 -7.06829,-10.581783 -2.2,-3.72391 -4.71482,-6.78208 -5.58848,-6.79593 -0.87367,-0.01385 -3.54079,3.637729 -5.92695,8.114622 -4.52211,8.48434 -9.08905,12.681009 -12.41216,11.405815 -1.07149,-0.411171 -4.42991,-4.677142 -7.46315,-9.479936 -3.03323,-4.802793 -6.2682,-8.732352 -7.1888,-8.732352 -2.29704,0 -5.21722,3.548665 -8.77756,10.666666 -3.3853,6.768058 -4.71139,7.95048 -8.94914,7.979583 -2.1654,0.01487 -3.75683,-1.518753 -5.859045,-5.646249 -3.973574,-7.801728 -9.21847,-14.459552 -10.679565,-13.556545 -0.668156,0.412942 -3.078789,4.457096 -5.356964,8.987008 -6.040741,12.011381 -8.348771,12.883393 -14.803268,5.592917 -2.260969,-2.553807 -5.378857,-6.903807 -6.928641,-9.666667 -1.549783,-2.762858 -3.698699,-5.02338 -4.775367,-5.02338 -1.090337,0 -4.024997,4.134835 -6.624247,9.333334 -2.566666,5.133333 -5.662097,9.516818 -6.878734,9.741078 C 39.830821,40.224713 36.187928,36.544191 29.843779,27 27.284635,23.15 24.6556,20 24.001483,20 c -1.156266,0 -3.602739,3.868682 -6.745376,10.666666 -3.139923,6.792115 -3.585568,7.341873 -6.277757,7.744395 -4.828974,0.722 -4.7244441,-3.999146 0.321676,-14.528629 2.584986,-5.39396 4.702954,-10.424128 4.706597,-11.17815 0.0036,-0.754022 1.430521,-3.150574 3.170842,-5.3256715 2.860422,-3.5750287 3.495662,-3.8037072 6.616378,-2.381814 2.074189,0.9450642 5.052794,4.6524957 7.462158,9.2880555 4.210776,8.101433 7.155192,12.381814 8.51728,12.381814 0.44695,0 2.86598,-4.444197 5.375626,-9.875994 4.985242,-10.7899057 8.674001,-14.1106218 11.99048,-10.7941429 1.095182,1.0951832 3.84066,5.2236889 6.101061,9.1744569 4.063368,7.102028 7.592304,11.107372 8.758627,9.94105 0.330714,-0.330714 2.647732,-4.447156 5.148926,-9.14765 2.501196,-4.700492 5.75347,-9.3469982 7.227275,-10.3255684 2.431191,-1.6142502 3.214112,-1.2089851 8.443977,4.3708754 3.170383,3.382552 6.383027,8.056833 7.139207,10.387292 2.17599,6.706132 4.92599,5.883312 9.09193,-2.720363 7.64756,-15.7941 10.27368,-16.1046723 19.81424,-2.343289 3.55885,5.133333 7.13066,9.333333 7.93734,9.333333 0.80667,0 4.01998,-4.2 7.14067,-9.333333 7.99772,-13.1556996 10.12263,-13.1566218 18.58733,-0.0081 3.57864,5.55884 7.17339,9.886406 7.98832,9.616816 0.81494,-0.269592 3.40136,-4.454498 5.74762,-9.299791 7.69314,-15.88731772 11.0031,-14.83877555 21.67968,6.867772 7.63374,15.520184 7.83784,18.728604 1.08348,17.033369 -2.23531,-0.561028 -4.30547,-3.178344 -7.0413,-8.902348 -5.40813,-11.315124 -6.45876,-11.887616 -10.52716,-5.736332 -1.85346,2.802387 -4.0202,6.962547 -4.81497,9.2448 -0.79477,2.282253 -2.88444,4.805389 -4.64372,5.606967 -2.79385,1.272965 -3.58699,0.975093 -6.26696,-2.353622 z"
       id="path241" />
  </g>
</svg>
