<?xml version="1.0" encoding="UTF-8" standalone="no"?>
<!-- Created with Inkscape (http://www.inkscape.org/) -->

<svg
   version="1.1"
   id="svg203"
   width="156"
   height="209.33333"
   viewBox="0 0 156 209.33333"
   xmlns="http://www.w3.org/2000/svg"
   xmlns:svg="http://www.w3.org/2000/svg">
  <defs
     id="defs207" />
  <g
     id="g209">
    <path
       style="fill:#000000;stroke-width:1.33333"
       d="m 136.83152,204.26673 c -0.41225,-0.66703 -0.6974,-10.44993 -0.63367,-21.73976 0.19166,-33.94992 -1.5056,-126.740207 -2.34301,-128.095184 -1.83148,-2.963396 -9.2118,-4.012728 -31.07444,-4.418152 -27.431135,-0.508688 -26.759869,-0.09296 -25.742667,-15.943129 0.377638,-5.88438 0.02429,-10.752769 -0.9067,-12.492333 -2.407314,-4.49811 2.191366,-8.233596 10.2023,-8.287282 C 97.879427,13.213514 125.90564,9.6588042 132,7.4987511 c 6.47415,-2.2946612 11.48671,-2.7643721 12.43685,-1.1654179 0.6383,1.0741391 2.07007,87.7436398 2.58263,156.3333268 l 0.31385,42 -4.87613,0.40644 c -2.68187,0.22354 -5.21343,-0.13933 -5.62568,-0.80637 z M 135.17243,31.666666 c -0.46542,-5.316666 -1.3033,-10.170362 -1.86198,-10.78599 -0.55867,-0.615628 -6.33207,-0.396 -12.82977,0.488064 -6.49771,0.884064 -15.18988,2.002769 -19.31594,2.48601 -8.449144,0.989559 -10.813124,2.467947 -13.213777,8.263636 -1.204639,2.908255 -1.26478,4.434463 -0.216071,5.483172 0.805407,0.805407 8.469304,1.728008 17.192488,2.06968 8.65661,0.339065 15.98929,0.851744 16.29484,1.139288 0.30556,0.287544 3.75975,0.522807 7.67598,0.522807 h 7.12041 z M 7.4554483,172.19758 c -0.3860618,-0.62466 -1.0178758,-8.27466 -1.4040311,-17 -0.3861553,-8.72533 -1.0664365,-22.2402 -1.5117361,-30.03303 -0.8708786,-15.24055 0.2387904,-19.83122 4.7936522,-19.83122 4.2094947,0 5.2165977,4.08209 5.1314387,20.79924 -0.0852,16.72472 1.163533,40.60684 2.176169,41.61948 0.329214,0.32921 -0.0015,1.71968 -0.734765,3.08992 -1.34832,2.51936 -7.1557383,3.45095 -8.4507277,1.35561 z m 30.1085277,0.001 c -1.272367,-0.82683 -2.097333,-7.47665 -2.936996,-23.67431 -0.642203,-12.38848 -1.558117,-27.17086 -2.035367,-32.84973 -0.835854,-9.94597 -0.75429,-10.36719 2.220603,-11.46768 4.013887,-1.48483 7.581959,-0.49945 8.484125,2.34302 0.394896,1.24421 0.864768,16.62943 1.044159,34.18938 0.317189,31.0484 0.252768,31.93656 -2.3405,32.26815 -1.466667,0.18753 -3.462877,-0.17644 -4.436024,-0.80883 z m 30.666667,-1.33333 c -1.272367,-0.82683 -2.097334,-7.47666 -2.936996,-23.67431 -0.642203,-12.38848 -1.558118,-27.17086 -2.035367,-32.84973 -0.835855,-9.94598 -0.754291,-10.36719 2.220603,-11.46768 4.013886,-1.48483 7.581958,-0.49946 8.484125,2.34302 0.394896,1.24421 0.864768,16.62942 1.044159,34.18938 0.317189,31.0484 0.252768,31.93656 -2.3405,32.26814 -1.466667,0.18754 -3.462878,-0.17644 -4.436024,-0.80882 z"
       id="path380" />
  </g>
</svg>
