<?xml version="1.0" encoding="UTF-8" standalone="no"?>
<!-- Created with Inkscape (http://www.inkscape.org/) -->

<svg
   version="1.1"
   id="svg193"
   width="216"
   height="213.33333"
   viewBox="0 0 216 213.33333"
   xmlns="http://www.w3.org/2000/svg"
   xmlns:svg="http://www.w3.org/2000/svg">
  <defs
     id="defs197" />
  <g
     id="g199">
    <path
       style="fill:#000000;stroke-width:1.33333"
       d="m 9.0433527,206.58413 c -1.9717359,-1.14928 -2.2269266,-3.16148 -1.8362644,-14.47903 0.249544,-7.22934 0.8243388,-13.74393 1.277322,-14.47688 0.452983,-0.73293 0.2949085,-4.1626 -0.3512768,-7.62145 -1.5226363,-8.15028 -0.4206715,-16.26065 2.3651135,-17.40704 1.192631,-0.49079 24.36842,-1.18585 51.501753,-1.5446 27.133333,-0.35875 51.73333,-0.72232 54.66667,-0.80792 2.93333,-0.0856 15.23333,-0.0552 27.33333,0.0675 12.1,0.12266 30.63248,0.0963 41.18329,-0.0588 13.12978,-0.19294 19.86176,0.21821 21.33334,1.30293 1.86036,1.37131 2.11876,4.95833 1.91789,26.62353 -0.20617,22.23622 -0.49585,25.23154 -2.58817,26.76148 -4.45996,3.26119 -8.26542,2.10187 -11.05603,-3.36818 -1.42847,-2.80003 -4.99052,-7.25318 -7.91568,-9.89588 l -5.31847,-4.80491 -21.11142,-0.24963 C 148.83347,186.488 115.63333,186.21845 86.666667,186.0263 26.545279,185.62749 32.682933,184.37257 23.213503,199 c -6.005128,9.27612 -8.748387,10.74436 -14.1701503,7.58413 z M 24.718497,179.41024 c 2.881915,-5.3514 4.5938,-5.78723 17.281503,-4.3997 5.133333,0.56139 27.033333,0.60759 48.666667,0.10267 C 112.3,174.60829 131.2,174.30262 132.66667,174.43397 c 1.46666,0.13133 14.79289,0.59961 29.61382,1.04063 l 26.94718,0.80182 3.45402,4.52846 c 5.37275,7.04402 6.47598,5.93122 5.60018,-5.6488 -0.42334,-5.5975 -1.27486,-10.6824 -1.89224,-11.29979 -1.76443,-1.76443 -172.078597,-1.69661 -174.936461,0.0696 -1.868869,1.15503 -4.229777,16.03231 -3.180777,20.04369 0.892789,3.41404 2.926977,1.97523 6.446105,-4.55938 z m 49.127878,-56.42467 c -4.699274,-3.11472 -2.704511,-14.55558 3.716614,-21.31647 12.22345,-12.870229 36.662461,-15.422685 51.679221,-5.397475 9.20679,6.146465 13.34638,11.515285 13.38859,17.364305 0.0617,8.55762 -1.86383,9.06718 -36.82427,9.74467 -16.760257,0.32479 -31.142327,0.14703 -31.960155,-0.39503 z m 61.445335,-8.02455 c 1.163,-3.03075 -10.80879,-13.99476 -17.4556,-15.986191 -3.01336,-0.902824 -8.79141,-1.641497 -12.84012,-1.641497 -6.105781,0 -8.450799,0.739072 -13.749339,4.333338 -7.522827,5.1031 -11.93152,10.62541 -10.81194,13.54299 1.188946,3.09834 53.663899,2.8605 54.856999,-0.24864 z M 93.222223,62.12258 C 92.916667,61.823332 87.266667,60.641663 80.666667,59.496646 68.961304,57.465914 50.100928,49.422667 39.595149,41.981177 30.900549,35.822586 17.270571,25.27057 14.735096,22.735096 13.230793,21.230793 11.12111,20 10.046912,20 7.7879555,20 5.3333333,15.991054 5.3333333,12.301675 c 0,-4.085323 5.1494397,-5.4345691 17.7426877,-4.6489041 7.488396,0.4671846 12.158126,0.2027816 13.310558,-0.7536519 1.289617,-1.0702868 8.318356,-1.0890355 25.694329,-0.068538 13.474217,0.7913461 39.930512,1.0555445 60.585762,0.6050227 49.5624,-1.0810303 79.68098,-1.1234752 81.3134,-0.114592 3.48114,2.1514653 0.40486,6.8640353 -13.624,20.8706663 -13.86946,13.847479 -16.01447,15.443915 -29,21.583354 -7.71251,3.6464 -15.82274,7.097095 -18.02274,7.668209 -2.2,0.571115 -7.3,1.972902 -11.33333,3.115082 -6.63017,1.877565 -37.198763,3.110671 -38.777777,1.564257 z M 132.3338,50.012681 c 3.11641,-1.08563 6.97993,-1.982604 8.5856,-1.993278 4.54221,-0.03019 25.79301,-11.450742 32.19347,-17.30133 4.16742,-3.809413 5.63568,-6.105856 5.3213,-8.322887 -0.36329,-2.561986 -1.30488,-3.100421 -5.7675,-3.298098 -12.9565,-0.573923 -52.19945,-0.625118 -85.333337,-0.11132 -19.8,0.307032 -37.00262,0.06508 -38.228042,-0.53766 -2.56327,-1.260786 -17.307016,0.0087 -19.979292,1.720302 -1.805567,1.156463 0.28735,3.238858 11.507526,11.449668 12.342751,9.032299 36.373884,18.996579 46.260548,19.181495 3.90826,0.07309 8.605927,0.654342 10.43926,1.291654 4.762367,1.655512 28.292807,0.258128 35.000467,-2.078546 z"
       id="path501" />
  </g>
</svg>
