<?xml version="1.0" encoding="UTF-8" standalone="no"?>
<!-- Created with Inkscape (http://www.inkscape.org/) -->

<svg
   version="1.1"
   id="svg183"
   width="204"
   height="110.66667"
   viewBox="0 0 204 110.66667"
   xmlns="http://www.w3.org/2000/svg"
   xmlns:svg="http://www.w3.org/2000/svg">
  <defs
     id="defs187" />
  <g
     id="g189">
    <path
       style="fill:#000000;stroke-width:1.33333"
       d="m 56.704867,107.52615 c -1.616087,-1.18171 -2.156292,-2.62856 -1.56081,-4.18036 0.773392,-2.01543 1.967918,-2.24891 7.924176,-1.54887 6.557432,0.7707 7.327935,0.54399 11.848796,-3.486309 6.987778,-6.229528 9.715239,-12.231895 7.73285,-17.017805 C 80.341352,75.71953 77.603401,74.010765 68,72.149762 52.950437,69.233369 39.281897,58.987523 29.985565,43.654396 24.436712,34.502261 18.945429,28.004081 16.750545,27.992565 15.971079,27.988476 13.083333,27.360273 10.333333,26.596559 6.0520543,25.407589 5.3333333,24.662527 5.3333333,21.413314 5.3333333,17.471965 7.2761516,16 12.478266,16 14.088024,16 18.599197,13.6 22.503096,10.666667 35.170368,1.1486619 45.583231,3.1383061 60,17.831411 c 4.617951,4.706467 6.980021,6.121178 10.254644,6.141798 2.340055,0.01473 4.604039,0.592125 5.031077,1.283088 0.42704,0.690964 3.596678,1.679218 7.04364,2.196122 6.793272,1.018715 17.560083,6.112787 25.140519,11.894669 4.35973,3.325331 8.60922,5.266856 23.86345,10.902847 9.17196,3.388771 27.08215,-0.833887 35.43832,-8.355244 2.98034,-2.68258 7.46088,-2.365474 8.23183,0.5826 1.06511,4.072973 -1.35251,6.654774 -10.74811,11.478049 l -8.92204,4.580174 5.42915,0.06557 c 2.98603,0.03607 8.08603,-0.784761 11.33333,-1.824063 3.24731,-1.039302 9.34546,-2.195049 13.55144,-2.568325 7.0163,-0.622689 7.86887,-0.396939 10.33334,2.736119 3.96893,5.045683 3.39969,9.400623 -1.87959,14.379624 -3.17031,2.98998 -6.3284,4.535311 -10.33333,5.056351 -3.17222,0.412701 -10.26578,1.734741 -15.76347,2.937867 -8.08056,1.768364 -11.91264,1.930372 -20,0.84553 -5.50231,-0.738078 -12.5542,-0.997962 -15.67087,-0.577517 -4.9289,0.664921 -5.66666,1.192731 -5.66666,4.05405 0,1.809281 -0.9662,5.325704 -2.1471,7.814272 -2.89761,6.106267 -1.59652,11.211678 2.85726,11.211678 1.82931,0 4.46916,-0.7139 5.86633,-1.58645 1.99433,-1.245483 2.99696,-1.207461 4.66501,0.17691 3.77242,3.13082 -0.0137,5.1571 -10.98627,5.87959 -5.64038,0.37139 -10.85523,0.77247 -11.58857,0.89129 -0.73333,0.11881 -8.15573,-0.10962 -16.494209,-0.50763 -8.338482,-0.39802 -18.175772,-0.1519 -21.860642,0.54692 -4.532428,0.85956 -7.245603,0.81758 -8.387084,-0.12977 -1.176608,-0.9765 -1.948852,-0.97719 -2.55138,-0.002 -1.215124,1.96611 -6.397434,1.739 -9.335148,-0.40911 z m 53.938503,-7.85948 c 1.07332,-1.65 2.76947,-5.336635 3.76923,-8.192522 1.75879,-5.024123 1.69509,-5.311397 -1.96409,-8.858072 -2.55767,-2.47902 -5.83193,-3.953738 -10.11518,-4.555843 C 96.167585,77.1935 96,77.262058 96,80.651185 c 0,4.534394 -3.208648,10.643323 -6.976421,13.282374 -4.502411,3.153611 -1.657135,6.733111 5.35202,6.733111 2.957898,0 5.833441,0.45 6.390091,1 2.15216,2.12646 7.95814,0.95088 9.87768,-2 z m 63.34195,-30.195132 c 7.95453,-1.624495 10.76449,-2.759596 11.09628,-4.482416 0.4042,-2.098832 -0.67748,-2.235199 -11.98532,-1.510979 -6.83628,0.437835 -15.49251,1.554662 -19.23604,2.481838 -3.74355,0.927176 -9.86017,1.392348 -13.59251,1.033717 -8.47631,-0.814465 -19.74008,0.733959 -17.99963,2.474401 3.903,3.903005 32.61318,3.904914 51.71722,0.0035 z M 114.66667,69.391853 118,68.382849 114.66667,67.572897 c -1.83334,-0.445474 -6.33334,-1.073444 -10,-1.395491 C 101,65.855359 96.2,65.248197 94,64.828154 83.033859,62.734405 78.666667,62.665851 78.666667,64.587461 c 0,1.255424 1.953325,2.156626 5.666666,2.61442 C 87.45,67.586115 93.6,68.445866 98,69.112437 c 9.95252,1.507744 12.46938,1.549938 16.66667,0.279416 z m 7.12863,-9.738819 c 3.75674,-1.402058 3.67547,-1.480894 -8,-7.760578 C 103.44262,46.324243 98.311767,43.699835 84,36.652306 78.213879,33.803053 71.20664,33.076137 69.488084,35.146872 c -0.851339,1.0258 -3.334432,2.222398 -5.517985,2.659109 -5.687339,1.137468 -4.956395,4.019055 2.518173,9.927362 6.559585,5.185053 8.292311,6.041769 21.511728,10.636085 8.290096,2.881166 27.5542,3.61285 33.7953,1.283606 z M 58.666667,56.163262 c 0,-0.643542 -0.939562,-1.949842 -2.087916,-2.902891 -7.129308,-5.9168 -7.655375,-18.351339 -0.984647,-23.27391 1.449307,-1.069496 0.563033,-2.579742 -4.303492,-7.333334 -5.932141,-5.794478 -6.188616,-5.900941 -7.997507,-3.319793 -5.270062,7.519976 -9.169452,8.185779 -11.766556,2.009085 -1.299829,-3.091382 -2.036637,-3.63233 -3.268968,-2.4 -0.875002,0.875003 -1.590914,2.096671 -1.590914,2.714819 0,0.618147 3.66522,6.520566 8.144932,13.116488 8.890936,13.090999 23.855068,26.508519 23.855068,21.389536 z"
       id="path640" />
  </g>
</svg>
