<?xml version="1.0" encoding="UTF-8" standalone="no"?>
<!-- Created with Inkscape (http://www.inkscape.org/) -->

<svg
   version="1.1"
   id="svg173"
   width="142.66667"
   height="217.33333"
   viewBox="0 0 142.66667 217.33333"
   xmlns="http://www.w3.org/2000/svg"
   xmlns:svg="http://www.w3.org/2000/svg">
  <defs
     id="defs177" />
  <g
     id="g179">
    <path
       style="fill:#000000;stroke-width:1.33333"
       d="m 36.754077,208.41365 c -1.655375,-4.31383 -0.518067,-9.02309 4.561976,-18.88984 2.923829,-5.67881 7.123829,-12.05708 9.333334,-14.17392 2.209505,-2.11684 4.017281,-4.18867 4.017281,-4.60405 0,-0.4154 -7.05,-0.9141 -15.666667,-1.10823 -28.024409,-0.63139 -32.9357893,-2.72147 -32.6184946,-13.88113 0.1578996,-5.55354 2.5381451,-8.82755 8.6630756,-11.91602 3.092146,-1.55921 5.745053,-2.93413 5.895349,-3.0554 0.150295,-0.12133 -0.573371,-2.59752 -1.608144,-5.50277 -1.034773,-2.90526 -1.906948,-9.18229 -1.938165,-13.94896 -0.03122,-4.76667 -1.354208,-14.02508 -2.939976,-20.57426 -3.369124,-13.914377 -3.45354,-13.65585 9.68428,-29.658583 13.77791,-16.782404 14.953159,-17.761212 21.397022,-17.820538 l 5.798387,-0.05338 -3.666667,-1.9892 c -2.016667,-1.09406 -3.666667,-2.672792 -3.666667,-3.508296 0,-0.835503 -0.898037,-2.511416 -1.995637,-3.724251 -2.683136,-2.964832 -2.78577,-7.457629 -0.335152,-14.671486 1.121041,-3.3 2.391281,-7.5 2.822754,-9.333333 C 46.147764,12.964493 50.749437,9.3451031 60.666169,7.2783736 73.306268,4.6440722 77.161523,4.8286646 82.841905,8.3401644 88.14015,11.615435 108,32.20064 108,34.417126 c 0,0.758049 1.41733,3.074308 3.14961,5.14724 1.73229,2.072932 5.6607,8.868967 8.72981,15.1023 3.0691,6.233333 6.06321,12.233333 6.65358,13.333333 1.91689,3.571624 6.63511,13.844289 9.41691,20.502824 3.39631,8.12938 3.40491,13.192547 0.0501,29.497177 -1.46666,7.12811 -2.6757,16.04416 -2.68674,19.81344 -0.0295,10.07724 -2.94201,17.51989 -6.85596,17.51989 -2.41679,0 -3.21947,-0.83003 -3.54586,-3.66667 C 122.61084,149.05382 121.73659,148 119.86963,148 c -4.42223,0 -4.44206,-3.8804 -0.0647,-12.67578 5.01631,-10.07933 8.86219,-34.11898 6.58916,-41.187236 -1.90905,-5.936276 -8.00255,-18.136985 -9.05834,-18.136985 -1.82132,0 -8.28891,8.392822 -12.04207,15.626682 -2.12867,4.102823 -4.8575,12.299739 -6.064063,18.215359 -2.053151,10.06637 -2.046443,11.39879 0.104667,20.79016 1.264126,5.51896 2.831066,11.07632 3.482086,12.3497 0.65102,1.27339 1.18367,5.30798 1.18367,8.96576 0,6.01604 0.3753,6.84459 3.93379,8.68476 2.16358,1.11883 4.86358,2.03424 6,2.03424 1.18574,0 2.06621,1.1504 2.06621,2.69967 0,2.86528 -3.9202,4.96419 -11.69904,6.26373 -4.970598,0.83042 -6.6165,2.58772 -4.451448,4.75278 0.816108,0.8161 1.483828,2.58812 1.483828,3.93781 0,1.34969 1.27477,4.17821 2.83282,6.28559 4.03935,5.46352 7.7943,17.26328 6.56247,20.62232 -1.46409,3.99242 -8.40228,4.43112 -12.070209,0.76318 -2.112115,-2.1121 -2.621691,-3.79032 -2.004353,-6.60104 C 97.470722,197.6725 93.917068,184 92.134006,184 c -0.490811,0 -1.929647,1.75594 -3.197412,3.9021 -4.469681,7.56656 -14.01347,11.07048 -23.34548,8.5711 -1.931287,-0.51727 -4.103614,-3.01084 -5.838766,-6.70222 -3.011177,-6.406 -4.302124,-6.66128 -8.082263,-1.59818 -2.329924,3.12068 -2.358169,3.72282 -0.433865,9.24926 3.725801,10.70016 3.090593,11.81263 -7.142403,12.50871 -4.876495,0.33172 -6.781367,-0.062 -7.33974,-1.51712 z M 77.40719,186.62714 c 1.410865,-0.75508 3.518692,-3.21669 4.684057,-5.47026 1.732594,-3.35047 1.830499,-4.79352 0.537072,-7.91614 -1.857222,-4.48373 -5.132052,-5.81822 -11.394699,-4.64334 -8.144499,1.52792 -9.863765,10.28576 -3.131318,15.95074 4.55989,3.8369 5.590124,4.06708 9.304888,2.079 z M 92.017897,157.29989 C 93.786996,153.9943 93.683236,145.04272 91.822238,140.42013 90.991134,138.35572 90.193826,129.16666 90.050442,120 l -0.260697,-16.66667 h -9.894872 -9.894871 l -1.333334,15.77452 c -1.048796,12.40818 -1.82857,16.13656 -3.653996,17.47105 -1.276365,0.93311 -7.276365,2.70943 -13.333333,3.9474 -6.05697,1.23798 -14.912671,3.98379 -19.679338,6.10182 -4.766667,2.11801 -9.730276,4.17954 -11.030242,4.58117 -2.750067,0.84963 -4.237236,3.96851 -3.191601,6.69339 0.607844,1.58401 6.775793,1.8987 36.827214,1.8789 33.696905,-0.0221 36.184553,-0.1872 37.412525,-2.48169 z M 47.938853,133.17555 c 5.466368,-1.38595 10.293884,-2.96744 10.727812,-3.5144 2.529954,-3.189 4.141864,-11.78245 3.324639,-17.72439 -0.754256,-5.48409 -1.71298,-7.19579 -5.781088,-10.32147 -2.682285,-2.060906 -7.364282,-4.830339 -10.404438,-6.154298 l -5.527556,-2.407197 0.693115,-8.193566 c 0.381212,-4.50646 1.218612,-8.763564 1.860889,-9.46023 0.642276,-0.696667 1.167775,-2.990661 1.167775,-5.097765 0,-6.143011 -3.637644,-4.038118 -10.762532,6.227647 -3.510543,5.058103 -6.944235,9.558103 -7.630428,10 -2.778414,1.789256 -2.933507,7.162147 -0.496555,17.202149 1.411924,5.81699 4.139671,13.25968 6.061657,16.5393 4.189862,7.14946 4.378938,9.82819 0.827858,11.72867 -1.466667,0.78493 -2.666667,2.29104 -2.666667,3.3469 0,2.1884 2.612932,1.88346 18.605519,-2.17135 z M 67.9729,94.032653 c 1.07649,-1.29709 1.86856,-9.587201 2.324903,-24.333333 0.578833,-18.704233 1.102275,-23.046633 3.197176,-26.523366 3.227104,-5.355757 3.163868,-7.175955 -0.249299,-7.175955 -1.514877,0 -4.064877,-0.733338 -5.666666,-1.62964 -1.601791,-0.896302 -5.536317,-2.322331 -8.743393,-3.168953 -5.199809,-1.372674 -6.110674,-1.259685 -8.414102,1.043743 -1.591207,1.591206 -2.424049,3.95998 -2.168954,6.168953 0.377293,3.267145 1.052161,3.663769 7.59214,4.461945 7.756162,0.946606 9.43663,2.404044 9.468213,8.211607 0.03189,5.863233 -2.231073,8.912345 -6.614473,8.912345 -4.36258,0 -6.414638,2.150472 -4.182268,4.382843 2.47228,2.47228 1.676394,6.466234 -1.96014,9.83646 -3.016764,2.795842 -3.336435,3.88985 -2.577085,8.819561 C 51.4594,92.64998 63.178244,99.80986 67.9729,94.032653 Z m 13.848353,-3.699321 c 0.431581,-2.383333 0.824426,-9.133333 0.872988,-15 0.04856,-5.866666 0.512225,-13.366666 1.030361,-16.666666 l 0.942067,-6 10.666667,-1.166753 C 101.2,50.858198 106.19331,50.164886 106.42959,49.959219 108.29893,48.332006 87.224469,23.446589 82.783431,22.037058 81.475122,21.621817 79.726497,19.793608 78.897597,17.97437 77.524504,14.960761 76.641102,14.666666 68.96192,14.666666 c -8.241519,0 -11.628585,1.418682 -11.628585,4.870662 0,2.087252 8.214133,4.445394 15.518955,4.455236 6.534283,0.0088 10.706979,2.979106 12.342907,8.786203 1.253926,4.451103 0.407533,6.769786 -4.74184,12.990199 -2.999759,3.623691 -3.120022,4.638724 -3.120022,26.333333 0,18.364634 0.344627,22.564366 1.851612,22.564366 1.039147,0 2.195927,-1.901416 2.636306,-4.333333 z m 14.490105,-0.666667 c 0.873136,-2.016666 4.213742,-8.062773 7.423582,-13.435793 4.28937,-7.180089 5.62115,-10.62538 5.02515,-13 -0.75375,-3.003182 -1.41987,-3.230873 -9.452157,-3.230873 h -8.641264 l -0.181638,8.333333 c -0.09991,4.583334 -0.403992,10.733333 -0.675757,13.666667 -0.989172,10.676748 3.107474,15.507141 6.502084,7.666666 z"
       id="path779" />
  </g>
</svg>
