<?xml version="1.0" encoding="UTF-8" standalone="no"?>
<!-- Created with Inkscape (http://www.inkscape.org/) -->

<svg
   version="1.1"
   id="svg223"
   width="212"
   height="86.666664"
   viewBox="0 0 212 86.666664"
   xmlns="http://www.w3.org/2000/svg"
   xmlns:svg="http://www.w3.org/2000/svg">
  <defs
     id="defs227" />
  <g
     id="g229">
    <path
       style="fill:#000000;stroke-width:1.33333"
       d="m 6.9333333,79.733331 c -0.88,-0.88 -1.6,-2.468397 -1.6,-3.529772 0,-4.297401 5.9903617,-17.958231 9.5420357,-21.76031 4.184171,-4.479169 4.821634,-7.4649 1.83821,-8.609746 C 13.175293,44.475735 5.6173991,31.47136 4.6613601,25.096037 3.8774252,19.868383 4.1625781,18.504087 6.5350171,16.131649 12.678637,9.988029 20,13.868001 20,23.267447 c 0,7.595884 5.933788,20.732552 9.364823,20.732552 1.376468,0 2.982484,-0.826904 3.568924,-1.837566 8.011766,-13.807363 69.330703,-24.48642 112.399583,-19.575054 13.40295,1.528407 18.59088,2.80512 26.66667,6.56248 7.51353,3.495763 9.14515,3.471884 13.51645,-0.197811 2.95852,-2.483669 3.60788,-4.291047 4.09275,-11.391334 0.36335,-5.321046 1.281,-8.8971448 2.48355,-9.6784513 3.93086,-2.5539325 8.43108,-2.9349789 11.81486,-1.000398 2.95914,1.6918073 3.39764,2.7938631 3.21959,8.0914273 -0.11333,3.373074 -1.1322,7.833978 -2.26404,9.913118 -1.13185,2.079141 -2.71731,5.243529 -3.52323,7.031973 -0.80593,1.788444 -2.63712,4.072467 -4.0693,5.075605 -3.56652,2.498087 -3.27799,4.332001 1.4169,9.006011 2.20984,2.2 5.50916,5.493869 7.33184,7.319709 4.17512,4.182358 4.44955,12.134734 0.63468,18.391731 -3.08361,5.057629 -5.36858,6.233613 -9.9015,5.095923 -3.76843,-0.945816 -5.28844,-4.655048 -4.97515,-12.140697 0.18023,-4.306399 -0.63008,-6.318565 -4.20828,-10.450087 l -4.43149,-5.116754 -7.15168,3.450088 c -3.93343,1.897548 -8.74722,3.450086 -10.69731,3.450086 -1.95008,0 -5.58779,1.020875 -8.08379,2.26861 -2.496,1.247736 -8.13818,2.495509 -12.53818,2.772831 -4.4,0.277322 -10.7,1.506447 -14,2.73139 -4.82765,1.791997 -10.94994,2.227169 -31.333337,2.227169 -27.509232,0 -50.02385,-2.822551 -59.917105,-7.511521 -2.887743,-1.368663 -6.616112,-2.488479 -8.285265,-2.488479 -4.179855,0 -9.565888,8.278764 -10.636454,16.349074 -0.899694,6.782234 -3.058238,8.984259 -8.806854,8.984259 -1.7348767,0 -3.8743217,-0.72 -4.7543217,-1.6 z M 130.66667,52.572174 c 6.23333,-1.07202 14.90029,-2.546944 19.25992,-3.27761 9.0963,-1.524527 14.42546,-4.481779 13.81248,-7.664796 C 162.59013,35.663872 121.88786,32.2329 90,35.413983 c -19.87752,1.982949 -22.913637,2.573493 -37,7.196736 -8.638717,2.835286 -11.042013,5.303201 -7.372716,7.57095 6.845884,4.230989 64.855966,5.861685 85.039386,2.390505 z"
       id="path251" />
  </g>
</svg>
