<?xml version="1.0" encoding="UTF-8" standalone="no"?>
<!-- Created with Inkscape (http://www.inkscape.org/) -->

<svg
   version="1.1"
   id="svg213"
   width="108"
   height="209.33333"
   viewBox="0 0 108 209.33333"
   xmlns="http://www.w3.org/2000/svg"
   xmlns:svg="http://www.w3.org/2000/svg">
  <defs
     id="defs217" />
  <g
     id="g219">
    <path
       style="fill:#000000;stroke-width:1.33333"
       d="m 48.079353,202.77641 c -1.936396,-1.25796 -2.141145,-3.69181 -4.622418,-54.94671 -0.746088,-15.41173 -0.595147,-17.10471 1.783144,-20 2.428326,-2.9562 2.821544,-3.03225 6.013262,-1.16304 3.387636,1.98396 3.422496,2.18185 4.34527,24.66667 0.51163,12.46667 0.961245,29.26667 0.999146,37.33333 l 0.06891,14.66667 -3.333333,0.3454 C 51.5,203.8687 49.13571,203.46265 48.079354,202.77641 Z m 0.587314,-97.09277 c -22.197176,-0.43658 -23.208151,-0.83592 -22.278396,-8.799934 0.570728,-4.888703 2.59729,-6.16195 9.866373,-6.198834 5.17778,-0.02628 5.69492,-2.054877 1.819196,-7.136215 -1.873945,-2.456869 -3.407173,-6.04461 -3.407173,-7.972758 0,-4.955536 -10.751482,-15.5759 -15.768198,-15.5759 -2.03391,0 -6.156444,-1.594072 -9.1611838,-3.542381 C 4.3681737,52.976222 4.2584981,52.74851 3.3665951,43.230581 2.7953641,37.134697 2.9884932,32.556683 3.8877731,30.876364 6.4762955,26.039666 12.091547,22.666666 17.554991,22.666666 c 3.728372,0 5.440494,-0.658854 6.063481,-2.333333 C 25.265085,15.907525 30.011183,10.400945 33.935067,8.3636731 36.412865,7.0772062 43.11264,6.072111 52.026485,5.6496119 63.724101,5.0951674 67.037685,5.3842804 71.104692,7.3142016 75.6216,9.4576144 81.124355,15.357044 84.807937,22.005264 c 0.96486,1.741402 3.401387,2.925069 7.048458,3.424145 7.59528,1.039361 9.793715,3.663688 10.532545,12.57294 0.95279,11.489453 -2.00354,16.780495 -11.82424,21.16223 -4.31704,1.926148 -8.512091,3.502087 -9.322336,3.502087 -0.810247,0 -5.321241,3.695104 -10.024436,8.211342 C 59.149163,82.467033 59.398567,87.413595 72.504519,96.395578 74.427033,97.713148 76,99.942037 76,101.34867 c 0,2.44894 -3.968296,5.6405 -6.245679,5.02316 -0.598209,-0.16216 -10.087654,-0.47184 -21.087654,-0.68819 z M 58.540665,66.419302 C 61.5433,64.816584 64,63.09509 64,62.593758 64,60.466667 47.288615,59.223186 44.288173,61.127015 c -2.278481,1.445735 -0.838101,4.860637 2.78961,6.613699 4.235681,2.046858 5.405104,1.91205 11.462882,-1.321412 z M 45.013644,50.165317 c 2.302995,-1.190924 5.267059,-2.156284 6.586809,-2.145243 4.30848,0.03604 12.891024,3.629243 15.056639,6.303664 2.044253,2.524546 2.244111,2.389426 5.747805,-3.885993 4.32477,-7.746032 3.944555,-14.098835 -0.695198,-11.615715 -1.560375,0.835088 -5.129615,1.067877 -8.537539,0.556828 -4.630883,-0.694444 -6.265489,-1.669692 -7.812392,-4.661073 -1.669696,-3.228836 -1.684029,-4.008771 -0.09787,-5.325175 2.271602,-1.885261 4.978688,-2.032094 12.626404,-0.684864 5.26581,0.927632 5.794402,0.792566 5,-1.277609 C 72.39974,26.15694 72,24.623572 72,24.02265 72,20.523044 52.29882,13.783432 47.046425,15.486238 c -5.185234,1.681034 -10.728036,5.031076 -12.18551,7.364866 -2.242743,3.591201 -4.123768,18.882902 -2.958386,24.050054 0.552199,2.44838 1.85003,5.818686 2.884068,7.48957 1.837612,2.969364 1.927039,2.980406 3.959927,0.488938 1.143921,-1.401967 3.964125,-3.523424 6.26712,-4.714349 z M 37,37.226534 c -2.678465,-1.560063 -3.091136,-6.602065 -0.733333,-8.959868 0.88,-0.88 4.06,-1.6 7.066666,-1.6 3.006667,0 6.186667,0.72 7.066667,1.6 5.844549,5.844549 -5.604827,13.50014 -13.4,8.959868 z m 54.140384,1.773465 c -1.403575,-5.3658 -4.473717,-3.561184 -4.473717,2.62963 0,5.603044 0.0124,5.617212 2.629225,3 1.750305,-1.750574 2.366897,-3.632496 1.844492,-5.62963 z m -71.140384,1 c 0,-3.11111 -0.592592,-4 -2.666667,-4 -3.006728,0 -3.643861,3.822806 -1.066666,6.4 C 18.860285,44.993618 20,44.260945 20,39.999999 Z"
       id="path390" />
  </g>
</svg>
