<?xml version="1.0" encoding="UTF-8" standalone="no"?>
<!-- Created with Inkscape (http://www.inkscape.org/) -->

<svg
   version="1.1"
   id="svg203"
   width="189.33333"
   height="213.33333"
   viewBox="0 0 189.33333 213.33333"
   xmlns="http://www.w3.org/2000/svg"
   xmlns:svg="http://www.w3.org/2000/svg">
  <defs
     id="defs207" />
  <g
     id="g209">
    <path
       style="fill:#000000;stroke-width:1.33333"
       d="m 166.81576,206.78702 c -1.01799,-0.64466 -1.84915,-2.88548 -1.847,-4.97958 0.0469,-45.72615 0.6307,-56.74024 3.1406,-59.25014 1.55348,-1.55348 4.40206,-2.5573 7.25697,-2.5573 6.19639,0 8.30888,4.54308 6.08891,13.09464 -0.8226,3.16872 -1.12614,6.35917 -0.67452,7.08989 0.4516,0.73072 0.75014,7.1506 0.66341,14.26641 -0.0868,7.11582 0.45631,16.17542 1.20675,20.13247 1.86804,9.85015 -0.35982,13.42511 -8.34828,13.39617 -3.09976,-0.0107 -6.46884,-0.54788 -7.48684,-1.19256 z M 14.666666,197.40594 5.9999999,196.66666 6.2446382,189.19128 C 6.7344145,174.22524 21.32034,152.56674 33.031619,149.41557 c 11.083294,-2.98221 23.241317,-3.07363 30.782565,-0.23144 13.837767,5.21524 24.963257,18.76869 29.490369,35.92615 2.020813,7.65874 -0.394235,11.6849 -7.586103,12.64688 -6.534107,0.87398 -59.773809,0.61082 -71.051784,-0.35122 z m 62.999999,-12.30057 c 3.218278,-1.65401 2.885098,-4.66453 -1.364478,-12.32904 -5.680836,-10.24591 -11.978655,-14.54445 -22.2692,-15.19971 -12.085604,-0.76954 -21.529553,2.45091 -28.744034,9.80192 -4.802323,4.89322 -5.761228,6.79598 -6.311641,12.52424 l -0.649016,6.75444 22.323151,-0.0636 c 12.277733,-0.0349 22.591699,0.20502 22.919923,0.53323 0.878462,0.87847 11.384385,-0.62829 14.095295,-2.02155 z M 92.432,101.15143 C 83.172516,99.523885 74.5108,96.100629 69.389919,92.044816 59.058931,83.862521 52.860019,61.939626 58.043223,51.916413 61.830455,44.592714 70.688881,33.505982 73.454795,32.628115 77.67502,31.288668 76.370009,27.924581 68.999999,21.14444 61.053811,13.834236 61.162576,11.623387 69.611287,8.7188579 78.672019,5.6039263 85.180445,5.175681 91.394858,7.2855294 94.646946,8.3896421 103.7635,9.559448 111.65387,9.885098 c 7.89037,0.32565 14.77502,0.634723 15.29922,0.68683 0.52419,0.05211 1.60101,1.305396 2.39292,2.785089 1.24271,2.322027 0.61024,3.445343 -4.61976,8.205063 -3.33277,3.03309 -6.05959,6.294282 -6.05959,7.247093 0,0.952809 2.06487,2.712223 4.58859,3.909806 8.04822,3.81913 14.07808,16.786032 14.07808,30.274163 0,21.794719 -23.65056,41.893568 -44.90133,38.158288 z m 19.03063,-13.231343 c 9.98648,-6.171986 16.59394,-21.969216 13.69384,-32.739483 -1.82891,-6.792115 -9.70417,-14.912383 -15.52071,-16.003574 -2.97364,-0.557859 -5.00986,-1.937528 -5.97017,-4.04518 -1.27454,-2.797304 -0.90467,-3.768809 2.94823,-7.743996 6.96828,-7.189437 5.26792,-8.477681 -10.169572,-7.704802 -7.211004,0.361018 -13.333248,0.852353 -13.604985,1.091854 -0.271739,0.2395 1.482404,2.930958 3.898094,5.981016 4.941765,6.239488 4.505707,8.574432 -2.19368,11.746395 -10.450094,4.947813 -16.543678,14.764533 -16.543678,26.651746 0,7.1446 0.474661,8.4987 4.809276,13.719784 10.150565,12.226449 27.09225,16.191397 38.653355,9.04624 z"
       id="path529" />
  </g>
</svg>
