<?xml version="1.0" encoding="UTF-8" standalone="no"?>
<!-- Created with Inkscape (http://www.inkscape.org/) -->

<svg
   version="1.1"
   id="svg75"
   width="140"
   height="213.33333"
   viewBox="0 0 140 213.33333"
   xmlns="http://www.w3.org/2000/svg"
   xmlns:svg="http://www.w3.org/2000/svg">
  <defs
     id="defs79" />
  <g
     id="g81">
    <path
       style="fill:#000000;stroke-width:1.33333"
       d="M 19.051647,206.94262 C 10.530779,206.59638 9.1272915,206.15866 6.7183127,203.09614 0.64090701,195.36998 4.63834,186.01498 18,176.69417 c 4.4,-3.06933 8.174796,-6.48148 8.388436,-7.58253 0.21364,-1.10106 -2.306667,-5.66295 -5.600683,-10.13756 C 7.5966636,141.05525 5.9931431,132.6037 14.837725,127.6137 c 9.018751,-5.08826 13.974103,-4.5674 29.230968,3.07252 7.662219,3.83688 15.52393,8.10211 17.470467,9.4783 1.946539,1.37617 3.981912,2.50214 4.523051,2.50214 0.541138,0 0.602664,-8.23153 0.136724,-18.2923 -0.79851,-17.24172 -1.11194,-18.84984 -5.45733,-27.999999 -2.53559,-5.339233 -5.417969,-9.707696 -6.405288,-9.707696 -0.987317,0 -4.166892,2.464804 -7.06572,5.477344 C 44.371768,95.156548 39,99.875425 35.333333,102.63041 c -3.666666,2.75497 -9.033917,7.19017 -11.927222,9.85598 -2.893307,2.66582 -5.96984,4.84694 -6.83674,4.84694 -6.229101,0 -6.38076,-17.42836 -0.28426,-32.666665 11.589881,-28.969106 15.88042,-35.336354 27.923501,-41.439044 6.83416,-3.463131 9.124721,-6.415755 9.124721,-11.762127 0,-8.367334 24.698132,-28.2867424 34.717414,-28.0001066 12.566343,0.3595032 13.561723,0.6086168 17.277023,4.3239237 5.8927,5.8926929 7.1929,12.8371289 4.18456,22.3498989 -2.15915,6.827499 -3.51734,8.664284 -10.332457,13.973396 -6.381274,4.971137 -7.84654,6.838541 -7.84654,10 v 3.887393 l 10.528487,0.666667 c 10.1315,0.641529 10.67277,0.84534 14.35487,5.405189 6.90873,8.555653 22.86308,57.382165 20.1641,61.709965 -0.53218,0.85333 -1.36924,4.55151 -1.86016,8.21818 -0.49094,3.66666 -1.60047,10.28869 -2.46565,14.71561 -1.26944,6.49539 -1.21279,9.6084 0.29346,16.12836 1.81544,7.85828 1.78136,8.17841 -1.24535,11.69717 -2.41918,2.81247 -2.8141,4.17415 -1.77415,6.11732 5.12519,9.5765 -5.42031,12.54638 -11.51599,3.24319 -2.29936,-3.50928 -2.12287,-4.97919 3.55853,-29.63643 0.72676,-3.15412 1.9603,-11.6078 2.7412,-18.78594 1.44751,-13.30576 0.29706,-23.23096 -4.18975,-36.14595 -0.89169,-2.566665 -2.49812,-7.241178 -3.56984,-10.387803 -1.58934,-4.666372 -2.29314,-5.43518 -3.8175,-4.170075 -1.02791,0.853087 -1.86892,3.017044 -1.86892,4.808795 0,1.79175 -0.55248,4.290034 -1.22772,5.551739 -1.21075,2.2623 -2.74189,13.716934 -5.6048,41.930104 -1.29628,12.77447 -1.21509,14.67133 0.71945,16.80897 2.99445,3.30883 7.46521,16.4737 8.38047,24.6776 0.75317,6.75115 3.37843,11.44734 6.39926,11.44734 0.87269,0 2.63378,1.157 3.91353,2.57112 2.91825,3.22462 1.68267,7.84442 -2.33573,8.73326 -4.47612,0.9901 -90.986235,4.08008 -101.859483,3.63824 z m 41.060912,-13.54946 c 14.593193,-0.63196 27.728184,-0.83648 29.188866,-0.45451 1.460682,0.38199 4.0812,0.33675 5.823374,-0.10053 2.797405,-0.70211 3.255598,-1.76563 3.920694,-9.10042 0.537163,-5.92393 0.167463,-9.6577 -1.289334,-13.02157 -6.005184,-13.86644 -6.171299,-19.31968 -1.646438,-54.04947 0.668811,-5.13333 1.724347,-14.13333 2.345635,-19.999995 0.74006,-6.988178 2.352634,-13.170713 4.676034,-17.927758 2.4858,-5.089523 3.12606,-7.681457 2.14085,-8.666667 -0.80206,-0.802057 -7.263613,-1.405574 -15.048768,-1.405574 -14.221931,0 -24.890139,2.922768 -24.890139,6.819149 0,0.961116 1.128867,4.91999 2.508592,8.7975 1.379726,3.877509 3.542416,11.850017 4.805979,17.716685 1.263563,5.86666 3.434696,15.54867 4.824741,21.51556 1.390046,5.96688 2.534476,13.46689 2.54318,16.66666 0.0087,3.19978 0.901583,9.11778 1.984175,13.15111 1.082592,4.03333 1.975471,8.34048 1.984175,9.57143 0.02784,3.93785 -3.85306,6.42857 -10.016676,6.42857 -3.213114,0 -7.220256,0.57297 -8.904762,1.27328 C 63.378232,171.30692 55.7,173.79641 48,176.13884 c -13.815792,4.2029 -26.983431,11.28884 -28.546343,15.36173 -1.442176,3.75825 0.617287,4.83356 7.506927,3.91963 3.640392,-0.48292 18.558781,-1.39508 33.151975,-2.02704 z M 57.593029,161.8684 C 61.116863,160.08274 64,157.92909 64,157.08252 c 0,-2.04183 -4.022136,-6.41586 -5.899711,-6.41586 -1.338596,0 -5.066534,-1.8822 -21.047172,-10.62649 -4.922136,-2.69329 -14.38645,-3.73115 -14.38645,-1.5776 0,1.32521 13.582257,22.40727 16.747913,25.99571 2.686695,3.04552 8.767021,2.17925 18.178449,-2.58988 z M 38.105195,81.666665 c 4.316806,-4.216666 9.191022,-9.616666 10.83159,-11.999999 l 2.98285,-4.333334 h -6.514444 c -5.962931,0 -6.858023,0.4338 -10.572736,5.12401 -3.316482,4.187398 -6.638326,12.920114 -6.79986,17.87599 -0.07717,2.36772 2.7168,0.518496 10.0726,-6.666667 z M 65.723219,60.864271 c 8.287477,-1.750357 9.701734,-4.110256 2.59804,-4.335216 -2.389975,-0.07568 -5.43722,-1.125687 -6.771655,-2.333333 -3.742899,-3.387277 -4.915887,-2.661068 -5.067933,3.13761 -0.07692,2.933334 0.233244,5.294811 0.689241,5.247728 0.455999,-0.04708 4.304536,-0.819638 8.552307,-1.716789 z m 17.7376,-18.867241 c 1.533517,-1.465033 4.704846,-3.698799 7.047397,-4.963924 4.920017,-2.657117 9.429331,-11.425368 8.466387,-16.462684 -0.56415,-2.951161 -6.063884,-7.237089 -9.286686,-7.237089 -2.606834,0 -15.610988,9.542313 -20.013594,14.685768 -5.009308,5.85225 -6.184874,11.48592 -3.157827,15.133288 2.439889,2.939886 13.442965,2.189634 16.944323,-1.155359 z"
       id="path968" />
  </g>
</svg>
