<?xml version="1.0" encoding="UTF-8" standalone="no"?>
<!-- Created with Inkscape (http://www.inkscape.org/) -->

<svg
   version="1.1"
   id="svg193"
   width="225.33333"
   height="162.66667"
   viewBox="0 0 225.33333 162.66667"
   xmlns="http://www.w3.org/2000/svg"
   xmlns:svg="http://www.w3.org/2000/svg">
  <defs
     id="defs197" />
  <g
     id="g199">
    <path
       style="fill:#000000;stroke-width:1.33333"
       d="m 182.66666,153.1043 c -8.43333,-0.5472 -18.10178,-0.67443 -21.48544,-0.28275 -8.83356,1.02257 -16.94972,-1.43491 -17.954,-5.43628 -1.0799,-4.30271 5.15131,-17.95212 10.55396,-23.11833 8.05502,-7.7025 14.76583,-10.13547 28.1471,-10.20459 9.91893,-0.0512 13.02282,0.45182 17.40505,2.82081 14.19688,7.67473 23.50915,26.02592 17,33.50102 -2.92023,3.35358 -12.26613,4.10869 -33.66667,2.72012 z m 23.55394,-12.5317 c 1.274,-3.32 -8.22375,-12.04863 -15.81042,-14.5301 -8.19961,-2.68196 -19.08861,-1.04595 -26.74005,4.01753 -6.17888,4.08899 -9.16889,9.50855 -6.26099,11.34837 1.05831,0.66959 12.29302,1.22663 24.96603,1.23786 19.72407,0.0175 23.15756,-0.28111 23.84543,-2.07366 z M 31.614982,148.3884 C 23.803308,145.76634 13.921138,137.32118 11.286746,131.01618 7.3745714,121.65303 9.8439415,108.55172 17.30987,99.060323 20.944844,94.439205 20.749109,93.647418 15.333333,91.064814 11.002855,88.999752 9.9212137,86.916591 10.5323,81.81838 10.632172,80.985155 9.8347083,79.966052 8.7601573,79.553708 7.6856064,79.141366 6.1383362,76.322887 5.321779,73.290426 2.6316133,63.299912 6.6331302,55.72889 11.696908,61.228439 c 1.2667,1.375708 3.716068,4.0621 5.443038,5.969758 2.610842,2.884007 4.302095,3.468471 10.036659,3.468471 8.149262,0 12.094856,-2.342012 14.782554,-8.774579 1.056238,-2.527933 2.887855,-4.967477 4.07026,-5.421209 3.79354,-1.455718 5.303914,1.941499 5.303914,11.929859 v 9.599263 l 8.180675,0.392994 c 5.964848,0.286547 8.796298,1.07325 10.45351,2.904448 2.95007,3.259791 1.561826,7.768567 -2.723052,8.844003 -3.903906,0.979819 -4.195219,4.278979 -0.766327,8.678743 7.269781,9.32818 8.629099,18.25194 4.528455,29.72877 -5.648536,15.80904 -23.945321,25.02416 -39.391612,19.83944 z m 21.74708,-13.43673 c 5.581382,-5.58139 8.443745,-13.5893 7.157024,-20.0229 -0.491894,-2.45947 -3.77992,-7.13086 -8.220405,-11.67897 -6.21011,-6.360623 -7.16438,-7.958234 -5.932128,-9.931383 1.259109,-2.016155 0.886173,-2.46787 -2.615704,-3.168246 -7.335394,-1.467079 -8.040104,-1.169119 -7.121944,3.011236 0.735512,3.348763 0.25694,4.17255 -3.822172,6.579286 -11.138193,6.571697 -15.108033,22.338647 -7.978096,31.686477 4.599429,6.03017 9.092378,8.25918 16.994892,8.43139 5.819713,0.1268 7.011725,-0.38009 11.538533,-4.90689 z M 201.96613,72.546137 C 199.78476,71.419676 196.5,69.132501 194.66666,67.463527 183.05053,56.888772 177.14108,55.82757 130.97258,56.025518 111.37099,56.109561 94.276955,56.175009 92.985827,56.17096 88.984809,56.15841 74.645344,50.570437 66.77021,45.954948 60.392231,42.216917 58.677895,40.330969 55.373507,33.417389 50.776553,23.799447 48.000805,20.961234 43.776619,21.559523 c -2.370737,0.335779 -3.191652,1.391252 -3.453668,4.440478 -1.093782,12.72893 -1.778036,14.960767 -5.042858,16.44832 C 32.28911,43.811104 32,44.70071 32,52.541309 c 0,7.719283 -0.362268,8.883438 -3.542954,11.385366 -3.126901,2.459621 -3.870629,2.56952 -6.333333,0.935862 -2.524508,-1.674656 -2.826747,-3.330236 -3.172051,-17.375648 -0.372048,-15.133239 -0.296416,-15.603635 3,-18.658651 2.308102,-2.139075 3.395754,-4.567002 3.42603,-7.647799 0.05503,-5.598652 3.801373,-10.273282 9.555879,-11.9236529 2.410186,-0.6912323 9.586178,-1.2567859 15.946647,-1.2567859 h 11.564489 l 2.870027,9.2732388 c 3.497141,11.299488 7.212957,17.045694 13.356462,20.654674 4.434153,2.604826 6.781179,2.743629 47.995464,2.838437 27.41375,0.06307 44.313,0.612744 46,1.496242 1.46667,0.768106 5.36667,1.791272 8.66667,2.2737 3.3,0.482426 8.4,2.346616 11.33333,4.142641 C 195.6,50.474958 199.8,52.804546 202,53.855794 c 6.62736,3.166817 10.2488,7.932703 9.76202,12.847002 -0.61184,6.176944 -4.57357,8.54015 -9.79589,5.843341 z"
       id="path668" />
  </g>
</svg>
