<?xml version="1.0" encoding="UTF-8" standalone="no"?>
<!-- Created with Inkscape (http://www.inkscape.org/) -->

<svg
   version="1.1"
   id="svg173"
   width="241.33333"
   height="138.66667"
   viewBox="0 0 241.33333 138.66667"
   xmlns="http://www.w3.org/2000/svg"
   xmlns:svg="http://www.w3.org/2000/svg">
  <defs
     id="defs177" />
  <g
     id="g179">
    <path
       style="fill:#000000;stroke-width:1.33333"
       d="M 72.898723,132.45428 C 72.415244,131.9708 58.365245,131.38267 41.676502,131.14731 24.98776,130.91196 9.9924709,130.39839 8.3536394,130.00606 3.4272173,128.82668 3.1193362,123.48337 7.4551051,114.41189 13.908838,100.90912 27.784164,91.321944 43.171097,89.733873 c 5.87931,-0.606799 8.474982,-0.136731 14.337297,2.596443 9.804569,4.571161 17.925356,11.980774 22.086804,20.152554 3.910468,7.67893 4.737204,17.64536 1.627024,19.61402 -2.221126,1.40591 -7.066915,1.61398 -8.323499,0.35739 z M 69.072544,117.166 c 0.315976,-2.72527 -0.849682,-4.57539 -5.262553,-8.35264 -9.996973,-8.55704 -23.121082,-9.602011 -35.524555,-2.82855 -6.392011,3.49065 -13.065554,11.67425 -11.536984,14.14752 0.539778,0.87338 9.995373,1.21313 26.379783,0.94784 l 25.538431,-0.4135 z m 33.716466,14.52915 c -13.217233,-1.33579 -15.351929,-2.8808 -15.854229,-11.47462 -0.471122,-8.06043 0.92562,-11.1645 8.072528,-17.94012 7.672821,-7.274217 12.107441,-9.13856 23.613291,-9.927189 8.32557,-0.570647 11.30384,-0.2144 16.1286,1.929229 11.6259,5.16536 19.71328,14.8566 22.39248,26.83328 1.76528,7.89124 -1.05204,10.79046 -10.80835,11.12253 -17.3167,0.58941 -34.4533,0.37568 -43.54432,-0.54311 z m 21.4195,-10.36181 c 24.01894,0 25.95849,-0.8388 18.96469,-8.20171 -6.93887,-7.30507 -13.27195,-9.75415 -25.1732,-9.73478 -9.5068,0.0155 -11.26901,0.42835 -16.20604,3.79708 -3.046653,2.07886 -6.645324,5.83337 -7.997045,8.34336 -2.155334,4.00222 -2.211999,4.7259 -0.460628,5.88268 1.098374,0.72548 3.722045,1.00277 5.830378,0.61621 2.108335,-0.38656 13.377165,-0.70284 25.041845,-0.70284 z m 61.6459,10.95245 c -14.90649,-0.46747 -17.64617,-2.45269 -18.02156,-13.05876 -0.55808,-15.76789 14.60955,-26.903886 36.25932,-26.621386 8.48136,0.110666 9.0346,0.33372 17.46359,7.040862 6.92114,5.507324 9.44569,8.577664 12.32097,14.984614 2.37733,5.29741 3.47469,9.76716 3.20308,13.0468 l -0.41315,4.98875 h -19.33333 c -10.63333,0 -24.79885,-0.1714 -31.47892,-0.38088 z m 18.9812,-9.70351 c 10.20012,-0.0234 19.39529,-0.56761 20.43372,-1.20939 1.55119,-0.95868 1.23424,-2.15481 -1.77648,-6.70431 -9.45363,-14.28541 -33.23192,-15.950254 -46.25613,-3.23863 -3.9068,3.81302 -4.65484,5.38786 -4.16018,8.75831 0.59754,4.07121 0.66164,4.10158 6.90826,3.27294 3.46782,-0.46002 14.65069,-0.85553 24.85081,-0.87892 z m -93.3048,-47.414456 c -6.98017,-2.520694 -11.44457,-6.256886 -15.397813,-12.886189 -6.06411,-10.169082 -3.74512,-28.744184 4.436213,-35.53409 3.06631,-2.544811 2.5865,-4.049114 -1.77663,-5.57011 -2.374196,-0.827649 -4.532505,-2.94008 -5.574727,-5.456227 C 91.683772,12.01761 91.794197,11.391206 94.345333,9.3254217 96.8585,7.2903824 99.892248,7.1073526 121.58673,7.6819138 135.01402,8.0375253 147.35,8.8397217 149,9.4645724 c 4.64204,1.7579306 4.03218,7.2480716 -1,9.0023016 -5.00406,1.744424 -5.0171,3.356009 -0.0728,8.987328 9.25185,10.537287 9.05594,28.878999 -0.4158,38.928826 -9.06227,9.615358 -23.75024,13.201474 -35.98066,8.784796 z m 22.80708,-9.332433 c 1.65252,-1.046567 4.50252,-4.275747 6.33333,-7.175956 5.90538,-9.354698 3.62391,-21.212655 -5.29426,-27.517125 -9.34975,-6.609553 -9.48879,-6.785129 -7.699,-9.722137 1.57107,-2.578082 1.37994,-2.753506 -3,-2.753506 -3.99767,0 -4.67796,0.447688 -4.67796,3.078494 0,3.829666 -1.83934,6.066001 -8.80221,10.702058 -8.39821,5.591735 -10.70261,15.402551 -5.85138,24.911757 5.19848,10.189854 19.62561,14.408 28.99148,8.476415 z"
       id="path946" />
  </g>
</svg>
