<?xml version="1.0" encoding="UTF-8" standalone="no"?>
<!-- Created with Inkscape (http://www.inkscape.org/) -->

<svg
   version="1.1"
   id="svg83"
   width="236"
   height="132"
   viewBox="0 0 236 132"
   xmlns="http://www.w3.org/2000/svg"
   xmlns:svg="http://www.w3.org/2000/svg">
  <defs
     id="defs87" />
  <g
     id="g89">
    <path
       style="fill:#000000;stroke-width:1.33333"
       d="M 18.222667,124 C 4.9736393,123.15428 3.4585267,121.63427 6.0546847,111.7927 9.4481264,98.928767 18.509459,89.797952 31.878575,85.770793 c 7.320077,-2.205014 13.873598,-2.242694 23.016193,-0.132333 5.941923,1.37156 8.456263,2.996519 15.435053,9.975309 4.719998,4.720001 8.336846,9.504461 8.336846,11.028201 0,4.91177 3.357437,2.7876 6.728989,-4.25728 2.531485,-5.289546 5.182784,-8.221053 11.104227,-12.277798 7.446357,-5.101453 8.303677,-5.352123 20.064247,-5.866489 10.92369,-0.477764 12.95716,-0.188323 18.34459,2.611136 6.09029,3.164694 18.42461,16.754281 18.42461,20.299701 0,1.02056 0.9,2.60251 2,3.51543 1.1,0.91292 2,1.08925 2,0.39185 0,-2.81219 8.33142,-13.59214 13.01024,-16.833849 7.39966,-5.12683 21.16246,-9.231952 27.98152,-8.346238 6.98624,0.907427 17.1077,5.917994 22.15976,10.970052 4.93252,4.932525 10.33692,15.667095 10.48352,20.823055 0.20791,7.31245 -1.47577,7.66179 -36.92653,7.66179 -25.79716,0 -32.65453,-0.37779 -34.85691,-1.92039 -2.38705,-1.67196 -3.4655,-1.67103 -8.3365,0.007 -4.59226,1.58216 -9.47003,1.71075 -27.2216,0.71761 -11.89476,-0.66547 -22.0908,-0.92465 -22.65787,-0.57595 -0.56708,0.34869 -5.239775,-0.019 -10.383776,-0.81714 -7.050995,-1.094 -10.078625,-1.06188 -12.302291,0.1305 -3.115061,1.67031 -40.535248,2.37117 -60.060226,1.12484 z m 199.784703,-9.34527 c 1.66359,-2.69173 -0.96146,-6.6386 -7.71025,-11.59267 C 204.27893,98.644308 202.46349,98 196.03393,98 c -11.08929,0 -22.36594,4.05443 -25.47982,9.16107 -3.31479,5.4361 -3.21562,7.19272 0.44589,7.89795 6.47716,1.24756 46.19761,0.90594 47.00737,-0.40429 z m -155.63219,-1.3134 c 7.413819,-0.0104 8.629341,-2.7844 3.545315,-8.09098 -7.959316,-8.307738 -21.347771,-11.43187 -33.96713,-7.92607 -5.725648,1.590649 -15.31429,10.94333 -14.19904,13.84963 0.915483,2.38571 11.807299,3.41226 28.245675,2.66215 5.866667,-0.26771 13.235497,-0.49034 16.37518,-0.49473 z m 79.63811,-1.57418 c 3.39796,-3.40806 -8.25422,-14.200374 -17.12007,-15.856694 -8.67142,-1.619997 -22.7896,1.519321 -27.612455,6.139904 -4.067488,3.8969 -5.218069,9.17178 -2.280765,10.45624 2.363059,1.03335 45.92895,0.34812 47.01329,-0.73945 z m 37.11948,-44.871101 c -5.25356,-2.788252 -18.68638,-11.973886 -22.3676,-15.295416 -2.78072,-2.509016 -16.4954,-11.460516 -24.64588,-16.086234 -2.40878,-1.36708 -8.07104,-3.349058 -12.58278,-4.404395 -4.51175,-1.055336 -11.01334,-2.597143 -14.44797,-3.426236 C 99.006808,26.215689 98.50196,26.344917 85.755203,32.6326 72.926321,38.960793 68.853411,40.110036 50,42.721555 35.929463,44.670564 23.152335,42.155105 17.666667,36.356028 11.964895,30.3285 14.669984,16.771363 22.355903,12.854913 33.583428,7.1337956 65.709913,4.7907791 80,8.6508712 c 13.978484,3.7759208 22.75757,3.9545498 35.81292,0.728688 20.18589,-4.9877533 47.14724,-2.2818172 67.52041,6.7765858 24.50596,10.895943 23.33334,10.172918 23.33334,14.386984 0,2.147991 -0.36419,4.85451 -0.80932,6.014488 -1.26551,3.297846 -8.4901,2.637731 -12.45106,-1.137658 -5.12833,-4.888075 -18.51524,-10.996316 -26.44141,-12.064811 -3.86931,-0.521607 -10.16931,-1.782777 -14,-2.802603 -7.95036,-2.116586 -20.68609,-2.442969 -23.59293,-0.604625 -1.07876,0.682231 -1.67876,1.488043 -1.33334,1.790693 1.35998,1.191551 14.92104,7.59472 16.08462,7.59472 0.6806,0 4.12508,2.02966 7.65438,4.510355 3.52931,2.480695 8.47316,5.571108 10.98632,6.867587 C 171.64788,45.294271 188,58.695496 188,61.393255 c 0,1.433709 0.15,2.983562 0.33333,3.444116 0.18334,0.460553 -0.86666,1.613776 -2.33333,2.562714 -2.23111,1.44354 -3.35276,1.361215 -6.86723,-0.504036 z M 60.000499,28.753896 c 11.920754,-2.631112 19.105929,-4.785477 20.549953,-6.161589 2.876596,-2.74131 -6.878479,-4.173744 -23.883785,-3.507094 -23.596672,0.925048 -30.593515,3.303658 -28.184499,9.581454 1.026129,2.674048 19.565787,2.725358 31.518331,0.08723 z"
       id="path1085" />
  </g>
</svg>
