<?xml version="1.0" encoding="UTF-8" standalone="no"?>
<!-- Created with Inkscape (http://www.inkscape.org/) -->

<svg
   version="1.1"
   id="svg225"
   width="218.66667"
   height="152"
   viewBox="0 0 218.66667 152"
   xmlns="http://www.w3.org/2000/svg"
   xmlns:svg="http://www.w3.org/2000/svg">
  <defs
     id="defs229" />
  <g
     id="g231">
    <path
       style="fill:#000000;stroke-width:1.33333"
       d="m 37.288582,141.94608 c -3.080124,-3.71132 -10.621915,-15.79038 -10.621915,-17.01223 0,-2.71503 -2.844224,0.17375 -5.644393,5.73282 -2.112802,4.19446 -3.979975,6.13541 -6.20482,6.44998 -6.6112448,0.93479 -6.6081963,-6.41612 0.0071,-17.16738 2.113204,-3.43431 3.842147,-6.89803 3.842147,-7.69715 0,-2.06425 3.956709,-4.01379 6.693625,-3.29807 1.273179,0.33294 5.222366,4.45449 8.775971,9.15898 3.553606,4.7045 7.136926,8.55364 7.962934,8.55364 0.826009,0 3.474145,-3.88577 5.884748,-8.63504 2.420422,-4.76861 5.537592,-9.00151 6.961703,-9.45351 3.059812,-0.97115 6.622326,1.92918 10.646422,8.66749 1.561619,2.61491 4.019102,6.07487 5.461072,7.68878 l 2.621764,2.9344 3.162549,-4.66027 c 1.7394,-2.56315 3.162546,-5.38976 3.162546,-6.28136 0,-2.20042 6.367214,-8.92716 8.450028,-8.92716 2.297334,0 10.773785,9.04168 13.437297,14.33333 3.00726,5.97458 5.51116,5.43172 9.28354,-2.01272 7.44659,-14.69514 10.75878,-15.37598 19.05641,-3.91712 8.26846,11.41856 8.95375,11.46216 15.62283,0.99382 2.78069,-4.36481 5.87319,-8.61438 6.8722,-9.44349 3.21596,-2.669 6.79328,-0.0939 13.15009,9.46582 3.47151,5.22066 6.83508,8.96716 7.61688,8.48398 0.77002,-0.4759 3.14362,-4.63228 5.27466,-9.2364 2.13104,-4.60412 4.83001,-8.73775 5.99772,-9.18584 3.61962,-1.38898 6.91948,-0.90217 7.70166,1.13617 0.41175,1.07299 3.52008,6.15768 6.9074,11.29932 7.49751,11.3805 9.73359,18.21692 6.8889,21.06162 -3.22126,3.22124 -6.69072,0.87847 -12.29979,-8.30546 -2.91124,-4.76669 -5.91781,-8.66813 -6.68128,-8.66987 -0.76347,-0.002 -2.98787,3.15622 -4.94311,7.01768 -4.63461,9.15305 -8.36742,13.12113 -11.34498,12.06 -3.4743,-1.23815 -5.65712,-3.20225 -5.65712,-5.09029 0,-2.65079 -8.51783,-15.30581 -9.99467,-14.84917 -0.73039,0.22584 -3.31728,4.41005 -5.74864,9.29825 -2.43136,4.8882 -5.47175,9.45016 -6.75644,10.1377 -3.78913,2.02788 -8.19591,-1.20554 -13.50702,-9.91066 -2.68451,-4.4 -5.73119,-8 -6.77041,-8 -1.03922,0 -3.73394,3.47301 -5.98826,7.71781 -7.51025,14.14151 -10.76129,14.70156 -18.557947,3.19701 C 91.885353,126.5442 89.882359,124 88.892091,124 c -0.447663,0 -2.384918,3.45 -4.305014,7.66667 C 80.291648,141.09973 77.791827,144 73.95661,144 c -3.561666,0 -5.370748,-2.01756 -10.623276,-11.84748 -2.2,-4.11722 -4.889218,-7.48585 -5.97604,-7.48585 -1.092037,0 -4.163093,4.17536 -6.864833,9.33333 -5.21223,9.95081 -9.432358,12.49048 -13.203879,7.94608 z M 183.27651,73.516101 c -2.23125,-1.360661 -5.68125,-4.404453 -7.66667,-6.763982 -3.0037,-3.56971 -3.60658,-5.560187 -3.59044,-11.854419 0.0223,-8.695979 2.41163,-16.467271 7.25916,-23.610512 1.86347,-2.745955 3.38811,-5.446763 3.38811,-6.001795 C 182.66667,23.949847 173.57604,16 172.04884,16 c -0.65542,0 -2.1301,-0.938405 -3.27704,-2.085345 -1.87332,-1.873312 -1.87952,-2.483378 -0.0609,-5.9999998 2.99003,-5.7820805 7.38739,-5.17685 15.15127,2.0853448 3.52796,3.3 7.03104,6 7.78462,6 0.75358,0 2.90483,-2.012077 4.78055,-4.471284 1.87573,-2.4592068 5.2434,-5.2305325 7.48372,-6.158502 3.46172,-1.4338903 4.57497,-1.3585143 7.41451,0.5020217 4.14092,2.7132339 4.53046,8.2372733 0.66733,9.4633803 -1.47061,0.466759 -4.47061,2.360527 -6.66667,4.208376 -5.13892,4.324121 -5.12044,8.86752 0.064,15.719905 8.1702,10.798822 8.15276,20.696996 -0.0568,32.213364 -2.28046,3.199048 -12.04364,8.525211 -15.61354,8.517755 -1.31255,-0.0028 -4.21203,-1.118252 -6.44328,-2.478915 z m 11.71584,-12.152764 c 4.27968,-3.36639 5.16752,-8.1659 3.03288,-16.395146 -2.19952,-8.479376 -4.98037,-11.493074 -8.16961,-8.853654 -3.3241,2.751034 -7.12588,11.848592 -7.15967,17.132862 C 182.66635,57.886717 186.84884,64 190.05262,64 c 0.87326,0 3.09614,-1.186499 4.93973,-2.636663 z M 87.410177,65.082996 C 85.668447,64.072467 72.35746,63.539959 46.762373,63.456873 L 8.7043913,63.333333 6.93851,59.650815 c -1.5650085,-3.263624 -1.3560616,-4.856156 1.8368593,-14 1.9815077,-5.674615 4.4176657,-11.264726 5.4136857,-12.42247 0.99602,-1.157742 1.828851,-2.657742 1.850735,-3.333333 0.02188,-0.675589 2.271884,-3.721463 5,-6.768605 C 27.530698,15.876448 37.92203,12 50.865594,12 c 8.271015,0 10.521894,0.585641 18.283316,4.757009 14.986713,8.054592 21.156813,15.706683 26.267227,32.576324 2.866799,9.463398 2.82385,13.372816 -0.170976,15.562686 -2.913425,2.130348 -4.423316,2.166381 -7.834984,0.186977 z M 74.365841,51.233319 c 3.134546,-0.50957 5.980562,-1.381786 6.324482,-1.938259 1.318737,-2.133761 -3.452014,-10.423593 -8.294099,-14.412132 -2.78459,-2.293731 -6.094778,-5.062623 -7.355975,-6.153093 -3.842288,-3.32216 -15.368534,-6.466992 -20.594299,-5.618968 -5.888992,0.955652 -18.499394,8.421309 -21.20851,12.555942 -2.014373,3.074324 -4.774558,14.92477 -3.831617,16.450482 0.665441,1.076706 47.536503,0.322837 54.960018,-0.883972 z"
       id="path253" />
  </g>
</svg>
