<?xml version="1.0" encoding="UTF-8" standalone="no"?>
<!-- Created with Inkscape (http://www.inkscape.org/) -->

<svg
   version="1.1"
   id="svg215"
   width="206.66667"
   height="214.66667"
   viewBox="0 0 206.66667 214.66667"
   xmlns="http://www.w3.org/2000/svg"
   xmlns:svg="http://www.w3.org/2000/svg">
  <defs
     id="defs219" />
  <g
     id="g221">
    <path
       style="fill:#000000;stroke-width:1.33333"
       d="m 196.26571,208.56938 c -1.54729,-1.08378 -4.43365,-5.5812 -6.41413,-9.99431 -2.45734,-5.47567 -4.26295,-7.89632 -5.68566,-7.62233 -1.14662,0.22082 -4.20302,4.14792 -6.79201,8.7269 -6.16544,10.90444 -8.4656,11.58286 -14.52771,4.28488 -2.59742,-3.12694 -5.72161,-7.54817 -6.94266,-9.82494 -2.68462,-5.00576 -5.26722,-5.27887 -7.6242,-0.80624 -5.67784,10.77432 -9.28575,15.35525 -12.38546,15.72576 -3.33945,0.39916 -4.00791,-0.38455 -11.99144,-14.0591 -3.4309,-5.8766 -6.99981,-5.63618 -9.89659,0.66667 -7.70812,16.77135 -11.37834,17.54985 -20.057368,4.25441 -4.05105,-6.20582 -6.877494,-9.27102 -8.29681,-8.99769 -1.183959,0.228 -4.029063,3.97028 -6.322453,8.31617 -6.971372,13.21048 -10.533871,13.03063 -18.756611,-0.94689 -5.461144,-9.28319 -7.924779,-9.13167 -13.171182,0.81005 -4.185876,7.93208 -7.515108,10.98395 -10.664029,9.77559 -0.972015,-0.373 -4.62823,-4.94232 -8.124921,-10.15405 -3.496692,-5.21174 -7.014964,-9.2683 -7.818382,-9.01459 -0.803418,0.25371 -3.431891,4.51179 -5.841051,9.46239 -3.660069,7.52112 -4.865841,8.93206 -7.3333339,8.5812 -2.2680649,-0.32252 -3.0521141,-1.454 -3.3801557,-4.87798 -0.2502775,-2.6123 0.3933977,-5.37248 1.5546751,-6.66666 1.0899836,-1.21474 4.0869731,-6.99355 6.6599765,-12.84179 2.573003,-5.84825 5.342626,-10.85465 6.154717,-11.12536 2.140656,-0.71355 7.604804,3.19333 9.639825,6.89252 0.963189,1.75084 3.113448,5.66195 4.778352,8.69135 1.664904,3.0294 3.885608,5.508 4.934899,5.508 1.049289,0 4.187095,-4.35 6.972901,-9.66667 6.113755,-11.668 8.860623,-12.74441 13.680881,-5.36112 5.336845,8.17456 10.857694,15.02779 12.106146,15.02779 0.640482,0 3.140065,-3.97895 5.554627,-8.8421 2.444491,-4.92342 5.689548,-9.43638 7.322162,-10.18306 2.493541,-1.14042 3.481568,-0.6879 6.6064,3.02576 2.020893,2.40169 5.408015,6.98408 7.526935,10.18306 2.11892,3.19899 4.31939,5.81634 4.88994,5.81634 0.57054,0 3.064,-3.3463 5.54101,-7.4362 7.93017,-13.09383 8.43822,-13.54564 12.62834,-11.23047 1.99084,1.1 5.792,5.6 8.44702,10 2.65502,4.4 5.54882,8 6.43067,8 0.88184,0 4.16707,-4.14536 7.30049,-9.21191 9.23044,-14.92501 11.02935,-14.85689 19.21884,0.72776 2.64475,5.03295 5.66388,9.15082 6.70919,9.15082 1.05327,0 4.00703,-4.43563 6.62557,-9.94952 4.99467,-10.51735 8.48128,-13.28418 12.13536,-9.6301 4.94071,4.94071 16.34152,26.44816 16.34152,30.82802 0,4.51368 -4.02241,6.58754 -7.73429,3.98764 z M 92.666668,105.71568 C 84.988492,103.86818 77.850573,92.378491 76.581701,79.824211 75.86474,72.730561 76.270279,69.797476 79.046135,62.000001 83.206916,50.312227 84.771276,47.409437 91.000001,39.818693 96.240122,33.432729 97.115298,29.912946 94.333335,26.412678 92.389972,23.967536 78.8815,14.666667 77.273569,14.666667 c -0.601628,0 -1.484057,-1.229377 -1.960954,-2.731951 -1.009323,-3.180092 2.475857,-9.2680493 5.30569,-9.2680493 2.242556,0 22.048365,15.6675593 22.048365,17.4415533 0,3.435879 5.26013,0.208579 14.30205,-8.774886 10.93894,-10.8682059 15.11267,-12.4000116 19.76858,-7.2552862 3.37894,3.7336941 2.10501,5.4656773 -11.51239,15.6516302 -6.78731,5.076977 -11.4051,9.515313 -11.68069,11.226777 -0.32722,2.032018 1.47082,4.552982 6.37417,8.936988 8.58162,7.672682 11.92226,16.106003 12.99697,32.810325 0.88614,13.77352 -0.92508,19.021824 -9.36024,27.122743 -6.03808,5.798819 -20.11208,8.482159 -30.888452,5.889169 z M 114.25584,91.666668 c 6.2494,-6.585323 8.75332,-12.471373 8.01209,-18.834299 -1.05089,-9.021088 -3.11615,-15.196713 -6.45283,-19.295463 -1.73164,-2.127129 -4.17052,-5.743123 -5.41975,-8.03554 -2.41217,-4.426505 -7.52371,-5.698028 -10.05552,-2.501365 -3.886676,4.907314 -9.818525,17.697319 -11.721666,25.273761 -2.552725,10.162446 -1.320451,17.102441 4.202096,23.665614 3.003436,3.569381 4.257978,4.060625 10.37004,4.060625 6.11227,0 7.45064,-0.524114 11.06554,-4.333333 z"
       id="path392" />
  </g>
</svg>
