<?xml version="1.0" encoding="UTF-8" standalone="no"?>
<!-- Created with Inkscape (http://www.inkscape.org/) -->

<svg
   version="1.1"
   id="svg205"
   width="212"
   height="152"
   viewBox="0 0 212 152"
   xmlns="http://www.w3.org/2000/svg"
   xmlns:svg="http://www.w3.org/2000/svg">
  <defs
     id="defs209" />
  <g
     id="g211">
    <path
       style="fill:#000000;stroke-width:1.33333"
       d="m 195.33333,145.0734 c -1.46666,-0.83169 -3.13693,-2.16344 -3.71169,-2.95945 -1.46804,-2.03311 0.0303,-57.638843 1.63381,-60.635106 1.5772,-2.947017 8.6813,-4.629976 12.01432,-2.846191 2.18482,1.169275 2.38246,3.818036 2.35655,31.583417 -0.0279,29.84352 -0.0753,30.35409 -3.10003,33.37885 -3.41389,3.41389 -5.25716,3.71033 -9.19296,1.47848 z M 14.666667,137.40595 6,136.66667 6.2446383,129.19128 C 6.7344147,114.22524 21.32034,92.566751 33.03162,89.415568 c 11.083293,-2.982209 23.241317,-3.073617 30.782565,-0.231435 13.837767,5.215244 24.963258,18.768687 29.49037,35.926147 2.020813,7.65875 -0.394235,11.68491 -7.586103,12.64688 -6.534108,0.87399 -59.773811,0.61083 -71.051785,-0.35121 z m 63,-12.30058 c 3.218277,-1.654 2.885097,-4.66453 -1.364479,-12.32904 -5.680836,-10.24591 -11.978655,-14.544447 -22.2692,-15.199699 -12.085604,-0.769554 -21.529553,2.450899 -28.744035,9.801919 -4.802322,4.89321 -5.761228,6.79598 -6.311641,12.52424 l -0.649016,6.75443 22.323152,-0.0635 c 12.277733,-0.0349 22.591699,0.20501 22.919923,0.53324 0.878462,0.87846 11.384385,-0.6283 14.095296,-2.02156 z M 8.0531017,42.063984 C 6.1592332,39.782012 6.8061113,36.983719 11.920707,25.333333 c 2.092598,-4.766666 4.43677,-10.279644 5.209272,-12.251062 0.772501,-1.971417 2.667657,-4.2603909 4.21146,-5.0866086 2.444486,-1.3082496 3.39989,-0.8548329 7.399404,3.5116176 2.525869,2.757608 4.59249,5.589948 4.59249,6.294088 0,1.834044 6.570424,10.198632 8.011075,10.198632 0.664783,0 3.17724,-3.955417 5.583239,-8.789816 4.174349,-8.387564 7.601462,-11.9227033 10.59199,-10.9258605 0.75449,0.2514966 4.171227,4.6404085 7.592748,9.7531375 3.421522,5.11273 7.026732,9.295872 8.011579,9.295872 0.984847,0 2.536284,-2.168957 3.447636,-4.819905 2.270688,-6.604992 6.913607,-12.8370051 10.384405,-13.9385937 2.253922,-0.7153671 3.705342,0.071117 6.621132,3.5878117 2.053927,2.477211 4.789314,5.682251 6.078638,7.122311 1.289325,1.44006 3.465145,4.421175 4.835155,6.624699 l 2.49092,4.006407 2.85628,-5.291364 c 6.93751,-12.851996 8.97715,-15.2913657 12.78563,-15.2913657 3.06633,0 4.54155,1.3522747 8.68559,7.9617467 8.4428,13.465693 9.91764,13.455529 16.7683,-0.11556 3.66707,-7.2644176 7.55491,-10.3880325 10.59274,-8.5105468 1.79204,1.1075375 11.99628,16.4968838 11.99628,18.0919788 0,0.681476 0.89245,1.239048 1.98324,1.239048 1.11685,0 4.0144,-4.033351 6.63276,-9.232723 5.33745,-10.5987719 8.60021,-12.5947435 13.32793,-8.153279 1.67772,1.576136 4.0878,5.38277 5.35572,8.459186 1.26793,3.076416 2.84791,6.493483 3.51105,7.593483 5.17531,8.58449 5.75948,10.667904 3.59744,12.829953 -2.62938,2.629385 -7.2835,1.380143 -8.44062,-2.265605 C 195.46096,33.534503 189.08041,24 187.77992,24 c -0.59385,0 -3.16608,4.142935 -5.71605,9.206523 -2.54999,5.063588 -5.40754,9.472592 -6.35011,9.797789 -3.35964,1.159111 -7.28256,-1.986961 -13.01111,-10.434559 C 159.50639,27.856389 156.40084,24 155.80143,24 c -0.59942,0 -2.5661,2.85 -4.3704,6.333333 -5.12456,9.893299 -9.11444,14.158438 -12.29916,13.147647 C 136.69605,42.707885 130.9842,35.077133 126.79533,27 c -2.52978,-4.878031 -5.04742,-3.504097 -9.72178,5.305396 -2.56601,4.836011 -5.9543,9.15252 -8.11126,10.333333 -3.59536,1.968262 -3.82588,1.890614 -7.83363,-2.638729 -2.271093,-2.566667 -5.561652,-6.916667 -7.312353,-9.666667 -1.7507,-2.75 -3.925566,-4.998364 -4.833034,-4.996364 -0.907466,0.002 -3.74994,4.052 -6.316606,9 -4.18493,8.067674 -5.079264,8.996364 -8.663559,8.996364 -3.450117,0 -4.81812,-1.228056 -10,-8.977002 -3.373548,-5.044778 -6.84404,-8.839834 -7.9229,-8.663854 -1.055885,0.172232 -3.816692,3.821348 -6.135125,8.109148 C 42.873765,46.879587 41.116607,46.964291 32,34.666667 c -3.805497,-5.133334 -7.351165,-9.333334 -7.87926,-9.333334 -0.528096,0 -2.016565,2.25 -3.307712,5 -3.412681,7.268642 -7.919371,13.64707 -9.649768,13.657556 -0.826874,0.005 -2.2264453,-0.862097 -3.1101583,-1.926905 z"
       id="path531" />
  </g>
</svg>
