<?xml version="1.0" encoding="UTF-8" standalone="no"?>
<!-- Created with Inkscape (http://www.inkscape.org/) -->

<svg
   version="1.1"
   id="svg195"
   width="214.66667"
   height="218.66667"
   viewBox="0 0 214.66667 218.66667"
   xmlns="http://www.w3.org/2000/svg"
   xmlns:svg="http://www.w3.org/2000/svg">
  <defs
     id="defs199" />
  <g
     id="g201">
    <path
       style="fill:#000000;stroke-width:1.33333"
       d="m 193.10626,207.96374 c -2.69158,-1.4218 -7.19158,-2.51747 -10,-2.4348 -7.47532,0.22 -15.05906,-2.14904 -28.84534,-9.01082 -27.6043,-13.73936 -39.17586,-34.9818 -33.24492,-61.02924 2.24406,-9.85545 6.30678,-15.21808 16.0099,-21.13244 8.99413,-5.48222 12.07524,-6.3446 23.26793,-6.51251 11.91749,-0.17879 19.39104,2.19387 25.19637,7.99921 6.27763,6.27764 8.41711,13.86696 7.30874,25.9262 -0.96015,10.44652 -3.35371,15.85337 -9.19352,20.7674 -6.55879,5.51902 -13.66767,7.40586 -20.18322,5.35704 -13.71574,-4.31294 -20.90869,-11.07784 -22.78681,-21.43082 -2.23037,-12.29473 10.86841,-24.15954 23.34963,-21.14996 4.57893,1.10412 9.34832,8.61452 9.34832,14.72092 0,5.64276 -2.43815,8.37256 -6.90866,7.7351 -2.34297,-0.33408 -3.23294,-1.53443 -3.81668,-5.14764 -1.3401,-8.29503 -4.19204,-10.16763 -8.40134,-5.51639 -4.61979,5.10481 -2.0555,12.65272 6.07977,17.89556 7.13541,4.59848 15.43952,1.53088 19.69415,-7.27517 5.38525,-11.14622 2.04417,-22.40834 -8.32406,-28.05871 -4.8247,-2.62932 -16.2107,-3.09039 -23.85857,-0.96614 -6.04517,1.67909 -13.79553,10.00694 -15.70178,16.87177 -6.77095,24.38362 9.96695,46.71945 39.60762,52.85425 5.24547,1.08567 11.1652,3.25452 13.15496,4.81967 2.91873,2.29588 4.69711,2.68386 9.20388,2.00802 8.07791,-1.21134 15.27071,2.95944 15.27071,8.85482 0,2.37052 -5.36827,6.55693 -8.33334,6.49868 -1.65,-0.0324 -5.20218,-1.22222 -7.89374,-2.644 z M 51.207166,204.28568 C 40.584141,200.66326 23.08718,184.09986 13.368754,168.46619 4.1878373,153.69718 0.25329211,133.78712 4.6074709,124.13128 10.510445,111.04082 23.020424,109.24235 41.666667,118.80354 c 1.283334,0.65806 3.383334,1.73487 4.666667,2.39292 1.283333,0.65805 5.018383,2.30805 8.30011,3.66667 3.281726,1.35861 8.49712,4.65867 11.589761,7.33346 3.092643,2.67479 6.107593,5.07479 6.699891,5.33333 2.845755,1.2422 14.392075,15.7971 16.594356,20.91828 7.35355,17.09992 2.856188,35.24006 -10.575188,42.65508 -5.892291,3.25295 -22.080914,5.11048 -27.735098,3.1824 z m 21.32807,-11.47817 c 7.143048,-2.98455 8.798099,-6.5558 8.798099,-18.98445 0,-10.67723 -0.113388,-11.05862 -5.164254,-17.36999 -9.329372,-11.65765 -18.802939,-18.63141 -32.16908,-23.68058 -1.1,-0.41553 -2.9,-1.26608 -4,-1.8901 -6.254147,-3.54793 -8.610722,-4.21572 -14.876921,-4.21572 -8.351881,0 -11.789746,2.5507 -11.789746,8.74732 0,2.38371 1.117238,6.64071 2.482752,9.46001 C 20.964411,155.50347 24,162.79767 24,164.53908 c 0,0.99059 0.937166,2.57884 2.08259,3.52947 1.145424,0.95061 4.167613,4.86961 6.715977,8.70888 9.15377,13.79075 27.440502,21.16775 39.736669,16.03008 z M 93.204877,105.48914 C 82.249629,98.472896 77.368427,81.115371 82.048585,65.817424 85.565012,54.323343 88.961308,48.007667 94.977749,41.774641 99.244722,37.354059 100.17539,35.546978 99.523243,32.948623 98.754019,29.88379 86.318569,19.191252 81.024921,17.042966 78.084673,15.849744 77.930187,10.260292 80.759263,7.431215 83.549499,4.6409787 86.369285,6.1706013 96.884596,16.17857 101.40446,20.480356 105.90471,24 106.88517,24 c 0.98045,0 5.68238,-3.80119 10.44873,-8.44709 12.51792,-12.2015693 18.22261,-14.5328377 20.92926,-8.5529099 1.9209,4.2439079 -0.5157,8.9838429 -5.08832,9.8983669 -3.93091,0.786181 -18.50817,14.090469 -18.50817,16.891924 0,0.922568 2.91253,4.947167 6.47228,8.943554 3.55975,3.996385 7.6783,9.666156 9.15232,12.599489 7.00904,13.948152 7.13308,30.762565 0.30217,40.962481 -5.69661,8.506175 -10.86723,11.304265 -22.26701,12.049805 -8.74239,0.57175 -10.197996,0.29678 -15.121553,-2.85648 z M 115.94559,96.507847 C 122.29984,91.1611 124,86.696105 124,75.355222 124,63.709233 121.1222,56.808536 112.03601,46.666667 l -5.37545,-6 -2.99695,3.585332 c -14.871458,17.791165 -18.333841,41.282898 -7.658049,51.958692 5.209379,5.209379 13.947429,5.339599 19.940029,0.297156 z"
       id="path670" />
  </g>
</svg>
