<?xml version="1.0" encoding="UTF-8" standalone="no"?>
<!-- Created with Inkscape (http://www.inkscape.org/) -->

<svg
   version="1.1"
   id="svg185"
   width="225.33333"
   height="208"
   viewBox="0 0 225.33333 208"
   xmlns="http://www.w3.org/2000/svg"
   xmlns:svg="http://www.w3.org/2000/svg">
  <defs
     id="defs189" />
  <g
     id="g191">
    <path
       style="fill:#000000;stroke-width:1.33333"
       d="m 199.4939,201.97011 c -1.71713,-1.71715 -1.97694,-6.5725 -1.6862,-31.51244 0.3302,-28.32468 0.45598,-29.57346 3.20276,-31.79768 3.16674,-2.56426 8.63726,-2.16098 11.11047,0.81905 2.04987,2.46995 1.73608,60.2834 -0.34079,62.78587 -1.9719,2.376 -9.80334,2.18809 -12.28624,-0.2948 z M 19.020277,196.28357 C 4.764069,195.84001 3.1482648,194.55688 4.6855287,184.90019 6.8929288,171.03385 10.903842,162.83561 19.670026,154.27211 c 11.973279,-11.69647 30.763395,-13.75159 44.329973,-4.8485 1.833333,1.20314 4.923377,2.57139 6.866765,3.04058 2.34145,0.56529 4.00537,2.20688 4.932415,4.8662 0.774956,2.22304 3.402373,5.19516 5.890302,6.66306 4.44339,2.62167 8.030176,8.90882 11.632728,20.39058 1.332643,4.24728 1.242586,5.57285 -0.566149,8.33333 C 91.007888,195.38541 89.502328,196 84.714617,196 c -3.239814,0 -6.261393,-0.6 -6.714618,-1.33333 -1.017029,-1.64559 -6.724968,-1.74146 -9.754321,-0.16383 -2.554608,1.33039 -30.827333,2.35315 -49.225401,1.78073 z m 32.715014,-11.49174 c 13.421077,-0.26655 24.712617,-0.7953 25.092311,-1.17499 0.379694,-0.37969 -1.175887,-1.79276 -3.456846,-3.14016 -4.568048,-2.69841 -6.089604,-6.54912 -4.912798,-12.43313 1.734606,-8.67304 -15.447408,-16.09914 -28.323357,-12.2414 -7.137284,2.13837 -16.938252,9.02605 -20.081961,14.11268 -2.61701,4.23441 -3.72897,13.9644 -1.814648,15.87872 0.497562,0.49756 2.747562,0.58476 5,0.19378 2.252437,-0.39098 15.076222,-0.92897 28.497299,-1.1955 z M 28.046956,58.049983 C 26.350454,56.244139 24.286406,53.410708 23.460184,51.753471 22.60906,50.046285 19.881576,48.146452 17.167304,47.370155 9.8012541,45.263423 7.6149234,42.873367 8.665226,38.075843 9.8865473,32.497148 9.8964301,27.223121 8.7005005,19.251208 7.425297,10.750864 9.1802431,8.7176024 18.905794,7.4274624 c 6.750646,-0.8955048 7.254254,-0.7470255 10.75491,3.1708886 2.019945,2.260713 3.672629,4.97981 3.672629,6.04244 0,2.43796 -4.121877,4.692542 -8.579012,4.692542 -4.093324,0 -4.294265,1.884766 -0.810147,7.5989 1.82199,2.988158 4.221503,4.701958 8.012523,5.722774 2.976406,0.801462 7.35377,3.153457 9.727476,5.226653 l 4.315826,3.769448 14.666667,-1.063247 C 78.797128,41.273511 139.06958,39.705981 160.71606,39.985837 178.00785,40.209393 184,39.357405 184,36.675236 c 0,-0.936289 0.87348,-4.621244 1.94105,-8.188789 1.06759,-3.567546 2.30493,-9.340354 2.74967,-12.82846 1.0579,-8.2972767 5.57457,-11.0143775 16.44442,-9.8925095 11.69183,1.2067022 12.67168,2.9188616 12.48242,21.8112475 -0.0867,8.650142 -0.54274,18.007378 -1.01351,20.793855 -1.48089,8.765341 -1.9828,8.853144 -42.60405,7.453087 -19.8,-0.682428 -58.09285,-0.845175 -85.095223,-0.361659 -46.002288,0.823737 -49.193424,1.036372 -50.65406,3.375223 -2.158936,3.457005 -6.533572,3.119489 -10.203761,-0.787248 z M 204.7347,38.042825 c 2.29251,-5.486766 2.3749,-7.727668 0.52852,-14.376158 -1.47602,-5.314892 -4.39021,-6.53848 -6.35116,-2.666667 -1.94834,3.846964 -4.62462,18.641047 -3.65577,20.208669 0.4956,0.801899 2.39629,1.457998 4.22376,1.457998 2.5312,0 3.78289,-1.10143 5.25465,-4.623842 z"
       id="path908" />
  </g>
</svg>
