<?xml version="1.0" encoding="UTF-8" standalone="no"?>
<!-- Created with Inkscape (http://www.inkscape.org/) -->

<svg
   version="1.1"
   id="svg175"
   width="86.666664"
   height="213.33333"
   viewBox="0 0 86.666664 213.33333"
   xmlns="http://www.w3.org/2000/svg"
   xmlns:svg="http://www.w3.org/2000/svg">
  <defs
     id="defs179" />
  <g
     id="g181">
    <path
       style="fill:#000000;stroke-width:1.33333"
       d="m 59.092668,206.01497 c -3.151603,-2.20747 -3.675952,-7.46393 -5.140036,-51.52759 -0.640872,-19.28796 -0.456135,-22.46007 1.417117,-24.33332 2.591299,-2.5913 7.754702,-2.8156 9.740282,-0.42312 2.250175,2.71129 3.706962,73.67807 1.565414,76.25848 -2.101491,2.53214 -3.995018,2.53852 -7.582777,0.0256 z m -46.28335,-1.45736 c -0.445125,-1.15997 -0.804013,-6.70997 -0.797528,-12.33333 0.0065,-5.62335 -0.697737,-20.55691 -1.564938,-33.18568 -1.6860108,-24.55283 -1.1286432,-28.69295 4.044956,-30.04587 1.494674,-0.39087 3.705111,0.0115 4.912085,0.89398 2.600006,1.90118 4.470568,10.74562 3.268105,15.45235 -0.467569,1.83019 -0.412107,11.1276 0.123253,20.66094 1.628488,28.9992 1.461804,36.21913 -0.890486,38.57142 -2.706418,2.70642 -8.054709,2.6983 -9.095443,-0.0139 z M 8.6860595,103.51239 C 6.3724929,101.82067 6.1888273,99.289641 6.0978867,67.845724 L 5.9999998,33.999999 9.6779266,27.022104 C 11.847513,22.905886 16.063218,17.90416 19.957471,14.825929 c 5.416251,-4.2813 8.107584,-5.4066875 14.98874,-6.2675779 9.565898,-1.1967745 9.662938,-1.1878729 20.202893,1.8532259 6.051958,1.746175 8.717069,3.392253 11.809574,7.294064 8.066406,10.177375 8.971317,15.208278 12.44438,69.18523 0.773616,12.023247 0.648036,12.987958 -1.86582,14.333329 -1.482395,0.79336 -4.461916,1.44247 -6.621158,1.44247 -5.515461,0 -6.580341,-3.856793 -6.810599,-24.666671 -0.31188,-28.186362 -4.042923,-43.283354 -12.430425,-50.297465 -8.463248,-7.077453 -23.314133,-4.002549 -28.520233,5.905168 -1.951326,3.713567 -2.318589,8.410012 -2.376677,30.392297 -0.03779,14.3 0.394564,28.227106 0.960781,30.949126 0.845755,4.065863 0.544491,5.434125 -1.688054,7.666665 -3.14216,3.14216 -7.792131,3.50901 -11.3648135,0.8966 z"
       id="path1047" />
  </g>
</svg>
