<?xml version="1.0" encoding="UTF-8" standalone="no"?>
<!-- Created with Inkscape (http://www.inkscape.org/) -->

<svg
   version="1.1"
   id="svg205"
   width="222.66667"
   height="220"
   viewBox="0 0 222.66667 220"
   xmlns="http://www.w3.org/2000/svg"
   xmlns:svg="http://www.w3.org/2000/svg">
  <defs
     id="defs209" />
  <g
     id="g211">
    <path
       style="fill:#000000;stroke-width:1.33333"
       d="m 17.666667,212.64291 c -3.768795,-2.67264 -3.814584,-5.93239 -0.138752,-9.87794 2.691951,-2.88946 3.4217,-3.00429 12.333333,-1.94053 5.209647,0.62185 14.823009,1.14075 21.363026,1.15311 l 11.890942,0.0224 1.80611,-8 c 0.99336,-4.4 2.382838,-10.59562 3.087727,-13.76804 1.327608,-5.97503 -0.442904,-36.3674 -2.292592,-39.35435 -0.525971,-0.84929 -1.277344,-3.94423 -1.669719,-6.87756 -0.71028,-5.30995 -0.741458,-5.33513 -7.111758,-5.74238 -3.519094,-0.22497 -9.519094,0.48638 -13.333334,1.58077 -10.148901,2.91197 -32.520369,5.144 -35.5117585,3.54305 -3.1265269,-1.67326 -4.5696368,-7.32701 -2.7419158,-10.74213 1.1729907,-2.19176 2.817665,-2.64264 9.6989363,-2.65897 7.545679,-0.0179 7.988447,-0.16987 4.953088,-1.70004 -3.566985,-1.79817 -4.798269,-5.73739 -2.771834,-8.86785 1.053313,-1.62717 2.794366,-1.67976 11.386652,-0.34395 5.578768,0.86731 11.912316,2.49177 14.074553,3.60991 2.162236,1.11813 6.735383,2.41731 10.162548,2.88705 l 6.231209,0.85409 -0.850754,-7.23859 C 57.201292,100.40806 52.184274,85.278355 46.880826,74.948357 40.468829,62.459136 38.181023,53.321667 39.068902,43.747621 42.892455,2.5180889 41.891341,3.9322373 64.792446,7.4112004 68.159344,7.9226743 72.420268,7.5074111 75.910269,6.3276731 83.184828,3.8686284 87.6507,4.775546 89.883024,9.1652237 c 1.063864,2.0920003 2.146672,10.9965283 2.689992,22.1212893 0.921228,18.862655 1.813532,22.04682 6.178223,22.04682 1.333591,0 2.768241,0.555832 3.188101,1.235184 0.41986,0.679351 5.70527,3.969882 11.74536,7.312291 6.04008,3.342409 12.86148,7.736577 15.15867,9.764817 4.88481,4.312918 18.52457,20.131366 27.61075,32.021045 L 162.82252,112 h 8.4354 c 9.4621,0 11.65086,-1.77374 13.16904,-10.67202 0.43742,-2.563721 1.45555,-7.961313 2.26252,-11.994647 0.80698,-4.033333 1.79331,-9.895056 2.19187,-13.026049 0.42929,-3.372463 1.62011,-6.152776 2.92165,-6.821467 3.05318,-1.568622 18.16008,-2.744704 20.07266,-1.562666 2.40582,1.486878 3.74833,8.174977 2.74374,13.668672 -0.4965,2.715144 -0.42673,9.917724 0.15504,16.005734 1.86823,19.550153 1.64803,22.064153 -2.15054,24.553083 -2.72707,1.78684 -6.70022,2.19523 -20.66667,2.1243 -15.72923,-0.0799 -17.29056,0.12674 -17.29056,2.28812 0,1.30675 1.35,4.2388 3,6.51566 1.65,2.27685 4.8,6.68641 7,9.79901 2.2,3.11262 9.75821,11.68846 16.79604,19.05744 11.02975,11.54875 12.67837,13.85828 11.94361,16.7315 -0.46882,1.83333 -2.50892,4.13134 -4.53352,5.10669 l -3.68109,1.77336 5.86412,6.89331 c 16.30384,19.16529 11.20312,23.66713 -22.93156,20.23912 -8.81828,-0.88559 -10.60529,-1.57858 -17.31212,-6.71344 -7.92967,-6.07111 -13.08148,-11.8851 -23.07053,-26.03579 -9.29616,-13.16915 -9.88367,-13.40096 -10.82418,-4.27104 -0.57929,5.62336 -1.5597,8.29807 -3.66839,10.00779 -3.72293,3.01856 -4.17839,2.9647 -8.45638,-1 -1.9782,-1.83334 -4.80899,-3.33334 -6.29064,-3.33334 -2.50567,0 -2.62459,0.53574 -1.70196,7.66667 1.07943,8.34275 1.12429,9.30424 0.77097,16.52401 -0.15659,3.19982 -1.03394,5.1964 -2.57104,5.85094 -1.28333,0.54648 -15.533332,1.17173 -31.666665,1.38945 -16.133334,0.21773 -36.833334,0.75815 -46.000001,1.20092 -14.011856,0.67681 -17.144532,0.46617 -19.666667,-1.32241 z m 88.734723,-19.30958 c 0.26977,-7.61673 -0.28737,-13.51957 -1.69893,-18 -3.15309,-10.00828 -4.20438,-11.07305 -5.278692,-5.34646 -1.27288,6.78504 -3.520863,11.34646 -5.591816,11.34646 -0.957004,0 -3.581383,-1.8 -5.831951,-4 -5.058645,-4.94498 -6.375981,-5.00358 -7.492274,-0.33333 -0.482028,2.01667 -1.24329,4.26667 -1.691694,5 -0.800584,1.30931 -1.275272,5.39971 -1.856788,16 l -0.292577,5.33333 7.333333,0.81092 c 4.033334,0.446 10.633334,0.746 14.666667,0.66667 L 106,204.66667 Z m 97.5916,9 c -0.009,-2.3257 -3.33061,-7.08384 -12.92445,-18.5184 -6.7429,-8.03662 -10.09546,-10.76796 -18.20635,-14.83272 C 167.39434,166.24199 162.20812,164 161.33728,164 c -0.87082,0 -3.10889,-1.2 -4.97345,-2.66667 -6.21944,-4.89221 -13.5054,-2.12649 -7.47305,2.83675 1.22325,1.00645 3.77325,5.19032 5.66666,9.29747 4.35692,9.45096 18.3287,24.82017 24.31856,26.75086 10.61608,3.42184 25.12763,4.64376 25.11699,2.11492 z m -79.10411,-37.22228 c -0.56769,-4.79326 -1.84102,-7.95896 -4.18572,-10.40629 -2.46783,-2.57587 -3.36982,-4.95933 -3.36982,-8.90455 0,-4.91854 -0.78296,-6.13014 -9.00001,-13.92704 C 97.653299,121.7392 72.000001,89.934447 72.000001,86.827393 72.000001,85.093059 89.919188,76 93.336945,76 c 2.716848,0 4.393738,3.314253 3.346439,6.614 -0.390729,1.231079 -2.804335,3.236845 -5.363567,4.457259 -2.559232,1.220412 -4.653149,3.046136 -4.653149,4.057164 0,1.78897 6.523571,10.862267 9.7338,13.538247 0.879744,0.73333 4.222502,4.78333 7.428342,9 3.20585,4.21666 6.3325,7.66666 6.94812,7.66666 0.61562,0 4.34205,2.62497 8.28097,5.83326 9.84312,8.01733 18.81326,14.18004 28.27544,19.42592 4.4,2.43938 11.1924,6.22202 15.09422,8.40588 7.06003,3.9515 21.24007,8.44509 22.54176,7.1434 0.37558,-0.37556 -0.56661,-2.66111 -2.09373,-5.07899 -1.52712,-2.41787 -4.28745,-7.20367 -6.13407,-10.63511 -1.84661,-3.43144 -3.9932,-6.63186 -4.77018,-7.11208 -0.777,-0.48021 -2.9846,-3.37266 -4.90579,-6.42769 -1.92119,-3.05502 -5.51028,-7.95459 -7.97575,-10.88792 -2.46548,-2.93333 -9.52033,-11.93333 -15.67746,-20 -11.09915,-14.541385 -19.02339,-23.333333 -21.03049,-23.333333 -0.57329,0 -3.89373,-2.030531 -7.37876,-4.512291 -3.48503,-2.48176 -10.12546,-6.410101 -14.7565,-8.729648 l -8.420074,-4.217357 -5.579924,5.943157 c -6.370993,6.785723 -14.939591,11.516139 -20.86014,11.516139 -6.325002,0 -5.444834,2.593696 6.267086,18.467968 3.977231,5.390715 8.665786,12.499145 10.419011,15.796505 1.753227,3.29737 6.403974,10.88678 10.334995,16.86537 7.283905,11.0779 13.115426,21.02986 16.526316,28.20349 1.04605,2.2 2.37139,4.9 2.9452,6 1.05069,2.01417 10.43492,7.93728 12.64,7.97807 0.65214,0.012 0.81857,-3.0781 0.36982,-6.86702 z M 90.652236,157 c -0.02278,-13.15399 -4.17786,-23.92919 -14.010664,-36.33333 -2.325263,-2.93334 -4.573492,-6.23334 -4.996064,-7.33334 -0.682946,-1.77777 -0.779888,-1.77777 -0.872486,0 -0.176904,3.39639 3.892734,21.4168 5.946975,26.3333 1.070669,2.56246 1.946671,6.9467 1.946671,9.74273 0,7.16552 1.948603,11.45171 6.271905,13.79583 2.050452,1.11176 4.178095,2.0454 4.728095,2.07476 0.55,0.0293 0.993505,-3.69662 0.985568,-8.27995 z M 202.73887,109.19843 c 1.01983,-1.90558 1.19711,-7.23592 0.55431,-16.66667 -0.78762,-11.555409 -1.3072,-13.861692 -3.11911,-13.844676 -4.16141,0.03908 -5.35939,2.017801 -5.2546,8.679068 C 194.9768,91.014769 194.56131,98.05 193.99603,103 l -1.02779,9 h 4.13564 c 2.8374,0 4.6063,-0.87945 5.63499,-2.80157 z M 74.033321,66.050964 c 5.938196,-3.480015 8.752258,-8.306829 9.094506,-15.599341 0.19351,-4.123258 -0.126894,-4.450795 -5.488229,-5.610414 -3.131554,-0.677333 -6.019573,-0.905677 -6.41782,-0.50743 -0.398245,0.398245 -0.957022,3.582705 -1.241726,7.076576 -0.563508,6.915357 -2.497319,9.120213 -6.241542,7.116366 -1.742024,-0.932304 -2.405176,-2.858324 -2.405176,-6.98546 0,-3.134037 -0.845809,-6.854961 -1.879574,-8.268721 -1.78869,-2.446177 -2.003304,-2.4585 -4.438322,-0.25484 -1.407311,1.273599 -3.261501,2.315633 -4.120425,2.315633 -3.920812,0 -0.274191,15.590519 4.843695,20.708403 4.308101,4.308101 10.95342,4.311453 18.294613,0.0092 z m 8.360934,-39.03054 -0.394254,-8.979575 -15.296425,0.07787 C 49.63883,18.2056 49.795073,18.105908 49.466241,29.117197 l -0.132907,4.450531 5.379448,-0.908852 c 3.438444,-0.580921 6.061142,-0.343096 7.268748,0.659128 1.449759,1.203192 2.930835,1.191356 6.366172,-0.05088 3.73422,-1.350311 5.12732,-1.266767 8.397919,0.503625 2.156576,1.167366 4.39846,2.146506 4.981967,2.175866 0.583505,0.02936 0.883505,-3.987426 0.666667,-8.926191 z"
       id="path233" />
  </g>
</svg>
