<?xml version="1.0" encoding="UTF-8" standalone="no"?>
<!-- Created with Inkscape (http://www.inkscape.org/) -->

<svg
   version="1.1"
   id="svg165"
   width="218.66667"
   height="220"
   viewBox="0 0 218.66667 220"
   xmlns="http://www.w3.org/2000/svg"
   xmlns:svg="http://www.w3.org/2000/svg">
  <defs
     id="defs169" />
  <g
     id="g171">
    <path
       style="fill:#000000;stroke-width:1.33333"
       d="m 30.136816,212.06588 c -3.079413,-0.58392 -4.651728,-2.28797 -7.7499,-8.39921 C 18.81527,196.62148 18.13637,196 14.012004,196 c -4.74193,0 -8.6786706,-2.82467 -8.6786706,-6.22707 0,-1.12012 1.0011634,-4.14638 2.2248075,-6.72502 1.62902,-3.43291 1.8529503,-5.28387 0.8362071,-6.91194 -2.0665584,-3.30908 -3.3712497,-10.39136 -2.4493691,-13.29594 3.046478,-9.5986 28.6872671,-4.69299 28.7125781,5.4933 0.0051,2.01667 0.651968,3.66667 1.437682,3.66667 0.785714,0 0.528571,0.9 -0.571429,2 -1.1,1.1 -2.385715,2 -2.857143,2 -0.471428,0 -1.757143,-0.9 -2.857143,-2 -2.198037,-2.19804 -11.142857,-2.77044 -11.142857,-0.71307 0,2.93552 8.3862,10.71307 11.551444,10.71307 1.80136,0 6.036652,2.10852 9.411762,4.68561 l 6.136561,4.68562 12.78345,-0.70559 c 7.030898,-0.38807 17.497144,-1.33392 23.258325,-2.10189 5.76118,-0.76798 29.958281,-1.47522 53.771341,-1.57164 l 43.29645,-0.17535 2.61734,-5.1304 c 1.43953,-2.82172 2.98349,-9.05147 3.43101,-13.84389 1.14165,-12.2256 2.99127,-14.09798 14.11077,-14.2844 5.43219,-0.0911 9.5431,0.48681 10.53758,1.48129 2.3586,2.3586 3.00318,41.15588 0.75677,45.55013 l -1.6646,3.25615 -83.20083,0.40613 -83.200823,0.40612 -4.131608,3.07027 c -2.95994,2.19959 -5.227154,2.86252 -7.994793,2.33772 z M 199.9566,190.05229 c 2.7832,-3.35354 3.20844,-11.88764 0.82228,-16.50196 -1.19938,-2.31934 -2.67414,-4.217 -3.27724,-4.217 -1.59812,0 -5.50164,12.87998 -5.50164,18.15311 0,3.86359 0.45651,4.51356 3.17008,4.51356 1.74354,0 3.89747,-0.87647 4.78652,-1.94771 z m -57.28993,-80.26192 c -23.85869,-5.14052 -36.57993,-8.60926 -38.77166,-10.571985 -1.15774,-1.036778 -2.65774,-1.91164 -3.33333,-1.944137 C 97.363068,97.120392 80.560047,81.385392 77.131515,75.333333 71.477345,65.352575 71.071033,64.119464 70.102141,54 68.211364,34.252033 76.33352,16.032577 89.589387,10.286604 c 9.4107,-4.079222 11.443733,-4.4430644 22.858373,-4.0908545 11.05629,0.3411528 12.23434,0.6643712 19.14848,5.2537095 9.2174,6.118164 13.87986,15.342645 14.0631,27.82333 0.18452,12.566726 -3.1369,20.62171 -11.2117,27.190263 -7.87202,6.403601 -10.30867,6.695153 -22.90656,2.74084 -7.25617,-2.277617 -9.77884,-3.858837 -13.604177,-8.527156 -9.315715,-11.368601 -6.727243,-25.545613 5.939997,-32.533261 9.92727,-5.476194 17.67036,-1.525416 22.06523,11.258404 2.15654,6.272977 1.07252,8.91151 -4.63202,11.274408 -4.8435,2.006244 -5.86609,1.260813 -8.24403,-6.00962 -1.26178,-3.857831 -2.48052,-5.333334 -4.40523,-5.333334 -2.15583,0 -2.73622,1.025487 -3.05797,5.403143 -0.31275,4.255157 0.31113,6.167351 2.93634,9 9.02366,9.736691 28.4093,-2.660559 25.65953,-16.409441 -1.13947,-5.697288 -7.29529,-13.364171 -12.46437,-15.523947 -11.3758,-4.753112 -28.492285,0.660759 -34.500036,10.912211 -2.666864,4.550658 -3.234343,7.323078 -3.234343,15.80139 0,12.271463 1.642352,16.101887 11.048395,25.767939 5.117734,5.259204 8.572194,7.509393 14.191294,9.244032 4.08484,1.261007 8.89003,3.226007 10.67821,4.366668 3.83235,2.444617 19.1829,6.686059 24.37977,6.736261 5.57676,0.05388 15.68175,5.488801 16.5364,8.894041 0.90964,3.62426 -0.37928,8.04675 -2.55149,8.75458 -0.88875,0.2896 -7.91591,-0.83083 -15.61591,-2.48984 z"
       id="path1186" />
  </g>
</svg>
