<?xml version="1.0" encoding="UTF-8" standalone="no"?>
<!-- Created with Inkscape (http://www.inkscape.org/) -->

<svg
   version="1.1"
   id="svg75"
   width="218.66667"
   height="205.33333"
   viewBox="0 0 218.66667 205.33333"
   xmlns="http://www.w3.org/2000/svg"
   xmlns:svg="http://www.w3.org/2000/svg">
  <defs
     id="defs79" />
  <g
     id="g81">
    <path
       style="fill:#000000;stroke-width:1.33333"
       d="m 165.70407,196.81741 c -1.18209,-0.65945 -11.11885,-0.771 -22.463,-0.25216 -23.42484,1.07137 -22.96767,1.322 -21.18826,-11.61588 2.04545,-14.8722 7.208,-23.30047 20.57019,-33.58244 6.70667,-5.16067 8.81838,-6.03871 16.38846,-6.81428 9.91737,-1.01607 21.2293,1.13444 26.16836,4.97485 1.74889,1.35987 3.91128,2.4725 4.8053,2.4725 C 193.7948,152 208,169.61682 208,174.34149 c 0,0.9706 1.2,4.11693 2.66667,6.99184 4.67719,9.16805 3.40629,13.32732 -4.66667,15.27272 -5.8939,1.42028 -37.82865,1.58779 -40.29593,0.21136 z m 28.62927,-13.22944 c 5.07898,-3.28719 -2.1565,-16.43237 -12.86372,-23.37041 C 175.81451,156.55317 173.79223,156 166.05116,156 c -7.05326,0 -10.07286,0.68169 -14.49253,3.27178 -8.68927,5.09226 -13.96875,11.28607 -14.96931,17.56176 -0.87241,5.47203 -0.85162,5.50618 4.05814,6.66667 6.21013,1.46784 51.43929,1.54179 53.68588,0.0877 z M 28,196.33874 C 9.0592724,195.93366 7.5124644,195.58354 5.5402356,191.25497 1.1640311,181.65025 15.876894,155.7391 29.877398,148.39426 c 6.325273,-3.31832 18.710596,-4.33844 27.005247,-2.2243 4.281212,1.0912 9.177911,2.32769 10.881552,2.74776 3.998153,0.98584 15.773467,12.94892 19.03127,19.33474 4.217093,8.26619 6.794181,17.21146 5.939542,20.6166 -1.131165,4.50692 -5.53026,5.7811 -22.600508,6.54612 -8.140641,0.36483 -17.501167,0.79567 -20.801167,0.9574 -3.3,0.16175 -12.9,0.14651 -21.333334,-0.0339 z m 48.333334,-11.66996 c 4.616625,-0.72908 5.000001,-1.12945 5.000001,-5.22169 0,-5.74156 -8.858281,-17.09643 -16.488009,-21.13496 -7.426581,-3.931 -21.815624,-3.92275 -29.511992,0.0169 -10.179631,5.21081 -15.849875,12.18709 -17.317,21.30565 l -0.906594,5.6347 23.111798,0.3927 c 24.134764,0.41008 27.876972,0.30715 36.111796,-0.99332 z M 91.991369,100.17031 C 73.71001,94.156625 62.868513,81.130696 61.619873,63.679324 c -0.585252,-8.179665 -0.225991,-10.1652 3.097419,-17.118575 2.067702,-4.326134 4.702189,-8.187819 5.854417,-8.581524 3.326196,-1.136531 9.428292,-7.002522 9.428292,-9.063489 0,-1.033362 -2.7,-4.778187 -6,-8.321836 C 67.657836,13.783476 66.527285,10.183771 70.278429,8.7443216 72.55884,7.8692461 129.85801,9.0698331 133,10.058524 c 2.82352,0.888478 1.84674,5.606292 -1.74583,8.432202 -1.87688,1.47635 -4.67601,4.290567 -6.22031,6.253816 -2.74459,3.489191 -2.75031,3.601236 -0.25416,4.977474 3.98948,2.199573 11.17253,10.418287 14.15304,16.193658 2.25104,4.361869 2.61334,7.068828 2.14372,16.016516 -0.89366,17.026271 -7.49164,27.174882 -22.66689,34.864758 -7.03478,3.564792 -20.578806,5.294242 -26.418201,3.373362 z M 117.11484,87.438145 c 8.51673,-4.423776 19.44532,-26.439942 15.2185,-30.658385 -0.55,-0.548909 -1.61544,-3.185398 -2.36763,-5.858865 -1.45447,-5.16948 -11.98009,-14.444312 -17.24817,-15.198509 -4.41751,-0.632427 -4.15972,-5.818665 0.52192,-10.500308 2.25163,-2.25163 4.09388,-4.64772 4.09388,-5.324642 0,-1.386711 -13.36649,-1.452756 -23.064135,-0.113962 l -6.397461,0.883192 3.397461,4.592374 c 4.714244,6.372274 4.337862,8.873673 -1.806901,12.008498 -10.454191,5.333329 -16.12897,16.021668 -16.12897,30.37861 0,5.861621 0.529106,6.974659 5.666667,11.920517 9.199063,8.855811 15.860108,11.366048 27.448169,10.343935 3.91316,-0.345156 8.71316,-1.45776 10.66667,-2.472455 z"
       id="path1325" />
  </g>
</svg>
