<?xml version="1.0" encoding="UTF-8" standalone="no"?>
<!-- Created with Inkscape (http://www.inkscape.org/) -->

<svg
   version="1.1"
   id="svg203"
   width="161.33333"
   height="229.33333"
   viewBox="0 0 161.33333 229.33333"
   xmlns="http://www.w3.org/2000/svg"
   xmlns:svg="http://www.w3.org/2000/svg">
  <defs
     id="defs207" />
  <g
     id="g209">
    <path
       style="fill:#000000;stroke-width:1.33333"
       d="m 66.666665,223.09922 c -4.033333,-1.11634 -11.533333,-2.47676 -16.666666,-3.02313 -9.911294,-1.05492 -28.437423,-5.16064 -30.666666,-6.79629 -0.733333,-0.53807 -3.880189,-1.39835 -6.993013,-1.91174 -6.647436,-1.09634 -7.4998984,-2.08854 -6.338296,-7.37728 0.6930343,-3.15537 1.8460648,-4.19208 5.765462,-5.18384 49.696855,-12.57525 64.45976,-14.2786 88.232512,-10.18029 48.998422,8.44711 55.037932,9.891 57.148692,13.66273 2.96025,5.28968 -2.21963,8.8451 -17.14869,11.7707 -2.56667,0.50298 -5.26667,1.34018 -6,1.86044 -4.31362,3.06026 -33.63414,8.3194 -49.333335,8.84876 -6.543453,0.22062 -13.501376,-0.42494 -18,-1.67006 z m 45.905405,-9.95061 c 14.5981,-4.41504 18.60556,-6.01483 19.14868,-7.6442 C 131.99656,204.67698 131.07222,204 129.66666,204 c -1.40555,0 -2.99013,-0.43459 -3.52129,-0.96575 -0.53116,-0.53115 -3.18116,-1.03993 -5.88889,-1.13061 -2.70773,-0.0907 -10.62315,-1.19232 -17.58982,-2.44808 -15.486618,-2.7915 -33.632856,-2.90552 -51.333328,-0.32258 -22.063753,3.21968 -30.8991,7.29156 -20.333333,9.3709 2.383334,0.46904 10.333333,2.30422 17.666667,4.07821 18.727701,4.53035 49.885949,4.80656 63.905404,0.56652 z M 98.228634,156.99873 c -1.839703,-1.34523 -2.317997,-4.04801 -2.472041,-13.96919 l -0.190998,-12.30125 -5.280993,-3.65973 c -4.429978,-3.06998 -6.694993,-3.66581 -14.055608,-3.69748 -8.241858,-0.0355 -8.823605,-0.24013 -9.581514,-3.37108 -0.443795,-1.83334 -0.297009,-6.03333 0.326191,-9.33333 0.6232,-3.3 1.076836,-10.800005 1.00808,-16.666671 C 67.822963,80.451315 70.055277,51.943146 71.925421,43.63665 72.713384,40.136809 73.296818,31.26649 73.221944,23.924832 73.039854,6.0704183 76.065424,1.1058107 84.420986,5.5485098 90.089591,8.5625384 99.786769,17.603813 101.1126,21.111132 103.26881,26.81507 105.30746,54.530247 107.35679,106 l 1.91118,48 -2.7817,2.33333 c -3.29758,2.76607 -5.17762,2.91756 -8.257636,0.6654 z M 94.358262,72.333332 C 94.00433,30.511942 93.962126,29.939534 90.868297,25 87.692,19.928797 85.480041,18.638552 85.153732,21.666666 c -0.09878,0.916667 -0.307175,4.966667 -0.463099,9 -0.155925,4.033333 -0.978825,14.833333 -1.828668,24 -0.849843,9.166666 -1.841448,20.716666 -2.203567,25.666666 -0.36212,4.95 -1.011545,12.944031 -1.443168,17.764512 C 78.370538,107.53161 80.37813,112 85.461293,112 c 1.309729,0 2.752147,0.6 3.205372,1.33333 0.453225,0.73334 1.999853,1.33334 3.436953,1.33334 2.547647,0 2.60396,-1.05734 2.254644,-42.333338 z"
       id="path231" />
  </g>
</svg>
