<?xml version="1.0" encoding="UTF-8" standalone="no"?>
<!-- Created with Inkscape (http://www.inkscape.org/) -->

<svg
   version="1.1"
   id="svg193"
   width="210.66667"
   height="212"
   viewBox="0 0 210.66667 212"
   xmlns="http://www.w3.org/2000/svg"
   xmlns:svg="http://www.w3.org/2000/svg">
  <defs
     id="defs197" />
  <g
     id="g199">
    <path
       style="fill:#000000;stroke-width:1.33333"
       d="M 7.0375265,202.33333 C 4.2108661,198.67847 4.1341263,197.52232 6.5169241,194.49005 7.8812489,192.75385 11.837518,185.78333 15.308634,179 c 3.471116,-6.78333 7.10104,-12.33333 8.066498,-12.33333 1.989416,0 5.595574,4.29248 11.761559,14 2.328979,3.66666 5.086416,6.66666 6.127638,6.66666 1.041222,0 4.109316,-4.2 6.817986,-9.33333 6.827826,-12.93975 9.166629,-13.02633 17.606741,-0.65181 3.495645,5.12516 7.134518,9.31848 8.086383,9.31848 0.951865,0 2.787054,-2.25 4.078201,-5 3.401112,-7.244 7.917433,-13.64704 9.633216,-13.65756 2.951948,-0.0181 8.442042,5.54201 12.533744,12.69356 2.29631,4.01353 4.92059,7.29733 5.83174,7.29733 0.91114,0 3.07612,-2.55 4.81106,-5.66667 9.34803,-16.79285 11.65556,-16.89741 22.06648,-1 2.16111,3.3 4.53098,6.43848 5.26638,6.9744 1.59016,1.15884 5.36229,-3.63494 10.15333,-12.9033 2.95641,-5.71924 4.06103,-6.73776 7.30732,-6.73776 3.93547,0 4.25404,0.39512 13.20976,16.38412 1.46667,2.6185 3.26667,4.94208 4,5.16349 0.73333,0.22143 2.77311,-3.0362 4.53283,-7.23917 4.68536,-11.19066 6.47457,-13.64178 9.95793,-13.64178 4.36465,0 6.02519,2.10872 15.0972,19.17207 3.76381,7.07925 4.02163,12.82793 0.57529,12.82793 -3.0716,0 -5.01206,-2.24017 -10.16325,-11.73297 -2.2,-4.05425 -4.56248,-7.33375 -5.24996,-7.28777 -0.68748,0.046 -3.29112,3.89444 -5.78585,8.55216 -2.49472,4.65772 -5.31534,9.28025 -6.26802,10.27229 -3.10221,3.23036 -7.18732,0.29128 -12.85482,-9.24853 -3.02895,-5.09848 -5.96438,-9.55252 -6.52319,-9.89788 -1.47939,-0.91432 -3.90511,2.421 -8.54907,11.7548 -3.26349,6.5592 -4.81289,8.33672 -7.54389,8.65452 -3.54401,0.41241 -3.56552,0.38866 -13.33293,-14.72418 -1.77408,-2.74498 -3.8256,-4.98512 -4.55894,-4.97805 -0.73333,0.007 -3.12904,3.63525 -5.3238,8.06267 -4.75097,9.58394 -8.80961,13.80206 -12.22943,12.70994 -1.34572,-0.42974 -4.07272,-3.63638 -6.060003,-7.12585 -1.987279,-3.48947 -4.991155,-8.03255 -6.67528,-10.09575 l -3.062046,-3.75126 -5.50933,10.41793 c -4.84522,9.16212 -5.997482,10.4674 -9.558919,10.82835 -3.441251,0.34877 -4.37188,-0.25212 -6.19504,-4 -3.106194,-6.38542 -9.168652,-14.85402 -10.719484,-14.97396 -0.733334,-0.0567 -3.294996,3.79688 -5.692583,8.56354 -5.643163,11.21923 -9.617156,13.15498 -14.775604,7.19724 -1.942498,-2.24346 -5.194658,-6.92636 -7.227022,-10.4064 -2.032365,-3.48005 -4.345077,-6.11074 -5.13936,-5.84598 -0.794284,0.26476 -3.308387,4.81048 -5.586895,10.1016 C 14.928516,202.08175 13.526606,204 11.21449,204 9.6261063,204 7.7464727,203.25 7.0375265,202.33333 Z M 92.283265,160.59999 c -4.9693,-3.51048 -9.348202,-8.32054 -10.297453,-11.31136 -0.488264,-1.53839 -3.497933,-6.60962 -6.688156,-11.26942 -3.190222,-4.6598 -7.082554,-11.28685 -8.649624,-14.72678 -2.430851,-5.33605 -2.613883,-6.82258 -1.246507,-10.12372 1.710947,-4.13059 5.973125,-5.97007 10.502247,-4.53258 2.228891,0.70742 2.795785,0.2797 2.93306,-2.21295 C 79.059693,102.37646 79.604041,99.280724 81.372975,92 84.296965,79.965185 84.39874,78.666667 82.418,78.666667 c -3.55638,0 -5.084665,3.209609 -5.084665,10.678493 0,4.429464 -0.784062,8.533709 -1.923104,10.066667 -1.893023,2.547693 -1.969221,2.542683 -4.871438,-0.320302 -2.566964,-2.53226 -2.915435,-4.17071 -2.693984,-12.666666 0.333293,-12.786842 0.841725,-14.118822 6.252232,-16.379476 5.607678,-2.343038 6.163878,-6.05426 0.90296,-6.024966 -2.016667,0.0112 -4.512256,0.555718 -5.545755,1.209974 -2.572842,1.628736 -5.454245,0.309266 -5.454245,-2.497642 0,-1.273405 -1.2,-5.803142 -2.666667,-10.066082 -3.185426,-9.258603 -3.352625,-13.104186 -0.666666,-15.333334 1.214012,-1.00754 2,-3.927618 2,-7.43034 0,-3.558302 0.717548,-6.179246 1.871726,-6.83674 1.02945,-0.586438 2.07945,-2.566253 2.333334,-4.399586 0.256136,-1.8496 1.758224,-3.902506 3.374568,-4.612028 1.602129,-0.703283 3.539267,-2.653282 4.304749,-4.3333337 1.706307,-3.744935 6.791383,-4.0612164 9.908972,-0.6163177 3.384736,3.7400914 2.68133,6.7484974 -3.025465,12.9396404 -2.877664,3.121896 -5.874319,7.988995 -6.659231,10.815773 -2.111468,7.604224 -1.816931,17.168571 0.590235,19.16634 1.117721,0.927627 2.189824,1.451094 2.382451,1.16326 5.069733,-7.575502 7.426756,-11.820953 8.063177,-14.523334 0.864512,-3.6709 14.442586,-18.614832 19.252246,-21.188884 2.77012,-1.482524 3.58924,-1.050759 9.35449,4.930804 3.47519,3.605581 7.67748,6.986916 9.33842,7.514077 1.87277,0.594396 3.30258,2.371919 3.76409,4.679493 C 128.23129,38.15642 138.25547,48 141.1641,48 c 2.40646,0 2.95052,-4.964041 1.11656,-10.187676 -0.99363,-2.830112 -4.31327,-8.695127 -7.37696,-13.033368 -3.0637,-4.33824 -5.57036,-8.654783 -5.57036,-9.592315 0,-0.937533 1.39717,-3.328915 3.10482,-5.3141842 2.48336,-2.8870731 3.81779,-3.4306405 6.66667,-2.7156156 2.67472,0.6713109 3.56184,1.7260661 3.56184,4.2348958 0,2.336816 1.00183,3.721827 3.33333,4.608263 1.94324,0.73882 3.33334,2.325081 3.33334,3.803739 0,1.395025 0.9,3.283342 2,4.196261 1.1,0.912919 2,3.345953 2,5.406743 0,2.575878 0.83341,4.011404 2.66666,4.593257 1.46667,0.465501 2.66667,2.008109 2.66667,3.428016 0,1.419907 -1.2,4.820589 -2.66667,7.557071 -1.46666,2.736482 -2.66666,6.51963 -2.66666,8.406994 0,5.175548 -2.72907,7.759734 -8.66667,8.206563 -6.37039,0.479399 -7.1904,3.475356 -1.67479,6.11892 3.87324,1.856396 4.31631,2.957533 6.28324,15.615769 0.6837,4.4 1.64311,9.632516 2.132,11.627815 0.75207,3.069375 0.33052,3.882228 -2.7385,5.280572 -4.99528,2.276 -6.74518,-0.416544 -7.90227,-12.15912 -0.49893,-5.063453 -1.70541,-9.868765 -2.68104,-10.678471 -3.64595,-3.025864 -3.56555,3.269507 0.31345,24.544121 0.82494,4.52441 1.55107,5.40185 5.06516,6.12056 7.25484,1.48377 7.62724,2.14786 6.79188,12.11194 -0.94596,11.28354 -6.03826,23.11794 -13.92156,32.35348 -8.50772,9.96704 -14.84935,12.73166 -17.565,7.65744 -1.01525,-1.89702 -0.67198,-3.17548 1.46994,-5.47456 2.07912,-2.23168 2.37262,-3.26031 1.14648,-4.01811 -2.10779,-1.30268 -1.32254,-5.4426 1.28101,-6.7536 1.1,-0.55391 4.58645,-2.07577 7.74768,-3.38195 6.71773,-2.77566 7.78401,-4.3922 9.01424,-13.66615 0.79911,-6.02396 0.62011,-6.8973 -1.41371,-6.8973 -3.97502,0 -21.58565,14.18371 -23.13738,18.635 -1.73516,4.97748 -4.83029,5.18936 -7.13808,0.48864 -1.05244,-2.14372 -5.08765,-5.30992 -10.217058,-8.01674 -4.662703,-2.46054 -9.993618,-5.66618 -11.846479,-7.12364 -4.452218,-3.50211 -5.675882,-3.34246 -5.675882,0.74053 0,4.4449 10.751458,15.99068 16.726983,17.96278 5.159576,1.70282 6.823146,5.25934 4.336396,9.27071 -1.427033,2.30196 -1.415157,2.98676 0.0678,3.90984 0.98882,0.61549 1.58369,2.24719 1.32193,3.62599 -0.62413,3.28756 -6.220704,3.89669 -10.169861,1.10688 z m 13.287105,-38.26666 c 0.8879,-2.83306 -0.89392,-38.900001 -2.00906,-40.666663 C 102.9827,80.75 100.12985,80 97.221644,80 c -6.518725,0 -7.619901,2.198719 -9.479892,18.9285 -1.547977,13.92337 -0.300447,17.53998 7.591583,22.00812 5.993595,3.39333 9.462935,3.86667 10.237035,1.39671 z m 18.64015,-3.51891 c 5.02814,-4.93908 6.70179,-12.36905 5.06943,-22.505097 -2.4149,-14.995151 -5.35705,-18.341634 -12.92516,-14.701451 -3.52176,1.693929 -3.68417,2.193869 -3.60041,11.083039 0.0482,5.119998 0.45848,13.809089 0.91165,19.309089 0.45317,5.5 0.8637,10.49043 0.91229,11.08985 0.15468,1.90815 5.96072,-0.66897 9.6322,-4.27543 z m -3.54385,-48.014893 c 4.52049,-0.677672 5.70991,-1.570403 7.80418,-5.857507 3.1495,-6.447233 2.07412,-13.419984 -2.53552,-16.440335 -3.33851,-2.187477 -4.01103,-2.123214 -13.19288,1.260664 -4.55962,1.680403 -5.96959,1.686399 -10.62134,0.04517 -9.759527,-3.443363 -16.436397,1.767706 -14.785455,11.539549 1.012644,5.993783 5.059704,9.273013 11.617436,9.413313 2.409139,0.05155 5.580239,0.622082 7.046909,1.267866 1.46667,0.645782 4.16667,0.813398 6,0.372478 1.83334,-0.440918 5.73334,-1.161458 8.66667,-1.601198 z"
       id="path370" />
  </g>
</svg>
