<?xml version="1.0" encoding="UTF-8" standalone="no"?>
<!-- Created with Inkscape (http://www.inkscape.org/) -->

<svg
   version="1.1"
   id="svg183"
   width="230.66667"
   height="114.66667"
   viewBox="0 0 230.66667 114.66667"
   xmlns="http://www.w3.org/2000/svg"
   xmlns:svg="http://www.w3.org/2000/svg">
  <defs
     id="defs187" />
  <g
     id="g189">
    <path
       style="fill:#000000;stroke-width:1.33333"
       d="m 213.91295,110.52581 c -0.50111,-0.8108 -1.12325,-7.99832 -1.38253,-15.972253 -0.26534,-8.15983 -1.26994,-16.409116 -2.29791,-18.8694 -1.33556,-3.196446 -1.45567,-5.202307 -0.44688,-7.46307 0.97307,-2.180742 0.91649,-4.823086 -0.192,-8.967636 -1.33075,-4.975491 -1.22864,-6.595035 0.66632,-10.56879 l 2.23788,-4.692885 -4.34513,-4.248171 c -2.38983,-2.336493 -5.21724,-5.934643 -6.28316,-7.995888 -1.60091,-3.095831 -2.80178,-3.745164 -6.90378,-3.733042 C 185.33138,28.043145 180,29.508306 180,32.127546 c 0,3.205016 -4.41917,5.486032 -8.59701,4.437463 -2.84017,-0.712839 -3.6476,-0.142515 -5.60275,3.957471 -2.20697,4.628075 -2.19177,4.8923 0.44879,7.800595 1.5382,1.694164 3.09156,5.789023 3.55296,9.366025 0.67736,5.25134 0.36033,6.815249 -1.82441,9.000001 -3.6975,3.697482 -6.1635,3.314453 -10.87474,-1.689099 l -4.08018,-4.333334 0.81286,5.510991 c 1.081,7.328826 -1.36097,9.628206 -6.19066,5.82917 -4.05014,-3.185831 -4.97819,-3.320132 -4.97819,-0.720406 0,3.267966 -4.80644,5.050001 -7.19049,2.665947 -2.35502,-2.355024 -4.79125,-10.278979 -4.80208,-15.619035 -0.005,-2.490301 -0.70146,-3.666667 -2.17069,-3.666667 -1.5885,0 -1.79284,0.44633 -0.76909,1.679867 0.76679,0.923927 1.8085,5.342105 2.3149,9.818175 0.84287,7.449975 0.66943,8.314337 -2.05064,10.219548 -5.3964,3.779788 -8.76983,-0.287517 -8.14229,-9.817059 0.1984,-3.012842 -0.45317,-5.402709 -1.77121,-6.496593 -1.84674,-1.532651 -2.08847,-0.911635 -2.11473,5.432803 -0.05,12.073192 -7.61195,17.529785 -11.73942,8.470964 -1.81328,-3.979708 -2.94049,-4.12267 -5.836618,-0.740239 -2.905901,3.393846 -7.493891,2.161456 -8.61734,-2.314721 -0.473289,-1.885736 -0.166727,-6.022652 0.681252,-9.193146 1.886685,-7.054105 1.919936,-8.392932 0.208444,-8.392932 -0.733333,0 -1.333333,0.923903 -1.333333,2.053117 0,3.929663 -5.464486,12.730477 -8.867034,14.280782 -2.922177,1.331432 -3.697311,1.188295 -5.279029,-0.974835 -1.019666,-1.394474 -1.853938,-3.920732 -1.853938,-5.613904 0,-3.647215 -2.156413,-3.953567 -5.639726,-0.801211 -3.863743,3.496639 -6.938883,0.777274 -7.425962,-6.566826 C 59.943573,50.82414 60.52111,48.918632 63.342398,45.565723 68.22007,39.768938 66.384042,37.107933 49.612543,25.666667 41.297447,19.994233 28.606051,23.347387 24.270608,32.362181 19.665607,41.937477 15.899986,70.24825 16.870212,88.000003 17.630418,101.90911 16.33392,107.16205 11.984945,107.7933 6.6351706,108.56981 5.3305957,104.95031 5.3597335,89.411829 5.3941662,71.049735 8.4859569,45.651861 12.063013,34.346958 14.260752,27.401242 16.31742,23.965262 21.119892,19.216054 33.547358,6.9264195 29.035068,7.5525741 103.33333,7.8075828 c 82.80049,0.2841901 86.79126,0.8308917 102.45034,14.0348282 10.16996,8.575435 11.84191,13.440835 14.487,42.157591 2.25401,24.471089 2.13405,45.165878 -0.27067,46.690848 -2.67257,1.69483 -4.97618,1.63237 -6.08705,-0.16504 z M 143.06338,39.628434 c 4.18181,-1.914496 7.60329,-4.071376 7.60329,-4.793065 0,-2.844028 8.97961,-10.396246 14.44576,-12.14947 4.52225,-1.450477 6.33065,-1.509142 8.31524,-0.269749 3.42247,2.137367 5.239,1.993073 5.239,-0.416149 0,-1.162576 -1.25613,-2.031951 -3,-2.076307 -6.25633,-0.159135 -20.40059,-1.402163 -21.96733,-1.930536 -0.8987,-0.303081 -3.8987,0.40052 -6.66667,1.563556 -4.3932,1.845921 -6.89628,1.912032 -19.69933,0.520293 -14.9264,-1.622553 -65.991732,-1.493741 -65.997076,0.166476 -0.0016,0.500583 1.181481,1.286068 2.629094,1.745523 1.447614,0.459455 3.80613,2.484249 5.241147,4.499545 2.701831,3.794373 15.846714,11.007901 27.460163,15.069338 5.238512,1.832006 10.107812,2.24791 22.730042,1.941454 13.99197,-0.339712 17.04383,-0.83887 23.66667,-3.870909 z"
       id="path509" />
  </g>
</svg>
