<?xml version="1.0" encoding="UTF-8" standalone="no"?>
<!-- Created with Inkscape (http://www.inkscape.org/) -->

<svg
   version="1.1"
   id="svg173"
   width="70.666664"
   height="214.66667"
   viewBox="0 0 70.666664 214.66667"
   xmlns="http://www.w3.org/2000/svg"
   xmlns:svg="http://www.w3.org/2000/svg">
  <defs
     id="defs177" />
  <g
     id="g179">
    <path
       style="fill:#000000;stroke-width:1.33333"
       d="m 26.428692,208.07542 c -2.014918,-1.63159 -3.215478,-4.57508 -3.895256,-9.5503 -0.540449,-3.95548 -1.781565,-11.69178 -2.758035,-17.19178 -1.1731,-6.60752 -1.698879,-19.7251 -1.549838,-38.66667 0.224468,-28.52733 1.039034,-35.77043 6.428131,-57.158851 1.176844,-4.6707 1.795212,-8.836688 1.374149,-9.257751 -0.421061,-0.421063 -4.899586,-0.79958 -9.952276,-0.841151 C 6.0424172,75.326371 5.7859235,75.230441 5.1783115,71.333334 4.7820884,68.792036 6.4723604,65.377565 12.360328,56.825148 c 1.742959,-2.531691 2.736395,-6.395974 2.91359,-11.333334 0.339709,-9.465617 2.879896,-15.697287 8.392748,-20.589355 2.810386,-2.493919 4.339732,-5.085475 4.35154,-7.373915 0.04716,-9.1396793 4.455659,-12.8965311 11.413449,-9.7263503 2.750727,1.2533158 3.23501,2.4040303 3.23501,7.6867813 0,5.395059 0.701991,6.974381 5.333333,11.998793 4.806551,5.214493 5.335316,6.480329 5.353408,12.815775 0.02581,9.039516 2.090345,14.777377 8.414306,23.385519 7.608661,10.356871 6.705275,11.737623 -7.343907,11.224555 -6.321141,-0.230844 -11.844716,0.149396 -12.274609,0.844978 -0.429894,0.695582 0.11664,4.184454 1.214517,7.75305 3.876688,12.60098 6.283994,39.776835 5.341306,60.297515 -0.483657,10.52838 -1.408775,20.53492 -2.055818,22.23678 -0.647043,1.70185 -1.512509,6.28773 -1.923259,10.19084 -1.865366,17.72545 -2.466629,20.78916 -5.175799,26.37304 -3.462598,7.13676 -8.477807,9.2258 -13.121451,5.4656 z M 35.996709,160 c 0.686474,-4.03333 1.614692,-9.43333 2.062708,-12 0.777431,-4.45386 -2.825462,-45.21049 -4.110185,-46.49521 -0.338745,-0.33874 -0.874084,-0.35772 -1.189643,-0.0422 -0.62402,0.62402 -2.453414,28.30199 -2.370899,35.87071 0.02799,2.56666 0.105306,12.15453 0.171818,21.30638 0.14057,19.3401 1.408548,25.63451 3.094257,15.36028 0.601596,-3.66666 1.655471,-9.96666 2.341944,-14 z M 47.572868,63.538242 C 49.334895,61.776214 38.699939,36.316729 34.683551,32.681949 30.876747,29.236838 29.832119,30.932112 28.24305,43.133925 27.243358,50.810138 26.095415,54.4362 23.937918,56.73275 c -5.758079,6.129194 -0.719918,8.75796 15.167418,7.913922 4.274601,-0.227095 8.08499,-0.725888 8.467532,-1.10843 z"
       id="path648" />
  </g>
</svg>
