<?xml version="1.0" encoding="UTF-8" standalone="no"?>
<!-- Created with Inkscape (http://www.inkscape.org/) -->

<svg
   version="1.1"
   id="svg185"
   width="98.666664"
   height="198.66667"
   viewBox="0 0 98.666664 198.66667"
   xmlns="http://www.w3.org/2000/svg"
   xmlns:svg="http://www.w3.org/2000/svg">
  <defs
     id="defs189" />
  <g
     id="g191">
    <path
       style="fill:#000000;stroke-width:1.33333"
       d="m 6.9999998,191.82674 c -2.9740571,-3.02176 -1.0266389,-15.86643 3.8421152,-25.3416 1.37017,-2.66652 2.491218,-5.75436 2.491218,-6.86188 0,-2.13432 8.513628,-10.28992 10.741648,-10.28992 0.72354,0 3.674006,-1.56078 6.556593,-3.46838 4.837148,-3.20108 6.145102,-3.43106 16.971413,-2.98433 8.403194,0.34676 13.432162,1.28748 17.730345,3.31665 3.299999,1.55794 7.649999,3.48802 9.666666,4.28908 2.016667,0.80106 3.666667,2.1627 3.666667,3.02587 0,0.86317 1.407416,3.42603 3.127589,5.69525 3.745981,4.94163 6.625421,11.05535 9.577654,20.3356 1.719105,5.40396 1.857672,7.49276 0.647112,9.75471 -1.401893,2.61947 -2.521114,2.85871 -12.446383,2.66044 -5.998286,-0.11981 -24.405972,0.1826 -40.905971,0.67203 -23.439433,0.69528 -30.3644756,0.51956 -31.6666662,-0.80352 z M 79.772207,178.90227 c 0.558737,-3.94376 -2.893901,-11.38203 -8.509533,-18.33271 -9.780933,-12.10621 -32.461455,-12.47922 -44.596008,-0.73344 -6.43808,6.23182 -12.000301,18.26066 -9.965941,21.55232 0.516395,0.83555 12.264966,1.19447 31.726342,0.96924 L 79.333331,182 Z M 39.333332,94.225136 C 23.196006,88.907687 11.996588,75.775221 10.004938,59.83459 8.5794546,48.425403 14.050197,36.895219 24.239269,29.834186 c 2.801736,-1.941603 5.094064,-4.549186 5.094064,-5.794627 0,-1.245441 -2.974648,-5.080835 -6.610328,-8.523097 C 11.999734,5.3636688 15.435876,3.0012113 38.450999,4.7029605 c 7.818616,0.5781123 19.615666,0.95367 26.215666,0.8345728 8.33009,-0.1503168 13.019418,0.3686716 15.333333,1.697007 l 3.333333,1.9135473 -6.333333,5.9202354 c -3.483333,3.256129 -6.333333,6.820469 -6.333333,7.920753 0,1.100286 2.092066,3.42786 4.649036,5.172388 6.189459,4.222846 12.292951,13.882503 14.10221,22.318784 3.051745,14.229797 -6.790353,33.625441 -20.864776,41.117835 -7.769862,4.136217 -21.023572,5.327813 -29.219803,2.627053 z M 64.277153,83.542952 C 70.381237,79.788892 73.724105,75.6226 77.997533,66.442937 81.877891,58.107618 82.084454,54.679462 79.213955,46.25501 76.71339,38.916254 69.65665,32.681761 62.285326,31.298891 c -6.020378,-1.129429 -6.225488,-3.089005 -0.951994,-9.095183 6.529919,-7.437168 5.611262,-8.87282 -5.666667,-8.8557 -12.334105,0.01872 -19.666666,1.234448 -19.666666,3.260696 0,0.876219 1.5,3.002303 3.333333,4.72463 5.210561,4.895068 4.402861,8.562589 -2.463226,11.184772 -4.313039,1.647165 -6.823455,3.826285 -9.808944,8.514477 -7.623932,11.972059 -8.732585,19.171299 -4.258572,27.65383 7.661503,14.525874 29.368873,22.301637 41.474563,14.856539 z"
       id="path213" />
  </g>
</svg>
