<?xml version="1.0" encoding="UTF-8" standalone="no"?>
<!-- Created with Inkscape (http://www.inkscape.org/) -->

<svg
   version="1.1"
   id="svg175"
   width="201.33333"
   height="202.66667"
   viewBox="0 0 201.33333 202.66667"
   xmlns="http://www.w3.org/2000/svg"
   xmlns:svg="http://www.w3.org/2000/svg">
  <defs
     id="defs179" />
  <g
     id="g181">
    <path
       style="fill:#000000;stroke-width:1.33333"
       d="m 111.33333,194.87254 c -5.18387,-3.17622 -18.83758,-17.82384 -24.296182,-26.06483 -4.492732,-6.78279 -10.300764,-23.00113 -12.502715,-34.91259 -1.424177,-7.70408 0.1194,-14.64184 6.229454,-27.99894 6.923641,-15.135679 25.626733,-19.838707 38.530323,-9.688734 5.76245,4.532744 10.46805,15.307664 9.56438,21.900624 -1.29013,9.4125 -4.59252,14.72616 -10.71684,17.24375 -14.78786,6.079 -13.72806,5.12966 -14.73641,13.20024 -0.50991,4.08122 -0.54565,8.7766 -0.0794,10.43417 1.77583,6.31337 6.85239,14.99853 12.32392,21.08419 5.86908,6.52784 7.38892,12.35746 4.08347,15.66292 -2.17145,2.17145 -3.70806,2.01398 -8.4,-0.8608 z M 94.50021,132.84426 c 1.191551,-1.369 5.166455,-3.82198 8.83312,-5.45108 7.67941,-3.41196 9.3514,-5.13136 10.5789,-10.87888 C 115.19232,110.52052 109.59404,104 103.1679,104 c -10.417758,0 -17.834568,10.96046 -17.834568,26.35568 0,10.76672 2.171287,14.44115 5.119508,8.66362 1.034504,-2.02728 2.855821,-4.80604 4.04737,-6.17504 z M 35.999999,88.64128 C 21.746816,85.378913 17.142901,81.544304 10.417222,67.333334 6.5668828,59.197792 6.0177448,56.716654 6.1382704,48.000001 6.2498871,39.927665 6.9780484,36.617046 9.9156998,30.825746 14.990898,20.820475 24.503469,11.733414 31.999999,9.729303 48.095799,5.4262772 53.172139,4.8557358 59.002238,6.6944605 80.526263,13.482812 91.313824,26.600032 91.326996,46.000001 c 0.0056,8.209172 -0.658372,10.716823 -5.512385,20.819724 -5.21068,10.84525 -5.954435,11.722383 -13.324744,15.714312 -8.182019,4.431571 -20.676255,8.254036 -26.015661,7.959188 -1.72748,-0.09539 -6.440873,-0.928768 -10.474207,-1.851945 z m 20,-8.565673 c 0,-1.425084 -1.35,-3.530251 -3,-4.678148 -1.65,-1.147899 -10.29326,-9.281922 -19.207244,-18.075606 -8.913983,-8.793686 -16.863983,-15.988519 -17.666666,-15.988519 -3.125192,0 -1.202467,5.023177 4.207244,10.991548 8.481717,9.357623 31.949573,30.341786 33.933051,30.341786 0.953488,0 1.733615,-1.165977 1.733615,-2.591061 z m -20,-1.117343 c 0,-1.049163 -13.327161,-14.275646 -17.666666,-17.533206 C 16.297776,59.897014 16,60.027022 16,62.443784 c 0,3.683162 13.605664,17.556217 17.217835,17.556217 1.530191,0 2.782164,-0.468782 2.782164,-1.041737 z m 34.255765,-3.810651 c 0.818029,-2.131748 -1.166141,-4.26018 -22.667325,-24.315392 -6.393688,-5.963708 -7.914386,-10.279188 -4.133465,-11.730063 1.484057,-0.569487 6.399004,3.449948 16.355106,13.37518 7.828406,7.804131 15.273667,14.18933 16.545025,14.18933 4.551315,0 2.219646,-5.063471 -6.021773,-13.076934 C 45.763115,29.699126 33.835511,18.720231 32.423183,18.694923 c -1.575149,-0.02823 -3.458126,4.015471 -2.871709,6.167 0.170606,0.625943 -0.160285,2.523272 -0.735314,4.216287 -0.976703,2.875639 -1.247264,2.946013 -4.111342,1.069397 -1.686209,-1.104847 -3.434606,-1.640041 -3.885326,-1.18932 -2.036759,2.036759 -0.203079,4.932374 8.180508,12.91807 9.899953,9.430096 28.331671,27.744937 32.664102,32.456978 3.237136,3.520776 7.401625,3.915468 8.591662,0.814278 z M 83.999999,50.843578 c 0,-2.436919 -13.289894,-15.893209 -28.157693,-28.510244 -7.449436,-6.321703 -10.508973,-7.713859 -10.508973,-4.781812 0,2.103156 34.770828,35.781812 36.942187,35.781812 0.948464,0 1.724479,-1.12039 1.724479,-2.489756 z m -4,-19.498945 c 0,-1.093786 -1.2,-2.738115 -2.666667,-3.654063 -1.466667,-0.915948 -2.666667,-2.291668 -2.666667,-3.057155 0,-1.66078 -7.872945,-6.538248 -8.898419,-5.512773 -0.776479,0.77648 11.597189,13.987559 13.231753,14.127239 0.55,0.047 1,-0.809463 1,-1.903248 z m 63.444251,57.054872 c -2.139,-1.15035 -6.73521,-2.842341 -10.21381,-3.759978 -11.57335,-3.052994 -18.19486,-10.271903 -23.35035,-25.457042 -4.10535,-12.092018 0.24731,-30.453557 9.36801,-39.518651 9.07822,-9.022869 17.94016,-12.7456978 32.83211,-13.7924983 11.54573,-0.8115839 13.19649,-0.621512 18.62743,2.1447958 10.36593,5.2800025 14.38977,9.2301565 18.79369,18.4495605 3.2748,6.85563 4.38063,11.219385 4.87376,19.232599 0.60613,9.849389 0.39073,10.879239 -4.33029,20.703986 -5.5016,11.449136 -8.1371,13.752728 -22.0448,19.26859 -11.4137,4.526722 -19.53444,5.429101 -24.55575,2.728638 z m 13.88908,-8.105122 c 0,-1.304756 -4.95,-7.301598 -11,-13.326314 -6.05,-6.024716 -11.9,-11.851007 -13,-12.947312 -7.13083,-7.106887 -14.72457,-12.687423 -17.26445,-12.687423 -2.92247,0 -2.91043,0.07451 0.81577,5.048572 5.24157,6.996923 36.43363,36.284762 38.64389,36.284762 0.99263,0 1.80479,-1.067528 1.80479,-2.372285 z M 136,77.717137 c 0,-1.696446 -11.17105,-12.383803 -12.94428,-12.383803 -3.05532,0 -1.8453,2.857479 3.45408,8.156863 4.62448,4.624483 9.4902,6.791675 9.4902,4.22694 z m 34.66666,-4.37935 c 0,-2.555659 -26.47781,-29.535317 -39.79281,-40.547036 -10.98939,-9.088393 -13.27096,-4.326139 -3.08652,6.442402 3.54969,3.753281 6.69969,7.411254 7,8.12883 0.30029,0.717576 3.546,3.696833 7.21267,6.620569 3.66666,2.923736 10.69292,9.073736 15.61389,13.666666 9.26192,8.644507 13.05277,10.296609 13.05277,5.688569 z m 9.94131,-9.242826 c 0.74112,-1.199156 -29.18281,-31.395526 -37.27464,-37.613998 -2.2,-1.690675 -4.78403,-4.140531 -5.74227,-5.444124 -2.02273,-2.751701 -6.9244,-3.191153 -6.9244,-0.620797 0,1.650322 16.96995,19.132093 35.82862,36.909216 7.99585,7.537298 12.34804,9.624988 14.11269,6.769703 z m -4.76913,-23.591476 c -6.94371,-7.031048 -11.17459,-9.612176 -12.9105,-7.876275 -0.47888,0.47888 3.61634,5.054448 9.10048,10.167928 7.39048,6.890971 10.09078,8.72598 10.43328,7.090037 0.2693,-1.286256 -2.49422,-5.200722 -6.62326,-9.38169 z m 5.49449,-9.689106 c 0,-1.987952 -5.04369,-7.540889 -5.99176,-6.596731 -1.05432,1.049968 3.10827,7.782353 4.81177,7.782353 0.64899,0 1.17999,-0.53353 1.17999,-1.185622 z M 155.84965,20.513478 c -5.18735,-5.285524 -10.51632,-7.663772 -10.51632,-4.69329 0,2.182134 5.66563,8.351322 10.49564,11.428496 7.19317,4.582738 7.20545,0.585543 0.0207,-6.735206 z"
       id="path352" />
  </g>
</svg>
