<?xml version="1.0" encoding="UTF-8" standalone="no"?>
<!-- Created with Inkscape (http://www.inkscape.org/) -->

<svg
   version="1.1"
   id="svg165"
   width="169.33333"
   height="202.66667"
   viewBox="0 0 169.33333 202.66667"
   xmlns="http://www.w3.org/2000/svg"
   xmlns:svg="http://www.w3.org/2000/svg">
  <defs
     id="defs169" />
  <g
     id="g171">
    <path
       style="fill:#000000;stroke-width:1.33333"
       d="M 29.333333,195.00542 C 10.392605,194.60034 8.8457974,194.25022 6.8735687,189.92164 2.4973644,180.31692 17.210226,154.40578 31.21073,147.06094 c 6.325273,-3.31832 18.710596,-4.33844 27.005246,-2.22431 4.281212,1.0912 9.177911,2.32769 10.881552,2.74776 3.998153,0.98584 15.773466,12.94892 19.031269,19.33475 4.217093,8.26618 6.794181,17.21145 5.939542,20.6166 -1.131165,4.50692 -5.530259,5.78109 -22.600507,6.54612 -8.140641,0.36482 -17.501166,0.79566 -20.801166,0.9574 -3.3,0.16174 -12.9,0.1465 -21.333333,-0.0339 z m 48.333332,-11.66996 c 4.616624,-0.72908 5,-1.12946 5,-5.2217 0,-5.74156 -8.85828,-17.09642 -16.488008,-21.13496 -7.426581,-3.931 -21.815623,-3.92274 -29.511991,0.0169 -10.179631,5.21082 -15.849874,12.1871 -17.317,21.30566 l -0.906593,5.63469 23.111797,0.39271 c 24.134763,0.41008 27.876971,0.30714 36.111795,-0.99332 z m 73.215585,-46.72403 c -3.05389,-3.04364 -3.11023,-3.56647 -2.7502,-25.52602 0.20215,-12.330308 0.23936,-25.638255 0.0827,-29.573215 -0.15668,-3.93496 0.40437,-7.98496 1.24678,-9 1.77843,-2.142871 6.98006,-2.416602 10.46636,-0.550782 2.23958,1.198584 2.40579,3.620888 2.23798,32.614907 -0.17142,29.61555 -0.326,31.42952 -2.84024,33.32952 -3.4749,2.62595 -4.69794,2.43844 -8.44338,-1.29441 z M 34.270622,96.865182 c -4.984491,-2.473335 -10.257864,-5.779821 -11.718606,-7.347743 -1.460743,-1.567924 -3.092139,-2.850771 -3.625323,-2.850771 -1.474681,0 -10.0055241,-13.381609 -11.9000925,-18.666667 -1.1389833,-3.177289 -1.2705103,-5.730508 -0.4121138,-8 0.6934269,-1.833333 1.881137,-5.768835 2.6393558,-8.745557 1.9885225,-7.806826 8.7374615,-17.296786 14.1159785,-19.849059 2.546598,-1.208441 4.630178,-2.975091 4.630178,-3.925893 0,-0.9508 -3.033259,-4.286409 -6.740577,-7.412465 -5.81045,-4.899444 -6.684381,-6.26214 -6.333333,-9.875383 l 0.407244,-4.1916439 10,0.4348911 c 5.5,0.23919 21.099999,0.53919 34.666666,0.6666667 24.062245,0.2260962 24.676585,0.3013105 25.071471,3.0695241 0.275979,1.93465 -1.757216,5.057414 -6.38878,9.812466 -6.308377,6.476571 -6.622975,7.104119 -4.404806,8.786514 1.313829,0.996488 3.066694,1.830879 3.895254,1.854201 0.82856,0.02332 4.109531,3.49013 7.291046,7.704016 5.113885,6.773292 5.846097,8.627847 6.315218,15.995253 0.655392,10.29274 -2.162498,19.567749 -8.900684,29.296351 -3.960314,5.717908 -6.635693,7.888012 -14.212053,11.527951 -5.674808,2.726369 -12.469211,4.823168 -17.333333,5.349186 -7.308068,0.79031 -8.783848,0.47618 -17.06271,-3.631838 z M 66.173276,83.103736 c 3.571364,-2.191825 7.343433,-5.736821 8.382376,-7.877769 1.038943,-2.140948 2.761526,-5.608082 3.827964,-7.704742 2.41202,-4.742135 1.443284,-13.081992 -2.492045,-21.454046 -2.411263,-5.129741 -3.678015,-6.27078 -8.366528,-7.536232 -7.321768,-1.97618 -11.708637,-4.124618 -12.469243,-6.106724 -0.341698,-0.890452 1.842224,-4.182768 4.853161,-7.316257 4.770307,-4.964467 5.164979,-5.811728 3.068498,-6.587267 -4.141808,-1.532155 -24.066305,-1.328311 -25.04561,0.256237 -0.497564,0.805076 1.401276,3.825271 4.219646,6.711543 6.100947,6.247938 5.500868,8.288436 -3.746297,12.73885 -8.331319,4.00964 -14.6602,12.319262 -15.404981,20.226255 -0.46742,4.962377 0.178211,7.689298 3.207277,13.546417 3.321417,6.42242 4.86904,7.877051 12.459172,11.710542 10.817465,5.463497 17.869122,5.307934 27.50661,-0.606807 z"
       id="path491" />
  </g>
</svg>
