<?xml version="1.0" encoding="UTF-8" standalone="no"?>
<!-- Created with Inkscape (http://www.inkscape.org/) -->

<svg
   version="1.1"
   id="svg195"
   width="217.33333"
   height="220"
   viewBox="0 0 217.33333 220"
   xmlns="http://www.w3.org/2000/svg"
   xmlns:svg="http://www.w3.org/2000/svg">
  <defs
     id="defs199" />
  <g
     id="g201">
    <path
       style="fill:#000000;stroke-width:1.33333"
       d="m 49.803102,212.00892 c -10.561684,-4.26139 2.398703,-10.45721 17.897433,-8.55603 6.248933,0.76655 7.618083,0.45798 12.269032,-2.76513 4.234932,-2.93481 5.90682,-5.44875 8.7506,-13.15787 1.933492,-5.24144 5.262428,-13.20352 7.397636,-17.6935 5.267197,-11.07606 4.994997,-15.17467 -1.797734,-27.06926 -4.916162,-8.60857 -6.606278,-10.39079 -12.960344,-13.66666 -4.018817,-2.07193 -8.053491,-3.76714 -8.965942,-3.76714 -1.779997,0 -18.875884,-13.57597 -27.865281,-22.12802 C 38.473053,97.444459 32,86.744581 32,82.495849 32,80.987275 33.592598,75.266884 35.539109,69.783871 38.258235,62.124517 40.865577,57.842476 46.792602,51.302237 58.750538,38.107128 59.3206,36 50.93247,36 38.538633,36 24.770684,45.027064 17.490814,57.926285 c -2.189581,3.879724 -4.903388,7.407976 -6.030683,7.84056 -2.4525237,0.941122 -6.1348523,-2.392692 -6.1067227,-5.52875 0.07052,-7.861938 9.0555737,-21.610044 20.5297477,-31.412738 4.503576,-3.847525 7.564765,-7.645094 8.089881,-10.035932 0.954897,-4.347618 3.331805,-6.77267 9.904789,-10.1054083 5.986904,-3.0355742 34.383167,-2.9676751 40.842882,0.09766 8.507041,4.0368553 16.595912,19.9506263 16.606452,32.6709693 0.005,6.538145 -0.37948,7.62836 -3.136636,8.884605 -2.282245,1.039862 -3.992475,1.007191 -6.245827,-0.119306 C 89.433669,48.962617 88.5339,46.886057 87.228416,39.333333 86.341121,34.2 84.911777,28.2 84.052093,26 82.159404,21.156453 77.530671,16 75.075511,16 c -1.729983,0 -1.630525,1.945247 0.498592,9.751716 1.173748,4.303581 -8.649403,22.013643 -20.055311,36.157523 -6.419405,7.960373 -5.095915,8.567725 17.389288,7.979981 21.897803,-0.572391 32.41753,0.838976 42.04759,5.641264 3.45896,1.7249 7.05896,3.143783 8,3.153072 0.94105,0.0093 5.24555,1.809291 9.56556,4 4.32001,2.190711 8.37615,3.983111 9.01367,3.983111 0.63751,0 4.10139,2.068081 7.69752,4.595736 5.81154,4.08484 12.91252,8.029453 37.83466,21.017247 3.8131,1.98714 10.53292,4.42759 14.93292,5.42322 10.17464,2.3023 12.42196,5.62936 8.69049,12.86589 -1.35125,2.62052 -4.64897,6.86457 -7.32828,9.43124 -2.67931,2.56667 -6.08081,6.61667 -7.55892,9 -3.64025,5.86965 -6.92645,5.51843 -14.48071,-1.54769 -6.66346,-6.2329 -5.56264,-5.91448 -27.65592,-7.99942 -4.11864,-0.38868 -7,-0.1244 -7,0.64207 0,0.71647 2.04459,4.27497 4.54354,7.90779 l 4.54352,6.60513 -0.0291,17.09621 c -0.0219,12.87915 0.56873,18.99248 2.39429,24.78382 3.90822,12.39828 2.36476,13.31278 -25.2521,14.96194 -16.16818,0.96548 -18.11677,0.49875 -18.17982,-4.35461 -0.0561,-4.32033 4.11279,-5.76191 16.66286,-5.76191 7.36153,0 12.8515,-0.58049 13.36621,-1.4133 0.48041,-0.77732 0.1104,-9.92732 -0.82221,-20.33334 l -1.69568,-18.92002 -7.21006,-7.33334 c -3.96553,-4.03333 -8.03183,-8.89882 -9.03622,-10.8122 -1.99569,-3.80178 -8.87884,-7.34172 -11.32994,-5.82685 -1.84564,1.14067 -1.07601,8.81097 1.50658,15.01504 1.66439,3.99831 1.54344,4.91892 -1.4013,10.66667 -1.77259,3.45988 -5.73902,10.19068 -8.81428,14.95734 -8.157124,12.64358 -11.26738,19.3624 -11.784008,25.45598 -0.526313,6.20784 -1.135451,6.95834 -7.327937,9.02872 -5.251236,1.75566 -32.767817,1.89765 -36.997933,0.19089 z M 190.66666,137.33333 C 190.66666,136.6 189.73125,136 188.58797,136 c -1.14328,0 -1.70787,0.6 -1.25464,1.33333 0.45323,0.73334 1.38864,1.33334 2.07869,1.33334 0.69006,0 1.25464,-0.6 1.25464,-1.33334 z m -5.33333,-2.51116 c 0,-1.3523 -5.53675,-3.0632 -6.56983,-2.03012 -0.86225,0.86224 2.67255,3.1602 4.90316,3.18754 0.91667,0.0107 1.66667,-0.50962 1.66667,-1.15742 z m -8,-2.6555 c 0,-1.1048 -6.20237,-2.83334 -10.16667,-2.83334 -3.74838,0 -1.67512,2.51735 2.5,3.03548 2.38334,0.29576 5.08334,0.63378 6,0.75114 0.91667,0.11736 1.66667,-0.31162 1.66667,-0.95328 z m -19.02777,-3.63889 c -0.44307,-0.44306 -1.59307,-0.49043 -2.55556,-0.10527 -1.06364,0.42564 -0.74771,0.74158 0.80556,0.80556 1.40554,0.0579 2.19305,-0.25724 1.75,-0.7003 z M 112,124.66667 c -0.91292,-1.1 -3.65098,-2 -6.08457,-2 -2.4336,0 -4.79554,-0.6 -5.24876,-1.33334 C 100.21344,120.6 98.490728,120 96.838415,120 c -1.652312,0 -5.487919,-1.2 -8.523568,-2.66667 -3.035651,-1.46666 -6.09158,-2.66666 -6.790955,-2.66666 -0.699375,0 -3.785127,-2.1 -6.857226,-4.66667 -3.0721,-2.56667 -6.116731,-4.66667 -6.765847,-4.66667 -0.649117,0 -2.953276,-3.10452 -5.120355,-6.898929 l -3.940142,-6.89893 3.033085,-5.434403 3.033087,-5.434401 -10.453247,-0.03652 -10.453248,-0.03652 v 3.688892 c 0,2.866072 2.750988,6.467131 12.333333,16.144391 6.783334,6.85053 14.583334,13.45697 17.333334,14.68096 18.752265,8.34645 27.214284,10.96862 36.829924,11.4127 2.66607,0.12313 2.90237,-0.16827 1.50341,-1.85391 z m 61.25217,-7.98593 c -1.09227,-1.09226 -8.57084,-4.89502 -16.61905,-8.45057 -8.04822,-3.55556 -16.84963,-7.61189 -19.55871,-9.014074 -2.70907,-1.402187 -7.80907,-3.942404 -11.33333,-5.644928 -3.52426,-1.702524 -11.19125,-5.496605 -17.03776,-8.431291 -12.304743,-6.176433 -22.976205,-8.178706 -24.935005,-4.678525 -0.678787,1.212923 -2.316728,2.205315 -3.639872,2.205315 -3.21441,0 -9.461777,5.924636 -9.461777,8.972993 0,4.254232 3.770642,8.037596 12.217139,12.25836 4.514832,2.25609 8.96433,4.10198 9.887771,4.10198 0.923441,0 3.377608,0.84804 5.453702,1.88453 7.256792,3.62294 18.755022,6.11609 28.558572,6.19231 5.43555,0.0423 12.28281,0.57326 15.21615,1.18 2.93333,0.60674 11.6119,1.17216 19.28572,1.25649 12.35817,0.13582 13.72546,-0.0736 11.96645,-1.83259 z M 46.666666,25.412023 c 0,-0.690055 -0.6,-1.625464 -1.333333,-2.07869 -0.733334,-0.453225 -1.333334,0.111366 -1.333334,1.254644 0,1.143279 0.6,2.07869 1.333334,2.07869 0.733333,0 1.333333,-0.56459 1.333333,-1.254644 z m 15.666485,-2.189982 c -1.270611,-1.27061 -3.817989,0.787466 -2.871077,2.3196 0.562825,0.910671 1.30862,0.887664 2.266193,-0.06991 0.785008,-0.785008 1.057207,-1.79737 0.604884,-2.24969 z"
       id="path372" />
  </g>
</svg>
