<?xml version="1.0" encoding="UTF-8" standalone="no"?>
<!-- Created with Inkscape (http://www.inkscape.org/) -->

<svg
   version="1.1"
   id="svg75"
   width="206.66667"
   height="220"
   viewBox="0 0 206.66667 220"
   xmlns="http://www.w3.org/2000/svg"
   xmlns:svg="http://www.w3.org/2000/svg">
  <defs
     id="defs79" />
  <g
     id="g81">
    <path
       style="fill:#000000;stroke-width:1.33333"
       d="m 49.267611,209.21053 c -0.821084,-1.53421 -1.758938,-4.68421 -2.084121,-7 -0.681004,-4.84977 -2.627317,-57.24728 -2.4594,-66.21053 0.358191,-19.11994 0.723216,-22.59016 2.570532,-24.43748 1.377193,-1.37719 6.43999,-2.20792 17,-2.78945 45.742088,-2.51896 99.241128,-3.10399 101.238038,-1.10708 1.91274,1.91275 3.12116,96.28994 1.26761,99.00068 -1.59779,2.33669 -17.22004,3.65776 -45.72158,3.86638 -13.28221,0.0972 -18.53777,-0.32037 -19.29406,-1.53305 -0.57168,-0.91667 -1.19273,-10.66667 -1.38011,-21.66667 -0.18737,-11 -0.569389,-27.2 -0.848914,-36 -0.666836,-20.99319 1.039904,-25.26977 8.586714,-21.5157 3.13535,1.55964 3.21011,2.02861 4.28552,26.88485 0.60198,13.91364 1.02713,28.39675 0.94477,32.18469 -0.0824,3.78795 0.41499,7.2362 1.10522,7.66279 1.52763,0.94412 39.76479,1.65464 40.65447,0.75543 0.8608,-0.87002 1.10677,-21.05271 0.61222,-50.23616 -0.30005,-17.70606 -0.88088,-24.73329 -2.149,-26.00001 -1.37329,-1.37177 -10.91349,-1.65212 -45.48229,-1.33655 -24.05947,0.21963 -45.477454,0.86537 -47.595525,1.43498 l -3.851037,1.03563 -0.05719,18.56503 c -0.03145,10.21076 0.444112,28.46502 1.056813,40.56502 0.612701,12.1 1.085524,23.46639 1.050719,25.25864 -0.110027,5.66579 -6.822998,7.52604 -9.449401,2.61856 z M 63.420882,41.163985 C 61.437908,39.604177 58.206992,34.985077 56.24107,30.89932 54.275149,26.813561 52.016224,23.272953 51.221235,23.031301 50.426247,22.789649 47.543473,27.108749 44.815067,32.6293 38.092554,46.231383 35.030757,46.088896 25.837276,31.746135 22.37264,26.340949 19.34122,22.916436 18.487943,23.443791 17.689163,23.937464 15.624746,27.531608 13.900347,31.430776 10.294775,39.583615 6.6007145,42.410239 3.5449785,39.354503 1.802475,37.611999 1.8739479,36.584807 4.1554983,30.580253 8.3924849,19.429412 14.620232,7.9341259 16.897902,7.0601024 c 2.897878,-1.1120209 6.059245,1.0703079 8.299945,5.7295526 1.025481,2.132356 3.575481,6.063354 5.666667,8.73555 2.091184,2.672198 3.802153,5.522198 3.802153,6.333334 0,4.292988 3.280022,0.195554 7.970342,-9.956624 6.577396,-14.2367469 8.863454,-14.6186757 16.072507,-2.685212 5.09976,8.441857 10.64383,13.389928 11.643276,10.391593 0.309305,-0.927916 2.500925,-5.419385 4.870268,-9.981041 3.777887,-7.2735074 4.783748,-8.2939217 8.175633,-8.2939217 3.418599,0 4.56538,1.1999567 9.875415,10.3333337 3.304223,5.683333 6.619276,10.315008 7.366782,10.292612 0.74751,-0.0224 3.75911,-4.372398 6.69245,-9.666667 7.14152,-12.8894839 9.39787,-12.9529656 18.03904,-0.507523 3.48212,5.015132 6.93517,9.72246 7.67344,10.46073 0.90085,0.900853 3.37394,-2.384767 7.5198,-9.990434 3.39761,-6.233007 7.09568,-11.6850879 8.21792,-12.1157346 2.28696,-0.877586 11.13564,7.8819926 11.30754,11.1936826 0.1647,3.172511 4.59676,9.962278 6.7791,10.385322 C 169.1054,28.151948 172,22.773368 172,18.186717 172,14.479868 178.4881,8 182.19964,8 c 3.62971,0 5.80051,2.671881 12.45778,15.333333 3.08464,5.866667 6.14861,11.236667 6.80884,11.933334 3.66796,3.870406 -0.998,9.351606 -6.26515,7.359804 -2.84057,-1.074178 -9.86777,-12.897026 -9.86777,-16.60193 0,-1.113497 -1.12959,-2.024541 -2.5102,-2.024541 -1.71911,0 -3.64176,2.312833 -6.10078,7.338868 -6.71273,13.720325 -10.11609,14.558271 -17.57761,4.327799 -2.80796,-3.85 -5.71424,-8.152619 -6.4584,-9.561375 -2.52735,-4.784507 -4.37115,-3.57376 -9.90072,6.501407 -3.03668,5.532982 -6.35968,10.059968 -7.38447,10.059968 -3.08117,0 -9.8926,-6.550196 -13.6646,-13.14053 -1.94945,-3.406041 -3.72319,-6.428304 -3.94162,-6.716138 -0.96866,-1.276402 -4.48933,3.219625 -7.76676,9.918441 -4.40478,9.003045 -6.55822,11.231972 -9.98567,10.335675 C 97.7699,42.469815 89.851615,33.011411 84.457895,24.448269 83.050397,22.213707 82.720241,22.407348 80.67556,26.666667 74.738099,39.035112 71.303062,44 68.68322,44 67.771909,44 65.403857,42.723793 63.420882,41.163985 Z"
       id="path630" />
  </g>
</svg>
