<?xml version="1.0" encoding="UTF-8" standalone="no"?>
<!-- Created with Inkscape (http://www.inkscape.org/) -->

<svg
   version="1.1"
   id="svg203"
   width="213.33333"
   height="205.33333"
   viewBox="0 0 213.33333 205.33333"
   xmlns="http://www.w3.org/2000/svg"
   xmlns:svg="http://www.w3.org/2000/svg">
  <defs
     id="defs207" />
  <g
     id="g209">
    <path
       style="fill:#000000;stroke-width:1.33333"
       d="m 98.666665,198.66666 c -2.566667,-1.40518 -5.731138,-2.58004 -7.032158,-2.61077 -3.669426,-0.0867 -19.634508,-17.13909 -19.634508,-20.97173 0,-1.76912 -0.973693,-5.09951 -2.163763,-7.40084 -2.698964,-5.21923 -1.804062,-16.10563 2.204698,-26.82 2.218821,-5.93034 4.442506,-8.81726 11.033935,-14.32492 9.164518,-7.65769 10.323871,-8.23819 21.181471,-10.60574 26.2928,-5.73327 49.55274,11.10504 51.4216,37.22507 0.52266,7.30464 0.10107,10.29073 -2.18172,15.45121 -1.55625,3.51819 -2.82956,7.11756 -2.82956,7.99862 0,3.165 -8.39832,14.19857 -12.48994,16.40908 -15.23539,8.23093 -30.74478,10.44881 -39.510055,5.65002 z m 20.345175,-8.78962 c 0.86148,-0.86147 -4.42926,-7.35215 -9.59177,-11.76719 -1.78563,-1.52708 -8.58622,-8.02652 -15.112441,-14.44319 C 87.781413,157.25 81.89238,152 81.220889,152 c -2.749365,0 -0.92715,4.62882 3.445776,8.75302 2.566667,2.42068 4.683184,4.89152 4.703372,5.49078 0.02019,0.59924 2.231332,2.58953 4.913654,4.42286 2.682321,1.83334 8.453579,7.08334 12.825009,11.66667 7.46152,7.8232 10.0091,9.43775 11.90314,7.54371 z m -24.345175,-5.58679 c 0,-1.90221 -12.591109,-13.85025 -13.072816,-12.40513 -0.60646,1.81937 9.202344,13.34666 11.40615,13.40449 0.916666,0.024 1.666666,-0.42567 1.666666,-0.99936 z m 35.738995,-4.11824 c -1.68978,-1.91796 -5.32233,-5.64911 -8.07233,-8.29145 -2.75,-2.64235 -5,-5.49643 -5,-6.34242 0,-0.84598 -0.75326,-1.53814 -1.6739,-1.53814 -1.67866,0 -12.99276,-9.97019 -12.99276,-11.44946 0,-1.58894 -10.106798,-11.49234 -13.600458,-13.32674 -4.611156,-2.42115 -5.075057,-2.38026 -5.024079,0.44286 0.03985,2.20735 5.634974,9.66667 7.250808,9.66667 0.414803,0 4.493582,3.99411 9.063959,8.8758 11.33916,12.11153 23.33003,23.47597 26.70889,25.31356 1.53992,0.83747 3.61263,1.21079 4.60603,0.82959 1.3707,-0.52599 1.06542,-1.53387 -1.26616,-4.18027 z M 140,172.82992 c 0,-1.0102 -0.9,-2.58367 -2,-3.49659 -1.1,-0.91292 -2,-2.09508 -2,-2.62703 0,-1.37853 -14.4822,-15.68354 -16.76443,-16.55932 -1.04623,-0.40148 -1.90224,-1.64878 -1.90224,-2.77181 0,-1.12301 -0.82653,-2.04184 -1.83674,-2.04184 -1.01021,0 -2.58367,-0.9 -3.49659,-2 -1.55359,-1.87196 -6.66667,-2.8586 -6.66667,-1.28643 0,1.5665 4.38782,7.28643 5.58949,7.28643 0.70553,0 7.02929,5.7 14.05279,12.66667 C 137.73089,174.65206 140,176.28769 140,172.82992 Z m 2.45257,-18.16408 c -0.97361,-2.19955 -2.48331,-3.99918 -3.35487,-3.99918 -0.87157,0 -1.96553,-1.2 -2.43104,-2.66666 -0.4655,-1.46667 -1.42914,-2.66667 -2.14144,-2.66667 -0.71228,0 -4.42185,-2.99937 -8.24348,-6.66528 -6.94008,-6.65731 -8.94841,-7.85324 -8.94841,-5.32868 0,2.13009 25.88035,28.35291 26.41112,26.7606 0.26308,-0.78923 -0.31827,-3.2346 -1.29188,-5.43413 z M 140,136.26666 C 140,134.53068 136.95133,132 134.86001,132 c -1.53998,0 -1.44239,0.54983 0.47332,2.66666 2.47893,2.73919 4.66667,3.48927 4.66667,1.6 z M 112.66666,63.818672 c -9.53333,-0.466396 -26.656195,-0.916396 -38.050808,-1 -18.657696,-0.136893 -21.308963,-0.450274 -26.666666,-3.152006 -4.11706,-2.076112 -6.359804,-4.231851 -7.28252,-7 -2.360524,-7.081573 -2.845329,-7.333333 -14.121514,-7.333333 -12.276458,0 -19.1738434,-2.328004 -21.4048665,-7.224567 C 3.309585,34.090815 4.7170795,31.930838 12.274907,27.159792 15.579293,25.073824 16.996316,23.339846 16.485161,22.007801 16.061405,20.90351 14.983478,20 14.089766,20 11.518453,20 6.6666666,14.110789 6.6666666,10.98967 c 0,-3.2437519 4.6312624,-6.9920585 8.6300074,-6.9846859 3.883942,0.00716 11.536046,5.0086672 12.334504,8.0619779 0.890878,3.40672 3.913822,3.316147 6.024189,-0.180496 0.922882,-1.529109 4.491736,-4.2208581 7.93079,-5.9816634 l 6.252824,-3.201464 4.080509,3.4335221 c 3.073256,2.5859741 4.080509,4.5486213 4.080509,7.9509273 0,4.86712 -2.81781,7.523341 -9.666666,9.112325 -5.053846,1.172527 -4.674054,4.662695 1.000038,9.190062 3.745643,2.988654 4.666628,4.650583 4.666628,8.420988 0,7.472728 1.952712,9.855503 8.076703,9.855503 4.31067,0 6.382406,-0.97502 10.953088,-5.154845 8.115262,-7.421295 12.982059,-9.481458 25.853408,-10.944002 12.394062,-1.408309 18.206592,-0.797784 26.450132,2.778224 13.95795,6.054887 31.50083,11.939004 39.43749,13.227868 4.82396,0.78338 16.92772,1.815525 26.89727,2.293656 15.76375,0.756016 18.2066,1.175939 18.74157,3.221649 0.33832,1.293776 -0.0847,3.752975 -0.9401,5.464886 -1.549,3.100064 -1.66484,3.113269 -28.84574,3.288156 -15.00977,0.09657 -28.34637,-0.377686 -29.6369,-1.053914 -1.34832,-0.70651 -5.88559,-0.781202 -10.66667,-0.17559 -4.57613,0.579652 -16.12025,0.672314 -25.65359,0.205918 z m 1.22429,-11.294658 c 4.36996,-1.676913 1.78811,-2.907455 -8.03076,-3.827559 -6.379794,-0.597836 -10.642029,-0.447952 -11.494179,0.404199 -0.916946,0.916945 0.743085,1.631237 5.139805,2.211597 3.571804,0.471471 7.394184,1.049488 8.494184,1.284483 3.5238,0.752793 3.74687,0.750038 5.89095,-0.07272 z"
       id="path231" />
  </g>
</svg>
