<?xml version="1.0" encoding="UTF-8" standalone="no"?>
<!-- Created with Inkscape (http://www.inkscape.org/) -->

<svg
   version="1.1"
   id="svg193"
   width="214.66667"
   height="206.66667"
   viewBox="0 0 214.66667 206.66667"
   xmlns="http://www.w3.org/2000/svg"
   xmlns:svg="http://www.w3.org/2000/svg">
  <defs
     id="defs197" />
  <g
     id="g199">
    <path
       style="fill:#000000;stroke-width:1.33333"
       d="m 74.182861,201.14232 c -1.663439,-0.96656 -7.553636,-1.12646 -17.833575,-0.48416 -16.535488,1.03319 -18.947071,0.24423 -16.056647,-5.25298 2.057879,-3.91382 3.677572,-4.69504 9.781799,-4.7181 6.455336,-0.0244 21.173312,-4.75744 26.139733,-8.40612 4.899737,-3.59969 10.383569,-12.47258 17.890894,-28.94762 3.508726,-7.7 7.479285,-15.24806 8.823465,-16.77344 1.34418,-1.52539 3.58289,-6.00756 4.97492,-9.96036 3.29209,-9.34822 6.56215,-11.93287 15.09727,-11.93287 7.49571,0 8.31082,0.6659 13.87294,11.33333 1.91184,3.66667 3.91678,6.96667 4.45542,7.33334 5.00739,3.40861 23.69499,55.73825 22.13067,61.97101 -1.01337,4.03763 -5.20707,5.39999 -10.22471,3.3216 -2.87161,-1.18945 -4.86974,-1.23693 -7.56837,-0.17984 -2.01667,0.78996 -8.81777,1.79339 -15.11357,2.22984 -9.19939,0.63775 -11.76936,0.40501 -13.08922,-1.18532 -2.56436,-3.08985 2.60009,-7.47873 8.86946,-7.53747 8.39898,-0.0787 21.43596,-4.36377 23.87628,-7.84781 1.86453,-2.66199 1.95092,-3.85991 0.57353,-7.95303 -3.53915,-10.51714 -10.19153,-23.85137 -15.35097,-30.76989 -2.9877,-4.00632 -6.33411,-9.09848 -7.43647,-11.31589 -2.79056,-5.61325 -6.1448,-5.88443 -9.00102,-0.72771 -1.28041,2.31169 -4.57499,7.26044 -7.32128,10.99723 -2.74629,3.73678 -6.29035,9.53985 -7.8757,12.89572 -1.58534,3.35585 -4.749736,8.50156 -7.03198,11.43489 -5.311478,6.82676 -8.709045,14.23055 -11.49713,25.05391 -2.072625,8.04593 -5.761411,10.51553 -11.085739,7.42174 z M 199.29668,70.216804 c -1.4465,-0.980759 -7.40222,-3.748999 -13.23493,-6.151647 -11.63183,-4.791465 -32.28332,-15.136546 -42.72841,-21.404218 -7.87267,-4.724062 -14.98084,-7.994272 -17.37645,-7.994272 -0.9446,0 -5.52133,1.799527 -10.1705,3.998948 -4.64918,2.199422 -9.31311,3.999422 -10.36428,4 -1.05118,5.79e-4 -5.25118,1.167912 -9.333337,2.594074 -23.0869,8.065749 -46.331938,10.282053 -65.422605,6.237736 C 13.76621,47.917203 8.0011744,42.815145 5.8821616,29.563566 5.0961183,24.647922 5.4434481,23.786712 10.180173,18.906574 20.523794,8.2497764 32.640179,5.0198991 63.02852,4.8187338 83.018003,4.6864071 87.642616,5.0746075 98.653696,7.8091912 c 6.959534,1.7283884 16.092424,4.8783888 20.295314,6.9999998 8.60327,4.342916 13.71524,4.748071 22.27978,1.765809 6.77388,-2.35873 42.27011,-3.395794 55.36447,-1.617538 10.65269,1.44667 14.07341,3.822106 14.07341,9.772944 0,6.267909 -5.04369,8.537439 -11.80635,5.31255 -6.64482,-3.168694 -24.55906,-5.169542 -38.19365,-4.265864 -17.86731,1.184216 -22.40468,3.208284 -14.33333,6.393922 C 148.35,32.966962 150.9,34.16525 152,34.833875 c 4.32179,2.626967 31.88854,15.774242 41.55734,19.819738 14.73726,6.166177 18.53361,10.398303 13.68076,15.251149 -2.56263,2.562635 -4.50924,2.639123 -7.94142,0.312042 z M 77.333335,39.905094 c 1.833333,-0.669815 7.984909,-2.366385 13.670168,-3.770159 9.955337,-2.458117 22.329837,-8.385531 22.329837,-10.696045 0,-1.011843 -2.23948,-2.083099 -10.00001,-4.78351 -7.481151,-2.603198 -52.882079,-5.390846 -59.092941,-3.628346 -2.69888,0.765881 -8.319576,2.366958 -12.490437,3.557952 -7.871104,2.247601 -14.416618,7.970729 -14.416618,12.605297 0,2.904123 11.525037,7.824478 20,8.538548 9.215272,0.776447 36.257808,-0.456516 40.000001,-1.823737 z"
       id="path370" />
  </g>
</svg>
