<?xml version="1.0" encoding="UTF-8" standalone="no"?>
<!-- Created with Inkscape (http://www.inkscape.org/) -->

<svg
   version="1.1"
   id="svg183"
   width="220"
   height="204"
   viewBox="0 0 220 204"
   xmlns="http://www.w3.org/2000/svg"
   xmlns:svg="http://www.w3.org/2000/svg">
  <defs
     id="defs187" />
  <g
     id="g189">
    <path
       style="fill:#000000;stroke-width:1.33333"
       d="M 5.3323184,195.99811 C 3.5420761,192.653 3.4157893,150.71755 5.1906131,148.94272 c 0.6331566,-0.63316 2.8742874,-0.95429 4.9802909,-0.71363 L 14,148.66667 V 173.33333 198 l -3.576989,0.41324 c -2.5477801,0.29435 -4.012527,-0.40056 -5.0906926,-2.41513 z m 96.2150316,-2.06084 c -2.167823,-4.75787 -2.122526,-47.49543 0.0526,-49.6706 0.88,-0.88 3.48369,-1.6 5.78598,-1.6 6.36691,0 7.28069,3.52208 7.28069,28.06273 0,19.49283 -0.22288,21.49348 -2.66667,23.93727 -3.77794,3.77793 -8.55071,3.44488 -10.45265,-0.7294 z m 101.36649,1.15097 c -3.59136,-1.43676 -4.31111,-7.50637 -3.40459,-28.71044 0.96703,-22.6194 1.71806,-25.04447 7.75606,-25.04447 5.82458,0 6.5207,2.70511 7.04085,27.36079 l 0.48883,23.17104 -3.99795,2.06743 c -4.19951,2.17164 -5.03679,2.29438 -7.8832,1.15565 z M 153.45889,127 c -3.12205,-6.01479 -19.82696,-27 -21.49288,-27 -0.64877,0 -6.08322,-5.85 -12.07655,-13 C 108.90018,73.889873 76.610237,40 75.108319,40 74.662763,40 71.721197,37.75 68.571509,35 58.900669,26.556368 49.463937,19.961217 43.229021,17.28862 36.561908,14.430761 35.099507,12.173944 37.277573,8.1041876 39.301771,4.3219423 43.409405,4.6640487 51.333333,9.2748284 55,11.40839 60.4,14.480409 63.333333,16.101537 c 2.933334,1.621127 9.656238,5.86147 14.939787,9.422984 5.283549,3.561514 10.083549,6.51569 10.666667,6.564836 1.133701,0.09555 11.123703,7.32301 24.181253,17.494379 4.41319,3.437721 9.71635,7.148651 11.7848,8.246508 3.20961,1.70354 36.86467,34.330747 48.41839,46.939656 3.2859,3.586 4.63869,7.98302 4.15038,13.49018 C 177.23263,120.98925 162.61853,132 159.23821,132 c -2.32902,0 -3.88092,-1.34262 -5.77932,-5 z m 10.3257,-13.53919 c 0.35849,-2.52519 -2.37756,-6.0171 -13.30951,-16.986382 -7.56843,-7.594268 -14.41767,-13.807761 -15.22056,-13.807761 -0.80288,0 -4.7136,-3.320284 -8.69048,-7.378408 C 113.38959,61.844696 112,60.831261 112,64.666667 c 0,1.1 0.54914,2 1.22031,2 0.67117,0 2.91922,1.8 4.99567,4 2.07645,2.2 4.1758,4 4.66522,4 1.11076,0 10.45213,9.000364 10.45213,10.070569 0,0.685237 10.10812,13.475436 12.0622,15.262764 0.40087,0.36667 3.6109,4.4491 7.13339,9.07208 6.71103,8.80767 10.42287,10.25495 11.25567,4.38873 z"
       id="path509" />
  </g>
</svg>
