<?xml version="1.0" encoding="UTF-8" standalone="no"?>
<!-- Created with Inkscape (http://www.inkscape.org/) -->

<svg
   version="1.1"
   id="svg173"
   width="216"
   height="210.66667"
   viewBox="0 0 216 210.66667"
   xmlns="http://www.w3.org/2000/svg"
   xmlns:svg="http://www.w3.org/2000/svg">
  <defs
     id="defs177" />
  <g
     id="g179">
    <path
       style="fill:#000000;stroke-width:1.33333"
       d="m 72.570661,203.89502 c -1.047197,-1.15775 -1.903994,-4.49975 -1.903994,-7.42667 0,-8.96801 12.281749,-20.95392 24.972812,-24.37127 10.087771,-2.71636 25.436001,1.11776 36.615541,9.14687 7.33866,5.27059 9.69325,9.94069 9.23629,18.31932 -0.26134,4.79173 -6.78051,5.84475 -38.08927,6.15244 -24.903095,0.24475 -29.192261,-0.008 -30.831379,-1.82069 z m 53.762669,-6.54348 c 6.27191,-0.0163 7,-0.31687 7,-2.88968 0,-3.68639 -9.53956,-12.54974 -15.69294,-14.58054 -7.52703,-2.48414 -21.426893,-0.89124 -27.904346,3.1978 C 83.648923,186.92175 80,191.36084 80,194.92351 c 0,2.07313 1.875163,2.37871 17,2.77035 9.35,0.24209 18.2,0.26821 19.66667,0.058 1.46666,-0.21019 5.81666,-0.39035 9.66666,-0.40036 z M 54.085059,140.3422 C 14.346217,140.00999 8.5423192,139.69744 6.4183913,137.77532 4.3840193,135.93423 4.003242,133.44938 4.0204171,122.12668 c 0.011227,-7.403 0.4612293,-14.074 1,-14.82442 C 5.6745201,106.39119 17.961492,106.23761 42,106.84003 c 19.8,0.49621 38.282424,0.51019 41.072052,0.0311 L 88.144104,106 83.405385,99.337598 c -5.317433,-7.476047 -5.636962,-8.915543 -2.64348,-11.909025 4.40746,-4.407461 12.571428,-0.85536 12.571428,5.469766 0,1.4786 1.213124,3.786224 2.695831,5.128055 2.552473,2.309956 2.944843,2.320946 7.378566,0.20665 6.41367,-3.058464 8.69399,-2.815929 11.95305,1.271328 2.12054,2.659408 3.49894,3.280718 5.71675,2.576818 1.60736,-0.51016 2.92247,-1.43328 2.92247,-2.05138 0,-0.618106 1.61858,-3.596003 3.59685,-6.617553 C 133.22778,84.811721 142,84.435183 142,92.794017 c 0,2.867861 -0.92321,4.279201 -3.65595,5.588966 -2.01076,0.963736 -4.3227,2.998127 -5.13765,4.520867 -2.25708,4.21739 0.73524,5.34822 11.46027,4.331 15.38157,-1.45888 64.76936,-1.38518 65.99769,0.0985 1.58312,1.91218 1.88251,23.25249 0.39283,28 l -1.25514,4 -51.23436,0.0671 c -28.1789,0.0369 -53.03436,0.34895 -55.23436,0.69354 -2.2,0.34459 -24.361721,0.45629 -49.248271,0.24825 z M 152,130.20283 200.66667,130 v -5.31071 c 0,-5.12201 -0.18951,-5.35015 -5.33334,-6.42033 -7.57497,-1.57599 -25.14792,-3.3824 -26.31418,-2.70497 -0.53948,0.31335 -33.76902,0.52957 -73.843429,0.48048 -79.549028,-0.0974 -81.06117,0.03 -82.583488,6.96109 -0.594062,2.70475 -0.146854,4.60994 1.51249,6.44349 2.275082,2.51394 3.846702,2.57503 45.792276,1.77994 C 83.786983,130.77616 125.23333,130.31438 152,130.20283 Z M 30.088559,38.759517 C 26.194279,35.673897 20.360221,32.663465 15.789185,31.380898 7.2940313,28.997279 2.7079609,24.666611 5.6711815,21.826376 6.5853651,20.950135 11.233333,18.615338 16,16.637939 20.766667,14.66054 27.034868,11.308068 29.929337,9.1880007 c 2.894468,-2.120067 6.023591,-3.8546673 6.953604,-3.8546673 0.930015,0 3.838296,1.8854072 6.462847,4.1897937 8.420684,7.3934589 19.853809,8.1370319 44.486689,2.8932689 15.878743,-3.3802136 18.915253,-3.5875299 53.500853,-3.6527549 30.39866,-0.057329 38.4901,0.3352678 47.33334,2.2966169 16.81393,3.72917 20.66666,6.152182 20.66666,12.9974 0,1.793621 -1.42166,2.847805 -5,3.707564 -29.35569,7.053228 -37.47098,8.484453 -53.66666,9.464728 -9.9,0.599217 -21.3,0.611415 -25.33334,0.02711 C 121.3,36.672747 114.20873,36.150875 109.57496,36.097339 104.94119,36.043806 95.341189,34.563162 88.241627,32.807023 67.043779,27.563552 62.066359,27.312604 55.55428,31.159019 c -3.054855,1.804375 -7.62198,5.43175 -10.149169,8.060832 -2.52719,2.629083 -5.52719,4.773774 -6.666667,4.76598 -1.139477,-0.0077 -5.031927,-2.359636 -8.649885,-5.226314 z M 42.73288,27.299094 c 4.649291,-2.404243 4.822152,-3.279142 1.251879,-6.336106 -3.357452,-2.87474 -8.635834,-2.838092 -14.554562,0.101054 -5.883972,2.921885 -6.375014,4.716712 -1.786189,6.528758 5.374236,2.122192 10.61428,2.020194 15.088872,-0.293708 z m 120.44884,-0.616522 c 11.95676,-0.891221 18.20259,-1.949581 20.53877,-3.48031 2.84346,-1.863096 3.03887,-2.377715 1.27726,-3.36356 C 179.97211,17.026211 161.20369,15.729822 138,16.59243 c -26.832,0.997493 -40.550323,2.562841 -45.586868,5.201754 -3.301029,1.729584 -3.185739,1.817462 4.432172,3.37828 8.532546,1.748218 42.195526,4.144783 46.488026,3.309619 1.46667,-0.28536 10.39844,-1.09514 19.84839,-1.799511 z"
       id="path648" />
  </g>
</svg>
