<?xml version="1.0" encoding="UTF-8" standalone="no"?>
<!-- Created with Inkscape (http://www.inkscape.org/) -->

<svg
   version="1.1"
   id="svg83"
   width="217.33333"
   height="198.66667"
   viewBox="0 0 217.33333 198.66667"
   xmlns="http://www.w3.org/2000/svg"
   xmlns:svg="http://www.w3.org/2000/svg">
  <defs
     id="defs87" />
  <g
     id="g89">
    <path
       style="fill:#000000;stroke-width:1.33333"
       d="m 108.70525,189.84811 c -2.79651,-2.79651 -2.55484,-6.30093 0.6335,-9.18635 3.60268,-3.26037 9.32791,-0.92001 9.32791,3.81307 0,5.24181 -6.55633,8.77836 -9.96141,5.37328 z m -31.462181,-2.01676 c -2.205409,-4.12085 0.371044,-9.16468 4.681432,-9.16468 4.553472,0 6.947783,4.54543 4.652967,8.83333 -2.146021,4.00988 -7.268395,4.19171 -9.334399,0.33135 z m 58.803831,0.25631 c -2.08065,-3.88776 -1.67297,-6.54891 1.28643,-8.39708 C 138.8,178.77463 140,177.26954 140,176.34594 c 0,-2.13187 -45.733132,-2.28432 -80.000001,-0.26667 -27.603119,1.62528 -41.877694,0.70971 -45.506181,-2.91879 -4.74954,-4.74953 -2.466904,-18.80962 3.353636,-20.65698 1.526856,-0.48462 43.585801,-0.98431 93.464326,-1.11043 86.28726,-0.2182 90.89516,-0.1088 94.95271,2.255 4.58961,2.67373 5.46713,4.44332 5.79464,11.68527 0.34477,7.62378 0.21397,7.81558 -6.738,9.8801 -7.13895,2.12004 -18.83945,2.45552 -44.9878,1.28992 -17.33411,-0.77269 -17.57261,-0.68208 -14.71461,5.59054 1.43829,3.15669 1.2732,3.83248 -1.48104,6.06273 -3.95207,3.20019 -6.35212,3.17972 -8.09078,-0.0689 z m 56.79171,-21.93843 c 3.98281,-1.01603 6.49472,-2.39664 6.49472,-3.56969 0,-2.69844 -30.20431,-3.84308 -83.33333,-3.15806 -94.757383,1.22176 -94.902946,1.23167 -92.948088,6.32595 0.633101,1.64983 12.417431,1.93615 82.015658,1.99264 60.57755,0.0492 82.93033,-0.35596 87.77104,-1.59084 z M 24.34781,64.289801 9.3622865,63.912936 8.4020103,60.289801 C 7.1274366,55.48082 7.0629751,17.629287 8.3217265,13.147457 8.9364989,10.958538 10.556785,9.3153547 12.608104,8.8005064 14.421996,8.3452487 59.031336,7.6518856 111.73997,7.2596995 c 79.77716,-0.5935931 96.0858,-0.4095281 97.33743,1.0985849 0.93502,1.1266356 1.75062,10.9506816 2.15701,25.9815376 0.59991,22.189155 0.44919,24.422168 -1.83924,27.248366 l -2.49272,3.07848 h -83.78456 c -46.081505,0 -90.528042,-0.16959 -98.77008,-0.376867 z M 93.333332,51.761332 c 0,-3.491554 -1.700351,-8.913854 -7.242139,-23.094665 L 81.922716,18 59.84775,16.82276 C 33.670274,15.426736 17.841862,16.499378 16.182666,19.781806 15.565978,21.001812 15.346549,29.35 15.695046,38.333334 l 0.63363,16.333334 h 38.502328 38.502328 z m 23.816128,2.02587 c 2.79029,-0.74691 3.07077,-1.429681 2.4595,-5.987039 -0.37947,-2.82919 -2.79572,-9.791624 -5.36943,-15.472073 -2.57371,-5.68045 -5.01165,-11.37809 -5.41766,-12.661423 -0.76427,-2.415805 -5.39766,-3.035913 -11.155205,-1.492952 -4.515293,1.210052 -4.234412,3.215516 2.776825,19.826286 6.44383,15.266475 9.13844,17.812891 16.70597,15.787201 z m 82.90902,-1.312344 c 1.0905,-1.090517 1.20104,-6.10352 0.39473,-17.903352 l -1.11988,-16.388738 -3.84303,-1.02324 C 190.79346,15.908958 135.35734,15.639658 126.42904,16.82404 121.29917,17.50454 120,18.189166 120,20.211951 c 0,2.200864 4.18898,13.563891 8.03216,21.78805 0.68538,1.466666 1.8498,4.332773 2.5876,6.369125 0.7378,2.036352 2.70018,4.219823 4.36085,4.852158 4.62827,1.762317 63.2414,1.090041 65.07787,-0.746426 z"
       id="path787" />
  </g>
</svg>
