<?xml version="1.0" encoding="UTF-8" standalone="no"?>
<!-- Created with Inkscape (http://www.inkscape.org/) -->

<svg
   version="1.1"
   id="svg205"
   width="85.333336"
   height="201.33333"
   viewBox="0 0 85.333336 201.33333"
   xmlns="http://www.w3.org/2000/svg"
   xmlns:svg="http://www.w3.org/2000/svg">
  <defs
     id="defs209" />
  <g
     id="g211">
    <path
       style="fill:#000000;stroke-width:1.33333"
       d="M 64.890934,197.11225 C 61.325177,195.11676 52.3688,185.30557 47.748139,178.33333 44.789799,173.86941 42.657211,172 40.523208,172 c -3.192786,0 -13.126912,7.71324 -19.856541,15.4174 -6.882835,7.87953 -17.6440084,8.63717 -13.531385,0.95266 0.8699323,-1.62549 7.145805,-8.14742 13.946384,-14.49321 6.800579,-6.34579 12.187062,-12.07067 11.969962,-12.72197 -0.451228,-1.35368 -7.742595,-9.92894 -13.860151,-16.30068 -5.503149,-5.73182 -7.517694,-9.72591 -6.508825,-12.90457 1.181006,-3.72102 4.288578,-3.24008 8.419913,1.3031 1.960256,2.15567 7.126499,7.85567 11.480537,12.66667 4.354039,4.811 8.758177,8.74726 9.786973,8.74726 1.028797,0 3.450012,-1.8 5.380478,-4 1.930467,-2.2 4.171741,-4 4.980609,-4 0.808868,0 2.855292,-1.47386 4.547608,-3.27525 4.922751,-5.24003 13.149152,-10.435 15.248476,-9.62941 2.936204,1.12673 1.11118,5.74942 -4.193619,10.62224 -13.269284,12.18874 -19.000292,18.25176 -19.000292,20.10104 0,1.12728 4.281144,6.42925 9.513654,11.78216 5.23251,5.3529 10.382266,11.05318 11.443904,12.66728 3.402936,5.17376 -0.420659,10.96409 -5.399959,8.17753 z M 9.3333336,41.481361 C 4.5155755,40.152395 4.30072,33.967757 8.7294732,24.099182 12.384324,15.95509 15.787304,12.874942 27.333334,7.2602163 34.537765,3.7567695 53.260951,3.7099286 59.810241,7.1789667 66.202699,10.564935 75.515376,20.284026 78.076442,26.242328 85.335968,43.131547 86.201253,42.697869 45.571429,42.533759 27.47381,42.460661 11.166667,41.987082 9.3333336,41.481361 Z M 55.000002,33.351539 c 12.443265,-0.01581 14.333334,-0.309296 14.333334,-2.225685 0,-3.941262 -6.669514,-11.082374 -13.657922,-14.623669 -8.181286,-4.145771 -16.741422,-3.938731 -26.679901,0.645295 -6.720992,3.099992 -14.499123,12.552232 -12.20833,14.835963 1.250535,1.24668 16.480939,2.540778 21.212818,1.802411 1.466667,-0.22886 9.116667,-0.424301 17.000001,-0.434315 z"
       id="path233" />
  </g>
</svg>
