<?xml version="1.0" encoding="UTF-8" standalone="no"?>
<!-- Created with Inkscape (http://www.inkscape.org/) -->

<svg
   version="1.1"
   id="svg195"
   width="104"
   height="201.33333"
   viewBox="0 0 104 201.33333"
   xmlns="http://www.w3.org/2000/svg"
   xmlns:svg="http://www.w3.org/2000/svg">
  <defs
     id="defs199" />
  <g
     id="g201">
    <path
       style="fill:#000000;stroke-width:1.33333"
       d="m 10.80599,192.26033 c -1.884734,-3.52167 -2.727942,-71.9119 -0.9139437,-74.1274 2.2716497,-2.77445 5.6442147,-3.43267 8.1605497,-1.59268 1.969775,1.44033 2.376284,4.53364 2.747696,20.90841 1.126152,49.64983 1.042965,54.74442 -0.914121,55.98323 -3.125727,1.97857 -7.710896,1.38697 -9.080181,-1.17156 z m 67.999999,0 c -1.884733,-3.52167 -2.727941,-71.9119 -0.913942,-74.1274 2.271649,-2.77445 5.644214,-3.43267 8.160549,-1.59268 1.969775,1.44033 2.376284,4.53364 2.747696,20.90841 1.126152,49.64983 1.042965,54.74442 -0.914121,55.98323 -3.125727,1.97857 -7.710896,1.38697 -9.080182,-1.17156 z M 45.333333,94.367321 c -6.891542,-1.686031 -12,-3.87396 -12,-5.139545 0,-0.613452 -2.713698,-2.7057 -6.030441,-4.649441 -3.316743,-1.94374 -6.711316,-4.819034 -7.543495,-6.389539 -0.83218,-1.570505 -3.068481,-5.255464 -4.969558,-8.188797 -4.368918,-6.741172 -6.6037031,-19.110284 -5.0588909,-28 C 11.181789,33.651047 17.854385,20.92054 23.087637,16.517048 25.274657,14.676792 30.601665,11.385339 34.925433,9.2027081 41.615096,5.8257772 44.417416,5.2119202 53.726748,5.0842198 63.535145,4.9496734 65.532596,5.3725264 73.038759,9.1725016 88.991408,17.248488 98.349544,31.036049 99.561625,48.249261 100.56566,62.507936 96.771308,71.104413 84.356113,82.698836 73.797016,92.559869 69.434829,94.54078 56.904088,95.165068 53.10684,95.354248 47.9,94.995262 45.333333,94.367321 Z M 69.754321,82.47374 C 81.498995,76.318763 89.928936,63.507294 89.806031,51.999999 89.705655,42.601906 87.890528,34.980895 85.165067,32.514387 83.790947,31.270826 82.66438,29.596358 82.661587,28.793349 82.658787,27.990341 79.208792,24.646168 74.99492,21.361856 67.694548,15.67191 66.856307,15.367124 57.215296,14.89712 c -8.134249,-0.396548 -11.309833,0.04967 -16.196624,2.275856 -14.408543,6.56385 -21.48624,17.437629 -21.513804,33.052611 -0.01467,8.309457 0.470347,10.261977 3.71056,14.937608 6.790423,9.798584 12.144183,15.159886 16.825637,16.849344 5.934523,2.141666 25.914883,2.451797 29.713256,0.461201 z M 43.644577,69.666666 C 35.828732,56.359126 29.333333,42.830394 29.333333,39.858953 c 0,-2.799631 3.456858,-6.52562 6.054267,-6.52562 1.915316,0 9.821712,11.198437 14.591884,20.667605 1.477951,2.933849 4.283448,7.433849 6.234439,10 4.857521,6.389128 5.32895,10.265711 1.690838,13.903822 -4.575086,4.575088 -7.843725,2.686799 -14.260184,-8.238094 z m 28.682219,-6 C 69.969875,60.719902 56.143901,34.587281 54.421053,29.822826 c -2.026862,-5.605186 -0.323957,-9.15616 4.390928,-9.15616 2.490275,0 3.93646,1.474994 6.607675,6.739303 5.13868,10.127076 12.075331,22.19613 14.813431,25.773842 3.57167,4.666887 3.152378,9.279571 -0.986554,10.853189 -4.43826,1.687424 -5.31416,1.641054 -6.919737,-0.366334 z"
       id="path372" />
  </g>
</svg>
