<?xml version="1.0" encoding="UTF-8" standalone="no"?>
<!-- Created with Inkscape (http://www.inkscape.org/) -->

<svg
   version="1.1"
   id="svg185"
   width="218.66667"
   height="202.66667"
   viewBox="0 0 218.66667 202.66667"
   xmlns="http://www.w3.org/2000/svg"
   xmlns:svg="http://www.w3.org/2000/svg">
  <defs
     id="defs189" />
  <g
     id="g191">
    <path
       style="fill:#000000;stroke-width:1.33333"
       d="m 14.666667,197.32807 c -3.3,-0.40181 -6.7500002,-1.20043 -7.6666669,-1.77468 -4.8206647,-3.01996 1.9453984,-24.88433 9.3880429,-30.33724 0.588435,-0.43112 2.091848,-2.81916 3.340919,-5.30676 4.269937,-8.50381 15.029035,-13.34239 30.179124,-13.57213 14.330112,-0.21731 26.824214,7.50009 35.030518,21.63778 1.923473,3.31374 3.926205,6.32496 4.450516,6.69163 0.524311,0.36667 1.258137,3.06667 1.630727,6 0.372589,2.93333 1.074278,6.53333 1.559309,8 0.508799,1.53853 0.06908,3.77449 -1.039399,5.28535 -1.76214,2.40177 -3.83811,2.64878 -25.063848,2.98222 C 53.747493,197.1342 38.233334,197.46899 32,197.67822 c -6.233333,0.20924 -14.033333,0.0517 -17.333333,-0.35015 z M 61.579013,185.18106 C 62.814136,184.53148 67.464136,184 71.912346,184 c 7.198766,0 8.087655,-0.29308 8.087655,-2.66666 0,-1.46667 -0.642857,-2.66667 -1.428572,-2.66667 -2.796052,0 -5.238095,-3.87727 -5.238095,-8.31659 0,-5.42089 -1.642514,-7.62326 -8.666666,-11.62074 -7.548783,-4.29604 -23.088266,-4.5514 -30.666667,-0.50394 -7.727402,4.12704 -10.902454,8.23138 -11.687281,15.10794 -0.376632,3.3 -1.072309,6.93806 -1.54595,8.08458 -1.505727,3.64484 9.649864,6.07078 25.141044,5.46724 7.384036,-0.28766 14.436075,-1.05452 15.671199,-1.7041 z m 65.208267,10.29761 c -2.49138,-3.00193 -2.14083,-8.64312 1.20983,-19.46932 3.40989,-11.01756 11.24669,-20.8756 20.24459,-25.46599 12.20009,-6.22401 27.52602,-5.54369 41.7583,1.85366 13.78104,7.16284 27.19738,35.0673 20.65204,42.95394 -2.03141,2.44771 -14.71517,1.02968 -16.86494,-1.88548 -1.39144,-1.88682 -1.82158,-1.84757 -4.29623,0.39196 -2.46472,2.23054 -5.77535,2.5454 -31.91327,3.0352 -24.50636,0.45923 -29.42308,0.23344 -30.79032,-1.41397 z m 49.14628,-8.93036 c 6.93012,0.15999 13.06251,0.57659 13.62751,0.92577 2.06352,1.27532 9.1056,-3.53657 9.1056,-6.22189 0,-5.44375 -10.08448,-19.56765 -16.19833,-22.68671 -6.95472,-3.54802 -20.54176,-3.48473 -28.23503,0.13147 -8.80492,4.13881 -16.95476,13.15291 -17.83669,19.72823 -1.29451,9.65126 -0.83715,9.94062 13.93916,8.81889 7.14865,-0.54268 18.66766,-0.8558 25.59778,-0.69581 z M 31.585282,62.514324 C 29.71705,61.427616 29.373784,60.184476 30.068522,57.02136 30.835259,53.530428 30.634207,53.060486 28.692706,53.80551 23.217467,55.906557 20.493966,55.990412 18,54.13473 c -2.485021,-1.849025 -2.527057,-2.239072 -0.617124,-5.726123 1.781619,-3.25278 3.374094,-3.986346 12.181994,-5.61158 9.072655,-1.674086 10.836912,-1.639222 16.867653,0.333334 7.167959,2.34452 22.740454,2.858765 40.671122,1.343069 11.662175,-0.985815 10.826171,0.11372 12.905955,-16.97416 2.40932,-19.7954193 8.90561,-27.68696079 18.89114,-22.9485174 7.52143,3.5691531 9.83954,9.3796894 11.21683,28.1159144 0.55374,7.532879 1.41706,11.159996 2.93854,12.34584 1.51163,1.178158 7.34453,1.623695 19.54917,1.493236 14.76759,-0.157856 18.20022,-0.603737 22.72806,-2.952257 7.8052,-4.048439 19.17662,-3.6838 28.85237,0.925184 7.96468,3.793925 10.06907,7.084842 7.11433,11.12568 -1.56465,2.139792 -2.22438,2.205235 -6.1923,0.614252 -9.08072,-3.64102 -9.19516,-3.624305 -8.80152,1.285463 0.34757,4.335317 0.17508,4.511121 -4.82828,4.921008 -2.85382,0.233791 -8.25382,-0.584989 -12,-1.819509 C 173.0356,58.48256 155.70311,57.906192 131.53817,59.011393 121.89771,59.452306 120.61567,57.209744 119.5924,38.115681 118.74867,22.371996 117.3928,17.333334 114,17.333334 c -3.4917,0 -5.00555,5.662146 -5.49875,20.566541 -0.67607,20.431159 1.00238,19.433459 -32.693286,19.433459 -25.691138,0 -26.779253,0.109442 -33.141297,3.333334 -7.393014,3.746324 -7.722744,3.801301 -11.081385,1.847656 z"
       id="path591" />
  </g>
</svg>
