<?xml version="1.0" encoding="UTF-8" standalone="no"?>
<!-- Created with Inkscape (http://www.inkscape.org/) -->

<svg
   version="1.1"
   id="svg175"
   width="217.33333"
   height="208"
   viewBox="0 0 217.33333 208"
   xmlns="http://www.w3.org/2000/svg"
   xmlns:svg="http://www.w3.org/2000/svg">
  <defs
     id="defs179" />
  <g
     id="g181">
    <path
       style="fill:#000000;stroke-width:1.33333"
       d="M 91.999999,200.07817 C 67.935231,197.25311 36.278275,190.32741 28.096232,186.09775 26.20997,185.12265 23.166666,183.73956 21.333333,183.0242 10.38967,178.754 5.3191041,175.82293 5.1753565,173.684 c -0.4802264,-7.14568 2.2199007,-9.81531 13.1489165,-13.00044 4.221649,-1.23035 9.611855,-3.07115 11.978235,-4.09067 16.932085,-7.29497 72.623392,-13.60718 98.364152,-11.14889 16.20187,1.54731 29.1627,3.64311 35.5623,5.75052 3.17406,1.04523 8.28649,2.30096 11.36094,2.79052 3.07446,0.48955 6.29792,1.74319 7.16327,2.78585 0.86533,1.04268 2.87301,1.89578 4.46149,1.89578 1.5885,0 5.17363,1.1652 7.96698,2.58933 2.79334,1.42413 6.804,2.96824 8.91254,3.43136 2.10855,0.46311 5.27498,2.55485 7.03651,4.64831 4.55393,5.41205 3.39475,9.61625 -3.58592,13.00552 -8.67148,4.21021 -22.40991,8.53462 -24.52972,7.72117 -1.05728,-0.40572 -3.51819,0.15636 -5.46869,1.24907 -1.9505,1.09269 -11.34636,3.54868 -20.8797,5.45774 -18.69362,3.74343 -48.13373,5.24988 -64.666661,3.309 z m 51.333331,-13.41172 c 23.47585,-4.43446 30.29437,-5.47785 33.60608,-5.14245 2.04999,0.20763 5.82725,-0.60655 8.39392,-1.80925 2.56667,-1.20271 5.71667,-2.51171 7,-2.9089 4.11619,-1.27394 2.51791,-3.53554 -4.89785,-6.9306 -7.3668,-3.37262 -14.70128,-4.98172 -45.43548,-9.96796 -14.63428,-2.37422 -20.55144,-2.68152 -38,-1.97338 -28.357174,1.15084 -42.14462,2.57638 -50.000001,5.16969 -3.666666,1.21048 -8.287392,2.20736 -10.26828,2.21531 -3.480892,0.014 -15.248945,2.77316 -20.099083,4.71256 -3.695871,1.47784 -0.499214,4.15248 6.04853,5.06078 3.108692,0.43123 11.052167,2.53002 17.652167,4.66395 10.98703,3.55237 18.145403,4.7438 49.333332,8.21096 11.868885,1.31947 36.417925,0.63523 46.666665,-1.30071 z M 65.763987,57.571428 c -1.846083,-1.843901 -2.179404,-4.210899 -1.784132,-12.669577 0.459569,-9.834659 3.691519,-14.80364 20.219014,-31.085863 5.131484,-5.0553308 6.356559,-5.5918492 14.629784,-6.4070719 13.428647,-1.323225 18.597637,0.024876 31.589747,8.2387889 9.2274,5.833771 18.92596,20.653076 21.10697,32.25124 1.10699,5.886715 -2.44421,9.19168 -9.03583,8.40929 -6.87968,-0.816583 -9.32259,-0.659834 -15.82288,1.015264 -8.96808,2.311044 -58.634692,2.513232 -60.902673,0.247929 z M 127.53704,44 c 2.50566,-2.2 5.43487,-4 6.50936,-4 3.07073,0 2.28426,-3.721864 -1.27997,-6.057241 -1.77846,-1.165294 -3.85001,-3.887038 -4.60344,-6.04832 -0.75343,-2.161283 -2.44832,-4.252362 -3.76643,-4.646842 -1.31811,-0.39448 -4.09519,-1.586568 -6.17128,-2.649084 -5.89053,-3.014688 -21.035396,-2.543961 -26.756613,0.831639 -2.576068,1.519917 -5.00882,3.769917 -5.406116,5 -0.397296,1.230083 -2.414039,3.195556 -4.481651,4.367719 -3.276352,1.857417 -3.685616,2.762312 -3.185772,7.043841 0.696555,5.966491 6.146249,9.50874 12.766847,8.298327 2.294246,-0.419447 5.071357,-0.181735 6.171357,0.528249 1.1,0.709983 7.320788,1.300065 13.823978,1.311295 11.2499,0.01943 12.04517,-0.173794 16.37973,-3.979583 z"
       id="path730" />
  </g>
</svg>
