<?xml version="1.0" encoding="UTF-8" standalone="no"?>
<!-- Created with Inkscape (http://www.inkscape.org/) -->

<svg
   version="1.1"
   id="svg185"
   width="100"
   height="93.333336"
   viewBox="0 0 100 93.333336"
   xmlns="http://www.w3.org/2000/svg"
   xmlns:svg="http://www.w3.org/2000/svg">
  <defs
     id="defs189" />
  <g
     id="g191">
    <path
       style="fill:#000000;stroke-width:1.33333"
       d="M 33.561848,86.38852 C 23.318247,82.952862 15.628241,75.927501 10.196397,65.042534 6.9706419,58.578387 6.3791983,55.742682 6.3032984,46.376881 6.2238409,36.572088 6.6737483,34.435976 10.314246,27.333334 17.779844,12.767889 28.949331,5.6501582 48.421876,3.0493298 54.21234,2.275933 62.767427,4.3583933 73.093424,9.054824 c 10.578103,4.811092 17.163568,14.753493 20.278924,30.616089 1.377388,7.013303 1.203097,8.566044 -2.057377,18.329089 -1.959239,5.866666 -4.67817,12.466667 -6.042068,14.666667 C 76.489857,86.833913 53.264844,92.996816 33.561848,86.38852 Z M 29.536221,69.132179 C 23.534793,63.154876 18.265459,58.623431 17.826591,59.0623 c -1.144682,1.144682 12.653856,16.669749 16.741128,18.835848 6.65158,3.525084 5.773924,1.996016 -5.031498,-8.765969 z m 27.76552,9.867823 C 57.267604,77.919398 42.274328,62.322206 26.895568,47.369095 c -7.968756,-7.748199 -9.562235,-8.804849 -9.562235,-6.340798 0,1.695223 2.782255,5.946616 6.520934,9.96424 3.586513,3.854106 9.136513,9.822593 12.333333,13.263305 9.956381,10.715973 21.235715,18.592415 21.114141,14.74416 z m 13.364926,-6.426841 c 0,-1.15143 -2.745311,-4.60143 -6.100691,-7.666667 C 61.210596,61.841256 50.958945,51.983335 41.784531,43.000001 32.610115,34.016668 24.555425,26.666667 23.885221,26.666667 c -4.291953,0 1.44091,7.305457 20.664746,26.333335 20.611352,20.401251 26.1167,24.527234 26.1167,19.573159 z M 80,62.58497 C 80,61.217804 58.620332,38.292722 52.159305,32.73183 50.413591,31.229325 46.151367,27.450001 42.687699,24.333334 37.167637,19.366291 30.666667,16.823414 30.666667,19.631266 c 0,0.530528 10.05,10.713248 22.333333,22.628266 20.015452,19.41529 27,24.673215 27,20.325438 z M 78.453972,41.962928 c -2.449684,-2.352823 -9.805437,-9.757 -16.346117,-16.453727 -6.54068,-6.696727 -12.99068,-12.175867 -14.333334,-12.175867 -1.342653,0 -2.441188,0.45724 -2.441188,1.016089 0,0.558848 8.25,9.37198 18.333334,19.584735 15.972209,16.177218 18.3918,18.16541 18.787305,15.437639 0.315519,-2.176105 -0.904411,-4.435681 -4,-7.408869 z M 77.860908,24.602825 c -3.627205,-4.755511 -8.185049,-8.056461 -9.419548,-6.821963 -0.966169,0.966171 9.243755,11.310079 11.293161,11.441362 1.029948,0.06597 0.268874,-1.810454 -1.873613,-4.619399 z"
       id="path511" />
  </g>
</svg>
