<?xml version="1.0" encoding="UTF-8" standalone="no"?>
<!-- Created with Inkscape (http://www.inkscape.org/) -->

<svg
   version="1.1"
   id="svg165"
   width="108"
   height="209.33333"
   viewBox="0 0 108 209.33333"
   xmlns="http://www.w3.org/2000/svg"
   xmlns:svg="http://www.w3.org/2000/svg">
  <defs
     id="defs169" />
  <g
     id="g171">
    <path
       style="fill:#000000;stroke-width:1.33333"
       d="m 91.439827,204.1723 c -0.394654,-0.63856 -3.580063,-1.48694 -7.07869,-1.88532 -8.411441,-0.95774 -25.916777,-4.84208 -27.652481,-6.13592 -0.756427,-0.56386 -4.266715,-2.09396 -7.800639,-3.40021 -15.147518,-5.599 -34.34586,-26.9794 -36.374758,-40.50905 -1.432582,-9.55315 0.09451,-24.35455 3.121918,-30.25928 8.908546,-17.37544 33.018218,-25.545127 52.533103,-17.80112 4.368571,1.73356 9.677144,4.73504 11.796828,6.66995 5.097328,4.65299 8.608939,16.58097 7.570625,25.71534 -1.414916,12.44747 -3.034332,15.73576 -10.693449,21.71355 -8.095472,6.31834 -12.944535,7.19448 -21.528951,3.88989 -2.933333,-1.1292 -6.261565,-2.07943 -7.396069,-2.11161 -1.134505,-0.0321 -4.434505,-2.4878 -7.333333,-5.45692 -5.110958,-5.23488 -5.268416,-5.67187 -5.198575,-14.4272 0.05727,-7.17963 0.693225,-9.90119 3.105119,-13.28838 9.169848,-12.87787 26.612112,-9.19021 30.84264,6.52078 1.452425,5.39389 1.350124,6.00569 -1.372922,8.21068 C 62.856061,145.76674 56,144.32777 56,139.10302 c 0,-7.31165 -5.146317,-11.10184 -7.953088,-5.85734 -2.461792,4.59989 -1.559633,9.44673 2.517191,13.52354 4.916853,4.91686 13.891673,5.48874 18.51667,1.1799 4.42943,-4.12664 8.513924,-12.98144 7.54566,-16.35828 -1.714854,-5.98059 -4.554906,-11.0587 -7.98503,-14.27751 -3.257523,-3.05683 -4.503094,-3.30819 -16.08984,-3.24697 l -12.558983,0.0664 -5.329623,5.20424 c -2.931293,2.86233 -5.348706,6.13246 -5.372028,7.26697 -0.02332,1.1345 -0.877289,3.16446 -1.897702,4.51101 -2.724512,3.5953 -1.256771,21.79039 2.102233,26.06067 1.377497,1.75121 2.50454,4.02548 2.50454,5.05393 0,2.63084 11.281589,13.29856 14.953239,14.13959 1.675718,0.38384 6.346761,2.01527 10.380094,3.6254 16.166151,6.45361 21.101094,7.92036 31.252294,9.28864 6.173481,0.83212 11.591953,2.33755 13.000003,3.61181 2.97108,2.68879 3.1208,7.54144 0.31913,10.34311 -2.236909,2.23691 -9.271696,2.86492 -10.464933,0.93421 z M 12.834253,57.25365 C 5.0458936,56.35924 2.1716047,53.32639 3.4571716,47.359275 3.9342181,45.145007 5.1515099,42.853518 6.1622644,42.267079 7.1730189,41.680639 8.0033461,40.180639 8.0074359,38.933746 8.0353691,30.417414 13.00142,22.754692 23.333333,15.28556 c 2.933334,-2.120561 6.110335,-4.611458 7.060003,-5.5353278 2.419217,-2.3534958 11.821875,-4.7117225 18.939997,-4.7502321 6.942623,-0.03756 15.578744,2.7642358 21.713382,7.0444199 8.487968,5.922122 18.341073,21.860177 23.182333,37.498974 1.098955,3.549968 -4.226872,7.78049 -9.895715,7.86057 -36.365146,0.513714 -66.26419,0.450856 -71.49908,-0.150314 z M 73.199899,44.72505 C 77.630384,43.189542 77.768995,42.987989 75,42.107537 71.540785,41.007617 71.113157,38.395866 74,35.999999 76.883729,33.606717 76.485789,31.466841 72.333333,27.03768 65.085564,19.306945 58.335312,15.901342 49.790543,15.664508 39.547291,15.380596 31.980104,18.893841 23.64756,27.802005 18.09012,33.743358 17.333333,35.25801 17.333333,40.439469 v 5.887045 l 25.533232,0.03107 c 17.024271,0.02072 27.132867,-0.523326 30.333334,-1.632536 z"
       id="path869" />
  </g>
</svg>
