<?xml version="1.0" encoding="UTF-8" standalone="no"?>
<!-- Created with Inkscape (http://www.inkscape.org/) -->

<svg
   version="1.1"
   id="svg75"
   width="224"
   height="210.66667"
   viewBox="0 0 224 210.66667"
   xmlns="http://www.w3.org/2000/svg"
   xmlns:svg="http://www.w3.org/2000/svg">
  <defs
     id="defs79" />
  <g
     id="g81">
    <path
       style="fill:#000000;stroke-width:1.33333"
       d="M 84,203.29019 C 69.920065,201.42739 43.191976,195.39298 40.845296,193.54714 40.013716,192.89303 37.833333,192.03904 36,191.64938 25.641565,189.44774 8.1868619,180.97331 8.0564348,178.08251 7.8828931,174.23611 14.418125,167.956 20.660645,165.97035 c 3.669979,-1.16737 9.072688,-3.19224 12.006022,-4.49972 5.590293,-2.49177 38.684534,-8.77687 54.666666,-10.38201 15.806457,-1.5875 50.822597,-0.70175 61.867307,1.56498 5.57299,1.14375 14.93269,3.06575 20.79936,4.27112 5.86667,1.20536 11.26667,2.61222 12,3.12634 0.73333,0.5141 3.73333,1.64785 6.66667,2.51942 2.93333,0.87158 8.03333,2.68591 11.33333,4.03186 17.38956,7.09254 17.02747,6.86836 17.86617,11.06185 0.46822,2.34111 0.14854,4.84815 -0.75742,5.93976 -2.06631,2.48975 -11.1002,6.82953 -17.77542,8.53912 -12.01822,3.078 -16.28513,4.07769 -22,5.15436 -3.3,0.62172 -10.2,2.12629 -15.33333,3.34352 -5.13333,1.21723 -13.53333,2.70416 -18.66667,3.30431 -13.7473,1.60721 -44.827567,1.26406 -59.33333,-0.65507 z m 46.20649,-10.70851 c 5.55174,-1.14674 10.82608,-1.80408 11.72079,-1.46074 0.89471,0.34333 8.25371,-0.7763 16.35335,-2.48806 8.09962,-1.71174 19.39758,-3.76194 25.10654,-4.55598 9.77028,-1.35892 13.94616,-2.99852 13.94616,-5.47575 0,-1.67868 -14.58856,-7.93448 -18.50325,-7.93448 -1.93289,0 -5.61039,-0.61892 -8.17221,-1.37536 -4.46147,-1.31737 -21.33475,-3.95417 -42.65787,-6.66617 -10.91409,-1.38812 -60.686205,1.6719 -66.396071,4.08206 -1.684505,0.71104 -4.63177,1.2928 -6.549477,1.2928 -1.917707,0 -6.539475,0.88132 -10.270596,1.9585 C 41.052735,171.03568 35.75,172.26287 33,172.68559 c -5.058401,0.77756 -6.488623,3.17992 -3.333333,5.59904 2.561993,1.96425 15.173854,5.53141 27,7.63675 5.866666,1.0444 14.779552,2.86702 19.806412,4.05029 5.02686,1.18327 16.72686,2.63663 26.000001,3.22969 9.27314,0.59307 17.03555,1.16538 17.2498,1.2718 0.21425,0.1064 4.93187,-0.74473 10.48361,-1.89148 z M 82.165857,73.975383 c -3.045433,-3.045434 -2.713466,-5.024743 1.50081,-8.948393 6.484602,-6.037408 18.366983,-18.880229 22.230163,-24.026989 2.06415,-2.75 4.44457,-5 5.28982,-5 0.84525,0 8.12403,-7.178671 16.17508,-15.952603 8.05104,-8.773932 15.37444,-15.9739319 16.2742,-16.0000005 3.35614,-0.097237 5.55018,5.8365185 5.40555,14.6192695 -0.0785,4.766667 -0.19493,18.019294 -0.25876,29.450282 -0.13339,23.888667 -0.86425,25.984808 -8.62117,24.726033 -2.54584,-0.413133 -8.87368,-0.213578 -14.06185,0.443456 -5.18817,0.657035 -16.7084,1.568153 -25.60051,2.024706 -13.878471,0.712571 -16.474119,0.523452 -18.333333,-1.335761 z m 43.680713,-8.685105 c 5.9783,0.04036 11.29834,-0.580617 12.33334,-1.439582 2.70586,-2.245679 2.6489,-41.184029 -0.0603,-41.184029 -1.0342,0 -5.95392,4.95 -10.93273,11 -4.97881,6.05 -10.28265,11.868972 -11.78632,12.93105 -5.99704,4.235864 -16.717807,15.532795 -16.725625,17.624507 -0.01133,3.040993 2.060315,3.488464 9.931465,2.145134 3.69979,-0.631425 11.45785,-1.116112 17.24013,-1.07708 z"
       id="path1008" />
  </g>
</svg>
