<?xml version="1.0" encoding="UTF-8" standalone="no"?>
<!-- Created with Inkscape (http://www.inkscape.org/) -->

<svg
   version="1.1"
   id="svg185"
   width="222.66667"
   height="212"
   viewBox="0 0 222.66667 212"
   xmlns="http://www.w3.org/2000/svg"
   xmlns:svg="http://www.w3.org/2000/svg">
  <defs
     id="defs189" />
  <g
     id="g191">
    <path
       style="fill:#000000;stroke-width:1.33333"
       d="m 115.38643,204.27579 c -0.21473,-0.21499 -21.314517,-0.61572 -46.888421,-0.89054 -25.573904,-0.2748 -48.705151,-0.5489 -51.40277,-0.60912 -5.678492,-0.12673 -9.0952389,-2.94088 -9.0952389,-7.49112 0,-5.14442 3.5738499,-6.0535 18.2043779,-4.63064 7.220925,0.70226 17.222951,1.29231 22.226721,1.31123 7.75307,0.0293 9.034047,-0.29101 8.666667,-2.16725 -0.43704,-2.23202 -10.204757,-5.97176 -20.167841,-7.72166 -5.772367,-1.01384 -7.628989,-3.94905 -4.485969,-7.09208 1.874467,-1.87446 3.382375,-1.94909 12.075373,-0.59762 10.92059,1.69778 17.847748,4.77085 24.535339,10.88448 5.412024,4.94754 4.161452,4.87149 58.278672,3.54378 16.13333,-0.39581 32.70173,-0.74117 36.81866,-0.76745 7.14104,-0.0456 7.64032,-0.27777 10.8551,-5.0478 1.85336,-2.75 4.12766,-8.3 5.054,-12.33333 0.92633,-4.03334 2.1553,-8.23334 2.73104,-9.33334 0.57573,-1.1 1.36865,-3.54713 1.76202,-5.43808 0.39338,-1.89094 2.07963,-4.04901 3.7472,-4.7957 3.51927,-1.57582 19.73322,-0.74055 21.69864,1.1178 0.73334,0.69338 1.3413,7.97813 1.35104,16.18834 0.009,8.2102 0.51898,17.7184 1.13164,21.12932 0.94948,5.28602 0.7304,6.58524 -1.48377,8.79942 -2.30841,2.30841 -5.8498,2.76981 -31.79831,4.14302 -29.62436,1.56772 -63.1022,2.51116 -63.81417,1.79834 z m 84.80416,-28.94246 c 0.48543,-6.79508 0.32492,-12.56532 -0.37003,-13.30336 -1.91325,-2.03186 -5.64286,1.02164 -6.63306,5.43062 -0.47838,2.13001 -1.84127,6.10348 -3.02864,8.82992 -1.18738,2.72645 -2.15886,6.51094 -2.15886,8.41 0,3.23757 0.35327,3.42726 5.66667,3.04282 l 5.66667,-0.41 z M 78.700924,132.78332 c -7.291872,-3.21576 -4.16776,-15.10315 6.870088,-26.141 8.385521,-8.385519 15.124748,-11.502523 27.766278,-12.84236 9.03833,-0.957945 13.94074,0.923167 24.14723,9.26557 8.45972,6.91466 13.18215,15.34761 13.18215,23.53969 0,4.06913 -0.67003,5.65954 -2.88333,6.84407 -3.4552,1.84916 -64.718421,1.25858 -69.082416,-0.66597 z m 60.944586,-11.05 c 0.75859,-2.28027 -9.86012,-13.39369 -15.234,-15.94377 -6.92201,-3.28471 -20.39235,-1.5232 -28.493329,3.72605 -6.77676,4.39119 -10.08262,9.06206 -8.792772,12.42335 0.710778,1.85226 4.03246,2.07327 26.400451,1.75662 18.4418,-0.26108 25.73602,-0.80906 26.11965,-1.96225 z M 84.000001,59.290183 C 69.920066,57.427381 43.191977,51.392968 40.845297,49.547127 40.013717,48.893027 37.833334,48.039036 36.000001,47.649368 25.641566,45.447729 8.186862,36.973308 8.0564349,34.082507 7.8828932,30.236107 14.418126,23.955999 20.660646,21.970343 24.330624,20.802976 29.733334,18.778101 32.666667,17.47062 38.256961,14.978847 71.351202,8.693766 87.333335,7.0886197 103.13979,5.5011171 138.15594,6.3868733 149.20064,8.6535937 154.77363,9.7973445 164.13334,11.719349 170,12.924714 c 5.86667,1.205366 11.26667,2.612215 12,3.126333 0.73334,0.514117 3.73334,1.647861 6.66667,2.519432 C 191.6,19.442048 196.7,21.256381 200,22.602328 c 17.38956,7.092552 17.02747,6.868365 17.86618,11.061852 0.46821,2.341113 0.14853,4.848156 -0.75743,5.939764 -2.06631,2.489743 -11.1002,6.829533 -17.77541,8.539127 -12.01823,3.077997 -16.28514,4.077685 -22,5.154356 -3.3,0.621714 -10.2,2.1263 -15.33334,3.343522 -5.13333,1.217222 -13.53333,2.704159 -18.66666,3.304302 -13.74731,1.607213 -44.827576,1.264072 -59.333339,-0.655068 z M 130.20649,48.58168 c 5.55174,-1.146741 10.82609,-1.804079 11.72079,-1.460749 0.89471,0.34333 8.25371,-0.77629 16.35335,-2.488044 8.09963,-1.711755 19.39759,-3.761955 25.10655,-4.555999 9.77028,-1.35892 13.94616,-2.998515 13.94616,-5.475739 0,-1.678682 -14.58856,-7.934482 -18.50326,-7.934482 -1.93289,0 -5.61038,-0.618915 -8.17221,-1.375367 C 166.1964,23.973927 149.32312,21.337131 128,18.625136 117.08591,17.23702 67.313796,20.297035 61.60393,22.707201 59.919425,23.41824 56.97216,24 55.054453,24 53.136746,24 48.514978,24.881324 44.783857,25.958499 41.052735,27.035673 35.750001,28.262861 33,28.685583 c -5.058401,0.777562 -6.488622,3.179924 -3.333333,5.599044 2.561993,1.964246 15.173855,5.531414 27.000001,7.636741 5.866666,1.044401 14.779552,2.867039 19.806412,4.050304 5.02686,1.183265 16.72686,2.636625 26,3.229691 9.27314,0.593065 17.03555,1.165376 17.2498,1.271802 0.21425,0.106427 4.93187,-0.744742 10.48361,-1.891485 z"
       id="path362" />
  </g>
</svg>
