<?xml version="1.0" encoding="UTF-8" standalone="no"?>
<!-- Created with Inkscape (http://www.inkscape.org/) -->

<svg
   version="1.1"
   id="svg175"
   width="217.33333"
   height="216"
   viewBox="0 0 217.33333 216"
   xmlns="http://www.w3.org/2000/svg"
   xmlns:svg="http://www.w3.org/2000/svg">
  <defs
     id="defs179" />
  <g
     id="g181">
    <path
       style="fill:#000000;stroke-width:1.33333"
       d="m 192.08518,208.15917 c -1.60348,-2.99613 -1.78476,-55.24285 -0.21224,-61.16941 0.79132,-2.98237 1.8142,-3.72057 5.54862,-4.00441 8.41249,-0.6394 8.50929,-0.35358 9.2451,27.29633 0.36667,13.77841 0.36667,28.35165 0,32.38499 L 206,210 l -6.24916,0.40295 c -5.11522,0.32984 -6.5062,-0.0773 -7.66566,-2.24378 z M 16.666666,203.06204 C 8.6819255,202.70661 5.580949,202.03028 4.3333333,200.37211 2.1397168,197.45663 2.2199752,191.80563 4.5320766,186.37857 5.558052,183.97036 7.5002028,179.3 8.8479672,176 11.799033,168.77432 21.481186,157.99232 28.009477,154.66183 c 2.607984,-1.3305 8.154073,-3.04987 12.324645,-3.82084 16.609364,-3.07042 38.394345,7.78474 45.139389,22.49234 5.6181,12.2503 6.526488,15.21336 6.526488,21.28872 0,5.14052 -0.5158,6.6953 -2.42189,7.30026 -1.332038,0.42277 -12.882038,0.63866 -25.666666,0.47974 -12.784628,-0.1589 -26.244777,0.0314 -29.911444,0.42294 -3.666666,0.39153 -11.466666,0.49821 -17.333333,0.23705 z m 61.267535,-15.23179 c 1.947528,-1.79048 -1.645841,-10.52981 -6.420854,-15.61597 -2.299008,-2.44881 -7.160252,-5.97492 -10.802764,-7.83579 -5.831199,-2.97901 -7.719525,-3.29145 -15.799273,-2.61406 -10.123065,0.84868 -11.732129,1.67013 -21.91131,11.18608 -5.881438,5.49824 -7,7.2945 -7,11.24114 0,2.58348 0.372126,5.06936 0.826948,5.52419 1.253785,1.25379 59.652599,-0.54823 61.107253,-1.88559 z m 21.099195,-82.45817 c -6.997632,-1.66257 -16.366731,-8.788864 -16.366731,-12.448816 0,-0.958872 2.341404,-2.776428 5.20312,-4.039015 6.443703,-2.842954 12.130213,-7.221582 12.130213,-9.340296 0,-1.199669 -10.509194,-1.663349 -42.333332,-1.867804 C 34.383333,77.526567 13.083333,77.0355 10.333333,76.584892 5.692545,75.824465 5.3333333,75.438761 5.3333333,71.216136 c 0,-5.062063 -0.473,-4.872197 12.6666667,-5.084488 5.133333,-0.08293 10.083333,-0.631896 11,-1.219911 1.019877,-0.65422 1.666666,-4.07981 1.666666,-8.827166 0,-9.988194 -1.575498,-11.40334 -11.408802,-10.247628 -8.701246,1.02266 -12.5911974,-0.574656 -12.5911974,-5.170276 0,-4.25453 2.6833931,-5.499424 14.3333334,-6.649604 5.316666,-0.524906 9.666666,-1.478071 9.666666,-2.118144 0,-2.220426 -8.094818,-5.334683 -13.098854,-5.039423 -8.4182833,0.496715 -9.9143808,-1.749017 -6.168078,-9.25866 2.544608,-5.100787 9.279448,-10.9341693 12.623876,-10.9341693 1.367123,0 2.856498,-0.6 3.309723,-1.3333334 1.377135,-2.22825 14.291881,-1.4491354 20,1.20655 6.487889,3.0184723 15.333333,11.0444777 15.333333,13.9128597 0,1.371246 -1.724347,2.400649 -5,2.984905 -2.75,0.490497 -6.2,1.928279 -7.666667,3.195067 -1.466666,1.266789 -3.716666,2.673829 -5,3.126756 -1.283333,0.452926 -2.333333,1.499644 -2.333333,2.326038 0,1.039826 4.824591,1.445086 15.666666,1.315982 18.952951,-0.225686 85.485278,1.05466 102.818078,1.978625 11.05613,0.589375 12.39113,0.421583 11.66667,-1.466343 C 172.36813,32.741243 172,31.573065 172,31.317821 c 0,-0.488742 -8.78303,-4.668006 -15,-7.137512 -2.01667,-0.80106 -3.66667,-2.257081 -3.66667,-3.235602 0,-3.867531 13.63559,-13.3581498 20.67451,-14.3898347 1.46236,-0.2143348 6.78617,0.079176 11.83069,0.652245 8.33036,0.9463472 9.62649,1.5198483 14.12689,6.2507467 2.72526,2.864841 5.64791,5.208803 6.49479,5.208803 1.90909,0 1.96912,2.039761 0.15955,5.420988 -0.75914,1.418457 -2.70914,2.581992 -4.33334,2.585634 -1.6242,0.0036 -4.75309,1.48946 -6.95309,3.301816 -3.3608,2.768619 -3.6804,3.510036 -2,4.639628 1.1,0.739438 5.12889,1.35362 8.95309,1.36485 5.49674,0.01615 7.24219,0.5606 8.33334,2.599429 3.45482,6.455411 -0.21752,9.415044 -11.715,9.441405 -4.89762,0.0112 -9.51458,0.46123 -10.2599,1 -0.74532,0.538771 -1.48508,4.36462 -1.64389,8.50189 -0.36828,9.593852 1.23305,11.101838 10.74639,10.119976 8.62048,-0.889712 11.58597,0.571896 11.58597,5.710392 0,5.442729 -3.16672,6.751034 -12.98241,5.363593 -4.44794,-0.628711 -24.6465,-1.210763 -44.88571,-1.293447 -32.90328,-0.134424 -36.79855,0.07545 -36.79855,1.982652 0,3.205216 7.36092,9.925004 10.89744,9.948278 1.70641,0.0112 3.94831,0.555813 4.982,1.210188 3.10106,1.963112 -0.48385,8.294677 -7.04754,12.447171 -6.05676,3.8318 -14.74543,4.67028 -24.465164,2.36097 z m 15.299934,-6.687207 c 3.88165,-0.02356 3.92815,-3.525036 0.10092,-7.598938 -3.93836,-4.192187 -9.895,-4.057195 -13.94802,0.316094 -1.734096,1.871116 -3.152898,3.953962 -3.152898,4.628544 0,1.648346 7.999368,3.9287 11.333328,3.230756 1.46667,-0.307037 4.01667,-0.566442 5.66667,-0.576456 z M 173.79632,65.503407 C 175.28496,64.267251 176,61.598655 176,57.279124 c 0,-10.544765 0.0634,-10.498183 -14.45674,-10.621311 -7.08213,-0.06005 -20.9766,-0.23263 -30.8766,-0.383502 l -18,-0.274311 -0.39997,8.449747 c -0.56198,11.872082 0.0455,12.331657 16.00315,12.107765 7.26737,-0.10196 13.52472,0.125933 13.90522,0.506441 0.38051,0.380506 7.15512,0.596778 15.0547,0.480604 9.94882,-0.146309 15.04012,-0.773604 16.56656,-2.04115 z m -71.73925,-7.902762 c 0.0381,-5.607264 -0.55968,-8.911204 -1.79826,-9.939136 -2.135433,-1.77225 -49.212453,-2.297546 -55.291627,-0.616956 -3.511221,0.97068 -3.687332,1.39459 -3.460697,8.3301 0.131333,4.019056 0.903708,7.85921 1.716389,8.533676 C 45.279855,65.615471 51.795785,66 78.666665,66 H 102 Z m 83.76311,-33.697418 c 4.16352,-3.275026 4.48246,-5.957314 0.93414,-7.856315 -5.29096,-2.831636 -16.08766,-0.851899 -16.08766,2.949913 0,2.107003 6.78955,7.561832 9.48686,7.621891 1.18444,0.02637 3.73444,-1.195597 5.66666,-2.715489 z M 41.191759,20.153305 c 1.75547,-1.349736 2.820098,-3.055432 2.36584,-3.790433 -1.200149,-1.941884 -11.663237,-3.066827 -14.483917,-1.557245 -3.365784,1.801313 -3.005262,3.45132 1.259651,5.765073 4.832676,2.621769 7.01478,2.537891 10.858426,-0.417395 z"
       id="path519" />
  </g>
</svg>
