<?xml version="1.0" encoding="UTF-8" standalone="no"?>
<!-- Created with Inkscape (http://www.inkscape.org/) -->

<svg
   version="1.1"
   id="svg165"
   width="216"
   height="230.66667"
   viewBox="0 0 216 230.66667"
   xmlns="http://www.w3.org/2000/svg"
   xmlns:svg="http://www.w3.org/2000/svg">
  <defs
     id="defs169" />
  <g
     id="g171">
    <path
       style="fill:#000000;stroke-width:1.33333"
       d="m 7.3089979,215.97311 c -3.81936,-4.22035 -2.229317,-7.69036 8.6891461,-18.96267 5.865645,-6.05574 10.665645,-11.3905 10.666667,-11.85504 0.001,-0.46452 7.201822,-7.78621 16.001781,-16.27042 8.79996,-8.48422 16.691013,-16.94262 17.535676,-18.79644 2.853136,-6.26196 11.046083,-6.05951 12.352753,0.30524 0.407195,1.98342 0.898895,15.63029 1.092667,30.32637 0.442932,33.59289 0.553671,33.33057 -14.608507,34.60481 -5.704882,0.47944 -17.272514,1.08076 -25.705848,1.33627 -8.433333,0.25551 -17.294284,0.6964 -19.691002,0.97976 -2.867248,0.339 -5.0333901,-0.23145 -6.3333331,-1.66788 z M 52.024013,204.7363 c 4.779874,-0.10814 9.429874,-0.65343 10.333334,-1.21179 1.99825,-1.23499 2.37828,-38.19117 0.392728,-38.19117 -0.687458,0 -4.137458,3.41673 -7.666667,7.59273 -3.529208,4.176 -11.366741,12.3546 -17.416741,18.17467 -6.612091,6.36077 -11,11.64985 -11,13.2591 0,2.50736 0.528649,2.61046 8.333333,1.62511 4.583333,-0.57865 12.244139,-1.14055 17.024013,-1.24865 z m 59.479257,10.93262 c -1.64879,-1.23629 -2.21261,-2.76732 -1.66014,-4.508 1.0032,-3.1608 10.72443,-8.12708 18.27025,-9.3337 4.88596,-0.7813 5.71361,-1.49234 8.16538,-7.01499 8.78759,-19.79408 22.84968,-46.98445 25.12225,-48.57623 4.31555,-3.02273 9.0548,-1.20974 12.01726,4.59716 1.44976,2.84176 3.12269,5.16684 3.71761,5.16684 1.50233,0 9.00977,11.81451 12.43423,19.56783 1.5625,3.53769 5.82702,10.93217 9.47669,16.43217 10.56947,15.92804 10.49704,20.07144 -0.38013,21.74679 -2.56667,0.39532 -7.52244,1.34697 -11.01283,2.11479 -7.46805,1.6428 -12.34728,0.25502 -13.66149,-3.88568 -1.15631,-3.64319 -0.54996,-4.17178 7.77218,-6.77558 3.97038,-1.24224 7.0777,-3.04929 7.31546,-4.25429 C 189.51945,198.7188 183.03976,188 181.25392,188 c -0.58212,0 -1.25239,-0.75 -1.48949,-1.66666 -0.80548,-3.11406 -12.4238,-19.61104 -13.8311,-19.63892 -2.16728,-0.0429 -4.6,2.91162 -4.6,5.58678 0,3.28262 -4.92997,13.75556 -9.90754,21.04702 -2.25086,3.29718 -5.89246,9.59718 -8.09246,14 -3.71766,7.44008 -4.3294,8.01272 -8.66666,8.11288 C 132.1,215.5003 126.4,215.99708 122,216.54494 c -6.0358,0.75153 -8.61301,0.53645 -10.49673,-0.87602 z M 22,62.470982 C 8.7974903,60.675017 6.3411127,59.758892 4.1205629,55.802706 2.3671568,52.678795 2.3971196,51.943309 4.4024735,48.882751 c 2.0825381,-3.178354 2.7957016,-3.376184 9.9206835,-2.751977 4.222263,0.369905 9.776843,1.23846 12.34351,1.930121 7.20942,1.942784 25.678852,1.651698 25.013726,-0.394228 -0.657778,-2.02333 -8.723769,-4.680188 -17.424545,-5.739474 -4.958736,-0.603707 -6.659588,-1.438872 -7.509112,-3.687176 -2.726117,-7.214798 5.415284,-9.980841 17.816752,-6.053243 9.368627,2.967084 11.576296,4.189079 17.695095,9.794637 l 5.035848,4.613444 46.019449,-0.08987 c 25.31071,-0.04943 47.56804,0.306321 49.46076,0.790556 2.84848,0.728756 4.01835,0.118773 6.79097,-3.54089 1.84231,-2.431729 3.72756,-6.821321 4.18946,-9.754655 0.46188,-2.933333 2.12469,-9.424318 3.69512,-14.424412 3.19504,-10.1727112 5.05772,-11.5755879 15.36949,-11.5755879 6.42205,0 13.82311,3.0387639 13.88484,5.7009069 0.0208,0.897835 0.28528,10.517953 0.58772,21.37804 0.67431,24.214309 0.69808,24.173301 -14.80665,25.542549 -5.76707,0.5093 -14.38559,0.818396 -19.15226,0.686881 -4.76666,-0.13152 -14.96666,0.110573 -22.66666,0.537973 -11.37824,0.631568 -57.217398,0.789583 -91.333337,0.314842 C 55.666667,62.110165 47.866667,62.444665 42,62.904518 36.133333,63.364372 27.133333,63.16928 22,62.470982 Z M 195.34353,39.666667 c 2.20771,-17.788807 -1.83954,-23.994973 -7.20537,-11.048933 -1.68191,4.05788 -3.38004,9.778932 -3.77364,12.713448 l -0.71564,5.335485 h 5.41295 5.41296 z"
       id="path658" />
  </g>
</svg>
