<?xml version="1.0" encoding="UTF-8" standalone="no"?>
<!-- Created with Inkscape (http://www.inkscape.org/) -->

<svg
   version="1.1"
   id="svg75"
   width="150.66667"
   height="209.33333"
   viewBox="0 0 150.66667 209.33333"
   xmlns="http://www.w3.org/2000/svg"
   xmlns:svg="http://www.w3.org/2000/svg">
  <defs
     id="defs79" />
  <g
     id="g81">
    <path
       style="fill:#000000;stroke-width:1.33333"
       d="m 92.666669,205.7271 c -3.625496,-0.92549 -6,-3.00584 -6,-5.2567 0,-2.11278 3.747752,-3.75783 15.333331,-6.73043 9.17227,-2.35341 23.33334,-9.11857 23.33334,-11.14704 0,-0.75277 -1.27516,-5.31572 -2.83369,-10.13989 -2.94008,-9.10052 -3.2925,-9.75374 -15.35097,-28.45304 -4.01964,-6.23334 -8.252002,-13.30683 -9.405254,-15.71888 -1.153251,-2.41205 -2.688137,-4.18844 -3.410857,-3.94753 -0.722722,0.2409 -2.948019,4.9144 -4.945107,10.38554 -4.579872,12.54684 -6.816819,16.88508 -15.058602,29.20404 -8.694524,12.99567 -14.328859,23.50565 -14.328859,26.72831 0,4.20712 -4.271753,11.92173 -7.098025,12.81876 -1.439359,0.45684 -4.947227,0.0616 -7.795263,-0.87836 -4.108811,-1.35604 -7.304945,-1.38528 -15.475812,-0.14162 -20.8131175,3.1679 -27.3797867,1.5136 -23.9419834,-6.03156 1.1912043,-2.61441 2.4038971,-3.08537 7.9445944,-3.08537 5.895439,0 12.782958,-2.07989 24.366489,-7.35821 2.2,-1.00248 5.154476,-2.00699 6.565501,-2.23224 1.692123,-0.27012 4.64253,-4.36312 8.666667,-12.02299 7.49115,-14.25924 12.24414,-22.93679 15.913442,-29.05323 5.359997,-8.93469 16.187724,-30.63051 16.187724,-32.43579 0,-3.00852 4.615739,-6.23087 8.925176,-6.23087 5.371151,0 10.005989,3.84433 12.266229,10.17413 1.01324,2.83756 3.70968,7.34394 5.99209,10.01418 8.37739,9.80086 10.14996,12.05683 10.15542,12.92495 0.003,0.48771 1.48452,3.80179 3.29212,7.36463 1.80759,3.56284 4.51007,10.93773 6.00551,16.38865 1.49544,5.45091 4.81399,14.07088 7.37455,19.15548 5.46316,10.8484 6.04571,17.51975 1.79012,20.50048 -2.51568,1.76204 -3.3214,1.77127 -6.60045,0.0756 -4.75082,-2.45673 -11.12142,-2.47113 -14.91434,-0.0337 -1.6242,1.04375 -6.2679,2.49839 -10.31933,3.23252 -4.05143,0.73415 -8.85143,1.62193 -10.666664,1.97285 -1.815237,0.35094 -4.500431,0.33174 -5.967097,-0.0427 z M 108.10527,63.214019 c -0.27648,-3.815335 -6.92293,-4.52464 -33.145956,-3.537307 -33.775813,1.271706 -43.766941,1.086103 -46.107668,-0.856528 -3.089132,-2.563752 -4.021955,-12.868786 -1.603697,-17.716298 1.146961,-2.29914 2.085385,-5.329967 2.085385,-6.735171 0,-2.895844 6.097655,-12.197087 10.957675,-16.714623 1.782531,-1.656916 6.718963,-5.106916 10.969851,-7.6666664 7.092011,-4.2705862 8.596019,-4.6540924 18.252106,-4.6540924 11.29997,0 12.700818,0.5138054 23.021671,8.4439238 6.504389,4.997705 18.100303,20.918646 18.128033,24.889409 0.008,1.1 1.25519,4.035976 2.77224,6.524392 3.04624,4.99674 2.70471,8.725086 -1.18136,12.896286 -1.38397,1.485522 -2.85982,3.573582 -3.27967,4.640135 -0.41984,1.066552 -0.81072,1.285496 -0.86861,0.48654 z M 94.666669,46.764883 c 4.055489,-0.826504 4.632648,-1.427429 4.406919,-4.588397 C 98.666462,36.475382 87.008427,22.611037 80.824376,20.473569 75.375839,18.590325 64.551839,19.089902 56.000001,21.61933 47.181149,24.227734 38.666668,35.670805 38.666668,44.914533 c 0,2.496373 0.842164,2.993072 5.666666,3.342136 8.858902,0.640962 45.145448,-0.434503 50.333335,-1.491786 z"
       id="path797" />
  </g>
</svg>
