<?xml version="1.0" encoding="UTF-8" standalone="no"?>
<!-- Created with Inkscape (http://www.inkscape.org/) -->

<svg
   version="1.1"
   id="svg205"
   width="202.66667"
   height="120"
   viewBox="0 0 202.66667 120"
   xmlns="http://www.w3.org/2000/svg"
   xmlns:svg="http://www.w3.org/2000/svg">
  <defs
     id="defs209" />
  <g
     id="g211">
    <path
       style="fill:#000000;stroke-width:1.33333"
       d="m 15.666667,112.78301 c -2.75,-0.99116 -5,-1.5517 -5,-1.24565 0,0.30606 -1.2000002,-0.0858 -2.6666669,-0.87069 -3.433077,-1.83733 -3.433077,-5.38257 0,-6.28034 1.7010565,-0.44483 2.6666669,-1.81869 2.6666669,-3.79408 0,-2.774083 7.937151,-13.570049 12.801055,-17.411757 1.034886,-0.817394 5.469866,-2.247652 9.855511,-3.178349 6.389922,-1.356035 9.152724,-1.362125 13.908234,-0.03067 5.208358,1.458251 6.592835,1.357734 11.317039,-0.821649 2.960484,-1.36574 5.398179,-3.036087 5.417098,-3.711881 0.05002,-1.786864 -6.359311,-18.08852 -8.953,-22.77128 -1.218538,-2.2 -4.194866,-6.595958 -6.614063,-9.768795 -2.419198,-3.172837 -4.39854,-6.558644 -4.39854,-7.524016 0,-0.965371 -0.949072,-2.119412 -2.10905,-2.564537 -6.974688,-2.676439 -14.369615,1.731726 -16.561709,9.872542 -1.624236,6.031956 -2.89984,7.08845 -8.37074,6.932899 -5.71124,-0.162384 -6.720714,-1.737071 -5.062152,-7.896497 0.951727,-3.534446 4.078482,-8.00903 9.430394,-13.495494 4.403624,-4.514333 8.00659,-9.023616 8.00659,-10.020628 0,-0.99701 1.471351,-3.400361 3.269668,-5.340777 4.821917,-5.2029356 13.635143,-4.9934903 19.859958,0.471969 5.767446,5.063886 9.26457,5.063886 12.870374,0 2.425392,-3.4061482 3.718662,-3.9999997 8.711065,-3.9999997 4.657404,0 6.832568,0.8514567 10.579464,4.1412747 5.215405,4.579187 7.915589,4.393249 10.238523,-0.705034 0.891641,-1.95694 3.062577,-3.6471524 5.321794,-4.1433605 4.58417,-1.0068519 11.412,0.3141514 12.80788,2.4779825 2.57259,3.98792 5.22232,4.972315 8.62806,3.205391 1.82205,-0.945287 4.34576,-2.751652 5.60825,-4.014145 3.45525,-3.4552555 15.03363,-3.1404425 18.92419,0.514544 3.35558,3.152401 8.74487,3.575858 32.31586,2.539183 12.44774,-0.547464 13.98436,-0.357271 15.66322,1.9387 1.5787,2.159006 1.58414,2.963435 0.0359,5.29559 -1.68448,2.537242 -3.21276,2.761428 -19.7646,2.899281 -21.73357,0.181011 -25.53495,1.455633 -26.14443,8.766363 -0.25148,3.016529 0.6445,6.960322 2.33334,10.270746 1.50786,2.955654 2.74157,6.059407 2.74157,6.897231 0,0.837823 2.36108,6.561725 5.24684,12.719784 5.9354,12.665811 4.50109,12.040839 22.75316,9.914244 11.04376,-1.286739 15.17536,0.399921 14.39203,5.875325 -0.3183,2.224846 -1.26975,2.694706 -5.0587,2.498166 -2.56666,-0.133134 -8.41666,0.06461 -13,0.439458 -7.77941,0.636226 -8.33333,0.899571 -8.33333,3.961852 0,3.783035 4.18764,12.563403 7.17393,15.041795 1.3472,1.118079 5.21347,1.538779 11.43379,1.244139 8.66968,-0.41066 9.3948,-0.23844 9.35339,2.22149 -0.0589,3.50282 -5.75504,7.55606 -10.33155,7.35181 -13.00216,-0.58031 -21.91797,-0.47802 -51.62956,0.59235 -92.261848,3.32376 -113.867706,3.59558 -119.66667,1.50552 z m 32.187544,-7.44968 c 28.64058,0 29.848085,-0.44058 25.860346,-9.435753 -4.117113,-9.287001 -5.184144,-9.747284 -20.441391,-8.817772 -15.24912,0.929018 -22.094204,3.388468 -30.456087,10.942927 -4.448707,4.019138 -5.218399,5.357088 -3.956508,6.877578 0.861667,1.03824 2.419611,1.56041 3.462097,1.16037 1.042488,-0.40004 12.531682,-0.72735 25.531543,-0.72735 z m 58.812459,-2.50554 c 0,-4.57441 -6.828888,-17.62295 -9.803302,-18.732005 -1.574852,-0.587208 -5.555497,-0.69898 -8.84588,-0.248384 -7.350652,1.006623 -8.003596,3.0471 -3.888635,12.152135 3.117091,6.897084 2.674199,6.639374 14.537815,8.459294 7.033142,1.07892 8.000002,0.8818 8.000002,-1.63104 z m 30.79012,-1.08458 c 0.79891,-0.7989 -0.21997,-3.316967 -2.76213,-6.826315 -2.2154,-3.058259 -4.02799,-6.480518 -4.02799,-7.605018 0,-2.993917 -6.46689,-4.992781 -13.22796,-4.088658 -3.24205,0.433541 -6.20713,1.100756 -6.58907,1.482697 -0.75441,0.754413 1.50329,7.965383 4.73699,15.129695 l 2.03216,4.502279 9.28608,-0.66442 c 5.10734,-0.36542 9.85571,-1.23404 10.55192,-1.93026 z m 22.37655,0.0901 c 5.36666,-1.07333 5.50916,-4.790142 0.5,-13.042609 -4.36527,-7.191664 -9.54647,-8.967014 -16.17136,-5.541149 -2.28908,1.183733 -4.15324,2.586833 -4.14258,3.118001 0.0401,1.99587 4.24523,13.011379 5.58186,14.621917 1.50534,1.81383 7.58096,2.17407 14.23208,0.84384 z M 91.740267,72.479359 C 92.095468,69.988197 89.185176,62.702407 84.358729,54 c -0.813428,-1.466667 -2.80719,-6.142775 -4.430582,-10.391349 -2.058596,-5.38755 -4.058976,-8.297319 -6.611642,-9.617354 -2.013012,-1.040969 -4.013899,-2.814861 -4.446416,-3.941984 -0.858576,-2.237412 -9.505504,-2.923922 -10.783465,-0.856137 -1.667858,2.698648 2.349448,16.120219 8.789516,29.365239 3.772886,7.759538 7.390041,14.79483 8.038121,15.633984 0.675803,0.875048 4.428211,1.443678 8.7987,1.333333 6.699068,-0.169137 7.669573,-0.537445 8.027306,-3.046373 z m 25.481453,2.676297 c 4.17689,-0.835377 4.21239,-0.909715 3.3429,-7 C 120.08126,64.770045 118.6249,60.2 117.32826,58 c -1.29664,-2.2 -2.79744,-5.5 -3.3351,-7.333333 -3.82611,-13.046388 -14.927322,-25.866435 -21.719832,-25.082774 -3.446548,0.397635 -3.605524,0.74889 -3.581077,7.912324 0.02452,7.18598 1.056212,10.388151 8.800935,27.316491 C 98.871934,63.826364 100,66.888751 100,67.618011 c 0,0.729261 1.47135,2.913542 3.26967,4.853958 3.33144,3.594683 6.42339,4.18942 13.95205,2.683687 z m 31.90204,-1.361735 c 2.518,-0.674149 2.99504,-1.510942 2.45999,-4.315126 -1.12735,-5.90835 -4.67185,-14.373514 -8.88648,-21.223174 -2.21683,-3.602804 -4.03448,-7.384192 -4.03921,-8.403086 -0.005,-1.018894 -2.45142,-4.702535 -5.43707,-8.185868 -4.07553,-4.754876 -6.35885,-6.333334 -9.16147,-6.333334 -8.10756,0 -8.49244,6.506212 -1.40819,23.804818 2.20844,5.39265 4.01534,10.700028 4.01534,11.794173 0,2.259129 4.71868,9.564335 7.79492,12.067676 2.18293,1.776391 9.5106,2.173167 14.66217,0.793921 z"
       id="path233" />
  </g>
</svg>
