<?xml version="1.0" encoding="UTF-8" standalone="no"?>
<!-- Created with Inkscape (http://www.inkscape.org/) -->

<svg
   version="1.1"
   id="svg195"
   width="224"
   height="209.33333"
   viewBox="0 0 224 209.33333"
   xmlns="http://www.w3.org/2000/svg"
   xmlns:svg="http://www.w3.org/2000/svg">
  <defs
     id="defs199" />
  <g
     id="g201">
    <path
       style="fill:#000000;stroke-width:1.33333"
       d="M 91.614007,202.66666 C 74.311351,201.93285 72.699533,201.13281 74.153345,194 c 0.448406,-2.2 1.85892,-6.4 3.134478,-9.33334 1.275557,-2.93333 2.702866,-6.42002 3.171798,-7.74821 0.474888,-1.34505 5.817459,-4.74148 12.059627,-7.66667 C 102.00025,164.80884 105.07506,164 112.48391,164 c 7.54797,0 10.0071,0.67466 17.80353,4.8844 12.14485,6.5577 13.47625,7.8308 17.89939,17.1156 4.49588,9.43752 4.88125,14.66789 1.22492,16.6247 -2.57603,1.37864 -25.88119,1.39556 -57.797743,0.042 z m 45.577873,-11.2459 c 3.84948,-2.37912 -7.32868,-13.12799 -17.46344,-16.79278 -10.48282,-3.79062 -28.261453,2.40254 -33.157171,11.55027 -3.454769,6.45529 -2.050386,6.82649 24.509851,6.47823 13.54866,-0.17764 25.29851,-0.73372 26.11076,-1.23572 z M 30.955641,147.10217 c -0.941065,-0.37801 -3.499702,-4.23065 -5.685861,-8.5614 -3.637427,-7.20571 -4.346703,-7.87411 -8.35564,-7.87411 -2.409444,0 -5.100807,-0.72 -5.980807,-1.6 -2.1527797,-2.15278 -1.9521742,-7.82284 0.386032,-10.91107 1.647749,-2.1763 1.642096,-3.13126 -0.0424,-7.16283 -1.068995,-2.55847 -1.9436267,-6.93195 -1.9436267,-9.71886 0,-4.591232 0.4304592,-5.20916 4.5836237,-6.579828 9.035779,-2.982076 18.804978,1.50181 17.856854,8.195978 -0.384106,2.71193 -1.080382,3.0599 -5.440478,2.71891 -4.743464,-0.37098 -5,-0.18782 -5,3.56989 0,3.98173 5.047064,9.48781 8.696863,9.48781 0.918815,0 4.883971,2.21043 8.811459,4.91207 l 7.140885,4.91206 40.675397,-1.81664 c 22.371478,-0.99915 53.566338,-2.15958 69.321938,-2.57873 l 28.64653,-0.76209 0.87871,-4.66667 c 0.48326,-2.56666 1.84233,-8.14594 3.02011,-12.39838 1.17779,-4.25245 2.14144,-8.881338 2.14144,-10.286423 0,-4.008196 4.25725,-5.368996 14.22921,-4.548272 12.77459,1.05139 12.82705,1.157848 11.88604,24.113655 -0.84184,20.53637 -1.2568,22.68592 -4.57176,23.68206 -2.57977,0.77524 -60.41351,0.94666 -87.54349,0.25948 -10.26667,-0.26004 -32.515306,-0.10146 -49.441424,0.35255 l -30.774757,0.82533 -4.802947,3.66667 c -4.889341,3.73263 -5.671941,3.98192 -8.691896,2.76884 z M 205.36633,124.57986 c 2.06466,-5.43046 1.62584,-18.64987 -0.68269,-20.56577 -4.28141,-3.55327 -7.55961,2.07969 -9.51571,16.35096 -0.71066,5.18492 -0.47372,6.13417 1.66855,6.68436 5.44377,1.39809 7.25921,0.87249 8.52985,-2.46955 z M 91.030777,81.182933 c -7.299134,-2.109094 -7.730081,-4.183004 -7.388738,-35.557904 0.177241,-16.291348 0.8939,-29.468417 1.68287,-30.942621 0.779284,-1.456108 3.497819,-2.966053 6.27977,-3.48795 6.204512,-1.163973 47.088351,0.297 48.519001,1.733814 0.58693,0.58945 1.68677,14.17558 2.44409,30.191398 1.58528,33.525745 1.14928,35.722697 -7.5699,38.144145 -6.10519,1.695497 -38.022621,1.636782 -43.967093,-0.08088 z M 131.73801,64.333332 c 1.46726,-9.031465 0.31033,-38.352376 -1.63765,-41.504284 -0.60252,-0.974899 -6.66443,-1.495715 -17.40898,-1.495715 H 96.206805 l -1.411186,4.333333 c -1.838026,5.644032 -0.829294,41.882905 1.235077,44.37032 1.660175,2.000388 7.098154,2.711068 23.440574,3.063404 l 10.8046,0.232942 z"
       id="path372" />
  </g>
</svg>
