<?xml version="1.0" encoding="UTF-8" standalone="no"?>
<!-- Created with Inkscape (http://www.inkscape.org/) -->

<svg
   version="1.1"
   id="svg45"
   width="228"
   height="230.66667"
   viewBox="0 0 228 230.66667"
   xmlns="http://www.w3.org/2000/svg"
   xmlns:svg="http://www.w3.org/2000/svg">
  <defs
     id="defs49" />
  <g
     id="g51">
    <path
       style="fill:#000000;stroke-width:1.33333"
       d="m 29.241769,219.06147 c -1.614216,-3.08103 0.322722,-7.87635 3.601814,-8.91708 1.449704,-0.46012 9.046128,-1.05045 16.880944,-1.31187 7.834816,-0.2614 14.791316,-1.02146 15.45889,-1.68904 1.857237,-1.85724 5.286986,-14.85882 6.088513,-23.08049 0.622485,-6.38513 -3.539679,-32.65755 -5.747003,-36.27625 -0.321973,-0.52784 -1.137302,-5.7987 -1.811842,-11.71299 -1.021546,-8.95681 -2.070624,-12.09304 -6.279542,-18.77273 -2.779206,-4.41069 -6.170902,-9.93985 -7.537101,-12.28701 -1.3662,-2.34715 -2.892992,-4.56756 -3.392872,-4.93423 -2.894088,-2.122838 -6.968235,-11.9827 -7.651164,-18.516611 -0.718504,-6.874274 -0.342639,-8.473433 4.034525,-17.165318 5.497447,-10.916473 6.294612,-18.105386 2.247831,-20.271157 -1.418456,-0.759134 -7.074908,-1.380245 -12.569892,-1.380245 -9.068852,0 -10.232859,0.307624 -12.612883,3.333333 -5.632889,7.161059 -11.9036675,1.515859 -8.213162,-7.393809 2.237456,-5.401699 7.544458,-8.929194 16.154108,-10.737426 3.934796,-0.8264 8.127689,-2.35872 9.317541,-3.405156 4.499416,-3.957084 16.818363,-7.513453 30.418136,-8.781441 17.239625,-1.607354 17.743405,-1.210639 17.335535,13.651165 -0.15095,5.5 -0.19403,13.731563 -0.0957,18.292362 l 0.1787,8.292363 7.35923,4.707637 c 4.04757,2.589202 7.882685,4.707639 8.522465,4.707639 0.63978,0 4.07813,2.573389 7.64077,5.718641 3.56265,3.145254 9.06062,7.721868 12.21771,10.170255 5.81396,4.50884 23.52585,24.095178 35.44047,39.191168 3.58268,4.5393 7.93268,9.94931 9.66667,12.02224 1.73399,2.07293 3.15269,4.8101 3.15269,6.0826 0,1.27249 1.7701,3.62229 3.93354,5.2218 2.16344,1.59949 8.47789,8.61642 14.03213,15.59316 5.55424,6.97673 13.92228,16.73825 18.59564,21.69225 4.67335,4.95401 8.62797,10.19992 8.78805,11.65759 0.58172,5.29718 -0.0588,8.5026 -2.10862,10.55242 -3.06083,3.06084 -6.58212,0.64228 -10.59524,-7.27722 -3.17598,-6.26748 -12.94498,-14.76986 -14.81806,-12.89678 -1.14422,1.14422 4.25646,8.41375 13.32828,17.94044 7.28628,7.6516 7.81415,8.60544 6.43612,11.62988 -2.01905,4.43135 -6.02578,5.19848 -22.70534,4.3472 -13.14594,-0.67093 -14.3257,-0.96013 -16.84458,-4.1293 -8.59941,-10.81946 -14.55489,-18.86212 -22.10325,-29.84967 -4.66011,-6.78333 -8.95271,-12.33333 -9.53912,-12.33333 -1.95511,0 -1.10047,4.02105 2.26712,10.66666 4.47779,8.8365 4.45804,14.14079 -0.0559,15.00368 -2.69953,0.51604 -3.78324,-0.11413 -5.32572,-3.09696 -2.42719,-4.69376 -6.92136,-7.90672 -11.0596,-7.90672 -2.79608,0 -3.07405,0.4439 -2.29612,3.66667 2.65474,10.99788 3.7663,14.02896 5.94296,16.20561 2.51177,2.51178 14.30127,4.7449 17.85355,3.38176 5.75524,-2.20849 10.62119,7.03926 5.2238,9.92786 -1.34529,0.71997 -27.46664,1.60368 -59.962895,2.02858 -53.755888,0.70288 -57.65974,0.59916 -58.792086,-1.56213 z m 78.860101,-11.8882 c 1.88024,-1.16205 0.2372,-17.47677 -2.43186,-24.1474 -3.03073,-7.57453 -5.956235,-7.43111 -5.956235,0.29201 0,3.69564 -0.81833,6.7231 -2.18731,8.09207 -2.02752,2.02753 -2.46034,1.88839 -5.92484,-1.90476 -2.05564,-2.25064 -4.30229,-4.09207 -4.99255,-4.09207 -1.48756,0 -5.06884,10.44659 -6.36931,18.57926 l -0.92081,5.75844 13.74125,-0.88692 c 7.557695,-0.48782 14.326445,-1.24859 15.041665,-1.69063 z m 80.78302,-3.82015 c 0.45132,-0.45132 -3.2292,-4.9823 -17.82194,-21.94 -7.62269,-8.85806 -19.31609,-19.5615 -23.65924,-21.65625 -2.39613,-1.15569 -7.59136,-3.67105 -11.54494,-5.58971 -3.95359,-1.91865 -7.47925,-3.19756 -7.8348,-2.842 -0.35555,0.35555 4.07921,5.09854 9.85501,10.53996 5.77581,5.44143 12.90147,13.31779 15.8348,17.50302 10.52991,15.02386 19.05455,23.99296 23.66025,24.89384 4.01291,0.78492 10.31464,0.28736 11.51086,-0.90886 z m -97.649435,-30.6167 c 1.54577,-4.0282 -1.05048,-11.20459 -6.45888,-17.8532 -3.04388,-3.74188 -5.99997,-6.80343 -6.56908,-6.80343 -1.58299,0 0.29189,13.48084 2.5034,18 1.90976,3.90256 6.62511,8.57765 8.71139,8.63701 0.57302,0.0163 1.38895,-0.87486 1.81317,-1.98038 z m 33.811655,-0.38582 c 0,-1.31772 -2.7,-6.50669 -6,-11.53102 -5.59142,-8.51311 -6.61038,-11.00091 -6.12615,-14.95718 0.18237,-1.49 -2.01012,-3.15457 -21.207185,-16.10091 C 80.644035,122.29615 72.743945,114.65688 66.534103,105.41312 56.975118,91.183932 56.448527,87.651414 62.87121,80.841385 c 4.181324,-4.433494 5.042896,-4.761602 12.503405,-4.761602 5.46525,0 8.53586,-0.630444 9.6584,-1.98302 2.1607,-2.603479 0.84548,-5.766891 -3.00654,-7.231423 -6.06224,-2.304863 -6.94222,-4.911643 -7.64603,-22.650031 -0.63005,-15.879271 -0.82257,-16.824432 -3.504864,-17.207058 -2.310519,-0.329592 -3.00308,0.474059 -3.725068,4.322588 -0.665934,3.549731 -1.709188,4.933841 -4.187688,5.555905 -3.827984,0.960762 -10.797635,-1.570437 -12.448927,-4.521133 -0.750612,-1.341266 -1.985256,-1.698129 -3.635071,-1.050681 -2.184241,0.857177 -1.700674,1.679427 3.845795,6.539323 5.483672,4.804872 6.342709,6.244256 6.333333,10.61198 -0.006,2.779215 -1.27125,7.523709 -2.811741,10.543323 -7.334759,14.377315 -7.548576,23.26704 -0.799027,33.220651 1.684356,2.483933 3.418168,5.416243 3.852915,6.516243 0.434745,1.1 3.931919,6.2 7.771495,11.33334 3.839576,5.13333 7.962508,11.43333 9.162068,14 2.17811,4.66047 12.06094,18.14613 23.45085,32 3.315995,4.03333 7.202215,9.09783 8.636035,11.25441 3.37962,5.08324 7.52302,7.30639 13.72656,7.365 3.94026,0.0372 5,-0.46054 5,-2.3486 z m 46.66667,-13.185 c 0,-0.50281 -2.25,-3.65281 -5,-7 -2.75,-3.3472 -7.23263,-9.38581 -9.96139,-13.41914 -2.72876,-4.03334 -9.02876,-11.93485 -14,-17.55893 -4.97124,-5.62408 -10.11472,-11.77156 -11.42997,-13.66107 -3.10549,-4.46143 -27.36294,-26.058568 -31.26566,-27.836764 -2.411195,-1.098611 -4.293735,-0.668171 -9.521305,2.177031 -3.64492,1.983809 -8.63944,3.546389 -11.33545,3.546389 -3.04179,0 -5.80321,0.983646 -7.486231,2.666667 -3.113629,3.113629 -3.302656,4.491031 -0.947569,6.904761 0.945504,0.969048 3.69913,4.838716 6.11916,8.599266 2.42004,3.76055 5.99645,8.00906 7.94757,9.44113 10.96734,8.04972 17.922405,12.4209 26.836675,16.86653 5.47571,2.73079 10.87571,5.77368 12,6.76196 1.1243,0.98829 6.24417,4.00793 11.3775,6.71032 5.13334,2.70239 12.93334,6.96336 17.33334,9.46884 10.04938,5.7224 19.33333,8.76353 19.33333,6.33301 z"
       id="path153" />
  </g>
</svg>
