<?xml version="1.0" encoding="UTF-8" standalone="no"?>
<!-- Created with Inkscape (http://www.inkscape.org/) -->

<svg
   version="1.1"
   id="svg475"
   width="232"
   height="221.33333"
   viewBox="0 0 232 221.33333"
   xmlns="http://www.w3.org/2000/svg"
   xmlns:svg="http://www.w3.org/2000/svg">
  <defs
     id="defs479" />
  <g
     id="g481">
    <path
       style="fill:#000000;stroke-width:1.33333"
       d="M 14.97412,213.64649 C 8.9923795,212.97964 7.1239176,209.37306 6.0631503,196.4462 4.6117152,178.75853 1.4218513,180 48.320729,180 71.686423,180 88,179.49388 88,178.76897 c 0,-0.67708 -1.5,-3.01369 -3.333333,-5.19248 -4.23185,-5.02927 -4.470099,-11.54096 -0.5,-13.66569 3.744036,-2.00375 8.44044,0.45032 10.533906,5.50438 0.848702,2.04895 2.579423,4.66323 3.846048,5.80951 2.089409,1.89089 2.813269,1.88369 7.806379,-0.0776 5.29679,-2.08064 5.6916,-2.05079 10.51483,0.79499 l 5.01139,2.9568 3.69862,-4.4494 c 2.03423,-2.44718 4.0514,-5.49802 4.48259,-6.77966 0.93847,-2.78946 5.99792,-4.27885 10.60624,-3.12224 4.95012,1.2424 4.33921,6.3314 -1.54142,12.84056 -6.38908,7.07195 -4.96093,8.63726 6.05747,6.63923 10.86015,-1.96932 63.80308,-1.97559 66.17408,-0.008 0.98752,0.81956 2.17781,5.88983 2.70605,11.52681 1.13766,12.14056 -0.75549,20.02266 -5.21646,21.71871 -2.82627,1.07455 -184.449711,1.43193 -193.87227,0.38149 z m 185.72484,-11.00663 c 2.92796,-2.42998 1.95371,-6.55354 -2.295,-9.7137 -3.51688,-2.61583 -5.49135,-2.67192 -89.6939,-2.54831 -47.353824,0.0695 -87.319976,0.51428 -88.813672,0.98836 -6.172523,1.95909 -5.849272,11.72345 0.434021,13.11041 1.651608,0.36456 42.438504,0.49191 90.637551,0.28296 69.67316,-0.30201 88.06429,-0.73648 89.731,-2.11972 z M 88.666667,134.62317 c -5.133334,-0.50203 -11.022394,-1.59762 -13.0868,-2.43464 -2.064406,-0.83703 -5.259722,-1.52187 -7.1007,-1.52187 -3.338328,0 -29.556134,-8.06289 -37.145834,-11.42365 -2.2,-0.97417 -5.547136,-2.08798 -7.438081,-2.47514 -3.459693,-0.70836 -6.561919,-5.4036 -6.561919,-9.93152 0,-4.13764 6.125378,-8.332453 15.923618,-10.904897 5.221292,-1.370806 10.169648,-2.910406 10.996345,-3.421333 0.826699,-0.510928 5.157901,-1.767549 9.624896,-2.792492 4.466995,-1.024943 10.521808,-2.421892 13.455141,-3.104331 6.915932,-1.608989 33.842007,-4.800888 50.027737,-5.930438 17.49552,-1.220958 58.45312,4.257568 74.63893,9.983769 2.56667,0.908033 7.66667,2.711633 11.33333,4.008 17.54799,6.204172 22.29148,8.506292 23.64411,11.474982 2.05536,4.51102 -1.45323,8.99341 -9.21792,11.77637 -9.82283,3.5206 -21.90776,7.40055 -27.09285,8.69834 -2.56667,0.64241 -7.96667,2.1499 -12,3.34998 -4.03334,1.20007 -12.13334,2.78736 -18,3.5273 -13.07731,1.64938 -59.24874,2.36862 -72.000003,1.12157 z M 146.87317,122.0385 c 20.43808,-2.25303 59.7935,-11.1308 59.7935,-13.48819 0,-1.99719 -5.09252,-3.88494 -16,-5.93103 C 185.9,101.72512 179.3,100.18508 176,99.196961 172.7,98.208844 160.7,96.212436 149.33333,94.760499 126.23793,91.810375 108.57072,92.006645 91.333333,95.404843 85.466667,96.561404 78.566667,97.672987 76,97.875028 c -2.566667,0.202041 -8.566667,1.085144 -13.333333,1.96245 -25.762584,4.741612 -28.536206,6.211862 -22.123907,11.727482 2.113,1.81753 4.681091,2.91737 5.804953,2.48611 1.108538,-0.42539 5.086503,0.37557 8.839923,1.7799 3.753421,1.40434 11.021693,2.99412 16.151716,3.53285 5.130023,0.53873 12.927315,1.75456 17.327315,2.70185 10.917917,2.35053 36.746833,2.33848 58.206503,-0.0272 z M 89.852525,72.763147 C 89.378977,71.5291 89.518435,69.399994 90.162431,68.031798 92.946737,62.11643 147.99183,5.3199054 150.90768,5.3537503 c 4.35123,0.050505 4.77397,2.1338288 5.13653,25.3129157 0.51762,33.091877 0.35322,35.602574 -2.5194,38.47519 -2.04605,2.046047 -5.45582,2.627288 -19.66666,3.352443 -9.45532,0.482488 -23.03094,1.245197 -30.16806,1.694909 -11.397899,0.718187 -13.081314,0.544699 -13.837565,-1.426061 z m 43.480805,-7.479384 c 3.3,0.09437 7.95,-0.18306 10.33334,-0.616509 L 148,63.879164 147.9818,47.606249 c -0.0189,-16.884487 -0.72272,-22.272916 -2.90924,-22.272916 -1.20585,0 -4.79337,3.516496 -17.85375,17.500293 -2.99632,3.208172 -8.84632,8.989677 -13,12.84779 -10.70553,9.943752 -10.26563,11.58608 2.78119,10.38335 5.68333,-0.523922 13.03333,-0.875374 16.33333,-0.781003 z"
       id="path652" />
  </g>
</svg>
