<?xml version="1.0" encoding="UTF-8" standalone="no"?>
<!-- Created with Inkscape (http://www.inkscape.org/) -->

<svg
   version="1.1"
   id="svg175"
   width="130.66667"
   height="122.66667"
   viewBox="0 0 130.66667 122.66667"
   xmlns="http://www.w3.org/2000/svg"
   xmlns:svg="http://www.w3.org/2000/svg">
  <defs
     id="defs179" />
  <g
     id="g181">
    <path
       style="fill:#000000;stroke-width:1.33333"
       d="m 19.573784,113.50066 c -3.534418,-0.53745 -6.97523,-1.84497 -7.646249,-2.90559 -2.1188469,-3.34908 -1.368713,-6.62007 1.793928,-7.8225 1.680139,-0.63879 3.747769,-1.99641 4.594735,-3.016945 2.021555,-2.435824 4.143299,-25.728262 4.803095,-52.728216 L 23.64809,25.38815 19.244536,24.562038 c -6.080259,-1.140663 -9.143037,-4.79538 -7.962039,-9.500852 1.621884,-6.4621011 2.915147,-7.0617 15.214097,-7.0537499 17.886272,0.011562 19.491646,0.7866555 31.039714,14.9863499 5.519407,6.786751 10.829064,13.839548 11.799239,15.672882 3.725496,7.040045 22.818037,30.729127 24.118689,29.925279 0.582492,-0.359998 1.026409,-9.490459 0.986485,-20.289911 -0.06591,-17.826823 -0.365864,-20.261262 -3.256655,-26.43069 -3.983442,-8.501331 -3.987445,-10.616809 -0.025,-13.2131035 4.572382,-2.9959405 28.153754,-1.3454276 31.719284,2.2201035 4.81111,4.811108 1.24218,13.121655 -5.63504,13.121655 -4.72735,0 -6.19686,4.255294 -7.36719,21.333334 -0.62817,9.166666 -1.15728,27.740934 -1.17579,41.276149 l -0.0337,24.609476 -3.42573,1.92887 c -5.372933,3.02526 -9.88603,1.01272 -16.432058,-7.3276 -3.221179,-4.10411 -6.670931,-9.024391 -7.666118,-10.93395 -0.995187,-1.909557 -2.582697,-4.390154 -3.5278,-5.512434 C 76.669862,88.251565 70.420502,80.133336 63.727499,71.333335 50.323267,53.709372 39.877674,41.376142 38.333334,41.35016 c -0.55,-0.0093 -1,1.147764 -1,2.571152 0,1.423388 -0.491281,2.891605 -1.091734,3.262707 -0.600455,0.371101 -0.99269,11.507349 -0.871634,24.747218 0.244638,26.755862 0.58379,27.859912 9.457927,30.788643 4.602936,1.5191 5.893976,5.02519 3.33623,9.06022 -1.348927,2.12804 -18.946338,3.18704 -28.590339,1.72056 z"
       id="path650" />
  </g>
</svg>
