<?xml version="1.0" encoding="UTF-8" standalone="no"?>
<!-- Created with Inkscape (http://www.inkscape.org/) -->

<svg
   version="1.1"
   id="svg75"
   width="98.666664"
   height="216"
   viewBox="0 0 98.666664 216"
   xmlns="http://www.w3.org/2000/svg"
   xmlns:svg="http://www.w3.org/2000/svg">
  <defs
     id="defs79" />
  <g
     id="g81">
    <path
       style="fill:#000000;stroke-width:1.33333"
       d="m 80.666664,209.76859 c -5.998711,-0.74763 -22.294916,-4.47827 -25.333332,-5.79948 -1.466667,-0.63776 -5.935485,-2.51672 -9.930708,-4.17546 C 29.000569,192.98385 14.062088,179.95933 10.376451,169.25513 5.397038,154.79341 5.2632815,153.89515 6.6418681,144.17485 9.3608877,125.00327 17.482561,115.45924 36.151052,109.4977 c 5.35433,-1.70984 21.815014,-0.065 24.309126,2.42915 0.773568,0.77356 2.279852,1.40648 3.347299,1.40648 3.844092,0 10.724177,6.79064 14.091252,13.90805 3.89745,8.23853 4.212525,13.05055 1.517448,23.17539 -2.308019,8.67075 -5.229184,13.32467 -9.346078,14.88991 -1.718073,0.65321 -3.343897,1.84804 -3.612943,2.65519 -0.269047,0.80713 -2.795946,2.26054 -5.615331,3.22981 -4.535301,1.55916 -5.717078,1.47677 -10.252916,-0.71469 C 47.769191,169.11464 44.154011,168 42.555176,168 c -5.899781,0 -15.918479,-14.20485 -15.866577,-22.49616 0.03419,-5.46071 5.525187,-13.90982 10.684081,-16.4398 5.490615,-2.69266 14.587113,-3.07054 17.589759,-0.73071 3.628285,2.82737 7.694003,10.792 7.699242,15.08259 0.0036,2.93399 -1.051016,4.86332 -3.748475,6.85764 -4.690174,3.4676 -8.246541,1.94724 -8.246541,-3.52544 0,-2.08232 -1.090202,-5.13237 -2.422672,-6.77791 -2.110932,-2.60689 -2.817604,-2.7805 -5.491883,-1.34928 -2.706971,1.44874 -2.987299,2.36935 -2.375166,7.80018 1.242742,11.02556 10.903537,15.51961 20.623054,9.5935 2.383334,-1.45314 4.333334,-3.47744 4.333334,-4.49842 0,-1.02099 0.9,-2.60327 2,-3.51619 1.288195,-1.06911 1.999999,-4.02477 1.999999,-8.30472 0,-5.31832 -0.770537,-7.61775 -3.859721,-11.51816 -5.178461,-6.53834 -11.521283,-8.69685 -22.196487,-7.55364 -10.700288,1.14591 -16.413349,5.27446 -21.898272,15.82483 -4.920953,9.46557 -5.087977,15.01385 -0.70029,23.26268 3.302341,6.20838 3.983026,7.38098 9.290757,16.005 3.061617,4.97452 18.729495,13.55182 31.17982,17.06924 4.13464,1.1681 10.498284,2.96929 14.141431,4.00264 3.643148,1.03333 8.443147,1.88798 10.666666,1.89921 4.679191,0.0236 6.379539,0.95973 8.37699,4.61183 0.938098,1.71518 0.998184,3.45713 0.172471,5 -1.258059,2.3507 -4.234761,2.6668 -13.840032,1.46968 z M 75.999998,106.5862 c -10.736162,-1.89225 -16.559194,-3.53359 -22.666666,-6.38907 -3.3,-1.542878 -6.989707,-2.818409 -8.199348,-2.834514 -1.209641,-0.0161 -5.319934,-2.129283 -9.133985,-4.695949 C 32.185948,90.1 28.581257,88 27.989573,88 25.797159,88 14.677248,74.284643 11.441558,67.589593 8.7859694,62.094845 8.0395063,58.328635 7.8231669,49.333333 7.3470405,29.536213 11.026171,22.042799 26.102909,12.102337 36.025906,5.5598617 36.6868,5.3335404 45.851407,5.3395195 53.979455,5.3448224 56.526125,5.9712537 63.687105,9.7267537 77.680547,17.065467 83.122498,28.915016 80.305823,45.913104 78.587985,56.279929 75.420034,61.190385 67.428248,65.873884 60.309374,70.045823 58.884833,70.097881 47.722061,66.594033 38.07327,63.565404 33.726028,59.830505 31.111304,52.323025 26.324907,38.580164 31.855398,28.140389 45.678171,24.825496 c 7.604081,-1.823564 16.97275,7.008772 16.98351,16.011244 0.0053,4.475733 -1.488336,6.271756 -6.494811,7.809424 -3.836014,1.17818 -5.450958,-0.871257 -5.479787,-6.954095 -0.01679,-3.542704 -0.649375,-4.465789 -3.561206,-5.196612 -5.877403,-1.475134 -8.730725,4.44321 -5.825779,12.083798 1.546832,4.068476 8.694178,8.74411 13.366567,8.74411 5.370424,0 11.794753,-4.829569 14.884813,-11.189844 2.627144,-5.407453 2.717547,-6.410453 1.098871,-12.191794 -2.530927,-9.039583 -8.609584,-14.660795 -17.0671,-15.782724 -10.345352,-1.372359 -17.491479,0.258237 -23.93727,5.461981 -8.08674,6.528497 -10.102806,11.127381 -10.102806,23.045683 0,11.704649 1.799496,15.940008 10.911332,25.681298 9.543889,10.203188 37.595104,22.318702 51.674801,22.318702 6.252738,0 9.870692,2.546774 9.870692,6.948243 0,5.63903 -4.419824,7.0123 -16,4.97129 z"
       id="path928" />
  </g>
</svg>
