<?xml version="1.0" encoding="UTF-8" standalone="no"?>
<!-- Created with Inkscape (http://www.inkscape.org/) -->

<svg
   version="1.1"
   id="svg243"
   width="97.333336"
   height="106.66667"
   viewBox="0 0 97.333336 106.66667"
   xmlns="http://www.w3.org/2000/svg"
   xmlns:svg="http://www.w3.org/2000/svg">
  <defs
     id="defs247" />
  <g
     id="g249">
    <path
       style="fill:#000000;stroke-width:1.33333"
       d="M 5.4045644,98.710692 C 2.5089263,96.92109 5.1602828,92.26392 9.9803943,90.67314 17.620222,88.151769 21.090582,84.529197 22.060167,78.063538 22.93919,72.201794 20.387839,53.440088 16.340064,36.000001 13.276628,22.800989 13.604455,20.136355 18.819803,15.844266 c 2.482442,-2.042983 7.213531,-4.59078 10.513531,-5.661773 8.86291,-2.8763968 25.753633,-5.2838466 30.866732,-4.3994624 2.456632,0.4249099 7.466603,1.2986015 11.133269,1.941537 8.630055,1.513246 18.777147,6.5967834 20.259662,10.1497814 0.640814,1.535774 0.753879,6.092318 0.251256,10.125652 -0.502622,4.033333 -0.993117,10.933334 -1.089991,15.333334 -0.221904,10.079084 -4.30099,30.669038 -7.171574,36.199865 -1.198886,2.309924 -5.006229,6.615827 -8.460761,9.568671 -5.740808,4.907092 -7.54979,5.606728 -21.03478,8.135336 C 39.10436,100.04667 9.0386434,100.95668 5.4045644,98.710692 Z M 45.651389,90.027035 c 13.144095,-1.98127 21.22439,-5.04444 25.196613,-9.551819 4.143387,-4.701604 8.764907,-15.827777 8.951491,-21.550445 0.102965,-3.158044 0.790203,-6.868599 1.527193,-8.245679 0.736991,-1.377078 1.339983,-7.412359 1.339983,-13.411734 V 26.359405 l -7.666667,0.950187 c -4.216667,0.522601 -9.885068,1.710669 -12.59645,2.64015 -4.82836,1.655198 -19.593645,1.070326 -31.884992,-1.263005 -4.125329,-0.783133 -4.915665,-0.528212 -5.519342,1.780259 -0.387513,1.481849 0.129747,6.482986 1.149465,11.113639 4.00317,18.178824 4.603538,22.080834 4.782938,31.086034 0.127413,6.395875 -0.50824,10.664262 -2.019704,13.562158 -3.300188,6.327371 -1.998648,6.622692 16.739472,3.798208 z M 62.000002,21.985554 c 1.466666,-0.17154 4.616666,-0.388465 7,-0.482056 6.069287,-0.238332 5.647001,-3.679996 -0.666667,-5.433389 -8.279195,-2.299247 -26.966525,-1.75855 -32.210045,0.931964 -2.498858,1.282193 -4.598858,2.931261 -4.666666,3.664594 -0.240467,2.600568 14.239213,3.225812 30.543378,1.318887 z"
       id="path271" />
  </g>
</svg>
