<?xml version="1.0" encoding="UTF-8" standalone="no"?>
<!-- Created with Inkscape (http://www.inkscape.org/) -->

<svg
   version="1.1"
   id="svg233"
   width="218.66667"
   height="206.66667"
   viewBox="0 0 218.66667 206.66667"
   xmlns="http://www.w3.org/2000/svg"
   xmlns:svg="http://www.w3.org/2000/svg">
  <defs
     id="defs237" />
  <g
     id="g239">
    <path
       style="fill:#000000;stroke-width:1.33333"
       d="m 70.000001,199.66071 c -4.4,-0.55328 -13.78908,-0.95729 -20.864623,-0.89781 -12.470617,0.1048 -13.205668,-0.0597 -24,-5.3749 -12.031484,-5.92428 -19.8150627,-12.89001 -19.7801107,-17.70174 0.037644,-5.18243 5.6714457,-13.52446 10.8468957,-16.06112 4.049529,-1.98482 8.555984,-2.38467 27.437624,-2.43452 12.425753,-0.0328 24.780229,0.35081 27.454389,0.85249 4.399665,0.82537 4.98846,0.57981 6.190531,-2.58188 1.878857,-4.94176 4.805978,-5.79589 27.727463,-8.09085 38.18962,-3.82364 49.2357,-2.8249 67.6545,6.1171 8.75211,4.24899 14.97712,4.80443 25.81291,2.30323 5.64789,-1.30369 7.1815,-1.21599 9.90149,0.56621 2.91736,1.91154 3.22833,3.05852 3.32364,12.2588 0.0579,5.58247 0.48645,11.88595 0.95247,14.00774 1.1566,5.26596 -1.3688,6.38577 -16.78424,7.44254 -9.20379,0.63095 -13.51356,1.54412 -16.2008,3.43268 -2.03427,1.42968 -7.66295,3.10522 -12.66667,3.77059 -4.953,0.65864 -13.50547,1.84887 -19.00547,2.64496 -10.82022,1.56616 -64.927356,1.39029 -77.999999,-0.25352 z M 172,185.69506 c 4.76667,-2.32978 12.71667,-5.2372 17.66667,-6.46095 8.80851,-2.17763 9,-2.31716 9,-6.55823 v -4.33325 l -10.33333,-0.62264 c -8.86948,-0.53444 -11.22299,-1.22809 -16.61336,-4.89647 C 163.34902,157.12674 140,152.09079 140,155.98211 c 0,0.72349 2.1,2.19288 4.66667,3.26529 4.66105,1.94752 5.6066,3.8728 3.5188,7.16484 -2.04967,3.23191 -69.502614,4.0305 -93.518803,1.10719 -17.621156,-2.14489 -31.371961,-1.47375 -35.218935,1.71896 -5.45307,4.52565 -0.892876,9.99036 14.270365,17.10092 6.678152,3.1316 7.373644,3.19645 17.871092,1.66631 6.109559,-0.89055 11.691071,-1.09568 12.666667,-0.46552 2.398174,1.54902 27.519191,2.46648 66.410814,2.42541 l 32.66667,-0.0345 L 172,185.695 Z m -39.66666,-27.73438 c 8.60986,-1.07497 8.06213,-3.33009 -0.66667,-2.74478 -3.85,0.25816 -11.35,0.5402 -16.66667,0.62674 -10.45546,0.1702 -13.23168,2.36314 -4,3.15959 5.93469,0.512 10.78821,0.27504 21.33334,-1.04155 z M 125.13383,63.356052 C 124.76532,62.987546 109.80946,62.361606 91.898577,61.965073 30.428914,60.604182 34.034814,61.228129 14.889603,48.639827 10.288914,45.614797 4.0000001,36.139997 4.0000001,32.233687 c 0,-2.385176 8.0504029,-10.857937 12.5058119,-13.161919 3.560391,-1.841149 7.901819,-2.001536 32.467358,-1.199446 l 28.357397,0.925896 1.546872,-3.395016 c 0.982888,-2.157205 3.292504,-3.894369 6.334717,-4.764621 9.107468,-2.6052709 38.176224,-5.6518069 52.170584,-5.4677117 13.98725,0.1840016 14.5095,0.3013431 32.61726,7.3284987 2.2,0.853763 5.57307,2.60927 7.49571,3.901124 2.85613,1.919096 5.29555,2.212318 13.33333,1.602688 5.4107,-0.410376 11.92843,-0.878973 14.48386,-1.041326 L 209.95912,16.666667 210.82972,24 c 3.45366,29.091401 3.99758,28.000001 -13.95449,28.000001 -11.82063,0 -12.45528,0.154671 -17.41725,4.244741 -4.94676,4.077536 -5.78594,4.284691 -21.30379,5.2589 -8.8848,0.557788 -19.79832,1.353518 -24.25227,1.76829 -4.45394,0.414772 -8.39958,0.452625 -8.76809,0.08412 z m 45.00256,-16.214395 c 5.44032,-3.70555 15.00212,-6.99048 23.60464,-8.109307 4.56481,-0.593688 5.03343,-1.013388 4.66667,-4.179488 -0.37174,-3.209136 -1.05443,-3.591871 -7.74103,-4.339816 -8.69568,-0.972679 -15.54963,-3.056448 -18.51705,-5.629643 C 168.67004,21.866106 153.28187,17.046478 145,16.380059 c -7.87681,-0.633824 -10.76569,1.318925 -4,2.703817 5.728,1.172483 8.79847,4.016787 7.78462,7.211192 -1.19994,3.780635 -5.60071,4.386899 -30.78462,4.240987 -11.73333,-0.06798 -25.833332,-0.07569 -31.333332,-0.01712 -5.5,0.05857 -19.082034,-0.634236 -30.182298,-1.53956 -24.753763,-2.018885 -32.631547,-1.61599 -36.36224,1.859679 -1.533838,1.428988 -2.788796,3.047728 -2.788796,3.597203 0,2.128424 12.577574,11.369947 18.467901,13.569511 5.526415,2.063672 12.866091,2.334314 67.668485,2.495208 l 61.46972,0.180466 z M 129.33334,18.666667 C 130.69753,17.785056 127.09463,17.374168 118,17.374168 c -9.09463,0 -12.69753,0.410888 -11.33333,1.292499 1.1,0.710875 6.2,1.292499 11.33333,1.292499 5.13334,0 10.23334,-0.581624 11.33334,-1.292499 z"
       id="path410" />
  </g>
</svg>
