<?xml version="1.0" encoding="UTF-8" standalone="no"?>
<!-- Created with Inkscape (http://www.inkscape.org/) -->

<svg
   version="1.1"
   id="svg223"
   width="258.66666"
   height="133.33333"
   viewBox="0 0 258.66666 133.33333"
   xmlns="http://www.w3.org/2000/svg"
   xmlns:svg="http://www.w3.org/2000/svg">
  <defs
     id="defs227" />
  <g
     id="g229">
    <path
       style="fill:#000000;stroke-width:1.33333"
       d="m 70.666665,128.99137 c -9.019384,-2.2939 -10.125652,-7.08569 -3.385249,-14.66318 2.71433,-3.05142 4.992425,-3.9119 13.483138,-5.09285 5.619326,-0.78158 11.56874,-1.935 13.220918,-2.56315 1.652179,-0.62816 8.631338,-2.16475 15.509238,-3.41466 6.87791,-1.2499 14.60529,-3.320943 17.17195,-4.602322 2.56667,-1.281377 6.76427,-2.78309 9.32799,-3.33714 2.56373,-0.554049 6.46373,-1.794492 8.66667,-2.756538 2.20294,-0.962048 8.20534,-3.350742 13.33868,-5.30821 10.50309,-4.005093 24.3172,-10.615951 27.33333,-13.080607 1.1,-0.898872 5.3,-3.339199 9.33333,-5.422949 8.15645,-4.213887 14.66667,-9.676007 14.66667,-12.305455 0,-2.305457 -9.62098,-7.10698 -14.28022,-7.126802 -5.62425,-0.02393 -17.90527,-3.598233 -20.18041,-5.873372 -2.88388,-2.883875 -0.32126,-7.786236 5.5187,-10.55748 5.35228,-2.539824 10.33062,-7.266226 16.94193,-16.084526 6.46956,-8.6292467 9.13945,-10.0504173 22.15209,-11.7914927 16.28457,-2.178853 17.31407,0.5001698 5.72088,14.8871837 -3.5968,4.463585 -6.53964,9.219595 -6.53964,10.568911 0,2.841774 3.99067,6.866601 6.80831,6.866601 1.06242,0 3.32554,0.976302 5.02916,2.169559 2.39358,1.676535 5.1627,2.021792 12.18556,1.519311 10.35505,-0.740902 11.22549,-0.414811 12.47061,4.671822 1.43877,5.877793 -1.77443,10.300908 -15.82697,21.786469 -16.2097,13.248661 -37.08396,27.186171 -40.71687,27.186171 -0.68236,0 -4.95653,1.8 -9.49817,4 -4.54164,2.199996 -8.96077,3.999996 -9.82031,3.999996 -0.85953,0 -5.4272,2.05075 -10.15037,4.55722 -4.72317,2.50647 -12.43552,5.25498 -17.13852,6.1078 -4.70301,0.85282 -11.07388,2.40715 -14.15749,3.45406 -3.08362,1.04692 -8.51171,2.47684 -12.06242,3.17761 -3.55072,0.70076 -10.95585,2.25158 -16.45585,3.44626 -5.5,1.19468 -12.999999,2.68178 -16.666666,3.30468 -3.666666,0.6229 -9.066666,1.65711 -11.999999,2.29825 -3.074734,0.67204 -7.309608,0.66307 -10,-0.0212 z M 200.27607,83.141577 c 1.98519,-0.999634 7.572,-4.66543 12.41515,-8.146214 4.84316,-3.480783 10.73148,-7.528698 13.08516,-8.995365 14.45069,-9.004766 16.10037,-12.526477 7.22361,-15.420869 -8.37914,-2.732136 -19.82346,-8.678923 -24.02481,-12.483969 -2.03031,-1.838797 -4.04835,-5.127622 -4.48452,-7.308501 l -0.79305,-3.965234 -3.18214,3.781762 c -5.32221,6.325084 -4.13082,8.331483 7.48452,12.604573 1.1,0.404672 4.4,2.147768 7.33334,3.873548 10.10181,5.943235 6.45384,14.445238 -11.63235,27.110499 -12.09148,8.467328 -14.36765,10.276155 -14.36765,11.417672 0,1.358999 6.05461,-0.0065 10.94274,-2.467902 z M 43.240088,52.666665 c -1.382241,-2.566666 -3.01546,-4.666666 -3.629374,-4.666666 -0.613915,0 -2.630808,1.8 -4.481987,4 -4.626362,5.498121 -8.94264,5.27859 -12.783137,-0.650162 -1.656741,-2.557589 -3.413321,-4.657589 -3.903512,-4.666666 -0.490189,-0.0091 -2.189125,2.083494 -3.775412,4.650161 -3.083548,4.989285 -5.8763721,5.982651 -7.1906811,2.557617 -1.6786233,-4.374422 -0.6263627,-8.139411 4.5595371,-16.314023 6.413242,-10.109289 9.690381,-10.657608 13.996871,-2.341903 1.491096,2.879263 3.411505,5.468497 4.267578,5.753856 0.856072,0.285357 3.096317,-1.920404 4.978321,-4.901691 4.465359,-7.073585 7.66185,-7.046453 12.175317,0.103347 l 3.487062,5.523864 1.981305,-4.090948 c 1.089719,-2.250021 3.079252,-5.084576 4.421185,-6.299009 2.700015,-2.443479 2.62194,-2.495796 9.840552,6.594046 l 3.111827,3.918483 3.629851,-5.485076 c 1.996419,-3.016792 4.423548,-5.789645 5.393622,-6.161897 1.884462,-0.723137 4.700034,1.931363 7.223231,6.810006 2.215784,4.284256 4.542222,3.724366 8.234826,-1.981829 4.720907,-7.295237 7.12639,-7.102301 11.17979,0.896697 1.88177,3.713484 3.99909,6.751794 4.70517,6.751794 0.70607,0 2.45211,-2.290139 3.88008,-5.089198 1.42798,-2.799057 3.51138,-5.848629 4.62979,-6.776823 2.54811,-2.114746 7.11304,-0.770487 8.11614,2.390001 0.41679,1.313165 2.1367,3.682993 3.82204,5.266284 l 3.06425,2.87871 2.99553,-5.329841 c 2.87974,-5.123792 7.75048,-7.909133 10.67262,-6.103149 2.53796,1.568543 9.49085,15.109672 9.49085,18.483934 0,8.915839 -3.11549,9.74898 -8.4198,2.251613 -2.06423,-2.917676 -4.49459,-5.304865 -5.40079,-5.304865 -0.9062,0 -3.35429,2.7 -5.44021,6 -2.08591,3.3 -4.58127,6 -5.54525,6 -2.47974,0 -8.52728,-6.845931 -8.52728,-9.653043 0,-4.188357 -3.37882,-2.488409 -7.2608,3.653043 -2.08591,3.3 -4.25648,6 -4.8235,6 -2.8188,0 -5.45839,-2.023984 -7.99747,-6.132299 -1.54131,-2.493902 -3.61506,-4.534368 -4.608333,-4.534368 -0.993266,0 -3.154815,2.4 -4.803441,5.333334 -1.648625,2.933333 -3.526461,5.333333 -4.172968,5.333333 -2.698617,0 -6.438558,-3.002272 -8.35393,-6.706192 -2.642309,-5.109664 -4.127465,-4.992137 -7.419307,0.58712 -4.351505,7.375252 -7.988566,7.599512 -12.560253,0.77446 -1.466666,-2.18958 -3.057401,-3.982779 -3.534965,-3.984888 -0.477564,-0.0021 -2.107329,2.096167 -3.6217,4.662833 -1.918494,3.251607 -3.714126,4.666667 -5.92174,4.666667 -2.253373,0 -3.894102,-1.347661 -5.681505,-4.666667 z"
       id="path565" />
  </g>
</svg>
