<?xml version="1.0" encoding="UTF-8" standalone="no"?>
<!-- Created with Inkscape (http://www.inkscape.org/) -->

<svg
   version="1.1"
   id="svg113"
   width="206.66667"
   height="250.66667"
   viewBox="0 0 206.66667 250.66667"
   xmlns="http://www.w3.org/2000/svg"
   xmlns:svg="http://www.w3.org/2000/svg">
  <defs
     id="defs117" />
  <g
     id="g119">
    <path
       style="fill:#000000;stroke-width:1.33333"
       d="m 79.000001,243.97336 c -4.436725,-1.8054 -3.797602,-6.67718 1.556798,-11.86686 3.662221,-3.54958 4.840121,-6.0436 6,-12.70411 2.079509,-11.94143 1.894712,-13.66659 -1.556798,-14.53327 -7.271697,-1.82593 -8.020552,-3.47597 -8.62048,-18.99442 -1.172052,-30.31775 -0.529569,-103.102974 0.934246,-105.838136 0.959068,-1.792036 2.793321,-2.70323 5.44166,-2.70323 5.121929,0 5.916881,-2.238556 3.9008,-10.984504 -1.14702,-4.97588 -2.931146,-8.255564 -6.136704,-11.280852 -4.942503,-4.664551 -5.13401,-5.278152 -3.21919,-10.314511 1.060694,-2.789833 2.177608,-3.420133 6.060607,-3.420133 6.700464,0 10.630035,4.381996 12.672979,14.132064 4.082141,19.482254 4.682721,21.185955 7.619881,21.615515 3.62355,0.529947 5.11969,-2.405745 6.04578,-11.862911 0.96156,-9.819285 3.44438,-17.845228 6.55242,-21.181328 2.9171,-3.131129 14.30063,-3.941183 14.56821,-1.036673 0.43634,4.736462 -0.78785,7.374905 -5.15974,11.120545 -4.55756,3.904717 -4.79887,4.523667 -4.60698,11.81678 0.22252,8.457416 1.4198,10.723739 6.31423,11.952163 1.89877,0.476561 3.54032,2.061093 3.93414,3.797485 1.3304,5.8659 3.24758,117.630256 2.03854,118.839296 -0.66264,0.66264 -3.48532,1.57243 -6.2726,2.02172 -4.34153,0.69985 -5.1302,1.3602 -5.50321,4.60788 -0.76276,6.641 3.85718,19.1628 8.69408,23.56428 7.65668,6.96741 5.2932,13.37957 -4.98389,13.52141 -8.19308,0.11307 -10.86097,-3.90049 -13.79809,-20.75778 -3.05915,-17.55776 -2.85131,-17.06792 -7.03205,-16.57307 -3.25848,0.38569 -3.71522,1.18004 -5.226156,9.08929 -0.910596,4.76667 -2.037928,11.36667 -2.505182,14.66667 -1.468116,10.3686 -9.712826,16.56224 -17.713301,13.30669 z m 37.844539,-52.96733 c 1.91566,-1.27527 3.79591,-96.067075 1.96139,-98.882554 -0.89947,-1.380451 -4.09303,-1.839255 -12.08041,-1.73554 -17.115531,0.222241 -15.490637,-3.061864 -16.142215,32.625364 -0.79539,43.56392 -0.718044,63.99705 0.251044,66.32004 0.636486,1.5257 3.640354,2.08048 12.666671,2.33936 6.50777,0.18665 12.51236,-0.11334 13.34352,-0.66667 z M 64.754216,37.163986 C 62.771241,35.604178 59.540325,30.985078 57.574404,26.89932 55.608482,22.813562 53.349557,19.272954 52.554569,19.031302 51.759581,18.78965 48.876806,23.10875 46.148401,28.6293 39.425887,42.231383 36.36409,42.088897 27.17061,27.746135 23.705974,22.34095 20.674554,18.916436 19.821276,19.443791 19.022496,19.937464 16.958079,23.531608 15.23368,27.430776 11.628109,35.583615 7.9340479,38.410239 4.8783118,35.354503 3.1358083,33.611999 3.2072813,32.584807 5.4888317,26.580254 9.7258183,15.429412 15.953566,3.9341259 18.231235,3.0601024 c 2.897879,-1.1120209 6.059245,1.0703079 8.299945,5.7295523 1.025482,2.1323563 3.575482,6.0633553 5.666667,8.7355513 2.091184,2.672197 3.802154,5.522197 3.802154,6.333333 0,4.292988 3.280021,0.195555 7.970341,-9.956624 6.577396,-14.2367469 8.863455,-14.61867573 16.072507,-2.685212 5.09976,8.441857 10.643831,13.389928 11.643276,10.391593 0.309305,-0.927916 2.500926,-5.419385 4.870268,-9.981042 3.777887,-7.2735063 4.783748,-8.2939206 8.175634,-8.2939206 3.418598,0 4.56538,1.1999567 9.875415,10.3333336 3.304222,5.683333 6.619278,10.315008 7.366788,10.292612 0.74751,-0.0224 3.75911,-4.372397 6.69244,-9.666667 7.14152,-12.8894838 9.39787,-12.9529656 18.03904,-0.507522 3.48213,5.015132 6.93517,9.72246 7.67344,10.460729 0.90085,0.900853 3.37395,-2.384767 7.5198,-9.990433 3.39761,-6.2330083 7.09568,-11.6850889 8.21792,-12.1157356 2.28696,-0.8775859 11.13564,7.8819926 11.30755,11.1936836 0.16469,3.17251 4.59676,9.962277 6.77909,10.385321 2.23523,0.433293 5.12983,-4.945287 5.12983,-9.531937 0,-3.706851 6.48809,-10.1867179 10.19964,-10.1867179 3.6297,0 5.8005,2.6718815 12.45777,15.3333339 3.08464,5.866666 6.14861,11.236666 6.80884,11.933333 3.66796,3.870407 -0.998,9.351607 -6.26515,7.359804 -2.84057,-1.074177 -9.86777,-12.897025 -9.86777,-16.601929 0,-1.113498 -1.12959,-2.024542 -2.5102,-2.024542 -1.71911,0 -3.64176,2.312834 -6.10077,7.338868 -6.71274,13.720326 -10.1161,14.558271 -17.57762,4.327799 -2.80796,-3.85 -5.71424,-8.152619 -6.4584,-9.561375 -2.52734,-4.784506 -4.37114,-3.57376 -9.90072,6.501407 -3.03668,5.532983 -6.35968,10.059968 -7.38446,10.059968 -3.08118,0 -9.89261,-6.550196 -13.6646,-13.140529 -1.94946,-3.406042 -3.72319,-6.428304 -3.94163,-6.716139 -0.96866,-1.276401 -4.48933,3.219625 -7.76676,9.918441 -4.40477,9.003046 -6.55822,11.231973 -9.98567,10.335675 -2.272606,-0.5943 -10.190892,-10.052704 -15.584612,-18.615845 -1.407497,-2.234563 -1.737653,-2.040922 -3.782335,2.218397 -5.937461,12.368445 -9.372497,17.333334 -11.99234,17.333334 -0.911311,0 -3.279363,-1.276207 -5.262337,-2.836015 z"
       id="path966" />
  </g>
</svg>
