<?xml version="1.0" encoding="UTF-8" standalone="no"?>
<!-- Created with Inkscape (http://www.inkscape.org/) -->

<svg
   version="1.1"
   id="svg243"
   width="204"
   height="249.33333"
   viewBox="0 0 204 249.33333"
   xmlns="http://www.w3.org/2000/svg"
   xmlns:svg="http://www.w3.org/2000/svg">
  <defs
     id="defs247" />
  <g
     id="g249">
    <path
       style="fill:#000000;stroke-width:1.33333"
       d="m 81.810615,242.97034 c -6.456302,-5.20762 -7.576232,-10.11405 -6.600696,-28.91766 0.496094,-9.56231 1.816056,-24.58602 2.933245,-33.38602 1.117191,-8.8 2.560936,-22.75701 3.208324,-31.01558 0.647387,-8.25858 1.539217,-15.60156 1.981845,-16.31775 0.442628,-0.71619 1.26933,-8.2248 1.837115,-16.6858 1.120055,-16.690822 2.222973,-19.292787 7.213897,-17.01877 2.835592,1.29198 3.266814,2.75659 4.680564,15.89717 0.856468,7.96074 1.861599,21.37407 2.233622,29.8074 0.372022,8.43333 1.079729,24.03333 1.572679,34.66667 1.72161,37.13636 -0.0309,55.56912 -5.863054,61.66666 -4.034527,4.21814 -8.978772,4.70654 -13.197541,1.30368 z m 8.094146,-9.06558 C 91.707672,232.10185 92,226.70706 92,195.23809 c 0,-23.01853 -0.484701,-36.57143 -1.307931,-36.57143 -2.911074,0 -5.448538,19.17451 -6.173161,46.6479 -0.802588,30.42932 -0.113133,34.0892 5.385853,28.5902 z m 96.589949,-15.64283 c -2.90795,-2.21347 -16.85084,-29.76949 -19.52003,-38.57837 -3.04865,-10.06123 -3.67885,-36.38218 -1.12069,-46.80698 2.64702,-10.78695 1.17353,-29.26655 -3.12259,-39.1616 C 154.62523,75.04445 139.3856,69.14021 92.666667,66.570022 68.599148,65.245975 63.528408,64.582808 56.562052,61.84815 c -4.457537,-1.749816 -8.714544,-3.181484 -9.460016,-3.181484 -5.200125,0 -7.578023,-11.864791 -5.163441,-25.763574 l 1.117101,-6.430243 -5.194515,1.07462 C 23.586251,30.500609 10.012387,26.977268 7.4355021,19.649934 5.5235996,14.213469 8.2673084,9.9184512 16.229552,5.8836771 22.673859,2.6180996 23.739371,2.456281 29.715077,3.8356397 c 3.5686,0.8237314 8.566492,1.4976936 11.106427,1.4976936 6.289027,0 14.98314,4.6118896 15.740168,8.3495477 0.332387,1.641083 0.947355,4.609631 1.366597,6.596775 0.419243,1.987144 -0.134378,6.187144 -1.230268,9.333333 -2.276957,6.53692 -2.567246,12.806808 -0.727833,15.720344 1.632475,2.585756 18.212489,2.643441 41.363165,0.143909 40.066317,-4.32588 63.626997,1.833916 79.106157,20.681832 12.88128,15.684653 16.34582,27.158263 14.12912,46.791916 -0.72749,6.44362 -1.84928,13.51567 -2.49284,15.71567 -3.4809,11.89928 -5.8366,22.43862 -7.06489,31.60828 -1.94269,14.50291 0.98004,29.99788 7.90972,41.93363 2.79367,4.81185 5.77759,9.96936 6.63092,11.46115 0.85333,1.49177 1.23915,3.52636 0.85735,4.5213 -0.86248,2.2476 -6.9969,2.29148 -9.91416,0.0709 z m -9.57072,-97.90322 C 176.58593,119.06142 176.28711,119.8 176.25993,122 c -0.0272,2.2 0.24942,3.26142 0.61466,2.35871 0.36522,-0.90271 0.38745,-2.70271 0.0495,-4 z m -0.48068,-30.435875 c -0.69974,-5.21684 -7.39391,-15.416685 -9.03859,-13.772001 -0.44025,0.440248 0.70636,3.436412 2.54803,6.658141 1.84165,3.221729 3.35569,6.78769 3.36452,7.924357 0.0147,1.89572 2.7245,5.669341 3.50825,4.885589 0.18515,-0.185148 0.0133,-2.748388 -0.38221,-5.696086 z M 162.66667,70.873316 c 0,-1.76855 -5.24992,-6.067844 -6.22223,-5.09554 -0.47989,0.479898 0.21677,2.076219 1.54816,3.547382 2.51561,2.779717 4.67407,3.494646 4.67407,1.548158 z M 144,59.999999 c 0,-0.733333 -1.16459,-1.333333 -2.58797,-1.333333 -1.42339,0 -2.9588,-0.6 -3.41203,-1.333333 -1.06447,-1.722339 -8.66667,-1.744622 -8.66667,-0.0254 0,0.719361 1.35,1.596001 3,1.948086 7.39831,1.578691 8.429,1.776856 10,1.922648 C 143.25,61.263731 144,60.733333 144,59.999999 Z m -18.66667,-2.641264 c 0,-1.718253 -6.07789,-3.213328 -8.06657,-1.98426 -1.14111,0.705246 -1.07299,1.262035 0.25756,2.105107 2.47501,1.568243 7.80901,1.485697 7.80901,-0.120847 z M 33.666667,16.477536 c 5.79737,-0.958247 6.377901,-2.573559 1.6922,-4.708507 -2.568764,-1.170408 -4.714098,-1.058307 -9.602164,0.501744 -11.879514,3.791408 -6.591543,6.603713 7.909964,4.206763 z"
       id="path271" />
  </g>
</svg>
