<?xml version="1.0" encoding="UTF-8" standalone="no"?>
<!-- Created with Inkscape (http://www.inkscape.org/) -->

<svg
   version="1.1"
   id="svg233"
   width="86.666664"
   height="184"
   viewBox="0 0 86.666664 184"
   xmlns="http://www.w3.org/2000/svg"
   xmlns:svg="http://www.w3.org/2000/svg">
  <defs
     id="defs237" />
  <g
     id="g239">
    <path
       style="fill:#000000;stroke-width:1.33333"
       d="M 18.666666,177.43672 C 12.433333,177.01319 6.5833331,176.18125 5.6666665,175.58797 2.8404699,173.75883 3.51267,169.74337 8.4993489,158.66667 13.753714,146.99536 28.856802,137.30816 41.729403,137.35273 c 9.197357,0.0319 24.375036,6.24023 29.786793,12.18418 1.567243,1.72137 4.032103,5.52976 5.477467,8.46309 6.248185,12.68055 4.875664,18.53189 -4.653295,19.83799 -6.959154,0.95385 -37.039393,0.72897 -53.673702,-0.40127 z m 50.098139,-11.09041 c 2.985918,-2.98592 -7.928684,-14.8612 -15.710119,-17.0929 -6.52403,-1.87106 -17.436238,-1.51502 -22.846248,0.74543 -8.632701,3.60697 -16.686149,13.74567 -13.471807,16.96001 1.079535,1.07954 50.922918,0.49271 52.028174,-0.61254 z M 47.525797,88.414688 C 47.358556,88.247447 41.246835,88.021785 33.944195,87.913217 19.636799,87.700511 13.821177,86.314143 12.732398,82.856605 11.597376,79.252221 11.416149,16.918519 12.531015,13.590288 13.097791,11.898279 15.049236,9.9482795 16.867558,9.2569545 18.685879,8.5656296 31.491682,8 45.324893,8 c 19.933356,0 25.543565,0.3922697 27.042098,1.8908023 2.476772,2.4767717 3.853561,20.6626937 3.671203,48.4926417 -0.154262,23.541839 -0.998544,27.851985 -5.657703,28.883125 -3.206422,0.70963 -22.33238,1.670432 -22.854694,1.148119 z M 64.749055,77.200023 c 1.631175,-2.639296 0.706334,-56.113051 -1.006176,-58.176499 -1.261734,-1.520296 -5.21797,-1.746033 -20.679327,-1.179931 -10.515506,0.385014 -19.706603,1.063122 -20.424661,1.506906 -1.464488,0.905104 -1.86438,56.979569 -0.416669,58.427278 1.571456,1.571458 41.534089,1.028539 42.526833,-0.577754 z"
       id="path410" />
  </g>
</svg>
