<?xml version="1.0" encoding="UTF-8" standalone="no"?>
<!-- Created with Inkscape (http://www.inkscape.org/) -->

<svg
   version="1.1"
   id="svg223"
   width="162.66667"
   height="213.33333"
   viewBox="0 0 162.66667 213.33333"
   xmlns="http://www.w3.org/2000/svg"
   xmlns:svg="http://www.w3.org/2000/svg">
  <defs
     id="defs227" />
  <g
     id="g229">
    <path
       style="fill:#000000;stroke-width:1.33333"
       d="m 31.561821,205 c -1.782307,-2.38334 -3.872184,-6.43334 -4.644174,-9 -4.30074,-14.29886 -4.611299,-16.37195 -3.83858,-25.62382 C 23.525086,165.03594 23.349035,158.56666 22.687844,156 22.026654,153.43333 20.524678,147.43333 19.35012,142.66666 18.175563,137.9 16.041286,130.32124 14.607282,125.82497 13.173277,121.3287 11.989718,116.2287 11.97715,114.49164 11.964582,112.75457 10.774865,106.83333 9.3333335,101.33333 6.4997827,90.52224 5.8598095,79.322709 8.0000002,77.999999 c 0.7333333,-0.453226 1.3333333,-1.940012 1.3333333,-3.30397 0,-1.363958 0.9006765,-4.178549 2.0015025,-6.254643 1.100827,-2.076096 4.08497,-9.27122 6.631428,-15.989165 C 23.196656,38.653651 34.401626,15.32303 38.692026,9.2977205 44.961912,0.4924779 55.322105,0.33740043 60.36574,8.9732956 c 2.982931,5.1074844 1.467699,13.5592004 -3.3777,18.8402604 -3.146743,3.429673 -7.606363,12.134953 -9.658244,18.85311 -0.559943,1.833333 -4.449846,10.233333 -8.644229,18.666666 l -7.62615,15.333333 1.059068,14.666667 C 32.700973,103.4 33.534791,116.9 33.971417,125.33333 c 1.021928,19.73833 2.973074,28.87096 7.406389,34.66667 5.817171,7.60484 6.622195,10.0213 6.622195,19.8781 0,9.08118 -0.130213,9.45408 -4,11.45523 -4.530763,2.34295 -4.634766,2.72429 -2,7.33333 5.595561,9.78842 -3.656424,15.40203 -10.43818,6.33334 z M 23.316202,103.89797 C 20.163331,85.122137 20.923514,79.984911 29.374719,62.955238 40.410405,40.717686 40.912194,39.634462 42.543572,34.527325 c 0.844354,-2.643305 3.678365,-7.309828 6.297804,-10.370053 3.737292,-4.366186 4.57981,-6.292394 3.913492,-8.947218 -0.633471,-2.523951 -1.584486,-3.276532 -3.744608,-2.96328 -2.121206,0.307609 -3.529936,2.197616 -5.268063,7.067836 -1.304917,3.65637 -3.603532,8.3129 -5.108031,10.347844 -3.364101,4.550191 -11.967499,24.691417 -11.967499,28.016852 0,1.33481 -1.2,4.779122 -2.666667,7.654026 -1.466666,2.874904 -2.666666,6.853758 -2.666666,8.841895 0,1.988138 -1.008415,4.729082 -2.24092,6.090986 -1.959576,2.165306 -2.058447,3.601375 -0.787512,11.43832 1.588377,9.794377 6.064981,27.036697 6.822765,26.278907 0.260792,-0.26079 -0.554366,-6.59925 -1.811465,-14.08547 z M 126.98434,208.24329 c -1.81329,-1.17129 -0.90856,-9.05405 1.18788,-10.34973 0.63861,-0.39468 1.16112,-2.0022 1.16112,-3.57226 0,-2.22028 -0.35556,-2.49908 -1.6,-1.25464 -2.20346,2.20346 -7.06861,2.00752 -9.03674,-0.36394 -3.69057,-4.44686 -0.28539,-19.39436 6.69061,-29.36939 3.971,-5.67815 7.84142,-23.63835 8.65366,-40.1562 0.22059,-4.48591 0.83239,-15.72712 1.35956,-24.980481 0.76651,-13.45445 0.58871,-17.265004 -0.88764,-19.02461 C 130.71677,74.647704 122.24923,58.72338 113.77378,40.169607 112.64393,37.696225 108.69532,32.788091 104.9991,29.262644 98.347855,22.918697 98.287627,22.787612 99.146177,16.523816 100.14026,9.2711899 103.0663,5.3333332 107.4613,5.3333332 c 3.84414,0 4.47478,1.0660726 5.43708,9.1912088 0.57624,4.865491 1.42024,6.755431 3.22789,7.228143 1.57953,0.413056 2.72472,-0.232955 3.22889,-1.821437 1.04083,-3.279368 5.79129,-4.694966 8.05935,-2.40162 0.98109,0.992038 5.49714,9.003705 10.03565,17.803705 4.53852,8.8 9.3689,18.091114 10.73418,20.646921 1.36528,2.555806 2.48233,5.463184 2.48233,6.460838 0,0.997656 1.11017,3.406542 2.46705,5.35308 2.9866,4.284515 6.86628,15.492493 6.86628,19.835991 0,6.205852 -9.8483,44.787437 -16.13988,63.229367 -1.80765,5.29864 -2.21562,8.45568 -1.37841,10.66667 2.16323,5.71272 3.13765,21.7962 1.65077,27.24677 -1.67333,6.13407 -10.79514,19.74369 -13.55532,20.22433 -1.05077,0.18298 -2.66754,-0.15633 -3.59282,-0.75401 z m 7.68233,-28.39571 c 0,-2.38709 -0.70017,-3.84758 -1.84456,-3.84758 -2.20392,0 -3.55509,5.87481 -2.5379,11.03465 l 0.72965,3.70132 1.82641,-3.5204 c 1.00452,-1.93621 1.8264,-5.25181 1.8264,-7.36799 z M 148.51115,78.240495 c -0.42729,-2.801062 -1.55813,-5.392623 -2.51297,-5.759027 -0.95483,-0.366402 -2.09427,-2.575606 -2.53207,-4.909342 -1.59707,-8.513067 -18.43675,-39.712596 -20.3837,-37.765649 -2.08385,2.083851 14.28917,35.235167 21.28583,43.098555 2.10887,2.370109 2.52332,4.579756 2.25079,12 -0.45324,12.340086 0.14521,14.601594 1.52468,5.761633 0.6294,-4.033333 0.79475,-9.62511 0.36744,-12.42617 z M 78.666668,140.31872 c -3.664272,-1.14596 -4.99985,-4.17506 -4.112309,-9.32672 0.473019,-2.7456 0.541796,-12.74622 0.152839,-22.22361 -0.855326,-20.840922 0.249737,-25.565063 5.883872,-25.153561 2.119781,0.154824 4.203973,0.847531 4.63154,1.53935 0.427565,0.691818 0.760932,13.102502 0.740813,27.579291 -0.03471,24.97386 -0.171233,26.36981 -2.666667,27.26609 -1.446548,0.51954 -3.530088,0.66317 -4.630088,0.31916 z"
       id="path549" />
  </g>
</svg>
