<?xml version="1.0" encoding="UTF-8" standalone="no"?>
<!-- Created with Inkscape (http://www.inkscape.org/) -->

<svg
   version="1.1"
   id="svg465"
   width="216"
   height="225.33333"
   viewBox="0 0 216 225.33333"
   xmlns="http://www.w3.org/2000/svg"
   xmlns:svg="http://www.w3.org/2000/svg">
  <defs
     id="defs469" />
  <g
     id="g471">
    <path
       style="fill:#000000;stroke-width:1.33333"
       d="m 146.53039,216.7526 c -0.31942,-0.3194 -22.02486,-0.71924 -48.234333,-0.88855 -54.354288,-0.35111 -53.494929,-0.18589 -57.657149,-11.08451 -2.549429,-6.67558 -1.229425,-6.17609 -17.972241,-6.80068 -3.3,-0.1231 -8.55,-0.94184 -11.666667,-1.8194 -5.2412721,-1.4758 -5.6666667,-1.93556 -5.6666667,-6.12438 0,-3.76179 0.8984568,-5.16446 5.3048647,-8.28195 6.624715,-4.68692 6.832086,-7.76969 0.695135,-10.33387 -3.8707182,-1.61729 -4.6666663,-2.6357 -4.6666663,-5.97098 0,-10.78952 18.3479743,-7.62147 21.9709823,3.79362 0.627815,1.97807 1.676368,1.42654 6.546182,-3.44328 6.570566,-6.57057 9.766857,-7.14673 14.943712,-2.6938 5.043742,4.33846 3.739109,8.98176 -3.432211,12.21559 -6.271297,2.82796 -6.608673,4.38197 -1.906236,8.78051 4.770113,4.46181 6.302845,7.58437 7.149732,14.56574 0.642083,5.29307 1.147915,6.04856 4.293188,6.41212 4.340457,0.50172 12.582288,-3.54601 17.101317,-8.39878 5.96051,-6.40072 11.202366,-7.88039 27.999997,-7.90386 12.19708,-0.0171 16.24166,0.4652 19.77417,2.35771 2.44246,1.30853 7.97457,3.50804 12.29358,4.88779 4.319,1.37976 9.22063,3.24308 10.89249,4.14073 5.76722,3.09651 19.10235,5.14792 39.03976,6.00567 11,0.47325 20.75,1.4525 21.66667,2.17613 2.49711,1.97123 2.00856,6.04569 -0.91235,7.60892 -2.46926,1.32151 -56.28769,2.06908 -57.55726,0.79951 z M 112,203.90182 c 0,-2.35654 -13.369919,-4.32885 -17.835473,-2.63104 -6.052223,2.30104 -3.844078,3.39102 7.174013,3.5412 C 107.20234,204.8919 112,204.48233 112,203.90182 Z M 28.666667,188 C 28.213441,187.26666 27.013441,186.66666 26,186.66666 c -1.013441,0 -2.213441,0.6 -2.666667,1.33334 -0.469212,0.7592 0.679051,1.33333 2.666667,1.33333 1.987616,0 3.135879,-0.57413 2.666667,-1.33333 z m 54.644744,-68.14602 c -5.806535,-0.95863 -7.263395,-2.82508 -7.290994,-9.34084 -0.04609,-10.882252 15.672799,-22.939791 32.040523,-24.577413 6.99306,-0.69967 10.01614,-0.328948 16.13216,1.978288 10.21727,3.854418 17.85831,9.652901 21.10402,16.014995 3.19028,6.25346 3.38336,9.29588 0.81337,12.81615 -1.73756,2.38004 -4.14066,2.64178 -29.88305,3.25484 -15.39644,0.36666 -30.208656,0.30096 -32.916029,-0.14602 z m 56.677029,-8.981 c -0.017,-3.2468 -8.79739,-11.951173 -14.43252,-14.307603 -6.57248,-2.748398 -20.97074,-2.791518 -26.889253,-0.08053 -5.770559,2.64322 -9.767031,6.009473 -11.92776,10.046833 -3.059171,5.71612 -1.469699,6.04201 30.927763,6.3413 19.97844,0.18456 22.33212,-0.0263 22.32177,-2 z M 13.178912,42.193542 c -1.143216,-2.509087 -0.869641,-4.239332 1.361919,-8.613549 1.535876,-3.010568 2.792502,-6.157225 2.792502,-6.992573 0,-3.286072 9.777299,-17.2540868 12.077476,-17.2540868 2.959328,0 9.769791,8.4752958 13.393776,16.6679158 2.508468,5.670808 2.942935,6.037217 4.976451,4.196911 1.225417,-1.108988 3.391829,-5.015382 4.814247,-8.680874 6.467392,-16.6661149 10.084649,-16.0770827 22.128926,3.603462 3.236423,5.288366 4.667435,4.816405 8.375334,-2.762266 3.896836,-7.964848 8.108341,-13.0251488 10.840358,-13.0251488 1.843618,0 6.665659,5.6695908 12.777649,15.0235288 L 110,29.38039 l 2.99338,-3.690194 c 1.64635,-2.029608 2.99635,-4.086351 3,-4.570539 0.004,-0.484188 1.6132,-3.334188 3.5768,-6.333333 4.92792,-7.5267836 7.82347,-7.1352753 14.42982,1.951061 2.93333,4.034491 6.28616,8.614519 7.45073,10.177839 2.86222,3.842252 4.57322,2.452201 9.30266,-7.557658 4.51092,-9.5473864 6.74616,-11.9171109 10.18262,-10.7952849 2.41447,0.7881957 7.35859,7.3778039 11.06828,14.7520119 3.30566,6.571036 6.03548,5.823041 10.56624,-2.895225 4.69394,-9.032281 7.17892,-12.4190681 9.11222,-12.4190681 1.83352,0 13.65058,15.9512851 13.65058,18.4262761 0,1.059098 1.26039,3.96499 2.80087,6.457538 1.85293,2.998108 2.52123,5.646112 1.9746,7.824045 -1.65072,6.577024 -7.1884,2.540315 -13.31752,-9.707859 -1.92657,-3.85 -4.31888,-7 -5.31621,-7 -0.99735,0 -3.16323,3.137884 -4.81308,6.973074 -7.55799,17.569012 -13.05606,17.229085 -22.54122,-1.39365 -1.61185,-3.16465 -3.64842,-5.537674 -4.5257,-5.273387 -0.8773,0.264287 -3.73876,4.653547 -6.35883,9.753909 -4.49236,8.745079 -5.02408,9.273387 -9.33333,9.273387 -4.20551,0 -4.89612,-0.614883 -8.66834,-7.717814 -4.66297,-8.780187 -7.71551,-12.299706 -9.6375,-11.111851 -0.72902,0.45056 -2.3957,3.795348 -3.70373,7.432862 -2.30105,6.398995 -7.44005,13.396803 -9.83825,13.396803 -3.39694,0 -6.0743,-2.52595 -11.52047,-10.868952 -3.326779,-5.096301 -6.627263,-8.819148 -7.396904,-8.343483 -0.764359,0.472399 -3.082621,4.632018 -5.151697,9.243596 -5.980568,13.329559 -10.299334,13.119971 -19.480963,-0.9454 -6.936733,-10.626406 -7.360285,-10.578028 -13.133089,1.500076 -2.116794,4.428844 -4.970826,8.408587 -6.342292,8.843873 -3.099787,0.983835 -8.275159,-2.295854 -11.227435,-7.114946 -5.970299,-9.745505 -7.933815,-12.297261 -9.468907,-12.305653 -0.916666,-0.005 -1.666666,0.910836 -1.666666,2.035214 0,1.124379 -1.578687,5.174379 -3.508194,9 -4.882348,9.6802 -7.518798,11.216669 -9.979561,5.815884 z"
       id="path791" />
  </g>
</svg>
