<?xml version="1.0" encoding="UTF-8" standalone="no"?>
<!-- Created with Inkscape (http://www.inkscape.org/) -->

<svg
   version="1.1"
   id="svg213"
   width="208"
   height="216"
   viewBox="0 0 208 216"
   xmlns="http://www.w3.org/2000/svg"
   xmlns:svg="http://www.w3.org/2000/svg">
  <defs
     id="defs217" />
  <g
     id="g219">
    <path
       style="fill:#000000;stroke-width:1.33333"
       d="m 85.288047,211.9562 c -2.591575,-0.42687 -5.385247,-1.19223 -6.20816,-1.70081 -2.564179,-1.58475 -0.303831,-6.24015 3.412769,-7.02892 7.012768,-1.48831 9.507779,-3.11934 9.481016,-6.19788 -0.02224,-2.55846 -5.486385,-19.19968 -14.230243,-43.33864 -3.686492,-10.17722 1.606992,-19.02328 11.38353,-19.02328 4.801266,0 5.9702,0.79474 13.727271,9.33301 4.66351,5.13316 9.20192,9.33316 10.08535,9.33333 3.04151,6.2e-4 4.50413,-20.16854 2.17552,-29.99968 -1.79778,-7.58998 -0.12614,-13.51884 5.41024,-19.1886 2.6444,-2.70811 4.80799,-5.277303 4.80799,-5.709327 0,-0.432023 -2.55,-1.439275 -5.66666,-2.238339 -7.57438,-1.941949 -12.28087,-8.624597 -11.85592,-16.833977 0.46603,-9.00307 2.24856,-13.511283 7.36551,-18.628235 C 119.46973,56.441385 120.60504,56 127.3551,56 c 8.95747,0 13.71986,2.250404 18.96119,8.959864 5.59272,7.159288 7.17908,15.258573 8.01819,40.937456 l 0.73732,22.56399 -3.43451,2.76935 c -3.43218,2.76746 -3.43508,2.78786 -4.28626,30.10267 -0.46847,15.03334 -0.9641,30.02022 -1.10139,33.30418 -0.21097,5.04597 0.16343,6.03504 2.41703,6.38525 9.32573,1.44923 10.43717,2.71291 6.7823,7.71124 -1.75256,2.39677 -3.45453,2.55199 -24.33333,2.21911 -12.34694,-0.19686 -26.64897,0.12293 -31.782307,0.71064 -5.133333,0.5877 -11.453712,0.7193 -14.045286,0.29245 z M 130.2411,200.51707 c 3.2041,-0.85932 3.72302,-1.82182 6.74855,-12.51707 1.59555,-5.64027 2.03942,-13.56444 1.92256,-34.32277 l -0.15193,-26.98946 3.49848,-3.24396 3.49847,-3.24397 -0.8653,-18.43325 c -1.01176,-21.553359 -2.25501,-26.855765 -7.76945,-33.136369 -5.24642,-5.97534 -10.41101,-6.213485 -15.89171,-0.732785 -4.20642,4.206417 -5.09718,10.106728 -2.54086,16.830353 1.41781,3.729135 1.90835,3.779058 12.12162,1.233602 2.53679,-0.632248 3.70314,-0.280675 4.3093,1.298961 1.48748,3.876308 -1.90974,15.284788 -6.56808,22.056828 -4.56558,6.63719 -5.70955,11.14383 -3.21942,12.68282 1.97819,1.22259 1.63529,6.16245 -1.27594,18.38159 -1.43511,6.02345 -2.9863,15.60174 -3.4471,21.28508 C 119.81214,171.51089 119.61811,172 116.51106,172 c -1.89169,0 -3.62031,-0.97996 -4.11596,-2.33333 -1.35468,-3.69898 -16.341397,-22.6941 -18.584137,-23.55471 -5.064495,-1.94343 -7.144296,-0.8892 -7.144296,3.62137 0,2.42 0.503834,4.97 1.119632,5.66667 0.615798,0.69667 1.885669,3.36667 2.821936,5.93333 5.052653,13.85126 6.649424,18.55308 8.150556,24 0.909457,3.3 3.142379,8.25 4.962049,11 l 3.3085,5 10.15199,-0.0183 c 5.5836,-0.0107 11.4605,-0.36915 13.05977,-0.79807 z M 66.443395,42.832492 c -2.164455,-0.810468 -7.776728,-7.109369 -7.776728,-8.728164 0,-1.608081 -6.029314,-10.071727 -7.186343,-10.087823 -1.665741,-0.02317 -4.720459,4.249734 -4.771253,6.673982 -0.08271,3.947472 -6.680027,11.97618 -9.841018,11.97618 -3.624768,0 -8.710802,-5.107687 -13.276813,-13.333334 -3.882077,-6.993545 -6.225743,-7.586582 -7.903948,-2 -2.686023,8.941515 -5.485223,14 -7.7471393,14 C 5.3562657,41.333333 4,38.761355 4,33.861353 4,30.066731 13.450048,10.669556 16.553592,8.0938441 18.373761,6.5832376 19.326285,7.0516233 23.335587,11.42876 25.901013,14.229553 28,17.016727 28,17.622476 c 0,1.767708 6.911399,11.710857 8.140117,11.710857 0.615499,0 2.411532,-3.004368 3.991186,-6.676372 1.579654,-3.672005 5.015221,-8.55806 7.634594,-10.857899 5.394862,-4.7367512 4.061044,-5.5258195 12.735714,7.534271 5.87675,8.847703 8.165918,8.633182 13.516397,-1.266642 2.358208,-4.36332 5.655825,-8.5438063 7.32804,-9.289969 2.676987,-1.1945051 3.654328,-0.6446937 8.176897,4.599975 2.825079,3.276151 5.157214,6.856636 5.182519,7.956636 0.07496,3.25821 3.658344,7.068188 5.855006,6.225248 1.11206,-0.426737 2.91018,-2.901757 3.99581,-5.500044 C 107.06792,16.047333 113.17257,8 115.22099,8 c 2.26688,0 11.18451,9.475483 13.8441,14.710144 1.24754,2.455413 2.98925,4.690452 3.87047,4.966753 0.88123,0.276302 3.37108,-2.987969 5.53303,-7.253932 2.16193,-4.265964 5.45106,-9.173436 7.30918,-10.9054927 l 3.37839,-3.1491943 3.08859,3.3555901 c 4.71021,5.1174049 6.42128,7.3939719 6.42854,8.5531909 0.004,0.58095 1.39175,2.78727 3.08467,4.902932 2.68968,3.361306 3.44589,3.649794 5.99339,2.286421 1.60342,-0.858129 2.91532,-2.655397 2.91532,-3.993928 0,-2.482461 5.88822,-12.0946763 8.38156,-13.6824571 0.75714,-0.4821518 2.18213,-0.5675364 3.16664,-0.1897434 2.1649,0.8307538 8.67532,10.2982485 13.1389,19.1067245 1.7942,3.540684 3.8736,6.815479 4.62087,7.277323 0.74728,0.461842 1.35869,2.304304 1.35869,4.094358 0,2.682766 -0.66201,3.254644 -3.76758,3.254644 -4.5725,0 -8.27367,-3.765889 -12.12138,-12.333333 -1.5644,-3.483333 -3.41553,-6.333333 -4.11362,-6.333333 -1.37127,0 -3.24256,2.701872 -8.23216,11.885962 -4.54974,8.374466 -6.8121,9.468507 -11.17231,5.402752 -1.9398,-1.808793 -5.29576,-6.779049 -7.45769,-11.045013 -2.16195,-4.265963 -4.62944,-7.523416 -5.48334,-7.238785 -0.85389,0.284632 -3.6749,4.640613 -6.26889,9.679957 -2.594,5.039344 -5.74473,9.780089 -7.00165,10.534992 -3.26534,1.961175 -8.87353,-2.555667 -13.17146,-10.608328 -3.19402,-5.984332 -7.09068,-10.042561 -8.22341,-8.564377 -0.2611,0.340728 -2.64525,4.819506 -5.29811,9.95284 -7.28488,14.09638 -11.211511,13.39381 -21.322238,-3.815055 -1.998613,-3.40172 -4.098613,-6.163959 -4.666667,-6.138309 -0.568054,0.02565 -2.972453,4.198989 -5.343108,9.274085 -4.426764,9.476812 -7.3562,12.301739 -11.246322,10.845104 z"
       id="path688" />
  </g>
</svg>
