<?xml version="1.0" encoding="UTF-8" standalone="no"?>
<!-- Created with Inkscape (http://www.inkscape.org/) -->

<svg
   version="1.1"
   id="svg185"
   width="221.33333"
   height="153.33333"
   viewBox="0 0 221.33333 153.33333"
   xmlns="http://www.w3.org/2000/svg"
   xmlns:svg="http://www.w3.org/2000/svg">
  <defs
     id="defs189" />
  <g
     id="g191">
    <path
       style="fill:#000000;stroke-width:1.33333"
       d="m 155.73426,141.95649 c -0.37184,-0.37184 -3.01417,-0.91653 -5.87184,-1.21041 -7.13004,-0.73326 -9.3557,-1.77415 -11.81317,-5.52471 -2.55067,-3.89281 -8.51,-4.20716 -22.71542,-1.19823 C 110.20077,135.11041 99.574301,136 91.719455,136 c -7.854847,0 -20.155071,0.56942 -27.333831,1.2654 -48.655627,4.71708 -52.631656,4.74045 -54.3938167,0.31978 C 9.4981096,136.34666 8.7704985,130.80367 8.3748937,125.26743 7.2563559,109.61418 7.736281,109.40916 39.333333,112.04216 c 8.8,0.73331 28.599999,1.61438 43.999999,1.95793 15.4,0.34355 33.216248,0.9951 39.591658,1.44788 11.25959,0.79967 11.69261,0.7223 15.11571,-2.7008 5.5945,-5.59449 12.79558,-7.31061 27.9593,-6.66309 18.13466,0.77438 20.82757,1.35762 32.16113,6.96561 8.46776,4.18996 9.83887,5.35269 9.83887,8.3436 0,4.63899 -4.21015,8.24205 -14.66667,12.55179 -10.95151,4.51374 -35.80176,9.8087 -37.59907,8.01141 z m 13.59956,-10.55715 c 19.91342,-4.44397 23.99951,-6.03057 23.99951,-9.31881 0,-2.17013 -18.94533,-6.60193 -28,-6.54992 -19.75127,0.11346 -23.76732,4.93116 -4.55907,5.46912 15.09659,0.42281 18.6302,1.17136 16.67136,3.53163 -0.9212,1.10998 -6.46581,2.09985 -15.08856,2.69373 -7.49769,0.5164 -13.89528,1.202 -14.21684,1.52357 -1.09366,1.09366 0.81454,1.99217 6.67564,3.14334 3.21795,0.63204 5.85103,1.21489 5.8513,1.29524 2.8e-4,0.0804 3.90028,-0.7242 8.66666,-1.7879 z m -112.000488,-4.0739 c 22.516683,-0.87392 34.666667,-2.0998 34.666667,-3.49772 0,-0.63858 -6.15,-1.18929 -13.666667,-1.22379 -7.516666,-0.0345 -23.717035,-0.38261 -36.000819,-0.77358 -19.551112,-0.62227 -22.4349,-0.4483 -23.142652,1.39607 -0.444673,1.1588 -0.43934,3.06892 0.01187,4.24471 0.694148,1.80892 2.408318,2.01191 11.142652,1.31949 5.67725,-0.45007 17.822286,-1.1094 26.988952,-1.46518 z M 32.470122,58.9691 9.6069115,58.604869 8.7626631,55.241116 C 8.2983264,53.391052 8.3646556,51.154956 8.9100611,50.272014 11.163386,46.62417 31.196796,20.357018 34.638227,16.538082 L 38.358701,12.409497 72.846016,11.40887 C 91.81404,10.858525 127.43333,10.158942 152,9.8542413 c 24.56666,-0.3047008 47.26804,-0.6965555 50.44749,-0.8707882 3.51192,-0.192452 6.35365,0.3738058 7.24032,1.4427419 1.95297,2.354426 2.93652,44.208402 1.10231,46.907137 -1.18195,1.739023 -11.41332,2 -78.40806,2 -42.376799,0 -87.337173,-0.163904 -99.911938,-0.364232 z M 198.33333,47.57464 C 199.48374,46.839286 200,42.397083 200,33.233651 V 19.958016 l -75,0.612046 c -57.046496,0.465535 -76.173819,1.029114 -79.903577,2.354326 -3.456222,1.228022 -7.490114,4.877313 -13.666666,12.363649 -4.8197,5.841753 -8.763091,11.392269 -8.763091,12.334481 0,1.381309 16.850461,1.645744 87.000004,1.365293 47.84999,-0.1913 87.74999,-0.827227 88.66666,-1.413171 z"
       id="path213" />
  </g>
</svg>
