<?xml version="1.0" encoding="UTF-8" standalone="no"?>
<!-- Created with Inkscape (http://www.inkscape.org/) -->

<svg
   version="1.1"
   id="svg175"
   width="426.66666"
   height="217.33333"
   viewBox="0 0 426.66666 217.33333"
   xmlns="http://www.w3.org/2000/svg"
   xmlns:svg="http://www.w3.org/2000/svg">
  <defs
     id="defs179" />
  <g
     id="g181">
    <path
       style="fill:#000000;stroke-width:1.33333"
       d="m 38.345045,206.74094 c -5.085612,-0.6926 -7.256463,-1.88153 -11.102907,-6.08088 -5.594409,-6.10766 -6.456317,-7.58562 -9.288368,-15.92724 -2.678824,-7.89029 -1.68264,-18.61308 2.669382,-28.73282 1.734544,-4.03334 3.937777,-9.43334 4.896072,-12 0.958296,-2.56667 6.708499,-9.97688 12.778231,-16.46715 6.069734,-6.49026 11.035878,-12.90485 11.035878,-14.25464 0,-1.34979 0.6,-2.82499 1.333333,-3.27821 1.603204,-0.99084 1.799721,-7.33333 0.227217,-7.33333 -0.608364,0 -4.752733,-3.300005 -9.209712,-7.333338 C 37.227194,91.299999 33.182089,87.999999 32.69505,87.999999 31.554462,87.999999 28,84.457835 28,83.321193 28,82.843089 25.982762,79.350232 23.51725,75.55929 18.34258,67.602778 14.666666,60.299478 14.666666,57.97496 c 0,-0.888436 -1.2,-3.14089 -2.666666,-5.005455 -2.0602011,-2.61912 -2.6666668,-5.409046 -2.6666668,-12.267467 0,-9.763904 0.8351218,-11.999729 7.6158068,-20.389392 6.867613,-8.497216 10.980038,-10.15597 22.71883,-9.163679 11.109824,0.939124 13.664516,2.006202 19.057552,7.96021 4.821192,5.322683 6.066537,8.530413 7.976676,20.546121 0.905545,5.696325 2.771822,11.478003 4.55155,14.100577 1.659155,2.444901 4.950868,8.374239 7.314917,13.176305 4.280826,8.695591 7.807263,11.734485 13.617099,11.734485 1.499825,0 4.264836,1.209696 6.144465,2.688212 5.083111,3.998379 11.524471,2.318328 19.181161,-5.002885 3.39794,-3.24905 7.82191,-6.760204 9.83107,-7.802564 2.00915,-1.042361 5.6999,-3.692402 8.20166,-5.888981 2.50177,-2.19658 5.45169,-3.993781 6.55538,-3.993781 1.10371,0 4.35892,-1.2 7.23383,-2.666667 3.16604,-1.615193 7.85836,-2.666666 11.90028,-2.666666 3.67025,0 9.3502,-0.908867 12.62209,-2.019704 3.2719,-1.110838 8.54287,-1.966663 11.71327,-1.901834 3.1704,0.06483 19.6238,0.02297 36.56311,-0.093 36.17537,-0.247682 37.78137,0.02219 66.53458,11.180573 2.2,0.853763 5.5,2.523803 7.33334,3.711198 1.83333,1.187396 5.73333,2.90003 8.66666,3.805854 2.93334,0.905826 7.32326,3.133679 9.75538,4.950786 3.58757,2.680369 5.34885,3.140798 9.33333,2.43989 2.70121,-0.475166 7.45989,-1.196454 10.57485,-1.602862 5.19671,-0.678014 5.88508,-1.239726 8.35109,-6.814572 1.47816,-3.34161 3.02124,-8.531304 3.42907,-11.532656 2.26181,-16.645152 14.8894,-40.529418 23.08732,-43.668183 6.98704,-2.6751459 20.15635,-0.772782 29.58603,4.273827 3.55578,1.903 9.21657,12.175463 9.21444,16.721161 -0.004,9.662427 -4.05471,26.490205 -7.643,31.755327 -6.87188,10.083165 -28.2646,30.127527 -32.15418,30.127527 -1.67886,0 -9.53433,9.871325 -9.53433,11.981025 0,1.41468 16.85347,18.68564 18.23396,18.68564 0.30061,0 3.94501,2.55 8.09867,5.66667 4.15365,3.11666 8.68118,6.31621 10.06116,7.1101 6.96182,4.0051 15.5656,14.45946 18.39962,22.3572 4.24819,11.83867 4.94406,29.53999 1.4319,36.42439 -2.23947,4.38971 -3.72647,5.48316 -10.14419,7.45935 -4.13604,1.2736 -8.56911,2.31562 -9.85128,2.31562 -3.57981,0 -22.84981,-16.17825 -29.43155,-24.70946 -3.22761,-4.1836 -7.46742,-11.71646 -9.42181,-16.73967 -5.71701,-14.69395 -11.26529,-18.50101 -15.37648,-10.55087 -2.46724,4.77112 -2.50439,4.77827 -5.89843,1.1352 -2.64422,-2.83824 -2.73806,-2.84306 -10.12408,-0.51988 -4.10032,1.28971 -9.07265,3.67786 -11.04963,5.30699 -4.5937,3.78543 -12.14687,7.71136 -22.26119,11.57077 -4.4,1.67895 -8.66812,3.53536 -9.48471,4.12536 -3.82081,2.7606 -41.05086,9.33599 -64.87816,11.45847 -14.01104,1.24807 -52.33468,-4.36964 -56.97046,-8.35108 -1.1,-0.94473 -6.2,-3.67072 -11.33334,-6.05776 -5.13333,-2.38704 -10.53333,-4.97425 -12,-5.74936 -1.46666,-0.77511 -4.30942,-2.23923 -6.31723,-3.25361 -2.00782,-1.01439 -4.10782,-2.6121 -4.66667,-3.55044 -0.55885,-0.93836 -4.0161,-3.97256 -7.68276,-6.74268 -3.66667,-2.77012 -8.69037,-7.39352 -11.16379,-10.27424 -3.97736,-4.63232 -4.97313,-5.13312 -8.615732,-4.33307 -4.476139,0.98312 -14.220479,6.92441 -14.220479,8.67047 0,0.59442 -1.726612,2.1007 -3.836916,3.34729 -3.112114,1.83837 -3.976526,3.44529 -4.575963,8.5066 -0.655219,5.53231 -2.780814,11.83505 -6.416566,19.02621 -0.643806,1.27339 -1.170555,3.19644 -1.170555,4.27347 0,2.92963 -7.917193,18.93528 -10.456133,21.13847 -2.8138,2.44169 -11.082057,3.4525 -19.198821,2.3471 z M 401.02663,176.42332 c -0.59885,-9.33132 -1.00028,-10.5143 -4.50868,-13.28626 -10.42204,-8.23438 -12.51796,-10.19094 -12.51796,-11.6856 0,-2.45133 -6.60312,-8.12945 -13.33333,-11.46554 -3.3,-1.63578 -8.46197,-4.96982 -11.47104,-7.40899 -3.80795,-3.08675 -5.89501,-4.01088 -6.86577,-3.04011 -1.60559,1.60558 -6.13458,0.46798 -8.81732,-2.21476 -3.60752,-3.60752 -11.92576,-8.6554 -14.26296,-8.6554 -1.30807,0 -4.29771,-1.61506 -6.64364,-3.58904 l -4.26533,-3.58904 2.97741,-2.41096 c 1.63757,-1.32602 3.85709,-2.41095 4.93226,-2.41095 1.83452,0 9.74972,-6.925764 9.74972,-8.530958 0,-0.404845 4.5,-5.324552 10,-10.93268 9.18576,-9.366355 11.48576,-12.536366 9.09574,-12.536366 -0.49735,0 -5.60696,4.576411 -11.35471,10.169803 l -10.45044,10.169803 -8.31196,-0.938431 c -5.07625,-0.573116 -11.16669,-2.438065 -15.64529,-4.79073 -9.67013,-5.079851 -13.29381,-6.396423 -26,-9.446423 -5.86667,-1.408239 -14.26667,-3.691691 -18.66667,-5.074338 -14.68652,-4.615064 -28.24237,-7.157727 -32.22106,-6.043687 -2.07842,0.581957 -4.37894,0.888008 -5.11227,0.680113 -4.17251,-1.182873 -38.48997,0.305164 -45.72288,1.982588 -4.64343,1.076883 -10.45561,1.957968 -12.91599,1.957968 -5.86862,0 -15.20612,4.123757 -19.26021,8.505968 -1.77784,1.921717 -3.87784,3.497728 -4.66667,3.502247 -0.78884,0.0045 -2.93425,0.816476 -4.76758,1.804353 -9.94957,5.361239 -20.01301,11.111557 -25.26104,14.43433 -3.26024,2.06421 -6.56024,3.75477 -7.33334,3.75681 -1.21353,0.003 -6.1626,-2.17309 -15.896152,-6.990112 -4.256061,-2.106277 -5.830073,1.096965 -2.356096,4.794842 3.753403,3.99532 2.837577,8.66215 -2.807711,14.30744 -4.410148,4.41015 -4.208234,6.0204 0.553856,4.417 4.416198,-1.48693 6.671266,-0.92991 17.098993,4.22361 5.09348,2.51726 9.99468,4.57684 10.89155,4.57684 0.89688,0 3.16352,1.4451 5.03698,3.21132 3.89231,3.66952 42.49296,23.45535 45.7596,23.45535 1.18578,0 2.46801,0.50488 2.84937,1.12195 1.04848,1.69646 18.12715,5.27066 36.79732,7.70089 17.49307,2.277 37.02384,2.57277 42.66667,0.64616 1.83333,-0.62596 6.63333,-1.87383 10.66666,-2.77304 10.24914,-2.28501 18.25804,-5.01716 25.77622,-8.79327 3.54358,-1.77981 6.9635,-3.23602 7.59982,-3.23602 0.63632,0 3.73703,-1.65 6.89046,-3.66667 3.15342,-2.01667 6.9335,-4.42423 8.40017,-5.35015 5.55709,-3.50821 14.91845,-7.27538 21.62545,-8.70244 7.79731,-1.65902 9.9898,-0.91009 22.37455,7.64292 16.75632,11.57204 19.17406,13.86656 20.74033,19.68324 1.83719,6.8228 8.2234,16.05456 12.80056,18.50418 1.83273,0.98085 3.90691,2.85712 4.60925,4.16948 0.90791,1.69642 2.85568,2.3861 6.73878,2.3861 h 5.46176 z m -352.502681,5.06772 c 1.248821,-1.37994 2.880893,-4.82994 3.626826,-7.66667 0.745934,-2.83675 2.59442,-7.85771 4.107747,-11.15771 2.597074,-5.66324 7.012477,-30.50677 5.66195,-31.8573 -1.49135,-1.49135 -10.178517,9.0108 -14.122031,17.07249 -2.36348,4.83165 -5.985008,11.29292 -8.04784,14.35839 -4.279762,6.35992 -4.511502,8.05689 -1.818755,13.31837 1.062516,2.07609 2.243685,4.82472 2.62482,6.10805 0.911536,3.06927 5.114541,2.97662 7.967283,-0.17562 z m 23.47605,-52.82438 c 0,-3.81421 -0.736183,-4.12096 -3.428572,-1.42857 C 65.878308,129.93121 66.209314,132 69.333332,132 c 1.955556,0 2.666667,-0.88889 2.666667,-3.33334 z M 81.333332,124 c 0,-0.73334 -1.5,-1.33334 -3.333333,-1.33334 -1.833334,0 -3.333334,0.6 -3.333334,1.33334 0,0.73333 1.5,1.33333 3.333334,1.33333 1.833333,0 3.333333,-0.6 3.333333,-1.33333 z M 67.999999,81.291485 c 0,-1.489681 -1.049633,-3.111294 -2.332519,-3.603584 -1.282886,-0.492289 -4.203072,-2.597235 -6.489302,-4.677659 -3.368268,-3.065055 -4.322712,-5.194388 -5.031507,-11.22513 -0.499123,-4.24676 -2.004653,-8.879013 -3.506176,-10.78789 -1.447298,-1.839941 -3.256613,-5.66702 -4.0207,-8.504619 -1.148858,-4.266538 -1.973614,-5.15927 -4.766426,-5.15927 -3.453848,0 -7.186703,2.703988 -7.186703,5.205869 0,0.767989 1.197757,3.360847 2.661683,5.761904 1.463925,2.401059 2.663925,5.984676 2.666666,7.963594 0.0037,2.692496 2.895451,6.63542 11.489854,15.666667 11.406983,11.986789 16.51513,14.881882 16.51513,9.360118 z M 361.22475,71.46415 c 1.78599,-2.151975 7.66002,-4.03094 11.18808,-3.578806 3.0994,0.3972 6.25383,-2.223594 6.25383,-5.195876 0,-1.27454 1.35,-4.351072 3,-6.83674 5.37152,-8.09201 6.87225,-14.179745 4.93935,-20.036509 -1.39794,-4.235766 -2.31228,-5.142029 -5.15276,-5.107149 -1.8993,0.02332 -4.60815,0.916167 -6.01968,1.984099 -2.94943,2.231462 -6.05079,10.242933 -6.08016,15.706377 -0.0241,4.477696 -2.71203,10.003384 -6.56015,13.485884 -2.33692,2.114885 -6.79327,9.321696 -6.79327,10.986086 0,1.268115 3.86931,0.22586 5.22476,-1.407366 z"
       id="path352" />
  </g>
</svg>
