<?xml version="1.0" encoding="UTF-8" standalone="no"?>
<!-- Created with Inkscape (http://www.inkscape.org/) -->

<svg
   version="1.1"
   id="svg75"
   width="146.66667"
   height="221.33333"
   viewBox="0 0 146.66667 221.33333"
   xmlns="http://www.w3.org/2000/svg"
   xmlns:svg="http://www.w3.org/2000/svg">
  <defs
     id="defs79" />
  <g
     id="g81">
    <path
       style="fill:#000000;stroke-width:1.33333"
       d="m 43.666668,213.22653 c -3.211624,-1.8706 -3.006958,-8.16439 0.333333,-10.25044 1.466667,-0.91595 2.666667,-2.63943 2.666667,-3.82996 0,-2.77645 -8.178503,-10.50279 -14.567787,-13.76236 -6.465474,-3.29844 -16.988975,-16.17532 -18.947948,-23.18529 -2.632346,-9.41959 -1.860511,-20.54766 2.140786,-30.86515 2.820496,-7.27275 3.666205,-11.86228 3.830619,-20.78815 0.13835,-7.51095 -0.365266,-12.151552 -1.462734,-13.47846 -2.98226,-3.605739 -6.995208,-17.321721 -6.907331,-23.608788 0.132079,-9.449509 2.947823,-20.245819 6.813454,-26.124599 1.928833,-2.933334 7.51054,-9.233334 12.403794,-14 9.947733,-9.690391 12.697147,-13.996652 12.697147,-19.886875 0,-5.2656105 3.196736,-6.9669062 9.333333,-4.9671797 5.607399,1.8272767 6.549114,5.3754637 3.1222,11.7638077 C 52.541025,25.054834 52.374947,45.983709 54.124272,146 c 0.664344,37.98332 1.027779,43.3524 3.310993,48.91384 2.638298,6.42636 3.268538,12.63762 1.544319,15.21989 -2.716156,4.06781 -10.826508,5.70589 -15.312916,3.0928 z m 0.286421,-45.13888 c 0.759135,-1.41845 1.377265,-8.76845 1.373623,-16.33333 -0.006,-12.33611 -0.32196,-14.14839 -3.064871,-17.57615 l -3.058247,-3.82181 -4.268463,8.00845 c -4.940478,9.26929 -5.375085,13.03479 -1.61785,14.01732 3.234909,0.84595 5.791227,7.04015 4.851959,11.75676 -1.124862,5.64857 3.268781,8.64821 5.783849,3.94876 z m 1.001819,-89.194571 c 0.41764,-30.278097 0.160832,-42.870181 -0.887524,-43.518102 -1.556443,-0.961934 -4.891,2.416016 -9.521451,9.645357 -3.646635,5.693348 -6.924407,21.114456 -5.1805,24.372976 0.71042,1.32743 0.937722,3.335886 0.505118,4.463234 -0.432604,1.127348 1.090858,5.331095 3.38547,9.341659 4.500011,7.865198 8.077313,23.153107 8.077313,34.519087 0,5.09403 0.383242,6.4328 1.516943,5.2991 1.044655,-1.04466 1.699913,-14.78207 2.104631,-44.123311 z M 33.239621,110.33333 c 0.05154,-0.55 -0.506287,-1 -1.23962,-1 -0.733334,0 -1.291163,1.65 -1.23962,3.66667 0.08304,3.24912 0.224204,3.363 1.23962,1 0.630248,-1.46667 1.188077,-3.11667 1.23962,-3.66667 z M 28.78453,89.673417 c -1.433988,-1.433989 -2.195267,0.574335 -1.18864,3.135744 0.944276,2.402752 1.015591,2.406912 1.482581,0.08648 0.269824,-1.34073 0.137551,-2.79073 -0.293941,-3.222224 z m 75.13865,122.752643 c -0.0422,-0.601 -0.27944,-3.19273 -0.52708,-5.7594 C 103.14846,204.1 102.56535,187 102.10031,168.66666 101.63527,150.33333 100.94749,123.93333 100.5719,110 99.465086,68.93991 99.016349,22.476566 99.661309,15.715128 c 0.427831,-4.485143 1.271991,-6.4983124 2.947931,-7.0302331 4.00107,-1.2698919 6.50435,0.6505491 8.84833,6.7881901 1.59764,4.183361 3.20576,6.143249 5.51647,6.723201 C 120.46754,23.0731 128,32.37374 128,35.810501 c 0,1.142385 1.98025,4.202362 4.40055,6.799948 2.42029,2.597586 5.17796,7.02493 6.12812,9.838544 2.73429,8.096677 2.14508,21.615462 -1.40419,32.217672 -2.68793,8.029307 -3.0883,11.63381 -2.8656,25.798565 0.20859,13.26676 0.6686,16.76484 2.36807,18.00751 3.31769,2.42596 6.27279,15.35891 4.64645,20.3352 -0.87088,2.66475 -0.90273,5.32674 -0.0893,7.46618 0.94617,2.48865 0.64237,4.63288 -1.20793,8.52538 -1.35963,2.86027 -2.79387,6.7005 -3.1872,8.53383 -0.68775,3.20571 -12.00277,16 -14.15008,16 -0.57458,0 -1.71132,1.65 -2.52609,3.66667 -3.90913,9.67561 -10.50704,19.68676 -13.24224,20.09273 -1.5788,0.23433 -2.90512,-0.0657 -2.94738,-0.66667 z m 13.40353,-38.12132 c 0.004,-0.56572 1.48036,-3.26572 3.28158,-6 4.56221,-6.92548 5.32784,-13.88948 2.74539,-24.97141 -1.19623,-5.13333 -2.50358,-11.26413 -2.90521,-13.62399 -0.81936,-4.81425 -5.91613,-11.04268 -9.0363,-11.04268 -1.79317,0 -1.97508,3.28216 -1.45946,26.33334 0.32397,14.48333 0.63872,29.03333 0.69945,32.33333 l 0.11041,6 3.27876,-4 c 1.80332,-2.2 3.28174,-4.46287 3.28538,-5.02859 z m -3.96989,-75.650643 c 1.42636,-0.763366 3.37601,-4.37021 4.5045,-8.333333 1.09431,-3.843088 2.96996,-10.408604 4.16811,-14.590036 2.61301,-9.119121 1.61761,-20.791434 -2.18536,-25.626126 -1.4486,-1.8416 -2.51073,-5.314693 -2.51073,-8.209921 C 117.33334,36.280943 114.28508,32 110.2878,32 c -2.44691,0 -2.56167,0.586738 -1.6299,8.333333 0.55128,4.583333 0.91548,8.933333 0.80933,9.666666 -0.10615,0.733334 -0.50636,12.283333 -0.88934,25.666667 -0.72333,25.276934 -0.60075,25.866554 4.77893,22.987431 z"
       id="path630" />
  </g>
</svg>
