<?xml version="1.0" encoding="UTF-8" standalone="no"?>
<!-- Created with Inkscape (http://www.inkscape.org/) -->

<svg
   version="1.1"
   id="svg257"
   width="205.33333"
   height="249.33333"
   viewBox="0 0 205.33333 249.33333"
   xmlns="http://www.w3.org/2000/svg"
   xmlns:svg="http://www.w3.org/2000/svg">
  <defs
     id="defs261" />
  <g
     id="g263">
    <path
       style="fill:#000000;stroke-width:1.33333"
       d="m 89.941141,243.01772 c -1.606118,-0.27378 -4.070392,-2.94475 -6,-6.50327 -3.560321,-6.56583 -13.645131,-15.73796 -16.293426,-14.81887 -0.906244,0.31451 -3.876153,-0.2041 -6.599799,-1.15249 -2.723645,-0.94837 -6.997366,-1.39241 -9.497157,-0.98676 -2.499792,0.40567 -4.916501,0.13659 -5.370465,-0.59795 -0.453964,-0.73453 -0.960255,-7.93252 -1.125088,-15.99554 C 44.837349,192.30617 45.243093,187.7153 46.541013,186.1514 48.007993,184.3838 51.27065,184 64.829926,184 c 9.113175,0 16.503406,-0.54731 16.503406,-1.22223 0,-0.67221 -0.502979,-1.42221 -1.117731,-1.66667 -1.351986,-0.53758 -17.079198,-18.85438 -21.057242,-24.52444 -8.630161,-12.3009 -14.680424,-31.16709 -13.416762,-41.83673 0.402573,-3.3991 2.132086,-8.85838 3.843361,-12.13173 2.514649,-4.810047 4.070265,-6.189097 8.110734,-7.190152 4.611902,-1.142629 5.318543,-0.912116 9.118484,2.974556 4.909986,5.022056 5.743841,12.916846 1.678279,15.889656 -4.331155,3.16702 -6.492456,1.54469 -6.492456,-4.8734 0,-6.81304 -1.961168,-8.12436 -6.044156,-4.04137 -2.652383,2.65238 -2.803517,3.71313 -1.931923,13.55941 1.584019,17.89443 9.675135,34.04296 24.304024,48.5068 10.461291,10.34327 11.990757,11.48551 14.684614,10.96671 1.246118,-0.23997 2.792251,-2.23049 3.435852,-4.42337 2.328563,-7.93386 20.88324,-45.84023 31.15556,-63.6494 5.20342,-9.02118 6.43911,-10.337641 9.7034,-10.337641 6.30528,0 6.31075,5.510081 0.012,12.666671 -1.29073,1.46666 -2.78472,4.16666 -3.31996,6 -0.53524,1.83333 -2.09026,4.55716 -3.4556,6.05295 -2.69471,2.95283 -13.78196,24.27474 -17.65164,33.94704 -1.32026,3.3 -3.51163,8.7 -4.86972,12 -6.81344,16.55592 -10.483413,33.92198 -11.522017,54.5213 -0.806872,16.00324 -1.778613,18.64466 -6.559292,17.82976 z M 87.285011,215 c 0.406549,-2.75 1.606192,-8.58162 2.665873,-12.95915 1.473793,-6.08821 1.55386,-8.18956 0.340611,-8.93939 -0.872346,-0.53914 -7.157968,-0.98025 -13.968048,-0.98025 -6.810081,0 -13.007731,-0.38675 -13.772555,-0.85943 -0.764822,-0.47269 -3.451656,-0.47277 -5.97074,-2e-4 l -4.580153,0.85926 V 202.06041 212 h 6 c 5.071383,0 6,-0.40468 6,-2.61472 0,-4.20619 5.198321,-8.05195 10.883841,-8.05195 4.3177,0 5.363043,0.60985 7.228372,4.217 1.41386,2.73409 1.939377,6.01613 1.494449,9.33333 C 83.102268,218.64418 83.400776,220 84.733123,220 c 1.074385,0 2.113778,-2.03652 2.551888,-5 z m -12.618346,-1.74536 c 0,-2.3796 -0.555436,-3.73542 -1.333333,-3.25464 -0.733333,0.45322 -1.333333,2.28864 -1.333333,4.07869 0,1.79005 0.6,3.25464 1.333333,3.25464 0.733333,0 1.333333,-1.83541 1.333333,-4.07869 z m 113.442225,1.91429 c -3.21988,-4.09341 -14.77556,-27.75808 -14.77556,-30.25859 0,-0.94069 -0.52752,-2.28034 -1.17227,-2.97701 -1.81432,-1.96044 -3.91045,-9.54603 -5.98086,-21.64393 -1.61942,-9.46262 -1.62579,-12.80356 -0.0445,-23.33334 4.36856,-29.09094 1.3456,-43.981295 -11.58718,-57.075734 -6.8475,-6.933086 -8.86495,-8.16864 -16.18551,-9.912504 -4.59963,-1.0957 -10.28774,-2.616419 -12.64025,-3.379375 -2.35251,-0.762955 -7.45251,-1.372384 -11.33333,-1.354284 -15.540545,0.07248 -37.985613,-1.227063 -42.389391,-2.454287 -8.659176,-2.413097 -17.161121,-4.11321 -20.569392,-4.11321 -1.863694,0 -5.214341,-1.65 -7.44588,-3.666667 -3.487214,-3.151434 -4.095576,-4.697129 -4.329428,-11 -0.149645,-4.033333 0.23405,-9.586435 0.852656,-12.340227 l 1.12474,-5.006895 -13.988239,0.223917 C 15.88087,27.0651 12.942072,26.683629 9.1657993,24.478166 1.3923624,19.938234 2.2628946,13.206112 11.361266,7.4998759 17.389717,3.7190058 17.658738,3.6795469 30.972259,4.6234293 45.748423,5.6710081 49.40651,7.1988018 52.635236,13.670937 c 2.568259,5.148196 2.556646,8.778632 -0.05684,17.768703 -1.942695,6.682642 -1.924378,7.460837 0.262776,11.163394 1.293075,2.189001 3.086776,4.262328 3.986002,4.607393 2.368804,0.908995 38.298908,-2.674226 41.302815,-4.119029 4.814631,-2.315715 37.399941,-0.792984 47.870011,2.236993 2.2,0.636668 6.6561,1.929291 9.90246,2.872495 4.36792,1.269064 8.5578,4.325713 16.11584,11.757016 8.41139,8.270336 10.85536,11.671205 13.85208,19.275661 5.99384,15.209876 5.19275,38.172387 -2.44554,70.099767 -2.11888,8.85677 -0.84412,31.16335 2.25312,39.42597 1.11865,2.9843 4.77138,9.82483 8.1172,15.2012 4.81494,7.73711 5.8082,10.28927 4.76382,12.2407 -1.92034,3.5882 -7.22804,3.0639 -10.45009,-1.03227 z m -10.79597,-76.75691 c 0.0112,-1.24005 -0.57959,-2.62546 -1.31292,-3.07869 -0.8009,-0.49499 -1.32519,1.20401 -1.31292,4.25464 0.0152,3.77003 0.35346,4.56333 1.31292,3.07869 0.71088,-1.1 1.30169,-3.01458 1.31292,-4.25464 z m 1.44132,-28.77971 c -1.02034,-1.75078 -1.32082,-0.70928 -1.26011,4.36769 0.0768,6.4242 0.1256,6.50781 1.33981,2.29897 0.81642,-2.82981 0.78835,-5.17716 -0.0797,-6.66666 z m -1.25708,-18.965645 c -0.75095,-2.566666 -1.71944,-6.368499 -2.15223,-8.448518 -1.53865,-7.394883 -20.35467,-23.551481 -27.42812,-23.551481 -0.82784,0 -3.09779,-1.132391 -5.04432,-2.516424 -3.41364,-2.427177 -15.35294,-3.621575 -29.53916,-2.955071 -8.7805,0.41253 -0.67966,2.946734 13.74519,4.299939 10.29646,0.965919 15.20312,2.1144 20.25481,4.740971 3.66667,1.906442 8.52056,4.433231 10.78643,5.615087 6.64956,3.468355 18.73748,25.926713 19.44652,36.130012 0.12813,1.84368 0.47217,0.65215 0.76457,-2.64785 0.2924,-3.299998 -0.0828,-8.099998 -0.83369,-10.666665 z M 104.35871,53.792083 c -0.90271,-0.36523 -2.70271,-0.387462 -4,-0.0494 -1.297293,0.338054 -0.558712,0.636879 1.64129,0.664051 2.2,0.02717 3.26142,-0.24942 2.35871,-0.614651 z M 38.161566,15.86591 c 1.871353,-1.553084 1.841759,-1.899254 -0.296007,-3.462426 -2.968857,-2.170882 -9.361103,-2.218115 -17.179758,-0.126944 -5.793711,1.549581 -7.830175,4.11951 -4.352468,5.492626 3.18478,1.257459 19.761346,-0.18789 21.828233,-1.903256 z"
       id="path285" />
  </g>
</svg>
