<?xml version="1.0" encoding="UTF-8" standalone="no"?>
<!-- Created with Inkscape (http://www.inkscape.org/) -->

<svg
   version="1.1"
   id="svg247"
   width="130.66667"
   height="217.33333"
   viewBox="0 0 130.66667 217.33333"
   xmlns="http://www.w3.org/2000/svg"
   xmlns:svg="http://www.w3.org/2000/svg">
  <defs
     id="defs251" />
  <g
     id="g253">
    <path
       style="fill:#000000;stroke-width:1.33333"
       d="m 14.131943,209.94146 c -3.848361,-3.84836 -0.01953,-7.65337 9.320524,-9.26254 11.736245,-2.022 13.316055,-7.27824 7.217115,-24.01226 C 29.333215,173 25.997086,162.94802 23.255962,154.32894 18.68465,139.95509 18.338826,137.79257 19.07821,128.20443 c 0.914872,-11.86381 -0.03547,-13.81298 -6.13941,-12.59219 -5.1779298,1.03558 -8.2918445,-2.47944 -6.0208656,-6.79643 2.1693514,-4.1238 3.5775306,-4.6488 7.9959246,-2.98104 6.618467,2.49819 7.324463,0.0384 7.503816,-26.144846 l 0.15771,-23.023258 -7.404294,-6.910035 C 9.1935904,44.178145 8.0145815,42.403834 9.0526589,40.548893 10.12527,38.632243 12.74279,38.190962 24.835926,37.888027 c 24.979165,-0.625728 26.484262,0.739136 13.770967,12.4879 l -8.059774,7.448297 0.247242,24.483924 0.247241,24.483922 3.718042,1.92267 c 3.756073,1.94235 6.011769,6.13895 5.439945,10.12073 -0.171488,1.19412 3.60856,5.933 8.411142,10.54467 4.797432,4.60674 8.722604,9.15096 8.722604,10.09828 0,0.94732 0.812409,2.20222 1.805353,2.78866 0.992946,0.58644 2.627874,2.56625 3.633176,4.39958 1.789184,3.26288 1.847196,3.19242 2.744504,-3.33333 1.697646,-12.34628 1.161574,-30.34165 -1.07242,-36 -4.801304,-12.160933 -3.054314,-21.935085 5.43856,-30.427959 3.84213,-3.842129 6.715681,-12.840519 4.733491,-14.822708 -0.732026,-0.732027 -3.423103,-1.403609 -5.980171,-1.492407 -3.62619,-0.12592 -5.66239,-1.308837 -9.253684,-5.375853 -5.406459,-6.122626 -5.586101,-7.573554 -2.048809,-16.547737 1.466667,-3.720963 2.666667,-8.807765 2.666667,-11.304004 0,-2.49624 0.6,-4.909437 1.333333,-5.362662 0.733333,-0.453226 1.333333,-2.17638 1.333333,-3.829235 0,-3.233901 4.769991,-8.13423 11.546331,-11.8618298 3.480075,-1.9143559 5.335723,-2.0902198 10.666667,-1.0109041 3.549519,0.718644 8.642802,1.6363465 11.318407,2.0393391 6.680677,1.0062259 10.837997,4.6454138 14.792617,12.9490018 6.2945,13.216689 7.23236,21.513839 7.96957,70.506681 C 119.35335,116.91638 118.75034,120 113.24877,120 c -1.3336,0 -2.89068,0.75 -3.46019,1.66666 -0.56951,0.91667 -1.22586,13.66667 -1.45855,28.33334 -0.23269,14.66666 -0.55214,32.06666 -0.70988,38.66666 l -0.28681,12 h 5.85643 c 4.76668,0 6.10452,0.55234 7.1896,2.96827 0.95797,2.13292 0.85327,3.54649 -0.37202,5.02288 -1.48212,1.78584 -7.91661,2.03376 -49.189594,1.89528 -26.116432,-0.0876 -49.048169,0.24547 -50.959414,0.74023 -2.413391,0.62474 -4.162791,0.21176 -5.726399,-1.35186 z m 76.658221,-9.33866 c 2.195086,-1.13512 4.625874,-3.68512 5.401749,-5.66667 0.775875,-1.98153 2.021915,-18.85833 2.768978,-37.50399 1.299399,-32.43134 1.250209,-33.98076 -1.134631,-35.73645 -1.371108,-1.00939 -4.795644,-1.67264 -7.610079,-1.47389 -7.094935,0.50102 -7.761746,-1.32558 -6.230816,-17.0681 1.683088,-17.307168 1.690749,-37.451141 0.01464,-38.487034 -0.733333,-0.453226 -1.333333,0.361621 -1.333333,1.81077 0,3.681479 -4.953187,14.855896 -6.585043,14.855896 -2.286729,0 -5.414958,7.593349 -5.414958,13.144072 0,3.053737 1.432343,8.037276 3.400166,11.830166 3.318908,6.39705 3.363391,6.83812 1.861348,18.45638 -0.846349,6.54649 -1.626424,19.05274 -1.733499,27.79167 -0.134564,10.98243 -0.686524,16.05288 -1.787429,16.4198 -2.22079,0.74018 -7.073919,-2.05394 -7.073919,-4.0727 0,-0.91856 -1.775616,-3.74746 -3.945812,-6.28642 -2.170197,-2.53897 -3.970198,-5.22056 -4,-5.95909 -0.0298,-0.73853 -2.754188,-4.63428 -6.054188,-8.65721 -3.3,-4.02294 -6.000001,-7.67435 -6.000001,-8.11426 0,-0.4399 -2.769249,-2.2241 -6.153888,-3.96489 l -6.153889,-3.16506 -2.503868,3.09215 c -2.704744,3.34022 -2.670592,3.74543 1.642284,19.48539 2.620251,9.56268 3.824856,14.16968 6.44966,24.66667 0.825176,3.3 2.67468,9.71245 4.110011,14.24989 1.435329,4.53743 2.60969,9.18743 2.60969,10.33333 0,3.06118 39.542091,3.07822 45.45683,0.0196 z M 30.244153,118.41666 c -0.425635,-1.06364 -0.741578,-0.7477 -0.805556,0.80556 -0.05789,1.40556 0.257237,2.19306 0.700293,1.75 0.443055,-0.44306 0.490424,-1.59306 0.105267,-2.55556 z m 79.153727,-7.12322 c 1.46387,-0.90472 1.59783,-4.51501 1.49664,-40.33394 -0.0516,-18.250249 -3.03857,-40.80977 -6.21027,-46.903374 C 101.31754,17.587889 92.987474,12 86.711742,12 c -5.893585,0 -14.486336,3.856 -15.465158,6.939994 -1.545405,4.86914 2.38989,7.00416 12.365259,6.70854 7.536355,-0.22334 9.415885,0.185459 11.995698,2.609067 3.970327,3.729929 3.857967,5.796057 -0.536692,9.868889 l -3.59582,3.332493 -0.1166,34.270508 c -0.07156,21.031556 0.400559,34.974729 1.222131,36.093469 0.96699,1.31676 3.284198,1.62218 8.34481,1.09988 3.85334,-0.3977 7.66597,-1.13093 8.47251,-1.6294 z M 85.797346,37.227823 C 86.5807,35.544425 85.16296,34.633585 78.725582,32.684503 71.01605,30.350245 70.563104,30.34709 68.062359,32.610237 c -3.161175,2.860824 -4.8873,12.690322 -2.885383,16.43094 0.904111,1.689345 3.939019,3.280434 8.212922,4.305728 3.91238,0.938565 7.447977,2.706365 8.361168,4.180587 1.330492,2.147895 1.700359,0.903558 2.324385,-7.819901 0.408164,-5.70584 1.183018,-11.321734 1.721895,-12.479765 z m -53.797345,8.772176 c 1.801725,-2.170945 1.370756,-2.442316 -1.890951,-1.190681 -1.159977,0.445125 -2.109049,1.345125 -2.109049,2 0,1.844311 2.160466,1.407184 4,-0.809319 z"
       id="path424" />
  </g>
</svg>
