<?xml version="1.0" encoding="UTF-8" standalone="no"?>
<!-- Created with Inkscape (http://www.inkscape.org/) -->

<svg
   version="1.1"
   id="svg157"
   width="310.66666"
   height="286.66666"
   viewBox="0 0 310.66666 286.66666"
   xmlns="http://www.w3.org/2000/svg"
   xmlns:svg="http://www.w3.org/2000/svg">
  <defs
     id="defs161" />
  <g
     id="g163">
    <path
       style="fill:#000000;stroke-width:1.33333"
       d="m 34.719073,280.03238 c -2.616956,-1.61736 -3.097932,-8.79639 -0.746851,-11.14747 1.929504,-1.9295 5.894,-2.21753 30.456349,-2.21272 15.530951,0.003 53.138089,-0.36022 83.571429,-0.80725 30.43333,-0.44701 75.43333,-0.89951 99.99999,-1.00552 l 44.66667,-0.19276 -0.0527,-8 c -0.34034,-51.6662 -2.24396,-210.803872 -2.63,-219.860784 -0.27805,-6.523434 -1.12856,-12.483795 -1.89001,-13.245247 -0.94173,-0.941743 -42.08748,-1.293135 -128.6707,-1.09887 L 32.137003,22.747349 30.613118,19.899945 C 29.751611,18.290205 29.458322,15.085134 29.938367,12.52627 30.93475,7.2150976 24.867911,7.8355058 80.666665,7.3386833 101.93333,7.1493285 120.53333,6.9639228 122,6.9266705 c 1.46666,-0.037252 38.55373,-0.1215533 82.4157,-0.1873371 67.53991,-0.1012946 80.39983,0.1805508 84,1.8409924 2.33803,1.0783289 6.35096,2.1388902 8.91763,2.3568022 l 4.66666,0.396205 0.89602,10.666666 c 0.49281,5.866667 1.33073,64.876911 1.86206,131.133881 1.04848,130.74527 1.44676,122.80003 -6.15808,122.8457 -1.87,0.0107 -3.97,0.58971 -4.66666,1.28552 -1.66268,1.66063 -256.601168,4.38227 -259.214257,2.76728 z M 10.43903,275.70509 C 8.5306846,274.20955 8.1452834,268.01875 7.3031925,225.33333 6.7751443,198.56666 6.2659063,140.08284 6.1715524,95.369268 L 5.9999999,14.071874 9.7370247,12.753804 c 6.0234533,-2.124506 8.1351483,0.210999 9.0903813,10.053833 1.565008,16.126033 3.897864,250.963903 2.505927,252.260063 -1.895997,1.76552 -8.92966,2.17704 -10.894303,0.63739 z M 192.1242,241.44517 c -7.44118,-4.10715 -17.45128,-12.92324 -17.46575,-15.38244 -0.004,-0.76784 -1.01635,-3.19607 -2.24852,-5.39607 -2.75579,-4.92039 -3.27627,-22.33366 -0.74327,-24.86666 0.91667,-0.91667 1.66667,-2.80667 1.66667,-4.2 0,-3.33406 8.33963,-11.6 11.70341,-11.6 1.4502,0 3.3231,-0.82702 4.16199,-1.83782 2.35067,-2.83238 -0.14624,-7.5039 -7.0706,-13.22854 -6.7622,-5.59058 -7.67823,-8.31104 -3.12813,-9.29003 1.65,-0.35501 15.6,-0.53824 31,-0.40717 l 27.99999,0.2383 0.44406,3.06654 c 0.31353,2.1652 -0.9967,4.38621 -4.45766,7.55633 -2.69594,2.46939 -4.64694,5.25407 -4.33558,6.18817 0.31137,0.93411 2.61732,2.79439 5.12432,4.13396 9.49162,5.07168 15.86596,22.23922 13.95032,37.57143 -1.2167,9.73809 -9.0351,20.42404 -19.09877,26.10364 -6.13232,3.46086 -9.05112,4.19357 -18.77718,4.71364 -10.85632,0.5805 -11.92924,0.3878 -18.7253,-3.36328 z m 26.33057,-6.26947 c 5.38356,-1.07671 15.1014,-10.34281 18.75021,-17.87861 4.50451,-9.30303 4.07867,-17.66224 -1.38767,-27.23931 -4.01842,-7.04032 -5.17961,-8.1002 -10.22553,-9.33333 -7.90108,-1.93091 -8.78397,-4.01952 -4.66804,-11.04285 1.87014,-3.19114 3.00288,-6.19943 2.51722,-6.68508 -1.33759,-1.33759 -30.58888,-0.34484 -32.04096,1.08742 -0.79732,0.78646 -0.66686,1.24939 0.35213,1.24939 2.29684,0 9.49535,8.22647 9.54212,10.90476 0.0551,3.15032 -3.59875,6.42857 -7.16493,6.42857 -3.91672,0 -10.79292,10.41384 -12.82854,19.42851 -3.18018,14.08341 6.13519,27.64345 22.69922,33.04241 2.94636,0.96035 9.75388,0.97831 14.45477,0.0381 z m -130.17374,6.49096 c -0.630368,-1.28333 -1.039057,-32.93333 -0.908199,-70.33333 0.130859,-37.4 -0.06045,-70.30181 -0.425124,-73.11514 -0.364676,-2.813327 -1.483816,-5.430099 -2.486975,-5.815048 -3.017168,-1.157796 -13.907315,8.850428 -16.865756,15.499908 -2.587555,5.81586 -2.700924,8.4021 -2.459057,56.09695 0.227712,44.90354 0.681421,63.14895 1.823585,73.33333 0.287005,2.55916 -0.305048,3.42994 -2.549193,3.74932 -2.17065,0.3089 -3.511856,-0.72068 -5.210688,-4 -2.016762,-3.89306 -2.35168,-10.57382 -2.828234,-56.41599 -0.584082,-56.18579 0.273266,-67.86526 5.676764,-77.33333 4.154814,-7.28011 12.711361,-16.359815 15.936533,-16.910909 4.465391,-0.763015 3.927431,-4.532775 -0.922996,-6.467903 -8.160137,-3.255573 -11.912789,-6.619169 -11.469695,-10.280576 0.224401,-1.854304 1.720177,-4.237588 3.323945,-5.296186 2.67546,-1.765989 3.170289,-1.630529 6,1.642508 2.810254,3.250532 9.007744,7.313068 11.156249,7.313068 0.973153,0 -0.138464,-17.810265 -1.43372,-22.970976 -1.017519,-4.054121 2.173329,-7.69569 6.743189,-7.69569 3.978637,0 6.353419,4.054156 4.830235,8.246033 -0.617,1.698014 -1.206647,8.0373 -1.310327,14.087299 -0.228217,13.317102 0.806497,13.780631 9.556894,4.281282 5.32141,-5.776876 6.55988,-6.520229 8.83471,-5.302776 3.41445,1.827358 5.58417,5.921054 4.55698,8.597852 -0.44382,1.156577 -2.99166,3.100633 -5.66188,4.320122 -7.56839,3.456488 -12.349496,8.436853 -8.09931,8.436853 3.17429,0 10.80396,7.40418 14.76663,14.330212 3.66345,6.403037 4.36099,9.218257 5.33175,21.518307 1.73064,21.92836 2.62141,48.34743 2.89515,85.86571 0.21375,29.29738 -0.0449,34.56799 -1.74916,35.64625 -6.21053,3.92925 -6.52083,2.06537 -7.11519,-42.73912 -0.30611,-23.07508 -1.29966,-52.74816 -2.2079,-65.94017 -1.44398,-20.97378 -2.06193,-24.77076 -4.92138,-30.23936 -3.66167,-7.002804 -8.46067,-10.813359 -12.834378,-10.190897 l -2.921151,0.415735 0.35054,49.333332 c 0.192798,27.13333 0.711995,59.59348 1.153772,72.13366 0.850459,24.14092 0.1058,28.533 -4.837645,28.533 -1.415064,0 -3.088599,-1.05 -3.718968,-2.33333 z M 202,142.9456 c -7.61806,-0.55384 -18.13515,-4.13891 -21.8433,-7.44594 -4.65977,-4.1557 -14.39465,-19.73877 -16.04578,-25.68519 -2.15636,-7.76598 -1.77091,-12.659707 1.89656,-24.078976 5.9068,-18.39173 13.01716,-25.304889 32.0838,-31.193977 7.50425,-2.317825 9.6442,-2.465048 16.84662,-1.159001 8.23875,1.493972 15.80966,4.674243 22.72361,9.545392 5.6019,3.94675 10.1912,12.99406 12.46863,24.58053 1.73008,8.801786 1.79873,11.994789 0.42632,19.824892 -2.11561,12.07029 -7.42921,23.21605 -12.35563,25.91704 -2.08954,1.14563 -6.46933,3.80924 -9.73287,5.91913 -6.03416,3.90111 -12.35143,4.80238 -26.46796,3.7761 z m 20.04621,-11.06154 c 9.62851,-3.36851 11.52198,-4.97287 16.84109,-14.26971 3.90284,-6.82144 4.08721,-7.76648 3.26891,-16.7551 -0.96943,-10.648511 -5.36911,-25.555498 -8.66194,-29.34833 -4.07489,-4.693644 -15.82927,-8.844255 -25.04663,-8.844255 -13.97414,0 -23.90336,6.491676 -31.95734,20.893514 -3.91386,6.998651 -4.82701,10.003548 -4.77568,15.715463 0.0785,8.733638 3.97694,16.824498 11.48216,23.830108 8.20812,7.6617 10.78428,9.08621 18.45543,10.20511 10.95632,1.59807 11.94552,1.52887 20.394,-1.4268 z"
       id="path563" />
  </g>
</svg>
