<?xml version="1.0" encoding="UTF-8" standalone="no"?>
<!-- Created with Inkscape (http://www.inkscape.org/) -->

<svg
   version="1.1"
   id="svg455"
   width="220"
   height="216"
   viewBox="0 0 220 216"
   xmlns="http://www.w3.org/2000/svg"
   xmlns:svg="http://www.w3.org/2000/svg">
  <defs
     id="defs459" />
  <g
     id="g461">
    <path
       style="fill:#000000;stroke-width:1.33333"
       d="m 138.63971,209.28297 c -1.91228,-3.57314 -0.7893,-6.72034 4.77394,-13.37912 6.95114,-8.31994 6.3591,-11.77093 -4.15804,-24.23718 -8.94421,-10.60184 -13.63681,-13.32158 -12.07771,-7 0.45215,1.83333 1.19498,4.8487 1.65073,6.70081 0.63188,2.56792 -0.42599,5.19572 -4.45534,11.06725 -2.90618,4.23487 -5.66663,9.1695 -6.13432,10.96586 -0.46769,1.79634 -2.08946,5.27442 -3.60392,7.72908 -2.24796,3.6435 -3.34291,4.31509 -5.9631,3.65746 -1.85865,-0.46649 -5.21195,0.14935 -7.96699,1.46314 -4.257863,2.03042 -4.970403,2.05572 -6.78528,0.24084 -1.814877,-1.81488 -1.567091,-2.71598 2.359581,-8.58082 2.413074,-3.60414 5.994189,-7.32041 7.958039,-8.25837 5.97238,-2.85248 10.42937,-9.2318 10.42937,-14.92763 0,-7.46686 -9.74312,-26.00058 -15.849882,-30.15024 -2.623031,-1.7824 -5.764344,-3.24072 -6.980696,-3.24072 -7.598597,0 -24.001599,13.43751 -29.789528,24.40388 -1.858944,3.52215 -3.379897,7.00756 -3.379897,7.74539 0,1.57905 -14.518926,20.8336 -18.169791,24.09621 -3.670075,3.27978 -24.016148,13.08786 -27.149716,13.08786 -1.474271,0 -3.8283269,-1.14784 -5.2312347,-2.55075 -2.1651616,-2.16516 -2.4366752,-3.82796 -1.7961548,-11 0.4150227,-4.64709 1.8628563,-11.049 3.217408,-14.22647 C 10.89173,179.712 12,174.71339 12,171.78144 12,162.49925 19.796717,134.61455 24.241528,128 28.404053,121.80554 46.729671,106.25724 52.416371,104.09516 56.984715,102.35828 57.677412,99.316988 55.12512,92.202369 53.595099,87.937372 52.712992,80.057136 52.301109,66.974307 L 51.702131,47.948615 47.225025,44.258207 C 37.738525,36.438632 29.291043,32.908651 20.343709,33.025212 10.99698,33.146975 8.5252976,31.232253 11.004677,25.790608 c 1.396714,-3.065453 5.51301,-4.871363 14.55398,-6.385152 3.75379,-0.628523 5.536075,-1.91074 7.660263,-5.510971 3.722887,-6.3098231 10.544493,-9.0738769 20.227201,-8.1958797 10.586342,0.9599358 15.217212,3.7329416 17.712391,10.6063347 4.356971,12.002013 4.639971,14.904204 2.193375,22.493285 -7.115588,22.071808 -7.909975,27.050242 -5.152282,32.28943 2.101486,3.992496 3.706607,4.860485 9.133728,4.939176 2.566667,0.03721 6.166667,0.925141 8,1.973169 1.833334,1.048028 4.558408,1.926767 6.055723,1.952753 2.992347,0.05193 11.720404,-8.337188 17.172624,-16.505768 5.46567,-8.18871 15.62338,-19.348402 20.0611,-22.039961 2.22414,-1.348981 6.14389,-2.886279 8.71055,-3.416216 C 139.9,37.460872 145,35.664936 148.66667,33.999841 c 3.66666,-1.665096 9.36666,-4.064637 12.66666,-5.332316 6.61416,-2.540797 36.00538,-16.937201 41.42572,-20.2911558 4.43072,-2.7415907 9.98036,-1.4328369 11.06342,2.6090458 1.31585,4.910652 0.92216,13.094973 -1.0856,22.56791 -2.92846,13.816942 -12.91111,26.42206 -29.86188,37.706643 C 175.65429,76.066985 169.14748,80 168.41541,80 c -0.73205,0 -5.62288,4.604167 -10.86849,10.23148 l -9.53747,10.23148 8.3286,8.88671 c 9.24443,9.86389 21.35987,25.43692 25.58008,32.88029 1.5117,2.66623 3.64854,5.25791 4.74854,5.75929 16.78502,7.65072 17.85181,9.02634 14.6122,18.84244 -1.77715,5.38482 -0.96695,7.05194 8.3878,17.25936 3.9367,4.29555 4.49582,8.2036 2.30308,16.09796 -2.84559,10.24471 -8.8418,9.9814 -14.14052,-0.62092 -5.22823,-10.46126 -9.32987,-14.23476 -15.47263,-14.23476 -5.67424,0 -11.68993,-4.6191 -11.68993,-8.97605 0,-4.73943 -3.85184,-8.35728 -8.89779,-8.35728 -4.35297,0 -4.65715,0.24876 -3.66824,3 1.20069,3.34041 1.95329,30.94033 0.94869,34.79081 -0.51646,1.97952 -1.4802,2.30007 -4.95518,1.64815 -3.31267,-0.62145 -4.87807,-0.18604 -6.74407,1.87587 -3.11656,3.44376 -6.8576,3.43008 -8.71037,-0.0319 z M 22.050829,198.58443 c 0.481182,-0.77858 2.229088,-1.93046 3.884238,-2.55974 5.161754,-1.9625 14.879056,-14.79724 22.237586,-29.37169 5.882706,-11.6514 8.933578,-15.86595 18.274874,-25.24531 l 11.213281,-11.25898 -2.316597,-4.07435 c -1.27413,-2.2409 -4.55272,-6.00807 -7.285758,-8.3715 l -4.969158,-4.29713 -9.211314,4.791 c -5.066222,2.63505 -10.859,5.95797 -12.872837,7.38426 C 36.105405,129.05122 31.164988,137.83479 29.520235,146 27.406801,156.49192 21.923587,175.96696 18.826597,183.98117 15.136868,193.52925 15.040479,200 18.587977,200 c 1.423388,0 2.981671,-0.63701 3.462852,-1.41557 z M 189.3998,170.54248 c 2.52364,-4.71548 0.50093,-8.93211 -5.08799,-10.60659 -7.21864,-2.16276 -8.52766,-3.44282 -15.61472,-15.26922 -9.28281,-15.49057 -26.76598,-32.47919 -39.5235,-38.40548 -17.55613,-8.155417 -19.83805,-8.927857 -26.37436,-8.927857 -5.787899,0 -12.32251,-1.959802 -25.000735,-7.498 C 75.487667,88.8259 72.262667,88 70.631828,88 c -2.632045,0 -2.868976,0.48682 -2.108993,4.333333 1.096573,5.550095 9.795274,18.266817 13.444128,19.654107 1.539324,0.58525 6.34189,5.00123 10.672369,9.81329 4.33048,4.81206 10.908188,10.68931 14.617138,13.06055 3.70894,2.37124 9.2251,6.46292 12.25812,9.0926 4.47944,3.88376 7.85827,5.32283 18.00001,7.66632 6.86697,1.58679 15.4854,3.26015 19.15207,3.71857 15.93097,1.99179 22,5.45392 22,12.55012 0,2.13888 0.75,4.19152 1.66666,4.5614 3.83062,1.5457 7.64812,0.74239 9.06647,-1.90781 z M 141.89547,86.327409 c 3.72416,-3.853257 11.2712,-9.657292 16.7712,-12.897853 5.5,-3.240563 12.1,-7.771687 14.66666,-10.069164 2.56667,-2.297479 7.27844,-5.917855 10.47062,-8.045281 7.77625,-5.182495 14.03232,-13.080911 17.41102,-21.981778 3.21136,-8.459994 3.44352,-10.671676 1.11836,-10.653988 -0.91666,0.0069 -11.18018,4.806974 -22.80782,10.666667 C 167.89787,39.205705 156.93075,44 155.15415,44 149.42101,44 136.1594,51.851032 127.50509,60.368572 118.72426,69.010645 108,82.048987 108,84.082484 c 0,0.646996 3.15,2.114793 7,3.261773 3.85,1.146979 8.5,2.942479 10.33333,3.989999 6.0546,3.459444 9.33916,2.466497 16.56214,-5.006847 z M 61.160725,31.308611 c 1.311022,-3.625564 1.348383,-5.74598 0.16445,-9.333334 -0.84259,-2.553069 -2.125882,-4.641944 -2.851762,-4.641944 -0.725878,0 -0.965742,1.115474 -0.53303,2.478831 0.432713,1.363356 0.434788,3.396028 0.0047,4.517047 -1.020162,2.658362 -8.099262,4.038869 -11.467441,2.236274 C 42.765216,24.578673 43.664193,18.566407 48,16.383884 l 3.333333,-1.677905 -3.228345,-0.01965 c -4.095412,-0.02493 -8.117636,3.56048 -8.062584,7.186995 0.05024,3.309727 2.929471,7.460013 5.175324,7.460013 0.874729,0 3.797864,1.5 6.495856,3.333334 6.42796,4.36791 7.428621,4.224062 9.447141,-1.358056 z M 55.638889,15.194444 c -0.443056,-0.443055 -1.593056,-0.490424 -2.555556,-0.105267 -1.063644,0.425635 -0.747701,0.741578 0.805556,0.805556 1.405555,0.05789 2.193055,-0.257237 1.75,-0.700293 z"
       id="path930" />
  </g>
</svg>
