<?xml version="1.0" encoding="UTF-8" standalone="no"?>
<!-- Created with Inkscape (http://www.inkscape.org/) -->

<svg
   version="1.1"
   id="svg445"
   width="213.33333"
   height="214.66667"
   viewBox="0 0 213.33333 214.66667"
   xmlns="http://www.w3.org/2000/svg"
   xmlns:svg="http://www.w3.org/2000/svg">
  <defs
     id="defs449" />
  <g
     id="g451">
    <path
       style="fill:#000000;stroke-width:1.33333"
       d="m 59.333332,210.99264 c -2.888866,-0.59684 -6,-3.90348 -6,-6.37706 0,-2.97262 5.393794,-4.07736 13.423559,-2.74938 4.909249,0.81191 9.696038,0.82931 12.864164,0.0468 4.501114,-1.1118 5.512897,-2.20024 9.375753,-10.08612 2.381579,-4.86192 5.83432,-14.03044 7.67276,-20.37452 l 3.342622,-11.53466 -2.826204,-5.6255 C 90.487951,140.95984 84.848924,133.1237 78.982396,128.99594 75.598289,126.61484 67.116715,120.76667 60.134451,116 53.149209,111.2313 46.076661,105.23443 44.409475,102.66667 38.762133,93.968753 38.391137,93.7808 36.161747,98.488206 c -1.611697,3.403134 -1.706892,5.090244 -0.482022,8.542864 2.545041,7.17389 3.429166,17.65127 1.753669,20.78197 -2.868793,5.36039 -10.871832,2.96194 -13.293149,-3.98386 -2.073069,-5.9468 -1.854983,-25.668668 0.341991,-30.926765 0.998564,-2.389899 4.949816,-6.96941 8.780559,-10.17669 4.540574,-3.801582 8.022954,-8.191613 10.004363,-12.611905 1.671655,-3.729267 4.620403,-8.235074 6.552773,-10.012904 1.932371,-1.777831 3.514185,-3.877831 3.515144,-4.666667 9.57e-4,-0.788836 2.400957,-4.890574 5.333333,-9.114971 2.932375,-4.224399 5.331591,-8.547211 5.331591,-9.606249 0,-3.045852 -8.140015,-3.914083 -13.94729,-1.487647 -2.774772,1.159373 -6.715066,2.107952 -8.756207,2.107952 -2.041143,0 -6.017868,1.101176 -8.837168,2.447057 -2.819301,1.345882 -7.826001,3.747548 -11.126001,5.337036 -7.308832,3.520396 -15.3439188,3.818148 -17.1255155,0.634612 -1.793041,-3.203986 0.7575624,-8.037266 4.7732768,-9.045146 1.8222467,-0.457355 5.9469657,-2.003506 9.1660417,-3.435891 3.219074,-1.432384 8.541641,-3.802134 11.827924,-5.266108 4.617054,-2.05681 6.731021,-4.102319 9.301207,-9 1.829383,-3.486026 4.139503,-7.364638 5.133602,-8.619141 2.649734,-3.3438346 8.767105,-5.3800564 15.59013,-5.1893151 14.332419,0.4006702 20.124749,5.8820781 20.327256,19.2361241 0.11216,7.395873 -0.553467,9.581835 -6.313655,20.734619 -3.541464,6.856928 -7.958657,14.27312 -9.815985,16.480429 -3.179635,3.778782 -3.238813,4.114303 -1.012755,5.742036 1.546984,1.131183 4.746567,1.496692 9.256338,1.057414 6.701909,-0.652806 8.85243,-0.225316 30.259792,6.015158 9.6753,2.820454 23.69016,9.546797 38.27631,18.370474 5.30419,3.208687 10.23331,5.833976 10.9536,5.833976 0.72031,0 3.31538,1.761062 5.76683,3.913462 5.38627,4.72921 29.26152,16.90707 44.54907,22.72279 4.98621,1.89687 7.39772,7.14782 5.36466,11.68138 -1.17736,2.62542 -1.99606,2.87978 -6.80821,2.11516 -4.99237,-0.79326 -5.31016,-0.67548 -3.64,1.34904 1.00647,1.22 2.89,2.21817 4.18563,2.21817 1.29562,0 3.75058,1.12952 5.45546,2.51004 2.67583,2.16676 2.89411,2.96139 1.59604,5.81033 -1.8121,3.97715 -6.06284,5.01296 -20.57188,5.01296 -10.6117,0 -13.412,-0.8874 -22.97065,-7.27932 -2.74097,-1.83292 -6.94633,-2.71165 -15,-3.13436 -6.15515,-0.32306 -11.19119,-0.1008 -11.19119,0.49388 0,0.5947 1.20515,2.36408 2.67811,3.93198 2.07927,2.21328 3.09965,6.40649 4.56333,18.7526 1.998,16.85313 4.1327,23.71554 8.6485,27.80228 3.88137,3.5126 3.51528,7.20265 -0.88994,8.96996 -2.01666,0.80906 -10.0096,2.047 -17.76206,2.75097 -11.74968,1.06696 -14.91161,0.93893 -19,-0.76931 C 113.6387,206.1541 112,204.60336 112,202.87736 c 0,-3.46902 2.44027,-4.21069 13.85421,-4.21069 13.08249,0 14.97096,-1.45836 13.10113,-10.11725 -6.77492,-31.37375 -5.67088,-28.42686 -14.00114,-37.37203 -4.24185,-4.55499 -9.49185,-8.90208 -11.66666,-9.66023 -4.57478,-1.59477 -4.56577,-1.62854 -1.90544,7.14218 1.92086,6.3328 1.61678,12.99886 -0.73019,16.00733 -0.57209,0.73333 -2.61789,5.23333 -4.54621,10 -1.92833,4.76667 -4.01679,9.58973 -4.64103,10.71795 -1.926936,3.48261 -3.081045,12.94974 -1.683924,13.81321 2.625124,1.62241 -0.142042,5.84124 -5.555194,8.46945 -4.061717,1.97206 -9.14994,2.85751 -18.89222,3.28763 -7.333333,0.32376 -14.533333,0.34075 -16,0.0377 z M 180,142.848 c 0,-1.47208 -9.62624,-8.18133 -11.73834,-8.18133 -3.04049,0 -1.57093,2.58688 3.38118,5.95193 5.05452,3.43464 8.35716,4.31567 8.35716,2.2294 z M 138.66666,132 c 0,-0.77033 -3.80028,-1.27721 -9,-1.20042 -6.53403,0.0965 -8.08668,0.4254 -5.66666,1.20042 4.85458,1.55471 14.66666,1.55471 14.66666,0 z M 116,129.39375 c 0,-1.53699 -9.08391,-3.42095 -10.35689,-2.14797 -0.49457,0.49457 -0.0166,1.4574 1.06217,2.13964 2.57728,1.62992 9.29472,1.63594 9.29472,0.008 z m -12.36111,-3.53264 c -0.44306,-0.44305 -1.59306,-0.49042 -2.55556,-0.10526 -1.06364,0.42563 -0.7477,0.74157 0.80556,0.80555 1.40555,0.0579 2.19305,-0.25724 1.75,-0.70029 z m -10.791301,-3.86932 c -4.906329,-2.55883 -6.975137,-2.55532 -4.84759,0.008 0.912918,1.1 3.236385,1.99631 5.16326,1.99179 l 3.503406,-0.008 z m 77.486371,0.34155 c -0.30522,-0.91667 -1.70522,-1.87694 -3.11112,-2.13393 -1.4059,-0.25699 -5.56936,-2.72313 -9.25216,-5.48032 -3.68279,-2.75719 -8.18279,-5.47719 -10,-6.04445 -5.4005,-1.68582 -19.85483,-8.741824 -20.69606,-10.102962 -0.42856,-0.693436 -5.23586,-3.347327 -10.68289,-5.897535 L 106.68805,88.0374 91.92356,89.224239 c -10.966597,0.881545 -15.428032,1.787332 -17.344028,3.521284 -3.391692,3.069438 -3.258748,6.1322 0.439385,10.122547 3.801531,4.10192 34.290943,14.35121 45.647743,15.34489 4.4,0.38499 8.752,1.31968 9.67109,2.07711 0.9191,0.75742 9.17885,1.51175 18.35498,1.67628 9.17613,0.16454 17.07415,0.68942 17.55113,1.1664 1.53456,1.53457 4.66359,0.923 4.0901,-0.79941 z m -85.000628,-3.66667 c 0,-0.73333 -1.35,-1.32415 -3,-1.31292 -2.425917,0.0165 -2.617279,0.26775 -1,1.31292 2.585012,1.67056 4,1.67056 4,0 z M 63.999999,105.49659 c 0,-0.64354 -0.9,-1.917 -2,-2.82992 -2.754264,-2.28584 -2.496265,-7.83643 0.600303,-12.914906 3.3002,-5.41244 6.018741,-6.821143 15.259487,-7.907212 4.110448,-0.483103 7.473543,-1.485951 7.473543,-2.228552 0,-0.879137 -4.628064,-1.046889 -13.265644,-0.480835 -9.244185,0.605807 -14.340936,0.379412 -16.812729,-0.746812 -3.06737,-1.397586 -3.797816,-1.273266 -5.401022,0.919251 -3.027492,4.140341 -2.194562,10.387631 2.287036,17.153608 5.103931,7.705528 11.859026,12.852228 11.859026,9.035378 z m -2,-81.49659 c 0.453225,-0.733333 2.052828,-1.333333 3.554675,-1.333333 1.942186,0 2.496945,-0.608968 1.92131,-2.109049 -0.445125,-1.159979 -0.809318,-2.659979 -0.809318,-3.333334 0,-0.673356 -0.9,-1.224284 -2,-1.224284 -1.1,0 -2,0.886168 -2,1.969263 0,1.083095 -1.524579,2.968205 -3.387952,4.189135 -2.738758,1.794502 -4.028236,1.928137 -6.729404,0.697404 -4.282131,-1.95107 -4.549311,-1.923024 -4.549311,0.477532 0,1.507925 1.620887,2 6.587977,2 3.623388,0 6.958798,-0.6 7.412023,-1.333334 z"
       id="path1069" />
  </g>
</svg>
