<?xml version="1.0" encoding="UTF-8" standalone="no"?>
<!-- Created with Inkscape (http://www.inkscape.org/) -->

<svg
   version="1.1"
   id="svg435"
   width="193.33333"
   height="218.66667"
   viewBox="0 0 193.33333 218.66667"
   xmlns="http://www.w3.org/2000/svg"
   xmlns:svg="http://www.w3.org/2000/svg">
  <defs
     id="defs439" />
  <g
     id="g441">
    <path
       style="fill:#000000;stroke-width:1.33333"
       d="M 100.21392,212.42022 C 97.44142,210.1554 97.387093,209.80736 99.36786,207 c 1.16418,-1.65 3.01246,-3 4.10729,-3 3.93291,0 9.85818,-4.05116 9.85818,-6.74013 0,-1.4694 -2.29473,-5.57471 -5.09941,-9.12289 -2.80468,-3.54818 -7.27592,-11.48054 -9.936098,-17.62744 -2.660176,-6.14691 -6.06544,-13.55307 -7.567254,-16.45812 -3.767107,-7.28698 -3.827239,-20.64564 -0.10808,-24.01143 1.442366,-1.30533 3.992366,-2.37286 5.666666,-2.3723 5.344316,0.002 26.901126,11.26825 33.598066,17.5597 1.78679,1.6786 3.89313,2.65372 4.68074,2.16695 2.16791,-1.33984 1.85231,-27.6128 -0.38346,-31.92224 -1.86104,-3.58714 -0.93624,-14.10429 1.77084,-20.138765 1.28394,-2.862055 2.33256,-8.412183 3.4009,-18 l 0.66856,-6.000001 -4.00824,8.000001 c -2.20454,4.4 -4.01012,8.715977 -4.0124,9.591061 -0.012,4.603641 -11.85466,7.571547 -16.26261,4.075605 -4.17888,-3.314268 -3.47365,-10.333333 1.03824,-10.333333 4.73809,0 9.78139,-4.071539 11.15069,-9.002136 2.19979,-7.921063 1.66783,-11.811691 -2.25196,-16.470094 -6.48871,-7.711393 -7.37264,-12.488641 -4.29162,-23.194437 4.55773,-15.837082 7.62156,-20.614427 15.94643,-24.8648423 9.91623,-5.0629105 17.50815,-5.0639814 25.40563,-0.00359 3.26024,2.0890333 6.9619,4.9688213 8.22593,6.3995283 4.06092,4.596428 9.05907,21.359427 9.68108,32.468898 0.18477,3.3 0.975,9.3 1.75607,13.333333 2.60226,13.437854 5.9341,43.812482 5.14898,46.940652 -0.42602,1.69742 -2.51854,4.1164 -4.65005,5.37551 -4.53631,2.67966 -6.10447,8.9611 -4.07349,16.3167 1.6903,6.12181 2.17112,43.87952 0.71621,56.24417 -1.19727,10.17515 -1.31356,9.87943 6.36073,16.17555 2.83259,2.32388 2.63603,4.63512 -0.56414,6.63366 -2.69491,1.68299 -24.72619,3.45508 -62.08528,4.99386 -18.15779,0.74789 -20.36173,0.59549 -23.04108,-1.59322 z m 60.18229,-14.03015 c 7.40823,-2.84516 7.82331,-5.45796 7.88656,-49.64443 0.0347,-24.19688 -0.47143,-41.30866 -1.26721,-42.84856 -0.7287,-1.41006 -1.73972,-5.81753 -2.24675,-9.794376 -1.19503,-9.373349 -2.84739,-12.373936 -6.52569,-11.850281 -2.06086,0.293388 -3.1043,1.581257 -3.57646,4.414245 -0.36666,2.2 -1.77298,6.029125 -3.12517,8.509168 -2.61447,4.795234 -4.28747,20.224314 -5.76397,53.157504 C 145.04098,166.7617 144.8011,168 142.3553,168 c -1.44658,0 -5.63321,-2.7 -9.3036,-6 -3.6704,-3.3 -7.43955,-6 -8.37589,-6 -0.93635,0 -2.68225,-1.49536 -3.87978,-3.32302 -2.41099,-3.67964 -13.84824,-10.01031 -18.08504,-10.01031 -3.178736,0 -3.720024,4.16939 -0.85047,6.55091 1.02329,0.84925 2.22979,3.51245 2.68112,5.91822 0.45132,2.40576 4.39494,9.73439 8.76359,16.28583 4.36865,6.55144 7.96215,13.15351 7.98555,14.67125 0.0234,1.51776 1.39255,4.00759 3.04255,5.53295 1.65,1.52535 4.3524,4.38721 6.00533,6.35969 2.96268,3.53543 3.17078,3.5739 14.66667,2.7116 6.41373,-0.48109 13.33963,-1.51926 15.39088,-2.30705 z m 17.1442,-109.843065 c -0.28665,-8.241797 -1.21384,-14.71874 -2.46416,-17.213671 -3.00327,-5.992766 -4.40901,-11.333333 -2.98317,-11.333333 1.6356,0 1.59038,-8.238808 -0.0692,-12.603778 -0.72018,-1.894224 -2.82018,-4.018433 -4.66667,-4.720465 -3.59532,-1.366937 -4.07396,-3.419084 -3.46661,-14.862731 0.38112,-7.181173 -1.16003,-8.715316 -6.52339,-6.493737 -3.74829,1.552596 -3.76701,1.614268 -1.25285,4.128425 3.28285,3.282852 3.62693,16.000548 0.50305,18.593144 -1.12708,0.935391 -1.87712,2.716683 -1.66675,3.958427 0.21036,1.241745 -0.38313,3.180229 -1.31889,4.307744 -0.93575,1.127513 -1.75085,4.369688 -1.81133,7.204832 -0.0605,2.835143 -1.29678,8.526802 -2.74734,12.64813 -1.45054,4.121328 -2.43541,8.882917 -2.18858,10.581309 0.38114,2.622532 1.00772,2.057295 4.15693,-3.74997 2.03948,-3.760878 4.86681,-7.205707 6.28297,-7.655177 5.733,-1.819586 10.97602,5.021394 12.83606,16.748271 1.27514,8.039335 4.27321,14.883955 6.22928,14.221535 1.15565,-0.39135 1.48048,-4.275493 1.15062,-13.758955 z M 142.09122,45.666667 c 0.44479,-2.016666 0.94916,-4.245488 1.12083,-4.952934 0.17167,-0.707448 -1.3574,-2.691087 -3.39795,-4.408087 -3.02402,-2.544548 -4.21278,-2.852767 -6.42874,-1.666819 -3.75493,2.009571 -3.40044,6.503668 0.86409,10.954882 4.51927,4.717094 6.81279,4.738432 7.84177,0.07296 z m 6.95111,-23.597883 c 0.26167,-0.261676 -0.31013,-1.734201 -1.27068,-3.272278 -3.07644,-4.926168 -10.43832,-2.82875 -10.43832,2.973905 0,2.273669 0.64841,2.466727 5.61661,1.672279 3.08914,-0.493972 5.83071,-1.11223 6.09239,-1.373906 z M 8.8954744,70.038333 C 5.9257739,67.068632 5.7379975,14.282588 8.6811551,9.7907625 11.064657,6.153078 13.628312,5.8187885 16.571428,8.7619049 c 1.771696,1.7716951 2.095238,6.4177811 2.095238,30.0876561 0,16.746088 -0.554532,29.028569 -1.380245,30.571428 -1.638821,3.062168 -5.650941,3.357349 -8.3909466,0.617344 z"
       id="path1208" />
  </g>
</svg>
