<?xml version="1.0" encoding="UTF-8" standalone="no"?>
<!-- Created with Inkscape (http://www.inkscape.org/) -->

<svg
   version="1.1"
   id="svg425"
   width="333.33334"
   height="222.66667"
   viewBox="0 0 333.33334 222.66667"
   xmlns="http://www.w3.org/2000/svg"
   xmlns:svg="http://www.w3.org/2000/svg">
  <defs
     id="defs429" />
  <g
     id="g431">
    <path
       style="fill:#000000;stroke-width:1.33333"
       d="m 160,213.79052 c -9.25116,-1.29336 -12.49558,-2.2861 -14.7108,-4.50132 -5.73969,-5.73969 2.6251,-10.02652 17.11828,-8.77286 5.62611,0.48665 10.64358,0.16424 13.5723,-0.87214 3.9113,-1.38406 4.81876,-2.488 5.73568,-6.97753 3.75192,-18.3706 4.01574,-33.27301 0.74152,-41.88487 -0.70924,-1.86545 -2.47754,-10.23328 -3.92956,-18.59518 -2.89051,-16.64595 -4.03014,-19.46333 -12.68332,-31.35534 C 162.62984,96.413955 160,92.262452 160,91.605719 c 0,-0.656735 -1.11768,-2.786686 -2.48373,-4.733224 -1.36605,-1.946538 -3.25387,-6.589183 -4.19513,-10.316989 -1.85439,-7.344205 -0.72724,-11.973873 6.303,-25.888839 5.66226,-11.207328 3.12289,-14.957114 -11.11891,-16.418849 -7.06611,-0.725243 -8.48067,-0.484928 -10.53999,1.790592 -4.28029,4.729668 -10.51872,2.888423 -11.424,-3.371743 -1.10177,-7.618969 3.93793,-11.744769 16.01438,-13.110339 5.00917,-0.566421 8.27774,-1.802644 10.66666,-4.034285 6.62051,-6.1846231 10.62687,-7.277919 28.3833,-7.7455185 9.25625,-0.2437551 17.22,-0.054833 17.69722,0.4198262 1.17032,1.1640265 1.19816,7.3614443 0.1004,22.3497413 -0.50537,6.900351 -0.57189,13.928553 -0.14781,15.618225 0.46293,1.844453 3.29668,4.500454 7.09115,6.646358 15.75221,8.908421 30.26721,20.352782 40.22441,31.714952 3.28125,3.74424 9.59511,10.751433 14.0308,15.571543 11.67888,12.69104 16.49524,18.52251 19.70056,23.85268 1.56007,2.59425 5.28024,7.51971 8.26707,10.94546 2.98683,3.42575 8.73059,10.51241 12.76392,15.74813 4.03333,5.23574 11.43147,14.0704 16.44031,19.6326 5.00884,5.5622 9.65892,11.56483 10.33353,13.33916 1.61865,4.2573 -0.63161,8.3848 -4.57125,8.3848 -3.01742,0 -10.20255,-6.23045 -10.20255,-8.84693 0,-1.75019 -11.90961,-10.35456 -12.92571,-9.33847 -0.4199,0.41991 4.4166,6.7114 10.74779,13.98111 16.49735,18.94287 15.78324,20.76541 -7.99269,20.39888 -17.56607,-0.2708 -21.46134,-1.62631 -26.6076,-9.25915 -3.13823,-4.65457 -5.72943,-8.45257 -17.23968,-25.26877 -7.35999,-10.75276 -11.00175,-8.91264 -5.14652,2.60045 2.61272,5.13738 2.32885,10.06186 -0.63422,11.0023 -1.74914,0.55516 -4.21576,-0.968 -8.49123,-5.24348 -7.09078,-7.09079 -10.37681,-7.78512 -10.37681,-2.1926 0,7.18721 1.68169,12.25757 5.3778,16.21426 3.32017,3.55426 4.52007,3.9524 11.91147,3.9524 9.80632,0 13.3774,1.6017 13.3774,6 0,1.8382 -1.1156,3.83656 -2.57901,4.61976 -1.61111,0.86224 -18.49951,1.41678 -45.00001,1.47758 -23.33154,0.0535 -45.42098,0.51932 -49.08765,1.03506 C 165,213.64815 161.1,213.94431 160,213.79052 Z m 56.50234,-14.54696 6.50232,-0.87229 -0.84912,-8.85229 c -0.89331,-9.31299 -3.51644,-20.18564 -4.86998,-20.18564 -0.4394,0 -1.35841,3.15 -2.04224,7 -1.48118,8.33922 -4.77078,9.80377 -9.85789,4.38878 -3.94353,-4.19769 -6.71876,-4.3505 -6.71876,-0.36996 0,1.66035 -1.2,6.30188 -2.66667,10.31451 -4.00128,10.94705 -3.96788,11.00703 5.66667,10.17169 4.58333,-0.39738 11.25939,-1.11504 14.83567,-1.5948 z m 86.83896,-3.25644 c 1.10544,-1.78864 -1.99873,-5.63713 -19.97255,-24.76157 -13.18384,-14.02783 -16.46058,-16.75239 -25.37613,-21.09979 -5.63061,-2.74561 -10.50795,-4.72153 -10.83855,-4.39094 -0.33059,0.33058 3.38436,4.42549 8.25544,9.0998 4.87108,4.67429 12.05676,13.29872 15.96819,19.16538 9.06507,13.59652 15.30101,19.60583 22.34796,21.53576 7.32359,2.00571 8.61747,2.06644 9.61564,0.45136 z m -98.00796,-36.17066 c 0,-4.48991 -1.05486,-6.83606 -5.66667,-12.60358 C 196.55,143.31519 193.55,140.09779 193,140.06308 c -1.52749,-0.0964 -1.19053,8.31059 0.53727,13.40463 2.26769,6.68577 6.29269,11.86563 9.22019,11.86563 2.13058,0 2.57588,-0.95371 2.57588,-5.51688 z m 33.33333,3.11125 c 0,-2.15528 -3.7852,-8.60465 -10.17535,-17.33717 -1.23805,-1.69187 -2.17832,-5.0096 -2.08948,-7.37274 0.16986,-4.51802 0.19348,-4.49672 -11.0685,-9.98137 -6.87067,-3.34606 -26.84338,-19.47803 -28.84624,-23.29914 -0.84679,-1.61551 -3.4028,-5.312037 -5.68002,-8.214506 -7.52384,-9.589616 -9.32184,-16.111568 -6.10089,-22.129971 1.78064,-3.327137 8.15656,-6.590811 12.89427,-6.600248 5.69685,-0.01133 13.73792,-2.588737 13.69165,-4.388569 -0.0227,-0.882198 -2.65684,-3.57353 -5.85369,-5.980739 l -5.81247,-4.376743 -0.96169,-17.289924 c -0.87443,-15.721136 -1.19016,-17.289923 -3.47964,-17.289923 -1.75255,0 -2.51795,0.950447 -2.51795,3.126683 0,1.719676 -1.14051,4.158824 -2.53445,5.420328 -2.1159,1.914858 -3.38202,2.064542 -7.66667,0.906373 -2.82272,-0.763 -6.44283,-2.308583 -8.04468,-3.434628 -1.65269,-1.161776 -3.24548,-1.50854 -3.68235,-0.801677 -0.42342,0.685122 1.04624,2.53886 3.26592,4.119417 7.81794,5.566858 10.5857,17.588946 5.55999,24.150359 -3.31895,4.333103 -6.89783,13.78006 -6.89745,18.206794 3.7e-4,4.545953 5.68557,15.413989 13.7941,26.369329 3.41308,4.611355 6.20559,8.790915 6.20559,9.287895 0,1.62936 15.06515,23.85785 19.92057,29.39261 2.61035,2.97557 9.20839,10.92557 14.66231,17.66667 9.72949,12.02574 10.02448,12.25652 15.66667,12.25652 4.65356,0 5.75045,-0.45887 5.75045,-2.40563 z m 50.66667,-10.19181 c 0,-0.61835 -11.88619,-15.36814 -16.17289,-20.06923 -1.33739,-1.46667 -4.99559,-5.79474 -8.12936,-9.61793 -6.18696,-7.54811 -20.61661,-24.367108 -25.49394,-29.715405 -1.67189,-1.833334 -8.00868,-7.775214 -14.08175,-13.204178 l -11.04194,-9.870844 -6.20674,3.056191 c -3.41369,1.680905 -8.76569,3.291049 -11.89334,3.578098 C 188.048,77.651184 184,79.512679 184,82.554977 c 0,1.441539 0.61142,2.998851 1.3587,3.460694 0.74726,0.461844 2.80589,3.647253 4.57469,7.078689 3.6288,7.03978 14.87712,16.69318 26.96492,23.14152 4.2726,2.27926 11.96836,6.66522 17.10169,9.74658 5.13334,3.08136 11.43334,6.67414 14,7.98396 37.22647,18.99725 41.33334,20.86218 41.33334,18.76948 z M 12.345061,78.974183 C 6.7637689,78.059163 3.5839802,70.06933 6.5111049,64.315242 7.1588792,63.04186 8.5088792,60.248014 9.511105,58.106697 12.488709,51.744863 20.501471,44.359355 28.571522,40.538366 c 6.738049,-3.190316 8.605723,-3.496599 17.161359,-2.814323 14.397878,1.148172 22.792638,6.126836 31.352682,18.594277 6.587116,9.59393 7.069217,18.077866 1.205603,21.215977 -2.697423,1.443618 -58.492491,2.661862 -65.946105,1.439886 z M 68.884891,65.912117 C 69.801559,63.523318 62.713689,55.511563 57.066214,52.552909 52.040106,49.919782 36.959771,50.104173 31.600454,52.864285 23.54664,57.012096 18.666667,61.524894 18.666667,64.82492 v 3.175081 h 24.708514 c 21.195372,0 24.82243,-0.296863 25.50971,-2.087884 z"
       id="path1347" />
  </g>
</svg>
