<?xml version="1.0" encoding="UTF-8" standalone="no"?>
<!-- Created with Inkscape (http://www.inkscape.org/) -->

<svg
   version="1.1"
   id="svg415"
   width="214.66667"
   height="280"
   viewBox="0 0 214.66667 280"
   xmlns="http://www.w3.org/2000/svg"
   xmlns:svg="http://www.w3.org/2000/svg">
  <defs
     id="defs419" />
  <g
     id="g421">
    <path
       style="fill:#000000;stroke-width:1.33333"
       d="m 123.64009,273.11068 c -8.58557,-6.4774 -2.48782,-26.5066 12.49042,-41.02713 6.90544,-6.69442 9.06651,-7.97319 15.93891,-9.43162 4.37269,-0.92794 11.42937,-1.3717 15.6815,-0.98614 9.24126,0.83797 22.36222,7.04018 27.29464,12.90204 4.25598,5.05793 11.198,19.60886 12.83855,26.9104 1.10023,4.89674 0.89343,5.86545 -1.83451,8.59338 -2.99742,2.99743 -3.72194,3.07496 -28.8954,3.09215 -14.20148,0.009 -31.52086,0.40231 -38.48753,0.87248 -9.57867,0.64647 -13.24199,0.42083 -15.02658,-0.92556 z M 189,259.70013 c 6.85363,-1.95405 7.09663,-3.75077 1.62458,-12.01206 -4.24652,-6.41107 -9.57635,-11.05588 -17.1826,-14.97422 -13.68674,-7.05068 -40.10864,9.48827 -40.10864,25.10622 0,2.96906 0.0901,2.98074 25,3.23776 16.32966,0.16849 26.96528,-0.30238 30.66666,-1.3577 z M 36.252561,211.79547 c -3.511051,-2.24808 -5.011335,-2.53836 -7.333334,-1.41894 -4.839375,2.33307 -11.220417,2.9455 -15.423507,1.48028 -6.0866119,-2.1218 -9.2064233,-13.55725 -4.7155123,-17.28437 2.4271043,-2.01432 2.0768343,-4.89312 -2.001036,-16.44608 -3.4581186,-9.79715 -3.4700734,-12.6968 -0.084708,-20.54585 1.9221264,-4.4565 4.1954083,-7.1071 7.9308243,-9.24718 8.139148,-4.66305 13.426913,-4.05858 28.952373,3.30972 3.936247,1.86812 4.677075,1.80486 10.206083,-0.87169 7.079028,-3.42691 11.669363,-2.73476 15.680289,2.36431 2.757826,3.506 2.875597,7.1859 0.523157,16.34664 -0.596377,2.32237 0.03404,5.40361 1.892617,9.25044 3.36851,6.97201 3.794855,20.78376 0.819186,26.53808 -3.474599,6.71913 -9.627633,9.3988 -21.523038,9.37337 -8.404179,-0.018 -11.393475,-0.58859 -14.923394,-2.84873 z m 24.984,-9.97528 c 3.723744,-4.73398 3.767392,-15.49054 0.08735,-21.52639 -7.04743,-11.55889 -21.881449,-22.6784 -31.82532,-23.85611 -5.360688,-0.63489 -6.877917,-0.26902 -9.981026,2.4068 -2.210922,1.9065 -4.163644,5.40702 -4.933356,8.8437 -1.098312,4.90385 -0.831792,6.55853 1.932845,12 3.905205,7.68638 10.0719,14.17862 19.61769,20.6533 6.149962,4.17136 8.301309,4.89058 14.768485,4.93723 6.62329,0.0477 7.915458,-0.38471 10.333335,-3.45853 z M 22,201.24048 c 0,-1.02884 -1.05,-2.07284 -2.333333,-2.31999 -2.298317,-0.44261 -3.248456,2.3866 -1.416667,4.2184 1.39761,1.3976 3.75,0.20674 3.75,-1.89841 z m 39.027778,-40.15715 c -0.824098,-2.47229 -3.694444,-2.88234 -3.694444,-0.52777 0,1.16111 0.95,2.11111 2.111111,2.11111 1.161112,0 1.873612,-0.7125 1.583333,-1.58334 z m 111.888462,27.49074 c -9.87256,-6.89956 -13.53209,-7.06244 -25.37125,-1.12924 -8.44947,4.23444 -10.36436,4.75496 -12.12305,3.29537 -2.88152,-2.39145 -2.62365,-5.51345 1.13245,-13.71067 7.43319,-16.22194 10.0682,-23.60449 12.02696,-33.6962 1.13871,-5.86666 2.95764,-14.86666 4.04209,-20 7.45987,-35.311962 7.53368,-38.362835 1.33994,-55.385825 -3.45094,-9.48461 3.31321,-11.74824 8.00344,-2.678357 4.88062,9.438097 6.24869,16.171955 5.39156,26.538064 -1.58282,19.142128 -7.43474,52.323058 -10.61584,60.192788 -2.91076,7.20091 -6.5305,19.98981 -5.85038,20.66993 0.33524,0.33526 5.81918,1.00999 12.18651,1.49942 l 11.57699,0.88988 -0.5843,-36.07716 C 173.75002,119.13963 172.86506,99.4013 172.1048,95.119119 171.34456,90.836936 170.09252,82.91212 169.3225,77.508415 167.4948,64.682265 164.12862,57.582653 156.34902,50.146097 144.37258,38.697749 138.65,35.479163 119.33334,29.327124 108.26921,25.803385 105.18102,25.441213 79.736027,24.683303 53.071469,23.889065 52.045786,23.954215 49.389109,26.610892 c -2.260991,2.260991 -2.597031,3.754191 -1.890999,8.402692 0.472236,3.109196 1.334287,6.549761 1.915667,7.645704 2.575013,4.854072 39.946551,5.686185 59.919563,1.334165 10.61838,-2.313693 27.36029,-1.128078 34.24522,2.425151 7.05223,3.639569 10.1189,7.743 8.31112,11.120871 -1.79396,3.352026 -4.1673,3.08947 -7.88968,-0.872808 -1.72233,-1.833334 -4.5457,-3.333334 -6.27418,-3.333334 -2.77304,0 -3.10507,0.558623 -2.82283,4.749442 0.45635,6.776053 -2.13345,7.825177 -9.527,3.859377 -10.03047,-5.380204 -17.59951,-7.484241 -26.58553,-7.390227 -4.698581,0.04916 -8.867041,0.413546 -9.263244,0.80975 -0.396204,0.396202 0.3035,2.453642 1.554896,4.572088 2.07948,3.520278 2.092881,4.034101 0.155751,5.971232 -1.165732,1.165733 -2.820527,1.686265 -3.67732,1.156738 C 86.703749,66.532205 82.640635,65.702532 78.5314,65.218015 74.076654,64.692757 65.613485,61.873829 57.570258,58.236239 50.150865,54.880781 41.21235,51.552817 37.706893,50.840764 30.328987,49.342112 21.887462,46.350441 14.722252,42.695024 10.970677,40.781113 9.4761887,39.047609 8.8413928,35.873631 7.8451227,30.892279 9.1721561,28.908708 15.044208,26.602031 17.403227,25.675353 22.415736,23.549855 26.183116,21.8787 29.950496,20.207545 39.550497,17.578237 47.51645,16.035792 70.222456,11.639238 72.077912,11.183234 82.308293,7.4852065 92.530924,3.7899813 104.72827,2.8687783 109.51478,5.4304403 c 1.96791,1.0531937 2.57611,2.552713 2.30618,5.6858647 -0.48812,5.665556 0.59096,7.080727 6.20169,8.133307 17.7243,3.325097 30.93999,10.107847 42.17631,21.646344 17.31254,17.778107 19.69383,27.639892 21.1937,87.770714 0.83757,33.57865 1.5887,45.57898 3.17133,50.66666 2.59316,8.33619 2.59377,9.31843 0.008,11.90476 -2.84781,2.84782 -4.21567,2.53516 -11.65519,-2.66402 z M 38.648461,37.666667 C 38.612069,30.337348 37.278943,28 33.135001,28 26.969519,28 20,31.459524 20,34.519941 c 0,3.286882 1.83542,4.472795 8.666667,5.599762 9.654203,1.592677 10.001459,1.507338 9.981794,-2.453036 z"
       id="path1486" />
  </g>
</svg>
