<?xml version="1.0" encoding="UTF-8" standalone="no"?>
<!-- Created with Inkscape (http://www.inkscape.org/) -->

<svg
   version="1.1"
   id="svg405"
   width="216"
   height="216"
   viewBox="0 0 216 216"
   xmlns="http://www.w3.org/2000/svg"
   xmlns:svg="http://www.w3.org/2000/svg">
  <defs
     id="defs409" />
  <g
     id="g411">
    <path
       style="fill:#000000;stroke-width:1.33333"
       d="m 79.474448,208.61731 c -2.500208,-2.50022 -2.641432,-4.76212 -0.727611,-11.65375 2.646774,-9.53097 11.752946,-16.86613 26.101353,-21.02503 4.25943,-1.2346 7.56712,-1.2411 14.53013,-0.0285 11.51637,2.00549 17.35977,5.03288 24.34828,12.61451 4.85005,5.26168 5.60673,6.89004 5.60673,12.06546 0,4.62064 -0.60789,6.30822 -2.66984,7.41174 -1.56594,0.83808 -15.56544,1.70337 -33.85888,2.09278 -27.436242,0.58406 -31.446677,0.40631 -33.330162,-1.47717 z m 60.077112,-9.37186 c 0.499,-1.3004 -0.82797,-3.76876 -3.51824,-6.5444 -4.79264,-4.94476 -12.2034,-7.38452 -22.29041,-7.33844 -10.46417,0.0478 -24.409577,7.78132 -24.409577,13.53647 0,2.26921 1.675268,2.43425 24.708517,2.43425 21.19536,0 24.82243,-0.29686 25.50971,-2.08788 z M 33.333333,143.47104 c -2.566666,-1.04969 -7.066666,-2.80428 -10,-3.89909 -5.544997,-2.06959 -13.202351,-9.71107 -14.4280483,-14.39814 -0.7649056,-2.925 3.1448603,-7.84048 6.2363123,-7.84048 0.994544,0 4.444544,1.96893 7.666667,4.3754 5.0628,3.78119 12.063532,7.6246 13.888139,7.6246 0.31401,0 0.06237,-1.35 -0.559204,-3 -1.553294,-4.1233 0.457433,-8.78343 4.138413,-9.59131 14.234589,-3.12414 18.612521,-3.31428 24.130836,-1.04805 4.565261,1.87484 10.373263,2.33423 31.593552,2.49891 14.3,0.11097 38.23776,0.30638 53.19503,0.43424 20.82141,0.17798 27.44156,-0.16642 28.24689,-1.46949 0.57853,-0.93607 1.07972,-8.92948 1.11376,-17.763122 0.076,-19.728059 0.78365,-20.727841 14.67052,-20.727841 13.73332,0 13.84195,0.166053 14.95428,22.859223 0.51601,10.52743 1.35355,21.051 1.86119,23.38573 0.75936,3.49244 0.31501,4.85292 -2.50666,7.67457 -3.41021,3.41022 -3.52612,3.42569 -20.48232,2.7329 -9.37897,-0.3832 -38.05269,-0.91632 -63.71936,-1.18473 l -46.666663,-0.48801 -10.46495,5.36426 c -12.08487,6.19464 -24.506202,7.88028 -32.868384,4.46043 z M 195.33333,104.55556 c 0,-10.864201 -0.35668,-13.222227 -2,-13.222227 -1.52288,0 -2.25258,2.544651 -3.0588,10.666667 -1.09736,11.05518 0.22595,17.38873 3.41127,16.32695 1.16015,-0.38671 1.64753,-4.4607 1.64753,-13.77139 z M 31.977808,40.643045 C 28.836035,37.29878 16.331953,30.666667 13.168502,30.666667 c -2.701947,0 -7.7047883,-5.454999 -6.9077428,-7.532067 0.40414,-1.053172 3.1916768,-3.168263 6.1945258,-4.700203 3.00285,-1.531938 9.318327,-5.706381 14.034395,-9.2765371 4.716069,-3.5701563 9.432308,-6.4911932 10.480533,-6.4911932 1.048224,0 4.360871,2.4065128 7.361438,5.3478062 7.404345,7.2580791 12.977754,8.7738921 25.281233,6.8757961 C 74.959132,14.065487 80.533333,13.124107 82,12.798313 83.466667,12.472519 87.966667,11.588845 92,10.834594 96.033333,10.080342 101.30027,8.8710283 103.70429,8.1472299 110.38518,6.1357651 157.9412,4.9427845 168,6.5343207 c 4.76667,0.7541972 12.68692,1.9858573 17.60057,2.7370225 4.91364,0.7511648 11.66364,2.6919668 15,4.3128928 5.08067,2.468385 6.0661,3.561465 6.0661,6.728835 0,3.234409 -0.91656,4.181977 -6.33334,6.547606 C 196.85,28.381929 187.1,31.089587 178.66667,32.877695 165.25463,35.721429 159.90841,36.127852 136,36.121244 109.13431,36.113777 96.718717,34.655359 80.611661,29.614779 78.381409,28.916837 72.259976,28.449145 67.008479,28.575463 57.205568,28.811256 54.220261,30.171411 49.427348,36.585711 43.15794,44.975987 37.322981,46.33272 31.977808,40.643045 Z m 9.262799,-14.544341 c 3.372158,-3.5895 2.796332,-5.643729 -2.104292,-7.506944 -2.469684,-0.938972 -4.5617,-0.585447 -8.537148,1.442676 -2.896208,1.477535 -5.265834,3.199292 -5.265834,3.826125 0,1.407916 7.900096,5.400975 10.767582,5.442412 1.155502,0.01669 3.468364,-1.425224 5.139692,-3.204269 z M 174,23.590757 c 8.88209,-1.887388 10.55283,-4.639456 4,-6.588864 -8.30025,-2.469249 -47.17708,-2.725033 -66.64333,-0.438468 -18.893778,2.21932 -22.577961,3.415284 -19.623155,6.37009 C 95.447721,26.647721 157.2888,27.141781 174,23.590757 Z"
       id="path1625" />
  </g>
</svg>
