<?xml version="1.0" encoding="UTF-8" standalone="no"?>
<!-- Created with Inkscape (http://www.inkscape.org/) -->

<svg
   version="1.1"
   id="svg213"
   width="220"
   height="220"
   viewBox="0 0 220 220"
   xmlns="http://www.w3.org/2000/svg"
   xmlns:svg="http://www.w3.org/2000/svg">
  <defs
     id="defs217" />
  <g
     id="g219">
    <path
       style="fill:#000000;stroke-width:1.33333"
       d="m 166.48804,215.09633 c -13.99168,-0.86122 -13.82137,-0.43929 -13.82137,-34.24256 0,-32.96314 0.73557,-36.21854 8.45506,-37.41934 7.89182,-1.2276 45.00236,0.18137 48.07391,1.82521 3.16737,1.69513 3.10827,0.93188 2.94043,37.97019 -0.12867,28.39893 -0.90563,31.26572 -7.76638,28.65726 -2.25942,-0.85902 -4.35704,-0.60596 -7.21132,0.87004 -4.37093,2.26031 -16.68893,3.19979 -30.67033,2.3392 z m 32.11427,-10.62717 c 1.64392,-1.53571 2.09208,-18.74904 0.82413,-31.65412 -1.34292,-13.66829 -1.6216,-14.59224 -4.75977,-15.78132 -4.28564,-1.62384 -26.59867,-1.63505 -28.21955,-0.0141 -1.92263,1.92262 -2.6694,18.29249 -1.50455,32.98045 l 1.05743,13.3333 9.33333,1.54682 c 8.26398,1.36958 21.61535,1.13377 23.26898,-0.41099 z M 12.417979,203.71743 c -4.2554571,-0.89516 -5.6959626,-1.8725 -6.0614742,-4.11248 -0.6244412,-3.82683 2.6920688,-15.65923 5.1705822,-18.44724 1.063762,-1.1966 2.517378,-4.28806 3.230257,-6.8699 1.547251,-5.60368 10.334217,-14.76237 17.840901,-18.59564 6.637756,-3.38956 21.132263,-4.64797 27.881138,-2.42065 5.304006,1.75048 16.727068,9.0956 22.511429,14.47501 4.675069,4.34779 8.808769,12.28668 11.230875,21.56922 2.280044,8.73809 1.530858,12.79868 -2.543414,13.78526 -1.656384,0.4011 -18.527926,0.77303 -37.492316,0.82652 -18.96439,0.0535 -34.86439,0.2923 -35.333333,0.53068 -0.468944,0.23839 -3.364533,-0.0949 -6.434645,-0.74078 z m 58.937265,-12.32536 c 6.324449,-1.60584 6.628212,-1.89428 6.992365,-6.63966 0.43028,-5.6071 -2.680912,-10.13304 -12.130581,-17.64665 -5.088244,-4.04577 -6.327444,-4.41339 -14.883695,-4.41527 -7.780002,-0.001 -10.365829,0.60636 -15.537185,3.65372 -7.717399,4.54768 -12.387811,10.09892 -14.304208,17.00194 -2.281251,8.21725 -2.124079,8.47324 5.50806,8.97126 16.578801,1.08182 38.229104,0.63015 44.355244,-0.92534 z M 37.709379,77.333333 C 13.314069,76.531804 13.127421,76.426564 12.407302,63.067071 c -0.663518,-12.309458 0.07798,-14.595514 5.258765,-16.212775 2.383664,-0.744097 20.732502,-1.768215 40.775198,-2.275816 24.933408,-0.631463 36.613206,-1.394847 36.98574,-2.417361 0.299463,-0.82195 -0.291877,-3.89025 -1.314089,-6.818447 -1.438992,-4.122095 -1.511024,-5.975765 -0.319075,-8.211113 2.809928,-5.26966 16.708019,-19.0393906 20.068049,-19.8827046 4.72337,-1.1854885 10.02767,2.4143497 15.62348,10.6030856 6.13091,8.971792 6.99916,12.703577 4.5856,19.708987 -1.07408,3.117556 -1.70406,5.917097 -1.39995,6.221205 0.98102,0.98102 48.99167,0.712984 59.68021,-0.333184 l 10.35122,-1.013155 4.43368,4.44877 c 7.88064,7.907482 7.74316,25.784886 -0.22266,28.955064 -3.88003,1.544137 -132.981698,2.683826 -169.204091,1.493706 z m 10.957288,-11.5317 c 32.407217,-2.042557 30.374182,-1.997762 88.000003,-1.938894 25.66666,0.02623 49.57974,-0.317836 53.14017,-0.76457 l 6.47351,-0.812241 -5.14018,-1.854084 c -4.15217,-1.497707 -20.53705,-1.887981 -85.24356,-2.030433 -44.056865,-0.09699 -80.806865,0.258422 -81.666666,0.789809 -0.859803,0.531388 -1.563277,2.010748 -1.563277,3.287469 0,3.901904 2.940374,5.705482 7.99505,4.904031 2.56939,-0.407393 10.671616,-1.118883 18.00495,-1.581087 z M 118.38409,41 c 0.7575,-0.916667 1.79824,-3.919315 2.31275,-6.672551 1.01583,-5.435886 -1.80051,-11.660782 -5.27572,-11.660782 -2.69401,0 -8.75445,7.711161 -8.75445,11.138958 0,6.770822 8.00556,11.686155 11.71742,7.194375 z"
       id="path241" />
  </g>
</svg>
